<svg width="960" height="402" viewBox="0 0 960 402" fill="none" xmlns="http://www.w3.org/2000/svg">
<rect width="960" height="402" fill="white"/>
<path d="M830 147V27" stroke="#D3D7E0" stroke-width="2" stroke-linecap="square" stroke-dasharray="6 6"/>
<path d="M915 147V27" stroke="#D3D7E0" stroke-width="2" stroke-linecap="square" stroke-dasharray="6 6"/>
<path d="M771 158V24" stroke="#D3D7E0" stroke-width="2" stroke-linecap="square" stroke-dasharray="6 6"/>
<path d="M719.593 37V26.92H725.564V28.383H721.056V31.225H724.724V32.695H721.056V37H719.593ZM726.826 37V26.92H730.9C730.998 26.92 731.119 26.9247 731.264 26.934C731.408 26.9387 731.546 26.9527 731.677 26.976C732.237 27.0647 732.703 27.256 733.077 27.55C733.455 27.844 733.737 28.215 733.924 28.663C734.11 29.111 734.204 29.6057 734.204 30.147C734.204 30.9497 733.998 31.6427 733.588 32.226C733.177 32.8047 732.561 33.1663 731.74 33.311L731.145 33.381H728.289V37H726.826ZM732.72 37L730.732 32.898L732.209 32.52L734.393 37H732.72ZM728.289 31.995H730.844C730.937 31.995 731.04 31.9903 731.152 31.981C731.268 31.9717 731.378 31.9553 731.481 31.932C731.779 31.862 732.02 31.7337 732.202 31.547C732.384 31.3557 732.514 31.1363 732.594 30.889C732.673 30.6417 732.713 30.3943 732.713 30.147C732.713 29.8997 732.673 29.6547 732.594 29.412C732.514 29.1647 732.384 28.9477 732.202 28.761C732.02 28.5697 731.779 28.439 731.481 28.369C731.378 28.341 731.268 28.3223 731.152 28.313C731.04 28.3037 730.937 28.299 730.844 28.299H728.289V31.995ZM740.201 37V35.243H735.651V33.857L738.927 26.92H740.6L737.324 33.857H740.201V31.127H741.685V33.857H742.686V35.243H741.685V37H740.201Z" fill="#D3D7E0"/>
<path d="M689 158V24" stroke="#D3D7E0" stroke-width="2" stroke-linecap="square" stroke-dasharray="6 6"/>
<path d="M612.682 37.21C611.674 37.21 610.815 36.9907 610.106 36.552C609.397 36.1087 608.853 35.4927 608.475 34.704C608.102 33.9153 607.915 33.0007 607.915 31.96C607.915 30.9193 608.102 30.0047 608.475 29.216C608.853 28.4273 609.397 27.8137 610.106 27.375C610.815 26.9317 611.674 26.71 612.682 26.71C613.844 26.71 614.805 27.004 615.566 27.592C616.331 28.18 616.863 28.971 617.162 29.965L615.678 30.364C615.482 29.6593 615.132 29.1063 614.628 28.705C614.129 28.3037 613.48 28.103 612.682 28.103C611.968 28.103 611.373 28.264 610.897 28.586C610.421 28.908 610.062 29.3583 609.819 29.937C609.581 30.5157 609.462 31.19 609.462 31.96C609.457 32.73 609.574 33.4043 609.812 33.983C610.055 34.5617 610.414 35.012 610.89 35.334C611.371 35.656 611.968 35.817 612.682 35.817C613.48 35.817 614.129 35.6163 614.628 35.215C615.132 34.809 615.482 34.256 615.678 33.556L617.162 33.955C616.863 34.949 616.331 35.74 615.566 36.328C614.805 36.916 613.844 37.21 612.682 37.21ZM618.702 37V26.92H621.859C621.952 26.92 622.125 26.9223 622.377 26.927C622.633 26.9317 622.878 26.9503 623.112 26.983C623.9 27.081 624.563 27.3633 625.1 27.83C625.641 28.2967 626.049 28.8893 626.325 29.608C626.6 30.322 626.738 31.106 626.738 31.96C626.738 32.8187 626.6 33.6073 626.325 34.326C626.049 35.04 625.641 35.6303 625.1 36.097C624.563 36.559 623.9 36.839 623.112 36.937C622.878 36.9697 622.633 36.9883 622.377 36.993C622.125 36.9977 621.952 37 621.859 37H618.702ZM620.2 35.607H621.859C622.017 35.607 622.206 35.6023 622.426 35.593C622.645 35.5837 622.839 35.565 623.007 35.537C623.52 35.439 623.935 35.2173 624.253 34.872C624.575 34.522 624.81 34.0927 624.96 33.584C625.109 33.0753 625.184 32.534 625.184 31.96C625.184 31.3673 625.107 30.819 624.953 30.315C624.799 29.8063 624.561 29.3817 624.239 29.041C623.921 28.6957 623.511 28.4763 623.007 28.383C622.839 28.3503 622.643 28.3317 622.419 28.327C622.199 28.3177 622.013 28.313 621.859 28.313H620.2V35.607ZM628.368 37V26.92H632.442C632.54 26.92 632.661 26.9247 632.806 26.934C632.95 26.9387 633.088 26.9527 633.219 26.976C633.779 27.0647 634.245 27.256 634.619 27.55C634.997 27.844 635.279 28.215 635.466 28.663C635.652 29.111 635.746 29.6057 635.746 30.147C635.746 30.9497 635.54 31.6427 635.13 32.226C634.719 32.8047 634.103 33.1663 633.282 33.311L632.687 33.381H629.831V37H628.368ZM634.262 37L632.274 32.898L633.751 32.52L635.935 37H634.262ZM629.831 31.995H632.386C632.479 31.995 632.582 31.9903 632.694 31.981C632.81 31.9717 632.92 31.9553 633.023 31.932C633.321 31.862 633.562 31.7337 633.744 31.547C633.926 31.3557 634.056 31.1363 634.136 30.889C634.215 30.6417 634.255 30.3943 634.255 30.147C634.255 29.8997 634.215 29.6547 634.136 29.412C634.056 29.1647 633.926 28.9477 633.744 28.761C633.562 28.5697 633.321 28.439 633.023 28.369C632.92 28.341 632.81 28.3223 632.694 28.313C632.582 28.3037 632.479 28.299 632.386 28.299H629.831V31.995ZM640.294 37.189C639.795 37.189 639.326 37.0957 638.887 36.909C638.448 36.7177 638.068 36.447 637.746 36.097C637.429 35.747 637.198 35.334 637.053 34.858L638.467 34.466C638.602 34.9 638.838 35.2337 639.174 35.467C639.51 35.6957 639.883 35.8077 640.294 35.803C640.663 35.7983 640.987 35.712 641.267 35.544C641.547 35.376 641.766 35.1497 641.925 34.865C642.084 34.5757 642.163 34.2443 642.163 33.871C642.163 33.311 641.988 32.849 641.638 32.485C641.293 32.121 640.84 31.939 640.28 31.939C640.121 31.939 639.958 31.9623 639.79 32.009C639.627 32.0557 639.473 32.1163 639.328 32.191L638.642 31.036L642.198 27.893L642.352 28.313H637.452V26.92H643.514V28.313L640.56 31.155L640.546 30.679C641.181 30.679 641.731 30.8213 642.198 31.106C642.665 31.386 643.024 31.7687 643.276 32.254C643.533 32.7347 643.661 33.2737 643.661 33.871C643.661 34.515 643.509 35.0867 643.206 35.586C642.907 36.0853 642.504 36.4773 641.995 36.762C641.491 37.0467 640.924 37.189 640.294 37.189Z" fill="#D3D7E0"/>
<path d="M208 158V24" stroke="#D3D7E0" stroke-width="2" stroke-linecap="square" stroke-dasharray="6 6"/>
<path d="M224.268 37.21C223.75 37.21 223.267 37.105 222.819 36.895C222.375 36.6803 221.995 36.3863 221.678 36.013C221.36 35.635 221.134 35.201 220.999 34.711L222.406 34.333C222.485 34.6317 222.62 34.8907 222.812 35.11C223.008 35.3293 223.236 35.4997 223.498 35.621C223.759 35.7377 224.03 35.796 224.31 35.796C224.678 35.796 225.012 35.7073 225.311 35.53C225.614 35.3527 225.852 35.1147 226.025 34.816C226.202 34.5173 226.291 34.1883 226.291 33.829C226.291 33.4603 226.2 33.1267 226.018 32.828C225.84 32.5293 225.6 32.2937 225.297 32.121C224.998 31.9437 224.669 31.855 224.31 31.855C223.899 31.855 223.551 31.9367 223.267 32.1C222.982 32.2633 222.76 32.4523 222.602 32.667L221.328 32.219L221.636 26.92H227.075V28.299H222.385L222.98 27.746L222.735 31.715L222.448 31.344C222.714 31.078 223.031 30.875 223.4 30.735C223.768 30.595 224.135 30.525 224.499 30.525C225.124 30.525 225.682 30.6697 226.172 30.959C226.666 31.2483 227.056 31.6427 227.341 32.142C227.625 32.6367 227.768 33.199 227.768 33.829C227.768 34.4543 227.607 35.0237 227.285 35.537C226.963 36.0457 226.536 36.4517 226.004 36.755C225.472 37.0583 224.893 37.21 224.268 37.21ZM229.581 30.28L229.672 29.629C229.873 29.643 230.029 29.6057 230.141 29.517C230.253 29.4283 230.328 29.3047 230.365 29.146C230.402 28.9873 230.409 28.8077 230.386 28.607H229.581V26.92H231.128V28.747C231.128 29.2977 230.995 29.713 230.729 29.993C230.468 30.273 230.085 30.3687 229.581 30.28ZM237.15 37.21C236.362 37.21 235.664 37.049 235.057 36.727C234.455 36.4003 233.984 35.9453 233.643 35.362C233.303 34.774 233.132 34.0833 233.132 33.29V26.927L234.616 26.92V33.213C234.616 33.6423 234.689 34.0203 234.833 34.347C234.978 34.6737 235.172 34.9467 235.414 35.166C235.657 35.3853 235.928 35.551 236.226 35.663C236.53 35.775 236.838 35.831 237.15 35.831C237.468 35.831 237.776 35.775 238.074 35.663C238.378 35.5463 238.651 35.3783 238.893 35.159C239.136 34.9397 239.327 34.6667 239.467 34.34C239.612 34.0133 239.684 33.6377 239.684 33.213V26.92H241.168V33.29C241.168 34.0787 240.998 34.767 240.657 35.355C240.317 35.943 239.843 36.4003 239.236 36.727C238.634 37.049 237.939 37.21 237.15 37.21ZM245.639 37V28.299H242.286V26.92H250.455V28.299H247.102V37H245.639ZM251.576 37V26.92H255.65C255.748 26.92 255.869 26.9247 256.014 26.934C256.158 26.9387 256.296 26.9527 256.427 26.976C256.987 27.0647 257.453 27.256 257.827 27.55C258.205 27.844 258.487 28.215 258.674 28.663C258.86 29.111 258.954 29.6057 258.954 30.147C258.954 30.9497 258.748 31.6427 258.338 32.226C257.927 32.8047 257.311 33.1663 256.49 33.311L255.895 33.381H253.039V37H251.576ZM257.47 37L255.482 32.898L256.959 32.52L259.143 37H257.47ZM253.039 31.995H255.594C255.687 31.995 255.79 31.9903 255.902 31.981C256.018 31.9717 256.128 31.9553 256.231 31.932C256.529 31.862 256.77 31.7337 256.952 31.547C257.134 31.3557 257.264 31.1363 257.344 30.889C257.423 30.6417 257.463 30.3943 257.463 30.147C257.463 29.8997 257.423 29.6547 257.344 29.412C257.264 29.1647 257.134 28.9477 256.952 28.761C256.77 28.5697 256.529 28.439 256.231 28.369C256.128 28.341 256.018 28.3223 255.902 28.313C255.79 28.3037 255.687 28.299 255.594 28.299H253.039V31.995Z" fill="#D3D7E0"/>
<path d="M272 158V24" stroke="#D3D7E0" stroke-width="2" stroke-linecap="square" stroke-dasharray="6 6"/>
<path d="M283.442 37V26.92H284.905V35.621H289.469V37H283.442Z" fill="#D3D7E0"/>
<path d="M300 158V24" stroke="#D3D7E0" stroke-width="2" stroke-linecap="square" stroke-dasharray="6 6"/>
<path d="M315.858 37H317.321V32.695H320.989V31.225H317.321V28.383H321.829V26.92H315.858V37ZM323.09 37H324.553V33.381H327.227L328.984 37H330.657L328.753 33.094C329.894 32.597 330.468 31.491 330.468 30.147C330.468 28.516 329.628 27.235 327.941 26.976C327.675 26.934 327.36 26.92 327.164 26.92H323.09V37ZM324.553 31.995V28.299H327.108C327.29 28.299 327.535 28.313 327.745 28.369C328.641 28.579 328.977 29.405 328.977 30.147C328.977 30.889 328.641 31.715 327.745 31.932C327.535 31.981 327.29 31.995 327.108 31.995H324.553ZM333.953 37H335.444V26.92H333.953L332.056 28.054V29.685L333.953 28.53V37Z" fill="#D3D7E0"/>
<path d="M352 158V24" stroke="#D3D7E0" stroke-width="2" stroke-linecap="square" stroke-dasharray="6 6"/>
<path d="M365.735 37.21C368.059 37.21 369.62 35.943 370.215 33.955L368.731 33.556C368.332 34.963 367.331 35.817 365.735 35.817C363.593 35.817 362.501 34.27 362.515 31.96C362.522 29.65 363.593 28.103 365.735 28.103C367.331 28.103 368.332 28.957 368.731 30.364L370.215 29.965C369.62 27.977 368.059 26.71 365.735 26.71C362.711 26.71 360.968 28.845 360.968 31.96C360.968 35.075 362.711 37.21 365.735 37.21ZM371.754 37H374.911C375.093 37 375.695 37 376.164 36.937C378.53 36.636 379.79 34.529 379.79 31.96C379.79 29.391 378.53 27.284 376.164 26.983C375.695 26.92 375.093 26.92 374.911 26.92H371.754V37ZM373.252 35.607V28.313H374.911C375.219 28.313 375.723 28.32 376.059 28.383C377.571 28.663 378.236 30.189 378.236 31.96C378.236 33.689 377.599 35.243 376.059 35.537C375.723 35.6 375.233 35.607 374.911 35.607H373.252ZM381.42 37H382.883V33.381H385.557L387.314 37H388.987L387.083 33.094C388.224 32.597 388.798 31.491 388.798 30.147C388.798 28.516 387.958 27.235 386.271 26.976C386.005 26.934 385.69 26.92 385.494 26.92H381.42V37ZM382.883 31.995V28.299H385.438C385.62 28.299 385.865 28.313 386.075 28.369C386.971 28.579 387.307 29.405 387.307 30.147C387.307 30.889 386.971 31.715 386.075 31.932C385.865 31.981 385.62 31.995 385.438 31.995H382.883ZM392.283 37H393.774V26.92H392.283L390.386 28.054V29.685L392.283 28.53V37Z" fill="#D3D7E0"/>
<path d="M404 158V24" stroke="#D3D7E0" stroke-width="2" stroke-linecap="square" stroke-dasharray="6 6"/>
<path d="M418.703 37H420.166V32.695H423.834V31.225H420.166V28.383H424.674V26.92H418.703V37ZM425.935 37H427.398V33.381H430.072L431.829 37H433.502L431.598 33.094C432.739 32.597 433.313 31.491 433.313 30.147C433.313 28.516 432.473 27.235 430.786 26.976C430.52 26.934 430.205 26.92 430.009 26.92H425.935V37ZM427.398 31.995V28.299H429.953C430.135 28.299 430.38 28.313 430.59 28.369C431.486 28.579 431.822 29.405 431.822 30.147C431.822 30.889 431.486 31.715 430.59 31.932C430.38 31.981 430.135 31.995 429.953 31.995H427.398ZM434.761 36.993H441.579V35.6H437.022L439.941 32.996C441.033 32.037 441.579 31.407 441.579 30.028C441.579 28.117 440.144 26.71 438.24 26.71C436.231 26.71 434.796 28.047 434.796 30H436.294C436.28 28.985 437.092 28.103 438.212 28.103C439.297 28.103 440.074 28.929 440.074 30.007C440.074 30.581 439.864 31.127 439.157 31.757L434.768 35.691L434.761 36.993Z" fill="#D3D7E0"/>
<path d="M456 158V24" stroke="#D3D7E0" stroke-width="2" stroke-linecap="square" stroke-dasharray="6 6"/>
<path d="M468.58 37.21C470.904 37.21 472.465 35.943 473.06 33.955L471.576 33.556C471.177 34.963 470.176 35.817 468.58 35.817C466.438 35.817 465.346 34.27 465.36 31.96C465.367 29.65 466.438 28.103 468.58 28.103C470.176 28.103 471.177 28.957 471.576 30.364L473.06 29.965C472.465 27.977 470.904 26.71 468.58 26.71C465.556 26.71 463.813 28.845 463.813 31.96C463.813 35.075 465.556 37.21 468.58 37.21ZM474.599 37H477.756C477.938 37 478.54 37 479.009 36.937C481.375 36.636 482.635 34.529 482.635 31.96C482.635 29.391 481.375 27.284 479.009 26.983C478.54 26.92 477.938 26.92 477.756 26.92H474.599V37ZM476.097 35.607V28.313H477.756C478.064 28.313 478.568 28.32 478.904 28.383C480.416 28.663 481.081 30.189 481.081 31.96C481.081 33.689 480.444 35.243 478.904 35.537C478.568 35.6 478.078 35.607 477.756 35.607H476.097ZM484.265 37H485.728V33.381H488.402L490.159 37H491.832L489.928 33.094C491.069 32.597 491.643 31.491 491.643 30.147C491.643 28.516 490.803 27.235 489.116 26.976C488.85 26.934 488.535 26.92 488.339 26.92H484.265V37ZM485.728 31.995V28.299H488.283C488.465 28.299 488.71 28.313 488.92 28.369C489.816 28.579 490.152 29.405 490.152 30.147C490.152 30.889 489.816 31.715 488.92 31.932C488.71 31.981 488.465 31.995 488.283 31.995H485.728ZM493.091 36.993H499.909V35.6H495.352L498.271 32.996C499.363 32.037 499.909 31.407 499.909 30.028C499.909 28.117 498.474 26.71 496.57 26.71C494.561 26.71 493.126 28.047 493.126 30H494.624C494.61 28.985 495.422 28.103 496.542 28.103C497.627 28.103 498.404 28.929 498.404 30.007C498.404 30.581 498.194 31.127 497.487 31.757L493.098 35.691L493.091 36.993Z" fill="#D3D7E0"/>
<path d="M508 158V24" stroke="#D3D7E0" stroke-width="2" stroke-linecap="square" stroke-dasharray="6 6"/>
<path d="M522.805 37H524.268V32.695H527.936V31.225H524.268V28.383H528.776V26.92H522.805V37ZM530.038 37H531.501V33.381H534.175L535.932 37H537.605L535.701 33.094C536.842 32.597 537.416 31.491 537.416 30.147C537.416 28.516 536.576 27.235 534.889 26.976C534.623 26.934 534.308 26.92 534.112 26.92H530.038V37ZM531.501 31.995V28.299H534.056C534.238 28.299 534.483 28.313 534.693 28.369C535.589 28.579 535.925 29.405 535.925 30.147C535.925 30.889 535.589 31.715 534.693 31.932C534.483 31.981 534.238 31.995 534.056 31.995H531.501ZM541.964 37.189C543.847 37.189 545.331 35.796 545.331 33.871C545.331 32.233 544.323 30.924 542.692 30.707L545.184 28.313V26.92H539.122V28.313H543.392L540.312 31.036L540.998 32.191C541.285 32.037 541.628 31.939 541.95 31.939C543.07 31.939 543.833 32.751 543.833 33.871C543.833 34.984 543.07 35.789 541.964 35.803C541.138 35.81 540.403 35.341 540.137 34.466L538.723 34.858C539.15 36.293 540.466 37.189 541.964 37.189Z" fill="#D3D7E0"/>
<path d="M560 158V24" stroke="#D3D7E0" stroke-width="2" stroke-linecap="square" stroke-dasharray="6 6"/>
<path d="M47.4 194H49.18V188.68H53.39L55.97 194H58.01L55.23 188.29C56.86 187.61 57.71 186.04 57.71 184.14C57.71 181.85 56.48 180.04 54.15 179.68C53.78 179.62 53.37 179.6 53.09 179.6H47.4V194ZM49.18 186.99V181.29H53.03C53.28 181.29 53.63 181.31 53.93 181.38C55.31 181.69 55.89 182.94 55.89 184.14C55.89 185.34 55.31 186.59 53.93 186.9C53.63 186.97 53.28 186.99 53.03 186.99H49.18ZM59.8125 193.99H69.3825V192.29H62.5525L67.1925 188.12C68.6725 186.81 69.3825 185.86 69.3825 183.97C69.3825 181.32 67.3625 179.3 64.6925 179.3C61.9225 179.3 59.8825 181.23 59.8825 183.94H61.7025C61.6825 182.37 62.9425 181 64.6625 181C66.3225 181 67.5625 182.29 67.5625 183.95C67.5625 184.86 67.2725 185.69 66.2125 186.64L59.8225 192.39L59.8125 193.99Z" fill="#110529"/>
<path d="M79 178V194H89V202L103 186L89 170V178H79Z" fill="#110529"/>
<path d="M47.4 360H49.18V354.68H53.39L55.97 360H58.01L55.23 354.29C56.86 353.61 57.71 352.04 57.71 350.14C57.71 347.85 56.48 346.04 54.15 345.68C53.78 345.62 53.37 345.6 53.09 345.6H47.4V360ZM49.18 352.99V347.29H53.03C53.28 347.29 53.63 347.31 53.93 347.38C55.31 347.69 55.89 348.94 55.89 350.14C55.89 351.34 55.31 352.59 53.93 352.9C53.63 352.97 53.28 352.99 53.03 352.99H49.18ZM59.8125 359.99H69.3825V358.29H62.5525L67.1925 354.12C68.6725 352.81 69.3825 351.86 69.3825 349.97C69.3825 347.32 67.3625 345.3 64.6925 345.3C61.9225 345.3 59.8825 347.23 59.8825 349.94H61.7025C61.6825 348.37 62.9425 347 64.6625 347C66.3225 347 67.5625 348.29 67.5625 349.95C67.5625 350.86 67.2725 351.69 66.2125 352.64L59.8225 358.39L59.8125 359.99Z" fill="#110529"/>
<path d="M79 344V360H89V368L103 352L89 336V344H79Z" fill="#110529"/>
<path d="M249.5 186H106" stroke="#110529" stroke-width="2" stroke-linecap="square"/>
<rect width="57" height="20" transform="translate(249.5 176)" fill="white"/>
<path d="M254.417 183.617H255.933C255.933 182.883 256.267 182.2 256.8 181.733C257.217 181.383 257.767 181.167 258.367 181.167C259.017 181.167 259.617 181.4 260.05 181.833C260.533 182.283 260.817 182.933 260.817 183.617C260.817 184.383 260.583 185.083 259.7 185.867L254.35 190.567L254.333 191.983H262.167V190.567H256.667L260.517 187.133C261.733 186.05 262.333 185.167 262.333 183.633C262.333 182.583 261.917 181.567 261.183 180.867C260.483 180.117 259.5 179.75 258.433 179.75C257.467 179.75 256.5 180.017 255.767 180.65C254.933 181.367 254.4 182.45 254.417 183.617ZM265.055 192H266.572L270.889 181.417V180H263.839V181.417H269.372L265.055 192ZM273.285 180L272.919 186.167L274.252 186.933C274.402 186.683 274.585 186.45 274.802 186.267C275.252 185.85 275.852 185.633 276.485 185.633C277.152 185.633 277.769 185.9 278.235 186.317C278.752 186.8 279.069 187.483 279.069 188.217C279.069 188.933 278.785 189.583 278.302 190.067C277.835 190.533 277.185 190.8 276.485 190.8C275.819 190.8 275.202 190.55 274.735 190.117C274.369 189.8 274.102 189.367 273.985 188.883L272.552 189.267C272.752 189.983 273.152 190.65 273.685 191.15C274.419 191.85 275.435 192.25 276.485 192.233C277.569 192.217 278.602 191.817 279.352 191.067C280.085 190.333 280.552 189.3 280.569 188.217C280.569 187.083 280.135 186.033 279.285 185.267C278.569 184.633 277.619 184.267 276.652 184.267C275.835 184.267 275.035 184.567 274.402 185.067L274.619 181.4H279.602V180H273.285ZM290.006 184.183C289.273 183.25 288.123 182.75 286.89 182.75C285.823 182.75 284.806 183.15 284.073 183.85V180H282.573V192H283.906V190.95C284.623 191.817 285.69 192.25 286.89 192.25C288.106 192.25 289.256 191.733 290.006 190.8C290.756 189.85 291.006 188.667 291.006 187.483C291.006 186.3 290.723 185.1 290.006 184.183ZM288.806 189.883C288.323 190.567 287.523 190.883 286.706 190.883C285.873 190.883 285.106 190.583 284.606 189.967C284.106 189.35 283.906 188.417 283.906 187.483C283.906 186.567 284.106 185.65 284.606 185.017C285.09 184.4 285.84 184.1 286.656 184.1C287.54 184.1 288.306 184.417 288.79 185.1C289.256 185.717 289.423 186.583 289.423 187.483C289.423 188.383 289.273 189.267 288.806 189.883ZM300.272 184.183C299.539 183.25 298.389 182.75 297.155 182.75C296.005 182.75 294.905 183.2 294.172 184.017V183H292.839V196H294.339V191.15C295.039 191.883 296.039 192.25 297.155 192.25C298.372 192.25 299.522 191.733 300.272 190.8C301.022 189.85 301.272 188.667 301.272 187.483C301.272 186.3 300.989 185.1 300.272 184.183ZM299.072 189.883C298.589 190.567 297.789 190.883 296.972 190.883C296.139 190.883 295.372 190.583 294.872 189.967C294.372 189.35 294.172 188.417 294.172 187.483C294.172 186.567 294.372 185.65 294.872 185.017C295.355 184.4 296.105 184.1 296.922 184.1C297.805 184.1 298.572 184.417 299.055 185.1C299.522 185.717 299.689 186.583 299.689 187.483C299.689 188.383 299.539 189.267 299.072 189.883Z" fill="#110529"/>
<path d="M450 186H306.5" stroke="#110529" stroke-width="2" stroke-linecap="square"/>
<path d="M460 186L460.707 185.293L461.414 186L460.707 186.707L460 186ZM452.707 194.707L452 195.414L450.586 194L451.293 193.293L452.707 194.707ZM451.293 178.707L450.586 178L452 176.586L452.707 177.293L451.293 178.707ZM450 185L460 185L460 187L450 187L450 185ZM460.707 186.707L452.707 194.707L451.293 193.293L459.293 185.293L460.707 186.707ZM459.293 186.707L451.293 178.707L452.707 177.293L460.707 185.293L459.293 186.707Z" fill="#110529"/>
<path d="M249.5 352H106" stroke="#110529" stroke-width="2" stroke-linecap="square"/>
<rect width="57" height="20" transform="translate(249.5 342)" fill="white"/>
<path d="M254.417 349.617H255.933C255.933 348.883 256.267 348.2 256.8 347.733C257.217 347.383 257.767 347.167 258.367 347.167C259.017 347.167 259.617 347.4 260.05 347.833C260.533 348.283 260.817 348.933 260.817 349.617C260.817 350.383 260.583 351.083 259.7 351.867L254.35 356.567L254.333 357.983H262.167V356.567H256.667L260.517 353.133C261.733 352.05 262.333 351.167 262.333 349.633C262.333 348.583 261.917 347.567 261.183 346.867C260.483 346.117 259.5 345.75 258.433 345.75C257.467 345.75 256.5 346.017 255.767 346.65C254.933 347.367 254.4 348.45 254.417 349.617ZM265.055 358H266.572L270.889 347.417V346H263.839V347.417H269.372L265.055 358ZM273.285 346L272.919 352.167L274.252 352.933C274.402 352.683 274.585 352.45 274.802 352.267C275.252 351.85 275.852 351.633 276.485 351.633C277.152 351.633 277.769 351.9 278.235 352.317C278.752 352.8 279.069 353.483 279.069 354.217C279.069 354.933 278.785 355.583 278.302 356.067C277.835 356.533 277.185 356.8 276.485 356.8C275.819 356.8 275.202 356.55 274.735 356.117C274.369 355.8 274.102 355.367 273.985 354.883L272.552 355.267C272.752 355.983 273.152 356.65 273.685 357.15C274.419 357.85 275.435 358.25 276.485 358.233C277.569 358.217 278.602 357.817 279.352 357.067C280.085 356.333 280.552 355.3 280.569 354.217C280.569 353.083 280.135 352.033 279.285 351.267C278.569 350.633 277.619 350.267 276.652 350.267C275.835 350.267 275.035 350.567 274.402 351.067L274.619 347.4H279.602V346H273.285ZM290.006 350.183C289.273 349.25 288.123 348.75 286.89 348.75C285.823 348.75 284.806 349.15 284.073 349.85V346H282.573V358H283.906V356.95C284.623 357.817 285.69 358.25 286.89 358.25C288.106 358.25 289.256 357.733 290.006 356.8C290.756 355.85 291.006 354.667 291.006 353.483C291.006 352.3 290.723 351.1 290.006 350.183ZM288.806 355.883C288.323 356.567 287.523 356.883 286.706 356.883C285.873 356.883 285.106 356.583 284.606 355.967C284.106 355.35 283.906 354.417 283.906 353.483C283.906 352.567 284.106 351.65 284.606 351.017C285.09 350.4 285.84 350.1 286.656 350.1C287.54 350.1 288.306 350.417 288.79 351.1C289.256 351.717 289.423 352.583 289.423 353.483C289.423 354.383 289.273 355.267 288.806 355.883ZM300.272 350.183C299.539 349.25 298.389 348.75 297.155 348.75C296.005 348.75 294.905 349.2 294.172 350.017V349H292.839V362H294.339V357.15C295.039 357.883 296.039 358.25 297.155 358.25C298.372 358.25 299.522 357.733 300.272 356.8C301.022 355.85 301.272 354.667 301.272 353.483C301.272 352.3 300.989 351.1 300.272 350.183ZM299.072 355.883C298.589 356.567 297.789 356.883 296.972 356.883C296.139 356.883 295.372 356.583 294.872 355.967C294.372 355.35 294.172 354.417 294.172 353.483C294.172 352.567 294.372 351.65 294.872 351.017C295.355 350.4 296.105 350.1 296.922 350.1C297.805 350.1 298.572 350.417 299.055 351.1C299.522 351.717 299.689 352.583 299.689 353.483C299.689 354.383 299.539 355.267 299.072 355.883Z" fill="#110529"/>
<path d="M450 352H306.5" stroke="#110529" stroke-width="2" stroke-linecap="square"/>
<path d="M460 352L460.707 351.293L461.414 352L460.707 352.707L460 352ZM452.707 360.707L452 361.414L450.586 360L451.293 359.293L452.707 360.707ZM451.293 344.707L450.586 344L452 342.586L452.707 343.293L451.293 344.707ZM450 351L460 351L460 353L450 353L450 351ZM460.707 352.707L452.707 360.707L451.293 359.293L459.293 351.293L460.707 352.707ZM459.293 352.707L451.293 344.707L452.707 343.293L460.707 351.293L459.293 352.707Z" fill="#110529"/>
<rect width="44" height="20" transform="translate(93 74)" fill="white"/>
<path d="M100.267 78L98 79.35V81L100.267 79.6333V90H101.767V78H100.267ZM105.649 90H107.166L111.482 79.4167V78H104.432V79.4167H109.966L105.649 90ZM120.913 82.1833C120.179 81.25 119.029 80.75 117.796 80.75C116.729 80.75 115.713 81.15 114.979 81.85V78H113.479V90H114.813V88.95C115.529 89.8167 116.596 90.25 117.796 90.25C119.013 90.25 120.163 89.7333 120.913 88.8C121.663 87.85 121.913 86.6667 121.913 85.4833C121.913 84.3 121.629 83.1 120.913 82.1833ZM119.713 87.8833C119.229 88.5667 118.429 88.8833 117.613 88.8833C116.779 88.8833 116.013 88.5833 115.513 87.9667C115.013 87.35 114.813 86.4167 114.813 85.4833C114.813 84.5667 115.013 83.65 115.513 83.0167C115.996 82.4 116.746 82.1 117.563 82.1C118.446 82.1 119.213 82.4167 119.696 83.1C120.163 83.7167 120.329 84.5833 120.329 85.4833C120.329 86.3833 120.179 87.2667 119.713 87.8833ZM131.178 82.1833C130.445 81.25 129.295 80.75 128.061 80.75C126.911 80.75 125.811 81.2 125.078 82.0167V81H123.745V94H125.245V89.15C125.945 89.8833 126.945 90.25 128.061 90.25C129.278 90.25 130.428 89.7333 131.178 88.8C131.928 87.85 132.178 86.6667 132.178 85.4833C132.178 84.3 131.895 83.1 131.178 82.1833ZM129.978 87.8833C129.495 88.5667 128.695 88.8833 127.878 88.8833C127.045 88.8833 126.278 88.5833 125.778 87.9667C125.278 87.35 125.078 86.4167 125.078 85.4833C125.078 84.5667 125.278 83.65 125.778 83.0167C126.261 82.4 127.011 82.1 127.828 82.1C128.711 82.1 129.478 82.4167 129.961 83.1C130.428 83.7167 130.595 84.5833 130.595 85.4833C130.595 86.3833 130.445 87.2667 129.978 87.8833Z" fill="#110529"/>
<rect width="62" height="20" transform="translate(151 74)" fill="white"/>
<path d="M156.883 90H158.4L162.717 79.4167V78H155.667V79.4167H161.2L156.883 90ZM164.375 84.6833V85.9H169.375V84.6833H164.375ZM173.642 78L171.375 79.35V81L173.642 79.6333V90H175.142V78H173.642ZM182.357 90.25C181.207 90.25 180.057 89.7833 179.307 88.9167C178.574 88.0667 178.307 87.1833 178.307 86.0333V81.95C178.307 80.7833 178.574 79.9 179.341 79.0167C180.074 78.2167 181.174 77.7333 182.357 77.75C183.507 77.7333 184.624 78.1667 185.391 79.0167C186.141 79.85 186.407 80.7667 186.407 81.95V86.0333C186.407 87.1667 186.157 88.0833 185.407 88.9333C184.657 89.7667 183.557 90.25 182.357 90.25ZM182.357 79.1667C181.491 79.15 180.674 79.6333 180.224 80.3333C179.924 80.7833 179.824 81.3167 179.824 81.95V86.0333C179.824 86.6167 179.907 87.1833 180.241 87.6667C180.707 88.3667 181.491 88.8333 182.357 88.8167C183.241 88.8333 184.041 88.3667 184.491 87.6667C184.824 87.1833 184.907 86.6833 184.907 86.0333V81.95C184.907 81.3333 184.824 80.8667 184.507 80.35C184.057 79.6333 183.241 79.15 182.357 79.1667ZM196.178 82.1833C195.445 81.25 194.295 80.75 193.061 80.75C191.995 80.75 190.978 81.15 190.245 81.85V78H188.745V90H190.078V88.95C190.795 89.8167 191.861 90.25 193.061 90.25C194.278 90.25 195.428 89.7333 196.178 88.8C196.928 87.85 197.178 86.6667 197.178 85.4833C197.178 84.3 196.895 83.1 196.178 82.1833ZM194.978 87.8833C194.495 88.5667 193.695 88.8833 192.878 88.8833C192.045 88.8833 191.278 88.5833 190.778 87.9667C190.278 87.35 190.078 86.4167 190.078 85.4833C190.078 84.5667 190.278 83.65 190.778 83.0167C191.261 82.4 192.011 82.1 192.828 82.1C193.711 82.1 194.478 82.4167 194.961 83.1C195.428 83.7167 195.595 84.5833 195.595 85.4833C195.595 86.3833 195.445 87.2667 194.978 87.8833ZM206.444 82.1833C205.71 81.25 204.56 80.75 203.327 80.75C202.177 80.75 201.077 81.2 200.344 82.0167V81H199.01V94H200.51V89.15C201.21 89.8833 202.21 90.25 203.327 90.25C204.544 90.25 205.694 89.7333 206.444 88.8C207.194 87.85 207.444 86.6667 207.444 85.4833C207.444 84.3 207.16 83.1 206.444 82.1833ZM205.244 87.8833C204.76 88.5667 203.96 88.8833 203.144 88.8833C202.31 88.8833 201.544 88.5833 201.044 87.9667C200.544 87.35 200.344 86.4167 200.344 85.4833C200.344 84.5667 200.544 83.65 201.044 83.0167C201.527 82.4 202.277 82.1 203.094 82.1C203.977 82.1 204.744 82.4167 205.227 83.1C205.694 83.7167 205.86 84.5833 205.86 85.4833C205.86 86.3833 205.71 87.2667 205.244 87.8833Z" fill="#110529"/>
<path d="M411 205L410.293 204.293L409.586 205L410.293 205.707L411 205ZM418.293 213.707L419 214.414L420.414 213L419.707 212.293L418.293 213.707ZM419.707 197.707L420.414 197L419 195.586L418.293 196.293L419.707 197.707ZM431 204L411 204L411 206L431 206L431 204ZM410.293 205.707L418.293 213.707L419.707 212.293L411.707 204.293L410.293 205.707ZM411.707 205.707L419.707 197.707L418.293 196.293L410.293 204.293L411.707 205.707Z" fill="#110529"/>
<path d="M426 205L626.5 205" stroke="#110529" stroke-width="2" stroke-linecap="square"/>
<rect width="58" height="20" transform="translate(626.5 195)" fill="white"/>
<path d="M637.917 204.617C637.283 203.967 636.433 203.6 635.467 203.533L638.717 200.467V199H631.65V200.417H636.7L632.983 203.933L633.7 205.117C634.067 204.917 634.533 204.8 634.933 204.8C635.55 204.8 636.133 204.983 636.583 205.383C637.117 205.867 637.35 206.583 637.35 207.3C637.35 208.05 637.117 208.783 636.517 209.267C636.1 209.617 635.533 209.8 634.95 209.817C634.383 209.817 633.817 209.633 633.383 209.283C633 209 632.75 208.583 632.6 208.117L631.167 208.533C631.383 209.233 631.817 209.9 632.4 210.367C633.133 210.95 634.05 211.25 634.967 211.233C635.867 211.217 636.8 210.95 637.517 210.35C638.4 209.633 638.85 208.5 638.883 207.3C638.9 206.317 638.583 205.317 637.917 204.617ZM640.807 202.617H642.324C642.324 201.883 642.657 201.2 643.191 200.733C643.607 200.383 644.157 200.167 644.757 200.167C645.407 200.167 646.007 200.4 646.441 200.833C646.924 201.283 647.207 201.933 647.207 202.617C647.207 203.383 646.974 204.083 646.091 204.867L640.741 209.567L640.724 210.983H648.557V209.567H643.057L646.907 206.133C648.124 205.05 648.724 204.167 648.724 202.633C648.724 201.583 648.307 200.567 647.574 199.867C646.874 199.117 645.891 198.75 644.824 198.75C643.857 198.75 642.891 199.017 642.157 199.65C641.324 200.367 640.791 201.45 640.807 202.617ZM651.129 199L650.763 205.167L652.096 205.933C652.246 205.683 652.429 205.45 652.646 205.267C653.096 204.85 653.696 204.633 654.329 204.633C654.996 204.633 655.613 204.9 656.079 205.317C656.596 205.8 656.913 206.483 656.913 207.217C656.913 207.933 656.629 208.583 656.146 209.067C655.679 209.533 655.029 209.8 654.329 209.8C653.663 209.8 653.046 209.55 652.579 209.117C652.213 208.8 651.946 208.367 651.829 207.883L650.396 208.267C650.596 208.983 650.996 209.65 651.529 210.15C652.263 210.85 653.279 211.25 654.329 211.233C655.413 211.217 656.446 210.817 657.196 210.067C657.929 209.333 658.396 208.3 658.413 207.217C658.413 206.083 657.979 205.033 657.129 204.267C656.413 203.633 655.463 203.267 654.496 203.267C653.679 203.267 652.879 203.567 652.246 204.067L652.463 200.4H657.446V199H651.129ZM667.85 203.183C667.117 202.25 665.967 201.75 664.733 201.75C663.667 201.75 662.65 202.15 661.917 202.85V199H660.417V211H661.75V209.95C662.467 210.817 663.533 211.25 664.733 211.25C665.95 211.25 667.1 210.733 667.85 209.8C668.6 208.85 668.85 207.667 668.85 206.483C668.85 205.3 668.567 204.1 667.85 203.183ZM666.65 208.883C666.167 209.567 665.367 209.883 664.55 209.883C663.717 209.883 662.95 209.583 662.45 208.967C661.95 208.35 661.75 207.417 661.75 206.483C661.75 205.567 661.95 204.65 662.45 204.017C662.933 203.4 663.683 203.1 664.5 203.1C665.383 203.1 666.15 203.417 666.633 204.1C667.1 204.717 667.267 205.583 667.267 206.483C667.267 207.383 667.117 208.267 666.65 208.883ZM678.116 203.183C677.382 202.25 676.232 201.75 674.999 201.75C673.849 201.75 672.749 202.2 672.016 203.017V202H670.682V215H672.182V210.15C672.882 210.883 673.882 211.25 674.999 211.25C676.216 211.25 677.366 210.733 678.116 209.8C678.866 208.85 679.116 207.667 679.116 206.483C679.116 205.3 678.832 204.1 678.116 203.183ZM676.916 208.883C676.432 209.567 675.632 209.883 674.816 209.883C673.982 209.883 673.216 209.583 672.716 208.967C672.216 208.35 672.016 207.417 672.016 206.483C672.016 205.567 672.216 204.65 672.716 204.017C673.199 203.4 673.949 203.1 674.766 203.1C675.649 203.1 676.416 203.417 676.899 204.1C677.366 204.717 677.532 205.583 677.532 206.483C677.532 207.383 677.382 208.267 676.916 208.883Z" fill="#110529"/>
<path d="M684.5 205L885 205" stroke="#110529" stroke-width="2" stroke-linecap="square"/>
<path d="M373 368L372.293 367.293L371.586 368L372.293 368.707L373 368ZM380.293 376.707L381 377.414L382.414 376L381.707 375.293L380.293 376.707ZM381.707 360.707L382.414 360L381 358.586L380.293 359.293L381.707 360.707ZM393 367L373 367L373 369L393 369L393 367ZM372.293 368.707L380.293 376.707L381.707 375.293L373.707 367.293L372.293 368.707ZM373.707 368.707L381.707 360.707L380.293 359.293L372.293 367.293L373.707 368.707Z" fill="#110529"/>
<path d="M388 368H581.5" stroke="#110529" stroke-width="2" stroke-linecap="square"/>
<rect width="58" height="20" transform="translate(581.5 358)" fill="white"/>
<path d="M592.917 367.617C592.283 366.967 591.433 366.6 590.467 366.533L593.717 363.467V362H586.65V363.417H591.7L587.983 366.933L588.7 368.117C589.067 367.917 589.533 367.8 589.933 367.8C590.55 367.8 591.133 367.983 591.583 368.383C592.117 368.867 592.35 369.583 592.35 370.3C592.35 371.05 592.117 371.783 591.517 372.267C591.1 372.617 590.533 372.8 589.95 372.817C589.383 372.817 588.817 372.633 588.383 372.283C588 372 587.75 371.583 587.6 371.117L586.167 371.533C586.383 372.233 586.817 372.9 587.4 373.367C588.133 373.95 589.05 374.25 589.967 374.233C590.867 374.217 591.8 373.95 592.517 373.35C593.4 372.633 593.85 371.5 593.883 370.3C593.9 369.317 593.583 368.317 592.917 367.617ZM595.807 365.617H597.324C597.324 364.883 597.657 364.2 598.191 363.733C598.607 363.383 599.157 363.167 599.757 363.167C600.407 363.167 601.007 363.4 601.441 363.833C601.924 364.283 602.207 364.933 602.207 365.617C602.207 366.383 601.974 367.083 601.091 367.867L595.741 372.567L595.724 373.983H603.557V372.567H598.057L601.907 369.133C603.124 368.05 603.724 367.167 603.724 365.633C603.724 364.583 603.307 363.567 602.574 362.867C601.874 362.117 600.891 361.75 599.824 361.75C598.857 361.75 597.891 362.017 597.157 362.65C596.324 363.367 595.791 364.45 595.807 365.617ZM606.129 362L605.763 368.167L607.096 368.933C607.246 368.683 607.429 368.45 607.646 368.267C608.096 367.85 608.696 367.633 609.329 367.633C609.996 367.633 610.613 367.9 611.079 368.317C611.596 368.8 611.913 369.483 611.913 370.217C611.913 370.933 611.629 371.583 611.146 372.067C610.679 372.533 610.029 372.8 609.329 372.8C608.663 372.8 608.046 372.55 607.579 372.117C607.213 371.8 606.946 371.367 606.829 370.883L605.396 371.267C605.596 371.983 605.996 372.65 606.529 373.15C607.263 373.85 608.279 374.25 609.329 374.233C610.413 374.217 611.446 373.817 612.196 373.067C612.929 372.333 613.396 371.3 613.413 370.217C613.413 369.083 612.979 368.033 612.129 367.267C611.413 366.633 610.463 366.267 609.496 366.267C608.679 366.267 607.879 366.567 607.246 367.067L607.463 363.4H612.446V362H606.129ZM622.85 366.183C622.117 365.25 620.967 364.75 619.733 364.75C618.667 364.75 617.65 365.15 616.917 365.85V362H615.417V374H616.75V372.95C617.467 373.817 618.533 374.25 619.733 374.25C620.95 374.25 622.1 373.733 622.85 372.8C623.6 371.85 623.85 370.667 623.85 369.483C623.85 368.3 623.567 367.1 622.85 366.183ZM621.65 371.883C621.167 372.567 620.367 372.883 619.55 372.883C618.717 372.883 617.95 372.583 617.45 371.967C616.95 371.35 616.75 370.417 616.75 369.483C616.75 368.567 616.95 367.65 617.45 367.017C617.933 366.4 618.683 366.1 619.5 366.1C620.383 366.1 621.15 366.417 621.633 367.1C622.1 367.717 622.267 368.583 622.267 369.483C622.267 370.383 622.117 371.267 621.65 371.883ZM633.116 366.183C632.382 365.25 631.232 364.75 629.999 364.75C628.849 364.75 627.749 365.2 627.016 366.017V365H625.682V378H627.182V373.15C627.882 373.883 628.882 374.25 629.999 374.25C631.216 374.25 632.366 373.733 633.116 372.8C633.866 371.85 634.116 370.667 634.116 369.483C634.116 368.3 633.832 367.1 633.116 366.183ZM631.916 371.883C631.432 372.567 630.632 372.883 629.816 372.883C628.982 372.883 628.216 372.583 627.716 371.967C627.216 371.35 627.016 370.417 627.016 369.483C627.016 368.567 627.216 367.65 627.716 367.017C628.199 366.4 628.949 366.1 629.766 366.1C630.649 366.1 631.416 366.417 631.899 367.1C632.366 367.717 632.532 368.583 632.532 369.483C632.532 370.383 632.382 371.267 631.916 371.883Z" fill="#110529"/>
<path d="M639.5 368H833" stroke="#110529" stroke-width="2" stroke-linecap="square"/>
<path d="M912 197V213H902V221L888 205L902 189V197H912Z" fill="#110529"/>
<path d="M921.4 213H923.18V207.68H927.39L929.97 213H932.01L929.23 207.29C930.86 206.61 931.71 205.04 931.71 203.14C931.71 200.85 930.48 199.04 928.15 198.68C927.78 198.62 927.37 198.6 927.09 198.6H921.4V213ZM923.18 205.99V200.29H927.03C927.28 200.29 927.63 200.31 927.93 200.38C929.31 200.69 929.89 201.94 929.89 203.14C929.89 204.34 929.31 205.59 927.93 205.9C927.63 205.97 927.28 205.99 927.03 205.99H923.18ZM936.723 213H938.533V198.6H936.723L934.013 200.22V202.21L936.723 200.57V213Z" fill="#110529"/>
<path d="M857 360V376H847V384L833 368L847 352V360H857Z" fill="#110529"/>
<path d="M866.4 376H868.18V370.68H872.39L874.97 376H877.01L874.23 370.29C875.86 369.61 876.71 368.04 876.71 366.14C876.71 363.85 875.48 362.04 873.15 361.68C872.78 361.62 872.37 361.6 872.09 361.6H866.4V376ZM868.18 368.99V363.29H872.03C872.28 363.29 872.63 363.31 872.93 363.38C874.31 363.69 874.89 364.94 874.89 366.14C874.89 367.34 874.31 368.59 872.93 368.9C872.63 368.97 872.28 368.99 872.03 368.99H868.18ZM881.723 376H883.533V361.6H881.723L879.013 363.22V365.21L881.723 363.57V376Z" fill="#110529"/>
<g filter="url(#filter0_i_5544_36221)">
<rect x="80" y="272" width="72" height="52" rx="1" fill="#D6E0FF"/>
<path d="M105.053 306.3C108.393 306.3 110.733 304.1 110.733 300.75V291.6H108.933V300.6C108.933 303.31 106.893 304.62 105.053 304.62C103.233 304.62 101.173 303.33 101.173 300.6V291.6L99.3727 291.61V300.75C99.3727 304.11 101.713 306.3 105.053 306.3ZM113.533 306H115.223V295.51L120.113 306H121.063L125.953 295.51V305.99H127.643V291.6H126.003L120.593 303.07L115.153 291.6H113.533V306ZM130.647 306H132.427V291.6H130.647V306Z" fill="#110529"/>
<rect x="80" y="272" width="72" height="52" rx="1" stroke="#110529" stroke-width="2" stroke-linecap="round"/>
</g>
<g filter="url(#filter1_i_5544_36221)">
<rect x="152" y="272" width="56" height="52" rx="1" fill="#D3D7E0"/>
<path d="M172.815 306H174.595V293.29H179.505V291.6H167.905V293.29H172.815V306ZM186.207 306.3C189.197 306.3 191.597 304.77 191.597 301.98C191.597 299.21 189.227 298.5 187.977 298.15L185.237 297.36C184.167 297.06 182.837 296.6 182.837 295.27C182.837 293.94 184.207 292.98 185.977 293C187.807 293.02 189.317 294.1 189.617 295.85L191.507 295.52C190.977 292.9 188.897 291.33 185.997 291.31C183.127 291.3 180.957 292.8 180.957 295.35C180.957 297.48 182.477 298.41 184.077 298.88L187.747 299.97C188.777 300.28 189.757 300.82 189.757 302.08C189.757 303.65 188.227 304.61 186.297 304.61C184.287 304.61 182.697 303.54 182.237 301.72L180.397 302.01C180.877 304.66 183.147 306.3 186.207 306.3Z" fill="#110529"/>
<rect x="152" y="272" width="56" height="52" rx="1" stroke="#110529" stroke-width="2" stroke-linecap="round"/>
</g>
<g filter="url(#filter2_i_5544_36221)">
<rect x="208" y="272" width="373" height="52" rx="1" fill="#99E099"/>
<path d="M393.258 306H395.738L400.558 291.6H398.708L394.478 304.11L390.288 291.6H388.438L393.258 306Z" fill="#110529"/>
<rect x="208" y="272" width="373" height="52" rx="1" stroke="#110529" stroke-width="2" stroke-linecap="round"/>
</g>
<g filter="url(#filter3_i_5544_36221)">
<rect x="581" y="272" width="30" height="52" rx="1" fill="#CBEB67"/>
</g>
<rect x="581" y="272" width="30" height="52" rx="1" stroke="#110529" stroke-width="2" stroke-linecap="round"/>
<path d="M590.447 306V291.6H592.247L599.757 302.85V291.6H601.557V306H599.757L592.247 294.74V306H590.447Z" fill="#110529"/>
<g filter="url(#filter4_i_5544_36221)">
<path d="M712 273.6C712 273.04 712 272.76 711.891 272.546C711.795 272.358 711.642 272.205 711.454 272.109C711.24 272 710.96 272 710.4 272H612.6C612.04 272 611.76 272 611.546 272.109C611.358 272.205 611.205 272.358 611.109 272.546C611 272.76 611 273.04 611 273.6V298V322.4C611 322.96 611 323.24 611.109 323.454C611.205 323.642 611.358 323.795 611.546 323.891C611.76 324 612.04 324 612.6 324H710.4C710.96 324 711.24 324 711.454 323.891C711.642 323.795 711.795 323.642 711.891 323.454C712 323.24 712 322.96 712 322.4V317.5V311V304V298V291.5V285V278.5V273.6Z" fill="#C1ADFF"/>
</g>
<path d="M712 273.6C712 273.04 712 272.76 711.891 272.546C711.795 272.358 711.642 272.205 711.454 272.109C711.24 272 710.96 272 710.4 272H612.6C612.04 272 611.76 272 611.546 272.109C611.358 272.205 611.205 272.358 611.109 272.546C611 272.76 611 273.04 611 273.6V298V322.4C611 322.96 611 323.24 611.109 323.454C611.205 323.642 611.358 323.795 611.546 323.891C611.76 324 612.04 324 612.6 324H710.4C710.96 324 711.24 324 711.454 323.891C711.642 323.795 711.795 323.642 711.891 323.454C712 323.24 712 322.96 712 322.4V317.5V311V304V298V291.5V285V278.5V273.6Z" stroke="#110529" stroke-width="2" stroke-linecap="round"/>
<path d="M661.227 306.29C660.221 306.29 659.367 306.017 658.667 305.47C657.967 304.923 657.487 304.19 657.227 303.27L658.997 302.85C659.104 303.337 659.361 303.75 659.767 304.09C660.181 304.43 660.654 304.6 661.187 304.6C661.534 304.6 661.887 304.517 662.247 304.35C662.607 304.177 662.884 303.897 663.077 303.51C663.211 303.243 663.287 302.95 663.307 302.63C663.327 302.303 663.337 301.92 663.337 301.48V291.6H665.137V301.48C665.137 301.893 665.134 302.263 665.127 302.59C665.127 302.917 665.094 303.23 665.027 303.53C664.967 303.823 664.847 304.123 664.667 304.43C664.307 305.063 663.824 305.533 663.217 305.84C662.617 306.14 661.954 306.29 661.227 306.29Z" fill="#110529"/>
<g filter="url(#filter5_i_5544_36221)">
<rect x="712" y="272" width="144" height="52" rx="1" fill="#FAFAAA"/>
<path d="M783.593 306.3C782.16 306.3 780.943 305.983 779.943 305.35C778.943 304.717 778.18 303.837 777.653 302.71C777.133 301.583 776.873 300.28 776.873 298.8C776.873 297.32 777.133 296.017 777.653 294.89C778.18 293.763 778.943 292.883 779.943 292.25C780.943 291.617 782.16 291.3 783.593 291.3C785.26 291.3 786.63 291.723 787.703 292.57C788.783 293.417 789.527 294.557 789.933 295.99L788.123 296.47C787.83 295.397 787.307 294.55 786.553 293.93C785.8 293.31 784.813 293 783.593 293C782.52 293 781.627 293.243 780.913 293.73C780.2 294.217 779.663 294.897 779.303 295.77C778.943 296.637 778.76 297.647 778.753 298.8C778.747 299.947 778.923 300.957 779.283 301.83C779.643 302.697 780.183 303.377 780.903 303.87C781.623 304.357 782.52 304.6 783.593 304.6C784.813 304.6 785.8 304.29 786.553 303.67C787.307 303.043 787.83 302.197 788.123 301.13L789.933 301.61C789.527 303.037 788.783 304.177 787.703 305.03C786.63 305.877 785.26 306.3 783.593 306.3Z" fill="#110529"/>
<rect x="712" y="272" width="144" height="52" rx="1" stroke="#110529" stroke-width="2" stroke-linecap="round"/>
</g>
<path d="M21.6 140H23.38V125.6H21.6V140ZM32.2105 140.3C36.4205 140.3 38.6605 137.39 38.6605 133.44C38.6605 133.32 38.6505 132.87 38.6205 132.59H33.6805V134.06H36.7405C36.5205 136.93 35.0805 138.62 32.3005 138.6C29.0805 138.58 27.4505 136.25 27.4705 132.8C27.4905 129.35 29.0805 126.99 32.3005 127.01C34.3505 127.02 35.7405 128.14 36.3505 129.88L38.1505 129.51C37.4005 126.92 35.4305 125.31 32.2105 125.31C28.1805 125.31 25.5805 128.21 25.5805 132.8C25.5805 137.44 28.2405 140.3 32.2105 140.3ZM40.6578 140H42.4378V133.64H50.0178V140H51.7978V125.6H50.0178V131.95H42.4378V125.6H40.6578V140Z" fill="#110529"/>
<path d="M21.6 296H23.38V281.6H21.6V296ZM32.2105 296.3C36.4205 296.3 38.6605 293.39 38.6605 289.44C38.6605 289.32 38.6505 288.87 38.6205 288.59H33.6805V290.06H36.7405C36.5205 292.93 35.0805 294.62 32.3005 294.6C29.0805 294.58 27.4505 292.25 27.4705 288.8C27.4905 285.35 29.0805 282.99 32.3005 283.01C34.3505 283.02 35.7405 284.14 36.3505 285.88L38.1505 285.51C37.4005 282.92 35.4305 281.31 32.2105 281.31C28.1805 281.31 25.5805 284.21 25.5805 288.8C25.5805 293.44 28.2405 296.3 32.2105 296.3ZM40.6578 296H42.4378V288.96L49.1878 296H51.4878L44.4378 288.59L50.9778 281.6H48.7378L42.4378 288.36V281.6H40.6578V296ZM60.1377 281.6L56.2977 296H58.1077L61.9477 281.6H60.1377ZM21.6 316H23.38V301.6H21.6V316ZM32.2105 316.3C36.4205 316.3 38.6605 313.39 38.6605 309.44C38.6605 309.32 38.6505 308.87 38.6205 308.59H33.6805V310.06H36.7405C36.5205 312.93 35.0805 314.62 32.3005 314.6C29.0805 314.58 27.4505 312.25 27.4705 308.8C27.4905 305.35 29.0805 302.99 32.3005 303.01C34.3505 303.02 35.7405 304.14 36.3505 305.88L38.1505 305.51C37.4005 302.92 35.4305 301.31 32.2105 301.31C28.1805 301.31 25.5805 304.21 25.5805 308.8C25.5805 313.44 28.2405 316.3 32.2105 316.3ZM40.8578 316H49.3178V314.31H42.6378V301.6H40.8578V316Z" fill="#110529"/>
<path d="M844.448 91V81.056L842.28 82.368V80.776L844.448 79.48H845.896V91H844.448ZM852.54 91.24C851.804 91.24 851.154 91.0933 850.588 90.8C850.023 90.5013 849.58 90.088 849.26 89.56C848.94 89.032 848.78 88.416 848.78 87.712C848.78 87.024 848.943 86.4027 849.268 85.848C849.599 85.2933 850.095 84.8667 850.756 84.568L850.732 85.088C850.194 84.8267 849.78 84.4587 849.492 83.984C849.204 83.504 849.06 82.9733 849.06 82.392C849.06 81.7413 849.21 81.1813 849.508 80.712C849.807 80.2427 850.218 79.88 850.74 79.624C851.263 79.368 851.863 79.24 852.54 79.24C853.218 79.24 853.818 79.368 854.34 79.624C854.863 79.88 855.274 80.2427 855.572 80.712C855.871 81.1813 856.02 81.7413 856.02 82.392C856.02 82.9733 855.884 83.5013 855.612 83.976C855.34 84.4453 854.922 84.816 854.356 85.088L854.324 84.576C854.986 84.864 855.482 85.288 855.812 85.848C856.148 86.4027 856.316 87.024 856.316 87.712C856.316 88.416 856.154 89.032 855.828 89.56C855.508 90.088 855.063 90.5013 854.492 90.8C853.927 91.0933 853.276 91.24 852.54 91.24ZM852.54 89.88C853.212 89.88 853.756 89.696 854.172 89.328C854.594 88.9547 854.804 88.416 854.804 87.712C854.804 87.0027 854.596 86.464 854.18 86.096C853.77 85.7227 853.223 85.536 852.54 85.536C851.863 85.536 851.316 85.7227 850.9 86.096C850.49 86.464 850.284 87.0027 850.284 87.712C850.284 88.416 850.492 88.9547 850.908 89.328C851.324 89.696 851.868 89.88 852.54 89.88ZM852.54 84.168C853.127 84.168 853.602 84.0213 853.964 83.728C854.327 83.4293 854.508 82.984 854.508 82.392C854.508 81.8 854.327 81.3573 853.964 81.064C853.602 80.7653 853.127 80.616 852.54 80.616C851.959 80.616 851.484 80.7653 851.116 81.064C850.754 81.3573 850.572 81.8 850.572 82.392C850.572 82.984 850.754 83.4293 851.116 83.728C851.484 84.0213 851.959 84.168 852.54 84.168ZM858.233 85.824V84.648H863.033V85.824H858.233ZM864.792 90.992L864.8 89.712L869.912 85.112C870.339 84.728 870.624 84.3653 870.768 84.024C870.918 83.6773 870.992 83.3227 870.992 82.96C870.992 82.5173 870.891 82.1173 870.688 81.76C870.486 81.4027 870.208 81.12 869.856 80.912C869.51 80.704 869.115 80.6 868.672 80.6C868.214 80.6 867.806 80.7093 867.448 80.928C867.091 81.1413 866.808 81.4267 866.6 81.784C866.398 82.1413 866.299 82.5307 866.304 82.952H864.848C864.848 82.2267 865.016 81.5867 865.352 81.032C865.688 80.472 866.144 80.0347 866.72 79.72C867.302 79.4 867.96 79.24 868.696 79.24C869.411 79.24 870.051 79.4053 870.616 79.736C871.182 80.0613 871.627 80.5067 871.952 81.072C872.283 81.632 872.448 82.2667 872.448 82.976C872.448 83.4773 872.384 83.912 872.256 84.28C872.134 84.648 871.942 84.9893 871.68 85.304C871.419 85.6133 871.091 85.944 870.696 86.296L866.448 90.112L866.264 89.632H872.448V90.992H864.792ZM874.042 90.992L874.05 89.712L879.162 85.112C879.589 84.728 879.874 84.3653 880.018 84.024C880.168 83.6773 880.242 83.3227 880.242 82.96C880.242 82.5173 880.141 82.1173 879.938 81.76C879.736 81.4027 879.458 81.12 879.106 80.912C878.76 80.704 878.365 80.6 877.922 80.6C877.464 80.6 877.056 80.7093 876.698 80.928C876.341 81.1413 876.058 81.4267 875.85 81.784C875.648 82.1413 875.549 82.5307 875.554 82.952H874.098C874.098 82.2267 874.266 81.5867 874.602 81.032C874.938 80.472 875.394 80.0347 875.97 79.72C876.552 79.4 877.21 79.24 877.946 79.24C878.661 79.24 879.301 79.4053 879.866 79.736C880.432 80.0613 880.877 80.5067 881.202 81.072C881.533 81.632 881.698 82.2667 881.698 82.976C881.698 83.4773 881.634 83.912 881.506 84.28C881.384 84.648 881.192 84.9893 880.93 85.304C880.669 85.6133 880.341 85.944 879.946 86.296L875.698 90.112L875.514 89.632H881.698V90.992H874.042ZM887.58 91.24C886.77 91.24 886.087 91.04 885.532 90.64C884.978 90.2347 884.556 89.688 884.268 89C883.986 88.3067 883.844 87.5307 883.844 86.672C883.844 85.8027 883.986 85.024 884.268 84.336C884.556 83.648 884.978 83.1067 885.532 82.712C886.092 82.3173 886.778 82.12 887.588 82.12C888.388 82.12 889.076 82.32 889.652 82.72C890.234 83.1147 890.679 83.656 890.988 84.344C891.298 85.032 891.452 85.808 891.452 86.672C891.452 87.536 891.298 88.312 890.988 89C890.679 89.688 890.234 90.2347 889.652 90.64C889.076 91.04 888.386 91.24 887.58 91.24ZM883.604 91V79.48H885.036V84.64H884.876V91H883.604ZM887.404 89.936C887.975 89.936 888.447 89.792 888.82 89.504C889.194 89.216 889.474 88.8267 889.66 88.336C889.847 87.84 889.94 87.2853 889.94 86.672C889.94 86.064 889.847 85.5147 889.66 85.024C889.479 84.5333 889.196 84.144 888.812 83.856C888.434 83.568 887.951 83.424 887.364 83.424C886.804 83.424 886.34 83.5627 885.972 83.84C885.604 84.112 885.33 84.4933 885.148 84.984C884.967 85.4693 884.876 86.032 884.876 86.672C884.876 87.3013 884.964 87.864 885.14 88.36C885.322 88.8507 885.599 89.2373 885.972 89.52C886.346 89.7973 886.823 89.936 887.404 89.936ZM897.174 91.24C896.363 91.24 895.681 91.04 895.126 90.64C894.571 90.2347 894.15 89.688 893.862 89C893.579 88.3067 893.438 87.5307 893.438 86.672C893.438 85.8027 893.579 85.024 893.862 84.336C894.15 83.648 894.571 83.1067 895.126 82.712C895.686 82.3173 896.371 82.12 897.182 82.12C897.982 82.12 898.67 82.32 899.246 82.72C899.827 83.1147 900.273 83.656 900.582 84.344C900.891 85.032 901.046 85.808 901.046 86.672C901.046 87.536 900.891 88.312 900.582 89C900.273 89.688 899.827 90.2347 899.246 90.64C898.67 91.04 897.979 91.24 897.174 91.24ZM893.198 94.84V82.36H894.47V88.72H894.63V94.84H893.198ZM896.998 89.936C897.569 89.936 898.041 89.792 898.414 89.504C898.787 89.216 899.067 88.8267 899.254 88.336C899.441 87.84 899.534 87.2853 899.534 86.672C899.534 86.064 899.441 85.5147 899.254 85.024C899.073 84.5333 898.79 84.144 898.406 83.856C898.027 83.568 897.545 83.424 896.958 83.424C896.398 83.424 895.934 83.5627 895.566 83.84C895.198 84.112 894.923 84.4933 894.742 84.984C894.561 85.4693 894.47 86.032 894.47 86.672C894.47 87.3013 894.558 87.864 894.734 88.36C894.915 88.8507 895.193 89.2373 895.566 89.52C895.939 89.7973 896.417 89.936 896.998 89.936Z" fill="#110529"/>
<path d="M817.684 60.24C816.537 60.24 815.564 59.9867 814.764 59.48C813.964 58.9733 813.353 58.2693 812.932 57.368C812.516 56.4667 812.308 55.424 812.308 54.24C812.308 53.056 812.516 52.0133 812.932 51.112C813.353 50.2107 813.964 49.5067 814.764 49C815.564 48.4933 816.537 48.24 817.684 48.24C819.017 48.24 820.113 48.5787 820.972 49.256C821.836 49.9333 822.431 50.8453 822.756 51.992L821.308 52.376C821.073 51.5173 820.655 50.84 820.052 50.344C819.449 49.848 818.66 49.6 817.684 49.6C816.825 49.6 816.111 49.7947 815.54 50.184C814.969 50.5733 814.54 51.1173 814.252 51.816C813.964 52.5093 813.817 53.3173 813.812 54.24C813.807 55.1573 813.948 55.9653 814.236 56.664C814.524 57.3573 814.956 57.9013 815.532 58.296C816.108 58.6853 816.825 58.88 817.684 58.88C818.66 58.88 819.449 58.632 820.052 58.136C820.655 57.6347 821.073 56.9573 821.308 56.104L822.756 56.488C822.431 57.6293 821.836 58.5413 820.972 59.224C820.113 59.9013 819.017 60.24 817.684 60.24ZM824.351 55.544V54.368H829.151V55.544H824.351ZM831.229 60V51.36H832.501V53.448L832.293 53.176C832.395 52.9093 832.525 52.664 832.685 52.44C832.851 52.216 833.035 52.032 833.237 51.888C833.461 51.7067 833.715 51.568 833.997 51.472C834.28 51.376 834.568 51.32 834.861 51.304C835.155 51.2827 835.429 51.3013 835.685 51.36V52.696C835.387 52.616 835.059 52.5947 834.701 52.632C834.344 52.6693 834.013 52.8 833.709 53.024C833.432 53.2213 833.216 53.4613 833.061 53.744C832.912 54.0267 832.808 54.3333 832.749 54.664C832.691 54.9893 832.661 55.3227 832.661 55.664V60H831.229ZM840.786 60.24C839.938 60.24 839.197 60.0533 838.562 59.68C837.933 59.3013 837.442 58.776 837.09 58.104C836.738 57.4267 836.562 56.6373 836.562 55.736C836.562 54.792 836.735 53.976 837.082 53.288C837.429 52.5947 837.911 52.0613 838.53 51.688C839.154 51.3093 839.885 51.12 840.722 51.12C841.591 51.12 842.33 51.32 842.938 51.72C843.551 52.12 844.01 52.6907 844.314 53.432C844.623 54.1733 844.757 55.056 844.714 56.08H843.274V55.568C843.258 54.5067 843.042 53.7147 842.626 53.192C842.21 52.664 841.591 52.4 840.77 52.4C839.89 52.4 839.221 52.6827 838.762 53.248C838.303 53.8133 838.074 54.624 838.074 55.68C838.074 56.6987 838.303 57.488 838.762 58.048C839.221 58.608 839.874 58.888 840.722 58.888C841.293 58.888 841.789 58.7573 842.21 58.496C842.631 58.2347 842.962 57.8587 843.202 57.368L844.57 57.84C844.234 58.6027 843.727 59.1947 843.05 59.616C842.378 60.032 841.623 60.24 840.786 60.24ZM837.594 56.08V54.936H843.978V56.08H837.594ZM849.991 64.08C849.538 64.08 849.095 64.0107 848.663 63.872C848.231 63.7333 847.834 63.5227 847.471 63.24C847.114 62.9627 846.815 62.6107 846.575 62.184L847.879 61.496C848.092 61.9173 848.394 62.224 848.783 62.416C849.178 62.608 849.583 62.704 849.999 62.704C850.548 62.704 851.004 62.6027 851.367 62.4C851.73 62.2027 851.996 61.9067 852.167 61.512C852.343 61.1173 852.428 60.6267 852.423 60.04V57.68H852.591V51.36H853.855V60.056C853.855 60.2907 853.847 60.5173 853.831 60.736C853.82 60.9547 853.794 61.1707 853.751 61.384C853.639 61.9973 853.418 62.5013 853.087 62.896C852.756 63.296 852.33 63.592 851.807 63.784C851.284 63.9813 850.679 64.08 849.991 64.08ZM849.887 60.24C849.082 60.24 848.391 60.04 847.815 59.64C847.239 59.2347 846.794 58.688 846.479 58C846.17 57.312 846.015 56.536 846.015 55.672C846.015 54.808 846.17 54.032 846.479 53.344C846.794 52.656 847.239 52.1147 847.815 51.72C848.391 51.32 849.079 51.12 849.879 51.12C850.695 51.12 851.38 51.3173 851.935 51.712C852.49 52.1067 852.908 52.648 853.191 53.336C853.479 54.024 853.623 54.8027 853.623 55.672C853.623 56.5307 853.479 57.3067 853.191 58C852.908 58.688 852.49 59.2347 851.935 59.64C851.38 60.04 850.698 60.24 849.887 60.24ZM850.063 58.936C850.644 58.936 851.122 58.7973 851.495 58.52C851.868 58.2373 852.143 57.8507 852.319 57.36C852.5 56.864 852.591 56.3013 852.591 55.672C852.591 55.032 852.5 54.4693 852.319 53.984C852.143 53.4933 851.871 53.112 851.503 52.84C851.135 52.5627 850.668 52.424 850.103 52.424C849.516 52.424 849.031 52.568 848.647 52.856C848.268 53.144 847.986 53.5333 847.799 54.024C847.618 54.5147 847.527 55.064 847.527 55.672C847.527 56.2853 847.62 56.84 847.807 57.336C847.994 57.8267 848.274 58.216 848.647 58.504C849.026 58.792 849.498 58.936 850.063 58.936ZM856.249 49.832V48.36H857.673V49.832H856.249ZM856.249 60V51.36H857.673V60H856.249ZM863.753 60.24C862.894 60.24 862.153 60.0453 861.529 59.656C860.91 59.2667 860.433 58.728 860.097 58.04C859.761 57.352 859.593 56.5627 859.593 55.672C859.593 54.7653 859.764 53.9707 860.105 53.288C860.446 52.6053 860.929 52.0747 861.553 51.696C862.177 51.312 862.91 51.12 863.753 51.12C864.617 51.12 865.361 51.3147 865.985 51.704C866.609 52.088 867.086 52.624 867.417 53.312C867.753 53.9947 867.921 54.7813 867.921 55.672C867.921 56.5733 867.753 57.368 867.417 58.056C867.081 58.7387 866.601 59.2747 865.977 59.664C865.353 60.048 864.612 60.24 863.753 60.24ZM863.753 58.888C864.649 58.888 865.316 58.5893 865.753 57.992C866.19 57.3947 866.409 56.6213 866.409 55.672C866.409 54.696 866.188 53.92 865.745 53.344C865.302 52.7627 864.638 52.472 863.753 52.472C863.15 52.472 862.654 52.608 862.265 52.88C861.876 53.152 861.585 53.528 861.393 54.008C861.201 54.488 861.105 55.0427 861.105 55.672C861.105 56.6427 861.329 57.4213 861.777 58.008C862.225 58.5947 862.884 58.888 863.753 58.888ZM875.835 60V55.672C875.835 55.2613 875.797 54.8667 875.723 54.488C875.653 54.1093 875.528 53.7707 875.347 53.472C875.171 53.168 874.931 52.928 874.627 52.752C874.328 52.576 873.949 52.488 873.491 52.488C873.133 52.488 872.808 52.5493 872.515 52.672C872.227 52.7893 871.979 52.9707 871.771 53.216C871.563 53.4613 871.4 53.7707 871.283 54.144C871.171 54.512 871.115 54.9467 871.115 55.448L870.179 55.16C870.179 54.3227 870.328 53.6053 870.627 53.008C870.931 52.4053 871.355 51.944 871.899 51.624C872.448 51.2987 873.093 51.136 873.835 51.136C874.395 51.136 874.872 51.224 875.267 51.4C875.661 51.576 875.989 51.8107 876.251 52.104C876.512 52.392 876.717 52.7173 876.867 53.08C877.016 53.4373 877.12 53.8027 877.179 54.176C877.243 54.544 877.275 54.8933 877.275 55.224V60H875.835ZM869.675 60V51.36H870.955V53.672H871.115V60H869.675ZM886.526 60.24C885.715 60.24 885.032 60.04 884.478 59.64C883.923 59.2347 883.502 58.688 883.214 58C882.931 57.3067 882.79 56.5307 882.79 55.672C882.79 54.8027 882.931 54.024 883.214 53.336C883.502 52.648 883.923 52.1067 884.478 51.712C885.038 51.3173 885.723 51.12 886.534 51.12C887.334 51.12 888.022 51.32 888.598 51.72C889.179 52.1147 889.624 52.656 889.934 53.344C890.243 54.032 890.398 54.808 890.398 55.672C890.398 56.536 890.243 57.312 889.934 58C889.624 58.688 889.179 59.2347 888.598 59.64C888.022 60.04 887.331 60.24 886.526 60.24ZM882.55 63.84V51.36H883.822V57.72H883.982V63.84H882.55ZM886.35 58.936C886.92 58.936 887.392 58.792 887.766 58.504C888.139 58.216 888.419 57.8267 888.606 57.336C888.792 56.84 888.886 56.2853 888.886 55.672C888.886 55.064 888.792 54.5147 888.606 54.024C888.424 53.5333 888.142 53.144 887.758 52.856C887.379 52.568 886.896 52.424 886.31 52.424C885.75 52.424 885.286 52.5627 884.918 52.84C884.55 53.112 884.275 53.4933 884.094 53.984C883.912 54.4693 883.822 55.032 883.822 55.672C883.822 56.3013 883.91 56.864 884.086 57.36C884.267 57.8507 884.544 58.2373 884.918 58.52C885.291 58.7973 885.768 58.936 886.35 58.936ZM892.151 60V51.36H893.423V53.448L893.215 53.176C893.317 52.9093 893.447 52.664 893.607 52.44C893.773 52.216 893.957 52.032 894.159 51.888C894.383 51.7067 894.637 51.568 894.919 51.472C895.202 51.376 895.49 51.32 895.783 51.304C896.077 51.2827 896.351 51.3013 896.607 51.36V52.696C896.309 52.616 895.981 52.5947 895.623 52.632C895.266 52.6693 894.935 52.8 894.631 53.024C894.354 53.2213 894.138 53.4613 893.983 53.744C893.834 54.0267 893.73 54.3333 893.671 54.664C893.613 54.9893 893.583 55.3227 893.583 55.664V60H892.151ZM898.28 49.832V48.36H899.704V49.832H898.28ZM898.28 60V51.36H899.704V60H898.28ZM912.432 60L912.44 54.472C912.44 53.8267 912.267 53.3227 911.92 52.96C911.579 52.592 911.134 52.408 910.584 52.408C910.264 52.408 909.96 52.4827 909.672 52.632C909.384 52.776 909.15 53.0053 908.968 53.32C908.787 53.6293 908.696 54.0267 908.696 54.512L907.944 54.208C907.934 53.5947 908.059 53.0587 908.32 52.6C908.587 52.136 908.95 51.776 909.408 51.52C909.867 51.264 910.384 51.136 910.96 51.136C911.862 51.136 912.571 51.4107 913.088 51.96C913.606 52.504 913.864 53.2373 913.864 54.16L913.856 60H912.432ZM902.096 60V51.36H903.368V53.672H903.528V60H902.096ZM907.272 60L907.28 54.528C907.28 53.8667 907.11 53.3493 906.768 52.976C906.427 52.5973 905.974 52.408 905.408 52.408C904.848 52.408 904.395 52.6 904.048 52.984C903.702 53.368 903.528 53.8773 903.528 54.512L902.776 54.064C902.776 53.504 902.91 53.0027 903.176 52.56C903.443 52.1173 903.806 51.7707 904.264 51.52C904.723 51.264 905.243 51.136 905.824 51.136C906.406 51.136 906.912 51.2587 907.344 51.504C907.776 51.7493 908.11 52.1013 908.344 52.56C908.579 53.0133 908.696 53.5547 908.696 54.184L908.688 60H907.272ZM919.614 60.24C918.766 60.24 918.025 60.0533 917.39 59.68C916.761 59.3013 916.27 58.776 915.918 58.104C915.566 57.4267 915.39 56.6373 915.39 55.736C915.39 54.792 915.563 53.976 915.91 53.288C916.257 52.5947 916.739 52.0613 917.358 51.688C917.982 51.3093 918.713 51.12 919.55 51.12C920.419 51.12 921.158 51.32 921.766 51.72C922.379 52.12 922.838 52.6907 923.142 53.432C923.451 54.1733 923.585 55.056 923.542 56.08H922.102V55.568C922.086 54.5067 921.87 53.7147 921.454 53.192C921.038 52.664 920.419 52.4 919.598 52.4C918.718 52.4 918.049 52.6827 917.59 53.248C917.131 53.8133 916.902 54.624 916.902 55.68C916.902 56.6987 917.131 57.488 917.59 58.048C918.049 58.608 918.702 58.888 919.55 58.888C920.121 58.888 920.617 58.7573 921.038 58.496C921.459 58.2347 921.79 57.8587 922.03 57.368L923.398 57.84C923.062 58.6027 922.555 59.1947 921.878 59.616C921.206 60.032 920.451 60.24 919.614 60.24ZM916.422 56.08V54.936H922.806V56.08H916.422ZM925.323 60V51.36H926.595V53.448L926.387 53.176C926.488 52.9093 926.619 52.664 926.779 52.44C926.944 52.216 927.128 52.032 927.331 51.888C927.555 51.7067 927.808 51.568 928.091 51.472C928.374 51.376 928.662 51.32 928.955 51.304C929.248 51.2827 929.523 51.3013 929.779 51.36V52.696C929.48 52.616 929.152 52.5947 928.795 52.632C928.438 52.6693 928.107 52.8 927.803 53.024C927.526 53.2213 927.31 53.4613 927.155 53.744C927.006 54.0267 926.902 54.3333 926.843 54.664C926.784 54.9893 926.755 55.3227 926.755 55.664V60H925.323Z" fill="#110529"/>
<g filter="url(#filter6_i_5544_36221)">
<rect x="80" y="106" width="72" height="52" rx="1" fill="#D6E0FF"/>
<path d="M105.053 140.3C108.393 140.3 110.733 138.1 110.733 134.75V125.6H108.933V134.6C108.933 137.31 106.893 138.62 105.053 138.62C103.233 138.62 101.173 137.33 101.173 134.6V125.6L99.3727 125.61V134.75C99.3727 138.11 101.713 140.3 105.053 140.3ZM113.533 140H115.223V129.51L120.113 140H121.063L125.953 129.51V139.99H127.643V125.6H126.003L120.593 137.07L115.153 125.6H113.533V140ZM130.647 140H132.427V125.6H130.647V140Z" fill="#110529"/>
<rect x="80" y="106" width="72" height="52" rx="1" stroke="#110529" stroke-width="2" stroke-linecap="round"/>
</g>
<g filter="url(#filter7_i_5544_36221)">
<rect x="152" y="106" width="56" height="52" rx="1" fill="#D3D7E0"/>
<path d="M172.815 140H174.595V127.29H179.505V125.6H167.905V127.29H172.815V140ZM186.207 140.3C189.197 140.3 191.597 138.77 191.597 135.98C191.597 133.21 189.227 132.5 187.977 132.15L185.237 131.36C184.167 131.06 182.837 130.6 182.837 129.27C182.837 127.94 184.207 126.98 185.977 127C187.807 127.02 189.317 128.1 189.617 129.85L191.507 129.52C190.977 126.9 188.897 125.33 185.997 125.31C183.127 125.3 180.957 126.8 180.957 129.35C180.957 131.48 182.477 132.41 184.077 132.88L187.747 133.97C188.777 134.28 189.757 134.82 189.757 136.08C189.757 137.65 188.227 138.61 186.297 138.61C184.287 138.61 182.697 137.54 182.237 135.72L180.397 136.01C180.877 138.66 183.147 140.3 186.207 140.3Z" fill="#110529"/>
<rect x="152" y="106" width="56" height="52" rx="1" stroke="#110529" stroke-width="2" stroke-linecap="round"/>
</g>
<g filter="url(#filter8_i_5544_36221)">
<rect x="208" y="106" width="372" height="52" rx="1" fill="#99E099"/>
<path d="M392.758 140H395.238L400.058 125.6H398.208L393.978 138.11L389.788 125.6H387.938L392.758 140Z" fill="#110529"/>
<rect x="208" y="106" width="372" height="52" rx="1" stroke="#110529" stroke-width="2" stroke-linecap="round"/>
</g>
<g filter="url(#filter9_i_5544_36221)">
<rect x="580" y="106" width="30" height="52" rx="1" fill="#CBEB67"/>
</g>
<rect x="580" y="106" width="30" height="52" rx="1" stroke="#110529" stroke-width="2" stroke-linecap="round"/>
<g filter="url(#filter10_i_5544_36221)">
<rect x="646" y="106" width="30" height="52" rx="1" fill="#FAAAFA"/>
</g>
<rect x="646" y="106" width="30" height="52" rx="1" stroke="#110529" stroke-width="2" stroke-linecap="round"/>
<g filter="url(#filter11_i_5544_36221)">
<rect x="610" y="106" width="36" height="52" rx="1" fill="#FFCB8F"/>
</g>
<rect x="610" y="106" width="36" height="52" rx="1" stroke="#110529" stroke-width="2" stroke-linecap="round"/>
<path d="M589.447 140V125.6H591.247L598.757 136.85V125.6H600.557V140H598.757L591.247 128.74V140H589.447Z" fill="#110529"/>
<path d="M655.447 140V125.6H657.247L664.757 136.85V125.6H666.557V140H664.757L657.247 128.74V140H655.447Z" fill="#110529"/>
<path d="M622.593 140V125.6H627.033C627.18 125.6 627.437 125.603 627.803 125.61C628.17 125.617 628.52 125.643 628.853 125.69C629.967 125.837 630.897 126.243 631.643 126.91C632.397 127.57 632.963 128.41 633.343 129.43C633.723 130.45 633.913 131.573 633.913 132.8C633.913 134.027 633.723 135.15 633.343 136.17C632.963 137.19 632.397 138.033 631.643 138.7C630.897 139.36 629.967 139.763 628.853 139.91C628.52 139.95 628.167 139.977 627.793 139.99C627.427 139.997 627.173 140 627.033 140H622.593ZM624.423 138.3H627.033C627.287 138.3 627.57 138.293 627.883 138.28C628.197 138.26 628.47 138.23 628.703 138.19C629.49 138.043 630.127 137.713 630.613 137.2C631.1 136.687 631.457 136.047 631.683 135.28C631.91 134.513 632.023 133.687 632.023 132.8C632.023 131.893 631.907 131.057 631.673 130.29C631.447 129.523 631.09 128.887 630.603 128.38C630.117 127.873 629.483 127.55 628.703 127.41C628.47 127.363 628.193 127.333 627.873 127.32C627.553 127.307 627.273 127.3 627.033 127.3H624.423V138.3Z" fill="#110529"/>
<g filter="url(#filter12_i_5544_36221)">
<rect x="676" y="106" width="95" height="52" rx="1" fill="#C1ADFF"/>
<path d="M722.744 140.29C724.194 140.29 725.454 139.7 726.184 138.43C726.714 137.51 726.654 136.72 726.654 135.48V125.6H724.854V135.48C724.854 136.37 724.854 136.99 724.594 137.51C724.204 138.29 723.384 138.6 722.704 138.6C721.634 138.6 720.724 137.83 720.514 136.85L718.744 137.27C719.254 139.11 720.724 140.29 722.744 140.29Z" fill="#110529"/>
<rect x="676" y="106" width="95" height="52" rx="1" stroke="#110529" stroke-width="2" stroke-linecap="round"/>
</g>
<g filter="url(#filter13_i_5544_36221)">
<rect x="771" y="106" width="144" height="52" rx="1" fill="#FAFAAA"/>
<path d="M842.593 140.3C841.16 140.3 839.943 139.983 838.943 139.35C837.943 138.717 837.18 137.837 836.653 136.71C836.133 135.583 835.873 134.28 835.873 132.8C835.873 131.32 836.133 130.017 836.653 128.89C837.18 127.763 837.943 126.883 838.943 126.25C839.943 125.617 841.16 125.3 842.593 125.3C844.26 125.3 845.63 125.723 846.703 126.57C847.783 127.417 848.527 128.557 848.933 129.99L847.123 130.47C846.83 129.397 846.307 128.55 845.553 127.93C844.8 127.31 843.813 127 842.593 127C841.52 127 840.627 127.243 839.913 127.73C839.2 128.217 838.663 128.897 838.303 129.77C837.943 130.637 837.76 131.647 837.753 132.8C837.747 133.947 837.923 134.957 838.283 135.83C838.643 136.697 839.183 137.377 839.903 137.87C840.623 138.357 841.52 138.6 842.593 138.6C843.813 138.6 844.8 138.29 845.553 137.67C846.307 137.043 846.83 136.197 847.123 135.13L848.933 135.61C848.527 137.037 847.783 138.177 846.703 139.03C845.63 139.877 844.26 140.3 842.593 140.3Z" fill="#110529"/>
<rect x="771" y="106" width="144" height="52" rx="1" stroke="#110529" stroke-width="2" stroke-linecap="round"/>
</g>
<defs>
<filter id="filter0_i_5544_36221" x="79" y="271" width="74" height="54" filterUnits="userSpaceOnUse" color-interpolation-filters="sRGB">
<feFlood flood-opacity="0" result="BackgroundImageFix"/>
<feBlend mode="normal" in="SourceGraphic" in2="BackgroundImageFix" result="shape"/>
<feColorMatrix in="SourceAlpha" type="matrix" values="0 0 0 0 0 0 0 0 0 0 0 0 0 0 0 0 0 0 127 0" result="hardAlpha"/>
<feOffset dx="-8" dy="-4"/>
<feComposite in2="hardAlpha" operator="arithmetic" k2="-1" k3="1"/>
<feColorMatrix type="matrix" values="0 0 0 0 0.0666667 0 0 0 0 0.0196078 0 0 0 0 0.160784 0 0 0 0.16 0"/>
<feBlend mode="normal" in2="shape" result="effect1_innerShadow_5544_36221"/>
</filter>
<filter id="filter1_i_5544_36221" x="151" y="271" width="58" height="54" filterUnits="userSpaceOnUse" color-interpolation-filters="sRGB">
<feFlood flood-opacity="0" result="BackgroundImageFix"/>
<feBlend mode="normal" in="SourceGraphic" in2="BackgroundImageFix" result="shape"/>
<feColorMatrix in="SourceAlpha" type="matrix" values="0 0 0 0 0 0 0 0 0 0 0 0 0 0 0 0 0 0 127 0" result="hardAlpha"/>
<feOffset dx="-8" dy="-4"/>
<feComposite in2="hardAlpha" operator="arithmetic" k2="-1" k3="1"/>
<feColorMatrix type="matrix" values="0 0 0 0 0.0666667 0 0 0 0 0.0196078 0 0 0 0 0.160784 0 0 0 0.16 0"/>
<feBlend mode="normal" in2="shape" result="effect1_innerShadow_5544_36221"/>
</filter>
<filter id="filter2_i_5544_36221" x="207" y="271" width="375" height="54" filterUnits="userSpaceOnUse" color-interpolation-filters="sRGB">
<feFlood flood-opacity="0" result="BackgroundImageFix"/>
<feBlend mode="normal" in="SourceGraphic" in2="BackgroundImageFix" result="shape"/>
<feColorMatrix in="SourceAlpha" type="matrix" values="0 0 0 0 0 0 0 0 0 0 0 0 0 0 0 0 0 0 127 0" result="hardAlpha"/>
<feOffset dx="-8" dy="-4"/>
<feComposite in2="hardAlpha" operator="arithmetic" k2="-1" k3="1"/>
<feColorMatrix type="matrix" values="0 0 0 0 0.0666667 0 0 0 0 0.0196078 0 0 0 0 0.160784 0 0 0 0.16 0"/>
<feBlend mode="normal" in2="shape" result="effect1_innerShadow_5544_36221"/>
</filter>
<filter id="filter3_i_5544_36221" x="580" y="271" width="32" height="54" filterUnits="userSpaceOnUse" color-interpolation-filters="sRGB">
<feFlood flood-opacity="0" result="BackgroundImageFix"/>
<feBlend mode="normal" in="SourceGraphic" in2="BackgroundImageFix" result="shape"/>
<feColorMatrix in="SourceAlpha" type="matrix" values="0 0 0 0 0 0 0 0 0 0 0 0 0 0 0 0 0 0 127 0" result="hardAlpha"/>
<feOffset dx="-8" dy="-4"/>
<feComposite in2="hardAlpha" operator="arithmetic" k2="-1" k3="1"/>
<feColorMatrix type="matrix" values="0 0 0 0 0.0666667 0 0 0 0 0.0196078 0 0 0 0 0.160784 0 0 0 0.16 0"/>
<feBlend mode="normal" in2="shape" result="effect1_innerShadow_5544_36221"/>
</filter>
<filter id="filter4_i_5544_36221" x="610" y="271" width="103" height="54" filterUnits="userSpaceOnUse" color-interpolation-filters="sRGB">
<feFlood flood-opacity="0" result="BackgroundImageFix"/>
<feBlend mode="normal" in="SourceGraphic" in2="BackgroundImageFix" result="shape"/>
<feColorMatrix in="SourceAlpha" type="matrix" values="0 0 0 0 0 0 0 0 0 0 0 0 0 0 0 0 0 0 127 0" result="hardAlpha"/>
<feOffset dx="-8" dy="-4"/>
<feComposite in2="hardAlpha" operator="arithmetic" k2="-1" k3="1"/>
<feColorMatrix type="matrix" values="0 0 0 0 0.0666667 0 0 0 0 0.0196078 0 0 0 0 0.160784 0 0 0 0.16 0"/>
<feBlend mode="normal" in2="shape" result="effect1_innerShadow_5544_36221"/>
</filter>
<filter id="filter5_i_5544_36221" x="711" y="271" width="146" height="54" filterUnits="userSpaceOnUse" color-interpolation-filters="sRGB">
<feFlood flood-opacity="0" result="BackgroundImageFix"/>
<feBlend mode="normal" in="SourceGraphic" in2="BackgroundImageFix" result="shape"/>
<feColorMatrix in="SourceAlpha" type="matrix" values="0 0 0 0 0 0 0 0 0 0 0 0 0 0 0 0 0 0 127 0" result="hardAlpha"/>
<feOffset dx="-8" dy="-4"/>
<feComposite in2="hardAlpha" operator="arithmetic" k2="-1" k3="1"/>
<feColorMatrix type="matrix" values="0 0 0 0 0.0666667 0 0 0 0 0.0196078 0 0 0 0 0.160784 0 0 0 0.16 0"/>
<feBlend mode="normal" in2="shape" result="effect1_innerShadow_5544_36221"/>
</filter>
<filter id="filter6_i_5544_36221" x="79" y="105" width="74" height="54" filterUnits="userSpaceOnUse" color-interpolation-filters="sRGB">
<feFlood flood-opacity="0" result="BackgroundImageFix"/>
<feBlend mode="normal" in="SourceGraphic" in2="BackgroundImageFix" result="shape"/>
<feColorMatrix in="SourceAlpha" type="matrix" values="0 0 0 0 0 0 0 0 0 0 0 0 0 0 0 0 0 0 127 0" result="hardAlpha"/>
<feOffset dx="-8" dy="-4"/>
<feComposite in2="hardAlpha" operator="arithmetic" k2="-1" k3="1"/>
<feColorMatrix type="matrix" values="0 0 0 0 0.0666667 0 0 0 0 0.0196078 0 0 0 0 0.160784 0 0 0 0.16 0"/>
<feBlend mode="normal" in2="shape" result="effect1_innerShadow_5544_36221"/>
</filter>
<filter id="filter7_i_5544_36221" x="151" y="105" width="58" height="54" filterUnits="userSpaceOnUse" color-interpolation-filters="sRGB">
<feFlood flood-opacity="0" result="BackgroundImageFix"/>
<feBlend mode="normal" in="SourceGraphic" in2="BackgroundImageFix" result="shape"/>
<feColorMatrix in="SourceAlpha" type="matrix" values="0 0 0 0 0 0 0 0 0 0 0 0 0 0 0 0 0 0 127 0" result="hardAlpha"/>
<feOffset dx="-8" dy="-4"/>
<feComposite in2="hardAlpha" operator="arithmetic" k2="-1" k3="1"/>
<feColorMatrix type="matrix" values="0 0 0 0 0.0666667 0 0 0 0 0.0196078 0 0 0 0 0.160784 0 0 0 0.16 0"/>
<feBlend mode="normal" in2="shape" result="effect1_innerShadow_5544_36221"/>
</filter>
<filter id="filter8_i_5544_36221" x="207" y="105" width="374" height="54" filterUnits="userSpaceOnUse" color-interpolation-filters="sRGB">
<feFlood flood-opacity="0" result="BackgroundImageFix"/>
<feBlend mode="normal" in="SourceGraphic" in2="BackgroundImageFix" result="shape"/>
<feColorMatrix in="SourceAlpha" type="matrix" values="0 0 0 0 0 0 0 0 0 0 0 0 0 0 0 0 0 0 127 0" result="hardAlpha"/>
<feOffset dx="-8" dy="-4"/>
<feComposite in2="hardAlpha" operator="arithmetic" k2="-1" k3="1"/>
<feColorMatrix type="matrix" values="0 0 0 0 0.0666667 0 0 0 0 0.0196078 0 0 0 0 0.160784 0 0 0 0.16 0"/>
<feBlend mode="normal" in2="shape" result="effect1_innerShadow_5544_36221"/>
</filter>
<filter id="filter9_i_5544_36221" x="579" y="105" width="32" height="54" filterUnits="userSpaceOnUse" color-interpolation-filters="sRGB">
<feFlood flood-opacity="0" result="BackgroundImageFix"/>
<feBlend mode="normal" in="SourceGraphic" in2="BackgroundImageFix" result="shape"/>
<feColorMatrix in="SourceAlpha" type="matrix" values="0 0 0 0 0 0 0 0 0 0 0 0 0 0 0 0 0 0 127 0" result="hardAlpha"/>
<feOffset dx="-8" dy="-4"/>
<feComposite in2="hardAlpha" operator="arithmetic" k2="-1" k3="1"/>
<feColorMatrix type="matrix" values="0 0 0 0 0.0666667 0 0 0 0 0.0196078 0 0 0 0 0.160784 0 0 0 0.16 0"/>
<feBlend mode="normal" in2="shape" result="effect1_innerShadow_5544_36221"/>
</filter>
<filter id="filter10_i_5544_36221" x="645" y="105" width="32" height="54" filterUnits="userSpaceOnUse" color-interpolation-filters="sRGB">
<feFlood flood-opacity="0" result="BackgroundImageFix"/>
<feBlend mode="normal" in="SourceGraphic" in2="BackgroundImageFix" result="shape"/>
<feColorMatrix in="SourceAlpha" type="matrix" values="0 0 0 0 0 0 0 0 0 0 0 0 0 0 0 0 0 0 127 0" result="hardAlpha"/>
<feOffset dx="-8" dy="-4"/>
<feComposite in2="hardAlpha" operator="arithmetic" k2="-1" k3="1"/>
<feColorMatrix type="matrix" values="0 0 0 0 0.0666667 0 0 0 0 0.0196078 0 0 0 0 0.160784 0 0 0 0.16 0"/>
<feBlend mode="normal" in2="shape" result="effect1_innerShadow_5544_36221"/>
</filter>
<filter id="filter11_i_5544_36221" x="609" y="105" width="38" height="54" filterUnits="userSpaceOnUse" color-interpolation-filters="sRGB">
<feFlood flood-opacity="0" result="BackgroundImageFix"/>
<feBlend mode="normal" in="SourceGraphic" in2="BackgroundImageFix" result="shape"/>
<feColorMatrix in="SourceAlpha" type="matrix" values="0 0 0 0 0 0 0 0 0 0 0 0 0 0 0 0 0 0 127 0" result="hardAlpha"/>
<feOffset dx="-8" dy="-4"/>
<feComposite in2="hardAlpha" operator="arithmetic" k2="-1" k3="1"/>
<feColorMatrix type="matrix" values="0 0 0 0 0.0666667 0 0 0 0 0.0196078 0 0 0 0 0.160784 0 0 0 0.16 0"/>
<feBlend mode="normal" in2="shape" result="effect1_innerShadow_5544_36221"/>
</filter>
<filter id="filter12_i_5544_36221" x="675" y="105" width="97" height="54" filterUnits="userSpaceOnUse" color-interpolation-filters="sRGB">
<feFlood flood-opacity="0" result="BackgroundImageFix"/>
<feBlend mode="normal" in="SourceGraphic" in2="BackgroundImageFix" result="shape"/>
<feColorMatrix in="SourceAlpha" type="matrix" values="0 0 0 0 0 0 0 0 0 0 0 0 0 0 0 0 0 0 127 0" result="hardAlpha"/>
<feOffset dx="-8" dy="-4"/>
<feComposite in2="hardAlpha" operator="arithmetic" k2="-1" k3="1"/>
<feColorMatrix type="matrix" values="0 0 0 0 0.0666667 0 0 0 0 0.0196078 0 0 0 0 0.160784 0 0 0 0.16 0"/>
<feBlend mode="normal" in2="shape" result="effect1_innerShadow_5544_36221"/>
</filter>
<filter id="filter13_i_5544_36221" x="770" y="105" width="146" height="54" filterUnits="userSpaceOnUse" color-interpolation-filters="sRGB">
<feFlood flood-opacity="0" result="BackgroundImageFix"/>
<feBlend mode="normal" in="SourceGraphic" in2="BackgroundImageFix" result="shape"/>
<feColorMatrix in="SourceAlpha" type="matrix" values="0 0 0 0 0 0 0 0 0 0 0 0 0 0 0 0 0 0 127 0" result="hardAlpha"/>
<feOffset dx="-8" dy="-4"/>
<feComposite in2="hardAlpha" operator="arithmetic" k2="-1" k3="1"/>
<feColorMatrix type="matrix" values="0 0 0 0 0.0666667 0 0 0 0 0.0196078 0 0 0 0 0.160784 0 0 0 0.16 0"/>
<feBlend mode="normal" in2="shape" result="effect1_innerShadow_5544_36221"/>
</filter>
</defs>
</svg>
