<svg width="600" height="294" viewBox="0 0 600 294" fill="none" xmlns="http://www.w3.org/2000/svg">
<g filter="url(#filter0_d_6043_36178)">
<path d="M140.328 9.67587L40.5138 122.497V138.331H164.645V166.041H180.197V138.331H198.859V123.91H180.197V9.67587H140.328ZM146.831 23.531H164.645V123.91H58.6103L146.831 23.531Z" fill="url(#paint0_linear_6043_36178)"/>
<path d="M234.795 88C234.795 45.0207 264.485 20.7035 300.113 20.7035C335.74 20.7035 365.43 45.0207 365.43 88C365.43 130.979 335.74 155.297 300.113 155.297C264.485 155.297 234.795 130.979 234.795 88ZM381.264 88C381.264 38.2345 345.92 6 300.113 6C254.306 6 218.961 38.2345 218.961 88C218.961 137.766 254.306 170 300.113 170C345.92 170 381.264 137.766 381.264 88Z" fill="url(#paint1_linear_6043_36178)"/>
<path d="M500.955 9.67587L401.141 122.497V138.331H525.273V166.041H540.824V138.331H559.486V123.91H540.824V9.67587H500.955ZM507.459 23.531H525.273V123.91H419.238L507.459 23.531Z" fill="url(#paint2_linear_6043_36178)"/>
<path d="M165.145 138.331V137.831H164.645H41.0138V122.686L140.553 10.1759H179.697V123.91V124.41H180.197H198.359V137.831H180.197H179.697V138.331V165.541H165.145V138.331ZM146.831 23.031H146.605L146.455 23.201L58.2348 123.58L57.5053 124.41H58.6103H164.645H165.145V123.91V23.531V23.031H164.645H146.831ZM525.773 138.331V137.831H525.273H401.641V122.686L501.181 10.1759H540.324V123.91V124.41H540.824H558.986V137.831H540.824H540.324V138.331V165.541H525.773V138.331ZM507.459 23.031H507.233L507.083 23.201L418.862 123.58L418.133 124.41H419.238H525.273H525.773V123.91V23.531V23.031H525.273H507.459ZM300.113 20.2035C282.185 20.2035 265.727 26.3225 253.747 37.8746C241.763 49.4304 234.295 66.3896 234.295 88C234.295 109.61 241.763 126.57 253.747 138.125C265.727 149.678 282.185 155.797 300.113 155.797C318.04 155.797 334.499 149.678 346.479 138.125C358.463 126.57 365.93 109.61 365.93 88C365.93 66.3896 358.463 49.4304 346.479 37.8746C334.499 26.3225 318.04 20.2035 300.113 20.2035ZM300.113 6.5C322.897 6.5 343.056 14.5154 357.516 28.6949C371.975 42.8726 380.764 63.2403 380.764 88C380.764 112.76 371.975 133.127 357.516 147.305C343.056 161.485 322.897 169.5 300.113 169.5C277.328 169.5 257.17 161.485 242.709 147.305C228.251 133.127 219.461 112.76 219.461 88C219.461 63.2403 228.251 42.8726 242.709 28.6949C257.17 14.5154 277.328 6.5 300.113 6.5Z" stroke="url(#paint3_linear_6043_36178)"/>
</g>
<path d="M111.086 215.92C107.806 213.8 104.766 213.36 100.926 213.36C95.5658 213.36 91.0458 215.24 91.0458 219.52C91.0458 223.16 93.7258 224.6 97.7258 225.04L104.686 225.8C108.046 226.16 109.926 227.36 109.926 229.92C109.926 233 106.886 234.56 101.926 234.56C97.6058 234.56 94.8458 233.88 91.6858 231.8L90.5258 233.64C93.7658 235.76 97.0058 236.56 101.286 236.56C107.926 236.56 112.126 234.48 112.126 229.84C112.126 226.32 109.526 224.28 105.206 223.76L97.9658 222.88C95.0858 222.56 93.2458 221.84 93.2458 219.48C93.2458 217.32 94.9258 215.36 100.926 215.36C104.686 215.36 107.246 216.08 110.006 217.6L111.086 215.92ZM117.57 224.96C117.61 218.88 121.97 215.44 127.61 215.44C133.25 215.44 137.65 218.88 137.65 224.96C137.65 231.04 133.25 234.48 127.61 234.48C121.97 234.48 117.61 231.04 117.57 224.96ZM139.89 224.96C139.89 217.92 134.69 213.36 127.61 213.36C120.53 213.36 115.33 217.92 115.33 224.96C115.33 232 120.53 236.56 127.61 236.56C134.69 236.56 139.89 232 139.89 224.96ZM143.904 213.88V236H146.104V215.8H146.904L157.464 236H160.024L170.184 215.8H170.984V236H173.224V213.88H168.784L158.904 233.84H158.664L148.384 213.88H143.904ZM178.005 213.88V236H197.885V233.96H180.245V225.64H195.525V223.6H180.245V215.92H197.245V213.88H178.005ZM201.102 213.88V215.96H211.302V236H213.542V215.96H223.742V213.88H201.102ZM227.341 213.88V236H229.581V225.52H247.101V236H249.341V213.88H247.101V223.44H229.581V213.88H227.341ZM254.138 213.88V236H256.378V213.88H254.138ZM261.17 213.88V236H263.37V216.4L280.81 236H283.65V213.88H281.45V233.4L263.97 213.88H261.17ZM302.595 223.96V225.8L308.875 226.04V230.68C306.755 233.2 303.995 234.48 299.715 234.48C294.075 234.48 289.915 230.44 289.915 224.92C289.915 219.24 293.755 215.44 299.715 215.44C303.635 215.44 306.595 216.8 308.515 219.2L310.315 218.12C307.955 215.04 304.675 213.36 299.835 213.36C292.915 213.36 287.635 217.72 287.635 224.92C287.635 232.12 292.675 236.56 299.835 236.56C304.115 236.56 306.755 235.36 308.955 233.28L309.435 236H310.995V223.96H302.595ZM316.021 220.2L317.221 220.52L319.261 215.36C319.341 215.12 319.421 214.84 319.421 214.52C319.421 213.24 318.421 212.28 317.141 212.28C315.861 212.28 314.901 213.24 314.901 214.52C314.901 215.64 315.621 216.52 316.661 216.72L316.021 220.2ZM343.234 215.92C339.954 213.8 336.914 213.36 333.074 213.36C327.714 213.36 323.194 215.24 323.194 219.52C323.194 223.16 325.874 224.6 329.874 225.04L336.834 225.8C340.194 226.16 342.074 227.36 342.074 229.92C342.074 233 339.034 234.56 334.074 234.56C329.754 234.56 326.994 233.88 323.834 231.8L322.674 233.64C325.914 235.76 329.154 236.56 333.434 236.56C340.074 236.56 344.274 234.48 344.274 229.84C344.274 226.32 341.674 224.28 337.354 223.76L330.114 222.88C327.234 222.56 325.394 221.84 325.394 219.48C325.394 217.32 327.074 215.36 333.074 215.36C336.834 215.36 339.394 216.08 342.154 217.6L343.234 215.92ZM361.56 213.88V236H363.76V215.8H364.56L375.12 236H377.68L387.84 215.8H388.64V236H390.88V213.88H386.44L376.56 233.84H376.32L366.04 213.88H361.56ZM395.662 213.88V236H397.902V213.88H395.662ZM422.453 215.92C419.173 213.8 416.133 213.36 412.293 213.36C406.933 213.36 402.413 215.24 402.413 219.52C402.413 223.16 405.093 224.6 409.093 225.04L416.053 225.8C419.413 226.16 421.293 227.36 421.293 229.92C421.293 233 418.253 234.56 413.293 234.56C408.973 234.56 406.213 233.88 403.053 231.8L401.893 233.64C405.133 235.76 408.373 236.56 412.653 236.56C419.293 236.56 423.493 234.48 423.493 229.84C423.493 226.32 420.893 224.28 416.573 223.76L409.333 222.88C406.453 222.56 404.613 221.84 404.613 219.48C404.613 217.32 406.293 215.36 412.293 215.36C416.053 215.36 418.613 216.08 421.373 217.6L422.453 215.92ZM446.867 215.92C443.587 213.8 440.547 213.36 436.707 213.36C431.347 213.36 426.827 215.24 426.827 219.52C426.827 223.16 429.507 224.6 433.507 225.04L440.467 225.8C443.827 226.16 445.707 227.36 445.707 229.92C445.707 233 442.667 234.56 437.707 234.56C433.387 234.56 430.627 233.88 427.467 231.8L426.307 233.64C429.547 235.76 432.787 236.56 437.067 236.56C443.707 236.56 447.907 234.48 447.907 229.84C447.907 226.32 445.307 224.28 440.987 223.76L433.747 222.88C430.867 222.56 429.027 221.84 429.027 219.48C429.027 217.32 430.707 215.36 436.707 215.36C440.467 215.36 443.027 216.08 445.787 217.6L446.867 215.92ZM451.912 213.88V236H454.152V213.88H451.912ZM458.943 213.88V236H461.143V216.4L478.583 236H481.423V213.88H479.223V233.4L461.743 213.88H458.943ZM500.369 223.96V225.8L506.649 226.04V230.68C504.529 233.2 501.769 234.48 497.489 234.48C491.849 234.48 487.689 230.44 487.689 224.92C487.689 219.24 491.529 215.44 497.489 215.44C501.409 215.44 504.369 216.8 506.289 219.2L508.089 218.12C505.729 215.04 502.449 213.36 497.609 213.36C490.689 213.36 485.409 217.72 485.409 224.92C485.409 232.12 490.449 236.56 497.609 236.56C501.889 236.56 504.529 235.36 506.729 233.28L507.209 236H508.769V223.96H500.369Z" fill="white"/>
<path d="M174.832 260.264V269H173.656V260.264H170.548V259.228H177.94V260.264H174.832ZM179.442 258.64H180.562V262.952H180.618C180.795 262.541 181.043 262.215 181.36 261.972C181.687 261.729 182.121 261.608 182.662 261.608C183.409 261.608 183.997 261.851 184.426 262.336C184.865 262.812 185.084 263.489 185.084 264.366V269H183.964V264.562C183.964 263.265 183.418 262.616 182.326 262.616C182.102 262.616 181.883 262.644 181.668 262.7C181.463 262.756 181.276 262.84 181.108 262.952C180.94 263.064 180.805 263.209 180.702 263.386C180.609 263.554 180.562 263.755 180.562 263.988V269H179.442V258.64ZM190.115 269.168C189.62 269.168 189.172 269.079 188.771 268.902C188.379 268.725 188.038 268.473 187.749 268.146C187.469 267.81 187.25 267.413 187.091 266.956C186.942 266.489 186.867 265.967 186.867 265.388C186.867 264.819 186.942 264.301 187.091 263.834C187.25 263.367 187.469 262.971 187.749 262.644C188.038 262.308 188.379 262.051 188.771 261.874C189.172 261.697 189.62 261.608 190.115 261.608C190.6 261.608 191.034 261.697 191.417 261.874C191.8 262.051 192.126 262.299 192.397 262.616C192.668 262.924 192.873 263.293 193.013 263.722C193.162 264.151 193.237 264.623 193.237 265.136V265.668H188.043V266.004C188.043 266.312 188.09 266.601 188.183 266.872C188.286 267.133 188.426 267.362 188.603 267.558C188.79 267.754 189.014 267.908 189.275 268.02C189.546 268.132 189.849 268.188 190.185 268.188C190.642 268.188 191.039 268.081 191.375 267.866C191.72 267.651 191.986 267.343 192.173 266.942L192.971 267.516C192.738 268.011 192.374 268.412 191.879 268.72C191.384 269.019 190.796 269.168 190.115 269.168ZM190.115 262.546C189.807 262.546 189.527 262.602 189.275 262.714C189.023 262.817 188.804 262.966 188.617 263.162C188.44 263.358 188.3 263.591 188.197 263.862C188.094 264.123 188.043 264.413 188.043 264.73V264.828H192.033V264.674C192.033 264.03 191.856 263.517 191.501 263.134C191.156 262.742 190.694 262.546 190.115 262.546ZM198.391 261.776H199.511V262.952H199.567C199.754 262.495 200.025 262.159 200.379 261.944C200.743 261.72 201.177 261.608 201.681 261.608C202.129 261.608 202.535 261.697 202.899 261.874C203.263 262.051 203.571 262.303 203.823 262.63C204.085 262.957 204.281 263.353 204.411 263.82C204.551 264.287 204.621 264.809 204.621 265.388C204.621 265.967 204.551 266.489 204.411 266.956C204.281 267.423 204.085 267.819 203.823 268.146C203.571 268.473 203.263 268.725 202.899 268.902C202.535 269.079 202.129 269.168 201.681 269.168C200.701 269.168 199.997 268.72 199.567 267.824H199.511V271.8H198.391V261.776ZM201.373 268.16C202.008 268.16 202.507 267.964 202.871 267.572C203.235 267.171 203.417 266.648 203.417 266.004V264.772C203.417 264.128 203.235 263.61 202.871 263.218C202.507 262.817 202.008 262.616 201.373 262.616C201.121 262.616 200.879 262.653 200.645 262.728C200.421 262.793 200.225 262.887 200.057 263.008C199.889 263.129 199.754 263.279 199.651 263.456C199.558 263.624 199.511 263.806 199.511 264.002V266.69C199.511 266.923 199.558 267.133 199.651 267.32C199.754 267.497 199.889 267.651 200.057 267.782C200.225 267.903 200.421 267.997 200.645 268.062C200.879 268.127 201.121 268.16 201.373 268.16ZM211.762 269C211.342 269 211.039 268.888 210.852 268.664C210.675 268.44 210.563 268.16 210.516 267.824H210.446C210.288 268.272 210.026 268.608 209.662 268.832C209.298 269.056 208.864 269.168 208.36 269.168C207.595 269.168 206.998 268.972 206.568 268.58C206.148 268.188 205.938 267.656 205.938 266.984C205.938 266.303 206.186 265.78 206.68 265.416C207.184 265.052 207.964 264.87 209.018 264.87H210.446V264.156C210.446 263.643 210.306 263.251 210.026 262.98C209.746 262.709 209.317 262.574 208.738 262.574C208.3 262.574 207.931 262.672 207.632 262.868C207.343 263.064 207.1 263.325 206.904 263.652L206.232 263.022C206.428 262.63 206.741 262.299 207.17 262.028C207.6 261.748 208.141 261.608 208.794 261.608C209.672 261.608 210.353 261.823 210.838 262.252C211.324 262.681 211.566 263.279 211.566 264.044V268.02H212.392V269H211.762ZM208.542 268.216C208.822 268.216 209.079 268.183 209.312 268.118C209.546 268.053 209.746 267.959 209.914 267.838C210.082 267.717 210.213 267.577 210.306 267.418C210.4 267.259 210.446 267.087 210.446 266.9V265.71H208.962C208.318 265.71 207.847 265.803 207.548 265.99C207.259 266.177 207.114 266.447 207.114 266.802V267.096C207.114 267.451 207.24 267.726 207.492 267.922C207.754 268.118 208.104 268.216 208.542 268.216ZM220.081 269.798C220.081 270.545 219.787 271.091 219.199 271.436C218.62 271.791 217.747 271.968 216.581 271.968C215.451 271.968 214.639 271.814 214.145 271.506C213.65 271.198 213.403 270.759 213.403 270.19C213.403 269.798 213.505 269.49 213.711 269.266C213.916 269.051 214.196 268.893 214.551 268.79V268.636C214.121 268.431 213.907 268.095 213.907 267.628C213.907 267.264 214.023 266.989 214.257 266.802C214.49 266.606 214.789 266.461 215.153 266.368V266.312C214.723 266.107 214.387 265.813 214.145 265.43C213.911 265.047 213.795 264.604 213.795 264.1C213.795 263.736 213.86 263.4 213.991 263.092C214.121 262.784 214.303 262.523 214.537 262.308C214.779 262.084 215.064 261.911 215.391 261.79C215.727 261.669 216.1 261.608 216.511 261.608C217.024 261.608 217.481 261.701 217.883 261.888V261.762C217.883 261.482 217.948 261.253 218.079 261.076C218.209 260.889 218.424 260.796 218.723 260.796H219.801V261.776H218.429V262.238C218.69 262.462 218.891 262.733 219.031 263.05C219.18 263.358 219.255 263.708 219.255 264.1C219.255 264.464 219.189 264.8 219.059 265.108C218.928 265.416 218.741 265.682 218.499 265.906C218.265 266.121 217.981 266.289 217.645 266.41C217.309 266.531 216.935 266.592 216.525 266.592C216.291 266.592 216.058 266.569 215.825 266.522C215.582 266.587 215.363 266.685 215.167 266.816C214.971 266.937 214.873 267.11 214.873 267.334C214.873 267.549 214.975 267.693 215.181 267.768C215.386 267.843 215.652 267.88 215.979 267.88H217.519C218.415 267.88 219.063 268.053 219.465 268.398C219.875 268.734 220.081 269.201 220.081 269.798ZM219.031 269.882C219.031 269.593 218.919 269.359 218.695 269.182C218.48 269.014 218.093 268.93 217.533 268.93H215.125C214.677 269.135 214.453 269.462 214.453 269.91C214.453 270.227 214.569 270.498 214.803 270.722C215.045 270.946 215.451 271.058 216.021 271.058H217.057C217.682 271.058 218.167 270.96 218.513 270.764C218.858 270.568 219.031 270.274 219.031 269.882ZM216.525 265.696C217.001 265.696 217.379 265.584 217.659 265.36C217.939 265.127 218.079 264.772 218.079 264.296V263.904C218.079 263.428 217.939 263.078 217.659 262.854C217.379 262.621 217.001 262.504 216.525 262.504C216.049 262.504 215.671 262.621 215.391 262.854C215.111 263.078 214.971 263.428 214.971 263.904V264.296C214.971 264.772 215.111 265.127 215.391 265.36C215.671 265.584 216.049 265.696 216.525 265.696ZM224.021 269.168C223.527 269.168 223.079 269.079 222.677 268.902C222.285 268.725 221.945 268.473 221.655 268.146C221.375 267.81 221.156 267.413 220.997 266.956C220.848 266.489 220.773 265.967 220.773 265.388C220.773 264.819 220.848 264.301 220.997 263.834C221.156 263.367 221.375 262.971 221.655 262.644C221.945 262.308 222.285 262.051 222.677 261.874C223.079 261.697 223.527 261.608 224.021 261.608C224.507 261.608 224.941 261.697 225.323 261.874C225.706 262.051 226.033 262.299 226.303 262.616C226.574 262.924 226.779 263.293 226.919 263.722C227.069 264.151 227.143 264.623 227.143 265.136V265.668H221.949V266.004C221.949 266.312 221.996 266.601 222.089 266.872C222.192 267.133 222.332 267.362 222.509 267.558C222.696 267.754 222.92 267.908 223.181 268.02C223.452 268.132 223.755 268.188 224.091 268.188C224.549 268.188 224.945 268.081 225.281 267.866C225.627 267.651 225.893 267.343 226.079 266.942L226.877 267.516C226.644 268.011 226.28 268.412 225.785 268.72C225.291 269.019 224.703 269.168 224.021 269.168ZM224.021 262.546C223.713 262.546 223.433 262.602 223.181 262.714C222.929 262.817 222.71 262.966 222.523 263.162C222.346 263.358 222.206 263.591 222.103 263.862C222.001 264.123 221.949 264.413 221.949 264.73V264.828H225.939V264.674C225.939 264.03 225.762 263.517 225.407 263.134C225.062 262.742 224.6 262.546 224.021 262.546ZM236.749 261.776H237.855L234.621 270.68C234.537 270.895 234.453 271.072 234.369 271.212C234.285 271.361 234.183 271.478 234.061 271.562C233.94 271.646 233.786 271.707 233.599 271.744C233.422 271.781 233.203 271.8 232.941 271.8H232.367V270.82H233.501L234.047 269.28L231.345 261.776H232.465L234.201 266.69L234.537 267.866H234.607L234.999 266.69L236.749 261.776ZM241.945 269.168C241.46 269.168 241.017 269.079 240.615 268.902C240.214 268.725 239.869 268.473 239.579 268.146C239.299 267.81 239.08 267.413 238.921 266.956C238.763 266.489 238.683 265.967 238.683 265.388C238.683 264.819 238.763 264.301 238.921 263.834C239.08 263.367 239.299 262.971 239.579 262.644C239.869 262.308 240.214 262.051 240.615 261.874C241.017 261.697 241.46 261.608 241.945 261.608C242.431 261.608 242.869 261.697 243.261 261.874C243.663 262.051 244.008 262.308 244.297 262.644C244.587 262.971 244.811 263.367 244.969 263.834C245.128 264.301 245.207 264.819 245.207 265.388C245.207 265.967 245.128 266.489 244.969 266.956C244.811 267.413 244.587 267.81 244.297 268.146C244.008 268.473 243.663 268.725 243.261 268.902C242.869 269.079 242.431 269.168 241.945 269.168ZM241.945 268.174C242.552 268.174 243.047 267.987 243.429 267.614C243.812 267.241 244.003 266.671 244.003 265.906V264.87C244.003 264.105 243.812 263.535 243.429 263.162C243.047 262.789 242.552 262.602 241.945 262.602C241.339 262.602 240.844 262.789 240.461 263.162C240.079 263.535 239.887 264.105 239.887 264.87V265.906C239.887 266.671 240.079 267.241 240.461 267.614C240.844 267.987 241.339 268.174 241.945 268.174ZM251.501 267.824H251.445C251.371 267.992 251.277 268.16 251.165 268.328C251.063 268.487 250.932 268.631 250.773 268.762C250.615 268.883 250.423 268.981 250.199 269.056C249.975 269.131 249.714 269.168 249.415 269.168C248.669 269.168 248.076 268.93 247.637 268.454C247.199 267.969 246.979 267.287 246.979 266.41V261.776H248.099V266.214C248.099 267.511 248.65 268.16 249.751 268.16C249.975 268.16 250.19 268.132 250.395 268.076C250.61 268.02 250.797 267.936 250.955 267.824C251.123 267.712 251.254 267.572 251.347 267.404C251.45 267.227 251.501 267.017 251.501 266.774V261.776H252.621V269H251.501V267.824ZM255.006 262.56V258.64H256.014V262.56H255.006ZM258.397 269V261.776H259.517V263.106H259.587C259.718 262.761 259.951 262.453 260.287 262.182C260.623 261.911 261.085 261.776 261.673 261.776H262.107V262.896H261.449C260.842 262.896 260.366 263.013 260.021 263.246C259.685 263.47 259.517 263.755 259.517 264.1V269H258.397ZM266.185 269.168C265.691 269.168 265.243 269.079 264.841 268.902C264.449 268.725 264.109 268.473 263.819 268.146C263.539 267.81 263.32 267.413 263.161 266.956C263.012 266.489 262.937 265.967 262.937 265.388C262.937 264.819 263.012 264.301 263.161 263.834C263.32 263.367 263.539 262.971 263.819 262.644C264.109 262.308 264.449 262.051 264.841 261.874C265.243 261.697 265.691 261.608 266.185 261.608C266.671 261.608 267.105 261.697 267.487 261.874C267.87 262.051 268.197 262.299 268.467 262.616C268.738 262.924 268.943 263.293 269.083 263.722C269.233 264.151 269.307 264.623 269.307 265.136V265.668H264.113V266.004C264.113 266.312 264.16 266.601 264.253 266.872C264.356 267.133 264.496 267.362 264.673 267.558C264.86 267.754 265.084 267.908 265.345 268.02C265.616 268.132 265.919 268.188 266.255 268.188C266.713 268.188 267.109 268.081 267.445 267.866C267.791 267.651 268.057 267.343 268.243 266.942L269.041 267.516C268.808 268.011 268.444 268.412 267.949 268.72C267.455 269.019 266.867 269.168 266.185 269.168ZM266.185 262.546C265.877 262.546 265.597 262.602 265.345 262.714C265.093 262.817 264.874 262.966 264.687 263.162C264.51 263.358 264.37 263.591 264.267 263.862C264.165 264.123 264.113 264.413 264.113 264.73V264.828H268.103V264.674C268.103 264.03 267.926 263.517 267.571 263.134C267.226 262.742 266.764 262.546 266.185 262.546ZM275.651 269C275.259 269 274.961 268.893 274.755 268.678C274.559 268.454 274.461 268.174 274.461 267.838V258.64H275.581V268.02H276.645V269H275.651ZM281.006 269.168C280.521 269.168 280.077 269.079 279.676 268.902C279.275 268.725 278.929 268.473 278.64 268.146C278.36 267.81 278.141 267.413 277.982 266.956C277.823 266.489 277.744 265.967 277.744 265.388C277.744 264.819 277.823 264.301 277.982 263.834C278.141 263.367 278.36 262.971 278.64 262.644C278.929 262.308 279.275 262.051 279.676 261.874C280.077 261.697 280.521 261.608 281.006 261.608C281.491 261.608 281.93 261.697 282.322 261.874C282.723 262.051 283.069 262.308 283.358 262.644C283.647 262.971 283.871 263.367 284.03 263.834C284.189 264.301 284.268 264.819 284.268 265.388C284.268 265.967 284.189 266.489 284.03 266.956C283.871 267.413 283.647 267.81 283.358 268.146C283.069 268.473 282.723 268.725 282.322 268.902C281.93 269.079 281.491 269.168 281.006 269.168ZM281.006 268.174C281.613 268.174 282.107 267.987 282.49 267.614C282.873 267.241 283.064 266.671 283.064 265.906V264.87C283.064 264.105 282.873 263.535 282.49 263.162C282.107 262.789 281.613 262.602 281.006 262.602C280.399 262.602 279.905 262.789 279.522 263.162C279.139 263.535 278.948 264.105 278.948 264.87V265.906C278.948 266.671 279.139 267.241 279.522 267.614C279.905 267.987 280.399 268.174 281.006 268.174ZM288.84 269.168C288.355 269.168 287.911 269.079 287.51 268.902C287.109 268.725 286.763 268.473 286.474 268.146C286.194 267.81 285.975 267.413 285.816 266.956C285.657 266.489 285.578 265.967 285.578 265.388C285.578 264.819 285.657 264.301 285.816 263.834C285.975 263.367 286.194 262.971 286.474 262.644C286.763 262.308 287.109 262.051 287.51 261.874C287.911 261.697 288.355 261.608 288.84 261.608C289.325 261.608 289.764 261.697 290.156 261.874C290.557 262.051 290.903 262.308 291.192 262.644C291.481 262.971 291.705 263.367 291.864 263.834C292.023 264.301 292.102 264.819 292.102 265.388C292.102 265.967 292.023 266.489 291.864 266.956C291.705 267.413 291.481 267.81 291.192 268.146C290.903 268.473 290.557 268.725 290.156 268.902C289.764 269.079 289.325 269.168 288.84 269.168ZM288.84 268.174C289.447 268.174 289.941 267.987 290.324 267.614C290.707 267.241 290.898 266.671 290.898 265.906V264.87C290.898 264.105 290.707 263.535 290.324 263.162C289.941 262.789 289.447 262.602 288.84 262.602C288.233 262.602 287.739 262.789 287.356 263.162C286.973 263.535 286.782 264.105 286.782 264.87V265.906C286.782 266.671 286.973 267.241 287.356 267.614C287.739 267.987 288.233 268.174 288.84 268.174ZM293.944 258.64H295.064V265.206H295.12L296.226 263.974L298.27 261.776H299.628L296.954 264.632L299.894 269H298.536L296.142 265.318L295.064 266.424V269H293.944V258.64ZM301.887 260.082C301.644 260.082 301.467 260.026 301.355 259.914C301.252 259.793 301.201 259.639 301.201 259.452V259.27C301.201 259.083 301.252 258.934 301.355 258.822C301.467 258.701 301.644 258.64 301.887 258.64C302.129 258.64 302.302 258.701 302.405 258.822C302.517 258.934 302.573 259.083 302.573 259.27V259.452C302.573 259.639 302.517 259.793 302.405 259.914C302.302 260.026 302.129 260.082 301.887 260.082ZM301.327 261.776H302.447V269H301.327V261.776ZM304.827 269V261.776H305.947V262.952H306.003C306.18 262.541 306.427 262.215 306.745 261.972C307.071 261.729 307.505 261.608 308.047 261.608C308.793 261.608 309.381 261.851 309.811 262.336C310.249 262.812 310.469 263.489 310.469 264.366V269H309.349V264.562C309.349 263.265 308.803 262.616 307.711 262.616C307.487 262.616 307.267 262.644 307.053 262.7C306.847 262.756 306.661 262.84 306.493 262.952C306.325 263.064 306.189 263.209 306.087 263.386C305.993 263.554 305.947 263.755 305.947 263.988V269H304.827ZM318.874 269.798C318.874 270.545 318.58 271.091 317.992 271.436C317.413 271.791 316.54 271.968 315.374 271.968C314.244 271.968 313.432 271.814 312.938 271.506C312.443 271.198 312.196 270.759 312.196 270.19C312.196 269.798 312.298 269.49 312.504 269.266C312.709 269.051 312.989 268.893 313.344 268.79V268.636C312.914 268.431 312.7 268.095 312.7 267.628C312.7 267.264 312.816 266.989 313.05 266.802C313.283 266.606 313.582 266.461 313.946 266.368V266.312C313.516 266.107 313.18 265.813 312.938 265.43C312.704 265.047 312.588 264.604 312.588 264.1C312.588 263.736 312.653 263.4 312.784 263.092C312.914 262.784 313.096 262.523 313.33 262.308C313.572 262.084 313.857 261.911 314.184 261.79C314.52 261.669 314.893 261.608 315.304 261.608C315.817 261.608 316.274 261.701 316.676 261.888V261.762C316.676 261.482 316.741 261.253 316.872 261.076C317.002 260.889 317.217 260.796 317.516 260.796H318.594V261.776H317.222V262.238C317.483 262.462 317.684 262.733 317.824 263.05C317.973 263.358 318.048 263.708 318.048 264.1C318.048 264.464 317.982 264.8 317.852 265.108C317.721 265.416 317.534 265.682 317.292 265.906C317.058 266.121 316.774 266.289 316.438 266.41C316.102 266.531 315.728 266.592 315.318 266.592C315.084 266.592 314.851 266.569 314.618 266.522C314.375 266.587 314.156 266.685 313.96 266.816C313.764 266.937 313.666 267.11 313.666 267.334C313.666 267.549 313.768 267.693 313.974 267.768C314.179 267.843 314.445 267.88 314.772 267.88H316.312C317.208 267.88 317.856 268.053 318.258 268.398C318.668 268.734 318.874 269.201 318.874 269.798ZM317.824 269.882C317.824 269.593 317.712 269.359 317.488 269.182C317.273 269.014 316.886 268.93 316.326 268.93H313.918C313.47 269.135 313.246 269.462 313.246 269.91C313.246 270.227 313.362 270.498 313.596 270.722C313.838 270.946 314.244 271.058 314.814 271.058H315.85C316.475 271.058 316.96 270.96 317.306 270.764C317.651 270.568 317.824 270.274 317.824 269.882ZM315.318 265.696C315.794 265.696 316.172 265.584 316.452 265.36C316.732 265.127 316.872 264.772 316.872 264.296V263.904C316.872 263.428 316.732 263.078 316.452 262.854C316.172 262.621 315.794 262.504 315.318 262.504C314.842 262.504 314.464 262.621 314.184 262.854C313.904 263.078 313.764 263.428 313.764 263.904V264.296C313.764 264.772 313.904 265.127 314.184 265.36C314.464 265.584 314.842 265.696 315.318 265.696ZM323.881 262.756H322.705V261.776H323.881V260.32C323.881 259.816 324.011 259.41 324.273 259.102C324.534 258.794 324.931 258.64 325.463 258.64H326.555V259.62H325.001V261.776H326.555V262.756H325.001V269H323.881V262.756ZM330.703 269.168C330.218 269.168 329.775 269.079 329.373 268.902C328.972 268.725 328.627 268.473 328.337 268.146C328.057 267.81 327.838 267.413 327.679 266.956C327.521 266.489 327.441 265.967 327.441 265.388C327.441 264.819 327.521 264.301 327.679 263.834C327.838 263.367 328.057 262.971 328.337 262.644C328.627 262.308 328.972 262.051 329.373 261.874C329.775 261.697 330.218 261.608 330.703 261.608C331.189 261.608 331.627 261.697 332.019 261.874C332.421 262.051 332.766 262.308 333.055 262.644C333.345 262.971 333.569 263.367 333.727 263.834C333.886 264.301 333.965 264.819 333.965 265.388C333.965 265.967 333.886 266.489 333.727 266.956C333.569 267.413 333.345 267.81 333.055 268.146C332.766 268.473 332.421 268.725 332.019 268.902C331.627 269.079 331.189 269.168 330.703 269.168ZM330.703 268.174C331.31 268.174 331.805 267.987 332.187 267.614C332.57 267.241 332.761 266.671 332.761 265.906V264.87C332.761 264.105 332.57 263.535 332.187 263.162C331.805 262.789 331.31 262.602 330.703 262.602C330.097 262.602 329.602 262.789 329.219 263.162C328.837 263.535 328.645 264.105 328.645 264.87V265.906C328.645 266.671 328.837 267.241 329.219 267.614C329.602 267.987 330.097 268.174 330.703 268.174ZM335.807 269V261.776H336.927V263.106H336.997C337.128 262.761 337.361 262.453 337.697 262.182C338.033 261.911 338.495 261.776 339.083 261.776H339.517V262.896H338.859C338.253 262.896 337.777 263.013 337.431 263.246C337.095 263.47 336.927 263.755 336.927 264.1V269H335.807ZM348.876 267.824H348.82C348.382 268.72 347.677 269.168 346.706 269.168C346.258 269.168 345.852 269.079 345.488 268.902C345.124 268.725 344.812 268.473 344.55 268.146C344.298 267.819 344.102 267.423 343.962 266.956C343.832 266.489 343.766 265.967 343.766 265.388C343.766 264.809 343.832 264.287 343.962 263.82C344.102 263.353 344.298 262.957 344.55 262.63C344.812 262.303 345.124 262.051 345.488 261.874C345.852 261.697 346.258 261.608 346.706 261.608C347.21 261.608 347.64 261.72 347.994 261.944C348.358 262.159 348.634 262.495 348.82 262.952H348.876V258.64H349.996V269H348.876V267.824ZM347.014 268.16C347.266 268.16 347.504 268.127 347.728 268.062C347.962 267.997 348.162 267.903 348.33 267.782C348.498 267.651 348.629 267.497 348.722 267.32C348.825 267.133 348.876 266.923 348.876 266.69V264.002C348.876 263.806 348.825 263.624 348.722 263.456C348.629 263.279 348.498 263.129 348.33 263.008C348.162 262.887 347.962 262.793 347.728 262.728C347.504 262.653 347.266 262.616 347.014 262.616C346.38 262.616 345.88 262.817 345.516 263.218C345.152 263.61 344.97 264.128 344.97 264.772V266.004C344.97 266.648 345.152 267.171 345.516 267.572C345.88 267.964 346.38 268.16 347.014 268.16ZM355.108 269.168C354.622 269.168 354.179 269.079 353.778 268.902C353.376 268.725 353.031 268.473 352.742 268.146C352.462 267.81 352.242 267.413 352.084 266.956C351.925 266.489 351.846 265.967 351.846 265.388C351.846 264.819 351.925 264.301 352.084 263.834C352.242 263.367 352.462 262.971 352.742 262.644C353.031 262.308 353.376 262.051 353.778 261.874C354.179 261.697 354.622 261.608 355.108 261.608C355.593 261.608 356.032 261.697 356.424 261.874C356.825 262.051 357.17 262.308 357.46 262.644C357.749 262.971 357.973 263.367 358.132 263.834C358.29 264.301 358.37 264.819 358.37 265.388C358.37 265.967 358.29 266.489 358.132 266.956C357.973 267.413 357.749 267.81 357.46 268.146C357.17 268.473 356.825 268.725 356.424 268.902C356.032 269.079 355.593 269.168 355.108 269.168ZM355.108 268.174C355.714 268.174 356.209 267.987 356.592 267.614C356.974 267.241 357.166 266.671 357.166 265.906V264.87C357.166 264.105 356.974 263.535 356.592 263.162C356.209 262.789 355.714 262.602 355.108 262.602C354.501 262.602 354.006 262.789 353.624 263.162C353.241 263.535 353.05 264.105 353.05 264.87V265.906C353.05 266.671 353.241 267.241 353.624 267.614C354.006 267.987 354.501 268.174 355.108 268.174ZM362.927 269.168C362.433 269.168 361.985 269.079 361.583 268.902C361.191 268.725 360.851 268.473 360.561 268.146C360.281 267.81 360.062 267.413 359.903 266.956C359.754 266.489 359.679 265.967 359.679 265.388C359.679 264.819 359.754 264.301 359.903 263.834C360.062 263.367 360.281 262.971 360.561 262.644C360.851 262.308 361.191 262.051 361.583 261.874C361.985 261.697 362.433 261.608 362.927 261.608C363.413 261.608 363.847 261.697 364.229 261.874C364.612 262.051 364.939 262.299 365.209 262.616C365.48 262.924 365.685 263.293 365.825 263.722C365.975 264.151 366.049 264.623 366.049 265.136V265.668H360.855V266.004C360.855 266.312 360.902 266.601 360.995 266.872C361.098 267.133 361.238 267.362 361.415 267.558C361.602 267.754 361.826 267.908 362.087 268.02C362.358 268.132 362.661 268.188 362.997 268.188C363.455 268.188 363.851 268.081 364.187 267.866C364.533 267.651 364.799 267.343 364.985 266.942L365.783 267.516C365.55 268.011 365.186 268.412 364.691 268.72C364.197 269.019 363.609 269.168 362.927 269.168ZM362.927 262.546C362.619 262.546 362.339 262.602 362.087 262.714C361.835 262.817 361.616 262.966 361.429 263.162C361.252 263.358 361.112 263.591 361.009 263.862C360.907 264.123 360.855 264.413 360.855 264.73V264.828H364.845V264.674C364.845 264.03 364.668 263.517 364.313 263.134C363.968 262.742 363.506 262.546 362.927 262.546ZM370.065 269.168C369.393 269.168 368.828 269.042 368.371 268.79C367.923 268.529 367.536 268.183 367.209 267.754L368.007 267.11C368.287 267.465 368.6 267.74 368.945 267.936C369.29 268.123 369.692 268.216 370.149 268.216C370.625 268.216 370.994 268.113 371.255 267.908C371.526 267.703 371.661 267.413 371.661 267.04C371.661 266.76 371.568 266.522 371.381 266.326C371.204 266.121 370.877 265.981 370.401 265.906L369.827 265.822C369.491 265.775 369.183 265.705 368.903 265.612C368.623 265.509 368.376 265.379 368.161 265.22C367.956 265.052 367.792 264.847 367.671 264.604C367.559 264.361 367.503 264.072 367.503 263.736C367.503 263.381 367.568 263.073 367.699 262.812C367.83 262.541 368.007 262.317 368.231 262.14C368.464 261.963 368.74 261.832 369.057 261.748C369.374 261.655 369.715 261.608 370.079 261.608C370.667 261.608 371.157 261.711 371.549 261.916C371.95 262.121 372.3 262.406 372.599 262.77L371.857 263.442C371.698 263.218 371.465 263.017 371.157 262.84C370.849 262.653 370.462 262.56 369.995 262.56C369.528 262.56 369.174 262.663 368.931 262.868C368.698 263.064 368.581 263.335 368.581 263.68C368.581 264.035 368.698 264.291 368.931 264.45C369.174 264.609 369.519 264.725 369.967 264.8L370.527 264.884C371.33 265.005 371.899 265.239 372.235 265.584C372.571 265.92 372.739 266.363 372.739 266.914C372.739 267.614 372.501 268.165 372.025 268.566C371.549 268.967 370.896 269.168 370.065 269.168ZM374.717 269V261.776H375.837V262.952H375.893C376.071 262.541 376.318 262.215 376.635 261.972C376.962 261.729 377.396 261.608 377.937 261.608C378.684 261.608 379.272 261.851 379.701 262.336C380.14 262.812 380.359 263.489 380.359 264.366V269H379.239V264.562C379.239 263.265 378.693 262.616 377.601 262.616C377.377 262.616 377.158 262.644 376.943 262.7C376.738 262.756 376.551 262.84 376.383 262.952C376.215 263.064 376.08 263.209 375.977 263.386C375.884 263.554 375.837 263.755 375.837 263.988V269H374.717ZM382.469 262.56V258.64H383.477V262.56H382.469ZM387.456 269C387.064 269 386.765 268.893 386.56 268.678C386.364 268.454 386.266 268.165 386.266 267.81V262.756H385.076V261.776H385.748C385.991 261.776 386.154 261.729 386.238 261.636C386.331 261.533 386.378 261.361 386.378 261.118V259.774H387.386V261.776H388.968V262.756H387.386V268.02H388.856V269H387.456ZM396.793 269.168C396.298 269.168 395.85 269.079 395.449 268.902C395.057 268.725 394.716 268.473 394.427 268.146C394.147 267.81 393.927 267.413 393.769 266.956C393.619 266.489 393.545 265.967 393.545 265.388C393.545 264.819 393.619 264.301 393.769 263.834C393.927 263.367 394.147 262.971 394.427 262.644C394.716 262.308 395.057 262.051 395.449 261.874C395.85 261.697 396.298 261.608 396.793 261.608C397.278 261.608 397.712 261.697 398.095 261.874C398.477 262.051 398.804 262.299 399.075 262.616C399.345 262.924 399.551 263.293 399.691 263.722C399.84 264.151 399.915 264.623 399.915 265.136V265.668H394.721V266.004C394.721 266.312 394.767 266.601 394.861 266.872C394.963 267.133 395.103 267.362 395.281 267.558C395.467 267.754 395.691 267.908 395.953 268.02C396.223 268.132 396.527 268.188 396.863 268.188C397.32 268.188 397.717 268.081 398.053 267.866C398.398 267.651 398.664 267.343 398.851 266.942L399.649 267.516C399.415 268.011 399.051 268.412 398.557 268.72C398.062 269.019 397.474 269.168 396.793 269.168ZM396.793 262.546C396.485 262.546 396.205 262.602 395.953 262.714C395.701 262.817 395.481 262.966 395.295 263.162C395.117 263.358 394.977 263.591 394.875 263.862C394.772 264.123 394.721 264.413 394.721 264.73V264.828H398.711V264.674C398.711 264.03 398.533 263.517 398.179 263.134C397.833 262.742 397.371 262.546 396.793 262.546ZM400.7 269L403.374 265.36L400.812 261.776H402.128L403.962 264.464H404.004L405.908 261.776H407.154L404.606 265.276L407.21 269H405.894L404.018 266.172H403.976L401.946 269H400.7ZM409.252 260.082C409.009 260.082 408.832 260.026 408.72 259.914C408.617 259.793 408.566 259.639 408.566 259.452V259.27C408.566 259.083 408.617 258.934 408.72 258.822C408.832 258.701 409.009 258.64 409.252 258.64C409.495 258.64 409.667 258.701 409.77 258.822C409.882 258.934 409.938 259.083 409.938 259.27V259.452C409.938 259.639 409.882 259.793 409.77 259.914C409.667 260.026 409.495 260.082 409.252 260.082ZM408.692 261.776H409.812V269H408.692V261.776ZM414.362 269.168C413.69 269.168 413.125 269.042 412.668 268.79C412.22 268.529 411.833 268.183 411.506 267.754L412.304 267.11C412.584 267.465 412.897 267.74 413.242 267.936C413.587 268.123 413.989 268.216 414.446 268.216C414.922 268.216 415.291 268.113 415.552 267.908C415.823 267.703 415.958 267.413 415.958 267.04C415.958 266.76 415.865 266.522 415.678 266.326C415.501 266.121 415.174 265.981 414.698 265.906L414.124 265.822C413.788 265.775 413.48 265.705 413.2 265.612C412.92 265.509 412.673 265.379 412.458 265.22C412.253 265.052 412.089 264.847 411.968 264.604C411.856 264.361 411.8 264.072 411.8 263.736C411.8 263.381 411.865 263.073 411.996 262.812C412.127 262.541 412.304 262.317 412.528 262.14C412.761 261.963 413.037 261.832 413.354 261.748C413.671 261.655 414.012 261.608 414.376 261.608C414.964 261.608 415.454 261.711 415.846 261.916C416.247 262.121 416.597 262.406 416.896 262.77L416.154 263.442C415.995 263.218 415.762 263.017 415.454 262.84C415.146 262.653 414.759 262.56 414.292 262.56C413.825 262.56 413.471 262.663 413.228 262.868C412.995 263.064 412.878 263.335 412.878 263.68C412.878 264.035 412.995 264.291 413.228 264.45C413.471 264.609 413.816 264.725 414.264 264.8L414.824 264.884C415.627 265.005 416.196 265.239 416.532 265.584C416.868 265.92 417.036 266.363 417.036 266.914C417.036 267.614 416.798 268.165 416.322 268.566C415.846 268.967 415.193 269.168 414.362 269.168ZM420.515 269C420.123 269 419.824 268.893 419.619 268.678C419.423 268.454 419.325 268.165 419.325 267.81V262.756H418.135V261.776H418.807C419.049 261.776 419.213 261.729 419.297 261.636C419.39 261.533 419.437 261.361 419.437 261.118V259.774H420.445V261.776H422.027V262.756H420.445V268.02H421.915V269H420.515ZM424.541 269.168C424.242 269.168 424.023 269.093 423.883 268.944C423.752 268.795 423.687 268.599 423.687 268.356V268.174C423.687 267.931 423.752 267.735 423.883 267.586C424.023 267.437 424.242 267.362 424.541 267.362C424.839 267.362 425.054 267.437 425.185 267.586C425.325 267.735 425.395 267.931 425.395 268.174V268.356C425.395 268.599 425.325 268.795 425.185 268.944C425.054 269.093 424.839 269.168 424.541 269.168ZM106.289 289V288.02H107.661V280.208H106.289V279.228H110.209V280.208H108.837V288.02H110.209V289H106.289ZM113.841 289C113.449 289 113.15 288.893 112.945 288.678C112.749 288.454 112.651 288.165 112.651 287.81V282.756H111.461V281.776H112.133C112.375 281.776 112.539 281.729 112.623 281.636C112.716 281.533 112.763 281.361 112.763 281.118V279.774H113.771V281.776H115.353V282.756H113.771V288.02H115.241V289H113.841ZM120.461 289V281.776H121.581V282.952H121.637C121.721 282.765 121.815 282.593 121.917 282.434C122.029 282.266 122.16 282.121 122.309 282C122.468 281.879 122.65 281.785 122.855 281.72C123.061 281.645 123.303 281.608 123.583 281.608C124.059 281.608 124.498 281.725 124.899 281.958C125.301 282.182 125.599 282.555 125.795 283.078H125.823C125.954 282.686 126.197 282.345 126.551 282.056C126.915 281.757 127.405 281.608 128.021 281.608C128.759 281.608 129.333 281.851 129.743 282.336C130.163 282.812 130.373 283.489 130.373 284.366V289H129.253V284.562C129.253 283.918 129.127 283.433 128.875 283.106C128.623 282.779 128.222 282.616 127.671 282.616C127.447 282.616 127.233 282.644 127.027 282.7C126.831 282.756 126.654 282.84 126.495 282.952C126.337 283.064 126.211 283.209 126.117 283.386C126.024 283.554 125.977 283.755 125.977 283.988V289H124.857V284.562C124.857 283.918 124.731 283.433 124.479 283.106C124.227 282.779 123.835 282.616 123.303 282.616C123.079 282.616 122.865 282.644 122.659 282.7C122.454 282.756 122.272 282.84 122.113 282.952C121.955 283.064 121.824 283.209 121.721 283.386C121.628 283.554 121.581 283.755 121.581 283.988V289H120.461ZM137.934 289C137.514 289 137.211 288.888 137.024 288.664C136.847 288.44 136.735 288.16 136.688 287.824H136.618C136.459 288.272 136.198 288.608 135.834 288.832C135.47 289.056 135.036 289.168 134.532 289.168C133.767 289.168 133.169 288.972 132.74 288.58C132.32 288.188 132.11 287.656 132.11 286.984C132.11 286.303 132.357 285.78 132.852 285.416C133.356 285.052 134.135 284.87 135.19 284.87H136.618V284.156C136.618 283.643 136.478 283.251 136.198 282.98C135.918 282.709 135.489 282.574 134.91 282.574C134.471 282.574 134.103 282.672 133.804 282.868C133.515 283.064 133.272 283.325 133.076 283.652L132.404 283.022C132.6 282.63 132.913 282.299 133.342 282.028C133.771 281.748 134.313 281.608 134.966 281.608C135.843 281.608 136.525 281.823 137.01 282.252C137.495 282.681 137.738 283.279 137.738 284.044V288.02H138.564V289H137.934ZM134.714 288.216C134.994 288.216 135.251 288.183 135.484 288.118C135.717 288.053 135.918 287.959 136.086 287.838C136.254 287.717 136.385 287.577 136.478 287.418C136.571 287.259 136.618 287.087 136.618 286.9V285.71H135.134C134.49 285.71 134.019 285.803 133.72 285.99C133.431 286.177 133.286 286.447 133.286 286.802V287.096C133.286 287.451 133.412 287.726 133.664 287.922C133.925 288.118 134.275 288.216 134.714 288.216ZM144.546 281.776H145.652L142.418 290.68C142.334 290.895 142.25 291.072 142.166 291.212C142.082 291.361 141.98 291.478 141.858 291.562C141.737 291.646 141.583 291.707 141.396 291.744C141.219 291.781 141 291.8 140.738 291.8H140.164V290.82H141.298L141.844 289.28L139.142 281.776H140.262L141.998 286.69L142.334 287.866H142.404L142.796 286.69L144.546 281.776ZM150.389 278.64H151.509V282.952H151.565C151.752 282.495 152.023 282.159 152.377 281.944C152.741 281.72 153.175 281.608 153.679 281.608C154.127 281.608 154.533 281.697 154.897 281.874C155.261 282.051 155.569 282.303 155.821 282.63C156.083 282.957 156.279 283.353 156.409 283.82C156.549 284.287 156.619 284.809 156.619 285.388C156.619 285.967 156.549 286.489 156.409 286.956C156.279 287.423 156.083 287.819 155.821 288.146C155.569 288.473 155.261 288.725 154.897 288.902C154.533 289.079 154.127 289.168 153.679 289.168C152.699 289.168 151.995 288.72 151.565 287.824H151.509V289H150.389V278.64ZM153.371 288.16C154.006 288.16 154.505 287.964 154.869 287.572C155.233 287.171 155.415 286.648 155.415 286.004V284.772C155.415 284.128 155.233 283.61 154.869 283.218C154.505 282.817 154.006 282.616 153.371 282.616C153.119 282.616 152.877 282.653 152.643 282.728C152.419 282.793 152.223 282.887 152.055 283.008C151.887 283.129 151.752 283.279 151.649 283.456C151.556 283.624 151.509 283.806 151.509 284.002V286.69C151.509 286.923 151.556 287.133 151.649 287.32C151.752 287.497 151.887 287.651 152.055 287.782C152.223 287.903 152.419 287.997 152.643 288.062C152.877 288.127 153.119 288.16 153.371 288.16ZM161.226 289.168C160.732 289.168 160.284 289.079 159.882 288.902C159.49 288.725 159.15 288.473 158.86 288.146C158.58 287.81 158.361 287.413 158.202 286.956C158.053 286.489 157.978 285.967 157.978 285.388C157.978 284.819 158.053 284.301 158.202 283.834C158.361 283.367 158.58 282.971 158.86 282.644C159.15 282.308 159.49 282.051 159.882 281.874C160.284 281.697 160.732 281.608 161.226 281.608C161.712 281.608 162.146 281.697 162.528 281.874C162.911 282.051 163.238 282.299 163.508 282.616C163.779 282.924 163.984 283.293 164.124 283.722C164.274 284.151 164.348 284.623 164.348 285.136V285.668H159.154V286.004C159.154 286.312 159.201 286.601 159.294 286.872C159.397 287.133 159.537 287.362 159.714 287.558C159.901 287.754 160.125 287.908 160.386 288.02C160.657 288.132 160.96 288.188 161.296 288.188C161.754 288.188 162.15 288.081 162.486 287.866C162.832 287.651 163.098 287.343 163.284 286.942L164.082 287.516C163.849 288.011 163.485 288.412 162.99 288.72C162.496 289.019 161.908 289.168 161.226 289.168ZM161.226 282.546C160.918 282.546 160.638 282.602 160.386 282.714C160.134 282.817 159.915 282.966 159.728 283.162C159.551 283.358 159.411 283.591 159.308 283.862C159.206 284.123 159.154 284.413 159.154 284.73V284.828H163.144V284.674C163.144 284.03 162.967 283.517 162.612 283.134C162.267 282.742 161.805 282.546 161.226 282.546ZM172.233 289.168C171.747 289.168 171.304 289.079 170.903 288.902C170.501 288.725 170.156 288.473 169.867 288.146C169.587 287.81 169.367 287.413 169.209 286.956C169.05 286.489 168.971 285.967 168.971 285.388C168.971 284.819 169.05 284.301 169.209 283.834C169.367 283.367 169.587 282.971 169.867 282.644C170.156 282.308 170.501 282.051 170.903 281.874C171.304 281.697 171.747 281.608 172.233 281.608C172.718 281.608 173.157 281.697 173.549 281.874C173.95 282.051 174.295 282.308 174.585 282.644C174.874 282.971 175.098 283.367 175.257 283.834C175.415 284.301 175.495 284.819 175.495 285.388C175.495 285.967 175.415 286.489 175.257 286.956C175.098 287.413 174.874 287.81 174.585 288.146C174.295 288.473 173.95 288.725 173.549 288.902C173.157 289.079 172.718 289.168 172.233 289.168ZM172.233 288.174C172.839 288.174 173.334 287.987 173.717 287.614C174.099 287.241 174.291 286.671 174.291 285.906V284.87C174.291 284.105 174.099 283.535 173.717 283.162C173.334 282.789 172.839 282.602 172.233 282.602C171.626 282.602 171.131 282.789 170.749 283.162C170.366 283.535 170.175 284.105 170.175 284.87V285.906C170.175 286.671 170.366 287.241 170.749 287.614C171.131 287.987 171.626 288.174 172.233 288.174ZM181.788 287.824H181.732C181.658 287.992 181.564 288.16 181.452 288.328C181.35 288.487 181.219 288.631 181.06 288.762C180.902 288.883 180.71 288.981 180.486 289.056C180.262 289.131 180.001 289.168 179.702 289.168C178.956 289.168 178.363 288.93 177.924 288.454C177.486 287.969 177.266 287.287 177.266 286.41V281.776H178.386V286.214C178.386 287.511 178.937 288.16 180.038 288.16C180.262 288.16 180.477 288.132 180.682 288.076C180.897 288.02 181.084 287.936 181.242 287.824C181.41 287.712 181.541 287.572 181.634 287.404C181.737 287.227 181.788 287.017 181.788 286.774V281.776H182.908V289H181.788V287.824ZM186.89 289C186.498 289 186.199 288.893 185.994 288.678C185.798 288.454 185.7 288.165 185.7 287.81V282.756H184.51V281.776H185.182C185.424 281.776 185.588 281.729 185.672 281.636C185.765 281.533 185.812 281.361 185.812 281.118V279.774H186.82V281.776H188.402V282.756H186.82V288.02H188.29V289H186.89ZM196.24 289.168C195.755 289.168 195.312 289.079 194.91 288.902C194.509 288.725 194.164 288.473 193.874 288.146C193.594 287.81 193.375 287.413 193.216 286.956C193.058 286.489 192.978 285.967 192.978 285.388C192.978 284.819 193.058 284.301 193.216 283.834C193.375 283.367 193.594 282.971 193.874 282.644C194.164 282.308 194.509 282.051 194.91 281.874C195.312 281.697 195.755 281.608 196.24 281.608C196.726 281.608 197.164 281.697 197.556 281.874C197.958 282.051 198.303 282.308 198.592 282.644C198.882 282.971 199.106 283.367 199.264 283.834C199.423 284.301 199.502 284.819 199.502 285.388C199.502 285.967 199.423 286.489 199.264 286.956C199.106 287.413 198.882 287.81 198.592 288.146C198.303 288.473 197.958 288.725 197.556 288.902C197.164 289.079 196.726 289.168 196.24 289.168ZM196.24 288.174C196.847 288.174 197.342 287.987 197.724 287.614C198.107 287.241 198.298 286.671 198.298 285.906V284.87C198.298 284.105 198.107 283.535 197.724 283.162C197.342 282.789 196.847 282.602 196.24 282.602C195.634 282.602 195.139 282.789 194.756 283.162C194.374 283.535 194.182 284.105 194.182 284.87V285.906C194.182 286.671 194.374 287.241 194.756 287.614C195.139 287.987 195.634 288.174 196.24 288.174ZM201.654 282.756H200.478V281.776H201.654V280.32C201.654 279.816 201.785 279.41 202.046 279.102C202.308 278.794 202.704 278.64 203.236 278.64H204.328V279.62H202.774V281.776H204.328V282.756H202.774V289H201.654V282.756ZM213.73 287.824H213.674C213.235 288.72 212.531 289.168 211.56 289.168C211.112 289.168 210.706 289.079 210.342 288.902C209.978 288.725 209.665 288.473 209.404 288.146C209.152 287.819 208.956 287.423 208.816 286.956C208.685 286.489 208.62 285.967 208.62 285.388C208.62 284.809 208.685 284.287 208.816 283.82C208.956 283.353 209.152 282.957 209.404 282.63C209.665 282.303 209.978 282.051 210.342 281.874C210.706 281.697 211.112 281.608 211.56 281.608C212.064 281.608 212.493 281.72 212.848 281.944C213.212 282.159 213.487 282.495 213.674 282.952H213.73V278.64H214.85V289H213.73V287.824ZM211.868 288.16C212.12 288.16 212.358 288.127 212.582 288.062C212.815 287.997 213.016 287.903 213.184 287.782C213.352 287.651 213.483 287.497 213.576 287.32C213.679 287.133 213.73 286.923 213.73 286.69V284.002C213.73 283.806 213.679 283.624 213.576 283.456C213.483 283.279 213.352 283.129 213.184 283.008C213.016 282.887 212.815 282.793 212.582 282.728C212.358 282.653 212.12 282.616 211.868 282.616C211.233 282.616 210.734 282.817 210.37 283.218C210.006 283.61 209.824 284.128 209.824 284.772V286.004C209.824 286.648 210.006 287.171 210.37 287.572C210.734 287.964 211.233 288.16 211.868 288.16ZM222.481 289C222.061 289 221.758 288.888 221.571 288.664C221.394 288.44 221.282 288.16 221.235 287.824H221.165C221.006 288.272 220.745 288.608 220.381 288.832C220.017 289.056 219.583 289.168 219.079 289.168C218.314 289.168 217.716 288.972 217.287 288.58C216.867 288.188 216.657 287.656 216.657 286.984C216.657 286.303 216.904 285.78 217.399 285.416C217.903 285.052 218.682 284.87 219.737 284.87H221.165V284.156C221.165 283.643 221.025 283.251 220.745 282.98C220.465 282.709 220.036 282.574 219.457 282.574C219.018 282.574 218.65 282.672 218.351 282.868C218.062 283.064 217.819 283.325 217.623 283.652L216.951 283.022C217.147 282.63 217.46 282.299 217.889 282.028C218.318 281.748 218.86 281.608 219.513 281.608C220.39 281.608 221.072 281.823 221.557 282.252C222.042 282.681 222.285 283.279 222.285 284.044V288.02H223.111V289H222.481ZM219.261 288.216C219.541 288.216 219.798 288.183 220.031 288.118C220.264 288.053 220.465 287.959 220.633 287.838C220.801 287.717 220.932 287.577 221.025 287.418C221.118 287.259 221.165 287.087 221.165 286.9V285.71H219.681C219.037 285.71 218.566 285.803 218.267 285.99C217.978 286.177 217.833 286.447 217.833 286.802V287.096C217.833 287.451 217.959 287.726 218.211 287.922C218.472 288.118 218.822 288.216 219.261 288.216ZM226.306 289C225.914 289 225.615 288.893 225.41 288.678C225.214 288.454 225.116 288.165 225.116 287.81V282.756H223.926V281.776H224.598C224.84 281.776 225.004 281.729 225.088 281.636C225.181 281.533 225.228 281.361 225.228 281.118V279.774H226.236V281.776H227.818V282.756H226.236V288.02H227.706V289H226.306ZM232.279 289.168C231.784 289.168 231.336 289.079 230.935 288.902C230.543 288.725 230.202 288.473 229.913 288.146C229.633 287.81 229.414 287.413 229.255 286.956C229.106 286.489 229.031 285.967 229.031 285.388C229.031 284.819 229.106 284.301 229.255 283.834C229.414 283.367 229.633 282.971 229.913 282.644C230.202 282.308 230.543 282.051 230.935 281.874C231.336 281.697 231.784 281.608 232.279 281.608C232.764 281.608 233.198 281.697 233.581 281.874C233.964 282.051 234.29 282.299 234.561 282.616C234.832 282.924 235.037 283.293 235.177 283.722C235.326 284.151 235.401 284.623 235.401 285.136V285.668H230.207V286.004C230.207 286.312 230.254 286.601 230.347 286.872C230.45 287.133 230.59 287.362 230.767 287.558C230.954 287.754 231.178 287.908 231.439 288.02C231.71 288.132 232.013 288.188 232.349 288.188C232.806 288.188 233.203 288.081 233.539 287.866C233.884 287.651 234.15 287.343 234.337 286.942L235.135 287.516C234.902 288.011 234.538 288.412 234.043 288.72C233.548 289.019 232.96 289.168 232.279 289.168ZM232.279 282.546C231.971 282.546 231.691 282.602 231.439 282.714C231.187 282.817 230.968 282.966 230.781 283.162C230.604 283.358 230.464 283.591 230.361 283.862C230.258 284.123 230.207 284.413 230.207 284.73V284.828H234.197V284.674C234.197 284.03 234.02 283.517 233.665 283.134C233.32 282.742 232.858 282.546 232.279 282.546ZM237.687 287.362C237.986 287.362 238.201 287.441 238.331 287.6C238.471 287.749 238.541 287.945 238.541 288.188V288.384C238.541 288.767 238.429 289.187 238.205 289.644C237.981 290.111 237.669 290.517 237.267 290.862H236.329C236.609 290.563 236.833 290.279 237.001 290.008C237.179 289.747 237.305 289.453 237.379 289.126C237.193 289.079 237.053 288.991 236.959 288.86C236.875 288.729 236.833 288.571 236.833 288.384V288.188C236.833 287.945 236.899 287.749 237.029 287.6C237.169 287.441 237.389 287.362 237.687 287.362ZM244.096 289V281.776H245.216V283.106H245.286C245.417 282.761 245.65 282.453 245.986 282.182C246.322 281.911 246.784 281.776 247.372 281.776H247.806V282.896H247.148C246.542 282.896 246.066 283.013 245.72 283.246C245.384 283.47 245.216 283.755 245.216 284.1V289H244.096ZM251.885 289.168C251.39 289.168 250.942 289.079 250.541 288.902C250.149 288.725 249.808 288.473 249.519 288.146C249.239 287.81 249.019 287.413 248.861 286.956C248.711 286.489 248.637 285.967 248.637 285.388C248.637 284.819 248.711 284.301 248.861 283.834C249.019 283.367 249.239 282.971 249.519 282.644C249.808 282.308 250.149 282.051 250.541 281.874C250.942 281.697 251.39 281.608 251.885 281.608C252.37 281.608 252.804 281.697 253.187 281.874C253.569 282.051 253.896 282.299 254.167 282.616C254.437 282.924 254.643 283.293 254.783 283.722C254.932 284.151 255.007 284.623 255.007 285.136V285.668H249.813V286.004C249.813 286.312 249.859 286.601 249.953 286.872C250.055 287.133 250.195 287.362 250.373 287.558C250.559 287.754 250.783 287.908 251.045 288.02C251.315 288.132 251.619 288.188 251.955 288.188C252.412 288.188 252.809 288.081 253.145 287.866C253.49 287.651 253.756 287.343 253.943 286.942L254.741 287.516C254.507 288.011 254.143 288.412 253.649 288.72C253.154 289.019 252.566 289.168 251.885 289.168ZM251.885 282.546C251.577 282.546 251.297 282.602 251.045 282.714C250.793 282.817 250.573 282.966 250.387 283.162C250.209 283.358 250.069 283.591 249.967 283.862C249.864 284.123 249.813 284.413 249.813 284.73V284.828H253.803V284.674C253.803 284.03 253.625 283.517 253.271 283.134C252.925 282.742 252.463 282.546 251.885 282.546ZM256.852 289V281.776H257.972V282.952H258.028C258.112 282.765 258.205 282.593 258.308 282.434C258.42 282.266 258.551 282.121 258.7 282C258.859 281.879 259.041 281.785 259.246 281.72C259.451 281.645 259.694 281.608 259.974 281.608C260.45 281.608 260.889 281.725 261.29 281.958C261.691 282.182 261.99 282.555 262.186 283.078H262.214C262.345 282.686 262.587 282.345 262.942 282.056C263.306 281.757 263.796 281.608 264.412 281.608C265.149 281.608 265.723 281.851 266.134 282.336C266.554 282.812 266.764 283.489 266.764 284.366V289H265.644V284.562C265.644 283.918 265.518 283.433 265.266 283.106C265.014 282.779 264.613 282.616 264.062 282.616C263.838 282.616 263.623 282.644 263.418 282.7C263.222 282.756 263.045 282.84 262.886 282.952C262.727 283.064 262.601 283.209 262.508 283.386C262.415 283.554 262.368 283.755 262.368 283.988V289H261.248V284.562C261.248 283.918 261.122 283.433 260.87 283.106C260.618 282.779 260.226 282.616 259.694 282.616C259.47 282.616 259.255 282.644 259.05 282.7C258.845 282.756 258.663 282.84 258.504 282.952C258.345 283.064 258.215 283.209 258.112 283.386C258.019 283.554 257.972 283.755 257.972 283.988V289H256.852ZM271.805 289.168C271.319 289.168 270.876 289.079 270.475 288.902C270.073 288.725 269.728 288.473 269.439 288.146C269.159 287.81 268.939 287.413 268.781 286.956C268.622 286.489 268.543 285.967 268.543 285.388C268.543 284.819 268.622 284.301 268.781 283.834C268.939 283.367 269.159 282.971 269.439 282.644C269.728 282.308 270.073 282.051 270.475 281.874C270.876 281.697 271.319 281.608 271.805 281.608C272.29 281.608 272.729 281.697 273.121 281.874C273.522 282.051 273.867 282.308 274.157 282.644C274.446 282.971 274.67 283.367 274.829 283.834C274.987 284.301 275.067 284.819 275.067 285.388C275.067 285.967 274.987 286.489 274.829 286.956C274.67 287.413 274.446 287.81 274.157 288.146C273.867 288.473 273.522 288.725 273.121 288.902C272.729 289.079 272.29 289.168 271.805 289.168ZM271.805 288.174C272.411 288.174 272.906 287.987 273.289 287.614C273.671 287.241 273.863 286.671 273.863 285.906V284.87C273.863 284.105 273.671 283.535 273.289 283.162C272.906 282.789 272.411 282.602 271.805 282.602C271.198 282.602 270.703 282.789 270.321 283.162C269.938 283.535 269.747 284.105 269.747 284.87V285.906C269.747 286.671 269.938 287.241 270.321 287.614C270.703 287.987 271.198 288.174 271.805 288.174ZM278.395 289L275.861 281.776H276.981L278.241 285.36L279.025 287.824H279.095L279.879 285.36L281.167 281.776H282.245L279.697 289H278.395ZM286.297 289.168C285.802 289.168 285.354 289.079 284.953 288.902C284.561 288.725 284.22 288.473 283.931 288.146C283.651 287.81 283.431 287.413 283.273 286.956C283.123 286.489 283.049 285.967 283.049 285.388C283.049 284.819 283.123 284.301 283.273 283.834C283.431 283.367 283.651 282.971 283.931 282.644C284.22 282.308 284.561 282.051 284.953 281.874C285.354 281.697 285.802 281.608 286.297 281.608C286.782 281.608 287.216 281.697 287.599 281.874C287.981 282.051 288.308 282.299 288.579 282.616C288.849 282.924 289.055 283.293 289.195 283.722C289.344 284.151 289.419 284.623 289.419 285.136V285.668H284.225V286.004C284.225 286.312 284.271 286.601 284.365 286.872C284.467 287.133 284.607 287.362 284.785 287.558C284.971 287.754 285.195 287.908 285.457 288.02C285.727 288.132 286.031 288.188 286.367 288.188C286.824 288.188 287.221 288.081 287.557 287.866C287.902 287.651 288.168 287.343 288.355 286.942L289.153 287.516C288.919 288.011 288.555 288.412 288.061 288.72C287.566 289.019 286.978 289.168 286.297 289.168ZM286.297 282.546C285.989 282.546 285.709 282.602 285.457 282.714C285.205 282.817 284.985 282.966 284.799 283.162C284.621 283.358 284.481 283.591 284.379 283.862C284.276 284.123 284.225 284.413 284.225 284.73V284.828H288.215V284.674C288.215 284.03 288.037 283.517 287.683 283.134C287.337 282.742 286.875 282.546 286.297 282.546ZM295.884 287.824H295.828C295.39 288.72 294.685 289.168 293.714 289.168C293.266 289.168 292.86 289.079 292.496 288.902C292.132 288.725 291.82 288.473 291.558 288.146C291.306 287.819 291.11 287.423 290.97 286.956C290.84 286.489 290.774 285.967 290.774 285.388C290.774 284.809 290.84 284.287 290.97 283.82C291.11 283.353 291.306 282.957 291.558 282.63C291.82 282.303 292.132 282.051 292.496 281.874C292.86 281.697 293.266 281.608 293.714 281.608C294.218 281.608 294.648 281.72 295.002 281.944C295.366 282.159 295.642 282.495 295.828 282.952H295.884V278.64H297.004V289H295.884V287.824ZM294.022 288.16C294.274 288.16 294.512 288.127 294.736 288.062C294.97 287.997 295.17 287.903 295.338 287.782C295.506 287.651 295.637 287.497 295.73 287.32C295.833 287.133 295.884 286.923 295.884 286.69V284.002C295.884 283.806 295.833 283.624 295.73 283.456C295.637 283.279 295.506 283.129 295.338 283.008C295.17 282.887 294.97 282.793 294.736 282.728C294.512 282.653 294.274 282.616 294.022 282.616C293.388 282.616 292.888 282.817 292.524 283.218C292.16 283.61 291.978 284.128 291.978 284.772V286.004C291.978 286.648 292.16 287.171 292.524 287.572C292.888 287.964 293.388 288.16 294.022 288.16ZM300.099 287.362C300.398 287.362 300.613 287.441 300.743 287.6C300.883 287.749 300.953 287.945 300.953 288.188V288.384C300.953 288.767 300.841 289.187 300.617 289.644C300.393 290.111 300.081 290.517 299.679 290.862H298.741C299.021 290.563 299.245 290.279 299.413 290.008C299.591 289.747 299.717 289.453 299.791 289.126C299.605 289.079 299.465 288.991 299.371 288.86C299.287 288.729 299.245 288.571 299.245 288.384V288.188C299.245 287.945 299.311 287.749 299.441 287.6C299.581 287.441 299.801 287.362 300.099 287.362ZM309.238 289.168C308.753 289.168 308.31 289.079 307.908 288.902C307.507 288.725 307.162 288.473 306.872 288.146C306.592 287.81 306.373 287.413 306.214 286.956C306.056 286.489 305.976 285.967 305.976 285.388C305.976 284.819 306.056 284.301 306.214 283.834C306.373 283.367 306.592 282.971 306.872 282.644C307.162 282.308 307.507 282.051 307.908 281.874C308.31 281.697 308.753 281.608 309.238 281.608C309.724 281.608 310.162 281.697 310.554 281.874C310.956 282.051 311.301 282.308 311.59 282.644C311.88 282.971 312.104 283.367 312.262 283.834C312.421 284.301 312.5 284.819 312.5 285.388C312.5 285.967 312.421 286.489 312.262 286.956C312.104 287.413 311.88 287.81 311.59 288.146C311.301 288.473 310.956 288.725 310.554 288.902C310.162 289.079 309.724 289.168 309.238 289.168ZM309.238 288.174C309.845 288.174 310.34 287.987 310.722 287.614C311.105 287.241 311.296 286.671 311.296 285.906V284.87C311.296 284.105 311.105 283.535 310.722 283.162C310.34 282.789 309.845 282.602 309.238 282.602C308.632 282.602 308.137 282.789 307.754 283.162C307.372 283.535 307.18 284.105 307.18 284.87V285.906C307.18 286.671 307.372 287.241 307.754 287.614C308.137 287.987 308.632 288.174 309.238 288.174ZM314.342 289V281.776H315.462V283.106H315.532C315.663 282.761 315.896 282.453 316.232 282.182C316.568 281.911 317.03 281.776 317.618 281.776H318.052V282.896H317.394C316.788 282.896 316.312 283.013 315.966 283.246C315.63 283.47 315.462 283.755 315.462 284.1V289H314.342ZM328.042 289C327.622 289 327.318 288.888 327.132 288.664C326.954 288.44 326.842 288.16 326.796 287.824H326.726C326.567 288.272 326.306 288.608 325.942 288.832C325.578 289.056 325.144 289.168 324.64 289.168C323.874 289.168 323.277 288.972 322.848 288.58C322.428 288.188 322.218 287.656 322.218 286.984C322.218 286.303 322.465 285.78 322.96 285.416C323.464 285.052 324.243 284.87 325.298 284.87H326.726V284.156C326.726 283.643 326.586 283.251 326.306 282.98C326.026 282.709 325.596 282.574 325.018 282.574C324.579 282.574 324.21 282.672 323.912 282.868C323.622 283.064 323.38 283.325 323.184 283.652L322.512 283.022C322.708 282.63 323.02 282.299 323.45 282.028C323.879 281.748 324.42 281.608 325.074 281.608C325.951 281.608 326.632 281.823 327.118 282.252C327.603 282.681 327.846 283.279 327.846 284.044V288.02H328.672V289H328.042ZM324.822 288.216C325.102 288.216 325.358 288.183 325.592 288.118C325.825 288.053 326.026 287.959 326.194 287.838C326.362 287.717 326.492 287.577 326.586 287.418C326.679 287.259 326.726 287.087 326.726 286.9V285.71H325.242C324.598 285.71 324.126 285.803 323.828 285.99C323.538 286.177 323.394 286.447 323.394 286.802V287.096C323.394 287.451 323.52 287.726 323.772 287.922C324.033 288.118 324.383 288.216 324.822 288.216ZM330.27 289V281.776H331.39V282.952H331.446C331.623 282.541 331.871 282.215 332.188 281.972C332.515 281.729 332.949 281.608 333.49 281.608C334.237 281.608 334.825 281.851 335.254 282.336C335.693 282.812 335.912 283.489 335.912 284.366V289H334.792V284.562C334.792 283.265 334.246 282.616 333.154 282.616C332.93 282.616 332.711 282.644 332.496 282.7C332.291 282.756 332.104 282.84 331.936 282.952C331.768 283.064 331.633 283.209 331.53 283.386C331.437 283.554 331.39 283.755 331.39 283.988V289H330.27ZM342.096 280.082C341.853 280.082 341.676 280.026 341.564 279.914C341.461 279.793 341.41 279.639 341.41 279.452V279.27C341.41 279.083 341.461 278.934 341.564 278.822C341.676 278.701 341.853 278.64 342.096 278.64C342.338 278.64 342.511 278.701 342.614 278.822C342.726 278.934 342.782 279.083 342.782 279.27V279.452C342.782 279.639 342.726 279.793 342.614 279.914C342.511 280.026 342.338 280.082 342.096 280.082ZM341.536 281.776H342.656V289H341.536V281.776ZM345.036 289V281.776H346.156V282.952H346.212C346.389 282.541 346.636 282.215 346.954 281.972C347.28 281.729 347.714 281.608 348.256 281.608C349.002 281.608 349.59 281.851 350.02 282.336C350.458 282.812 350.678 283.489 350.678 284.366V289H349.558V284.562C349.558 283.265 349.012 282.616 347.92 282.616C347.696 282.616 347.476 282.644 347.262 282.7C347.056 282.756 346.87 282.84 346.702 282.952C346.534 283.064 346.398 283.209 346.296 283.386C346.202 283.554 346.156 283.755 346.156 283.988V289H345.036ZM354.479 289L351.945 281.776H353.065L354.325 285.36L355.109 287.824H355.179L355.963 285.36L357.251 281.776H358.329L355.781 289H354.479ZM364.901 289C364.481 289 364.178 288.888 363.991 288.664C363.814 288.44 363.702 288.16 363.655 287.824H363.585C363.426 288.272 363.165 288.608 362.801 288.832C362.437 289.056 362.003 289.168 361.499 289.168C360.734 289.168 360.136 288.972 359.707 288.58C359.287 288.188 359.077 287.656 359.077 286.984C359.077 286.303 359.324 285.78 359.819 285.416C360.323 285.052 361.102 284.87 362.157 284.87H363.585V284.156C363.585 283.643 363.445 283.251 363.165 282.98C362.885 282.709 362.456 282.574 361.877 282.574C361.438 282.574 361.07 282.672 360.771 282.868C360.482 283.064 360.239 283.325 360.043 283.652L359.371 283.022C359.567 282.63 359.88 282.299 360.309 282.028C360.738 281.748 361.28 281.608 361.933 281.608C362.81 281.608 363.492 281.823 363.977 282.252C364.462 282.681 364.705 283.279 364.705 284.044V288.02H365.531V289H364.901ZM361.681 288.216C361.961 288.216 362.218 288.183 362.451 288.118C362.684 288.053 362.885 287.959 363.053 287.838C363.221 287.717 363.352 287.577 363.445 287.418C363.538 287.259 363.585 287.087 363.585 286.9V285.71H362.101C361.457 285.71 360.986 285.803 360.687 285.99C360.398 286.177 360.253 286.447 360.253 286.802V287.096C360.253 287.451 360.379 287.726 360.631 287.922C360.892 288.118 361.242 288.216 361.681 288.216ZM368.319 289C367.927 289 367.629 288.893 367.423 288.678C367.227 288.454 367.129 288.174 367.129 287.838V278.64H368.249V288.02H369.313V289H368.319ZM371.504 280.082C371.261 280.082 371.084 280.026 370.972 279.914C370.869 279.793 370.818 279.639 370.818 279.452V279.27C370.818 279.083 370.869 278.934 370.972 278.822C371.084 278.701 371.261 278.64 371.504 278.64C371.747 278.64 371.919 278.701 372.022 278.822C372.134 278.934 372.19 279.083 372.19 279.27V279.452C372.19 279.639 372.134 279.793 372.022 279.914C371.919 280.026 371.747 280.082 371.504 280.082ZM370.944 281.776H372.064V289H370.944V281.776ZM379.064 287.824H379.008C378.569 288.72 377.865 289.168 376.894 289.168C376.446 289.168 376.04 289.079 375.676 288.902C375.312 288.725 374.999 288.473 374.738 288.146C374.486 287.819 374.29 287.423 374.15 286.956C374.019 286.489 373.954 285.967 373.954 285.388C373.954 284.809 374.019 284.287 374.15 283.82C374.29 283.353 374.486 282.957 374.738 282.63C374.999 282.303 375.312 282.051 375.676 281.874C376.04 281.697 376.446 281.608 376.894 281.608C377.398 281.608 377.827 281.72 378.182 281.944C378.546 282.159 378.821 282.495 379.008 282.952H379.064V278.64H380.184V289H379.064V287.824ZM377.202 288.16C377.454 288.16 377.692 288.127 377.916 288.062C378.149 287.997 378.35 287.903 378.518 287.782C378.686 287.651 378.817 287.497 378.91 287.32C379.013 287.133 379.064 286.923 379.064 286.69V284.002C379.064 283.806 379.013 283.624 378.91 283.456C378.817 283.279 378.686 283.129 378.518 283.008C378.35 282.887 378.149 282.793 377.916 282.728C377.692 282.653 377.454 282.616 377.202 282.616C376.567 282.616 376.068 282.817 375.704 283.218C375.34 283.61 375.158 284.128 375.158 284.772V286.004C375.158 286.648 375.34 287.171 375.704 287.572C376.068 287.964 376.567 288.16 377.202 288.16ZM387.092 279.228V285.276C387.092 286.209 387.264 286.919 387.61 287.404C387.955 287.88 388.562 288.118 389.43 288.118C390.298 288.118 390.904 287.88 391.25 287.404C391.595 286.919 391.768 286.209 391.768 285.276V279.228H392.944V284.996C392.944 285.705 392.878 286.321 392.748 286.844C392.626 287.367 392.426 287.801 392.146 288.146C391.866 288.491 391.497 288.748 391.04 288.916C390.592 289.084 390.041 289.168 389.388 289.168C388.734 289.168 388.184 289.084 387.736 288.916C387.297 288.748 386.942 288.491 386.672 288.146C386.401 287.801 386.205 287.367 386.084 286.844C385.972 286.321 385.916 285.705 385.916 284.996V279.228H387.092ZM396.65 289H395.474V279.228H399.366C400.225 279.228 400.892 279.466 401.368 279.942C401.853 280.418 402.096 281.104 402.096 282C402.096 282.719 401.928 283.311 401.592 283.778C401.265 284.235 400.78 284.539 400.136 284.688L402.376 289H401.046L398.932 284.8H396.65V289ZM399.366 283.792C399.833 283.792 400.192 283.671 400.444 283.428C400.705 283.185 400.836 282.84 400.836 282.392V281.664C400.836 281.216 400.705 280.871 400.444 280.628C400.192 280.385 399.833 280.264 399.366 280.264H396.65V283.792H399.366ZM404.429 289V279.228H405.605V287.964H409.763V289H404.429ZM413.883 281.776H414.975L415.745 284.898L416.515 288.062H416.543L417.425 284.898L418.335 281.776H419.329L420.267 284.898L421.163 288.062H421.191L421.933 284.898L422.717 281.776H423.767L421.849 289H420.463L419.455 285.528L418.825 283.33H418.797L418.181 285.528L417.173 289H415.815L413.883 281.776ZM430.512 289C430.092 289 429.789 288.888 429.602 288.664C429.425 288.44 429.313 288.16 429.266 287.824H429.196C429.038 288.272 428.776 288.608 428.412 288.832C428.048 289.056 427.614 289.168 427.11 289.168C426.345 289.168 425.748 288.972 425.318 288.58C424.898 288.188 424.688 287.656 424.688 286.984C424.688 286.303 424.936 285.78 425.43 285.416C425.934 285.052 426.714 284.87 427.768 284.87H429.196V284.156C429.196 283.643 429.056 283.251 428.776 282.98C428.496 282.709 428.067 282.574 427.488 282.574C427.05 282.574 426.681 282.672 426.382 282.868C426.093 283.064 425.85 283.325 425.654 283.652L424.982 283.022C425.178 282.63 425.491 282.299 425.92 282.028C426.35 281.748 426.891 281.608 427.544 281.608C428.422 281.608 429.103 281.823 429.588 282.252C430.074 282.681 430.316 283.279 430.316 284.044V288.02H431.142V289H430.512ZM427.292 288.216C427.572 288.216 427.829 288.183 428.062 288.118C428.296 288.053 428.496 287.959 428.664 287.838C428.832 287.717 428.963 287.577 429.056 287.418C429.15 287.259 429.196 287.087 429.196 286.9V285.71H427.712C427.068 285.71 426.597 285.803 426.298 285.99C426.009 286.177 425.864 286.447 425.864 286.802V287.096C425.864 287.451 425.99 287.726 426.242 287.922C426.504 288.118 426.854 288.216 427.292 288.216ZM434.911 289.168C434.239 289.168 433.674 289.042 433.217 288.79C432.769 288.529 432.381 288.183 432.055 287.754L432.853 287.11C433.133 287.465 433.445 287.74 433.791 287.936C434.136 288.123 434.537 288.216 434.995 288.216C435.471 288.216 435.839 288.113 436.101 287.908C436.371 287.703 436.507 287.413 436.507 287.04C436.507 286.76 436.413 286.522 436.227 286.326C436.049 286.121 435.723 285.981 435.247 285.906L434.673 285.822C434.337 285.775 434.029 285.705 433.749 285.612C433.469 285.509 433.221 285.379 433.007 285.22C432.801 285.052 432.638 284.847 432.517 284.604C432.405 284.361 432.349 284.072 432.349 283.736C432.349 283.381 432.414 283.073 432.545 282.812C432.675 282.541 432.853 282.317 433.077 282.14C433.31 281.963 433.585 281.832 433.903 281.748C434.22 281.655 434.561 281.608 434.925 281.608C435.513 281.608 436.003 281.711 436.395 281.916C436.796 282.121 437.146 282.406 437.445 282.77L436.703 283.442C436.544 283.218 436.311 283.017 436.003 282.84C435.695 282.653 435.307 282.56 434.841 282.56C434.374 282.56 434.019 282.663 433.777 282.868C433.543 283.064 433.427 283.335 433.427 283.68C433.427 284.035 433.543 284.291 433.777 284.45C434.019 284.609 434.365 284.725 434.813 284.8L435.373 284.884C436.175 285.005 436.745 285.239 437.081 285.584C437.417 285.92 437.585 286.363 437.585 286.914C437.585 287.614 437.347 288.165 436.871 288.566C436.395 288.967 435.741 289.168 434.911 289.168ZM445.588 289.168C445.093 289.168 444.645 289.079 444.244 288.902C443.852 288.725 443.511 288.473 443.222 288.146C442.942 287.81 442.722 287.413 442.564 286.956C442.414 286.489 442.34 285.967 442.34 285.388C442.34 284.819 442.414 284.301 442.564 283.834C442.722 283.367 442.942 282.971 443.222 282.644C443.511 282.308 443.852 282.051 444.244 281.874C444.645 281.697 445.093 281.608 445.588 281.608C446.073 281.608 446.507 281.697 446.89 281.874C447.272 282.051 447.599 282.299 447.87 282.616C448.14 282.924 448.346 283.293 448.486 283.722C448.635 284.151 448.71 284.623 448.71 285.136V285.668H443.516V286.004C443.516 286.312 443.562 286.601 443.656 286.872C443.758 287.133 443.898 287.362 444.076 287.558C444.262 287.754 444.486 287.908 444.748 288.02C445.018 288.132 445.322 288.188 445.658 288.188C446.115 288.188 446.512 288.081 446.848 287.866C447.193 287.651 447.459 287.343 447.646 286.942L448.444 287.516C448.21 288.011 447.846 288.412 447.352 288.72C446.857 289.019 446.269 289.168 445.588 289.168ZM445.588 282.546C445.28 282.546 445 282.602 444.748 282.714C444.496 282.817 444.276 282.966 444.09 283.162C443.912 283.358 443.772 283.591 443.67 283.862C443.567 284.123 443.516 284.413 443.516 284.73V284.828H447.506V284.674C447.506 284.03 447.328 283.517 446.974 283.134C446.628 282.742 446.166 282.546 445.588 282.546ZM450.555 289V281.776H451.675V282.952H451.731C451.909 282.541 452.156 282.215 452.473 281.972C452.8 281.729 453.234 281.608 453.775 281.608C454.522 281.608 455.11 281.851 455.539 282.336C455.978 282.812 456.197 283.489 456.197 284.366V289H455.077V284.562C455.077 283.265 454.531 282.616 453.439 282.616C453.215 282.616 452.996 282.644 452.781 282.7C452.576 282.756 452.389 282.84 452.221 282.952C452.053 283.064 451.918 283.209 451.815 283.386C451.722 283.554 451.675 283.755 451.675 283.988V289H450.555ZM460.108 289C459.716 289 459.418 288.893 459.212 288.678C459.016 288.454 458.918 288.165 458.918 287.81V282.756H457.728V281.776H458.4C458.643 281.776 458.806 281.729 458.89 281.636C458.984 281.533 459.03 281.361 459.03 281.118V279.774H460.038V281.776H461.62V282.756H460.038V288.02H461.508V289H460.108ZM466.082 289.168C465.587 289.168 465.139 289.079 464.738 288.902C464.346 288.725 464.005 288.473 463.716 288.146C463.436 287.81 463.216 287.413 463.058 286.956C462.908 286.489 462.834 285.967 462.834 285.388C462.834 284.819 462.908 284.301 463.058 283.834C463.216 283.367 463.436 282.971 463.716 282.644C464.005 282.308 464.346 282.051 464.738 281.874C465.139 281.697 465.587 281.608 466.082 281.608C466.567 281.608 467.001 281.697 467.384 281.874C467.766 282.051 468.093 282.299 468.364 282.616C468.634 282.924 468.84 283.293 468.98 283.722C469.129 284.151 469.204 284.623 469.204 285.136V285.668H464.01V286.004C464.01 286.312 464.056 286.601 464.15 286.872C464.252 287.133 464.392 287.362 464.57 287.558C464.756 287.754 464.98 287.908 465.242 288.02C465.512 288.132 465.816 288.188 466.152 288.188C466.609 288.188 467.006 288.081 467.342 287.866C467.687 287.651 467.953 287.343 468.14 286.942L468.938 287.516C468.704 288.011 468.34 288.412 467.846 288.72C467.351 289.019 466.763 289.168 466.082 289.168ZM466.082 282.546C465.774 282.546 465.494 282.602 465.242 282.714C464.99 282.817 464.77 282.966 464.584 283.162C464.406 283.358 464.266 283.591 464.164 283.862C464.061 284.123 464.01 284.413 464.01 284.73V284.828H468V284.674C468 284.03 467.822 283.517 467.468 283.134C467.122 282.742 466.66 282.546 466.082 282.546ZM471.049 289V281.776H472.169V283.106H472.239C472.37 282.761 472.603 282.453 472.939 282.182C473.275 281.911 473.737 281.776 474.325 281.776H474.759V282.896H474.101C473.495 282.896 473.019 283.013 472.673 283.246C472.337 283.47 472.169 283.755 472.169 284.1V289H471.049ZM478.838 289.168C478.343 289.168 477.895 289.079 477.494 288.902C477.102 288.725 476.761 288.473 476.472 288.146C476.192 287.81 475.972 287.413 475.814 286.956C475.664 286.489 475.59 285.967 475.59 285.388C475.59 284.819 475.664 284.301 475.814 283.834C475.972 283.367 476.192 282.971 476.472 282.644C476.761 282.308 477.102 282.051 477.494 281.874C477.895 281.697 478.343 281.608 478.838 281.608C479.323 281.608 479.757 281.697 480.14 281.874C480.522 282.051 480.849 282.299 481.12 282.616C481.39 282.924 481.596 283.293 481.736 283.722C481.885 284.151 481.96 284.623 481.96 285.136V285.668H476.766V286.004C476.766 286.312 476.812 286.601 476.906 286.872C477.008 287.133 477.148 287.362 477.326 287.558C477.512 287.754 477.736 287.908 477.998 288.02C478.268 288.132 478.572 288.188 478.908 288.188C479.365 288.188 479.762 288.081 480.098 287.866C480.443 287.651 480.709 287.343 480.896 286.942L481.694 287.516C481.46 288.011 481.096 288.412 480.602 288.72C480.107 289.019 479.519 289.168 478.838 289.168ZM478.838 282.546C478.53 282.546 478.25 282.602 477.998 282.714C477.746 282.817 477.526 282.966 477.34 283.162C477.162 283.358 477.022 283.591 476.92 283.862C476.817 284.123 476.766 284.413 476.766 284.73V284.828H480.756V284.674C480.756 284.03 480.578 283.517 480.224 283.134C479.878 282.742 479.416 282.546 478.838 282.546ZM488.425 287.824H488.369C487.931 288.72 487.226 289.168 486.255 289.168C485.807 289.168 485.401 289.079 485.037 288.902C484.673 288.725 484.361 288.473 484.099 288.146C483.847 287.819 483.651 287.423 483.511 286.956C483.381 286.489 483.315 285.967 483.315 285.388C483.315 284.809 483.381 284.287 483.511 283.82C483.651 283.353 483.847 282.957 484.099 282.63C484.361 282.303 484.673 282.051 485.037 281.874C485.401 281.697 485.807 281.608 486.255 281.608C486.759 281.608 487.189 281.72 487.543 281.944C487.907 282.159 488.183 282.495 488.369 282.952H488.425V278.64H489.545V289H488.425V287.824ZM486.563 288.16C486.815 288.16 487.053 288.127 487.277 288.062C487.511 287.997 487.711 287.903 487.879 287.782C488.047 287.651 488.178 287.497 488.271 287.32C488.374 287.133 488.425 286.923 488.425 286.69V284.002C488.425 283.806 488.374 283.624 488.271 283.456C488.178 283.279 488.047 283.129 487.879 283.008C487.711 282.887 487.511 282.793 487.277 282.728C487.053 282.653 486.815 282.616 486.563 282.616C485.929 282.616 485.429 282.817 485.065 283.218C484.701 283.61 484.519 284.128 484.519 284.772V286.004C484.519 286.648 484.701 287.171 485.065 287.572C485.429 287.964 485.929 288.16 486.563 288.16ZM492.64 289.168C492.342 289.168 492.122 289.093 491.982 288.944C491.852 288.795 491.786 288.599 491.786 288.356V288.174C491.786 287.931 491.852 287.735 491.982 287.586C492.122 287.437 492.342 287.362 492.64 287.362C492.939 287.362 493.154 287.437 493.284 287.586C493.424 287.735 493.494 287.931 493.494 288.174V288.356C493.494 288.599 493.424 288.795 493.284 288.944C493.154 289.093 492.939 289.168 492.64 289.168Z" fill="white" fill-opacity="0.8"/>
<defs>
<filter id="filter0_d_6043_36178" x="32.5138" y="0" width="534.973" height="180" filterUnits="userSpaceOnUse" color-interpolation-filters="sRGB">
<feFlood flood-opacity="0" result="BackgroundImageFix"/>
<feColorMatrix in="SourceAlpha" type="matrix" values="0 0 0 0 0 0 0 0 0 0 0 0 0 0 0 0 0 0 127 0" result="hardAlpha"/>
<feOffset dy="2"/>
<feGaussianBlur stdDeviation="4"/>
<feColorMatrix type="matrix" values="0 0 0 0 0.141176 0 0 0 0 0.133333 0 0 0 0 0.239216 0 0 0 0.12 0"/>
<feBlend mode="normal" in2="BackgroundImageFix" result="effect1_dropShadow_6043_36178"/>
<feBlend mode="normal" in="SourceGraphic" in2="effect1_dropShadow_6043_36178" result="shape"/>
</filter>
<linearGradient id="paint0_linear_6043_36178" x1="300" y1="6" x2="299.898" y2="170" gradientUnits="userSpaceOnUse">
<stop stop-color="white" stop-opacity="0.28"/>
<stop offset="1" stop-color="white" stop-opacity="0.16"/>
</linearGradient>
<linearGradient id="paint1_linear_6043_36178" x1="300" y1="6" x2="299.898" y2="170" gradientUnits="userSpaceOnUse">
<stop stop-color="white" stop-opacity="0.28"/>
<stop offset="1" stop-color="white" stop-opacity="0.16"/>
</linearGradient>
<linearGradient id="paint2_linear_6043_36178" x1="300" y1="6" x2="299.898" y2="170" gradientUnits="userSpaceOnUse">
<stop stop-color="white" stop-opacity="0.28"/>
<stop offset="1" stop-color="white" stop-opacity="0.16"/>
</linearGradient>
<linearGradient id="paint3_linear_6043_36178" x1="391.715" y1="6.00001" x2="359.755" y2="186.882" gradientUnits="userSpaceOnUse">
<stop stop-color="white" stop-opacity="0.32"/>
<stop offset="1" stop-color="white" stop-opacity="0.16"/>
</linearGradient>
</defs>
</svg>
