<svg width="650" height="362" viewBox="0 0 650 362" fill="none" xmlns="http://www.w3.org/2000/svg">
<g filter="url(#filter0_d_6043_35397)">
<path d="M130.278 10.4828L8.55347 148.069V167.379H159.933V201.172H178.898V167.379H201.657V149.793H178.898V10.4828H130.278ZM138.209 27.3793H159.933V149.793H30.6224L138.209 27.3793Z" fill="url(#paint0_linear_6043_35397)"/>
<path d="M245.482 106C245.482 53.5862 281.689 23.931 325.138 23.931C368.586 23.931 404.793 53.5862 404.793 106C404.793 158.414 368.586 188.069 325.138 188.069C281.689 188.069 245.482 158.414 245.482 106ZM424.103 106C424.103 45.3103 381 6 325.138 6C269.275 6 226.172 45.3103 226.172 106C226.172 166.69 269.275 206 325.138 206C381 206 424.103 166.69 424.103 106Z" fill="url(#paint1_linear_6043_35397)"/>
<path d="M570.067 10.4828L448.343 148.069V167.379H599.723V201.172H618.688V167.379H641.447V149.793H618.688V10.4828H570.067ZM577.999 27.3793H599.723V149.793H470.412L577.999 27.3793Z" fill="url(#paint2_linear_6043_35397)"/>
<path d="M160.433 167.379V166.879H159.933H9.05347V148.258L130.503 10.9828H178.398V149.793V150.293H178.898H201.157V166.879H178.898H178.398V167.379V200.672H160.433V167.379ZM138.209 26.8793H137.982L137.833 27.0492L30.2469 149.463L29.5173 150.293H30.6224H159.933H160.433V149.793V27.3793V26.8793H159.933H138.209ZM600.223 167.379V166.879H599.723H448.843V148.258L570.293 10.9828H618.188V149.793V150.293H618.688H640.947V166.879H618.688H618.188V167.379V200.672H600.223V167.379ZM577.999 26.8793H577.772L577.623 27.0492L470.037 149.463L469.307 150.293H470.412H599.723H600.223V149.793V27.3793V26.8793H599.723H577.999ZM325.138 23.431C303.3 23.431 283.257 30.8846 268.67 44.9504C254.079 59.0201 244.982 79.6723 244.982 106C244.982 132.328 254.079 152.98 268.67 167.05C283.257 181.115 303.3 188.569 325.138 188.569C346.975 188.569 367.018 181.115 381.605 167.05C396.196 152.98 405.293 132.328 405.293 106C405.293 79.6723 396.196 59.0201 381.605 44.9504C367.018 30.8846 346.975 23.431 325.138 23.431ZM325.138 6.5C352.95 6.5 377.562 16.2843 395.218 33.5984C412.873 50.9106 423.603 75.7782 423.603 106C423.603 136.222 412.873 161.089 395.218 178.402C377.562 195.716 352.95 205.5 325.138 205.5C297.325 205.5 272.713 195.716 255.057 178.402C237.402 161.089 226.672 136.222 226.672 106C226.672 75.7782 237.402 50.9106 255.057 33.5984C272.713 16.2843 297.325 6.5 325.138 6.5Z" stroke="url(#paint3_linear_6043_35397)"/>
</g>
<path d="M60.5201 251.888C55.9281 248.92 51.6721 248.304 46.2961 248.304C38.7921 248.304 32.4641 250.936 32.4641 256.928C32.4641 262.024 36.2161 264.04 41.8161 264.656L51.5601 265.72C56.2641 266.224 58.8961 267.904 58.8961 271.488C58.8961 275.8 54.6401 277.984 47.6961 277.984C41.6481 277.984 37.7841 277.032 33.3601 274.12L31.7361 276.696C36.2721 279.664 40.8081 280.784 46.8001 280.784C56.0961 280.784 61.9761 277.872 61.9761 271.376C61.9761 266.448 58.3361 263.592 52.2881 262.864L42.1521 261.632C38.1201 261.184 35.5441 260.176 35.5441 256.872C35.5441 253.848 37.8961 251.104 46.2961 251.104C51.5601 251.104 55.1441 252.112 59.0081 254.24L60.5201 251.888ZM69.5987 264.544C69.6547 256.032 75.7587 251.216 83.6547 251.216C91.5507 251.216 97.7107 256.032 97.7107 264.544C97.7107 273.056 91.5507 277.872 83.6547 277.872C75.7587 277.872 69.6547 273.056 69.5987 264.544ZM100.847 264.544C100.847 254.688 93.5667 248.304 83.6547 248.304C73.7427 248.304 66.4627 254.688 66.4627 264.544C66.4627 274.4 73.7427 280.784 83.6547 280.784C93.5667 280.784 100.847 274.4 100.847 264.544ZM106.465 249.032V280H109.545V251.72H110.665L125.449 280H129.033L143.257 251.72H144.377V280H147.513V249.032H141.297L127.465 276.976H127.129L112.737 249.032H106.465ZM154.208 249.032V280H182.04V277.144H157.344V265.496H178.736V262.64H157.344V251.888H181.144V249.032H154.208ZM186.543 249.032V251.944H200.823V280H203.959V251.944H218.239V249.032H186.543ZM223.278 249.032V280H226.414V265.328H250.942V280H254.078V249.032H250.942V262.416H226.414V249.032H223.278ZM260.794 249.032V280H263.93V249.032H260.794ZM270.637 249.032V280H273.717V252.56L298.133 280H302.109V249.032H299.029V276.36L274.557 249.032H270.637ZM328.633 263.144V265.72L337.425 266.056V272.552C334.457 276.08 330.593 277.872 324.601 277.872C316.705 277.872 310.881 272.216 310.881 264.488C310.881 256.536 316.257 251.216 324.601 251.216C330.089 251.216 334.233 253.12 336.921 256.48L339.441 254.968C336.137 250.656 331.545 248.304 324.769 248.304C315.081 248.304 307.689 254.408 307.689 264.488C307.689 274.568 314.745 280.784 324.769 280.784C330.761 280.784 334.457 279.104 337.537 276.192L338.209 280H340.393V263.144H328.633ZM347.429 257.88L349.109 258.328L351.965 251.104C352.077 250.768 352.189 250.376 352.189 249.928C352.189 248.136 350.789 246.792 348.997 246.792C347.205 246.792 345.861 248.136 345.861 249.928C345.861 251.496 346.869 252.728 348.325 253.008L347.429 257.88ZM385.528 251.888C380.936 248.92 376.68 248.304 371.304 248.304C363.8 248.304 357.472 250.936 357.472 256.928C357.472 262.024 361.224 264.04 366.824 264.656L376.568 265.72C381.272 266.224 383.904 267.904 383.904 271.488C383.904 275.8 379.648 277.984 372.704 277.984C366.656 277.984 362.792 277.032 358.368 274.12L356.744 276.696C361.28 279.664 365.816 280.784 371.808 280.784C381.104 280.784 386.984 277.872 386.984 271.376C386.984 266.448 383.344 263.592 377.296 262.864L367.16 261.632C363.128 261.184 360.552 260.176 360.552 256.872C360.552 253.848 362.904 251.104 371.304 251.104C376.568 251.104 380.152 252.112 384.016 254.24L385.528 251.888ZM411.184 249.032V280H414.264V251.72H415.384L430.168 280H433.752L447.976 251.72H449.096V280H452.232V249.032H446.016L432.184 276.976H431.848L417.456 249.032H411.184ZM458.926 249.032V280H462.062V249.032H458.926ZM496.434 251.888C491.842 248.92 487.586 248.304 482.21 248.304C474.706 248.304 468.378 250.936 468.378 256.928C468.378 262.024 472.13 264.04 477.73 264.656L487.474 265.72C492.178 266.224 494.81 267.904 494.81 271.488C494.81 275.8 490.554 277.984 483.61 277.984C477.562 277.984 473.698 277.032 469.274 274.12L467.65 276.696C472.186 279.664 476.722 280.784 482.714 280.784C492.01 280.784 497.89 277.872 497.89 271.376C497.89 266.448 494.25 263.592 488.202 262.864L478.066 261.632C474.034 261.184 471.458 260.176 471.458 256.872C471.458 253.848 473.81 251.104 482.21 251.104C487.474 251.104 491.058 252.112 494.922 254.24L496.434 251.888ZM530.614 251.888C526.022 248.92 521.766 248.304 516.39 248.304C508.886 248.304 502.558 250.936 502.558 256.928C502.558 262.024 506.31 264.04 511.91 264.656L521.654 265.72C526.358 266.224 528.99 267.904 528.99 271.488C528.99 275.8 524.734 277.984 517.79 277.984C511.742 277.984 507.878 277.032 503.454 274.12L501.83 276.696C506.366 279.664 510.902 280.784 516.894 280.784C526.19 280.784 532.07 277.872 532.07 271.376C532.07 266.448 528.43 263.592 522.382 262.864L512.246 261.632C508.214 261.184 505.638 260.176 505.638 256.872C505.638 253.848 507.99 251.104 516.39 251.104C521.654 251.104 525.238 252.112 529.102 254.24L530.614 251.888ZM537.676 249.032V280H540.812V249.032H537.676ZM547.52 249.032V280H550.6V252.56L575.016 280H578.992V249.032H575.912V276.36L551.44 249.032H547.52ZM605.516 263.144V265.72L614.308 266.056V272.552C611.34 276.08 607.476 277.872 601.484 277.872C593.588 277.872 587.764 272.216 587.764 264.488C587.764 256.536 593.14 251.216 601.484 251.216C606.972 251.216 611.116 253.12 613.804 256.48L616.324 254.968C613.02 250.656 608.428 248.304 601.652 248.304C591.964 248.304 584.572 254.408 584.572 264.488C584.572 274.568 591.628 280.784 601.652 280.784C607.644 280.784 611.34 279.104 614.42 276.192L615.092 280H617.276V263.144H605.516Z" fill="white"/>
<path d="M164.07 318.768V330H162.558V318.768H158.562V317.436H168.066V318.768H164.07ZM169.997 316.68H171.437V322.224H171.509C171.737 321.696 172.055 321.276 172.463 320.964C172.883 320.652 173.441 320.496 174.137 320.496C175.097 320.496 175.853 320.808 176.405 321.432C176.969 322.044 177.251 322.914 177.251 324.042V330H175.811V324.294C175.811 322.626 175.109 321.792 173.705 321.792C173.417 321.792 173.135 321.828 172.859 321.9C172.595 321.972 172.355 322.08 172.139 322.224C171.923 322.368 171.749 322.554 171.617 322.782C171.497 322.998 171.437 323.256 171.437 323.556V330H169.997V316.68ZM183.719 330.216C183.083 330.216 182.507 330.102 181.991 329.874C181.487 329.646 181.049 329.322 180.677 328.902C180.317 328.47 180.035 327.96 179.831 327.372C179.639 326.772 179.543 326.1 179.543 325.356C179.543 324.624 179.639 323.958 179.831 323.358C180.035 322.758 180.317 322.248 180.677 321.828C181.049 321.396 181.487 321.066 181.991 320.838C182.507 320.61 183.083 320.496 183.719 320.496C184.343 320.496 184.901 320.61 185.393 320.838C185.885 321.066 186.305 321.384 186.653 321.792C187.001 322.188 187.265 322.662 187.445 323.214C187.637 323.766 187.733 324.372 187.733 325.032V325.716H181.055V326.148C181.055 326.544 181.115 326.916 181.235 327.264C181.367 327.6 181.547 327.894 181.775 328.146C182.015 328.398 182.303 328.596 182.639 328.74C182.987 328.884 183.377 328.956 183.809 328.956C184.397 328.956 184.907 328.818 185.339 328.542C185.783 328.266 186.125 327.87 186.365 327.354L187.391 328.092C187.091 328.728 186.623 329.244 185.987 329.64C185.351 330.024 184.595 330.216 183.719 330.216ZM183.719 321.702C183.323 321.702 182.963 321.774 182.639 321.918C182.315 322.05 182.033 322.242 181.793 322.494C181.565 322.746 181.385 323.046 181.253 323.394C181.121 323.73 181.055 324.102 181.055 324.51V324.636H186.185V324.438C186.185 323.61 185.957 322.95 185.501 322.458C185.057 321.954 184.463 321.702 183.719 321.702ZM194.36 320.712H195.8V322.224H195.872C196.112 321.636 196.46 321.204 196.916 320.928C197.384 320.64 197.942 320.496 198.59 320.496C199.166 320.496 199.688 320.61 200.156 320.838C200.624 321.066 201.02 321.39 201.344 321.81C201.68 322.23 201.932 322.74 202.1 323.34C202.28 323.94 202.37 324.612 202.37 325.356C202.37 326.1 202.28 326.772 202.1 327.372C201.932 327.972 201.68 328.482 201.344 328.902C201.02 329.322 200.624 329.646 200.156 329.874C199.688 330.102 199.166 330.216 198.59 330.216C197.33 330.216 196.424 329.64 195.872 328.488H195.8V333.6H194.36V320.712ZM198.194 328.92C199.01 328.92 199.652 328.668 200.12 328.164C200.588 327.648 200.822 326.976 200.822 326.148V324.564C200.822 323.736 200.588 323.07 200.12 322.566C199.652 322.05 199.01 321.792 198.194 321.792C197.87 321.792 197.558 321.84 197.258 321.936C196.97 322.02 196.718 322.14 196.502 322.296C196.286 322.452 196.112 322.644 195.98 322.872C195.86 323.088 195.8 323.322 195.8 323.574V327.03C195.8 327.33 195.86 327.6 195.98 327.84C196.112 328.068 196.286 328.266 196.502 328.434C196.718 328.59 196.97 328.71 197.258 328.794C197.558 328.878 197.87 328.92 198.194 328.92ZM211.551 330C211.011 330 210.621 329.856 210.381 329.568C210.153 329.28 210.009 328.92 209.949 328.488H209.859C209.655 329.064 209.319 329.496 208.851 329.784C208.383 330.072 207.825 330.216 207.177 330.216C206.193 330.216 205.425 329.964 204.873 329.46C204.333 328.956 204.063 328.272 204.063 327.408C204.063 326.532 204.381 325.86 205.017 325.392C205.665 324.924 206.667 324.69 208.023 324.69H209.859V323.772C209.859 323.112 209.679 322.608 209.319 322.26C208.959 321.912 208.407 321.738 207.663 321.738C207.099 321.738 206.625 321.864 206.241 322.116C205.869 322.368 205.557 322.704 205.305 323.124L204.441 322.314C204.693 321.81 205.095 321.384 205.647 321.036C206.199 320.676 206.895 320.496 207.735 320.496C208.863 320.496 209.739 320.772 210.363 321.324C210.987 321.876 211.299 322.644 211.299 323.628V328.74H212.361V330H211.551ZM207.411 328.992C207.771 328.992 208.101 328.95 208.401 328.866C208.701 328.782 208.959 328.662 209.175 328.506C209.391 328.35 209.559 328.17 209.679 327.966C209.799 327.762 209.859 327.54 209.859 327.3V325.77H207.951C207.123 325.77 206.517 325.89 206.133 326.13C205.761 326.37 205.575 326.718 205.575 327.174V327.552C205.575 328.008 205.737 328.362 206.061 328.614C206.397 328.866 206.847 328.992 207.411 328.992ZM222.247 331.026C222.247 331.986 221.869 332.688 221.113 333.132C220.369 333.588 219.247 333.816 217.747 333.816C216.295 333.816 215.251 333.618 214.615 333.222C213.979 332.826 213.661 332.262 213.661 331.53C213.661 331.026 213.793 330.63 214.057 330.342C214.321 330.066 214.681 329.862 215.137 329.73V329.532C214.585 329.268 214.309 328.836 214.309 328.236C214.309 327.768 214.459 327.414 214.759 327.174C215.059 326.922 215.443 326.736 215.911 326.616V326.544C215.359 326.28 214.927 325.902 214.615 325.41C214.315 324.918 214.165 324.348 214.165 323.7C214.165 323.232 214.249 322.8 214.417 322.404C214.585 322.008 214.819 321.672 215.119 321.396C215.431 321.108 215.797 320.886 216.217 320.73C216.649 320.574 217.129 320.496 217.657 320.496C218.317 320.496 218.905 320.616 219.421 320.856V320.694C219.421 320.334 219.505 320.04 219.673 319.812C219.841 319.572 220.117 319.452 220.501 319.452H221.887V320.712H220.123V321.306C220.459 321.594 220.717 321.942 220.897 322.35C221.089 322.746 221.185 323.196 221.185 323.7C221.185 324.168 221.101 324.6 220.933 324.996C220.765 325.392 220.525 325.734 220.213 326.022C219.913 326.298 219.547 326.514 219.115 326.67C218.683 326.826 218.203 326.904 217.675 326.904C217.375 326.904 217.075 326.874 216.775 326.814C216.463 326.898 216.181 327.024 215.929 327.192C215.677 327.348 215.551 327.57 215.551 327.858C215.551 328.134 215.683 328.32 215.947 328.416C216.211 328.512 216.553 328.56 216.973 328.56H218.953C220.105 328.56 220.939 328.782 221.455 329.226C221.983 329.658 222.247 330.258 222.247 331.026ZM220.897 331.134C220.897 330.762 220.753 330.462 220.465 330.234C220.189 330.018 219.691 329.91 218.971 329.91H215.875C215.299 330.174 215.011 330.594 215.011 331.17C215.011 331.578 215.161 331.926 215.461 332.214C215.773 332.502 216.295 332.646 217.027 332.646H218.359C219.163 332.646 219.787 332.52 220.231 332.268C220.675 332.016 220.897 331.638 220.897 331.134ZM217.675 325.752C218.287 325.752 218.773 325.608 219.133 325.32C219.493 325.02 219.673 324.564 219.673 323.952V323.448C219.673 322.836 219.493 322.386 219.133 322.098C218.773 321.798 218.287 321.648 217.675 321.648C217.063 321.648 216.577 321.798 216.217 322.098C215.857 322.386 215.677 322.836 215.677 323.448V323.952C215.677 324.564 215.857 325.02 216.217 325.32C216.577 325.608 217.063 325.752 217.675 325.752ZM227.313 330.216C226.677 330.216 226.101 330.102 225.585 329.874C225.081 329.646 224.643 329.322 224.271 328.902C223.911 328.47 223.629 327.96 223.425 327.372C223.233 326.772 223.137 326.1 223.137 325.356C223.137 324.624 223.233 323.958 223.425 323.358C223.629 322.758 223.911 322.248 224.271 321.828C224.643 321.396 225.081 321.066 225.585 320.838C226.101 320.61 226.677 320.496 227.313 320.496C227.937 320.496 228.495 320.61 228.987 320.838C229.479 321.066 229.899 321.384 230.247 321.792C230.595 322.188 230.859 322.662 231.039 323.214C231.231 323.766 231.327 324.372 231.327 325.032V325.716H224.649V326.148C224.649 326.544 224.709 326.916 224.829 327.264C224.961 327.6 225.141 327.894 225.369 328.146C225.609 328.398 225.897 328.596 226.233 328.74C226.581 328.884 226.971 328.956 227.403 328.956C227.991 328.956 228.501 328.818 228.933 328.542C229.377 328.266 229.719 327.87 229.959 327.354L230.985 328.092C230.685 328.728 230.217 329.244 229.581 329.64C228.945 330.024 228.189 330.216 227.313 330.216ZM227.313 321.702C226.917 321.702 226.557 321.774 226.233 321.918C225.909 322.05 225.627 322.242 225.387 322.494C225.159 322.746 224.979 323.046 224.847 323.394C224.715 323.73 224.649 324.102 224.649 324.51V324.636H229.779V324.438C229.779 323.61 229.551 322.95 229.095 322.458C228.651 321.954 228.057 321.702 227.313 321.702ZM243.678 320.712H245.1L240.942 332.16C240.834 332.436 240.726 332.664 240.618 332.844C240.51 333.036 240.378 333.186 240.222 333.294C240.066 333.402 239.868 333.48 239.628 333.528C239.4 333.576 239.118 333.6 238.782 333.6H238.044V332.34H239.502L240.204 330.36L236.73 320.712H238.17L240.402 327.03L240.834 328.542H240.924L241.428 327.03L243.678 320.712ZM250.358 330.216C249.734 330.216 249.164 330.102 248.648 329.874C248.132 329.646 247.688 329.322 247.316 328.902C246.956 328.47 246.674 327.96 246.47 327.372C246.266 326.772 246.164 326.1 246.164 325.356C246.164 324.624 246.266 323.958 246.47 323.358C246.674 322.758 246.956 322.248 247.316 321.828C247.688 321.396 248.132 321.066 248.648 320.838C249.164 320.61 249.734 320.496 250.358 320.496C250.982 320.496 251.546 320.61 252.05 320.838C252.566 321.066 253.01 321.396 253.382 321.828C253.754 322.248 254.042 322.758 254.246 323.358C254.45 323.958 254.552 324.624 254.552 325.356C254.552 326.1 254.45 326.772 254.246 327.372C254.042 327.96 253.754 328.47 253.382 328.902C253.01 329.322 252.566 329.646 252.05 329.874C251.546 330.102 250.982 330.216 250.358 330.216ZM250.358 328.938C251.138 328.938 251.774 328.698 252.266 328.218C252.758 327.738 253.004 327.006 253.004 326.022V324.69C253.004 323.706 252.758 322.974 252.266 322.494C251.774 322.014 251.138 321.774 250.358 321.774C249.578 321.774 248.942 322.014 248.45 322.494C247.958 322.974 247.712 323.706 247.712 324.69V326.022C247.712 327.006 247.958 327.738 248.45 328.218C248.942 328.698 249.578 328.938 250.358 328.938ZM262.645 328.488H262.573C262.477 328.704 262.357 328.92 262.213 329.136C262.081 329.34 261.913 329.526 261.709 329.694C261.505 329.85 261.259 329.976 260.971 330.072C260.683 330.168 260.347 330.216 259.963 330.216C259.003 330.216 258.241 329.91 257.677 329.298C257.113 328.674 256.831 327.798 256.831 326.67V320.712H258.271V326.418C258.271 328.086 258.979 328.92 260.395 328.92C260.683 328.92 260.959 328.884 261.223 328.812C261.499 328.74 261.739 328.632 261.943 328.488C262.159 328.344 262.327 328.164 262.447 327.948C262.579 327.72 262.645 327.45 262.645 327.138V320.712H264.085V330H262.645V328.488ZM267.151 321.72V316.68H268.447V321.72H267.151ZM271.51 330V320.712H272.95V322.422H273.04C273.208 321.978 273.508 321.582 273.94 321.234C274.372 320.886 274.966 320.712 275.722 320.712H276.28V322.152H275.434C274.654 322.152 274.042 322.302 273.598 322.602C273.166 322.89 272.95 323.256 272.95 323.7V330H271.51ZM281.524 330.216C280.888 330.216 280.312 330.102 279.796 329.874C279.292 329.646 278.854 329.322 278.482 328.902C278.122 328.47 277.84 327.96 277.636 327.372C277.444 326.772 277.348 326.1 277.348 325.356C277.348 324.624 277.444 323.958 277.636 323.358C277.84 322.758 278.122 322.248 278.482 321.828C278.854 321.396 279.292 321.066 279.796 320.838C280.312 320.61 280.888 320.496 281.524 320.496C282.148 320.496 282.706 320.61 283.198 320.838C283.69 321.066 284.11 321.384 284.458 321.792C284.806 322.188 285.07 322.662 285.25 323.214C285.442 323.766 285.538 324.372 285.538 325.032V325.716H278.86V326.148C278.86 326.544 278.92 326.916 279.04 327.264C279.172 327.6 279.352 327.894 279.58 328.146C279.82 328.398 280.108 328.596 280.444 328.74C280.792 328.884 281.182 328.956 281.614 328.956C282.202 328.956 282.712 328.818 283.144 328.542C283.588 328.266 283.93 327.87 284.17 327.354L285.196 328.092C284.896 328.728 284.428 329.244 283.792 329.64C283.156 330.024 282.4 330.216 281.524 330.216ZM281.524 321.702C281.128 321.702 280.768 321.774 280.444 321.918C280.12 322.05 279.838 322.242 279.598 322.494C279.37 322.746 279.19 323.046 279.058 323.394C278.926 323.73 278.86 324.102 278.86 324.51V324.636H283.99V324.438C283.99 323.61 283.762 322.95 283.306 322.458C282.862 321.954 282.268 321.702 281.524 321.702ZM293.695 330C293.191 330 292.807 329.862 292.543 329.586C292.291 329.298 292.165 328.938 292.165 328.506V316.68H293.605V328.74H294.973V330H293.695ZM300.579 330.216C299.955 330.216 299.385 330.102 298.869 329.874C298.353 329.646 297.909 329.322 297.537 328.902C297.177 328.47 296.895 327.96 296.691 327.372C296.487 326.772 296.385 326.1 296.385 325.356C296.385 324.624 296.487 323.958 296.691 323.358C296.895 322.758 297.177 322.248 297.537 321.828C297.909 321.396 298.353 321.066 298.869 320.838C299.385 320.61 299.955 320.496 300.579 320.496C301.203 320.496 301.767 320.61 302.271 320.838C302.787 321.066 303.231 321.396 303.603 321.828C303.975 322.248 304.263 322.758 304.467 323.358C304.671 323.958 304.773 324.624 304.773 325.356C304.773 326.1 304.671 326.772 304.467 327.372C304.263 327.96 303.975 328.47 303.603 328.902C303.231 329.322 302.787 329.646 302.271 329.874C301.767 330.102 301.203 330.216 300.579 330.216ZM300.579 328.938C301.359 328.938 301.995 328.698 302.487 328.218C302.979 327.738 303.225 327.006 303.225 326.022V324.69C303.225 323.706 302.979 322.974 302.487 322.494C301.995 322.014 301.359 321.774 300.579 321.774C299.799 321.774 299.163 322.014 298.671 322.494C298.179 322.974 297.933 323.706 297.933 324.69V326.022C297.933 327.006 298.179 327.738 298.671 328.218C299.163 328.698 299.799 328.938 300.579 328.938ZM310.651 330.216C310.027 330.216 309.457 330.102 308.941 329.874C308.425 329.646 307.981 329.322 307.609 328.902C307.249 328.47 306.967 327.96 306.763 327.372C306.559 326.772 306.457 326.1 306.457 325.356C306.457 324.624 306.559 323.958 306.763 323.358C306.967 322.758 307.249 322.248 307.609 321.828C307.981 321.396 308.425 321.066 308.941 320.838C309.457 320.61 310.027 320.496 310.651 320.496C311.275 320.496 311.839 320.61 312.343 320.838C312.859 321.066 313.303 321.396 313.675 321.828C314.047 322.248 314.335 322.758 314.539 323.358C314.743 323.958 314.845 324.624 314.845 325.356C314.845 326.1 314.743 326.772 314.539 327.372C314.335 327.96 314.047 328.47 313.675 328.902C313.303 329.322 312.859 329.646 312.343 329.874C311.839 330.102 311.275 330.216 310.651 330.216ZM310.651 328.938C311.431 328.938 312.067 328.698 312.559 328.218C313.051 327.738 313.297 327.006 313.297 326.022V324.69C313.297 323.706 313.051 322.974 312.559 322.494C312.067 322.014 311.431 321.774 310.651 321.774C309.871 321.774 309.235 322.014 308.743 322.494C308.251 322.974 308.005 323.706 308.005 324.69V326.022C308.005 327.006 308.251 327.738 308.743 328.218C309.235 328.698 309.871 328.938 310.651 328.938ZM317.214 316.68H318.654V325.122H318.726L320.148 323.538L322.776 320.712H324.522L321.084 324.384L324.864 330H323.118L320.04 325.266L318.654 326.688V330H317.214V316.68ZM327.426 318.534C327.114 318.534 326.886 318.462 326.742 318.318C326.61 318.162 326.544 317.964 326.544 317.724V317.49C326.544 317.25 326.61 317.058 326.742 316.914C326.886 316.758 327.114 316.68 327.426 316.68C327.738 316.68 327.96 316.758 328.092 316.914C328.236 317.058 328.308 317.25 328.308 317.49V317.724C328.308 317.964 328.236 318.162 328.092 318.318C327.96 318.462 327.738 318.534 327.426 318.534ZM326.706 320.712H328.146V330H326.706V320.712ZM331.206 330V320.712H332.646V322.224H332.718C332.946 321.696 333.264 321.276 333.672 320.964C334.092 320.652 334.65 320.496 335.346 320.496C336.306 320.496 337.062 320.808 337.614 321.432C338.178 322.044 338.46 322.914 338.46 324.042V330H337.02V324.294C337.02 322.626 336.318 321.792 334.914 321.792C334.626 321.792 334.344 321.828 334.068 321.9C333.804 321.972 333.564 322.08 333.348 322.224C333.132 322.368 332.958 322.554 332.826 322.782C332.706 322.998 332.646 323.256 332.646 323.556V330H331.206ZM349.266 331.026C349.266 331.986 348.888 332.688 348.132 333.132C347.388 333.588 346.266 333.816 344.766 333.816C343.314 333.816 342.27 333.618 341.634 333.222C340.998 332.826 340.68 332.262 340.68 331.53C340.68 331.026 340.812 330.63 341.076 330.342C341.34 330.066 341.7 329.862 342.156 329.73V329.532C341.604 329.268 341.328 328.836 341.328 328.236C341.328 327.768 341.478 327.414 341.778 327.174C342.078 326.922 342.462 326.736 342.93 326.616V326.544C342.378 326.28 341.946 325.902 341.634 325.41C341.334 324.918 341.184 324.348 341.184 323.7C341.184 323.232 341.268 322.8 341.436 322.404C341.604 322.008 341.838 321.672 342.138 321.396C342.45 321.108 342.816 320.886 343.236 320.73C343.668 320.574 344.148 320.496 344.676 320.496C345.336 320.496 345.924 320.616 346.44 320.856V320.694C346.44 320.334 346.524 320.04 346.692 319.812C346.86 319.572 347.136 319.452 347.52 319.452H348.906V320.712H347.142V321.306C347.478 321.594 347.736 321.942 347.916 322.35C348.108 322.746 348.204 323.196 348.204 323.7C348.204 324.168 348.12 324.6 347.952 324.996C347.784 325.392 347.544 325.734 347.232 326.022C346.932 326.298 346.566 326.514 346.134 326.67C345.702 326.826 345.222 326.904 344.694 326.904C344.394 326.904 344.094 326.874 343.794 326.814C343.482 326.898 343.2 327.024 342.948 327.192C342.696 327.348 342.57 327.57 342.57 327.858C342.57 328.134 342.702 328.32 342.966 328.416C343.23 328.512 343.572 328.56 343.992 328.56H345.972C347.124 328.56 347.958 328.782 348.474 329.226C349.002 329.658 349.266 330.258 349.266 331.026ZM347.916 331.134C347.916 330.762 347.772 330.462 347.484 330.234C347.208 330.018 346.71 329.91 345.99 329.91H342.894C342.318 330.174 342.03 330.594 342.03 331.17C342.03 331.578 342.18 331.926 342.48 332.214C342.792 332.502 343.314 332.646 344.046 332.646H345.378C346.182 332.646 346.806 332.52 347.25 332.268C347.694 332.016 347.916 331.638 347.916 331.134ZM344.694 325.752C345.306 325.752 345.792 325.608 346.152 325.32C346.512 325.02 346.692 324.564 346.692 323.952V323.448C346.692 322.836 346.512 322.386 346.152 322.098C345.792 321.798 345.306 321.648 344.694 321.648C344.082 321.648 343.596 321.798 343.236 322.098C342.876 322.386 342.696 322.836 342.696 323.448V323.952C342.696 324.564 342.876 325.02 343.236 325.32C343.596 325.608 344.082 325.752 344.694 325.752ZM355.704 321.972H354.192V320.712H355.704V318.84C355.704 318.192 355.872 317.67 356.208 317.274C356.544 316.878 357.054 316.68 357.738 316.68H359.142V317.94H357.144V320.712H359.142V321.972H357.144V330H355.704V321.972ZM364.476 330.216C363.852 330.216 363.282 330.102 362.766 329.874C362.25 329.646 361.806 329.322 361.434 328.902C361.074 328.47 360.792 327.96 360.588 327.372C360.384 326.772 360.282 326.1 360.282 325.356C360.282 324.624 360.384 323.958 360.588 323.358C360.792 322.758 361.074 322.248 361.434 321.828C361.806 321.396 362.25 321.066 362.766 320.838C363.282 320.61 363.852 320.496 364.476 320.496C365.1 320.496 365.664 320.61 366.168 320.838C366.684 321.066 367.128 321.396 367.5 321.828C367.872 322.248 368.16 322.758 368.364 323.358C368.568 323.958 368.67 324.624 368.67 325.356C368.67 326.1 368.568 326.772 368.364 327.372C368.16 327.96 367.872 328.47 367.5 328.902C367.128 329.322 366.684 329.646 366.168 329.874C365.664 330.102 365.1 330.216 364.476 330.216ZM364.476 328.938C365.256 328.938 365.892 328.698 366.384 328.218C366.876 327.738 367.122 327.006 367.122 326.022V324.69C367.122 323.706 366.876 322.974 366.384 322.494C365.892 322.014 365.256 321.774 364.476 321.774C363.696 321.774 363.06 322.014 362.568 322.494C362.076 322.974 361.83 323.706 361.83 324.69V326.022C361.83 327.006 362.076 327.738 362.568 328.218C363.06 328.698 363.696 328.938 364.476 328.938ZM371.038 330V320.712H372.478V322.422H372.568C372.736 321.978 373.036 321.582 373.468 321.234C373.9 320.886 374.494 320.712 375.25 320.712H375.808V322.152H374.962C374.182 322.152 373.57 322.302 373.126 322.602C372.694 322.89 372.478 323.256 372.478 323.7V330H371.038ZM387.841 328.488H387.769C387.205 329.64 386.299 330.216 385.051 330.216C384.475 330.216 383.953 330.102 383.485 329.874C383.017 329.646 382.615 329.322 382.279 328.902C381.955 328.482 381.703 327.972 381.523 327.372C381.355 326.772 381.271 326.1 381.271 325.356C381.271 324.612 381.355 323.94 381.523 323.34C381.703 322.74 381.955 322.23 382.279 321.81C382.615 321.39 383.017 321.066 383.485 320.838C383.953 320.61 384.475 320.496 385.051 320.496C385.699 320.496 386.251 320.64 386.707 320.928C387.175 321.204 387.529 321.636 387.769 322.224H387.841V316.68H389.281V330H387.841V328.488ZM385.447 328.92C385.771 328.92 386.077 328.878 386.365 328.794C386.665 328.71 386.923 328.59 387.139 328.434C387.355 328.266 387.523 328.068 387.643 327.84C387.775 327.6 387.841 327.33 387.841 327.03V323.574C387.841 323.322 387.775 323.088 387.643 322.872C387.523 322.644 387.355 322.452 387.139 322.296C386.923 322.14 386.665 322.02 386.365 321.936C386.077 321.84 385.771 321.792 385.447 321.792C384.631 321.792 383.989 322.05 383.521 322.566C383.053 323.07 382.819 323.736 382.819 324.564V326.148C382.819 326.976 383.053 327.648 383.521 328.164C383.989 328.668 384.631 328.92 385.447 328.92ZM395.853 330.216C395.229 330.216 394.659 330.102 394.143 329.874C393.627 329.646 393.183 329.322 392.811 328.902C392.451 328.47 392.169 327.96 391.965 327.372C391.761 326.772 391.659 326.1 391.659 325.356C391.659 324.624 391.761 323.958 391.965 323.358C392.169 322.758 392.451 322.248 392.811 321.828C393.183 321.396 393.627 321.066 394.143 320.838C394.659 320.61 395.229 320.496 395.853 320.496C396.477 320.496 397.041 320.61 397.545 320.838C398.061 321.066 398.505 321.396 398.877 321.828C399.249 322.248 399.537 322.758 399.741 323.358C399.945 323.958 400.047 324.624 400.047 325.356C400.047 326.1 399.945 326.772 399.741 327.372C399.537 327.96 399.249 328.47 398.877 328.902C398.505 329.322 398.061 329.646 397.545 329.874C397.041 330.102 396.477 330.216 395.853 330.216ZM395.853 328.938C396.633 328.938 397.269 328.698 397.761 328.218C398.253 327.738 398.499 327.006 398.499 326.022V324.69C398.499 323.706 398.253 322.974 397.761 322.494C397.269 322.014 396.633 321.774 395.853 321.774C395.073 321.774 394.437 322.014 393.945 322.494C393.453 322.974 393.207 323.706 393.207 324.69V326.022C393.207 327.006 393.453 327.738 393.945 328.218C394.437 328.698 395.073 328.938 395.853 328.938ZM405.907 330.216C405.271 330.216 404.695 330.102 404.179 329.874C403.675 329.646 403.237 329.322 402.865 328.902C402.505 328.47 402.223 327.96 402.019 327.372C401.827 326.772 401.731 326.1 401.731 325.356C401.731 324.624 401.827 323.958 402.019 323.358C402.223 322.758 402.505 322.248 402.865 321.828C403.237 321.396 403.675 321.066 404.179 320.838C404.695 320.61 405.271 320.496 405.907 320.496C406.531 320.496 407.089 320.61 407.581 320.838C408.073 321.066 408.493 321.384 408.841 321.792C409.189 322.188 409.453 322.662 409.633 323.214C409.825 323.766 409.921 324.372 409.921 325.032V325.716H403.243V326.148C403.243 326.544 403.303 326.916 403.423 327.264C403.555 327.6 403.735 327.894 403.963 328.146C404.203 328.398 404.491 328.596 404.827 328.74C405.175 328.884 405.565 328.956 405.997 328.956C406.585 328.956 407.095 328.818 407.527 328.542C407.971 328.266 408.313 327.87 408.553 327.354L409.579 328.092C409.279 328.728 408.811 329.244 408.175 329.64C407.539 330.024 406.783 330.216 405.907 330.216ZM405.907 321.702C405.511 321.702 405.151 321.774 404.827 321.918C404.503 322.05 404.221 322.242 403.981 322.494C403.753 322.746 403.573 323.046 403.441 323.394C403.309 323.73 403.243 324.102 403.243 324.51V324.636H408.373V324.438C408.373 323.61 408.145 322.95 407.689 322.458C407.245 321.954 406.651 321.702 405.907 321.702ZM415.084 330.216C414.22 330.216 413.494 330.054 412.906 329.73C412.33 329.394 411.832 328.95 411.412 328.398L412.438 327.57C412.798 328.026 413.2 328.38 413.644 328.632C414.088 328.872 414.604 328.992 415.192 328.992C415.804 328.992 416.278 328.86 416.614 328.596C416.962 328.332 417.136 327.96 417.136 327.48C417.136 327.12 417.016 326.814 416.776 326.562C416.548 326.298 416.128 326.118 415.516 326.022L414.778 325.914C414.346 325.854 413.95 325.764 413.59 325.644C413.23 325.512 412.912 325.344 412.636 325.14C412.372 324.924 412.162 324.66 412.006 324.348C411.862 324.036 411.79 323.664 411.79 323.232C411.79 322.776 411.874 322.38 412.042 322.044C412.21 321.696 412.438 321.408 412.726 321.18C413.026 320.952 413.38 320.784 413.788 320.676C414.196 320.556 414.634 320.496 415.102 320.496C415.858 320.496 416.488 320.628 416.992 320.892C417.508 321.156 417.958 321.522 418.342 321.99L417.388 322.854C417.184 322.566 416.884 322.308 416.488 322.08C416.092 321.84 415.594 321.72 414.994 321.72C414.394 321.72 413.938 321.852 413.626 322.116C413.326 322.368 413.176 322.716 413.176 323.16C413.176 323.616 413.326 323.946 413.626 324.15C413.938 324.354 414.382 324.504 414.958 324.6L415.678 324.708C416.71 324.864 417.442 325.164 417.874 325.608C418.306 326.04 418.522 326.61 418.522 327.318C418.522 328.218 418.216 328.926 417.604 329.442C416.992 329.958 416.152 330.216 415.084 330.216ZM421.065 330V320.712H422.505V322.224H422.577C422.805 321.696 423.123 321.276 423.531 320.964C423.951 320.652 424.509 320.496 425.205 320.496C426.165 320.496 426.921 320.808 427.473 321.432C428.037 322.044 428.319 322.914 428.319 324.042V330H426.879V324.294C426.879 322.626 426.177 321.792 424.773 321.792C424.485 321.792 424.203 321.828 423.927 321.9C423.663 321.972 423.423 322.08 423.207 322.224C422.991 322.368 422.817 322.554 422.685 322.782C422.565 322.998 422.505 323.256 422.505 323.556V330H421.065ZM431.032 321.72V316.68H432.328V321.72H431.032ZM437.443 330C436.939 330 436.555 329.862 436.291 329.586C436.039 329.298 435.913 328.926 435.913 328.47V321.972H434.383V320.712H435.247C435.559 320.712 435.769 320.652 435.877 320.532C435.997 320.4 436.057 320.178 436.057 319.866V318.138H437.353V320.712H439.387V321.972H437.353V328.74H439.243V330H437.443ZM449.448 330.216C448.812 330.216 448.236 330.102 447.72 329.874C447.216 329.646 446.778 329.322 446.406 328.902C446.046 328.47 445.764 327.96 445.56 327.372C445.368 326.772 445.272 326.1 445.272 325.356C445.272 324.624 445.368 323.958 445.56 323.358C445.764 322.758 446.046 322.248 446.406 321.828C446.778 321.396 447.216 321.066 447.72 320.838C448.236 320.61 448.812 320.496 449.448 320.496C450.072 320.496 450.63 320.61 451.122 320.838C451.614 321.066 452.034 321.384 452.382 321.792C452.73 322.188 452.994 322.662 453.174 323.214C453.366 323.766 453.462 324.372 453.462 325.032V325.716H446.784V326.148C446.784 326.544 446.844 326.916 446.964 327.264C447.096 327.6 447.276 327.894 447.504 328.146C447.744 328.398 448.032 328.596 448.368 328.74C448.716 328.884 449.106 328.956 449.538 328.956C450.126 328.956 450.636 328.818 451.068 328.542C451.512 328.266 451.854 327.87 452.094 327.354L453.12 328.092C452.82 328.728 452.352 329.244 451.716 329.64C451.08 330.024 450.324 330.216 449.448 330.216ZM449.448 321.702C449.052 321.702 448.692 321.774 448.368 321.918C448.044 322.05 447.762 322.242 447.522 322.494C447.294 322.746 447.114 323.046 446.982 323.394C446.85 323.73 446.784 324.102 446.784 324.51V324.636H451.914V324.438C451.914 323.61 451.686 322.95 451.23 322.458C450.786 321.954 450.192 321.702 449.448 321.702ZM454.472 330L457.91 325.32L454.616 320.712H456.308L458.666 324.168H458.72L461.168 320.712H462.77L459.494 325.212L462.842 330H461.15L458.738 326.364H458.684L456.074 330H454.472ZM465.467 318.534C465.155 318.534 464.927 318.462 464.783 318.318C464.651 318.162 464.585 317.964 464.585 317.724V317.49C464.585 317.25 464.651 317.058 464.783 316.914C464.927 316.758 465.155 316.68 465.467 316.68C465.779 316.68 466.001 316.758 466.133 316.914C466.277 317.058 466.349 317.25 466.349 317.49V317.724C466.349 317.964 466.277 318.162 466.133 318.318C466.001 318.462 465.779 318.534 465.467 318.534ZM464.747 320.712H466.187V330H464.747V320.712ZM472.037 330.216C471.173 330.216 470.447 330.054 469.859 329.73C469.283 329.394 468.785 328.95 468.365 328.398L469.391 327.57C469.751 328.026 470.153 328.38 470.597 328.632C471.041 328.872 471.557 328.992 472.145 328.992C472.757 328.992 473.231 328.86 473.567 328.596C473.915 328.332 474.089 327.96 474.089 327.48C474.089 327.12 473.969 326.814 473.729 326.562C473.501 326.298 473.081 326.118 472.469 326.022L471.731 325.914C471.299 325.854 470.903 325.764 470.543 325.644C470.183 325.512 469.865 325.344 469.589 325.14C469.325 324.924 469.115 324.66 468.959 324.348C468.815 324.036 468.743 323.664 468.743 323.232C468.743 322.776 468.827 322.38 468.995 322.044C469.163 321.696 469.391 321.408 469.679 321.18C469.979 320.952 470.333 320.784 470.741 320.676C471.149 320.556 471.587 320.496 472.055 320.496C472.811 320.496 473.441 320.628 473.945 320.892C474.461 321.156 474.911 321.522 475.295 321.99L474.341 322.854C474.137 322.566 473.837 322.308 473.441 322.08C473.045 321.84 472.547 321.72 471.947 321.72C471.347 321.72 470.891 321.852 470.579 322.116C470.279 322.368 470.129 322.716 470.129 323.16C470.129 323.616 470.279 323.946 470.579 324.15C470.891 324.354 471.335 324.504 471.911 324.6L472.631 324.708C473.663 324.864 474.395 325.164 474.827 325.608C475.259 326.04 475.475 326.61 475.475 327.318C475.475 328.218 475.169 328.926 474.557 329.442C473.945 329.958 473.105 330.216 472.037 330.216ZM479.947 330C479.443 330 479.059 329.862 478.795 329.586C478.543 329.298 478.417 328.926 478.417 328.47V321.972H476.887V320.712H477.751C478.063 320.712 478.273 320.652 478.381 320.532C478.501 320.4 478.561 320.178 478.561 319.866V318.138H479.857V320.712H481.891V321.972H479.857V328.74H481.747V330H479.947ZM485.124 330.216C484.74 330.216 484.458 330.12 484.278 329.928C484.11 329.736 484.026 329.484 484.026 329.172V328.938C484.026 328.626 484.11 328.374 484.278 328.182C484.458 327.99 484.74 327.894 485.124 327.894C485.508 327.894 485.784 327.99 485.952 328.182C486.132 328.374 486.222 328.626 486.222 328.938V329.172C486.222 329.484 486.132 329.736 485.952 329.928C485.784 330.12 485.508 330.216 485.124 330.216ZM75.9433 356V354.74H77.7073V344.696H75.9433V343.436H80.9833V344.696H79.2193V354.74H80.9833V356H75.9433ZM85.6523 356C85.1483 356 84.7643 355.862 84.5003 355.586C84.2483 355.298 84.1223 354.926 84.1223 354.47V347.972H82.5923V346.712H83.4563C83.7683 346.712 83.9783 346.652 84.0863 346.532C84.2063 346.4 84.2663 346.178 84.2663 345.866V344.138H85.5623V346.712H87.5963V347.972H85.5623V354.74H87.4523V356H85.6523ZM94.1648 356V346.712H95.6048V348.224H95.6768C95.7848 347.984 95.9048 347.762 96.0368 347.558C96.1808 347.342 96.3488 347.156 96.5408 347C96.7448 346.844 96.9788 346.724 97.2428 346.64C97.5068 346.544 97.8188 346.496 98.1788 346.496C98.7908 346.496 99.3548 346.646 99.8708 346.946C100.387 347.234 100.771 347.714 101.023 348.386H101.059C101.227 347.882 101.539 347.444 101.995 347.072C102.463 346.688 103.093 346.496 103.885 346.496C104.833 346.496 105.571 346.808 106.099 347.432C106.639 348.044 106.909 348.914 106.909 350.042V356H105.469V350.294C105.469 349.466 105.307 348.842 104.983 348.422C104.659 348.002 104.143 347.792 103.435 347.792C103.147 347.792 102.871 347.828 102.607 347.9C102.355 347.972 102.127 348.08 101.923 348.224C101.719 348.368 101.557 348.554 101.437 348.782C101.317 348.998 101.257 349.256 101.257 349.556V356H99.8168V350.294C99.8168 349.466 99.6548 348.842 99.3308 348.422C99.0068 348.002 98.5028 347.792 97.8188 347.792C97.5308 347.792 97.2548 347.828 96.9908 347.9C96.7268 347.972 96.4928 348.08 96.2888 348.224C96.0848 348.368 95.9168 348.554 95.7848 348.782C95.6648 348.998 95.6048 349.256 95.6048 349.556V356H94.1648ZM116.63 356C116.09 356 115.7 355.856 115.46 355.568C115.232 355.28 115.088 354.92 115.028 354.488H114.938C114.734 355.064 114.398 355.496 113.93 355.784C113.462 356.072 112.904 356.216 112.256 356.216C111.272 356.216 110.504 355.964 109.952 355.46C109.412 354.956 109.142 354.272 109.142 353.408C109.142 352.532 109.46 351.86 110.096 351.392C110.744 350.924 111.746 350.69 113.102 350.69H114.938V349.772C114.938 349.112 114.758 348.608 114.398 348.26C114.038 347.912 113.486 347.738 112.742 347.738C112.178 347.738 111.704 347.864 111.32 348.116C110.948 348.368 110.636 348.704 110.384 349.124L109.52 348.314C109.772 347.81 110.174 347.384 110.726 347.036C111.278 346.676 111.974 346.496 112.814 346.496C113.942 346.496 114.818 346.772 115.442 347.324C116.066 347.876 116.378 348.644 116.378 349.628V354.74H117.44V356H116.63ZM112.49 354.992C112.85 354.992 113.18 354.95 113.48 354.866C113.78 354.782 114.038 354.662 114.254 354.506C114.47 354.35 114.638 354.17 114.758 353.966C114.878 353.762 114.938 353.54 114.938 353.3V351.77H113.03C112.202 351.77 111.596 351.89 111.212 352.13C110.84 352.37 110.654 352.718 110.654 353.174V353.552C110.654 354.008 110.816 354.362 111.14 354.614C111.476 354.866 111.926 354.992 112.49 354.992ZM125.131 346.712H126.553L122.395 358.16C122.287 358.436 122.179 358.664 122.071 358.844C121.963 359.036 121.831 359.186 121.675 359.294C121.519 359.402 121.321 359.48 121.081 359.528C120.853 359.576 120.571 359.6 120.235 359.6H119.497V358.34H120.955L121.657 356.36L118.183 346.712H119.623L121.855 353.03L122.287 354.542H122.377L122.881 353.03L125.131 346.712ZM132.643 342.68H134.083V348.224H134.155C134.395 347.636 134.743 347.204 135.199 346.928C135.667 346.64 136.225 346.496 136.873 346.496C137.449 346.496 137.971 346.61 138.439 346.838C138.907 347.066 139.303 347.39 139.627 347.81C139.963 348.23 140.215 348.74 140.383 349.34C140.563 349.94 140.653 350.612 140.653 351.356C140.653 352.1 140.563 352.772 140.383 353.372C140.215 353.972 139.963 354.482 139.627 354.902C139.303 355.322 138.907 355.646 138.439 355.874C137.971 356.102 137.449 356.216 136.873 356.216C135.613 356.216 134.707 355.64 134.155 354.488H134.083V356H132.643V342.68ZM136.477 354.92C137.293 354.92 137.935 354.668 138.403 354.164C138.871 353.648 139.105 352.976 139.105 352.148V350.564C139.105 349.736 138.871 349.07 138.403 348.566C137.935 348.05 137.293 347.792 136.477 347.792C136.153 347.792 135.841 347.84 135.541 347.936C135.253 348.02 135.001 348.14 134.785 348.296C134.569 348.452 134.395 348.644 134.263 348.872C134.143 349.088 134.083 349.322 134.083 349.574V353.03C134.083 353.33 134.143 353.6 134.263 353.84C134.395 354.068 134.569 354.266 134.785 354.434C135.001 354.59 135.253 354.71 135.541 354.794C135.841 354.878 136.153 354.92 136.477 354.92ZM146.577 356.216C145.941 356.216 145.365 356.102 144.849 355.874C144.345 355.646 143.907 355.322 143.535 354.902C143.175 354.47 142.893 353.96 142.689 353.372C142.497 352.772 142.401 352.1 142.401 351.356C142.401 350.624 142.497 349.958 142.689 349.358C142.893 348.758 143.175 348.248 143.535 347.828C143.907 347.396 144.345 347.066 144.849 346.838C145.365 346.61 145.941 346.496 146.577 346.496C147.201 346.496 147.759 346.61 148.251 346.838C148.743 347.066 149.163 347.384 149.511 347.792C149.859 348.188 150.123 348.662 150.303 349.214C150.495 349.766 150.591 350.372 150.591 351.032V351.716H143.913V352.148C143.913 352.544 143.973 352.916 144.093 353.264C144.225 353.6 144.405 353.894 144.633 354.146C144.873 354.398 145.161 354.596 145.497 354.74C145.845 354.884 146.235 354.956 146.667 354.956C147.255 354.956 147.765 354.818 148.197 354.542C148.641 354.266 148.983 353.87 149.223 353.354L150.249 354.092C149.949 354.728 149.481 355.244 148.845 355.64C148.209 356.024 147.453 356.216 146.577 356.216ZM146.577 347.702C146.181 347.702 145.821 347.774 145.497 347.918C145.173 348.05 144.891 348.242 144.651 348.494C144.423 348.746 144.243 349.046 144.111 349.394C143.979 349.73 143.913 350.102 143.913 350.51V350.636H149.043V350.438C149.043 349.61 148.815 348.95 148.359 348.458C147.915 347.954 147.321 347.702 146.577 347.702ZM160.728 356.216C160.104 356.216 159.534 356.102 159.018 355.874C158.502 355.646 158.058 355.322 157.686 354.902C157.326 354.47 157.044 353.96 156.84 353.372C156.636 352.772 156.534 352.1 156.534 351.356C156.534 350.624 156.636 349.958 156.84 349.358C157.044 348.758 157.326 348.248 157.686 347.828C158.058 347.396 158.502 347.066 159.018 346.838C159.534 346.61 160.104 346.496 160.728 346.496C161.352 346.496 161.916 346.61 162.42 346.838C162.936 347.066 163.38 347.396 163.752 347.828C164.124 348.248 164.412 348.758 164.616 349.358C164.82 349.958 164.922 350.624 164.922 351.356C164.922 352.1 164.82 352.772 164.616 353.372C164.412 353.96 164.124 354.47 163.752 354.902C163.38 355.322 162.936 355.646 162.42 355.874C161.916 356.102 161.352 356.216 160.728 356.216ZM160.728 354.938C161.508 354.938 162.144 354.698 162.636 354.218C163.128 353.738 163.374 353.006 163.374 352.022V350.69C163.374 349.706 163.128 348.974 162.636 348.494C162.144 348.014 161.508 347.774 160.728 347.774C159.948 347.774 159.312 348.014 158.82 348.494C158.328 348.974 158.082 349.706 158.082 350.69V352.022C158.082 353.006 158.328 353.738 158.82 354.218C159.312 354.698 159.948 354.938 160.728 354.938ZM173.014 354.488H172.942C172.846 354.704 172.726 354.92 172.582 355.136C172.45 355.34 172.282 355.526 172.078 355.694C171.874 355.85 171.628 355.976 171.34 356.072C171.052 356.168 170.716 356.216 170.332 356.216C169.372 356.216 168.61 355.91 168.046 355.298C167.482 354.674 167.2 353.798 167.2 352.67V346.712H168.64V352.418C168.64 354.086 169.348 354.92 170.764 354.92C171.052 354.92 171.328 354.884 171.592 354.812C171.868 354.74 172.108 354.632 172.312 354.488C172.528 354.344 172.696 354.164 172.816 353.948C172.948 353.72 173.014 353.45 173.014 353.138V346.712H174.454V356H173.014V354.488ZM179.572 356C179.068 356 178.684 355.862 178.42 355.586C178.168 355.298 178.042 354.926 178.042 354.47V347.972H176.512V346.712H177.376C177.688 346.712 177.898 346.652 178.006 346.532C178.126 346.4 178.186 346.178 178.186 345.866V344.138H179.482V346.712H181.516V347.972H179.482V354.74H181.372V356H179.572ZM191.595 356.216C190.971 356.216 190.401 356.102 189.885 355.874C189.369 355.646 188.925 355.322 188.553 354.902C188.193 354.47 187.911 353.96 187.707 353.372C187.503 352.772 187.401 352.1 187.401 351.356C187.401 350.624 187.503 349.958 187.707 349.358C187.911 348.758 188.193 348.248 188.553 347.828C188.925 347.396 189.369 347.066 189.885 346.838C190.401 346.61 190.971 346.496 191.595 346.496C192.219 346.496 192.783 346.61 193.287 346.838C193.803 347.066 194.247 347.396 194.619 347.828C194.991 348.248 195.279 348.758 195.483 349.358C195.687 349.958 195.789 350.624 195.789 351.356C195.789 352.1 195.687 352.772 195.483 353.372C195.279 353.96 194.991 354.47 194.619 354.902C194.247 355.322 193.803 355.646 193.287 355.874C192.783 356.102 192.219 356.216 191.595 356.216ZM191.595 354.938C192.375 354.938 193.011 354.698 193.503 354.218C193.995 353.738 194.241 353.006 194.241 352.022V350.69C194.241 349.706 193.995 348.974 193.503 348.494C193.011 348.014 192.375 347.774 191.595 347.774C190.815 347.774 190.179 348.014 189.687 348.494C189.195 348.974 188.949 349.706 188.949 350.69V352.022C188.949 353.006 189.195 353.738 189.687 354.218C190.179 354.698 190.815 354.938 191.595 354.938ZM198.555 347.972H197.043V346.712H198.555V344.84C198.555 344.192 198.723 343.67 199.059 343.274C199.395 342.878 199.905 342.68 200.589 342.68H201.993V343.94H199.995V346.712H201.993V347.972H199.995V356H198.555V347.972ZM214.081 354.488H214.009C213.445 355.64 212.539 356.216 211.291 356.216C210.715 356.216 210.193 356.102 209.725 355.874C209.257 355.646 208.855 355.322 208.519 354.902C208.195 354.482 207.943 353.972 207.763 353.372C207.595 352.772 207.511 352.1 207.511 351.356C207.511 350.612 207.595 349.94 207.763 349.34C207.943 348.74 208.195 348.23 208.519 347.81C208.855 347.39 209.257 347.066 209.725 346.838C210.193 346.61 210.715 346.496 211.291 346.496C211.939 346.496 212.491 346.64 212.947 346.928C213.415 347.204 213.769 347.636 214.009 348.224H214.081V342.68H215.521V356H214.081V354.488ZM211.687 354.92C212.011 354.92 212.317 354.878 212.605 354.794C212.905 354.71 213.163 354.59 213.379 354.434C213.595 354.266 213.763 354.068 213.883 353.84C214.015 353.6 214.081 353.33 214.081 353.03V349.574C214.081 349.322 214.015 349.088 213.883 348.872C213.763 348.644 213.595 348.452 213.379 348.296C213.163 348.14 212.905 348.02 212.605 347.936C212.317 347.84 212.011 347.792 211.687 347.792C210.871 347.792 210.229 348.05 209.761 348.566C209.293 349.07 209.059 349.736 209.059 350.564V352.148C209.059 352.976 209.293 353.648 209.761 354.164C210.229 354.668 210.871 354.92 211.687 354.92ZM225.333 356C224.793 356 224.403 355.856 224.163 355.568C223.935 355.28 223.791 354.92 223.731 354.488H223.641C223.437 355.064 223.101 355.496 222.633 355.784C222.165 356.072 221.607 356.216 220.959 356.216C219.975 356.216 219.207 355.964 218.655 355.46C218.115 354.956 217.845 354.272 217.845 353.408C217.845 352.532 218.163 351.86 218.799 351.392C219.447 350.924 220.449 350.69 221.805 350.69H223.641V349.772C223.641 349.112 223.461 348.608 223.101 348.26C222.741 347.912 222.189 347.738 221.445 347.738C220.881 347.738 220.407 347.864 220.023 348.116C219.651 348.368 219.339 348.704 219.087 349.124L218.223 348.314C218.475 347.81 218.877 347.384 219.429 347.036C219.981 346.676 220.677 346.496 221.517 346.496C222.645 346.496 223.521 346.772 224.145 347.324C224.769 347.876 225.081 348.644 225.081 349.628V354.74H226.143V356H225.333ZM221.193 354.992C221.553 354.992 221.883 354.95 222.183 354.866C222.483 354.782 222.741 354.662 222.957 354.506C223.173 354.35 223.341 354.17 223.461 353.966C223.581 353.762 223.641 353.54 223.641 353.3V351.77H221.733C220.905 351.77 220.299 351.89 219.915 352.13C219.543 352.37 219.357 352.718 219.357 353.174V353.552C219.357 354.008 219.519 354.362 219.843 354.614C220.179 354.866 220.629 354.992 221.193 354.992ZM230.25 356C229.746 356 229.362 355.862 229.098 355.586C228.846 355.298 228.72 354.926 228.72 354.47V347.972H227.19V346.712H228.054C228.366 346.712 228.576 346.652 228.684 346.532C228.804 346.4 228.864 346.178 228.864 345.866V344.138H230.16V346.712H232.194V347.972H230.16V354.74H232.05V356H230.25ZM237.93 356.216C237.294 356.216 236.718 356.102 236.202 355.874C235.698 355.646 235.26 355.322 234.888 354.902C234.528 354.47 234.246 353.96 234.042 353.372C233.85 352.772 233.754 352.1 233.754 351.356C233.754 350.624 233.85 349.958 234.042 349.358C234.246 348.758 234.528 348.248 234.888 347.828C235.26 347.396 235.698 347.066 236.202 346.838C236.718 346.61 237.294 346.496 237.93 346.496C238.554 346.496 239.112 346.61 239.604 346.838C240.096 347.066 240.516 347.384 240.864 347.792C241.212 348.188 241.476 348.662 241.656 349.214C241.848 349.766 241.944 350.372 241.944 351.032V351.716H235.266V352.148C235.266 352.544 235.326 352.916 235.446 353.264C235.578 353.6 235.758 353.894 235.986 354.146C236.226 354.398 236.514 354.596 236.85 354.74C237.198 354.884 237.588 354.956 238.02 354.956C238.608 354.956 239.118 354.818 239.55 354.542C239.994 354.266 240.336 353.87 240.576 353.354L241.602 354.092C241.302 354.728 240.834 355.244 240.198 355.64C239.562 356.024 238.806 356.216 237.93 356.216ZM237.93 347.702C237.534 347.702 237.174 347.774 236.85 347.918C236.526 348.05 236.244 348.242 236.004 348.494C235.776 348.746 235.596 349.046 235.464 349.394C235.332 349.73 235.266 350.102 235.266 350.51V350.636H240.396V350.438C240.396 349.61 240.168 348.95 239.712 348.458C239.268 347.954 238.674 347.702 237.93 347.702ZM244.884 353.894C245.268 353.894 245.544 353.996 245.712 354.2C245.892 354.392 245.982 354.644 245.982 354.956V355.208C245.982 355.7 245.838 356.24 245.55 356.828C245.262 357.428 244.86 357.95 244.344 358.394H243.138C243.498 358.01 243.786 357.644 244.002 357.296C244.23 356.96 244.392 356.582 244.488 356.162C244.248 356.102 244.068 355.988 243.948 355.82C243.84 355.652 243.786 355.448 243.786 355.208V354.956C243.786 354.644 243.87 354.392 244.038 354.2C244.218 353.996 244.5 353.894 244.884 353.894ZM253.124 356V346.712H254.564V348.422H254.654C254.822 347.978 255.122 347.582 255.554 347.234C255.986 346.886 256.58 346.712 257.336 346.712H257.894V348.152H257.048C256.268 348.152 255.656 348.302 255.212 348.602C254.78 348.89 254.564 349.256 254.564 349.7V356H253.124ZM263.137 356.216C262.501 356.216 261.925 356.102 261.409 355.874C260.905 355.646 260.467 355.322 260.095 354.902C259.735 354.47 259.453 353.96 259.249 353.372C259.057 352.772 258.961 352.1 258.961 351.356C258.961 350.624 259.057 349.958 259.249 349.358C259.453 348.758 259.735 348.248 260.095 347.828C260.467 347.396 260.905 347.066 261.409 346.838C261.925 346.61 262.501 346.496 263.137 346.496C263.761 346.496 264.319 346.61 264.811 346.838C265.303 347.066 265.723 347.384 266.071 347.792C266.419 348.188 266.683 348.662 266.863 349.214C267.055 349.766 267.151 350.372 267.151 351.032V351.716H260.473V352.148C260.473 352.544 260.533 352.916 260.653 353.264C260.785 353.6 260.965 353.894 261.193 354.146C261.433 354.398 261.721 354.596 262.057 354.74C262.405 354.884 262.795 354.956 263.227 354.956C263.815 354.956 264.325 354.818 264.757 354.542C265.201 354.266 265.543 353.87 265.783 353.354L266.809 354.092C266.509 354.728 266.041 355.244 265.405 355.64C264.769 356.024 264.013 356.216 263.137 356.216ZM263.137 347.702C262.741 347.702 262.381 347.774 262.057 347.918C261.733 348.05 261.451 348.242 261.211 348.494C260.983 348.746 260.803 349.046 260.671 349.394C260.539 349.73 260.473 350.102 260.473 350.51V350.636H265.603V350.438C265.603 349.61 265.375 348.95 264.919 348.458C264.475 347.954 263.881 347.702 263.137 347.702ZM269.524 356V346.712H270.964V348.224H271.036C271.144 347.984 271.264 347.762 271.396 347.558C271.54 347.342 271.708 347.156 271.9 347C272.104 346.844 272.338 346.724 272.602 346.64C272.866 346.544 273.178 346.496 273.538 346.496C274.15 346.496 274.714 346.646 275.23 346.946C275.746 347.234 276.13 347.714 276.382 348.386H276.418C276.586 347.882 276.898 347.444 277.354 347.072C277.822 346.688 278.452 346.496 279.244 346.496C280.192 346.496 280.93 346.808 281.458 347.432C281.998 348.044 282.268 348.914 282.268 350.042V356H280.828V350.294C280.828 349.466 280.666 348.842 280.342 348.422C280.018 348.002 279.502 347.792 278.794 347.792C278.506 347.792 278.23 347.828 277.966 347.9C277.714 347.972 277.486 348.08 277.282 348.224C277.078 348.368 276.916 348.554 276.796 348.782C276.676 348.998 276.616 349.256 276.616 349.556V356H275.176V350.294C275.176 349.466 275.014 348.842 274.69 348.422C274.366 348.002 273.862 347.792 273.178 347.792C272.89 347.792 272.614 347.828 272.35 347.9C272.086 347.972 271.852 348.08 271.648 348.224C271.444 348.368 271.276 348.554 271.144 348.782C271.024 348.998 270.964 349.256 270.964 349.556V356H269.524ZM288.749 356.216C288.125 356.216 287.555 356.102 287.039 355.874C286.523 355.646 286.079 355.322 285.707 354.902C285.347 354.47 285.065 353.96 284.861 353.372C284.657 352.772 284.555 352.1 284.555 351.356C284.555 350.624 284.657 349.958 284.861 349.358C285.065 348.758 285.347 348.248 285.707 347.828C286.079 347.396 286.523 347.066 287.039 346.838C287.555 346.61 288.125 346.496 288.749 346.496C289.373 346.496 289.937 346.61 290.441 346.838C290.957 347.066 291.401 347.396 291.773 347.828C292.145 348.248 292.433 348.758 292.637 349.358C292.841 349.958 292.943 350.624 292.943 351.356C292.943 352.1 292.841 352.772 292.637 353.372C292.433 353.96 292.145 354.47 291.773 354.902C291.401 355.322 290.957 355.646 290.441 355.874C289.937 356.102 289.373 356.216 288.749 356.216ZM288.749 354.938C289.529 354.938 290.165 354.698 290.657 354.218C291.149 353.738 291.395 353.006 291.395 352.022V350.69C291.395 349.706 291.149 348.974 290.657 348.494C290.165 348.014 289.529 347.774 288.749 347.774C287.969 347.774 287.333 348.014 286.841 348.494C286.349 348.974 286.103 349.706 286.103 350.69V352.022C286.103 353.006 286.349 353.738 286.841 354.218C287.333 354.698 287.969 354.938 288.749 354.938ZM297.223 356L293.965 346.712H295.405L297.025 351.32L298.033 354.488H298.123L299.131 351.32L300.787 346.712H302.173L298.897 356H297.223ZM307.381 356.216C306.745 356.216 306.169 356.102 305.653 355.874C305.149 355.646 304.711 355.322 304.339 354.902C303.979 354.47 303.697 353.96 303.493 353.372C303.301 352.772 303.205 352.1 303.205 351.356C303.205 350.624 303.301 349.958 303.493 349.358C303.697 348.758 303.979 348.248 304.339 347.828C304.711 347.396 305.149 347.066 305.653 346.838C306.169 346.61 306.745 346.496 307.381 346.496C308.005 346.496 308.563 346.61 309.055 346.838C309.547 347.066 309.967 347.384 310.315 347.792C310.663 348.188 310.927 348.662 311.107 349.214C311.299 349.766 311.395 350.372 311.395 351.032V351.716H304.717V352.148C304.717 352.544 304.777 352.916 304.897 353.264C305.029 353.6 305.209 353.894 305.437 354.146C305.677 354.398 305.965 354.596 306.301 354.74C306.649 354.884 307.039 354.956 307.471 354.956C308.059 354.956 308.569 354.818 309.001 354.542C309.445 354.266 309.787 353.87 310.027 353.354L311.053 354.092C310.753 354.728 310.285 355.244 309.649 355.64C309.013 356.024 308.257 356.216 307.381 356.216ZM307.381 347.702C306.985 347.702 306.625 347.774 306.301 347.918C305.977 348.05 305.695 348.242 305.455 348.494C305.227 348.746 305.047 349.046 304.915 349.394C304.783 349.73 304.717 350.102 304.717 350.51V350.636H309.847V350.438C309.847 349.61 309.619 348.95 309.163 348.458C308.719 347.954 308.125 347.702 307.381 347.702ZM319.708 354.488H319.636C319.072 355.64 318.166 356.216 316.918 356.216C316.342 356.216 315.82 356.102 315.352 355.874C314.884 355.646 314.482 355.322 314.146 354.902C313.822 354.482 313.57 353.972 313.39 353.372C313.222 352.772 313.138 352.1 313.138 351.356C313.138 350.612 313.222 349.94 313.39 349.34C313.57 348.74 313.822 348.23 314.146 347.81C314.482 347.39 314.884 347.066 315.352 346.838C315.82 346.61 316.342 346.496 316.918 346.496C317.566 346.496 318.118 346.64 318.574 346.928C319.042 347.204 319.396 347.636 319.636 348.224H319.708V342.68H321.148V356H319.708V354.488ZM317.314 354.92C317.638 354.92 317.944 354.878 318.232 354.794C318.532 354.71 318.79 354.59 319.006 354.434C319.222 354.266 319.39 354.068 319.51 353.84C319.642 353.6 319.708 353.33 319.708 353.03V349.574C319.708 349.322 319.642 349.088 319.51 348.872C319.39 348.644 319.222 348.452 319.006 348.296C318.79 348.14 318.532 348.02 318.232 347.936C317.944 347.84 317.638 347.792 317.314 347.792C316.498 347.792 315.856 348.05 315.388 348.566C314.92 349.07 314.686 349.736 314.686 350.564V352.148C314.686 352.976 314.92 353.648 315.388 354.164C315.856 354.668 316.498 354.92 317.314 354.92ZM325.128 353.894C325.512 353.894 325.788 353.996 325.956 354.2C326.136 354.392 326.226 354.644 326.226 354.956V355.208C326.226 355.7 326.082 356.24 325.794 356.828C325.506 357.428 325.104 357.95 324.588 358.394H323.382C323.742 358.01 324.03 357.644 324.246 357.296C324.474 356.96 324.636 356.582 324.732 356.162C324.492 356.102 324.312 355.988 324.192 355.82C324.084 355.652 324.03 355.448 324.03 355.208V354.956C324.03 354.644 324.114 354.392 324.282 354.2C324.462 353.996 324.744 353.894 325.128 353.894ZM336.878 356.216C336.254 356.216 335.684 356.102 335.168 355.874C334.652 355.646 334.208 355.322 333.836 354.902C333.476 354.47 333.194 353.96 332.99 353.372C332.786 352.772 332.684 352.1 332.684 351.356C332.684 350.624 332.786 349.958 332.99 349.358C333.194 348.758 333.476 348.248 333.836 347.828C334.208 347.396 334.652 347.066 335.168 346.838C335.684 346.61 336.254 346.496 336.878 346.496C337.502 346.496 338.066 346.61 338.57 346.838C339.086 347.066 339.53 347.396 339.902 347.828C340.274 348.248 340.562 348.758 340.766 349.358C340.97 349.958 341.072 350.624 341.072 351.356C341.072 352.1 340.97 352.772 340.766 353.372C340.562 353.96 340.274 354.47 339.902 354.902C339.53 355.322 339.086 355.646 338.57 355.874C338.066 356.102 337.502 356.216 336.878 356.216ZM336.878 354.938C337.658 354.938 338.294 354.698 338.786 354.218C339.278 353.738 339.524 353.006 339.524 352.022V350.69C339.524 349.706 339.278 348.974 338.786 348.494C338.294 348.014 337.658 347.774 336.878 347.774C336.098 347.774 335.462 348.014 334.97 348.494C334.478 348.974 334.232 349.706 334.232 350.69V352.022C334.232 353.006 334.478 353.738 334.97 354.218C335.462 354.698 336.098 354.938 336.878 354.938ZM343.44 356V346.712H344.88V348.422H344.97C345.138 347.978 345.438 347.582 345.87 347.234C346.302 346.886 346.896 346.712 347.652 346.712H348.21V348.152H347.364C346.584 348.152 345.972 348.302 345.528 348.602C345.096 348.89 344.88 349.256 344.88 349.7V356H343.44ZM361.053 356C360.513 356 360.123 355.856 359.883 355.568C359.655 355.28 359.511 354.92 359.451 354.488H359.361C359.157 355.064 358.821 355.496 358.353 355.784C357.885 356.072 357.327 356.216 356.679 356.216C355.695 356.216 354.927 355.964 354.375 355.46C353.835 354.956 353.565 354.272 353.565 353.408C353.565 352.532 353.883 351.86 354.519 351.392C355.167 350.924 356.169 350.69 357.525 350.69H359.361V349.772C359.361 349.112 359.181 348.608 358.821 348.26C358.461 347.912 357.909 347.738 357.165 347.738C356.601 347.738 356.127 347.864 355.743 348.116C355.371 348.368 355.059 348.704 354.807 349.124L353.943 348.314C354.195 347.81 354.597 347.384 355.149 347.036C355.701 346.676 356.397 346.496 357.237 346.496C358.365 346.496 359.241 346.772 359.865 347.324C360.489 347.876 360.801 348.644 360.801 349.628V354.74H361.863V356H361.053ZM356.913 354.992C357.273 354.992 357.603 354.95 357.903 354.866C358.203 354.782 358.461 354.662 358.677 354.506C358.893 354.35 359.061 354.17 359.181 353.966C359.301 353.762 359.361 353.54 359.361 353.3V351.77H357.453C356.625 351.77 356.019 351.89 355.635 352.13C355.263 352.37 355.077 352.718 355.077 353.174V353.552C355.077 354.008 355.239 354.362 355.563 354.614C355.899 354.866 356.349 354.992 356.913 354.992ZM363.919 356V346.712H365.359V348.224H365.431C365.659 347.696 365.977 347.276 366.385 346.964C366.805 346.652 367.363 346.496 368.059 346.496C369.019 346.496 369.775 346.808 370.327 347.432C370.891 348.044 371.173 348.914 371.173 350.042V356H369.733V350.294C369.733 348.626 369.031 347.792 367.627 347.792C367.339 347.792 367.057 347.828 366.781 347.9C366.517 347.972 366.277 348.08 366.061 348.224C365.845 348.368 365.671 348.554 365.539 348.782C365.419 348.998 365.359 349.256 365.359 349.556V356H363.919ZM379.123 344.534C378.811 344.534 378.583 344.462 378.439 344.318C378.307 344.162 378.241 343.964 378.241 343.724V343.49C378.241 343.25 378.307 343.058 378.439 342.914C378.583 342.758 378.811 342.68 379.123 342.68C379.435 342.68 379.657 342.758 379.789 342.914C379.933 343.058 380.005 343.25 380.005 343.49V343.724C380.005 343.964 379.933 344.162 379.789 344.318C379.657 344.462 379.435 344.534 379.123 344.534ZM378.403 346.712H379.843V356H378.403V346.712ZM382.903 356V346.712H384.343V348.224H384.415C384.643 347.696 384.961 347.276 385.369 346.964C385.789 346.652 386.347 346.496 387.043 346.496C388.003 346.496 388.759 346.808 389.311 347.432C389.875 348.044 390.157 348.914 390.157 350.042V356H388.717V350.294C388.717 348.626 388.015 347.792 386.611 347.792C386.323 347.792 386.041 347.828 385.765 347.9C385.501 347.972 385.261 348.08 385.045 348.224C384.829 348.368 384.655 348.554 384.523 348.782C384.403 348.998 384.343 349.256 384.343 349.556V356H382.903ZM395.045 356L391.787 346.712H393.227L394.847 351.32L395.855 354.488H395.945L396.953 351.32L398.609 346.712H399.995L396.719 356H395.045ZM408.444 356C407.904 356 407.514 355.856 407.274 355.568C407.046 355.28 406.902 354.92 406.842 354.488H406.752C406.548 355.064 406.212 355.496 405.744 355.784C405.276 356.072 404.718 356.216 404.07 356.216C403.086 356.216 402.318 355.964 401.766 355.46C401.226 354.956 400.956 354.272 400.956 353.408C400.956 352.532 401.274 351.86 401.91 351.392C402.558 350.924 403.56 350.69 404.916 350.69H406.752V349.772C406.752 349.112 406.572 348.608 406.212 348.26C405.852 347.912 405.3 347.738 404.556 347.738C403.992 347.738 403.518 347.864 403.134 348.116C402.762 348.368 402.45 348.704 402.198 349.124L401.334 348.314C401.586 347.81 401.988 347.384 402.54 347.036C403.092 346.676 403.788 346.496 404.628 346.496C405.756 346.496 406.632 346.772 407.256 347.324C407.88 347.876 408.192 348.644 408.192 349.628V354.74H409.254V356H408.444ZM404.304 354.992C404.664 354.992 404.994 354.95 405.294 354.866C405.594 354.782 405.852 354.662 406.068 354.506C406.284 354.35 406.452 354.17 406.572 353.966C406.692 353.762 406.752 353.54 406.752 353.3V351.77H404.844C404.016 351.77 403.41 351.89 403.026 352.13C402.654 352.37 402.468 352.718 402.468 353.174V353.552C402.468 354.008 402.63 354.362 402.954 354.614C403.29 354.866 403.74 354.992 404.304 354.992ZM412.839 356C412.335 356 411.951 355.862 411.687 355.586C411.435 355.298 411.309 354.938 411.309 354.506V342.68H412.749V354.74H414.117V356H412.839ZM416.934 344.534C416.622 344.534 416.394 344.462 416.25 344.318C416.118 344.162 416.052 343.964 416.052 343.724V343.49C416.052 343.25 416.118 343.058 416.25 342.914C416.394 342.758 416.622 342.68 416.934 342.68C417.246 342.68 417.468 342.758 417.6 342.914C417.744 343.058 417.816 343.25 417.816 343.49V343.724C417.816 343.964 417.744 344.162 417.6 344.318C417.468 344.462 417.246 344.534 416.934 344.534ZM416.214 346.712H417.654V356H416.214V346.712ZM426.654 354.488H426.582C426.018 355.64 425.112 356.216 423.864 356.216C423.288 356.216 422.766 356.102 422.298 355.874C421.83 355.646 421.428 355.322 421.092 354.902C420.768 354.482 420.516 353.972 420.336 353.372C420.168 352.772 420.084 352.1 420.084 351.356C420.084 350.612 420.168 349.94 420.336 349.34C420.516 348.74 420.768 348.23 421.092 347.81C421.428 347.39 421.83 347.066 422.298 346.838C422.766 346.61 423.288 346.496 423.864 346.496C424.512 346.496 425.064 346.64 425.52 346.928C425.988 347.204 426.342 347.636 426.582 348.224H426.654V342.68H428.094V356H426.654V354.488ZM424.26 354.92C424.584 354.92 424.89 354.878 425.178 354.794C425.478 354.71 425.736 354.59 425.952 354.434C426.168 354.266 426.336 354.068 426.456 353.84C426.588 353.6 426.654 353.33 426.654 353.03V349.574C426.654 349.322 426.588 349.088 426.456 348.872C426.336 348.644 426.168 348.452 425.952 348.296C425.736 348.14 425.478 348.02 425.178 347.936C424.89 347.84 424.584 347.792 424.26 347.792C423.444 347.792 422.802 348.05 422.334 348.566C421.866 349.07 421.632 349.736 421.632 350.564V352.148C421.632 352.976 421.866 353.648 422.334 354.164C422.802 354.668 423.444 354.92 424.26 354.92ZM436.975 343.436V351.212C436.975 352.412 437.197 353.324 437.641 353.948C438.085 354.56 438.865 354.866 439.981 354.866C441.097 354.866 441.877 354.56 442.321 353.948C442.765 353.324 442.987 352.412 442.987 351.212V343.436H444.499V350.852C444.499 351.764 444.415 352.556 444.247 353.228C444.091 353.9 443.833 354.458 443.473 354.902C443.113 355.346 442.639 355.676 442.051 355.892C441.475 356.108 440.767 356.216 439.927 356.216C439.087 356.216 438.379 356.108 437.803 355.892C437.239 355.676 436.783 355.346 436.435 354.902C436.087 354.458 435.835 353.9 435.679 353.228C435.535 352.556 435.463 351.764 435.463 350.852V343.436H436.975ZM449.264 356H447.752V343.436H452.756C453.86 343.436 454.718 343.742 455.33 344.354C455.954 344.966 456.266 345.848 456.266 347C456.266 347.924 456.05 348.686 455.618 349.286C455.198 349.874 454.574 350.264 453.746 350.456L456.626 356H454.916L452.198 350.6H449.264V356ZM452.756 349.304C453.356 349.304 453.818 349.148 454.142 348.836C454.478 348.524 454.646 348.08 454.646 347.504V346.568C454.646 345.992 454.478 345.548 454.142 345.236C453.818 344.924 453.356 344.768 452.756 344.768H449.264V349.304H452.756ZM459.266 356V343.436H460.778V354.668H466.124V356H459.266ZM471.421 346.712H472.825L473.815 350.726L474.805 354.794H474.841L475.975 350.726L477.145 346.712H478.423L479.629 350.726L480.781 354.794H480.817L481.771 350.726L482.779 346.712H484.129L481.663 356H479.881L478.585 351.536L477.775 348.71H477.739L476.947 351.536L475.651 356H473.905L471.421 346.712ZM492.801 356C492.261 356 491.871 355.856 491.631 355.568C491.403 355.28 491.259 354.92 491.199 354.488H491.109C490.905 355.064 490.569 355.496 490.101 355.784C489.633 356.072 489.075 356.216 488.427 356.216C487.443 356.216 486.675 355.964 486.123 355.46C485.583 354.956 485.313 354.272 485.313 353.408C485.313 352.532 485.631 351.86 486.267 351.392C486.915 350.924 487.917 350.69 489.273 350.69H491.109V349.772C491.109 349.112 490.929 348.608 490.569 348.26C490.209 347.912 489.657 347.738 488.913 347.738C488.349 347.738 487.875 347.864 487.491 348.116C487.119 348.368 486.807 348.704 486.555 349.124L485.691 348.314C485.943 347.81 486.345 347.384 486.897 347.036C487.449 346.676 488.145 346.496 488.985 346.496C490.113 346.496 490.989 346.772 491.613 347.324C492.237 347.876 492.549 348.644 492.549 349.628V354.74H493.611V356H492.801ZM488.661 354.992C489.021 354.992 489.351 354.95 489.651 354.866C489.951 354.782 490.209 354.662 490.425 354.506C490.641 354.35 490.809 354.17 490.929 353.966C491.049 353.762 491.109 353.54 491.109 353.3V351.77H489.201C488.373 351.77 487.767 351.89 487.383 352.13C487.011 352.37 486.825 352.718 486.825 353.174V353.552C486.825 354.008 486.987 354.362 487.311 354.614C487.647 354.866 488.097 354.992 488.661 354.992ZM498.457 356.216C497.593 356.216 496.867 356.054 496.279 355.73C495.703 355.394 495.205 354.95 494.785 354.398L495.811 353.57C496.171 354.026 496.573 354.38 497.017 354.632C497.461 354.872 497.977 354.992 498.565 354.992C499.177 354.992 499.651 354.86 499.987 354.596C500.335 354.332 500.509 353.96 500.509 353.48C500.509 353.12 500.389 352.814 500.149 352.562C499.921 352.298 499.501 352.118 498.889 352.022L498.151 351.914C497.719 351.854 497.323 351.764 496.963 351.644C496.603 351.512 496.285 351.344 496.009 351.14C495.745 350.924 495.535 350.66 495.379 350.348C495.235 350.036 495.163 349.664 495.163 349.232C495.163 348.776 495.247 348.38 495.415 348.044C495.583 347.696 495.811 347.408 496.099 347.18C496.399 346.952 496.753 346.784 497.161 346.676C497.569 346.556 498.007 346.496 498.475 346.496C499.231 346.496 499.861 346.628 500.365 346.892C500.881 347.156 501.331 347.522 501.715 347.99L500.761 348.854C500.557 348.566 500.257 348.308 499.861 348.08C499.465 347.84 498.967 347.72 498.367 347.72C497.767 347.72 497.311 347.852 496.999 348.116C496.699 348.368 496.549 348.716 496.549 349.16C496.549 349.616 496.699 349.946 496.999 350.15C497.311 350.354 497.755 350.504 498.331 350.6L499.051 350.708C500.083 350.864 500.815 351.164 501.247 351.608C501.679 352.04 501.895 352.61 501.895 353.318C501.895 354.218 501.589 354.926 500.977 355.442C500.365 355.958 499.525 356.216 498.457 356.216ZM512.184 356.216C511.548 356.216 510.972 356.102 510.456 355.874C509.952 355.646 509.514 355.322 509.142 354.902C508.782 354.47 508.5 353.96 508.296 353.372C508.104 352.772 508.008 352.1 508.008 351.356C508.008 350.624 508.104 349.958 508.296 349.358C508.5 348.758 508.782 348.248 509.142 347.828C509.514 347.396 509.952 347.066 510.456 346.838C510.972 346.61 511.548 346.496 512.184 346.496C512.808 346.496 513.366 346.61 513.858 346.838C514.35 347.066 514.77 347.384 515.118 347.792C515.466 348.188 515.73 348.662 515.91 349.214C516.102 349.766 516.198 350.372 516.198 351.032V351.716H509.52V352.148C509.52 352.544 509.58 352.916 509.7 353.264C509.832 353.6 510.012 353.894 510.24 354.146C510.48 354.398 510.768 354.596 511.104 354.74C511.452 354.884 511.842 354.956 512.274 354.956C512.862 354.956 513.372 354.818 513.804 354.542C514.248 354.266 514.59 353.87 514.83 353.354L515.856 354.092C515.556 354.728 515.088 355.244 514.452 355.64C513.816 356.024 513.06 356.216 512.184 356.216ZM512.184 347.702C511.788 347.702 511.428 347.774 511.104 347.918C510.78 348.05 510.498 348.242 510.258 348.494C510.03 348.746 509.85 349.046 509.718 349.394C509.586 349.73 509.52 350.102 509.52 350.51V350.636H514.65V350.438C514.65 349.61 514.422 348.95 513.966 348.458C513.522 347.954 512.928 347.702 512.184 347.702ZM518.571 356V346.712H520.011V348.224H520.083C520.311 347.696 520.629 347.276 521.037 346.964C521.457 346.652 522.015 346.496 522.711 346.496C523.671 346.496 524.427 346.808 524.979 347.432C525.543 348.044 525.825 348.914 525.825 350.042V356H524.385V350.294C524.385 348.626 523.683 347.792 522.279 347.792C521.991 347.792 521.709 347.828 521.433 347.9C521.169 347.972 520.929 348.08 520.713 348.224C520.497 348.368 520.323 348.554 520.191 348.782C520.071 348.998 520.011 349.256 520.011 349.556V356H518.571ZM530.853 356C530.349 356 529.965 355.862 529.701 355.586C529.449 355.298 529.323 354.926 529.323 354.47V347.972H527.793V346.712H528.657C528.969 346.712 529.179 346.652 529.287 346.532C529.407 346.4 529.467 346.178 529.467 345.866V344.138H530.763V346.712H532.797V347.972H530.763V354.74H532.653V356H530.853ZM538.534 356.216C537.898 356.216 537.322 356.102 536.806 355.874C536.302 355.646 535.864 355.322 535.492 354.902C535.132 354.47 534.85 353.96 534.646 353.372C534.454 352.772 534.358 352.1 534.358 351.356C534.358 350.624 534.454 349.958 534.646 349.358C534.85 348.758 535.132 348.248 535.492 347.828C535.864 347.396 536.302 347.066 536.806 346.838C537.322 346.61 537.898 346.496 538.534 346.496C539.158 346.496 539.716 346.61 540.208 346.838C540.7 347.066 541.12 347.384 541.468 347.792C541.816 348.188 542.08 348.662 542.26 349.214C542.452 349.766 542.548 350.372 542.548 351.032V351.716H535.87V352.148C535.87 352.544 535.93 352.916 536.05 353.264C536.182 353.6 536.362 353.894 536.59 354.146C536.83 354.398 537.118 354.596 537.454 354.74C537.802 354.884 538.192 354.956 538.624 354.956C539.212 354.956 539.722 354.818 540.154 354.542C540.598 354.266 540.94 353.87 541.18 353.354L542.206 354.092C541.906 354.728 541.438 355.244 540.802 355.64C540.166 356.024 539.41 356.216 538.534 356.216ZM538.534 347.702C538.138 347.702 537.778 347.774 537.454 347.918C537.13 348.05 536.848 348.242 536.608 348.494C536.38 348.746 536.2 349.046 536.068 349.394C535.936 349.73 535.87 350.102 535.87 350.51V350.636H541V350.438C541 349.61 540.772 348.95 540.316 348.458C539.872 347.954 539.278 347.702 538.534 347.702ZM544.921 356V346.712H546.361V348.422H546.451C546.619 347.978 546.919 347.582 547.351 347.234C547.783 346.886 548.377 346.712 549.133 346.712H549.691V348.152H548.845C548.065 348.152 547.453 348.302 547.009 348.602C546.577 348.89 546.361 349.256 546.361 349.7V356H544.921ZM554.934 356.216C554.298 356.216 553.722 356.102 553.206 355.874C552.702 355.646 552.264 355.322 551.892 354.902C551.532 354.47 551.25 353.96 551.046 353.372C550.854 352.772 550.758 352.1 550.758 351.356C550.758 350.624 550.854 349.958 551.046 349.358C551.25 348.758 551.532 348.248 551.892 347.828C552.264 347.396 552.702 347.066 553.206 346.838C553.722 346.61 554.298 346.496 554.934 346.496C555.558 346.496 556.116 346.61 556.608 346.838C557.1 347.066 557.52 347.384 557.868 347.792C558.216 348.188 558.48 348.662 558.66 349.214C558.852 349.766 558.948 350.372 558.948 351.032V351.716H552.27V352.148C552.27 352.544 552.33 352.916 552.45 353.264C552.582 353.6 552.762 353.894 552.99 354.146C553.23 354.398 553.518 354.596 553.854 354.74C554.202 354.884 554.592 354.956 555.024 354.956C555.612 354.956 556.122 354.818 556.554 354.542C556.998 354.266 557.34 353.87 557.58 353.354L558.606 354.092C558.306 354.728 557.838 355.244 557.202 355.64C556.566 356.024 555.81 356.216 554.934 356.216ZM554.934 347.702C554.538 347.702 554.178 347.774 553.854 347.918C553.53 348.05 553.248 348.242 553.008 348.494C552.78 348.746 552.6 349.046 552.468 349.394C552.336 349.73 552.27 350.102 552.27 350.51V350.636H557.4V350.438C557.4 349.61 557.172 348.95 556.716 348.458C556.272 347.954 555.678 347.702 554.934 347.702ZM567.261 354.488H567.189C566.625 355.64 565.719 356.216 564.471 356.216C563.895 356.216 563.373 356.102 562.905 355.874C562.437 355.646 562.035 355.322 561.699 354.902C561.375 354.482 561.123 353.972 560.943 353.372C560.775 352.772 560.691 352.1 560.691 351.356C560.691 350.612 560.775 349.94 560.943 349.34C561.123 348.74 561.375 348.23 561.699 347.81C562.035 347.39 562.437 347.066 562.905 346.838C563.373 346.61 563.895 346.496 564.471 346.496C565.119 346.496 565.671 346.64 566.127 346.928C566.595 347.204 566.949 347.636 567.189 348.224H567.261V342.68H568.701V356H567.261V354.488ZM564.867 354.92C565.191 354.92 565.497 354.878 565.785 354.794C566.085 354.71 566.343 354.59 566.559 354.434C566.775 354.266 566.943 354.068 567.063 353.84C567.195 353.6 567.261 353.33 567.261 353.03V349.574C567.261 349.322 567.195 349.088 567.063 348.872C566.943 348.644 566.775 348.452 566.559 348.296C566.343 348.14 566.085 348.02 565.785 347.936C565.497 347.84 565.191 347.792 564.867 347.792C564.051 347.792 563.409 348.05 562.941 348.566C562.473 349.07 562.239 349.736 562.239 350.564V352.148C562.239 352.976 562.473 353.648 562.941 354.164C563.409 354.668 564.051 354.92 564.867 354.92ZM572.68 356.216C572.296 356.216 572.014 356.12 571.834 355.928C571.666 355.736 571.582 355.484 571.582 355.172V354.938C571.582 354.626 571.666 354.374 571.834 354.182C572.014 353.99 572.296 353.894 572.68 353.894C573.064 353.894 573.34 353.99 573.508 354.182C573.688 354.374 573.778 354.626 573.778 354.938V355.172C573.778 355.484 573.688 355.736 573.508 355.928C573.34 356.12 573.064 356.216 572.68 356.216Z" fill="white" fill-opacity="0.8"/>
<defs>
<filter id="filter0_d_6043_35397" x="0.553467" y="0" width="648.893" height="216" filterUnits="userSpaceOnUse" color-interpolation-filters="sRGB">
<feFlood flood-opacity="0" result="BackgroundImageFix"/>
<feColorMatrix in="SourceAlpha" type="matrix" values="0 0 0 0 0 0 0 0 0 0 0 0 0 0 0 0 0 0 127 0" result="hardAlpha"/>
<feOffset dy="2"/>
<feGaussianBlur stdDeviation="4"/>
<feColorMatrix type="matrix" values="0 0 0 0 0.141176 0 0 0 0 0.133333 0 0 0 0 0.239216 0 0 0 0.12 0"/>
<feBlend mode="normal" in2="BackgroundImageFix" result="effect1_dropShadow_6043_35397"/>
<feBlend mode="normal" in="SourceGraphic" in2="effect1_dropShadow_6043_35397" result="shape"/>
</filter>
<linearGradient id="paint0_linear_6043_35397" x1="325" y1="6" x2="324.875" y2="206" gradientUnits="userSpaceOnUse">
<stop stop-color="white" stop-opacity="0.28"/>
<stop offset="1" stop-color="white" stop-opacity="0.16"/>
</linearGradient>
<linearGradient id="paint1_linear_6043_35397" x1="325" y1="6" x2="324.875" y2="206" gradientUnits="userSpaceOnUse">
<stop stop-color="white" stop-opacity="0.28"/>
<stop offset="1" stop-color="white" stop-opacity="0.16"/>
</linearGradient>
<linearGradient id="paint2_linear_6043_35397" x1="325" y1="6" x2="324.875" y2="206" gradientUnits="userSpaceOnUse">
<stop stop-color="white" stop-opacity="0.28"/>
<stop offset="1" stop-color="white" stop-opacity="0.16"/>
</linearGradient>
<linearGradient id="paint3_linear_6043_35397" x1="436.848" y1="6.00001" x2="397.873" y2="226.588" gradientUnits="userSpaceOnUse">
<stop stop-color="white" stop-opacity="0.32"/>
<stop offset="1" stop-color="white" stop-opacity="0.16"/>
</linearGradient>
</defs>
</svg>
