<svg width="960" height="310" viewBox="0 0 960 310" fill="none" xmlns="http://www.w3.org/2000/svg">
<rect width="960" height="310" fill="white"/>
<path d="M137.586 282.24C136.994 282.24 136.442 282.117 135.93 281.872C135.423 281.627 134.989 281.291 134.626 280.864C134.269 280.432 134.013 279.936 133.858 279.376L135.226 279.008C135.322 279.387 135.493 279.715 135.738 279.992C135.983 280.264 136.269 280.477 136.594 280.632C136.925 280.781 137.269 280.856 137.626 280.856C138.095 280.856 138.517 280.744 138.89 280.52C139.269 280.291 139.567 279.989 139.786 279.616C140.005 279.237 140.114 278.824 140.114 278.376C140.114 277.912 139.999 277.493 139.77 277.12C139.546 276.741 139.245 276.443 138.866 276.224C138.487 276.005 138.074 275.896 137.626 275.896C137.119 275.896 136.685 276.003 136.322 276.216C135.965 276.424 135.682 276.68 135.474 276.984L134.21 276.504L134.562 270.48H140.746V271.832H135.25L135.882 271.24L135.586 276.064L135.274 275.656C135.594 275.315 135.975 275.051 136.418 274.864C136.866 274.677 137.322 274.584 137.786 274.584C138.501 274.584 139.141 274.752 139.706 275.088C140.271 275.419 140.719 275.872 141.05 276.448C141.381 277.019 141.546 277.661 141.546 278.376C141.546 279.085 141.365 279.733 141.002 280.32C140.639 280.901 140.157 281.368 139.554 281.72C138.957 282.067 138.301 282.24 137.586 282.24ZM143.539 274.08L143.627 273.416C143.851 273.432 144.019 273.389 144.131 273.288C144.243 273.187 144.315 273.048 144.347 272.872C144.379 272.696 144.385 272.501 144.363 272.288H143.539V270.48H145.107V272.528C145.107 273.088 144.969 273.509 144.691 273.792C144.419 274.075 144.035 274.171 143.539 274.08ZM151.878 282.24C150.988 282.24 150.201 282.056 149.518 281.688C148.836 281.32 148.3 280.805 147.91 280.144C147.526 279.477 147.334 278.696 147.334 277.8V270.488L148.774 270.48V277.68C148.774 278.224 148.865 278.699 149.046 279.104C149.233 279.504 149.478 279.837 149.782 280.104C150.086 280.371 150.42 280.571 150.782 280.704C151.15 280.832 151.516 280.896 151.878 280.896C152.246 280.896 152.614 280.829 152.982 280.696C153.35 280.563 153.684 280.365 153.982 280.104C154.286 279.837 154.529 279.501 154.71 279.096C154.892 278.691 154.982 278.219 154.982 277.68V270.48H156.422V277.8C156.422 278.691 156.228 279.469 155.838 280.136C155.454 280.803 154.921 281.32 154.238 281.688C153.556 282.056 152.769 282.24 151.878 282.24ZM161.631 282V271.832H157.703V270.48H166.983V271.832H163.055V282H161.631ZM168.256 282V270.48H172.808C172.92 270.48 173.054 270.485 173.208 270.496C173.363 270.501 173.512 270.517 173.656 270.544C174.28 270.64 174.803 270.853 175.224 271.184C175.651 271.515 175.971 271.933 176.184 272.44C176.398 272.941 176.504 273.499 176.504 274.112C176.504 275.003 176.272 275.776 175.808 276.432C175.344 277.083 174.664 277.491 173.768 277.656L173.224 277.744H169.68V282H168.256ZM175.112 282L172.84 277.312L174.248 276.88L176.744 282H175.112ZM169.68 276.392H172.76C172.862 276.392 172.976 276.387 173.104 276.376C173.238 276.365 173.363 276.347 173.48 276.32C173.848 276.235 174.147 276.08 174.376 275.856C174.611 275.627 174.782 275.36 174.888 275.056C174.995 274.747 175.048 274.432 175.048 274.112C175.048 273.792 174.995 273.48 174.888 273.176C174.782 272.867 174.611 272.597 174.376 272.368C174.147 272.139 173.848 271.984 173.48 271.904C173.363 271.872 173.238 271.853 173.104 271.848C172.976 271.837 172.862 271.832 172.76 271.832H169.68V276.392Z" fill="#D3D7E0"/>
<path d="M211.806 282V270.48H213.23V280.648H218.574V282H211.806ZM221.935 282V272.056L219.767 273.368V271.776L221.935 270.48H223.383V282H221.935Z" fill="#D3D7E0"/>
<path d="M244.348 282V270.48H245.772V280.648H251.116V282H244.348ZM252.149 281.992L252.157 280.712L257.269 276.112C257.696 275.728 257.981 275.365 258.125 275.024C258.274 274.677 258.349 274.323 258.349 273.96C258.349 273.517 258.248 273.117 258.045 272.76C257.842 272.403 257.565 272.12 257.213 271.912C256.866 271.704 256.472 271.6 256.029 271.6C255.57 271.6 255.162 271.709 254.805 271.928C254.448 272.141 254.165 272.427 253.957 272.784C253.754 273.141 253.656 273.531 253.661 273.952H252.205C252.205 273.227 252.373 272.587 252.709 272.032C253.045 271.472 253.501 271.035 254.077 270.72C254.658 270.4 255.317 270.24 256.053 270.24C256.768 270.24 257.408 270.405 257.973 270.736C258.538 271.061 258.984 271.507 259.309 272.072C259.64 272.632 259.805 273.267 259.805 273.976C259.805 274.477 259.741 274.912 259.613 275.28C259.49 275.648 259.298 275.989 259.037 276.304C258.776 276.613 258.448 276.944 258.053 277.296L253.805 281.112L253.621 280.632H259.805V281.992H252.149Z" fill="#D3D7E0"/>
<path d="M323.667 282V270.48H330.387V271.904H325.091V275.528H329.427V276.952H325.091V282H323.667ZM331.823 282V270.48H336.375C336.487 270.48 336.62 270.485 336.775 270.496C336.93 270.501 337.079 270.517 337.223 270.544C337.847 270.64 338.37 270.853 338.791 271.184C339.218 271.515 339.538 271.933 339.751 272.44C339.964 272.941 340.071 273.499 340.071 274.112C340.071 275.003 339.839 275.776 339.375 276.432C338.911 277.083 338.231 277.491 337.335 277.656L336.791 277.744H333.247V282H331.823ZM338.679 282L336.407 277.312L337.815 276.88L340.311 282H338.679ZM333.247 276.392H336.327C336.428 276.392 336.543 276.387 336.671 276.376C336.804 276.365 336.93 276.347 337.047 276.32C337.415 276.235 337.714 276.08 337.943 275.856C338.178 275.627 338.348 275.36 338.455 275.056C338.562 274.747 338.615 274.432 338.615 274.112C338.615 273.792 338.562 273.48 338.455 273.176C338.348 272.867 338.178 272.597 337.943 272.368C337.714 272.139 337.415 271.984 337.047 271.904C336.93 271.872 336.804 271.853 336.671 271.848C336.543 271.837 336.428 271.832 336.327 271.832H333.247V276.392ZM344.081 282V272.056L341.913 273.368V271.776L344.081 270.48H345.529V282H344.081Z" fill="#D3D7E0"/>
<path d="M530.111 282V270.48H536.831V271.904H531.535V275.528H535.871V276.952H531.535V282H530.111ZM538.267 282V270.48H542.819C542.931 270.48 543.065 270.485 543.219 270.496C543.374 270.501 543.523 270.517 543.667 270.544C544.291 270.64 544.814 270.853 545.235 271.184C545.662 271.515 545.982 271.933 546.195 272.44C546.409 272.941 546.515 273.499 546.515 274.112C546.515 275.003 546.283 275.776 545.819 276.432C545.355 277.083 544.675 277.491 543.779 277.656L543.235 277.744H539.691V282H538.267ZM545.123 282L542.851 277.312L544.259 276.88L546.755 282H545.123ZM539.691 276.392H542.771C542.873 276.392 542.987 276.387 543.115 276.376C543.249 276.365 543.374 276.347 543.491 276.32C543.859 276.235 544.158 276.08 544.387 275.856C544.622 275.627 544.793 275.36 544.899 275.056C545.006 274.747 545.059 274.432 545.059 274.112C545.059 273.792 545.006 273.48 544.899 273.176C544.793 272.867 544.622 272.597 544.387 272.368C544.158 272.139 543.859 271.984 543.491 271.904C543.374 271.872 543.249 271.853 543.115 271.848C542.987 271.837 542.873 271.832 542.771 271.832H539.691V276.392ZM551.677 282.224C551.107 282.224 550.576 282.12 550.085 281.912C549.595 281.699 549.171 281.4 548.813 281.016C548.461 280.627 548.203 280.165 548.037 279.632L549.405 279.24C549.581 279.773 549.875 280.179 550.285 280.456C550.696 280.733 551.157 280.869 551.669 280.864C552.139 280.853 552.544 280.747 552.885 280.544C553.232 280.336 553.499 280.053 553.685 279.696C553.877 279.339 553.973 278.925 553.973 278.456C553.973 277.741 553.76 277.163 553.333 276.72C552.907 276.272 552.347 276.048 551.653 276.048C551.461 276.048 551.259 276.075 551.045 276.128C550.837 276.181 550.643 276.256 550.461 276.352L549.773 275.224L554.045 271.36L554.229 271.84H548.493V270.48H555.285V271.848L551.645 275.336L551.629 274.832C552.392 274.779 553.059 274.904 553.629 275.208C554.2 275.512 554.643 275.947 554.957 276.512C555.277 277.077 555.437 277.725 555.437 278.456C555.437 279.192 555.272 279.843 554.941 280.408C554.611 280.973 554.163 281.419 553.597 281.744C553.032 282.064 552.392 282.224 551.677 282.224Z" fill="#D3D7E0"/>
<path d="M461.865 253V250.256H464.609V253H461.865ZM469.412 253V250.256H472.156V253H469.412ZM476.959 253V250.256H479.703V253H476.959Z" fill="#D3D7E0"/>
<path d="M626.004 282.24C624.858 282.24 623.884 281.987 623.084 281.48C622.284 280.973 621.674 280.269 621.252 279.368C620.836 278.467 620.628 277.424 620.628 276.24C620.628 275.056 620.836 274.013 621.252 273.112C621.674 272.211 622.284 271.507 623.084 271C623.884 270.493 624.858 270.24 626.004 270.24C627.338 270.24 628.434 270.579 629.292 271.256C630.156 271.933 630.751 272.845 631.076 273.992L629.628 274.376C629.394 273.517 628.975 272.84 628.372 272.344C627.77 271.848 626.98 271.6 626.004 271.6C625.146 271.6 624.431 271.795 623.86 272.184C623.29 272.573 622.86 273.117 622.572 273.816C622.284 274.509 622.138 275.317 622.132 276.24C622.127 277.157 622.268 277.965 622.556 278.664C622.844 279.357 623.276 279.901 623.852 280.296C624.428 280.685 625.146 280.88 626.004 280.88C626.98 280.88 627.77 280.632 628.372 280.136C628.975 279.635 629.394 278.957 629.628 278.104L631.076 278.488C630.751 279.629 630.156 280.541 629.292 281.224C628.434 281.901 627.338 282.24 626.004 282.24ZM632.831 282V270.48H636.383C636.5 270.48 636.706 270.483 636.999 270.488C637.292 270.493 637.572 270.515 637.839 270.552C638.73 270.669 639.474 270.995 640.071 271.528C640.674 272.056 641.127 272.728 641.431 273.544C641.735 274.36 641.887 275.259 641.887 276.24C641.887 277.221 641.735 278.12 641.431 278.936C641.127 279.752 640.674 280.427 640.071 280.96C639.474 281.488 638.73 281.811 637.839 281.928C637.572 281.96 637.29 281.981 636.991 281.992C636.698 281.997 636.495 282 636.383 282H632.831ZM634.295 280.64H636.383C636.586 280.64 636.812 280.635 637.063 280.624C637.314 280.608 637.532 280.584 637.719 280.552C638.348 280.435 638.858 280.171 639.247 279.76C639.636 279.349 639.922 278.837 640.103 278.224C640.284 277.611 640.375 276.949 640.375 276.24C640.375 275.515 640.282 274.845 640.095 274.232C639.914 273.619 639.628 273.109 639.239 272.704C638.85 272.299 638.343 272.04 637.719 271.928C637.532 271.891 637.311 271.867 637.055 271.856C636.799 271.845 636.575 271.84 636.383 271.84H634.295V280.64ZM643.722 282V270.48H648.274C648.386 270.48 648.519 270.485 648.674 270.496C648.828 270.501 648.978 270.517 649.122 270.544C649.746 270.64 650.268 270.853 650.69 271.184C651.116 271.515 651.436 271.933 651.65 272.44C651.863 272.941 651.97 273.499 651.97 274.112C651.97 275.003 651.738 275.776 651.274 276.432C650.81 277.083 650.13 277.491 649.234 277.656L648.69 277.744H645.146V282H643.722ZM650.578 282L648.306 277.312L649.714 276.88L652.21 282H650.578ZM645.146 276.392H648.226C648.327 276.392 648.442 276.387 648.57 276.376C648.703 276.365 648.828 276.347 648.946 276.32C649.314 276.235 649.612 276.08 649.842 275.856C650.076 275.627 650.247 275.36 650.354 275.056C650.46 274.747 650.514 274.432 650.514 274.112C650.514 273.792 650.46 273.48 650.354 273.176C650.247 272.867 650.076 272.597 649.842 272.368C649.612 272.139 649.314 271.984 648.946 271.904C648.828 271.872 648.703 271.853 648.57 271.848C648.442 271.837 648.327 271.832 648.226 271.832H645.146V276.392ZM657.132 282.224C656.561 282.224 656.03 282.12 655.54 281.912C655.049 281.699 654.625 281.4 654.268 281.016C653.916 280.627 653.657 280.165 653.492 279.632L654.86 279.24C655.036 279.773 655.329 280.179 655.74 280.456C656.15 280.733 656.612 280.869 657.124 280.864C657.593 280.853 657.998 280.747 658.34 280.544C658.686 280.336 658.953 280.053 659.14 279.696C659.332 279.339 659.428 278.925 659.428 278.456C659.428 277.741 659.214 277.163 658.788 276.72C658.361 276.272 657.801 276.048 657.108 276.048C656.916 276.048 656.713 276.075 656.5 276.128C656.292 276.181 656.097 276.256 655.916 276.352L655.228 275.224L659.5 271.36L659.684 271.84H653.948V270.48H660.74V271.848L657.1 275.336L657.084 274.832C657.846 274.779 658.513 274.904 659.084 275.208C659.654 275.512 660.097 275.947 660.412 276.512C660.732 277.077 660.892 277.725 660.892 278.456C660.892 279.192 660.726 279.843 660.396 280.408C660.065 280.973 659.617 281.419 659.052 281.744C658.486 282.064 657.846 282.224 657.132 282.224Z" fill="#D3D7E0"/>
<path d="M761.151 282V270.48H767.871V271.904H762.575V275.528H766.911V276.952H762.575V282H761.151ZM769.308 282V270.48H773.86C773.972 270.48 774.105 270.485 774.26 270.496C774.414 270.501 774.564 270.517 774.708 270.544C775.332 270.64 775.854 270.853 776.276 271.184C776.702 271.515 777.022 271.933 777.236 272.44C777.449 272.941 777.556 273.499 777.556 274.112C777.556 275.003 777.324 275.776 776.86 276.432C776.396 277.083 775.716 277.491 774.82 277.656L774.276 277.744H770.732V282H769.308ZM776.164 282L773.892 277.312L775.3 276.88L777.796 282H776.164ZM770.732 276.392H773.812C773.913 276.392 774.028 276.387 774.156 276.376C774.289 276.365 774.414 276.347 774.532 276.32C774.9 276.235 775.198 276.08 775.428 275.856C775.662 275.627 775.833 275.36 775.94 275.056C776.046 274.747 776.1 274.432 776.1 274.112C776.1 273.792 776.046 273.48 775.94 273.176C775.833 272.867 775.662 272.597 775.428 272.368C775.198 272.139 774.9 271.984 774.532 271.904C774.414 271.872 774.289 271.853 774.156 271.848C774.028 271.837 773.913 271.832 773.812 271.832H770.732V276.392ZM784.534 282V279.88H779.238V278.528L783.038 270.48H784.654L780.854 278.528H784.534V275.288H785.974V278.528H787.174V279.88H785.974V282H784.534Z" fill="#D3D7E0"/>
<path d="M568 282V164" stroke="#D3D7E0" stroke-width="2" stroke-dasharray="6 6"/>
<path d="M714 282V164" stroke="#D3D7E0" stroke-width="2" stroke-dasharray="6 6"/>
<path d="M403.944 282V164" stroke="#D3D7E0" stroke-width="2" stroke-dasharray="6 6"/>
<path d="M202 282V164" stroke="#D3D7E0" stroke-width="2" stroke-dasharray="6 6"/>
<path d="M234 282V164" stroke="#D3D7E0" stroke-width="2" stroke-dasharray="6 6"/>
<path d="M266 282V223V164" stroke="#D3D7E0" stroke-width="2" stroke-dasharray="6 6"/>
<path d="M834 282L834 164" stroke="#D3D7E0" stroke-width="2" stroke-dasharray="6 6"/>
<path d="M110 282V60" stroke="#D3D7E0" stroke-width="2" stroke-dasharray="6 6"/>
<g filter="url(#filter0_i_4694_30411)">
<path d="M115 116H438L433 122.5L438 128.5L433 135.5L438 141.5L433 148.5L438 155L433 161.5L438 168H115L110 161.5L115 155L110 148L115 142L110 135.5L115 129L110 122.5L115 116Z" fill="#99E099"/>
</g>
<path d="M115 116H438L433 122.5L438 128.5L433 135.5L438 141.5L433 148.5L438 155L433 161.5L438 168H115L110 161.5L115 155L110 148L115 142L110 135.5L115 129L110 122.5L115 116Z" stroke="#110529" stroke-width="2" stroke-linecap="round"/>
<g filter="url(#filter1_i_4694_30411)">
<path d="M507 116H580.4C580.96 116 581.24 116 581.454 116.109C581.642 116.205 581.795 116.358 581.891 116.546C582 116.76 582 117.04 582 117.6V166.4C582 166.96 582 167.24 581.891 167.454C581.795 167.642 581.642 167.795 581.454 167.891C581.24 168 580.96 168 580.4 168H507L502 161.5L507 155L502 148L507 142L502 135.5L507 129L502 122.5L507 116Z" fill="#99E099"/>
</g>
<path d="M507 116H580.4C580.96 116 581.24 116 581.454 116.109C581.642 116.205 581.795 116.358 581.891 116.546C582 116.76 582 117.04 582 117.6V166.4C582 166.96 582 167.24 581.891 167.454C581.795 167.642 581.642 167.795 581.454 167.891C581.24 168 580.96 168 580.4 168H507L502 161.5L507 155L502 148L507 142L502 135.5L507 129L502 122.5L507 116Z" stroke="#110529" stroke-width="2" stroke-linecap="round"/>
<g filter="url(#filter2_i_4694_30411)">
<rect x="582" y="116" width="32" height="52" rx="1" fill="#CBEB67"/>
</g>
<rect x="582" y="116" width="32" height="52" rx="1" stroke="#110529" stroke-width="2" stroke-linecap="round"/>
<g filter="url(#filter3_i_4694_30411)">
<rect x="666" y="116" width="32" height="52" rx="1" fill="#FAAAFA"/>
</g>
<rect x="666" y="116" width="32" height="52" rx="1" stroke="#110529" stroke-width="2" stroke-linecap="round"/>
<g filter="url(#filter4_i_4694_30411)">
<rect x="614" y="116" width="52" height="52" rx="1" fill="#FFCB8F"/>
</g>
<rect x="614" y="116" width="52" height="52" rx="1" stroke="#110529" stroke-width="2" stroke-linecap="round"/>
<path d="M593.587 135H591.712V150H593.587V138.271L601.421 150H603.296V135H601.421V146.708L593.587 135Z" fill="#110529"/>
<path d="M677.587 135H675.712V150H677.587V138.271L685.421 150H687.296V135H685.421V146.708L677.587 135Z" fill="#110529"/>
<path d="M645.66 142.542C645.66 144.562 645.056 146.646 643.785 148.021C642.556 149.375 640.764 149.979 638.91 149.979H633.868V134.979L638.952 135C640.889 135 642.598 135.646 643.785 136.979C645.139 138.437 645.66 140.458 645.66 142.542ZM643.702 142.542C643.723 140.917 643.348 139.312 642.389 138.208C641.493 137.187 640.306 136.792 638.931 136.771L635.785 136.792V148.187L638.91 148.229C640.285 148.208 641.535 147.75 642.41 146.771C643.348 145.687 643.681 144.062 643.702 142.542Z" fill="#110529"/>
<g filter="url(#filter5_i_4694_30411)">
<path d="M698 117.6C698 117.04 698 116.76 698.109 116.546C698.205 116.358 698.358 116.205 698.546 116.109C698.76 116 699.04 116 699.6 116H832.4C832.96 116 833.24 116 833.454 116.109C833.642 116.205 833.795 116.358 833.891 116.546C834 116.76 834 117.04 834 117.6V166.4C834 166.96 834 167.24 833.891 167.454C833.795 167.642 833.642 167.795 833.454 167.891C833.24 168 832.96 168 832.4 168H699.6C699.04 168 698.76 168 698.546 167.891C698.358 167.795 698.205 167.642 698.109 167.454C698 167.24 698 166.96 698 166.4V117.6Z" fill="#C1ADFF"/>
</g>
<path d="M698 117.6C698 117.04 698 116.76 698.109 116.546C698.205 116.358 698.358 116.205 698.546 116.109C698.76 116 699.04 116 699.6 116H832.4C832.96 116 833.24 116 833.454 116.109C833.642 116.205 833.795 116.358 833.891 116.546C834 116.76 834 117.04 834 117.6V166.4C834 166.96 834 167.24 833.891 167.454C833.795 167.642 833.642 167.795 833.454 167.891C833.24 168 832.96 168 832.4 168H699.6C699.04 168 698.76 168 698.546 167.891C698.358 167.795 698.205 167.642 698.109 167.454C698 167.24 698 166.96 698 166.4V117.6Z" stroke="#110529" stroke-width="2" stroke-linecap="round"/>
<g filter="url(#filter6_i_4694_30411)">
<path d="M850 116H834V168H850L845 161.5L850 155L845 148L850 142L845 135.5L850 129L845 122.5L850 116Z" fill="#FAFAAA"/>
</g>
<path d="M850 116H834V168H850L845 161.5L850 155L845 148L850 142L845 135.5L850 129L845 122.5L850 116Z" stroke="#110529" stroke-width="2" stroke-linecap="round"/>
<g filter="url(#filter7_i_4694_30411)">
<rect x="110" y="24" width="740" height="52" rx="2" fill="#D3D7E0"/>
</g>
<rect x="110" y="24" width="740" height="52" rx="2" stroke="#110529" stroke-width="2" stroke-linecap="round"/>
<path d="M436.861 95.9999L437.558 96.7167L438.295 95.9999L437.558 95.2832L436.861 95.9999ZM429.336 87.2832L428.62 86.5859L427.225 88.0193L427.942 88.7167L429.336 87.2832ZM427.942 103.283L427.225 103.981L428.62 105.414L429.336 104.717L427.942 103.283ZM405 96.9999H436.861V94.9999H405V96.9999ZM437.558 95.2832L429.336 87.2832L427.942 88.7167L436.164 96.7167L437.558 95.2832ZM436.164 95.2832L427.942 103.283L429.336 104.717L437.558 96.7167L436.164 95.2832Z" fill="#110529"/>
<path d="M503.139 95.9999L502.442 96.7167L501.705 95.9999L502.442 95.2832L503.139 95.9999ZM510.664 87.2832L511.38 86.5859L512.775 88.0193L512.058 88.7167L510.664 87.2832ZM512.058 103.283L512.775 103.981L511.38 105.414L510.664 104.717L512.058 103.283ZM535 96.9999H503.139V94.9999H535V96.9999ZM502.442 95.2832L510.664 87.2832L512.058 88.7167L503.836 96.7167L502.442 95.2832ZM503.836 95.2832L512.058 103.283L510.664 104.717L502.442 96.7167L503.836 95.2832Z" fill="#110529"/>
<path d="M850 96L510.833 95.9999" stroke="#110529" stroke-width="2"/>
<path d="M423.472 95.9999L110 96.0002" stroke="#110529" stroke-width="2"/>
<path d="M124.3 49.8V51.05H127.3C127.183 51.9167 126.933 52.7167 126.45 53.4C125.733 54.35 124.55 54.8333 123.35 54.8167C122.15 54.8333 120.967 54.35 120.267 53.4C119.55 52.4833 119.35 51.2 119.317 50C119.35 48.7833 119.55 47.5167 120.267 46.5833C120.967 45.65 122.15 45.1667 123.35 45.1667C124.55 45.1667 125.733 45.65 126.45 46.5833C126.583 46.7667 126.7 47 126.817 47.2L128.183 46.5833C128.033 46.25 127.833 45.95 127.617 45.6833C126.6 44.4 125.083 43.75 123.35 43.75C121.65 43.75 120.05 44.3833 119.1 45.6833C118.1 46.9167 117.767 48.4333 117.75 50C117.767 51.5333 118.1 53.0833 119.1 54.3C120.05 55.6167 121.667 56.25 123.35 56.25C125.017 56.25 126.567 55.6333 127.617 54.3C128.55 53.15 128.9 51.6833 128.95 50.1833V49.8H124.3ZM141.608 44H131.942V45.4H136.042V56H137.525V45.4H141.608V44ZM151.475 49.8V51.05H154.475C154.358 51.9167 154.108 52.7167 153.625 53.4C152.908 54.35 151.725 54.8333 150.525 54.8167C149.325 54.8333 148.142 54.35 147.442 53.4C146.725 52.4833 146.525 51.2 146.492 50C146.525 48.7833 146.725 47.5167 147.442 46.5833C148.142 45.65 149.325 45.1667 150.525 45.1667C151.725 45.1667 152.908 45.65 153.625 46.5833C153.758 46.7667 153.875 47 153.992 47.2L155.358 46.5833C155.208 46.25 155.008 45.95 154.792 45.6833C153.775 44.4 152.258 43.75 150.525 43.75C148.825 43.75 147.225 44.3833 146.275 45.6833C145.275 46.9167 144.942 48.4333 144.925 50C144.942 51.5333 145.275 53.0833 146.275 54.3C147.225 55.6167 148.842 56.25 150.525 56.25C152.192 56.25 153.742 55.6333 154.792 54.3C155.725 53.15 156.075 51.6833 156.125 50.1833V49.8H151.475ZM169.395 52.0167C169.261 52.5167 169.028 53 168.728 53.4167C168.028 54.3667 166.845 54.85 165.645 54.8333C164.445 54.8333 163.261 54.3667 162.561 53.4167C161.845 52.4667 161.628 51.2167 161.611 50C161.628 48.7667 161.845 47.5167 162.561 46.5833C163.261 45.6333 164.445 45.15 165.645 45.1667C166.845 45.1667 168.028 45.6333 168.728 46.5833C169.078 47.0333 169.295 47.5667 169.445 48.1167L170.978 47.8667C170.778 47.1 170.445 46.35 169.911 45.6667C168.911 44.3833 167.328 43.75 165.645 43.75C163.945 43.75 162.378 44.3667 161.378 45.6667C160.395 46.9 160.045 48.4167 160.028 50C160.011 51.5333 160.395 53.0833 161.378 54.3167C162.378 55.5833 163.928 56.25 165.645 56.25C167.311 56.25 168.878 55.6333 169.911 54.3167C170.361 53.75 170.678 53.1 170.878 52.45L169.395 52.0167ZM184.248 52.0167C184.115 52.5167 183.881 53 183.581 53.4167C182.881 54.3667 181.698 54.85 180.498 54.8333C179.298 54.8333 178.115 54.3667 177.415 53.4167C176.698 52.4667 176.481 51.2167 176.465 50C176.481 48.7667 176.698 47.5167 177.415 46.5833C178.115 45.6333 179.298 45.15 180.498 45.1667C181.698 45.1667 182.881 45.6333 183.581 46.5833C183.931 47.0333 184.148 47.5667 184.298 48.1167L185.831 47.8667C185.631 47.1 185.298 46.35 184.765 45.6667C183.765 44.3833 182.181 43.75 180.498 43.75C178.798 43.75 177.231 44.3667 176.231 45.6667C175.248 46.9 174.898 48.4167 174.881 50C174.865 51.5333 175.248 53.0833 176.231 54.3167C177.231 55.5833 178.781 56.25 180.498 56.25C182.165 56.25 183.731 55.6333 184.765 54.3167C185.215 53.75 185.531 53.1 185.731 52.45L184.248 52.0167ZM197.556 56H199.09L195.073 44H193.006L188.99 56H190.54L191.29 53.75H196.79L197.556 56ZM191.756 52.35L194.023 45.5667L196.323 52.35H191.756ZM210.983 44H201.317V45.4H205.417V56H206.9V45.4H210.983V44ZM223.883 44H214.217V45.4H218.317V56H219.8V45.4H223.883V44ZM233.75 49.8V51.05H236.75C236.633 51.9167 236.383 52.7167 235.9 53.4C235.183 54.35 234 54.8333 232.8 54.8167C231.6 54.8333 230.417 54.35 229.717 53.4C229 52.4833 228.8 51.2 228.767 50C228.8 48.7833 229 47.5167 229.717 46.5833C230.417 45.65 231.6 45.1667 232.8 45.1667C234 45.1667 235.183 45.65 235.9 46.5833C236.033 46.7667 236.15 47 236.267 47.2L237.633 46.5833C237.483 46.25 237.283 45.95 237.067 45.6833C236.05 44.4 234.533 43.75 232.8 43.75C231.1 43.75 229.5 44.3833 228.55 45.6833C227.55 46.9167 227.217 48.4333 227.2 50C227.217 51.5333 227.55 53.0833 228.55 54.3C229.5 55.6167 231.117 56.25 232.8 56.25C234.467 56.25 236.017 55.6333 237.067 54.3C238 53.15 238.35 51.6833 238.4 50.1833V49.8H233.75ZM251.058 44H241.392V45.4H245.492V56H246.975V45.4H251.058V44ZM260.925 49.8V51.05H263.925C263.808 51.9167 263.558 52.7167 263.075 53.4C262.358 54.35 261.175 54.8333 259.975 54.8167C258.775 54.8333 257.592 54.35 256.892 53.4C256.175 52.4833 255.975 51.2 255.942 50C255.975 48.7833 256.175 47.5167 256.892 46.5833C257.592 45.65 258.775 45.1667 259.975 45.1667C261.175 45.1667 262.358 45.65 263.075 46.5833C263.208 46.7667 263.325 47 263.442 47.2L264.808 46.5833C264.658 46.25 264.458 45.95 264.242 45.6833C263.225 44.4 261.708 43.75 259.975 43.75C258.275 43.75 256.675 44.3833 255.725 45.6833C254.725 46.9167 254.392 48.4333 254.375 50C254.392 51.5333 254.725 53.0833 255.725 54.3C256.675 55.6167 258.292 56.25 259.975 56.25C261.642 56.25 263.192 55.6333 264.242 54.3C265.175 53.15 265.525 51.6833 265.575 50.1833V49.8H260.925ZM277.3 56H278.833L274.817 44H272.75L268.733 56H270.283L271.033 53.75H276.533L277.3 56ZM271.5 52.35L273.767 45.5667L276.067 52.35H271.5ZM290.727 44H281.06V45.4H285.16V56H286.644V45.4H290.727V44ZM303.627 44H293.96V45.4H298.06V56H299.544V45.4H303.627V44ZM316.31 52.0167C316.177 52.5167 315.944 53 315.644 53.4167C314.944 54.3667 313.76 54.85 312.56 54.8333C311.36 54.8333 310.177 54.3667 309.477 53.4167C308.76 52.4667 308.544 51.2167 308.527 50C308.544 48.7667 308.76 47.5167 309.477 46.5833C310.177 45.6333 311.36 45.15 312.56 45.1667C313.76 45.1667 314.944 45.6333 315.644 46.5833C315.994 47.0333 316.21 47.5667 316.36 48.1167L317.894 47.8667C317.694 47.1 317.36 46.35 316.827 45.6667C315.827 44.3833 314.244 43.75 312.56 43.75C310.86 43.75 309.294 44.3667 308.294 45.6667C307.31 46.9 306.96 48.4167 306.944 50C306.927 51.5333 307.31 53.0833 308.294 54.3167C309.294 55.5833 310.844 56.25 312.56 56.25C314.227 56.25 315.794 55.6333 316.827 54.3167C317.277 53.75 317.594 53.1 317.794 52.45L316.31 52.0167ZM331.164 52.0167C331.03 52.5167 330.797 53 330.497 53.4167C329.797 54.3667 328.614 54.85 327.414 54.8333C326.214 54.8333 325.03 54.3667 324.33 53.4167C323.614 52.4667 323.397 51.2167 323.38 50C323.397 48.7667 323.614 47.5167 324.33 46.5833C325.03 45.6333 326.214 45.15 327.414 45.1667C328.614 45.1667 329.797 45.6333 330.497 46.5833C330.847 47.0333 331.064 47.5667 331.214 48.1167L332.747 47.8667C332.547 47.1 332.214 46.35 331.68 45.6667C330.68 44.3833 329.097 43.75 327.414 43.75C325.714 43.75 324.147 44.3667 323.147 45.6667C322.164 46.9 321.814 48.4167 321.797 50C321.78 51.5333 322.164 53.0833 323.147 54.3167C324.147 55.5833 325.697 56.25 327.414 56.25C329.08 56.25 330.647 55.6333 331.68 54.3167C332.13 53.75 332.447 53.1 332.647 52.45L331.164 52.0167ZM343.2 49.8V51.05H346.2C346.083 51.9167 345.833 52.7167 345.35 53.4C344.633 54.35 343.45 54.8333 342.25 54.8167C341.05 54.8333 339.867 54.35 339.167 53.4C338.45 52.4833 338.25 51.2 338.217 50C338.25 48.7833 338.45 47.5167 339.167 46.5833C339.867 45.65 341.05 45.1667 342.25 45.1667C343.45 45.1667 344.633 45.65 345.35 46.5833C345.483 46.7667 345.6 47 345.717 47.2L347.083 46.5833C346.933 46.25 346.733 45.95 346.517 45.6833C345.5 44.4 343.983 43.75 342.25 43.75C340.55 43.75 338.95 44.3833 338 45.6833C337 46.9167 336.667 48.4333 336.65 50C336.667 51.5333 337 53.0833 338 54.3C338.95 55.6167 340.567 56.25 342.25 56.25C343.917 56.25 345.467 55.6333 346.517 54.3C347.45 53.15 347.8 51.6833 347.85 50.1833V49.8H343.2ZM359.575 56H361.108L357.092 44H355.025L351.008 56H352.558L353.308 53.75H358.808L359.575 56ZM353.775 52.35L356.042 45.5667L358.342 52.35H353.775ZM373.319 56H374.852L370.835 44H368.769L364.752 56H366.302L367.052 53.75H372.552L373.319 56ZM367.519 52.35L369.785 45.5667L372.085 52.35H367.519ZM386.746 44H377.079V45.4H381.179V56H382.663V45.4H386.746V44ZM396.613 49.8V51.05H399.613C399.496 51.9167 399.246 52.7167 398.763 53.4C398.046 54.35 396.863 54.8333 395.663 54.8167C394.463 54.8333 393.279 54.35 392.579 53.4C391.863 52.4833 391.663 51.2 391.629 50C391.663 48.7833 391.863 47.5167 392.579 46.5833C393.279 45.65 394.463 45.1667 395.663 45.1667C396.863 45.1667 398.046 45.65 398.763 46.5833C398.896 46.7667 399.013 47 399.129 47.2L400.496 46.5833C400.346 46.25 400.146 45.95 399.929 45.6833C398.913 44.4 397.396 43.75 395.663 43.75C393.963 43.75 392.363 44.3833 391.413 45.6833C390.413 46.9167 390.079 48.4333 390.063 50C390.079 51.5333 390.413 53.0833 391.413 54.3C392.363 55.6167 393.979 56.25 395.663 56.25C397.329 56.25 398.879 55.6333 399.929 54.3C400.863 53.15 401.213 51.6833 401.263 50.1833V49.8H396.613ZM414.532 52.0167C414.399 52.5167 414.166 53 413.866 53.4167C413.166 54.3667 411.982 54.85 410.782 54.8333C409.582 54.8333 408.399 54.3667 407.699 53.4167C406.982 52.4667 406.766 51.2167 406.749 50C406.766 48.7667 406.982 47.5167 407.699 46.5833C408.399 45.6333 409.582 45.15 410.782 45.1667C411.982 45.1667 413.166 45.6333 413.866 46.5833C414.216 47.0333 414.432 47.5667 414.582 48.1167L416.116 47.8667C415.916 47.1 415.582 46.35 415.049 45.6667C414.049 44.3833 412.466 43.75 410.782 43.75C409.082 43.75 407.516 44.3667 406.516 45.6667C405.532 46.9 405.182 48.4167 405.166 50C405.149 51.5333 405.532 53.0833 406.516 54.3167C407.516 55.5833 409.066 56.25 410.782 56.25C412.449 56.25 414.016 55.6333 415.049 54.3167C415.499 53.75 415.816 53.1 416.016 52.45L414.532 52.0167ZM426.569 49.8V51.05H429.569C429.452 51.9167 429.202 52.7167 428.719 53.4C428.002 54.35 426.819 54.8333 425.619 54.8167C424.419 54.8333 423.235 54.35 422.535 53.4C421.819 52.4833 421.619 51.2 421.585 50C421.619 48.7833 421.819 47.5167 422.535 46.5833C423.235 45.65 424.419 45.1667 425.619 45.1667C426.819 45.1667 428.002 45.65 428.719 46.5833C428.852 46.7667 428.969 47 429.085 47.2L430.452 46.5833C430.302 46.25 430.102 45.95 429.885 45.6833C428.869 44.4 427.352 43.75 425.619 43.75C423.919 43.75 422.319 44.3833 421.369 45.6833C420.369 46.9167 420.035 48.4333 420.019 50C420.035 51.5333 420.369 53.0833 421.369 54.3C422.319 55.6167 423.935 56.25 425.619 56.25C427.285 56.25 428.835 55.6333 429.885 54.3C430.819 53.15 431.169 51.6833 431.219 50.1833V49.8H426.569ZM434.977 54.3667V56H436.61V54.3667H434.977ZM441.877 54.3667V56H443.51V54.3667H441.877ZM448.777 54.3667V56H450.41V54.3667H448.777ZM455.677 54.3667V56H457.31V54.3667H455.677ZM462.577 54.3667V56H464.21V54.3667H462.577ZM469.477 54.3667V56H471.11V54.3667H469.477ZM476.377 54.3667V56H478.01V54.3667H476.377ZM483.277 54.3667V56H484.91V54.3667H483.277ZM490.177 54.3667V56H491.81V54.3667H490.177ZM497.077 54.3667V56H498.71V54.3667H497.077ZM503.977 54.3667V56H505.61V54.3667H503.977ZM510.877 54.3667V56H512.51V54.3667H510.877ZM523.644 49.8V51.05H526.644C526.527 51.9167 526.277 52.7167 525.794 53.4C525.077 54.35 523.894 54.8333 522.694 54.8167C521.494 54.8333 520.31 54.35 519.61 53.4C518.894 52.4833 518.694 51.2 518.66 50C518.694 48.7833 518.894 47.5167 519.61 46.5833C520.31 45.65 521.494 45.1667 522.694 45.1667C523.894 45.1667 525.077 45.65 525.794 46.5833C525.927 46.7667 526.044 47 526.16 47.2L527.527 46.5833C527.377 46.25 527.177 45.95 526.96 45.6833C525.944 44.4 524.427 43.75 522.694 43.75C520.994 43.75 519.394 44.3833 518.444 45.6833C517.444 46.9167 517.11 48.4333 517.094 50C517.11 51.5333 517.444 53.0833 518.444 54.3C519.394 55.6167 521.01 56.25 522.694 56.25C524.36 56.25 525.91 55.6333 526.96 54.3C527.894 53.15 528.244 51.6833 528.294 50.1833V49.8H523.644ZM540.952 44H531.285V45.4H535.385V56H536.869V45.4H540.952V44ZM550.819 49.8V51.05H553.819C553.702 51.9167 553.452 52.7167 552.969 53.4C552.252 54.35 551.069 54.8333 549.869 54.8167C548.669 54.8333 547.485 54.35 546.785 53.4C546.069 52.4833 545.869 51.2 545.835 50C545.869 48.7833 546.069 47.5167 546.785 46.5833C547.485 45.65 548.669 45.1667 549.869 45.1667C551.069 45.1667 552.252 45.65 552.969 46.5833C553.102 46.7667 553.219 47 553.335 47.2L554.702 46.5833C554.552 46.25 554.352 45.95 554.135 45.6833C553.119 44.4 551.602 43.75 549.869 43.75C548.169 43.75 546.569 44.3833 545.619 45.6833C544.619 46.9167 544.285 48.4333 544.269 50C544.285 51.5333 544.619 53.0833 545.619 54.3C546.569 55.6167 548.185 56.25 549.869 56.25C551.535 56.25 553.085 55.6333 554.135 54.3C555.069 53.15 555.419 51.6833 555.469 50.1833V49.8H550.819ZM568.739 52.0167C568.605 52.5167 568.372 53 568.072 53.4167C567.372 54.3667 566.189 54.85 564.989 54.8333C563.789 54.8333 562.605 54.3667 561.905 53.4167C561.189 52.4667 560.972 51.2167 560.955 50C560.972 48.7667 561.189 47.5167 561.905 46.5833C562.605 45.6333 563.789 45.15 564.989 45.1667C566.189 45.1667 567.372 45.6333 568.072 46.5833C568.422 47.0333 568.639 47.5667 568.789 48.1167L570.322 47.8667C570.122 47.1 569.789 46.35 569.255 45.6667C568.255 44.3833 566.672 43.75 564.989 43.75C563.289 43.75 561.722 44.3667 560.722 45.6667C559.739 46.9 559.389 48.4167 559.372 50C559.355 51.5333 559.739 53.0833 560.722 54.3167C561.722 55.5833 563.272 56.25 564.989 56.25C566.655 56.25 568.222 55.6333 569.255 54.3167C569.705 53.75 570.022 53.1 570.222 52.45L568.739 52.0167ZM580.775 49.8V51.05H583.775C583.658 51.9167 583.408 52.7167 582.925 53.4C582.208 54.35 581.025 54.8333 579.825 54.8167C578.625 54.8333 577.442 54.35 576.742 53.4C576.025 52.4833 575.825 51.2 575.792 50C575.825 48.7833 576.025 47.5167 576.742 46.5833C577.442 45.65 578.625 45.1667 579.825 45.1667C581.025 45.1667 582.208 45.65 582.925 46.5833C583.058 46.7667 583.175 47 583.292 47.2L584.658 46.5833C584.508 46.25 584.308 45.95 584.092 45.6833C583.075 44.4 581.558 43.75 579.825 43.75C578.125 43.75 576.525 44.3833 575.575 45.6833C574.575 46.9167 574.242 48.4333 574.225 50C574.242 51.5333 574.575 53.0833 575.575 54.3C576.525 55.6167 578.142 56.25 579.825 56.25C581.492 56.25 583.042 55.6333 584.092 54.3C585.025 53.15 585.375 51.6833 585.425 50.1833V49.8H580.775ZM597.15 56H598.683L594.667 44H592.6L588.583 56H590.133L590.883 53.75H596.383L597.15 56ZM591.35 52.35L593.617 45.5667L595.917 52.35H591.35ZM610.577 44H600.91V45.4H605.01V56H606.494V45.4H610.577V44ZM623.477 44H613.81V45.4H617.91V56H619.394V45.4H623.477V44ZM633.344 49.8V51.05H636.344C636.227 51.9167 635.977 52.7167 635.494 53.4C634.777 54.35 633.594 54.8333 632.394 54.8167C631.194 54.8333 630.01 54.35 629.31 53.4C628.594 52.4833 628.394 51.2 628.36 50C628.394 48.7833 628.594 47.5167 629.31 46.5833C630.01 45.65 631.194 45.1667 632.394 45.1667C633.594 45.1667 634.777 45.65 635.494 46.5833C635.627 46.7667 635.744 47 635.86 47.2L637.227 46.5833C637.077 46.25 636.877 45.95 636.66 45.6833C635.644 44.4 634.127 43.75 632.394 43.75C630.694 43.75 629.094 44.3833 628.144 45.6833C627.144 46.9167 626.81 48.4333 626.794 50C626.81 51.5333 627.144 53.0833 628.144 54.3C629.094 55.6167 630.71 56.25 632.394 56.25C634.06 56.25 635.61 55.6333 636.66 54.3C637.594 53.15 637.944 51.6833 637.994 50.1833V49.8H633.344ZM649.719 56H651.252L647.235 44H645.169L641.152 56H642.702L643.452 53.75H648.952L649.719 56ZM643.919 52.35L646.185 45.5667L648.485 52.35H643.919ZM663.773 52.0167C663.64 52.5167 663.406 53 663.106 53.4167C662.406 54.3667 661.223 54.85 660.023 54.8333C658.823 54.8333 657.64 54.3667 656.94 53.4167C656.223 52.4667 656.006 51.2167 655.99 50C656.006 48.7667 656.223 47.5167 656.94 46.5833C657.64 45.6333 658.823 45.15 660.023 45.1667C661.223 45.1667 662.406 45.6333 663.106 46.5833C663.456 47.0333 663.673 47.5667 663.823 48.1167L665.356 47.8667C665.156 47.1 664.823 46.35 664.29 45.6667C663.29 44.3833 661.706 43.75 660.023 43.75C658.323 43.75 656.756 44.3667 655.756 45.6667C654.773 46.9 654.423 48.4167 654.406 50C654.39 51.5333 654.773 53.0833 655.756 54.3167C656.756 55.5833 658.306 56.25 660.023 56.25C661.69 56.25 663.256 55.6333 664.29 54.3167C664.74 53.75 665.056 53.1 665.256 52.45L663.773 52.0167ZM678.343 44H668.676V45.4H672.776V56H674.259V45.4H678.343V44ZM691.026 52.0167C690.893 52.5167 690.659 53 690.359 53.4167C689.659 54.3667 688.476 54.85 687.276 54.8333C686.076 54.8333 684.893 54.3667 684.193 53.4167C683.476 52.4667 683.259 51.2167 683.243 50C683.259 48.7667 683.476 47.5167 684.193 46.5833C684.893 45.6333 686.076 45.15 687.276 45.1667C688.476 45.1667 689.659 45.6333 690.359 46.5833C690.709 47.0333 690.926 47.5667 691.076 48.1167L692.609 47.8667C692.409 47.1 692.076 46.35 691.543 45.6667C690.543 44.3833 688.959 43.75 687.276 43.75C685.576 43.75 684.009 44.3667 683.009 45.6667C682.026 46.9 681.676 48.4167 681.659 50C681.643 51.5333 682.026 53.0833 683.009 54.3167C684.009 55.5833 685.559 56.25 687.276 56.25C688.943 56.25 690.509 55.6333 691.543 54.3167C691.993 53.75 692.309 53.1 692.509 52.45L691.026 52.0167ZM703.063 49.8V51.05H706.063C705.946 51.9167 705.696 52.7167 705.213 53.4C704.496 54.35 703.313 54.8333 702.113 54.8167C700.913 54.8333 699.729 54.35 699.029 53.4C698.313 52.4833 698.113 51.2 698.079 50C698.113 48.7833 698.313 47.5167 699.029 46.5833C699.729 45.65 700.913 45.1667 702.113 45.1667C703.313 45.1667 704.496 45.65 705.213 46.5833C705.346 46.7667 705.463 47 705.579 47.2L706.946 46.5833C706.796 46.25 706.596 45.95 706.379 45.6833C705.363 44.4 703.846 43.75 702.113 43.75C700.413 43.75 698.813 44.3833 697.863 45.6833C696.863 46.9167 696.529 48.4333 696.513 50C696.529 51.5333 696.863 53.0833 697.863 54.3C698.813 55.6167 700.429 56.25 702.113 56.25C703.779 56.25 705.329 55.6333 706.379 54.3C707.313 53.15 707.663 51.6833 707.713 50.1833V49.8H703.063ZM719.437 56H720.971L716.954 44H714.887L710.871 56H712.421L713.171 53.75H718.671L719.437 56ZM713.637 52.35L715.904 45.5667L718.204 52.35H713.637ZM732.865 44H723.198V45.4H727.298V56H728.781V45.4H732.865V44ZM745.548 52.0167C745.415 52.5167 745.181 53 744.881 53.4167C744.181 54.3667 742.998 54.85 741.798 54.8333C740.598 54.8333 739.415 54.3667 738.715 53.4167C737.998 52.4667 737.781 51.2167 737.765 50C737.781 48.7667 737.998 47.5167 738.715 46.5833C739.415 45.6333 740.598 45.15 741.798 45.1667C742.998 45.1667 744.181 45.6333 744.881 46.5833C745.231 47.0333 745.448 47.5667 745.598 48.1167L747.131 47.8667C746.931 47.1 746.598 46.35 746.065 45.6667C745.065 44.3833 743.481 43.75 741.798 43.75C740.098 43.75 738.531 44.3667 737.531 45.6667C736.548 46.9 736.198 48.4167 736.181 50C736.165 51.5333 736.548 53.0833 737.531 54.3167C738.531 55.5833 740.081 56.25 741.798 56.25C743.465 56.25 745.031 55.6333 746.065 54.3167C746.515 53.75 746.831 53.1 747.031 52.45L745.548 52.0167ZM757.584 49.8V51.05H760.584C760.468 51.9167 760.218 52.7167 759.734 53.4C759.018 54.35 757.834 54.8333 756.634 54.8167C755.434 54.8333 754.251 54.35 753.551 53.4C752.834 52.4833 752.634 51.2 752.601 50C752.634 48.7833 752.834 47.5167 753.551 46.5833C754.251 45.65 755.434 45.1667 756.634 45.1667C757.834 45.1667 759.018 45.65 759.734 46.5833C759.868 46.7667 759.984 47 760.101 47.2L761.468 46.5833C761.318 46.25 761.118 45.95 760.901 45.6833C759.884 44.4 758.368 43.75 756.634 43.75C754.934 43.75 753.334 44.3833 752.384 45.6833C751.384 46.9167 751.051 48.4333 751.034 50C751.051 51.5333 751.384 53.0833 752.384 54.3C753.334 55.6167 754.951 56.25 756.634 56.25C758.301 56.25 759.851 55.6333 760.901 54.3C761.834 53.15 762.184 51.6833 762.234 50.1833V49.8H757.584ZM773.959 56H775.493L771.476 44H769.409L765.393 56H766.943L767.693 53.75H773.193L773.959 56ZM768.159 52.35L770.426 45.5667L772.726 52.35H768.159ZM787.386 44H777.72V45.4H781.82V56H783.303V45.4H787.386V44ZM800.07 52.0167C799.936 52.5167 799.703 53 799.403 53.4167C798.703 54.3667 797.52 54.85 796.32 54.8333C795.12 54.8333 793.936 54.3667 793.236 53.4167C792.52 52.4667 792.303 51.2167 792.286 50C792.303 48.7667 792.52 47.5167 793.236 46.5833C793.936 45.6333 795.12 45.15 796.32 45.1667C797.52 45.1667 798.703 45.6333 799.403 46.5833C799.753 47.0333 799.97 47.5667 800.12 48.1167L801.653 47.8667C801.453 47.1 801.12 46.35 800.586 45.6667C799.586 44.3833 798.003 43.75 796.32 43.75C794.62 43.75 793.053 44.3667 792.053 45.6667C791.07 46.9 790.72 48.4167 790.703 50C790.686 51.5333 791.07 53.0833 792.053 54.3167C793.053 55.5833 794.603 56.25 796.32 56.25C797.986 56.25 799.553 55.6333 800.586 54.3167C801.036 53.75 801.353 53.1 801.553 52.45L800.07 52.0167ZM812.106 49.8V51.05H815.106C814.99 51.9167 814.74 52.7167 814.256 53.4C813.54 54.35 812.356 54.8333 811.156 54.8167C809.956 54.8333 808.773 54.35 808.073 53.4C807.356 52.4833 807.156 51.2 807.123 50C807.156 48.7833 807.356 47.5167 808.073 46.5833C808.773 45.65 809.956 45.1667 811.156 45.1667C812.356 45.1667 813.54 45.65 814.256 46.5833C814.39 46.7667 814.506 47 814.623 47.2L815.99 46.5833C815.84 46.25 815.64 45.95 815.423 45.6833C814.406 44.4 812.89 43.75 811.156 43.75C809.456 43.75 807.856 44.3833 806.906 45.6833C805.906 46.9167 805.573 48.4333 805.556 50C805.573 51.5333 805.906 53.0833 806.906 54.3C807.856 55.6167 809.473 56.25 811.156 56.25C812.823 56.25 814.373 55.6333 815.423 54.3C816.356 53.15 816.706 51.6833 816.756 50.1833V49.8H812.106ZM828.481 56H830.015L825.998 44H823.931L819.915 56H821.465L822.215 53.75H827.715L828.481 56ZM822.681 52.35L824.948 45.5667L827.248 52.35H822.681ZM841.908 44H832.242V45.4H836.342V56H837.825V45.4H841.908V44Z" fill="#110529"/>
<path d="M271.347 150H273.931L278.951 135H277.035L272.618 148.021L268.264 135H266.326L271.347 150Z" fill="#110529"/>
<path d="M540.125 150H542.708L547.729 135H545.813L541.396 148.021L537.042 135H535.104L540.125 150Z" fill="#110529"/>
<path d="M769.25 135V145.292C769.25 146.604 769.25 147.312 768.688 148.312C767.917 149.604 766.729 150.312 765.104 150.312C764.333 150.312 763.583 150.146 762.938 149.729C761.979 149.187 761.292 148.208 761 147.146L762.854 146.708C762.958 147.292 763.333 147.812 763.833 148.146C764.188 148.396 764.646 148.542 765.083 148.542C765.875 148.542 766.708 148.125 767.063 147.354C767.333 146.792 767.333 146.375 767.333 145.292V135H769.25Z" fill="#110529"/>
<path d="M110 180V188H582V180" stroke="#110529" stroke-width="2"/>
<path d="M296.088 216V205.832H292.16V204.48H301.44V205.832H297.512V216H296.088ZM302.714 216V204.48H307.266C307.378 204.48 307.511 204.485 307.666 204.496C307.82 204.501 307.97 204.517 308.114 204.544C308.738 204.64 309.26 204.853 309.682 205.184C310.108 205.515 310.428 205.933 310.642 206.44C310.855 206.941 310.962 207.499 310.962 208.112C310.962 209.003 310.73 209.776 310.266 210.432C309.802 211.083 309.122 211.491 308.226 211.656L307.682 211.744H304.138V216H302.714ZM309.57 216L307.298 211.312L308.706 210.88L311.202 216H309.57ZM304.138 210.392H307.218C307.319 210.392 307.434 210.387 307.562 210.376C307.695 210.365 307.82 210.347 307.938 210.32C308.306 210.235 308.604 210.08 308.834 209.856C309.068 209.627 309.239 209.36 309.346 209.056C309.452 208.747 309.506 208.432 309.506 208.112C309.506 207.792 309.452 207.48 309.346 207.176C309.239 206.867 309.068 206.597 308.834 206.368C308.604 206.139 308.306 205.984 307.938 205.904C307.82 205.872 307.695 205.853 307.562 205.848C307.434 205.837 307.319 205.832 307.218 205.832H304.138V210.392ZM312.964 216V204.48H317.452C318.14 204.48 318.726 204.621 319.212 204.904C319.702 205.187 320.076 205.56 320.332 206.024C320.593 206.483 320.724 206.979 320.724 207.512C320.724 208.136 320.564 208.683 320.244 209.152C319.924 209.621 319.492 209.944 318.948 210.12L318.932 209.728C319.673 209.925 320.249 210.288 320.66 210.816C321.07 211.344 321.276 211.973 321.276 212.704C321.276 213.376 321.137 213.957 320.86 214.448C320.588 214.939 320.193 215.32 319.676 215.592C319.164 215.864 318.556 216 317.852 216H312.964ZM314.404 214.64H317.58C318.006 214.64 318.388 214.563 318.724 214.408C319.06 214.248 319.324 214.024 319.516 213.736C319.713 213.448 319.812 213.101 319.812 212.696C319.812 212.307 319.724 211.957 319.548 211.648C319.377 211.339 319.134 211.093 318.82 210.912C318.51 210.725 318.15 210.632 317.74 210.632H314.404V214.64ZM314.404 209.288H317.436C317.777 209.288 318.084 209.216 318.356 209.072C318.633 208.923 318.852 208.715 319.012 208.448C319.177 208.181 319.26 207.869 319.26 207.512C319.26 207.016 319.092 206.611 318.756 206.296C318.42 205.981 317.98 205.824 317.436 205.824H314.404V209.288ZM325.202 216L321.346 204.48H322.826L326.178 214.488L329.562 204.48H331.042L327.186 216H325.202ZM334.253 216V206.056L332.085 207.368V205.776L334.253 204.48H335.701V216H334.253ZM340.753 216V206.056L338.585 207.368V205.776L340.753 204.48H342.201V216H340.753ZM345.085 211.544V210.368H349.885V211.544H345.085ZM353.972 216V206.056L351.804 207.368V205.776L353.972 204.48H355.42V216H353.972ZM359.104 214.8V213.232H360.672V214.8H359.104ZM359.112 210.128V208.56H360.68V210.128H359.112ZM368.691 216V206.056L366.523 207.368V205.776L368.691 204.48H370.139V216H368.691ZM372.863 215.992L372.871 214.712L377.983 210.112C378.409 209.728 378.695 209.365 378.839 209.024C378.988 208.677 379.063 208.323 379.063 207.96C379.063 207.517 378.961 207.117 378.759 206.76C378.556 206.403 378.279 206.12 377.927 205.912C377.58 205.704 377.185 205.6 376.743 205.6C376.284 205.6 375.876 205.709 375.519 205.928C375.161 206.141 374.879 206.427 374.671 206.784C374.468 207.141 374.369 207.531 374.375 207.952H372.919C372.919 207.227 373.087 206.587 373.423 206.032C373.759 205.472 374.215 205.035 374.791 204.72C375.372 204.4 376.031 204.24 376.766 204.24C377.481 204.24 378.121 204.405 378.687 204.736C379.252 205.061 379.697 205.507 380.023 206.072C380.353 206.632 380.519 207.267 380.519 207.976C380.519 208.477 380.455 208.912 380.326 209.28C380.204 209.648 380.012 209.989 379.751 210.304C379.489 210.613 379.161 210.944 378.767 211.296L374.519 215.112L374.335 214.632H380.519V215.992H372.863ZM382.113 215.992L382.121 214.712L387.233 210.112C387.659 209.728 387.945 209.365 388.089 209.024C388.238 208.677 388.313 208.323 388.313 207.96C388.313 207.517 388.211 207.117 388.009 206.76C387.806 206.403 387.529 206.12 387.177 205.912C386.83 205.704 386.435 205.6 385.993 205.6C385.534 205.6 385.126 205.709 384.769 205.928C384.411 206.141 384.129 206.427 383.921 206.784C383.718 207.141 383.619 207.531 383.625 207.952H382.169C382.169 207.227 382.337 206.587 382.673 206.032C383.009 205.472 383.465 205.035 384.041 204.72C384.622 204.4 385.281 204.24 386.016 204.24C386.731 204.24 387.371 204.405 387.937 204.736C388.502 205.061 388.947 205.507 389.273 206.072C389.603 206.632 389.769 207.267 389.769 207.976C389.769 208.477 389.705 208.912 389.576 209.28C389.454 209.648 389.262 209.989 389.001 210.304C388.739 210.613 388.411 210.944 388.017 211.296L383.769 215.112L383.585 214.632H389.769V215.992H382.113ZM394.843 216.224C394.272 216.224 393.741 216.12 393.251 215.912C392.76 215.699 392.336 215.4 391.979 215.016C391.627 214.627 391.368 214.165 391.203 213.632L392.571 213.24C392.747 213.773 393.04 214.179 393.451 214.456C393.861 214.733 394.323 214.869 394.835 214.864C395.304 214.853 395.709 214.747 396.051 214.544C396.397 214.336 396.664 214.053 396.851 213.696C397.043 213.339 397.139 212.925 397.139 212.456C397.139 211.741 396.925 211.163 396.499 210.72C396.072 210.272 395.512 210.048 394.819 210.048C394.627 210.048 394.424 210.075 394.211 210.128C394.003 210.181 393.808 210.256 393.627 210.352L392.939 209.224L397.211 205.36L397.395 205.84H391.659V204.48H398.451V205.848L394.811 209.336L394.795 208.832C395.557 208.779 396.224 208.904 396.795 209.208C397.365 209.512 397.808 209.947 398.123 210.512C398.443 211.077 398.602 211.725 398.602 212.456C398.602 213.192 398.437 213.843 398.107 214.408C397.776 214.973 397.328 215.419 396.763 215.744C396.197 216.064 395.557 216.224 394.843 216.224Z" fill="#110529"/>
<path d="M613.847 180V188H665.847V180" stroke="#110529" stroke-width="2"/>
<path d="M608.056 204H598.389V205.4H602.489V216H603.972V205.4H608.056V204ZM618.489 216L616.139 211.183C616.656 210.95 617.106 210.6 617.439 210.167C617.989 209.5 618.322 208.65 618.322 207.783C618.306 206.883 617.956 205.967 617.356 205.3C616.939 204.8 616.372 204.417 615.756 204.217C615.356 204.067 614.939 204 614.506 204H609.389V216H610.872V211.55H614.506H614.639L616.789 216H618.489ZM610.872 205.417H614.506C615.089 205.417 615.722 205.717 616.139 206.15C616.556 206.583 616.772 207.167 616.789 207.783C616.806 208.317 616.606 208.85 616.272 209.267C615.822 209.817 615.139 210.15 614.506 210.15H610.872V205.417ZM628.538 210.45C628.271 210.083 627.954 209.783 627.588 209.55C627.738 209.4 627.888 209.25 628.004 209.067C628.438 208.517 628.704 207.817 628.654 207.117C628.621 206.417 628.371 205.733 627.938 205.217C627.521 204.683 626.921 204.3 626.288 204.133C625.938 204 625.354 204 624.888 204H620.654V216H625.121C625.654 216 626.171 215.967 626.671 215.833C627.354 215.633 628.004 215.233 628.471 214.65C628.938 214.067 629.204 213.333 629.221 212.583C629.254 211.817 629.004 211.05 628.538 210.45ZM625.321 205.4C625.854 205.4 626.288 205.567 626.654 205.967C626.938 206.267 627.121 206.683 627.138 207.117C627.138 207.517 627.004 207.917 626.771 208.25C626.438 208.717 625.804 209 625.321 209H622.154V205.4H625.321ZM627.704 212.583C627.704 213.1 627.488 213.583 627.138 213.95C626.571 214.55 625.988 214.583 625.104 214.583H622.154V210.4H625.604C626.188 210.4 626.838 210.667 627.238 211.2C627.554 211.583 627.721 212.083 627.704 212.583ZM640.4 210.033C640.4 211.65 639.917 213.317 638.9 214.417C637.917 215.5 636.484 215.983 635 215.983H630.967V203.983L635.034 204C636.584 204 637.95 204.517 638.9 205.583C639.984 206.75 640.4 208.367 640.4 210.033ZM638.834 210.033C638.85 208.733 638.55 207.45 637.784 206.567C637.067 205.75 636.117 205.433 635.017 205.417L632.5 205.433V214.55L635 214.583C636.1 214.567 637.1 214.2 637.8 213.417C638.55 212.55 638.817 211.25 638.834 210.033ZM642.061 207.617H643.577C643.577 206.883 643.911 206.2 644.444 205.733C644.861 205.383 645.411 205.167 646.011 205.167C646.661 205.167 647.261 205.4 647.694 205.833C648.177 206.283 648.461 206.933 648.461 207.617C648.461 208.383 648.227 209.083 647.344 209.867L641.994 214.567L641.977 215.983H649.811V214.567H644.311L648.161 211.133C649.377 210.05 649.977 209.167 649.977 207.633C649.977 206.583 649.561 205.567 648.827 204.867C648.127 204.117 647.144 203.75 646.077 203.75C645.111 203.75 644.144 204.017 643.411 204.65C642.577 205.367 642.044 206.45 642.061 207.617ZM652.583 208.25V209.883H654.216V208.25H652.583ZM652.566 213.117V214.75H654.199V213.117H652.566ZM661.211 204L660.844 210.167L662.177 210.933C662.327 210.683 662.511 210.45 662.727 210.267C663.177 209.85 663.777 209.633 664.411 209.633C665.077 209.633 665.694 209.9 666.161 210.317C666.677 210.8 666.994 211.483 666.994 212.217C666.994 212.933 666.711 213.583 666.227 214.067C665.761 214.533 665.111 214.8 664.411 214.8C663.744 214.8 663.127 214.55 662.661 214.117C662.294 213.8 662.027 213.367 661.911 212.883L660.477 213.267C660.677 213.983 661.077 214.65 661.611 215.15C662.344 215.85 663.361 216.25 664.411 216.233C665.494 216.217 666.527 215.817 667.277 215.067C668.011 214.333 668.477 213.3 668.494 212.217C668.494 211.083 668.061 210.033 667.211 209.267C666.494 208.633 665.544 208.267 664.577 208.267C663.761 208.267 662.961 208.567 662.327 209.067L662.544 205.4H667.527V204H661.211ZM669.779 207.617H671.296C671.296 206.883 671.629 206.2 672.163 205.733C672.579 205.383 673.129 205.167 673.729 205.167C674.379 205.167 674.979 205.4 675.413 205.833C675.896 206.283 676.179 206.933 676.179 207.617C676.179 208.383 675.946 209.083 675.063 209.867L669.713 214.567L669.696 215.983H677.529V214.567H672.029L675.879 211.133C677.096 210.05 677.696 209.167 677.696 207.633C677.696 206.583 677.279 205.567 676.546 204.867C675.846 204.117 674.863 203.75 673.796 203.75C672.829 203.75 671.863 204.017 671.129 204.65C670.296 205.367 669.763 206.45 669.779 207.617Z" fill="#110529"/>
<path d="M698 180V188H834V180" stroke="#110529" stroke-width="2"/>
<path d="M722.588 216V205.832H718.66V204.48H727.94V205.832H724.012V216H722.588ZM729.214 216V204.48H733.766C733.878 204.48 734.011 204.485 734.166 204.496C734.32 204.501 734.47 204.517 734.614 204.544C735.238 204.64 735.76 204.853 736.182 205.184C736.608 205.515 736.928 205.933 737.142 206.44C737.355 206.941 737.462 207.499 737.462 208.112C737.462 209.003 737.23 209.776 736.766 210.432C736.302 211.083 735.622 211.491 734.726 211.656L734.182 211.744H730.638V216H729.214ZM736.07 216L733.798 211.312L735.206 210.88L737.702 216H736.07ZM730.638 210.392H733.718C733.819 210.392 733.934 210.387 734.062 210.376C734.195 210.365 734.32 210.347 734.438 210.32C734.806 210.235 735.104 210.08 735.334 209.856C735.568 209.627 735.739 209.36 735.846 209.056C735.952 208.747 736.006 208.432 736.006 208.112C736.006 207.792 735.952 207.48 735.846 207.176C735.739 206.867 735.568 206.597 735.334 206.368C735.104 206.139 734.806 205.984 734.438 205.904C734.32 205.872 734.195 205.853 734.062 205.848C733.934 205.837 733.819 205.832 733.718 205.832H730.638V210.392ZM739.464 216V204.48H743.952C744.64 204.48 745.226 204.621 745.712 204.904C746.202 205.187 746.576 205.56 746.832 206.024C747.093 206.483 747.224 206.979 747.224 207.512C747.224 208.136 747.064 208.683 746.744 209.152C746.424 209.621 745.992 209.944 745.448 210.12L745.432 209.728C746.173 209.925 746.749 210.288 747.16 210.816C747.57 211.344 747.776 211.973 747.776 212.704C747.776 213.376 747.637 213.957 747.36 214.448C747.088 214.939 746.693 215.32 746.176 215.592C745.664 215.864 745.056 216 744.352 216H739.464ZM740.904 214.64H744.08C744.506 214.64 744.888 214.563 745.224 214.408C745.56 214.248 745.824 214.024 746.016 213.736C746.213 213.448 746.312 213.101 746.312 212.696C746.312 212.307 746.224 211.957 746.048 211.648C745.877 211.339 745.634 211.093 745.32 210.912C745.01 210.725 744.65 210.632 744.24 210.632H740.904V214.64ZM740.904 209.288H743.936C744.277 209.288 744.584 209.216 744.856 209.072C745.133 208.923 745.352 208.715 745.512 208.448C745.677 208.181 745.76 207.869 745.76 207.512C745.76 207.016 745.592 206.611 745.256 206.296C744.92 205.981 744.48 205.824 743.936 205.824H740.904V209.288ZM751.45 216.232C750.645 216.232 749.962 216.013 749.402 215.576C748.842 215.139 748.458 214.552 748.25 213.816L749.666 213.48C749.751 213.869 749.957 214.2 750.282 214.472C750.613 214.744 750.991 214.88 751.418 214.88C751.695 214.88 751.978 214.813 752.266 214.68C752.554 214.541 752.775 214.317 752.93 214.008C753.037 213.795 753.098 213.56 753.114 213.304C753.13 213.043 753.138 212.736 753.138 212.384V204.48H754.578V212.384C754.578 212.715 754.575 213.011 754.57 213.272C754.57 213.533 754.543 213.784 754.49 214.024C754.442 214.259 754.346 214.499 754.202 214.744C753.914 215.251 753.527 215.627 753.042 215.872C752.562 216.112 752.031 216.232 751.45 216.232ZM756.659 215.992L756.667 214.712L761.779 210.112C762.206 209.728 762.491 209.365 762.635 209.024C762.785 208.677 762.859 208.323 762.859 207.96C762.859 207.517 762.758 207.117 762.555 206.76C762.353 206.403 762.075 206.12 761.723 205.912C761.377 205.704 760.982 205.6 760.539 205.6C760.081 205.6 759.673 205.709 759.315 205.928C758.958 206.141 758.675 206.427 758.467 206.784C758.265 207.141 758.166 207.531 758.171 207.952H756.715C756.715 207.227 756.883 206.587 757.219 206.032C757.555 205.472 758.011 205.035 758.587 204.72C759.169 204.4 759.827 204.24 760.563 204.24C761.278 204.24 761.918 204.405 762.483 204.736C763.049 205.061 763.494 205.507 763.819 206.072C764.15 206.632 764.315 207.267 764.315 207.976C764.315 208.477 764.251 208.912 764.123 209.28C764.001 209.648 763.809 209.989 763.547 210.304C763.286 210.613 762.958 210.944 762.563 211.296L758.315 215.112L758.131 214.632H764.315V215.992H756.659ZM766.069 211.544V210.368H770.869V211.544H766.069ZM773.556 216L777.7 205.848H772.468V204.48H779.228V205.848L775.092 216H773.556ZM781.791 214.8V213.232H783.359V214.8H781.791ZM781.799 210.128V208.56H783.367V210.128H781.799ZM789.05 215.992L789.058 214.712L794.17 210.112C794.597 209.728 794.882 209.365 795.026 209.024C795.175 208.677 795.25 208.323 795.25 207.96C795.25 207.517 795.149 207.117 794.946 206.76C794.743 206.403 794.466 206.12 794.114 205.912C793.767 205.704 793.373 205.6 792.93 205.6C792.471 205.6 792.063 205.709 791.706 205.928C791.349 206.141 791.066 206.427 790.858 206.784C790.655 207.141 790.557 207.531 790.562 207.952H789.106C789.106 207.227 789.274 206.587 789.61 206.032C789.946 205.472 790.402 205.035 790.978 204.72C791.559 204.4 792.218 204.24 792.954 204.24C793.669 204.24 794.309 204.405 794.874 204.736C795.439 205.061 795.885 205.507 796.21 206.072C796.541 206.632 796.706 207.267 796.706 207.976C796.706 208.477 796.642 208.912 796.514 209.28C796.391 209.648 796.199 209.989 795.938 210.304C795.677 210.613 795.349 210.944 794.954 211.296L790.706 215.112L790.522 214.632H796.706V215.992H789.05ZM800.628 216V206.056L798.46 207.368V205.776L800.628 204.48H802.076V216H800.628ZM804.8 215.992L804.808 214.712L809.92 210.112C810.347 209.728 810.632 209.365 810.776 209.024C810.925 208.677 811 208.323 811 207.96C811 207.517 810.899 207.117 810.696 206.76C810.493 206.403 810.216 206.12 809.864 205.912C809.517 205.704 809.123 205.6 808.68 205.6C808.221 205.6 807.813 205.709 807.456 205.928C807.099 206.141 806.816 206.427 806.608 206.784C806.405 207.141 806.307 207.531 806.312 207.952H804.856C804.856 207.227 805.024 206.587 805.36 206.032C805.696 205.472 806.152 205.035 806.728 204.72C807.309 204.4 807.968 204.24 808.704 204.24C809.419 204.24 810.059 204.405 810.624 204.736C811.189 205.061 811.635 205.507 811.96 206.072C812.291 206.632 812.456 207.267 812.456 207.976C812.456 208.477 812.392 208.912 812.264 209.28C812.141 209.648 811.949 209.989 811.688 210.304C811.427 210.613 811.099 210.944 810.704 211.296L806.456 215.112L806.272 214.632H812.456V215.992H804.8Z" fill="#110529"/>
<defs>
<filter id="filter0_i_4694_30411" x="108.738" y="115" width="331.293" height="54" filterUnits="userSpaceOnUse" color-interpolation-filters="sRGB">
<feFlood flood-opacity="0" result="BackgroundImageFix"/>
<feBlend mode="normal" in="SourceGraphic" in2="BackgroundImageFix" result="shape"/>
<feColorMatrix in="SourceAlpha" type="matrix" values="0 0 0 0 0 0 0 0 0 0 0 0 0 0 0 0 0 0 127 0" result="hardAlpha"/>
<feOffset dx="-4" dy="-2"/>
<feComposite in2="hardAlpha" operator="arithmetic" k2="-1" k3="1"/>
<feColorMatrix type="matrix" values="0 0 0 0 0.0666667 0 0 0 0 0.0196078 0 0 0 0 0.160784 0 0 0 0.16 0"/>
<feBlend mode="normal" in2="shape" result="effect1_innerShadow_4694_30411"/>
</filter>
<filter id="filter1_i_4694_30411" x="500.738" y="115" width="82.2625" height="54" filterUnits="userSpaceOnUse" color-interpolation-filters="sRGB">
<feFlood flood-opacity="0" result="BackgroundImageFix"/>
<feBlend mode="normal" in="SourceGraphic" in2="BackgroundImageFix" result="shape"/>
<feColorMatrix in="SourceAlpha" type="matrix" values="0 0 0 0 0 0 0 0 0 0 0 0 0 0 0 0 0 0 127 0" result="hardAlpha"/>
<feOffset dx="-8" dy="-4"/>
<feComposite in2="hardAlpha" operator="arithmetic" k2="-1" k3="1"/>
<feColorMatrix type="matrix" values="0 0 0 0 0.0666667 0 0 0 0 0.0196078 0 0 0 0 0.160784 0 0 0 0.16 0"/>
<feBlend mode="normal" in2="shape" result="effect1_innerShadow_4694_30411"/>
</filter>
<filter id="filter2_i_4694_30411" x="581" y="115" width="34" height="54" filterUnits="userSpaceOnUse" color-interpolation-filters="sRGB">
<feFlood flood-opacity="0" result="BackgroundImageFix"/>
<feBlend mode="normal" in="SourceGraphic" in2="BackgroundImageFix" result="shape"/>
<feColorMatrix in="SourceAlpha" type="matrix" values="0 0 0 0 0 0 0 0 0 0 0 0 0 0 0 0 0 0 127 0" result="hardAlpha"/>
<feOffset dx="-8" dy="-4"/>
<feComposite in2="hardAlpha" operator="arithmetic" k2="-1" k3="1"/>
<feColorMatrix type="matrix" values="0 0 0 0 0.0666667 0 0 0 0 0.0196078 0 0 0 0 0.160784 0 0 0 0.16 0"/>
<feBlend mode="normal" in2="shape" result="effect1_innerShadow_4694_30411"/>
</filter>
<filter id="filter3_i_4694_30411" x="665" y="115" width="34" height="54" filterUnits="userSpaceOnUse" color-interpolation-filters="sRGB">
<feFlood flood-opacity="0" result="BackgroundImageFix"/>
<feBlend mode="normal" in="SourceGraphic" in2="BackgroundImageFix" result="shape"/>
<feColorMatrix in="SourceAlpha" type="matrix" values="0 0 0 0 0 0 0 0 0 0 0 0 0 0 0 0 0 0 127 0" result="hardAlpha"/>
<feOffset dx="-8" dy="-4"/>
<feComposite in2="hardAlpha" operator="arithmetic" k2="-1" k3="1"/>
<feColorMatrix type="matrix" values="0 0 0 0 0.0666667 0 0 0 0 0.0196078 0 0 0 0 0.160784 0 0 0 0.16 0"/>
<feBlend mode="normal" in2="shape" result="effect1_innerShadow_4694_30411"/>
</filter>
<filter id="filter4_i_4694_30411" x="613" y="115" width="54" height="54" filterUnits="userSpaceOnUse" color-interpolation-filters="sRGB">
<feFlood flood-opacity="0" result="BackgroundImageFix"/>
<feBlend mode="normal" in="SourceGraphic" in2="BackgroundImageFix" result="shape"/>
<feColorMatrix in="SourceAlpha" type="matrix" values="0 0 0 0 0 0 0 0 0 0 0 0 0 0 0 0 0 0 127 0" result="hardAlpha"/>
<feOffset dx="-8" dy="-4"/>
<feComposite in2="hardAlpha" operator="arithmetic" k2="-1" k3="1"/>
<feColorMatrix type="matrix" values="0 0 0 0 0.0666667 0 0 0 0 0.0196078 0 0 0 0 0.160784 0 0 0 0.16 0"/>
<feBlend mode="normal" in2="shape" result="effect1_innerShadow_4694_30411"/>
</filter>
<filter id="filter5_i_4694_30411" x="697" y="115" width="138" height="54" filterUnits="userSpaceOnUse" color-interpolation-filters="sRGB">
<feFlood flood-opacity="0" result="BackgroundImageFix"/>
<feBlend mode="normal" in="SourceGraphic" in2="BackgroundImageFix" result="shape"/>
<feColorMatrix in="SourceAlpha" type="matrix" values="0 0 0 0 0 0 0 0 0 0 0 0 0 0 0 0 0 0 127 0" result="hardAlpha"/>
<feOffset dx="-8" dy="-4"/>
<feComposite in2="hardAlpha" operator="arithmetic" k2="-1" k3="1"/>
<feColorMatrix type="matrix" values="0 0 0 0 0.0666667 0 0 0 0 0.0196078 0 0 0 0 0.160784 0 0 0 0.16 0"/>
<feBlend mode="normal" in2="shape" result="effect1_innerShadow_4694_30411"/>
</filter>
<filter id="filter6_i_4694_30411" x="833" y="115" width="19.0308" height="54" filterUnits="userSpaceOnUse" color-interpolation-filters="sRGB">
<feFlood flood-opacity="0" result="BackgroundImageFix"/>
<feBlend mode="normal" in="SourceGraphic" in2="BackgroundImageFix" result="shape"/>
<feColorMatrix in="SourceAlpha" type="matrix" values="0 0 0 0 0 0 0 0 0 0 0 0 0 0 0 0 0 0 127 0" result="hardAlpha"/>
<feOffset dx="-8" dy="-4"/>
<feComposite in2="hardAlpha" operator="arithmetic" k2="-1" k3="1"/>
<feColorMatrix type="matrix" values="0 0 0 0 0.0666667 0 0 0 0 0.0196078 0 0 0 0 0.160784 0 0 0 0.16 0"/>
<feBlend mode="normal" in2="shape" result="effect1_innerShadow_4694_30411"/>
</filter>
<filter id="filter7_i_4694_30411" x="109" y="23" width="742" height="54" filterUnits="userSpaceOnUse" color-interpolation-filters="sRGB">
<feFlood flood-opacity="0" result="BackgroundImageFix"/>
<feBlend mode="normal" in="SourceGraphic" in2="BackgroundImageFix" result="shape"/>
<feColorMatrix in="SourceAlpha" type="matrix" values="0 0 0 0 0 0 0 0 0 0 0 0 0 0 0 0 0 0 127 0" result="hardAlpha"/>
<feOffset dx="-8" dy="-4"/>
<feComposite in2="hardAlpha" operator="arithmetic" k2="-1" k3="1"/>
<feColorMatrix type="matrix" values="0 0 0 0 0.0666667 0 0 0 0 0.0196078 0 0 0 0 0.160784 0 0 0 0.16 0"/>
<feBlend mode="normal" in2="shape" result="effect1_innerShadow_4694_30411"/>
</filter>
</defs>
</svg>
