<svg width="960" height="216" viewBox="0 0 960 216" fill="none" xmlns="http://www.w3.org/2000/svg">
    <rect width="960" height="216" fill="#1D1D29"/>
    <path d="M354.805 37V26.92H360.776V28.383H356.268V31.225H359.936V32.695H356.268V37H354.805ZM362.038 37V26.92H366.112C366.21 26.92 366.331 26.9247 366.476 26.934C366.62 26.9387 366.758 26.9527 366.889 26.976C367.449 27.0647 367.915 27.256 368.289 27.55C368.667 27.844 368.949 28.215 369.136 28.663C369.322 29.111 369.416 29.6057 369.416 30.147C369.416 30.9497 369.21 31.6427 368.8 32.226C368.389 32.8047 367.773 33.1663 366.952 33.311L366.357 33.381H363.501V37H362.038ZM367.932 37L365.944 32.898L367.421 32.52L369.605 37H367.932ZM363.501 31.995H366.056C366.149 31.995 366.252 31.9903 366.364 31.981C366.48 31.9717 366.59 31.9553 366.693 31.932C366.991 31.862 367.232 31.7337 367.414 31.547C367.596 31.3557 367.726 31.1363 367.806 30.889C367.885 30.6417 367.925 30.3943 367.925 30.147C367.925 29.8997 367.885 29.6547 367.806 29.412C367.726 29.1647 367.596 28.9477 367.414 28.761C367.232 28.5697 366.991 28.439 366.693 28.369C366.59 28.341 366.48 28.3223 366.364 28.313C366.252 28.3037 366.149 28.299 366.056 28.299H363.501V31.995ZM373.964 37.189C373.465 37.189 372.996 37.0957 372.557 36.909C372.118 36.7177 371.738 36.447 371.416 36.097C371.099 35.747 370.868 35.334 370.723 34.858L372.137 34.466C372.272 34.9 372.508 35.2337 372.844 35.467C373.18 35.6957 373.553 35.8077 373.964 35.803C374.333 35.7983 374.657 35.712 374.937 35.544C375.217 35.376 375.436 35.1497 375.595 34.865C375.754 34.5757 375.833 34.2443 375.833 33.871C375.833 33.311 375.658 32.849 375.308 32.485C374.963 32.121 374.51 31.939 373.95 31.939C373.791 31.939 373.628 31.9623 373.46 32.009C373.297 32.0557 373.143 32.1163 372.998 32.191L372.312 31.036L375.868 27.893L376.022 28.313H371.122V26.92H377.184V28.313L374.23 31.155L374.216 30.679C374.851 30.679 375.401 30.8213 375.868 31.106C376.335 31.386 376.694 31.7687 376.946 32.254C377.203 32.7347 377.331 33.2737 377.331 33.871C377.331 34.515 377.179 35.0867 376.876 35.586C376.577 36.0853 376.174 36.4773 375.665 36.762C375.161 37.0467 374.594 37.189 373.964 37.189Z" fill="white" fill-opacity="0.3"/>
    <path d="M498.682 37.21C497.674 37.21 496.815 36.9907 496.106 36.552C495.397 36.1087 494.853 35.4927 494.475 34.704C494.102 33.9153 493.915 33.0007 493.915 31.96C493.915 30.9193 494.102 30.0047 494.475 29.216C494.853 28.4273 495.397 27.8137 496.106 27.375C496.815 26.9317 497.674 26.71 498.682 26.71C499.844 26.71 500.805 27.004 501.566 27.592C502.331 28.18 502.863 28.971 503.162 29.965L501.678 30.364C501.482 29.6593 501.132 29.1063 500.628 28.705C500.129 28.3037 499.48 28.103 498.682 28.103C497.968 28.103 497.373 28.264 496.897 28.586C496.421 28.908 496.062 29.3583 495.819 29.937C495.581 30.5157 495.462 31.19 495.462 31.96C495.457 32.73 495.574 33.4043 495.812 33.983C496.055 34.5617 496.414 35.012 496.89 35.334C497.371 35.656 497.968 35.817 498.682 35.817C499.48 35.817 500.129 35.6163 500.628 35.215C501.132 34.809 501.482 34.256 501.678 33.556L503.162 33.955C502.863 34.949 502.331 35.74 501.566 36.328C500.805 36.916 499.844 37.21 498.682 37.21ZM504.702 37V26.92H507.859C507.952 26.92 508.125 26.9223 508.377 26.927C508.633 26.9317 508.878 26.9503 509.112 26.983C509.9 27.081 510.563 27.3633 511.1 27.83C511.641 28.2967 512.049 28.8893 512.325 29.608C512.6 30.322 512.738 31.106 512.738 31.96C512.738 32.8187 512.6 33.6073 512.325 34.326C512.049 35.04 511.641 35.6303 511.1 36.097C510.563 36.559 509.9 36.839 509.112 36.937C508.878 36.9697 508.633 36.9883 508.377 36.993C508.125 36.9977 507.952 37 507.859 37H504.702ZM506.2 35.607H507.859C508.017 35.607 508.206 35.6023 508.426 35.593C508.645 35.5837 508.839 35.565 509.007 35.537C509.52 35.439 509.935 35.2173 510.253 34.872C510.575 34.522 510.81 34.0927 510.96 33.584C511.109 33.0753 511.184 32.534 511.184 31.96C511.184 31.3673 511.107 30.819 510.953 30.315C510.799 29.8063 510.561 29.3817 510.239 29.041C509.921 28.6957 509.511 28.4763 509.007 28.383C508.839 28.3503 508.643 28.3317 508.419 28.327C508.199 28.3177 508.013 28.313 507.859 28.313H506.2V35.607ZM514.368 37V26.92H518.442C518.54 26.92 518.661 26.9247 518.806 26.934C518.95 26.9387 519.088 26.9527 519.219 26.976C519.779 27.0647 520.245 27.256 520.619 27.55C520.997 27.844 521.279 28.215 521.466 28.663C521.652 29.111 521.746 29.6057 521.746 30.147C521.746 30.9497 521.54 31.6427 521.13 32.226C520.719 32.8047 520.103 33.1663 519.282 33.311L518.687 33.381H515.831V37H514.368ZM520.262 37L518.274 32.898L519.751 32.52L521.935 37H520.262ZM515.831 31.995H518.386C518.479 31.995 518.582 31.9903 518.694 31.981C518.81 31.9717 518.92 31.9553 519.023 31.932C519.321 31.862 519.562 31.7337 519.744 31.547C519.926 31.3557 520.056 31.1363 520.136 30.889C520.215 30.6417 520.255 30.3943 520.255 30.147C520.255 29.8997 520.215 29.6547 520.136 29.412C520.056 29.1647 519.926 28.9477 519.744 28.761C519.562 28.5697 519.321 28.439 519.023 28.369C518.92 28.341 518.81 28.3223 518.694 28.313C518.582 28.3037 518.479 28.299 518.386 28.299H515.831V31.995ZM526.294 37.189C525.795 37.189 525.326 37.0957 524.887 36.909C524.448 36.7177 524.068 36.447 523.746 36.097C523.429 35.747 523.198 35.334 523.053 34.858L524.467 34.466C524.602 34.9 524.838 35.2337 525.174 35.467C525.51 35.6957 525.883 35.8077 526.294 35.803C526.663 35.7983 526.987 35.712 527.267 35.544C527.547 35.376 527.766 35.1497 527.925 34.865C528.084 34.5757 528.163 34.2443 528.163 33.871C528.163 33.311 527.988 32.849 527.638 32.485C527.293 32.121 526.84 31.939 526.28 31.939C526.121 31.939 525.958 31.9623 525.79 32.009C525.627 32.0557 525.473 32.1163 525.328 32.191L524.642 31.036L528.198 27.893L528.352 28.313H523.452V26.92H529.514V28.313L526.56 31.155L526.546 30.679C527.181 30.679 527.731 30.8213 528.198 31.106C528.665 31.386 529.024 31.7687 529.276 32.254C529.533 32.7347 529.661 33.2737 529.661 33.871C529.661 34.515 529.509 35.0867 529.206 35.586C528.907 36.0853 528.504 36.4773 527.995 36.762C527.491 37.0467 526.924 37.189 526.294 37.189Z" fill="white" fill-opacity="0.3"/>
    <path d="M150.819 99H138.736V100.75H143.861V114H145.715V100.75H150.819V99ZM163.673 109.021C163.507 109.646 163.215 110.25 162.84 110.771C161.965 111.958 160.486 112.562 158.986 112.542C157.486 112.542 156.007 111.958 155.132 110.771C154.236 109.583 153.965 108.021 153.944 106.5C153.965 104.958 154.236 103.396 155.132 102.229C156.007 101.042 157.486 100.437 158.986 100.458C160.486 100.458 161.965 101.042 162.84 102.229C163.277 102.792 163.548 103.458 163.736 104.146L165.652 103.833C165.402 102.875 164.986 101.937 164.319 101.083C163.069 99.4792 161.09 98.6875 158.986 98.6875C156.861 98.6875 154.902 99.4583 153.652 101.083C152.423 102.625 151.986 104.521 151.965 106.5C151.944 108.417 152.423 110.354 153.652 111.896C154.902 113.479 156.84 114.312 158.986 114.312C161.069 114.312 163.027 113.542 164.319 111.896C164.882 111.188 165.277 110.375 165.527 109.562L163.673 109.021ZM179.427 114L176.49 107.979C177.135 107.687 177.698 107.25 178.115 106.708C178.802 105.875 179.219 104.812 179.219 103.729C179.198 102.604 178.76 101.458 178.01 100.625C177.49 100 176.781 99.5208 176.01 99.2708C175.51 99.0833 174.99 99 174.448 99H168.052V114H169.906V108.437H174.448H174.615L177.302 114H179.427ZM169.906 100.771H174.448C175.177 100.771 175.969 101.146 176.49 101.687C177.01 102.229 177.281 102.958 177.302 103.729C177.323 104.396 177.073 105.062 176.656 105.583C176.094 106.271 175.24 106.687 174.448 106.687H169.906V100.771ZM195.62 106.937C195.12 106.417 194.495 106.042 193.828 105.771C194.224 105.479 194.557 105.146 194.807 104.75C195.224 104.187 195.474 103.5 195.474 102.771C195.474 101.542 194.87 100.271 193.807 99.5208C193.057 98.9583 192.036 98.6875 191.099 98.6875C190.182 98.6875 189.203 98.875 188.37 99.5C187.328 100.25 186.724 101.437 186.724 102.75V119H188.599V113.5C189.516 114.063 190.661 114.312 191.786 114.312C193.182 114.312 194.495 113.875 195.432 112.917C196.328 112 196.745 110.875 196.745 109.667C196.745 108.646 196.349 107.667 195.62 106.937ZM194.182 111.521C193.62 112.187 192.786 112.542 191.849 112.542C190.932 112.542 190.099 112.333 189.516 111.854C188.891 111.375 188.641 110.708 188.641 109.729V102.708C188.641 102.083 188.974 101.354 189.516 100.958C189.974 100.604 190.516 100.437 191.099 100.437C191.661 100.437 192.224 100.625 192.661 100.958C193.203 101.375 193.578 102.062 193.578 102.792C193.578 103.271 193.391 103.792 192.995 104.229C192.557 104.729 191.87 105.062 191.099 105.187V106.854C192.036 106.917 192.911 107.125 193.703 107.667C194.37 108.104 194.87 108.812 194.87 109.708C194.87 110.333 194.62 110.979 194.182 111.521Z" fill="white"/>
    <path d="M464 112V24" stroke="white" stroke-opacity="0.3" stroke-width="2" stroke-linecap="square" stroke-dasharray="6 6"/>
    <g filter="url(#filter0_i_5934_38313)">
        <path d="M249 80H462.4C462.96 80 463.24 80 463.454 80.109C463.642 80.2049 463.795 80.3578 463.891 80.546C464 80.7599 464 81.0399 464 81.6V130.4C464 130.96 464 131.24 463.891 131.454C463.795 131.642 463.642 131.795 463.454 131.891C463.24 132 462.96 132 462.4 132H249L244 125.5L249 119L244 112L249 106L244 99.5L249 93L244 86.5L249 80Z" fill="#99E099"/>
    </g>
    <path d="M249 80H462.4C462.96 80 463.24 80 463.454 80.109C463.642 80.2049 463.795 80.3578 463.891 80.546C464 80.7599 464 81.0399 464 81.6V130.4C464 130.96 464 131.24 463.891 131.454C463.795 131.642 463.642 131.795 463.454 131.891C463.24 132 462.96 132 462.4 132H249L244 125.5L249 119L244 112L249 106L244 99.5L249 93L244 86.5L249 80Z" stroke="#110529" stroke-width="2" stroke-linecap="round"/>
    <path d="M363.209 114H365.792L370.813 99H368.896L364.48 112.021L360.126 99H358.188L363.209 114Z" fill="#110529"/>
    <path d="M560 112V24" stroke="white" stroke-opacity="0.3" stroke-width="2" stroke-linecap="square" stroke-dasharray="6 6"/>
    <g filter="url(#filter1_i_5934_38313)">
        <rect x="464" y="80" width="30" height="52" rx="1" fill="#CBEB67"/>
    </g>
    <rect x="464" y="80" width="30" height="52" rx="1" stroke="#110529" stroke-width="2" stroke-linecap="round"/>
    <g filter="url(#filter2_i_5934_38313)">
        <rect x="530" y="80" width="30" height="52" rx="1" fill="#FAAAFA"/>
    </g>
    <rect x="530" y="80" width="30" height="52" rx="1" stroke="#110529" stroke-width="2" stroke-linecap="round"/>
    <g filter="url(#filter3_i_5934_38313)">
        <rect x="494" y="80" width="36" height="52" rx="1" fill="#FFCB8F"/>
    </g>
    <rect x="494" y="80" width="36" height="52" rx="1" stroke="#110529" stroke-width="2" stroke-linecap="round"/>
    <path d="M475.087 99H473.212V114H475.087V102.271L482.921 114H484.796V99H482.921V110.708L475.087 99Z" fill="#110529"/>
    <path d="M541.087 99H539.212V114H541.087V102.271L548.921 114H550.796V99H548.921V110.708L541.087 99Z" fill="#110529"/>
    <path d="M518.16 106.542C518.16 108.562 517.556 110.646 516.285 112.021C515.056 113.375 513.264 113.979 511.41 113.979H506.368V98.9792L511.452 99C513.389 99 515.098 99.6458 516.285 100.979C517.639 102.437 518.16 104.458 518.16 106.542ZM516.202 106.542C516.223 104.917 515.848 103.312 514.889 102.208C513.993 101.187 512.806 100.792 511.431 100.771L508.285 100.792V112.187L511.41 112.229C512.785 112.208 514.035 111.75 514.91 110.771C515.848 109.687 516.181 108.062 516.202 106.542Z" fill="#110529"/>
    <g filter="url(#filter4_i_5934_38313)">
        <path d="M695 132L561.6 132C561.04 132 560.76 132 560.546 131.891C560.358 131.795 560.205 131.642 560.109 131.454C560 131.24 560 130.96 560 130.4V106V81.6C560 81.0399 560 80.7599 560.109 80.546C560.205 80.3578 560.358 80.2049 560.546 80.109C560.76 80 561.04 80 561.6 80L695 80L700 86.5L695 93L700 100L695 106L700 112.5L695 119L700 125.5L695 132Z" fill="#C1ADFF"/>
    </g>
    <path d="M695 132L561.6 132C561.04 132 560.76 132 560.546 131.891C560.358 131.795 560.205 131.642 560.109 131.454C560 131.24 560 130.96 560 130.4V106V81.6C560 81.0399 560 80.7599 560.109 80.546C560.205 80.3578 560.358 80.2049 560.546 80.109C560.76 80 561.04 80 561.6 80L695 80L700 86.5L695 93L700 100L695 106L700 112.5L695 119L700 125.5L695 132Z" stroke="#110529" stroke-width="2" stroke-linecap="round"/>
    <path d="M633.272 99V109.292C633.272 110.604 633.272 111.312 632.71 112.312C631.939 113.604 630.751 114.312 629.126 114.312C628.356 114.312 627.606 114.146 626.96 113.729C626.001 113.187 625.314 112.208 625.022 111.146L626.876 110.708C626.981 111.292 627.356 111.812 627.856 112.146C628.21 112.396 628.668 112.542 629.106 112.542C629.897 112.542 630.731 112.125 631.085 111.354C631.356 110.792 631.356 110.375 631.356 109.292V99H633.272Z" fill="#110529"/>
    <path d="M372 180L371.293 180.707L370.586 180L371.293 179.293L372 180ZM379.293 171.293L380 170.586L381.414 172L380.707 172.707L379.293 171.293ZM380.707 187.293L381.414 188L380 189.414L379.293 188.707L380.707 187.293ZM382 181L372 181L372 179L382 179L382 181ZM371.293 179.293L379.293 171.293L380.707 172.707L372.707 180.707L371.293 179.293ZM372.707 179.293L380.707 187.293L379.293 188.707L371.293 180.707L372.707 179.293Z" fill="#D3D7E0"/>
    <path d="M480.5 180H382" stroke="#D3D7E0" stroke-width="2"/>
    <rect width="57" height="20" transform="translate(480.5 170)" fill="#1D1D29"/>
    <path d="M488.181 174L485.914 175.35V177L488.181 175.633V186H489.681V174H488.181ZM496.896 186.25C495.746 186.25 494.596 185.783 493.846 184.917C493.113 184.067 492.846 183.183 492.846 182.033V177.95C492.846 176.783 493.113 175.9 493.88 175.017C494.613 174.217 495.713 173.733 496.896 173.75C498.046 173.733 499.163 174.167 499.93 175.017C500.68 175.85 500.946 176.767 500.946 177.95V182.033C500.946 183.167 500.696 184.083 499.946 184.933C499.196 185.767 498.096 186.25 496.896 186.25ZM496.896 175.167C496.03 175.15 495.213 175.633 494.763 176.333C494.463 176.783 494.363 177.317 494.363 177.95V182.033C494.363 182.617 494.446 183.183 494.78 183.667C495.246 184.367 496.03 184.833 496.896 184.817C497.78 184.833 498.58 184.367 499.03 183.667C499.363 183.183 499.446 182.683 499.446 182.033V177.95C499.446 177.333 499.363 176.867 499.046 176.35C498.596 175.633 497.78 175.15 496.896 175.167ZM507.334 186.25C506.184 186.25 505.034 185.783 504.284 184.917C503.551 184.067 503.284 183.183 503.284 182.033V177.95C503.284 176.783 503.551 175.9 504.317 175.017C505.051 174.217 506.151 173.733 507.334 173.75C508.484 173.733 509.601 174.167 510.367 175.017C511.117 175.85 511.384 176.767 511.384 177.95V182.033C511.384 183.167 511.134 184.083 510.384 184.933C509.634 185.767 508.534 186.25 507.334 186.25ZM507.334 175.167C506.467 175.15 505.651 175.633 505.201 176.333C504.901 176.783 504.801 177.317 504.801 177.95V182.033C504.801 182.617 504.884 183.183 505.217 183.667C505.684 184.367 506.467 184.833 507.334 184.817C508.217 184.833 509.017 184.367 509.467 183.667C509.801 183.183 509.884 182.683 509.884 182.033V177.95C509.884 177.333 509.801 176.867 509.484 176.35C509.034 175.633 508.217 175.15 507.334 175.167ZM521.155 178.183C520.421 177.25 519.271 176.75 518.038 176.75C516.971 176.75 515.955 177.15 515.221 177.85V174H513.721V186H515.055V184.95C515.771 185.817 516.838 186.25 518.038 186.25C519.255 186.25 520.405 185.733 521.155 184.8C521.905 183.85 522.155 182.667 522.155 181.483C522.155 180.3 521.871 179.1 521.155 178.183ZM519.955 183.883C519.471 184.567 518.671 184.883 517.855 184.883C517.021 184.883 516.255 184.583 515.755 183.967C515.255 183.35 515.055 182.417 515.055 181.483C515.055 180.567 515.255 179.65 515.755 179.017C516.238 178.4 516.988 178.1 517.805 178.1C518.688 178.1 519.455 178.417 519.938 179.1C520.405 179.717 520.571 180.583 520.571 181.483C520.571 182.383 520.421 183.267 519.955 183.883ZM531.42 178.183C530.687 177.25 529.537 176.75 528.304 176.75C527.154 176.75 526.054 177.2 525.32 178.017V177H523.987V190H525.487V185.15C526.187 185.883 527.187 186.25 528.304 186.25C529.52 186.25 530.67 185.733 531.42 184.8C532.17 183.85 532.42 182.667 532.42 181.483C532.42 180.3 532.137 179.1 531.42 178.183ZM530.22 183.883C529.737 184.567 528.937 184.883 528.12 184.883C527.287 184.883 526.52 184.583 526.02 183.967C525.52 183.35 525.32 182.417 525.32 181.483C525.32 180.567 525.52 179.65 526.02 179.017C526.504 178.4 527.254 178.1 528.07 178.1C528.954 178.1 529.72 178.417 530.204 179.1C530.67 179.717 530.837 180.583 530.837 181.483C530.837 182.383 530.687 183.267 530.22 183.883Z" fill="white"/>
    <path d="M636 180H537.5" stroke="#D3D7E0" stroke-width="2"/>
    <path d="M651.767 186L649.417 181.183C649.933 180.95 650.383 180.6 650.717 180.167C651.267 179.5 651.6 178.65 651.6 177.783C651.583 176.883 651.233 175.967 650.633 175.3C650.217 174.8 649.65 174.417 649.033 174.217C648.633 174.067 648.217 174 647.783 174H642.667V186H644.15V181.55H647.783H647.917L650.067 186H651.767ZM644.15 175.417H647.783C648.367 175.417 649 175.717 649.417 176.15C649.833 176.583 650.05 177.167 650.067 177.783C650.083 178.317 649.883 178.85 649.55 179.267C649.1 179.817 648.417 180.15 647.783 180.15H644.15V175.417ZM653.682 177.617H655.199C655.199 176.883 655.532 176.2 656.066 175.733C656.482 175.383 657.032 175.167 657.632 175.167C658.282 175.167 658.882 175.4 659.316 175.833C659.799 176.283 660.082 176.933 660.082 177.617C660.082 178.383 659.849 179.083 658.966 179.867L653.616 184.567L653.599 185.983H661.432V184.567H655.932L659.782 181.133C660.999 180.05 661.599 179.167 661.599 177.633C661.599 176.583 661.182 175.567 660.449 174.867C659.749 174.117 658.766 173.75 657.699 173.75C656.732 173.75 655.766 174.017 655.032 174.65C654.199 175.367 653.666 176.45 653.682 177.617Z" fill="white"/>
    <rect x="636" y="168" width="32" height="24" rx="1" stroke="#D3D7E0" stroke-width="2"/>
    <path d="M280.767 162L278.417 157.183C278.933 156.95 279.383 156.6 279.717 156.167C280.267 155.5 280.6 154.65 280.6 153.783C280.583 152.883 280.233 151.967 279.633 151.3C279.217 150.8 278.65 150.417 278.033 150.217C277.633 150.067 277.217 150 276.783 150H271.667V162H273.15V157.55H276.783H276.917L279.067 162H280.767ZM273.15 151.417H276.783C277.367 151.417 278 151.717 278.417 152.15C278.833 152.583 279.05 153.167 279.067 153.783C279.083 154.317 278.883 154.85 278.55 155.267C278.1 155.817 277.417 156.15 276.783 156.15H273.15V151.417ZM285.032 150L282.766 151.35V153L285.032 151.633V162H286.532V150H285.032Z" fill="white"/>
    <rect x="264" y="144" width="32" height="24" rx="1" stroke="#D3D7E0" stroke-width="2"/>
    <path d="M394.5 156H296" stroke="#D3D7E0" stroke-width="2"/>
    <rect width="57" height="20" transform="translate(394.5 146)" fill="#1D1D29"/>
    <path d="M402.181 150L399.914 151.35V153L402.181 151.633V162H403.681V150H402.181ZM410.896 162.25C409.746 162.25 408.596 161.783 407.846 160.917C407.113 160.067 406.846 159.183 406.846 158.033V153.95C406.846 152.783 407.113 151.9 407.88 151.017C408.613 150.217 409.713 149.733 410.896 149.75C412.046 149.733 413.163 150.167 413.93 151.017C414.68 151.85 414.946 152.767 414.946 153.95V158.033C414.946 159.167 414.696 160.083 413.946 160.933C413.196 161.767 412.096 162.25 410.896 162.25ZM410.896 151.167C410.03 151.15 409.213 151.633 408.763 152.333C408.463 152.783 408.363 153.317 408.363 153.95V158.033C408.363 158.617 408.446 159.183 408.78 159.667C409.246 160.367 410.03 160.833 410.896 160.817C411.78 160.833 412.58 160.367 413.03 159.667C413.363 159.183 413.446 158.683 413.446 158.033V153.95C413.446 153.333 413.363 152.867 413.046 152.35C412.596 151.633 411.78 151.15 410.896 151.167ZM421.334 162.25C420.184 162.25 419.034 161.783 418.284 160.917C417.551 160.067 417.284 159.183 417.284 158.033V153.95C417.284 152.783 417.551 151.9 418.317 151.017C419.051 150.217 420.151 149.733 421.334 149.75C422.484 149.733 423.601 150.167 424.367 151.017C425.117 151.85 425.384 152.767 425.384 153.95V158.033C425.384 159.167 425.134 160.083 424.384 160.933C423.634 161.767 422.534 162.25 421.334 162.25ZM421.334 151.167C420.467 151.15 419.651 151.633 419.201 152.333C418.901 152.783 418.801 153.317 418.801 153.95V158.033C418.801 158.617 418.884 159.183 419.217 159.667C419.684 160.367 420.467 160.833 421.334 160.817C422.217 160.833 423.017 160.367 423.467 159.667C423.801 159.183 423.884 158.683 423.884 158.033V153.95C423.884 153.333 423.801 152.867 423.484 152.35C423.034 151.633 422.217 151.15 421.334 151.167ZM435.155 154.183C434.421 153.25 433.271 152.75 432.038 152.75C430.971 152.75 429.955 153.15 429.221 153.85V150H427.721V162H429.055V160.95C429.771 161.817 430.838 162.25 432.038 162.25C433.255 162.25 434.405 161.733 435.155 160.8C435.905 159.85 436.155 158.667 436.155 157.483C436.155 156.3 435.871 155.1 435.155 154.183ZM433.955 159.883C433.471 160.567 432.671 160.883 431.855 160.883C431.021 160.883 430.255 160.583 429.755 159.967C429.255 159.35 429.055 158.417 429.055 157.483C429.055 156.567 429.255 155.65 429.755 155.017C430.238 154.4 430.988 154.1 431.805 154.1C432.688 154.1 433.455 154.417 433.938 155.1C434.405 155.717 434.571 156.583 434.571 157.483C434.571 158.383 434.421 159.267 433.955 159.883ZM445.42 154.183C444.687 153.25 443.537 152.75 442.304 152.75C441.154 152.75 440.054 153.2 439.32 154.017V153H437.987V166H439.487V161.15C440.187 161.883 441.187 162.25 442.304 162.25C443.52 162.25 444.67 161.733 445.42 160.8C446.17 159.85 446.42 158.667 446.42 157.483C446.42 156.3 446.137 155.1 445.42 154.183ZM444.22 159.883C443.737 160.567 442.937 160.883 442.12 160.883C441.287 160.883 440.52 160.583 440.02 159.967C439.52 159.35 439.32 158.417 439.32 157.483C439.32 156.567 439.52 155.65 440.02 155.017C440.504 154.4 441.254 154.1 442.07 154.1C442.954 154.1 443.72 154.417 444.204 155.1C444.67 155.717 444.837 156.583 444.837 157.483C444.837 158.383 444.687 159.267 444.22 159.883Z" fill="white"/>
    <path d="M550 156H451.5" stroke="#D3D7E0" stroke-width="2"/>
    <path d="M560 156L560.707 155.293L561.414 156L560.707 156.707L560 156ZM552.707 164.707L552 165.414L550.586 164L551.293 163.293L552.707 164.707ZM551.293 148.707L550.586 148L552 146.586L552.707 147.293L551.293 148.707ZM550 155L560 155L560 157L550 157L550 155ZM560.707 156.707L552.707 164.707L551.293 163.293L559.293 155.293L560.707 156.707ZM559.293 156.707L551.293 148.707L552.707 147.293L560.707 155.293L559.293 156.707Z" fill="#D3D7E0"/>
    <defs>
        <filter id="filter0_i_5934_38313" x="242.737" y="79" width="222.263" height="54" filterUnits="userSpaceOnUse" color-interpolation-filters="sRGB">
            <feFlood flood-opacity="0" result="BackgroundImageFix"/>
            <feBlend mode="normal" in="SourceGraphic" in2="BackgroundImageFix" result="shape"/>
            <feColorMatrix in="SourceAlpha" type="matrix" values="0 0 0 0 0 0 0 0 0 0 0 0 0 0 0 0 0 0 127 0" result="hardAlpha"/>
            <feOffset dx="-8" dy="-4"/>
            <feComposite in2="hardAlpha" operator="arithmetic" k2="-1" k3="1"/>
            <feColorMatrix type="matrix" values="0 0 0 0 0.0666667 0 0 0 0 0.0196078 0 0 0 0 0.160784 0 0 0 0.16 0"/>
            <feBlend mode="normal" in2="shape" result="effect1_innerShadow_5934_38313"/>
        </filter>
        <filter id="filter1_i_5934_38313" x="463" y="79" width="32" height="54" filterUnits="userSpaceOnUse" color-interpolation-filters="sRGB">
            <feFlood flood-opacity="0" result="BackgroundImageFix"/>
            <feBlend mode="normal" in="SourceGraphic" in2="BackgroundImageFix" result="shape"/>
            <feColorMatrix in="SourceAlpha" type="matrix" values="0 0 0 0 0 0 0 0 0 0 0 0 0 0 0 0 0 0 127 0" result="hardAlpha"/>
            <feOffset dx="-8" dy="-4"/>
            <feComposite in2="hardAlpha" operator="arithmetic" k2="-1" k3="1"/>
            <feColorMatrix type="matrix" values="0 0 0 0 0.0666667 0 0 0 0 0.0196078 0 0 0 0 0.160784 0 0 0 0.16 0"/>
            <feBlend mode="normal" in2="shape" result="effect1_innerShadow_5934_38313"/>
        </filter>
        <filter id="filter2_i_5934_38313" x="529" y="79" width="32" height="54" filterUnits="userSpaceOnUse" color-interpolation-filters="sRGB">
            <feFlood flood-opacity="0" result="BackgroundImageFix"/>
            <feBlend mode="normal" in="SourceGraphic" in2="BackgroundImageFix" result="shape"/>
            <feColorMatrix in="SourceAlpha" type="matrix" values="0 0 0 0 0 0 0 0 0 0 0 0 0 0 0 0 0 0 127 0" result="hardAlpha"/>
            <feOffset dx="-8" dy="-4"/>
            <feComposite in2="hardAlpha" operator="arithmetic" k2="-1" k3="1"/>
            <feColorMatrix type="matrix" values="0 0 0 0 0.0666667 0 0 0 0 0.0196078 0 0 0 0 0.160784 0 0 0 0.16 0"/>
            <feBlend mode="normal" in2="shape" result="effect1_innerShadow_5934_38313"/>
        </filter>
        <filter id="filter3_i_5934_38313" x="493" y="79" width="38" height="54" filterUnits="userSpaceOnUse" color-interpolation-filters="sRGB">
            <feFlood flood-opacity="0" result="BackgroundImageFix"/>
            <feBlend mode="normal" in="SourceGraphic" in2="BackgroundImageFix" result="shape"/>
            <feColorMatrix in="SourceAlpha" type="matrix" values="0 0 0 0 0 0 0 0 0 0 0 0 0 0 0 0 0 0 127 0" result="hardAlpha"/>
            <feOffset dx="-8" dy="-4"/>
            <feComposite in2="hardAlpha" operator="arithmetic" k2="-1" k3="1"/>
            <feColorMatrix type="matrix" values="0 0 0 0 0.0666667 0 0 0 0 0.0196078 0 0 0 0 0.160784 0 0 0 0.16 0"/>
            <feBlend mode="normal" in2="shape" result="effect1_innerShadow_5934_38313"/>
        </filter>
        <filter id="filter4_i_5934_38313" x="559" y="79" width="142.263" height="54" filterUnits="userSpaceOnUse" color-interpolation-filters="sRGB">
            <feFlood flood-opacity="0" result="BackgroundImageFix"/>
            <feBlend mode="normal" in="SourceGraphic" in2="BackgroundImageFix" result="shape"/>
            <feColorMatrix in="SourceAlpha" type="matrix" values="0 0 0 0 0 0 0 0 0 0 0 0 0 0 0 0 0 0 127 0" result="hardAlpha"/>
            <feOffset dx="-8" dy="-4"/>
            <feComposite in2="hardAlpha" operator="arithmetic" k2="-1" k3="1"/>
            <feColorMatrix type="matrix" values="0 0 0 0 0.0666667 0 0 0 0 0.0196078 0 0 0 0 0.160784 0 0 0 0.16 0"/>
            <feBlend mode="normal" in2="shape" result="effect1_innerShadow_5934_38313"/>
        </filter>
    </defs>
</svg>
