<svg width="1338" height="630" viewBox="0 0 1338 630" fill="none" xmlns="http://www.w3.org/2000/svg">
<rect width="1338" height="630" fill="white"/>
<rect x="24" y="24" width="180" height="84" rx="12" fill="url(#paint0_linear_4724_30038)"/>
<path fill-rule="evenodd" clip-rule="evenodd" d="M29.1483 105.852C30.2726 107.468 31.7827 108.791 33.5521 109.692C36.1191 111 39.4794 111 46.2 111H187.8C194.521 111 197.881 111 200.448 109.692C202.706 108.542 204.542 106.706 205.692 104.448C207 101.881 207 98.5206 207 91.8V46.2C207 39.4794 207 36.1191 205.692 33.5521C204.791 31.7827 203.468 30.2726 201.852 29.1483C202.162 29.5947 202.443 30.0635 202.692 30.5521C204 33.1191 204 36.4794 204 43.2V88.8C204 95.5206 204 98.8809 202.692 101.448C201.542 103.706 199.706 105.542 197.448 106.692C194.881 108 191.521 108 184.8 108H43.2C36.4794 108 33.1191 108 30.5521 106.692C30.0635 106.443 29.5947 106.162 29.1483 105.852Z" fill="#110529"/>
<path d="M90.982 57.3312C91.6049 57.2115 92.2997 57.2115 92.9706 57.3073V55.4385C91.2456 55.2708 89.6164 55.3667 88.3945 56.4208C87.4602 57.2833 87.1966 58.5292 87.1966 59.5594V60.0625H84.3216V61.8115H87.1966V73H89.3289V61.8115H92.9706V60.0625H89.3289V59.4156C89.3289 58.2656 89.7362 57.5708 90.982 57.3312ZM104.893 73V65.0937C104.893 63.5365 104.51 61.9792 103.312 60.9729C102.449 60.2062 101.131 59.7031 99.8137 59.7031C97.6814 59.7031 95.9564 60.35 94.6147 61.8833L95.9564 63.3208C97.0105 62.075 98.2564 61.7396 99.598 61.7396C101.395 61.7396 102.665 62.626 102.737 64.4229C100.245 64.8062 97.6814 65.0219 96.0762 65.8125C94.471 66.6271 93.8001 67.7771 93.8001 69.4302C93.8001 71.826 95.5491 73.3594 98.0647 73.3594C100.221 73.3594 101.802 72.7365 103 71.0354V73H104.893ZM102.257 69.4781C101.539 70.7719 100.173 71.4906 98.472 71.4906C97.0105 71.4906 95.9324 70.6042 95.9324 69.2385C95.9324 67.9927 97.1303 67.226 98.5918 66.9146C99.5022 66.699 100.964 66.4594 102.761 66.1719C102.761 67.5854 102.761 68.5677 102.257 69.4781ZM118.272 63.4406C117.889 62.1948 116.811 60.949 115.589 60.326C114.726 59.8948 113.744 59.7031 112.857 59.7031C111.947 59.6792 111.013 59.775 110.078 60.1823C108.856 60.7333 107.898 61.9073 107.898 63.3208C107.898 63.9917 108.138 64.9021 108.737 65.4771C109.384 66.124 110.246 66.4594 111.037 66.7469C111.755 66.9625 112.33 67.1302 113.864 67.5615C114.702 67.801 115.181 67.9927 115.613 68.2562C116.116 68.5677 116.331 69.0469 116.331 69.4781C116.331 70.0531 116.044 70.5323 115.565 70.8677C114.99 71.251 113.936 71.4427 113.145 71.4427C112.067 71.4427 110.917 71.1552 110.174 70.3167C109.719 69.8135 109.431 68.951 109.336 68.2562L107.299 68.7594C107.659 69.9812 107.826 70.724 108.665 71.6583C109.815 72.9042 111.348 73.3594 113.121 73.3594C114.391 73.3594 115.589 73.1677 116.643 72.4729C117.673 71.85 118.32 70.6521 118.32 69.5021C118.32 68.424 117.841 67.4896 116.93 66.7708C116.212 66.1958 115.325 65.8365 114.439 65.5969C113.337 65.3094 112.546 65.0937 111.851 64.8781C111.156 64.6865 110.773 64.5187 110.462 64.3031C110.03 64.0156 109.911 63.6802 109.911 63.249C109.911 62.674 110.39 62.1708 110.917 61.9312C111.42 61.7156 112.091 61.5719 112.738 61.5958C113.409 61.6198 114.151 61.7875 114.678 62.075C115.421 62.4823 115.948 63.1531 116.236 63.9437L118.272 63.4406ZM124.308 61.8115H128.213V60.0625H124.308V56.4687H122.176V60.0625H119.54V61.8115H122.176V68.1125C122.176 69.3823 122.2 70.4125 122.655 71.3469C123.134 72.3052 124.021 72.8562 125.171 73.0958C126.033 73.2875 127.303 73.2396 128.213 73V71.1073C127.542 71.2271 126.752 71.251 126.081 71.2031C125.458 71.1312 124.859 70.7958 124.596 70.2448C124.284 69.7177 124.308 69.0469 124.308 67.9927V61.8115ZM140.35 60.0625V61.5479C139.319 60.374 137.714 59.7031 136.037 59.7031C134.288 59.7031 132.635 60.4219 131.581 61.7635C130.551 63.0812 130.143 64.8062 130.143 66.5073C130.143 68.2083 130.503 69.9094 131.581 71.275C132.659 72.6167 134.288 73.3594 136.061 73.3594C137.666 73.3594 139.08 72.8323 140.11 71.7542V78.75H142.242V60.0625H140.35ZM139.319 70.0771C138.625 70.9635 137.523 71.3948 136.325 71.3948C135.151 71.3948 133.977 70.9396 133.282 69.9573C132.635 69.0708 132.396 67.801 132.396 66.5073C132.396 65.2135 132.659 63.9677 133.306 63.0812C134.001 62.099 135.127 61.6437 136.373 61.6437C137.547 61.6437 138.649 62.075 139.319 62.9615C140.062 63.8719 140.35 65.1896 140.35 66.5073C140.35 67.849 140.062 69.1906 139.319 70.0771Z" fill="#110529"/>
<rect x="24" y="24" width="180" height="84" rx="12" stroke="#110529" stroke-width="2"/>
<path d="M237 66L237.707 66.7071L238.414 66L237.707 65.2929L237 66ZM229.707 57.2929L229 56.5858L227.586 58L228.293 58.7071L229.707 57.2929ZM228.293 73.2929L227.586 74L229 75.4142L229.707 74.7071L228.293 73.2929ZM206 67H237V65H206V67ZM237.707 65.2929L229.707 57.2929L228.293 58.7071L236.293 66.7071L237.707 65.2929ZM236.293 65.2929L228.293 73.2929L229.707 74.7071L237.707 66.7071L236.293 65.2929Z" fill="#110529"/>
<rect x="1064" y="480" width="200" height="84" rx="12" fill="url(#paint1_linear_4724_30038)"/>
<path fill-rule="evenodd" clip-rule="evenodd" d="M1069.15 561.852C1070.27 563.468 1071.78 564.791 1073.55 565.692C1076.12 567 1079.48 567 1086.2 567H1247.8C1254.52 567 1257.88 567 1260.45 565.692C1262.71 564.542 1264.54 562.706 1265.69 560.448C1267 557.881 1267 554.521 1267 547.8V502.2C1267 495.479 1267 492.119 1265.69 489.552C1264.79 487.783 1263.47 486.273 1261.85 485.148C1262.16 485.595 1262.44 486.064 1262.69 486.552C1264 489.119 1264 492.479 1264 499.2V544.8C1264 551.521 1264 554.881 1262.69 557.448C1261.54 559.706 1259.71 561.542 1257.45 562.692C1254.88 564 1251.52 564 1244.8 564H1083.2C1076.48 564 1073.12 564 1070.55 562.692C1070.06 562.443 1069.59 562.162 1069.15 561.852Z" fill="#110529"/>
<path d="M1112.89 518.937C1112.7 518.53 1112.46 518.171 1112.2 517.811C1111.05 516.398 1109.32 515.703 1107.45 515.703C1105.61 515.703 1103.88 516.35 1102.71 517.811C1101.63 519.177 1101.25 520.83 1101.23 522.531C1101.25 524.208 1101.63 525.885 1102.71 527.227C1103.86 528.641 1105.59 529.383 1107.45 529.359C1109.3 529.383 1111.05 528.641 1112.2 527.227C1112.46 526.892 1112.68 526.532 1112.89 526.149L1110.86 525.286C1110.76 525.502 1110.64 525.718 1110.47 525.933C1109.8 526.844 1108.65 527.323 1107.45 527.323C1106.26 527.323 1105.11 526.844 1104.44 525.933C1103.72 524.999 1103.5 523.753 1103.48 522.531C1103.5 521.285 1103.72 520.04 1104.44 519.129C1105.11 518.195 1106.26 517.716 1107.45 517.716C1108.65 517.716 1109.8 518.195 1110.47 519.129C1110.64 519.321 1110.78 519.56 1110.88 519.8L1112.89 518.937ZM1115.4 529V511.391H1117.53V529H1115.4ZM1126.39 529.359C1128.28 529.359 1129.98 528.665 1131.13 527.227C1132.23 525.861 1132.64 524.256 1132.64 522.507C1132.64 520.83 1132.26 519.177 1131.13 517.811C1130.01 516.398 1128.26 515.703 1126.39 515.703C1124.52 515.703 1122.75 516.446 1121.65 517.811C1120.59 519.129 1120.16 520.806 1120.16 522.507C1120.16 524.232 1120.57 525.861 1121.65 527.227C1122.8 528.641 1124.52 529.359 1126.39 529.359ZM1129.43 525.933C1128.76 526.844 1127.61 527.323 1126.39 527.323C1125.19 527.323 1124.04 526.844 1123.37 525.933C1122.65 524.999 1122.44 523.753 1122.44 522.507C1122.44 521.285 1122.65 520.016 1123.37 519.105C1124.04 518.171 1125.19 517.716 1126.39 517.716C1127.61 517.716 1128.76 518.171 1129.43 519.105C1130.15 520.016 1130.37 521.285 1130.37 522.507C1130.37 523.753 1130.15 524.999 1129.43 525.933ZM1144.81 516.853C1143.69 515.895 1142.3 515.655 1140.98 515.751C1139.8 515.799 1138.56 516.23 1137.72 517.141C1137.53 517.356 1137.34 517.548 1137.19 517.764V516.062H1135.3V529H1137.43V523.346V523.322C1137.43 522.34 1137.43 521.357 1137.6 520.591C1137.74 519.752 1138.13 519.009 1138.73 518.506C1139.28 518.027 1140 517.787 1140.76 517.74C1141.7 517.716 1142.54 517.955 1143.16 518.458C1144.31 519.369 1144.5 520.95 1144.5 522.795V529H1146.66V522.723C1146.68 520.495 1146.49 518.219 1144.81 516.853ZM1155.27 529.359C1157.17 529.359 1158.87 528.665 1160.02 527.227C1161.12 525.861 1161.53 524.256 1161.53 522.507C1161.53 520.83 1161.14 519.177 1160.02 517.811C1158.89 516.398 1157.14 515.703 1155.27 515.703C1153.41 515.703 1151.63 516.446 1150.53 517.811C1149.48 519.129 1149.04 520.806 1149.04 522.507C1149.04 524.232 1149.45 525.861 1150.53 527.227C1151.68 528.641 1153.41 529.359 1155.27 529.359ZM1158.32 525.933C1157.65 526.844 1156.5 527.323 1155.27 527.323C1154.08 527.323 1152.93 526.844 1152.26 525.933C1151.54 524.999 1151.32 523.753 1151.32 522.507C1151.32 521.285 1151.54 520.016 1152.26 519.105C1152.93 518.171 1154.08 517.716 1155.27 517.716C1156.5 517.716 1157.65 518.171 1158.32 519.105C1159.04 520.016 1159.25 521.285 1159.25 522.507C1159.25 523.753 1159.04 524.999 1158.32 525.933ZM1167.49 517.811H1171.4V516.062H1167.49V512.469H1165.36V516.062H1162.72V517.811H1165.36V524.112C1165.36 525.382 1165.38 526.412 1165.84 527.347C1166.32 528.305 1167.2 528.856 1168.35 529.096C1169.22 529.288 1170.49 529.24 1171.4 529V527.107C1170.73 527.227 1169.93 527.251 1169.26 527.203C1168.64 527.131 1168.04 526.796 1167.78 526.245C1167.47 525.718 1167.49 525.047 1167.49 523.993V517.811ZM1183.25 516.062L1179.29 526.628L1175 516.062H1172.82L1178.29 529.383C1177.54 531.372 1177.16 532.139 1176.7 532.474C1176.37 532.714 1175.87 532.761 1175.39 532.738L1174.98 532.69V534.75H1175.29C1176.2 534.75 1177.02 534.678 1177.76 534.127C1178.5 533.6 1179.08 532.666 1179.58 531.348L1185.4 516.062H1183.25ZM1198 517.764C1196.95 516.422 1195.3 515.703 1193.52 515.703C1191.87 515.703 1190.29 516.35 1189.23 517.524V516.062H1187.32V534.75H1189.47V527.778C1190.48 528.832 1191.92 529.359 1193.52 529.359C1195.27 529.359 1196.93 528.617 1198 527.275C1199.08 525.909 1199.44 524.208 1199.44 522.507C1199.44 520.806 1199.03 519.081 1198 517.764ZM1196.28 525.957C1195.58 526.94 1194.43 527.395 1193.26 527.395C1192.06 527.395 1190.96 526.964 1190.24 526.077C1189.52 525.191 1189.23 523.849 1189.23 522.507C1189.23 521.19 1189.52 519.872 1190.24 518.961C1190.94 518.075 1192.01 517.644 1193.19 517.644C1194.46 517.644 1195.56 518.099 1196.25 519.081C1196.93 519.968 1197.17 521.214 1197.17 522.507C1197.17 523.801 1196.95 525.071 1196.28 525.957ZM1203.56 523.25H1213.79C1213.91 521.166 1213.5 519.273 1212.33 517.811C1211.18 516.398 1209.45 515.703 1207.59 515.703C1205.72 515.703 1203.99 516.398 1202.84 517.811C1201.79 519.129 1201.36 520.854 1201.36 522.603C1201.36 524.232 1201.79 525.885 1202.84 527.227C1203.97 528.617 1205.81 529.359 1207.68 529.359C1210.15 529.359 1212.14 528.257 1213.31 526.221L1211.71 525.167C1210.72 526.724 1209.38 527.443 1207.59 527.443C1206.36 527.443 1205.17 526.964 1204.47 526.005C1203.9 525.239 1203.63 524.28 1203.56 523.25ZM1207.59 517.596C1208.83 517.596 1210.01 518.075 1210.7 519.033C1211.16 519.632 1211.44 520.423 1211.56 521.309H1203.61C1203.73 520.471 1203.99 519.656 1204.47 519.033C1205.17 518.075 1206.36 517.596 1207.59 517.596ZM1226.7 519.441C1226.32 518.195 1225.24 516.949 1224.02 516.326C1223.16 515.895 1222.18 515.703 1221.29 515.703C1220.38 515.679 1219.44 515.775 1218.51 516.182C1217.29 516.733 1216.33 517.907 1216.33 519.321C1216.33 519.992 1216.57 520.902 1217.17 521.477C1217.82 522.124 1218.68 522.459 1219.47 522.747C1220.19 522.962 1220.76 523.13 1222.3 523.561C1223.13 523.801 1223.61 523.993 1224.04 524.256C1224.55 524.568 1224.76 525.047 1224.76 525.478C1224.76 526.053 1224.48 526.532 1224 526.868C1223.42 527.251 1222.37 527.443 1221.58 527.443C1220.5 527.443 1219.35 527.155 1218.61 526.317C1218.15 525.814 1217.86 524.951 1217.77 524.256L1215.73 524.759C1216.09 525.981 1216.26 526.724 1217.1 527.658C1218.25 528.904 1219.78 529.359 1221.55 529.359C1222.82 529.359 1224.02 529.168 1225.08 528.473C1226.11 527.85 1226.75 526.652 1226.75 525.502C1226.75 524.424 1226.27 523.49 1225.36 522.771C1224.64 522.196 1223.76 521.836 1222.87 521.597C1221.77 521.309 1220.98 521.094 1220.28 520.878C1219.59 520.686 1219.21 520.519 1218.89 520.303C1218.46 520.016 1218.34 519.68 1218.34 519.249C1218.34 518.674 1218.82 518.171 1219.35 517.931C1219.85 517.716 1220.52 517.572 1221.17 517.596C1221.84 517.62 1222.58 517.787 1223.11 518.075C1223.85 518.482 1224.38 519.153 1224.67 519.944L1226.7 519.441Z" fill="#110529"/>
<rect x="1064" y="480" width="200" height="84" rx="12" stroke="#110529" stroke-width="2"/>
<rect x="244" y="24" width="180" height="84" rx="12" fill="white"/>
<path fill-rule="evenodd" clip-rule="evenodd" d="M249.148 105.852C250.273 107.468 251.783 108.791 253.552 109.692C256.119 111 259.479 111 266.2 111H407.8C414.521 111 417.881 111 420.448 109.692C422.706 108.542 424.542 106.706 425.692 104.448C427 101.881 427 98.5206 427 91.8V46.2C427 39.4794 427 36.1191 425.692 33.5521C424.791 31.7827 423.468 30.2726 421.852 29.1483C422.162 29.5947 422.443 30.0635 422.692 30.5521C424 33.1191 424 36.4794 424 43.2V88.8C424 95.5206 424 98.8809 422.692 101.448C421.542 103.706 419.706 105.542 417.448 106.692C414.881 108 411.521 108 404.8 108H263.2C256.479 108 253.119 108 250.552 106.692C250.064 106.443 249.595 106.162 249.148 105.852Z" fill="#110529"/>
<path d="M318.963 73V65.0937C318.963 63.5365 318.58 61.9792 317.382 60.9729C316.519 60.2062 315.202 59.7031 313.884 59.7031C311.752 59.7031 310.027 60.35 308.685 61.8833L310.027 63.3208C311.081 62.075 312.327 61.7396 313.668 61.7396C315.465 61.7396 316.735 62.626 316.807 64.4229C314.315 64.8062 311.752 65.0219 310.146 65.8125C308.541 66.6271 307.87 67.7771 307.87 69.4302C307.87 71.826 309.619 73.3594 312.135 73.3594C314.291 73.3594 315.873 72.7365 317.07 71.0354V73H318.963ZM316.328 69.4781C315.609 70.7719 314.243 71.4906 312.542 71.4906C311.081 71.4906 310.003 70.6042 310.003 69.2385C310.003 67.9927 311.201 67.226 312.662 66.9146C313.573 66.699 315.034 66.4594 316.831 66.1719C316.831 67.5854 316.831 68.5677 316.328 69.4781ZM322.088 73V55.3906H324.221V73H322.088ZM327.808 55.6781V57.8823H329.941V55.6781H327.808ZM327.808 60.0625V73H329.941V60.0625H327.808ZM343.031 60.0625V61.524C341.977 60.35 340.395 59.7031 338.742 59.7031C336.969 59.7031 335.316 60.4219 334.262 61.7635C333.232 63.0812 332.825 64.8062 332.825 66.5073C332.825 68.2083 333.184 69.9094 334.262 71.275C335.34 72.6167 336.993 73.3594 338.742 73.3594C340.347 73.3594 341.785 72.8323 342.791 71.7781V73.0719C342.791 74.6531 342.6 75.4438 341.713 76.1865C340.994 76.7854 339.94 77.049 338.91 77.049C337.976 77.049 336.921 76.7135 336.299 75.9948C336.083 75.7792 335.891 75.5635 335.747 75.324L333.783 76.2823C334.118 76.8813 334.693 77.4083 335.244 77.7438C336.179 78.6302 337.568 79.1094 338.91 79.1094C340.204 79.1094 341.617 78.8698 342.887 77.9594C344.396 76.9052 344.924 75.5396 344.924 73.0958V60.0625H343.031ZM342.025 70.0771C341.306 70.9635 340.204 71.3948 339.006 71.3948C337.832 71.3948 336.682 70.9396 335.987 69.9573C335.316 69.0708 335.101 67.801 335.101 66.5073C335.101 65.2135 335.34 63.9677 336.011 63.0812C336.706 62.099 337.808 61.6437 339.078 61.6437C340.252 61.6437 341.33 62.075 342.025 62.9615C342.743 63.8719 343.031 65.1896 343.031 66.5073C343.031 67.849 342.743 69.1906 342.025 70.0771ZM357.813 60.8531C356.687 59.8948 355.297 59.6552 353.98 59.751C352.806 59.799 351.56 60.2302 350.721 61.1406C350.53 61.3562 350.338 61.5479 350.194 61.7635V60.0625H348.302V73H350.434V67.3458V67.3219C350.434 66.3396 350.434 65.3573 350.602 64.5906C350.745 63.7521 351.129 63.0094 351.728 62.5062C352.279 62.0271 352.997 61.7875 353.764 61.7396C354.699 61.7156 355.537 61.9552 356.16 62.4583C357.31 63.3687 357.502 64.95 357.502 66.7948V73H359.658V66.7229C359.682 64.4948 359.49 62.2187 357.813 60.8531Z" fill="#110529"/>
<rect x="244" y="24" width="180" height="84" rx="12" stroke="#110529" stroke-width="2"/>
<path d="M457 66L457.707 66.7071L458.414 66L457.707 65.2929L457 66ZM449.707 57.2929L449 56.5858L447.586 58L448.293 58.7071L449.707 57.2929ZM448.293 73.2929L447.586 74L449 75.4142L449.707 74.7071L448.293 73.2929ZM426 67H457V65H426V67ZM457.707 65.2929L449.707 57.2929L448.293 58.7071L456.293 66.7071L457.707 65.2929ZM456.293 65.2929L448.293 73.2929L449.707 74.7071L457.707 66.7071L456.293 65.2929Z" fill="#110529"/>
<rect x="584" y="176" width="200" height="84" rx="12" fill="#E8ECF2"/>
<path fill-rule="evenodd" clip-rule="evenodd" d="M589.148 257.852C590.273 259.468 591.783 260.791 593.552 261.692C596.119 263 599.479 263 606.2 263H767.8C774.521 263 777.881 263 780.448 261.692C782.706 260.542 784.542 258.706 785.692 256.448C787 253.881 787 250.521 787 243.8V198.2C787 191.479 787 188.119 785.692 185.552C784.791 183.783 783.468 182.273 781.852 181.148C782.162 181.595 782.443 182.064 782.692 182.552C784 185.119 784 188.479 784 195.2V240.8C784 247.521 784 250.881 782.692 253.448C781.542 255.706 779.706 257.542 777.448 258.692C774.881 260 771.521 260 764.8 260H603.2C596.479 260 593.119 260 590.552 258.692C590.064 258.443 589.595 258.162 589.148 257.852Z" fill="#110529"/>
<path d="M616.283 207.391V212.062H610.173V211.416C610.173 210.266 610.58 209.571 611.826 209.331C612.449 209.211 613.144 209.211 613.815 209.307V207.439C612.09 207.271 610.461 207.367 609.239 208.421C608.304 209.283 608.041 210.529 608.041 211.559V212.062H605.166V213.811H608.041V225H610.173V213.811H616.283V225H618.415V207.391H616.283ZM627.275 225.359C629.168 225.359 630.869 224.665 632.019 223.227C633.121 221.861 633.528 220.256 633.528 218.507C633.528 216.83 633.145 215.177 632.019 213.811C630.893 212.398 629.144 211.703 627.275 211.703C625.406 211.703 623.633 212.446 622.531 213.811C621.477 215.129 621.046 216.806 621.046 218.507C621.046 220.232 621.453 221.861 622.531 223.227C623.681 224.641 625.406 225.359 627.275 225.359ZM630.318 221.933C629.647 222.844 628.497 223.323 627.275 223.323C626.077 223.323 624.927 222.844 624.256 221.933C623.537 220.999 623.322 219.753 623.322 218.507C623.322 217.285 623.537 216.016 624.256 215.105C624.927 214.171 626.077 213.716 627.275 213.716C628.497 213.716 629.647 214.171 630.318 215.105C631.036 216.016 631.252 217.285 631.252 218.507C631.252 219.753 631.036 220.999 630.318 221.933ZM646.536 225V217.094C646.536 215.536 646.153 213.979 644.955 212.973C644.092 212.206 642.774 211.703 641.457 211.703C639.324 211.703 637.599 212.35 636.258 213.883L637.599 215.321C638.654 214.075 639.899 213.74 641.241 213.74C643.038 213.74 644.308 214.626 644.38 216.423C641.888 216.806 639.324 217.022 637.719 217.812C636.114 218.627 635.443 219.777 635.443 221.43C635.443 223.826 637.192 225.359 639.708 225.359C641.864 225.359 643.445 224.736 644.643 223.035V225H646.536ZM643.9 221.478C643.182 222.772 641.816 223.491 640.115 223.491C638.654 223.491 637.575 222.604 637.575 221.239C637.575 219.993 638.773 219.226 640.235 218.915C641.145 218.699 642.607 218.459 644.404 218.172C644.404 219.585 644.404 220.568 643.9 221.478ZM652.991 213.811H656.896V212.062H652.991V208.469H650.859V212.062H648.223V213.811H650.859V220.112C650.859 221.382 650.883 222.412 651.338 223.347C651.817 224.305 652.704 224.856 653.854 225.096C654.716 225.288 655.986 225.24 656.896 225V223.107C656.226 223.227 655.435 223.251 654.764 223.203C654.141 223.131 653.542 222.796 653.279 222.245C652.967 221.718 652.991 221.047 652.991 219.993V213.811ZM659.761 207.678V209.882H661.893V207.678H659.761ZM659.761 212.062V225H661.893V212.062H659.761ZM675.031 212.853C673.905 211.895 672.516 211.655 671.198 211.751C670.024 211.799 668.778 212.23 667.94 213.141C667.748 213.356 667.556 213.548 667.413 213.764V212.062H665.52V225H667.652V219.346V219.322C667.652 218.34 667.652 217.357 667.82 216.591C667.964 215.752 668.347 215.009 668.946 214.506C669.497 214.027 670.216 213.787 670.982 213.74C671.917 213.716 672.755 213.955 673.378 214.458C674.528 215.369 674.72 216.95 674.72 218.795V225H676.876V218.723C676.9 216.495 676.708 214.219 675.031 212.853ZM689.471 212.062V213.524C688.417 212.35 686.835 211.703 685.182 211.703C683.409 211.703 681.756 212.422 680.702 213.764C679.672 215.081 679.264 216.806 679.264 218.507C679.264 220.208 679.624 221.909 680.702 223.275C681.78 224.617 683.433 225.359 685.182 225.359C686.787 225.359 688.225 224.832 689.231 223.778V225.072C689.231 226.653 689.039 227.444 688.153 228.186C687.434 228.785 686.38 229.049 685.35 229.049C684.416 229.049 683.361 228.714 682.738 227.995C682.523 227.779 682.331 227.564 682.187 227.324L680.223 228.282C680.558 228.881 681.133 229.408 681.684 229.744C682.619 230.63 684.008 231.109 685.35 231.109C686.644 231.109 688.057 230.87 689.327 229.959C690.836 228.905 691.363 227.54 691.363 225.096V212.062H689.471ZM688.464 222.077C687.746 222.964 686.644 223.395 685.446 223.395C684.272 223.395 683.122 222.94 682.427 221.957C681.756 221.071 681.541 219.801 681.541 218.507C681.541 217.214 681.78 215.968 682.451 215.081C683.146 214.099 684.248 213.644 685.518 213.644C686.692 213.644 687.77 214.075 688.464 214.961C689.183 215.872 689.471 217.19 689.471 218.507C689.471 219.849 689.183 221.191 688.464 222.077ZM705.914 211.703C704.907 211.727 703.877 212.039 703.063 212.685C702.559 213.069 702.2 213.476 701.913 213.955V212.062H699.996V225H702.152V218.651C702.152 216.998 702.224 215.68 703.302 214.674C703.877 214.099 704.74 213.74 705.746 213.716C706.489 213.668 707.183 213.787 707.758 214.003V211.991C707.159 211.775 706.537 211.679 705.914 211.703ZM711.05 219.25H721.28C721.4 217.166 720.992 215.273 719.818 213.811C718.668 212.398 716.943 211.703 715.075 211.703C713.206 211.703 711.481 212.398 710.331 213.811C709.277 215.129 708.846 216.854 708.846 218.603C708.846 220.232 709.277 221.885 710.331 223.227C711.457 224.617 713.302 225.359 715.171 225.359C717.638 225.359 719.627 224.257 720.801 222.221L719.196 221.167C718.213 222.724 716.872 223.443 715.075 223.443C713.853 223.443 712.655 222.964 711.96 222.005C711.385 221.239 711.122 220.28 711.05 219.25ZM715.075 213.596C716.321 213.596 717.494 214.075 718.189 215.033C718.644 215.632 718.932 216.423 719.052 217.309H711.098C711.217 216.471 711.481 215.656 711.96 215.033C712.655 214.075 713.853 213.596 715.075 213.596ZM734.066 225V217.094C734.066 215.536 733.683 213.979 732.485 212.973C731.622 212.206 730.305 211.703 728.987 211.703C726.855 211.703 725.13 212.35 723.788 213.883L725.13 215.321C726.184 214.075 727.43 213.74 728.771 213.74C730.568 213.74 731.838 214.626 731.91 216.423C729.418 216.806 726.855 217.022 725.25 217.812C723.644 218.627 722.973 219.777 722.973 221.43C722.973 223.826 724.722 225.359 727.238 225.359C729.394 225.359 730.976 224.736 732.173 223.035V225H734.066ZM731.431 221.478C730.712 222.772 729.346 223.491 727.645 223.491C726.184 223.491 725.106 222.604 725.106 221.239C725.106 219.993 726.304 219.226 727.765 218.915C728.676 218.699 730.137 218.459 731.934 218.172C731.934 219.585 731.934 220.568 731.431 221.478ZM746.463 207.75V213.284C745.433 212.278 743.947 211.703 742.39 211.703C740.641 211.703 738.988 212.422 737.934 213.764C736.904 215.081 736.496 216.806 736.496 218.507C736.496 220.208 736.856 221.909 737.934 223.275C739.012 224.617 740.641 225.359 742.414 225.359C744.139 225.359 745.672 224.736 746.703 223.491V225H748.595V207.75H746.463ZM745.672 222.077C744.978 222.964 743.876 223.395 742.678 223.395C741.504 223.395 740.33 222.94 739.635 221.957C738.988 221.071 738.749 219.801 738.749 218.507C738.749 217.214 739.012 215.968 739.659 215.081C740.354 214.099 741.48 213.644 742.726 213.644C743.9 213.644 745.002 214.075 745.672 214.961C746.415 215.872 746.703 217.19 746.703 218.507C746.703 219.849 746.415 221.191 745.672 222.077ZM761.867 212.062C761.867 210.912 761.483 209.834 760.741 208.996C759.758 207.87 758.225 207.391 756.596 207.391C755.374 207.391 754.08 207.774 753.146 208.565C752.14 209.379 751.565 210.721 751.469 212.086H753.697C753.697 211.344 753.913 210.649 754.44 210.17C754.943 209.667 755.757 209.427 756.644 209.427C757.578 209.427 758.489 209.667 759.064 210.385C759.423 210.817 759.591 211.392 759.591 212.11C759.591 212.925 759.423 213.644 758.8 214.339C757.722 215.512 756.548 215.896 755.853 217.237C755.35 218.172 755.254 219.106 755.254 220.304H757.506C757.506 219.298 757.482 218.771 757.914 218.028C758.393 217.166 759.495 216.591 760.286 215.728C761.244 214.746 761.867 213.5 761.867 212.062ZM755.254 225H757.506V222.365H755.254V225Z" fill="#110529"/>
<rect x="584" y="176" width="200" height="84" rx="12" stroke="#110529" stroke-width="2"/>
<rect x="464" y="24" width="200" height="84" rx="12" fill="#E8ECF2"/>
<path fill-rule="evenodd" clip-rule="evenodd" d="M469.148 105.852C470.273 107.468 471.783 108.791 473.552 109.692C476.119 111 479.479 111 486.2 111H647.8C654.521 111 657.881 111 660.448 109.692C662.706 108.542 664.542 106.706 665.692 104.448C667 101.881 667 98.5206 667 91.8V46.2C667 39.4794 667 36.1191 665.692 33.5521C664.791 31.7827 663.468 30.2726 661.852 29.1483C662.162 29.5947 662.443 30.0635 662.692 30.5521C664 33.1191 664 36.4794 664 43.2V88.8C664 95.5206 664 98.8809 662.692 101.448C661.542 103.706 659.706 105.542 657.448 106.692C654.881 108 651.521 108 644.8 108H483.2C476.479 108 473.119 108 470.552 106.692C470.064 106.443 469.595 106.162 469.148 105.852Z" fill="#110529"/>
<path d="M516.257 61.7635C515.203 60.4219 513.55 59.7031 511.777 59.7031C510.243 59.7031 508.782 60.2781 507.728 61.2844V55.75H505.572V73H507.488V71.4906C508.518 72.7365 510.052 73.3594 511.777 73.3594C513.526 73.3594 515.179 72.6167 516.257 71.275C517.335 69.9094 517.695 68.2083 517.695 66.5073C517.695 64.8062 517.287 63.0812 516.257 61.7635ZM514.532 69.9573C513.837 70.9396 512.687 71.3948 511.513 71.3948C510.315 71.3948 509.213 70.9635 508.495 70.0771C507.776 69.1906 507.488 67.849 507.488 66.5073C507.488 65.1896 507.776 63.8719 508.495 62.9615C509.189 62.075 510.267 61.6437 511.441 61.6437C512.711 61.6437 513.813 62.099 514.508 63.0812C515.179 63.9677 515.418 65.2135 515.418 66.5073C515.418 67.801 515.203 69.0708 514.532 69.9573ZM530.702 73V65.0937C530.702 63.5365 530.319 61.9792 529.121 60.9729C528.259 60.2062 526.941 59.7031 525.623 59.7031C523.491 59.7031 521.766 60.35 520.424 61.8833L521.766 63.3208C522.82 62.075 524.066 61.7396 525.408 61.7396C527.204 61.7396 528.474 62.626 528.546 64.4229C526.054 64.8062 523.491 65.0219 521.886 65.8125C520.281 66.6271 519.61 67.7771 519.61 69.4302C519.61 71.826 521.359 73.3594 523.874 73.3594C526.031 73.3594 527.612 72.7365 528.81 71.0354V73H530.702ZM528.067 69.4781C527.348 70.7719 525.983 71.4906 524.282 71.4906C522.82 71.4906 521.742 70.6042 521.742 69.2385C521.742 67.9927 522.94 67.226 524.401 66.9146C525.312 66.699 526.773 66.4594 528.57 66.1719C528.57 67.5854 528.57 68.5677 528.067 69.4781ZM539.745 59.7031C538.739 59.7271 537.709 60.0385 536.894 60.6854C536.391 61.0687 536.032 61.476 535.744 61.9552V60.0625H533.827V73H535.984V66.651C535.984 64.9979 536.056 63.6802 537.134 62.674C537.709 62.099 538.571 61.7396 539.577 61.7156C540.32 61.6677 541.015 61.7875 541.59 62.0031V59.9906C540.991 59.775 540.368 59.6792 539.745 59.7031ZM554.345 62.9375C554.153 62.5302 553.914 62.1708 553.65 61.8115C552.5 60.3979 550.775 59.7031 548.906 59.7031C547.061 59.7031 545.336 60.35 544.163 61.8115C543.084 63.1771 542.701 64.8302 542.677 66.5312C542.701 68.2083 543.084 69.8854 544.163 71.2271C545.313 72.6406 547.038 73.3833 548.906 73.3594C550.751 73.3833 552.5 72.6406 553.65 71.2271C553.914 70.8917 554.129 70.5323 554.345 70.149L552.308 69.2865C552.213 69.5021 552.093 69.7177 551.925 69.9333C551.254 70.8437 550.104 71.3229 548.906 71.3229C547.708 71.3229 546.558 70.8437 545.888 69.9333C545.169 68.999 544.953 67.7531 544.929 66.5312C544.953 65.2854 545.169 64.0396 545.888 63.1292C546.558 62.1948 547.708 61.7156 548.906 61.7156C550.104 61.7156 551.254 62.1948 551.925 63.1292C552.093 63.3208 552.236 63.5604 552.332 63.8L554.345 62.9375ZM562.001 73.3594C563.894 73.3594 565.595 72.6646 566.745 71.2271C567.847 69.8615 568.254 68.2562 568.254 66.5073C568.254 64.8302 567.871 63.1771 566.745 61.8115C565.619 60.3979 563.87 59.7031 562.001 59.7031C560.132 59.7031 558.359 60.4458 557.257 61.8115C556.203 63.1292 555.772 64.8062 555.772 66.5073C555.772 68.2323 556.179 69.8615 557.257 71.2271C558.407 72.6406 560.132 73.3594 562.001 73.3594ZM565.044 69.9333C564.373 70.8437 563.223 71.3229 562.001 71.3229C560.803 71.3229 559.653 70.8437 558.982 69.9333C558.263 68.999 558.048 67.7531 558.048 66.5073C558.048 65.2854 558.263 64.0156 558.982 63.1052C559.653 62.1708 560.803 61.7156 562.001 61.7156C563.223 61.7156 564.373 62.1708 565.044 63.1052C565.762 64.0156 565.978 65.2854 565.978 66.5073C565.978 67.7531 565.762 68.999 565.044 69.9333ZM580.16 55.75V61.2844C579.13 60.2781 577.644 59.7031 576.087 59.7031C574.338 59.7031 572.685 60.4219 571.631 61.7635C570.601 63.0812 570.193 64.8062 570.193 66.5073C570.193 68.2083 570.553 69.9094 571.631 71.275C572.709 72.6167 574.338 73.3594 576.111 73.3594C577.836 73.3594 579.369 72.7365 580.399 71.4906V73H582.292V55.75H580.16ZM579.369 70.0771C578.674 70.9635 577.572 71.3948 576.374 71.3948C575.201 71.3948 574.027 70.9396 573.332 69.9573C572.685 69.0708 572.445 67.801 572.445 66.5073C572.445 65.2135 572.709 63.9677 573.356 63.0812C574.051 62.099 575.177 61.6437 576.422 61.6437C577.596 61.6437 578.698 62.075 579.369 62.9615C580.112 63.8719 580.399 65.1896 580.399 66.5073C580.399 67.849 580.112 69.1906 579.369 70.0771ZM587.13 67.25H597.36C597.48 65.1656 597.073 63.2729 595.899 61.8115C594.749 60.3979 593.024 59.7031 591.155 59.7031C589.287 59.7031 587.562 60.3979 586.412 61.8115C585.357 63.1292 584.926 64.8542 584.926 66.6031C584.926 68.2323 585.357 69.8854 586.412 71.2271C587.538 72.6167 589.382 73.3594 591.251 73.3594C593.719 73.3594 595.707 72.2573 596.881 70.2208L595.276 69.1667C594.294 70.724 592.952 71.4427 591.155 71.4427C589.933 71.4427 588.735 70.9635 588.041 70.0052C587.466 69.2385 587.202 68.2802 587.13 67.25ZM591.155 61.5958C592.401 61.5958 593.575 62.075 594.27 63.0333C594.725 63.6323 595.013 64.4229 595.132 65.3094H587.178C587.298 64.4708 587.562 63.6562 588.041 63.0333C588.735 62.075 589.933 61.5958 591.155 61.5958ZM610.274 63.4406C609.891 62.1948 608.813 60.949 607.591 60.326C606.728 59.8948 605.746 59.7031 604.859 59.7031C603.949 59.6792 603.015 59.775 602.08 60.1823C600.858 60.7333 599.9 61.9073 599.9 63.3208C599.9 63.9917 600.14 64.9021 600.739 65.4771C601.385 66.124 602.248 66.4594 603.039 66.7469C603.757 66.9625 604.332 67.1302 605.866 67.5615C606.704 67.801 607.183 67.9927 607.615 68.2562C608.118 68.5677 608.333 69.0469 608.333 69.4781C608.333 70.0531 608.046 70.5323 607.567 70.8677C606.992 71.251 605.938 71.4427 605.147 71.4427C604.069 71.4427 602.919 71.1552 602.176 70.3167C601.721 69.8135 601.433 68.951 601.338 68.2562L599.301 68.7594C599.66 69.9812 599.828 70.724 600.667 71.6583C601.817 72.9042 603.35 73.3594 605.123 73.3594C606.393 73.3594 607.591 73.1677 608.645 72.4729C609.675 71.85 610.322 70.6521 610.322 69.5021C610.322 68.424 609.843 67.4896 608.932 66.7708C608.214 66.1958 607.327 65.8365 606.441 65.5969C605.339 65.3094 604.548 65.0937 603.853 64.8781C603.158 64.6865 602.775 64.5187 602.464 64.3031C602.032 64.0156 601.913 63.6802 601.913 63.249C601.913 62.674 602.392 62.1708 602.919 61.9312C603.422 61.7156 604.093 61.5719 604.74 61.5958C605.41 61.6198 606.153 61.7875 606.68 62.075C607.423 62.4823 607.95 63.1531 608.238 63.9437L610.274 63.4406ZM622.899 60.0625C622.899 58.9125 622.515 57.8344 621.773 56.9958C620.79 55.8698 619.257 55.3906 617.628 55.3906C616.406 55.3906 615.112 55.774 614.178 56.5646C613.171 57.3792 612.596 58.7208 612.501 60.0865H614.729C614.729 59.3437 614.944 58.649 615.471 58.1698C615.975 57.6667 616.789 57.4271 617.676 57.4271C618.61 57.4271 619.52 57.6667 620.095 58.3854C620.455 58.8167 620.623 59.3917 620.623 60.1104C620.623 60.925 620.455 61.6437 619.832 62.3385C618.754 63.5125 617.58 63.8958 616.885 65.2375C616.382 66.1719 616.286 67.1062 616.286 68.3042H618.538C618.538 67.2979 618.514 66.7708 618.945 66.0281C619.425 65.1656 620.527 64.5906 621.317 63.7281C622.276 62.7458 622.899 61.5 622.899 60.0625ZM616.286 73H618.538V70.3646H616.286V73Z" fill="#110529"/>
<rect x="464" y="24" width="200" height="84" rx="12" stroke="#110529" stroke-width="2"/>
<rect x="704" y="328" width="200" height="84" rx="12" fill="white"/>
<path fill-rule="evenodd" clip-rule="evenodd" d="M709.148 409.852C710.273 411.468 711.783 412.791 713.552 413.692C716.119 415 719.479 415 726.2 415H887.8C894.521 415 897.881 415 900.448 413.692C902.706 412.542 904.542 410.706 905.692 408.448C907 405.881 907 402.521 907 395.8V350.2C907 343.479 907 340.119 905.692 337.552C904.791 335.783 903.468 334.273 901.852 333.148C902.162 333.595 902.443 334.064 902.692 334.552C904 337.119 904 340.479 904 347.2V392.8C904 399.521 904 402.881 902.692 405.448C901.542 407.706 899.706 409.542 897.448 410.692C894.881 412 891.521 412 884.8 412H723.2C716.479 412 713.119 412 710.552 410.692C710.064 410.443 709.595 410.162 709.148 409.852Z" fill="#110529"/>
<path d="M761.651 377V369.094C761.651 367.536 761.267 365.979 760.069 364.973C759.207 364.206 757.889 363.703 756.571 363.703C754.439 363.703 752.714 364.35 751.373 365.883L752.714 367.321C753.768 366.075 755.014 365.74 756.356 365.74C758.153 365.74 759.423 366.626 759.494 368.423C757.003 368.806 754.439 369.022 752.834 369.812C751.229 370.627 750.558 371.777 750.558 373.43C750.558 375.826 752.307 377.359 754.823 377.359C756.979 377.359 758.56 376.736 759.758 375.035V377H761.651ZM759.015 373.478C758.296 374.772 756.931 375.491 755.23 375.491C753.768 375.491 752.69 374.604 752.69 373.239C752.69 371.993 753.888 371.226 755.35 370.915C756.26 370.699 757.721 370.459 759.518 370.172C759.518 371.585 759.518 372.568 759.015 373.478ZM775.03 367.441C774.647 366.195 773.568 364.949 772.347 364.326C771.484 363.895 770.502 363.703 769.615 363.703C768.705 363.679 767.771 363.775 766.836 364.182C765.614 364.733 764.656 365.907 764.656 367.321C764.656 367.992 764.896 368.902 765.494 369.477C766.141 370.124 767.004 370.459 767.794 370.747C768.513 370.962 769.088 371.13 770.622 371.561C771.46 371.801 771.939 371.993 772.371 372.256C772.874 372.568 773.089 373.047 773.089 373.478C773.089 374.053 772.802 374.532 772.323 374.868C771.748 375.251 770.693 375.443 769.903 375.443C768.825 375.443 767.675 375.155 766.932 374.317C766.477 373.814 766.189 372.951 766.093 372.256L764.057 372.759C764.416 373.981 764.584 374.724 765.423 375.658C766.573 376.904 768.106 377.359 769.879 377.359C771.149 377.359 772.347 377.168 773.401 376.473C774.431 375.85 775.078 374.652 775.078 373.502C775.078 372.424 774.599 371.49 773.688 370.771C772.969 370.196 772.083 369.836 771.197 369.597C770.094 369.309 769.304 369.094 768.609 368.878C767.914 368.686 767.531 368.519 767.219 368.303C766.788 368.016 766.668 367.68 766.668 367.249C766.668 366.674 767.148 366.171 767.675 365.931C768.178 365.716 768.849 365.572 769.496 365.596C770.166 365.62 770.909 365.787 771.436 366.075C772.179 366.482 772.706 367.153 772.993 367.944L775.03 367.441ZM787.99 367.441C787.607 366.195 786.528 364.949 785.307 364.326C784.444 363.895 783.462 363.703 782.575 363.703C781.665 363.679 780.73 363.775 779.796 364.182C778.574 364.733 777.616 365.907 777.616 367.321C777.616 367.992 777.855 368.902 778.454 369.477C779.101 370.124 779.964 370.459 780.754 370.747C781.473 370.962 782.048 371.13 783.582 371.561C784.42 371.801 784.899 371.993 785.33 372.256C785.834 372.568 786.049 373.047 786.049 373.478C786.049 374.053 785.762 374.532 785.283 374.868C784.708 375.251 783.653 375.443 782.863 375.443C781.785 375.443 780.635 375.155 779.892 374.317C779.437 373.814 779.149 372.951 779.053 372.256L777.017 372.759C777.376 373.981 777.544 374.724 778.383 375.658C779.533 376.904 781.066 377.359 782.839 377.359C784.109 377.359 785.307 377.168 786.361 376.473C787.391 375.85 788.038 374.652 788.038 373.502C788.038 372.424 787.559 371.49 786.648 370.771C785.929 370.196 785.043 369.836 784.157 369.597C783.054 369.309 782.264 369.094 781.569 368.878C780.874 368.686 780.491 368.519 780.179 368.303C779.748 368.016 779.628 367.68 779.628 367.249C779.628 366.674 780.108 366.171 780.635 365.931C781.138 365.716 781.809 365.572 782.455 365.596C783.126 365.62 783.869 365.787 784.396 366.075C785.139 366.482 785.666 367.153 785.953 367.944L787.99 367.441ZM792.181 371.25H802.411C802.531 369.166 802.124 367.273 800.95 365.811C799.8 364.398 798.075 363.703 796.206 363.703C794.337 363.703 792.612 364.398 791.462 365.811C790.408 367.129 789.977 368.854 789.977 370.603C789.977 372.232 790.408 373.885 791.462 375.227C792.588 376.617 794.433 377.359 796.302 377.359C798.77 377.359 800.758 376.257 801.932 374.221L800.327 373.167C799.345 374.724 798.003 375.443 796.206 375.443C794.984 375.443 793.786 374.964 793.091 374.005C792.516 373.239 792.253 372.28 792.181 371.25ZM796.206 365.596C797.452 365.596 798.626 366.075 799.321 367.033C799.776 367.632 800.063 368.423 800.183 369.309H792.229C792.349 368.471 792.612 367.656 793.091 367.033C793.786 366.075 794.984 365.596 796.206 365.596ZM820.931 364.733C820.14 364.015 818.99 363.727 817.984 363.727C816.475 363.727 815.037 364.446 814.199 365.692C814.151 365.74 814.127 365.811 814.103 365.859C813.887 365.476 813.6 365.093 813.193 364.733C812.402 364.015 811.252 363.727 810.246 363.727C808.832 363.727 807.49 364.35 806.628 365.452V364.062H804.711V377H806.868V368.782C806.868 367.992 806.963 367.321 807.514 366.626C808.041 365.979 808.856 365.62 809.695 365.62C810.365 365.62 811.036 365.883 811.515 366.339C812.378 367.081 812.474 367.872 812.474 369.166L812.45 377H814.582L814.606 369.046V368.782C814.606 367.992 814.702 367.321 815.253 366.626C815.78 365.979 816.595 365.62 817.433 365.62C818.104 365.62 818.775 365.883 819.254 366.339C820.116 367.081 820.212 367.872 820.212 369.166L820.188 377H822.321L822.345 369.046C822.345 367.225 822.273 365.931 820.931 364.733ZM836.151 365.764C835.096 364.422 833.443 363.703 831.67 363.703C830.137 363.703 828.676 364.278 827.621 365.284V359.75H825.465V377H827.382V375.491C828.412 376.736 829.945 377.359 831.67 377.359C833.419 377.359 835.072 376.617 836.151 375.275C837.229 373.909 837.588 372.208 837.588 370.507C837.588 368.806 837.181 367.081 836.151 365.764ZM834.426 373.957C833.731 374.94 832.581 375.395 831.407 375.395C830.209 375.395 829.107 374.964 828.388 374.077C827.669 373.191 827.382 371.849 827.382 370.507C827.382 369.19 827.669 367.872 828.388 366.961C829.083 366.075 830.161 365.644 831.335 365.644C832.605 365.644 833.707 366.099 834.402 367.081C835.072 367.968 835.312 369.214 835.312 370.507C835.312 371.801 835.096 373.071 834.426 373.957ZM840.222 377V359.391H842.354V377H840.222ZM847.188 371.25H857.418C857.538 369.166 857.131 367.273 855.957 365.811C854.807 364.398 853.082 363.703 851.213 363.703C849.344 363.703 847.619 364.398 846.469 365.811C845.415 367.129 844.984 368.854 844.984 370.603C844.984 372.232 845.415 373.885 846.469 375.227C847.595 376.617 849.44 377.359 851.309 377.359C853.776 377.359 855.765 376.257 856.939 374.221L855.334 373.167C854.351 374.724 853.01 375.443 851.213 375.443C849.991 375.443 848.793 374.964 848.098 374.005C847.523 373.239 847.26 372.28 847.188 371.25ZM851.213 365.596C852.459 365.596 853.633 366.075 854.327 367.033C854.783 367.632 855.07 368.423 855.19 369.309H847.236C847.356 368.471 847.619 367.656 848.098 367.033C848.793 366.075 849.991 365.596 851.213 365.596Z" fill="#110529"/>
<rect x="704" y="328" width="200" height="84" rx="12" stroke="#110529" stroke-width="2"/>
<rect x="944" y="328" width="200" height="84" rx="12" fill="#E8ECF2"/>
<path fill-rule="evenodd" clip-rule="evenodd" d="M949.148 409.852C950.273 411.468 951.783 412.791 953.552 413.692C956.119 415 959.479 415 966.2 415H1127.8C1134.52 415 1137.88 415 1140.45 413.692C1142.71 412.542 1144.54 410.706 1145.69 408.448C1147 405.881 1147 402.521 1147 395.8V350.2C1147 343.479 1147 340.119 1145.69 337.552C1144.79 335.783 1143.47 334.273 1141.85 333.148C1142.16 333.595 1142.44 334.064 1142.69 334.552C1144 337.119 1144 340.479 1144 347.2V392.8C1144 399.521 1144 402.881 1142.69 405.448C1141.54 407.706 1139.71 409.542 1137.45 410.692C1134.88 412 1131.52 412 1124.8 412H963.2C956.479 412 953.119 412 950.552 410.692C950.064 410.443 949.595 410.162 949.148 409.852Z" fill="#110529"/>
<path d="M988.043 361.331C988.666 361.211 989.361 361.211 990.032 361.307V359.439C988.307 359.271 986.677 359.367 985.456 360.421C984.521 361.283 984.258 362.529 984.258 363.559V364.062H981.383V365.811H984.258V377H986.39V365.811H990.032V364.062H986.39V363.416C986.39 362.266 986.797 361.571 988.043 361.331ZM1000.92 364.062V370.675C1000.92 371.322 1000.9 371.969 1000.78 372.472C1000.61 373.31 1000.23 374.053 999.654 374.532C999.103 375.011 998.384 375.275 997.593 375.299C996.659 375.347 995.844 375.107 995.222 374.604C994.072 373.694 993.856 372.089 993.856 370.268V364.062H991.7V370.34C991.676 372.568 991.867 374.844 993.568 376.209C994.694 377.168 996.06 377.407 997.402 377.311C998.552 377.264 999.798 376.832 1000.66 375.922C1000.85 375.73 1001.02 375.515 1001.16 375.323V377H1003.08V364.062H1000.92ZM1006.43 377V359.391H1008.56V377H1006.43ZM1011.91 377V359.391H1014.04V377H1011.91ZM1022.67 377V359.391H1024.8V377H1022.67ZM1029.63 371.25H1039.86C1039.98 369.166 1039.57 367.273 1038.4 365.811C1037.25 364.398 1035.53 363.703 1033.66 363.703C1031.79 363.703 1030.06 364.398 1028.91 365.811C1027.86 367.129 1027.43 368.854 1027.43 370.603C1027.43 372.232 1027.86 373.885 1028.91 375.227C1030.04 376.617 1031.88 377.359 1033.75 377.359C1036.22 377.359 1038.21 376.257 1039.38 374.221L1037.78 373.167C1036.8 374.724 1035.45 375.443 1033.66 375.443C1032.43 375.443 1031.24 374.964 1030.54 374.005C1029.97 373.239 1029.7 372.28 1029.63 371.25ZM1033.66 365.596C1034.9 365.596 1036.08 366.075 1036.77 367.033C1037.23 367.632 1037.51 368.423 1037.63 369.309H1029.68C1029.8 368.471 1030.06 367.656 1030.54 367.033C1031.24 366.075 1032.43 365.596 1033.66 365.596ZM1051.7 364.853C1050.57 363.895 1049.18 363.655 1047.86 363.751C1046.69 363.799 1045.44 364.23 1044.61 365.141C1044.41 365.356 1044.22 365.548 1044.08 365.764V364.062H1042.19V377H1044.32V371.346V371.322C1044.32 370.34 1044.32 369.357 1044.49 368.591C1044.63 367.752 1045.01 367.009 1045.61 366.506C1046.16 366.027 1046.88 365.787 1047.65 365.74C1048.58 365.716 1049.42 365.955 1050.04 366.458C1051.19 367.369 1051.39 368.95 1051.39 370.795V377H1053.54V370.723C1053.57 368.495 1053.37 366.219 1051.7 364.853ZM1066.14 364.062V365.524C1065.08 364.35 1063.5 363.703 1061.85 363.703C1060.08 363.703 1058.42 364.422 1057.37 365.764C1056.34 367.081 1055.93 368.806 1055.93 370.507C1055.93 372.208 1056.29 373.909 1057.37 375.275C1058.45 376.617 1060.1 377.359 1061.85 377.359C1063.45 377.359 1064.89 376.832 1065.9 375.778V377.072C1065.9 378.653 1065.71 379.444 1064.82 380.186C1064.1 380.785 1063.05 381.049 1062.02 381.049C1061.08 381.049 1060.03 380.714 1059.4 379.995C1059.19 379.779 1059 379.564 1058.85 379.324L1056.89 380.282C1057.22 380.881 1057.8 381.408 1058.35 381.744C1059.28 382.63 1060.67 383.109 1062.02 383.109C1063.31 383.109 1064.72 382.87 1065.99 381.959C1067.5 380.905 1068.03 379.54 1068.03 377.096V364.062H1066.14ZM1065.13 374.077C1064.41 374.964 1063.31 375.395 1062.11 375.395C1060.94 375.395 1059.79 374.94 1059.09 373.957C1058.42 373.071 1058.21 371.801 1058.21 370.507C1058.21 369.214 1058.45 367.968 1059.12 367.081C1059.81 366.099 1060.91 365.644 1062.18 365.644C1063.36 365.644 1064.44 366.075 1065.13 366.961C1065.85 367.872 1066.14 369.19 1066.14 370.507C1066.14 371.849 1065.85 373.191 1065.13 374.077ZM1074.71 365.811H1078.62V364.062H1074.71V360.469H1072.58V364.062H1069.95V365.811H1072.58V372.112C1072.58 373.382 1072.61 374.412 1073.06 375.347C1073.54 376.305 1074.43 376.856 1075.58 377.096C1076.44 377.288 1077.71 377.24 1078.62 377V375.107C1077.95 375.227 1077.16 375.251 1076.49 375.203C1075.86 375.131 1075.26 374.796 1075 374.245C1074.69 373.718 1074.71 373.047 1074.71 371.993V365.811ZM1090.76 364.853C1089.63 363.895 1088.26 363.655 1086.92 363.751C1085.77 363.799 1084.53 364.23 1083.66 365.141C1083.47 365.332 1083.3 365.524 1083.16 365.74V359.75H1081.24V377H1083.4V370.364C1083.4 369.717 1083.42 369.094 1083.54 368.591C1083.71 367.752 1084.1 367.009 1084.67 366.506C1085.22 366.027 1085.94 365.787 1086.73 365.74C1087.66 365.716 1088.48 365.955 1089.1 366.458C1090.25 367.369 1090.47 368.95 1090.47 370.795V377H1092.62V370.723C1092.65 368.495 1092.46 366.219 1090.76 364.853ZM1105.65 364.062C1105.65 362.912 1105.27 361.834 1104.52 360.996C1103.54 359.87 1102.01 359.391 1100.38 359.391C1099.16 359.391 1097.86 359.774 1096.93 360.565C1095.92 361.379 1095.35 362.721 1095.25 364.086H1097.48C1097.48 363.344 1097.7 362.649 1098.22 362.17C1098.73 361.667 1099.54 361.427 1100.43 361.427C1101.36 361.427 1102.27 361.667 1102.85 362.385C1103.21 362.817 1103.37 363.392 1103.37 364.11C1103.37 364.925 1103.21 365.644 1102.58 366.339C1101.51 367.512 1100.33 367.896 1099.64 369.237C1099.13 370.172 1099.04 371.106 1099.04 372.304H1101.29C1101.29 371.298 1101.27 370.771 1101.7 370.028C1102.18 369.166 1103.28 368.591 1104.07 367.728C1105.03 366.746 1105.65 365.5 1105.65 364.062ZM1099.04 377H1101.29V374.365H1099.04V377Z" fill="#110529"/>
<rect x="944" y="328" width="200" height="84" rx="12" stroke="#110529" stroke-width="2"/>
<path d="M937 370L937.707 370.707L938.414 370L937.707 369.293L937 370ZM929.707 361.293L929 360.586L927.586 362L928.293 362.707L929.707 361.293ZM928.293 377.293L927.586 378L929 379.414L929.707 378.707L928.293 377.293ZM906 371H937V369H906V371ZM937.707 369.293L929.707 361.293L928.293 362.707L936.293 370.707L937.707 369.293ZM936.293 369.293L928.293 377.293L929.707 378.707L937.707 370.707L936.293 369.293Z" fill="#110529"/>
<rect x="464" y="328" width="200" height="84" rx="12" fill="white"/>
<path fill-rule="evenodd" clip-rule="evenodd" d="M469.148 409.852C470.273 411.468 471.783 412.791 473.552 413.692C476.119 415 479.479 415 486.2 415H647.8C654.521 415 657.881 415 660.448 413.692C662.706 412.542 664.542 410.706 665.692 408.448C667 405.881 667 402.521 667 395.8V350.2C667 343.479 667 340.119 665.692 337.552C664.791 335.783 663.468 334.273 661.852 333.148C662.162 333.595 662.443 334.064 662.692 334.552C664 337.119 664 340.479 664 347.2V392.8C664 399.521 664 402.881 662.692 405.448C661.542 407.706 659.706 409.542 657.448 410.692C654.881 412 651.521 412 644.8 412H483.2C476.479 412 473.119 412 470.552 410.692C470.064 410.443 469.595 410.162 469.148 409.852Z" fill="#110529"/>
<path d="M521.651 365V357.094C521.651 355.536 521.267 353.979 520.069 352.973C519.207 352.206 517.889 351.703 516.571 351.703C514.439 351.703 512.714 352.35 511.373 353.883L512.714 355.321C513.768 354.075 515.014 353.74 516.356 353.74C518.153 353.74 519.423 354.626 519.494 356.423C517.003 356.806 514.439 357.022 512.834 357.812C511.229 358.627 510.558 359.777 510.558 361.43C510.558 363.826 512.307 365.359 514.823 365.359C516.979 365.359 518.56 364.736 519.758 363.035V365H521.651ZM519.015 361.478C518.296 362.772 516.931 363.491 515.23 363.491C513.768 363.491 512.69 362.604 512.69 361.239C512.69 359.993 513.888 359.226 515.35 358.915C516.26 358.699 517.721 358.459 519.518 358.172C519.518 359.585 519.518 360.568 519.015 361.478ZM535.03 355.441C534.647 354.195 533.568 352.949 532.347 352.326C531.484 351.895 530.502 351.703 529.615 351.703C528.705 351.679 527.771 351.775 526.836 352.182C525.614 352.733 524.656 353.907 524.656 355.321C524.656 355.992 524.896 356.902 525.494 357.477C526.141 358.124 527.004 358.459 527.794 358.747C528.513 358.962 529.088 359.13 530.622 359.561C531.46 359.801 531.939 359.993 532.371 360.256C532.874 360.568 533.089 361.047 533.089 361.478C533.089 362.053 532.802 362.532 532.323 362.868C531.748 363.251 530.693 363.443 529.903 363.443C528.825 363.443 527.675 363.155 526.932 362.317C526.477 361.814 526.189 360.951 526.093 360.256L524.057 360.759C524.416 361.981 524.584 362.724 525.423 363.658C526.573 364.904 528.106 365.359 529.879 365.359C531.149 365.359 532.347 365.168 533.401 364.473C534.431 363.85 535.078 362.652 535.078 361.502C535.078 360.424 534.599 359.49 533.688 358.771C532.969 358.196 532.083 357.836 531.197 357.597C530.094 357.309 529.304 357.094 528.609 356.878C527.914 356.686 527.531 356.519 527.219 356.303C526.788 356.016 526.668 355.68 526.668 355.249C526.668 354.674 527.148 354.171 527.675 353.931C528.178 353.716 528.849 353.572 529.496 353.596C530.166 353.62 530.909 353.787 531.436 354.075C532.179 354.482 532.706 355.153 532.993 355.944L535.03 355.441ZM547.99 355.441C547.607 354.195 546.528 352.949 545.307 352.326C544.444 351.895 543.462 351.703 542.575 351.703C541.665 351.679 540.73 351.775 539.796 352.182C538.574 352.733 537.616 353.907 537.616 355.321C537.616 355.992 537.855 356.902 538.454 357.477C539.101 358.124 539.964 358.459 540.754 358.747C541.473 358.962 542.048 359.13 543.582 359.561C544.42 359.801 544.899 359.993 545.33 360.256C545.834 360.568 546.049 361.047 546.049 361.478C546.049 362.053 545.762 362.532 545.283 362.868C544.708 363.251 543.653 363.443 542.863 363.443C541.785 363.443 540.635 363.155 539.892 362.317C539.437 361.814 539.149 360.951 539.053 360.256L537.017 360.759C537.376 361.981 537.544 362.724 538.383 363.658C539.533 364.904 541.066 365.359 542.839 365.359C544.109 365.359 545.307 365.168 546.361 364.473C547.391 363.85 548.038 362.652 548.038 361.502C548.038 360.424 547.559 359.49 546.648 358.771C545.929 358.196 545.043 357.836 544.157 357.597C543.054 357.309 542.264 357.094 541.569 356.878C540.874 356.686 540.491 356.519 540.179 356.303C539.748 356.016 539.628 355.68 539.628 355.249C539.628 354.674 540.108 354.171 540.635 353.931C541.138 353.716 541.809 353.572 542.455 353.596C543.126 353.62 543.869 353.787 544.396 354.075C545.139 354.482 545.666 355.153 545.953 355.944L547.99 355.441ZM552.181 359.25H562.411C562.531 357.166 562.124 355.273 560.95 353.811C559.8 352.398 558.075 351.703 556.206 351.703C554.337 351.703 552.612 352.398 551.462 353.811C550.408 355.129 549.977 356.854 549.977 358.603C549.977 360.232 550.408 361.885 551.462 363.227C552.588 364.617 554.433 365.359 556.302 365.359C558.77 365.359 560.758 364.257 561.932 362.221L560.327 361.167C559.345 362.724 558.003 363.443 556.206 363.443C554.984 363.443 553.786 362.964 553.091 362.005C552.516 361.239 552.253 360.28 552.181 359.25ZM556.206 353.596C557.452 353.596 558.626 354.075 559.321 355.033C559.776 355.632 560.063 356.423 560.183 357.309H552.229C552.349 356.471 552.612 355.656 553.091 355.033C553.786 354.075 554.984 353.596 556.206 353.596ZM580.931 352.733C580.14 352.015 578.99 351.727 577.984 351.727C576.475 351.727 575.037 352.446 574.199 353.692C574.151 353.74 574.127 353.811 574.103 353.859C573.887 353.476 573.6 353.093 573.193 352.733C572.402 352.015 571.252 351.727 570.246 351.727C568.832 351.727 567.49 352.35 566.628 353.452V352.062H564.711V365H566.868V356.782C566.868 355.992 566.963 355.321 567.514 354.626C568.041 353.979 568.856 353.62 569.695 353.62C570.365 353.62 571.036 353.883 571.515 354.339C572.378 355.081 572.474 355.872 572.474 357.166L572.45 365H574.582L574.606 357.046V356.782C574.606 355.992 574.702 355.321 575.253 354.626C575.78 353.979 576.595 353.62 577.433 353.62C578.104 353.62 578.775 353.883 579.254 354.339C580.116 355.081 580.212 355.872 580.212 357.166L580.188 365H582.321L582.345 357.046C582.345 355.225 582.273 353.931 580.931 352.733ZM596.151 353.764C595.096 352.422 593.443 351.703 591.67 351.703C590.137 351.703 588.676 352.278 587.621 353.284V347.75H585.465V365H587.382V363.491C588.412 364.736 589.945 365.359 591.67 365.359C593.419 365.359 595.072 364.617 596.151 363.275C597.229 361.909 597.588 360.208 597.588 358.507C597.588 356.806 597.181 355.081 596.151 353.764ZM594.426 361.957C593.731 362.94 592.581 363.395 591.407 363.395C590.209 363.395 589.107 362.964 588.388 362.077C587.669 361.191 587.382 359.849 587.382 358.507C587.382 357.19 587.669 355.872 588.388 354.961C589.083 354.075 590.161 353.644 591.335 353.644C592.605 353.644 593.707 354.099 594.402 355.081C595.072 355.968 595.312 357.214 595.312 358.507C595.312 359.801 595.096 361.071 594.426 361.957ZM600.222 365V347.391H602.354V365H600.222ZM607.188 359.25H617.418C617.538 357.166 617.131 355.273 615.957 353.811C614.807 352.398 613.082 351.703 611.213 351.703C609.344 351.703 607.619 352.398 606.469 353.811C605.415 355.129 604.984 356.854 604.984 358.603C604.984 360.232 605.415 361.885 606.469 363.227C607.595 364.617 609.44 365.359 611.309 365.359C613.776 365.359 615.765 364.257 616.939 362.221L615.334 361.167C614.351 362.724 613.01 363.443 611.213 363.443C609.991 363.443 608.793 362.964 608.098 362.005C607.523 361.239 607.26 360.28 607.188 359.25ZM611.213 353.596C612.459 353.596 613.633 354.075 614.327 355.033C614.783 355.632 615.07 356.423 615.19 357.309H607.236C607.356 356.471 607.619 355.656 608.098 355.033C608.793 354.075 609.991 353.596 611.213 353.596ZM539.807 377.764C538.753 376.422 537.1 375.703 535.327 375.703C533.674 375.703 532.093 376.35 531.039 377.524V376.062H529.122V394.75H531.278V387.778C532.284 388.832 533.722 389.359 535.327 389.359C537.076 389.359 538.729 388.617 539.807 387.275C540.885 385.909 541.245 384.208 541.245 382.507C541.245 380.806 540.838 379.081 539.807 377.764ZM538.082 385.957C537.388 386.94 536.238 387.395 535.064 387.395C533.866 387.395 532.764 386.964 532.045 386.077C531.326 385.191 531.039 383.849 531.039 382.507C531.039 381.19 531.326 379.872 532.045 378.961C532.74 378.075 533.818 377.644 534.992 377.644C536.261 377.644 537.364 378.099 538.058 379.081C538.729 379.968 538.969 381.214 538.969 382.507C538.969 383.801 538.753 385.071 538.082 385.957ZM554.253 389V381.094C554.253 379.536 553.869 377.979 552.671 376.973C551.809 376.206 550.491 375.703 549.174 375.703C547.041 375.703 545.316 376.35 543.975 377.883L545.316 379.321C546.37 378.075 547.616 377.74 548.958 377.74C550.755 377.74 552.025 378.626 552.096 380.423C549.605 380.806 547.041 381.022 545.436 381.812C543.831 382.627 543.16 383.777 543.16 385.43C543.16 387.826 544.909 389.359 547.425 389.359C549.581 389.359 551.162 388.736 552.36 387.035V389H554.253ZM551.617 385.478C550.899 386.772 549.533 387.491 547.832 387.491C546.37 387.491 545.292 386.604 545.292 385.239C545.292 383.993 546.49 383.226 547.952 382.915C548.862 382.699 550.324 382.459 552.12 382.172C552.12 383.585 552.12 384.568 551.617 385.478ZM563.295 375.703C562.289 375.727 561.259 376.039 560.444 376.685C559.941 377.069 559.582 377.476 559.294 377.955V376.062H557.378V389H559.534V382.651C559.534 380.998 559.606 379.68 560.684 378.674C561.259 378.099 562.122 377.74 563.128 377.716C563.87 377.668 564.565 377.787 565.14 378.003V375.991C564.541 375.775 563.918 375.679 563.295 375.703ZM570.748 377.811H574.653V376.062H570.748V372.469H568.616V376.062H565.98V377.811H568.616V384.112C568.616 385.382 568.64 386.412 569.095 387.347C569.574 388.305 570.461 388.856 571.611 389.096C572.473 389.288 573.743 389.24 574.653 389V387.107C573.982 387.227 573.192 387.251 572.521 387.203C571.898 387.131 571.299 386.796 571.036 386.245C570.724 385.718 570.748 385.047 570.748 383.993V377.811ZM577.518 371.678V373.882H579.65V371.678H577.518ZM577.518 376.062V389H579.65V376.062H577.518ZM593.627 389V381.094C593.627 379.536 593.243 377.979 592.045 376.973C591.183 376.206 589.865 375.703 588.548 375.703C586.415 375.703 584.69 376.35 583.349 377.883L584.69 379.321C585.744 378.075 586.99 377.74 588.332 377.74C590.129 377.74 591.399 378.626 591.47 380.423C588.979 380.806 586.415 381.022 584.81 381.812C583.205 382.627 582.534 383.777 582.534 385.43C582.534 387.826 584.283 389.359 586.799 389.359C588.955 389.359 590.536 388.736 591.734 387.035V389H593.627ZM590.991 385.478C590.273 386.772 588.907 387.491 587.206 387.491C585.744 387.491 584.666 386.604 584.666 385.239C584.666 383.993 585.864 383.226 587.326 382.915C588.236 382.699 589.698 382.459 591.494 382.172C591.494 383.585 591.494 384.568 590.991 385.478ZM596.752 389V371.391H598.884V389H596.752Z" fill="#110529"/>
<rect x="464" y="328" width="200" height="84" rx="12" stroke="#110529" stroke-width="2"/>
<path d="M697 370L697.707 370.707L698.414 370L697.707 369.293L697 370ZM689.707 361.293L689 360.586L687.586 362L688.293 362.707L689.707 361.293ZM688.293 377.293L687.586 378L689 379.414L689.707 378.707L688.293 377.293ZM666 371H697V369H666V371ZM697.707 369.293L689.707 361.293L688.293 362.707L696.293 370.707L697.707 369.293ZM696.293 369.293L688.293 377.293L689.707 378.707L697.707 370.707L696.293 369.293Z" fill="#110529"/>
<g opacity="0.16">
<path d="M577 218L577.707 218.707L578.414 218L577.707 217.293L577 218ZM569.707 209.293L569 208.586L567.586 210L568.293 210.707L569.707 209.293ZM568.293 225.293L567.586 226L569 227.414L569.707 226.707L568.293 225.293ZM546 219H577V217H546V219ZM577.707 217.293L569.707 209.293L568.293 210.707L576.293 218.707L577.707 217.293ZM576.293 217.293L568.293 225.293L569.707 226.707L577.707 218.707L576.293 217.293Z" fill="#110529"/>
<path d="M444 161V157.5C444 146.186 444 140.529 447.515 137.015C451.029 133.5 456.686 133.5 468 133.5H541.5C541.964 133.5 542.196 133.5 542.393 133.494C548.712 133.287 553.787 128.212 553.994 121.893C554 121.696 554 121.464 554 121V121" stroke="#110529" stroke-width="2"/>
<path d="M444 168L444.707 168.707L444 169.414L443.293 168.707L444 168ZM435.293 160.707L434.586 160L436 158.586L436.707 159.293L435.293 160.707ZM451.293 159.293L452 158.586L453.414 160L452.707 160.707L451.293 159.293ZM445 160L445 168L443 168L443 160L445 160ZM443.293 168.707L435.293 160.707L436.707 159.293L444.707 167.293L443.293 168.707ZM443.293 167.293L451.293 159.293L452.707 160.707L444.707 168.707L443.293 167.293Z" fill="#110529"/>
<rect x="344" y="176" width="200" height="84" rx="12" fill="white"/>
<path fill-rule="evenodd" clip-rule="evenodd" d="M349.148 257.852C350.273 259.468 351.783 260.791 353.552 261.692C356.119 263 359.479 263 366.2 263H527.8C534.521 263 537.881 263 540.448 261.692C542.706 260.542 544.542 258.706 545.692 256.448C547 253.881 547 250.521 547 243.8V198.2C547 191.479 547 188.119 545.692 185.552C544.791 183.783 543.468 182.273 541.852 181.148C542.162 181.595 542.443 182.064 542.692 182.552C544 185.119 544 188.479 544 195.2V240.8C544 247.521 544 250.881 542.692 253.448C541.542 255.706 539.706 257.542 537.448 258.692C534.881 260 531.521 260 524.8 260H363.2C356.479 260 353.119 260 350.552 258.692C350.064 258.443 349.595 258.162 349.148 257.852Z" fill="#110529"/>
<path d="M409.138 201.764C408.084 200.422 406.431 199.703 404.658 199.703C403.125 199.703 401.663 200.278 400.609 201.284V195.75H398.453V213H400.37V211.491C401.4 212.736 402.933 213.359 404.658 213.359C406.407 213.359 408.06 212.617 409.138 211.275C410.217 209.909 410.576 208.208 410.576 206.507C410.576 204.806 410.169 203.081 409.138 201.764ZM407.413 209.957C406.719 210.94 405.569 211.395 404.395 211.395C403.197 211.395 402.095 210.964 401.376 210.077C400.657 209.191 400.37 207.849 400.37 206.507C400.37 205.19 400.657 203.872 401.376 202.961C402.071 202.075 403.149 201.644 404.323 201.644C405.593 201.644 406.695 202.099 407.389 203.081C408.06 203.968 408.3 205.214 408.3 206.507C408.3 207.801 408.084 209.071 407.413 209.957ZM423.584 213V205.094C423.584 203.536 423.2 201.979 422.003 200.973C421.14 200.206 419.822 199.703 418.505 199.703C416.372 199.703 414.647 200.35 413.306 201.883L414.647 203.321C415.701 202.075 416.947 201.74 418.289 201.74C420.086 201.74 421.356 202.626 421.428 204.423C418.936 204.806 416.372 205.022 414.767 205.812C413.162 206.627 412.491 207.777 412.491 209.43C412.491 211.826 414.24 213.359 416.756 213.359C418.912 213.359 420.493 212.736 421.691 211.035V213H423.584ZM420.948 209.478C420.23 210.772 418.864 211.491 417.163 211.491C415.701 211.491 414.623 210.604 414.623 209.239C414.623 207.993 415.821 207.226 417.283 206.915C418.193 206.699 419.655 206.459 421.451 206.172C421.451 207.585 421.451 208.568 420.948 209.478ZM432.627 199.703C431.62 199.727 430.59 200.039 429.775 200.685C429.272 201.069 428.913 201.476 428.625 201.955V200.062H426.709V213H428.865V206.651C428.865 204.998 428.937 203.68 430.015 202.674C430.59 202.099 431.453 201.74 432.459 201.716C433.202 201.668 433.896 201.787 434.471 202.003V199.991C433.872 199.775 433.249 199.679 432.627 199.703ZM447.226 202.937C447.034 202.53 446.795 202.171 446.531 201.811C445.381 200.398 443.656 199.703 441.788 199.703C439.943 199.703 438.218 200.35 437.044 201.811C435.966 203.177 435.582 204.83 435.558 206.531C435.582 208.208 435.966 209.885 437.044 211.227C438.194 212.641 439.919 213.383 441.788 213.359C443.632 213.383 445.381 212.641 446.531 211.227C446.795 210.892 447.011 210.532 447.226 210.149L445.19 209.286C445.094 209.502 444.974 209.718 444.806 209.933C444.136 210.844 442.986 211.323 441.788 211.323C440.59 211.323 439.44 210.844 438.769 209.933C438.05 208.999 437.834 207.753 437.811 206.531C437.834 205.285 438.05 204.04 438.769 203.129C439.44 202.195 440.59 201.716 441.788 201.716C442.986 201.716 444.136 202.195 444.806 203.129C444.974 203.321 445.118 203.56 445.214 203.8L447.226 202.937ZM454.882 213.359C456.775 213.359 458.476 212.665 459.626 211.227C460.728 209.861 461.135 208.256 461.135 206.507C461.135 204.83 460.752 203.177 459.626 201.811C458.5 200.398 456.751 199.703 454.882 199.703C453.014 199.703 451.241 200.446 450.139 201.811C449.084 203.129 448.653 204.806 448.653 206.507C448.653 208.232 449.06 209.861 450.139 211.227C451.289 212.641 453.014 213.359 454.882 213.359ZM457.925 209.933C457.254 210.844 456.104 211.323 454.882 211.323C453.684 211.323 452.534 210.844 451.864 209.933C451.145 208.999 450.929 207.753 450.929 206.507C450.929 205.285 451.145 204.016 451.864 203.105C452.534 202.171 453.684 201.716 454.882 201.716C456.104 201.716 457.254 202.171 457.925 203.105C458.644 204.016 458.859 205.285 458.859 206.507C458.859 207.753 458.644 208.999 457.925 209.933ZM473.041 195.75V201.284C472.011 200.278 470.526 199.703 468.968 199.703C467.219 199.703 465.566 200.422 464.512 201.764C463.482 203.081 463.075 204.806 463.075 206.507C463.075 208.208 463.434 209.909 464.512 211.275C465.59 212.617 467.219 213.359 468.992 213.359C470.717 213.359 472.251 212.736 473.281 211.491V213H475.174V195.75H473.041ZM472.251 210.077C471.556 210.964 470.454 211.395 469.256 211.395C468.082 211.395 466.908 210.94 466.213 209.957C465.566 209.071 465.327 207.801 465.327 206.507C465.327 205.214 465.59 203.968 466.237 203.081C466.932 202.099 468.058 201.644 469.304 201.644C470.478 201.644 471.58 202.075 472.251 202.961C472.993 203.872 473.281 205.19 473.281 206.507C473.281 207.849 472.993 209.191 472.251 210.077ZM480.012 207.25H490.242C490.362 205.166 489.954 203.273 488.78 201.811C487.63 200.398 485.905 199.703 484.037 199.703C482.168 199.703 480.443 200.398 479.293 201.811C478.239 203.129 477.807 204.854 477.807 206.603C477.807 208.232 478.239 209.885 479.293 211.227C480.419 212.617 482.264 213.359 484.132 213.359C486.6 213.359 488.589 212.257 489.763 210.221L488.157 209.167C487.175 210.724 485.833 211.443 484.037 211.443C482.815 211.443 481.617 210.964 480.922 210.005C480.347 209.239 480.083 208.28 480.012 207.25ZM484.037 201.596C485.282 201.596 486.456 202.075 487.151 203.033C487.606 203.632 487.894 204.423 488.014 205.309H480.06C480.179 204.471 480.443 203.656 480.922 203.033C481.617 202.075 482.815 201.596 484.037 201.596ZM396.801 226.937C396.61 226.53 396.37 226.171 396.107 225.811C394.957 224.398 393.232 223.703 391.363 223.703C389.518 223.703 387.793 224.35 386.619 225.811C385.541 227.177 385.158 228.83 385.134 230.531C385.158 232.208 385.541 233.885 386.619 235.227C387.769 236.641 389.494 237.383 391.363 237.359C393.208 237.383 394.957 236.641 396.107 235.227C396.37 234.892 396.586 234.532 396.801 234.149L394.765 233.286C394.669 233.502 394.549 233.718 394.382 233.933C393.711 234.844 392.561 235.323 391.363 235.323C390.165 235.323 389.015 234.844 388.344 233.933C387.625 232.999 387.41 231.753 387.386 230.531C387.41 229.285 387.625 228.04 388.344 227.129C389.015 226.195 390.165 225.716 391.363 225.716C392.561 225.716 393.711 226.195 394.382 227.129C394.549 227.321 394.693 227.56 394.789 227.8L396.801 226.937ZM404.458 237.359C406.35 237.359 408.051 236.665 409.201 235.227C410.303 233.861 410.711 232.256 410.711 230.507C410.711 228.83 410.327 227.177 409.201 225.811C408.075 224.398 406.326 223.703 404.458 223.703C402.589 223.703 400.816 224.446 399.714 225.811C398.66 227.129 398.228 228.806 398.228 230.507C398.228 232.232 398.636 233.861 399.714 235.227C400.864 236.641 402.589 237.359 404.458 237.359ZM407.5 233.933C406.829 234.844 405.679 235.323 404.458 235.323C403.26 235.323 402.11 234.844 401.439 233.933C400.72 232.999 400.504 231.753 400.504 230.507C400.504 229.285 400.72 228.016 401.439 227.105C402.11 226.171 403.26 225.716 404.458 225.716C405.679 225.716 406.829 226.171 407.5 227.105C408.219 228.016 408.435 229.285 408.435 230.507C408.435 231.753 408.219 232.999 407.5 233.933ZM419.262 223.703C418.256 223.727 417.226 224.039 416.411 224.685C415.908 225.069 415.549 225.476 415.261 225.955V224.062H413.345V237H415.501V230.651C415.501 228.998 415.573 227.68 416.651 226.674C417.226 226.099 418.088 225.74 419.095 225.716C419.837 225.668 420.532 225.787 421.107 226.003V223.991C420.508 223.775 419.885 223.679 419.262 223.703ZM429.302 223.703C428.296 223.727 427.266 224.039 426.451 224.685C425.948 225.069 425.589 225.476 425.301 225.955V224.062H423.385V237H425.541V230.651C425.541 228.998 425.613 227.68 426.691 226.674C427.266 226.099 428.128 225.74 429.135 225.716C429.877 225.668 430.572 225.787 431.147 226.003V223.991C430.548 223.775 429.925 223.679 429.302 223.703ZM434.438 231.25H444.669C444.788 229.166 444.381 227.273 443.207 225.811C442.057 224.398 440.332 223.703 438.463 223.703C436.595 223.703 434.87 224.398 433.72 225.811C432.665 227.129 432.234 228.854 432.234 230.603C432.234 232.232 432.665 233.885 433.72 235.227C434.846 236.617 436.69 237.359 438.559 237.359C441.027 237.359 443.015 236.257 444.189 234.221L442.584 233.167C441.602 234.724 440.26 235.443 438.463 235.443C437.242 235.443 436.044 234.964 435.349 234.005C434.774 233.239 434.51 232.28 434.438 231.25ZM438.463 225.596C439.709 225.596 440.883 226.075 441.578 227.033C442.033 227.632 442.321 228.423 442.44 229.309H434.486C434.606 228.471 434.87 227.656 435.349 227.033C436.044 226.075 437.242 225.596 438.463 225.596ZM458.277 226.937C458.085 226.53 457.846 226.171 457.582 225.811C456.432 224.398 454.707 223.703 452.838 223.703C450.994 223.703 449.269 224.35 448.095 225.811C447.017 227.177 446.633 228.83 446.609 230.531C446.633 232.208 447.017 233.885 448.095 235.227C449.245 236.641 450.97 237.383 452.838 237.359C454.683 237.383 456.432 236.641 457.582 235.227C457.846 234.892 458.061 234.532 458.277 234.149L456.24 233.286C456.145 233.502 456.025 233.718 455.857 233.933C455.186 234.844 454.036 235.323 452.838 235.323C451.64 235.323 450.49 234.844 449.82 233.933C449.101 232.999 448.885 231.753 448.861 230.531C448.885 229.285 449.101 228.04 449.82 227.129C450.49 226.195 451.64 225.716 452.838 225.716C454.036 225.716 455.186 226.195 455.857 227.129C456.025 227.321 456.169 227.56 456.264 227.8L458.277 226.937ZM464.112 225.811H468.017V224.062H464.112V220.469H461.98V224.062H459.345V225.811H461.98V232.112C461.98 233.382 462.004 234.412 462.459 235.347C462.938 236.305 463.825 236.856 464.975 237.096C465.837 237.288 467.107 237.24 468.017 237V235.107C467.347 235.227 466.556 235.251 465.885 235.203C465.262 235.131 464.663 234.796 464.4 234.245C464.088 233.718 464.112 233.047 464.112 231.993V225.811ZM470.882 219.678V221.882H473.014V219.678H470.882ZM470.882 224.062V237H473.014V224.062H470.882ZM482.127 237.359C484.02 237.359 485.721 236.665 486.871 235.227C487.973 233.861 488.381 232.256 488.381 230.507C488.381 228.83 487.997 227.177 486.871 225.811C485.745 224.398 483.996 223.703 482.127 223.703C480.259 223.703 478.486 224.446 477.384 225.811C476.33 227.129 475.898 228.806 475.898 230.507C475.898 232.232 476.306 233.861 477.384 235.227C478.534 236.641 480.259 237.359 482.127 237.359ZM485.17 233.933C484.499 234.844 483.349 235.323 482.127 235.323C480.93 235.323 479.78 234.844 479.109 233.933C478.39 232.999 478.174 231.753 478.174 230.507C478.174 229.285 478.39 228.016 479.109 227.105C479.78 226.171 480.93 225.716 482.127 225.716C483.349 225.716 484.499 226.171 485.17 227.105C485.889 228.016 486.105 229.285 486.105 230.507C486.105 231.753 485.889 232.999 485.17 233.933ZM500.55 224.853C499.424 223.895 498.034 223.655 496.717 223.751C495.543 223.799 494.297 224.23 493.458 225.141C493.267 225.356 493.075 225.548 492.931 225.764V224.062H491.038V237H493.171V231.346V231.322C493.171 230.34 493.171 229.357 493.338 228.591C493.482 227.752 493.866 227.009 494.464 226.506C495.016 226.027 495.734 225.787 496.501 225.74C497.435 225.716 498.274 225.955 498.897 226.458C500.047 227.369 500.238 228.95 500.238 230.795V237H502.395V230.723C502.419 228.495 502.227 226.219 500.55 224.853Z" fill="#110529"/>
<rect x="344" y="176" width="200" height="84" rx="12" stroke="#110529" stroke-width="2"/>
</g>
<path d="M684 161V157.5C684 146.186 684 140.529 680.485 137.015C676.971 133.5 671.314 133.5 660 133.5H586.5C586.036 133.5 585.804 133.5 585.607 133.494C579.288 133.287 574.213 128.212 574.006 121.893C574 121.696 574 121.464 574 121V121" stroke="#110529" stroke-width="2"/>
<path d="M684 168L683.293 168.707L684 169.414L684.707 168.707L684 168ZM692.707 160.707L693.414 160L692 158.586L691.293 159.293L692.707 160.707ZM676.707 159.293L676 158.586L674.586 160L675.293 160.707L676.707 159.293ZM683 160L683 168L685 168L685 160L683 160ZM684.707 168.707L692.707 160.707L691.293 159.293L683.293 167.293L684.707 168.707ZM684.707 167.293L676.707 159.293L675.293 160.707L683.293 168.707L684.707 167.293Z" fill="#110529"/>
<path d="M564 100H577C583.075 100 588 104.925 588 111C588 117.075 583.075 122 577 122H564V100Z" fill="url(#paint2_linear_4724_30038)"/>
<path d="M564 100H577C583.075 100 588 104.925 588 111C588 117.075 583.075 122 577 122H564V100Z" fill="white" fill-opacity="0.32"/>
<path d="M573.541 107H571.816V116H573.541V110L577.454 116H579.179V107H577.454V113L573.541 107Z" fill="#110529"/>
<path d="M564 100H577C583.075 100 588 104.925 588 111C588 117.075 583.075 122 577 122H564V100Z" stroke="#110529" stroke-width="2"/>
<path d="M551 122H564V100H551C544.925 100 540 104.925 540 111C540 117.075 544.925 122 551 122Z" fill="#E8ECF2"/>
<path d="M554.45 107L552.5 110.387L550.55 107H548.562L551.638 112.337V116H553.363V112.337L556.438 107H554.45Z" fill="#060E33" fill-opacity="0.24"/>
<path d="M551 122H564V100H551C544.925 100 540 104.925 540 111C540 117.075 544.925 122 551 122Z" stroke="#110529" stroke-width="2"/>
<rect x="824" y="480" width="200" height="84" rx="12" fill="white"/>
<path fill-rule="evenodd" clip-rule="evenodd" d="M829.148 561.852C830.273 563.468 831.783 564.791 833.552 565.692C836.119 567 839.479 567 846.2 567H1007.8C1014.52 567 1017.88 567 1020.45 565.692C1022.71 564.542 1024.54 562.706 1025.69 560.448C1027 557.881 1027 554.521 1027 547.8V502.2C1027 495.479 1027 492.119 1025.69 489.552C1024.79 487.783 1023.47 486.273 1021.85 485.148C1022.16 485.595 1022.44 486.064 1022.69 486.552C1024 489.119 1024 492.479 1024 499.2V544.8C1024 551.521 1024 554.881 1022.69 557.448C1021.54 559.706 1019.71 561.542 1017.45 562.692C1014.88 564 1011.52 564 1004.8 564H843.2C836.479 564 833.119 564 830.552 562.692C830.064 562.443 829.595 562.162 829.148 561.852Z" fill="#110529"/>
<path d="M881.651 517V509.094C881.651 507.536 881.267 505.979 880.069 504.973C879.207 504.206 877.889 503.703 876.571 503.703C874.439 503.703 872.714 504.35 871.373 505.883L872.714 507.321C873.768 506.075 875.014 505.74 876.356 505.74C878.153 505.74 879.423 506.626 879.494 508.423C877.003 508.806 874.439 509.022 872.834 509.812C871.229 510.627 870.558 511.777 870.558 513.43C870.558 515.826 872.307 517.359 874.823 517.359C876.979 517.359 878.56 516.736 879.758 515.035V517H881.651ZM879.015 513.478C878.296 514.772 876.931 515.491 875.23 515.491C873.768 515.491 872.69 514.604 872.69 513.239C872.69 511.993 873.888 511.226 875.35 510.915C876.26 510.699 877.721 510.459 879.518 510.172C879.518 511.585 879.518 512.568 879.015 513.478ZM895.03 507.441C894.647 506.195 893.568 504.949 892.347 504.326C891.484 503.895 890.502 503.703 889.615 503.703C888.705 503.679 887.771 503.775 886.836 504.182C885.614 504.733 884.656 505.907 884.656 507.321C884.656 507.992 884.896 508.902 885.494 509.477C886.141 510.124 887.004 510.459 887.794 510.747C888.513 510.962 889.088 511.13 890.622 511.561C891.46 511.801 891.939 511.993 892.371 512.256C892.874 512.568 893.089 513.047 893.089 513.478C893.089 514.053 892.802 514.532 892.323 514.868C891.748 515.251 890.693 515.443 889.903 515.443C888.825 515.443 887.675 515.155 886.932 514.317C886.477 513.814 886.189 512.951 886.093 512.256L884.057 512.759C884.416 513.981 884.584 514.724 885.423 515.658C886.573 516.904 888.106 517.359 889.879 517.359C891.149 517.359 892.347 517.168 893.401 516.473C894.431 515.85 895.078 514.652 895.078 513.502C895.078 512.424 894.599 511.49 893.688 510.771C892.969 510.196 892.083 509.836 891.197 509.597C890.094 509.309 889.304 509.094 888.609 508.878C887.914 508.686 887.531 508.519 887.219 508.303C886.788 508.016 886.668 507.68 886.668 507.249C886.668 506.674 887.148 506.171 887.675 505.931C888.178 505.716 888.849 505.572 889.496 505.596C890.166 505.62 890.909 505.787 891.436 506.075C892.179 506.482 892.706 507.153 892.993 507.944L895.03 507.441ZM907.99 507.441C907.607 506.195 906.528 504.949 905.307 504.326C904.444 503.895 903.462 503.703 902.575 503.703C901.665 503.679 900.73 503.775 899.796 504.182C898.574 504.733 897.616 505.907 897.616 507.321C897.616 507.992 897.855 508.902 898.454 509.477C899.101 510.124 899.964 510.459 900.754 510.747C901.473 510.962 902.048 511.13 903.582 511.561C904.42 511.801 904.899 511.993 905.33 512.256C905.834 512.568 906.049 513.047 906.049 513.478C906.049 514.053 905.762 514.532 905.283 514.868C904.708 515.251 903.653 515.443 902.863 515.443C901.785 515.443 900.635 515.155 899.892 514.317C899.437 513.814 899.149 512.951 899.053 512.256L897.017 512.759C897.376 513.981 897.544 514.724 898.383 515.658C899.533 516.904 901.066 517.359 902.839 517.359C904.109 517.359 905.307 517.168 906.361 516.473C907.391 515.85 908.038 514.652 908.038 513.502C908.038 512.424 907.559 511.49 906.648 510.771C905.929 510.196 905.043 509.836 904.157 509.597C903.054 509.309 902.264 509.094 901.569 508.878C900.874 508.686 900.491 508.519 900.179 508.303C899.748 508.016 899.628 507.68 899.628 507.249C899.628 506.674 900.108 506.171 900.635 505.931C901.138 505.716 901.809 505.572 902.455 505.596C903.126 505.62 903.869 505.787 904.396 506.075C905.139 506.482 905.666 507.153 905.953 507.944L907.99 507.441ZM912.181 511.25H922.411C922.531 509.166 922.124 507.273 920.95 505.811C919.8 504.398 918.075 503.703 916.206 503.703C914.337 503.703 912.612 504.398 911.462 505.811C910.408 507.129 909.977 508.854 909.977 510.603C909.977 512.232 910.408 513.885 911.462 515.227C912.588 516.617 914.433 517.359 916.302 517.359C918.77 517.359 920.758 516.257 921.932 514.221L920.327 513.167C919.345 514.724 918.003 515.443 916.206 515.443C914.984 515.443 913.786 514.964 913.091 514.005C912.516 513.239 912.253 512.28 912.181 511.25ZM916.206 505.596C917.452 505.596 918.626 506.075 919.321 507.033C919.776 507.632 920.063 508.423 920.183 509.309H912.229C912.349 508.471 912.612 507.656 913.091 507.033C913.786 506.075 914.984 505.596 916.206 505.596ZM940.931 504.733C940.14 504.015 938.99 503.727 937.984 503.727C936.475 503.727 935.037 504.446 934.199 505.692C934.151 505.74 934.127 505.811 934.103 505.859C933.887 505.476 933.6 505.093 933.193 504.733C932.402 504.015 931.252 503.727 930.246 503.727C928.832 503.727 927.49 504.35 926.628 505.452V504.062H924.711V517H926.868V508.782C926.868 507.992 926.963 507.321 927.514 506.626C928.041 505.979 928.856 505.62 929.695 505.62C930.365 505.62 931.036 505.883 931.515 506.339C932.378 507.081 932.474 507.872 932.474 509.166L932.45 517H934.582L934.606 509.046V508.782C934.606 507.992 934.702 507.321 935.253 506.626C935.78 505.979 936.595 505.62 937.433 505.62C938.104 505.62 938.775 505.883 939.254 506.339C940.116 507.081 940.212 507.872 940.212 509.166L940.188 517H942.321L942.345 509.046C942.345 507.225 942.273 505.931 940.931 504.733ZM956.151 505.764C955.096 504.422 953.443 503.703 951.67 503.703C950.137 503.703 948.676 504.278 947.621 505.284V499.75H945.465V517H947.382V515.491C948.412 516.736 949.945 517.359 951.67 517.359C953.419 517.359 955.072 516.617 956.151 515.275C957.229 513.909 957.588 512.208 957.588 510.507C957.588 508.806 957.181 507.081 956.151 505.764ZM954.426 513.957C953.731 514.94 952.581 515.395 951.407 515.395C950.209 515.395 949.107 514.964 948.388 514.077C947.669 513.191 947.382 511.849 947.382 510.507C947.382 509.19 947.669 507.872 948.388 506.961C949.083 506.075 950.161 505.644 951.335 505.644C952.605 505.644 953.707 506.099 954.402 507.081C955.072 507.968 955.312 509.214 955.312 510.507C955.312 511.801 955.096 513.071 954.426 513.957ZM960.222 517V499.391H962.354V517H960.222ZM967.188 511.25H977.418C977.538 509.166 977.131 507.273 975.957 505.811C974.807 504.398 973.082 503.703 971.213 503.703C969.344 503.703 967.619 504.398 966.469 505.811C965.415 507.129 964.984 508.854 964.984 510.603C964.984 512.232 965.415 513.885 966.469 515.227C967.595 516.617 969.44 517.359 971.309 517.359C973.776 517.359 975.765 516.257 976.939 514.221L975.334 513.167C974.351 514.724 973.01 515.443 971.213 515.443C969.991 515.443 968.793 514.964 968.098 514.005C967.523 513.239 967.26 512.28 967.188 511.25ZM971.213 505.596C972.459 505.596 973.633 506.075 974.327 507.033C974.783 507.632 975.07 508.423 975.19 509.309H967.236C967.356 508.471 967.619 507.656 968.098 507.033C968.793 506.075 969.991 505.596 971.213 505.596ZM893.872 530.937C893.68 530.53 893.44 530.171 893.177 529.811C892.027 528.398 890.302 527.703 888.433 527.703C886.588 527.703 884.863 528.35 883.689 529.811C882.611 531.177 882.228 532.83 882.204 534.531C882.228 536.208 882.611 537.885 883.689 539.227C884.839 540.641 886.564 541.383 888.433 541.359C890.278 541.383 892.027 540.641 893.177 539.227C893.44 538.892 893.656 538.532 893.872 538.149L891.835 537.286C891.739 537.502 891.62 537.718 891.452 537.933C890.781 538.844 889.631 539.323 888.433 539.323C887.235 539.323 886.085 538.844 885.414 537.933C884.696 536.999 884.48 535.753 884.456 534.531C884.48 533.285 884.696 532.04 885.414 531.129C886.085 530.195 887.235 529.716 888.433 529.716C889.631 529.716 890.781 530.195 891.452 531.129C891.62 531.321 891.763 531.56 891.859 531.8L893.872 530.937ZM901.528 541.359C903.421 541.359 905.122 540.665 906.272 539.227C907.374 537.861 907.781 536.256 907.781 534.507C907.781 532.83 907.398 531.177 906.272 529.811C905.146 528.398 903.397 527.703 901.528 527.703C899.659 527.703 897.886 528.446 896.784 529.811C895.73 531.129 895.299 532.806 895.299 534.507C895.299 536.232 895.706 537.861 896.784 539.227C897.934 540.641 899.659 541.359 901.528 541.359ZM904.571 537.933C903.9 538.844 902.75 539.323 901.528 539.323C900.33 539.323 899.18 538.844 898.509 537.933C897.79 536.999 897.575 535.753 897.575 534.507C897.575 533.285 897.79 532.016 898.509 531.105C899.18 530.171 900.33 529.716 901.528 529.716C902.75 529.716 903.9 530.171 904.571 531.105C905.289 532.016 905.505 533.285 905.505 534.507C905.505 535.753 905.289 536.999 904.571 537.933ZM919.95 528.853C918.824 527.895 917.435 527.655 916.117 527.751C914.943 527.799 913.697 528.23 912.859 529.141C912.667 529.356 912.475 529.548 912.332 529.764V528.062H910.439V541H912.571V535.346V535.322C912.571 534.34 912.571 533.357 912.739 532.591C912.883 531.752 913.266 531.009 913.865 530.506C914.416 530.027 915.135 529.787 915.901 529.74C916.836 529.716 917.674 529.955 918.297 530.458C919.447 531.369 919.639 532.95 919.639 534.795V541H921.795V534.723C921.819 532.495 921.627 530.219 919.95 528.853ZM928.232 529.811H932.138V528.062H928.232V524.469H926.1V528.062H923.465V529.811H926.1V536.112C926.1 537.382 926.124 538.412 926.579 539.347C927.058 540.305 927.945 540.856 929.095 541.096C929.957 541.288 931.227 541.24 932.138 541V539.107C931.467 539.227 930.676 539.251 930.005 539.203C929.382 539.131 928.783 538.796 928.52 538.245C928.208 537.718 928.232 537.047 928.232 535.993V529.811ZM935.002 523.678V525.882H937.134V523.678H935.002ZM935.002 528.062V541H937.134V528.062H935.002ZM950.225 528.062V529.524C949.17 528.35 947.589 527.703 945.936 527.703C944.163 527.703 942.51 528.422 941.456 529.764C940.426 531.081 940.018 532.806 940.018 534.507C940.018 536.208 940.378 537.909 941.456 539.275C942.534 540.617 944.187 541.359 945.936 541.359C947.541 541.359 948.979 540.832 949.985 539.778V541.072C949.985 542.653 949.793 543.444 948.907 544.186C948.188 544.785 947.134 545.049 946.104 545.049C945.169 545.049 944.115 544.714 943.492 543.995C943.277 543.779 943.085 543.564 942.941 543.324L940.977 544.282C941.312 544.881 941.887 545.408 942.438 545.744C943.373 546.63 944.762 547.109 946.104 547.109C947.398 547.109 948.811 546.87 950.081 545.959C951.59 544.905 952.117 543.54 952.117 541.096V528.062H950.225ZM949.218 538.077C948.5 538.964 947.398 539.395 946.2 539.395C945.026 539.395 943.876 538.94 943.181 537.957C942.51 537.071 942.294 535.801 942.294 534.507C942.294 533.214 942.534 531.968 943.205 531.081C943.9 530.099 945.002 529.644 946.272 529.644C947.445 529.644 948.524 530.075 949.218 530.961C949.937 531.872 950.225 533.19 950.225 534.507C950.225 535.849 949.937 537.191 949.218 538.077ZM965.726 531.441C965.342 530.195 964.264 528.949 963.042 528.326C962.18 527.895 961.198 527.703 960.311 527.703C959.401 527.679 958.466 527.775 957.532 528.182C956.31 528.733 955.352 529.907 955.352 531.321C955.352 531.992 955.591 532.902 956.19 533.477C956.837 534.124 957.7 534.459 958.49 534.747C959.209 534.962 959.784 535.13 961.317 535.561C962.156 535.801 962.635 535.993 963.066 536.256C963.569 536.568 963.785 537.047 963.785 537.478C963.785 538.053 963.498 538.532 963.018 538.868C962.443 539.251 961.389 539.443 960.599 539.443C959.52 539.443 958.37 539.155 957.628 538.317C957.173 537.814 956.885 536.951 956.789 536.256L954.753 536.759C955.112 537.981 955.28 538.724 956.118 539.658C957.268 540.904 958.802 541.359 960.575 541.359C961.844 541.359 963.042 541.168 964.097 540.473C965.127 539.85 965.774 538.652 965.774 537.502C965.774 536.424 965.294 535.49 964.384 534.771C963.665 534.196 962.779 533.836 961.892 533.597C960.79 533.309 960 533.094 959.305 532.878C958.61 532.686 958.227 532.519 957.915 532.303C957.484 532.016 957.364 531.68 957.364 531.249C957.364 530.674 957.843 530.171 958.37 529.931C958.874 529.716 959.544 529.572 960.191 529.596C960.862 529.62 961.605 529.787 962.132 530.075C962.875 530.482 963.402 531.153 963.689 531.944L965.726 531.441Z" fill="#110529"/>
<rect x="824" y="480" width="200" height="84" rx="12" stroke="#110529" stroke-width="2"/>
<path d="M1057 522L1057.71 522.707L1058.41 522L1057.71 521.293L1057 522ZM1049.71 513.293L1049 512.586L1047.59 514L1048.29 514.707L1049.71 513.293ZM1048.29 529.293L1047.59 530L1049 531.414L1049.71 530.707L1048.29 529.293ZM1026 523H1057V521H1026V523ZM1057.71 521.293L1049.71 513.293L1048.29 514.707L1056.29 522.707L1057.71 521.293ZM1056.29 521.293L1048.29 529.293L1049.71 530.707L1057.71 522.707L1056.29 521.293Z" fill="#110529"/>
<path d="M924 465V461.5C924 450.186 924 444.529 927.515 441.015C931.029 437.5 936.686 437.5 948 437.5H1021.5C1021.96 437.5 1022.2 437.5 1022.39 437.494C1028.71 437.287 1033.79 432.212 1033.99 425.893C1034 425.696 1034 425.464 1034 425V425" stroke="#110529" stroke-width="2"/>
<path d="M924 472L924.707 472.707L924 473.414L923.293 472.707L924 472ZM915.293 464.707L914.586 464L916 462.586L916.707 463.293L915.293 464.707ZM931.293 463.293L932 462.586L933.414 464L932.707 464.707L931.293 463.293ZM925 464L925 472L923 472L923 464L925 464ZM923.293 472.707L915.293 464.707L916.707 463.293L924.707 471.293L923.293 472.707ZM923.293 471.293L931.293 463.293L932.707 464.707L924.707 472.707L923.293 471.293Z" fill="#110529"/>
<g opacity="0.16">
<path d="M1164 465V461.5C1164 450.186 1164 444.529 1160.49 441.015C1156.97 437.5 1151.31 437.5 1140 437.5H1066.5C1066.04 437.5 1065.8 437.5 1065.61 437.494C1059.29 437.287 1054.21 432.212 1054.01 425.893C1054 425.696 1054 425.464 1054 425V425" stroke="#110529" stroke-width="2"/>
<path d="M1164 472L1163.29 472.707L1164 473.414L1164.71 472.707L1164 472ZM1172.71 464.707L1173.41 464L1172 462.586L1171.29 463.293L1172.71 464.707ZM1156.71 463.293L1156 462.586L1154.59 464L1155.29 464.707L1156.71 463.293ZM1163 464L1163 472L1165 472L1165 464L1163 464ZM1164.71 472.707L1172.71 464.707L1171.29 463.293L1163.29 471.293L1164.71 472.707ZM1164.71 471.293L1156.71 463.293L1155.29 464.707L1163.29 472.707L1164.71 471.293Z" fill="#110529"/>
</g>
<path d="M1044 404H1057C1063.08 404 1068 408.925 1068 415C1068 421.075 1063.08 426 1057 426H1044V404Z" fill="#E8ECF2"/>
<path d="M1053.54 411H1051.82V420H1053.54V414L1057.45 420H1059.18V411H1057.45V417L1053.54 411Z" fill="#060E33" fill-opacity="0.24"/>
<path d="M1044 404H1057C1063.08 404 1068 408.925 1068 415C1068 421.075 1063.08 426 1057 426H1044V404Z" stroke="#110529" stroke-width="2"/>
<path d="M1031 426H1044V404H1031C1024.92 404 1020 408.925 1020 415C1020 421.075 1024.92 426 1031 426Z" fill="url(#paint3_linear_4724_30038)"/>
<path d="M1034.45 411L1032.5 414.387L1030.55 411H1028.56L1031.64 416.337V420H1033.36V416.337L1036.44 411H1034.45Z" fill="#110529"/>
<path d="M1031 426H1044V404H1031C1024.92 404 1020 408.925 1020 415C1020 421.075 1024.92 426 1031 426Z" stroke="#110529" stroke-width="2"/>
<path d="M564 313V309.5C564 298.186 564 292.529 567.515 289.015C571.029 285.5 576.686 285.5 588 285.5H661.5C661.964 285.5 662.196 285.5 662.393 285.494C668.712 285.287 673.787 280.212 673.994 273.893C674 273.696 674 273.464 674 273V273" stroke="#110529" stroke-width="2"/>
<path d="M564 320L564.707 320.707L564 321.414L563.293 320.707L564 320ZM555.293 312.707L554.586 312L556 310.586L556.707 311.293L555.293 312.707ZM571.293 311.293L572 310.586L573.414 312L572.707 312.707L571.293 311.293ZM565 312L565 320L563 320L563 312L565 312ZM563.293 320.707L555.293 312.707L556.707 311.293L564.707 319.293L563.293 320.707ZM563.293 319.293L571.293 311.293L572.707 312.707L564.707 320.707L563.293 319.293Z" fill="#110529"/>
<g opacity="0.16">
<path d="M804 313V309.5C804 298.186 804 292.529 800.485 289.015C796.971 285.5 791.314 285.5 780 285.5H706.5C706.036 285.5 705.804 285.5 705.607 285.494C699.288 285.287 694.213 280.212 694.006 273.893C694 273.696 694 273.464 694 273V273" stroke="#110529" stroke-width="2"/>
<path d="M804 320L803.293 320.707L804 321.414L804.707 320.707L804 320ZM812.707 312.707L813.414 312L812 310.586L811.293 311.293L812.707 312.707ZM796.707 311.293L796 310.586L794.586 312L795.293 312.707L796.707 311.293ZM803 312L803 320L805 320L805 312L803 312ZM804.707 320.707L812.707 312.707L811.293 311.293L803.293 319.293L804.707 320.707ZM804.707 319.293L796.707 311.293L795.293 312.707L803.293 320.707L804.707 319.293Z" fill="#110529"/>
</g>
<path d="M684 252H697C703.075 252 708 256.925 708 263C708 269.075 703.075 274 697 274H684V252Z" fill="#E8ECF2"/>
<path d="M693.541 259H691.816V268H693.541V262L697.454 268H699.179V259H697.454V265L693.541 259Z" fill="#060E33" fill-opacity="0.24"/>
<path d="M684 252H697C703.075 252 708 256.925 708 263C708 269.075 703.075 274 697 274H684V252Z" stroke="#110529" stroke-width="2"/>
<path d="M671 274H684V252H671C664.925 252 660 256.925 660 263C660 269.075 664.925 274 671 274Z" fill="url(#paint4_linear_4724_30038)"/>
<path d="M674.45 259L672.5 262.387L670.55 259H668.562L671.638 264.337V268H673.363V264.337L676.438 259H674.45Z" fill="#110529"/>
<path d="M671 274H684V252H671C664.925 252 660 256.925 660 263C660 269.075 664.925 274 671 274Z" stroke="#110529" stroke-width="2"/>
<g opacity="0.16">
<path d="M1338 370H1330C1318.69 370 1313.03 370 1309.51 373.515C1306 377.029 1306 382.686 1306 394V412" stroke="#110529" stroke-width="2"/>
<path d="M1266 522H1282C1293.31 522 1298.97 522 1302.49 518.485C1306 514.971 1306 509.314 1306 498V453.957V370.128V242C1306 230.686 1306 225.029 1309.51 221.515C1313.03 218 1318.69 218 1330 218H1338" stroke="black" stroke-width="2"/>
</g>
<path d="M1164 616L1164 594L1164 566" stroke="#110529" stroke-width="2"/>
<path d="M1164 624L1164.71 624.707L1164 625.414L1163.29 624.707L1164 624ZM1155.29 616.707L1154.59 616L1156 614.586L1156.71 615.293L1155.29 616.707ZM1171.29 615.293L1172 614.586L1173.41 616L1172.71 616.707L1171.29 615.293ZM1165 616L1165 624L1163 624L1163 616L1165 616ZM1163.29 624.707L1155.29 616.707L1156.71 615.293L1164.71 623.293L1163.29 624.707ZM1163.29 623.293L1171.29 615.293L1172.71 616.707L1164.71 624.707L1163.29 623.293Z" fill="#110529"/>
<defs>
<linearGradient id="paint0_linear_4724_30038" x1="34.125" y1="24" x2="34.125" y2="108" gradientUnits="userSpaceOnUse">
<stop stop-color="#A1E69C"/>
<stop offset="1" stop-color="#D0F5B0"/>
</linearGradient>
<linearGradient id="paint1_linear_4724_30038" x1="1075.25" y1="480" x2="1075.25" y2="564" gradientUnits="userSpaceOnUse">
<stop stop-color="#A1E69C"/>
<stop offset="1" stop-color="#D0F5B0"/>
</linearGradient>
<linearGradient id="paint2_linear_4724_30038" x1="574.538" y1="123" x2="574.537" y2="99" gradientUnits="userSpaceOnUse">
<stop stop-color="#FFB499"/>
<stop offset="1" stop-color="#FF99A0"/>
</linearGradient>
<linearGradient id="paint3_linear_4724_30038" x1="1020.46" y1="427" x2="1020.46" y2="403" gradientUnits="userSpaceOnUse">
<stop stop-color="#A1E69C"/>
<stop offset="1" stop-color="#D0F5B0"/>
</linearGradient>
<linearGradient id="paint4_linear_4724_30038" x1="660.462" y1="275" x2="660.462" y2="251" gradientUnits="userSpaceOnUse">
<stop stop-color="#A1E69C"/>
<stop offset="1" stop-color="#D0F5B0"/>
</linearGradient>
</defs>
</svg>
