<svg width="960" height="356" viewBox="0 0 960 356" fill="none" xmlns="http://www.w3.org/2000/svg">
    <rect width="960" height="356" fill="white"/>
    <rect x="123" y="56" width="110" height="12" rx="2" fill="#99E099"/>
    <rect x="89" y="56" width="32" height="12" rx="2" fill="#42B842"/>
    <rect x="123" y="80" width="110" height="12" rx="2" fill="#C1ADFF"/>
    <rect x="89" y="80" width="32" height="12" rx="2" fill="#845CFF"/>
    <rect x="123" y="104" width="110" height="12" rx="2" fill="#C1ADFF"/>
    <rect x="89" y="104" width="32" height="12" rx="2" fill="#27C2C2"/>
    <rect x="123" y="128" width="110" height="12" rx="2" fill="#FFCB8F"/>
    <rect x="89" y="128" width="32" height="12" rx="2" fill="#FF9429"/>
    <rect x="195" y="126" width="6" height="16" fill="#F05670" stroke="white" stroke-width="2"/>
    <rect x="123" y="152" width="110" height="12" rx="2" fill="#99E099"/>
    <rect x="89" y="152" width="32" height="12" rx="2" fill="#42B842"/>
    <rect x="123" y="176" width="110" height="12" rx="2" fill="#C1ADFF"/>
    <rect x="89" y="176" width="32" height="12" rx="2" fill="#27C2C2"/>
    <rect x="143" y="174" width="6" height="16" fill="#F05670" stroke="white" stroke-width="2"/>
    <rect x="123" y="200" width="110" height="12" rx="2" fill="#C1ADFF"/>
    <rect x="89" y="200" width="32" height="12" rx="2" fill="#27C2C2"/>
    <rect x="123" y="224" width="110" height="12" rx="2" fill="#FFCB8F"/>
    <rect x="89" y="224" width="32" height="12" rx="2" fill="#E653E6"/>
    <rect x="123" y="248" width="110" height="12" rx="2" fill="#C1ADFF"/>
    <rect x="89" y="248" width="32" height="12" rx="2" fill="#2D93FA"/>
    <rect x="208" y="246" width="6" height="16" fill="#F05670" stroke="white" stroke-width="2"/>
    <rect x="123" y="272" width="110" height="12" rx="2" fill="#FFCB8F"/>
    <rect x="89" y="272" width="32" height="12" rx="2" fill="#FF9429"/>
    <rect x="123" y="296" width="110" height="12" rx="2" fill="#C1ADFF"/>
    <rect x="89" y="296" width="32" height="12" rx="2" fill="#845CFF"/>
    <rect x="123" y="320" width="110" height="12" rx="2" fill="#FFCB8F"/>
    <rect x="89" y="320" width="32" height="12" rx="2" fill="#FF9429"/>
    <path d="M95.7421 40.24C98.4141 40.24 100.286 38.48 100.286 35.8V28.48H98.8461V35.68C98.8461 37.848 97.2141 38.896 95.7421 38.896C94.2861 38.896 92.6381 37.864 92.6381 35.68V28.48L91.1981 28.488V35.8C91.1981 38.488 93.0701 40.24 95.7421 40.24ZM102.526 40H103.878V31.608L107.79 40H108.55L112.462 31.608V39.992H113.814V28.48H112.502L108.174 37.656L103.822 28.48H102.526V40ZM116.218 40H117.642V28.48H116.218V40Z" fill="#110529"/>
    <path d="M163.004 40.24C165.668 40.24 167.42 38.776 168.076 36.488L166.628 36.104C166.156 37.816 164.948 38.88 163.004 38.88C160.428 38.88 159.116 37 159.132 34.24C159.148 31.48 160.428 29.6 163.004 29.6C164.948 29.6 166.156 30.664 166.628 32.376L168.076 31.992C167.42 29.704 165.668 28.24 163.004 28.24C159.556 28.24 157.628 30.688 157.628 34.24C157.628 37.792 159.556 40.24 163.004 40.24ZM169.831 40H173.383C173.599 40 174.303 40 174.839 39.928C177.503 39.576 178.887 37.184 178.887 34.24C178.887 31.304 177.503 28.904 174.839 28.552C174.295 28.48 173.607 28.48 173.383 28.48H169.831V40ZM171.295 38.64V29.84H173.383C173.767 29.84 174.343 29.856 174.719 29.928C176.583 30.264 177.375 32.064 177.375 34.24C177.375 36.376 176.607 38.208 174.719 38.552C174.343 38.624 173.783 38.64 173.383 38.64H171.295ZM180.722 40H182.146V35.744H185.514L187.578 40H189.21L186.986 35.432C188.29 34.888 188.97 33.632 188.97 32.112C188.97 30.28 187.986 28.832 186.122 28.544C185.826 28.496 185.498 28.48 185.274 28.48H180.722V40ZM182.146 34.392V29.832H185.226C185.426 29.832 185.706 29.848 185.946 29.904C187.05 30.152 187.514 31.152 187.514 32.112C187.514 33.072 187.05 34.072 185.946 34.32C185.706 34.376 185.426 34.392 185.226 34.392H182.146ZM194.132 40.224C196.268 40.224 197.892 38.664 197.892 36.456C197.892 34.44 196.612 32.944 194.628 32.832L197.74 29.848V28.48H190.948V29.84H195.972L192.228 33.224L192.916 34.352C193.276 34.168 193.716 34.048 194.108 34.048C195.492 34.048 196.428 35.032 196.428 36.456C196.428 37.864 195.524 38.84 194.124 38.864C193.1 38.88 192.204 38.312 191.86 37.24L190.492 37.632C190.98 39.232 192.42 40.224 194.132 40.224Z" fill="#110529"/>
    <path d="M338 180L338.707 180.707L339.414 180L338.707 179.293L338 180ZM330.707 171.293L330 170.586L328.586 172L329.293 172.707L330.707 171.293ZM329.293 187.293L328.586 188L330 189.414L330.707 188.707L329.293 187.293ZM307 181H338V179H307V181ZM338.707 179.293L330.707 171.293L329.293 172.707L337.293 180.707L338.707 179.293ZM337.293 179.293L329.293 187.293L330.707 188.707L338.707 180.707L337.293 179.293Z" fill="#110529"/>
    <path d="M286.211 220.24C288.883 220.24 290.755 218.48 290.755 215.8V208.48H289.315V215.68C289.315 217.848 287.683 218.896 286.211 218.896C284.755 218.896 283.107 217.864 283.107 215.68V208.48L281.667 208.488V215.8C281.667 218.488 283.539 220.24 286.211 220.24ZM292.995 220H294.347V211.608L298.259 220H299.019L302.931 211.608V219.992H304.283V208.48H302.971L298.643 217.656L294.291 208.48H292.995V220ZM306.686 220H308.11V208.48H306.686V220ZM310.351 215.544H315.151V214.368H310.351V215.544ZM321.197 220.24C323.613 220.24 325.069 218.264 325.069 215.672C325.069 213.08 323.605 211.12 321.205 211.12C320.125 211.12 319.269 211.496 318.653 212.144V208.48H317.221V220H318.493V219.024C319.125 219.784 320.029 220.24 321.197 220.24ZM318.493 215.672C318.493 213.76 319.293 212.424 320.981 212.424C322.741 212.424 323.557 213.848 323.557 215.672C323.557 217.512 322.725 218.936 321.021 218.936C319.277 218.936 318.493 217.568 318.493 215.672ZM329.279 220.24C330.719 220.24 331.791 219.712 332.479 218.656V220H333.743V214.656C333.743 213.976 333.703 213.344 333.463 212.808C332.967 211.68 331.791 211.12 330.231 211.12C328.279 211.12 327.071 212.04 326.663 213.552L328.015 213.96C328.327 212.904 329.167 212.448 330.215 212.448C331.711 212.448 332.303 213.104 332.343 214.48C331.063 214.656 329.543 214.84 328.463 215.128C327.151 215.512 326.343 216.304 326.343 217.664C326.343 219.056 327.343 220.24 329.279 220.24ZM327.759 217.656C327.759 216.848 328.391 216.456 329.103 216.232C329.943 215.992 331.111 215.856 332.327 215.696C332.319 216.088 332.303 216.64 332.183 217.056C331.975 218.128 331.031 219.048 329.495 219.048C328.263 219.048 327.759 218.368 327.759 217.656ZM339.087 220.232C341.239 220.232 342.543 219.224 342.543 217.552C342.543 216.216 341.799 215.576 339.519 214.992C337.487 214.48 337.047 214.208 337.047 213.576C337.047 212.84 337.815 212.36 338.935 212.392C340.111 212.424 340.911 212.992 341.055 213.912L342.511 213.648C342.327 212.128 340.903 211.12 338.935 211.12C336.943 211.12 335.615 212.128 335.615 213.648C335.615 214.888 336.343 215.48 338.631 216.088C340.743 216.656 341.071 216.864 341.071 217.592C341.071 218.44 340.351 218.96 339.175 218.96C337.927 218.96 337.031 218.376 336.799 217.432L335.343 217.664C335.639 219.288 337.023 220.232 339.087 220.232ZM348.052 220.24C349.724 220.24 351.156 219.368 351.836 217.84L350.468 217.368C349.988 218.352 349.124 218.888 347.988 218.888C346.396 218.888 345.468 217.872 345.356 216.08H351.98C352.108 213.008 350.588 211.12 347.988 211.12C345.476 211.12 343.828 212.904 343.828 215.736C343.828 218.44 345.5 220.24 348.052 220.24ZM345.38 214.936C345.58 213.296 346.484 212.4 348.036 212.4C349.5 212.4 350.324 213.24 350.5 214.936H345.38ZM357.153 220.24C358.321 220.24 359.225 219.784 359.857 219.024V220H361.129V208.48H359.697V212.144C359.081 211.496 358.225 211.12 357.145 211.12C354.745 211.12 353.281 213.08 353.281 215.672C353.281 218.264 354.737 220.24 357.153 220.24ZM354.793 215.672C354.793 213.848 355.609 212.424 357.369 212.424C359.057 212.424 359.857 213.76 359.857 215.672C359.857 217.568 359.073 218.936 357.329 218.936C355.625 218.936 354.793 217.512 354.793 215.672ZM268.661 240.24C270.333 240.24 271.765 239.368 272.445 237.84L271.077 237.368C270.597 238.352 269.733 238.888 268.597 238.888C267.005 238.888 266.077 237.872 265.965 236.08H272.589C272.717 233.008 271.197 231.12 268.597 231.12C266.085 231.12 264.437 232.904 264.437 235.736C264.437 238.44 266.109 240.24 268.661 240.24ZM265.989 234.936C266.189 233.296 267.093 232.4 268.645 232.4C270.109 232.4 270.933 233.24 271.109 234.936H265.989ZM274.37 240H275.802V235.664C275.802 234.64 276.01 233.624 276.85 233.024C277.45 232.584 278.226 232.544 278.826 232.696V231.36C278.058 231.192 277.042 231.352 276.378 231.888C276.09 232.096 275.834 232.392 275.642 232.728V231.36H274.37V240ZM280.339 240H281.771V235.664C281.771 234.64 281.979 233.624 282.819 233.024C283.419 232.584 284.195 232.544 284.795 232.696V231.36C284.027 231.192 283.011 231.352 282.347 231.888C282.059 232.096 281.803 232.392 281.611 232.728V231.36H280.339V240ZM289.831 240.24C292.399 240.24 293.999 238.384 293.999 235.672C293.999 233 292.423 231.12 289.831 231.12C287.295 231.12 285.671 232.96 285.671 235.672C285.671 238.352 287.247 240.24 289.831 240.24ZM287.183 235.672C287.183 233.784 288.023 232.472 289.831 232.472C291.599 232.472 292.487 233.728 292.487 235.672C292.487 237.576 291.615 238.888 289.831 238.888C288.087 238.888 287.183 237.624 287.183 235.672ZM295.761 240H297.193V235.664C297.193 234.64 297.401 233.624 298.241 233.024C298.841 232.584 299.617 232.544 300.217 232.696V231.36C299.449 231.192 298.433 231.352 297.769 231.888C297.481 232.096 297.225 232.392 297.033 232.728V231.36H295.761V240ZM308.573 240.24C310.357 240.24 311.661 239.368 312.269 237.752L310.829 237.376C310.437 238.36 309.693 238.888 308.573 238.888C306.853 238.888 305.981 237.608 305.965 235.68C305.981 233.808 306.797 232.472 308.573 232.472C309.621 232.472 310.493 233.056 310.861 234.056L312.269 233.632C311.812 232.08 310.405 231.12 308.589 231.12C305.989 231.12 304.477 232.984 304.453 235.68C304.477 238.328 305.941 240.24 308.573 240.24ZM317.347 240.24C319.915 240.24 321.515 238.384 321.515 235.672C321.515 233 319.939 231.12 317.347 231.12C314.811 231.12 313.187 232.96 313.187 235.672C313.187 238.352 314.763 240.24 317.347 240.24ZM314.699 235.672C314.699 233.784 315.539 232.472 317.347 232.472C319.115 232.472 320.003 233.728 320.003 235.672C320.003 237.576 319.131 238.888 317.347 238.888C315.603 238.888 314.699 237.624 314.699 235.672ZM323.276 240H324.708V235.664C324.708 234.64 324.916 233.624 325.756 233.024C326.356 232.584 327.132 232.544 327.732 232.696V231.36C326.964 231.192 325.948 231.352 325.284 231.888C324.996 232.096 324.74 232.392 324.548 232.728V231.36H323.276V240ZM329.245 240H330.677V235.664C330.677 234.64 330.885 233.624 331.725 233.024C332.325 232.584 333.101 232.544 333.701 232.696V231.36C332.933 231.192 331.917 231.352 331.253 231.888C330.965 232.096 330.709 232.392 330.517 232.728V231.36H329.245V240ZM338.802 240.24C340.474 240.24 341.906 239.368 342.586 237.84L341.218 237.368C340.738 238.352 339.874 238.888 338.738 238.888C337.146 238.888 336.218 237.872 336.106 236.08H342.73C342.858 233.008 341.338 231.12 338.738 231.12C336.226 231.12 334.578 232.904 334.578 235.736C334.578 238.44 336.25 240.24 338.802 240.24ZM336.13 234.936C336.33 233.296 337.234 232.4 338.786 232.4C340.25 232.4 341.074 233.24 341.25 234.936H336.13ZM348.151 240.24C349.935 240.24 351.239 239.368 351.847 237.752L350.407 237.376C350.015 238.36 349.271 238.888 348.151 238.888C346.431 238.888 345.559 237.608 345.543 235.68C345.559 233.808 346.375 232.472 348.151 232.472C349.199 232.472 350.071 233.056 350.439 234.056L351.847 233.632C351.391 232.08 349.983 231.12 348.167 231.12C345.567 231.12 344.055 232.984 344.031 235.68C344.055 238.328 345.519 240.24 348.151 240.24ZM358.303 240V238.776C357.119 238.96 356.255 238.912 355.871 238.224C355.663 237.864 355.695 237.384 355.695 236.672V232.536H358.303V231.36H355.695V228.96H354.271V231.36H352.519V232.536H354.271V236.736C354.271 237.632 354.223 238.288 354.567 238.96C355.167 240.136 356.759 240.312 358.303 240ZM360.218 229.832H361.642V228.36H360.218V229.832ZM360.218 240H361.642V231.36H360.218V240ZM367.722 240.24C370.29 240.24 371.89 238.384 371.89 235.672C371.89 233 370.314 231.12 367.722 231.12C365.186 231.12 363.562 232.96 363.562 235.672C363.562 238.352 365.138 240.24 367.722 240.24ZM365.074 235.672C365.074 233.784 365.914 232.472 367.722 232.472C369.49 232.472 370.378 233.728 370.378 235.672C370.378 237.576 369.506 238.888 367.722 238.888C365.978 238.888 365.074 237.624 365.074 235.672ZM379.803 235.672V240H381.243V235.224C381.243 233.584 380.587 231.136 377.803 231.136C376.555 231.136 375.563 231.616 374.923 232.472V231.36H373.643V240H375.083V235.448C375.083 233.448 376.027 232.488 377.459 232.488C379.283 232.488 379.803 234.048 379.803 235.672Z" fill="#110529"/>
    <path d="M610.004 220.24C612.668 220.24 614.42 218.776 615.076 216.488L613.628 216.104C613.156 217.816 611.948 218.88 610.004 218.88C607.428 218.88 606.116 217 606.132 214.24C606.148 211.48 607.428 209.6 610.004 209.6C611.948 209.6 613.156 210.664 613.628 212.376L615.076 211.992C614.42 209.704 612.668 208.24 610.004 208.24C606.556 208.24 604.628 210.688 604.628 214.24C604.628 217.792 606.556 220.24 610.004 220.24ZM616.831 220H620.383C620.599 220 621.303 220 621.839 219.928C624.503 219.576 625.887 217.184 625.887 214.24C625.887 211.304 624.503 208.904 621.839 208.552C621.295 208.48 620.607 208.48 620.383 208.48H616.831V220ZM618.295 218.64V209.84H620.383C620.767 209.84 621.343 209.856 621.719 209.928C623.583 210.264 624.375 212.064 624.375 214.24C624.375 216.376 623.607 218.208 621.719 218.552C621.343 218.624 620.783 218.64 620.383 218.64H618.295ZM627.722 220H629.146V215.744H632.514L634.578 220H636.21L633.986 215.432C635.29 214.888 635.97 213.632 635.97 212.112C635.97 210.28 634.986 208.832 633.122 208.544C632.826 208.496 632.498 208.48 632.274 208.48H627.722V220ZM629.146 214.392V209.832H632.226C632.426 209.832 632.706 209.848 632.946 209.904C634.05 210.152 634.514 211.152 634.514 212.112C634.514 213.072 634.05 214.072 632.946 214.32C632.706 214.376 632.426 214.392 632.226 214.392H629.146ZM641.132 220.224C643.268 220.224 644.892 218.664 644.892 216.456C644.892 214.44 643.612 212.944 641.628 212.832L644.74 209.848V208.48H637.948V209.84H642.972L639.228 213.224L639.916 214.352C640.276 214.168 640.716 214.048 641.108 214.048C642.492 214.048 643.428 215.032 643.428 216.456C643.428 217.864 642.524 218.84 641.124 218.864C640.1 218.88 639.204 218.312 638.86 217.24L637.492 217.632C637.98 219.232 639.42 220.224 641.132 220.224ZM591.877 240.24C593.661 240.24 594.965 239.368 595.573 237.752L594.133 237.376C593.741 238.36 592.997 238.888 591.877 238.888C590.157 238.888 589.285 237.608 589.269 235.68C589.285 233.808 590.101 232.472 591.877 232.472C592.925 232.472 593.797 233.056 594.165 234.056L595.573 233.632C595.117 232.08 593.709 231.12 591.893 231.12C589.293 231.12 587.781 232.984 587.757 235.68C587.781 238.328 589.245 240.24 591.877 240.24ZM597.132 240H598.556V228.48H597.132V240ZM604.236 240.224C605.484 240.224 606.476 239.744 607.116 238.888V240H608.388V231.36H606.956V235.912C606.956 237.912 606.012 238.872 604.58 238.872C602.756 238.872 602.236 237.312 602.236 235.688V231.36H600.796V236.136C600.796 237.776 601.452 240.224 604.236 240.224ZM613.892 240.232C616.044 240.232 617.348 239.224 617.348 237.552C617.348 236.216 616.604 235.576 614.324 234.992C612.292 234.48 611.852 234.208 611.852 233.576C611.852 232.84 612.62 232.36 613.74 232.392C614.916 232.424 615.716 232.992 615.86 233.912L617.316 233.648C617.132 232.128 615.708 231.12 613.74 231.12C611.748 231.12 610.42 232.128 610.42 233.648C610.42 234.888 611.148 235.48 613.436 236.088C615.548 236.656 615.876 236.864 615.876 237.592C615.876 238.44 615.156 238.96 613.98 238.96C612.732 238.96 611.836 238.376 611.604 237.432L610.148 237.664C610.444 239.288 611.828 240.232 613.892 240.232ZM623.936 240V238.776C622.752 238.96 621.888 238.912 621.504 238.224C621.296 237.864 621.328 237.384 621.328 236.672V232.536H623.936V231.36H621.328V228.96H619.904V231.36H618.152V232.536H619.904V236.736C619.904 237.632 619.856 238.288 620.2 238.96C620.8 240.136 622.392 240.312 623.936 240ZM629.075 240.24C630.747 240.24 632.179 239.368 632.859 237.84L631.491 237.368C631.011 238.352 630.147 238.888 629.011 238.888C627.419 238.888 626.491 237.872 626.379 236.08H633.003C633.131 233.008 631.611 231.12 629.011 231.12C626.499 231.12 624.851 232.904 624.851 235.736C624.851 238.44 626.523 240.24 629.075 240.24ZM626.403 234.936C626.603 233.296 627.507 232.4 629.059 232.4C630.523 232.4 631.347 233.24 631.523 234.936H626.403ZM634.784 240H636.216V235.664C636.216 234.64 636.424 233.624 637.264 233.024C637.864 232.584 638.64 232.544 639.24 232.696V231.36C638.472 231.192 637.456 231.352 636.792 231.888C636.504 232.096 636.248 232.392 636.056 232.728V231.36H634.784V240ZM640.913 229.832H642.337V228.36H640.913V229.832ZM640.913 240H642.337V231.36H640.913V240ZM650.889 235.672V240H652.329V235.224C652.329 233.584 651.673 231.136 648.889 231.136C647.641 231.136 646.649 231.616 646.009 232.472V231.36H644.729V240H646.169V235.448C646.169 233.448 647.113 232.488 648.545 232.488C650.369 232.488 650.889 234.048 650.889 235.672ZM657.905 244.08C659.969 244.08 661.329 243.224 661.665 241.384C661.745 240.96 661.769 240.536 661.769 240.056V231.36H660.505V232.328C659.873 231.568 658.969 231.12 657.793 231.12C655.393 231.12 653.929 233.08 653.929 235.672C653.929 238.264 655.385 240.24 657.801 240.24C658.865 240.24 659.721 239.856 660.337 239.208V240.04C660.353 241.8 659.561 242.704 657.913 242.704C657.073 242.704 656.217 242.344 655.793 241.496L654.489 242.184C655.209 243.472 656.545 244.08 657.905 244.08ZM655.441 235.672C655.441 233.848 656.257 232.424 658.017 232.424C659.705 232.424 660.505 233.76 660.505 235.672C660.505 237.568 659.721 238.936 657.977 238.936C656.273 238.936 655.441 237.512 655.441 235.672Z" fill="#110529"/>
    <path d="M640 180L640.707 180.707L641.414 180L640.707 179.293L640 180ZM632.707 171.293L632 170.586L630.586 172L631.293 172.707L632.707 171.293ZM631.293 187.293L630.586 188L632 189.414L632.707 188.707L631.293 187.293ZM609 181H640V179H609V181ZM640.707 179.293L632.707 171.293L631.293 172.707L639.293 180.707L640.707 179.293ZM639.293 179.293L631.293 187.293L632.707 188.707L640.707 180.707L639.293 179.293Z" fill="#110529"/>
    <circle cx="765" cy="124" r="79" stroke="#C1ADFF" stroke-width="10"/>
    <path d="M743.903 130.24C742.756 130.24 741.783 129.987 740.983 129.48C740.183 128.973 739.572 128.269 739.151 127.368C738.735 126.467 738.527 125.424 738.527 124.24C738.527 123.056 738.735 122.013 739.151 121.112C739.572 120.211 740.183 119.507 740.983 119C741.783 118.493 742.756 118.24 743.903 118.24C745.236 118.24 746.332 118.579 747.191 119.256C748.055 119.933 748.65 120.845 748.975 121.992L747.527 122.376C747.292 121.517 746.874 120.84 746.271 120.344C745.668 119.848 744.879 119.6 743.903 119.6C743.044 119.6 742.33 119.795 741.759 120.184C741.188 120.573 740.759 121.117 740.471 121.816C740.183 122.509 740.036 123.317 740.031 124.24C740.026 125.157 740.167 125.965 740.455 126.664C740.743 127.357 741.175 127.901 741.751 128.296C742.327 128.685 743.044 128.88 743.903 128.88C744.879 128.88 745.668 128.632 746.271 128.136C746.874 127.635 747.292 126.957 747.527 126.104L748.975 126.488C748.65 127.629 748.055 128.541 747.191 129.224C746.332 129.901 745.236 130.24 743.903 130.24ZM750.889 130V118.24H752.313V130H750.889ZM758.394 130.24C757.535 130.24 756.794 130.045 756.17 129.656C755.551 129.267 755.074 128.728 754.738 128.04C754.402 127.352 754.234 126.563 754.234 125.672C754.234 124.765 754.404 123.971 754.746 123.288C755.087 122.605 755.57 122.075 756.194 121.696C756.818 121.312 757.551 121.12 758.394 121.12C759.258 121.12 760.002 121.315 760.626 121.704C761.25 122.088 761.727 122.624 762.058 123.312C762.394 123.995 762.562 124.781 762.562 125.672C762.562 126.573 762.394 127.368 762.058 128.056C761.722 128.739 761.242 129.275 760.618 129.664C759.994 130.048 759.252 130.24 758.394 130.24ZM758.394 128.888C759.29 128.888 759.956 128.589 760.394 127.992C760.831 127.395 761.05 126.621 761.05 125.672C761.05 124.696 760.828 123.92 760.386 123.344C759.943 122.763 759.279 122.472 758.394 122.472C757.791 122.472 757.295 122.608 756.906 122.88C756.516 123.152 756.226 123.528 756.034 124.008C755.842 124.488 755.746 125.043 755.746 125.672C755.746 126.643 755.97 127.421 756.418 128.008C756.866 128.595 757.524 128.888 758.394 128.888ZM770.475 130V125.672C770.475 125.261 770.438 124.867 770.363 124.488C770.294 124.109 770.168 123.771 769.987 123.472C769.811 123.168 769.571 122.928 769.267 122.752C768.968 122.576 768.59 122.488 768.131 122.488C767.774 122.488 767.448 122.549 767.155 122.672C766.867 122.789 766.619 122.971 766.411 123.216C766.203 123.461 766.04 123.771 765.923 124.144C765.811 124.512 765.755 124.947 765.755 125.448L764.819 125.16C764.819 124.323 764.968 123.605 765.267 123.008C765.571 122.405 765.995 121.944 766.539 121.624C767.088 121.299 767.734 121.136 768.475 121.136C769.035 121.136 769.512 121.224 769.907 121.4C770.302 121.576 770.63 121.811 770.891 122.104C771.152 122.392 771.358 122.717 771.507 123.08C771.656 123.437 771.76 123.803 771.819 124.176C771.883 124.544 771.915 124.893 771.915 125.224V130H770.475ZM764.315 130V121.36H765.595V123.672H765.755V130H764.315ZM777.661 130.24C776.813 130.24 776.072 130.053 775.437 129.68C774.808 129.301 774.317 128.776 773.965 128.104C773.613 127.427 773.437 126.637 773.437 125.736C773.437 124.792 773.61 123.976 773.957 123.288C774.304 122.595 774.786 122.061 775.405 121.688C776.029 121.309 776.76 121.12 777.597 121.12C778.466 121.12 779.205 121.32 779.813 121.72C780.426 122.12 780.885 122.691 781.189 123.432C781.498 124.173 781.632 125.056 781.589 126.08H780.149V125.568C780.133 124.507 779.917 123.715 779.501 123.192C779.085 122.664 778.466 122.4 777.645 122.4C776.765 122.4 776.096 122.683 775.637 123.248C775.178 123.813 774.949 124.624 774.949 125.68C774.949 126.699 775.178 127.488 775.637 128.048C776.096 128.608 776.749 128.888 777.597 128.888C778.168 128.888 778.664 128.757 779.085 128.496C779.506 128.235 779.837 127.859 780.077 127.368L781.445 127.84C781.109 128.603 780.602 129.195 779.925 129.616C779.253 130.032 778.498 130.24 777.661 130.24ZM774.469 126.08V124.936H780.853V126.08H774.469ZM788.581 130V120.056L786.413 121.368V119.776L788.581 118.48H790.029V130H788.581Z" fill="#110529"/>
    <path d="M743.028 282.24C741.881 282.24 740.908 281.987 740.108 281.48C739.308 280.973 738.697 280.269 738.276 279.368C737.86 278.467 737.652 277.424 737.652 276.24C737.652 275.056 737.86 274.013 738.276 273.112C738.697 272.211 739.308 271.507 740.108 271C740.908 270.493 741.881 270.24 743.028 270.24C744.361 270.24 745.457 270.579 746.316 271.256C747.18 271.933 747.775 272.845 748.1 273.992L746.652 274.376C746.417 273.517 745.999 272.84 745.396 272.344C744.793 271.848 744.004 271.6 743.028 271.6C742.169 271.6 741.455 271.795 740.884 272.184C740.313 272.573 739.884 273.117 739.596 273.816C739.308 274.509 739.161 275.317 739.156 276.24C739.151 277.157 739.292 277.965 739.58 278.664C739.868 279.357 740.3 279.901 740.876 280.296C741.452 280.685 742.169 280.88 743.028 280.88C744.004 280.88 744.793 280.632 745.396 280.136C745.999 279.635 746.417 278.957 746.652 278.104L748.1 278.488C747.775 279.629 747.18 280.541 746.316 281.224C745.457 281.901 744.361 282.24 743.028 282.24ZM750.014 282V270.24H751.438V282H750.014ZM757.519 282.24C756.66 282.24 755.919 282.045 755.295 281.656C754.676 281.267 754.199 280.728 753.863 280.04C753.527 279.352 753.359 278.563 753.359 277.672C753.359 276.765 753.529 275.971 753.871 275.288C754.212 274.605 754.695 274.075 755.319 273.696C755.943 273.312 756.676 273.12 757.519 273.12C758.383 273.12 759.127 273.315 759.751 273.704C760.375 274.088 760.852 274.624 761.183 275.312C761.519 275.995 761.687 276.781 761.687 277.672C761.687 278.573 761.519 279.368 761.183 280.056C760.847 280.739 760.367 281.275 759.743 281.664C759.119 282.048 758.377 282.24 757.519 282.24ZM757.519 280.888C758.415 280.888 759.081 280.589 759.519 279.992C759.956 279.395 760.175 278.621 760.175 277.672C760.175 276.696 759.953 275.92 759.511 275.344C759.068 274.763 758.404 274.472 757.519 274.472C756.916 274.472 756.42 274.608 756.031 274.88C755.641 275.152 755.351 275.528 755.159 276.008C754.967 276.488 754.871 277.043 754.871 277.672C754.871 278.643 755.095 279.421 755.543 280.008C755.991 280.595 756.649 280.888 757.519 280.888ZM769.6 282V277.672C769.6 277.261 769.563 276.867 769.488 276.488C769.419 276.109 769.293 275.771 769.112 275.472C768.936 275.168 768.696 274.928 768.392 274.752C768.093 274.576 767.715 274.488 767.256 274.488C766.899 274.488 766.573 274.549 766.28 274.672C765.992 274.789 765.744 274.971 765.536 275.216C765.328 275.461 765.165 275.771 765.048 276.144C764.936 276.512 764.88 276.947 764.88 277.448L763.944 277.16C763.944 276.323 764.093 275.605 764.392 275.008C764.696 274.405 765.12 273.944 765.664 273.624C766.213 273.299 766.859 273.136 767.6 273.136C768.16 273.136 768.637 273.224 769.032 273.4C769.427 273.576 769.755 273.811 770.016 274.104C770.277 274.392 770.483 274.717 770.632 275.08C770.781 275.437 770.885 275.803 770.944 276.176C771.008 276.544 771.04 276.893 771.04 277.224V282H769.6ZM763.44 282V273.36H764.72V275.672H764.88V282H763.44ZM776.786 282.24C775.938 282.24 775.197 282.053 774.562 281.68C773.933 281.301 773.442 280.776 773.09 280.104C772.738 279.427 772.562 278.637 772.562 277.736C772.562 276.792 772.735 275.976 773.082 275.288C773.429 274.595 773.911 274.061 774.53 273.688C775.154 273.309 775.885 273.12 776.722 273.12C777.591 273.12 778.33 273.32 778.938 273.72C779.551 274.12 780.01 274.691 780.314 275.432C780.623 276.173 780.757 277.056 780.714 278.08H779.274V277.568C779.258 276.507 779.042 275.715 778.626 275.192C778.21 274.664 777.591 274.4 776.77 274.4C775.89 274.4 775.221 274.683 774.762 275.248C774.303 275.813 774.074 276.624 774.074 277.68C774.074 278.699 774.303 279.488 774.762 280.048C775.221 280.608 775.874 280.888 776.722 280.888C777.293 280.888 777.789 280.757 778.21 280.496C778.631 280.235 778.962 279.859 779.202 279.368L780.57 279.84C780.234 280.603 779.727 281.195 779.05 281.616C778.378 282.032 777.623 282.24 776.786 282.24ZM773.594 278.08V276.936H779.978V278.08H773.594ZM785.378 281.992L785.386 280.712L790.498 276.112C790.925 275.728 791.21 275.365 791.354 275.024C791.503 274.677 791.578 274.323 791.578 273.96C791.578 273.517 791.477 273.117 791.274 272.76C791.071 272.403 790.794 272.12 790.442 271.912C790.095 271.704 789.701 271.6 789.258 271.6C788.799 271.6 788.391 271.709 788.034 271.928C787.677 272.141 787.394 272.427 787.186 272.784C786.983 273.141 786.885 273.531 786.89 273.952H785.434C785.434 273.227 785.602 272.587 785.938 272.032C786.274 271.472 786.73 271.035 787.306 270.72C787.887 270.4 788.546 270.24 789.282 270.24C789.997 270.24 790.637 270.405 791.202 270.736C791.767 271.061 792.213 271.507 792.538 272.072C792.869 272.632 793.034 273.267 793.034 273.976C793.034 274.477 792.97 274.912 792.842 275.28C792.719 275.648 792.527 275.989 792.266 276.304C792.005 276.613 791.677 276.944 791.282 277.296L787.034 281.112L786.85 280.632H793.034V281.992H785.378Z" fill="#110529"/>
    <circle cx="765" cy="276" r="51" stroke="#FFCB8F" stroke-width="10"/>
    <circle cx="843" cy="219" r="23" stroke="#99E099" stroke-width="10"/>
    <circle cx="447" cy="140" r="63" stroke="#C1ADFF" stroke-width="10"/>
    <path d="M425.903 146.24C424.756 146.24 423.783 145.987 422.983 145.48C422.183 144.973 421.572 144.269 421.151 143.368C420.735 142.467 420.527 141.424 420.527 140.24C420.527 139.056 420.735 138.013 421.151 137.112C421.572 136.211 422.183 135.507 422.983 135C423.783 134.493 424.756 134.24 425.903 134.24C427.236 134.24 428.332 134.579 429.191 135.256C430.055 135.933 430.65 136.845 430.975 137.992L429.527 138.376C429.292 137.517 428.874 136.84 428.271 136.344C427.668 135.848 426.879 135.6 425.903 135.6C425.044 135.6 424.33 135.795 423.759 136.184C423.188 136.573 422.759 137.117 422.471 137.816C422.183 138.509 422.036 139.317 422.031 140.24C422.026 141.157 422.167 141.965 422.455 142.664C422.743 143.357 423.175 143.901 423.751 144.296C424.327 144.685 425.044 144.88 425.903 144.88C426.879 144.88 427.668 144.632 428.271 144.136C428.874 143.635 429.292 142.957 429.527 142.104L430.975 142.488C430.65 143.629 430.055 144.541 429.191 145.224C428.332 145.901 427.236 146.24 425.903 146.24ZM432.889 146V134.24H434.313V146H432.889ZM440.394 146.24C439.535 146.24 438.794 146.045 438.17 145.656C437.551 145.267 437.074 144.728 436.738 144.04C436.402 143.352 436.234 142.563 436.234 141.672C436.234 140.765 436.404 139.971 436.746 139.288C437.087 138.605 437.57 138.075 438.194 137.696C438.818 137.312 439.551 137.12 440.394 137.12C441.258 137.12 442.002 137.315 442.626 137.704C443.25 138.088 443.727 138.624 444.058 139.312C444.394 139.995 444.562 140.781 444.562 141.672C444.562 142.573 444.394 143.368 444.058 144.056C443.722 144.739 443.242 145.275 442.618 145.664C441.994 146.048 441.252 146.24 440.394 146.24ZM440.394 144.888C441.29 144.888 441.956 144.589 442.394 143.992C442.831 143.395 443.05 142.621 443.05 141.672C443.05 140.696 442.828 139.92 442.386 139.344C441.943 138.763 441.279 138.472 440.394 138.472C439.791 138.472 439.295 138.608 438.906 138.88C438.516 139.152 438.226 139.528 438.034 140.008C437.842 140.488 437.746 141.043 437.746 141.672C437.746 142.643 437.97 143.421 438.418 144.008C438.866 144.595 439.524 144.888 440.394 144.888ZM452.475 146V141.672C452.475 141.261 452.438 140.867 452.363 140.488C452.294 140.109 452.168 139.771 451.987 139.472C451.811 139.168 451.571 138.928 451.267 138.752C450.968 138.576 450.59 138.488 450.131 138.488C449.774 138.488 449.448 138.549 449.155 138.672C448.867 138.789 448.619 138.971 448.411 139.216C448.203 139.461 448.04 139.771 447.923 140.144C447.811 140.512 447.755 140.947 447.755 141.448L446.819 141.16C446.819 140.323 446.968 139.605 447.267 139.008C447.571 138.405 447.995 137.944 448.539 137.624C449.088 137.299 449.734 137.136 450.475 137.136C451.035 137.136 451.512 137.224 451.907 137.4C452.302 137.576 452.63 137.811 452.891 138.104C453.152 138.392 453.358 138.717 453.507 139.08C453.656 139.437 453.76 139.803 453.819 140.176C453.883 140.544 453.915 140.893 453.915 141.224V146H452.475ZM446.315 146V137.36H447.595V139.672H447.755V146H446.315ZM459.661 146.24C458.813 146.24 458.072 146.053 457.437 145.68C456.808 145.301 456.317 144.776 455.965 144.104C455.613 143.427 455.437 142.637 455.437 141.736C455.437 140.792 455.61 139.976 455.957 139.288C456.304 138.595 456.786 138.061 457.405 137.688C458.029 137.309 458.76 137.12 459.597 137.12C460.466 137.12 461.205 137.32 461.813 137.72C462.426 138.12 462.885 138.691 463.189 139.432C463.498 140.173 463.632 141.056 463.589 142.08H462.149V141.568C462.133 140.507 461.917 139.715 461.501 139.192C461.085 138.664 460.466 138.4 459.645 138.4C458.765 138.4 458.096 138.683 457.637 139.248C457.178 139.813 456.949 140.624 456.949 141.68C456.949 142.699 457.178 143.488 457.637 144.048C458.096 144.608 458.749 144.888 459.597 144.888C460.168 144.888 460.664 144.757 461.085 144.496C461.506 144.235 461.837 143.859 462.077 143.368L463.445 143.84C463.109 144.603 462.602 145.195 461.925 145.616C461.253 146.032 460.498 146.24 459.661 146.24ZM456.469 142.08V140.936H462.853V142.08H456.469ZM470.581 146V136.056L468.413 137.368V135.776L470.581 134.48H472.029V146H470.581Z" fill="#110529"/>
    <circle cx="537" cy="200" r="23" stroke="#C1ADFF" stroke-width="10"/>
    <rect x="534" y="216" width="6" height="14" fill="#F05670" stroke="white" stroke-width="2"/>
    <path d="M451.028 282.24C449.881 282.24 448.908 281.987 448.108 281.48C447.308 280.973 446.697 280.269 446.276 279.368C445.86 278.467 445.652 277.424 445.652 276.24C445.652 275.056 445.86 274.013 446.276 273.112C446.697 272.211 447.308 271.507 448.108 271C448.908 270.493 449.881 270.24 451.028 270.24C452.361 270.24 453.457 270.579 454.316 271.256C455.18 271.933 455.775 272.845 456.1 273.992L454.652 274.376C454.417 273.517 453.999 272.84 453.396 272.344C452.793 271.848 452.004 271.6 451.028 271.6C450.169 271.6 449.455 271.795 448.884 272.184C448.313 272.573 447.884 273.117 447.596 273.816C447.308 274.509 447.161 275.317 447.156 276.24C447.151 277.157 447.292 277.965 447.58 278.664C447.868 279.357 448.3 279.901 448.876 280.296C449.452 280.685 450.169 280.88 451.028 280.88C452.004 280.88 452.793 280.632 453.396 280.136C453.999 279.635 454.417 278.957 454.652 278.104L456.1 278.488C455.775 279.629 455.18 280.541 454.316 281.224C453.457 281.901 452.361 282.24 451.028 282.24ZM458.014 282V270.24H459.438V282H458.014ZM465.519 282.24C464.66 282.24 463.919 282.045 463.295 281.656C462.676 281.267 462.199 280.728 461.863 280.04C461.527 279.352 461.359 278.563 461.359 277.672C461.359 276.765 461.529 275.971 461.871 275.288C462.212 274.605 462.695 274.075 463.319 273.696C463.943 273.312 464.676 273.12 465.519 273.12C466.383 273.12 467.127 273.315 467.751 273.704C468.375 274.088 468.852 274.624 469.183 275.312C469.519 275.995 469.687 276.781 469.687 277.672C469.687 278.573 469.519 279.368 469.183 280.056C468.847 280.739 468.367 281.275 467.743 281.664C467.119 282.048 466.377 282.24 465.519 282.24ZM465.519 280.888C466.415 280.888 467.081 280.589 467.519 279.992C467.956 279.395 468.175 278.621 468.175 277.672C468.175 276.696 467.953 275.92 467.511 275.344C467.068 274.763 466.404 274.472 465.519 274.472C464.916 274.472 464.42 274.608 464.031 274.88C463.641 275.152 463.351 275.528 463.159 276.008C462.967 276.488 462.871 277.043 462.871 277.672C462.871 278.643 463.095 279.421 463.543 280.008C463.991 280.595 464.649 280.888 465.519 280.888ZM477.6 282V277.672C477.6 277.261 477.563 276.867 477.488 276.488C477.419 276.109 477.293 275.771 477.112 275.472C476.936 275.168 476.696 274.928 476.392 274.752C476.093 274.576 475.715 274.488 475.256 274.488C474.899 274.488 474.573 274.549 474.28 274.672C473.992 274.789 473.744 274.971 473.536 275.216C473.328 275.461 473.165 275.771 473.048 276.144C472.936 276.512 472.88 276.947 472.88 277.448L471.944 277.16C471.944 276.323 472.093 275.605 472.392 275.008C472.696 274.405 473.12 273.944 473.664 273.624C474.213 273.299 474.859 273.136 475.6 273.136C476.16 273.136 476.637 273.224 477.032 273.4C477.427 273.576 477.755 273.811 478.016 274.104C478.277 274.392 478.483 274.717 478.632 275.08C478.781 275.437 478.885 275.803 478.944 276.176C479.008 276.544 479.04 276.893 479.04 277.224V282H477.6ZM471.44 282V273.36H472.72V275.672H472.88V282H471.44ZM484.786 282.24C483.938 282.24 483.197 282.053 482.562 281.68C481.933 281.301 481.442 280.776 481.09 280.104C480.738 279.427 480.562 278.637 480.562 277.736C480.562 276.792 480.735 275.976 481.082 275.288C481.429 274.595 481.911 274.061 482.53 273.688C483.154 273.309 483.885 273.12 484.722 273.12C485.591 273.12 486.33 273.32 486.938 273.72C487.551 274.12 488.01 274.691 488.314 275.432C488.623 276.173 488.757 277.056 488.714 278.08H487.274V277.568C487.258 276.507 487.042 275.715 486.626 275.192C486.21 274.664 485.591 274.4 484.77 274.4C483.89 274.4 483.221 274.683 482.762 275.248C482.303 275.813 482.074 276.624 482.074 277.68C482.074 278.699 482.303 279.488 482.762 280.048C483.221 280.608 483.874 280.888 484.722 280.888C485.293 280.888 485.789 280.757 486.21 280.496C486.631 280.235 486.962 279.859 487.202 279.368L488.57 279.84C488.234 280.603 487.727 281.195 487.05 281.616C486.378 282.032 485.623 282.24 484.786 282.24ZM481.594 278.08V276.936H487.978V278.08H481.594ZM493.378 281.992L493.386 280.712L498.498 276.112C498.925 275.728 499.21 275.365 499.354 275.024C499.503 274.677 499.578 274.323 499.578 273.96C499.578 273.517 499.477 273.117 499.274 272.76C499.071 272.403 498.794 272.12 498.442 271.912C498.095 271.704 497.701 271.6 497.258 271.6C496.799 271.6 496.391 271.709 496.034 271.928C495.677 272.141 495.394 272.427 495.186 272.784C494.983 273.141 494.885 273.531 494.89 273.952H493.434C493.434 273.227 493.602 272.587 493.938 272.032C494.274 271.472 494.73 271.035 495.306 270.72C495.887 270.4 496.546 270.24 497.282 270.24C497.997 270.24 498.637 270.405 499.202 270.736C499.767 271.061 500.213 271.507 500.538 272.072C500.869 272.632 501.034 273.267 501.034 273.976C501.034 274.477 500.97 274.912 500.842 275.28C500.719 275.648 500.527 275.989 500.266 276.304C500.005 276.613 499.677 276.944 499.282 277.296L495.034 281.112L494.85 280.632H501.034V281.992H493.378Z" fill="#110529"/>
    <circle cx="473" cy="276" r="51" stroke="#FFCB8F" stroke-width="10"/>
    <circle cx="527" cy="68" r="23" stroke="#99E099" stroke-width="10"/>
</svg>
