<svg width="960" height="356" viewBox="0 0 960 356" fill="none" xmlns="http://www.w3.org/2000/svg">
    <rect width="960" height="356" fill="#1D1D29"/>
    <rect x="123" y="56" width="110" height="12" rx="2" fill="#99E099"/>
    <rect x="89" y="56" width="32" height="12" rx="2" fill="#42B842"/>
    <rect x="123" y="80" width="110" height="12" rx="2" fill="#C1ADFF"/>
    <rect x="89" y="80" width="32" height="12" rx="2" fill="#845CFF"/>
    <rect x="123" y="104" width="110" height="12" rx="2" fill="#C1ADFF"/>
    <rect x="89" y="104" width="32" height="12" rx="2" fill="#27C2C2"/>
    <rect x="123" y="128" width="110" height="12" rx="2" fill="#FFCB8F"/>
    <rect x="89" y="128" width="32" height="12" rx="2" fill="#FF9429"/>
    <rect x="195" y="126" width="6" height="16" fill="#F05670" stroke="#110529" stroke-width="2"/>
    <rect x="123" y="152" width="110" height="12" rx="2" fill="#99E099"/>
    <rect x="89" y="152" width="32" height="12" rx="2" fill="#42B842"/>
    <rect x="123" y="176" width="110" height="12" rx="2" fill="#C1ADFF"/>
    <rect x="89" y="176" width="32" height="12" rx="2" fill="#27C2C2"/>
    <rect x="143" y="174" width="6" height="16" fill="#F05670" stroke="#110529" stroke-width="2"/>
    <rect x="123" y="200" width="110" height="12" rx="2" fill="#C1ADFF"/>
    <rect x="89" y="200" width="32" height="12" rx="2" fill="#27C2C2"/>
    <rect x="123" y="224" width="110" height="12" rx="2" fill="#FFCB8F"/>
    <rect x="89" y="224" width="32" height="12" rx="2" fill="#E653E6"/>
    <rect x="123" y="248" width="110" height="12" rx="2" fill="#C1ADFF"/>
    <rect x="89" y="248" width="32" height="12" rx="2" fill="#2D93FA"/>
    <rect x="208" y="246" width="6" height="16" fill="#F05670" stroke="#110529" stroke-width="2"/>
    <rect x="123" y="272" width="110" height="12" rx="2" fill="#FFCB8F"/>
    <rect x="89" y="272" width="32" height="12" rx="2" fill="#FF9429"/>
    <rect x="123" y="296" width="110" height="12" rx="2" fill="#C1ADFF"/>
    <rect x="89" y="296" width="32" height="12" rx="2" fill="#845CFF"/>
    <rect x="123" y="320" width="110" height="12" rx="2" fill="#FFCB8F"/>
    <rect x="89" y="320" width="32" height="12" rx="2" fill="#FF9429"/>
    <path d="M95.7421 40.24C98.4141 40.24 100.286 38.48 100.286 35.8V28.48H98.8461V35.68C98.8461 37.848 97.2141 38.896 95.7421 38.896C94.2861 38.896 92.6381 37.864 92.6381 35.68V28.48L91.1981 28.488V35.8C91.1981 38.488 93.0701 40.24 95.7421 40.24ZM102.526 40H103.878V31.608L107.79 40H108.55L112.462 31.608V39.992H113.814V28.48H112.502L108.174 37.656L103.822 28.48H102.526V40ZM116.218 40H117.642V28.48H116.218V40Z" fill="white"/>
    <path d="M163.004 40.24C165.668 40.24 167.42 38.776 168.076 36.488L166.628 36.104C166.156 37.816 164.948 38.88 163.004 38.88C160.428 38.88 159.116 37 159.132 34.24C159.148 31.48 160.428 29.6 163.004 29.6C164.948 29.6 166.156 30.664 166.628 32.376L168.076 31.992C167.42 29.704 165.668 28.24 163.004 28.24C159.556 28.24 157.628 30.688 157.628 34.24C157.628 37.792 159.556 40.24 163.004 40.24ZM169.831 40H173.383C173.599 40 174.303 40 174.839 39.928C177.503 39.576 178.887 37.184 178.887 34.24C178.887 31.304 177.503 28.904 174.839 28.552C174.295 28.48 173.607 28.48 173.383 28.48H169.831V40ZM171.295 38.64V29.84H173.383C173.767 29.84 174.343 29.856 174.719 29.928C176.583 30.264 177.375 32.064 177.375 34.24C177.375 36.376 176.607 38.208 174.719 38.552C174.343 38.624 173.783 38.64 173.383 38.64H171.295ZM180.722 40H182.146V35.744H185.514L187.578 40H189.21L186.986 35.432C188.29 34.888 188.97 33.632 188.97 32.112C188.97 30.28 187.986 28.832 186.122 28.544C185.826 28.496 185.498 28.48 185.274 28.48H180.722V40ZM182.146 34.392V29.832H185.226C185.426 29.832 185.706 29.848 185.946 29.904C187.05 30.152 187.514 31.152 187.514 32.112C187.514 33.072 187.05 34.072 185.946 34.32C185.706 34.376 185.426 34.392 185.226 34.392H182.146ZM194.132 40.224C196.268 40.224 197.892 38.664 197.892 36.456C197.892 34.44 196.612 32.944 194.628 32.832L197.74 29.848V28.48H190.948V29.84H195.972L192.228 33.224L192.916 34.352C193.276 34.168 193.716 34.048 194.108 34.048C195.492 34.048 196.428 35.032 196.428 36.456C196.428 37.864 195.524 38.84 194.124 38.864C193.1 38.88 192.204 38.312 191.86 37.24L190.492 37.632C190.98 39.232 192.42 40.224 194.132 40.224Z" fill="white"/>
    <path d="M338 180L338.707 180.707L339.414 180L338.707 179.293L338 180ZM330.707 171.293L330 170.586L328.586 172L329.293 172.707L330.707 171.293ZM329.293 187.293L328.586 188L330 189.414L330.707 188.707L329.293 187.293ZM307 181H338V179H307V181ZM338.707 179.293L330.707 171.293L329.293 172.707L337.293 180.707L338.707 179.293ZM337.293 179.293L329.293 187.293L330.707 188.707L338.707 180.707L337.293 179.293Z" fill="#D3D7E0"/>
    <path d="M286.211 220.24C288.883 220.24 290.755 218.48 290.755 215.8V208.48H289.315V215.68C289.315 217.848 287.683 218.896 286.211 218.896C284.755 218.896 283.107 217.864 283.107 215.68V208.48L281.667 208.488V215.8C281.667 218.488 283.539 220.24 286.211 220.24ZM292.995 220H294.347V211.608L298.259 220H299.019L302.931 211.608V219.992H304.283V208.48H302.971L298.643 217.656L294.291 208.48H292.995V220ZM306.686 220H308.11V208.48H306.686V220ZM310.351 215.544H315.151V214.368H310.351V215.544ZM321.197 220.24C323.613 220.24 325.069 218.264 325.069 215.672C325.069 213.08 323.605 211.12 321.205 211.12C320.125 211.12 319.269 211.496 318.653 212.144V208.48H317.221V220H318.493V219.024C319.125 219.784 320.029 220.24 321.197 220.24ZM318.493 215.672C318.493 213.76 319.293 212.424 320.981 212.424C322.741 212.424 323.557 213.848 323.557 215.672C323.557 217.512 322.725 218.936 321.021 218.936C319.277 218.936 318.493 217.568 318.493 215.672ZM329.279 220.24C330.719 220.24 331.791 219.712 332.479 218.656V220H333.743V214.656C333.743 213.976 333.703 213.344 333.463 212.808C332.967 211.68 331.791 211.12 330.231 211.12C328.279 211.12 327.071 212.04 326.663 213.552L328.015 213.96C328.327 212.904 329.167 212.448 330.215 212.448C331.711 212.448 332.303 213.104 332.343 214.48C331.063 214.656 329.543 214.84 328.463 215.128C327.151 215.512 326.343 216.304 326.343 217.664C326.343 219.056 327.343 220.24 329.279 220.24ZM327.759 217.656C327.759 216.848 328.391 216.456 329.103 216.232C329.943 215.992 331.111 215.856 332.327 215.696C332.319 216.088 332.303 216.64 332.183 217.056C331.975 218.128 331.031 219.048 329.495 219.048C328.263 219.048 327.759 218.368 327.759 217.656ZM339.087 220.232C341.239 220.232 342.543 219.224 342.543 217.552C342.543 216.216 341.799 215.576 339.519 214.992C337.487 214.48 337.047 214.208 337.047 213.576C337.047 212.84 337.815 212.36 338.935 212.392C340.111 212.424 340.911 212.992 341.055 213.912L342.511 213.648C342.327 212.128 340.903 211.12 338.935 211.12C336.943 211.12 335.615 212.128 335.615 213.648C335.615 214.888 336.343 215.48 338.631 216.088C340.743 216.656 341.071 216.864 341.071 217.592C341.071 218.44 340.351 218.96 339.175 218.96C337.927 218.96 337.031 218.376 336.799 217.432L335.343 217.664C335.639 219.288 337.023 220.232 339.087 220.232ZM348.052 220.24C349.724 220.24 351.156 219.368 351.836 217.84L350.468 217.368C349.988 218.352 349.124 218.888 347.988 218.888C346.396 218.888 345.468 217.872 345.356 216.08H351.98C352.108 213.008 350.588 211.12 347.988 211.12C345.476 211.12 343.828 212.904 343.828 215.736C343.828 218.44 345.5 220.24 348.052 220.24ZM345.38 214.936C345.58 213.296 346.484 212.4 348.036 212.4C349.5 212.4 350.324 213.24 350.5 214.936H345.38ZM357.153 220.24C358.321 220.24 359.225 219.784 359.857 219.024V220H361.129V208.48H359.697V212.144C359.081 211.496 358.225 211.12 357.145 211.12C354.745 211.12 353.281 213.08 353.281 215.672C353.281 218.264 354.737 220.24 357.153 220.24ZM354.793 215.672C354.793 213.848 355.609 212.424 357.369 212.424C359.057 212.424 359.857 213.76 359.857 215.672C359.857 217.568 359.073 218.936 357.329 218.936C355.625 218.936 354.793 217.512 354.793 215.672ZM268.661 240.24C270.333 240.24 271.765 239.368 272.445 237.84L271.077 237.368C270.597 238.352 269.733 238.888 268.597 238.888C267.005 238.888 266.077 237.872 265.965 236.08H272.589C272.717 233.008 271.197 231.12 268.597 231.12C266.085 231.12 264.437 232.904 264.437 235.736C264.437 238.44 266.109 240.24 268.661 240.24ZM265.989 234.936C266.189 233.296 267.093 232.4 268.645 232.4C270.109 232.4 270.933 233.24 271.109 234.936H265.989ZM274.37 240H275.802V235.664C275.802 234.64 276.01 233.624 276.85 233.024C277.45 232.584 278.226 232.544 278.826 232.696V231.36C278.058 231.192 277.042 231.352 276.378 231.888C276.09 232.096 275.834 232.392 275.642 232.728V231.36H274.37V240ZM280.339 240H281.771V235.664C281.771 234.64 281.979 233.624 282.819 233.024C283.419 232.584 284.195 232.544 284.795 232.696V231.36C284.027 231.192 283.011 231.352 282.347 231.888C282.059 232.096 281.803 232.392 281.611 232.728V231.36H280.339V240ZM289.831 240.24C292.399 240.24 293.999 238.384 293.999 235.672C293.999 233 292.423 231.12 289.831 231.12C287.295 231.12 285.671 232.96 285.671 235.672C285.671 238.352 287.247 240.24 289.831 240.24ZM287.183 235.672C287.183 233.784 288.023 232.472 289.831 232.472C291.599 232.472 292.487 233.728 292.487 235.672C292.487 237.576 291.615 238.888 289.831 238.888C288.087 238.888 287.183 237.624 287.183 235.672ZM295.761 240H297.193V235.664C297.193 234.64 297.401 233.624 298.241 233.024C298.841 232.584 299.617 232.544 300.217 232.696V231.36C299.449 231.192 298.433 231.352 297.769 231.888C297.481 232.096 297.225 232.392 297.033 232.728V231.36H295.761V240ZM308.573 240.24C310.357 240.24 311.661 239.368 312.269 237.752L310.829 237.376C310.437 238.36 309.693 238.888 308.573 238.888C306.853 238.888 305.981 237.608 305.965 235.68C305.981 233.808 306.797 232.472 308.573 232.472C309.621 232.472 310.493 233.056 310.861 234.056L312.269 233.632C311.812 232.08 310.405 231.12 308.589 231.12C305.989 231.12 304.477 232.984 304.453 235.68C304.477 238.328 305.941 240.24 308.573 240.24ZM317.347 240.24C319.915 240.24 321.515 238.384 321.515 235.672C321.515 233 319.939 231.12 317.347 231.12C314.811 231.12 313.187 232.96 313.187 235.672C313.187 238.352 314.763 240.24 317.347 240.24ZM314.699 235.672C314.699 233.784 315.539 232.472 317.347 232.472C319.115 232.472 320.003 233.728 320.003 235.672C320.003 237.576 319.131 238.888 317.347 238.888C315.603 238.888 314.699 237.624 314.699 235.672ZM323.276 240H324.708V235.664C324.708 234.64 324.916 233.624 325.756 233.024C326.356 232.584 327.132 232.544 327.732 232.696V231.36C326.964 231.192 325.948 231.352 325.284 231.888C324.996 232.096 324.74 232.392 324.548 232.728V231.36H323.276V240ZM329.245 240H330.677V235.664C330.677 234.64 330.885 233.624 331.725 233.024C332.325 232.584 333.101 232.544 333.701 232.696V231.36C332.933 231.192 331.917 231.352 331.253 231.888C330.965 232.096 330.709 232.392 330.517 232.728V231.36H329.245V240ZM338.802 240.24C340.474 240.24 341.906 239.368 342.586 237.84L341.218 237.368C340.738 238.352 339.874 238.888 338.738 238.888C337.146 238.888 336.218 237.872 336.106 236.08H342.73C342.858 233.008 341.338 231.12 338.738 231.12C336.226 231.12 334.578 232.904 334.578 235.736C334.578 238.44 336.25 240.24 338.802 240.24ZM336.13 234.936C336.33 233.296 337.234 232.4 338.786 232.4C340.25 232.4 341.074 233.24 341.25 234.936H336.13ZM348.151 240.24C349.935 240.24 351.239 239.368 351.847 237.752L350.407 237.376C350.015 238.36 349.271 238.888 348.151 238.888C346.431 238.888 345.559 237.608 345.543 235.68C345.559 233.808 346.375 232.472 348.151 232.472C349.199 232.472 350.071 233.056 350.439 234.056L351.847 233.632C351.391 232.08 349.983 231.12 348.167 231.12C345.567 231.12 344.055 232.984 344.031 235.68C344.055 238.328 345.519 240.24 348.151 240.24ZM358.303 240V238.776C357.119 238.96 356.255 238.912 355.871 238.224C355.663 237.864 355.695 237.384 355.695 236.672V232.536H358.303V231.36H355.695V228.96H354.271V231.36H352.519V232.536H354.271V236.736C354.271 237.632 354.223 238.288 354.567 238.96C355.167 240.136 356.759 240.312 358.303 240ZM360.218 229.832H361.642V228.36H360.218V229.832ZM360.218 240H361.642V231.36H360.218V240ZM367.722 240.24C370.29 240.24 371.89 238.384 371.89 235.672C371.89 233 370.314 231.12 367.722 231.12C365.186 231.12 363.562 232.96 363.562 235.672C363.562 238.352 365.138 240.24 367.722 240.24ZM365.074 235.672C365.074 233.784 365.914 232.472 367.722 232.472C369.49 232.472 370.378 233.728 370.378 235.672C370.378 237.576 369.506 238.888 367.722 238.888C365.978 238.888 365.074 237.624 365.074 235.672ZM379.803 235.672V240H381.243V235.224C381.243 233.584 380.587 231.136 377.803 231.136C376.555 231.136 375.563 231.616 374.923 232.472V231.36H373.643V240H375.083V235.448C375.083 233.448 376.027 232.488 377.459 232.488C379.283 232.488 379.803 234.048 379.803 235.672Z" fill="white"/>
    <path d="M610.004 220.24C612.668 220.24 614.42 218.776 615.076 216.488L613.628 216.104C613.156 217.816 611.948 218.88 610.004 218.88C607.428 218.88 606.116 217 606.132 214.24C606.148 211.48 607.428 209.6 610.004 209.6C611.948 209.6 613.156 210.664 613.628 212.376L615.076 211.992C614.42 209.704 612.668 208.24 610.004 208.24C606.556 208.24 604.628 210.688 604.628 214.24C604.628 217.792 606.556 220.24 610.004 220.24ZM616.831 220H620.383C620.599 220 621.303 220 621.839 219.928C624.503 219.576 625.887 217.184 625.887 214.24C625.887 211.304 624.503 208.904 621.839 208.552C621.295 208.48 620.607 208.48 620.383 208.48H616.831V220ZM618.295 218.64V209.84H620.383C620.767 209.84 621.343 209.856 621.719 209.928C623.583 210.264 624.375 212.064 624.375 214.24C624.375 216.376 623.607 218.208 621.719 218.552C621.343 218.624 620.783 218.64 620.383 218.64H618.295ZM627.722 220H629.146V215.744H632.514L634.578 220H636.21L633.986 215.432C635.29 214.888 635.97 213.632 635.97 212.112C635.97 210.28 634.986 208.832 633.122 208.544C632.826 208.496 632.498 208.48 632.274 208.48H627.722V220ZM629.146 214.392V209.832H632.226C632.426 209.832 632.706 209.848 632.946 209.904C634.05 210.152 634.514 211.152 634.514 212.112C634.514 213.072 634.05 214.072 632.946 214.32C632.706 214.376 632.426 214.392 632.226 214.392H629.146ZM641.132 220.224C643.268 220.224 644.892 218.664 644.892 216.456C644.892 214.44 643.612 212.944 641.628 212.832L644.74 209.848V208.48H637.948V209.84H642.972L639.228 213.224L639.916 214.352C640.276 214.168 640.716 214.048 641.108 214.048C642.492 214.048 643.428 215.032 643.428 216.456C643.428 217.864 642.524 218.84 641.124 218.864C640.1 218.88 639.204 218.312 638.86 217.24L637.492 217.632C637.98 219.232 639.42 220.224 641.132 220.224ZM591.877 240.24C593.661 240.24 594.965 239.368 595.573 237.752L594.133 237.376C593.741 238.36 592.997 238.888 591.877 238.888C590.157 238.888 589.285 237.608 589.269 235.68C589.285 233.808 590.101 232.472 591.877 232.472C592.925 232.472 593.797 233.056 594.165 234.056L595.573 233.632C595.117 232.08 593.709 231.12 591.893 231.12C589.293 231.12 587.781 232.984 587.757 235.68C587.781 238.328 589.245 240.24 591.877 240.24ZM597.132 240H598.556V228.48H597.132V240ZM604.236 240.224C605.484 240.224 606.476 239.744 607.116 238.888V240H608.388V231.36H606.956V235.912C606.956 237.912 606.012 238.872 604.58 238.872C602.756 238.872 602.236 237.312 602.236 235.688V231.36H600.796V236.136C600.796 237.776 601.452 240.224 604.236 240.224ZM613.892 240.232C616.044 240.232 617.348 239.224 617.348 237.552C617.348 236.216 616.604 235.576 614.324 234.992C612.292 234.48 611.852 234.208 611.852 233.576C611.852 232.84 612.62 232.36 613.74 232.392C614.916 232.424 615.716 232.992 615.86 233.912L617.316 233.648C617.132 232.128 615.708 231.12 613.74 231.12C611.748 231.12 610.42 232.128 610.42 233.648C610.42 234.888 611.148 235.48 613.436 236.088C615.548 236.656 615.876 236.864 615.876 237.592C615.876 238.44 615.156 238.96 613.98 238.96C612.732 238.96 611.836 238.376 611.604 237.432L610.148 237.664C610.444 239.288 611.828 240.232 613.892 240.232ZM623.936 240V238.776C622.752 238.96 621.888 238.912 621.504 238.224C621.296 237.864 621.328 237.384 621.328 236.672V232.536H623.936V231.36H621.328V228.96H619.904V231.36H618.152V232.536H619.904V236.736C619.904 237.632 619.856 238.288 620.2 238.96C620.8 240.136 622.392 240.312 623.936 240ZM629.075 240.24C630.747 240.24 632.179 239.368 632.859 237.84L631.491 237.368C631.011 238.352 630.147 238.888 629.011 238.888C627.419 238.888 626.491 237.872 626.379 236.08H633.003C633.131 233.008 631.611 231.12 629.011 231.12C626.499 231.12 624.851 232.904 624.851 235.736C624.851 238.44 626.523 240.24 629.075 240.24ZM626.403 234.936C626.603 233.296 627.507 232.4 629.059 232.4C630.523 232.4 631.347 233.24 631.523 234.936H626.403ZM634.784 240H636.216V235.664C636.216 234.64 636.424 233.624 637.264 233.024C637.864 232.584 638.64 232.544 639.24 232.696V231.36C638.472 231.192 637.456 231.352 636.792 231.888C636.504 232.096 636.248 232.392 636.056 232.728V231.36H634.784V240ZM640.913 229.832H642.337V228.36H640.913V229.832ZM640.913 240H642.337V231.36H640.913V240ZM650.889 235.672V240H652.329V235.224C652.329 233.584 651.673 231.136 648.889 231.136C647.641 231.136 646.649 231.616 646.009 232.472V231.36H644.729V240H646.169V235.448C646.169 233.448 647.113 232.488 648.545 232.488C650.369 232.488 650.889 234.048 650.889 235.672ZM657.905 244.08C659.969 244.08 661.329 243.224 661.665 241.384C661.745 240.96 661.769 240.536 661.769 240.056V231.36H660.505V232.328C659.873 231.568 658.969 231.12 657.793 231.12C655.393 231.12 653.929 233.08 653.929 235.672C653.929 238.264 655.385 240.24 657.801 240.24C658.865 240.24 659.721 239.856 660.337 239.208V240.04C660.353 241.8 659.561 242.704 657.913 242.704C657.073 242.704 656.217 242.344 655.793 241.496L654.489 242.184C655.209 243.472 656.545 244.08 657.905 244.08ZM655.441 235.672C655.441 233.848 656.257 232.424 658.017 232.424C659.705 232.424 660.505 233.76 660.505 235.672C660.505 237.568 659.721 238.936 657.977 238.936C656.273 238.936 655.441 237.512 655.441 235.672Z" fill="white"/>
    <path d="M640 180L640.707 180.707L641.414 180L640.707 179.293L640 180ZM632.707 171.293L632 170.586L630.586 172L631.293 172.707L632.707 171.293ZM631.293 187.293L630.586 188L632 189.414L632.707 188.707L631.293 187.293ZM609 181H640V179H609V181ZM640.707 179.293L632.707 171.293L631.293 172.707L639.293 180.707L640.707 179.293ZM639.293 179.293L631.293 187.293L632.707 188.707L640.707 180.707L639.293 179.293Z" fill="#D3D7E0"/>
    <circle cx="765" cy="124" r="79" stroke="#C1ADFF" stroke-width="10"/>
    <path d="M743.903 130.24C746.567 130.24 748.319 128.776 748.975 126.488L747.527 126.104C747.055 127.816 745.847 128.88 743.903 128.88C741.327 128.88 740.015 127 740.031 124.24C740.047 121.48 741.327 119.6 743.903 119.6C745.847 119.6 747.055 120.664 747.527 122.376L748.975 121.992C748.319 119.704 746.567 118.24 743.903 118.24C740.455 118.24 738.527 120.688 738.527 124.24C738.527 127.792 740.455 130.24 743.903 130.24ZM750.889 130H752.313V118.48H750.889V130ZM758.394 130.24C760.962 130.24 762.562 128.384 762.562 125.672C762.562 123 760.986 121.12 758.394 121.12C755.858 121.12 754.234 122.96 754.234 125.672C754.234 128.352 755.81 130.24 758.394 130.24ZM755.746 125.672C755.746 123.784 756.586 122.472 758.394 122.472C760.162 122.472 761.05 123.728 761.05 125.672C761.05 127.576 760.178 128.888 758.394 128.888C756.65 128.888 755.746 127.624 755.746 125.672ZM770.475 125.672V130H771.915V125.224C771.915 123.584 771.259 121.136 768.475 121.136C767.227 121.136 766.235 121.616 765.595 122.472V121.36H764.315V130H765.755V125.448C765.755 123.448 766.699 122.488 768.131 122.488C769.955 122.488 770.475 124.048 770.475 125.672ZM777.661 130.24C779.333 130.24 780.765 129.368 781.445 127.84L780.077 127.368C779.597 128.352 778.733 128.888 777.597 128.888C776.005 128.888 775.077 127.872 774.965 126.08H781.589C781.717 123.008 780.197 121.12 777.597 121.12C775.085 121.12 773.437 122.904 773.437 125.736C773.437 128.44 775.109 130.24 777.661 130.24ZM774.989 124.936C775.189 123.296 776.093 122.4 777.645 122.4C779.109 122.4 779.933 123.24 780.109 124.936H774.989ZM788.581 130H790.029V118.48H788.581L786.413 119.776V121.368L788.581 120.056V130Z" fill="white"/>
    <path d="M743.028 282.24C745.692 282.24 747.444 280.776 748.1 278.488L746.652 278.104C746.18 279.816 744.972 280.88 743.028 280.88C740.452 280.88 739.14 279 739.156 276.24C739.172 273.48 740.452 271.6 743.028 271.6C744.972 271.6 746.18 272.664 746.652 274.376L748.1 273.992C747.444 271.704 745.692 270.24 743.028 270.24C739.58 270.24 737.652 272.688 737.652 276.24C737.652 279.792 739.58 282.24 743.028 282.24ZM750.014 282H751.438V270.48H750.014V282ZM757.519 282.24C760.087 282.24 761.687 280.384 761.687 277.672C761.687 275 760.111 273.12 757.519 273.12C754.983 273.12 753.359 274.96 753.359 277.672C753.359 280.352 754.935 282.24 757.519 282.24ZM754.871 277.672C754.871 275.784 755.711 274.472 757.519 274.472C759.287 274.472 760.175 275.728 760.175 277.672C760.175 279.576 759.303 280.888 757.519 280.888C755.775 280.888 754.871 279.624 754.871 277.672ZM769.6 277.672V282H771.04V277.224C771.04 275.584 770.384 273.136 767.6 273.136C766.352 273.136 765.36 273.616 764.72 274.472V273.36H763.44V282H764.88V277.448C764.88 275.448 765.824 274.488 767.256 274.488C769.08 274.488 769.6 276.048 769.6 277.672ZM776.786 282.24C778.458 282.24 779.89 281.368 780.57 279.84L779.202 279.368C778.722 280.352 777.858 280.888 776.722 280.888C775.13 280.888 774.202 279.872 774.09 278.08H780.714C780.842 275.008 779.322 273.12 776.722 273.12C774.21 273.12 772.562 274.904 772.562 277.736C772.562 280.44 774.234 282.24 776.786 282.24ZM774.114 276.936C774.314 275.296 775.218 274.4 776.77 274.4C778.234 274.4 779.058 275.24 779.234 276.936H774.114ZM785.378 281.992H793.034V280.632H787.57L791.282 277.296C792.466 276.248 793.034 275.488 793.034 273.976C793.034 271.856 791.418 270.24 789.282 270.24C787.066 270.24 785.434 271.784 785.434 273.952H786.89C786.874 272.696 787.882 271.6 789.258 271.6C790.586 271.6 791.578 272.632 791.578 273.96C791.578 274.688 791.346 275.352 790.498 276.112L785.386 280.712L785.378 281.992Z" fill="white"/>
    <circle cx="765" cy="276" r="51" stroke="#FFCB8F" stroke-width="10"/>
    <circle cx="843" cy="219" r="23" stroke="#99E099" stroke-width="10"/>
    <circle cx="447" cy="140" r="63" stroke="#C1ADFF" stroke-width="10"/>
    <path d="M425.903 146.24C428.567 146.24 430.319 144.776 430.975 142.488L429.527 142.104C429.055 143.816 427.847 144.88 425.903 144.88C423.327 144.88 422.015 143 422.031 140.24C422.047 137.48 423.327 135.6 425.903 135.6C427.847 135.6 429.055 136.664 429.527 138.376L430.975 137.992C430.319 135.704 428.567 134.24 425.903 134.24C422.455 134.24 420.527 136.688 420.527 140.24C420.527 143.792 422.455 146.24 425.903 146.24ZM432.889 146H434.313V134.48H432.889V146ZM440.394 146.24C442.962 146.24 444.562 144.384 444.562 141.672C444.562 139 442.986 137.12 440.394 137.12C437.858 137.12 436.234 138.96 436.234 141.672C436.234 144.352 437.81 146.24 440.394 146.24ZM437.746 141.672C437.746 139.784 438.586 138.472 440.394 138.472C442.162 138.472 443.05 139.728 443.05 141.672C443.05 143.576 442.178 144.888 440.394 144.888C438.65 144.888 437.746 143.624 437.746 141.672ZM452.475 141.672V146H453.915V141.224C453.915 139.584 453.259 137.136 450.475 137.136C449.227 137.136 448.235 137.616 447.595 138.472V137.36H446.315V146H447.755V141.448C447.755 139.448 448.699 138.488 450.131 138.488C451.955 138.488 452.475 140.048 452.475 141.672ZM459.661 146.24C461.333 146.24 462.765 145.368 463.445 143.84L462.077 143.368C461.597 144.352 460.733 144.888 459.597 144.888C458.005 144.888 457.077 143.872 456.965 142.08H463.589C463.717 139.008 462.197 137.12 459.597 137.12C457.085 137.12 455.437 138.904 455.437 141.736C455.437 144.44 457.109 146.24 459.661 146.24ZM456.989 140.936C457.189 139.296 458.093 138.4 459.645 138.4C461.109 138.4 461.933 139.24 462.109 140.936H456.989ZM470.581 146H472.029V134.48H470.581L468.413 135.776V137.368L470.581 136.056V146Z" fill="white"/>
    <circle cx="537" cy="200" r="23" stroke="#C1ADFF" stroke-width="10"/>
    <rect x="534" y="216" width="6" height="14" fill="#F05670" stroke="#110529" stroke-width="2"/>
    <path d="M451.028 282.24C453.692 282.24 455.444 280.776 456.1 278.488L454.652 278.104C454.18 279.816 452.972 280.88 451.028 280.88C448.452 280.88 447.14 279 447.156 276.24C447.172 273.48 448.452 271.6 451.028 271.6C452.972 271.6 454.18 272.664 454.652 274.376L456.1 273.992C455.444 271.704 453.692 270.24 451.028 270.24C447.58 270.24 445.652 272.688 445.652 276.24C445.652 279.792 447.58 282.24 451.028 282.24ZM458.014 282H459.438V270.48H458.014V282ZM465.519 282.24C468.087 282.24 469.687 280.384 469.687 277.672C469.687 275 468.111 273.12 465.519 273.12C462.983 273.12 461.359 274.96 461.359 277.672C461.359 280.352 462.935 282.24 465.519 282.24ZM462.871 277.672C462.871 275.784 463.711 274.472 465.519 274.472C467.287 274.472 468.175 275.728 468.175 277.672C468.175 279.576 467.303 280.888 465.519 280.888C463.775 280.888 462.871 279.624 462.871 277.672ZM477.6 277.672V282H479.04V277.224C479.04 275.584 478.384 273.136 475.6 273.136C474.352 273.136 473.36 273.616 472.72 274.472V273.36H471.44V282H472.88V277.448C472.88 275.448 473.824 274.488 475.256 274.488C477.08 274.488 477.6 276.048 477.6 277.672ZM484.786 282.24C486.458 282.24 487.89 281.368 488.57 279.84L487.202 279.368C486.722 280.352 485.858 280.888 484.722 280.888C483.13 280.888 482.202 279.872 482.09 278.08H488.714C488.842 275.008 487.322 273.12 484.722 273.12C482.21 273.12 480.562 274.904 480.562 277.736C480.562 280.44 482.234 282.24 484.786 282.24ZM482.114 276.936C482.314 275.296 483.218 274.4 484.77 274.4C486.234 274.4 487.058 275.24 487.234 276.936H482.114ZM493.378 281.992H501.034V280.632H495.57L499.282 277.296C500.466 276.248 501.034 275.488 501.034 273.976C501.034 271.856 499.418 270.24 497.282 270.24C495.066 270.24 493.434 271.784 493.434 273.952H494.89C494.874 272.696 495.882 271.6 497.258 271.6C498.586 271.6 499.578 272.632 499.578 273.96C499.578 274.688 499.346 275.352 498.498 276.112L493.386 280.712L493.378 281.992Z" fill="white"/>
    <circle cx="473" cy="276" r="51" stroke="#FFCB8F" stroke-width="10"/>
    <circle cx="527" cy="68" r="23" stroke="#99E099" stroke-width="10"/>
</svg>
