<svg width="960" height="356" viewBox="0 0 960 356" fill="none" xmlns="http://www.w3.org/2000/svg">
<rect width="960" height="356" fill="white"/>
<rect x="123" y="56" width="110" height="12" rx="2" fill="#99E099"/>
<rect x="89" y="56" width="32" height="12" rx="2" fill="#42B842"/>
<rect x="123" y="80" width="110" height="12" rx="2" fill="#C1ADFF"/>
<rect x="89" y="80" width="32" height="12" rx="2" fill="#845CFF"/>
<rect x="123" y="104" width="110" height="12" rx="2" fill="#C1ADFF"/>
<rect x="89" y="104" width="32" height="12" rx="2" fill="#27C2C2"/>
<rect x="123" y="128" width="110" height="12" rx="2" fill="#FFCB8F"/>
<rect x="89" y="128" width="32" height="12" rx="2" fill="#FF9429"/>
<rect x="195" y="126" width="6" height="16" fill="#F05670" stroke="white" stroke-width="2"/>
<rect x="123" y="152" width="110" height="12" rx="2" fill="#99E099"/>
<rect x="89" y="152" width="32" height="12" rx="2" fill="#42B842"/>
<rect x="123" y="176" width="110" height="12" rx="2" fill="#C1ADFF"/>
<rect x="89" y="176" width="32" height="12" rx="2" fill="#27C2C2"/>
<rect x="143" y="174" width="6" height="16" fill="#F05670" stroke="white" stroke-width="2"/>
<rect x="123" y="200" width="110" height="12" rx="2" fill="#C1ADFF"/>
<rect x="89" y="200" width="32" height="12" rx="2" fill="#27C2C2"/>
<rect x="123" y="224" width="110" height="12" rx="2" fill="#FFCB8F"/>
<rect x="89" y="224" width="32" height="12" rx="2" fill="#E653E6"/>
<rect x="123" y="248" width="110" height="12" rx="2" fill="#C1ADFF"/>
<rect x="89" y="248" width="32" height="12" rx="2" fill="#2D93FA"/>
<rect x="208" y="246" width="6" height="16" fill="#F05670" stroke="white" stroke-width="2"/>
<rect x="123" y="272" width="110" height="12" rx="2" fill="#FFCB8F"/>
<rect x="89" y="272" width="32" height="12" rx="2" fill="#FF9429"/>
<rect x="123" y="296" width="110" height="12" rx="2" fill="#C1ADFF"/>
<rect x="89" y="296" width="32" height="12" rx="2" fill="#845CFF"/>
<rect x="123" y="320" width="110" height="12" rx="2" fill="#FFCB8F"/>
<rect x="89" y="320" width="32" height="12" rx="2" fill="#FF9429"/>
<path d="M95.7421 40.24C94.8515 40.24 94.0648 40.056 93.3821 39.688C92.6995 39.32 92.1635 38.8053 91.7741 38.144C91.3901 37.4773 91.1981 36.696 91.1981 35.8V28.488L92.6381 28.48V35.68C92.6381 36.224 92.7288 36.6987 92.9101 37.104C93.0968 37.504 93.3421 37.8373 93.6461 38.104C93.9501 38.3707 94.2835 38.5707 94.6461 38.704C95.0141 38.832 95.3795 38.896 95.7421 38.896C96.1101 38.896 96.4781 38.8293 96.8461 38.696C97.2141 38.5627 97.5475 38.3653 97.8461 38.104C98.1501 37.8373 98.3928 37.5013 98.5741 37.096C98.7555 36.6907 98.8461 36.2187 98.8461 35.68V28.48H100.286V35.8C100.286 36.6907 100.091 37.4693 99.7021 38.136C99.3181 38.8027 98.7848 39.32 98.1021 39.688C97.4195 40.056 96.6328 40.24 95.7421 40.24ZM102.526 40V28.48H103.822L108.174 37.656L112.502 28.48H113.814V39.992H112.462V31.608L108.55 40H107.79L103.878 31.608V40H102.526ZM116.218 40V28.48H117.642V40H116.218Z" fill="#110529"/>
<path d="M163.004 40.24C161.858 40.24 160.884 39.9867 160.084 39.48C159.284 38.9733 158.674 38.2693 158.252 37.368C157.836 36.4667 157.628 35.424 157.628 34.24C157.628 33.056 157.836 32.0133 158.252 31.112C158.674 30.2107 159.284 29.5067 160.084 29C160.884 28.4933 161.858 28.24 163.004 28.24C164.338 28.24 165.434 28.5787 166.292 29.256C167.156 29.9333 167.751 30.8453 168.076 31.992L166.628 32.376C166.394 31.5173 165.975 30.84 165.372 30.344C164.77 29.848 163.98 29.6 163.004 29.6C162.146 29.6 161.431 29.7947 160.86 30.184C160.29 30.5733 159.86 31.1173 159.572 31.816C159.284 32.5093 159.138 33.3173 159.132 34.24C159.127 35.1573 159.268 35.9653 159.556 36.664C159.844 37.3573 160.276 37.9013 160.852 38.296C161.428 38.6853 162.146 38.88 163.004 38.88C163.98 38.88 164.77 38.632 165.372 38.136C165.975 37.6347 166.394 36.9573 166.628 36.104L168.076 36.488C167.751 37.6293 167.156 38.5413 166.292 39.224C165.434 39.9013 164.338 40.24 163.004 40.24ZM169.831 40V28.48H173.383C173.5 28.48 173.706 28.4827 173.999 28.488C174.292 28.4933 174.572 28.5147 174.839 28.552C175.73 28.6693 176.474 28.9947 177.071 29.528C177.674 30.056 178.127 30.728 178.431 31.544C178.735 32.36 178.887 33.2587 178.887 34.24C178.887 35.2213 178.735 36.12 178.431 36.936C178.127 37.752 177.674 38.4267 177.071 38.96C176.474 39.488 175.73 39.8107 174.839 39.928C174.572 39.96 174.29 39.9813 173.991 39.992C173.698 39.9973 173.495 40 173.383 40H169.831ZM171.295 38.64H173.383C173.586 38.64 173.812 38.6347 174.063 38.624C174.314 38.608 174.532 38.584 174.719 38.552C175.348 38.4347 175.858 38.1707 176.247 37.76C176.636 37.3493 176.922 36.8373 177.103 36.224C177.284 35.6107 177.375 34.9493 177.375 34.24C177.375 33.5147 177.282 32.8453 177.095 32.232C176.914 31.6187 176.628 31.1093 176.239 30.704C175.85 30.2987 175.343 30.04 174.719 29.928C174.532 29.8907 174.311 29.8667 174.055 29.856C173.799 29.8453 173.575 29.84 173.383 29.84H171.295V38.64ZM180.722 40V28.48H185.274C185.386 28.48 185.519 28.4853 185.674 28.496C185.828 28.5013 185.978 28.5173 186.122 28.544C186.746 28.64 187.268 28.8533 187.69 29.184C188.116 29.5147 188.436 29.9333 188.65 30.44C188.863 30.9413 188.97 31.4987 188.97 32.112C188.97 33.0027 188.738 33.776 188.274 34.432C187.81 35.0827 187.13 35.4907 186.234 35.656L185.69 35.744H182.146V40H180.722ZM187.578 40L185.306 35.312L186.714 34.88L189.21 40H187.578ZM182.146 34.392H185.226C185.327 34.392 185.442 34.3867 185.57 34.376C185.703 34.3653 185.828 34.3467 185.946 34.32C186.314 34.2347 186.612 34.08 186.842 33.856C187.076 33.6267 187.247 33.36 187.354 33.056C187.46 32.7467 187.514 32.432 187.514 32.112C187.514 31.792 187.46 31.48 187.354 31.176C187.247 30.8667 187.076 30.5973 186.842 30.368C186.612 30.1387 186.314 29.984 185.946 29.904C185.828 29.872 185.703 29.8533 185.57 29.848C185.442 29.8373 185.327 29.832 185.226 29.832H182.146V34.392ZM194.132 40.224C193.561 40.224 193.03 40.12 192.54 39.912C192.049 39.6987 191.625 39.4 191.268 39.016C190.916 38.6267 190.657 38.1653 190.492 37.632L191.86 37.24C192.036 37.7733 192.329 38.1787 192.74 38.456C193.15 38.7333 193.612 38.8693 194.124 38.864C194.593 38.8533 194.998 38.7467 195.34 38.544C195.686 38.336 195.953 38.0533 196.14 37.696C196.332 37.3387 196.428 36.9253 196.428 36.456C196.428 35.7413 196.214 35.1627 195.788 34.72C195.361 34.272 194.801 34.048 194.108 34.048C193.916 34.048 193.713 34.0747 193.5 34.128C193.292 34.1813 193.097 34.256 192.916 34.352L192.228 33.224L196.5 29.36L196.684 29.84H190.948V28.48H197.74V29.848L194.1 33.336L194.084 32.832C194.846 32.7787 195.513 32.904 196.084 33.208C196.654 33.512 197.097 33.9467 197.412 34.512C197.732 35.0773 197.892 35.7253 197.892 36.456C197.892 37.192 197.726 37.8427 197.396 38.408C197.065 38.9733 196.617 39.4187 196.052 39.744C195.486 40.064 194.846 40.224 194.132 40.224Z" fill="#110529"/>
<path d="M338 180L338.707 180.707L339.414 180L338.707 179.293L338 180ZM330.707 171.293L330 170.586L328.586 172L329.293 172.707L330.707 171.293ZM329.293 187.293L328.586 188L330 189.414L330.707 188.707L329.293 187.293ZM307 181H338V179H307V181ZM338.707 179.293L330.707 171.293L329.293 172.707L337.293 180.707L338.707 179.293ZM337.293 179.293L329.293 187.293L330.707 188.707L338.707 180.707L337.293 179.293Z" fill="#110529"/>
<path d="M288.711 208H287.211V215.183C287.211 216.167 287.128 216.867 286.528 217.633C285.928 218.4 284.961 218.85 283.995 218.85C283.011 218.85 282.045 218.4 281.445 217.633C280.828 216.833 280.745 216.167 280.745 215.183V208H279.245V215.633C279.245 216.65 279.661 217.767 280.295 218.567C281.178 219.667 282.578 220.267 283.995 220.25C285.411 220.267 286.795 219.667 287.678 218.567C288.328 217.75 288.711 216.683 288.711 215.633V208ZM302.992 208H301.492L297.025 217.55L292.525 208H291.042V220H292.542V211.267L296.625 220H297.408L301.492 211.25V219.983H302.992V208ZM305.49 208V220H306.973V208H305.49ZM309.312 214.683V215.9H314.313V214.683H309.312ZM323.913 212.183C323.179 211.25 322.029 210.75 320.796 210.75C319.729 210.75 318.713 211.15 317.979 211.85V208H316.479V220H317.813V218.95C318.529 219.817 319.596 220.25 320.796 220.25C322.013 220.25 323.163 219.733 323.913 218.8C324.663 217.85 324.913 216.667 324.913 215.483C324.913 214.3 324.629 213.1 323.913 212.183ZM322.713 217.883C322.229 218.567 321.429 218.883 320.613 218.883C319.779 218.883 319.013 218.583 318.513 217.967C318.013 217.35 317.813 216.417 317.813 215.483C317.813 214.567 318.013 213.65 318.513 213.017C318.996 212.4 319.746 212.1 320.563 212.1C321.446 212.1 322.213 212.417 322.696 213.1C323.163 213.717 323.329 214.583 323.329 215.483C323.329 216.383 323.179 217.267 322.713 217.883ZM333.961 220V214.5C333.961 213.417 333.695 212.333 332.861 211.633C332.261 211.1 331.345 210.75 330.428 210.75C328.945 210.75 327.745 211.2 326.811 212.267L327.745 213.267C328.478 212.4 329.345 212.167 330.278 212.167C331.528 212.167 332.411 212.783 332.461 214.033C330.728 214.3 328.945 214.45 327.828 215C326.711 215.567 326.245 216.367 326.245 217.517C326.245 219.183 327.461 220.25 329.211 220.25C330.711 220.25 331.811 219.817 332.645 218.633V220H333.961ZM332.128 217.55C331.628 218.45 330.678 218.95 329.495 218.95C328.478 218.95 327.728 218.333 327.728 217.383C327.728 216.517 328.561 215.983 329.578 215.767C330.211 215.617 331.228 215.45 332.478 215.25C332.478 216.233 332.478 216.917 332.128 217.55ZM343.269 213.35C343.002 212.483 342.252 211.617 341.402 211.183C340.802 210.883 340.119 210.75 339.502 210.75C338.869 210.733 338.219 210.8 337.569 211.083C336.719 211.467 336.052 212.283 336.052 213.267C336.052 213.733 336.219 214.367 336.635 214.767C337.085 215.217 337.685 215.45 338.235 215.65C338.735 215.8 339.135 215.917 340.202 216.217C340.785 216.383 341.119 216.517 341.419 216.7C341.769 216.917 341.919 217.25 341.919 217.55C341.919 217.95 341.719 218.283 341.385 218.517C340.985 218.783 340.252 218.917 339.702 218.917C338.952 218.917 338.152 218.717 337.635 218.133C337.319 217.783 337.119 217.183 337.052 216.7L335.635 217.05C335.885 217.9 336.002 218.417 336.585 219.067C337.385 219.933 338.452 220.25 339.685 220.25C340.569 220.25 341.402 220.117 342.135 219.633C342.852 219.2 343.302 218.367 343.302 217.567C343.302 216.817 342.969 216.167 342.335 215.667C341.835 215.267 341.219 215.017 340.602 214.85C339.835 214.65 339.285 214.5 338.802 214.35C338.319 214.217 338.052 214.1 337.835 213.95C337.535 213.75 337.452 213.517 337.452 213.217C337.452 212.817 337.785 212.467 338.152 212.3C338.502 212.15 338.969 212.05 339.419 212.067C339.885 212.083 340.402 212.2 340.769 212.4C341.285 212.683 341.652 213.15 341.852 213.7L343.269 213.35ZM346.184 216H353.301C353.384 214.55 353.101 213.233 352.284 212.217C351.484 211.233 350.284 210.75 348.984 210.75C347.684 210.75 346.484 211.233 345.684 212.217C344.951 213.133 344.651 214.333 344.651 215.55C344.651 216.683 344.951 217.833 345.684 218.767C346.468 219.733 347.751 220.25 349.051 220.25C350.768 220.25 352.151 219.483 352.968 218.067L351.851 217.333C351.168 218.417 350.234 218.917 348.984 218.917C348.134 218.917 347.301 218.583 346.818 217.917C346.418 217.383 346.234 216.717 346.184 216ZM348.984 212.067C349.851 212.067 350.668 212.4 351.151 213.067C351.468 213.483 351.668 214.033 351.751 214.65H346.218C346.301 214.067 346.484 213.5 346.818 213.067C347.301 212.4 348.134 212.067 348.984 212.067ZM361.601 208V211.85C360.884 211.15 359.851 210.75 358.768 210.75C357.551 210.75 356.401 211.25 355.668 212.183C354.951 213.1 354.668 214.3 354.668 215.483C354.668 216.667 354.918 217.85 355.668 218.8C356.418 219.733 357.551 220.25 358.784 220.25C359.984 220.25 361.051 219.817 361.768 218.95V220H363.084V208H361.601ZM361.051 217.967C360.568 218.583 359.801 218.883 358.968 218.883C358.151 218.883 357.334 218.567 356.851 217.883C356.401 217.267 356.234 216.383 356.234 215.483C356.234 214.583 356.418 213.717 356.868 213.1C357.351 212.417 358.134 212.1 359.001 212.1C359.818 212.1 360.584 212.4 361.051 213.017C361.568 213.65 361.768 214.567 361.768 215.483C361.768 216.417 361.568 217.35 361.051 217.967ZM261.427 236H268.543C268.627 234.55 268.343 233.233 267.527 232.217C266.727 231.233 265.527 230.75 264.227 230.75C262.927 230.75 261.727 231.233 260.927 232.217C260.193 233.133 259.893 234.333 259.893 235.55C259.893 236.683 260.193 237.833 260.927 238.767C261.71 239.733 262.993 240.25 264.293 240.25C266.01 240.25 267.393 239.483 268.21 238.067L267.093 237.333C266.41 238.417 265.477 238.917 264.227 238.917C263.377 238.917 262.543 238.583 262.06 237.917C261.66 237.383 261.477 236.717 261.427 236ZM264.227 232.067C265.093 232.067 265.91 232.4 266.393 233.067C266.71 233.483 266.91 234.033 266.993 234.65H261.46C261.543 234.067 261.727 233.5 262.06 233.067C262.543 232.4 263.377 232.067 264.227 232.067ZM274.51 230.75C273.81 230.767 273.093 230.983 272.527 231.433C272.177 231.7 271.927 231.983 271.727 232.317V231H270.393V240H271.893V235.583C271.893 234.433 271.943 233.517 272.693 232.817C273.093 232.417 273.693 232.167 274.393 232.15C274.91 232.117 275.393 232.2 275.793 232.35V230.95C275.377 230.8 274.943 230.733 274.51 230.75ZM281.494 230.75C280.794 230.767 280.078 230.983 279.511 231.433C279.161 231.7 278.911 231.983 278.711 232.317V231H277.378V240H278.878V235.583C278.878 234.433 278.928 233.517 279.678 232.817C280.078 232.417 280.678 232.167 281.378 232.15C281.894 232.117 282.378 232.2 282.778 232.35V230.95C282.361 230.8 281.928 230.733 281.494 230.75ZM287.867 240.25C289.184 240.25 290.367 239.767 291.167 238.767C291.934 237.817 292.217 236.7 292.217 235.483C292.217 234.317 291.951 233.167 291.167 232.217C290.384 231.233 289.167 230.75 287.867 230.75C286.567 230.75 285.334 231.267 284.567 232.217C283.834 233.133 283.534 234.3 283.534 235.483C283.534 236.683 283.817 237.817 284.567 238.767C285.367 239.75 286.567 240.25 287.867 240.25ZM289.984 237.867C289.517 238.5 288.717 238.833 287.867 238.833C287.034 238.833 286.234 238.5 285.767 237.867C285.267 237.217 285.117 236.35 285.117 235.483C285.117 234.633 285.267 233.75 285.767 233.117C286.234 232.467 287.034 232.15 287.867 232.15C288.717 232.15 289.517 232.467 289.984 233.117C290.484 233.75 290.634 234.633 290.634 235.483C290.634 236.35 290.484 237.217 289.984 237.867ZM298.166 230.75C297.466 230.767 296.749 230.983 296.183 231.433C295.833 231.7 295.583 231.983 295.383 232.317V231H294.049V240H295.549V235.583C295.549 234.433 295.599 233.517 296.349 232.817C296.749 232.417 297.349 232.167 298.049 232.15C298.566 232.117 299.049 232.2 299.449 232.35V230.95C299.033 230.8 298.599 230.733 298.166 230.75ZM312.322 233C312.189 232.717 312.022 232.467 311.839 232.217C311.039 231.233 309.839 230.75 308.539 230.75C307.256 230.75 306.056 231.2 305.239 232.217C304.489 233.167 304.222 234.317 304.206 235.5C304.222 236.667 304.489 237.833 305.239 238.767C306.039 239.75 307.239 240.267 308.539 240.25C309.822 240.267 311.039 239.75 311.839 238.767C312.022 238.533 312.172 238.283 312.322 238.017L310.906 237.417C310.839 237.567 310.756 237.717 310.639 237.867C310.172 238.5 309.372 238.833 308.539 238.833C307.706 238.833 306.906 238.5 306.439 237.867C305.939 237.217 305.789 236.35 305.772 235.5C305.789 234.633 305.939 233.767 306.439 233.133C306.906 232.483 307.706 232.15 308.539 232.15C309.372 232.15 310.172 232.483 310.639 233.133C310.756 233.267 310.856 233.433 310.922 233.6L312.322 233ZM317.648 240.25C318.965 240.25 320.148 239.767 320.948 238.767C321.715 237.817 321.998 236.7 321.998 235.483C321.998 234.317 321.732 233.167 320.948 232.217C320.165 231.233 318.948 230.75 317.648 230.75C316.348 230.75 315.115 231.267 314.348 232.217C313.615 233.133 313.315 234.3 313.315 235.483C313.315 236.683 313.598 237.817 314.348 238.767C315.148 239.75 316.348 240.25 317.648 240.25ZM319.765 237.867C319.298 238.5 318.498 238.833 317.648 238.833C316.815 238.833 316.015 238.5 315.548 237.867C315.048 237.217 314.898 236.35 314.898 235.483C314.898 234.633 315.048 233.75 315.548 233.117C316.015 232.467 316.815 232.15 317.648 232.15C318.498 232.15 319.298 232.467 319.765 233.117C320.265 233.75 320.415 234.633 320.415 235.483C320.415 236.35 320.265 237.217 319.765 237.867ZM327.947 230.75C327.247 230.767 326.531 230.983 325.964 231.433C325.614 231.7 325.364 231.983 325.164 232.317V231H323.831V240H325.331V235.583C325.331 234.433 325.381 233.517 326.131 232.817C326.531 232.417 327.131 232.167 327.831 232.15C328.347 232.117 328.831 232.2 329.231 232.35V230.95C328.814 230.8 328.381 230.733 327.947 230.75ZM334.932 230.75C334.232 230.767 333.515 230.983 332.948 231.433C332.598 231.7 332.348 231.983 332.148 232.317V231H330.815V240H332.315V235.583C332.315 234.433 332.365 233.517 333.115 232.817C333.515 232.417 334.115 232.167 334.815 232.15C335.332 232.117 335.815 232.2 336.215 232.35V230.95C335.798 230.8 335.365 230.733 334.932 230.75ZM338.505 236H345.621C345.705 234.55 345.421 233.233 344.605 232.217C343.805 231.233 342.605 230.75 341.305 230.75C340.005 230.75 338.805 231.233 338.005 232.217C337.271 233.133 336.971 234.333 336.971 235.55C336.971 236.683 337.271 237.833 338.005 238.767C338.788 239.733 340.071 240.25 341.371 240.25C343.088 240.25 344.471 239.483 345.288 238.067L344.171 237.333C343.488 238.417 342.555 238.917 341.305 238.917C340.455 238.917 339.621 238.583 339.138 237.917C338.738 237.383 338.555 236.717 338.505 236ZM341.305 232.067C342.171 232.067 342.988 232.4 343.471 233.067C343.788 233.483 343.988 234.033 344.071 234.65H338.538C338.621 234.067 338.805 233.5 339.138 233.067C339.621 232.4 340.455 232.067 341.305 232.067ZM355.088 233C354.955 232.717 354.788 232.467 354.605 232.217C353.805 231.233 352.605 230.75 351.305 230.75C350.021 230.75 348.821 231.2 348.005 232.217C347.255 233.167 346.988 234.317 346.971 235.5C346.988 236.667 347.255 237.833 348.005 238.767C348.805 239.75 350.005 240.267 351.305 240.25C352.588 240.267 353.805 239.75 354.605 238.767C354.788 238.533 354.938 238.283 355.088 238.017L353.671 237.417C353.605 237.567 353.521 237.717 353.405 237.867C352.938 238.5 352.138 238.833 351.305 238.833C350.471 238.833 349.671 238.5 349.205 237.867C348.705 237.217 348.555 236.35 348.538 235.5C348.555 234.633 348.705 233.767 349.205 233.133C349.671 232.483 350.471 232.15 351.305 232.15C352.138 232.15 352.938 232.483 353.405 233.133C353.521 233.267 353.621 233.433 353.688 233.6L355.088 233ZM359.147 232.217H361.864V231H359.147V228.5H357.664V231H355.831V232.217H357.664V236.6C357.664 237.483 357.681 238.2 357.997 238.85C358.331 239.517 358.947 239.9 359.747 240.067C360.347 240.2 361.231 240.167 361.864 240V238.683C361.397 238.767 360.847 238.783 360.381 238.75C359.947 238.7 359.531 238.467 359.347 238.083C359.131 237.717 359.147 237.25 359.147 236.517V232.217ZM363.857 227.95V229.483H365.34V227.95H363.857ZM363.857 231V240H365.34V231H363.857ZM371.68 240.25C372.996 240.25 374.18 239.767 374.98 238.767C375.746 237.817 376.03 236.7 376.03 235.483C376.03 234.317 375.763 233.167 374.98 232.217C374.196 231.233 372.98 230.75 371.68 230.75C370.38 230.75 369.146 231.267 368.38 232.217C367.646 233.133 367.346 234.3 367.346 235.483C367.346 236.683 367.63 237.817 368.38 238.767C369.18 239.75 370.38 240.25 371.68 240.25ZM373.796 237.867C373.33 238.5 372.53 238.833 371.68 238.833C370.846 238.833 370.046 238.5 369.58 237.867C369.08 237.217 368.93 236.35 368.93 235.483C368.93 234.633 369.08 233.75 369.58 233.117C370.046 232.467 370.846 232.15 371.68 232.15C372.53 232.15 373.33 232.467 373.796 233.117C374.296 233.75 374.446 234.633 374.446 235.483C374.446 236.35 374.296 237.217 373.796 237.867ZM384.495 231.55C383.712 230.883 382.745 230.717 381.829 230.783C381.012 230.817 380.145 231.117 379.562 231.75C379.429 231.9 379.295 232.033 379.195 232.183V231H377.879V240H379.362V236.067V236.05C379.362 235.367 379.362 234.683 379.479 234.15C379.579 233.567 379.845 233.05 380.262 232.7C380.645 232.367 381.145 232.2 381.679 232.167C382.329 232.15 382.912 232.317 383.345 232.667C384.145 233.3 384.279 234.4 384.279 235.683V240H385.779V235.633C385.795 234.083 385.662 232.5 384.495 231.55Z" fill="#110529"/>
<path d="M612.89 216.017C612.757 216.517 612.523 217 612.223 217.417C611.523 218.367 610.34 218.85 609.14 218.833C607.94 218.833 606.757 218.367 606.057 217.417C605.34 216.467 605.123 215.217 605.107 214C605.123 212.767 605.34 211.517 606.057 210.583C606.757 209.633 607.94 209.15 609.14 209.167C610.34 209.167 611.523 209.633 612.223 210.583C612.573 211.033 612.79 211.567 612.94 212.117L614.473 211.867C614.273 211.1 613.94 210.35 613.407 209.667C612.407 208.383 610.823 207.75 609.14 207.75C607.44 207.75 605.873 208.367 604.873 209.667C603.89 210.9 603.54 212.417 603.523 214C603.507 215.533 603.89 217.083 604.873 218.317C605.873 219.583 607.423 220.25 609.14 220.25C610.807 220.25 612.373 219.633 613.407 218.317C613.857 217.75 614.173 217.1 614.373 216.45L612.89 216.017ZM625.827 214.033C625.827 215.65 625.343 217.317 624.327 218.417C623.343 219.5 621.91 219.983 620.427 219.983H616.393V207.983L620.46 208C622.01 208 623.377 208.517 624.327 209.583C625.41 210.75 625.827 212.367 625.827 214.033ZM624.26 214.033C624.277 212.733 623.977 211.45 623.21 210.567C622.493 209.75 621.543 209.433 620.443 209.417L617.927 209.433V218.55L620.427 218.583C621.527 218.567 622.527 218.2 623.227 217.417C623.977 216.55 624.243 215.25 624.26 214.033ZM636.837 220L634.487 215.183C635.004 214.95 635.454 214.6 635.787 214.167C636.337 213.5 636.67 212.65 636.67 211.783C636.654 210.883 636.304 209.967 635.704 209.3C635.287 208.8 634.72 208.417 634.104 208.217C633.704 208.067 633.287 208 632.854 208H627.737V220H629.22V215.55H632.854H632.987L635.137 220H636.837ZM629.22 209.417H632.854C633.437 209.417 634.07 209.717 634.487 210.15C634.904 210.583 635.12 211.167 635.137 211.783C635.154 212.317 634.954 212.85 634.62 213.267C634.17 213.817 633.487 214.15 632.854 214.15H629.22V209.417ZM645.253 213.617C644.619 212.967 643.769 212.6 642.803 212.533L646.053 209.467V208H638.986V209.417H644.036L640.319 212.933L641.036 214.117C641.403 213.917 641.869 213.8 642.269 213.8C642.886 213.8 643.469 213.983 643.919 214.383C644.453 214.867 644.686 215.583 644.686 216.3C644.686 217.05 644.453 217.783 643.853 218.267C643.436 218.617 642.869 218.8 642.286 218.817C641.719 218.817 641.153 218.633 640.719 218.283C640.336 218 640.086 217.583 639.936 217.117L638.503 217.533C638.719 218.233 639.153 218.9 639.736 219.367C640.469 219.95 641.386 220.25 642.303 220.233C643.203 220.217 644.136 219.95 644.853 219.35C645.736 218.633 646.186 217.5 646.219 216.3C646.236 215.317 645.919 214.317 645.253 213.617ZM593.486 233C593.353 232.717 593.186 232.467 593.003 232.217C592.203 231.233 591.003 230.75 589.703 230.75C588.42 230.75 587.22 231.2 586.403 232.217C585.653 233.167 585.386 234.317 585.37 235.5C585.386 236.667 585.653 237.833 586.403 238.767C587.203 239.75 588.403 240.267 589.703 240.25C590.986 240.267 592.203 239.75 593.003 238.767C593.186 238.533 593.336 238.283 593.486 238.017L592.07 237.417C592.003 237.567 591.92 237.717 591.803 237.867C591.336 238.5 590.536 238.833 589.703 238.833C588.87 238.833 588.07 238.5 587.603 237.867C587.103 237.217 586.953 236.35 586.936 235.5C586.953 234.633 587.103 233.767 587.603 233.133C588.07 232.483 588.87 232.15 589.703 232.15C590.536 232.15 591.336 232.483 591.803 233.133C591.92 233.267 592.02 233.433 592.086 233.6L593.486 233ZM595.229 240V227.75H596.713V240H595.229ZM605.292 231V235.6C605.292 236.05 605.275 236.5 605.192 236.85C605.075 237.433 604.808 237.95 604.408 238.283C604.025 238.617 603.525 238.8 602.975 238.817C602.325 238.85 601.758 238.683 601.325 238.333C600.525 237.7 600.375 236.583 600.375 235.317V231H598.875V235.367C598.858 236.917 598.992 238.5 600.175 239.45C600.958 240.117 601.908 240.283 602.842 240.217C603.642 240.183 604.508 239.883 605.108 239.25C605.242 239.117 605.358 238.967 605.458 238.833V240H606.792V231H605.292ZM616.253 233.35C615.986 232.483 615.236 231.617 614.386 231.183C613.786 230.883 613.103 230.75 612.486 230.75C611.853 230.733 611.203 230.8 610.553 231.083C609.703 231.467 609.036 232.283 609.036 233.267C609.036 233.733 609.203 234.367 609.62 234.767C610.07 235.217 610.67 235.45 611.22 235.65C611.72 235.8 612.12 235.917 613.186 236.217C613.77 236.383 614.103 236.517 614.403 236.7C614.753 236.917 614.903 237.25 614.903 237.55C614.903 237.95 614.703 238.283 614.37 238.517C613.97 238.783 613.236 238.917 612.686 238.917C611.936 238.917 611.136 238.717 610.62 238.133C610.303 237.783 610.103 237.183 610.036 236.7L608.62 237.05C608.87 237.9 608.986 238.417 609.57 239.067C610.37 239.933 611.436 240.25 612.67 240.25C613.553 240.25 614.386 240.117 615.12 239.633C615.836 239.2 616.286 238.367 616.286 237.567C616.286 236.817 615.953 236.167 615.32 235.667C614.82 235.267 614.203 235.017 613.586 234.85C612.82 234.65 612.27 234.5 611.786 234.35C611.303 234.217 611.036 234.1 610.82 233.95C610.52 233.75 610.436 233.517 610.436 233.217C610.436 232.817 610.77 232.467 611.136 232.3C611.486 232.15 611.953 232.05 612.403 232.067C612.87 232.083 613.386 232.2 613.753 232.4C614.27 232.683 614.636 233.15 614.836 233.7L616.253 233.35ZM620.452 232.217H623.169V231H620.452V228.5H618.969V231H617.135V232.217H618.969V236.6C618.969 237.483 618.985 238.2 619.302 238.85C619.635 239.517 620.252 239.9 621.052 240.067C621.652 240.2 622.535 240.167 623.169 240V238.683C622.702 238.767 622.152 238.783 621.685 238.75C621.252 238.7 620.835 238.467 620.652 238.083C620.435 237.717 620.452 237.25 620.452 236.517V232.217ZM626.028 236H633.145C633.228 234.55 632.945 233.233 632.128 232.217C631.328 231.233 630.128 230.75 628.828 230.75C627.528 230.75 626.328 231.233 625.528 232.217C624.795 233.133 624.495 234.333 624.495 235.55C624.495 236.683 624.795 237.833 625.528 238.767C626.311 239.733 627.595 240.25 628.895 240.25C630.611 240.25 631.995 239.483 632.811 238.067L631.695 237.333C631.011 238.417 630.078 238.917 628.828 238.917C627.978 238.917 627.145 238.583 626.661 237.917C626.261 237.383 626.078 236.717 626.028 236ZM628.828 232.067C629.695 232.067 630.511 232.4 630.995 233.067C631.311 233.483 631.511 234.033 631.595 234.65H626.061C626.145 234.067 626.328 233.5 626.661 233.067C627.145 232.4 627.978 232.067 628.828 232.067ZM639.111 230.75C638.411 230.767 637.695 230.983 637.128 231.433C636.778 231.7 636.528 231.983 636.328 232.317V231H634.995V240H636.495V235.583C636.495 234.433 636.545 233.517 637.295 232.817C637.695 232.417 638.295 232.167 638.995 232.15C639.511 232.117 639.995 232.2 640.395 232.35V230.95C639.978 230.8 639.545 230.733 639.111 230.75ZM642.146 227.95V229.483H643.629V227.95H642.146ZM642.146 231V240H643.629V231H642.146ZM652.769 231.55C651.985 230.883 651.019 230.717 650.102 230.783C649.285 230.817 648.419 231.117 647.835 231.75C647.702 231.9 647.569 232.033 647.469 232.183V231H646.152V240H647.635V236.067V236.05C647.635 235.367 647.635 234.683 647.752 234.15C647.852 233.567 648.119 233.05 648.535 232.7C648.919 232.367 649.419 232.2 649.952 232.167C650.602 232.15 651.185 232.317 651.619 232.667C652.419 233.3 652.552 234.4 652.552 235.683V240H654.052V235.633C654.069 234.083 653.935 232.5 652.769 231.55ZM662.814 231V232.017C662.08 231.2 660.98 230.75 659.83 230.75C658.597 230.75 657.447 231.25 656.714 232.183C655.997 233.1 655.714 234.3 655.714 235.483C655.714 236.667 655.964 237.85 656.714 238.8C657.464 239.733 658.614 240.25 659.83 240.25C660.947 240.25 661.947 239.883 662.647 239.15V240.05C662.647 241.15 662.514 241.7 661.897 242.217C661.397 242.633 660.664 242.817 659.947 242.817C659.297 242.817 658.564 242.583 658.13 242.083C657.98 241.933 657.847 241.783 657.747 241.617L656.38 242.283C656.614 242.7 657.014 243.067 657.397 243.3C658.047 243.917 659.014 244.25 659.947 244.25C660.847 244.25 661.83 244.083 662.714 243.45C663.764 242.717 664.13 241.767 664.13 240.067V231H662.814ZM662.114 237.967C661.614 238.583 660.847 238.883 660.014 238.883C659.197 238.883 658.397 238.567 657.914 237.883C657.447 237.267 657.297 236.383 657.297 235.483C657.297 234.583 657.464 233.717 657.93 233.1C658.414 232.417 659.18 232.1 660.064 232.1C660.88 232.1 661.63 232.4 662.114 233.017C662.614 233.65 662.814 234.567 662.814 235.483C662.814 236.417 662.614 237.35 662.114 237.967Z" fill="#110529"/>
<path d="M640 180L640.707 180.707L641.414 180L640.707 179.293L640 180ZM632.707 171.293L632 170.586L630.586 172L631.293 172.707L632.707 171.293ZM631.293 187.293L630.586 188L632 189.414L632.707 188.707L631.293 187.293ZM609 181H640V179H609V181ZM640.707 179.293L632.707 171.293L631.293 172.707L639.293 180.707L640.707 179.293ZM639.293 179.293L631.293 187.293L632.707 188.707L640.707 180.707L639.293 179.293Z" fill="#110529"/>
<circle cx="765" cy="124" r="79" stroke="#C1ADFF" stroke-width="10"/>
<path d="M743.903 130.24C742.756 130.24 741.783 129.987 740.983 129.48C740.183 128.973 739.572 128.269 739.151 127.368C738.735 126.467 738.527 125.424 738.527 124.24C738.527 123.056 738.735 122.013 739.151 121.112C739.572 120.211 740.183 119.507 740.983 119C741.783 118.493 742.756 118.24 743.903 118.24C745.236 118.24 746.332 118.579 747.191 119.256C748.055 119.933 748.65 120.845 748.975 121.992L747.527 122.376C747.292 121.517 746.874 120.84 746.271 120.344C745.668 119.848 744.879 119.6 743.903 119.6C743.044 119.6 742.33 119.795 741.759 120.184C741.188 120.573 740.759 121.117 740.471 121.816C740.183 122.509 740.036 123.317 740.031 124.24C740.026 125.157 740.167 125.965 740.455 126.664C740.743 127.357 741.175 127.901 741.751 128.296C742.327 128.685 743.044 128.88 743.903 128.88C744.879 128.88 745.668 128.632 746.271 128.136C746.874 127.635 747.292 126.957 747.527 126.104L748.975 126.488C748.65 127.629 748.055 128.541 747.191 129.224C746.332 129.901 745.236 130.24 743.903 130.24ZM750.889 130V118.24H752.313V130H750.889ZM758.394 130.24C757.535 130.24 756.794 130.045 756.17 129.656C755.551 129.267 755.074 128.728 754.738 128.04C754.402 127.352 754.234 126.563 754.234 125.672C754.234 124.765 754.404 123.971 754.746 123.288C755.087 122.605 755.57 122.075 756.194 121.696C756.818 121.312 757.551 121.12 758.394 121.12C759.258 121.12 760.002 121.315 760.626 121.704C761.25 122.088 761.727 122.624 762.058 123.312C762.394 123.995 762.562 124.781 762.562 125.672C762.562 126.573 762.394 127.368 762.058 128.056C761.722 128.739 761.242 129.275 760.618 129.664C759.994 130.048 759.252 130.24 758.394 130.24ZM758.394 128.888C759.29 128.888 759.956 128.589 760.394 127.992C760.831 127.395 761.05 126.621 761.05 125.672C761.05 124.696 760.828 123.92 760.386 123.344C759.943 122.763 759.279 122.472 758.394 122.472C757.791 122.472 757.295 122.608 756.906 122.88C756.516 123.152 756.226 123.528 756.034 124.008C755.842 124.488 755.746 125.043 755.746 125.672C755.746 126.643 755.97 127.421 756.418 128.008C756.866 128.595 757.524 128.888 758.394 128.888ZM770.475 130V125.672C770.475 125.261 770.438 124.867 770.363 124.488C770.294 124.109 770.168 123.771 769.987 123.472C769.811 123.168 769.571 122.928 769.267 122.752C768.968 122.576 768.59 122.488 768.131 122.488C767.774 122.488 767.448 122.549 767.155 122.672C766.867 122.789 766.619 122.971 766.411 123.216C766.203 123.461 766.04 123.771 765.923 124.144C765.811 124.512 765.755 124.947 765.755 125.448L764.819 125.16C764.819 124.323 764.968 123.605 765.267 123.008C765.571 122.405 765.995 121.944 766.539 121.624C767.088 121.299 767.734 121.136 768.475 121.136C769.035 121.136 769.512 121.224 769.907 121.4C770.302 121.576 770.63 121.811 770.891 122.104C771.152 122.392 771.358 122.717 771.507 123.08C771.656 123.437 771.76 123.803 771.819 124.176C771.883 124.544 771.915 124.893 771.915 125.224V130H770.475ZM764.315 130V121.36H765.595V123.672H765.755V130H764.315ZM777.661 130.24C776.813 130.24 776.072 130.053 775.437 129.68C774.808 129.301 774.317 128.776 773.965 128.104C773.613 127.427 773.437 126.637 773.437 125.736C773.437 124.792 773.61 123.976 773.957 123.288C774.304 122.595 774.786 122.061 775.405 121.688C776.029 121.309 776.76 121.12 777.597 121.12C778.466 121.12 779.205 121.32 779.813 121.72C780.426 122.12 780.885 122.691 781.189 123.432C781.498 124.173 781.632 125.056 781.589 126.08H780.149V125.568C780.133 124.507 779.917 123.715 779.501 123.192C779.085 122.664 778.466 122.4 777.645 122.4C776.765 122.4 776.096 122.683 775.637 123.248C775.178 123.813 774.949 124.624 774.949 125.68C774.949 126.699 775.178 127.488 775.637 128.048C776.096 128.608 776.749 128.888 777.597 128.888C778.168 128.888 778.664 128.757 779.085 128.496C779.506 128.235 779.837 127.859 780.077 127.368L781.445 127.84C781.109 128.603 780.602 129.195 779.925 129.616C779.253 130.032 778.498 130.24 777.661 130.24ZM774.469 126.08V124.936H780.853V126.08H774.469ZM788.581 130V120.056L786.413 121.368V119.776L788.581 118.48H790.029V130H788.581Z" fill="#110529"/>
<path d="M743.028 282.24C741.881 282.24 740.908 281.987 740.108 281.48C739.308 280.973 738.697 280.269 738.276 279.368C737.86 278.467 737.652 277.424 737.652 276.24C737.652 275.056 737.86 274.013 738.276 273.112C738.697 272.211 739.308 271.507 740.108 271C740.908 270.493 741.881 270.24 743.028 270.24C744.361 270.24 745.457 270.579 746.316 271.256C747.18 271.933 747.775 272.845 748.1 273.992L746.652 274.376C746.417 273.517 745.999 272.84 745.396 272.344C744.793 271.848 744.004 271.6 743.028 271.6C742.169 271.6 741.455 271.795 740.884 272.184C740.313 272.573 739.884 273.117 739.596 273.816C739.308 274.509 739.161 275.317 739.156 276.24C739.151 277.157 739.292 277.965 739.58 278.664C739.868 279.357 740.3 279.901 740.876 280.296C741.452 280.685 742.169 280.88 743.028 280.88C744.004 280.88 744.793 280.632 745.396 280.136C745.999 279.635 746.417 278.957 746.652 278.104L748.1 278.488C747.775 279.629 747.18 280.541 746.316 281.224C745.457 281.901 744.361 282.24 743.028 282.24ZM750.014 282V270.24H751.438V282H750.014ZM757.519 282.24C756.66 282.24 755.919 282.045 755.295 281.656C754.676 281.267 754.199 280.728 753.863 280.04C753.527 279.352 753.359 278.563 753.359 277.672C753.359 276.765 753.529 275.971 753.871 275.288C754.212 274.605 754.695 274.075 755.319 273.696C755.943 273.312 756.676 273.12 757.519 273.12C758.383 273.12 759.127 273.315 759.751 273.704C760.375 274.088 760.852 274.624 761.183 275.312C761.519 275.995 761.687 276.781 761.687 277.672C761.687 278.573 761.519 279.368 761.183 280.056C760.847 280.739 760.367 281.275 759.743 281.664C759.119 282.048 758.377 282.24 757.519 282.24ZM757.519 280.888C758.415 280.888 759.081 280.589 759.519 279.992C759.956 279.395 760.175 278.621 760.175 277.672C760.175 276.696 759.953 275.92 759.511 275.344C759.068 274.763 758.404 274.472 757.519 274.472C756.916 274.472 756.42 274.608 756.031 274.88C755.641 275.152 755.351 275.528 755.159 276.008C754.967 276.488 754.871 277.043 754.871 277.672C754.871 278.643 755.095 279.421 755.543 280.008C755.991 280.595 756.649 280.888 757.519 280.888ZM769.6 282V277.672C769.6 277.261 769.563 276.867 769.488 276.488C769.419 276.109 769.293 275.771 769.112 275.472C768.936 275.168 768.696 274.928 768.392 274.752C768.093 274.576 767.715 274.488 767.256 274.488C766.899 274.488 766.573 274.549 766.28 274.672C765.992 274.789 765.744 274.971 765.536 275.216C765.328 275.461 765.165 275.771 765.048 276.144C764.936 276.512 764.88 276.947 764.88 277.448L763.944 277.16C763.944 276.323 764.093 275.605 764.392 275.008C764.696 274.405 765.12 273.944 765.664 273.624C766.213 273.299 766.859 273.136 767.6 273.136C768.16 273.136 768.637 273.224 769.032 273.4C769.427 273.576 769.755 273.811 770.016 274.104C770.277 274.392 770.483 274.717 770.632 275.08C770.781 275.437 770.885 275.803 770.944 276.176C771.008 276.544 771.04 276.893 771.04 277.224V282H769.6ZM763.44 282V273.36H764.72V275.672H764.88V282H763.44ZM776.786 282.24C775.938 282.24 775.197 282.053 774.562 281.68C773.933 281.301 773.442 280.776 773.09 280.104C772.738 279.427 772.562 278.637 772.562 277.736C772.562 276.792 772.735 275.976 773.082 275.288C773.429 274.595 773.911 274.061 774.53 273.688C775.154 273.309 775.885 273.12 776.722 273.12C777.591 273.12 778.33 273.32 778.938 273.72C779.551 274.12 780.01 274.691 780.314 275.432C780.623 276.173 780.757 277.056 780.714 278.08H779.274V277.568C779.258 276.507 779.042 275.715 778.626 275.192C778.21 274.664 777.591 274.4 776.77 274.4C775.89 274.4 775.221 274.683 774.762 275.248C774.303 275.813 774.074 276.624 774.074 277.68C774.074 278.699 774.303 279.488 774.762 280.048C775.221 280.608 775.874 280.888 776.722 280.888C777.293 280.888 777.789 280.757 778.21 280.496C778.631 280.235 778.962 279.859 779.202 279.368L780.57 279.84C780.234 280.603 779.727 281.195 779.05 281.616C778.378 282.032 777.623 282.24 776.786 282.24ZM773.594 278.08V276.936H779.978V278.08H773.594ZM785.378 281.992L785.386 280.712L790.498 276.112C790.925 275.728 791.21 275.365 791.354 275.024C791.503 274.677 791.578 274.323 791.578 273.96C791.578 273.517 791.477 273.117 791.274 272.76C791.071 272.403 790.794 272.12 790.442 271.912C790.095 271.704 789.701 271.6 789.258 271.6C788.799 271.6 788.391 271.709 788.034 271.928C787.677 272.141 787.394 272.427 787.186 272.784C786.983 273.141 786.885 273.531 786.89 273.952H785.434C785.434 273.227 785.602 272.587 785.938 272.032C786.274 271.472 786.73 271.035 787.306 270.72C787.887 270.4 788.546 270.24 789.282 270.24C789.997 270.24 790.637 270.405 791.202 270.736C791.767 271.061 792.213 271.507 792.538 272.072C792.869 272.632 793.034 273.267 793.034 273.976C793.034 274.477 792.97 274.912 792.842 275.28C792.719 275.648 792.527 275.989 792.266 276.304C792.005 276.613 791.677 276.944 791.282 277.296L787.034 281.112L786.85 280.632H793.034V281.992H785.378Z" fill="#110529"/>
<circle cx="765" cy="276" r="51" stroke="#FFCB8F" stroke-width="10"/>
<circle cx="843" cy="219" r="23" stroke="#99E099" stroke-width="10"/>
<circle cx="447" cy="140" r="63" stroke="#C1ADFF" stroke-width="10"/>
<path d="M425.903 146.24C424.756 146.24 423.783 145.987 422.983 145.48C422.183 144.973 421.572 144.269 421.151 143.368C420.735 142.467 420.527 141.424 420.527 140.24C420.527 139.056 420.735 138.013 421.151 137.112C421.572 136.211 422.183 135.507 422.983 135C423.783 134.493 424.756 134.24 425.903 134.24C427.236 134.24 428.332 134.579 429.191 135.256C430.055 135.933 430.65 136.845 430.975 137.992L429.527 138.376C429.292 137.517 428.874 136.84 428.271 136.344C427.668 135.848 426.879 135.6 425.903 135.6C425.044 135.6 424.33 135.795 423.759 136.184C423.188 136.573 422.759 137.117 422.471 137.816C422.183 138.509 422.036 139.317 422.031 140.24C422.026 141.157 422.167 141.965 422.455 142.664C422.743 143.357 423.175 143.901 423.751 144.296C424.327 144.685 425.044 144.88 425.903 144.88C426.879 144.88 427.668 144.632 428.271 144.136C428.874 143.635 429.292 142.957 429.527 142.104L430.975 142.488C430.65 143.629 430.055 144.541 429.191 145.224C428.332 145.901 427.236 146.24 425.903 146.24ZM432.889 146V134.24H434.313V146H432.889ZM440.394 146.24C439.535 146.24 438.794 146.045 438.17 145.656C437.551 145.267 437.074 144.728 436.738 144.04C436.402 143.352 436.234 142.563 436.234 141.672C436.234 140.765 436.404 139.971 436.746 139.288C437.087 138.605 437.57 138.075 438.194 137.696C438.818 137.312 439.551 137.12 440.394 137.12C441.258 137.12 442.002 137.315 442.626 137.704C443.25 138.088 443.727 138.624 444.058 139.312C444.394 139.995 444.562 140.781 444.562 141.672C444.562 142.573 444.394 143.368 444.058 144.056C443.722 144.739 443.242 145.275 442.618 145.664C441.994 146.048 441.252 146.24 440.394 146.24ZM440.394 144.888C441.29 144.888 441.956 144.589 442.394 143.992C442.831 143.395 443.05 142.621 443.05 141.672C443.05 140.696 442.828 139.92 442.386 139.344C441.943 138.763 441.279 138.472 440.394 138.472C439.791 138.472 439.295 138.608 438.906 138.88C438.516 139.152 438.226 139.528 438.034 140.008C437.842 140.488 437.746 141.043 437.746 141.672C437.746 142.643 437.97 143.421 438.418 144.008C438.866 144.595 439.524 144.888 440.394 144.888ZM452.475 146V141.672C452.475 141.261 452.438 140.867 452.363 140.488C452.294 140.109 452.168 139.771 451.987 139.472C451.811 139.168 451.571 138.928 451.267 138.752C450.968 138.576 450.59 138.488 450.131 138.488C449.774 138.488 449.448 138.549 449.155 138.672C448.867 138.789 448.619 138.971 448.411 139.216C448.203 139.461 448.04 139.771 447.923 140.144C447.811 140.512 447.755 140.947 447.755 141.448L446.819 141.16C446.819 140.323 446.968 139.605 447.267 139.008C447.571 138.405 447.995 137.944 448.539 137.624C449.088 137.299 449.734 137.136 450.475 137.136C451.035 137.136 451.512 137.224 451.907 137.4C452.302 137.576 452.63 137.811 452.891 138.104C453.152 138.392 453.358 138.717 453.507 139.08C453.656 139.437 453.76 139.803 453.819 140.176C453.883 140.544 453.915 140.893 453.915 141.224V146H452.475ZM446.315 146V137.36H447.595V139.672H447.755V146H446.315ZM459.661 146.24C458.813 146.24 458.072 146.053 457.437 145.68C456.808 145.301 456.317 144.776 455.965 144.104C455.613 143.427 455.437 142.637 455.437 141.736C455.437 140.792 455.61 139.976 455.957 139.288C456.304 138.595 456.786 138.061 457.405 137.688C458.029 137.309 458.76 137.12 459.597 137.12C460.466 137.12 461.205 137.32 461.813 137.72C462.426 138.12 462.885 138.691 463.189 139.432C463.498 140.173 463.632 141.056 463.589 142.08H462.149V141.568C462.133 140.507 461.917 139.715 461.501 139.192C461.085 138.664 460.466 138.4 459.645 138.4C458.765 138.4 458.096 138.683 457.637 139.248C457.178 139.813 456.949 140.624 456.949 141.68C456.949 142.699 457.178 143.488 457.637 144.048C458.096 144.608 458.749 144.888 459.597 144.888C460.168 144.888 460.664 144.757 461.085 144.496C461.506 144.235 461.837 143.859 462.077 143.368L463.445 143.84C463.109 144.603 462.602 145.195 461.925 145.616C461.253 146.032 460.498 146.24 459.661 146.24ZM456.469 142.08V140.936H462.853V142.08H456.469ZM470.581 146V136.056L468.413 137.368V135.776L470.581 134.48H472.029V146H470.581Z" fill="#110529"/>
<circle cx="537" cy="200" r="23" stroke="#C1ADFF" stroke-width="10"/>
<rect x="534" y="216" width="6" height="14" fill="#F05670" stroke="white" stroke-width="2"/>
<path d="M451.028 282.24C449.881 282.24 448.908 281.987 448.108 281.48C447.308 280.973 446.697 280.269 446.276 279.368C445.86 278.467 445.652 277.424 445.652 276.24C445.652 275.056 445.86 274.013 446.276 273.112C446.697 272.211 447.308 271.507 448.108 271C448.908 270.493 449.881 270.24 451.028 270.24C452.361 270.24 453.457 270.579 454.316 271.256C455.18 271.933 455.775 272.845 456.1 273.992L454.652 274.376C454.417 273.517 453.999 272.84 453.396 272.344C452.793 271.848 452.004 271.6 451.028 271.6C450.169 271.6 449.455 271.795 448.884 272.184C448.313 272.573 447.884 273.117 447.596 273.816C447.308 274.509 447.161 275.317 447.156 276.24C447.151 277.157 447.292 277.965 447.58 278.664C447.868 279.357 448.3 279.901 448.876 280.296C449.452 280.685 450.169 280.88 451.028 280.88C452.004 280.88 452.793 280.632 453.396 280.136C453.999 279.635 454.417 278.957 454.652 278.104L456.1 278.488C455.775 279.629 455.18 280.541 454.316 281.224C453.457 281.901 452.361 282.24 451.028 282.24ZM458.014 282V270.24H459.438V282H458.014ZM465.519 282.24C464.66 282.24 463.919 282.045 463.295 281.656C462.676 281.267 462.199 280.728 461.863 280.04C461.527 279.352 461.359 278.563 461.359 277.672C461.359 276.765 461.529 275.971 461.871 275.288C462.212 274.605 462.695 274.075 463.319 273.696C463.943 273.312 464.676 273.12 465.519 273.12C466.383 273.12 467.127 273.315 467.751 273.704C468.375 274.088 468.852 274.624 469.183 275.312C469.519 275.995 469.687 276.781 469.687 277.672C469.687 278.573 469.519 279.368 469.183 280.056C468.847 280.739 468.367 281.275 467.743 281.664C467.119 282.048 466.377 282.24 465.519 282.24ZM465.519 280.888C466.415 280.888 467.081 280.589 467.519 279.992C467.956 279.395 468.175 278.621 468.175 277.672C468.175 276.696 467.953 275.92 467.511 275.344C467.068 274.763 466.404 274.472 465.519 274.472C464.916 274.472 464.42 274.608 464.031 274.88C463.641 275.152 463.351 275.528 463.159 276.008C462.967 276.488 462.871 277.043 462.871 277.672C462.871 278.643 463.095 279.421 463.543 280.008C463.991 280.595 464.649 280.888 465.519 280.888ZM477.6 282V277.672C477.6 277.261 477.563 276.867 477.488 276.488C477.419 276.109 477.293 275.771 477.112 275.472C476.936 275.168 476.696 274.928 476.392 274.752C476.093 274.576 475.715 274.488 475.256 274.488C474.899 274.488 474.573 274.549 474.28 274.672C473.992 274.789 473.744 274.971 473.536 275.216C473.328 275.461 473.165 275.771 473.048 276.144C472.936 276.512 472.88 276.947 472.88 277.448L471.944 277.16C471.944 276.323 472.093 275.605 472.392 275.008C472.696 274.405 473.12 273.944 473.664 273.624C474.213 273.299 474.859 273.136 475.6 273.136C476.16 273.136 476.637 273.224 477.032 273.4C477.427 273.576 477.755 273.811 478.016 274.104C478.277 274.392 478.483 274.717 478.632 275.08C478.781 275.437 478.885 275.803 478.944 276.176C479.008 276.544 479.04 276.893 479.04 277.224V282H477.6ZM471.44 282V273.36H472.72V275.672H472.88V282H471.44ZM484.786 282.24C483.938 282.24 483.197 282.053 482.562 281.68C481.933 281.301 481.442 280.776 481.09 280.104C480.738 279.427 480.562 278.637 480.562 277.736C480.562 276.792 480.735 275.976 481.082 275.288C481.429 274.595 481.911 274.061 482.53 273.688C483.154 273.309 483.885 273.12 484.722 273.12C485.591 273.12 486.33 273.32 486.938 273.72C487.551 274.12 488.01 274.691 488.314 275.432C488.623 276.173 488.757 277.056 488.714 278.08H487.274V277.568C487.258 276.507 487.042 275.715 486.626 275.192C486.21 274.664 485.591 274.4 484.77 274.4C483.89 274.4 483.221 274.683 482.762 275.248C482.303 275.813 482.074 276.624 482.074 277.68C482.074 278.699 482.303 279.488 482.762 280.048C483.221 280.608 483.874 280.888 484.722 280.888C485.293 280.888 485.789 280.757 486.21 280.496C486.631 280.235 486.962 279.859 487.202 279.368L488.57 279.84C488.234 280.603 487.727 281.195 487.05 281.616C486.378 282.032 485.623 282.24 484.786 282.24ZM481.594 278.08V276.936H487.978V278.08H481.594ZM493.378 281.992L493.386 280.712L498.498 276.112C498.925 275.728 499.21 275.365 499.354 275.024C499.503 274.677 499.578 274.323 499.578 273.96C499.578 273.517 499.477 273.117 499.274 272.76C499.071 272.403 498.794 272.12 498.442 271.912C498.095 271.704 497.701 271.6 497.258 271.6C496.799 271.6 496.391 271.709 496.034 271.928C495.677 272.141 495.394 272.427 495.186 272.784C494.983 273.141 494.885 273.531 494.89 273.952H493.434C493.434 273.227 493.602 272.587 493.938 272.032C494.274 271.472 494.73 271.035 495.306 270.72C495.887 270.4 496.546 270.24 497.282 270.24C497.997 270.24 498.637 270.405 499.202 270.736C499.767 271.061 500.213 271.507 500.538 272.072C500.869 272.632 501.034 273.267 501.034 273.976C501.034 274.477 500.97 274.912 500.842 275.28C500.719 275.648 500.527 275.989 500.266 276.304C500.005 276.613 499.677 276.944 499.282 277.296L495.034 281.112L494.85 280.632H501.034V281.992H493.378Z" fill="#110529"/>
<circle cx="473" cy="276" r="51" stroke="#FFCB8F" stroke-width="10"/>
<circle cx="527" cy="68" r="23" stroke="#99E099" stroke-width="10"/>
</svg>
