<svg width="960" height="428" viewBox="0 0 960 428" fill="none" xmlns="http://www.w3.org/2000/svg">
<rect width="960" height="428" fill="white"/>
<path d="M261.208 384.854V383H252.458V398H254.313V391.417H259.958V389.562H254.313V384.854H261.208ZM270.896 386.75V392.5C270.896 393.062 270.875 393.625 270.771 394.062C270.625 394.792 270.292 395.437 269.792 395.854C269.313 396.271 268.688 396.5 268 396.521C267.188 396.562 266.479 396.354 265.938 395.917C264.938 395.125 264.75 393.729 264.75 392.146V386.75H262.875V392.208C262.854 394.146 263.021 396.125 264.5 397.312C265.479 398.146 266.667 398.354 267.833 398.271C268.833 398.229 269.917 397.854 270.667 397.062C270.833 396.896 270.979 396.708 271.104 396.542V398H272.771V386.75H270.896ZM275.681 398V382.687H277.535V398H275.681ZM280.447 398V382.687H282.301V398H280.447ZM289.802 398V382.687H291.656V398H289.802ZM295.859 393H304.755C304.859 391.187 304.505 389.542 303.484 388.271C302.484 387.042 300.984 386.437 299.359 386.437C297.734 386.437 296.234 387.042 295.234 388.271C294.318 389.417 293.943 390.917 293.943 392.437C293.943 393.854 294.318 395.292 295.234 396.458C296.214 397.667 297.818 398.312 299.443 398.312C301.589 398.312 303.318 397.354 304.339 395.583L302.943 394.667C302.089 396.021 300.922 396.646 299.359 396.646C298.297 396.646 297.255 396.229 296.651 395.396C296.151 394.729 295.922 393.896 295.859 393ZM299.359 388.083C300.443 388.083 301.464 388.5 302.068 389.333C302.464 389.854 302.714 390.542 302.818 391.312H295.901C296.005 390.583 296.234 389.875 296.651 389.333C297.255 388.5 298.297 388.083 299.359 388.083ZM315.047 387.437C314.068 386.604 312.859 386.396 311.714 386.479C310.693 386.521 309.609 386.896 308.88 387.688C308.714 387.875 308.547 388.042 308.422 388.229V386.75H306.776V398H308.63V393.083V393.062C308.63 392.208 308.63 391.354 308.776 390.687C308.901 389.958 309.234 389.312 309.755 388.875C310.234 388.458 310.859 388.25 311.526 388.208C312.339 388.187 313.068 388.396 313.609 388.833C314.609 389.625 314.776 391 314.776 392.604V398H316.651V392.542C316.672 390.604 316.505 388.625 315.047 387.437ZM327.603 386.75V388.021C326.686 387 325.311 386.437 323.874 386.437C322.332 386.437 320.895 387.062 319.978 388.229C319.082 389.375 318.728 390.875 318.728 392.354C318.728 393.833 319.04 395.312 319.978 396.5C320.915 397.667 322.353 398.312 323.874 398.312C325.27 398.312 326.52 397.854 327.395 396.937V398.063C327.395 399.438 327.228 400.125 326.457 400.771C325.832 401.292 324.915 401.521 324.02 401.521C323.207 401.521 322.29 401.229 321.749 400.604C321.561 400.417 321.395 400.229 321.27 400.021L319.561 400.854C319.853 401.375 320.353 401.833 320.832 402.125C321.645 402.896 322.853 403.312 324.02 403.312C325.145 403.312 326.374 403.104 327.478 402.313C328.79 401.396 329.249 400.208 329.249 398.083V386.75H327.603ZM326.728 395.458C326.103 396.229 325.145 396.604 324.103 396.604C323.082 396.604 322.082 396.208 321.478 395.354C320.895 394.583 320.707 393.479 320.707 392.354C320.707 391.229 320.915 390.146 321.499 389.375C322.103 388.521 323.061 388.125 324.165 388.125C325.186 388.125 326.124 388.5 326.728 389.271C327.353 390.062 327.603 391.208 327.603 392.354C327.603 393.521 327.353 394.687 326.728 395.458ZM335.061 388.271H338.457V386.75H335.061V383.625H333.207V386.75H330.915V388.271H333.207V393.75C333.207 394.854 333.228 395.75 333.624 396.562C334.04 397.396 334.811 397.875 335.811 398.083C336.561 398.25 337.665 398.208 338.457 398V396.354C337.874 396.458 337.186 396.479 336.603 396.437C336.061 396.375 335.54 396.083 335.311 395.604C335.04 395.146 335.061 394.562 335.061 393.646V388.271ZM349.01 387.437C348.031 386.604 346.844 386.396 345.677 386.479C344.677 386.521 343.594 386.896 342.844 387.688C342.677 387.854 342.531 388.021 342.406 388.208V383H340.74V398H342.615V392.229C342.615 391.667 342.635 391.125 342.74 390.687C342.885 389.958 343.219 389.312 343.719 388.875C344.198 388.458 344.823 388.25 345.51 388.208C346.323 388.187 347.031 388.396 347.573 388.833C348.573 389.625 348.76 391 348.76 392.604V398H350.635V392.542C350.656 390.604 350.49 388.625 349.01 387.437ZM368.76 383H356.677V384.75H361.802V398H363.656V384.75H368.76V383ZM381.615 393.021C381.448 393.646 381.156 394.25 380.781 394.771C379.906 395.958 378.427 396.562 376.927 396.542C375.427 396.542 373.948 395.958 373.073 394.771C372.177 393.583 371.906 392.021 371.885 390.5C371.906 388.958 372.177 387.396 373.073 386.229C373.948 385.042 375.427 384.437 376.927 384.458C378.427 384.458 379.906 385.042 380.781 386.229C381.219 386.792 381.49 387.458 381.677 388.146L383.594 387.833C383.344 386.875 382.927 385.937 382.26 385.083C381.01 383.479 379.031 382.687 376.927 382.687C374.802 382.687 372.844 383.458 371.594 385.083C370.365 386.625 369.927 388.521 369.906 390.5C369.885 392.417 370.365 394.354 371.594 395.896C372.844 397.479 374.781 398.312 376.927 398.312C379.01 398.312 380.969 397.542 382.26 395.896C382.823 395.188 383.219 394.375 383.469 393.562L381.615 393.021ZM397.368 398L394.431 391.979C395.077 391.687 395.639 391.25 396.056 390.708C396.743 389.875 397.16 388.812 397.16 387.729C397.139 386.604 396.702 385.458 395.952 384.625C395.431 384 394.723 383.521 393.952 383.271C393.452 383.083 392.931 383 392.389 383H385.993V398H387.848V392.437H392.389H392.556L395.243 398H397.368ZM387.848 384.771H392.389C393.118 384.771 393.91 385.146 394.431 385.687C394.952 386.229 395.223 386.958 395.243 387.729C395.264 388.396 395.014 389.062 394.598 389.583C394.035 390.271 393.181 390.687 392.389 390.687H387.848V384.771ZM403.888 383L399.888 398H401.763L405.763 383H403.888ZM408.682 383V398H410.536V383H408.682ZM421.336 390.25V391.812H425.086C424.94 392.896 424.628 393.896 424.023 394.75C423.128 395.937 421.648 396.542 420.148 396.521C418.648 396.542 417.169 395.937 416.294 394.75C415.398 393.604 415.148 392 415.107 390.5C415.148 388.979 415.398 387.396 416.294 386.229C417.169 385.062 418.648 384.458 420.148 384.458C421.648 384.458 423.128 385.062 424.023 386.229C424.19 386.458 424.336 386.75 424.482 387L426.19 386.229C426.003 385.812 425.753 385.437 425.482 385.104C424.211 383.5 422.315 382.687 420.148 382.687C418.023 382.687 416.023 383.479 414.836 385.104C413.586 386.646 413.169 388.542 413.148 390.5C413.169 392.417 413.586 394.354 414.836 395.875C416.023 397.521 418.044 398.312 420.148 398.312C422.232 398.312 424.169 397.542 425.482 395.875C426.648 394.437 427.086 392.604 427.148 390.729V390.25H421.336ZM443.055 389.687C442.721 388.604 441.784 387.521 440.721 386.979C439.971 386.604 439.117 386.437 438.346 386.437C437.555 386.417 436.742 386.5 435.93 386.854C434.867 387.333 434.034 388.354 434.034 389.583C434.034 390.167 434.242 390.958 434.763 391.458C435.326 392.021 436.076 392.312 436.763 392.562C437.388 392.75 437.888 392.896 439.221 393.271C439.951 393.479 440.367 393.646 440.742 393.875C441.18 394.146 441.367 394.562 441.367 394.937C441.367 395.437 441.117 395.854 440.701 396.146C440.201 396.479 439.284 396.646 438.596 396.646C437.659 396.646 436.659 396.396 436.013 395.667C435.617 395.229 435.367 394.479 435.284 393.875L433.513 394.312C433.826 395.375 433.971 396.021 434.701 396.833C435.701 397.917 437.034 398.312 438.576 398.312C439.68 398.312 440.721 398.146 441.638 397.542C442.534 397 443.096 395.958 443.096 394.958C443.096 394.021 442.68 393.208 441.888 392.583C441.263 392.083 440.492 391.771 439.721 391.562C438.763 391.312 438.076 391.125 437.471 390.937C436.867 390.771 436.534 390.625 436.263 390.437C435.888 390.187 435.784 389.896 435.784 389.521C435.784 389.021 436.201 388.583 436.659 388.375C437.096 388.187 437.68 388.062 438.242 388.083C438.826 388.104 439.471 388.25 439.93 388.5C440.576 388.854 441.034 389.437 441.284 390.125L443.055 389.687ZM446.699 393H455.595C455.699 391.187 455.345 389.542 454.324 388.271C453.324 387.042 451.824 386.437 450.199 386.437C448.574 386.437 447.074 387.042 446.074 388.271C445.158 389.417 444.783 390.917 444.783 392.437C444.783 393.854 445.158 395.292 446.074 396.458C447.053 397.667 448.658 398.312 450.283 398.312C452.428 398.312 454.158 397.354 455.178 395.583L453.783 394.667C452.928 396.021 451.762 396.646 450.199 396.646C449.137 396.646 448.095 396.229 447.491 395.396C446.991 394.729 446.762 393.896 446.699 393ZM450.199 388.083C451.283 388.083 452.303 388.5 452.908 389.333C453.303 389.854 453.553 390.542 453.658 391.312H446.741C446.845 390.583 447.074 389.875 447.491 389.333C448.095 388.5 449.137 388.083 450.199 388.083ZM466.178 386.75V388.042C465.283 387.021 463.887 386.437 462.428 386.437C460.908 386.437 459.47 387.062 458.553 388.229C457.658 389.375 457.303 390.875 457.303 392.354C457.303 393.833 457.616 395.312 458.553 396.5C459.491 397.667 460.908 398.312 462.449 398.312C463.845 398.312 465.074 397.854 465.97 396.917V403H467.824V386.75H466.178ZM465.283 395.458C464.678 396.229 463.72 396.604 462.678 396.604C461.658 396.604 460.637 396.208 460.033 395.354C459.47 394.583 459.262 393.479 459.262 392.354C459.262 391.229 459.491 390.146 460.053 389.375C460.658 388.521 461.637 388.125 462.72 388.125C463.741 388.125 464.699 388.5 465.283 389.271C465.928 390.062 466.178 391.208 466.178 392.354C466.178 393.521 465.928 394.687 465.283 395.458ZM478.552 386.75V392.5C478.552 393.062 478.531 393.625 478.427 394.062C478.281 394.792 477.948 395.437 477.448 395.854C476.969 396.271 476.344 396.5 475.656 396.521C474.844 396.562 474.135 396.354 473.594 395.917C472.594 395.125 472.406 393.729 472.406 392.146V386.75H470.531V392.208C470.51 394.146 470.677 396.125 472.156 397.312C473.135 398.146 474.323 398.354 475.49 398.271C476.49 398.229 477.573 397.854 478.323 397.062C478.49 396.896 478.635 396.708 478.76 396.542V398H480.427V386.75H478.552ZM484.629 393H493.525C493.629 391.187 493.275 389.542 492.254 388.271C491.254 387.042 489.754 386.437 488.129 386.437C486.504 386.437 485.004 387.042 484.004 388.271C483.087 389.417 482.712 390.917 482.712 392.437C482.712 393.854 483.087 395.292 484.004 396.458C484.983 397.667 486.587 398.312 488.212 398.312C490.358 398.312 492.087 397.354 493.108 395.583L491.712 394.667C490.858 396.021 489.691 396.646 488.129 396.646C487.066 396.646 486.025 396.229 485.421 395.396C484.921 394.729 484.691 393.896 484.629 393ZM488.129 388.083C489.212 388.083 490.233 388.5 490.837 389.333C491.233 389.854 491.483 390.542 491.587 391.312H484.671C484.775 390.583 485.004 389.875 485.421 389.333C486.025 388.5 487.066 388.083 488.129 388.083ZM503.816 387.437C502.837 386.604 501.629 386.396 500.483 386.479C499.462 386.521 498.379 386.896 497.65 387.688C497.483 387.875 497.316 388.042 497.191 388.229V386.75H495.546V398H497.4V393.083V393.062C497.4 392.208 497.4 391.354 497.546 390.687C497.671 389.958 498.004 389.312 498.525 388.875C499.004 388.458 499.629 388.25 500.296 388.208C501.108 388.187 501.837 388.396 502.379 388.833C503.379 389.625 503.546 391 503.546 392.604V398H505.421V392.542C505.441 390.604 505.275 388.625 503.816 387.437ZM517.643 389.25C517.477 388.896 517.268 388.583 517.039 388.271C516.039 387.042 514.539 386.437 512.914 386.437C511.31 386.437 509.81 387 508.789 388.271C507.852 389.458 507.518 390.896 507.497 392.375C507.518 393.833 507.852 395.292 508.789 396.458C509.789 397.688 511.289 398.333 512.914 398.312C514.518 398.333 516.039 397.688 517.039 396.458C517.268 396.167 517.456 395.854 517.643 395.521L515.872 394.771C515.789 394.958 515.685 395.146 515.539 395.333C514.956 396.125 513.956 396.542 512.914 396.542C511.872 396.542 510.872 396.125 510.289 395.333C509.664 394.521 509.477 393.437 509.456 392.375C509.477 391.292 509.664 390.208 510.289 389.417C510.872 388.604 511.872 388.187 512.914 388.187C513.956 388.187 514.956 388.604 515.539 389.417C515.685 389.583 515.81 389.792 515.893 390L517.643 389.25ZM520.801 393H529.697C529.801 391.187 529.447 389.542 528.426 388.271C527.426 387.042 525.926 386.437 524.301 386.437C522.676 386.437 521.176 387.042 520.176 388.271C519.259 389.417 518.884 390.917 518.884 392.437C518.884 393.854 519.259 395.292 520.176 396.458C521.155 397.667 522.759 398.312 524.384 398.312C526.53 398.312 528.259 397.354 529.28 395.583L527.884 394.667C527.03 396.021 525.863 396.646 524.301 396.646C523.238 396.646 522.197 396.229 521.592 395.396C521.092 394.729 520.863 393.896 520.801 393ZM524.301 388.083C525.384 388.083 526.405 388.5 527.009 389.333C527.405 389.854 527.655 390.542 527.759 391.312H520.842C520.947 390.583 521.176 389.875 521.592 389.333C522.197 388.5 523.238 388.083 524.301 388.083Z" fill="#110529"/>
<g filter="url(#filter0_i_4694_30587)">
<path d="M582 92H762.4C762.96 92 763.24 92 763.454 92.109C763.642 92.2049 763.795 92.3578 763.891 92.546C764 92.7599 764 93.0399 764 93.6V142.4C764 142.96 764 143.24 763.891 143.454C763.795 143.642 763.642 143.795 763.454 143.891C763.24 144 762.96 144 762.4 144H582V92Z" fill="#C1ADFF"/>
</g>
<path d="M582 92H762.4C762.96 92 763.24 92 763.454 92.109C763.642 92.2049 763.795 92.3578 763.891 92.546C764 92.7599 764 93.0399 764 93.6V142.4C764 142.96 764 143.24 763.891 143.454C763.795 143.642 763.642 143.795 763.454 143.891C763.24 144 762.96 144 762.4 144H582V92Z" stroke="#110529" stroke-width="2" stroke-linecap="round"/>
<g filter="url(#filter1_i_4694_30587)">
<path d="M582 24H620.4C620.96 24 621.24 24 621.454 24.109C621.642 24.2049 621.795 24.3578 621.891 24.546C622 24.7599 622 25.0399 622 25.6V74.4C622 74.9601 622 75.2401 621.891 75.454C621.795 75.6422 621.642 75.7951 621.454 75.891C621.24 76 620.96 76 620.4 76H582V24Z" fill="#C1ADFF"/>
</g>
<path d="M582 24H620.4C620.96 24 621.24 24 621.454 24.109C621.642 24.2049 621.795 24.3578 621.891 24.546C622 24.7599 622 25.0399 622 25.6V74.4C622 74.9601 622 75.2401 621.891 75.454C621.795 75.6422 621.642 75.7951 621.454 75.891C621.24 76 620.96 76 620.4 76H582V24Z" stroke="#110529" stroke-width="2" stroke-linecap="round"/>
<g filter="url(#filter2_i_4694_30587)">
<path d="M466 160H496.4C496.96 160 497.24 160 497.454 160.109C497.642 160.205 497.795 160.358 497.891 160.546C498 160.76 498 161.04 498 161.6V210.4C498 210.96 498 211.24 497.891 211.454C497.795 211.642 497.642 211.795 497.454 211.891C497.24 212 496.96 212 496.4 212H466V160Z" fill="#CBEB67"/>
</g>
<path d="M466 160H496.4C496.96 160 497.24 160 497.454 160.109C497.642 160.205 497.795 160.358 497.891 160.546C498 160.76 498 161.04 498 161.6V210.4C498 210.96 498 211.24 497.891 211.454C497.795 211.642 497.642 211.795 497.454 211.891C497.24 212 496.96 212 496.4 212H466V160Z" stroke="#110529" stroke-width="2" stroke-linecap="round"/>
<g filter="url(#filter3_i_4694_30587)">
<path d="M550 160H580.4C580.96 160 581.24 160 581.454 160.109C581.642 160.205 581.795 160.358 581.891 160.546C582 160.76 582 161.04 582 161.6V210.4C582 210.96 582 211.24 581.891 211.454C581.795 211.642 581.642 211.795 581.454 211.891C581.24 212 580.96 212 580.4 212H550V160Z" fill="#FAAAFA"/>
</g>
<path d="M550 160H580.4C580.96 160 581.24 160 581.454 160.109C581.642 160.205 581.795 160.358 581.891 160.546C582 160.76 582 161.04 582 161.6V210.4C582 210.96 582 211.24 581.891 211.454C581.795 211.642 581.642 211.795 581.454 211.891C581.24 212 580.96 212 580.4 212H550V160Z" stroke="#110529" stroke-width="2" stroke-linecap="round"/>
<g filter="url(#filter4_i_4694_30587)">
<path d="M498 160H548.4C548.96 160 549.24 160 549.454 160.109C549.642 160.205 549.795 160.358 549.891 160.546C550 160.76 550 161.04 550 161.6V210.4C550 210.96 550 211.24 549.891 211.454C549.795 211.642 549.642 211.795 549.454 211.891C549.24 212 548.96 212 548.4 212H498V160Z" fill="#FFCB8F"/>
</g>
<path d="M498 160H548.4C548.96 160 549.24 160 549.454 160.109C549.642 160.205 549.795 160.358 549.891 160.546C550 160.76 550 161.04 550 161.6V210.4C550 210.96 550 211.24 549.891 211.454C549.795 211.642 549.642 211.795 549.454 211.891C549.24 212 548.96 212 548.4 212H498V160Z" stroke="#110529" stroke-width="2" stroke-linecap="round"/>
<path d="M477.087 179H475.212V194H477.087V182.271L484.921 194H486.796V179H484.921V190.708L477.087 179Z" fill="#110529"/>
<path d="M561.087 179H559.212V194H561.087V182.271L568.921 194H570.796V179H568.921V190.708L561.087 179Z" fill="#110529"/>
<path d="M529.16 186.542C529.16 188.562 528.556 190.646 527.285 192.021C526.056 193.375 524.264 193.979 522.41 193.979H517.368V178.979L522.452 179C524.389 179 526.098 179.646 527.285 180.979C528.639 182.437 529.16 184.458 529.16 186.542ZM527.202 186.542C527.223 184.917 526.848 183.312 525.889 182.208C524.993 181.187 523.806 180.792 522.431 180.771L519.285 180.792V192.187L522.41 192.229C523.785 192.208 525.035 191.75 525.91 190.771C526.848 189.687 527.181 188.062 527.202 186.542Z" fill="#110529"/>
<g filter="url(#filter5_i_4694_30587)">
<path d="M466 92H496.4C496.96 92 497.24 92 497.454 92.109C497.642 92.2049 497.795 92.3578 497.891 92.546C498 92.7599 498 93.0399 498 93.6V142.4C498 142.96 498 143.24 497.891 143.454C497.795 143.642 497.642 143.795 497.454 143.891C497.24 144 496.96 144 496.4 144H466V92Z" fill="#CBEB67"/>
</g>
<path d="M466 92H496.4C496.96 92 497.24 92 497.454 92.109C497.642 92.2049 497.795 92.3578 497.891 92.546C498 92.7599 498 93.0399 498 93.6V142.4C498 142.96 498 143.24 497.891 143.454C497.795 143.642 497.642 143.795 497.454 143.891C497.24 144 496.96 144 496.4 144H466V92Z" stroke="#110529" stroke-width="2" stroke-linecap="round"/>
<g filter="url(#filter6_i_4694_30587)">
<path d="M550 92H580.4C580.96 92 581.24 92 581.454 92.109C581.642 92.2049 581.795 92.3578 581.891 92.546C582 92.7599 582 93.0399 582 93.6V142.4C582 142.96 582 143.24 581.891 143.454C581.795 143.642 581.642 143.795 581.454 143.891C581.24 144 580.96 144 580.4 144H550V92Z" fill="#FAAAFA"/>
</g>
<path d="M550 92H580.4C580.96 92 581.24 92 581.454 92.109C581.642 92.2049 581.795 92.3578 581.891 92.546C582 92.7599 582 93.0399 582 93.6V142.4C582 142.96 582 143.24 581.891 143.454C581.795 143.642 581.642 143.795 581.454 143.891C581.24 144 580.96 144 580.4 144H550V92Z" stroke="#110529" stroke-width="2" stroke-linecap="round"/>
<g filter="url(#filter7_i_4694_30587)">
<path d="M498 92H548.4C548.96 92 549.24 92 549.454 92.109C549.642 92.2049 549.795 92.3578 549.891 92.546C550 92.7599 550 93.0399 550 93.6V142.4C550 142.96 550 143.24 549.891 143.454C549.795 143.642 549.642 143.795 549.454 143.891C549.24 144 548.96 144 548.4 144H498V92Z" fill="#FFCB8F"/>
</g>
<path d="M498 92H548.4C548.96 92 549.24 92 549.454 92.109C549.642 92.2049 549.795 92.3578 549.891 92.546C550 92.7599 550 93.0399 550 93.6V142.4C550 142.96 550 143.24 549.891 143.454C549.795 143.642 549.642 143.795 549.454 143.891C549.24 144 548.96 144 548.4 144H498V92Z" stroke="#110529" stroke-width="2" stroke-linecap="round"/>
<path d="M477.087 111H475.212V126H477.087V114.271L484.921 126H486.796V111H484.921V122.708L477.087 111Z" fill="#110529"/>
<path d="M561.087 111H559.212V126H561.087V114.271L568.921 126H570.796V111H568.921V122.708L561.087 111Z" fill="#110529"/>
<path d="M529.16 118.542C529.16 120.562 528.556 122.646 527.285 124.021C526.056 125.375 524.264 125.979 522.41 125.979H517.368V110.979L522.452 111C524.389 111 526.098 111.646 527.285 112.979C528.639 114.437 529.16 116.458 529.16 118.542ZM527.202 118.542C527.223 116.917 526.848 115.312 525.889 114.208C524.993 113.187 523.806 112.792 522.431 112.771L519.285 112.792V124.187L522.41 124.229C523.785 124.208 525.035 123.75 525.91 122.771C526.848 121.687 527.181 120.062 527.202 118.542Z" fill="#110529"/>
<g filter="url(#filter8_i_4694_30587)">
<path d="M466 24H496.4C496.96 24 497.24 24 497.454 24.109C497.642 24.2049 497.795 24.3578 497.891 24.546C498 24.7599 498 25.0399 498 25.6V74.4C498 74.9601 498 75.2401 497.891 75.454C497.795 75.6422 497.642 75.7951 497.454 75.891C497.24 76 496.96 76 496.4 76H466V24Z" fill="#CBEB67"/>
</g>
<path d="M466 24H496.4C496.96 24 497.24 24 497.454 24.109C497.642 24.2049 497.795 24.3578 497.891 24.546C498 24.7599 498 25.0399 498 25.6V74.4C498 74.9601 498 75.2401 497.891 75.454C497.795 75.6422 497.642 75.7951 497.454 75.891C497.24 76 496.96 76 496.4 76H466V24Z" stroke="#110529" stroke-width="2" stroke-linecap="round"/>
<g filter="url(#filter9_i_4694_30587)">
<path d="M550 24H580.4C580.96 24 581.24 24 581.454 24.109C581.642 24.2049 581.795 24.3578 581.891 24.546C582 24.7599 582 25.0399 582 25.6V74.4C582 74.9601 582 75.2401 581.891 75.454C581.795 75.6422 581.642 75.7951 581.454 75.891C581.24 76 580.96 76 580.4 76H550V24Z" fill="#FAAAFA"/>
</g>
<path d="M550 24H580.4C580.96 24 581.24 24 581.454 24.109C581.642 24.2049 581.795 24.3578 581.891 24.546C582 24.7599 582 25.0399 582 25.6V74.4C582 74.9601 582 75.2401 581.891 75.454C581.795 75.6422 581.642 75.7951 581.454 75.891C581.24 76 580.96 76 580.4 76H550V24Z" stroke="#110529" stroke-width="2" stroke-linecap="round"/>
<g filter="url(#filter10_i_4694_30587)">
<path d="M498 24H548.4C548.96 24 549.24 24 549.454 24.109C549.642 24.2049 549.795 24.3578 549.891 24.546C550 24.7599 550 25.0399 550 25.6V74.4C550 74.9601 550 75.2401 549.891 75.454C549.795 75.6422 549.642 75.7951 549.454 75.891C549.24 76 548.96 76 548.4 76H498V24Z" fill="#FFCB8F"/>
</g>
<path d="M498 24H548.4C548.96 24 549.24 24 549.454 24.109C549.642 24.2049 549.795 24.3578 549.891 24.546C550 24.7599 550 25.0399 550 25.6V74.4C550 74.9601 550 75.2401 549.891 75.454C549.795 75.6422 549.642 75.7951 549.454 75.891C549.24 76 548.96 76 548.4 76H498V24Z" stroke="#110529" stroke-width="2" stroke-linecap="round"/>
<path d="M477.087 43H475.212V58H477.087V46.2708L484.921 58H486.796V43H484.921V54.7083L477.087 43Z" fill="#110529"/>
<path d="M561.087 43H559.212V58H561.087V46.2708L568.921 58H570.796V43H568.921V54.7083L561.087 43Z" fill="#110529"/>
<path d="M529.16 50.5417C529.16 52.5625 528.556 54.6458 527.285 56.0208C526.056 57.375 524.264 57.9792 522.41 57.9792H517.368V42.9792L522.452 43C524.389 43 526.098 43.6458 527.285 44.9792C528.639 46.4375 529.16 48.4583 529.16 50.5417ZM527.202 50.5417C527.223 48.9167 526.848 47.3125 525.889 46.2083C524.993 45.1875 523.806 44.7917 522.431 44.7708L519.285 44.7917V56.1875L522.41 56.2292C523.785 56.2083 525.035 55.75 525.91 54.7708C526.848 53.6875 527.181 52.0625 527.202 50.5417Z" fill="#110529"/>
<g filter="url(#filter11_i_4694_30587)">
<path d="M411 92H466V144H411L406 137.5L411 131L406 124L411 118L406 111.5L411 105L406 98.5L411 92Z" fill="#99E099"/>
</g>
<path d="M411 92H466V144H411L406 137.5L411 131L406 124L411 118L406 111.5L411 105L406 98.5L411 92Z" stroke="#110529" stroke-width="2" stroke-linecap="round"/>
<path d="M437.209 126H439.792L444.813 111H442.896L438.48 124.021L434.126 111H432.188L437.209 126Z" fill="#110529"/>
<path d="M676.289 111V121.292C676.289 122.604 676.289 123.312 675.727 124.312C674.956 125.604 673.768 126.312 672.143 126.312C671.372 126.312 670.622 126.146 669.977 125.729C669.018 125.187 668.331 124.208 668.039 123.146L669.893 122.708C669.997 123.292 670.372 123.812 670.872 124.146C671.227 124.396 671.685 124.542 672.122 124.542C672.914 124.542 673.747 124.125 674.102 123.354C674.372 122.792 674.372 122.375 674.372 121.292V111H676.289Z" fill="#110529"/>
<path d="M605.289 43V53.2917C605.289 54.6042 605.289 55.3125 604.727 56.3125C603.956 57.6042 602.768 58.3125 601.143 58.3125C600.372 58.3125 599.622 58.1458 598.977 57.7292C598.018 57.1875 597.331 56.2083 597.039 55.1458L598.893 54.7083C598.997 55.2917 599.372 55.8125 599.872 56.1458C600.227 56.3958 600.685 56.5417 601.122 56.5417C601.914 56.5417 602.747 56.125 603.102 55.3542C603.372 54.7917 603.372 54.375 603.372 53.2917V43H605.289Z" fill="#110529"/>
<g filter="url(#filter12_i_4694_30587)">
<path d="M371 160H466V212H371L366 205.5L371 199L366 192L371 186L366 179.5L371 173L366 166.5L371 160Z" fill="#99E099"/>
</g>
<path d="M371 160H466V212H371L366 205.5L371 199L366 192L371 186L366 179.5L371 173L366 166.5L371 160Z" stroke="#110529" stroke-width="2" stroke-linecap="round"/>
<path d="M417.209 194H419.792L424.813 179H422.896L418.48 192.021L414.126 179H412.188L417.209 194Z" fill="#110529"/>
<g filter="url(#filter13_i_4694_30587)">
<path d="M633 160H582V186V212H633L638 205.5L633 199L638 192L633 186L638 179.5L633 173L638 166.5L633 160Z" fill="#C1ADFF"/>
</g>
<path d="M633 160H582V186V212H633L638 205.5L633 199L638 192L633 186L638 179.5L633 173L638 166.5L633 160Z" stroke="#110529" stroke-width="2" stroke-linecap="round"/>
<path d="M610.272 179V189.292C610.272 190.604 610.272 191.312 609.71 192.312C608.939 193.604 607.751 194.312 606.126 194.312C605.356 194.312 604.606 194.146 603.96 193.729C603.001 193.187 602.314 192.208 602.022 191.146L603.876 190.708C603.981 191.292 604.356 191.812 604.856 192.146C605.21 192.396 605.668 192.542 606.106 192.542C606.897 192.542 607.731 192.125 608.085 191.354C608.356 190.792 608.356 190.375 608.356 189.292V179H610.272Z" fill="#110529"/>
<g filter="url(#filter14_i_4694_30587)">
<path d="M272 92H162V144H272L267 137.5L272 131L267 124L272 118L267 111.5L272 105L267 98.5L272 92Z" fill="#99E099"/>
</g>
<path d="M272 92H162V144H272L267 137.5L272 131L267 124L272 118L267 111.5L272 105L267 98.5L272 92Z" stroke="#110529" stroke-width="2" stroke-linecap="round"/>
<g filter="url(#filter15_i_4694_30587)">
<path d="M124 93.6C124 93.0399 124 92.7599 124.109 92.546C124.205 92.3578 124.358 92.2049 124.546 92.109C124.76 92 125.04 92 125.6 92H162.4C162.96 92 163.24 92 163.454 92.109C163.642 92.2049 163.795 92.3578 163.891 92.546C164 92.7599 164 93.0399 164 93.6V142.4C164 142.96 164 143.24 163.891 143.454C163.795 143.642 163.642 143.795 163.454 143.891C163.24 144 162.96 144 162.4 144H125.6C125.04 144 124.76 144 124.546 143.891C124.358 143.795 124.205 143.642 124.109 143.454C124 143.24 124 142.96 124 142.4V137.5V131V124V118V111.5V105V98.5V93.6Z" fill="#FFADBA"/>
</g>
<path d="M124 93.6C124 93.0399 124 92.7599 124.109 92.546C124.205 92.3578 124.358 92.2049 124.546 92.109C124.76 92 125.04 92 125.6 92H162.4C162.96 92 163.24 92 163.454 92.109C163.642 92.2049 163.795 92.3578 163.891 92.546C164 92.7599 164 93.0399 164 93.6V142.4C164 142.96 164 143.24 163.891 143.454C163.795 143.642 163.642 143.795 163.454 143.891C163.24 144 162.96 144 162.4 144H125.6C125.04 144 124.76 144 124.546 143.891C124.358 143.795 124.205 143.642 124.109 143.454C124 143.24 124 142.96 124 142.4V137.5V131V124V118V111.5V105V98.5V93.6Z" stroke="#110529" stroke-width="2" stroke-linecap="round"/>
<g filter="url(#filter16_i_4694_30587)">
<path d="M334 160H152V212H334L329 205.5L334 199L329 192L334 186L329 179.5L334 173L329 166.5L334 160Z" fill="#99E099"/>
</g>
<path d="M334 160H152V212H334L329 205.5L334 199L329 192L334 186L329 179.5L334 173L329 166.5L334 160Z" stroke="#110529" stroke-width="2" stroke-linecap="round"/>
<g filter="url(#filter17_i_4694_30587)">
<path d="M24 161.6C24 161.04 24 160.76 24.109 160.546C24.2049 160.358 24.3578 160.205 24.546 160.109C24.7599 160 25.0399 160 25.6 160H162.4C162.96 160 163.24 160 163.454 160.109C163.642 160.205 163.795 160.358 163.891 160.546C164 160.76 164 161.04 164 161.6V210.4C164 210.96 164 211.24 163.891 211.454C163.795 211.642 163.642 211.795 163.454 211.891C163.24 212 162.96 212 162.4 212H25.6C25.0399 212 24.7599 212 24.546 211.891C24.3578 211.795 24.2049 211.642 24.109 211.454C24 211.24 24 210.96 24 210.4V205.5V199V192V186V179.5V173V166.5V161.6Z" fill="#FFADBA"/>
</g>
<path d="M24 161.6C24 161.04 24 160.76 24.109 160.546C24.2049 160.358 24.3578 160.205 24.546 160.109C24.7599 160 25.0399 160 25.6 160H162.4C162.96 160 163.24 160 163.454 160.109C163.642 160.205 163.795 160.358 163.891 160.546C164 160.76 164 161.04 164 161.6V210.4C164 210.96 164 211.24 163.891 211.454C163.795 211.642 163.642 211.795 163.454 211.891C163.24 212 162.96 212 162.4 212H25.6C25.0399 212 24.7599 212 24.546 211.891C24.3578 211.795 24.2049 211.642 24.109 211.454C24 211.24 24 210.96 24 210.4V205.5V199V192V186V179.5V173V166.5V161.6Z" stroke="#110529" stroke-width="2" stroke-linecap="round"/>
<path d="M67.2103 179L66.752 186.708L68.4186 187.667C68.6061 187.354 68.8353 187.062 69.1061 186.833C69.6686 186.312 70.4186 186.042 71.2103 186.042C72.0436 186.042 72.8145 186.375 73.3978 186.896C74.0436 187.5 74.4395 188.354 74.4395 189.271C74.4395 190.167 74.0853 190.979 73.4811 191.583C72.8978 192.167 72.0853 192.5 71.2103 192.5C70.377 192.5 69.6061 192.187 69.0228 191.646C68.5645 191.25 68.2311 190.708 68.0853 190.104L66.2936 190.583C66.5436 191.479 67.0436 192.312 67.7103 192.937C68.627 193.812 69.8978 194.312 71.2103 194.292C72.5645 194.271 73.8561 193.771 74.7936 192.833C75.7103 191.917 76.2936 190.625 76.3145 189.271C76.3145 187.854 75.7728 186.542 74.7103 185.583C73.8145 184.792 72.627 184.333 71.4186 184.333C70.3978 184.333 69.3978 184.708 68.6061 185.333L68.877 180.75H75.1061V179H67.2103ZM80.9655 181.667V179H78.9238V181.354H80.0072C80.0697 182.187 79.903 182.875 79.0488 182.812L78.9238 183.688C80.278 183.917 80.9655 183.083 80.9655 181.667ZM95.7116 179H93.8366V187.979C93.8366 189.208 93.7324 190.083 92.9824 191.042C92.2324 192 91.0241 192.562 89.8158 192.562C88.5866 192.562 87.3783 192 86.6283 191.042C85.8574 190.042 85.7533 189.208 85.7533 187.979V179H83.8783V188.542C83.8783 189.812 84.3991 191.208 85.1908 192.208C86.2949 193.583 88.0449 194.333 89.8158 194.312C91.5866 194.333 93.3158 193.583 94.4199 192.208C95.2324 191.188 95.7116 189.854 95.7116 188.542V179ZM109.458 179H97.3743V180.75H102.499V194H104.354V180.75H109.458V179ZM122.499 194L119.562 187.979C120.208 187.687 120.77 187.25 121.187 186.708C121.874 185.875 122.291 184.812 122.291 183.729C122.27 182.604 121.833 181.458 121.083 180.625C120.562 180 119.854 179.521 119.083 179.271C118.583 179.083 118.062 179 117.52 179H111.124V194H112.979V188.437H117.52H117.687L120.374 194H122.499ZM112.979 180.771H117.52C118.249 180.771 119.041 181.146 119.562 181.687C120.083 182.229 120.354 182.958 120.374 183.729C120.395 184.396 120.145 185.062 119.729 185.583C119.166 186.271 118.312 186.687 117.52 186.687H112.979V180.771Z" fill="#110529"/>
<path d="M194 93H196V143H194V136.75V130.5V123.769V118V111.75V105.5V99.25V93Z" fill="#F05670"/>
<path d="M194 161H196V211H194V204.75V198.5V191.769V186V179.75V173.5V167.25V161Z" fill="#F05670"/>
<g filter="url(#filter18_i_4694_30587)">
<path d="M309 92H374L369 98.5L374 105L369 111.5L374 118L369 124.5L374 131L369 137.5L374 144H309L304 137.5L309 131L304 124L309 118L304 111.5L309 105L304 98.5L309 92Z" fill="#99E099"/>
</g>
<path d="M309 92H374L369 98.5L374 105L369 111.5L374 118L369 124.5L374 131L369 137.5L374 144H309L304 137.5L309 131L304 124L309 118L304 111.5L309 105L304 98.5L309 92Z" stroke="#110529" stroke-width="2" stroke-linecap="round"/>
<path d="M354 93H356V143H354V136.75V130.5V123.769V118V111.75V105.5V99.25V93Z" fill="#F05670"/>
<g filter="url(#filter19_i_4694_30587)">
<path d="M164 308H467V360H164V353.5V347V340V334V327.5V321V314.5V308Z" fill="#99E099"/>
</g>
<path d="M164 308H467V360H164V353.5V347V340V334V327.5V321V314.5V308Z" stroke="#110529" stroke-width="2" stroke-linecap="round"/>
<g filter="url(#filter20_i_4694_30587)">
<path d="M426 25.6C426 25.0399 426 24.7599 426.109 24.546C426.205 24.3578 426.358 24.2049 426.546 24.109C426.76 24 427.04 24 427.6 24H464.4C464.96 24 465.24 24 465.454 24.109C465.642 24.2049 465.795 24.3578 465.891 24.546C466 24.7599 466 25.0399 466 25.6V74.4C466 74.9601 466 75.2401 465.891 75.454C465.795 75.6422 465.642 75.7951 465.454 75.891C465.24 76 464.96 76 464.4 76H427.6C427.04 76 426.76 76 426.546 75.891C426.358 75.7951 426.205 75.6422 426.109 75.454C426 75.2401 426 74.9601 426 74.4V69.5V63V56V50V43.5V37V30.5V25.6Z" fill="#99E099"/>
</g>
<path d="M426 25.6C426 25.0399 426 24.7599 426.109 24.546C426.205 24.3578 426.358 24.2049 426.546 24.109C426.76 24 427.04 24 427.6 24H464.4C464.96 24 465.24 24 465.454 24.109C465.642 24.2049 465.795 24.3578 465.891 24.546C466 24.7599 466 25.0399 466 25.6V74.4C466 74.9601 466 75.2401 465.891 75.454C465.795 75.6422 465.642 75.7951 465.454 75.891C465.24 76 464.96 76 464.4 76H427.6C427.04 76 426.76 76 426.546 75.891C426.358 75.7951 426.205 75.6422 426.109 75.454C426 75.2401 426 74.9601 426 74.4V69.5V63V56V50V43.5V37V30.5V25.6Z" stroke="#110529" stroke-width="2" stroke-linecap="round"/>
<g filter="url(#filter21_i_4694_30587)">
<path d="M24 309.6C24 309.04 24 308.76 24.109 308.546C24.2049 308.358 24.3578 308.205 24.546 308.109C24.7599 308 25.0399 308 25.6 308H162.4C162.96 308 163.24 308 163.454 308.109C163.642 308.205 163.795 308.358 163.891 308.546C164 308.76 164 309.04 164 309.6V358.4C164 358.96 164 359.24 163.891 359.454C163.795 359.642 163.642 359.795 163.454 359.891C163.24 360 162.96 360 162.4 360H25.6C25.0399 360 24.7599 360 24.546 359.891C24.3578 359.795 24.2049 359.642 24.109 359.454C24 359.24 24 358.96 24 358.4V353.5V347V340V334V327.5V321V314.5V309.6Z" fill="#FFADBA"/>
</g>
<path d="M24 309.6C24 309.04 24 308.76 24.109 308.546C24.2049 308.358 24.3578 308.205 24.546 308.109C24.7599 308 25.0399 308 25.6 308H162.4C162.96 308 163.24 308 163.454 308.109C163.642 308.205 163.795 308.358 163.891 308.546C164 308.76 164 309.04 164 309.6V358.4C164 358.96 164 359.24 163.891 359.454C163.795 359.642 163.642 359.795 163.454 359.891C163.24 360 162.96 360 162.4 360H25.6C25.0399 360 24.7599 360 24.546 359.891C24.3578 359.795 24.2049 359.642 24.109 359.454C24 359.24 24 358.96 24 358.4V353.5V347V340V334V327.5V321V314.5V309.6Z" stroke="#110529" stroke-width="2" stroke-linecap="round"/>
<g filter="url(#filter22_i_4694_30587)">
<path d="M582 308H762.4C762.96 308 763.24 308 763.454 308.109C763.642 308.205 763.795 308.358 763.891 308.546C764 308.76 764 309.04 764 309.6V358.4C764 358.96 764 359.24 763.891 359.454C763.795 359.642 763.642 359.795 763.454 359.891C763.24 360 762.96 360 762.4 360H582V308Z" fill="#C1ADFF"/>
</g>
<path d="M582 308H762.4C762.96 308 763.24 308 763.454 308.109C763.642 308.205 763.795 308.358 763.891 308.546C764 308.76 764 309.04 764 309.6V358.4C764 358.96 764 359.24 763.891 359.454C763.795 359.642 763.642 359.795 763.454 359.891C763.24 360 762.96 360 762.4 360H582V308Z" stroke="#110529" stroke-width="2" stroke-linecap="round"/>
<path d="M314.191 342H316.774L321.795 327H319.878L315.462 340.021L311.108 327H309.17L314.191 342Z" fill="#110529"/>
<path d="M67.2103 327L66.752 334.708L68.4186 335.667C68.6061 335.354 68.8353 335.062 69.1061 334.833C69.6686 334.312 70.4186 334.042 71.2103 334.042C72.0436 334.042 72.8145 334.375 73.3978 334.896C74.0436 335.5 74.4395 336.354 74.4395 337.271C74.4395 338.167 74.0853 338.979 73.4811 339.583C72.8978 340.167 72.0853 340.5 71.2103 340.5C70.377 340.5 69.6061 340.187 69.0228 339.646C68.5645 339.25 68.2311 338.708 68.0853 338.104L66.2936 338.583C66.5436 339.479 67.0436 340.312 67.7103 340.937C68.627 341.812 69.8978 342.312 71.2103 342.292C72.5645 342.271 73.8561 341.771 74.7936 340.833C75.7103 339.917 76.2936 338.625 76.3145 337.271C76.3145 335.854 75.7728 334.542 74.7103 333.583C73.8145 332.792 72.627 332.333 71.4186 332.333C70.3978 332.333 69.3978 332.708 68.6061 333.333L68.877 328.75H75.1061V327H67.2103ZM80.9655 329.667V327H78.9238V329.354H80.0072C80.0697 330.187 79.903 330.875 79.0488 330.812L78.9238 331.688C80.278 331.917 80.9655 331.083 80.9655 329.667ZM95.7116 327H93.8366V335.979C93.8366 337.208 93.7324 338.083 92.9824 339.042C92.2324 340 91.0241 340.562 89.8158 340.562C88.5866 340.562 87.3783 340 86.6283 339.042C85.8574 338.042 85.7533 337.208 85.7533 335.979V327H83.8783V336.542C83.8783 337.812 84.3991 339.208 85.1908 340.208C86.2949 341.583 88.0449 342.333 89.8158 342.312C91.5866 342.333 93.3158 341.583 94.4199 340.208C95.2324 339.188 95.7116 337.854 95.7116 336.542V327ZM109.458 327H97.3743V328.75H102.499V342H104.354V328.75H109.458V327ZM122.499 342L119.562 335.979C120.208 335.687 120.77 335.25 121.187 334.708C121.874 333.875 122.291 332.812 122.291 331.729C122.27 330.604 121.833 329.458 121.083 328.625C120.562 328 119.854 327.521 119.083 327.271C118.583 327.083 118.062 327 117.52 327H111.124V342H112.979V336.437H117.52H117.687L120.374 342H122.499ZM112.979 328.771H117.52C118.249 328.771 119.041 329.146 119.562 329.687C120.083 330.229 120.354 330.958 120.374 331.729C120.395 332.396 120.145 333.062 119.729 333.583C119.166 334.271 118.312 334.687 117.52 334.687H112.979V328.771Z" fill="#110529"/>
<path d="M676.275 327V337.292C676.275 338.604 676.275 339.312 675.713 340.312C674.942 341.604 673.754 342.312 672.129 342.312C671.359 342.312 670.609 342.146 669.963 341.729C669.004 341.187 668.317 340.208 668.025 339.146L669.879 338.708C669.984 339.292 670.359 339.812 670.859 340.146C671.213 340.396 671.671 340.542 672.109 340.542C672.9 340.542 673.734 340.125 674.088 339.354C674.359 338.792 674.359 338.375 674.359 337.292V327H676.275Z" fill="#110529"/>
<g filter="url(#filter23_i_4694_30587)">
<path d="M466 308H496.4C496.96 308 497.24 308 497.454 308.109C497.642 308.205 497.795 308.358 497.891 308.546C498 308.76 498 309.04 498 309.6V358.4C498 358.96 498 359.24 497.891 359.454C497.795 359.642 497.642 359.795 497.454 359.891C497.24 360 496.96 360 496.4 360H466V308Z" fill="#CBEB67"/>
</g>
<path d="M466 308H496.4C496.96 308 497.24 308 497.454 308.109C497.642 308.205 497.795 308.358 497.891 308.546C498 308.76 498 309.04 498 309.6V358.4C498 358.96 498 359.24 497.891 359.454C497.795 359.642 497.642 359.795 497.454 359.891C497.24 360 496.96 360 496.4 360H466V308Z" stroke="#110529" stroke-width="2" stroke-linecap="round"/>
<g filter="url(#filter24_i_4694_30587)">
<path d="M550 308H580.4C580.96 308 581.24 308 581.454 308.109C581.642 308.205 581.795 308.358 581.891 308.546C582 308.76 582 309.04 582 309.6V358.4C582 358.96 582 359.24 581.891 359.454C581.795 359.642 581.642 359.795 581.454 359.891C581.24 360 580.96 360 580.4 360H550V308Z" fill="#FAAAFA"/>
</g>
<path d="M550 308H580.4C580.96 308 581.24 308 581.454 308.109C581.642 308.205 581.795 308.358 581.891 308.546C582 308.76 582 309.04 582 309.6V358.4C582 358.96 582 359.24 581.891 359.454C581.795 359.642 581.642 359.795 581.454 359.891C581.24 360 580.96 360 580.4 360H550V308Z" stroke="#110529" stroke-width="2" stroke-linecap="round"/>
<g filter="url(#filter25_i_4694_30587)">
<path d="M498 308H548.4C548.96 308 549.24 308 549.454 308.109C549.642 308.205 549.795 308.358 549.891 308.546C550 308.76 550 309.04 550 309.6V358.4C550 358.96 550 359.24 549.891 359.454C549.795 359.642 549.642 359.795 549.454 359.891C549.24 360 548.96 360 548.4 360H498V308Z" fill="#FFCB8F"/>
</g>
<path d="M498 308H548.4C548.96 308 549.24 308 549.454 308.109C549.642 308.205 549.795 308.358 549.891 308.546C550 308.76 550 309.04 550 309.6V358.4C550 358.96 550 359.24 549.891 359.454C549.795 359.642 549.642 359.795 549.454 359.891C549.24 360 548.96 360 548.4 360H498V308Z" stroke="#110529" stroke-width="2" stroke-linecap="round"/>
<path d="M477.087 327H475.212V342H477.087V330.271L484.921 342H486.796V327H484.921V338.708L477.087 327Z" fill="#110529"/>
<path d="M561.087 327H559.212V342H561.087V330.271L568.921 342H570.796V327H568.921V338.708L561.087 327Z" fill="#110529"/>
<path d="M529.16 334.542C529.16 336.562 528.556 338.646 527.285 340.021C526.056 341.375 524.264 341.979 522.41 341.979H517.368V326.979L522.452 327C524.389 327 526.098 327.646 527.285 328.979C528.639 330.437 529.16 332.458 529.16 334.542ZM527.202 334.542C527.223 332.917 526.848 331.312 525.889 330.208C524.993 329.187 523.806 328.792 522.431 328.771L519.285 328.792V340.187L522.41 340.229C523.785 340.208 525.035 339.75 525.91 338.771C526.848 337.687 527.181 336.062 527.202 334.542Z" fill="#110529"/>
<path d="M350 309H352V359H350V352.75V346.5V339.769V334V327.75V321.5V315.25V309Z" fill="#F05670"/>
<path d="M194 309H196V359H194V352.75V346.5V339.769V334V327.75V321.5V315.25V309Z" fill="#F05670"/>
<path d="M394 275L393.293 275.707L394 276.414L394.707 275.707L394 275ZM402.707 267.707L403.414 267L402 265.586L401.293 266.293L402.707 267.707ZM386.707 266.293L386 265.586L384.586 267L385.293 267.707L386.707 266.293ZM393 244L393 275L395 275L395 244L393 244ZM394.707 275.707L402.707 267.707L401.293 266.293L393.293 274.293L394.707 275.707ZM394.707 274.293L386.707 266.293L385.293 267.707L393.293 275.707L394.707 274.293Z" fill="#110529"/>
<path d="M781 118L780.293 117.293L779.586 118L780.293 118.707L781 118ZM788.293 126.707L789 127.414L790.414 126L789.707 125.293L788.293 126.707ZM789.707 110.707L790.414 110L789 108.586L788.293 109.293L789.707 110.707ZM812 117L781 117L781 119L812 119L812 117ZM780.293 118.707L788.293 126.707L789.707 125.293L781.707 117.293L780.293 118.707ZM781.707 118.707L789.707 110.707L788.293 109.293L780.293 117.293L781.707 118.707Z" fill="#110529"/>
<path d="M834.979 107.25C834.813 106.896 834.604 106.583 834.375 106.271C833.375 105.042 831.875 104.437 830.25 104.437C828.646 104.437 827.146 105 826.125 106.271C825.188 107.458 824.854 108.896 824.833 110.375C824.854 111.833 825.188 113.292 826.125 114.458C827.125 115.688 828.625 116.333 830.25 116.312C831.854 116.333 833.375 115.688 834.375 114.458C834.604 114.167 834.792 113.854 834.979 113.521L833.208 112.771C833.125 112.958 833.021 113.146 832.875 113.333C832.292 114.125 831.292 114.542 830.25 114.542C829.208 114.542 828.208 114.125 827.625 113.333C827 112.521 826.812 111.437 826.792 110.375C826.812 109.292 827 108.208 827.625 107.417C828.208 106.604 829.208 106.187 830.25 106.187C831.292 106.187 832.292 106.604 832.875 107.417C833.021 107.583 833.146 107.792 833.229 108L834.979 107.25ZM837.158 116V100.687H839.012V116H837.158ZM846.715 116.312C848.361 116.312 849.84 115.708 850.84 114.458C851.798 113.271 852.152 111.875 852.152 110.354C852.152 108.896 851.819 107.458 850.84 106.271C849.861 105.042 848.34 104.437 846.715 104.437C845.09 104.437 843.548 105.083 842.59 106.271C841.673 107.417 841.298 108.875 841.298 110.354C841.298 111.854 841.652 113.271 842.59 114.458C843.59 115.688 845.09 116.312 846.715 116.312ZM849.361 113.333C848.777 114.125 847.777 114.542 846.715 114.542C845.673 114.542 844.673 114.125 844.09 113.333C843.465 112.521 843.277 111.437 843.277 110.354C843.277 109.292 843.465 108.187 844.09 107.396C844.673 106.583 845.673 106.187 846.715 106.187C847.777 106.187 848.777 106.583 849.361 107.396C849.986 108.187 850.173 109.292 850.173 110.354C850.173 111.437 849.986 112.521 849.361 113.333ZM862.734 105.437C861.755 104.604 860.547 104.396 859.401 104.479C858.38 104.521 857.297 104.896 856.568 105.688C856.401 105.875 856.234 106.042 856.109 106.229V104.75H854.464V116H856.318V111.083V111.062C856.318 110.208 856.318 109.354 856.464 108.687C856.589 107.958 856.922 107.312 857.443 106.875C857.922 106.458 858.547 106.25 859.214 106.208C860.026 106.187 860.755 106.396 861.297 106.833C862.297 107.625 862.464 109 862.464 110.604V116H864.339V110.542C864.359 108.604 864.193 106.625 862.734 105.437ZM868.332 111H877.228C877.332 109.187 876.978 107.542 875.957 106.271C874.957 105.042 873.457 104.437 871.832 104.437C870.207 104.437 868.707 105.042 867.707 106.271C866.79 107.417 866.415 108.917 866.415 110.437C866.415 111.854 866.79 113.292 867.707 114.458C868.686 115.667 870.29 116.312 871.915 116.312C874.061 116.312 875.79 115.354 876.811 113.583L875.415 112.667C874.561 114.021 873.395 114.646 871.832 114.646C870.77 114.646 869.728 114.229 869.124 113.396C868.624 112.729 868.395 111.896 868.332 111ZM871.832 106.083C872.915 106.083 873.936 106.5 874.54 107.333C874.936 107.854 875.186 108.542 875.29 109.312H868.374C868.478 108.583 868.707 107.875 869.124 107.333C869.728 106.5 870.77 106.083 871.832 106.083ZM834.479 136V129.125C834.479 127.771 834.146 126.417 833.104 125.542C832.354 124.875 831.208 124.437 830.063 124.437C828.208 124.437 826.708 125 825.542 126.333L826.708 127.583C827.625 126.5 828.708 126.208 829.875 126.208C831.438 126.208 832.542 126.979 832.604 128.542C830.438 128.875 828.208 129.062 826.812 129.75C825.417 130.458 824.833 131.458 824.833 132.896C824.833 134.979 826.354 136.312 828.542 136.312C830.417 136.312 831.792 135.771 832.833 134.292V136H834.479ZM832.188 132.937C831.563 134.062 830.375 134.687 828.896 134.687C827.625 134.687 826.688 133.917 826.688 132.729C826.688 131.646 827.729 130.979 829 130.708C829.792 130.521 831.063 130.312 832.625 130.062C832.625 131.292 832.625 132.146 832.188 132.937ZM837.197 136V120.687H839.051V136H837.197ZM842.171 120.937V122.854H844.025V120.937H842.171ZM842.171 124.75V136H844.025V124.75H842.171ZM855.408 124.75V126.021C854.491 125 853.116 124.437 851.678 124.437C850.137 124.437 848.699 125.062 847.783 126.229C846.887 127.375 846.533 128.875 846.533 130.354C846.533 131.833 846.845 133.312 847.783 134.5C848.72 135.667 850.158 136.312 851.678 136.312C853.074 136.312 854.324 135.854 855.199 134.937V136.063C855.199 137.438 855.033 138.125 854.262 138.771C853.637 139.292 852.72 139.521 851.824 139.521C851.012 139.521 850.095 139.229 849.553 138.604C849.366 138.417 849.199 138.229 849.074 138.021L847.366 138.854C847.658 139.375 848.158 139.833 848.637 140.125C849.449 140.896 850.658 141.312 851.824 141.312C852.949 141.312 854.178 141.104 855.283 140.313C856.595 139.396 857.053 138.208 857.053 136.083V124.75H855.408ZM854.533 133.458C853.908 134.229 852.949 134.604 851.908 134.604C850.887 134.604 849.887 134.208 849.283 133.354C848.699 132.583 848.512 131.479 848.512 130.354C848.512 129.229 848.72 128.146 849.303 127.375C849.908 126.521 850.866 126.125 851.97 126.125C852.991 126.125 853.928 126.5 854.533 127.271C855.158 128.062 855.408 129.208 855.408 130.354C855.408 131.521 855.158 132.687 854.533 133.458ZM868.262 125.437C867.283 124.604 866.074 124.396 864.928 124.479C863.908 124.521 862.824 124.896 862.095 125.688C861.928 125.875 861.762 126.042 861.637 126.229V124.75H859.991V136H861.845V131.083V131.062C861.845 130.208 861.845 129.354 861.991 128.687C862.116 127.958 862.449 127.312 862.97 126.875C863.449 126.458 864.074 126.25 864.741 126.208C865.553 126.187 866.283 126.396 866.824 126.833C867.824 127.625 867.991 129 867.991 130.604V136H869.866V130.542C869.887 128.604 869.72 126.625 868.262 125.437ZM886.672 125.333C885.984 124.708 884.984 124.458 884.109 124.458C882.797 124.458 881.547 125.083 880.818 126.167C880.776 126.208 880.755 126.271 880.734 126.312C880.547 125.979 880.297 125.646 879.943 125.333C879.255 124.708 878.255 124.458 877.38 124.458C876.151 124.458 874.984 125 874.234 125.958V124.75H872.568V136H874.443V128.854C874.443 128.167 874.526 127.583 875.005 126.979C875.464 126.417 876.172 126.104 876.901 126.104C877.484 126.104 878.068 126.333 878.484 126.729C879.234 127.375 879.318 128.062 879.318 129.187L879.297 136H881.151L881.172 129.083V128.854C881.172 128.167 881.255 127.583 881.734 126.979C882.193 126.417 882.901 126.104 883.63 126.104C884.214 126.104 884.797 126.333 885.214 126.729C885.964 127.375 886.047 128.062 886.047 129.187L886.026 136H887.88L887.901 129.083C887.901 127.5 887.839 126.375 886.672 125.333ZM898.906 125.437C897.927 124.604 896.719 124.396 895.573 124.479C894.552 124.521 893.469 124.896 892.74 125.688C892.573 125.875 892.406 126.042 892.281 126.229V124.75H890.635V136H892.49V131.083V131.062C892.49 130.208 892.49 129.354 892.635 128.687C892.76 127.958 893.094 127.312 893.615 126.875C894.094 126.458 894.719 126.25 895.385 126.208C896.198 126.187 896.927 126.396 897.469 126.833C898.469 127.625 898.635 129 898.635 130.604V136H900.51V130.542C900.531 128.604 900.365 126.625 898.906 125.437ZM904.504 131H913.4C913.504 129.187 913.15 127.542 912.129 126.271C911.129 125.042 909.629 124.437 908.004 124.437C906.379 124.437 904.879 125.042 903.879 126.271C902.962 127.417 902.587 128.917 902.587 130.437C902.587 131.854 902.962 133.292 903.879 134.458C904.858 135.667 906.462 136.312 908.087 136.312C910.233 136.312 911.962 135.354 912.983 133.583L911.587 132.667C910.733 134.021 909.566 134.646 908.004 134.646C906.941 134.646 905.9 134.229 905.296 133.396C904.796 132.729 904.566 131.896 904.504 131ZM908.004 126.083C909.087 126.083 910.108 126.5 910.712 127.333C911.108 127.854 911.358 128.542 911.462 129.312H904.546C904.65 128.583 904.879 127.875 905.296 127.333C905.9 126.5 906.941 126.083 908.004 126.083ZM918.608 126.271H922.004V124.75H918.608V121.625H916.754V124.75H914.462V126.271H916.754V131.75C916.754 132.854 916.775 133.75 917.171 134.562C917.587 135.396 918.358 135.875 919.358 136.083C920.108 136.25 921.212 136.208 922.004 136V134.354C921.421 134.458 920.733 134.479 920.15 134.437C919.608 134.375 919.087 134.083 918.858 133.604C918.587 133.146 918.608 132.562 918.608 131.646V126.271Z" fill="#110529"/>
<path d="M655 186L654.293 185.293L653.586 186L654.293 186.707L655 186ZM662.293 194.707L663 195.414L664.414 194L663.707 193.293L662.293 194.707ZM663.707 178.707L664.414 178L663 176.586L662.293 177.293L663.707 178.707ZM686 185L655 185L655 187L686 187L686 185ZM654.293 186.707L662.293 194.707L663.707 193.293L655.707 185.293L654.293 186.707ZM655.707 186.707L663.707 178.707L662.293 177.293L654.293 185.293L655.707 186.707Z" fill="#110529"/>
<path d="M708.979 175.25C708.813 174.896 708.604 174.583 708.375 174.271C707.375 173.042 705.875 172.437 704.25 172.437C702.646 172.437 701.146 173 700.125 174.271C699.188 175.458 698.854 176.896 698.833 178.375C698.854 179.833 699.188 181.292 700.125 182.458C701.125 183.688 702.625 184.333 704.25 184.312C705.854 184.333 707.375 183.688 708.375 182.458C708.604 182.167 708.792 181.854 708.979 181.521L707.208 180.771C707.125 180.958 707.021 181.146 706.875 181.333C706.292 182.125 705.292 182.542 704.25 182.542C703.208 182.542 702.208 182.125 701.625 181.333C701 180.521 700.812 179.437 700.792 178.375C700.812 177.292 701 176.208 701.625 175.417C702.208 174.604 703.208 174.187 704.25 174.187C705.292 174.187 706.292 174.604 706.875 175.417C707.021 175.583 707.146 175.792 707.229 176L708.979 175.25ZM711.158 184V168.687H713.012V184H711.158ZM720.715 184.312C722.361 184.312 723.84 183.708 724.84 182.458C725.798 181.271 726.152 179.875 726.152 178.354C726.152 176.896 725.819 175.458 724.84 174.271C723.861 173.042 722.34 172.437 720.715 172.437C719.09 172.437 717.548 173.083 716.59 174.271C715.673 175.417 715.298 176.875 715.298 178.354C715.298 179.854 715.652 181.271 716.59 182.458C717.59 183.688 719.09 184.312 720.715 184.312ZM723.361 181.333C722.777 182.125 721.777 182.542 720.715 182.542C719.673 182.542 718.673 182.125 718.09 181.333C717.465 180.521 717.277 179.437 717.277 178.354C717.277 177.292 717.465 176.187 718.09 175.396C718.673 174.583 719.673 174.187 720.715 174.187C721.777 174.187 722.777 174.583 723.361 175.396C723.986 176.187 724.173 177.292 724.173 178.354C724.173 179.437 723.986 180.521 723.361 181.333ZM736.734 173.437C735.755 172.604 734.547 172.396 733.401 172.479C732.38 172.521 731.297 172.896 730.568 173.688C730.401 173.875 730.234 174.042 730.109 174.229V172.75H728.464V184H730.318V179.083V179.062C730.318 178.208 730.318 177.354 730.464 176.687C730.589 175.958 730.922 175.312 731.443 174.875C731.922 174.458 732.547 174.25 733.214 174.208C734.026 174.187 734.755 174.396 735.297 174.833C736.297 175.625 736.464 177 736.464 178.604V184H738.339V178.542C738.359 176.604 738.193 174.625 736.734 173.437ZM742.332 179H751.228C751.332 177.187 750.978 175.542 749.957 174.271C748.957 173.042 747.457 172.437 745.832 172.437C744.207 172.437 742.707 173.042 741.707 174.271C740.79 175.417 740.415 176.917 740.415 178.437C740.415 179.854 740.79 181.292 741.707 182.458C742.686 183.667 744.29 184.312 745.915 184.312C748.061 184.312 749.79 183.354 750.811 181.583L749.415 180.667C748.561 182.021 747.395 182.646 745.832 182.646C744.77 182.646 743.728 182.229 743.124 181.396C742.624 180.729 742.395 179.896 742.332 179ZM745.832 174.083C746.915 174.083 747.936 174.5 748.54 175.333C748.936 175.854 749.186 176.542 749.29 177.312H742.374C742.478 176.583 742.707 175.875 743.124 175.333C743.728 174.5 744.77 174.083 745.832 174.083ZM708.479 204V197.125C708.479 195.771 708.146 194.417 707.104 193.542C706.354 192.875 705.208 192.437 704.063 192.437C702.208 192.437 700.708 193 699.542 194.333L700.708 195.583C701.625 194.5 702.708 194.208 703.875 194.208C705.438 194.208 706.542 194.979 706.604 196.542C704.438 196.875 702.208 197.062 700.812 197.75C699.417 198.458 698.833 199.458 698.833 200.896C698.833 202.979 700.354 204.312 702.542 204.312C704.417 204.312 705.792 203.771 706.833 202.292V204H708.479ZM706.188 200.937C705.563 202.062 704.375 202.687 702.896 202.687C701.625 202.687 700.688 201.917 700.688 200.729C700.688 199.646 701.729 198.979 703 198.708C703.792 198.521 705.063 198.312 706.625 198.062C706.625 199.292 706.625 200.146 706.188 200.937ZM711.197 204V188.687H713.051V204H711.197ZM716.171 188.937V190.854H718.025V188.937H716.171ZM716.171 192.75V204H718.025V192.75H716.171ZM729.408 192.75V194.021C728.491 193 727.116 192.437 725.678 192.437C724.137 192.437 722.699 193.062 721.783 194.229C720.887 195.375 720.533 196.875 720.533 198.354C720.533 199.833 720.845 201.312 721.783 202.5C722.72 203.667 724.158 204.312 725.678 204.312C727.074 204.312 728.324 203.854 729.199 202.937V204.063C729.199 205.438 729.033 206.125 728.262 206.771C727.637 207.292 726.72 207.521 725.824 207.521C725.012 207.521 724.095 207.229 723.553 206.604C723.366 206.417 723.199 206.229 723.074 206.021L721.366 206.854C721.658 207.375 722.158 207.833 722.637 208.125C723.449 208.896 724.658 209.312 725.824 209.312C726.949 209.312 728.178 209.104 729.283 208.313C730.595 207.396 731.053 206.208 731.053 204.083V192.75H729.408ZM728.533 201.458C727.908 202.229 726.949 202.604 725.908 202.604C724.887 202.604 723.887 202.208 723.283 201.354C722.699 200.583 722.512 199.479 722.512 198.354C722.512 197.229 722.72 196.146 723.303 195.375C723.908 194.521 724.866 194.125 725.97 194.125C726.991 194.125 727.928 194.5 728.533 195.271C729.158 196.062 729.408 197.208 729.408 198.354C729.408 199.521 729.158 200.687 728.533 201.458ZM742.262 193.437C741.283 192.604 740.074 192.396 738.928 192.479C737.908 192.521 736.824 192.896 736.095 193.688C735.928 193.875 735.762 194.042 735.637 194.229V192.75H733.991V204H735.845V199.083V199.062C735.845 198.208 735.845 197.354 735.991 196.687C736.116 195.958 736.449 195.312 736.97 194.875C737.449 194.458 738.074 194.25 738.741 194.208C739.553 194.187 740.283 194.396 740.824 194.833C741.824 195.625 741.991 197 741.991 198.604V204H743.866V198.542C743.887 196.604 743.72 194.625 742.262 193.437ZM760.672 193.333C759.984 192.708 758.984 192.458 758.109 192.458C756.797 192.458 755.547 193.083 754.818 194.167C754.776 194.208 754.755 194.271 754.734 194.312C754.547 193.979 754.297 193.646 753.943 193.333C753.255 192.708 752.255 192.458 751.38 192.458C750.151 192.458 748.984 193 748.234 193.958V192.75H746.568V204H748.443V196.854C748.443 196.167 748.526 195.583 749.005 194.979C749.464 194.417 750.172 194.104 750.901 194.104C751.484 194.104 752.068 194.333 752.484 194.729C753.234 195.375 753.318 196.062 753.318 197.187L753.297 204H755.151L755.172 197.083V196.854C755.172 196.167 755.255 195.583 755.734 194.979C756.193 194.417 756.901 194.104 757.63 194.104C758.214 194.104 758.797 194.333 759.214 194.729C759.964 195.375 760.047 196.062 760.047 197.187L760.026 204H761.88L761.901 197.083C761.901 195.5 761.839 194.375 760.672 193.333ZM765.906 199H774.802C774.906 197.187 774.552 195.542 773.531 194.271C772.531 193.042 771.031 192.437 769.406 192.437C767.781 192.437 766.281 193.042 765.281 194.271C764.365 195.417 763.99 196.917 763.99 198.437C763.99 199.854 764.365 201.292 765.281 202.458C766.26 203.667 767.865 204.312 769.49 204.312C771.635 204.312 773.365 203.354 774.385 201.583L772.99 200.667C772.135 202.021 770.969 202.646 769.406 202.646C768.344 202.646 767.302 202.229 766.698 201.396C766.198 200.729 765.969 199.896 765.906 199ZM769.406 194.083C770.49 194.083 771.51 194.5 772.115 195.333C772.51 195.854 772.76 196.542 772.865 197.312H765.948C766.052 196.583 766.281 195.875 766.698 195.333C767.302 194.5 768.344 194.083 769.406 194.083ZM785.094 193.437C784.115 192.604 782.906 192.396 781.76 192.479C780.74 192.521 779.656 192.896 778.927 193.688C778.76 193.875 778.594 194.042 778.469 194.229V192.75H776.823V204H778.677V199.083V199.062C778.677 198.208 778.677 197.354 778.823 196.687C778.948 195.958 779.281 195.312 779.802 194.875C780.281 194.458 780.906 194.25 781.573 194.208C782.385 194.187 783.115 194.396 783.656 194.833C784.656 195.625 784.823 197 784.823 198.604V204H786.698V198.542C786.719 196.604 786.552 194.625 785.094 193.437ZM792.296 194.271H795.691V192.75H792.296V189.625H790.441V192.75H788.15V194.271H790.441V199.75C790.441 200.854 790.462 201.75 790.858 202.562C791.275 203.396 792.046 203.875 793.046 204.083C793.796 204.25 794.9 204.208 795.691 204V202.354C795.108 202.458 794.421 202.479 793.837 202.437C793.296 202.375 792.775 202.083 792.546 201.604C792.275 201.146 792.296 200.562 792.296 199.646V194.271Z" fill="#110529"/>
<path d="M66.6667 41V56H68.5208V41H66.6667ZM80.3555 45.4375C79.3763 44.6042 78.168 44.3958 77.0221 44.4792C76.0013 44.5208 74.918 44.8958 74.1888 45.6875C74.0221 45.875 73.8555 46.0417 73.7305 46.2292V44.75H72.0846V56H73.9388V51.0833V51.0625C73.9388 50.2083 73.9388 49.3542 74.0846 48.6875C74.2096 47.9583 74.543 47.3125 75.0638 46.875C75.543 46.4583 76.168 46.25 76.8346 46.2083C77.6471 46.1875 78.3763 46.3958 78.918 46.8333C79.918 47.625 80.0846 49 80.0846 50.6042V56H81.9596V50.5417C81.9805 48.6042 81.8138 46.625 80.3555 45.4375ZM84.8698 40.9375V42.8542H86.724V40.9375H84.8698ZM84.8698 44.75V56H86.724V44.75H84.8698ZM92.7526 46.2708H96.1484V44.75H92.7526V41.625H90.8984V44.75H88.6068V46.2708H90.8984V51.75C90.8984 52.8542 90.9193 53.75 91.3151 54.5625C91.7318 55.3958 92.5026 55.875 93.5026 56.0833C94.2526 56.25 95.3568 56.2083 96.1484 56V54.3542C95.5651 54.4583 94.8776 54.4792 94.2943 54.4375C93.7526 54.375 93.2318 54.0833 93.0026 53.6042C92.7318 53.1458 92.7526 52.5625 92.7526 51.6458V46.2708ZM98.6393 40.9375V42.8542H100.493V40.9375H98.6393ZM98.6393 44.75V56H100.493V44.75H98.6393ZM112.647 56V49.125C112.647 47.7708 112.314 46.4167 111.272 45.5417C110.522 44.875 109.376 44.4375 108.23 44.4375C106.376 44.4375 104.876 45 103.71 46.3333L104.876 47.5833C105.793 46.5 106.876 46.2083 108.043 46.2083C109.605 46.2083 110.71 46.9792 110.772 48.5417C108.605 48.875 106.376 49.0625 104.98 49.75C103.585 50.4583 103.001 51.4583 103.001 52.8958C103.001 54.9792 104.522 56.3125 106.71 56.3125C108.585 56.3125 109.96 55.7708 111.001 54.2917V56H112.647ZM110.355 52.9375C109.73 54.0625 108.543 54.6875 107.064 54.6875C105.793 54.6875 104.855 53.9167 104.855 52.7292C104.855 51.6458 105.897 50.9792 107.168 50.7083C107.96 50.5208 109.23 50.3125 110.793 50.0625C110.793 51.2917 110.793 52.1458 110.355 52.9375ZM115.365 56V40.6875H117.219V56H115.365ZM120.13 56V40.6875H121.984V56H120.13ZM132.917 44.75L129.479 53.9375L125.75 44.75H123.854L128.604 56.3333C127.958 58.0625 127.625 58.7292 127.229 59.0208C126.938 59.2292 126.5 59.2708 126.083 59.25L125.729 59.2083V61H126C126.792 61 127.5 60.9375 128.146 60.4583C128.792 60 129.292 59.1875 129.729 58.0417L134.792 44.75H132.917ZM150.069 56V49.125C150.069 47.7708 149.736 46.4167 148.694 45.5417C147.944 44.875 146.798 44.4375 145.652 44.4375C143.798 44.4375 142.298 45 141.132 46.3333L142.298 47.5833C143.215 46.5 144.298 46.2083 145.465 46.2083C147.027 46.2083 148.132 46.9792 148.194 48.5417C146.027 48.875 143.798 49.0625 142.402 49.75C141.007 50.4583 140.423 51.4583 140.423 52.8958C140.423 54.9792 141.944 56.3125 144.132 56.3125C146.007 56.3125 147.382 55.7708 148.423 54.2917V56H150.069ZM147.777 52.9375C147.152 54.0625 145.965 54.6875 144.486 54.6875C143.215 54.6875 142.277 53.9167 142.277 52.7292C142.277 51.6458 143.319 50.9792 144.59 50.7083C145.382 50.5208 146.652 50.3125 148.215 50.0625C148.215 51.2917 148.215 52.1458 147.777 52.9375ZM161.703 47.6875C161.37 46.6042 160.432 45.5208 159.37 44.9792C158.62 44.6042 157.766 44.4375 156.995 44.4375C156.203 44.4167 155.391 44.5 154.578 44.8542C153.516 45.3333 152.682 46.3542 152.682 47.5833C152.682 48.1667 152.891 48.9583 153.411 49.4583C153.974 50.0208 154.724 50.3125 155.411 50.5625C156.036 50.75 156.536 50.8958 157.87 51.2708C158.599 51.4792 159.016 51.6458 159.391 51.875C159.828 52.1458 160.016 52.5625 160.016 52.9375C160.016 53.4375 159.766 53.8542 159.349 54.1458C158.849 54.4792 157.932 54.6458 157.245 54.6458C156.307 54.6458 155.307 54.3958 154.661 53.6667C154.266 53.2292 154.016 52.4792 153.932 51.875L152.161 52.3125C152.474 53.375 152.62 54.0208 153.349 54.8333C154.349 55.9167 155.682 56.3125 157.224 56.3125C158.328 56.3125 159.37 56.1458 160.286 55.5417C161.182 55 161.745 53.9583 161.745 52.9583C161.745 52.0208 161.328 51.2083 160.536 50.5833C159.911 50.0833 159.141 49.7708 158.37 49.5625C157.411 49.3125 156.724 49.125 156.12 48.9375C155.516 48.7708 155.182 48.625 154.911 48.4375C154.536 48.1875 154.432 47.8958 154.432 47.5208C154.432 47.0208 154.849 46.5833 155.307 46.375C155.745 46.1875 156.328 46.0625 156.891 46.0833C157.474 46.1042 158.12 46.25 158.578 46.5C159.224 46.8542 159.682 47.4375 159.932 48.125L161.703 47.6875ZM172.973 47.6875C172.639 46.6042 171.702 45.5208 170.639 44.9792C169.889 44.6042 169.035 44.4375 168.264 44.4375C167.473 44.4167 166.66 44.5 165.848 44.8542C164.785 45.3333 163.952 46.3542 163.952 47.5833C163.952 48.1667 164.16 48.9583 164.681 49.4583C165.243 50.0208 165.993 50.3125 166.681 50.5625C167.306 50.75 167.806 50.8958 169.139 51.2708C169.868 51.4792 170.285 51.6458 170.66 51.875C171.098 52.1458 171.285 52.5625 171.285 52.9375C171.285 53.4375 171.035 53.8542 170.618 54.1458C170.118 54.4792 169.202 54.6458 168.514 54.6458C167.577 54.6458 166.577 54.3958 165.931 53.6667C165.535 53.2292 165.285 52.4792 165.202 51.875L163.431 52.3125C163.743 53.375 163.889 54.0208 164.618 54.8333C165.618 55.9167 166.952 56.3125 168.493 56.3125C169.598 56.3125 170.639 56.1458 171.556 55.5417C172.452 55 173.014 53.9583 173.014 52.9583C173.014 52.0208 172.598 51.2083 171.806 50.5833C171.181 50.0833 170.41 49.7708 169.639 49.5625C168.681 49.3125 167.993 49.125 167.389 48.9375C166.785 48.7708 166.452 48.625 166.181 48.4375C165.806 48.1875 165.702 47.8958 165.702 47.5208C165.702 47.0208 166.118 46.5833 166.577 46.375C167.014 46.1875 167.598 46.0625 168.16 46.0833C168.743 46.1042 169.389 46.25 169.848 46.5C170.493 46.8542 170.952 47.4375 171.202 48.125L172.973 47.6875ZM176.617 51H185.513C185.617 49.1875 185.263 47.5417 184.242 46.2708C183.242 45.0417 181.742 44.4375 180.117 44.4375C178.492 44.4375 176.992 45.0417 175.992 46.2708C175.076 47.4167 174.701 48.9167 174.701 50.4375C174.701 51.8542 175.076 53.2917 175.992 54.4583C176.971 55.6667 178.576 56.3125 180.201 56.3125C182.346 56.3125 184.076 55.3542 185.096 53.5833L183.701 52.6667C182.846 54.0208 181.68 54.6458 180.117 54.6458C179.055 54.6458 178.013 54.2292 177.409 53.3958C176.909 52.7292 176.68 51.8958 176.617 51ZM180.117 46.0833C181.201 46.0833 182.221 46.5 182.826 47.3333C183.221 47.8542 183.471 48.5417 183.576 49.3125H176.659C176.763 48.5833 176.992 47.875 177.409 47.3333C178.013 46.5 179.055 46.0833 180.117 46.0833ZM201.617 45.3333C200.93 44.7083 199.93 44.4583 199.055 44.4583C197.742 44.4583 196.492 45.0833 195.763 46.1667C195.721 46.2083 195.701 46.2708 195.68 46.3125C195.492 45.9792 195.242 45.6458 194.888 45.3333C194.201 44.7083 193.201 44.4583 192.326 44.4583C191.096 44.4583 189.93 45 189.18 45.9583V44.75H187.513V56H189.388V48.8542C189.388 48.1667 189.471 47.5833 189.951 46.9792C190.409 46.4167 191.117 46.1042 191.846 46.1042C192.43 46.1042 193.013 46.3333 193.43 46.7292C194.18 47.375 194.263 48.0625 194.263 49.1875L194.242 56H196.096L196.117 49.0833V48.8542C196.117 48.1667 196.201 47.5833 196.68 46.9792C197.138 46.4167 197.846 46.1042 198.576 46.1042C199.159 46.1042 199.742 46.3333 200.159 46.7292C200.909 47.375 200.992 48.0625 200.992 49.1875L200.971 56H202.826L202.846 49.0833C202.846 47.5 202.784 46.375 201.617 45.3333ZM214.852 46.2292C213.935 45.0625 212.497 44.4375 210.956 44.4375C209.622 44.4375 208.352 44.9375 207.435 45.8125V41H205.56V56H207.227V54.6875C208.122 55.7708 209.456 56.3125 210.956 56.3125C212.477 56.3125 213.914 55.6667 214.852 54.5C215.789 53.3125 216.102 51.8333 216.102 50.3542C216.102 48.875 215.747 47.375 214.852 46.2292ZM213.352 53.3542C212.747 54.2083 211.747 54.6042 210.727 54.6042C209.685 54.6042 208.727 54.2292 208.102 53.4583C207.477 52.6875 207.227 51.5208 207.227 50.3542C207.227 49.2083 207.477 48.0625 208.102 47.2708C208.706 46.5 209.643 46.125 210.664 46.125C211.768 46.125 212.727 46.5208 213.331 47.375C213.914 48.1458 214.122 49.2292 214.122 50.3542C214.122 51.4792 213.935 52.5833 213.352 53.3542ZM218.392 56V40.6875H220.246V56H218.392ZM224.449 51H233.345C233.449 49.1875 233.095 47.5417 232.074 46.2708C231.074 45.0417 229.574 44.4375 227.949 44.4375C226.324 44.4375 224.824 45.0417 223.824 46.2708C222.908 47.4167 222.533 48.9167 222.533 50.4375C222.533 51.8542 222.908 53.2917 223.824 54.4583C224.803 55.6667 226.408 56.3125 228.033 56.3125C230.178 56.3125 231.908 55.3542 232.928 53.5833L231.533 52.6667C230.678 54.0208 229.512 54.6458 227.949 54.6458C226.887 54.6458 225.845 54.2292 225.241 53.3958C224.741 52.7292 224.512 51.8958 224.449 51ZM227.949 46.0833C229.033 46.0833 230.053 46.5 230.658 47.3333C231.053 47.8542 231.303 48.5417 231.408 49.3125H224.491C224.595 48.5833 224.824 47.875 225.241 47.3333C225.845 46.5 226.887 46.0833 227.949 46.0833ZM243.72 41V45.8125C242.824 44.9375 241.533 44.4375 240.178 44.4375C238.658 44.4375 237.22 45.0625 236.303 46.2292C235.408 47.375 235.053 48.875 235.053 50.3542C235.053 51.8333 235.366 53.3125 236.303 54.5C237.241 55.6667 238.658 56.3125 240.199 56.3125C241.699 56.3125 243.033 55.7708 243.928 54.6875V56H245.574V41H243.72ZM243.033 53.4583C242.428 54.2292 241.47 54.6042 240.428 54.6042C239.408 54.6042 238.387 54.2083 237.783 53.3542C237.22 52.5833 237.012 51.4792 237.012 50.3542C237.012 49.2292 237.241 48.1458 237.803 47.375C238.408 46.5208 239.387 46.125 240.47 46.125C241.491 46.125 242.449 46.5 243.033 47.2708C243.678 48.0625 243.928 49.2083 243.928 50.3542C243.928 51.5208 243.678 52.6875 243.033 53.4583ZM264.267 51.0208C264.1 51.6458 263.809 52.25 263.434 52.7708C262.559 53.9583 261.079 54.5625 259.579 54.5417C258.079 54.5417 256.6 53.9583 255.725 52.7708C254.829 51.5833 254.559 50.0208 254.538 48.5C254.559 46.9583 254.829 45.3958 255.725 44.2292C256.6 43.0417 258.079 42.4375 259.579 42.4583C261.079 42.4583 262.559 43.0417 263.434 44.2292C263.871 44.7917 264.142 45.4583 264.329 46.1458L266.246 45.8333C265.996 44.875 265.579 43.9375 264.913 43.0833C263.663 41.4792 261.684 40.6875 259.579 40.6875C257.454 40.6875 255.496 41.4583 254.246 43.0833C253.017 44.625 252.579 46.5208 252.559 48.5C252.538 50.4167 253.017 52.3542 254.246 53.8958C255.496 55.4792 257.434 56.3125 259.579 56.3125C261.663 56.3125 263.621 55.5417 264.913 53.8958C265.475 53.1875 265.871 52.375 266.121 51.5625L264.267 51.0208ZM280.438 48.5417C280.438 50.5625 279.833 52.6458 278.563 54.0208C277.333 55.375 275.542 55.9792 273.688 55.9792H268.646V40.9792L273.729 41C275.667 41 277.375 41.6458 278.563 42.9792C279.917 44.4375 280.438 46.4583 280.438 48.5417ZM278.479 48.5417C278.5 46.9167 278.125 45.3125 277.167 44.2083C276.271 43.1875 275.083 42.7917 273.708 42.7708L270.563 42.7917V54.1875L273.688 54.2292C275.063 54.2083 276.313 53.75 277.188 52.7708C278.125 51.6875 278.458 50.0625 278.479 48.5417ZM294.201 56L291.263 49.9792C291.909 49.6875 292.471 49.25 292.888 48.7083C293.576 47.875 293.992 46.8125 293.992 45.7292C293.971 44.6042 293.534 43.4583 292.784 42.625C292.263 42 291.555 41.5208 290.784 41.2708C290.284 41.0833 289.763 41 289.221 41H282.826V56H284.68V50.4375H289.221H289.388L292.076 56H294.201ZM284.68 42.7708H289.221C289.951 42.7708 290.742 43.1458 291.263 43.6875C291.784 44.2292 292.055 44.9583 292.076 45.7292C292.096 46.3958 291.846 47.0625 291.43 47.5833C290.867 48.2708 290.013 48.6875 289.221 48.6875H284.68V42.7708ZM304.72 48.0208C303.928 47.2083 302.866 46.75 301.658 46.6667L305.72 42.8333V41H296.887V42.7708H303.199L298.553 47.1667L299.449 48.6458C299.908 48.3958 300.491 48.25 300.991 48.25C301.762 48.25 302.491 48.4792 303.053 48.9792C303.72 49.5833 304.012 50.4792 304.012 51.375C304.012 52.3125 303.72 53.2292 302.97 53.8333C302.449 54.2708 301.741 54.5 301.012 54.5208C300.303 54.5208 299.595 54.2917 299.053 53.8542C298.574 53.5 298.262 52.9792 298.074 52.3958L296.283 52.9167C296.553 53.7917 297.095 54.625 297.824 55.2083C298.741 55.9375 299.887 56.3125 301.033 56.2917C302.158 56.2708 303.324 55.9375 304.22 55.1875C305.324 54.2917 305.887 52.875 305.928 51.375C305.949 50.1458 305.553 48.8958 304.72 48.0208ZM322.757 47.25C322.59 46.8958 322.382 46.5833 322.152 46.2708C321.152 45.0417 319.652 44.4375 318.027 44.4375C316.423 44.4375 314.923 45 313.902 46.2708C312.965 47.4583 312.632 48.8958 312.611 50.375C312.632 51.8333 312.965 53.2917 313.902 54.4583C314.902 55.6875 316.402 56.3333 318.027 56.3125C319.632 56.3333 321.152 55.6875 322.152 54.4583C322.382 54.1667 322.569 53.8542 322.757 53.5208L320.986 52.7708C320.902 52.9583 320.798 53.1458 320.652 53.3333C320.069 54.125 319.069 54.5417 318.027 54.5417C316.986 54.5417 315.986 54.125 315.402 53.3333C314.777 52.5208 314.59 51.4375 314.569 50.375C314.59 49.2917 314.777 48.2083 315.402 47.4167C315.986 46.6042 316.986 46.1875 318.027 46.1875C319.069 46.1875 320.069 46.6042 320.652 47.4167C320.798 47.5833 320.923 47.7917 321.007 48L322.757 47.25ZM324.935 56V40.6875H326.789V56H324.935ZM334.492 56.3125C336.138 56.3125 337.617 55.7083 338.617 54.4583C339.576 53.2708 339.93 51.875 339.93 50.3542C339.93 48.8958 339.596 47.4583 338.617 46.2708C337.638 45.0417 336.117 44.4375 334.492 44.4375C332.867 44.4375 331.326 45.0833 330.367 46.2708C329.451 47.4167 329.076 48.875 329.076 50.3542C329.076 51.8542 329.43 53.2708 330.367 54.4583C331.367 55.6875 332.867 56.3125 334.492 56.3125ZM337.138 53.3333C336.555 54.125 335.555 54.5417 334.492 54.5417C333.451 54.5417 332.451 54.125 331.867 53.3333C331.242 52.5208 331.055 51.4375 331.055 50.3542C331.055 49.2917 331.242 48.1875 331.867 47.3958C332.451 46.5833 333.451 46.1875 334.492 46.1875C335.555 46.1875 336.555 46.5833 337.138 47.3958C337.763 48.1875 337.951 49.2917 337.951 50.3542C337.951 51.4375 337.763 52.5208 337.138 53.3333ZM350.512 45.4375C349.533 44.6042 348.324 44.3958 347.178 44.4792C346.158 44.5208 345.074 44.8958 344.345 45.6875C344.178 45.875 344.012 46.0417 343.887 46.2292V44.75H342.241V56H344.095V51.0833V51.0625C344.095 50.2083 344.095 49.3542 344.241 48.6875C344.366 47.9583 344.699 47.3125 345.22 46.875C345.699 46.4583 346.324 46.25 346.991 46.2083C347.803 46.1875 348.533 46.3958 349.074 46.8333C350.074 47.625 350.241 49 350.241 50.6042V56H352.116V50.5417C352.137 48.6042 351.97 46.625 350.512 45.4375ZM356.109 51H365.005C365.109 49.1875 364.755 47.5417 363.734 46.2708C362.734 45.0417 361.234 44.4375 359.609 44.4375C357.984 44.4375 356.484 45.0417 355.484 46.2708C354.568 47.4167 354.193 48.9167 354.193 50.4375C354.193 51.8542 354.568 53.2917 355.484 54.4583C356.464 55.6667 358.068 56.3125 359.693 56.3125C361.839 56.3125 363.568 55.3542 364.589 53.5833L363.193 52.6667C362.339 54.0208 361.172 54.6458 359.609 54.6458C358.547 54.6458 357.505 54.2292 356.901 53.3958C356.401 52.7292 356.172 51.8958 356.109 51ZM359.609 46.0833C360.693 46.0833 361.714 46.5 362.318 47.3333C362.714 47.8542 362.964 48.5417 363.068 49.3125H356.151C356.255 48.5833 356.484 47.875 356.901 47.3333C357.505 46.5 358.547 46.0833 359.609 46.0833Z" fill="#110529"/>
<path d="M409 50L409.707 49.2929L410.414 50L409.707 50.7071L409 50ZM401.707 58.7071L401 59.4142L399.586 58L400.293 57.2929L401.707 58.7071ZM400.293 42.7071L399.586 42L401 40.5858L401.707 41.2929L400.293 42.7071ZM378 49L409 49L409 51L378 51L378 49ZM409.707 50.7071L401.707 58.7071L400.293 57.2929L408.293 49.2929L409.707 50.7071ZM408.293 50.7071L400.293 42.7071L401.707 41.2929L409.707 49.2929L408.293 50.7071Z" fill="#110529"/>
<path d="M445.209 58H447.792L452.813 43H450.896L446.48 56.0208L442.126 43H440.188L445.209 58Z" fill="#110529"/>
<defs>
<filter id="filter0_i_4694_30587" x="581" y="91" width="184" height="54" filterUnits="userSpaceOnUse" color-interpolation-filters="sRGB">
<feFlood flood-opacity="0" result="BackgroundImageFix"/>
<feBlend mode="normal" in="SourceGraphic" in2="BackgroundImageFix" result="shape"/>
<feColorMatrix in="SourceAlpha" type="matrix" values="0 0 0 0 0 0 0 0 0 0 0 0 0 0 0 0 0 0 127 0" result="hardAlpha"/>
<feOffset dx="-8" dy="-4"/>
<feComposite in2="hardAlpha" operator="arithmetic" k2="-1" k3="1"/>
<feColorMatrix type="matrix" values="0 0 0 0 0.0666667 0 0 0 0 0.0196078 0 0 0 0 0.160784 0 0 0 0.16 0"/>
<feBlend mode="normal" in2="shape" result="effect1_innerShadow_4694_30587"/>
</filter>
<filter id="filter1_i_4694_30587" x="581" y="23" width="42" height="54" filterUnits="userSpaceOnUse" color-interpolation-filters="sRGB">
<feFlood flood-opacity="0" result="BackgroundImageFix"/>
<feBlend mode="normal" in="SourceGraphic" in2="BackgroundImageFix" result="shape"/>
<feColorMatrix in="SourceAlpha" type="matrix" values="0 0 0 0 0 0 0 0 0 0 0 0 0 0 0 0 0 0 127 0" result="hardAlpha"/>
<feOffset dx="-8" dy="-4"/>
<feComposite in2="hardAlpha" operator="arithmetic" k2="-1" k3="1"/>
<feColorMatrix type="matrix" values="0 0 0 0 0.0666667 0 0 0 0 0.0196078 0 0 0 0 0.160784 0 0 0 0.16 0"/>
<feBlend mode="normal" in2="shape" result="effect1_innerShadow_4694_30587"/>
</filter>
<filter id="filter2_i_4694_30587" x="465" y="159" width="34" height="54" filterUnits="userSpaceOnUse" color-interpolation-filters="sRGB">
<feFlood flood-opacity="0" result="BackgroundImageFix"/>
<feBlend mode="normal" in="SourceGraphic" in2="BackgroundImageFix" result="shape"/>
<feColorMatrix in="SourceAlpha" type="matrix" values="0 0 0 0 0 0 0 0 0 0 0 0 0 0 0 0 0 0 127 0" result="hardAlpha"/>
<feOffset dx="-8" dy="-4"/>
<feComposite in2="hardAlpha" operator="arithmetic" k2="-1" k3="1"/>
<feColorMatrix type="matrix" values="0 0 0 0 0.0666667 0 0 0 0 0.0196078 0 0 0 0 0.160784 0 0 0 0.16 0"/>
<feBlend mode="normal" in2="shape" result="effect1_innerShadow_4694_30587"/>
</filter>
<filter id="filter3_i_4694_30587" x="549" y="159" width="34" height="54" filterUnits="userSpaceOnUse" color-interpolation-filters="sRGB">
<feFlood flood-opacity="0" result="BackgroundImageFix"/>
<feBlend mode="normal" in="SourceGraphic" in2="BackgroundImageFix" result="shape"/>
<feColorMatrix in="SourceAlpha" type="matrix" values="0 0 0 0 0 0 0 0 0 0 0 0 0 0 0 0 0 0 127 0" result="hardAlpha"/>
<feOffset dx="-8" dy="-4"/>
<feComposite in2="hardAlpha" operator="arithmetic" k2="-1" k3="1"/>
<feColorMatrix type="matrix" values="0 0 0 0 0.0666667 0 0 0 0 0.0196078 0 0 0 0 0.160784 0 0 0 0.16 0"/>
<feBlend mode="normal" in2="shape" result="effect1_innerShadow_4694_30587"/>
</filter>
<filter id="filter4_i_4694_30587" x="497" y="159" width="54" height="54" filterUnits="userSpaceOnUse" color-interpolation-filters="sRGB">
<feFlood flood-opacity="0" result="BackgroundImageFix"/>
<feBlend mode="normal" in="SourceGraphic" in2="BackgroundImageFix" result="shape"/>
<feColorMatrix in="SourceAlpha" type="matrix" values="0 0 0 0 0 0 0 0 0 0 0 0 0 0 0 0 0 0 127 0" result="hardAlpha"/>
<feOffset dx="-8" dy="-4"/>
<feComposite in2="hardAlpha" operator="arithmetic" k2="-1" k3="1"/>
<feColorMatrix type="matrix" values="0 0 0 0 0.0666667 0 0 0 0 0.0196078 0 0 0 0 0.160784 0 0 0 0.16 0"/>
<feBlend mode="normal" in2="shape" result="effect1_innerShadow_4694_30587"/>
</filter>
<filter id="filter5_i_4694_30587" x="465" y="91" width="34" height="54" filterUnits="userSpaceOnUse" color-interpolation-filters="sRGB">
<feFlood flood-opacity="0" result="BackgroundImageFix"/>
<feBlend mode="normal" in="SourceGraphic" in2="BackgroundImageFix" result="shape"/>
<feColorMatrix in="SourceAlpha" type="matrix" values="0 0 0 0 0 0 0 0 0 0 0 0 0 0 0 0 0 0 127 0" result="hardAlpha"/>
<feOffset dx="-8" dy="-4"/>
<feComposite in2="hardAlpha" operator="arithmetic" k2="-1" k3="1"/>
<feColorMatrix type="matrix" values="0 0 0 0 0.0666667 0 0 0 0 0.0196078 0 0 0 0 0.160784 0 0 0 0.16 0"/>
<feBlend mode="normal" in2="shape" result="effect1_innerShadow_4694_30587"/>
</filter>
<filter id="filter6_i_4694_30587" x="549" y="91" width="34" height="54" filterUnits="userSpaceOnUse" color-interpolation-filters="sRGB">
<feFlood flood-opacity="0" result="BackgroundImageFix"/>
<feBlend mode="normal" in="SourceGraphic" in2="BackgroundImageFix" result="shape"/>
<feColorMatrix in="SourceAlpha" type="matrix" values="0 0 0 0 0 0 0 0 0 0 0 0 0 0 0 0 0 0 127 0" result="hardAlpha"/>
<feOffset dx="-8" dy="-4"/>
<feComposite in2="hardAlpha" operator="arithmetic" k2="-1" k3="1"/>
<feColorMatrix type="matrix" values="0 0 0 0 0.0666667 0 0 0 0 0.0196078 0 0 0 0 0.160784 0 0 0 0.16 0"/>
<feBlend mode="normal" in2="shape" result="effect1_innerShadow_4694_30587"/>
</filter>
<filter id="filter7_i_4694_30587" x="497" y="91" width="54" height="54" filterUnits="userSpaceOnUse" color-interpolation-filters="sRGB">
<feFlood flood-opacity="0" result="BackgroundImageFix"/>
<feBlend mode="normal" in="SourceGraphic" in2="BackgroundImageFix" result="shape"/>
<feColorMatrix in="SourceAlpha" type="matrix" values="0 0 0 0 0 0 0 0 0 0 0 0 0 0 0 0 0 0 127 0" result="hardAlpha"/>
<feOffset dx="-8" dy="-4"/>
<feComposite in2="hardAlpha" operator="arithmetic" k2="-1" k3="1"/>
<feColorMatrix type="matrix" values="0 0 0 0 0.0666667 0 0 0 0 0.0196078 0 0 0 0 0.160784 0 0 0 0.16 0"/>
<feBlend mode="normal" in2="shape" result="effect1_innerShadow_4694_30587"/>
</filter>
<filter id="filter8_i_4694_30587" x="465" y="23" width="34" height="54" filterUnits="userSpaceOnUse" color-interpolation-filters="sRGB">
<feFlood flood-opacity="0" result="BackgroundImageFix"/>
<feBlend mode="normal" in="SourceGraphic" in2="BackgroundImageFix" result="shape"/>
<feColorMatrix in="SourceAlpha" type="matrix" values="0 0 0 0 0 0 0 0 0 0 0 0 0 0 0 0 0 0 127 0" result="hardAlpha"/>
<feOffset dx="-8" dy="-4"/>
<feComposite in2="hardAlpha" operator="arithmetic" k2="-1" k3="1"/>
<feColorMatrix type="matrix" values="0 0 0 0 0.0666667 0 0 0 0 0.0196078 0 0 0 0 0.160784 0 0 0 0.16 0"/>
<feBlend mode="normal" in2="shape" result="effect1_innerShadow_4694_30587"/>
</filter>
<filter id="filter9_i_4694_30587" x="549" y="23" width="34" height="54" filterUnits="userSpaceOnUse" color-interpolation-filters="sRGB">
<feFlood flood-opacity="0" result="BackgroundImageFix"/>
<feBlend mode="normal" in="SourceGraphic" in2="BackgroundImageFix" result="shape"/>
<feColorMatrix in="SourceAlpha" type="matrix" values="0 0 0 0 0 0 0 0 0 0 0 0 0 0 0 0 0 0 127 0" result="hardAlpha"/>
<feOffset dx="-8" dy="-4"/>
<feComposite in2="hardAlpha" operator="arithmetic" k2="-1" k3="1"/>
<feColorMatrix type="matrix" values="0 0 0 0 0.0666667 0 0 0 0 0.0196078 0 0 0 0 0.160784 0 0 0 0.16 0"/>
<feBlend mode="normal" in2="shape" result="effect1_innerShadow_4694_30587"/>
</filter>
<filter id="filter10_i_4694_30587" x="497" y="23" width="54" height="54" filterUnits="userSpaceOnUse" color-interpolation-filters="sRGB">
<feFlood flood-opacity="0" result="BackgroundImageFix"/>
<feBlend mode="normal" in="SourceGraphic" in2="BackgroundImageFix" result="shape"/>
<feColorMatrix in="SourceAlpha" type="matrix" values="0 0 0 0 0 0 0 0 0 0 0 0 0 0 0 0 0 0 127 0" result="hardAlpha"/>
<feOffset dx="-8" dy="-4"/>
<feComposite in2="hardAlpha" operator="arithmetic" k2="-1" k3="1"/>
<feColorMatrix type="matrix" values="0 0 0 0 0.0666667 0 0 0 0 0.0196078 0 0 0 0 0.160784 0 0 0 0.16 0"/>
<feBlend mode="normal" in2="shape" result="effect1_innerShadow_4694_30587"/>
</filter>
<filter id="filter11_i_4694_30587" x="404.738" y="91" width="62.2625" height="54" filterUnits="userSpaceOnUse" color-interpolation-filters="sRGB">
<feFlood flood-opacity="0" result="BackgroundImageFix"/>
<feBlend mode="normal" in="SourceGraphic" in2="BackgroundImageFix" result="shape"/>
<feColorMatrix in="SourceAlpha" type="matrix" values="0 0 0 0 0 0 0 0 0 0 0 0 0 0 0 0 0 0 127 0" result="hardAlpha"/>
<feOffset dx="-8" dy="-4"/>
<feComposite in2="hardAlpha" operator="arithmetic" k2="-1" k3="1"/>
<feColorMatrix type="matrix" values="0 0 0 0 0.0666667 0 0 0 0 0.0196078 0 0 0 0 0.160784 0 0 0 0.16 0"/>
<feBlend mode="normal" in2="shape" result="effect1_innerShadow_4694_30587"/>
</filter>
<filter id="filter12_i_4694_30587" x="364.738" y="159" width="102.262" height="54" filterUnits="userSpaceOnUse" color-interpolation-filters="sRGB">
<feFlood flood-opacity="0" result="BackgroundImageFix"/>
<feBlend mode="normal" in="SourceGraphic" in2="BackgroundImageFix" result="shape"/>
<feColorMatrix in="SourceAlpha" type="matrix" values="0 0 0 0 0 0 0 0 0 0 0 0 0 0 0 0 0 0 127 0" result="hardAlpha"/>
<feOffset dx="-8" dy="-4"/>
<feComposite in2="hardAlpha" operator="arithmetic" k2="-1" k3="1"/>
<feColorMatrix type="matrix" values="0 0 0 0 0.0666667 0 0 0 0 0.0196078 0 0 0 0 0.160784 0 0 0 0.16 0"/>
<feBlend mode="normal" in2="shape" result="effect1_innerShadow_4694_30587"/>
</filter>
<filter id="filter13_i_4694_30587" x="581" y="159" width="58.2625" height="54" filterUnits="userSpaceOnUse" color-interpolation-filters="sRGB">
<feFlood flood-opacity="0" result="BackgroundImageFix"/>
<feBlend mode="normal" in="SourceGraphic" in2="BackgroundImageFix" result="shape"/>
<feColorMatrix in="SourceAlpha" type="matrix" values="0 0 0 0 0 0 0 0 0 0 0 0 0 0 0 0 0 0 127 0" result="hardAlpha"/>
<feOffset dx="-8" dy="-4"/>
<feComposite in2="hardAlpha" operator="arithmetic" k2="-1" k3="1"/>
<feColorMatrix type="matrix" values="0 0 0 0 0.0666667 0 0 0 0 0.0196078 0 0 0 0 0.160784 0 0 0 0.16 0"/>
<feBlend mode="normal" in2="shape" result="effect1_innerShadow_4694_30587"/>
</filter>
<filter id="filter14_i_4694_30587" x="161" y="91" width="113.031" height="54" filterUnits="userSpaceOnUse" color-interpolation-filters="sRGB">
<feFlood flood-opacity="0" result="BackgroundImageFix"/>
<feBlend mode="normal" in="SourceGraphic" in2="BackgroundImageFix" result="shape"/>
<feColorMatrix in="SourceAlpha" type="matrix" values="0 0 0 0 0 0 0 0 0 0 0 0 0 0 0 0 0 0 127 0" result="hardAlpha"/>
<feOffset dx="-8" dy="-4"/>
<feComposite in2="hardAlpha" operator="arithmetic" k2="-1" k3="1"/>
<feColorMatrix type="matrix" values="0 0 0 0 0.0666667 0 0 0 0 0.0196078 0 0 0 0 0.160784 0 0 0 0.16 0"/>
<feBlend mode="normal" in2="shape" result="effect1_innerShadow_4694_30587"/>
</filter>
<filter id="filter15_i_4694_30587" x="123" y="91" width="42" height="54" filterUnits="userSpaceOnUse" color-interpolation-filters="sRGB">
<feFlood flood-opacity="0" result="BackgroundImageFix"/>
<feBlend mode="normal" in="SourceGraphic" in2="BackgroundImageFix" result="shape"/>
<feColorMatrix in="SourceAlpha" type="matrix" values="0 0 0 0 0 0 0 0 0 0 0 0 0 0 0 0 0 0 127 0" result="hardAlpha"/>
<feOffset dx="-8" dy="-4"/>
<feComposite in2="hardAlpha" operator="arithmetic" k2="-1" k3="1"/>
<feColorMatrix type="matrix" values="0 0 0 0 0.0666667 0 0 0 0 0.0196078 0 0 0 0 0.160784 0 0 0 0.16 0"/>
<feBlend mode="normal" in2="shape" result="effect1_innerShadow_4694_30587"/>
</filter>
<filter id="filter16_i_4694_30587" x="151" y="159" width="185.031" height="54" filterUnits="userSpaceOnUse" color-interpolation-filters="sRGB">
<feFlood flood-opacity="0" result="BackgroundImageFix"/>
<feBlend mode="normal" in="SourceGraphic" in2="BackgroundImageFix" result="shape"/>
<feColorMatrix in="SourceAlpha" type="matrix" values="0 0 0 0 0 0 0 0 0 0 0 0 0 0 0 0 0 0 127 0" result="hardAlpha"/>
<feOffset dx="-8" dy="-4"/>
<feComposite in2="hardAlpha" operator="arithmetic" k2="-1" k3="1"/>
<feColorMatrix type="matrix" values="0 0 0 0 0.0666667 0 0 0 0 0.0196078 0 0 0 0 0.160784 0 0 0 0.16 0"/>
<feBlend mode="normal" in2="shape" result="effect1_innerShadow_4694_30587"/>
</filter>
<filter id="filter17_i_4694_30587" x="23" y="159" width="142" height="54" filterUnits="userSpaceOnUse" color-interpolation-filters="sRGB">
<feFlood flood-opacity="0" result="BackgroundImageFix"/>
<feBlend mode="normal" in="SourceGraphic" in2="BackgroundImageFix" result="shape"/>
<feColorMatrix in="SourceAlpha" type="matrix" values="0 0 0 0 0 0 0 0 0 0 0 0 0 0 0 0 0 0 127 0" result="hardAlpha"/>
<feOffset dx="-8" dy="-4"/>
<feComposite in2="hardAlpha" operator="arithmetic" k2="-1" k3="1"/>
<feColorMatrix type="matrix" values="0 0 0 0 0.0666667 0 0 0 0 0.0196078 0 0 0 0 0.160784 0 0 0 0.16 0"/>
<feBlend mode="normal" in2="shape" result="effect1_innerShadow_4694_30587"/>
</filter>
<filter id="filter18_i_4694_30587" x="302.738" y="91" width="73.2932" height="54" filterUnits="userSpaceOnUse" color-interpolation-filters="sRGB">
<feFlood flood-opacity="0" result="BackgroundImageFix"/>
<feBlend mode="normal" in="SourceGraphic" in2="BackgroundImageFix" result="shape"/>
<feColorMatrix in="SourceAlpha" type="matrix" values="0 0 0 0 0 0 0 0 0 0 0 0 0 0 0 0 0 0 127 0" result="hardAlpha"/>
<feOffset dx="-8" dy="-4"/>
<feComposite in2="hardAlpha" operator="arithmetic" k2="-1" k3="1"/>
<feColorMatrix type="matrix" values="0 0 0 0 0.0666667 0 0 0 0 0.0196078 0 0 0 0 0.160784 0 0 0 0.16 0"/>
<feBlend mode="normal" in2="shape" result="effect1_innerShadow_4694_30587"/>
</filter>
<filter id="filter19_i_4694_30587" x="163" y="307" width="305" height="54" filterUnits="userSpaceOnUse" color-interpolation-filters="sRGB">
<feFlood flood-opacity="0" result="BackgroundImageFix"/>
<feBlend mode="normal" in="SourceGraphic" in2="BackgroundImageFix" result="shape"/>
<feColorMatrix in="SourceAlpha" type="matrix" values="0 0 0 0 0 0 0 0 0 0 0 0 0 0 0 0 0 0 127 0" result="hardAlpha"/>
<feOffset dx="-8" dy="-4"/>
<feComposite in2="hardAlpha" operator="arithmetic" k2="-1" k3="1"/>
<feColorMatrix type="matrix" values="0 0 0 0 0.0666667 0 0 0 0 0.0196078 0 0 0 0 0.160784 0 0 0 0.16 0"/>
<feBlend mode="normal" in2="shape" result="effect1_innerShadow_4694_30587"/>
</filter>
<filter id="filter20_i_4694_30587" x="425" y="23" width="42" height="54" filterUnits="userSpaceOnUse" color-interpolation-filters="sRGB">
<feFlood flood-opacity="0" result="BackgroundImageFix"/>
<feBlend mode="normal" in="SourceGraphic" in2="BackgroundImageFix" result="shape"/>
<feColorMatrix in="SourceAlpha" type="matrix" values="0 0 0 0 0 0 0 0 0 0 0 0 0 0 0 0 0 0 127 0" result="hardAlpha"/>
<feOffset dx="-8" dy="-4"/>
<feComposite in2="hardAlpha" operator="arithmetic" k2="-1" k3="1"/>
<feColorMatrix type="matrix" values="0 0 0 0 0.0666667 0 0 0 0 0.0196078 0 0 0 0 0.160784 0 0 0 0.16 0"/>
<feBlend mode="normal" in2="shape" result="effect1_innerShadow_4694_30587"/>
</filter>
<filter id="filter21_i_4694_30587" x="23" y="307" width="142" height="54" filterUnits="userSpaceOnUse" color-interpolation-filters="sRGB">
<feFlood flood-opacity="0" result="BackgroundImageFix"/>
<feBlend mode="normal" in="SourceGraphic" in2="BackgroundImageFix" result="shape"/>
<feColorMatrix in="SourceAlpha" type="matrix" values="0 0 0 0 0 0 0 0 0 0 0 0 0 0 0 0 0 0 127 0" result="hardAlpha"/>
<feOffset dx="-8" dy="-4"/>
<feComposite in2="hardAlpha" operator="arithmetic" k2="-1" k3="1"/>
<feColorMatrix type="matrix" values="0 0 0 0 0.0666667 0 0 0 0 0.0196078 0 0 0 0 0.160784 0 0 0 0.16 0"/>
<feBlend mode="normal" in2="shape" result="effect1_innerShadow_4694_30587"/>
</filter>
<filter id="filter22_i_4694_30587" x="581" y="307" width="184" height="54" filterUnits="userSpaceOnUse" color-interpolation-filters="sRGB">
<feFlood flood-opacity="0" result="BackgroundImageFix"/>
<feBlend mode="normal" in="SourceGraphic" in2="BackgroundImageFix" result="shape"/>
<feColorMatrix in="SourceAlpha" type="matrix" values="0 0 0 0 0 0 0 0 0 0 0 0 0 0 0 0 0 0 127 0" result="hardAlpha"/>
<feOffset dx="-8" dy="-4"/>
<feComposite in2="hardAlpha" operator="arithmetic" k2="-1" k3="1"/>
<feColorMatrix type="matrix" values="0 0 0 0 0.0666667 0 0 0 0 0.0196078 0 0 0 0 0.160784 0 0 0 0.16 0"/>
<feBlend mode="normal" in2="shape" result="effect1_innerShadow_4694_30587"/>
</filter>
<filter id="filter23_i_4694_30587" x="465" y="307" width="34" height="54" filterUnits="userSpaceOnUse" color-interpolation-filters="sRGB">
<feFlood flood-opacity="0" result="BackgroundImageFix"/>
<feBlend mode="normal" in="SourceGraphic" in2="BackgroundImageFix" result="shape"/>
<feColorMatrix in="SourceAlpha" type="matrix" values="0 0 0 0 0 0 0 0 0 0 0 0 0 0 0 0 0 0 127 0" result="hardAlpha"/>
<feOffset dx="-8" dy="-4"/>
<feComposite in2="hardAlpha" operator="arithmetic" k2="-1" k3="1"/>
<feColorMatrix type="matrix" values="0 0 0 0 0.0666667 0 0 0 0 0.0196078 0 0 0 0 0.160784 0 0 0 0.16 0"/>
<feBlend mode="normal" in2="shape" result="effect1_innerShadow_4694_30587"/>
</filter>
<filter id="filter24_i_4694_30587" x="549" y="307" width="34" height="54" filterUnits="userSpaceOnUse" color-interpolation-filters="sRGB">
<feFlood flood-opacity="0" result="BackgroundImageFix"/>
<feBlend mode="normal" in="SourceGraphic" in2="BackgroundImageFix" result="shape"/>
<feColorMatrix in="SourceAlpha" type="matrix" values="0 0 0 0 0 0 0 0 0 0 0 0 0 0 0 0 0 0 127 0" result="hardAlpha"/>
<feOffset dx="-8" dy="-4"/>
<feComposite in2="hardAlpha" operator="arithmetic" k2="-1" k3="1"/>
<feColorMatrix type="matrix" values="0 0 0 0 0.0666667 0 0 0 0 0.0196078 0 0 0 0 0.160784 0 0 0 0.16 0"/>
<feBlend mode="normal" in2="shape" result="effect1_innerShadow_4694_30587"/>
</filter>
<filter id="filter25_i_4694_30587" x="497" y="307" width="54" height="54" filterUnits="userSpaceOnUse" color-interpolation-filters="sRGB">
<feFlood flood-opacity="0" result="BackgroundImageFix"/>
<feBlend mode="normal" in="SourceGraphic" in2="BackgroundImageFix" result="shape"/>
<feColorMatrix in="SourceAlpha" type="matrix" values="0 0 0 0 0 0 0 0 0 0 0 0 0 0 0 0 0 0 127 0" result="hardAlpha"/>
<feOffset dx="-8" dy="-4"/>
<feComposite in2="hardAlpha" operator="arithmetic" k2="-1" k3="1"/>
<feColorMatrix type="matrix" values="0 0 0 0 0.0666667 0 0 0 0 0.0196078 0 0 0 0 0.160784 0 0 0 0.16 0"/>
<feBlend mode="normal" in2="shape" result="effect1_innerShadow_4694_30587"/>
</filter>
</defs>
</svg>
