<svg width="960" height="428" viewBox="0 0 960 428" fill="none" xmlns="http://www.w3.org/2000/svg">
    <rect width="960" height="428" fill="white"/>
    <path d="M260.4 394H262.18V387.69H267.6V385.91H262.18V381.38H268.8V379.6H260.4V394ZM274.695 394.28C276.255 394.28 277.495 393.68 278.295 392.61V394H279.885V383.2H278.095V388.89C278.095 391.39 276.915 392.59 275.125 392.59C272.845 392.59 272.195 390.64 272.195 388.61V383.2H270.395V389.17C270.395 391.22 271.215 394.28 274.695 394.28ZM282.885 394H284.665V379.6H282.885V394ZM287.866 394H289.646V379.6H287.866V394ZM296.85 394H298.63V379.6H296.85V394ZM306.31 394.3C308.4 394.3 310.19 393.21 311.04 391.3L309.33 390.71C308.73 391.94 307.65 392.61 306.23 392.61C304.24 392.61 303.08 391.34 302.94 389.1H311.22C311.38 385.26 309.48 382.9 306.23 382.9C303.09 382.9 301.03 385.13 301.03 388.67C301.03 392.05 303.12 394.3 306.31 394.3ZM302.97 387.67C303.22 385.62 304.35 384.5 306.29 384.5C308.12 384.5 309.15 385.55 309.37 387.67H302.97ZM320.844 388.59V394H322.644V388.03C322.644 385.98 321.824 382.92 318.344 382.92C316.784 382.92 315.544 383.52 314.744 384.59V383.2H313.144V394H314.944V388.31C314.944 385.81 316.124 384.61 317.914 384.61C320.194 384.61 320.844 386.56 320.844 388.59ZM329.614 399.1C332.194 399.1 333.894 398.03 334.314 395.73C334.414 395.2 334.444 394.67 334.444 394.07V383.2H332.864V384.41C332.074 383.46 330.944 382.9 329.474 382.9C326.474 382.9 324.644 385.35 324.644 388.59C324.644 391.83 326.464 394.3 329.484 394.3C330.814 394.3 331.884 393.82 332.654 393.01V394.05C332.674 396.25 331.684 397.38 329.624 397.38C328.574 397.38 327.504 396.93 326.974 395.87L325.344 396.73C326.244 398.34 327.914 399.1 329.614 399.1ZM326.534 388.59C326.534 386.31 327.554 384.53 329.754 384.53C331.864 384.53 332.864 386.2 332.864 388.59C332.864 390.96 331.884 392.67 329.704 392.67C327.574 392.67 326.534 390.89 326.534 388.59ZM343.266 394V392.47C341.786 392.7 340.706 392.64 340.226 391.78C339.966 391.33 340.006 390.73 340.006 389.84V384.67H343.266V383.2H340.006V380.2H338.226V383.2H336.036V384.67H338.226V389.92C338.226 391.04 338.166 391.86 338.596 392.7C339.346 394.17 341.336 394.39 343.266 394ZM353.149 388.59V394H354.949V388.03C354.949 385.98 354.129 382.92 350.649 382.92C349.089 382.92 347.849 383.52 347.049 384.59V379.6H345.449V394H347.249V388.31C347.249 385.81 348.429 384.61 350.219 384.61C352.499 384.61 353.149 386.56 353.149 388.59ZM365.262 394H367.042V381.29H371.952V379.6H360.352V381.29H365.262V394ZM379.465 394.3C382.795 394.3 384.985 392.47 385.805 389.61L383.995 389.13C383.405 391.27 381.895 392.6 379.465 392.6C376.245 392.6 374.605 390.25 374.625 386.8C374.645 383.35 376.245 381 379.465 381C381.895 381 383.405 382.33 383.995 384.47L385.805 383.99C384.985 381.13 382.795 379.3 379.465 379.3C375.155 379.3 372.745 382.36 372.745 386.8C372.745 391.24 375.155 394.3 379.465 394.3ZM387.998 394H389.778V388.68H393.988L396.568 394H398.608L395.828 388.29C397.458 387.61 398.308 386.04 398.308 384.14C398.308 381.85 397.078 380.04 394.748 379.68C394.378 379.62 393.968 379.6 393.688 379.6H387.998V394ZM389.778 386.99V381.29H393.628C393.878 381.29 394.228 381.31 394.528 381.38C395.908 381.69 396.488 382.94 396.488 384.14C396.488 385.34 395.908 386.59 394.528 386.9C394.228 386.97 393.878 386.99 393.628 386.99H389.778ZM404.45 379.6L400.61 394H402.42L406.26 379.6H404.45ZM409.057 394H410.837V379.6H409.057V394ZM419.668 394.3C423.878 394.3 426.118 391.39 426.118 387.44C426.118 387.32 426.108 386.87 426.078 386.59H421.138V388.06H424.197C423.978 390.93 422.537 392.62 419.758 392.6C416.538 392.58 414.908 390.25 414.928 386.8C414.948 383.35 416.538 380.99 419.758 381.01C421.808 381.02 423.198 382.14 423.808 383.88L425.608 383.51C424.858 380.92 422.888 379.31 419.668 379.31C415.638 379.31 413.038 382.21 413.038 386.8C413.038 391.44 415.698 394.3 419.668 394.3ZM436.199 394.29C438.889 394.29 440.519 393.03 440.519 390.94C440.519 389.27 439.589 388.47 436.739 387.74C434.199 387.1 433.649 386.76 433.649 385.97C433.649 385.05 434.609 384.45 436.009 384.49C437.479 384.53 438.479 385.24 438.659 386.39L440.479 386.06C440.249 384.16 438.469 382.9 436.009 382.9C433.519 382.9 431.859 384.16 431.859 386.06C431.859 387.61 432.769 388.35 435.629 389.11C438.269 389.82 438.679 390.08 438.679 390.99C438.679 392.05 437.779 392.7 436.309 392.7C434.749 392.7 433.629 391.97 433.339 390.79L431.519 391.08C431.889 393.11 433.619 394.29 436.199 394.29ZM447.404 394.3C449.494 394.3 451.284 393.21 452.134 391.3L450.424 390.71C449.824 391.94 448.744 392.61 447.324 392.61C445.334 392.61 444.174 391.34 444.034 389.1H452.314C452.474 385.26 450.574 382.9 447.324 382.9C444.184 382.9 442.124 385.13 442.124 388.67C442.124 392.05 444.214 394.3 447.404 394.3ZM444.064 387.67C444.314 385.62 445.444 384.5 447.384 384.5C449.214 384.5 450.244 385.55 450.464 387.67H444.064ZM458.781 394.3C460.121 394.3 461.191 393.82 461.961 393V398.8H463.751V383.2H462.161V384.41C461.371 383.46 460.241 382.9 458.771 382.9C455.771 382.9 453.941 385.35 453.941 388.59C453.941 391.83 455.761 394.3 458.781 394.3ZM455.831 388.59C455.831 386.31 456.851 384.53 459.051 384.53C461.161 384.53 462.161 386.2 462.161 388.59C462.161 390.96 461.181 392.67 459.001 392.67C456.871 392.67 455.831 390.89 455.831 388.59ZM470.652 394.28C472.212 394.28 473.452 393.68 474.252 392.61V394H475.842V383.2H474.052V388.89C474.052 391.39 472.872 392.59 471.082 392.59C468.802 392.59 468.152 390.64 468.152 388.61V383.2H466.352V389.17C466.352 391.22 467.172 394.28 470.652 394.28ZM483.322 394.3C485.412 394.3 487.202 393.21 488.052 391.3L486.342 390.71C485.742 391.94 484.662 392.61 483.242 392.61C481.252 392.61 480.092 391.34 479.952 389.1H488.232C488.392 385.26 486.492 382.9 483.242 382.9C480.102 382.9 478.042 385.13 478.042 388.67C478.042 392.05 480.132 394.3 483.322 394.3ZM479.982 387.67C480.232 385.62 481.362 384.5 483.302 384.5C485.132 384.5 486.162 385.55 486.382 387.67H479.982ZM497.856 388.59V394H499.656V388.03C499.656 385.98 498.836 382.92 495.356 382.92C493.796 382.92 492.556 383.52 491.756 384.59V383.2H490.156V394H491.956V388.31C491.956 385.81 493.136 384.61 494.926 384.61C497.206 384.61 497.856 386.56 497.856 388.59ZM506.708 394.3C508.938 394.3 510.568 393.21 511.328 391.19L509.528 390.72C509.038 391.95 508.108 392.61 506.708 392.61C504.558 392.61 503.468 391.01 503.448 388.6C503.468 386.26 504.488 384.59 506.708 384.59C508.018 384.59 509.108 385.32 509.568 386.57L511.328 386.04C510.758 384.1 508.998 382.9 506.728 382.9C503.478 382.9 501.588 385.23 501.558 388.6C501.588 391.91 503.418 394.3 506.708 394.3ZM517.756 394.3C519.846 394.3 521.636 393.21 522.486 391.3L520.776 390.71C520.176 391.94 519.096 392.61 517.676 392.61C515.686 392.61 514.526 391.34 514.386 389.1H522.666C522.826 385.26 520.926 382.9 517.676 382.9C514.536 382.9 512.476 385.13 512.476 388.67C512.476 392.05 514.566 394.3 517.756 394.3ZM514.416 387.67C514.666 385.62 515.796 384.5 517.736 384.5C519.566 384.5 520.596 385.55 520.816 387.67H514.416Z" fill="#110529"/>
    <g filter="url(#filter0_i_5544_35798)">
        <path d="M570 92H750.4C750.96 92 751.24 92 751.454 92.109C751.642 92.2049 751.795 92.3578 751.891 92.546C752 92.7599 752 93.0399 752 93.6V142.4C752 142.96 752 143.24 751.891 143.454C751.795 143.642 751.642 143.795 751.454 143.891C751.24 144 750.96 144 750.4 144H570V92Z" fill="#C1ADFF"/>
    </g>
    <path d="M570 92H750.4C750.96 92 751.24 92 751.454 92.109C751.642 92.2049 751.795 92.3578 751.891 92.546C752 92.7599 752 93.0399 752 93.6V142.4C752 142.96 752 143.24 751.891 143.454C751.795 143.642 751.642 143.795 751.454 143.891C751.24 144 750.96 144 750.4 144H570V92Z" stroke="#110529" stroke-width="2" stroke-linecap="round"/>
    <g filter="url(#filter1_i_5544_35798)">
        <path d="M570 24H608.4C608.96 24 609.24 24 609.454 24.109C609.642 24.2049 609.795 24.3578 609.891 24.546C610 24.7599 610 25.0399 610 25.6V74.4C610 74.9601 610 75.2401 609.891 75.454C609.795 75.6422 609.642 75.7951 609.454 75.891C609.24 76 608.96 76 608.4 76H570V24Z" fill="#C1ADFF"/>
    </g>
    <path d="M570 24H608.4C608.96 24 609.24 24 609.454 24.109C609.642 24.2049 609.795 24.3578 609.891 24.546C610 24.7599 610 25.0399 610 25.6V74.4C610 74.9601 610 75.2401 609.891 75.454C609.795 75.6422 609.642 75.7951 609.454 75.891C609.24 76 608.96 76 608.4 76H570V24Z" stroke="#110529" stroke-width="2" stroke-linecap="round"/>
    <g filter="url(#filter2_i_5544_35798)">
        <path d="M419 92H474V144H419L414 137.5L419 131L414 124L419 118L414 111.5L419 105L414 98.5L419 92Z" fill="#99E099"/>
    </g>
    <path d="M419 92H474V144H419L414 137.5L419 131L414 124L419 118L414 111.5L419 105L414 98.5L419 92Z" stroke="#110529" stroke-width="2" stroke-linecap="round"/>
    <path d="M445.209 126H447.792L452.813 111H450.896L446.48 124.021L442.126 111H440.188L445.209 126Z" fill="#110529"/>
    <path d="M664.289 111V121.292C664.289 122.604 664.289 123.312 663.727 124.312C662.956 125.604 661.768 126.312 660.143 126.312C659.372 126.312 658.622 126.146 657.977 125.729C657.018 125.187 656.331 124.208 656.039 123.146L657.893 122.708C657.997 123.292 658.372 123.812 658.872 124.146C659.227 124.396 659.685 124.542 660.122 124.542C660.914 124.542 661.747 124.125 662.102 123.354C662.372 122.792 662.372 122.375 662.372 121.292V111H664.289Z" fill="#110529"/>
    <path d="M593.289 43V53.2917C593.289 54.6042 593.289 55.3125 592.727 56.3125C591.956 57.6042 590.768 58.3125 589.143 58.3125C588.372 58.3125 587.622 58.1458 586.977 57.7292C586.018 57.1875 585.331 56.2083 585.039 55.1458L586.893 54.7083C586.997 55.2917 587.372 55.8125 587.872 56.1458C588.227 56.3958 588.685 56.5417 589.122 56.5417C589.914 56.5417 590.747 56.125 591.102 55.3542C591.372 54.7917 591.372 54.375 591.372 53.2917V43H593.289Z" fill="#110529"/>
    <g filter="url(#filter3_i_5544_35798)">
        <path d="M379 160H474V212H379L374 205.5L379 199L374 192L379 186L374 179.5L379 173L374 166.5L379 160Z" fill="#99E099"/>
    </g>
    <path d="M379 160H474V212H379L374 205.5L379 199L374 192L379 186L374 179.5L379 173L374 166.5L379 160Z" stroke="#110529" stroke-width="2" stroke-linecap="round"/>
    <path d="M425.209 194H427.792L432.813 179H430.896L426.48 192.021L422.126 179H420.188L425.209 194Z" fill="#110529"/>
    <g filter="url(#filter4_i_5544_35798)">
        <path d="M621 160H570V186V212H621L626 205.5L621 199L626 192L621 186L626 179.5L621 173L626 166.5L621 160Z" fill="#C1ADFF"/>
    </g>
    <path d="M621 160H570V186V212H621L626 205.5L621 199L626 192L621 186L626 179.5L621 173L626 166.5L621 160Z" stroke="#110529" stroke-width="2" stroke-linecap="round"/>
    <path d="M598.272 179V189.292C598.272 190.604 598.272 191.312 597.71 192.312C596.939 193.604 595.751 194.312 594.126 194.312C593.356 194.312 592.606 194.146 591.96 193.729C591.001 193.187 590.314 192.208 590.022 191.146L591.876 190.708C591.981 191.292 592.356 191.812 592.856 192.146C593.21 192.396 593.668 192.542 594.106 192.542C594.897 192.542 595.731 192.125 596.085 191.354C596.356 190.792 596.356 190.375 596.356 189.292V179H598.272Z" fill="#110529"/>
    <g filter="url(#filter5_i_5544_35798)">
        <path d="M280 92H170V144H280L275 137.5L280 131L275 124L280 118L275 111.5L280 105L275 98.5L280 92Z" fill="#99E099"/>
    </g>
    <path d="M280 92H170V144H280L275 137.5L280 131L275 124L280 118L275 111.5L280 105L275 98.5L280 92Z" stroke="#110529" stroke-width="2" stroke-linecap="round"/>
    <g filter="url(#filter6_i_5544_35798)">
        <path d="M132 93.6C132 93.0399 132 92.7599 132.109 92.546C132.205 92.3578 132.358 92.2049 132.546 92.109C132.76 92 133.04 92 133.6 92H170.4C170.96 92 171.24 92 171.454 92.109C171.642 92.2049 171.795 92.3578 171.891 92.546C172 92.7599 172 93.0399 172 93.6V142.4C172 142.96 172 143.24 171.891 143.454C171.795 143.642 171.642 143.795 171.454 143.891C171.24 144 170.96 144 170.4 144H133.6C133.04 144 132.76 144 132.546 143.891C132.358 143.795 132.205 143.642 132.109 143.454C132 143.24 132 142.96 132 142.4V137.5V131V124V118V111.5V105V98.5V93.6Z" fill="#FFADBA"/>
    </g>
    <path d="M132 93.6C132 93.0399 132 92.7599 132.109 92.546C132.205 92.3578 132.358 92.2049 132.546 92.109C132.76 92 133.04 92 133.6 92H170.4C170.96 92 171.24 92 171.454 92.109C171.642 92.2049 171.795 92.3578 171.891 92.546C172 92.7599 172 93.0399 172 93.6V142.4C172 142.96 172 143.24 171.891 143.454C171.795 143.642 171.642 143.795 171.454 143.891C171.24 144 170.96 144 170.4 144H133.6C133.04 144 132.76 144 132.546 143.891C132.358 143.795 132.205 143.642 132.109 143.454C132 143.24 132 142.96 132 142.4V137.5V131V124V118V111.5V105V98.5V93.6Z" stroke="#110529" stroke-width="2" stroke-linecap="round"/>
    <g filter="url(#filter7_i_5544_35798)">
        <path d="M342 160H160V212H342L337 205.5L342 199L337 192L342 186L337 179.5L342 173L337 166.5L342 160Z" fill="#99E099"/>
    </g>
    <path d="M342 160H160V212H342L337 205.5L342 199L337 192L342 186L337 179.5L342 173L337 166.5L342 160Z" stroke="#110529" stroke-width="2" stroke-linecap="round"/>
    <g filter="url(#filter8_i_5544_35798)">
        <path d="M32 161.6C32 161.04 32 160.76 32.109 160.546C32.2049 160.358 32.3578 160.205 32.546 160.109C32.7599 160 33.0399 160 33.6 160H170.4C170.96 160 171.24 160 171.454 160.109C171.642 160.205 171.795 160.358 171.891 160.546C172 160.76 172 161.04 172 161.6V210.4C172 210.96 172 211.24 171.891 211.454C171.795 211.642 171.642 211.795 171.454 211.891C171.24 212 170.96 212 170.4 212H33.6C33.0399 212 32.7599 212 32.546 211.891C32.3578 211.795 32.2049 211.642 32.109 211.454C32 211.24 32 210.96 32 210.4V205.5V199V192V186V179.5V173V166.5V161.6Z" fill="#FFADBA"/>
    </g>
    <path d="M32 161.6C32 161.04 32 160.76 32.109 160.546C32.2049 160.358 32.3578 160.205 32.546 160.109C32.7599 160 33.0399 160 33.6 160H170.4C170.96 160 171.24 160 171.454 160.109C171.642 160.205 171.795 160.358 171.891 160.546C172 160.76 172 161.04 172 161.6V210.4C172 210.96 172 211.24 171.891 211.454C171.795 211.642 171.642 211.795 171.454 211.891C171.24 212 170.96 212 170.4 212H33.6C33.0399 212 32.7599 212 32.546 211.891C32.3578 211.795 32.2049 211.642 32.109 211.454C32 211.24 32 210.96 32 210.4V205.5V199V192V186V179.5V173V166.5V161.6Z" stroke="#110529" stroke-width="2" stroke-linecap="round"/>
    <path d="M79.9549 194.3C82.6349 194.3 84.9049 192.13 84.9049 189.47C84.9049 186.79 82.8749 184.73 80.2049 184.73C79.2349 184.73 78.2649 185.06 77.5149 185.66L77.7749 181.29H83.9049V179.6H76.1749L75.7349 187.13L77.3149 187.73C77.8349 186.98 78.7349 186.37 80.0049 186.37C81.6849 186.37 83.1149 187.73 83.1149 189.47C83.1149 191.16 81.7549 192.57 80.0049 192.57C78.6649 192.57 77.3649 191.68 77.0049 190.26L75.2949 190.72C75.8749 192.82 77.7249 194.3 79.9549 194.3ZM87.5065 183.27L87.3965 184.1C88.6365 184.33 89.3565 183.56 89.3565 182.16V179.6H87.3965V181.86H88.4265C88.4965 182.66 88.3365 183.33 87.5065 183.27ZM97.8202 194.3C101.16 194.3 103.5 192.1 103.5 188.75V179.6H101.7V188.6C101.7 191.31 99.6602 192.62 97.8202 192.62C96.0002 192.62 93.9402 191.33 93.9402 188.6V179.6L92.1402 179.61V188.75C92.1402 192.11 94.4802 194.3 97.8202 194.3ZM110.01 194H111.79V181.29H116.7V179.6H105.1V181.29H110.01V194ZM118.293 194H120.073V188.68H124.283L126.863 194H128.903L126.123 188.29C127.753 187.61 128.603 186.04 128.603 184.14C128.603 181.85 127.373 180.04 125.043 179.68C124.673 179.62 124.263 179.6 123.983 179.6H118.293V194ZM120.073 186.99V181.29H123.923C124.173 181.29 124.523 181.31 124.823 181.38C126.203 181.69 126.783 182.94 126.783 184.14C126.783 185.34 126.203 186.59 124.823 186.9C124.523 186.97 124.173 186.99 123.923 186.99H120.073Z" fill="#110529"/>
    <path d="M202 93H204V143H202V136.75V130.5V123.769V118V111.75V105.5V99.25V93Z" fill="#F05670"/>
    <path d="M202 161H204V211H202V204.75V198.5V191.769V186V179.75V173.5V167.25V161Z" fill="#F05670"/>
    <g filter="url(#filter9_i_5544_35798)">
        <path d="M317 92H382L377 98.5L382 105L377 111.5L382 118L377 124.5L382 131L377 137.5L382 144H317L312 137.5L317 131L312 124L317 118L312 111.5L317 105L312 98.5L317 92Z" fill="#99E099"/>
    </g>
    <path d="M317 92H382L377 98.5L382 105L377 111.5L382 118L377 124.5L382 131L377 137.5L382 144H317L312 137.5L317 131L312 124L317 118L312 111.5L317 105L312 98.5L317 92Z" stroke="#110529" stroke-width="2" stroke-linecap="round"/>
    <path d="M362 93H364V143H362V136.75V130.5V123.769V118V111.75V105.5V99.25V93Z" fill="#F05670"/>
    <g filter="url(#filter10_i_5544_35798)">
        <path d="M172 308H475V360H172V353.5V347V340V334V327.5V321V314.5V308Z" fill="#99E099"/>
    </g>
    <path d="M172 308H475V360H172V353.5V347V340V334V327.5V321V314.5V308Z" stroke="#110529" stroke-width="2" stroke-linecap="round"/>
    <g filter="url(#filter11_i_5544_35798)">
        <path d="M434 25.6C434 25.0399 434 24.7599 434.109 24.546C434.205 24.3578 434.358 24.2049 434.546 24.109C434.76 24 435.04 24 435.6 24H472.4C472.96 24 473.24 24 473.454 24.109C473.642 24.2049 473.795 24.3578 473.891 24.546C474 24.7599 474 25.0399 474 25.6V74.4C474 74.9601 474 75.2401 473.891 75.454C473.795 75.6422 473.642 75.7951 473.454 75.891C473.24 76 472.96 76 472.4 76H435.6C435.04 76 434.76 76 434.546 75.891C434.358 75.7951 434.205 75.6422 434.109 75.454C434 75.2401 434 74.9601 434 74.4V69.5V63V56V50V43.5V37V30.5V25.6Z" fill="#99E099"/>
    </g>
    <path d="M434 25.6C434 25.0399 434 24.7599 434.109 24.546C434.205 24.3578 434.358 24.2049 434.546 24.109C434.76 24 435.04 24 435.6 24H472.4C472.96 24 473.24 24 473.454 24.109C473.642 24.2049 473.795 24.3578 473.891 24.546C474 24.7599 474 25.0399 474 25.6V74.4C474 74.9601 474 75.2401 473.891 75.454C473.795 75.6422 473.642 75.7951 473.454 75.891C473.24 76 472.96 76 472.4 76H435.6C435.04 76 434.76 76 434.546 75.891C434.358 75.7951 434.205 75.6422 434.109 75.454C434 75.2401 434 74.9601 434 74.4V69.5V63V56V50V43.5V37V30.5V25.6Z" stroke="#110529" stroke-width="2" stroke-linecap="round"/>
    <g filter="url(#filter12_i_5544_35798)">
        <path d="M32 309.6C32 309.04 32 308.76 32.109 308.546C32.2049 308.358 32.3578 308.205 32.546 308.109C32.7599 308 33.0399 308 33.6 308H170.4C170.96 308 171.24 308 171.454 308.109C171.642 308.205 171.795 308.358 171.891 308.546C172 308.76 172 309.04 172 309.6V358.4C172 358.96 172 359.24 171.891 359.454C171.795 359.642 171.642 359.795 171.454 359.891C171.24 360 170.96 360 170.4 360H33.6C33.0399 360 32.7599 360 32.546 359.891C32.3578 359.795 32.2049 359.642 32.109 359.454C32 359.24 32 358.96 32 358.4V353.5V347V340V334V327.5V321V314.5V309.6Z" fill="#FFADBA"/>
    </g>
    <path d="M32 309.6C32 309.04 32 308.76 32.109 308.546C32.2049 308.358 32.3578 308.205 32.546 308.109C32.7599 308 33.0399 308 33.6 308H170.4C170.96 308 171.24 308 171.454 308.109C171.642 308.205 171.795 308.358 171.891 308.546C172 308.76 172 309.04 172 309.6V358.4C172 358.96 172 359.24 171.891 359.454C171.795 359.642 171.642 359.795 171.454 359.891C171.24 360 170.96 360 170.4 360H33.6C33.0399 360 32.7599 360 32.546 359.891C32.3578 359.795 32.2049 359.642 32.109 359.454C32 359.24 32 358.96 32 358.4V353.5V347V340V334V327.5V321V314.5V309.6Z" stroke="#110529" stroke-width="2" stroke-linecap="round"/>
    <g filter="url(#filter13_i_5544_35798)">
        <path d="M570 308H750.4C750.96 308 751.24 308 751.454 308.109C751.642 308.205 751.795 308.358 751.891 308.546C752 308.76 752 309.04 752 309.6V358.4C752 358.96 752 359.24 751.891 359.454C751.795 359.642 751.642 359.795 751.454 359.891C751.24 360 750.96 360 750.4 360H570V308Z" fill="#C1ADFF"/>
    </g>
    <path d="M570 308H750.4C750.96 308 751.24 308 751.454 308.109C751.642 308.205 751.795 308.358 751.891 308.546C752 308.76 752 309.04 752 309.6V358.4C752 358.96 752 359.24 751.891 359.454C751.795 359.642 751.642 359.795 751.454 359.891C751.24 360 750.96 360 750.4 360H570V308Z" stroke="#110529" stroke-width="2" stroke-linecap="round"/>
    <path d="M322.191 342H324.774L329.795 327H327.878L323.462 340.021L319.108 327H317.17L322.191 342Z" fill="#110529"/>
    <path d="M79.9549 342.3C82.6349 342.3 84.9049 340.13 84.9049 337.47C84.9049 334.79 82.8749 332.73 80.2049 332.73C79.2349 332.73 78.2649 333.06 77.5149 333.66L77.7749 329.29H83.9049V327.6H76.1749L75.7349 335.13L77.3149 335.73C77.8349 334.98 78.7349 334.37 80.0049 334.37C81.6849 334.37 83.1149 335.73 83.1149 337.47C83.1149 339.16 81.7549 340.57 80.0049 340.57C78.6649 340.57 77.3649 339.68 77.0049 338.26L75.2949 338.72C75.8749 340.82 77.7249 342.3 79.9549 342.3ZM87.5065 331.27L87.3965 332.1C88.6365 332.33 89.3565 331.56 89.3565 330.16V327.6H87.3965V329.86H88.4265C88.4965 330.66 88.3365 331.33 87.5065 331.27ZM97.8202 342.3C101.16 342.3 103.5 340.1 103.5 336.75V327.6H101.7V336.6C101.7 339.31 99.6602 340.62 97.8202 340.62C96.0002 340.62 93.9402 339.33 93.9402 336.6V327.6L92.1402 327.61V336.75C92.1402 340.11 94.4802 342.3 97.8202 342.3ZM110.01 342H111.79V329.29H116.7V327.6H105.1V329.29H110.01V342ZM118.293 342H120.073V336.68H124.283L126.863 342H128.903L126.123 336.29C127.753 335.61 128.603 334.04 128.603 332.14C128.603 329.85 127.373 328.04 125.043 327.68C124.673 327.62 124.263 327.6 123.983 327.6H118.293V342ZM120.073 334.99V329.29H123.923C124.173 329.29 124.523 329.31 124.823 329.38C126.203 329.69 126.783 330.94 126.783 332.14C126.783 333.34 126.203 334.59 124.823 334.9C124.523 334.97 124.173 334.99 123.923 334.99H120.073Z" fill="#110529"/>
    <path d="M664.275 327V337.292C664.275 338.604 664.275 339.312 663.713 340.312C662.942 341.604 661.754 342.312 660.129 342.312C659.359 342.312 658.609 342.146 657.963 341.729C657.004 341.187 656.317 340.208 656.025 339.146L657.879 338.708C657.984 339.292 658.359 339.812 658.859 340.146C659.213 340.396 659.671 340.542 660.109 340.542C660.9 340.542 661.734 340.125 662.088 339.354C662.359 338.792 662.359 338.375 662.359 337.292V327H664.275Z" fill="#110529"/>
    <path d="M358 309H360V359H358V352.75V346.5V339.769V334V327.75V321.5V315.25V309Z" fill="#F05670"/>
    <path d="M202 309H204V359H202V352.75V346.5V339.769V334V327.75V321.5V315.25V309Z" fill="#F05670"/>
    <path d="M402 275L401.293 275.707L402 276.414L402.707 275.707L402 275ZM410.707 267.707L411.414 267L410 265.586L409.293 266.293L410.707 267.707ZM394.707 266.293L394 265.586L392.586 267L393.293 267.707L394.707 266.293ZM401 244L401 275L403 275L403 244L401 244ZM402.707 275.707L410.707 267.707L409.293 266.293L401.293 274.293L402.707 275.707ZM402.707 274.293L394.707 266.293L393.293 267.707L401.293 275.707L402.707 274.293Z" fill="#110529"/>
    <path d="M769 118L768.293 117.293L767.586 118L768.293 118.707L769 118ZM776.293 126.707L777 127.414L778.414 126L777.707 125.293L776.293 126.707ZM777.707 110.707L778.414 110L777 108.586L776.293 109.293L777.707 110.707ZM800 117L769 117L769 119L800 119L800 117ZM768.293 118.707L776.293 126.707L777.707 125.293L769.707 117.293L768.293 118.707ZM769.707 118.707L777.707 110.707L776.293 109.293L768.293 117.293L769.707 118.707Z" fill="#110529"/>
    <path d="M817.95 116.3C820.18 116.3 821.81 115.21 822.57 113.19L820.77 112.72C820.28 113.95 819.35 114.61 817.95 114.61C815.8 114.61 814.71 113.01 814.69 110.6C814.71 108.26 815.73 106.59 817.95 106.59C819.26 106.59 820.35 107.32 820.81 108.57L822.57 108.04C822 106.1 820.24 104.9 817.97 104.9C814.72 104.9 812.83 107.23 812.8 110.6C812.83 113.91 814.66 116.3 817.95 116.3ZM824.518 116H826.298V101.6H824.518V116ZM833.898 116.3C837.108 116.3 839.108 113.98 839.108 110.59C839.108 107.25 837.138 104.9 833.898 104.9C830.728 104.9 828.698 107.2 828.698 110.59C828.698 113.94 830.668 116.3 833.898 116.3ZM830.588 110.59C830.588 108.23 831.638 106.59 833.898 106.59C836.108 106.59 837.218 108.16 837.218 110.59C837.218 112.97 836.128 114.61 833.898 114.61C831.718 114.61 830.588 113.03 830.588 110.59ZM849 110.59V116H850.8V110.03C850.8 107.98 849.98 104.92 846.5 104.92C844.94 104.92 843.7 105.52 842.9 106.59V105.2H841.3V116H843.1V110.31C843.1 107.81 844.28 106.61 846.07 106.61C848.35 106.61 849 108.56 849 110.59ZM857.982 116.3C860.072 116.3 861.862 115.21 862.712 113.3L861.002 112.71C860.402 113.94 859.322 114.61 857.902 114.61C855.912 114.61 854.752 113.34 854.612 111.1H862.892C863.052 107.26 861.152 104.9 857.902 104.9C854.762 104.9 852.702 107.13 852.702 110.67C852.702 114.05 854.792 116.3 857.982 116.3ZM854.642 109.67C854.892 107.62 856.022 106.5 857.962 106.5C859.792 106.5 860.822 107.55 861.042 109.67H854.642ZM816.47 136.3C818.27 136.3 819.61 135.64 820.47 134.32V136H822.05V129.32C822.05 128.47 822 127.68 821.7 127.01C821.08 125.6 819.61 124.9 817.66 124.9C815.22 124.9 813.71 126.05 813.2 127.94L814.89 128.45C815.28 127.13 816.33 126.56 817.64 126.56C819.51 126.56 820.25 127.38 820.3 129.1C818.7 129.32 816.8 129.55 815.45 129.91C813.81 130.39 812.8 131.38 812.8 133.08C812.8 134.82 814.05 136.3 816.47 136.3ZM814.57 133.07C814.57 132.06 815.36 131.57 816.25 131.29C817.3 130.99 818.76 130.82 820.28 130.62C820.27 131.11 820.25 131.8 820.1 132.32C819.84 133.66 818.66 134.81 816.74 134.81C815.2 134.81 814.57 133.96 814.57 133.07ZM824.85 136H826.63V121.6H824.85V136ZM829.83 123.29H831.61V121.45H829.83V123.29ZM829.83 136H831.61V125.2H829.83V136ZM838.981 141.1C841.561 141.1 843.261 140.03 843.681 137.73C843.781 137.2 843.811 136.67 843.811 136.07V125.2H842.231V126.41C841.441 125.46 840.311 124.9 838.841 124.9C835.841 124.9 834.011 127.35 834.011 130.59C834.011 133.83 835.831 136.3 838.851 136.3C840.181 136.3 841.251 135.82 842.021 135.01V136.05C842.041 138.25 841.051 139.38 838.991 139.38C837.941 139.38 836.871 138.93 836.341 137.87L834.711 138.73C835.611 140.34 837.281 141.1 838.981 141.1ZM835.901 130.59C835.901 128.31 836.921 126.53 839.121 126.53C841.231 126.53 842.231 128.2 842.231 130.59C842.231 132.96 841.251 134.67 839.071 134.67C836.941 134.67 835.901 132.89 835.901 130.59ZM854.293 130.59V136H856.093V130.03C856.093 127.98 855.273 124.92 851.793 124.92C850.233 124.92 848.993 125.52 848.193 126.59V125.2H846.593V136H848.393V130.31C848.393 127.81 849.573 126.61 851.363 126.61C853.643 126.61 854.293 128.56 854.293 130.59ZM871.613 129.09L871.603 136H873.383L873.393 128.7C873.393 126.4 872.013 124.92 869.763 124.92C868.343 124.92 867.133 125.59 866.493 126.7C865.913 125.57 864.803 124.92 863.343 124.92C862.053 124.92 860.953 125.47 860.273 126.35V125.2H858.683V136H860.473V129.14C860.473 127.56 861.413 126.51 862.823 126.51C864.233 126.51 865.163 127.52 865.163 129.16L865.153 136H866.923L866.933 129.14C866.933 127.32 868.083 126.51 869.293 126.51C870.653 126.51 871.613 127.48 871.613 129.09ZM883.688 130.59V136H885.488V130.03C885.488 127.98 884.668 124.92 881.188 124.92C879.628 124.92 878.388 125.52 877.588 126.59V125.2H875.988V136H877.788V130.31C877.788 127.81 878.968 126.61 880.758 126.61C883.038 126.61 883.688 128.56 883.688 130.59ZM892.67 136.3C894.76 136.3 896.55 135.21 897.4 133.3L895.69 132.71C895.09 133.94 894.01 134.61 892.59 134.61C890.6 134.61 889.44 133.34 889.3 131.1H897.58C897.74 127.26 895.84 124.9 892.59 124.9C889.45 124.9 887.39 127.13 887.39 130.67C887.39 134.05 889.48 136.3 892.67 136.3ZM889.33 129.67C889.58 127.62 890.71 126.5 892.65 126.5C894.48 126.5 895.51 127.55 895.73 129.67H889.33ZM905.836 136V134.47C904.356 134.7 903.276 134.64 902.796 133.78C902.536 133.33 902.576 132.73 902.576 131.84V126.67H905.836V125.2H902.576V122.2H900.796V125.2H898.606V126.67H900.796V131.92C900.796 133.04 900.736 133.86 901.166 134.7C901.916 136.17 903.906 136.39 905.836 136Z" fill="#110529"/>
    <path d="M643 186L642.293 185.293L641.586 186L642.293 186.707L643 186ZM650.293 194.707L651 195.414L652.414 194L651.707 193.293L650.293 194.707ZM651.707 178.707L652.414 178L651 176.586L650.293 177.293L651.707 178.707ZM674 185L643 185L643 187L674 187L674 185ZM642.293 186.707L650.293 194.707L651.707 193.293L643.707 185.293L642.293 186.707ZM643.707 186.707L651.707 178.707L650.293 177.293L642.293 185.293L643.707 186.707Z" fill="#110529"/>
    <path d="M691.95 184.3C694.18 184.3 695.81 183.21 696.57 181.19L694.77 180.72C694.28 181.95 693.35 182.61 691.95 182.61C689.8 182.61 688.71 181.01 688.69 178.6C688.71 176.26 689.73 174.59 691.95 174.59C693.26 174.59 694.35 175.32 694.81 176.57L696.57 176.04C696 174.1 694.24 172.9 691.97 172.9C688.72 172.9 686.83 175.23 686.8 178.6C686.83 181.91 688.66 184.3 691.95 184.3ZM698.518 184H700.298V169.6H698.518V184ZM707.898 184.3C711.108 184.3 713.108 181.98 713.108 178.59C713.108 175.25 711.138 172.9 707.898 172.9C704.728 172.9 702.698 175.2 702.698 178.59C702.698 181.94 704.668 184.3 707.898 184.3ZM704.588 178.59C704.588 176.23 705.638 174.59 707.898 174.59C710.108 174.59 711.218 176.16 711.218 178.59C711.218 180.97 710.128 182.61 707.898 182.61C705.718 182.61 704.588 181.03 704.588 178.59ZM723 178.59V184H724.8V178.03C724.8 175.98 723.98 172.92 720.5 172.92C718.94 172.92 717.7 173.52 716.9 174.59V173.2H715.3V184H717.1V178.31C717.1 175.81 718.28 174.61 720.07 174.61C722.35 174.61 723 176.56 723 178.59ZM731.982 184.3C734.072 184.3 735.862 183.21 736.712 181.3L735.002 180.71C734.402 181.94 733.322 182.61 731.902 182.61C729.912 182.61 728.752 181.34 728.612 179.1H736.892C737.052 175.26 735.152 172.9 731.902 172.9C728.762 172.9 726.702 175.13 726.702 178.67C726.702 182.05 728.792 184.3 731.982 184.3ZM728.642 177.67C728.892 175.62 730.022 174.5 731.962 174.5C733.792 174.5 734.822 175.55 735.042 177.67H728.642ZM690.47 204.3C692.27 204.3 693.61 203.64 694.47 202.32V204H696.05V197.32C696.05 196.47 696 195.68 695.7 195.01C695.08 193.6 693.61 192.9 691.66 192.9C689.22 192.9 687.71 194.05 687.2 195.94L688.89 196.45C689.28 195.13 690.33 194.56 691.64 194.56C693.51 194.56 694.25 195.38 694.3 197.1C692.7 197.32 690.8 197.55 689.45 197.91C687.81 198.39 686.8 199.38 686.8 201.08C686.8 202.82 688.05 204.3 690.47 204.3ZM688.57 201.07C688.57 200.06 689.36 199.57 690.25 199.29C691.3 198.99 692.76 198.82 694.28 198.62C694.27 199.11 694.25 199.8 694.1 200.32C693.84 201.66 692.66 202.81 690.74 202.81C689.2 202.81 688.57 201.96 688.57 201.07ZM698.85 204H700.63V189.6H698.85V204ZM703.83 191.29H705.61V189.45H703.83V191.29ZM703.83 204H705.61V193.2H703.83V204ZM712.981 209.1C715.561 209.1 717.261 208.03 717.681 205.73C717.781 205.2 717.811 204.67 717.811 204.07V193.2H716.231V194.41C715.441 193.46 714.311 192.9 712.841 192.9C709.841 192.9 708.011 195.35 708.011 198.59C708.011 201.83 709.831 204.3 712.851 204.3C714.181 204.3 715.251 203.82 716.021 203.01V204.05C716.041 206.25 715.051 207.38 712.991 207.38C711.941 207.38 710.871 206.93 710.341 205.87L708.711 206.73C709.611 208.34 711.281 209.1 712.981 209.1ZM709.901 198.59C709.901 196.31 710.921 194.53 713.121 194.53C715.231 194.53 716.231 196.2 716.231 198.59C716.231 200.96 715.251 202.67 713.071 202.67C710.941 202.67 709.901 200.89 709.901 198.59ZM728.293 198.59V204H730.093V198.03C730.093 195.98 729.273 192.92 725.793 192.92C724.233 192.92 722.993 193.52 722.193 194.59V193.2H720.593V204H722.393V198.31C722.393 195.81 723.573 194.61 725.363 194.61C727.643 194.61 728.293 196.56 728.293 198.59ZM745.613 197.09L745.603 204H747.383L747.393 196.7C747.393 194.4 746.013 192.92 743.763 192.92C742.343 192.92 741.133 193.59 740.493 194.7C739.913 193.57 738.803 192.92 737.343 192.92C736.053 192.92 734.953 193.47 734.273 194.35V193.2H732.683V204H734.473V197.14C734.473 195.56 735.413 194.51 736.823 194.51C738.233 194.51 739.163 195.52 739.163 197.16L739.153 204H740.923L740.933 197.14C740.933 195.32 742.083 194.51 743.293 194.51C744.653 194.51 745.613 195.48 745.613 197.09ZM754.58 204.3C756.67 204.3 758.46 203.21 759.31 201.3L757.6 200.71C757 201.94 755.92 202.61 754.5 202.61C752.51 202.61 751.35 201.34 751.21 199.1H759.49C759.65 195.26 757.75 192.9 754.5 192.9C751.36 192.9 749.3 195.13 749.3 198.67C749.3 202.05 751.39 204.3 754.58 204.3ZM751.24 197.67C751.49 195.62 752.62 194.5 754.56 194.5C756.39 194.5 757.42 195.55 757.64 197.67H751.24ZM769.113 198.59V204H770.913V198.03C770.913 195.98 770.093 192.92 766.613 192.92C765.053 192.92 763.813 193.52 763.013 194.59V193.2H761.413V204H763.213V198.31C763.213 195.81 764.393 194.61 766.183 194.61C768.463 194.61 769.113 196.56 769.113 198.59ZM779.543 204V202.47C778.063 202.7 776.983 202.64 776.503 201.78C776.243 201.33 776.283 200.73 776.283 199.84V194.67H779.543V193.2H776.283V190.2H774.503V193.2H772.313V194.67H774.503V199.92C774.503 201.04 774.443 201.86 774.873 202.7C775.623 204.17 777.613 204.39 779.543 204Z" fill="#110529"/>
    <path d="M74.6 58H76.38V43.6H74.6V58ZM87.0705 52.59V58H88.8705V52.03C88.8705 49.98 88.0505 46.92 84.5705 46.92C83.0105 46.92 81.7705 47.52 80.9705 48.59V47.2H79.3705V58H81.1705V52.31C81.1705 49.81 82.3505 48.61 84.1405 48.61C86.4205 48.61 87.0705 50.56 87.0705 52.59ZM91.6703 45.29H93.4503V43.45H91.6703V45.29ZM91.6703 58H93.4503V47.2H91.6703V58ZM102.481 58V56.47C101.001 56.7 99.9208 56.64 99.4408 55.78C99.1808 55.33 99.2208 54.73 99.2208 53.84V48.67H102.481V47.2H99.2208V44.2H97.4408V47.2H95.2508V48.67H97.4408V53.92C97.4408 55.04 97.3808 55.86 97.8108 56.7C98.5608 58.17 100.551 58.39 102.481 58ZM104.873 45.29H106.653V43.45H104.873V45.29ZM104.873 58H106.653V47.2H104.873V58ZM112.724 58.3C114.524 58.3 115.864 57.64 116.724 56.32V58H118.304V51.32C118.304 50.47 118.254 49.68 117.954 49.01C117.334 47.6 115.864 46.9 113.914 46.9C111.474 46.9 109.964 48.05 109.454 49.94L111.144 50.45C111.534 49.13 112.584 48.56 113.894 48.56C115.764 48.56 116.504 49.38 116.554 51.1C114.954 51.32 113.054 51.55 111.704 51.91C110.064 52.39 109.054 53.38 109.054 55.08C109.054 56.82 110.304 58.3 112.724 58.3ZM110.824 55.07C110.824 54.06 111.614 53.57 112.504 53.29C113.554 52.99 115.014 52.82 116.534 52.62C116.524 53.11 116.504 53.8 116.354 54.32C116.094 55.66 114.914 56.81 112.994 56.81C111.454 56.81 110.824 55.96 110.824 55.07ZM121.104 58H122.884V43.6H121.104V58ZM126.084 58H127.864V43.6H126.084V58ZM132.365 62.8H134.095L139.975 47.2H138.165L135.005 55.7L131.635 47.2H129.765L134.145 57.96L132.365 62.8ZM148.7 58.3C150.5 58.3 151.84 57.64 152.7 56.32V58H154.28V51.32C154.28 50.47 154.23 49.68 153.93 49.01C153.31 47.6 151.84 46.9 149.89 46.9C147.45 46.9 145.94 48.05 145.43 49.94L147.12 50.45C147.51 49.13 148.56 48.56 149.87 48.56C151.74 48.56 152.48 49.38 152.53 51.1C150.93 51.32 149.03 51.55 147.68 51.91C146.04 52.39 145.03 53.38 145.03 55.08C145.03 56.82 146.28 58.3 148.7 58.3ZM146.8 55.07C146.8 54.06 147.59 53.57 148.48 53.29C149.53 52.99 150.99 52.82 152.51 52.62C152.5 53.11 152.48 53.8 152.33 54.32C152.07 55.66 150.89 56.81 148.97 56.81C147.43 56.81 146.8 55.96 146.8 55.07ZM160.96 58.29C163.65 58.29 165.28 57.03 165.28 54.94C165.28 53.27 164.35 52.47 161.5 51.74C158.96 51.1 158.41 50.76 158.41 49.97C158.41 49.05 159.37 48.45 160.77 48.49C162.24 48.53 163.24 49.24 163.42 50.39L165.24 50.06C165.01 48.16 163.23 46.9 160.77 46.9C158.28 46.9 156.62 48.16 156.62 50.06C156.62 51.61 157.53 52.35 160.39 53.11C163.03 53.82 163.44 54.08 163.44 54.99C163.44 56.05 162.54 56.7 161.07 56.7C159.51 56.7 158.39 55.97 158.1 54.79L156.28 55.08C156.65 57.11 158.38 58.29 160.96 58.29ZM171.566 58.29C174.256 58.29 175.886 57.03 175.886 54.94C175.886 53.27 174.956 52.47 172.106 51.74C169.566 51.1 169.016 50.76 169.016 49.97C169.016 49.05 169.976 48.45 171.376 48.49C172.846 48.53 173.846 49.24 174.026 50.39L175.846 50.06C175.616 48.16 173.836 46.9 171.376 46.9C168.886 46.9 167.226 48.16 167.226 50.06C167.226 51.61 168.136 52.35 170.996 53.11C173.636 53.82 174.046 54.08 174.046 54.99C174.046 56.05 173.146 56.7 171.676 56.7C170.116 56.7 168.996 55.97 168.706 54.79L166.886 55.08C167.256 57.11 168.986 58.29 171.566 58.29ZM182.771 58.3C184.861 58.3 186.651 57.21 187.501 55.3L185.791 54.71C185.191 55.94 184.111 56.61 182.691 56.61C180.701 56.61 179.541 55.34 179.401 53.1H187.681C187.841 49.26 185.941 46.9 182.691 46.9C179.551 46.9 177.491 49.13 177.491 52.67C177.491 56.05 179.581 58.3 182.771 58.3ZM179.431 51.67C179.681 49.62 180.811 48.5 182.751 48.5C184.581 48.5 185.611 49.55 185.831 51.67H179.431ZM202.535 51.09L202.525 58H204.305L204.315 50.7C204.315 48.4 202.935 46.92 200.685 46.92C199.265 46.92 198.055 47.59 197.415 48.7C196.835 47.57 195.725 46.92 194.265 46.92C192.975 46.92 191.875 47.47 191.195 48.35V47.2H189.605V58H191.395V51.14C191.395 49.56 192.335 48.51 193.745 48.51C195.155 48.51 196.085 49.52 196.085 51.16L196.075 58H197.845L197.855 51.14C197.855 49.32 199.005 48.51 200.215 48.51C201.575 48.51 202.535 49.48 202.535 51.09ZM211.88 58.3C214.9 58.3 216.72 55.83 216.72 52.59C216.72 49.35 214.89 46.9 211.89 46.9C210.54 46.9 209.47 47.37 208.7 48.18V43.6H206.91V58H208.5V56.78C209.29 57.73 210.42 58.3 211.88 58.3ZM208.5 52.59C208.5 50.2 209.5 48.53 211.61 48.53C213.81 48.53 214.83 50.31 214.83 52.59C214.83 54.89 213.79 56.67 211.66 56.67C209.48 56.67 208.5 54.96 208.5 52.59ZM219.112 58H220.892V43.6H219.112V58ZM228.572 58.3C230.662 58.3 232.452 57.21 233.302 55.3L231.592 54.71C230.992 55.94 229.912 56.61 228.492 56.61C226.502 56.61 225.342 55.34 225.202 53.1H233.482C233.642 49.26 231.742 46.9 228.492 46.9C225.352 46.9 223.292 49.13 223.292 52.67C223.292 56.05 225.382 58.3 228.572 58.3ZM225.232 51.67C225.482 49.62 226.612 48.5 228.552 48.5C230.382 48.5 231.412 49.55 231.632 51.67H225.232ZM239.949 58.3C241.409 58.3 242.539 57.73 243.329 56.78V58H244.919V43.6H243.129V48.18C242.359 47.37 241.289 46.9 239.939 46.9C236.939 46.9 235.109 49.35 235.109 52.59C235.109 55.83 236.929 58.3 239.949 58.3ZM236.999 52.59C236.999 50.31 238.019 48.53 240.219 48.53C242.329 48.53 243.329 50.2 243.329 52.59C243.329 54.96 242.349 56.67 240.169 56.67C238.039 56.67 236.999 54.89 236.999 52.59ZM257.644 58.3C260.974 58.3 263.164 56.47 263.984 53.61L262.174 53.13C261.584 55.27 260.074 56.6 257.644 56.6C254.424 56.6 252.784 54.25 252.804 50.8C252.824 47.35 254.424 45 257.644 45C260.074 45 261.584 46.33 262.174 48.47L263.984 47.99C263.164 45.13 260.974 43.3 257.644 43.3C253.334 43.3 250.924 46.36 250.924 50.8C250.924 55.24 253.334 58.3 257.644 58.3ZM266.177 58H270.617C270.887 58 271.767 58 272.437 57.91C275.767 57.47 277.497 54.48 277.497 50.8C277.497 47.13 275.767 44.13 272.437 43.69C271.757 43.6 270.897 43.6 270.617 43.6H266.177V58ZM268.007 56.3V45.3H270.617C271.097 45.3 271.817 45.32 272.287 45.41C274.617 45.83 275.607 48.08 275.607 50.8C275.607 53.47 274.647 55.76 272.287 56.19C271.817 56.28 271.117 56.3 270.617 56.3H268.007ZM279.791 58H281.571V52.68H285.781L288.361 58H290.401L287.621 52.29C289.251 51.61 290.101 50.04 290.101 48.14C290.101 45.85 288.871 44.04 286.541 43.68C286.171 43.62 285.761 43.6 285.481 43.6H279.791V58ZM281.571 50.99V45.29H285.421C285.671 45.29 286.021 45.31 286.321 45.38C287.701 45.69 288.281 46.94 288.281 48.14C288.281 49.34 287.701 50.59 286.321 50.9C286.021 50.97 285.671 50.99 285.421 50.99H281.571ZM296.553 58.28C299.223 58.28 301.253 56.33 301.253 53.57C301.253 51.05 299.653 49.18 297.173 49.04L301.063 45.31V43.6H292.573V45.3H298.853L294.173 49.53L295.033 50.94C295.483 50.71 296.033 50.56 296.523 50.56C298.253 50.56 299.423 51.79 299.423 53.57C299.423 55.33 298.293 56.55 296.543 56.58C295.263 56.6 294.143 55.89 293.713 54.55L292.003 55.04C292.613 57.04 294.413 58.28 296.553 58.28ZM312.407 58.3C314.637 58.3 316.267 57.21 317.027 55.19L315.227 54.72C314.737 55.95 313.807 56.61 312.407 56.61C310.257 56.61 309.167 55.01 309.147 52.6C309.167 50.26 310.187 48.59 312.407 48.59C313.717 48.59 314.807 49.32 315.267 50.57L317.027 50.04C316.457 48.1 314.697 46.9 312.427 46.9C309.177 46.9 307.287 49.23 307.257 52.6C307.287 55.91 309.117 58.3 312.407 58.3ZM318.975 58H320.755V43.6H318.975V58ZM328.355 58.3C331.565 58.3 333.565 55.98 333.565 52.59C333.565 49.25 331.595 46.9 328.355 46.9C325.185 46.9 323.155 49.2 323.155 52.59C323.155 55.94 325.125 58.3 328.355 58.3ZM325.045 52.59C325.045 50.23 326.095 48.59 328.355 48.59C330.565 48.59 331.675 50.16 331.675 52.59C331.675 54.97 330.585 56.61 328.355 56.61C326.175 56.61 325.045 55.03 325.045 52.59ZM343.457 52.59V58H345.257V52.03C345.257 49.98 344.437 46.92 340.957 46.92C339.397 46.92 338.157 47.52 337.357 48.59V47.2H335.757V58H337.557V52.31C337.557 49.81 338.737 48.61 340.527 48.61C342.807 48.61 343.457 50.56 343.457 52.59ZM352.439 58.3C354.529 58.3 356.319 57.21 357.169 55.3L355.459 54.71C354.859 55.94 353.779 56.61 352.359 56.61C350.369 56.61 349.209 55.34 349.069 53.1H357.349C357.509 49.26 355.609 46.9 352.359 46.9C349.219 46.9 347.159 49.13 347.159 52.67C347.159 56.05 349.249 58.3 352.439 58.3ZM349.099 51.67C349.349 49.62 350.479 48.5 352.419 48.5C354.249 48.5 355.279 49.55 355.499 51.67H349.099Z" fill="#110529"/>
    <path d="M417 50L417.707 49.2929L418.414 50L417.707 50.7071L417 50ZM409.707 58.7071L409 59.4142L407.586 58L408.293 57.2929L409.707 58.7071ZM408.293 42.7071L407.586 42L409 40.5858L409.707 41.2929L408.293 42.7071ZM386 49L417 49L417 51L386 51L386 49ZM417.707 50.7071L409.707 58.7071L408.293 57.2929L416.293 49.2929L417.707 50.7071ZM416.293 50.7071L408.293 42.7071L409.707 41.2929L417.707 49.2929L416.293 50.7071Z" fill="#110529"/>
    <path d="M453.209 58H455.792L460.813 43H458.896L454.48 56.0208L450.126 43H448.188L453.209 58Z" fill="#110529"/>
    <g filter="url(#filter14_i_5544_35798)">
        <rect x="474" y="24" width="30" height="52" rx="1" fill="#CBEB67"/>
    </g>
    <rect x="474" y="24" width="30" height="52" rx="1" stroke="#110529" stroke-width="2" stroke-linecap="round"/>
    <g filter="url(#filter15_i_5544_35798)">
        <rect x="540" y="24" width="30" height="52" rx="1" fill="#FAAAFA"/>
    </g>
    <rect x="540" y="24" width="30" height="52" rx="1" stroke="#110529" stroke-width="2" stroke-linecap="round"/>
    <g filter="url(#filter16_i_5544_35798)">
        <rect x="504" y="24" width="36" height="52" rx="1" fill="#FFCB8F"/>
    </g>
    <rect x="504" y="24" width="36" height="52" rx="1" stroke="#110529" stroke-width="2" stroke-linecap="round"/>
    <path d="M483.447 58H485.247V46.74L492.757 58H494.557V43.6H492.757V54.85L485.247 43.6H483.447V58Z" fill="#110529"/>
    <path d="M549.447 58H551.247V46.74L558.757 58H560.557V43.6H558.757V54.85L551.247 43.6H549.447V58Z" fill="#110529"/>
    <path d="M516.593 58H521.033C521.303 58 522.183 58 522.853 57.91C526.183 57.47 527.913 54.48 527.913 50.8C527.913 47.13 526.183 44.13 522.853 43.69C522.173 43.6 521.313 43.6 521.033 43.6H516.593V58ZM518.423 56.3V45.3H521.033C521.513 45.3 522.233 45.32 522.703 45.41C525.033 45.83 526.023 48.08 526.023 50.8C526.023 53.47 525.063 55.76 522.703 56.19C522.233 56.28 521.533 56.3 521.033 56.3H518.423Z" fill="#110529"/>
    <g filter="url(#filter17_i_5544_35798)">
        <rect x="474" y="92" width="30" height="52" rx="1" fill="#CBEB67"/>
    </g>
    <rect x="474" y="92" width="30" height="52" rx="1" stroke="#110529" stroke-width="2" stroke-linecap="round"/>
    <g filter="url(#filter18_i_5544_35798)">
        <rect x="540" y="92" width="30" height="52" rx="1" fill="#FAAAFA"/>
    </g>
    <rect x="540" y="92" width="30" height="52" rx="1" stroke="#110529" stroke-width="2" stroke-linecap="round"/>
    <g filter="url(#filter19_i_5544_35798)">
        <rect x="504" y="92" width="36" height="52" rx="1" fill="#FFCB8F"/>
    </g>
    <rect x="504" y="92" width="36" height="52" rx="1" stroke="#110529" stroke-width="2" stroke-linecap="round"/>
    <path d="M483.447 126H485.247V114.74L492.757 126H494.557V111.6H492.757V122.85L485.247 111.6H483.447V126Z" fill="#110529"/>
    <path d="M549.447 126H551.247V114.74L558.757 126H560.557V111.6H558.757V122.85L551.247 111.6H549.447V126Z" fill="#110529"/>
    <path d="M516.593 126H521.033C521.303 126 522.183 126 522.853 125.91C526.183 125.47 527.913 122.48 527.913 118.8C527.913 115.13 526.183 112.13 522.853 111.69C522.173 111.6 521.313 111.6 521.033 111.6H516.593V126ZM518.423 124.3V113.3H521.033C521.513 113.3 522.233 113.32 522.703 113.41C525.033 113.83 526.023 116.08 526.023 118.8C526.023 121.47 525.063 123.76 522.703 124.19C522.233 124.28 521.533 124.3 521.033 124.3H518.423Z" fill="#110529"/>
    <g filter="url(#filter20_i_5544_35798)">
        <rect x="474" y="160" width="30" height="52" rx="1" fill="#CBEB67"/>
    </g>
    <rect x="474" y="160" width="30" height="52" rx="1" stroke="#110529" stroke-width="2" stroke-linecap="round"/>
    <g filter="url(#filter21_i_5544_35798)">
        <rect x="540" y="160" width="30" height="52" rx="1" fill="#FAAAFA"/>
    </g>
    <rect x="540" y="160" width="30" height="52" rx="1" stroke="#110529" stroke-width="2" stroke-linecap="round"/>
    <g filter="url(#filter22_i_5544_35798)">
        <rect x="504" y="160" width="36" height="52" rx="1" fill="#FFCB8F"/>
    </g>
    <rect x="504" y="160" width="36" height="52" rx="1" stroke="#110529" stroke-width="2" stroke-linecap="round"/>
    <path d="M483.447 194H485.247V182.74L492.757 194H494.557V179.6H492.757V190.85L485.247 179.6H483.447V194Z" fill="#110529"/>
    <path d="M549.447 194H551.247V182.74L558.757 194H560.557V179.6H558.757V190.85L551.247 179.6H549.447V194Z" fill="#110529"/>
    <path d="M516.593 194H521.033C521.303 194 522.183 194 522.853 193.91C526.183 193.47 527.913 190.48 527.913 186.8C527.913 183.13 526.183 180.13 522.853 179.69C522.173 179.6 521.313 179.6 521.033 179.6H516.593V194ZM518.423 192.3V181.3H521.033C521.513 181.3 522.233 181.32 522.703 181.41C525.033 181.83 526.023 184.08 526.023 186.8C526.023 189.47 525.063 191.76 522.703 192.19C522.233 192.28 521.533 192.3 521.033 192.3H518.423Z" fill="#110529"/>
    <g filter="url(#filter23_i_5544_35798)">
        <rect x="474" y="308" width="30" height="52" rx="1" fill="#CBEB67"/>
    </g>
    <rect x="474" y="308" width="30" height="52" rx="1" stroke="#110529" stroke-width="2" stroke-linecap="round"/>
    <g filter="url(#filter24_i_5544_35798)">
        <rect x="540" y="308" width="30" height="52" rx="1" fill="#FAAAFA"/>
    </g>
    <rect x="540" y="308" width="30" height="52" rx="1" stroke="#110529" stroke-width="2" stroke-linecap="round"/>
    <g filter="url(#filter25_i_5544_35798)">
        <rect x="504" y="308" width="36" height="52" rx="1" fill="#FFCB8F"/>
    </g>
    <rect x="504" y="308" width="36" height="52" rx="1" stroke="#110529" stroke-width="2" stroke-linecap="round"/>
    <path d="M483.447 342H485.247V330.74L492.757 342H494.557V327.6H492.757V338.85L485.247 327.6H483.447V342Z" fill="#110529"/>
    <path d="M549.447 342H551.247V330.74L558.757 342H560.557V327.6H558.757V338.85L551.247 327.6H549.447V342Z" fill="#110529"/>
    <path d="M516.593 342H521.033C521.303 342 522.183 342 522.853 341.91C526.183 341.47 527.913 338.48 527.913 334.8C527.913 331.13 526.183 328.13 522.853 327.69C522.173 327.6 521.313 327.6 521.033 327.6H516.593V342ZM518.423 340.3V329.3H521.033C521.513 329.3 522.233 329.32 522.703 329.41C525.033 329.83 526.023 332.08 526.023 334.8C526.023 337.47 525.063 339.76 522.703 340.19C522.233 340.28 521.533 340.3 521.033 340.3H518.423Z" fill="#110529"/>
    <defs>
        <filter id="filter0_i_5544_35798" x="569" y="91" width="184" height="54" filterUnits="userSpaceOnUse" color-interpolation-filters="sRGB">
            <feFlood flood-opacity="0" result="BackgroundImageFix"/>
            <feBlend mode="normal" in="SourceGraphic" in2="BackgroundImageFix" result="shape"/>
            <feColorMatrix in="SourceAlpha" type="matrix" values="0 0 0 0 0 0 0 0 0 0 0 0 0 0 0 0 0 0 127 0" result="hardAlpha"/>
            <feOffset dx="-8" dy="-4"/>
            <feComposite in2="hardAlpha" operator="arithmetic" k2="-1" k3="1"/>
            <feColorMatrix type="matrix" values="0 0 0 0 0.0666667 0 0 0 0 0.0196078 0 0 0 0 0.160784 0 0 0 0.16 0"/>
            <feBlend mode="normal" in2="shape" result="effect1_innerShadow_5544_35798"/>
        </filter>
        <filter id="filter1_i_5544_35798" x="569" y="23" width="42" height="54" filterUnits="userSpaceOnUse" color-interpolation-filters="sRGB">
            <feFlood flood-opacity="0" result="BackgroundImageFix"/>
            <feBlend mode="normal" in="SourceGraphic" in2="BackgroundImageFix" result="shape"/>
            <feColorMatrix in="SourceAlpha" type="matrix" values="0 0 0 0 0 0 0 0 0 0 0 0 0 0 0 0 0 0 127 0" result="hardAlpha"/>
            <feOffset dx="-8" dy="-4"/>
            <feComposite in2="hardAlpha" operator="arithmetic" k2="-1" k3="1"/>
            <feColorMatrix type="matrix" values="0 0 0 0 0.0666667 0 0 0 0 0.0196078 0 0 0 0 0.160784 0 0 0 0.16 0"/>
            <feBlend mode="normal" in2="shape" result="effect1_innerShadow_5544_35798"/>
        </filter>
        <filter id="filter2_i_5544_35798" x="412.737" y="91" width="62.2625" height="54" filterUnits="userSpaceOnUse" color-interpolation-filters="sRGB">
            <feFlood flood-opacity="0" result="BackgroundImageFix"/>
            <feBlend mode="normal" in="SourceGraphic" in2="BackgroundImageFix" result="shape"/>
            <feColorMatrix in="SourceAlpha" type="matrix" values="0 0 0 0 0 0 0 0 0 0 0 0 0 0 0 0 0 0 127 0" result="hardAlpha"/>
            <feOffset dx="-8" dy="-4"/>
            <feComposite in2="hardAlpha" operator="arithmetic" k2="-1" k3="1"/>
            <feColorMatrix type="matrix" values="0 0 0 0 0.0666667 0 0 0 0 0.0196078 0 0 0 0 0.160784 0 0 0 0.16 0"/>
            <feBlend mode="normal" in2="shape" result="effect1_innerShadow_5544_35798"/>
        </filter>
        <filter id="filter3_i_5544_35798" x="372.737" y="159" width="102.263" height="54" filterUnits="userSpaceOnUse" color-interpolation-filters="sRGB">
            <feFlood flood-opacity="0" result="BackgroundImageFix"/>
            <feBlend mode="normal" in="SourceGraphic" in2="BackgroundImageFix" result="shape"/>
            <feColorMatrix in="SourceAlpha" type="matrix" values="0 0 0 0 0 0 0 0 0 0 0 0 0 0 0 0 0 0 127 0" result="hardAlpha"/>
            <feOffset dx="-8" dy="-4"/>
            <feComposite in2="hardAlpha" operator="arithmetic" k2="-1" k3="1"/>
            <feColorMatrix type="matrix" values="0 0 0 0 0.0666667 0 0 0 0 0.0196078 0 0 0 0 0.160784 0 0 0 0.16 0"/>
            <feBlend mode="normal" in2="shape" result="effect1_innerShadow_5544_35798"/>
        </filter>
        <filter id="filter4_i_5544_35798" x="569" y="159" width="58.2625" height="54" filterUnits="userSpaceOnUse" color-interpolation-filters="sRGB">
            <feFlood flood-opacity="0" result="BackgroundImageFix"/>
            <feBlend mode="normal" in="SourceGraphic" in2="BackgroundImageFix" result="shape"/>
            <feColorMatrix in="SourceAlpha" type="matrix" values="0 0 0 0 0 0 0 0 0 0 0 0 0 0 0 0 0 0 127 0" result="hardAlpha"/>
            <feOffset dx="-8" dy="-4"/>
            <feComposite in2="hardAlpha" operator="arithmetic" k2="-1" k3="1"/>
            <feColorMatrix type="matrix" values="0 0 0 0 0.0666667 0 0 0 0 0.0196078 0 0 0 0 0.160784 0 0 0 0.16 0"/>
            <feBlend mode="normal" in2="shape" result="effect1_innerShadow_5544_35798"/>
        </filter>
        <filter id="filter5_i_5544_35798" x="169" y="91" width="113.031" height="54" filterUnits="userSpaceOnUse" color-interpolation-filters="sRGB">
            <feFlood flood-opacity="0" result="BackgroundImageFix"/>
            <feBlend mode="normal" in="SourceGraphic" in2="BackgroundImageFix" result="shape"/>
            <feColorMatrix in="SourceAlpha" type="matrix" values="0 0 0 0 0 0 0 0 0 0 0 0 0 0 0 0 0 0 127 0" result="hardAlpha"/>
            <feOffset dx="-8" dy="-4"/>
            <feComposite in2="hardAlpha" operator="arithmetic" k2="-1" k3="1"/>
            <feColorMatrix type="matrix" values="0 0 0 0 0.0666667 0 0 0 0 0.0196078 0 0 0 0 0.160784 0 0 0 0.16 0"/>
            <feBlend mode="normal" in2="shape" result="effect1_innerShadow_5544_35798"/>
        </filter>
        <filter id="filter6_i_5544_35798" x="131" y="91" width="42" height="54" filterUnits="userSpaceOnUse" color-interpolation-filters="sRGB">
            <feFlood flood-opacity="0" result="BackgroundImageFix"/>
            <feBlend mode="normal" in="SourceGraphic" in2="BackgroundImageFix" result="shape"/>
            <feColorMatrix in="SourceAlpha" type="matrix" values="0 0 0 0 0 0 0 0 0 0 0 0 0 0 0 0 0 0 127 0" result="hardAlpha"/>
            <feOffset dx="-8" dy="-4"/>
            <feComposite in2="hardAlpha" operator="arithmetic" k2="-1" k3="1"/>
            <feColorMatrix type="matrix" values="0 0 0 0 0.0666667 0 0 0 0 0.0196078 0 0 0 0 0.160784 0 0 0 0.16 0"/>
            <feBlend mode="normal" in2="shape" result="effect1_innerShadow_5544_35798"/>
        </filter>
        <filter id="filter7_i_5544_35798" x="159" y="159" width="185.031" height="54" filterUnits="userSpaceOnUse" color-interpolation-filters="sRGB">
            <feFlood flood-opacity="0" result="BackgroundImageFix"/>
            <feBlend mode="normal" in="SourceGraphic" in2="BackgroundImageFix" result="shape"/>
            <feColorMatrix in="SourceAlpha" type="matrix" values="0 0 0 0 0 0 0 0 0 0 0 0 0 0 0 0 0 0 127 0" result="hardAlpha"/>
            <feOffset dx="-8" dy="-4"/>
            <feComposite in2="hardAlpha" operator="arithmetic" k2="-1" k3="1"/>
            <feColorMatrix type="matrix" values="0 0 0 0 0.0666667 0 0 0 0 0.0196078 0 0 0 0 0.160784 0 0 0 0.16 0"/>
            <feBlend mode="normal" in2="shape" result="effect1_innerShadow_5544_35798"/>
        </filter>
        <filter id="filter8_i_5544_35798" x="31" y="159" width="142" height="54" filterUnits="userSpaceOnUse" color-interpolation-filters="sRGB">
            <feFlood flood-opacity="0" result="BackgroundImageFix"/>
            <feBlend mode="normal" in="SourceGraphic" in2="BackgroundImageFix" result="shape"/>
            <feColorMatrix in="SourceAlpha" type="matrix" values="0 0 0 0 0 0 0 0 0 0 0 0 0 0 0 0 0 0 127 0" result="hardAlpha"/>
            <feOffset dx="-8" dy="-4"/>
            <feComposite in2="hardAlpha" operator="arithmetic" k2="-1" k3="1"/>
            <feColorMatrix type="matrix" values="0 0 0 0 0.0666667 0 0 0 0 0.0196078 0 0 0 0 0.160784 0 0 0 0.16 0"/>
            <feBlend mode="normal" in2="shape" result="effect1_innerShadow_5544_35798"/>
        </filter>
        <filter id="filter9_i_5544_35798" x="310.737" y="91" width="73.2934" height="54" filterUnits="userSpaceOnUse" color-interpolation-filters="sRGB">
            <feFlood flood-opacity="0" result="BackgroundImageFix"/>
            <feBlend mode="normal" in="SourceGraphic" in2="BackgroundImageFix" result="shape"/>
            <feColorMatrix in="SourceAlpha" type="matrix" values="0 0 0 0 0 0 0 0 0 0 0 0 0 0 0 0 0 0 127 0" result="hardAlpha"/>
            <feOffset dx="-8" dy="-4"/>
            <feComposite in2="hardAlpha" operator="arithmetic" k2="-1" k3="1"/>
            <feColorMatrix type="matrix" values="0 0 0 0 0.0666667 0 0 0 0 0.0196078 0 0 0 0 0.160784 0 0 0 0.16 0"/>
            <feBlend mode="normal" in2="shape" result="effect1_innerShadow_5544_35798"/>
        </filter>
        <filter id="filter10_i_5544_35798" x="171" y="307" width="305" height="54" filterUnits="userSpaceOnUse" color-interpolation-filters="sRGB">
            <feFlood flood-opacity="0" result="BackgroundImageFix"/>
            <feBlend mode="normal" in="SourceGraphic" in2="BackgroundImageFix" result="shape"/>
            <feColorMatrix in="SourceAlpha" type="matrix" values="0 0 0 0 0 0 0 0 0 0 0 0 0 0 0 0 0 0 127 0" result="hardAlpha"/>
            <feOffset dx="-8" dy="-4"/>
            <feComposite in2="hardAlpha" operator="arithmetic" k2="-1" k3="1"/>
            <feColorMatrix type="matrix" values="0 0 0 0 0.0666667 0 0 0 0 0.0196078 0 0 0 0 0.160784 0 0 0 0.16 0"/>
            <feBlend mode="normal" in2="shape" result="effect1_innerShadow_5544_35798"/>
        </filter>
        <filter id="filter11_i_5544_35798" x="433" y="23" width="42" height="54" filterUnits="userSpaceOnUse" color-interpolation-filters="sRGB">
            <feFlood flood-opacity="0" result="BackgroundImageFix"/>
            <feBlend mode="normal" in="SourceGraphic" in2="BackgroundImageFix" result="shape"/>
            <feColorMatrix in="SourceAlpha" type="matrix" values="0 0 0 0 0 0 0 0 0 0 0 0 0 0 0 0 0 0 127 0" result="hardAlpha"/>
            <feOffset dx="-8" dy="-4"/>
            <feComposite in2="hardAlpha" operator="arithmetic" k2="-1" k3="1"/>
            <feColorMatrix type="matrix" values="0 0 0 0 0.0666667 0 0 0 0 0.0196078 0 0 0 0 0.160784 0 0 0 0.16 0"/>
            <feBlend mode="normal" in2="shape" result="effect1_innerShadow_5544_35798"/>
        </filter>
        <filter id="filter12_i_5544_35798" x="31" y="307" width="142" height="54" filterUnits="userSpaceOnUse" color-interpolation-filters="sRGB">
            <feFlood flood-opacity="0" result="BackgroundImageFix"/>
            <feBlend mode="normal" in="SourceGraphic" in2="BackgroundImageFix" result="shape"/>
            <feColorMatrix in="SourceAlpha" type="matrix" values="0 0 0 0 0 0 0 0 0 0 0 0 0 0 0 0 0 0 127 0" result="hardAlpha"/>
            <feOffset dx="-8" dy="-4"/>
            <feComposite in2="hardAlpha" operator="arithmetic" k2="-1" k3="1"/>
            <feColorMatrix type="matrix" values="0 0 0 0 0.0666667 0 0 0 0 0.0196078 0 0 0 0 0.160784 0 0 0 0.16 0"/>
            <feBlend mode="normal" in2="shape" result="effect1_innerShadow_5544_35798"/>
        </filter>
        <filter id="filter13_i_5544_35798" x="569" y="307" width="184" height="54" filterUnits="userSpaceOnUse" color-interpolation-filters="sRGB">
            <feFlood flood-opacity="0" result="BackgroundImageFix"/>
            <feBlend mode="normal" in="SourceGraphic" in2="BackgroundImageFix" result="shape"/>
            <feColorMatrix in="SourceAlpha" type="matrix" values="0 0 0 0 0 0 0 0 0 0 0 0 0 0 0 0 0 0 127 0" result="hardAlpha"/>
            <feOffset dx="-8" dy="-4"/>
            <feComposite in2="hardAlpha" operator="arithmetic" k2="-1" k3="1"/>
            <feColorMatrix type="matrix" values="0 0 0 0 0.0666667 0 0 0 0 0.0196078 0 0 0 0 0.160784 0 0 0 0.16 0"/>
            <feBlend mode="normal" in2="shape" result="effect1_innerShadow_5544_35798"/>
        </filter>
        <filter id="filter14_i_5544_35798" x="473" y="23" width="32" height="54" filterUnits="userSpaceOnUse" color-interpolation-filters="sRGB">
            <feFlood flood-opacity="0" result="BackgroundImageFix"/>
            <feBlend mode="normal" in="SourceGraphic" in2="BackgroundImageFix" result="shape"/>
            <feColorMatrix in="SourceAlpha" type="matrix" values="0 0 0 0 0 0 0 0 0 0 0 0 0 0 0 0 0 0 127 0" result="hardAlpha"/>
            <feOffset dx="-8" dy="-4"/>
            <feComposite in2="hardAlpha" operator="arithmetic" k2="-1" k3="1"/>
            <feColorMatrix type="matrix" values="0 0 0 0 0.0666667 0 0 0 0 0.0196078 0 0 0 0 0.160784 0 0 0 0.16 0"/>
            <feBlend mode="normal" in2="shape" result="effect1_innerShadow_5544_35798"/>
        </filter>
        <filter id="filter15_i_5544_35798" x="539" y="23" width="32" height="54" filterUnits="userSpaceOnUse" color-interpolation-filters="sRGB">
            <feFlood flood-opacity="0" result="BackgroundImageFix"/>
            <feBlend mode="normal" in="SourceGraphic" in2="BackgroundImageFix" result="shape"/>
            <feColorMatrix in="SourceAlpha" type="matrix" values="0 0 0 0 0 0 0 0 0 0 0 0 0 0 0 0 0 0 127 0" result="hardAlpha"/>
            <feOffset dx="-8" dy="-4"/>
            <feComposite in2="hardAlpha" operator="arithmetic" k2="-1" k3="1"/>
            <feColorMatrix type="matrix" values="0 0 0 0 0.0666667 0 0 0 0 0.0196078 0 0 0 0 0.160784 0 0 0 0.16 0"/>
            <feBlend mode="normal" in2="shape" result="effect1_innerShadow_5544_35798"/>
        </filter>
        <filter id="filter16_i_5544_35798" x="503" y="23" width="38" height="54" filterUnits="userSpaceOnUse" color-interpolation-filters="sRGB">
            <feFlood flood-opacity="0" result="BackgroundImageFix"/>
            <feBlend mode="normal" in="SourceGraphic" in2="BackgroundImageFix" result="shape"/>
            <feColorMatrix in="SourceAlpha" type="matrix" values="0 0 0 0 0 0 0 0 0 0 0 0 0 0 0 0 0 0 127 0" result="hardAlpha"/>
            <feOffset dx="-8" dy="-4"/>
            <feComposite in2="hardAlpha" operator="arithmetic" k2="-1" k3="1"/>
            <feColorMatrix type="matrix" values="0 0 0 0 0.0666667 0 0 0 0 0.0196078 0 0 0 0 0.160784 0 0 0 0.16 0"/>
            <feBlend mode="normal" in2="shape" result="effect1_innerShadow_5544_35798"/>
        </filter>
        <filter id="filter17_i_5544_35798" x="473" y="91" width="32" height="54" filterUnits="userSpaceOnUse" color-interpolation-filters="sRGB">
            <feFlood flood-opacity="0" result="BackgroundImageFix"/>
            <feBlend mode="normal" in="SourceGraphic" in2="BackgroundImageFix" result="shape"/>
            <feColorMatrix in="SourceAlpha" type="matrix" values="0 0 0 0 0 0 0 0 0 0 0 0 0 0 0 0 0 0 127 0" result="hardAlpha"/>
            <feOffset dx="-8" dy="-4"/>
            <feComposite in2="hardAlpha" operator="arithmetic" k2="-1" k3="1"/>
            <feColorMatrix type="matrix" values="0 0 0 0 0.0666667 0 0 0 0 0.0196078 0 0 0 0 0.160784 0 0 0 0.16 0"/>
            <feBlend mode="normal" in2="shape" result="effect1_innerShadow_5544_35798"/>
        </filter>
        <filter id="filter18_i_5544_35798" x="539" y="91" width="32" height="54" filterUnits="userSpaceOnUse" color-interpolation-filters="sRGB">
            <feFlood flood-opacity="0" result="BackgroundImageFix"/>
            <feBlend mode="normal" in="SourceGraphic" in2="BackgroundImageFix" result="shape"/>
            <feColorMatrix in="SourceAlpha" type="matrix" values="0 0 0 0 0 0 0 0 0 0 0 0 0 0 0 0 0 0 127 0" result="hardAlpha"/>
            <feOffset dx="-8" dy="-4"/>
            <feComposite in2="hardAlpha" operator="arithmetic" k2="-1" k3="1"/>
            <feColorMatrix type="matrix" values="0 0 0 0 0.0666667 0 0 0 0 0.0196078 0 0 0 0 0.160784 0 0 0 0.16 0"/>
            <feBlend mode="normal" in2="shape" result="effect1_innerShadow_5544_35798"/>
        </filter>
        <filter id="filter19_i_5544_35798" x="503" y="91" width="38" height="54" filterUnits="userSpaceOnUse" color-interpolation-filters="sRGB">
            <feFlood flood-opacity="0" result="BackgroundImageFix"/>
            <feBlend mode="normal" in="SourceGraphic" in2="BackgroundImageFix" result="shape"/>
            <feColorMatrix in="SourceAlpha" type="matrix" values="0 0 0 0 0 0 0 0 0 0 0 0 0 0 0 0 0 0 127 0" result="hardAlpha"/>
            <feOffset dx="-8" dy="-4"/>
            <feComposite in2="hardAlpha" operator="arithmetic" k2="-1" k3="1"/>
            <feColorMatrix type="matrix" values="0 0 0 0 0.0666667 0 0 0 0 0.0196078 0 0 0 0 0.160784 0 0 0 0.16 0"/>
            <feBlend mode="normal" in2="shape" result="effect1_innerShadow_5544_35798"/>
        </filter>
        <filter id="filter20_i_5544_35798" x="473" y="159" width="32" height="54" filterUnits="userSpaceOnUse" color-interpolation-filters="sRGB">
            <feFlood flood-opacity="0" result="BackgroundImageFix"/>
            <feBlend mode="normal" in="SourceGraphic" in2="BackgroundImageFix" result="shape"/>
            <feColorMatrix in="SourceAlpha" type="matrix" values="0 0 0 0 0 0 0 0 0 0 0 0 0 0 0 0 0 0 127 0" result="hardAlpha"/>
            <feOffset dx="-8" dy="-4"/>
            <feComposite in2="hardAlpha" operator="arithmetic" k2="-1" k3="1"/>
            <feColorMatrix type="matrix" values="0 0 0 0 0.0666667 0 0 0 0 0.0196078 0 0 0 0 0.160784 0 0 0 0.16 0"/>
            <feBlend mode="normal" in2="shape" result="effect1_innerShadow_5544_35798"/>
        </filter>
        <filter id="filter21_i_5544_35798" x="539" y="159" width="32" height="54" filterUnits="userSpaceOnUse" color-interpolation-filters="sRGB">
            <feFlood flood-opacity="0" result="BackgroundImageFix"/>
            <feBlend mode="normal" in="SourceGraphic" in2="BackgroundImageFix" result="shape"/>
            <feColorMatrix in="SourceAlpha" type="matrix" values="0 0 0 0 0 0 0 0 0 0 0 0 0 0 0 0 0 0 127 0" result="hardAlpha"/>
            <feOffset dx="-8" dy="-4"/>
            <feComposite in2="hardAlpha" operator="arithmetic" k2="-1" k3="1"/>
            <feColorMatrix type="matrix" values="0 0 0 0 0.0666667 0 0 0 0 0.0196078 0 0 0 0 0.160784 0 0 0 0.16 0"/>
            <feBlend mode="normal" in2="shape" result="effect1_innerShadow_5544_35798"/>
        </filter>
        <filter id="filter22_i_5544_35798" x="503" y="159" width="38" height="54" filterUnits="userSpaceOnUse" color-interpolation-filters="sRGB">
            <feFlood flood-opacity="0" result="BackgroundImageFix"/>
            <feBlend mode="normal" in="SourceGraphic" in2="BackgroundImageFix" result="shape"/>
            <feColorMatrix in="SourceAlpha" type="matrix" values="0 0 0 0 0 0 0 0 0 0 0 0 0 0 0 0 0 0 127 0" result="hardAlpha"/>
            <feOffset dx="-8" dy="-4"/>
            <feComposite in2="hardAlpha" operator="arithmetic" k2="-1" k3="1"/>
            <feColorMatrix type="matrix" values="0 0 0 0 0.0666667 0 0 0 0 0.0196078 0 0 0 0 0.160784 0 0 0 0.16 0"/>
            <feBlend mode="normal" in2="shape" result="effect1_innerShadow_5544_35798"/>
        </filter>
        <filter id="filter23_i_5544_35798" x="473" y="307" width="32" height="54" filterUnits="userSpaceOnUse" color-interpolation-filters="sRGB">
            <feFlood flood-opacity="0" result="BackgroundImageFix"/>
            <feBlend mode="normal" in="SourceGraphic" in2="BackgroundImageFix" result="shape"/>
            <feColorMatrix in="SourceAlpha" type="matrix" values="0 0 0 0 0 0 0 0 0 0 0 0 0 0 0 0 0 0 127 0" result="hardAlpha"/>
            <feOffset dx="-8" dy="-4"/>
            <feComposite in2="hardAlpha" operator="arithmetic" k2="-1" k3="1"/>
            <feColorMatrix type="matrix" values="0 0 0 0 0.0666667 0 0 0 0 0.0196078 0 0 0 0 0.160784 0 0 0 0.16 0"/>
            <feBlend mode="normal" in2="shape" result="effect1_innerShadow_5544_35798"/>
        </filter>
        <filter id="filter24_i_5544_35798" x="539" y="307" width="32" height="54" filterUnits="userSpaceOnUse" color-interpolation-filters="sRGB">
            <feFlood flood-opacity="0" result="BackgroundImageFix"/>
            <feBlend mode="normal" in="SourceGraphic" in2="BackgroundImageFix" result="shape"/>
            <feColorMatrix in="SourceAlpha" type="matrix" values="0 0 0 0 0 0 0 0 0 0 0 0 0 0 0 0 0 0 127 0" result="hardAlpha"/>
            <feOffset dx="-8" dy="-4"/>
            <feComposite in2="hardAlpha" operator="arithmetic" k2="-1" k3="1"/>
            <feColorMatrix type="matrix" values="0 0 0 0 0.0666667 0 0 0 0 0.0196078 0 0 0 0 0.160784 0 0 0 0.16 0"/>
            <feBlend mode="normal" in2="shape" result="effect1_innerShadow_5544_35798"/>
        </filter>
        <filter id="filter25_i_5544_35798" x="503" y="307" width="38" height="54" filterUnits="userSpaceOnUse" color-interpolation-filters="sRGB">
            <feFlood flood-opacity="0" result="BackgroundImageFix"/>
            <feBlend mode="normal" in="SourceGraphic" in2="BackgroundImageFix" result="shape"/>
            <feColorMatrix in="SourceAlpha" type="matrix" values="0 0 0 0 0 0 0 0 0 0 0 0 0 0 0 0 0 0 127 0" result="hardAlpha"/>
            <feOffset dx="-8" dy="-4"/>
            <feComposite in2="hardAlpha" operator="arithmetic" k2="-1" k3="1"/>
            <feColorMatrix type="matrix" values="0 0 0 0 0.0666667 0 0 0 0 0.0196078 0 0 0 0 0.160784 0 0 0 0.16 0"/>
            <feBlend mode="normal" in2="shape" result="effect1_innerShadow_5544_35798"/>
        </filter>
    </defs>
</svg>
