<svg width="960" height="376" viewBox="0 0 960 376" fill="none" xmlns="http://www.w3.org/2000/svg">
    <rect width="960" height="376" fill="#1D1D29"/>
    <path d="M316 340L315.293 340.707L314.586 340L315.293 339.293L316 340ZM323.293 331.293L324 330.586L325.414 332L324.707 332.707L323.293 331.293ZM324.707 347.293L325.414 348L324 349.414L323.293 348.707L324.707 347.293ZM326 341L316 341L316 339L326 339L326 341ZM315.293 339.293L323.293 331.293L324.707 332.707L316.707 340.707L315.293 339.293ZM316.707 339.293L324.707 347.293L323.293 348.707L315.293 340.707L316.707 339.293Z" fill="#D3D7E0"/>
    <path d="M491.5 340H326" stroke="#D3D7E0" stroke-width="2"/>
    <rect width="57" height="20" transform="translate(491.5 330)" fill="#1D1D29"/>
    <path d="M496.933 345.992H504.589V344.632H499.125L502.837 341.296C504.021 340.248 504.589 339.488 504.589 337.976C504.589 335.856 502.973 334.24 500.837 334.24C498.621 334.24 496.989 335.784 496.989 337.952H498.445C498.429 336.696 499.437 335.6 500.813 335.6C502.141 335.6 503.133 336.632 503.133 337.96C503.133 338.688 502.901 339.352 502.053 340.112L496.941 344.712L496.933 345.992ZM509.911 346.24C512.055 346.24 513.871 344.504 513.871 342.376C513.871 340.232 512.247 338.584 510.111 338.584C509.335 338.584 508.559 338.848 507.959 339.328L508.167 335.832H513.071V334.48H506.887L506.535 340.504L507.799 340.984C508.215 340.384 508.935 339.896 509.951 339.896C511.295 339.896 512.439 340.984 512.439 342.376C512.439 343.728 511.351 344.856 509.951 344.856C508.879 344.856 507.839 344.144 507.551 343.008L506.183 343.376C506.647 345.056 508.127 346.24 509.911 346.24ZM519.672 346.24C521.912 346.24 523.56 344.592 523.56 342.352V338.128C523.56 335.888 521.912 334.24 519.672 334.24C517.432 334.24 515.784 335.888 515.784 338.128V342.352C515.784 344.592 517.432 346.24 519.672 346.24ZM517.232 342.432V338.04C517.232 336.688 518.32 335.6 519.672 335.6C521.024 335.6 522.112 336.688 522.112 338.04V342.432C522.112 343.784 521.024 344.872 519.672 344.872C518.32 344.872 517.232 343.784 517.232 342.432ZM529.768 346.24C532.184 346.24 533.64 344.264 533.64 341.672C533.64 339.08 532.176 337.12 529.776 337.12C528.696 337.12 527.84 337.496 527.224 338.144V334.48H525.792V346H527.064V345.024C527.696 345.784 528.6 346.24 529.768 346.24ZM527.064 341.672C527.064 339.76 527.864 338.424 529.552 338.424C531.312 338.424 532.128 339.848 532.128 341.672C532.128 343.512 531.296 344.936 529.592 344.936C527.848 344.936 527.064 343.568 527.064 341.672ZM539.361 346.24C541.777 346.24 543.233 344.264 543.233 341.672C543.233 339.08 541.769 337.12 539.369 337.12C538.193 337.12 537.289 337.568 536.657 338.328V337.36H535.385V349.84H536.817V345.2C537.433 345.856 538.289 346.24 539.361 346.24ZM536.657 341.672C536.657 339.76 537.457 338.424 539.145 338.424C540.905 338.424 541.721 339.848 541.721 341.672C541.721 343.512 540.889 344.936 539.185 344.936C537.441 344.936 536.657 343.568 536.657 341.672Z" fill="white"/>
    <path d="M714 340H548.5" stroke="#D3D7E0" stroke-width="2"/>
    <path d="M721.12 346H722.544V341.744H725.912L727.976 346H729.608L727.384 341.432C728.688 340.888 729.368 339.632 729.368 338.112C729.368 336.28 728.384 334.832 726.52 334.544C726.224 334.496 725.896 334.48 725.672 334.48H721.12V346ZM722.544 340.392V335.832H725.624C725.824 335.832 726.104 335.848 726.344 335.904C727.448 336.152 727.912 337.152 727.912 338.112C727.912 339.072 727.448 340.072 726.344 340.32C726.104 340.376 725.824 340.392 725.624 340.392H722.544ZM731.05 345.992H738.706V344.632H733.242L736.954 341.296C738.138 340.248 738.706 339.488 738.706 337.976C738.706 335.856 737.09 334.24 734.954 334.24C732.738 334.24 731.106 335.784 731.106 337.952H732.562C732.546 336.696 733.554 335.6 734.93 335.6C736.258 335.6 737.25 336.632 737.25 337.96C737.25 338.688 737.018 339.352 736.17 340.112L731.058 344.712L731.05 345.992Z" fill="white"/>
    <rect x="714" y="328" width="32" height="24" rx="1" stroke="#D3D7E0" stroke-width="2"/>
    <path d="M316 180L315.293 180.707L314.586 180L315.293 179.293L316 180ZM323.293 171.293L324 170.586L325.414 172L324.707 172.707L323.293 171.293ZM324.707 187.293L325.414 188L324 189.414L323.293 188.707L324.707 187.293ZM326 181L316 181L316 179L326 179L326 181ZM315.293 179.293L323.293 171.293L324.707 172.707L316.707 180.707L315.293 179.293ZM316.707 179.293L324.707 187.293L323.293 188.707L315.293 180.707L316.707 179.293Z" fill="#D3D7E0"/>
    <path d="M521.5 180H326" stroke="#D3D7E0" stroke-width="2"/>
    <rect width="57" height="20" transform="translate(521.5 170)" fill="#1D1D29"/>
    <path d="M526.933 185.992H534.589V184.632H529.125L532.837 181.296C534.021 180.248 534.589 179.488 534.589 177.976C534.589 175.856 532.973 174.24 530.837 174.24C528.621 174.24 526.989 175.784 526.989 177.952H528.445C528.429 176.696 529.437 175.6 530.813 175.6C532.141 175.6 533.133 176.632 533.133 177.96C533.133 178.688 532.901 179.352 532.053 180.112L526.941 184.712L526.933 185.992ZM539.911 186.24C542.055 186.24 543.871 184.504 543.871 182.376C543.871 180.232 542.247 178.584 540.111 178.584C539.335 178.584 538.559 178.848 537.959 179.328L538.167 175.832H543.071V174.48H536.887L536.535 180.504L537.799 180.984C538.215 180.384 538.935 179.896 539.951 179.896C541.295 179.896 542.439 180.984 542.439 182.376C542.439 183.728 541.351 184.856 539.951 184.856C538.879 184.856 537.839 184.144 537.551 183.008L536.183 183.376C536.647 185.056 538.127 186.24 539.911 186.24ZM549.672 186.24C551.912 186.24 553.56 184.592 553.56 182.352V178.128C553.56 175.888 551.912 174.24 549.672 174.24C547.432 174.24 545.784 175.888 545.784 178.128V182.352C545.784 184.592 547.432 186.24 549.672 186.24ZM547.232 182.432V178.04C547.232 176.688 548.32 175.6 549.672 175.6C551.024 175.6 552.112 176.688 552.112 178.04V182.432C552.112 183.784 551.024 184.872 549.672 184.872C548.32 184.872 547.232 183.784 547.232 182.432ZM559.768 186.24C562.184 186.24 563.64 184.264 563.64 181.672C563.64 179.08 562.176 177.12 559.776 177.12C558.696 177.12 557.84 177.496 557.224 178.144V174.48H555.792V186H557.064V185.024C557.696 185.784 558.6 186.24 559.768 186.24ZM557.064 181.672C557.064 179.76 557.864 178.424 559.552 178.424C561.312 178.424 562.128 179.848 562.128 181.672C562.128 183.512 561.296 184.936 559.592 184.936C557.848 184.936 557.064 183.568 557.064 181.672ZM569.361 186.24C571.777 186.24 573.233 184.264 573.233 181.672C573.233 179.08 571.769 177.12 569.369 177.12C568.193 177.12 567.289 177.568 566.657 178.328V177.36H565.385V189.84H566.817V185.2C567.433 185.856 568.289 186.24 569.361 186.24ZM566.657 181.672C566.657 179.76 567.457 178.424 569.145 178.424C570.905 178.424 571.721 179.848 571.721 181.672C571.721 183.512 570.889 184.936 569.185 184.936C567.441 184.936 566.657 183.568 566.657 181.672Z" fill="white"/>
    <path d="M774 180H578.5" stroke="#D3D7E0" stroke-width="2"/>
    <path d="M781.12 186H782.544V181.744H785.912L787.976 186H789.608L787.384 181.432C788.688 180.888 789.368 179.632 789.368 178.112C789.368 176.28 788.384 174.832 786.52 174.544C786.224 174.496 785.896 174.48 785.672 174.48H781.12V186ZM782.544 180.392V175.832H785.624C785.824 175.832 786.104 175.848 786.344 175.904C787.448 176.152 787.912 177.152 787.912 178.112C787.912 179.072 787.448 180.072 786.344 180.32C786.104 180.376 785.824 180.392 785.624 180.392H782.544ZM791.05 185.992H798.706V184.632H793.242L796.954 181.296C798.138 180.248 798.706 179.488 798.706 177.976C798.706 175.856 797.09 174.24 794.954 174.24C792.738 174.24 791.106 175.784 791.106 177.952H792.562C792.546 176.696 793.554 175.6 794.93 175.6C796.258 175.6 797.25 176.632 797.25 177.96C797.25 178.688 797.018 179.352 796.17 180.112L791.058 184.712L791.05 185.992Z" fill="white"/>
    <rect x="774" y="168" width="32" height="24" rx="1" stroke="#D3D7E0" stroke-width="2"/>
    <path d="M156.62 162H158.044V157.744H161.412L163.476 162H165.108L162.884 157.432C164.188 156.888 164.868 155.632 164.868 154.112C164.868 152.28 163.884 150.832 162.02 150.544C161.724 150.496 161.396 150.48 161.172 150.48H156.62V162ZM158.044 156.392V151.832H161.124C161.324 151.832 161.604 151.848 161.844 151.904C162.948 152.152 163.412 153.152 163.412 154.112C163.412 155.072 162.948 156.072 161.844 156.32C161.604 156.376 161.324 156.392 161.124 156.392H158.044ZM168.878 162H170.326V150.48H168.878L166.71 151.776V153.368L168.878 152.056V162Z" fill="white"/>
    <rect x="148" y="144" width="32" height="24" rx="1" stroke="#D3D7E0" stroke-width="2"/>
    <path d="M358 156H180" stroke="#D3D7E0" stroke-width="2"/>
    <rect width="56" height="20" transform="translate(358 146)" fill="#1D1D29"/>
    <path d="M362.933 161.992H370.589V160.632H365.125L368.837 157.296C370.021 156.248 370.589 155.488 370.589 153.976C370.589 151.856 368.973 150.24 366.837 150.24C364.621 150.24 362.989 151.784 362.989 153.952H364.445C364.429 152.696 365.437 151.6 366.813 151.6C368.141 151.6 369.133 152.632 369.133 153.96C369.133 154.688 368.901 155.352 368.053 156.112L362.941 160.712L362.933 161.992ZM375.911 162.24C378.055 162.24 379.871 160.504 379.871 158.376C379.871 156.232 378.247 154.584 376.111 154.584C375.335 154.584 374.559 154.848 373.959 155.328L374.167 151.832H379.071V150.48H372.887L372.535 156.504L373.799 156.984C374.215 156.384 374.935 155.896 375.951 155.896C377.295 155.896 378.439 156.984 378.439 158.376C378.439 159.728 377.351 160.856 375.951 160.856C374.879 160.856 373.839 160.144 373.551 159.008L372.183 159.376C372.647 161.056 374.127 162.24 375.911 162.24ZM385.672 162.24C387.912 162.24 389.56 160.592 389.56 158.352V154.128C389.56 151.888 387.912 150.24 385.672 150.24C383.432 150.24 381.784 151.888 381.784 154.128V158.352C381.784 160.592 383.432 162.24 385.672 162.24ZM383.232 158.432V154.04C383.232 152.688 384.32 151.6 385.672 151.6C387.024 151.6 388.112 152.688 388.112 154.04V158.432C388.112 159.784 387.024 160.872 385.672 160.872C384.32 160.872 383.232 159.784 383.232 158.432ZM395.768 162.24C398.184 162.24 399.64 160.264 399.64 157.672C399.64 155.08 398.176 153.12 395.776 153.12C394.696 153.12 393.84 153.496 393.224 154.144V150.48H391.792V162H393.064V161.024C393.696 161.784 394.6 162.24 395.768 162.24ZM393.064 157.672C393.064 155.76 393.864 154.424 395.552 154.424C397.312 154.424 398.128 155.848 398.128 157.672C398.128 159.512 397.296 160.936 395.592 160.936C393.848 160.936 393.064 159.568 393.064 157.672ZM405.361 162.24C407.777 162.24 409.233 160.264 409.233 157.672C409.233 155.08 407.769 153.12 405.369 153.12C404.193 153.12 403.289 153.568 402.657 154.328V153.36H401.385V165.84H402.817V161.2C403.433 161.856 404.289 162.24 405.361 162.24ZM402.657 157.672C402.657 155.76 403.457 154.424 405.145 154.424C406.905 154.424 407.721 155.848 407.721 157.672C407.721 159.512 406.889 160.936 405.185 160.936C403.441 160.936 402.657 159.568 402.657 157.672Z" fill="white"/>
    <path d="M592 156H414" stroke="#D3D7E0" stroke-width="2"/>
    <path d="M602 156L602.707 155.293L603.414 156L602.707 156.707L602 156ZM594.707 164.707L594 165.414L592.586 164L593.293 163.293L594.707 164.707ZM593.293 148.707L592.586 148L594 146.586L594.707 147.293L593.293 148.707ZM592 155L602 155L602 157L592 157L592 155ZM602.707 156.707L594.707 164.707L593.293 163.293L601.293 155.293L602.707 156.707ZM601.293 156.707L593.293 148.707L594.707 147.293L602.707 155.293L601.293 156.707Z" fill="#D3D7E0"/>
    <path d="M156.62 322H158.044V317.744H161.412L163.476 322H165.108L162.884 317.432C164.188 316.888 164.868 315.632 164.868 314.112C164.868 312.28 163.884 310.832 162.02 310.544C161.724 310.496 161.396 310.48 161.172 310.48H156.62V322ZM158.044 316.392V311.832H161.124C161.324 311.832 161.604 311.848 161.844 311.904C162.948 312.152 163.412 313.152 163.412 314.112C163.412 315.072 162.948 316.072 161.844 316.32C161.604 316.376 161.324 316.392 161.124 316.392H158.044ZM168.878 322H170.326V310.48H168.878L166.71 311.776V313.368L168.878 312.056V322Z" fill="white"/>
    <rect x="148" y="304" width="32" height="24" rx="1" stroke="#D3D7E0" stroke-width="2"/>
    <path d="M358 316H180" stroke="#D3D7E0" stroke-width="2"/>
    <rect width="56" height="20" transform="translate(358 306)" fill="#1D1D29"/>
    <path d="M362.933 321.992H370.589V320.632H365.125L368.837 317.296C370.021 316.248 370.589 315.488 370.589 313.976C370.589 311.856 368.973 310.24 366.837 310.24C364.621 310.24 362.989 311.784 362.989 313.952H364.445C364.429 312.696 365.437 311.6 366.813 311.6C368.141 311.6 369.133 312.632 369.133 313.96C369.133 314.688 368.901 315.352 368.053 316.112L362.941 320.712L362.933 321.992ZM375.911 322.24C378.055 322.24 379.871 320.504 379.871 318.376C379.871 316.232 378.247 314.584 376.111 314.584C375.335 314.584 374.559 314.848 373.959 315.328L374.167 311.832H379.071V310.48H372.887L372.535 316.504L373.799 316.984C374.215 316.384 374.935 315.896 375.951 315.896C377.295 315.896 378.439 316.984 378.439 318.376C378.439 319.728 377.351 320.856 375.951 320.856C374.879 320.856 373.839 320.144 373.551 319.008L372.183 319.376C372.647 321.056 374.127 322.24 375.911 322.24ZM385.672 322.24C387.912 322.24 389.56 320.592 389.56 318.352V314.128C389.56 311.888 387.912 310.24 385.672 310.24C383.432 310.24 381.784 311.888 381.784 314.128V318.352C381.784 320.592 383.432 322.24 385.672 322.24ZM383.232 318.432V314.04C383.232 312.688 384.32 311.6 385.672 311.6C387.024 311.6 388.112 312.688 388.112 314.04V318.432C388.112 319.784 387.024 320.872 385.672 320.872C384.32 320.872 383.232 319.784 383.232 318.432ZM395.768 322.24C398.184 322.24 399.64 320.264 399.64 317.672C399.64 315.08 398.176 313.12 395.776 313.12C394.696 313.12 393.84 313.496 393.224 314.144V310.48H391.792V322H393.064V321.024C393.696 321.784 394.6 322.24 395.768 322.24ZM393.064 317.672C393.064 315.76 393.864 314.424 395.552 314.424C397.312 314.424 398.128 315.848 398.128 317.672C398.128 319.512 397.296 320.936 395.592 320.936C393.848 320.936 393.064 319.568 393.064 317.672ZM405.361 322.24C407.777 322.24 409.233 320.264 409.233 317.672C409.233 315.08 407.769 313.12 405.369 313.12C404.193 313.12 403.289 313.568 402.657 314.328V313.36H401.385V325.84H402.817V321.2C403.433 321.856 404.289 322.24 405.361 322.24ZM402.657 317.672C402.657 315.76 403.457 314.424 405.145 314.424C406.905 314.424 407.721 315.848 407.721 317.672C407.721 319.512 406.889 320.936 405.185 320.936C403.441 320.936 402.657 319.568 402.657 317.672Z" fill="white"/>
    <path d="M592 316H414" stroke="#D3D7E0" stroke-width="2"/>
    <path d="M602 316L602.707 315.293L603.414 316L602.707 316.707L602 316ZM594.707 324.707L594 325.414L592.586 324L593.293 323.293L594.707 324.707ZM593.293 308.707L592.586 308L594 306.586L594.707 307.293L593.293 308.707ZM592 315L602 315L602 317L592 317L592 315ZM602.707 316.707L594.707 324.707L593.293 323.293L601.293 315.293L602.707 316.707ZM601.293 316.707L593.293 308.707L594.707 307.293L602.707 315.293L601.293 316.707Z" fill="#D3D7E0"/>
    <path d="M136 84V24" stroke="white" stroke-opacity="0.3" stroke-width="2" stroke-linecap="square" stroke-dasharray="6 6"/>
    <path d="M170.858 37H172.321V32.695H175.989V31.225H172.321V28.383H176.829V26.92H170.858V37ZM178.09 37H179.553V33.381H182.227L183.984 37H185.657L183.753 33.094C184.894 32.597 185.468 31.491 185.468 30.147C185.468 28.516 184.628 27.235 182.941 26.976C182.675 26.934 182.36 26.92 182.164 26.92H178.09V37ZM179.553 31.995V28.299H182.108C182.29 28.299 182.535 28.313 182.745 28.369C183.641 28.579 183.977 29.405 183.977 30.147C183.977 30.889 183.641 31.715 182.745 31.932C182.535 31.981 182.29 31.995 182.108 31.995H179.553ZM188.953 37H190.444V26.92H188.953L187.056 28.054V29.685L188.953 28.53V37Z" fill="white" fill-opacity="0.3"/>
    <path d="M226 84V24" stroke="white" stroke-opacity="0.3" stroke-width="2" stroke-linecap="square" stroke-dasharray="6 6"/>
    <path d="M258.735 37.21C261.059 37.21 262.62 35.943 263.215 33.955L261.731 33.556C261.332 34.963 260.331 35.817 258.735 35.817C256.593 35.817 255.501 34.27 255.515 31.96C255.522 29.65 256.593 28.103 258.735 28.103C260.331 28.103 261.332 28.957 261.731 30.364L263.215 29.965C262.62 27.977 261.059 26.71 258.735 26.71C255.711 26.71 253.968 28.845 253.968 31.96C253.968 35.075 255.711 37.21 258.735 37.21ZM264.754 37H267.911C268.093 37 268.695 37 269.164 36.937C271.53 36.636 272.79 34.529 272.79 31.96C272.79 29.391 271.53 27.284 269.164 26.983C268.695 26.92 268.093 26.92 267.911 26.92H264.754V37ZM266.252 35.607V28.313H267.911C268.219 28.313 268.723 28.32 269.059 28.383C270.571 28.663 271.236 30.189 271.236 31.96C271.236 33.689 270.599 35.243 269.059 35.537C268.723 35.6 268.233 35.607 267.911 35.607H266.252ZM274.42 37H275.883V33.381H278.557L280.314 37H281.987L280.083 33.094C281.224 32.597 281.798 31.491 281.798 30.147C281.798 28.516 280.958 27.235 279.271 26.976C279.005 26.934 278.69 26.92 278.494 26.92H274.42V37ZM275.883 31.995V28.299H278.438C278.62 28.299 278.865 28.313 279.075 28.369C279.971 28.579 280.307 29.405 280.307 30.147C280.307 30.889 279.971 31.715 279.075 31.932C278.865 31.981 278.62 31.995 278.438 31.995H275.883ZM285.283 37H286.774V26.92H285.283L283.386 28.054V29.685L285.283 28.53V37Z" fill="white" fill-opacity="0.3"/>
    <path d="M316 84V24" stroke="white" stroke-opacity="0.3" stroke-width="2" stroke-linecap="square" stroke-dasharray="6 6"/>
    <path d="M349.703 37H351.166V32.695H354.834V31.225H351.166V28.383H355.674V26.92H349.703V37ZM356.935 37H358.398V33.381H361.072L362.829 37H364.502L362.598 33.094C363.739 32.597 364.313 31.491 364.313 30.147C364.313 28.516 363.473 27.235 361.786 26.976C361.52 26.934 361.205 26.92 361.009 26.92H356.935V37ZM358.398 31.995V28.299H360.953C361.135 28.299 361.38 28.313 361.59 28.369C362.486 28.579 362.822 29.405 362.822 30.147C362.822 30.889 362.486 31.715 361.59 31.932C361.38 31.981 361.135 31.995 360.953 31.995H358.398ZM365.761 36.993H372.579V35.6H368.022L370.941 32.996C372.033 32.037 372.579 31.407 372.579 30.028C372.579 28.117 371.144 26.71 369.24 26.71C367.231 26.71 365.796 28.047 365.796 30H367.294C367.28 28.985 368.092 28.103 369.212 28.103C370.297 28.103 371.074 28.929 371.074 30.007C371.074 30.581 370.864 31.127 370.157 31.757L365.768 35.691L365.761 36.993Z" fill="white" fill-opacity="0.3"/>
    <path d="M406 84V24" stroke="white" stroke-opacity="0.3" stroke-width="2" stroke-linecap="square" stroke-dasharray="6 6"/>
    <path d="M437.58 37.21C439.904 37.21 441.465 35.943 442.06 33.955L440.576 33.556C440.177 34.963 439.176 35.817 437.58 35.817C435.438 35.817 434.346 34.27 434.36 31.96C434.367 29.65 435.438 28.103 437.58 28.103C439.176 28.103 440.177 28.957 440.576 30.364L442.06 29.965C441.465 27.977 439.904 26.71 437.58 26.71C434.556 26.71 432.813 28.845 432.813 31.96C432.813 35.075 434.556 37.21 437.58 37.21ZM443.599 37H446.756C446.938 37 447.54 37 448.009 36.937C450.375 36.636 451.635 34.529 451.635 31.96C451.635 29.391 450.375 27.284 448.009 26.983C447.54 26.92 446.938 26.92 446.756 26.92H443.599V37ZM445.097 35.607V28.313H446.756C447.064 28.313 447.568 28.32 447.904 28.383C449.416 28.663 450.081 30.189 450.081 31.96C450.081 33.689 449.444 35.243 447.904 35.537C447.568 35.6 447.078 35.607 446.756 35.607H445.097ZM453.265 37H454.728V33.381H457.402L459.159 37H460.832L458.928 33.094C460.069 32.597 460.643 31.491 460.643 30.147C460.643 28.516 459.803 27.235 458.116 26.976C457.85 26.934 457.535 26.92 457.339 26.92H453.265V37ZM454.728 31.995V28.299H457.283C457.465 28.299 457.71 28.313 457.92 28.369C458.816 28.579 459.152 29.405 459.152 30.147C459.152 30.889 458.816 31.715 457.92 31.932C457.71 31.981 457.465 31.995 457.283 31.995H454.728ZM462.091 36.993H468.909V35.6H464.352L467.271 32.996C468.363 32.037 468.909 31.407 468.909 30.028C468.909 28.117 467.474 26.71 465.57 26.71C463.561 26.71 462.126 28.047 462.126 30H463.624C463.61 28.985 464.422 28.103 465.542 28.103C466.627 28.103 467.404 28.929 467.404 30.007C467.404 30.581 467.194 31.127 466.487 31.757L462.098 35.691L462.091 36.993Z" fill="white" fill-opacity="0.3"/>
    <path d="M496 84V24" stroke="white" stroke-opacity="0.3" stroke-width="2" stroke-linecap="square" stroke-dasharray="6 6"/>
    <path d="M529.805 37H531.268V32.695H534.936V31.225H531.268V28.383H535.776V26.92H529.805V37ZM537.038 37H538.501V33.381H541.175L542.932 37H544.605L542.701 33.094C543.842 32.597 544.416 31.491 544.416 30.147C544.416 28.516 543.576 27.235 541.889 26.976C541.623 26.934 541.308 26.92 541.112 26.92H537.038V37ZM538.501 31.995V28.299H541.056C541.238 28.299 541.483 28.313 541.693 28.369C542.589 28.579 542.925 29.405 542.925 30.147C542.925 30.889 542.589 31.715 541.693 31.932C541.483 31.981 541.238 31.995 541.056 31.995H538.501ZM548.964 37.189C550.847 37.189 552.331 35.796 552.331 33.871C552.331 32.233 551.323 30.924 549.692 30.707L552.184 28.313V26.92H546.122V28.313H550.392L547.312 31.036L547.998 32.191C548.285 32.037 548.628 31.939 548.95 31.939C550.07 31.939 550.833 32.751 550.833 33.871C550.833 34.984 550.07 35.789 548.964 35.803C548.138 35.81 547.403 35.341 547.137 34.466L545.723 34.858C546.15 36.293 547.466 37.189 548.964 37.189Z" fill="white" fill-opacity="0.3"/>
    <path d="M586 84V24" stroke="white" stroke-opacity="0.3" stroke-width="2" stroke-linecap="square" stroke-dasharray="6 6"/>
    <path d="M638.682 37.21C641.006 37.21 642.567 35.943 643.162 33.955L641.678 33.556C641.279 34.963 640.278 35.817 638.682 35.817C636.54 35.817 635.448 34.27 635.462 31.96C635.469 29.65 636.54 28.103 638.682 28.103C640.278 28.103 641.279 28.957 641.678 30.364L643.162 29.965C642.567 27.977 641.006 26.71 638.682 26.71C635.658 26.71 633.915 28.845 633.915 31.96C633.915 35.075 635.658 37.21 638.682 37.21ZM644.702 37H647.859C648.041 37 648.643 37 649.112 36.937C651.478 36.636 652.738 34.529 652.738 31.96C652.738 29.391 651.478 27.284 649.112 26.983C648.643 26.92 648.041 26.92 647.859 26.92H644.702V37ZM646.2 35.607V28.313H647.859C648.167 28.313 648.671 28.32 649.007 28.383C650.519 28.663 651.184 30.189 651.184 31.96C651.184 33.689 650.547 35.243 649.007 35.537C648.671 35.6 648.181 35.607 647.859 35.607H646.2ZM654.368 37H655.831V33.381H658.505L660.262 37H661.935L660.031 33.094C661.172 32.597 661.746 31.491 661.746 30.147C661.746 28.516 660.906 27.235 659.219 26.976C658.953 26.934 658.638 26.92 658.442 26.92H654.368V37ZM655.831 31.995V28.299H658.386C658.568 28.299 658.813 28.313 659.023 28.369C659.919 28.579 660.255 29.405 660.255 30.147C660.255 30.889 659.919 31.715 659.023 31.932C658.813 31.981 658.568 31.995 658.386 31.995H655.831ZM666.294 37.189C668.177 37.189 669.661 35.796 669.661 33.871C669.661 32.233 668.653 30.924 667.022 30.707L669.514 28.313V26.92H663.452V28.313H667.722L664.642 31.036L665.328 32.191C665.615 32.037 665.958 31.939 666.28 31.939C667.4 31.939 668.163 32.751 668.163 33.871C668.163 34.984 667.4 35.789 666.294 35.803C665.468 35.81 664.733 35.341 664.467 34.466L663.053 34.858C663.48 36.293 664.796 37.189 666.294 37.189Z" fill="white" fill-opacity="0.3"/>
    <path d="M718 84V24" stroke="white" stroke-opacity="0.3" stroke-width="2" stroke-linecap="square" stroke-dasharray="6 6"/>
    <path d="M769.593 37H771.056V32.695H774.724V31.225H771.056V28.383H775.564V26.92H769.593V37ZM776.826 37H778.289V33.381H780.963L782.72 37H784.393L782.489 33.094C783.63 32.597 784.204 31.491 784.204 30.147C784.204 28.516 783.364 27.235 781.677 26.976C781.411 26.934 781.096 26.92 780.9 26.92H776.826V37ZM778.289 31.995V28.299H780.844C781.026 28.299 781.271 28.313 781.481 28.369C782.377 28.579 782.713 29.405 782.713 30.147C782.713 30.889 782.377 31.715 781.481 31.932C781.271 31.981 781.026 31.995 780.844 31.995H778.289ZM790.201 37H791.685V35.243H792.686V33.857H791.685V31.127H790.201V33.857H787.324L790.6 26.92H788.927L785.651 33.857V35.243H790.201V37Z" fill="white" fill-opacity="0.3"/>
    <path d="M844 84V24" stroke="white" stroke-opacity="0.3" stroke-width="2" stroke-linecap="square" stroke-dasharray="6 6"/>
    <g filter="url(#filter0_i_5878_36480)">
        <path d="M125 80H602.4C602.96 80 603.24 80 603.454 80.109C603.642 80.2049 603.795 80.3578 603.891 80.546C604 80.7599 604 81.0399 604 81.6V130.4C604 130.96 604 131.24 603.891 131.454C603.795 131.642 603.642 131.795 603.454 131.891C603.24 132 602.96 132 602.4 132H125L120 125.5L125 119L120 112L125 106L120 99.5L125 93L120 86.5L125 80Z" fill="#99E099"/>
    </g>
    <path d="M125 80H602.4C602.96 80 603.24 80 603.454 80.109C603.642 80.2049 603.795 80.3578 603.891 80.546C604 80.7599 604 81.0399 604 81.6V130.4C604 130.96 604 131.24 603.891 131.454C603.795 131.642 603.642 131.795 603.454 131.891C603.24 132 602.96 132 602.4 132H125L120 125.5L125 119L120 112L125 106L120 99.5L125 93L120 86.5L125 80Z" stroke="#110529" stroke-width="2" stroke-linecap="round"/>
    <path d="M351.209 114H353.792L358.813 99H356.896L352.48 112.021L348.126 99H346.188L351.209 114Z" fill="#110529"/>
    <g filter="url(#filter1_i_5878_36480)">
        <rect x="604" y="80" width="30" height="52" rx="1" fill="#CBEB67"/>
    </g>
    <rect x="604" y="80" width="30" height="52" rx="1" stroke="#110529" stroke-width="2" stroke-linecap="round"/>
    <g filter="url(#filter2_i_5878_36480)">
        <rect x="670" y="80" width="30" height="52" rx="1" fill="#FAAAFA"/>
    </g>
    <rect x="670" y="80" width="30" height="52" rx="1" stroke="#110529" stroke-width="2" stroke-linecap="round"/>
    <g filter="url(#filter3_i_5878_36480)">
        <rect x="634" y="80" width="36" height="52" rx="1" fill="#FFCB8F"/>
    </g>
    <rect x="634" y="80" width="36" height="52" rx="1" stroke="#110529" stroke-width="2" stroke-linecap="round"/>
    <path d="M613.447 114H615.247V102.74L622.757 114H624.557V99.6H622.757V110.85L615.247 99.6H613.447V114Z" fill="#110529"/>
    <path d="M679.447 114H681.247V102.74L688.757 114H690.557V99.6H688.757V110.85L681.247 99.6H679.447V114Z" fill="#110529"/>
    <path d="M646.593 114H651.033C651.303 114 652.183 114 652.853 113.91C656.183 113.47 657.913 110.48 657.913 106.8C657.913 103.13 656.183 100.13 652.853 99.69C652.173 99.6 651.313 99.6 651.033 99.6H646.593V114ZM648.423 112.3V101.3H651.033C651.513 101.3 652.233 101.32 652.703 101.41C655.033 101.83 656.023 104.08 656.023 106.8C656.023 109.47 655.063 111.76 652.703 112.19C652.233 112.28 651.533 112.3 651.033 112.3H648.423Z" fill="#110529"/>
    <g filter="url(#filter4_i_5878_36480)">
        <path d="M844 81.6C844 81.0399 844 80.7599 843.891 80.546C843.795 80.3578 843.642 80.2049 843.454 80.109C843.24 80 842.96 80 842.4 80H701.6C701.04 80 700.76 80 700.546 80.109C700.358 80.2049 700.205 80.3578 700.109 80.546C700 80.7599 700 81.0399 700 81.6V106V130.4C700 130.96 700 131.24 700.109 131.454C700.205 131.642 700.358 131.795 700.546 131.891C700.76 132 701.04 132 701.6 132H842.4C842.96 132 843.24 132 843.454 131.891C843.642 131.795 843.795 131.642 843.891 131.454C844 131.24 844 130.96 844 130.4V125.5V119V112V106V99.5V93V86.5V81.6Z" fill="#C1ADFF"/>
    </g>
    <path d="M844 81.6C844 81.0399 844 80.7599 843.891 80.546C843.795 80.3578 843.642 80.2049 843.454 80.109C843.24 80 842.96 80 842.4 80H701.6C701.04 80 700.76 80 700.546 80.109C700.358 80.2049 700.205 80.3578 700.109 80.546C700 80.7599 700 81.0399 700 81.6V106V130.4C700 130.96 700 131.24 700.109 131.454C700.205 131.642 700.358 131.795 700.546 131.891C700.76 132 701.04 132 701.6 132H842.4C842.96 132 843.24 132 843.454 131.891C843.642 131.795 843.795 131.642 843.891 131.454C844 131.24 844 130.96 844 130.4V125.5V119V112V106V99.5V93V86.5V81.6Z" stroke="#110529" stroke-width="2" stroke-linecap="round"/>
    <path d="M775.272 99V109.292C775.272 110.604 775.272 111.312 774.71 112.312C773.939 113.604 772.752 114.312 771.127 114.312C770.356 114.312 769.606 114.146 768.96 113.729C768.002 113.187 767.314 112.208 767.022 111.146L768.877 110.708C768.981 111.292 769.356 111.812 769.856 112.146C770.21 112.396 770.668 112.542 771.106 112.542C771.897 112.542 772.731 112.125 773.085 111.354C773.356 110.792 773.356 110.375 773.356 109.292V99H775.272Z" fill="#110529"/>
    <g filter="url(#filter5_i_5878_36480)">
        <path d="M860 80H845.6C845.04 80 844.76 80 844.546 80.109C844.358 80.2049 844.205 80.3578 844.109 80.546C844 80.7599 844 81.0399 844 81.6V130.4C844 130.96 844 131.24 844.109 131.454C844.205 131.642 844.358 131.795 844.546 131.891C844.76 132 845.04 132 845.6 132H860L855 125.5L860 119L855 112L860 106L855 99.5L860 93L855 86.5L860 80Z" fill="#FAFAAA"/>
    </g>
    <path d="M860 80H845.6C845.04 80 844.76 80 844.546 80.109C844.358 80.2049 844.205 80.3578 844.109 80.546C844 80.7599 844 81.0399 844 81.6V130.4C844 130.96 844 131.24 844.109 131.454C844.205 131.642 844.358 131.795 844.546 131.891C844.76 132 845.04 132 845.6 132H860L855 125.5L860 119L855 112L860 106L855 99.5L860 93L855 86.5L860 80Z" stroke="#110529" stroke-width="2" stroke-linecap="round"/>
    <path d="M44.9984 114H46.7784V99.6H44.9984V114ZM55.6089 114.3C59.8189 114.3 62.0589 111.39 62.0589 107.44C62.0589 107.32 62.0489 106.87 62.0189 106.59H57.0789V108.06H60.1389C59.9189 110.93 58.4789 112.62 55.6989 112.6C52.4789 112.58 50.8489 110.25 50.8689 106.8C50.8889 103.35 52.4789 100.99 55.6989 101.01C57.7489 101.02 59.1389 102.14 59.7489 103.88L61.5489 103.51C60.7989 100.92 58.8289 99.31 55.6089 99.31C51.5789 99.31 48.9789 102.21 48.9789 106.8C48.9789 111.44 51.6389 114.3 55.6089 114.3ZM64.0563 114H65.8363V107.64H73.4163V114H75.1963V99.6H73.4163V105.95H65.8363V99.6H64.0563V114Z" fill="white"/>
    <g filter="url(#filter6_i_5878_36480)">
        <path d="M125 240H602.4C602.96 240 603.24 240 603.454 240.109C603.642 240.205 603.795 240.358 603.891 240.546C604 240.76 604 241.04 604 241.6V290.4C604 290.96 604 291.24 603.891 291.454C603.795 291.642 603.642 291.795 603.454 291.891C603.24 292 602.96 292 602.4 292H125L120 285.5L125 279L120 272L125 266L120 259.5L125 253L120 246.5L125 240Z" fill="#99E099"/>
    </g>
    <path d="M125 240H602.4C602.96 240 603.24 240 603.454 240.109C603.642 240.205 603.795 240.358 603.891 240.546C604 240.76 604 241.04 604 241.6V290.4C604 290.96 604 291.24 603.891 291.454C603.795 291.642 603.642 291.795 603.454 291.891C603.24 292 602.96 292 602.4 292H125L120 285.5L125 279L120 272L125 266L120 259.5L125 253L120 246.5L125 240Z" stroke="#110529" stroke-width="2" stroke-linecap="round"/>
    <path d="M361.209 274H363.792L368.813 259H366.896L362.48 272.021L358.126 259H356.188L361.209 274Z" fill="#110529"/>
    <g filter="url(#filter7_i_5878_36480)">
        <rect x="604" y="240" width="30" height="52" rx="1" fill="#CBEB67"/>
    </g>
    <rect x="604" y="240" width="30" height="52" rx="1" stroke="#110529" stroke-width="2" stroke-linecap="round"/>
    <path d="M615.087 259H613.212V274H615.087V262.271L622.921 274H624.796V259H622.921V270.708L615.087 259Z" fill="#110529"/>
    <g filter="url(#filter8_i_5878_36480)">
        <path d="M778 241.6C778 241.04 778 240.76 777.891 240.546C777.795 240.358 777.642 240.205 777.454 240.109C777.24 240 776.96 240 776.4 240H635.6C635.04 240 634.76 240 634.546 240.109C634.358 240.205 634.205 240.358 634.109 240.546C634 240.76 634 241.04 634 241.6V266V290.4C634 290.96 634 291.24 634.109 291.454C634.205 291.642 634.358 291.795 634.546 291.891C634.76 292 635.04 292 635.6 292H776.4C776.96 292 777.24 292 777.454 291.891C777.642 291.795 777.795 291.642 777.891 291.454C778 291.24 778 290.96 778 290.4V285.5V279V272V266V259.5V253V246.5V241.6Z" fill="#C1ADFF"/>
    </g>
    <path d="M778 241.6C778 241.04 778 240.76 777.891 240.546C777.795 240.358 777.642 240.205 777.454 240.109C777.24 240 776.96 240 776.4 240H635.6C635.04 240 634.76 240 634.546 240.109C634.358 240.205 634.205 240.358 634.109 240.546C634 240.76 634 241.04 634 241.6V266V290.4C634 290.96 634 291.24 634.109 291.454C634.205 291.642 634.358 291.795 634.546 291.891C634.76 292 635.04 292 635.6 292H776.4C776.96 292 777.24 292 777.454 291.891C777.642 291.795 777.795 291.642 777.891 291.454C778 291.24 778 290.96 778 290.4V285.5V279V272V266V259.5V253V246.5V241.6Z" stroke="#110529" stroke-width="2" stroke-linecap="round"/>
    <g filter="url(#filter9_i_5878_36480)">
        <path d="M794 240H779.6C779.04 240 778.76 240 778.546 240.109C778.358 240.205 778.205 240.358 778.109 240.546C778 240.76 778 241.04 778 241.6V290.4C778 290.96 778 291.24 778.109 291.454C778.205 291.642 778.358 291.795 778.546 291.891C778.76 292 779.04 292 779.6 292H794L789 285.5L794 279L789 272L794 266L789 259.5L794 253L789 246.5L794 240Z" fill="#FAFAAA"/>
    </g>
    <path d="M794 240H779.6C779.04 240 778.76 240 778.546 240.109C778.358 240.205 778.205 240.358 778.109 240.546C778 240.76 778 241.04 778 241.6V290.4C778 290.96 778 291.24 778.109 291.454C778.205 291.642 778.358 291.795 778.546 291.891C778.76 292 779.04 292 779.6 292H794L789 285.5L794 279L789 272L794 266L789 259.5L794 253L789 246.5L794 240Z" stroke="#110529" stroke-width="2" stroke-linecap="round"/>
    <path d="M709.272 259V269.292C709.272 270.604 709.272 271.312 708.71 272.312C707.939 273.604 706.751 274.312 705.126 274.312C704.356 274.312 703.606 274.146 702.96 273.729C702.001 273.187 701.314 272.208 701.022 271.146L702.876 270.708C702.981 271.292 703.356 271.812 703.856 272.146C704.21 272.396 704.668 272.542 705.106 272.542C705.897 272.542 706.731 272.125 707.085 271.354C707.356 270.792 707.356 270.375 707.356 269.292V259H709.272Z" fill="#110529"/>
    <path d="M23.2211 274H25.0011V259.6H23.2211V274ZM33.8316 274.3C38.0416 274.3 40.2816 271.39 40.2816 267.44C40.2816 267.32 40.2716 266.87 40.2416 266.59H35.3016V268.06H38.3616C38.1416 270.93 36.7016 272.62 33.9216 272.6C30.7016 272.58 29.0716 270.25 29.0916 266.8C29.1116 263.35 30.7016 260.99 33.9216 261.01C35.9716 261.02 37.3616 262.14 37.9716 263.88L39.7716 263.51C39.0216 260.92 37.0516 259.31 33.8316 259.31C29.8016 259.31 27.2016 262.21 27.2016 266.8C27.2016 271.44 29.8616 274.3 33.8316 274.3ZM42.2789 274H44.0589V266.96L50.8089 274H53.1089L46.0589 266.59L52.5989 259.6H50.3589L44.0589 266.36V259.6H42.2789V274ZM61.7588 259.6L57.9188 274H59.7288L63.5688 259.6H61.7588ZM70.3695 274H72.1495V259.6H70.3695V274ZM80.98 274.3C85.19 274.3 87.43 271.39 87.43 267.44C87.43 267.32 87.42 266.87 87.39 266.59H82.45V268.06H85.51C85.29 270.93 83.85 272.62 81.07 272.6C77.85 272.58 76.22 270.25 76.24 266.8C76.26 263.35 77.85 260.99 81.07 261.01C83.12 261.02 84.51 262.14 85.12 263.88L86.92 263.51C86.17 260.92 84.2 259.31 80.98 259.31C76.95 259.31 74.35 262.21 74.35 266.8C74.35 271.44 77.01 274.3 80.98 274.3ZM89.6273 274H98.0873V272.31H91.4073V259.6H89.6273V274Z" fill="white"/>
    <defs>
        <filter id="filter0_i_5878_36480" x="118.737" y="79" width="486.263" height="54" filterUnits="userSpaceOnUse" color-interpolation-filters="sRGB">
            <feFlood flood-opacity="0" result="BackgroundImageFix"/>
            <feBlend mode="normal" in="SourceGraphic" in2="BackgroundImageFix" result="shape"/>
            <feColorMatrix in="SourceAlpha" type="matrix" values="0 0 0 0 0 0 0 0 0 0 0 0 0 0 0 0 0 0 127 0" result="hardAlpha"/>
            <feOffset dx="-8" dy="-4"/>
            <feComposite in2="hardAlpha" operator="arithmetic" k2="-1" k3="1"/>
            <feColorMatrix type="matrix" values="0 0 0 0 0.0666667 0 0 0 0 0.0196078 0 0 0 0 0.160784 0 0 0 0.16 0"/>
            <feBlend mode="normal" in2="shape" result="effect1_innerShadow_5878_36480"/>
        </filter>
        <filter id="filter1_i_5878_36480" x="603" y="79" width="32" height="54" filterUnits="userSpaceOnUse" color-interpolation-filters="sRGB">
            <feFlood flood-opacity="0" result="BackgroundImageFix"/>
            <feBlend mode="normal" in="SourceGraphic" in2="BackgroundImageFix" result="shape"/>
            <feColorMatrix in="SourceAlpha" type="matrix" values="0 0 0 0 0 0 0 0 0 0 0 0 0 0 0 0 0 0 127 0" result="hardAlpha"/>
            <feOffset dx="-8" dy="-4"/>
            <feComposite in2="hardAlpha" operator="arithmetic" k2="-1" k3="1"/>
            <feColorMatrix type="matrix" values="0 0 0 0 0.0666667 0 0 0 0 0.0196078 0 0 0 0 0.160784 0 0 0 0.16 0"/>
            <feBlend mode="normal" in2="shape" result="effect1_innerShadow_5878_36480"/>
        </filter>
        <filter id="filter2_i_5878_36480" x="669" y="79" width="32" height="54" filterUnits="userSpaceOnUse" color-interpolation-filters="sRGB">
            <feFlood flood-opacity="0" result="BackgroundImageFix"/>
            <feBlend mode="normal" in="SourceGraphic" in2="BackgroundImageFix" result="shape"/>
            <feColorMatrix in="SourceAlpha" type="matrix" values="0 0 0 0 0 0 0 0 0 0 0 0 0 0 0 0 0 0 127 0" result="hardAlpha"/>
            <feOffset dx="-8" dy="-4"/>
            <feComposite in2="hardAlpha" operator="arithmetic" k2="-1" k3="1"/>
            <feColorMatrix type="matrix" values="0 0 0 0 0.0666667 0 0 0 0 0.0196078 0 0 0 0 0.160784 0 0 0 0.16 0"/>
            <feBlend mode="normal" in2="shape" result="effect1_innerShadow_5878_36480"/>
        </filter>
        <filter id="filter3_i_5878_36480" x="633" y="79" width="38" height="54" filterUnits="userSpaceOnUse" color-interpolation-filters="sRGB">
            <feFlood flood-opacity="0" result="BackgroundImageFix"/>
            <feBlend mode="normal" in="SourceGraphic" in2="BackgroundImageFix" result="shape"/>
            <feColorMatrix in="SourceAlpha" type="matrix" values="0 0 0 0 0 0 0 0 0 0 0 0 0 0 0 0 0 0 127 0" result="hardAlpha"/>
            <feOffset dx="-8" dy="-4"/>
            <feComposite in2="hardAlpha" operator="arithmetic" k2="-1" k3="1"/>
            <feColorMatrix type="matrix" values="0 0 0 0 0.0666667 0 0 0 0 0.0196078 0 0 0 0 0.160784 0 0 0 0.16 0"/>
            <feBlend mode="normal" in2="shape" result="effect1_innerShadow_5878_36480"/>
        </filter>
        <filter id="filter4_i_5878_36480" x="699" y="79" width="146" height="54" filterUnits="userSpaceOnUse" color-interpolation-filters="sRGB">
            <feFlood flood-opacity="0" result="BackgroundImageFix"/>
            <feBlend mode="normal" in="SourceGraphic" in2="BackgroundImageFix" result="shape"/>
            <feColorMatrix in="SourceAlpha" type="matrix" values="0 0 0 0 0 0 0 0 0 0 0 0 0 0 0 0 0 0 127 0" result="hardAlpha"/>
            <feOffset dx="-8" dy="-4"/>
            <feComposite in2="hardAlpha" operator="arithmetic" k2="-1" k3="1"/>
            <feColorMatrix type="matrix" values="0 0 0 0 0.0666667 0 0 0 0 0.0196078 0 0 0 0 0.160784 0 0 0 0.16 0"/>
            <feBlend mode="normal" in2="shape" result="effect1_innerShadow_5878_36480"/>
        </filter>
        <filter id="filter5_i_5878_36480" x="843" y="79" width="19.0309" height="54" filterUnits="userSpaceOnUse" color-interpolation-filters="sRGB">
            <feFlood flood-opacity="0" result="BackgroundImageFix"/>
            <feBlend mode="normal" in="SourceGraphic" in2="BackgroundImageFix" result="shape"/>
            <feColorMatrix in="SourceAlpha" type="matrix" values="0 0 0 0 0 0 0 0 0 0 0 0 0 0 0 0 0 0 127 0" result="hardAlpha"/>
            <feOffset dx="-8" dy="-4"/>
            <feComposite in2="hardAlpha" operator="arithmetic" k2="-1" k3="1"/>
            <feColorMatrix type="matrix" values="0 0 0 0 0.0666667 0 0 0 0 0.0196078 0 0 0 0 0.160784 0 0 0 0.16 0"/>
            <feBlend mode="normal" in2="shape" result="effect1_innerShadow_5878_36480"/>
        </filter>
        <filter id="filter6_i_5878_36480" x="118.737" y="239" width="486.263" height="54" filterUnits="userSpaceOnUse" color-interpolation-filters="sRGB">
            <feFlood flood-opacity="0" result="BackgroundImageFix"/>
            <feBlend mode="normal" in="SourceGraphic" in2="BackgroundImageFix" result="shape"/>
            <feColorMatrix in="SourceAlpha" type="matrix" values="0 0 0 0 0 0 0 0 0 0 0 0 0 0 0 0 0 0 127 0" result="hardAlpha"/>
            <feOffset dx="-8" dy="-4"/>
            <feComposite in2="hardAlpha" operator="arithmetic" k2="-1" k3="1"/>
            <feColorMatrix type="matrix" values="0 0 0 0 0.0666667 0 0 0 0 0.0196078 0 0 0 0 0.160784 0 0 0 0.16 0"/>
            <feBlend mode="normal" in2="shape" result="effect1_innerShadow_5878_36480"/>
        </filter>
        <filter id="filter7_i_5878_36480" x="603" y="239" width="32" height="54" filterUnits="userSpaceOnUse" color-interpolation-filters="sRGB">
            <feFlood flood-opacity="0" result="BackgroundImageFix"/>
            <feBlend mode="normal" in="SourceGraphic" in2="BackgroundImageFix" result="shape"/>
            <feColorMatrix in="SourceAlpha" type="matrix" values="0 0 0 0 0 0 0 0 0 0 0 0 0 0 0 0 0 0 127 0" result="hardAlpha"/>
            <feOffset dx="-8" dy="-4"/>
            <feComposite in2="hardAlpha" operator="arithmetic" k2="-1" k3="1"/>
            <feColorMatrix type="matrix" values="0 0 0 0 0.0666667 0 0 0 0 0.0196078 0 0 0 0 0.160784 0 0 0 0.16 0"/>
            <feBlend mode="normal" in2="shape" result="effect1_innerShadow_5878_36480"/>
        </filter>
        <filter id="filter8_i_5878_36480" x="633" y="239" width="146" height="54" filterUnits="userSpaceOnUse" color-interpolation-filters="sRGB">
            <feFlood flood-opacity="0" result="BackgroundImageFix"/>
            <feBlend mode="normal" in="SourceGraphic" in2="BackgroundImageFix" result="shape"/>
            <feColorMatrix in="SourceAlpha" type="matrix" values="0 0 0 0 0 0 0 0 0 0 0 0 0 0 0 0 0 0 127 0" result="hardAlpha"/>
            <feOffset dx="-8" dy="-4"/>
            <feComposite in2="hardAlpha" operator="arithmetic" k2="-1" k3="1"/>
            <feColorMatrix type="matrix" values="0 0 0 0 0.0666667 0 0 0 0 0.0196078 0 0 0 0 0.160784 0 0 0 0.16 0"/>
            <feBlend mode="normal" in2="shape" result="effect1_innerShadow_5878_36480"/>
        </filter>
        <filter id="filter9_i_5878_36480" x="777" y="239" width="19.0309" height="54" filterUnits="userSpaceOnUse" color-interpolation-filters="sRGB">
            <feFlood flood-opacity="0" result="BackgroundImageFix"/>
            <feBlend mode="normal" in="SourceGraphic" in2="BackgroundImageFix" result="shape"/>
            <feColorMatrix in="SourceAlpha" type="matrix" values="0 0 0 0 0 0 0 0 0 0 0 0 0 0 0 0 0 0 127 0" result="hardAlpha"/>
            <feOffset dx="-8" dy="-4"/>
            <feComposite in2="hardAlpha" operator="arithmetic" k2="-1" k3="1"/>
            <feColorMatrix type="matrix" values="0 0 0 0 0.0666667 0 0 0 0 0.0196078 0 0 0 0 0.160784 0 0 0 0.16 0"/>
            <feBlend mode="normal" in2="shape" result="effect1_innerShadow_5878_36480"/>
        </filter>
    </defs>
</svg>
