<svg width="960" height="580" viewBox="0 0 960 580" fill="none" xmlns="http://www.w3.org/2000/svg">
    <rect width="960" height="580" fill="white"/>
    <path d="M664 112V24" stroke="#D3D7E0" stroke-width="2" stroke-linecap="square" stroke-dasharray="6 6"/>
    <path d="M532 112V24" stroke="#D3D7E0" stroke-width="2" stroke-linecap="square" stroke-dasharray="6 6"/>
    <path d="M412 112V24" stroke="#D3D7E0" stroke-width="2" stroke-linecap="square" stroke-dasharray="6 6"/>
    <g filter="url(#filter0_i_6229_37566)">
        <path d="M101 84H422.4C422.96 84 423.24 84 423.454 84.109C423.642 84.2049 423.795 84.3578 423.891 84.546C424 84.7599 424 85.0399 424 85.6V134.4C424 134.96 424 135.24 423.891 135.454C423.795 135.642 423.642 135.795 423.454 135.891C423.24 136 422.96 136 422.4 136H101L96 129.5L101 123L96 116L101 110L96 103.5L101 97L96 90.5L101 84Z" fill="#99E099"/>
    </g>
    <path d="M101 84H422.4C422.96 84 423.24 84 423.454 84.109C423.642 84.2049 423.795 84.3578 423.891 84.546C424 84.7599 424 85.0399 424 85.6V134.4C424 134.96 424 135.24 423.891 135.454C423.795 135.642 423.642 135.795 423.454 135.891C423.24 136 422.96 136 422.4 136H101L96 129.5L101 123L96 116L101 110L96 103.5L101 97L96 90.5L101 84Z" stroke="#110529" stroke-width="2" stroke-linecap="round"/>
    <path d="M259.258 118H261.738L266.558 103.6H264.708L260.478 116.11L256.288 103.6H254.438L259.258 118Z" fill="#110529"/>
    <g filter="url(#filter1_i_6229_37566)">
        <rect x="424" y="84" width="30" height="52" rx="1" fill="#CBEB67"/>
    </g>
    <rect x="424" y="84" width="30" height="52" rx="1" stroke="#110529" stroke-width="2" stroke-linecap="round"/>
    <g filter="url(#filter2_i_6229_37566)">
        <rect x="490" y="84" width="30" height="52" rx="1" fill="#FAAAFA"/>
    </g>
    <rect x="490" y="84" width="30" height="52" rx="1" stroke="#110529" stroke-width="2" stroke-linecap="round"/>
    <g filter="url(#filter3_i_6229_37566)">
        <rect x="454" y="84" width="36" height="52" rx="1" fill="#FFCB8F"/>
    </g>
    <rect x="454" y="84" width="36" height="52" rx="1" stroke="#110529" stroke-width="2" stroke-linecap="round"/>
    <path d="M433.447 118V103.6H435.247L442.757 114.85V103.6H444.557V118H442.757L435.247 106.74V118H433.447Z" fill="#110529"/>
    <path d="M499.447 118V103.6H501.247L508.757 114.85V103.6H510.557V118H508.757L501.247 106.74V118H499.447Z" fill="#110529"/>
    <path d="M466.593 118V103.6H471.033C471.18 103.6 471.437 103.603 471.803 103.61C472.17 103.617 472.52 103.643 472.853 103.69C473.967 103.837 474.897 104.243 475.643 104.91C476.397 105.57 476.963 106.41 477.343 107.43C477.723 108.45 477.913 109.573 477.913 110.8C477.913 112.027 477.723 113.15 477.343 114.17C476.963 115.19 476.397 116.033 475.643 116.7C474.897 117.36 473.967 117.763 472.853 117.91C472.52 117.95 472.167 117.977 471.793 117.99C471.427 117.997 471.173 118 471.033 118H466.593ZM468.423 116.3H471.033C471.287 116.3 471.57 116.293 471.883 116.28C472.197 116.26 472.47 116.23 472.703 116.19C473.49 116.043 474.127 115.713 474.613 115.2C475.1 114.687 475.457 114.047 475.683 113.28C475.91 112.513 476.023 111.687 476.023 110.8C476.023 109.893 475.907 109.057 475.673 108.29C475.447 107.523 475.09 106.887 474.603 106.38C474.117 105.873 473.483 105.55 472.703 105.41C472.47 105.363 472.193 105.333 471.873 105.32C471.553 105.307 471.273 105.3 471.033 105.3H468.423V116.3Z" fill="#110529"/>
    <g filter="url(#filter4_i_6229_37566)">
        <rect x="520" y="84" width="144" height="52" rx="1" fill="#C1ADFF"/>
        <path d="M591.244 118.29C592.694 118.29 593.954 117.7 594.684 116.43C595.214 115.51 595.154 114.72 595.154 113.48V103.6H593.354V113.48C593.354 114.37 593.354 114.99 593.094 115.51C592.704 116.29 591.884 116.6 591.204 116.6C590.134 116.6 589.224 115.83 589.014 114.85L587.244 115.27C587.754 117.11 589.224 118.29 591.244 118.29Z" fill="#110529"/>
        <rect x="520" y="84" width="144" height="52" rx="1" stroke="#110529" stroke-width="2" stroke-linecap="round"/>
    </g>
    <g filter="url(#filter5_i_6229_37566)">
        <rect x="664" y="84" width="80" height="52" rx="1" fill="#FAFAAA"/>
        <path d="M704.593 118.3C703.16 118.3 701.943 117.983 700.943 117.35C699.943 116.717 699.18 115.837 698.653 114.71C698.133 113.583 697.873 112.28 697.873 110.8C697.873 109.32 698.133 108.017 698.653 106.89C699.18 105.763 699.943 104.883 700.943 104.25C701.943 103.617 703.16 103.3 704.593 103.3C706.26 103.3 707.63 103.723 708.703 104.57C709.783 105.417 710.527 106.557 710.933 107.99L709.123 108.47C708.83 107.397 708.307 106.55 707.553 105.93C706.8 105.31 705.813 105 704.593 105C703.52 105 702.627 105.243 701.913 105.73C701.2 106.217 700.663 106.897 700.303 107.77C699.943 108.637 699.76 109.647 699.753 110.8C699.747 111.947 699.923 112.957 700.283 113.83C700.643 114.697 701.183 115.377 701.903 115.87C702.623 116.357 703.52 116.6 704.593 116.6C705.813 116.6 706.8 116.29 707.553 115.67C708.307 115.043 708.83 114.197 709.123 113.13L710.933 113.61C710.527 115.037 709.783 116.177 708.703 117.03C707.63 117.877 706.26 118.3 704.593 118.3Z" fill="#110529"/>
        <rect x="664" y="84" width="80" height="52" rx="1" stroke="#110529" stroke-width="2" stroke-linecap="round"/>
    </g>
    <g filter="url(#filter6_i_6229_37566)">
        <rect x="744" y="84" width="64" height="52" rx="1" fill="#D6E0FF"/>
        <path d="M765.053 118.3C768.393 118.3 770.733 116.1 770.733 112.75V103.6H768.933V112.6C768.933 115.31 766.893 116.62 765.053 116.62C763.233 116.62 761.173 115.33 761.173 112.6V103.6L759.373 103.61V112.75C759.373 116.11 761.713 118.3 765.053 118.3ZM773.533 118H775.223V107.51L780.113 118H781.063L785.953 107.51V117.99H787.643V103.6H786.003L780.593 115.07L775.153 103.6H773.533V118ZM790.647 118H792.427V103.6H790.647V118Z" fill="#110529"/>
        <rect x="744" y="84" width="64" height="52" rx="1" stroke="#110529" stroke-width="2" stroke-linecap="round"/>
    </g>
    <g filter="url(#filter7_i_6229_37566)">
        <path d="M101 404H422.4C422.96 404 423.24 404 423.454 404.109C423.642 404.205 423.795 404.358 423.891 404.546C424 404.76 424 405.04 424 405.6V454.4C424 454.96 424 455.24 423.891 455.454C423.795 455.642 423.642 455.795 423.454 455.891C423.24 456 422.96 456 422.4 456H101L96 449.5L101 443L96 436L101 430L96 423.5L101 417L96 410.5L101 404Z" fill="#99E099"/>
    </g>
    <path d="M101 404H422.4C422.96 404 423.24 404 423.454 404.109C423.642 404.205 423.795 404.358 423.891 404.546C424 404.76 424 405.04 424 405.6V454.4C424 454.96 424 455.24 423.891 455.454C423.795 455.642 423.642 455.795 423.454 455.891C423.24 456 422.96 456 422.4 456H101L96 449.5L101 443L96 436L101 430L96 423.5L101 417L96 410.5L101 404Z" stroke="#110529" stroke-width="2" stroke-linecap="round"/>
    <path d="M259.258 438H261.738L266.558 423.6H264.708L260.478 436.11L256.288 423.6H254.438L259.258 438Z" fill="#110529"/>
    <g filter="url(#filter8_i_6229_37566)">
        <rect x="424" y="404" width="30" height="52" rx="1" fill="#CBEB67"/>
    </g>
    <rect x="424" y="404" width="30" height="52" rx="1" stroke="#110529" stroke-width="2" stroke-linecap="round"/>
    <g filter="url(#filter9_i_6229_37566)">
        <rect x="490" y="404" width="30" height="52" rx="1" fill="#FAAAFA"/>
    </g>
    <rect x="490" y="404" width="30" height="52" rx="1" stroke="#110529" stroke-width="2" stroke-linecap="round"/>
    <g filter="url(#filter10_i_6229_37566)">
        <rect x="454" y="404" width="36" height="52" rx="1" fill="#FFCB8F"/>
    </g>
    <rect x="454" y="404" width="36" height="52" rx="1" stroke="#110529" stroke-width="2" stroke-linecap="round"/>
    <path d="M433.447 438V423.6H435.247L442.757 434.85V423.6H444.557V438H442.757L435.247 426.74V438H433.447Z" fill="#110529"/>
    <path d="M499.447 438V423.6H501.247L508.757 434.85V423.6H510.557V438H508.757L501.247 426.74V438H499.447Z" fill="#110529"/>
    <path d="M466.593 438V423.6H471.033C471.18 423.6 471.437 423.603 471.803 423.61C472.17 423.617 472.52 423.643 472.853 423.69C473.967 423.837 474.897 424.243 475.643 424.91C476.397 425.57 476.963 426.41 477.343 427.43C477.723 428.45 477.913 429.573 477.913 430.8C477.913 432.027 477.723 433.15 477.343 434.17C476.963 435.19 476.397 436.033 475.643 436.7C474.897 437.36 473.967 437.763 472.853 437.91C472.52 437.95 472.167 437.977 471.793 437.99C471.427 437.997 471.173 438 471.033 438H466.593ZM468.423 436.3H471.033C471.287 436.3 471.57 436.293 471.883 436.28C472.197 436.26 472.47 436.23 472.703 436.19C473.49 436.043 474.127 435.713 474.613 435.2C475.1 434.687 475.457 434.047 475.683 433.28C475.91 432.513 476.023 431.687 476.023 430.8C476.023 429.893 475.907 429.057 475.673 428.29C475.447 427.523 475.09 426.887 474.603 426.38C474.117 425.873 473.483 425.55 472.703 425.41C472.47 425.363 472.193 425.333 471.873 425.32C471.553 425.307 471.273 425.3 471.033 425.3H468.423V436.3Z" fill="#110529"/>
    <g filter="url(#filter11_i_6229_37566)">
        <rect x="520" y="404" width="144" height="52" rx="1" fill="#C1ADFF"/>
        <path d="M591.244 438.29C592.694 438.29 593.954 437.7 594.684 436.43C595.214 435.51 595.154 434.72 595.154 433.48V423.6H593.354V433.48C593.354 434.37 593.354 434.99 593.094 435.51C592.704 436.29 591.884 436.6 591.204 436.6C590.134 436.6 589.224 435.83 589.014 434.85L587.244 435.27C587.754 437.11 589.224 438.29 591.244 438.29Z" fill="#110529"/>
        <rect x="520" y="404" width="144" height="52" rx="1" stroke="#110529" stroke-width="2" stroke-linecap="round"/>
    </g>
    <g filter="url(#filter12_i_6229_37566)">
        <rect x="664" y="404" width="80" height="52" rx="1" fill="#FAFAAA"/>
        <path d="M704.593 438.3C703.16 438.3 701.943 437.983 700.943 437.35C699.943 436.717 699.18 435.837 698.653 434.71C698.133 433.583 697.873 432.28 697.873 430.8C697.873 429.32 698.133 428.017 698.653 426.89C699.18 425.763 699.943 424.883 700.943 424.25C701.943 423.617 703.16 423.3 704.593 423.3C706.26 423.3 707.63 423.723 708.703 424.57C709.783 425.417 710.527 426.557 710.933 427.99L709.123 428.47C708.83 427.397 708.307 426.55 707.553 425.93C706.8 425.31 705.813 425 704.593 425C703.52 425 702.627 425.243 701.913 425.73C701.2 426.217 700.663 426.897 700.303 427.77C699.943 428.637 699.76 429.647 699.753 430.8C699.747 431.947 699.923 432.957 700.283 433.83C700.643 434.697 701.183 435.377 701.903 435.87C702.623 436.357 703.52 436.6 704.593 436.6C705.813 436.6 706.8 436.29 707.553 435.67C708.307 435.043 708.83 434.197 709.123 433.13L710.933 433.61C710.527 435.037 709.783 436.177 708.703 437.03C707.63 437.877 706.26 438.3 704.593 438.3Z" fill="#110529"/>
        <rect x="664" y="404" width="80" height="52" rx="1" stroke="#110529" stroke-width="2" stroke-linecap="round"/>
    </g>
    <g filter="url(#filter13_i_6229_37566)">
        <rect x="744" y="404" width="64" height="52" rx="1" fill="#D6E0FF"/>
        <path d="M765.053 438.3C768.393 438.3 770.733 436.1 770.733 432.75V423.6H768.933V432.6C768.933 435.31 766.893 436.62 765.053 436.62C763.233 436.62 761.173 435.33 761.173 432.6V423.6L759.373 423.61V432.75C759.373 436.11 761.713 438.3 765.053 438.3ZM773.533 438H775.223V427.51L780.113 438H781.063L785.953 427.51V437.99H787.643V423.6H786.003L780.593 435.07L775.153 423.6H773.533V438ZM790.647 438H792.427V423.6H790.647V438Z" fill="#110529"/>
        <rect x="744" y="404" width="64" height="52" rx="1" stroke="#110529" stroke-width="2" stroke-linecap="round"/>
    </g>
    <path d="M586.593 37H588.056V32.695H591.724V31.225H588.056V28.383H592.564V26.92H586.593V37ZM593.826 37H595.289V33.381H597.963L599.72 37H601.393L599.489 33.094C600.63 32.597 601.204 31.491 601.204 30.147C601.204 28.516 600.364 27.235 598.677 26.976C598.411 26.934 598.096 26.92 597.9 26.92H593.826V37ZM595.289 31.995V28.299H597.844C598.026 28.299 598.271 28.313 598.481 28.369C599.377 28.579 599.713 29.405 599.713 30.147C599.713 30.889 599.377 31.715 598.481 31.932C598.271 31.981 598.026 31.995 597.844 31.995H595.289ZM607.201 37H608.685V35.243H609.686V33.857H608.685V31.127H607.201V33.857H604.324L607.6 26.92H605.927L602.651 33.857V35.243H607.201V37Z" fill="#D3D7E0"/>
    <path d="M458.682 37.21C461.006 37.21 462.567 35.943 463.162 33.955L461.678 33.556C461.279 34.963 460.278 35.817 458.682 35.817C456.54 35.817 455.448 34.27 455.462 31.96C455.469 29.65 456.54 28.103 458.682 28.103C460.278 28.103 461.279 28.957 461.678 30.364L463.162 29.965C462.567 27.977 461.006 26.71 458.682 26.71C455.658 26.71 453.915 28.845 453.915 31.96C453.915 35.075 455.658 37.21 458.682 37.21ZM464.702 37H467.859C468.041 37 468.643 37 469.112 36.937C471.478 36.636 472.738 34.529 472.738 31.96C472.738 29.391 471.478 27.284 469.112 26.983C468.643 26.92 468.041 26.92 467.859 26.92H464.702V37ZM466.2 35.607V28.313H467.859C468.167 28.313 468.671 28.32 469.007 28.383C470.519 28.663 471.184 30.189 471.184 31.96C471.184 33.689 470.547 35.243 469.007 35.537C468.671 35.6 468.181 35.607 467.859 35.607H466.2ZM474.368 37H475.831V33.381H478.505L480.262 37H481.935L480.031 33.094C481.172 32.597 481.746 31.491 481.746 30.147C481.746 28.516 480.906 27.235 479.219 26.976C478.953 26.934 478.638 26.92 478.442 26.92H474.368V37ZM475.831 31.995V28.299H478.386C478.568 28.299 478.813 28.313 479.023 28.369C479.919 28.579 480.255 29.405 480.255 30.147C480.255 30.889 479.919 31.715 479.023 31.932C478.813 31.981 478.568 31.995 478.386 31.995H475.831ZM486.294 37.189C488.177 37.189 489.661 35.796 489.661 33.871C489.661 32.233 488.653 30.924 487.022 30.707L489.514 28.313V26.92H483.452V28.313H487.722L484.642 31.036L485.328 32.191C485.615 32.037 485.958 31.939 486.28 31.939C487.4 31.939 488.163 32.751 488.163 33.871C488.163 34.984 487.4 35.789 486.294 35.803C485.468 35.81 484.733 35.341 484.467 34.466L483.053 34.858C483.48 36.293 484.796 37.189 486.294 37.189Z" fill="#D3D7E0"/>
    <path d="M323.805 37H325.268V32.695H328.936V31.225H325.268V28.383H329.776V26.92H323.805V37ZM331.038 37H332.501V33.381H335.175L336.932 37H338.605L336.701 33.094C337.842 32.597 338.416 31.491 338.416 30.147C338.416 28.516 337.576 27.235 335.889 26.976C335.623 26.934 335.308 26.92 335.112 26.92H331.038V37ZM332.501 31.995V28.299H335.056C335.238 28.299 335.483 28.313 335.693 28.369C336.589 28.579 336.925 29.405 336.925 30.147C336.925 30.889 336.589 31.715 335.693 31.932C335.483 31.981 335.238 31.995 335.056 31.995H332.501ZM342.964 37.189C344.847 37.189 346.331 35.796 346.331 33.871C346.331 32.233 345.323 30.924 343.692 30.707L346.184 28.313V26.92H340.122V28.313H344.392L341.312 31.036L341.998 32.191C342.285 32.037 342.628 31.939 342.95 31.939C344.07 31.939 344.833 32.751 344.833 33.871C344.833 34.984 344.07 35.789 342.964 35.803C342.138 35.81 341.403 35.341 341.137 34.466L339.723 34.858C340.15 36.293 341.466 37.189 342.964 37.189Z" fill="#D3D7E0"/>
    <rect width="44" height="20" transform="translate(754 52)" fill="white"/>
    <path d="M761.128 68H762.576V56.48H761.128L758.96 57.776V59.368L761.128 58.056V68ZM770.596 68H772.036V65.88H773.236V64.528H772.036V61.288H770.596V64.528H766.916L770.716 56.48H769.1L765.3 64.528V65.88H770.596V68ZM779.119 68.24C781.535 68.24 782.991 66.264 782.991 63.672C782.991 61.08 781.527 59.12 779.127 59.12C778.047 59.12 777.191 59.496 776.575 60.144V56.48H775.143V68H776.415V67.024C777.047 67.784 777.951 68.24 779.119 68.24ZM776.415 63.672C776.415 61.76 777.215 60.424 778.903 60.424C780.663 60.424 781.479 61.848 781.479 63.672C781.479 65.512 780.647 66.936 778.943 66.936C777.199 66.936 776.415 65.568 776.415 63.672ZM788.713 68.24C791.129 68.24 792.585 66.264 792.585 63.672C792.585 61.08 791.121 59.12 788.721 59.12C787.545 59.12 786.641 59.568 786.009 60.328V59.36H784.737V71.84H786.169V67.2C786.785 67.856 787.641 68.24 788.713 68.24ZM786.009 63.672C786.009 61.76 786.809 60.424 788.497 60.424C790.257 60.424 791.073 61.848 791.073 63.672C791.073 65.512 790.241 66.936 788.537 66.936C786.793 66.936 786.009 65.568 786.009 63.672Z" fill="#110529"/>
    <path d="M19.6627 108H21.4427V95.29H26.3527V93.6H14.7527V95.29H19.6627V108ZM33.8649 108.3C37.1949 108.3 39.3849 106.47 40.2049 103.61L38.3949 103.13C37.8049 105.27 36.2949 106.6 33.8649 106.6C30.6449 106.6 29.0049 104.25 29.0249 100.8C29.0449 97.35 30.6449 95 33.8649 95C36.2949 95 37.8049 96.33 38.3949 98.47L40.2049 97.99C39.3849 95.13 37.1949 93.3 33.8649 93.3C29.5549 93.3 27.1449 96.36 27.1449 100.8C27.1449 105.24 29.5549 108.3 33.8649 108.3ZM42.398 108H44.178V102.68H48.388L50.968 108H53.008L50.228 102.29C51.858 101.61 52.708 100.04 52.708 98.14C52.708 95.85 51.478 94.04 49.148 93.68C48.778 93.62 48.368 93.6 48.088 93.6H42.398V108ZM44.178 100.99V95.29H48.028C48.278 95.29 48.628 95.31 48.928 95.38C50.308 95.69 50.888 96.94 50.888 98.14C50.888 99.34 50.308 100.59 48.928 100.9C48.628 100.97 48.278 100.99 48.028 100.99H44.178ZM59.2045 97.2V112.8H60.9845V107.39C61.6945 107.96 62.6845 108.3 63.9145 108.3C66.9645 108.3 68.8145 106.57 68.8145 103.95C68.8145 101.74 67.4145 100.44 66.0245 100.09C67.0745 99.58 67.5845 98.5 67.5845 97.22C67.5845 94.84 65.8345 93.3 63.3445 93.3C61.4845 93.3 59.9545 94.16 59.4245 95.78C59.2745 96.23 59.2045 96.71 59.2045 97.2ZM61.0245 103.71V97.86C61.0245 97.44 61.0445 96.8 61.2545 96.28C61.6145 95.35 62.4945 94.99 63.3845 94.99C64.7645 94.99 65.7645 95.82 65.7645 97.24C65.7645 98.67 64.7645 99.4 63.3945 99.54V101.14C65.5845 101.18 67.0045 102.1 67.0045 103.87C67.0045 105.52 65.7645 106.61 63.9945 106.61C62.7445 106.61 61.5045 106.04 61.1745 105.01C61.0545 104.64 61.0245 104.1 61.0245 103.71ZM78.4404 93.6L74.6004 108H76.4104L80.2504 93.6H78.4404ZM25.4733 128H27.2533V115.29H32.1633V113.6H20.5633V115.29H25.4733V128ZM39.6755 128.3C43.0055 128.3 45.1955 126.47 46.0155 123.61L44.2055 123.13C43.6155 125.27 42.1055 126.6 39.6755 126.6C36.4555 126.6 34.8155 124.25 34.8355 120.8C34.8555 117.35 36.4555 115 39.6755 115C42.1055 115 43.6155 116.33 44.2055 118.47L46.0155 117.99C45.1955 115.13 43.0055 113.3 39.6755 113.3C35.3655 113.3 32.9555 116.36 32.9555 120.8C32.9555 125.24 35.3655 128.3 39.6755 128.3ZM48.2086 128H49.9886V122.68H54.1986L56.7786 128H58.8186L56.0386 122.29C57.6686 121.61 58.5186 120.04 58.5186 118.14C58.5186 115.85 57.2886 114.04 54.9586 113.68C54.5886 113.62 54.1786 113.6 53.8986 113.6H48.2086V128ZM49.9886 120.99V115.29H53.8386C54.0886 115.29 54.4386 115.31 54.7386 115.38C56.1186 115.69 56.6986 116.94 56.6986 118.14C56.6986 119.34 56.1186 120.59 54.7386 120.9C54.4386 120.97 54.0886 120.99 53.8386 120.99H49.9886ZM69.595 128.29C72.845 128.29 74.835 126.14 74.835 123.03C74.835 120.57 73.585 118.7 71.435 118.05C69.385 117.33 67.755 116.92 67.755 115.87C67.755 115.33 68.145 115.01 68.695 114.87C68.985 114.8 69.325 114.78 69.735 114.78H72.895V113.3H69.335C68.885 113.3 68.515 113.3 68.115 113.38C66.535 113.64 65.985 114.76 65.985 115.8C65.985 117.11 66.865 117.88 67.975 118.39C65.725 118.77 64.425 120.69 64.425 123.17C64.425 126.24 66.405 128.29 69.595 128.29ZM66.445 123.03C66.445 120.88 67.495 119.47 69.635 119.47C71.735 119.47 72.825 120.83 72.825 123.01C72.825 125.18 71.755 126.6 69.635 126.6C67.555 126.6 66.445 125.25 66.445 123.03Z" fill="#110529"/>
    <g filter="url(#filter14_i_6229_37566)">
        <path d="M101 244H422.4C422.96 244 423.24 244 423.454 244.109C423.642 244.205 423.795 244.358 423.891 244.546C424 244.76 424 245.04 424 245.6V294.4C424 294.96 424 295.24 423.891 295.454C423.795 295.642 423.642 295.795 423.454 295.891C423.24 296 422.96 296 422.4 296H101L96 289.5L101 283L96 276L101 270L96 263.5L101 257L96 250.5L101 244Z" fill="#99E099"/>
    </g>
    <path d="M101 244H422.4C422.96 244 423.24 244 423.454 244.109C423.642 244.205 423.795 244.358 423.891 244.546C424 244.76 424 245.04 424 245.6V294.4C424 294.96 424 295.24 423.891 295.454C423.795 295.642 423.642 295.795 423.454 295.891C423.24 296 422.96 296 422.4 296H101L96 289.5L101 283L96 276L101 270L96 263.5L101 257L96 250.5L101 244Z" stroke="#110529" stroke-width="2" stroke-linecap="round"/>
    <path d="M259.258 278H261.738L266.558 263.6H264.708L260.478 276.11L256.288 263.6H254.438L259.258 278Z" fill="#110529"/>
    <g filter="url(#filter15_i_6229_37566)">
        <rect x="424" y="244" width="30" height="52" rx="1" fill="#CBEB67"/>
    </g>
    <rect x="424" y="244" width="30" height="52" rx="1" stroke="#110529" stroke-width="2" stroke-linecap="round"/>
    <path d="M433.447 278H435.247V266.74L442.757 278H444.557V263.6H442.757V274.85L435.247 263.6H433.447V278Z" fill="#110529"/>
    <g filter="url(#filter16_i_6229_37566)">
        <rect x="454" y="244" width="144" height="52" rx="1" fill="#C1ADFF"/>
        <path d="M525.244 278.29C526.694 278.29 527.954 277.7 528.684 276.43C529.214 275.51 529.154 274.72 529.154 273.48V263.6H527.354V273.48C527.354 274.37 527.354 274.99 527.094 275.51C526.704 276.29 525.884 276.6 525.204 276.6C524.134 276.6 523.224 275.83 523.014 274.85L521.244 275.27C521.754 277.11 523.224 278.29 525.244 278.29Z" fill="#110529"/>
        <rect x="454" y="244" width="144" height="52" rx="1" stroke="#110529" stroke-width="2" stroke-linecap="round"/>
    </g>
    <g filter="url(#filter17_i_6229_37566)">
        <rect x="598" y="244" width="80" height="52" rx="1" fill="#FAFAAA"/>
        <path d="M638.593 278.3C637.16 278.3 635.943 277.983 634.943 277.35C633.943 276.717 633.18 275.837 632.653 274.71C632.133 273.583 631.873 272.28 631.873 270.8C631.873 269.32 632.133 268.017 632.653 266.89C633.18 265.763 633.943 264.883 634.943 264.25C635.943 263.617 637.16 263.3 638.593 263.3C640.26 263.3 641.63 263.723 642.703 264.57C643.783 265.417 644.527 266.557 644.933 267.99L643.123 268.47C642.83 267.397 642.307 266.55 641.553 265.93C640.8 265.31 639.813 265 638.593 265C637.52 265 636.627 265.243 635.913 265.73C635.2 266.217 634.663 266.897 634.303 267.77C633.943 268.637 633.76 269.647 633.753 270.8C633.747 271.947 633.923 272.957 634.283 273.83C634.643 274.697 635.183 275.377 635.903 275.87C636.623 276.357 637.52 276.6 638.593 276.6C639.813 276.6 640.8 276.29 641.553 275.67C642.307 275.043 642.83 274.197 643.123 273.13L644.933 273.61C644.527 275.037 643.783 276.177 642.703 277.03C641.63 277.877 640.26 278.3 638.593 278.3Z" fill="#110529"/>
        <rect x="598" y="244" width="80" height="52" rx="1" stroke="#110529" stroke-width="2" stroke-linecap="round"/>
    </g>
    <g filter="url(#filter18_i_6229_37566)">
        <rect x="678" y="244" width="64" height="52" rx="1" fill="#D6E0FF"/>
        <path d="M699.053 278.3C702.393 278.3 704.733 276.1 704.733 272.75V263.6H702.933V272.6C702.933 275.31 700.893 276.62 699.053 276.62C697.233 276.62 695.173 275.33 695.173 272.6V263.6L693.373 263.61V272.75C693.373 276.11 695.713 278.3 699.053 278.3ZM707.533 278H709.223V267.51L714.113 278H715.063L719.953 267.51V277.99H721.643V263.6H720.003L714.593 275.07L709.153 263.6H707.533V278ZM724.647 278H726.427V263.6H724.647V278Z" fill="#110529"/>
        <rect x="678" y="244" width="64" height="52" rx="1" stroke="#110529" stroke-width="2" stroke-linecap="round"/>
    </g>
    <g filter="url(#filter19_i_6229_37566)">
        <path d="M101 504H422.4C422.96 504 423.24 504 423.454 504.109C423.642 504.205 423.795 504.358 423.891 504.546C424 504.76 424 505.04 424 505.6V554.4C424 554.96 424 555.24 423.891 555.454C423.795 555.642 423.642 555.795 423.454 555.891C423.24 556 422.96 556 422.4 556H101L96 549.5L101 543L96 536L101 530L96 523.5L101 517L96 510.5L101 504Z" fill="#99E099"/>
    </g>
    <path d="M101 504H422.4C422.96 504 423.24 504 423.454 504.109C423.642 504.205 423.795 504.358 423.891 504.546C424 504.76 424 505.04 424 505.6V554.4C424 554.96 424 555.24 423.891 555.454C423.795 555.642 423.642 555.795 423.454 555.891C423.24 556 422.96 556 422.4 556H101L96 549.5L101 543L96 536L101 530L96 523.5L101 517L96 510.5L101 504Z" stroke="#110529" stroke-width="2" stroke-linecap="round"/>
    <path d="M259.258 538H261.738L266.558 523.6H264.708L260.478 536.11L256.288 523.6H254.438L259.258 538Z" fill="#110529"/>
    <g filter="url(#filter20_i_6229_37566)">
        <rect x="424" y="504" width="30" height="52" rx="1" fill="#CBEB67"/>
    </g>
    <rect x="424" y="504" width="30" height="52" rx="1" stroke="#110529" stroke-width="2" stroke-linecap="round"/>
    <path d="M433.447 538H435.247V526.74L442.757 538H444.557V523.6H442.757V534.85L435.247 523.6H433.447V538Z" fill="#110529"/>
    <g filter="url(#filter21_i_6229_37566)">
        <rect x="454" y="504" width="144" height="52" rx="1" fill="#C1ADFF"/>
        <path d="M525.244 538.29C526.694 538.29 527.954 537.7 528.684 536.43C529.214 535.51 529.154 534.72 529.154 533.48V523.6H527.354V533.48C527.354 534.37 527.354 534.99 527.094 535.51C526.704 536.29 525.884 536.6 525.204 536.6C524.134 536.6 523.224 535.83 523.014 534.85L521.244 535.27C521.754 537.11 523.224 538.29 525.244 538.29Z" fill="#110529"/>
        <rect x="454" y="504" width="144" height="52" rx="1" stroke="#110529" stroke-width="2" stroke-linecap="round"/>
    </g>
    <g filter="url(#filter22_i_6229_37566)">
        <rect x="598" y="504" width="80" height="52" rx="1" fill="#FAFAAA"/>
        <path d="M638.593 538.3C637.16 538.3 635.943 537.983 634.943 537.35C633.943 536.717 633.18 535.837 632.653 534.71C632.133 533.583 631.873 532.28 631.873 530.8C631.873 529.32 632.133 528.017 632.653 526.89C633.18 525.763 633.943 524.883 634.943 524.25C635.943 523.617 637.16 523.3 638.593 523.3C640.26 523.3 641.63 523.723 642.703 524.57C643.783 525.417 644.527 526.557 644.933 527.99L643.123 528.47C642.83 527.397 642.307 526.55 641.553 525.93C640.8 525.31 639.813 525 638.593 525C637.52 525 636.627 525.243 635.913 525.73C635.2 526.217 634.663 526.897 634.303 527.77C633.943 528.637 633.76 529.647 633.753 530.8C633.747 531.947 633.923 532.957 634.283 533.83C634.643 534.697 635.183 535.377 635.903 535.87C636.623 536.357 637.52 536.6 638.593 536.6C639.813 536.6 640.8 536.29 641.553 535.67C642.307 535.043 642.83 534.197 643.123 533.13L644.933 533.61C644.527 535.037 643.783 536.177 642.703 537.03C641.63 537.877 640.26 538.3 638.593 538.3Z" fill="#110529"/>
        <rect x="598" y="504" width="80" height="52" rx="1" stroke="#110529" stroke-width="2" stroke-linecap="round"/>
    </g>
    <g filter="url(#filter23_i_6229_37566)">
        <rect x="678" y="504" width="64" height="52" rx="1" fill="#D6E0FF"/>
        <path d="M699.053 538.3C702.393 538.3 704.733 536.1 704.733 532.75V523.6H702.933V532.6C702.933 535.31 700.893 536.62 699.053 536.62C697.233 536.62 695.173 535.33 695.173 532.6V523.6L693.373 523.61V532.75C693.373 536.11 695.713 538.3 699.053 538.3ZM707.533 538H709.223V527.51L714.113 538H715.063L719.953 527.51V537.99H721.643V523.6H720.003L714.593 535.07L709.153 523.6H707.533V538ZM724.647 538H726.427V523.6H724.647V538Z" fill="#110529"/>
        <rect x="678" y="504" width="64" height="52" rx="1" stroke="#110529" stroke-width="2" stroke-linecap="round"/>
    </g>
    <path d="M296 184L295.293 184.707L294.586 184L295.293 183.293L296 184ZM303.293 175.293L304 174.586L305.414 176L304.707 176.707L303.293 175.293ZM304.707 191.293L305.414 192L304 193.414L303.293 192.707L304.707 191.293ZM306 185L296 185L296 183L306 183L306 185ZM295.293 183.293L303.293 175.293L304.707 176.707L296.707 184.707L295.293 183.293ZM296.707 183.293L304.707 191.293L303.293 192.707L295.293 184.707L296.707 183.293Z" fill="#110529"/>
    <path d="M512.5 184H306" stroke="#110529" stroke-width="2"/>
    <rect width="57" height="20" transform="translate(512.5 174)" fill="white"/>
    <path d="M521.636 190V180.056L519.468 181.368V179.776L521.636 178.48H523.084V190H521.636ZM529.536 190.24C528.944 190.24 528.392 190.117 527.88 189.872C527.373 189.627 526.938 189.291 526.576 188.864C526.218 188.432 525.962 187.936 525.808 187.376L527.176 187.008C527.272 187.387 527.442 187.715 527.688 187.992C527.933 188.264 528.218 188.477 528.544 188.632C528.874 188.781 529.218 188.856 529.576 188.856C530.045 188.856 530.466 188.744 530.84 188.52C531.218 188.291 531.517 187.989 531.736 187.616C531.954 187.237 532.064 186.824 532.064 186.376C532.064 185.912 531.949 185.493 531.72 185.12C531.496 184.741 531.194 184.443 530.816 184.224C530.437 184.005 530.024 183.896 529.576 183.896C529.069 183.896 528.634 184.003 528.272 184.216C527.914 184.424 527.632 184.68 527.424 184.984L526.16 184.504L526.512 178.48H532.696V179.832H527.2L527.832 179.24L527.536 184.064L527.224 183.656C527.544 183.315 527.925 183.051 528.368 182.864C528.816 182.677 529.272 182.584 529.736 182.584C530.45 182.584 531.09 182.752 531.656 183.088C532.221 183.419 532.669 183.872 533 184.448C533.33 185.019 533.496 185.661 533.496 186.376C533.496 187.085 533.314 187.733 532.952 188.32C532.589 188.901 532.106 189.368 531.504 189.72C530.906 190.067 530.25 190.24 529.536 190.24ZM539.297 190.24C538.55 190.24 537.884 190.072 537.297 189.736C536.716 189.395 536.254 188.933 535.913 188.352C535.577 187.765 535.409 187.099 535.409 186.352V182.128C535.409 181.381 535.577 180.715 535.913 180.128C536.254 179.541 536.716 179.08 537.297 178.744C537.884 178.408 538.55 178.24 539.297 178.24C540.044 178.24 540.71 178.408 541.297 178.744C541.884 179.08 542.345 179.541 542.681 180.128C543.017 180.715 543.185 181.381 543.185 182.128V186.352C543.185 187.099 543.017 187.765 542.681 188.352C542.345 188.933 541.884 189.395 541.297 189.736C540.71 190.072 540.044 190.24 539.297 190.24ZM539.297 188.872C539.75 188.872 540.161 188.763 540.529 188.544C540.897 188.325 541.19 188.032 541.409 187.664C541.628 187.291 541.737 186.88 541.737 186.432V182.04C541.737 181.587 541.628 181.176 541.409 180.808C541.19 180.44 540.897 180.147 540.529 179.928C540.161 179.709 539.75 179.6 539.297 179.6C538.849 179.6 538.438 179.709 538.065 179.928C537.697 180.147 537.404 180.44 537.185 180.808C536.966 181.176 536.857 181.587 536.857 182.04V186.432C536.857 186.88 536.966 187.291 537.185 187.664C537.404 188.032 537.697 188.325 538.065 188.544C538.438 188.763 538.849 188.872 539.297 188.872ZM549.393 190.24C548.582 190.24 547.899 190.04 547.345 189.64C546.79 189.235 546.369 188.688 546.081 188C545.798 187.307 545.657 186.531 545.657 185.672C545.657 184.803 545.798 184.024 546.081 183.336C546.369 182.648 546.79 182.107 547.345 181.712C547.905 181.317 548.59 181.12 549.401 181.12C550.201 181.12 550.889 181.32 551.465 181.72C552.046 182.115 552.491 182.656 552.801 183.344C553.11 184.032 553.265 184.808 553.265 185.672C553.265 186.536 553.11 187.312 552.801 188C552.491 188.688 552.046 189.235 551.465 189.64C550.889 190.04 550.198 190.24 549.393 190.24ZM545.417 190V178.48H546.849V183.64H546.689V190H545.417ZM549.217 188.936C549.787 188.936 550.259 188.792 550.633 188.504C551.006 188.216 551.286 187.827 551.473 187.336C551.659 186.84 551.753 186.285 551.753 185.672C551.753 185.064 551.659 184.515 551.473 184.024C551.291 183.533 551.009 183.144 550.625 182.856C550.246 182.568 549.763 182.424 549.177 182.424C548.617 182.424 548.153 182.563 547.785 182.84C547.417 183.112 547.142 183.493 546.961 183.984C546.779 184.469 546.689 185.032 546.689 185.672C546.689 186.301 546.777 186.864 546.953 187.36C547.134 187.851 547.411 188.237 547.785 188.52C548.158 188.797 548.635 188.936 549.217 188.936ZM558.986 190.24C558.176 190.24 557.493 190.04 556.938 189.64C556.384 189.235 555.962 188.688 555.674 188C555.392 187.307 555.25 186.531 555.25 185.672C555.25 184.803 555.392 184.024 555.674 183.336C555.962 182.648 556.384 182.107 556.938 181.712C557.498 181.317 558.184 181.12 558.994 181.12C559.794 181.12 560.482 181.32 561.058 181.72C561.64 182.115 562.085 182.656 562.394 183.344C562.704 184.032 562.858 184.808 562.858 185.672C562.858 186.536 562.704 187.312 562.394 188C562.085 188.688 561.64 189.235 561.058 189.64C560.482 190.04 559.792 190.24 558.986 190.24ZM555.01 193.84V181.36H556.282V187.72H556.442V193.84H555.01ZM558.81 188.936C559.381 188.936 559.853 188.792 560.226 188.504C560.6 188.216 560.88 187.827 561.066 187.336C561.253 186.84 561.346 186.285 561.346 185.672C561.346 185.064 561.253 184.515 561.066 184.024C560.885 183.533 560.602 183.144 560.218 182.856C559.84 182.568 559.357 182.424 558.77 182.424C558.21 182.424 557.746 182.563 557.378 182.84C557.01 183.112 556.736 183.493 556.554 183.984C556.373 184.469 556.282 185.032 556.282 185.672C556.282 186.301 556.37 186.864 556.546 187.36C556.728 187.851 557.005 188.237 557.378 188.52C557.752 188.797 558.229 188.936 558.81 188.936Z" fill="#110529"/>
    <path d="M776 184H569.5" stroke="#110529" stroke-width="2"/>
    <path d="M783.12 190V178.48H787.672C787.784 178.48 787.917 178.485 788.072 178.496C788.227 178.501 788.376 178.517 788.52 178.544C789.144 178.64 789.667 178.853 790.088 179.184C790.515 179.515 790.835 179.933 791.048 180.44C791.261 180.941 791.368 181.499 791.368 182.112C791.368 183.003 791.136 183.776 790.672 184.432C790.208 185.083 789.528 185.491 788.632 185.656L788.088 185.744H784.544V190H783.12ZM789.976 190L787.704 185.312L789.112 184.88L791.608 190H789.976ZM784.544 184.392H787.624C787.725 184.392 787.84 184.387 787.968 184.376C788.101 184.365 788.227 184.347 788.344 184.32C788.712 184.235 789.011 184.08 789.24 183.856C789.475 183.627 789.645 183.36 789.752 183.056C789.859 182.747 789.912 182.432 789.912 182.112C789.912 181.792 789.859 181.48 789.752 181.176C789.645 180.867 789.475 180.597 789.24 180.368C789.011 180.139 788.712 179.984 788.344 179.904C788.227 179.872 788.101 179.853 787.968 179.848C787.84 179.837 787.725 179.832 787.624 179.832H784.544V184.392ZM793.05 189.992L793.058 188.712L798.17 184.112C798.597 183.728 798.882 183.365 799.026 183.024C799.175 182.677 799.25 182.323 799.25 181.96C799.25 181.517 799.149 181.117 798.946 180.76C798.743 180.403 798.466 180.12 798.114 179.912C797.767 179.704 797.373 179.6 796.93 179.6C796.471 179.6 796.063 179.709 795.706 179.928C795.349 180.141 795.066 180.427 794.858 180.784C794.655 181.141 794.557 181.531 794.562 181.952H793.106C793.106 181.227 793.274 180.587 793.61 180.032C793.946 179.472 794.402 179.035 794.978 178.72C795.559 178.4 796.218 178.24 796.954 178.24C797.669 178.24 798.309 178.405 798.874 178.736C799.439 179.061 799.885 179.507 800.21 180.072C800.541 180.632 800.706 181.267 800.706 181.976C800.706 182.477 800.642 182.912 800.514 183.28C800.391 183.648 800.199 183.989 799.938 184.304C799.677 184.613 799.349 184.944 798.954 185.296L794.706 189.112L794.522 188.632H800.706V189.992H793.05Z" fill="#110529"/>
    <rect x="776" y="172" width="32" height="24" rx="1" stroke="#110529" stroke-width="2"/>
    <path d="M282 344L281.293 344.707L280.586 344L281.293 343.293L282 344ZM289.293 335.293L290 334.586L291.414 336L290.707 336.707L289.293 335.293ZM290.707 351.293L291.414 352L290 353.414L289.293 352.707L290.707 351.293ZM292 345L282 345L282 343L292 343L292 345ZM281.293 343.293L289.293 335.293L290.707 336.707L282.707 344.707L281.293 343.293ZM282.707 343.293L290.707 351.293L289.293 352.707L281.293 344.707L282.707 343.293Z" fill="#110529"/>
    <path d="M472.5 344H292" stroke="#110529" stroke-width="2"/>
    <rect width="57" height="20" transform="translate(472.5 334)" fill="white"/>
    <path d="M481.636 350V340.056L479.468 341.368V339.776L481.636 338.48H483.084V350H481.636ZM489.536 350.24C488.944 350.24 488.392 350.117 487.88 349.872C487.373 349.627 486.938 349.291 486.576 348.864C486.218 348.432 485.962 347.936 485.808 347.376L487.176 347.008C487.272 347.387 487.442 347.715 487.688 347.992C487.933 348.264 488.218 348.477 488.544 348.632C488.874 348.781 489.218 348.856 489.576 348.856C490.045 348.856 490.466 348.744 490.84 348.52C491.218 348.291 491.517 347.989 491.736 347.616C491.954 347.237 492.064 346.824 492.064 346.376C492.064 345.912 491.949 345.493 491.72 345.12C491.496 344.741 491.194 344.443 490.816 344.224C490.437 344.005 490.024 343.896 489.576 343.896C489.069 343.896 488.634 344.003 488.272 344.216C487.914 344.424 487.632 344.68 487.424 344.984L486.16 344.504L486.512 338.48H492.696V339.832H487.2L487.832 339.24L487.536 344.064L487.224 343.656C487.544 343.315 487.925 343.051 488.368 342.864C488.816 342.677 489.272 342.584 489.736 342.584C490.45 342.584 491.09 342.752 491.656 343.088C492.221 343.419 492.669 343.872 493 344.448C493.33 345.019 493.496 345.661 493.496 346.376C493.496 347.085 493.314 347.733 492.952 348.32C492.589 348.901 492.106 349.368 491.504 349.72C490.906 350.067 490.25 350.24 489.536 350.24ZM499.297 350.24C498.55 350.24 497.884 350.072 497.297 349.736C496.716 349.395 496.254 348.933 495.913 348.352C495.577 347.765 495.409 347.099 495.409 346.352V342.128C495.409 341.381 495.577 340.715 495.913 340.128C496.254 339.541 496.716 339.08 497.297 338.744C497.884 338.408 498.55 338.24 499.297 338.24C500.044 338.24 500.71 338.408 501.297 338.744C501.884 339.08 502.345 339.541 502.681 340.128C503.017 340.715 503.185 341.381 503.185 342.128V346.352C503.185 347.099 503.017 347.765 502.681 348.352C502.345 348.933 501.884 349.395 501.297 349.736C500.71 350.072 500.044 350.24 499.297 350.24ZM499.297 348.872C499.75 348.872 500.161 348.763 500.529 348.544C500.897 348.325 501.19 348.032 501.409 347.664C501.628 347.291 501.737 346.88 501.737 346.432V342.04C501.737 341.587 501.628 341.176 501.409 340.808C501.19 340.44 500.897 340.147 500.529 339.928C500.161 339.709 499.75 339.6 499.297 339.6C498.849 339.6 498.438 339.709 498.065 339.928C497.697 340.147 497.404 340.44 497.185 340.808C496.966 341.176 496.857 341.587 496.857 342.04V346.432C496.857 346.88 496.966 347.291 497.185 347.664C497.404 348.032 497.697 348.325 498.065 348.544C498.438 348.763 498.849 348.872 499.297 348.872ZM509.393 350.24C508.582 350.24 507.899 350.04 507.345 349.64C506.79 349.235 506.369 348.688 506.081 348C505.798 347.307 505.657 346.531 505.657 345.672C505.657 344.803 505.798 344.024 506.081 343.336C506.369 342.648 506.79 342.107 507.345 341.712C507.905 341.317 508.59 341.12 509.401 341.12C510.201 341.12 510.889 341.32 511.465 341.72C512.046 342.115 512.491 342.656 512.801 343.344C513.11 344.032 513.265 344.808 513.265 345.672C513.265 346.536 513.11 347.312 512.801 348C512.491 348.688 512.046 349.235 511.465 349.64C510.889 350.04 510.198 350.24 509.393 350.24ZM505.417 350V338.48H506.849V343.64H506.689V350H505.417ZM509.217 348.936C509.787 348.936 510.259 348.792 510.633 348.504C511.006 348.216 511.286 347.827 511.473 347.336C511.659 346.84 511.753 346.285 511.753 345.672C511.753 345.064 511.659 344.515 511.473 344.024C511.291 343.533 511.009 343.144 510.625 342.856C510.246 342.568 509.763 342.424 509.177 342.424C508.617 342.424 508.153 342.563 507.785 342.84C507.417 343.112 507.142 343.493 506.961 343.984C506.779 344.469 506.689 345.032 506.689 345.672C506.689 346.301 506.777 346.864 506.953 347.36C507.134 347.851 507.411 348.237 507.785 348.52C508.158 348.797 508.635 348.936 509.217 348.936ZM518.986 350.24C518.176 350.24 517.493 350.04 516.938 349.64C516.384 349.235 515.962 348.688 515.674 348C515.392 347.307 515.25 346.531 515.25 345.672C515.25 344.803 515.392 344.024 515.674 343.336C515.962 342.648 516.384 342.107 516.938 341.712C517.498 341.317 518.184 341.12 518.994 341.12C519.794 341.12 520.482 341.32 521.058 341.72C521.64 342.115 522.085 342.656 522.394 343.344C522.704 344.032 522.858 344.808 522.858 345.672C522.858 346.536 522.704 347.312 522.394 348C522.085 348.688 521.64 349.235 521.058 349.64C520.482 350.04 519.792 350.24 518.986 350.24ZM515.01 353.84V341.36H516.282V347.72H516.442V353.84H515.01ZM518.81 348.936C519.381 348.936 519.853 348.792 520.226 348.504C520.6 348.216 520.88 347.827 521.066 347.336C521.253 346.84 521.346 346.285 521.346 345.672C521.346 345.064 521.253 344.515 521.066 344.024C520.885 343.533 520.602 343.144 520.218 342.856C519.84 342.568 519.357 342.424 518.77 342.424C518.21 342.424 517.746 342.563 517.378 342.84C517.01 343.112 516.736 343.493 516.554 343.984C516.373 344.469 516.282 345.032 516.282 345.672C516.282 346.301 516.37 346.864 516.546 347.36C516.728 347.851 517.005 348.237 517.378 348.52C517.752 348.797 518.229 348.936 518.81 348.936Z" fill="#110529"/>
    <path d="M710 344H529.5" stroke="#110529" stroke-width="2"/>
    <path d="M717.12 350V338.48H721.672C721.784 338.48 721.917 338.485 722.072 338.496C722.227 338.501 722.376 338.517 722.52 338.544C723.144 338.64 723.667 338.853 724.088 339.184C724.515 339.515 724.835 339.933 725.048 340.44C725.261 340.941 725.368 341.499 725.368 342.112C725.368 343.003 725.136 343.776 724.672 344.432C724.208 345.083 723.528 345.491 722.632 345.656L722.088 345.744H718.544V350H717.12ZM723.976 350L721.704 345.312L723.112 344.88L725.608 350H723.976ZM718.544 344.392H721.624C721.725 344.392 721.84 344.387 721.968 344.376C722.101 344.365 722.227 344.347 722.344 344.32C722.712 344.235 723.011 344.08 723.24 343.856C723.475 343.627 723.645 343.36 723.752 343.056C723.859 342.747 723.912 342.432 723.912 342.112C723.912 341.792 723.859 341.48 723.752 341.176C723.645 340.867 723.475 340.597 723.24 340.368C723.011 340.139 722.712 339.984 722.344 339.904C722.227 339.872 722.101 339.853 721.968 339.848C721.84 339.837 721.725 339.832 721.624 339.832H718.544V344.392ZM727.05 349.992L727.058 348.712L732.17 344.112C732.597 343.728 732.882 343.365 733.026 343.024C733.175 342.677 733.25 342.323 733.25 341.96C733.25 341.517 733.149 341.117 732.946 340.76C732.743 340.403 732.466 340.12 732.114 339.912C731.767 339.704 731.373 339.6 730.93 339.6C730.471 339.6 730.063 339.709 729.706 339.928C729.349 340.141 729.066 340.427 728.858 340.784C728.655 341.141 728.557 341.531 728.562 341.952H727.106C727.106 341.227 727.274 340.587 727.61 340.032C727.946 339.472 728.402 339.035 728.978 338.72C729.559 338.4 730.218 338.24 730.954 338.24C731.669 338.24 732.309 338.405 732.874 338.736C733.439 339.061 733.885 339.507 734.21 340.072C734.541 340.632 734.706 341.267 734.706 341.976C734.706 342.477 734.642 342.912 734.514 343.28C734.391 343.648 734.199 343.989 733.938 344.304C733.677 344.613 733.349 344.944 732.954 345.296L728.706 349.112L728.522 348.632H734.706V349.992H727.05Z" fill="#110529"/>
    <rect x="710" y="332" width="32" height="24" rx="1" stroke="#110529" stroke-width="2"/>
    <path d="M104.62 166V154.48H109.172C109.284 154.48 109.417 154.485 109.572 154.496C109.727 154.501 109.876 154.517 110.02 154.544C110.644 154.64 111.167 154.853 111.588 155.184C112.015 155.515 112.335 155.933 112.548 156.44C112.761 156.941 112.868 157.499 112.868 158.112C112.868 159.003 112.636 159.776 112.172 160.432C111.708 161.083 111.028 161.491 110.132 161.656L109.588 161.744H106.044V166H104.62ZM111.476 166L109.204 161.312L110.612 160.88L113.108 166H111.476ZM106.044 160.392H109.124C109.225 160.392 109.34 160.387 109.468 160.376C109.601 160.365 109.727 160.347 109.844 160.32C110.212 160.235 110.511 160.08 110.74 159.856C110.975 159.627 111.145 159.36 111.252 159.056C111.359 158.747 111.412 158.432 111.412 158.112C111.412 157.792 111.359 157.48 111.252 157.176C111.145 156.867 110.975 156.597 110.74 156.368C110.511 156.139 110.212 155.984 109.844 155.904C109.727 155.872 109.601 155.853 109.468 155.848C109.34 155.837 109.225 155.832 109.124 155.832H106.044V160.392ZM116.878 166V156.056L114.71 157.368V155.776L116.878 154.48H118.326V166H116.878Z" fill="#110529"/>
    <rect x="96" y="148" width="32" height="24" rx="1" stroke="#110529" stroke-width="2"/>
    <path d="M343.5 160H128" stroke="#110529" stroke-width="2"/>
    <rect width="53" height="20" transform="translate(343.5 150)" fill="white"/>
    <path d="M350.636 166V156.056L348.468 157.368V155.776L350.636 154.48H352.084V166H350.636ZM358.536 166.24C357.944 166.24 357.392 166.117 356.88 165.872C356.373 165.627 355.938 165.291 355.576 164.864C355.218 164.432 354.962 163.936 354.808 163.376L356.176 163.008C356.272 163.387 356.442 163.715 356.688 163.992C356.933 164.264 357.218 164.477 357.544 164.632C357.874 164.781 358.218 164.856 358.576 164.856C359.045 164.856 359.466 164.744 359.84 164.52C360.218 164.291 360.517 163.989 360.736 163.616C360.954 163.237 361.064 162.824 361.064 162.376C361.064 161.912 360.949 161.493 360.72 161.12C360.496 160.741 360.194 160.443 359.816 160.224C359.437 160.005 359.024 159.896 358.576 159.896C358.069 159.896 357.634 160.003 357.272 160.216C356.914 160.424 356.632 160.68 356.424 160.984L355.16 160.504L355.512 154.48H361.696V155.832H356.2L356.832 155.24L356.536 160.064L356.224 159.656C356.544 159.315 356.925 159.051 357.368 158.864C357.816 158.677 358.272 158.584 358.736 158.584C359.45 158.584 360.09 158.752 360.656 159.088C361.221 159.419 361.669 159.872 362 160.448C362.33 161.019 362.496 161.661 362.496 162.376C362.496 163.085 362.314 163.733 361.952 164.32C361.589 164.901 361.106 165.368 360.504 165.72C359.906 166.067 359.25 166.24 358.536 166.24ZM368.297 166.24C367.55 166.24 366.884 166.072 366.297 165.736C365.716 165.395 365.254 164.933 364.913 164.352C364.577 163.765 364.409 163.099 364.409 162.352V158.128C364.409 157.381 364.577 156.715 364.913 156.128C365.254 155.541 365.716 155.08 366.297 154.744C366.884 154.408 367.55 154.24 368.297 154.24C369.044 154.24 369.71 154.408 370.297 154.744C370.884 155.08 371.345 155.541 371.681 156.128C372.017 156.715 372.185 157.381 372.185 158.128V162.352C372.185 163.099 372.017 163.765 371.681 164.352C371.345 164.933 370.884 165.395 370.297 165.736C369.71 166.072 369.044 166.24 368.297 166.24ZM368.297 164.872C368.75 164.872 369.161 164.763 369.529 164.544C369.897 164.325 370.19 164.032 370.409 163.664C370.628 163.291 370.737 162.88 370.737 162.432V158.04C370.737 157.587 370.628 157.176 370.409 156.808C370.19 156.44 369.897 156.147 369.529 155.928C369.161 155.709 368.75 155.6 368.297 155.6C367.849 155.6 367.438 155.709 367.065 155.928C366.697 156.147 366.404 156.44 366.185 156.808C365.966 157.176 365.857 157.587 365.857 158.04V162.432C365.857 162.88 365.966 163.291 366.185 163.664C366.404 164.032 366.697 164.325 367.065 164.544C367.438 164.763 367.849 164.872 368.297 164.872ZM378.393 166.24C377.582 166.24 376.899 166.04 376.345 165.64C375.79 165.235 375.369 164.688 375.081 164C374.798 163.307 374.657 162.531 374.657 161.672C374.657 160.803 374.798 160.024 375.081 159.336C375.369 158.648 375.79 158.107 376.345 157.712C376.905 157.317 377.59 157.12 378.401 157.12C379.201 157.12 379.889 157.32 380.465 157.72C381.046 158.115 381.491 158.656 381.801 159.344C382.11 160.032 382.265 160.808 382.265 161.672C382.265 162.536 382.11 163.312 381.801 164C381.491 164.688 381.046 165.235 380.465 165.64C379.889 166.04 379.198 166.24 378.393 166.24ZM374.417 166V154.48H375.849V159.64H375.689V166H374.417ZM378.217 164.936C378.787 164.936 379.259 164.792 379.633 164.504C380.006 164.216 380.286 163.827 380.473 163.336C380.659 162.84 380.753 162.285 380.753 161.672C380.753 161.064 380.659 160.515 380.473 160.024C380.291 159.533 380.009 159.144 379.625 158.856C379.246 158.568 378.763 158.424 378.177 158.424C377.617 158.424 377.153 158.563 376.785 158.84C376.417 159.112 376.142 159.493 375.961 159.984C375.779 160.469 375.689 161.032 375.689 161.672C375.689 162.301 375.777 162.864 375.953 163.36C376.134 163.851 376.411 164.237 376.785 164.52C377.158 164.797 377.635 164.936 378.217 164.936ZM387.986 166.24C387.176 166.24 386.493 166.04 385.938 165.64C385.384 165.235 384.962 164.688 384.674 164C384.392 163.307 384.25 162.531 384.25 161.672C384.25 160.803 384.392 160.024 384.674 159.336C384.962 158.648 385.384 158.107 385.938 157.712C386.498 157.317 387.184 157.12 387.994 157.12C388.794 157.12 389.482 157.32 390.058 157.72C390.64 158.115 391.085 158.656 391.394 159.344C391.704 160.032 391.858 160.808 391.858 161.672C391.858 162.536 391.704 163.312 391.394 164C391.085 164.688 390.64 165.235 390.058 165.64C389.482 166.04 388.792 166.24 387.986 166.24ZM384.01 169.84V157.36H385.282V163.72H385.442V169.84H384.01ZM387.81 164.936C388.381 164.936 388.853 164.792 389.226 164.504C389.6 164.216 389.88 163.827 390.066 163.336C390.253 162.84 390.346 162.285 390.346 161.672C390.346 161.064 390.253 160.515 390.066 160.024C389.885 159.533 389.602 159.144 389.218 158.856C388.84 158.568 388.357 158.424 387.77 158.424C387.21 158.424 386.746 158.563 386.378 158.84C386.01 159.112 385.736 159.493 385.554 159.984C385.373 160.469 385.282 161.032 385.282 161.672C385.282 162.301 385.37 162.864 385.546 163.36C385.728 163.851 386.005 164.237 386.378 164.52C386.752 164.797 387.229 164.936 387.81 164.936Z" fill="#110529"/>
    <path d="M612 160H396.5" stroke="#110529" stroke-width="2"/>
    <path d="M622 160L622.707 159.293L623.414 160L622.707 160.707L622 160ZM614.707 168.707L614 169.414L612.586 168L613.293 167.293L614.707 168.707ZM613.293 152.707L612.586 152L614 150.586L614.707 151.293L613.293 152.707ZM612 159L622 159L622 161L612 161L612 159ZM622.707 160.707L614.707 168.707L613.293 167.293L621.293 159.293L622.707 160.707ZM621.293 160.707L613.293 152.707L614.707 151.293L622.707 159.293L621.293 160.707Z" fill="#110529"/>
    <path d="M104.62 326V314.48H109.172C109.284 314.48 109.417 314.485 109.572 314.496C109.727 314.501 109.876 314.517 110.02 314.544C110.644 314.64 111.167 314.853 111.588 315.184C112.015 315.515 112.335 315.933 112.548 316.44C112.761 316.941 112.868 317.499 112.868 318.112C112.868 319.003 112.636 319.776 112.172 320.432C111.708 321.083 111.028 321.491 110.132 321.656L109.588 321.744H106.044V326H104.62ZM111.476 326L109.204 321.312L110.612 320.88L113.108 326H111.476ZM106.044 320.392H109.124C109.225 320.392 109.34 320.387 109.468 320.376C109.601 320.365 109.727 320.347 109.844 320.32C110.212 320.235 110.511 320.08 110.74 319.856C110.975 319.627 111.145 319.36 111.252 319.056C111.359 318.747 111.412 318.432 111.412 318.112C111.412 317.792 111.359 317.48 111.252 317.176C111.145 316.867 110.975 316.597 110.74 316.368C110.511 316.139 110.212 315.984 109.844 315.904C109.727 315.872 109.601 315.853 109.468 315.848C109.34 315.837 109.225 315.832 109.124 315.832H106.044V320.392ZM116.878 326V316.056L114.71 317.368V315.776L116.878 314.48H118.326V326H116.878Z" fill="#110529"/>
    <rect x="96" y="308" width="32" height="24" rx="1" stroke="#110529" stroke-width="2"/>
    <path d="M320.5 320H128" stroke="#110529" stroke-width="2"/>
    <rect width="53" height="20" transform="translate(320.5 310)" fill="white"/>
    <path d="M327.636 326V316.056L325.468 317.368V315.776L327.636 314.48H329.084V326H327.636ZM335.536 326.24C334.944 326.24 334.392 326.117 333.88 325.872C333.373 325.627 332.938 325.291 332.576 324.864C332.218 324.432 331.962 323.936 331.808 323.376L333.176 323.008C333.272 323.387 333.442 323.715 333.688 323.992C333.933 324.264 334.218 324.477 334.544 324.632C334.874 324.781 335.218 324.856 335.576 324.856C336.045 324.856 336.466 324.744 336.84 324.52C337.218 324.291 337.517 323.989 337.736 323.616C337.954 323.237 338.064 322.824 338.064 322.376C338.064 321.912 337.949 321.493 337.72 321.12C337.496 320.741 337.194 320.443 336.816 320.224C336.437 320.005 336.024 319.896 335.576 319.896C335.069 319.896 334.634 320.003 334.272 320.216C333.914 320.424 333.632 320.68 333.424 320.984L332.16 320.504L332.512 314.48H338.696V315.832H333.2L333.832 315.24L333.536 320.064L333.224 319.656C333.544 319.315 333.925 319.051 334.368 318.864C334.816 318.677 335.272 318.584 335.736 318.584C336.45 318.584 337.09 318.752 337.656 319.088C338.221 319.419 338.669 319.872 339 320.448C339.33 321.019 339.496 321.661 339.496 322.376C339.496 323.085 339.314 323.733 338.952 324.32C338.589 324.901 338.106 325.368 337.504 325.72C336.906 326.067 336.25 326.24 335.536 326.24ZM345.297 326.24C344.55 326.24 343.884 326.072 343.297 325.736C342.716 325.395 342.254 324.933 341.913 324.352C341.577 323.765 341.409 323.099 341.409 322.352V318.128C341.409 317.381 341.577 316.715 341.913 316.128C342.254 315.541 342.716 315.08 343.297 314.744C343.884 314.408 344.55 314.24 345.297 314.24C346.044 314.24 346.71 314.408 347.297 314.744C347.884 315.08 348.345 315.541 348.681 316.128C349.017 316.715 349.185 317.381 349.185 318.128V322.352C349.185 323.099 349.017 323.765 348.681 324.352C348.345 324.933 347.884 325.395 347.297 325.736C346.71 326.072 346.044 326.24 345.297 326.24ZM345.297 324.872C345.75 324.872 346.161 324.763 346.529 324.544C346.897 324.325 347.19 324.032 347.409 323.664C347.628 323.291 347.737 322.88 347.737 322.432V318.04C347.737 317.587 347.628 317.176 347.409 316.808C347.19 316.44 346.897 316.147 346.529 315.928C346.161 315.709 345.75 315.6 345.297 315.6C344.849 315.6 344.438 315.709 344.065 315.928C343.697 316.147 343.404 316.44 343.185 316.808C342.966 317.176 342.857 317.587 342.857 318.04V322.432C342.857 322.88 342.966 323.291 343.185 323.664C343.404 324.032 343.697 324.325 344.065 324.544C344.438 324.763 344.849 324.872 345.297 324.872ZM355.393 326.24C354.582 326.24 353.899 326.04 353.345 325.64C352.79 325.235 352.369 324.688 352.081 324C351.798 323.307 351.657 322.531 351.657 321.672C351.657 320.803 351.798 320.024 352.081 319.336C352.369 318.648 352.79 318.107 353.345 317.712C353.905 317.317 354.59 317.12 355.401 317.12C356.201 317.12 356.889 317.32 357.465 317.72C358.046 318.115 358.491 318.656 358.801 319.344C359.11 320.032 359.265 320.808 359.265 321.672C359.265 322.536 359.11 323.312 358.801 324C358.491 324.688 358.046 325.235 357.465 325.64C356.889 326.04 356.198 326.24 355.393 326.24ZM351.417 326V314.48H352.849V319.64H352.689V326H351.417ZM355.217 324.936C355.787 324.936 356.259 324.792 356.633 324.504C357.006 324.216 357.286 323.827 357.473 323.336C357.659 322.84 357.753 322.285 357.753 321.672C357.753 321.064 357.659 320.515 357.473 320.024C357.291 319.533 357.009 319.144 356.625 318.856C356.246 318.568 355.763 318.424 355.177 318.424C354.617 318.424 354.153 318.563 353.785 318.84C353.417 319.112 353.142 319.493 352.961 319.984C352.779 320.469 352.689 321.032 352.689 321.672C352.689 322.301 352.777 322.864 352.953 323.36C353.134 323.851 353.411 324.237 353.785 324.52C354.158 324.797 354.635 324.936 355.217 324.936ZM364.986 326.24C364.176 326.24 363.493 326.04 362.938 325.64C362.384 325.235 361.962 324.688 361.674 324C361.392 323.307 361.25 322.531 361.25 321.672C361.25 320.803 361.392 320.024 361.674 319.336C361.962 318.648 362.384 318.107 362.938 317.712C363.498 317.317 364.184 317.12 364.994 317.12C365.794 317.12 366.482 317.32 367.058 317.72C367.64 318.115 368.085 318.656 368.394 319.344C368.704 320.032 368.858 320.808 368.858 321.672C368.858 322.536 368.704 323.312 368.394 324C368.085 324.688 367.64 325.235 367.058 325.64C366.482 326.04 365.792 326.24 364.986 326.24ZM361.01 329.84V317.36H362.282V323.72H362.442V329.84H361.01ZM364.81 324.936C365.381 324.936 365.853 324.792 366.226 324.504C366.6 324.216 366.88 323.827 367.066 323.336C367.253 322.84 367.346 322.285 367.346 321.672C367.346 321.064 367.253 320.515 367.066 320.024C366.885 319.533 366.602 319.144 366.218 318.856C365.84 318.568 365.357 318.424 364.77 318.424C364.21 318.424 363.746 318.563 363.378 318.84C363.01 319.112 362.736 319.493 362.554 319.984C362.373 320.469 362.282 321.032 362.282 321.672C362.282 322.301 362.37 322.864 362.546 323.36C362.728 323.851 363.005 324.237 363.378 324.52C363.752 324.797 364.229 324.936 364.81 324.936Z" fill="#110529"/>
    <path d="M566 320H373.5" stroke="#110529" stroke-width="2"/>
    <path d="M576 320L576.707 319.293L577.414 320L576.707 320.707L576 320ZM568.707 328.707L568 329.414L566.586 328L567.293 327.293L568.707 328.707ZM567.293 312.707L566.586 312L568 310.586L568.707 311.293L567.293 312.707ZM566 319L576 319L576 321L566 321L566 319ZM576.707 320.707L568.707 328.707L567.293 327.293L575.293 319.293L576.707 320.707ZM575.293 320.707L567.293 312.707L568.707 311.293L576.707 319.293L575.293 320.707Z" fill="#110529"/>
    <path d="M32.9984 438H34.7784V423.6H32.9984V438ZM43.6089 438.3C47.8189 438.3 50.0589 435.39 50.0589 431.44C50.0589 431.32 50.0489 430.87 50.0189 430.59H45.0789V432.06H48.1389C47.9189 434.93 46.4789 436.62 43.6989 436.6C40.4789 436.58 38.8489 434.25 38.8689 430.8C38.8889 427.35 40.4789 424.99 43.6989 425.01C45.7489 425.02 47.1389 426.14 47.7489 427.88L49.5489 427.51C48.7989 424.92 46.8289 423.31 43.6089 423.31C39.5789 423.31 36.9789 426.21 36.9789 430.8C36.9789 435.44 39.6389 438.3 43.6089 438.3ZM52.0563 438H53.8363V431.64H61.4163V438H63.1963V423.6H61.4163V429.95H53.8363V423.6H52.0563V438Z" fill="#110529"/>
    <path d="M26.0258 528H27.8058V513.6H26.0258V528ZM36.6363 528.3C40.8463 528.3 43.0863 525.39 43.0863 521.44C43.0863 521.32 43.0763 520.87 43.0463 520.59H38.1063V522.06H41.1662C40.9463 524.93 39.5062 526.62 36.7263 526.6C33.5063 526.58 31.8763 524.25 31.8963 520.8C31.9163 517.35 33.5063 514.99 36.7263 515.01C38.7763 515.02 40.1663 516.14 40.7763 517.88L42.5763 517.51C41.8263 514.92 39.8563 513.31 36.6363 513.31C32.6063 513.31 30.0063 516.21 30.0063 520.8C30.0063 525.44 32.6663 528.3 36.6363 528.3ZM45.0836 528H46.8636V520.96L53.6136 528H55.9136L48.8636 520.59L55.4036 513.6H53.1636L46.8636 520.36V513.6H45.0836V528ZM64.5634 513.6L60.7234 528H62.5334L66.3734 513.6H64.5634ZM34.7953 548H36.5753V533.6H34.7953V548ZM45.4058 548.3C49.6158 548.3 51.8558 545.39 51.8558 541.44C51.8558 541.32 51.8458 540.87 51.8158 540.59H46.8758V542.06H49.9358C49.7158 544.93 48.2758 546.62 45.4958 546.6C42.2758 546.58 40.6458 544.25 40.6658 540.8C40.6858 537.35 42.2758 534.99 45.4958 535.01C47.5458 535.02 48.9358 536.14 49.5458 537.88L51.3458 537.51C50.5958 534.92 48.6258 533.31 45.4058 533.31C41.3758 533.31 38.7758 536.21 38.7758 540.8C38.7758 545.44 41.4358 548.3 45.4058 548.3ZM54.0531 548H62.5131V546.31H55.8331V533.6H54.0531V548Z" fill="#110529"/>
    <path d="M19.3014 268H21.0814V255.29H25.9914V253.6H14.3914V255.29H19.3014V268ZM33.5036 268.3C36.8336 268.3 39.0236 266.47 39.8436 263.61L38.0336 263.13C37.4436 265.27 35.9336 266.6 33.5036 266.6C30.2836 266.6 28.6436 264.25 28.6636 260.8C28.6836 257.35 30.2836 255 33.5036 255C35.9336 255 37.4436 256.33 38.0336 258.47L39.8436 257.99C39.0236 255.13 36.8336 253.3 33.5036 253.3C29.1936 253.3 26.7836 256.36 26.7836 260.8C26.7836 265.24 29.1936 268.3 33.5036 268.3ZM42.0367 268H43.8167V262.68H48.0267L50.6067 268H52.6467L49.8667 262.29C51.4967 261.61 52.3467 260.04 52.3467 258.14C52.3467 255.85 51.1167 254.04 48.7867 253.68C48.4167 253.62 48.0067 253.6 47.7267 253.6H42.0367V268ZM43.8167 260.99V255.29H47.6667C47.9167 255.29 48.2667 255.31 48.5667 255.38C49.9467 255.69 50.5267 256.94 50.5267 258.14C50.5267 259.34 49.9467 260.59 48.5667 260.9C48.2667 260.97 47.9167 260.99 47.6667 260.99H43.8167ZM63.1231 268.3C64.7631 268.3 66.0731 267.54 66.7731 266.24V268H68.3631V257.2H66.7731V258.93C66.0831 257.65 64.8231 256.9 63.1731 256.9C60.0731 256.9 58.2531 259.35 58.2531 262.6C58.2531 265.83 60.0631 268.3 63.1231 268.3ZM60.1431 262.6C60.1431 260.19 61.2531 258.53 63.3631 258.53C65.4731 258.53 66.4731 260.2 66.4731 262.59C66.4731 264.96 65.4831 266.67 63.3431 266.67C61.1731 266.67 60.1431 264.88 60.1431 262.6ZM78.8017 253.6L74.9617 268H76.7717L80.6117 253.6H78.8017ZM26.2448 288H28.0248V275.29H32.9348V273.6H21.3348V275.29H26.2448V288ZM40.447 288.3C43.777 288.3 45.967 286.47 46.787 283.61L44.977 283.13C44.387 285.27 42.877 286.6 40.447 286.6C37.227 286.6 35.587 284.25 35.607 280.8C35.627 277.35 37.227 275 40.447 275C42.877 275 44.387 276.33 44.977 278.47L46.787 277.99C45.967 275.13 43.777 273.3 40.447 273.3C36.137 273.3 33.727 276.36 33.727 280.8C33.727 285.24 36.137 288.3 40.447 288.3ZM48.9801 288H50.7601V282.68H54.9701L57.5501 288H59.5901L56.8101 282.29C58.4401 281.61 59.2901 280.04 59.2901 278.14C59.2901 275.85 58.0601 274.04 55.7301 273.68C55.3601 273.62 54.9501 273.6 54.6701 273.6H48.9801V288ZM50.7601 280.99V275.29H54.6101C54.8601 275.29 55.2101 275.31 55.5101 275.38C56.8901 275.69 57.4701 276.94 57.4701 278.14C57.4701 279.34 56.8901 280.59 55.5101 280.9C55.2101 280.97 54.8601 280.99 54.6101 280.99H50.7601ZM68.7165 291.6H70.5365V288L74.4565 277.2H72.6565L69.6265 285.73L66.6065 277.2H64.7965L68.7165 288V291.6Z" fill="#110529"/>
    <defs>
        <filter id="filter0_i_6229_37566" x="94.7373" y="83" width="330.263" height="54" filterUnits="userSpaceOnUse" color-interpolation-filters="sRGB">
            <feFlood flood-opacity="0" result="BackgroundImageFix"/>
            <feBlend mode="normal" in="SourceGraphic" in2="BackgroundImageFix" result="shape"/>
            <feColorMatrix in="SourceAlpha" type="matrix" values="0 0 0 0 0 0 0 0 0 0 0 0 0 0 0 0 0 0 127 0" result="hardAlpha"/>
            <feOffset dx="-8" dy="-4"/>
            <feComposite in2="hardAlpha" operator="arithmetic" k2="-1" k3="1"/>
            <feColorMatrix type="matrix" values="0 0 0 0 0.0666667 0 0 0 0 0.0196078 0 0 0 0 0.160784 0 0 0 0.16 0"/>
            <feBlend mode="normal" in2="shape" result="effect1_innerShadow_6229_37566"/>
        </filter>
        <filter id="filter1_i_6229_37566" x="423" y="83" width="32" height="54" filterUnits="userSpaceOnUse" color-interpolation-filters="sRGB">
            <feFlood flood-opacity="0" result="BackgroundImageFix"/>
            <feBlend mode="normal" in="SourceGraphic" in2="BackgroundImageFix" result="shape"/>
            <feColorMatrix in="SourceAlpha" type="matrix" values="0 0 0 0 0 0 0 0 0 0 0 0 0 0 0 0 0 0 127 0" result="hardAlpha"/>
            <feOffset dx="-8" dy="-4"/>
            <feComposite in2="hardAlpha" operator="arithmetic" k2="-1" k3="1"/>
            <feColorMatrix type="matrix" values="0 0 0 0 0.0666667 0 0 0 0 0.0196078 0 0 0 0 0.160784 0 0 0 0.16 0"/>
            <feBlend mode="normal" in2="shape" result="effect1_innerShadow_6229_37566"/>
        </filter>
        <filter id="filter2_i_6229_37566" x="489" y="83" width="32" height="54" filterUnits="userSpaceOnUse" color-interpolation-filters="sRGB">
            <feFlood flood-opacity="0" result="BackgroundImageFix"/>
            <feBlend mode="normal" in="SourceGraphic" in2="BackgroundImageFix" result="shape"/>
            <feColorMatrix in="SourceAlpha" type="matrix" values="0 0 0 0 0 0 0 0 0 0 0 0 0 0 0 0 0 0 127 0" result="hardAlpha"/>
            <feOffset dx="-8" dy="-4"/>
            <feComposite in2="hardAlpha" operator="arithmetic" k2="-1" k3="1"/>
            <feColorMatrix type="matrix" values="0 0 0 0 0.0666667 0 0 0 0 0.0196078 0 0 0 0 0.160784 0 0 0 0.16 0"/>
            <feBlend mode="normal" in2="shape" result="effect1_innerShadow_6229_37566"/>
        </filter>
        <filter id="filter3_i_6229_37566" x="453" y="83" width="38" height="54" filterUnits="userSpaceOnUse" color-interpolation-filters="sRGB">
            <feFlood flood-opacity="0" result="BackgroundImageFix"/>
            <feBlend mode="normal" in="SourceGraphic" in2="BackgroundImageFix" result="shape"/>
            <feColorMatrix in="SourceAlpha" type="matrix" values="0 0 0 0 0 0 0 0 0 0 0 0 0 0 0 0 0 0 127 0" result="hardAlpha"/>
            <feOffset dx="-8" dy="-4"/>
            <feComposite in2="hardAlpha" operator="arithmetic" k2="-1" k3="1"/>
            <feColorMatrix type="matrix" values="0 0 0 0 0.0666667 0 0 0 0 0.0196078 0 0 0 0 0.160784 0 0 0 0.16 0"/>
            <feBlend mode="normal" in2="shape" result="effect1_innerShadow_6229_37566"/>
        </filter>
        <filter id="filter4_i_6229_37566" x="519" y="83" width="146" height="54" filterUnits="userSpaceOnUse" color-interpolation-filters="sRGB">
            <feFlood flood-opacity="0" result="BackgroundImageFix"/>
            <feBlend mode="normal" in="SourceGraphic" in2="BackgroundImageFix" result="shape"/>
            <feColorMatrix in="SourceAlpha" type="matrix" values="0 0 0 0 0 0 0 0 0 0 0 0 0 0 0 0 0 0 127 0" result="hardAlpha"/>
            <feOffset dx="-8" dy="-4"/>
            <feComposite in2="hardAlpha" operator="arithmetic" k2="-1" k3="1"/>
            <feColorMatrix type="matrix" values="0 0 0 0 0.0666667 0 0 0 0 0.0196078 0 0 0 0 0.160784 0 0 0 0.16 0"/>
            <feBlend mode="normal" in2="shape" result="effect1_innerShadow_6229_37566"/>
        </filter>
        <filter id="filter5_i_6229_37566" x="663" y="83" width="82" height="54" filterUnits="userSpaceOnUse" color-interpolation-filters="sRGB">
            <feFlood flood-opacity="0" result="BackgroundImageFix"/>
            <feBlend mode="normal" in="SourceGraphic" in2="BackgroundImageFix" result="shape"/>
            <feColorMatrix in="SourceAlpha" type="matrix" values="0 0 0 0 0 0 0 0 0 0 0 0 0 0 0 0 0 0 127 0" result="hardAlpha"/>
            <feOffset dx="-8" dy="-4"/>
            <feComposite in2="hardAlpha" operator="arithmetic" k2="-1" k3="1"/>
            <feColorMatrix type="matrix" values="0 0 0 0 0.0666667 0 0 0 0 0.0196078 0 0 0 0 0.160784 0 0 0 0.16 0"/>
            <feBlend mode="normal" in2="shape" result="effect1_innerShadow_6229_37566"/>
        </filter>
        <filter id="filter6_i_6229_37566" x="743" y="83" width="66" height="54" filterUnits="userSpaceOnUse" color-interpolation-filters="sRGB">
            <feFlood flood-opacity="0" result="BackgroundImageFix"/>
            <feBlend mode="normal" in="SourceGraphic" in2="BackgroundImageFix" result="shape"/>
            <feColorMatrix in="SourceAlpha" type="matrix" values="0 0 0 0 0 0 0 0 0 0 0 0 0 0 0 0 0 0 127 0" result="hardAlpha"/>
            <feOffset dx="-8" dy="-4"/>
            <feComposite in2="hardAlpha" operator="arithmetic" k2="-1" k3="1"/>
            <feColorMatrix type="matrix" values="0 0 0 0 0.0666667 0 0 0 0 0.0196078 0 0 0 0 0.160784 0 0 0 0.16 0"/>
            <feBlend mode="normal" in2="shape" result="effect1_innerShadow_6229_37566"/>
        </filter>
        <filter id="filter7_i_6229_37566" x="94.7373" y="403" width="330.263" height="54" filterUnits="userSpaceOnUse" color-interpolation-filters="sRGB">
            <feFlood flood-opacity="0" result="BackgroundImageFix"/>
            <feBlend mode="normal" in="SourceGraphic" in2="BackgroundImageFix" result="shape"/>
            <feColorMatrix in="SourceAlpha" type="matrix" values="0 0 0 0 0 0 0 0 0 0 0 0 0 0 0 0 0 0 127 0" result="hardAlpha"/>
            <feOffset dx="-8" dy="-4"/>
            <feComposite in2="hardAlpha" operator="arithmetic" k2="-1" k3="1"/>
            <feColorMatrix type="matrix" values="0 0 0 0 0.0666667 0 0 0 0 0.0196078 0 0 0 0 0.160784 0 0 0 0.16 0"/>
            <feBlend mode="normal" in2="shape" result="effect1_innerShadow_6229_37566"/>
        </filter>
        <filter id="filter8_i_6229_37566" x="423" y="403" width="32" height="54" filterUnits="userSpaceOnUse" color-interpolation-filters="sRGB">
            <feFlood flood-opacity="0" result="BackgroundImageFix"/>
            <feBlend mode="normal" in="SourceGraphic" in2="BackgroundImageFix" result="shape"/>
            <feColorMatrix in="SourceAlpha" type="matrix" values="0 0 0 0 0 0 0 0 0 0 0 0 0 0 0 0 0 0 127 0" result="hardAlpha"/>
            <feOffset dx="-8" dy="-4"/>
            <feComposite in2="hardAlpha" operator="arithmetic" k2="-1" k3="1"/>
            <feColorMatrix type="matrix" values="0 0 0 0 0.0666667 0 0 0 0 0.0196078 0 0 0 0 0.160784 0 0 0 0.16 0"/>
            <feBlend mode="normal" in2="shape" result="effect1_innerShadow_6229_37566"/>
        </filter>
        <filter id="filter9_i_6229_37566" x="489" y="403" width="32" height="54" filterUnits="userSpaceOnUse" color-interpolation-filters="sRGB">
            <feFlood flood-opacity="0" result="BackgroundImageFix"/>
            <feBlend mode="normal" in="SourceGraphic" in2="BackgroundImageFix" result="shape"/>
            <feColorMatrix in="SourceAlpha" type="matrix" values="0 0 0 0 0 0 0 0 0 0 0 0 0 0 0 0 0 0 127 0" result="hardAlpha"/>
            <feOffset dx="-8" dy="-4"/>
            <feComposite in2="hardAlpha" operator="arithmetic" k2="-1" k3="1"/>
            <feColorMatrix type="matrix" values="0 0 0 0 0.0666667 0 0 0 0 0.0196078 0 0 0 0 0.160784 0 0 0 0.16 0"/>
            <feBlend mode="normal" in2="shape" result="effect1_innerShadow_6229_37566"/>
        </filter>
        <filter id="filter10_i_6229_37566" x="453" y="403" width="38" height="54" filterUnits="userSpaceOnUse" color-interpolation-filters="sRGB">
            <feFlood flood-opacity="0" result="BackgroundImageFix"/>
            <feBlend mode="normal" in="SourceGraphic" in2="BackgroundImageFix" result="shape"/>
            <feColorMatrix in="SourceAlpha" type="matrix" values="0 0 0 0 0 0 0 0 0 0 0 0 0 0 0 0 0 0 127 0" result="hardAlpha"/>
            <feOffset dx="-8" dy="-4"/>
            <feComposite in2="hardAlpha" operator="arithmetic" k2="-1" k3="1"/>
            <feColorMatrix type="matrix" values="0 0 0 0 0.0666667 0 0 0 0 0.0196078 0 0 0 0 0.160784 0 0 0 0.16 0"/>
            <feBlend mode="normal" in2="shape" result="effect1_innerShadow_6229_37566"/>
        </filter>
        <filter id="filter11_i_6229_37566" x="519" y="403" width="146" height="54" filterUnits="userSpaceOnUse" color-interpolation-filters="sRGB">
            <feFlood flood-opacity="0" result="BackgroundImageFix"/>
            <feBlend mode="normal" in="SourceGraphic" in2="BackgroundImageFix" result="shape"/>
            <feColorMatrix in="SourceAlpha" type="matrix" values="0 0 0 0 0 0 0 0 0 0 0 0 0 0 0 0 0 0 127 0" result="hardAlpha"/>
            <feOffset dx="-8" dy="-4"/>
            <feComposite in2="hardAlpha" operator="arithmetic" k2="-1" k3="1"/>
            <feColorMatrix type="matrix" values="0 0 0 0 0.0666667 0 0 0 0 0.0196078 0 0 0 0 0.160784 0 0 0 0.16 0"/>
            <feBlend mode="normal" in2="shape" result="effect1_innerShadow_6229_37566"/>
        </filter>
        <filter id="filter12_i_6229_37566" x="663" y="403" width="82" height="54" filterUnits="userSpaceOnUse" color-interpolation-filters="sRGB">
            <feFlood flood-opacity="0" result="BackgroundImageFix"/>
            <feBlend mode="normal" in="SourceGraphic" in2="BackgroundImageFix" result="shape"/>
            <feColorMatrix in="SourceAlpha" type="matrix" values="0 0 0 0 0 0 0 0 0 0 0 0 0 0 0 0 0 0 127 0" result="hardAlpha"/>
            <feOffset dx="-8" dy="-4"/>
            <feComposite in2="hardAlpha" operator="arithmetic" k2="-1" k3="1"/>
            <feColorMatrix type="matrix" values="0 0 0 0 0.0666667 0 0 0 0 0.0196078 0 0 0 0 0.160784 0 0 0 0.16 0"/>
            <feBlend mode="normal" in2="shape" result="effect1_innerShadow_6229_37566"/>
        </filter>
        <filter id="filter13_i_6229_37566" x="743" y="403" width="66" height="54" filterUnits="userSpaceOnUse" color-interpolation-filters="sRGB">
            <feFlood flood-opacity="0" result="BackgroundImageFix"/>
            <feBlend mode="normal" in="SourceGraphic" in2="BackgroundImageFix" result="shape"/>
            <feColorMatrix in="SourceAlpha" type="matrix" values="0 0 0 0 0 0 0 0 0 0 0 0 0 0 0 0 0 0 127 0" result="hardAlpha"/>
            <feOffset dx="-8" dy="-4"/>
            <feComposite in2="hardAlpha" operator="arithmetic" k2="-1" k3="1"/>
            <feColorMatrix type="matrix" values="0 0 0 0 0.0666667 0 0 0 0 0.0196078 0 0 0 0 0.160784 0 0 0 0.16 0"/>
            <feBlend mode="normal" in2="shape" result="effect1_innerShadow_6229_37566"/>
        </filter>
        <filter id="filter14_i_6229_37566" x="94.7373" y="243" width="330.263" height="54" filterUnits="userSpaceOnUse" color-interpolation-filters="sRGB">
            <feFlood flood-opacity="0" result="BackgroundImageFix"/>
            <feBlend mode="normal" in="SourceGraphic" in2="BackgroundImageFix" result="shape"/>
            <feColorMatrix in="SourceAlpha" type="matrix" values="0 0 0 0 0 0 0 0 0 0 0 0 0 0 0 0 0 0 127 0" result="hardAlpha"/>
            <feOffset dx="-8" dy="-4"/>
            <feComposite in2="hardAlpha" operator="arithmetic" k2="-1" k3="1"/>
            <feColorMatrix type="matrix" values="0 0 0 0 0.0666667 0 0 0 0 0.0196078 0 0 0 0 0.160784 0 0 0 0.16 0"/>
            <feBlend mode="normal" in2="shape" result="effect1_innerShadow_6229_37566"/>
        </filter>
        <filter id="filter15_i_6229_37566" x="423" y="243" width="32" height="54" filterUnits="userSpaceOnUse" color-interpolation-filters="sRGB">
            <feFlood flood-opacity="0" result="BackgroundImageFix"/>
            <feBlend mode="normal" in="SourceGraphic" in2="BackgroundImageFix" result="shape"/>
            <feColorMatrix in="SourceAlpha" type="matrix" values="0 0 0 0 0 0 0 0 0 0 0 0 0 0 0 0 0 0 127 0" result="hardAlpha"/>
            <feOffset dx="-8" dy="-4"/>
            <feComposite in2="hardAlpha" operator="arithmetic" k2="-1" k3="1"/>
            <feColorMatrix type="matrix" values="0 0 0 0 0.0666667 0 0 0 0 0.0196078 0 0 0 0 0.160784 0 0 0 0.16 0"/>
            <feBlend mode="normal" in2="shape" result="effect1_innerShadow_6229_37566"/>
        </filter>
        <filter id="filter16_i_6229_37566" x="453" y="243" width="146" height="54" filterUnits="userSpaceOnUse" color-interpolation-filters="sRGB">
            <feFlood flood-opacity="0" result="BackgroundImageFix"/>
            <feBlend mode="normal" in="SourceGraphic" in2="BackgroundImageFix" result="shape"/>
            <feColorMatrix in="SourceAlpha" type="matrix" values="0 0 0 0 0 0 0 0 0 0 0 0 0 0 0 0 0 0 127 0" result="hardAlpha"/>
            <feOffset dx="-8" dy="-4"/>
            <feComposite in2="hardAlpha" operator="arithmetic" k2="-1" k3="1"/>
            <feColorMatrix type="matrix" values="0 0 0 0 0.0666667 0 0 0 0 0.0196078 0 0 0 0 0.160784 0 0 0 0.16 0"/>
            <feBlend mode="normal" in2="shape" result="effect1_innerShadow_6229_37566"/>
        </filter>
        <filter id="filter17_i_6229_37566" x="597" y="243" width="82" height="54" filterUnits="userSpaceOnUse" color-interpolation-filters="sRGB">
            <feFlood flood-opacity="0" result="BackgroundImageFix"/>
            <feBlend mode="normal" in="SourceGraphic" in2="BackgroundImageFix" result="shape"/>
            <feColorMatrix in="SourceAlpha" type="matrix" values="0 0 0 0 0 0 0 0 0 0 0 0 0 0 0 0 0 0 127 0" result="hardAlpha"/>
            <feOffset dx="-8" dy="-4"/>
            <feComposite in2="hardAlpha" operator="arithmetic" k2="-1" k3="1"/>
            <feColorMatrix type="matrix" values="0 0 0 0 0.0666667 0 0 0 0 0.0196078 0 0 0 0 0.160784 0 0 0 0.16 0"/>
            <feBlend mode="normal" in2="shape" result="effect1_innerShadow_6229_37566"/>
        </filter>
        <filter id="filter18_i_6229_37566" x="677" y="243" width="66" height="54" filterUnits="userSpaceOnUse" color-interpolation-filters="sRGB">
            <feFlood flood-opacity="0" result="BackgroundImageFix"/>
            <feBlend mode="normal" in="SourceGraphic" in2="BackgroundImageFix" result="shape"/>
            <feColorMatrix in="SourceAlpha" type="matrix" values="0 0 0 0 0 0 0 0 0 0 0 0 0 0 0 0 0 0 127 0" result="hardAlpha"/>
            <feOffset dx="-8" dy="-4"/>
            <feComposite in2="hardAlpha" operator="arithmetic" k2="-1" k3="1"/>
            <feColorMatrix type="matrix" values="0 0 0 0 0.0666667 0 0 0 0 0.0196078 0 0 0 0 0.160784 0 0 0 0.16 0"/>
            <feBlend mode="normal" in2="shape" result="effect1_innerShadow_6229_37566"/>
        </filter>
        <filter id="filter19_i_6229_37566" x="94.7373" y="503" width="330.263" height="54" filterUnits="userSpaceOnUse" color-interpolation-filters="sRGB">
            <feFlood flood-opacity="0" result="BackgroundImageFix"/>
            <feBlend mode="normal" in="SourceGraphic" in2="BackgroundImageFix" result="shape"/>
            <feColorMatrix in="SourceAlpha" type="matrix" values="0 0 0 0 0 0 0 0 0 0 0 0 0 0 0 0 0 0 127 0" result="hardAlpha"/>
            <feOffset dx="-8" dy="-4"/>
            <feComposite in2="hardAlpha" operator="arithmetic" k2="-1" k3="1"/>
            <feColorMatrix type="matrix" values="0 0 0 0 0.0666667 0 0 0 0 0.0196078 0 0 0 0 0.160784 0 0 0 0.16 0"/>
            <feBlend mode="normal" in2="shape" result="effect1_innerShadow_6229_37566"/>
        </filter>
        <filter id="filter20_i_6229_37566" x="423" y="503" width="32" height="54" filterUnits="userSpaceOnUse" color-interpolation-filters="sRGB">
            <feFlood flood-opacity="0" result="BackgroundImageFix"/>
            <feBlend mode="normal" in="SourceGraphic" in2="BackgroundImageFix" result="shape"/>
            <feColorMatrix in="SourceAlpha" type="matrix" values="0 0 0 0 0 0 0 0 0 0 0 0 0 0 0 0 0 0 127 0" result="hardAlpha"/>
            <feOffset dx="-8" dy="-4"/>
            <feComposite in2="hardAlpha" operator="arithmetic" k2="-1" k3="1"/>
            <feColorMatrix type="matrix" values="0 0 0 0 0.0666667 0 0 0 0 0.0196078 0 0 0 0 0.160784 0 0 0 0.16 0"/>
            <feBlend mode="normal" in2="shape" result="effect1_innerShadow_6229_37566"/>
        </filter>
        <filter id="filter21_i_6229_37566" x="453" y="503" width="146" height="54" filterUnits="userSpaceOnUse" color-interpolation-filters="sRGB">
            <feFlood flood-opacity="0" result="BackgroundImageFix"/>
            <feBlend mode="normal" in="SourceGraphic" in2="BackgroundImageFix" result="shape"/>
            <feColorMatrix in="SourceAlpha" type="matrix" values="0 0 0 0 0 0 0 0 0 0 0 0 0 0 0 0 0 0 127 0" result="hardAlpha"/>
            <feOffset dx="-8" dy="-4"/>
            <feComposite in2="hardAlpha" operator="arithmetic" k2="-1" k3="1"/>
            <feColorMatrix type="matrix" values="0 0 0 0 0.0666667 0 0 0 0 0.0196078 0 0 0 0 0.160784 0 0 0 0.16 0"/>
            <feBlend mode="normal" in2="shape" result="effect1_innerShadow_6229_37566"/>
        </filter>
        <filter id="filter22_i_6229_37566" x="597" y="503" width="82" height="54" filterUnits="userSpaceOnUse" color-interpolation-filters="sRGB">
            <feFlood flood-opacity="0" result="BackgroundImageFix"/>
            <feBlend mode="normal" in="SourceGraphic" in2="BackgroundImageFix" result="shape"/>
            <feColorMatrix in="SourceAlpha" type="matrix" values="0 0 0 0 0 0 0 0 0 0 0 0 0 0 0 0 0 0 127 0" result="hardAlpha"/>
            <feOffset dx="-8" dy="-4"/>
            <feComposite in2="hardAlpha" operator="arithmetic" k2="-1" k3="1"/>
            <feColorMatrix type="matrix" values="0 0 0 0 0.0666667 0 0 0 0 0.0196078 0 0 0 0 0.160784 0 0 0 0.16 0"/>
            <feBlend mode="normal" in2="shape" result="effect1_innerShadow_6229_37566"/>
        </filter>
        <filter id="filter23_i_6229_37566" x="677" y="503" width="66" height="54" filterUnits="userSpaceOnUse" color-interpolation-filters="sRGB">
            <feFlood flood-opacity="0" result="BackgroundImageFix"/>
            <feBlend mode="normal" in="SourceGraphic" in2="BackgroundImageFix" result="shape"/>
            <feColorMatrix in="SourceAlpha" type="matrix" values="0 0 0 0 0 0 0 0 0 0 0 0 0 0 0 0 0 0 127 0" result="hardAlpha"/>
            <feOffset dx="-8" dy="-4"/>
            <feComposite in2="hardAlpha" operator="arithmetic" k2="-1" k3="1"/>
            <feColorMatrix type="matrix" values="0 0 0 0 0.0666667 0 0 0 0 0.0196078 0 0 0 0 0.160784 0 0 0 0.16 0"/>
            <feBlend mode="normal" in2="shape" result="effect1_innerShadow_6229_37566"/>
        </filter>
    </defs>
</svg>
