<svg width="960" height="252" viewBox="0 0 960 252" fill="none" xmlns="http://www.w3.org/2000/svg">
<rect width="960" height="252" fill="white"/>
<g filter="url(#filter0_i_4721_29928)">
<path d="M415 80H160.6C160.04 80 159.76 80 159.546 80.109C159.358 80.2049 159.205 80.3578 159.109 80.546C159 80.7599 159 81.0399 159 81.6V130.4C159 130.96 159 131.24 159.109 131.454C159.205 131.642 159.358 131.795 159.546 131.891C159.76 132 160.04 132 160.6 132H415L410 125.5L415 119L410 112L415 106L410 99.5L415 93L410 86.5L415 80Z" fill="#99E099"/>
</g>
<path d="M415 80H160.6C160.04 80 159.76 80 159.546 80.109C159.358 80.2049 159.205 80.3578 159.109 80.546C159 80.7599 159 81.0399 159 81.6V130.4C159 130.96 159 131.24 159.109 131.454C159.205 131.642 159.358 131.795 159.546 131.891C159.76 132 160.04 132 160.6 132H415L410 125.5L415 119L410 112L415 106L410 99.5L415 93L410 86.5L415 80Z" stroke="#110529" stroke-width="2" stroke-linecap="round"/>
<path d="M539.453 187.999L540 24" stroke="#D3D7E0" stroke-width="2" stroke-linecap="square" stroke-dasharray="6 6"/>
<path d="M755 188V24" stroke="#D3D7E0" stroke-width="2" stroke-linecap="square" stroke-dasharray="6 6"/>
<g filter="url(#filter1_i_4721_29928)">
<rect x="599" y="80" width="32" height="52" rx="1" fill="#CBEB67"/>
</g>
<rect x="599" y="80" width="32" height="52" rx="1" stroke="#110529" stroke-width="2" stroke-linecap="round"/>
<g filter="url(#filter2_i_4721_29928)">
<rect x="683" y="80" width="32" height="52" rx="1" fill="#FAAAFA"/>
</g>
<rect x="683" y="80" width="32" height="52" rx="1" stroke="#110529" stroke-width="2" stroke-linecap="round"/>
<g filter="url(#filter3_i_4721_29928)">
<rect x="631" y="80" width="52" height="52" rx="1" fill="#FFCB8F"/>
</g>
<rect x="631" y="80" width="52" height="52" rx="1" stroke="#110529" stroke-width="2" stroke-linecap="round"/>
<path d="M610.587 99H608.712V114H610.587V102.271L618.421 114H620.296V99H618.421V110.708L610.587 99Z" fill="#110529"/>
<path d="M694.587 99H692.712V114H694.587V102.271L702.421 114H704.296V99H702.421V110.708L694.587 99Z" fill="#110529"/>
<path d="M662.66 106.542C662.66 108.562 662.056 110.646 660.785 112.021C659.556 113.375 657.764 113.979 655.91 113.979H650.868V98.9792L655.952 99C657.889 99 659.598 99.6458 660.785 100.979C662.139 102.437 662.66 104.458 662.66 106.542ZM660.702 106.542C660.723 104.917 660.348 103.312 659.389 102.208C658.493 101.187 657.306 100.792 655.931 100.771L652.785 100.792V112.187L655.91 112.229C657.285 112.208 658.535 111.75 659.41 110.771C660.348 109.687 660.681 108.062 660.702 106.542Z" fill="#110529"/>
<path d="M132.833 114L129.896 107.979C130.542 107.687 131.104 107.25 131.521 106.708C132.208 105.875 132.625 104.812 132.625 103.729C132.604 102.604 132.167 101.458 131.417 100.625C130.896 100 130.188 99.5208 129.417 99.2708C128.917 99.0833 128.396 99 127.854 99H121.458V114H123.313V108.437H127.854H128.021L130.708 114H132.833ZM123.313 100.771H127.854C128.583 100.771 129.375 101.146 129.896 101.687C130.417 102.229 130.688 102.958 130.708 103.729C130.729 104.396 130.479 105.062 130.063 105.583C129.5 106.271 128.646 106.687 127.854 106.687H123.313V100.771ZM138.165 99L135.332 100.687V102.75L138.165 101.042V114H140.04V99H138.165Z" fill="#110529"/>
<path d="M783.833 114L780.896 107.979C781.542 107.687 782.104 107.25 782.521 106.708C783.208 105.875 783.625 104.812 783.625 103.729C783.604 102.604 783.167 101.458 782.417 100.625C781.896 100 781.188 99.5208 780.417 99.2708C779.917 99.0833 779.396 99 778.854 99H772.458V114H774.313V108.437H778.854H779.021L781.708 114H783.833ZM774.313 100.771H778.854C779.583 100.771 780.375 101.146 780.896 101.687C781.417 102.229 781.688 102.958 781.708 103.729C781.729 104.396 781.479 105.062 781.063 105.583C780.5 106.271 779.646 106.687 778.854 106.687H774.313V100.771ZM786.228 103.521H788.124C788.124 102.604 788.54 101.75 789.207 101.167C789.728 100.729 790.415 100.458 791.165 100.458C791.978 100.458 792.728 100.75 793.27 101.292C793.874 101.854 794.228 102.667 794.228 103.521C794.228 104.479 793.936 105.354 792.832 106.333L786.145 112.208L786.124 113.979H795.915V112.208H789.04L793.853 107.917C795.374 106.562 796.124 105.458 796.124 103.542C796.124 102.229 795.603 100.958 794.686 100.083C793.811 99.1458 792.582 98.6875 791.249 98.6875C790.04 98.6875 788.832 99.0208 787.915 99.8125C786.874 100.708 786.207 102.062 786.228 103.521Z" fill="#110529"/>
<g filter="url(#filter4_i_4721_29928)">
<path d="M736 80L753.4 80C753.96 80 754.24 80 754.454 80.109C754.642 80.2049 754.795 80.3578 754.891 80.546C755 80.7599 755 81.0399 755 81.6V130.4C755 130.96 755 131.24 754.891 131.454C754.795 131.642 754.642 131.795 754.454 131.891C754.24 132 753.96 132 753.4 132H736L731 125.5L736 119L731 112L736 106L731 99.5L736 93L731 86.5L736 80Z" fill="#C1ADFF" fill-opacity="0.6"/>
</g>
<path d="M736 80L753.4 80C753.96 80 754.24 80 754.454 80.109C754.642 80.2049 754.795 80.3578 754.891 80.546C755 80.7599 755 81.0399 755 81.6V130.4C755 130.96 755 131.24 754.891 131.454C754.795 131.642 754.642 131.795 754.454 131.891C754.24 132 753.96 132 753.4 132H736L731 125.5L736 119L731 112L736 106L731 99.5L736 93L731 86.5L736 80Z" stroke="#110529" stroke-width="2" stroke-linecap="round"/>
<g filter="url(#filter5_i_4721_29928)">
<path d="M731 80H716.6C716.04 80 715.76 80 715.546 80.109C715.358 80.2049 715.205 80.3578 715.109 80.546C715 80.7599 715 81.0399 715 81.6V130.4C715 130.96 715 131.24 715.109 131.454C715.205 131.642 715.358 131.795 715.546 131.891C715.76 132 716.04 132 716.6 132H731L726 125.5L731 119L726 112L731 106L726 99.5L731 93L726 86.5L731 80Z" fill="#C1ADFF"/>
</g>
<path d="M731 80H716.6C716.04 80 715.76 80 715.546 80.109C715.358 80.2049 715.205 80.3578 715.109 80.546C715 80.7599 715 81.0399 715 81.6V130.4C715 130.96 715 131.24 715.109 131.454C715.205 131.642 715.358 131.795 715.546 131.891C715.76 132 716.04 132 716.6 132H731L726 125.5L731 119L726 112L731 106L726 99.5L731 93L726 86.5L731 80Z" stroke="#110529" stroke-width="2" stroke-linecap="round"/>
<path d="M543.209 114H545.792L550.813 99H548.896L544.48 112.021L540.126 99H538.188L543.209 114Z" fill="#110529"/>
<g filter="url(#filter6_i_4721_29928)">
<path d="M484 80H597.4C597.96 80 598.24 80 598.454 80.109C598.642 80.2049 598.795 80.3578 598.891 80.546C599 80.7599 599 81.0399 599 81.6V130.4C599 130.96 599 131.24 598.891 131.454C598.795 131.642 598.642 131.795 598.454 131.891C598.24 132 597.96 132 597.4 132H484L479 125.5L484 119L479 112L484 106L479 99.5L484 93L479 86.5L484 80Z" fill="#99E099"/>
</g>
<path d="M484 80H597.4C597.96 80 598.24 80 598.454 80.109C598.642 80.2049 598.795 80.3578 598.891 80.546C599 80.7599 599 81.0399 599 81.6V130.4C599 130.96 599 131.24 598.891 131.454C598.795 131.642 598.642 131.795 598.454 131.891C598.24 132 597.96 132 597.4 132H484L479 125.5L484 119L479 112L484 106L479 99.5L484 93L479 86.5L484 80Z" stroke="#110529" stroke-width="2" stroke-linecap="round"/>
<path d="M538.209 114H540.792L545.813 99H543.896L539.48 112.021L535.126 99H533.188L538.209 114Z" fill="#110529"/>
<path d="M635.39 36.0167C635.257 36.5167 635.023 37 634.723 37.4167C634.023 38.3667 632.84 38.85 631.64 38.8333C630.44 38.8333 629.257 38.3667 628.557 37.4167C627.84 36.4667 627.623 35.2167 627.607 34C627.623 32.7667 627.84 31.5167 628.557 30.5833C629.257 29.6333 630.44 29.15 631.64 29.1667C632.84 29.1667 634.023 29.6333 634.723 30.5833C635.073 31.0333 635.29 31.5667 635.44 32.1167L636.973 31.8667C636.773 31.1 636.44 30.35 635.907 29.6667C634.907 28.3833 633.323 27.75 631.64 27.75C629.94 27.75 628.373 28.3667 627.373 29.6667C626.39 30.9 626.04 32.4167 626.023 34C626.007 35.5333 626.39 37.0833 627.373 38.3167C628.373 39.5833 629.923 40.25 631.64 40.25C633.307 40.25 634.873 39.6333 635.907 38.3167C636.357 37.75 636.673 37.1 636.873 36.45L635.39 36.0167ZM648.327 34.0333C648.327 35.65 647.843 37.3167 646.827 38.4167C645.843 39.5 644.41 39.9833 642.927 39.9833H638.893V27.9833L642.96 28C644.51 28 645.877 28.5167 646.827 29.5833C647.91 30.75 648.327 32.3667 648.327 34.0333ZM646.76 34.0333C646.777 32.7333 646.477 31.45 645.71 30.5667C644.993 29.75 644.043 29.4333 642.943 29.4167L640.427 29.4333V38.55L642.927 38.5833C644.027 38.5667 645.027 38.2 645.727 37.4167C646.477 36.55 646.743 35.25 646.76 34.0333ZM659.337 40L656.987 35.1833C657.504 34.95 657.954 34.6 658.287 34.1667C658.837 33.5 659.17 32.65 659.17 31.7833C659.154 30.8833 658.804 29.9667 658.204 29.3C657.787 28.8 657.22 28.4167 656.604 28.2167C656.204 28.0667 655.787 28 655.354 28H650.237V40H651.72V35.55H655.354H655.487L657.637 40H659.337ZM651.72 29.4167H655.354C655.937 29.4167 656.57 29.7167 656.987 30.15C657.404 30.5833 657.62 31.1667 657.637 31.7833C657.654 32.3167 657.454 32.85 657.12 33.2667C656.67 33.8167 655.987 34.15 655.354 34.15H651.72V29.4167ZM667.753 33.6167C667.119 32.9667 666.269 32.6 665.303 32.5333L668.553 29.4667V28H661.486V29.4167H666.536L662.819 32.9333L663.536 34.1167C663.903 33.9167 664.369 33.8 664.769 33.8C665.386 33.8 665.969 33.9833 666.419 34.3833C666.953 34.8667 667.186 35.5833 667.186 36.3C667.186 37.05 666.953 37.7833 666.353 38.2667C665.936 38.6167 665.369 38.8 664.786 38.8167C664.219 38.8167 663.653 38.6333 663.219 38.2833C662.836 38 662.586 37.5833 662.436 37.1167L661.003 37.5333C661.219 38.2333 661.653 38.9 662.236 39.3667C662.969 39.95 663.886 40.25 664.803 40.2333C665.703 40.2167 666.636 39.95 667.353 39.35C668.236 38.6333 668.686 37.5 668.719 36.3C668.736 35.3167 668.419 34.3167 667.753 33.6167Z" fill="#D3D7E0"/>
<path d="M744 145L744.707 144.293L744 143.586L743.293 144.293L744 145ZM735.293 152.293L734.586 153L736 154.414L736.707 153.707L735.293 152.293ZM751.293 153.707L752 154.414L753.414 153L752.707 152.293L751.293 153.707ZM745 176V145H743V176H745ZM743.293 144.293L735.293 152.293L736.707 153.707L744.707 145.707L743.293 144.293ZM743.293 145.707L751.293 153.707L752.707 152.293L744.707 144.293L743.293 145.707Z" fill="#110529"/>
<path d="M698.545 195H707.441C707.545 193.187 707.191 191.542 706.17 190.271C705.17 189.042 703.67 188.437 702.045 188.437C700.42 188.437 698.92 189.042 697.92 190.271C697.003 191.417 696.628 192.917 696.628 194.437C696.628 195.854 697.003 197.292 697.92 198.458C698.899 199.667 700.503 200.312 702.128 200.312C704.274 200.312 706.003 199.354 707.024 197.583L705.628 196.667C704.774 198.021 703.607 198.646 702.045 198.646C700.982 198.646 699.941 198.229 699.337 197.396C698.837 196.729 698.607 195.896 698.545 195ZM702.045 190.083C703.128 190.083 704.149 190.5 704.753 191.333C705.149 191.854 705.399 192.542 705.503 193.312H698.587C698.691 192.583 698.92 191.875 699.337 191.333C699.941 190.5 700.982 190.083 702.045 190.083ZM719.156 188.75H717.01L713.947 192.812L710.864 188.75H708.718L712.864 194.312L708.614 200H710.781L713.947 195.792L717.093 200H719.26L715.01 194.312L719.156 188.75ZM724.036 190.271H727.432V188.75H724.036V185.625H722.182V188.75H719.89V190.271H722.182V195.75C722.182 196.854 722.202 197.75 722.598 198.562C723.015 199.396 723.786 199.875 724.786 200.083C725.536 200.25 726.64 200.208 727.432 200V198.354C726.848 198.458 726.161 198.479 725.577 198.437C725.036 198.375 724.515 198.083 724.286 197.604C724.015 197.146 724.036 196.562 724.036 195.646V190.271ZM731.006 195H739.902C740.006 193.187 739.652 191.542 738.631 190.271C737.631 189.042 736.131 188.437 734.506 188.437C732.881 188.437 731.381 189.042 730.381 190.271C729.464 191.417 729.089 192.917 729.089 194.437C729.089 195.854 729.464 197.292 730.381 198.458C731.36 199.667 732.964 200.312 734.589 200.312C736.735 200.312 738.464 199.354 739.485 197.583L738.089 196.667C737.235 198.021 736.068 198.646 734.506 198.646C733.443 198.646 732.402 198.229 731.798 197.396C731.298 196.729 731.068 195.896 731.006 195ZM734.506 190.083C735.589 190.083 736.61 190.5 737.214 191.333C737.61 191.854 737.86 192.542 737.964 193.312H731.048C731.152 192.583 731.381 191.875 731.798 191.333C732.402 190.5 733.443 190.083 734.506 190.083ZM750.193 189.437C749.214 188.604 748.006 188.396 746.86 188.479C745.839 188.521 744.756 188.896 744.027 189.688C743.86 189.875 743.693 190.042 743.568 190.229V188.75H741.923V200H743.777V195.083V195.062C743.777 194.208 743.777 193.354 743.923 192.687C744.048 191.958 744.381 191.312 744.902 190.875C745.381 190.458 746.006 190.25 746.673 190.208C747.485 190.187 748.214 190.396 748.756 190.833C749.756 191.625 749.923 193 749.923 194.604V200H751.798V194.542C751.818 192.604 751.652 190.625 750.193 189.437ZM762.562 185V189.812C761.666 188.937 760.374 188.437 759.02 188.437C757.499 188.437 756.062 189.062 755.145 190.229C754.249 191.375 753.895 192.875 753.895 194.354C753.895 195.833 754.208 197.312 755.145 198.5C756.083 199.667 757.499 200.312 759.041 200.312C760.541 200.312 761.874 199.771 762.77 198.687V200H764.416V185H762.562ZM761.874 197.458C761.27 198.229 760.312 198.604 759.27 198.604C758.249 198.604 757.229 198.208 756.624 197.354C756.062 196.583 755.854 195.479 755.854 194.354C755.854 193.229 756.083 192.146 756.645 191.375C757.249 190.521 758.229 190.125 759.312 190.125C760.333 190.125 761.291 190.5 761.874 191.271C762.52 192.062 762.77 193.208 762.77 194.354C762.77 195.521 762.52 196.687 761.874 197.458ZM768.623 195H777.519C777.623 193.187 777.269 191.542 776.248 190.271C775.248 189.042 773.748 188.437 772.123 188.437C770.498 188.437 768.998 189.042 767.998 190.271C767.081 191.417 766.706 192.917 766.706 194.437C766.706 195.854 767.081 197.292 767.998 198.458C768.977 199.667 770.581 200.312 772.206 200.312C774.352 200.312 776.081 199.354 777.102 197.583L775.706 196.667C774.852 198.021 773.686 198.646 772.123 198.646C771.061 198.646 770.019 198.229 769.415 197.396C768.915 196.729 768.686 195.896 768.623 195ZM772.123 190.083C773.206 190.083 774.227 190.5 774.831 191.333C775.227 191.854 775.477 192.542 775.581 193.312H768.665C768.769 192.583 768.998 191.875 769.415 191.333C770.019 190.5 771.061 190.083 772.123 190.083ZM787.894 185V189.812C786.998 188.937 785.706 188.437 784.352 188.437C782.831 188.437 781.394 189.062 780.477 190.229C779.581 191.375 779.227 192.875 779.227 194.354C779.227 195.833 779.54 197.312 780.477 198.5C781.415 199.667 782.831 200.312 784.373 200.312C785.873 200.312 787.206 199.771 788.102 198.687V200H789.748V185H787.894ZM787.206 197.458C786.602 198.229 785.644 198.604 784.602 198.604C783.581 198.604 782.561 198.208 781.956 197.354C781.394 196.583 781.186 195.479 781.186 194.354C781.186 193.229 781.415 192.146 781.977 191.375C782.581 190.521 783.561 190.125 784.644 190.125C785.665 190.125 786.623 190.5 787.206 191.271C787.852 192.062 788.102 193.208 788.102 194.354C788.102 195.521 787.852 196.687 787.206 197.458ZM698.449 209V219.292C698.449 220.604 698.449 221.312 697.887 222.312C697.116 223.604 695.928 224.312 694.303 224.312C693.533 224.312 692.783 224.146 692.137 223.729C691.178 223.187 690.491 222.208 690.199 221.146L692.053 220.708C692.158 221.292 692.533 221.812 693.033 222.146C693.387 222.396 693.845 222.542 694.283 222.542C695.074 222.542 695.908 222.125 696.262 221.354C696.533 220.792 696.533 220.375 696.533 219.292V209H698.449ZM710.711 210.375C711.253 210.271 711.857 210.271 712.44 210.354V208.729C710.94 208.583 709.523 208.667 708.461 209.583C707.648 210.333 707.419 211.417 707.419 212.312V212.75H704.919V214.271H707.419V224H709.273V214.271H712.44V212.75H709.273V212.187C709.273 211.187 709.628 210.583 710.711 210.375ZM719.245 212.437C718.37 212.458 717.474 212.729 716.766 213.292C716.328 213.625 716.016 213.979 715.766 214.396V212.75H714.099V224H715.974V218.479C715.974 217.042 716.036 215.896 716.974 215.021C717.474 214.521 718.224 214.208 719.099 214.187C719.745 214.146 720.349 214.25 720.849 214.437V212.687C720.328 212.5 719.786 212.417 719.245 212.437ZM731.323 224V217.125C731.323 215.771 730.99 214.417 729.948 213.542C729.198 212.875 728.052 212.437 726.906 212.437C725.052 212.437 723.552 213 722.385 214.333L723.552 215.583C724.469 214.5 725.552 214.208 726.719 214.208C728.281 214.208 729.385 214.979 729.448 216.542C727.281 216.875 725.052 217.062 723.656 217.75C722.26 218.458 721.677 219.458 721.677 220.896C721.677 222.979 723.198 224.312 725.385 224.312C727.26 224.312 728.635 223.771 729.677 222.292V224H731.323ZM729.031 220.937C728.406 222.062 727.219 222.687 725.74 222.687C724.469 222.687 723.531 221.917 723.531 220.729C723.531 219.646 724.573 218.979 725.844 218.708C726.635 218.521 727.906 218.312 729.469 218.062C729.469 219.292 729.469 220.146 729.031 220.937ZM742.29 212.75V214.021C741.374 213 739.999 212.437 738.561 212.437C737.02 212.437 735.582 213.062 734.665 214.229C733.77 215.375 733.415 216.875 733.415 218.354C733.415 219.833 733.728 221.312 734.665 222.5C735.603 223.667 737.04 224.312 738.561 224.312C739.957 224.312 741.207 223.854 742.082 222.937V224.063C742.082 225.438 741.915 226.125 741.145 226.771C740.52 227.292 739.603 227.521 738.707 227.521C737.895 227.521 736.978 227.229 736.436 226.604C736.249 226.417 736.082 226.229 735.957 226.021L734.249 226.854C734.54 227.375 735.04 227.833 735.52 228.125C736.332 228.896 737.54 229.312 738.707 229.312C739.832 229.312 741.061 229.104 742.165 228.313C743.478 227.396 743.936 226.208 743.936 224.083V212.75H742.29ZM741.415 221.458C740.79 222.229 739.832 222.604 738.79 222.604C737.77 222.604 736.77 222.208 736.165 221.354C735.582 220.583 735.395 219.479 735.395 218.354C735.395 217.229 735.603 216.146 736.186 215.375C736.79 214.521 737.749 214.125 738.853 214.125C739.874 214.125 740.811 214.5 741.415 215.271C742.04 216.062 742.29 217.208 742.29 218.354C742.29 219.521 742.04 220.687 741.415 221.458ZM760.957 213.333C760.27 212.708 759.27 212.458 758.395 212.458C757.082 212.458 755.832 213.083 755.103 214.167C755.061 214.208 755.04 214.271 755.02 214.312C754.832 213.979 754.582 213.646 754.228 213.333C753.54 212.708 752.54 212.458 751.665 212.458C750.436 212.458 749.27 213 748.52 213.958V212.75H746.853V224H748.728V216.854C748.728 216.167 748.811 215.583 749.29 214.979C749.749 214.417 750.457 214.104 751.186 214.104C751.77 214.104 752.353 214.333 752.77 214.729C753.52 215.375 753.603 216.062 753.603 217.187L753.582 224H755.436L755.457 217.083V216.854C755.457 216.167 755.54 215.583 756.02 214.979C756.478 214.417 757.186 214.104 757.915 214.104C758.499 214.104 759.082 214.333 759.499 214.729C760.249 215.375 760.332 216.062 760.332 217.187L760.311 224H762.165L762.186 217.083C762.186 215.5 762.124 214.375 760.957 213.333ZM766.191 219H775.087C775.191 217.187 774.837 215.542 773.816 214.271C772.816 213.042 771.316 212.437 769.691 212.437C768.066 212.437 766.566 213.042 765.566 214.271C764.65 215.417 764.275 216.917 764.275 218.437C764.275 219.854 764.65 221.292 765.566 222.458C766.546 223.667 768.15 224.312 769.775 224.312C771.921 224.312 773.65 223.354 774.671 221.583L773.275 220.667C772.421 222.021 771.254 222.646 769.691 222.646C768.629 222.646 767.587 222.229 766.983 221.396C766.483 220.729 766.254 219.896 766.191 219ZM769.691 214.083C770.775 214.083 771.796 214.5 772.4 215.333C772.796 215.854 773.046 216.542 773.15 217.312H766.233C766.337 216.583 766.566 215.875 766.983 215.333C767.587 214.5 768.629 214.083 769.691 214.083ZM785.379 213.437C784.4 212.604 783.191 212.396 782.046 212.479C781.025 212.521 779.941 212.896 779.212 213.688C779.046 213.875 778.879 214.042 778.754 214.229V212.75H777.108V224H778.962V219.083V219.062C778.962 218.208 778.962 217.354 779.108 216.687C779.233 215.958 779.566 215.312 780.087 214.875C780.566 214.458 781.191 214.25 781.858 214.208C782.671 214.187 783.4 214.396 783.941 214.833C784.941 215.625 785.108 217 785.108 218.604V224H786.983V218.542C787.004 216.604 786.837 214.625 785.379 213.437ZM792.581 214.271H795.977V212.75H792.581V209.625H790.727V212.75H788.435V214.271H790.727V219.75C790.727 220.854 790.747 221.75 791.143 222.562C791.56 223.396 792.331 223.875 793.331 224.083C794.081 224.25 795.185 224.208 795.977 224V222.354C795.393 222.458 794.706 222.479 794.122 222.437C793.581 222.375 793.06 222.083 792.831 221.604C792.56 221.146 792.581 220.562 792.581 219.646V214.271Z" fill="#110529"/>
<defs>
<filter id="filter0_i_4721_29928" x="158" y="79" width="259.031" height="54" filterUnits="userSpaceOnUse" color-interpolation-filters="sRGB">
<feFlood flood-opacity="0" result="BackgroundImageFix"/>
<feBlend mode="normal" in="SourceGraphic" in2="BackgroundImageFix" result="shape"/>
<feColorMatrix in="SourceAlpha" type="matrix" values="0 0 0 0 0 0 0 0 0 0 0 0 0 0 0 0 0 0 127 0" result="hardAlpha"/>
<feOffset dx="-8" dy="-4"/>
<feComposite in2="hardAlpha" operator="arithmetic" k2="-1" k3="1"/>
<feColorMatrix type="matrix" values="0 0 0 0 0.0666667 0 0 0 0 0.0196078 0 0 0 0 0.160784 0 0 0 0.16 0"/>
<feBlend mode="normal" in2="shape" result="effect1_innerShadow_4721_29928"/>
</filter>
<filter id="filter1_i_4721_29928" x="598" y="79" width="34" height="54" filterUnits="userSpaceOnUse" color-interpolation-filters="sRGB">
<feFlood flood-opacity="0" result="BackgroundImageFix"/>
<feBlend mode="normal" in="SourceGraphic" in2="BackgroundImageFix" result="shape"/>
<feColorMatrix in="SourceAlpha" type="matrix" values="0 0 0 0 0 0 0 0 0 0 0 0 0 0 0 0 0 0 127 0" result="hardAlpha"/>
<feOffset dx="-8" dy="-4"/>
<feComposite in2="hardAlpha" operator="arithmetic" k2="-1" k3="1"/>
<feColorMatrix type="matrix" values="0 0 0 0 0.0666667 0 0 0 0 0.0196078 0 0 0 0 0.160784 0 0 0 0.16 0"/>
<feBlend mode="normal" in2="shape" result="effect1_innerShadow_4721_29928"/>
</filter>
<filter id="filter2_i_4721_29928" x="682" y="79" width="34" height="54" filterUnits="userSpaceOnUse" color-interpolation-filters="sRGB">
<feFlood flood-opacity="0" result="BackgroundImageFix"/>
<feBlend mode="normal" in="SourceGraphic" in2="BackgroundImageFix" result="shape"/>
<feColorMatrix in="SourceAlpha" type="matrix" values="0 0 0 0 0 0 0 0 0 0 0 0 0 0 0 0 0 0 127 0" result="hardAlpha"/>
<feOffset dx="-8" dy="-4"/>
<feComposite in2="hardAlpha" operator="arithmetic" k2="-1" k3="1"/>
<feColorMatrix type="matrix" values="0 0 0 0 0.0666667 0 0 0 0 0.0196078 0 0 0 0 0.160784 0 0 0 0.16 0"/>
<feBlend mode="normal" in2="shape" result="effect1_innerShadow_4721_29928"/>
</filter>
<filter id="filter3_i_4721_29928" x="630" y="79" width="54" height="54" filterUnits="userSpaceOnUse" color-interpolation-filters="sRGB">
<feFlood flood-opacity="0" result="BackgroundImageFix"/>
<feBlend mode="normal" in="SourceGraphic" in2="BackgroundImageFix" result="shape"/>
<feColorMatrix in="SourceAlpha" type="matrix" values="0 0 0 0 0 0 0 0 0 0 0 0 0 0 0 0 0 0 127 0" result="hardAlpha"/>
<feOffset dx="-8" dy="-4"/>
<feComposite in2="hardAlpha" operator="arithmetic" k2="-1" k3="1"/>
<feColorMatrix type="matrix" values="0 0 0 0 0.0666667 0 0 0 0 0.0196078 0 0 0 0 0.160784 0 0 0 0.16 0"/>
<feBlend mode="normal" in2="shape" result="effect1_innerShadow_4721_29928"/>
</filter>
<filter id="filter4_i_4721_29928" x="729.737" y="79" width="26.2627" height="54" filterUnits="userSpaceOnUse" color-interpolation-filters="sRGB">
<feFlood flood-opacity="0" result="BackgroundImageFix"/>
<feBlend mode="normal" in="SourceGraphic" in2="BackgroundImageFix" result="shape"/>
<feColorMatrix in="SourceAlpha" type="matrix" values="0 0 0 0 0 0 0 0 0 0 0 0 0 0 0 0 0 0 127 0" result="hardAlpha"/>
<feOffset dx="-8" dy="-4"/>
<feComposite in2="hardAlpha" operator="arithmetic" k2="-1" k3="1"/>
<feColorMatrix type="matrix" values="0 0 0 0 0.0666667 0 0 0 0 0.0196078 0 0 0 0 0.160784 0 0 0 0.16 0"/>
<feBlend mode="normal" in2="shape" result="effect1_innerShadow_4721_29928"/>
</filter>
<filter id="filter5_i_4721_29928" x="714" y="79" width="19.0308" height="54" filterUnits="userSpaceOnUse" color-interpolation-filters="sRGB">
<feFlood flood-opacity="0" result="BackgroundImageFix"/>
<feBlend mode="normal" in="SourceGraphic" in2="BackgroundImageFix" result="shape"/>
<feColorMatrix in="SourceAlpha" type="matrix" values="0 0 0 0 0 0 0 0 0 0 0 0 0 0 0 0 0 0 127 0" result="hardAlpha"/>
<feOffset dx="-8" dy="-4"/>
<feComposite in2="hardAlpha" operator="arithmetic" k2="-1" k3="1"/>
<feColorMatrix type="matrix" values="0 0 0 0 0.0666667 0 0 0 0 0.0196078 0 0 0 0 0.160784 0 0 0 0.16 0"/>
<feBlend mode="normal" in2="shape" result="effect1_innerShadow_4721_29928"/>
</filter>
<filter id="filter6_i_4721_29928" x="477.737" y="79" width="122.263" height="54" filterUnits="userSpaceOnUse" color-interpolation-filters="sRGB">
<feFlood flood-opacity="0" result="BackgroundImageFix"/>
<feBlend mode="normal" in="SourceGraphic" in2="BackgroundImageFix" result="shape"/>
<feColorMatrix in="SourceAlpha" type="matrix" values="0 0 0 0 0 0 0 0 0 0 0 0 0 0 0 0 0 0 127 0" result="hardAlpha"/>
<feOffset dx="-8" dy="-4"/>
<feComposite in2="hardAlpha" operator="arithmetic" k2="-1" k3="1"/>
<feColorMatrix type="matrix" values="0 0 0 0 0.0666667 0 0 0 0 0.0196078 0 0 0 0 0.160784 0 0 0 0.16 0"/>
<feBlend mode="normal" in2="shape" result="effect1_innerShadow_4721_29928"/>
</filter>
</defs>
</svg>
