<svg width="960" height="404" viewBox="0 0 960 404" fill="none" xmlns="http://www.w3.org/2000/svg">
    <rect width="960" height="404" fill="#1D1D29"/>
    <path d="M546 112V24" stroke="white" stroke-opacity="0.3" stroke-width="2" stroke-linecap="square" stroke-dasharray="6 6"/>
    <path d="M472.805 37V26.92H478.776V28.383H474.268V31.225H477.936V32.695H474.268V37H472.805ZM480.038 37V26.92H484.112C484.21 26.92 484.331 26.9247 484.476 26.934C484.62 26.9387 484.758 26.9527 484.889 26.976C485.449 27.0647 485.915 27.256 486.289 27.55C486.667 27.844 486.949 28.215 487.136 28.663C487.322 29.111 487.416 29.6057 487.416 30.147C487.416 30.9497 487.21 31.6427 486.8 32.226C486.389 32.8047 485.773 33.1663 484.952 33.311L484.357 33.381H481.501V37H480.038ZM485.932 37L483.944 32.898L485.421 32.52L487.605 37H485.932ZM481.501 31.995H484.056C484.149 31.995 484.252 31.9903 484.364 31.981C484.48 31.9717 484.59 31.9553 484.693 31.932C484.991 31.862 485.232 31.7337 485.414 31.547C485.596 31.3557 485.726 31.1363 485.806 30.889C485.885 30.6417 485.925 30.3943 485.925 30.147C485.925 29.8997 485.885 29.6547 485.806 29.412C485.726 29.1647 485.596 28.9477 485.414 28.761C485.232 28.5697 484.991 28.439 484.693 28.369C484.59 28.341 484.48 28.3223 484.364 28.313C484.252 28.3037 484.149 28.299 484.056 28.299H481.501V31.995ZM491.964 37.189C491.465 37.189 490.996 37.0957 490.557 36.909C490.118 36.7177 489.738 36.447 489.416 36.097C489.099 35.747 488.868 35.334 488.723 34.858L490.137 34.466C490.272 34.9 490.508 35.2337 490.844 35.467C491.18 35.6957 491.553 35.8077 491.964 35.803C492.333 35.7983 492.657 35.712 492.937 35.544C493.217 35.376 493.436 35.1497 493.595 34.865C493.754 34.5757 493.833 34.2443 493.833 33.871C493.833 33.311 493.658 32.849 493.308 32.485C492.963 32.121 492.51 31.939 491.95 31.939C491.791 31.939 491.628 31.9623 491.46 32.009C491.297 32.0557 491.143 32.1163 490.998 32.191L490.312 31.036L493.868 27.893L494.022 28.313H489.122V26.92H495.184V28.313L492.23 31.155L492.216 30.679C492.851 30.679 493.401 30.8213 493.868 31.106C494.335 31.386 494.694 31.7687 494.946 32.254C495.203 32.7347 495.331 33.2737 495.331 33.871C495.331 34.515 495.179 35.0867 494.876 35.586C494.577 36.0853 494.174 36.4773 493.665 36.762C493.161 37.0467 492.594 37.189 491.964 37.189Z" fill="white" fill-opacity="0.3"/>
    <path d="M596.682 37.21C595.674 37.21 594.815 36.9907 594.106 36.552C593.397 36.1087 592.853 35.4927 592.475 34.704C592.102 33.9153 591.915 33.0007 591.915 31.96C591.915 30.9193 592.102 30.0047 592.475 29.216C592.853 28.4273 593.397 27.8137 594.106 27.375C594.815 26.9317 595.674 26.71 596.682 26.71C597.844 26.71 598.805 27.004 599.566 27.592C600.331 28.18 600.863 28.971 601.162 29.965L599.678 30.364C599.482 29.6593 599.132 29.1063 598.628 28.705C598.129 28.3037 597.48 28.103 596.682 28.103C595.968 28.103 595.373 28.264 594.897 28.586C594.421 28.908 594.062 29.3583 593.819 29.937C593.581 30.5157 593.462 31.19 593.462 31.96C593.457 32.73 593.574 33.4043 593.812 33.983C594.055 34.5617 594.414 35.012 594.89 35.334C595.371 35.656 595.968 35.817 596.682 35.817C597.48 35.817 598.129 35.6163 598.628 35.215C599.132 34.809 599.482 34.256 599.678 33.556L601.162 33.955C600.863 34.949 600.331 35.74 599.566 36.328C598.805 36.916 597.844 37.21 596.682 37.21ZM602.702 37V26.92H605.859C605.952 26.92 606.125 26.9223 606.377 26.927C606.633 26.9317 606.878 26.9503 607.112 26.983C607.9 27.081 608.563 27.3633 609.1 27.83C609.641 28.2967 610.049 28.8893 610.325 29.608C610.6 30.322 610.738 31.106 610.738 31.96C610.738 32.8187 610.6 33.6073 610.325 34.326C610.049 35.04 609.641 35.6303 609.1 36.097C608.563 36.559 607.9 36.839 607.112 36.937C606.878 36.9697 606.633 36.9883 606.377 36.993C606.125 36.9977 605.952 37 605.859 37H602.702ZM604.2 35.607H605.859C606.017 35.607 606.206 35.6023 606.426 35.593C606.645 35.5837 606.839 35.565 607.007 35.537C607.52 35.439 607.935 35.2173 608.253 34.872C608.575 34.522 608.81 34.0927 608.96 33.584C609.109 33.0753 609.184 32.534 609.184 31.96C609.184 31.3673 609.107 30.819 608.953 30.315C608.799 29.8063 608.561 29.3817 608.239 29.041C607.921 28.6957 607.511 28.4763 607.007 28.383C606.839 28.3503 606.643 28.3317 606.419 28.327C606.199 28.3177 606.013 28.313 605.859 28.313H604.2V35.607ZM612.368 37V26.92H616.442C616.54 26.92 616.661 26.9247 616.806 26.934C616.95 26.9387 617.088 26.9527 617.219 26.976C617.779 27.0647 618.245 27.256 618.619 27.55C618.997 27.844 619.279 28.215 619.466 28.663C619.652 29.111 619.746 29.6057 619.746 30.147C619.746 30.9497 619.54 31.6427 619.13 32.226C618.719 32.8047 618.103 33.1663 617.282 33.311L616.687 33.381H613.831V37H612.368ZM618.262 37L616.274 32.898L617.751 32.52L619.935 37H618.262ZM613.831 31.995H616.386C616.479 31.995 616.582 31.9903 616.694 31.981C616.81 31.9717 616.92 31.9553 617.023 31.932C617.321 31.862 617.562 31.7337 617.744 31.547C617.926 31.3557 618.056 31.1363 618.136 30.889C618.215 30.6417 618.255 30.3943 618.255 30.147C618.255 29.8997 618.215 29.6547 618.136 29.412C618.056 29.1647 617.926 28.9477 617.744 28.761C617.562 28.5697 617.321 28.439 617.023 28.369C616.92 28.341 616.81 28.3223 616.694 28.313C616.582 28.3037 616.479 28.299 616.386 28.299H613.831V31.995ZM624.294 37.189C623.795 37.189 623.326 37.0957 622.887 36.909C622.448 36.7177 622.068 36.447 621.746 36.097C621.429 35.747 621.198 35.334 621.053 34.858L622.467 34.466C622.602 34.9 622.838 35.2337 623.174 35.467C623.51 35.6957 623.883 35.8077 624.294 35.803C624.663 35.7983 624.987 35.712 625.267 35.544C625.547 35.376 625.766 35.1497 625.925 34.865C626.084 34.5757 626.163 34.2443 626.163 33.871C626.163 33.311 625.988 32.849 625.638 32.485C625.293 32.121 624.84 31.939 624.28 31.939C624.121 31.939 623.958 31.9623 623.79 32.009C623.627 32.0557 623.473 32.1163 623.328 32.191L622.642 31.036L626.198 27.893L626.352 28.313H621.452V26.92H627.514V28.313L624.56 31.155L624.546 30.679C625.181 30.679 625.731 30.8213 626.198 31.106C626.665 31.386 627.024 31.7687 627.276 32.254C627.533 32.7347 627.661 33.2737 627.661 33.871C627.661 34.515 627.509 35.0867 627.206 35.586C626.907 36.0853 626.504 36.4773 625.995 36.762C625.491 37.0467 624.924 37.189 624.294 37.189Z" fill="white" fill-opacity="0.3"/>
    <path d="M674 112V24" stroke="white" stroke-opacity="0.3" stroke-width="2" stroke-linecap="square" stroke-dasharray="6 6"/>
    <path d="M726.593 37V26.92H732.564V28.383H728.056V31.225H731.724V32.695H728.056V37H726.593ZM733.826 37V26.92H737.9C737.998 26.92 738.119 26.9247 738.264 26.934C738.408 26.9387 738.546 26.9527 738.677 26.976C739.237 27.0647 739.703 27.256 740.077 27.55C740.455 27.844 740.737 28.215 740.924 28.663C741.11 29.111 741.204 29.6057 741.204 30.147C741.204 30.9497 740.998 31.6427 740.588 32.226C740.177 32.8047 739.561 33.1663 738.74 33.311L738.145 33.381H735.289V37H733.826ZM739.72 37L737.732 32.898L739.209 32.52L741.393 37H739.72ZM735.289 31.995H737.844C737.937 31.995 738.04 31.9903 738.152 31.981C738.268 31.9717 738.378 31.9553 738.481 31.932C738.779 31.862 739.02 31.7337 739.202 31.547C739.384 31.3557 739.514 31.1363 739.594 30.889C739.673 30.6417 739.713 30.3943 739.713 30.147C739.713 29.8997 739.673 29.6547 739.594 29.412C739.514 29.1647 739.384 28.9477 739.202 28.761C739.02 28.5697 738.779 28.439 738.481 28.369C738.378 28.341 738.268 28.3223 738.152 28.313C738.04 28.3037 737.937 28.299 737.844 28.299H735.289V31.995ZM747.201 37V35.243H742.651V33.857L745.927 26.92H747.6L744.324 33.857H747.201V31.127H748.685V33.857H749.686V35.243H748.685V37H747.201Z" fill="white" fill-opacity="0.3"/>
    <path d="M802 112V24" stroke="white" stroke-opacity="0.3" stroke-width="2" stroke-linecap="square" stroke-dasharray="6 6"/>
    <g filter="url(#filter0_i_6016_38098)">
        <path d="M210.182 112H560.4C560.96 112 561.24 112 561.454 112.109C561.642 112.205 561.795 112.358 561.891 112.546C562 112.76 562 113.04 562 113.6V162.4C562 162.96 562 163.24 561.891 163.454C561.795 163.642 561.642 163.795 561.454 163.891C561.24 164 560.96 164 560.4 164H210.182L202 157.5L210.182 151L202 144L210.182 138L202 131.5L210.182 125L202 118.5L210.182 112Z" fill="#99E099"/>
    </g>
    <path d="M210.182 112H560.4C560.96 112 561.24 112 561.454 112.109C561.642 112.205 561.795 112.358 561.891 112.546C562 112.76 562 113.04 562 113.6V162.4C562 162.96 562 163.24 561.891 163.454C561.795 163.642 561.642 163.795 561.454 163.891C561.24 164 560.96 164 560.4 164H210.182L202 157.5L210.182 151L202 144L210.182 138L202 131.5L210.182 125L202 118.5L210.182 112Z" stroke="#110529" stroke-width="2" stroke-linecap="round"/>
    <path d="M374.258 146L369.438 131.6H371.288L375.478 144.11L379.708 131.6H381.558L376.738 146H374.258Z" fill="#110529"/>
    <g filter="url(#filter1_i_6016_38098)">
        <rect x="562" y="112" width="30" height="52" rx="1" fill="#CBEB67"/>
    </g>
    <rect x="562" y="112" width="30" height="52" rx="1" stroke="#110529" stroke-width="2" stroke-linecap="round"/>
    <g filter="url(#filter2_i_6016_38098)">
        <rect x="628" y="112" width="30" height="52" rx="1" fill="#FAAAFA"/>
    </g>
    <rect x="628" y="112" width="30" height="52" rx="1" stroke="#110529" stroke-width="2" stroke-linecap="round"/>
    <g filter="url(#filter3_i_6016_38098)">
        <rect x="592" y="112" width="36" height="52" rx="1" fill="#FFCB8F"/>
    </g>
    <rect x="592" y="112" width="36" height="52" rx="1" stroke="#110529" stroke-width="2" stroke-linecap="round"/>
    <path d="M571.447 146V131.6H573.247L580.757 142.85V131.6H582.557V146H580.757L573.247 134.74V146H571.447Z" fill="#110529"/>
    <path d="M637.447 146V131.6H639.247L646.757 142.85V131.6H648.557V146H646.757L639.247 134.74V146H637.447Z" fill="#110529"/>
    <path d="M604.593 146V131.6H609.033C609.18 131.6 609.437 131.603 609.803 131.61C610.17 131.617 610.52 131.643 610.853 131.69C611.967 131.837 612.897 132.243 613.643 132.91C614.397 133.57 614.963 134.41 615.343 135.43C615.723 136.45 615.913 137.573 615.913 138.8C615.913 140.027 615.723 141.15 615.343 142.17C614.963 143.19 614.397 144.033 613.643 144.7C612.897 145.36 611.967 145.763 610.853 145.91C610.52 145.95 610.167 145.977 609.793 145.99C609.427 145.997 609.173 146 609.033 146H604.593ZM606.423 144.3H609.033C609.287 144.3 609.57 144.293 609.883 144.28C610.197 144.26 610.47 144.23 610.703 144.19C611.49 144.043 612.127 143.713 612.613 143.2C613.1 142.687 613.457 142.047 613.683 141.28C613.91 140.513 614.023 139.687 614.023 138.8C614.023 137.893 613.907 137.057 613.673 136.29C613.447 135.523 613.09 134.887 612.603 134.38C612.117 133.873 611.483 133.55 610.703 133.41C610.47 133.363 610.193 133.333 609.873 133.32C609.553 133.307 609.273 133.3 609.033 133.3H606.423V144.3Z" fill="#110529"/>
    <g filter="url(#filter4_i_6016_38098)">
        <rect x="658" y="112" width="144" height="52" rx="1" fill="#C1ADFF"/>
        <path d="M729.244 146.29C728.237 146.29 727.384 146.017 726.684 145.47C725.984 144.923 725.504 144.19 725.244 143.27L727.014 142.85C727.121 143.337 727.377 143.75 727.784 144.09C728.197 144.43 728.671 144.6 729.204 144.6C729.551 144.6 729.904 144.517 730.264 144.35C730.624 144.177 730.901 143.897 731.094 143.51C731.227 143.243 731.304 142.95 731.324 142.63C731.344 142.303 731.354 141.92 731.354 141.48V131.6H733.154V141.48C733.154 141.893 733.151 142.263 733.144 142.59C733.144 142.917 733.111 143.23 733.044 143.53C732.984 143.823 732.864 144.123 732.684 144.43C732.324 145.063 731.841 145.533 731.234 145.84C730.634 146.14 729.971 146.29 729.244 146.29Z" fill="#110529"/>
        <rect x="658" y="112" width="144" height="52" rx="1" stroke="#110529" stroke-width="2" stroke-linecap="round"/>
    </g>
    <g filter="url(#filter5_i_6016_38098)">
        <path d="M210.182 252H560.4C560.96 252 561.24 252 561.454 252.109C561.642 252.205 561.795 252.358 561.891 252.546C562 252.76 562 253.04 562 253.6V302.4C562 302.96 562 303.24 561.891 303.454C561.795 303.642 561.642 303.795 561.454 303.891C561.24 304 560.96 304 560.4 304H210.182L202 297.5L210.182 291L202 284L210.182 278L202 271.5L210.182 265L202 258.5L210.182 252Z" fill="#99E099"/>
    </g>
    <path d="M210.182 252H560.4C560.96 252 561.24 252 561.454 252.109C561.642 252.205 561.795 252.358 561.891 252.546C562 252.76 562 253.04 562 253.6V302.4C562 302.96 562 303.24 561.891 303.454C561.795 303.642 561.642 303.795 561.454 303.891C561.24 304 560.96 304 560.4 304H210.182L202 297.5L210.182 291L202 284L210.182 278L202 271.5L210.182 265L202 258.5L210.182 252Z" stroke="#110529" stroke-width="2" stroke-linecap="round"/>
    <path d="M374.258 286L369.438 271.6H371.288L375.478 284.11L379.708 271.6H381.558L376.738 286H374.258Z" fill="#110529"/>
    <g filter="url(#filter6_i_6016_38098)">
        <rect x="562" y="252" width="30" height="52" rx="1" fill="#CBEB67"/>
    </g>
    <rect x="562" y="252" width="30" height="52" rx="1" stroke="#110529" stroke-width="2" stroke-linecap="round"/>
    <path d="M571.447 286V271.6H573.247L580.757 282.85V271.6H582.557V286H580.757L573.247 274.74V286H571.447Z" fill="#110529"/>
    <g filter="url(#filter7_i_6016_38098)">
        <rect x="592" y="252" width="144" height="52" rx="1" fill="#C1ADFF"/>
        <path d="M663.244 286.29C662.237 286.29 661.384 286.017 660.684 285.47C659.984 284.923 659.504 284.19 659.244 283.27L661.014 282.85C661.121 283.337 661.377 283.75 661.784 284.09C662.197 284.43 662.671 284.6 663.204 284.6C663.551 284.6 663.904 284.517 664.264 284.35C664.624 284.177 664.901 283.897 665.094 283.51C665.227 283.243 665.304 282.95 665.324 282.63C665.344 282.303 665.354 281.92 665.354 281.48V271.6H667.154V281.48C667.154 281.893 667.151 282.263 667.144 282.59C667.144 282.917 667.111 283.23 667.044 283.53C666.984 283.823 666.864 284.123 666.684 284.43C666.324 285.063 665.841 285.533 665.234 285.84C664.634 286.14 663.971 286.29 663.244 286.29Z" fill="#110529"/>
        <rect x="592" y="252" width="144" height="52" rx="1" stroke="#110529" stroke-width="2" stroke-linecap="round"/>
    </g>
    <path d="M65.3268 286V273.29H60.4168V271.6H72.0168V273.29H67.1068V286H65.3268ZM79.529 286.3C78.0957 286.3 76.879 285.983 75.879 285.35C74.879 284.717 74.1157 283.837 73.589 282.71C73.069 281.583 72.809 280.28 72.809 278.8C72.809 277.32 73.069 276.017 73.589 274.89C74.1157 273.763 74.879 272.883 75.879 272.25C76.879 271.617 78.0957 271.3 79.529 271.3C81.1957 271.3 82.5657 271.723 83.639 272.57C84.719 273.417 85.4623 274.557 85.869 275.99L84.059 276.47C83.7657 275.397 83.2423 274.55 82.489 273.93C81.7357 273.31 80.749 273 79.529 273C78.4557 273 77.5623 273.243 76.849 273.73C76.1357 274.217 75.599 274.897 75.239 275.77C74.879 276.637 74.6957 277.647 74.689 278.8C74.6823 279.947 74.859 280.957 75.219 281.83C75.579 282.697 76.119 283.377 76.839 283.87C77.559 284.357 78.4557 284.6 79.529 284.6C80.749 284.6 81.7357 284.29 82.489 283.67C83.2423 283.043 83.7657 282.197 84.059 281.13L85.869 281.61C85.4623 283.037 84.719 284.177 83.639 285.03C82.5657 285.877 81.1957 286.3 79.529 286.3ZM88.0621 286V271.6H93.7521C93.8921 271.6 94.0588 271.607 94.2521 271.62C94.4454 271.627 94.6321 271.647 94.8121 271.68C95.5921 271.8 96.2454 272.067 96.7721 272.48C97.3054 272.893 97.7054 273.417 97.9721 274.05C98.2388 274.677 98.3721 275.373 98.3721 276.14C98.3721 277.253 98.0821 278.22 97.5021 279.04C96.9221 279.853 96.0721 280.363 94.9521 280.57L94.2721 280.68H89.8421V286H88.0621ZM96.6321 286L93.7921 280.14L95.5521 279.6L98.6721 286H96.6321ZM89.8421 278.99H93.6921C93.8188 278.99 93.9621 278.983 94.1221 278.97C94.2888 278.957 94.4454 278.933 94.5921 278.9C95.0521 278.793 95.4254 278.6 95.7121 278.32C96.0054 278.033 96.2188 277.7 96.3521 277.32C96.4854 276.933 96.5521 276.54 96.5521 276.14C96.5521 275.74 96.4854 275.35 96.3521 274.97C96.2188 274.583 96.0054 274.247 95.7121 273.96C95.4254 273.673 95.0521 273.48 94.5921 273.38C94.4454 273.34 94.2888 273.317 94.1221 273.31C93.9621 273.297 93.8188 273.29 93.6921 273.29H89.8421V278.99ZM109.149 286.3C108.129 286.3 107.255 286.05 106.529 285.55C105.802 285.043 105.245 284.36 104.859 283.5C104.472 282.64 104.279 281.673 104.279 280.6C104.279 279.513 104.472 278.543 104.859 277.69C105.252 276.83 105.815 276.15 106.549 275.65C107.282 275.15 108.165 274.9 109.199 274.9C110.165 274.9 110.985 275.143 111.659 275.63C112.339 276.11 112.819 276.777 113.099 277.63L112.799 278.15V275.2H114.389V286H112.799V283.02L113.099 283.54C112.819 284.4 112.329 285.077 111.629 285.57C110.935 286.057 110.109 286.3 109.149 286.3ZM109.369 284.67C110.082 284.67 110.669 284.497 111.129 284.15C111.595 283.797 111.939 283.313 112.159 282.7C112.385 282.08 112.499 281.377 112.499 280.59C112.499 279.79 112.385 279.087 112.159 278.48C111.939 277.867 111.599 277.39 111.139 277.05C110.679 276.703 110.095 276.53 109.389 276.53C108.689 276.53 108.099 276.703 107.619 277.05C107.139 277.39 106.775 277.867 106.529 278.48C106.289 279.087 106.169 279.793 106.169 280.6C106.169 281.36 106.285 282.047 106.519 282.66C106.752 283.273 107.105 283.763 107.579 284.13C108.052 284.49 108.649 284.67 109.369 284.67Z" fill="white"/>
    <path d="M65.6881 146V133.29H60.7781V131.6H72.3781V133.29H67.4681V146H65.6881ZM79.8903 146.3C78.457 146.3 77.2403 145.983 76.2403 145.35C75.2403 144.717 74.477 143.837 73.9503 142.71C73.4303 141.583 73.1703 140.28 73.1703 138.8C73.1703 137.32 73.4303 136.017 73.9503 134.89C74.477 133.763 75.2403 132.883 76.2403 132.25C77.2403 131.617 78.457 131.3 79.8903 131.3C81.557 131.3 82.927 131.723 84.0003 132.57C85.0803 133.417 85.8236 134.557 86.2303 135.99L84.4203 136.47C84.127 135.397 83.6036 134.55 82.8503 133.93C82.097 133.31 81.1103 133 79.8903 133C78.817 133 77.9236 133.243 77.2103 133.73C76.497 134.217 75.9603 134.897 75.6003 135.77C75.2403 136.637 75.057 137.647 75.0503 138.8C75.0436 139.947 75.2203 140.957 75.5803 141.83C75.9403 142.697 76.4803 143.377 77.2003 143.87C77.9203 144.357 78.817 144.6 79.8903 144.6C81.1103 144.6 82.097 144.29 82.8503 143.67C83.6036 143.043 84.127 142.197 84.4203 141.13L86.2303 141.61C85.8236 143.037 85.0803 144.177 84.0003 145.03C82.927 145.877 81.557 146.3 79.8903 146.3ZM88.4234 146V131.6H94.1134C94.2534 131.6 94.4201 131.607 94.6134 131.62C94.8068 131.627 94.9934 131.647 95.1734 131.68C95.9534 131.8 96.6068 132.067 97.1334 132.48C97.6668 132.893 98.0668 133.417 98.3334 134.05C98.6001 134.677 98.7334 135.373 98.7334 136.14C98.7334 137.253 98.4434 138.22 97.8634 139.04C97.2834 139.853 96.4334 140.363 95.3134 140.57L94.6334 140.68H90.2034V146H88.4234ZM96.9934 146L94.1534 140.14L95.9134 139.6L99.0334 146H96.9934ZM90.2034 138.99H94.0534C94.1801 138.99 94.3234 138.983 94.4834 138.97C94.6501 138.957 94.8068 138.933 94.9534 138.9C95.4134 138.793 95.7868 138.6 96.0734 138.32C96.3668 138.033 96.5801 137.7 96.7134 137.32C96.8468 136.933 96.9134 136.54 96.9134 136.14C96.9134 135.74 96.8468 135.35 96.7134 134.97C96.5801 134.583 96.3668 134.247 96.0734 133.96C95.7868 133.673 95.4134 133.48 94.9534 133.38C94.8068 133.34 94.6501 133.317 94.4834 133.31C94.3234 133.297 94.1801 133.29 94.0534 133.29H90.2034V138.99ZM105.23 150.8V135.2C105.23 134.953 105.247 134.71 105.28 134.47C105.32 134.23 105.377 134 105.45 133.78C105.63 133.24 105.91 132.787 106.29 132.42C106.67 132.047 107.123 131.767 107.65 131.58C108.177 131.393 108.75 131.3 109.37 131.3C110.203 131.3 110.937 131.463 111.57 131.79C112.21 132.11 112.71 132.563 113.07 133.15C113.43 133.737 113.61 134.427 113.61 135.22C113.61 135.86 113.48 136.433 113.22 136.94C112.967 137.447 112.577 137.83 112.05 138.09C112.403 138.177 112.743 138.323 113.07 138.53C113.403 138.737 113.703 139 113.97 139.32C114.237 139.64 114.447 140.02 114.6 140.46C114.76 140.9 114.84 141.397 114.84 141.95C114.84 142.823 114.643 143.587 114.25 144.24C113.857 144.887 113.293 145.393 112.56 145.76C111.833 146.12 110.96 146.3 109.94 146.3C109.327 146.3 108.773 146.217 108.28 146.05C107.793 145.89 107.37 145.67 107.01 145.39V150.8H105.23ZM110.02 144.61C110.613 144.61 111.137 144.497 111.59 144.27C112.043 144.037 112.397 143.717 112.65 143.31C112.903 142.897 113.03 142.417 113.03 141.87C113.03 140.983 112.703 140.313 112.05 139.86C111.397 139.4 110.52 139.16 109.42 139.14V137.54C109.88 137.493 110.287 137.38 110.64 137.2C111 137.02 111.28 136.767 111.48 136.44C111.687 136.113 111.79 135.713 111.79 135.24C111.79 134.527 111.567 133.973 111.12 133.58C110.673 133.187 110.103 132.99 109.41 132.99C108.97 132.99 108.55 133.09 108.15 133.29C107.757 133.483 107.467 133.813 107.28 134.28C107.18 134.54 107.117 134.817 107.09 135.11C107.063 135.397 107.05 135.647 107.05 135.86V141.71C107.05 141.903 107.06 142.123 107.08 142.37C107.107 142.61 107.147 142.823 107.2 143.01C107.367 143.523 107.723 143.92 108.27 144.2C108.817 144.473 109.4 144.61 110.02 144.61Z" fill="white"/>
    <path d="M400 188L399.293 188.707L398.586 188L399.293 187.293L400 188ZM407.293 179.293L408 178.586L409.414 180L408.707 180.707L407.293 179.293ZM408.707 195.293L409.414 196L408 197.414L407.293 196.707L408.707 195.293ZM410 189L400 189L400 187L410 187L410 189ZM399.293 187.293L407.293 179.293L408.707 180.707L400.707 188.707L399.293 187.293ZM400.707 187.293L408.707 195.293L407.293 196.707L399.293 188.707L400.707 187.293Z" fill="#D3D7E0"/>
    <path d="M561.5 188H410" stroke="#D3D7E0" stroke-width="2"/>
    <rect width="57" height="20" transform="translate(561.5 178)" fill="#1D1D29"/>
    <path d="M570.636 194V184.056L568.468 185.368V183.776L570.636 182.48H572.084V194H570.636ZM578.536 194.24C577.944 194.24 577.392 194.117 576.88 193.872C576.373 193.627 575.938 193.291 575.576 192.864C575.218 192.432 574.962 191.936 574.808 191.376L576.176 191.008C576.272 191.387 576.442 191.715 576.688 191.992C576.933 192.264 577.218 192.477 577.544 192.632C577.874 192.781 578.218 192.856 578.576 192.856C579.045 192.856 579.466 192.744 579.84 192.52C580.218 192.291 580.517 191.989 580.736 191.616C580.954 191.237 581.064 190.824 581.064 190.376C581.064 189.912 580.949 189.493 580.72 189.12C580.496 188.741 580.194 188.443 579.816 188.224C579.437 188.005 579.024 187.896 578.576 187.896C578.069 187.896 577.634 188.003 577.272 188.216C576.914 188.424 576.632 188.68 576.424 188.984L575.16 188.504L575.512 182.48H581.696V183.832H576.2L576.832 183.24L576.536 188.064L576.224 187.656C576.544 187.315 576.925 187.051 577.368 186.864C577.816 186.677 578.272 186.584 578.736 186.584C579.45 186.584 580.09 186.752 580.656 187.088C581.221 187.419 581.669 187.872 582 188.448C582.33 189.019 582.496 189.661 582.496 190.376C582.496 191.085 582.314 191.733 581.952 192.32C581.589 192.901 581.106 193.368 580.504 193.72C579.906 194.067 579.25 194.24 578.536 194.24ZM588.297 194.24C587.55 194.24 586.884 194.072 586.297 193.736C585.716 193.395 585.254 192.933 584.913 192.352C584.577 191.765 584.409 191.099 584.409 190.352V186.128C584.409 185.381 584.577 184.715 584.913 184.128C585.254 183.541 585.716 183.08 586.297 182.744C586.884 182.408 587.55 182.24 588.297 182.24C589.044 182.24 589.71 182.408 590.297 182.744C590.884 183.08 591.345 183.541 591.681 184.128C592.017 184.715 592.185 185.381 592.185 186.128V190.352C592.185 191.099 592.017 191.765 591.681 192.352C591.345 192.933 590.884 193.395 590.297 193.736C589.71 194.072 589.044 194.24 588.297 194.24ZM588.297 192.872C588.75 192.872 589.161 192.763 589.529 192.544C589.897 192.325 590.19 192.032 590.409 191.664C590.628 191.291 590.737 190.88 590.737 190.432V186.04C590.737 185.587 590.628 185.176 590.409 184.808C590.19 184.44 589.897 184.147 589.529 183.928C589.161 183.709 588.75 183.6 588.297 183.6C587.849 183.6 587.438 183.709 587.065 183.928C586.697 184.147 586.404 184.44 586.185 184.808C585.966 185.176 585.857 185.587 585.857 186.04V190.432C585.857 190.88 585.966 191.291 586.185 191.664C586.404 192.032 586.697 192.325 587.065 192.544C587.438 192.763 587.849 192.872 588.297 192.872ZM598.393 194.24C597.582 194.24 596.899 194.04 596.345 193.64C595.79 193.235 595.369 192.688 595.081 192C594.798 191.307 594.657 190.531 594.657 189.672C594.657 188.803 594.798 188.024 595.081 187.336C595.369 186.648 595.79 186.107 596.345 185.712C596.905 185.317 597.59 185.12 598.401 185.12C599.201 185.12 599.889 185.32 600.465 185.72C601.046 186.115 601.491 186.656 601.801 187.344C602.11 188.032 602.265 188.808 602.265 189.672C602.265 190.536 602.11 191.312 601.801 192C601.491 192.688 601.046 193.235 600.465 193.64C599.889 194.04 599.198 194.24 598.393 194.24ZM594.417 194V182.48H595.849V187.64H595.689V194H594.417ZM598.217 192.936C598.787 192.936 599.259 192.792 599.633 192.504C600.006 192.216 600.286 191.827 600.473 191.336C600.659 190.84 600.753 190.285 600.753 189.672C600.753 189.064 600.659 188.515 600.473 188.024C600.291 187.533 600.009 187.144 599.625 186.856C599.246 186.568 598.763 186.424 598.177 186.424C597.617 186.424 597.153 186.563 596.785 186.84C596.417 187.112 596.142 187.493 595.961 187.984C595.779 188.469 595.689 189.032 595.689 189.672C595.689 190.301 595.777 190.864 595.953 191.36C596.134 191.851 596.411 192.237 596.785 192.52C597.158 192.797 597.635 192.936 598.217 192.936ZM607.986 194.24C607.176 194.24 606.493 194.04 605.938 193.64C605.384 193.235 604.962 192.688 604.674 192C604.392 191.307 604.25 190.531 604.25 189.672C604.25 188.803 604.392 188.024 604.674 187.336C604.962 186.648 605.384 186.107 605.938 185.712C606.498 185.317 607.184 185.12 607.994 185.12C608.794 185.12 609.482 185.32 610.058 185.72C610.64 186.115 611.085 186.656 611.394 187.344C611.704 188.032 611.858 188.808 611.858 189.672C611.858 190.536 611.704 191.312 611.394 192C611.085 192.688 610.64 193.235 610.058 193.64C609.482 194.04 608.792 194.24 607.986 194.24ZM604.01 197.84V185.36H605.282V191.72H605.442V197.84H604.01ZM607.81 192.936C608.381 192.936 608.853 192.792 609.226 192.504C609.6 192.216 609.88 191.827 610.066 191.336C610.253 190.84 610.346 190.285 610.346 189.672C610.346 189.064 610.253 188.515 610.066 188.024C609.885 187.533 609.602 187.144 609.218 186.856C608.84 186.568 608.357 186.424 607.77 186.424C607.21 186.424 606.746 186.563 606.378 186.84C606.01 187.112 605.736 187.493 605.554 187.984C605.373 188.469 605.282 189.032 605.282 189.672C605.282 190.301 605.37 190.864 605.546 191.36C605.728 191.851 606.005 192.237 606.378 192.52C606.752 192.797 607.229 192.936 607.81 192.936Z" fill="white"/>
    <path d="M770 188H618.5" stroke="#D3D7E0" stroke-width="2"/>
    <path d="M778.62 194V182.48H783.172C783.284 182.48 783.417 182.485 783.572 182.496C783.727 182.501 783.876 182.517 784.02 182.544C784.644 182.64 785.167 182.853 785.588 183.184C786.015 183.515 786.335 183.933 786.548 184.44C786.761 184.941 786.868 185.499 786.868 186.112C786.868 187.003 786.636 187.776 786.172 188.432C785.708 189.083 785.028 189.491 784.132 189.656L783.588 189.744H780.044V194H778.62ZM785.476 194L783.204 189.312L784.612 188.88L787.108 194H785.476ZM780.044 188.392H783.124C783.225 188.392 783.34 188.387 783.468 188.376C783.601 188.365 783.727 188.347 783.844 188.32C784.212 188.235 784.511 188.08 784.74 187.856C784.975 187.627 785.145 187.36 785.252 187.056C785.359 186.747 785.412 186.432 785.412 186.112C785.412 185.792 785.359 185.48 785.252 185.176C785.145 184.867 784.975 184.597 784.74 184.368C784.511 184.139 784.212 183.984 783.844 183.904C783.727 183.872 783.601 183.853 783.468 183.848C783.34 183.837 783.225 183.832 783.124 183.832H780.044V188.392ZM790.878 194V184.056L788.71 185.368V183.776L790.878 182.48H792.326V194H790.878Z" fill="white"/>
    <rect x="770" y="176" width="32" height="24" rx="1" stroke="#D3D7E0" stroke-width="2"/>
    <path d="M209.12 220V208.48H213.672C213.784 208.48 213.917 208.485 214.072 208.496C214.227 208.501 214.376 208.517 214.52 208.544C215.144 208.64 215.667 208.853 216.088 209.184C216.515 209.515 216.835 209.933 217.048 210.44C217.261 210.941 217.368 211.499 217.368 212.112C217.368 213.003 217.136 213.776 216.672 214.432C216.208 215.083 215.528 215.491 214.632 215.656L214.088 215.744H210.544V220H209.12ZM215.976 220L213.704 215.312L215.112 214.88L217.608 220H215.976ZM210.544 214.392H213.624C213.725 214.392 213.84 214.387 213.968 214.376C214.101 214.365 214.227 214.347 214.344 214.32C214.712 214.235 215.011 214.08 215.24 213.856C215.475 213.627 215.645 213.36 215.752 213.056C215.859 212.747 215.912 212.432 215.912 212.112C215.912 211.792 215.859 211.48 215.752 211.176C215.645 210.867 215.475 210.597 215.24 210.368C215.011 210.139 214.712 209.984 214.344 209.904C214.227 209.872 214.101 209.853 213.968 209.848C213.84 209.837 213.725 209.832 213.624 209.832H210.544V214.392ZM219.05 219.992L219.058 218.712L224.17 214.112C224.597 213.728 224.882 213.365 225.026 213.024C225.175 212.677 225.25 212.323 225.25 211.96C225.25 211.517 225.149 211.117 224.946 210.76C224.743 210.403 224.466 210.12 224.114 209.912C223.767 209.704 223.373 209.6 222.93 209.6C222.471 209.6 222.063 209.709 221.706 209.928C221.349 210.141 221.066 210.427 220.858 210.784C220.655 211.141 220.557 211.531 220.562 211.952H219.106C219.106 211.227 219.274 210.587 219.61 210.032C219.946 209.472 220.402 209.035 220.978 208.72C221.559 208.4 222.218 208.24 222.954 208.24C223.669 208.24 224.309 208.405 224.874 208.736C225.439 209.061 225.885 209.507 226.21 210.072C226.541 210.632 226.706 211.267 226.706 211.976C226.706 212.477 226.642 212.912 226.514 213.28C226.391 213.648 226.199 213.989 225.938 214.304C225.677 214.613 225.349 214.944 224.954 215.296L220.706 219.112L220.522 218.632H226.706V219.992H219.05Z" fill="white"/>
    <rect x="202" y="202" width="32" height="24" rx="1" stroke="#D3D7E0" stroke-width="2"/>
    <path d="M431.5 214H234" stroke="#D3D7E0" stroke-width="2"/>
    <rect width="53" height="20" transform="translate(431.5 204)" fill="#1D1D29"/>
    <path d="M438.636 220V210.056L436.468 211.368V209.776L438.636 208.48H440.084V220H438.636ZM446.536 220.24C445.944 220.24 445.392 220.117 444.88 219.872C444.373 219.627 443.938 219.291 443.576 218.864C443.218 218.432 442.962 217.936 442.808 217.376L444.176 217.008C444.272 217.387 444.442 217.715 444.688 217.992C444.933 218.264 445.218 218.477 445.544 218.632C445.874 218.781 446.218 218.856 446.576 218.856C447.045 218.856 447.466 218.744 447.84 218.52C448.218 218.291 448.517 217.989 448.736 217.616C448.954 217.237 449.064 216.824 449.064 216.376C449.064 215.912 448.949 215.493 448.72 215.12C448.496 214.741 448.194 214.443 447.816 214.224C447.437 214.005 447.024 213.896 446.576 213.896C446.069 213.896 445.634 214.003 445.272 214.216C444.914 214.424 444.632 214.68 444.424 214.984L443.16 214.504L443.512 208.48H449.696V209.832H444.2L444.832 209.24L444.536 214.064L444.224 213.656C444.544 213.315 444.925 213.051 445.368 212.864C445.816 212.677 446.272 212.584 446.736 212.584C447.45 212.584 448.09 212.752 448.656 213.088C449.221 213.419 449.669 213.872 450 214.448C450.33 215.019 450.496 215.661 450.496 216.376C450.496 217.085 450.314 217.733 449.952 218.32C449.589 218.901 449.106 219.368 448.504 219.72C447.906 220.067 447.25 220.24 446.536 220.24ZM456.297 220.24C455.55 220.24 454.884 220.072 454.297 219.736C453.716 219.395 453.254 218.933 452.913 218.352C452.577 217.765 452.409 217.099 452.409 216.352V212.128C452.409 211.381 452.577 210.715 452.913 210.128C453.254 209.541 453.716 209.08 454.297 208.744C454.884 208.408 455.55 208.24 456.297 208.24C457.044 208.24 457.71 208.408 458.297 208.744C458.884 209.08 459.345 209.541 459.681 210.128C460.017 210.715 460.185 211.381 460.185 212.128V216.352C460.185 217.099 460.017 217.765 459.681 218.352C459.345 218.933 458.884 219.395 458.297 219.736C457.71 220.072 457.044 220.24 456.297 220.24ZM456.297 218.872C456.75 218.872 457.161 218.763 457.529 218.544C457.897 218.325 458.19 218.032 458.409 217.664C458.628 217.291 458.737 216.88 458.737 216.432V212.04C458.737 211.587 458.628 211.176 458.409 210.808C458.19 210.44 457.897 210.147 457.529 209.928C457.161 209.709 456.75 209.6 456.297 209.6C455.849 209.6 455.438 209.709 455.065 209.928C454.697 210.147 454.404 210.44 454.185 210.808C453.966 211.176 453.857 211.587 453.857 212.04V216.432C453.857 216.88 453.966 217.291 454.185 217.664C454.404 218.032 454.697 218.325 455.065 218.544C455.438 218.763 455.849 218.872 456.297 218.872ZM466.393 220.24C465.582 220.24 464.899 220.04 464.345 219.64C463.79 219.235 463.369 218.688 463.081 218C462.798 217.307 462.657 216.531 462.657 215.672C462.657 214.803 462.798 214.024 463.081 213.336C463.369 212.648 463.79 212.107 464.345 211.712C464.905 211.317 465.59 211.12 466.401 211.12C467.201 211.12 467.889 211.32 468.465 211.72C469.046 212.115 469.491 212.656 469.801 213.344C470.11 214.032 470.265 214.808 470.265 215.672C470.265 216.536 470.11 217.312 469.801 218C469.491 218.688 469.046 219.235 468.465 219.64C467.889 220.04 467.198 220.24 466.393 220.24ZM462.417 220V208.48H463.849V213.64H463.689V220H462.417ZM466.217 218.936C466.787 218.936 467.259 218.792 467.633 218.504C468.006 218.216 468.286 217.827 468.473 217.336C468.659 216.84 468.753 216.285 468.753 215.672C468.753 215.064 468.659 214.515 468.473 214.024C468.291 213.533 468.009 213.144 467.625 212.856C467.246 212.568 466.763 212.424 466.177 212.424C465.617 212.424 465.153 212.563 464.785 212.84C464.417 213.112 464.142 213.493 463.961 213.984C463.779 214.469 463.689 215.032 463.689 215.672C463.689 216.301 463.777 216.864 463.953 217.36C464.134 217.851 464.411 218.237 464.785 218.52C465.158 218.797 465.635 218.936 466.217 218.936ZM475.986 220.24C475.176 220.24 474.493 220.04 473.938 219.64C473.384 219.235 472.962 218.688 472.674 218C472.392 217.307 472.25 216.531 472.25 215.672C472.25 214.803 472.392 214.024 472.674 213.336C472.962 212.648 473.384 212.107 473.938 211.712C474.498 211.317 475.184 211.12 475.994 211.12C476.794 211.12 477.482 211.32 478.058 211.72C478.64 212.115 479.085 212.656 479.394 213.344C479.704 214.032 479.858 214.808 479.858 215.672C479.858 216.536 479.704 217.312 479.394 218C479.085 218.688 478.64 219.235 478.058 219.64C477.482 220.04 476.792 220.24 475.986 220.24ZM472.01 223.84V211.36H473.282V217.72H473.442V223.84H472.01ZM475.81 218.936C476.381 218.936 476.853 218.792 477.226 218.504C477.6 218.216 477.88 217.827 478.066 217.336C478.253 216.84 478.346 216.285 478.346 215.672C478.346 215.064 478.253 214.515 478.066 214.024C477.885 213.533 477.602 213.144 477.218 212.856C476.84 212.568 476.357 212.424 475.77 212.424C475.21 212.424 474.746 212.563 474.378 212.84C474.01 213.112 473.736 213.493 473.554 213.984C473.373 214.469 473.282 215.032 473.282 215.672C473.282 216.301 473.37 216.864 473.546 217.36C473.728 217.851 474.005 218.237 474.378 218.52C474.752 218.797 475.229 218.936 475.81 218.936Z" fill="white"/>
    <path d="M682 214H484.5" stroke="#D3D7E0" stroke-width="2"/>
    <path d="M692 214L692.707 213.293L693.414 214L692.707 214.707L692 214ZM684.707 222.707L684 223.414L682.586 222L683.293 221.293L684.707 222.707ZM683.293 206.707L682.586 206L684 204.586L684.707 205.293L683.293 206.707ZM682 213L692 213L692 215L682 215L682 213ZM692.707 214.707L684.707 222.707L683.293 221.293L691.293 213.293L692.707 214.707ZM691.293 214.707L683.293 206.707L684.707 205.293L692.707 213.293L691.293 214.707Z" fill="#D3D7E0"/>
    <path d="M357 328L356.293 328.707L355.586 328L356.293 327.293L357 328ZM364.293 319.293L365 318.586L366.414 320L365.707 320.707L364.293 319.293ZM365.707 335.293L366.414 336L365 337.414L364.293 336.707L365.707 335.293ZM367 329L357 329L357 327L367 327L367 329ZM356.293 327.293L364.293 319.293L365.707 320.707L357.707 328.707L356.293 327.293ZM357.707 327.293L365.707 335.293L364.293 336.707L356.293 328.707L357.707 327.293Z" fill="#D3D7E0"/>
    <path d="M507 328H367" stroke="#D3D7E0" stroke-width="2"/>
    <rect width="57" height="20" transform="translate(507 318)" fill="#1D1D29"/>
    <path d="M516.136 334V324.056L513.968 325.368V323.776L516.136 322.48H517.584V334H516.136ZM524.036 334.24C523.444 334.24 522.892 334.117 522.38 333.872C521.873 333.627 521.438 333.291 521.076 332.864C520.718 332.432 520.462 331.936 520.308 331.376L521.676 331.008C521.772 331.387 521.942 331.715 522.188 331.992C522.433 332.264 522.718 332.477 523.044 332.632C523.374 332.781 523.718 332.856 524.076 332.856C524.545 332.856 524.966 332.744 525.34 332.52C525.718 332.291 526.017 331.989 526.236 331.616C526.454 331.237 526.564 330.824 526.564 330.376C526.564 329.912 526.449 329.493 526.22 329.12C525.996 328.741 525.694 328.443 525.316 328.224C524.937 328.005 524.524 327.896 524.076 327.896C523.569 327.896 523.134 328.003 522.772 328.216C522.414 328.424 522.132 328.68 521.924 328.984L520.66 328.504L521.012 322.48H527.196V323.832H521.7L522.332 323.24L522.036 328.064L521.724 327.656C522.044 327.315 522.425 327.051 522.868 326.864C523.316 326.677 523.772 326.584 524.236 326.584C524.95 326.584 525.59 326.752 526.156 327.088C526.721 327.419 527.169 327.872 527.5 328.448C527.83 329.019 527.996 329.661 527.996 330.376C527.996 331.085 527.814 331.733 527.452 332.32C527.089 332.901 526.606 333.368 526.004 333.72C525.406 334.067 524.75 334.24 524.036 334.24ZM533.797 334.24C533.05 334.24 532.384 334.072 531.797 333.736C531.216 333.395 530.754 332.933 530.413 332.352C530.077 331.765 529.909 331.099 529.909 330.352V326.128C529.909 325.381 530.077 324.715 530.413 324.128C530.754 323.541 531.216 323.08 531.797 322.744C532.384 322.408 533.05 322.24 533.797 322.24C534.544 322.24 535.21 322.408 535.797 322.744C536.384 323.08 536.845 323.541 537.181 324.128C537.517 324.715 537.685 325.381 537.685 326.128V330.352C537.685 331.099 537.517 331.765 537.181 332.352C536.845 332.933 536.384 333.395 535.797 333.736C535.21 334.072 534.544 334.24 533.797 334.24ZM533.797 332.872C534.25 332.872 534.661 332.763 535.029 332.544C535.397 332.325 535.69 332.032 535.909 331.664C536.128 331.291 536.237 330.88 536.237 330.432V326.04C536.237 325.587 536.128 325.176 535.909 324.808C535.69 324.44 535.397 324.147 535.029 323.928C534.661 323.709 534.25 323.6 533.797 323.6C533.349 323.6 532.938 323.709 532.565 323.928C532.197 324.147 531.904 324.44 531.685 324.808C531.466 325.176 531.357 325.587 531.357 326.04V330.432C531.357 330.88 531.466 331.291 531.685 331.664C531.904 332.032 532.197 332.325 532.565 332.544C532.938 332.763 533.349 332.872 533.797 332.872ZM543.893 334.24C543.082 334.24 542.399 334.04 541.845 333.64C541.29 333.235 540.869 332.688 540.581 332C540.298 331.307 540.157 330.531 540.157 329.672C540.157 328.803 540.298 328.024 540.581 327.336C540.869 326.648 541.29 326.107 541.845 325.712C542.405 325.317 543.09 325.12 543.901 325.12C544.701 325.12 545.389 325.32 545.965 325.72C546.546 326.115 546.991 326.656 547.301 327.344C547.61 328.032 547.765 328.808 547.765 329.672C547.765 330.536 547.61 331.312 547.301 332C546.991 332.688 546.546 333.235 545.965 333.64C545.389 334.04 544.698 334.24 543.893 334.24ZM539.917 334V322.48H541.349V327.64H541.189V334H539.917ZM543.717 332.936C544.287 332.936 544.759 332.792 545.133 332.504C545.506 332.216 545.786 331.827 545.973 331.336C546.159 330.84 546.253 330.285 546.253 329.672C546.253 329.064 546.159 328.515 545.973 328.024C545.791 327.533 545.509 327.144 545.125 326.856C544.746 326.568 544.263 326.424 543.677 326.424C543.117 326.424 542.653 326.563 542.285 326.84C541.917 327.112 541.642 327.493 541.461 327.984C541.279 328.469 541.189 329.032 541.189 329.672C541.189 330.301 541.277 330.864 541.453 331.36C541.634 331.851 541.911 332.237 542.285 332.52C542.658 332.797 543.135 332.936 543.717 332.936ZM553.486 334.24C552.676 334.24 551.993 334.04 551.438 333.64C550.884 333.235 550.462 332.688 550.174 332C549.892 331.307 549.75 330.531 549.75 329.672C549.75 328.803 549.892 328.024 550.174 327.336C550.462 326.648 550.884 326.107 551.438 325.712C551.998 325.317 552.684 325.12 553.494 325.12C554.294 325.12 554.982 325.32 555.558 325.72C556.14 326.115 556.585 326.656 556.894 327.344C557.204 328.032 557.358 328.808 557.358 329.672C557.358 330.536 557.204 331.312 556.894 332C556.585 332.688 556.14 333.235 555.558 333.64C554.982 334.04 554.292 334.24 553.486 334.24ZM549.51 337.84V325.36H550.782V331.72H550.942V337.84H549.51ZM553.31 332.936C553.881 332.936 554.353 332.792 554.726 332.504C555.1 332.216 555.38 331.827 555.566 331.336C555.753 330.84 555.846 330.285 555.846 329.672C555.846 329.064 555.753 328.515 555.566 328.024C555.385 327.533 555.102 327.144 554.718 326.856C554.34 326.568 553.857 326.424 553.27 326.424C552.71 326.424 552.246 326.563 551.878 326.84C551.51 327.112 551.236 327.493 551.054 327.984C550.873 328.469 550.782 329.032 550.782 329.672C550.782 330.301 550.87 330.864 551.046 331.36C551.228 331.851 551.505 332.237 551.878 332.52C552.252 332.797 552.729 332.936 553.31 332.936Z" fill="white"/>
    <path d="M704 328H564" stroke="#D3D7E0" stroke-width="2"/>
    <path d="M712.62 334V322.48H717.172C717.284 322.48 717.417 322.485 717.572 322.496C717.727 322.501 717.876 322.517 718.02 322.544C718.644 322.64 719.167 322.853 719.588 323.184C720.015 323.515 720.335 323.933 720.548 324.44C720.761 324.941 720.868 325.499 720.868 326.112C720.868 327.003 720.636 327.776 720.172 328.432C719.708 329.083 719.028 329.491 718.132 329.656L717.588 329.744H714.044V334H712.62ZM719.476 334L717.204 329.312L718.612 328.88L721.108 334H719.476ZM714.044 328.392H717.124C717.225 328.392 717.34 328.387 717.468 328.376C717.601 328.365 717.727 328.347 717.844 328.32C718.212 328.235 718.511 328.08 718.74 327.856C718.975 327.627 719.145 327.36 719.252 327.056C719.359 326.747 719.412 326.432 719.412 326.112C719.412 325.792 719.359 325.48 719.252 325.176C719.145 324.867 718.975 324.597 718.74 324.368C718.511 324.139 718.212 323.984 717.844 323.904C717.727 323.872 717.601 323.853 717.468 323.848C717.34 323.837 717.225 323.832 717.124 323.832H714.044V328.392ZM724.878 334V324.056L722.71 325.368V323.776L724.878 322.48H726.326V334H724.878Z" fill="white"/>
    <rect x="704" y="316" width="32" height="24" rx="1" stroke="#D3D7E0" stroke-width="2"/>
    <path d="M209.12 360V348.48H213.672C213.784 348.48 213.917 348.485 214.072 348.496C214.227 348.501 214.376 348.517 214.52 348.544C215.144 348.64 215.667 348.853 216.088 349.184C216.515 349.515 216.835 349.933 217.048 350.44C217.261 350.941 217.368 351.499 217.368 352.112C217.368 353.003 217.136 353.776 216.672 354.432C216.208 355.083 215.528 355.491 214.632 355.656L214.088 355.744H210.544V360H209.12ZM215.976 360L213.704 355.312L215.112 354.88L217.608 360H215.976ZM210.544 354.392H213.624C213.725 354.392 213.84 354.387 213.968 354.376C214.101 354.365 214.227 354.347 214.344 354.32C214.712 354.235 215.011 354.08 215.24 353.856C215.475 353.627 215.645 353.36 215.752 353.056C215.859 352.747 215.912 352.432 215.912 352.112C215.912 351.792 215.859 351.48 215.752 351.176C215.645 350.867 215.475 350.597 215.24 350.368C215.011 350.139 214.712 349.984 214.344 349.904C214.227 349.872 214.101 349.853 213.968 349.848C213.84 349.837 213.725 349.832 213.624 349.832H210.544V354.392ZM219.05 359.992L219.058 358.712L224.17 354.112C224.597 353.728 224.882 353.365 225.026 353.024C225.175 352.677 225.25 352.323 225.25 351.96C225.25 351.517 225.149 351.117 224.946 350.76C224.743 350.403 224.466 350.12 224.114 349.912C223.767 349.704 223.373 349.6 222.93 349.6C222.471 349.6 222.063 349.709 221.706 349.928C221.349 350.141 221.066 350.427 220.858 350.784C220.655 351.141 220.557 351.531 220.562 351.952H219.106C219.106 351.227 219.274 350.587 219.61 350.032C219.946 349.472 220.402 349.035 220.978 348.72C221.559 348.4 222.218 348.24 222.954 348.24C223.669 348.24 224.309 348.405 224.874 348.736C225.439 349.061 225.885 349.507 226.21 350.072C226.541 350.632 226.706 351.267 226.706 351.976C226.706 352.477 226.642 352.912 226.514 353.28C226.391 353.648 226.199 353.989 225.938 354.304C225.677 354.613 225.349 354.944 224.954 355.296L220.706 359.112L220.522 358.632H226.706V359.992H219.05Z" fill="white"/>
    <rect x="202" y="342" width="32" height="24" rx="1" stroke="#D3D7E0" stroke-width="2"/>
    <path d="M410.5 354H234" stroke="#D3D7E0" stroke-width="2"/>
    <rect width="53" height="20" transform="translate(410.5 344)" fill="#1D1D29"/>
    <path d="M417.636 360V350.056L415.468 351.368V349.776L417.636 348.48H419.084V360H417.636ZM425.536 360.24C424.944 360.24 424.392 360.117 423.88 359.872C423.373 359.627 422.938 359.291 422.576 358.864C422.218 358.432 421.962 357.936 421.808 357.376L423.176 357.008C423.272 357.387 423.442 357.715 423.688 357.992C423.933 358.264 424.218 358.477 424.544 358.632C424.874 358.781 425.218 358.856 425.576 358.856C426.045 358.856 426.466 358.744 426.84 358.52C427.218 358.291 427.517 357.989 427.736 357.616C427.954 357.237 428.064 356.824 428.064 356.376C428.064 355.912 427.949 355.493 427.72 355.12C427.496 354.741 427.194 354.443 426.816 354.224C426.437 354.005 426.024 353.896 425.576 353.896C425.069 353.896 424.634 354.003 424.272 354.216C423.914 354.424 423.632 354.68 423.424 354.984L422.16 354.504L422.512 348.48H428.696V349.832H423.2L423.832 349.24L423.536 354.064L423.224 353.656C423.544 353.315 423.925 353.051 424.368 352.864C424.816 352.677 425.272 352.584 425.736 352.584C426.45 352.584 427.09 352.752 427.656 353.088C428.221 353.419 428.669 353.872 429 354.448C429.33 355.019 429.496 355.661 429.496 356.376C429.496 357.085 429.314 357.733 428.952 358.32C428.589 358.901 428.106 359.368 427.504 359.72C426.906 360.067 426.25 360.24 425.536 360.24ZM435.297 360.24C434.55 360.24 433.884 360.072 433.297 359.736C432.716 359.395 432.254 358.933 431.913 358.352C431.577 357.765 431.409 357.099 431.409 356.352V352.128C431.409 351.381 431.577 350.715 431.913 350.128C432.254 349.541 432.716 349.08 433.297 348.744C433.884 348.408 434.55 348.24 435.297 348.24C436.044 348.24 436.71 348.408 437.297 348.744C437.884 349.08 438.345 349.541 438.681 350.128C439.017 350.715 439.185 351.381 439.185 352.128V356.352C439.185 357.099 439.017 357.765 438.681 358.352C438.345 358.933 437.884 359.395 437.297 359.736C436.71 360.072 436.044 360.24 435.297 360.24ZM435.297 358.872C435.75 358.872 436.161 358.763 436.529 358.544C436.897 358.325 437.19 358.032 437.409 357.664C437.628 357.291 437.737 356.88 437.737 356.432V352.04C437.737 351.587 437.628 351.176 437.409 350.808C437.19 350.44 436.897 350.147 436.529 349.928C436.161 349.709 435.75 349.6 435.297 349.6C434.849 349.6 434.438 349.709 434.065 349.928C433.697 350.147 433.404 350.44 433.185 350.808C432.966 351.176 432.857 351.587 432.857 352.04V356.432C432.857 356.88 432.966 357.291 433.185 357.664C433.404 358.032 433.697 358.325 434.065 358.544C434.438 358.763 434.849 358.872 435.297 358.872ZM445.393 360.24C444.582 360.24 443.899 360.04 443.345 359.64C442.79 359.235 442.369 358.688 442.081 358C441.798 357.307 441.657 356.531 441.657 355.672C441.657 354.803 441.798 354.024 442.081 353.336C442.369 352.648 442.79 352.107 443.345 351.712C443.905 351.317 444.59 351.12 445.401 351.12C446.201 351.12 446.889 351.32 447.465 351.72C448.046 352.115 448.491 352.656 448.801 353.344C449.11 354.032 449.265 354.808 449.265 355.672C449.265 356.536 449.11 357.312 448.801 358C448.491 358.688 448.046 359.235 447.465 359.64C446.889 360.04 446.198 360.24 445.393 360.24ZM441.417 360V348.48H442.849V353.64H442.689V360H441.417ZM445.217 358.936C445.787 358.936 446.259 358.792 446.633 358.504C447.006 358.216 447.286 357.827 447.473 357.336C447.659 356.84 447.753 356.285 447.753 355.672C447.753 355.064 447.659 354.515 447.473 354.024C447.291 353.533 447.009 353.144 446.625 352.856C446.246 352.568 445.763 352.424 445.177 352.424C444.617 352.424 444.153 352.563 443.785 352.84C443.417 353.112 443.142 353.493 442.961 353.984C442.779 354.469 442.689 355.032 442.689 355.672C442.689 356.301 442.777 356.864 442.953 357.36C443.134 357.851 443.411 358.237 443.785 358.52C444.158 358.797 444.635 358.936 445.217 358.936ZM454.986 360.24C454.176 360.24 453.493 360.04 452.938 359.64C452.384 359.235 451.962 358.688 451.674 358C451.392 357.307 451.25 356.531 451.25 355.672C451.25 354.803 451.392 354.024 451.674 353.336C451.962 352.648 452.384 352.107 452.938 351.712C453.498 351.317 454.184 351.12 454.994 351.12C455.794 351.12 456.482 351.32 457.058 351.72C457.64 352.115 458.085 352.656 458.394 353.344C458.704 354.032 458.858 354.808 458.858 355.672C458.858 356.536 458.704 357.312 458.394 358C458.085 358.688 457.64 359.235 457.058 359.64C456.482 360.04 455.792 360.24 454.986 360.24ZM451.01 363.84V351.36H452.282V357.72H452.442V363.84H451.01ZM454.81 358.936C455.381 358.936 455.853 358.792 456.226 358.504C456.6 358.216 456.88 357.827 457.066 357.336C457.253 356.84 457.346 356.285 457.346 355.672C457.346 355.064 457.253 354.515 457.066 354.024C456.885 353.533 456.602 353.144 456.218 352.856C455.84 352.568 455.357 352.424 454.77 352.424C454.21 352.424 453.746 352.563 453.378 352.84C453.01 353.112 452.736 353.493 452.554 353.984C452.373 354.469 452.282 355.032 452.282 355.672C452.282 356.301 452.37 356.864 452.546 357.36C452.728 357.851 453.005 358.237 453.378 358.52C453.752 358.797 454.229 358.936 454.81 358.936Z" fill="white"/>
    <path d="M640 354H463.5" stroke="#D3D7E0" stroke-width="2"/>
    <path d="M650 354L650.707 353.293L651.414 354L650.707 354.707L650 354ZM642.707 362.707L642 363.414L640.586 362L641.293 361.293L642.707 362.707ZM641.293 346.707L640.586 346L642 344.586L642.707 345.293L641.293 346.707ZM640 353L650 353L650 355L640 355L640 353ZM650.707 354.707L642.707 362.707L641.293 361.293L649.293 353.293L650.707 354.707ZM649.293 354.707L641.293 346.707L642.707 345.293L650.707 353.293L649.293 354.707Z" fill="#D3D7E0"/>
    <path d="M250.203 37V26.92H256.174V28.383H251.666V31.225H255.334V32.695H251.666V37H250.203ZM257.435 37V26.92H261.509C261.607 26.92 261.728 26.9247 261.873 26.934C262.018 26.9387 262.155 26.9527 262.286 26.976C262.846 27.0647 263.313 27.256 263.686 27.55C264.064 27.844 264.346 28.215 264.533 28.663C264.72 29.111 264.813 29.6057 264.813 30.147C264.813 30.9497 264.608 31.6427 264.197 32.226C263.786 32.8047 263.17 33.1663 262.349 33.311L261.754 33.381H258.898V37H257.435ZM263.329 37L261.341 32.898L262.818 32.52L265.002 37H263.329ZM258.898 31.995H261.453C261.546 31.995 261.649 31.9903 261.761 31.981C261.878 31.9717 261.987 31.9553 262.09 31.932C262.389 31.862 262.629 31.7337 262.811 31.547C262.993 31.3557 263.124 31.1363 263.203 30.889C263.282 30.6417 263.322 30.3943 263.322 30.147C263.322 29.8997 263.282 29.6547 263.203 29.412C263.124 29.1647 262.993 28.9477 262.811 28.761C262.629 28.5697 262.389 28.439 262.09 28.369C261.987 28.341 261.878 28.3223 261.761 28.313C261.649 28.3037 261.546 28.299 261.453 28.299H258.898V31.995ZM266.261 36.993L266.268 35.691L270.657 31.757C271.011 31.4443 271.252 31.1457 271.378 30.861C271.508 30.5763 271.574 30.2917 271.574 30.007C271.574 29.6477 271.494 29.3257 271.336 29.041C271.177 28.7517 270.958 28.523 270.678 28.355C270.398 28.187 270.076 28.103 269.712 28.103C269.338 28.103 269.005 28.1917 268.711 28.369C268.421 28.5417 268.195 28.7727 268.032 29.062C267.868 29.3513 267.789 29.664 267.794 30H266.296C266.296 29.3467 266.443 28.775 266.737 28.285C267.035 27.7903 267.444 27.4053 267.962 27.13C268.48 26.85 269.072 26.71 269.74 26.71C270.374 26.71 270.944 26.8547 271.448 27.144C271.952 27.4287 272.348 27.8207 272.638 28.32C272.932 28.8193 273.079 29.3887 273.079 30.028C273.079 30.49 273.018 30.882 272.897 31.204C272.775 31.526 272.593 31.8247 272.351 32.1C272.108 32.3753 271.805 32.674 271.441 32.996L268.053 36.02L267.892 35.6H273.079V36.993H266.261Z" fill="white" fill-opacity="0.3"/>
    <path d="M338 112V24" stroke="white" stroke-opacity="0.3" stroke-width="2" stroke-linecap="square" stroke-dasharray="6 6"/>
    <path d="M368.08 37.21C367.072 37.21 366.213 36.9907 365.504 36.552C364.794 36.1087 364.251 35.4927 363.873 34.704C363.499 33.9153 363.313 33.0007 363.313 31.96C363.313 30.9193 363.499 30.0047 363.873 29.216C364.251 28.4273 364.794 27.8137 365.504 27.375C366.213 26.9317 367.072 26.71 368.08 26.71C369.242 26.71 370.203 27.004 370.964 27.592C371.729 28.18 372.261 28.971 372.56 29.965L371.076 30.364C370.88 29.6593 370.53 29.1063 370.026 28.705C369.526 28.3037 368.878 28.103 368.08 28.103C367.366 28.103 366.771 28.264 366.295 28.586C365.819 28.908 365.459 29.3583 365.217 29.937C364.979 30.5157 364.86 31.19 364.86 31.96C364.855 32.73 364.972 33.4043 365.21 33.983C365.452 34.5617 365.812 35.012 366.288 35.334C366.768 35.656 367.366 35.817 368.08 35.817C368.878 35.817 369.526 35.6163 370.026 35.215C370.53 34.809 370.88 34.256 371.076 33.556L372.56 33.955C372.261 34.949 371.729 35.74 370.964 36.328C370.203 36.916 369.242 37.21 368.08 37.21ZM374.099 37V26.92H377.256C377.349 26.92 377.522 26.9223 377.774 26.927C378.031 26.9317 378.276 26.9503 378.509 26.983C379.298 27.081 379.96 27.3633 380.497 27.83C381.038 28.2967 381.447 28.8893 381.722 29.608C381.997 30.322 382.135 31.106 382.135 31.96C382.135 32.8187 381.997 33.6073 381.722 34.326C381.447 35.04 381.038 35.6303 380.497 36.097C379.96 36.559 379.298 36.839 378.509 36.937C378.276 36.9697 378.031 36.9883 377.774 36.993C377.522 36.9977 377.349 37 377.256 37H374.099ZM375.597 35.607H377.256C377.415 35.607 377.604 35.6023 377.823 35.593C378.042 35.5837 378.236 35.565 378.404 35.537C378.917 35.439 379.333 35.2173 379.65 34.872C379.972 34.522 380.208 34.0927 380.357 33.584C380.506 33.0753 380.581 32.534 380.581 31.96C380.581 31.3673 380.504 30.819 380.35 30.315C380.196 29.8063 379.958 29.3817 379.636 29.041C379.319 28.6957 378.908 28.4763 378.404 28.383C378.236 28.3503 378.04 28.3317 377.816 28.327C377.597 28.3177 377.41 28.313 377.256 28.313H375.597V35.607ZM383.765 37V26.92H387.839C387.937 26.92 388.058 26.9247 388.203 26.934C388.348 26.9387 388.485 26.9527 388.616 26.976C389.176 27.0647 389.643 27.256 390.016 27.55C390.394 27.844 390.676 28.215 390.863 28.663C391.05 29.111 391.143 29.6057 391.143 30.147C391.143 30.9497 390.938 31.6427 390.527 32.226C390.116 32.8047 389.5 33.1663 388.679 33.311L388.084 33.381H385.228V37H383.765ZM389.659 37L387.671 32.898L389.148 32.52L391.332 37H389.659ZM385.228 31.995H387.783C387.876 31.995 387.979 31.9903 388.091 31.981C388.208 31.9717 388.317 31.9553 388.42 31.932C388.719 31.862 388.959 31.7337 389.141 31.547C389.323 31.3557 389.454 31.1363 389.533 30.889C389.612 30.6417 389.652 30.3943 389.652 30.147C389.652 29.8997 389.612 29.6547 389.533 29.412C389.454 29.1647 389.323 28.9477 389.141 28.761C388.959 28.5697 388.719 28.439 388.42 28.369C388.317 28.341 388.208 28.3223 388.091 28.313C387.979 28.3037 387.876 28.299 387.783 28.299H385.228V31.995ZM392.591 36.993L392.598 35.691L396.987 31.757C397.341 31.4443 397.582 31.1457 397.708 30.861C397.838 30.5763 397.904 30.2917 397.904 30.007C397.904 29.6477 397.824 29.3257 397.666 29.041C397.507 28.7517 397.288 28.523 397.008 28.355C396.728 28.187 396.406 28.103 396.042 28.103C395.668 28.103 395.335 28.1917 395.041 28.369C394.751 28.5417 394.525 28.7727 394.362 29.062C394.198 29.3513 394.119 29.664 394.124 30H392.626C392.626 29.3467 392.773 28.775 393.067 28.285C393.365 27.7903 393.774 27.4053 394.292 27.13C394.81 26.85 395.402 26.71 396.07 26.71C396.704 26.71 397.274 26.8547 397.778 27.144C398.282 27.4287 398.678 27.8207 398.968 28.32C399.262 28.8193 399.409 29.3887 399.409 30.028C399.409 30.49 399.348 30.882 399.227 31.204C399.105 31.526 398.923 31.8247 398.681 32.1C398.438 32.3753 398.135 32.674 397.771 32.996L394.383 36.02L394.222 35.6H399.409V36.993H392.591Z" fill="white" fill-opacity="0.3"/>
    <path d="M422 112V24" stroke="white" stroke-opacity="0.3" stroke-width="2" stroke-linecap="square" stroke-dasharray="6 6"/>
    <defs>
        <filter id="filter0_i_6016_38098" x="200.391" y="111" width="362.609" height="54" filterUnits="userSpaceOnUse" color-interpolation-filters="sRGB">
            <feFlood flood-opacity="0" result="BackgroundImageFix"/>
            <feBlend mode="normal" in="SourceGraphic" in2="BackgroundImageFix" result="shape"/>
            <feColorMatrix in="SourceAlpha" type="matrix" values="0 0 0 0 0 0 0 0 0 0 0 0 0 0 0 0 0 0 127 0" result="hardAlpha"/>
            <feOffset dx="-8" dy="-4"/>
            <feComposite in2="hardAlpha" operator="arithmetic" k2="-1" k3="1"/>
            <feColorMatrix type="matrix" values="0 0 0 0 0.0666667 0 0 0 0 0.0196078 0 0 0 0 0.160784 0 0 0 0.16 0"/>
            <feBlend mode="normal" in2="shape" result="effect1_innerShadow_6016_38098"/>
        </filter>
        <filter id="filter1_i_6016_38098" x="561" y="111" width="32" height="54" filterUnits="userSpaceOnUse" color-interpolation-filters="sRGB">
            <feFlood flood-opacity="0" result="BackgroundImageFix"/>
            <feBlend mode="normal" in="SourceGraphic" in2="BackgroundImageFix" result="shape"/>
            <feColorMatrix in="SourceAlpha" type="matrix" values="0 0 0 0 0 0 0 0 0 0 0 0 0 0 0 0 0 0 127 0" result="hardAlpha"/>
            <feOffset dx="-8" dy="-4"/>
            <feComposite in2="hardAlpha" operator="arithmetic" k2="-1" k3="1"/>
            <feColorMatrix type="matrix" values="0 0 0 0 0.0666667 0 0 0 0 0.0196078 0 0 0 0 0.160784 0 0 0 0.16 0"/>
            <feBlend mode="normal" in2="shape" result="effect1_innerShadow_6016_38098"/>
        </filter>
        <filter id="filter2_i_6016_38098" x="627" y="111" width="32" height="54" filterUnits="userSpaceOnUse" color-interpolation-filters="sRGB">
            <feFlood flood-opacity="0" result="BackgroundImageFix"/>
            <feBlend mode="normal" in="SourceGraphic" in2="BackgroundImageFix" result="shape"/>
            <feColorMatrix in="SourceAlpha" type="matrix" values="0 0 0 0 0 0 0 0 0 0 0 0 0 0 0 0 0 0 127 0" result="hardAlpha"/>
            <feOffset dx="-8" dy="-4"/>
            <feComposite in2="hardAlpha" operator="arithmetic" k2="-1" k3="1"/>
            <feColorMatrix type="matrix" values="0 0 0 0 0.0666667 0 0 0 0 0.0196078 0 0 0 0 0.160784 0 0 0 0.16 0"/>
            <feBlend mode="normal" in2="shape" result="effect1_innerShadow_6016_38098"/>
        </filter>
        <filter id="filter3_i_6016_38098" x="591" y="111" width="38" height="54" filterUnits="userSpaceOnUse" color-interpolation-filters="sRGB">
            <feFlood flood-opacity="0" result="BackgroundImageFix"/>
            <feBlend mode="normal" in="SourceGraphic" in2="BackgroundImageFix" result="shape"/>
            <feColorMatrix in="SourceAlpha" type="matrix" values="0 0 0 0 0 0 0 0 0 0 0 0 0 0 0 0 0 0 127 0" result="hardAlpha"/>
            <feOffset dx="-8" dy="-4"/>
            <feComposite in2="hardAlpha" operator="arithmetic" k2="-1" k3="1"/>
            <feColorMatrix type="matrix" values="0 0 0 0 0.0666667 0 0 0 0 0.0196078 0 0 0 0 0.160784 0 0 0 0.16 0"/>
            <feBlend mode="normal" in2="shape" result="effect1_innerShadow_6016_38098"/>
        </filter>
        <filter id="filter4_i_6016_38098" x="657" y="111" width="146" height="54" filterUnits="userSpaceOnUse" color-interpolation-filters="sRGB">
            <feFlood flood-opacity="0" result="BackgroundImageFix"/>
            <feBlend mode="normal" in="SourceGraphic" in2="BackgroundImageFix" result="shape"/>
            <feColorMatrix in="SourceAlpha" type="matrix" values="0 0 0 0 0 0 0 0 0 0 0 0 0 0 0 0 0 0 127 0" result="hardAlpha"/>
            <feOffset dx="-8" dy="-4"/>
            <feComposite in2="hardAlpha" operator="arithmetic" k2="-1" k3="1"/>
            <feColorMatrix type="matrix" values="0 0 0 0 0.0666667 0 0 0 0 0.0196078 0 0 0 0 0.160784 0 0 0 0.16 0"/>
            <feBlend mode="normal" in2="shape" result="effect1_innerShadow_6016_38098"/>
        </filter>
        <filter id="filter5_i_6016_38098" x="200.391" y="251" width="362.609" height="54" filterUnits="userSpaceOnUse" color-interpolation-filters="sRGB">
            <feFlood flood-opacity="0" result="BackgroundImageFix"/>
            <feBlend mode="normal" in="SourceGraphic" in2="BackgroundImageFix" result="shape"/>
            <feColorMatrix in="SourceAlpha" type="matrix" values="0 0 0 0 0 0 0 0 0 0 0 0 0 0 0 0 0 0 127 0" result="hardAlpha"/>
            <feOffset dx="-8" dy="-4"/>
            <feComposite in2="hardAlpha" operator="arithmetic" k2="-1" k3="1"/>
            <feColorMatrix type="matrix" values="0 0 0 0 0.0666667 0 0 0 0 0.0196078 0 0 0 0 0.160784 0 0 0 0.16 0"/>
            <feBlend mode="normal" in2="shape" result="effect1_innerShadow_6016_38098"/>
        </filter>
        <filter id="filter6_i_6016_38098" x="561" y="251" width="32" height="54" filterUnits="userSpaceOnUse" color-interpolation-filters="sRGB">
            <feFlood flood-opacity="0" result="BackgroundImageFix"/>
            <feBlend mode="normal" in="SourceGraphic" in2="BackgroundImageFix" result="shape"/>
            <feColorMatrix in="SourceAlpha" type="matrix" values="0 0 0 0 0 0 0 0 0 0 0 0 0 0 0 0 0 0 127 0" result="hardAlpha"/>
            <feOffset dx="-8" dy="-4"/>
            <feComposite in2="hardAlpha" operator="arithmetic" k2="-1" k3="1"/>
            <feColorMatrix type="matrix" values="0 0 0 0 0.0666667 0 0 0 0 0.0196078 0 0 0 0 0.160784 0 0 0 0.16 0"/>
            <feBlend mode="normal" in2="shape" result="effect1_innerShadow_6016_38098"/>
        </filter>
        <filter id="filter7_i_6016_38098" x="591" y="251" width="146" height="54" filterUnits="userSpaceOnUse" color-interpolation-filters="sRGB">
            <feFlood flood-opacity="0" result="BackgroundImageFix"/>
            <feBlend mode="normal" in="SourceGraphic" in2="BackgroundImageFix" result="shape"/>
            <feColorMatrix in="SourceAlpha" type="matrix" values="0 0 0 0 0 0 0 0 0 0 0 0 0 0 0 0 0 0 127 0" result="hardAlpha"/>
            <feOffset dx="-8" dy="-4"/>
            <feComposite in2="hardAlpha" operator="arithmetic" k2="-1" k3="1"/>
            <feColorMatrix type="matrix" values="0 0 0 0 0.0666667 0 0 0 0 0.0196078 0 0 0 0 0.160784 0 0 0 0.16 0"/>
            <feBlend mode="normal" in2="shape" result="effect1_innerShadow_6016_38098"/>
        </filter>
    </defs>
</svg>
