<svg width="960" height="376" viewBox="0 0 960 376" fill="none" xmlns="http://www.w3.org/2000/svg">
<rect width="960" height="376" fill="white"/>
<path d="M45 44L83 97" stroke="#D3D7E0" stroke-width="2" stroke-linecap="square" stroke-dasharray="6 6"/>
<path d="M187 44L149 97" stroke="#D3D7E0" stroke-width="2" stroke-linecap="square" stroke-dasharray="6 6"/>
<path d="M232 44V97" stroke="#D3D7E0" stroke-width="2" stroke-linecap="square" stroke-dasharray="6 6"/>
<path d="M40.3397 37V28.299H36.9867V26.92H45.1557V28.299H41.8027V37H40.3397ZM50.3989 37.21C49.7222 37.21 49.0992 37.0933 48.5299 36.86C47.9606 36.622 47.4659 36.2767 47.0459 35.824C46.6259 35.3713 46.2992 34.8207 46.0659 34.172C45.8326 33.5233 45.7159 32.786 45.7159 31.96C45.7159 30.8727 45.9142 29.9393 46.3109 29.16C46.7076 28.376 47.2582 27.774 47.9629 27.354C48.6676 26.9293 49.4796 26.717 50.3989 26.717C51.5842 26.717 52.5292 26.9923 53.2339 27.543C53.9432 28.0937 54.4262 28.8543 54.6829 29.825L53.1989 30.091C52.9936 29.489 52.6622 29.0083 52.2049 28.649C51.7476 28.2897 51.1736 28.1077 50.4829 28.103C49.7689 28.0983 49.1739 28.257 48.6979 28.579C48.2266 28.901 47.8719 29.3537 47.6339 29.937C47.3959 30.5157 47.2746 31.19 47.2699 31.96C47.2652 32.73 47.3819 33.4043 47.6199 33.983C47.8579 34.557 48.2149 35.005 48.6909 35.327C49.1716 35.649 49.7689 35.8123 50.4829 35.817C51.0569 35.8263 51.5492 35.7213 51.9599 35.502C52.3752 35.278 52.7042 34.9513 52.9469 34.522C53.1896 34.0927 53.3459 33.5653 53.4159 32.94H51.4559V31.764H54.9699C54.9792 31.848 54.9862 31.96 54.9909 32.1C54.9956 32.2353 54.9979 32.3217 54.9979 32.359C54.9979 33.2923 54.8182 34.1253 54.4589 34.858C54.0996 35.5907 53.5769 36.167 52.8909 36.587C52.2049 37.0023 51.3742 37.21 50.3989 37.21ZM60.5161 37.21C59.8394 37.21 59.2164 37.0933 58.6471 36.86C58.0778 36.622 57.5831 36.2767 57.1631 35.824C56.7431 35.3713 56.4164 34.8207 56.1831 34.172C55.9498 33.5233 55.8331 32.786 55.8331 31.96C55.8331 30.8727 56.0314 29.9393 56.4281 29.16C56.8248 28.376 57.3754 27.774 58.0801 27.354C58.7848 26.9293 59.5968 26.717 60.5161 26.717C61.7014 26.717 62.6464 26.9923 63.3511 27.543C64.0604 28.0937 64.5434 28.8543 64.8001 29.825L63.3161 30.091C63.1108 29.489 62.7794 29.0083 62.3221 28.649C61.8648 28.2897 61.2908 28.1077 60.6001 28.103C59.8861 28.0983 59.2911 28.257 58.8151 28.579C58.3438 28.901 57.9891 29.3537 57.7511 29.937C57.5131 30.5157 57.3918 31.19 57.3871 31.96C57.3824 32.73 57.4991 33.4043 57.7371 33.983C57.9751 34.557 58.3321 35.005 58.8081 35.327C59.2888 35.649 59.8861 35.8123 60.6001 35.817C61.1741 35.8263 61.6664 35.7213 62.0771 35.502C62.4924 35.278 62.8214 34.9513 63.0641 34.522C63.3068 34.0927 63.4631 33.5653 63.5331 32.94H61.5731V31.764H65.0871C65.0964 31.848 65.1034 31.96 65.1081 32.1C65.1128 32.2353 65.1151 32.3217 65.1151 32.359C65.1151 33.2923 64.9354 34.1253 64.5761 34.858C64.2168 35.5907 63.6941 36.167 63.0081 36.587C62.3221 37.0023 61.4914 37.21 60.5161 37.21ZM68.7498 37V28.299H65.3968V26.92H73.5658V28.299H70.2128V37H68.7498ZM73.7126 37L76.9886 26.92H79.0956L82.3716 37H80.8526L77.8356 27.802H78.2136L75.2316 37H73.7126ZM75.4136 34.725V33.353H80.6776V34.725H75.4136ZM85.3065 37V28.299H81.9535V26.92H90.1225V28.299H86.7695V37H85.3065ZM95.4497 37.21C94.4417 37.21 93.583 36.9907 92.8737 36.552C92.1644 36.1087 91.6207 35.4927 91.2427 34.704C90.8694 33.9153 90.6827 33.0007 90.6827 31.96C90.6827 30.9193 90.8694 30.0047 91.2427 29.216C91.6207 28.4273 92.1644 27.8137 92.8737 27.375C93.583 26.9317 94.4417 26.71 95.4497 26.71C96.6117 26.71 97.573 27.004 98.3337 27.592C99.099 28.18 99.631 28.971 99.9297 29.965L98.4457 30.364C98.2497 29.6593 97.8997 29.1063 97.3957 28.705C96.8964 28.3037 96.2477 28.103 95.4497 28.103C94.7357 28.103 94.1407 28.264 93.6647 28.586C93.1887 28.908 92.8294 29.3583 92.5867 29.937C92.3487 30.5157 92.2297 31.19 92.2297 31.96C92.225 32.73 92.3417 33.4043 92.5797 33.983C92.8224 34.5617 93.1817 35.012 93.6577 35.334C94.1384 35.656 94.7357 35.817 95.4497 35.817C96.2477 35.817 96.8964 35.6163 97.3957 35.215C97.8997 34.809 98.2497 34.256 98.4457 33.556L99.9297 33.955C99.631 34.949 99.099 35.74 98.3337 36.328C97.573 36.916 96.6117 37.21 95.4497 37.21ZM100.496 37L103.772 26.92H105.879L109.155 37H107.636L104.619 27.802H104.997L102.015 37H100.496ZM102.197 34.725V33.353H107.461V34.725H102.197ZM110.176 37L113.452 26.92H115.559L118.835 37H117.316L114.299 27.802H114.677L111.695 37H110.176ZM111.877 34.725V33.353H117.141V34.725H111.877ZM124.024 37.21C123.016 37.21 122.157 36.9907 121.448 36.552C120.739 36.1087 120.195 35.4927 119.817 34.704C119.444 33.9153 119.257 33.0007 119.257 31.96C119.257 30.9193 119.444 30.0047 119.817 29.216C120.195 28.4273 120.739 27.8137 121.448 27.375C122.157 26.9317 123.016 26.71 124.024 26.71C125.186 26.71 126.147 27.004 126.908 27.592C127.673 28.18 128.205 28.971 128.504 29.965L127.02 30.364C126.824 29.6593 126.474 29.1063 125.97 28.705C125.471 28.3037 124.822 28.103 124.024 28.103C123.31 28.103 122.715 28.264 122.239 28.586C121.763 28.908 121.404 29.3583 121.161 29.937C120.923 30.5157 120.804 31.19 120.804 31.96C120.799 32.73 120.916 33.4043 121.154 33.983C121.397 34.5617 121.756 35.012 122.232 35.334C122.713 35.656 123.31 35.817 124.024 35.817C124.822 35.817 125.471 35.6163 125.97 35.215C126.474 34.809 126.824 34.256 127.02 33.556L128.504 33.955C128.205 34.949 127.673 35.74 126.908 36.328C126.147 36.916 125.186 37.21 124.024 37.21ZM134.166 37.21C133.49 37.21 132.867 37.0933 132.297 36.86C131.728 36.622 131.233 36.2767 130.813 35.824C130.393 35.3713 130.067 34.8207 129.833 34.172C129.6 33.5233 129.483 32.786 129.483 31.96C129.483 30.8727 129.682 29.9393 130.078 29.16C130.475 28.376 131.026 27.774 131.73 27.354C132.435 26.9293 133.247 26.717 134.166 26.717C135.352 26.717 136.297 26.9923 137.001 27.543C137.711 28.0937 138.194 28.8543 138.45 29.825L136.966 30.091C136.761 29.489 136.43 29.0083 135.972 28.649C135.515 28.2897 134.941 28.1077 134.25 28.103C133.536 28.0983 132.941 28.257 132.465 28.579C131.994 28.901 131.639 29.3537 131.401 29.937C131.163 30.5157 131.042 31.19 131.037 31.96C131.033 32.73 131.149 33.4043 131.387 33.983C131.625 34.557 131.982 35.005 132.458 35.327C132.939 35.649 133.536 35.8123 134.25 35.817C134.824 35.8263 135.317 35.7213 135.727 35.502C136.143 35.278 136.472 34.9513 136.714 34.522C136.957 34.0927 137.113 33.5653 137.183 32.94H135.223V31.764H138.737C138.747 31.848 138.754 31.96 138.758 32.1C138.763 32.2353 138.765 32.3217 138.765 32.359C138.765 33.2923 138.586 34.1253 138.226 34.858C137.867 35.5907 137.344 36.167 136.658 36.587C135.972 37.0023 135.142 37.21 134.166 37.21ZM144.368 37.21C143.36 37.21 142.501 36.9907 141.792 36.552C141.082 36.1087 140.539 35.4927 140.161 34.704C139.787 33.9153 139.601 33.0007 139.601 31.96C139.601 30.9193 139.787 30.0047 140.161 29.216C140.539 28.4273 141.082 27.8137 141.792 27.375C142.501 26.9317 143.36 26.71 144.368 26.71C145.53 26.71 146.491 27.004 147.252 27.592C148.017 28.18 148.549 28.971 148.848 29.965L147.364 30.364C147.168 29.6593 146.818 29.1063 146.314 28.705C145.814 28.3037 145.166 28.103 144.368 28.103C143.654 28.103 143.059 28.264 142.583 28.586C142.107 28.908 141.747 29.3583 141.505 29.937C141.267 30.5157 141.148 31.19 141.148 31.96C141.143 32.73 141.26 33.4043 141.498 33.983C141.74 34.5617 142.1 35.012 142.576 35.334C143.056 35.656 143.654 35.817 144.368 35.817C145.166 35.817 145.814 35.6163 146.314 35.215C146.818 34.809 147.168 34.256 147.364 33.556L148.848 33.955C148.549 34.949 148.017 35.74 147.252 36.328C146.491 36.916 145.53 37.21 144.368 37.21ZM149.414 37L152.69 26.92H154.797L158.073 37H156.554L153.537 27.802H153.915L150.933 37H149.414ZM151.115 34.725V33.353H156.379V34.725H151.115ZM163.178 37.21C162.502 37.21 161.879 37.0933 161.309 36.86C160.74 36.622 160.245 36.2767 159.825 35.824C159.405 35.3713 159.079 34.8207 158.845 34.172C158.612 33.5233 158.495 32.786 158.495 31.96C158.495 30.8727 158.694 29.9393 159.09 29.16C159.487 28.376 160.038 27.774 160.742 27.354C161.447 26.9293 162.259 26.717 163.178 26.717C164.364 26.717 165.309 26.9923 166.013 27.543C166.723 28.0937 167.206 28.8543 167.462 29.825L165.978 30.091C165.773 29.489 165.442 29.0083 164.984 28.649C164.527 28.2897 163.953 28.1077 163.262 28.103C162.548 28.0983 161.953 28.257 161.477 28.579C161.006 28.901 160.651 29.3537 160.413 29.937C160.175 30.5157 160.054 31.19 160.049 31.96C160.045 32.73 160.161 33.4043 160.399 33.983C160.637 34.557 160.994 35.005 161.47 35.327C161.951 35.649 162.548 35.8123 163.262 35.817C163.836 35.8263 164.329 35.7213 164.739 35.502C165.155 35.278 165.484 34.9513 165.726 34.522C165.969 34.0927 166.125 33.5653 166.195 32.94H164.235V31.764H167.749C167.759 31.848 167.766 31.96 167.77 32.1C167.775 32.2353 167.777 32.3217 167.777 32.359C167.777 33.2923 167.598 34.1253 167.238 34.858C166.879 35.5907 166.356 36.167 165.67 36.587C164.984 37.0023 164.154 37.21 163.178 37.21ZM168.199 37L171.475 26.92H173.582L176.858 37H175.339L172.322 27.802H172.7L169.718 37H168.199ZM169.9 34.725V33.353H175.164V34.725H169.9ZM181.963 37.21C181.287 37.21 180.664 37.0933 180.094 36.86C179.525 36.622 179.03 36.2767 178.61 35.824C178.19 35.3713 177.864 34.8207 177.63 34.172C177.397 33.5233 177.28 32.786 177.28 31.96C177.28 30.8727 177.479 29.9393 177.875 29.16C178.272 28.376 178.823 27.774 179.527 27.354C180.232 26.9293 181.044 26.717 181.963 26.717C183.149 26.717 184.094 26.9923 184.798 27.543C185.508 28.0937 185.991 28.8543 186.247 29.825L184.763 30.091C184.558 29.489 184.227 29.0083 183.769 28.649C183.312 28.2897 182.738 28.1077 182.047 28.103C181.333 28.0983 180.738 28.257 180.262 28.579C179.791 28.901 179.436 29.3537 179.198 29.937C178.96 30.5157 178.839 31.19 178.834 31.96C178.83 32.73 178.946 33.4043 179.184 33.983C179.422 34.557 179.779 35.005 180.255 35.327C180.736 35.649 181.333 35.8123 182.047 35.817C182.621 35.8263 183.114 35.7213 183.524 35.502C183.94 35.278 184.269 34.9513 184.511 34.522C184.754 34.0927 184.91 33.5653 184.98 32.94H183.02V31.764H186.534C186.544 31.848 186.551 31.96 186.555 32.1C186.56 32.2353 186.562 32.3217 186.562 32.359C186.562 33.2923 186.383 34.1253 186.023 34.858C185.664 35.5907 185.141 36.167 184.455 36.587C183.769 37.0023 182.939 37.21 181.963 37.21ZM190.197 37V28.299H186.844V26.92H195.013V28.299H191.66V37H190.197Z" fill="#110529"/>
<path d="M217.289 37H218.752V28.299H222.105V26.92H213.936V28.299H217.289V37ZM227.432 37.21C229.756 37.21 231.317 35.943 231.912 33.955L230.428 33.556C230.029 34.963 229.028 35.817 227.432 35.817C225.29 35.817 224.198 34.27 224.212 31.96C224.219 29.65 225.29 28.103 227.432 28.103C229.028 28.103 230.029 28.957 230.428 30.364L231.912 29.965C231.317 27.977 229.756 26.71 227.432 26.71C224.408 26.71 222.665 28.845 222.665 31.96C222.665 35.075 224.408 37.21 227.432 37.21ZM235.965 37H237.428V28.299H240.781V26.92H232.612V28.299H235.965V37ZM245.248 37H246.711V28.299H250.064V26.92H241.895V28.299H245.248V37Z" fill="#110529"/>
<path d="M272 144V24" stroke="#D3D7E0" stroke-width="2" stroke-linecap="square" stroke-dasharray="6 6"/>
<path d="M286.268 37.21C288.151 37.21 289.768 35.705 289.768 33.829C289.768 31.939 288.382 30.525 286.499 30.525C285.904 30.525 285.274 30.714 284.777 31.071L284.945 28.299H289.075V26.92H283.636L283.328 32.219L284.602 32.667C284.917 32.247 285.484 31.855 286.31 31.855C287.388 31.855 288.291 32.723 288.291 33.829C288.291 34.907 287.416 35.796 286.31 35.796C285.47 35.796 284.637 35.229 284.406 34.333L282.999 34.711C283.412 36.181 284.714 37.21 286.268 37.21ZM291.672 29.629L291.581 30.28C292.589 30.462 293.128 29.846 293.128 28.747V26.92H291.581V28.607H292.386C292.456 29.202 292.281 29.678 291.672 29.629ZM299.15 37.21C301.523 37.21 303.168 35.663 303.168 33.29V26.92H301.684V33.213C301.684 34.914 300.417 35.831 299.15 35.831C297.897 35.831 296.616 34.935 296.616 33.213V26.92L295.132 26.927V33.29C295.132 35.663 296.777 37.21 299.15 37.21ZM307.639 37H309.102V28.299H312.455V26.92H304.286V28.299H307.639V37ZM313.576 37H315.039V33.381H317.713L319.47 37H321.143L319.239 33.094C320.38 32.597 320.954 31.491 320.954 30.147C320.954 28.516 320.114 27.235 318.427 26.976C318.161 26.934 317.846 26.92 317.65 26.92H313.576V37ZM315.039 31.995V28.299H317.594C317.776 28.299 318.021 28.313 318.231 28.369C319.127 28.579 319.463 29.405 319.463 30.147C319.463 30.889 319.127 31.715 318.231 31.932C318.021 31.981 317.776 31.995 317.594 31.995H315.039Z" fill="#D3D7E0"/>
<path d="M332 144V24" stroke="#D3D7E0" stroke-width="2" stroke-linecap="square" stroke-dasharray="6 6"/>
<path d="M341.442 37H347.469V35.621H342.905V26.92H341.442V37Z" fill="#D3D7E0"/>
<path d="M356 144V24" stroke="#D3D7E0" stroke-width="2" stroke-linecap="square" stroke-dasharray="6 6"/>
<path d="M369.858 37H371.321V32.695H374.989V31.225H371.321V28.383H375.829V26.92H369.858V37ZM377.09 37H378.553V33.381H381.227L382.984 37H384.657L382.753 33.094C383.894 32.597 384.468 31.491 384.468 30.147C384.468 28.516 383.628 27.235 381.941 26.976C381.675 26.934 381.36 26.92 381.164 26.92H377.09V37ZM378.553 31.995V28.299H381.108C381.29 28.299 381.535 28.313 381.745 28.369C382.641 28.579 382.977 29.405 382.977 30.147C382.977 30.889 382.641 31.715 381.745 31.932C381.535 31.981 381.29 31.995 381.108 31.995H378.553ZM387.953 37H389.444V26.92H387.953L386.056 28.054V29.685L387.953 28.53V37Z" fill="#D3D7E0"/>
<path d="M404 144V24" stroke="#D3D7E0" stroke-width="2" stroke-linecap="square" stroke-dasharray="6 6"/>
<path d="M415.735 37.21C418.059 37.21 419.62 35.943 420.215 33.955L418.731 33.556C418.332 34.963 417.331 35.817 415.735 35.817C413.593 35.817 412.501 34.27 412.515 31.96C412.522 29.65 413.593 28.103 415.735 28.103C417.331 28.103 418.332 28.957 418.731 30.364L420.215 29.965C419.62 27.977 418.059 26.71 415.735 26.71C412.711 26.71 410.968 28.845 410.968 31.96C410.968 35.075 412.711 37.21 415.735 37.21ZM421.754 37H424.911C425.093 37 425.695 37 426.164 36.937C428.53 36.636 429.79 34.529 429.79 31.96C429.79 29.391 428.53 27.284 426.164 26.983C425.695 26.92 425.093 26.92 424.911 26.92H421.754V37ZM423.252 35.607V28.313H424.911C425.219 28.313 425.723 28.32 426.059 28.383C427.571 28.663 428.236 30.189 428.236 31.96C428.236 33.689 427.599 35.243 426.059 35.537C425.723 35.6 425.233 35.607 424.911 35.607H423.252ZM431.42 37H432.883V33.381H435.557L437.314 37H438.987L437.083 33.094C438.224 32.597 438.798 31.491 438.798 30.147C438.798 28.516 437.958 27.235 436.271 26.976C436.005 26.934 435.69 26.92 435.494 26.92H431.42V37ZM432.883 31.995V28.299H435.438C435.62 28.299 435.865 28.313 436.075 28.369C436.971 28.579 437.307 29.405 437.307 30.147C437.307 30.889 436.971 31.715 436.075 31.932C435.865 31.981 435.62 31.995 435.438 31.995H432.883ZM442.283 37H443.774V26.92H442.283L440.386 28.054V29.685L442.283 28.53V37Z" fill="#D3D7E0"/>
<path d="M452 144V24" stroke="#D3D7E0" stroke-width="2" stroke-linecap="square" stroke-dasharray="6 6"/>
<path d="M464.703 37H466.166V32.695H469.834V31.225H466.166V28.383H470.674V26.92H464.703V37ZM471.935 37H473.398V33.381H476.072L477.829 37H479.502L477.598 33.094C478.739 32.597 479.313 31.491 479.313 30.147C479.313 28.516 478.473 27.235 476.786 26.976C476.52 26.934 476.205 26.92 476.009 26.92H471.935V37ZM473.398 31.995V28.299H475.953C476.135 28.299 476.38 28.313 476.59 28.369C477.486 28.579 477.822 29.405 477.822 30.147C477.822 30.889 477.486 31.715 476.59 31.932C476.38 31.981 476.135 31.995 475.953 31.995H473.398ZM480.761 36.993H487.579V35.6H483.022L485.941 32.996C487.033 32.037 487.579 31.407 487.579 30.028C487.579 28.117 486.144 26.71 484.24 26.71C482.231 26.71 480.796 28.047 480.796 30H482.294C482.28 28.985 483.092 28.103 484.212 28.103C485.297 28.103 486.074 28.929 486.074 30.007C486.074 30.581 485.864 31.127 485.157 31.757L480.768 35.691L480.761 36.993Z" fill="#D3D7E0"/>
<path d="M500 144V24" stroke="#D3D7E0" stroke-width="2" stroke-linecap="square" stroke-dasharray="6 6"/>
<path d="M510.58 37.21C512.904 37.21 514.465 35.943 515.06 33.955L513.576 33.556C513.177 34.963 512.176 35.817 510.58 35.817C508.438 35.817 507.346 34.27 507.36 31.96C507.367 29.65 508.438 28.103 510.58 28.103C512.176 28.103 513.177 28.957 513.576 30.364L515.06 29.965C514.465 27.977 512.904 26.71 510.58 26.71C507.556 26.71 505.813 28.845 505.813 31.96C505.813 35.075 507.556 37.21 510.58 37.21ZM516.599 37H519.756C519.938 37 520.54 37 521.009 36.937C523.375 36.636 524.635 34.529 524.635 31.96C524.635 29.391 523.375 27.284 521.009 26.983C520.54 26.92 519.938 26.92 519.756 26.92H516.599V37ZM518.097 35.607V28.313H519.756C520.064 28.313 520.568 28.32 520.904 28.383C522.416 28.663 523.081 30.189 523.081 31.96C523.081 33.689 522.444 35.243 520.904 35.537C520.568 35.6 520.078 35.607 519.756 35.607H518.097ZM526.265 37H527.728V33.381H530.402L532.159 37H533.832L531.928 33.094C533.069 32.597 533.643 31.491 533.643 30.147C533.643 28.516 532.803 27.235 531.116 26.976C530.85 26.934 530.535 26.92 530.339 26.92H526.265V37ZM527.728 31.995V28.299H530.283C530.465 28.299 530.71 28.313 530.92 28.369C531.816 28.579 532.152 29.405 532.152 30.147C532.152 30.889 531.816 31.715 530.92 31.932C530.71 31.981 530.465 31.995 530.283 31.995H527.728ZM535.091 36.993H541.909V35.6H537.352L540.271 32.996C541.363 32.037 541.909 31.407 541.909 30.028C541.909 28.117 540.474 26.71 538.57 26.71C536.561 26.71 535.126 28.047 535.126 30H536.624C536.61 28.985 537.422 28.103 538.542 28.103C539.627 28.103 540.404 28.929 540.404 30.007C540.404 30.581 540.194 31.127 539.487 31.757L535.098 35.691L535.091 36.993Z" fill="#D3D7E0"/>
<path d="M548 144V24" stroke="#D3D7E0" stroke-width="2" stroke-linecap="square" stroke-dasharray="6 6"/>
<path d="M560.805 37H562.268V32.695H565.936V31.225H562.268V28.383H566.776V26.92H560.805V37ZM568.038 37H569.501V33.381H572.175L573.932 37H575.605L573.701 33.094C574.842 32.597 575.416 31.491 575.416 30.147C575.416 28.516 574.576 27.235 572.889 26.976C572.623 26.934 572.308 26.92 572.112 26.92H568.038V37ZM569.501 31.995V28.299H572.056C572.238 28.299 572.483 28.313 572.693 28.369C573.589 28.579 573.925 29.405 573.925 30.147C573.925 30.889 573.589 31.715 572.693 31.932C572.483 31.981 572.238 31.995 572.056 31.995H569.501ZM579.964 37.189C581.847 37.189 583.331 35.796 583.331 33.871C583.331 32.233 582.323 30.924 580.692 30.707L583.184 28.313V26.92H577.122V28.313H581.392L578.312 31.036L578.998 32.191C579.285 32.037 579.628 31.939 579.95 31.939C581.07 31.939 581.833 32.751 581.833 33.871C581.833 34.984 581.07 35.789 579.964 35.803C579.138 35.81 578.403 35.341 578.137 34.466L576.723 34.858C577.15 36.293 578.466 37.189 579.964 37.189Z" fill="#D3D7E0"/>
<path d="M596 144V24" stroke="#D3D7E0" stroke-width="2" stroke-linecap="square" stroke-dasharray="6 6"/>
<path d="M646.682 37.21C649.006 37.21 650.567 35.943 651.162 33.955L649.678 33.556C649.279 34.963 648.278 35.817 646.682 35.817C644.54 35.817 643.448 34.27 643.462 31.96C643.469 29.65 644.54 28.103 646.682 28.103C648.278 28.103 649.279 28.957 649.678 30.364L651.162 29.965C650.567 27.977 649.006 26.71 646.682 26.71C643.658 26.71 641.915 28.845 641.915 31.96C641.915 35.075 643.658 37.21 646.682 37.21ZM652.702 37H655.859C656.041 37 656.643 37 657.112 36.937C659.478 36.636 660.738 34.529 660.738 31.96C660.738 29.391 659.478 27.284 657.112 26.983C656.643 26.92 656.041 26.92 655.859 26.92H652.702V37ZM654.2 35.607V28.313H655.859C656.167 28.313 656.671 28.32 657.007 28.383C658.519 28.663 659.184 30.189 659.184 31.96C659.184 33.689 658.547 35.243 657.007 35.537C656.671 35.6 656.181 35.607 655.859 35.607H654.2ZM662.368 37H663.831V33.381H666.505L668.262 37H669.935L668.031 33.094C669.172 32.597 669.746 31.491 669.746 30.147C669.746 28.516 668.906 27.235 667.219 26.976C666.953 26.934 666.638 26.92 666.442 26.92H662.368V37ZM663.831 31.995V28.299H666.386C666.568 28.299 666.813 28.313 667.023 28.369C667.919 28.579 668.255 29.405 668.255 30.147C668.255 30.889 667.919 31.715 667.023 31.932C666.813 31.981 666.568 31.995 666.386 31.995H663.831ZM674.294 37.189C676.177 37.189 677.661 35.796 677.661 33.871C677.661 32.233 676.653 30.924 675.022 30.707L677.514 28.313V26.92H671.452V28.313H675.722L672.642 31.036L673.328 32.191C673.615 32.037 673.958 31.939 674.28 31.939C675.4 31.939 676.163 32.751 676.163 33.871C676.163 34.984 675.4 35.789 674.294 35.803C673.468 35.81 672.733 35.341 672.467 34.466L671.053 34.858C671.48 36.293 672.796 37.189 674.294 37.189Z" fill="#D3D7E0"/>
<path d="M724 144V24" stroke="#D3D7E0" stroke-width="2" stroke-linecap="square" stroke-dasharray="6 6"/>
<path d="M776.593 37H778.056V32.695H781.724V31.225H778.056V28.383H782.564V26.92H776.593V37ZM783.826 37H785.289V33.381H787.963L789.72 37H791.393L789.489 33.094C790.63 32.597 791.204 31.491 791.204 30.147C791.204 28.516 790.364 27.235 788.677 26.976C788.411 26.934 788.096 26.92 787.9 26.92H783.826V37ZM785.289 31.995V28.299H787.844C788.026 28.299 788.271 28.313 788.481 28.369C789.377 28.579 789.713 29.405 789.713 30.147C789.713 30.889 789.377 31.715 788.481 31.932C788.271 31.981 788.026 31.995 787.844 31.995H785.289ZM797.201 37H798.685V35.243H799.686V33.857H798.685V31.127H797.201V33.857H794.324L797.6 26.92H795.927L792.651 33.857V35.243H797.201V37Z" fill="#D3D7E0"/>
<path d="M852 144V24" stroke="#D3D7E0" stroke-width="2" stroke-linecap="square" stroke-dasharray="6 6"/>
<rect width="46" height="20" transform="translate(160 72)" fill="white"/>
<path d="M167.267 76L165 77.35V79L167.267 77.6333V88H168.767V76H167.267ZM178.582 84.3833V81H177.082V84.3833H173.166L177.116 76H175.566L171.599 84.3833V85.7833H177.082V88H178.582V85.7833H179.832V84.3833H178.582ZM189.272 80.1833C188.539 79.25 187.389 78.75 186.155 78.75C185.089 78.75 184.072 79.15 183.339 79.85V76H181.839V88H183.172V86.95C183.889 87.8167 184.955 88.25 186.155 88.25C187.372 88.25 188.522 87.7333 189.272 86.8C190.022 85.85 190.272 84.6667 190.272 83.4833C190.272 82.3 189.989 81.1 189.272 80.1833ZM188.072 85.8833C187.589 86.5667 186.789 86.8833 185.972 86.8833C185.139 86.8833 184.372 86.5833 183.872 85.9667C183.372 85.35 183.172 84.4167 183.172 83.4833C183.172 82.5667 183.372 81.65 183.872 81.0167C184.355 80.4 185.105 80.1 185.922 80.1C186.805 80.1 187.572 80.4167 188.055 81.1C188.522 81.7167 188.689 82.5833 188.689 83.4833C188.689 84.3833 188.539 85.2667 188.072 85.8833ZM199.538 80.1833C198.804 79.25 197.654 78.75 196.421 78.75C195.271 78.75 194.171 79.2 193.438 80.0167V79H192.104V92H193.604V87.15C194.304 87.8833 195.304 88.25 196.421 88.25C197.638 88.25 198.788 87.7333 199.538 86.8C200.288 85.85 200.538 84.6667 200.538 83.4833C200.538 82.3 200.254 81.1 199.538 80.1833ZM198.338 85.8833C197.854 86.5667 197.054 86.8833 196.238 86.8833C195.404 86.8833 194.638 86.5833 194.138 85.9667C193.638 85.35 193.438 84.4167 193.438 83.4833C193.438 82.5667 193.638 81.65 194.138 81.0167C194.621 80.4 195.371 80.1 196.188 80.1C197.071 80.1 197.838 80.4167 198.321 81.1C198.788 81.7167 198.954 82.5833 198.954 83.4833C198.954 84.3833 198.804 85.2667 198.338 85.8833Z" fill="#110529"/>
<rect width="56" height="20" transform="translate(236 72)" fill="white"/>
<path d="M247.417 81.6167C246.783 80.9667 245.933 80.6 244.967 80.5333L248.217 77.4667V76H241.15V77.4167H246.2L242.483 80.9333L243.2 82.1167C243.567 81.9167 244.033 81.8 244.433 81.8C245.05 81.8 245.633 81.9833 246.083 82.3833C246.617 82.8667 246.85 83.5833 246.85 84.3C246.85 85.05 246.617 85.7833 246.017 86.2667C245.6 86.6167 245.033 86.8 244.45 86.8167C243.883 86.8167 243.317 86.6333 242.883 86.2833C242.5 86 242.25 85.5833 242.1 85.1167L240.667 85.5333C240.883 86.2333 241.317 86.9 241.9 87.3667C242.633 87.95 243.55 88.25 244.467 88.2333C245.367 88.2167 246.3 87.95 247.017 87.35C247.9 86.6333 248.35 85.5 248.383 84.3C248.4 83.3167 248.083 82.3167 247.417 81.6167ZM250.391 82.6833V83.9H255.391V82.6833H250.391ZM264.457 84.3833V81H262.957V84.3833H259.041L262.991 76H261.441L257.474 84.3833V85.7833H262.957V88H264.457V85.7833H265.707V84.3833H264.457ZM275.147 80.1833C274.414 79.25 273.264 78.75 272.03 78.75C270.964 78.75 269.947 79.15 269.214 79.85V76H267.714V88H269.047V86.95C269.764 87.8167 270.83 88.25 272.03 88.25C273.247 88.25 274.397 87.7333 275.147 86.8C275.897 85.85 276.147 84.6667 276.147 83.4833C276.147 82.3 275.864 81.1 275.147 80.1833ZM273.947 85.8833C273.464 86.5667 272.664 86.8833 271.847 86.8833C271.014 86.8833 270.247 86.5833 269.747 85.9667C269.247 85.35 269.047 84.4167 269.047 83.4833C269.047 82.5667 269.247 81.65 269.747 81.0167C270.23 80.4 270.98 80.1 271.797 80.1C272.68 80.1 273.447 80.4167 273.93 81.1C274.397 81.7167 274.564 82.5833 274.564 83.4833C274.564 84.3833 274.414 85.2667 273.947 85.8833ZM285.413 80.1833C284.679 79.25 283.529 78.75 282.296 78.75C281.146 78.75 280.046 79.2 279.313 80.0167V79H277.979V92H279.479V87.15C280.179 87.8833 281.179 88.25 282.296 88.25C283.513 88.25 284.663 87.7333 285.413 86.8C286.163 85.85 286.413 84.6667 286.413 83.4833C286.413 82.3 286.129 81.1 285.413 80.1833ZM284.213 85.8833C283.729 86.5667 282.929 86.8833 282.113 86.8833C281.279 86.8833 280.513 86.5833 280.013 85.9667C279.513 85.35 279.313 84.4167 279.313 83.4833C279.313 82.5667 279.513 81.65 280.013 81.0167C280.496 80.4 281.246 80.1 282.063 80.1C282.946 80.1 283.713 80.4167 284.196 81.1C284.663 81.7167 284.829 82.5833 284.829 83.4833C284.829 84.3833 284.679 85.2667 284.213 85.8833Z" fill="#110529"/>
<g filter="url(#filter0_i_5544_35186)">
<rect x="272" y="104" width="340" height="52" rx="1" fill="#99E099"/>
<path d="M440.758 138H443.238L448.058 123.6H446.208L441.978 136.11L437.788 123.6H435.938L440.758 138Z" fill="#110529"/>
<rect x="272" y="104" width="340" height="52" rx="1" stroke="#110529" stroke-width="2" stroke-linecap="round"/>
</g>
<g filter="url(#filter1_i_5544_35186)">
<rect x="708" y="104" width="144" height="52" rx="1" fill="#C1ADFF"/>
<path d="M779.244 138.29C780.694 138.29 781.954 137.7 782.684 136.43C783.214 135.51 783.154 134.72 783.154 133.48V123.6H781.354V133.48C781.354 134.37 781.354 134.99 781.094 135.51C780.704 136.29 779.884 136.6 779.204 136.6C778.134 136.6 777.224 135.83 777.014 134.85L775.244 135.27C775.754 137.11 777.224 138.29 779.244 138.29Z" fill="#110529"/>
<rect x="708" y="104" width="144" height="52" rx="1" stroke="#110529" stroke-width="2" stroke-linecap="round"/>
</g>
<g filter="url(#filter2_i_5544_35186)">
<path d="M916 104H853.6C853.04 104 852.76 104 852.546 104.109C852.358 104.205 852.205 104.358 852.109 104.546C852 104.76 852 105.04 852 105.6V154.4C852 154.96 852 155.24 852.109 155.454C852.205 155.642 852.358 155.795 852.546 155.891C852.76 156 853.04 156 853.6 156H916L911 149.5L916 143L911 136L916 130L911 123.5L916 117L911 110.5L916 104Z" fill="#FAFAAA"/>
</g>
<path d="M916 104H853.6C853.04 104 852.76 104 852.546 104.109C852.358 104.205 852.205 104.358 852.109 104.546C852 104.76 852 105.04 852 105.6V154.4C852 154.96 852 155.24 852.109 155.454C852.205 155.642 852.358 155.795 852.546 155.891C852.76 156 853.04 156 853.6 156H916L911 149.5L916 143L911 136L916 130L911 123.5L916 117L911 110.5L916 104Z" stroke="#110529" stroke-width="2" stroke-linecap="round"/>
<path d="M884.593 138.3C887.923 138.3 890.113 136.47 890.933 133.61L889.123 133.13C888.533 135.27 887.023 136.6 884.593 136.6C881.373 136.6 879.733 134.25 879.753 130.8C879.773 127.35 881.373 125 884.593 125C887.023 125 888.533 126.33 889.123 128.47L890.933 127.99C890.113 125.13 887.923 123.3 884.593 123.3C880.283 123.3 877.873 126.36 877.873 130.8C877.873 135.24 880.283 138.3 884.593 138.3Z" fill="#110529"/>
<g filter="url(#filter3_i_5544_35186)">
<rect x="148" y="104" width="72" height="52" rx="1" fill="#D6E0FF"/>
<path d="M172.553 138.3C175.893 138.3 178.233 136.1 178.233 132.75V123.6H176.433V132.6C176.433 135.31 174.393 136.62 172.553 136.62C170.733 136.62 168.673 135.33 168.673 132.6V123.6L166.873 123.61V132.75C166.873 136.11 169.213 138.3 172.553 138.3ZM181.033 138H182.723V127.51L187.613 138H188.563L193.453 127.51V137.99H195.143V123.6H193.503L188.093 135.07L182.653 123.6H181.033V138ZM198.147 138H199.927V123.6H198.147V138Z" fill="#110529"/>
<rect x="148" y="104" width="72" height="52" rx="1" stroke="#110529" stroke-width="2" stroke-linecap="round"/>
</g>
<g filter="url(#filter4_i_5544_35186)">
<rect x="84" y="104" width="64" height="52" rx="1" fill="#D3D7E0"/>
<rect x="84" y="104" width="64" height="52" rx="1" stroke="#110529" stroke-width="2" stroke-linecap="round"/>
</g>
<g filter="url(#filter5_i_5544_35186)">
<rect x="220" y="104" width="24" height="52" rx="1" fill="#D3D7E0"/>
<rect x="220" y="104" width="24" height="52" rx="1" stroke="#110529" stroke-width="2" stroke-linecap="round"/>
</g>
<g filter="url(#filter6_i_5544_35186)">
<rect x="244" y="104" width="28" height="52" rx="1" fill="#FFADBA"/>
<path d="M258.091 138.3C262.301 138.3 264.541 135.39 264.541 131.44C264.541 131.32 264.531 130.87 264.501 130.59H259.561V132.06H262.621C262.401 134.93 260.961 136.62 258.181 136.6C254.961 136.58 253.331 134.25 253.351 130.8C253.371 127.35 254.961 124.99 258.181 125.01C260.231 125.02 261.621 126.14 262.231 127.88L264.031 127.51C263.281 124.92 261.311 123.31 258.091 123.31C254.061 123.31 251.461 126.21 251.461 130.8C251.461 135.44 254.121 138.3 258.091 138.3Z" fill="#110529"/>
<rect x="244" y="104" width="28" height="52" rx="1" stroke="#110529" stroke-width="2" stroke-linecap="round"/>
</g>
<path d="M49.4 192H51.18V186.68H55.39L57.97 192H60.01L57.23 186.29C58.86 185.61 59.71 184.04 59.71 182.14C59.71 179.85 58.48 178.04 56.15 177.68C55.78 177.62 55.37 177.6 55.09 177.6H49.4V192ZM51.18 184.99V179.29H55.03C55.28 179.29 55.63 179.31 55.93 179.38C57.31 179.69 57.89 180.94 57.89 182.14C57.89 183.34 57.31 184.59 55.93 184.9C55.63 184.97 55.28 184.99 55.03 184.99H51.18ZM61.8125 191.99H71.3825V190.29H64.5525L69.1925 186.12C70.6725 184.81 71.3825 183.86 71.3825 181.97C71.3825 179.32 69.3625 177.3 66.6925 177.3C63.9225 177.3 61.8825 179.23 61.8825 181.94H63.7025C63.6825 180.37 64.9425 179 66.6625 179C68.3225 179 69.5625 180.29 69.5625 181.95C69.5625 182.86 69.2725 183.69 68.2125 184.64L61.8225 190.39L61.8125 191.99Z" fill="#110529"/>
<path d="M81 176V192H91V200L105 184L91 168V176H81Z" fill="#110529"/>
<path d="M49.4 344H51.18V338.68H55.39L57.97 344H60.01L57.23 338.29C58.86 337.61 59.71 336.04 59.71 334.14C59.71 331.85 58.48 330.04 56.15 329.68C55.78 329.62 55.37 329.6 55.09 329.6H49.4V344ZM51.18 336.99V331.29H55.03C55.28 331.29 55.63 331.31 55.93 331.38C57.31 331.69 57.89 332.94 57.89 334.14C57.89 335.34 57.31 336.59 55.93 336.9C55.63 336.97 55.28 336.99 55.03 336.99H51.18ZM61.8125 343.99H71.3825V342.29H64.5525L69.1925 338.12C70.6725 336.81 71.3825 335.86 71.3825 333.97C71.3825 331.32 69.3625 329.3 66.6925 329.3C63.9225 329.3 61.8825 331.23 61.8825 333.94H63.7025C63.6825 332.37 64.9425 331 66.6625 331C68.3225 331 69.5625 332.29 69.5625 333.95C69.5625 334.86 69.2725 335.69 68.2125 336.64L61.8225 342.39L61.8125 343.99Z" fill="#110529"/>
<path d="M81 328V344H91V352L105 336L91 320V328H81Z" fill="#110529"/>
<path d="M213 184H110" stroke="#110529" stroke-width="2" stroke-linecap="square"/>
<rect width="56" height="20" transform="translate(213 174)" fill="white"/>
<path d="M220.267 178L218 179.35V181L220.267 179.633V190H221.767V178H220.267ZM225.332 178L224.966 184.167L226.299 184.933C226.449 184.683 226.632 184.45 226.849 184.267C227.299 183.85 227.899 183.633 228.532 183.633C229.199 183.633 229.816 183.9 230.282 184.317C230.799 184.8 231.116 185.483 231.116 186.217C231.116 186.933 230.832 187.583 230.349 188.067C229.882 188.533 229.232 188.8 228.532 188.8C227.866 188.8 227.249 188.55 226.782 188.117C226.416 187.8 226.149 187.367 226.032 186.883L224.599 187.267C224.799 187.983 225.199 188.65 225.732 189.15C226.466 189.85 227.482 190.25 228.532 190.233C229.616 190.217 230.649 189.817 231.399 189.067C232.132 188.333 232.599 187.3 232.616 186.217C232.616 185.083 232.182 184.033 231.332 183.267C230.616 182.633 229.666 182.267 228.699 182.267C227.882 182.267 227.082 182.567 226.449 183.067L226.666 179.4H231.649V178H225.332ZM238.67 190.25C237.52 190.25 236.37 189.783 235.62 188.917C234.886 188.067 234.62 187.183 234.62 186.033V181.95C234.62 180.783 234.886 179.9 235.653 179.017C236.386 178.217 237.486 177.733 238.67 177.75C239.82 177.733 240.936 178.167 241.703 179.017C242.453 179.85 242.72 180.767 242.72 181.95V186.033C242.72 187.167 242.47 188.083 241.72 188.933C240.97 189.767 239.87 190.25 238.67 190.25ZM238.67 179.167C237.803 179.15 236.986 179.633 236.536 180.333C236.236 180.783 236.136 181.317 236.136 181.95V186.033C236.136 186.617 236.22 187.183 236.553 187.667C237.02 188.367 237.803 188.833 238.67 188.817C239.553 188.833 240.353 188.367 240.803 187.667C241.136 187.183 241.22 186.683 241.22 186.033V181.95C241.22 181.333 241.136 180.867 240.82 180.35C240.37 179.633 239.553 179.15 238.67 179.167ZM252.491 182.183C251.757 181.25 250.607 180.75 249.374 180.75C248.307 180.75 247.291 181.15 246.557 181.85V178H245.057V190H246.391V188.95C247.107 189.817 248.174 190.25 249.374 190.25C250.591 190.25 251.741 189.733 252.491 188.8C253.241 187.85 253.491 186.667 253.491 185.483C253.491 184.3 253.207 183.1 252.491 182.183ZM251.291 187.883C250.807 188.567 250.007 188.883 249.191 188.883C248.357 188.883 247.591 188.583 247.091 187.967C246.591 187.35 246.391 186.417 246.391 185.483C246.391 184.567 246.591 183.65 247.091 183.017C247.574 182.4 248.324 182.1 249.141 182.1C250.024 182.1 250.791 182.417 251.274 183.1C251.741 183.717 251.907 184.583 251.907 185.483C251.907 186.383 251.757 187.267 251.291 187.883ZM262.756 182.183C262.023 181.25 260.873 180.75 259.64 180.75C258.49 180.75 257.39 181.2 256.656 182.017V181H255.323V194H256.823V189.15C257.523 189.883 258.523 190.25 259.64 190.25C260.856 190.25 262.006 189.733 262.756 188.8C263.506 187.85 263.756 186.667 263.756 185.483C263.756 184.3 263.473 183.1 262.756 182.183ZM261.556 187.883C261.073 188.567 260.273 188.883 259.456 188.883C258.623 188.883 257.856 188.583 257.356 187.967C256.856 187.35 256.656 186.417 256.656 185.483C256.656 184.567 256.856 183.65 257.356 183.017C257.84 182.4 258.59 182.1 259.406 182.1C260.29 182.1 261.056 182.417 261.54 183.1C262.006 183.717 262.173 184.583 262.173 185.483C262.173 186.383 262.023 187.267 261.556 187.883Z" fill="#110529"/>
<path d="M372 184H269" stroke="#110529" stroke-width="2" stroke-linecap="square"/>
<path d="M382 184L382.707 183.293L383.414 184L382.707 184.707L382 184ZM374.707 192.707L374 193.414L372.586 192L373.293 191.293L374.707 192.707ZM373.293 176.707L372.586 176L374 174.586L374.707 175.293L373.293 176.707ZM372 183L382 183L382 185L372 185L372 183ZM382.707 184.707L374.707 192.707L373.293 191.293L381.293 183.293L382.707 184.707ZM381.293 184.707L373.293 176.707L374.707 175.293L382.707 183.293L381.293 184.707Z" fill="#110529"/>
<path d="M213 336H110" stroke="#110529" stroke-width="2" stroke-linecap="square"/>
<rect width="56" height="20" transform="translate(213 326)" fill="white"/>
<path d="M220.267 330L218 331.35V333L220.267 331.633V342H221.767V330H220.267ZM225.332 330L224.966 336.167L226.299 336.933C226.449 336.683 226.632 336.45 226.849 336.267C227.299 335.85 227.899 335.633 228.532 335.633C229.199 335.633 229.816 335.9 230.282 336.317C230.799 336.8 231.116 337.483 231.116 338.217C231.116 338.933 230.832 339.583 230.349 340.067C229.882 340.533 229.232 340.8 228.532 340.8C227.866 340.8 227.249 340.55 226.782 340.117C226.416 339.8 226.149 339.367 226.032 338.883L224.599 339.267C224.799 339.983 225.199 340.65 225.732 341.15C226.466 341.85 227.482 342.25 228.532 342.233C229.616 342.217 230.649 341.817 231.399 341.067C232.132 340.333 232.599 339.3 232.616 338.217C232.616 337.083 232.182 336.033 231.332 335.267C230.616 334.633 229.666 334.267 228.699 334.267C227.882 334.267 227.082 334.567 226.449 335.067L226.666 331.4H231.649V330H225.332ZM238.67 342.25C237.52 342.25 236.37 341.783 235.62 340.917C234.886 340.067 234.62 339.183 234.62 338.033V333.95C234.62 332.783 234.886 331.9 235.653 331.017C236.386 330.217 237.486 329.733 238.67 329.75C239.82 329.733 240.936 330.167 241.703 331.017C242.453 331.85 242.72 332.767 242.72 333.95V338.033C242.72 339.167 242.47 340.083 241.72 340.933C240.97 341.767 239.87 342.25 238.67 342.25ZM238.67 331.167C237.803 331.15 236.986 331.633 236.536 332.333C236.236 332.783 236.136 333.317 236.136 333.95V338.033C236.136 338.617 236.22 339.183 236.553 339.667C237.02 340.367 237.803 340.833 238.67 340.817C239.553 340.833 240.353 340.367 240.803 339.667C241.136 339.183 241.22 338.683 241.22 338.033V333.95C241.22 333.333 241.136 332.867 240.82 332.35C240.37 331.633 239.553 331.15 238.67 331.167ZM252.491 334.183C251.757 333.25 250.607 332.75 249.374 332.75C248.307 332.75 247.291 333.15 246.557 333.85V330H245.057V342H246.391V340.95C247.107 341.817 248.174 342.25 249.374 342.25C250.591 342.25 251.741 341.733 252.491 340.8C253.241 339.85 253.491 338.667 253.491 337.483C253.491 336.3 253.207 335.1 252.491 334.183ZM251.291 339.883C250.807 340.567 250.007 340.883 249.191 340.883C248.357 340.883 247.591 340.583 247.091 339.967C246.591 339.35 246.391 338.417 246.391 337.483C246.391 336.567 246.591 335.65 247.091 335.017C247.574 334.4 248.324 334.1 249.141 334.1C250.024 334.1 250.791 334.417 251.274 335.1C251.741 335.717 251.907 336.583 251.907 337.483C251.907 338.383 251.757 339.267 251.291 339.883ZM262.756 334.183C262.023 333.25 260.873 332.75 259.64 332.75C258.49 332.75 257.39 333.2 256.656 334.017V333H255.323V346H256.823V341.15C257.523 341.883 258.523 342.25 259.64 342.25C260.856 342.25 262.006 341.733 262.756 340.8C263.506 339.85 263.756 338.667 263.756 337.483C263.756 336.3 263.473 335.1 262.756 334.183ZM261.556 339.883C261.073 340.567 260.273 340.883 259.456 340.883C258.623 340.883 257.856 340.583 257.356 339.967C256.856 339.35 256.656 338.417 256.656 337.483C256.656 336.567 256.856 335.65 257.356 335.017C257.84 334.4 258.59 334.1 259.406 334.1C260.29 334.1 261.056 334.417 261.54 335.1C262.006 335.717 262.173 336.583 262.173 337.483C262.173 338.383 262.023 339.267 261.556 339.883Z" fill="#110529"/>
<path d="M372 336H269" stroke="#110529" stroke-width="2" stroke-linecap="square"/>
<path d="M382 336L382.707 335.293L383.414 336L382.707 336.707L382 336ZM374.707 344.707L374 345.414L372.586 344L373.293 343.293L374.707 344.707ZM373.293 328.707L372.586 328L374 326.586L374.707 327.293L373.293 328.707ZM372 335L382 335L382 337L372 337L372 335ZM382.707 336.707L374.707 344.707L373.293 343.293L381.293 335.293L382.707 336.707ZM381.293 336.707L373.293 328.707L374.707 327.293L382.707 335.293L381.293 336.707Z" fill="#110529"/>
<path d="M580 184L579.293 183.293L578.586 184L579.293 184.707L580 184ZM587.293 192.707L588 193.414L589.414 192L588.707 191.293L587.293 192.707ZM588.707 176.707L589.414 176L588 174.586L587.293 175.293L588.707 176.707ZM600 183L580 183L580 185L600 185L600 183ZM579.293 184.707L587.293 192.707L588.707 191.293L580.707 183.293L579.293 184.707ZM580.707 184.707L588.707 176.707L587.293 175.293L579.293 183.293L580.707 184.707Z" fill="#110529"/>
<path d="M595 184L714 184" stroke="#110529" stroke-width="2" stroke-linecap="square"/>
<rect width="56" height="20" transform="translate(714 174)" fill="white"/>
<path d="M721.267 178L719 179.35V181L721.267 179.633V190H722.767V178H721.267ZM726.332 178L725.966 184.167L727.299 184.933C727.449 184.683 727.632 184.45 727.849 184.267C728.299 183.85 728.899 183.633 729.532 183.633C730.199 183.633 730.816 183.9 731.282 184.317C731.799 184.8 732.116 185.483 732.116 186.217C732.116 186.933 731.832 187.583 731.349 188.067C730.882 188.533 730.232 188.8 729.532 188.8C728.866 188.8 728.249 188.55 727.782 188.117C727.416 187.8 727.149 187.367 727.032 186.883L725.599 187.267C725.799 187.983 726.199 188.65 726.732 189.15C727.466 189.85 728.482 190.25 729.532 190.233C730.616 190.217 731.649 189.817 732.399 189.067C733.132 188.333 733.599 187.3 733.616 186.217C733.616 185.083 733.182 184.033 732.332 183.267C731.616 182.633 730.666 182.267 729.699 182.267C728.882 182.267 728.082 182.567 727.449 183.067L727.666 179.4H732.649V178H726.332ZM739.67 190.25C738.52 190.25 737.37 189.783 736.62 188.917C735.886 188.067 735.62 187.183 735.62 186.033V181.95C735.62 180.783 735.886 179.9 736.653 179.017C737.386 178.217 738.486 177.733 739.67 177.75C740.82 177.733 741.936 178.167 742.703 179.017C743.453 179.85 743.72 180.767 743.72 181.95V186.033C743.72 187.167 743.47 188.083 742.72 188.933C741.97 189.767 740.87 190.25 739.67 190.25ZM739.67 179.167C738.803 179.15 737.986 179.633 737.536 180.333C737.236 180.783 737.136 181.317 737.136 181.95V186.033C737.136 186.617 737.22 187.183 737.553 187.667C738.02 188.367 738.803 188.833 739.67 188.817C740.553 188.833 741.353 188.367 741.803 187.667C742.136 187.183 742.22 186.683 742.22 186.033V181.95C742.22 181.333 742.136 180.867 741.82 180.35C741.37 179.633 740.553 179.15 739.67 179.167ZM753.491 182.183C752.757 181.25 751.607 180.75 750.374 180.75C749.307 180.75 748.291 181.15 747.557 181.85V178H746.057V190H747.391V188.95C748.107 189.817 749.174 190.25 750.374 190.25C751.591 190.25 752.741 189.733 753.491 188.8C754.241 187.85 754.491 186.667 754.491 185.483C754.491 184.3 754.207 183.1 753.491 182.183ZM752.291 187.883C751.807 188.567 751.007 188.883 750.191 188.883C749.357 188.883 748.591 188.583 748.091 187.967C747.591 187.35 747.391 186.417 747.391 185.483C747.391 184.567 747.591 183.65 748.091 183.017C748.574 182.4 749.324 182.1 750.141 182.1C751.024 182.1 751.791 182.417 752.274 183.1C752.741 183.717 752.907 184.583 752.907 185.483C752.907 186.383 752.757 187.267 752.291 187.883ZM763.756 182.183C763.023 181.25 761.873 180.75 760.64 180.75C759.49 180.75 758.39 181.2 757.656 182.017V181H756.323V194H757.823V189.15C758.523 189.883 759.523 190.25 760.64 190.25C761.856 190.25 763.006 189.733 763.756 188.8C764.506 187.85 764.756 186.667 764.756 185.483C764.756 184.3 764.473 183.1 763.756 182.183ZM762.556 187.883C762.073 188.567 761.273 188.883 760.456 188.883C759.623 188.883 758.856 188.583 758.356 187.967C757.856 187.35 757.656 186.417 757.656 185.483C757.656 184.567 757.856 183.65 758.356 183.017C758.84 182.4 759.59 182.1 760.406 182.1C761.29 182.1 762.056 182.417 762.54 183.1C763.006 183.717 763.173 184.583 763.173 185.483C763.173 186.383 763.023 187.267 762.556 187.883Z" fill="#110529"/>
<path d="M770 184L889 184" stroke="#110529" stroke-width="2" stroke-linecap="square"/>
<path d="M515 336L514.293 335.293L513.586 336L514.293 336.707L515 336ZM522.293 344.707L523 345.414L524.414 344L523.707 343.293L522.293 344.707ZM523.707 328.707L524.414 328L523 326.586L522.293 327.293L523.707 328.707ZM535 335L515 335L515 337L535 337L535 335ZM514.293 336.707L522.293 344.707L523.707 343.293L515.707 335.293L514.293 336.707ZM515.707 336.707L523.707 328.707L522.293 327.293L514.293 335.293L515.707 336.707Z" fill="#110529"/>
<path d="M530 336H649" stroke="#110529" stroke-width="2" stroke-linecap="square"/>
<rect width="56" height="20" transform="translate(649 326)" fill="white"/>
<path d="M656.267 330L654 331.35V333L656.267 331.633V342H657.767V330H656.267ZM661.332 330L660.966 336.167L662.299 336.933C662.449 336.683 662.632 336.45 662.849 336.267C663.299 335.85 663.899 335.633 664.532 335.633C665.199 335.633 665.816 335.9 666.282 336.317C666.799 336.8 667.116 337.483 667.116 338.217C667.116 338.933 666.832 339.583 666.349 340.067C665.882 340.533 665.232 340.8 664.532 340.8C663.866 340.8 663.249 340.55 662.782 340.117C662.416 339.8 662.149 339.367 662.032 338.883L660.599 339.267C660.799 339.983 661.199 340.65 661.732 341.15C662.466 341.85 663.482 342.25 664.532 342.233C665.616 342.217 666.649 341.817 667.399 341.067C668.132 340.333 668.599 339.3 668.616 338.217C668.616 337.083 668.182 336.033 667.332 335.267C666.616 334.633 665.666 334.267 664.699 334.267C663.882 334.267 663.082 334.567 662.449 335.067L662.666 331.4H667.649V330H661.332ZM674.67 342.25C673.52 342.25 672.37 341.783 671.62 340.917C670.886 340.067 670.62 339.183 670.62 338.033V333.95C670.62 332.783 670.886 331.9 671.653 331.017C672.386 330.217 673.486 329.733 674.67 329.75C675.82 329.733 676.936 330.167 677.703 331.017C678.453 331.85 678.72 332.767 678.72 333.95V338.033C678.72 339.167 678.47 340.083 677.72 340.933C676.97 341.767 675.87 342.25 674.67 342.25ZM674.67 331.167C673.803 331.15 672.986 331.633 672.536 332.333C672.236 332.783 672.136 333.317 672.136 333.95V338.033C672.136 338.617 672.22 339.183 672.553 339.667C673.02 340.367 673.803 340.833 674.67 340.817C675.553 340.833 676.353 340.367 676.803 339.667C677.136 339.183 677.22 338.683 677.22 338.033V333.95C677.22 333.333 677.136 332.867 676.82 332.35C676.37 331.633 675.553 331.15 674.67 331.167ZM688.491 334.183C687.757 333.25 686.607 332.75 685.374 332.75C684.307 332.75 683.291 333.15 682.557 333.85V330H681.057V342H682.391V340.95C683.107 341.817 684.174 342.25 685.374 342.25C686.591 342.25 687.741 341.733 688.491 340.8C689.241 339.85 689.491 338.667 689.491 337.483C689.491 336.3 689.207 335.1 688.491 334.183ZM687.291 339.883C686.807 340.567 686.007 340.883 685.191 340.883C684.357 340.883 683.591 340.583 683.091 339.967C682.591 339.35 682.391 338.417 682.391 337.483C682.391 336.567 682.591 335.65 683.091 335.017C683.574 334.4 684.324 334.1 685.141 334.1C686.024 334.1 686.791 334.417 687.274 335.1C687.741 335.717 687.907 336.583 687.907 337.483C687.907 338.383 687.757 339.267 687.291 339.883ZM698.756 334.183C698.023 333.25 696.873 332.75 695.64 332.75C694.49 332.75 693.39 333.2 692.656 334.017V333H691.323V346H692.823V341.15C693.523 341.883 694.523 342.25 695.64 342.25C696.856 342.25 698.006 341.733 698.756 340.8C699.506 339.85 699.756 338.667 699.756 337.483C699.756 336.3 699.473 335.1 698.756 334.183ZM697.556 339.883C697.073 340.567 696.273 340.883 695.456 340.883C694.623 340.883 693.856 340.583 693.356 339.967C692.856 339.35 692.656 338.417 692.656 337.483C692.656 336.567 692.856 335.65 693.356 335.017C693.84 334.4 694.59 334.1 695.406 334.1C696.29 334.1 697.056 334.417 697.54 335.1C698.006 335.717 698.173 336.583 698.173 337.483C698.173 338.383 698.023 339.267 697.556 339.883Z" fill="#110529"/>
<path d="M705 336H824" stroke="#110529" stroke-width="2" stroke-linecap="square"/>
<path d="M916 176V192H906V200L892 184L906 168V176H916Z" fill="#110529"/>
<path d="M925.4 192H927.18V186.68H931.39L933.97 192H936.01L933.23 186.29C934.86 185.61 935.71 184.04 935.71 182.14C935.71 179.85 934.48 178.04 932.15 177.68C931.78 177.62 931.37 177.6 931.09 177.6H925.4V192ZM927.18 184.99V179.29H931.03C931.28 179.29 931.63 179.31 931.93 179.38C933.31 179.69 933.89 180.94 933.89 182.14C933.89 183.34 933.31 184.59 931.93 184.9C931.63 184.97 931.28 184.99 931.03 184.99H927.18ZM940.723 192H942.533V177.6H940.723L938.013 179.22V181.21L940.723 179.57V192Z" fill="#110529"/>
<path d="M851 328V344H841V352L827 336L841 320V328H851Z" fill="#110529"/>
<path d="M860.4 344H862.18V338.68H866.39L868.97 344H871.01L868.23 338.29C869.86 337.61 870.71 336.04 870.71 334.14C870.71 331.85 869.48 330.04 867.15 329.68C866.78 329.62 866.37 329.6 866.09 329.6H860.4V344ZM862.18 336.99V331.29H866.03C866.28 331.29 866.63 331.31 866.93 331.38C868.31 331.69 868.89 332.94 868.89 334.14C868.89 335.34 868.31 336.59 866.93 336.9C866.63 336.97 866.28 336.99 866.03 336.99H862.18ZM875.723 344H877.533V329.6H875.723L873.013 331.22V333.21L875.723 331.57V344Z" fill="#110529"/>
<g filter="url(#filter7_i_5544_35186)">
<rect x="612" y="104" width="30" height="52" rx="1" fill="#CBEB67"/>
</g>
<rect x="612" y="104" width="30" height="52" rx="1" stroke="#110529" stroke-width="2" stroke-linecap="round"/>
<g filter="url(#filter8_i_5544_35186)">
<rect x="678" y="104" width="30" height="52" rx="1" fill="#FAAAFA"/>
</g>
<rect x="678" y="104" width="30" height="52" rx="1" stroke="#110529" stroke-width="2" stroke-linecap="round"/>
<g filter="url(#filter9_i_5544_35186)">
<rect x="642" y="104" width="36" height="52" rx="1" fill="#FFCB8F"/>
</g>
<rect x="642" y="104" width="36" height="52" rx="1" stroke="#110529" stroke-width="2" stroke-linecap="round"/>
<path d="M621.447 138H623.247V126.74L630.757 138H632.557V123.6H630.757V134.85L623.247 123.6H621.447V138Z" fill="#110529"/>
<path d="M687.447 138H689.247V126.74L696.757 138H698.557V123.6H696.757V134.85L689.247 123.6H687.447V138Z" fill="#110529"/>
<path d="M654.593 138H659.033C659.303 138 660.183 138 660.853 137.91C664.183 137.47 665.913 134.48 665.913 130.8C665.913 127.13 664.183 124.13 660.853 123.69C660.173 123.6 659.313 123.6 659.033 123.6H654.593V138ZM656.423 136.3V125.3H659.033C659.513 125.3 660.233 125.32 660.703 125.41C663.033 125.83 664.023 128.08 664.023 130.8C664.023 133.47 663.063 135.76 660.703 136.19C660.233 136.28 659.533 136.3 659.033 136.3H656.423Z" fill="#110529"/>
<g filter="url(#filter10_i_5544_35186)">
<rect x="272" y="256" width="340" height="52" rx="1" fill="#99E099"/>
<path d="M440.758 290H443.238L448.058 275.6H446.208L441.978 288.11L437.788 275.6H435.938L440.758 290Z" fill="#110529"/>
<rect x="272" y="256" width="340" height="52" rx="1" stroke="#110529" stroke-width="2" stroke-linecap="round"/>
</g>
<g filter="url(#filter11_i_5544_35186)">
<rect x="642" y="256" width="144" height="52" rx="1" fill="#C1ADFF"/>
<path d="M713.244 290.29C714.694 290.29 715.954 289.7 716.684 288.43C717.214 287.51 717.154 286.72 717.154 285.48V275.6H715.354V285.48C715.354 286.37 715.354 286.99 715.094 287.51C714.704 288.29 713.884 288.6 713.204 288.6C712.134 288.6 711.224 287.83 711.014 286.85L709.244 287.27C709.754 289.11 711.224 290.29 713.244 290.29Z" fill="#110529"/>
<rect x="642" y="256" width="144" height="52" rx="1" stroke="#110529" stroke-width="2" stroke-linecap="round"/>
</g>
<g filter="url(#filter12_i_5544_35186)">
<path d="M850 256H787.6C787.04 256 786.76 256 786.546 256.109C786.358 256.205 786.205 256.358 786.109 256.546C786 256.76 786 257.04 786 257.6V306.4C786 306.96 786 307.24 786.109 307.454C786.205 307.642 786.358 307.795 786.546 307.891C786.76 308 787.04 308 787.6 308H850L845 301.5L850 295L845 288L850 282L845 275.5L850 269L845 262.5L850 256Z" fill="#FAFAAA"/>
</g>
<path d="M850 256H787.6C787.04 256 786.76 256 786.546 256.109C786.358 256.205 786.205 256.358 786.109 256.546C786 256.76 786 257.04 786 257.6V306.4C786 306.96 786 307.24 786.109 307.454C786.205 307.642 786.358 307.795 786.546 307.891C786.76 308 787.04 308 787.6 308H850L845 301.5L850 295L845 288L850 282L845 275.5L850 269L845 262.5L850 256Z" stroke="#110529" stroke-width="2" stroke-linecap="round"/>
<path d="M818.593 290.3C821.923 290.3 824.113 288.47 824.933 285.61L823.123 285.13C822.533 287.27 821.023 288.6 818.593 288.6C815.373 288.6 813.733 286.25 813.753 282.8C813.773 279.35 815.373 277 818.593 277C821.023 277 822.533 278.33 823.123 280.47L824.933 279.99C824.113 277.13 821.923 275.3 818.593 275.3C814.283 275.3 811.873 278.36 811.873 282.8C811.873 287.24 814.283 290.3 818.593 290.3Z" fill="#110529"/>
<g filter="url(#filter13_i_5544_35186)">
<rect x="148" y="256" width="72" height="52" rx="1" fill="#D6E0FF"/>
<path d="M172.553 290.3C175.893 290.3 178.233 288.1 178.233 284.75V275.6H176.433V284.6C176.433 287.31 174.393 288.62 172.553 288.62C170.733 288.62 168.673 287.33 168.673 284.6V275.6L166.873 275.61V284.75C166.873 288.11 169.213 290.3 172.553 290.3ZM181.033 290H182.723V279.51L187.613 290H188.563L193.453 279.51V289.99H195.143V275.6H193.503L188.093 287.07L182.653 275.6H181.033V290ZM198.147 290H199.927V275.6H198.147V290Z" fill="#110529"/>
<rect x="148" y="256" width="72" height="52" rx="1" stroke="#110529" stroke-width="2" stroke-linecap="round"/>
</g>
<g filter="url(#filter14_i_5544_35186)">
<rect x="84" y="256" width="64" height="52" rx="1" fill="#D3D7E0"/>
<rect x="84" y="256" width="64" height="52" rx="1" stroke="#110529" stroke-width="2" stroke-linecap="round"/>
</g>
<g filter="url(#filter15_i_5544_35186)">
<rect x="220" y="256" width="24" height="52" rx="1" fill="#D3D7E0"/>
<rect x="220" y="256" width="24" height="52" rx="1" stroke="#110529" stroke-width="2" stroke-linecap="round"/>
</g>
<g filter="url(#filter16_i_5544_35186)">
<rect x="244" y="256" width="28" height="52" rx="1" fill="#FFADBA"/>
<path d="M258.091 290.3C262.301 290.3 264.541 287.39 264.541 283.44C264.541 283.32 264.531 282.87 264.501 282.59H259.561V284.06H262.621C262.401 286.93 260.961 288.62 258.181 288.6C254.961 288.58 253.331 286.25 253.351 282.8C253.371 279.35 254.961 276.99 258.181 277.01C260.231 277.02 261.621 278.14 262.231 279.88L264.031 279.51C263.281 276.92 261.311 275.31 258.091 275.31C254.061 275.31 251.461 278.21 251.461 282.8C251.461 287.44 254.121 290.3 258.091 290.3Z" fill="#110529"/>
<rect x="244" y="256" width="28" height="52" rx="1" stroke="#110529" stroke-width="2" stroke-linecap="round"/>
</g>
<g filter="url(#filter17_i_5544_35186)">
<rect x="612" y="256" width="30" height="52" rx="1" fill="#CBEB67"/>
</g>
<rect x="612" y="256" width="30" height="52" rx="1" stroke="#110529" stroke-width="2" stroke-linecap="round"/>
<path d="M621.447 290H623.247V278.74L630.757 290H632.557V275.6H630.757V286.85L623.247 275.6H621.447V290Z" fill="#110529"/>
<path d="M21.11 290H22.89V277.29H27.8V275.6H16.2V277.29H21.11V290ZM35.3122 290.3C38.6422 290.3 40.8322 288.47 41.6522 285.61L39.8422 285.13C39.2522 287.27 37.7422 288.6 35.3122 288.6C32.0922 288.6 30.4522 286.25 30.4722 282.8C30.4922 279.35 32.0922 277 35.3122 277C37.7422 277 39.2522 278.33 39.8422 280.47L41.6522 279.99C40.8322 277.13 38.6422 275.3 35.3122 275.3C31.0022 275.3 28.5922 278.36 28.5922 282.8C28.5922 287.24 31.0022 290.3 35.3122 290.3ZM43.8453 290H45.6253V284.68H49.8353L52.4153 290H54.4553L51.6753 284.29C53.3053 283.61 54.1553 282.04 54.1553 280.14C54.1553 277.85 52.9253 276.04 50.5953 275.68C50.2253 275.62 49.8153 275.6 49.5353 275.6H43.8453V290ZM45.6253 282.99V277.29H49.4753C49.7253 277.29 50.0753 277.31 50.3753 277.38C51.7553 277.69 52.3353 278.94 52.3353 280.14C52.3353 281.34 51.7553 282.59 50.3753 282.9C50.0753 282.97 49.7253 282.99 49.4753 282.99H45.6253ZM64.9317 290.3C66.5717 290.3 67.8817 289.54 68.5817 288.24V290H70.1717V279.2H68.5817V280.93C67.8917 279.65 66.6317 278.9 64.9817 278.9C61.8817 278.9 60.0617 281.35 60.0617 284.6C60.0617 287.83 61.8717 290.3 64.9317 290.3ZM61.9517 284.6C61.9517 282.19 63.0617 280.53 65.1717 280.53C67.2817 280.53 68.2817 282.2 68.2817 284.59C68.2817 286.96 67.2917 288.67 65.1517 288.67C62.9817 288.67 61.9517 286.88 61.9517 284.6Z" fill="#110529"/>
<path d="M21.11 138H22.89V125.29H27.8V123.6H16.2V125.29H21.11V138ZM35.3122 138.3C38.6422 138.3 40.8322 136.47 41.6522 133.61L39.8422 133.13C39.2522 135.27 37.7422 136.6 35.3122 136.6C32.0922 136.6 30.4522 134.25 30.4722 130.8C30.4922 127.35 32.0922 125 35.3122 125C37.7422 125 39.2522 126.33 39.8422 128.47L41.6522 127.99C40.8322 125.13 38.6422 123.3 35.3122 123.3C31.0022 123.3 28.5922 126.36 28.5922 130.8C28.5922 135.24 31.0022 138.3 35.3122 138.3ZM43.8453 138H45.6253V132.68H49.8353L52.4153 138H54.4553L51.6753 132.29C53.3053 131.61 54.1553 130.04 54.1553 128.14C54.1553 125.85 52.9253 124.04 50.5953 123.68C50.2253 123.62 49.8153 123.6 49.5353 123.6H43.8453V138ZM45.6253 130.99V125.29H49.4753C49.7253 125.29 50.0753 125.31 50.3753 125.38C51.7553 125.69 52.3353 126.94 52.3353 128.14C52.3353 129.34 51.7553 130.59 50.3753 130.9C50.0753 130.97 49.7253 130.99 49.4753 130.99H45.6253ZM60.6517 127.2V142.8H62.4317V137.39C63.1417 137.96 64.1317 138.3 65.3617 138.3C68.4117 138.3 70.2617 136.57 70.2617 133.95C70.2617 131.74 68.8617 130.44 67.4717 130.09C68.5217 129.58 69.0317 128.5 69.0317 127.22C69.0317 124.84 67.2817 123.3 64.7917 123.3C62.9317 123.3 61.4017 124.16 60.8717 125.78C60.7217 126.23 60.6517 126.71 60.6517 127.2ZM62.4717 133.71V127.86C62.4717 127.44 62.4917 126.8 62.7017 126.28C63.0617 125.35 63.9417 124.99 64.8317 124.99C66.2117 124.99 67.2117 125.82 67.2117 127.24C67.2117 128.67 66.2117 129.4 64.8417 129.54V131.14C67.0317 131.18 68.4517 132.1 68.4517 133.87C68.4517 135.52 67.2117 136.61 65.4417 136.61C64.1917 136.61 62.9517 136.04 62.6217 135.01C62.5017 134.64 62.4717 134.1 62.4717 133.71Z" fill="#110529"/>
<defs>
<filter id="filter0_i_5544_35186" x="271" y="103" width="342" height="54" filterUnits="userSpaceOnUse" color-interpolation-filters="sRGB">
<feFlood flood-opacity="0" result="BackgroundImageFix"/>
<feBlend mode="normal" in="SourceGraphic" in2="BackgroundImageFix" result="shape"/>
<feColorMatrix in="SourceAlpha" type="matrix" values="0 0 0 0 0 0 0 0 0 0 0 0 0 0 0 0 0 0 127 0" result="hardAlpha"/>
<feOffset dx="-8" dy="-4"/>
<feComposite in2="hardAlpha" operator="arithmetic" k2="-1" k3="1"/>
<feColorMatrix type="matrix" values="0 0 0 0 0.0666667 0 0 0 0 0.0196078 0 0 0 0 0.160784 0 0 0 0.16 0"/>
<feBlend mode="normal" in2="shape" result="effect1_innerShadow_5544_35186"/>
</filter>
<filter id="filter1_i_5544_35186" x="707" y="103" width="146" height="54" filterUnits="userSpaceOnUse" color-interpolation-filters="sRGB">
<feFlood flood-opacity="0" result="BackgroundImageFix"/>
<feBlend mode="normal" in="SourceGraphic" in2="BackgroundImageFix" result="shape"/>
<feColorMatrix in="SourceAlpha" type="matrix" values="0 0 0 0 0 0 0 0 0 0 0 0 0 0 0 0 0 0 127 0" result="hardAlpha"/>
<feOffset dx="-8" dy="-4"/>
<feComposite in2="hardAlpha" operator="arithmetic" k2="-1" k3="1"/>
<feColorMatrix type="matrix" values="0 0 0 0 0.0666667 0 0 0 0 0.0196078 0 0 0 0 0.160784 0 0 0 0.16 0"/>
<feBlend mode="normal" in2="shape" result="effect1_innerShadow_5544_35186"/>
</filter>
<filter id="filter2_i_5544_35186" x="851" y="103" width="67.0309" height="54" filterUnits="userSpaceOnUse" color-interpolation-filters="sRGB">
<feFlood flood-opacity="0" result="BackgroundImageFix"/>
<feBlend mode="normal" in="SourceGraphic" in2="BackgroundImageFix" result="shape"/>
<feColorMatrix in="SourceAlpha" type="matrix" values="0 0 0 0 0 0 0 0 0 0 0 0 0 0 0 0 0 0 127 0" result="hardAlpha"/>
<feOffset dx="-8" dy="-4"/>
<feComposite in2="hardAlpha" operator="arithmetic" k2="-1" k3="1"/>
<feColorMatrix type="matrix" values="0 0 0 0 0.0666667 0 0 0 0 0.0196078 0 0 0 0 0.160784 0 0 0 0.16 0"/>
<feBlend mode="normal" in2="shape" result="effect1_innerShadow_5544_35186"/>
</filter>
<filter id="filter3_i_5544_35186" x="147" y="103" width="74" height="54" filterUnits="userSpaceOnUse" color-interpolation-filters="sRGB">
<feFlood flood-opacity="0" result="BackgroundImageFix"/>
<feBlend mode="normal" in="SourceGraphic" in2="BackgroundImageFix" result="shape"/>
<feColorMatrix in="SourceAlpha" type="matrix" values="0 0 0 0 0 0 0 0 0 0 0 0 0 0 0 0 0 0 127 0" result="hardAlpha"/>
<feOffset dx="-8" dy="-4"/>
<feComposite in2="hardAlpha" operator="arithmetic" k2="-1" k3="1"/>
<feColorMatrix type="matrix" values="0 0 0 0 0.0666667 0 0 0 0 0.0196078 0 0 0 0 0.160784 0 0 0 0.16 0"/>
<feBlend mode="normal" in2="shape" result="effect1_innerShadow_5544_35186"/>
</filter>
<filter id="filter4_i_5544_35186" x="83" y="103" width="66" height="54" filterUnits="userSpaceOnUse" color-interpolation-filters="sRGB">
<feFlood flood-opacity="0" result="BackgroundImageFix"/>
<feBlend mode="normal" in="SourceGraphic" in2="BackgroundImageFix" result="shape"/>
<feColorMatrix in="SourceAlpha" type="matrix" values="0 0 0 0 0 0 0 0 0 0 0 0 0 0 0 0 0 0 127 0" result="hardAlpha"/>
<feOffset dx="-8" dy="-4"/>
<feComposite in2="hardAlpha" operator="arithmetic" k2="-1" k3="1"/>
<feColorMatrix type="matrix" values="0 0 0 0 0.0666667 0 0 0 0 0.0196078 0 0 0 0 0.160784 0 0 0 0.16 0"/>
<feBlend mode="normal" in2="shape" result="effect1_innerShadow_5544_35186"/>
</filter>
<filter id="filter5_i_5544_35186" x="219" y="103" width="26" height="54" filterUnits="userSpaceOnUse" color-interpolation-filters="sRGB">
<feFlood flood-opacity="0" result="BackgroundImageFix"/>
<feBlend mode="normal" in="SourceGraphic" in2="BackgroundImageFix" result="shape"/>
<feColorMatrix in="SourceAlpha" type="matrix" values="0 0 0 0 0 0 0 0 0 0 0 0 0 0 0 0 0 0 127 0" result="hardAlpha"/>
<feOffset dx="-8" dy="-4"/>
<feComposite in2="hardAlpha" operator="arithmetic" k2="-1" k3="1"/>
<feColorMatrix type="matrix" values="0 0 0 0 0.0666667 0 0 0 0 0.0196078 0 0 0 0 0.160784 0 0 0 0.16 0"/>
<feBlend mode="normal" in2="shape" result="effect1_innerShadow_5544_35186"/>
</filter>
<filter id="filter6_i_5544_35186" x="243" y="103" width="30" height="54" filterUnits="userSpaceOnUse" color-interpolation-filters="sRGB">
<feFlood flood-opacity="0" result="BackgroundImageFix"/>
<feBlend mode="normal" in="SourceGraphic" in2="BackgroundImageFix" result="shape"/>
<feColorMatrix in="SourceAlpha" type="matrix" values="0 0 0 0 0 0 0 0 0 0 0 0 0 0 0 0 0 0 127 0" result="hardAlpha"/>
<feOffset dx="-8" dy="-4"/>
<feComposite in2="hardAlpha" operator="arithmetic" k2="-1" k3="1"/>
<feColorMatrix type="matrix" values="0 0 0 0 0.0666667 0 0 0 0 0.0196078 0 0 0 0 0.160784 0 0 0 0.16 0"/>
<feBlend mode="normal" in2="shape" result="effect1_innerShadow_5544_35186"/>
</filter>
<filter id="filter7_i_5544_35186" x="611" y="103" width="32" height="54" filterUnits="userSpaceOnUse" color-interpolation-filters="sRGB">
<feFlood flood-opacity="0" result="BackgroundImageFix"/>
<feBlend mode="normal" in="SourceGraphic" in2="BackgroundImageFix" result="shape"/>
<feColorMatrix in="SourceAlpha" type="matrix" values="0 0 0 0 0 0 0 0 0 0 0 0 0 0 0 0 0 0 127 0" result="hardAlpha"/>
<feOffset dx="-8" dy="-4"/>
<feComposite in2="hardAlpha" operator="arithmetic" k2="-1" k3="1"/>
<feColorMatrix type="matrix" values="0 0 0 0 0.0666667 0 0 0 0 0.0196078 0 0 0 0 0.160784 0 0 0 0.16 0"/>
<feBlend mode="normal" in2="shape" result="effect1_innerShadow_5544_35186"/>
</filter>
<filter id="filter8_i_5544_35186" x="677" y="103" width="32" height="54" filterUnits="userSpaceOnUse" color-interpolation-filters="sRGB">
<feFlood flood-opacity="0" result="BackgroundImageFix"/>
<feBlend mode="normal" in="SourceGraphic" in2="BackgroundImageFix" result="shape"/>
<feColorMatrix in="SourceAlpha" type="matrix" values="0 0 0 0 0 0 0 0 0 0 0 0 0 0 0 0 0 0 127 0" result="hardAlpha"/>
<feOffset dx="-8" dy="-4"/>
<feComposite in2="hardAlpha" operator="arithmetic" k2="-1" k3="1"/>
<feColorMatrix type="matrix" values="0 0 0 0 0.0666667 0 0 0 0 0.0196078 0 0 0 0 0.160784 0 0 0 0.16 0"/>
<feBlend mode="normal" in2="shape" result="effect1_innerShadow_5544_35186"/>
</filter>
<filter id="filter9_i_5544_35186" x="641" y="103" width="38" height="54" filterUnits="userSpaceOnUse" color-interpolation-filters="sRGB">
<feFlood flood-opacity="0" result="BackgroundImageFix"/>
<feBlend mode="normal" in="SourceGraphic" in2="BackgroundImageFix" result="shape"/>
<feColorMatrix in="SourceAlpha" type="matrix" values="0 0 0 0 0 0 0 0 0 0 0 0 0 0 0 0 0 0 127 0" result="hardAlpha"/>
<feOffset dx="-8" dy="-4"/>
<feComposite in2="hardAlpha" operator="arithmetic" k2="-1" k3="1"/>
<feColorMatrix type="matrix" values="0 0 0 0 0.0666667 0 0 0 0 0.0196078 0 0 0 0 0.160784 0 0 0 0.16 0"/>
<feBlend mode="normal" in2="shape" result="effect1_innerShadow_5544_35186"/>
</filter>
<filter id="filter10_i_5544_35186" x="271" y="255" width="342" height="54" filterUnits="userSpaceOnUse" color-interpolation-filters="sRGB">
<feFlood flood-opacity="0" result="BackgroundImageFix"/>
<feBlend mode="normal" in="SourceGraphic" in2="BackgroundImageFix" result="shape"/>
<feColorMatrix in="SourceAlpha" type="matrix" values="0 0 0 0 0 0 0 0 0 0 0 0 0 0 0 0 0 0 127 0" result="hardAlpha"/>
<feOffset dx="-8" dy="-4"/>
<feComposite in2="hardAlpha" operator="arithmetic" k2="-1" k3="1"/>
<feColorMatrix type="matrix" values="0 0 0 0 0.0666667 0 0 0 0 0.0196078 0 0 0 0 0.160784 0 0 0 0.16 0"/>
<feBlend mode="normal" in2="shape" result="effect1_innerShadow_5544_35186"/>
</filter>
<filter id="filter11_i_5544_35186" x="641" y="255" width="146" height="54" filterUnits="userSpaceOnUse" color-interpolation-filters="sRGB">
<feFlood flood-opacity="0" result="BackgroundImageFix"/>
<feBlend mode="normal" in="SourceGraphic" in2="BackgroundImageFix" result="shape"/>
<feColorMatrix in="SourceAlpha" type="matrix" values="0 0 0 0 0 0 0 0 0 0 0 0 0 0 0 0 0 0 127 0" result="hardAlpha"/>
<feOffset dx="-8" dy="-4"/>
<feComposite in2="hardAlpha" operator="arithmetic" k2="-1" k3="1"/>
<feColorMatrix type="matrix" values="0 0 0 0 0.0666667 0 0 0 0 0.0196078 0 0 0 0 0.160784 0 0 0 0.16 0"/>
<feBlend mode="normal" in2="shape" result="effect1_innerShadow_5544_35186"/>
</filter>
<filter id="filter12_i_5544_35186" x="785" y="255" width="67.0309" height="54" filterUnits="userSpaceOnUse" color-interpolation-filters="sRGB">
<feFlood flood-opacity="0" result="BackgroundImageFix"/>
<feBlend mode="normal" in="SourceGraphic" in2="BackgroundImageFix" result="shape"/>
<feColorMatrix in="SourceAlpha" type="matrix" values="0 0 0 0 0 0 0 0 0 0 0 0 0 0 0 0 0 0 127 0" result="hardAlpha"/>
<feOffset dx="-8" dy="-4"/>
<feComposite in2="hardAlpha" operator="arithmetic" k2="-1" k3="1"/>
<feColorMatrix type="matrix" values="0 0 0 0 0.0666667 0 0 0 0 0.0196078 0 0 0 0 0.160784 0 0 0 0.16 0"/>
<feBlend mode="normal" in2="shape" result="effect1_innerShadow_5544_35186"/>
</filter>
<filter id="filter13_i_5544_35186" x="147" y="255" width="74" height="54" filterUnits="userSpaceOnUse" color-interpolation-filters="sRGB">
<feFlood flood-opacity="0" result="BackgroundImageFix"/>
<feBlend mode="normal" in="SourceGraphic" in2="BackgroundImageFix" result="shape"/>
<feColorMatrix in="SourceAlpha" type="matrix" values="0 0 0 0 0 0 0 0 0 0 0 0 0 0 0 0 0 0 127 0" result="hardAlpha"/>
<feOffset dx="-8" dy="-4"/>
<feComposite in2="hardAlpha" operator="arithmetic" k2="-1" k3="1"/>
<feColorMatrix type="matrix" values="0 0 0 0 0.0666667 0 0 0 0 0.0196078 0 0 0 0 0.160784 0 0 0 0.16 0"/>
<feBlend mode="normal" in2="shape" result="effect1_innerShadow_5544_35186"/>
</filter>
<filter id="filter14_i_5544_35186" x="83" y="255" width="66" height="54" filterUnits="userSpaceOnUse" color-interpolation-filters="sRGB">
<feFlood flood-opacity="0" result="BackgroundImageFix"/>
<feBlend mode="normal" in="SourceGraphic" in2="BackgroundImageFix" result="shape"/>
<feColorMatrix in="SourceAlpha" type="matrix" values="0 0 0 0 0 0 0 0 0 0 0 0 0 0 0 0 0 0 127 0" result="hardAlpha"/>
<feOffset dx="-8" dy="-4"/>
<feComposite in2="hardAlpha" operator="arithmetic" k2="-1" k3="1"/>
<feColorMatrix type="matrix" values="0 0 0 0 0.0666667 0 0 0 0 0.0196078 0 0 0 0 0.160784 0 0 0 0.16 0"/>
<feBlend mode="normal" in2="shape" result="effect1_innerShadow_5544_35186"/>
</filter>
<filter id="filter15_i_5544_35186" x="219" y="255" width="26" height="54" filterUnits="userSpaceOnUse" color-interpolation-filters="sRGB">
<feFlood flood-opacity="0" result="BackgroundImageFix"/>
<feBlend mode="normal" in="SourceGraphic" in2="BackgroundImageFix" result="shape"/>
<feColorMatrix in="SourceAlpha" type="matrix" values="0 0 0 0 0 0 0 0 0 0 0 0 0 0 0 0 0 0 127 0" result="hardAlpha"/>
<feOffset dx="-8" dy="-4"/>
<feComposite in2="hardAlpha" operator="arithmetic" k2="-1" k3="1"/>
<feColorMatrix type="matrix" values="0 0 0 0 0.0666667 0 0 0 0 0.0196078 0 0 0 0 0.160784 0 0 0 0.16 0"/>
<feBlend mode="normal" in2="shape" result="effect1_innerShadow_5544_35186"/>
</filter>
<filter id="filter16_i_5544_35186" x="243" y="255" width="30" height="54" filterUnits="userSpaceOnUse" color-interpolation-filters="sRGB">
<feFlood flood-opacity="0" result="BackgroundImageFix"/>
<feBlend mode="normal" in="SourceGraphic" in2="BackgroundImageFix" result="shape"/>
<feColorMatrix in="SourceAlpha" type="matrix" values="0 0 0 0 0 0 0 0 0 0 0 0 0 0 0 0 0 0 127 0" result="hardAlpha"/>
<feOffset dx="-8" dy="-4"/>
<feComposite in2="hardAlpha" operator="arithmetic" k2="-1" k3="1"/>
<feColorMatrix type="matrix" values="0 0 0 0 0.0666667 0 0 0 0 0.0196078 0 0 0 0 0.160784 0 0 0 0.16 0"/>
<feBlend mode="normal" in2="shape" result="effect1_innerShadow_5544_35186"/>
</filter>
<filter id="filter17_i_5544_35186" x="611" y="255" width="32" height="54" filterUnits="userSpaceOnUse" color-interpolation-filters="sRGB">
<feFlood flood-opacity="0" result="BackgroundImageFix"/>
<feBlend mode="normal" in="SourceGraphic" in2="BackgroundImageFix" result="shape"/>
<feColorMatrix in="SourceAlpha" type="matrix" values="0 0 0 0 0 0 0 0 0 0 0 0 0 0 0 0 0 0 127 0" result="hardAlpha"/>
<feOffset dx="-8" dy="-4"/>
<feComposite in2="hardAlpha" operator="arithmetic" k2="-1" k3="1"/>
<feColorMatrix type="matrix" values="0 0 0 0 0.0666667 0 0 0 0 0.0196078 0 0 0 0 0.160784 0 0 0 0.16 0"/>
<feBlend mode="normal" in2="shape" result="effect1_innerShadow_5544_35186"/>
</filter>
</defs>
</svg>
