<svg width="960" height="418" viewBox="0 0 960 418" fill="none" xmlns="http://www.w3.org/2000/svg">
<rect width="960" height="418" fill="white"/>
<path d="M288 144V24" stroke="#D3D7E0" stroke-width="2" stroke-linecap="square" stroke-dasharray="6 6"/>
<path d="M182.805 37H184.268V32.695H187.936V31.225H184.268V28.383H188.776V26.92H182.805V37ZM190.038 37H191.501V33.381H194.175L195.932 37H197.605L195.701 33.094C196.842 32.597 197.416 31.491 197.416 30.147C197.416 28.516 196.576 27.235 194.889 26.976C194.623 26.934 194.308 26.92 194.112 26.92H190.038V37ZM191.501 31.995V28.299H194.056C194.238 28.299 194.483 28.313 194.693 28.369C195.589 28.579 195.925 29.405 195.925 30.147C195.925 30.889 195.589 31.715 194.693 31.932C194.483 31.981 194.238 31.995 194.056 31.995H191.501ZM201.964 37.189C203.847 37.189 205.331 35.796 205.331 33.871C205.331 32.233 204.323 30.924 202.692 30.707L205.184 28.313V26.92H199.122V28.313H203.392L200.312 31.036L200.998 32.191C201.285 32.037 201.628 31.939 201.95 31.939C203.07 31.939 203.833 32.751 203.833 33.871C203.833 34.984 203.07 35.789 201.964 35.803C201.138 35.81 200.403 35.341 200.137 34.466L198.723 34.858C199.15 36.293 200.466 37.189 201.964 37.189Z" fill="#D3D7E0"/>
<g filter="url(#filter0_i_5552_34988)">
<path d="M89 104H302.4C302.96 104 303.24 104 303.454 104.109C303.642 104.205 303.795 104.358 303.891 104.546C304 104.76 304 105.04 304 105.6V154.4C304 154.96 304 155.24 303.891 155.454C303.795 155.642 303.642 155.795 303.454 155.891C303.24 156 302.96 156 302.4 156H89L84 149.5L89 143L84 136L89 130L84 123.5L89 117L84 110.5L89 104Z" fill="#99E099"/>
</g>
<path d="M89 104H302.4C302.96 104 303.24 104 303.454 104.109C303.642 104.205 303.795 104.358 303.891 104.546C304 104.76 304 105.04 304 105.6V154.4C304 154.96 304 155.24 303.891 155.454C303.795 155.642 303.642 155.795 303.454 155.891C303.24 156 302.96 156 302.4 156H89L84 149.5L89 143L84 136L89 130L84 123.5L89 117L84 110.5L89 104Z" stroke="#110529" stroke-width="2" stroke-linecap="round"/>
<g filter="url(#filter1_i_5552_34988)">
<path d="M89 280H302.4C302.96 280 303.24 280 303.454 280.109C303.642 280.205 303.795 280.358 303.891 280.546C304 280.76 304 281.04 304 281.6V330.4C304 330.96 304 331.24 303.891 331.454C303.795 331.642 303.642 331.795 303.454 331.891C303.24 332 302.96 332 302.4 332H89L84 325.5L89 319L84 312L89 306L84 299.5L89 293L84 286.5L89 280Z" fill="#99E099"/>
</g>
<path d="M89 280H302.4C302.96 280 303.24 280 303.454 280.109C303.642 280.205 303.795 280.358 303.891 280.546C304 280.76 304 281.04 304 281.6V330.4C304 330.96 304 331.24 303.891 331.454C303.795 331.642 303.642 331.795 303.454 331.891C303.24 332 302.96 332 302.4 332H89L84 325.5L89 319L84 312L89 306L84 299.5L89 293L84 286.5L89 280Z" stroke="#110529" stroke-width="2" stroke-linecap="round"/>
<path d="M665 44L703 97" stroke="#D3D7E0" stroke-width="2" stroke-linecap="square" stroke-dasharray="6 6"/>
<path d="M807 44L769 97" stroke="#D3D7E0" stroke-width="2" stroke-linecap="square" stroke-dasharray="6 6"/>
<path d="M620 44V97" stroke="#D3D7E0" stroke-width="2" stroke-linecap="square" stroke-dasharray="6 6"/>
<path d="M605.289 37V28.299H601.936V26.92H610.105V28.299H606.752V37H605.289ZM614.572 37V28.299H611.219V26.92H619.388V28.299H616.035V37H614.572ZM624.715 37.21C623.707 37.21 622.849 36.9907 622.139 36.552C621.43 36.1087 620.886 35.4927 620.508 34.704C620.135 33.9153 619.948 33.0007 619.948 31.96C619.948 30.9193 620.135 30.0047 620.508 29.216C620.886 28.4273 621.43 27.8137 622.139 27.375C622.849 26.9317 623.707 26.71 624.715 26.71C625.877 26.71 626.839 27.004 627.599 27.592C628.365 28.18 628.897 28.971 629.195 29.965L627.711 30.364C627.515 29.6593 627.165 29.1063 626.661 28.705C626.162 28.3037 625.513 28.103 624.715 28.103C624.001 28.103 623.406 28.264 622.93 28.586C622.454 28.908 622.095 29.3583 621.852 29.937C621.614 30.5157 621.495 31.19 621.495 31.96C621.491 32.73 621.607 33.4043 621.845 33.983C622.088 34.5617 622.447 35.012 622.923 35.334C623.404 35.656 624.001 35.817 624.715 35.817C625.513 35.817 626.162 35.6163 626.661 35.215C627.165 34.809 627.515 34.256 627.711 33.556L629.195 33.955C628.897 34.949 628.365 35.74 627.599 36.328C626.839 36.916 625.877 37.21 624.715 37.21ZM633.248 37V28.299H629.895V26.92H638.064V28.299H634.711V37H633.248Z" fill="#110529"/>
<path d="M338.682 37.21C341.006 37.21 342.567 35.943 343.162 33.955L341.678 33.556C341.279 34.963 340.278 35.817 338.682 35.817C336.54 35.817 335.448 34.27 335.462 31.96C335.469 29.65 336.54 28.103 338.682 28.103C340.278 28.103 341.279 28.957 341.678 30.364L343.162 29.965C342.567 27.977 341.006 26.71 338.682 26.71C335.658 26.71 333.915 28.845 333.915 31.96C333.915 35.075 335.658 37.21 338.682 37.21ZM344.702 37H347.859C348.041 37 348.643 37 349.112 36.937C351.478 36.636 352.738 34.529 352.738 31.96C352.738 29.391 351.478 27.284 349.112 26.983C348.643 26.92 348.041 26.92 347.859 26.92H344.702V37ZM346.2 35.607V28.313H347.859C348.167 28.313 348.671 28.32 349.007 28.383C350.519 28.663 351.184 30.189 351.184 31.96C351.184 33.689 350.547 35.243 349.007 35.537C348.671 35.6 348.181 35.607 347.859 35.607H346.2ZM354.368 37H355.831V33.381H358.505L360.262 37H361.935L360.031 33.094C361.172 32.597 361.746 31.491 361.746 30.147C361.746 28.516 360.906 27.235 359.219 26.976C358.953 26.934 358.638 26.92 358.442 26.92H354.368V37ZM355.831 31.995V28.299H358.386C358.568 28.299 358.813 28.313 359.023 28.369C359.919 28.579 360.255 29.405 360.255 30.147C360.255 30.889 359.919 31.715 359.023 31.932C358.813 31.981 358.568 31.995 358.386 31.995H355.831ZM366.294 37.189C368.177 37.189 369.661 35.796 369.661 33.871C369.661 32.233 368.653 30.924 367.022 30.707L369.514 28.313V26.92H363.452V28.313H367.722L364.642 31.036L365.328 32.191C365.615 32.037 365.958 31.939 366.28 31.939C367.4 31.939 368.163 32.751 368.163 33.871C368.163 34.984 367.4 35.789 366.294 35.803C365.468 35.81 364.733 35.341 364.467 34.466L363.053 34.858C363.48 36.293 364.796 37.189 366.294 37.189Z" fill="#D3D7E0"/>
<path d="M416 144V24" stroke="#D3D7E0" stroke-width="2" stroke-linecap="square" stroke-dasharray="6 6"/>
<path d="M468.593 37H470.056V32.695H473.724V31.225H470.056V28.383H474.564V26.92H468.593V37ZM475.826 37H477.289V33.381H479.963L481.72 37H483.393L481.489 33.094C482.63 32.597 483.204 31.491 483.204 30.147C483.204 28.516 482.364 27.235 480.677 26.976C480.411 26.934 480.096 26.92 479.9 26.92H475.826V37ZM477.289 31.995V28.299H479.844C480.026 28.299 480.271 28.313 480.481 28.369C481.377 28.579 481.713 29.405 481.713 30.147C481.713 30.889 481.377 31.715 480.481 31.932C480.271 31.981 480.026 31.995 479.844 31.995H477.289ZM489.201 37H490.685V35.243H491.686V33.857H490.685V31.127H489.201V33.857H486.324L489.6 26.92H487.927L484.651 33.857V35.243H489.201V37Z" fill="#D3D7E0"/>
<path d="M544 144V24" stroke="#D3D7E0" stroke-width="2" stroke-linecap="square" stroke-dasharray="6 6"/>
<path d="M652.128 88V78.056L649.96 79.368V77.776L652.128 76.48H653.576V88H652.128ZM661.596 88V85.88H656.3V84.528L660.1 76.48H661.716L657.916 84.528H661.596V81.288H663.036V84.528H664.236V85.88H663.036V88H661.596ZM670.119 88.24C669.309 88.24 668.626 88.04 668.071 87.64C667.517 87.2347 667.095 86.688 666.807 86C666.525 85.3067 666.383 84.5307 666.383 83.672C666.383 82.8027 666.525 82.024 666.807 81.336C667.095 80.648 667.517 80.1067 668.071 79.712C668.631 79.3173 669.317 79.12 670.127 79.12C670.927 79.12 671.615 79.32 672.191 79.72C672.773 80.1147 673.218 80.656 673.527 81.344C673.837 82.032 673.991 82.808 673.991 83.672C673.991 84.536 673.837 85.312 673.527 86C673.218 86.688 672.773 87.2347 672.191 87.64C671.615 88.04 670.925 88.24 670.119 88.24ZM666.143 88V76.48H667.575V81.64H667.415V88H666.143ZM669.943 86.936C670.514 86.936 670.986 86.792 671.359 86.504C671.733 86.216 672.013 85.8267 672.199 85.336C672.386 84.84 672.479 84.2853 672.479 83.672C672.479 83.064 672.386 82.5147 672.199 82.024C672.018 81.5333 671.735 81.144 671.351 80.856C670.973 80.568 670.49 80.424 669.903 80.424C669.343 80.424 668.879 80.5627 668.511 80.84C668.143 81.112 667.869 81.4933 667.687 81.984C667.506 82.4693 667.415 83.032 667.415 83.672C667.415 84.3013 667.503 84.864 667.679 85.36C667.861 85.8507 668.138 86.2373 668.511 86.52C668.885 86.7973 669.362 86.936 669.943 86.936ZM679.713 88.24C678.902 88.24 678.22 88.04 677.665 87.64C677.11 87.2347 676.689 86.688 676.401 86C676.118 85.3067 675.977 84.5307 675.977 83.672C675.977 82.8027 676.118 82.024 676.401 81.336C676.689 80.648 677.11 80.1067 677.665 79.712C678.225 79.3173 678.91 79.12 679.721 79.12C680.521 79.12 681.209 79.32 681.785 79.72C682.366 80.1147 682.812 80.656 683.121 81.344C683.43 82.032 683.585 82.808 683.585 83.672C683.585 84.536 683.43 85.312 683.121 86C682.812 86.688 682.366 87.2347 681.785 87.64C681.209 88.04 680.518 88.24 679.713 88.24ZM675.737 91.84V79.36H677.009V85.72H677.169V91.84H675.737ZM679.537 86.936C680.108 86.936 680.58 86.792 680.953 86.504C681.326 86.216 681.606 85.8267 681.793 85.336C681.98 84.84 682.073 84.2853 682.073 83.672C682.073 83.064 681.98 82.5147 681.793 82.024C681.612 81.5333 681.329 81.144 680.945 80.856C680.566 80.568 680.084 80.424 679.497 80.424C678.937 80.424 678.473 80.5627 678.105 80.84C677.737 81.112 677.462 81.4933 677.281 81.984C677.1 82.4693 677.009 83.032 677.009 83.672C677.009 84.3013 677.097 84.864 677.273 85.36C677.454 85.8507 677.732 86.2373 678.105 86.52C678.478 86.7973 678.956 86.936 679.537 86.936Z" fill="#110529"/>
<rect width="54" height="20" transform="translate(757 72)" fill="white"/>
<path d="M766.008 88.24C768.248 88.24 769.896 86.592 769.896 84.352V80.128C769.896 77.888 768.248 76.24 766.008 76.24C763.768 76.24 762.12 77.888 762.12 80.128V84.352C762.12 86.592 763.768 88.24 766.008 88.24ZM763.568 84.432V80.04C763.568 78.688 764.656 77.6 766.008 77.6C767.36 77.6 768.448 78.688 768.448 80.04V84.432C768.448 85.784 767.36 86.872 766.008 86.872C764.656 86.872 763.568 85.784 763.568 84.432ZM771.976 82.824H776.776V81.648H771.976V82.824ZM778.534 87.992H786.19V86.632H780.726L784.438 83.296C785.622 82.248 786.19 81.488 786.19 79.976C786.19 77.856 784.574 76.24 782.438 76.24C780.222 76.24 778.59 77.784 778.59 79.952H780.046C780.03 78.696 781.038 77.6 782.414 77.6C783.742 77.6 784.734 78.632 784.734 79.96C784.734 80.688 784.502 81.352 783.654 82.112L778.542 86.712L778.534 87.992ZM792.072 88.24C794.488 88.24 795.944 86.264 795.944 83.672C795.944 81.08 794.48 79.12 792.08 79.12C791 79.12 790.144 79.496 789.528 80.144V76.48H788.096V88H789.368V87.024C790 87.784 790.904 88.24 792.072 88.24ZM789.368 83.672C789.368 81.76 790.168 80.424 791.856 80.424C793.616 80.424 794.432 81.848 794.432 83.672C794.432 85.512 793.6 86.936 791.896 86.936C790.152 86.936 789.368 85.568 789.368 83.672ZM801.666 88.24C804.082 88.24 805.538 86.264 805.538 83.672C805.538 81.08 804.074 79.12 801.674 79.12C800.498 79.12 799.594 79.568 798.962 80.328V79.36H797.69V91.84H799.122V87.2C799.738 87.856 800.594 88.24 801.666 88.24ZM798.962 83.672C798.962 81.76 799.762 80.424 801.45 80.424C803.21 80.424 804.026 81.848 804.026 83.672C804.026 85.512 803.194 86.936 801.49 86.936C799.746 86.936 798.962 85.568 798.962 83.672Z" fill="#110529"/>
<path d="M193.258 138H195.738L200.558 123.6H198.708L194.478 136.11L190.288 123.6H188.438L193.258 138Z" fill="#110529"/>
<path d="M193.258 314H195.738L200.558 299.6H198.708L194.478 312.11L190.288 299.6H188.438L193.258 314Z" fill="#110529"/>
<g filter="url(#filter2_i_5552_34988)">
<rect x="400" y="104" width="144" height="52" rx="1" fill="#C1ADFF"/>
<path d="M471.244 138.29C472.694 138.29 473.954 137.7 474.684 136.43C475.214 135.51 475.154 134.72 475.154 133.48V123.6H473.354V133.48C473.354 134.37 473.354 134.99 473.094 135.51C472.704 136.29 471.884 136.6 471.204 136.6C470.134 136.6 469.224 135.83 469.014 134.85L467.244 135.27C467.754 137.11 469.224 138.29 471.244 138.29Z" fill="#110529"/>
<rect x="400" y="104" width="144" height="52" rx="1" stroke="#110529" stroke-width="2" stroke-linecap="round"/>
</g>
<g filter="url(#filter3_i_5552_34988)">
<rect x="334" y="280" width="144" height="52" rx="1" fill="#C1ADFF"/>
<path d="M405.244 314.29C406.694 314.29 407.954 313.7 408.684 312.43C409.214 311.51 409.154 310.72 409.154 309.48V299.6H407.354V309.48C407.354 310.37 407.354 310.99 407.094 311.51C406.704 312.29 405.884 312.6 405.204 312.6C404.134 312.6 403.224 311.83 403.014 310.85L401.244 311.27C401.754 313.11 403.224 314.29 405.244 314.29Z" fill="#110529"/>
<rect x="334" y="280" width="144" height="52" rx="1" stroke="#110529" stroke-width="2" stroke-linecap="round"/>
</g>
<g filter="url(#filter4_i_5552_34988)">
<rect x="632" y="104" width="72" height="52" rx="1" fill="#D6E0FF"/>
<path d="M656.553 138.3C659.893 138.3 662.233 136.1 662.233 132.75V123.6H660.433V132.6C660.433 135.31 658.393 136.62 656.553 136.62C654.733 136.62 652.673 135.33 652.673 132.6V123.6L650.873 123.61V132.75C650.873 136.11 653.213 138.3 656.553 138.3ZM665.033 138H666.723V127.51L671.613 138H672.563L677.453 127.51V137.99H679.143V123.6H677.503L672.093 135.07L666.653 123.6H665.033V138ZM682.147 138H683.927V123.6H682.147V138Z" fill="#110529"/>
<rect x="632" y="104" width="72" height="52" rx="1" stroke="#110529" stroke-width="2" stroke-linecap="round"/>
</g>
<g filter="url(#filter5_i_5552_34988)">
<rect x="566" y="280" width="72" height="52" rx="1" fill="#D6E0FF"/>
<path d="M590.553 314.3C593.893 314.3 596.233 312.1 596.233 308.75V299.6H594.433V308.6C594.433 311.31 592.393 312.62 590.553 312.62C588.733 312.62 586.673 311.33 586.673 308.6V299.6L584.873 299.61V308.75C584.873 312.11 587.213 314.3 590.553 314.3ZM599.033 314H600.723V303.51L605.613 314H606.563L611.453 303.51V313.99H613.143V299.6H611.503L606.093 311.07L600.653 299.6H599.033V314ZM616.147 314H617.927V299.6H616.147V314Z" fill="#110529"/>
<rect x="566" y="280" width="72" height="52" rx="1" stroke="#110529" stroke-width="2" stroke-linecap="round"/>
</g>
<g filter="url(#filter6_i_5552_34988)">
<rect x="704" y="104" width="64" height="52" rx="1" fill="#D3D7E0"/>
<rect x="704" y="104" width="64" height="52" rx="1" stroke="#110529" stroke-width="2" stroke-linecap="round"/>
</g>
<g filter="url(#filter7_i_5552_34988)">
<rect x="638" y="280" width="64" height="52" rx="1" fill="#D3D7E0"/>
<rect x="638" y="280" width="64" height="52" rx="1" stroke="#110529" stroke-width="2" stroke-linecap="round"/>
</g>
<g filter="url(#filter8_i_5552_34988)">
<rect x="768" y="104" width="30" height="52" rx="1" fill="#90E0E0"/>
<path d="M777.447 138H779.247V126.74L786.757 138H788.557V123.6H786.757V134.85L779.247 123.6H777.447V138Z" fill="#110529"/>
<rect x="768" y="104" width="30" height="52" rx="1" stroke="#110529" stroke-width="2" stroke-linecap="round"/>
</g>
<g filter="url(#filter9_i_5552_34988)">
<rect x="702" y="280" width="30" height="52" rx="1" fill="#90E0E0"/>
<path d="M711.447 314H713.247V302.74L720.757 314H722.557V299.6H720.757V310.85L713.247 299.6H711.447V314Z" fill="#110529"/>
<rect x="702" y="280" width="30" height="52" rx="1" stroke="#110529" stroke-width="2" stroke-linecap="round"/>
</g>
<path d="M51.4 216H53.18V210.68H57.39L59.97 216H62.01L59.23 210.29C60.86 209.61 61.71 208.04 61.71 206.14C61.71 203.85 60.48 202.04 58.15 201.68C57.78 201.62 57.37 201.6 57.09 201.6H51.4V216ZM53.18 208.99V203.29H57.03C57.28 203.29 57.63 203.31 57.93 203.38C59.31 203.69 59.89 204.94 59.89 206.14C59.89 207.34 59.31 208.59 57.93 208.9C57.63 208.97 57.28 208.99 57.03 208.99H53.18ZM63.8125 215.99H73.3825V214.29H66.5525L71.1925 210.12C72.6725 208.81 73.3825 207.86 73.3825 205.97C73.3825 203.32 71.3625 201.3 68.6925 201.3C65.9225 201.3 63.8825 203.23 63.8825 205.94H65.7025C65.6825 204.37 66.9425 203 68.6625 203C70.3225 203 71.5625 204.29 71.5625 205.95C71.5625 206.86 71.2725 207.69 70.2125 208.64L63.8225 214.39L63.8125 215.99Z" fill="#110529"/>
<path d="M83 200V216H93V224L107 208L93 192V200H83Z" fill="#110529"/>
<path d="M283 208H112" stroke="#110529" stroke-width="2" stroke-linecap="square"/>
<rect width="56" height="20" transform="translate(283 198)" fill="white"/>
<path d="M290.267 202L288 203.35V205L290.267 203.633V214H291.767V202H290.267ZM295.332 202L294.966 208.167L296.299 208.933C296.449 208.683 296.632 208.45 296.849 208.267C297.299 207.85 297.899 207.633 298.532 207.633C299.199 207.633 299.816 207.9 300.282 208.317C300.799 208.8 301.116 209.483 301.116 210.217C301.116 210.933 300.832 211.583 300.349 212.067C299.882 212.533 299.232 212.8 298.532 212.8C297.866 212.8 297.249 212.55 296.782 212.117C296.416 211.8 296.149 211.367 296.032 210.883L294.599 211.267C294.799 211.983 295.199 212.65 295.732 213.15C296.466 213.85 297.482 214.25 298.532 214.233C299.616 214.217 300.649 213.817 301.399 213.067C302.132 212.333 302.599 211.3 302.616 210.217C302.616 209.083 302.182 208.033 301.332 207.267C300.616 206.633 299.666 206.267 298.699 206.267C297.882 206.267 297.082 206.567 296.449 207.067L296.666 203.4H301.649V202H295.332ZM308.67 214.25C307.52 214.25 306.37 213.783 305.62 212.917C304.886 212.067 304.62 211.183 304.62 210.033V205.95C304.62 204.783 304.886 203.9 305.653 203.017C306.386 202.217 307.486 201.733 308.67 201.75C309.82 201.733 310.936 202.167 311.703 203.017C312.453 203.85 312.72 204.767 312.72 205.95V210.033C312.72 211.167 312.47 212.083 311.72 212.933C310.97 213.767 309.87 214.25 308.67 214.25ZM308.67 203.167C307.803 203.15 306.986 203.633 306.536 204.333C306.236 204.783 306.136 205.317 306.136 205.95V210.033C306.136 210.617 306.22 211.183 306.553 211.667C307.02 212.367 307.803 212.833 308.67 212.817C309.553 212.833 310.353 212.367 310.803 211.667C311.136 211.183 311.22 210.683 311.22 210.033V205.95C311.22 205.333 311.136 204.867 310.82 204.35C310.37 203.633 309.553 203.15 308.67 203.167ZM322.491 206.183C321.757 205.25 320.607 204.75 319.374 204.75C318.307 204.75 317.291 205.15 316.557 205.85V202H315.057V214H316.391V212.95C317.107 213.817 318.174 214.25 319.374 214.25C320.591 214.25 321.741 213.733 322.491 212.8C323.241 211.85 323.491 210.667 323.491 209.483C323.491 208.3 323.207 207.1 322.491 206.183ZM321.291 211.883C320.807 212.567 320.007 212.883 319.191 212.883C318.357 212.883 317.591 212.583 317.091 211.967C316.591 211.35 316.391 210.417 316.391 209.483C316.391 208.567 316.591 207.65 317.091 207.017C317.574 206.4 318.324 206.1 319.141 206.1C320.024 206.1 320.791 206.417 321.274 207.1C321.741 207.717 321.907 208.583 321.907 209.483C321.907 210.383 321.757 211.267 321.291 211.883ZM332.756 206.183C332.023 205.25 330.873 204.75 329.64 204.75C328.49 204.75 327.39 205.2 326.656 206.017V205H325.323V218H326.823V213.15C327.523 213.883 328.523 214.25 329.64 214.25C330.856 214.25 332.006 213.733 332.756 212.8C333.506 211.85 333.756 210.667 333.756 209.483C333.756 208.3 333.473 207.1 332.756 206.183ZM331.556 211.883C331.073 212.567 330.273 212.883 329.456 212.883C328.623 212.883 327.856 212.583 327.356 211.967C326.856 211.35 326.656 210.417 326.656 209.483C326.656 208.567 326.856 207.65 327.356 207.017C327.84 206.4 328.59 206.1 329.406 206.1C330.29 206.1 331.056 206.417 331.54 207.1C332.006 207.717 332.173 208.583 332.173 209.483C332.173 210.383 332.023 211.267 331.556 211.883Z" fill="#110529"/>
<path d="M510 208H339" stroke="#110529" stroke-width="2" stroke-linecap="square"/>
<path d="M520 208L520.707 207.293L521.414 208L520.707 208.707L520 208ZM512.707 216.707L512 217.414L510.586 216L511.293 215.293L512.707 216.707ZM511.293 200.707L510.586 200L512 198.586L512.707 199.293L511.293 200.707ZM510 207L520 207L520 209L510 209L510 207ZM520.707 208.707L512.707 216.707L511.293 215.293L519.293 207.293L520.707 208.707ZM519.293 208.707L511.293 200.707L512.707 199.293L520.707 207.293L519.293 208.707Z" fill="#110529"/>
<path d="M51.4 392H53.18V386.68H57.39L59.97 392H62.01L59.23 386.29C60.86 385.61 61.71 384.04 61.71 382.14C61.71 379.85 60.48 378.04 58.15 377.68C57.78 377.62 57.37 377.6 57.09 377.6H51.4V392ZM53.18 384.99V379.29H57.03C57.28 379.29 57.63 379.31 57.93 379.38C59.31 379.69 59.89 380.94 59.89 382.14C59.89 383.34 59.31 384.59 57.93 384.9C57.63 384.97 57.28 384.99 57.03 384.99H53.18ZM63.8125 391.99H73.3825V390.29H66.5525L71.1925 386.12C72.6725 384.81 73.3825 383.86 73.3825 381.97C73.3825 379.32 71.3625 377.3 68.6925 377.3C65.9225 377.3 63.8825 379.23 63.8825 381.94H65.7025C65.6825 380.37 66.9425 379 68.6625 379C70.3225 379 71.5625 380.29 71.5625 381.95C71.5625 382.86 71.2725 383.69 70.2125 384.64L63.8225 390.39L63.8125 391.99Z" fill="#110529"/>
<path d="M83 376V392H93V400L107 384L93 368V376H83Z" fill="#110529"/>
<path d="M283 384H112" stroke="#110529" stroke-width="2" stroke-linecap="square"/>
<rect width="56" height="20" transform="translate(283 374)" fill="white"/>
<path d="M290.267 378L288 379.35V381L290.267 379.633V390H291.767V378H290.267ZM295.332 378L294.966 384.167L296.299 384.933C296.449 384.683 296.632 384.45 296.849 384.267C297.299 383.85 297.899 383.633 298.532 383.633C299.199 383.633 299.816 383.9 300.282 384.317C300.799 384.8 301.116 385.483 301.116 386.217C301.116 386.933 300.832 387.583 300.349 388.067C299.882 388.533 299.232 388.8 298.532 388.8C297.866 388.8 297.249 388.55 296.782 388.117C296.416 387.8 296.149 387.367 296.032 386.883L294.599 387.267C294.799 387.983 295.199 388.65 295.732 389.15C296.466 389.85 297.482 390.25 298.532 390.233C299.616 390.217 300.649 389.817 301.399 389.067C302.132 388.333 302.599 387.3 302.616 386.217C302.616 385.083 302.182 384.033 301.332 383.267C300.616 382.633 299.666 382.267 298.699 382.267C297.882 382.267 297.082 382.567 296.449 383.067L296.666 379.4H301.649V378H295.332ZM308.67 390.25C307.52 390.25 306.37 389.783 305.62 388.917C304.886 388.067 304.62 387.183 304.62 386.033V381.95C304.62 380.783 304.886 379.9 305.653 379.017C306.386 378.217 307.486 377.733 308.67 377.75C309.82 377.733 310.936 378.167 311.703 379.017C312.453 379.85 312.72 380.767 312.72 381.95V386.033C312.72 387.167 312.47 388.083 311.72 388.933C310.97 389.767 309.87 390.25 308.67 390.25ZM308.67 379.167C307.803 379.15 306.986 379.633 306.536 380.333C306.236 380.783 306.136 381.317 306.136 381.95V386.033C306.136 386.617 306.22 387.183 306.553 387.667C307.02 388.367 307.803 388.833 308.67 388.817C309.553 388.833 310.353 388.367 310.803 387.667C311.136 387.183 311.22 386.683 311.22 386.033V381.95C311.22 381.333 311.136 380.867 310.82 380.35C310.37 379.633 309.553 379.15 308.67 379.167ZM322.491 382.183C321.757 381.25 320.607 380.75 319.374 380.75C318.307 380.75 317.291 381.15 316.557 381.85V378H315.057V390H316.391V388.95C317.107 389.817 318.174 390.25 319.374 390.25C320.591 390.25 321.741 389.733 322.491 388.8C323.241 387.85 323.491 386.667 323.491 385.483C323.491 384.3 323.207 383.1 322.491 382.183ZM321.291 387.883C320.807 388.567 320.007 388.883 319.191 388.883C318.357 388.883 317.591 388.583 317.091 387.967C316.591 387.35 316.391 386.417 316.391 385.483C316.391 384.567 316.591 383.65 317.091 383.017C317.574 382.4 318.324 382.1 319.141 382.1C320.024 382.1 320.791 382.417 321.274 383.1C321.741 383.717 321.907 384.583 321.907 385.483C321.907 386.383 321.757 387.267 321.291 387.883ZM332.756 382.183C332.023 381.25 330.873 380.75 329.64 380.75C328.49 380.75 327.39 381.2 326.656 382.017V381H325.323V394H326.823V389.15C327.523 389.883 328.523 390.25 329.64 390.25C330.856 390.25 332.006 389.733 332.756 388.8C333.506 387.85 333.756 386.667 333.756 385.483C333.756 384.3 333.473 383.1 332.756 382.183ZM331.556 387.883C331.073 388.567 330.273 388.883 329.456 388.883C328.623 388.883 327.856 388.583 327.356 387.967C326.856 387.35 326.656 386.417 326.656 385.483C326.656 384.567 326.856 383.65 327.356 383.017C327.84 382.4 328.59 382.1 329.406 382.1C330.29 382.1 331.056 382.417 331.54 383.1C332.006 383.717 332.173 384.583 332.173 385.483C332.173 386.383 332.023 387.267 331.556 387.883Z" fill="#110529"/>
<path d="M510 384H339" stroke="#110529" stroke-width="2" stroke-linecap="square"/>
<path d="M520 384L520.707 383.293L521.414 384L520.707 384.707L520 384ZM512.707 392.707L512 393.414L510.586 392L511.293 391.293L512.707 392.707ZM511.293 376.707L510.586 376L512 374.586L512.707 375.293L511.293 376.707ZM510 383L520 383L520 385L510 385L510 383ZM520.707 384.707L512.707 392.707L511.293 391.293L519.293 383.293L520.707 384.707ZM519.293 384.707L511.293 376.707L512.707 375.293L520.707 383.293L519.293 384.707Z" fill="#110529"/>
<path d="M285 184L284.293 183.293L283.586 184L284.293 184.707L285 184ZM292.293 192.707L293 193.414L294.414 192L293.707 191.293L292.293 192.707ZM293.707 176.707L294.414 176L293 174.586L292.293 175.293L293.707 176.707ZM305 183L285 183L285 185L305 185L305 183ZM284.293 184.707L292.293 192.707L293.707 191.293L285.707 183.293L284.293 184.707ZM285.707 184.707L293.707 176.707L292.293 175.293L284.293 183.293L285.707 184.707Z" fill="#110529"/>
<path d="M300 184L509.5 184" stroke="#110529" stroke-width="2" stroke-linecap="square"/>
<rect width="53" height="20" transform="translate(509.5 174)" fill="white"/>
<path d="M516.628 190H518.076V178.48H516.628L514.46 179.776V181.368L516.628 180.056V190ZM524.528 190.24C526.672 190.24 528.488 188.504 528.488 186.376C528.488 184.232 526.864 182.584 524.728 182.584C523.952 182.584 523.176 182.848 522.576 183.328L522.784 179.832H527.688V178.48H521.504L521.152 184.504L522.416 184.984C522.832 184.384 523.552 183.896 524.568 183.896C525.912 183.896 527.056 184.984 527.056 186.376C527.056 187.728 525.968 188.856 524.568 188.856C523.496 188.856 522.456 188.144 522.168 187.008L520.8 187.376C521.264 189.056 522.744 190.24 524.528 190.24ZM534.289 190.24C536.529 190.24 538.177 188.592 538.177 186.352V182.128C538.177 179.888 536.529 178.24 534.289 178.24C532.049 178.24 530.401 179.888 530.401 182.128V186.352C530.401 188.592 532.049 190.24 534.289 190.24ZM531.849 186.432V182.04C531.849 180.688 532.937 179.6 534.289 179.6C535.641 179.6 536.729 180.688 536.729 182.04V186.432C536.729 187.784 535.641 188.872 534.289 188.872C532.937 188.872 531.849 187.784 531.849 186.432ZM544.385 190.24C546.801 190.24 548.257 188.264 548.257 185.672C548.257 183.08 546.793 181.12 544.393 181.12C543.313 181.12 542.457 181.496 541.841 182.144V178.48H540.409V190H541.681V189.024C542.313 189.784 543.217 190.24 544.385 190.24ZM541.681 185.672C541.681 183.76 542.481 182.424 544.169 182.424C545.929 182.424 546.745 183.848 546.745 185.672C546.745 187.512 545.913 188.936 544.209 188.936C542.465 188.936 541.681 187.568 541.681 185.672ZM553.979 190.24C556.395 190.24 557.851 188.264 557.851 185.672C557.851 183.08 556.387 181.12 553.987 181.12C552.811 181.12 551.907 181.568 551.275 182.328V181.36H550.003V193.84H551.435V189.2C552.051 189.856 552.907 190.24 553.979 190.24ZM551.275 185.672C551.275 183.76 552.075 182.424 553.763 182.424C555.523 182.424 556.339 183.848 556.339 185.672C556.339 187.512 555.507 188.936 553.803 188.936C552.059 188.936 551.275 187.568 551.275 185.672Z" fill="#110529"/>
<path d="M562.5 184L772 184" stroke="#110529" stroke-width="2" stroke-linecap="square"/>
<path d="M799 176V192H789V200L775 184L789 168V176H799Z" fill="#110529"/>
<path d="M808.4 192H810.18V186.68H814.39L816.97 192H819.01L816.23 186.29C817.86 185.61 818.71 184.04 818.71 182.14C818.71 179.85 817.48 178.04 815.15 177.68C814.78 177.62 814.37 177.6 814.09 177.6H808.4V192ZM810.18 184.99V179.29H814.03C814.28 179.29 814.63 179.31 814.93 179.38C816.31 179.69 816.89 180.94 816.89 182.14C816.89 183.34 816.31 184.59 814.93 184.9C814.63 184.97 814.28 184.99 814.03 184.99H810.18ZM823.723 192H825.533V177.6H823.723L821.013 179.22V181.21L823.723 179.57V192Z" fill="#110529"/>
<path d="M285 360L284.293 359.293L283.586 360L284.293 360.707L285 360ZM292.293 368.707L293 369.414L294.414 368L293.707 367.293L292.293 368.707ZM293.707 352.707L294.414 352L293 350.586L292.293 351.293L293.707 352.707ZM305 359L285 359L285 361L305 361L305 359ZM284.293 360.707L292.293 368.707L293.707 367.293L285.707 359.293L284.293 360.707ZM285.707 360.707L293.707 352.707L292.293 351.293L284.293 359.293L285.707 360.707Z" fill="#110529"/>
<path d="M300 360H476.5" stroke="#110529" stroke-width="2" stroke-linecap="square"/>
<rect width="53" height="20" transform="translate(476.5 350)" fill="white"/>
<path d="M483.628 366H485.076V354.48H483.628L481.46 355.776V357.368L483.628 356.056V366ZM491.528 366.24C493.672 366.24 495.488 364.504 495.488 362.376C495.488 360.232 493.864 358.584 491.728 358.584C490.952 358.584 490.176 358.848 489.576 359.328L489.784 355.832H494.688V354.48H488.504L488.152 360.504L489.416 360.984C489.832 360.384 490.552 359.896 491.568 359.896C492.912 359.896 494.056 360.984 494.056 362.376C494.056 363.728 492.968 364.856 491.568 364.856C490.496 364.856 489.456 364.144 489.168 363.008L487.8 363.376C488.264 365.056 489.744 366.24 491.528 366.24ZM501.289 366.24C503.529 366.24 505.177 364.592 505.177 362.352V358.128C505.177 355.888 503.529 354.24 501.289 354.24C499.049 354.24 497.401 355.888 497.401 358.128V362.352C497.401 364.592 499.049 366.24 501.289 366.24ZM498.849 362.432V358.04C498.849 356.688 499.937 355.6 501.289 355.6C502.641 355.6 503.729 356.688 503.729 358.04V362.432C503.729 363.784 502.641 364.872 501.289 364.872C499.937 364.872 498.849 363.784 498.849 362.432ZM511.385 366.24C513.801 366.24 515.257 364.264 515.257 361.672C515.257 359.08 513.793 357.12 511.393 357.12C510.313 357.12 509.457 357.496 508.841 358.144V354.48H507.409V366H508.681V365.024C509.313 365.784 510.217 366.24 511.385 366.24ZM508.681 361.672C508.681 359.76 509.481 358.424 511.169 358.424C512.929 358.424 513.745 359.848 513.745 361.672C513.745 363.512 512.913 364.936 511.209 364.936C509.465 364.936 508.681 363.568 508.681 361.672ZM520.979 366.24C523.395 366.24 524.851 364.264 524.851 361.672C524.851 359.08 523.387 357.12 520.987 357.12C519.811 357.12 518.907 357.568 518.275 358.328V357.36H517.003V369.84H518.435V365.2C519.051 365.856 519.907 366.24 520.979 366.24ZM518.275 361.672C518.275 359.76 519.075 358.424 520.763 358.424C522.523 358.424 523.339 359.848 523.339 361.672C523.339 363.512 522.507 364.936 520.803 364.936C519.059 364.936 518.275 363.568 518.275 361.672Z" fill="#110529"/>
<path d="M529.5 360H706" stroke="#110529" stroke-width="2" stroke-linecap="square"/>
<path d="M733 352V368H723V376L709 360L723 344V352H733Z" fill="#110529"/>
<path d="M742.4 368H744.18V362.68H748.39L750.97 368H753.01L750.23 362.29C751.86 361.61 752.71 360.04 752.71 358.14C752.71 355.85 751.48 354.04 749.15 353.68C748.78 353.62 748.37 353.6 748.09 353.6H742.4V368ZM744.18 360.99V355.29H748.03C748.28 355.29 748.63 355.31 748.93 355.38C750.31 355.69 750.89 356.94 750.89 358.14C750.89 359.34 750.31 360.59 748.93 360.9C748.63 360.97 748.28 360.99 748.03 360.99H744.18ZM757.723 368H759.533V353.6H757.723L755.013 355.22V357.21L757.723 355.57V368Z" fill="#110529"/>
<g filter="url(#filter10_i_5552_34988)">
<rect x="608" y="104" width="24" height="52" rx="1" fill="#D3D7E0"/>
<rect x="608" y="104" width="24" height="52" rx="1" stroke="#110529" stroke-width="2" stroke-linecap="round"/>
</g>
<g filter="url(#filter11_i_5552_34988)">
<rect x="542" y="280" width="24" height="52" rx="1" fill="#D3D7E0"/>
<rect x="542" y="280" width="24" height="52" rx="1" stroke="#110529" stroke-width="2" stroke-linecap="round"/>
</g>
<g filter="url(#filter12_i_5552_34988)">
<rect x="544" y="104" width="64" height="52" rx="1" fill="#FAFAAA"/>
<path d="M576.093 138.3C579.423 138.3 581.613 136.47 582.433 133.61L580.623 133.13C580.033 135.27 578.523 136.6 576.093 136.6C572.873 136.6 571.233 134.25 571.253 130.8C571.273 127.35 572.873 125 576.093 125C578.523 125 580.033 126.33 580.623 128.47L582.433 127.99C581.613 125.13 579.423 123.3 576.093 123.3C571.783 123.3 569.373 126.36 569.373 130.8C569.373 135.24 571.783 138.3 576.093 138.3Z" fill="#110529"/>
<rect x="544" y="104" width="64" height="52" rx="1" stroke="#110529" stroke-width="2" stroke-linecap="round"/>
</g>
<g filter="url(#filter13_i_5552_34988)">
<rect x="478" y="280" width="64" height="52" rx="1" fill="#FAFAAA"/>
<path d="M510.093 314.3C513.423 314.3 515.613 312.47 516.433 309.61L514.623 309.13C514.033 311.27 512.523 312.6 510.093 312.6C506.873 312.6 505.233 310.25 505.253 306.8C505.273 303.35 506.873 301 510.093 301C512.523 301 514.033 302.33 514.623 304.47L516.433 303.99C515.613 301.13 513.423 299.3 510.093 299.3C505.783 299.3 503.373 302.36 503.373 306.8C503.373 311.24 505.783 314.3 510.093 314.3Z" fill="#110529"/>
<rect x="478" y="280" width="64" height="52" rx="1" stroke="#110529" stroke-width="2" stroke-linecap="round"/>
</g>
<g filter="url(#filter14_i_5552_34988)">
<rect x="304" y="104" width="30" height="52" rx="1" fill="#CBEB67"/>
</g>
<rect x="304" y="104" width="30" height="52" rx="1" stroke="#110529" stroke-width="2" stroke-linecap="round"/>
<g filter="url(#filter15_i_5552_34988)">
<rect x="370" y="104" width="30" height="52" rx="1" fill="#FAAAFA"/>
</g>
<rect x="370" y="104" width="30" height="52" rx="1" stroke="#110529" stroke-width="2" stroke-linecap="round"/>
<g filter="url(#filter16_i_5552_34988)">
<rect x="334" y="104" width="36" height="52" rx="1" fill="#FFCB8F"/>
</g>
<rect x="334" y="104" width="36" height="52" rx="1" stroke="#110529" stroke-width="2" stroke-linecap="round"/>
<path d="M313.447 138H315.247V126.74L322.757 138H324.557V123.6H322.757V134.85L315.247 123.6H313.447V138Z" fill="#110529"/>
<path d="M379.447 138H381.247V126.74L388.757 138H390.557V123.6H388.757V134.85L381.247 123.6H379.447V138Z" fill="#110529"/>
<path d="M346.593 138H351.033C351.303 138 352.183 138 352.853 137.91C356.183 137.47 357.913 134.48 357.913 130.8C357.913 127.13 356.183 124.13 352.853 123.69C352.173 123.6 351.313 123.6 351.033 123.6H346.593V138ZM348.423 136.3V125.3H351.033C351.513 125.3 352.233 125.32 352.703 125.41C355.033 125.83 356.023 128.08 356.023 130.8C356.023 133.47 355.063 135.76 352.703 136.19C352.233 136.28 351.533 136.3 351.033 136.3H348.423Z" fill="#110529"/>
<g filter="url(#filter17_i_5552_34988)">
<rect x="304" y="280" width="30" height="52" rx="1" fill="#CBEB67"/>
</g>
<rect x="304" y="280" width="30" height="52" rx="1" stroke="#110529" stroke-width="2" stroke-linecap="round"/>
<path d="M313.447 314H315.247V302.74L322.757 314H324.557V299.6H322.757V310.85L315.247 299.6H313.447V314Z" fill="#110529"/>
<path d="M21.11 314H22.89V301.29H27.8V299.6H16.2V301.29H21.11V314ZM35.3122 314.3C38.6422 314.3 40.8322 312.47 41.6522 309.61L39.8422 309.13C39.2522 311.27 37.7422 312.6 35.3122 312.6C32.0922 312.6 30.4522 310.25 30.4722 306.8C30.4922 303.35 32.0922 301 35.3122 301C37.7422 301 39.2522 302.33 39.8422 304.47L41.6522 303.99C40.8322 301.13 38.6422 299.3 35.3122 299.3C31.0022 299.3 28.5922 302.36 28.5922 306.8C28.5922 311.24 31.0022 314.3 35.3122 314.3ZM43.8453 314H45.6253V308.68H49.8353L52.4153 314H54.4553L51.6753 308.29C53.3053 307.61 54.1553 306.04 54.1553 304.14C54.1553 301.85 52.9253 300.04 50.5953 299.68C50.2253 299.62 49.8153 299.6 49.5353 299.6H43.8453V314ZM45.6253 306.99V301.29H49.4753C49.7253 301.29 50.0753 301.31 50.3753 301.38C51.7553 301.69 52.3353 302.94 52.3353 304.14C52.3353 305.34 51.7553 306.59 50.3753 306.9C50.0753 306.97 49.7253 306.99 49.4753 306.99H45.6253ZM64.9317 314.3C66.5717 314.3 67.8817 313.54 68.5817 312.24V314H70.1717V303.2H68.5817V304.93C67.8917 303.65 66.6317 302.9 64.9817 302.9C61.8817 302.9 60.0617 305.35 60.0617 308.6C60.0617 311.83 61.8717 314.3 64.9317 314.3ZM61.9517 308.6C61.9517 306.19 63.0617 304.53 65.1717 304.53C67.2817 304.53 68.2817 306.2 68.2817 308.59C68.2817 310.96 67.2917 312.67 65.1517 312.67C62.9817 312.67 61.9517 310.88 61.9517 308.6Z" fill="#110529"/>
<path d="M21.11 138H22.89V125.29H27.8V123.6H16.2V125.29H21.11V138ZM35.3122 138.3C38.6422 138.3 40.8322 136.47 41.6522 133.61L39.8422 133.13C39.2522 135.27 37.7422 136.6 35.3122 136.6C32.0922 136.6 30.4522 134.25 30.4722 130.8C30.4922 127.35 32.0922 125 35.3122 125C37.7422 125 39.2522 126.33 39.8422 128.47L41.6522 127.99C40.8322 125.13 38.6422 123.3 35.3122 123.3C31.0022 123.3 28.5922 126.36 28.5922 130.8C28.5922 135.24 31.0022 138.3 35.3122 138.3ZM43.8453 138H45.6253V132.68H49.8353L52.4153 138H54.4553L51.6753 132.29C53.3053 131.61 54.1553 130.04 54.1553 128.14C54.1553 125.85 52.9253 124.04 50.5953 123.68C50.2253 123.62 49.8153 123.6 49.5353 123.6H43.8453V138ZM45.6253 130.99V125.29H49.4753C49.7253 125.29 50.0753 125.31 50.3753 125.38C51.7553 125.69 52.3353 126.94 52.3353 128.14C52.3353 129.34 51.7553 130.59 50.3753 130.9C50.0753 130.97 49.7253 130.99 49.4753 130.99H45.6253ZM60.6517 127.2V142.8H62.4317V137.39C63.1417 137.96 64.1317 138.3 65.3617 138.3C68.4117 138.3 70.2617 136.57 70.2617 133.95C70.2617 131.74 68.8617 130.44 67.4717 130.09C68.5217 129.58 69.0317 128.5 69.0317 127.22C69.0317 124.84 67.2817 123.3 64.7917 123.3C62.9317 123.3 61.4017 124.16 60.8717 125.78C60.7217 126.23 60.6517 126.71 60.6517 127.2ZM62.4717 133.71V127.86C62.4717 127.44 62.4917 126.8 62.7017 126.28C63.0617 125.35 63.9417 124.99 64.8317 124.99C66.2117 124.99 67.2117 125.82 67.2117 127.24C67.2117 128.67 66.2117 129.4 64.8417 129.54V131.14C67.0317 131.18 68.4517 132.1 68.4517 133.87C68.4517 135.52 67.2117 136.61 65.4417 136.61C64.1917 136.61 62.9517 136.04 62.6217 135.01C62.5017 134.64 62.4717 134.1 62.4717 133.71Z" fill="#110529"/>
<path d="M646.142 37.189C645.642 37.189 645.173 37.0957 644.735 36.909C644.296 36.7177 643.916 36.447 643.594 36.097C643.276 35.747 643.045 35.334 642.901 34.858L644.315 34.466C644.45 34.9 644.686 35.2337 645.022 35.467C645.358 35.6957 645.731 35.8077 646.142 35.803C646.51 35.7983 646.835 35.712 647.115 35.544C647.395 35.376 647.614 35.1497 647.773 34.865C647.931 34.5757 648.011 34.2443 648.011 33.871C648.011 33.311 647.836 32.849 647.486 32.485C647.14 32.121 646.688 31.939 646.128 31.939C645.969 31.939 645.806 31.9623 645.638 32.009C645.474 32.0557 645.32 32.1163 645.176 32.191L644.49 31.036L648.046 27.893L648.2 28.313H643.3V26.92H649.362V28.313L646.408 31.155L646.394 30.679C647.028 30.679 647.579 30.8213 648.046 31.106C648.512 31.386 648.872 31.7687 649.124 32.254C649.38 32.7347 649.509 33.2737 649.509 33.871C649.509 34.515 649.357 35.0867 649.054 35.586C648.755 36.0853 648.351 36.4773 647.843 36.762C647.339 37.0467 646.772 37.189 646.142 37.189ZM651.473 30.28L651.564 29.629C651.764 29.643 651.921 29.6057 652.033 29.517C652.145 29.4283 652.219 29.3047 652.257 29.146C652.294 28.9873 652.301 28.8077 652.278 28.607H651.473V26.92H653.02V28.747C653.02 29.2977 652.887 29.713 652.621 29.993C652.359 30.273 651.977 30.3687 651.473 30.28ZM660.34 37V28.299H656.987V26.92H665.156V28.299H661.803V37H660.34ZM670.399 37.21C669.722 37.21 669.099 37.0933 668.53 36.86C667.961 36.622 667.466 36.2767 667.046 35.824C666.626 35.3713 666.299 34.8207 666.066 34.172C665.833 33.5233 665.716 32.786 665.716 31.96C665.716 30.8727 665.914 29.9393 666.311 29.16C666.708 28.376 667.258 27.774 667.963 27.354C668.668 26.9293 669.48 26.717 670.399 26.717C671.584 26.717 672.529 26.9923 673.234 27.543C673.943 28.0937 674.426 28.8543 674.683 29.825L673.199 30.091C672.994 29.489 672.662 29.0083 672.205 28.649C671.748 28.2897 671.174 28.1077 670.483 28.103C669.769 28.0983 669.174 28.257 668.698 28.579C668.227 28.901 667.872 29.3537 667.634 29.937C667.396 30.5157 667.275 31.19 667.27 31.96C667.265 32.73 667.382 33.4043 667.62 33.983C667.858 34.557 668.215 35.005 668.691 35.327C669.172 35.649 669.769 35.8123 670.483 35.817C671.057 35.8263 671.549 35.7213 671.96 35.502C672.375 35.278 672.704 34.9513 672.947 34.522C673.19 34.0927 673.346 33.5653 673.416 32.94H671.456V31.764H674.97C674.979 31.848 674.986 31.96 674.991 32.1C674.996 32.2353 674.998 32.3217 674.998 32.359C674.998 33.2923 674.818 34.1253 674.459 34.858C674.1 35.5907 673.577 36.167 672.891 36.587C672.205 37.0023 671.374 37.21 670.399 37.21ZM675.42 37L678.696 26.92H680.803L684.079 37H682.56L679.543 27.802H679.921L676.939 37H675.42ZM677.121 34.725V33.353H682.385V34.725H677.121ZM689.184 37.21C688.507 37.21 687.884 37.0933 687.315 36.86C686.746 36.622 686.251 36.2767 685.831 35.824C685.411 35.3713 685.084 34.8207 684.851 34.172C684.618 33.5233 684.501 32.786 684.501 31.96C684.501 30.8727 684.699 29.9393 685.096 29.16C685.493 28.376 686.043 27.774 686.748 27.354C687.453 26.9293 688.265 26.717 689.184 26.717C690.369 26.717 691.314 26.9923 692.019 27.543C692.728 28.0937 693.211 28.8543 693.468 29.825L691.984 30.091C691.779 29.489 691.447 29.0083 690.99 28.649C690.533 28.2897 689.959 28.1077 689.268 28.103C688.554 28.0983 687.959 28.257 687.483 28.579C687.012 28.901 686.657 29.3537 686.419 29.937C686.181 30.5157 686.06 31.19 686.055 31.96C686.05 32.73 686.167 33.4043 686.405 33.983C686.643 34.557 687 35.005 687.476 35.327C687.957 35.649 688.554 35.8123 689.268 35.817C689.842 35.8263 690.334 35.7213 690.745 35.502C691.16 35.278 691.489 34.9513 691.732 34.522C691.975 34.0927 692.131 33.5653 692.201 32.94H690.241V31.764H693.755C693.764 31.848 693.771 31.96 693.776 32.1C693.781 32.2353 693.783 32.3217 693.783 32.359C693.783 33.2923 693.603 34.1253 693.244 34.858C692.885 35.5907 692.362 36.167 691.676 36.587C690.99 37.0023 690.159 37.21 689.184 37.21ZM694.205 37L697.481 26.92H699.588L702.864 37H701.345L698.328 27.802H698.706L695.724 37H694.205ZM695.906 34.725V33.353H701.17V34.725H695.906ZM708.053 37.21C707.045 37.21 706.187 36.9907 705.477 36.552C704.768 36.1087 704.224 35.4927 703.846 34.704C703.473 33.9153 703.286 33.0007 703.286 31.96C703.286 30.9193 703.473 30.0047 703.846 29.216C704.224 28.4273 704.768 27.8137 705.477 27.375C706.187 26.9317 707.045 26.71 708.053 26.71C709.215 26.71 710.177 27.004 710.937 27.592C711.703 28.18 712.235 28.971 712.533 29.965L711.049 30.364C710.853 29.6593 710.503 29.1063 709.999 28.705C709.5 28.3037 708.851 28.103 708.053 28.103C707.339 28.103 706.744 28.264 706.268 28.586C705.792 28.908 705.433 29.3583 705.19 29.937C704.952 30.5157 704.833 31.19 704.833 31.96C704.829 32.73 704.945 33.4043 705.183 33.983C705.426 34.5617 705.785 35.012 706.261 35.334C706.742 35.656 707.339 35.817 708.053 35.817C708.851 35.817 709.5 35.6163 709.999 35.215C710.503 34.809 710.853 34.256 711.049 33.556L712.533 33.955C712.235 34.949 711.703 35.74 710.937 36.328C710.177 36.916 709.215 37.21 708.053 37.21ZM718.196 37.21C717.519 37.21 716.896 37.0933 716.327 36.86C715.757 36.622 715.263 36.2767 714.843 35.824C714.423 35.3713 714.096 34.8207 713.863 34.172C713.629 33.5233 713.513 32.786 713.513 31.96C713.513 30.8727 713.711 29.9393 714.108 29.16C714.504 28.376 715.055 27.774 715.76 27.354C716.464 26.9293 717.276 26.717 718.196 26.717C719.381 26.717 720.326 26.9923 721.031 27.543C721.74 28.0937 722.223 28.8543 722.48 29.825L720.996 30.091C720.79 29.489 720.459 29.0083 720.002 28.649C719.544 28.2897 718.97 28.1077 718.28 28.103C717.566 28.0983 716.971 28.257 716.495 28.579C716.023 28.901 715.669 29.3537 715.431 29.937C715.193 30.5157 715.071 31.19 715.067 31.96C715.062 32.73 715.179 33.4043 715.417 33.983C715.655 34.557 716.012 35.005 716.488 35.327C716.968 35.649 717.566 35.8123 718.28 35.817C718.854 35.8263 719.346 35.7213 719.757 35.502C720.172 35.278 720.501 34.9513 720.744 34.522C720.986 34.0927 721.143 33.5653 721.213 32.94H719.253V31.764H722.767C722.776 31.848 722.783 31.96 722.788 32.1C722.792 32.2353 722.795 32.3217 722.795 32.359C722.795 33.2923 722.615 34.1253 722.256 34.858C721.896 35.5907 721.374 36.167 720.688 36.587C720.002 37.0023 719.171 37.21 718.196 37.21ZM728.397 37.21C727.389 37.21 726.53 36.9907 725.821 36.552C725.112 36.1087 724.568 35.4927 724.19 34.704C723.817 33.9153 723.63 33.0007 723.63 31.96C723.63 30.9193 723.817 30.0047 724.19 29.216C724.568 28.4273 725.112 27.8137 725.821 27.375C726.53 26.9317 727.389 26.71 728.397 26.71C729.559 26.71 730.52 27.004 731.281 27.592C732.046 28.18 732.578 28.971 732.877 29.965L731.393 30.364C731.197 29.6593 730.847 29.1063 730.343 28.705C729.844 28.3037 729.195 28.103 728.397 28.103C727.683 28.103 727.088 28.264 726.612 28.586C726.136 28.908 725.777 29.3583 725.534 29.937C725.296 30.5157 725.177 31.19 725.177 31.96C725.172 32.73 725.289 33.4043 725.527 33.983C725.77 34.5617 726.129 35.012 726.605 35.334C727.086 35.656 727.683 35.817 728.397 35.817C729.195 35.817 729.844 35.6163 730.343 35.215C730.847 34.809 731.197 34.256 731.393 33.556L732.877 33.955C732.578 34.949 732.046 35.74 731.281 36.328C730.52 36.916 729.559 37.21 728.397 37.21ZM733.443 37L736.719 26.92H738.826L742.102 37H740.583L737.566 27.802H737.944L734.962 37H733.443ZM735.144 34.725V33.353H740.408V34.725H735.144ZM743.123 37L746.399 26.92H748.506L751.782 37H750.263L747.246 27.802H747.624L744.642 37H743.123ZM744.824 34.725V33.353H750.088V34.725H744.824ZM756.971 37.21C755.963 37.21 755.105 36.9907 754.395 36.552C753.686 36.1087 753.142 35.4927 752.764 34.704C752.391 33.9153 752.204 33.0007 752.204 31.96C752.204 30.9193 752.391 30.0047 752.764 29.216C753.142 28.4273 753.686 27.8137 754.395 27.375C755.105 26.9317 755.963 26.71 756.971 26.71C758.133 26.71 759.095 27.004 759.855 27.592C760.621 28.18 761.153 28.971 761.451 29.965L759.967 30.364C759.771 29.6593 759.421 29.1063 758.917 28.705C758.418 28.3037 757.769 28.103 756.971 28.103C756.257 28.103 755.662 28.264 755.186 28.586C754.71 28.908 754.351 29.3583 754.108 29.937C753.87 30.5157 753.751 31.19 753.751 31.96C753.747 32.73 753.863 33.4043 754.101 33.983C754.344 34.5617 754.703 35.012 755.179 35.334C755.66 35.656 756.257 35.817 756.971 35.817C757.769 35.817 758.418 35.6163 758.917 35.215C759.421 34.809 759.771 34.256 759.967 33.556L761.451 33.955C761.153 34.949 760.621 35.74 759.855 36.328C759.095 36.916 758.133 37.21 756.971 37.21ZM765.504 37V28.299H762.151V26.92H770.32V28.299H766.967V37H765.504ZM770.467 37L773.743 26.92H775.85L779.126 37H777.607L774.59 27.802H774.968L771.986 37H770.467ZM772.168 34.725V33.353H777.432V34.725H772.168ZM782.06 37V28.299H778.707V26.92H786.876V28.299H783.523V37H782.06ZM792.12 37.21C791.443 37.21 790.82 37.0933 790.251 36.86C789.681 36.622 789.187 36.2767 788.767 35.824C788.347 35.3713 788.02 34.8207 787.787 34.172C787.553 33.5233 787.437 32.786 787.437 31.96C787.437 30.8727 787.635 29.9393 788.032 29.16C788.428 28.376 788.979 27.774 789.684 27.354C790.388 26.9293 791.2 26.717 792.12 26.717C793.305 26.717 794.25 26.9923 794.955 27.543C795.664 28.0937 796.147 28.8543 796.404 29.825L794.92 30.091C794.714 29.489 794.383 29.0083 793.926 28.649C793.468 28.2897 792.894 28.1077 792.204 28.103C791.49 28.0983 790.895 28.257 790.419 28.579C789.947 28.901 789.593 29.3537 789.355 29.937C789.117 30.5157 788.995 31.19 788.991 31.96C788.986 32.73 789.103 33.4043 789.341 33.983C789.579 34.557 789.936 35.005 790.412 35.327C790.892 35.649 791.49 35.8123 792.204 35.817C792.778 35.8263 793.27 35.7213 793.681 35.502C794.096 35.278 794.425 34.9513 794.668 34.522C794.91 34.0927 795.067 33.5653 795.137 32.94H793.177V31.764H796.691C796.7 31.848 796.707 31.96 796.712 32.1C796.716 32.2353 796.719 32.3217 796.719 32.359C796.719 33.2923 796.539 34.1253 796.18 34.858C795.82 35.5907 795.298 36.167 794.612 36.587C793.926 37.0023 793.095 37.21 792.12 37.21ZM802.237 37.21C801.56 37.21 800.937 37.0933 800.368 36.86C799.798 36.622 799.304 36.2767 798.884 35.824C798.464 35.3713 798.137 34.8207 797.904 34.172C797.67 33.5233 797.554 32.786 797.554 31.96C797.554 30.8727 797.752 29.9393 798.149 29.16C798.545 28.376 799.096 27.774 799.801 27.354C800.505 26.9293 801.317 26.717 802.237 26.717C803.422 26.717 804.367 26.9923 805.072 27.543C805.781 28.0937 806.264 28.8543 806.521 29.825L805.037 30.091C804.831 29.489 804.5 29.0083 804.043 28.649C803.585 28.2897 803.011 28.1077 802.321 28.103C801.607 28.0983 801.012 28.257 800.536 28.579C800.064 28.901 799.71 29.3537 799.472 29.937C799.234 30.5157 799.112 31.19 799.108 31.96C799.103 32.73 799.22 33.4043 799.458 33.983C799.696 34.557 800.053 35.005 800.529 35.327C801.009 35.649 801.607 35.8123 802.321 35.817C802.895 35.8263 803.387 35.7213 803.798 35.502C804.213 35.278 804.542 34.9513 804.785 34.522C805.027 34.0927 805.184 33.5653 805.254 32.94H803.294V31.764H806.808C806.817 31.848 806.824 31.96 806.829 32.1C806.833 32.2353 806.836 32.3217 806.836 32.359C806.836 33.2923 806.656 34.1253 806.297 34.858C805.937 35.5907 805.415 36.167 804.729 36.587C804.043 37.0023 803.212 37.21 802.237 37.21ZM810.471 37V28.299H807.118V26.92H815.287V28.299H811.934V37H810.471ZM821.775 37.21C821.257 37.21 820.774 37.105 820.326 36.895C819.882 36.6803 819.502 36.3863 819.185 36.013C818.867 35.635 818.641 35.201 818.506 34.711L819.913 34.333C819.992 34.6317 820.127 34.8907 820.319 35.11C820.515 35.3293 820.743 35.4997 821.005 35.621C821.266 35.7377 821.537 35.796 821.817 35.796C822.185 35.796 822.519 35.7073 822.818 35.53C823.121 35.3527 823.359 35.1147 823.532 34.816C823.709 34.5173 823.798 34.1883 823.798 33.829C823.798 33.4603 823.707 33.1267 823.525 32.828C823.347 32.5293 823.107 32.2937 822.804 32.121C822.505 31.9437 822.176 31.855 821.817 31.855C821.406 31.855 821.058 31.9367 820.774 32.1C820.489 32.2633 820.267 32.4523 820.109 32.667L818.835 32.219L819.143 26.92H824.582V28.299H819.892L820.487 27.746L820.242 31.715L819.955 31.344C820.221 31.078 820.538 30.875 820.907 30.735C821.275 30.595 821.642 30.525 822.006 30.525C822.631 30.525 823.189 30.6697 823.679 30.959C824.173 31.2483 824.563 31.6427 824.848 32.142C825.132 32.6367 825.275 33.199 825.275 33.829C825.275 34.4543 825.114 35.0237 824.792 35.537C824.47 36.0457 824.043 36.4517 823.511 36.755C822.979 37.0583 822.4 37.21 821.775 37.21ZM827.088 30.28L827.179 29.629C827.379 29.643 827.536 29.6057 827.648 29.517C827.76 29.4283 827.834 29.3047 827.872 29.146C827.909 28.9873 827.916 28.8077 827.893 28.607H827.088V26.92H828.635V28.747C828.635 29.2977 828.502 29.713 828.236 29.993C827.974 30.273 827.592 30.3687 827.088 30.28Z" fill="#110529"/>
<defs>
<filter id="filter0_i_5552_34988" x="82.7375" y="103" width="222.263" height="54" filterUnits="userSpaceOnUse" color-interpolation-filters="sRGB">
<feFlood flood-opacity="0" result="BackgroundImageFix"/>
<feBlend mode="normal" in="SourceGraphic" in2="BackgroundImageFix" result="shape"/>
<feColorMatrix in="SourceAlpha" type="matrix" values="0 0 0 0 0 0 0 0 0 0 0 0 0 0 0 0 0 0 127 0" result="hardAlpha"/>
<feOffset dx="-8" dy="-4"/>
<feComposite in2="hardAlpha" operator="arithmetic" k2="-1" k3="1"/>
<feColorMatrix type="matrix" values="0 0 0 0 0.0666667 0 0 0 0 0.0196078 0 0 0 0 0.160784 0 0 0 0.16 0"/>
<feBlend mode="normal" in2="shape" result="effect1_innerShadow_5552_34988"/>
</filter>
<filter id="filter1_i_5552_34988" x="82.7375" y="279" width="222.263" height="54" filterUnits="userSpaceOnUse" color-interpolation-filters="sRGB">
<feFlood flood-opacity="0" result="BackgroundImageFix"/>
<feBlend mode="normal" in="SourceGraphic" in2="BackgroundImageFix" result="shape"/>
<feColorMatrix in="SourceAlpha" type="matrix" values="0 0 0 0 0 0 0 0 0 0 0 0 0 0 0 0 0 0 127 0" result="hardAlpha"/>
<feOffset dx="-8" dy="-4"/>
<feComposite in2="hardAlpha" operator="arithmetic" k2="-1" k3="1"/>
<feColorMatrix type="matrix" values="0 0 0 0 0.0666667 0 0 0 0 0.0196078 0 0 0 0 0.160784 0 0 0 0.16 0"/>
<feBlend mode="normal" in2="shape" result="effect1_innerShadow_5552_34988"/>
</filter>
<filter id="filter2_i_5552_34988" x="399" y="103" width="146" height="54" filterUnits="userSpaceOnUse" color-interpolation-filters="sRGB">
<feFlood flood-opacity="0" result="BackgroundImageFix"/>
<feBlend mode="normal" in="SourceGraphic" in2="BackgroundImageFix" result="shape"/>
<feColorMatrix in="SourceAlpha" type="matrix" values="0 0 0 0 0 0 0 0 0 0 0 0 0 0 0 0 0 0 127 0" result="hardAlpha"/>
<feOffset dx="-8" dy="-4"/>
<feComposite in2="hardAlpha" operator="arithmetic" k2="-1" k3="1"/>
<feColorMatrix type="matrix" values="0 0 0 0 0.0666667 0 0 0 0 0.0196078 0 0 0 0 0.160784 0 0 0 0.16 0"/>
<feBlend mode="normal" in2="shape" result="effect1_innerShadow_5552_34988"/>
</filter>
<filter id="filter3_i_5552_34988" x="333" y="279" width="146" height="54" filterUnits="userSpaceOnUse" color-interpolation-filters="sRGB">
<feFlood flood-opacity="0" result="BackgroundImageFix"/>
<feBlend mode="normal" in="SourceGraphic" in2="BackgroundImageFix" result="shape"/>
<feColorMatrix in="SourceAlpha" type="matrix" values="0 0 0 0 0 0 0 0 0 0 0 0 0 0 0 0 0 0 127 0" result="hardAlpha"/>
<feOffset dx="-8" dy="-4"/>
<feComposite in2="hardAlpha" operator="arithmetic" k2="-1" k3="1"/>
<feColorMatrix type="matrix" values="0 0 0 0 0.0666667 0 0 0 0 0.0196078 0 0 0 0 0.160784 0 0 0 0.16 0"/>
<feBlend mode="normal" in2="shape" result="effect1_innerShadow_5552_34988"/>
</filter>
<filter id="filter4_i_5552_34988" x="631" y="103" width="74" height="54" filterUnits="userSpaceOnUse" color-interpolation-filters="sRGB">
<feFlood flood-opacity="0" result="BackgroundImageFix"/>
<feBlend mode="normal" in="SourceGraphic" in2="BackgroundImageFix" result="shape"/>
<feColorMatrix in="SourceAlpha" type="matrix" values="0 0 0 0 0 0 0 0 0 0 0 0 0 0 0 0 0 0 127 0" result="hardAlpha"/>
<feOffset dx="-8" dy="-4"/>
<feComposite in2="hardAlpha" operator="arithmetic" k2="-1" k3="1"/>
<feColorMatrix type="matrix" values="0 0 0 0 0.0666667 0 0 0 0 0.0196078 0 0 0 0 0.160784 0 0 0 0.16 0"/>
<feBlend mode="normal" in2="shape" result="effect1_innerShadow_5552_34988"/>
</filter>
<filter id="filter5_i_5552_34988" x="565" y="279" width="74" height="54" filterUnits="userSpaceOnUse" color-interpolation-filters="sRGB">
<feFlood flood-opacity="0" result="BackgroundImageFix"/>
<feBlend mode="normal" in="SourceGraphic" in2="BackgroundImageFix" result="shape"/>
<feColorMatrix in="SourceAlpha" type="matrix" values="0 0 0 0 0 0 0 0 0 0 0 0 0 0 0 0 0 0 127 0" result="hardAlpha"/>
<feOffset dx="-8" dy="-4"/>
<feComposite in2="hardAlpha" operator="arithmetic" k2="-1" k3="1"/>
<feColorMatrix type="matrix" values="0 0 0 0 0.0666667 0 0 0 0 0.0196078 0 0 0 0 0.160784 0 0 0 0.16 0"/>
<feBlend mode="normal" in2="shape" result="effect1_innerShadow_5552_34988"/>
</filter>
<filter id="filter6_i_5552_34988" x="703" y="103" width="66" height="54" filterUnits="userSpaceOnUse" color-interpolation-filters="sRGB">
<feFlood flood-opacity="0" result="BackgroundImageFix"/>
<feBlend mode="normal" in="SourceGraphic" in2="BackgroundImageFix" result="shape"/>
<feColorMatrix in="SourceAlpha" type="matrix" values="0 0 0 0 0 0 0 0 0 0 0 0 0 0 0 0 0 0 127 0" result="hardAlpha"/>
<feOffset dx="-8" dy="-4"/>
<feComposite in2="hardAlpha" operator="arithmetic" k2="-1" k3="1"/>
<feColorMatrix type="matrix" values="0 0 0 0 0.0666667 0 0 0 0 0.0196078 0 0 0 0 0.160784 0 0 0 0.16 0"/>
<feBlend mode="normal" in2="shape" result="effect1_innerShadow_5552_34988"/>
</filter>
<filter id="filter7_i_5552_34988" x="637" y="279" width="66" height="54" filterUnits="userSpaceOnUse" color-interpolation-filters="sRGB">
<feFlood flood-opacity="0" result="BackgroundImageFix"/>
<feBlend mode="normal" in="SourceGraphic" in2="BackgroundImageFix" result="shape"/>
<feColorMatrix in="SourceAlpha" type="matrix" values="0 0 0 0 0 0 0 0 0 0 0 0 0 0 0 0 0 0 127 0" result="hardAlpha"/>
<feOffset dx="-8" dy="-4"/>
<feComposite in2="hardAlpha" operator="arithmetic" k2="-1" k3="1"/>
<feColorMatrix type="matrix" values="0 0 0 0 0.0666667 0 0 0 0 0.0196078 0 0 0 0 0.160784 0 0 0 0.16 0"/>
<feBlend mode="normal" in2="shape" result="effect1_innerShadow_5552_34988"/>
</filter>
<filter id="filter8_i_5552_34988" x="767" y="103" width="32" height="54" filterUnits="userSpaceOnUse" color-interpolation-filters="sRGB">
<feFlood flood-opacity="0" result="BackgroundImageFix"/>
<feBlend mode="normal" in="SourceGraphic" in2="BackgroundImageFix" result="shape"/>
<feColorMatrix in="SourceAlpha" type="matrix" values="0 0 0 0 0 0 0 0 0 0 0 0 0 0 0 0 0 0 127 0" result="hardAlpha"/>
<feOffset dx="-8" dy="-4"/>
<feComposite in2="hardAlpha" operator="arithmetic" k2="-1" k3="1"/>
<feColorMatrix type="matrix" values="0 0 0 0 0.0666667 0 0 0 0 0.0196078 0 0 0 0 0.160784 0 0 0 0.16 0"/>
<feBlend mode="normal" in2="shape" result="effect1_innerShadow_5552_34988"/>
</filter>
<filter id="filter9_i_5552_34988" x="701" y="279" width="32" height="54" filterUnits="userSpaceOnUse" color-interpolation-filters="sRGB">
<feFlood flood-opacity="0" result="BackgroundImageFix"/>
<feBlend mode="normal" in="SourceGraphic" in2="BackgroundImageFix" result="shape"/>
<feColorMatrix in="SourceAlpha" type="matrix" values="0 0 0 0 0 0 0 0 0 0 0 0 0 0 0 0 0 0 127 0" result="hardAlpha"/>
<feOffset dx="-8" dy="-4"/>
<feComposite in2="hardAlpha" operator="arithmetic" k2="-1" k3="1"/>
<feColorMatrix type="matrix" values="0 0 0 0 0.0666667 0 0 0 0 0.0196078 0 0 0 0 0.160784 0 0 0 0.16 0"/>
<feBlend mode="normal" in2="shape" result="effect1_innerShadow_5552_34988"/>
</filter>
<filter id="filter10_i_5552_34988" x="607" y="103" width="26" height="54" filterUnits="userSpaceOnUse" color-interpolation-filters="sRGB">
<feFlood flood-opacity="0" result="BackgroundImageFix"/>
<feBlend mode="normal" in="SourceGraphic" in2="BackgroundImageFix" result="shape"/>
<feColorMatrix in="SourceAlpha" type="matrix" values="0 0 0 0 0 0 0 0 0 0 0 0 0 0 0 0 0 0 127 0" result="hardAlpha"/>
<feOffset dx="-8" dy="-4"/>
<feComposite in2="hardAlpha" operator="arithmetic" k2="-1" k3="1"/>
<feColorMatrix type="matrix" values="0 0 0 0 0.0666667 0 0 0 0 0.0196078 0 0 0 0 0.160784 0 0 0 0.16 0"/>
<feBlend mode="normal" in2="shape" result="effect1_innerShadow_5552_34988"/>
</filter>
<filter id="filter11_i_5552_34988" x="541" y="279" width="26" height="54" filterUnits="userSpaceOnUse" color-interpolation-filters="sRGB">
<feFlood flood-opacity="0" result="BackgroundImageFix"/>
<feBlend mode="normal" in="SourceGraphic" in2="BackgroundImageFix" result="shape"/>
<feColorMatrix in="SourceAlpha" type="matrix" values="0 0 0 0 0 0 0 0 0 0 0 0 0 0 0 0 0 0 127 0" result="hardAlpha"/>
<feOffset dx="-8" dy="-4"/>
<feComposite in2="hardAlpha" operator="arithmetic" k2="-1" k3="1"/>
<feColorMatrix type="matrix" values="0 0 0 0 0.0666667 0 0 0 0 0.0196078 0 0 0 0 0.160784 0 0 0 0.16 0"/>
<feBlend mode="normal" in2="shape" result="effect1_innerShadow_5552_34988"/>
</filter>
<filter id="filter12_i_5552_34988" x="543" y="103" width="66" height="54" filterUnits="userSpaceOnUse" color-interpolation-filters="sRGB">
<feFlood flood-opacity="0" result="BackgroundImageFix"/>
<feBlend mode="normal" in="SourceGraphic" in2="BackgroundImageFix" result="shape"/>
<feColorMatrix in="SourceAlpha" type="matrix" values="0 0 0 0 0 0 0 0 0 0 0 0 0 0 0 0 0 0 127 0" result="hardAlpha"/>
<feOffset dx="-8" dy="-4"/>
<feComposite in2="hardAlpha" operator="arithmetic" k2="-1" k3="1"/>
<feColorMatrix type="matrix" values="0 0 0 0 0.0666667 0 0 0 0 0.0196078 0 0 0 0 0.160784 0 0 0 0.16 0"/>
<feBlend mode="normal" in2="shape" result="effect1_innerShadow_5552_34988"/>
</filter>
<filter id="filter13_i_5552_34988" x="477" y="279" width="66" height="54" filterUnits="userSpaceOnUse" color-interpolation-filters="sRGB">
<feFlood flood-opacity="0" result="BackgroundImageFix"/>
<feBlend mode="normal" in="SourceGraphic" in2="BackgroundImageFix" result="shape"/>
<feColorMatrix in="SourceAlpha" type="matrix" values="0 0 0 0 0 0 0 0 0 0 0 0 0 0 0 0 0 0 127 0" result="hardAlpha"/>
<feOffset dx="-8" dy="-4"/>
<feComposite in2="hardAlpha" operator="arithmetic" k2="-1" k3="1"/>
<feColorMatrix type="matrix" values="0 0 0 0 0.0666667 0 0 0 0 0.0196078 0 0 0 0 0.160784 0 0 0 0.16 0"/>
<feBlend mode="normal" in2="shape" result="effect1_innerShadow_5552_34988"/>
</filter>
<filter id="filter14_i_5552_34988" x="303" y="103" width="32" height="54" filterUnits="userSpaceOnUse" color-interpolation-filters="sRGB">
<feFlood flood-opacity="0" result="BackgroundImageFix"/>
<feBlend mode="normal" in="SourceGraphic" in2="BackgroundImageFix" result="shape"/>
<feColorMatrix in="SourceAlpha" type="matrix" values="0 0 0 0 0 0 0 0 0 0 0 0 0 0 0 0 0 0 127 0" result="hardAlpha"/>
<feOffset dx="-8" dy="-4"/>
<feComposite in2="hardAlpha" operator="arithmetic" k2="-1" k3="1"/>
<feColorMatrix type="matrix" values="0 0 0 0 0.0666667 0 0 0 0 0.0196078 0 0 0 0 0.160784 0 0 0 0.16 0"/>
<feBlend mode="normal" in2="shape" result="effect1_innerShadow_5552_34988"/>
</filter>
<filter id="filter15_i_5552_34988" x="369" y="103" width="32" height="54" filterUnits="userSpaceOnUse" color-interpolation-filters="sRGB">
<feFlood flood-opacity="0" result="BackgroundImageFix"/>
<feBlend mode="normal" in="SourceGraphic" in2="BackgroundImageFix" result="shape"/>
<feColorMatrix in="SourceAlpha" type="matrix" values="0 0 0 0 0 0 0 0 0 0 0 0 0 0 0 0 0 0 127 0" result="hardAlpha"/>
<feOffset dx="-8" dy="-4"/>
<feComposite in2="hardAlpha" operator="arithmetic" k2="-1" k3="1"/>
<feColorMatrix type="matrix" values="0 0 0 0 0.0666667 0 0 0 0 0.0196078 0 0 0 0 0.160784 0 0 0 0.16 0"/>
<feBlend mode="normal" in2="shape" result="effect1_innerShadow_5552_34988"/>
</filter>
<filter id="filter16_i_5552_34988" x="333" y="103" width="38" height="54" filterUnits="userSpaceOnUse" color-interpolation-filters="sRGB">
<feFlood flood-opacity="0" result="BackgroundImageFix"/>
<feBlend mode="normal" in="SourceGraphic" in2="BackgroundImageFix" result="shape"/>
<feColorMatrix in="SourceAlpha" type="matrix" values="0 0 0 0 0 0 0 0 0 0 0 0 0 0 0 0 0 0 127 0" result="hardAlpha"/>
<feOffset dx="-8" dy="-4"/>
<feComposite in2="hardAlpha" operator="arithmetic" k2="-1" k3="1"/>
<feColorMatrix type="matrix" values="0 0 0 0 0.0666667 0 0 0 0 0.0196078 0 0 0 0 0.160784 0 0 0 0.16 0"/>
<feBlend mode="normal" in2="shape" result="effect1_innerShadow_5552_34988"/>
</filter>
<filter id="filter17_i_5552_34988" x="303" y="279" width="32" height="54" filterUnits="userSpaceOnUse" color-interpolation-filters="sRGB">
<feFlood flood-opacity="0" result="BackgroundImageFix"/>
<feBlend mode="normal" in="SourceGraphic" in2="BackgroundImageFix" result="shape"/>
<feColorMatrix in="SourceAlpha" type="matrix" values="0 0 0 0 0 0 0 0 0 0 0 0 0 0 0 0 0 0 127 0" result="hardAlpha"/>
<feOffset dx="-8" dy="-4"/>
<feComposite in2="hardAlpha" operator="arithmetic" k2="-1" k3="1"/>
<feColorMatrix type="matrix" values="0 0 0 0 0.0666667 0 0 0 0 0.0196078 0 0 0 0 0.160784 0 0 0 0.16 0"/>
<feBlend mode="normal" in2="shape" result="effect1_innerShadow_5552_34988"/>
</filter>
</defs>
</svg>
