<svg width="960" height="404" viewBox="0 0 960 404" fill="none" xmlns="http://www.w3.org/2000/svg">
    <rect width="960" height="404" fill="white"/>
    <path d="M546 112V24" stroke="#D3D7E0" stroke-width="2" stroke-linecap="square" stroke-dasharray="6 6"/>
    <path d="M364.805 37H366.268V32.695H369.936V31.225H366.268V28.383H370.776V26.92H364.805V37ZM372.038 37H373.501V33.381H376.175L377.932 37H379.605L377.701 33.094C378.842 32.597 379.416 31.491 379.416 30.147C379.416 28.516 378.576 27.235 376.889 26.976C376.623 26.934 376.308 26.92 376.112 26.92H372.038V37ZM373.501 31.995V28.299H376.056C376.238 28.299 376.483 28.313 376.693 28.369C377.589 28.579 377.925 29.405 377.925 30.147C377.925 30.889 377.589 31.715 376.693 31.932C376.483 31.981 376.238 31.995 376.056 31.995H373.501ZM383.964 37.189C385.847 37.189 387.331 35.796 387.331 33.871C387.331 32.233 386.323 30.924 384.692 30.707L387.184 28.313V26.92H381.122V28.313H385.392L382.312 31.036L382.998 32.191C383.285 32.037 383.628 31.939 383.95 31.939C385.07 31.939 385.833 32.751 385.833 33.871C385.833 34.984 385.07 35.789 383.964 35.803C383.138 35.81 382.403 35.341 382.137 34.466L380.723 34.858C381.15 36.293 382.466 37.189 383.964 37.189Z" fill="#D3D7E0"/>
    <path d="M596.682 37.21C599.006 37.21 600.567 35.943 601.162 33.955L599.678 33.556C599.279 34.963 598.278 35.817 596.682 35.817C594.54 35.817 593.448 34.27 593.462 31.96C593.469 29.65 594.54 28.103 596.682 28.103C598.278 28.103 599.279 28.957 599.678 30.364L601.162 29.965C600.567 27.977 599.006 26.71 596.682 26.71C593.658 26.71 591.915 28.845 591.915 31.96C591.915 35.075 593.658 37.21 596.682 37.21ZM602.702 37H605.859C606.041 37 606.643 37 607.112 36.937C609.478 36.636 610.738 34.529 610.738 31.96C610.738 29.391 609.478 27.284 607.112 26.983C606.643 26.92 606.041 26.92 605.859 26.92H602.702V37ZM604.2 35.607V28.313H605.859C606.167 28.313 606.671 28.32 607.007 28.383C608.519 28.663 609.184 30.189 609.184 31.96C609.184 33.689 608.547 35.243 607.007 35.537C606.671 35.6 606.181 35.607 605.859 35.607H604.2ZM612.368 37H613.831V33.381H616.505L618.262 37H619.935L618.031 33.094C619.172 32.597 619.746 31.491 619.746 30.147C619.746 28.516 618.906 27.235 617.219 26.976C616.953 26.934 616.638 26.92 616.442 26.92H612.368V37ZM613.831 31.995V28.299H616.386C616.568 28.299 616.813 28.313 617.023 28.369C617.919 28.579 618.255 29.405 618.255 30.147C618.255 30.889 617.919 31.715 617.023 31.932C616.813 31.981 616.568 31.995 616.386 31.995H613.831ZM624.294 37.189C626.177 37.189 627.661 35.796 627.661 33.871C627.661 32.233 626.653 30.924 625.022 30.707L627.514 28.313V26.92H621.452V28.313H625.722L622.642 31.036L623.328 32.191C623.615 32.037 623.958 31.939 624.28 31.939C625.4 31.939 626.163 32.751 626.163 33.871C626.163 34.984 625.4 35.789 624.294 35.803C623.468 35.81 622.733 35.341 622.467 34.466L621.053 34.858C621.48 36.293 622.796 37.189 624.294 37.189Z" fill="#D3D7E0"/>
    <path d="M674 112V24" stroke="#D3D7E0" stroke-width="2" stroke-linecap="square" stroke-dasharray="6 6"/>
    <path d="M726.593 37H728.056V32.695H731.724V31.225H728.056V28.383H732.564V26.92H726.593V37ZM733.826 37H735.289V33.381H737.963L739.72 37H741.393L739.489 33.094C740.63 32.597 741.204 31.491 741.204 30.147C741.204 28.516 740.364 27.235 738.677 26.976C738.411 26.934 738.096 26.92 737.9 26.92H733.826V37ZM735.289 31.995V28.299H737.844C738.026 28.299 738.271 28.313 738.481 28.369C739.377 28.579 739.713 29.405 739.713 30.147C739.713 30.889 739.377 31.715 738.481 31.932C738.271 31.981 738.026 31.995 737.844 31.995H735.289ZM747.201 37H748.685V35.243H749.686V33.857H748.685V31.127H747.201V33.857H744.324L747.6 26.92H745.927L742.651 33.857V35.243H747.201V37Z" fill="#D3D7E0"/>
    <path d="M802 112V24" stroke="#D3D7E0" stroke-width="2" stroke-linecap="square" stroke-dasharray="6 6"/>
    <g filter="url(#filter0_i_5985_38110)">
        <path d="M210.182 112H560.4C560.96 112 561.24 112 561.454 112.109C561.642 112.205 561.795 112.358 561.891 112.546C562 112.76 562 113.04 562 113.6V162.4C562 162.96 562 163.24 561.891 163.454C561.795 163.642 561.642 163.795 561.454 163.891C561.24 164 560.96 164 560.4 164H210.182L202 157.5L210.182 151L202 144L210.182 138L202 131.5L210.182 125L202 118.5L210.182 112Z" fill="#99E099"/>
    </g>
    <path d="M210.182 112H560.4C560.96 112 561.24 112 561.454 112.109C561.642 112.205 561.795 112.358 561.891 112.546C562 112.76 562 113.04 562 113.6V162.4C562 162.96 562 163.24 561.891 163.454C561.795 163.642 561.642 163.795 561.454 163.891C561.24 164 560.96 164 560.4 164H210.182L202 157.5L210.182 151L202 144L210.182 138L202 131.5L210.182 125L202 118.5L210.182 112Z" stroke="#110529" stroke-width="2" stroke-linecap="round"/>
    <path d="M374.258 146H376.738L381.558 131.6H379.708L375.478 144.11L371.288 131.6H369.438L374.258 146Z" fill="#110529"/>
    <g filter="url(#filter1_i_5985_38110)">
        <rect x="562" y="112" width="30" height="52" rx="1" fill="#CBEB67"/>
    </g>
    <rect x="562" y="112" width="30" height="52" rx="1" stroke="#110529" stroke-width="2" stroke-linecap="round"/>
    <g filter="url(#filter2_i_5985_38110)">
        <rect x="628" y="112" width="30" height="52" rx="1" fill="#FAAAFA"/>
    </g>
    <rect x="628" y="112" width="30" height="52" rx="1" stroke="#110529" stroke-width="2" stroke-linecap="round"/>
    <g filter="url(#filter3_i_5985_38110)">
        <rect x="592" y="112" width="36" height="52" rx="1" fill="#FFCB8F"/>
    </g>
    <rect x="592" y="112" width="36" height="52" rx="1" stroke="#110529" stroke-width="2" stroke-linecap="round"/>
    <path d="M571.447 146V131.6H573.247L580.757 142.85V131.6H582.557V146H580.757L573.247 134.74V146H571.447Z" fill="#110529"/>
    <path d="M637.447 146V131.6H639.247L646.757 142.85V131.6H648.557V146H646.757L639.247 134.74V146H637.447Z" fill="#110529"/>
    <path d="M604.593 146V131.6H609.033C609.18 131.6 609.437 131.603 609.803 131.61C610.17 131.617 610.52 131.643 610.853 131.69C611.967 131.837 612.897 132.243 613.643 132.91C614.397 133.57 614.963 134.41 615.343 135.43C615.723 136.45 615.913 137.573 615.913 138.8C615.913 140.027 615.723 141.15 615.343 142.17C614.963 143.19 614.397 144.033 613.643 144.7C612.897 145.36 611.967 145.763 610.853 145.91C610.52 145.95 610.167 145.977 609.793 145.99C609.427 145.997 609.173 146 609.033 146H604.593ZM606.423 144.3H609.033C609.287 144.3 609.57 144.293 609.883 144.28C610.197 144.26 610.47 144.23 610.703 144.19C611.49 144.043 612.127 143.713 612.613 143.2C613.1 142.687 613.457 142.047 613.683 141.28C613.91 140.513 614.023 139.687 614.023 138.8C614.023 137.893 613.907 137.057 613.673 136.29C613.447 135.523 613.09 134.887 612.603 134.38C612.117 133.873 611.483 133.55 610.703 133.41C610.47 133.363 610.193 133.333 609.873 133.32C609.553 133.307 609.273 133.3 609.033 133.3H606.423V144.3Z" fill="#110529"/>
    <g filter="url(#filter4_i_5985_38110)">
        <rect x="658" y="112" width="144" height="52" rx="1" fill="#C1ADFF"/>
        <path d="M729.244 146.29C730.694 146.29 731.954 145.7 732.684 144.43C733.214 143.51 733.154 142.72 733.154 141.48V131.6H731.354V141.48C731.354 142.37 731.354 142.99 731.094 143.51C730.704 144.29 729.884 144.6 729.204 144.6C728.134 144.6 727.224 143.83 727.014 142.85L725.244 143.27C725.754 145.11 727.224 146.29 729.244 146.29Z" fill="#110529"/>
        <rect x="658" y="112" width="144" height="52" rx="1" stroke="#110529" stroke-width="2" stroke-linecap="round"/>
    </g>
    <g filter="url(#filter5_i_5985_38110)">
        <path d="M210.182 252H560.4C560.96 252 561.24 252 561.454 252.109C561.642 252.205 561.795 252.358 561.891 252.546C562 252.76 562 253.04 562 253.6V302.4C562 302.96 562 303.24 561.891 303.454C561.795 303.642 561.642 303.795 561.454 303.891C561.24 304 560.96 304 560.4 304H210.182L202 297.5L210.182 291L202 284L210.182 278L202 271.5L210.182 265L202 258.5L210.182 252Z" fill="#99E099"/>
    </g>
    <path d="M210.182 252H560.4C560.96 252 561.24 252 561.454 252.109C561.642 252.205 561.795 252.358 561.891 252.546C562 252.76 562 253.04 562 253.6V302.4C562 302.96 562 303.24 561.891 303.454C561.795 303.642 561.642 303.795 561.454 303.891C561.24 304 560.96 304 560.4 304H210.182L202 297.5L210.182 291L202 284L210.182 278L202 271.5L210.182 265L202 258.5L210.182 252Z" stroke="#110529" stroke-width="2" stroke-linecap="round"/>
    <path d="M374.258 286H376.738L381.558 271.6H379.708L375.478 284.11L371.288 271.6H369.438L374.258 286Z" fill="#110529"/>
    <g filter="url(#filter6_i_5985_38110)">
        <rect x="562" y="252" width="30" height="52" rx="1" fill="#CBEB67"/>
    </g>
    <rect x="562" y="252" width="30" height="52" rx="1" stroke="#110529" stroke-width="2" stroke-linecap="round"/>
    <path d="M571.447 286V271.6H573.247L580.757 282.85V271.6H582.557V286H580.757L573.247 274.74V286H571.447Z" fill="#110529"/>
    <g filter="url(#filter7_i_5985_38110)">
        <rect x="592" y="252" width="144" height="52" rx="1" fill="#C1ADFF"/>
        <path d="M663.244 286.29C664.694 286.29 665.954 285.7 666.684 284.43C667.214 283.51 667.154 282.72 667.154 281.48V271.6H665.354V281.48C665.354 282.37 665.354 282.99 665.094 283.51C664.704 284.29 663.884 284.6 663.204 284.6C662.134 284.6 661.224 283.83 661.014 282.85L659.244 283.27C659.754 285.11 661.224 286.29 663.244 286.29Z" fill="#110529"/>
        <rect x="592" y="252" width="144" height="52" rx="1" stroke="#110529" stroke-width="2" stroke-linecap="round"/>
    </g>
    <path d="M65.3268 286H67.1068V273.29H72.0168V271.6H60.4168V273.29H65.3268V286ZM79.529 286.3C82.859 286.3 85.049 284.47 85.869 281.61L84.059 281.13C83.469 283.27 81.959 284.6 79.529 284.6C76.309 284.6 74.669 282.25 74.689 278.8C74.709 275.35 76.309 273 79.529 273C81.959 273 83.469 274.33 84.059 276.47L85.869 275.99C85.049 273.13 82.859 271.3 79.529 271.3C75.219 271.3 72.809 274.36 72.809 278.8C72.809 283.24 75.219 286.3 79.529 286.3ZM88.0621 286H89.8421V280.68H94.0521L96.6321 286H98.6721L95.8921 280.29C97.5221 279.61 98.3721 278.04 98.3721 276.14C98.3721 273.85 97.1421 272.04 94.8121 271.68C94.4421 271.62 94.0321 271.6 93.7521 271.6H88.0621V286ZM89.8421 278.99V273.29H93.6921C93.9421 273.29 94.2921 273.31 94.5921 273.38C95.9721 273.69 96.5521 274.94 96.5521 276.14C96.5521 277.34 95.9721 278.59 94.5921 278.9C94.2921 278.97 93.9421 278.99 93.6921 278.99H89.8421ZM109.149 286.3C110.789 286.3 112.099 285.54 112.799 284.24V286H114.389V275.2H112.799V276.93C112.109 275.65 110.849 274.9 109.199 274.9C106.099 274.9 104.279 277.35 104.279 280.6C104.279 283.83 106.089 286.3 109.149 286.3ZM106.169 280.6C106.169 278.19 107.279 276.53 109.389 276.53C111.499 276.53 112.499 278.2 112.499 280.59C112.499 282.96 111.509 284.67 109.369 284.67C107.199 284.67 106.169 282.88 106.169 280.6Z" fill="#110529"/>
    <path d="M65.6881 146H67.4681V133.29H72.3781V131.6H60.7781V133.29H65.6881V146ZM79.8903 146.3C83.2203 146.3 85.4103 144.47 86.2303 141.61L84.4203 141.13C83.8303 143.27 82.3203 144.6 79.8903 144.6C76.6703 144.6 75.0303 142.25 75.0503 138.8C75.0703 135.35 76.6703 133 79.8903 133C82.3203 133 83.8303 134.33 84.4203 136.47L86.2303 135.99C85.4103 133.13 83.2203 131.3 79.8903 131.3C75.5803 131.3 73.1703 134.36 73.1703 138.8C73.1703 143.24 75.5803 146.3 79.8903 146.3ZM88.4234 146H90.2034V140.68H94.4134L96.9934 146H99.0334L96.2534 140.29C97.8834 139.61 98.7334 138.04 98.7334 136.14C98.7334 133.85 97.5034 132.04 95.1734 131.68C94.8034 131.62 94.3934 131.6 94.1134 131.6H88.4234V146ZM90.2034 138.99V133.29H94.0534C94.3034 133.29 94.6534 133.31 94.9534 133.38C96.3334 133.69 96.9134 134.94 96.9134 136.14C96.9134 137.34 96.3334 138.59 94.9534 138.9C94.6534 138.97 94.3034 138.99 94.0534 138.99H90.2034ZM105.23 135.2V150.8H107.01V145.39C107.72 145.96 108.71 146.3 109.94 146.3C112.99 146.3 114.84 144.57 114.84 141.95C114.84 139.74 113.44 138.44 112.05 138.09C113.1 137.58 113.61 136.5 113.61 135.22C113.61 132.84 111.86 131.3 109.37 131.3C107.51 131.3 105.98 132.16 105.45 133.78C105.3 134.23 105.23 134.71 105.23 135.2ZM107.05 141.71V135.86C107.05 135.44 107.07 134.8 107.28 134.28C107.64 133.35 108.52 132.99 109.41 132.99C110.79 132.99 111.79 133.82 111.79 135.24C111.79 136.67 110.79 137.4 109.42 137.54V139.14C111.61 139.18 113.03 140.1 113.03 141.87C113.03 143.52 111.79 144.61 110.02 144.61C108.77 144.61 107.53 144.04 107.2 143.01C107.08 142.64 107.05 142.1 107.05 141.71Z" fill="#110529"/>
    <path d="M244 188L243.293 188.707L242.586 188L243.293 187.293L244 188ZM251.293 179.293L252 178.586L253.414 180L252.707 180.707L251.293 179.293ZM252.707 195.293L253.414 196L252 197.414L251.293 196.707L252.707 195.293ZM254 189L244 189L244 187L254 187L254 189ZM243.293 187.293L251.293 179.293L252.707 180.707L244.707 188.707L243.293 187.293ZM244.707 187.293L252.707 195.293L251.293 196.707L243.293 188.707L244.707 187.293Z" fill="#110529"/>
    <path d="M483.5 188H254" stroke="#110529" stroke-width="2"/>
    <rect width="57" height="20" transform="translate(483.5 178)" fill="white"/>
    <path d="M492.636 194V184.056L490.468 185.368V183.776L492.636 182.48H494.084V194H492.636ZM500.536 194.24C499.944 194.24 499.392 194.117 498.88 193.872C498.373 193.627 497.938 193.291 497.576 192.864C497.218 192.432 496.962 191.936 496.808 191.376L498.176 191.008C498.272 191.387 498.442 191.715 498.688 191.992C498.933 192.264 499.218 192.477 499.544 192.632C499.874 192.781 500.218 192.856 500.576 192.856C501.045 192.856 501.466 192.744 501.84 192.52C502.218 192.291 502.517 191.989 502.736 191.616C502.954 191.237 503.064 190.824 503.064 190.376C503.064 189.912 502.949 189.493 502.72 189.12C502.496 188.741 502.194 188.443 501.816 188.224C501.437 188.005 501.024 187.896 500.576 187.896C500.069 187.896 499.634 188.003 499.272 188.216C498.914 188.424 498.632 188.68 498.424 188.984L497.16 188.504L497.512 182.48H503.696V183.832H498.2L498.832 183.24L498.536 188.064L498.224 187.656C498.544 187.315 498.925 187.051 499.368 186.864C499.816 186.677 500.272 186.584 500.736 186.584C501.45 186.584 502.09 186.752 502.656 187.088C503.221 187.419 503.669 187.872 504 188.448C504.33 189.019 504.496 189.661 504.496 190.376C504.496 191.085 504.314 191.733 503.952 192.32C503.589 192.901 503.106 193.368 502.504 193.72C501.906 194.067 501.25 194.24 500.536 194.24ZM510.297 194.24C509.55 194.24 508.884 194.072 508.297 193.736C507.716 193.395 507.254 192.933 506.913 192.352C506.577 191.765 506.409 191.099 506.409 190.352V186.128C506.409 185.381 506.577 184.715 506.913 184.128C507.254 183.541 507.716 183.08 508.297 182.744C508.884 182.408 509.55 182.24 510.297 182.24C511.044 182.24 511.71 182.408 512.297 182.744C512.884 183.08 513.345 183.541 513.681 184.128C514.017 184.715 514.185 185.381 514.185 186.128V190.352C514.185 191.099 514.017 191.765 513.681 192.352C513.345 192.933 512.884 193.395 512.297 193.736C511.71 194.072 511.044 194.24 510.297 194.24ZM510.297 192.872C510.75 192.872 511.161 192.763 511.529 192.544C511.897 192.325 512.19 192.032 512.409 191.664C512.628 191.291 512.737 190.88 512.737 190.432V186.04C512.737 185.587 512.628 185.176 512.409 184.808C512.19 184.44 511.897 184.147 511.529 183.928C511.161 183.709 510.75 183.6 510.297 183.6C509.849 183.6 509.438 183.709 509.065 183.928C508.697 184.147 508.404 184.44 508.185 184.808C507.966 185.176 507.857 185.587 507.857 186.04V190.432C507.857 190.88 507.966 191.291 508.185 191.664C508.404 192.032 508.697 192.325 509.065 192.544C509.438 192.763 509.849 192.872 510.297 192.872ZM520.393 194.24C519.582 194.24 518.899 194.04 518.345 193.64C517.79 193.235 517.369 192.688 517.081 192C516.798 191.307 516.657 190.531 516.657 189.672C516.657 188.803 516.798 188.024 517.081 187.336C517.369 186.648 517.79 186.107 518.345 185.712C518.905 185.317 519.59 185.12 520.401 185.12C521.201 185.12 521.889 185.32 522.465 185.72C523.046 186.115 523.491 186.656 523.801 187.344C524.11 188.032 524.265 188.808 524.265 189.672C524.265 190.536 524.11 191.312 523.801 192C523.491 192.688 523.046 193.235 522.465 193.64C521.889 194.04 521.198 194.24 520.393 194.24ZM516.417 194V182.48H517.849V187.64H517.689V194H516.417ZM520.217 192.936C520.787 192.936 521.259 192.792 521.633 192.504C522.006 192.216 522.286 191.827 522.473 191.336C522.659 190.84 522.753 190.285 522.753 189.672C522.753 189.064 522.659 188.515 522.473 188.024C522.291 187.533 522.009 187.144 521.625 186.856C521.246 186.568 520.763 186.424 520.177 186.424C519.617 186.424 519.153 186.563 518.785 186.84C518.417 187.112 518.142 187.493 517.961 187.984C517.779 188.469 517.689 189.032 517.689 189.672C517.689 190.301 517.777 190.864 517.953 191.36C518.134 191.851 518.411 192.237 518.785 192.52C519.158 192.797 519.635 192.936 520.217 192.936ZM529.986 194.24C529.176 194.24 528.493 194.04 527.938 193.64C527.384 193.235 526.962 192.688 526.674 192C526.392 191.307 526.25 190.531 526.25 189.672C526.25 188.803 526.392 188.024 526.674 187.336C526.962 186.648 527.384 186.107 527.938 185.712C528.498 185.317 529.184 185.12 529.994 185.12C530.794 185.12 531.482 185.32 532.058 185.72C532.64 186.115 533.085 186.656 533.394 187.344C533.704 188.032 533.858 188.808 533.858 189.672C533.858 190.536 533.704 191.312 533.394 192C533.085 192.688 532.64 193.235 532.058 193.64C531.482 194.04 530.792 194.24 529.986 194.24ZM526.01 197.84V185.36H527.282V191.72H527.442V197.84H526.01ZM529.81 192.936C530.381 192.936 530.853 192.792 531.226 192.504C531.6 192.216 531.88 191.827 532.066 191.336C532.253 190.84 532.346 190.285 532.346 189.672C532.346 189.064 532.253 188.515 532.066 188.024C531.885 187.533 531.602 187.144 531.218 186.856C530.84 186.568 530.357 186.424 529.77 186.424C529.21 186.424 528.746 186.563 528.378 186.84C528.01 187.112 527.736 187.493 527.554 187.984C527.373 188.469 527.282 189.032 527.282 189.672C527.282 190.301 527.37 190.864 527.546 191.36C527.728 191.851 528.005 192.237 528.378 192.52C528.752 192.797 529.229 192.936 529.81 192.936Z" fill="#110529"/>
    <path d="M770 188H540.5" stroke="#110529" stroke-width="2"/>
    <path d="M778.62 194V182.48H783.172C783.284 182.48 783.417 182.485 783.572 182.496C783.727 182.501 783.876 182.517 784.02 182.544C784.644 182.64 785.167 182.853 785.588 183.184C786.015 183.515 786.335 183.933 786.548 184.44C786.761 184.941 786.868 185.499 786.868 186.112C786.868 187.003 786.636 187.776 786.172 188.432C785.708 189.083 785.028 189.491 784.132 189.656L783.588 189.744H780.044V194H778.62ZM785.476 194L783.204 189.312L784.612 188.88L787.108 194H785.476ZM780.044 188.392H783.124C783.225 188.392 783.34 188.387 783.468 188.376C783.601 188.365 783.727 188.347 783.844 188.32C784.212 188.235 784.511 188.08 784.74 187.856C784.975 187.627 785.145 187.36 785.252 187.056C785.359 186.747 785.412 186.432 785.412 186.112C785.412 185.792 785.359 185.48 785.252 185.176C785.145 184.867 784.975 184.597 784.74 184.368C784.511 184.139 784.212 183.984 783.844 183.904C783.727 183.872 783.601 183.853 783.468 183.848C783.34 183.837 783.225 183.832 783.124 183.832H780.044V188.392ZM790.878 194V184.056L788.71 185.368V183.776L790.878 182.48H792.326V194H790.878Z" fill="#110529"/>
    <rect x="770" y="176" width="32" height="24" rx="1" stroke="#110529" stroke-width="2"/>
    <path d="M209.12 220V208.48H213.672C213.784 208.48 213.917 208.485 214.072 208.496C214.227 208.501 214.376 208.517 214.52 208.544C215.144 208.64 215.667 208.853 216.088 209.184C216.515 209.515 216.835 209.933 217.048 210.44C217.261 210.941 217.368 211.499 217.368 212.112C217.368 213.003 217.136 213.776 216.672 214.432C216.208 215.083 215.528 215.491 214.632 215.656L214.088 215.744H210.544V220H209.12ZM215.976 220L213.704 215.312L215.112 214.88L217.608 220H215.976ZM210.544 214.392H213.624C213.725 214.392 213.84 214.387 213.968 214.376C214.101 214.365 214.227 214.347 214.344 214.32C214.712 214.235 215.011 214.08 215.24 213.856C215.475 213.627 215.645 213.36 215.752 213.056C215.859 212.747 215.912 212.432 215.912 212.112C215.912 211.792 215.859 211.48 215.752 211.176C215.645 210.867 215.475 210.597 215.24 210.368C215.011 210.139 214.712 209.984 214.344 209.904C214.227 209.872 214.101 209.853 213.968 209.848C213.84 209.837 213.725 209.832 213.624 209.832H210.544V214.392ZM219.05 219.992L219.058 218.712L224.17 214.112C224.597 213.728 224.882 213.365 225.026 213.024C225.175 212.677 225.25 212.323 225.25 211.96C225.25 211.517 225.149 211.117 224.946 210.76C224.743 210.403 224.466 210.12 224.114 209.912C223.767 209.704 223.373 209.6 222.93 209.6C222.471 209.6 222.063 209.709 221.706 209.928C221.349 210.141 221.066 210.427 220.858 210.784C220.655 211.141 220.557 211.531 220.562 211.952H219.106C219.106 211.227 219.274 210.587 219.61 210.032C219.946 209.472 220.402 209.035 220.978 208.72C221.559 208.4 222.218 208.24 222.954 208.24C223.669 208.24 224.309 208.405 224.874 208.736C225.439 209.061 225.885 209.507 226.21 210.072C226.541 210.632 226.706 211.267 226.706 211.976C226.706 212.477 226.642 212.912 226.514 213.28C226.391 213.648 226.199 213.989 225.938 214.304C225.677 214.613 225.349 214.944 224.954 215.296L220.706 219.112L220.522 218.632H226.706V219.992H219.05Z" fill="#110529"/>
    <rect x="202" y="202" width="32" height="24" rx="1" stroke="#110529" stroke-width="2"/>
    <path d="M462 214H234" stroke="#110529" stroke-width="2"/>
    <rect width="53" height="20" transform="translate(462 204)" fill="white"/>
    <path d="M469.136 220V210.056L466.968 211.368V209.776L469.136 208.48H470.584V220H469.136ZM477.036 220.24C476.444 220.24 475.892 220.117 475.38 219.872C474.873 219.627 474.438 219.291 474.076 218.864C473.718 218.432 473.462 217.936 473.308 217.376L474.676 217.008C474.772 217.387 474.942 217.715 475.188 217.992C475.433 218.264 475.718 218.477 476.044 218.632C476.374 218.781 476.718 218.856 477.076 218.856C477.545 218.856 477.966 218.744 478.34 218.52C478.718 218.291 479.017 217.989 479.236 217.616C479.454 217.237 479.564 216.824 479.564 216.376C479.564 215.912 479.449 215.493 479.22 215.12C478.996 214.741 478.694 214.443 478.316 214.224C477.937 214.005 477.524 213.896 477.076 213.896C476.569 213.896 476.134 214.003 475.772 214.216C475.414 214.424 475.132 214.68 474.924 214.984L473.66 214.504L474.012 208.48H480.196V209.832H474.7L475.332 209.24L475.036 214.064L474.724 213.656C475.044 213.315 475.425 213.051 475.868 212.864C476.316 212.677 476.772 212.584 477.236 212.584C477.95 212.584 478.59 212.752 479.156 213.088C479.721 213.419 480.169 213.872 480.5 214.448C480.83 215.019 480.996 215.661 480.996 216.376C480.996 217.085 480.814 217.733 480.452 218.32C480.089 218.901 479.606 219.368 479.004 219.72C478.406 220.067 477.75 220.24 477.036 220.24ZM486.797 220.24C486.05 220.24 485.384 220.072 484.797 219.736C484.216 219.395 483.754 218.933 483.413 218.352C483.077 217.765 482.909 217.099 482.909 216.352V212.128C482.909 211.381 483.077 210.715 483.413 210.128C483.754 209.541 484.216 209.08 484.797 208.744C485.384 208.408 486.05 208.24 486.797 208.24C487.544 208.24 488.21 208.408 488.797 208.744C489.384 209.08 489.845 209.541 490.181 210.128C490.517 210.715 490.685 211.381 490.685 212.128V216.352C490.685 217.099 490.517 217.765 490.181 218.352C489.845 218.933 489.384 219.395 488.797 219.736C488.21 220.072 487.544 220.24 486.797 220.24ZM486.797 218.872C487.25 218.872 487.661 218.763 488.029 218.544C488.397 218.325 488.69 218.032 488.909 217.664C489.128 217.291 489.237 216.88 489.237 216.432V212.04C489.237 211.587 489.128 211.176 488.909 210.808C488.69 210.44 488.397 210.147 488.029 209.928C487.661 209.709 487.25 209.6 486.797 209.6C486.349 209.6 485.938 209.709 485.565 209.928C485.197 210.147 484.904 210.44 484.685 210.808C484.466 211.176 484.357 211.587 484.357 212.04V216.432C484.357 216.88 484.466 217.291 484.685 217.664C484.904 218.032 485.197 218.325 485.565 218.544C485.938 218.763 486.349 218.872 486.797 218.872ZM496.893 220.24C496.082 220.24 495.399 220.04 494.845 219.64C494.29 219.235 493.869 218.688 493.581 218C493.298 217.307 493.157 216.531 493.157 215.672C493.157 214.803 493.298 214.024 493.581 213.336C493.869 212.648 494.29 212.107 494.845 211.712C495.405 211.317 496.09 211.12 496.901 211.12C497.701 211.12 498.389 211.32 498.965 211.72C499.546 212.115 499.991 212.656 500.301 213.344C500.61 214.032 500.765 214.808 500.765 215.672C500.765 216.536 500.61 217.312 500.301 218C499.991 218.688 499.546 219.235 498.965 219.64C498.389 220.04 497.698 220.24 496.893 220.24ZM492.917 220V208.48H494.349V213.64H494.189V220H492.917ZM496.717 218.936C497.287 218.936 497.759 218.792 498.133 218.504C498.506 218.216 498.786 217.827 498.973 217.336C499.159 216.84 499.253 216.285 499.253 215.672C499.253 215.064 499.159 214.515 498.973 214.024C498.791 213.533 498.509 213.144 498.125 212.856C497.746 212.568 497.263 212.424 496.677 212.424C496.117 212.424 495.653 212.563 495.285 212.84C494.917 213.112 494.642 213.493 494.461 213.984C494.279 214.469 494.189 215.032 494.189 215.672C494.189 216.301 494.277 216.864 494.453 217.36C494.634 217.851 494.911 218.237 495.285 218.52C495.658 218.797 496.135 218.936 496.717 218.936ZM506.486 220.24C505.676 220.24 504.993 220.04 504.438 219.64C503.884 219.235 503.462 218.688 503.174 218C502.892 217.307 502.75 216.531 502.75 215.672C502.75 214.803 502.892 214.024 503.174 213.336C503.462 212.648 503.884 212.107 504.438 211.712C504.998 211.317 505.684 211.12 506.494 211.12C507.294 211.12 507.982 211.32 508.558 211.72C509.14 212.115 509.585 212.656 509.894 213.344C510.204 214.032 510.358 214.808 510.358 215.672C510.358 216.536 510.204 217.312 509.894 218C509.585 218.688 509.14 219.235 508.558 219.64C507.982 220.04 507.292 220.24 506.486 220.24ZM502.51 223.84V211.36H503.782V217.72H503.942V223.84H502.51ZM506.31 218.936C506.881 218.936 507.353 218.792 507.726 218.504C508.1 218.216 508.38 217.827 508.566 217.336C508.753 216.84 508.846 216.285 508.846 215.672C508.846 215.064 508.753 214.515 508.566 214.024C508.385 213.533 508.102 213.144 507.718 212.856C507.34 212.568 506.857 212.424 506.27 212.424C505.71 212.424 505.246 212.563 504.878 212.84C504.51 213.112 504.236 213.493 504.054 213.984C503.873 214.469 503.782 215.032 503.782 215.672C503.782 216.301 503.87 216.864 504.046 217.36C504.228 217.851 504.505 218.237 504.878 218.52C505.252 218.797 505.729 218.936 506.31 218.936Z" fill="#110529"/>
    <path d="M743 214H515" stroke="#110529" stroke-width="2"/>
    <path d="M753 214L753.707 213.293L754.414 214L753.707 214.707L753 214ZM745.707 222.707L745 223.414L743.586 222L744.293 221.293L745.707 222.707ZM744.293 206.707L743.586 206L745 204.586L745.707 205.293L744.293 206.707ZM743 213L753 213L753 215L743 215L743 213ZM753.707 214.707L745.707 222.707L744.293 221.293L752.293 213.293L753.707 214.707ZM752.293 214.707L744.293 206.707L745.707 205.293L753.707 213.293L752.293 214.707Z" fill="#110529"/>
    <path d="M228 328L227.293 328.707L226.586 328L227.293 327.293L228 328ZM235.293 319.293L236 318.586L237.414 320L236.707 320.707L235.293 319.293ZM236.707 335.293L237.414 336L236 337.414L235.293 336.707L236.707 335.293ZM238 329L228 329L228 327L238 327L238 329ZM227.293 327.293L235.293 319.293L236.707 320.707L228.707 328.707L227.293 327.293ZM228.707 327.293L236.707 335.293L235.293 336.707L227.293 328.707L228.707 327.293Z" fill="#110529"/>
    <path d="M442.5 328H238" stroke="#110529" stroke-width="2"/>
    <rect width="57" height="20" transform="translate(442.5 318)" fill="white"/>
    <path d="M451.636 334V324.056L449.468 325.368V323.776L451.636 322.48H453.084V334H451.636ZM459.536 334.24C458.944 334.24 458.392 334.117 457.88 333.872C457.373 333.627 456.938 333.291 456.576 332.864C456.218 332.432 455.962 331.936 455.808 331.376L457.176 331.008C457.272 331.387 457.442 331.715 457.688 331.992C457.933 332.264 458.218 332.477 458.544 332.632C458.874 332.781 459.218 332.856 459.576 332.856C460.045 332.856 460.466 332.744 460.84 332.52C461.218 332.291 461.517 331.989 461.736 331.616C461.954 331.237 462.064 330.824 462.064 330.376C462.064 329.912 461.949 329.493 461.72 329.12C461.496 328.741 461.194 328.443 460.816 328.224C460.437 328.005 460.024 327.896 459.576 327.896C459.069 327.896 458.634 328.003 458.272 328.216C457.914 328.424 457.632 328.68 457.424 328.984L456.16 328.504L456.512 322.48H462.696V323.832H457.2L457.832 323.24L457.536 328.064L457.224 327.656C457.544 327.315 457.925 327.051 458.368 326.864C458.816 326.677 459.272 326.584 459.736 326.584C460.45 326.584 461.09 326.752 461.656 327.088C462.221 327.419 462.669 327.872 463 328.448C463.33 329.019 463.496 329.661 463.496 330.376C463.496 331.085 463.314 331.733 462.952 332.32C462.589 332.901 462.106 333.368 461.504 333.72C460.906 334.067 460.25 334.24 459.536 334.24ZM469.297 334.24C468.55 334.24 467.884 334.072 467.297 333.736C466.716 333.395 466.254 332.933 465.913 332.352C465.577 331.765 465.409 331.099 465.409 330.352V326.128C465.409 325.381 465.577 324.715 465.913 324.128C466.254 323.541 466.716 323.08 467.297 322.744C467.884 322.408 468.55 322.24 469.297 322.24C470.044 322.24 470.71 322.408 471.297 322.744C471.884 323.08 472.345 323.541 472.681 324.128C473.017 324.715 473.185 325.381 473.185 326.128V330.352C473.185 331.099 473.017 331.765 472.681 332.352C472.345 332.933 471.884 333.395 471.297 333.736C470.71 334.072 470.044 334.24 469.297 334.24ZM469.297 332.872C469.75 332.872 470.161 332.763 470.529 332.544C470.897 332.325 471.19 332.032 471.409 331.664C471.628 331.291 471.737 330.88 471.737 330.432V326.04C471.737 325.587 471.628 325.176 471.409 324.808C471.19 324.44 470.897 324.147 470.529 323.928C470.161 323.709 469.75 323.6 469.297 323.6C468.849 323.6 468.438 323.709 468.065 323.928C467.697 324.147 467.404 324.44 467.185 324.808C466.966 325.176 466.857 325.587 466.857 326.04V330.432C466.857 330.88 466.966 331.291 467.185 331.664C467.404 332.032 467.697 332.325 468.065 332.544C468.438 332.763 468.849 332.872 469.297 332.872ZM479.393 334.24C478.582 334.24 477.899 334.04 477.345 333.64C476.79 333.235 476.369 332.688 476.081 332C475.798 331.307 475.657 330.531 475.657 329.672C475.657 328.803 475.798 328.024 476.081 327.336C476.369 326.648 476.79 326.107 477.345 325.712C477.905 325.317 478.59 325.12 479.401 325.12C480.201 325.12 480.889 325.32 481.465 325.72C482.046 326.115 482.491 326.656 482.801 327.344C483.11 328.032 483.265 328.808 483.265 329.672C483.265 330.536 483.11 331.312 482.801 332C482.491 332.688 482.046 333.235 481.465 333.64C480.889 334.04 480.198 334.24 479.393 334.24ZM475.417 334V322.48H476.849V327.64H476.689V334H475.417ZM479.217 332.936C479.787 332.936 480.259 332.792 480.633 332.504C481.006 332.216 481.286 331.827 481.473 331.336C481.659 330.84 481.753 330.285 481.753 329.672C481.753 329.064 481.659 328.515 481.473 328.024C481.291 327.533 481.009 327.144 480.625 326.856C480.246 326.568 479.763 326.424 479.177 326.424C478.617 326.424 478.153 326.563 477.785 326.84C477.417 327.112 477.142 327.493 476.961 327.984C476.779 328.469 476.689 329.032 476.689 329.672C476.689 330.301 476.777 330.864 476.953 331.36C477.134 331.851 477.411 332.237 477.785 332.52C478.158 332.797 478.635 332.936 479.217 332.936ZM488.986 334.24C488.176 334.24 487.493 334.04 486.938 333.64C486.384 333.235 485.962 332.688 485.674 332C485.392 331.307 485.25 330.531 485.25 329.672C485.25 328.803 485.392 328.024 485.674 327.336C485.962 326.648 486.384 326.107 486.938 325.712C487.498 325.317 488.184 325.12 488.994 325.12C489.794 325.12 490.482 325.32 491.058 325.72C491.64 326.115 492.085 326.656 492.394 327.344C492.704 328.032 492.858 328.808 492.858 329.672C492.858 330.536 492.704 331.312 492.394 332C492.085 332.688 491.64 333.235 491.058 333.64C490.482 334.04 489.792 334.24 488.986 334.24ZM485.01 337.84V325.36H486.282V331.72H486.442V337.84H485.01ZM488.81 332.936C489.381 332.936 489.853 332.792 490.226 332.504C490.6 332.216 490.88 331.827 491.066 331.336C491.253 330.84 491.346 330.285 491.346 329.672C491.346 329.064 491.253 328.515 491.066 328.024C490.885 327.533 490.602 327.144 490.218 326.856C489.84 326.568 489.357 326.424 488.77 326.424C488.21 326.424 487.746 326.563 487.378 326.84C487.01 327.112 486.736 327.493 486.554 327.984C486.373 328.469 486.282 329.032 486.282 329.672C486.282 330.301 486.37 330.864 486.546 331.36C486.728 331.851 487.005 332.237 487.378 332.52C487.752 332.797 488.229 332.936 488.81 332.936Z" fill="#110529"/>
    <path d="M704 328H499.5" stroke="#110529" stroke-width="2"/>
    <path d="M712.62 334V322.48H717.172C717.284 322.48 717.417 322.485 717.572 322.496C717.727 322.501 717.876 322.517 718.02 322.544C718.644 322.64 719.167 322.853 719.588 323.184C720.015 323.515 720.335 323.933 720.548 324.44C720.761 324.941 720.868 325.499 720.868 326.112C720.868 327.003 720.636 327.776 720.172 328.432C719.708 329.083 719.028 329.491 718.132 329.656L717.588 329.744H714.044V334H712.62ZM719.476 334L717.204 329.312L718.612 328.88L721.108 334H719.476ZM714.044 328.392H717.124C717.225 328.392 717.34 328.387 717.468 328.376C717.601 328.365 717.727 328.347 717.844 328.32C718.212 328.235 718.511 328.08 718.74 327.856C718.975 327.627 719.145 327.36 719.252 327.056C719.359 326.747 719.412 326.432 719.412 326.112C719.412 325.792 719.359 325.48 719.252 325.176C719.145 324.867 718.975 324.597 718.74 324.368C718.511 324.139 718.212 323.984 717.844 323.904C717.727 323.872 717.601 323.853 717.468 323.848C717.34 323.837 717.225 323.832 717.124 323.832H714.044V328.392ZM724.878 334V324.056L722.71 325.368V323.776L724.878 322.48H726.326V334H724.878Z" fill="#110529"/>
    <rect x="704" y="316" width="32" height="24" rx="1" stroke="#110529" stroke-width="2"/>
    <path d="M209.12 360V348.48H213.672C213.784 348.48 213.917 348.485 214.072 348.496C214.227 348.501 214.376 348.517 214.52 348.544C215.144 348.64 215.667 348.853 216.088 349.184C216.515 349.515 216.835 349.933 217.048 350.44C217.261 350.941 217.368 351.499 217.368 352.112C217.368 353.003 217.136 353.776 216.672 354.432C216.208 355.083 215.528 355.491 214.632 355.656L214.088 355.744H210.544V360H209.12ZM215.976 360L213.704 355.312L215.112 354.88L217.608 360H215.976ZM210.544 354.392H213.624C213.725 354.392 213.84 354.387 213.968 354.376C214.101 354.365 214.227 354.347 214.344 354.32C214.712 354.235 215.011 354.08 215.24 353.856C215.475 353.627 215.645 353.36 215.752 353.056C215.859 352.747 215.912 352.432 215.912 352.112C215.912 351.792 215.859 351.48 215.752 351.176C215.645 350.867 215.475 350.597 215.24 350.368C215.011 350.139 214.712 349.984 214.344 349.904C214.227 349.872 214.101 349.853 213.968 349.848C213.84 349.837 213.725 349.832 213.624 349.832H210.544V354.392ZM219.05 359.992L219.058 358.712L224.17 354.112C224.597 353.728 224.882 353.365 225.026 353.024C225.175 352.677 225.25 352.323 225.25 351.96C225.25 351.517 225.149 351.117 224.946 350.76C224.743 350.403 224.466 350.12 224.114 349.912C223.767 349.704 223.373 349.6 222.93 349.6C222.471 349.6 222.063 349.709 221.706 349.928C221.349 350.141 221.066 350.427 220.858 350.784C220.655 351.141 220.557 351.531 220.562 351.952H219.106C219.106 351.227 219.274 350.587 219.61 350.032C219.946 349.472 220.402 349.035 220.978 348.72C221.559 348.4 222.218 348.24 222.954 348.24C223.669 348.24 224.309 348.405 224.874 348.736C225.439 349.061 225.885 349.507 226.21 350.072C226.541 350.632 226.706 351.267 226.706 351.976C226.706 352.477 226.642 352.912 226.514 353.28C226.391 353.648 226.199 353.989 225.938 354.304C225.677 354.613 225.349 354.944 224.954 355.296L220.706 359.112L220.522 358.632H226.706V359.992H219.05Z" fill="#110529"/>
    <rect x="202" y="342" width="32" height="24" rx="1" stroke="#110529" stroke-width="2"/>
    <path d="M441.5 354H234" stroke="#110529" stroke-width="2"/>
    <rect width="53" height="20" transform="translate(441.5 344)" fill="white"/>
    <path d="M448.636 360V350.056L446.468 351.368V349.776L448.636 348.48H450.084V360H448.636ZM456.536 360.24C455.944 360.24 455.392 360.117 454.88 359.872C454.373 359.627 453.938 359.291 453.576 358.864C453.218 358.432 452.962 357.936 452.808 357.376L454.176 357.008C454.272 357.387 454.442 357.715 454.688 357.992C454.933 358.264 455.218 358.477 455.544 358.632C455.874 358.781 456.218 358.856 456.576 358.856C457.045 358.856 457.466 358.744 457.84 358.52C458.218 358.291 458.517 357.989 458.736 357.616C458.954 357.237 459.064 356.824 459.064 356.376C459.064 355.912 458.949 355.493 458.72 355.12C458.496 354.741 458.194 354.443 457.816 354.224C457.437 354.005 457.024 353.896 456.576 353.896C456.069 353.896 455.634 354.003 455.272 354.216C454.914 354.424 454.632 354.68 454.424 354.984L453.16 354.504L453.512 348.48H459.696V349.832H454.2L454.832 349.24L454.536 354.064L454.224 353.656C454.544 353.315 454.925 353.051 455.368 352.864C455.816 352.677 456.272 352.584 456.736 352.584C457.45 352.584 458.09 352.752 458.656 353.088C459.221 353.419 459.669 353.872 460 354.448C460.33 355.019 460.496 355.661 460.496 356.376C460.496 357.085 460.314 357.733 459.952 358.32C459.589 358.901 459.106 359.368 458.504 359.72C457.906 360.067 457.25 360.24 456.536 360.24ZM466.297 360.24C465.55 360.24 464.884 360.072 464.297 359.736C463.716 359.395 463.254 358.933 462.913 358.352C462.577 357.765 462.409 357.099 462.409 356.352V352.128C462.409 351.381 462.577 350.715 462.913 350.128C463.254 349.541 463.716 349.08 464.297 348.744C464.884 348.408 465.55 348.24 466.297 348.24C467.044 348.24 467.71 348.408 468.297 348.744C468.884 349.08 469.345 349.541 469.681 350.128C470.017 350.715 470.185 351.381 470.185 352.128V356.352C470.185 357.099 470.017 357.765 469.681 358.352C469.345 358.933 468.884 359.395 468.297 359.736C467.71 360.072 467.044 360.24 466.297 360.24ZM466.297 358.872C466.75 358.872 467.161 358.763 467.529 358.544C467.897 358.325 468.19 358.032 468.409 357.664C468.628 357.291 468.737 356.88 468.737 356.432V352.04C468.737 351.587 468.628 351.176 468.409 350.808C468.19 350.44 467.897 350.147 467.529 349.928C467.161 349.709 466.75 349.6 466.297 349.6C465.849 349.6 465.438 349.709 465.065 349.928C464.697 350.147 464.404 350.44 464.185 350.808C463.966 351.176 463.857 351.587 463.857 352.04V356.432C463.857 356.88 463.966 357.291 464.185 357.664C464.404 358.032 464.697 358.325 465.065 358.544C465.438 358.763 465.849 358.872 466.297 358.872ZM476.393 360.24C475.582 360.24 474.899 360.04 474.345 359.64C473.79 359.235 473.369 358.688 473.081 358C472.798 357.307 472.657 356.531 472.657 355.672C472.657 354.803 472.798 354.024 473.081 353.336C473.369 352.648 473.79 352.107 474.345 351.712C474.905 351.317 475.59 351.12 476.401 351.12C477.201 351.12 477.889 351.32 478.465 351.72C479.046 352.115 479.491 352.656 479.801 353.344C480.11 354.032 480.265 354.808 480.265 355.672C480.265 356.536 480.11 357.312 479.801 358C479.491 358.688 479.046 359.235 478.465 359.64C477.889 360.04 477.198 360.24 476.393 360.24ZM472.417 360V348.48H473.849V353.64H473.689V360H472.417ZM476.217 358.936C476.787 358.936 477.259 358.792 477.633 358.504C478.006 358.216 478.286 357.827 478.473 357.336C478.659 356.84 478.753 356.285 478.753 355.672C478.753 355.064 478.659 354.515 478.473 354.024C478.291 353.533 478.009 353.144 477.625 352.856C477.246 352.568 476.763 352.424 476.177 352.424C475.617 352.424 475.153 352.563 474.785 352.84C474.417 353.112 474.142 353.493 473.961 353.984C473.779 354.469 473.689 355.032 473.689 355.672C473.689 356.301 473.777 356.864 473.953 357.36C474.134 357.851 474.411 358.237 474.785 358.52C475.158 358.797 475.635 358.936 476.217 358.936ZM485.986 360.24C485.176 360.24 484.493 360.04 483.938 359.64C483.384 359.235 482.962 358.688 482.674 358C482.392 357.307 482.25 356.531 482.25 355.672C482.25 354.803 482.392 354.024 482.674 353.336C482.962 352.648 483.384 352.107 483.938 351.712C484.498 351.317 485.184 351.12 485.994 351.12C486.794 351.12 487.482 351.32 488.058 351.72C488.64 352.115 489.085 352.656 489.394 353.344C489.704 354.032 489.858 354.808 489.858 355.672C489.858 356.536 489.704 357.312 489.394 358C489.085 358.688 488.64 359.235 488.058 359.64C487.482 360.04 486.792 360.24 485.986 360.24ZM482.01 363.84V351.36H483.282V357.72H483.442V363.84H482.01ZM485.81 358.936C486.381 358.936 486.853 358.792 487.226 358.504C487.6 358.216 487.88 357.827 488.066 357.336C488.253 356.84 488.346 356.285 488.346 355.672C488.346 355.064 488.253 354.515 488.066 354.024C487.885 353.533 487.602 353.144 487.218 352.856C486.84 352.568 486.357 352.424 485.77 352.424C485.21 352.424 484.746 352.563 484.378 352.84C484.01 353.112 483.736 353.493 483.554 353.984C483.373 354.469 483.282 355.032 483.282 355.672C483.282 356.301 483.37 356.864 483.546 357.36C483.728 357.851 484.005 358.237 484.378 358.52C484.752 358.797 485.229 358.936 485.81 358.936Z" fill="#110529"/>
    <path d="M702 354H494.5" stroke="#110529" stroke-width="2"/>
    <path d="M712 354L712.707 353.293L713.414 354L712.707 354.707L712 354ZM704.707 362.707L704 363.414L702.586 362L703.293 361.293L704.707 362.707ZM703.293 346.707L702.586 346L704 344.586L704.707 345.293L703.293 346.707ZM702 353L712 353L712 355L702 355L702 353ZM712.707 354.707L704.707 362.707L703.293 361.293L711.293 353.293L712.707 354.707ZM711.293 354.707L703.293 346.707L704.707 345.293L712.707 353.293L711.293 354.707Z" fill="#110529"/>
    <defs>
        <filter id="filter0_i_5985_38110" x="200.391" y="111" width="362.609" height="54" filterUnits="userSpaceOnUse" color-interpolation-filters="sRGB">
            <feFlood flood-opacity="0" result="BackgroundImageFix"/>
            <feBlend mode="normal" in="SourceGraphic" in2="BackgroundImageFix" result="shape"/>
            <feColorMatrix in="SourceAlpha" type="matrix" values="0 0 0 0 0 0 0 0 0 0 0 0 0 0 0 0 0 0 127 0" result="hardAlpha"/>
            <feOffset dx="-8" dy="-4"/>
            <feComposite in2="hardAlpha" operator="arithmetic" k2="-1" k3="1"/>
            <feColorMatrix type="matrix" values="0 0 0 0 0.0666667 0 0 0 0 0.0196078 0 0 0 0 0.160784 0 0 0 0.16 0"/>
            <feBlend mode="normal" in2="shape" result="effect1_innerShadow_5985_38110"/>
        </filter>
        <filter id="filter1_i_5985_38110" x="561" y="111" width="32" height="54" filterUnits="userSpaceOnUse" color-interpolation-filters="sRGB">
            <feFlood flood-opacity="0" result="BackgroundImageFix"/>
            <feBlend mode="normal" in="SourceGraphic" in2="BackgroundImageFix" result="shape"/>
            <feColorMatrix in="SourceAlpha" type="matrix" values="0 0 0 0 0 0 0 0 0 0 0 0 0 0 0 0 0 0 127 0" result="hardAlpha"/>
            <feOffset dx="-8" dy="-4"/>
            <feComposite in2="hardAlpha" operator="arithmetic" k2="-1" k3="1"/>
            <feColorMatrix type="matrix" values="0 0 0 0 0.0666667 0 0 0 0 0.0196078 0 0 0 0 0.160784 0 0 0 0.16 0"/>
            <feBlend mode="normal" in2="shape" result="effect1_innerShadow_5985_38110"/>
        </filter>
        <filter id="filter2_i_5985_38110" x="627" y="111" width="32" height="54" filterUnits="userSpaceOnUse" color-interpolation-filters="sRGB">
            <feFlood flood-opacity="0" result="BackgroundImageFix"/>
            <feBlend mode="normal" in="SourceGraphic" in2="BackgroundImageFix" result="shape"/>
            <feColorMatrix in="SourceAlpha" type="matrix" values="0 0 0 0 0 0 0 0 0 0 0 0 0 0 0 0 0 0 127 0" result="hardAlpha"/>
            <feOffset dx="-8" dy="-4"/>
            <feComposite in2="hardAlpha" operator="arithmetic" k2="-1" k3="1"/>
            <feColorMatrix type="matrix" values="0 0 0 0 0.0666667 0 0 0 0 0.0196078 0 0 0 0 0.160784 0 0 0 0.16 0"/>
            <feBlend mode="normal" in2="shape" result="effect1_innerShadow_5985_38110"/>
        </filter>
        <filter id="filter3_i_5985_38110" x="591" y="111" width="38" height="54" filterUnits="userSpaceOnUse" color-interpolation-filters="sRGB">
            <feFlood flood-opacity="0" result="BackgroundImageFix"/>
            <feBlend mode="normal" in="SourceGraphic" in2="BackgroundImageFix" result="shape"/>
            <feColorMatrix in="SourceAlpha" type="matrix" values="0 0 0 0 0 0 0 0 0 0 0 0 0 0 0 0 0 0 127 0" result="hardAlpha"/>
            <feOffset dx="-8" dy="-4"/>
            <feComposite in2="hardAlpha" operator="arithmetic" k2="-1" k3="1"/>
            <feColorMatrix type="matrix" values="0 0 0 0 0.0666667 0 0 0 0 0.0196078 0 0 0 0 0.160784 0 0 0 0.16 0"/>
            <feBlend mode="normal" in2="shape" result="effect1_innerShadow_5985_38110"/>
        </filter>
        <filter id="filter4_i_5985_38110" x="657" y="111" width="146" height="54" filterUnits="userSpaceOnUse" color-interpolation-filters="sRGB">
            <feFlood flood-opacity="0" result="BackgroundImageFix"/>
            <feBlend mode="normal" in="SourceGraphic" in2="BackgroundImageFix" result="shape"/>
            <feColorMatrix in="SourceAlpha" type="matrix" values="0 0 0 0 0 0 0 0 0 0 0 0 0 0 0 0 0 0 127 0" result="hardAlpha"/>
            <feOffset dx="-8" dy="-4"/>
            <feComposite in2="hardAlpha" operator="arithmetic" k2="-1" k3="1"/>
            <feColorMatrix type="matrix" values="0 0 0 0 0.0666667 0 0 0 0 0.0196078 0 0 0 0 0.160784 0 0 0 0.16 0"/>
            <feBlend mode="normal" in2="shape" result="effect1_innerShadow_5985_38110"/>
        </filter>
        <filter id="filter5_i_5985_38110" x="200.391" y="251" width="362.609" height="54" filterUnits="userSpaceOnUse" color-interpolation-filters="sRGB">
            <feFlood flood-opacity="0" result="BackgroundImageFix"/>
            <feBlend mode="normal" in="SourceGraphic" in2="BackgroundImageFix" result="shape"/>
            <feColorMatrix in="SourceAlpha" type="matrix" values="0 0 0 0 0 0 0 0 0 0 0 0 0 0 0 0 0 0 127 0" result="hardAlpha"/>
            <feOffset dx="-8" dy="-4"/>
            <feComposite in2="hardAlpha" operator="arithmetic" k2="-1" k3="1"/>
            <feColorMatrix type="matrix" values="0 0 0 0 0.0666667 0 0 0 0 0.0196078 0 0 0 0 0.160784 0 0 0 0.16 0"/>
            <feBlend mode="normal" in2="shape" result="effect1_innerShadow_5985_38110"/>
        </filter>
        <filter id="filter6_i_5985_38110" x="561" y="251" width="32" height="54" filterUnits="userSpaceOnUse" color-interpolation-filters="sRGB">
            <feFlood flood-opacity="0" result="BackgroundImageFix"/>
            <feBlend mode="normal" in="SourceGraphic" in2="BackgroundImageFix" result="shape"/>
            <feColorMatrix in="SourceAlpha" type="matrix" values="0 0 0 0 0 0 0 0 0 0 0 0 0 0 0 0 0 0 127 0" result="hardAlpha"/>
            <feOffset dx="-8" dy="-4"/>
            <feComposite in2="hardAlpha" operator="arithmetic" k2="-1" k3="1"/>
            <feColorMatrix type="matrix" values="0 0 0 0 0.0666667 0 0 0 0 0.0196078 0 0 0 0 0.160784 0 0 0 0.16 0"/>
            <feBlend mode="normal" in2="shape" result="effect1_innerShadow_5985_38110"/>
        </filter>
        <filter id="filter7_i_5985_38110" x="591" y="251" width="146" height="54" filterUnits="userSpaceOnUse" color-interpolation-filters="sRGB">
            <feFlood flood-opacity="0" result="BackgroundImageFix"/>
            <feBlend mode="normal" in="SourceGraphic" in2="BackgroundImageFix" result="shape"/>
            <feColorMatrix in="SourceAlpha" type="matrix" values="0 0 0 0 0 0 0 0 0 0 0 0 0 0 0 0 0 0 127 0" result="hardAlpha"/>
            <feOffset dx="-8" dy="-4"/>
            <feComposite in2="hardAlpha" operator="arithmetic" k2="-1" k3="1"/>
            <feColorMatrix type="matrix" values="0 0 0 0 0.0666667 0 0 0 0 0.0196078 0 0 0 0 0.160784 0 0 0 0.16 0"/>
            <feBlend mode="normal" in2="shape" result="effect1_innerShadow_5985_38110"/>
        </filter>
    </defs>
</svg>
