<svg width="960" height="404" viewBox="0 0 960 404" fill="none" xmlns="http://www.w3.org/2000/svg">
    <rect width="960" height="404" fill="white"/>
    <path d="M74.8579 37H76.3209V32.695H79.9889V31.225H76.3209V28.383H80.8289V26.92H74.8579V37ZM82.0904 37H83.5534V33.381H86.2274L87.9844 37H89.6574L87.7534 33.094C88.8944 32.597 89.4684 31.491 89.4684 30.147C89.4684 28.516 88.6284 27.235 86.9414 26.976C86.6754 26.934 86.3604 26.92 86.1644 26.92H82.0904V37ZM83.5534 31.995V28.299H86.1084C86.2904 28.299 86.5354 28.313 86.7454 28.369C87.6414 28.579 87.9774 29.405 87.9774 30.147C87.9774 30.889 87.6414 31.715 86.7454 31.932C86.5354 31.981 86.2904 31.995 86.1084 31.995H83.5534ZM92.9528 37H94.4438V26.92H92.9528L91.0558 28.054V29.685L92.9528 28.53V37Z" fill="#D3D7E0"/>
    <path d="M112 112V24" stroke="#D3D7E0" stroke-width="2" stroke-linecap="square" stroke-dasharray="6 6"/>
    <path d="M130.735 37.21C133.059 37.21 134.62 35.943 135.215 33.955L133.731 33.556C133.332 34.963 132.331 35.817 130.735 35.817C128.593 35.817 127.501 34.27 127.515 31.96C127.522 29.65 128.593 28.103 130.735 28.103C132.331 28.103 133.332 28.957 133.731 30.364L135.215 29.965C134.62 27.977 133.059 26.71 130.735 26.71C127.711 26.71 125.968 28.845 125.968 31.96C125.968 35.075 127.711 37.21 130.735 37.21ZM136.754 37H139.911C140.093 37 140.695 37 141.164 36.937C143.53 36.636 144.79 34.529 144.79 31.96C144.79 29.391 143.53 27.284 141.164 26.983C140.695 26.92 140.093 26.92 139.911 26.92H136.754V37ZM138.252 35.607V28.313H139.911C140.219 28.313 140.723 28.32 141.059 28.383C142.571 28.663 143.236 30.189 143.236 31.96C143.236 33.689 142.599 35.243 141.059 35.537C140.723 35.6 140.233 35.607 139.911 35.607H138.252ZM146.42 37H147.883V33.381H150.557L152.314 37H153.987L152.083 33.094C153.224 32.597 153.798 31.491 153.798 30.147C153.798 28.516 152.958 27.235 151.271 26.976C151.005 26.934 150.69 26.92 150.494 26.92H146.42V37ZM147.883 31.995V28.299H150.438C150.62 28.299 150.865 28.313 151.075 28.369C151.971 28.579 152.307 29.405 152.307 30.147C152.307 30.889 151.971 31.715 151.075 31.932C150.865 31.981 150.62 31.995 150.438 31.995H147.883ZM157.283 37H158.774V26.92H157.283L155.386 28.054V29.685L157.283 28.53V37Z" fill="#D3D7E0"/>
    <path d="M174 112V24" stroke="#D3D7E0" stroke-width="2" stroke-linecap="square" stroke-dasharray="6 6"/>
    <path d="M193.703 37H195.166V32.695H198.834V31.225H195.166V28.383H199.674V26.92H193.703V37ZM200.935 37H202.398V33.381H205.072L206.829 37H208.502L206.598 33.094C207.739 32.597 208.313 31.491 208.313 30.147C208.313 28.516 207.473 27.235 205.786 26.976C205.52 26.934 205.205 26.92 205.009 26.92H200.935V37ZM202.398 31.995V28.299H204.953C205.135 28.299 205.38 28.313 205.59 28.369C206.486 28.579 206.822 29.405 206.822 30.147C206.822 30.889 206.486 31.715 205.59 31.932C205.38 31.981 205.135 31.995 204.953 31.995H202.398ZM209.761 36.993H216.579V35.6H212.022L214.941 32.996C216.033 32.037 216.579 31.407 216.579 30.028C216.579 28.117 215.144 26.71 213.24 26.71C211.231 26.71 209.796 28.047 209.796 30H211.294C211.28 28.985 212.092 28.103 213.212 28.103C214.297 28.103 215.074 28.929 215.074 30.007C215.074 30.581 214.864 31.127 214.157 31.757L209.768 35.691L209.761 36.993Z" fill="#D3D7E0"/>
    <path d="M236 112V24" stroke="#D3D7E0" stroke-width="2" stroke-linecap="square" stroke-dasharray="6 6"/>
    <path d="M253.58 37.21C255.904 37.21 257.465 35.943 258.06 33.955L256.576 33.556C256.177 34.963 255.176 35.817 253.58 35.817C251.438 35.817 250.346 34.27 250.36 31.96C250.367 29.65 251.438 28.103 253.58 28.103C255.176 28.103 256.177 28.957 256.576 30.364L258.06 29.965C257.465 27.977 255.904 26.71 253.58 26.71C250.556 26.71 248.813 28.845 248.813 31.96C248.813 35.075 250.556 37.21 253.58 37.21ZM259.599 37H262.756C262.938 37 263.54 37 264.009 36.937C266.375 36.636 267.635 34.529 267.635 31.96C267.635 29.391 266.375 27.284 264.009 26.983C263.54 26.92 262.938 26.92 262.756 26.92H259.599V37ZM261.097 35.607V28.313H262.756C263.064 28.313 263.568 28.32 263.904 28.383C265.416 28.663 266.081 30.189 266.081 31.96C266.081 33.689 265.444 35.243 263.904 35.537C263.568 35.6 263.078 35.607 262.756 35.607H261.097ZM269.265 37H270.728V33.381H273.402L275.159 37H276.832L274.928 33.094C276.069 32.597 276.643 31.491 276.643 30.147C276.643 28.516 275.803 27.235 274.116 26.976C273.85 26.934 273.535 26.92 273.339 26.92H269.265V37ZM270.728 31.995V28.299H273.283C273.465 28.299 273.71 28.313 273.92 28.369C274.816 28.579 275.152 29.405 275.152 30.147C275.152 30.889 274.816 31.715 273.92 31.932C273.71 31.981 273.465 31.995 273.283 31.995H270.728ZM278.091 36.993H284.909V35.6H280.352L283.271 32.996C284.363 32.037 284.909 31.407 284.909 30.028C284.909 28.117 283.474 26.71 281.57 26.71C279.561 26.71 278.126 28.047 278.126 30H279.624C279.61 28.985 280.422 28.103 281.542 28.103C282.627 28.103 283.404 28.929 283.404 30.007C283.404 30.581 283.194 31.127 282.487 31.757L278.098 35.691L278.091 36.993Z" fill="#D3D7E0"/>
    <path d="M298 112V24" stroke="#D3D7E0" stroke-width="2" stroke-linecap="square" stroke-dasharray="6 6"/>
    <path d="M317.805 37H319.268V32.695H322.936V31.225H319.268V28.383H323.776V26.92H317.805V37ZM325.038 37H326.501V33.381H329.175L330.932 37H332.605L330.701 33.094C331.842 32.597 332.416 31.491 332.416 30.147C332.416 28.516 331.576 27.235 329.889 26.976C329.623 26.934 329.308 26.92 329.112 26.92H325.038V37ZM326.501 31.995V28.299H329.056C329.238 28.299 329.483 28.313 329.693 28.369C330.589 28.579 330.925 29.405 330.925 30.147C330.925 30.889 330.589 31.715 329.693 31.932C329.483 31.981 329.238 31.995 329.056 31.995H326.501ZM336.964 37.189C338.847 37.189 340.331 35.796 340.331 33.871C340.331 32.233 339.323 30.924 337.692 30.707L340.184 28.313V26.92H334.122V28.313H338.392L335.312 31.036L335.998 32.191C336.285 32.037 336.628 31.939 336.95 31.939C338.07 31.939 338.833 32.751 338.833 33.871C338.833 34.984 338.07 35.789 336.964 35.803C336.138 35.81 335.403 35.341 335.137 34.466L333.723 34.858C334.15 36.293 335.466 37.189 336.964 37.189Z" fill="#D3D7E0"/>
    <path d="M360 112V24" stroke="#D3D7E0" stroke-width="2" stroke-linecap="square" stroke-dasharray="6 6"/>
    <path d="M748 46L780 100" stroke="#D3D7E0" stroke-width="2" stroke-linecap="square" stroke-dasharray="6 6"/>
    <path d="M904 46L844 100" stroke="#D3D7E0" stroke-width="2" stroke-linecap="square" stroke-dasharray="6 6"/>
    <path d="M704 46V110" stroke="#D3D7E0" stroke-width="2" stroke-linecap="square" stroke-dasharray="6 6"/>
    <path d="M689.289 37V28.299H685.936V26.92H694.105V28.299H690.752V37H689.289ZM698.572 37V28.299H695.219V26.92H703.388V28.299H700.035V37H698.572ZM708.715 37.21C707.707 37.21 706.849 36.9907 706.139 36.552C705.43 36.1087 704.886 35.4927 704.508 34.704C704.135 33.9153 703.948 33.0007 703.948 31.96C703.948 30.9193 704.135 30.0047 704.508 29.216C704.886 28.4273 705.43 27.8137 706.139 27.375C706.849 26.9317 707.707 26.71 708.715 26.71C709.877 26.71 710.839 27.004 711.599 27.592C712.365 28.18 712.897 28.971 713.195 29.965L711.711 30.364C711.515 29.6593 711.165 29.1063 710.661 28.705C710.162 28.3037 709.513 28.103 708.715 28.103C708.001 28.103 707.406 28.264 706.93 28.586C706.454 28.908 706.095 29.3583 705.852 29.937C705.614 30.5157 705.495 31.19 705.495 31.96C705.491 32.73 705.607 33.4043 705.845 33.983C706.088 34.5617 706.447 35.012 706.923 35.334C707.404 35.656 708.001 35.817 708.715 35.817C709.513 35.817 710.162 35.6163 710.661 35.215C711.165 34.809 711.515 34.256 711.711 33.556L713.195 33.955C712.897 34.949 712.365 35.74 711.599 36.328C710.839 36.916 709.877 37.21 708.715 37.21ZM717.248 37V28.299H713.895V26.92H722.064V28.299H718.711V37H717.248Z" fill="#110529"/>
    <path d="M406.682 37.21C409.006 37.21 410.567 35.943 411.162 33.955L409.678 33.556C409.279 34.963 408.278 35.817 406.682 35.817C404.54 35.817 403.448 34.27 403.462 31.96C403.469 29.65 404.54 28.103 406.682 28.103C408.278 28.103 409.279 28.957 409.678 30.364L411.162 29.965C410.567 27.977 409.006 26.71 406.682 26.71C403.658 26.71 401.915 28.845 401.915 31.96C401.915 35.075 403.658 37.21 406.682 37.21ZM412.702 37H415.859C416.041 37 416.643 37 417.112 36.937C419.478 36.636 420.738 34.529 420.738 31.96C420.738 29.391 419.478 27.284 417.112 26.983C416.643 26.92 416.041 26.92 415.859 26.92H412.702V37ZM414.2 35.607V28.313H415.859C416.167 28.313 416.671 28.32 417.007 28.383C418.519 28.663 419.184 30.189 419.184 31.96C419.184 33.689 418.547 35.243 417.007 35.537C416.671 35.6 416.181 35.607 415.859 35.607H414.2ZM422.368 37H423.831V33.381H426.505L428.262 37H429.935L428.031 33.094C429.172 32.597 429.746 31.491 429.746 30.147C429.746 28.516 428.906 27.235 427.219 26.976C426.953 26.934 426.638 26.92 426.442 26.92H422.368V37ZM423.831 31.995V28.299H426.386C426.568 28.299 426.813 28.313 427.023 28.369C427.919 28.579 428.255 29.405 428.255 30.147C428.255 30.889 427.919 31.715 427.023 31.932C426.813 31.981 426.568 31.995 426.386 31.995H423.831ZM434.294 37.189C436.177 37.189 437.661 35.796 437.661 33.871C437.661 32.233 436.653 30.924 435.022 30.707L437.514 28.313V26.92H431.452V28.313H435.722L432.642 31.036L433.328 32.191C433.615 32.037 433.958 31.939 434.28 31.939C435.4 31.939 436.163 32.751 436.163 33.871C436.163 34.984 435.4 35.789 434.294 35.803C433.468 35.81 432.733 35.341 432.467 34.466L431.053 34.858C431.48 36.293 432.796 37.189 434.294 37.189Z" fill="#D3D7E0"/>
    <path d="M480 112V24" stroke="#D3D7E0" stroke-width="2" stroke-linecap="square" stroke-dasharray="6 6"/>
    <path d="M526.593 37H528.056V32.695H531.724V31.225H528.056V28.383H532.564V26.92H526.593V37ZM533.826 37H535.289V33.381H537.963L539.72 37H541.393L539.489 33.094C540.63 32.597 541.204 31.491 541.204 30.147C541.204 28.516 540.364 27.235 538.677 26.976C538.411 26.934 538.096 26.92 537.9 26.92H533.826V37ZM535.289 31.995V28.299H537.844C538.026 28.299 538.271 28.313 538.481 28.369C539.377 28.579 539.713 29.405 539.713 30.147C539.713 30.889 539.377 31.715 538.481 31.932C538.271 31.981 538.026 31.995 537.844 31.995H535.289ZM547.201 37H548.685V35.243H549.686V33.857H548.685V31.127H547.201V33.857H544.324L547.6 26.92H545.927L542.651 33.857V35.243H547.201V37Z" fill="#D3D7E0"/>
    <path d="M596 112V24" stroke="#D3D7E0" stroke-width="2" stroke-linecap="square" stroke-dasharray="6 6"/>
    <path d="M731.128 92V82.056L728.96 83.368V81.776L731.128 80.48H732.576V92H731.128ZM740.596 92V89.88H735.3V88.528L739.1 80.48H740.716L736.916 88.528H740.596V85.288H742.036V88.528H743.236V89.88H742.036V92H740.596ZM749.119 92.24C748.309 92.24 747.626 92.04 747.071 91.64C746.517 91.2347 746.095 90.688 745.807 90C745.525 89.3067 745.383 88.5307 745.383 87.672C745.383 86.8027 745.525 86.024 745.807 85.336C746.095 84.648 746.517 84.1067 747.071 83.712C747.631 83.3173 748.317 83.12 749.127 83.12C749.927 83.12 750.615 83.32 751.191 83.72C751.773 84.1147 752.218 84.656 752.527 85.344C752.837 86.032 752.991 86.808 752.991 87.672C752.991 88.536 752.837 89.312 752.527 90C752.218 90.688 751.773 91.2347 751.191 91.64C750.615 92.04 749.925 92.24 749.119 92.24ZM745.143 92V80.48H746.575V85.64H746.415V92H745.143ZM748.943 90.936C749.514 90.936 749.986 90.792 750.359 90.504C750.733 90.216 751.013 89.8267 751.199 89.336C751.386 88.84 751.479 88.2853 751.479 87.672C751.479 87.064 751.386 86.5147 751.199 86.024C751.018 85.5333 750.735 85.144 750.351 84.856C749.973 84.568 749.49 84.424 748.903 84.424C748.343 84.424 747.879 84.5627 747.511 84.84C747.143 85.112 746.869 85.4933 746.687 85.984C746.506 86.4693 746.415 87.032 746.415 87.672C746.415 88.3013 746.503 88.864 746.679 89.36C746.861 89.8507 747.138 90.2373 747.511 90.52C747.885 90.7973 748.362 90.936 748.943 90.936ZM758.713 92.24C757.902 92.24 757.22 92.04 756.665 91.64C756.11 91.2347 755.689 90.688 755.401 90C755.118 89.3067 754.977 88.5307 754.977 87.672C754.977 86.8027 755.118 86.024 755.401 85.336C755.689 84.648 756.11 84.1067 756.665 83.712C757.225 83.3173 757.91 83.12 758.721 83.12C759.521 83.12 760.209 83.32 760.785 83.72C761.366 84.1147 761.812 84.656 762.121 85.344C762.43 86.032 762.585 86.808 762.585 87.672C762.585 88.536 762.43 89.312 762.121 90C761.812 90.688 761.366 91.2347 760.785 91.64C760.209 92.04 759.518 92.24 758.713 92.24ZM754.737 95.84V83.36H756.009V89.72H756.169V95.84H754.737ZM758.537 90.936C759.108 90.936 759.58 90.792 759.953 90.504C760.326 90.216 760.606 89.8267 760.793 89.336C760.98 88.84 761.073 88.2853 761.073 87.672C761.073 87.064 760.98 86.5147 760.793 86.024C760.612 85.5333 760.329 85.144 759.945 84.856C759.566 84.568 759.084 84.424 758.497 84.424C757.937 84.424 757.473 84.5627 757.105 84.84C756.737 85.112 756.462 85.4933 756.281 85.984C756.1 86.4693 756.009 87.032 756.009 87.672C756.009 88.3013 756.097 88.864 756.273 89.36C756.454 89.8507 756.732 90.2373 757.105 90.52C757.478 90.7973 757.956 90.936 758.537 90.936Z" fill="#110529"/>
    <rect width="54" height="20" transform="translate(832 76)" fill="white"/>
    <path d="M841.008 92.24C843.248 92.24 844.896 90.592 844.896 88.352V84.128C844.896 81.888 843.248 80.24 841.008 80.24C838.768 80.24 837.12 81.888 837.12 84.128V88.352C837.12 90.592 838.768 92.24 841.008 92.24ZM838.568 88.432V84.04C838.568 82.688 839.656 81.6 841.008 81.6C842.36 81.6 843.448 82.688 843.448 84.04V88.432C843.448 89.784 842.36 90.872 841.008 90.872C839.656 90.872 838.568 89.784 838.568 88.432ZM846.976 86.824H851.776V85.648H846.976V86.824ZM853.534 91.992H861.19V90.632H855.726L859.438 87.296C860.622 86.248 861.19 85.488 861.19 83.976C861.19 81.856 859.574 80.24 857.438 80.24C855.222 80.24 853.59 81.784 853.59 83.952H855.046C855.03 82.696 856.038 81.6 857.414 81.6C858.742 81.6 859.734 82.632 859.734 83.96C859.734 84.688 859.502 85.352 858.654 86.112L853.542 90.712L853.534 91.992ZM867.072 92.24C869.488 92.24 870.944 90.264 870.944 87.672C870.944 85.08 869.48 83.12 867.08 83.12C866 83.12 865.144 83.496 864.528 84.144V80.48H863.096V92H864.368V91.024C865 91.784 865.904 92.24 867.072 92.24ZM864.368 87.672C864.368 85.76 865.168 84.424 866.856 84.424C868.616 84.424 869.432 85.848 869.432 87.672C869.432 89.512 868.6 90.936 866.896 90.936C865.152 90.936 864.368 89.568 864.368 87.672ZM876.666 92.24C879.082 92.24 880.538 90.264 880.538 87.672C880.538 85.08 879.074 83.12 876.674 83.12C875.498 83.12 874.594 83.568 873.962 84.328V83.36H872.69V95.84H874.122V91.2C874.738 91.856 875.594 92.24 876.666 92.24ZM873.962 87.672C873.962 85.76 874.762 84.424 876.45 84.424C878.21 84.424 879.026 85.848 879.026 87.672C879.026 89.512 878.194 90.936 876.49 90.936C874.746 90.936 873.962 89.568 873.962 87.672Z" fill="#110529"/>
    <g filter="url(#filter0_i_5907_37201)">
        <path d="M101 108H110.4C110.96 108 111.24 108 111.454 108.109C111.642 108.205 111.795 108.358 111.891 108.546C112 108.76 112 109.04 112 109.6V158.4C112 158.96 112 159.24 111.891 159.454C111.795 159.642 111.642 159.795 111.454 159.891C111.24 160 110.96 160 110.4 160H101L96 153.5L101 147L96 140L101 134L96 127.5L101 121L96 114.5L101 108Z" fill="#D3D7E0"/>
    </g>
    <path d="M101 108H110.4C110.96 108 111.24 108 111.454 108.109C111.642 108.205 111.795 108.358 111.891 108.546C112 108.76 112 109.04 112 109.6V158.4C112 158.96 112 159.24 111.891 159.454C111.795 159.642 111.642 159.795 111.454 159.891C111.24 160 110.96 160 110.4 160H101L96 153.5L101 147L96 140L101 134L96 127.5L101 121L96 114.5L101 108Z" stroke="#110529" stroke-width="2" stroke-linecap="round"/>
    <g filter="url(#filter1_i_5907_37201)">
        <path d="M112 108H370.4C370.96 108 371.24 108 371.454 108.109C371.642 108.205 371.795 108.358 371.891 108.546C372 108.76 372 109.04 372 109.6V158.4C372 158.96 372 159.24 371.891 159.454C371.795 159.642 371.642 159.795 371.454 159.891C371.24 160 370.96 160 370.4 160H112V153.5V147V140V134V127.5V121V114.5V108Z" fill="#99E099"/>
    </g>
    <path d="M112 108H370.4C370.96 108 371.24 108 371.454 108.109C371.642 108.205 371.795 108.358 371.891 108.546C372 108.76 372 109.04 372 109.6V158.4C372 158.96 372 159.24 371.891 159.454C371.795 159.642 371.642 159.795 371.454 159.891C371.24 160 370.96 160 370.4 160H112V153.5V147V140V134V127.5V121V114.5V108Z" stroke="#110529" stroke-width="2" stroke-linecap="round"/>
    <path d="M247.258 142H249.738L254.558 127.6H252.708L248.478 140.11L244.288 127.6H242.438L247.258 142Z" fill="#110529"/>
    <g filter="url(#filter2_i_5907_37201)">
        <rect x="372" y="108" width="30" height="52" rx="1" fill="#CBEB67"/>
    </g>
    <rect x="372" y="108" width="30" height="52" rx="1" stroke="#110529" stroke-width="2" stroke-linecap="round"/>
    <g filter="url(#filter3_i_5907_37201)">
        <rect x="438" y="108" width="30" height="52" rx="1" fill="#FAAAFA"/>
    </g>
    <rect x="438" y="108" width="30" height="52" rx="1" stroke="#110529" stroke-width="2" stroke-linecap="round"/>
    <g filter="url(#filter4_i_5907_37201)">
        <rect x="402" y="108" width="36" height="52" rx="1" fill="#FFCB8F"/>
    </g>
    <rect x="402" y="108" width="36" height="52" rx="1" stroke="#110529" stroke-width="2" stroke-linecap="round"/>
    <path d="M381.447 142H383.247V130.74L390.757 142H392.557V127.6H390.757V138.85L383.247 127.6H381.447V142Z" fill="#110529"/>
    <path d="M447.447 142H449.247V130.74L456.757 142H458.557V127.6H456.757V138.85L449.247 127.6H447.447V142Z" fill="#110529"/>
    <path d="M414.593 142H419.033C419.303 142 420.183 142 420.853 141.91C424.183 141.47 425.913 138.48 425.913 134.8C425.913 131.13 424.183 128.13 420.853 127.69C420.173 127.6 419.313 127.6 419.033 127.6H414.593V142ZM416.423 140.3V129.3H419.033C419.513 129.3 420.233 129.32 420.703 129.41C423.033 129.83 424.023 132.08 424.023 134.8C424.023 137.47 423.063 139.76 420.703 140.19C420.233 140.28 419.533 140.3 419.033 140.3H416.423Z" fill="#110529"/>
    <g filter="url(#filter5_i_5907_37201)">
        <rect x="468" y="108" width="128" height="52" rx="1" fill="#C1ADFF"/>
        <path d="M531.244 142.29C532.694 142.29 533.954 141.7 534.684 140.43C535.214 139.51 535.154 138.72 535.154 137.48V127.6H533.354V137.48C533.354 138.37 533.354 138.99 533.094 139.51C532.704 140.29 531.884 140.6 531.204 140.6C530.134 140.6 529.224 139.83 529.014 138.85L527.244 139.27C527.754 141.11 529.224 142.29 531.244 142.29Z" fill="#110529"/>
        <rect x="468" y="108" width="128" height="52" rx="1" stroke="#110529" stroke-width="2" stroke-linecap="round"/>
    </g>
    <g filter="url(#filter6_i_5907_37201)">
        <rect x="596" y="108" width="96" height="52" rx="1" fill="#FAFAAA"/>
        <path d="M644.093 142.3C647.423 142.3 649.613 140.47 650.433 137.61L648.623 137.13C648.033 139.27 646.523 140.6 644.093 140.6C640.873 140.6 639.233 138.25 639.253 134.8C639.273 131.35 640.873 129 644.093 129C646.523 129 648.033 130.33 648.623 132.47L650.433 131.99C649.613 129.13 647.423 127.3 644.093 127.3C639.783 127.3 637.373 130.36 637.373 134.8C637.373 139.24 639.783 142.3 644.093 142.3Z" fill="#110529"/>
        <rect x="596" y="108" width="96" height="52" rx="1" stroke="#110529" stroke-width="2" stroke-linecap="round"/>
    </g>
    <g filter="url(#filter7_i_5907_37201)">
        <rect x="692" y="108" width="24" height="52" rx="1" fill="#D3D7E0"/>
        <rect x="692" y="108" width="24" height="52" rx="1" stroke="#110529" stroke-width="2" stroke-linecap="round"/>
    </g>
    <g filter="url(#filter8_i_5907_37201)">
        <rect x="716" y="108" width="64" height="52" rx="1" fill="#D6E0FF"/>
        <path d="M736.553 142.3C739.893 142.3 742.233 140.1 742.233 136.75V127.6H740.433V136.6C740.433 139.31 738.393 140.62 736.553 140.62C734.733 140.62 732.673 139.33 732.673 136.6V127.6L730.873 127.61V136.75C730.873 140.11 733.213 142.3 736.553 142.3ZM745.033 142H746.723V131.51L751.613 142H752.563L757.453 131.51V141.99H759.143V127.6H757.503L752.093 139.07L746.653 127.6H745.033V142ZM762.147 142H763.927V127.6H762.147V142Z" fill="#110529"/>
        <rect x="716" y="108" width="64" height="52" rx="1" stroke="#110529" stroke-width="2" stroke-linecap="round"/>
    </g>
    <g filter="url(#filter9_i_5907_37201)">
        <rect x="780" y="108" width="64" height="52" rx="1" fill="#D3D7E0"/>
        <rect x="780" y="108" width="64" height="52" rx="1" stroke="#110529" stroke-width="2" stroke-linecap="round"/>
    </g>
    <g filter="url(#filter10_i_5907_37201)">
        <rect x="844" y="108" width="30" height="52" rx="1" fill="#90E0E0"/>
        <path d="M853.447 142H855.247V130.74L862.757 142H864.557V127.6H862.757V138.85L855.247 127.6H853.447V142Z" fill="#110529"/>
        <rect x="844" y="108" width="30" height="52" rx="1" stroke="#110529" stroke-width="2" stroke-linecap="round"/>
    </g>
    <g filter="url(#filter11_i_5907_37201)">
        <path d="M101 268H110.4C110.96 268 111.24 268 111.454 268.109C111.642 268.205 111.795 268.358 111.891 268.546C112 268.76 112 269.04 112 269.6V318.4C112 318.96 112 319.24 111.891 319.454C111.795 319.642 111.642 319.795 111.454 319.891C111.24 320 110.96 320 110.4 320H101L96 313.5L101 307L96 300L101 294L96 287.5L101 281L96 274.5L101 268Z" fill="#D3D7E0"/>
    </g>
    <path d="M101 268H110.4C110.96 268 111.24 268 111.454 268.109C111.642 268.205 111.795 268.358 111.891 268.546C112 268.76 112 269.04 112 269.6V318.4C112 318.96 112 319.24 111.891 319.454C111.795 319.642 111.642 319.795 111.454 319.891C111.24 320 110.96 320 110.4 320H101L96 313.5L101 307L96 300L101 294L96 287.5L101 281L96 274.5L101 268Z" stroke="#110529" stroke-width="2" stroke-linecap="round"/>
    <g filter="url(#filter12_i_5907_37201)">
        <path d="M112 268H370.4C370.96 268 371.24 268 371.454 268.109C371.642 268.205 371.795 268.358 371.891 268.546C372 268.76 372 269.04 372 269.6V318.4C372 318.96 372 319.24 371.891 319.454C371.795 319.642 371.642 319.795 371.454 319.891C371.24 320 370.96 320 370.4 320H112V313.5V307V300V294V287.5V281V274.5V268Z" fill="#99E099"/>
    </g>
    <path d="M112 268H370.4C370.96 268 371.24 268 371.454 268.109C371.642 268.205 371.795 268.358 371.891 268.546C372 268.76 372 269.04 372 269.6V318.4C372 318.96 372 319.24 371.891 319.454C371.795 319.642 371.642 319.795 371.454 319.891C371.24 320 370.96 320 370.4 320H112V313.5V307V300V294V287.5V281V274.5V268Z" stroke="#110529" stroke-width="2" stroke-linecap="round"/>
    <path d="M247.258 302H249.738L254.558 287.6H252.708L248.478 300.11L244.288 287.6H242.438L247.258 302Z" fill="#110529"/>
    <g filter="url(#filter13_i_5907_37201)">
        <rect x="372" y="268" width="30" height="52" rx="1" fill="#CBEB67"/>
    </g>
    <rect x="372" y="268" width="30" height="52" rx="1" stroke="#110529" stroke-width="2" stroke-linecap="round"/>
    <path d="M381.447 302H383.247V290.74L390.757 302H392.557V287.6H390.757V298.85L383.247 287.6H381.447V302Z" fill="#110529"/>
    <g filter="url(#filter14_i_5907_37201)">
        <rect x="402" y="268" width="128" height="52" rx="1" fill="#C1ADFF"/>
        <path d="M465.244 302.29C466.694 302.29 467.954 301.7 468.684 300.43C469.214 299.51 469.154 298.72 469.154 297.48V287.6H467.354V297.48C467.354 298.37 467.354 298.99 467.094 299.51C466.704 300.29 465.884 300.6 465.204 300.6C464.134 300.6 463.224 299.83 463.014 298.85L461.244 299.27C461.754 301.11 463.224 302.29 465.244 302.29Z" fill="#110529"/>
        <rect x="402" y="268" width="128" height="52" rx="1" stroke="#110529" stroke-width="2" stroke-linecap="round"/>
    </g>
    <g filter="url(#filter15_i_5907_37201)">
        <rect x="530" y="268" width="96" height="52" rx="1" fill="#FAFAAA"/>
        <path d="M578.093 302.3C581.423 302.3 583.613 300.47 584.433 297.61L582.623 297.13C582.033 299.27 580.523 300.6 578.093 300.6C574.873 300.6 573.233 298.25 573.253 294.8C573.273 291.35 574.873 289 578.093 289C580.523 289 582.033 290.33 582.623 292.47L584.433 291.99C583.613 289.13 581.423 287.3 578.093 287.3C573.783 287.3 571.373 290.36 571.373 294.8C571.373 299.24 573.783 302.3 578.093 302.3Z" fill="#110529"/>
        <rect x="530" y="268" width="96" height="52" rx="1" stroke="#110529" stroke-width="2" stroke-linecap="round"/>
    </g>
    <g filter="url(#filter16_i_5907_37201)">
        <rect x="626" y="268" width="24" height="52" rx="1" fill="#D3D7E0"/>
        <rect x="626" y="268" width="24" height="52" rx="1" stroke="#110529" stroke-width="2" stroke-linecap="round"/>
    </g>
    <g filter="url(#filter17_i_5907_37201)">
        <rect x="650" y="268" width="64" height="52" rx="1" fill="#D6E0FF"/>
        <path d="M670.553 302.3C673.893 302.3 676.233 300.1 676.233 296.75V287.6H674.433V296.6C674.433 299.31 672.393 300.62 670.553 300.62C668.733 300.62 666.673 299.33 666.673 296.6V287.6L664.873 287.61V296.75C664.873 300.11 667.213 302.3 670.553 302.3ZM679.033 302H680.723V291.51L685.613 302H686.563L691.453 291.51V301.99H693.143V287.6H691.503L686.093 299.07L680.653 287.6H679.033V302ZM696.147 302H697.927V287.6H696.147V302Z" fill="#110529"/>
        <rect x="650" y="268" width="64" height="52" rx="1" stroke="#110529" stroke-width="2" stroke-linecap="round"/>
    </g>
    <g filter="url(#filter18_i_5907_37201)">
        <rect x="714" y="268" width="64" height="52" rx="1" fill="#D3D7E0"/>
        <rect x="714" y="268" width="64" height="52" rx="1" stroke="#110529" stroke-width="2" stroke-linecap="round"/>
    </g>
    <g filter="url(#filter19_i_5907_37201)">
        <rect x="778" y="268" width="30" height="52" rx="1" fill="#90E0E0"/>
        <path d="M787.447 302H789.247V290.74L796.757 302H798.557V287.6H796.757V298.85L789.247 287.6H787.447V302Z" fill="#110529"/>
        <rect x="778" y="268" width="30" height="52" rx="1" stroke="#110529" stroke-width="2" stroke-linecap="round"/>
    </g>
    <path d="M604.247 72.24C605.919 72.24 607.351 71.368 608.031 69.84L606.663 69.368C606.183 70.352 605.319 70.888 604.183 70.888C602.591 70.888 601.663 69.872 601.551 68.08H608.175C608.303 65.008 606.783 63.12 604.183 63.12C601.671 63.12 600.023 64.904 600.023 67.736C600.023 70.44 601.695 72.24 604.247 72.24ZM601.575 66.936C601.775 65.296 602.679 64.4 604.231 64.4C605.695 64.4 606.519 65.24 606.695 66.936H601.575ZM608.683 72H610.387L612.819 68.736L615.235 72H616.939L613.627 67.632L616.859 63.36H615.163L612.819 66.528L610.451 63.36H608.755L611.987 67.632L608.683 72ZM620.365 72.24C621.805 72.24 622.877 71.712 623.565 70.656V72H624.829V66.656C624.829 65.976 624.789 65.344 624.549 64.808C624.053 63.68 622.877 63.12 621.317 63.12C619.365 63.12 618.157 64.04 617.749 65.552L619.101 65.96C619.413 64.904 620.253 64.448 621.301 64.448C622.797 64.448 623.389 65.104 623.429 66.48C622.149 66.656 620.629 66.84 619.549 67.128C618.237 67.512 617.429 68.304 617.429 69.664C617.429 71.056 618.429 72.24 620.365 72.24ZM618.845 69.656C618.845 68.848 619.477 68.456 620.189 68.232C621.029 67.992 622.197 67.856 623.413 67.696C623.405 68.088 623.389 68.64 623.269 69.056C623.061 70.128 622.117 71.048 620.581 71.048C619.349 71.048 618.845 70.368 618.845 69.656ZM630.549 72.24C632.333 72.24 633.637 71.368 634.245 69.752L632.805 69.376C632.413 70.36 631.669 70.888 630.549 70.888C628.829 70.888 627.957 69.608 627.941 67.68C627.957 65.808 628.773 64.472 630.549 64.472C631.597 64.472 632.469 65.056 632.837 66.056L634.245 65.632C633.789 64.08 632.381 63.12 630.565 63.12C627.965 63.12 626.453 64.984 626.429 67.68C626.453 70.328 627.917 72.24 630.549 72.24ZM640.702 72V70.776C639.518 70.96 638.654 70.912 638.27 70.224C638.062 69.864 638.094 69.384 638.094 68.672V64.536H640.702V63.36H638.094V60.96H636.67V63.36H634.918V64.536H636.67V68.736C636.67 69.632 636.622 70.288 636.966 70.96C637.566 72.136 639.158 72.312 640.702 72ZM645.819 61.832H647.243V60.36H645.819V61.832ZM645.819 72H647.243V63.36H645.819V72ZM652.907 72.232C655.059 72.232 656.363 71.224 656.363 69.552C656.363 68.216 655.619 67.576 653.339 66.992C651.307 66.48 650.867 66.208 650.867 65.576C650.867 64.84 651.635 64.36 652.755 64.392C653.931 64.424 654.731 64.992 654.875 65.912L656.331 65.648C656.147 64.128 654.723 63.12 652.755 63.12C650.763 63.12 649.435 64.128 649.435 65.648C649.435 66.888 650.163 67.48 652.451 68.088C654.563 68.656 654.891 68.864 654.891 69.592C654.891 70.44 654.171 70.96 652.995 70.96C651.747 70.96 650.851 70.376 650.619 69.432L649.163 69.664C649.459 71.288 650.843 72.232 652.907 72.232ZM661.808 72.24C664.376 72.24 665.976 70.384 665.976 67.672C665.976 65 664.4 63.12 661.808 63.12C659.272 63.12 657.648 64.96 657.648 67.672C657.648 70.352 659.224 72.24 661.808 72.24ZM659.16 67.672C659.16 65.784 660 64.472 661.808 64.472C663.576 64.472 664.464 65.728 664.464 67.672C664.464 69.576 663.592 70.888 661.808 70.888C660.064 70.888 659.16 69.624 659.16 67.672ZM672.561 72V70.776C671.377 70.96 670.513 70.912 670.129 70.224C669.921 69.864 669.953 69.384 669.953 68.672V64.536H672.561V63.36H669.953V60.96H668.529V63.36H666.777V64.536H668.529V68.736C668.529 69.632 668.481 70.288 668.825 70.96C669.425 72.136 671.017 72.312 672.561 72ZM675.281 75.84H676.665L681.369 63.36H679.921L677.393 70.16L674.697 63.36H673.201L676.705 71.968L675.281 75.84ZM686.658 72.24C689.074 72.24 690.53 70.264 690.53 67.672C690.53 65.08 689.066 63.12 686.666 63.12C685.49 63.12 684.586 63.568 683.954 64.328V63.36H682.682V75.84H684.114V71.2C684.73 71.856 685.586 72.24 686.658 72.24ZM683.954 67.672C683.954 65.76 684.754 64.424 686.442 64.424C688.202 64.424 689.018 65.848 689.018 67.672C689.018 69.512 688.186 70.936 686.482 70.936C684.738 70.936 683.954 69.568 683.954 67.672ZM696.028 72.24C697.7 72.24 699.132 71.368 699.812 69.84L698.444 69.368C697.964 70.352 697.1 70.888 695.964 70.888C694.372 70.888 693.444 69.872 693.332 68.08H699.956C700.084 65.008 698.564 63.12 695.964 63.12C693.452 63.12 691.804 64.904 691.804 67.736C691.804 70.44 693.476 72.24 696.028 72.24ZM693.356 66.936C693.556 65.296 694.46 64.4 696.012 64.4C697.476 64.4 698.3 65.24 698.476 66.936H693.356ZM610.918 92.24C612.086 92.24 612.99 91.784 613.622 91.024V92H614.894V80.48H613.462V84.144C612.846 83.496 611.99 83.12 610.91 83.12C608.51 83.12 607.046 85.08 607.046 87.672C607.046 90.264 608.502 92.24 610.918 92.24ZM608.558 87.672C608.558 85.848 609.374 84.424 611.134 84.424C612.822 84.424 613.622 85.76 613.622 87.672C613.622 89.568 612.838 90.936 611.094 90.936C609.39 90.936 608.558 89.512 608.558 87.672ZM620.88 92.24C622.552 92.24 623.984 91.368 624.664 89.84L623.296 89.368C622.816 90.352 621.952 90.888 620.816 90.888C619.224 90.888 618.296 89.872 618.184 88.08H624.808C624.936 85.008 623.416 83.12 620.816 83.12C618.304 83.12 616.656 84.904 616.656 87.736C616.656 90.44 618.328 92.24 620.88 92.24ZM618.208 86.936C618.408 85.296 619.312 84.4 620.864 84.4C622.328 84.4 623.152 85.24 623.328 86.936H618.208ZM631.413 92V90.776C630.229 90.96 629.365 90.912 628.981 90.224C628.773 89.864 628.805 89.384 628.805 88.672V84.536H631.413V83.36H628.805V80.96H627.381V83.36H625.629V84.536H627.381V88.736C627.381 89.632 627.333 90.288 627.677 90.96C628.277 92.136 629.869 92.312 631.413 92ZM636.552 92.24C638.224 92.24 639.656 91.368 640.336 89.84L638.968 89.368C638.488 90.352 637.624 90.888 636.488 90.888C634.896 90.888 633.968 89.872 633.856 88.08H640.48C640.608 85.008 639.088 83.12 636.488 83.12C633.976 83.12 632.328 84.904 632.328 87.736C632.328 90.44 634 92.24 636.552 92.24ZM633.88 86.936C634.08 85.296 634.984 84.4 636.536 84.4C638 84.4 638.824 85.24 639 86.936H633.88ZM642.261 92H643.693V87.664C643.693 86.64 643.901 85.624 644.741 85.024C645.341 84.584 646.117 84.544 646.717 84.696V83.36C645.949 83.192 644.933 83.352 644.269 83.888C643.981 84.096 643.725 84.392 643.533 84.728V83.36H642.261V92ZM658.565 86.472L658.557 92H659.981L659.989 86.16C659.989 84.32 658.885 83.136 657.085 83.136C655.949 83.136 654.981 83.672 654.469 84.56C654.005 83.656 653.117 83.136 651.949 83.136C650.917 83.136 650.037 83.576 649.493 84.28V83.36H648.221V92H649.653V86.512C649.653 85.248 650.405 84.408 651.533 84.408C652.661 84.408 653.405 85.216 653.405 86.528L653.397 92H654.813L654.821 86.512C654.821 85.056 655.741 84.408 656.709 84.408C657.797 84.408 658.565 85.184 658.565 86.472ZM662.233 81.832H663.657V80.36H662.233V81.832ZM662.233 92H663.657V83.36H662.233V92ZM672.21 87.672V92H673.65V87.224C673.65 85.584 672.994 83.136 670.21 83.136C668.962 83.136 667.97 83.616 667.33 84.472V83.36H666.05V92H667.49V87.448C667.49 85.448 668.434 84.488 669.866 84.488C671.69 84.488 672.21 86.048 672.21 87.672ZM679.395 92.24C681.067 92.24 682.499 91.368 683.179 89.84L681.811 89.368C681.331 90.352 680.467 90.888 679.331 90.888C677.739 90.888 676.811 89.872 676.699 88.08H683.323C683.451 85.008 681.931 83.12 679.331 83.12C676.819 83.12 675.171 84.904 675.171 87.736C675.171 90.44 676.843 92.24 679.395 92.24ZM676.723 86.936C676.923 85.296 677.827 84.4 679.379 84.4C680.843 84.4 681.667 85.24 681.843 86.936H676.723ZM688.496 92.24C689.664 92.24 690.568 91.784 691.2 91.024V92H692.472V80.48H691.04V84.144C690.424 83.496 689.568 83.12 688.488 83.12C686.088 83.12 684.624 85.08 684.624 87.672C684.624 90.264 686.08 92.24 688.496 92.24ZM686.136 87.672C686.136 85.848 686.952 84.424 688.712 84.424C690.4 84.424 691.2 85.76 691.2 87.672C691.2 89.568 690.416 90.936 688.672 90.936C686.968 90.936 686.136 89.512 686.136 87.672Z" fill="#110529"/>
    <path d="M32.9984 142H34.7784V127.6H32.9984V142ZM43.6089 142.3C47.8189 142.3 50.0589 139.39 50.0589 135.44C50.0589 135.32 50.0489 134.87 50.0189 134.59H45.0789V136.06H48.1389C47.9189 138.93 46.4789 140.62 43.6989 140.6C40.4789 140.58 38.8489 138.25 38.8689 134.8C38.8889 131.35 40.4789 128.99 43.6989 129.01C45.7489 129.02 47.1389 130.14 47.7489 131.88L49.5489 131.51C48.7989 128.92 46.8289 127.31 43.6089 127.31C39.5789 127.31 36.9789 130.21 36.9789 134.8C36.9789 139.44 39.6389 142.3 43.6089 142.3ZM52.0563 142H53.8363V135.64H61.4163V142H63.1963V127.6H61.4163V133.95H53.8363V127.6H52.0563V142Z" fill="#110529"/>
    <path d="M28.0277 292H29.8077V277.6H28.0277V292ZM38.6382 292.3C42.8482 292.3 45.0882 289.39 45.0882 285.44C45.0882 285.32 45.0782 284.87 45.0482 284.59H40.1082V286.06H43.1682C42.9482 288.93 41.5082 290.62 38.7282 290.6C35.5082 290.58 33.8782 288.25 33.8982 284.8C33.9182 281.35 35.5082 278.99 38.7282 279.01C40.7782 279.02 42.1682 280.14 42.7782 281.88L44.5782 281.51C43.8282 278.92 41.8582 277.31 38.6382 277.31C34.6082 277.31 32.0082 280.21 32.0082 284.8C32.0082 289.44 34.6682 292.3 38.6382 292.3ZM47.0855 292H48.8655V284.96L55.6155 292H57.9155L50.8655 284.59L57.4055 277.6H55.1655L48.8655 284.36V277.6H47.0855V292ZM66.5654 277.6L62.7254 292H64.5354L68.3754 277.6H66.5654ZM34.7953 312H36.5753V297.6H34.7953V312ZM45.4058 312.3C49.6158 312.3 51.8558 309.39 51.8558 305.44C51.8558 305.32 51.8458 304.87 51.8158 304.59H46.8758V306.06H49.9358C49.7158 308.93 48.2758 310.62 45.4958 310.6C42.2758 310.58 40.6458 308.25 40.6658 304.8C40.6858 301.35 42.2758 298.99 45.4958 299.01C47.5458 299.02 48.9358 300.14 49.5458 301.88L51.3458 301.51C50.5958 298.92 48.6258 297.31 45.4058 297.31C41.3758 297.31 38.7758 300.21 38.7758 304.8C38.7758 309.44 41.4358 312.3 45.4058 312.3ZM54.0531 312H62.5131V310.31H55.8331V297.6H54.0531V312Z" fill="#110529"/>
    <path d="M739.142 37.189C741.025 37.189 742.509 35.796 742.509 33.871C742.509 32.233 741.501 30.924 739.87 30.707L742.362 28.313V26.92H736.3V28.313H740.57L737.49 31.036L738.176 32.191C738.463 32.037 738.806 31.939 739.128 31.939C740.248 31.939 741.011 32.751 741.011 33.871C741.011 34.984 740.248 35.789 739.142 35.803C738.316 35.81 737.581 35.341 737.315 34.466L735.901 34.858C736.328 36.293 737.644 37.189 739.142 37.189ZM744.564 29.629L744.473 30.28C745.481 30.462 746.02 29.846 746.02 28.747V26.92H744.473V28.607H745.278C745.348 29.202 745.173 29.678 744.564 29.629ZM753.34 37H754.803V28.299H758.156V26.92H749.987V28.299H753.34V37ZM763.399 37.21C766.332 37.21 767.998 35.166 767.998 32.359C767.998 32.289 767.991 31.939 767.97 31.764H764.456V32.94H766.416C766.213 34.809 765.212 35.838 763.483 35.817C761.341 35.803 760.263 34.27 760.27 31.96C760.277 29.65 761.341 28.089 763.483 28.103C764.869 28.117 765.793 28.887 766.199 30.091L767.683 29.825C767.165 27.886 765.765 26.717 763.399 26.717C760.641 26.717 758.716 28.705 758.716 31.96C758.716 35.264 760.697 37.21 763.399 37.21ZM768.42 37H769.939L770.674 34.725H774.811L775.56 37H777.079L773.803 26.92H771.696L768.42 37ZM771.122 33.353L772.732 28.383L774.363 33.353H771.122ZM782.184 37.21C785.117 37.21 786.783 35.166 786.783 32.359C786.783 32.289 786.776 31.939 786.755 31.764H783.241V32.94H785.201C784.998 34.809 783.997 35.838 782.268 35.817C780.126 35.803 779.048 34.27 779.055 31.96C779.062 29.65 780.126 28.089 782.268 28.103C783.654 28.117 784.578 28.887 784.984 30.091L786.468 29.825C785.95 27.886 784.55 26.717 782.184 26.717C779.426 26.717 777.501 28.705 777.501 31.96C777.501 35.264 779.482 37.21 782.184 37.21ZM787.205 37H788.724L789.459 34.725H793.596L794.345 37H795.864L792.588 26.92H790.481L787.205 37ZM789.907 33.353L791.517 28.383L793.148 33.353H789.907ZM801.053 37.21C803.377 37.21 804.938 35.943 805.533 33.955L804.049 33.556C803.65 34.963 802.649 35.817 801.053 35.817C798.911 35.817 797.819 34.27 797.833 31.96C797.84 29.65 798.911 28.103 801.053 28.103C802.649 28.103 803.65 28.957 804.049 30.364L805.533 29.965C804.938 27.977 803.377 26.71 801.053 26.71C798.029 26.71 796.286 28.845 796.286 31.96C796.286 35.075 798.029 37.21 801.053 37.21ZM811.196 37.21C814.129 37.21 815.795 35.166 815.795 32.359C815.795 32.289 815.788 31.939 815.767 31.764H812.253V32.94H814.213C814.01 34.809 813.009 35.838 811.28 35.817C809.138 35.803 808.06 34.27 808.067 31.96C808.074 29.65 809.138 28.089 811.28 28.103C812.666 28.117 813.59 28.887 813.996 30.091L815.48 29.825C814.962 27.886 813.562 26.717 811.196 26.717C808.438 26.717 806.513 28.705 806.513 31.96C806.513 35.264 808.494 37.21 811.196 37.21ZM821.397 37.21C823.721 37.21 825.282 35.943 825.877 33.955L824.393 33.556C823.994 34.963 822.993 35.817 821.397 35.817C819.255 35.817 818.163 34.27 818.177 31.96C818.184 29.65 819.255 28.103 821.397 28.103C822.993 28.103 823.994 28.957 824.393 30.364L825.877 29.965C825.282 27.977 823.721 26.71 821.397 26.71C818.373 26.71 816.63 28.845 816.63 31.96C816.63 35.075 818.373 37.21 821.397 37.21ZM826.443 37H827.962L828.697 34.725H832.834L833.583 37H835.102L831.826 26.92H829.719L826.443 37ZM829.145 33.353L830.755 28.383L832.386 33.353H829.145ZM836.123 37H837.642L838.377 34.725H842.514L843.263 37H844.782L841.506 26.92H839.399L836.123 37ZM838.825 33.353L840.435 28.383L842.066 33.353H838.825ZM849.971 37.21C852.295 37.21 853.856 35.943 854.451 33.955L852.967 33.556C852.568 34.963 851.567 35.817 849.971 35.817C847.829 35.817 846.737 34.27 846.751 31.96C846.758 29.65 847.829 28.103 849.971 28.103C851.567 28.103 852.568 28.957 852.967 30.364L854.451 29.965C853.856 27.977 852.295 26.71 849.971 26.71C846.947 26.71 845.204 28.845 845.204 31.96C845.204 35.075 846.947 37.21 849.971 37.21ZM858.504 37H859.967V28.299H863.32V26.92H855.151V28.299H858.504V37ZM863.467 37H864.986L865.721 34.725H869.858L870.607 37H872.126L868.85 26.92H866.743L863.467 37ZM866.169 33.353L867.779 28.383L869.41 33.353H866.169ZM875.06 37H876.523V28.299H879.876V26.92H871.707V28.299H875.06V37ZM885.12 37.21C888.053 37.21 889.719 35.166 889.719 32.359C889.719 32.289 889.712 31.939 889.691 31.764H886.177V32.94H888.137C887.934 34.809 886.933 35.838 885.204 35.817C883.062 35.803 881.984 34.27 881.991 31.96C881.998 29.65 883.062 28.089 885.204 28.103C886.59 28.117 887.514 28.887 887.92 30.091L889.404 29.825C888.886 27.886 887.486 26.717 885.12 26.717C882.362 26.717 880.437 28.705 880.437 31.96C880.437 35.264 882.418 37.21 885.12 37.21ZM895.237 37.21C898.17 37.21 899.836 35.166 899.836 32.359C899.836 32.289 899.829 31.939 899.808 31.764H896.294V32.94H898.254C898.051 34.809 897.05 35.838 895.321 35.817C893.179 35.803 892.101 34.27 892.108 31.96C892.115 29.65 893.179 28.089 895.321 28.103C896.707 28.117 897.631 28.887 898.037 30.091L899.521 29.825C899.003 27.886 897.603 26.717 895.237 26.717C892.479 26.717 890.554 28.705 890.554 31.96C890.554 35.264 892.535 37.21 895.237 37.21ZM903.471 37H904.934V28.299H908.287V26.92H900.118V28.299H903.471V37ZM914.775 37.21C916.658 37.21 918.275 35.705 918.275 33.829C918.275 31.939 916.889 30.525 915.006 30.525C914.411 30.525 913.781 30.714 913.284 31.071L913.452 28.299H917.582V26.92H912.143L911.835 32.219L913.109 32.667C913.424 32.247 913.991 31.855 914.817 31.855C915.895 31.855 916.798 32.723 916.798 33.829C916.798 34.907 915.923 35.796 914.817 35.796C913.977 35.796 913.144 35.229 912.913 34.333L911.506 34.711C911.919 36.181 913.221 37.21 914.775 37.21ZM920.179 29.629L920.088 30.28C921.096 30.462 921.635 29.846 921.635 28.747V26.92H920.088V28.607H920.893C920.963 29.202 920.788 29.678 920.179 29.629Z" fill="#110529"/>
    <path d="M360 184L359.293 184.707L358.586 184L359.293 183.293L360 184ZM367.293 175.293L368 174.586L369.414 176L368.707 176.707L367.293 175.293ZM368.707 191.293L369.414 192L368 193.414L367.293 192.707L368.707 191.293ZM370 185L360 185L360 183L370 183L370 185ZM359.293 183.293L367.293 175.293L368.707 176.707L360.707 184.707L359.293 183.293ZM360.707 183.293L368.707 191.293L367.293 192.707L359.293 184.707L360.707 183.293Z" fill="#110529"/>
    <path d="M577.5 184H370" stroke="#110529" stroke-width="2"/>
    <rect width="57" height="20" transform="translate(577.5 174)" fill="white"/>
    <path d="M582.933 189.992H590.589V188.632H585.125L588.837 185.296C590.021 184.248 590.589 183.488 590.589 181.976C590.589 179.856 588.973 178.24 586.837 178.24C584.621 178.24 582.989 179.784 582.989 181.952H584.445C584.429 180.696 585.437 179.6 586.813 179.6C588.141 179.6 589.133 180.632 589.133 181.96C589.133 182.688 588.901 183.352 588.053 184.112L582.941 188.712L582.933 189.992ZM595.911 190.24C598.055 190.24 599.871 188.504 599.871 186.376C599.871 184.232 598.247 182.584 596.111 182.584C595.335 182.584 594.559 182.848 593.959 183.328L594.167 179.832H599.071V178.48H592.887L592.535 184.504L593.799 184.984C594.215 184.384 594.935 183.896 595.951 183.896C597.295 183.896 598.439 184.984 598.439 186.376C598.439 187.728 597.351 188.856 595.951 188.856C594.879 188.856 593.839 188.144 593.551 187.008L592.183 187.376C592.647 189.056 594.127 190.24 595.911 190.24ZM605.672 190.24C607.912 190.24 609.56 188.592 609.56 186.352V182.128C609.56 179.888 607.912 178.24 605.672 178.24C603.432 178.24 601.784 179.888 601.784 182.128V186.352C601.784 188.592 603.432 190.24 605.672 190.24ZM603.232 186.432V182.04C603.232 180.688 604.32 179.6 605.672 179.6C607.024 179.6 608.112 180.688 608.112 182.04V186.432C608.112 187.784 607.024 188.872 605.672 188.872C604.32 188.872 603.232 187.784 603.232 186.432ZM615.768 190.24C618.184 190.24 619.64 188.264 619.64 185.672C619.64 183.08 618.176 181.12 615.776 181.12C614.696 181.12 613.84 181.496 613.224 182.144V178.48H611.792V190H613.064V189.024C613.696 189.784 614.6 190.24 615.768 190.24ZM613.064 185.672C613.064 183.76 613.864 182.424 615.552 182.424C617.312 182.424 618.128 183.848 618.128 185.672C618.128 187.512 617.296 188.936 615.592 188.936C613.848 188.936 613.064 187.568 613.064 185.672ZM625.361 190.24C627.777 190.24 629.233 188.264 629.233 185.672C629.233 183.08 627.769 181.12 625.369 181.12C624.193 181.12 623.289 181.568 622.657 182.328V181.36H621.385V193.84H622.817V189.2C623.433 189.856 624.289 190.24 625.361 190.24ZM622.657 185.672C622.657 183.76 623.457 182.424 625.145 182.424C626.905 182.424 627.721 183.848 627.721 185.672C627.721 187.512 626.889 188.936 625.185 188.936C623.441 188.936 622.657 187.568 622.657 185.672Z" fill="#110529"/>
    <path d="M842 184H634.5" stroke="#110529" stroke-width="2"/>
    <path d="M850.62 190H852.044V185.744H855.412L857.476 190H859.108L856.884 185.432C858.188 184.888 858.868 183.632 858.868 182.112C858.868 180.28 857.884 178.832 856.02 178.544C855.724 178.496 855.396 178.48 855.172 178.48H850.62V190ZM852.044 184.392V179.832H855.124C855.324 179.832 855.604 179.848 855.844 179.904C856.948 180.152 857.412 181.152 857.412 182.112C857.412 183.072 856.948 184.072 855.844 184.32C855.604 184.376 855.324 184.392 855.124 184.392H852.044ZM862.878 190H864.326V178.48H862.878L860.71 179.776V181.368L862.878 180.056V190Z" fill="#110529"/>
    <rect x="842" y="172" width="32" height="24" rx="1" stroke="#110529" stroke-width="2"/>
    <path d="M360 344L359.293 344.707L358.586 344L359.293 343.293L360 344ZM367.293 335.293L368 334.586L369.414 336L368.707 336.707L367.293 335.293ZM368.707 351.293L369.414 352L368 353.414L367.293 352.707L368.707 351.293ZM370 345L360 345L360 343L370 343L370 345ZM359.293 343.293L367.293 335.293L368.707 336.707L360.707 344.707L359.293 343.293ZM360.707 343.293L368.707 351.293L367.293 352.707L359.293 344.707L360.707 343.293Z" fill="#110529"/>
    <path d="M544.5 344H370" stroke="#110529" stroke-width="2"/>
    <rect width="57" height="20" transform="translate(544.5 334)" fill="white"/>
    <path d="M549.933 349.992H557.589V348.632H552.125L555.837 345.296C557.021 344.248 557.589 343.488 557.589 341.976C557.589 339.856 555.973 338.24 553.837 338.24C551.621 338.24 549.989 339.784 549.989 341.952H551.445C551.429 340.696 552.437 339.6 553.813 339.6C555.141 339.6 556.133 340.632 556.133 341.96C556.133 342.688 555.901 343.352 555.053 344.112L549.941 348.712L549.933 349.992ZM562.911 350.24C565.055 350.24 566.871 348.504 566.871 346.376C566.871 344.232 565.247 342.584 563.111 342.584C562.335 342.584 561.559 342.848 560.959 343.328L561.167 339.832H566.071V338.48H559.887L559.535 344.504L560.799 344.984C561.215 344.384 561.935 343.896 562.951 343.896C564.295 343.896 565.439 344.984 565.439 346.376C565.439 347.728 564.351 348.856 562.951 348.856C561.879 348.856 560.839 348.144 560.551 347.008L559.183 347.376C559.647 349.056 561.127 350.24 562.911 350.24ZM572.672 350.24C574.912 350.24 576.56 348.592 576.56 346.352V342.128C576.56 339.888 574.912 338.24 572.672 338.24C570.432 338.24 568.784 339.888 568.784 342.128V346.352C568.784 348.592 570.432 350.24 572.672 350.24ZM570.232 346.432V342.04C570.232 340.688 571.32 339.6 572.672 339.6C574.024 339.6 575.112 340.688 575.112 342.04V346.432C575.112 347.784 574.024 348.872 572.672 348.872C571.32 348.872 570.232 347.784 570.232 346.432ZM582.768 350.24C585.184 350.24 586.64 348.264 586.64 345.672C586.64 343.08 585.176 341.12 582.776 341.12C581.696 341.12 580.84 341.496 580.224 342.144V338.48H578.792V350H580.064V349.024C580.696 349.784 581.6 350.24 582.768 350.24ZM580.064 345.672C580.064 343.76 580.864 342.424 582.552 342.424C584.312 342.424 585.128 343.848 585.128 345.672C585.128 347.512 584.296 348.936 582.592 348.936C580.848 348.936 580.064 347.568 580.064 345.672ZM592.361 350.24C594.777 350.24 596.233 348.264 596.233 345.672C596.233 343.08 594.769 341.12 592.369 341.12C591.193 341.12 590.289 341.568 589.657 342.328V341.36H588.385V353.84H589.817V349.2C590.433 349.856 591.289 350.24 592.361 350.24ZM589.657 345.672C589.657 343.76 590.457 342.424 592.145 342.424C593.905 342.424 594.721 343.848 594.721 345.672C594.721 347.512 593.889 348.936 592.185 348.936C590.441 348.936 589.657 347.568 589.657 345.672Z" fill="#110529"/>
    <path d="M776 344H601.5" stroke="#110529" stroke-width="2"/>
    <path d="M784.62 350H786.044V345.744H789.412L791.476 350H793.108L790.884 345.432C792.188 344.888 792.868 343.632 792.868 342.112C792.868 340.28 791.884 338.832 790.02 338.544C789.724 338.496 789.396 338.48 789.172 338.48H784.62V350ZM786.044 344.392V339.832H789.124C789.324 339.832 789.604 339.848 789.844 339.904C790.948 340.152 791.412 341.152 791.412 342.112C791.412 343.072 790.948 344.072 789.844 344.32C789.604 344.376 789.324 344.392 789.124 344.392H786.044ZM796.878 350H798.326V338.48H796.878L794.71 339.776V341.368L796.878 340.056V350Z" fill="#110529"/>
    <rect x="776" y="332" width="32" height="24" rx="1" stroke="#110529" stroke-width="2"/>
    <path d="M103.12 214H104.544V209.744H107.912L109.976 214H111.608L109.384 209.432C110.688 208.888 111.368 207.632 111.368 206.112C111.368 204.28 110.384 202.832 108.52 202.544C108.224 202.496 107.896 202.48 107.672 202.48H103.12V214ZM104.544 208.392V203.832H107.624C107.824 203.832 108.104 203.848 108.344 203.904C109.448 204.152 109.912 205.152 109.912 206.112C109.912 207.072 109.448 208.072 108.344 208.32C108.104 208.376 107.824 208.392 107.624 208.392H104.544ZM113.05 213.992H120.706V212.632H115.242L118.954 209.296C120.138 208.248 120.706 207.488 120.706 205.976C120.706 203.856 119.09 202.24 116.954 202.24C114.738 202.24 113.106 203.784 113.106 205.952H114.562C114.546 204.696 115.554 203.6 116.93 203.6C118.258 203.6 119.25 204.632 119.25 205.96C119.25 206.688 119.018 207.352 118.17 208.112L113.058 212.712L113.05 213.992Z" fill="#110529"/>
    <rect x="96" y="196" width="32" height="24" rx="1" stroke="#110529" stroke-width="2"/>
    <path d="M309 208H128" stroke="#110529" stroke-width="2"/>
    <rect width="56" height="20" transform="translate(309 198)" fill="white"/>
    <path d="M313.933 213.992H321.589V212.632H316.125L319.837 209.296C321.021 208.248 321.589 207.488 321.589 205.976C321.589 203.856 319.973 202.24 317.837 202.24C315.621 202.24 313.989 203.784 313.989 205.952H315.445C315.429 204.696 316.437 203.6 317.813 203.6C319.141 203.6 320.133 204.632 320.133 205.96C320.133 206.688 319.901 207.352 319.053 208.112L313.941 212.712L313.933 213.992ZM326.911 214.24C329.055 214.24 330.871 212.504 330.871 210.376C330.871 208.232 329.247 206.584 327.111 206.584C326.335 206.584 325.559 206.848 324.959 207.328L325.167 203.832H330.071V202.48H323.887L323.535 208.504L324.799 208.984C325.215 208.384 325.935 207.896 326.951 207.896C328.295 207.896 329.439 208.984 329.439 210.376C329.439 211.728 328.351 212.856 326.951 212.856C325.879 212.856 324.839 212.144 324.551 211.008L323.183 211.376C323.647 213.056 325.127 214.24 326.911 214.24ZM336.672 214.24C338.912 214.24 340.56 212.592 340.56 210.352V206.128C340.56 203.888 338.912 202.24 336.672 202.24C334.432 202.24 332.784 203.888 332.784 206.128V210.352C332.784 212.592 334.432 214.24 336.672 214.24ZM334.232 210.432V206.04C334.232 204.688 335.32 203.6 336.672 203.6C338.024 203.6 339.112 204.688 339.112 206.04V210.432C339.112 211.784 338.024 212.872 336.672 212.872C335.32 212.872 334.232 211.784 334.232 210.432ZM346.768 214.24C349.184 214.24 350.64 212.264 350.64 209.672C350.64 207.08 349.176 205.12 346.776 205.12C345.696 205.12 344.84 205.496 344.224 206.144V202.48H342.792V214H344.064V213.024C344.696 213.784 345.6 214.24 346.768 214.24ZM344.064 209.672C344.064 207.76 344.864 206.424 346.552 206.424C348.312 206.424 349.128 207.848 349.128 209.672C349.128 211.512 348.296 212.936 346.592 212.936C344.848 212.936 344.064 211.568 344.064 209.672ZM356.361 214.24C358.777 214.24 360.233 212.264 360.233 209.672C360.233 207.08 358.769 205.12 356.369 205.12C355.193 205.12 354.289 205.568 353.657 206.328V205.36H352.385V217.84H353.817V213.2C354.433 213.856 355.289 214.24 356.361 214.24ZM353.657 209.672C353.657 207.76 354.457 206.424 356.145 206.424C357.905 206.424 358.721 207.848 358.721 209.672C358.721 211.512 357.889 212.936 356.185 212.936C354.441 212.936 353.657 211.568 353.657 209.672Z" fill="#110529"/>
    <path d="M546 208H365" stroke="#110529" stroke-width="2"/>
    <path d="M556 208L556.707 207.293L557.414 208L556.707 208.707L556 208ZM548.707 216.707L548 217.414L546.586 216L547.293 215.293L548.707 216.707ZM547.293 200.707L546.586 200L548 198.586L548.707 199.293L547.293 200.707ZM546 207L556 207L556 209L546 209L546 207ZM556.707 208.707L548.707 216.707L547.293 215.293L555.293 207.293L556.707 208.707ZM555.293 208.707L547.293 200.707L548.707 199.293L556.707 207.293L555.293 208.707Z" fill="#110529"/>
    <path d="M103.12 374H104.544V369.744H107.912L109.976 374H111.608L109.384 369.432C110.688 368.888 111.368 367.632 111.368 366.112C111.368 364.28 110.384 362.832 108.52 362.544C108.224 362.496 107.896 362.48 107.672 362.48H103.12V374ZM104.544 368.392V363.832H107.624C107.824 363.832 108.104 363.848 108.344 363.904C109.448 364.152 109.912 365.152 109.912 366.112C109.912 367.072 109.448 368.072 108.344 368.32C108.104 368.376 107.824 368.392 107.624 368.392H104.544ZM113.05 373.992H120.706V372.632H115.242L118.954 369.296C120.138 368.248 120.706 367.488 120.706 365.976C120.706 363.856 119.09 362.24 116.954 362.24C114.738 362.24 113.106 363.784 113.106 365.952H114.562C114.546 364.696 115.554 363.6 116.93 363.6C118.258 363.6 119.25 364.632 119.25 365.96C119.25 366.688 119.018 367.352 118.17 368.112L113.058 372.712L113.05 373.992Z" fill="#110529"/>
    <rect x="96" y="356" width="32" height="24" rx="1" stroke="#110529" stroke-width="2"/>
    <path d="M309 368H128" stroke="#110529" stroke-width="2"/>
    <rect width="56" height="20" transform="translate(309 358)" fill="white"/>
    <path d="M313.933 373.992H321.589V372.632H316.125L319.837 369.296C321.021 368.248 321.589 367.488 321.589 365.976C321.589 363.856 319.973 362.24 317.837 362.24C315.621 362.24 313.989 363.784 313.989 365.952H315.445C315.429 364.696 316.437 363.6 317.813 363.6C319.141 363.6 320.133 364.632 320.133 365.96C320.133 366.688 319.901 367.352 319.053 368.112L313.941 372.712L313.933 373.992ZM326.911 374.24C329.055 374.24 330.871 372.504 330.871 370.376C330.871 368.232 329.247 366.584 327.111 366.584C326.335 366.584 325.559 366.848 324.959 367.328L325.167 363.832H330.071V362.48H323.887L323.535 368.504L324.799 368.984C325.215 368.384 325.935 367.896 326.951 367.896C328.295 367.896 329.439 368.984 329.439 370.376C329.439 371.728 328.351 372.856 326.951 372.856C325.879 372.856 324.839 372.144 324.551 371.008L323.183 371.376C323.647 373.056 325.127 374.24 326.911 374.24ZM336.672 374.24C338.912 374.24 340.56 372.592 340.56 370.352V366.128C340.56 363.888 338.912 362.24 336.672 362.24C334.432 362.24 332.784 363.888 332.784 366.128V370.352C332.784 372.592 334.432 374.24 336.672 374.24ZM334.232 370.432V366.04C334.232 364.688 335.32 363.6 336.672 363.6C338.024 363.6 339.112 364.688 339.112 366.04V370.432C339.112 371.784 338.024 372.872 336.672 372.872C335.32 372.872 334.232 371.784 334.232 370.432ZM346.768 374.24C349.184 374.24 350.64 372.264 350.64 369.672C350.64 367.08 349.176 365.12 346.776 365.12C345.696 365.12 344.84 365.496 344.224 366.144V362.48H342.792V374H344.064V373.024C344.696 373.784 345.6 374.24 346.768 374.24ZM344.064 369.672C344.064 367.76 344.864 366.424 346.552 366.424C348.312 366.424 349.128 367.848 349.128 369.672C349.128 371.512 348.296 372.936 346.592 372.936C344.848 372.936 344.064 371.568 344.064 369.672ZM356.361 374.24C358.777 374.24 360.233 372.264 360.233 369.672C360.233 367.08 358.769 365.12 356.369 365.12C355.193 365.12 354.289 365.568 353.657 366.328V365.36H352.385V377.84H353.817V373.2C354.433 373.856 355.289 374.24 356.361 374.24ZM353.657 369.672C353.657 367.76 354.457 366.424 356.145 366.424C357.905 366.424 358.721 367.848 358.721 369.672C358.721 371.512 357.889 372.936 356.185 372.936C354.441 372.936 353.657 371.568 353.657 369.672Z" fill="#110529"/>
    <path d="M546 368H365" stroke="#110529" stroke-width="2"/>
    <path d="M556 368L556.707 367.293L557.414 368L556.707 368.707L556 368ZM548.707 376.707L548 377.414L546.586 376L547.293 375.293L548.707 376.707ZM547.293 360.707L546.586 360L548 358.586L548.707 359.293L547.293 360.707ZM546 367L556 367L556 369L546 369L546 367ZM556.707 368.707L548.707 376.707L547.293 375.293L555.293 367.293L556.707 368.707ZM555.293 368.707L547.293 360.707L548.707 359.293L556.707 367.293L555.293 368.707Z" fill="#110529"/>
    <defs>
        <filter id="filter0_i_5907_37201" x="94.7373" y="107" width="18.2627" height="54" filterUnits="userSpaceOnUse" color-interpolation-filters="sRGB">
            <feFlood flood-opacity="0" result="BackgroundImageFix"/>
            <feBlend mode="normal" in="SourceGraphic" in2="BackgroundImageFix" result="shape"/>
            <feColorMatrix in="SourceAlpha" type="matrix" values="0 0 0 0 0 0 0 0 0 0 0 0 0 0 0 0 0 0 127 0" result="hardAlpha"/>
            <feOffset dx="-8" dy="-4"/>
            <feComposite in2="hardAlpha" operator="arithmetic" k2="-1" k3="1"/>
            <feColorMatrix type="matrix" values="0 0 0 0 0.0666667 0 0 0 0 0.0196078 0 0 0 0 0.160784 0 0 0 0.16 0"/>
            <feBlend mode="normal" in2="shape" result="effect1_innerShadow_5907_37201"/>
        </filter>
        <filter id="filter1_i_5907_37201" x="111" y="107" width="262" height="54" filterUnits="userSpaceOnUse" color-interpolation-filters="sRGB">
            <feFlood flood-opacity="0" result="BackgroundImageFix"/>
            <feBlend mode="normal" in="SourceGraphic" in2="BackgroundImageFix" result="shape"/>
            <feColorMatrix in="SourceAlpha" type="matrix" values="0 0 0 0 0 0 0 0 0 0 0 0 0 0 0 0 0 0 127 0" result="hardAlpha"/>
            <feOffset dx="-8" dy="-4"/>
            <feComposite in2="hardAlpha" operator="arithmetic" k2="-1" k3="1"/>
            <feColorMatrix type="matrix" values="0 0 0 0 0.0666667 0 0 0 0 0.0196078 0 0 0 0 0.160784 0 0 0 0.16 0"/>
            <feBlend mode="normal" in2="shape" result="effect1_innerShadow_5907_37201"/>
        </filter>
        <filter id="filter2_i_5907_37201" x="371" y="107" width="32" height="54" filterUnits="userSpaceOnUse" color-interpolation-filters="sRGB">
            <feFlood flood-opacity="0" result="BackgroundImageFix"/>
            <feBlend mode="normal" in="SourceGraphic" in2="BackgroundImageFix" result="shape"/>
            <feColorMatrix in="SourceAlpha" type="matrix" values="0 0 0 0 0 0 0 0 0 0 0 0 0 0 0 0 0 0 127 0" result="hardAlpha"/>
            <feOffset dx="-8" dy="-4"/>
            <feComposite in2="hardAlpha" operator="arithmetic" k2="-1" k3="1"/>
            <feColorMatrix type="matrix" values="0 0 0 0 0.0666667 0 0 0 0 0.0196078 0 0 0 0 0.160784 0 0 0 0.16 0"/>
            <feBlend mode="normal" in2="shape" result="effect1_innerShadow_5907_37201"/>
        </filter>
        <filter id="filter3_i_5907_37201" x="437" y="107" width="32" height="54" filterUnits="userSpaceOnUse" color-interpolation-filters="sRGB">
            <feFlood flood-opacity="0" result="BackgroundImageFix"/>
            <feBlend mode="normal" in="SourceGraphic" in2="BackgroundImageFix" result="shape"/>
            <feColorMatrix in="SourceAlpha" type="matrix" values="0 0 0 0 0 0 0 0 0 0 0 0 0 0 0 0 0 0 127 0" result="hardAlpha"/>
            <feOffset dx="-8" dy="-4"/>
            <feComposite in2="hardAlpha" operator="arithmetic" k2="-1" k3="1"/>
            <feColorMatrix type="matrix" values="0 0 0 0 0.0666667 0 0 0 0 0.0196078 0 0 0 0 0.160784 0 0 0 0.16 0"/>
            <feBlend mode="normal" in2="shape" result="effect1_innerShadow_5907_37201"/>
        </filter>
        <filter id="filter4_i_5907_37201" x="401" y="107" width="38" height="54" filterUnits="userSpaceOnUse" color-interpolation-filters="sRGB">
            <feFlood flood-opacity="0" result="BackgroundImageFix"/>
            <feBlend mode="normal" in="SourceGraphic" in2="BackgroundImageFix" result="shape"/>
            <feColorMatrix in="SourceAlpha" type="matrix" values="0 0 0 0 0 0 0 0 0 0 0 0 0 0 0 0 0 0 127 0" result="hardAlpha"/>
            <feOffset dx="-8" dy="-4"/>
            <feComposite in2="hardAlpha" operator="arithmetic" k2="-1" k3="1"/>
            <feColorMatrix type="matrix" values="0 0 0 0 0.0666667 0 0 0 0 0.0196078 0 0 0 0 0.160784 0 0 0 0.16 0"/>
            <feBlend mode="normal" in2="shape" result="effect1_innerShadow_5907_37201"/>
        </filter>
        <filter id="filter5_i_5907_37201" x="467" y="107" width="130" height="54" filterUnits="userSpaceOnUse" color-interpolation-filters="sRGB">
            <feFlood flood-opacity="0" result="BackgroundImageFix"/>
            <feBlend mode="normal" in="SourceGraphic" in2="BackgroundImageFix" result="shape"/>
            <feColorMatrix in="SourceAlpha" type="matrix" values="0 0 0 0 0 0 0 0 0 0 0 0 0 0 0 0 0 0 127 0" result="hardAlpha"/>
            <feOffset dx="-8" dy="-4"/>
            <feComposite in2="hardAlpha" operator="arithmetic" k2="-1" k3="1"/>
            <feColorMatrix type="matrix" values="0 0 0 0 0.0666667 0 0 0 0 0.0196078 0 0 0 0 0.160784 0 0 0 0.16 0"/>
            <feBlend mode="normal" in2="shape" result="effect1_innerShadow_5907_37201"/>
        </filter>
        <filter id="filter6_i_5907_37201" x="595" y="107" width="98" height="54" filterUnits="userSpaceOnUse" color-interpolation-filters="sRGB">
            <feFlood flood-opacity="0" result="BackgroundImageFix"/>
            <feBlend mode="normal" in="SourceGraphic" in2="BackgroundImageFix" result="shape"/>
            <feColorMatrix in="SourceAlpha" type="matrix" values="0 0 0 0 0 0 0 0 0 0 0 0 0 0 0 0 0 0 127 0" result="hardAlpha"/>
            <feOffset dx="-8" dy="-4"/>
            <feComposite in2="hardAlpha" operator="arithmetic" k2="-1" k3="1"/>
            <feColorMatrix type="matrix" values="0 0 0 0 0.0666667 0 0 0 0 0.0196078 0 0 0 0 0.160784 0 0 0 0.16 0"/>
            <feBlend mode="normal" in2="shape" result="effect1_innerShadow_5907_37201"/>
        </filter>
        <filter id="filter7_i_5907_37201" x="691" y="107" width="26" height="54" filterUnits="userSpaceOnUse" color-interpolation-filters="sRGB">
            <feFlood flood-opacity="0" result="BackgroundImageFix"/>
            <feBlend mode="normal" in="SourceGraphic" in2="BackgroundImageFix" result="shape"/>
            <feColorMatrix in="SourceAlpha" type="matrix" values="0 0 0 0 0 0 0 0 0 0 0 0 0 0 0 0 0 0 127 0" result="hardAlpha"/>
            <feOffset dx="-8" dy="-4"/>
            <feComposite in2="hardAlpha" operator="arithmetic" k2="-1" k3="1"/>
            <feColorMatrix type="matrix" values="0 0 0 0 0.0666667 0 0 0 0 0.0196078 0 0 0 0 0.160784 0 0 0 0.16 0"/>
            <feBlend mode="normal" in2="shape" result="effect1_innerShadow_5907_37201"/>
        </filter>
        <filter id="filter8_i_5907_37201" x="715" y="107" width="66" height="54" filterUnits="userSpaceOnUse" color-interpolation-filters="sRGB">
            <feFlood flood-opacity="0" result="BackgroundImageFix"/>
            <feBlend mode="normal" in="SourceGraphic" in2="BackgroundImageFix" result="shape"/>
            <feColorMatrix in="SourceAlpha" type="matrix" values="0 0 0 0 0 0 0 0 0 0 0 0 0 0 0 0 0 0 127 0" result="hardAlpha"/>
            <feOffset dx="-8" dy="-4"/>
            <feComposite in2="hardAlpha" operator="arithmetic" k2="-1" k3="1"/>
            <feColorMatrix type="matrix" values="0 0 0 0 0.0666667 0 0 0 0 0.0196078 0 0 0 0 0.160784 0 0 0 0.16 0"/>
            <feBlend mode="normal" in2="shape" result="effect1_innerShadow_5907_37201"/>
        </filter>
        <filter id="filter9_i_5907_37201" x="779" y="107" width="66" height="54" filterUnits="userSpaceOnUse" color-interpolation-filters="sRGB">
            <feFlood flood-opacity="0" result="BackgroundImageFix"/>
            <feBlend mode="normal" in="SourceGraphic" in2="BackgroundImageFix" result="shape"/>
            <feColorMatrix in="SourceAlpha" type="matrix" values="0 0 0 0 0 0 0 0 0 0 0 0 0 0 0 0 0 0 127 0" result="hardAlpha"/>
            <feOffset dx="-8" dy="-4"/>
            <feComposite in2="hardAlpha" operator="arithmetic" k2="-1" k3="1"/>
            <feColorMatrix type="matrix" values="0 0 0 0 0.0666667 0 0 0 0 0.0196078 0 0 0 0 0.160784 0 0 0 0.16 0"/>
            <feBlend mode="normal" in2="shape" result="effect1_innerShadow_5907_37201"/>
        </filter>
        <filter id="filter10_i_5907_37201" x="843" y="107" width="32" height="54" filterUnits="userSpaceOnUse" color-interpolation-filters="sRGB">
            <feFlood flood-opacity="0" result="BackgroundImageFix"/>
            <feBlend mode="normal" in="SourceGraphic" in2="BackgroundImageFix" result="shape"/>
            <feColorMatrix in="SourceAlpha" type="matrix" values="0 0 0 0 0 0 0 0 0 0 0 0 0 0 0 0 0 0 127 0" result="hardAlpha"/>
            <feOffset dx="-8" dy="-4"/>
            <feComposite in2="hardAlpha" operator="arithmetic" k2="-1" k3="1"/>
            <feColorMatrix type="matrix" values="0 0 0 0 0.0666667 0 0 0 0 0.0196078 0 0 0 0 0.160784 0 0 0 0.16 0"/>
            <feBlend mode="normal" in2="shape" result="effect1_innerShadow_5907_37201"/>
        </filter>
        <filter id="filter11_i_5907_37201" x="94.7373" y="267" width="18.2627" height="54" filterUnits="userSpaceOnUse" color-interpolation-filters="sRGB">
            <feFlood flood-opacity="0" result="BackgroundImageFix"/>
            <feBlend mode="normal" in="SourceGraphic" in2="BackgroundImageFix" result="shape"/>
            <feColorMatrix in="SourceAlpha" type="matrix" values="0 0 0 0 0 0 0 0 0 0 0 0 0 0 0 0 0 0 127 0" result="hardAlpha"/>
            <feOffset dx="-8" dy="-4"/>
            <feComposite in2="hardAlpha" operator="arithmetic" k2="-1" k3="1"/>
            <feColorMatrix type="matrix" values="0 0 0 0 0.0666667 0 0 0 0 0.0196078 0 0 0 0 0.160784 0 0 0 0.16 0"/>
            <feBlend mode="normal" in2="shape" result="effect1_innerShadow_5907_37201"/>
        </filter>
        <filter id="filter12_i_5907_37201" x="111" y="267" width="262" height="54" filterUnits="userSpaceOnUse" color-interpolation-filters="sRGB">
            <feFlood flood-opacity="0" result="BackgroundImageFix"/>
            <feBlend mode="normal" in="SourceGraphic" in2="BackgroundImageFix" result="shape"/>
            <feColorMatrix in="SourceAlpha" type="matrix" values="0 0 0 0 0 0 0 0 0 0 0 0 0 0 0 0 0 0 127 0" result="hardAlpha"/>
            <feOffset dx="-8" dy="-4"/>
            <feComposite in2="hardAlpha" operator="arithmetic" k2="-1" k3="1"/>
            <feColorMatrix type="matrix" values="0 0 0 0 0.0666667 0 0 0 0 0.0196078 0 0 0 0 0.160784 0 0 0 0.16 0"/>
            <feBlend mode="normal" in2="shape" result="effect1_innerShadow_5907_37201"/>
        </filter>
        <filter id="filter13_i_5907_37201" x="371" y="267" width="32" height="54" filterUnits="userSpaceOnUse" color-interpolation-filters="sRGB">
            <feFlood flood-opacity="0" result="BackgroundImageFix"/>
            <feBlend mode="normal" in="SourceGraphic" in2="BackgroundImageFix" result="shape"/>
            <feColorMatrix in="SourceAlpha" type="matrix" values="0 0 0 0 0 0 0 0 0 0 0 0 0 0 0 0 0 0 127 0" result="hardAlpha"/>
            <feOffset dx="-8" dy="-4"/>
            <feComposite in2="hardAlpha" operator="arithmetic" k2="-1" k3="1"/>
            <feColorMatrix type="matrix" values="0 0 0 0 0.0666667 0 0 0 0 0.0196078 0 0 0 0 0.160784 0 0 0 0.16 0"/>
            <feBlend mode="normal" in2="shape" result="effect1_innerShadow_5907_37201"/>
        </filter>
        <filter id="filter14_i_5907_37201" x="401" y="267" width="130" height="54" filterUnits="userSpaceOnUse" color-interpolation-filters="sRGB">
            <feFlood flood-opacity="0" result="BackgroundImageFix"/>
            <feBlend mode="normal" in="SourceGraphic" in2="BackgroundImageFix" result="shape"/>
            <feColorMatrix in="SourceAlpha" type="matrix" values="0 0 0 0 0 0 0 0 0 0 0 0 0 0 0 0 0 0 127 0" result="hardAlpha"/>
            <feOffset dx="-8" dy="-4"/>
            <feComposite in2="hardAlpha" operator="arithmetic" k2="-1" k3="1"/>
            <feColorMatrix type="matrix" values="0 0 0 0 0.0666667 0 0 0 0 0.0196078 0 0 0 0 0.160784 0 0 0 0.16 0"/>
            <feBlend mode="normal" in2="shape" result="effect1_innerShadow_5907_37201"/>
        </filter>
        <filter id="filter15_i_5907_37201" x="529" y="267" width="98" height="54" filterUnits="userSpaceOnUse" color-interpolation-filters="sRGB">
            <feFlood flood-opacity="0" result="BackgroundImageFix"/>
            <feBlend mode="normal" in="SourceGraphic" in2="BackgroundImageFix" result="shape"/>
            <feColorMatrix in="SourceAlpha" type="matrix" values="0 0 0 0 0 0 0 0 0 0 0 0 0 0 0 0 0 0 127 0" result="hardAlpha"/>
            <feOffset dx="-8" dy="-4"/>
            <feComposite in2="hardAlpha" operator="arithmetic" k2="-1" k3="1"/>
            <feColorMatrix type="matrix" values="0 0 0 0 0.0666667 0 0 0 0 0.0196078 0 0 0 0 0.160784 0 0 0 0.16 0"/>
            <feBlend mode="normal" in2="shape" result="effect1_innerShadow_5907_37201"/>
        </filter>
        <filter id="filter16_i_5907_37201" x="625" y="267" width="26" height="54" filterUnits="userSpaceOnUse" color-interpolation-filters="sRGB">
            <feFlood flood-opacity="0" result="BackgroundImageFix"/>
            <feBlend mode="normal" in="SourceGraphic" in2="BackgroundImageFix" result="shape"/>
            <feColorMatrix in="SourceAlpha" type="matrix" values="0 0 0 0 0 0 0 0 0 0 0 0 0 0 0 0 0 0 127 0" result="hardAlpha"/>
            <feOffset dx="-8" dy="-4"/>
            <feComposite in2="hardAlpha" operator="arithmetic" k2="-1" k3="1"/>
            <feColorMatrix type="matrix" values="0 0 0 0 0.0666667 0 0 0 0 0.0196078 0 0 0 0 0.160784 0 0 0 0.16 0"/>
            <feBlend mode="normal" in2="shape" result="effect1_innerShadow_5907_37201"/>
        </filter>
        <filter id="filter17_i_5907_37201" x="649" y="267" width="66" height="54" filterUnits="userSpaceOnUse" color-interpolation-filters="sRGB">
            <feFlood flood-opacity="0" result="BackgroundImageFix"/>
            <feBlend mode="normal" in="SourceGraphic" in2="BackgroundImageFix" result="shape"/>
            <feColorMatrix in="SourceAlpha" type="matrix" values="0 0 0 0 0 0 0 0 0 0 0 0 0 0 0 0 0 0 127 0" result="hardAlpha"/>
            <feOffset dx="-8" dy="-4"/>
            <feComposite in2="hardAlpha" operator="arithmetic" k2="-1" k3="1"/>
            <feColorMatrix type="matrix" values="0 0 0 0 0.0666667 0 0 0 0 0.0196078 0 0 0 0 0.160784 0 0 0 0.16 0"/>
            <feBlend mode="normal" in2="shape" result="effect1_innerShadow_5907_37201"/>
        </filter>
        <filter id="filter18_i_5907_37201" x="713" y="267" width="66" height="54" filterUnits="userSpaceOnUse" color-interpolation-filters="sRGB">
            <feFlood flood-opacity="0" result="BackgroundImageFix"/>
            <feBlend mode="normal" in="SourceGraphic" in2="BackgroundImageFix" result="shape"/>
            <feColorMatrix in="SourceAlpha" type="matrix" values="0 0 0 0 0 0 0 0 0 0 0 0 0 0 0 0 0 0 127 0" result="hardAlpha"/>
            <feOffset dx="-8" dy="-4"/>
            <feComposite in2="hardAlpha" operator="arithmetic" k2="-1" k3="1"/>
            <feColorMatrix type="matrix" values="0 0 0 0 0.0666667 0 0 0 0 0.0196078 0 0 0 0 0.160784 0 0 0 0.16 0"/>
            <feBlend mode="normal" in2="shape" result="effect1_innerShadow_5907_37201"/>
        </filter>
        <filter id="filter19_i_5907_37201" x="777" y="267" width="32" height="54" filterUnits="userSpaceOnUse" color-interpolation-filters="sRGB">
            <feFlood flood-opacity="0" result="BackgroundImageFix"/>
            <feBlend mode="normal" in="SourceGraphic" in2="BackgroundImageFix" result="shape"/>
            <feColorMatrix in="SourceAlpha" type="matrix" values="0 0 0 0 0 0 0 0 0 0 0 0 0 0 0 0 0 0 127 0" result="hardAlpha"/>
            <feOffset dx="-8" dy="-4"/>
            <feComposite in2="hardAlpha" operator="arithmetic" k2="-1" k3="1"/>
            <feColorMatrix type="matrix" values="0 0 0 0 0.0666667 0 0 0 0 0.0196078 0 0 0 0 0.160784 0 0 0 0.16 0"/>
            <feBlend mode="normal" in2="shape" result="effect1_innerShadow_5907_37201"/>
        </filter>
    </defs>
</svg>
