<svg width="960" height="402" viewBox="0 0 960 402" fill="none" xmlns="http://www.w3.org/2000/svg">
<rect width="960" height="402" fill="white"/>
<path d="M827 140V20" stroke="#D3D7E0" stroke-width="2" stroke-linecap="square" stroke-dasharray="6 6"/>
<path d="M912 140V20" stroke="#D3D7E0" stroke-width="2" stroke-linecap="square" stroke-dasharray="6 6"/>
<path d="M768 151V17" stroke="#D3D7E0" stroke-width="2" stroke-linecap="square" stroke-dasharray="6 6"/>
<path d="M716.593 30V19.92H722.564V21.383H718.056V24.225H721.724V25.695H718.056V30H716.593ZM723.826 30V19.92H727.9C727.998 19.92 728.119 19.9247 728.264 19.934C728.408 19.9387 728.546 19.9527 728.677 19.976C729.237 20.0647 729.703 20.256 730.077 20.55C730.455 20.844 730.737 21.215 730.924 21.663C731.11 22.111 731.204 22.6057 731.204 23.147C731.204 23.9497 730.998 24.6427 730.588 25.226C730.177 25.8047 729.561 26.1663 728.74 26.311L728.145 26.381H725.289V30H723.826ZM729.72 30L727.732 25.898L729.209 25.52L731.393 30H729.72ZM725.289 24.995H727.844C727.937 24.995 728.04 24.9903 728.152 24.981C728.268 24.9717 728.378 24.9553 728.481 24.932C728.779 24.862 729.02 24.7337 729.202 24.547C729.384 24.3557 729.514 24.1363 729.594 23.889C729.673 23.6417 729.713 23.3943 729.713 23.147C729.713 22.8997 729.673 22.6547 729.594 22.412C729.514 22.1647 729.384 21.9477 729.202 21.761C729.02 21.5697 728.779 21.439 728.481 21.369C728.378 21.341 728.268 21.3223 728.152 21.313C728.04 21.3037 727.937 21.299 727.844 21.299H725.289V24.995ZM737.201 30V28.243H732.651V26.857L735.927 19.92H737.6L734.324 26.857H737.201V24.127H738.685V26.857H739.686V28.243H738.685V30H737.201Z" fill="#D3D7E0"/>
<path d="M686 151V17" stroke="#D3D7E0" stroke-width="2" stroke-linecap="square" stroke-dasharray="6 6"/>
<path d="M609.682 30.21C608.674 30.21 607.815 29.9907 607.106 29.552C606.397 29.1087 605.853 28.4927 605.475 27.704C605.102 26.9153 604.915 26.0007 604.915 24.96C604.915 23.9193 605.102 23.0047 605.475 22.216C605.853 21.4273 606.397 20.8137 607.106 20.375C607.815 19.9317 608.674 19.71 609.682 19.71C610.844 19.71 611.805 20.004 612.566 20.592C613.331 21.18 613.863 21.971 614.162 22.965L612.678 23.364C612.482 22.6593 612.132 22.1063 611.628 21.705C611.129 21.3037 610.48 21.103 609.682 21.103C608.968 21.103 608.373 21.264 607.897 21.586C607.421 21.908 607.062 22.3583 606.819 22.937C606.581 23.5157 606.462 24.19 606.462 24.96C606.457 25.73 606.574 26.4043 606.812 26.983C607.055 27.5617 607.414 28.012 607.89 28.334C608.371 28.656 608.968 28.817 609.682 28.817C610.48 28.817 611.129 28.6163 611.628 28.215C612.132 27.809 612.482 27.256 612.678 26.556L614.162 26.955C613.863 27.949 613.331 28.74 612.566 29.328C611.805 29.916 610.844 30.21 609.682 30.21ZM615.702 30V19.92H618.859C618.952 19.92 619.125 19.9223 619.377 19.927C619.633 19.9317 619.878 19.9503 620.112 19.983C620.9 20.081 621.563 20.3633 622.1 20.83C622.641 21.2967 623.049 21.8893 623.325 22.608C623.6 23.322 623.738 24.106 623.738 24.96C623.738 25.8187 623.6 26.6073 623.325 27.326C623.049 28.04 622.641 28.6303 622.1 29.097C621.563 29.559 620.9 29.839 620.112 29.937C619.878 29.9697 619.633 29.9883 619.377 29.993C619.125 29.9977 618.952 30 618.859 30H615.702ZM617.2 28.607H618.859C619.017 28.607 619.206 28.6023 619.426 28.593C619.645 28.5837 619.839 28.565 620.007 28.537C620.52 28.439 620.935 28.2173 621.253 27.872C621.575 27.522 621.81 27.0927 621.96 26.584C622.109 26.0753 622.184 25.534 622.184 24.96C622.184 24.3673 622.107 23.819 621.953 23.315C621.799 22.8063 621.561 22.3817 621.239 22.041C620.921 21.6957 620.511 21.4763 620.007 21.383C619.839 21.3503 619.643 21.3317 619.419 21.327C619.199 21.3177 619.013 21.313 618.859 21.313H617.2V28.607ZM625.368 30V19.92H629.442C629.54 19.92 629.661 19.9247 629.806 19.934C629.95 19.9387 630.088 19.9527 630.219 19.976C630.779 20.0647 631.245 20.256 631.619 20.55C631.997 20.844 632.279 21.215 632.466 21.663C632.652 22.111 632.746 22.6057 632.746 23.147C632.746 23.9497 632.54 24.6427 632.13 25.226C631.719 25.8047 631.103 26.1663 630.282 26.311L629.687 26.381H626.831V30H625.368ZM631.262 30L629.274 25.898L630.751 25.52L632.935 30H631.262ZM626.831 24.995H629.386C629.479 24.995 629.582 24.9903 629.694 24.981C629.81 24.9717 629.92 24.9553 630.023 24.932C630.321 24.862 630.562 24.7337 630.744 24.547C630.926 24.3557 631.056 24.1363 631.136 23.889C631.215 23.6417 631.255 23.3943 631.255 23.147C631.255 22.8997 631.215 22.6547 631.136 22.412C631.056 22.1647 630.926 21.9477 630.744 21.761C630.562 21.5697 630.321 21.439 630.023 21.369C629.92 21.341 629.81 21.3223 629.694 21.313C629.582 21.3037 629.479 21.299 629.386 21.299H626.831V24.995ZM637.294 30.189C636.795 30.189 636.326 30.0957 635.887 29.909C635.448 29.7177 635.068 29.447 634.746 29.097C634.429 28.747 634.198 28.334 634.053 27.858L635.467 27.466C635.602 27.9 635.838 28.2337 636.174 28.467C636.51 28.6957 636.883 28.8077 637.294 28.803C637.663 28.7983 637.987 28.712 638.267 28.544C638.547 28.376 638.766 28.1497 638.925 27.865C639.084 27.5757 639.163 27.2443 639.163 26.871C639.163 26.311 638.988 25.849 638.638 25.485C638.293 25.121 637.84 24.939 637.28 24.939C637.121 24.939 636.958 24.9623 636.79 25.009C636.627 25.0557 636.473 25.1163 636.328 25.191L635.642 24.036L639.198 20.893L639.352 21.313H634.452V19.92H640.514V21.313L637.56 24.155L637.546 23.679C638.181 23.679 638.731 23.8213 639.198 24.106C639.665 24.386 640.024 24.7687 640.276 25.254C640.533 25.7347 640.661 26.2737 640.661 26.871C640.661 27.515 640.509 28.0867 640.206 28.586C639.907 29.0853 639.504 29.4773 638.995 29.762C638.491 30.0467 637.924 30.189 637.294 30.189Z" fill="#D3D7E0"/>
<path d="M205 151V17" stroke="#D3D7E0" stroke-width="2" stroke-linecap="square" stroke-dasharray="6 6"/>
<path d="M221.268 30.21C220.75 30.21 220.267 30.105 219.819 29.895C219.375 29.6803 218.995 29.3863 218.678 29.013C218.36 28.635 218.134 28.201 217.999 27.711L219.406 27.333C219.485 27.6317 219.62 27.8907 219.812 28.11C220.008 28.3293 220.236 28.4997 220.498 28.621C220.759 28.7377 221.03 28.796 221.31 28.796C221.678 28.796 222.012 28.7073 222.311 28.53C222.614 28.3527 222.852 28.1147 223.025 27.816C223.202 27.5173 223.291 27.1883 223.291 26.829C223.291 26.4603 223.2 26.1267 223.018 25.828C222.84 25.5293 222.6 25.2937 222.297 25.121C221.998 24.9437 221.669 24.855 221.31 24.855C220.899 24.855 220.551 24.9367 220.267 25.1C219.982 25.2633 219.76 25.4523 219.602 25.667L218.328 25.219L218.636 19.92H224.075V21.299H219.385L219.98 20.746L219.735 24.715L219.448 24.344C219.714 24.078 220.031 23.875 220.4 23.735C220.768 23.595 221.135 23.525 221.499 23.525C222.124 23.525 222.682 23.6697 223.172 23.959C223.666 24.2483 224.056 24.6427 224.341 25.142C224.625 25.6367 224.768 26.199 224.768 26.829C224.768 27.4543 224.607 28.0237 224.285 28.537C223.963 29.0457 223.536 29.4517 223.004 29.755C222.472 30.0583 221.893 30.21 221.268 30.21ZM226.581 23.28L226.672 22.629C226.873 22.643 227.029 22.6057 227.141 22.517C227.253 22.4283 227.328 22.3047 227.365 22.146C227.402 21.9873 227.409 21.8077 227.386 21.607H226.581V19.92H228.128V21.747C228.128 22.2977 227.995 22.713 227.729 22.993C227.468 23.273 227.085 23.3687 226.581 23.28ZM234.15 30.21C233.362 30.21 232.664 30.049 232.057 29.727C231.455 29.4003 230.984 28.9453 230.643 28.362C230.303 27.774 230.132 27.0833 230.132 26.29V19.927L231.616 19.92V26.213C231.616 26.6423 231.689 27.0203 231.833 27.347C231.978 27.6737 232.172 27.9467 232.414 28.166C232.657 28.3853 232.928 28.551 233.226 28.663C233.53 28.775 233.838 28.831 234.15 28.831C234.468 28.831 234.776 28.775 235.074 28.663C235.378 28.5463 235.651 28.3783 235.893 28.159C236.136 27.9397 236.327 27.6667 236.467 27.34C236.612 27.0133 236.684 26.6377 236.684 26.213V19.92H238.168V26.29C238.168 27.0787 237.998 27.767 237.657 28.355C237.317 28.943 236.843 29.4003 236.236 29.727C235.634 30.049 234.939 30.21 234.15 30.21ZM242.639 30V21.299H239.286V19.92H247.455V21.299H244.102V30H242.639ZM248.576 30V19.92H252.65C252.748 19.92 252.869 19.9247 253.014 19.934C253.158 19.9387 253.296 19.9527 253.427 19.976C253.987 20.0647 254.453 20.256 254.827 20.55C255.205 20.844 255.487 21.215 255.674 21.663C255.86 22.111 255.954 22.6057 255.954 23.147C255.954 23.9497 255.748 24.6427 255.338 25.226C254.927 25.8047 254.311 26.1663 253.49 26.311L252.895 26.381H250.039V30H248.576ZM254.47 30L252.482 25.898L253.959 25.52L256.143 30H254.47ZM250.039 24.995H252.594C252.687 24.995 252.79 24.9903 252.902 24.981C253.018 24.9717 253.128 24.9553 253.231 24.932C253.529 24.862 253.77 24.7337 253.952 24.547C254.134 24.3557 254.264 24.1363 254.344 23.889C254.423 23.6417 254.463 23.3943 254.463 23.147C254.463 22.8997 254.423 22.6547 254.344 22.412C254.264 22.1647 254.134 21.9477 253.952 21.761C253.77 21.5697 253.529 21.439 253.231 21.369C253.128 21.341 253.018 21.3223 252.902 21.313C252.79 21.3037 252.687 21.299 252.594 21.299H250.039V24.995Z" fill="#D3D7E0"/>
<path d="M269 151V17" stroke="#D3D7E0" stroke-width="2" stroke-linecap="square" stroke-dasharray="6 6"/>
<path d="M280.442 30V19.92H281.905V28.621H286.469V30H280.442Z" fill="#D3D7E0"/>
<path d="M297 151V17" stroke="#D3D7E0" stroke-width="2" stroke-linecap="square" stroke-dasharray="6 6"/>
<path d="M312.858 30H314.321V25.695H317.989V24.225H314.321V21.383H318.829V19.92H312.858V30ZM320.09 30H321.553V26.381H324.227L325.984 30H327.657L325.753 26.094C326.894 25.597 327.468 24.491 327.468 23.147C327.468 21.516 326.628 20.235 324.941 19.976C324.675 19.934 324.36 19.92 324.164 19.92H320.09V30ZM321.553 24.995V21.299H324.108C324.29 21.299 324.535 21.313 324.745 21.369C325.641 21.579 325.977 22.405 325.977 23.147C325.977 23.889 325.641 24.715 324.745 24.932C324.535 24.981 324.29 24.995 324.108 24.995H321.553ZM330.953 30H332.444V19.92H330.953L329.056 21.054V22.685L330.953 21.53V30Z" fill="#D3D7E0"/>
<path d="M349 151V17" stroke="#D3D7E0" stroke-width="2" stroke-linecap="square" stroke-dasharray="6 6"/>
<path d="M362.735 30.21C365.059 30.21 366.62 28.943 367.215 26.955L365.731 26.556C365.332 27.963 364.331 28.817 362.735 28.817C360.593 28.817 359.501 27.27 359.515 24.96C359.522 22.65 360.593 21.103 362.735 21.103C364.331 21.103 365.332 21.957 365.731 23.364L367.215 22.965C366.62 20.977 365.059 19.71 362.735 19.71C359.711 19.71 357.968 21.845 357.968 24.96C357.968 28.075 359.711 30.21 362.735 30.21ZM368.754 30H371.911C372.093 30 372.695 30 373.164 29.937C375.53 29.636 376.79 27.529 376.79 24.96C376.79 22.391 375.53 20.284 373.164 19.983C372.695 19.92 372.093 19.92 371.911 19.92H368.754V30ZM370.252 28.607V21.313H371.911C372.219 21.313 372.723 21.32 373.059 21.383C374.571 21.663 375.236 23.189 375.236 24.96C375.236 26.689 374.599 28.243 373.059 28.537C372.723 28.6 372.233 28.607 371.911 28.607H370.252ZM378.42 30H379.883V26.381H382.557L384.314 30H385.987L384.083 26.094C385.224 25.597 385.798 24.491 385.798 23.147C385.798 21.516 384.958 20.235 383.271 19.976C383.005 19.934 382.69 19.92 382.494 19.92H378.42V30ZM379.883 24.995V21.299H382.438C382.62 21.299 382.865 21.313 383.075 21.369C383.971 21.579 384.307 22.405 384.307 23.147C384.307 23.889 383.971 24.715 383.075 24.932C382.865 24.981 382.62 24.995 382.438 24.995H379.883ZM389.283 30H390.774V19.92H389.283L387.386 21.054V22.685L389.283 21.53V30Z" fill="#D3D7E0"/>
<path d="M401 151V17" stroke="#D3D7E0" stroke-width="2" stroke-linecap="square" stroke-dasharray="6 6"/>
<path d="M415.703 30H417.166V25.695H420.834V24.225H417.166V21.383H421.674V19.92H415.703V30ZM422.935 30H424.398V26.381H427.072L428.829 30H430.502L428.598 26.094C429.739 25.597 430.313 24.491 430.313 23.147C430.313 21.516 429.473 20.235 427.786 19.976C427.52 19.934 427.205 19.92 427.009 19.92H422.935V30ZM424.398 24.995V21.299H426.953C427.135 21.299 427.38 21.313 427.59 21.369C428.486 21.579 428.822 22.405 428.822 23.147C428.822 23.889 428.486 24.715 427.59 24.932C427.38 24.981 427.135 24.995 426.953 24.995H424.398ZM431.761 29.993H438.579V28.6H434.022L436.941 25.996C438.033 25.037 438.579 24.407 438.579 23.028C438.579 21.117 437.144 19.71 435.24 19.71C433.231 19.71 431.796 21.047 431.796 23H433.294C433.28 21.985 434.092 21.103 435.212 21.103C436.297 21.103 437.074 21.929 437.074 23.007C437.074 23.581 436.864 24.127 436.157 24.757L431.768 28.691L431.761 29.993Z" fill="#D3D7E0"/>
<path d="M453 151V17" stroke="#D3D7E0" stroke-width="2" stroke-linecap="square" stroke-dasharray="6 6"/>
<path d="M465.58 30.21C467.904 30.21 469.465 28.943 470.06 26.955L468.576 26.556C468.177 27.963 467.176 28.817 465.58 28.817C463.438 28.817 462.346 27.27 462.36 24.96C462.367 22.65 463.438 21.103 465.58 21.103C467.176 21.103 468.177 21.957 468.576 23.364L470.06 22.965C469.465 20.977 467.904 19.71 465.58 19.71C462.556 19.71 460.813 21.845 460.813 24.96C460.813 28.075 462.556 30.21 465.58 30.21ZM471.599 30H474.756C474.938 30 475.54 30 476.009 29.937C478.375 29.636 479.635 27.529 479.635 24.96C479.635 22.391 478.375 20.284 476.009 19.983C475.54 19.92 474.938 19.92 474.756 19.92H471.599V30ZM473.097 28.607V21.313H474.756C475.064 21.313 475.568 21.32 475.904 21.383C477.416 21.663 478.081 23.189 478.081 24.96C478.081 26.689 477.444 28.243 475.904 28.537C475.568 28.6 475.078 28.607 474.756 28.607H473.097ZM481.265 30H482.728V26.381H485.402L487.159 30H488.832L486.928 26.094C488.069 25.597 488.643 24.491 488.643 23.147C488.643 21.516 487.803 20.235 486.116 19.976C485.85 19.934 485.535 19.92 485.339 19.92H481.265V30ZM482.728 24.995V21.299H485.283C485.465 21.299 485.71 21.313 485.92 21.369C486.816 21.579 487.152 22.405 487.152 23.147C487.152 23.889 486.816 24.715 485.92 24.932C485.71 24.981 485.465 24.995 485.283 24.995H482.728ZM490.091 29.993H496.909V28.6H492.352L495.271 25.996C496.363 25.037 496.909 24.407 496.909 23.028C496.909 21.117 495.474 19.71 493.57 19.71C491.561 19.71 490.126 21.047 490.126 23H491.624C491.61 21.985 492.422 21.103 493.542 21.103C494.627 21.103 495.404 21.929 495.404 23.007C495.404 23.581 495.194 24.127 494.487 24.757L490.098 28.691L490.091 29.993Z" fill="#D3D7E0"/>
<path d="M505 151V17" stroke="#D3D7E0" stroke-width="2" stroke-linecap="square" stroke-dasharray="6 6"/>
<path d="M519.805 30H521.268V25.695H524.936V24.225H521.268V21.383H525.776V19.92H519.805V30ZM527.038 30H528.501V26.381H531.175L532.932 30H534.605L532.701 26.094C533.842 25.597 534.416 24.491 534.416 23.147C534.416 21.516 533.576 20.235 531.889 19.976C531.623 19.934 531.308 19.92 531.112 19.92H527.038V30ZM528.501 24.995V21.299H531.056C531.238 21.299 531.483 21.313 531.693 21.369C532.589 21.579 532.925 22.405 532.925 23.147C532.925 23.889 532.589 24.715 531.693 24.932C531.483 24.981 531.238 24.995 531.056 24.995H528.501ZM538.964 30.189C540.847 30.189 542.331 28.796 542.331 26.871C542.331 25.233 541.323 23.924 539.692 23.707L542.184 21.313V19.92H536.122V21.313H540.392L537.312 24.036L537.998 25.191C538.285 25.037 538.628 24.939 538.95 24.939C540.07 24.939 540.833 25.751 540.833 26.871C540.833 27.984 540.07 28.789 538.964 28.803C538.138 28.81 537.403 28.341 537.137 27.466L535.723 27.858C536.15 29.293 537.466 30.189 538.964 30.189Z" fill="#D3D7E0"/>
<path d="M557 151V17" stroke="#D3D7E0" stroke-width="2" stroke-linecap="square" stroke-dasharray="6 6"/>
<rect width="44" height="20" transform="translate(90 67)" fill="white"/>
<path d="M97.2667 71L95 72.35V74L97.2667 72.6333V83H98.7667V71H97.2667ZM102.649 83H104.166L108.482 72.4167V71H101.432V72.4167H106.966L102.649 83ZM117.913 75.1833C117.179 74.25 116.029 73.75 114.796 73.75C113.729 73.75 112.713 74.15 111.979 74.85V71H110.479V83H111.813V81.95C112.529 82.8167 113.596 83.25 114.796 83.25C116.013 83.25 117.163 82.7333 117.913 81.8C118.663 80.85 118.913 79.6667 118.913 78.4833C118.913 77.3 118.629 76.1 117.913 75.1833ZM116.713 80.8833C116.229 81.5667 115.429 81.8833 114.613 81.8833C113.779 81.8833 113.013 81.5833 112.513 80.9667C112.013 80.35 111.813 79.4167 111.813 78.4833C111.813 77.5667 112.013 76.65 112.513 76.0167C112.996 75.4 113.746 75.1 114.563 75.1C115.446 75.1 116.213 75.4167 116.696 76.1C117.163 76.7167 117.329 77.5833 117.329 78.4833C117.329 79.3833 117.179 80.2667 116.713 80.8833ZM128.178 75.1833C127.445 74.25 126.295 73.75 125.061 73.75C123.911 73.75 122.811 74.2 122.078 75.0167V74H120.745V87H122.245V82.15C122.945 82.8833 123.945 83.25 125.061 83.25C126.278 83.25 127.428 82.7333 128.178 81.8C128.928 80.85 129.178 79.6667 129.178 78.4833C129.178 77.3 128.895 76.1 128.178 75.1833ZM126.978 80.8833C126.495 81.5667 125.695 81.8833 124.878 81.8833C124.045 81.8833 123.278 81.5833 122.778 80.9667C122.278 80.35 122.078 79.4167 122.078 78.4833C122.078 77.5667 122.278 76.65 122.778 76.0167C123.261 75.4 124.011 75.1 124.828 75.1C125.711 75.1 126.478 75.4167 126.961 76.1C127.428 76.7167 127.595 77.5833 127.595 78.4833C127.595 79.3833 127.445 80.2667 126.978 80.8833Z" fill="#110529"/>
<rect width="62" height="20" transform="translate(148 67)" fill="white"/>
<path d="M153.883 83H155.4L159.717 72.4167V71H152.667V72.4167H158.2L153.883 83ZM161.375 77.6833V78.9H166.375V77.6833H161.375ZM170.642 71L168.375 72.35V74L170.642 72.6333V83H172.142V71H170.642ZM179.357 83.25C178.207 83.25 177.057 82.7833 176.307 81.9167C175.574 81.0667 175.307 80.1833 175.307 79.0333V74.95C175.307 73.7833 175.574 72.9 176.341 72.0167C177.074 71.2167 178.174 70.7333 179.357 70.75C180.507 70.7333 181.624 71.1667 182.391 72.0167C183.141 72.85 183.407 73.7667 183.407 74.95V79.0333C183.407 80.1667 183.157 81.0833 182.407 81.9333C181.657 82.7667 180.557 83.25 179.357 83.25ZM179.357 72.1667C178.491 72.15 177.674 72.6333 177.224 73.3333C176.924 73.7833 176.824 74.3167 176.824 74.95V79.0333C176.824 79.6167 176.907 80.1833 177.241 80.6667C177.707 81.3667 178.491 81.8333 179.357 81.8167C180.241 81.8333 181.041 81.3667 181.491 80.6667C181.824 80.1833 181.907 79.6833 181.907 79.0333V74.95C181.907 74.3333 181.824 73.8667 181.507 73.35C181.057 72.6333 180.241 72.15 179.357 72.1667ZM193.178 75.1833C192.445 74.25 191.295 73.75 190.061 73.75C188.995 73.75 187.978 74.15 187.245 74.85V71H185.745V83H187.078V81.95C187.795 82.8167 188.861 83.25 190.061 83.25C191.278 83.25 192.428 82.7333 193.178 81.8C193.928 80.85 194.178 79.6667 194.178 78.4833C194.178 77.3 193.895 76.1 193.178 75.1833ZM191.978 80.8833C191.495 81.5667 190.695 81.8833 189.878 81.8833C189.045 81.8833 188.278 81.5833 187.778 80.9667C187.278 80.35 187.078 79.4167 187.078 78.4833C187.078 77.5667 187.278 76.65 187.778 76.0167C188.261 75.4 189.011 75.1 189.828 75.1C190.711 75.1 191.478 75.4167 191.961 76.1C192.428 76.7167 192.595 77.5833 192.595 78.4833C192.595 79.3833 192.445 80.2667 191.978 80.8833ZM203.444 75.1833C202.71 74.25 201.56 73.75 200.327 73.75C199.177 73.75 198.077 74.2 197.344 75.0167V74H196.01V87H197.51V82.15C198.21 82.8833 199.21 83.25 200.327 83.25C201.544 83.25 202.694 82.7333 203.444 81.8C204.194 80.85 204.444 79.6667 204.444 78.4833C204.444 77.3 204.16 76.1 203.444 75.1833ZM202.244 80.8833C201.76 81.5667 200.96 81.8833 200.144 81.8833C199.31 81.8833 198.544 81.5833 198.044 80.9667C197.544 80.35 197.344 79.4167 197.344 78.4833C197.344 77.5667 197.544 76.65 198.044 76.0167C198.527 75.4 199.277 75.1 200.094 75.1C200.977 75.1 201.744 75.4167 202.227 76.1C202.694 76.7167 202.86 77.5833 202.86 78.4833C202.86 79.3833 202.71 80.2667 202.244 80.8833Z" fill="#110529"/>
<g filter="url(#filter0_i_5803_36292)">
<rect x="77" y="265" width="72" height="52" rx="1" fill="#D6E0FF"/>
<path d="M102.053 299.3C105.393 299.3 107.733 297.1 107.733 293.75V284.6H105.933V293.6C105.933 296.31 103.893 297.62 102.053 297.62C100.233 297.62 98.1727 296.33 98.1727 293.6V284.6L96.3727 284.61V293.75C96.3727 297.11 98.7127 299.3 102.053 299.3ZM110.533 299H112.223V288.51L117.113 299H118.063L122.953 288.51V298.99H124.643V284.6H123.003L117.593 296.07L112.153 284.6H110.533V299ZM127.647 299H129.427V284.6H127.647V299Z" fill="#110529"/>
<rect x="77" y="265" width="72" height="52" rx="1" stroke="#110529" stroke-width="2" stroke-linecap="round"/>
</g>
<g filter="url(#filter1_i_5803_36292)">
<rect x="149" y="265" width="56" height="52" rx="1" fill="#D3D7E0"/>
<path d="M169.815 299H171.595V286.29H176.505V284.6H164.905V286.29H169.815V299ZM183.207 299.3C186.197 299.3 188.597 297.77 188.597 294.98C188.597 292.21 186.227 291.5 184.977 291.15L182.237 290.36C181.167 290.06 179.837 289.6 179.837 288.27C179.837 286.94 181.207 285.98 182.977 286C184.807 286.02 186.317 287.1 186.617 288.85L188.507 288.52C187.977 285.9 185.897 284.33 182.997 284.31C180.127 284.3 177.957 285.8 177.957 288.35C177.957 290.48 179.477 291.41 181.077 291.88L184.747 292.97C185.777 293.28 186.757 293.82 186.757 295.08C186.757 296.65 185.227 297.61 183.297 297.61C181.287 297.61 179.697 296.54 179.237 294.72L177.397 295.01C177.877 297.66 180.147 299.3 183.207 299.3Z" fill="#110529"/>
<rect x="149" y="265" width="56" height="52" rx="1" stroke="#110529" stroke-width="2" stroke-linecap="round"/>
</g>
<g filter="url(#filter2_i_5803_36292)">
<rect x="205" y="265" width="373" height="52" rx="1" fill="#99E099"/>
<path d="M390.258 299H392.738L397.558 284.6H395.708L391.478 297.11L387.288 284.6H385.438L390.258 299Z" fill="#110529"/>
<rect x="205" y="265" width="373" height="52" rx="1" stroke="#110529" stroke-width="2" stroke-linecap="round"/>
</g>
<g filter="url(#filter3_i_5803_36292)">
<rect x="578" y="265" width="30" height="52" rx="1" fill="#CBEB67"/>
</g>
<rect x="578" y="265" width="30" height="52" rx="1" stroke="#110529" stroke-width="2" stroke-linecap="round"/>
<path d="M587.447 299V284.6H589.247L596.757 295.85V284.6H598.557V299H596.757L589.247 287.74V299H587.447Z" fill="#110529"/>
<g filter="url(#filter4_i_5803_36292)">
<path d="M709 266.6C709 266.04 709 265.76 708.891 265.546C708.795 265.358 708.642 265.205 708.454 265.109C708.24 265 707.96 265 707.4 265H609.6C609.04 265 608.76 265 608.546 265.109C608.358 265.205 608.205 265.358 608.109 265.546C608 265.76 608 266.04 608 266.6V291V315.4C608 315.96 608 316.24 608.109 316.454C608.205 316.642 608.358 316.795 608.546 316.891C608.76 317 609.04 317 609.6 317H707.4C707.96 317 708.24 317 708.454 316.891C708.642 316.795 708.795 316.642 708.891 316.454C709 316.24 709 315.96 709 315.4V310.5V304V297V291V284.5V278V271.5V266.6Z" fill="#C1ADFF"/>
</g>
<path d="M709 266.6C709 266.04 709 265.76 708.891 265.546C708.795 265.358 708.642 265.205 708.454 265.109C708.24 265 707.96 265 707.4 265H609.6C609.04 265 608.76 265 608.546 265.109C608.358 265.205 608.205 265.358 608.109 265.546C608 265.76 608 266.04 608 266.6V291V315.4C608 315.96 608 316.24 608.109 316.454C608.205 316.642 608.358 316.795 608.546 316.891C608.76 317 609.04 317 609.6 317H707.4C707.96 317 708.24 317 708.454 316.891C708.642 316.795 708.795 316.642 708.891 316.454C709 316.24 709 315.96 709 315.4V310.5V304V297V291V284.5V278V271.5V266.6Z" stroke="#110529" stroke-width="2" stroke-linecap="round"/>
<path d="M658.227 299.29C657.221 299.29 656.367 299.017 655.667 298.47C654.967 297.923 654.487 297.19 654.227 296.27L655.997 295.85C656.104 296.337 656.361 296.75 656.767 297.09C657.181 297.43 657.654 297.6 658.187 297.6C658.534 297.6 658.887 297.517 659.247 297.35C659.607 297.177 659.884 296.897 660.077 296.51C660.211 296.243 660.287 295.95 660.307 295.63C660.327 295.303 660.337 294.92 660.337 294.48V284.6H662.137V294.48C662.137 294.893 662.134 295.263 662.127 295.59C662.127 295.917 662.094 296.23 662.027 296.53C661.967 296.823 661.847 297.123 661.667 297.43C661.307 298.063 660.824 298.533 660.217 298.84C659.617 299.14 658.954 299.29 658.227 299.29Z" fill="#110529"/>
<g filter="url(#filter5_i_5803_36292)">
<rect x="709" y="265" width="144" height="52" rx="1" fill="#FAFAAA"/>
<path d="M780.593 299.3C779.16 299.3 777.943 298.983 776.943 298.35C775.943 297.717 775.18 296.837 774.653 295.71C774.133 294.583 773.873 293.28 773.873 291.8C773.873 290.32 774.133 289.017 774.653 287.89C775.18 286.763 775.943 285.883 776.943 285.25C777.943 284.617 779.16 284.3 780.593 284.3C782.26 284.3 783.63 284.723 784.703 285.57C785.783 286.417 786.527 287.557 786.933 288.99L785.123 289.47C784.83 288.397 784.307 287.55 783.553 286.93C782.8 286.31 781.813 286 780.593 286C779.52 286 778.627 286.243 777.913 286.73C777.2 287.217 776.663 287.897 776.303 288.77C775.943 289.637 775.76 290.647 775.753 291.8C775.747 292.947 775.923 293.957 776.283 294.83C776.643 295.697 777.183 296.377 777.903 296.87C778.623 297.357 779.52 297.6 780.593 297.6C781.813 297.6 782.8 297.29 783.553 296.67C784.307 296.043 784.83 295.197 785.123 294.13L786.933 294.61C786.527 296.037 785.783 297.177 784.703 298.03C783.63 298.877 782.26 299.3 780.593 299.3Z" fill="#110529"/>
<rect x="709" y="265" width="144" height="52" rx="1" stroke="#110529" stroke-width="2" stroke-linecap="round"/>
</g>
<path d="M6.11 289V276.29H1.2V274.6H12.8V276.29H7.89V289H6.11ZM20.3122 289.3C18.8789 289.3 17.6622 288.983 16.6622 288.35C15.6622 287.717 14.8989 286.837 14.3722 285.71C13.8522 284.583 13.5922 283.28 13.5922 281.8C13.5922 280.32 13.8522 279.017 14.3722 277.89C14.8989 276.763 15.6622 275.883 16.6622 275.25C17.6622 274.617 18.8789 274.3 20.3122 274.3C21.9789 274.3 23.3489 274.723 24.4222 275.57C25.5022 276.417 26.2455 277.557 26.6522 278.99L24.8422 279.47C24.5489 278.397 24.0255 277.55 23.2722 276.93C22.5189 276.31 21.5322 276 20.3122 276C19.2389 276 18.3455 276.243 17.6322 276.73C16.9189 277.217 16.3822 277.897 16.0222 278.77C15.6622 279.637 15.4789 280.647 15.4722 281.8C15.4655 282.947 15.6422 283.957 16.0022 284.83C16.3622 285.697 16.9022 286.377 17.6222 286.87C18.3422 287.357 19.2389 287.6 20.3122 287.6C21.5322 287.6 22.5189 287.29 23.2722 286.67C24.0255 286.043 24.5489 285.197 24.8422 284.13L26.6522 284.61C26.2455 286.037 25.5022 287.177 24.4222 288.03C23.3489 288.877 21.9789 289.3 20.3122 289.3ZM28.8453 289V274.6H34.5353C34.6753 274.6 34.842 274.607 35.0353 274.62C35.2286 274.627 35.4153 274.647 35.5953 274.68C36.3753 274.8 37.0286 275.067 37.5553 275.48C38.0886 275.893 38.4886 276.417 38.7553 277.05C39.022 277.677 39.1553 278.373 39.1553 279.14C39.1553 280.253 38.8653 281.22 38.2853 282.04C37.7053 282.853 36.8553 283.363 35.7353 283.57L35.0553 283.68H30.6253V289H28.8453ZM37.4153 289L34.5753 283.14L36.3353 282.6L39.4553 289H37.4153ZM30.6253 281.99H34.4753C34.602 281.99 34.7453 281.983 34.9053 281.97C35.072 281.957 35.2286 281.933 35.3753 281.9C35.8353 281.793 36.2086 281.6 36.4953 281.32C36.7886 281.033 37.002 280.7 37.1353 280.32C37.2686 279.933 37.3353 279.54 37.3353 279.14C37.3353 278.74 37.2686 278.35 37.1353 277.97C37.002 277.583 36.7886 277.247 36.4953 276.96C36.2086 276.673 35.8353 276.48 35.3753 276.38C35.2286 276.34 35.072 276.317 34.9053 276.31C34.7453 276.297 34.602 276.29 34.4753 276.29H30.6253V281.99ZM49.9317 289.3C48.9117 289.3 48.0384 289.05 47.3117 288.55C46.5851 288.043 46.0284 287.36 45.6417 286.5C45.2551 285.64 45.0617 284.673 45.0617 283.6C45.0617 282.513 45.2551 281.543 45.6417 280.69C46.0351 279.83 46.5984 279.15 47.3317 278.65C48.0651 278.15 48.9484 277.9 49.9817 277.9C50.9484 277.9 51.7684 278.143 52.4417 278.63C53.1217 279.11 53.6017 279.777 53.8817 280.63L53.5817 281.15V278.2H55.1717V289H53.5817V286.02L53.8817 286.54C53.6017 287.4 53.1117 288.077 52.4117 288.57C51.7184 289.057 50.8917 289.3 49.9317 289.3ZM50.1517 287.67C50.8651 287.67 51.4517 287.497 51.9117 287.15C52.3784 286.797 52.7217 286.313 52.9417 285.7C53.1684 285.08 53.2817 284.377 53.2817 283.59C53.2817 282.79 53.1684 282.087 52.9417 281.48C52.7217 280.867 52.3817 280.39 51.9217 280.05C51.4617 279.703 50.8784 279.53 50.1717 279.53C49.4717 279.53 48.8817 279.703 48.4017 280.05C47.9217 280.39 47.5584 280.867 47.3117 281.48C47.0717 282.087 46.9517 282.793 46.9517 283.6C46.9517 284.36 47.0684 285.047 47.3017 285.66C47.5351 286.273 47.8884 286.763 48.3617 287.13C48.8351 287.49 49.4317 287.67 50.1517 287.67ZM65.6103 274.6H67.4203L63.5803 289H61.7703L65.6103 274.6ZM6.11 309V296.29H1.2V294.6H12.8V296.29H7.89V309H6.11ZM20.3122 309.3C18.8789 309.3 17.6622 308.983 16.6622 308.35C15.6622 307.717 14.8989 306.837 14.3722 305.71C13.8522 304.583 13.5922 303.28 13.5922 301.8C13.5922 300.32 13.8522 299.017 14.3722 297.89C14.8989 296.763 15.6622 295.883 16.6622 295.25C17.6622 294.617 18.8789 294.3 20.3122 294.3C21.9789 294.3 23.3489 294.723 24.4222 295.57C25.5022 296.417 26.2455 297.557 26.6522 298.99L24.8422 299.47C24.5489 298.397 24.0255 297.55 23.2722 296.93C22.5189 296.31 21.5322 296 20.3122 296C19.2389 296 18.3455 296.243 17.6322 296.73C16.9189 297.217 16.3822 297.897 16.0222 298.77C15.6622 299.637 15.4789 300.647 15.4722 301.8C15.4655 302.947 15.6422 303.957 16.0022 304.83C16.3622 305.697 16.9022 306.377 17.6222 306.87C18.3422 307.357 19.2389 307.6 20.3122 307.6C21.5322 307.6 22.5189 307.29 23.2722 306.67C24.0255 306.043 24.5489 305.197 24.8422 304.13L26.6522 304.61C26.2455 306.037 25.5022 307.177 24.4222 308.03C23.3489 308.877 21.9789 309.3 20.3122 309.3ZM28.8453 309V294.6H34.5353C34.6753 294.6 34.842 294.607 35.0353 294.62C35.2286 294.627 35.4153 294.647 35.5953 294.68C36.3753 294.8 37.0286 295.067 37.5553 295.48C38.0886 295.893 38.4886 296.417 38.7553 297.05C39.022 297.677 39.1553 298.373 39.1553 299.14C39.1553 300.253 38.8653 301.22 38.2853 302.04C37.7053 302.853 36.8553 303.363 35.7353 303.57L35.0553 303.68H30.6253V309H28.8453ZM37.4153 309L34.5753 303.14L36.3353 302.6L39.4553 309H37.4153ZM30.6253 301.99H34.4753C34.602 301.99 34.7453 301.983 34.9053 301.97C35.072 301.957 35.2286 301.933 35.3753 301.9C35.8353 301.793 36.2086 301.6 36.4953 301.32C36.7886 301.033 37.002 300.7 37.1353 300.32C37.2686 299.933 37.3353 299.54 37.3353 299.14C37.3353 298.74 37.2686 298.35 37.1353 297.97C37.002 297.583 36.7886 297.247 36.4953 296.96C36.2086 296.673 35.8353 296.48 35.3753 296.38C35.2286 296.34 35.072 296.317 34.9053 296.31C34.7453 296.297 34.602 296.29 34.4753 296.29H30.6253V301.99ZM48.5817 312.6V309L44.6617 298.2H46.4717L49.4917 306.73L52.5217 298.2H54.3217L50.4017 309V312.6H48.5817Z" fill="#110529"/>
<path d="M6.11 123V110.29H1.2V108.6H12.8V110.29H7.89V123H6.11ZM20.3122 123.3C18.8789 123.3 17.6622 122.983 16.6622 122.35C15.6622 121.717 14.8989 120.837 14.3722 119.71C13.8522 118.583 13.5922 117.28 13.5922 115.8C13.5922 114.32 13.8522 113.017 14.3722 111.89C14.8989 110.763 15.6622 109.883 16.6622 109.25C17.6622 108.617 18.8789 108.3 20.3122 108.3C21.9789 108.3 23.3489 108.723 24.4222 109.57C25.5022 110.417 26.2455 111.557 26.6522 112.99L24.8422 113.47C24.5489 112.397 24.0255 111.55 23.2722 110.93C22.5189 110.31 21.5322 110 20.3122 110C19.2389 110 18.3455 110.243 17.6322 110.73C16.9189 111.217 16.3822 111.897 16.0222 112.77C15.6622 113.637 15.4789 114.647 15.4722 115.8C15.4655 116.947 15.6422 117.957 16.0022 118.83C16.3622 119.697 16.9022 120.377 17.6222 120.87C18.3422 121.357 19.2389 121.6 20.3122 121.6C21.5322 121.6 22.5189 121.29 23.2722 120.67C24.0255 120.043 24.5489 119.197 24.8422 118.13L26.6522 118.61C26.2455 120.037 25.5022 121.177 24.4222 122.03C23.3489 122.877 21.9789 123.3 20.3122 123.3ZM28.8453 123V108.6H34.5353C34.6753 108.6 34.842 108.607 35.0353 108.62C35.2286 108.627 35.4153 108.647 35.5953 108.68C36.3753 108.8 37.0286 109.067 37.5553 109.48C38.0886 109.893 38.4886 110.417 38.7553 111.05C39.022 111.677 39.1553 112.373 39.1553 113.14C39.1553 114.253 38.8653 115.22 38.2853 116.04C37.7053 116.853 36.8553 117.363 35.7353 117.57L35.0553 117.68H30.6253V123H28.8453ZM37.4153 123L34.5753 117.14L36.3353 116.6L39.4553 123H37.4153ZM30.6253 115.99H34.4753C34.602 115.99 34.7453 115.983 34.9053 115.97C35.072 115.957 35.2286 115.933 35.3753 115.9C35.8353 115.793 36.2086 115.6 36.4953 115.32C36.7886 115.033 37.002 114.7 37.1353 114.32C37.2686 113.933 37.3353 113.54 37.3353 113.14C37.3353 112.74 37.2686 112.35 37.1353 111.97C37.002 111.583 36.7886 111.247 36.4953 110.96C36.2086 110.673 35.8353 110.48 35.3753 110.38C35.2286 110.34 35.072 110.317 34.9053 110.31C34.7453 110.297 34.602 110.29 34.4753 110.29H30.6253V115.99ZM45.6517 127.8V112.2C45.6517 111.953 45.6684 111.71 45.7017 111.47C45.7417 111.23 45.7984 111 45.8717 110.78C46.0517 110.24 46.3317 109.787 46.7117 109.42C47.0917 109.047 47.5451 108.767 48.0717 108.58C48.5984 108.393 49.1717 108.3 49.7917 108.3C50.6251 108.3 51.3584 108.463 51.9917 108.79C52.6317 109.11 53.1317 109.563 53.4917 110.15C53.8517 110.737 54.0317 111.427 54.0317 112.22C54.0317 112.86 53.9017 113.433 53.6417 113.94C53.3884 114.447 52.9984 114.83 52.4717 115.09C52.8251 115.177 53.1651 115.323 53.4917 115.53C53.8251 115.737 54.1251 116 54.3917 116.32C54.6584 116.64 54.8684 117.02 55.0217 117.46C55.1817 117.9 55.2617 118.397 55.2617 118.95C55.2617 119.823 55.0651 120.587 54.6717 121.24C54.2784 121.887 53.7151 122.393 52.9817 122.76C52.2551 123.12 51.3817 123.3 50.3617 123.3C49.7484 123.3 49.1951 123.217 48.7017 123.05C48.2151 122.89 47.7917 122.67 47.4317 122.39V127.8H45.6517ZM50.4417 121.61C51.0351 121.61 51.5584 121.497 52.0117 121.27C52.4651 121.037 52.8184 120.717 53.0717 120.31C53.3251 119.897 53.4517 119.417 53.4517 118.87C53.4517 117.983 53.1251 117.313 52.4717 116.86C51.8184 116.4 50.9417 116.16 49.8417 116.14V114.54C50.3017 114.493 50.7084 114.38 51.0617 114.2C51.4217 114.02 51.7017 113.767 51.9017 113.44C52.1084 113.113 52.2117 112.713 52.2117 112.24C52.2117 111.527 51.9884 110.973 51.5417 110.58C51.0951 110.187 50.5251 109.99 49.8317 109.99C49.3917 109.99 48.9717 110.09 48.5717 110.29C48.1784 110.483 47.8884 110.813 47.7017 111.28C47.6017 111.54 47.5384 111.817 47.5117 112.11C47.4851 112.397 47.4717 112.647 47.4717 112.86V118.71C47.4717 118.903 47.4817 119.123 47.5017 119.37C47.5284 119.61 47.5684 119.823 47.6217 120.01C47.7884 120.523 48.1451 120.92 48.6917 121.2C49.2384 121.473 49.8217 121.61 50.4417 121.61ZM64.8877 108.6H66.6977L62.8577 123H61.0477L64.8877 108.6ZM6.11 143V130.29H1.2V128.6H12.8V130.29H7.89V143H6.11ZM20.3122 143.3C18.8789 143.3 17.6622 142.983 16.6622 142.35C15.6622 141.717 14.8989 140.837 14.3722 139.71C13.8522 138.583 13.5922 137.28 13.5922 135.8C13.5922 134.32 13.8522 133.017 14.3722 131.89C14.8989 130.763 15.6622 129.883 16.6622 129.25C17.6622 128.617 18.8789 128.3 20.3122 128.3C21.9789 128.3 23.3489 128.723 24.4222 129.57C25.5022 130.417 26.2455 131.557 26.6522 132.99L24.8422 133.47C24.5489 132.397 24.0255 131.55 23.2722 130.93C22.5189 130.31 21.5322 130 20.3122 130C19.2389 130 18.3455 130.243 17.6322 130.73C16.9189 131.217 16.3822 131.897 16.0222 132.77C15.6622 133.637 15.4789 134.647 15.4722 135.8C15.4655 136.947 15.6422 137.957 16.0022 138.83C16.3622 139.697 16.9022 140.377 17.6222 140.87C18.3422 141.357 19.2389 141.6 20.3122 141.6C21.5322 141.6 22.5189 141.29 23.2722 140.67C24.0255 140.043 24.5489 139.197 24.8422 138.13L26.6522 138.61C26.2455 140.037 25.5022 141.177 24.4222 142.03C23.3489 142.877 21.9789 143.3 20.3122 143.3ZM28.8453 143V128.6H34.5353C34.6753 128.6 34.842 128.607 35.0353 128.62C35.2286 128.627 35.4153 128.647 35.5953 128.68C36.3753 128.8 37.0286 129.067 37.5553 129.48C38.0886 129.893 38.4886 130.417 38.7553 131.05C39.022 131.677 39.1553 132.373 39.1553 133.14C39.1553 134.253 38.8653 135.22 38.2853 136.04C37.7053 136.853 36.8553 137.363 35.7353 137.57L35.0553 137.68H30.6253V143H28.8453ZM37.4153 143L34.5753 137.14L36.3353 136.6L39.4553 143H37.4153ZM30.6253 135.99H34.4753C34.602 135.99 34.7453 135.983 34.9053 135.97C35.072 135.957 35.2286 135.933 35.3753 135.9C35.8353 135.793 36.2086 135.6 36.4953 135.32C36.7886 135.033 37.002 134.7 37.1353 134.32C37.2686 133.933 37.3353 133.54 37.3353 133.14C37.3353 132.74 37.2686 132.35 37.1353 131.97C37.002 131.583 36.7886 131.247 36.4953 130.96C36.2086 130.673 35.8353 130.48 35.3753 130.38C35.2286 130.34 35.072 130.317 34.9053 130.31C34.7453 130.297 34.602 130.29 34.4753 130.29H30.6253V135.99ZM50.2317 143.29C49.1717 143.29 48.2551 143.077 47.4817 142.65C46.7084 142.223 46.1117 141.627 45.6917 140.86C45.2717 140.087 45.0617 139.19 45.0617 138.17C45.0617 137.157 45.2684 136.263 45.6817 135.49C46.0951 134.717 46.6884 134.133 47.4617 133.74C48.2417 133.347 49.1751 133.223 50.2617 133.37V132.79C51.3417 132.79 52.2717 133.013 53.0517 133.46C53.8317 133.9 54.4284 134.517 54.8417 135.31C55.2617 136.097 55.4717 137.003 55.4717 138.03C55.4717 139.063 55.2617 139.977 54.8417 140.77C54.4217 141.557 53.8184 142.173 53.0317 142.62C52.2517 143.067 51.3184 143.29 50.2317 143.29ZM50.2717 141.6C51.3384 141.6 52.1351 141.273 52.6617 140.62C53.1951 139.96 53.4617 139.09 53.4617 138.01C53.4617 136.917 53.1917 136.053 52.6517 135.42C52.1184 134.787 51.3251 134.47 50.2717 134.47C49.2051 134.47 48.4051 134.793 47.8717 135.44C47.3451 136.087 47.0817 136.95 47.0817 138.03C47.0817 139.137 47.3551 140.01 47.9017 140.65C48.4484 141.283 49.2384 141.6 50.2717 141.6ZM51.7217 134.37C51.2417 134.223 50.7084 134.07 50.1217 133.91C49.5351 133.75 48.9751 133.547 48.4417 133.3C47.9151 133.053 47.4784 132.73 47.1317 132.33C46.7917 131.93 46.6217 131.42 46.6217 130.8C46.6217 130.453 46.6884 130.11 46.8217 129.77C46.9617 129.43 47.1851 129.137 47.4917 128.89C47.8051 128.637 48.2251 128.467 48.7517 128.38C48.9517 128.34 49.1484 128.317 49.3417 128.31C49.5417 128.303 49.7517 128.3 49.9717 128.3H53.5317V129.78H50.3717C50.1717 129.78 49.9851 129.787 49.8117 129.8C49.6384 129.807 49.4784 129.83 49.3317 129.87C49.0584 129.937 48.8317 130.053 48.6517 130.22C48.4784 130.38 48.3917 130.597 48.3917 130.87C48.3917 131.143 48.4951 131.383 48.7017 131.59C48.9151 131.79 49.2051 131.973 49.5717 132.14C49.9384 132.3 50.3617 132.46 50.8417 132.62C51.3284 132.78 51.8451 132.96 52.3917 133.16L51.7217 134.37Z" fill="#110529"/>
<path d="M835.878 83.992L835.886 82.712L840.998 78.112C841.425 77.728 841.71 77.3653 841.854 77.024C842.003 76.6773 842.078 76.3227 842.078 75.96C842.078 75.5173 841.977 75.1173 841.774 74.76C841.571 74.4027 841.294 74.12 840.942 73.912C840.595 73.704 840.201 73.6 839.758 73.6C839.299 73.6 838.891 73.7093 838.534 73.928C838.177 74.1413 837.894 74.4267 837.686 74.784C837.483 75.1413 837.385 75.5307 837.39 75.952H835.934C835.934 75.2267 836.102 74.5867 836.438 74.032C836.774 73.472 837.23 73.0347 837.806 72.72C838.387 72.4 839.046 72.24 839.782 72.24C840.497 72.24 841.137 72.4053 841.702 72.736C842.267 73.0613 842.713 73.5067 843.038 74.072C843.369 74.632 843.534 75.2667 843.534 75.976C843.534 76.4773 843.47 76.912 843.342 77.28C843.219 77.648 843.027 77.9893 842.766 78.304C842.505 78.6133 842.177 78.944 841.782 79.296L837.534 83.112L837.35 82.632H843.534V83.992H835.878ZM849.336 84.24C848.589 84.24 847.923 84.072 847.336 83.736C846.755 83.3947 846.293 82.9333 845.952 82.352C845.616 81.7653 845.448 81.0987 845.448 80.352V76.128C845.448 75.3813 845.616 74.7147 845.952 74.128C846.293 73.5413 846.755 73.08 847.336 72.744C847.923 72.408 848.589 72.24 849.336 72.24C850.083 72.24 850.749 72.408 851.336 72.744C851.923 73.08 852.384 73.5413 852.72 74.128C853.056 74.7147 853.224 75.3813 853.224 76.128V80.352C853.224 81.0987 853.056 81.7653 852.72 82.352C852.384 82.9333 851.923 83.3947 851.336 83.736C850.749 84.072 850.083 84.24 849.336 84.24ZM849.336 82.872C849.789 82.872 850.2 82.7627 850.568 82.544C850.936 82.3253 851.229 82.032 851.448 81.664C851.667 81.2907 851.776 80.88 851.776 80.432V76.04C851.776 75.5867 851.667 75.176 851.448 74.808C851.229 74.44 850.936 74.1467 850.568 73.928C850.2 73.7093 849.789 73.6 849.336 73.6C848.888 73.6 848.477 73.7093 848.104 73.928C847.736 74.1467 847.443 74.44 847.224 74.808C847.005 75.176 846.896 75.5867 846.896 76.04V80.432C846.896 80.88 847.005 81.2907 847.224 81.664C847.443 82.032 847.736 82.3253 848.104 82.544C848.477 82.7627 848.888 82.872 849.336 82.872ZM855.304 78.824V77.648H860.104V78.824H855.304ZM861.863 83.992L861.871 82.712L866.983 78.112C867.409 77.728 867.695 77.3653 867.839 77.024C867.988 76.6773 868.063 76.3227 868.063 75.96C868.063 75.5173 867.961 75.1173 867.759 74.76C867.556 74.4027 867.279 74.12 866.927 73.912C866.58 73.704 866.185 73.6 865.743 73.6C865.284 73.6 864.876 73.7093 864.519 73.928C864.161 74.1413 863.879 74.4267 863.671 74.784C863.468 75.1413 863.369 75.5307 863.375 75.952H861.919C861.919 75.2267 862.087 74.5867 862.423 74.032C862.759 73.472 863.215 73.0347 863.791 72.72C864.372 72.4 865.031 72.24 865.766 72.24C866.481 72.24 867.121 72.4053 867.687 72.736C868.252 73.0613 868.697 73.5067 869.023 74.072C869.353 74.632 869.519 75.2667 869.519 75.976C869.519 76.4773 869.455 76.912 869.326 77.28C869.204 77.648 869.012 77.9893 868.751 78.304C868.489 78.6133 868.161 78.944 867.767 79.296L863.519 83.112L863.335 82.632H869.519V83.992H861.863ZM876.096 84V81.88H870.8V80.528L874.6 72.48H876.216L872.416 80.528H876.096V77.288H877.536V80.528H878.736V81.88H877.536V84H876.096ZM887.822 84.24C887.012 84.24 886.329 84.04 885.774 83.64C885.22 83.2347 884.798 82.688 884.51 82C884.228 81.3067 884.086 80.5307 884.086 79.672C884.086 78.8027 884.228 78.024 884.51 77.336C884.798 76.648 885.22 76.1067 885.774 75.712C886.334 75.3173 887.02 75.12 887.83 75.12C888.63 75.12 889.318 75.32 889.894 75.72C890.476 76.1147 890.921 76.656 891.23 77.344C891.54 78.032 891.694 78.808 891.694 79.672C891.694 80.536 891.54 81.312 891.23 82C890.921 82.688 890.476 83.2347 889.894 83.64C889.318 84.04 888.628 84.24 887.822 84.24ZM883.846 84V72.48H885.278V77.64H885.118V84H883.846ZM887.646 82.936C888.217 82.936 888.689 82.792 889.062 82.504C889.436 82.216 889.716 81.8267 889.902 81.336C890.089 80.84 890.182 80.2853 890.182 79.672C890.182 79.064 890.089 78.5147 889.902 78.024C889.721 77.5333 889.438 77.144 889.054 76.856C888.676 76.568 888.193 76.424 887.606 76.424C887.046 76.424 886.582 76.5627 886.214 76.84C885.846 77.112 885.572 77.4933 885.39 77.984C885.209 78.4693 885.118 79.032 885.118 79.672C885.118 80.3013 885.206 80.864 885.382 81.36C885.564 81.8507 885.841 82.2373 886.214 82.52C886.588 82.7973 887.065 82.936 887.646 82.936ZM897.416 84.24C896.605 84.24 895.923 84.04 895.368 83.64C894.813 83.2347 894.392 82.688 894.104 82C893.821 81.3067 893.68 80.5307 893.68 79.672C893.68 78.8027 893.821 78.024 894.104 77.336C894.392 76.648 894.813 76.1067 895.368 75.712C895.928 75.3173 896.613 75.12 897.424 75.12C898.224 75.12 898.912 75.32 899.488 75.72C900.069 76.1147 900.515 76.656 900.824 77.344C901.133 78.032 901.288 78.808 901.288 79.672C901.288 80.536 901.133 81.312 900.824 82C900.515 82.688 900.069 83.2347 899.488 83.64C898.912 84.04 898.221 84.24 897.416 84.24ZM893.44 87.84V75.36H894.712V81.72H894.872V87.84H893.44ZM897.24 82.936C897.811 82.936 898.283 82.792 898.656 82.504C899.029 82.216 899.309 81.8267 899.496 81.336C899.683 80.84 899.776 80.2853 899.776 79.672C899.776 79.064 899.683 78.5147 899.496 78.024C899.315 77.5333 899.032 77.144 898.648 76.856C898.269 76.568 897.787 76.424 897.2 76.424C896.64 76.424 896.176 76.5627 895.808 76.84C895.44 77.112 895.165 77.4933 894.984 77.984C894.803 78.4693 894.712 79.032 894.712 79.672C894.712 80.3013 894.8 80.864 894.976 81.36C895.157 81.8507 895.435 82.2373 895.808 82.52C896.181 82.7973 896.659 82.936 897.24 82.936Z" fill="#110529"/>
<path d="M814.684 53.24C813.537 53.24 812.564 52.9867 811.764 52.48C810.964 51.9733 810.353 51.2693 809.932 50.368C809.516 49.4667 809.308 48.424 809.308 47.24C809.308 46.056 809.516 45.0133 809.932 44.112C810.353 43.2107 810.964 42.5067 811.764 42C812.564 41.4933 813.537 41.24 814.684 41.24C816.017 41.24 817.113 41.5787 817.972 42.256C818.836 42.9333 819.431 43.8453 819.756 44.992L818.308 45.376C818.073 44.5173 817.655 43.84 817.052 43.344C816.449 42.848 815.66 42.6 814.684 42.6C813.825 42.6 813.111 42.7947 812.54 43.184C811.969 43.5733 811.54 44.1173 811.252 44.816C810.964 45.5093 810.817 46.3173 810.812 47.24C810.807 48.1573 810.948 48.9653 811.236 49.664C811.524 50.3573 811.956 50.9013 812.532 51.296C813.108 51.6853 813.825 51.88 814.684 51.88C815.66 51.88 816.449 51.632 817.052 51.136C817.655 50.6347 818.073 49.9573 818.308 49.104L819.756 49.488C819.431 50.6293 818.836 51.5413 817.972 52.224C817.113 52.9013 816.017 53.24 814.684 53.24ZM821.351 48.544V47.368H826.151V48.544H821.351ZM828.229 53V44.36H829.501V46.448L829.293 46.176C829.395 45.9093 829.525 45.664 829.685 45.44C829.851 45.216 830.035 45.032 830.237 44.888C830.461 44.7067 830.715 44.568 830.997 44.472C831.28 44.376 831.568 44.32 831.861 44.304C832.155 44.2827 832.429 44.3013 832.685 44.36V45.696C832.387 45.616 832.059 45.5947 831.701 45.632C831.344 45.6693 831.013 45.8 830.709 46.024C830.432 46.2213 830.216 46.4613 830.061 46.744C829.912 47.0267 829.808 47.3333 829.749 47.664C829.691 47.9893 829.661 48.3227 829.661 48.664V53H828.229ZM837.786 53.24C836.938 53.24 836.197 53.0533 835.562 52.68C834.933 52.3013 834.442 51.776 834.09 51.104C833.738 50.4267 833.562 49.6373 833.562 48.736C833.562 47.792 833.735 46.976 834.082 46.288C834.429 45.5947 834.911 45.0613 835.53 44.688C836.154 44.3093 836.885 44.12 837.722 44.12C838.591 44.12 839.33 44.32 839.938 44.72C840.551 45.12 841.01 45.6907 841.314 46.432C841.623 47.1733 841.757 48.056 841.714 49.08H840.274V48.568C840.258 47.5067 840.042 46.7147 839.626 46.192C839.21 45.664 838.591 45.4 837.77 45.4C836.89 45.4 836.221 45.6827 835.762 46.248C835.303 46.8133 835.074 47.624 835.074 48.68C835.074 49.6987 835.303 50.488 835.762 51.048C836.221 51.608 836.874 51.888 837.722 51.888C838.293 51.888 838.789 51.7573 839.21 51.496C839.631 51.2347 839.962 50.8587 840.202 50.368L841.57 50.84C841.234 51.6027 840.727 52.1947 840.05 52.616C839.378 53.032 838.623 53.24 837.786 53.24ZM834.594 49.08V47.936H840.978V49.08H834.594ZM846.991 57.08C846.538 57.08 846.095 57.0107 845.663 56.872C845.231 56.7333 844.834 56.5227 844.471 56.24C844.114 55.9627 843.815 55.6107 843.575 55.184L844.879 54.496C845.092 54.9173 845.394 55.224 845.783 55.416C846.178 55.608 846.583 55.704 846.999 55.704C847.548 55.704 848.004 55.6027 848.367 55.4C848.73 55.2027 848.996 54.9067 849.167 54.512C849.343 54.1173 849.428 53.6267 849.423 53.04V50.68H849.591V44.36H850.855V53.056C850.855 53.2907 850.847 53.5173 850.831 53.736C850.82 53.9547 850.794 54.1707 850.751 54.384C850.639 54.9973 850.418 55.5013 850.087 55.896C849.756 56.296 849.33 56.592 848.807 56.784C848.284 56.9813 847.679 57.08 846.991 57.08ZM846.887 53.24C846.082 53.24 845.391 53.04 844.815 52.64C844.239 52.2347 843.794 51.688 843.479 51C843.17 50.312 843.015 49.536 843.015 48.672C843.015 47.808 843.17 47.032 843.479 46.344C843.794 45.656 844.239 45.1147 844.815 44.72C845.391 44.32 846.079 44.12 846.879 44.12C847.695 44.12 848.38 44.3173 848.935 44.712C849.49 45.1067 849.908 45.648 850.191 46.336C850.479 47.024 850.623 47.8027 850.623 48.672C850.623 49.5307 850.479 50.3067 850.191 51C849.908 51.688 849.49 52.2347 848.935 52.64C848.38 53.04 847.698 53.24 846.887 53.24ZM847.063 51.936C847.644 51.936 848.122 51.7973 848.495 51.52C848.868 51.2373 849.143 50.8507 849.319 50.36C849.5 49.864 849.591 49.3013 849.591 48.672C849.591 48.032 849.5 47.4693 849.319 46.984C849.143 46.4933 848.871 46.112 848.503 45.84C848.135 45.5627 847.668 45.424 847.103 45.424C846.516 45.424 846.031 45.568 845.647 45.856C845.268 46.144 844.986 46.5333 844.799 47.024C844.618 47.5147 844.527 48.064 844.527 48.672C844.527 49.2853 844.62 49.84 844.807 50.336C844.994 50.8267 845.274 51.216 845.647 51.504C846.026 51.792 846.498 51.936 847.063 51.936ZM853.249 42.832V41.36H854.673V42.832H853.249ZM853.249 53V44.36H854.673V53H853.249ZM860.753 53.24C859.894 53.24 859.153 53.0453 858.529 52.656C857.91 52.2667 857.433 51.728 857.097 51.04C856.761 50.352 856.593 49.5627 856.593 48.672C856.593 47.7653 856.764 46.9707 857.105 46.288C857.446 45.6053 857.929 45.0747 858.553 44.696C859.177 44.312 859.91 44.12 860.753 44.12C861.617 44.12 862.361 44.3147 862.985 44.704C863.609 45.088 864.086 45.624 864.417 46.312C864.753 46.9947 864.921 47.7813 864.921 48.672C864.921 49.5733 864.753 50.368 864.417 51.056C864.081 51.7387 863.601 52.2747 862.977 52.664C862.353 53.048 861.612 53.24 860.753 53.24ZM860.753 51.888C861.649 51.888 862.316 51.5893 862.753 50.992C863.19 50.3947 863.409 49.6213 863.409 48.672C863.409 47.696 863.188 46.92 862.745 46.344C862.302 45.7627 861.638 45.472 860.753 45.472C860.15 45.472 859.654 45.608 859.265 45.88C858.876 46.152 858.585 46.528 858.393 47.008C858.201 47.488 858.105 48.0427 858.105 48.672C858.105 49.6427 858.329 50.4213 858.777 51.008C859.225 51.5947 859.884 51.888 860.753 51.888ZM872.835 53V48.672C872.835 48.2613 872.797 47.8667 872.723 47.488C872.653 47.1093 872.528 46.7707 872.347 46.472C872.171 46.168 871.931 45.928 871.627 45.752C871.328 45.576 870.949 45.488 870.491 45.488C870.133 45.488 869.808 45.5493 869.515 45.672C869.227 45.7893 868.979 45.9707 868.771 46.216C868.563 46.4613 868.4 46.7707 868.283 47.144C868.171 47.512 868.115 47.9467 868.115 48.448L867.179 48.16C867.179 47.3227 867.328 46.6053 867.627 46.008C867.931 45.4053 868.355 44.944 868.899 44.624C869.448 44.2987 870.093 44.136 870.835 44.136C871.395 44.136 871.872 44.224 872.267 44.4C872.661 44.576 872.989 44.8107 873.251 45.104C873.512 45.392 873.717 45.7173 873.867 46.08C874.016 46.4373 874.12 46.8027 874.179 47.176C874.243 47.544 874.275 47.8933 874.275 48.224V53H872.835ZM866.675 53V44.36H867.955V46.672H868.115V53H866.675ZM883.526 53.24C882.715 53.24 882.032 53.04 881.478 52.64C880.923 52.2347 880.502 51.688 880.214 51C879.931 50.3067 879.79 49.5307 879.79 48.672C879.79 47.8027 879.931 47.024 880.214 46.336C880.502 45.648 880.923 45.1067 881.478 44.712C882.038 44.3173 882.723 44.12 883.534 44.12C884.334 44.12 885.022 44.32 885.598 44.72C886.179 45.1147 886.624 45.656 886.934 46.344C887.243 47.032 887.398 47.808 887.398 48.672C887.398 49.536 887.243 50.312 886.934 51C886.624 51.688 886.179 52.2347 885.598 52.64C885.022 53.04 884.331 53.24 883.526 53.24ZM879.55 56.84V44.36H880.822V50.72H880.982V56.84H879.55ZM883.35 51.936C883.92 51.936 884.392 51.792 884.766 51.504C885.139 51.216 885.419 50.8267 885.606 50.336C885.792 49.84 885.886 49.2853 885.886 48.672C885.886 48.064 885.792 47.5147 885.606 47.024C885.424 46.5333 885.142 46.144 884.758 45.856C884.379 45.568 883.896 45.424 883.31 45.424C882.75 45.424 882.286 45.5627 881.918 45.84C881.55 46.112 881.275 46.4933 881.094 46.984C880.912 47.4693 880.822 48.032 880.822 48.672C880.822 49.3013 880.91 49.864 881.086 50.36C881.267 50.8507 881.544 51.2373 881.918 51.52C882.291 51.7973 882.768 51.936 883.35 51.936ZM889.151 53V44.36H890.423V46.448L890.215 46.176C890.317 45.9093 890.447 45.664 890.607 45.44C890.773 45.216 890.957 45.032 891.159 44.888C891.383 44.7067 891.637 44.568 891.919 44.472C892.202 44.376 892.49 44.32 892.783 44.304C893.077 44.2827 893.351 44.3013 893.607 44.36V45.696C893.309 45.616 892.981 45.5947 892.623 45.632C892.266 45.6693 891.935 45.8 891.631 46.024C891.354 46.2213 891.138 46.4613 890.983 46.744C890.834 47.0267 890.73 47.3333 890.671 47.664C890.613 47.9893 890.583 48.3227 890.583 48.664V53H889.151ZM895.28 42.832V41.36H896.704V42.832H895.28ZM895.28 53V44.36H896.704V53H895.28ZM909.432 53L909.44 47.472C909.44 46.8267 909.267 46.3227 908.92 45.96C908.579 45.592 908.134 45.408 907.584 45.408C907.264 45.408 906.96 45.4827 906.672 45.632C906.384 45.776 906.15 46.0053 905.968 46.32C905.787 46.6293 905.696 47.0267 905.696 47.512L904.944 47.208C904.934 46.5947 905.059 46.0587 905.32 45.6C905.587 45.136 905.95 44.776 906.408 44.52C906.867 44.264 907.384 44.136 907.96 44.136C908.862 44.136 909.571 44.4107 910.088 44.96C910.606 45.504 910.864 46.2373 910.864 47.16L910.856 53H909.432ZM899.096 53V44.36H900.368V46.672H900.528V53H899.096ZM904.272 53L904.28 47.528C904.28 46.8667 904.11 46.3493 903.768 45.976C903.427 45.5973 902.974 45.408 902.408 45.408C901.848 45.408 901.395 45.6 901.048 45.984C900.702 46.368 900.528 46.8773 900.528 47.512L899.776 47.064C899.776 46.504 899.91 46.0027 900.176 45.56C900.443 45.1173 900.806 44.7707 901.264 44.52C901.723 44.264 902.243 44.136 902.824 44.136C903.406 44.136 903.912 44.2587 904.344 44.504C904.776 44.7493 905.11 45.1013 905.344 45.56C905.579 46.0133 905.696 46.5547 905.696 47.184L905.688 53H904.272ZM916.614 53.24C915.766 53.24 915.025 53.0533 914.39 52.68C913.761 52.3013 913.27 51.776 912.918 51.104C912.566 50.4267 912.39 49.6373 912.39 48.736C912.39 47.792 912.563 46.976 912.91 46.288C913.257 45.5947 913.739 45.0613 914.358 44.688C914.982 44.3093 915.713 44.12 916.55 44.12C917.419 44.12 918.158 44.32 918.766 44.72C919.379 45.12 919.838 45.6907 920.142 46.432C920.451 47.1733 920.585 48.056 920.542 49.08H919.102V48.568C919.086 47.5067 918.87 46.7147 918.454 46.192C918.038 45.664 917.419 45.4 916.598 45.4C915.718 45.4 915.049 45.6827 914.59 46.248C914.131 46.8133 913.902 47.624 913.902 48.68C913.902 49.6987 914.131 50.488 914.59 51.048C915.049 51.608 915.702 51.888 916.55 51.888C917.121 51.888 917.617 51.7573 918.038 51.496C918.459 51.2347 918.79 50.8587 919.03 50.368L920.398 50.84C920.062 51.6027 919.555 52.1947 918.878 52.616C918.206 53.032 917.451 53.24 916.614 53.24ZM913.422 49.08V47.936H919.806V49.08H913.422ZM922.323 53V44.36H923.595V46.448L923.387 46.176C923.488 45.9093 923.619 45.664 923.779 45.44C923.944 45.216 924.128 45.032 924.331 44.888C924.555 44.7067 924.808 44.568 925.091 44.472C925.374 44.376 925.662 44.32 925.955 44.304C926.248 44.2827 926.523 44.3013 926.779 44.36V45.696C926.48 45.616 926.152 45.5947 925.795 45.632C925.438 45.6693 925.107 45.8 924.803 46.024C924.526 46.2213 924.31 46.4613 924.155 46.744C924.006 47.0267 923.902 47.3333 923.843 47.664C923.784 47.9893 923.755 48.3227 923.755 48.664V53H922.323Z" fill="#110529"/>
<g filter="url(#filter6_i_5803_36292)">
<rect x="77" y="99" width="72" height="52" rx="1" fill="#D6E0FF"/>
<path d="M102.053 133.3C105.393 133.3 107.733 131.1 107.733 127.75V118.6H105.933V127.6C105.933 130.31 103.893 131.62 102.053 131.62C100.233 131.62 98.1727 130.33 98.1727 127.6V118.6L96.3727 118.61V127.75C96.3727 131.11 98.7127 133.3 102.053 133.3ZM110.533 133H112.223V122.51L117.113 133H118.063L122.953 122.51V132.99H124.643V118.6H123.003L117.593 130.07L112.153 118.6H110.533V133ZM127.647 133H129.427V118.6H127.647V133Z" fill="#110529"/>
<rect x="77" y="99" width="72" height="52" rx="1" stroke="#110529" stroke-width="2" stroke-linecap="round"/>
</g>
<g filter="url(#filter7_i_5803_36292)">
<rect x="149" y="99" width="56" height="52" rx="1" fill="#D3D7E0"/>
<path d="M169.815 133H171.595V120.29H176.505V118.6H164.905V120.29H169.815V133ZM183.207 133.3C186.197 133.3 188.597 131.77 188.597 128.98C188.597 126.21 186.227 125.5 184.977 125.15L182.237 124.36C181.167 124.06 179.837 123.6 179.837 122.27C179.837 120.94 181.207 119.98 182.977 120C184.807 120.02 186.317 121.1 186.617 122.85L188.507 122.52C187.977 119.9 185.897 118.33 182.997 118.31C180.127 118.3 177.957 119.8 177.957 122.35C177.957 124.48 179.477 125.41 181.077 125.88L184.747 126.97C185.777 127.28 186.757 127.82 186.757 129.08C186.757 130.65 185.227 131.61 183.297 131.61C181.287 131.61 179.697 130.54 179.237 128.72L177.397 129.01C177.877 131.66 180.147 133.3 183.207 133.3Z" fill="#110529"/>
<rect x="149" y="99" width="56" height="52" rx="1" stroke="#110529" stroke-width="2" stroke-linecap="round"/>
</g>
<g filter="url(#filter8_i_5803_36292)">
<rect x="205" y="99" width="372" height="52" rx="1" fill="#99E099"/>
<path d="M389.758 133H392.238L397.058 118.6H395.208L390.978 131.11L386.788 118.6H384.938L389.758 133Z" fill="#110529"/>
<rect x="205" y="99" width="372" height="52" rx="1" stroke="#110529" stroke-width="2" stroke-linecap="round"/>
</g>
<g filter="url(#filter9_i_5803_36292)">
<rect x="577" y="99" width="30" height="52" rx="1" fill="#CBEB67"/>
</g>
<rect x="577" y="99" width="30" height="52" rx="1" stroke="#110529" stroke-width="2" stroke-linecap="round"/>
<g filter="url(#filter10_i_5803_36292)">
<rect x="643" y="99" width="30" height="52" rx="1" fill="#FAAAFA"/>
</g>
<rect x="643" y="99" width="30" height="52" rx="1" stroke="#110529" stroke-width="2" stroke-linecap="round"/>
<g filter="url(#filter11_i_5803_36292)">
<rect x="607" y="99" width="36" height="52" rx="1" fill="#FFCB8F"/>
</g>
<rect x="607" y="99" width="36" height="52" rx="1" stroke="#110529" stroke-width="2" stroke-linecap="round"/>
<path d="M586.447 133V118.6H588.247L595.757 129.85V118.6H597.557V133H595.757L588.247 121.74V133H586.447Z" fill="#110529"/>
<path d="M652.447 133V118.6H654.247L661.757 129.85V118.6H663.557V133H661.757L654.247 121.74V133H652.447Z" fill="#110529"/>
<path d="M619.593 133V118.6H624.033C624.18 118.6 624.437 118.603 624.803 118.61C625.17 118.617 625.52 118.643 625.853 118.69C626.967 118.837 627.897 119.243 628.643 119.91C629.397 120.57 629.963 121.41 630.343 122.43C630.723 123.45 630.913 124.573 630.913 125.8C630.913 127.027 630.723 128.15 630.343 129.17C629.963 130.19 629.397 131.033 628.643 131.7C627.897 132.36 626.967 132.763 625.853 132.91C625.52 132.95 625.167 132.977 624.793 132.99C624.427 132.997 624.173 133 624.033 133H619.593ZM621.423 131.3H624.033C624.287 131.3 624.57 131.293 624.883 131.28C625.197 131.26 625.47 131.23 625.703 131.19C626.49 131.043 627.127 130.713 627.613 130.2C628.1 129.687 628.457 129.047 628.683 128.28C628.91 127.513 629.023 126.687 629.023 125.8C629.023 124.893 628.907 124.057 628.673 123.29C628.447 122.523 628.09 121.887 627.603 121.38C627.117 120.873 626.483 120.55 625.703 120.41C625.47 120.363 625.193 120.333 624.873 120.32C624.553 120.307 624.273 120.3 624.033 120.3H621.423V131.3Z" fill="#110529"/>
<g filter="url(#filter12_i_5803_36292)">
<rect x="673" y="99" width="95" height="52" rx="1" fill="#C1ADFF"/>
<path d="M719.744 133.29C721.194 133.29 722.454 132.7 723.184 131.43C723.714 130.51 723.654 129.72 723.654 128.48V118.6H721.854V128.48C721.854 129.37 721.854 129.99 721.594 130.51C721.204 131.29 720.384 131.6 719.704 131.6C718.634 131.6 717.724 130.83 717.514 129.85L715.744 130.27C716.254 132.11 717.724 133.29 719.744 133.29Z" fill="#110529"/>
<rect x="673" y="99" width="95" height="52" rx="1" stroke="#110529" stroke-width="2" stroke-linecap="round"/>
</g>
<g filter="url(#filter13_i_5803_36292)">
<rect x="768" y="99" width="144" height="52" rx="1" fill="#FAFAAA"/>
<path d="M839.593 133.3C838.16 133.3 836.943 132.983 835.943 132.35C834.943 131.717 834.18 130.837 833.653 129.71C833.133 128.583 832.873 127.28 832.873 125.8C832.873 124.32 833.133 123.017 833.653 121.89C834.18 120.763 834.943 119.883 835.943 119.25C836.943 118.617 838.16 118.3 839.593 118.3C841.26 118.3 842.63 118.723 843.703 119.57C844.783 120.417 845.527 121.557 845.933 122.99L844.123 123.47C843.83 122.397 843.307 121.55 842.553 120.93C841.8 120.31 840.813 120 839.593 120C838.52 120 837.627 120.243 836.913 120.73C836.2 121.217 835.663 121.897 835.303 122.77C834.943 123.637 834.76 124.647 834.753 125.8C834.747 126.947 834.923 127.957 835.283 128.83C835.643 129.697 836.183 130.377 836.903 130.87C837.623 131.357 838.52 131.6 839.593 131.6C840.813 131.6 841.8 131.29 842.553 130.67C843.307 130.043 843.83 129.197 844.123 128.13L845.933 128.61C845.527 130.037 844.783 131.177 843.703 132.03C842.63 132.877 841.26 133.3 839.593 133.3Z" fill="#110529"/>
<rect x="768" y="99" width="144" height="52" rx="1" stroke="#110529" stroke-width="2" stroke-linecap="round"/>
</g>
<path d="M44.4 185H46.18V179.68H50.39L52.97 185H55.01L52.23 179.29C53.86 178.61 54.71 177.04 54.71 175.14C54.71 172.85 53.48 171.04 51.15 170.68C50.78 170.62 50.37 170.6 50.09 170.6H44.4V185ZM46.18 177.99V172.29H50.03C50.28 172.29 50.63 172.31 50.93 172.38C52.31 172.69 52.89 173.94 52.89 175.14C52.89 176.34 52.31 177.59 50.93 177.9C50.63 177.97 50.28 177.99 50.03 177.99H46.18ZM56.8125 184.99H66.3825V183.29H59.5525L64.1925 179.12C65.6725 177.81 66.3825 176.86 66.3825 174.97C66.3825 172.32 64.3625 170.3 61.6925 170.3C58.9225 170.3 56.8825 172.23 56.8825 174.94H58.7025C58.6825 173.37 59.9425 172 61.6625 172C63.3225 172 64.5625 173.29 64.5625 174.95C64.5625 175.86 64.2725 176.69 63.2125 177.64L56.8225 183.39L56.8125 184.99Z" fill="#110529"/>
<path d="M76 169V185H86V193L100 177L86 161V169H76Z" fill="#110529"/>
<path d="M280.5 177H103" stroke="#110529" stroke-width="2" stroke-linecap="square"/>
<rect width="57" height="20" transform="translate(280.5 167)" fill="white"/>
<path d="M288.78 183.224C288.209 183.224 287.678 183.12 287.188 182.912C286.697 182.699 286.273 182.4 285.916 182.016C285.564 181.627 285.305 181.165 285.14 180.632L286.508 180.24C286.684 180.773 286.977 181.179 287.388 181.456C287.798 181.733 288.26 181.869 288.772 181.864C289.241 181.853 289.646 181.747 289.988 181.544C290.334 181.336 290.601 181.053 290.788 180.696C290.98 180.339 291.076 179.925 291.076 179.456C291.076 178.741 290.862 178.163 290.436 177.72C290.009 177.272 289.449 177.048 288.756 177.048C288.564 177.048 288.361 177.075 288.148 177.128C287.94 177.181 287.745 177.256 287.564 177.352L286.876 176.224L291.148 172.36L291.332 172.84H285.596V171.48H292.388V172.848L288.748 176.336L288.732 175.832C289.494 175.779 290.161 175.904 290.732 176.208C291.302 176.512 291.745 176.947 292.06 177.512C292.38 178.077 292.54 178.725 292.54 179.456C292.54 180.192 292.374 180.843 292.044 181.408C291.713 181.973 291.265 182.419 290.7 182.744C290.134 183.064 289.494 183.224 288.78 183.224ZM298.508 183.24C297.761 183.24 297.094 183.072 296.508 182.736C295.926 182.395 295.465 181.933 295.124 181.352C294.788 180.765 294.62 180.099 294.62 179.352V175.128C294.62 174.381 294.788 173.715 295.124 173.128C295.465 172.541 295.926 172.08 296.508 171.744C297.094 171.408 297.761 171.24 298.508 171.24C299.254 171.24 299.921 171.408 300.508 171.744C301.094 172.08 301.556 172.541 301.892 173.128C302.228 173.715 302.396 174.381 302.396 175.128V179.352C302.396 180.099 302.228 180.765 301.892 181.352C301.556 181.933 301.094 182.395 300.508 182.736C299.921 183.072 299.254 183.24 298.508 183.24ZM298.508 181.872C298.961 181.872 299.372 181.763 299.74 181.544C300.108 181.325 300.401 181.032 300.62 180.664C300.838 180.291 300.948 179.88 300.948 179.432V175.04C300.948 174.587 300.838 174.176 300.62 173.808C300.401 173.44 300.108 173.147 299.74 172.928C299.372 172.709 298.961 172.6 298.508 172.6C298.06 172.6 297.649 172.709 297.276 172.928C296.908 173.147 296.614 173.44 296.396 173.808C296.177 174.176 296.068 174.587 296.068 175.04V179.432C296.068 179.88 296.177 180.291 296.396 180.664C296.614 181.032 296.908 181.325 297.276 181.544C297.649 181.763 298.06 181.872 298.508 181.872ZM308.523 183.24C307.776 183.24 307.11 183.072 306.523 182.736C305.942 182.395 305.48 181.933 305.139 181.352C304.803 180.765 304.635 180.099 304.635 179.352V175.128C304.635 174.381 304.803 173.715 305.139 173.128C305.48 172.541 305.942 172.08 306.523 171.744C307.11 171.408 307.776 171.24 308.523 171.24C309.27 171.24 309.936 171.408 310.523 171.744C311.11 172.08 311.571 172.541 311.907 173.128C312.243 173.715 312.411 174.381 312.411 175.128V179.352C312.411 180.099 312.243 180.765 311.907 181.352C311.571 181.933 311.11 182.395 310.523 182.736C309.936 183.072 309.27 183.24 308.523 183.24ZM308.523 181.872C308.976 181.872 309.387 181.763 309.755 181.544C310.123 181.325 310.416 181.032 310.635 180.664C310.854 180.291 310.963 179.88 310.963 179.432V175.04C310.963 174.587 310.854 174.176 310.635 173.808C310.416 173.44 310.123 173.147 309.755 172.928C309.387 172.709 308.976 172.6 308.523 172.6C308.075 172.6 307.664 172.709 307.291 172.928C306.923 173.147 306.63 173.44 306.411 173.808C306.192 174.176 306.083 174.587 306.083 175.04V179.432C306.083 179.88 306.192 180.291 306.411 180.664C306.63 181.032 306.923 181.325 307.291 181.544C307.664 181.763 308.075 181.872 308.523 181.872ZM318.619 183.24C317.808 183.24 317.125 183.04 316.571 182.64C316.016 182.235 315.595 181.688 315.307 181C315.024 180.307 314.883 179.531 314.883 178.672C314.883 177.803 315.024 177.024 315.307 176.336C315.595 175.648 316.016 175.107 316.571 174.712C317.131 174.317 317.816 174.12 318.627 174.12C319.427 174.12 320.115 174.32 320.691 174.72C321.272 175.115 321.717 175.656 322.027 176.344C322.336 177.032 322.491 177.808 322.491 178.672C322.491 179.536 322.336 180.312 322.027 181C321.717 181.688 321.272 182.235 320.691 182.64C320.115 183.04 319.424 183.24 318.619 183.24ZM314.643 183V171.48H316.075V176.64H315.915V183H314.643ZM318.443 181.936C319.013 181.936 319.485 181.792 319.859 181.504C320.232 181.216 320.512 180.827 320.699 180.336C320.885 179.84 320.979 179.285 320.979 178.672C320.979 178.064 320.885 177.515 320.699 177.024C320.517 176.533 320.235 176.144 319.851 175.856C319.472 175.568 318.989 175.424 318.403 175.424C317.843 175.424 317.379 175.563 317.011 175.84C316.643 176.112 316.368 176.493 316.187 176.984C316.005 177.469 315.915 178.032 315.915 178.672C315.915 179.301 316.003 179.864 316.179 180.36C316.36 180.851 316.637 181.237 317.011 181.52C317.384 181.797 317.861 181.936 318.443 181.936ZM328.213 183.24C327.402 183.24 326.719 183.04 326.165 182.64C325.61 182.235 325.189 181.688 324.901 181C324.618 180.307 324.477 179.531 324.477 178.672C324.477 177.803 324.618 177.024 324.901 176.336C325.189 175.648 325.61 175.107 326.165 174.712C326.725 174.317 327.41 174.12 328.221 174.12C329.021 174.12 329.709 174.32 330.285 174.72C330.866 175.115 331.311 175.656 331.621 176.344C331.93 177.032 332.085 177.808 332.085 178.672C332.085 179.536 331.93 180.312 331.621 181C331.311 181.688 330.866 182.235 330.285 182.64C329.709 183.04 329.018 183.24 328.213 183.24ZM324.237 186.84V174.36H325.509V180.72H325.669V186.84H324.237ZM328.037 181.936C328.607 181.936 329.079 181.792 329.453 181.504C329.826 181.216 330.106 180.827 330.293 180.336C330.479 179.84 330.573 179.285 330.573 178.672C330.573 178.064 330.479 177.515 330.293 177.024C330.111 176.533 329.829 176.144 329.445 175.856C329.066 175.568 328.583 175.424 327.997 175.424C327.437 175.424 326.973 175.563 326.605 175.84C326.237 176.112 325.962 176.493 325.781 176.984C325.599 177.469 325.509 178.032 325.509 178.672C325.509 179.301 325.597 179.864 325.773 180.36C325.954 180.851 326.231 181.237 326.605 181.52C326.978 181.797 327.455 181.936 328.037 181.936Z" fill="#110529"/>
<path d="M515 177H337.5" stroke="#110529" stroke-width="2" stroke-linecap="square"/>
<path d="M525 177L525.707 176.293L526.414 177L525.707 177.707L525 177ZM517.707 185.707L517 186.414L515.585 185L516.292 184.293L517.707 185.707ZM516.292 169.707L515.585 169L517 167.586L517.707 168.293L516.292 169.707ZM515 176L525 176L525 178L515 178L515 176ZM525.707 177.707L517.707 185.707L516.292 184.293L524.292 176.293L525.707 177.707ZM524.292 177.707L516.292 169.707L517.707 168.293L525.707 176.293L524.292 177.707Z" fill="#110529"/>
<path d="M464 198L463.293 198.707L462.586 198L463.293 197.293L464 198ZM471.293 189.293L472 188.586L473.414 190L472.707 190.707L471.293 189.293ZM472.707 205.293L473.414 206L472 207.414L471.293 206.707L472.707 205.293ZM474 199L464 199L464 197L474 197L474 199ZM463.293 197.293L471.293 189.293L472.707 190.707L464.707 198.707L463.293 197.293ZM464.707 197.293L472.707 205.293L471.293 206.707L463.293 198.707L464.707 197.293Z" fill="#110529"/>
<path d="M651.5 198H474" stroke="#110529" stroke-width="2" stroke-linecap="square"/>
<rect width="57" height="20" transform="translate(651.5 188)" fill="white"/>
<path d="M659.78 204.224C659.209 204.224 658.679 204.12 658.188 203.912C657.697 203.699 657.273 203.4 656.916 203.016C656.564 202.627 656.305 202.165 656.14 201.632L657.508 201.24C657.684 201.773 657.977 202.179 658.388 202.456C658.799 202.733 659.26 202.869 659.772 202.864C660.241 202.853 660.647 202.747 660.988 202.544C661.335 202.336 661.601 202.053 661.788 201.696C661.98 201.339 662.076 200.925 662.076 200.456C662.076 199.741 661.863 199.163 661.436 198.72C661.009 198.272 660.449 198.048 659.756 198.048C659.564 198.048 659.361 198.075 659.148 198.128C658.94 198.181 658.745 198.256 658.564 198.352L657.876 197.224L662.148 193.36L662.332 193.84H656.596V192.48H663.388V193.848L659.748 197.336L659.732 196.832C660.495 196.779 661.161 196.904 661.732 197.208C662.303 197.512 662.745 197.947 663.06 198.512C663.38 199.077 663.54 199.725 663.54 200.456C663.54 201.192 663.375 201.843 663.044 202.408C662.713 202.973 662.265 203.419 661.7 203.744C661.135 204.064 660.495 204.224 659.78 204.224ZM669.508 204.24C668.761 204.24 668.095 204.072 667.508 203.736C666.927 203.395 666.465 202.933 666.124 202.352C665.788 201.765 665.62 201.099 665.62 200.352V196.128C665.62 195.381 665.788 194.715 666.124 194.128C666.465 193.541 666.927 193.08 667.508 192.744C668.095 192.408 668.761 192.24 669.508 192.24C670.255 192.24 670.921 192.408 671.508 192.744C672.095 193.08 672.556 193.541 672.892 194.128C673.228 194.715 673.396 195.381 673.396 196.128V200.352C673.396 201.099 673.228 201.765 672.892 202.352C672.556 202.933 672.095 203.395 671.508 203.736C670.921 204.072 670.255 204.24 669.508 204.24ZM669.508 202.872C669.961 202.872 670.372 202.763 670.74 202.544C671.108 202.325 671.401 202.032 671.62 201.664C671.839 201.291 671.948 200.88 671.948 200.432V196.04C671.948 195.587 671.839 195.176 671.62 194.808C671.401 194.44 671.108 194.147 670.74 193.928C670.372 193.709 669.961 193.6 669.508 193.6C669.06 193.6 668.649 193.709 668.276 193.928C667.908 194.147 667.615 194.44 667.396 194.808C667.177 195.176 667.068 195.587 667.068 196.04V200.432C667.068 200.88 667.177 201.291 667.396 201.664C667.615 202.032 667.908 202.325 668.276 202.544C668.649 202.763 669.06 202.872 669.508 202.872ZM679.524 204.24C678.777 204.24 678.11 204.072 677.524 203.736C676.942 203.395 676.481 202.933 676.14 202.352C675.804 201.765 675.636 201.099 675.636 200.352V196.128C675.636 195.381 675.804 194.715 676.14 194.128C676.481 193.541 676.942 193.08 677.524 192.744C678.11 192.408 678.777 192.24 679.524 192.24C680.27 192.24 680.937 192.408 681.524 192.744C682.11 193.08 682.572 193.541 682.908 194.128C683.244 194.715 683.412 195.381 683.412 196.128V200.352C683.412 201.099 683.244 201.765 682.908 202.352C682.572 202.933 682.11 203.395 681.524 203.736C680.937 204.072 680.27 204.24 679.524 204.24ZM679.524 202.872C679.977 202.872 680.388 202.763 680.756 202.544C681.124 202.325 681.417 202.032 681.636 201.664C681.854 201.291 681.964 200.88 681.964 200.432V196.04C681.964 195.587 681.854 195.176 681.636 194.808C681.417 194.44 681.124 194.147 680.756 193.928C680.388 193.709 679.977 193.6 679.524 193.6C679.076 193.6 678.665 193.709 678.292 193.928C677.924 194.147 677.63 194.44 677.412 194.808C677.193 195.176 677.084 195.587 677.084 196.04V200.432C677.084 200.88 677.193 201.291 677.412 201.664C677.63 202.032 677.924 202.325 678.292 202.544C678.665 202.763 679.076 202.872 679.524 202.872ZM689.619 204.24C688.809 204.24 688.126 204.04 687.571 203.64C687.017 203.235 686.595 202.688 686.307 202C686.025 201.307 685.883 200.531 685.883 199.672C685.883 198.803 686.025 198.024 686.307 197.336C686.595 196.648 687.017 196.107 687.571 195.712C688.131 195.317 688.817 195.12 689.627 195.12C690.427 195.12 691.115 195.32 691.691 195.72C692.273 196.115 692.718 196.656 693.027 197.344C693.337 198.032 693.491 198.808 693.491 199.672C693.491 200.536 693.337 201.312 693.027 202C692.718 202.688 692.273 203.235 691.691 203.64C691.115 204.04 690.425 204.24 689.619 204.24ZM685.643 204V192.48H687.075V197.64H686.915V204H685.643ZM689.443 202.936C690.014 202.936 690.486 202.792 690.859 202.504C691.233 202.216 691.513 201.827 691.699 201.336C691.886 200.84 691.979 200.285 691.979 199.672C691.979 199.064 691.886 198.515 691.699 198.024C691.518 197.533 691.235 197.144 690.851 196.856C690.473 196.568 689.99 196.424 689.403 196.424C688.843 196.424 688.379 196.563 688.011 196.84C687.643 197.112 687.369 197.493 687.187 197.984C687.006 198.469 686.915 199.032 686.915 199.672C686.915 200.301 687.003 200.864 687.179 201.36C687.361 201.851 687.638 202.237 688.011 202.52C688.385 202.797 688.862 202.936 689.443 202.936ZM699.213 204.24C698.402 204.24 697.72 204.04 697.165 203.64C696.61 203.235 696.189 202.688 695.901 202C695.618 201.307 695.477 200.531 695.477 199.672C695.477 198.803 695.618 198.024 695.901 197.336C696.189 196.648 696.61 196.107 697.165 195.712C697.725 195.317 698.41 195.12 699.221 195.12C700.021 195.12 700.709 195.32 701.285 195.72C701.866 196.115 702.312 196.656 702.621 197.344C702.93 198.032 703.085 198.808 703.085 199.672C703.085 200.536 702.93 201.312 702.621 202C702.312 202.688 701.866 203.235 701.285 203.64C700.709 204.04 700.018 204.24 699.213 204.24ZM695.237 207.84V195.36H696.509V201.72H696.669V207.84H695.237ZM699.037 202.936C699.608 202.936 700.08 202.792 700.453 202.504C700.826 202.216 701.106 201.827 701.293 201.336C701.48 200.84 701.573 200.285 701.573 199.672C701.573 199.064 701.48 198.515 701.293 198.024C701.112 197.533 700.829 197.144 700.445 196.856C700.066 196.568 699.584 196.424 698.997 196.424C698.437 196.424 697.973 196.563 697.605 196.84C697.237 197.112 696.962 197.493 696.781 197.984C696.6 198.469 696.509 199.032 696.509 199.672C696.509 200.301 696.597 200.864 696.773 201.36C696.954 201.851 697.232 202.237 697.605 202.52C697.978 202.797 698.456 202.936 699.037 202.936Z" fill="#110529"/>
<path d="M886 198H708.5" stroke="#110529" stroke-width="2" stroke-linecap="square"/>
<path d="M913 190V206H903V214L889 198L903 182V190H913Z" fill="#110529"/>
<path d="M922.4 206H924.18V200.68H928.39L930.97 206H933.01L930.23 200.29C931.86 199.61 932.71 198.04 932.71 196.14C932.71 193.85 931.48 192.04 929.15 191.68C928.78 191.62 928.37 191.6 928.09 191.6H922.4V206ZM924.18 198.99V193.29H928.03C928.28 193.29 928.63 193.31 928.93 193.38C930.31 193.69 930.89 194.94 930.89 196.14C930.89 197.34 930.31 198.59 928.93 198.9C928.63 198.97 928.28 198.99 928.03 198.99H924.18ZM937.723 206H939.533V191.6H937.723L935.013 193.22V195.21L937.723 193.57V206Z" fill="#110529"/>
<path d="M406 368L405.293 368.707L404.586 368L405.293 367.293L406 368ZM413.293 359.293L414 358.586L415.414 360L414.707 360.707L413.293 359.293ZM414.707 375.293L415.414 376L414 377.414L413.293 376.707L414.707 375.293ZM416 369L406 369L406 367L416 367L416 369ZM405.293 367.293L413.293 359.293L414.707 360.707L406.707 368.707L405.293 367.293ZM406.707 367.293L414.707 375.293L413.293 376.707L405.293 368.707L406.707 367.293Z" fill="#110529"/>
<path d="M593.5 368H416" stroke="#110529" stroke-width="2" stroke-linecap="square"/>
<rect width="57" height="20" transform="translate(593.5 358)" fill="white"/>
<path d="M601.78 374.224C601.209 374.224 600.679 374.12 600.188 373.912C599.697 373.699 599.273 373.4 598.916 373.016C598.564 372.627 598.305 372.165 598.14 371.632L599.508 371.24C599.684 371.773 599.977 372.179 600.388 372.456C600.799 372.733 601.26 372.869 601.772 372.864C602.241 372.853 602.647 372.747 602.988 372.544C603.335 372.336 603.601 372.053 603.788 371.696C603.98 371.339 604.076 370.925 604.076 370.456C604.076 369.741 603.863 369.163 603.436 368.72C603.009 368.272 602.449 368.048 601.756 368.048C601.564 368.048 601.361 368.075 601.148 368.128C600.94 368.181 600.745 368.256 600.564 368.352L599.876 367.224L604.148 363.36L604.332 363.84H598.596V362.48H605.388V363.848L601.748 367.336L601.732 366.832C602.495 366.779 603.161 366.904 603.732 367.208C604.303 367.512 604.745 367.947 605.06 368.512C605.38 369.077 605.54 369.725 605.54 370.456C605.54 371.192 605.375 371.843 605.044 372.408C604.713 372.973 604.265 373.419 603.7 373.744C603.135 374.064 602.495 374.224 601.78 374.224ZM611.508 374.24C610.761 374.24 610.095 374.072 609.508 373.736C608.927 373.395 608.465 372.933 608.124 372.352C607.788 371.765 607.62 371.099 607.62 370.352V366.128C607.62 365.381 607.788 364.715 608.124 364.128C608.465 363.541 608.927 363.08 609.508 362.744C610.095 362.408 610.761 362.24 611.508 362.24C612.255 362.24 612.921 362.408 613.508 362.744C614.095 363.08 614.556 363.541 614.892 364.128C615.228 364.715 615.396 365.381 615.396 366.128V370.352C615.396 371.099 615.228 371.765 614.892 372.352C614.556 372.933 614.095 373.395 613.508 373.736C612.921 374.072 612.255 374.24 611.508 374.24ZM611.508 372.872C611.961 372.872 612.372 372.763 612.74 372.544C613.108 372.325 613.401 372.032 613.62 371.664C613.839 371.291 613.948 370.88 613.948 370.432V366.04C613.948 365.587 613.839 365.176 613.62 364.808C613.401 364.44 613.108 364.147 612.74 363.928C612.372 363.709 611.961 363.6 611.508 363.6C611.06 363.6 610.649 363.709 610.276 363.928C609.908 364.147 609.615 364.44 609.396 364.808C609.177 365.176 609.068 365.587 609.068 366.04V370.432C609.068 370.88 609.177 371.291 609.396 371.664C609.615 372.032 609.908 372.325 610.276 372.544C610.649 372.763 611.06 372.872 611.508 372.872ZM621.524 374.24C620.777 374.24 620.11 374.072 619.524 373.736C618.942 373.395 618.481 372.933 618.14 372.352C617.804 371.765 617.636 371.099 617.636 370.352V366.128C617.636 365.381 617.804 364.715 618.14 364.128C618.481 363.541 618.942 363.08 619.524 362.744C620.11 362.408 620.777 362.24 621.524 362.24C622.27 362.24 622.937 362.408 623.524 362.744C624.11 363.08 624.572 363.541 624.908 364.128C625.244 364.715 625.412 365.381 625.412 366.128V370.352C625.412 371.099 625.244 371.765 624.908 372.352C624.572 372.933 624.11 373.395 623.524 373.736C622.937 374.072 622.27 374.24 621.524 374.24ZM621.524 372.872C621.977 372.872 622.388 372.763 622.756 372.544C623.124 372.325 623.417 372.032 623.636 371.664C623.854 371.291 623.964 370.88 623.964 370.432V366.04C623.964 365.587 623.854 365.176 623.636 364.808C623.417 364.44 623.124 364.147 622.756 363.928C622.388 363.709 621.977 363.6 621.524 363.6C621.076 363.6 620.665 363.709 620.292 363.928C619.924 364.147 619.63 364.44 619.412 364.808C619.193 365.176 619.084 365.587 619.084 366.04V370.432C619.084 370.88 619.193 371.291 619.412 371.664C619.63 372.032 619.924 372.325 620.292 372.544C620.665 372.763 621.076 372.872 621.524 372.872ZM631.619 374.24C630.809 374.24 630.126 374.04 629.571 373.64C629.017 373.235 628.595 372.688 628.307 372C628.025 371.307 627.883 370.531 627.883 369.672C627.883 368.803 628.025 368.024 628.307 367.336C628.595 366.648 629.017 366.107 629.571 365.712C630.131 365.317 630.817 365.12 631.627 365.12C632.427 365.12 633.115 365.32 633.691 365.72C634.273 366.115 634.718 366.656 635.027 367.344C635.337 368.032 635.491 368.808 635.491 369.672C635.491 370.536 635.337 371.312 635.027 372C634.718 372.688 634.273 373.235 633.691 373.64C633.115 374.04 632.425 374.24 631.619 374.24ZM627.643 374V362.48H629.075V367.64H628.915V374H627.643ZM631.443 372.936C632.014 372.936 632.486 372.792 632.859 372.504C633.233 372.216 633.513 371.827 633.699 371.336C633.886 370.84 633.979 370.285 633.979 369.672C633.979 369.064 633.886 368.515 633.699 368.024C633.518 367.533 633.235 367.144 632.851 366.856C632.473 366.568 631.99 366.424 631.403 366.424C630.843 366.424 630.379 366.563 630.011 366.84C629.643 367.112 629.369 367.493 629.187 367.984C629.006 368.469 628.915 369.032 628.915 369.672C628.915 370.301 629.003 370.864 629.179 371.36C629.361 371.851 629.638 372.237 630.011 372.52C630.385 372.797 630.862 372.936 631.443 372.936ZM641.213 374.24C640.402 374.24 639.72 374.04 639.165 373.64C638.61 373.235 638.189 372.688 637.901 372C637.618 371.307 637.477 370.531 637.477 369.672C637.477 368.803 637.618 368.024 637.901 367.336C638.189 366.648 638.61 366.107 639.165 365.712C639.725 365.317 640.41 365.12 641.221 365.12C642.021 365.12 642.709 365.32 643.285 365.72C643.866 366.115 644.312 366.656 644.621 367.344C644.93 368.032 645.085 368.808 645.085 369.672C645.085 370.536 644.93 371.312 644.621 372C644.312 372.688 643.866 373.235 643.285 373.64C642.709 374.04 642.018 374.24 641.213 374.24ZM637.237 377.84V365.36H638.509V371.72H638.669V377.84H637.237ZM641.037 372.936C641.608 372.936 642.08 372.792 642.453 372.504C642.826 372.216 643.106 371.827 643.293 371.336C643.48 370.84 643.573 370.285 643.573 369.672C643.573 369.064 643.48 368.515 643.293 368.024C643.112 367.533 642.829 367.144 642.445 366.856C642.066 366.568 641.584 366.424 640.997 366.424C640.437 366.424 639.973 366.563 639.605 366.84C639.237 367.112 638.962 367.493 638.781 367.984C638.6 368.469 638.509 369.032 638.509 369.672C638.509 370.301 638.597 370.864 638.773 371.36C638.954 371.851 639.232 372.237 639.605 372.52C639.978 372.797 640.456 372.936 641.037 372.936Z" fill="#110529"/>
<path d="M828 368H650.5" stroke="#110529" stroke-width="2" stroke-linecap="square"/>
<path d="M855 360V376H845V384L831 368L845 352V360H855Z" fill="#110529"/>
<path d="M864.4 376H866.18V370.68H870.39L872.97 376H875.01L872.23 370.29C873.86 369.61 874.71 368.04 874.71 366.14C874.71 363.85 873.48 362.04 871.15 361.68C870.78 361.62 870.37 361.6 870.09 361.6H864.4V376ZM866.18 368.99V363.29H870.03C870.28 363.29 870.63 363.31 870.93 363.38C872.31 363.69 872.89 364.94 872.89 366.14C872.89 367.34 872.31 368.59 870.93 368.9C870.63 368.97 870.28 368.99 870.03 368.99H866.18ZM879.723 376H881.533V361.6H879.723L877.013 363.22V365.21L879.723 363.57V376Z" fill="#110529"/>
<path d="M44.4 355H46.18V349.68H50.39L52.97 355H55.01L52.23 349.29C53.86 348.61 54.71 347.04 54.71 345.14C54.71 342.85 53.48 341.04 51.15 340.68C50.78 340.62 50.37 340.6 50.09 340.6H44.4V355ZM46.18 347.99V342.29H50.03C50.28 342.29 50.63 342.31 50.93 342.38C52.31 342.69 52.89 343.94 52.89 345.14C52.89 346.34 52.31 347.59 50.93 347.9C50.63 347.97 50.28 347.99 50.03 347.99H46.18ZM56.8125 354.99H66.3825V353.29H59.5525L64.1925 349.12C65.6725 347.81 66.3825 346.86 66.3825 344.97C66.3825 342.32 64.3625 340.3 61.6925 340.3C58.9225 340.3 56.8825 342.23 56.8825 344.94H58.7025C58.6825 343.37 59.9425 342 61.6625 342C63.3225 342 64.5625 343.29 64.5625 344.95C64.5625 345.86 64.2725 346.69 63.2125 347.64L56.8225 353.39L56.8125 354.99Z" fill="#110529"/>
<path d="M76 339V355H86V363L100 347L86 331V339H76Z" fill="#110529"/>
<path d="M280.5 347H103" stroke="#110529" stroke-width="2" stroke-linecap="square"/>
<rect width="57" height="20" transform="translate(280.5 337)" fill="white"/>
<path d="M288.78 353.224C288.209 353.224 287.678 353.12 287.188 352.912C286.697 352.699 286.273 352.4 285.916 352.016C285.564 351.627 285.305 351.165 285.14 350.632L286.508 350.24C286.684 350.773 286.977 351.179 287.388 351.456C287.798 351.733 288.26 351.869 288.772 351.864C289.241 351.853 289.646 351.747 289.988 351.544C290.334 351.336 290.601 351.053 290.788 350.696C290.98 350.339 291.076 349.925 291.076 349.456C291.076 348.741 290.862 348.163 290.436 347.72C290.009 347.272 289.449 347.048 288.756 347.048C288.564 347.048 288.361 347.075 288.148 347.128C287.94 347.181 287.745 347.256 287.564 347.352L286.876 346.224L291.148 342.36L291.332 342.84H285.596V341.48H292.388V342.848L288.748 346.336L288.732 345.832C289.494 345.779 290.161 345.904 290.732 346.208C291.302 346.512 291.745 346.947 292.06 347.512C292.38 348.077 292.54 348.725 292.54 349.456C292.54 350.192 292.374 350.843 292.044 351.408C291.713 351.973 291.265 352.419 290.7 352.744C290.134 353.064 289.494 353.224 288.78 353.224ZM298.508 353.24C297.761 353.24 297.094 353.072 296.508 352.736C295.926 352.395 295.465 351.933 295.124 351.352C294.788 350.765 294.62 350.099 294.62 349.352V345.128C294.62 344.381 294.788 343.715 295.124 343.128C295.465 342.541 295.926 342.08 296.508 341.744C297.094 341.408 297.761 341.24 298.508 341.24C299.254 341.24 299.921 341.408 300.508 341.744C301.094 342.08 301.556 342.541 301.892 343.128C302.228 343.715 302.396 344.381 302.396 345.128V349.352C302.396 350.099 302.228 350.765 301.892 351.352C301.556 351.933 301.094 352.395 300.508 352.736C299.921 353.072 299.254 353.24 298.508 353.24ZM298.508 351.872C298.961 351.872 299.372 351.763 299.74 351.544C300.108 351.325 300.401 351.032 300.62 350.664C300.838 350.291 300.948 349.88 300.948 349.432V345.04C300.948 344.587 300.838 344.176 300.62 343.808C300.401 343.44 300.108 343.147 299.74 342.928C299.372 342.709 298.961 342.6 298.508 342.6C298.06 342.6 297.649 342.709 297.276 342.928C296.908 343.147 296.614 343.44 296.396 343.808C296.177 344.176 296.068 344.587 296.068 345.04V349.432C296.068 349.88 296.177 350.291 296.396 350.664C296.614 351.032 296.908 351.325 297.276 351.544C297.649 351.763 298.06 351.872 298.508 351.872ZM308.523 353.24C307.776 353.24 307.11 353.072 306.523 352.736C305.942 352.395 305.48 351.933 305.139 351.352C304.803 350.765 304.635 350.099 304.635 349.352V345.128C304.635 344.381 304.803 343.715 305.139 343.128C305.48 342.541 305.942 342.08 306.523 341.744C307.11 341.408 307.776 341.24 308.523 341.24C309.27 341.24 309.936 341.408 310.523 341.744C311.11 342.08 311.571 342.541 311.907 343.128C312.243 343.715 312.411 344.381 312.411 345.128V349.352C312.411 350.099 312.243 350.765 311.907 351.352C311.571 351.933 311.11 352.395 310.523 352.736C309.936 353.072 309.27 353.24 308.523 353.24ZM308.523 351.872C308.976 351.872 309.387 351.763 309.755 351.544C310.123 351.325 310.416 351.032 310.635 350.664C310.854 350.291 310.963 349.88 310.963 349.432V345.04C310.963 344.587 310.854 344.176 310.635 343.808C310.416 343.44 310.123 343.147 309.755 342.928C309.387 342.709 308.976 342.6 308.523 342.6C308.075 342.6 307.664 342.709 307.291 342.928C306.923 343.147 306.63 343.44 306.411 343.808C306.192 344.176 306.083 344.587 306.083 345.04V349.432C306.083 349.88 306.192 350.291 306.411 350.664C306.63 351.032 306.923 351.325 307.291 351.544C307.664 351.763 308.075 351.872 308.523 351.872ZM318.619 353.24C317.808 353.24 317.125 353.04 316.571 352.64C316.016 352.235 315.595 351.688 315.307 351C315.024 350.307 314.883 349.531 314.883 348.672C314.883 347.803 315.024 347.024 315.307 346.336C315.595 345.648 316.016 345.107 316.571 344.712C317.131 344.317 317.816 344.12 318.627 344.12C319.427 344.12 320.115 344.32 320.691 344.72C321.272 345.115 321.717 345.656 322.027 346.344C322.336 347.032 322.491 347.808 322.491 348.672C322.491 349.536 322.336 350.312 322.027 351C321.717 351.688 321.272 352.235 320.691 352.64C320.115 353.04 319.424 353.24 318.619 353.24ZM314.643 353V341.48H316.075V346.64H315.915V353H314.643ZM318.443 351.936C319.013 351.936 319.485 351.792 319.859 351.504C320.232 351.216 320.512 350.827 320.699 350.336C320.885 349.84 320.979 349.285 320.979 348.672C320.979 348.064 320.885 347.515 320.699 347.024C320.517 346.533 320.235 346.144 319.851 345.856C319.472 345.568 318.989 345.424 318.403 345.424C317.843 345.424 317.379 345.563 317.011 345.84C316.643 346.112 316.368 346.493 316.187 346.984C316.005 347.469 315.915 348.032 315.915 348.672C315.915 349.301 316.003 349.864 316.179 350.36C316.36 350.851 316.637 351.237 317.011 351.52C317.384 351.797 317.861 351.936 318.443 351.936ZM328.213 353.24C327.402 353.24 326.719 353.04 326.165 352.64C325.61 352.235 325.189 351.688 324.901 351C324.618 350.307 324.477 349.531 324.477 348.672C324.477 347.803 324.618 347.024 324.901 346.336C325.189 345.648 325.61 345.107 326.165 344.712C326.725 344.317 327.41 344.12 328.221 344.12C329.021 344.12 329.709 344.32 330.285 344.72C330.866 345.115 331.311 345.656 331.621 346.344C331.93 347.032 332.085 347.808 332.085 348.672C332.085 349.536 331.93 350.312 331.621 351C331.311 351.688 330.866 352.235 330.285 352.64C329.709 353.04 329.018 353.24 328.213 353.24ZM324.237 356.84V344.36H325.509V350.72H325.669V356.84H324.237ZM328.037 351.936C328.607 351.936 329.079 351.792 329.453 351.504C329.826 351.216 330.106 350.827 330.293 350.336C330.479 349.84 330.573 349.285 330.573 348.672C330.573 348.064 330.479 347.515 330.293 347.024C330.111 346.533 329.829 346.144 329.445 345.856C329.066 345.568 328.583 345.424 327.997 345.424C327.437 345.424 326.973 345.563 326.605 345.84C326.237 346.112 325.962 346.493 325.781 346.984C325.599 347.469 325.509 348.032 325.509 348.672C325.509 349.301 325.597 349.864 325.773 350.36C325.954 350.851 326.231 351.237 326.605 351.52C326.978 351.797 327.455 351.936 328.037 351.936Z" fill="#110529"/>
<path d="M515 347H337.5" stroke="#110529" stroke-width="2" stroke-linecap="square"/>
<path d="M525 347L525.707 346.293L526.414 347L525.707 347.707L525 347ZM517.707 355.707L517 356.414L515.585 355L516.292 354.293L517.707 355.707ZM516.292 339.707L515.585 339L517 337.586L517.707 338.293L516.292 339.707ZM515 346L525 346L525 348L515 348L515 346ZM525.707 347.707L517.707 355.707L516.292 354.293L524.292 346.293L525.707 347.707ZM524.292 347.707L516.292 339.707L517.707 338.293L525.707 346.293L524.292 347.707Z" fill="#110529"/>
<defs>
<filter id="filter0_i_5803_36292" x="76" y="264" width="74" height="54" filterUnits="userSpaceOnUse" color-interpolation-filters="sRGB">
<feFlood flood-opacity="0" result="BackgroundImageFix"/>
<feBlend mode="normal" in="SourceGraphic" in2="BackgroundImageFix" result="shape"/>
<feColorMatrix in="SourceAlpha" type="matrix" values="0 0 0 0 0 0 0 0 0 0 0 0 0 0 0 0 0 0 127 0" result="hardAlpha"/>
<feOffset dx="-8" dy="-4"/>
<feComposite in2="hardAlpha" operator="arithmetic" k2="-1" k3="1"/>
<feColorMatrix type="matrix" values="0 0 0 0 0.0666667 0 0 0 0 0.0196078 0 0 0 0 0.160784 0 0 0 0.16 0"/>
<feBlend mode="normal" in2="shape" result="effect1_innerShadow_5803_36292"/>
</filter>
<filter id="filter1_i_5803_36292" x="148" y="264" width="58" height="54" filterUnits="userSpaceOnUse" color-interpolation-filters="sRGB">
<feFlood flood-opacity="0" result="BackgroundImageFix"/>
<feBlend mode="normal" in="SourceGraphic" in2="BackgroundImageFix" result="shape"/>
<feColorMatrix in="SourceAlpha" type="matrix" values="0 0 0 0 0 0 0 0 0 0 0 0 0 0 0 0 0 0 127 0" result="hardAlpha"/>
<feOffset dx="-8" dy="-4"/>
<feComposite in2="hardAlpha" operator="arithmetic" k2="-1" k3="1"/>
<feColorMatrix type="matrix" values="0 0 0 0 0.0666667 0 0 0 0 0.0196078 0 0 0 0 0.160784 0 0 0 0.16 0"/>
<feBlend mode="normal" in2="shape" result="effect1_innerShadow_5803_36292"/>
</filter>
<filter id="filter2_i_5803_36292" x="204" y="264" width="375" height="54" filterUnits="userSpaceOnUse" color-interpolation-filters="sRGB">
<feFlood flood-opacity="0" result="BackgroundImageFix"/>
<feBlend mode="normal" in="SourceGraphic" in2="BackgroundImageFix" result="shape"/>
<feColorMatrix in="SourceAlpha" type="matrix" values="0 0 0 0 0 0 0 0 0 0 0 0 0 0 0 0 0 0 127 0" result="hardAlpha"/>
<feOffset dx="-8" dy="-4"/>
<feComposite in2="hardAlpha" operator="arithmetic" k2="-1" k3="1"/>
<feColorMatrix type="matrix" values="0 0 0 0 0.0666667 0 0 0 0 0.0196078 0 0 0 0 0.160784 0 0 0 0.16 0"/>
<feBlend mode="normal" in2="shape" result="effect1_innerShadow_5803_36292"/>
</filter>
<filter id="filter3_i_5803_36292" x="577" y="264" width="32" height="54" filterUnits="userSpaceOnUse" color-interpolation-filters="sRGB">
<feFlood flood-opacity="0" result="BackgroundImageFix"/>
<feBlend mode="normal" in="SourceGraphic" in2="BackgroundImageFix" result="shape"/>
<feColorMatrix in="SourceAlpha" type="matrix" values="0 0 0 0 0 0 0 0 0 0 0 0 0 0 0 0 0 0 127 0" result="hardAlpha"/>
<feOffset dx="-8" dy="-4"/>
<feComposite in2="hardAlpha" operator="arithmetic" k2="-1" k3="1"/>
<feColorMatrix type="matrix" values="0 0 0 0 0.0666667 0 0 0 0 0.0196078 0 0 0 0 0.160784 0 0 0 0.16 0"/>
<feBlend mode="normal" in2="shape" result="effect1_innerShadow_5803_36292"/>
</filter>
<filter id="filter4_i_5803_36292" x="607" y="264" width="103" height="54" filterUnits="userSpaceOnUse" color-interpolation-filters="sRGB">
<feFlood flood-opacity="0" result="BackgroundImageFix"/>
<feBlend mode="normal" in="SourceGraphic" in2="BackgroundImageFix" result="shape"/>
<feColorMatrix in="SourceAlpha" type="matrix" values="0 0 0 0 0 0 0 0 0 0 0 0 0 0 0 0 0 0 127 0" result="hardAlpha"/>
<feOffset dx="-8" dy="-4"/>
<feComposite in2="hardAlpha" operator="arithmetic" k2="-1" k3="1"/>
<feColorMatrix type="matrix" values="0 0 0 0 0.0666667 0 0 0 0 0.0196078 0 0 0 0 0.160784 0 0 0 0.16 0"/>
<feBlend mode="normal" in2="shape" result="effect1_innerShadow_5803_36292"/>
</filter>
<filter id="filter5_i_5803_36292" x="708" y="264" width="146" height="54" filterUnits="userSpaceOnUse" color-interpolation-filters="sRGB">
<feFlood flood-opacity="0" result="BackgroundImageFix"/>
<feBlend mode="normal" in="SourceGraphic" in2="BackgroundImageFix" result="shape"/>
<feColorMatrix in="SourceAlpha" type="matrix" values="0 0 0 0 0 0 0 0 0 0 0 0 0 0 0 0 0 0 127 0" result="hardAlpha"/>
<feOffset dx="-8" dy="-4"/>
<feComposite in2="hardAlpha" operator="arithmetic" k2="-1" k3="1"/>
<feColorMatrix type="matrix" values="0 0 0 0 0.0666667 0 0 0 0 0.0196078 0 0 0 0 0.160784 0 0 0 0.16 0"/>
<feBlend mode="normal" in2="shape" result="effect1_innerShadow_5803_36292"/>
</filter>
<filter id="filter6_i_5803_36292" x="76" y="98" width="74" height="54" filterUnits="userSpaceOnUse" color-interpolation-filters="sRGB">
<feFlood flood-opacity="0" result="BackgroundImageFix"/>
<feBlend mode="normal" in="SourceGraphic" in2="BackgroundImageFix" result="shape"/>
<feColorMatrix in="SourceAlpha" type="matrix" values="0 0 0 0 0 0 0 0 0 0 0 0 0 0 0 0 0 0 127 0" result="hardAlpha"/>
<feOffset dx="-8" dy="-4"/>
<feComposite in2="hardAlpha" operator="arithmetic" k2="-1" k3="1"/>
<feColorMatrix type="matrix" values="0 0 0 0 0.0666667 0 0 0 0 0.0196078 0 0 0 0 0.160784 0 0 0 0.16 0"/>
<feBlend mode="normal" in2="shape" result="effect1_innerShadow_5803_36292"/>
</filter>
<filter id="filter7_i_5803_36292" x="148" y="98" width="58" height="54" filterUnits="userSpaceOnUse" color-interpolation-filters="sRGB">
<feFlood flood-opacity="0" result="BackgroundImageFix"/>
<feBlend mode="normal" in="SourceGraphic" in2="BackgroundImageFix" result="shape"/>
<feColorMatrix in="SourceAlpha" type="matrix" values="0 0 0 0 0 0 0 0 0 0 0 0 0 0 0 0 0 0 127 0" result="hardAlpha"/>
<feOffset dx="-8" dy="-4"/>
<feComposite in2="hardAlpha" operator="arithmetic" k2="-1" k3="1"/>
<feColorMatrix type="matrix" values="0 0 0 0 0.0666667 0 0 0 0 0.0196078 0 0 0 0 0.160784 0 0 0 0.16 0"/>
<feBlend mode="normal" in2="shape" result="effect1_innerShadow_5803_36292"/>
</filter>
<filter id="filter8_i_5803_36292" x="204" y="98" width="374" height="54" filterUnits="userSpaceOnUse" color-interpolation-filters="sRGB">
<feFlood flood-opacity="0" result="BackgroundImageFix"/>
<feBlend mode="normal" in="SourceGraphic" in2="BackgroundImageFix" result="shape"/>
<feColorMatrix in="SourceAlpha" type="matrix" values="0 0 0 0 0 0 0 0 0 0 0 0 0 0 0 0 0 0 127 0" result="hardAlpha"/>
<feOffset dx="-8" dy="-4"/>
<feComposite in2="hardAlpha" operator="arithmetic" k2="-1" k3="1"/>
<feColorMatrix type="matrix" values="0 0 0 0 0.0666667 0 0 0 0 0.0196078 0 0 0 0 0.160784 0 0 0 0.16 0"/>
<feBlend mode="normal" in2="shape" result="effect1_innerShadow_5803_36292"/>
</filter>
<filter id="filter9_i_5803_36292" x="576" y="98" width="32" height="54" filterUnits="userSpaceOnUse" color-interpolation-filters="sRGB">
<feFlood flood-opacity="0" result="BackgroundImageFix"/>
<feBlend mode="normal" in="SourceGraphic" in2="BackgroundImageFix" result="shape"/>
<feColorMatrix in="SourceAlpha" type="matrix" values="0 0 0 0 0 0 0 0 0 0 0 0 0 0 0 0 0 0 127 0" result="hardAlpha"/>
<feOffset dx="-8" dy="-4"/>
<feComposite in2="hardAlpha" operator="arithmetic" k2="-1" k3="1"/>
<feColorMatrix type="matrix" values="0 0 0 0 0.0666667 0 0 0 0 0.0196078 0 0 0 0 0.160784 0 0 0 0.16 0"/>
<feBlend mode="normal" in2="shape" result="effect1_innerShadow_5803_36292"/>
</filter>
<filter id="filter10_i_5803_36292" x="642" y="98" width="32" height="54" filterUnits="userSpaceOnUse" color-interpolation-filters="sRGB">
<feFlood flood-opacity="0" result="BackgroundImageFix"/>
<feBlend mode="normal" in="SourceGraphic" in2="BackgroundImageFix" result="shape"/>
<feColorMatrix in="SourceAlpha" type="matrix" values="0 0 0 0 0 0 0 0 0 0 0 0 0 0 0 0 0 0 127 0" result="hardAlpha"/>
<feOffset dx="-8" dy="-4"/>
<feComposite in2="hardAlpha" operator="arithmetic" k2="-1" k3="1"/>
<feColorMatrix type="matrix" values="0 0 0 0 0.0666667 0 0 0 0 0.0196078 0 0 0 0 0.160784 0 0 0 0.16 0"/>
<feBlend mode="normal" in2="shape" result="effect1_innerShadow_5803_36292"/>
</filter>
<filter id="filter11_i_5803_36292" x="606" y="98" width="38" height="54" filterUnits="userSpaceOnUse" color-interpolation-filters="sRGB">
<feFlood flood-opacity="0" result="BackgroundImageFix"/>
<feBlend mode="normal" in="SourceGraphic" in2="BackgroundImageFix" result="shape"/>
<feColorMatrix in="SourceAlpha" type="matrix" values="0 0 0 0 0 0 0 0 0 0 0 0 0 0 0 0 0 0 127 0" result="hardAlpha"/>
<feOffset dx="-8" dy="-4"/>
<feComposite in2="hardAlpha" operator="arithmetic" k2="-1" k3="1"/>
<feColorMatrix type="matrix" values="0 0 0 0 0.0666667 0 0 0 0 0.0196078 0 0 0 0 0.160784 0 0 0 0.16 0"/>
<feBlend mode="normal" in2="shape" result="effect1_innerShadow_5803_36292"/>
</filter>
<filter id="filter12_i_5803_36292" x="672" y="98" width="97" height="54" filterUnits="userSpaceOnUse" color-interpolation-filters="sRGB">
<feFlood flood-opacity="0" result="BackgroundImageFix"/>
<feBlend mode="normal" in="SourceGraphic" in2="BackgroundImageFix" result="shape"/>
<feColorMatrix in="SourceAlpha" type="matrix" values="0 0 0 0 0 0 0 0 0 0 0 0 0 0 0 0 0 0 127 0" result="hardAlpha"/>
<feOffset dx="-8" dy="-4"/>
<feComposite in2="hardAlpha" operator="arithmetic" k2="-1" k3="1"/>
<feColorMatrix type="matrix" values="0 0 0 0 0.0666667 0 0 0 0 0.0196078 0 0 0 0 0.160784 0 0 0 0.16 0"/>
<feBlend mode="normal" in2="shape" result="effect1_innerShadow_5803_36292"/>
</filter>
<filter id="filter13_i_5803_36292" x="767" y="98" width="146" height="54" filterUnits="userSpaceOnUse" color-interpolation-filters="sRGB">
<feFlood flood-opacity="0" result="BackgroundImageFix"/>
<feBlend mode="normal" in="SourceGraphic" in2="BackgroundImageFix" result="shape"/>
<feColorMatrix in="SourceAlpha" type="matrix" values="0 0 0 0 0 0 0 0 0 0 0 0 0 0 0 0 0 0 127 0" result="hardAlpha"/>
<feOffset dx="-8" dy="-4"/>
<feComposite in2="hardAlpha" operator="arithmetic" k2="-1" k3="1"/>
<feColorMatrix type="matrix" values="0 0 0 0 0.0666667 0 0 0 0 0.0196078 0 0 0 0 0.160784 0 0 0 0.16 0"/>
<feBlend mode="normal" in2="shape" result="effect1_innerShadow_5803_36292"/>
</filter>
</defs>
</svg>
