<svg width="960" height="328" viewBox="0 0 960 328" fill="none" xmlns="http://www.w3.org/2000/svg">
<rect width="960" height="328" fill="#1D1D29"/>
<path d="M452 112V24" stroke="white" stroke-opacity="0.3" stroke-width="2" stroke-linecap="square" stroke-dasharray="6 6"/>
<path d="M374.805 37H376.268V32.695H379.936V31.225H376.268V28.383H380.776V26.92H374.805V37ZM382.038 37H383.501V33.381H386.175L387.932 37H389.605L387.701 33.094C388.842 32.597 389.416 31.491 389.416 30.147C389.416 28.516 388.576 27.235 386.889 26.976C386.623 26.934 386.308 26.92 386.112 26.92H382.038V37ZM383.501 31.995V28.299H386.056C386.238 28.299 386.483 28.313 386.693 28.369C387.589 28.579 387.925 29.405 387.925 30.147C387.925 30.889 387.589 31.715 386.693 31.932C386.483 31.981 386.238 31.995 386.056 31.995H383.501ZM393.964 37.189C395.847 37.189 397.331 35.796 397.331 33.871C397.331 32.233 396.323 30.924 394.692 30.707L397.184 28.313V26.92H391.122V28.313H395.392L392.312 31.036L392.998 32.191C393.285 32.037 393.628 31.939 393.95 31.939C395.07 31.939 395.833 32.751 395.833 33.871C395.833 34.984 395.07 35.789 393.964 35.803C393.138 35.81 392.403 35.341 392.137 34.466L390.723 34.858C391.15 36.293 392.466 37.189 393.964 37.189Z" fill="white" fill-opacity="0.3"/>
<path d="M498.682 37.21C501.006 37.21 502.567 35.943 503.162 33.955L501.678 33.556C501.279 34.963 500.278 35.817 498.682 35.817C496.54 35.817 495.448 34.27 495.462 31.96C495.469 29.65 496.54 28.103 498.682 28.103C500.278 28.103 501.279 28.957 501.678 30.364L503.162 29.965C502.567 27.977 501.006 26.71 498.682 26.71C495.658 26.71 493.915 28.845 493.915 31.96C493.915 35.075 495.658 37.21 498.682 37.21ZM504.702 37H507.859C508.041 37 508.643 37 509.112 36.937C511.478 36.636 512.738 34.529 512.738 31.96C512.738 29.391 511.478 27.284 509.112 26.983C508.643 26.92 508.041 26.92 507.859 26.92H504.702V37ZM506.2 35.607V28.313H507.859C508.167 28.313 508.671 28.32 509.007 28.383C510.519 28.663 511.184 30.189 511.184 31.96C511.184 33.689 510.547 35.243 509.007 35.537C508.671 35.6 508.181 35.607 507.859 35.607H506.2ZM514.368 37H515.831V33.381H518.505L520.262 37H521.935L520.031 33.094C521.172 32.597 521.746 31.491 521.746 30.147C521.746 28.516 520.906 27.235 519.219 26.976C518.953 26.934 518.638 26.92 518.442 26.92H514.368V37ZM515.831 31.995V28.299H518.386C518.568 28.299 518.813 28.313 519.023 28.369C519.919 28.579 520.255 29.405 520.255 30.147C520.255 30.889 519.919 31.715 519.023 31.932C518.813 31.981 518.568 31.995 518.386 31.995H515.831ZM526.294 37.189C528.177 37.189 529.661 35.796 529.661 33.871C529.661 32.233 528.653 30.924 527.022 30.707L529.514 28.313V26.92H523.452V28.313H527.722L524.642 31.036L525.328 32.191C525.615 32.037 525.958 31.939 526.28 31.939C527.4 31.939 528.163 32.751 528.163 33.871C528.163 34.984 527.4 35.789 526.294 35.803C525.468 35.81 524.733 35.341 524.467 34.466L523.053 34.858C523.48 36.293 524.796 37.189 526.294 37.189Z" fill="white" fill-opacity="0.3"/>
<path d="M573 112V24" stroke="white" stroke-opacity="0.3" stroke-width="2" stroke-linecap="square" stroke-dasharray="6 6"/>
<path d="M626.593 37H628.056V32.695H631.724V31.225H628.056V28.383H632.564V26.92H626.593V37ZM633.826 37H635.289V33.381H637.963L639.72 37H641.393L639.489 33.094C640.63 32.597 641.204 31.491 641.204 30.147C641.204 28.516 640.364 27.235 638.677 26.976C638.411 26.934 638.096 26.92 637.9 26.92H633.826V37ZM635.289 31.995V28.299H637.844C638.026 28.299 638.271 28.313 638.481 28.369C639.377 28.579 639.713 29.405 639.713 30.147C639.713 30.889 639.377 31.715 638.481 31.932C638.271 31.981 638.026 31.995 637.844 31.995H635.289ZM647.201 37H648.685V35.243H649.686V33.857H648.685V31.127H647.201V33.857H644.324L647.6 26.92H645.927L642.651 33.857V35.243H647.201V37Z" fill="white" fill-opacity="0.3"/>
<g filter="url(#filter0_i_6281_38587)">
<path fill-rule="evenodd" clip-rule="evenodd" d="M257.6 80H249L244 86.5L249 93L244 99.5L249 106L244 112L249 119L244 125.5L249 132H257.6H258H462.4C462.96 132 463.24 132 463.454 131.891C463.642 131.795 463.795 131.642 463.891 131.454C464 131.24 464 130.96 464 130.4V125.5V119V112V106V99.5V93V86.5V81.6C464 81.0399 464 80.7599 463.891 80.546C463.795 80.3578 463.642 80.2049 463.454 80.109C463.24 80 462.96 80 462.4 80H258H257.6Z" fill="#99E099"/>
</g>
<path d="M249 80V79H248.508L248.207 79.3903L249 80ZM244 86.5L243.207 85.8903L242.738 86.5L243.207 87.1097L244 86.5ZM249 93L249.793 93.6097L250.262 93L249.793 92.3903L249 93ZM244 99.5L243.207 98.8903L242.738 99.5L243.207 100.11L244 99.5ZM249 106L249.768 106.64L250.281 106.025L249.793 105.39L249 106ZM244 112L243.232 111.36L242.737 111.953L243.186 112.581L244 112ZM249 119L249.793 119.61L250.245 119.022L249.814 118.419L249 119ZM244 125.5L243.207 124.89L242.738 125.5L243.207 126.11L244 125.5ZM249 132L248.207 132.61L248.508 133H249V132ZM463.454 131.891L463.908 132.782L463.908 132.782L463.454 131.891ZM463.891 131.454L463 131L463.891 131.454ZM463.891 80.546L463 81V81L463.891 80.546ZM463.454 80.109L463.908 79.218V79.218L463.454 80.109ZM249 81H257.6V79H249V81ZM244.793 87.1097L249.793 80.6097L248.207 79.3903L243.207 85.8903L244.793 87.1097ZM249.793 92.3903L244.793 85.8903L243.207 87.1097L248.207 93.6097L249.793 92.3903ZM244.793 100.11L249.793 93.6097L248.207 92.3903L243.207 98.8903L244.793 100.11ZM249.793 105.39L244.793 98.8903L243.207 100.11L248.207 106.61L249.793 105.39ZM244.768 112.64L249.768 106.64L248.232 105.36L243.232 111.36L244.768 112.64ZM249.814 118.419L244.814 111.419L243.186 112.581L248.186 119.581L249.814 118.419ZM244.793 126.11L249.793 119.61L248.207 118.39L243.207 124.89L244.793 126.11ZM249.793 131.39L244.793 124.89L243.207 126.11L248.207 132.61L249.793 131.39ZM257.6 131H249V133H257.6V131ZM257.6 133H258V131H257.6V133ZM258 133H462.4V131H258V133ZM462.4 133C462.664 133 462.921 133.001 463.138 132.983C463.367 132.964 463.637 132.92 463.908 132.782L463 131C463.058 130.971 463.08 130.981 462.975 130.99C462.859 130.999 462.697 131 462.4 131V133ZM463.908 132.782C464.284 132.59 464.59 132.284 464.782 131.908L463 131L463 131L463.908 132.782ZM464.782 131.908C464.92 131.637 464.964 131.367 464.983 131.138C465.001 130.921 465 130.664 465 130.4H463C463 130.697 462.999 130.859 462.99 130.975C462.981 131.08 462.971 131.058 463 131L464.782 131.908ZM465 130.4V125.5H463V130.4H465ZM465 125.5V119H463V125.5H465ZM465 119V112H463V119H465ZM465 112V106H463V112H465ZM465 106V99.5H463V106H465ZM465 99.5V93H463V99.5H465ZM465 93V86.5H463V93H465ZM465 86.5V81.6H463V86.5H465ZM465 81.6C465 81.3365 465.001 81.0787 464.983 80.8618C464.964 80.6332 464.92 80.3634 464.782 80.092L463 81C462.971 80.9425 462.981 80.9197 462.99 81.0246C462.999 81.1412 463 81.3035 463 81.6H465ZM464.782 80.092C464.59 79.7157 464.284 79.4097 463.908 79.218L463 81V81L464.782 80.092ZM463.908 79.218C463.637 79.0797 463.367 79.0356 463.138 79.0169C462.921 78.9992 462.664 79 462.4 79V81C462.697 81 462.859 81.0008 462.975 81.0103C463.08 81.0189 463.058 81.0293 463 81L463.908 79.218ZM462.4 79H258V81H462.4V79ZM258 79H257.6V81H258V79Z" fill="#110529"/>
<path d="M354.758 114L349.938 99.6H351.788L355.978 112.11L360.208 99.6H362.058L357.238 114H354.758Z" fill="#110529"/>
<g filter="url(#filter1_i_6281_38587)">
<rect x="464" y="80" width="30" height="52" rx="1" fill="#CBEB67"/>
</g>
<rect x="464" y="80" width="30" height="52" rx="1" stroke="#110529" stroke-width="2" stroke-linecap="round"/>
<g filter="url(#filter2_i_6281_38587)">
<rect x="530" y="80" width="30" height="52" rx="1" fill="#FAAAFA"/>
</g>
<rect x="530" y="80" width="30" height="52" rx="1" stroke="#110529" stroke-width="2" stroke-linecap="round"/>
<g filter="url(#filter3_i_6281_38587)">
<rect x="494" y="80" width="36" height="52" rx="1" fill="#FFCB8F"/>
</g>
<rect x="494" y="80" width="36" height="52" rx="1" stroke="#110529" stroke-width="2" stroke-linecap="round"/>
<path d="M473.447 114V99.6H475.247L482.757 110.85V99.6H484.557V114H482.757L475.247 102.74V114H473.447Z" fill="#110529"/>
<path d="M539.447 114V99.6H541.247L548.757 110.85V99.6H550.557V114H548.757L541.247 102.74V114H539.447Z" fill="#110529"/>
<path d="M506.593 114V99.6H511.033C511.18 99.6 511.437 99.6033 511.803 99.61C512.17 99.6167 512.52 99.6433 512.853 99.69C513.967 99.8367 514.897 100.243 515.643 100.91C516.397 101.57 516.963 102.41 517.343 103.43C517.723 104.45 517.913 105.573 517.913 106.8C517.913 108.027 517.723 109.15 517.343 110.17C516.963 111.19 516.397 112.033 515.643 112.7C514.897 113.36 513.967 113.763 512.853 113.91C512.52 113.95 512.167 113.977 511.793 113.99C511.427 113.997 511.173 114 511.033 114H506.593ZM508.423 112.3H511.033C511.287 112.3 511.57 112.293 511.883 112.28C512.197 112.26 512.47 112.23 512.703 112.19C513.49 112.043 514.127 111.713 514.613 111.2C515.1 110.687 515.457 110.047 515.683 109.28C515.91 108.513 516.023 107.687 516.023 106.8C516.023 105.893 515.907 105.057 515.673 104.29C515.447 103.523 515.09 102.887 514.603 102.38C514.117 101.873 513.483 101.55 512.703 101.41C512.47 101.363 512.193 101.333 511.873 101.32C511.553 101.307 511.273 101.3 511.033 101.3H508.423V112.3Z" fill="#110529"/>
<g filter="url(#filter4_i_6281_38587)">
<path d="M704 132L561.6 132C561.04 132 560.76 132 560.546 131.891C560.358 131.795 560.205 131.642 560.109 131.454C560 131.24 560 130.96 560 130.4V106V81.6C560 81.0399 560 80.7599 560.109 80.546C560.205 80.3578 560.358 80.2049 560.546 80.109C560.76 80 561.04 80 561.6 80L704 80L699 86.5L704 93L699 100L704 106L699 112.5L704 119L699 125.5L704 132Z" fill="#C1ADFF"/>
</g>
<path d="M704 132L561.6 132C561.04 132 560.76 132 560.546 131.891C560.358 131.795 560.205 131.642 560.109 131.454C560 131.24 560 130.96 560 130.4V106V81.6C560 81.0399 560 80.7599 560.109 80.546C560.205 80.3578 560.358 80.2049 560.546 80.109C560.76 80 561.04 80 561.6 80L704 80L699 86.5L704 93L699 100L704 106L699 112.5L704 119L699 125.5L704 132Z" stroke="#110529" stroke-width="2" stroke-linecap="round"/>
<path d="M629.744 114.29C631.194 114.29 632.454 113.7 633.184 112.43C633.714 111.51 633.654 110.72 633.654 109.48V99.6H631.854V109.48C631.854 110.37 631.854 110.99 631.594 111.51C631.204 112.29 630.384 112.6 629.704 112.6C628.634 112.6 627.724 111.83 627.514 110.85L625.744 111.27C626.254 113.11 627.724 114.29 629.744 114.29Z" fill="#110529"/>
<g filter="url(#filter5_i_6281_38587)">
<path fill-rule="evenodd" clip-rule="evenodd" d="M257.6 216H249L244 222.5L249 229L244 235.5L249 242L244 248L249 255L244 261.5L249 268H257.6H258H462.4C462.96 268 463.24 268 463.454 267.891C463.642 267.795 463.795 267.642 463.891 267.454C464 267.24 464 266.96 464 266.4V261.5V255V248V242V235.5V229V222.5V217.6C464 217.04 464 216.76 463.891 216.546C463.795 216.358 463.642 216.205 463.454 216.109C463.24 216 462.96 216 462.4 216H258H257.6Z" fill="#99E099"/>
</g>
<path d="M249 216V215H248.508L248.207 215.39L249 216ZM244 222.5L243.207 221.89L242.738 222.5L243.207 223.11L244 222.5ZM249 229L249.793 229.61L250.262 229L249.793 228.39L249 229ZM244 235.5L243.207 234.89L242.738 235.5L243.207 236.11L244 235.5ZM249 242L249.768 242.64L250.281 242.025L249.793 241.39L249 242ZM244 248L243.232 247.36L242.737 247.953L243.186 248.581L244 248ZM249 255L249.793 255.61L250.245 255.022L249.814 254.419L249 255ZM244 261.5L243.207 260.89L242.738 261.5L243.207 262.11L244 261.5ZM249 268L248.207 268.61L248.508 269H249V268ZM463.454 267.891L463.908 268.782L463.908 268.782L463.454 267.891ZM463.891 267.454L463 267L463.891 267.454ZM463.891 216.546L463 217V217L463.891 216.546ZM463.454 216.109L463.908 215.218V215.218L463.454 216.109ZM249 217H257.6V215H249V217ZM244.793 223.11L249.793 216.61L248.207 215.39L243.207 221.89L244.793 223.11ZM249.793 228.39L244.793 221.89L243.207 223.11L248.207 229.61L249.793 228.39ZM244.793 236.11L249.793 229.61L248.207 228.39L243.207 234.89L244.793 236.11ZM249.793 241.39L244.793 234.89L243.207 236.11L248.207 242.61L249.793 241.39ZM244.768 248.64L249.768 242.64L248.232 241.36L243.232 247.36L244.768 248.64ZM249.814 254.419L244.814 247.419L243.186 248.581L248.186 255.581L249.814 254.419ZM244.793 262.11L249.793 255.61L248.207 254.39L243.207 260.89L244.793 262.11ZM249.793 267.39L244.793 260.89L243.207 262.11L248.207 268.61L249.793 267.39ZM257.6 267H249V269H257.6V267ZM257.6 269H258V267H257.6V269ZM258 269H462.4V267H258V269ZM462.4 269C462.664 269 462.921 269.001 463.138 268.983C463.367 268.964 463.637 268.92 463.908 268.782L463 267C463.058 266.971 463.08 266.981 462.975 266.99C462.859 266.999 462.697 267 462.4 267V269ZM463.908 268.782C464.284 268.59 464.59 268.284 464.782 267.908L463 267L463 267L463.908 268.782ZM464.782 267.908C464.92 267.637 464.964 267.367 464.983 267.138C465.001 266.921 465 266.664 465 266.4H463C463 266.697 462.999 266.859 462.99 266.975C462.981 267.08 462.971 267.058 463 267L464.782 267.908ZM465 266.4V261.5H463V266.4H465ZM465 261.5V255H463V261.5H465ZM465 255V248H463V255H465ZM465 248V242H463V248H465ZM465 242V235.5H463V242H465ZM465 235.5V229H463V235.5H465ZM465 229V222.5H463V229H465ZM465 222.5V217.6H463V222.5H465ZM465 217.6C465 217.336 465.001 217.079 464.983 216.862C464.964 216.633 464.92 216.363 464.782 216.092L463 217C462.971 216.942 462.981 216.92 462.99 217.025C462.999 217.141 463 217.303 463 217.6H465ZM464.782 216.092C464.59 215.716 464.284 215.41 463.908 215.218L463 217V217L464.782 216.092ZM463.908 215.218C463.637 215.08 463.367 215.036 463.138 215.017C462.921 214.999 462.664 215 462.4 215V217C462.697 217 462.859 217.001 462.975 217.01C463.08 217.019 463.058 217.029 463 217L463.908 215.218ZM462.4 215H258V217H462.4V215ZM258 215H257.6V217H258V215Z" fill="#110529"/>
<path d="M354.758 250L349.938 235.6H351.788L355.978 248.11L360.208 235.6H362.058L357.238 250H354.758Z" fill="#110529"/>
<g filter="url(#filter6_i_6281_38587)">
<rect x="464" y="216" width="30" height="52" rx="1" fill="#CBEB67"/>
</g>
<rect x="464" y="216" width="30" height="52" rx="1" stroke="#110529" stroke-width="2" stroke-linecap="round"/>
<path d="M473.447 250V235.6H475.247L482.757 246.85V235.6H484.557V250H482.757L475.247 238.74V250H473.447Z" fill="#110529"/>
<g filter="url(#filter7_i_6281_38587)">
<path d="M638 268H495.6C495.04 268 494.76 268 494.546 267.891C494.358 267.795 494.205 267.642 494.109 267.454C494 267.24 494 266.96 494 266.4V242V217.6C494 217.04 494 216.76 494.109 216.546C494.205 216.358 494.358 216.205 494.546 216.109C494.76 216 495.04 216 495.6 216H638L633 222.5L638 229L633 236L638 242L633 248.5L638 255L633 261.5L638 268Z" fill="#C1ADFF"/>
</g>
<path d="M638 268H495.6C495.04 268 494.76 268 494.546 267.891C494.358 267.795 494.205 267.642 494.109 267.454C494 267.24 494 266.96 494 266.4V242V217.6C494 217.04 494 216.76 494.109 216.546C494.205 216.358 494.358 216.205 494.546 216.109C494.76 216 495.04 216 495.6 216H638L633 222.5L638 229L633 236L638 242L633 248.5L638 255L633 261.5L638 268Z" stroke="#110529" stroke-width="2" stroke-linecap="round"/>
<path d="M563.744 250.29C565.194 250.29 566.454 249.7 567.184 248.43C567.714 247.51 567.654 246.72 567.654 245.48V235.6H565.854V245.48C565.854 246.37 565.854 246.99 565.594 247.51C565.204 248.29 564.384 248.6 563.704 248.6C562.634 248.6 561.724 247.83 561.514 246.85L559.744 247.27C560.254 249.11 561.724 250.29 563.744 250.29Z" fill="#110529"/>
<path d="M162.026 240H163.806V225.6H162.026V240ZM172.636 240.3C176.846 240.3 179.086 237.39 179.086 233.44C179.086 233.32 179.076 232.87 179.046 232.59H174.106V234.06H177.166C176.946 236.93 175.506 238.62 172.726 238.6C169.506 238.58 167.876 236.25 167.896 232.8C167.916 229.35 169.506 226.99 172.726 227.01C174.776 227.02 176.166 228.14 176.776 229.88L178.576 229.51C177.826 226.92 175.856 225.31 172.636 225.31C168.606 225.31 166.006 228.21 166.006 232.8C166.006 237.44 168.666 240.3 172.636 240.3ZM181.084 240H182.864V232.96L189.614 240H191.914L184.864 232.59L191.404 225.6H189.164L182.864 232.36V225.6H181.084V240ZM200.563 225.6L196.723 240H198.533L202.373 225.6H200.563ZM170.795 260H172.575V245.6H170.795V260ZM181.406 260.3C185.616 260.3 187.856 257.39 187.856 253.44C187.856 253.32 187.846 252.87 187.816 252.59H182.876V254.06H185.936C185.716 256.93 184.276 258.62 181.496 258.6C178.276 258.58 176.646 256.25 176.666 252.8C176.686 249.35 178.276 246.99 181.496 247.01C183.546 247.02 184.936 248.14 185.546 249.88L187.346 249.51C186.596 246.92 184.626 245.31 181.406 245.31C177.376 245.31 174.776 248.21 174.776 252.8C174.776 257.44 177.436 260.3 181.406 260.3ZM190.053 260H198.513V258.31H191.833V245.6H190.053V260Z" fill="white"/>
<path d="M168.998 114H170.778V99.6H168.998V114ZM179.609 114.3C183.819 114.3 186.059 111.39 186.059 107.44C186.059 107.32 186.049 106.87 186.019 106.59H181.079V108.06H184.139C183.919 110.93 182.479 112.62 179.699 112.6C176.479 112.58 174.849 110.25 174.869 106.8C174.889 103.35 176.479 100.99 179.699 101.01C181.749 101.02 183.139 102.14 183.749 103.88L185.549 103.51C184.799 100.92 182.829 99.31 179.609 99.31C175.579 99.31 172.979 102.21 172.979 106.8C172.979 111.44 175.639 114.3 179.609 114.3ZM188.056 114H189.836V107.64H197.416V114H199.196V99.6H197.416V105.95H189.836V99.6H188.056V114Z" fill="white"/>
<path d="M244 156L243.293 156.707L242.586 156L243.293 155.293L244 156ZM251.293 147.293L252 146.586L253.414 148L252.707 148.707L251.293 147.293ZM252.707 163.293L253.414 164L252 165.414L251.293 164.707L252.707 163.293ZM254 157L244 157L244 155L254 155L254 157ZM243.293 155.293L251.293 147.293L252.707 148.707L244.707 156.707L243.293 155.293ZM244.707 155.293L252.707 163.293L251.293 164.707L243.293 156.707L244.707 155.293Z" fill="#D3D7E0"/>
<path d="M434.5 156H254" stroke="#D3D7E0" stroke-width="2"/>
<rect width="57" height="20" transform="translate(434.5 146)" fill="#1D1D29"/>
<path d="M445.026 162H446.474V150.48H445.026L442.858 151.776V153.368L445.026 152.056V162ZM451.526 162H452.974V150.48H451.526L449.358 151.776V153.368L451.526 152.056V162ZM459.906 162.24C462.146 162.24 463.794 160.592 463.794 158.352V154.128C463.794 151.888 462.146 150.24 459.906 150.24C457.666 150.24 456.018 151.888 456.018 154.128V158.352C456.018 160.592 457.666 162.24 459.906 162.24ZM457.466 158.432V154.04C457.466 152.688 458.554 151.6 459.906 151.6C461.258 151.6 462.346 152.688 462.346 154.04V158.432C462.346 159.784 461.258 160.872 459.906 160.872C458.554 160.872 457.466 159.784 457.466 158.432ZM470.002 162.24C472.418 162.24 473.874 160.264 473.874 157.672C473.874 155.08 472.41 153.12 470.01 153.12C468.93 153.12 468.074 153.496 467.458 154.144V150.48H466.026V162H467.298V161.024C467.93 161.784 468.834 162.24 470.002 162.24ZM467.298 157.672C467.298 155.76 468.098 154.424 469.786 154.424C471.546 154.424 472.362 155.848 472.362 157.672C472.362 159.512 471.53 160.936 469.826 160.936C468.082 160.936 467.298 159.568 467.298 157.672ZM479.596 162.24C482.012 162.24 483.468 160.264 483.468 157.672C483.468 155.08 482.004 153.12 479.604 153.12C478.428 153.12 477.524 153.568 476.892 154.328V153.36H475.62V165.84H477.052V161.2C477.668 161.856 478.524 162.24 479.596 162.24ZM476.892 157.672C476.892 155.76 477.692 154.424 479.38 154.424C481.14 154.424 481.956 155.848 481.956 157.672C481.956 159.512 481.124 160.936 479.42 160.936C477.676 160.936 476.892 159.568 476.892 157.672Z" fill="white"/>
<path d="M672 156H491.5" stroke="#D3D7E0" stroke-width="2"/>
<path d="M680.62 162H682.044V157.744H685.412L687.476 162H689.108L686.884 157.432C688.188 156.888 688.868 155.632 688.868 154.112C688.868 152.28 687.884 150.832 686.02 150.544C685.724 150.496 685.396 150.48 685.172 150.48H680.62V162ZM682.044 156.392V151.832H685.124C685.324 151.832 685.604 151.848 685.844 151.904C686.948 152.152 687.412 153.152 687.412 154.112C687.412 155.072 686.948 156.072 685.844 156.32C685.604 156.376 685.324 156.392 685.124 156.392H682.044ZM692.878 162H694.326V150.48H692.878L690.71 151.776V153.368L692.878 152.056V162Z" fill="white"/>
<rect x="672" y="144" width="32" height="24" rx="1" stroke="#D3D7E0" stroke-width="2"/>
<path d="M244 292L243.293 292.707L242.586 292L243.293 291.293L244 292ZM251.293 283.293L252 282.586L253.414 284L252.707 284.707L251.293 283.293ZM252.707 299.293L253.414 300L252 301.414L251.293 300.707L252.707 299.293ZM254 293L244 293L244 291L254 291L254 293ZM243.293 291.293L251.293 283.293L252.707 284.707L244.707 292.707L243.293 291.293ZM244.707 291.293L252.707 299.293L251.293 300.707L243.293 292.707L244.707 291.293Z" fill="#D3D7E0"/>
<path d="M401.5 292H254" stroke="#D3D7E0" stroke-width="2"/>
<rect width="57" height="20" transform="translate(401.5 282)" fill="#1D1D29"/>
<path d="M415.478 298.24C417.622 298.24 419.406 296.528 419.406 294.384C419.406 292.24 417.79 290.584 415.646 290.584C414.614 290.584 413.662 291.04 412.998 291.776V290.208C412.998 288.832 414.078 287.6 415.606 287.6C416.454 287.6 417.23 288.032 417.694 288.696L418.758 287.752C418.006 286.784 416.87 286.248 415.606 286.248C413.246 286.248 411.55 287.952 411.55 290.368V294.2C411.55 296.512 413.278 298.24 415.478 298.24ZM412.998 294.384C412.998 293.008 414.11 291.896 415.486 291.896C416.862 291.896 417.966 293.008 417.966 294.384C417.966 295.76 416.854 296.864 415.478 296.864C414.102 296.864 412.998 295.744 412.998 294.384ZM425.375 298.24C427.615 298.24 429.263 296.592 429.263 294.352V290.128C429.263 287.888 427.615 286.24 425.375 286.24C423.135 286.24 421.487 287.888 421.487 290.128V294.352C421.487 296.592 423.135 298.24 425.375 298.24ZM422.935 294.432V290.04C422.935 288.688 424.023 287.6 425.375 287.6C426.727 287.6 427.815 288.688 427.815 290.04V294.432C427.815 295.784 426.727 296.872 425.375 296.872C424.023 296.872 422.935 295.784 422.935 294.432ZM435.471 298.24C437.887 298.24 439.343 296.264 439.343 293.672C439.343 291.08 437.879 289.12 435.479 289.12C434.399 289.12 433.543 289.496 432.927 290.144V286.48H431.495V298H432.767V297.024C433.399 297.784 434.303 298.24 435.471 298.24ZM432.767 293.672C432.767 291.76 433.567 290.424 435.255 290.424C437.015 290.424 437.831 291.848 437.831 293.672C437.831 295.512 436.999 296.936 435.295 296.936C433.551 296.936 432.767 295.568 432.767 293.672ZM445.065 298.24C447.481 298.24 448.937 296.264 448.937 293.672C448.937 291.08 447.473 289.12 445.073 289.12C443.897 289.12 442.993 289.568 442.361 290.328V289.36H441.089V301.84H442.521V297.2C443.137 297.856 443.993 298.24 445.065 298.24ZM442.361 293.672C442.361 291.76 443.161 290.424 444.849 290.424C446.609 290.424 447.425 291.848 447.425 293.672C447.425 295.512 446.593 296.936 444.889 296.936C443.145 296.936 442.361 295.568 442.361 293.672Z" fill="white"/>
<path d="M606 292H458.5" stroke="#D3D7E0" stroke-width="2"/>
<path d="M614.62 298H616.044V293.744H619.412L621.476 298H623.108L620.884 293.432C622.188 292.888 622.868 291.632 622.868 290.112C622.868 288.28 621.884 286.832 620.02 286.544C619.724 286.496 619.396 286.48 619.172 286.48H614.62V298ZM616.044 292.392V287.832H619.124C619.324 287.832 619.604 287.848 619.844 287.904C620.948 288.152 621.412 289.152 621.412 290.112C621.412 291.072 620.948 292.072 619.844 292.32C619.604 292.376 619.324 292.392 619.124 292.392H616.044ZM626.878 298H628.326V286.48H626.878L624.71 287.776V289.368L626.878 288.056V298Z" fill="white"/>
<rect x="606" y="280" width="32" height="24" rx="1" stroke="#D3D7E0" stroke-width="2"/>
<defs>
<filter id="filter0_i_6281_38587" x="242.737" y="79" width="222.263" height="54" filterUnits="userSpaceOnUse" color-interpolation-filters="sRGB">
<feFlood flood-opacity="0" result="BackgroundImageFix"/>
<feBlend mode="normal" in="SourceGraphic" in2="BackgroundImageFix" result="shape"/>
<feColorMatrix in="SourceAlpha" type="matrix" values="0 0 0 0 0 0 0 0 0 0 0 0 0 0 0 0 0 0 127 0" result="hardAlpha"/>
<feOffset dx="-8" dy="-4"/>
<feComposite in2="hardAlpha" operator="arithmetic" k2="-1" k3="1"/>
<feColorMatrix type="matrix" values="0 0 0 0 0.0666667 0 0 0 0 0.0196078 0 0 0 0 0.160784 0 0 0 0.16 0"/>
<feBlend mode="normal" in2="shape" result="effect1_innerShadow_6281_38587"/>
</filter>
<filter id="filter1_i_6281_38587" x="463" y="79" width="32" height="54" filterUnits="userSpaceOnUse" color-interpolation-filters="sRGB">
<feFlood flood-opacity="0" result="BackgroundImageFix"/>
<feBlend mode="normal" in="SourceGraphic" in2="BackgroundImageFix" result="shape"/>
<feColorMatrix in="SourceAlpha" type="matrix" values="0 0 0 0 0 0 0 0 0 0 0 0 0 0 0 0 0 0 127 0" result="hardAlpha"/>
<feOffset dx="-8" dy="-4"/>
<feComposite in2="hardAlpha" operator="arithmetic" k2="-1" k3="1"/>
<feColorMatrix type="matrix" values="0 0 0 0 0.0666667 0 0 0 0 0.0196078 0 0 0 0 0.160784 0 0 0 0.16 0"/>
<feBlend mode="normal" in2="shape" result="effect1_innerShadow_6281_38587"/>
</filter>
<filter id="filter2_i_6281_38587" x="529" y="79" width="32" height="54" filterUnits="userSpaceOnUse" color-interpolation-filters="sRGB">
<feFlood flood-opacity="0" result="BackgroundImageFix"/>
<feBlend mode="normal" in="SourceGraphic" in2="BackgroundImageFix" result="shape"/>
<feColorMatrix in="SourceAlpha" type="matrix" values="0 0 0 0 0 0 0 0 0 0 0 0 0 0 0 0 0 0 127 0" result="hardAlpha"/>
<feOffset dx="-8" dy="-4"/>
<feComposite in2="hardAlpha" operator="arithmetic" k2="-1" k3="1"/>
<feColorMatrix type="matrix" values="0 0 0 0 0.0666667 0 0 0 0 0.0196078 0 0 0 0 0.160784 0 0 0 0.16 0"/>
<feBlend mode="normal" in2="shape" result="effect1_innerShadow_6281_38587"/>
</filter>
<filter id="filter3_i_6281_38587" x="493" y="79" width="38" height="54" filterUnits="userSpaceOnUse" color-interpolation-filters="sRGB">
<feFlood flood-opacity="0" result="BackgroundImageFix"/>
<feBlend mode="normal" in="SourceGraphic" in2="BackgroundImageFix" result="shape"/>
<feColorMatrix in="SourceAlpha" type="matrix" values="0 0 0 0 0 0 0 0 0 0 0 0 0 0 0 0 0 0 127 0" result="hardAlpha"/>
<feOffset dx="-8" dy="-4"/>
<feComposite in2="hardAlpha" operator="arithmetic" k2="-1" k3="1"/>
<feColorMatrix type="matrix" values="0 0 0 0 0.0666667 0 0 0 0 0.0196078 0 0 0 0 0.160784 0 0 0 0.16 0"/>
<feBlend mode="normal" in2="shape" result="effect1_innerShadow_6281_38587"/>
</filter>
<filter id="filter4_i_6281_38587" x="559" y="79" width="147.031" height="54" filterUnits="userSpaceOnUse" color-interpolation-filters="sRGB">
<feFlood flood-opacity="0" result="BackgroundImageFix"/>
<feBlend mode="normal" in="SourceGraphic" in2="BackgroundImageFix" result="shape"/>
<feColorMatrix in="SourceAlpha" type="matrix" values="0 0 0 0 0 0 0 0 0 0 0 0 0 0 0 0 0 0 127 0" result="hardAlpha"/>
<feOffset dx="-8" dy="-4"/>
<feComposite in2="hardAlpha" operator="arithmetic" k2="-1" k3="1"/>
<feColorMatrix type="matrix" values="0 0 0 0 0.0666667 0 0 0 0 0.0196078 0 0 0 0 0.160784 0 0 0 0.16 0"/>
<feBlend mode="normal" in2="shape" result="effect1_innerShadow_6281_38587"/>
</filter>
<filter id="filter5_i_6281_38587" x="242.737" y="215" width="222.263" height="54" filterUnits="userSpaceOnUse" color-interpolation-filters="sRGB">
<feFlood flood-opacity="0" result="BackgroundImageFix"/>
<feBlend mode="normal" in="SourceGraphic" in2="BackgroundImageFix" result="shape"/>
<feColorMatrix in="SourceAlpha" type="matrix" values="0 0 0 0 0 0 0 0 0 0 0 0 0 0 0 0 0 0 127 0" result="hardAlpha"/>
<feOffset dx="-8" dy="-4"/>
<feComposite in2="hardAlpha" operator="arithmetic" k2="-1" k3="1"/>
<feColorMatrix type="matrix" values="0 0 0 0 0.0666667 0 0 0 0 0.0196078 0 0 0 0 0.160784 0 0 0 0.16 0"/>
<feBlend mode="normal" in2="shape" result="effect1_innerShadow_6281_38587"/>
</filter>
<filter id="filter6_i_6281_38587" x="463" y="215" width="32" height="54" filterUnits="userSpaceOnUse" color-interpolation-filters="sRGB">
<feFlood flood-opacity="0" result="BackgroundImageFix"/>
<feBlend mode="normal" in="SourceGraphic" in2="BackgroundImageFix" result="shape"/>
<feColorMatrix in="SourceAlpha" type="matrix" values="0 0 0 0 0 0 0 0 0 0 0 0 0 0 0 0 0 0 127 0" result="hardAlpha"/>
<feOffset dx="-8" dy="-4"/>
<feComposite in2="hardAlpha" operator="arithmetic" k2="-1" k3="1"/>
<feColorMatrix type="matrix" values="0 0 0 0 0.0666667 0 0 0 0 0.0196078 0 0 0 0 0.160784 0 0 0 0.16 0"/>
<feBlend mode="normal" in2="shape" result="effect1_innerShadow_6281_38587"/>
</filter>
<filter id="filter7_i_6281_38587" x="493" y="215" width="147.031" height="54" filterUnits="userSpaceOnUse" color-interpolation-filters="sRGB">
<feFlood flood-opacity="0" result="BackgroundImageFix"/>
<feBlend mode="normal" in="SourceGraphic" in2="BackgroundImageFix" result="shape"/>
<feColorMatrix in="SourceAlpha" type="matrix" values="0 0 0 0 0 0 0 0 0 0 0 0 0 0 0 0 0 0 127 0" result="hardAlpha"/>
<feOffset dx="-8" dy="-4"/>
<feComposite in2="hardAlpha" operator="arithmetic" k2="-1" k3="1"/>
<feColorMatrix type="matrix" values="0 0 0 0 0.0666667 0 0 0 0 0.0196078 0 0 0 0 0.160784 0 0 0 0.16 0"/>
<feBlend mode="normal" in2="shape" result="effect1_innerShadow_6281_38587"/>
</filter>
</defs>
</svg>
