<svg width="960" height="362" viewBox="0 0 960 362" fill="none" xmlns="http://www.w3.org/2000/svg">
    <rect width="960" height="362" fill="#1D1D29"/>
    <rect x="130" y="62" width="110" height="12" rx="2" fill="#99E099"/>
    <rect x="96" y="62" width="32" height="12" rx="2" fill="#42B842"/>
    <rect x="130" y="86" width="110" height="12" rx="2" fill="#C1ADFF"/>
    <rect x="252" y="86" width="110" height="12" rx="2" fill="#C1ADFF"/>
    <rect x="96" y="86" width="32" height="12" rx="2" fill="#845CFF"/>
    <rect x="130" y="110" width="110" height="12" rx="2" fill="#C1ADFF"/>
    <rect x="252" y="110" width="110" height="12" rx="2" fill="#C1ADFF"/>
    <rect x="96" y="110" width="32" height="12" rx="2" fill="#27C2C2"/>
    <rect x="130" y="134" width="110" height="12" rx="2" fill="#FFCB8F"/>
    <rect x="130" y="134" width="110" height="12" rx="2" fill="#FFCB8F"/>
    <rect x="96" y="134" width="32" height="12" rx="2" fill="#FF9429"/>
    <rect x="111" y="132" width="6" height="16" fill="#F05670" stroke="#110529" stroke-width="2"/>
    <rect x="252" y="134" width="110" height="12" rx="2" fill="#FFCB8F"/>
    <rect x="130" y="158" width="110" height="12" rx="2" fill="#99E099"/>
    <rect x="252" y="158" width="110" height="12" rx="2" fill="#99E099"/>
    <rect x="96" y="158" width="32" height="12" rx="2" fill="#42B842"/>
    <rect x="130" y="182" width="110" height="12" rx="2" fill="#C1ADFF"/>
    <rect x="96" y="182" width="32" height="12" rx="2" fill="#27C2C2"/>
    <rect x="117" y="180" width="6" height="16" fill="#F05670" stroke="#110529" stroke-width="2"/>
    <rect x="252" y="182" width="110" height="12" rx="2" fill="#C1ADFF"/>
    <rect x="130" y="206" width="110" height="12" rx="2" fill="#C1ADFF"/>
    <rect x="252" y="206" width="110" height="12" rx="2" fill="#C1ADFF"/>
    <rect x="96" y="206" width="32" height="12" rx="2" fill="#27C2C2"/>
    <rect x="130" y="230" width="110" height="12" rx="2" fill="#FFCB8F"/>
    <rect x="252" y="230" width="110" height="12" rx="2" fill="#FFCB8F"/>
    <rect x="96" y="230" width="32" height="12" rx="2" fill="#E653E6"/>
    <rect x="130" y="254" width="110" height="12" rx="2" fill="#C1ADFF"/>
    <rect x="130" y="254" width="110" height="12" rx="2" fill="#C1ADFF"/>
    <rect x="96" y="254" width="32" height="12" rx="2" fill="#2D93FA"/>
    <rect x="102" y="252" width="6" height="16" fill="#F05670" stroke="#110529" stroke-width="2"/>
    <rect x="252" y="254" width="110" height="12" rx="2" fill="#C1ADFF"/>
    <rect x="130" y="278" width="110" height="12" rx="2" fill="#FFCB8F"/>
    <rect x="252" y="278" width="110" height="12" rx="2" fill="#FFCB8F"/>
    <rect x="96" y="278" width="32" height="12" rx="2" fill="#FF9429"/>
    <rect x="130" y="302" width="110" height="12" rx="2" fill="#C1ADFF"/>
    <rect x="252" y="302" width="110" height="12" rx="2" fill="#C1ADFF"/>
    <rect x="96" y="302" width="32" height="12" rx="2" fill="#845CFF"/>
    <rect x="130" y="326" width="110" height="12" rx="2" fill="#FFCB8F"/>
    <rect x="252" y="326" width="110" height="12" rx="2" fill="#FFCB8F"/>
    <rect x="96" y="326" width="32" height="12" rx="2" fill="#FF9429"/>
    <path d="M102.742 40.24C105.414 40.24 107.286 38.48 107.286 35.8V28.48H105.846V35.68C105.846 37.848 104.214 38.896 102.742 38.896C101.286 38.896 99.6381 37.864 99.6381 35.68V28.48L98.1981 28.488V35.8C98.1981 38.488 100.07 40.24 102.742 40.24ZM109.526 40H110.878V31.608L114.79 40H115.55L119.462 31.608V39.992H120.814V28.48H119.502L115.174 37.656L110.822 28.48H109.526V40ZM123.218 40H124.642V28.48H123.218V40Z" fill="white"/>
    <path d="M167.245 40H168.669V35.744H172.037L174.101 40H175.733L173.509 35.432C174.813 34.888 175.493 33.632 175.493 32.112C175.493 30.28 174.509 28.832 172.645 28.544C172.349 28.496 172.021 28.48 171.797 28.48H167.245V40ZM168.669 34.392V29.832H171.749C171.949 29.832 172.229 29.848 172.469 29.904C173.573 30.152 174.037 31.152 174.037 32.112C174.037 33.072 173.573 34.072 172.469 34.32C172.229 34.376 171.949 34.392 171.749 34.392H168.669ZM179.503 40H180.951V28.48H179.503L177.335 29.776V31.368L179.503 30.056V40Z" fill="white"/>
    <path d="M301.37 40H302.794V35.744H306.162L308.226 40H309.858L307.634 35.432C308.938 34.888 309.618 33.632 309.618 32.112C309.618 30.28 308.634 28.832 306.77 28.544C306.474 28.496 306.146 28.48 305.922 28.48H301.37V40ZM302.794 34.392V29.832H305.874C306.074 29.832 306.354 29.848 306.594 29.904C307.698 30.152 308.162 31.152 308.162 32.112C308.162 33.072 307.698 34.072 306.594 34.32C306.354 34.376 306.074 34.392 305.874 34.392H302.794ZM311.3 39.992H318.956V38.632H313.492L317.204 35.296C318.388 34.248 318.956 33.488 318.956 31.976C318.956 29.856 317.34 28.24 315.204 28.24C312.988 28.24 311.356 29.784 311.356 31.952H312.812C312.796 30.696 313.804 29.6 315.18 29.6C316.508 29.6 317.5 30.632 317.5 31.96C317.5 32.688 317.268 33.352 316.42 34.112L311.308 38.712L311.3 39.992Z" fill="white"/>
    <path d="M491.636 188L492.376 188.673L492.988 188L492.376 187.327L491.636 188ZM485.104 179.327L484.431 178.587L482.951 179.933L483.624 180.673L485.104 179.327ZM483.624 195.327L482.951 196.067L484.431 197.413L485.104 196.673L483.624 195.327ZM463.455 189H491.636V187H463.455V189ZM492.376 187.327L485.104 179.327L483.624 180.673L490.896 188.673L492.376 187.327ZM490.896 187.327L483.624 195.327L485.104 196.673L492.376 188.673L490.896 187.327Z" fill="#D3D7E0"/>
    <path d="M431.416 224.24C433.2 224.24 434.504 223.368 435.112 221.752L433.672 221.376C433.28 222.36 432.536 222.888 431.416 222.888C429.696 222.888 428.824 221.608 428.808 219.68C428.824 217.808 429.64 216.472 431.416 216.472C432.464 216.472 433.336 217.056 433.704 218.056L435.112 217.632C434.656 216.08 433.248 215.12 431.432 215.12C428.832 215.12 427.32 216.984 427.296 219.68C427.32 222.328 428.784 224.24 431.416 224.24ZM440.191 224.24C442.759 224.24 444.359 222.384 444.359 219.672C444.359 217 442.783 215.12 440.191 215.12C437.655 215.12 436.031 216.96 436.031 219.672C436.031 222.352 437.607 224.24 440.191 224.24ZM437.543 219.672C437.543 217.784 438.383 216.472 440.191 216.472C441.959 216.472 442.847 217.728 442.847 219.672C442.847 221.576 441.975 222.888 440.191 222.888C438.447 222.888 437.543 221.624 437.543 219.672ZM446.12 224H447.552V219.664C447.552 218.64 447.76 217.624 448.6 217.024C449.2 216.584 449.976 216.544 450.576 216.696V215.36C449.808 215.192 448.792 215.352 448.128 215.888C447.84 216.096 447.584 216.392 447.392 216.728V215.36H446.12V224ZM452.089 224H453.521V219.664C453.521 218.64 453.729 217.624 454.569 217.024C455.169 216.584 455.945 216.544 456.545 216.696V215.36C455.777 215.192 454.761 215.352 454.097 215.888C453.809 216.096 453.553 216.392 453.361 216.728V215.36H452.089V224ZM461.645 224.24C463.317 224.24 464.749 223.368 465.429 221.84L464.061 221.368C463.581 222.352 462.717 222.888 461.581 222.888C459.989 222.888 459.061 221.872 458.949 220.08H465.573C465.701 217.008 464.181 215.12 461.581 215.12C459.069 215.12 457.421 216.904 457.421 219.736C457.421 222.44 459.093 224.24 461.645 224.24ZM458.973 218.936C459.173 217.296 460.077 216.4 461.629 216.4C463.093 216.4 463.917 217.24 464.093 218.936H458.973ZM470.994 224.24C472.778 224.24 474.082 223.368 474.69 221.752L473.25 221.376C472.858 222.36 472.114 222.888 470.994 222.888C469.274 222.888 468.402 221.608 468.386 219.68C468.402 217.808 469.218 216.472 470.994 216.472C472.042 216.472 472.914 217.056 473.282 218.056L474.69 217.632C474.234 216.08 472.826 215.12 471.01 215.12C468.41 215.12 466.898 216.984 466.874 219.68C466.898 222.328 468.362 224.24 470.994 224.24ZM481.147 224V222.776C479.963 222.96 479.099 222.912 478.715 222.224C478.507 221.864 478.539 221.384 478.539 220.672V216.536H481.147V215.36H478.539V212.96H477.115V215.36H475.363V216.536H477.115V220.736C477.115 221.632 477.067 222.288 477.411 222.96C478.011 224.136 479.603 224.312 481.147 224ZM489.848 224.24C490.432 224.24 491.008 224.184 491.56 223.976C492.136 223.8 492.744 223.44 493.168 222.96L494.384 224.112L495.312 223.12L493.848 221.768C493.944 221.424 494 220.896 494 220.136V218.264H492.696L492.704 219.856C492.704 220.12 492.696 220.4 492.664 220.664L489.272 217.512C488.968 217.24 488.672 216.976 488.456 216.736C488.08 216.304 487.864 215.984 487.864 215.368C487.864 214.664 488.16 214.144 488.76 213.848C489.096 213.688 489.48 213.608 489.888 213.608C490.384 213.608 490.904 213.712 491.288 214.024C491.512 214.2 491.688 214.432 491.792 214.712L493.184 214.352C493.024 213.88 492.728 213.416 492.328 213.072C491.712 212.504 490.8 212.256 489.888 212.256C489.336 212.256 488.76 212.336 488.216 212.568C487.088 213.04 486.408 214.128 486.408 215.368C486.408 216.352 486.8 216.952 487.544 217.736C487.184 217.912 486.824 218.144 486.552 218.48C486.016 219.112 485.776 219.96 485.784 220.792C485.816 221.664 486.08 222.448 486.664 223.08C487.408 223.88 488.56 224.24 489.848 224.24ZM487.24 220.72C487.232 220.208 487.368 219.744 487.648 219.392C487.888 219.104 488.232 218.888 488.624 218.76L492.136 221.976C491.952 222.168 491.704 222.4 491.2 222.64C490.808 222.832 490.392 222.872 489.88 222.872C489.088 222.872 488.2 222.64 487.736 222.088C487.424 221.736 487.248 221.272 487.24 220.72ZM503.087 224.232C505.239 224.232 506.543 223.224 506.543 221.552C506.543 220.216 505.799 219.576 503.519 218.992C501.487 218.48 501.047 218.208 501.047 217.576C501.047 216.84 501.815 216.36 502.935 216.392C504.111 216.424 504.911 216.992 505.055 217.912L506.511 217.648C506.327 216.128 504.903 215.12 502.935 215.12C500.943 215.12 499.615 216.128 499.615 217.648C499.615 218.888 500.343 219.48 502.631 220.088C504.743 220.656 505.071 220.864 505.071 221.592C505.071 222.44 504.351 222.96 503.175 222.96C501.927 222.96 501.031 222.376 500.799 221.432L499.343 221.664C499.639 223.288 501.023 224.232 503.087 224.232ZM511.988 224.24C514.556 224.24 516.156 222.384 516.156 219.672C516.156 217 514.58 215.12 511.988 215.12C509.452 215.12 507.828 216.96 507.828 219.672C507.828 222.352 509.404 224.24 511.988 224.24ZM509.34 219.672C509.34 217.784 510.18 216.472 511.988 216.472C513.756 216.472 514.644 217.728 514.644 219.672C514.644 221.576 513.772 222.888 511.988 222.888C510.244 222.888 509.34 221.624 509.34 219.672ZM517.917 224H519.349V219.664C519.349 218.64 519.557 217.624 520.397 217.024C520.997 216.584 521.773 216.544 522.373 216.696V215.36C521.605 215.192 520.589 215.352 519.925 215.888C519.637 216.096 519.381 216.392 519.189 216.728V215.36H517.917V224ZM528.71 224V222.776C527.526 222.96 526.662 222.912 526.278 222.224C526.07 221.864 526.102 221.384 526.102 220.672V216.536H528.71V215.36H526.102V212.96H524.678V215.36H522.926V216.536H524.678V220.736C524.678 221.632 524.63 222.288 524.974 222.96C525.574 224.136 527.166 224.312 528.71 224Z" fill="white"/>
    <rect x="252" y="62" width="110" height="12" rx="2" fill="#99E099"/>
    <path d="M239.5 50L240.207 50.7071L240.914 50L240.207 49.2929L239.5 50ZM236.207 45.2929L235.5 44.5858L234.086 46L234.793 46.7071L236.207 45.2929ZM234.793 53.2929L234.086 54L235.5 55.4142L236.207 54.7071L234.793 53.2929ZM224 51H239.5V49H224V51ZM240.207 49.2929L236.207 45.2929L234.793 46.7071L238.793 50.7071L240.207 49.2929ZM238.793 49.2929L234.793 53.2929L236.207 54.7071L240.207 50.7071L238.793 49.2929Z" fill="#D3D7E0"/>
    <path d="M224 50H96" stroke="#D3D7E0" stroke-width="2"/>
    <path d="M252.5 50L251.793 49.2929L251.086 50L251.793 50.7071L252.5 50ZM255.793 54.7071L256.5 55.4142L257.914 54L257.207 53.2929L255.793 54.7071ZM257.207 46.7071L257.914 46L256.5 44.5858L255.793 45.2929L257.207 46.7071ZM268 49H252.5V51H268V49ZM251.793 50.7071L255.793 54.7071L257.207 53.2929L253.207 49.2929L251.793 50.7071ZM253.207 50.7071L257.207 46.7071L255.793 45.2929L251.793 49.2929L253.207 50.7071Z" fill="#D3D7E0"/>
    <path d="M362 50L268 50" stroke="#D3D7E0" stroke-width="2"/>
    <rect x="628" y="62" width="110" height="12" rx="2" fill="#99E099"/>
    <rect x="594" y="62" width="32" height="12" rx="2" fill="#42B842"/>
    <rect x="628" y="86" width="110" height="12" rx="2" fill="#99E099"/>
    <rect x="750" y="86" width="110" height="12" rx="2" fill="#99E099"/>
    <rect x="594" y="86" width="32" height="12" rx="2" fill="#42B842"/>
    <rect x="628" y="110" width="110" height="12" rx="2" fill="#C1ADFF"/>
    <rect x="750" y="110" width="110" height="12" rx="2" fill="#C1ADFF"/>
    <rect x="594" y="110" width="32" height="12" rx="2" fill="#845CFF"/>
    <rect x="628" y="134" width="110" height="12" rx="2" fill="#C1ADFF"/>
    <rect x="750" y="134" width="110" height="12" rx="2" fill="#C1ADFF"/>
    <rect x="594" y="134" width="32" height="12" rx="2" fill="#845CFF"/>
    <rect x="628" y="158" width="110" height="12" rx="2" fill="#C1ADFF"/>
    <rect x="750" y="158" width="110" height="12" rx="2" fill="#C1ADFF"/>
    <rect x="594" y="158" width="32" height="12" rx="2" fill="#27C2C2"/>
    <rect x="628" y="182" width="110" height="12" rx="2" fill="#C1ADFF"/>
    <rect x="594" y="182" width="32" height="12" rx="2" fill="#27C2C2"/>
    <rect x="750" y="182" width="110" height="12" rx="2" fill="#C1ADFF"/>
    <rect x="628" y="206" width="110" height="12" rx="2" fill="#C1ADFF"/>
    <rect x="750" y="206" width="110" height="12" rx="2" fill="#C1ADFF"/>
    <rect x="594" y="206" width="32" height="12" rx="2" fill="#27C2C2"/>
    <rect x="628" y="230" width="110" height="12" rx="2" fill="#FFCB8F"/>
    <rect x="628" y="230" width="110" height="12" rx="2" fill="#FFCB8F"/>
    <rect x="594" y="230" width="32" height="12" rx="2" fill="#FF9429"/>
    <rect x="750" y="230" width="110" height="12" rx="2" fill="#FFCB8F"/>
    <rect x="628" y="254" width="110" height="12" rx="2" fill="#FFCB8F"/>
    <rect x="750" y="254" width="110" height="12" rx="2" fill="#FFCB8F"/>
    <rect x="594" y="254" width="32" height="12" rx="2" fill="#FF9429"/>
    <rect x="628" y="278" width="110" height="12" rx="2" fill="#FFCB8F"/>
    <rect x="750" y="278" width="110" height="12" rx="2" fill="#FFCB8F"/>
    <rect x="594" y="278" width="32" height="12" rx="2" fill="#FF9429"/>
    <rect x="628" y="302" width="110" height="12" rx="2" fill="#C1ADFF"/>
    <rect x="628" y="302" width="110" height="12" rx="2" fill="#C1ADFF"/>
    <rect x="594" y="302" width="32" height="12" rx="2" fill="#2D93FA"/>
    <rect x="750" y="302" width="110" height="12" rx="2" fill="#C1ADFF"/>
    <rect x="628" y="326" width="110" height="12" rx="2" fill="#FFCB8F"/>
    <rect x="750" y="326" width="110" height="12" rx="2" fill="#FFCB8F"/>
    <rect x="594" y="326" width="32" height="12" rx="2" fill="#E653E6"/>
    <path d="M600.742 40.24C603.414 40.24 605.286 38.48 605.286 35.8V28.48H603.846V35.68C603.846 37.848 602.214 38.896 600.742 38.896C599.286 38.896 597.638 37.864 597.638 35.68V28.48L596.198 28.488V35.8C596.198 38.488 598.07 40.24 600.742 40.24ZM607.526 40H608.878V31.608L612.79 40H613.55L617.462 31.608V39.992H618.814V28.48H617.502L613.174 37.656L608.822 28.48H607.526V40ZM621.218 40H622.642V28.48H621.218V40Z" fill="white"/>
    <path d="M665.245 40H666.669V35.744H670.037L672.101 40H673.733L671.509 35.432C672.813 34.888 673.493 33.632 673.493 32.112C673.493 30.28 672.509 28.832 670.645 28.544C670.349 28.496 670.021 28.48 669.797 28.48H665.245V40ZM666.669 34.392V29.832H669.749C669.949 29.832 670.229 29.848 670.469 29.904C671.573 30.152 672.037 31.152 672.037 32.112C672.037 33.072 671.573 34.072 670.469 34.32C670.229 34.376 669.949 34.392 669.749 34.392H666.669ZM677.503 40H678.951V28.48H677.503L675.335 29.776V31.368L677.503 30.056V40Z" fill="white"/>
    <path d="M799.37 40H800.794V35.744H804.162L806.226 40H807.858L805.634 35.432C806.938 34.888 807.618 33.632 807.618 32.112C807.618 30.28 806.634 28.832 804.77 28.544C804.474 28.496 804.146 28.48 803.922 28.48H799.37V40ZM800.794 34.392V29.832H803.874C804.074 29.832 804.354 29.848 804.594 29.904C805.698 30.152 806.162 31.152 806.162 32.112C806.162 33.072 805.698 34.072 804.594 34.32C804.354 34.376 804.074 34.392 803.874 34.392H800.794ZM809.3 39.992H816.956V38.632H811.492L815.204 35.296C816.388 34.248 816.956 33.488 816.956 31.976C816.956 29.856 815.34 28.24 813.204 28.24C810.988 28.24 809.356 29.784 809.356 31.952H810.812C810.796 30.696 811.804 29.6 813.18 29.6C814.508 29.6 815.5 30.632 815.5 31.96C815.5 32.688 815.268 33.352 814.42 34.112L809.308 38.712L809.3 39.992Z" fill="white"/>
    <rect x="750" y="62" width="110" height="12" rx="2" fill="#99E099"/>
    <path d="M737.5 50L738.207 50.7071L738.914 50L738.207 49.2929L737.5 50ZM734.207 45.2929L733.5 44.5858L732.086 46L732.793 46.7071L734.207 45.2929ZM732.793 53.2929L732.086 54L733.5 55.4142L734.207 54.7071L732.793 53.2929ZM722 51H737.5V49H722V51ZM738.207 49.2929L734.207 45.2929L732.793 46.7071L736.793 50.7071L738.207 49.2929ZM736.793 49.2929L732.793 53.2929L734.207 54.7071L738.207 50.7071L736.793 49.2929Z" fill="#D3D7E0"/>
    <path d="M722 50H594" stroke="#D3D7E0" stroke-width="2"/>
    <path d="M750.5 50L749.793 49.2929L749.086 50L749.793 50.7071L750.5 50ZM753.793 54.7071L754.5 55.4142L755.914 54L755.207 53.2929L753.793 54.7071ZM755.207 46.7071L755.914 46L754.5 44.5858L753.793 45.2929L755.207 46.7071ZM766 49H750.5V51H766V49ZM749.793 50.7071L753.793 54.7071L755.207 53.2929L751.207 49.2929L749.793 50.7071ZM751.207 50.7071L755.207 46.7071L753.793 45.2929L749.793 49.2929L751.207 50.7071Z" fill="#D3D7E0"/>
    <path d="M860 50L766 50" stroke="#D3D7E0" stroke-width="2"/>
</svg>
