<svg width="960" height="516" viewBox="0 0 960 516" fill="none" xmlns="http://www.w3.org/2000/svg">
    <rect width="960" height="516" fill="white"/>
    <path d="M101.969 37.21C103.852 37.21 105.469 35.705 105.469 33.829C105.469 31.939 104.083 30.525 102.2 30.525C101.605 30.525 100.975 30.714 100.478 31.071L100.646 28.299H104.776V26.92H99.337L99.029 32.219L100.303 32.667C100.618 32.247 101.185 31.855 102.011 31.855C103.089 31.855 103.992 32.723 103.992 33.829C103.992 34.907 103.117 35.796 102.011 35.796C101.171 35.796 100.338 35.229 100.107 34.333L98.7 34.711C99.113 36.181 100.415 37.21 101.969 37.21ZM107.373 29.629L107.282 30.28C108.29 30.462 108.829 29.846 108.829 28.747V26.92H107.282V28.607H108.087C108.157 29.202 107.982 29.678 107.373 29.629ZM114.852 37.21C117.225 37.21 118.87 35.663 118.87 33.29V26.92H117.386V33.213C117.386 34.914 116.119 35.831 114.852 35.831C113.599 35.831 112.318 34.935 112.318 33.213V26.92L110.834 26.927V33.29C110.834 35.663 112.479 37.21 114.852 37.21ZM123.341 37H124.804V28.299H128.157V26.92H119.988V28.299H123.341V37ZM129.277 37H130.74V33.381H133.414L135.171 37H136.844L134.94 33.094C136.081 32.597 136.655 31.491 136.655 30.147C136.655 28.516 135.815 27.235 134.128 26.976C133.862 26.934 133.547 26.92 133.351 26.92H129.277V37ZM130.74 31.995V28.299H133.295C133.477 28.299 133.722 28.313 133.932 28.369C134.828 28.579 135.164 29.405 135.164 30.147C135.164 30.889 134.828 31.715 133.932 31.932C133.722 31.981 133.477 31.995 133.295 31.995H130.74Z" fill="#D3D7E0"/>
    <path d="M144 112V24" stroke="#D3D7E0" stroke-width="2" stroke-linecap="square" stroke-dasharray="6 6"/>
    <path d="M151.442 37V26.92H152.905V35.621H157.469V37H151.442Z" fill="#D3D7E0"/>
    <path d="M164 112V24" stroke="#D3D7E0" stroke-width="2" stroke-linecap="square" stroke-dasharray="6 6"/>
    <path d="M173.858 37H175.321V32.695H178.989V31.225H175.321V28.383H179.829V26.92H173.858V37ZM181.09 37H182.553V33.381H185.227L186.984 37H188.657L186.753 33.094C187.894 32.597 188.468 31.491 188.468 30.147C188.468 28.516 187.628 27.235 185.941 26.976C185.675 26.934 185.36 26.92 185.164 26.92H181.09V37ZM182.553 31.995V28.299H185.108C185.29 28.299 185.535 28.313 185.745 28.369C186.641 28.579 186.977 29.405 186.977 30.147C186.977 30.889 186.641 31.715 185.745 31.932C185.535 31.981 185.29 31.995 185.108 31.995H182.553ZM191.953 37H193.444V26.92H191.953L190.056 28.054V29.685L191.953 28.53V37Z" fill="#D3D7E0"/>
    <path d="M204 112V24" stroke="#D3D7E0" stroke-width="2" stroke-linecap="square" stroke-dasharray="6 6"/>
    <path d="M213.735 37.21C216.059 37.21 217.62 35.943 218.215 33.955L216.731 33.556C216.332 34.963 215.331 35.817 213.735 35.817C211.593 35.817 210.501 34.27 210.515 31.96C210.522 29.65 211.593 28.103 213.735 28.103C215.331 28.103 216.332 28.957 216.731 30.364L218.215 29.965C217.62 27.977 216.059 26.71 213.735 26.71C210.711 26.71 208.968 28.845 208.968 31.96C208.968 35.075 210.711 37.21 213.735 37.21ZM219.754 37H222.911C223.093 37 223.695 37 224.164 36.937C226.53 36.636 227.79 34.529 227.79 31.96C227.79 29.391 226.53 27.284 224.164 26.983C223.695 26.92 223.093 26.92 222.911 26.92H219.754V37ZM221.252 35.607V28.313H222.911C223.219 28.313 223.723 28.32 224.059 28.383C225.571 28.663 226.236 30.189 226.236 31.96C226.236 33.689 225.599 35.243 224.059 35.537C223.723 35.6 223.233 35.607 222.911 35.607H221.252ZM229.42 37H230.883V33.381H233.557L235.314 37H236.987L235.083 33.094C236.224 32.597 236.798 31.491 236.798 30.147C236.798 28.516 235.958 27.235 234.271 26.976C234.005 26.934 233.69 26.92 233.494 26.92H229.42V37ZM230.883 31.995V28.299H233.438C233.62 28.299 233.865 28.313 234.075 28.369C234.971 28.579 235.307 29.405 235.307 30.147C235.307 30.889 234.971 31.715 234.075 31.932C233.865 31.981 233.62 31.995 233.438 31.995H230.883ZM240.283 37H241.774V26.92H240.283L238.386 28.054V29.685L240.283 28.53V37Z" fill="#D3D7E0"/>
    <path d="M248 112V24" stroke="#D3D7E0" stroke-width="2" stroke-linecap="square" stroke-dasharray="6 6"/>
    <path d="M256.703 37H258.166V32.695H261.834V31.225H258.166V28.383H262.674V26.92H256.703V37ZM263.935 37H265.398V33.381H268.072L269.829 37H271.502L269.598 33.094C270.739 32.597 271.313 31.491 271.313 30.147C271.313 28.516 270.473 27.235 268.786 26.976C268.52 26.934 268.205 26.92 268.009 26.92H263.935V37ZM265.398 31.995V28.299H267.953C268.135 28.299 268.38 28.313 268.59 28.369C269.486 28.579 269.822 29.405 269.822 30.147C269.822 30.889 269.486 31.715 268.59 31.932C268.38 31.981 268.135 31.995 267.953 31.995H265.398ZM272.761 36.993H279.579V35.6H275.022L277.941 32.996C279.033 32.037 279.579 31.407 279.579 30.028C279.579 28.117 278.144 26.71 276.24 26.71C274.231 26.71 272.796 28.047 272.796 30H274.294C274.28 28.985 275.092 28.103 276.212 28.103C277.297 28.103 278.074 28.929 278.074 30.007C278.074 30.581 277.864 31.127 277.157 31.757L272.768 35.691L272.761 36.993Z" fill="#D3D7E0"/>
    <path d="M288 112V24" stroke="#D3D7E0" stroke-width="2" stroke-linecap="square" stroke-dasharray="6 6"/>
    <path d="M296.58 37.21C298.904 37.21 300.465 35.943 301.06 33.955L299.576 33.556C299.177 34.963 298.176 35.817 296.58 35.817C294.438 35.817 293.346 34.27 293.36 31.96C293.367 29.65 294.438 28.103 296.58 28.103C298.176 28.103 299.177 28.957 299.576 30.364L301.06 29.965C300.465 27.977 298.904 26.71 296.58 26.71C293.556 26.71 291.813 28.845 291.813 31.96C291.813 35.075 293.556 37.21 296.58 37.21ZM302.599 37H305.756C305.938 37 306.54 37 307.009 36.937C309.375 36.636 310.635 34.529 310.635 31.96C310.635 29.391 309.375 27.284 307.009 26.983C306.54 26.92 305.938 26.92 305.756 26.92H302.599V37ZM304.097 35.607V28.313H305.756C306.064 28.313 306.568 28.32 306.904 28.383C308.416 28.663 309.081 30.189 309.081 31.96C309.081 33.689 308.444 35.243 306.904 35.537C306.568 35.6 306.078 35.607 305.756 35.607H304.097ZM312.265 37H313.728V33.381H316.402L318.159 37H319.832L317.928 33.094C319.069 32.597 319.643 31.491 319.643 30.147C319.643 28.516 318.803 27.235 317.116 26.976C316.85 26.934 316.535 26.92 316.339 26.92H312.265V37ZM313.728 31.995V28.299H316.283C316.465 28.299 316.71 28.313 316.92 28.369C317.816 28.579 318.152 29.405 318.152 30.147C318.152 30.889 317.816 31.715 316.92 31.932C316.71 31.981 316.465 31.995 316.283 31.995H313.728ZM321.091 36.993H327.909V35.6H323.352L326.271 32.996C327.363 32.037 327.909 31.407 327.909 30.028C327.909 28.117 326.474 26.71 324.57 26.71C322.561 26.71 321.126 28.047 321.126 30H322.624C322.61 28.985 323.422 28.103 324.542 28.103C325.627 28.103 326.404 28.929 326.404 30.007C326.404 30.581 326.194 31.127 325.487 31.757L321.098 35.691L321.091 36.993Z" fill="#D3D7E0"/>
    <path d="M332 112V24" stroke="#D3D7E0" stroke-width="2" stroke-linecap="square" stroke-dasharray="6 6"/>
    <path d="M340.805 37H342.268V32.695H345.936V31.225H342.268V28.383H346.776V26.92H340.805V37ZM348.038 37H349.501V33.381H352.175L353.932 37H355.605L353.701 33.094C354.842 32.597 355.416 31.491 355.416 30.147C355.416 28.516 354.576 27.235 352.889 26.976C352.623 26.934 352.308 26.92 352.112 26.92H348.038V37ZM349.501 31.995V28.299H352.056C352.238 28.299 352.483 28.313 352.693 28.369C353.589 28.579 353.925 29.405 353.925 30.147C353.925 30.889 353.589 31.715 352.693 31.932C352.483 31.981 352.238 31.995 352.056 31.995H349.501ZM359.964 37.189C361.847 37.189 363.331 35.796 363.331 33.871C363.331 32.233 362.323 30.924 360.692 30.707L363.184 28.313V26.92H357.122V28.313H361.392L358.312 31.036L358.998 32.191C359.285 32.037 359.628 31.939 359.95 31.939C361.07 31.939 361.833 32.751 361.833 33.871C361.833 34.984 361.07 35.789 359.964 35.803C359.138 35.81 358.403 35.341 358.137 34.466L356.723 34.858C357.15 36.293 358.466 37.189 359.964 37.189Z" fill="#D3D7E0"/>
    <path d="M372 112V24" stroke="#D3D7E0" stroke-width="2" stroke-linecap="square" stroke-dasharray="6 6"/>
    <path d="M418.682 37.21C421.006 37.21 422.567 35.943 423.162 33.955L421.678 33.556C421.279 34.963 420.278 35.817 418.682 35.817C416.54 35.817 415.448 34.27 415.462 31.96C415.469 29.65 416.54 28.103 418.682 28.103C420.278 28.103 421.279 28.957 421.678 30.364L423.162 29.965C422.567 27.977 421.006 26.71 418.682 26.71C415.658 26.71 413.915 28.845 413.915 31.96C413.915 35.075 415.658 37.21 418.682 37.21ZM424.702 37H427.859C428.041 37 428.643 37 429.112 36.937C431.478 36.636 432.738 34.529 432.738 31.96C432.738 29.391 431.478 27.284 429.112 26.983C428.643 26.92 428.041 26.92 427.859 26.92H424.702V37ZM426.2 35.607V28.313H427.859C428.167 28.313 428.671 28.32 429.007 28.383C430.519 28.663 431.184 30.189 431.184 31.96C431.184 33.689 430.547 35.243 429.007 35.537C428.671 35.6 428.181 35.607 427.859 35.607H426.2ZM434.368 37H435.831V33.381H438.505L440.262 37H441.935L440.031 33.094C441.172 32.597 441.746 31.491 441.746 30.147C441.746 28.516 440.906 27.235 439.219 26.976C438.953 26.934 438.638 26.92 438.442 26.92H434.368V37ZM435.831 31.995V28.299H438.386C438.568 28.299 438.813 28.313 439.023 28.369C439.919 28.579 440.255 29.405 440.255 30.147C440.255 30.889 439.919 31.715 439.023 31.932C438.813 31.981 438.568 31.995 438.386 31.995H435.831ZM446.294 37.189C448.177 37.189 449.661 35.796 449.661 33.871C449.661 32.233 448.653 30.924 447.022 30.707L449.514 28.313V26.92H443.452V28.313H447.722L444.642 31.036L445.328 32.191C445.615 32.037 445.958 31.939 446.28 31.939C447.4 31.939 448.163 32.751 448.163 33.871C448.163 34.984 447.4 35.789 446.294 35.803C445.468 35.81 444.733 35.341 444.467 34.466L443.053 34.858C443.48 36.293 444.796 37.189 446.294 37.189Z" fill="#D3D7E0"/>
    <path d="M492 112V24" stroke="#D3D7E0" stroke-width="2" stroke-linecap="square" stroke-dasharray="6 6"/>
    <path d="M600 112V24" stroke="#D3D7E0" stroke-width="2" stroke-linecap="square" stroke-dasharray="6 6"/>
    <path d="M534.593 37H536.056V32.695H539.724V31.225H536.056V28.383H540.564V26.92H534.593V37ZM541.826 37H543.289V33.381H545.963L547.72 37H549.393L547.489 33.094C548.63 32.597 549.204 31.491 549.204 30.147C549.204 28.516 548.364 27.235 546.677 26.976C546.411 26.934 546.096 26.92 545.9 26.92H541.826V37ZM543.289 31.995V28.299H545.844C546.026 28.299 546.271 28.313 546.481 28.369C547.377 28.579 547.713 29.405 547.713 30.147C547.713 30.889 547.377 31.715 546.481 31.932C546.271 31.981 546.026 31.995 545.844 31.995H543.289ZM555.201 37H556.685V35.243H557.686V33.857H556.685V31.127H555.201V33.857H552.324L555.6 26.92H553.927L550.651 33.857V35.243H555.201V37Z" fill="#D3D7E0"/>
    <path d="M25.6881 114H27.4681V101.29H32.3781V99.6H20.7781V101.29H25.6881V114ZM39.8903 114.3C43.2203 114.3 45.4103 112.47 46.2303 109.61L44.4203 109.13C43.8303 111.27 42.3203 112.6 39.8903 112.6C36.6703 112.6 35.0303 110.25 35.0503 106.8C35.0703 103.35 36.6703 101 39.8903 101C42.3203 101 43.8303 102.33 44.4203 104.47L46.2303 103.99C45.4103 101.13 43.2203 99.3 39.8903 99.3C35.5803 99.3 33.1703 102.36 33.1703 106.8C33.1703 111.24 35.5803 114.3 39.8903 114.3ZM48.4234 114H50.2034V108.68H54.4134L56.9934 114H59.0334L56.2534 108.29C57.8834 107.61 58.7334 106.04 58.7334 104.14C58.7334 101.85 57.5034 100.04 55.1734 99.68C54.8034 99.62 54.3934 99.6 54.1134 99.6H48.4234V114ZM50.2034 106.99V101.29H54.0534C54.3034 101.29 54.6534 101.31 54.9534 101.38C56.3334 101.69 56.9134 102.94 56.9134 104.14C56.9134 105.34 56.3334 106.59 54.9534 106.9C54.6534 106.97 54.3034 106.99 54.0534 106.99H50.2034ZM65.2298 103.2V118.8H67.0098V113.39C67.7198 113.96 68.7098 114.3 69.9398 114.3C72.9898 114.3 74.8398 112.57 74.8398 109.95C74.8398 107.74 73.4398 106.44 72.0498 106.09C73.0998 105.58 73.6098 104.5 73.6098 103.22C73.6098 100.84 71.8598 99.3 69.3698 99.3C67.5098 99.3 65.9798 100.16 65.4498 101.78C65.2998 102.23 65.2298 102.71 65.2298 103.2ZM67.0498 109.71V103.86C67.0498 103.44 67.0698 102.8 67.2798 102.28C67.6398 101.35 68.5198 100.99 69.4098 100.99C70.7898 100.99 71.7898 101.82 71.7898 103.24C71.7898 104.67 70.7898 105.4 69.4198 105.54V107.14C71.6098 107.18 73.0298 108.1 73.0298 109.87C73.0298 111.52 71.7898 112.61 70.0198 112.61C68.7698 112.61 67.5298 112.04 67.1998 111.01C67.0798 110.64 67.0498 110.1 67.0498 109.71Z" fill="#110529"/>
    <path d="M25.3268 266H27.1068V253.29H32.0168V251.6H20.4168V253.29H25.3268V266ZM39.529 266.3C42.859 266.3 45.049 264.47 45.869 261.61L44.059 261.13C43.469 263.27 41.959 264.6 39.529 264.6C36.309 264.6 34.669 262.25 34.689 258.8C34.709 255.35 36.309 253 39.529 253C41.959 253 43.469 254.33 44.059 256.47L45.869 255.99C45.049 253.13 42.859 251.3 39.529 251.3C35.219 251.3 32.809 254.36 32.809 258.8C32.809 263.24 35.219 266.3 39.529 266.3ZM48.0621 266H49.8421V260.68H54.0521L56.6321 266H58.6721L55.8921 260.29C57.5221 259.61 58.3721 258.04 58.3721 256.14C58.3721 253.85 57.1421 252.04 54.8121 251.68C54.4421 251.62 54.0321 251.6 53.7521 251.6H48.0621V266ZM49.8421 258.99V253.29H53.6921C53.9421 253.29 54.2921 253.31 54.5921 253.38C55.9721 253.69 56.5521 254.94 56.5521 256.14C56.5521 257.34 55.9721 258.59 54.5921 258.9C54.2921 258.97 53.9421 258.99 53.6921 258.99H49.8421ZM69.1485 266.3C70.7885 266.3 72.0985 265.54 72.7985 264.24V266H74.3885V255.2H72.7985V256.93C72.1085 255.65 70.8485 254.9 69.1985 254.9C66.0985 254.9 64.2785 257.35 64.2785 260.6C64.2785 263.83 66.0885 266.3 69.1485 266.3ZM66.1685 260.6C66.1685 258.19 67.2785 256.53 69.3885 256.53C71.4985 256.53 72.4985 258.2 72.4985 260.59C72.4985 262.96 71.5085 264.67 69.3685 264.67C67.1985 264.67 66.1685 262.88 66.1685 260.6Z" fill="#110529"/>
    <path d="M32.9984 366H34.7784V351.6H32.9984V366ZM43.6089 366.3C47.8189 366.3 50.0589 363.39 50.0589 359.44C50.0589 359.32 50.0489 358.87 50.0189 358.59H45.0789V360.06H48.1389C47.9189 362.93 46.4789 364.62 43.6989 364.6C40.4789 364.58 38.8489 362.25 38.8689 358.8C38.8889 355.35 40.4789 352.99 43.6989 353.01C45.7489 353.02 47.1389 354.14 47.7489 355.88L49.5489 355.51C48.7989 352.92 46.8289 351.31 43.6089 351.31C39.5789 351.31 36.9789 354.21 36.9789 358.8C36.9789 363.44 39.6389 366.3 43.6089 366.3ZM52.0563 366H53.8363V359.64H61.4163V366H63.1963V351.6H61.4163V357.95H53.8363V351.6H52.0563V366Z" fill="#110529"/>
    <path d="M26.0258 456H27.8058V441.6H26.0258V456ZM36.6363 456.3C40.8463 456.3 43.0863 453.39 43.0863 449.44C43.0863 449.32 43.0763 448.87 43.0463 448.59H38.1063V450.06H41.1662C40.9463 452.93 39.5062 454.62 36.7263 454.6C33.5063 454.58 31.8763 452.25 31.8963 448.8C31.9163 445.35 33.5063 442.99 36.7263 443.01C38.7763 443.02 40.1663 444.14 40.7763 445.88L42.5763 445.51C41.8263 442.92 39.8563 441.31 36.6363 441.31C32.6063 441.31 30.0063 444.21 30.0063 448.8C30.0063 453.44 32.6663 456.3 36.6363 456.3ZM45.0836 456H46.8636V448.96L53.6136 456H55.9136L48.8636 448.59L55.4036 441.6H53.1636L46.8636 448.36V441.6H45.0836V456ZM64.5634 441.6L60.7234 456H62.5334L66.3734 441.6H64.5634ZM34.7953 476H36.5753V461.6H34.7953V476ZM45.4058 476.3C49.6158 476.3 51.8558 473.39 51.8558 469.44C51.8558 469.32 51.8458 468.87 51.8158 468.59H46.8758V470.06H49.9358C49.7158 472.93 48.2758 474.62 45.4958 474.6C42.2758 474.58 40.6458 472.25 40.6658 468.8C40.6858 465.35 42.2758 462.99 45.4958 463.01C47.5458 463.02 48.9358 464.14 49.5458 465.88L51.3458 465.51C50.5958 462.92 48.6258 461.31 45.4058 461.31C41.3758 461.31 38.7758 464.21 38.7758 468.8C38.7758 473.44 41.4358 476.3 45.4058 476.3ZM54.0531 476H62.5131V474.31H55.8331V461.6H54.0531V476Z" fill="#110529"/>
    <g filter="url(#filter0_i_6463_40261)">
        <rect x="96" y="80" width="288" height="52" rx="1" fill="#99E099"/>
        <path d="M238.758 114L233.938 99.6H235.788L239.978 112.11L244.208 99.6H246.058L241.238 114H238.758Z" fill="#110529"/>
        <rect x="96" y="80" width="288" height="52" rx="1" stroke="#110529" stroke-width="2" stroke-linecap="round"/>
    </g>
    <g filter="url(#filter1_i_6463_40261)">
        <rect x="384" y="80" width="30" height="52" rx="1" fill="#CBEB67"/>
    </g>
    <rect x="384" y="80" width="30" height="52" rx="1" stroke="#110529" stroke-width="2" stroke-linecap="round"/>
    <g filter="url(#filter2_i_6463_40261)">
        <rect x="450" y="80" width="30" height="52" rx="1" fill="#FAAAFA"/>
    </g>
    <rect x="450" y="80" width="30" height="52" rx="1" stroke="#110529" stroke-width="2" stroke-linecap="round"/>
    <g filter="url(#filter3_i_6463_40261)">
        <rect x="414" y="80" width="36" height="52" rx="1" fill="#FFCB8F"/>
    </g>
    <rect x="414" y="80" width="36" height="52" rx="1" stroke="#110529" stroke-width="2" stroke-linecap="round"/>
    <path d="M393.447 114V99.6H395.247L402.757 110.85V99.6H404.557V114H402.757L395.247 102.74V114H393.447Z" fill="#110529"/>
    <path d="M459.447 114V99.6H461.247L468.757 110.85V99.6H470.557V114H468.757L461.247 102.74V114H459.447Z" fill="#110529"/>
    <path d="M426.593 114V99.6H431.033C431.18 99.6 431.437 99.6033 431.803 99.61C432.17 99.6167 432.52 99.6433 432.853 99.69C433.967 99.8367 434.897 100.243 435.643 100.91C436.397 101.57 436.963 102.41 437.343 103.43C437.723 104.45 437.913 105.573 437.913 106.8C437.913 108.027 437.723 109.15 437.343 110.17C436.963 111.19 436.397 112.033 435.643 112.7C434.897 113.36 433.967 113.763 432.853 113.91C432.52 113.95 432.167 113.977 431.793 113.99C431.427 113.997 431.173 114 431.033 114H426.593ZM428.423 112.3H431.033C431.287 112.3 431.57 112.293 431.883 112.28C432.197 112.26 432.47 112.23 432.703 112.19C433.49 112.043 434.127 111.713 434.613 111.2C435.1 110.687 435.457 110.047 435.683 109.28C435.91 108.513 436.023 107.687 436.023 106.8C436.023 105.893 435.907 105.057 435.673 104.29C435.447 103.523 435.09 102.887 434.603 102.38C434.117 101.873 433.483 101.55 432.703 101.41C432.47 101.363 432.193 101.333 431.873 101.32C431.553 101.307 431.273 101.3 431.033 101.3H428.423V112.3Z" fill="#110529"/>
    <g filter="url(#filter4_i_6463_40261)">
        <rect x="480" y="80" width="120" height="52" rx="1" fill="#C1ADFF"/>
        <path d="M539.244 114.29C538.237 114.29 537.384 114.017 536.684 113.47C535.984 112.923 535.504 112.19 535.244 111.27L537.014 110.85C537.121 111.337 537.377 111.75 537.784 112.09C538.197 112.43 538.671 112.6 539.204 112.6C539.551 112.6 539.904 112.517 540.264 112.35C540.624 112.177 540.901 111.897 541.094 111.51C541.227 111.243 541.304 110.95 541.324 110.63C541.344 110.303 541.354 109.92 541.354 109.48V99.6H543.154V109.48C543.154 109.893 543.151 110.263 543.144 110.59C543.144 110.917 543.111 111.23 543.044 111.53C542.984 111.823 542.864 112.123 542.684 112.43C542.324 113.063 541.841 113.533 541.234 113.84C540.634 114.14 539.971 114.29 539.244 114.29Z" fill="#110529"/>
        <rect x="480" y="80" width="120" height="52" rx="1" stroke="#110529" stroke-width="2" stroke-linecap="round"/>
    </g>
    <g filter="url(#filter5_i_6463_40261)">
        <rect x="600" y="80" width="280" height="52" rx="1" fill="#FAFAAA"/>
        <path d="M740.093 114.3C738.66 114.3 737.443 113.983 736.443 113.35C735.443 112.717 734.68 111.837 734.153 110.71C733.633 109.583 733.373 108.28 733.373 106.8C733.373 105.32 733.633 104.017 734.153 102.89C734.68 101.763 735.443 100.883 736.443 100.25C737.443 99.6167 738.66 99.3 740.093 99.3C741.76 99.3 743.13 99.7233 744.203 100.57C745.283 101.417 746.027 102.557 746.433 103.99L744.623 104.47C744.33 103.397 743.807 102.55 743.053 101.93C742.3 101.31 741.313 101 740.093 101C739.02 101 738.127 101.243 737.413 101.73C736.7 102.217 736.163 102.897 735.803 103.77C735.443 104.637 735.26 105.647 735.253 106.8C735.247 107.947 735.423 108.957 735.783 109.83C736.143 110.697 736.683 111.377 737.403 111.87C738.123 112.357 739.02 112.6 740.093 112.6C741.313 112.6 742.3 112.29 743.053 111.67C743.807 111.043 744.33 110.197 744.623 109.13L746.433 109.61C746.027 111.037 745.283 112.177 744.203 113.03C743.13 113.877 741.76 114.3 740.093 114.3Z" fill="#110529"/>
        <rect x="600" y="80" width="280" height="52" rx="1" stroke="#110529" stroke-width="2" stroke-linecap="round"/>
    </g>
    <g filter="url(#filter6_i_6463_40261)">
        <rect x="96" y="332" width="288" height="52" rx="1" fill="#99E099"/>
        <path d="M238.758 366L233.938 351.6H235.788L239.978 364.11L244.208 351.6H246.058L241.238 366H238.758Z" fill="#110529"/>
        <rect x="96" y="332" width="288" height="52" rx="1" stroke="#110529" stroke-width="2" stroke-linecap="round"/>
    </g>
    <g filter="url(#filter7_i_6463_40261)">
        <rect x="384" y="332" width="30" height="52" rx="1" fill="#CBEB67"/>
    </g>
    <rect x="384" y="332" width="30" height="52" rx="1" stroke="#110529" stroke-width="2" stroke-linecap="round"/>
    <g filter="url(#filter8_i_6463_40261)">
        <rect x="450" y="332" width="30" height="52" rx="1" fill="#FAAAFA"/>
    </g>
    <rect x="450" y="332" width="30" height="52" rx="1" stroke="#110529" stroke-width="2" stroke-linecap="round"/>
    <g filter="url(#filter9_i_6463_40261)">
        <rect x="414" y="332" width="36" height="52" rx="1" fill="#FFCB8F"/>
    </g>
    <rect x="414" y="332" width="36" height="52" rx="1" stroke="#110529" stroke-width="2" stroke-linecap="round"/>
    <path d="M393.447 366V351.6H395.247L402.757 362.85V351.6H404.557V366H402.757L395.247 354.74V366H393.447Z" fill="#110529"/>
    <path d="M459.447 366V351.6H461.247L468.757 362.85V351.6H470.557V366H468.757L461.247 354.74V366H459.447Z" fill="#110529"/>
    <path d="M426.593 366V351.6H431.033C431.18 351.6 431.437 351.603 431.803 351.61C432.17 351.617 432.52 351.643 432.853 351.69C433.967 351.837 434.897 352.243 435.643 352.91C436.397 353.57 436.963 354.41 437.343 355.43C437.723 356.45 437.913 357.573 437.913 358.8C437.913 360.027 437.723 361.15 437.343 362.17C436.963 363.19 436.397 364.033 435.643 364.7C434.897 365.36 433.967 365.763 432.853 365.91C432.52 365.95 432.167 365.977 431.793 365.99C431.427 365.997 431.173 366 431.033 366H426.593ZM428.423 364.3H431.033C431.287 364.3 431.57 364.293 431.883 364.28C432.197 364.26 432.47 364.23 432.703 364.19C433.49 364.043 434.127 363.713 434.613 363.2C435.1 362.687 435.457 362.047 435.683 361.28C435.91 360.513 436.023 359.687 436.023 358.8C436.023 357.893 435.907 357.057 435.673 356.29C435.447 355.523 435.09 354.887 434.603 354.38C434.117 353.873 433.483 353.55 432.703 353.41C432.47 353.363 432.193 353.333 431.873 353.32C431.553 353.307 431.273 353.3 431.033 353.3H428.423V364.3Z" fill="#110529"/>
    <g filter="url(#filter10_i_6463_40261)">
        <rect x="480" y="332" width="120" height="52" rx="1" fill="#C1ADFF"/>
        <path d="M539.244 366.29C538.237 366.29 537.384 366.017 536.684 365.47C535.984 364.923 535.504 364.19 535.244 363.27L537.014 362.85C537.121 363.337 537.377 363.75 537.784 364.09C538.197 364.43 538.671 364.6 539.204 364.6C539.551 364.6 539.904 364.517 540.264 364.35C540.624 364.177 540.901 363.897 541.094 363.51C541.227 363.243 541.304 362.95 541.324 362.63C541.344 362.303 541.354 361.92 541.354 361.48V351.6H543.154V361.48C543.154 361.893 543.151 362.263 543.144 362.59C543.144 362.917 543.111 363.23 543.044 363.53C542.984 363.823 542.864 364.123 542.684 364.43C542.324 365.063 541.841 365.533 541.234 365.84C540.634 366.14 539.971 366.29 539.244 366.29Z" fill="#110529"/>
        <rect x="480" y="332" width="120" height="52" rx="1" stroke="#110529" stroke-width="2" stroke-linecap="round"/>
    </g>
    <g filter="url(#filter11_i_6463_40261)">
        <rect x="600" y="332" width="280" height="52" rx="1" fill="#FAFAAA"/>
        <path d="M740.093 366.3C738.66 366.3 737.443 365.983 736.443 365.35C735.443 364.717 734.68 363.837 734.153 362.71C733.633 361.583 733.373 360.28 733.373 358.8C733.373 357.32 733.633 356.017 734.153 354.89C734.68 353.763 735.443 352.883 736.443 352.25C737.443 351.617 738.66 351.3 740.093 351.3C741.76 351.3 743.13 351.723 744.203 352.57C745.283 353.417 746.027 354.557 746.433 355.99L744.623 356.47C744.33 355.397 743.807 354.55 743.053 353.93C742.3 353.31 741.313 353 740.093 353C739.02 353 738.127 353.243 737.413 353.73C736.7 354.217 736.163 354.897 735.803 355.77C735.443 356.637 735.26 357.647 735.253 358.8C735.247 359.947 735.423 360.957 735.783 361.83C736.143 362.697 736.683 363.377 737.403 363.87C738.123 364.357 739.02 364.6 740.093 364.6C741.313 364.6 742.3 364.29 743.053 363.67C743.807 363.043 744.33 362.197 744.623 361.13L746.433 361.61C746.027 363.037 745.283 364.177 744.203 365.03C743.13 365.877 741.76 366.3 740.093 366.3Z" fill="#110529"/>
        <rect x="600" y="332" width="280" height="52" rx="1" stroke="#110529" stroke-width="2" stroke-linecap="round"/>
    </g>
    <g filter="url(#filter12_i_6463_40261)">
        <rect x="96" y="232" width="288" height="52" rx="1" fill="#99E099"/>
        <path d="M238.758 266L233.938 251.6H235.788L239.978 264.11L244.208 251.6H246.058L241.238 266H238.758Z" fill="#110529"/>
        <rect x="96" y="232" width="288" height="52" rx="1" stroke="#110529" stroke-width="2" stroke-linecap="round"/>
    </g>
    <g filter="url(#filter13_i_6463_40261)">
        <rect x="384" y="232" width="30" height="52" rx="1" fill="#CBEB67"/>
        <path d="M393.447 266V251.6H395.247L402.757 262.85V251.6H404.557V266H402.757L395.247 254.74V266H393.447Z" fill="#110529"/>
        <rect x="384" y="232" width="30" height="52" rx="1" stroke="#110529" stroke-width="2" stroke-linecap="round"/>
    </g>
    <g filter="url(#filter14_i_6463_40261)">
        <rect x="414" y="232" width="120" height="52" rx="1" fill="#C1ADFF"/>
        <path d="M473.244 266.29C472.237 266.29 471.384 266.017 470.684 265.47C469.984 264.923 469.504 264.19 469.244 263.27L471.014 262.85C471.121 263.337 471.377 263.75 471.784 264.09C472.197 264.43 472.671 264.6 473.204 264.6C473.551 264.6 473.904 264.517 474.264 264.35C474.624 264.177 474.901 263.897 475.094 263.51C475.227 263.243 475.304 262.95 475.324 262.63C475.344 262.303 475.354 261.92 475.354 261.48V251.6H477.154V261.48C477.154 261.893 477.151 262.263 477.144 262.59C477.144 262.917 477.111 263.23 477.044 263.53C476.984 263.823 476.864 264.123 476.684 264.43C476.324 265.063 475.841 265.533 475.234 265.84C474.634 266.14 473.971 266.29 473.244 266.29Z" fill="#110529"/>
        <rect x="414" y="232" width="120" height="52" rx="1" stroke="#110529" stroke-width="2" stroke-linecap="round"/>
    </g>
    <g filter="url(#filter15_i_6463_40261)">
        <rect x="534" y="232" width="280" height="52" rx="1" fill="#FAFAAA"/>
        <path d="M674.093 266.3C672.66 266.3 671.443 265.983 670.443 265.35C669.443 264.717 668.68 263.837 668.153 262.71C667.633 261.583 667.373 260.28 667.373 258.8C667.373 257.32 667.633 256.017 668.153 254.89C668.68 253.763 669.443 252.883 670.443 252.25C671.443 251.617 672.66 251.3 674.093 251.3C675.76 251.3 677.13 251.723 678.203 252.57C679.283 253.417 680.027 254.557 680.433 255.99L678.623 256.47C678.33 255.397 677.807 254.55 677.053 253.93C676.3 253.31 675.313 253 674.093 253C673.02 253 672.127 253.243 671.413 253.73C670.7 254.217 670.163 254.897 669.803 255.77C669.443 256.637 669.26 257.647 669.253 258.8C669.247 259.947 669.423 260.957 669.783 261.83C670.143 262.697 670.683 263.377 671.403 263.87C672.123 264.357 673.02 264.6 674.093 264.6C675.313 264.6 676.3 264.29 677.053 263.67C677.807 263.043 678.33 262.197 678.623 261.13L680.433 261.61C680.027 263.037 679.283 264.177 678.203 265.03C677.13 265.877 675.76 266.3 674.093 266.3Z" fill="#110529"/>
        <rect x="534" y="232" width="280" height="52" rx="1" stroke="#110529" stroke-width="2" stroke-linecap="round"/>
    </g>
    <g filter="url(#filter16_i_6463_40261)">
        <rect x="96" y="432" width="288" height="52" rx="1" fill="#99E099"/>
        <path d="M238.758 466L233.938 451.6H235.788L239.978 464.11L244.208 451.6H246.058L241.238 466H238.758Z" fill="#110529"/>
        <rect x="96" y="432" width="288" height="52" rx="1" stroke="#110529" stroke-width="2" stroke-linecap="round"/>
    </g>
    <g filter="url(#filter17_i_6463_40261)">
        <rect x="384" y="432" width="30" height="52" rx="1" fill="#CBEB67"/>
        <path d="M393.447 466V451.6H395.247L402.757 462.85V451.6H404.557V466H402.757L395.247 454.74V466H393.447Z" fill="#110529"/>
        <rect x="384" y="432" width="30" height="52" rx="1" stroke="#110529" stroke-width="2" stroke-linecap="round"/>
    </g>
    <g filter="url(#filter18_i_6463_40261)">
        <rect x="414" y="432" width="120" height="52" rx="1" fill="#C1ADFF"/>
        <path d="M473.244 466.29C472.237 466.29 471.384 466.017 470.684 465.47C469.984 464.923 469.504 464.19 469.244 463.27L471.014 462.85C471.121 463.337 471.377 463.75 471.784 464.09C472.197 464.43 472.671 464.6 473.204 464.6C473.551 464.6 473.904 464.517 474.264 464.35C474.624 464.177 474.901 463.897 475.094 463.51C475.227 463.243 475.304 462.95 475.324 462.63C475.344 462.303 475.354 461.92 475.354 461.48V451.6H477.154V461.48C477.154 461.893 477.151 462.263 477.144 462.59C477.144 462.917 477.111 463.23 477.044 463.53C476.984 463.823 476.864 464.123 476.684 464.43C476.324 465.063 475.841 465.533 475.234 465.84C474.634 466.14 473.971 466.29 473.244 466.29Z" fill="#110529"/>
        <rect x="414" y="432" width="120" height="52" rx="1" stroke="#110529" stroke-width="2" stroke-linecap="round"/>
    </g>
    <g filter="url(#filter19_i_6463_40261)">
        <rect x="534" y="432" width="280" height="52" rx="1" fill="#FAFAAA"/>
        <path d="M674.093 466.3C672.66 466.3 671.443 465.983 670.443 465.35C669.443 464.717 668.68 463.837 668.153 462.71C667.633 461.583 667.373 460.28 667.373 458.8C667.373 457.32 667.633 456.017 668.153 454.89C668.68 453.763 669.443 452.883 670.443 452.25C671.443 451.617 672.66 451.3 674.093 451.3C675.76 451.3 677.13 451.723 678.203 452.57C679.283 453.417 680.027 454.557 680.433 455.99L678.623 456.47C678.33 455.397 677.807 454.55 677.053 453.93C676.3 453.31 675.313 453 674.093 453C673.02 453 672.127 453.243 671.413 453.73C670.7 454.217 670.163 454.897 669.803 455.77C669.443 456.637 669.26 457.647 669.253 458.8C669.247 459.947 669.423 460.957 669.783 461.83C670.143 462.697 670.683 463.377 671.403 463.87C672.123 464.357 673.02 464.6 674.093 464.6C675.313 464.6 676.3 464.29 677.053 463.67C677.807 463.043 678.33 462.197 678.623 461.13L680.433 461.61C680.027 463.037 679.283 464.177 678.203 465.03C677.13 465.877 675.76 466.3 674.093 466.3Z" fill="#110529"/>
        <rect x="534" y="432" width="280" height="52" rx="1" stroke="#110529" stroke-width="2" stroke-linecap="round"/>
    </g>
    <path d="M190 154H96" stroke="#110529" stroke-width="2" stroke-linecap="square"/>
    <path d="M200 154L200.707 153.293L201.414 154L200.707 154.707L200 154ZM192.707 162.707L192 163.414L190.586 162L191.293 161.293L192.707 162.707ZM191.293 146.707L190.586 146L192 144.586L192.707 145.293L191.293 146.707ZM190 153L200 153L200 155L190 155L190 153ZM200.707 154.707L192.707 162.707L191.293 161.293L199.293 153.293L200.707 154.707ZM199.293 154.707L191.293 146.707L192.707 145.293L200.707 153.293L199.293 154.707Z" fill="#110529"/>
    <path d="M416 154H206" stroke="#110529" stroke-width="2" stroke-linecap="square"/>
    <path d="M426 154L426.707 153.293L427.414 154L426.707 154.707L426 154ZM418.707 162.707L418 163.414L416.586 162L417.293 161.293L418.707 162.707ZM417.293 146.707L416.586 146L418 144.586L418.707 145.293L417.293 146.707ZM416 153L426 153L426 155L416 155L416 153ZM426.707 154.707L418.707 162.707L417.293 161.293L425.293 153.293L426.707 154.707ZM425.293 154.707L417.293 146.707L418.707 145.293L426.707 153.293L425.293 154.707Z" fill="#110529"/>
    <path d="M642 154H432" stroke="#110529" stroke-width="2" stroke-linecap="square"/>
    <path d="M652 154L652.707 153.293L653.414 154L652.707 154.707L652 154ZM644.707 162.707L644 163.414L642.586 162L643.293 161.293L644.707 162.707ZM643.293 146.707L642.586 146L644 144.586L644.707 145.293L643.293 146.707ZM642 153L652 153L652 155L642 155L642 153ZM652.707 154.707L644.707 162.707L643.293 161.293L651.293 153.293L652.707 154.707ZM651.293 154.707L643.293 146.707L644.707 145.293L652.707 153.293L651.293 154.707Z" fill="#110529"/>
    <path d="M868 154H658" stroke="#110529" stroke-width="2" stroke-linecap="square"/>
    <path d="M878 154L878.707 153.293L879.414 154L878.707 154.707L878 154ZM870.707 162.707L870 163.414L868.586 162L869.293 161.293L870.707 162.707ZM869.293 146.707L868.586 146L870 144.586L870.707 145.293L869.293 146.707ZM868 153L878 153L878 155L868 155L868 153ZM878.707 154.707L870.707 162.707L869.293 161.293L877.293 153.293L878.707 154.707ZM877.293 154.707L869.293 146.707L870.707 145.293L878.707 153.293L877.293 154.707Z" fill="#110529"/>
    <path d="M306 174H96" stroke="#110529" stroke-width="2" stroke-linecap="square"/>
    <path d="M316 174L316.707 173.293L317.414 174L316.707 174.707L316 174ZM308.707 182.707L308 183.414L306.586 182L307.293 181.293L308.707 182.707ZM307.293 166.707L306.586 166L308 164.586L308.707 165.293L307.293 166.707ZM306 173L316 173L316 175L306 175L306 173ZM316.707 174.707L308.707 182.707L307.293 181.293L315.293 173.293L316.707 174.707ZM315.293 174.707L307.293 166.707L308.707 165.293L316.707 173.293L315.293 174.707Z" fill="#110529"/>
    <rect width="66" height="20" transform="translate(176.667 164)" fill="white"/>
    <path d="M183.795 180H185.243V168.48H183.795L181.627 169.776V171.368L183.795 170.056V180ZM192.175 180.24C194.415 180.24 196.063 178.592 196.063 176.352V172.128C196.063 169.888 194.415 168.24 192.175 168.24C189.935 168.24 188.287 169.888 188.287 172.128V176.352C188.287 178.592 189.935 180.24 192.175 180.24ZM189.735 176.432V172.04C189.735 170.688 190.823 169.6 192.175 169.6C193.527 169.6 194.615 170.688 194.615 172.04V176.432C194.615 177.784 193.527 178.872 192.175 178.872C190.823 178.872 189.735 177.784 189.735 176.432ZM202.19 180.24C204.43 180.24 206.078 178.592 206.078 176.352V172.128C206.078 169.888 204.43 168.24 202.19 168.24C199.95 168.24 198.302 169.888 198.302 172.128V176.352C198.302 178.592 199.95 180.24 202.19 180.24ZM199.75 176.432V172.04C199.75 170.688 200.838 169.6 202.19 169.6C203.542 169.6 204.63 170.688 204.63 172.04V176.432C204.63 177.784 203.542 178.872 202.19 178.872C200.838 178.872 199.75 177.784 199.75 176.432ZM212.286 180.24C214.702 180.24 216.158 178.264 216.158 175.672C216.158 173.08 214.694 171.12 212.294 171.12C211.214 171.12 210.358 171.496 209.742 172.144V168.48H208.31V180H209.582V179.024C210.214 179.784 211.118 180.24 212.286 180.24ZM209.582 175.672C209.582 173.76 210.382 172.424 212.07 172.424C213.83 172.424 214.646 173.848 214.646 175.672C214.646 177.512 213.814 178.936 212.11 178.936C210.366 178.936 209.582 177.568 209.582 175.672ZM221.88 180.24C224.296 180.24 225.752 178.264 225.752 175.672C225.752 173.08 224.288 171.12 221.888 171.12C220.712 171.12 219.808 171.568 219.176 172.328V171.36H217.904V183.84H219.336V179.2C219.952 179.856 220.808 180.24 221.88 180.24ZM219.176 175.672C219.176 173.76 219.976 172.424 221.664 172.424C223.424 172.424 224.24 173.848 224.24 175.672C224.24 177.512 223.408 178.936 221.704 178.936C219.96 178.936 219.176 177.568 219.176 175.672Z" fill="#110529"/>
    <path d="M532 174H322" stroke="#110529" stroke-width="2" stroke-linecap="square"/>
    <path d="M542 174L542.707 173.293L543.414 174L542.707 174.707L542 174ZM534.707 182.707L534 183.414L532.586 182L533.293 181.293L534.707 182.707ZM533.293 166.707L532.586 166L534 164.586L534.707 165.293L533.293 166.707ZM532 173L542 173L542 175L532 175L532 173ZM542.707 174.707L534.707 182.707L533.293 181.293L541.293 173.293L542.707 174.707ZM541.293 174.707L533.293 166.707L534.707 165.293L542.707 173.293L541.293 174.707Z" fill="#110529"/>
    <path d="M758 174H548" stroke="#110529" stroke-width="2" stroke-linecap="square"/>
    <path d="M768 174L768.707 173.293L769.414 174L768.707 174.707L768 174ZM760.707 182.707L760 183.414L758.586 182L759.293 181.293L760.707 182.707ZM759.293 166.707L758.586 166L760 164.586L760.707 165.293L759.293 166.707ZM758 173L768 173L768 175L758 175L758 173ZM768.707 174.707L760.707 182.707L759.293 181.293L767.293 173.293L768.707 174.707ZM767.293 174.707L759.293 166.707L760.707 165.293L768.707 173.293L767.293 174.707Z" fill="#110529"/>
    <defs>
        <filter id="filter0_i_6463_40261" x="95" y="79" width="290" height="54" filterUnits="userSpaceOnUse" color-interpolation-filters="sRGB">
            <feFlood flood-opacity="0" result="BackgroundImageFix"/>
            <feBlend mode="normal" in="SourceGraphic" in2="BackgroundImageFix" result="shape"/>
            <feColorMatrix in="SourceAlpha" type="matrix" values="0 0 0 0 0 0 0 0 0 0 0 0 0 0 0 0 0 0 127 0" result="hardAlpha"/>
            <feOffset dx="-8" dy="-4"/>
            <feComposite in2="hardAlpha" operator="arithmetic" k2="-1" k3="1"/>
            <feColorMatrix type="matrix" values="0 0 0 0 0.0666667 0 0 0 0 0.0196078 0 0 0 0 0.160784 0 0 0 0.16 0"/>
            <feBlend mode="normal" in2="shape" result="effect1_innerShadow_6463_40261"/>
        </filter>
        <filter id="filter1_i_6463_40261" x="383" y="79" width="32" height="54" filterUnits="userSpaceOnUse" color-interpolation-filters="sRGB">
            <feFlood flood-opacity="0" result="BackgroundImageFix"/>
            <feBlend mode="normal" in="SourceGraphic" in2="BackgroundImageFix" result="shape"/>
            <feColorMatrix in="SourceAlpha" type="matrix" values="0 0 0 0 0 0 0 0 0 0 0 0 0 0 0 0 0 0 127 0" result="hardAlpha"/>
            <feOffset dx="-8" dy="-4"/>
            <feComposite in2="hardAlpha" operator="arithmetic" k2="-1" k3="1"/>
            <feColorMatrix type="matrix" values="0 0 0 0 0.0666667 0 0 0 0 0.0196078 0 0 0 0 0.160784 0 0 0 0.16 0"/>
            <feBlend mode="normal" in2="shape" result="effect1_innerShadow_6463_40261"/>
        </filter>
        <filter id="filter2_i_6463_40261" x="449" y="79" width="32" height="54" filterUnits="userSpaceOnUse" color-interpolation-filters="sRGB">
            <feFlood flood-opacity="0" result="BackgroundImageFix"/>
            <feBlend mode="normal" in="SourceGraphic" in2="BackgroundImageFix" result="shape"/>
            <feColorMatrix in="SourceAlpha" type="matrix" values="0 0 0 0 0 0 0 0 0 0 0 0 0 0 0 0 0 0 127 0" result="hardAlpha"/>
            <feOffset dx="-8" dy="-4"/>
            <feComposite in2="hardAlpha" operator="arithmetic" k2="-1" k3="1"/>
            <feColorMatrix type="matrix" values="0 0 0 0 0.0666667 0 0 0 0 0.0196078 0 0 0 0 0.160784 0 0 0 0.16 0"/>
            <feBlend mode="normal" in2="shape" result="effect1_innerShadow_6463_40261"/>
        </filter>
        <filter id="filter3_i_6463_40261" x="413" y="79" width="38" height="54" filterUnits="userSpaceOnUse" color-interpolation-filters="sRGB">
            <feFlood flood-opacity="0" result="BackgroundImageFix"/>
            <feBlend mode="normal" in="SourceGraphic" in2="BackgroundImageFix" result="shape"/>
            <feColorMatrix in="SourceAlpha" type="matrix" values="0 0 0 0 0 0 0 0 0 0 0 0 0 0 0 0 0 0 127 0" result="hardAlpha"/>
            <feOffset dx="-8" dy="-4"/>
            <feComposite in2="hardAlpha" operator="arithmetic" k2="-1" k3="1"/>
            <feColorMatrix type="matrix" values="0 0 0 0 0.0666667 0 0 0 0 0.0196078 0 0 0 0 0.160784 0 0 0 0.16 0"/>
            <feBlend mode="normal" in2="shape" result="effect1_innerShadow_6463_40261"/>
        </filter>
        <filter id="filter4_i_6463_40261" x="479" y="79" width="122" height="54" filterUnits="userSpaceOnUse" color-interpolation-filters="sRGB">
            <feFlood flood-opacity="0" result="BackgroundImageFix"/>
            <feBlend mode="normal" in="SourceGraphic" in2="BackgroundImageFix" result="shape"/>
            <feColorMatrix in="SourceAlpha" type="matrix" values="0 0 0 0 0 0 0 0 0 0 0 0 0 0 0 0 0 0 127 0" result="hardAlpha"/>
            <feOffset dx="-8" dy="-4"/>
            <feComposite in2="hardAlpha" operator="arithmetic" k2="-1" k3="1"/>
            <feColorMatrix type="matrix" values="0 0 0 0 0.0666667 0 0 0 0 0.0196078 0 0 0 0 0.160784 0 0 0 0.16 0"/>
            <feBlend mode="normal" in2="shape" result="effect1_innerShadow_6463_40261"/>
        </filter>
        <filter id="filter5_i_6463_40261" x="599" y="79" width="282" height="54" filterUnits="userSpaceOnUse" color-interpolation-filters="sRGB">
            <feFlood flood-opacity="0" result="BackgroundImageFix"/>
            <feBlend mode="normal" in="SourceGraphic" in2="BackgroundImageFix" result="shape"/>
            <feColorMatrix in="SourceAlpha" type="matrix" values="0 0 0 0 0 0 0 0 0 0 0 0 0 0 0 0 0 0 127 0" result="hardAlpha"/>
            <feOffset dx="-8" dy="-4"/>
            <feComposite in2="hardAlpha" operator="arithmetic" k2="-1" k3="1"/>
            <feColorMatrix type="matrix" values="0 0 0 0 0.0666667 0 0 0 0 0.0196078 0 0 0 0 0.160784 0 0 0 0.16 0"/>
            <feBlend mode="normal" in2="shape" result="effect1_innerShadow_6463_40261"/>
        </filter>
        <filter id="filter6_i_6463_40261" x="95" y="331" width="290" height="54" filterUnits="userSpaceOnUse" color-interpolation-filters="sRGB">
            <feFlood flood-opacity="0" result="BackgroundImageFix"/>
            <feBlend mode="normal" in="SourceGraphic" in2="BackgroundImageFix" result="shape"/>
            <feColorMatrix in="SourceAlpha" type="matrix" values="0 0 0 0 0 0 0 0 0 0 0 0 0 0 0 0 0 0 127 0" result="hardAlpha"/>
            <feOffset dx="-8" dy="-4"/>
            <feComposite in2="hardAlpha" operator="arithmetic" k2="-1" k3="1"/>
            <feColorMatrix type="matrix" values="0 0 0 0 0.0666667 0 0 0 0 0.0196078 0 0 0 0 0.160784 0 0 0 0.16 0"/>
            <feBlend mode="normal" in2="shape" result="effect1_innerShadow_6463_40261"/>
        </filter>
        <filter id="filter7_i_6463_40261" x="383" y="331" width="32" height="54" filterUnits="userSpaceOnUse" color-interpolation-filters="sRGB">
            <feFlood flood-opacity="0" result="BackgroundImageFix"/>
            <feBlend mode="normal" in="SourceGraphic" in2="BackgroundImageFix" result="shape"/>
            <feColorMatrix in="SourceAlpha" type="matrix" values="0 0 0 0 0 0 0 0 0 0 0 0 0 0 0 0 0 0 127 0" result="hardAlpha"/>
            <feOffset dx="-8" dy="-4"/>
            <feComposite in2="hardAlpha" operator="arithmetic" k2="-1" k3="1"/>
            <feColorMatrix type="matrix" values="0 0 0 0 0.0666667 0 0 0 0 0.0196078 0 0 0 0 0.160784 0 0 0 0.16 0"/>
            <feBlend mode="normal" in2="shape" result="effect1_innerShadow_6463_40261"/>
        </filter>
        <filter id="filter8_i_6463_40261" x="449" y="331" width="32" height="54" filterUnits="userSpaceOnUse" color-interpolation-filters="sRGB">
            <feFlood flood-opacity="0" result="BackgroundImageFix"/>
            <feBlend mode="normal" in="SourceGraphic" in2="BackgroundImageFix" result="shape"/>
            <feColorMatrix in="SourceAlpha" type="matrix" values="0 0 0 0 0 0 0 0 0 0 0 0 0 0 0 0 0 0 127 0" result="hardAlpha"/>
            <feOffset dx="-8" dy="-4"/>
            <feComposite in2="hardAlpha" operator="arithmetic" k2="-1" k3="1"/>
            <feColorMatrix type="matrix" values="0 0 0 0 0.0666667 0 0 0 0 0.0196078 0 0 0 0 0.160784 0 0 0 0.16 0"/>
            <feBlend mode="normal" in2="shape" result="effect1_innerShadow_6463_40261"/>
        </filter>
        <filter id="filter9_i_6463_40261" x="413" y="331" width="38" height="54" filterUnits="userSpaceOnUse" color-interpolation-filters="sRGB">
            <feFlood flood-opacity="0" result="BackgroundImageFix"/>
            <feBlend mode="normal" in="SourceGraphic" in2="BackgroundImageFix" result="shape"/>
            <feColorMatrix in="SourceAlpha" type="matrix" values="0 0 0 0 0 0 0 0 0 0 0 0 0 0 0 0 0 0 127 0" result="hardAlpha"/>
            <feOffset dx="-8" dy="-4"/>
            <feComposite in2="hardAlpha" operator="arithmetic" k2="-1" k3="1"/>
            <feColorMatrix type="matrix" values="0 0 0 0 0.0666667 0 0 0 0 0.0196078 0 0 0 0 0.160784 0 0 0 0.16 0"/>
            <feBlend mode="normal" in2="shape" result="effect1_innerShadow_6463_40261"/>
        </filter>
        <filter id="filter10_i_6463_40261" x="479" y="331" width="122" height="54" filterUnits="userSpaceOnUse" color-interpolation-filters="sRGB">
            <feFlood flood-opacity="0" result="BackgroundImageFix"/>
            <feBlend mode="normal" in="SourceGraphic" in2="BackgroundImageFix" result="shape"/>
            <feColorMatrix in="SourceAlpha" type="matrix" values="0 0 0 0 0 0 0 0 0 0 0 0 0 0 0 0 0 0 127 0" result="hardAlpha"/>
            <feOffset dx="-8" dy="-4"/>
            <feComposite in2="hardAlpha" operator="arithmetic" k2="-1" k3="1"/>
            <feColorMatrix type="matrix" values="0 0 0 0 0.0666667 0 0 0 0 0.0196078 0 0 0 0 0.160784 0 0 0 0.16 0"/>
            <feBlend mode="normal" in2="shape" result="effect1_innerShadow_6463_40261"/>
        </filter>
        <filter id="filter11_i_6463_40261" x="599" y="331" width="282" height="54" filterUnits="userSpaceOnUse" color-interpolation-filters="sRGB">
            <feFlood flood-opacity="0" result="BackgroundImageFix"/>
            <feBlend mode="normal" in="SourceGraphic" in2="BackgroundImageFix" result="shape"/>
            <feColorMatrix in="SourceAlpha" type="matrix" values="0 0 0 0 0 0 0 0 0 0 0 0 0 0 0 0 0 0 127 0" result="hardAlpha"/>
            <feOffset dx="-8" dy="-4"/>
            <feComposite in2="hardAlpha" operator="arithmetic" k2="-1" k3="1"/>
            <feColorMatrix type="matrix" values="0 0 0 0 0.0666667 0 0 0 0 0.0196078 0 0 0 0 0.160784 0 0 0 0.16 0"/>
            <feBlend mode="normal" in2="shape" result="effect1_innerShadow_6463_40261"/>
        </filter>
        <filter id="filter12_i_6463_40261" x="95" y="231" width="290" height="54" filterUnits="userSpaceOnUse" color-interpolation-filters="sRGB">
            <feFlood flood-opacity="0" result="BackgroundImageFix"/>
            <feBlend mode="normal" in="SourceGraphic" in2="BackgroundImageFix" result="shape"/>
            <feColorMatrix in="SourceAlpha" type="matrix" values="0 0 0 0 0 0 0 0 0 0 0 0 0 0 0 0 0 0 127 0" result="hardAlpha"/>
            <feOffset dx="-8" dy="-4"/>
            <feComposite in2="hardAlpha" operator="arithmetic" k2="-1" k3="1"/>
            <feColorMatrix type="matrix" values="0 0 0 0 0.0666667 0 0 0 0 0.0196078 0 0 0 0 0.160784 0 0 0 0.16 0"/>
            <feBlend mode="normal" in2="shape" result="effect1_innerShadow_6463_40261"/>
        </filter>
        <filter id="filter13_i_6463_40261" x="383" y="231" width="32" height="54" filterUnits="userSpaceOnUse" color-interpolation-filters="sRGB">
            <feFlood flood-opacity="0" result="BackgroundImageFix"/>
            <feBlend mode="normal" in="SourceGraphic" in2="BackgroundImageFix" result="shape"/>
            <feColorMatrix in="SourceAlpha" type="matrix" values="0 0 0 0 0 0 0 0 0 0 0 0 0 0 0 0 0 0 127 0" result="hardAlpha"/>
            <feOffset dx="-8" dy="-4"/>
            <feComposite in2="hardAlpha" operator="arithmetic" k2="-1" k3="1"/>
            <feColorMatrix type="matrix" values="0 0 0 0 0.0666667 0 0 0 0 0.0196078 0 0 0 0 0.160784 0 0 0 0.16 0"/>
            <feBlend mode="normal" in2="shape" result="effect1_innerShadow_6463_40261"/>
        </filter>
        <filter id="filter14_i_6463_40261" x="413" y="231" width="122" height="54" filterUnits="userSpaceOnUse" color-interpolation-filters="sRGB">
            <feFlood flood-opacity="0" result="BackgroundImageFix"/>
            <feBlend mode="normal" in="SourceGraphic" in2="BackgroundImageFix" result="shape"/>
            <feColorMatrix in="SourceAlpha" type="matrix" values="0 0 0 0 0 0 0 0 0 0 0 0 0 0 0 0 0 0 127 0" result="hardAlpha"/>
            <feOffset dx="-8" dy="-4"/>
            <feComposite in2="hardAlpha" operator="arithmetic" k2="-1" k3="1"/>
            <feColorMatrix type="matrix" values="0 0 0 0 0.0666667 0 0 0 0 0.0196078 0 0 0 0 0.160784 0 0 0 0.16 0"/>
            <feBlend mode="normal" in2="shape" result="effect1_innerShadow_6463_40261"/>
        </filter>
        <filter id="filter15_i_6463_40261" x="533" y="231" width="282" height="54" filterUnits="userSpaceOnUse" color-interpolation-filters="sRGB">
            <feFlood flood-opacity="0" result="BackgroundImageFix"/>
            <feBlend mode="normal" in="SourceGraphic" in2="BackgroundImageFix" result="shape"/>
            <feColorMatrix in="SourceAlpha" type="matrix" values="0 0 0 0 0 0 0 0 0 0 0 0 0 0 0 0 0 0 127 0" result="hardAlpha"/>
            <feOffset dx="-8" dy="-4"/>
            <feComposite in2="hardAlpha" operator="arithmetic" k2="-1" k3="1"/>
            <feColorMatrix type="matrix" values="0 0 0 0 0.0666667 0 0 0 0 0.0196078 0 0 0 0 0.160784 0 0 0 0.16 0"/>
            <feBlend mode="normal" in2="shape" result="effect1_innerShadow_6463_40261"/>
        </filter>
        <filter id="filter16_i_6463_40261" x="95" y="431" width="290" height="54" filterUnits="userSpaceOnUse" color-interpolation-filters="sRGB">
            <feFlood flood-opacity="0" result="BackgroundImageFix"/>
            <feBlend mode="normal" in="SourceGraphic" in2="BackgroundImageFix" result="shape"/>
            <feColorMatrix in="SourceAlpha" type="matrix" values="0 0 0 0 0 0 0 0 0 0 0 0 0 0 0 0 0 0 127 0" result="hardAlpha"/>
            <feOffset dx="-8" dy="-4"/>
            <feComposite in2="hardAlpha" operator="arithmetic" k2="-1" k3="1"/>
            <feColorMatrix type="matrix" values="0 0 0 0 0.0666667 0 0 0 0 0.0196078 0 0 0 0 0.160784 0 0 0 0.16 0"/>
            <feBlend mode="normal" in2="shape" result="effect1_innerShadow_6463_40261"/>
        </filter>
        <filter id="filter17_i_6463_40261" x="383" y="431" width="32" height="54" filterUnits="userSpaceOnUse" color-interpolation-filters="sRGB">
            <feFlood flood-opacity="0" result="BackgroundImageFix"/>
            <feBlend mode="normal" in="SourceGraphic" in2="BackgroundImageFix" result="shape"/>
            <feColorMatrix in="SourceAlpha" type="matrix" values="0 0 0 0 0 0 0 0 0 0 0 0 0 0 0 0 0 0 127 0" result="hardAlpha"/>
            <feOffset dx="-8" dy="-4"/>
            <feComposite in2="hardAlpha" operator="arithmetic" k2="-1" k3="1"/>
            <feColorMatrix type="matrix" values="0 0 0 0 0.0666667 0 0 0 0 0.0196078 0 0 0 0 0.160784 0 0 0 0.16 0"/>
            <feBlend mode="normal" in2="shape" result="effect1_innerShadow_6463_40261"/>
        </filter>
        <filter id="filter18_i_6463_40261" x="413" y="431" width="122" height="54" filterUnits="userSpaceOnUse" color-interpolation-filters="sRGB">
            <feFlood flood-opacity="0" result="BackgroundImageFix"/>
            <feBlend mode="normal" in="SourceGraphic" in2="BackgroundImageFix" result="shape"/>
            <feColorMatrix in="SourceAlpha" type="matrix" values="0 0 0 0 0 0 0 0 0 0 0 0 0 0 0 0 0 0 127 0" result="hardAlpha"/>
            <feOffset dx="-8" dy="-4"/>
            <feComposite in2="hardAlpha" operator="arithmetic" k2="-1" k3="1"/>
            <feColorMatrix type="matrix" values="0 0 0 0 0.0666667 0 0 0 0 0.0196078 0 0 0 0 0.160784 0 0 0 0.16 0"/>
            <feBlend mode="normal" in2="shape" result="effect1_innerShadow_6463_40261"/>
        </filter>
        <filter id="filter19_i_6463_40261" x="533" y="431" width="282" height="54" filterUnits="userSpaceOnUse" color-interpolation-filters="sRGB">
            <feFlood flood-opacity="0" result="BackgroundImageFix"/>
            <feBlend mode="normal" in="SourceGraphic" in2="BackgroundImageFix" result="shape"/>
            <feColorMatrix in="SourceAlpha" type="matrix" values="0 0 0 0 0 0 0 0 0 0 0 0 0 0 0 0 0 0 127 0" result="hardAlpha"/>
            <feOffset dx="-8" dy="-4"/>
            <feComposite in2="hardAlpha" operator="arithmetic" k2="-1" k3="1"/>
            <feColorMatrix type="matrix" values="0 0 0 0 0.0666667 0 0 0 0 0.0196078 0 0 0 0 0.160784 0 0 0 0.16 0"/>
            <feBlend mode="normal" in2="shape" result="effect1_innerShadow_6463_40261"/>
        </filter>
    </defs>
</svg>
