<svg width="960" height="224" viewBox="0 0 960 224" fill="none" xmlns="http://www.w3.org/2000/svg">
<rect width="960" height="224" fill="white"/>
<path d="M190 144V24" stroke="#D3D7E0" stroke-width="2" stroke-linecap="square" stroke-dasharray="6 6"/>
<path d="M202.168 28L201.802 34.1667L203.135 34.9333C203.285 34.6833 203.468 34.45 203.685 34.2667C204.135 33.85 204.735 33.6333 205.368 33.6333C206.035 33.6333 206.652 33.9 207.118 34.3167C207.635 34.8 207.952 35.4833 207.952 36.2167C207.952 36.9333 207.668 37.5833 207.185 38.0667C206.718 38.5333 206.068 38.8 205.368 38.8C204.702 38.8 204.085 38.55 203.618 38.1167C203.252 37.8 202.985 37.3667 202.868 36.8833L201.435 37.2667C201.635 37.9833 202.035 38.65 202.568 39.15C203.302 39.85 204.318 40.25 205.368 40.2333C206.452 40.2167 207.485 39.8167 208.235 39.0667C208.968 38.3333 209.435 37.3 209.452 36.2167C209.452 35.0833 209.018 34.0333 208.168 33.2667C207.452 32.6333 206.502 32.2667 205.535 32.2667C204.718 32.2667 203.918 32.5667 203.285 33.0667L203.502 29.4H208.485V28H202.168ZM213.172 30.1333V28H211.539V29.8833H212.406C212.456 30.55 212.322 31.1 211.639 31.05L211.539 31.75C212.622 31.9333 213.172 31.2667 213.172 30.1333ZM224.969 28H223.469V35.1833C223.469 36.1667 223.386 36.8667 222.786 37.6333C222.186 38.4 221.219 38.85 220.253 38.85C219.269 38.85 218.303 38.4 217.703 37.6333C217.086 36.8333 217.003 36.1667 217.003 35.1833V28H215.503V35.6333C215.503 36.65 215.919 37.7667 216.553 38.5667C217.436 39.6667 218.836 40.2667 220.253 40.25C221.669 40.2667 223.053 39.6667 223.936 38.5667C224.586 37.75 224.969 36.6833 224.969 35.6333V28ZM235.966 28H226.299V29.4H230.399V40H231.883V29.4H235.966V28ZM246.399 40L244.049 35.1833C244.566 34.95 245.016 34.6 245.349 34.1667C245.899 33.5 246.233 32.65 246.233 31.7833C246.216 30.8833 245.866 29.9667 245.266 29.3C244.849 28.8 244.283 28.4167 243.666 28.2167C243.266 28.0667 242.849 28 242.416 28H237.299V40H238.783V35.55H242.416H242.549L244.699 40H246.399ZM238.783 29.4167H242.416C242.999 29.4167 243.633 29.7167 244.049 30.15C244.466 30.5833 244.683 31.1667 244.699 31.7833C244.716 32.3167 244.516 32.85 244.183 33.2667C243.733 33.8167 243.049 34.15 242.416 34.15H238.783V29.4167Z" fill="#D3D7E0"/>
<path d="M258 144V24" stroke="#D3D7E0" stroke-width="2" stroke-linecap="square" stroke-dasharray="6 6"/>
<path d="M272.496 28V38.5833H278.063V40H271.013V28H272.496Z" fill="#D3D7E0"/>
<path d="M290 144V24" stroke="#D3D7E0" stroke-width="2" stroke-linecap="square" stroke-dasharray="6 6"/>
<path d="M307.901 29.4833V28H300.901V40H302.384V34.7333H306.901V33.25H302.384V29.4833H307.901ZM318.501 40L316.151 35.1833C316.668 34.95 317.118 34.6 317.451 34.1667C318.001 33.5 318.334 32.65 318.334 31.7833C318.318 30.8833 317.968 29.9667 317.368 29.3C316.951 28.8 316.384 28.4167 315.768 28.2167C315.368 28.0667 314.951 28 314.518 28H309.401V40H310.884V35.55H314.518H314.651L316.801 40H318.501ZM310.884 29.4167H314.518C315.101 29.4167 315.734 29.7167 316.151 30.15C316.568 30.5833 316.784 31.1667 316.801 31.7833C316.818 32.3167 316.618 32.85 316.284 33.2667C315.834 33.8167 315.151 34.15 314.518 34.15H310.884V29.4167ZM322.767 28L320.5 29.35V31L322.767 29.6333V40H324.267V28H322.767Z" fill="#D3D7E0"/>
<path d="M336 144V24" stroke="#D3D7E0" stroke-width="2" stroke-linecap="square" stroke-dasharray="6 6"/>
<path d="M361.203 36.0167C361.069 36.5167 360.836 37 360.536 37.4167C359.836 38.3667 358.653 38.85 357.453 38.8333C356.253 38.8333 355.069 38.3667 354.369 37.4167C353.653 36.4667 353.436 35.2167 353.419 34C353.436 32.7667 353.653 31.5167 354.369 30.5833C355.069 29.6333 356.253 29.15 357.453 29.1667C358.653 29.1667 359.836 29.6333 360.536 30.5833C360.886 31.0333 361.103 31.5667 361.253 32.1167L362.786 31.8667C362.586 31.1 362.253 30.35 361.719 29.6667C360.719 28.3833 359.136 27.75 357.453 27.75C355.753 27.75 354.186 28.3667 353.186 29.6667C352.203 30.9 351.853 32.4167 351.836 34C351.819 35.5333 352.203 37.0833 353.186 38.3167C354.186 39.5833 355.736 40.25 357.453 40.25C359.119 40.25 360.686 39.6333 361.719 38.3167C362.169 37.75 362.486 37.1 362.686 36.45L361.203 36.0167ZM374.139 34.0333C374.139 35.65 373.656 37.3167 372.639 38.4167C371.656 39.5 370.222 39.9833 368.739 39.9833H364.706V27.9833L368.772 28C370.322 28 371.689 28.5167 372.639 29.5833C373.722 30.75 374.139 32.3667 374.139 34.0333ZM372.572 34.0333C372.589 32.7333 372.289 31.45 371.522 30.5667C370.806 29.75 369.856 29.4333 368.756 29.4167L366.239 29.4333V38.55L368.739 38.5833C369.839 38.5667 370.839 38.2 371.539 37.4167C372.289 36.55 372.556 35.25 372.572 34.0333ZM385.149 40L382.799 35.1833C383.316 34.95 383.766 34.6 384.099 34.1667C384.649 33.5 384.983 32.65 384.983 31.7833C384.966 30.8833 384.616 29.9667 384.016 29.3C383.599 28.8 383.033 28.4167 382.416 28.2167C382.016 28.0667 381.599 28 381.166 28H376.049V40H377.533V35.55H381.166H381.299L383.449 40H385.149ZM377.533 29.4167H381.166C381.749 29.4167 382.383 29.7167 382.799 30.15C383.216 30.5833 383.433 31.1667 383.449 31.7833C383.466 32.3167 383.266 32.85 382.933 33.2667C382.483 33.8167 381.799 34.15 381.166 34.15H377.533V29.4167ZM389.415 28L387.148 29.35V31L389.415 29.6333V40H390.915V28H389.415Z" fill="#D3D7E0"/>
<path d="M408 144V24" stroke="#D3D7E0" stroke-width="2" stroke-linecap="square" stroke-dasharray="6 6"/>
<path d="M424.448 29.4833V28H417.448V40H418.931V34.7333H423.448V33.25H418.931V29.4833H424.448ZM435.048 40L432.698 35.1833C433.215 34.95 433.665 34.6 433.998 34.1667C434.548 33.5 434.881 32.65 434.881 31.7833C434.865 30.8833 434.515 29.9667 433.915 29.3C433.498 28.8 432.931 28.4167 432.315 28.2167C431.915 28.0667 431.498 28 431.065 28H425.948V40H427.431V35.55H431.065H431.198L433.348 40H435.048ZM427.431 29.4167H431.065C431.648 29.4167 432.281 29.7167 432.698 30.15C433.115 30.5833 433.331 31.1667 433.348 31.7833C433.365 32.3167 433.165 32.85 432.831 33.2667C432.381 33.8167 431.698 34.15 431.065 34.15H427.431V29.4167ZM436.964 31.6167H438.48C438.48 30.8833 438.814 30.2 439.347 29.7333C439.764 29.3833 440.314 29.1667 440.914 29.1667C441.564 29.1667 442.164 29.4 442.597 29.8333C443.08 30.2833 443.364 30.9333 443.364 31.6167C443.364 32.3833 443.13 33.0833 442.247 33.8667L436.897 38.5667L436.88 39.9833H444.714V38.5667H439.214L443.064 35.1333C444.28 34.05 444.88 33.1667 444.88 31.6333C444.88 30.5833 444.464 29.5667 443.73 28.8667C443.03 28.1167 442.047 27.75 440.98 27.75C440.014 27.75 439.047 28.0167 438.314 28.65C437.48 29.3667 436.947 30.45 436.964 31.6167Z" fill="#D3D7E0"/>
<path d="M454 144V24" stroke="#D3D7E0" stroke-width="2" stroke-linecap="square" stroke-dasharray="6 6"/>
<path d="M477.749 36.0167C477.616 36.5167 477.383 37 477.083 37.4167C476.383 38.3667 475.199 38.85 473.999 38.8333C472.799 38.8333 471.616 38.3667 470.916 37.4167C470.199 36.4667 469.983 35.2167 469.966 34C469.983 32.7667 470.199 31.5167 470.916 30.5833C471.616 29.6333 472.799 29.15 473.999 29.1667C475.199 29.1667 476.383 29.6333 477.083 30.5833C477.433 31.0333 477.649 31.5667 477.799 32.1167L479.333 31.8667C479.133 31.1 478.799 30.35 478.266 29.6667C477.266 28.3833 475.683 27.75 473.999 27.75C472.299 27.75 470.733 28.3667 469.733 29.6667C468.749 30.9 468.399 32.4167 468.383 34C468.366 35.5333 468.749 37.0833 469.733 38.3167C470.733 39.5833 472.283 40.25 473.999 40.25C475.666 40.25 477.233 39.6333 478.266 38.3167C478.716 37.75 479.033 37.1 479.233 36.45L477.749 36.0167ZM490.686 34.0333C490.686 35.65 490.203 37.3167 489.186 38.4167C488.203 39.5 486.769 39.9833 485.286 39.9833H481.253V27.9833L485.319 28C486.869 28 488.236 28.5167 489.186 29.5833C490.269 30.75 490.686 32.3667 490.686 34.0333ZM489.119 34.0333C489.136 32.7333 488.836 31.45 488.069 30.5667C487.353 29.75 486.403 29.4333 485.303 29.4167L482.786 29.4333V38.55L485.286 38.5833C486.386 38.5667 487.386 38.2 488.086 37.4167C488.836 36.55 489.103 35.25 489.119 34.0333ZM501.696 40L499.346 35.1833C499.863 34.95 500.313 34.6 500.646 34.1667C501.196 33.5 501.53 32.65 501.53 31.7833C501.513 30.8833 501.163 29.9667 500.563 29.3C500.146 28.8 499.58 28.4167 498.963 28.2167C498.563 28.0667 498.146 28 497.713 28H492.596V40H494.08V35.55H497.713H497.846L499.996 40H501.696ZM494.08 29.4167H497.713C498.296 29.4167 498.93 29.7167 499.346 30.15C499.763 30.5833 499.98 31.1667 499.996 31.7833C500.013 32.3167 499.813 32.85 499.48 33.2667C499.03 33.8167 498.346 34.15 497.713 34.15H494.08V29.4167ZM503.612 31.6167H505.129C505.129 30.8833 505.462 30.2 505.995 29.7333C506.412 29.3833 506.962 29.1667 507.562 29.1667C508.212 29.1667 508.812 29.4 509.245 29.8333C509.729 30.2833 510.012 30.9333 510.012 31.6167C510.012 32.3833 509.779 33.0833 508.895 33.8667L503.545 38.5667L503.529 39.9833H511.362V38.5667H505.862L509.712 35.1333C510.929 34.05 511.529 33.1667 511.529 31.6333C511.529 30.5833 511.112 29.5667 510.379 28.8667C509.679 28.1167 508.695 27.75 507.629 27.75C506.662 27.75 505.695 28.0167 504.962 28.65C504.129 29.3667 503.595 30.45 503.612 31.6167Z" fill="#D3D7E0"/>
<path d="M526 144V24" stroke="#D3D7E0" stroke-width="2" stroke-linecap="square" stroke-dasharray="6 6"/>
<path d="M542.589 29.4833V28H535.589V40H537.072V34.7333H541.589V33.25H537.072V29.4833H542.589ZM553.189 40L550.839 35.1833C551.355 34.95 551.805 34.6 552.139 34.1667C552.689 33.5 553.022 32.65 553.022 31.7833C553.005 30.8833 552.655 29.9667 552.055 29.3C551.639 28.8 551.072 28.4167 550.455 28.2167C550.055 28.0667 549.639 28 549.205 28H544.089V40H545.572V35.55H549.205H549.339L551.489 40H553.189ZM545.572 29.4167H549.205C549.789 29.4167 550.422 29.7167 550.839 30.15C551.255 30.5833 551.472 31.1667 551.489 31.7833C551.505 32.3167 551.305 32.85 550.972 33.2667C550.522 33.8167 549.839 34.15 549.205 34.15H545.572V29.4167ZM561.604 33.6167C560.971 32.9667 560.121 32.6 559.154 32.5333L562.404 29.4667V28H555.338V29.4167H560.388L556.671 32.9333L557.388 34.1167C557.754 33.9167 558.221 33.8 558.621 33.8C559.238 33.8 559.821 33.9833 560.271 34.3833C560.804 34.8667 561.038 35.5833 561.038 36.3C561.038 37.05 560.804 37.7833 560.204 38.2667C559.788 38.6167 559.221 38.8 558.638 38.8167C558.071 38.8167 557.504 38.6333 557.071 38.2833C556.688 38 556.438 37.5833 556.288 37.1167L554.854 37.5333C555.071 38.2333 555.504 38.9 556.088 39.3667C556.821 39.95 557.738 40.25 558.654 40.2333C559.554 40.2167 560.488 39.95 561.204 39.35C562.088 38.6333 562.538 37.5 562.571 36.3C562.588 35.3167 562.271 34.3167 561.604 33.6167Z" fill="#D3D7E0"/>
<path d="M572 144V24" stroke="#D3D7E0" stroke-width="2" stroke-linecap="square" stroke-dasharray="6 6"/>
<path d="M633.89 36.0167C633.757 36.5167 633.523 37 633.223 37.4167C632.523 38.3667 631.34 38.85 630.14 38.8333C628.94 38.8333 627.757 38.3667 627.057 37.4167C626.34 36.4667 626.123 35.2167 626.107 34C626.123 32.7667 626.34 31.5167 627.057 30.5833C627.757 29.6333 628.94 29.15 630.14 29.1667C631.34 29.1667 632.523 29.6333 633.223 30.5833C633.573 31.0333 633.79 31.5667 633.94 32.1167L635.473 31.8667C635.273 31.1 634.94 30.35 634.407 29.6667C633.407 28.3833 631.823 27.75 630.14 27.75C628.44 27.75 626.873 28.3667 625.873 29.6667C624.89 30.9 624.54 32.4167 624.523 34C624.507 35.5333 624.89 37.0833 625.873 38.3167C626.873 39.5833 628.423 40.25 630.14 40.25C631.807 40.25 633.373 39.6333 634.407 38.3167C634.857 37.75 635.173 37.1 635.373 36.45L633.89 36.0167ZM646.827 34.0333C646.827 35.65 646.343 37.3167 645.327 38.4167C644.343 39.5 642.91 39.9833 641.427 39.9833H637.393V27.9833L641.46 28C643.01 28 644.377 28.5167 645.327 29.5833C646.41 30.75 646.827 32.3667 646.827 34.0333ZM645.26 34.0333C645.277 32.7333 644.977 31.45 644.21 30.5667C643.493 29.75 642.543 29.4333 641.443 29.4167L638.927 29.4333V38.55L641.427 38.5833C642.527 38.5667 643.527 38.2 644.227 37.4167C644.977 36.55 645.243 35.25 645.26 34.0333ZM657.837 40L655.487 35.1833C656.004 34.95 656.454 34.6 656.787 34.1667C657.337 33.5 657.67 32.65 657.67 31.7833C657.654 30.8833 657.304 29.9667 656.704 29.3C656.287 28.8 655.72 28.4167 655.104 28.2167C654.704 28.0667 654.287 28 653.854 28H648.737V40H650.22V35.55H653.854H653.987L656.137 40H657.837ZM650.22 29.4167H653.854C654.437 29.4167 655.07 29.7167 655.487 30.15C655.904 30.5833 656.12 31.1667 656.137 31.7833C656.154 32.3167 655.954 32.85 655.62 33.2667C655.17 33.8167 654.487 34.15 653.854 34.15H650.22V29.4167ZM666.253 33.6167C665.619 32.9667 664.769 32.6 663.803 32.5333L667.053 29.4667V28H659.986V29.4167H665.036L661.319 32.9333L662.036 34.1167C662.403 33.9167 662.869 33.8 663.269 33.8C663.886 33.8 664.469 33.9833 664.919 34.3833C665.453 34.8667 665.686 35.5833 665.686 36.3C665.686 37.05 665.453 37.7833 664.853 38.2667C664.436 38.6167 663.869 38.8 663.286 38.8167C662.719 38.8167 662.153 38.6333 661.719 38.2833C661.336 38 661.086 37.5833 660.936 37.1167L659.503 37.5333C659.719 38.2333 660.153 38.9 660.736 39.3667C661.469 39.95 662.386 40.25 663.303 40.2333C664.203 40.2167 665.136 39.95 665.853 39.35C666.736 38.6333 667.186 37.5 667.219 36.3C667.236 35.3167 666.919 34.3167 666.253 33.6167Z" fill="#D3D7E0"/>
<path d="M720 144V24" stroke="#D3D7E0" stroke-width="2" stroke-linecap="square" stroke-dasharray="6 6"/>
<path d="M776.331 29.4833V28H769.331V40H770.814V34.7333H775.331V33.25H770.814V29.4833H776.331ZM786.931 40L784.581 35.1833C785.097 34.95 785.547 34.6 785.881 34.1667C786.431 33.5 786.764 32.65 786.764 31.7833C786.747 30.8833 786.397 29.9667 785.797 29.3C785.381 28.8 784.814 28.4167 784.197 28.2167C783.797 28.0667 783.381 28 782.947 28H777.831V40H779.314V35.55H782.947H783.081L785.231 40H786.931ZM779.314 29.4167H782.947C783.531 29.4167 784.164 29.7167 784.581 30.15C784.997 30.5833 785.214 31.1667 785.231 31.7833C785.247 32.3167 785.047 32.85 784.714 33.2667C784.264 33.8167 783.581 34.15 782.947 34.15H779.314V29.4167ZM795.746 36.3833V33H794.246V36.3833H790.33L794.28 28H792.73L788.763 36.3833V37.7833H794.246V40H795.746V37.7833H796.996V36.3833H795.746Z" fill="#D3D7E0"/>
<path d="M846 144V24" stroke="#D3D7E0" stroke-width="2" stroke-linecap="square" stroke-dasharray="6 6"/>
<rect width="45" height="20" transform="translate(62 72)" fill="white"/>
<path d="M69.2667 76L67 77.35V79L69.2667 77.6333V88H70.7667V76H69.2667ZM73.6823 79.6167H75.199C75.199 78.8833 75.5323 78.2 76.0656 77.7333C76.4823 77.3833 77.0323 77.1667 77.6323 77.1667C78.2823 77.1667 78.8823 77.4 79.3156 77.8333C79.799 78.2833 80.0823 78.9333 80.0823 79.6167C80.0823 80.3833 79.849 81.0833 78.9656 81.8667L73.6156 86.5667L73.599 87.9833H81.4323V86.5667H75.9323L79.7823 83.1333C80.999 82.05 81.599 81.1667 81.599 79.6333C81.599 78.5833 81.1823 77.5667 80.449 76.8667C79.749 76.1167 78.7656 75.75 77.699 75.75C76.7323 75.75 75.7656 76.0167 75.0323 76.65C74.199 77.3667 73.6656 78.45 73.6823 79.6167ZM91.0375 80.1833C90.3042 79.25 89.1542 78.75 87.9208 78.75C86.8542 78.75 85.8375 79.15 85.1042 79.85V76H83.6042V88H84.9375V86.95C85.6542 87.8167 86.7208 88.25 87.9208 88.25C89.1375 88.25 90.2875 87.7333 91.0375 86.8C91.7875 85.85 92.0375 84.6667 92.0375 83.4833C92.0375 82.3 91.7542 81.1 91.0375 80.1833ZM89.8375 85.8833C89.3542 86.5667 88.5542 86.8833 87.7375 86.8833C86.9042 86.8833 86.1375 86.5833 85.6375 85.9667C85.1375 85.35 84.9375 84.4167 84.9375 83.4833C84.9375 82.5667 85.1375 81.65 85.6375 81.0167C86.1208 80.4 86.8708 80.1 87.6875 80.1C88.5708 80.1 89.3375 80.4167 89.8208 81.1C90.2875 81.7167 90.4542 82.5833 90.4542 83.4833C90.4542 84.3833 90.3042 85.2667 89.8375 85.8833ZM101.303 80.1833C100.57 79.25 99.4198 78.75 98.1865 78.75C97.0365 78.75 95.9365 79.2 95.2031 80.0167V79H93.8698V92H95.3698V87.15C96.0698 87.8833 97.0698 88.25 98.1865 88.25C99.4031 88.25 100.553 87.7333 101.303 86.8C102.053 85.85 102.303 84.6667 102.303 83.4833C102.303 82.3 102.02 81.1 101.303 80.1833ZM100.103 85.8833C99.6198 86.5667 98.8198 86.8833 98.0031 86.8833C97.1698 86.8833 96.4031 86.5833 95.9031 85.9667C95.4031 85.35 95.2031 84.4167 95.2031 83.4833C95.2031 82.5667 95.4031 81.65 95.9031 81.0167C96.3865 80.4 97.1365 80.1 97.9531 80.1C98.8365 80.1 99.6031 80.4167 100.086 81.1C100.553 81.7167 100.72 82.5833 100.72 83.4833C100.72 84.3833 100.57 85.2667 100.103 85.8833Z" fill="#110529"/>
<g filter="url(#filter0_i_4622_31308)">
<rect x="50" y="104" width="70" height="52" rx="1" fill="#D3D7E0"/>
<path d="M79.3952 123H77.5202V131.979C77.5202 133.208 77.416 134.083 76.666 135.042C75.916 136 74.7077 136.562 73.4993 136.562C72.2702 136.562 71.0618 136 70.3118 135.042C69.541 134.042 69.4368 133.208 69.4368 131.979V123H67.5618V132.542C67.5618 133.812 68.0827 135.208 68.8743 136.208C69.9785 137.583 71.7285 138.333 73.4993 138.312C75.2702 138.333 76.9993 137.583 78.1035 136.208C78.916 135.188 79.3952 133.854 79.3952 132.542V123ZM97.2454 123H95.3704L89.7871 134.937L84.1621 123H82.3079V138H84.1829V127.083L89.2871 138H90.2663L95.3704 127.062V137.979H97.2454V123ZM100.368 123V138H102.222V123H100.368Z" fill="#110529"/>
<rect x="50" y="104" width="70" height="52" rx="1" stroke="#110529" stroke-width="2" stroke-linecap="round"/>
</g>
<g filter="url(#filter1_i_4622_31308)">
<rect x="120" y="104" width="70" height="52" rx="1" fill="#D6E0FF"/>
<rect x="120" y="104" width="70" height="52" rx="1" stroke="#110529" stroke-width="2" stroke-linecap="round"/>
</g>
<g filter="url(#filter2_i_4622_31308)">
<rect x="190" y="104" width="396" height="52" rx="1" fill="#99E099"/>
<path d="M386.709 138H389.292L394.313 123H392.396L387.98 136.021L383.626 123H381.688L386.709 138Z" fill="#110529"/>
<rect x="190" y="104" width="396" height="52" rx="1" stroke="#110529" stroke-width="2" stroke-linecap="round"/>
</g>
<g filter="url(#filter3_i_4622_31308)">
<rect x="586" y="104" width="32" height="52" rx="1" fill="#CBEB67"/>
</g>
<rect x="586" y="104" width="32" height="52" rx="1" stroke="#110529" stroke-width="2" stroke-linecap="round"/>
<g filter="url(#filter4_i_4622_31308)">
<rect x="670" y="104" width="32" height="52" rx="1" fill="#FAAAFA"/>
</g>
<rect x="670" y="104" width="32" height="52" rx="1" stroke="#110529" stroke-width="2" stroke-linecap="round"/>
<g filter="url(#filter5_i_4622_31308)">
<rect x="618" y="104" width="52" height="52" rx="1" fill="#FFCB8F"/>
</g>
<rect x="618" y="104" width="52" height="52" rx="1" stroke="#110529" stroke-width="2" stroke-linecap="round"/>
<path d="M597.087 123H595.212V138H597.087V126.271L604.921 138H606.796V123H604.921V134.708L597.087 123Z" fill="#110529"/>
<path d="M681.087 123H679.212V138H681.087V126.271L688.921 138H690.796V123H688.921V134.708L681.087 123Z" fill="#110529"/>
<path d="M649.16 130.542C649.16 132.562 648.556 134.646 647.285 136.021C646.056 137.375 644.264 137.979 642.41 137.979H637.368V122.979L642.452 123C644.389 123 646.098 123.646 647.285 124.979C648.639 126.437 649.16 128.458 649.16 130.542ZM647.202 130.542C647.223 128.917 646.848 127.312 645.889 126.208C644.993 125.187 643.806 124.792 642.431 124.771L639.285 124.792V136.187L642.41 136.229C643.785 136.208 645.035 135.75 645.91 134.771C646.848 133.687 647.181 132.062 647.202 130.542Z" fill="#110529"/>
<g filter="url(#filter6_i_4622_31308)">
<rect x="702" y="104" width="144" height="52" rx="1" fill="#C1ADFF"/>
<path d="M777.289 123V133.292C777.289 134.604 777.289 135.312 776.727 136.312C775.956 137.604 774.768 138.312 773.143 138.312C772.372 138.312 771.622 138.146 770.977 137.729C770.018 137.187 769.331 136.208 769.039 135.146L770.893 134.708C770.997 135.292 771.372 135.812 771.872 136.146C772.227 136.396 772.685 136.542 773.122 136.542C773.914 136.542 774.747 136.125 775.102 135.354C775.372 134.792 775.372 134.375 775.372 133.292V123H777.289Z" fill="#110529"/>
<rect x="702" y="104" width="144" height="52" rx="1" stroke="#110529" stroke-width="2" stroke-linecap="round"/>
</g>
<g filter="url(#filter7_i_4622_31308)">
<path d="M918 104H847.6C847.04 104 846.76 104 846.546 104.109C846.358 104.205 846.205 104.358 846.109 104.546C846 104.76 846 105.04 846 105.6V154.4C846 154.96 846 155.24 846.109 155.454C846.205 155.642 846.358 155.795 846.546 155.891C846.76 156 847.04 156 847.6 156H918L913 149.5L918 143L913 136L918 130L913 123.5L918 117L913 110.5L918 104Z" fill="#FAFAAA"/>
</g>
<path d="M918 104H847.6C847.04 104 846.76 104 846.546 104.109C846.358 104.205 846.205 104.358 846.109 104.546C846 104.76 846 105.04 846 105.6V154.4C846 154.96 846 155.24 846.109 155.454C846.205 155.642 846.358 155.795 846.546 155.891C846.76 156 847.04 156 847.6 156H918L913 149.5L918 143L913 136L918 130L913 123.5L918 117L913 110.5L918 104Z" stroke="#110529" stroke-width="2" stroke-linecap="round"/>
<path d="M886.863 133.021C886.696 133.646 886.404 134.25 886.029 134.771C885.154 135.958 883.675 136.562 882.175 136.542C880.675 136.542 879.196 135.958 878.321 134.771C877.425 133.583 877.154 132.021 877.133 130.5C877.154 128.958 877.425 127.396 878.321 126.229C879.196 125.042 880.675 124.437 882.175 124.458C883.675 124.458 885.154 125.042 886.029 126.229C886.467 126.792 886.738 127.458 886.925 128.146L888.842 127.833C888.592 126.875 888.175 125.937 887.508 125.083C886.258 123.479 884.279 122.687 882.175 122.687C880.05 122.687 878.092 123.458 876.842 125.083C875.613 126.625 875.175 128.521 875.154 130.5C875.133 132.417 875.613 134.354 876.842 135.896C878.092 137.479 880.029 138.312 882.175 138.312C884.258 138.312 886.217 137.542 887.508 135.896C888.071 135.188 888.467 134.375 888.717 133.562L886.863 133.021Z" fill="#110529"/>
<rect width="57" height="20" transform="translate(124 72)" fill="white"/>
<path d="M137.267 82.3167H135.917C136.05 82.6833 135.967 83.1667 135.417 83.2167C134.883 83.2667 134.367 82.9333 133.65 82.6167C132.983 82.3 132.267 82.0833 131.5 82.2333C131.017 82.3167 130.517 82.6 130.233 83.0833C129.983 83.55 129.95 84.1667 130.067 84.6667H131.417C131.267 84.2833 131.35 83.8167 131.917 83.7667C132.45 83.7167 132.967 84.05 133.683 84.3667C134.35 84.6833 135.067 84.9 135.833 84.75C136.317 84.6667 136.8 84.3667 137.083 83.9C137.35 83.45 137.383 82.8167 137.267 82.3167ZM142.595 76L140.328 77.35V79L142.595 77.6333V88H144.095V76H142.595ZM147.01 79.6167H148.527C148.527 78.8833 148.86 78.2 149.394 77.7333C149.81 77.3833 150.36 77.1667 150.96 77.1667C151.61 77.1667 152.21 77.4 152.644 77.8333C153.127 78.2833 153.41 78.9333 153.41 79.6167C153.41 80.3833 153.177 81.0833 152.294 81.8667L146.944 86.5667L146.927 87.9833H154.76V86.5667H149.26L153.11 83.1333C154.327 82.05 154.927 81.1667 154.927 79.6333C154.927 78.5833 154.51 77.5667 153.777 76.8667C153.077 76.1167 152.094 75.75 151.027 75.75C150.06 75.75 149.094 76.0167 148.36 76.65C147.527 77.3667 146.994 78.45 147.01 79.6167ZM164.366 80.1833C163.632 79.25 162.482 78.75 161.249 78.75C160.182 78.75 159.166 79.15 158.432 79.85V76H156.932V88H158.266V86.95C158.982 87.8167 160.049 88.25 161.249 88.25C162.466 88.25 163.616 87.7333 164.366 86.8C165.116 85.85 165.366 84.6667 165.366 83.4833C165.366 82.3 165.082 81.1 164.366 80.1833ZM163.166 85.8833C162.682 86.5667 161.882 86.8833 161.066 86.8833C160.232 86.8833 159.466 86.5833 158.966 85.9667C158.466 85.35 158.266 84.4167 158.266 83.4833C158.266 82.5667 158.466 81.65 158.966 81.0167C159.449 80.4 160.199 80.1 161.016 80.1C161.899 80.1 162.666 80.4167 163.149 81.1C163.616 81.7167 163.782 82.5833 163.782 83.4833C163.782 84.3833 163.632 85.2667 163.166 85.8833ZM174.631 80.1833C173.898 79.25 172.748 78.75 171.515 78.75C170.365 78.75 169.265 79.2 168.531 80.0167V79H167.198V92H168.698V87.15C169.398 87.8833 170.398 88.25 171.515 88.25C172.731 88.25 173.881 87.7333 174.631 86.8C175.381 85.85 175.631 84.6667 175.631 83.4833C175.631 82.3 175.348 81.1 174.631 80.1833ZM173.431 85.8833C172.948 86.5667 172.148 86.8833 171.331 86.8833C170.498 86.8833 169.731 86.5833 169.231 85.9667C168.731 85.35 168.531 84.4167 168.531 83.4833C168.531 82.5667 168.731 81.65 169.231 81.0167C169.715 80.4 170.465 80.1 171.281 80.1C172.165 80.1 172.931 80.4167 173.415 81.1C173.881 81.7167 174.048 82.5833 174.048 83.4833C174.048 84.3833 173.898 85.2667 173.431 85.8833Z" fill="#110529"/>
<path d="M498 76L497.293 75.2929L496.586 76L497.293 76.7071L498 76ZM505.293 84.7071L506 85.4142L507.414 84L506.707 83.2929L505.293 84.7071ZM506.707 68.7071L507.414 68L506 66.5858L505.293 67.2929L506.707 68.7071ZM518 75L498 75L498 77L518 77L518 75ZM497.293 76.7071L505.293 84.7071L506.707 83.2929L498.707 75.2929L497.293 76.7071ZM498.707 76.7071L506.707 68.7071L505.293 67.2929L497.293 75.2929L498.707 76.7071Z" fill="#110529"/>
<path d="M513 76L654 76" stroke="#110529" stroke-width="2" stroke-linecap="square"/>
<rect width="56" height="20" transform="translate(654 66)" fill="white"/>
<path d="M658.917 73.6167H660.433C660.433 72.8833 660.767 72.2 661.3 71.7333C661.717 71.3833 662.267 71.1667 662.867 71.1667C663.517 71.1667 664.117 71.4 664.55 71.8333C665.033 72.2833 665.317 72.9333 665.317 73.6167C665.317 74.3833 665.083 75.0833 664.2 75.8667L658.85 80.5667L658.833 81.9833H666.667V80.5667H661.167L665.017 77.1333C666.233 76.05 666.833 75.1667 666.833 73.6333C666.833 72.5833 666.417 71.5667 665.683 70.8667C664.983 70.1167 664 69.75 662.933 69.75C661.967 69.75 661 70.0167 660.267 70.65C659.433 71.3667 658.9 72.45 658.917 73.6167ZM676.355 71.3167C675.572 70.3167 674.389 69.75 673.072 69.75C671.889 69.7667 670.772 70.15 669.972 71.0333C669.172 71.8833 668.839 72.9 668.839 74.1333V77.85C668.839 79.1 669.139 80.1333 670.005 81C670.755 81.7833 671.822 82.25 672.939 82.2333C674.039 82.25 675.089 81.8 675.839 81.05C676.572 80.3167 677.022 79.3 677.022 78.2333C677.039 77.0833 676.622 76.1 675.839 75.3333C675.105 74.6667 674.122 74.2667 673.105 74.2667C672.022 74.2667 671.039 74.7667 670.355 75.5333V74.1333C670.355 73.4333 670.522 72.8167 670.922 72.3C671.355 71.6167 672.189 71.1667 673.072 71.1667C673.955 71.1667 674.755 71.6167 675.239 72.3L676.355 71.3167ZM673.605 80.5333C672.939 80.7167 672.272 80.6167 671.722 80.2833C671.205 79.9667 670.805 79.4833 670.622 78.8833C670.455 78.2833 670.522 77.6333 670.805 77.1C671.105 76.5333 671.622 76.0833 672.272 75.9167C672.905 75.7333 673.539 75.8167 674.089 76.1C674.639 76.4 675.072 76.9167 675.255 77.5667C675.422 78.1667 675.355 78.8 675.089 79.3333C674.789 79.9167 674.255 80.3667 673.605 80.5333ZM681.032 70L678.766 71.35V73L681.032 71.6333V82H682.532V70H681.032ZM693.131 74.1833C692.398 73.25 691.248 72.75 690.015 72.75C688.948 72.75 687.931 73.15 687.198 73.85V70H685.698V82H687.031V80.95C687.748 81.8167 688.815 82.25 690.015 82.25C691.231 82.25 692.381 81.7333 693.131 80.8C693.881 79.85 694.131 78.6667 694.131 77.4833C694.131 76.3 693.848 75.1 693.131 74.1833ZM691.931 79.8833C691.448 80.5667 690.648 80.8833 689.831 80.8833C688.998 80.8833 688.231 80.5833 687.731 79.9667C687.231 79.35 687.031 78.4167 687.031 77.4833C687.031 76.5667 687.231 75.65 687.731 75.0167C688.215 74.4 688.965 74.1 689.781 74.1C690.665 74.1 691.431 74.4167 691.915 75.1C692.381 75.7167 692.548 76.5833 692.548 77.4833C692.548 78.3833 692.398 79.2667 691.931 79.8833ZM703.397 74.1833C702.664 73.25 701.514 72.75 700.28 72.75C699.13 72.75 698.03 73.2 697.297 74.0167V73H695.964V86H697.464V81.15C698.164 81.8833 699.164 82.25 700.28 82.25C701.497 82.25 702.647 81.7333 703.397 80.8C704.147 79.85 704.397 78.6667 704.397 77.4833C704.397 76.3 704.114 75.1 703.397 74.1833ZM702.197 79.8833C701.714 80.5667 700.914 80.8833 700.097 80.8833C699.264 80.8833 698.497 80.5833 697.997 79.9667C697.497 79.35 697.297 78.4167 697.297 77.4833C697.297 76.5667 697.497 75.65 697.997 75.0167C698.48 74.4 699.23 74.1 700.047 74.1C700.93 74.1 701.697 74.4167 702.18 75.1C702.647 75.7167 702.814 76.5833 702.814 77.4833C702.814 78.3833 702.664 79.2667 702.197 79.8833Z" fill="#110529"/>
<path d="M710 76L851 76" stroke="#110529" stroke-width="2" stroke-linecap="square"/>
<path d="M878 68V84H868V92L854 76L868 60V68H878Z" fill="#110529"/>
<path d="M898.833 84L895.896 77.9792C896.542 77.6875 897.104 77.25 897.521 76.7083C898.208 75.875 898.625 74.8125 898.625 73.7292C898.604 72.6042 898.167 71.4583 897.417 70.625C896.896 70 896.188 69.5208 895.417 69.2708C894.917 69.0833 894.396 69 893.854 69H887.458V84H889.313V78.4375H893.854H894.021L896.708 84H898.833ZM889.313 70.7708H893.854C894.583 70.7708 895.375 71.1458 895.896 71.6875C896.417 72.2292 896.688 72.9583 896.708 73.7292C896.729 74.3958 896.479 75.0625 896.063 75.5833C895.5 76.2708 894.646 76.6875 893.854 76.6875H889.313V70.7708ZM904.165 69L901.332 70.6875V72.75L904.165 71.0417V84H906.04V69H904.165Z" fill="#110529"/>
<path d="M26.8333 192L23.8958 185.979C24.5417 185.687 25.1042 185.25 25.5208 184.708C26.2083 183.875 26.625 182.812 26.625 181.729C26.6042 180.604 26.1667 179.458 25.4167 178.625C24.8958 178 24.1875 177.521 23.4167 177.271C22.9167 177.083 22.3958 177 21.8542 177H15.4583V192H17.3125V186.437H21.8542H22.0208L24.7083 192H26.8333ZM17.3125 178.771H21.8542C22.5833 178.771 23.375 179.146 23.8958 179.687C24.4167 180.229 24.6875 180.958 24.7083 181.729C24.7292 182.396 24.4792 183.062 24.0625 183.583C23.5 184.271 22.6458 184.687 21.8542 184.687H17.3125V178.771ZM29.2279 181.521H31.1237C31.1237 180.604 31.5404 179.75 32.207 179.167C32.7279 178.729 33.4154 178.458 34.1654 178.458C34.9779 178.458 35.7279 178.75 36.2695 179.292C36.8737 179.854 37.2279 180.667 37.2279 181.521C37.2279 182.479 36.9362 183.354 35.832 184.333L29.1445 190.208L29.1237 191.979H38.9154V190.208H32.0404L36.8529 185.917C38.3737 184.562 39.1237 183.458 39.1237 181.542C39.1237 180.229 38.6029 178.958 37.6862 178.083C36.8112 177.146 35.582 176.687 34.2487 176.687C33.0404 176.687 31.832 177.021 30.9154 177.812C29.8737 178.708 29.207 180.062 29.2279 181.521Z" fill="#110529"/>
<path d="M49 176V192H59V200L73 184L59 168V176H49Z" fill="#110529"/>
<path d="M122.5 184H76" stroke="#110529" stroke-width="2" stroke-linecap="square"/>
<rect width="46" height="20" transform="translate(122.5 174)" fill="white"/>
<path d="M134.317 186.383V183H132.817V186.383H128.9L132.85 178H131.3L127.333 186.383V187.783H132.817V190H134.317V187.783H135.567V186.383H134.317ZM139.673 178L137.406 179.35V181L139.673 179.633V190H141.173V178H139.673ZM151.772 182.183C151.039 181.25 149.889 180.75 148.655 180.75C147.589 180.75 146.572 181.15 145.839 181.85V178H144.339V190H145.672V188.95C146.389 189.817 147.455 190.25 148.655 190.25C149.872 190.25 151.022 189.733 151.772 188.8C152.522 187.85 152.772 186.667 152.772 185.483C152.772 184.3 152.489 183.1 151.772 182.183ZM150.572 187.883C150.089 188.567 149.289 188.883 148.472 188.883C147.639 188.883 146.872 188.583 146.372 187.967C145.872 187.35 145.672 186.417 145.672 185.483C145.672 184.567 145.872 183.65 146.372 183.017C146.855 182.4 147.605 182.1 148.422 182.1C149.305 182.1 150.072 182.417 150.555 183.1C151.022 183.717 151.189 184.583 151.189 185.483C151.189 186.383 151.039 187.267 150.572 187.883ZM162.038 182.183C161.304 181.25 160.154 180.75 158.921 180.75C157.771 180.75 156.671 181.2 155.938 182.017V181H154.604V194H156.104V189.15C156.804 189.883 157.804 190.25 158.921 190.25C160.138 190.25 161.288 189.733 162.038 188.8C162.788 187.85 163.038 186.667 163.038 185.483C163.038 184.3 162.754 183.1 162.038 182.183ZM160.838 187.883C160.354 188.567 159.554 188.883 158.738 188.883C157.904 188.883 157.138 188.583 156.638 187.967C156.138 187.35 155.938 186.417 155.938 185.483C155.938 184.567 156.138 183.65 156.638 183.017C157.121 182.4 157.871 182.1 158.688 182.1C159.571 182.1 160.338 182.417 160.821 183.1C161.288 183.717 161.454 184.583 161.454 185.483C161.454 186.383 161.304 187.267 160.838 187.883Z" fill="#110529"/>
<path d="M215 184H168.5" stroke="#110529" stroke-width="2" stroke-linecap="square"/>
<path d="M225 184L225.707 183.293L226.414 184L225.707 184.707L225 184ZM217.707 192.707L217 193.414L215.586 192L216.293 191.293L217.707 192.707ZM216.293 176.707L215.586 176L217 174.586L217.707 175.293L216.293 176.707ZM215 183L225 183L225 185L215 185L215 183ZM225.707 184.707L217.707 192.707L216.293 191.293L224.293 183.293L225.707 184.707ZM224.293 184.707L216.293 176.707L217.707 175.293L225.707 183.293L224.293 184.707Z" fill="#110529"/>
<defs>
<filter id="filter0_i_4622_31308" x="49" y="103" width="72" height="54" filterUnits="userSpaceOnUse" color-interpolation-filters="sRGB">
<feFlood flood-opacity="0" result="BackgroundImageFix"/>
<feBlend mode="normal" in="SourceGraphic" in2="BackgroundImageFix" result="shape"/>
<feColorMatrix in="SourceAlpha" type="matrix" values="0 0 0 0 0 0 0 0 0 0 0 0 0 0 0 0 0 0 127 0" result="hardAlpha"/>
<feOffset dx="-8" dy="-4"/>
<feComposite in2="hardAlpha" operator="arithmetic" k2="-1" k3="1"/>
<feColorMatrix type="matrix" values="0 0 0 0 0.0666667 0 0 0 0 0.0196078 0 0 0 0 0.160784 0 0 0 0.16 0"/>
<feBlend mode="normal" in2="shape" result="effect1_innerShadow_4622_31308"/>
</filter>
<filter id="filter1_i_4622_31308" x="119" y="103" width="72" height="54" filterUnits="userSpaceOnUse" color-interpolation-filters="sRGB">
<feFlood flood-opacity="0" result="BackgroundImageFix"/>
<feBlend mode="normal" in="SourceGraphic" in2="BackgroundImageFix" result="shape"/>
<feColorMatrix in="SourceAlpha" type="matrix" values="0 0 0 0 0 0 0 0 0 0 0 0 0 0 0 0 0 0 127 0" result="hardAlpha"/>
<feOffset dx="-8" dy="-4"/>
<feComposite in2="hardAlpha" operator="arithmetic" k2="-1" k3="1"/>
<feColorMatrix type="matrix" values="0 0 0 0 0.0666667 0 0 0 0 0.0196078 0 0 0 0 0.160784 0 0 0 0.16 0"/>
<feBlend mode="normal" in2="shape" result="effect1_innerShadow_4622_31308"/>
</filter>
<filter id="filter2_i_4622_31308" x="189" y="103" width="398" height="54" filterUnits="userSpaceOnUse" color-interpolation-filters="sRGB">
<feFlood flood-opacity="0" result="BackgroundImageFix"/>
<feBlend mode="normal" in="SourceGraphic" in2="BackgroundImageFix" result="shape"/>
<feColorMatrix in="SourceAlpha" type="matrix" values="0 0 0 0 0 0 0 0 0 0 0 0 0 0 0 0 0 0 127 0" result="hardAlpha"/>
<feOffset dx="-8" dy="-4"/>
<feComposite in2="hardAlpha" operator="arithmetic" k2="-1" k3="1"/>
<feColorMatrix type="matrix" values="0 0 0 0 0.0666667 0 0 0 0 0.0196078 0 0 0 0 0.160784 0 0 0 0.16 0"/>
<feBlend mode="normal" in2="shape" result="effect1_innerShadow_4622_31308"/>
</filter>
<filter id="filter3_i_4622_31308" x="585" y="103" width="34" height="54" filterUnits="userSpaceOnUse" color-interpolation-filters="sRGB">
<feFlood flood-opacity="0" result="BackgroundImageFix"/>
<feBlend mode="normal" in="SourceGraphic" in2="BackgroundImageFix" result="shape"/>
<feColorMatrix in="SourceAlpha" type="matrix" values="0 0 0 0 0 0 0 0 0 0 0 0 0 0 0 0 0 0 127 0" result="hardAlpha"/>
<feOffset dx="-8" dy="-4"/>
<feComposite in2="hardAlpha" operator="arithmetic" k2="-1" k3="1"/>
<feColorMatrix type="matrix" values="0 0 0 0 0.0666667 0 0 0 0 0.0196078 0 0 0 0 0.160784 0 0 0 0.16 0"/>
<feBlend mode="normal" in2="shape" result="effect1_innerShadow_4622_31308"/>
</filter>
<filter id="filter4_i_4622_31308" x="669" y="103" width="34" height="54" filterUnits="userSpaceOnUse" color-interpolation-filters="sRGB">
<feFlood flood-opacity="0" result="BackgroundImageFix"/>
<feBlend mode="normal" in="SourceGraphic" in2="BackgroundImageFix" result="shape"/>
<feColorMatrix in="SourceAlpha" type="matrix" values="0 0 0 0 0 0 0 0 0 0 0 0 0 0 0 0 0 0 127 0" result="hardAlpha"/>
<feOffset dx="-8" dy="-4"/>
<feComposite in2="hardAlpha" operator="arithmetic" k2="-1" k3="1"/>
<feColorMatrix type="matrix" values="0 0 0 0 0.0666667 0 0 0 0 0.0196078 0 0 0 0 0.160784 0 0 0 0.16 0"/>
<feBlend mode="normal" in2="shape" result="effect1_innerShadow_4622_31308"/>
</filter>
<filter id="filter5_i_4622_31308" x="617" y="103" width="54" height="54" filterUnits="userSpaceOnUse" color-interpolation-filters="sRGB">
<feFlood flood-opacity="0" result="BackgroundImageFix"/>
<feBlend mode="normal" in="SourceGraphic" in2="BackgroundImageFix" result="shape"/>
<feColorMatrix in="SourceAlpha" type="matrix" values="0 0 0 0 0 0 0 0 0 0 0 0 0 0 0 0 0 0 127 0" result="hardAlpha"/>
<feOffset dx="-8" dy="-4"/>
<feComposite in2="hardAlpha" operator="arithmetic" k2="-1" k3="1"/>
<feColorMatrix type="matrix" values="0 0 0 0 0.0666667 0 0 0 0 0.0196078 0 0 0 0 0.160784 0 0 0 0.16 0"/>
<feBlend mode="normal" in2="shape" result="effect1_innerShadow_4622_31308"/>
</filter>
<filter id="filter6_i_4622_31308" x="701" y="103" width="146" height="54" filterUnits="userSpaceOnUse" color-interpolation-filters="sRGB">
<feFlood flood-opacity="0" result="BackgroundImageFix"/>
<feBlend mode="normal" in="SourceGraphic" in2="BackgroundImageFix" result="shape"/>
<feColorMatrix in="SourceAlpha" type="matrix" values="0 0 0 0 0 0 0 0 0 0 0 0 0 0 0 0 0 0 127 0" result="hardAlpha"/>
<feOffset dx="-8" dy="-4"/>
<feComposite in2="hardAlpha" operator="arithmetic" k2="-1" k3="1"/>
<feColorMatrix type="matrix" values="0 0 0 0 0.0666667 0 0 0 0 0.0196078 0 0 0 0 0.160784 0 0 0 0.16 0"/>
<feBlend mode="normal" in2="shape" result="effect1_innerShadow_4622_31308"/>
</filter>
<filter id="filter7_i_4622_31308" x="845" y="103" width="75.0308" height="54" filterUnits="userSpaceOnUse" color-interpolation-filters="sRGB">
<feFlood flood-opacity="0" result="BackgroundImageFix"/>
<feBlend mode="normal" in="SourceGraphic" in2="BackgroundImageFix" result="shape"/>
<feColorMatrix in="SourceAlpha" type="matrix" values="0 0 0 0 0 0 0 0 0 0 0 0 0 0 0 0 0 0 127 0" result="hardAlpha"/>
<feOffset dx="-8" dy="-4"/>
<feComposite in2="hardAlpha" operator="arithmetic" k2="-1" k3="1"/>
<feColorMatrix type="matrix" values="0 0 0 0 0.0666667 0 0 0 0 0.0196078 0 0 0 0 0.160784 0 0 0 0.16 0"/>
<feBlend mode="normal" in2="shape" result="effect1_innerShadow_4622_31308"/>
</filter>
</defs>
</svg>
