<svg width="960" height="424" viewBox="0 0 960 424" fill="none" xmlns="http://www.w3.org/2000/svg">
<rect width="960" height="424" fill="white"/>
<path d="M744 144V24" stroke="#D3D7E0" stroke-width="2" stroke-linecap="square" stroke-dasharray="6 6"/>
<path d="M790 144V24" stroke="#D3D7E0" stroke-width="2" stroke-linecap="square" stroke-dasharray="6 6"/>
<path d="M888 144V24" stroke="#D3D7E0" stroke-width="2" stroke-linecap="square" stroke-dasharray="6 6"/>
<path d="M188 144V24" stroke="#D3D7E0" stroke-width="2" stroke-linecap="square" stroke-dasharray="6 6"/>
<path d="M204.268 37.21C206.151 37.21 207.768 35.705 207.768 33.829C207.768 31.939 206.382 30.525 204.499 30.525C203.904 30.525 203.274 30.714 202.777 31.071L202.945 28.299H207.075V26.92H201.636L201.328 32.219L202.602 32.667C202.917 32.247 203.484 31.855 204.31 31.855C205.388 31.855 206.291 32.723 206.291 33.829C206.291 34.907 205.416 35.796 204.31 35.796C203.47 35.796 202.637 35.229 202.406 34.333L200.999 34.711C201.412 36.181 202.714 37.21 204.268 37.21ZM209.672 29.629L209.581 30.28C210.589 30.462 211.128 29.846 211.128 28.747V26.92H209.581V28.607H210.386C210.456 29.202 210.281 29.678 209.672 29.629ZM217.15 37.21C219.523 37.21 221.168 35.663 221.168 33.29V26.92H219.684V33.213C219.684 34.914 218.417 35.831 217.15 35.831C215.897 35.831 214.616 34.935 214.616 33.213V26.92L213.132 26.927V33.29C213.132 35.663 214.777 37.21 217.15 37.21ZM225.639 37H227.102V28.299H230.455V26.92H222.286V28.299H225.639V37ZM231.576 37H233.039V33.381H235.713L237.47 37H239.143L237.239 33.094C238.38 32.597 238.954 31.491 238.954 30.147C238.954 28.516 238.114 27.235 236.427 26.976C236.161 26.934 235.846 26.92 235.65 26.92H231.576V37ZM233.039 31.995V28.299H235.594C235.776 28.299 236.021 28.313 236.231 28.369C237.127 28.579 237.463 29.405 237.463 30.147C237.463 30.889 237.127 31.715 236.231 31.932C236.021 31.981 235.776 31.995 235.594 31.995H233.039Z" fill="#D3D7E0"/>
<path d="M252 144V24" stroke="#D3D7E0" stroke-width="2" stroke-linecap="square" stroke-dasharray="6 6"/>
<path d="M263.442 37H269.469V35.621H264.905V26.92H263.442V37Z" fill="#D3D7E0"/>
<path d="M280 144V24" stroke="#D3D7E0" stroke-width="2" stroke-linecap="square" stroke-dasharray="6 6"/>
<path d="M295.858 37H297.321V32.695H300.989V31.225H297.321V28.383H301.829V26.92H295.858V37ZM303.09 37H304.553V33.381H307.227L308.984 37H310.657L308.753 33.094C309.894 32.597 310.468 31.491 310.468 30.147C310.468 28.516 309.628 27.235 307.941 26.976C307.675 26.934 307.36 26.92 307.164 26.92H303.09V37ZM304.553 31.995V28.299H307.108C307.29 28.299 307.535 28.313 307.745 28.369C308.641 28.579 308.977 29.405 308.977 30.147C308.977 30.889 308.641 31.715 307.745 31.932C307.535 31.981 307.29 31.995 307.108 31.995H304.553ZM313.953 37H315.444V26.92H313.953L312.056 28.054V29.685L313.953 28.53V37Z" fill="#D3D7E0"/>
<path d="M332 144V24" stroke="#D3D7E0" stroke-width="2" stroke-linecap="square" stroke-dasharray="6 6"/>
<path d="M345.735 37.21C348.059 37.21 349.62 35.943 350.215 33.955L348.731 33.556C348.332 34.963 347.331 35.817 345.735 35.817C343.593 35.817 342.501 34.27 342.515 31.96C342.522 29.65 343.593 28.103 345.735 28.103C347.331 28.103 348.332 28.957 348.731 30.364L350.215 29.965C349.62 27.977 348.059 26.71 345.735 26.71C342.711 26.71 340.968 28.845 340.968 31.96C340.968 35.075 342.711 37.21 345.735 37.21ZM351.754 37H354.911C355.093 37 355.695 37 356.164 36.937C358.53 36.636 359.79 34.529 359.79 31.96C359.79 29.391 358.53 27.284 356.164 26.983C355.695 26.92 355.093 26.92 354.911 26.92H351.754V37ZM353.252 35.607V28.313H354.911C355.219 28.313 355.723 28.32 356.059 28.383C357.571 28.663 358.236 30.189 358.236 31.96C358.236 33.689 357.599 35.243 356.059 35.537C355.723 35.6 355.233 35.607 354.911 35.607H353.252ZM361.42 37H362.883V33.381H365.557L367.314 37H368.987L367.083 33.094C368.224 32.597 368.798 31.491 368.798 30.147C368.798 28.516 367.958 27.235 366.271 26.976C366.005 26.934 365.69 26.92 365.494 26.92H361.42V37ZM362.883 31.995V28.299H365.438C365.62 28.299 365.865 28.313 366.075 28.369C366.971 28.579 367.307 29.405 367.307 30.147C367.307 30.889 366.971 31.715 366.075 31.932C365.865 31.981 365.62 31.995 365.438 31.995H362.883ZM372.283 37H373.774V26.92H372.283L370.386 28.054V29.685L372.283 28.53V37Z" fill="#D3D7E0"/>
<path d="M384 144V24" stroke="#D3D7E0" stroke-width="2" stroke-linecap="square" stroke-dasharray="6 6"/>
<path d="M398.703 37H400.166V32.695H403.834V31.225H400.166V28.383H404.674V26.92H398.703V37ZM405.935 37H407.398V33.381H410.072L411.829 37H413.502L411.598 33.094C412.739 32.597 413.313 31.491 413.313 30.147C413.313 28.516 412.473 27.235 410.786 26.976C410.52 26.934 410.205 26.92 410.009 26.92H405.935V37ZM407.398 31.995V28.299H409.953C410.135 28.299 410.38 28.313 410.59 28.369C411.486 28.579 411.822 29.405 411.822 30.147C411.822 30.889 411.486 31.715 410.59 31.932C410.38 31.981 410.135 31.995 409.953 31.995H407.398ZM414.761 36.993H421.579V35.6H417.022L419.941 32.996C421.033 32.037 421.579 31.407 421.579 30.028C421.579 28.117 420.144 26.71 418.24 26.71C416.231 26.71 414.796 28.047 414.796 30H416.294C416.28 28.985 417.092 28.103 418.212 28.103C419.297 28.103 420.074 28.929 420.074 30.007C420.074 30.581 419.864 31.127 419.157 31.757L414.768 35.691L414.761 36.993Z" fill="#D3D7E0"/>
<path d="M436 144V24" stroke="#D3D7E0" stroke-width="2" stroke-linecap="square" stroke-dasharray="6 6"/>
<path d="M448.58 37.21C450.904 37.21 452.465 35.943 453.06 33.955L451.576 33.556C451.177 34.963 450.176 35.817 448.58 35.817C446.438 35.817 445.346 34.27 445.36 31.96C445.367 29.65 446.438 28.103 448.58 28.103C450.176 28.103 451.177 28.957 451.576 30.364L453.06 29.965C452.465 27.977 450.904 26.71 448.58 26.71C445.556 26.71 443.813 28.845 443.813 31.96C443.813 35.075 445.556 37.21 448.58 37.21ZM454.599 37H457.756C457.938 37 458.54 37 459.009 36.937C461.375 36.636 462.635 34.529 462.635 31.96C462.635 29.391 461.375 27.284 459.009 26.983C458.54 26.92 457.938 26.92 457.756 26.92H454.599V37ZM456.097 35.607V28.313H457.756C458.064 28.313 458.568 28.32 458.904 28.383C460.416 28.663 461.081 30.189 461.081 31.96C461.081 33.689 460.444 35.243 458.904 35.537C458.568 35.6 458.078 35.607 457.756 35.607H456.097ZM464.265 37H465.728V33.381H468.402L470.159 37H471.832L469.928 33.094C471.069 32.597 471.643 31.491 471.643 30.147C471.643 28.516 470.803 27.235 469.116 26.976C468.85 26.934 468.535 26.92 468.339 26.92H464.265V37ZM465.728 31.995V28.299H468.283C468.465 28.299 468.71 28.313 468.92 28.369C469.816 28.579 470.152 29.405 470.152 30.147C470.152 30.889 469.816 31.715 468.92 31.932C468.71 31.981 468.465 31.995 468.283 31.995H465.728ZM473.091 36.993H479.909V35.6H475.352L478.271 32.996C479.363 32.037 479.909 31.407 479.909 30.028C479.909 28.117 478.474 26.71 476.57 26.71C474.561 26.71 473.126 28.047 473.126 30H474.624C474.61 28.985 475.422 28.103 476.542 28.103C477.627 28.103 478.404 28.929 478.404 30.007C478.404 30.581 478.194 31.127 477.487 31.757L473.098 35.691L473.091 36.993Z" fill="#D3D7E0"/>
<path d="M488 144V24" stroke="#D3D7E0" stroke-width="2" stroke-linecap="square" stroke-dasharray="6 6"/>
<path d="M502.805 37H504.268V32.695H507.936V31.225H504.268V28.383H508.776V26.92H502.805V37ZM510.038 37H511.501V33.381H514.175L515.932 37H517.605L515.701 33.094C516.842 32.597 517.416 31.491 517.416 30.147C517.416 28.516 516.576 27.235 514.889 26.976C514.623 26.934 514.308 26.92 514.112 26.92H510.038V37ZM511.501 31.995V28.299H514.056C514.238 28.299 514.483 28.313 514.693 28.369C515.589 28.579 515.925 29.405 515.925 30.147C515.925 30.889 515.589 31.715 514.693 31.932C514.483 31.981 514.238 31.995 514.056 31.995H511.501ZM521.964 37.189C523.847 37.189 525.331 35.796 525.331 33.871C525.331 32.233 524.323 30.924 522.692 30.707L525.184 28.313V26.92H519.122V28.313H523.392L520.312 31.036L520.998 32.191C521.285 32.037 521.628 31.939 521.95 31.939C523.07 31.939 523.833 32.751 523.833 33.871C523.833 34.984 523.07 35.789 521.964 35.803C521.138 35.81 520.403 35.341 520.137 34.466L518.723 34.858C519.15 36.293 520.466 37.189 521.964 37.189Z" fill="#D3D7E0"/>
<path d="M540 144V24" stroke="#D3D7E0" stroke-width="2" stroke-linecap="square" stroke-dasharray="6 6"/>
<path d="M149 44L149 108" stroke="#D3D7E0" stroke-width="2" stroke-linecap="square" stroke-dasharray="6 6"/>
<path d="M135.509 37.21C134.833 37.21 134.21 37.0933 133.64 36.86C133.071 36.622 132.576 36.2767 132.156 35.824C131.736 35.3713 131.41 34.8207 131.176 34.172C130.943 33.5233 130.826 32.786 130.826 31.96C130.826 30.8727 131.025 29.9393 131.421 29.16C131.818 28.376 132.369 27.774 133.073 27.354C133.778 26.9293 134.59 26.717 135.509 26.717C136.695 26.717 137.64 26.9923 138.344 27.543C139.054 28.0937 139.537 28.8543 139.793 29.825L138.309 30.091C138.104 29.489 137.773 29.0083 137.315 28.649C136.858 28.2897 136.284 28.1077 135.593 28.103C134.879 28.0983 134.284 28.257 133.808 28.579C133.337 28.901 132.982 29.3537 132.744 29.937C132.506 30.5157 132.385 31.19 132.38 31.96C132.376 32.73 132.492 33.4043 132.73 33.983C132.968 34.557 133.325 35.005 133.801 35.327C134.282 35.649 134.879 35.8123 135.593 35.817C136.167 35.8263 136.66 35.7213 137.07 35.502C137.486 35.278 137.815 34.9513 138.057 34.522C138.3 34.0927 138.456 33.5653 138.526 32.94H136.566V31.764H140.08C140.09 31.848 140.097 31.96 140.101 32.1C140.106 32.2353 140.108 32.3217 140.108 32.359C140.108 33.2923 139.929 34.1253 139.569 34.858C139.21 35.5907 138.687 36.167 138.001 36.587C137.315 37.0023 136.485 37.21 135.509 37.21ZM143.743 37V28.299H140.39V26.92H148.559V28.299H145.206V37H143.743ZM148.706 37L151.982 26.92H154.089L157.365 37H155.846L152.829 27.802H153.207L150.225 37H148.706ZM150.407 34.725V33.353H155.671V34.725H150.407ZM162.554 37.21C161.546 37.21 160.688 36.9907 159.978 36.552C159.269 36.1087 158.725 35.4927 158.347 34.704C157.974 33.9153 157.787 33.0007 157.787 31.96C157.787 30.9193 157.974 30.0047 158.347 29.216C158.725 28.4273 159.269 27.8137 159.978 27.375C160.688 26.9317 161.546 26.71 162.554 26.71C163.716 26.71 164.678 27.004 165.438 27.592C166.204 28.18 166.736 28.971 167.034 29.965L165.55 30.364C165.354 29.6593 165.004 29.1063 164.5 28.705C164.001 28.3037 163.352 28.103 162.554 28.103C161.84 28.103 161.245 28.264 160.769 28.586C160.293 28.908 159.934 29.3583 159.691 29.937C159.453 30.5157 159.334 31.19 159.334 31.96C159.33 32.73 159.446 33.4043 159.684 33.983C159.927 34.5617 160.286 35.012 160.762 35.334C161.243 35.656 161.84 35.817 162.554 35.817C163.352 35.817 164.001 35.6163 164.5 35.215C165.004 34.809 165.354 34.256 165.55 33.556L167.034 33.955C166.736 34.949 166.204 35.74 165.438 36.328C164.678 36.916 163.716 37.21 162.554 37.21Z" fill="#110529"/>
<path d="M585.682 37.21C588.006 37.21 589.567 35.943 590.162 33.955L588.678 33.556C588.279 34.963 587.278 35.817 585.682 35.817C583.54 35.817 582.448 34.27 582.462 31.96C582.469 29.65 583.54 28.103 585.682 28.103C587.278 28.103 588.279 28.957 588.678 30.364L590.162 29.965C589.567 27.977 588.006 26.71 585.682 26.71C582.658 26.71 580.915 28.845 580.915 31.96C580.915 35.075 582.658 37.21 585.682 37.21ZM591.702 37H594.859C595.041 37 595.643 37 596.112 36.937C598.478 36.636 599.738 34.529 599.738 31.96C599.738 29.391 598.478 27.284 596.112 26.983C595.643 26.92 595.041 26.92 594.859 26.92H591.702V37ZM593.2 35.607V28.313H594.859C595.167 28.313 595.671 28.32 596.007 28.383C597.519 28.663 598.184 30.189 598.184 31.96C598.184 33.689 597.547 35.243 596.007 35.537C595.671 35.6 595.181 35.607 594.859 35.607H593.2ZM601.368 37H602.831V33.381H605.505L607.262 37H608.935L607.031 33.094C608.172 32.597 608.746 31.491 608.746 30.147C608.746 28.516 607.906 27.235 606.219 26.976C605.953 26.934 605.638 26.92 605.442 26.92H601.368V37ZM602.831 31.995V28.299H605.386C605.568 28.299 605.813 28.313 606.023 28.369C606.919 28.579 607.255 29.405 607.255 30.147C607.255 30.889 606.919 31.715 606.023 31.932C605.813 31.981 605.568 31.995 605.386 31.995H602.831ZM613.294 37.189C615.177 37.189 616.661 35.796 616.661 33.871C616.661 32.233 615.653 30.924 614.022 30.707L616.514 28.313V26.92H610.452V28.313H614.722L611.642 31.036L612.328 32.191C612.615 32.037 612.958 31.939 613.28 31.939C614.4 31.939 615.163 32.751 615.163 33.871C615.163 34.984 614.4 35.789 613.294 35.803C612.468 35.81 611.733 35.341 611.467 34.466L610.053 34.858C610.48 36.293 611.796 37.189 613.294 37.189Z" fill="#D3D7E0"/>
<path d="M660 144V24" stroke="#D3D7E0" stroke-width="2" stroke-linecap="square" stroke-dasharray="6 6"/>
<path d="M690.593 37H692.056V32.695H695.724V31.225H692.056V28.383H696.564V26.92H690.593V37ZM697.826 37H699.289V33.381H701.963L703.72 37H705.393L703.489 33.094C704.63 32.597 705.204 31.491 705.204 30.147C705.204 28.516 704.364 27.235 702.677 26.976C702.411 26.934 702.096 26.92 701.9 26.92H697.826V37ZM699.289 31.995V28.299H701.844C702.026 28.299 702.271 28.313 702.481 28.369C703.377 28.579 703.713 29.405 703.713 30.147C703.713 30.889 703.377 31.715 702.481 31.932C702.271 31.981 702.026 31.995 701.844 31.995H699.289ZM711.201 37H712.685V35.243H713.686V33.857H712.685V31.127H711.201V33.857H708.324L711.6 26.92H709.927L706.651 33.857V35.243H711.201V37Z" fill="#D3D7E0"/>
<path d="M808.089 87.992H815.745V86.632H810.281L813.993 83.296C815.177 82.248 815.745 81.488 815.745 79.976C815.745 77.856 814.129 76.24 811.993 76.24C809.777 76.24 808.145 77.784 808.145 79.952H809.601C809.585 78.696 810.593 77.6 811.969 77.6C813.297 77.6 814.289 78.632 814.289 79.96C814.289 80.688 814.057 81.352 813.209 82.112L808.097 86.712L808.089 87.992ZM821.547 88.24C823.787 88.24 825.435 86.592 825.435 84.352V80.128C825.435 77.888 823.787 76.24 821.547 76.24C819.307 76.24 817.659 77.888 817.659 80.128V84.352C817.659 86.592 819.307 88.24 821.547 88.24ZM819.107 84.432V80.04C819.107 78.688 820.195 77.6 821.547 77.6C822.899 77.6 823.987 78.688 823.987 80.04V84.432C823.987 85.784 822.899 86.872 821.547 86.872C820.195 86.872 819.107 85.784 819.107 84.432ZM827.515 82.824H832.315V81.648H827.515V82.824ZM834.073 87.992H841.729V86.632H836.265L839.977 83.296C841.161 82.248 841.729 81.488 841.729 79.976C841.729 77.856 840.113 76.24 837.977 76.24C835.761 76.24 834.129 77.784 834.129 79.952H835.585C835.569 78.696 836.577 77.6 837.953 77.6C839.281 77.6 840.273 78.632 840.273 79.96C840.273 80.688 840.041 81.352 839.193 82.112L834.081 86.712L834.073 87.992ZM846.803 88.224C848.939 88.224 850.563 86.664 850.563 84.456C850.563 82.44 849.283 80.944 847.299 80.832L850.411 77.848V76.48H843.619V77.84H848.643L844.899 81.224L845.587 82.352C845.947 82.168 846.387 82.048 846.779 82.048C848.163 82.048 849.099 83.032 849.099 84.456C849.099 85.864 848.195 86.84 846.795 86.864C845.771 86.88 844.875 86.312 844.531 85.24L843.163 85.632C843.651 87.232 845.091 88.224 846.803 88.224ZM856.611 88.24C859.027 88.24 860.483 86.264 860.483 83.672C860.483 81.08 859.019 79.12 856.619 79.12C855.539 79.12 854.683 79.496 854.067 80.144V76.48H852.635V88H853.907V87.024C854.539 87.784 855.443 88.24 856.611 88.24ZM853.907 83.672C853.907 81.76 854.707 80.424 856.395 80.424C858.155 80.424 858.971 81.848 858.971 83.672C858.971 85.512 858.139 86.936 856.435 86.936C854.691 86.936 853.907 85.568 853.907 83.672ZM866.205 88.24C868.621 88.24 870.077 86.264 870.077 83.672C870.077 81.08 868.613 79.12 866.213 79.12C865.037 79.12 864.133 79.568 863.501 80.328V79.36H862.229V91.84H863.661V87.2C864.277 87.856 865.133 88.24 866.205 88.24ZM863.501 83.672C863.501 81.76 864.301 80.424 865.989 80.424C867.749 80.424 868.565 81.848 868.565 83.672C868.565 85.512 867.733 86.936 866.029 86.936C864.285 86.936 863.501 85.568 863.501 83.672Z" fill="#110529"/>
<path d="M895.728 88H897.264L901.4 77.848V76.48H894.64V77.848H899.872L895.728 88ZM907.291 88.24C909.707 88.24 911.163 86.264 911.163 83.672C911.163 81.08 909.699 79.12 907.299 79.12C906.219 79.12 905.363 79.496 904.747 80.144V76.48H903.315V88H904.587V87.024C905.219 87.784 906.123 88.24 907.291 88.24ZM904.587 83.672C904.587 81.76 905.387 80.424 907.075 80.424C908.835 80.424 909.651 81.848 909.651 83.672C909.651 85.512 908.819 86.936 907.115 86.936C905.371 86.936 904.587 85.568 904.587 83.672ZM916.885 88.24C919.301 88.24 920.757 86.264 920.757 83.672C920.757 81.08 919.293 79.12 916.893 79.12C915.717 79.12 914.813 79.568 914.181 80.328V79.36H912.909V91.84H914.341V87.2C914.957 87.856 915.813 88.24 916.885 88.24ZM914.181 83.672C914.181 81.76 914.981 80.424 916.669 80.424C918.429 80.424 919.245 81.848 919.245 83.672C919.245 85.512 918.413 86.936 916.709 86.936C914.965 86.936 914.181 85.568 914.181 83.672Z" fill="#110529"/>
<rect width="43" height="20" transform="translate(77 72)" fill="white"/>
<path d="M84.128 88V78.056L81.96 79.368V77.776L84.128 76.48H85.576V88H84.128ZM88.3 87.992L88.308 86.712L93.42 82.112C93.8467 81.728 94.132 81.3653 94.276 81.024C94.4253 80.6773 94.5 80.3227 94.5 79.96C94.5 79.5173 94.3987 79.1173 94.196 78.76C93.9933 78.4027 93.716 78.12 93.364 77.912C93.0173 77.704 92.6227 77.6 92.18 77.6C91.7213 77.6 91.3133 77.7093 90.956 77.928C90.5987 78.1413 90.316 78.4267 90.108 78.784C89.9053 79.1413 89.8067 79.5307 89.812 79.952H88.356C88.356 79.2267 88.524 78.5867 88.86 78.032C89.196 77.472 89.652 77.0347 90.228 76.72C90.8093 76.4 91.468 76.24 92.204 76.24C92.9187 76.24 93.5587 76.4053 94.124 76.736C94.6893 77.0613 95.1347 77.5067 95.46 78.072C95.7907 78.632 95.956 79.2667 95.956 79.976C95.956 80.4773 95.892 80.912 95.764 81.28C95.6413 81.648 95.4493 81.9893 95.188 82.304C94.9267 82.6133 94.5987 82.944 94.204 83.296L89.956 87.112L89.772 86.632H95.956V87.992H88.3ZM101.838 88.24C101.027 88.24 100.345 88.04 99.79 87.64C99.2353 87.2347 98.814 86.688 98.526 86C98.2433 85.3067 98.102 84.5307 98.102 83.672C98.102 82.8027 98.2433 82.024 98.526 81.336C98.814 80.648 99.2353 80.1067 99.79 79.712C100.35 79.3173 101.035 79.12 101.846 79.12C102.646 79.12 103.334 79.32 103.91 79.72C104.491 80.1147 104.937 80.656 105.246 81.344C105.555 82.032 105.71 82.808 105.71 83.672C105.71 84.536 105.555 85.312 105.246 86C104.937 86.688 104.491 87.2347 103.91 87.64C103.334 88.04 102.643 88.24 101.838 88.24ZM97.862 88V76.48H99.294V81.64H99.134V88H97.862ZM101.662 86.936C102.233 86.936 102.705 86.792 103.078 86.504C103.451 86.216 103.731 85.8267 103.918 85.336C104.105 84.84 104.198 84.2853 104.198 83.672C104.198 83.064 104.105 82.5147 103.918 82.024C103.737 81.5333 103.454 81.144 103.07 80.856C102.691 80.568 102.209 80.424 101.622 80.424C101.062 80.424 100.598 80.5627 100.23 80.84C99.862 81.112 99.5873 81.4933 99.406 81.984C99.2247 82.4693 99.134 83.032 99.134 83.672C99.134 84.3013 99.222 84.864 99.398 85.36C99.5793 85.8507 99.8567 86.2373 100.23 86.52C100.603 86.7973 101.081 86.936 101.662 86.936ZM111.432 88.24C110.621 88.24 109.938 88.04 109.384 87.64C108.829 87.2347 108.408 86.688 108.12 86C107.837 85.3067 107.696 84.5307 107.696 83.672C107.696 82.8027 107.837 82.024 108.12 81.336C108.408 80.648 108.829 80.1067 109.384 79.712C109.944 79.3173 110.629 79.12 111.44 79.12C112.24 79.12 112.928 79.32 113.504 79.72C114.085 80.1147 114.53 80.656 114.84 81.344C115.149 82.032 115.304 82.808 115.304 83.672C115.304 84.536 115.149 85.312 114.84 86C114.53 86.688 114.085 87.2347 113.504 87.64C112.928 88.04 112.237 88.24 111.432 88.24ZM107.456 91.84V79.36H108.728V85.72H108.888V91.84H107.456ZM111.256 86.936C111.826 86.936 112.298 86.792 112.672 86.504C113.045 86.216 113.325 85.8267 113.512 85.336C113.698 84.84 113.792 84.2853 113.792 83.672C113.792 83.064 113.698 82.5147 113.512 82.024C113.33 81.5333 113.048 81.144 112.664 80.856C112.285 80.568 111.802 80.424 111.216 80.424C110.656 80.424 110.192 80.5627 109.824 80.84C109.456 81.112 109.181 81.4933 109 81.984C108.818 82.4693 108.728 83.032 108.728 83.672C108.728 84.3013 108.816 84.864 108.992 85.36C109.173 85.8507 109.45 86.2373 109.824 86.52C110.197 86.7973 110.674 86.936 111.256 86.936Z" fill="#110529"/>
<rect width="56" height="20" transform="translate(154 72)" fill="white"/>
<path d="M165.417 81.6167C164.783 80.9667 163.933 80.6 162.967 80.5333L166.217 77.4667V76H159.15V77.4167H164.2L160.483 80.9333L161.2 82.1167C161.567 81.9167 162.033 81.8 162.433 81.8C163.05 81.8 163.633 81.9833 164.083 82.3833C164.617 82.8667 164.85 83.5833 164.85 84.3C164.85 85.05 164.617 85.7833 164.017 86.2667C163.6 86.6167 163.033 86.8 162.45 86.8167C161.883 86.8167 161.317 86.6333 160.883 86.2833C160.5 86 160.25 85.5833 160.1 85.1167L158.667 85.5333C158.883 86.2333 159.317 86.9 159.9 87.3667C160.633 87.95 161.55 88.25 162.467 88.2333C163.367 88.2167 164.3 87.95 165.017 87.35C165.9 86.6333 166.35 85.5 166.383 84.3C166.4 83.3167 166.083 82.3167 165.417 81.6167ZM168.391 82.6833V83.9H173.391V82.6833H168.391ZM182.457 84.3833V81H180.957V84.3833H177.041L180.991 76H179.441L175.474 84.3833V85.7833H180.957V88H182.457V85.7833H183.707V84.3833H182.457ZM193.147 80.1833C192.414 79.25 191.264 78.75 190.03 78.75C188.964 78.75 187.947 79.15 187.214 79.85V76H185.714V88H187.047V86.95C187.764 87.8167 188.83 88.25 190.03 88.25C191.247 88.25 192.397 87.7333 193.147 86.8C193.897 85.85 194.147 84.6667 194.147 83.4833C194.147 82.3 193.864 81.1 193.147 80.1833ZM191.947 85.8833C191.464 86.5667 190.664 86.8833 189.847 86.8833C189.014 86.8833 188.247 86.5833 187.747 85.9667C187.247 85.35 187.047 84.4167 187.047 83.4833C187.047 82.5667 187.247 81.65 187.747 81.0167C188.23 80.4 188.98 80.1 189.797 80.1C190.68 80.1 191.447 80.4167 191.93 81.1C192.397 81.7167 192.564 82.5833 192.564 83.4833C192.564 84.3833 192.414 85.2667 191.947 85.8833ZM203.413 80.1833C202.679 79.25 201.529 78.75 200.296 78.75C199.146 78.75 198.046 79.2 197.313 80.0167V79H195.979V92H197.479V87.15C198.179 87.8833 199.179 88.25 200.296 88.25C201.513 88.25 202.663 87.7333 203.413 86.8C204.163 85.85 204.413 84.6667 204.413 83.4833C204.413 82.3 204.129 81.1 203.413 80.1833ZM202.213 85.8833C201.729 86.5667 200.929 86.8833 200.113 86.8833C199.279 86.8833 198.513 86.5833 198.013 85.9667C197.513 85.35 197.313 84.4167 197.313 83.4833C197.313 82.5667 197.513 81.65 198.013 81.0167C198.496 80.4 199.246 80.1 200.063 80.1C200.946 80.1 201.713 80.4167 202.196 81.1C202.663 81.7167 202.829 82.5833 202.829 83.4833C202.829 84.3833 202.679 85.2667 202.213 85.8833Z" fill="#110529"/>
<path d="M31.4 192H33.18V186.68H37.39L39.97 192H42.01L39.23 186.29C40.86 185.61 41.71 184.04 41.71 182.14C41.71 179.85 40.48 178.04 38.15 177.68C37.78 177.62 37.37 177.6 37.09 177.6H31.4V192ZM33.18 184.99V179.29H37.03C37.28 179.29 37.63 179.31 37.93 179.38C39.31 179.69 39.89 180.94 39.89 182.14C39.89 183.34 39.31 184.59 37.93 184.9C37.63 184.97 37.28 184.99 37.03 184.99H33.18ZM43.8125 191.99H53.3825V190.29H46.5525L51.1925 186.12C52.6725 184.81 53.3825 183.86 53.3825 181.97C53.3825 179.32 51.3625 177.3 48.6925 177.3C45.9225 177.3 43.8825 179.23 43.8825 181.94H45.7025C45.6825 180.37 46.9425 179 48.6625 179C50.3225 179 51.5625 180.29 51.5625 181.95C51.5625 182.86 51.2725 183.69 50.2125 184.64L43.8225 190.39L43.8125 191.99Z" fill="#110529"/>
<path d="M63 176V192H73V200L87 184L73 168V176H63Z" fill="#110529"/>
<path d="M267.5 184H90" stroke="#110529" stroke-width="2" stroke-linecap="square"/>
<rect width="57" height="20" transform="translate(267.5 174)" fill="white"/>
<path d="M275.78 190.224C275.209 190.224 274.679 190.12 274.188 189.912C273.697 189.699 273.273 189.4 272.916 189.016C272.564 188.627 272.305 188.165 272.14 187.632L273.508 187.24C273.684 187.773 273.977 188.179 274.388 188.456C274.799 188.733 275.26 188.869 275.772 188.864C276.241 188.853 276.647 188.747 276.988 188.544C277.335 188.336 277.601 188.053 277.788 187.696C277.98 187.339 278.076 186.925 278.076 186.456C278.076 185.741 277.863 185.163 277.436 184.72C277.009 184.272 276.449 184.048 275.756 184.048C275.564 184.048 275.361 184.075 275.148 184.128C274.94 184.181 274.745 184.256 274.564 184.352L273.876 183.224L278.148 179.36L278.332 179.84H272.596V178.48H279.388V179.848L275.748 183.336L275.732 182.832C276.495 182.779 277.161 182.904 277.732 183.208C278.303 183.512 278.745 183.947 279.06 184.512C279.38 185.077 279.54 185.725 279.54 186.456C279.54 187.192 279.375 187.843 279.044 188.408C278.713 188.973 278.265 189.419 277.7 189.744C277.135 190.064 276.495 190.224 275.78 190.224ZM285.508 190.24C284.761 190.24 284.095 190.072 283.508 189.736C282.927 189.395 282.465 188.933 282.124 188.352C281.788 187.765 281.62 187.099 281.62 186.352V182.128C281.62 181.381 281.788 180.715 282.124 180.128C282.465 179.541 282.927 179.08 283.508 178.744C284.095 178.408 284.761 178.24 285.508 178.24C286.255 178.24 286.921 178.408 287.508 178.744C288.095 179.08 288.556 179.541 288.892 180.128C289.228 180.715 289.396 181.381 289.396 182.128V186.352C289.396 187.099 289.228 187.765 288.892 188.352C288.556 188.933 288.095 189.395 287.508 189.736C286.921 190.072 286.255 190.24 285.508 190.24ZM285.508 188.872C285.961 188.872 286.372 188.763 286.74 188.544C287.108 188.325 287.401 188.032 287.62 187.664C287.839 187.291 287.948 186.88 287.948 186.432V182.04C287.948 181.587 287.839 181.176 287.62 180.808C287.401 180.44 287.108 180.147 286.74 179.928C286.372 179.709 285.961 179.6 285.508 179.6C285.06 179.6 284.649 179.709 284.276 179.928C283.908 180.147 283.615 180.44 283.396 180.808C283.177 181.176 283.068 181.587 283.068 182.04V186.432C283.068 186.88 283.177 187.291 283.396 187.664C283.615 188.032 283.908 188.325 284.276 188.544C284.649 188.763 285.06 188.872 285.508 188.872ZM295.524 190.24C294.777 190.24 294.11 190.072 293.524 189.736C292.942 189.395 292.481 188.933 292.14 188.352C291.804 187.765 291.636 187.099 291.636 186.352V182.128C291.636 181.381 291.804 180.715 292.14 180.128C292.481 179.541 292.942 179.08 293.524 178.744C294.11 178.408 294.777 178.24 295.524 178.24C296.27 178.24 296.937 178.408 297.524 178.744C298.11 179.08 298.572 179.541 298.908 180.128C299.244 180.715 299.412 181.381 299.412 182.128V186.352C299.412 187.099 299.244 187.765 298.908 188.352C298.572 188.933 298.11 189.395 297.524 189.736C296.937 190.072 296.27 190.24 295.524 190.24ZM295.524 188.872C295.977 188.872 296.388 188.763 296.756 188.544C297.124 188.325 297.417 188.032 297.636 187.664C297.854 187.291 297.964 186.88 297.964 186.432V182.04C297.964 181.587 297.854 181.176 297.636 180.808C297.417 180.44 297.124 180.147 296.756 179.928C296.388 179.709 295.977 179.6 295.524 179.6C295.076 179.6 294.665 179.709 294.292 179.928C293.924 180.147 293.63 180.44 293.412 180.808C293.193 181.176 293.084 181.587 293.084 182.04V186.432C293.084 186.88 293.193 187.291 293.412 187.664C293.63 188.032 293.924 188.325 294.292 188.544C294.665 188.763 295.076 188.872 295.524 188.872ZM305.619 190.24C304.809 190.24 304.126 190.04 303.571 189.64C303.017 189.235 302.595 188.688 302.307 188C302.025 187.307 301.883 186.531 301.883 185.672C301.883 184.803 302.025 184.024 302.307 183.336C302.595 182.648 303.017 182.107 303.571 181.712C304.131 181.317 304.817 181.12 305.627 181.12C306.427 181.12 307.115 181.32 307.691 181.72C308.273 182.115 308.718 182.656 309.027 183.344C309.337 184.032 309.491 184.808 309.491 185.672C309.491 186.536 309.337 187.312 309.027 188C308.718 188.688 308.273 189.235 307.691 189.64C307.115 190.04 306.425 190.24 305.619 190.24ZM301.643 190V178.48H303.075V183.64H302.915V190H301.643ZM305.443 188.936C306.014 188.936 306.486 188.792 306.859 188.504C307.233 188.216 307.513 187.827 307.699 187.336C307.886 186.84 307.979 186.285 307.979 185.672C307.979 185.064 307.886 184.515 307.699 184.024C307.518 183.533 307.235 183.144 306.851 182.856C306.473 182.568 305.99 182.424 305.403 182.424C304.843 182.424 304.379 182.563 304.011 182.84C303.643 183.112 303.369 183.493 303.187 183.984C303.006 184.469 302.915 185.032 302.915 185.672C302.915 186.301 303.003 186.864 303.179 187.36C303.361 187.851 303.638 188.237 304.011 188.52C304.385 188.797 304.862 188.936 305.443 188.936ZM315.213 190.24C314.402 190.24 313.72 190.04 313.165 189.64C312.61 189.235 312.189 188.688 311.901 188C311.618 187.307 311.477 186.531 311.477 185.672C311.477 184.803 311.618 184.024 311.901 183.336C312.189 182.648 312.61 182.107 313.165 181.712C313.725 181.317 314.41 181.12 315.221 181.12C316.021 181.12 316.709 181.32 317.285 181.72C317.866 182.115 318.312 182.656 318.621 183.344C318.93 184.032 319.085 184.808 319.085 185.672C319.085 186.536 318.93 187.312 318.621 188C318.312 188.688 317.866 189.235 317.285 189.64C316.709 190.04 316.018 190.24 315.213 190.24ZM311.237 193.84V181.36H312.509V187.72H312.669V193.84H311.237ZM315.037 188.936C315.608 188.936 316.08 188.792 316.453 188.504C316.826 188.216 317.106 187.827 317.293 187.336C317.48 186.84 317.573 186.285 317.573 185.672C317.573 185.064 317.48 184.515 317.293 184.024C317.112 183.533 316.829 183.144 316.445 182.856C316.066 182.568 315.584 182.424 314.997 182.424C314.437 182.424 313.973 182.563 313.605 182.84C313.237 183.112 312.962 183.493 312.781 183.984C312.6 184.469 312.509 185.032 312.509 185.672C312.509 186.301 312.597 186.864 312.773 187.36C312.954 187.851 313.232 188.237 313.605 188.52C313.978 188.797 314.456 188.936 315.037 188.936Z" fill="#110529"/>
<path d="M502 184H324.5" stroke="#110529" stroke-width="2" stroke-linecap="square"/>
<path d="M512 184L512.707 183.293L513.414 184L512.707 184.707L512 184ZM504.707 192.707L504 193.414L502.586 192L503.293 191.293L504.707 192.707ZM503.293 176.707L502.586 176L504 174.586L504.707 175.293L503.293 176.707ZM502 183L512 183L512 185L502 185L502 183ZM512.707 184.707L504.707 192.707L503.293 191.293L511.293 183.293L512.707 184.707ZM511.293 184.707L503.293 176.707L504.707 175.293L512.707 183.293L511.293 184.707Z" fill="#110529"/>
<path d="M31.4 368H33.18V362.68H37.39L39.97 368H42.01L39.23 362.29C40.86 361.61 41.71 360.04 41.71 358.14C41.71 355.85 40.48 354.04 38.15 353.68C37.78 353.62 37.37 353.6 37.09 353.6H31.4V368ZM33.18 360.99V355.29H37.03C37.28 355.29 37.63 355.31 37.93 355.38C39.31 355.69 39.89 356.94 39.89 358.14C39.89 359.34 39.31 360.59 37.93 360.9C37.63 360.97 37.28 360.99 37.03 360.99H33.18ZM43.8125 367.99H53.3825V366.29H46.5525L51.1925 362.12C52.6725 360.81 53.3825 359.86 53.3825 357.97C53.3825 355.32 51.3625 353.3 48.6925 353.3C45.9225 353.3 43.8825 355.23 43.8825 357.94H45.7025C45.6825 356.37 46.9425 355 48.6625 355C50.3225 355 51.5625 356.29 51.5625 357.95C51.5625 358.86 51.2725 359.69 50.2125 360.64L43.8225 366.39L43.8125 367.99Z" fill="#110529"/>
<path d="M63 352V368H73V376L87 360L73 344V352H63Z" fill="#110529"/>
<path d="M267.5 360H90" stroke="#110529" stroke-width="2" stroke-linecap="square"/>
<rect width="57" height="20" transform="translate(267.5 350)" fill="white"/>
<path d="M275.78 366.224C275.209 366.224 274.679 366.12 274.188 365.912C273.697 365.699 273.273 365.4 272.916 365.016C272.564 364.627 272.305 364.165 272.14 363.632L273.508 363.24C273.684 363.773 273.977 364.179 274.388 364.456C274.799 364.733 275.26 364.869 275.772 364.864C276.241 364.853 276.647 364.747 276.988 364.544C277.335 364.336 277.601 364.053 277.788 363.696C277.98 363.339 278.076 362.925 278.076 362.456C278.076 361.741 277.863 361.163 277.436 360.72C277.009 360.272 276.449 360.048 275.756 360.048C275.564 360.048 275.361 360.075 275.148 360.128C274.94 360.181 274.745 360.256 274.564 360.352L273.876 359.224L278.148 355.36L278.332 355.84H272.596V354.48H279.388V355.848L275.748 359.336L275.732 358.832C276.495 358.779 277.161 358.904 277.732 359.208C278.303 359.512 278.745 359.947 279.06 360.512C279.38 361.077 279.54 361.725 279.54 362.456C279.54 363.192 279.375 363.843 279.044 364.408C278.713 364.973 278.265 365.419 277.7 365.744C277.135 366.064 276.495 366.224 275.78 366.224ZM285.508 366.24C284.761 366.24 284.095 366.072 283.508 365.736C282.927 365.395 282.465 364.933 282.124 364.352C281.788 363.765 281.62 363.099 281.62 362.352V358.128C281.62 357.381 281.788 356.715 282.124 356.128C282.465 355.541 282.927 355.08 283.508 354.744C284.095 354.408 284.761 354.24 285.508 354.24C286.255 354.24 286.921 354.408 287.508 354.744C288.095 355.08 288.556 355.541 288.892 356.128C289.228 356.715 289.396 357.381 289.396 358.128V362.352C289.396 363.099 289.228 363.765 288.892 364.352C288.556 364.933 288.095 365.395 287.508 365.736C286.921 366.072 286.255 366.24 285.508 366.24ZM285.508 364.872C285.961 364.872 286.372 364.763 286.74 364.544C287.108 364.325 287.401 364.032 287.62 363.664C287.839 363.291 287.948 362.88 287.948 362.432V358.04C287.948 357.587 287.839 357.176 287.62 356.808C287.401 356.44 287.108 356.147 286.74 355.928C286.372 355.709 285.961 355.6 285.508 355.6C285.06 355.6 284.649 355.709 284.276 355.928C283.908 356.147 283.615 356.44 283.396 356.808C283.177 357.176 283.068 357.587 283.068 358.04V362.432C283.068 362.88 283.177 363.291 283.396 363.664C283.615 364.032 283.908 364.325 284.276 364.544C284.649 364.763 285.06 364.872 285.508 364.872ZM295.524 366.24C294.777 366.24 294.11 366.072 293.524 365.736C292.942 365.395 292.481 364.933 292.14 364.352C291.804 363.765 291.636 363.099 291.636 362.352V358.128C291.636 357.381 291.804 356.715 292.14 356.128C292.481 355.541 292.942 355.08 293.524 354.744C294.11 354.408 294.777 354.24 295.524 354.24C296.27 354.24 296.937 354.408 297.524 354.744C298.11 355.08 298.572 355.541 298.908 356.128C299.244 356.715 299.412 357.381 299.412 358.128V362.352C299.412 363.099 299.244 363.765 298.908 364.352C298.572 364.933 298.11 365.395 297.524 365.736C296.937 366.072 296.27 366.24 295.524 366.24ZM295.524 364.872C295.977 364.872 296.388 364.763 296.756 364.544C297.124 364.325 297.417 364.032 297.636 363.664C297.854 363.291 297.964 362.88 297.964 362.432V358.04C297.964 357.587 297.854 357.176 297.636 356.808C297.417 356.44 297.124 356.147 296.756 355.928C296.388 355.709 295.977 355.6 295.524 355.6C295.076 355.6 294.665 355.709 294.292 355.928C293.924 356.147 293.63 356.44 293.412 356.808C293.193 357.176 293.084 357.587 293.084 358.04V362.432C293.084 362.88 293.193 363.291 293.412 363.664C293.63 364.032 293.924 364.325 294.292 364.544C294.665 364.763 295.076 364.872 295.524 364.872ZM305.619 366.24C304.809 366.24 304.126 366.04 303.571 365.64C303.017 365.235 302.595 364.688 302.307 364C302.025 363.307 301.883 362.531 301.883 361.672C301.883 360.803 302.025 360.024 302.307 359.336C302.595 358.648 303.017 358.107 303.571 357.712C304.131 357.317 304.817 357.12 305.627 357.12C306.427 357.12 307.115 357.32 307.691 357.72C308.273 358.115 308.718 358.656 309.027 359.344C309.337 360.032 309.491 360.808 309.491 361.672C309.491 362.536 309.337 363.312 309.027 364C308.718 364.688 308.273 365.235 307.691 365.64C307.115 366.04 306.425 366.24 305.619 366.24ZM301.643 366V354.48H303.075V359.64H302.915V366H301.643ZM305.443 364.936C306.014 364.936 306.486 364.792 306.859 364.504C307.233 364.216 307.513 363.827 307.699 363.336C307.886 362.84 307.979 362.285 307.979 361.672C307.979 361.064 307.886 360.515 307.699 360.024C307.518 359.533 307.235 359.144 306.851 358.856C306.473 358.568 305.99 358.424 305.403 358.424C304.843 358.424 304.379 358.563 304.011 358.84C303.643 359.112 303.369 359.493 303.187 359.984C303.006 360.469 302.915 361.032 302.915 361.672C302.915 362.301 303.003 362.864 303.179 363.36C303.361 363.851 303.638 364.237 304.011 364.52C304.385 364.797 304.862 364.936 305.443 364.936ZM315.213 366.24C314.402 366.24 313.72 366.04 313.165 365.64C312.61 365.235 312.189 364.688 311.901 364C311.618 363.307 311.477 362.531 311.477 361.672C311.477 360.803 311.618 360.024 311.901 359.336C312.189 358.648 312.61 358.107 313.165 357.712C313.725 357.317 314.41 357.12 315.221 357.12C316.021 357.12 316.709 357.32 317.285 357.72C317.866 358.115 318.312 358.656 318.621 359.344C318.93 360.032 319.085 360.808 319.085 361.672C319.085 362.536 318.93 363.312 318.621 364C318.312 364.688 317.866 365.235 317.285 365.64C316.709 366.04 316.018 366.24 315.213 366.24ZM311.237 369.84V357.36H312.509V363.72H312.669V369.84H311.237ZM315.037 364.936C315.608 364.936 316.08 364.792 316.453 364.504C316.826 364.216 317.106 363.827 317.293 363.336C317.48 362.84 317.573 362.285 317.573 361.672C317.573 361.064 317.48 360.515 317.293 360.024C317.112 359.533 316.829 359.144 316.445 358.856C316.066 358.568 315.584 358.424 314.997 358.424C314.437 358.424 313.973 358.563 313.605 358.84C313.237 359.112 312.962 359.493 312.781 359.984C312.6 360.469 312.509 361.032 312.509 361.672C312.509 362.301 312.597 362.864 312.773 363.36C312.954 363.851 313.232 364.237 313.605 364.52C313.978 364.797 314.456 364.936 315.037 364.936Z" fill="#110529"/>
<path d="M502 360H324.5" stroke="#110529" stroke-width="2" stroke-linecap="square"/>
<path d="M512 360L512.707 359.293L513.414 360L512.707 360.707L512 360ZM504.707 368.707L504 369.414L502.586 368L503.293 367.293L504.707 368.707ZM503.293 352.707L502.586 352L504 350.586L504.707 351.293L503.293 352.707ZM502 359L512 359L512 361L502 361L502 359ZM512.707 360.707L504.707 368.707L503.293 367.293L511.293 359.293L512.707 360.707ZM511.293 360.707L503.293 352.707L504.707 351.293L512.707 359.293L511.293 360.707Z" fill="#110529"/>
<path d="M319 208L318.293 207.293L317.586 208L318.293 208.707L319 208ZM326.293 216.707L327 217.414L328.414 216L327.707 215.293L326.293 216.707ZM327.707 200.707L328.414 200L327 198.586L326.293 199.293L327.707 200.707ZM339 207L319 207L319 209L339 209L339 207ZM318.293 208.707L326.293 216.707L327.707 215.293L319.707 207.293L318.293 208.707ZM319.707 208.707L327.707 200.707L326.293 199.293L318.293 207.293L319.707 208.707Z" fill="#110529"/>
<path d="M334 208L584.5 208" stroke="#110529" stroke-width="2" stroke-linecap="square"/>
<rect width="57" height="20" transform="translate(584.5 198)" fill="white"/>
<path d="M592.78 214.224C592.209 214.224 591.679 214.12 591.188 213.912C590.697 213.699 590.273 213.4 589.916 213.016C589.564 212.627 589.305 212.165 589.14 211.632L590.508 211.24C590.684 211.773 590.977 212.179 591.388 212.456C591.799 212.733 592.26 212.869 592.772 212.864C593.241 212.853 593.647 212.747 593.988 212.544C594.335 212.336 594.601 212.053 594.788 211.696C594.98 211.339 595.076 210.925 595.076 210.456C595.076 209.741 594.863 209.163 594.436 208.72C594.009 208.272 593.449 208.048 592.756 208.048C592.564 208.048 592.361 208.075 592.148 208.128C591.94 208.181 591.745 208.256 591.564 208.352L590.876 207.224L595.148 203.36L595.332 203.84H589.596V202.48H596.388V203.848L592.748 207.336L592.732 206.832C593.495 206.779 594.161 206.904 594.732 207.208C595.303 207.512 595.745 207.947 596.06 208.512C596.38 209.077 596.54 209.725 596.54 210.456C596.54 211.192 596.375 211.843 596.044 212.408C595.713 212.973 595.265 213.419 594.7 213.744C594.135 214.064 593.495 214.224 592.78 214.224ZM602.508 214.24C601.761 214.24 601.095 214.072 600.508 213.736C599.927 213.395 599.465 212.933 599.124 212.352C598.788 211.765 598.62 211.099 598.62 210.352V206.128C598.62 205.381 598.788 204.715 599.124 204.128C599.465 203.541 599.927 203.08 600.508 202.744C601.095 202.408 601.761 202.24 602.508 202.24C603.255 202.24 603.921 202.408 604.508 202.744C605.095 203.08 605.556 203.541 605.892 204.128C606.228 204.715 606.396 205.381 606.396 206.128V210.352C606.396 211.099 606.228 211.765 605.892 212.352C605.556 212.933 605.095 213.395 604.508 213.736C603.921 214.072 603.255 214.24 602.508 214.24ZM602.508 212.872C602.961 212.872 603.372 212.763 603.74 212.544C604.108 212.325 604.401 212.032 604.62 211.664C604.839 211.291 604.948 210.88 604.948 210.432V206.04C604.948 205.587 604.839 205.176 604.62 204.808C604.401 204.44 604.108 204.147 603.74 203.928C603.372 203.709 602.961 203.6 602.508 203.6C602.06 203.6 601.649 203.709 601.276 203.928C600.908 204.147 600.615 204.44 600.396 204.808C600.177 205.176 600.068 205.587 600.068 206.04V210.432C600.068 210.88 600.177 211.291 600.396 211.664C600.615 212.032 600.908 212.325 601.276 212.544C601.649 212.763 602.06 212.872 602.508 212.872ZM612.524 214.24C611.777 214.24 611.11 214.072 610.524 213.736C609.942 213.395 609.481 212.933 609.14 212.352C608.804 211.765 608.636 211.099 608.636 210.352V206.128C608.636 205.381 608.804 204.715 609.14 204.128C609.481 203.541 609.942 203.08 610.524 202.744C611.11 202.408 611.777 202.24 612.524 202.24C613.27 202.24 613.937 202.408 614.524 202.744C615.11 203.08 615.572 203.541 615.908 204.128C616.244 204.715 616.412 205.381 616.412 206.128V210.352C616.412 211.099 616.244 211.765 615.908 212.352C615.572 212.933 615.11 213.395 614.524 213.736C613.937 214.072 613.27 214.24 612.524 214.24ZM612.524 212.872C612.977 212.872 613.388 212.763 613.756 212.544C614.124 212.325 614.417 212.032 614.636 211.664C614.854 211.291 614.964 210.88 614.964 210.432V206.04C614.964 205.587 614.854 205.176 614.636 204.808C614.417 204.44 614.124 204.147 613.756 203.928C613.388 203.709 612.977 203.6 612.524 203.6C612.076 203.6 611.665 203.709 611.292 203.928C610.924 204.147 610.63 204.44 610.412 204.808C610.193 205.176 610.084 205.587 610.084 206.04V210.432C610.084 210.88 610.193 211.291 610.412 211.664C610.63 212.032 610.924 212.325 611.292 212.544C611.665 212.763 612.076 212.872 612.524 212.872ZM622.619 214.24C621.809 214.24 621.126 214.04 620.571 213.64C620.017 213.235 619.595 212.688 619.307 212C619.025 211.307 618.883 210.531 618.883 209.672C618.883 208.803 619.025 208.024 619.307 207.336C619.595 206.648 620.017 206.107 620.571 205.712C621.131 205.317 621.817 205.12 622.627 205.12C623.427 205.12 624.115 205.32 624.691 205.72C625.273 206.115 625.718 206.656 626.027 207.344C626.337 208.032 626.491 208.808 626.491 209.672C626.491 210.536 626.337 211.312 626.027 212C625.718 212.688 625.273 213.235 624.691 213.64C624.115 214.04 623.425 214.24 622.619 214.24ZM618.643 214V202.48H620.075V207.64H619.915V214H618.643ZM622.443 212.936C623.014 212.936 623.486 212.792 623.859 212.504C624.233 212.216 624.513 211.827 624.699 211.336C624.886 210.84 624.979 210.285 624.979 209.672C624.979 209.064 624.886 208.515 624.699 208.024C624.518 207.533 624.235 207.144 623.851 206.856C623.473 206.568 622.99 206.424 622.403 206.424C621.843 206.424 621.379 206.563 621.011 206.84C620.643 207.112 620.369 207.493 620.187 207.984C620.006 208.469 619.915 209.032 619.915 209.672C619.915 210.301 620.003 210.864 620.179 211.36C620.361 211.851 620.638 212.237 621.011 212.52C621.385 212.797 621.862 212.936 622.443 212.936ZM632.213 214.24C631.402 214.24 630.72 214.04 630.165 213.64C629.61 213.235 629.189 212.688 628.901 212C628.618 211.307 628.477 210.531 628.477 209.672C628.477 208.803 628.618 208.024 628.901 207.336C629.189 206.648 629.61 206.107 630.165 205.712C630.725 205.317 631.41 205.12 632.221 205.12C633.021 205.12 633.709 205.32 634.285 205.72C634.866 206.115 635.312 206.656 635.621 207.344C635.93 208.032 636.085 208.808 636.085 209.672C636.085 210.536 635.93 211.312 635.621 212C635.312 212.688 634.866 213.235 634.285 213.64C633.709 214.04 633.018 214.24 632.213 214.24ZM628.237 217.84V205.36H629.509V211.72H629.669V217.84H628.237ZM632.037 212.936C632.608 212.936 633.08 212.792 633.453 212.504C633.826 212.216 634.106 211.827 634.293 211.336C634.48 210.84 634.573 210.285 634.573 209.672C634.573 209.064 634.48 208.515 634.293 208.024C634.112 207.533 633.829 207.144 633.445 206.856C633.066 206.568 632.584 206.424 631.997 206.424C631.437 206.424 630.973 206.563 630.605 206.84C630.237 207.112 629.962 207.493 629.781 207.984C629.6 208.469 629.509 209.032 629.509 209.672C629.509 210.301 629.597 210.864 629.773 211.36C629.954 211.851 630.232 212.237 630.605 212.52C630.978 212.797 631.456 212.936 632.037 212.936Z" fill="#110529"/>
<path d="M641.5 208L892 208" stroke="#110529" stroke-width="2" stroke-linecap="square"/>
<path d="M919 200V216H909V224L895 208L909 192V200H919Z" fill="#110529"/>
<path d="M928.4 216H930.18V210.68H934.39L936.97 216H939.01L936.23 210.29C937.86 209.61 938.71 208.04 938.71 206.14C938.71 203.85 937.48 202.04 935.15 201.68C934.78 201.62 934.37 201.6 934.09 201.6H928.4V216ZM930.18 208.99V203.29H934.03C934.28 203.29 934.63 203.31 934.93 203.38C936.31 203.69 936.89 204.94 936.89 206.14C936.89 207.34 936.31 208.59 934.93 208.9C934.63 208.97 934.28 208.99 934.03 208.99H930.18ZM943.723 216H945.533V201.6H943.723L941.013 203.22V205.21L943.723 203.57V216Z" fill="#110529"/>
<path d="M319 384L318.293 383.293L317.586 384L318.293 384.707L319 384ZM326.293 392.707L327 393.414L328.414 392L327.707 391.293L326.293 392.707ZM327.707 376.707L328.414 376L327 374.586L326.293 375.293L327.707 376.707ZM339 383L319 383L319 385L339 385L339 383ZM318.293 384.707L326.293 392.707L327.707 391.293L319.707 383.293L318.293 384.707ZM319.707 384.707L327.707 376.707L326.293 375.293L318.293 383.293L319.707 384.707Z" fill="#110529"/>
<path d="M334 384H551.5" stroke="#110529" stroke-width="2" stroke-linecap="square"/>
<rect width="57" height="20" transform="translate(551.5 374)" fill="white"/>
<path d="M559.78 390.224C559.209 390.224 558.679 390.12 558.188 389.912C557.697 389.699 557.273 389.4 556.916 389.016C556.564 388.627 556.305 388.165 556.14 387.632L557.508 387.24C557.684 387.773 557.977 388.179 558.388 388.456C558.799 388.733 559.26 388.869 559.772 388.864C560.241 388.853 560.647 388.747 560.988 388.544C561.335 388.336 561.601 388.053 561.788 387.696C561.98 387.339 562.076 386.925 562.076 386.456C562.076 385.741 561.863 385.163 561.436 384.72C561.009 384.272 560.449 384.048 559.756 384.048C559.564 384.048 559.361 384.075 559.148 384.128C558.94 384.181 558.745 384.256 558.564 384.352L557.876 383.224L562.148 379.36L562.332 379.84H556.596V378.48H563.388V379.848L559.748 383.336L559.732 382.832C560.495 382.779 561.161 382.904 561.732 383.208C562.303 383.512 562.745 383.947 563.06 384.512C563.38 385.077 563.54 385.725 563.54 386.456C563.54 387.192 563.375 387.843 563.044 388.408C562.713 388.973 562.265 389.419 561.7 389.744C561.135 390.064 560.495 390.224 559.78 390.224ZM569.508 390.24C568.761 390.24 568.095 390.072 567.508 389.736C566.927 389.395 566.465 388.933 566.124 388.352C565.788 387.765 565.62 387.099 565.62 386.352V382.128C565.62 381.381 565.788 380.715 566.124 380.128C566.465 379.541 566.927 379.08 567.508 378.744C568.095 378.408 568.761 378.24 569.508 378.24C570.255 378.24 570.921 378.408 571.508 378.744C572.095 379.08 572.556 379.541 572.892 380.128C573.228 380.715 573.396 381.381 573.396 382.128V386.352C573.396 387.099 573.228 387.765 572.892 388.352C572.556 388.933 572.095 389.395 571.508 389.736C570.921 390.072 570.255 390.24 569.508 390.24ZM569.508 388.872C569.961 388.872 570.372 388.763 570.74 388.544C571.108 388.325 571.401 388.032 571.62 387.664C571.839 387.291 571.948 386.88 571.948 386.432V382.04C571.948 381.587 571.839 381.176 571.62 380.808C571.401 380.44 571.108 380.147 570.74 379.928C570.372 379.709 569.961 379.6 569.508 379.6C569.06 379.6 568.649 379.709 568.276 379.928C567.908 380.147 567.615 380.44 567.396 380.808C567.177 381.176 567.068 381.587 567.068 382.04V386.432C567.068 386.88 567.177 387.291 567.396 387.664C567.615 388.032 567.908 388.325 568.276 388.544C568.649 388.763 569.06 388.872 569.508 388.872ZM579.524 390.24C578.777 390.24 578.11 390.072 577.524 389.736C576.942 389.395 576.481 388.933 576.14 388.352C575.804 387.765 575.636 387.099 575.636 386.352V382.128C575.636 381.381 575.804 380.715 576.14 380.128C576.481 379.541 576.942 379.08 577.524 378.744C578.11 378.408 578.777 378.24 579.524 378.24C580.27 378.24 580.937 378.408 581.524 378.744C582.11 379.08 582.572 379.541 582.908 380.128C583.244 380.715 583.412 381.381 583.412 382.128V386.352C583.412 387.099 583.244 387.765 582.908 388.352C582.572 388.933 582.11 389.395 581.524 389.736C580.937 390.072 580.27 390.24 579.524 390.24ZM579.524 388.872C579.977 388.872 580.388 388.763 580.756 388.544C581.124 388.325 581.417 388.032 581.636 387.664C581.854 387.291 581.964 386.88 581.964 386.432V382.04C581.964 381.587 581.854 381.176 581.636 380.808C581.417 380.44 581.124 380.147 580.756 379.928C580.388 379.709 579.977 379.6 579.524 379.6C579.076 379.6 578.665 379.709 578.292 379.928C577.924 380.147 577.63 380.44 577.412 380.808C577.193 381.176 577.084 381.587 577.084 382.04V386.432C577.084 386.88 577.193 387.291 577.412 387.664C577.63 388.032 577.924 388.325 578.292 388.544C578.665 388.763 579.076 388.872 579.524 388.872ZM589.619 390.24C588.809 390.24 588.126 390.04 587.571 389.64C587.017 389.235 586.595 388.688 586.307 388C586.025 387.307 585.883 386.531 585.883 385.672C585.883 384.803 586.025 384.024 586.307 383.336C586.595 382.648 587.017 382.107 587.571 381.712C588.131 381.317 588.817 381.12 589.627 381.12C590.427 381.12 591.115 381.32 591.691 381.72C592.273 382.115 592.718 382.656 593.027 383.344C593.337 384.032 593.491 384.808 593.491 385.672C593.491 386.536 593.337 387.312 593.027 388C592.718 388.688 592.273 389.235 591.691 389.64C591.115 390.04 590.425 390.24 589.619 390.24ZM585.643 390V378.48H587.075V383.64H586.915V390H585.643ZM589.443 388.936C590.014 388.936 590.486 388.792 590.859 388.504C591.233 388.216 591.513 387.827 591.699 387.336C591.886 386.84 591.979 386.285 591.979 385.672C591.979 385.064 591.886 384.515 591.699 384.024C591.518 383.533 591.235 383.144 590.851 382.856C590.473 382.568 589.99 382.424 589.403 382.424C588.843 382.424 588.379 382.563 588.011 382.84C587.643 383.112 587.369 383.493 587.187 383.984C587.006 384.469 586.915 385.032 586.915 385.672C586.915 386.301 587.003 386.864 587.179 387.36C587.361 387.851 587.638 388.237 588.011 388.52C588.385 388.797 588.862 388.936 589.443 388.936ZM599.213 390.24C598.402 390.24 597.72 390.04 597.165 389.64C596.61 389.235 596.189 388.688 595.901 388C595.618 387.307 595.477 386.531 595.477 385.672C595.477 384.803 595.618 384.024 595.901 383.336C596.189 382.648 596.61 382.107 597.165 381.712C597.725 381.317 598.41 381.12 599.221 381.12C600.021 381.12 600.709 381.32 601.285 381.72C601.866 382.115 602.312 382.656 602.621 383.344C602.93 384.032 603.085 384.808 603.085 385.672C603.085 386.536 602.93 387.312 602.621 388C602.312 388.688 601.866 389.235 601.285 389.64C600.709 390.04 600.018 390.24 599.213 390.24ZM595.237 393.84V381.36H596.509V387.72H596.669V393.84H595.237ZM599.037 388.936C599.608 388.936 600.08 388.792 600.453 388.504C600.826 388.216 601.106 387.827 601.293 387.336C601.48 386.84 601.573 386.285 601.573 385.672C601.573 385.064 601.48 384.515 601.293 384.024C601.112 383.533 600.829 383.144 600.445 382.856C600.066 382.568 599.584 382.424 598.997 382.424C598.437 382.424 597.973 382.563 597.605 382.84C597.237 383.112 596.962 383.493 596.781 383.984C596.6 384.469 596.509 385.032 596.509 385.672C596.509 386.301 596.597 386.864 596.773 387.36C596.954 387.851 597.232 388.237 597.605 388.52C597.978 388.797 598.456 388.936 599.037 388.936Z" fill="#110529"/>
<path d="M608.5 384H826" stroke="#110529" stroke-width="2" stroke-linecap="square"/>
<path d="M853 376V392H843V400L829 384L843 368V376H853Z" fill="#110529"/>
<path d="M862.4 392H864.18V386.68H868.39L870.97 392H873.01L870.23 386.29C871.86 385.61 872.71 384.04 872.71 382.14C872.71 379.85 871.48 378.04 869.15 377.68C868.78 377.62 868.37 377.6 868.09 377.6H862.4V392ZM864.18 384.99V379.29H868.03C868.28 379.29 868.63 379.31 868.93 379.38C870.31 379.69 870.89 380.94 870.89 382.14C870.89 383.34 870.31 384.59 868.93 384.9C868.63 384.97 868.28 384.99 868.03 384.99H864.18ZM877.723 392H879.533V377.6H877.723L875.013 379.22V381.21L877.723 379.57V392Z" fill="#110529"/>
<g filter="url(#filter0_i_5580_35129)">
<rect x="64" y="104" width="72" height="52" rx="1" fill="#D6E0FF"/>
<path d="M88.5527 138.3C91.8927 138.3 94.2327 136.1 94.2327 132.75V123.6H92.4327V132.6C92.4327 135.31 90.3927 136.62 88.5527 136.62C86.7327 136.62 84.6727 135.33 84.6727 132.6V123.6L82.8727 123.61V132.75C82.8727 136.11 85.2127 138.3 88.5527 138.3ZM97.0328 138H98.7228V127.51L103.613 138H104.563L109.453 127.51V137.99H111.143V123.6H109.503L104.093 135.07L98.6528 123.6H97.0328V138ZM114.147 138H115.927V123.6H114.147V138Z" fill="#110529"/>
<rect x="64" y="104" width="72" height="52" rx="1" stroke="#110529" stroke-width="2" stroke-linecap="round"/>
</g>
<g filter="url(#filter1_i_5580_35129)">
<rect x="136" y="104" width="24" height="52" rx="1" fill="#D3D7E0"/>
<rect x="136" y="104" width="24" height="52" rx="1" stroke="#110529" stroke-width="2" stroke-linecap="round"/>
</g>
<g filter="url(#filter2_i_5580_35129)">
<rect x="160" y="104" width="28" height="52" rx="1" fill="#FFADBA"/>
<path d="M174.091 138.3C178.301 138.3 180.541 135.39 180.541 131.44C180.541 131.32 180.531 130.87 180.501 130.59H175.561V132.06H178.621C178.401 134.93 176.961 136.62 174.181 136.6C170.961 136.58 169.331 134.25 169.351 130.8C169.371 127.35 170.961 124.99 174.181 125.01C176.231 125.02 177.621 126.14 178.231 127.88L180.031 127.51C179.281 124.92 177.311 123.31 174.091 123.31C170.061 123.31 167.461 126.21 167.461 130.8C167.461 135.44 170.121 138.3 174.091 138.3Z" fill="#110529"/>
<rect x="160" y="104" width="28" height="52" rx="1" stroke="#110529" stroke-width="2" stroke-linecap="round"/>
</g>
<g filter="url(#filter3_i_5580_35129)">
<rect x="188" y="104" width="364" height="52" rx="1" fill="#99E099"/>
<path d="M368.758 138H371.238L376.058 123.6H374.208L369.978 136.11L365.788 123.6H363.938L368.758 138Z" fill="#110529"/>
<rect x="188" y="104" width="364" height="52" rx="1" stroke="#110529" stroke-width="2" stroke-linecap="round"/>
</g>
<g filter="url(#filter4_i_5580_35129)">
<rect x="552" y="104" width="30" height="52" rx="1" fill="#CBEB67"/>
</g>
<rect x="552" y="104" width="30" height="52" rx="1" stroke="#110529" stroke-width="2" stroke-linecap="round"/>
<g filter="url(#filter5_i_5580_35129)">
<rect x="618" y="104" width="30" height="52" rx="1" fill="#FAAAFA"/>
</g>
<rect x="618" y="104" width="30" height="52" rx="1" stroke="#110529" stroke-width="2" stroke-linecap="round"/>
<g filter="url(#filter6_i_5580_35129)">
<rect x="582" y="104" width="36" height="52" rx="1" fill="#FFCB8F"/>
</g>
<rect x="582" y="104" width="36" height="52" rx="1" stroke="#110529" stroke-width="2" stroke-linecap="round"/>
<path d="M561.447 138V123.6H563.247L570.757 134.85V123.6H572.557V138H570.757L563.247 126.74V138H561.447Z" fill="#110529"/>
<path d="M627.447 138V123.6H629.247L636.757 134.85V123.6H638.557V138H636.757L629.247 126.74V138H627.447Z" fill="#110529"/>
<path d="M594.593 138V123.6H599.033C599.18 123.6 599.437 123.603 599.803 123.61C600.17 123.617 600.52 123.643 600.853 123.69C601.967 123.837 602.897 124.243 603.643 124.91C604.397 125.57 604.963 126.41 605.343 127.43C605.723 128.45 605.913 129.573 605.913 130.8C605.913 132.027 605.723 133.15 605.343 134.17C604.963 135.19 604.397 136.033 603.643 136.7C602.897 137.36 601.967 137.763 600.853 137.91C600.52 137.95 600.167 137.977 599.793 137.99C599.427 137.997 599.173 138 599.033 138H594.593ZM596.423 136.3H599.033C599.287 136.3 599.57 136.293 599.883 136.28C600.197 136.26 600.47 136.23 600.703 136.19C601.49 136.043 602.127 135.713 602.613 135.2C603.1 134.687 603.457 134.047 603.683 133.28C603.91 132.513 604.023 131.687 604.023 130.8C604.023 129.893 603.907 129.057 603.673 128.29C603.447 127.523 603.09 126.887 602.603 126.38C602.117 125.873 601.483 125.55 600.703 125.41C600.47 125.363 600.193 125.333 599.873 125.32C599.553 125.307 599.273 125.3 599.033 125.3H596.423V136.3Z" fill="#110529"/>
<g filter="url(#filter7_i_5580_35129)">
<rect x="648" y="104" width="96" height="52" rx="1" fill="#C1ADFF"/>
<path d="M695.244 138.29C696.694 138.29 697.954 137.7 698.684 136.43C699.214 135.51 699.154 134.72 699.154 133.48V123.6H697.354V133.48C697.354 134.37 697.354 134.99 697.094 135.51C696.704 136.29 695.884 136.6 695.204 136.6C694.134 136.6 693.224 135.83 693.014 134.85L691.244 135.27C691.754 137.11 693.224 138.29 695.244 138.29Z" fill="#110529"/>
<rect x="648" y="104" width="96" height="52" rx="1" stroke="#110529" stroke-width="2" stroke-linecap="round"/>
</g>
<g filter="url(#filter8_i_5580_35129)">
<rect x="744" y="104" width="144" height="52" rx="1" fill="#FAFAAA"/>
<path d="M816.093 138.3C819.423 138.3 821.613 136.47 822.433 133.61L820.623 133.13C820.033 135.27 818.523 136.6 816.093 136.6C812.873 136.6 811.233 134.25 811.253 130.8C811.273 127.35 812.873 125 816.093 125C818.523 125 820.033 126.33 820.623 128.47L822.433 127.99C821.613 125.13 819.423 123.3 816.093 123.3C811.783 123.3 809.373 126.36 809.373 130.8C809.373 135.24 811.783 138.3 816.093 138.3Z" fill="#110529"/>
<rect x="744" y="104" width="144" height="52" rx="1" stroke="#110529" stroke-width="2" stroke-linecap="round"/>
</g>
<g filter="url(#filter9_i_5580_35129)">
<rect x="888" y="104" width="30" height="52" rx="1" fill="#90E0E0"/>
<path d="M897.447 138H899.247V126.74L906.757 138H908.557V123.6H906.757V134.85L899.247 123.6H897.447V138Z" fill="#110529"/>
<rect x="888" y="104" width="30" height="52" rx="1" stroke="#110529" stroke-width="2" stroke-linecap="round"/>
</g>
<g filter="url(#filter10_i_5580_35129)">
<rect x="64" y="280" width="72" height="52" rx="1" fill="#D6E0FF"/>
<path d="M88.5527 314.3C91.8927 314.3 94.2327 312.1 94.2327 308.75V299.6H92.4327V308.6C92.4327 311.31 90.3927 312.62 88.5527 312.62C86.7327 312.62 84.6727 311.33 84.6727 308.6V299.6L82.8727 299.61V308.75C82.8727 312.11 85.2127 314.3 88.5527 314.3ZM97.0328 314H98.7228V303.51L103.613 314H104.563L109.453 303.51V313.99H111.143V299.6H109.503L104.093 311.07L98.6528 299.6H97.0328V314ZM114.147 314H115.927V299.6H114.147V314Z" fill="#110529"/>
<rect x="64" y="280" width="72" height="52" rx="1" stroke="#110529" stroke-width="2" stroke-linecap="round"/>
</g>
<g filter="url(#filter11_i_5580_35129)">
<rect x="136" y="280" width="24" height="52" rx="1" fill="#D3D7E0"/>
<rect x="136" y="280" width="24" height="52" rx="1" stroke="#110529" stroke-width="2" stroke-linecap="round"/>
</g>
<g filter="url(#filter12_i_5580_35129)">
<rect x="160" y="280" width="28" height="52" rx="1" fill="#FFADBA"/>
<path d="M174.091 314.3C178.301 314.3 180.541 311.39 180.541 307.44C180.541 307.32 180.531 306.87 180.501 306.59H175.561V308.06H178.621C178.401 310.93 176.961 312.62 174.181 312.6C170.961 312.58 169.331 310.25 169.351 306.8C169.371 303.35 170.961 300.99 174.181 301.01C176.231 301.02 177.621 302.14 178.231 303.88L180.031 303.51C179.281 300.92 177.311 299.31 174.091 299.31C170.061 299.31 167.461 302.21 167.461 306.8C167.461 311.44 170.121 314.3 174.091 314.3Z" fill="#110529"/>
<rect x="160" y="280" width="28" height="52" rx="1" stroke="#110529" stroke-width="2" stroke-linecap="round"/>
</g>
<g filter="url(#filter13_i_5580_35129)">
<rect x="188" y="280" width="364" height="52" rx="1" fill="#99E099"/>
<path d="M368.758 314H371.238L376.058 299.6H374.208L369.978 312.11L365.788 299.6H363.938L368.758 314Z" fill="#110529"/>
<rect x="188" y="280" width="364" height="52" rx="1" stroke="#110529" stroke-width="2" stroke-linecap="round"/>
</g>
<g filter="url(#filter14_i_5580_35129)">
<rect x="552" y="280" width="30" height="52" rx="1" fill="#CBEB67"/>
</g>
<rect x="552" y="280" width="30" height="52" rx="1" stroke="#110529" stroke-width="2" stroke-linecap="round"/>
<path d="M561.447 314H563.247V302.74L570.757 314H572.557V299.6H570.757V310.85L563.247 299.6H561.447V314Z" fill="#110529"/>
<g filter="url(#filter15_i_5580_35129)">
<rect x="582" y="280" width="96" height="52" rx="1" fill="#C1ADFF"/>
<path d="M629.244 314.29C630.694 314.29 631.954 313.7 632.684 312.43C633.214 311.51 633.154 310.72 633.154 309.48V299.6H631.354V309.48C631.354 310.37 631.354 310.99 631.094 311.51C630.704 312.29 629.884 312.6 629.204 312.6C628.134 312.6 627.224 311.83 627.014 310.85L625.244 311.27C625.754 313.11 627.224 314.29 629.244 314.29Z" fill="#110529"/>
<rect x="582" y="280" width="96" height="52" rx="1" stroke="#110529" stroke-width="2" stroke-linecap="round"/>
</g>
<g filter="url(#filter16_i_5580_35129)">
<rect x="678" y="280" width="144" height="52" rx="1" fill="#FAFAAA"/>
<path d="M750.093 314.3C753.423 314.3 755.613 312.47 756.433 309.61L754.623 309.13C754.033 311.27 752.523 312.6 750.093 312.6C746.873 312.6 745.233 310.25 745.253 306.8C745.273 303.35 746.873 301 750.093 301C752.523 301 754.033 302.33 754.623 304.47L756.433 303.99C755.613 301.13 753.423 299.3 750.093 299.3C745.783 299.3 743.373 302.36 743.373 306.8C743.373 311.24 745.783 314.3 750.093 314.3Z" fill="#110529"/>
<rect x="678" y="280" width="144" height="52" rx="1" stroke="#110529" stroke-width="2" stroke-linecap="round"/>
</g>
<g filter="url(#filter17_i_5580_35129)">
<rect x="822" y="280" width="30" height="52" rx="1" fill="#90E0E0"/>
<path d="M831.447 314H833.247V302.74L840.757 314H842.557V299.6H840.757V310.85L833.247 299.6H831.447V314Z" fill="#110529"/>
<rect x="822" y="280" width="30" height="52" rx="1" stroke="#110529" stroke-width="2" stroke-linecap="round"/>
</g>
<path d="M13.6 138V123.6H15.38V138H13.6ZM24.2105 138.3C23.2238 138.3 22.3238 138.127 21.5105 137.78C20.6971 137.433 19.9971 136.937 19.4105 136.29C18.8238 135.637 18.3705 134.85 18.0505 133.93C17.7371 133.003 17.5805 131.96 17.5805 130.8C17.5805 129.267 17.8538 127.94 18.4005 126.82C18.9471 125.7 19.7171 124.837 20.7105 124.23C21.7038 123.617 22.8705 123.31 24.2105 123.31C25.8238 123.31 27.1238 123.687 28.1105 124.44C29.0971 125.187 29.7771 126.21 30.1505 127.51L28.3505 127.88C28.0505 127.007 27.5571 126.31 26.8705 125.79C26.1838 125.27 25.3271 125.01 24.3005 125.01C23.2271 125.003 22.3338 125.243 21.6205 125.73C20.9138 126.21 20.3805 126.887 20.0205 127.76C19.6605 128.633 19.4771 129.647 19.4705 130.8C19.4638 131.947 19.6405 132.953 20.0005 133.82C20.3605 134.687 20.8971 135.367 21.6105 135.86C22.3305 136.347 23.2271 136.593 24.3005 136.6C25.2271 136.607 26.0071 136.43 26.6405 136.07C27.2738 135.71 27.7638 135.19 28.1105 134.51C28.4571 133.83 28.6671 133.013 28.7405 132.06H25.6805V130.59H30.6205C30.6405 130.723 30.6505 130.883 30.6505 131.07C30.6571 131.25 30.6605 131.373 30.6605 131.44C30.6605 132.753 30.4138 133.93 29.9205 134.97C29.4338 136.003 28.7105 136.817 27.7505 137.41C26.7971 138.003 25.6171 138.3 24.2105 138.3ZM32.6578 138V123.6H34.4378V129.95H42.0178V123.6H43.7978V138H42.0178V131.64H34.4378V138H32.6578Z" fill="#110529"/>
<path d="M13.6 304H15.38V289.6H13.6V304ZM24.2105 304.3C28.4205 304.3 30.6605 301.39 30.6605 297.44C30.6605 297.32 30.6505 296.87 30.6205 296.59H25.6805V298.06H28.7405C28.5205 300.93 27.0805 302.62 24.3005 302.6C21.0805 302.58 19.4505 300.25 19.4705 296.8C19.4905 293.35 21.0805 290.99 24.3005 291.01C26.3505 291.02 27.7405 292.14 28.3505 293.88L30.1505 293.51C29.4005 290.92 27.4305 289.31 24.2105 289.31C20.1805 289.31 17.5805 292.21 17.5805 296.8C17.5805 301.44 20.2405 304.3 24.2105 304.3ZM32.6578 304H34.4378V296.96L41.1878 304H43.4878L36.4378 296.59L42.9778 289.6H40.7378L34.4378 296.36V289.6H32.6578V304ZM52.1377 289.6L48.2977 304H50.1077L53.9477 289.6H52.1377ZM13.6 324H15.38V309.6H13.6V324ZM24.2105 324.3C28.4205 324.3 30.6605 321.39 30.6605 317.44C30.6605 317.32 30.6505 316.87 30.6205 316.59H25.6805V318.06H28.7405C28.5205 320.93 27.0805 322.62 24.3005 322.6C21.0805 322.58 19.4505 320.25 19.4705 316.8C19.4905 313.35 21.0805 310.99 24.3005 311.01C26.3505 311.02 27.7405 312.14 28.3505 313.88L30.1505 313.51C29.4005 310.92 27.4305 309.31 24.2105 309.31C20.1805 309.31 17.5805 312.21 17.5805 316.8C17.5805 321.44 20.2405 324.3 24.2105 324.3ZM32.8578 324H41.3178V322.31H34.6378V309.6H32.8578V324Z" fill="#110529"/>
<rect x="775" y="42" width="136" height="21" fill="white"/>
<path d="M811.022 37H812.446V25.48H811.022V37ZM818.343 41.08C820.407 41.08 821.767 40.224 822.103 38.384C822.183 37.96 822.207 37.536 822.207 37.056V28.36H820.943V29.328C820.311 28.568 819.407 28.12 818.231 28.12C815.831 28.12 814.367 30.08 814.367 32.672C814.367 35.264 815.823 37.24 818.239 37.24C819.303 37.24 820.159 36.856 820.775 36.208V37.04C820.791 38.8 819.999 39.704 818.351 39.704C817.511 39.704 816.655 39.344 816.231 38.496L814.927 39.184C815.647 40.472 816.983 41.08 818.343 41.08ZM815.879 32.672C815.879 30.848 816.695 29.424 818.455 29.424C820.143 29.424 820.943 30.76 820.943 32.672C820.943 34.568 820.159 35.936 818.415 35.936C816.711 35.936 815.879 34.512 815.879 32.672ZM829.104 37.24C832.472 37.24 834.264 34.912 834.264 31.752C834.264 31.656 834.256 31.296 834.232 31.072H830.28V32.248H832.728C832.552 34.544 831.4 35.896 829.176 35.88C826.6 35.864 825.296 34 825.312 31.24C825.328 28.48 826.6 26.592 829.176 26.608C830.816 26.616 831.928 27.512 832.416 28.904L833.856 28.608C833.256 26.536 831.68 25.248 829.104 25.248C825.88 25.248 823.8 27.568 823.8 31.24C823.8 34.952 825.928 37.24 829.104 37.24ZM839.225 37H840.649V25.48H839.225V37ZM846.546 41.08C848.61 41.08 849.97 40.224 850.306 38.384C850.386 37.96 850.41 37.536 850.41 37.056V28.36H849.146V29.328C848.514 28.568 847.61 28.12 846.434 28.12C844.034 28.12 842.57 30.08 842.57 32.672C842.57 35.264 844.026 37.24 846.442 37.24C847.506 37.24 848.362 36.856 848.978 36.208V37.04C848.994 38.8 848.202 39.704 846.554 39.704C845.714 39.704 844.858 39.344 844.434 38.496L843.13 39.184C843.85 40.472 845.186 41.08 846.546 41.08ZM844.082 32.672C844.082 30.848 844.898 29.424 846.658 29.424C848.346 29.424 849.146 30.76 849.146 32.672C849.146 34.568 848.362 35.936 846.618 35.936C844.914 35.936 844.082 34.512 844.082 32.672ZM852.643 37H853.995V28.608L857.907 37H858.667L862.579 28.608V36.992H863.931V25.48H862.619L858.291 34.656L853.939 25.48H852.643V37ZM785.684 57.24C788.348 57.24 790.1 55.776 790.756 53.488L789.308 53.104C788.836 54.816 787.628 55.88 785.684 55.88C783.108 55.88 781.796 54 781.812 51.24C781.828 48.48 783.108 46.6 785.684 46.6C787.628 46.6 788.836 47.664 789.308 49.376L790.756 48.992C790.1 46.704 788.348 45.24 785.684 45.24C782.236 45.24 780.308 47.688 780.308 51.24C780.308 54.792 782.236 57.24 785.684 57.24ZM792.351 52.544H797.151V51.368H792.351V52.544ZM799.229 57H800.661V52.664C800.661 51.64 800.869 50.624 801.709 50.024C802.309 49.584 803.085 49.544 803.685 49.696V48.36C802.917 48.192 801.901 48.352 801.237 48.888C800.949 49.096 800.693 49.392 800.501 49.728V48.36H799.229V57ZM808.786 57.24C810.458 57.24 811.89 56.368 812.57 54.84L811.202 54.368C810.722 55.352 809.858 55.888 808.722 55.888C807.13 55.888 806.202 54.872 806.09 53.08H812.714C812.842 50.008 811.322 48.12 808.722 48.12C806.21 48.12 804.562 49.904 804.562 52.736C804.562 55.44 806.234 57.24 808.786 57.24ZM806.114 51.936C806.314 50.296 807.218 49.4 808.77 49.4C810.234 49.4 811.058 50.24 811.234 51.936H806.114ZM817.991 61.08C820.055 61.08 821.415 60.224 821.751 58.384C821.831 57.96 821.855 57.536 821.855 57.056V48.36H820.591V49.328C819.959 48.568 819.055 48.12 817.879 48.12C815.479 48.12 814.015 50.08 814.015 52.672C814.015 55.264 815.471 57.24 817.887 57.24C818.951 57.24 819.807 56.856 820.423 56.208V57.04C820.439 58.8 819.647 59.704 817.999 59.704C817.159 59.704 816.303 59.344 815.879 58.496L814.575 59.184C815.295 60.472 816.631 61.08 817.991 61.08ZM815.527 52.672C815.527 50.848 816.343 49.424 818.103 49.424C819.791 49.424 820.591 50.76 820.591 52.672C820.591 54.568 819.807 55.936 818.063 55.936C816.359 55.936 815.527 54.512 815.527 52.672ZM824.249 46.832H825.673V45.36H824.249V46.832ZM824.249 57H825.673V48.36H824.249V57ZM831.753 57.24C834.321 57.24 835.921 55.384 835.921 52.672C835.921 50 834.345 48.12 831.753 48.12C829.217 48.12 827.593 49.96 827.593 52.672C827.593 55.352 829.169 57.24 831.753 57.24ZM829.105 52.672C829.105 50.784 829.945 49.472 831.753 49.472C833.521 49.472 834.409 50.728 834.409 52.672C834.409 54.576 833.537 55.888 831.753 55.888C830.009 55.888 829.105 54.624 829.105 52.672ZM843.835 52.672V57H845.275V52.224C845.275 50.584 844.619 48.136 841.835 48.136C840.587 48.136 839.595 48.616 838.955 49.472V48.36H837.675V57H839.115V52.448C839.115 50.448 840.059 49.488 841.491 49.488C843.315 49.488 843.835 51.048 843.835 52.672ZM854.526 57.24C856.942 57.24 858.398 55.264 858.398 52.672C858.398 50.08 856.934 48.12 854.534 48.12C853.358 48.12 852.454 48.568 851.822 49.328V48.36H850.55V60.84H851.982V56.2C852.598 56.856 853.454 57.24 854.526 57.24ZM851.822 52.672C851.822 50.76 852.622 49.424 854.31 49.424C856.07 49.424 856.886 50.848 856.886 52.672C856.886 54.512 856.054 55.936 854.35 55.936C852.606 55.936 851.822 54.568 851.822 52.672ZM860.151 57H861.583V52.664C861.583 51.64 861.791 50.624 862.631 50.024C863.231 49.584 864.007 49.544 864.607 49.696V48.36C863.839 48.192 862.823 48.352 862.159 48.888C861.871 49.096 861.615 49.392 861.423 49.728V48.36H860.151V57ZM866.28 46.832H867.704V45.36H866.28V46.832ZM866.28 57H867.704V48.36H866.28V57ZM880.44 51.472L880.432 57H881.856L881.864 51.16C881.864 49.32 880.76 48.136 878.96 48.136C877.824 48.136 876.856 48.672 876.344 49.56C875.88 48.656 874.992 48.136 873.824 48.136C872.792 48.136 871.912 48.576 871.368 49.28V48.36H870.096V57H871.528V51.512C871.528 50.248 872.28 49.408 873.408 49.408C874.536 49.408 875.28 50.216 875.28 51.528L875.272 57H876.688L876.696 51.512C876.696 50.056 877.616 49.408 878.584 49.408C879.672 49.408 880.44 50.184 880.44 51.472ZM887.614 57.24C889.286 57.24 890.718 56.368 891.398 54.84L890.03 54.368C889.55 55.352 888.686 55.888 887.55 55.888C885.958 55.888 885.03 54.872 884.918 53.08H891.542C891.67 50.008 890.15 48.12 887.55 48.12C885.038 48.12 883.39 49.904 883.39 52.736C883.39 55.44 885.062 57.24 887.614 57.24ZM884.942 51.936C885.142 50.296 886.046 49.4 887.598 49.4C889.062 49.4 889.886 50.24 890.062 51.936H884.942ZM893.323 57H894.755V52.664C894.755 51.64 894.963 50.624 895.803 50.024C896.403 49.584 897.179 49.544 897.779 49.696V48.36C897.011 48.192 895.995 48.352 895.331 48.888C895.043 49.096 894.787 49.392 894.595 49.728V48.36H893.323V57Z" fill="#110529"/>
<defs>
<filter id="filter0_i_5580_35129" x="63" y="103" width="74" height="54" filterUnits="userSpaceOnUse" color-interpolation-filters="sRGB">
<feFlood flood-opacity="0" result="BackgroundImageFix"/>
<feBlend mode="normal" in="SourceGraphic" in2="BackgroundImageFix" result="shape"/>
<feColorMatrix in="SourceAlpha" type="matrix" values="0 0 0 0 0 0 0 0 0 0 0 0 0 0 0 0 0 0 127 0" result="hardAlpha"/>
<feOffset dx="-8" dy="-4"/>
<feComposite in2="hardAlpha" operator="arithmetic" k2="-1" k3="1"/>
<feColorMatrix type="matrix" values="0 0 0 0 0.0666667 0 0 0 0 0.0196078 0 0 0 0 0.160784 0 0 0 0.16 0"/>
<feBlend mode="normal" in2="shape" result="effect1_innerShadow_5580_35129"/>
</filter>
<filter id="filter1_i_5580_35129" x="135" y="103" width="26" height="54" filterUnits="userSpaceOnUse" color-interpolation-filters="sRGB">
<feFlood flood-opacity="0" result="BackgroundImageFix"/>
<feBlend mode="normal" in="SourceGraphic" in2="BackgroundImageFix" result="shape"/>
<feColorMatrix in="SourceAlpha" type="matrix" values="0 0 0 0 0 0 0 0 0 0 0 0 0 0 0 0 0 0 127 0" result="hardAlpha"/>
<feOffset dx="-8" dy="-4"/>
<feComposite in2="hardAlpha" operator="arithmetic" k2="-1" k3="1"/>
<feColorMatrix type="matrix" values="0 0 0 0 0.0666667 0 0 0 0 0.0196078 0 0 0 0 0.160784 0 0 0 0.16 0"/>
<feBlend mode="normal" in2="shape" result="effect1_innerShadow_5580_35129"/>
</filter>
<filter id="filter2_i_5580_35129" x="159" y="103" width="30" height="54" filterUnits="userSpaceOnUse" color-interpolation-filters="sRGB">
<feFlood flood-opacity="0" result="BackgroundImageFix"/>
<feBlend mode="normal" in="SourceGraphic" in2="BackgroundImageFix" result="shape"/>
<feColorMatrix in="SourceAlpha" type="matrix" values="0 0 0 0 0 0 0 0 0 0 0 0 0 0 0 0 0 0 127 0" result="hardAlpha"/>
<feOffset dx="-8" dy="-4"/>
<feComposite in2="hardAlpha" operator="arithmetic" k2="-1" k3="1"/>
<feColorMatrix type="matrix" values="0 0 0 0 0.0666667 0 0 0 0 0.0196078 0 0 0 0 0.160784 0 0 0 0.16 0"/>
<feBlend mode="normal" in2="shape" result="effect1_innerShadow_5580_35129"/>
</filter>
<filter id="filter3_i_5580_35129" x="187" y="103" width="366" height="54" filterUnits="userSpaceOnUse" color-interpolation-filters="sRGB">
<feFlood flood-opacity="0" result="BackgroundImageFix"/>
<feBlend mode="normal" in="SourceGraphic" in2="BackgroundImageFix" result="shape"/>
<feColorMatrix in="SourceAlpha" type="matrix" values="0 0 0 0 0 0 0 0 0 0 0 0 0 0 0 0 0 0 127 0" result="hardAlpha"/>
<feOffset dx="-8" dy="-4"/>
<feComposite in2="hardAlpha" operator="arithmetic" k2="-1" k3="1"/>
<feColorMatrix type="matrix" values="0 0 0 0 0.0666667 0 0 0 0 0.0196078 0 0 0 0 0.160784 0 0 0 0.16 0"/>
<feBlend mode="normal" in2="shape" result="effect1_innerShadow_5580_35129"/>
</filter>
<filter id="filter4_i_5580_35129" x="551" y="103" width="32" height="54" filterUnits="userSpaceOnUse" color-interpolation-filters="sRGB">
<feFlood flood-opacity="0" result="BackgroundImageFix"/>
<feBlend mode="normal" in="SourceGraphic" in2="BackgroundImageFix" result="shape"/>
<feColorMatrix in="SourceAlpha" type="matrix" values="0 0 0 0 0 0 0 0 0 0 0 0 0 0 0 0 0 0 127 0" result="hardAlpha"/>
<feOffset dx="-8" dy="-4"/>
<feComposite in2="hardAlpha" operator="arithmetic" k2="-1" k3="1"/>
<feColorMatrix type="matrix" values="0 0 0 0 0.0666667 0 0 0 0 0.0196078 0 0 0 0 0.160784 0 0 0 0.16 0"/>
<feBlend mode="normal" in2="shape" result="effect1_innerShadow_5580_35129"/>
</filter>
<filter id="filter5_i_5580_35129" x="617" y="103" width="32" height="54" filterUnits="userSpaceOnUse" color-interpolation-filters="sRGB">
<feFlood flood-opacity="0" result="BackgroundImageFix"/>
<feBlend mode="normal" in="SourceGraphic" in2="BackgroundImageFix" result="shape"/>
<feColorMatrix in="SourceAlpha" type="matrix" values="0 0 0 0 0 0 0 0 0 0 0 0 0 0 0 0 0 0 127 0" result="hardAlpha"/>
<feOffset dx="-8" dy="-4"/>
<feComposite in2="hardAlpha" operator="arithmetic" k2="-1" k3="1"/>
<feColorMatrix type="matrix" values="0 0 0 0 0.0666667 0 0 0 0 0.0196078 0 0 0 0 0.160784 0 0 0 0.16 0"/>
<feBlend mode="normal" in2="shape" result="effect1_innerShadow_5580_35129"/>
</filter>
<filter id="filter6_i_5580_35129" x="581" y="103" width="38" height="54" filterUnits="userSpaceOnUse" color-interpolation-filters="sRGB">
<feFlood flood-opacity="0" result="BackgroundImageFix"/>
<feBlend mode="normal" in="SourceGraphic" in2="BackgroundImageFix" result="shape"/>
<feColorMatrix in="SourceAlpha" type="matrix" values="0 0 0 0 0 0 0 0 0 0 0 0 0 0 0 0 0 0 127 0" result="hardAlpha"/>
<feOffset dx="-8" dy="-4"/>
<feComposite in2="hardAlpha" operator="arithmetic" k2="-1" k3="1"/>
<feColorMatrix type="matrix" values="0 0 0 0 0.0666667 0 0 0 0 0.0196078 0 0 0 0 0.160784 0 0 0 0.16 0"/>
<feBlend mode="normal" in2="shape" result="effect1_innerShadow_5580_35129"/>
</filter>
<filter id="filter7_i_5580_35129" x="647" y="103" width="98" height="54" filterUnits="userSpaceOnUse" color-interpolation-filters="sRGB">
<feFlood flood-opacity="0" result="BackgroundImageFix"/>
<feBlend mode="normal" in="SourceGraphic" in2="BackgroundImageFix" result="shape"/>
<feColorMatrix in="SourceAlpha" type="matrix" values="0 0 0 0 0 0 0 0 0 0 0 0 0 0 0 0 0 0 127 0" result="hardAlpha"/>
<feOffset dx="-8" dy="-4"/>
<feComposite in2="hardAlpha" operator="arithmetic" k2="-1" k3="1"/>
<feColorMatrix type="matrix" values="0 0 0 0 0.0666667 0 0 0 0 0.0196078 0 0 0 0 0.160784 0 0 0 0.16 0"/>
<feBlend mode="normal" in2="shape" result="effect1_innerShadow_5580_35129"/>
</filter>
<filter id="filter8_i_5580_35129" x="743" y="103" width="146" height="54" filterUnits="userSpaceOnUse" color-interpolation-filters="sRGB">
<feFlood flood-opacity="0" result="BackgroundImageFix"/>
<feBlend mode="normal" in="SourceGraphic" in2="BackgroundImageFix" result="shape"/>
<feColorMatrix in="SourceAlpha" type="matrix" values="0 0 0 0 0 0 0 0 0 0 0 0 0 0 0 0 0 0 127 0" result="hardAlpha"/>
<feOffset dx="-8" dy="-4"/>
<feComposite in2="hardAlpha" operator="arithmetic" k2="-1" k3="1"/>
<feColorMatrix type="matrix" values="0 0 0 0 0.0666667 0 0 0 0 0.0196078 0 0 0 0 0.160784 0 0 0 0.16 0"/>
<feBlend mode="normal" in2="shape" result="effect1_innerShadow_5580_35129"/>
</filter>
<filter id="filter9_i_5580_35129" x="887" y="103" width="32" height="54" filterUnits="userSpaceOnUse" color-interpolation-filters="sRGB">
<feFlood flood-opacity="0" result="BackgroundImageFix"/>
<feBlend mode="normal" in="SourceGraphic" in2="BackgroundImageFix" result="shape"/>
<feColorMatrix in="SourceAlpha" type="matrix" values="0 0 0 0 0 0 0 0 0 0 0 0 0 0 0 0 0 0 127 0" result="hardAlpha"/>
<feOffset dx="-8" dy="-4"/>
<feComposite in2="hardAlpha" operator="arithmetic" k2="-1" k3="1"/>
<feColorMatrix type="matrix" values="0 0 0 0 0.0666667 0 0 0 0 0.0196078 0 0 0 0 0.160784 0 0 0 0.16 0"/>
<feBlend mode="normal" in2="shape" result="effect1_innerShadow_5580_35129"/>
</filter>
<filter id="filter10_i_5580_35129" x="63" y="279" width="74" height="54" filterUnits="userSpaceOnUse" color-interpolation-filters="sRGB">
<feFlood flood-opacity="0" result="BackgroundImageFix"/>
<feBlend mode="normal" in="SourceGraphic" in2="BackgroundImageFix" result="shape"/>
<feColorMatrix in="SourceAlpha" type="matrix" values="0 0 0 0 0 0 0 0 0 0 0 0 0 0 0 0 0 0 127 0" result="hardAlpha"/>
<feOffset dx="-8" dy="-4"/>
<feComposite in2="hardAlpha" operator="arithmetic" k2="-1" k3="1"/>
<feColorMatrix type="matrix" values="0 0 0 0 0.0666667 0 0 0 0 0.0196078 0 0 0 0 0.160784 0 0 0 0.16 0"/>
<feBlend mode="normal" in2="shape" result="effect1_innerShadow_5580_35129"/>
</filter>
<filter id="filter11_i_5580_35129" x="135" y="279" width="26" height="54" filterUnits="userSpaceOnUse" color-interpolation-filters="sRGB">
<feFlood flood-opacity="0" result="BackgroundImageFix"/>
<feBlend mode="normal" in="SourceGraphic" in2="BackgroundImageFix" result="shape"/>
<feColorMatrix in="SourceAlpha" type="matrix" values="0 0 0 0 0 0 0 0 0 0 0 0 0 0 0 0 0 0 127 0" result="hardAlpha"/>
<feOffset dx="-8" dy="-4"/>
<feComposite in2="hardAlpha" operator="arithmetic" k2="-1" k3="1"/>
<feColorMatrix type="matrix" values="0 0 0 0 0.0666667 0 0 0 0 0.0196078 0 0 0 0 0.160784 0 0 0 0.16 0"/>
<feBlend mode="normal" in2="shape" result="effect1_innerShadow_5580_35129"/>
</filter>
<filter id="filter12_i_5580_35129" x="159" y="279" width="30" height="54" filterUnits="userSpaceOnUse" color-interpolation-filters="sRGB">
<feFlood flood-opacity="0" result="BackgroundImageFix"/>
<feBlend mode="normal" in="SourceGraphic" in2="BackgroundImageFix" result="shape"/>
<feColorMatrix in="SourceAlpha" type="matrix" values="0 0 0 0 0 0 0 0 0 0 0 0 0 0 0 0 0 0 127 0" result="hardAlpha"/>
<feOffset dx="-8" dy="-4"/>
<feComposite in2="hardAlpha" operator="arithmetic" k2="-1" k3="1"/>
<feColorMatrix type="matrix" values="0 0 0 0 0.0666667 0 0 0 0 0.0196078 0 0 0 0 0.160784 0 0 0 0.16 0"/>
<feBlend mode="normal" in2="shape" result="effect1_innerShadow_5580_35129"/>
</filter>
<filter id="filter13_i_5580_35129" x="187" y="279" width="366" height="54" filterUnits="userSpaceOnUse" color-interpolation-filters="sRGB">
<feFlood flood-opacity="0" result="BackgroundImageFix"/>
<feBlend mode="normal" in="SourceGraphic" in2="BackgroundImageFix" result="shape"/>
<feColorMatrix in="SourceAlpha" type="matrix" values="0 0 0 0 0 0 0 0 0 0 0 0 0 0 0 0 0 0 127 0" result="hardAlpha"/>
<feOffset dx="-8" dy="-4"/>
<feComposite in2="hardAlpha" operator="arithmetic" k2="-1" k3="1"/>
<feColorMatrix type="matrix" values="0 0 0 0 0.0666667 0 0 0 0 0.0196078 0 0 0 0 0.160784 0 0 0 0.16 0"/>
<feBlend mode="normal" in2="shape" result="effect1_innerShadow_5580_35129"/>
</filter>
<filter id="filter14_i_5580_35129" x="551" y="279" width="32" height="54" filterUnits="userSpaceOnUse" color-interpolation-filters="sRGB">
<feFlood flood-opacity="0" result="BackgroundImageFix"/>
<feBlend mode="normal" in="SourceGraphic" in2="BackgroundImageFix" result="shape"/>
<feColorMatrix in="SourceAlpha" type="matrix" values="0 0 0 0 0 0 0 0 0 0 0 0 0 0 0 0 0 0 127 0" result="hardAlpha"/>
<feOffset dx="-8" dy="-4"/>
<feComposite in2="hardAlpha" operator="arithmetic" k2="-1" k3="1"/>
<feColorMatrix type="matrix" values="0 0 0 0 0.0666667 0 0 0 0 0.0196078 0 0 0 0 0.160784 0 0 0 0.16 0"/>
<feBlend mode="normal" in2="shape" result="effect1_innerShadow_5580_35129"/>
</filter>
<filter id="filter15_i_5580_35129" x="581" y="279" width="98" height="54" filterUnits="userSpaceOnUse" color-interpolation-filters="sRGB">
<feFlood flood-opacity="0" result="BackgroundImageFix"/>
<feBlend mode="normal" in="SourceGraphic" in2="BackgroundImageFix" result="shape"/>
<feColorMatrix in="SourceAlpha" type="matrix" values="0 0 0 0 0 0 0 0 0 0 0 0 0 0 0 0 0 0 127 0" result="hardAlpha"/>
<feOffset dx="-8" dy="-4"/>
<feComposite in2="hardAlpha" operator="arithmetic" k2="-1" k3="1"/>
<feColorMatrix type="matrix" values="0 0 0 0 0.0666667 0 0 0 0 0.0196078 0 0 0 0 0.160784 0 0 0 0.16 0"/>
<feBlend mode="normal" in2="shape" result="effect1_innerShadow_5580_35129"/>
</filter>
<filter id="filter16_i_5580_35129" x="677" y="279" width="146" height="54" filterUnits="userSpaceOnUse" color-interpolation-filters="sRGB">
<feFlood flood-opacity="0" result="BackgroundImageFix"/>
<feBlend mode="normal" in="SourceGraphic" in2="BackgroundImageFix" result="shape"/>
<feColorMatrix in="SourceAlpha" type="matrix" values="0 0 0 0 0 0 0 0 0 0 0 0 0 0 0 0 0 0 127 0" result="hardAlpha"/>
<feOffset dx="-8" dy="-4"/>
<feComposite in2="hardAlpha" operator="arithmetic" k2="-1" k3="1"/>
<feColorMatrix type="matrix" values="0 0 0 0 0.0666667 0 0 0 0 0.0196078 0 0 0 0 0.160784 0 0 0 0.16 0"/>
<feBlend mode="normal" in2="shape" result="effect1_innerShadow_5580_35129"/>
</filter>
<filter id="filter17_i_5580_35129" x="821" y="279" width="32" height="54" filterUnits="userSpaceOnUse" color-interpolation-filters="sRGB">
<feFlood flood-opacity="0" result="BackgroundImageFix"/>
<feBlend mode="normal" in="SourceGraphic" in2="BackgroundImageFix" result="shape"/>
<feColorMatrix in="SourceAlpha" type="matrix" values="0 0 0 0 0 0 0 0 0 0 0 0 0 0 0 0 0 0 127 0" result="hardAlpha"/>
<feOffset dx="-8" dy="-4"/>
<feComposite in2="hardAlpha" operator="arithmetic" k2="-1" k3="1"/>
<feColorMatrix type="matrix" values="0 0 0 0 0.0666667 0 0 0 0 0.0196078 0 0 0 0 0.160784 0 0 0 0.16 0"/>
<feBlend mode="normal" in2="shape" result="effect1_innerShadow_5580_35129"/>
</filter>
</defs>
</svg>
