<svg width="960" height="244" viewBox="0 0 960 244" fill="none" xmlns="http://www.w3.org/2000/svg">
<rect width="960" height="244" fill="white"/>
<path d="M109.586 216.24C108.994 216.24 108.442 216.117 107.93 215.872C107.423 215.627 106.989 215.291 106.626 214.864C106.269 214.432 106.013 213.936 105.858 213.376L107.226 213.008C107.322 213.387 107.493 213.715 107.738 213.992C107.983 214.264 108.269 214.477 108.594 214.632C108.925 214.781 109.269 214.856 109.626 214.856C110.095 214.856 110.517 214.744 110.89 214.52C111.269 214.291 111.567 213.989 111.786 213.616C112.005 213.237 112.114 212.824 112.114 212.376C112.114 211.912 111.999 211.493 111.77 211.12C111.546 210.741 111.245 210.443 110.866 210.224C110.487 210.005 110.074 209.896 109.626 209.896C109.119 209.896 108.685 210.003 108.322 210.216C107.965 210.424 107.682 210.68 107.474 210.984L106.21 210.504L106.562 204.48H112.746V205.832H107.25L107.882 205.24L107.586 210.064L107.274 209.656C107.594 209.315 107.975 209.051 108.418 208.864C108.866 208.677 109.322 208.584 109.786 208.584C110.501 208.584 111.141 208.752 111.706 209.088C112.271 209.419 112.719 209.872 113.05 210.448C113.381 211.019 113.546 211.661 113.546 212.376C113.546 213.085 113.365 213.733 113.002 214.32C112.639 214.901 112.157 215.368 111.554 215.72C110.957 216.067 110.301 216.24 109.586 216.24ZM115.539 208.08L115.627 207.416C115.851 207.432 116.019 207.389 116.131 207.288C116.243 207.187 116.315 207.048 116.347 206.872C116.379 206.696 116.385 206.501 116.363 206.288H115.539V204.48H117.107V206.528C117.107 207.088 116.969 207.509 116.691 207.792C116.419 208.075 116.035 208.171 115.539 208.08ZM123.878 216.24C122.988 216.24 122.201 216.056 121.518 215.688C120.836 215.32 120.3 214.805 119.91 214.144C119.526 213.477 119.334 212.696 119.334 211.8V204.488L120.774 204.48V211.68C120.774 212.224 120.865 212.699 121.046 213.104C121.233 213.504 121.478 213.837 121.782 214.104C122.086 214.371 122.42 214.571 122.782 214.704C123.15 214.832 123.516 214.896 123.878 214.896C124.246 214.896 124.614 214.829 124.982 214.696C125.35 214.563 125.684 214.365 125.982 214.104C126.286 213.837 126.529 213.501 126.71 213.096C126.892 212.691 126.982 212.219 126.982 211.68V204.48H128.422V211.8C128.422 212.691 128.228 213.469 127.838 214.136C127.454 214.803 126.921 215.32 126.238 215.688C125.556 216.056 124.769 216.24 123.878 216.24ZM133.631 216V205.832H129.703V204.48H138.983V205.832H135.055V216H133.631ZM140.256 216V204.48H144.808C144.92 204.48 145.054 204.485 145.208 204.496C145.363 204.501 145.512 204.517 145.656 204.544C146.28 204.64 146.803 204.853 147.224 205.184C147.651 205.515 147.971 205.933 148.184 206.44C148.398 206.941 148.504 207.499 148.504 208.112C148.504 209.003 148.272 209.776 147.808 210.432C147.344 211.083 146.664 211.491 145.768 211.656L145.224 211.744H141.68V216H140.256ZM147.112 216L144.84 211.312L146.248 210.88L148.744 216H147.112ZM141.68 210.392H144.76C144.862 210.392 144.976 210.387 145.104 210.376C145.238 210.365 145.363 210.347 145.48 210.32C145.848 210.235 146.147 210.08 146.376 209.856C146.611 209.627 146.782 209.36 146.888 209.056C146.995 208.747 147.048 208.432 147.048 208.112C147.048 207.792 146.995 207.48 146.888 207.176C146.782 206.867 146.611 206.597 146.376 206.368C146.147 206.139 145.848 205.984 145.48 205.904C145.363 205.872 145.238 205.853 145.104 205.848C144.976 205.837 144.862 205.832 144.76 205.832H141.68V210.392Z" fill="#D3D7E0"/>
<path d="M186.806 216V204.48H188.23V214.648H193.574V216H186.806ZM196.935 216V206.056L194.767 207.368V205.776L196.935 204.48H198.383V216H196.935Z" fill="#D3D7E0"/>
<path d="M219.348 216V204.48H220.772V214.648H226.116V216H219.348ZM227.149 215.992L227.157 214.712L232.269 210.112C232.696 209.728 232.981 209.365 233.125 209.024C233.274 208.677 233.349 208.323 233.349 207.96C233.349 207.517 233.248 207.117 233.045 206.76C232.842 206.403 232.565 206.12 232.213 205.912C231.866 205.704 231.472 205.6 231.029 205.6C230.57 205.6 230.162 205.709 229.805 205.928C229.448 206.141 229.165 206.427 228.957 206.784C228.754 207.141 228.656 207.531 228.661 207.952H227.205C227.205 207.227 227.373 206.587 227.709 206.032C228.045 205.472 228.501 205.035 229.077 204.72C229.658 204.4 230.317 204.24 231.053 204.24C231.768 204.24 232.408 204.405 232.973 204.736C233.538 205.061 233.984 205.507 234.309 206.072C234.64 206.632 234.805 207.267 234.805 207.976C234.805 208.477 234.741 208.912 234.613 209.28C234.49 209.648 234.298 209.989 234.037 210.304C233.776 210.613 233.448 210.944 233.053 211.296L228.805 215.112L228.621 214.632H234.805V215.992H227.149Z" fill="#D3D7E0"/>
<path d="M313.667 216V204.48H320.387V205.904H315.091V209.528H319.427V210.952H315.091V216H313.667ZM321.823 216V204.48H326.375C326.487 204.48 326.62 204.485 326.775 204.496C326.93 204.501 327.079 204.517 327.223 204.544C327.847 204.64 328.37 204.853 328.791 205.184C329.218 205.515 329.538 205.933 329.751 206.44C329.964 206.941 330.071 207.499 330.071 208.112C330.071 209.003 329.839 209.776 329.375 210.432C328.911 211.083 328.231 211.491 327.335 211.656L326.791 211.744H323.247V216H321.823ZM328.679 216L326.407 211.312L327.815 210.88L330.311 216H328.679ZM323.247 210.392H326.327C326.428 210.392 326.543 210.387 326.671 210.376C326.804 210.365 326.93 210.347 327.047 210.32C327.415 210.235 327.714 210.08 327.943 209.856C328.178 209.627 328.348 209.36 328.455 209.056C328.562 208.747 328.615 208.432 328.615 208.112C328.615 207.792 328.562 207.48 328.455 207.176C328.348 206.867 328.178 206.597 327.943 206.368C327.714 206.139 327.415 205.984 327.047 205.904C326.93 205.872 326.804 205.853 326.671 205.848C326.543 205.837 326.428 205.832 326.327 205.832H323.247V210.392ZM334.081 216V206.056L331.913 207.368V205.776L334.081 204.48H335.529V216H334.081Z" fill="#D3D7E0"/>
<path d="M520.111 216V204.48H526.831V205.904H521.535V209.528H525.871V210.952H521.535V216H520.111ZM528.267 216V204.48H532.819C532.931 204.48 533.065 204.485 533.219 204.496C533.374 204.501 533.523 204.517 533.667 204.544C534.291 204.64 534.814 204.853 535.235 205.184C535.662 205.515 535.982 205.933 536.195 206.44C536.409 206.941 536.515 207.499 536.515 208.112C536.515 209.003 536.283 209.776 535.819 210.432C535.355 211.083 534.675 211.491 533.779 211.656L533.235 211.744H529.691V216H528.267ZM535.123 216L532.851 211.312L534.259 210.88L536.755 216H535.123ZM529.691 210.392H532.771C532.873 210.392 532.987 210.387 533.115 210.376C533.249 210.365 533.374 210.347 533.491 210.32C533.859 210.235 534.158 210.08 534.387 209.856C534.622 209.627 534.793 209.36 534.899 209.056C535.006 208.747 535.059 208.432 535.059 208.112C535.059 207.792 535.006 207.48 534.899 207.176C534.793 206.867 534.622 206.597 534.387 206.368C534.158 206.139 533.859 205.984 533.491 205.904C533.374 205.872 533.249 205.853 533.115 205.848C532.987 205.837 532.873 205.832 532.771 205.832H529.691V210.392ZM541.677 216.224C541.107 216.224 540.576 216.12 540.085 215.912C539.595 215.699 539.171 215.4 538.813 215.016C538.461 214.627 538.203 214.165 538.037 213.632L539.405 213.24C539.581 213.773 539.875 214.179 540.285 214.456C540.696 214.733 541.157 214.869 541.669 214.864C542.139 214.853 542.544 214.747 542.885 214.544C543.232 214.336 543.499 214.053 543.685 213.696C543.877 213.339 543.973 212.925 543.973 212.456C543.973 211.741 543.76 211.163 543.333 210.72C542.907 210.272 542.347 210.048 541.653 210.048C541.461 210.048 541.259 210.075 541.045 210.128C540.837 210.181 540.643 210.256 540.461 210.352L539.773 209.224L544.045 205.36L544.229 205.84H538.493V204.48H545.285V205.848L541.645 209.336L541.629 208.832C542.392 208.779 543.059 208.904 543.629 209.208C544.2 209.512 544.643 209.947 544.957 210.512C545.277 211.077 545.437 211.725 545.437 212.456C545.437 213.192 545.272 213.843 544.941 214.408C544.611 214.973 544.163 215.419 543.597 215.744C543.032 216.064 542.392 216.224 541.677 216.224Z" fill="#D3D7E0"/>
<path d="M451.865 187V184.256H454.609V187H451.865ZM459.412 187V184.256H462.156V187H459.412ZM466.959 187V184.256H469.703V187H466.959Z" fill="#D3D7E0"/>
<path d="M616.004 216.24C614.858 216.24 613.884 215.987 613.084 215.48C612.284 214.973 611.674 214.269 611.252 213.368C610.836 212.467 610.628 211.424 610.628 210.24C610.628 209.056 610.836 208.013 611.252 207.112C611.674 206.211 612.284 205.507 613.084 205C613.884 204.493 614.858 204.24 616.004 204.24C617.338 204.24 618.434 204.579 619.292 205.256C620.156 205.933 620.751 206.845 621.076 207.992L619.628 208.376C619.394 207.517 618.975 206.84 618.372 206.344C617.77 205.848 616.98 205.6 616.004 205.6C615.146 205.6 614.431 205.795 613.86 206.184C613.29 206.573 612.86 207.117 612.572 207.816C612.284 208.509 612.138 209.317 612.132 210.24C612.127 211.157 612.268 211.965 612.556 212.664C612.844 213.357 613.276 213.901 613.852 214.296C614.428 214.685 615.146 214.88 616.004 214.88C616.98 214.88 617.77 214.632 618.372 214.136C618.975 213.635 619.394 212.957 619.628 212.104L621.076 212.488C620.751 213.629 620.156 214.541 619.292 215.224C618.434 215.901 617.338 216.24 616.004 216.24ZM622.831 216V204.48H626.383C626.5 204.48 626.706 204.483 626.999 204.488C627.292 204.493 627.572 204.515 627.839 204.552C628.73 204.669 629.474 204.995 630.071 205.528C630.674 206.056 631.127 206.728 631.431 207.544C631.735 208.36 631.887 209.259 631.887 210.24C631.887 211.221 631.735 212.12 631.431 212.936C631.127 213.752 630.674 214.427 630.071 214.96C629.474 215.488 628.73 215.811 627.839 215.928C627.572 215.96 627.29 215.981 626.991 215.992C626.698 215.997 626.495 216 626.383 216H622.831ZM624.295 214.64H626.383C626.586 214.64 626.812 214.635 627.063 214.624C627.314 214.608 627.532 214.584 627.719 214.552C628.348 214.435 628.858 214.171 629.247 213.76C629.636 213.349 629.922 212.837 630.103 212.224C630.284 211.611 630.375 210.949 630.375 210.24C630.375 209.515 630.282 208.845 630.095 208.232C629.914 207.619 629.628 207.109 629.239 206.704C628.85 206.299 628.343 206.04 627.719 205.928C627.532 205.891 627.311 205.867 627.055 205.856C626.799 205.845 626.575 205.84 626.383 205.84H624.295V214.64ZM633.722 216V204.48H638.274C638.386 204.48 638.519 204.485 638.674 204.496C638.828 204.501 638.978 204.517 639.122 204.544C639.746 204.64 640.268 204.853 640.69 205.184C641.116 205.515 641.436 205.933 641.65 206.44C641.863 206.941 641.97 207.499 641.97 208.112C641.97 209.003 641.738 209.776 641.274 210.432C640.81 211.083 640.13 211.491 639.234 211.656L638.69 211.744H635.146V216H633.722ZM640.578 216L638.306 211.312L639.714 210.88L642.21 216H640.578ZM635.146 210.392H638.226C638.327 210.392 638.442 210.387 638.57 210.376C638.703 210.365 638.828 210.347 638.946 210.32C639.314 210.235 639.612 210.08 639.842 209.856C640.076 209.627 640.247 209.36 640.354 209.056C640.46 208.747 640.514 208.432 640.514 208.112C640.514 207.792 640.46 207.48 640.354 207.176C640.247 206.867 640.076 206.597 639.842 206.368C639.612 206.139 639.314 205.984 638.946 205.904C638.828 205.872 638.703 205.853 638.57 205.848C638.442 205.837 638.327 205.832 638.226 205.832H635.146V210.392ZM647.132 216.224C646.561 216.224 646.03 216.12 645.54 215.912C645.049 215.699 644.625 215.4 644.268 215.016C643.916 214.627 643.657 214.165 643.492 213.632L644.86 213.24C645.036 213.773 645.329 214.179 645.74 214.456C646.15 214.733 646.612 214.869 647.124 214.864C647.593 214.853 647.998 214.747 648.34 214.544C648.686 214.336 648.953 214.053 649.14 213.696C649.332 213.339 649.428 212.925 649.428 212.456C649.428 211.741 649.214 211.163 648.788 210.72C648.361 210.272 647.801 210.048 647.108 210.048C646.916 210.048 646.713 210.075 646.5 210.128C646.292 210.181 646.097 210.256 645.916 210.352L645.228 209.224L649.5 205.36L649.684 205.84H643.948V204.48H650.74V205.848L647.1 209.336L647.084 208.832C647.846 208.779 648.513 208.904 649.084 209.208C649.654 209.512 650.097 209.947 650.412 210.512C650.732 211.077 650.892 211.725 650.892 212.456C650.892 213.192 650.726 213.843 650.396 214.408C650.065 214.973 649.617 215.419 649.052 215.744C648.486 216.064 647.846 216.224 647.132 216.224Z" fill="#D3D7E0"/>
<path d="M751.151 216V204.48H757.871V205.904H752.575V209.528H756.911V210.952H752.575V216H751.151ZM759.308 216V204.48H763.86C763.972 204.48 764.105 204.485 764.26 204.496C764.414 204.501 764.564 204.517 764.708 204.544C765.332 204.64 765.854 204.853 766.276 205.184C766.702 205.515 767.022 205.933 767.236 206.44C767.449 206.941 767.556 207.499 767.556 208.112C767.556 209.003 767.324 209.776 766.86 210.432C766.396 211.083 765.716 211.491 764.82 211.656L764.276 211.744H760.732V216H759.308ZM766.164 216L763.892 211.312L765.3 210.88L767.796 216H766.164ZM760.732 210.392H763.812C763.913 210.392 764.028 210.387 764.156 210.376C764.289 210.365 764.414 210.347 764.532 210.32C764.9 210.235 765.198 210.08 765.428 209.856C765.662 209.627 765.833 209.36 765.94 209.056C766.046 208.747 766.1 208.432 766.1 208.112C766.1 207.792 766.046 207.48 765.94 207.176C765.833 206.867 765.662 206.597 765.428 206.368C765.198 206.139 764.9 205.984 764.532 205.904C764.414 205.872 764.289 205.853 764.156 205.848C764.028 205.837 763.913 205.832 763.812 205.832H760.732V210.392ZM774.534 216V213.88H769.238V212.528L773.038 204.48H774.654L770.854 212.528H774.534V209.288H775.974V212.528H777.174V213.88H775.974V216H774.534Z" fill="#D3D7E0"/>
<path d="M558 216V120" stroke="#D3D7E0" stroke-width="2" stroke-dasharray="6 6"/>
<path d="M704 216V120" stroke="#D3D7E0" stroke-width="2" stroke-dasharray="6 6"/>
<path d="M393.945 216V120" stroke="#D3D7E0" stroke-width="2" stroke-dasharray="6 6"/>
<path d="M176 216V120" stroke="#D3D7E0" stroke-width="2" stroke-dasharray="6 6"/>
<path d="M80 216V120" stroke="#D3D7E0" stroke-width="2" stroke-dasharray="6 6"/>
<path d="M210 216V120" stroke="#D3D7E0" stroke-width="2" stroke-dasharray="6 6"/>
<path d="M244 216V168V120" stroke="#D3D7E0" stroke-width="2" stroke-dasharray="6 6"/>
<path d="M824 216L824 120" stroke="#D3D7E0" stroke-width="2" stroke-dasharray="6 6"/>
<g filter="url(#filter0_i_4688_30082)">
<path d="M80 73.6C80 73.0399 80 72.7599 80.109 72.546C80.2049 72.3578 80.3578 72.2049 80.546 72.109C80.7599 72 81.0399 72 81.6 72H428L423 78.5L428 84.5L423 91.5L428 97.5L423 104.5L428 111L423 117.5L428 124H81.6C81.04 124 80.7599 124 80.546 123.891C80.3578 123.795 80.2049 123.642 80.109 123.454C80 123.24 80 122.96 80 122.4V117.5V111V104V98V91.5V85V78.5V73.6Z" fill="#99E099"/>
</g>
<path d="M80 73.6C80 73.0399 80 72.7599 80.109 72.546C80.2049 72.3578 80.3578 72.2049 80.546 72.109C80.7599 72 81.0399 72 81.6 72H428L423 78.5L428 84.5L423 91.5L428 97.5L423 104.5L428 111L423 117.5L428 124H81.6C81.04 124 80.7599 124 80.546 123.891C80.3578 123.795 80.2049 123.642 80.109 123.454C80 123.24 80 122.96 80 122.4V117.5V111V104V98V91.5V85V78.5V73.6Z" stroke="#110529" stroke-width="2" stroke-linecap="round"/>
<g filter="url(#filter1_i_4688_30082)">
<path d="M497 72H570.4C570.96 72 571.24 72 571.454 72.109C571.642 72.2049 571.795 72.3578 571.891 72.546C572 72.7599 572 73.0399 572 73.6V122.4C572 122.96 572 123.24 571.891 123.454C571.795 123.642 571.642 123.795 571.454 123.891C571.24 124 570.96 124 570.4 124H497L492 117.5L497 111L492 104L497 98L492 91.5L497 85L492 78.5L497 72Z" fill="#99E099"/>
</g>
<path d="M497 72H570.4C570.96 72 571.24 72 571.454 72.109C571.642 72.2049 571.795 72.3578 571.891 72.546C572 72.7599 572 73.0399 572 73.6V122.4C572 122.96 572 123.24 571.891 123.454C571.795 123.642 571.642 123.795 571.454 123.891C571.24 124 570.96 124 570.4 124H497L492 117.5L497 111L492 104L497 98L492 91.5L497 85L492 78.5L497 72Z" stroke="#110529" stroke-width="2" stroke-linecap="round"/>
<g filter="url(#filter2_i_4688_30082)">
<rect x="572" y="72" width="32" height="52" rx="1" fill="#CBEB67"/>
</g>
<rect x="572" y="72" width="32" height="52" rx="1" stroke="#110529" stroke-width="2" stroke-linecap="round"/>
<g filter="url(#filter3_i_4688_30082)">
<rect x="656" y="72" width="32" height="52" rx="1" fill="#FAAAFA"/>
</g>
<rect x="656" y="72" width="32" height="52" rx="1" stroke="#110529" stroke-width="2" stroke-linecap="round"/>
<g filter="url(#filter4_i_4688_30082)">
<rect x="604" y="72" width="52" height="52" rx="1" fill="#FFCB8F"/>
</g>
<rect x="604" y="72" width="52" height="52" rx="1" stroke="#110529" stroke-width="2" stroke-linecap="round"/>
<path d="M583.587 91H581.712V106H583.587V94.2708L591.421 106H593.296V91H591.421V102.708L583.587 91Z" fill="#110529"/>
<path d="M667.587 91H665.712V106H667.587V94.2708L675.421 106H677.296V91H675.421V102.708L667.587 91Z" fill="#110529"/>
<path d="M635.66 98.5417C635.66 100.562 635.056 102.646 633.785 104.021C632.556 105.375 630.764 105.979 628.91 105.979H623.868V90.9792L628.952 91C630.889 91 632.598 91.6458 633.785 92.9792C635.139 94.4375 635.66 96.4583 635.66 98.5417ZM633.702 98.5417C633.723 96.9167 633.348 95.3125 632.389 94.2083C631.493 93.1875 630.306 92.7917 628.931 92.7708L625.785 92.7917V104.187L628.91 104.229C630.285 104.208 631.535 103.75 632.41 102.771C633.348 101.687 633.681 100.062 633.702 98.5417Z" fill="#110529"/>
<g filter="url(#filter5_i_4688_30082)">
<path d="M688 73.6C688 73.0399 688 72.7599 688.109 72.546C688.205 72.3578 688.358 72.2049 688.546 72.109C688.76 72 689.04 72 689.6 72H822.4C822.96 72 823.24 72 823.454 72.109C823.642 72.2049 823.795 72.3578 823.891 72.546C824 72.7599 824 73.0399 824 73.6V122.4C824 122.96 824 123.24 823.891 123.454C823.795 123.642 823.642 123.795 823.454 123.891C823.24 124 822.96 124 822.4 124H689.6C689.04 124 688.76 124 688.546 123.891C688.358 123.795 688.205 123.642 688.109 123.454C688 123.24 688 122.96 688 122.4V73.6Z" fill="#C1ADFF"/>
</g>
<path d="M688 73.6C688 73.0399 688 72.7599 688.109 72.546C688.205 72.3578 688.358 72.2049 688.546 72.109C688.76 72 689.04 72 689.6 72H822.4C822.96 72 823.24 72 823.454 72.109C823.642 72.2049 823.795 72.3578 823.891 72.546C824 72.7599 824 73.0399 824 73.6V122.4C824 122.96 824 123.24 823.891 123.454C823.795 123.642 823.642 123.795 823.454 123.891C823.24 124 822.96 124 822.4 124H689.6C689.04 124 688.76 124 688.546 123.891C688.358 123.795 688.205 123.642 688.109 123.454C688 123.24 688 122.96 688 122.4V73.6Z" stroke="#110529" stroke-width="2" stroke-linecap="round"/>
<g filter="url(#filter6_i_4688_30082)">
<path d="M868 72H824V124H868L863 117.5L868 111L863 104L868 98L863 91.5L868 85L863 78.5L868 72Z" fill="#FAFAAA"/>
</g>
<path d="M868 72H824V124H868L863 117.5L868 111L863 104L868 98L863 91.5L868 85L863 78.5L868 72Z" stroke="#110529" stroke-width="2" stroke-linecap="round"/>
<path d="M426.861 52L427.558 52.7167L428.295 52L427.558 51.2833L426.861 52ZM419.336 43.2833L418.62 42.5859L417.225 44.0194L417.942 44.7167L419.336 43.2833ZM417.942 59.2833L417.225 59.9806L418.62 61.4141L419.336 60.7167L417.942 59.2833ZM395 53H426.861V51H395V53ZM427.558 51.2833L419.336 43.2833L417.942 44.7167L426.164 52.7167L427.558 51.2833ZM426.164 51.2833L417.942 59.2833L419.336 60.7167L427.558 52.7167L426.164 51.2833Z" fill="#110529"/>
<path d="M493.139 52L492.442 52.7167L491.705 52L492.442 51.2833L493.139 52ZM500.664 43.2833L501.38 42.5859L502.775 44.0194L502.058 44.7167L500.664 43.2833ZM502.058 59.2833L502.775 59.9806L501.38 61.4141L500.664 60.7167L502.058 59.2833ZM525 53H493.139V51H525V53ZM492.442 51.2833L500.664 43.2833L502.058 44.7167L493.836 52.7167L492.442 51.2833ZM493.836 51.2833L502.058 59.2833L500.664 60.7167L492.442 52.7167L493.836 51.2833Z" fill="#110529"/>
<path d="M869 52L501 52" stroke="#110529" stroke-width="2"/>
<path d="M415 52L80 52" stroke="#110529" stroke-width="2"/>
<path d="M255.267 40L252.917 35.1833C253.433 34.95 253.883 34.6 254.217 34.1667C254.767 33.5 255.1 32.65 255.1 31.7833C255.083 30.8833 254.733 29.9667 254.133 29.3C253.717 28.8 253.15 28.4167 252.533 28.2167C252.133 28.0667 251.717 28 251.283 28H246.167V40H247.65V35.55H251.283H251.417L253.567 40H255.267ZM247.65 29.4167H251.283C251.867 29.4167 252.5 29.7167 252.917 30.15C253.333 30.5833 253.55 31.1667 253.567 31.7833C253.583 32.3167 253.383 32.85 253.05 33.2667C252.6 33.8167 251.917 34.15 251.283 34.15H247.65V29.4167ZM259.532 28L257.266 29.35V31L259.532 29.6333V40H261.032V28H259.532Z" fill="#110529"/>
<path d="M685.267 40L682.917 35.1833C683.433 34.95 683.883 34.6 684.217 34.1667C684.767 33.5 685.1 32.65 685.1 31.7833C685.083 30.8833 684.733 29.9667 684.133 29.3C683.717 28.8 683.15 28.4167 682.533 28.2167C682.133 28.0667 681.717 28 681.283 28H676.167V40H677.65V35.55H681.283H681.417L683.567 40H685.267ZM677.65 29.4167H681.283C681.867 29.4167 682.5 29.7167 682.917 30.15C683.333 30.5833 683.55 31.1667 683.567 31.7833C683.583 32.3167 683.383 32.85 683.05 33.2667C682.6 33.8167 681.917 34.15 681.283 34.15H677.65V29.4167ZM687.182 31.6167H688.699C688.699 30.8833 689.032 30.2 689.566 29.7333C689.982 29.3833 690.532 29.1667 691.132 29.1667C691.782 29.1667 692.382 29.4 692.816 29.8333C693.299 30.2833 693.582 30.9333 693.582 31.6167C693.582 32.3833 693.349 33.0833 692.466 33.8667L687.116 38.5667L687.099 39.9833H694.932V38.5667H689.432L693.282 35.1333C694.499 34.05 695.099 33.1667 695.099 31.6333C695.099 30.5833 694.682 29.5667 693.949 28.8667C693.249 28.1167 692.266 27.75 691.199 27.75C690.232 27.75 689.266 28.0167 688.532 28.65C687.699 29.3667 687.166 30.45 687.182 31.6167Z" fill="#110529"/>
<path d="M252.125 106H254.708L259.729 91H257.813L253.396 104.021L249.042 91H247.104L252.125 106Z" fill="#110529"/>
<path d="M530.125 106H532.708L537.729 91H535.813L531.396 104.021L527.042 91H525.104L530.125 106Z" fill="#110529"/>
<path d="M759.25 91V101.292C759.25 102.604 759.25 103.312 758.688 104.312C757.917 105.604 756.729 106.312 755.104 106.312C754.333 106.312 753.583 106.146 752.938 105.729C751.979 105.187 751.292 104.208 751 103.146L752.854 102.708C752.958 103.292 753.333 103.812 753.833 104.146C754.188 104.396 754.646 104.542 755.083 104.542C755.875 104.542 756.708 104.125 757.063 103.354C757.333 102.792 757.333 102.375 757.333 101.292V91H759.25Z" fill="#110529"/>
<path d="M848.646 101.021C848.479 101.646 848.188 102.25 847.813 102.771C846.938 103.958 845.458 104.562 843.958 104.542C842.458 104.542 840.979 103.958 840.104 102.771C839.208 101.583 838.938 100.021 838.917 98.5C838.938 96.9583 839.208 95.3958 840.104 94.2292C840.979 93.0417 842.458 92.4375 843.958 92.4583C845.458 92.4583 846.938 93.0417 847.813 94.2292C848.25 94.7917 848.521 95.4583 848.708 96.1458L850.625 95.8333C850.375 94.875 849.958 93.9375 849.292 93.0833C848.042 91.4792 846.063 90.6875 843.958 90.6875C841.833 90.6875 839.875 91.4583 838.625 93.0833C837.396 94.625 836.958 96.5208 836.938 98.5C836.917 100.417 837.396 102.354 838.625 103.896C839.875 105.479 841.813 106.312 843.958 106.312C846.042 106.312 848 105.542 849.292 103.896C849.854 103.188 850.25 102.375 850.5 101.562L848.646 101.021Z" fill="#110529"/>
<defs>
<filter id="filter0_i_4688_30082" x="79" y="71" width="351.031" height="54" filterUnits="userSpaceOnUse" color-interpolation-filters="sRGB">
<feFlood flood-opacity="0" result="BackgroundImageFix"/>
<feBlend mode="normal" in="SourceGraphic" in2="BackgroundImageFix" result="shape"/>
<feColorMatrix in="SourceAlpha" type="matrix" values="0 0 0 0 0 0 0 0 0 0 0 0 0 0 0 0 0 0 127 0" result="hardAlpha"/>
<feOffset dx="-4" dy="-2"/>
<feComposite in2="hardAlpha" operator="arithmetic" k2="-1" k3="1"/>
<feColorMatrix type="matrix" values="0 0 0 0 0.0666667 0 0 0 0 0.0196078 0 0 0 0 0.160784 0 0 0 0.16 0"/>
<feBlend mode="normal" in2="shape" result="effect1_innerShadow_4688_30082"/>
</filter>
<filter id="filter1_i_4688_30082" x="490.738" y="71" width="82.2625" height="54" filterUnits="userSpaceOnUse" color-interpolation-filters="sRGB">
<feFlood flood-opacity="0" result="BackgroundImageFix"/>
<feBlend mode="normal" in="SourceGraphic" in2="BackgroundImageFix" result="shape"/>
<feColorMatrix in="SourceAlpha" type="matrix" values="0 0 0 0 0 0 0 0 0 0 0 0 0 0 0 0 0 0 127 0" result="hardAlpha"/>
<feOffset dx="-8" dy="-4"/>
<feComposite in2="hardAlpha" operator="arithmetic" k2="-1" k3="1"/>
<feColorMatrix type="matrix" values="0 0 0 0 0.0666667 0 0 0 0 0.0196078 0 0 0 0 0.160784 0 0 0 0.16 0"/>
<feBlend mode="normal" in2="shape" result="effect1_innerShadow_4688_30082"/>
</filter>
<filter id="filter2_i_4688_30082" x="571" y="71" width="34" height="54" filterUnits="userSpaceOnUse" color-interpolation-filters="sRGB">
<feFlood flood-opacity="0" result="BackgroundImageFix"/>
<feBlend mode="normal" in="SourceGraphic" in2="BackgroundImageFix" result="shape"/>
<feColorMatrix in="SourceAlpha" type="matrix" values="0 0 0 0 0 0 0 0 0 0 0 0 0 0 0 0 0 0 127 0" result="hardAlpha"/>
<feOffset dx="-8" dy="-4"/>
<feComposite in2="hardAlpha" operator="arithmetic" k2="-1" k3="1"/>
<feColorMatrix type="matrix" values="0 0 0 0 0.0666667 0 0 0 0 0.0196078 0 0 0 0 0.160784 0 0 0 0.16 0"/>
<feBlend mode="normal" in2="shape" result="effect1_innerShadow_4688_30082"/>
</filter>
<filter id="filter3_i_4688_30082" x="655" y="71" width="34" height="54" filterUnits="userSpaceOnUse" color-interpolation-filters="sRGB">
<feFlood flood-opacity="0" result="BackgroundImageFix"/>
<feBlend mode="normal" in="SourceGraphic" in2="BackgroundImageFix" result="shape"/>
<feColorMatrix in="SourceAlpha" type="matrix" values="0 0 0 0 0 0 0 0 0 0 0 0 0 0 0 0 0 0 127 0" result="hardAlpha"/>
<feOffset dx="-8" dy="-4"/>
<feComposite in2="hardAlpha" operator="arithmetic" k2="-1" k3="1"/>
<feColorMatrix type="matrix" values="0 0 0 0 0.0666667 0 0 0 0 0.0196078 0 0 0 0 0.160784 0 0 0 0.16 0"/>
<feBlend mode="normal" in2="shape" result="effect1_innerShadow_4688_30082"/>
</filter>
<filter id="filter4_i_4688_30082" x="603" y="71" width="54" height="54" filterUnits="userSpaceOnUse" color-interpolation-filters="sRGB">
<feFlood flood-opacity="0" result="BackgroundImageFix"/>
<feBlend mode="normal" in="SourceGraphic" in2="BackgroundImageFix" result="shape"/>
<feColorMatrix in="SourceAlpha" type="matrix" values="0 0 0 0 0 0 0 0 0 0 0 0 0 0 0 0 0 0 127 0" result="hardAlpha"/>
<feOffset dx="-8" dy="-4"/>
<feComposite in2="hardAlpha" operator="arithmetic" k2="-1" k3="1"/>
<feColorMatrix type="matrix" values="0 0 0 0 0.0666667 0 0 0 0 0.0196078 0 0 0 0 0.160784 0 0 0 0.16 0"/>
<feBlend mode="normal" in2="shape" result="effect1_innerShadow_4688_30082"/>
</filter>
<filter id="filter5_i_4688_30082" x="687" y="71" width="138" height="54" filterUnits="userSpaceOnUse" color-interpolation-filters="sRGB">
<feFlood flood-opacity="0" result="BackgroundImageFix"/>
<feBlend mode="normal" in="SourceGraphic" in2="BackgroundImageFix" result="shape"/>
<feColorMatrix in="SourceAlpha" type="matrix" values="0 0 0 0 0 0 0 0 0 0 0 0 0 0 0 0 0 0 127 0" result="hardAlpha"/>
<feOffset dx="-8" dy="-4"/>
<feComposite in2="hardAlpha" operator="arithmetic" k2="-1" k3="1"/>
<feColorMatrix type="matrix" values="0 0 0 0 0.0666667 0 0 0 0 0.0196078 0 0 0 0 0.160784 0 0 0 0.16 0"/>
<feBlend mode="normal" in2="shape" result="effect1_innerShadow_4688_30082"/>
</filter>
<filter id="filter6_i_4688_30082" x="823" y="71" width="47.0308" height="54" filterUnits="userSpaceOnUse" color-interpolation-filters="sRGB">
<feFlood flood-opacity="0" result="BackgroundImageFix"/>
<feBlend mode="normal" in="SourceGraphic" in2="BackgroundImageFix" result="shape"/>
<feColorMatrix in="SourceAlpha" type="matrix" values="0 0 0 0 0 0 0 0 0 0 0 0 0 0 0 0 0 0 127 0" result="hardAlpha"/>
<feOffset dx="-8" dy="-4"/>
<feComposite in2="hardAlpha" operator="arithmetic" k2="-1" k3="1"/>
<feColorMatrix type="matrix" values="0 0 0 0 0.0666667 0 0 0 0 0.0196078 0 0 0 0 0.160784 0 0 0 0.16 0"/>
<feBlend mode="normal" in2="shape" result="effect1_innerShadow_4688_30082"/>
</filter>
</defs>
</svg>
