<svg xmlns="http://www.w3.org/2000/svg" class="plt-container" width="600.0" height="400.0">
  <style type="text/css">
  .plt-container {
   font-family: "IBM Plex Mono", "Lucida Grande", sans-serif;
   user-select: none;
   -webkit-user-select: none;
   -moz-user-select: none;
   -ms-user-select: none;
}
text {
   fill: #9600ff;
   font-weight: bold;
   font-style: italic;   

   text-rendering: optimizeLegibility;
}
#pscIwx5 .plot-title {
   fill: #171717;
   font-family: "IBM Plex Mono", "Lucida Grande", sans-serif;
   font-size: 16.0px;
   font-weight: bold;
   font-style: normal;   
}
#pscIwx5 .plot-subtitle {
   fill: #171717;
   font-family: "IBM Plex Mono", "Lucida Grande", sans-serif;
   font-size: 15.0px;
   font-weight: normal;
   font-style: normal;   
}
#pscIwx5 .plot-caption {
   fill: #171717;
   font-family: "IBM Plex Mono", "Lucida Grande", sans-serif;
   font-size: 13.0px;
   font-weight: normal;
   font-style: normal;   
}
#pscIwx5 .legend-title {
   fill: #171717;
   font-family: "IBM Plex Mono", "Lucida Grande", sans-serif;
   font-size: 15.0px;
   font-weight: normal;
   font-style: normal;   
}
#pscIwx5 .legend-item {
   fill: #474747;
   font-family: "IBM Plex Mono", "Lucida Grande", sans-serif;
   font-size: 13.0px;
   font-weight: normal;
   font-style: normal;   
}
#pscIwx5 .axis-title-x {
   fill: #474747;
   font-family: "IBM Plex Mono", "Lucida Grande", sans-serif;
   font-size: 15.0px;
   font-weight: normal;
   font-style: normal;   
}
#pscIwx5 .axis-text-x {
   fill: #474747;
   font-family: "IBM Plex Mono", "Lucida Grande", sans-serif;
   font-size: 13.0px;
   font-weight: normal;
   font-style: normal;   
}
#dWZvUU8 .axis-tooltip-text-x {
   fill: #ffffff;
   font-family: "IBM Plex Mono", "Lucida Grande", sans-serif;
   font-size: 13.0px;
   font-weight: normal;
   font-style: normal;   
}
#pscIwx5 .axis-title-y {
   fill: #474747;
   font-family: "IBM Plex Mono", "Lucida Grande", sans-serif;
   font-size: 15.0px;
   font-weight: normal;
   font-style: normal;   
}
#pscIwx5 .axis-text-y {
   fill: #474747;
   font-family: "IBM Plex Mono", "Lucida Grande", sans-serif;
   font-size: 13.0px;
   font-weight: normal;
   font-style: normal;   
}
#dWZvUU8 .axis-tooltip-text-y {
   fill: #ffffff;
   font-family: "IBM Plex Mono", "Lucida Grande", sans-serif;
   font-size: 13.0px;
   font-weight: normal;
   font-style: normal;   
}
#pscIwx5 .facet-strip-text-x {
   fill: #474747;
   font-family: "IBM Plex Mono", "Lucida Grande", sans-serif;
   font-size: 15.0px;
   font-weight: normal;
   font-style: normal;   
}
#pscIwx5 .facet-strip-text-y {
   fill: #474747;
   font-family: "IBM Plex Mono", "Lucida Grande", sans-serif;
   font-size: 15.0px;
   font-weight: normal;
   font-style: normal;   
}
#dWZvUU8 .tooltip-text {
   fill: #474747;
   font-family: "IBM Plex Mono", "Lucida Grande", sans-serif;
   font-size: 13.0px;
   font-weight: normal;
   font-style: normal;   
}
#dWZvUU8 .tooltip-title {
   fill: #474747;
   font-family: "IBM Plex Mono", "Lucida Grande", sans-serif;
   font-size: 13.0px;
   font-weight: bold;
   font-style: normal;   
}
#dWZvUU8 .tooltip-label {
   fill: #474747;
   font-family: "IBM Plex Mono", "Lucida Grande", sans-serif;
   font-size: 13.0px;
   font-weight: bold;
   font-style: normal;   
}

  </style>
  <g id="pscIwx5">
    <rect x="0.0" y="0.0" height="400.0" width="600.0" stroke="rgb(71,71,71)" stroke-opacity="1.0" stroke-width="0.0" fill="rgb(255,255,255)" fill-opacity="1.0">
    </rect>
    <g transform="translate(64.22921348962129 34.0 ) ">
      <g transform="translate(0.0 363.0 ) ">
      </g>
      <g transform="">
      </g>
      <g transform="" clip-path="url(#chb2MzG)" clip-bounds-jfx="[rect (0.0, 0.0), (461.5415730207574, 363.0)]">
        <defs>
          <clipPath id="chb2MzG">
            <rect x="0.0" y="0.0" width="461.5415730207574" height="363.0">
            </rect>
          </clipPath>
        </defs>
        <g>
          
          <g >
            <rect fill="#5d9bd8" stroke="#000000" stroke-opacity="0.0" stroke-width="1.0" x="373.679301092494" y="276.8148363263447" height="18.284591091314383" width="18.284591091314383" />
            <rect fill="#5d9bd8" stroke="#000000" stroke-opacity="0.0" stroke-width="1.0" x="161.962983193064" y="65.09851842691467" height="18.284591091314383" width="18.284591091314383" />
            <rect fill="#93e6cc" stroke="#000000" stroke-opacity="0.0" stroke-width="1.0" x="296.6915491290649" y="84.34545641777191" height="18.284591091314383" width="18.284591091314383" />
            <rect fill="#93e6cc" stroke="#000000" stroke-opacity="0.0" stroke-width="1.0" x="354.4323631016367" y="142.08627039034374" height="18.284591091314383" width="18.284591091314383" />
            <rect fill="#a6edcc" stroke="#000000" stroke-opacity="0.0" stroke-width="1.0" x="296.6915491290649" y="238.32096034463012" height="18.284591091314383" width="18.284591091314383" />
            <rect fill="#a6edcc" stroke="#000000" stroke-opacity="0.0" stroke-width="1.0" x="200.45685917477851" y="142.08627039034374" height="18.284591091314383" width="18.284591091314383" />
            <rect fill="#615ec4" stroke="#000000" stroke-opacity="0.0" stroke-width="1.0" x="181.20992118392127" y="122.83933239948647" height="18.284591091314383" width="18.284591091314383" />
            <rect fill="#615ec4" stroke="#000000" stroke-opacity="0.0" stroke-width="1.0" x="315.9384871199222" y="257.56789833548737" height="18.284591091314383" width="18.284591091314383" />
            <rect fill="#60b0d8" stroke="#000000" stroke-opacity="0.0" stroke-width="1.0" x="296.6915491290649" y="257.56789833548737" height="18.284591091314383" width="18.284591091314383" />
            <rect fill="#60b0d8" stroke="#000000" stroke-opacity="0.0" stroke-width="1.0" x="181.20992118392127" y="142.08627039034374" height="18.284591091314383" width="18.284591091314383" />
            <rect fill="#8ce2cb" stroke="#000000" stroke-opacity="0.0" stroke-width="1.0" x="238.95073515649307" y="161.33320838120102" height="18.284591091314383" width="18.284591091314383" />
            <rect fill="#8ce2cb" stroke="#000000" stroke-opacity="0.0" stroke-width="1.0" x="277.4446111382076" y="199.82708436291557" height="18.284591091314383" width="18.284591091314383" />
            <rect fill="#693495" stroke="#000000" stroke-opacity="0.0" stroke-width="1.0" x="181.20992118392127" y="84.34545641777191" height="18.284591091314383" width="18.284591091314383" />
            <rect fill="#693495" stroke="#000000" stroke-opacity="0.0" stroke-width="1.0" x="354.4323631016367" y="257.56789833548737" height="18.284591091314383" width="18.284591091314383" />
            <rect fill="#d0f6d5" stroke="#000000" stroke-opacity="0.0" stroke-width="1.0" x="219.70379716563582" y="180.5801463720583" height="18.284591091314383" width="18.284591091314383" />
            <rect fill="#d0f6d5" stroke="#000000" stroke-opacity="0.0" stroke-width="1.0" x="258.1976731473503" y="219.07402235377282" height="18.284591091314383" width="18.284591091314383" />
            <rect fill="#d2f7d5" stroke="#000000" stroke-opacity="0.0" stroke-width="1.0" x="238.95073515649307" y="65.09851842691467" height="18.284591091314383" width="18.284591091314383" />
            <rect fill="#d2f7d5" stroke="#000000" stroke-opacity="0.0" stroke-width="1.0" x="373.679301092494" y="199.82708436291557" height="18.284591091314383" width="18.284591091314383" />
            <rect fill="#b7f0ce" stroke="#000000" stroke-opacity="0.0" stroke-width="1.0" x="219.70379716563582" y="84.34545641777191" height="18.284591091314383" width="18.284591091314383" />
            <rect fill="#b7f0ce" stroke="#000000" stroke-opacity="0.0" stroke-width="1.0" x="354.4323631016367" y="219.07402235377282" height="18.284591091314383" width="18.284591091314383" />
            <rect fill="#d9f8d8" stroke="#000000" stroke-opacity="0.0" stroke-width="1.0" x="335.1854251107794" y="199.82708436291557" height="18.284591091314383" width="18.284591091314383" />
            <rect fill="#d9f8d8" stroke="#000000" stroke-opacity="0.0" stroke-width="1.0" x="238.95073515649307" y="103.59239440862919" height="18.284591091314383" width="18.284591091314383" />
            <rect fill="#d6f8d6" stroke="#000000" stroke-opacity="0.0" stroke-width="1.0" x="258.1976731473503" y="238.32096034463012" height="18.284591091314383" width="18.284591091314383" />
            <rect fill="#d6f8d6" stroke="#000000" stroke-opacity="0.0" stroke-width="1.0" x="200.45685917477851" y="180.5801463720583" height="18.284591091314383" width="18.284591091314383" />
            <rect fill="#a5edcc" stroke="#000000" stroke-opacity="0.0" stroke-width="1.0" x="238.95073515649307" y="84.34545641777191" height="18.284591091314383" width="18.284591091314383" />
            <rect fill="#a5edcc" stroke="#000000" stroke-opacity="0.0" stroke-width="1.0" x="354.4323631016367" y="199.82708436291557" height="18.284591091314383" width="18.284591091314383" />
            <rect fill="#a7edcc" stroke="#000000" stroke-opacity="0.0" stroke-width="1.0" x="219.70379716563582" y="276.8148363263447" height="18.284591091314383" width="18.284591091314383" />
            <rect fill="#a7edcc" stroke="#000000" stroke-opacity="0.0" stroke-width="1.0" x="161.962983193064" y="219.07402235377282" height="18.284591091314383" width="18.284591091314383" />
            <rect fill="#651c5c" stroke="#000000" stroke-opacity="0.0" stroke-width="1.0" x="335.1854251107794" y="65.09851842691467" height="18.284591091314383" width="18.284591091314383" />
            <rect fill="#651c5c" stroke="#000000" stroke-opacity="0.0" stroke-width="1.0" x="373.679301092494" y="103.59239440862919" height="18.284591091314383" width="18.284591091314383" />
            <rect fill="#6fccd2" stroke="#000000" stroke-opacity="0.0" stroke-width="1.0" x="277.4446111382076" y="122.83933239948647" height="18.284591091314383" width="18.284591091314383" />
            <rect fill="#6fccd2" stroke="#000000" stroke-opacity="0.0" stroke-width="1.0" x="315.9384871199222" y="161.33320838120102" height="18.284591091314383" width="18.284591091314383" />
            <rect fill="#5fa6d8" stroke="#000000" stroke-opacity="0.0" stroke-width="1.0" x="258.1976731473503" y="84.34545641777191" height="18.284591091314383" width="18.284591091314383" />
            <rect fill="#5fa6d8" stroke="#000000" stroke-opacity="0.0" stroke-width="1.0" x="354.4323631016367" y="180.5801463720583" height="18.284591091314383" width="18.284591091314383" />
            <rect fill="#5d9ad8" stroke="#000000" stroke-opacity="0.0" stroke-width="1.0" x="258.1976731473503" y="161.33320838120102" height="18.284591091314383" width="18.284591091314383" />
            <rect fill="#5d9ad8" stroke="#000000" stroke-opacity="0.0" stroke-width="1.0" x="277.4446111382076" y="180.5801463720583" height="18.284591091314383" width="18.284591091314383" />
            <rect fill="#654eb5" stroke="#000000" stroke-opacity="0.0" stroke-width="1.0" x="277.4446111382076" y="276.8148363263447" height="18.284591091314383" width="18.284591091314383" />
            <rect fill="#654eb5" stroke="#000000" stroke-opacity="0.0" stroke-width="1.0" x="161.962983193064" y="161.33320838120102" height="18.284591091314383" width="18.284591091314383" />
            <rect fill="#5c92d7" stroke="#000000" stroke-opacity="0.0" stroke-width="1.0" x="181.20992118392127" y="65.09851842691467" height="18.284591091314383" width="18.284591091314383" />
            <rect fill="#5c92d7" stroke="#000000" stroke-opacity="0.0" stroke-width="1.0" x="373.679301092494" y="257.56789833548737" height="18.284591091314383" width="18.284591091314383" />
            <rect fill="#9aeacd" stroke="#000000" stroke-opacity="0.0" stroke-width="1.0" x="219.70379716563582" y="199.82708436291557" height="18.284591091314383" width="18.284591091314383" />
            <rect fill="#9aeacd" stroke="#000000" stroke-opacity="0.0" stroke-width="1.0" x="238.95073515649307" y="219.07402235377282" height="18.284591091314383" width="18.284591091314383" />
            <rect fill="#76d5d3" stroke="#000000" stroke-opacity="0.0" stroke-width="1.0" x="238.95073515649307" y="238.32096034463012" height="18.284591091314383" width="18.284591091314383" />
            <rect fill="#76d5d3" stroke="#000000" stroke-opacity="0.0" stroke-width="1.0" x="200.45685917477851" y="199.82708436291557" height="18.284591091314383" width="18.284591091314383" />
            <rect fill="#a5edcc" stroke="#000000" stroke-opacity="0.0" stroke-width="1.0" x="219.70379716563582" y="257.56789833548737" height="18.284591091314383" width="18.284591091314383" />
            <rect fill="#a5edcc" stroke="#000000" stroke-opacity="0.0" stroke-width="1.0" x="181.20992118392127" y="219.07402235377282" height="18.284591091314383" width="18.284591091314383" />
            <rect fill="#5c8ed7" stroke="#000000" stroke-opacity="0.0" stroke-width="1.0" x="258.1976731473503" y="122.83933239948647" height="18.284591091314383" width="18.284591091314383" />
            <rect fill="#5c8ed7" stroke="#000000" stroke-opacity="0.0" stroke-width="1.0" x="315.9384871199222" y="180.5801463720583" height="18.284591091314383" width="18.284591091314383" />
            <rect fill="#71d0d3" stroke="#000000" stroke-opacity="0.0" stroke-width="1.0" x="335.1854251107794" y="142.08627039034374" height="18.284591091314383" width="18.284591091314383" />
            <rect fill="#71d0d3" stroke="#000000" stroke-opacity="0.0" stroke-width="1.0" x="296.6915491290649" y="103.59239440862919" height="18.284591091314383" width="18.284591091314383" />
            <rect fill="#67bfd4" stroke="#000000" stroke-opacity="0.0" stroke-width="1.0" x="296.6915491290649" y="65.09851842691467" height="18.284591091314383" width="18.284591091314383" />
            <rect fill="#67bfd4" stroke="#000000" stroke-opacity="0.0" stroke-width="1.0" x="373.679301092494" y="142.08627039034374" height="18.284591091314383" width="18.284591091314383" />
            <rect fill="#baf1ce" stroke="#000000" stroke-opacity="0.0" stroke-width="1.0" x="181.20992118392127" y="238.32096034463012" height="18.284591091314383" width="18.284591091314383" />
            <rect fill="#baf1ce" stroke="#000000" stroke-opacity="0.0" stroke-width="1.0" x="200.45685917477851" y="257.56789833548737" height="18.284591091314383" width="18.284591091314383" />
            <rect fill="#89e0cb" stroke="#000000" stroke-opacity="0.0" stroke-width="1.0" x="277.4446111382076" y="84.34545641777191" height="18.284591091314383" width="18.284591091314383" />
            <rect fill="#89e0cb" stroke="#000000" stroke-opacity="0.0" stroke-width="1.0" x="354.4323631016367" y="161.33320838120102" height="18.284591091314383" width="18.284591091314383" />
            <rect fill="#a2eccc" stroke="#000000" stroke-opacity="0.0" stroke-width="1.0" x="200.45685917477851" y="276.8148363263447" height="18.284591091314383" width="18.284591091314383" />
            <rect fill="#a2eccc" stroke="#000000" stroke-opacity="0.0" stroke-width="1.0" x="161.962983193064" y="238.32096034463012" height="18.284591091314383" width="18.284591091314383" />
            <rect fill="#96e8cc" stroke="#000000" stroke-opacity="0.0" stroke-width="1.0" x="315.9384871199222" y="276.8148363263447" height="18.284591091314383" width="18.284591091314383" />
            <rect fill="#96e8cc" stroke="#000000" stroke-opacity="0.0" stroke-width="1.0" x="161.962983193064" y="122.83933239948647" height="18.284591091314383" width="18.284591091314383" />
            <rect fill="#9beacd" stroke="#000000" stroke-opacity="0.0" stroke-width="1.0" x="219.70379716563582" y="142.08627039034374" height="18.284591091314383" width="18.284591091314383" />
            <rect fill="#9beacd" stroke="#000000" stroke-opacity="0.0" stroke-width="1.0" x="296.6915491290649" y="219.07402235377282" height="18.284591091314383" width="18.284591091314383" />
            <rect fill="#a9edcc" stroke="#000000" stroke-opacity="0.0" stroke-width="1.0" x="238.95073515649307" y="122.83933239948647" height="18.284591091314383" width="18.284591091314383" />
            <rect fill="#a9edcc" stroke="#000000" stroke-opacity="0.0" stroke-width="1.0" x="315.9384871199222" y="199.82708436291557" height="18.284591091314383" width="18.284591091314383" />
            <rect fill="#641a57" stroke="#000000" stroke-opacity="0.0" stroke-width="1.0" x="315.9384871199222" y="84.34545641777191" height="18.284591091314383" width="18.284591091314383" />
            <rect fill="#641a57" stroke="#000000" stroke-opacity="0.0" stroke-width="1.0" x="354.4323631016367" y="122.83933239948647" height="18.284591091314383" width="18.284591091314383" />
            <rect fill="#d4f7d6" stroke="#000000" stroke-opacity="0.0" stroke-width="1.0" x="200.45685917477851" y="65.09851842691467" height="18.284591091314383" width="18.284591091314383" />
            <rect fill="#d4f7d6" stroke="#000000" stroke-opacity="0.0" stroke-width="1.0" x="373.679301092494" y="238.32096034463012" height="18.284591091314383" width="18.284591091314383" />
            <rect fill="#aaeecc" stroke="#000000" stroke-opacity="0.0" stroke-width="1.0" x="219.70379716563582" y="161.33320838120102" height="18.284591091314383" width="18.284591091314383" />
            <rect fill="#aaeecc" stroke="#000000" stroke-opacity="0.0" stroke-width="1.0" x="277.4446111382076" y="219.07402235377282" height="18.284591091314383" width="18.284591091314383" />
            <rect fill="#83dccb" stroke="#000000" stroke-opacity="0.0" stroke-width="1.0" x="181.20992118392127" y="276.8148363263447" height="18.284591091314383" width="18.284591091314383" />
            <rect fill="#83dccb" stroke="#000000" stroke-opacity="0.0" stroke-width="1.0" x="161.962983193064" y="257.56789833548737" height="18.284591091314383" width="18.284591091314383" />
            <rect fill="#cbf5d4" stroke="#000000" stroke-opacity="0.0" stroke-width="1.0" x="238.95073515649307" y="180.5801463720583" height="18.284591091314383" width="18.284591091314383" />
            <rect fill="#cbf5d4" stroke="#000000" stroke-opacity="0.0" stroke-width="1.0" x="258.1976731473503" y="199.82708436291557" height="18.284591091314383" width="18.284591091314383" />
            <rect fill="#a9edcc" stroke="#000000" stroke-opacity="0.0" stroke-width="1.0" x="238.95073515649307" y="276.8148363263447" height="18.284591091314383" width="18.284591091314383" />
            <rect fill="#a9edcc" stroke="#000000" stroke-opacity="0.0" stroke-width="1.0" x="161.962983193064" y="199.82708436291557" height="18.284591091314383" width="18.284591091314383" />
            <rect fill="#d1f6d5" stroke="#000000" stroke-opacity="0.0" stroke-width="1.0" x="219.70379716563582" y="103.59239440862919" height="18.284591091314383" width="18.284591091314383" />
            <rect fill="#d1f6d5" stroke="#000000" stroke-opacity="0.0" stroke-width="1.0" x="335.1854251107794" y="219.07402235377282" height="18.284591091314383" width="18.284591091314383" />
            <rect fill="#693799" stroke="#000000" stroke-opacity="0.0" stroke-width="1.0" x="335.1854251107794" y="180.5801463720583" height="18.284591091314383" width="18.284591091314383" />
            <rect fill="#693799" stroke="#000000" stroke-opacity="0.0" stroke-width="1.0" x="258.1976731473503" y="103.59239440862919" height="18.284591091314383" width="18.284591091314383" />
            <rect fill="#a0ebcc" stroke="#000000" stroke-opacity="0.0" stroke-width="1.0" x="200.45685917477851" y="84.34545641777191" height="18.284591091314383" width="18.284591091314383" />
            <rect fill="#a0ebcc" stroke="#000000" stroke-opacity="0.0" stroke-width="1.0" x="354.4323631016367" y="238.32096034463012" height="18.284591091314383" width="18.284591091314383" />
            <rect fill="#7ad7d0" stroke="#000000" stroke-opacity="0.0" stroke-width="1.0" x="161.962983193064" y="84.34545641777191" height="18.284591091314383" width="18.284591091314383" />
            <rect fill="#7ad7d0" stroke="#000000" stroke-opacity="0.0" stroke-width="1.0" x="354.4323631016367" y="276.8148363263447" height="18.284591091314383" width="18.284591091314383" />
            <rect fill="#9aeacc" stroke="#000000" stroke-opacity="0.0" stroke-width="1.0" x="296.6915491290649" y="122.83933239948647" height="18.284591091314383" width="18.284591091314383" />
            <rect fill="#9aeacc" stroke="#000000" stroke-opacity="0.0" stroke-width="1.0" x="315.9384871199222" y="142.08627039034374" height="18.284591091314383" width="18.284591091314383" />
            <rect fill="#9ceacc" stroke="#000000" stroke-opacity="0.0" stroke-width="1.0" x="277.4446111382076" y="238.32096034463012" height="18.284591091314383" width="18.284591091314383" />
            <rect fill="#9ceacc" stroke="#000000" stroke-opacity="0.0" stroke-width="1.0" x="200.45685917477851" y="161.33320838120102" height="18.284591091314383" width="18.284591091314383" />
            <rect fill="#def9db" stroke="#000000" stroke-opacity="0.0" stroke-width="1.0" x="335.1854251107794" y="238.32096034463012" height="18.284591091314383" width="18.284591091314383" />
            <rect fill="#def9db" stroke="#000000" stroke-opacity="0.0" stroke-width="1.0" x="200.45685917477851" y="103.59239440862919" height="18.284591091314383" width="18.284591091314383" />
            <rect fill="#82dccb" stroke="#000000" stroke-opacity="0.0" stroke-width="1.0" x="181.20992118392127" y="161.33320838120102" height="18.284591091314383" width="18.284591091314383" />
            <rect fill="#82dccb" stroke="#000000" stroke-opacity="0.0" stroke-width="1.0" x="277.4446111382076" y="257.56789833548737" height="18.284591091314383" width="18.284591091314383" />
            <rect fill="#601347" stroke="#000000" stroke-opacity="0.0" stroke-width="1.0" x="258.1976731473503" y="65.09851842691467" height="18.284591091314383" width="18.284591091314383" />
            <rect fill="#601347" stroke="#000000" stroke-opacity="0.0" stroke-width="1.0" x="373.679301092494" y="180.5801463720583" height="18.284591091314383" width="18.284591091314383" />
            <rect fill="#5c88d6" stroke="#000000" stroke-opacity="0.0" stroke-width="1.0" x="335.1854251107794" y="257.56789833548737" height="18.284591091314383" width="18.284591091314383" />
            <rect fill="#5c88d6" stroke="#000000" stroke-opacity="0.0" stroke-width="1.0" x="181.20992118392127" y="103.59239440862919" height="18.284591091314383" width="18.284591091314383" />
            <rect fill="#78d7d1" stroke="#000000" stroke-opacity="0.0" stroke-width="1.0" x="258.1976731473503" y="276.8148363263447" height="18.284591091314383" width="18.284591091314383" />
            <rect fill="#78d7d1" stroke="#000000" stroke-opacity="0.0" stroke-width="1.0" x="161.962983193064" y="180.5801463720583" height="18.284591091314383" width="18.284591091314383" />
            <rect fill="#5b7ed4" stroke="#000000" stroke-opacity="0.0" stroke-width="1.0" x="373.679301092494" y="84.34545641777191" height="18.284591091314383" width="18.284591091314383" />
            <rect fill="#5b7ed4" stroke="#000000" stroke-opacity="0.0" stroke-width="1.0" x="354.4323631016367" y="65.09851842691467" height="18.284591091314383" width="18.284591091314383" />
            <rect fill="#7fdacc" stroke="#000000" stroke-opacity="0.0" stroke-width="1.0" x="335.1854251107794" y="122.83933239948647" height="18.284591091314383" width="18.284591091314383" />
            <rect fill="#7fdacc" stroke="#000000" stroke-opacity="0.0" stroke-width="1.0" x="315.9384871199222" y="103.59239440862919" height="18.284591091314383" width="18.284591091314383" />
            <rect fill="#bbf1ce" stroke="#000000" stroke-opacity="0.0" stroke-width="1.0" x="315.9384871199222" y="238.32096034463012" height="18.284591091314383" width="18.284591091314383" />
            <rect fill="#bbf1ce" stroke="#000000" stroke-opacity="0.0" stroke-width="1.0" x="200.45685917477851" y="122.83933239948647" height="18.284591091314383" width="18.284591091314383" />
            <rect fill="#9aeacc" stroke="#000000" stroke-opacity="0.0" stroke-width="1.0" x="219.70379716563582" y="238.32096034463012" height="18.284591091314383" width="18.284591091314383" />
            <rect fill="#9aeacc" stroke="#000000" stroke-opacity="0.0" stroke-width="1.0" x="200.45685917477851" y="219.07402235377282" height="18.284591091314383" width="18.284591091314383" />
            <rect fill="#bcf1cf" stroke="#000000" stroke-opacity="0.0" stroke-width="1.0" x="181.20992118392127" y="199.82708436291557" height="18.284591091314383" width="18.284591091314383" />
            <rect fill="#bcf1cf" stroke="#000000" stroke-opacity="0.0" stroke-width="1.0" x="238.95073515649307" y="257.56789833548737" height="18.284591091314383" width="18.284591091314383" />
            <rect fill="#6ecad2" stroke="#000000" stroke-opacity="0.0" stroke-width="1.0" x="335.1854251107794" y="276.8148363263447" height="18.284591091314383" width="18.284591091314383" />
            <rect fill="#6ecad2" stroke="#000000" stroke-opacity="0.0" stroke-width="1.0" x="161.962983193064" y="103.59239440862919" height="18.284591091314383" width="18.284591091314383" />
            <rect fill="#60afd8" stroke="#000000" stroke-opacity="0.0" stroke-width="1.0" x="277.4446111382076" y="65.09851842691467" height="18.284591091314383" width="18.284591091314383" />
            <rect fill="#60afd8" stroke="#000000" stroke-opacity="0.0" stroke-width="1.0" x="373.679301092494" y="161.33320838120102" height="18.284591091314383" width="18.284591091314383" />
            <rect fill="#d3f7d5" stroke="#000000" stroke-opacity="0.0" stroke-width="1.0" x="219.70379716563582" y="65.09851842691467" height="18.284591091314383" width="18.284591091314383" />
            <rect fill="#d3f7d5" stroke="#000000" stroke-opacity="0.0" stroke-width="1.0" x="373.679301092494" y="219.07402235377282" height="18.284591091314383" width="18.284591091314383" />
            <rect fill="#67c0d4" stroke="#000000" stroke-opacity="0.0" stroke-width="1.0" x="181.20992118392127" y="180.5801463720583" height="18.284591091314383" width="18.284591091314383" />
            <rect fill="#67c0d4" stroke="#000000" stroke-opacity="0.0" stroke-width="1.0" x="258.1976731473503" y="257.56789833548737" height="18.284591091314383" width="18.284591091314383" />
            <rect fill="#69287d" stroke="#000000" stroke-opacity="0.0" stroke-width="1.0" x="296.6915491290649" y="161.33320838120102" height="18.284591091314383" width="18.284591091314383" />
            <rect fill="#69287d" stroke="#000000" stroke-opacity="0.0" stroke-width="1.0" x="277.4446111382076" y="142.08627039034374" height="18.284591091314383" width="18.284591091314383" />
            <rect fill="#654eb5" stroke="#000000" stroke-opacity="0.0" stroke-width="1.0" x="296.6915491290649" y="276.8148363263447" height="18.284591091314383" width="18.284591091314383" />
            <rect fill="#654eb5" stroke="#000000" stroke-opacity="0.0" stroke-width="1.0" x="161.962983193064" y="142.08627039034374" height="18.284591091314383" width="18.284591091314383" />
            <rect fill="#7ad8cf" stroke="#000000" stroke-opacity="0.0" stroke-width="1.0" x="335.1854251107794" y="84.34545641777191" height="18.284591091314383" width="18.284591091314383" />
            <rect fill="#7ad8cf" stroke="#000000" stroke-opacity="0.0" stroke-width="1.0" x="354.4323631016367" y="103.59239440862919" height="18.284591091314383" width="18.284591091314383" />
            <rect fill="#caf4d4" stroke="#000000" stroke-opacity="0.0" stroke-width="1.0" x="219.70379716563582" y="122.83933239948647" height="18.284591091314383" width="18.284591091314383" />
            <rect fill="#caf4d4" stroke="#000000" stroke-opacity="0.0" stroke-width="1.0" x="315.9384871199222" y="219.07402235377282" height="18.284591091314383" width="18.284591091314383" />
            <rect fill="#adeecc" stroke="#000000" stroke-opacity="0.0" stroke-width="1.0" x="296.6915491290649" y="199.82708436291557" height="18.284591091314383" width="18.284591091314383" />
            <rect fill="#adeecc" stroke="#000000" stroke-opacity="0.0" stroke-width="1.0" x="238.95073515649307" y="142.08627039034374" height="18.284591091314383" width="18.284591091314383" />
            <rect fill="#60abd8" stroke="#000000" stroke-opacity="0.0" stroke-width="1.0" x="315.9384871199222" y="65.09851842691467" height="18.284591091314383" width="18.284591091314383" />
            <rect fill="#60abd8" stroke="#000000" stroke-opacity="0.0" stroke-width="1.0" x="373.679301092494" y="122.83933239948647" height="18.284591091314383" width="18.284591091314383" />
            <rect fill="#83dccb" stroke="#000000" stroke-opacity="0.0" stroke-width="1.0" x="296.6915491290649" y="180.5801463720583" height="18.284591091314383" width="18.284591091314383" />
            <rect fill="#83dccb" stroke="#000000" stroke-opacity="0.0" stroke-width="1.0" x="258.1976731473503" y="142.08627039034374" height="18.284591091314383" width="18.284591091314383" />
            <rect fill="#77d6d2" stroke="#000000" stroke-opacity="0.0" stroke-width="1.0" x="335.1854251107794" y="161.33320838120102" height="18.284591091314383" width="18.284591091314383" />
            <rect fill="#77d6d2" stroke="#000000" stroke-opacity="0.0" stroke-width="1.0" x="277.4446111382076" y="103.59239440862919" height="18.284591091314383" width="18.284591091314383" />
          </g>
        </g>
      </g>
      <g transform="" clip-path="url(#cb5xL6s)" clip-bounds-jfx="[rect (0.0, 0.0), (461.5415730207574, 363.0)]">
        <defs>
          <clipPath id="cb5xL6s">
            <rect x="0.0" y="0.0" width="461.5415730207574" height="363.0">
            </rect>
          </clipPath>
        </defs>
        <rect x="161.48180974329253" y="64.6173449771432" height="0.9623468995428652" width="230.9632558902873" stroke="rgb(0,0,0)" stroke-opacity="1.0" fill="rgb(0,0,0)" fill-opacity="1.0" stroke-width="0.0">
        </rect>
      </g>
      <g transform="" clip-path="url(#cFVkIp6)" clip-bounds-jfx="[rect (0.0, 0.0), (461.5415730207574, 363.0)]">
        <defs>
          <clipPath id="cFVkIp6">
            <rect x="0.0" y="0.0" width="461.5415730207574" height="363.0">
            </rect>
          </clipPath>
        </defs>
        <rect x="391.48271873403695" y="64.6173449771432" height="230.96325589028726" width="0.9623468995428652" stroke="rgb(0,0,0)" stroke-opacity="1.0" fill="rgb(0,0,0)" fill-opacity="1.0" stroke-width="0.0">
        </rect>
      </g>
      <g transform="" clip-path="url(#cK7LqvO)" clip-bounds-jfx="[rect (0.0, 0.0), (461.5415730207574, 363.0)]">
        <defs>
          <clipPath id="cK7LqvO">
            <rect x="0.0" y="0.0" width="461.5415730207574" height="363.0">
            </rect>
          </clipPath>
        </defs>
        <rect x="161.48180974329253" y="294.6182539678876" height="0.9623468995428652" width="230.9632558902873" stroke="rgb(0,0,0)" stroke-opacity="1.0" fill="rgb(0,0,0)" fill-opacity="1.0" stroke-width="0.0">
        </rect>
      </g>
      <g transform="" clip-path="url(#ctNrknT)" clip-bounds-jfx="[rect (0.0, 0.0), (461.5415730207574, 363.0)]">
        <defs>
          <clipPath id="ctNrknT">
            <rect x="0.0" y="0.0" width="461.5415730207574" height="363.0">
            </rect>
          </clipPath>
        </defs>
        <rect x="161.48180974329253" y="64.6173449771432" height="230.96325589028726" width="0.9623468995428652" stroke="rgb(0,0,0)" stroke-opacity="1.0" fill="rgb(0,0,0)" fill-opacity="1.0" stroke-width="0.0">
        </rect>
      </g>
      <g transform="" clip-path="url(#cubHiqx)" clip-bounds-jfx="[rect (0.0, 0.0), (461.5415730207574, 363.0)]">
        <defs>
          <clipPath id="cubHiqx">
            <rect x="0.0" y="0.0" width="461.5415730207574" height="363.0">
            </rect>
          </clipPath>
        </defs>
        <g>
          <path d="M335.71170857146694 17.702933624428624 L335.71170857146694 17.702933624428624 L337.1552289207812 17.702933624428624 L337.1552289207812 24.941472316485886 L335.71170857146694 24.941472316485886 L335.71170857146694 17.702933624428624 Z" fill="rgb(0,0,0)" stroke-width="1.0" stroke="rgb(0,0,0)" stroke-opacity="0.0" fill-opacity="1.0">
          </path>
        </g>
        <g>
          <path d="M336.43346874612405 19.146453973742894 L336.43346874612405 19.146453973742894 L359.6275326921376 19.146453973742894 L359.6275326921376 17.702933624428624 L336.43346874612405 17.702933624428624 L336.43346874612405 19.146453973742894 Z" fill="rgb(0,0,0)" stroke-width="1.0" stroke="rgb(0,0,0)" stroke-opacity="0.0" fill-opacity="1.0">
          </path>
        </g>
        <g>
          <path d="M308.57051867029713 24.219712141828722 L308.57051867029713 24.219712141828722 L310.0140390196114 24.219712141828722 L310.0140390196114 30.680315557345693 L308.57051867029713 30.680315557345693 L308.57051867029713 24.219712141828722 Z" fill="rgb(0,0,0)" stroke-width="1.0" stroke="rgb(0,0,0)" stroke-opacity="0.0" fill-opacity="1.0">
          </path>
        </g>
        <g>
          <path d="M309.29227884495424 25.663232491142992 L309.29227884495424 25.663232491142992 L336.43346874612405 25.663232491142992 L336.43346874612405 24.219712141828722 L309.29227884495424 24.219712141828722 L309.29227884495424 25.663232491142992 Z" fill="rgb(0,0,0)" stroke-width="1.0" stroke="rgb(0,0,0)" stroke-opacity="0.0" fill-opacity="1.0">
          </path>
        </g>
        <g>
          <path d="M283.15854585424336 29.95855538268853 L283.15854585424336 29.95855538268853 L284.6020662035577 29.95855538268853 L284.6020662035577 36.409619203137936 L283.15854585424336 36.409619203137936 L283.15854585424336 29.95855538268853 Z" fill="rgb(0,0,0)" stroke-width="1.0" stroke="rgb(0,0,0)" stroke-opacity="0.0" fill-opacity="1.0">
          </path>
        </g>
        <g>
          <path d="M283.8803060289005 31.4020757320028 L283.8803060289005 31.4020757320028 L309.29227884495424 31.4020757320028 L309.29227884495424 29.95855538268853 L283.8803060289005 29.95855538268853 L283.8803060289005 31.4020757320028 Z" fill="rgb(0,0,0)" stroke-width="1.0" stroke="rgb(0,0,0)" stroke-opacity="0.0" fill-opacity="1.0">
          </path>
        </g>
        <g>
          <path d="M261.20500720842176 35.68785902848077 L261.20500720842176 35.68785902848077 L262.6485275577361 35.68785902848077 L262.6485275577361 42.06304969062785 L261.20500720842176 42.06304969062785 L261.20500720842176 35.68785902848077 Z" fill="rgb(0,0,0)" stroke-width="1.0" stroke="rgb(0,0,0)" stroke-opacity="0.0" fill-opacity="1.0">
          </path>
        </g>
        <g>
          <path d="M261.9267673830789 37.1313793777951 L261.9267673830789 37.1313793777951 L283.8803060289005 37.1313793777951 L283.8803060289005 35.68785902848077 L261.9267673830789 35.68785902848077 L261.9267673830789 37.1313793777951 Z" fill="rgb(0,0,0)" stroke-width="1.0" stroke="rgb(0,0,0)" stroke-opacity="0.0" fill-opacity="1.0">
          </path>
        </g>
        <g>
          <path d="M236.54486790763593 41.34128951597074 L236.54486790763593 41.34128951597074 L237.9883882569502 41.34128951597074 L237.9883882569502 47.65746240871266 L236.54486790763593 47.65746240871266 L236.54486790763593 41.34128951597074 Z" fill="rgb(0,0,0)" stroke-width="1.0" stroke="rgb(0,0,0)" stroke-opacity="0.0" fill-opacity="1.0">
          </path>
        </g>
        <g>
          <path d="M237.26662808229304 42.78480986528501 L237.26662808229304 42.78480986528501 L261.9267673830789 42.78480986528501 L261.9267673830789 41.34128951597074 L237.26662808229304 41.34128951597074 L237.26662808229304 42.78480986528501 Z" fill="rgb(0,0,0)" stroke-width="1.0" stroke="rgb(0,0,0)" stroke-opacity="0.0" fill-opacity="1.0">
          </path>
        </g>
        <g>
          <path d="M206.4715272969214 46.9357022340555 L206.4715272969214 46.9357022340555 L207.9150476462357 46.9357022340555 L207.9150476462357 53.11166951226684 L206.4715272969214 53.11166951226684 L206.4715272969214 46.9357022340555 Z" fill="rgb(0,0,0)" stroke-width="1.0" stroke="rgb(0,0,0)" stroke-opacity="0.0" fill-opacity="1.0">
          </path>
        </g>
        <g>
          <path d="M207.19328747157857 48.37922258336977 L207.19328747157857 48.37922258336977 L237.26662808229304 48.37922258336977 L237.26662808229304 46.9357022340555 L207.19328747157857 46.9357022340555 L207.19328747157857 48.37922258336977 Z" fill="rgb(0,0,0)" stroke-width="1.0" stroke="rgb(0,0,0)" stroke-opacity="0.0" fill-opacity="1.0">
          </path>
        </g>
        <g>
          <path d="M180.00698755949267 52.38990933760971 L180.00698755949267 52.38990933760971 L181.45050790880697 52.38990933760971 L181.45050790880697 58.55978825974509 L180.00698755949267 58.55978825974509 L180.00698755949267 52.38990933760971 Z" fill="rgb(0,0,0)" stroke-width="1.0" stroke="rgb(0,0,0)" stroke-opacity="0.0" fill-opacity="1.0">
          </path>
        </g>
        <g>
          <path d="M180.7287477341498 53.83342968692398 L180.7287477341498 53.83342968692398 L207.19328747157857 53.83342968692398 L207.19328747157857 52.38990933760971 L180.7287477341498 52.38990933760971 L180.7287477341498 53.83342968692398 Z" fill="rgb(0,0,0)" stroke-width="1.0" stroke="rgb(0,0,0)" stroke-opacity="0.0" fill-opacity="1.0">
          </path>
        </g>
        <g>
          <path d="M170.38351856406402 57.83802808508793 L170.38351856406402 57.83802808508793 L171.82703891337832 57.83802808508793 L171.82703891337832 64.6173449771432 L170.38351856406402 64.6173449771432 L170.38351856406402 57.83802808508793 Z" fill="rgb(0,0,0)" stroke-width="1.0" stroke="rgb(0,0,0)" stroke-opacity="0.0" fill-opacity="1.0">
          </path>
        </g>
        <g>
          <path d="M171.10527873872118 59.281548434402225 L171.10527873872118 59.281548434402225 L180.7287477341498 59.281548434402225 L180.7287477341498 57.83802808508793 L171.10527873872118 57.83802808508793 L171.10527873872118 59.281548434402225 Z" fill="rgb(0,0,0)" stroke-width="1.0" stroke="rgb(0,0,0)" stroke-opacity="0.0" fill-opacity="1.0">
          </path>
        </g>
        <g>
          <path d="M189.6304565549213 57.83802808508793 L189.6304565549213 57.83802808508793 L191.0739769042356 57.83802808508793 L191.0739769042356 64.6173449771432 L189.6304565549213 64.6173449771432 L189.6304565549213 57.83802808508793 Z" fill="rgb(0,0,0)" stroke-width="1.0" stroke="rgb(0,0,0)" stroke-opacity="0.0" fill-opacity="1.0">
          </path>
        </g>
        <g>
          <path d="M190.35221672957846 59.281548434402225 L190.35221672957846 59.281548434402225 L180.7287477341498 59.281548434402225 L180.7287477341498 57.83802808508793 L190.35221672957846 57.83802808508793 L190.35221672957846 59.281548434402225 Z" fill="rgb(0,0,0)" stroke-width="1.0" stroke="rgb(0,0,0)" stroke-opacity="0.0" fill-opacity="1.0">
          </path>
        </g>
        <g>
          <path d="M232.93606703435017 52.38990933760971 L232.93606703435017 52.38990933760971 L234.37958738366444 52.38990933760971 L234.37958738366444 58.55978825974509 L232.93606703435017 58.55978825974509 L232.93606703435017 52.38990933760971 Z" fill="rgb(0,0,0)" stroke-width="1.0" stroke="rgb(0,0,0)" stroke-opacity="0.0" fill-opacity="1.0">
          </path>
        </g>
        <g>
          <path d="M233.6578272090073 53.83342968692398 L233.6578272090073 53.83342968692398 L207.19328747157857 53.83342968692398 L207.19328747157857 52.38990933760971 L233.6578272090073 52.38990933760971 L233.6578272090073 53.83342968692398 Z" fill="rgb(0,0,0)" stroke-width="1.0" stroke="rgb(0,0,0)" stroke-opacity="0.0" fill-opacity="1.0">
          </path>
        </g>
        <g>
          <path d="M218.5008635412072 57.83802808508793 L218.5008635412072 57.83802808508793 L219.94438389052152 57.83802808508793 L219.94438389052152 61.6070887816731 L218.5008635412072 61.6070887816731 L218.5008635412072 57.83802808508793 Z" fill="rgb(0,0,0)" stroke-width="1.0" stroke="rgb(0,0,0)" stroke-opacity="0.0" fill-opacity="1.0">
          </path>
        </g>
        <g>
          <path d="M219.22262371586436 59.281548434402225 L219.22262371586436 59.281548434402225 L233.6578272090073 59.281548434402225 L233.6578272090073 57.83802808508793 L219.22262371586436 57.83802808508793 L219.22262371586436 59.281548434402225 Z" fill="rgb(0,0,0)" stroke-width="1.0" stroke="rgb(0,0,0)" stroke-opacity="0.0" fill-opacity="1.0">
          </path>
        </g>
        <g>
          <path d="M208.87739454577857 60.885328607015936 L208.87739454577857 60.885328607015936 L210.32091489509287 60.885328607015936 L210.32091489509287 64.6173449771432 L208.87739454577857 64.6173449771432 L208.87739454577857 60.885328607015936 Z" fill="rgb(0,0,0)" stroke-width="1.0" stroke="rgb(0,0,0)" stroke-opacity="0.0" fill-opacity="1.0">
          </path>
        </g>
        <g>
          <path d="M209.5991547204357 62.32884895633023 L209.5991547204357 62.32884895633023 L219.22262371586436 62.32884895633023 L219.22262371586436 60.885328607015936 L209.5991547204357 60.885328607015936 L209.5991547204357 62.32884895633023 Z" fill="rgb(0,0,0)" stroke-width="1.0" stroke="rgb(0,0,0)" stroke-opacity="0.0" fill-opacity="1.0">
          </path>
        </g>
        <g>
          <path d="M228.12433253663585 60.885328607015936 L228.12433253663585 60.885328607015936 L229.56785288595012 60.885328607015936 L229.56785288595012 64.6173449771432 L228.12433253663585 64.6173449771432 L228.12433253663585 60.885328607015936 Z" fill="rgb(0,0,0)" stroke-width="1.0" stroke="rgb(0,0,0)" stroke-opacity="0.0" fill-opacity="1.0">
          </path>
        </g>
        <g>
          <path d="M228.846092711293 62.32884895633023 L228.846092711293 62.32884895633023 L219.22262371586436 62.32884895633023 L219.22262371586436 60.885328607015936 L228.846092711293 60.885328607015936 L228.846092711293 62.32884895633023 Z" fill="rgb(0,0,0)" stroke-width="1.0" stroke="rgb(0,0,0)" stroke-opacity="0.0" fill-opacity="1.0">
          </path>
        </g>
        <g>
          <path d="M247.37127052749312 57.83802808508793 L247.37127052749312 57.83802808508793 L248.81479087680742 57.83802808508793 L248.81479087680742 64.6173449771432 L247.37127052749312 64.6173449771432 L247.37127052749312 57.83802808508793 Z" fill="rgb(0,0,0)" stroke-width="1.0" stroke="rgb(0,0,0)" stroke-opacity="0.0" fill-opacity="1.0">
          </path>
        </g>
        <g>
          <path d="M248.09303070215026 59.281548434402225 L248.09303070215026 59.281548434402225 L233.6578272090073 59.281548434402225 L233.6578272090073 57.83802808508793 L248.09303070215026 57.83802808508793 L248.09303070215026 59.281548434402225 Z" fill="rgb(0,0,0)" stroke-width="1.0" stroke="rgb(0,0,0)" stroke-opacity="0.0" fill-opacity="1.0">
          </path>
        </g>
        <g>
          <path d="M266.6182085183504 46.9357022340555 L266.6182085183504 46.9357022340555 L268.06172886766467 46.9357022340555 L268.06172886766467 64.6173449771432 L266.6182085183504 64.6173449771432 L266.6182085183504 46.9357022340555 Z" fill="rgb(0,0,0)" stroke-width="1.0" stroke="rgb(0,0,0)" stroke-opacity="0.0" fill-opacity="1.0">
          </path>
        </g>
        <g>
          <path d="M267.33996869300756 48.37922258336977 L267.33996869300756 48.37922258336977 L237.26662808229304 48.37922258336977 L237.26662808229304 46.9357022340555 L267.33996869300756 46.9357022340555 L267.33996869300756 48.37922258336977 Z" fill="rgb(0,0,0)" stroke-width="1.0" stroke="rgb(0,0,0)" stroke-opacity="0.0" fill-opacity="1.0">
          </path>
        </g>
        <g>
          <path d="M285.86514650920765 41.34128951597074 L285.86514650920765 41.34128951597074 L287.308666858522 41.34128951597074 L287.308666858522 64.6173449771432 L285.86514650920765 64.6173449771432 L285.86514650920765 41.34128951597074 Z" fill="rgb(0,0,0)" stroke-width="1.0" stroke="rgb(0,0,0)" stroke-opacity="0.0" fill-opacity="1.0">
          </path>
        </g>
        <g>
          <path d="M286.5869066838648 42.78480986528501 L286.5869066838648 42.78480986528501 L261.9267673830789 42.78480986528501 L261.9267673830789 41.34128951597074 L286.5869066838648 41.34128951597074 L286.5869066838648 42.78480986528501 Z" fill="rgb(0,0,0)" stroke-width="1.0" stroke="rgb(0,0,0)" stroke-opacity="0.0" fill-opacity="1.0">
          </path>
        </g>
        <g>
          <path d="M305.11208450006495 35.68785902848077 L305.11208450006495 35.68785902848077 L306.5556048493792 35.68785902848077 L306.5556048493792 64.6173449771432 L305.11208450006495 64.6173449771432 L305.11208450006495 35.68785902848077 Z" fill="rgb(0,0,0)" stroke-width="1.0" stroke="rgb(0,0,0)" stroke-opacity="0.0" fill-opacity="1.0">
          </path>
        </g>
        <g>
          <path d="M305.83384467472206 37.1313793777951 L305.83384467472206 37.1313793777951 L283.8803060289005 37.1313793777951 L283.8803060289005 35.68785902848077 L305.83384467472206 35.68785902848077 L305.83384467472206 37.1313793777951 Z" fill="rgb(0,0,0)" stroke-width="1.0" stroke="rgb(0,0,0)" stroke-opacity="0.0" fill-opacity="1.0">
          </path>
        </g>
        <g>
          <path d="M333.98249148635085 29.95855538268853 L333.98249148635085 29.95855538268853 L335.4260118356651 29.95855538268853 L335.4260118356651 36.409619203137936 L333.98249148635085 36.409619203137936 L333.98249148635085 29.95855538268853 Z" fill="rgb(0,0,0)" stroke-width="1.0" stroke="rgb(0,0,0)" stroke-opacity="0.0" fill-opacity="1.0">
          </path>
        </g>
        <g>
          <path d="M334.704251661008 31.4020757320028 L334.704251661008 31.4020757320028 L309.29227884495424 31.4020757320028 L309.29227884495424 29.95855538268853 L334.704251661008 29.95855538268853 L334.704251661008 31.4020757320028 Z" fill="rgb(0,0,0)" stroke-width="1.0" stroke="rgb(0,0,0)" stroke-opacity="0.0" fill-opacity="1.0">
          </path>
        </g>
        <g>
          <path d="M324.35902249092226 35.68785902848077 L324.35902249092226 35.68785902848077 L325.80254284023647 35.68785902848077 L325.80254284023647 64.6173449771432 L324.35902249092226 64.6173449771432 L324.35902249092226 35.68785902848077 Z" fill="rgb(0,0,0)" stroke-width="1.0" stroke="rgb(0,0,0)" stroke-opacity="0.0" fill-opacity="1.0">
          </path>
        </g>
        <g>
          <path d="M325.08078266557936 37.1313793777951 L325.08078266557936 37.1313793777951 L334.704251661008 37.1313793777951 L334.704251661008 35.68785902848077 L325.08078266557936 35.68785902848077 L325.08078266557936 37.1313793777951 Z" fill="rgb(0,0,0)" stroke-width="1.0" stroke="rgb(0,0,0)" stroke-opacity="0.0" fill-opacity="1.0">
          </path>
        </g>
        <g>
          <path d="M343.6059604817795 35.68785902848077 L343.6059604817795 35.68785902848077 L345.0494808310938 35.68785902848077 L345.0494808310938 64.6173449771432 L343.6059604817795 64.6173449771432 L343.6059604817795 35.68785902848077 Z" fill="rgb(0,0,0)" stroke-width="1.0" stroke="rgb(0,0,0)" stroke-opacity="0.0" fill-opacity="1.0">
          </path>
        </g>
        <g>
          <path d="M344.32772065643667 37.1313793777951 L344.32772065643667 37.1313793777951 L334.704251661008 37.1313793777951 L334.704251661008 35.68785902848077 L344.32772065643667 35.68785902848077 L344.32772065643667 37.1313793777951 Z" fill="rgb(0,0,0)" stroke-width="1.0" stroke="rgb(0,0,0)" stroke-opacity="0.0" fill-opacity="1.0">
          </path>
        </g>
        <g>
          <path d="M362.85289847263675 24.219712141828722 L362.85289847263675 24.219712141828722 L364.2964188219511 24.219712141828722 L364.2964188219511 64.6173449771432 L362.85289847263675 64.6173449771432 L362.85289847263675 24.219712141828722 Z" fill="rgb(0,0,0)" stroke-width="1.0" stroke="rgb(0,0,0)" stroke-opacity="0.0" fill-opacity="1.0">
          </path>
        </g>
        <g>
          <path d="M363.5746586472939 25.663232491142992 L363.5746586472939 25.663232491142992 L336.43346874612405 25.663232491142992 L336.43346874612405 24.219712141828722 L363.5746586472939 24.219712141828722 L363.5746586472939 25.663232491142992 Z" fill="rgb(0,0,0)" stroke-width="1.0" stroke="rgb(0,0,0)" stroke-opacity="0.0" fill-opacity="1.0">
          </path>
        </g>
        <g>
          <path d="M382.09983646349406 17.702933624428624 L382.09983646349406 17.702933624428624 L383.5433568128083 17.702933624428624 L383.5433568128083 64.6173449771432 L382.09983646349406 64.6173449771432 L382.09983646349406 17.702933624428624 Z" fill="rgb(0,0,0)" stroke-width="1.0" stroke="rgb(0,0,0)" stroke-opacity="0.0" fill-opacity="1.0">
          </path>
        </g>
        <g>
          <path d="M382.82159663815116 19.146453973742894 L382.82159663815116 19.146453973742894 L359.6275326921376 19.146453973742894 L359.6275326921376 17.702933624428624 L382.82159663815116 17.702933624428624 L382.82159663815116 19.146453973742894 Z" fill="rgb(0,0,0)" stroke-width="1.0" stroke="rgb(0,0,0)" stroke-opacity="0.0" fill-opacity="1.0">
          </path>
        </g>
      </g>
      <g transform="" clip-path="url(#ckINMBm)" clip-bounds-jfx="[rect (0.0, 0.0), (461.5415730207574, 363.0)]">
        <defs>
          <clipPath id="ckINMBm">
            <rect x="0.0" y="0.0" width="461.5415730207574" height="363.0">
            </rect>
          </clipPath>
        </defs>
        <g>
          <path d="M439.3594769862944 121.35070203925608 L439.3594769862944 121.35070203925608 L439.3594769862944 119.90718168994181 L432.12093829423713 119.90718168994181 L432.12093829423713 121.35070203925608 L439.3594769862944 121.35070203925608 Z" fill="rgb(0,0,0)" stroke-width="1.0" stroke="rgb(0,0,0)" stroke-opacity="0.0" fill-opacity="1.0">
          </path>
        </g>
        <g>
          <path d="M437.9159566369801 120.62894186459894 L437.9159566369801 120.62894186459894 L437.9159566369801 97.43487791858539 L439.3594769862944 97.43487791858539 L439.3594769862944 120.62894186459894 L437.9159566369801 120.62894186459894 Z" fill="rgb(0,0,0)" stroke-width="1.0" stroke="rgb(0,0,0)" stroke-opacity="0.0" fill-opacity="1.0">
          </path>
        </g>
        <g>
          <path d="M432.8426984688943 148.49189194042592 L432.8426984688943 148.49189194042592 L432.8426984688943 147.04837159111162 L426.3820950533773 147.04837159111162 L426.3820950533773 148.49189194042592 L432.8426984688943 148.49189194042592 Z" fill="rgb(0,0,0)" stroke-width="1.0" stroke="rgb(0,0,0)" stroke-opacity="0.0" fill-opacity="1.0">
          </path>
        </g>
        <g>
          <path d="M431.39917811958003 147.77013176576878 L431.39917811958003 147.77013176576878 L431.39917811958003 120.62894186459894 L432.8426984688943 120.62894186459894 L432.8426984688943 147.77013176576878 L431.39917811958003 147.77013176576878 Z" fill="rgb(0,0,0)" stroke-width="1.0" stroke="rgb(0,0,0)" stroke-opacity="0.0" fill-opacity="1.0">
          </path>
        </g>
        <g>
          <path d="M427.1038552280345 173.90386475647966 L427.1038552280345 173.90386475647966 L427.1038552280345 172.46034440716537 L420.6527914075851 172.46034440716537 L420.6527914075851 173.90386475647966 L427.1038552280345 173.90386475647966 Z" fill="rgb(0,0,0)" stroke-width="1.0" stroke="rgb(0,0,0)" stroke-opacity="0.0" fill-opacity="1.0">
          </path>
        </g>
        <g>
          <path d="M425.6603348787202 173.1821045818225 L425.6603348787202 173.1821045818225 L425.6603348787202 147.77013176576878 L427.1038552280345 147.77013176576878 L427.1038552280345 173.1821045818225 L425.6603348787202 173.1821045818225 Z" fill="rgb(0,0,0)" stroke-width="1.0" stroke="rgb(0,0,0)" stroke-opacity="0.0" fill-opacity="1.0">
          </path>
        </g>
        <g>
          <path d="M421.37455158224225 195.85740340230123 L421.37455158224225 195.85740340230123 L421.37455158224225 194.41388305298693 L414.99936092009517 194.41388305298693 L414.99936092009517 195.85740340230123 L421.37455158224225 195.85740340230123 Z" fill="rgb(0,0,0)" stroke-width="1.0" stroke="rgb(0,0,0)" stroke-opacity="0.0" fill-opacity="1.0">
          </path>
        </g>
        <g>
          <path d="M419.9310312329279 195.1356432276441 L419.9310312329279 195.1356432276441 L419.9310312329279 173.1821045818225 L421.37455158224225 173.1821045818225 L421.37455158224225 195.1356432276441 L419.9310312329279 195.1356432276441 Z" fill="rgb(0,0,0)" stroke-width="1.0" stroke="rgb(0,0,0)" stroke-opacity="0.0" fill-opacity="1.0">
          </path>
        </g>
        <g>
          <path d="M415.7211210947523 220.5175427030871 L415.7211210947523 220.5175427030871 L415.7211210947523 219.07402235377282 L409.40494820201036 219.07402235377282 L409.40494820201036 220.5175427030871 L415.7211210947523 220.5175427030871 Z" fill="rgb(0,0,0)" stroke-width="1.0" stroke="rgb(0,0,0)" stroke-opacity="0.0" fill-opacity="1.0">
          </path>
        </g>
        <g>
          <path d="M414.277600745438 219.79578252842998 L414.277600745438 219.79578252842998 L414.277600745438 195.1356432276441 L415.7211210947523 195.1356432276441 L415.7211210947523 219.79578252842998 L414.277600745438 219.79578252842998 Z" fill="rgb(0,0,0)" stroke-width="1.0" stroke="rgb(0,0,0)" stroke-opacity="0.0" fill-opacity="1.0">
          </path>
        </g>
        <g>
          <path d="M410.1267083766675 250.5908833138016 L410.1267083766675 250.5908833138016 L410.1267083766675 249.14736296448731 L403.9507410984562 249.14736296448731 L403.9507410984562 250.5908833138016 L410.1267083766675 250.5908833138016 Z" fill="rgb(0,0,0)" stroke-width="1.0" stroke="rgb(0,0,0)" stroke-opacity="0.0" fill-opacity="1.0">
          </path>
        </g>
        <g>
          <path d="M408.68318802735325 249.86912313914445 L408.68318802735325 249.86912313914445 L408.68318802735325 219.79578252842998 L410.1267083766675 219.79578252842998 L410.1267083766675 249.86912313914445 L408.68318802735325 249.86912313914445 Z" fill="rgb(0,0,0)" stroke-width="1.0" stroke="rgb(0,0,0)" stroke-opacity="0.0" fill-opacity="1.0">
          </path>
        </g>
        <g>
          <path d="M404.6725012731133 277.0554230512304 L404.6725012731133 277.0554230512304 L404.6725012731133 275.61190270191605 L398.50262235097796 275.61190270191605 L398.50262235097796 277.0554230512304 L404.6725012731133 277.0554230512304 Z" fill="rgb(0,0,0)" stroke-width="1.0" stroke="rgb(0,0,0)" stroke-opacity="0.0" fill-opacity="1.0">
          </path>
        </g>
        <g>
          <path d="M403.22898092379904 276.3336628765732 L403.22898092379904 276.3336628765732 L403.22898092379904 249.86912313914445 L404.6725012731133 249.86912313914445 L404.6725012731133 276.3336628765732 L403.22898092379904 276.3336628765732 Z" fill="rgb(0,0,0)" stroke-width="1.0" stroke="rgb(0,0,0)" stroke-opacity="0.0" fill-opacity="1.0">
          </path>
        </g>
        <g>
          <path d="M399.22438252563506 286.678892046659 L399.22438252563506 286.678892046659 L399.22438252563506 285.2353716973447 L392.4450656335798 285.2353716973447 L392.4450656335798 286.678892046659 L399.22438252563506 286.678892046659 Z" fill="rgb(0,0,0)" stroke-width="1.0" stroke="rgb(0,0,0)" stroke-opacity="0.0" fill-opacity="1.0">
          </path>
        </g>
        <g>
          <path d="M397.7808621763208 285.95713187200187 L397.7808621763208 285.95713187200187 L397.7808621763208 276.3336628765732 L399.22438252563506 276.3336628765732 L399.22438252563506 285.95713187200187 L397.7808621763208 285.95713187200187 Z" fill="rgb(0,0,0)" stroke-width="1.0" stroke="rgb(0,0,0)" stroke-opacity="0.0" fill-opacity="1.0">
          </path>
        </g>
        <g>
          <path d="M399.22438252563506 267.4319540558017 L399.22438252563506 267.4319540558017 L399.22438252563506 265.9884337064874 L392.4450656335798 265.9884337064874 L392.4450656335798 267.4319540558017 L399.22438252563506 267.4319540558017 Z" fill="rgb(0,0,0)" stroke-width="1.0" stroke="rgb(0,0,0)" stroke-opacity="0.0" fill-opacity="1.0">
          </path>
        </g>
        <g>
          <path d="M397.7808621763208 266.71019388114456 L397.7808621763208 266.71019388114456 L397.7808621763208 276.3336628765732 L399.22438252563506 276.3336628765732 L399.22438252563506 266.71019388114456 L397.7808621763208 266.71019388114456 Z" fill="rgb(0,0,0)" stroke-width="1.0" stroke="rgb(0,0,0)" stroke-opacity="0.0" fill-opacity="1.0">
          </path>
        </g>
        <g>
          <path d="M404.6725012731133 224.12634357637285 L404.6725012731133 224.12634357637285 L404.6725012731133 222.68282322705858 L398.50262235097796 222.68282322705858 L398.50262235097796 224.12634357637285 L404.6725012731133 224.12634357637285 Z" fill="rgb(0,0,0)" stroke-width="1.0" stroke="rgb(0,0,0)" stroke-opacity="0.0" fill-opacity="1.0">
          </path>
        </g>
        <g>
          <path d="M403.22898092379904 223.4045834017157 L403.22898092379904 223.4045834017157 L403.22898092379904 249.86912313914445 L404.6725012731133 249.86912313914445 L404.6725012731133 223.4045834017157 L403.22898092379904 223.4045834017157 Z" fill="rgb(0,0,0)" stroke-width="1.0" stroke="rgb(0,0,0)" stroke-opacity="0.0" fill-opacity="1.0">
          </path>
        </g>
        <g>
          <path d="M399.22438252563506 238.56154706951583 L399.22438252563506 238.56154706951583 L399.22438252563506 237.1180267202015 L395.4553218290499 237.1180267202015 L395.4553218290499 238.56154706951583 L399.22438252563506 238.56154706951583 Z" fill="rgb(0,0,0)" stroke-width="1.0" stroke="rgb(0,0,0)" stroke-opacity="0.0" fill-opacity="1.0">
          </path>
        </g>
        <g>
          <path d="M397.7808621763208 237.83978689485866 L397.7808621763208 237.83978689485866 L397.7808621763208 223.4045834017157 L399.22438252563506 223.4045834017157 L399.22438252563506 237.83978689485866 L397.7808621763208 237.83978689485866 Z" fill="rgb(0,0,0)" stroke-width="1.0" stroke="rgb(0,0,0)" stroke-opacity="0.0" fill-opacity="1.0">
          </path>
        </g>
        <g>
          <path d="M396.1770820037071 248.18501606494445 L396.1770820037071 248.18501606494445 L396.1770820037071 246.74149571563015 L392.4450656335798 246.74149571563015 L392.4450656335798 248.18501606494445 L396.1770820037071 248.18501606494445 Z" fill="rgb(0,0,0)" stroke-width="1.0" stroke="rgb(0,0,0)" stroke-opacity="0.0" fill-opacity="1.0">
          </path>
        </g>
        <g>
          <path d="M394.7335616543928 247.46325589028731 L394.7335616543928 247.46325589028731 L394.7335616543928 237.83978689485866 L396.1770820037071 237.83978689485866 L396.1770820037071 247.46325589028731 L394.7335616543928 247.46325589028731 Z" fill="rgb(0,0,0)" stroke-width="1.0" stroke="rgb(0,0,0)" stroke-opacity="0.0" fill-opacity="1.0">
          </path>
        </g>
        <g>
          <path d="M396.1770820037071 228.93807807408717 L396.1770820037071 228.93807807408717 L396.1770820037071 227.4945577247729 L392.4450656335798 227.4945577247729 L392.4450656335798 228.93807807408717 L396.1770820037071 228.93807807408717 Z" fill="rgb(0,0,0)" stroke-width="1.0" stroke="rgb(0,0,0)" stroke-opacity="0.0" fill-opacity="1.0">
          </path>
        </g>
        <g>
          <path d="M394.7335616543928 228.21631789943 L394.7335616543928 228.21631789943 L394.7335616543928 237.83978689485866 L396.1770820037071 237.83978689485866 L396.1770820037071 228.21631789943 L394.7335616543928 228.21631789943 Z" fill="rgb(0,0,0)" stroke-width="1.0" stroke="rgb(0,0,0)" stroke-opacity="0.0" fill-opacity="1.0">
          </path>
        </g>
        <g>
          <path d="M399.22438252563506 209.6911400832299 L399.22438252563506 209.6911400832299 L399.22438252563506 208.2476197339156 L392.4450656335798 208.2476197339156 L392.4450656335798 209.6911400832299 L399.22438252563506 209.6911400832299 Z" fill="rgb(0,0,0)" stroke-width="1.0" stroke="rgb(0,0,0)" stroke-opacity="0.0" fill-opacity="1.0">
          </path>
        </g>
        <g>
          <path d="M397.7808621763208 208.96937990857276 L397.7808621763208 208.96937990857276 L397.7808621763208 223.4045834017157 L399.22438252563506 223.4045834017157 L399.22438252563506 208.96937990857276 L397.7808621763208 208.96937990857276 Z" fill="rgb(0,0,0)" stroke-width="1.0" stroke="rgb(0,0,0)" stroke-opacity="0.0" fill-opacity="1.0">
          </path>
        </g>
        <g>
          <path d="M410.1267083766675 190.44420209237262 L410.1267083766675 190.44420209237262 L410.1267083766675 189.00068174305835 L392.4450656335798 189.00068174305835 L392.4450656335798 190.44420209237262 L410.1267083766675 190.44420209237262 Z" fill="rgb(0,0,0)" stroke-width="1.0" stroke="rgb(0,0,0)" stroke-opacity="0.0" fill-opacity="1.0">
          </path>
        </g>
        <g>
          <path d="M408.68318802735325 189.72244191771549 L408.68318802735325 189.72244191771549 L408.68318802735325 219.79578252842998 L410.1267083766675 219.79578252842998 L410.1267083766675 189.72244191771549 L408.68318802735325 189.72244191771549 Z" fill="rgb(0,0,0)" stroke-width="1.0" stroke="rgb(0,0,0)" stroke-opacity="0.0" fill-opacity="1.0">
          </path>
        </g>
        <g>
          <path d="M415.7211210947523 171.19726410151534 L415.7211210947523 171.19726410151534 L415.7211210947523 169.75374375220107 L392.4450656335798 169.75374375220107 L392.4450656335798 171.19726410151534 L415.7211210947523 171.19726410151534 Z" fill="rgb(0,0,0)" stroke-width="1.0" stroke="rgb(0,0,0)" stroke-opacity="0.0" fill-opacity="1.0">
          </path>
        </g>
        <g>
          <path d="M414.277600745438 170.4755039268582 L414.277600745438 170.4755039268582 L414.277600745438 195.1356432276441 L415.7211210947523 195.1356432276441 L415.7211210947523 170.4755039268582 L414.277600745438 170.4755039268582 Z" fill="rgb(0,0,0)" stroke-width="1.0" stroke="rgb(0,0,0)" stroke-opacity="0.0" fill-opacity="1.0">
          </path>
        </g>
        <g>
          <path d="M421.37455158224225 151.95032611065807 L421.37455158224225 151.95032611065807 L421.37455158224225 150.5068057613438 L392.4450656335798 150.5068057613438 L392.4450656335798 151.95032611065807 L421.37455158224225 151.95032611065807 Z" fill="rgb(0,0,0)" stroke-width="1.0" stroke="rgb(0,0,0)" stroke-opacity="0.0" fill-opacity="1.0">
          </path>
        </g>
        <g>
          <path d="M419.9310312329279 151.22856593600093 L419.9310312329279 151.22856593600093 L419.9310312329279 173.1821045818225 L421.37455158224225 173.1821045818225 L421.37455158224225 151.22856593600093 L419.9310312329279 151.22856593600093 Z" fill="rgb(0,0,0)" stroke-width="1.0" stroke="rgb(0,0,0)" stroke-opacity="0.0" fill-opacity="1.0">
          </path>
        </g>
        <g>
          <path d="M427.1038552280345 123.07991912437217 L427.1038552280345 123.07991912437217 L427.1038552280345 121.63639877505787 L420.6527914075851 121.63639877505787 L420.6527914075851 123.07991912437217 L427.1038552280345 123.07991912437217 Z" fill="rgb(0,0,0)" stroke-width="1.0" stroke="rgb(0,0,0)" stroke-opacity="0.0" fill-opacity="1.0">
          </path>
        </g>
        <g>
          <path d="M425.6603348787202 122.35815894971503 L425.6603348787202 122.35815894971503 L425.6603348787202 147.77013176576878 L427.1038552280345 147.77013176576878 L427.1038552280345 122.35815894971503 L425.6603348787202 122.35815894971503 Z" fill="rgb(0,0,0)" stroke-width="1.0" stroke="rgb(0,0,0)" stroke-opacity="0.0" fill-opacity="1.0">
          </path>
        </g>
        <g>
          <path d="M421.37455158224225 132.7033881198008 L421.37455158224225 132.7033881198008 L421.37455158224225 131.25986777048652 L392.4450656335798 131.25986777048652 L392.4450656335798 132.7033881198008 L421.37455158224225 132.7033881198008 Z" fill="rgb(0,0,0)" stroke-width="1.0" stroke="rgb(0,0,0)" stroke-opacity="0.0" fill-opacity="1.0">
          </path>
        </g>
        <g>
          <path d="M419.9310312329279 131.98162794514366 L419.9310312329279 131.98162794514366 L419.9310312329279 122.35815894971503 L421.37455158224225 122.35815894971503 L421.37455158224225 131.98162794514366 L419.9310312329279 131.98162794514366 Z" fill="rgb(0,0,0)" stroke-width="1.0" stroke="rgb(0,0,0)" stroke-opacity="0.0" fill-opacity="1.0">
          </path>
        </g>
        <g>
          <path d="M421.37455158224225 113.45645012894352 L421.37455158224225 113.45645012894352 L421.37455158224225 112.01292977962925 L392.4450656335798 112.01292977962925 L392.4450656335798 113.45645012894352 L421.37455158224225 113.45645012894352 Z" fill="rgb(0,0,0)" stroke-width="1.0" stroke="rgb(0,0,0)" stroke-opacity="0.0" fill-opacity="1.0">
          </path>
        </g>
        <g>
          <path d="M419.9310312329279 112.73468995428638 L419.9310312329279 112.73468995428638 L419.9310312329279 122.35815894971503 L421.37455158224225 122.35815894971503 L421.37455158224225 112.73468995428638 L419.9310312329279 112.73468995428638 Z" fill="rgb(0,0,0)" stroke-width="1.0" stroke="rgb(0,0,0)" stroke-opacity="0.0" fill-opacity="1.0">
          </path>
        </g>
        <g>
          <path d="M432.8426984688943 94.20951213808627 L432.8426984688943 94.20951213808627 L432.8426984688943 92.76599178877197 L392.4450656335798 92.76599178877197 L392.4450656335798 94.20951213808627 L432.8426984688943 94.20951213808627 Z" fill="rgb(0,0,0)" stroke-width="1.0" stroke="rgb(0,0,0)" stroke-opacity="0.0" fill-opacity="1.0">
          </path>
        </g>
        <g>
          <path d="M431.39917811958003 93.4877519634291 L431.39917811958003 93.4877519634291 L431.39917811958003 120.62894186459894 L432.8426984688943 120.62894186459894 L432.8426984688943 93.4877519634291 L431.39917811958003 93.4877519634291 Z" fill="rgb(0,0,0)" stroke-width="1.0" stroke="rgb(0,0,0)" stroke-opacity="0.0" fill-opacity="1.0">
          </path>
        </g>
        <g>
          <path d="M439.3594769862944 74.96257414722899 L439.3594769862944 74.96257414722899 L439.3594769862944 73.5190537979147 L392.4450656335798 73.5190537979147 L392.4450656335798 74.96257414722899 L439.3594769862944 74.96257414722899 Z" fill="rgb(0,0,0)" stroke-width="1.0" stroke="rgb(0,0,0)" stroke-opacity="0.0" fill-opacity="1.0">
          </path>
        </g>
        <g>
          <path d="M437.9159566369801 74.24081397257186 L437.9159566369801 74.24081397257186 L437.9159566369801 97.43487791858539 L439.3594769862944 97.43487791858539 L439.3594769862944 74.24081397257186 L437.9159566369801 74.24081397257186 Z" fill="rgb(0,0,0)" stroke-width="1.0" stroke="rgb(0,0,0)" stroke-opacity="0.0" fill-opacity="1.0">
          </path>
        </g>
      </g>
      <g transform="" clip-path="url(#cAXR3or)" clip-bounds-jfx="[rect (0.0, 0.0), (461.5415730207574, 363.0)]">
        <defs>
          <clipPath id="cAXR3or">
            <rect x="0.0" y="0.0" width="461.5415730207574" height="363.0">
            </rect>
          </clipPath>
        </defs>
        <g transform="translate(171.10527873872118 297.5052946665162 ) rotate(315.0 ) ">
          <text style="fill:#3d3d3d;font:9.623468995428636px IBM Plex Mono;" fill-opacity="1.0" text-anchor="end" dy="0.35em">
          T0,PD1
          </text>
        </g>
        <g transform="translate(190.35221672957846 297.5052946665162 ) rotate(315.0 ) ">
          <text style="fill:#3d3d3d;font:9.623468995428636px IBM Plex Mono;" fill-opacity="1.0" text-anchor="end" dy="0.35em">
          M1,TIGIT
          </text>
        </g>
        <g transform="translate(209.5991547204357 297.5052946665162 ) rotate(315.0 ) ">
          <text style="fill:#3d3d3d;font:9.623468995428636px IBM Plex Mono;" fill-opacity="1.0" text-anchor="end" dy="0.35em">
          T0,DNEG
          </text>
        </g>
        <g transform="translate(228.846092711293 297.5052946665162 ) rotate(315.0 ) ">
          <text style="fill:#3d3d3d;font:9.623468995428636px IBM Plex Mono;" fill-opacity="1.0" text-anchor="end" dy="0.35em">
          M1,DNEG
          </text>
        </g>
        <g transform="translate(248.09303070215026 297.5052946665162 ) rotate(315.0 ) ">
          <text style="fill:#3d3d3d;font:9.623468995428636px IBM Plex Mono;" fill-opacity="1.0" text-anchor="end" dy="0.35em">
          M2,DNEG
          </text>
        </g>
        <g transform="translate(267.33996869300756 297.5052946665162 ) rotate(315.0 ) ">
          <text style="fill:#3d3d3d;font:9.623468995428636px IBM Plex Mono;" fill-opacity="1.0" text-anchor="end" dy="0.35em">
          M2,DPOS
          </text>
        </g>
        <g transform="translate(286.5869066838648 297.5052946665162 ) rotate(315.0 ) ">
          <text style="fill:#3d3d3d;font:9.623468995428636px IBM Plex Mono;" fill-opacity="1.0" text-anchor="end" dy="0.35em">
          M2,PD1
          </text>
        </g>
        <g transform="translate(305.83384467472206 297.5052946665162 ) rotate(315.0 ) ">
          <text style="fill:#3d3d3d;font:9.623468995428636px IBM Plex Mono;" fill-opacity="1.0" text-anchor="end" dy="0.35em">
          M1,PD1
          </text>
        </g>
        <g transform="translate(325.08078266557936 297.5052946665162 ) rotate(315.0 ) ">
          <text style="fill:#3d3d3d;font:9.623468995428636px IBM Plex Mono;" fill-opacity="1.0" text-anchor="end" dy="0.35em">
          M2,TIGIT
          </text>
        </g>
        <g transform="translate(344.32772065643667 297.5052946665162 ) rotate(315.0 ) ">
          <text style="fill:#3d3d3d;font:9.623468995428636px IBM Plex Mono;" fill-opacity="1.0" text-anchor="end" dy="0.35em">
          M1,DPOS
          </text>
        </g>
        <g transform="translate(363.5746586472939 297.5052946665162 ) rotate(315.0 ) ">
          <text style="fill:#3d3d3d;font:9.623468995428636px IBM Plex Mono;" fill-opacity="1.0" text-anchor="end" dy="0.35em">
          T0,TIGIT
          </text>
        </g>
        <g transform="translate(382.82159663815116 297.5052946665162 ) rotate(315.0 ) ">
          <text style="fill:#3d3d3d;font:9.623468995428636px IBM Plex Mono;" fill-opacity="1.0" text-anchor="end" dy="0.35em">
          T0,DPOS
          </text>
        </g>
      </g>
      <g transform="" clip-path="url(#c8u6TTJ)" clip-bounds-jfx="[rect (0.0, 0.0), (461.5415730207574, 363.0)]">
        <defs>
          <clipPath id="c8u6TTJ">
            <rect x="0.0" y="0.0" width="461.5415730207574" height="363.0">
            </rect>
          </clipPath>
        </defs>
        <g transform="translate(159.55711594420683 285.95713187200187 ) ">
          <text style="fill:#3d3d3d;font:9.623468995428636px IBM Plex Mono;" fill-opacity="1.0" text-anchor="end" dy="0.35em">
          T0,PD1
          </text>
        </g>
        <g transform="translate(159.55711594420683 266.71019388114456 ) ">
          <text style="fill:#3d3d3d;font:9.623468995428636px IBM Plex Mono;" fill-opacity="1.0" text-anchor="end" dy="0.35em">
          M1,TIGIT
          </text>
        </g>
        <g transform="translate(159.55711594420683 247.46325589028731 ) ">
          <text style="fill:#3d3d3d;font:9.623468995428636px IBM Plex Mono;" fill-opacity="1.0" text-anchor="end" dy="0.35em">
          T0,DNEG
          </text>
        </g>
        <g transform="translate(159.55711594420683 228.21631789943 ) ">
          <text style="fill:#3d3d3d;font:9.623468995428636px IBM Plex Mono;" fill-opacity="1.0" text-anchor="end" dy="0.35em">
          M1,DNEG
          </text>
        </g>
        <g transform="translate(159.55711594420683 208.96937990857276 ) ">
          <text style="fill:#3d3d3d;font:9.623468995428636px IBM Plex Mono;" fill-opacity="1.0" text-anchor="end" dy="0.35em">
          M2,DNEG
          </text>
        </g>
        <g transform="translate(159.55711594420683 189.72244191771549 ) ">
          <text style="fill:#3d3d3d;font:9.623468995428636px IBM Plex Mono;" fill-opacity="1.0" text-anchor="end" dy="0.35em">
          M2,DPOS
          </text>
        </g>
        <g transform="translate(159.55711594420683 170.4755039268582 ) ">
          <text style="fill:#3d3d3d;font:9.623468995428636px IBM Plex Mono;" fill-opacity="1.0" text-anchor="end" dy="0.35em">
          M2,PD1
          </text>
        </g>
        <g transform="translate(159.55711594420683 151.22856593600093 ) ">
          <text style="fill:#3d3d3d;font:9.623468995428636px IBM Plex Mono;" fill-opacity="1.0" text-anchor="end" dy="0.35em">
          M1,PD1
          </text>
        </g>
        <g transform="translate(159.55711594420683 131.98162794514366 ) ">
          <text style="fill:#3d3d3d;font:9.623468995428636px IBM Plex Mono;" fill-opacity="1.0" text-anchor="end" dy="0.35em">
          M2,TIGIT
          </text>
        </g>
        <g transform="translate(159.55711594420683 112.73468995428638 ) ">
          <text style="fill:#3d3d3d;font:9.623468995428636px IBM Plex Mono;" fill-opacity="1.0" text-anchor="end" dy="0.35em">
          M1,DPOS
          </text>
        </g>
        <g transform="translate(159.55711594420683 93.4877519634291 ) ">
          <text style="fill:#3d3d3d;font:9.623468995428636px IBM Plex Mono;" fill-opacity="1.0" text-anchor="end" dy="0.35em">
          T0,TIGIT
          </text>
        </g>
        <g transform="translate(159.55711594420683 74.24081397257186 ) ">
          <text style="fill:#3d3d3d;font:9.623468995428636px IBM Plex Mono;" fill-opacity="1.0" text-anchor="end" dy="0.35em">
          T0,DPOS
          </text>
        </g>
      </g>
      <g transform="" clip-path="url(#cCeygr4)" clip-bounds-jfx="[rect (0.0, 0.0), (461.5415730207574, 363.0)]">
        <defs>
          <clipPath id="cCeygr4">
            <rect x="0.0" y="0.0" width="461.5415730207574" height="363.0">
            </rect>
          </clipPath>
        </defs>
        <g transform="translate(39.26375350134887 64.6173449771432 ) rotate(270.0 ) ">
          <text style="fill:#3d3d3d;font:9.623468995428636px IBM Plex Mono;" fill-opacity="1.0" text-anchor="end">
          weight
          </text>
        </g>
      </g>
      <g transform="" clip-path="url(#ca5fycG)" clip-bounds-jfx="[rect (0.0, 0.0), (461.5415730207574, 363.0)]">
        <defs>
          <clipPath id="ca5fycG">
            <rect x="0.0" y="0.0" width="461.5415730207574" height="363.0">
            </rect>
          </clipPath>
        </defs>
        <g>
          
          <g >
            <rect fill="#def9db" stroke="#000000" stroke-opacity="0.0" stroke-width="1.0" x="41.1884473004346" y="175.4797078044811" height="4.619265117805696" width="18.28459109131441" />
            <rect fill="#d2f7d5" stroke="#000000" stroke-opacity="0.0" stroke-width="1.0" x="41.1884473004346" y="170.86044268667538" height="4.619265117805696" width="18.28459109131441" />
            <rect fill="#c8f4d3" stroke="#000000" stroke-opacity="0.0" stroke-width="1.0" x="41.1884473004346" y="166.24117756886963" height="4.619265117805696" width="18.28459109131441" />
            <rect fill="#b9f1ce" stroke="#000000" stroke-opacity="0.0" stroke-width="1.0" x="41.1884473004346" y="161.62191245106388" height="4.619265117805696" width="18.28459109131441" />
            <rect fill="#abeecc" stroke="#000000" stroke-opacity="0.0" stroke-width="1.0" x="41.1884473004346" y="157.00264733325812" height="4.619265117805696" width="18.28459109131441" />
            <rect fill="#9febcc" stroke="#000000" stroke-opacity="0.0" stroke-width="1.0" x="41.1884473004346" y="152.3833822154524" height="4.619265117805696" width="18.28459109131441" />
            <rect fill="#91e5cc" stroke="#000000" stroke-opacity="0.0" stroke-width="1.0" x="41.1884473004346" y="147.76411709764665" height="4.619265117805696" width="18.28459109131441" />
            <rect fill="#83dccb" stroke="#000000" stroke-opacity="0.0" stroke-width="1.0" x="41.1884473004346" y="143.1448519798409" height="4.619265117805696" width="18.28459109131441" />
            <rect fill="#77d6d2" stroke="#000000" stroke-opacity="0.0" stroke-width="1.0" x="41.1884473004346" y="138.52558686203517" height="4.619265117805696" width="18.28459109131441" />
            <rect fill="#6cc6d1" stroke="#000000" stroke-opacity="0.0" stroke-width="1.0" x="41.1884473004346" y="133.9063217442294" height="4.619265117805696" width="18.28459109131441" />
            <rect fill="#66bdd5" stroke="#000000" stroke-opacity="0.0" stroke-width="1.0" x="41.1884473004346" y="129.28705662642366" height="4.619265117805696" width="18.28459109131441" />
            <rect fill="#60b0d8" stroke="#000000" stroke-opacity="0.0" stroke-width="1.0" x="41.1884473004346" y="124.66779150861794" height="4.619265117805696" width="18.28459109131441" />
            <rect fill="#5e9fd8" stroke="#000000" stroke-opacity="0.0" stroke-width="1.0" x="41.1884473004346" y="120.04852639081219" height="4.619265117805696" width="18.28459109131441" />
            <rect fill="#5c8fd7" stroke="#000000" stroke-opacity="0.0" stroke-width="1.0" x="41.1884473004346" y="115.42926127300643" height="4.619265117805696" width="18.28459109131441" />
            <rect fill="#5b80d4" stroke="#000000" stroke-opacity="0.0" stroke-width="1.0" x="41.1884473004346" y="110.80999615520068" height="4.619265117805696" width="18.28459109131441" />
            <rect fill="#5d70ce" stroke="#000000" stroke-opacity="0.0" stroke-width="1.0" x="41.1884473004346" y="106.19073103739495" height="4.619265117805696" width="18.28459109131441" />
            <rect fill="#6162c7" stroke="#000000" stroke-opacity="0.0" stroke-width="1.0" x="41.1884473004346" y="101.57146591958917" height="4.619265117805696" width="18.28459109131441" />
            <rect fill="#6355bc" stroke="#000000" stroke-opacity="0.0" stroke-width="1.0" x="41.1884473004346" y="96.95220080178348" height="4.619265117805696" width="18.28459109131441" />
            <rect fill="#6749b0" stroke="#000000" stroke-opacity="0.0" stroke-width="1.0" x="41.1884473004346" y="92.33293568397767" height="4.619265117805696" width="18.28459109131441" />
            <rect fill="#683da2" stroke="#000000" stroke-opacity="0.0" stroke-width="1.0" x="41.1884473004346" y="87.71367056617197" height="4.619265117805696" width="18.28459109131441" />
            <rect fill="#693392" stroke="#000000" stroke-opacity="0.0" stroke-width="1.0" x="41.1884473004346" y="83.09440544836622" height="4.619265117805696" width="18.28459109131441" />
            <rect fill="#6a2a81" stroke="#000000" stroke-opacity="0.0" stroke-width="1.0" x="41.1884473004346" y="78.47514033056046" height="4.619265117805696" width="18.28459109131441" />
            <rect fill="#6b2373" stroke="#000000" stroke-opacity="0.0" stroke-width="1.0" x="41.1884473004346" y="73.85587521275474" height="4.619265117805696" width="18.28459109131441" />
            <rect fill="#681e64" stroke="#000000" stroke-opacity="0.0" stroke-width="1.0" x="41.1884473004346" y="69.23661009494896" height="4.619265117805696" width="18.28459109131441" />
            <rect fill="#631854" stroke="#000000" stroke-opacity="0.0" stroke-width="1.0" x="41.1884473004346" y="64.61734497714326" height="4.619265117805696" width="18.28459109131441" />
          </g>
        </g>
      </g>
      <g transform="" clip-path="url(#c7MpDfX)" clip-bounds-jfx="[rect (0.0, 0.0), (461.5415730207574, 363.0)]">
        <defs>
          <clipPath id="c7MpDfX">
            <rect x="0.0" y="0.0" width="461.5415730207574" height="363.0">
            </rect>
          </clipPath>
        </defs>
        <rect x="41.18844730043459" y="64.6173449771432" height="0.9623468995428652" width="18.28459109131441" stroke="rgb(0,0,0)" stroke-opacity="1.0" fill="rgb(0,0,0)" fill-opacity="1.0" stroke-width="0.0">
        </rect>
      </g>
      <g transform="" clip-path="url(#cbDlgnL)" clip-bounds-jfx="[rect (0.0, 0.0), (461.5415730207574, 363.0)]">
        <defs>
          <clipPath id="cbDlgnL">
            <rect x="0.0" y="0.0" width="461.5415730207574" height="363.0">
            </rect>
          </clipPath>
        </defs>
        <rect x="58.510691492206135" y="64.6173449771432" height="115.48162794514366" width="0.9623468995428652" stroke="rgb(0,0,0)" stroke-opacity="1.0" fill="rgb(0,0,0)" fill-opacity="1.0" stroke-width="0.0">
        </rect>
      </g>
      <g transform="" clip-path="url(#c8bWEPZ)" clip-bounds-jfx="[rect (0.0, 0.0), (461.5415730207574, 363.0)]">
        <defs>
          <clipPath id="c8bWEPZ">
            <rect x="0.0" y="0.0" width="461.5415730207574" height="363.0">
            </rect>
          </clipPath>
        </defs>
        <rect x="41.18844730043459" y="179.136626022744" height="0.9623468995428652" width="18.28459109131441" stroke="rgb(0,0,0)" stroke-opacity="1.0" fill="rgb(0,0,0)" fill-opacity="1.0" stroke-width="0.0">
        </rect>
      </g>
      <g transform="" clip-path="url(#cIW7smJ)" clip-bounds-jfx="[rect (0.0, 0.0), (461.5415730207574, 363.0)]">
        <defs>
          <clipPath id="cIW7smJ">
            <rect x="0.0" y="0.0" width="461.5415730207574" height="363.0">
            </rect>
          </clipPath>
        </defs>
        <rect x="41.18844730043459" y="64.6173449771432" height="115.48162794514366" width="0.9623468995428652" stroke="rgb(0,0,0)" stroke-opacity="1.0" fill="rgb(0,0,0)" fill-opacity="1.0" stroke-width="0.0">
        </rect>
      </g>
      <g transform="" clip-path="url(#cEIKYxq)" clip-bounds-jfx="[rect (0.0, 0.0), (461.5415730207574, 363.0)]">
        <defs>
          <clipPath id="cEIKYxq">
            <rect x="0.0" y="0.0" width="461.5415730207574" height="363.0">
            </rect>
          </clipPath>
        </defs>
        <g transform="translate(61.39773219083472 180.09897292228686 ) ">
          <text style="fill:#3d3d3d;font:9.623468995428636px IBM Plex Mono;" fill-opacity="1.0" dy="0.35em">
          0.05
          </text>
        </g>
        <g transform="translate(61.39773219083472 151.22856593600093 ) ">
          <text style="fill:#3d3d3d;font:9.623468995428636px IBM Plex Mono;" fill-opacity="1.0" dy="0.35em">
          0.11
          </text>
        </g>
        <g transform="translate(61.39773219083472 122.35815894971503 ) ">
          <text style="fill:#3d3d3d;font:9.623468995428636px IBM Plex Mono;" fill-opacity="1.0" dy="0.35em">
          0.17
          </text>
        </g>
        <g transform="translate(61.39773219083472 93.4877519634291 ) ">
          <text style="fill:#3d3d3d;font:9.623468995428636px IBM Plex Mono;" fill-opacity="1.0" dy="0.35em">
          0.24
          </text>
        </g>
        <g transform="translate(61.39773219083472 64.6173449771432 ) ">
          <text style="fill:#3d3d3d;font:9.623468995428636px IBM Plex Mono;" fill-opacity="1.0" dy="0.35em">
          0.30
          </text>
        </g>
      </g>
      <g transform="" clip-path="url(#cVFQDGd)" clip-bounds-jfx="[rect (0.0, 0.0), (461.5415730207574, 363.0)]">
        <defs>
          <clipPath id="cVFQDGd">
            <rect x="0.0" y="0.0" width="461.5415730207574" height="363.0">
            </rect>
          </clipPath>
        </defs>
        <line x1="59.473038391749" y1="151.22856593600093" x2="55.81612017348611" y2="151.22856593600093" stroke="rgb(0,0,0)" stroke-opacity="1.0" fill="rgb(17,142,216)" fill-opacity="1.0" stroke-width="1.0">
        </line>
        <line x1="59.473038391749" y1="122.35815894971503" x2="55.81612017348611" y2="122.35815894971503" stroke="rgb(0,0,0)" stroke-opacity="1.0" fill="rgb(17,142,216)" fill-opacity="1.0" stroke-width="1.0">
        </line>
        <line x1="59.473038391749" y1="93.4877519634291" x2="55.81612017348611" y2="93.4877519634291" stroke="rgb(0,0,0)" stroke-opacity="1.0" fill="rgb(17,142,216)" fill-opacity="1.0" stroke-width="1.0">
        </line>
      </g>
      <g transform="" clip-path="url(#cMqBtT1)" clip-bounds-jfx="[rect (0.0, 0.0), (461.5415730207574, 363.0)]">
        <defs>
          <clipPath id="cMqBtT1">
            <rect x="0.0" y="0.0" width="461.5415730207574" height="363.0">
            </rect>
          </clipPath>
        </defs>
        <g>
          
          <g >
            <circle fill="#118ed8" stroke="#118ed8" stroke-opacity="0.0" stroke-width="0.0" cx="20.979162410034434" cy="346.5" r="0.0" />
          </g>
        </g>
      </g>
      <g transform="" clip-path="url(#c0ijwss)" clip-bounds-jfx="[rect (0.0, 0.0), (461.5415730207574, 363.0)]">
        <defs>
          <clipPath id="c0ijwss">
            <rect x="0.0" y="0.0" width="461.5415730207574" height="363.0">
            </rect>
          </clipPath>
        </defs>
        <g>
          
          <g >
            <circle fill="#118ed8" stroke="#118ed8" stroke-opacity="0.0" stroke-width="0.0" cx="440.562410610723" cy="16.5" r="0.0" />
          </g>
        </g>
      </g>
    </g>
    <g transform="translate(64.22921348962129 16.0 ) ">
      <text class="plot-title" x="0.0">
        <tspan x="0.0" y="0.0">
        F1 index
        </tspan>
      </text>
    </g>
  </g>
</svg>