<svg width="960" height="404" viewBox="0 0 960 404" fill="none" xmlns="http://www.w3.org/2000/svg">
    <rect width="960" height="404" fill="white"/>
    <path d="M546 112V24" stroke="#D3D7E0" stroke-width="2" stroke-linecap="square" stroke-dasharray="6 6"/>
    <path d="M364.805 37H366.268V32.695H369.936V31.225H366.268V28.383H370.776V26.92H364.805V37ZM372.038 37H373.501V33.381H376.175L377.932 37H379.605L377.701 33.094C378.842 32.597 379.416 31.491 379.416 30.147C379.416 28.516 378.576 27.235 376.889 26.976C376.623 26.934 376.308 26.92 376.112 26.92H372.038V37ZM373.501 31.995V28.299H376.056C376.238 28.299 376.483 28.313 376.693 28.369C377.589 28.579 377.925 29.405 377.925 30.147C377.925 30.889 377.589 31.715 376.693 31.932C376.483 31.981 376.238 31.995 376.056 31.995H373.501ZM383.964 37.189C385.847 37.189 387.331 35.796 387.331 33.871C387.331 32.233 386.323 30.924 384.692 30.707L387.184 28.313V26.92H381.122V28.313H385.392L382.312 31.036L382.998 32.191C383.285 32.037 383.628 31.939 383.95 31.939C385.07 31.939 385.833 32.751 385.833 33.871C385.833 34.984 385.07 35.789 383.964 35.803C383.138 35.81 382.403 35.341 382.137 34.466L380.723 34.858C381.15 36.293 382.466 37.189 383.964 37.189Z" fill="#D3D7E0"/>
    <path d="M596.682 37.21C599.006 37.21 600.567 35.943 601.162 33.955L599.678 33.556C599.279 34.963 598.278 35.817 596.682 35.817C594.54 35.817 593.448 34.27 593.462 31.96C593.469 29.65 594.54 28.103 596.682 28.103C598.278 28.103 599.279 28.957 599.678 30.364L601.162 29.965C600.567 27.977 599.006 26.71 596.682 26.71C593.658 26.71 591.915 28.845 591.915 31.96C591.915 35.075 593.658 37.21 596.682 37.21ZM602.702 37H605.859C606.041 37 606.643 37 607.112 36.937C609.478 36.636 610.738 34.529 610.738 31.96C610.738 29.391 609.478 27.284 607.112 26.983C606.643 26.92 606.041 26.92 605.859 26.92H602.702V37ZM604.2 35.607V28.313H605.859C606.167 28.313 606.671 28.32 607.007 28.383C608.519 28.663 609.184 30.189 609.184 31.96C609.184 33.689 608.547 35.243 607.007 35.537C606.671 35.6 606.181 35.607 605.859 35.607H604.2ZM612.368 37H613.831V33.381H616.505L618.262 37H619.935L618.031 33.094C619.172 32.597 619.746 31.491 619.746 30.147C619.746 28.516 618.906 27.235 617.219 26.976C616.953 26.934 616.638 26.92 616.442 26.92H612.368V37ZM613.831 31.995V28.299H616.386C616.568 28.299 616.813 28.313 617.023 28.369C617.919 28.579 618.255 29.405 618.255 30.147C618.255 30.889 617.919 31.715 617.023 31.932C616.813 31.981 616.568 31.995 616.386 31.995H613.831ZM624.294 37.189C626.177 37.189 627.661 35.796 627.661 33.871C627.661 32.233 626.653 30.924 625.022 30.707L627.514 28.313V26.92H621.452V28.313H625.722L622.642 31.036L623.328 32.191C623.615 32.037 623.958 31.939 624.28 31.939C625.4 31.939 626.163 32.751 626.163 33.871C626.163 34.984 625.4 35.789 624.294 35.803C623.468 35.81 622.733 35.341 622.467 34.466L621.053 34.858C621.48 36.293 622.796 37.189 624.294 37.189Z" fill="#D3D7E0"/>
    <path d="M674 112V24" stroke="#D3D7E0" stroke-width="2" stroke-linecap="square" stroke-dasharray="6 6"/>
    <path d="M726.593 37H728.056V32.695H731.724V31.225H728.056V28.383H732.564V26.92H726.593V37ZM733.826 37H735.289V33.381H737.963L739.72 37H741.393L739.489 33.094C740.63 32.597 741.204 31.491 741.204 30.147C741.204 28.516 740.364 27.235 738.677 26.976C738.411 26.934 738.096 26.92 737.9 26.92H733.826V37ZM735.289 31.995V28.299H737.844C738.026 28.299 738.271 28.313 738.481 28.369C739.377 28.579 739.713 29.405 739.713 30.147C739.713 30.889 739.377 31.715 738.481 31.932C738.271 31.981 738.026 31.995 737.844 31.995H735.289ZM747.201 37H748.685V35.243H749.686V33.857H748.685V31.127H747.201V33.857H744.324L747.6 26.92H745.927L742.651 33.857V35.243H747.201V37Z" fill="#D3D7E0"/>
    <path d="M802 112V24" stroke="#D3D7E0" stroke-width="2" stroke-linecap="square" stroke-dasharray="6 6"/>
    <g filter="url(#filter0_i_5983_37930)">
        <path d="M210.182 112H560.4C560.96 112 561.24 112 561.454 112.109C561.642 112.205 561.795 112.358 561.891 112.546C562 112.76 562 113.04 562 113.6V162.4C562 162.96 562 163.24 561.891 163.454C561.795 163.642 561.642 163.795 561.454 163.891C561.24 164 560.96 164 560.4 164H210.182L202 157.5L210.182 151L202 144L210.182 138L202 131.5L210.182 125L202 118.5L210.182 112Z" fill="#99E099"/>
    </g>
    <path d="M210.182 112H560.4C560.96 112 561.24 112 561.454 112.109C561.642 112.205 561.795 112.358 561.891 112.546C562 112.76 562 113.04 562 113.6V162.4C562 162.96 562 163.24 561.891 163.454C561.795 163.642 561.642 163.795 561.454 163.891C561.24 164 560.96 164 560.4 164H210.182L202 157.5L210.182 151L202 144L210.182 138L202 131.5L210.182 125L202 118.5L210.182 112Z" stroke="#110529" stroke-width="2" stroke-linecap="round"/>
    <path d="M374.258 146H376.738L381.558 131.6H379.708L375.478 144.11L371.288 131.6H369.438L374.258 146Z" fill="#110529"/>
    <g filter="url(#filter1_i_5983_37930)">
        <rect x="562" y="112" width="30" height="52" rx="1" fill="#CBEB67"/>
    </g>
    <rect x="562" y="112" width="30" height="52" rx="1" stroke="#110529" stroke-width="2" stroke-linecap="round"/>
    <g filter="url(#filter2_i_5983_37930)">
        <rect x="628" y="112" width="30" height="52" rx="1" fill="#FAAAFA"/>
    </g>
    <rect x="628" y="112" width="30" height="52" rx="1" stroke="#110529" stroke-width="2" stroke-linecap="round"/>
    <g filter="url(#filter3_i_5983_37930)">
        <rect x="592" y="112" width="36" height="52" rx="1" fill="#FFCB8F"/>
    </g>
    <rect x="592" y="112" width="36" height="52" rx="1" stroke="#110529" stroke-width="2" stroke-linecap="round"/>
    <path d="M571.447 146V131.6H573.247L580.757 142.85V131.6H582.557V146H580.757L573.247 134.74V146H571.447Z" fill="#110529"/>
    <path d="M637.447 146V131.6H639.247L646.757 142.85V131.6H648.557V146H646.757L639.247 134.74V146H637.447Z" fill="#110529"/>
    <path d="M604.593 146V131.6H609.033C609.18 131.6 609.437 131.603 609.803 131.61C610.17 131.617 610.52 131.643 610.853 131.69C611.967 131.837 612.897 132.243 613.643 132.91C614.397 133.57 614.963 134.41 615.343 135.43C615.723 136.45 615.913 137.573 615.913 138.8C615.913 140.027 615.723 141.15 615.343 142.17C614.963 143.19 614.397 144.033 613.643 144.7C612.897 145.36 611.967 145.763 610.853 145.91C610.52 145.95 610.167 145.977 609.793 145.99C609.427 145.997 609.173 146 609.033 146H604.593ZM606.423 144.3H609.033C609.287 144.3 609.57 144.293 609.883 144.28C610.197 144.26 610.47 144.23 610.703 144.19C611.49 144.043 612.127 143.713 612.613 143.2C613.1 142.687 613.457 142.047 613.683 141.28C613.91 140.513 614.023 139.687 614.023 138.8C614.023 137.893 613.907 137.057 613.673 136.29C613.447 135.523 613.09 134.887 612.603 134.38C612.117 133.873 611.483 133.55 610.703 133.41C610.47 133.363 610.193 133.333 609.873 133.32C609.553 133.307 609.273 133.3 609.033 133.3H606.423V144.3Z" fill="#110529"/>
    <g filter="url(#filter4_i_5983_37930)">
        <rect x="658" y="112" width="144" height="52" rx="1" fill="#C1ADFF"/>
        <path d="M729.244 146.29C730.694 146.29 731.954 145.7 732.684 144.43C733.214 143.51 733.154 142.72 733.154 141.48V131.6H731.354V141.48C731.354 142.37 731.354 142.99 731.094 143.51C730.704 144.29 729.884 144.6 729.204 144.6C728.134 144.6 727.224 143.83 727.014 142.85L725.244 143.27C725.754 145.11 727.224 146.29 729.244 146.29Z" fill="#110529"/>
        <rect x="658" y="112" width="144" height="52" rx="1" stroke="#110529" stroke-width="2" stroke-linecap="round"/>
    </g>
    <g filter="url(#filter5_i_5983_37930)">
        <path d="M210.182 252H560.4C560.96 252 561.24 252 561.454 252.109C561.642 252.205 561.795 252.358 561.891 252.546C562 252.76 562 253.04 562 253.6V302.4C562 302.96 562 303.24 561.891 303.454C561.795 303.642 561.642 303.795 561.454 303.891C561.24 304 560.96 304 560.4 304H210.182L202 297.5L210.182 291L202 284L210.182 278L202 271.5L210.182 265L202 258.5L210.182 252Z" fill="#99E099"/>
    </g>
    <path d="M210.182 252H560.4C560.96 252 561.24 252 561.454 252.109C561.642 252.205 561.795 252.358 561.891 252.546C562 252.76 562 253.04 562 253.6V302.4C562 302.96 562 303.24 561.891 303.454C561.795 303.642 561.642 303.795 561.454 303.891C561.24 304 560.96 304 560.4 304H210.182L202 297.5L210.182 291L202 284L210.182 278L202 271.5L210.182 265L202 258.5L210.182 252Z" stroke="#110529" stroke-width="2" stroke-linecap="round"/>
    <path d="M374.258 286H376.738L381.558 271.6H379.708L375.478 284.11L371.288 271.6H369.438L374.258 286Z" fill="#110529"/>
    <g filter="url(#filter6_i_5983_37930)">
        <rect x="562" y="252" width="30" height="52" rx="1" fill="#CBEB67"/>
    </g>
    <rect x="562" y="252" width="30" height="52" rx="1" stroke="#110529" stroke-width="2" stroke-linecap="round"/>
    <path d="M571.447 286V271.6H573.247L580.757 282.85V271.6H582.557V286H580.757L573.247 274.74V286H571.447Z" fill="#110529"/>
    <g filter="url(#filter7_i_5983_37930)">
        <rect x="592" y="252" width="144" height="52" rx="1" fill="#C1ADFF"/>
        <path d="M663.244 286.29C664.694 286.29 665.954 285.7 666.684 284.43C667.214 283.51 667.154 282.72 667.154 281.48V271.6H665.354V281.48C665.354 282.37 665.354 282.99 665.094 283.51C664.704 284.29 663.884 284.6 663.204 284.6C662.134 284.6 661.224 283.83 661.014 282.85L659.244 283.27C659.754 285.11 661.224 286.29 663.244 286.29Z" fill="#110529"/>
        <rect x="592" y="252" width="144" height="52" rx="1" stroke="#110529" stroke-width="2" stroke-linecap="round"/>
    </g>
    <path d="M75.3268 286H77.1068V273.29H82.0168V271.6H70.4168V273.29H75.3268V286ZM89.529 286.3C92.859 286.3 95.049 284.47 95.869 281.61L94.059 281.13C93.469 283.27 91.959 284.6 89.529 284.6C86.309 284.6 84.669 282.25 84.689 278.8C84.709 275.35 86.309 273 89.529 273C91.959 273 93.469 274.33 94.059 276.47L95.869 275.99C95.049 273.13 92.859 271.3 89.529 271.3C85.219 271.3 82.809 274.36 82.809 278.8C82.809 283.24 85.219 286.3 89.529 286.3ZM98.0621 286H99.8421V280.68H104.052L106.632 286H108.672L105.892 280.29C107.522 279.61 108.372 278.04 108.372 276.14C108.372 273.85 107.142 272.04 104.812 271.68C104.442 271.62 104.032 271.6 103.752 271.6H98.0621V286ZM99.8421 278.99V273.29H103.692C103.942 273.29 104.292 273.31 104.592 273.38C105.972 273.69 106.552 274.94 106.552 276.14C106.552 277.34 105.972 278.59 104.592 278.9C104.292 278.97 103.942 278.99 103.692 278.99H99.8421ZM119.149 286.3C120.789 286.3 122.099 285.54 122.799 284.24V286H124.389V275.2H122.799V276.93C122.109 275.65 120.849 274.9 119.199 274.9C116.099 274.9 114.279 277.35 114.279 280.6C114.279 283.83 116.089 286.3 119.149 286.3ZM116.169 280.6C116.169 278.19 117.279 276.53 119.389 276.53C121.499 276.53 122.499 278.2 122.499 280.59C122.499 282.96 121.509 284.67 119.369 284.67C117.199 284.67 116.169 282.88 116.169 280.6Z" fill="#110529"/>
    <path d="M75.6881 146V133.29H70.7781V131.6H82.3781V133.29H77.4681V146H75.6881ZM89.8903 146.3C88.457 146.3 87.2403 145.983 86.2403 145.35C85.2403 144.717 84.477 143.837 83.9503 142.71C83.4303 141.583 83.1703 140.28 83.1703 138.8C83.1703 137.32 83.4303 136.017 83.9503 134.89C84.477 133.763 85.2403 132.883 86.2403 132.25C87.2403 131.617 88.457 131.3 89.8903 131.3C91.557 131.3 92.927 131.723 94.0003 132.57C95.0803 133.417 95.8236 134.557 96.2303 135.99L94.4203 136.47C94.127 135.397 93.6036 134.55 92.8503 133.93C92.097 133.31 91.1103 133 89.8903 133C88.817 133 87.9236 133.243 87.2103 133.73C86.497 134.217 85.9603 134.897 85.6003 135.77C85.2403 136.637 85.057 137.647 85.0503 138.8C85.0436 139.947 85.2203 140.957 85.5803 141.83C85.9403 142.697 86.4803 143.377 87.2003 143.87C87.9203 144.357 88.817 144.6 89.8903 144.6C91.1103 144.6 92.097 144.29 92.8503 143.67C93.6036 143.043 94.127 142.197 94.4203 141.13L96.2303 141.61C95.8236 143.037 95.0803 144.177 94.0003 145.03C92.927 145.877 91.557 146.3 89.8903 146.3ZM98.4234 146V131.6H104.113C104.253 131.6 104.42 131.607 104.613 131.62C104.807 131.627 104.993 131.647 105.173 131.68C105.953 131.8 106.607 132.067 107.133 132.48C107.667 132.893 108.067 133.417 108.333 134.05C108.6 134.677 108.733 135.373 108.733 136.14C108.733 137.253 108.443 138.22 107.863 139.04C107.283 139.853 106.433 140.363 105.313 140.57L104.633 140.68H100.203V146H98.4234ZM106.993 146L104.153 140.14L105.913 139.6L109.033 146H106.993ZM100.203 138.99H104.053C104.18 138.99 104.323 138.983 104.483 138.97C104.65 138.957 104.807 138.933 104.953 138.9C105.413 138.793 105.787 138.6 106.073 138.32C106.367 138.033 106.58 137.7 106.713 137.32C106.847 136.933 106.913 136.54 106.913 136.14C106.913 135.74 106.847 135.35 106.713 134.97C106.58 134.583 106.367 134.247 106.073 133.96C105.787 133.673 105.413 133.48 104.953 133.38C104.807 133.34 104.65 133.317 104.483 133.31C104.323 133.297 104.18 133.29 104.053 133.29H100.203V138.99ZM115.23 150.8V135.2C115.23 134.953 115.247 134.71 115.28 134.47C115.32 134.23 115.377 134 115.45 133.78C115.63 133.24 115.91 132.787 116.29 132.42C116.67 132.047 117.123 131.767 117.65 131.58C118.177 131.393 118.75 131.3 119.37 131.3C120.203 131.3 120.937 131.463 121.57 131.79C122.21 132.11 122.71 132.563 123.07 133.15C123.43 133.737 123.61 134.427 123.61 135.22C123.61 135.86 123.48 136.433 123.22 136.94C122.967 137.447 122.577 137.83 122.05 138.09C122.403 138.177 122.743 138.323 123.07 138.53C123.403 138.737 123.703 139 123.97 139.32C124.237 139.64 124.447 140.02 124.6 140.46C124.76 140.9 124.84 141.397 124.84 141.95C124.84 142.823 124.643 143.587 124.25 144.24C123.857 144.887 123.293 145.393 122.56 145.76C121.833 146.12 120.96 146.3 119.94 146.3C119.327 146.3 118.773 146.217 118.28 146.05C117.793 145.89 117.37 145.67 117.01 145.39V150.8H115.23ZM120.02 144.61C120.613 144.61 121.137 144.497 121.59 144.27C122.043 144.037 122.397 143.717 122.65 143.31C122.903 142.897 123.03 142.417 123.03 141.87C123.03 140.983 122.703 140.313 122.05 139.86C121.397 139.4 120.52 139.16 119.42 139.14V137.54C119.88 137.493 120.287 137.38 120.64 137.2C121 137.02 121.28 136.767 121.48 136.44C121.687 136.113 121.79 135.713 121.79 135.24C121.79 134.527 121.567 133.973 121.12 133.58C120.673 133.187 120.103 132.99 119.41 132.99C118.97 132.99 118.55 133.09 118.15 133.29C117.757 133.483 117.467 133.813 117.28 134.28C117.18 134.54 117.117 134.817 117.09 135.11C117.063 135.397 117.05 135.647 117.05 135.86V141.71C117.05 141.903 117.06 142.123 117.08 142.37C117.107 142.61 117.147 142.823 117.2 143.01C117.367 143.523 117.723 143.92 118.27 144.2C118.817 144.473 119.4 144.61 120.02 144.61Z" fill="#110529"/>
    <path d="M213 324L212.293 324.707L211.586 324L212.293 323.293L213 324ZM220.293 315.293L221 314.586L222.414 316L221.707 316.707L220.293 315.293ZM221.707 331.293L222.414 332L221 333.414L220.293 332.707L221.707 331.293ZM223 325L213 325L213 323L223 323L223 325ZM212.293 323.293L220.293 315.293L221.707 316.707L213.707 324.707L212.293 323.293ZM213.707 323.293L221.707 331.293L220.293 332.707L212.293 324.707L213.707 323.293Z" fill="#110529"/>
    <path d="M435 324H223" stroke="#110529" stroke-width="2"/>
    <rect width="57" height="20" transform="translate(435 314)" fill="white"/>
    <path d="M444.136 330V320.056L441.968 321.368V319.776L444.136 318.48H445.584V330H444.136ZM452.036 330.24C451.444 330.24 450.892 330.117 450.38 329.872C449.873 329.627 449.438 329.291 449.076 328.864C448.718 328.432 448.462 327.936 448.308 327.376L449.676 327.008C449.772 327.387 449.942 327.715 450.188 327.992C450.433 328.264 450.718 328.477 451.044 328.632C451.374 328.781 451.718 328.856 452.076 328.856C452.545 328.856 452.966 328.744 453.34 328.52C453.718 328.291 454.017 327.989 454.236 327.616C454.454 327.237 454.564 326.824 454.564 326.376C454.564 325.912 454.449 325.493 454.22 325.12C453.996 324.741 453.694 324.443 453.316 324.224C452.937 324.005 452.524 323.896 452.076 323.896C451.569 323.896 451.134 324.003 450.772 324.216C450.414 324.424 450.132 324.68 449.924 324.984L448.66 324.504L449.012 318.48H455.196V319.832H449.7L450.332 319.24L450.036 324.064L449.724 323.656C450.044 323.315 450.425 323.051 450.868 322.864C451.316 322.677 451.772 322.584 452.236 322.584C452.95 322.584 453.59 322.752 454.156 323.088C454.721 323.419 455.169 323.872 455.5 324.448C455.83 325.019 455.996 325.661 455.996 326.376C455.996 327.085 455.814 327.733 455.452 328.32C455.089 328.901 454.606 329.368 454.004 329.72C453.406 330.067 452.75 330.24 452.036 330.24ZM461.797 330.24C461.05 330.24 460.384 330.072 459.797 329.736C459.216 329.395 458.754 328.933 458.413 328.352C458.077 327.765 457.909 327.099 457.909 326.352V322.128C457.909 321.381 458.077 320.715 458.413 320.128C458.754 319.541 459.216 319.08 459.797 318.744C460.384 318.408 461.05 318.24 461.797 318.24C462.544 318.24 463.21 318.408 463.797 318.744C464.384 319.08 464.845 319.541 465.181 320.128C465.517 320.715 465.685 321.381 465.685 322.128V326.352C465.685 327.099 465.517 327.765 465.181 328.352C464.845 328.933 464.384 329.395 463.797 329.736C463.21 330.072 462.544 330.24 461.797 330.24ZM461.797 328.872C462.25 328.872 462.661 328.763 463.029 328.544C463.397 328.325 463.69 328.032 463.909 327.664C464.128 327.291 464.237 326.88 464.237 326.432V322.04C464.237 321.587 464.128 321.176 463.909 320.808C463.69 320.44 463.397 320.147 463.029 319.928C462.661 319.709 462.25 319.6 461.797 319.6C461.349 319.6 460.938 319.709 460.565 319.928C460.197 320.147 459.904 320.44 459.685 320.808C459.466 321.176 459.357 321.587 459.357 322.04V326.432C459.357 326.88 459.466 327.291 459.685 327.664C459.904 328.032 460.197 328.325 460.565 328.544C460.938 328.763 461.349 328.872 461.797 328.872ZM471.893 330.24C471.082 330.24 470.399 330.04 469.845 329.64C469.29 329.235 468.869 328.688 468.581 328C468.298 327.307 468.157 326.531 468.157 325.672C468.157 324.803 468.298 324.024 468.581 323.336C468.869 322.648 469.29 322.107 469.845 321.712C470.405 321.317 471.09 321.12 471.901 321.12C472.701 321.12 473.389 321.32 473.965 321.72C474.546 322.115 474.991 322.656 475.301 323.344C475.61 324.032 475.765 324.808 475.765 325.672C475.765 326.536 475.61 327.312 475.301 328C474.991 328.688 474.546 329.235 473.965 329.64C473.389 330.04 472.698 330.24 471.893 330.24ZM467.917 330V318.48H469.349V323.64H469.189V330H467.917ZM471.717 328.936C472.287 328.936 472.759 328.792 473.133 328.504C473.506 328.216 473.786 327.827 473.973 327.336C474.159 326.84 474.253 326.285 474.253 325.672C474.253 325.064 474.159 324.515 473.973 324.024C473.791 323.533 473.509 323.144 473.125 322.856C472.746 322.568 472.263 322.424 471.677 322.424C471.117 322.424 470.653 322.563 470.285 322.84C469.917 323.112 469.642 323.493 469.461 323.984C469.279 324.469 469.189 325.032 469.189 325.672C469.189 326.301 469.277 326.864 469.453 327.36C469.634 327.851 469.911 328.237 470.285 328.52C470.658 328.797 471.135 328.936 471.717 328.936ZM481.486 330.24C480.676 330.24 479.993 330.04 479.438 329.64C478.884 329.235 478.462 328.688 478.174 328C477.892 327.307 477.75 326.531 477.75 325.672C477.75 324.803 477.892 324.024 478.174 323.336C478.462 322.648 478.884 322.107 479.438 321.712C479.998 321.317 480.684 321.12 481.494 321.12C482.294 321.12 482.982 321.32 483.558 321.72C484.14 322.115 484.585 322.656 484.894 323.344C485.204 324.032 485.358 324.808 485.358 325.672C485.358 326.536 485.204 327.312 484.894 328C484.585 328.688 484.14 329.235 483.558 329.64C482.982 330.04 482.292 330.24 481.486 330.24ZM477.51 333.84V321.36H478.782V327.72H478.942V333.84H477.51ZM481.31 328.936C481.881 328.936 482.353 328.792 482.726 328.504C483.1 328.216 483.38 327.827 483.566 327.336C483.753 326.84 483.846 326.285 483.846 325.672C483.846 325.064 483.753 324.515 483.566 324.024C483.385 323.533 483.102 323.144 482.718 322.856C482.34 322.568 481.857 322.424 481.27 322.424C480.71 322.424 480.246 322.563 479.878 322.84C479.51 323.112 479.236 323.493 479.054 323.984C478.873 324.469 478.782 325.032 478.782 325.672C478.782 326.301 478.87 326.864 479.046 327.36C479.228 327.851 479.505 328.237 479.878 328.52C480.252 328.797 480.729 328.936 481.31 328.936Z" fill="#110529"/>
    <path d="M704 324H492" stroke="#110529" stroke-width="2"/>
    <path d="M712.62 330V318.48H717.172C717.284 318.48 717.417 318.485 717.572 318.496C717.727 318.501 717.876 318.517 718.02 318.544C718.644 318.64 719.167 318.853 719.588 319.184C720.015 319.515 720.335 319.933 720.548 320.44C720.761 320.941 720.868 321.499 720.868 322.112C720.868 323.003 720.636 323.776 720.172 324.432C719.708 325.083 719.028 325.491 718.132 325.656L717.588 325.744H714.044V330H712.62ZM719.476 330L717.204 325.312L718.612 324.88L721.108 330H719.476ZM714.044 324.392H717.124C717.225 324.392 717.34 324.387 717.468 324.376C717.601 324.365 717.727 324.347 717.844 324.32C718.212 324.235 718.511 324.08 718.74 323.856C718.975 323.627 719.145 323.36 719.252 323.056C719.359 322.747 719.412 322.432 719.412 322.112C719.412 321.792 719.359 321.48 719.252 321.176C719.145 320.867 718.975 320.597 718.74 320.368C718.511 320.139 718.212 319.984 717.844 319.904C717.727 319.872 717.601 319.853 717.468 319.848C717.34 319.837 717.225 319.832 717.124 319.832H714.044V324.392ZM724.878 330V320.056L722.71 321.368V319.776L724.878 318.48H726.326V330H724.878Z" fill="#110529"/>
    <rect x="704" y="312" width="32" height="24" rx="1" stroke="#110529" stroke-width="2"/>
    <path d="M238 190L237.293 190.707L236.586 190L237.293 189.293L238 190ZM245.293 181.293L246 180.586L247.414 182L246.707 182.707L245.293 181.293ZM246.707 197.293L247.414 198L246 199.414L245.293 198.707L246.707 197.293ZM248 191L238 191L238 189L248 189L248 191ZM237.293 189.293L245.293 181.293L246.707 182.707L238.707 190.707L237.293 189.293ZM238.707 189.293L246.707 197.293L245.293 198.707L237.293 190.707L238.707 189.293Z" fill="#110529"/>
    <path d="M480.5 190H248" stroke="#110529" stroke-width="2"/>
    <rect width="57" height="20" transform="translate(480.5 180)" fill="white"/>
    <path d="M489.636 196V186.056L487.468 187.368V185.776L489.636 184.48H491.084V196H489.636ZM497.536 196.24C496.944 196.24 496.392 196.117 495.88 195.872C495.373 195.627 494.938 195.291 494.576 194.864C494.218 194.432 493.962 193.936 493.808 193.376L495.176 193.008C495.272 193.387 495.442 193.715 495.688 193.992C495.933 194.264 496.218 194.477 496.544 194.632C496.874 194.781 497.218 194.856 497.576 194.856C498.045 194.856 498.466 194.744 498.84 194.52C499.218 194.291 499.517 193.989 499.736 193.616C499.954 193.237 500.064 192.824 500.064 192.376C500.064 191.912 499.949 191.493 499.72 191.12C499.496 190.741 499.194 190.443 498.816 190.224C498.437 190.005 498.024 189.896 497.576 189.896C497.069 189.896 496.634 190.003 496.272 190.216C495.914 190.424 495.632 190.68 495.424 190.984L494.16 190.504L494.512 184.48H500.696V185.832H495.2L495.832 185.24L495.536 190.064L495.224 189.656C495.544 189.315 495.925 189.051 496.368 188.864C496.816 188.677 497.272 188.584 497.736 188.584C498.45 188.584 499.09 188.752 499.656 189.088C500.221 189.419 500.669 189.872 501 190.448C501.33 191.019 501.496 191.661 501.496 192.376C501.496 193.085 501.314 193.733 500.952 194.32C500.589 194.901 500.106 195.368 499.504 195.72C498.906 196.067 498.25 196.24 497.536 196.24ZM507.297 196.24C506.55 196.24 505.884 196.072 505.297 195.736C504.716 195.395 504.254 194.933 503.913 194.352C503.577 193.765 503.409 193.099 503.409 192.352V188.128C503.409 187.381 503.577 186.715 503.913 186.128C504.254 185.541 504.716 185.08 505.297 184.744C505.884 184.408 506.55 184.24 507.297 184.24C508.044 184.24 508.71 184.408 509.297 184.744C509.884 185.08 510.345 185.541 510.681 186.128C511.017 186.715 511.185 187.381 511.185 188.128V192.352C511.185 193.099 511.017 193.765 510.681 194.352C510.345 194.933 509.884 195.395 509.297 195.736C508.71 196.072 508.044 196.24 507.297 196.24ZM507.297 194.872C507.75 194.872 508.161 194.763 508.529 194.544C508.897 194.325 509.19 194.032 509.409 193.664C509.628 193.291 509.737 192.88 509.737 192.432V188.04C509.737 187.587 509.628 187.176 509.409 186.808C509.19 186.44 508.897 186.147 508.529 185.928C508.161 185.709 507.75 185.6 507.297 185.6C506.849 185.6 506.438 185.709 506.065 185.928C505.697 186.147 505.404 186.44 505.185 186.808C504.966 187.176 504.857 187.587 504.857 188.04V192.432C504.857 192.88 504.966 193.291 505.185 193.664C505.404 194.032 505.697 194.325 506.065 194.544C506.438 194.763 506.849 194.872 507.297 194.872ZM517.393 196.24C516.582 196.24 515.899 196.04 515.345 195.64C514.79 195.235 514.369 194.688 514.081 194C513.798 193.307 513.657 192.531 513.657 191.672C513.657 190.803 513.798 190.024 514.081 189.336C514.369 188.648 514.79 188.107 515.345 187.712C515.905 187.317 516.59 187.12 517.401 187.12C518.201 187.12 518.889 187.32 519.465 187.72C520.046 188.115 520.491 188.656 520.801 189.344C521.11 190.032 521.265 190.808 521.265 191.672C521.265 192.536 521.11 193.312 520.801 194C520.491 194.688 520.046 195.235 519.465 195.64C518.889 196.04 518.198 196.24 517.393 196.24ZM513.417 196V184.48H514.849V189.64H514.689V196H513.417ZM517.217 194.936C517.787 194.936 518.259 194.792 518.633 194.504C519.006 194.216 519.286 193.827 519.473 193.336C519.659 192.84 519.753 192.285 519.753 191.672C519.753 191.064 519.659 190.515 519.473 190.024C519.291 189.533 519.009 189.144 518.625 188.856C518.246 188.568 517.763 188.424 517.177 188.424C516.617 188.424 516.153 188.563 515.785 188.84C515.417 189.112 515.142 189.493 514.961 189.984C514.779 190.469 514.689 191.032 514.689 191.672C514.689 192.301 514.777 192.864 514.953 193.36C515.134 193.851 515.411 194.237 515.785 194.52C516.158 194.797 516.635 194.936 517.217 194.936ZM526.986 196.24C526.176 196.24 525.493 196.04 524.938 195.64C524.384 195.235 523.962 194.688 523.674 194C523.392 193.307 523.25 192.531 523.25 191.672C523.25 190.803 523.392 190.024 523.674 189.336C523.962 188.648 524.384 188.107 524.938 187.712C525.498 187.317 526.184 187.12 526.994 187.12C527.794 187.12 528.482 187.32 529.058 187.72C529.64 188.115 530.085 188.656 530.394 189.344C530.704 190.032 530.858 190.808 530.858 191.672C530.858 192.536 530.704 193.312 530.394 194C530.085 194.688 529.64 195.235 529.058 195.64C528.482 196.04 527.792 196.24 526.986 196.24ZM523.01 199.84V187.36H524.282V193.72H524.442V199.84H523.01ZM526.81 194.936C527.381 194.936 527.853 194.792 528.226 194.504C528.6 194.216 528.88 193.827 529.066 193.336C529.253 192.84 529.346 192.285 529.346 191.672C529.346 191.064 529.253 190.515 529.066 190.024C528.885 189.533 528.602 189.144 528.218 188.856C527.84 188.568 527.357 188.424 526.77 188.424C526.21 188.424 525.746 188.563 525.378 188.84C525.01 189.112 524.736 189.493 524.554 189.984C524.373 190.469 524.282 191.032 524.282 191.672C524.282 192.301 524.37 192.864 524.546 193.36C524.728 193.851 525.005 194.237 525.378 194.52C525.752 194.797 526.229 194.936 526.81 194.936Z" fill="#110529"/>
    <path d="M770 190H537.5" stroke="#110529" stroke-width="2"/>
    <path d="M778.62 196V184.48H783.172C783.284 184.48 783.417 184.485 783.572 184.496C783.727 184.501 783.876 184.517 784.02 184.544C784.644 184.64 785.167 184.853 785.588 185.184C786.015 185.515 786.335 185.933 786.548 186.44C786.761 186.941 786.868 187.499 786.868 188.112C786.868 189.003 786.636 189.776 786.172 190.432C785.708 191.083 785.028 191.491 784.132 191.656L783.588 191.744H780.044V196H778.62ZM785.476 196L783.204 191.312L784.612 190.88L787.108 196H785.476ZM780.044 190.392H783.124C783.225 190.392 783.34 190.387 783.468 190.376C783.601 190.365 783.727 190.347 783.844 190.32C784.212 190.235 784.511 190.08 784.74 189.856C784.975 189.627 785.145 189.36 785.252 189.056C785.359 188.747 785.412 188.432 785.412 188.112C785.412 187.792 785.359 187.48 785.252 187.176C785.145 186.867 784.975 186.597 784.74 186.368C784.511 186.139 784.212 185.984 783.844 185.904C783.727 185.872 783.601 185.853 783.468 185.848C783.34 185.837 783.225 185.832 783.124 185.832H780.044V190.392ZM790.878 196V186.056L788.71 187.368V185.776L790.878 184.48H792.326V196H790.878Z" fill="#110529"/>
    <rect x="770" y="178" width="32" height="24" rx="1" stroke="#110529" stroke-width="2"/>
    <defs>
        <filter id="filter0_i_5983_37930" x="200.391" y="111" width="362.609" height="54" filterUnits="userSpaceOnUse" color-interpolation-filters="sRGB">
            <feFlood flood-opacity="0" result="BackgroundImageFix"/>
            <feBlend mode="normal" in="SourceGraphic" in2="BackgroundImageFix" result="shape"/>
            <feColorMatrix in="SourceAlpha" type="matrix" values="0 0 0 0 0 0 0 0 0 0 0 0 0 0 0 0 0 0 127 0" result="hardAlpha"/>
            <feOffset dx="-8" dy="-4"/>
            <feComposite in2="hardAlpha" operator="arithmetic" k2="-1" k3="1"/>
            <feColorMatrix type="matrix" values="0 0 0 0 0.0666667 0 0 0 0 0.0196078 0 0 0 0 0.160784 0 0 0 0.16 0"/>
            <feBlend mode="normal" in2="shape" result="effect1_innerShadow_5983_37930"/>
        </filter>
        <filter id="filter1_i_5983_37930" x="561" y="111" width="32" height="54" filterUnits="userSpaceOnUse" color-interpolation-filters="sRGB">
            <feFlood flood-opacity="0" result="BackgroundImageFix"/>
            <feBlend mode="normal" in="SourceGraphic" in2="BackgroundImageFix" result="shape"/>
            <feColorMatrix in="SourceAlpha" type="matrix" values="0 0 0 0 0 0 0 0 0 0 0 0 0 0 0 0 0 0 127 0" result="hardAlpha"/>
            <feOffset dx="-8" dy="-4"/>
            <feComposite in2="hardAlpha" operator="arithmetic" k2="-1" k3="1"/>
            <feColorMatrix type="matrix" values="0 0 0 0 0.0666667 0 0 0 0 0.0196078 0 0 0 0 0.160784 0 0 0 0.16 0"/>
            <feBlend mode="normal" in2="shape" result="effect1_innerShadow_5983_37930"/>
        </filter>
        <filter id="filter2_i_5983_37930" x="627" y="111" width="32" height="54" filterUnits="userSpaceOnUse" color-interpolation-filters="sRGB">
            <feFlood flood-opacity="0" result="BackgroundImageFix"/>
            <feBlend mode="normal" in="SourceGraphic" in2="BackgroundImageFix" result="shape"/>
            <feColorMatrix in="SourceAlpha" type="matrix" values="0 0 0 0 0 0 0 0 0 0 0 0 0 0 0 0 0 0 127 0" result="hardAlpha"/>
            <feOffset dx="-8" dy="-4"/>
            <feComposite in2="hardAlpha" operator="arithmetic" k2="-1" k3="1"/>
            <feColorMatrix type="matrix" values="0 0 0 0 0.0666667 0 0 0 0 0.0196078 0 0 0 0 0.160784 0 0 0 0.16 0"/>
            <feBlend mode="normal" in2="shape" result="effect1_innerShadow_5983_37930"/>
        </filter>
        <filter id="filter3_i_5983_37930" x="591" y="111" width="38" height="54" filterUnits="userSpaceOnUse" color-interpolation-filters="sRGB">
            <feFlood flood-opacity="0" result="BackgroundImageFix"/>
            <feBlend mode="normal" in="SourceGraphic" in2="BackgroundImageFix" result="shape"/>
            <feColorMatrix in="SourceAlpha" type="matrix" values="0 0 0 0 0 0 0 0 0 0 0 0 0 0 0 0 0 0 127 0" result="hardAlpha"/>
            <feOffset dx="-8" dy="-4"/>
            <feComposite in2="hardAlpha" operator="arithmetic" k2="-1" k3="1"/>
            <feColorMatrix type="matrix" values="0 0 0 0 0.0666667 0 0 0 0 0.0196078 0 0 0 0 0.160784 0 0 0 0.16 0"/>
            <feBlend mode="normal" in2="shape" result="effect1_innerShadow_5983_37930"/>
        </filter>
        <filter id="filter4_i_5983_37930" x="657" y="111" width="146" height="54" filterUnits="userSpaceOnUse" color-interpolation-filters="sRGB">
            <feFlood flood-opacity="0" result="BackgroundImageFix"/>
            <feBlend mode="normal" in="SourceGraphic" in2="BackgroundImageFix" result="shape"/>
            <feColorMatrix in="SourceAlpha" type="matrix" values="0 0 0 0 0 0 0 0 0 0 0 0 0 0 0 0 0 0 127 0" result="hardAlpha"/>
            <feOffset dx="-8" dy="-4"/>
            <feComposite in2="hardAlpha" operator="arithmetic" k2="-1" k3="1"/>
            <feColorMatrix type="matrix" values="0 0 0 0 0.0666667 0 0 0 0 0.0196078 0 0 0 0 0.160784 0 0 0 0.16 0"/>
            <feBlend mode="normal" in2="shape" result="effect1_innerShadow_5983_37930"/>
        </filter>
        <filter id="filter5_i_5983_37930" x="200.391" y="251" width="362.609" height="54" filterUnits="userSpaceOnUse" color-interpolation-filters="sRGB">
            <feFlood flood-opacity="0" result="BackgroundImageFix"/>
            <feBlend mode="normal" in="SourceGraphic" in2="BackgroundImageFix" result="shape"/>
            <feColorMatrix in="SourceAlpha" type="matrix" values="0 0 0 0 0 0 0 0 0 0 0 0 0 0 0 0 0 0 127 0" result="hardAlpha"/>
            <feOffset dx="-8" dy="-4"/>
            <feComposite in2="hardAlpha" operator="arithmetic" k2="-1" k3="1"/>
            <feColorMatrix type="matrix" values="0 0 0 0 0.0666667 0 0 0 0 0.0196078 0 0 0 0 0.160784 0 0 0 0.16 0"/>
            <feBlend mode="normal" in2="shape" result="effect1_innerShadow_5983_37930"/>
        </filter>
        <filter id="filter6_i_5983_37930" x="561" y="251" width="32" height="54" filterUnits="userSpaceOnUse" color-interpolation-filters="sRGB">
            <feFlood flood-opacity="0" result="BackgroundImageFix"/>
            <feBlend mode="normal" in="SourceGraphic" in2="BackgroundImageFix" result="shape"/>
            <feColorMatrix in="SourceAlpha" type="matrix" values="0 0 0 0 0 0 0 0 0 0 0 0 0 0 0 0 0 0 127 0" result="hardAlpha"/>
            <feOffset dx="-8" dy="-4"/>
            <feComposite in2="hardAlpha" operator="arithmetic" k2="-1" k3="1"/>
            <feColorMatrix type="matrix" values="0 0 0 0 0.0666667 0 0 0 0 0.0196078 0 0 0 0 0.160784 0 0 0 0.16 0"/>
            <feBlend mode="normal" in2="shape" result="effect1_innerShadow_5983_37930"/>
        </filter>
        <filter id="filter7_i_5983_37930" x="591" y="251" width="146" height="54" filterUnits="userSpaceOnUse" color-interpolation-filters="sRGB">
            <feFlood flood-opacity="0" result="BackgroundImageFix"/>
            <feBlend mode="normal" in="SourceGraphic" in2="BackgroundImageFix" result="shape"/>
            <feColorMatrix in="SourceAlpha" type="matrix" values="0 0 0 0 0 0 0 0 0 0 0 0 0 0 0 0 0 0 127 0" result="hardAlpha"/>
            <feOffset dx="-8" dy="-4"/>
            <feComposite in2="hardAlpha" operator="arithmetic" k2="-1" k3="1"/>
            <feColorMatrix type="matrix" values="0 0 0 0 0.0666667 0 0 0 0 0.0196078 0 0 0 0 0.160784 0 0 0 0.16 0"/>
            <feBlend mode="normal" in2="shape" result="effect1_innerShadow_5983_37930"/>
        </filter>
    </defs>
</svg>
