<svg width="960" height="404" viewBox="0 0 960 404" fill="none" xmlns="http://www.w3.org/2000/svg">
    <rect width="960" height="404" fill="#1D1D29"/>
    <path d="M546 112V24" stroke="white" stroke-opacity="0.3" stroke-width="2" stroke-linecap="square" stroke-dasharray="6 6"/>
    <path d="M474.805 37V26.92H480.776V28.383H476.268V31.225H479.936V32.695H476.268V37H474.805ZM482.038 37V26.92H486.112C486.21 26.92 486.331 26.9247 486.476 26.934C486.62 26.9387 486.758 26.9527 486.889 26.976C487.449 27.0647 487.915 27.256 488.289 27.55C488.667 27.844 488.949 28.215 489.136 28.663C489.322 29.111 489.416 29.6057 489.416 30.147C489.416 30.9497 489.21 31.6427 488.8 32.226C488.389 32.8047 487.773 33.1663 486.952 33.311L486.357 33.381H483.501V37H482.038ZM487.932 37L485.944 32.898L487.421 32.52L489.605 37H487.932ZM483.501 31.995H486.056C486.149 31.995 486.252 31.9903 486.364 31.981C486.48 31.9717 486.59 31.9553 486.693 31.932C486.991 31.862 487.232 31.7337 487.414 31.547C487.596 31.3557 487.726 31.1363 487.806 30.889C487.885 30.6417 487.925 30.3943 487.925 30.147C487.925 29.8997 487.885 29.6547 487.806 29.412C487.726 29.1647 487.596 28.9477 487.414 28.761C487.232 28.5697 486.991 28.439 486.693 28.369C486.59 28.341 486.48 28.3223 486.364 28.313C486.252 28.3037 486.149 28.299 486.056 28.299H483.501V31.995ZM493.964 37.189C493.465 37.189 492.996 37.0957 492.557 36.909C492.118 36.7177 491.738 36.447 491.416 36.097C491.099 35.747 490.868 35.334 490.723 34.858L492.137 34.466C492.272 34.9 492.508 35.2337 492.844 35.467C493.18 35.6957 493.553 35.8077 493.964 35.803C494.333 35.7983 494.657 35.712 494.937 35.544C495.217 35.376 495.436 35.1497 495.595 34.865C495.754 34.5757 495.833 34.2443 495.833 33.871C495.833 33.311 495.658 32.849 495.308 32.485C494.963 32.121 494.51 31.939 493.95 31.939C493.791 31.939 493.628 31.9623 493.46 32.009C493.297 32.0557 493.143 32.1163 492.998 32.191L492.312 31.036L495.868 27.893L496.022 28.313H491.122V26.92H497.184V28.313L494.23 31.155L494.216 30.679C494.851 30.679 495.401 30.8213 495.868 31.106C496.335 31.386 496.694 31.7687 496.946 32.254C497.203 32.7347 497.331 33.2737 497.331 33.871C497.331 34.515 497.179 35.0867 496.876 35.586C496.577 36.0853 496.174 36.4773 495.665 36.762C495.161 37.0467 494.594 37.189 493.964 37.189Z" fill="white" fill-opacity="0.3"/>
    <path d="M596.682 37.21C595.674 37.21 594.815 36.9907 594.106 36.552C593.397 36.1087 592.853 35.4927 592.475 34.704C592.102 33.9153 591.915 33.0007 591.915 31.96C591.915 30.9193 592.102 30.0047 592.475 29.216C592.853 28.4273 593.397 27.8137 594.106 27.375C594.815 26.9317 595.674 26.71 596.682 26.71C597.844 26.71 598.805 27.004 599.566 27.592C600.331 28.18 600.863 28.971 601.162 29.965L599.678 30.364C599.482 29.6593 599.132 29.1063 598.628 28.705C598.129 28.3037 597.48 28.103 596.682 28.103C595.968 28.103 595.373 28.264 594.897 28.586C594.421 28.908 594.062 29.3583 593.819 29.937C593.581 30.5157 593.462 31.19 593.462 31.96C593.457 32.73 593.574 33.4043 593.812 33.983C594.055 34.5617 594.414 35.012 594.89 35.334C595.371 35.656 595.968 35.817 596.682 35.817C597.48 35.817 598.129 35.6163 598.628 35.215C599.132 34.809 599.482 34.256 599.678 33.556L601.162 33.955C600.863 34.949 600.331 35.74 599.566 36.328C598.805 36.916 597.844 37.21 596.682 37.21ZM602.702 37V26.92H605.859C605.952 26.92 606.125 26.9223 606.377 26.927C606.633 26.9317 606.878 26.9503 607.112 26.983C607.9 27.081 608.563 27.3633 609.1 27.83C609.641 28.2967 610.049 28.8893 610.325 29.608C610.6 30.322 610.738 31.106 610.738 31.96C610.738 32.8187 610.6 33.6073 610.325 34.326C610.049 35.04 609.641 35.6303 609.1 36.097C608.563 36.559 607.9 36.839 607.112 36.937C606.878 36.9697 606.633 36.9883 606.377 36.993C606.125 36.9977 605.952 37 605.859 37H602.702ZM604.2 35.607H605.859C606.017 35.607 606.206 35.6023 606.426 35.593C606.645 35.5837 606.839 35.565 607.007 35.537C607.52 35.439 607.935 35.2173 608.253 34.872C608.575 34.522 608.81 34.0927 608.96 33.584C609.109 33.0753 609.184 32.534 609.184 31.96C609.184 31.3673 609.107 30.819 608.953 30.315C608.799 29.8063 608.561 29.3817 608.239 29.041C607.921 28.6957 607.511 28.4763 607.007 28.383C606.839 28.3503 606.643 28.3317 606.419 28.327C606.199 28.3177 606.013 28.313 605.859 28.313H604.2V35.607ZM612.368 37V26.92H616.442C616.54 26.92 616.661 26.9247 616.806 26.934C616.95 26.9387 617.088 26.9527 617.219 26.976C617.779 27.0647 618.245 27.256 618.619 27.55C618.997 27.844 619.279 28.215 619.466 28.663C619.652 29.111 619.746 29.6057 619.746 30.147C619.746 30.9497 619.54 31.6427 619.13 32.226C618.719 32.8047 618.103 33.1663 617.282 33.311L616.687 33.381H613.831V37H612.368ZM618.262 37L616.274 32.898L617.751 32.52L619.935 37H618.262ZM613.831 31.995H616.386C616.479 31.995 616.582 31.9903 616.694 31.981C616.81 31.9717 616.92 31.9553 617.023 31.932C617.321 31.862 617.562 31.7337 617.744 31.547C617.926 31.3557 618.056 31.1363 618.136 30.889C618.215 30.6417 618.255 30.3943 618.255 30.147C618.255 29.8997 618.215 29.6547 618.136 29.412C618.056 29.1647 617.926 28.9477 617.744 28.761C617.562 28.5697 617.321 28.439 617.023 28.369C616.92 28.341 616.81 28.3223 616.694 28.313C616.582 28.3037 616.479 28.299 616.386 28.299H613.831V31.995ZM624.294 37.189C623.795 37.189 623.326 37.0957 622.887 36.909C622.448 36.7177 622.068 36.447 621.746 36.097C621.429 35.747 621.198 35.334 621.053 34.858L622.467 34.466C622.602 34.9 622.838 35.2337 623.174 35.467C623.51 35.6957 623.883 35.8077 624.294 35.803C624.663 35.7983 624.987 35.712 625.267 35.544C625.547 35.376 625.766 35.1497 625.925 34.865C626.084 34.5757 626.163 34.2443 626.163 33.871C626.163 33.311 625.988 32.849 625.638 32.485C625.293 32.121 624.84 31.939 624.28 31.939C624.121 31.939 623.958 31.9623 623.79 32.009C623.627 32.0557 623.473 32.1163 623.328 32.191L622.642 31.036L626.198 27.893L626.352 28.313H621.452V26.92H627.514V28.313L624.56 31.155L624.546 30.679C625.181 30.679 625.731 30.8213 626.198 31.106C626.665 31.386 627.024 31.7687 627.276 32.254C627.533 32.7347 627.661 33.2737 627.661 33.871C627.661 34.515 627.509 35.0867 627.206 35.586C626.907 36.0853 626.504 36.4773 625.995 36.762C625.491 37.0467 624.924 37.189 624.294 37.189Z" fill="white" fill-opacity="0.3"/>
    <path d="M674 112V24" stroke="white" stroke-opacity="0.3" stroke-width="2" stroke-linecap="square" stroke-dasharray="6 6"/>
    <path d="M726.593 37V26.92H732.564V28.383H728.056V31.225H731.724V32.695H728.056V37H726.593ZM733.826 37V26.92H737.9C737.998 26.92 738.119 26.9247 738.264 26.934C738.408 26.9387 738.546 26.9527 738.677 26.976C739.237 27.0647 739.703 27.256 740.077 27.55C740.455 27.844 740.737 28.215 740.924 28.663C741.11 29.111 741.204 29.6057 741.204 30.147C741.204 30.9497 740.998 31.6427 740.588 32.226C740.177 32.8047 739.561 33.1663 738.74 33.311L738.145 33.381H735.289V37H733.826ZM739.72 37L737.732 32.898L739.209 32.52L741.393 37H739.72ZM735.289 31.995H737.844C737.937 31.995 738.04 31.9903 738.152 31.981C738.268 31.9717 738.378 31.9553 738.481 31.932C738.779 31.862 739.02 31.7337 739.202 31.547C739.384 31.3557 739.514 31.1363 739.594 30.889C739.673 30.6417 739.713 30.3943 739.713 30.147C739.713 29.8997 739.673 29.6547 739.594 29.412C739.514 29.1647 739.384 28.9477 739.202 28.761C739.02 28.5697 738.779 28.439 738.481 28.369C738.378 28.341 738.268 28.3223 738.152 28.313C738.04 28.3037 737.937 28.299 737.844 28.299H735.289V31.995ZM747.201 37V35.243H742.651V33.857L745.927 26.92H747.6L744.324 33.857H747.201V31.127H748.685V33.857H749.686V35.243H748.685V37H747.201Z" fill="white" fill-opacity="0.3"/>
    <path d="M802 112V24" stroke="white" stroke-opacity="0.3" stroke-width="2" stroke-linecap="square" stroke-dasharray="6 6"/>
    <g filter="url(#filter0_i_6016_38047)">
        <path d="M210.182 112H560.4C560.96 112 561.24 112 561.454 112.109C561.642 112.205 561.795 112.358 561.891 112.546C562 112.76 562 113.04 562 113.6V162.4C562 162.96 562 163.24 561.891 163.454C561.795 163.642 561.642 163.795 561.454 163.891C561.24 164 560.96 164 560.4 164H210.182L202 157.5L210.182 151L202 144L210.182 138L202 131.5L210.182 125L202 118.5L210.182 112Z" fill="#99E099"/>
    </g>
    <path d="M210.182 112H560.4C560.96 112 561.24 112 561.454 112.109C561.642 112.205 561.795 112.358 561.891 112.546C562 112.76 562 113.04 562 113.6V162.4C562 162.96 562 163.24 561.891 163.454C561.795 163.642 561.642 163.795 561.454 163.891C561.24 164 560.96 164 560.4 164H210.182L202 157.5L210.182 151L202 144L210.182 138L202 131.5L210.182 125L202 118.5L210.182 112Z" stroke="#110529" stroke-width="2" stroke-linecap="round"/>
    <path d="M374.258 146L369.438 131.6H371.288L375.478 144.11L379.708 131.6H381.558L376.738 146H374.258Z" fill="#110529"/>
    <g filter="url(#filter1_i_6016_38047)">
        <rect x="562" y="112" width="30" height="52" rx="1" fill="#CBEB67"/>
    </g>
    <rect x="562" y="112" width="30" height="52" rx="1" stroke="#110529" stroke-width="2" stroke-linecap="round"/>
    <g filter="url(#filter2_i_6016_38047)">
        <rect x="628" y="112" width="30" height="52" rx="1" fill="#FAAAFA"/>
    </g>
    <rect x="628" y="112" width="30" height="52" rx="1" stroke="#110529" stroke-width="2" stroke-linecap="round"/>
    <g filter="url(#filter3_i_6016_38047)">
        <rect x="592" y="112" width="36" height="52" rx="1" fill="#FFCB8F"/>
    </g>
    <rect x="592" y="112" width="36" height="52" rx="1" stroke="#110529" stroke-width="2" stroke-linecap="round"/>
    <path d="M571.447 146V131.6H573.247L580.757 142.85V131.6H582.557V146H580.757L573.247 134.74V146H571.447Z" fill="#110529"/>
    <path d="M637.447 146V131.6H639.247L646.757 142.85V131.6H648.557V146H646.757L639.247 134.74V146H637.447Z" fill="#110529"/>
    <path d="M604.593 146V131.6H609.033C609.18 131.6 609.437 131.603 609.803 131.61C610.17 131.617 610.52 131.643 610.853 131.69C611.967 131.837 612.897 132.243 613.643 132.91C614.397 133.57 614.963 134.41 615.343 135.43C615.723 136.45 615.913 137.573 615.913 138.8C615.913 140.027 615.723 141.15 615.343 142.17C614.963 143.19 614.397 144.033 613.643 144.7C612.897 145.36 611.967 145.763 610.853 145.91C610.52 145.95 610.167 145.977 609.793 145.99C609.427 145.997 609.173 146 609.033 146H604.593ZM606.423 144.3H609.033C609.287 144.3 609.57 144.293 609.883 144.28C610.197 144.26 610.47 144.23 610.703 144.19C611.49 144.043 612.127 143.713 612.613 143.2C613.1 142.687 613.457 142.047 613.683 141.28C613.91 140.513 614.023 139.687 614.023 138.8C614.023 137.893 613.907 137.057 613.673 136.29C613.447 135.523 613.09 134.887 612.603 134.38C612.117 133.873 611.483 133.55 610.703 133.41C610.47 133.363 610.193 133.333 609.873 133.32C609.553 133.307 609.273 133.3 609.033 133.3H606.423V144.3Z" fill="#110529"/>
    <g filter="url(#filter4_i_6016_38047)">
        <rect x="658" y="112" width="144" height="52" rx="1" fill="#C1ADFF"/>
        <path d="M729.244 146.29C728.237 146.29 727.384 146.017 726.684 145.47C725.984 144.923 725.504 144.19 725.244 143.27L727.014 142.85C727.121 143.337 727.377 143.75 727.784 144.09C728.197 144.43 728.671 144.6 729.204 144.6C729.551 144.6 729.904 144.517 730.264 144.35C730.624 144.177 730.901 143.897 731.094 143.51C731.227 143.243 731.304 142.95 731.324 142.63C731.344 142.303 731.354 141.92 731.354 141.48V131.6H733.154V141.48C733.154 141.893 733.151 142.263 733.144 142.59C733.144 142.917 733.111 143.23 733.044 143.53C732.984 143.823 732.864 144.123 732.684 144.43C732.324 145.063 731.841 145.533 731.234 145.84C730.634 146.14 729.971 146.29 729.244 146.29Z" fill="#110529"/>
        <rect x="658" y="112" width="144" height="52" rx="1" stroke="#110529" stroke-width="2" stroke-linecap="round"/>
    </g>
    <g filter="url(#filter5_i_6016_38047)">
        <path d="M210.182 252H560.4C560.96 252 561.24 252 561.454 252.109C561.642 252.205 561.795 252.358 561.891 252.546C562 252.76 562 253.04 562 253.6V302.4C562 302.96 562 303.24 561.891 303.454C561.795 303.642 561.642 303.795 561.454 303.891C561.24 304 560.96 304 560.4 304H210.182L202 297.5L210.182 291L202 284L210.182 278L202 271.5L210.182 265L202 258.5L210.182 252Z" fill="#99E099"/>
    </g>
    <path d="M210.182 252H560.4C560.96 252 561.24 252 561.454 252.109C561.642 252.205 561.795 252.358 561.891 252.546C562 252.76 562 253.04 562 253.6V302.4C562 302.96 562 303.24 561.891 303.454C561.795 303.642 561.642 303.795 561.454 303.891C561.24 304 560.96 304 560.4 304H210.182L202 297.5L210.182 291L202 284L210.182 278L202 271.5L210.182 265L202 258.5L210.182 252Z" stroke="#110529" stroke-width="2" stroke-linecap="round"/>
    <path d="M374.258 286L369.438 271.6H371.288L375.478 284.11L379.708 271.6H381.558L376.738 286H374.258Z" fill="#110529"/>
    <g filter="url(#filter6_i_6016_38047)">
        <rect x="562" y="252" width="30" height="52" rx="1" fill="#CBEB67"/>
    </g>
    <rect x="562" y="252" width="30" height="52" rx="1" stroke="#110529" stroke-width="2" stroke-linecap="round"/>
    <path d="M571.447 286V271.6H573.247L580.757 282.85V271.6H582.557V286H580.757L573.247 274.74V286H571.447Z" fill="#110529"/>
    <g filter="url(#filter7_i_6016_38047)">
        <rect x="592" y="252" width="144" height="52" rx="1" fill="#C1ADFF"/>
        <path d="M663.244 286.29C662.237 286.29 661.384 286.017 660.684 285.47C659.984 284.923 659.504 284.19 659.244 283.27L661.014 282.85C661.121 283.337 661.377 283.75 661.784 284.09C662.197 284.43 662.671 284.6 663.204 284.6C663.551 284.6 663.904 284.517 664.264 284.35C664.624 284.177 664.901 283.897 665.094 283.51C665.227 283.243 665.304 282.95 665.324 282.63C665.344 282.303 665.354 281.92 665.354 281.48V271.6H667.154V281.48C667.154 281.893 667.151 282.263 667.144 282.59C667.144 282.917 667.111 283.23 667.044 283.53C666.984 283.823 666.864 284.123 666.684 284.43C666.324 285.063 665.841 285.533 665.234 285.84C664.634 286.14 663.971 286.29 663.244 286.29Z" fill="#110529"/>
        <rect x="592" y="252" width="144" height="52" rx="1" stroke="#110529" stroke-width="2" stroke-linecap="round"/>
    </g>
    <path d="M75.3268 286V273.29H70.4168V271.6H82.0168V273.29H77.1068V286H75.3268ZM89.529 286.3C88.0957 286.3 86.879 285.983 85.879 285.35C84.879 284.717 84.1157 283.837 83.589 282.71C83.069 281.583 82.809 280.28 82.809 278.8C82.809 277.32 83.069 276.017 83.589 274.89C84.1157 273.763 84.879 272.883 85.879 272.25C86.879 271.617 88.0957 271.3 89.529 271.3C91.1957 271.3 92.5657 271.723 93.639 272.57C94.719 273.417 95.4623 274.557 95.869 275.99L94.059 276.47C93.7657 275.397 93.2423 274.55 92.489 273.93C91.7357 273.31 90.749 273 89.529 273C88.4557 273 87.5623 273.243 86.849 273.73C86.1357 274.217 85.599 274.897 85.239 275.77C84.879 276.637 84.6957 277.647 84.689 278.8C84.6823 279.947 84.859 280.957 85.219 281.83C85.579 282.697 86.119 283.377 86.839 283.87C87.559 284.357 88.4557 284.6 89.529 284.6C90.749 284.6 91.7357 284.29 92.489 283.67C93.2423 283.043 93.7657 282.197 94.059 281.13L95.869 281.61C95.4623 283.037 94.719 284.177 93.639 285.03C92.5657 285.877 91.1957 286.3 89.529 286.3ZM98.0621 286V271.6H103.752C103.892 271.6 104.059 271.607 104.252 271.62C104.445 271.627 104.632 271.647 104.812 271.68C105.592 271.8 106.245 272.067 106.772 272.48C107.305 272.893 107.705 273.417 107.972 274.05C108.239 274.677 108.372 275.373 108.372 276.14C108.372 277.253 108.082 278.22 107.502 279.04C106.922 279.853 106.072 280.363 104.952 280.57L104.272 280.68H99.8421V286H98.0621ZM106.632 286L103.792 280.14L105.552 279.6L108.672 286H106.632ZM99.8421 278.99H103.692C103.819 278.99 103.962 278.983 104.122 278.97C104.289 278.957 104.445 278.933 104.592 278.9C105.052 278.793 105.425 278.6 105.712 278.32C106.005 278.033 106.219 277.7 106.352 277.32C106.485 276.933 106.552 276.54 106.552 276.14C106.552 275.74 106.485 275.35 106.352 274.97C106.219 274.583 106.005 274.247 105.712 273.96C105.425 273.673 105.052 273.48 104.592 273.38C104.445 273.34 104.289 273.317 104.122 273.31C103.962 273.297 103.819 273.29 103.692 273.29H99.8421V278.99ZM119.149 286.3C118.129 286.3 117.255 286.05 116.529 285.55C115.802 285.043 115.245 284.36 114.859 283.5C114.472 282.64 114.279 281.673 114.279 280.6C114.279 279.513 114.472 278.543 114.859 277.69C115.252 276.83 115.815 276.15 116.549 275.65C117.282 275.15 118.165 274.9 119.199 274.9C120.165 274.9 120.985 275.143 121.659 275.63C122.339 276.11 122.819 276.777 123.099 277.63L122.799 278.15V275.2H124.389V286H122.799V283.02L123.099 283.54C122.819 284.4 122.329 285.077 121.629 285.57C120.935 286.057 120.109 286.3 119.149 286.3ZM119.369 284.67C120.082 284.67 120.669 284.497 121.129 284.15C121.595 283.797 121.939 283.313 122.159 282.7C122.385 282.08 122.499 281.377 122.499 280.59C122.499 279.79 122.385 279.087 122.159 278.48C121.939 277.867 121.599 277.39 121.139 277.05C120.679 276.703 120.095 276.53 119.389 276.53C118.689 276.53 118.099 276.703 117.619 277.05C117.139 277.39 116.775 277.867 116.529 278.48C116.289 279.087 116.169 279.793 116.169 280.6C116.169 281.36 116.285 282.047 116.519 282.66C116.752 283.273 117.105 283.763 117.579 284.13C118.052 284.49 118.649 284.67 119.369 284.67Z" fill="white"/>
    <path d="M75.6881 146V133.29H70.7781V131.6H82.3781V133.29H77.4681V146H75.6881ZM89.8903 146.3C88.457 146.3 87.2403 145.983 86.2403 145.35C85.2403 144.717 84.477 143.837 83.9503 142.71C83.4303 141.583 83.1703 140.28 83.1703 138.8C83.1703 137.32 83.4303 136.017 83.9503 134.89C84.477 133.763 85.2403 132.883 86.2403 132.25C87.2403 131.617 88.457 131.3 89.8903 131.3C91.557 131.3 92.927 131.723 94.0003 132.57C95.0803 133.417 95.8236 134.557 96.2303 135.99L94.4203 136.47C94.127 135.397 93.6036 134.55 92.8503 133.93C92.097 133.31 91.1103 133 89.8903 133C88.817 133 87.9236 133.243 87.2103 133.73C86.497 134.217 85.9603 134.897 85.6003 135.77C85.2403 136.637 85.057 137.647 85.0503 138.8C85.0436 139.947 85.2203 140.957 85.5803 141.83C85.9403 142.697 86.4803 143.377 87.2003 143.87C87.9203 144.357 88.817 144.6 89.8903 144.6C91.1103 144.6 92.097 144.29 92.8503 143.67C93.6036 143.043 94.127 142.197 94.4203 141.13L96.2303 141.61C95.8236 143.037 95.0803 144.177 94.0003 145.03C92.927 145.877 91.557 146.3 89.8903 146.3ZM98.4234 146V131.6H104.113C104.253 131.6 104.42 131.607 104.613 131.62C104.807 131.627 104.993 131.647 105.173 131.68C105.953 131.8 106.607 132.067 107.133 132.48C107.667 132.893 108.067 133.417 108.333 134.05C108.6 134.677 108.733 135.373 108.733 136.14C108.733 137.253 108.443 138.22 107.863 139.04C107.283 139.853 106.433 140.363 105.313 140.57L104.633 140.68H100.203V146H98.4234ZM106.993 146L104.153 140.14L105.913 139.6L109.033 146H106.993ZM100.203 138.99H104.053C104.18 138.99 104.323 138.983 104.483 138.97C104.65 138.957 104.807 138.933 104.953 138.9C105.413 138.793 105.787 138.6 106.073 138.32C106.367 138.033 106.58 137.7 106.713 137.32C106.847 136.933 106.913 136.54 106.913 136.14C106.913 135.74 106.847 135.35 106.713 134.97C106.58 134.583 106.367 134.247 106.073 133.96C105.787 133.673 105.413 133.48 104.953 133.38C104.807 133.34 104.65 133.317 104.483 133.31C104.323 133.297 104.18 133.29 104.053 133.29H100.203V138.99ZM115.23 150.8V135.2C115.23 134.953 115.247 134.71 115.28 134.47C115.32 134.23 115.377 134 115.45 133.78C115.63 133.24 115.91 132.787 116.29 132.42C116.67 132.047 117.123 131.767 117.65 131.58C118.177 131.393 118.75 131.3 119.37 131.3C120.203 131.3 120.937 131.463 121.57 131.79C122.21 132.11 122.71 132.563 123.07 133.15C123.43 133.737 123.61 134.427 123.61 135.22C123.61 135.86 123.48 136.433 123.22 136.94C122.967 137.447 122.577 137.83 122.05 138.09C122.403 138.177 122.743 138.323 123.07 138.53C123.403 138.737 123.703 139 123.97 139.32C124.237 139.64 124.447 140.02 124.6 140.46C124.76 140.9 124.84 141.397 124.84 141.95C124.84 142.823 124.643 143.587 124.25 144.24C123.857 144.887 123.293 145.393 122.56 145.76C121.833 146.12 120.96 146.3 119.94 146.3C119.327 146.3 118.773 146.217 118.28 146.05C117.793 145.89 117.37 145.67 117.01 145.39V150.8H115.23ZM120.02 144.61C120.613 144.61 121.137 144.497 121.59 144.27C122.043 144.037 122.397 143.717 122.65 143.31C122.903 142.897 123.03 142.417 123.03 141.87C123.03 140.983 122.703 140.313 122.05 139.86C121.397 139.4 120.52 139.16 119.42 139.14V137.54C119.88 137.493 120.287 137.38 120.64 137.2C121 137.02 121.28 136.767 121.48 136.44C121.687 136.113 121.79 135.713 121.79 135.24C121.79 134.527 121.567 133.973 121.12 133.58C120.673 133.187 120.103 132.99 119.41 132.99C118.97 132.99 118.55 133.09 118.15 133.29C117.757 133.483 117.467 133.813 117.28 134.28C117.18 134.54 117.117 134.817 117.09 135.11C117.063 135.397 117.05 135.647 117.05 135.86V141.71C117.05 141.903 117.06 142.123 117.08 142.37C117.107 142.61 117.147 142.823 117.2 143.01C117.367 143.523 117.723 143.92 118.27 144.2C118.817 144.473 119.4 144.61 120.02 144.61Z" fill="white"/>
    <path d="M327 324L326.293 324.707L325.586 324L326.293 323.293L327 324ZM334.293 315.293L335 314.586L336.414 316L335.707 316.707L334.293 315.293ZM335.707 331.293L336.414 332L335 333.414L334.293 332.707L335.707 331.293ZM337 325L327 325L327 323L337 323L337 325ZM326.293 323.293L334.293 315.293L335.707 316.707L327.707 324.707L326.293 323.293ZM327.707 323.293L335.707 331.293L334.293 332.707L326.293 324.707L327.707 323.293Z" fill="#D3D7E0"/>
    <path d="M492 324H337" stroke="#D3D7E0" stroke-width="2"/>
    <rect width="57" height="20" transform="translate(492 314)" fill="#1D1D29"/>
    <path d="M501.136 330V320.056L498.968 321.368V319.776L501.136 318.48H502.584V330H501.136ZM509.036 330.24C508.444 330.24 507.892 330.117 507.38 329.872C506.873 329.627 506.438 329.291 506.076 328.864C505.718 328.432 505.462 327.936 505.308 327.376L506.676 327.008C506.772 327.387 506.942 327.715 507.188 327.992C507.433 328.264 507.718 328.477 508.044 328.632C508.374 328.781 508.718 328.856 509.076 328.856C509.545 328.856 509.966 328.744 510.34 328.52C510.718 328.291 511.017 327.989 511.236 327.616C511.454 327.237 511.564 326.824 511.564 326.376C511.564 325.912 511.449 325.493 511.22 325.12C510.996 324.741 510.694 324.443 510.316 324.224C509.937 324.005 509.524 323.896 509.076 323.896C508.569 323.896 508.134 324.003 507.772 324.216C507.414 324.424 507.132 324.68 506.924 324.984L505.66 324.504L506.012 318.48H512.196V319.832H506.7L507.332 319.24L507.036 324.064L506.724 323.656C507.044 323.315 507.425 323.051 507.868 322.864C508.316 322.677 508.772 322.584 509.236 322.584C509.95 322.584 510.59 322.752 511.156 323.088C511.721 323.419 512.169 323.872 512.5 324.448C512.83 325.019 512.996 325.661 512.996 326.376C512.996 327.085 512.814 327.733 512.452 328.32C512.089 328.901 511.606 329.368 511.004 329.72C510.406 330.067 509.75 330.24 509.036 330.24ZM518.797 330.24C518.05 330.24 517.384 330.072 516.797 329.736C516.216 329.395 515.754 328.933 515.413 328.352C515.077 327.765 514.909 327.099 514.909 326.352V322.128C514.909 321.381 515.077 320.715 515.413 320.128C515.754 319.541 516.216 319.08 516.797 318.744C517.384 318.408 518.05 318.24 518.797 318.24C519.544 318.24 520.21 318.408 520.797 318.744C521.384 319.08 521.845 319.541 522.181 320.128C522.517 320.715 522.685 321.381 522.685 322.128V326.352C522.685 327.099 522.517 327.765 522.181 328.352C521.845 328.933 521.384 329.395 520.797 329.736C520.21 330.072 519.544 330.24 518.797 330.24ZM518.797 328.872C519.25 328.872 519.661 328.763 520.029 328.544C520.397 328.325 520.69 328.032 520.909 327.664C521.128 327.291 521.237 326.88 521.237 326.432V322.04C521.237 321.587 521.128 321.176 520.909 320.808C520.69 320.44 520.397 320.147 520.029 319.928C519.661 319.709 519.25 319.6 518.797 319.6C518.349 319.6 517.938 319.709 517.565 319.928C517.197 320.147 516.904 320.44 516.685 320.808C516.466 321.176 516.357 321.587 516.357 322.04V326.432C516.357 326.88 516.466 327.291 516.685 327.664C516.904 328.032 517.197 328.325 517.565 328.544C517.938 328.763 518.349 328.872 518.797 328.872ZM528.893 330.24C528.082 330.24 527.399 330.04 526.845 329.64C526.29 329.235 525.869 328.688 525.581 328C525.298 327.307 525.157 326.531 525.157 325.672C525.157 324.803 525.298 324.024 525.581 323.336C525.869 322.648 526.29 322.107 526.845 321.712C527.405 321.317 528.09 321.12 528.901 321.12C529.701 321.12 530.389 321.32 530.965 321.72C531.546 322.115 531.991 322.656 532.301 323.344C532.61 324.032 532.765 324.808 532.765 325.672C532.765 326.536 532.61 327.312 532.301 328C531.991 328.688 531.546 329.235 530.965 329.64C530.389 330.04 529.698 330.24 528.893 330.24ZM524.917 330V318.48H526.349V323.64H526.189V330H524.917ZM528.717 328.936C529.287 328.936 529.759 328.792 530.133 328.504C530.506 328.216 530.786 327.827 530.973 327.336C531.159 326.84 531.253 326.285 531.253 325.672C531.253 325.064 531.159 324.515 530.973 324.024C530.791 323.533 530.509 323.144 530.125 322.856C529.746 322.568 529.263 322.424 528.677 322.424C528.117 322.424 527.653 322.563 527.285 322.84C526.917 323.112 526.642 323.493 526.461 323.984C526.279 324.469 526.189 325.032 526.189 325.672C526.189 326.301 526.277 326.864 526.453 327.36C526.634 327.851 526.911 328.237 527.285 328.52C527.658 328.797 528.135 328.936 528.717 328.936ZM538.486 330.24C537.676 330.24 536.993 330.04 536.438 329.64C535.884 329.235 535.462 328.688 535.174 328C534.892 327.307 534.75 326.531 534.75 325.672C534.75 324.803 534.892 324.024 535.174 323.336C535.462 322.648 535.884 322.107 536.438 321.712C536.998 321.317 537.684 321.12 538.494 321.12C539.294 321.12 539.982 321.32 540.558 321.72C541.14 322.115 541.585 322.656 541.894 323.344C542.204 324.032 542.358 324.808 542.358 325.672C542.358 326.536 542.204 327.312 541.894 328C541.585 328.688 541.14 329.235 540.558 329.64C539.982 330.04 539.292 330.24 538.486 330.24ZM534.51 333.84V321.36H535.782V327.72H535.942V333.84H534.51ZM538.31 328.936C538.881 328.936 539.353 328.792 539.726 328.504C540.1 328.216 540.38 327.827 540.566 327.336C540.753 326.84 540.846 326.285 540.846 325.672C540.846 325.064 540.753 324.515 540.566 324.024C540.385 323.533 540.102 323.144 539.718 322.856C539.34 322.568 538.857 322.424 538.27 322.424C537.71 322.424 537.246 322.563 536.878 322.84C536.51 323.112 536.236 323.493 536.054 323.984C535.873 324.469 535.782 325.032 535.782 325.672C535.782 326.301 535.87 326.864 536.046 327.36C536.228 327.851 536.505 328.237 536.878 328.52C537.252 328.797 537.729 328.936 538.31 328.936Z" fill="white"/>
    <path d="M704 324H549" stroke="#D3D7E0" stroke-width="2"/>
    <path d="M712.62 330V318.48H717.172C717.284 318.48 717.417 318.485 717.572 318.496C717.727 318.501 717.876 318.517 718.02 318.544C718.644 318.64 719.167 318.853 719.588 319.184C720.015 319.515 720.335 319.933 720.548 320.44C720.761 320.941 720.868 321.499 720.868 322.112C720.868 323.003 720.636 323.776 720.172 324.432C719.708 325.083 719.028 325.491 718.132 325.656L717.588 325.744H714.044V330H712.62ZM719.476 330L717.204 325.312L718.612 324.88L721.108 330H719.476ZM714.044 324.392H717.124C717.225 324.392 717.34 324.387 717.468 324.376C717.601 324.365 717.727 324.347 717.844 324.32C718.212 324.235 718.511 324.08 718.74 323.856C718.975 323.627 719.145 323.36 719.252 323.056C719.359 322.747 719.412 322.432 719.412 322.112C719.412 321.792 719.359 321.48 719.252 321.176C719.145 320.867 718.975 320.597 718.74 320.368C718.511 320.139 718.212 319.984 717.844 319.904C717.727 319.872 717.601 319.853 717.468 319.848C717.34 319.837 717.225 319.832 717.124 319.832H714.044V324.392ZM724.878 330V320.056L722.71 321.368V319.776L724.878 318.48H726.326V330H724.878Z" fill="white"/>
    <rect x="704" y="312" width="32" height="24" rx="1" stroke="#D3D7E0" stroke-width="2"/>
    <path d="M369 190L368.293 190.707L367.586 190L368.293 189.293L369 190ZM376.293 181.293L377 180.586L378.414 182L377.707 182.707L376.293 181.293ZM377.707 197.293L378.414 198L377 199.414L376.293 198.707L377.707 197.293ZM379 191L369 191L369 189L379 189L379 191ZM368.293 189.293L376.293 181.293L377.707 182.707L369.707 190.707L368.293 189.293ZM369.707 189.293L377.707 197.293L376.293 198.707L368.293 190.707L369.707 189.293Z" fill="#D3D7E0"/>
    <path d="M546 190H379" stroke="#D3D7E0" stroke-width="2"/>
    <rect width="57" height="20" transform="translate(546 180)" fill="#1D1D29"/>
    <path d="M555.136 196V186.056L552.968 187.368V185.776L555.136 184.48H556.584V196H555.136ZM563.036 196.24C562.444 196.24 561.892 196.117 561.38 195.872C560.873 195.627 560.438 195.291 560.076 194.864C559.718 194.432 559.462 193.936 559.308 193.376L560.676 193.008C560.772 193.387 560.942 193.715 561.188 193.992C561.433 194.264 561.718 194.477 562.044 194.632C562.374 194.781 562.718 194.856 563.076 194.856C563.545 194.856 563.966 194.744 564.34 194.52C564.718 194.291 565.017 193.989 565.236 193.616C565.454 193.237 565.564 192.824 565.564 192.376C565.564 191.912 565.449 191.493 565.22 191.12C564.996 190.741 564.694 190.443 564.316 190.224C563.937 190.005 563.524 189.896 563.076 189.896C562.569 189.896 562.134 190.003 561.772 190.216C561.414 190.424 561.132 190.68 560.924 190.984L559.66 190.504L560.012 184.48H566.196V185.832H560.7L561.332 185.24L561.036 190.064L560.724 189.656C561.044 189.315 561.425 189.051 561.868 188.864C562.316 188.677 562.772 188.584 563.236 188.584C563.95 188.584 564.59 188.752 565.156 189.088C565.721 189.419 566.169 189.872 566.5 190.448C566.83 191.019 566.996 191.661 566.996 192.376C566.996 193.085 566.814 193.733 566.452 194.32C566.089 194.901 565.606 195.368 565.004 195.72C564.406 196.067 563.75 196.24 563.036 196.24ZM572.797 196.24C572.05 196.24 571.384 196.072 570.797 195.736C570.216 195.395 569.754 194.933 569.413 194.352C569.077 193.765 568.909 193.099 568.909 192.352V188.128C568.909 187.381 569.077 186.715 569.413 186.128C569.754 185.541 570.216 185.08 570.797 184.744C571.384 184.408 572.05 184.24 572.797 184.24C573.544 184.24 574.21 184.408 574.797 184.744C575.384 185.08 575.845 185.541 576.181 186.128C576.517 186.715 576.685 187.381 576.685 188.128V192.352C576.685 193.099 576.517 193.765 576.181 194.352C575.845 194.933 575.384 195.395 574.797 195.736C574.21 196.072 573.544 196.24 572.797 196.24ZM572.797 194.872C573.25 194.872 573.661 194.763 574.029 194.544C574.397 194.325 574.69 194.032 574.909 193.664C575.128 193.291 575.237 192.88 575.237 192.432V188.04C575.237 187.587 575.128 187.176 574.909 186.808C574.69 186.44 574.397 186.147 574.029 185.928C573.661 185.709 573.25 185.6 572.797 185.6C572.349 185.6 571.938 185.709 571.565 185.928C571.197 186.147 570.904 186.44 570.685 186.808C570.466 187.176 570.357 187.587 570.357 188.04V192.432C570.357 192.88 570.466 193.291 570.685 193.664C570.904 194.032 571.197 194.325 571.565 194.544C571.938 194.763 572.349 194.872 572.797 194.872ZM582.893 196.24C582.082 196.24 581.399 196.04 580.845 195.64C580.29 195.235 579.869 194.688 579.581 194C579.298 193.307 579.157 192.531 579.157 191.672C579.157 190.803 579.298 190.024 579.581 189.336C579.869 188.648 580.29 188.107 580.845 187.712C581.405 187.317 582.09 187.12 582.901 187.12C583.701 187.12 584.389 187.32 584.965 187.72C585.546 188.115 585.991 188.656 586.301 189.344C586.61 190.032 586.765 190.808 586.765 191.672C586.765 192.536 586.61 193.312 586.301 194C585.991 194.688 585.546 195.235 584.965 195.64C584.389 196.04 583.698 196.24 582.893 196.24ZM578.917 196V184.48H580.349V189.64H580.189V196H578.917ZM582.717 194.936C583.287 194.936 583.759 194.792 584.133 194.504C584.506 194.216 584.786 193.827 584.973 193.336C585.159 192.84 585.253 192.285 585.253 191.672C585.253 191.064 585.159 190.515 584.973 190.024C584.791 189.533 584.509 189.144 584.125 188.856C583.746 188.568 583.263 188.424 582.677 188.424C582.117 188.424 581.653 188.563 581.285 188.84C580.917 189.112 580.642 189.493 580.461 189.984C580.279 190.469 580.189 191.032 580.189 191.672C580.189 192.301 580.277 192.864 580.453 193.36C580.634 193.851 580.911 194.237 581.285 194.52C581.658 194.797 582.135 194.936 582.717 194.936ZM592.486 196.24C591.676 196.24 590.993 196.04 590.438 195.64C589.884 195.235 589.462 194.688 589.174 194C588.892 193.307 588.75 192.531 588.75 191.672C588.75 190.803 588.892 190.024 589.174 189.336C589.462 188.648 589.884 188.107 590.438 187.712C590.998 187.317 591.684 187.12 592.494 187.12C593.294 187.12 593.982 187.32 594.558 187.72C595.14 188.115 595.585 188.656 595.894 189.344C596.204 190.032 596.358 190.808 596.358 191.672C596.358 192.536 596.204 193.312 595.894 194C595.585 194.688 595.14 195.235 594.558 195.64C593.982 196.04 593.292 196.24 592.486 196.24ZM588.51 199.84V187.36H589.782V193.72H589.942V199.84H588.51ZM592.31 194.936C592.881 194.936 593.353 194.792 593.726 194.504C594.1 194.216 594.38 193.827 594.566 193.336C594.753 192.84 594.846 192.285 594.846 191.672C594.846 191.064 594.753 190.515 594.566 190.024C594.385 189.533 594.102 189.144 593.718 188.856C593.34 188.568 592.857 188.424 592.27 188.424C591.71 188.424 591.246 188.563 590.878 188.84C590.51 189.112 590.236 189.493 590.054 189.984C589.873 190.469 589.782 191.032 589.782 191.672C589.782 192.301 589.87 192.864 590.046 193.36C590.228 193.851 590.505 194.237 590.878 194.52C591.252 194.797 591.729 194.936 592.31 194.936Z" fill="white"/>
    <path d="M770 190H603" stroke="#D3D7E0" stroke-width="2"/>
    <path d="M778.62 196V184.48H783.172C783.284 184.48 783.417 184.485 783.572 184.496C783.727 184.501 783.876 184.517 784.02 184.544C784.644 184.64 785.167 184.853 785.588 185.184C786.015 185.515 786.335 185.933 786.548 186.44C786.761 186.941 786.868 187.499 786.868 188.112C786.868 189.003 786.636 189.776 786.172 190.432C785.708 191.083 785.028 191.491 784.132 191.656L783.588 191.744H780.044V196H778.62ZM785.476 196L783.204 191.312L784.612 190.88L787.108 196H785.476ZM780.044 190.392H783.124C783.225 190.392 783.34 190.387 783.468 190.376C783.601 190.365 783.727 190.347 783.844 190.32C784.212 190.235 784.511 190.08 784.74 189.856C784.975 189.627 785.145 189.36 785.252 189.056C785.359 188.747 785.412 188.432 785.412 188.112C785.412 187.792 785.359 187.48 785.252 187.176C785.145 186.867 784.975 186.597 784.74 186.368C784.511 186.139 784.212 185.984 783.844 185.904C783.727 185.872 783.601 185.853 783.468 185.848C783.34 185.837 783.225 185.832 783.124 185.832H780.044V190.392ZM790.878 196V186.056L788.71 187.368V185.776L790.878 184.48H792.326V196H790.878Z" fill="white"/>
    <rect x="770" y="178" width="32" height="24" rx="1" stroke="#D3D7E0" stroke-width="2"/>
    <path d="M271.203 37V26.92H277.174V28.383H272.666V31.225H276.334V32.695H272.666V37H271.203ZM278.435 37V26.92H282.509C282.607 26.92 282.728 26.9247 282.873 26.934C283.018 26.9387 283.155 26.9527 283.286 26.976C283.846 27.0647 284.313 27.256 284.686 27.55C285.064 27.844 285.346 28.215 285.533 28.663C285.72 29.111 285.813 29.6057 285.813 30.147C285.813 30.9497 285.608 31.6427 285.197 32.226C284.786 32.8047 284.17 33.1663 283.349 33.311L282.754 33.381H279.898V37H278.435ZM284.329 37L282.341 32.898L283.818 32.52L286.002 37H284.329ZM279.898 31.995H282.453C282.546 31.995 282.649 31.9903 282.761 31.981C282.878 31.9717 282.987 31.9553 283.09 31.932C283.389 31.862 283.629 31.7337 283.811 31.547C283.993 31.3557 284.124 31.1363 284.203 30.889C284.282 30.6417 284.322 30.3943 284.322 30.147C284.322 29.8997 284.282 29.6547 284.203 29.412C284.124 29.1647 283.993 28.9477 283.811 28.761C283.629 28.5697 283.389 28.439 283.09 28.369C282.987 28.341 282.878 28.3223 282.761 28.313C282.649 28.3037 282.546 28.299 282.453 28.299H279.898V31.995ZM287.261 36.993L287.268 35.691L291.657 31.757C292.011 31.4443 292.252 31.1457 292.378 30.861C292.508 30.5763 292.574 30.2917 292.574 30.007C292.574 29.6477 292.494 29.3257 292.336 29.041C292.177 28.7517 291.958 28.523 291.678 28.355C291.398 28.187 291.076 28.103 290.712 28.103C290.338 28.103 290.005 28.1917 289.711 28.369C289.421 28.5417 289.195 28.7727 289.032 29.062C288.868 29.3513 288.789 29.664 288.794 30H287.296C287.296 29.3467 287.443 28.775 287.737 28.285C288.035 27.7903 288.444 27.4053 288.962 27.13C289.48 26.85 290.072 26.71 290.74 26.71C291.374 26.71 291.944 26.8547 292.448 27.144C292.952 27.4287 293.348 27.8207 293.638 28.32C293.932 28.8193 294.079 29.3887 294.079 30.028C294.079 30.49 294.018 30.882 293.897 31.204C293.775 31.526 293.593 31.8247 293.351 32.1C293.108 32.3753 292.805 32.674 292.441 32.996L289.053 36.02L288.892 35.6H294.079V36.993H287.261Z" fill="white" fill-opacity="0.3"/>
    <path d="M338 112V24" stroke="white" stroke-opacity="0.3" stroke-width="2" stroke-linecap="square" stroke-dasharray="6 6"/>
    <path d="M368.08 37.21C367.072 37.21 366.213 36.9907 365.504 36.552C364.794 36.1087 364.251 35.4927 363.873 34.704C363.499 33.9153 363.313 33.0007 363.313 31.96C363.313 30.9193 363.499 30.0047 363.873 29.216C364.251 28.4273 364.794 27.8137 365.504 27.375C366.213 26.9317 367.072 26.71 368.08 26.71C369.242 26.71 370.203 27.004 370.964 27.592C371.729 28.18 372.261 28.971 372.56 29.965L371.076 30.364C370.88 29.6593 370.53 29.1063 370.026 28.705C369.526 28.3037 368.878 28.103 368.08 28.103C367.366 28.103 366.771 28.264 366.295 28.586C365.819 28.908 365.459 29.3583 365.217 29.937C364.979 30.5157 364.86 31.19 364.86 31.96C364.855 32.73 364.972 33.4043 365.21 33.983C365.452 34.5617 365.812 35.012 366.288 35.334C366.768 35.656 367.366 35.817 368.08 35.817C368.878 35.817 369.526 35.6163 370.026 35.215C370.53 34.809 370.88 34.256 371.076 33.556L372.56 33.955C372.261 34.949 371.729 35.74 370.964 36.328C370.203 36.916 369.242 37.21 368.08 37.21ZM374.099 37V26.92H377.256C377.349 26.92 377.522 26.9223 377.774 26.927C378.031 26.9317 378.276 26.9503 378.509 26.983C379.298 27.081 379.96 27.3633 380.497 27.83C381.038 28.2967 381.447 28.8893 381.722 29.608C381.997 30.322 382.135 31.106 382.135 31.96C382.135 32.8187 381.997 33.6073 381.722 34.326C381.447 35.04 381.038 35.6303 380.497 36.097C379.96 36.559 379.298 36.839 378.509 36.937C378.276 36.9697 378.031 36.9883 377.774 36.993C377.522 36.9977 377.349 37 377.256 37H374.099ZM375.597 35.607H377.256C377.415 35.607 377.604 35.6023 377.823 35.593C378.042 35.5837 378.236 35.565 378.404 35.537C378.917 35.439 379.333 35.2173 379.65 34.872C379.972 34.522 380.208 34.0927 380.357 33.584C380.506 33.0753 380.581 32.534 380.581 31.96C380.581 31.3673 380.504 30.819 380.35 30.315C380.196 29.8063 379.958 29.3817 379.636 29.041C379.319 28.6957 378.908 28.4763 378.404 28.383C378.236 28.3503 378.04 28.3317 377.816 28.327C377.597 28.3177 377.41 28.313 377.256 28.313H375.597V35.607ZM383.765 37V26.92H387.839C387.937 26.92 388.058 26.9247 388.203 26.934C388.348 26.9387 388.485 26.9527 388.616 26.976C389.176 27.0647 389.643 27.256 390.016 27.55C390.394 27.844 390.676 28.215 390.863 28.663C391.05 29.111 391.143 29.6057 391.143 30.147C391.143 30.9497 390.938 31.6427 390.527 32.226C390.116 32.8047 389.5 33.1663 388.679 33.311L388.084 33.381H385.228V37H383.765ZM389.659 37L387.671 32.898L389.148 32.52L391.332 37H389.659ZM385.228 31.995H387.783C387.876 31.995 387.979 31.9903 388.091 31.981C388.208 31.9717 388.317 31.9553 388.42 31.932C388.719 31.862 388.959 31.7337 389.141 31.547C389.323 31.3557 389.454 31.1363 389.533 30.889C389.612 30.6417 389.652 30.3943 389.652 30.147C389.652 29.8997 389.612 29.6547 389.533 29.412C389.454 29.1647 389.323 28.9477 389.141 28.761C388.959 28.5697 388.719 28.439 388.42 28.369C388.317 28.341 388.208 28.3223 388.091 28.313C387.979 28.3037 387.876 28.299 387.783 28.299H385.228V31.995ZM392.591 36.993L392.598 35.691L396.987 31.757C397.341 31.4443 397.582 31.1457 397.708 30.861C397.838 30.5763 397.904 30.2917 397.904 30.007C397.904 29.6477 397.824 29.3257 397.666 29.041C397.507 28.7517 397.288 28.523 397.008 28.355C396.728 28.187 396.406 28.103 396.042 28.103C395.668 28.103 395.335 28.1917 395.041 28.369C394.751 28.5417 394.525 28.7727 394.362 29.062C394.198 29.3513 394.119 29.664 394.124 30H392.626C392.626 29.3467 392.773 28.775 393.067 28.285C393.365 27.7903 393.774 27.4053 394.292 27.13C394.81 26.85 395.402 26.71 396.07 26.71C396.704 26.71 397.274 26.8547 397.778 27.144C398.282 27.4287 398.678 27.8207 398.968 28.32C399.262 28.8193 399.409 29.3887 399.409 30.028C399.409 30.49 399.348 30.882 399.227 31.204C399.105 31.526 398.923 31.8247 398.681 32.1C398.438 32.3753 398.135 32.674 397.771 32.996L394.383 36.02L394.222 35.6H399.409V36.993H392.591Z" fill="white" fill-opacity="0.3"/>
    <path d="M422 112V24" stroke="white" stroke-opacity="0.3" stroke-width="2" stroke-linecap="square" stroke-dasharray="6 6"/>
    <defs>
        <filter id="filter0_i_6016_38047" x="200.391" y="111" width="362.609" height="54" filterUnits="userSpaceOnUse" color-interpolation-filters="sRGB">
            <feFlood flood-opacity="0" result="BackgroundImageFix"/>
            <feBlend mode="normal" in="SourceGraphic" in2="BackgroundImageFix" result="shape"/>
            <feColorMatrix in="SourceAlpha" type="matrix" values="0 0 0 0 0 0 0 0 0 0 0 0 0 0 0 0 0 0 127 0" result="hardAlpha"/>
            <feOffset dx="-8" dy="-4"/>
            <feComposite in2="hardAlpha" operator="arithmetic" k2="-1" k3="1"/>
            <feColorMatrix type="matrix" values="0 0 0 0 0.0666667 0 0 0 0 0.0196078 0 0 0 0 0.160784 0 0 0 0.16 0"/>
            <feBlend mode="normal" in2="shape" result="effect1_innerShadow_6016_38047"/>
        </filter>
        <filter id="filter1_i_6016_38047" x="561" y="111" width="32" height="54" filterUnits="userSpaceOnUse" color-interpolation-filters="sRGB">
            <feFlood flood-opacity="0" result="BackgroundImageFix"/>
            <feBlend mode="normal" in="SourceGraphic" in2="BackgroundImageFix" result="shape"/>
            <feColorMatrix in="SourceAlpha" type="matrix" values="0 0 0 0 0 0 0 0 0 0 0 0 0 0 0 0 0 0 127 0" result="hardAlpha"/>
            <feOffset dx="-8" dy="-4"/>
            <feComposite in2="hardAlpha" operator="arithmetic" k2="-1" k3="1"/>
            <feColorMatrix type="matrix" values="0 0 0 0 0.0666667 0 0 0 0 0.0196078 0 0 0 0 0.160784 0 0 0 0.16 0"/>
            <feBlend mode="normal" in2="shape" result="effect1_innerShadow_6016_38047"/>
        </filter>
        <filter id="filter2_i_6016_38047" x="627" y="111" width="32" height="54" filterUnits="userSpaceOnUse" color-interpolation-filters="sRGB">
            <feFlood flood-opacity="0" result="BackgroundImageFix"/>
            <feBlend mode="normal" in="SourceGraphic" in2="BackgroundImageFix" result="shape"/>
            <feColorMatrix in="SourceAlpha" type="matrix" values="0 0 0 0 0 0 0 0 0 0 0 0 0 0 0 0 0 0 127 0" result="hardAlpha"/>
            <feOffset dx="-8" dy="-4"/>
            <feComposite in2="hardAlpha" operator="arithmetic" k2="-1" k3="1"/>
            <feColorMatrix type="matrix" values="0 0 0 0 0.0666667 0 0 0 0 0.0196078 0 0 0 0 0.160784 0 0 0 0.16 0"/>
            <feBlend mode="normal" in2="shape" result="effect1_innerShadow_6016_38047"/>
        </filter>
        <filter id="filter3_i_6016_38047" x="591" y="111" width="38" height="54" filterUnits="userSpaceOnUse" color-interpolation-filters="sRGB">
            <feFlood flood-opacity="0" result="BackgroundImageFix"/>
            <feBlend mode="normal" in="SourceGraphic" in2="BackgroundImageFix" result="shape"/>
            <feColorMatrix in="SourceAlpha" type="matrix" values="0 0 0 0 0 0 0 0 0 0 0 0 0 0 0 0 0 0 127 0" result="hardAlpha"/>
            <feOffset dx="-8" dy="-4"/>
            <feComposite in2="hardAlpha" operator="arithmetic" k2="-1" k3="1"/>
            <feColorMatrix type="matrix" values="0 0 0 0 0.0666667 0 0 0 0 0.0196078 0 0 0 0 0.160784 0 0 0 0.16 0"/>
            <feBlend mode="normal" in2="shape" result="effect1_innerShadow_6016_38047"/>
        </filter>
        <filter id="filter4_i_6016_38047" x="657" y="111" width="146" height="54" filterUnits="userSpaceOnUse" color-interpolation-filters="sRGB">
            <feFlood flood-opacity="0" result="BackgroundImageFix"/>
            <feBlend mode="normal" in="SourceGraphic" in2="BackgroundImageFix" result="shape"/>
            <feColorMatrix in="SourceAlpha" type="matrix" values="0 0 0 0 0 0 0 0 0 0 0 0 0 0 0 0 0 0 127 0" result="hardAlpha"/>
            <feOffset dx="-8" dy="-4"/>
            <feComposite in2="hardAlpha" operator="arithmetic" k2="-1" k3="1"/>
            <feColorMatrix type="matrix" values="0 0 0 0 0.0666667 0 0 0 0 0.0196078 0 0 0 0 0.160784 0 0 0 0.16 0"/>
            <feBlend mode="normal" in2="shape" result="effect1_innerShadow_6016_38047"/>
        </filter>
        <filter id="filter5_i_6016_38047" x="200.391" y="251" width="362.609" height="54" filterUnits="userSpaceOnUse" color-interpolation-filters="sRGB">
            <feFlood flood-opacity="0" result="BackgroundImageFix"/>
            <feBlend mode="normal" in="SourceGraphic" in2="BackgroundImageFix" result="shape"/>
            <feColorMatrix in="SourceAlpha" type="matrix" values="0 0 0 0 0 0 0 0 0 0 0 0 0 0 0 0 0 0 127 0" result="hardAlpha"/>
            <feOffset dx="-8" dy="-4"/>
            <feComposite in2="hardAlpha" operator="arithmetic" k2="-1" k3="1"/>
            <feColorMatrix type="matrix" values="0 0 0 0 0.0666667 0 0 0 0 0.0196078 0 0 0 0 0.160784 0 0 0 0.16 0"/>
            <feBlend mode="normal" in2="shape" result="effect1_innerShadow_6016_38047"/>
        </filter>
        <filter id="filter6_i_6016_38047" x="561" y="251" width="32" height="54" filterUnits="userSpaceOnUse" color-interpolation-filters="sRGB">
            <feFlood flood-opacity="0" result="BackgroundImageFix"/>
            <feBlend mode="normal" in="SourceGraphic" in2="BackgroundImageFix" result="shape"/>
            <feColorMatrix in="SourceAlpha" type="matrix" values="0 0 0 0 0 0 0 0 0 0 0 0 0 0 0 0 0 0 127 0" result="hardAlpha"/>
            <feOffset dx="-8" dy="-4"/>
            <feComposite in2="hardAlpha" operator="arithmetic" k2="-1" k3="1"/>
            <feColorMatrix type="matrix" values="0 0 0 0 0.0666667 0 0 0 0 0.0196078 0 0 0 0 0.160784 0 0 0 0.16 0"/>
            <feBlend mode="normal" in2="shape" result="effect1_innerShadow_6016_38047"/>
        </filter>
        <filter id="filter7_i_6016_38047" x="591" y="251" width="146" height="54" filterUnits="userSpaceOnUse" color-interpolation-filters="sRGB">
            <feFlood flood-opacity="0" result="BackgroundImageFix"/>
            <feBlend mode="normal" in="SourceGraphic" in2="BackgroundImageFix" result="shape"/>
            <feColorMatrix in="SourceAlpha" type="matrix" values="0 0 0 0 0 0 0 0 0 0 0 0 0 0 0 0 0 0 127 0" result="hardAlpha"/>
            <feOffset dx="-8" dy="-4"/>
            <feComposite in2="hardAlpha" operator="arithmetic" k2="-1" k3="1"/>
            <feColorMatrix type="matrix" values="0 0 0 0 0.0666667 0 0 0 0 0.0196078 0 0 0 0 0.160784 0 0 0 0.16 0"/>
            <feBlend mode="normal" in2="shape" result="effect1_innerShadow_6016_38047"/>
        </filter>
    </defs>
</svg>
