<svg width="960" height="424" viewBox="0 0 960 424" fill="none" xmlns="http://www.w3.org/2000/svg">
<rect width="960" height="424" fill="white"/>
<path d="M424.58 37.21C426.904 37.21 428.465 35.943 429.06 33.955L427.576 33.556C427.177 34.963 426.176 35.817 424.58 35.817C422.438 35.817 421.346 34.27 421.36 31.96C421.367 29.65 422.438 28.103 424.58 28.103C426.176 28.103 427.177 28.957 427.576 30.364L429.06 29.965C428.465 27.977 426.904 26.71 424.58 26.71C421.556 26.71 419.813 28.845 419.813 31.96C419.813 35.075 421.556 37.21 424.58 37.21ZM430.599 37H433.756C433.938 37 434.54 37 435.009 36.937C437.375 36.636 438.635 34.529 438.635 31.96C438.635 29.391 437.375 27.284 435.009 26.983C434.54 26.92 433.938 26.92 433.756 26.92H430.599V37ZM432.097 35.607V28.313H433.756C434.064 28.313 434.568 28.32 434.904 28.383C436.416 28.663 437.081 30.189 437.081 31.96C437.081 33.689 436.444 35.243 434.904 35.537C434.568 35.6 434.078 35.607 433.756 35.607H432.097ZM440.265 37H441.728V33.381H444.402L446.159 37H447.832L445.928 33.094C447.069 32.597 447.643 31.491 447.643 30.147C447.643 28.516 446.803 27.235 445.116 26.976C444.85 26.934 444.535 26.92 444.339 26.92H440.265V37ZM441.728 31.995V28.299H444.283C444.465 28.299 444.71 28.313 444.92 28.369C445.816 28.579 446.152 29.405 446.152 30.147C446.152 30.889 445.816 31.715 444.92 31.932C444.71 31.981 444.465 31.995 444.283 31.995H441.728ZM449.091 36.993H455.909V35.6H451.352L454.271 32.996C455.363 32.037 455.909 31.407 455.909 30.028C455.909 28.117 454.474 26.71 452.57 26.71C450.561 26.71 449.126 28.047 449.126 30H450.624C450.61 28.985 451.422 28.103 452.542 28.103C453.627 28.103 454.404 28.929 454.404 30.007C454.404 30.581 454.194 31.127 453.487 31.757L449.098 35.691L449.091 36.993Z" fill="#D3D7E0"/>
<path d="M384 144V24" stroke="#D3D7E0" stroke-width="2" stroke-linecap="square" stroke-dasharray="6 6"/>
<path d="M492 144V24" stroke="#D3D7E0" stroke-width="2" stroke-linecap="square" stroke-dasharray="6 6"/>
<path d="M318.703 37H320.166V32.695H323.834V31.225H320.166V28.383H324.674V26.92H318.703V37ZM325.935 37H327.398V33.381H330.072L331.829 37H333.502L331.598 33.094C332.739 32.597 333.313 31.491 333.313 30.147C333.313 28.516 332.473 27.235 330.786 26.976C330.52 26.934 330.205 26.92 330.009 26.92H325.935V37ZM327.398 31.995V28.299H329.953C330.135 28.299 330.38 28.313 330.59 28.369C331.486 28.579 331.822 29.405 331.822 30.147C331.822 30.889 331.486 31.715 330.59 31.932C330.38 31.981 330.135 31.995 329.953 31.995H327.398ZM334.761 36.993H341.579V35.6H337.022L339.941 32.996C341.033 32.037 341.579 31.407 341.579 30.028C341.579 28.117 340.144 26.71 338.24 26.71C336.231 26.71 334.796 28.047 334.796 30H336.294C336.28 28.985 337.092 28.103 338.212 28.103C339.297 28.103 340.074 28.929 340.074 30.007C340.074 30.581 339.864 31.127 339.157 31.757L334.768 35.691L334.761 36.993Z" fill="#D3D7E0"/>
<path d="M276 144V24" stroke="#D3D7E0" stroke-width="2" stroke-linecap="square" stroke-dasharray="6 6"/>
<path d="M209.735 37.21C212.059 37.21 213.62 35.943 214.215 33.955L212.731 33.556C212.332 34.963 211.331 35.817 209.735 35.817C207.593 35.817 206.501 34.27 206.515 31.96C206.522 29.65 207.593 28.103 209.735 28.103C211.331 28.103 212.332 28.957 212.731 30.364L214.215 29.965C213.62 27.977 212.059 26.71 209.735 26.71C206.711 26.71 204.968 28.845 204.968 31.96C204.968 35.075 206.711 37.21 209.735 37.21ZM215.754 37H218.911C219.093 37 219.695 37 220.164 36.937C222.53 36.636 223.79 34.529 223.79 31.96C223.79 29.391 222.53 27.284 220.164 26.983C219.695 26.92 219.093 26.92 218.911 26.92H215.754V37ZM217.252 35.607V28.313H218.911C219.219 28.313 219.723 28.32 220.059 28.383C221.571 28.663 222.236 30.189 222.236 31.96C222.236 33.689 221.599 35.243 220.059 35.537C219.723 35.6 219.233 35.607 218.911 35.607H217.252ZM225.42 37H226.883V33.381H229.557L231.314 37H232.987L231.083 33.094C232.224 32.597 232.798 31.491 232.798 30.147C232.798 28.516 231.958 27.235 230.271 26.976C230.005 26.934 229.69 26.92 229.494 26.92H225.42V37ZM226.883 31.995V28.299H229.438C229.62 28.299 229.865 28.313 230.075 28.369C230.971 28.579 231.307 29.405 231.307 30.147C231.307 30.889 230.971 31.715 230.075 31.932C229.865 31.981 229.62 31.995 229.438 31.995H226.883ZM236.283 37H237.774V26.92H236.283L234.386 28.054V29.685L236.283 28.53V37Z" fill="#D3D7E0"/>
<path d="M168 144V24" stroke="#D3D7E0" stroke-width="2" stroke-linecap="square" stroke-dasharray="6 6"/>
<path d="M103.858 37H105.321V32.695H108.989V31.225H105.321V28.383H109.829V26.92H103.858V37ZM111.09 37H112.553V33.381H115.227L116.984 37H118.657L116.753 33.094C117.894 32.597 118.468 31.491 118.468 30.147C118.468 28.516 117.628 27.235 115.941 26.976C115.675 26.934 115.36 26.92 115.164 26.92H111.09V37ZM112.553 31.995V28.299H115.108C115.29 28.299 115.535 28.313 115.745 28.369C116.641 28.579 116.977 29.405 116.977 30.147C116.977 30.889 116.641 31.715 115.745 31.932C115.535 31.981 115.29 31.995 115.108 31.995H112.553ZM121.953 37H123.444V26.92H121.953L120.056 28.054V29.685L121.953 28.53V37Z" fill="#D3D7E0"/>
<path d="M600 144V24" stroke="#D3D7E0" stroke-width="2" stroke-linecap="square" stroke-dasharray="6 6"/>
<path d="M534.805 37H536.268V32.695H539.936V31.225H536.268V28.383H540.776V26.92H534.805V37ZM542.038 37H543.501V33.381H546.175L547.932 37H549.605L547.701 33.094C548.842 32.597 549.416 31.491 549.416 30.147C549.416 28.516 548.576 27.235 546.889 26.976C546.623 26.934 546.308 26.92 546.112 26.92H542.038V37ZM543.501 31.995V28.299H546.056C546.238 28.299 546.483 28.313 546.693 28.369C547.589 28.579 547.925 29.405 547.925 30.147C547.925 30.889 547.589 31.715 546.693 31.932C546.483 31.981 546.238 31.995 546.056 31.995H543.501ZM553.964 37.189C555.847 37.189 557.331 35.796 557.331 33.871C557.331 32.233 556.323 30.924 554.692 30.707L557.184 28.313V26.92H551.122V28.313H555.392L552.312 31.036L552.998 32.191C553.285 32.037 553.628 31.939 553.95 31.939C555.07 31.939 555.833 32.751 555.833 33.871C555.833 34.984 555.07 35.789 553.964 35.803C553.138 35.81 552.403 35.341 552.137 34.466L550.723 34.858C551.15 36.293 552.466 37.189 553.964 37.189Z" fill="#D3D7E0"/>
<g filter="url(#filter0_i_5602_35143)">
<path d="M85 104H614.4C614.96 104 615.24 104 615.454 104.109C615.642 104.205 615.795 104.358 615.891 104.546C616 104.76 616 105.04 616 105.6V154.4C616 154.96 616 155.24 615.891 155.454C615.795 155.642 615.642 155.795 615.454 155.891C615.24 156 614.96 156 614.4 156H85L80 149.5L85 143L80 136L85 130L80 123.5L85 117L80 110.5L85 104Z" fill="#99E099"/>
</g>
<path d="M85 104H614.4C614.96 104 615.24 104 615.454 104.109C615.642 104.205 615.795 104.358 615.891 104.546C616 104.76 616 105.04 616 105.6V154.4C616 154.96 616 155.24 615.891 155.454C615.795 155.642 615.642 155.795 615.454 155.891C615.24 156 614.96 156 614.4 156H85L80 149.5L85 143L80 136L85 130L80 123.5L85 117L80 110.5L85 104Z" stroke="#110529" stroke-width="2" stroke-linecap="round"/>
<path d="M650.682 37.21C653.006 37.21 654.567 35.943 655.162 33.955L653.678 33.556C653.279 34.963 652.278 35.817 650.682 35.817C648.54 35.817 647.448 34.27 647.462 31.96C647.469 29.65 648.54 28.103 650.682 28.103C652.278 28.103 653.279 28.957 653.678 30.364L655.162 29.965C654.567 27.977 653.006 26.71 650.682 26.71C647.658 26.71 645.915 28.845 645.915 31.96C645.915 35.075 647.658 37.21 650.682 37.21ZM656.702 37H659.859C660.041 37 660.643 37 661.112 36.937C663.478 36.636 664.738 34.529 664.738 31.96C664.738 29.391 663.478 27.284 661.112 26.983C660.643 26.92 660.041 26.92 659.859 26.92H656.702V37ZM658.2 35.607V28.313H659.859C660.167 28.313 660.671 28.32 661.007 28.383C662.519 28.663 663.184 30.189 663.184 31.96C663.184 33.689 662.547 35.243 661.007 35.537C660.671 35.6 660.181 35.607 659.859 35.607H658.2ZM666.368 37H667.831V33.381H670.505L672.262 37H673.935L672.031 33.094C673.172 32.597 673.746 31.491 673.746 30.147C673.746 28.516 672.906 27.235 671.219 26.976C670.953 26.934 670.638 26.92 670.442 26.92H666.368V37ZM667.831 31.995V28.299H670.386C670.568 28.299 670.813 28.313 671.023 28.369C671.919 28.579 672.255 29.405 672.255 30.147C672.255 30.889 671.919 31.715 671.023 31.932C670.813 31.981 670.568 31.995 670.386 31.995H667.831ZM678.294 37.189C680.177 37.189 681.661 35.796 681.661 33.871C681.661 32.233 680.653 30.924 679.022 30.707L681.514 28.313V26.92H675.452V28.313H679.722L676.642 31.036L677.328 32.191C677.615 32.037 677.958 31.939 678.28 31.939C679.4 31.939 680.163 32.751 680.163 33.871C680.163 34.984 679.4 35.789 678.294 35.803C677.468 35.81 676.733 35.341 676.467 34.466L675.053 34.858C675.48 36.293 676.796 37.189 678.294 37.189Z" fill="#D3D7E0"/>
<path d="M727 144V24" stroke="#D3D7E0" stroke-width="2" stroke-linecap="square" stroke-dasharray="6 6"/>
<path d="M777.593 37H779.056V32.695H782.724V31.225H779.056V28.383H783.564V26.92H777.593V37ZM784.826 37H786.289V33.381H788.963L790.72 37H792.393L790.489 33.094C791.63 32.597 792.204 31.491 792.204 30.147C792.204 28.516 791.364 27.235 789.677 26.976C789.411 26.934 789.096 26.92 788.9 26.92H784.826V37ZM786.289 31.995V28.299H788.844C789.026 28.299 789.271 28.313 789.481 28.369C790.377 28.579 790.713 29.405 790.713 30.147C790.713 30.889 790.377 31.715 789.481 31.932C789.271 31.981 789.026 31.995 788.844 31.995H786.289ZM798.201 37H799.685V35.243H800.686V33.857H799.685V31.127H798.201V33.857H795.324L798.6 26.92H796.927L793.651 33.857V35.243H798.201V37Z" fill="#D3D7E0"/>
<path d="M850 144V24" stroke="#D3D7E0" stroke-width="2" stroke-linecap="square" stroke-dasharray="6 6"/>
<path d="M347.258 138H349.738L354.558 123.6H352.708L348.478 136.11L344.288 123.6H342.438L347.258 138Z" fill="#110529"/>
<g filter="url(#filter1_i_5602_35143)">
<rect x="712" y="104" width="138" height="52" rx="1" fill="#C1ADFF"/>
<path d="M780.244 138.29C781.694 138.29 782.954 137.7 783.684 136.43C784.214 135.51 784.154 134.72 784.154 133.48V123.6H782.354V133.48C782.354 134.37 782.354 134.99 782.094 135.51C781.704 136.29 780.884 136.6 780.204 136.6C779.134 136.6 778.224 135.83 778.014 134.85L776.244 135.27C776.754 137.11 778.224 138.29 780.244 138.29Z" fill="#110529"/>
<rect x="712" y="104" width="138" height="52" rx="1" stroke="#110529" stroke-width="2" stroke-linecap="round"/>
</g>
<path d="M51.4 216H53.18V210.68H57.39L59.97 216H62.01L59.23 210.29C60.86 209.61 61.71 208.04 61.71 206.14C61.71 203.85 60.48 202.04 58.15 201.68C57.78 201.62 57.37 201.6 57.09 201.6H51.4V216ZM53.18 208.99V203.29H57.03C57.28 203.29 57.63 203.31 57.93 203.38C59.31 203.69 59.89 204.94 59.89 206.14C59.89 207.34 59.31 208.59 57.93 208.9C57.63 208.97 57.28 208.99 57.03 208.99H53.18ZM63.8125 215.99H73.3825V214.29H66.5525L71.1925 210.12C72.6725 208.81 73.3825 207.86 73.3825 205.97C73.3825 203.32 71.3625 201.3 68.6925 201.3C65.9225 201.3 63.8825 203.23 63.8825 205.94H65.7025C65.6825 204.37 66.9425 203 68.6625 203C70.3225 203 71.5625 204.29 71.5625 205.95C71.5625 206.86 71.2725 207.69 70.2125 208.64L63.8225 214.39L63.8125 215.99Z" fill="#110529"/>
<path d="M83 200V216H93V224L107 208L93 192V200H83Z" fill="#110529"/>
<path d="M385.5 208H110" stroke="#110529" stroke-width="2" stroke-linecap="square"/>
<rect width="56" height="20" transform="translate(385.5 198)" fill="white"/>
<path d="M390.3 213.992H397.956V212.632H392.492L396.204 209.296C397.388 208.248 397.956 207.488 397.956 205.976C397.956 203.856 396.34 202.24 394.204 202.24C391.988 202.24 390.356 203.784 390.356 205.952H391.812C391.796 204.696 392.804 203.6 394.18 203.6C395.508 203.6 396.5 204.632 396.5 205.96C396.5 206.688 396.268 207.352 395.42 208.112L390.308 212.712L390.3 213.992ZM403.278 214.24C405.422 214.24 407.238 212.504 407.238 210.376C407.238 208.232 405.614 206.584 403.478 206.584C402.702 206.584 401.926 206.848 401.326 207.328L401.534 203.832H406.438V202.48H400.254L399.902 208.504L401.166 208.984C401.582 208.384 402.302 207.896 403.318 207.896C404.662 207.896 405.806 208.984 405.806 210.376C405.806 211.728 404.718 212.856 403.318 212.856C402.246 212.856 401.206 212.144 400.918 211.008L399.55 211.376C400.014 213.056 401.494 214.24 403.278 214.24ZM413.039 214.24C415.279 214.24 416.927 212.592 416.927 210.352V206.128C416.927 203.888 415.279 202.24 413.039 202.24C410.799 202.24 409.151 203.888 409.151 206.128V210.352C409.151 212.592 410.799 214.24 413.039 214.24ZM410.599 210.432V206.04C410.599 204.688 411.687 203.6 413.039 203.6C414.391 203.6 415.479 204.688 415.479 206.04V210.432C415.479 211.784 414.391 212.872 413.039 212.872C411.687 212.872 410.599 211.784 410.599 210.432ZM423.135 214.24C425.551 214.24 427.007 212.264 427.007 209.672C427.007 207.08 425.543 205.12 423.143 205.12C422.063 205.12 421.207 205.496 420.591 206.144V202.48H419.159V214H420.431V213.024C421.063 213.784 421.967 214.24 423.135 214.24ZM420.431 209.672C420.431 207.76 421.231 206.424 422.919 206.424C424.679 206.424 425.495 207.848 425.495 209.672C425.495 211.512 424.663 212.936 422.959 212.936C421.215 212.936 420.431 211.568 420.431 209.672ZM432.729 214.24C435.145 214.24 436.601 212.264 436.601 209.672C436.601 207.08 435.137 205.12 432.737 205.12C431.561 205.12 430.657 205.568 430.025 206.328V205.36H428.753V217.84H430.185V213.2C430.801 213.856 431.657 214.24 432.729 214.24ZM430.025 209.672C430.025 207.76 430.825 206.424 432.513 206.424C434.273 206.424 435.089 207.848 435.089 209.672C435.089 211.512 434.257 212.936 432.553 212.936C430.809 212.936 430.025 211.568 430.025 209.672Z" fill="#110529"/>
<path d="M717 208H441.5" stroke="#110529" stroke-width="2" stroke-linecap="square"/>
<path d="M727 208L727.707 207.293L728.414 208L727.707 208.707L727 208ZM719.707 216.707L719 217.414L717.586 216L718.293 215.293L719.707 216.707ZM718.293 200.707L717.586 200L719 198.586L719.707 199.293L718.293 200.707ZM717 207L727 207L727 209L717 209L717 207ZM727.707 208.707L719.707 216.707L718.293 215.293L726.293 207.293L727.707 208.707ZM726.293 208.707L718.293 200.707L719.707 199.293L727.707 207.293L726.293 208.707Z" fill="#110529"/>
<path d="M51.4 392H53.18V386.68H57.39L59.97 392H62.01L59.23 386.29C60.86 385.61 61.71 384.04 61.71 382.14C61.71 379.85 60.48 378.04 58.15 377.68C57.78 377.62 57.37 377.6 57.09 377.6H51.4V392ZM53.18 384.99V379.29H57.03C57.28 379.29 57.63 379.31 57.93 379.38C59.31 379.69 59.89 380.94 59.89 382.14C59.89 383.34 59.31 384.59 57.93 384.9C57.63 384.97 57.28 384.99 57.03 384.99H53.18ZM63.8125 391.99H73.3825V390.29H66.5525L71.1925 386.12C72.6725 384.81 73.3825 383.86 73.3825 381.97C73.3825 379.32 71.3625 377.3 68.6925 377.3C65.9225 377.3 63.8825 379.23 63.8825 381.94H65.7025C65.6825 380.37 66.9425 379 68.6625 379C70.3225 379 71.5625 380.29 71.5625 381.95C71.5625 382.86 71.2725 383.69 70.2125 384.64L63.8225 390.39L63.8125 391.99Z" fill="#110529"/>
<path d="M83 376V392H93V400L107 384L93 368V376H83Z" fill="#110529"/>
<path d="M352 384H110" stroke="#110529" stroke-width="2" stroke-linecap="square"/>
<rect width="56" height="20" transform="translate(352 374)" fill="white"/>
<path d="M356.8 389.992H364.456V388.632H358.992L362.704 385.296C363.888 384.248 364.456 383.488 364.456 381.976C364.456 379.856 362.84 378.24 360.704 378.24C358.488 378.24 356.856 379.784 356.856 381.952H358.312C358.296 380.696 359.304 379.6 360.68 379.6C362.008 379.6 363 380.632 363 381.96C363 382.688 362.768 383.352 361.92 384.112L356.808 388.712L356.8 389.992ZM369.778 390.24C371.922 390.24 373.738 388.504 373.738 386.376C373.738 384.232 372.114 382.584 369.978 382.584C369.202 382.584 368.426 382.848 367.826 383.328L368.034 379.832H372.938V378.48H366.754L366.402 384.504L367.666 384.984C368.082 384.384 368.802 383.896 369.818 383.896C371.162 383.896 372.306 384.984 372.306 386.376C372.306 387.728 371.218 388.856 369.818 388.856C368.746 388.856 367.706 388.144 367.418 387.008L366.05 387.376C366.514 389.056 367.994 390.24 369.778 390.24ZM379.539 390.24C381.779 390.24 383.427 388.592 383.427 386.352V382.128C383.427 379.888 381.779 378.24 379.539 378.24C377.299 378.24 375.651 379.888 375.651 382.128V386.352C375.651 388.592 377.299 390.24 379.539 390.24ZM377.099 386.432V382.04C377.099 380.688 378.187 379.6 379.539 379.6C380.891 379.6 381.979 380.688 381.979 382.04V386.432C381.979 387.784 380.891 388.872 379.539 388.872C378.187 388.872 377.099 387.784 377.099 386.432ZM389.635 390.24C392.051 390.24 393.507 388.264 393.507 385.672C393.507 383.08 392.043 381.12 389.643 381.12C388.563 381.12 387.707 381.496 387.091 382.144V378.48H385.659V390H386.931V389.024C387.563 389.784 388.467 390.24 389.635 390.24ZM386.931 385.672C386.931 383.76 387.731 382.424 389.419 382.424C391.179 382.424 391.995 383.848 391.995 385.672C391.995 387.512 391.163 388.936 389.459 388.936C387.715 388.936 386.931 387.568 386.931 385.672ZM399.229 390.24C401.645 390.24 403.101 388.264 403.101 385.672C403.101 383.08 401.637 381.12 399.237 381.12C398.061 381.12 397.157 381.568 396.525 382.328V381.36H395.253V393.84H396.685V389.2C397.301 389.856 398.157 390.24 399.229 390.24ZM396.525 385.672C396.525 383.76 397.325 382.424 399.013 382.424C400.773 382.424 401.589 383.848 401.589 385.672C401.589 387.512 400.757 388.936 399.053 388.936C397.309 388.936 396.525 387.568 396.525 385.672Z" fill="#110529"/>
<path d="M650 384H408" stroke="#110529" stroke-width="2" stroke-linecap="square"/>
<path d="M660 384L660.707 383.293L661.414 384L660.707 384.707L660 384ZM652.707 392.707L652 393.414L650.586 392L651.293 391.293L652.707 392.707ZM651.293 376.707L650.586 376L652 374.586L652.707 375.293L651.293 376.707ZM650 383L660 383L660 385L650 385L650 383ZM660.707 384.707L652.707 392.707L651.293 391.293L659.293 383.293L660.707 384.707ZM659.293 384.707L651.293 376.707L652.707 375.293L660.707 383.293L659.293 384.707Z" fill="#110529"/>
<path d="M347 184L346.293 183.293L345.586 184L346.293 184.707L347 184ZM354.293 192.707L355 193.414L356.414 192L355.707 191.293L354.293 192.707ZM355.707 176.707L356.414 176L355 174.586L354.293 175.293L355.707 176.707ZM367 183L347 183L347 185L367 185L367 183ZM346.293 184.707L354.293 192.707L355.707 191.293L347.707 183.293L346.293 184.707ZM347.707 184.707L355.707 176.707L354.293 175.293L346.293 183.293L347.707 184.707Z" fill="#110529"/>
<path d="M362 184L596 184" stroke="#110529" stroke-width="2" stroke-linecap="square"/>
<rect width="56" height="20" transform="translate(596 174)" fill="white"/>
<path d="M600.8 189.992H608.456V188.632H602.992L606.704 185.296C607.888 184.248 608.456 183.488 608.456 181.976C608.456 179.856 606.84 178.24 604.704 178.24C602.488 178.24 600.856 179.784 600.856 181.952H602.312C602.296 180.696 603.304 179.6 604.68 179.6C606.008 179.6 607 180.632 607 181.96C607 182.688 606.768 183.352 605.92 184.112L600.808 188.712L600.8 189.992ZM613.778 190.24C615.922 190.24 617.738 188.504 617.738 186.376C617.738 184.232 616.114 182.584 613.978 182.584C613.202 182.584 612.426 182.848 611.826 183.328L612.034 179.832H616.938V178.48H610.754L610.402 184.504L611.666 184.984C612.082 184.384 612.802 183.896 613.818 183.896C615.162 183.896 616.306 184.984 616.306 186.376C616.306 187.728 615.218 188.856 613.818 188.856C612.746 188.856 611.706 188.144 611.418 187.008L610.05 187.376C610.514 189.056 611.994 190.24 613.778 190.24ZM623.539 190.24C625.779 190.24 627.427 188.592 627.427 186.352V182.128C627.427 179.888 625.779 178.24 623.539 178.24C621.299 178.24 619.651 179.888 619.651 182.128V186.352C619.651 188.592 621.299 190.24 623.539 190.24ZM621.099 186.432V182.04C621.099 180.688 622.187 179.6 623.539 179.6C624.891 179.6 625.979 180.688 625.979 182.04V186.432C625.979 187.784 624.891 188.872 623.539 188.872C622.187 188.872 621.099 187.784 621.099 186.432ZM633.635 190.24C636.051 190.24 637.507 188.264 637.507 185.672C637.507 183.08 636.043 181.12 633.643 181.12C632.563 181.12 631.707 181.496 631.091 182.144V178.48H629.659V190H630.931V189.024C631.563 189.784 632.467 190.24 633.635 190.24ZM630.931 185.672C630.931 183.76 631.731 182.424 633.419 182.424C635.179 182.424 635.995 183.848 635.995 185.672C635.995 187.512 635.163 188.936 633.459 188.936C631.715 188.936 630.931 187.568 630.931 185.672ZM643.229 190.24C645.645 190.24 647.101 188.264 647.101 185.672C647.101 183.08 645.637 181.12 643.237 181.12C642.061 181.12 641.157 181.568 640.525 182.328V181.36H639.253V193.84H640.685V189.2C641.301 189.856 642.157 190.24 643.229 190.24ZM640.525 185.672C640.525 183.76 641.325 182.424 643.013 182.424C644.773 182.424 645.589 183.848 645.589 185.672C645.589 187.512 644.757 188.936 643.053 188.936C641.309 188.936 640.525 187.568 640.525 185.672Z" fill="#110529"/>
<path d="M652 184L886 184" stroke="#110529" stroke-width="2" stroke-linecap="square"/>
<path d="M913 176V192H903V200L889 184L903 168V176H913Z" fill="#110529"/>
<path d="M922.4 192H924.18V186.68H928.39L930.97 192H933.01L930.23 186.29C931.86 185.61 932.71 184.04 932.71 182.14C932.71 179.85 931.48 178.04 929.15 177.68C928.78 177.62 928.37 177.6 928.09 177.6H922.4V192ZM924.18 184.99V179.29H928.03C928.28 179.29 928.63 179.31 928.93 179.38C930.31 179.69 930.89 180.94 930.89 182.14C930.89 183.34 930.31 184.59 928.93 184.9C928.63 184.97 928.28 184.99 928.03 184.99H924.18ZM937.723 192H939.533V177.6H937.723L935.013 179.22V181.21L937.723 179.57V192Z" fill="#110529"/>
<path d="M347 360L346.293 359.293L345.586 360L346.293 360.707L347 360ZM354.293 368.707L355 369.414L356.414 368L355.707 367.293L354.293 368.707ZM355.707 352.707L356.414 352L355 350.586L354.293 351.293L355.707 352.707ZM367 359L347 359L347 361L367 361L367 359ZM346.293 360.707L354.293 368.707L355.707 367.293L347.707 359.293L346.293 360.707ZM347.707 360.707L355.707 352.707L354.293 351.293L346.293 359.293L347.707 360.707Z" fill="#110529"/>
<path d="M362 360H563" stroke="#110529" stroke-width="2" stroke-linecap="square"/>
<rect width="56" height="20" transform="translate(563 350)" fill="white"/>
<path d="M567.8 365.992H575.456V364.632H569.992L573.704 361.296C574.888 360.248 575.456 359.488 575.456 357.976C575.456 355.856 573.84 354.24 571.704 354.24C569.488 354.24 567.856 355.784 567.856 357.952H569.312C569.296 356.696 570.304 355.6 571.68 355.6C573.008 355.6 574 356.632 574 357.96C574 358.688 573.768 359.352 572.92 360.112L567.808 364.712L567.8 365.992ZM580.778 366.24C582.922 366.24 584.738 364.504 584.738 362.376C584.738 360.232 583.114 358.584 580.978 358.584C580.202 358.584 579.426 358.848 578.826 359.328L579.034 355.832H583.938V354.48H577.754L577.402 360.504L578.666 360.984C579.082 360.384 579.802 359.896 580.818 359.896C582.162 359.896 583.306 360.984 583.306 362.376C583.306 363.728 582.218 364.856 580.818 364.856C579.746 364.856 578.706 364.144 578.418 363.008L577.05 363.376C577.514 365.056 578.994 366.24 580.778 366.24ZM590.539 366.24C592.779 366.24 594.427 364.592 594.427 362.352V358.128C594.427 355.888 592.779 354.24 590.539 354.24C588.299 354.24 586.651 355.888 586.651 358.128V362.352C586.651 364.592 588.299 366.24 590.539 366.24ZM588.099 362.432V358.04C588.099 356.688 589.187 355.6 590.539 355.6C591.891 355.6 592.979 356.688 592.979 358.04V362.432C592.979 363.784 591.891 364.872 590.539 364.872C589.187 364.872 588.099 363.784 588.099 362.432ZM600.635 366.24C603.051 366.24 604.507 364.264 604.507 361.672C604.507 359.08 603.043 357.12 600.643 357.12C599.563 357.12 598.707 357.496 598.091 358.144V354.48H596.659V366H597.931V365.024C598.563 365.784 599.467 366.24 600.635 366.24ZM597.931 361.672C597.931 359.76 598.731 358.424 600.419 358.424C602.179 358.424 602.995 359.848 602.995 361.672C602.995 363.512 602.163 364.936 600.459 364.936C598.715 364.936 597.931 363.568 597.931 361.672ZM610.229 366.24C612.645 366.24 614.101 364.264 614.101 361.672C614.101 359.08 612.637 357.12 610.237 357.12C609.061 357.12 608.157 357.568 607.525 358.328V357.36H606.253V369.84H607.685V365.2C608.301 365.856 609.157 366.24 610.229 366.24ZM607.525 361.672C607.525 359.76 608.325 358.424 610.013 358.424C611.773 358.424 612.589 359.848 612.589 361.672C612.589 363.512 611.757 364.936 610.053 364.936C608.309 364.936 607.525 363.568 607.525 361.672Z" fill="#110529"/>
<path d="M619 360H820" stroke="#110529" stroke-width="2" stroke-linecap="square"/>
<path d="M847 352V368H837V376L823 360L837 344V352H847Z" fill="#110529"/>
<path d="M856.4 368H858.18V362.68H862.39L864.97 368H867.01L864.23 362.29C865.86 361.61 866.71 360.04 866.71 358.14C866.71 355.85 865.48 354.04 863.15 353.68C862.78 353.62 862.37 353.6 862.09 353.6H856.4V368ZM858.18 360.99V355.29H862.03C862.28 355.29 862.63 355.31 862.93 355.38C864.31 355.69 864.89 356.94 864.89 358.14C864.89 359.34 864.31 360.59 862.93 360.9C862.63 360.97 862.28 360.99 862.03 360.99H858.18ZM871.723 368H873.533V353.6H871.723L869.013 355.22V357.21L871.723 355.57V368Z" fill="#110529"/>
<g filter="url(#filter2_i_5602_35143)">
<path d="M914 104H851.6C851.04 104 850.76 104 850.546 104.109C850.358 104.205 850.205 104.358 850.109 104.546C850 104.76 850 105.04 850 105.6V154.4C850 154.96 850 155.24 850.109 155.454C850.205 155.642 850.358 155.795 850.546 155.891C850.76 156 851.04 156 851.6 156H914L909 149.5L914 143L909 136L914 130L909 123.5L914 117L909 110.5L914 104Z" fill="#FAFAAA"/>
</g>
<path d="M914 104H851.6C851.04 104 850.76 104 850.546 104.109C850.358 104.205 850.205 104.358 850.109 104.546C850 104.76 850 105.04 850 105.6V154.4C850 154.96 850 155.24 850.109 155.454C850.205 155.642 850.358 155.795 850.546 155.891C850.76 156 851.04 156 851.6 156H914L909 149.5L914 143L909 136L914 130L909 123.5L914 117L909 110.5L914 104Z" stroke="#110529" stroke-width="2" stroke-linecap="round"/>
<path d="M882.593 138.3C885.923 138.3 888.113 136.47 888.933 133.61L887.123 133.13C886.533 135.27 885.023 136.6 882.593 136.6C879.373 136.6 877.733 134.25 877.753 130.8C877.773 127.35 879.373 125 882.593 125C885.023 125 886.533 126.33 887.123 128.47L888.933 127.99C888.113 125.13 885.923 123.3 882.593 123.3C878.283 123.3 875.873 126.36 875.873 130.8C875.873 135.24 878.283 138.3 882.593 138.3Z" fill="#110529"/>
<g filter="url(#filter3_i_5602_35143)">
<rect x="616" y="104" width="30" height="52" rx="1" fill="#CBEB67"/>
</g>
<rect x="616" y="104" width="30" height="52" rx="1" stroke="#110529" stroke-width="2" stroke-linecap="round"/>
<g filter="url(#filter4_i_5602_35143)">
<rect x="682" y="104" width="30" height="52" rx="1" fill="#FAAAFA"/>
</g>
<rect x="682" y="104" width="30" height="52" rx="1" stroke="#110529" stroke-width="2" stroke-linecap="round"/>
<g filter="url(#filter5_i_5602_35143)">
<rect x="646" y="104" width="36" height="52" rx="1" fill="#FFCB8F"/>
</g>
<rect x="646" y="104" width="36" height="52" rx="1" stroke="#110529" stroke-width="2" stroke-linecap="round"/>
<path d="M625.447 138H627.247V126.74L634.757 138H636.557V123.6H634.757V134.85L627.247 123.6H625.447V138Z" fill="#110529"/>
<path d="M691.447 138H693.247V126.74L700.757 138H702.557V123.6H700.757V134.85L693.247 123.6H691.447V138Z" fill="#110529"/>
<path d="M658.593 138H663.033C663.303 138 664.183 138 664.853 137.91C668.183 137.47 669.913 134.48 669.913 130.8C669.913 127.13 668.183 124.13 664.853 123.69C664.173 123.6 663.313 123.6 663.033 123.6H658.593V138ZM660.423 136.3V125.3H663.033C663.513 125.3 664.233 125.32 664.703 125.41C667.033 125.83 668.023 128.08 668.023 130.8C668.023 133.47 667.063 135.76 664.703 136.19C664.233 136.28 663.533 136.3 663.033 136.3H660.423Z" fill="#110529"/>
<g filter="url(#filter6_i_5602_35143)">
<path d="M85 280H614.4C614.96 280 615.24 280 615.454 280.109C615.642 280.205 615.795 280.358 615.891 280.546C616 280.76 616 281.04 616 281.6V330.4C616 330.96 616 331.24 615.891 331.454C615.795 331.642 615.642 331.795 615.454 331.891C615.24 332 614.96 332 614.4 332H85L80 325.5L85 319L80 312L85 306L80 299.5L85 293L80 286.5L85 280Z" fill="#99E099"/>
</g>
<path d="M85 280H614.4C614.96 280 615.24 280 615.454 280.109C615.642 280.205 615.795 280.358 615.891 280.546C616 280.76 616 281.04 616 281.6V330.4C616 330.96 616 331.24 615.891 331.454C615.795 331.642 615.642 331.795 615.454 331.891C615.24 332 614.96 332 614.4 332H85L80 325.5L85 319L80 312L85 306L80 299.5L85 293L80 286.5L85 280Z" stroke="#110529" stroke-width="2" stroke-linecap="round"/>
<path d="M347.258 316H349.738L354.558 301.6H352.708L348.478 314.11L344.288 301.6H342.438L347.258 316Z" fill="#110529"/>
<g filter="url(#filter7_i_5602_35143)">
<rect x="616" y="280" width="30" height="52" rx="1" fill="#CBEB67"/>
</g>
<rect x="616" y="280" width="30" height="52" rx="1" stroke="#110529" stroke-width="2" stroke-linecap="round"/>
<path d="M625.447 314H627.247V302.74L634.757 314H636.557V299.6H634.757V310.85L627.247 299.6H625.447V314Z" fill="#110529"/>
<g filter="url(#filter8_i_5602_35143)">
<rect x="646" y="280" width="138" height="52" rx="1" fill="#C1ADFF"/>
<path d="M714.244 314.29C715.694 314.29 716.954 313.7 717.684 312.43C718.214 311.51 718.154 310.72 718.154 309.48V299.6H716.354V309.48C716.354 310.37 716.354 310.99 716.094 311.51C715.704 312.29 714.884 312.6 714.204 312.6C713.134 312.6 712.224 311.83 712.014 310.85L710.244 311.27C710.754 313.11 712.224 314.29 714.244 314.29Z" fill="#110529"/>
<rect x="646" y="280" width="138" height="52" rx="1" stroke="#110529" stroke-width="2" stroke-linecap="round"/>
</g>
<g filter="url(#filter9_i_5602_35143)">
<path d="M848 280H785.6C785.04 280 784.76 280 784.546 280.109C784.358 280.205 784.205 280.358 784.109 280.546C784 280.76 784 281.04 784 281.6V330.4C784 330.96 784 331.24 784.109 331.454C784.205 331.642 784.358 331.795 784.546 331.891C784.76 332 785.04 332 785.6 332H848L843 325.5L848 319L843 312L848 306L843 299.5L848 293L843 286.5L848 280Z" fill="#FAFAAA"/>
</g>
<path d="M848 280H785.6C785.04 280 784.76 280 784.546 280.109C784.358 280.205 784.205 280.358 784.109 280.546C784 280.76 784 281.04 784 281.6V330.4C784 330.96 784 331.24 784.109 331.454C784.205 331.642 784.358 331.795 784.546 331.891C784.76 332 785.04 332 785.6 332H848L843 325.5L848 319L843 312L848 306L843 299.5L848 293L843 286.5L848 280Z" stroke="#110529" stroke-width="2" stroke-linecap="round"/>
<path d="M816.593 314.3C819.923 314.3 822.113 312.47 822.933 309.61L821.123 309.13C820.533 311.27 819.023 312.6 816.593 312.6C813.373 312.6 811.733 310.25 811.753 306.8C811.773 303.35 813.373 301 816.593 301C819.023 301 820.533 302.33 821.123 304.47L822.933 303.99C822.113 301.13 819.923 299.3 816.593 299.3C812.283 299.3 809.873 302.36 809.873 306.8C809.873 311.24 812.283 314.3 816.593 314.3Z" fill="#110529"/>
<path d="M17.11 314H18.89V301.29H23.8V299.6H12.2V301.29H17.11V314ZM31.3122 314.3C34.6422 314.3 36.8322 312.47 37.6522 309.61L35.8422 309.13C35.2522 311.27 33.7422 312.6 31.3122 312.6C28.0922 312.6 26.4522 310.25 26.4722 306.8C26.4922 303.35 28.0922 301 31.3122 301C33.7422 301 35.2522 302.33 35.8422 304.47L37.6522 303.99C36.8322 301.13 34.6422 299.3 31.3122 299.3C27.0022 299.3 24.5922 302.36 24.5922 306.8C24.5922 311.24 27.0022 314.3 31.3122 314.3ZM39.8453 314H41.6253V308.68H45.8353L48.4153 314H50.4553L47.6753 308.29C49.3053 307.61 50.1553 306.04 50.1553 304.14C50.1553 301.85 48.9253 300.04 46.5953 299.68C46.2253 299.62 45.8153 299.6 45.5353 299.6H39.8453V314ZM41.6253 306.99V301.29H45.4753C45.7253 301.29 46.0753 301.31 46.3753 301.38C47.7553 301.69 48.3353 302.94 48.3353 304.14C48.3353 305.34 47.7553 306.59 46.3753 306.9C46.0753 306.97 45.7253 306.99 45.4753 306.99H41.6253ZM60.9317 314.3C62.5717 314.3 63.8817 313.54 64.5817 312.24V314H66.1717V303.2H64.5817V304.93C63.8917 303.65 62.6317 302.9 60.9817 302.9C57.8817 302.9 56.0617 305.35 56.0617 308.6C56.0617 311.83 57.8717 314.3 60.9317 314.3ZM57.9517 308.6C57.9517 306.19 59.0617 304.53 61.1717 304.53C63.2817 304.53 64.2817 306.2 64.2817 308.59C64.2817 310.96 63.2917 312.67 61.1517 312.67C58.9817 312.67 57.9517 310.88 57.9517 308.6Z" fill="#110529"/>
<path d="M17.11 138H18.89V125.29H23.8V123.6H12.2V125.29H17.11V138ZM31.3122 138.3C34.6422 138.3 36.8322 136.47 37.6522 133.61L35.8422 133.13C35.2522 135.27 33.7422 136.6 31.3122 136.6C28.0922 136.6 26.4522 134.25 26.4722 130.8C26.4922 127.35 28.0922 125 31.3122 125C33.7422 125 35.2522 126.33 35.8422 128.47L37.6522 127.99C36.8322 125.13 34.6422 123.3 31.3122 123.3C27.0022 123.3 24.5922 126.36 24.5922 130.8C24.5922 135.24 27.0022 138.3 31.3122 138.3ZM39.8453 138H41.6253V132.68H45.8353L48.4153 138H50.4553L47.6753 132.29C49.3053 131.61 50.1553 130.04 50.1553 128.14C50.1553 125.85 48.9253 124.04 46.5953 123.68C46.2253 123.62 45.8153 123.6 45.5353 123.6H39.8453V138ZM41.6253 130.99V125.29H45.4753C45.7253 125.29 46.0753 125.31 46.3753 125.38C47.7553 125.69 48.3353 126.94 48.3353 128.14C48.3353 129.34 47.7553 130.59 46.3753 130.9C46.0753 130.97 45.7253 130.99 45.4753 130.99H41.6253ZM56.6517 127.2V142.8H58.4317V137.39C59.1417 137.96 60.1317 138.3 61.3617 138.3C64.4117 138.3 66.2617 136.57 66.2617 133.95C66.2617 131.74 64.8617 130.44 63.4717 130.09C64.5217 129.58 65.0317 128.5 65.0317 127.22C65.0317 124.84 63.2817 123.3 60.7917 123.3C58.9317 123.3 57.4017 124.16 56.8717 125.78C56.7217 126.23 56.6517 126.71 56.6517 127.2ZM58.4717 133.71V127.86C58.4717 127.44 58.4917 126.8 58.7017 126.28C59.0617 125.35 59.9417 124.99 60.8317 124.99C62.2117 124.99 63.2117 125.82 63.2117 127.24C63.2117 128.67 62.2117 129.4 60.8417 129.54V131.14C63.0317 131.18 64.4517 132.1 64.4517 133.87C64.4517 135.52 63.2117 136.61 61.4417 136.61C60.1917 136.61 58.9517 136.04 58.6217 135.01C58.5017 134.64 58.4717 134.1 58.4717 133.71Z" fill="#110529"/>
<defs>
<filter id="filter0_i_5602_35143" x="78.7375" y="103" width="538.262" height="54" filterUnits="userSpaceOnUse" color-interpolation-filters="sRGB">
<feFlood flood-opacity="0" result="BackgroundImageFix"/>
<feBlend mode="normal" in="SourceGraphic" in2="BackgroundImageFix" result="shape"/>
<feColorMatrix in="SourceAlpha" type="matrix" values="0 0 0 0 0 0 0 0 0 0 0 0 0 0 0 0 0 0 127 0" result="hardAlpha"/>
<feOffset dx="-8" dy="-4"/>
<feComposite in2="hardAlpha" operator="arithmetic" k2="-1" k3="1"/>
<feColorMatrix type="matrix" values="0 0 0 0 0.0666667 0 0 0 0 0.0196078 0 0 0 0 0.160784 0 0 0 0.16 0"/>
<feBlend mode="normal" in2="shape" result="effect1_innerShadow_5602_35143"/>
</filter>
<filter id="filter1_i_5602_35143" x="711" y="103" width="140" height="54" filterUnits="userSpaceOnUse" color-interpolation-filters="sRGB">
<feFlood flood-opacity="0" result="BackgroundImageFix"/>
<feBlend mode="normal" in="SourceGraphic" in2="BackgroundImageFix" result="shape"/>
<feColorMatrix in="SourceAlpha" type="matrix" values="0 0 0 0 0 0 0 0 0 0 0 0 0 0 0 0 0 0 127 0" result="hardAlpha"/>
<feOffset dx="-8" dy="-4"/>
<feComposite in2="hardAlpha" operator="arithmetic" k2="-1" k3="1"/>
<feColorMatrix type="matrix" values="0 0 0 0 0.0666667 0 0 0 0 0.0196078 0 0 0 0 0.160784 0 0 0 0.16 0"/>
<feBlend mode="normal" in2="shape" result="effect1_innerShadow_5602_35143"/>
</filter>
<filter id="filter2_i_5602_35143" x="849" y="103" width="67.0308" height="54" filterUnits="userSpaceOnUse" color-interpolation-filters="sRGB">
<feFlood flood-opacity="0" result="BackgroundImageFix"/>
<feBlend mode="normal" in="SourceGraphic" in2="BackgroundImageFix" result="shape"/>
<feColorMatrix in="SourceAlpha" type="matrix" values="0 0 0 0 0 0 0 0 0 0 0 0 0 0 0 0 0 0 127 0" result="hardAlpha"/>
<feOffset dx="-8" dy="-4"/>
<feComposite in2="hardAlpha" operator="arithmetic" k2="-1" k3="1"/>
<feColorMatrix type="matrix" values="0 0 0 0 0.0666667 0 0 0 0 0.0196078 0 0 0 0 0.160784 0 0 0 0.16 0"/>
<feBlend mode="normal" in2="shape" result="effect1_innerShadow_5602_35143"/>
</filter>
<filter id="filter3_i_5602_35143" x="615" y="103" width="32" height="54" filterUnits="userSpaceOnUse" color-interpolation-filters="sRGB">
<feFlood flood-opacity="0" result="BackgroundImageFix"/>
<feBlend mode="normal" in="SourceGraphic" in2="BackgroundImageFix" result="shape"/>
<feColorMatrix in="SourceAlpha" type="matrix" values="0 0 0 0 0 0 0 0 0 0 0 0 0 0 0 0 0 0 127 0" result="hardAlpha"/>
<feOffset dx="-8" dy="-4"/>
<feComposite in2="hardAlpha" operator="arithmetic" k2="-1" k3="1"/>
<feColorMatrix type="matrix" values="0 0 0 0 0.0666667 0 0 0 0 0.0196078 0 0 0 0 0.160784 0 0 0 0.16 0"/>
<feBlend mode="normal" in2="shape" result="effect1_innerShadow_5602_35143"/>
</filter>
<filter id="filter4_i_5602_35143" x="681" y="103" width="32" height="54" filterUnits="userSpaceOnUse" color-interpolation-filters="sRGB">
<feFlood flood-opacity="0" result="BackgroundImageFix"/>
<feBlend mode="normal" in="SourceGraphic" in2="BackgroundImageFix" result="shape"/>
<feColorMatrix in="SourceAlpha" type="matrix" values="0 0 0 0 0 0 0 0 0 0 0 0 0 0 0 0 0 0 127 0" result="hardAlpha"/>
<feOffset dx="-8" dy="-4"/>
<feComposite in2="hardAlpha" operator="arithmetic" k2="-1" k3="1"/>
<feColorMatrix type="matrix" values="0 0 0 0 0.0666667 0 0 0 0 0.0196078 0 0 0 0 0.160784 0 0 0 0.16 0"/>
<feBlend mode="normal" in2="shape" result="effect1_innerShadow_5602_35143"/>
</filter>
<filter id="filter5_i_5602_35143" x="645" y="103" width="38" height="54" filterUnits="userSpaceOnUse" color-interpolation-filters="sRGB">
<feFlood flood-opacity="0" result="BackgroundImageFix"/>
<feBlend mode="normal" in="SourceGraphic" in2="BackgroundImageFix" result="shape"/>
<feColorMatrix in="SourceAlpha" type="matrix" values="0 0 0 0 0 0 0 0 0 0 0 0 0 0 0 0 0 0 127 0" result="hardAlpha"/>
<feOffset dx="-8" dy="-4"/>
<feComposite in2="hardAlpha" operator="arithmetic" k2="-1" k3="1"/>
<feColorMatrix type="matrix" values="0 0 0 0 0.0666667 0 0 0 0 0.0196078 0 0 0 0 0.160784 0 0 0 0.16 0"/>
<feBlend mode="normal" in2="shape" result="effect1_innerShadow_5602_35143"/>
</filter>
<filter id="filter6_i_5602_35143" x="78.7375" y="279" width="538.262" height="54" filterUnits="userSpaceOnUse" color-interpolation-filters="sRGB">
<feFlood flood-opacity="0" result="BackgroundImageFix"/>
<feBlend mode="normal" in="SourceGraphic" in2="BackgroundImageFix" result="shape"/>
<feColorMatrix in="SourceAlpha" type="matrix" values="0 0 0 0 0 0 0 0 0 0 0 0 0 0 0 0 0 0 127 0" result="hardAlpha"/>
<feOffset dx="-8" dy="-4"/>
<feComposite in2="hardAlpha" operator="arithmetic" k2="-1" k3="1"/>
<feColorMatrix type="matrix" values="0 0 0 0 0.0666667 0 0 0 0 0.0196078 0 0 0 0 0.160784 0 0 0 0.16 0"/>
<feBlend mode="normal" in2="shape" result="effect1_innerShadow_5602_35143"/>
</filter>
<filter id="filter7_i_5602_35143" x="615" y="279" width="32" height="54" filterUnits="userSpaceOnUse" color-interpolation-filters="sRGB">
<feFlood flood-opacity="0" result="BackgroundImageFix"/>
<feBlend mode="normal" in="SourceGraphic" in2="BackgroundImageFix" result="shape"/>
<feColorMatrix in="SourceAlpha" type="matrix" values="0 0 0 0 0 0 0 0 0 0 0 0 0 0 0 0 0 0 127 0" result="hardAlpha"/>
<feOffset dx="-8" dy="-4"/>
<feComposite in2="hardAlpha" operator="arithmetic" k2="-1" k3="1"/>
<feColorMatrix type="matrix" values="0 0 0 0 0.0666667 0 0 0 0 0.0196078 0 0 0 0 0.160784 0 0 0 0.16 0"/>
<feBlend mode="normal" in2="shape" result="effect1_innerShadow_5602_35143"/>
</filter>
<filter id="filter8_i_5602_35143" x="645" y="279" width="140" height="54" filterUnits="userSpaceOnUse" color-interpolation-filters="sRGB">
<feFlood flood-opacity="0" result="BackgroundImageFix"/>
<feBlend mode="normal" in="SourceGraphic" in2="BackgroundImageFix" result="shape"/>
<feColorMatrix in="SourceAlpha" type="matrix" values="0 0 0 0 0 0 0 0 0 0 0 0 0 0 0 0 0 0 127 0" result="hardAlpha"/>
<feOffset dx="-8" dy="-4"/>
<feComposite in2="hardAlpha" operator="arithmetic" k2="-1" k3="1"/>
<feColorMatrix type="matrix" values="0 0 0 0 0.0666667 0 0 0 0 0.0196078 0 0 0 0 0.160784 0 0 0 0.16 0"/>
<feBlend mode="normal" in2="shape" result="effect1_innerShadow_5602_35143"/>
</filter>
<filter id="filter9_i_5602_35143" x="783" y="279" width="67.0308" height="54" filterUnits="userSpaceOnUse" color-interpolation-filters="sRGB">
<feFlood flood-opacity="0" result="BackgroundImageFix"/>
<feBlend mode="normal" in="SourceGraphic" in2="BackgroundImageFix" result="shape"/>
<feColorMatrix in="SourceAlpha" type="matrix" values="0 0 0 0 0 0 0 0 0 0 0 0 0 0 0 0 0 0 127 0" result="hardAlpha"/>
<feOffset dx="-8" dy="-4"/>
<feComposite in2="hardAlpha" operator="arithmetic" k2="-1" k3="1"/>
<feColorMatrix type="matrix" values="0 0 0 0 0.0666667 0 0 0 0 0.0196078 0 0 0 0 0.160784 0 0 0 0.16 0"/>
<feBlend mode="normal" in2="shape" result="effect1_innerShadow_5602_35143"/>
</filter>
</defs>
</svg>
