<svg width="960" height="352" viewBox="0 0 960 352" fill="none" xmlns="http://www.w3.org/2000/svg">
<rect width="960" height="352" fill="white"/>
<g filter="url(#filter0_i_5544_36415)">
<path d="M129 24H606.4C606.96 24 607.24 24 607.454 24.109C607.642 24.2049 607.795 24.3578 607.891 24.546C608 24.7599 608 25.0399 608 25.6V74.4C608 74.9601 608 75.2401 607.891 75.454C607.795 75.6422 607.642 75.7951 607.454 75.891C607.24 76 606.96 76 606.4 76H129L124 69.5L129 63L124 56L129 50L124 43.5L129 37L124 30.5L129 24Z" fill="#99E099"/>
</g>
<path d="M129 24H606.4C606.96 24 607.24 24 607.454 24.109C607.642 24.2049 607.795 24.3578 607.891 24.546C608 24.7599 608 25.0399 608 25.6V74.4C608 74.9601 608 75.2401 607.891 75.454C607.795 75.6422 607.642 75.7951 607.454 75.891C607.24 76 606.96 76 606.4 76H129L124 69.5L129 63L124 56L129 50L124 43.5L129 37L124 30.5L129 24Z" stroke="#110529" stroke-width="2" stroke-linecap="round"/>
<path d="M355.209 58H357.792L362.813 43H360.896L356.48 56.0208L352.126 43H350.188L355.209 58Z" fill="#110529"/>
<g filter="url(#filter1_i_5544_36415)">
<rect x="608" y="24" width="30" height="52" rx="1" fill="#CBEB67"/>
</g>
<rect x="608" y="24" width="30" height="52" rx="1" stroke="#110529" stroke-width="2" stroke-linecap="round"/>
<g filter="url(#filter2_i_5544_36415)">
<rect x="674" y="24" width="30" height="52" rx="1" fill="#FAAAFA"/>
</g>
<rect x="674" y="24" width="30" height="52" rx="1" stroke="#110529" stroke-width="2" stroke-linecap="round"/>
<g filter="url(#filter3_i_5544_36415)">
<rect x="638" y="24" width="36" height="52" rx="1" fill="#FFCB8F"/>
</g>
<rect x="638" y="24" width="36" height="52" rx="1" stroke="#110529" stroke-width="2" stroke-linecap="round"/>
<path d="M617.447 58H619.247V46.74L626.757 58H628.557V43.6H626.757V54.85L619.247 43.6H617.447V58Z" fill="#110529"/>
<path d="M683.447 58H685.247V46.74L692.757 58H694.557V43.6H692.757V54.85L685.247 43.6H683.447V58Z" fill="#110529"/>
<path d="M650.593 58H655.033C655.303 58 656.183 58 656.853 57.91C660.183 57.47 661.913 54.48 661.913 50.8C661.913 47.13 660.183 44.13 656.853 43.69C656.173 43.6 655.313 43.6 655.033 43.6H650.593V58ZM652.423 56.3V45.3H655.033C655.513 45.3 656.233 45.32 656.703 45.41C659.033 45.83 660.023 48.08 660.023 50.8C660.023 53.47 659.063 55.76 656.703 56.19C656.233 56.28 655.533 56.3 655.033 56.3H652.423Z" fill="#110529"/>
<g filter="url(#filter4_i_5544_36415)">
<path d="M849 24H705.6C705.04 24 704.76 24 704.546 24.109C704.358 24.2049 704.205 24.3578 704.109 24.546C704 24.7599 704 25.0399 704 25.6V50V74.4C704 74.9601 704 75.2401 704.109 75.454C704.205 75.6422 704.358 75.7951 704.546 75.891C704.76 76 705.04 76 705.6 76H849L854 69.5L849 63L854 56L849 50L854 43.5L849 37L854 30.5L849 24Z" fill="#C1ADFF"/>
</g>
<path d="M849 24H705.6C705.04 24 704.76 24 704.546 24.109C704.358 24.2049 704.205 24.3578 704.109 24.546C704 24.7599 704 25.0399 704 25.6V50V74.4C704 74.9601 704 75.2401 704.109 75.454C704.205 75.6422 704.358 75.7951 704.546 75.891C704.76 76 705.04 76 705.6 76H849L854 69.5L849 63L854 56L849 50L854 43.5L849 37L854 30.5L849 24Z" stroke="#110529" stroke-width="2" stroke-linecap="round"/>
<path d="M782.272 43V53.2917C782.272 54.6042 782.272 55.3125 781.71 56.3125C780.939 57.6042 779.751 58.3125 778.126 58.3125C777.356 58.3125 776.606 58.1458 775.96 57.7292C775.001 57.1875 774.314 56.2083 774.022 55.1458L775.876 54.7083C775.981 55.2917 776.356 55.8125 776.856 56.1458C777.21 56.3958 777.668 56.5417 778.106 56.5417C778.897 56.5417 779.731 56.125 780.085 55.3542C780.356 54.7917 780.356 54.375 780.356 53.2917V43H782.272Z" fill="#110529"/>
<path d="M46.6 58H48.38V43.6H46.6V58ZM57.2105 58.3C61.4205 58.3 63.6605 55.39 63.6605 51.44C63.6605 51.32 63.6505 50.87 63.6205 50.59H58.6805V52.06H61.7405C61.5205 54.93 60.0805 56.62 57.3005 56.6C54.0805 56.58 52.4505 54.25 52.4705 50.8C52.4905 47.35 54.0805 44.99 57.3005 45.01C59.3505 45.02 60.7405 46.14 61.3505 47.88L63.1505 47.51C62.4005 44.92 60.4305 43.31 57.2105 43.31C53.1805 43.31 50.5805 46.21 50.5805 50.8C50.5805 55.44 53.2405 58.3 57.2105 58.3ZM65.6578 58H67.4378V51.64H75.0178V58H76.7978V43.6H75.0178V49.95H67.4378V43.6H65.6578V58Z" fill="#110529"/>
<g filter="url(#filter5_i_5544_36415)">
<path d="M129 204H606.4C606.96 204 607.24 204 607.454 204.109C607.642 204.205 607.795 204.358 607.891 204.546C608 204.76 608 205.04 608 205.6V254.4C608 254.96 608 255.24 607.891 255.454C607.795 255.642 607.642 255.795 607.454 255.891C607.24 256 606.96 256 606.4 256H129L124 249.5L129 243L124 236L129 230L124 223.5L129 217L124 210.5L129 204Z" fill="#99E099"/>
</g>
<path d="M129 204H606.4C606.96 204 607.24 204 607.454 204.109C607.642 204.205 607.795 204.358 607.891 204.546C608 204.76 608 205.04 608 205.6V254.4C608 254.96 608 255.24 607.891 255.454C607.795 255.642 607.642 255.795 607.454 255.891C607.24 256 606.96 256 606.4 256H129L124 249.5L129 243L124 236L129 230L124 223.5L129 217L124 210.5L129 204Z" stroke="#110529" stroke-width="2" stroke-linecap="round"/>
<path d="M365.209 238H367.792L372.813 223H370.896L366.48 236.021L362.126 223H360.188L365.209 238Z" fill="#110529"/>
<g filter="url(#filter6_i_5544_36415)">
<rect x="608" y="204" width="30" height="52" rx="1" fill="#CBEB67"/>
</g>
<rect x="608" y="204" width="30" height="52" rx="1" stroke="#110529" stroke-width="2" stroke-linecap="round"/>
<path d="M619.087 223H617.212V238H619.087V226.271L626.921 238H628.796V223H626.921V234.708L619.087 223Z" fill="#110529"/>
<g filter="url(#filter7_i_5544_36415)">
<path d="M783 204H639.6C639.04 204 638.76 204 638.546 204.109C638.358 204.205 638.205 204.358 638.109 204.546C638 204.76 638 205.04 638 205.6V230V254.4C638 254.96 638 255.24 638.109 255.454C638.205 255.642 638.358 255.795 638.546 255.891C638.76 256 639.04 256 639.6 256H783L788 249.5L783 243L788 236L783 230L788 223.5L783 217L788 210.5L783 204Z" fill="#C1ADFF"/>
</g>
<path d="M783 204H639.6C639.04 204 638.76 204 638.546 204.109C638.358 204.205 638.205 204.358 638.109 204.546C638 204.76 638 205.04 638 205.6V230V254.4C638 254.96 638 255.24 638.109 255.454C638.205 255.642 638.358 255.795 638.546 255.891C638.76 256 639.04 256 639.6 256H783L788 249.5L783 243L788 236L783 230L788 223.5L783 217L788 210.5L783 204Z" stroke="#110529" stroke-width="2" stroke-linecap="round"/>
<path d="M716.289 223V233.292C716.289 234.604 716.289 235.312 715.727 236.312C714.956 237.604 713.768 238.312 712.143 238.312C711.372 238.312 710.622 238.146 709.977 237.729C709.018 237.187 708.331 236.208 708.039 235.146L709.893 234.708C709.997 235.292 710.372 235.812 710.872 236.146C711.227 236.396 711.685 236.542 712.122 236.542C712.914 236.542 713.747 236.125 714.102 235.354C714.372 234.792 714.372 234.375 714.372 233.292V223H716.289Z" fill="#110529"/>
<path d="M25.6 238H27.38V223.6H25.6V238ZM36.2105 238.3C40.4205 238.3 42.6605 235.39 42.6605 231.44C42.6605 231.32 42.6505 230.87 42.6205 230.59H37.6805V232.06H40.7405C40.5205 234.93 39.0805 236.62 36.3005 236.6C33.0805 236.58 31.4505 234.25 31.4705 230.8C31.4905 227.35 33.0805 224.99 36.3005 225.01C38.3505 225.02 39.7405 226.14 40.3505 227.88L42.1505 227.51C41.4005 224.92 39.4305 223.31 36.2105 223.31C32.1805 223.31 29.5805 226.21 29.5805 230.8C29.5805 235.44 32.2405 238.3 36.2105 238.3ZM44.6578 238H46.4378V230.96L53.1878 238H55.4878L48.4378 230.59L54.9778 223.6H52.7378L46.4378 230.36V223.6H44.6578V238ZM64.1377 223.6L60.2977 238H62.1077L65.9477 223.6H64.1377ZM72.7484 238H74.5284V223.6H72.7484V238ZM83.3589 238.3C87.5689 238.3 89.8089 235.39 89.8089 231.44C89.8089 231.32 89.7989 230.87 89.7689 230.59H84.8289V232.06H87.8889C87.6689 234.93 86.2289 236.62 83.4489 236.6C80.2289 236.58 78.5989 234.25 78.6189 230.8C78.6389 227.35 80.2289 224.99 83.4489 225.01C85.4989 225.02 86.8889 226.14 87.4989 227.88L89.2989 227.51C88.5489 224.92 86.5789 223.31 83.3589 223.31C79.3289 223.31 76.7289 226.21 76.7289 230.8C76.7289 235.44 79.3889 238.3 83.3589 238.3ZM92.0063 238H100.466V236.31H93.7863V223.6H92.0063V238Z" fill="#110529"/>
<path d="M598 124H129" stroke="#110529" stroke-width="2" stroke-linecap="square"/>
<path d="M608 124L608.707 123.293L609.414 124L608.707 124.707L608 124ZM600.707 132.707L600 133.414L598.586 132L599.293 131.293L600.707 132.707ZM599.293 116.707L598.586 116L600 114.586L600.707 115.293L599.293 116.707ZM598 123L608 123L608 125L598 125L598 123ZM608.707 124.707L600.707 132.707L599.293 131.293L607.293 123.293L608.707 124.707ZM607.293 124.707L599.293 116.707L600.707 115.293L608.707 123.293L607.293 124.707Z" fill="#110529"/>
<path d="M130.4 114H132.18V108.68H136.39L138.97 114H141.01L138.23 108.29C139.86 107.61 140.71 106.04 140.71 104.14C140.71 101.85 139.48 100.04 137.15 99.68C136.78 99.62 136.37 99.6 136.09 99.6H130.4V114ZM132.18 106.99V101.29H136.03C136.28 101.29 136.63 101.31 136.93 101.38C138.31 101.69 138.89 102.94 138.89 104.14C138.89 105.34 138.31 106.59 136.93 106.9C136.63 106.97 136.28 106.99 136.03 106.99H132.18ZM145.723 114H147.533V99.6H145.723L143.013 101.22V103.21L145.723 101.57V114ZM150.447 115.41L150.337 116.24C151.577 116.47 152.297 115.7 152.297 114.3V111.74H150.337V114H151.367C151.437 114.8 151.277 115.47 150.447 115.41ZM159.707 113.99H169.277V112.29H162.447L167.087 108.12C168.567 106.81 169.277 105.86 169.277 103.97C169.277 101.32 167.257 99.3 164.587 99.3C161.817 99.3 159.777 101.23 159.777 103.94H161.597C161.577 102.37 162.837 101 164.557 101C166.217 101 167.457 102.29 167.457 103.95C167.457 104.86 167.167 105.69 166.107 106.64L159.717 112.39L159.707 113.99ZM175.93 114.3C178.61 114.3 180.88 112.13 180.88 109.47C180.88 106.79 178.85 104.73 176.18 104.73C175.21 104.73 174.24 105.06 173.49 105.66L173.75 101.29H179.88V99.6H172.15L171.71 107.13L173.29 107.73C173.81 106.98 174.71 106.37 175.98 106.37C177.66 106.37 179.09 107.73 179.09 109.47C179.09 111.16 177.73 112.57 175.98 112.57C174.64 112.57 173.34 111.68 172.98 110.26L171.27 110.72C171.85 112.82 173.7 114.3 175.93 114.3ZM188.131 114.3C190.931 114.3 192.991 112.24 192.991 109.44V104.16C192.991 101.36 190.931 99.3 188.131 99.3C185.331 99.3 183.271 101.36 183.271 104.16V109.44C183.271 112.24 185.331 114.3 188.131 114.3ZM185.081 109.54V104.05C185.081 102.36 186.441 101 188.131 101C189.821 101 191.181 102.36 191.181 104.05V109.54C191.181 111.23 189.821 112.59 188.131 112.59C186.441 112.59 185.081 111.23 185.081 109.54ZM200.751 114.3C203.771 114.3 205.591 111.83 205.591 108.59C205.591 105.35 203.761 102.9 200.761 102.9C199.411 102.9 198.341 103.37 197.571 104.18V99.6H195.781V114H197.371V112.78C198.161 113.73 199.291 114.3 200.751 114.3ZM197.371 108.59C197.371 106.2 198.371 104.53 200.481 104.53C202.681 104.53 203.701 106.31 203.701 108.59C203.701 110.89 202.661 112.67 200.531 112.67C198.351 112.67 197.371 110.96 197.371 108.59ZM212.743 114.3C215.763 114.3 217.583 111.83 217.583 108.59C217.583 105.35 215.753 102.9 212.753 102.9C211.283 102.9 210.153 103.46 209.363 104.41V103.2H207.773V118.8H209.563V113C210.333 113.82 211.403 114.3 212.743 114.3ZM209.363 108.59C209.363 106.2 210.363 104.53 212.473 104.53C214.673 104.53 215.693 106.31 215.693 108.59C215.693 110.89 214.653 112.67 212.523 112.67C210.343 112.67 209.363 110.96 209.363 108.59Z" fill="#110529"/>
<path d="M598 304H129" stroke="#110529" stroke-width="2" stroke-linecap="square"/>
<path d="M608 304L608.707 303.293L609.414 304L608.707 304.707L608 304ZM600.707 312.707L600 313.414L598.586 312L599.293 311.293L600.707 312.707ZM599.293 296.707L598.586 296L600 294.586L600.707 295.293L599.293 296.707ZM598 303L608 303L608 305L598 305L598 303ZM608.707 304.707L600.707 312.707L599.293 311.293L607.293 303.293L608.707 304.707ZM607.293 304.707L599.293 296.707L600.707 295.293L608.707 303.293L607.293 304.707Z" fill="#110529"/>
<path d="M130.4 294H132.18V288.68H136.39L138.97 294H141.01L138.23 288.29C139.86 287.61 140.71 286.04 140.71 284.14C140.71 281.85 139.48 280.04 137.15 279.68C136.78 279.62 136.37 279.6 136.09 279.6H130.4V294ZM132.18 286.99V281.29H136.03C136.28 281.29 136.63 281.31 136.93 281.38C138.31 281.69 138.89 282.94 138.89 284.14C138.89 285.34 138.31 286.59 136.93 286.9C136.63 286.97 136.28 286.99 136.03 286.99H132.18ZM145.723 294H147.533V279.6H145.723L143.013 281.22V283.21L145.723 281.57V294ZM150.447 295.41L150.337 296.24C151.577 296.47 152.297 295.7 152.297 294.3V291.74H150.337V294H151.367C151.437 294.8 151.277 295.47 150.447 295.41ZM159.707 293.99H169.277V292.29H162.447L167.087 288.12C168.567 286.81 169.277 285.86 169.277 283.97C169.277 281.32 167.257 279.3 164.587 279.3C161.817 279.3 159.777 281.23 159.777 283.94H161.597C161.577 282.37 162.837 281 164.557 281C166.217 281 167.457 282.29 167.457 283.95C167.457 284.86 167.167 285.69 166.107 286.64L159.717 292.39L159.707 293.99ZM175.93 294.3C178.61 294.3 180.88 292.13 180.88 289.47C180.88 286.79 178.85 284.73 176.18 284.73C175.21 284.73 174.24 285.06 173.49 285.66L173.75 281.29H179.88V279.6H172.15L171.71 287.13L173.29 287.73C173.81 286.98 174.71 286.37 175.98 286.37C177.66 286.37 179.09 287.73 179.09 289.47C179.09 291.16 177.73 292.57 175.98 292.57C174.64 292.57 173.34 291.68 172.98 290.26L171.27 290.72C171.85 292.82 173.7 294.3 175.93 294.3ZM188.131 294.3C190.931 294.3 192.991 292.24 192.991 289.44V284.16C192.991 281.36 190.931 279.3 188.131 279.3C185.331 279.3 183.271 281.36 183.271 284.16V289.44C183.271 292.24 185.331 294.3 188.131 294.3ZM185.081 289.54V284.05C185.081 282.36 186.441 281 188.131 281C189.821 281 191.181 282.36 191.181 284.05V289.54C191.181 291.23 189.821 292.59 188.131 292.59C186.441 292.59 185.081 291.23 185.081 289.54ZM200.751 294.3C203.771 294.3 205.591 291.83 205.591 288.59C205.591 285.35 203.761 282.9 200.761 282.9C199.411 282.9 198.341 283.37 197.571 284.18V279.6H195.781V294H197.371V292.78C198.161 293.73 199.291 294.3 200.751 294.3ZM197.371 288.59C197.371 286.2 198.371 284.53 200.481 284.53C202.681 284.53 203.701 286.31 203.701 288.59C203.701 290.89 202.661 292.67 200.531 292.67C198.351 292.67 197.371 290.96 197.371 288.59ZM212.743 294.3C215.763 294.3 217.583 291.83 217.583 288.59C217.583 285.35 215.753 282.9 212.753 282.9C211.283 282.9 210.153 283.46 209.363 284.41V283.2H207.773V298.8H209.563V293C210.333 293.82 211.403 294.3 212.743 294.3ZM209.363 288.59C209.363 286.2 210.363 284.53 212.473 284.53C214.673 284.53 215.693 286.31 215.693 288.59C215.693 290.89 214.653 292.67 212.523 292.67C210.343 292.67 209.363 290.96 209.363 288.59Z" fill="#110529"/>
<path d="M356 140L355.293 139.293L354.586 140L355.293 140.707L356 140ZM363.293 148.707L364 149.414L365.414 148L364.707 147.293L363.293 148.707ZM364.707 132.707L365.414 132L364 130.586L363.293 131.293L364.707 132.707ZM366 139L356 139L356 141L366 141L366 139ZM355.293 140.707L363.293 148.707L364.707 147.293L356.707 139.293L355.293 140.707ZM356.707 140.707L364.707 132.707L363.293 131.293L355.293 139.293L356.707 140.707Z" fill="#110529"/>
<path d="M366 140H825" stroke="#110529" stroke-width="2" stroke-linecap="square"/>
<path d="M286 320L285.293 319.293L284.586 320L285.293 320.707L286 320ZM293.293 328.707L294 329.414L295.414 328L294.707 327.293L293.293 328.707ZM294.707 312.707L295.414 312L294 310.586L293.293 311.293L294.707 312.707ZM296 319L286 319L286 321L296 321L296 319ZM285.293 320.707L293.293 328.707L294.707 327.293L286.707 319.293L285.293 320.707ZM286.707 320.707L294.707 312.707L293.293 311.293L285.293 319.293L286.707 320.707Z" fill="#110529"/>
<path d="M296 320H760" stroke="#110529" stroke-width="2" stroke-linecap="square"/>
<path d="M733.4 130H735.18V124.68H739.39L741.97 130H744.01L741.23 124.29C742.86 123.61 743.71 122.04 743.71 120.14C743.71 117.85 742.48 116.04 740.15 115.68C739.78 115.62 739.37 115.6 739.09 115.6H733.4V130ZM735.18 122.99V117.29H739.03C739.28 117.29 739.63 117.31 739.93 117.38C741.31 117.69 741.89 118.94 741.89 120.14C741.89 121.34 741.31 122.59 739.93 122.9C739.63 122.97 739.28 122.99 739.03 122.99H735.18ZM745.813 129.99H755.383V128.29H748.553L753.193 124.12C754.673 122.81 755.383 121.86 755.383 119.97C755.383 117.32 753.363 115.3 750.692 115.3C747.923 115.3 745.883 117.23 745.883 119.94H747.703C747.683 118.37 748.943 117 750.663 117C752.323 117 753.563 118.29 753.563 119.95C753.563 120.86 753.273 121.69 752.213 122.64L745.823 128.39L745.813 129.99ZM757.685 131.41L757.575 132.24C758.815 132.47 759.535 131.7 759.535 130.3V127.74H757.575V130H758.605C758.675 130.8 758.515 131.47 757.685 131.41ZM766.945 129.99H776.515V128.29H769.685L774.325 124.12C775.805 122.81 776.515 121.86 776.515 119.97C776.515 117.32 774.495 115.3 771.825 115.3C769.055 115.3 767.015 117.23 767.015 119.94H768.835C768.815 118.37 770.075 117 771.795 117C773.455 117 774.695 118.29 774.695 119.95C774.695 120.86 774.405 121.69 773.345 122.64L766.955 128.39L766.945 129.99ZM783.168 130.3C785.848 130.3 788.118 128.13 788.118 125.47C788.118 122.79 786.088 120.73 783.418 120.73C782.448 120.73 781.478 121.06 780.728 121.66L780.988 117.29H787.118V115.6H779.388L778.948 123.13L780.528 123.73C781.048 122.98 781.948 122.37 783.218 122.37C784.898 122.37 786.328 123.73 786.328 125.47C786.328 127.16 784.968 128.57 783.218 128.57C781.878 128.57 780.578 127.68 780.218 126.26L778.508 126.72C779.088 128.82 780.938 130.3 783.168 130.3ZM795.369 130.3C798.169 130.3 800.229 128.24 800.229 125.44V120.16C800.229 117.36 798.169 115.3 795.369 115.3C792.569 115.3 790.509 117.36 790.509 120.16V125.44C790.509 128.24 792.569 130.3 795.369 130.3ZM792.319 125.54V120.05C792.319 118.36 793.679 117 795.369 117C797.059 117 798.419 118.36 798.419 120.05V125.54C798.419 127.23 797.059 128.59 795.369 128.59C793.679 128.59 792.319 127.23 792.319 125.54ZM807.989 130.3C811.009 130.3 812.829 127.83 812.829 124.59C812.829 121.35 810.999 118.9 807.999 118.9C806.649 118.9 805.579 119.37 804.809 120.18V115.6H803.019V130H804.609V128.78C805.399 129.73 806.529 130.3 807.989 130.3ZM804.609 124.59C804.609 122.2 805.609 120.53 807.719 120.53C809.919 120.53 810.939 122.31 810.939 124.59C810.939 126.89 809.899 128.67 807.769 128.67C805.589 128.67 804.609 126.96 804.609 124.59ZM819.981 130.3C823.001 130.3 824.821 127.83 824.821 124.59C824.821 121.35 822.991 118.9 819.991 118.9C818.521 118.9 817.391 119.46 816.601 120.41V119.2H815.011V134.8H816.801V129C817.571 129.82 818.641 130.3 819.981 130.3ZM816.601 124.59C816.601 122.2 817.601 120.53 819.711 120.53C821.911 120.53 822.931 122.31 822.931 124.59C822.931 126.89 821.891 128.67 819.761 128.67C817.581 128.67 816.601 126.96 816.601 124.59Z" fill="#110529"/>
<path d="M667.4 310H669.18V304.68H673.39L675.97 310H678.01L675.23 304.29C676.86 303.61 677.71 302.04 677.71 300.14C677.71 297.85 676.48 296.04 674.15 295.68C673.78 295.62 673.37 295.6 673.09 295.6H667.4V310ZM669.18 302.99V297.29H673.03C673.28 297.29 673.63 297.31 673.93 297.38C675.31 297.69 675.89 298.94 675.89 300.14C675.89 301.34 675.31 302.59 673.93 302.9C673.63 302.97 673.28 302.99 673.03 302.99H669.18ZM679.813 309.99H689.383V308.29H682.553L687.193 304.12C688.673 302.81 689.383 301.86 689.383 299.97C689.383 297.32 687.363 295.3 684.692 295.3C681.923 295.3 679.883 297.23 679.883 299.94H681.703C681.683 298.37 682.943 297 684.663 297C686.323 297 687.563 298.29 687.563 299.95C687.563 300.86 687.273 301.69 686.213 302.64L679.823 308.39L679.813 309.99ZM691.685 311.41L691.575 312.24C692.815 312.47 693.535 311.7 693.535 310.3V307.74H691.575V310H692.605C692.675 310.8 692.515 311.47 691.685 311.41ZM700.945 309.99H710.515V308.29H703.685L708.325 304.12C709.805 302.81 710.515 301.86 710.515 299.97C710.515 297.32 708.495 295.3 705.825 295.3C703.055 295.3 701.015 297.23 701.015 299.94H702.835C702.815 298.37 704.075 297 705.795 297C707.455 297 708.695 298.29 708.695 299.95C708.695 300.86 708.405 301.69 707.345 302.64L700.955 308.39L700.945 309.99ZM717.168 310.3C719.848 310.3 722.118 308.13 722.118 305.47C722.118 302.79 720.088 300.73 717.418 300.73C716.448 300.73 715.478 301.06 714.728 301.66L714.988 297.29H721.118V295.6H713.388L712.948 303.13L714.528 303.73C715.048 302.98 715.948 302.37 717.218 302.37C718.898 302.37 720.328 303.73 720.328 305.47C720.328 307.16 718.968 308.57 717.218 308.57C715.878 308.57 714.578 307.68 714.218 306.26L712.508 306.72C713.088 308.82 714.938 310.3 717.168 310.3ZM729.369 310.3C732.169 310.3 734.229 308.24 734.229 305.44V300.16C734.229 297.36 732.169 295.3 729.369 295.3C726.569 295.3 724.509 297.36 724.509 300.16V305.44C724.509 308.24 726.569 310.3 729.369 310.3ZM726.319 305.54V300.05C726.319 298.36 727.679 297 729.369 297C731.059 297 732.419 298.36 732.419 300.05V305.54C732.419 307.23 731.059 308.59 729.369 308.59C727.679 308.59 726.319 307.23 726.319 305.54ZM741.989 310.3C745.009 310.3 746.829 307.83 746.829 304.59C746.829 301.35 744.999 298.9 741.999 298.9C740.649 298.9 739.579 299.37 738.809 300.18V295.6H737.019V310H738.609V308.78C739.399 309.73 740.529 310.3 741.989 310.3ZM738.609 304.59C738.609 302.2 739.609 300.53 741.719 300.53C743.919 300.53 744.939 302.31 744.939 304.59C744.939 306.89 743.899 308.67 741.769 308.67C739.589 308.67 738.609 306.96 738.609 304.59ZM753.981 310.3C757.001 310.3 758.821 307.83 758.821 304.59C758.821 301.35 756.991 298.9 753.991 298.9C752.521 298.9 751.391 299.46 750.601 300.41V299.2H749.011V314.8H750.801V309C751.571 309.82 752.641 310.3 753.981 310.3ZM750.601 304.59C750.601 302.2 751.601 300.53 753.711 300.53C755.911 300.53 756.931 302.31 756.931 304.59C756.931 306.89 755.891 308.67 753.761 308.67C751.581 308.67 750.601 306.96 750.601 304.59Z" fill="#110529"/>
<defs>
<filter id="filter0_i_5544_36415" x="122.737" y="23" width="486.263" height="54" filterUnits="userSpaceOnUse" color-interpolation-filters="sRGB">
<feFlood flood-opacity="0" result="BackgroundImageFix"/>
<feBlend mode="normal" in="SourceGraphic" in2="BackgroundImageFix" result="shape"/>
<feColorMatrix in="SourceAlpha" type="matrix" values="0 0 0 0 0 0 0 0 0 0 0 0 0 0 0 0 0 0 127 0" result="hardAlpha"/>
<feOffset dx="-8" dy="-4"/>
<feComposite in2="hardAlpha" operator="arithmetic" k2="-1" k3="1"/>
<feColorMatrix type="matrix" values="0 0 0 0 0.0666667 0 0 0 0 0.0196078 0 0 0 0 0.160784 0 0 0 0.16 0"/>
<feBlend mode="normal" in2="shape" result="effect1_innerShadow_5544_36415"/>
</filter>
<filter id="filter1_i_5544_36415" x="607" y="23" width="32" height="54" filterUnits="userSpaceOnUse" color-interpolation-filters="sRGB">
<feFlood flood-opacity="0" result="BackgroundImageFix"/>
<feBlend mode="normal" in="SourceGraphic" in2="BackgroundImageFix" result="shape"/>
<feColorMatrix in="SourceAlpha" type="matrix" values="0 0 0 0 0 0 0 0 0 0 0 0 0 0 0 0 0 0 127 0" result="hardAlpha"/>
<feOffset dx="-8" dy="-4"/>
<feComposite in2="hardAlpha" operator="arithmetic" k2="-1" k3="1"/>
<feColorMatrix type="matrix" values="0 0 0 0 0.0666667 0 0 0 0 0.0196078 0 0 0 0 0.160784 0 0 0 0.16 0"/>
<feBlend mode="normal" in2="shape" result="effect1_innerShadow_5544_36415"/>
</filter>
<filter id="filter2_i_5544_36415" x="673" y="23" width="32" height="54" filterUnits="userSpaceOnUse" color-interpolation-filters="sRGB">
<feFlood flood-opacity="0" result="BackgroundImageFix"/>
<feBlend mode="normal" in="SourceGraphic" in2="BackgroundImageFix" result="shape"/>
<feColorMatrix in="SourceAlpha" type="matrix" values="0 0 0 0 0 0 0 0 0 0 0 0 0 0 0 0 0 0 127 0" result="hardAlpha"/>
<feOffset dx="-8" dy="-4"/>
<feComposite in2="hardAlpha" operator="arithmetic" k2="-1" k3="1"/>
<feColorMatrix type="matrix" values="0 0 0 0 0.0666667 0 0 0 0 0.0196078 0 0 0 0 0.160784 0 0 0 0.16 0"/>
<feBlend mode="normal" in2="shape" result="effect1_innerShadow_5544_36415"/>
</filter>
<filter id="filter3_i_5544_36415" x="637" y="23" width="38" height="54" filterUnits="userSpaceOnUse" color-interpolation-filters="sRGB">
<feFlood flood-opacity="0" result="BackgroundImageFix"/>
<feBlend mode="normal" in="SourceGraphic" in2="BackgroundImageFix" result="shape"/>
<feColorMatrix in="SourceAlpha" type="matrix" values="0 0 0 0 0 0 0 0 0 0 0 0 0 0 0 0 0 0 127 0" result="hardAlpha"/>
<feOffset dx="-8" dy="-4"/>
<feComposite in2="hardAlpha" operator="arithmetic" k2="-1" k3="1"/>
<feColorMatrix type="matrix" values="0 0 0 0 0.0666667 0 0 0 0 0.0196078 0 0 0 0 0.160784 0 0 0 0.16 0"/>
<feBlend mode="normal" in2="shape" result="effect1_innerShadow_5544_36415"/>
</filter>
<filter id="filter4_i_5544_36415" x="703" y="23" width="152.263" height="54" filterUnits="userSpaceOnUse" color-interpolation-filters="sRGB">
<feFlood flood-opacity="0" result="BackgroundImageFix"/>
<feBlend mode="normal" in="SourceGraphic" in2="BackgroundImageFix" result="shape"/>
<feColorMatrix in="SourceAlpha" type="matrix" values="0 0 0 0 0 0 0 0 0 0 0 0 0 0 0 0 0 0 127 0" result="hardAlpha"/>
<feOffset dx="-8" dy="-4"/>
<feComposite in2="hardAlpha" operator="arithmetic" k2="-1" k3="1"/>
<feColorMatrix type="matrix" values="0 0 0 0 0.0666667 0 0 0 0 0.0196078 0 0 0 0 0.160784 0 0 0 0.16 0"/>
<feBlend mode="normal" in2="shape" result="effect1_innerShadow_5544_36415"/>
</filter>
<filter id="filter5_i_5544_36415" x="122.737" y="203" width="486.263" height="54" filterUnits="userSpaceOnUse" color-interpolation-filters="sRGB">
<feFlood flood-opacity="0" result="BackgroundImageFix"/>
<feBlend mode="normal" in="SourceGraphic" in2="BackgroundImageFix" result="shape"/>
<feColorMatrix in="SourceAlpha" type="matrix" values="0 0 0 0 0 0 0 0 0 0 0 0 0 0 0 0 0 0 127 0" result="hardAlpha"/>
<feOffset dx="-8" dy="-4"/>
<feComposite in2="hardAlpha" operator="arithmetic" k2="-1" k3="1"/>
<feColorMatrix type="matrix" values="0 0 0 0 0.0666667 0 0 0 0 0.0196078 0 0 0 0 0.160784 0 0 0 0.16 0"/>
<feBlend mode="normal" in2="shape" result="effect1_innerShadow_5544_36415"/>
</filter>
<filter id="filter6_i_5544_36415" x="607" y="203" width="32" height="54" filterUnits="userSpaceOnUse" color-interpolation-filters="sRGB">
<feFlood flood-opacity="0" result="BackgroundImageFix"/>
<feBlend mode="normal" in="SourceGraphic" in2="BackgroundImageFix" result="shape"/>
<feColorMatrix in="SourceAlpha" type="matrix" values="0 0 0 0 0 0 0 0 0 0 0 0 0 0 0 0 0 0 127 0" result="hardAlpha"/>
<feOffset dx="-8" dy="-4"/>
<feComposite in2="hardAlpha" operator="arithmetic" k2="-1" k3="1"/>
<feColorMatrix type="matrix" values="0 0 0 0 0.0666667 0 0 0 0 0.0196078 0 0 0 0 0.160784 0 0 0 0.16 0"/>
<feBlend mode="normal" in2="shape" result="effect1_innerShadow_5544_36415"/>
</filter>
<filter id="filter7_i_5544_36415" x="637" y="203" width="152.263" height="54" filterUnits="userSpaceOnUse" color-interpolation-filters="sRGB">
<feFlood flood-opacity="0" result="BackgroundImageFix"/>
<feBlend mode="normal" in="SourceGraphic" in2="BackgroundImageFix" result="shape"/>
<feColorMatrix in="SourceAlpha" type="matrix" values="0 0 0 0 0 0 0 0 0 0 0 0 0 0 0 0 0 0 127 0" result="hardAlpha"/>
<feOffset dx="-8" dy="-4"/>
<feComposite in2="hardAlpha" operator="arithmetic" k2="-1" k3="1"/>
<feColorMatrix type="matrix" values="0 0 0 0 0.0666667 0 0 0 0 0.0196078 0 0 0 0 0.160784 0 0 0 0.16 0"/>
<feBlend mode="normal" in2="shape" result="effect1_innerShadow_5544_36415"/>
</filter>
</defs>
</svg>
