<svg width="678" height="350" viewBox="0 0 678 350" fill="none" xmlns="http://www.w3.org/2000/svg">
    <g clip-path="url(#clip0_14947_8382)">
        <rect width="678" height="350" fill="white"/>
        <path d="M12 221.16L3.36 221.16L3.36 220.08L10.11 215.574L3.36 215.574L3.36 214.494L12 214.494L12 215.574L5.244 220.08L12 220.08L12 221.16ZM12.168 210.356C12.168 212.444 10.332 212.936 9.102 212.936L5.52 212.936L5.52 211.856L8.766 211.856C9.984 211.856 11.154 211.466 11.154 210.098C11.154 209.024 10.434 208.316 8.934 208.316L5.52 208.316L5.52 207.242L12 207.242L12 208.196L11.166 208.196C11.808 208.676 12.168 209.42 12.168 210.356ZM7.854 197.81C6.888 197.81 6.306 198.386 6.306 199.202C6.306 199.928 6.792 200.618 7.884 200.618L12 200.624L12 201.686L7.896 201.68C6.912 201.68 6.306 202.238 6.306 203.084C6.306 203.93 6.936 204.494 7.884 204.494L12 204.494L12 205.568L5.52 205.568L5.52 204.614L6.21 204.614C5.682 204.206 5.352 203.546 5.352 202.772C5.352 201.896 5.742 201.23 6.42 200.882C5.754 200.498 5.352 199.772 5.352 198.92C5.352 197.57 6.24 196.742 7.62 196.742L12 196.748L12 197.816L7.854 197.81ZM12.18 192.204C12.18 193.08 11.838 193.758 11.268 194.232L12 194.232L12 195.186L3.36 195.186L3.36 194.112L6.108 194.112C5.622 193.65 5.34 193.008 5.34 192.198C5.34 190.398 6.81 189.3 8.754 189.3C10.698 189.3 12.18 190.392 12.18 192.204ZM8.754 194.232C10.176 194.232 11.202 193.644 11.202 192.336C11.202 191.058 10.134 190.434 8.754 190.434C7.386 190.434 6.318 191.046 6.318 192.366C6.318 193.632 7.32 194.232 8.754 194.232ZM12.18 185.176C12.18 187.09 10.83 188.344 8.802 188.344C6.678 188.344 5.34 187.108 5.34 185.224C5.34 183.274 6.756 182.134 9.06 182.23L9.06 187.198C10.404 187.114 11.166 186.418 11.166 185.224C11.166 184.372 10.764 183.724 10.026 183.364L10.38 182.338C11.526 182.848 12.18 183.922 12.18 185.176ZM8.202 187.18L8.202 183.34C6.93 183.472 6.3 184.09 6.3 185.188C6.3 186.352 6.972 187.03 8.202 187.18ZM12 180.894L5.52 180.894L5.52 179.94L6.546 179.94C6.294 179.796 6.072 179.604 5.916 179.388C5.514 178.89 5.394 178.128 5.52 177.552L6.522 177.552C6.408 178.002 6.438 178.584 6.768 179.034C7.218 179.664 7.98 179.82 8.748 179.82L12 179.82L12 180.894ZM12.18 171.255C12.18 173.193 10.764 174.375 8.754 174.375C6.72 174.375 5.34 173.157 5.34 171.255C5.34 169.311 6.75 168.129 8.754 168.129C10.788 168.129 12.18 169.329 12.18 171.255ZM8.754 173.241C10.218 173.241 11.166 172.563 11.166 171.255C11.166 169.917 10.182 169.263 8.754 169.263C7.296 169.263 6.354 169.929 6.354 171.255C6.354 172.611 7.338 173.241 8.754 173.241ZM5.166 166.19C4.668 166.19 4.104 166.166 3.684 165.782C3.198 165.338 3.18 164.732 3.18 164.24L3.18 163.418L4.068 163.418L4.068 164.18C4.068 164.816 4.38 165.122 4.998 165.122L5.52 165.122L5.52 163.418L6.402 163.418L6.402 165.122L12 165.122L12 166.19L6.402 166.19L6.402 167.288L5.52 167.288L5.52 166.19L5.166 166.19ZM12 160.058L3.36 160.058L3.36 156.644C3.36 156.476 3.372 156.23 3.408 156.008C3.624 154.61 4.71 153.872 6.084 153.872C7.224 153.872 8.166 154.382 8.574 155.36L12 153.692L12 154.916L8.808 156.464L8.808 158.99L12 158.99L12 160.058ZM7.794 158.99L7.794 156.68C7.794 156.53 7.782 156.32 7.74 156.14C7.554 155.312 6.804 154.964 6.084 154.964C5.364 154.964 4.614 155.312 4.428 156.14C4.386 156.32 4.374 156.53 4.374 156.68L4.374 158.99L7.794 158.99ZM12.18 149.563C12.18 151.477 10.83 152.731 8.802 152.731C6.678 152.731 5.34 151.495 5.34 149.611C5.34 147.661 6.756 146.521 9.06 146.617L9.06 151.585C10.404 151.501 11.166 150.805 11.166 149.611C11.166 148.759 10.764 148.111 10.026 147.751L10.38 146.725C11.526 147.235 12.18 148.309 12.18 149.563ZM8.202 151.567L8.202 147.727C6.93 147.859 6.3 148.477 6.3 149.575C6.3 150.739 6.972 151.417 8.202 151.567ZM12.18 143.556C12.18 145.008 11.292 145.758 10.248 145.758C9.228 145.758 8.634 145.152 8.346 144.168C8.13 143.358 7.992 142.218 7.86 141.258C6.828 141.288 6.336 141.732 6.336 142.854C6.336 143.64 6.678 144.27 7.47 144.504L7.164 145.518C6.03 145.212 5.34 144.306 5.34 142.842C5.34 141.672 5.76 140.79 6.606 140.418C7.008 140.238 7.482 140.208 7.992 140.208L12 140.208L12 141.156L10.992 141.156C11.784 141.672 12.18 142.476 12.18 143.556ZM10.242 144.696C10.776 144.696 11.286 144.318 11.286 143.394C11.286 142.242 10.596 141.534 9.792 141.378C9.48 141.288 9.066 141.276 8.772 141.27C8.892 142.182 8.994 143.058 9.174 143.688C9.342 144.222 9.636 144.696 10.242 144.696ZM12.18 136.104C12.18 137.916 10.698 139.008 8.754 139.008C6.81 139.008 5.34 137.91 5.34 136.11C5.34 135.3 5.622 134.658 6.108 134.196L3.36 134.196L3.36 133.122L12 133.122L12 134.076L11.268 134.076C11.838 134.55 12.18 135.228 12.18 136.104ZM8.754 137.874C10.134 137.874 11.202 137.25 11.202 135.972C11.202 134.664 10.176 134.076 8.754 134.076C7.32 134.076 6.318 134.676 6.318 135.942C6.318 137.262 7.386 137.874 8.754 137.874ZM12.174 128.993C12.174 130.541 11.466 131.579 10.248 131.801L10.074 130.709C10.782 130.535 11.22 129.863 11.22 128.927C11.22 128.045 10.83 127.505 10.194 127.505C9.648 127.505 9.492 127.751 9.066 129.335C8.61 131.051 8.166 131.597 7.236 131.597C6.096 131.597 5.34 130.601 5.34 129.107C5.34 127.631 6.09599 126.563 7.23599 126.425L7.43399 127.517C6.74399 127.625 6.318 128.225 6.294 129.107C6.27 129.947 6.63 130.523 7.182 130.523C7.656 130.523 7.85999 130.193 8.24399 128.669C8.68199 126.959 9.162 126.401 10.164 126.401C11.418 126.401 12.174 127.379 12.174 128.993Z" fill="#110529"/>
        <path d="M22.32 25L26.064 13.48H28.472L32.216 25H30.48L29.624 22.4H24.896L24.056 25H22.32ZM25.408 20.832H29.112L27.248 15.152L25.408 20.832ZM34.1313 22.92L34.1313 21.152H35.8993L35.8993 22.92H34.1313ZM34.1393 17.328L34.1393 15.56L35.9073 15.56L35.9073 17.328L34.1393 17.328ZM47.7106 25L47.7106 13.48H49.2226L53.3986 22.144L57.5506 13.48H59.0786L59.0786 24.992H57.4946L57.4946 17.112L53.7746 25H53.0146L49.2866 17.112L49.2866 25H47.7106ZM61.32 14.944L61.32 13.32H62.992L62.992 14.944H61.32ZM61.32 25L61.32 16.36H62.992L62.992 25H61.32ZM64.2744 25L68.2024 19.168L64.3784 13.48H66.4264L69.2344 17.752L72.0264 13.48L74.0824 13.48L70.2584 19.168L74.1784 25H72.1304L69.2344 20.592L66.3304 25H64.2744ZM79.6168 25.24C76.1608 25.24 74.1688 22.8 74.1688 19.24C74.1688 15.68 76.1608 13.24 79.6168 13.24C82.2728 13.24 84.0568 14.688 84.7368 16.96L83.0408 17.416C82.5848 15.808 81.4408 14.832 79.6168 14.832C77.1688 14.832 75.9448 16.6 75.9368 19.24C75.9208 21.88 77.1688 23.648 79.6168 23.648C81.4408 23.648 82.5848 22.672 83.0408 21.064L84.7368 21.52C84.0568 23.792 82.2728 25.24 79.6168 25.24ZM86.3363 25L86.3363 13.48H90.9923C91.2163 13.48 91.5763 13.496 91.8803 13.544C93.8083 13.84 94.7683 15.304 94.7683 17.168C94.7683 18.704 94.1123 19.968 92.8083 20.536L94.9843 25L93.0723 25L91.0643 20.864H88.0083L88.0083 25H86.3363ZM88.0083 19.28H90.9283C91.1363 19.28 91.4163 19.264 91.6563 19.208C92.6803 18.96 93.0643 18.016 93.0643 17.168C93.0643 16.32 92.6803 15.376 91.6563 15.136C91.4163 15.072 91.1363 15.056 90.9283 15.056H88.0083L88.0083 19.28ZM103.682 25.24C102.698 25.24 101.906 24.928 101.298 24.392L101.298 28.84H99.6176L99.6176 16.36H101.106L101.106 17.136C101.722 16.496 102.578 16.12 103.65 16.12C106.082 16.12 107.594 18.064 107.594 20.672C107.594 23.264 106.09 25.24 103.682 25.24ZM101.106 20.672C101.106 22.464 101.802 23.728 103.45 23.728C105.058 23.728 105.818 22.384 105.818 20.672C105.818 18.976 105.058 17.632 103.394 17.632C101.818 17.632 101.106 18.88 101.106 20.672ZM109.2 25L109.2 16.36H110.688L110.688 17.736C110.888 17.376 111.16 17.064 111.488 16.848C112.136 16.368 113.088 16.216 113.864 16.36L113.864 17.928C113.304 17.776 112.552 17.824 111.976 18.192C111.16 18.712 110.888 19.624 110.888 20.64L110.888 25H109.2ZM118.823 25.24C116.231 25.24 114.591 23.352 114.591 20.672C114.591 17.968 116.279 16.12 118.823 16.12C121.415 16.12 123.063 18 123.063 20.672C123.063 23.376 121.399 25.24 118.823 25.24ZM116.367 20.672C116.367 22.496 117.207 23.664 118.823 23.664C120.471 23.664 121.287 22.44 121.287 20.672C121.287 18.864 120.455 17.696 118.823 17.696C117.143 17.696 116.367 18.912 116.367 20.672ZM128.357 25.24C125.709 25.24 124.197 23.312 124.181 20.68C124.197 18.008 125.765 16.12 128.381 16.12C130.269 16.12 131.693 17.128 132.125 18.752L130.461 19.232C130.133 18.264 129.325 17.696 128.357 17.696C126.717 17.696 125.965 18.952 125.957 20.68C125.965 22.464 126.773 23.664 128.357 23.664C129.429 23.664 130.077 23.152 130.429 22.224L132.125 22.624C131.557 24.32 130.213 25.24 128.357 25.24ZM137.193 25.24C134.609 25.24 132.881 23.424 132.881 20.752C132.881 17.92 134.585 16.12 137.113 16.12C139.753 16.12 141.289 18.056 141.113 21.152L134.673 21.152C134.809 22.752 135.657 23.664 137.113 23.664C138.153 23.664 138.937 23.176 139.361 22.288L141.001 22.808C140.329 24.352 138.865 25.24 137.193 25.24ZM134.713 19.848L139.401 19.848C139.225 18.328 138.505 17.6 137.177 17.6C135.745 17.6 134.929 18.384 134.713 19.848ZM146.052 25.232C143.948 25.232 142.564 24.264 142.268 22.576L143.98 22.312C144.196 23.216 145.012 23.76 146.164 23.76C147.204 23.76 147.836 23.312 147.836 22.56C147.836 21.904 147.548 21.728 145.516 21.184C143.284 20.6 142.548 19.984 142.548 18.712C142.548 17.144 143.876 16.12 145.908 16.12C147.892 16.12 149.316 17.12 149.508 18.656L147.796 18.968C147.676 18.144 146.98 17.632 145.924 17.592C144.908 17.552 144.22 17.968 144.22 18.624C144.22 19.2 144.612 19.424 146.636 19.936C148.812 20.496 149.556 21.16 149.556 22.496C149.556 24.208 148.236 25.232 146.052 25.232ZM154.47 25.232C152.366 25.232 150.982 24.264 150.686 22.576L152.398 22.312C152.614 23.216 153.43 23.76 154.582 23.76C155.622 23.76 156.254 23.312 156.254 22.56C156.254 21.904 155.966 21.728 153.934 21.184C151.702 20.6 150.966 19.984 150.966 18.712C150.966 17.144 152.294 16.12 154.326 16.12C156.31 16.12 157.734 17.12 157.926 18.656L156.214 18.968C156.094 18.144 155.398 17.632 154.342 17.592C153.326 17.552 152.638 17.968 152.638 18.624C152.638 19.2 153.03 19.424 155.054 19.936C157.23 20.496 157.974 21.16 157.974 22.496C157.974 24.208 156.654 25.232 154.47 25.232ZM163.416 25.24C160.832 25.24 159.104 23.424 159.104 20.752C159.104 17.92 160.808 16.12 163.336 16.12C165.976 16.12 167.512 18.056 167.336 21.152H160.896C161.032 22.752 161.88 23.664 163.336 23.664C164.376 23.664 165.16 23.176 165.584 22.288L167.224 22.808C166.552 24.352 165.088 25.24 163.416 25.24ZM160.936 19.848H165.624C165.448 18.328 164.728 17.6 163.4 17.6C161.968 17.6 161.152 18.384 160.936 19.848ZM172.275 25.232C170.171 25.232 168.787 24.264 168.491 22.576L170.203 22.312C170.419 23.216 171.235 23.76 172.387 23.76C173.427 23.76 174.059 23.312 174.059 22.56C174.059 21.904 173.771 21.728 171.739 21.184C169.507 20.6 168.771 19.984 168.771 18.712C168.771 17.144 170.099 16.12 172.131 16.12C174.115 16.12 175.539 17.12 175.731 18.656L174.019 18.968C173.899 18.144 173.203 17.632 172.147 17.592C171.131 17.552 170.443 17.968 170.443 18.624C170.443 19.2 170.835 19.424 172.859 19.936C175.035 20.496 175.779 21.16 175.779 22.496C175.779 24.208 174.459 25.232 172.275 25.232ZM182.872 25.24C180.96 25.24 179.952 24.056 179.952 22.648C179.952 21.344 180.656 20.512 181.992 20.088C182.992 19.792 184.416 19.608 185.816 19.416C185.76 18.224 185.216 17.664 183.864 17.664C182.952 17.664 182.12 18.064 181.824 19.024L180.264 18.544C180.68 17.064 181.88 16.12 183.88 16.12C185.424 16.12 186.624 16.632 187.16 17.768C187.432 18.336 187.464 18.96 187.464 19.68L187.464 25H185.984L185.984 23.744C185.272 24.76 184.272 25.24 182.872 25.24ZM181.608 22.632C181.608 23.304 182.096 23.872 183.168 23.872C184.592 23.872 185.432 23 185.624 22.16C185.76 21.76 185.792 21.208 185.8 20.808C184.496 21 183.528 21.136 182.8 21.352C182.112 21.584 181.608 21.952 181.608 22.632ZM189.541 25L189.541 13.48H191.213L191.213 25H189.541ZM193.616 25L193.616 13.48H195.288L195.288 25H193.616ZM204.005 25.24C201.597 25.24 200.093 23.264 200.093 20.672C200.093 18.064 201.605 16.12 204.037 16.12C205.005 16.12 205.789 16.424 206.389 16.952L206.389 13.48H208.069L208.069 25H206.581L206.581 24.216C205.957 24.856 205.093 25.24 204.005 25.24ZM201.869 20.672C201.869 22.384 202.629 23.728 204.237 23.728C205.885 23.728 206.581 22.464 206.581 20.672C206.581 18.88 205.869 17.632 204.293 17.632C202.629 17.632 201.869 18.976 201.869 20.672ZM212.587 25.24C210.675 25.24 209.667 24.056 209.667 22.648C209.667 21.344 210.371 20.512 211.707 20.088C212.707 19.792 214.131 19.608 215.531 19.416C215.475 18.224 214.931 17.664 213.579 17.664C212.667 17.664 211.835 18.064 211.539 19.024L209.979 18.544C210.395 17.064 211.595 16.12 213.595 16.12C215.139 16.12 216.339 16.632 216.875 17.768C217.147 18.336 217.179 18.96 217.179 19.68L217.179 25H215.699L215.699 23.744C214.987 24.76 213.987 25.24 212.587 25.24ZM211.323 22.632C211.323 23.304 211.811 23.872 212.883 23.872C214.307 23.872 215.147 23 215.339 22.16C215.475 21.76 215.507 21.208 215.515 20.808C214.211 21 213.243 21.136 212.515 21.352C211.827 21.584 211.323 21.952 211.323 22.632ZM224.041 25C222.417 25.32 220.745 25.152 220.113 23.952C219.737 23.24 219.793 22.544 219.793 21.6L219.793 17.704H218.137L218.137 16.36H219.793L219.793 13.96H221.473L221.473 16.36H224.041L224.041 17.704H221.473L221.473 21.52C221.473 22.216 221.441 22.72 221.649 23.072C222.033 23.728 222.913 23.752 224.041 23.584L224.041 25ZM228.143 25.24C226.231 25.24 225.223 24.056 225.223 22.648C225.223 21.344 225.927 20.512 227.263 20.088C228.263 19.792 229.687 19.608 231.087 19.416C231.031 18.224 230.487 17.664 229.135 17.664C228.223 17.664 227.391 18.064 227.095 19.024L225.535 18.544C225.951 17.064 227.151 16.12 229.151 16.12C230.695 16.12 231.895 16.632 232.431 17.768C232.703 18.336 232.735 18.96 232.735 19.68L232.735 25H231.255L231.255 23.744C230.543 24.76 229.543 25.24 228.143 25.24ZM226.879 22.632C226.879 23.304 227.367 23.872 228.439 23.872C229.863 23.872 230.703 23 230.895 22.16C231.031 21.76 231.063 21.208 231.071 20.808C229.767 21 228.799 21.136 228.071 21.352C227.383 21.584 226.879 21.952 226.879 22.632ZM237.956 25.232C235.852 25.232 234.468 24.264 234.172 22.576L235.884 22.312C236.1 23.216 236.916 23.76 238.068 23.76C239.108 23.76 239.74 23.312 239.74 22.56C239.74 21.904 239.452 21.728 237.42 21.184C235.188 20.6 234.452 19.984 234.452 18.712C234.452 17.144 235.78 16.12 237.812 16.12C239.796 16.12 241.22 17.12 241.412 18.656L239.7 18.968C239.58 18.144 238.884 17.632 237.828 17.592C236.812 17.552 236.124 17.968 236.124 18.624C236.124 19.2 236.516 19.424 238.54 19.936C240.716 20.496 241.46 21.16 241.46 22.496C241.46 24.208 240.14 25.232 237.956 25.232ZM246.902 25.24C244.318 25.24 242.59 23.424 242.59 20.752C242.59 17.92 244.294 16.12 246.822 16.12C249.462 16.12 250.998 18.056 250.822 21.152H244.382C244.518 22.752 245.366 23.664 246.822 23.664C247.862 23.664 248.646 23.176 249.07 22.288L250.71 22.808C250.038 24.352 248.574 25.24 246.902 25.24ZM244.422 19.848H249.11C248.934 18.328 248.214 17.6 246.886 17.6C245.454 17.6 244.638 18.384 244.422 19.848ZM257.401 25C255.777 25.32 254.105 25.152 253.473 23.952C253.097 23.24 253.153 22.544 253.153 21.6L253.153 17.704H251.497L251.497 16.36H253.153L253.153 13.96H254.833L254.833 16.36L257.401 16.36L257.401 17.704L254.833 17.704L254.833 21.52C254.833 22.216 254.801 22.72 255.009 23.072C255.393 23.728 256.273 23.752 257.401 23.584L257.401 25ZM262.367 25.232C260.263 25.232 258.879 24.264 258.583 22.576L260.295 22.312C260.511 23.216 261.327 23.76 262.479 23.76C263.519 23.76 264.151 23.312 264.151 22.56C264.151 21.904 263.863 21.728 261.831 21.184C259.599 20.6 258.863 19.984 258.863 18.712C258.863 17.144 260.191 16.12 262.223 16.12C264.207 16.12 265.631 17.12 265.823 18.656L264.111 18.968C263.991 18.144 263.295 17.632 262.239 17.592C261.223 17.552 260.535 17.968 260.535 18.624C260.535 19.2 260.927 19.424 262.951 19.936C265.127 20.496 265.871 21.16 265.871 22.496C265.871 24.208 264.551 25.232 262.367 25.232ZM270.684 14.944L270.684 13.32L272.356 13.32L272.356 14.944H270.684ZM270.684 25L270.684 16.36H272.356L272.356 25H270.684ZM280.662 20.752C280.662 19.408 280.318 17.712 278.478 17.712C277.278 17.712 276.286 18.456 276.286 20.504L276.286 25H274.59L274.59 16.36H276.086L276.086 17.392C276.718 16.6 277.686 16.128 278.942 16.128C281.918 16.128 282.358 18.864 282.358 20.2L282.358 25H280.662L280.662 20.752ZM290.581 25.232C287.605 25.232 287.165 22.496 287.165 21.16L287.165 16.36H288.861L288.861 20.608C288.861 21.952 289.205 23.648 291.045 23.648C292.245 23.648 293.237 22.904 293.237 20.856L293.237 16.36H294.925L294.925 25H293.437L293.437 23.968C292.805 24.76 291.837 25.232 290.581 25.232ZM303.073 20.752C303.073 19.408 302.729 17.712 300.889 17.712C299.689 17.712 298.697 18.456 298.697 20.504L298.697 25H297.001L297.001 16.36H298.497L298.497 17.392C299.129 16.6 300.097 16.128 301.353 16.128C304.329 16.128 304.769 18.864 304.769 20.2L304.769 25L303.073 25L303.073 20.752ZM310.015 25.24C307.607 25.24 306.103 23.264 306.103 20.672C306.103 18.064 307.615 16.12 310.047 16.12C311.015 16.12 311.799 16.424 312.399 16.952L312.399 13.48H314.079L314.079 25H312.591L312.591 24.216C311.967 24.856 311.103 25.24 310.015 25.24ZM307.879 20.672C307.879 22.384 308.639 23.728 310.247 23.728C311.895 23.728 312.591 22.464 312.591 20.672C312.591 18.88 311.879 17.632 310.303 17.632C308.639 17.632 307.879 18.976 307.879 20.672ZM319.99 25.24C317.406 25.24 315.678 23.424 315.678 20.752C315.678 17.92 317.382 16.12 319.91 16.12C322.55 16.12 324.086 18.056 323.91 21.152H317.47C317.606 22.752 318.454 23.664 319.91 23.664C320.95 23.664 321.734 23.176 322.158 22.288L323.798 22.808C323.126 24.352 321.662 25.24 319.99 25.24ZM317.51 19.848H322.198C322.022 18.328 321.302 17.6 319.974 17.6C318.542 17.6 317.726 18.384 317.51 19.848ZM325.544 25L325.544 16.36H327.032L327.032 17.736C327.232 17.376 327.504 17.064 327.832 16.848C328.48 16.368 329.432 16.216 330.208 16.36L330.208 17.928C329.648 17.776 328.896 17.824 328.32 18.192C327.504 18.712 327.232 19.624 327.232 20.64L327.232 25H325.544ZM339.559 25C337.935 25.32 336.263 25.152 335.631 23.952C335.255 23.24 335.311 22.544 335.311 21.6L335.311 17.704H333.655L333.655 16.36H335.311L335.311 13.96H336.991L336.991 16.36H339.559L339.559 17.704H336.991L336.991 21.52C336.991 22.216 336.959 22.72 337.167 23.072C337.551 23.728 338.431 23.752 339.559 23.584L339.559 25ZM343.061 25L340.421 16.352L342.077 16.36L343.885 22.288L345.709 16.36H347.149L348.973 22.288L350.781 16.36H352.429L349.789 25H348.445L346.429 18.744L344.405 25H343.061ZM357.141 25.24C354.549 25.24 352.909 23.352 352.909 20.672C352.909 17.968 354.597 16.12 357.141 16.12C359.733 16.12 361.381 18 361.381 20.672C361.381 23.376 359.717 25.24 357.141 25.24ZM354.685 20.672C354.685 22.496 355.525 23.664 357.141 23.664C358.789 23.664 359.605 22.44 359.605 20.672C359.605 18.864 358.773 17.696 357.141 17.696C355.461 17.696 354.685 18.912 354.685 20.672ZM372.086 20.752C372.086 19.408 371.742 17.712 369.902 17.712C368.702 17.712 367.71 18.456 367.71 20.504L367.71 25H366.014L366.014 13.48H367.51L367.51 17.392C368.142 16.6 369.11 16.128 370.366 16.128C373.342 16.128 373.782 18.864 373.782 20.2L373.782 25H372.086L372.086 20.752ZM379.458 25.24C376.866 25.24 375.226 23.352 375.226 20.672C375.226 17.968 376.914 16.12 379.458 16.12C382.05 16.12 383.698 18 383.698 20.672C383.698 23.376 382.034 25.24 379.458 25.24ZM377.002 20.672C377.002 22.496 377.842 23.664 379.458 23.664C381.106 23.664 381.922 22.44 381.922 20.672C381.922 18.864 381.09 17.696 379.458 17.696C377.778 17.696 377.002 18.912 377.002 20.672ZM388.552 25.232C385.576 25.232 385.136 22.496 385.136 21.16L385.136 16.36H386.832L386.832 20.608C386.832 21.952 387.176 23.648 389.016 23.648C390.216 23.648 391.208 22.904 391.208 20.856L391.208 16.36H392.896L392.896 25L391.408 25L391.408 23.968C390.776 24.76 389.808 25.232 388.552 25.232ZM394.979 25L394.979 16.36H396.467L396.467 17.736C396.667 17.376 396.939 17.064 397.267 16.848C397.915 16.368 398.867 16.216 399.643 16.36L399.643 17.928C399.083 17.776 398.331 17.824 397.755 18.192C396.939 18.712 396.667 19.624 396.667 20.64L396.667 25H394.979ZM403.998 25.232C401.894 25.232 400.51 24.264 400.214 22.576L401.926 22.312C402.142 23.216 402.958 23.76 404.11 23.76C405.15 23.76 405.782 23.312 405.782 22.56C405.782 21.904 405.494 21.728 403.462 21.184C401.23 20.6 400.494 19.984 400.494 18.712C400.494 17.144 401.822 16.12 403.854 16.12C405.838 16.12 407.262 17.12 407.454 18.656L405.742 18.968C405.622 18.144 404.926 17.632 403.87 17.592C402.854 17.552 402.166 17.968 402.166 18.624C402.166 19.2 402.558 19.424 404.582 19.936C406.758 20.496 407.502 21.16 407.502 22.496C407.502 24.208 406.182 25.232 403.998 25.232Z" fill="#110529"/>
        <path d="M48 44V43.625H47.625V44H48ZM658 44H658.375V43.625H658V44ZM658 304V304.375H658.375V304H658ZM48 304H47.625V304.375H48V304ZM48 44.375H658V43.625H48V44.375ZM657.625 44V304H658.375V44H657.625ZM658 303.625H48V304.375H658V303.625ZM48.375 304V44H47.625V304H48.375Z" fill="#E1E3EB"/>
        <path d="M658 44.0007H48" stroke="#E1E3EB" stroke-width="0.75"/>
        <path d="M31.6572 91.8331V85.3074L30.2345 86.1684V85.1236L31.6572 84.2731H32.6075V91.8331H31.6572ZM34.6051 91.8331V84.2731H35.4556L38.3116 90.2949L41.1519 84.2731H42.0129V91.8279H41.1256V86.3259L38.5584 91.8331H38.0596L35.4924 86.3259V91.8331H34.6051Z" fill="#110529"/>
        <path d="M658 87.3339H48" stroke="white" stroke-width="0.75"/>
        <path d="M658 130.667H48" stroke="#E1E3EB" stroke-width="0.75"/>
        <path d="M25.0845 178.5V171.974L23.6617 172.835V171.79L25.0845 170.94H26.0347V178.5H25.0845ZM30.5839 178.657C29.1139 178.657 28.0324 177.576 28.0324 176.106V173.334C28.0324 171.864 29.1139 170.782 30.5839 170.782C32.0539 170.782 33.1354 171.864 33.1354 173.334V176.106C33.1354 177.576 32.0539 178.657 30.5839 178.657ZM28.9826 176.158C28.9826 177.045 29.6966 177.759 30.5839 177.759C31.4711 177.759 32.1851 177.045 32.1851 176.158V173.276C32.1851 172.389 31.4711 171.675 30.5839 171.675C29.6966 171.675 28.9826 172.389 28.9826 173.276V176.158ZM34.6051 178.5V170.94H35.4556L38.3116 176.961L41.1519 170.94H42.0129V178.494H41.1256V172.992L38.5584 178.5H38.0596L35.4924 172.992V178.5H34.6051Z" fill="#110529"/>
        <path d="M658 174H48" stroke="white" stroke-width="0.75"/>
        <path d="M658 217.334H48" stroke="#E1E3EB" stroke-width="0.75"/>
        <path d="M21.7521 265.161L21.7573 264.321L25.1121 261.302C25.6686 260.803 25.8208 260.368 25.8208 259.89C25.8208 259.018 25.1698 258.341 24.2983 258.341C23.3953 258.341 22.7338 259.06 22.7443 259.885H21.7888C21.7888 258.462 22.8598 257.449 24.3141 257.449C25.7158 257.449 26.7763 258.509 26.7763 259.9C26.7763 260.893 26.4036 261.391 25.6266 262.079L23.1906 264.268H26.7763V265.161H21.7521ZM30.5839 265.324C29.1139 265.324 28.0324 264.242 28.0324 262.772V260C28.0324 258.53 29.1139 257.449 30.5839 257.449C32.0539 257.449 33.1354 258.53 33.1354 260V262.772C33.1354 264.242 32.0539 265.324 30.5839 265.324ZM28.9826 262.825C28.9826 263.712 29.6966 264.426 30.5839 264.426C31.4711 264.426 32.1851 263.712 32.1851 262.825V259.942C32.1851 259.055 31.4711 258.341 30.5839 258.341C29.6966 258.341 28.9826 259.055 28.9826 259.942V262.825ZM34.6051 265.166V257.606H35.4556L38.3116 263.628L41.1519 257.606H42.0129V265.161H41.1256V259.659L38.5584 265.166H38.0596L35.4924 259.659V265.166H34.6051Z" fill="#110529"/>
        <path d="M658 260.667H48" stroke="white" stroke-width="0.75"/>
        <path d="M658 304H48" stroke="#E1E3EB" stroke-width="0.75"/>
        <path d="M48 44.0012V304" stroke="#110529" stroke-width="0.75" stroke-linecap="square"/>
        <path d="M42.5491 319.158C41.0791 319.158 39.9976 318.076 39.9976 316.606V313.834C39.9976 312.364 41.0791 311.282 42.5491 311.282C44.0191 311.282 45.1006 312.364 45.1006 313.834V316.606C45.1006 318.076 44.0191 319.158 42.5491 319.158ZM40.9478 316.658C40.9478 317.546 41.6618 318.26 42.5491 318.26C43.4363 318.26 44.1503 317.546 44.1503 316.658V313.776C44.1503 312.889 43.4363 312.175 42.5491 312.175C41.6618 312.175 40.9478 312.889 40.9478 313.776V316.658ZM46.7383 319V317.971H47.7673V319H46.7383ZM51.9519 319.158C50.4819 319.158 49.4004 318.076 49.4004 316.606V313.834C49.4004 312.364 50.4819 311.282 51.9519 311.282C53.4219 311.282 54.5034 312.364 54.5034 313.834V316.606C54.5034 318.076 53.4219 319.158 51.9519 319.158ZM50.3507 316.658C50.3507 317.546 51.0647 318.26 51.9519 318.26C52.8392 318.26 53.5532 317.546 53.5532 316.658V313.776C53.5532 312.889 52.8392 312.175 51.9519 312.175C51.0647 312.175 50.3507 312.889 50.3507 313.776V316.658Z" fill="#110529"/>
        <path d="M48.0007 44L48.0007 304" stroke="#110529" stroke-width="0.75"/>
        <path d="M109.001 44L109.001 304" stroke="#E1E3EB" stroke-width="0.75"/>
        <path d="M163.78 318.995L163.785 318.155L167.14 315.136C167.696 314.637 167.848 314.201 167.848 313.724C167.848 312.852 167.197 312.175 166.326 312.175C165.423 312.175 164.761 312.894 164.772 313.718H163.816C163.816 312.296 164.887 311.282 166.342 311.282C167.743 311.282 168.804 312.343 168.804 313.734C168.804 314.726 168.431 315.225 167.654 315.913L165.218 318.102H168.804V318.995H163.78ZM170.228 319V317.971H171.257V319H170.228ZM175.127 319.158C173.956 319.158 172.985 318.38 172.68 317.278L173.578 317.036C173.767 317.782 174.449 318.249 175.153 318.249C176.072 318.249 176.786 317.509 176.786 316.622C176.786 315.708 176.035 314.994 175.153 314.994C174.486 314.994 174.014 315.314 173.741 315.708L172.911 315.393L173.142 311.44H177.2V312.327H173.982L173.846 314.621C174.239 314.306 174.749 314.133 175.258 314.133C176.66 314.133 177.725 315.215 177.725 316.622C177.725 318.018 176.534 319.158 175.127 319.158Z" fill="#110529"/>
        <path d="M170.001 44L170.001 304" stroke="#E1E3EB" stroke-width="0.75"/>
        <path d="M231 44L231 304" stroke="#E1E3EB" stroke-width="0.75"/>
        <path d="M287.225 319.158C286.054 319.158 285.083 318.38 284.778 317.278L285.676 317.036C285.865 317.782 286.548 318.249 287.251 318.249C288.17 318.249 288.884 317.509 288.884 316.622C288.884 315.708 288.133 314.994 287.251 314.994C286.584 314.994 286.112 315.314 285.839 315.708L285.009 315.393L285.24 311.44H289.299V312.327H286.08L285.944 314.621C286.338 314.306 286.847 314.133 287.356 314.133C288.758 314.133 289.824 315.215 289.824 316.622C289.824 318.018 288.632 319.158 287.225 319.158ZM291.247 319V317.971H292.276V319H291.247ZM296.461 319.158C294.991 319.158 293.909 318.076 293.909 316.606V313.834C293.909 312.364 294.991 311.282 296.461 311.282C297.931 311.282 299.012 312.364 299.012 313.834V316.606C299.012 318.076 297.931 319.158 296.461 319.158ZM294.859 316.658C294.859 317.546 295.573 318.26 296.461 318.26C297.348 318.26 298.062 317.546 298.062 316.658V313.776C298.062 312.889 297.348 312.175 296.461 312.175C295.573 312.175 294.859 312.889 294.859 313.776V316.658Z" fill="#110529"/>
        <path d="M292 44L292 304" stroke="#E1E3EB" stroke-width="0.75"/>
        <path d="M353 44L353 304" stroke="#E1E3EB" stroke-width="0.75"/>
        <path d="M407.493 319L410.213 312.338H406.779V311.44H411.216V312.338L408.501 319H407.493ZM412.123 319V317.971H413.152V319H412.123ZM417.021 319.158C415.85 319.158 414.879 318.38 414.575 317.278L415.472 317.036C415.661 317.782 416.344 318.249 417.047 318.249C417.966 318.249 418.68 317.509 418.68 316.622C418.68 315.708 417.929 314.994 417.047 314.994C416.381 314.994 415.908 315.314 415.635 315.708L414.806 315.393L415.037 311.44H419.095V312.327H415.877L415.74 314.621C416.134 314.306 416.643 314.133 417.152 314.133C418.554 314.133 419.62 315.215 419.62 316.622C419.62 318.018 418.428 319.158 417.021 319.158Z" fill="#110529"/>
        <path d="M414 44L414 304" stroke="#E1E3EB" stroke-width="0.75"/>
        <path d="M475 44L475 304" stroke="#E1E3EB" stroke-width="0.75"/>
        <path d="M528.182 319V312.474L526.759 313.335V312.29L528.182 311.44H529.132V319H528.182ZM533.681 319.158C532.211 319.158 531.13 318.076 531.13 316.606V313.834C531.13 312.364 532.211 311.282 533.681 311.282C535.151 311.282 536.233 312.364 536.233 313.834V316.606C536.233 318.076 535.151 319.158 533.681 319.158ZM532.08 316.658C532.08 317.546 532.794 318.26 533.681 318.26C534.569 318.26 535.283 317.546 535.283 316.658V313.776C535.283 312.889 534.569 312.175 533.681 312.175C532.794 312.175 532.08 312.889 532.08 313.776V316.658ZM537.871 319V317.971H538.9V319H537.871ZM543.084 319.158C541.614 319.158 540.533 318.076 540.533 316.606V313.834C540.533 312.364 541.614 311.282 543.084 311.282C544.554 311.282 545.636 312.364 545.636 313.834V316.606C545.636 318.076 544.554 319.158 543.084 319.158ZM541.483 316.658C541.483 317.546 542.197 318.26 543.084 318.26C543.971 318.26 544.685 317.546 544.685 316.658V313.776C544.685 312.889 543.971 312.175 543.084 312.175C542.197 312.175 541.483 312.889 541.483 313.776V316.658Z" fill="#110529"/>
        <path d="M536 44L536 304" stroke="#E1E3EB" stroke-width="0.75"/>
        <path d="M597 44L597 304" stroke="#E1E3EB" stroke-width="0.75"/>
        <path d="M658 44L658 304" stroke="#E1E3EB" stroke-width="0.75"/>
        <path d="M48 304H658" stroke="#E1E3EB" stroke-width="0.75" stroke-linecap="square"/>
        <rect x="61.1162" y="50.9999" width="24" height="13.1162" transform="rotate(90 61.1162 50.9999)" fill="url(#paint0_linear_14947_8382)" stroke="#110529" stroke-width="0.75"/>
        <rect x="66.4598" y="75" width="24" height="18.4599" transform="rotate(90 66.4598 75)" fill="#929BAD" stroke="#110529" stroke-width="0.75"/>
        <rect x="105.808" y="99" width="24" height="57.8085" transform="rotate(90 105.808 99)" fill="#D3D7E0" stroke="#110529" stroke-width="0.75"/>
        <rect x="98.5216" y="138" width="24" height="50.5217" transform="rotate(90 98.5216 138)" fill="url(#paint1_linear_14947_8382)" stroke="#110529" stroke-width="0.75"/>
        <rect x="170.418" y="162" width="24" height="122.418" transform="rotate(90 170.418 162)" fill="#929BAD" stroke="#110529" stroke-width="0.75"/>
        <rect x="392.908" y="186" width="24" height="344.908" transform="rotate(90 392.908 186)" fill="#D3D7E0" stroke="#110529" stroke-width="0.75"/>
        <rect x="136.899" y="225" width="24" height="88.8988" transform="rotate(90 136.899 225)" fill="url(#paint2_linear_14947_8382)" stroke="#110529" stroke-width="0.75"/>
        <rect x="354.045" y="249" width="24" height="306.045" transform="rotate(90 354.045 249)" fill="#929BAD" stroke="#110529" stroke-width="0.75"/>
        <rect x="629" y="273" width="24" height="581" transform="rotate(90 629 273)" fill="#D3D7E0" stroke="#110529" stroke-width="0.75"/>
        <path d="M319.566 337V329.374H316.62V328.36H323.58V329.374H320.634V337H319.566ZM324.655 329.374V328.27H325.723V329.374H324.655ZM324.655 337V330.52H325.723V337H324.655ZM335.276 332.854C335.276 331.888 334.7 331.306 333.884 331.306C333.158 331.306 332.468 331.792 332.468 332.884L332.462 337H331.4L331.406 332.896C331.406 331.912 330.848 331.306 330.002 331.306C329.156 331.306 328.592 331.936 328.592 332.884V337H327.518V330.52H328.472V331.21C328.88 330.682 329.54 330.352 330.314 330.352C331.19 330.352 331.856 330.742 332.204 331.42C332.588 330.754 333.314 330.352 334.166 330.352C335.516 330.352 336.344 331.24 336.344 332.62L336.338 337H335.27L335.276 332.854ZM340.656 337.18C338.742 337.18 337.488 335.83 337.488 333.802C337.488 331.678 338.724 330.34 340.608 330.34C342.558 330.34 343.698 331.756 343.602 334.06H338.634C338.718 335.404 339.414 336.166 340.608 336.166C341.46 336.166 342.108 335.764 342.468 335.026L343.494 335.38C342.984 336.526 341.91 337.18 340.656 337.18ZM338.652 333.202H342.492C342.36 331.93 341.742 331.3 340.644 331.3C339.48 331.3 338.802 331.972 338.652 333.202ZM350.418 339.196C349.014 337.576 348.156 335.266 348.18 333.04C348.156 330.814 349.014 328.504 350.418 326.884L351.21 327.484C349.794 329.17 349.164 331.06 349.158 333.04C349.164 335.002 349.806 336.94 351.21 338.59L350.418 339.196ZM357.169 333.754C357.169 332.536 356.779 331.366 355.411 331.366C354.337 331.366 353.629 332.086 353.629 333.586V337H352.549V328.36H353.509V331.354C353.989 330.712 354.733 330.352 355.669 330.352C357.757 330.352 358.249 332.188 358.249 333.418V337H357.169V333.754ZM362.569 337.18C360.631 337.18 359.449 335.764 359.449 333.754C359.449 331.72 360.667 330.34 362.569 330.34C364.513 330.34 365.695 331.75 365.695 333.754C365.695 335.788 364.495 337.18 362.569 337.18ZM360.583 333.754C360.583 335.218 361.261 336.166 362.569 336.166C363.907 336.166 364.561 335.182 364.561 333.754C364.561 332.296 363.895 331.354 362.569 331.354C361.213 331.354 360.583 332.338 360.583 333.754ZM369.476 337.168C367.388 337.168 366.896 335.332 366.896 334.102V330.52H367.976V333.766C367.976 334.984 368.366 336.154 369.734 336.154C370.808 336.154 371.516 335.434 371.516 333.934V330.52H372.59V337H371.636V336.166C371.156 336.808 370.412 337.168 369.476 337.168ZM374.27 337V330.52H375.224V331.546C375.368 331.294 375.56 331.072 375.776 330.916C376.274 330.514 377.036 330.394 377.612 330.52V331.522C377.162 331.408 376.58 331.438 376.13 331.768C375.5 332.218 375.344 332.98 375.344 333.748V337H374.27ZM380.96 337.174C379.412 337.174 378.374 336.466 378.152 335.248L379.244 335.074C379.418 335.782 380.09 336.22 381.026 336.22C381.908 336.22 382.448 335.83 382.448 335.194C382.448 334.648 382.202 334.492 380.618 334.066C378.902 333.61 378.356 333.166 378.356 332.236C378.356 331.096 379.352 330.34 380.846 330.34C382.322 330.34 383.39 331.096 383.528 332.236L382.436 332.434C382.328 331.744 381.728 331.318 380.846 331.294C380.006 331.27 379.43 331.63 379.43 332.182C379.43 332.656 379.76 332.86 381.284 333.244C382.994 333.682 383.552 334.162 383.552 335.164C383.552 336.418 382.574 337.174 380.96 337.174ZM384.311 338.59C385.715 336.94 386.357 335.002 386.363 333.04C386.357 331.06 385.727 329.17 384.311 327.484L385.103 326.884C386.507 328.504 387.365 330.814 387.341 333.04C387.365 335.266 386.507 337.576 385.103 339.196L384.311 338.59Z" fill="#110529"/>
        <rect x="444.625" y="13.625" width="12.75" height="12.75" rx="1.875" fill="url(#paint3_linear_14947_8382)" stroke="#110529" stroke-width="0.75"/>
        <path d="M463.735 24.5V16.94H464.586L467.442 22.9617L470.282 16.94H471.143V24.4947H470.256V18.9927L467.688 24.5H467.19L464.622 18.9927V24.5H463.735ZM472.72 17.8272V16.8612H473.654V17.8272H472.72ZM472.72 24.5V18.83H473.654V24.5H472.72ZM474.6 24.5L477.198 20.6727L474.668 16.94H475.807L477.765 19.8852L479.718 16.94H480.863L478.332 20.6727L480.926 24.5H479.787L477.765 21.4655L475.744 24.5H474.6ZM484.551 24.6575C482.289 24.6575 481.023 23.051 481.023 20.72C481.023 18.389 482.289 16.7825 484.551 16.7825C486.3 16.7825 487.449 17.7432 487.88 19.2447L486.93 19.4967C486.62 18.3732 485.827 17.675 484.551 17.675C482.861 17.675 482.021 18.9087 482.01 20.72C482 22.5312 482.861 23.765 484.551 23.765C485.827 23.765 486.62 23.0667 486.93 21.9432L487.88 22.1952C487.449 23.6967 486.3 24.6575 484.551 24.6575ZM489.031 24.5V16.94H492.019C492.166 16.94 492.381 16.9505 492.575 16.982C493.798 17.171 494.444 18.1212 494.444 19.3235C494.444 20.321 493.998 21.1452 493.142 21.5022L494.602 24.5H493.531L492.176 21.707H489.966V24.5H489.031ZM489.966 20.8197H491.987C492.118 20.8197 492.302 20.8092 492.46 20.7725C493.184 20.6097 493.489 19.9535 493.489 19.3235C493.489 18.6935 493.184 18.0372 492.46 17.8745C492.302 17.8377 492.118 17.8272 491.987 17.8272H489.966V20.8197Z" fill="#110529"/>
        <rect x="504.625" y="13.625" width="12.75" height="12.75" rx="1.875" fill="#929BAD" stroke="#110529" stroke-width="0.75"/>
        <path d="M525.683 24.5V17.8272H523.105V16.94H529.195V17.8272H526.617V24.5H525.683ZM530.031 24.5V16.94H533.018C533.165 16.94 533.38 16.9505 533.575 16.982C534.798 17.171 535.444 18.1212 535.444 19.3235C535.444 20.321 534.997 21.1452 534.142 21.5022L535.601 24.5H534.53L533.176 21.707H530.965V24.5H530.031ZM530.965 20.8197H532.987C533.118 20.8197 533.302 20.8092 533.459 20.7725C534.184 20.6097 534.488 19.9535 534.488 19.3235C534.488 18.6935 534.184 18.0372 533.459 17.8745C533.302 17.8377 533.118 17.8272 532.987 17.8272H530.965V20.8197ZM539.739 24.6575C537.986 24.6575 536.757 23.5077 536.757 21.7437V16.9452L537.702 16.94V21.665C537.702 23.0982 538.784 23.7755 539.739 23.7755C540.705 23.7755 541.776 23.0877 541.776 21.665V16.94H542.721V21.7437C542.721 23.5025 541.493 24.6575 539.739 24.6575ZM546.556 24.6575C544.95 24.6575 543.758 23.7965 543.506 22.4052L544.472 22.253C544.714 23.2085 545.548 23.7702 546.604 23.7702C547.617 23.7702 548.42 23.2662 548.42 22.442C548.42 21.7805 547.906 21.497 547.365 21.3342L545.438 20.762C544.598 20.5152 543.8 20.027 543.8 18.9087C543.8 17.57 544.939 16.7825 546.446 16.7877C547.969 16.7982 549.061 17.6225 549.339 18.998L548.347 19.1712C548.189 18.2525 547.396 17.6855 546.436 17.675C545.506 17.6645 544.787 18.1685 544.787 18.8667C544.787 19.565 545.485 19.8065 546.047 19.964L547.486 20.3787C548.142 20.5625 549.386 20.9352 549.386 22.3895C549.386 23.8542 548.126 24.6575 546.556 24.6575ZM552.435 24.5V17.8272H549.857V16.94H555.947V17.8272H553.37V24.5H552.435ZM559.844 24.5V23.1087H556.368V22.2215L558.862 16.94H559.923L557.429 22.2215H559.844V20.0952H560.789V22.2215H561.576V23.1087H560.789V24.5H559.844Z" fill="#110529"/>
        <rect x="571.625" y="13.625" width="12.75" height="12.75" rx="1.875" fill="#D3D7E0" stroke="#110529" stroke-width="0.75"/>
        <path d="M590.84 24.5V16.94H591.775V24.5H590.84ZM600.133 20.8722C600.133 20.027 599.629 19.5177 598.915 19.5177C598.279 19.5177 597.676 19.943 597.676 20.8985L597.67 24.5H596.741L596.746 20.909C596.746 20.048 596.258 19.5177 595.518 19.5177C594.778 19.5177 594.284 20.069 594.284 20.8985V24.5H593.344V18.83H594.179V19.4337C594.536 18.9717 595.114 18.683 595.791 18.683C596.557 18.683 597.14 19.0242 597.445 19.6175C597.781 19.0347 598.416 18.683 599.161 18.683C600.343 18.683 601.067 19.46 601.067 20.6675L601.062 24.5H600.127L600.133 20.8722ZM609.218 20.8722C609.218 20.027 608.714 19.5177 608 19.5177C607.364 19.5177 606.761 19.943 606.761 20.8985L606.755 24.5H605.826L605.831 20.909C605.831 20.048 605.343 19.5177 604.603 19.5177C603.863 19.5177 603.369 20.069 603.369 20.8985V24.5H602.429V18.83H603.264V19.4337C603.621 18.9717 604.199 18.683 604.876 18.683C605.642 18.683 606.225 19.0242 606.53 19.6175C606.866 19.0347 607.501 18.683 608.246 18.683C609.428 18.683 610.152 19.46 610.152 20.6675L610.147 24.5H609.212L609.218 20.8722ZM613.857 24.6575C612.13 24.6575 611.169 23.4027 611.153 21.665C611.169 19.8957 612.161 18.6725 613.868 18.6725C615.059 18.6725 615.983 19.3025 616.283 20.321L615.359 20.5992C615.117 19.943 614.545 19.5597 613.857 19.5597C612.692 19.5597 612.156 20.4365 612.146 21.665C612.156 22.9302 612.728 23.7702 613.857 23.7702C614.592 23.7702 615.08 23.4237 615.338 22.778L616.283 23.0247C615.884 24.0852 615.028 24.6575 613.857 24.6575ZM618.915 24.6575C617.644 24.6575 616.988 23.8805 616.988 22.967C616.988 22.0745 617.518 21.5547 618.379 21.3027C619.088 21.1137 620.085 20.993 620.925 20.8775C620.899 19.9745 620.511 19.544 619.529 19.544C618.841 19.544 618.29 19.8432 618.085 20.5362L617.198 20.2685C617.466 19.2762 618.258 18.6725 619.539 18.6725C620.563 18.6725 621.335 19.04 621.66 19.7802C621.818 20.132 621.844 20.5467 621.844 20.993V24.5H621.015V23.618C620.563 24.311 619.86 24.6575 618.915 24.6575ZM617.917 22.9617C617.917 23.429 618.248 23.8752 619.056 23.8752C620.064 23.8752 620.684 23.2715 620.82 22.568C620.899 22.295 620.91 21.9327 620.915 21.6755C620.117 21.7805 619.35 21.8697 618.799 22.0272C618.332 22.1742 617.917 22.4315 617.917 22.9617ZM627.246 21.6597C627.246 20.594 626.905 19.5702 625.708 19.5702C624.768 19.5702 624.149 20.2002 624.149 21.5127V24.5H623.204V18.83H624.044V19.5597C624.464 18.998 625.115 18.683 625.934 18.683C627.761 18.683 628.191 20.2895 628.191 21.3657V24.5H627.246V21.6597ZM632.722 24.5C631.709 24.7048 630.664 24.5893 630.27 23.8175C630.045 23.3765 630.076 22.946 630.076 22.358V19.6017H628.926V18.83H630.076V17.255H631.011V18.83H632.722V19.6017H631.011V22.316C631.011 22.7832 630.99 23.0982 631.126 23.3345C631.378 23.786 631.945 23.8175 632.722 23.6967V24.5ZM635.485 24.6575C634.214 24.6575 633.558 23.8805 633.558 22.967C633.558 22.0745 634.088 21.5547 634.949 21.3027C635.658 21.1137 636.656 20.993 637.496 20.8775C637.469 19.9745 637.081 19.544 636.099 19.544C635.411 19.544 634.86 19.8432 634.655 20.5362L633.768 20.2685C634.036 19.2762 634.829 18.6725 636.11 18.6725C637.133 18.6725 637.905 19.04 638.231 19.7802C638.388 20.132 638.414 20.5467 638.414 20.993V24.5H637.585V23.618C637.133 24.311 636.43 24.6575 635.485 24.6575ZM634.487 22.9617C634.487 23.429 634.818 23.8752 635.627 23.8752C636.635 23.8752 637.254 23.2715 637.391 22.568C637.469 22.295 637.48 21.9327 637.485 21.6755C636.687 21.7805 635.921 21.8697 635.369 22.0272C634.902 22.1742 634.487 22.4315 634.487 22.9617ZM642.945 24.5C641.932 24.7048 640.887 24.5893 640.493 23.8175C640.268 23.3765 640.299 22.946 640.299 22.358V19.6017H639.149V18.83H640.299V17.255H641.234V18.83H642.945V19.6017H641.234V22.316C641.234 22.7832 641.213 23.0982 641.349 23.3345C641.601 23.786 642.168 23.8175 642.945 23.6967V24.5ZM644.201 17.8272V16.8612H645.136V17.8272H644.201ZM644.201 24.5V18.83H645.136V24.5H644.201ZM649.126 24.6575C647.43 24.6575 646.396 23.4185 646.396 21.6597C646.396 19.88 647.462 18.6725 649.126 18.6725C650.827 18.6725 651.861 19.9062 651.861 21.6597C651.861 23.4395 650.811 24.6575 649.126 24.6575ZM647.388 21.6597C647.388 22.9407 647.982 23.7702 649.126 23.7702C650.297 23.7702 650.869 22.9092 650.869 21.6597C650.869 20.384 650.286 19.5597 649.126 19.5597C647.94 19.5597 647.388 20.4207 647.388 21.6597ZM657.054 21.6597C657.054 20.594 656.713 19.5702 655.516 19.5702C654.576 19.5702 653.957 20.2002 653.957 21.5127V24.5H653.012V18.83H653.852V19.5597C654.272 18.998 654.923 18.683 655.742 18.683C657.569 18.683 657.999 20.2895 657.999 21.3657V24.5H657.054V21.6597Z" fill="#110529"/>
    </g>
    <defs>
        <linearGradient id="paint0_linear_14947_8382" x1="73.1162" y1="50.9999" x2="73.1162" y2="64.1161" gradientUnits="userSpaceOnUse">
            <stop stop-color="#18CC18"/>
            <stop offset="1" stop-color="#A6F558"/>
        </linearGradient>
        <linearGradient id="paint1_linear_14947_8382" x1="110.522" y1="138" x2="110.522" y2="188.522" gradientUnits="userSpaceOnUse">
            <stop stop-color="#18CC18"/>
            <stop offset="1" stop-color="#A6F558"/>
        </linearGradient>
        <linearGradient id="paint2_linear_14947_8382" x1="148.899" y1="225" x2="148.899" y2="313.899" gradientUnits="userSpaceOnUse">
            <stop stop-color="#18CC18"/>
            <stop offset="1" stop-color="#A6F558"/>
        </linearGradient>
        <linearGradient id="paint3_linear_14947_8382" x1="451" y1="13.25" x2="451" y2="26.75" gradientUnits="userSpaceOnUse">
            <stop stop-color="#18CC18"/>
            <stop offset="1" stop-color="#A6F558"/>
        </linearGradient>
        <clipPath id="clip0_14947_8382">
            <rect width="678" height="350" fill="white"/>
        </clipPath>
    </defs>
</svg>
