<svg width="678" height="350" viewBox="0 0 678 350" fill="none" xmlns="http://www.w3.org/2000/svg">
    <g clip-path="url(#clip0_14947_9486)">
        <rect width="678" height="350" fill="#1D1D29"/>
        <rect x="48" y="44" width="610" height="260" fill="white" fill-opacity="0.06"/>
        <path d="M12 221.16L3.36 221.16L3.36 220.08L10.11 215.574L3.36 215.574L3.36 214.494L12 214.494L12 215.574L5.244 220.08L12 220.08L12 221.16ZM12.168 210.356C12.168 212.444 10.332 212.936 9.102 212.936L5.52 212.936L5.52 211.856L8.766 211.856C9.984 211.856 11.154 211.466 11.154 210.098C11.154 209.024 10.434 208.316 8.934 208.316L5.52 208.316L5.52 207.242L12 207.242L12 208.196L11.166 208.196C11.808 208.676 12.168 209.42 12.168 210.356ZM7.854 197.81C6.888 197.81 6.306 198.386 6.306 199.202C6.306 199.928 6.792 200.618 7.884 200.618L12 200.624L12 201.686L7.896 201.68C6.912 201.68 6.306 202.238 6.306 203.084C6.306 203.93 6.936 204.494 7.884 204.494L12 204.494L12 205.568L5.52 205.568L5.52 204.614L6.21 204.614C5.682 204.206 5.352 203.546 5.352 202.772C5.352 201.896 5.742 201.23 6.42 200.882C5.754 200.498 5.352 199.772 5.352 198.92C5.352 197.57 6.24 196.742 7.62 196.742L12 196.748L12 197.816L7.854 197.81ZM12.18 192.204C12.18 193.08 11.838 193.758 11.268 194.232L12 194.232L12 195.186L3.36 195.186L3.36 194.112L6.108 194.112C5.622 193.65 5.34 193.008 5.34 192.198C5.34 190.398 6.81 189.3 8.754 189.3C10.698 189.3 12.18 190.392 12.18 192.204ZM8.754 194.232C10.176 194.232 11.202 193.644 11.202 192.336C11.202 191.058 10.134 190.434 8.754 190.434C7.386 190.434 6.318 191.046 6.318 192.366C6.318 193.632 7.32 194.232 8.754 194.232ZM12.18 185.176C12.18 187.09 10.83 188.344 8.802 188.344C6.678 188.344 5.34 187.108 5.34 185.224C5.34 183.274 6.756 182.134 9.06 182.23L9.06 187.198C10.404 187.114 11.166 186.418 11.166 185.224C11.166 184.372 10.764 183.724 10.026 183.364L10.38 182.338C11.526 182.848 12.18 183.922 12.18 185.176ZM8.202 187.18L8.202 183.34C6.93 183.472 6.3 184.09 6.3 185.188C6.3 186.352 6.972 187.03 8.202 187.18ZM12 180.894L5.52 180.894L5.52 179.94L6.546 179.94C6.294 179.796 6.072 179.604 5.916 179.388C5.514 178.89 5.394 178.128 5.52 177.552L6.522 177.552C6.408 178.002 6.438 178.584 6.768 179.034C7.218 179.664 7.98 179.82 8.748 179.82L12 179.82L12 180.894ZM12.18 171.255C12.18 173.193 10.764 174.375 8.754 174.375C6.72 174.375 5.34 173.157 5.34 171.255C5.34 169.311 6.75 168.129 8.754 168.129C10.788 168.129 12.18 169.329 12.18 171.255ZM8.754 173.241C10.218 173.241 11.166 172.563 11.166 171.255C11.166 169.917 10.182 169.263 8.754 169.263C7.296 169.263 6.354 169.929 6.354 171.255C6.354 172.611 7.338 173.241 8.754 173.241ZM5.166 166.19C4.668 166.19 4.104 166.166 3.684 165.782C3.198 165.338 3.18 164.732 3.18 164.24L3.18 163.418L4.068 163.418L4.068 164.18C4.068 164.816 4.38 165.122 4.998 165.122L5.52 165.122L5.52 163.418L6.402 163.418L6.402 165.122L12 165.122L12 166.19L6.402 166.19L6.402 167.288L5.52 167.288L5.52 166.19L5.166 166.19ZM12 160.058L3.36 160.058L3.36 156.644C3.36 156.476 3.372 156.23 3.408 156.008C3.624 154.61 4.71 153.872 6.084 153.872C7.224 153.872 8.166 154.382 8.574 155.36L12 153.692L12 154.916L8.808 156.464L8.808 158.99L12 158.99L12 160.058ZM7.794 158.99L7.794 156.68C7.794 156.53 7.782 156.32 7.74 156.14C7.554 155.312 6.804 154.964 6.084 154.964C5.364 154.964 4.614 155.312 4.428 156.14C4.386 156.32 4.374 156.53 4.374 156.68L4.374 158.99L7.794 158.99ZM12.18 149.563C12.18 151.477 10.83 152.731 8.802 152.731C6.678 152.731 5.34 151.495 5.34 149.611C5.34 147.661 6.756 146.521 9.06 146.617L9.06 151.585C10.404 151.501 11.166 150.805 11.166 149.611C11.166 148.759 10.764 148.111 10.026 147.751L10.38 146.725C11.526 147.235 12.18 148.309 12.18 149.563ZM8.202 151.567L8.202 147.727C6.93 147.859 6.3 148.477 6.3 149.575C6.3 150.739 6.972 151.417 8.202 151.567ZM12.18 143.556C12.18 145.008 11.292 145.758 10.248 145.758C9.228 145.758 8.634 145.152 8.346 144.168C8.13 143.358 7.992 142.218 7.86 141.258C6.828 141.288 6.336 141.732 6.336 142.854C6.336 143.64 6.678 144.27 7.47 144.504L7.164 145.518C6.03 145.212 5.34 144.306 5.34 142.842C5.34 141.672 5.76 140.79 6.606 140.418C7.008 140.238 7.482 140.208 7.992 140.208L12 140.208L12 141.156L10.992 141.156C11.784 141.672 12.18 142.476 12.18 143.556ZM10.242 144.696C10.776 144.696 11.286 144.318 11.286 143.394C11.286 142.242 10.596 141.534 9.792 141.378C9.48 141.288 9.066 141.276 8.772 141.27C8.892 142.182 8.994 143.058 9.174 143.688C9.342 144.222 9.636 144.696 10.242 144.696ZM12.18 136.104C12.18 137.916 10.698 139.008 8.754 139.008C6.81 139.008 5.34 137.91 5.34 136.11C5.34 135.3 5.622 134.658 6.108 134.196L3.36 134.196L3.36 133.122L12 133.122L12 134.076L11.268 134.076C11.838 134.55 12.18 135.228 12.18 136.104ZM8.754 137.874C10.134 137.874 11.202 137.25 11.202 135.972C11.202 134.664 10.176 134.076 8.754 134.076C7.32 134.076 6.318 134.676 6.318 135.942C6.318 137.262 7.386 137.874 8.754 137.874ZM12.174 128.993C12.174 130.541 11.466 131.579 10.248 131.801L10.074 130.709C10.782 130.535 11.22 129.863 11.22 128.927C11.22 128.045 10.83 127.505 10.194 127.505C9.648 127.505 9.492 127.751 9.066 129.335C8.61 131.051 8.166 131.597 7.236 131.597C6.096 131.597 5.34 130.601 5.34 129.107C5.34 127.631 6.09599 126.563 7.23599 126.425L7.43399 127.517C6.74399 127.625 6.318 128.225 6.294 129.107C6.27 129.947 6.63 130.523 7.182 130.523C7.656 130.523 7.85999 130.193 8.24399 128.669C8.68199 126.959 9.162 126.401 10.164 126.401C11.418 126.401 12.174 127.379 12.174 128.993Z" fill="white"/>
        <path d="M23.12 25L23.12 13.48H27.648C29.848 13.48 30.984 15.008 30.984 16.576C30.984 17.632 30.52 18.472 29.76 18.912C30.904 19.4 31.528 20.416 31.528 21.64C31.528 23.672 30.272 25 28.08 25H23.12ZM24.816 23.408H27.824C28.968 23.408 29.816 22.728 29.816 21.608C29.816 20.56 29.08 19.76 27.928 19.76H24.816L24.816 23.408ZM24.816 18.184H27.624C28.552 18.184 29.272 17.6 29.272 16.592C29.272 15.696 28.624 15.056 27.624 15.056H24.816L24.816 18.184ZM33.6 22.92L33.6 21.152H35.368L35.368 22.92H33.6ZM33.608 17.328L33.608 15.56H35.376L35.376 17.328H33.608ZM47.1794 25L47.1794 13.48H48.6914L52.8674 22.144L57.0194 13.48H58.5474L58.5474 24.992H56.9634L56.9634 17.112L53.2434 25H52.4834L48.7554 17.112L48.7554 25H47.1794ZM60.7888 14.944L60.7888 13.32H62.4608L62.4608 14.944H60.7888ZM60.7888 25L60.7888 16.36H62.4608L62.4608 25H60.7888ZM63.7431 25L67.6711 19.168L63.8471 13.48H65.8951L68.7031 17.752L71.4951 13.48L73.5511 13.48L69.7271 19.168L73.6471 25H71.5991L68.7031 20.592L65.7991 25H63.7431ZM79.0855 25.24C75.6295 25.24 73.6375 22.8 73.6375 19.24C73.6375 15.68 75.6295 13.24 79.0855 13.24C81.7415 13.24 83.5255 14.688 84.2055 16.96L82.5095 17.416C82.0535 15.808 80.9095 14.832 79.0855 14.832C76.6375 14.832 75.4135 16.6 75.4055 19.24C75.3895 21.88 76.6375 23.648 79.0855 23.648C80.9095 23.648 82.0535 22.672 82.5095 21.064L84.2055 21.52C83.5255 23.792 81.7415 25.24 79.0855 25.24ZM85.805 25L85.805 13.48H90.461C90.685 13.48 91.045 13.496 91.349 13.544C93.277 13.84 94.237 15.304 94.237 17.168C94.237 18.704 93.581 19.968 92.277 20.536L94.453 25L92.541 25L90.533 20.864H87.477L87.477 25H85.805ZM87.477 19.28H90.397C90.605 19.28 90.885 19.264 91.125 19.208C92.149 18.96 92.533 18.016 92.533 17.168C92.533 16.32 92.149 15.376 91.125 15.136C90.885 15.072 90.605 15.056 90.397 15.056H87.477L87.477 19.28ZM105.158 20.752C105.158 19.408 104.814 17.712 102.974 17.712C101.774 17.712 100.782 18.456 100.782 20.504L100.782 25H99.0864L99.0864 13.48H100.582L100.582 17.392C101.214 16.6 102.182 16.128 103.438 16.128C106.414 16.128 106.854 18.864 106.854 20.2L106.854 25H105.158L105.158 20.752ZM111.218 25.24C109.306 25.24 108.298 24.056 108.298 22.648C108.298 21.344 109.002 20.512 110.338 20.088C111.338 19.792 112.762 19.608 114.162 19.416C114.106 18.224 113.562 17.664 112.21 17.664C111.298 17.664 110.466 18.064 110.17 19.024L108.61 18.544C109.026 17.064 110.226 16.12 112.226 16.12C113.77 16.12 114.97 16.632 115.506 17.768C115.778 18.336 115.81 18.96 115.81 19.68L115.81 25H114.33L114.33 23.744C113.618 24.76 112.618 25.24 111.218 25.24ZM109.954 22.632C109.954 23.304 110.442 23.872 111.514 23.872C112.938 23.872 113.778 23 113.97 22.16C114.106 21.76 114.138 21.208 114.146 20.808C112.842 21 111.874 21.136 111.146 21.352C110.458 21.584 109.954 21.952 109.954 22.632ZM121.031 25.232C118.927 25.232 117.543 24.264 117.247 22.576L118.959 22.312C119.175 23.216 119.991 23.76 121.143 23.76C122.183 23.76 122.815 23.312 122.815 22.56C122.815 21.904 122.527 21.728 120.495 21.184C118.263 20.6 117.527 19.984 117.527 18.712C117.527 17.144 118.855 16.12 120.887 16.12C122.871 16.12 124.295 17.12 124.487 18.656L122.775 18.968C122.655 18.144 121.959 17.632 120.903 17.592C119.887 17.552 119.199 17.968 119.199 18.624C119.199 19.2 119.591 19.424 121.615 19.936C123.791 20.496 124.535 21.16 124.535 22.496C124.535 24.208 123.215 25.232 121.031 25.232ZM134.133 25C132.509 25.32 130.837 25.152 130.205 23.952C129.829 23.24 129.885 22.544 129.885 21.6L129.885 17.704H128.229L128.229 16.36H129.885L129.885 13.96H131.565L131.565 16.36H134.133L134.133 17.704H131.565L131.565 21.52C131.565 22.216 131.533 22.72 131.741 23.072C132.125 23.728 133.005 23.752 134.133 23.584L134.133 25ZM141.858 20.752C141.858 19.408 141.514 17.712 139.674 17.712C138.474 17.712 137.482 18.456 137.482 20.504L137.482 25H135.786L135.786 13.48H137.282L137.282 17.392C137.914 16.6 138.882 16.128 140.138 16.128C143.114 16.128 143.554 18.864 143.554 20.2L143.554 25H141.858L141.858 20.752ZM149.31 25.24C146.726 25.24 144.998 23.424 144.998 20.752C144.998 17.92 146.702 16.12 149.23 16.12C151.87 16.12 153.406 18.056 153.23 21.152H146.79C146.926 22.752 147.774 23.664 149.23 23.664C150.27 23.664 151.054 23.176 151.478 22.288L153.118 22.808C152.446 24.352 150.982 25.24 149.31 25.24ZM146.83 19.848H151.518C151.342 18.328 150.622 17.6 149.294 17.6C147.862 17.6 147.046 18.384 146.83 19.848ZM158.7 16.056C158.7 15.392 158.7 14.56 159.252 13.952C159.916 13.224 160.82 13.24 161.468 13.24H162.556L162.556 14.616H161.548C160.748 14.616 160.372 15.024 160.372 15.736L160.372 16.36H162.556L162.556 17.704H160.372L160.372 25H158.7L158.7 17.704H157.268L157.268 16.36H158.7L158.7 16.056ZM165.876 25.24C163.964 25.24 162.956 24.056 162.956 22.648C162.956 21.344 163.66 20.512 164.996 20.088C165.996 19.792 167.42 19.608 168.82 19.416C168.764 18.224 168.22 17.664 166.868 17.664C165.956 17.664 165.124 18.064 164.828 19.024L163.268 18.544C163.684 17.064 164.884 16.12 166.884 16.12C168.428 16.12 169.628 16.632 170.164 17.768C170.436 18.336 170.468 18.96 170.468 19.68L170.468 25H168.988L168.988 23.744C168.276 24.76 167.276 25.24 165.876 25.24ZM164.612 22.632C164.612 23.304 165.1 23.872 166.172 23.872C167.596 23.872 168.436 23 168.628 22.16C168.764 21.76 168.796 21.208 168.804 20.808C167.5 21 166.532 21.136 165.804 21.352C165.116 21.584 164.612 21.952 164.612 22.632ZM175.689 25.232C173.585 25.232 172.201 24.264 171.905 22.576L173.617 22.312C173.833 23.216 174.649 23.76 175.801 23.76C176.841 23.76 177.473 23.312 177.473 22.56C177.473 21.904 177.185 21.728 175.153 21.184C172.921 20.6 172.185 19.984 172.185 18.712C172.185 17.144 173.513 16.12 175.545 16.12C177.529 16.12 178.953 17.12 179.145 18.656L177.433 18.968C177.313 18.144 176.617 17.632 175.561 17.592C174.545 17.552 173.857 17.968 173.857 18.624C173.857 19.2 174.249 19.424 176.273 19.936C178.449 20.496 179.193 21.16 179.193 22.496C179.193 24.208 177.873 25.232 175.689 25.232ZM185.747 25C184.123 25.32 182.451 25.152 181.819 23.952C181.443 23.24 181.499 22.544 181.499 21.6L181.499 17.704H179.843L179.843 16.36H181.499L181.499 13.96H183.179L183.179 16.36L185.747 16.36L185.747 17.704L183.179 17.704L183.179 21.52C183.179 22.216 183.147 22.72 183.355 23.072C183.739 23.728 184.619 23.752 185.747 23.584L185.747 25ZM190.835 25.24C188.251 25.24 186.523 23.424 186.523 20.752C186.523 17.92 188.227 16.12 190.755 16.12C193.395 16.12 194.931 18.056 194.755 21.152H188.315C188.451 22.752 189.299 23.664 190.755 23.664C191.795 23.664 192.579 23.176 193.003 22.288L194.643 22.808C193.971 24.352 192.507 25.24 190.835 25.24ZM188.355 19.848H193.043C192.867 18.328 192.147 17.6 190.819 17.6C189.387 17.6 188.571 18.384 188.355 19.848ZM199.693 25.232C197.589 25.232 196.205 24.264 195.909 22.576L197.621 22.312C197.837 23.216 198.653 23.76 199.805 23.76C200.845 23.76 201.477 23.312 201.477 22.56C201.477 21.904 201.189 21.728 199.157 21.184C196.925 20.6 196.189 19.984 196.189 18.712C196.189 17.144 197.517 16.12 199.549 16.12C201.533 16.12 202.957 17.12 203.149 18.656L201.437 18.968C201.317 18.144 200.621 17.632 199.565 17.592C198.549 17.552 197.861 17.968 197.861 18.624C197.861 19.2 198.253 19.424 200.277 19.936C202.453 20.496 203.197 21.16 203.197 22.496C203.197 24.208 201.877 25.232 199.693 25.232ZM209.751 25C208.127 25.32 206.455 25.152 205.823 23.952C205.447 23.24 205.503 22.544 205.503 21.6L205.503 17.704H203.847L203.847 16.36H205.504L205.504 13.96L207.183 13.96L207.183 16.36H209.752L209.752 17.704H207.183L207.183 21.52C207.183 22.216 207.152 22.72 207.359 23.072C207.744 23.728 208.624 23.752 209.751 23.584L209.751 25ZM218.512 25.24C217.528 25.24 216.736 24.928 216.128 24.392L216.128 28.84H214.448L214.448 16.36H215.936L215.936 17.136C216.552 16.496 217.408 16.12 218.48 16.12C220.912 16.12 222.424 18.064 222.424 20.672C222.424 23.264 220.92 25.24 218.512 25.24ZM215.936 20.672C215.936 22.464 216.632 23.728 218.28 23.728C219.888 23.728 220.648 22.384 220.648 20.672C220.648 18.976 219.888 17.632 218.224 17.632C216.648 17.632 215.936 18.88 215.936 20.672ZM224.031 25L224.031 16.36H225.519L225.519 17.736C225.719 17.376 225.991 17.064 226.319 16.848C226.967 16.368 227.919 16.216 228.695 16.36L228.695 17.928C228.135 17.776 227.383 17.824 226.807 18.192C225.991 18.712 225.719 19.624 225.719 20.64L225.719 25H224.031ZM233.654 25.24C231.062 25.24 229.422 23.352 229.422 20.672C229.422 17.968 231.11 16.12 233.654 16.12C236.246 16.12 237.894 18 237.894 20.672C237.894 23.376 236.23 25.24 233.654 25.24ZM231.198 20.672C231.198 22.496 232.038 23.664 233.654 23.664C235.302 23.664 236.118 22.44 236.118 20.672C236.118 18.864 235.286 17.696 233.654 17.696C231.974 17.696 231.198 18.912 231.198 20.672ZM243.188 25.24C240.54 25.24 239.028 23.312 239.012 20.68C239.028 18.008 240.596 16.12 243.212 16.12C245.1 16.12 246.524 17.128 246.956 18.752L245.292 19.232C244.964 18.264 244.156 17.696 243.188 17.696C241.548 17.696 240.796 18.952 240.788 20.68C240.796 22.464 241.604 23.664 243.188 23.664C244.26 23.664 244.908 23.152 245.26 22.224L246.956 22.624C246.388 24.32 245.044 25.24 243.188 25.24ZM252.023 25.24C249.439 25.24 247.711 23.424 247.711 20.752C247.711 17.92 249.415 16.12 251.943 16.12C254.583 16.12 256.119 18.056 255.943 21.152H249.503C249.639 22.752 250.487 23.664 251.943 23.664C252.983 23.664 253.767 23.176 254.191 22.288L255.831 22.808C255.159 24.352 253.695 25.24 252.023 25.24ZM249.543 19.848H254.231C254.055 18.328 253.335 17.6 252.007 17.6C250.575 17.6 249.759 18.384 249.543 19.848ZM260.882 25.232C258.778 25.232 257.394 24.264 257.098 22.576L258.81 22.312C259.026 23.216 259.842 23.76 260.994 23.76C262.034 23.76 262.666 23.312 262.666 22.56C262.666 21.904 262.378 21.728 260.346 21.184C258.114 20.6 257.378 19.984 257.378 18.712C257.378 17.144 258.706 16.12 260.738 16.12C262.722 16.12 264.146 17.12 264.338 18.656L262.626 18.968C262.506 18.144 261.81 17.632 260.754 17.592C259.738 17.552 259.05 17.968 259.05 18.624C259.05 19.2 259.442 19.424 261.466 19.936C263.642 20.496 264.386 21.16 264.386 22.496C264.386 24.208 263.066 25.232 260.882 25.232ZM269.3 25.232C267.196 25.232 265.812 24.264 265.516 22.576L267.228 22.312C267.444 23.216 268.26 23.76 269.412 23.76C270.452 23.76 271.084 23.312 271.084 22.56C271.084 21.904 270.796 21.728 268.764 21.184C266.532 20.6 265.796 19.984 265.796 18.712C265.796 17.144 267.124 16.12 269.156 16.12C271.14 16.12 272.564 17.12 272.756 18.656L271.044 18.968C270.924 18.144 270.228 17.632 269.172 17.592C268.156 17.552 267.468 17.968 267.468 18.624C267.468 19.2 267.86 19.424 269.884 19.936C272.06 20.496 272.804 21.16 272.804 22.496C272.804 24.208 271.484 25.232 269.3 25.232ZM274.574 14.944L274.574 13.32H276.246L276.246 14.944H274.574ZM274.574 25L274.574 16.36H276.246L276.246 25H274.574ZM284.553 20.752C284.553 19.408 284.209 17.712 282.369 17.712C281.169 17.712 280.177 18.456 280.177 20.504L280.177 25H278.481L278.481 16.36H279.977L279.977 17.392C280.609 16.6 281.577 16.128 282.833 16.128C285.809 16.128 286.249 18.864 286.249 20.2L286.249 25H284.553L284.553 20.752ZM291.732 29.08C290.34 29.08 289.012 28.424 288.308 27.192L289.852 26.408C290.228 27.144 290.98 27.472 291.748 27.472C293.172 27.472 294.004 26.704 293.98 25.216L293.98 24.4C293.372 24.936 292.58 25.24 291.604 25.24C289.196 25.24 287.692 23.264 287.692 20.672C287.692 18.064 289.204 16.12 291.636 16.12C292.708 16.12 293.564 16.496 294.18 17.136L294.18 16.36H295.66L295.66 25.232C295.66 25.696 295.636 26.104 295.548 26.512C295.188 28.264 293.748 29.08 291.732 29.08ZM289.468 20.672C289.468 22.384 290.228 23.728 291.836 23.728C293.484 23.728 294.18 22.464 294.18 20.672C294.18 18.88 293.468 17.632 291.892 17.632C290.228 17.632 289.468 18.976 289.468 20.672ZM305.734 25C304.11 25.32 302.438 25.152 301.806 23.952C301.43 23.24 301.486 22.544 301.486 21.6L301.486 17.704L299.83 17.704L299.83 16.36L301.486 16.36L301.486 13.96L303.166 13.96L303.166 16.36H305.734L305.734 17.704H303.166L303.166 21.52C303.166 22.216 303.134 22.72 303.342 23.072C303.726 23.728 304.606 23.752 305.734 23.584L305.734 25ZM307.556 14.944L307.556 13.32H309.228L309.228 14.944H307.556ZM307.556 25L307.556 16.36H309.228L309.228 25H307.556ZM321.83 19.616C321.83 18.376 321.126 17.632 320.086 17.632C319.134 17.632 318.326 18.296 318.326 19.6L318.318 25H316.646L316.654 19.648C316.654 18.4 315.966 17.632 314.902 17.632C313.846 17.632 313.142 18.424 313.142 19.6L313.142 25H311.462L311.462 16.36H312.95L312.95 17.288C313.502 16.584 314.39 16.144 315.43 16.144C316.622 16.144 317.486 16.672 317.942 17.544C318.47 16.672 319.438 16.144 320.566 16.144C322.422 16.144 323.502 17.36 323.502 19.216L323.494 25H321.822L321.83 19.616ZM329.142 25.24C326.558 25.24 324.83 23.424 324.83 20.752C324.83 17.92 326.534 16.12 329.062 16.12C331.702 16.12 333.238 18.056 333.062 21.152H326.622C326.758 22.752 327.606 23.664 329.062 23.664C330.102 23.664 330.886 23.176 331.31 22.288L332.95 22.808C332.278 24.352 330.814 25.24 329.142 25.24ZM326.662 19.848H331.35C331.174 18.328 330.454 17.6 329.126 17.6C327.694 17.6 326.878 18.384 326.662 19.848Z" fill="white"/>
        <path d="M48 44V43.625H47.625V44H48ZM658 44H658.375V43.625H658V44ZM658 304V304.375H658.375V304H658ZM48 304H47.625V304.375H48V304ZM48 44.375H658V43.625H48V44.375ZM657.625 44V304H658.375V44H657.625ZM658 303.625H48V304.375H658V303.625ZM48.375 304V44H47.625V304H48.375Z" fill="black"/>
        <path d="M658 44.0007H48" stroke="black" stroke-width="0.75"/>
        <path d="M31.6572 91.8331V85.3074L30.2345 86.1684V85.1236L31.6572 84.2731H32.6075V91.8331H31.6572ZM34.6051 91.8331V84.2731H35.4556L38.3116 90.2949L41.1519 84.2731H42.0129V91.8279H41.1256V86.3259L38.5584 91.8331H38.0596L35.4924 86.3259V91.8331H34.6051Z" fill="white"/>
        <path d="M658 87.3339H48" stroke="black" stroke-width="0.75"/>
        <path d="M658 130.667H48" stroke="black" stroke-width="0.75"/>
        <path d="M25.0845 178.5V171.974L23.6617 172.835V171.79L25.0845 170.94H26.0347V178.5H25.0845ZM30.5839 178.657C29.1139 178.657 28.0324 177.576 28.0324 176.106V173.334C28.0324 171.864 29.1139 170.782 30.5839 170.782C32.0539 170.782 33.1354 171.864 33.1354 173.334V176.106C33.1354 177.576 32.0539 178.657 30.5839 178.657ZM28.9826 176.158C28.9826 177.045 29.6966 177.759 30.5839 177.759C31.4711 177.759 32.1851 177.045 32.1851 176.158V173.276C32.1851 172.389 31.4711 171.675 30.5839 171.675C29.6966 171.675 28.9826 172.389 28.9826 173.276V176.158ZM34.6051 178.5V170.94H35.4556L38.3116 176.961L41.1519 170.94H42.0129V178.494H41.1256V172.992L38.5584 178.5H38.0596L35.4924 172.992V178.5H34.6051Z" fill="white"/>
        <path d="M658 174H48" stroke="black" stroke-width="0.75"/>
        <path d="M658 217.333H48" stroke="black" stroke-width="0.75"/>
        <path d="M21.7521 265.161L21.7573 264.321L25.1121 261.302C25.6686 260.804 25.8208 260.368 25.8208 259.89C25.8208 259.019 25.1698 258.341 24.2983 258.341C23.3953 258.341 22.7338 259.061 22.7443 259.885H21.7888C21.7888 258.462 22.8598 257.449 24.3141 257.449C25.7158 257.449 26.7763 258.509 26.7763 259.901C26.7763 260.893 26.4036 261.392 25.6266 262.079L23.1906 264.269H26.7763V265.161H21.7521ZM30.5839 265.324C29.1139 265.324 28.0324 264.242 28.0324 262.772V260C28.0324 258.53 29.1139 257.449 30.5839 257.449C32.0539 257.449 33.1354 258.53 33.1354 260V262.772C33.1354 264.242 32.0539 265.324 30.5839 265.324ZM28.9826 262.825C28.9826 263.712 29.6966 264.426 30.5839 264.426C31.4711 264.426 32.1851 263.712 32.1851 262.825V259.943C32.1851 259.055 31.4711 258.341 30.5839 258.341C29.6966 258.341 28.9826 259.055 28.9826 259.943V262.825ZM34.6051 265.166V257.606H35.4556L38.3116 263.628L41.1519 257.606H42.0129V265.161H41.1256V259.659L38.5584 265.166H38.0596L35.4924 259.659V265.166H34.6051Z" fill="white"/>
        <path d="M658 260.667H48" stroke="black" stroke-width="0.75"/>
        <path d="M658 304H48" stroke="black" stroke-width="0.75"/>
        <path d="M48 44.0012V304" stroke="black" stroke-width="0.75" stroke-linecap="square"/>
        <path d="M47.7505 319.158C46.2805 319.158 45.199 318.076 45.199 316.606V313.834C45.199 312.364 46.2805 311.282 47.7505 311.282C49.2205 311.282 50.302 312.364 50.302 313.834V316.606C50.302 318.076 49.2205 319.158 47.7505 319.158ZM46.1492 316.658C46.1492 317.546 46.8632 318.26 47.7505 318.26C48.6377 318.26 49.3517 317.546 49.3517 316.658V313.776C49.3517 312.889 48.6377 312.175 47.7505 312.175C46.8632 312.175 46.1492 312.889 46.1492 313.776V316.658Z" fill="white"/>
        <path d="M48.0007 44L48.0007 304" stroke="white" stroke-width="0.75"/>
        <path d="M124.251 44L124.251 304" stroke="black" stroke-width="0.75"/>
        <path d="M187.937 319.147C186.814 319.147 185.869 318.496 185.548 317.446L186.446 317.189C186.672 317.892 187.26 318.265 187.932 318.254C188.851 318.239 189.444 317.598 189.444 316.674C189.444 315.74 188.83 315.094 187.921 315.094C187.664 315.094 187.375 315.173 187.139 315.293L186.688 314.553L189.145 312.332H185.848V311.44H190.305V312.338L188.263 314.296C189.565 314.369 190.405 315.351 190.405 316.674C190.405 318.123 189.339 319.147 187.937 319.147ZM194.227 319.158C192.552 319.158 191.455 317.976 191.455 316.202C191.455 314.343 192.536 313.172 194.185 313.172C195.891 313.172 196.888 314.411 196.804 316.427H192.457C192.531 317.603 193.14 318.27 194.185 318.27C194.93 318.27 195.497 317.918 195.812 317.273L196.71 317.582C196.264 318.585 195.324 319.158 194.227 319.158ZM192.473 315.677H195.833C195.718 314.564 195.177 314.012 194.216 314.012C193.198 314.012 192.604 314.6 192.473 315.677ZM199.874 317.609V315.603H197.868V314.831H199.874V312.831H200.645V314.831H202.646V315.603H200.645V317.609H199.874ZM206.564 319.158C205.094 319.158 204.013 318.076 204.013 316.606V313.834C204.013 312.364 205.094 311.282 206.564 311.282C208.034 311.282 209.116 312.364 209.116 313.834V316.606C209.116 318.076 208.034 319.158 206.564 319.158ZM204.963 316.658C204.963 317.546 205.677 318.26 206.564 318.26C207.452 318.26 208.166 317.546 208.166 316.658V313.776C208.166 312.889 207.452 312.175 206.564 312.175C205.677 312.175 204.963 312.889 204.963 313.776V316.658ZM213.163 319.158C211.72 319.158 210.586 318.023 210.586 316.506V313.991C210.586 312.406 211.699 311.288 213.247 311.288C214.077 311.288 214.822 311.639 215.316 312.275L214.618 312.894C214.313 312.458 213.804 312.175 213.247 312.175C212.245 312.175 211.536 312.983 211.536 313.886V314.915C211.972 314.432 212.596 314.133 213.274 314.133C214.681 314.133 215.741 315.22 215.741 316.627C215.741 318.034 214.57 319.158 213.163 319.158ZM211.536 316.627C211.536 317.519 212.26 318.254 213.163 318.254C214.066 318.254 214.796 317.53 214.796 316.627C214.796 315.724 214.072 314.994 213.169 314.994C212.266 314.994 211.536 315.724 211.536 316.627Z" fill="white"/>
        <path d="M200.501 44L200.501 304" stroke="black" stroke-width="0.75"/>
        <path d="M276.75 44L276.75 304" stroke="black" stroke-width="0.75"/>
        <path d="M340.383 319.158C338.939 319.158 337.805 318.023 337.805 316.506V313.991C337.805 312.406 338.918 311.288 340.467 311.288C341.297 311.288 342.042 311.639 342.536 312.275L341.837 312.894C341.533 312.458 341.024 312.175 340.467 312.175C339.464 312.175 338.756 312.983 338.756 313.886V314.915C339.191 314.432 339.816 314.133 340.493 314.133C341.9 314.133 342.961 315.22 342.961 316.627C342.961 318.034 341.79 319.158 340.383 319.158ZM338.756 316.627C338.756 317.519 339.48 318.254 340.383 318.254C341.286 318.254 342.016 317.53 342.016 316.627C342.016 315.724 341.291 314.994 340.388 314.994C339.485 314.994 338.756 315.724 338.756 316.627ZM346.784 319.158C345.109 319.158 344.012 317.976 344.012 316.202C344.012 314.343 345.093 313.172 346.742 313.172C348.448 313.172 349.446 314.411 349.362 316.427H345.015C345.088 317.603 345.697 318.27 346.742 318.27C347.487 318.27 348.054 317.918 348.369 317.273L349.267 317.582C348.821 318.585 347.881 319.158 346.784 319.158ZM345.03 315.677H348.39C348.275 314.564 347.734 314.012 346.773 314.012C345.755 314.012 345.162 314.6 345.03 315.677ZM352.431 317.609V315.603H350.426V314.831H352.431V312.831H353.203V314.831H355.203V315.603H353.203V317.609H352.431ZM359.122 319.158C357.652 319.158 356.57 318.076 356.57 316.606V313.834C356.57 312.364 357.652 311.282 359.122 311.282C360.592 311.282 361.673 312.364 361.673 313.834V316.606C361.673 318.076 360.592 319.158 359.122 319.158ZM357.52 316.658C357.52 317.546 358.234 318.26 359.122 318.26C360.009 318.26 360.723 317.546 360.723 316.658V313.776C360.723 312.889 360.009 312.175 359.122 312.175C358.234 312.175 357.52 312.889 357.52 313.776V316.658ZM365.721 319.158C364.277 319.158 363.143 318.023 363.143 316.506V313.991C363.143 312.406 364.256 311.288 365.805 311.288C366.634 311.288 367.38 311.639 367.873 312.275L367.175 312.894C366.87 312.458 366.361 312.175 365.805 312.175C364.802 312.175 364.093 312.983 364.093 313.886V314.915C364.529 314.432 365.154 314.133 365.831 314.133C367.238 314.133 368.298 315.22 368.298 316.627C368.298 318.034 367.128 319.158 365.721 319.158ZM364.093 316.627C364.093 317.519 364.818 318.254 365.721 318.254C366.624 318.254 367.353 317.53 367.353 316.627C367.353 315.724 366.629 314.994 365.726 314.994C364.823 314.994 364.093 315.724 364.093 316.627Z" fill="white"/>
        <path d="M353 44L353 304" stroke="black" stroke-width="0.75"/>
        <path d="M429.25 44L429.25 304" stroke="black" stroke-width="0.75"/>
        <path d="M492.528 311.288C493.972 311.288 495.106 312.422 495.106 313.939V316.454C495.106 318.039 493.993 319.158 492.444 319.158C491.615 319.158 490.869 318.806 490.376 318.17L491.074 317.551C491.378 317.987 491.888 318.27 492.444 318.27C493.447 318.27 494.156 317.462 494.156 316.559V315.53C493.72 316.013 493.095 316.312 492.418 316.312C491.011 316.312 489.95 315.225 489.95 313.818C489.95 312.411 491.121 311.288 492.528 311.288ZM490.895 313.818C490.895 314.721 491.62 315.451 492.523 315.451C493.426 315.451 494.156 314.721 494.156 313.818C494.156 312.926 493.431 312.191 492.528 312.191C491.625 312.191 490.895 312.915 490.895 313.818ZM499.034 319.158C497.359 319.158 496.262 317.976 496.262 316.202C496.262 314.343 497.343 313.172 498.992 313.172C500.698 313.172 501.696 314.411 501.612 316.427H497.265C497.338 317.603 497.947 318.27 498.992 318.27C499.737 318.27 500.304 317.918 500.619 317.273L501.517 317.582C501.071 318.585 500.131 319.158 499.034 319.158ZM497.28 315.677H500.64C500.525 314.564 499.984 314.012 499.023 314.012C498.005 314.012 497.412 314.6 497.28 315.677ZM504.681 317.609V315.603H502.675V314.831H504.681V312.831H505.453V314.831H507.453V315.603H505.453V317.609H504.681ZM511.371 319.158C509.901 319.158 508.82 318.076 508.82 316.606V313.834C508.82 312.364 509.901 311.282 511.371 311.282C512.841 311.282 513.923 312.364 513.923 313.834V316.606C513.923 318.076 512.841 319.158 511.371 319.158ZM509.77 316.658C509.77 317.546 510.484 318.26 511.371 318.26C512.259 318.26 512.973 317.546 512.973 316.658V313.776C512.973 312.889 512.259 312.175 511.371 312.175C510.484 312.175 509.77 312.889 509.77 313.776V316.658ZM517.97 319.158C516.527 319.158 515.393 318.023 515.393 316.506V313.991C515.393 312.406 516.506 311.288 518.054 311.288C518.884 311.288 519.629 311.639 520.123 312.275L519.425 312.894C519.12 312.458 518.611 312.175 518.054 312.175C517.052 312.175 516.343 312.983 516.343 313.886V314.915C516.779 314.432 517.403 314.133 518.081 314.133C519.488 314.133 520.548 315.22 520.548 316.627C520.548 318.034 519.377 319.158 517.97 319.158ZM516.343 316.627C516.343 317.519 517.067 318.254 517.97 318.254C518.873 318.254 519.603 317.53 519.603 316.627C519.603 315.724 518.879 314.994 517.976 314.994C517.073 314.994 516.343 315.724 516.343 316.627Z" fill="white"/>
        <path d="M505.5 44L505.5 304" stroke="black" stroke-width="0.75"/>
        <path d="M581.75 44L581.75 304" stroke="black" stroke-width="0.75"/>
        <path d="M658 44L658 304" stroke="black" stroke-width="0.75"/>
        <path d="M48 304H658" stroke="black" stroke-width="0.75" stroke-linecap="square"/>
        <rect x="243.274" y="51" width="24" height="195.274" transform="rotate(90 243.274 51)" fill="url(#paint0_linear_14947_9486)" stroke="white" stroke-width="0.75"/>
        <rect x="185.325" y="75" width="24" height="137.325" transform="rotate(90 185.325 75)" fill="#929BAD" stroke="white" stroke-width="0.75"/>
        <rect x="97.1837" y="99" width="24" height="49.1838" transform="rotate(90 97.1837 99)" fill="#D3D7E0" stroke="white" stroke-width="0.75"/>
        <rect x="541.298" y="138" width="24" height="493.298" transform="rotate(90 541.298 138)" fill="url(#paint1_linear_14947_9486)" stroke="white" stroke-width="0.75"/>
        <rect x="254.474" y="162" width="24" height="206.474" transform="rotate(90 254.474 162)" fill="#929BAD" stroke="white" stroke-width="0.75"/>
        <rect x="126.889" y="186" width="24" height="78.8888" transform="rotate(90 126.889 186)" fill="#D3D7E0" stroke="white" stroke-width="0.75"/>
        <rect x="608.5" y="225" width="24" height="560.5" transform="rotate(90 608.5 225)" fill="url(#paint2_linear_14947_9486)" stroke="white" stroke-width="0.75"/>
        <rect x="216.978" y="249" width="24" height="168.978" transform="rotate(90 216.978 249)" fill="#929BAD" stroke="white" stroke-width="0.75"/>
        <rect x="139.55" y="273" width="24" height="91.55" transform="rotate(90 139.55 273)" fill="#D3D7E0" stroke="white" stroke-width="0.75"/>
        <path d="M311.34 337V328.36H314.754C314.922 328.36 315.168 328.372 315.39 328.408C316.788 328.624 317.526 329.71 317.526 331.084C317.526 332.224 317.016 333.166 316.038 333.574L317.706 337H316.482L314.934 333.808H312.408V337H311.34ZM312.408 332.794H314.718C314.868 332.794 315.078 332.782 315.258 332.74C316.086 332.554 316.434 331.804 316.434 331.084C316.434 330.364 316.086 329.614 315.258 329.428C315.078 329.386 314.868 329.374 314.718 329.374H312.408V332.794ZM321.836 337.18C319.922 337.18 318.668 335.83 318.668 333.802C318.668 331.678 319.904 330.34 321.788 330.34C323.738 330.34 324.878 331.756 324.782 334.06H319.814C319.898 335.404 320.594 336.166 321.788 336.166C322.64 336.166 323.288 335.764 323.648 335.026L324.674 335.38C324.164 336.526 323.09 337.18 321.836 337.18ZM319.832 333.202H323.672C323.54 331.93 322.922 331.3 321.824 331.3C320.66 331.3 319.982 331.972 319.832 333.202ZM327.842 337.18C326.39 337.18 325.64 336.292 325.64 335.248C325.64 334.228 326.246 333.634 327.23 333.346C328.04 333.13 329.18 332.992 330.14 332.86C330.11 331.828 329.666 331.336 328.544 331.336C327.758 331.336 327.128 331.678 326.894 332.47L325.88 332.164C326.186 331.03 327.092 330.34 328.556 330.34C329.726 330.34 330.608 330.76 330.98 331.606C331.16 332.008 331.19 332.482 331.19 332.992V337H330.242V335.992C329.726 336.784 328.922 337.18 327.842 337.18ZM326.702 335.242C326.702 335.776 327.08 336.286 328.004 336.286C329.156 336.286 329.864 335.596 330.02 334.792C330.11 334.48 330.122 334.066 330.128 333.772C329.216 333.892 328.34 333.994 327.71 334.174C327.176 334.342 326.702 334.636 326.702 335.242ZM335.294 337.18C333.482 337.18 332.39 335.698 332.39 333.754C332.39 331.81 333.488 330.34 335.288 330.34C336.098 330.34 336.74 330.622 337.202 331.108V328.36H338.276V337H337.322V336.268C336.848 336.838 336.17 337.18 335.294 337.18ZM333.524 333.754C333.524 335.134 334.148 336.202 335.426 336.202C336.734 336.202 337.322 335.176 337.322 333.754C337.322 332.32 336.722 331.318 335.456 331.318C334.136 331.318 333.524 332.386 333.524 333.754ZM342.405 337.174C340.857 337.174 339.819 336.466 339.597 335.248L340.689 335.074C340.863 335.782 341.535 336.22 342.471 336.22C343.353 336.22 343.893 335.83 343.893 335.194C343.893 334.648 343.647 334.492 342.063 334.066C340.347 333.61 339.801 333.166 339.801 332.236C339.801 331.096 340.797 330.34 342.291 330.34C343.767 330.34 344.835 331.096 344.973 332.236L343.881 332.434C343.773 331.744 343.173 331.318 342.291 331.294C341.451 331.27 340.875 331.63 340.875 332.182C340.875 332.656 341.205 332.86 342.729 333.244C344.439 333.682 344.997 334.162 344.997 335.164C344.997 336.418 344.019 337.174 342.405 337.174ZM351.699 337.18C350.895 337.18 350.253 336.892 349.791 336.4V339.88H348.717V330.52H349.671V331.246C350.145 330.676 350.823 330.34 351.705 330.34C353.505 330.34 354.603 331.81 354.603 333.754C354.603 335.698 353.511 337.18 351.699 337.18ZM349.671 333.754C349.671 335.176 350.259 336.202 351.567 336.202C352.845 336.202 353.469 335.134 353.469 333.754C353.469 332.386 352.857 331.318 351.537 331.318C350.271 331.318 349.671 332.32 349.671 333.754ZM358.726 337.18C356.812 337.18 355.558 335.83 355.558 333.802C355.558 331.678 356.794 330.34 358.678 330.34C360.628 330.34 361.768 331.756 361.672 334.06H356.704C356.788 335.404 357.484 336.166 358.678 336.166C359.53 336.166 360.178 335.764 360.538 335.026L361.564 335.38C361.054 336.526 359.98 337.18 358.726 337.18ZM356.722 333.202H360.562C360.43 331.93 359.812 331.3 358.714 331.3C357.55 331.3 356.872 331.972 356.722 333.202ZM363.008 337V330.52H363.962V331.546C364.106 331.294 364.298 331.072 364.514 330.916C365.012 330.514 365.774 330.394 366.35 330.52V331.522C365.9 331.408 365.318 331.438 364.868 331.768C364.238 332.218 364.082 332.98 364.082 333.748V337H363.008ZM374.501 333.754C374.501 332.536 374.111 331.366 372.743 331.366C371.669 331.366 370.961 332.086 370.961 333.586V337H369.881V328.36H370.841V331.354C371.321 330.712 372.065 330.352 373.001 330.352C375.089 330.352 375.581 332.188 375.581 333.418V337H374.501V333.754ZM379.901 337.18C377.963 337.18 376.781 335.764 376.781 333.754C376.781 331.72 377.999 330.34 379.901 330.34C381.845 330.34 383.027 331.75 383.027 333.754C383.027 335.788 381.827 337.18 379.901 337.18ZM377.915 333.754C377.915 335.218 378.593 336.166 379.901 336.166C381.239 336.166 381.893 335.182 381.893 333.754C381.893 332.296 381.227 331.354 379.901 331.354C378.545 331.354 377.915 332.338 377.915 333.754ZM386.808 337.168C384.72 337.168 384.228 335.332 384.228 334.102V330.52H385.308V333.766C385.308 334.984 385.698 336.154 387.066 336.154C388.14 336.154 388.848 335.434 388.848 333.934V330.52H389.922V337H388.968V336.166C388.488 336.808 387.744 337.168 386.808 337.168ZM391.602 337V330.52H392.556V331.546C392.7 331.294 392.892 331.072 393.108 330.916C393.606 330.514 394.368 330.394 394.944 330.52V331.522C394.494 331.408 393.912 331.438 393.462 331.768C392.832 332.218 392.676 332.98 392.676 333.748V337H391.602Z" fill="white"/>
        <path d="M546.5 218.34H558.5V206.34H546.5V218.34ZM562.286 217.68C560.636 217.68 559.34 216.384 559.34 214.65V211.776C559.34 209.964 560.612 208.686 562.382 208.686C563.33 208.686 564.182 209.088 564.746 209.814L563.948 210.522C563.6 210.024 563.018 209.7 562.382 209.7C561.236 209.7 560.426 210.624 560.426 211.656V212.832C560.924 212.28 561.638 211.938 562.412 211.938C564.02 211.938 565.232 213.18 565.232 214.788C565.232 216.396 563.894 217.68 562.286 217.68ZM560.426 214.788C560.426 215.808 561.254 216.648 562.286 216.648C563.318 216.648 564.152 215.82 564.152 214.788C564.152 213.756 563.324 212.922 562.292 212.922C561.26 212.922 560.426 213.756 560.426 214.788ZM566.073 217.5L568.551 214.224L566.127 211.02H567.399L569.175 213.396L570.933 211.02H572.205L569.781 214.224L572.265 217.5H570.987L569.175 215.052L567.351 217.5H566.073ZM576.247 210.666C576.247 210.168 576.271 209.604 576.655 209.184C577.099 208.698 577.705 208.68 578.197 208.68H579.019V209.568H578.257C577.621 209.568 577.315 209.88 577.315 210.498V211.02H579.019V211.902H577.315V217.5H576.247V211.902H575.149V211.02H576.247V210.666ZM581.643 217.68C580.191 217.68 579.441 216.792 579.441 215.748C579.441 214.728 580.047 214.134 581.031 213.846C581.841 213.63 582.981 213.492 583.941 213.36C583.911 212.328 583.467 211.836 582.345 211.836C581.559 211.836 580.929 212.178 580.695 212.97L579.681 212.664C579.987 211.53 580.893 210.84 582.357 210.84C583.527 210.84 584.409 211.26 584.781 212.106C584.961 212.508 584.991 212.982 584.991 213.492V217.5H584.043V216.492C583.527 217.284 582.723 217.68 581.643 217.68ZM580.503 215.742C580.503 216.276 580.881 216.786 581.805 216.786C582.957 216.786 583.665 216.096 583.821 215.292C583.911 214.98 583.923 214.566 583.929 214.272C583.017 214.392 582.141 214.494 581.511 214.674C580.977 214.842 580.503 215.136 580.503 215.742ZM588.999 217.674C587.451 217.674 586.413 216.966 586.191 215.748L587.283 215.574C587.457 216.282 588.129 216.72 589.065 216.72C589.947 216.72 590.487 216.33 590.487 215.694C590.487 215.148 590.241 214.992 588.657 214.566C586.941 214.11 586.395 213.666 586.395 212.736C586.395 211.596 587.391 210.84 588.885 210.84C590.361 210.84 591.429 211.596 591.567 212.736L590.475 212.934C590.367 212.244 589.767 211.818 588.885 211.794C588.045 211.77 587.469 212.13 587.469 212.682C587.469 213.156 587.799 213.36 589.323 213.744C591.033 214.182 591.591 214.662 591.591 215.664C591.591 216.918 590.613 217.674 588.999 217.674ZM596.532 217.5C595.374 217.734 594.18 217.602 593.73 216.72C593.472 216.216 593.508 215.724 593.508 215.052V211.902H592.194V211.02H593.508V209.22H594.576V211.02H596.532V211.902H594.576V215.004C594.576 215.538 594.552 215.898 594.708 216.168C594.996 216.684 595.644 216.72 596.532 216.582V217.5ZM600.386 217.68C598.472 217.68 597.218 216.33 597.218 214.302C597.218 212.178 598.454 210.84 600.338 210.84C602.288 210.84 603.428 212.256 603.332 214.56H598.364C598.448 215.904 599.144 216.666 600.338 216.666C601.19 216.666 601.838 216.264 602.198 215.526L603.224 215.88C602.714 217.026 601.64 217.68 600.386 217.68ZM598.382 213.702H602.222C602.09 212.43 601.472 211.8 600.374 211.8C599.21 211.8 598.532 212.472 598.382 213.702ZM604.668 217.5V211.02H605.622V212.046C605.766 211.794 605.958 211.572 606.174 211.416C606.672 211.014 607.434 210.894 608.01 211.02V212.022C607.56 211.908 606.978 211.938 606.528 212.268C605.898 212.718 605.742 213.48 605.742 214.248V217.5H604.668Z" fill="white"/>
        <rect x="444.625" y="13.625" width="12.75" height="12.75" rx="1.875" fill="url(#paint3_linear_14947_9486)" stroke="white" stroke-width="0.75"/>
        <path d="M463.735 24.5V16.94H464.586L467.442 22.9617L470.282 16.94H471.143V24.4947H470.256V18.9927L467.688 24.5H467.19L464.622 18.9927V24.5H463.735ZM472.72 17.8272V16.8612H473.654V17.8272H472.72ZM472.72 24.5V18.83H473.654V24.5H472.72ZM474.6 24.5L477.198 20.6727L474.668 16.94H475.807L477.765 19.8852L479.718 16.94H480.863L478.332 20.6727L480.926 24.5H479.787L477.765 21.4655L475.744 24.5H474.6ZM484.551 24.6575C482.289 24.6575 481.023 23.051 481.023 20.72C481.023 18.389 482.289 16.7825 484.551 16.7825C486.3 16.7825 487.449 17.7432 487.88 19.2447L486.93 19.4967C486.62 18.3732 485.827 17.675 484.551 17.675C482.861 17.675 482.021 18.9087 482.01 20.72C482 22.5312 482.861 23.765 484.551 23.765C485.827 23.765 486.62 23.0667 486.93 21.9432L487.88 22.1952C487.449 23.6967 486.3 24.6575 484.551 24.6575ZM489.031 24.5V16.94H492.019C492.166 16.94 492.381 16.9505 492.575 16.982C493.798 17.171 494.444 18.1212 494.444 19.3235C494.444 20.321 493.998 21.1452 493.142 21.5022L494.602 24.5H493.531L492.176 21.707H489.966V24.5H489.031ZM489.966 20.8197H491.987C492.118 20.8197 492.302 20.8092 492.46 20.7725C493.184 20.6097 493.489 19.9535 493.489 19.3235C493.489 18.6935 493.184 18.0372 492.46 17.8745C492.302 17.8377 492.118 17.8272 491.987 17.8272H489.966V20.8197Z" fill="white"/>
        <rect x="504.625" y="13.625" width="12.75" height="12.75" rx="1.875" fill="#929BAD" stroke="white" stroke-width="0.75"/>
        <path d="M525.683 24.5V17.8272H523.105V16.94H529.195V17.8272H526.617V24.5H525.683ZM530.031 24.5V16.94H533.018C533.165 16.94 533.38 16.9505 533.575 16.982C534.798 17.171 535.444 18.1212 535.444 19.3235C535.444 20.321 534.997 21.1452 534.142 21.5022L535.601 24.5H534.53L533.176 21.707H530.965V24.5H530.031ZM530.965 20.8197H532.987C533.118 20.8197 533.302 20.8092 533.459 20.7725C534.184 20.6097 534.488 19.9535 534.488 19.3235C534.488 18.6935 534.184 18.0372 533.459 17.8745C533.302 17.8377 533.118 17.8272 532.987 17.8272H530.965V20.8197ZM539.739 24.6575C537.986 24.6575 536.757 23.5077 536.757 21.7437V16.9452L537.702 16.94V21.665C537.702 23.0982 538.784 23.7755 539.739 23.7755C540.705 23.7755 541.776 23.0877 541.776 21.665V16.94H542.721V21.7437C542.721 23.5025 541.493 24.6575 539.739 24.6575ZM546.556 24.6575C544.95 24.6575 543.758 23.7965 543.506 22.4052L544.472 22.253C544.714 23.2085 545.548 23.7702 546.604 23.7702C547.617 23.7702 548.42 23.2662 548.42 22.442C548.42 21.7805 547.906 21.497 547.365 21.3342L545.438 20.762C544.598 20.5152 543.8 20.027 543.8 18.9087C543.8 17.57 544.939 16.7825 546.446 16.7877C547.969 16.7982 549.061 17.6225 549.339 18.998L548.347 19.1712C548.189 18.2525 547.396 17.6855 546.436 17.675C545.506 17.6645 544.787 18.1685 544.787 18.8667C544.787 19.565 545.485 19.8065 546.047 19.964L547.486 20.3787C548.142 20.5625 549.386 20.9352 549.386 22.3895C549.386 23.8542 548.126 24.6575 546.556 24.6575ZM552.435 24.5V17.8272H549.857V16.94H555.947V17.8272H553.37V24.5H552.435ZM559.844 24.5V23.1087H556.368V22.2215L558.862 16.94H559.923L557.429 22.2215H559.844V20.0952H560.789V22.2215H561.576V23.1087H560.789V24.5H559.844Z" fill="white"/>
        <rect x="571.625" y="13.625" width="12.75" height="12.75" rx="1.875" fill="#D3D7E0" stroke="white" stroke-width="0.75"/>
        <path d="M590.84 24.5V16.94H591.775V24.5H590.84ZM600.133 20.8722C600.133 20.027 599.629 19.5177 598.915 19.5177C598.279 19.5177 597.676 19.943 597.676 20.8985L597.67 24.5H596.741L596.746 20.909C596.746 20.048 596.258 19.5177 595.518 19.5177C594.778 19.5177 594.284 20.069 594.284 20.8985V24.5H593.344V18.83H594.179V19.4337C594.536 18.9717 595.114 18.683 595.791 18.683C596.557 18.683 597.14 19.0242 597.445 19.6175C597.781 19.0347 598.416 18.683 599.161 18.683C600.343 18.683 601.067 19.46 601.067 20.6675L601.062 24.5H600.127L600.133 20.8722ZM609.218 20.8722C609.218 20.027 608.714 19.5177 608 19.5177C607.364 19.5177 606.761 19.943 606.761 20.8985L606.755 24.5H605.826L605.831 20.909C605.831 20.048 605.343 19.5177 604.603 19.5177C603.863 19.5177 603.369 20.069 603.369 20.8985V24.5H602.429V18.83H603.264V19.4337C603.621 18.9717 604.199 18.683 604.876 18.683C605.642 18.683 606.225 19.0242 606.53 19.6175C606.866 19.0347 607.501 18.683 608.246 18.683C609.428 18.683 610.152 19.46 610.152 20.6675L610.147 24.5H609.212L609.218 20.8722ZM613.857 24.6575C612.13 24.6575 611.169 23.4027 611.153 21.665C611.169 19.8957 612.161 18.6725 613.868 18.6725C615.059 18.6725 615.983 19.3025 616.283 20.321L615.359 20.5992C615.117 19.943 614.545 19.5597 613.857 19.5597C612.692 19.5597 612.156 20.4365 612.146 21.665C612.156 22.9302 612.728 23.7702 613.857 23.7702C614.592 23.7702 615.08 23.4237 615.338 22.778L616.283 23.0247C615.884 24.0852 615.028 24.6575 613.857 24.6575ZM618.915 24.6575C617.644 24.6575 616.988 23.8805 616.988 22.967C616.988 22.0745 617.518 21.5547 618.379 21.3027C619.088 21.1137 620.085 20.993 620.925 20.8775C620.899 19.9745 620.511 19.544 619.529 19.544C618.841 19.544 618.29 19.8432 618.085 20.5362L617.198 20.2685C617.466 19.2762 618.258 18.6725 619.539 18.6725C620.563 18.6725 621.335 19.04 621.66 19.7802C621.818 20.132 621.844 20.5467 621.844 20.993V24.5H621.015V23.618C620.563 24.311 619.86 24.6575 618.915 24.6575ZM617.917 22.9617C617.917 23.429 618.248 23.8752 619.056 23.8752C620.064 23.8752 620.684 23.2715 620.82 22.568C620.899 22.295 620.91 21.9327 620.915 21.6755C620.117 21.7805 619.35 21.8697 618.799 22.0272C618.332 22.1742 617.917 22.4315 617.917 22.9617ZM627.246 21.6597C627.246 20.594 626.905 19.5702 625.708 19.5702C624.768 19.5702 624.149 20.2002 624.149 21.5127V24.5H623.204V18.83H624.044V19.5597C624.464 18.998 625.115 18.683 625.934 18.683C627.761 18.683 628.191 20.2895 628.191 21.3657V24.5H627.246V21.6597ZM632.722 24.5C631.709 24.7048 630.664 24.5893 630.27 23.8175C630.045 23.3765 630.076 22.946 630.076 22.358V19.6017H628.926V18.83H630.076V17.255H631.011V18.83H632.722V19.6017H631.011V22.316C631.011 22.7832 630.99 23.0982 631.126 23.3345C631.378 23.786 631.945 23.8175 632.722 23.6967V24.5ZM635.485 24.6575C634.214 24.6575 633.558 23.8805 633.558 22.967C633.558 22.0745 634.088 21.5547 634.949 21.3027C635.658 21.1137 636.656 20.993 637.496 20.8775C637.469 19.9745 637.081 19.544 636.099 19.544C635.411 19.544 634.86 19.8432 634.655 20.5362L633.768 20.2685C634.036 19.2762 634.829 18.6725 636.11 18.6725C637.133 18.6725 637.905 19.04 638.231 19.7802C638.388 20.132 638.414 20.5467 638.414 20.993V24.5H637.585V23.618C637.133 24.311 636.43 24.6575 635.485 24.6575ZM634.487 22.9617C634.487 23.429 634.818 23.8752 635.627 23.8752C636.635 23.8752 637.254 23.2715 637.391 22.568C637.469 22.295 637.48 21.9327 637.485 21.6755C636.687 21.7805 635.921 21.8697 635.369 22.0272C634.902 22.1742 634.487 22.4315 634.487 22.9617ZM642.945 24.5C641.932 24.7048 640.887 24.5893 640.493 23.8175C640.268 23.3765 640.299 22.946 640.299 22.358V19.6017H639.149V18.83H640.299V17.255H641.234V18.83H642.945V19.6017H641.234V22.316C641.234 22.7832 641.213 23.0982 641.349 23.3345C641.601 23.786 642.168 23.8175 642.945 23.6967V24.5ZM644.201 17.8272V16.8612H645.136V17.8272H644.201ZM644.201 24.5V18.83H645.136V24.5H644.201ZM649.126 24.6575C647.43 24.6575 646.396 23.4185 646.396 21.6597C646.396 19.88 647.462 18.6725 649.126 18.6725C650.827 18.6725 651.861 19.9062 651.861 21.6597C651.861 23.4395 650.811 24.6575 649.126 24.6575ZM647.388 21.6597C647.388 22.9407 647.982 23.7702 649.126 23.7702C650.297 23.7702 650.869 22.9092 650.869 21.6597C650.869 20.384 650.286 19.5597 649.126 19.5597C647.94 19.5597 647.388 20.4207 647.388 21.6597ZM657.054 21.6597C657.054 20.594 656.713 19.5702 655.516 19.5702C654.576 19.5702 653.957 20.2002 653.957 21.5127V24.5H653.012V18.83H653.852V19.5597C654.272 18.998 654.923 18.683 655.742 18.683C657.569 18.683 657.999 20.2895 657.999 21.3657V24.5H657.054V21.6597Z" fill="white"/>
    </g>
    <defs>
        <linearGradient id="paint0_linear_14947_9486" x1="255.274" y1="51" x2="255.274" y2="246.274" gradientUnits="userSpaceOnUse">
            <stop stop-color="#18CC18"/>
            <stop offset="1" stop-color="#A6F558"/>
        </linearGradient>
        <linearGradient id="paint1_linear_14947_9486" x1="553.298" y1="138" x2="553.298" y2="631.298" gradientUnits="userSpaceOnUse">
            <stop stop-color="#18CC18"/>
            <stop offset="1" stop-color="#A6F558"/>
        </linearGradient>
        <linearGradient id="paint2_linear_14947_9486" x1="620.5" y1="225" x2="620.5" y2="785.5" gradientUnits="userSpaceOnUse">
            <stop stop-color="#18CC18"/>
            <stop offset="1" stop-color="#A6F558"/>
        </linearGradient>
        <linearGradient id="paint3_linear_14947_9486" x1="451" y1="13.25" x2="451" y2="26.75" gradientUnits="userSpaceOnUse">
            <stop stop-color="#18CC18"/>
            <stop offset="1" stop-color="#A6F558"/>
        </linearGradient>
        <clipPath id="clip0_14947_9486">
            <rect width="678" height="350" fill="white"/>
        </clipPath>
    </defs>
</svg>
