<svg width="995" height="380" viewBox="0 0 995 380" fill="none" xmlns="http://www.w3.org/2000/svg">
    <g clip-path="url(#clip0_14947_8150)">
        <rect width="995" height="380" fill="white"/>
        <path d="M12 280.371L4.44 280.371L4.44 275.961L5.3745 275.961L5.3745 279.437L7.75275 279.437L7.75275 276.591L8.68725 276.591L8.68725 279.437L12 279.437L12 280.371ZM12 275.019L6.33 275.019L6.33 274.184L7.22775 274.184C7.00725 274.058 6.813 273.89 6.6765 273.701C6.32475 273.265 6.21975 272.598 6.33 272.094L7.20675 272.094C7.107 272.488 7.13325 272.997 7.422 273.391C7.81575 273.942 8.4825 274.079 9.1545 274.079L12 274.079L12 275.019ZM12.1575 269.674C12.1575 270.945 11.3805 271.601 10.467 271.601C9.5745 271.601 9.05475 271.071 8.80275 270.21C8.61375 269.501 8.493 268.504 8.3775 267.664C7.4745 267.69 7.044 268.078 7.044 269.06C7.044 269.748 7.34325 270.299 8.03625 270.504L7.7685 271.391C6.77625 271.123 6.1725 270.331 6.1725 269.05C6.1725 268.026 6.54 267.254 7.28025 266.929C7.632 266.771 8.04675 266.745 8.493 266.745L12 266.745L12 267.574L11.118 267.574C11.811 268.026 12.1575 268.729 12.1575 269.674ZM10.4617 270.672C10.929 270.672 11.3752 270.341 11.3752 269.533C11.3752 268.525 10.7715 267.905 10.068 267.769C9.795 267.69 9.43275 267.679 9.1755 267.674C9.2805 268.472 9.36975 269.239 9.52725 269.79C9.67425 270.257 9.9315 270.672 10.4617 270.672ZM12.1575 262.991C12.1575 264.718 10.9027 265.679 9.165 265.695C7.39575 265.679 6.1725 264.687 6.1725 262.981C6.1725 261.789 6.8025 260.865 7.821 260.566L8.09925 261.49C7.443 261.731 7.05975 262.303 7.05975 262.991C7.05975 264.157 7.9365 264.692 9.165 264.703C10.4302 264.692 11.2702 264.12 11.2702 262.991C11.2702 262.256 10.9237 261.768 10.278 261.511L10.5247 260.566C11.5852 260.965 12.1575 261.82 12.1575 262.991ZM12 256.328C12.2047 257.342 12.0892 258.386 11.3175 258.78C10.8765 259.006 10.446 258.974 9.858 258.974L7.10175 258.974L7.10175 260.124L6.33 260.124L6.33 258.974L4.755 258.974L4.755 258.04L6.33 258.04L6.33 256.328L7.10175 256.328L7.10175 258.04L9.816 258.04C10.2832 258.04 10.5982 258.061 10.8345 257.924C11.286 257.672 11.3175 257.105 11.1967 256.328L12 256.328ZM5.32725 255.072L4.36125 255.072L4.36125 254.138L5.32725 254.138L5.32725 255.072ZM12 255.072L6.33 255.072L6.33 254.138L12 254.138L12 255.072ZM12.1575 250.148C12.1575 251.843 10.9185 252.878 9.15975 252.878C7.38 252.878 6.1725 251.812 6.1725 250.148C6.1725 248.447 7.40625 247.412 9.15975 247.412C10.9395 247.412 12.1575 248.462 12.1575 250.148ZM9.15975 251.885C10.4407 251.885 11.2702 251.292 11.2702 250.148C11.2702 248.977 10.4092 248.405 9.15975 248.405C7.884 248.405 7.05975 248.987 7.05975 250.148C7.05975 251.334 7.92075 251.885 9.15975 251.885ZM9.15975 242.219C8.094 242.219 7.07025 242.56 7.07025 243.757C7.07025 244.697 7.70025 245.317 9.01275 245.317L12 245.317L12 246.262L6.33 246.262L6.33 245.422L7.05975 245.422C6.498 245.002 6.183 244.351 6.183 243.532C6.183 241.705 7.7895 241.274 8.86575 241.274L12 241.274L12 242.219L9.15975 242.219ZM12.1575 235.392C12.1575 237.088 10.9185 238.122 9.15975 238.122C7.38 238.122 6.1725 237.056 6.1725 235.392C6.1725 233.691 7.40625 232.657 9.15975 232.657C10.9395 232.657 12.1575 233.707 12.1575 235.392ZM9.15975 237.13C10.4407 237.13 11.2702 236.537 11.2702 235.392C11.2702 234.221 10.4092 233.649 9.15975 233.649C7.884 233.649 7.05975 234.232 7.05975 235.392C7.05975 236.579 7.92075 237.13 9.15975 237.13ZM6.02025 230.96C5.5845 230.96 5.091 230.939 4.7235 230.603C4.29825 230.215 4.2825 229.685 4.2825 229.254L4.2825 228.535L5.0595 228.535L5.0595 229.202C5.0595 229.758 5.3325 230.026 5.87325 230.026L6.33 230.026L6.33 228.535L7.10175 228.535L7.10175 230.026L12 230.026L12 230.96L7.10175 230.96L7.10175 231.921L6.33 231.921L6.33 230.96L6.02025 230.96ZM12.1575 223.138C12.1575 224.813 10.9762 225.91 9.20175 225.91C7.34325 225.91 6.1725 224.828 6.1725 223.18C6.1725 221.474 7.4115 220.476 9.4275 220.56L9.4275 224.907C10.6035 224.834 11.2702 224.225 11.2702 223.18C11.2702 222.434 10.9185 221.867 10.2727 221.552L10.5825 220.655C11.5852 221.101 12.1575 222.041 12.1575 223.138ZM8.67675 224.891L8.67675 221.531C7.56375 221.647 7.0125 222.188 7.0125 223.148C7.0125 224.167 7.6005 224.76 8.67675 224.891ZM12 220.226L9.1335 218.058L6.33 220.179L6.33 219.066L8.409 217.512L6.33 215.974L6.33 214.861L9.1335 216.982L12 214.808L12 215.927L9.858 217.512L12 219.108L12 220.226ZM12 210.801C12.2047 211.814 12.0892 212.859 11.3175 213.253C10.8765 213.479 10.446 213.447 9.858 213.447L7.10175 213.447L7.10175 214.597L6.33 214.597L6.33 213.447L4.755 213.447L4.755 212.513L6.33 212.513L6.33 210.801L7.10175 210.801L7.10175 212.513L9.816 212.513C10.2832 212.513 10.5982 212.534 10.8345 212.397C11.286 212.145 11.3175 211.578 11.1967 210.801L12 210.801ZM12 209.65L6.33 209.65L6.33 208.815L7.22775 208.815C7.00725 208.689 6.813 208.521 6.6765 208.332C6.32475 207.897 6.21975 207.23 6.33 206.726L7.20675 206.726C7.107 207.12 7.13325 207.629 7.422 208.023C7.81575 208.574 8.4825 208.71 9.1545 208.71L12 208.71L12 209.65ZM12.1575 204.306C12.1575 205.576 11.3805 206.233 10.467 206.233C9.5745 206.233 9.05475 205.702 8.80275 204.841C8.61375 204.133 8.493 203.135 8.3775 202.295C7.4745 202.321 7.044 202.71 7.044 203.692C7.044 204.379 7.34325 204.931 8.03625 205.135L7.7685 206.023C6.77625 205.755 6.1725 204.962 6.1725 203.681C6.1725 202.657 6.54 201.886 7.28025 201.56C7.632 201.403 8.04675 201.376 8.493 201.376L12 201.376L12 202.206L11.118 202.206C11.811 202.657 12.1575 203.361 12.1575 204.306ZM10.4617 205.303C10.929 205.303 11.3752 204.973 11.3752 204.164C11.3752 203.156 10.7715 202.537 10.068 202.4C9.795 202.321 9.43275 202.311 9.1755 202.306C9.2805 203.104 9.36975 203.87 9.52725 204.421C9.67425 204.889 9.9315 205.303 10.4617 205.303ZM12.1575 197.623C12.1575 199.35 10.9027 200.311 9.165 200.326C7.39575 200.311 6.1725 199.318 6.1725 197.612C6.1725 196.42 6.8025 195.496 7.821 195.197L8.09925 196.121C7.443 196.363 7.05975 196.935 7.05975 197.623C7.05975 198.788 7.9365 199.324 9.165 199.334C10.4302 199.324 11.2702 198.751 11.2702 197.623C11.2702 196.888 10.9237 196.399 10.278 196.142L10.5247 195.197C11.5852 195.596 12.1575 196.452 12.1575 197.623ZM12 190.96C12.2047 191.973 12.0892 193.018 11.3175 193.412C10.8765 193.637 10.446 193.606 9.858 193.606L7.10175 193.606L7.10175 194.756L6.33 194.756L6.33 193.606L4.75499 193.606L4.75499 192.671L6.33 192.671L6.33 190.96L7.10175 190.96L7.10175 192.671L9.816 192.671C10.2832 192.671 10.5982 192.692 10.8345 192.556C11.286 192.304 11.3175 191.737 11.1967 190.96L12 190.96ZM12.1575 187.588C12.1575 189.262 10.9762 190.36 9.20175 190.36C7.34325 190.36 6.1725 189.278 6.1725 187.63C6.1725 185.923 7.4115 184.926 9.4275 185.01L9.4275 189.357C10.6035 189.283 11.2702 188.674 11.2702 187.63C11.2702 186.884 10.9185 186.317 10.2727 186.002L10.5825 185.104C11.5852 185.551 12.1575 186.49 12.1575 187.588ZM8.67675 189.341L8.67675 185.981C7.56374 186.097 7.01249 186.637 7.01249 187.598C7.0125 188.617 7.60049 189.21 8.67675 189.341ZM12.1575 181.615C12.1575 183.2 10.8607 184.156 9.15974 184.156C7.45874 184.156 6.17249 183.195 6.17249 181.62C6.17249 180.911 6.41924 180.35 6.84449 179.945L4.43999 179.945L4.43999 179.006L12 179.006L12 179.84L11.3595 179.84C11.8582 180.255 12.1575 180.848 12.1575 181.615ZM9.15974 183.164C10.3672 183.164 11.3017 182.618 11.3017 181.499C11.3017 180.355 10.404 179.84 9.15974 179.84C7.90499 179.84 7.02824 180.365 7.02824 181.473C7.02824 182.628 7.96274 183.164 9.15974 183.164ZM12.1522 173.291C12.1522 174.645 11.5327 175.553 10.467 175.748L10.3147 174.792C10.9342 174.64 11.3175 174.052 11.3175 173.233C11.3175 172.461 10.9762 171.989 10.4197 171.989C9.94199 171.989 9.80549 172.204 9.43274 173.59C9.03374 175.091 8.64524 175.569 7.83149 175.569C6.83399 175.569 6.17249 174.698 6.17249 173.39C6.17249 172.099 6.83399 171.164 7.83149 171.044L8.00474 171.999C7.40099 172.094 7.02824 172.619 7.00724 173.39C6.98624 174.125 7.30124 174.629 7.78424 174.629C8.19899 174.629 8.37749 174.341 8.71349 173.007C9.09674 171.511 9.51674 171.023 10.3935 171.023C11.4907 171.023 12.1522 171.878 12.1522 173.291ZM12.1575 167.408C12.1575 169.083 10.9762 170.18 9.20174 170.18C7.34324 170.18 6.17249 169.098 6.17249 167.45C6.17249 165.744 7.41149 164.746 9.42749 164.83L9.42749 169.177C10.6035 169.104 11.2702 168.495 11.2702 167.45C11.2702 166.704 10.9185 166.137 10.2727 165.822L10.5825 164.925C11.5852 165.371 12.1575 166.311 12.1575 167.408ZM8.67674 169.161L8.67674 165.801C7.56374 165.917 7.01249 166.458 7.01249 167.418C7.01249 168.437 7.60049 169.03 8.67674 169.161ZM12.1575 161.435C12.1575 163.021 10.8607 163.976 9.15974 163.976C7.45874 163.976 6.17249 163.015 6.17249 161.44C6.17249 160.669 6.46649 160.075 6.96524 159.661L6.32999 159.661L6.32999 158.826L14.52 158.826L14.52 159.766L11.475 159.766C11.9055 160.17 12.1575 160.732 12.1575 161.435ZM9.15974 162.984C10.3672 162.984 11.3017 162.438 11.3017 161.32C11.3017 160.175 10.404 159.661 9.15974 159.661C7.90499 159.661 7.02824 160.186 7.02824 161.293C7.02824 162.448 7.96274 162.984 9.15974 162.984ZM12.147 155.203C12.147 157.03 10.5405 157.46 9.46424 157.46L6.32999 157.46L6.32999 156.515L9.17024 156.515C10.236 156.515 11.2597 156.174 11.2597 154.977C11.2597 154.037 10.6297 153.418 9.31724 153.418L6.32999 153.418L6.32999 152.478L12 152.478L12 153.313L11.2702 153.313C11.832 153.733 12.147 154.384 12.147 155.203ZM12.1575 148.551C12.1575 150.226 10.9762 151.323 9.20174 151.323C7.34324 151.323 6.17249 150.241 6.17249 148.593C6.17249 146.887 7.41149 145.889 9.42749 145.973L9.42749 150.32C10.6035 150.247 11.2702 149.638 11.2702 148.593C11.2702 147.847 10.9185 147.28 10.2727 146.965L10.5825 146.068C11.5852 146.514 12.1575 147.454 12.1575 148.551ZM8.67674 150.304L8.67674 146.944C7.56374 147.06 7.01249 147.601 7.01249 148.561C7.01249 149.58 7.60049 150.173 8.67674 150.304ZM9.15974 140.921C8.09399 140.921 7.07024 141.262 7.07024 142.459C7.07024 143.399 7.70024 144.018 9.01274 144.018L12 144.018L12 144.963L6.32999 144.963L6.32999 144.123L7.05974 144.123C6.49799 143.703 6.18299 143.052 6.18299 142.233C6.18299 140.406 7.78949 139.976 8.86574 139.976L12 139.976L12 140.921L9.15974 140.921ZM12.1575 136.273C12.1575 138.001 10.9027 138.961 9.16499 138.977C7.39574 138.961 6.17249 137.969 6.17249 136.263C6.17249 135.071 6.80249 134.147 7.82099 133.848L8.09924 134.772C7.44299 135.013 7.05974 135.586 7.05974 136.273C7.05974 137.439 7.93649 137.974 9.16499 137.985C10.4302 137.974 11.2702 137.402 11.2702 136.273C11.2702 135.538 10.9237 135.05 10.278 134.793L10.5247 133.848C11.5852 134.247 12.1575 135.103 12.1575 136.273ZM12.1575 130.473C12.1575 132.148 10.9762 133.245 9.20174 133.245C7.34324 133.245 6.17249 132.164 6.17249 130.515C6.17249 128.809 7.41149 127.812 9.42749 127.896L9.42749 132.243C10.6035 132.169 11.2702 131.56 11.2702 130.515C11.2702 129.77 10.9185 129.203 10.2727 128.888L10.5825 127.99C11.5852 128.436 12.1575 129.376 12.1575 130.473ZM8.67674 132.227L8.67674 128.867C7.56374 128.982 7.01249 129.523 7.01249 130.484C7.01249 131.502 7.60049 132.096 8.67674 132.227ZM12.1522 124.585C12.1522 125.939 11.5327 126.847 10.467 127.042L10.3147 126.086C10.9342 125.934 11.3175 125.346 11.3175 124.527C11.3175 123.755 10.9762 123.283 10.4197 123.283C9.94199 123.283 9.80549 123.498 9.43274 124.884C9.03374 126.385 8.64524 126.863 7.83149 126.863C6.83399 126.863 6.17249 125.992 6.17249 124.684C6.17249 123.393 6.83399 122.458 7.83149 122.338L8.00474 123.293C7.40099 123.388 7.02824 123.913 7.00724 124.684C6.98624 125.419 7.30124 125.923 7.78424 125.923C8.19899 125.923 8.37749 125.635 8.71349 124.301C9.09674 122.805 9.51674 122.317 10.3935 122.317C11.4907 122.317 12.1522 123.172 12.1522 124.585Z" fill="#110529"/>
        <path d="M50.5 72V71.625H50.125V72H50.5ZM350.5 72H350.875V71.625H350.5V72ZM350.5 332V332.375H350.875V332H350.5ZM50.5 332H50.125V332.375H50.5V332ZM50.5 72.375H350.5V71.625H50.5V72.375ZM350.125 72V332H350.875V72H350.125ZM350.5 331.625H50.5V332.375H350.5V331.625ZM50.875 332V72H50.125V332H50.875Z" fill="#E1E3EB"/>
        <path d="M27.4819 104.501V97.975L26.0592 98.836V97.7912L27.4819 96.9407H28.4322V104.501H27.4819ZM30.1774 104.501V103.472H31.2064V104.501H30.1774ZM35.391 104.658C33.921 104.658 32.8395 103.577 32.8395 102.107V99.3347C32.8395 97.8647 33.921 96.7832 35.391 96.7832C36.861 96.7832 37.9425 97.8647 37.9425 99.3347V102.107C37.9425 103.577 36.861 104.658 35.391 104.658ZM33.7897 102.159C33.7897 103.046 34.5037 103.76 35.391 103.76C36.2782 103.76 36.9922 103.046 36.9922 102.159V99.277C36.9922 98.3897 36.2782 97.6757 35.391 97.6757C34.5037 97.6757 33.7897 98.3897 33.7897 99.277V102.159ZM41.9637 104.658C40.4937 104.658 39.4122 103.577 39.4122 102.107V99.3347C39.4122 97.8647 40.4937 96.7832 41.9637 96.7832C43.4337 96.7832 44.5152 97.8647 44.5152 99.3347V102.107C44.5152 103.577 43.4337 104.658 41.9637 104.658ZM40.3625 102.159C40.3625 103.046 41.0765 103.76 41.9637 103.76C42.851 103.76 43.565 103.046 43.565 102.159V99.277C43.565 98.3897 42.851 97.6757 41.9637 97.6757C41.0765 97.6757 40.3625 98.3897 40.3625 99.277V102.159Z" fill="#110529"/>
        <path d="M350.5 100.001H50.5" stroke="#E1E3EB" stroke-width="0.75"/>
        <path d="M26.4086 151.158C24.9386 151.158 23.8571 150.076 23.8571 148.606V145.834C23.8571 144.364 24.9386 143.282 26.4086 143.282C27.8786 143.282 28.9601 144.364 28.9601 145.834V148.606C28.9601 150.076 27.8786 151.158 26.4086 151.158ZM24.8073 148.658C24.8073 149.546 25.5213 150.26 26.4086 150.26C27.2958 150.26 28.0098 149.546 28.0098 148.658V145.776C28.0098 144.889 27.2958 144.175 26.4086 144.175C25.5213 144.175 24.8073 144.889 24.8073 145.776V148.658ZM30.5978 151V149.971H31.6268V151H30.5978ZM35.7327 143.288C37.1764 143.288 38.3104 144.422 38.3104 145.939V148.454C38.3104 150.039 37.1974 151.158 35.6487 151.158C34.8192 151.158 34.0737 150.806 33.5802 150.17L34.2784 149.551C34.5829 149.987 35.0922 150.27 35.6487 150.27C36.6514 150.27 37.3602 149.462 37.3602 148.559V147.53C36.9244 148.013 36.2997 148.312 35.6224 148.312C34.2154 148.312 33.1549 147.225 33.1549 145.818C33.1549 144.411 34.3257 143.288 35.7327 143.288ZM34.0999 145.818C34.0999 146.721 34.8244 147.451 35.7274 147.451C36.6304 147.451 37.3602 146.721 37.3602 145.818C37.3602 144.926 36.6357 144.191 35.7327 144.191C34.8297 144.191 34.0999 144.915 34.0999 145.818ZM42.1439 151.158C40.6949 151.158 39.6764 150.228 39.6764 148.842C39.6764 148.055 40.0019 147.372 40.6634 146.947C40.1384 146.579 39.8601 146.002 39.8601 145.351C39.8601 144.075 40.8104 143.282 42.1439 143.282C43.4774 143.282 44.4276 144.075 44.4276 145.351C44.4276 146.007 44.1651 146.579 43.6296 146.952C44.2859 147.367 44.6219 148.055 44.6219 148.842C44.6219 150.228 43.5929 151.158 42.1439 151.158ZM40.6634 148.842C40.6634 149.766 41.2619 150.265 42.1439 150.265C43.0259 150.265 43.6296 149.766 43.6296 148.842C43.6296 147.913 43.0364 147.414 42.1439 147.414C41.2514 147.414 40.6634 147.913 40.6634 148.842ZM40.8524 145.351C40.8524 146.128 41.3774 146.516 42.1439 146.516C42.9104 146.516 43.4354 146.128 43.4354 145.351C43.4354 144.574 42.9104 144.185 42.1439 144.185C41.3774 144.185 40.8524 144.574 40.8524 145.351Z" fill="#110529"/>
        <path d="M350.5 146.501H50.5" stroke="#E1E3EB" stroke-width="0.75"/>
        <path d="M26.0907 197.658C24.6207 197.658 23.5392 196.576 23.5392 195.106V192.334C23.5392 190.864 24.6207 189.782 26.0907 189.782C27.5607 189.782 28.6422 190.864 28.6422 192.334V195.106C28.6422 196.576 27.5607 197.658 26.0907 197.658ZM24.4894 195.158C24.4894 196.046 25.2034 196.76 26.0907 196.76C26.9779 196.76 27.6919 196.046 27.6919 195.158V192.276C27.6919 191.389 26.9779 190.675 26.0907 190.675C25.2034 190.675 24.4894 191.389 24.4894 192.276V195.158ZM30.28 197.5V196.471H31.309V197.5H30.28ZM35.4148 189.788C36.8585 189.788 37.9925 190.922 37.9925 192.439V194.954C37.9925 196.539 36.8795 197.658 35.3308 197.658C34.5013 197.658 33.7558 197.306 33.2623 196.67L33.9605 196.051C34.265 196.487 34.7743 196.77 35.3308 196.77C36.3335 196.77 37.0423 195.962 37.0423 195.059V194.03C36.6065 194.513 35.9818 194.812 35.3045 194.812C33.8975 194.812 32.837 193.725 32.837 192.318C32.837 190.911 34.0078 189.788 35.4148 189.788ZM33.782 192.318C33.782 193.221 34.5065 193.951 35.4095 193.951C36.3125 193.951 37.0423 193.221 37.0423 192.318C37.0423 191.426 36.3178 190.691 35.4148 190.691C34.5118 190.691 33.782 191.415 33.782 192.318ZM42.0413 197.658C40.5975 197.658 39.4635 196.523 39.4635 195.006V192.491C39.4635 190.906 40.5765 189.788 42.1253 189.788C42.9548 189.788 43.7003 190.139 44.1938 190.775L43.4955 191.394C43.191 190.958 42.6818 190.675 42.1253 190.675C41.1225 190.675 40.4138 191.483 40.4138 192.386V193.415C40.8495 192.932 41.4743 192.633 42.1515 192.633C43.5585 192.633 44.619 193.72 44.619 195.127C44.619 196.534 43.4483 197.658 42.0413 197.658ZM40.4138 195.127C40.4138 196.019 41.1383 196.754 42.0413 196.754C42.9443 196.754 43.674 196.03 43.674 195.127C43.674 194.224 42.9495 193.494 42.0465 193.494C41.1435 193.494 40.4138 194.224 40.4138 195.127Z" fill="#110529"/>
        <path d="M350.5 193.001H50.5" stroke="#E1E3EB" stroke-width="0.75"/>
        <path d="M26.3573 244.158C24.8873 244.158 23.8058 243.076 23.8058 241.606V238.834C23.8058 237.364 24.8873 236.282 26.3573 236.282C27.8273 236.282 28.9088 237.364 28.9088 238.834V241.606C28.9088 243.076 27.8273 244.158 26.3573 244.158ZM24.7561 241.658C24.7561 242.546 25.4701 243.26 26.3573 243.26C27.2446 243.26 27.9586 242.546 27.9586 241.658V238.776C27.9586 237.889 27.2446 237.175 26.3573 237.175C25.4701 237.175 24.7561 237.889 24.7561 238.776V241.658ZM30.5466 244V242.971H31.5756V244H30.5466ZM35.6814 236.288C37.1251 236.288 38.2591 237.422 38.2591 238.939V241.454C38.2591 243.039 37.1461 244.158 35.5974 244.158C34.7679 244.158 34.0224 243.806 33.5289 243.17L34.2271 242.551C34.5316 242.987 35.0409 243.27 35.5974 243.27C36.6001 243.27 37.3089 242.462 37.3089 241.559V240.53C36.8731 241.013 36.2484 241.312 35.5711 241.312C34.1641 241.312 33.1036 240.225 33.1036 238.818C33.1036 237.411 34.2744 236.288 35.6814 236.288ZM34.0486 238.818C34.0486 239.721 34.7731 240.451 35.6761 240.451C36.5791 240.451 37.3089 239.721 37.3089 238.818C37.3089 237.926 36.5844 237.191 35.6814 237.191C34.7784 237.191 34.0486 237.915 34.0486 238.818ZM42.9956 244V242.609H39.5201V241.721L42.0139 236.44H43.0744L40.5806 241.721H42.9956V239.595H43.9406V241.721H44.7281V242.609H43.9406V244H42.9956Z" fill="#110529"/>
        <path d="M350.5 239.501H50.5" stroke="#E1E3EB" stroke-width="0.75"/>
        <path d="M26.5419 290.658C25.0719 290.658 23.9904 289.576 23.9904 288.106V285.334C23.9904 283.864 25.0719 282.783 26.5419 282.783C28.0119 282.783 29.0934 283.864 29.0934 285.334V288.106C29.0934 289.576 28.0119 290.658 26.5419 290.658ZM24.9406 288.159C24.9406 289.046 25.6546 289.76 26.5419 289.76C27.4291 289.76 28.1431 289.046 28.1431 288.159V285.277C28.1431 284.389 27.4291 283.675 26.5419 283.675C25.6546 283.675 24.9406 284.389 24.9406 285.277V288.159ZM30.7311 290.5V289.471H31.7601V290.5H30.7311ZM35.866 282.788C37.3097 282.788 38.4437 283.922 38.4437 285.439V287.954C38.4437 289.54 37.3307 290.658 35.782 290.658C34.9525 290.658 34.207 290.306 33.7135 289.671L34.4117 289.051C34.7162 289.487 35.2255 289.771 35.782 289.771C36.7847 289.771 37.4935 288.962 37.4935 288.059V287.03C37.0577 287.513 36.433 287.812 35.7557 287.812C34.3487 287.812 33.2882 286.726 33.2882 285.319C33.2882 283.912 34.459 282.788 35.866 282.788ZM34.2332 285.319C34.2332 286.222 34.9577 286.951 35.8607 286.951C36.7637 286.951 37.4935 286.222 37.4935 285.319C37.4935 284.426 36.769 283.691 35.866 283.691C34.963 283.691 34.2332 284.416 34.2332 285.319ZM39.7047 290.495L39.7099 289.655L43.0647 286.636C43.6212 286.138 43.7734 285.702 43.7734 285.224C43.7734 284.353 43.1224 283.675 42.2509 283.675C41.3479 283.675 40.6864 284.395 40.6969 285.219H39.7414C39.7414 283.796 40.8124 282.783 42.2667 282.783C43.6684 282.783 44.7289 283.843 44.7289 285.235C44.7289 286.227 44.3562 286.726 43.5792 287.413L41.1432 289.603H44.7289V290.495H39.7047Z" fill="#110529"/>
        <path d="M350.5 286.001H50.5" stroke="#E1E3EB" stroke-width="0.75"/>
        <path d="M26.0394 337.158C24.5694 337.158 23.4879 336.077 23.4879 334.607V331.835C23.4879 330.365 24.5694 329.283 26.0394 329.283C27.5094 329.283 28.5909 330.365 28.5909 331.835V334.607C28.5909 336.077 27.5094 337.158 26.0394 337.158ZM24.4382 334.659C24.4382 335.546 25.1522 336.26 26.0394 336.26C26.9267 336.26 27.6407 335.546 27.6407 334.659V331.777C27.6407 330.89 26.9267 330.176 26.0394 330.176C25.1522 330.176 24.4382 330.89 24.4382 331.777V334.659ZM30.2287 337.001V335.972H31.2577V337.001H30.2287ZM35.3635 329.288C36.8073 329.288 37.9413 330.422 37.9413 331.94V334.454C37.9413 336.04 36.8283 337.158 35.2795 337.158C34.45 337.158 33.7045 336.806 33.211 336.171L33.9093 335.552C34.2138 335.987 34.723 336.271 35.2795 336.271C36.2823 336.271 36.991 335.462 36.991 334.559V333.53C36.5553 334.013 35.9305 334.313 35.2533 334.313C33.8463 334.313 32.7858 333.226 32.7858 331.819C32.7858 330.412 33.9565 329.288 35.3635 329.288ZM33.7308 331.819C33.7308 332.722 34.4553 333.452 35.3583 333.452C36.2613 333.452 36.991 332.722 36.991 331.819C36.991 330.926 36.2665 330.191 35.3635 330.191C34.4605 330.191 33.7308 330.916 33.7308 331.819ZM41.9637 337.158C40.4937 337.158 39.4122 336.077 39.4122 334.607V331.835C39.4122 330.365 40.4937 329.283 41.9637 329.283C43.4337 329.283 44.5152 330.365 44.5152 331.835V334.607C44.5152 336.077 43.4337 337.158 41.9637 337.158ZM40.3625 334.659C40.3625 335.546 41.0765 336.26 41.9637 336.26C42.851 336.26 43.565 335.546 43.565 334.659V331.777C43.565 330.89 42.851 330.176 41.9637 330.176C41.0765 330.176 40.3625 330.89 40.3625 331.777V334.659Z" fill="#110529"/>
        <path d="M350.5 332.501H50.5" stroke="#E1E3EB" stroke-width="0.75"/>
        <path d="M50.5 72.0012V332.001" stroke="#110529" stroke-width="0.75" stroke-linecap="square"/>
        <path d="M79.8679 347.158C78.3979 347.158 77.3164 346.076 77.3164 344.606V341.834C77.3164 340.364 78.3979 339.282 79.8679 339.282C81.3379 339.282 82.4194 340.364 82.4194 341.834V344.606C82.4194 346.076 81.3379 347.158 79.8679 347.158ZM78.2667 344.658C78.2667 345.546 78.9807 346.26 79.8679 346.26C80.7552 346.26 81.4692 345.546 81.4692 344.658V341.776C81.4692 340.889 80.7552 340.175 79.8679 340.175C78.9807 340.175 78.2667 340.889 78.2667 341.776V344.658ZM90.0947 347.158C89.0552 347.158 88.2047 346.317 88.2047 345.267C88.2047 344.238 89.0867 343.377 90.0947 343.377C91.1342 343.377 91.9847 344.217 91.9847 345.267C91.9847 346.317 91.1342 347.158 90.0947 347.158ZM83.7842 341.172C83.7842 340.143 84.6662 339.282 85.6742 339.282C86.7137 339.282 87.5642 340.122 87.5642 341.172C87.5642 342.222 86.7137 343.062 85.6742 343.062C84.6347 343.062 83.7842 342.222 83.7842 341.172ZM84.0992 346.37L91.0397 339.44L91.6697 340.07L84.7292 347L84.0992 346.37ZM84.6084 341.172C84.6084 341.75 85.0967 342.238 85.6742 342.238C86.2517 342.238 86.7399 341.75 86.7399 341.172C86.7399 340.595 86.2517 340.107 85.6742 340.107C85.0967 340.107 84.6084 340.595 84.6084 341.172ZM89.0289 345.267C89.0289 345.845 89.5172 346.333 90.0947 346.333C90.6722 346.333 91.1604 345.845 91.1604 345.267C91.1604 344.69 90.6722 344.202 90.0947 344.202C89.5172 344.202 89.0289 344.69 89.0289 345.267Z" fill="#110529"/>
        <path d="M84.1003 72L84.1003 332" stroke="#E1E3EB" stroke-width="0.75"/>
        <path d="M134.901 347.158C133.431 347.158 132.349 346.076 132.349 344.606V341.834C132.349 340.364 133.431 339.282 134.901 339.282C136.371 339.282 137.452 340.364 137.452 341.834V344.606C137.452 346.076 136.371 347.158 134.901 347.158ZM133.299 344.658C133.299 345.546 134.013 346.26 134.901 346.26C135.788 346.26 136.502 345.546 136.502 344.658V341.776C136.502 340.889 135.788 340.175 134.901 340.175C134.013 340.175 133.299 340.889 133.299 341.776V344.658ZM139.09 347V345.971H140.119V347H139.09ZM141.808 347V340.474L140.386 341.335V340.29L141.808 339.44H142.759V347H141.808ZM150.962 347.158C149.922 347.158 149.072 346.317 149.072 345.267C149.072 344.238 149.954 343.377 150.962 343.377C152.001 343.377 152.852 344.217 152.852 345.267C152.852 346.317 152.001 347.158 150.962 347.158ZM144.651 341.172C144.651 340.143 145.533 339.282 146.541 339.282C147.581 339.282 148.431 340.122 148.431 341.172C148.431 342.222 147.581 343.062 146.541 343.062C145.502 343.062 144.651 342.222 144.651 341.172ZM144.966 346.37L151.907 339.44L152.537 340.07L145.596 347L144.966 346.37ZM145.476 341.172C145.476 341.75 145.964 342.238 146.541 342.238C147.119 342.238 147.607 341.75 147.607 341.172C147.607 340.595 147.119 340.107 146.541 340.107C145.964 340.107 145.476 340.595 145.476 341.172ZM149.896 345.267C149.896 345.845 150.384 346.333 150.962 346.333C151.539 346.333 152.028 345.845 152.028 345.267C152.028 344.69 151.539 344.202 150.962 344.202C150.384 344.202 149.896 344.69 149.896 345.267Z" fill="#110529"/>
        <path d="M142.3 72L142.3 332" stroke="#E1E3EB" stroke-width="0.75"/>
        <path d="M187.522 347.158C186.052 347.158 184.971 346.076 184.971 344.606V341.834C184.971 340.364 186.052 339.282 187.522 339.282C188.992 339.282 190.074 340.364 190.074 341.834V344.606C190.074 346.076 188.992 347.158 187.522 347.158ZM185.921 344.658C185.921 345.546 186.635 346.26 187.522 346.26C188.41 346.26 189.124 345.546 189.124 344.658V341.776C189.124 340.889 188.41 340.175 187.522 340.175C186.635 340.175 185.921 340.889 185.921 341.776V344.658ZM191.712 347V345.971H192.741V347H191.712ZM194.164 346.995L194.169 346.155L197.524 343.136C198.08 342.637 198.232 342.201 198.232 341.724C198.232 340.852 197.581 340.175 196.71 340.175C195.807 340.175 195.145 340.894 195.156 341.718H194.2C194.2 340.296 195.271 339.282 196.726 339.282C198.127 339.282 199.188 340.343 199.188 341.734C199.188 342.726 198.815 343.225 198.038 343.913L195.602 346.102H199.188V346.995H194.164ZM202.68 347.158C201.51 347.158 200.538 346.38 200.234 345.278L201.132 345.036C201.321 345.782 202.003 346.249 202.707 346.249C203.625 346.249 204.339 345.509 204.339 344.622C204.339 343.708 203.589 342.994 202.707 342.994C202.04 342.994 201.567 343.314 201.294 343.708L200.465 343.393L200.696 339.44H204.754V340.327H201.536L201.399 342.621C201.793 342.306 202.302 342.133 202.812 342.133C204.213 342.133 205.279 343.215 205.279 344.622C205.279 346.018 204.087 347.158 202.68 347.158ZM212.74 347.158C211.701 347.158 210.85 346.317 210.85 345.267C210.85 344.238 211.732 343.377 212.74 343.377C213.78 343.377 214.63 344.217 214.63 345.267C214.63 346.317 213.78 347.158 212.74 347.158ZM206.43 341.172C206.43 340.143 207.312 339.282 208.32 339.282C209.359 339.282 210.21 340.122 210.21 341.172C210.21 342.222 209.359 343.062 208.32 343.062C207.28 343.062 206.43 342.222 206.43 341.172ZM206.745 346.37L213.685 339.44L214.315 340.07L207.375 347L206.745 346.37ZM207.254 341.172C207.254 341.75 207.742 342.238 208.32 342.238C208.897 342.238 209.386 341.75 209.386 341.172C209.386 340.595 208.897 340.107 208.32 340.107C207.742 340.107 207.254 340.595 207.254 341.172ZM211.675 345.267C211.675 345.845 212.163 346.333 212.74 346.333C213.318 346.333 213.806 345.845 213.806 345.267C213.806 344.69 213.318 344.202 212.74 344.202C212.163 344.202 211.675 344.69 211.675 345.267Z" fill="#110529"/>
        <path d="M200.5 72L200.5 332" stroke="#E1E3EB" stroke-width="0.75"/>
        <path d="M250.007 347.158C248.537 347.158 247.456 346.076 247.456 344.606V341.834C247.456 340.364 248.537 339.282 250.007 339.282C251.477 339.282 252.559 340.364 252.559 341.834V344.606C252.559 346.076 251.477 347.158 250.007 347.158ZM248.406 344.658C248.406 345.546 249.12 346.26 250.007 346.26C250.895 346.26 251.609 345.546 251.609 344.658V341.776C251.609 340.889 250.895 340.175 250.007 340.175C249.12 340.175 248.406 340.889 248.406 341.776V344.658ZM254.197 347V345.971H255.226V347H254.197ZM259.095 347.158C257.925 347.158 256.953 346.38 256.649 345.278L257.547 345.036C257.736 345.782 258.418 346.249 259.122 346.249C260.04 346.249 260.754 345.509 260.754 344.622C260.754 343.708 260.004 342.994 259.122 342.994C258.455 342.994 257.982 343.314 257.709 343.708L256.88 343.393L257.111 339.44H261.169V340.327H257.951L257.814 342.621C258.208 342.306 258.717 342.133 259.227 342.133C260.628 342.133 261.694 343.215 261.694 344.622C261.694 346.018 260.502 347.158 259.095 347.158ZM269.155 347.158C268.116 347.158 267.265 346.317 267.265 345.267C267.265 344.238 268.147 343.377 269.155 343.377C270.195 343.377 271.045 344.217 271.045 345.267C271.045 346.317 270.195 347.158 269.155 347.158ZM262.845 341.172C262.845 340.143 263.727 339.282 264.735 339.282C265.774 339.282 266.625 340.122 266.625 341.172C266.625 342.222 265.774 343.062 264.735 343.062C263.695 343.062 262.845 342.222 262.845 341.172ZM263.16 346.37L270.1 339.44L270.73 340.07L263.79 347L263.16 346.37ZM263.669 341.172C263.669 341.75 264.157 342.238 264.735 342.238C265.312 342.238 265.8 341.75 265.8 341.172C265.8 340.595 265.312 340.107 264.735 340.107C264.157 340.107 263.669 340.595 263.669 341.172ZM268.089 345.267C268.089 345.845 268.578 346.333 269.155 346.333C269.733 346.333 270.221 345.845 270.221 345.267C270.221 344.69 269.733 344.202 269.155 344.202C268.578 344.202 268.089 344.69 268.089 345.267Z" fill="#110529"/>
        <path d="M258.7 72L258.7 332" stroke="#E1E3EB" stroke-width="0.75"/>
        <path d="M311.838 347V340.474L310.415 341.335V340.29L311.838 339.44H312.788V347H311.838ZM320.991 347.158C319.952 347.158 319.101 346.317 319.101 345.267C319.101 344.238 319.983 343.377 320.991 343.377C322.031 343.377 322.881 344.217 322.881 345.267C322.881 346.317 322.031 347.158 320.991 347.158ZM314.681 341.172C314.681 340.143 315.563 339.282 316.571 339.282C317.61 339.282 318.461 340.122 318.461 341.172C318.461 342.222 317.61 343.062 316.571 343.062C315.531 343.062 314.681 342.222 314.681 341.172ZM314.996 346.37L321.936 339.44L322.566 340.07L315.626 347L314.996 346.37ZM315.505 341.172C315.505 341.75 315.993 342.238 316.571 342.238C317.148 342.238 317.636 341.75 317.636 341.172C317.636 340.595 317.148 340.107 316.571 340.107C315.993 340.107 315.505 340.595 315.505 341.172ZM319.925 345.267C319.925 345.845 320.414 346.333 320.991 346.333C321.569 346.333 322.057 345.845 322.057 345.267C322.057 344.69 321.569 344.202 320.991 344.202C320.414 344.202 319.925 344.69 319.925 345.267Z" fill="#110529"/>
        <path d="M316.9 72L316.9 332" stroke="#E1E3EB" stroke-width="0.75"/>
        <path d="M50.5 332H350.5" stroke="#110529" stroke-width="0.75" stroke-linecap="square"/>
        <path d="M362.5 72V71.625H362.125V72H362.5ZM662.5 72H662.875V71.625H662.5V72ZM662.5 332V332.375H662.875V332H662.5ZM362.5 332H362.125V332.375H362.5V332ZM362.5 72.375H662.5V71.625H362.5V72.375ZM662.125 72V332H662.875V72H662.125ZM662.5 331.625H362.5V332.375H662.5V331.625ZM362.875 332V72H362.125V332H362.875Z" fill="#E1E3EB"/>
        <path d="M662.5 100.001H362.5" stroke="#E1E3EB" stroke-width="0.75"/>
        <path d="M662.5 146.501H362.5" stroke="#E1E3EB" stroke-width="0.75"/>
        <path d="M662.5 193.001H362.5" stroke="#E1E3EB" stroke-width="0.75"/>
        <path d="M662.5 239.501H362.5" stroke="#E1E3EB" stroke-width="0.75"/>
        <path d="M662.5 286.001H362.5" stroke="#E1E3EB" stroke-width="0.75"/>
        <path d="M662.5 332.501H362.5" stroke="#E1E3EB" stroke-width="0.75"/>
        <path d="M362.5 72.0012V332.001" stroke="#110529" stroke-width="0.75" stroke-linecap="square"/>
        <path d="M391.868 347.158C390.398 347.158 389.316 346.076 389.316 344.606V341.834C389.316 340.364 390.398 339.282 391.868 339.282C393.338 339.282 394.419 340.364 394.419 341.834V344.606C394.419 346.076 393.338 347.158 391.868 347.158ZM390.267 344.658C390.267 345.546 390.981 346.26 391.868 346.26C392.755 346.26 393.469 345.546 393.469 344.658V341.776C393.469 340.889 392.755 340.175 391.868 340.175C390.981 340.175 390.267 340.889 390.267 341.776V344.658ZM402.095 347.158C401.055 347.158 400.205 346.317 400.205 345.267C400.205 344.238 401.087 343.377 402.095 343.377C403.134 343.377 403.985 344.217 403.985 345.267C403.985 346.317 403.134 347.158 402.095 347.158ZM395.784 341.172C395.784 340.143 396.666 339.282 397.674 339.282C398.714 339.282 399.564 340.122 399.564 341.172C399.564 342.222 398.714 343.062 397.674 343.062C396.635 343.062 395.784 342.222 395.784 341.172ZM396.099 346.37L403.04 339.44L403.67 340.07L396.729 347L396.099 346.37ZM396.608 341.172C396.608 341.75 397.097 342.238 397.674 342.238C398.252 342.238 398.74 341.75 398.74 341.172C398.74 340.595 398.252 340.107 397.674 340.107C397.097 340.107 396.608 340.595 396.608 341.172ZM401.029 345.267C401.029 345.845 401.517 346.333 402.095 346.333C402.672 346.333 403.16 345.845 403.16 345.267C403.16 344.69 402.672 344.202 402.095 344.202C401.517 344.202 401.029 344.69 401.029 345.267Z" fill="#110529"/>
        <path d="M396.1 72L396.1 332" stroke="#E1E3EB" stroke-width="0.75"/>
        <path d="M446.901 347.158C445.431 347.158 444.349 346.076 444.349 344.606V341.834C444.349 340.364 445.431 339.282 446.901 339.282C448.371 339.282 449.452 340.364 449.452 341.834V344.606C449.452 346.076 448.371 347.158 446.901 347.158ZM445.299 344.658C445.299 345.546 446.013 346.26 446.901 346.26C447.788 346.26 448.502 345.546 448.502 344.658V341.776C448.502 340.889 447.788 340.175 446.901 340.175C446.013 340.175 445.299 340.889 445.299 341.776V344.658ZM451.09 347V345.971H452.119V347H451.09ZM453.808 347V340.474L452.386 341.335V340.29L453.808 339.44H454.759V347H453.808ZM462.962 347.158C461.922 347.158 461.072 346.317 461.072 345.267C461.072 344.238 461.954 343.377 462.962 343.377C464.001 343.377 464.852 344.217 464.852 345.267C464.852 346.317 464.001 347.158 462.962 347.158ZM456.651 341.172C456.651 340.143 457.533 339.282 458.541 339.282C459.581 339.282 460.431 340.122 460.431 341.172C460.431 342.222 459.581 343.062 458.541 343.062C457.502 343.062 456.651 342.222 456.651 341.172ZM456.966 346.37L463.907 339.44L464.537 340.07L457.596 347L456.966 346.37ZM457.476 341.172C457.476 341.75 457.964 342.238 458.541 342.238C459.119 342.238 459.607 341.75 459.607 341.172C459.607 340.595 459.119 340.107 458.541 340.107C457.964 340.107 457.476 340.595 457.476 341.172ZM461.896 345.267C461.896 345.845 462.384 346.333 462.962 346.333C463.539 346.333 464.028 345.845 464.028 345.267C464.028 344.69 463.539 344.202 462.962 344.202C462.384 344.202 461.896 344.69 461.896 345.267Z" fill="#110529"/>
        <path d="M454.3 72L454.3 332" stroke="#E1E3EB" stroke-width="0.75"/>
        <path d="M499.522 347.158C498.052 347.158 496.971 346.076 496.971 344.606V341.834C496.971 340.364 498.052 339.282 499.522 339.282C500.992 339.282 502.074 340.364 502.074 341.834V344.606C502.074 346.076 500.992 347.158 499.522 347.158ZM497.921 344.658C497.921 345.546 498.635 346.26 499.522 346.26C500.41 346.26 501.124 345.546 501.124 344.658V341.776C501.124 340.889 500.41 340.175 499.522 340.175C498.635 340.175 497.921 340.889 497.921 341.776V344.658ZM503.712 347V345.971H504.741V347H503.712ZM506.164 346.995L506.169 346.155L509.524 343.136C510.08 342.637 510.232 342.201 510.232 341.724C510.232 340.852 509.581 340.175 508.71 340.175C507.807 340.175 507.145 340.894 507.156 341.718H506.2C506.2 340.296 507.271 339.282 508.726 339.282C510.127 339.282 511.188 340.343 511.188 341.734C511.188 342.726 510.815 343.225 510.038 343.913L507.602 346.102H511.188V346.995H506.164ZM514.68 347.158C513.51 347.158 512.538 346.38 512.234 345.278L513.132 345.036C513.321 345.782 514.003 346.249 514.707 346.249C515.625 346.249 516.339 345.509 516.339 344.622C516.339 343.708 515.589 342.994 514.707 342.994C514.04 342.994 513.567 343.314 513.294 343.708L512.465 343.393L512.696 339.44H516.754V340.327H513.536L513.399 342.621C513.793 342.306 514.302 342.133 514.812 342.133C516.213 342.133 517.279 343.215 517.279 344.622C517.279 346.018 516.087 347.158 514.68 347.158ZM524.74 347.158C523.701 347.158 522.85 346.317 522.85 345.267C522.85 344.238 523.732 343.377 524.74 343.377C525.78 343.377 526.63 344.217 526.63 345.267C526.63 346.317 525.78 347.158 524.74 347.158ZM518.43 341.172C518.43 340.143 519.312 339.282 520.32 339.282C521.359 339.282 522.21 340.122 522.21 341.172C522.21 342.222 521.359 343.062 520.32 343.062C519.28 343.062 518.43 342.222 518.43 341.172ZM518.745 346.37L525.685 339.44L526.315 340.07L519.375 347L518.745 346.37ZM519.254 341.172C519.254 341.75 519.742 342.238 520.32 342.238C520.897 342.238 521.386 341.75 521.386 341.172C521.386 340.595 520.897 340.107 520.32 340.107C519.742 340.107 519.254 340.595 519.254 341.172ZM523.675 345.267C523.675 345.845 524.163 346.333 524.74 346.333C525.318 346.333 525.806 345.845 525.806 345.267C525.806 344.69 525.318 344.202 524.74 344.202C524.163 344.202 523.675 344.69 523.675 345.267Z" fill="#110529"/>
        <path d="M512.5 72L512.5 332" stroke="#E1E3EB" stroke-width="0.75"/>
        <path d="M562.007 347.158C560.537 347.158 559.456 346.076 559.456 344.606V341.834C559.456 340.364 560.537 339.282 562.007 339.282C563.477 339.282 564.559 340.364 564.559 341.834V344.606C564.559 346.076 563.477 347.158 562.007 347.158ZM560.406 344.658C560.406 345.546 561.12 346.26 562.007 346.26C562.895 346.26 563.609 345.546 563.609 344.658V341.776C563.609 340.889 562.895 340.175 562.007 340.175C561.12 340.175 560.406 340.889 560.406 341.776V344.658ZM566.197 347V345.971H567.226V347H566.197ZM571.095 347.158C569.925 347.158 568.953 346.38 568.649 345.278L569.547 345.036C569.736 345.782 570.418 346.249 571.122 346.249C572.04 346.249 572.754 345.509 572.754 344.622C572.754 343.708 572.004 342.994 571.122 342.994C570.455 342.994 569.982 343.314 569.709 343.708L568.88 343.393L569.111 339.44H573.169V340.327H569.951L569.814 342.621C570.208 342.306 570.717 342.133 571.227 342.133C572.628 342.133 573.694 343.215 573.694 344.622C573.694 346.018 572.502 347.158 571.095 347.158ZM581.155 347.158C580.116 347.158 579.265 346.317 579.265 345.267C579.265 344.238 580.147 343.377 581.155 343.377C582.195 343.377 583.045 344.217 583.045 345.267C583.045 346.317 582.195 347.158 581.155 347.158ZM574.845 341.172C574.845 340.143 575.727 339.282 576.735 339.282C577.774 339.282 578.625 340.122 578.625 341.172C578.625 342.222 577.774 343.062 576.735 343.062C575.695 343.062 574.845 342.222 574.845 341.172ZM575.16 346.37L582.1 339.44L582.73 340.07L575.79 347L575.16 346.37ZM575.669 341.172C575.669 341.75 576.157 342.238 576.735 342.238C577.312 342.238 577.8 341.75 577.8 341.172C577.8 340.595 577.312 340.107 576.735 340.107C576.157 340.107 575.669 340.595 575.669 341.172ZM580.089 345.267C580.089 345.845 580.578 346.333 581.155 346.333C581.733 346.333 582.221 345.845 582.221 345.267C582.221 344.69 581.733 344.202 581.155 344.202C580.578 344.202 580.089 344.69 580.089 345.267Z" fill="#110529"/>
        <path d="M570.7 72L570.7 332" stroke="#E1E3EB" stroke-width="0.75"/>
        <path d="M623.838 347V340.474L622.415 341.335V340.29L623.838 339.44H624.788V347H623.838ZM632.991 347.158C631.952 347.158 631.101 346.317 631.101 345.267C631.101 344.238 631.983 343.377 632.991 343.377C634.031 343.377 634.881 344.217 634.881 345.267C634.881 346.317 634.031 347.158 632.991 347.158ZM626.681 341.172C626.681 340.143 627.563 339.282 628.571 339.282C629.61 339.282 630.461 340.122 630.461 341.172C630.461 342.222 629.61 343.062 628.571 343.062C627.531 343.062 626.681 342.222 626.681 341.172ZM626.996 346.37L633.936 339.44L634.566 340.07L627.626 347L626.996 346.37ZM627.505 341.172C627.505 341.75 627.993 342.238 628.571 342.238C629.148 342.238 629.636 341.75 629.636 341.172C629.636 340.595 629.148 340.107 628.571 340.107C627.993 340.107 627.505 340.595 627.505 341.172ZM631.925 345.267C631.925 345.845 632.414 346.333 632.991 346.333C633.569 346.333 634.057 345.845 634.057 345.267C634.057 344.69 633.569 344.202 632.991 344.202C632.414 344.202 631.925 344.69 631.925 345.267Z" fill="#110529"/>
        <path d="M628.9 72L628.9 332" stroke="#E1E3EB" stroke-width="0.75"/>
        <path d="M362.5 332H662.5" stroke="#110529" stroke-width="0.75" stroke-linecap="square"/>
        <path d="M674.5 72V71.625H674.125V72H674.5ZM974.5 72H974.875V71.625H974.5V72ZM974.5 332V332.375H974.875V332H974.5ZM674.5 332H674.125V332.375H674.5V332ZM674.5 72.375H974.5V71.625H674.5V72.375ZM974.125 72V332H974.875V72H974.125ZM974.5 331.625H674.5V332.375H974.5V331.625ZM674.875 332V72H674.125V332H674.875Z" fill="#E1E3EB"/>
        <path d="M974.5 100.001H674.5" stroke="#E1E3EB" stroke-width="0.75"/>
        <path d="M974.5 146.501H674.5" stroke="#E1E3EB" stroke-width="0.75"/>
        <path d="M974.5 193.001H674.5" stroke="#E1E3EB" stroke-width="0.75"/>
        <path d="M974.5 239.501H674.5" stroke="#E1E3EB" stroke-width="0.75"/>
        <path d="M974.5 286.001H674.5" stroke="#E1E3EB" stroke-width="0.75"/>
        <path d="M974.5 332.501H674.5" stroke="#E1E3EB" stroke-width="0.75"/>
        <path d="M674.5 72.0012V332.001" stroke="#110529" stroke-width="0.75" stroke-linecap="square"/>
        <path d="M703.868 347.158C702.398 347.158 701.316 346.076 701.316 344.606V341.834C701.316 340.364 702.398 339.282 703.868 339.282C705.338 339.282 706.419 340.364 706.419 341.834V344.606C706.419 346.076 705.338 347.158 703.868 347.158ZM702.267 344.658C702.267 345.546 702.981 346.26 703.868 346.26C704.755 346.26 705.469 345.546 705.469 344.658V341.776C705.469 340.889 704.755 340.175 703.868 340.175C702.981 340.175 702.267 340.889 702.267 341.776V344.658ZM714.095 347.158C713.055 347.158 712.205 346.317 712.205 345.267C712.205 344.238 713.087 343.377 714.095 343.377C715.134 343.377 715.985 344.217 715.985 345.267C715.985 346.317 715.134 347.158 714.095 347.158ZM707.784 341.172C707.784 340.143 708.666 339.282 709.674 339.282C710.714 339.282 711.564 340.122 711.564 341.172C711.564 342.222 710.714 343.062 709.674 343.062C708.635 343.062 707.784 342.222 707.784 341.172ZM708.099 346.37L715.04 339.44L715.67 340.07L708.729 347L708.099 346.37ZM708.608 341.172C708.608 341.75 709.097 342.238 709.674 342.238C710.252 342.238 710.74 341.75 710.74 341.172C710.74 340.595 710.252 340.107 709.674 340.107C709.097 340.107 708.608 340.595 708.608 341.172ZM713.029 345.267C713.029 345.845 713.517 346.333 714.095 346.333C714.672 346.333 715.16 345.845 715.16 345.267C715.16 344.69 714.672 344.202 714.095 344.202C713.517 344.202 713.029 344.69 713.029 345.267Z" fill="#110529"/>
        <path d="M708.1 72L708.1 332" stroke="#E1E3EB" stroke-width="0.75"/>
        <path d="M758.901 347.158C757.431 347.158 756.349 346.076 756.349 344.606V341.834C756.349 340.364 757.431 339.282 758.901 339.282C760.371 339.282 761.452 340.364 761.452 341.834V344.606C761.452 346.076 760.371 347.158 758.901 347.158ZM757.299 344.658C757.299 345.546 758.013 346.26 758.901 346.26C759.788 346.26 760.502 345.546 760.502 344.658V341.776C760.502 340.889 759.788 340.175 758.901 340.175C758.013 340.175 757.299 340.889 757.299 341.776V344.658ZM763.09 347V345.971H764.119V347H763.09ZM765.808 347V340.474L764.386 341.335V340.29L765.808 339.44H766.759V347H765.808ZM774.962 347.158C773.922 347.158 773.072 346.317 773.072 345.267C773.072 344.238 773.954 343.377 774.962 343.377C776.001 343.377 776.852 344.217 776.852 345.267C776.852 346.317 776.001 347.158 774.962 347.158ZM768.651 341.172C768.651 340.143 769.533 339.282 770.541 339.282C771.581 339.282 772.431 340.122 772.431 341.172C772.431 342.222 771.581 343.062 770.541 343.062C769.502 343.062 768.651 342.222 768.651 341.172ZM768.966 346.37L775.907 339.44L776.537 340.07L769.596 347L768.966 346.37ZM769.476 341.172C769.476 341.75 769.964 342.238 770.541 342.238C771.119 342.238 771.607 341.75 771.607 341.172C771.607 340.595 771.119 340.107 770.541 340.107C769.964 340.107 769.476 340.595 769.476 341.172ZM773.896 345.267C773.896 345.845 774.384 346.333 774.962 346.333C775.539 346.333 776.028 345.845 776.028 345.267C776.028 344.69 775.539 344.202 774.962 344.202C774.384 344.202 773.896 344.69 773.896 345.267Z" fill="#110529"/>
        <path d="M766.3 72L766.3 332" stroke="#E1E3EB" stroke-width="0.75"/>
        <path d="M811.522 347.158C810.052 347.158 808.971 346.076 808.971 344.606V341.834C808.971 340.364 810.052 339.282 811.522 339.282C812.992 339.282 814.074 340.364 814.074 341.834V344.606C814.074 346.076 812.992 347.158 811.522 347.158ZM809.921 344.658C809.921 345.546 810.635 346.26 811.522 346.26C812.41 346.26 813.124 345.546 813.124 344.658V341.776C813.124 340.889 812.41 340.175 811.522 340.175C810.635 340.175 809.921 340.889 809.921 341.776V344.658ZM815.712 347V345.971H816.741V347H815.712ZM818.164 346.995L818.169 346.155L821.524 343.136C822.08 342.637 822.232 342.201 822.232 341.724C822.232 340.852 821.581 340.175 820.71 340.175C819.807 340.175 819.145 340.894 819.156 341.718H818.2C818.2 340.296 819.271 339.282 820.726 339.282C822.127 339.282 823.188 340.343 823.188 341.734C823.188 342.726 822.815 343.225 822.038 343.913L819.602 346.102H823.188V346.995H818.164ZM826.68 347.158C825.51 347.158 824.538 346.38 824.234 345.278L825.132 345.036C825.321 345.782 826.003 346.249 826.707 346.249C827.625 346.249 828.339 345.509 828.339 344.622C828.339 343.708 827.589 342.994 826.707 342.994C826.04 342.994 825.567 343.314 825.294 343.708L824.465 343.393L824.696 339.44H828.754V340.327H825.536L825.399 342.621C825.793 342.306 826.302 342.133 826.812 342.133C828.213 342.133 829.279 343.215 829.279 344.622C829.279 346.018 828.087 347.158 826.68 347.158ZM836.74 347.158C835.701 347.158 834.85 346.317 834.85 345.267C834.85 344.238 835.732 343.377 836.74 343.377C837.78 343.377 838.63 344.217 838.63 345.267C838.63 346.317 837.78 347.158 836.74 347.158ZM830.43 341.172C830.43 340.143 831.312 339.282 832.32 339.282C833.359 339.282 834.21 340.122 834.21 341.172C834.21 342.222 833.359 343.062 832.32 343.062C831.28 343.062 830.43 342.222 830.43 341.172ZM830.745 346.37L837.685 339.44L838.315 340.07L831.375 347L830.745 346.37ZM831.254 341.172C831.254 341.75 831.742 342.238 832.32 342.238C832.897 342.238 833.386 341.75 833.386 341.172C833.386 340.595 832.897 340.107 832.32 340.107C831.742 340.107 831.254 340.595 831.254 341.172ZM835.675 345.267C835.675 345.845 836.163 346.333 836.74 346.333C837.318 346.333 837.806 345.845 837.806 345.267C837.806 344.69 837.318 344.202 836.74 344.202C836.163 344.202 835.675 344.69 835.675 345.267Z" fill="#110529"/>
        <path d="M824.5 72L824.5 332" stroke="#E1E3EB" stroke-width="0.75"/>
        <path d="M874.007 347.158C872.537 347.158 871.456 346.076 871.456 344.606V341.834C871.456 340.364 872.537 339.282 874.007 339.282C875.477 339.282 876.559 340.364 876.559 341.834V344.606C876.559 346.076 875.477 347.158 874.007 347.158ZM872.406 344.658C872.406 345.546 873.12 346.26 874.007 346.26C874.895 346.26 875.609 345.546 875.609 344.658V341.776C875.609 340.889 874.895 340.175 874.007 340.175C873.12 340.175 872.406 340.889 872.406 341.776V344.658ZM878.197 347V345.971H879.226V347H878.197ZM883.095 347.158C881.925 347.158 880.953 346.38 880.649 345.278L881.547 345.036C881.736 345.782 882.418 346.249 883.122 346.249C884.04 346.249 884.754 345.509 884.754 344.622C884.754 343.708 884.004 342.994 883.122 342.994C882.455 342.994 881.982 343.314 881.709 343.708L880.88 343.393L881.111 339.44H885.169V340.327H881.951L881.814 342.621C882.208 342.306 882.717 342.133 883.227 342.133C884.628 342.133 885.694 343.215 885.694 344.622C885.694 346.018 884.502 347.158 883.095 347.158ZM893.155 347.158C892.116 347.158 891.265 346.317 891.265 345.267C891.265 344.238 892.147 343.377 893.155 343.377C894.195 343.377 895.045 344.217 895.045 345.267C895.045 346.317 894.195 347.158 893.155 347.158ZM886.845 341.172C886.845 340.143 887.727 339.282 888.735 339.282C889.774 339.282 890.625 340.122 890.625 341.172C890.625 342.222 889.774 343.062 888.735 343.062C887.695 343.062 886.845 342.222 886.845 341.172ZM887.16 346.37L894.1 339.44L894.73 340.07L887.79 347L887.16 346.37ZM887.669 341.172C887.669 341.75 888.157 342.238 888.735 342.238C889.312 342.238 889.8 341.75 889.8 341.172C889.8 340.595 889.312 340.107 888.735 340.107C888.157 340.107 887.669 340.595 887.669 341.172ZM892.089 345.267C892.089 345.845 892.578 346.333 893.155 346.333C893.733 346.333 894.221 345.845 894.221 345.267C894.221 344.69 893.733 344.202 893.155 344.202C892.578 344.202 892.089 344.69 892.089 345.267Z" fill="#110529"/>
        <path d="M882.7 72L882.7 332" stroke="#E1E3EB" stroke-width="0.75"/>
        <path d="M935.838 347V340.474L934.415 341.335V340.29L935.838 339.44H936.788V347H935.838ZM944.991 347.158C943.952 347.158 943.101 346.317 943.101 345.267C943.101 344.238 943.983 343.377 944.991 343.377C946.031 343.377 946.881 344.217 946.881 345.267C946.881 346.317 946.031 347.158 944.991 347.158ZM938.681 341.172C938.681 340.143 939.563 339.282 940.571 339.282C941.61 339.282 942.461 340.122 942.461 341.172C942.461 342.222 941.61 343.062 940.571 343.062C939.531 343.062 938.681 342.222 938.681 341.172ZM938.996 346.37L945.936 339.44L946.566 340.07L939.626 347L938.996 346.37ZM939.505 341.172C939.505 341.75 939.993 342.238 940.571 342.238C941.148 342.238 941.636 341.75 941.636 341.172C941.636 340.595 941.148 340.107 940.571 340.107C939.993 340.107 939.505 340.595 939.505 341.172ZM943.925 345.267C943.925 345.845 944.414 346.333 944.991 346.333C945.569 346.333 946.057 345.845 946.057 345.267C946.057 344.69 945.569 344.202 944.991 344.202C944.414 344.202 943.925 344.69 943.925 345.267Z" fill="#110529"/>
        <path d="M940.9 72L940.9 332" stroke="#E1E3EB" stroke-width="0.75"/>
        <path d="M674.5 332H974.5" stroke="#110529" stroke-width="0.75" stroke-linecap="square"/>
        <path d="M178.235 365V357.44H183.013V358.327H179.17V360.695H182.383V361.582H179.17V364.113H183.013V365H178.235ZM184.275 365V359.33H185.109V360.228C185.235 360.007 185.403 359.813 185.592 359.676C186.028 359.325 186.695 359.22 187.199 359.33V360.207C186.805 360.107 186.296 360.133 185.902 360.422C185.351 360.816 185.214 361.482 185.214 362.154V365H184.275ZM188.192 365V359.33H189.026V360.228C189.152 360.007 189.32 359.813 189.509 359.676C189.945 359.325 190.612 359.22 191.116 359.33V360.207C190.722 360.107 190.213 360.133 189.819 360.422C189.268 360.816 189.131 361.482 189.131 362.154V365H188.192ZM194.421 365.158C192.725 365.158 191.691 363.918 191.691 362.16C191.691 360.38 192.757 359.172 194.421 359.172C196.122 359.172 197.156 360.406 197.156 362.16C197.156 363.939 196.106 365.158 194.421 365.158ZM192.683 362.16C192.683 363.441 193.276 364.27 194.421 364.27C195.592 364.27 196.164 363.409 196.164 362.16C196.164 360.884 195.581 360.06 194.421 360.06C193.234 360.06 192.683 360.921 192.683 362.16ZM198.312 365V359.33H199.147V360.228C199.273 360.007 199.441 359.813 199.63 359.676C200.066 359.325 200.732 359.22 201.236 359.33V360.207C200.843 360.107 200.333 360.133 199.94 360.422C199.388 360.816 199.252 361.482 199.252 362.154V365H198.312ZM204.331 365V359.33H205.166V360.228C205.292 360.007 205.46 359.813 205.649 359.676C206.085 359.325 206.751 359.22 207.255 359.33V360.207C206.862 360.107 206.352 360.133 205.959 360.422C205.407 360.816 205.271 361.482 205.271 362.154V365H204.331ZM209.675 365.158C208.405 365.158 207.749 364.38 207.749 363.467C207.749 362.574 208.279 362.055 209.14 361.803C209.849 361.614 210.846 361.493 211.686 361.377C211.66 360.474 211.271 360.044 210.29 360.044C209.602 360.044 209.051 360.343 208.846 361.036L207.959 360.768C208.226 359.776 209.019 359.172 210.3 359.172C211.324 359.172 212.096 359.54 212.421 360.28C212.579 360.632 212.605 361.047 212.605 361.493V365H211.775V364.118C211.324 364.811 210.62 365.158 209.675 365.158ZM208.678 363.462C208.678 363.929 209.009 364.375 209.817 364.375C210.825 364.375 211.445 363.771 211.581 363.068C211.66 362.795 211.67 362.433 211.676 362.175C210.878 362.28 210.111 362.37 209.56 362.527C209.093 362.674 208.678 362.931 208.678 363.462ZM217.136 365C216.122 365.205 215.078 365.089 214.684 364.317C214.458 363.876 214.49 363.446 214.49 362.858V360.102H213.34V359.33H214.49V357.755H215.424V359.33H217.136V360.102H215.424V362.816C215.424 363.283 215.403 363.598 215.54 363.834C215.792 364.286 216.359 364.317 217.136 364.197V365ZM220.508 365.158C218.833 365.158 217.736 363.976 217.736 362.202C217.736 360.343 218.817 359.172 220.466 359.172C222.172 359.172 223.17 360.411 223.086 362.427H218.739C218.812 363.603 219.421 364.27 220.466 364.27C221.211 364.27 221.778 363.918 222.093 363.273L222.991 363.582C222.545 364.585 221.605 365.158 220.508 365.158ZM218.754 361.677H222.114C221.999 360.564 221.458 360.012 220.497 360.012C219.479 360.012 218.886 360.6 218.754 361.677Z" fill="#110529"/>
        <path d="M490.235 365V357.44H495.013V358.327H491.17V360.695H494.383V361.582H491.17V364.113H495.013V365H490.235ZM496.275 365V359.33H497.109V360.228C497.235 360.007 497.403 359.813 497.592 359.676C498.028 359.325 498.695 359.22 499.199 359.33V360.207C498.805 360.107 498.296 360.133 497.902 360.422C497.351 360.816 497.214 361.482 497.214 362.154V365H496.275ZM500.192 365V359.33H501.026V360.228C501.152 360.007 501.32 359.813 501.509 359.676C501.945 359.325 502.612 359.22 503.116 359.33V360.207C502.722 360.107 502.213 360.133 501.819 360.422C501.268 360.816 501.131 361.482 501.131 362.154V365H500.192ZM506.421 365.158C504.725 365.158 503.691 363.918 503.691 362.16C503.691 360.38 504.757 359.172 506.421 359.172C508.122 359.172 509.156 360.406 509.156 362.16C509.156 363.939 508.106 365.158 506.421 365.158ZM504.683 362.16C504.683 363.441 505.276 364.27 506.421 364.27C507.592 364.27 508.164 363.409 508.164 362.16C508.164 360.884 507.581 360.06 506.421 360.06C505.234 360.06 504.683 360.921 504.683 362.16ZM510.312 365V359.33H511.147V360.228C511.273 360.007 511.441 359.813 511.63 359.676C512.066 359.325 512.732 359.22 513.236 359.33V360.207C512.843 360.107 512.333 360.133 511.94 360.422C511.388 360.816 511.252 361.482 511.252 362.154V365H510.312ZM516.331 365V359.33H517.166V360.228C517.292 360.007 517.46 359.813 517.649 359.676C518.085 359.325 518.751 359.22 519.255 359.33V360.207C518.862 360.107 518.352 360.133 517.959 360.422C517.407 360.816 517.271 361.482 517.271 362.154V365H516.331ZM521.675 365.158C520.405 365.158 519.749 364.38 519.749 363.467C519.749 362.574 520.279 362.055 521.14 361.803C521.849 361.614 522.846 361.493 523.686 361.377C523.66 360.474 523.271 360.044 522.29 360.044C521.602 360.044 521.051 360.343 520.846 361.036L519.959 360.768C520.226 359.776 521.019 359.172 522.3 359.172C523.324 359.172 524.096 359.54 524.421 360.28C524.579 360.632 524.605 361.047 524.605 361.493V365H523.775V364.118C523.324 364.811 522.62 365.158 521.675 365.158ZM520.678 363.462C520.678 363.929 521.009 364.375 521.817 364.375C522.825 364.375 523.445 363.771 523.581 363.068C523.66 362.795 523.67 362.433 523.676 362.175C522.878 362.28 522.111 362.37 521.56 362.527C521.093 362.674 520.678 362.931 520.678 363.462ZM529.136 365C528.122 365.205 527.078 365.089 526.684 364.317C526.458 363.876 526.49 363.446 526.49 362.858V360.102H525.34V359.33H526.49V357.755H527.424V359.33H529.136V360.102H527.424V362.816C527.424 363.283 527.403 363.598 527.54 363.834C527.792 364.286 528.359 364.317 529.136 364.197V365ZM532.508 365.158C530.833 365.158 529.736 363.976 529.736 362.202C529.736 360.343 530.817 359.172 532.466 359.172C534.172 359.172 535.17 360.411 535.086 362.427H530.739C530.812 363.603 531.421 364.27 532.466 364.27C533.211 364.27 533.778 363.918 534.093 363.273L534.991 363.582C534.545 364.585 533.605 365.158 532.508 365.158ZM530.754 361.677H534.114C533.999 360.564 533.458 360.012 532.497 360.012C531.479 360.012 530.886 360.6 530.754 361.677Z" fill="#110529"/>
        <path d="M802.235 365V357.44H807.013V358.327H803.17V360.695H806.383V361.582H803.17V364.113H807.013V365H802.235ZM808.275 365V359.33H809.109V360.228C809.235 360.007 809.403 359.813 809.592 359.676C810.028 359.325 810.695 359.22 811.199 359.33V360.207C810.805 360.107 810.296 360.133 809.902 360.422C809.351 360.816 809.214 361.482 809.214 362.154V365H808.275ZM812.192 365V359.33H813.026V360.228C813.152 360.007 813.32 359.813 813.509 359.676C813.945 359.325 814.612 359.22 815.116 359.33V360.207C814.722 360.107 814.213 360.133 813.819 360.422C813.268 360.816 813.131 361.482 813.131 362.154V365H812.192ZM818.421 365.158C816.725 365.158 815.691 363.918 815.691 362.16C815.691 360.38 816.757 359.172 818.421 359.172C820.122 359.172 821.156 360.406 821.156 362.16C821.156 363.939 820.106 365.158 818.421 365.158ZM816.683 362.16C816.683 363.441 817.276 364.27 818.421 364.27C819.592 364.27 820.164 363.409 820.164 362.16C820.164 360.884 819.581 360.06 818.421 360.06C817.234 360.06 816.683 360.921 816.683 362.16ZM822.312 365V359.33H823.147V360.228C823.273 360.007 823.441 359.813 823.63 359.676C824.066 359.325 824.732 359.22 825.236 359.33V360.207C824.843 360.107 824.333 360.133 823.94 360.422C823.388 360.816 823.252 361.482 823.252 362.154V365H822.312ZM828.331 365V359.33H829.166V360.228C829.292 360.007 829.46 359.813 829.649 359.676C830.085 359.325 830.751 359.22 831.255 359.33V360.207C830.862 360.107 830.352 360.133 829.959 360.422C829.407 360.816 829.271 361.482 829.271 362.154V365H828.331ZM833.675 365.158C832.405 365.158 831.749 364.38 831.749 363.467C831.749 362.574 832.279 362.055 833.14 361.803C833.849 361.614 834.846 361.493 835.686 361.377C835.66 360.474 835.271 360.044 834.29 360.044C833.602 360.044 833.051 360.343 832.846 361.036L831.959 360.768C832.226 359.776 833.019 359.172 834.3 359.172C835.324 359.172 836.096 359.54 836.421 360.28C836.579 360.632 836.605 361.047 836.605 361.493V365H835.775V364.118C835.324 364.811 834.62 365.158 833.675 365.158ZM832.678 363.462C832.678 363.929 833.009 364.375 833.817 364.375C834.825 364.375 835.445 363.771 835.581 363.068C835.66 362.795 835.67 362.433 835.676 362.175C834.878 362.28 834.111 362.37 833.56 362.527C833.093 362.674 832.678 362.931 832.678 363.462ZM841.136 365C840.122 365.205 839.078 365.089 838.684 364.317C838.458 363.876 838.49 363.446 838.49 362.858V360.102H837.34V359.33H838.49V357.755H839.424V359.33H841.136V360.102H839.424V362.816C839.424 363.283 839.403 363.598 839.54 363.834C839.792 364.286 840.359 364.317 841.136 364.197V365ZM844.508 365.158C842.833 365.158 841.736 363.976 841.736 362.202C841.736 360.343 842.817 359.172 844.466 359.172C846.172 359.172 847.17 360.411 847.086 362.427H842.739C842.812 363.603 843.421 364.27 844.466 364.27C845.211 364.27 845.778 363.918 846.093 363.273L846.991 363.582C846.545 364.585 845.605 365.158 844.508 365.158ZM842.754 361.677H846.114C845.999 360.564 845.458 360.012 844.497 360.012C843.479 360.012 842.886 360.6 842.754 361.677Z" fill="#110529"/>
        <rect x="60" y="99.25" width="48" height="1.5" fill="url(#paint0_linear_14947_8150)" stroke="#110529" stroke-width="0.75"/>
        <rect x="118" y="100.25" width="48" height="1.5" fill="url(#paint1_linear_14947_8150)" stroke="#110529" stroke-width="0.75"/>
        <rect x="176.5" y="101.25" width="48" height="1.5" fill="url(#paint2_linear_14947_8150)" stroke="#110529" stroke-width="0.75"/>
        <rect x="234.5" y="103" width="48" height="2" fill="url(#paint3_linear_14947_8150)" stroke="#110529" stroke-width="0.75"/>
        <rect x="293" y="104" width="48" height="1.5" fill="url(#paint4_linear_14947_8150)" stroke="#110529" stroke-width="0.75"/>
        <path d="M329 103.5H317M305 103.5H317M317 103.5V104" stroke="#110529" stroke-width="0.75"/>
        <path d="M270.5 102.5H258.5M246.5 102.5H258.5M258.5 102.5V103" stroke="#110529" stroke-width="0.75"/>
        <path d="M212.5 101H200.5M188.5 101H200.5M200.5 101V101.5" stroke="#110529" stroke-width="0.75"/>
        <path d="M154 99.75H142M130 99.75H142M142 99.75V100.25" stroke="#110529" stroke-width="0.75"/>
        <path d="M96 98.75H84M72 98.75H84M84 98.75V99.25" stroke="#110529" stroke-width="0.75"/>
        <path d="M96 101.25H84M72 101.25H84M84 101.25V100.75" stroke="#110529" stroke-width="0.75"/>
        <path d="M154 102.25H142M130 102.25H142M142 102.25V101.75" stroke="#110529" stroke-width="0.75"/>
        <path d="M212.5 103.25H200.5M188.5 103.25H200.5M200.5 103.25V102.75" stroke="#110529" stroke-width="0.75"/>
        <path d="M270.5 105.25H258.5M246.5 105.25H258.5M258.5 105.25V104.75" stroke="#110529" stroke-width="0.75"/>
        <path d="M329 106H317M305 106H317M317 106V105.5" stroke="#110529" stroke-width="0.75"/>
        <circle cx="89" cy="100" r="2" fill="#110529"/>
        <circle cx="87" cy="99.5" r="2" fill="#110529"/>
        <circle cx="89.5" cy="101" r="2" fill="#110529"/>
        <circle cx="146.5" cy="101" r="2" fill="#110529"/>
        <circle cx="141" cy="101" r="2" fill="#110529"/>
        <circle cx="139" cy="102.5" r="2" fill="#110529"/>
        <circle cx="203" cy="102.5" r="2" fill="#110529"/>
        <circle cx="200.5" cy="103" r="2" fill="#110529"/>
        <circle cx="204.5" cy="101" r="2" fill="#110529"/>
        <circle cx="257" cy="104" r="2" fill="#110529"/>
        <circle cx="261" cy="104" r="2" fill="#110529"/>
        <circle cx="253.5" cy="106" r="2" fill="#110529"/>
        <circle cx="312" cy="106" r="2" fill="#110529"/>
        <circle cx="315" cy="106" r="2" fill="#110529"/>
        <circle cx="322" cy="104.5" r="2" fill="#110529"/>
        <path d="M641 153.5H629M617 153.5H629M629 153.5V150" stroke="#110529" stroke-width="0.75"/>
        <path d="M582.5 136.5H570.5M558.5 136.5H570.5M570.5 136.5V135.5" stroke="#110529" stroke-width="0.75"/>
        <path d="M524.5 129.5H512.5M500.5 129.5H512.5M512.5 129.5V128.5" stroke="#110529" stroke-width="0.75"/>
        <path d="M466.5 120.5H454.5M442.5 120.5H454.5M454.5 120.5V119.5" stroke="#110529" stroke-width="0.75"/>
        <path d="M408 111.5H396M384 111.5H396M396 111.5V110.5" stroke="#110529" stroke-width="0.75"/>
        <path d="M641 144H629M617 144H629M629 144V145.5" stroke="#110529" stroke-width="0.75"/>
        <path d="M582.5 133.5H570.5M558.5 133.5H570.5M570.5 133.5V134.5" stroke="#110529" stroke-width="0.75"/>
        <path d="M524.5 123.5H512.5M500.5 123.5H512.5M512.5 123.5V126" stroke="#110529" stroke-width="0.75"/>
        <path d="M466.5 116.5H454.5M442.5 116.5H454.5M454.5 116.5V117.5" stroke="#110529" stroke-width="0.75"/>
        <path d="M408 109H396M384 109H396M396 109V109.5" stroke="#110529" stroke-width="0.75"/>
        <rect x="372" y="109.5" width="48" height="1.5" fill="#D3D7E0" stroke="#110529" stroke-width="0.75"/>
        <rect x="430" y="118.5" width="48" height="1.5" fill="#D3D7E0" stroke="#110529" stroke-width="0.75"/>
        <rect x="430" y="117" width="48" height="1.5" fill="#D3D7E0" stroke="#110529" stroke-width="0.75"/>
        <rect x="488.5" y="126" width="48" height="2.5" fill="#D3D7E0" stroke="#110529" stroke-width="0.75"/>
        <rect x="488.5" y="127.5" width="48" height="1" fill="#D3D7E0" stroke="#110529" stroke-width="0.75"/>
        <rect x="546.5" y="134" width="48" height="1.5" fill="#D3D7E0" stroke="#110529" stroke-width="0.75"/>
        <rect width="48" height="0.5" transform="matrix(1 0 0 -1 546.5 136)" fill="#D3D7E0" stroke="#110529" stroke-width="0.75"/>
        <rect x="605" y="145.5" width="48" height="2" fill="#D3D7E0" stroke="#110529" stroke-width="0.75"/>
        <rect width="48" height="2.5" transform="matrix(1 0 0 -1 605 150)" fill="#D3D7E0" stroke="#110529" stroke-width="0.75"/>
        <circle cx="401.5" cy="112.5" r="2" fill="#110529"/>
        <circle cx="394" cy="110" r="2" fill="#110529"/>
        <circle cx="400.5" cy="109" r="2" fill="#110529"/>
        <circle cx="452.5" cy="116.5" r="2" fill="#110529"/>
        <circle cx="449" cy="121" r="2" fill="#110529"/>
        <circle cx="449" cy="118" r="2" fill="#110529"/>
        <circle cx="510.5" cy="123.5" r="2" fill="#110529"/>
        <circle cx="511.5" cy="125.5" r="2" fill="#110529"/>
        <circle cx="515.5" cy="129.5" r="2" fill="#110529"/>
        <circle cx="572" cy="133.5" r="2" fill="#110529"/>
        <circle cx="572.5" cy="136.5" r="2" fill="#110529"/>
        <circle cx="569.5" cy="135.5" r="2" fill="#110529"/>
        <circle cx="624" cy="144.5" r="2" fill="#110529"/>
        <circle cx="628.5" cy="153.5" r="2" fill="#110529"/>
        <circle cx="632" cy="147" r="2" fill="#110529"/>
        <rect x="684" y="227" width="48" height="6.5" fill="#929BAD" stroke="#110529" stroke-width="0.75"/>
        <rect x="684" y="233.5" width="48" height="10.5" fill="#929BAD" stroke="#110529" stroke-width="0.75"/>
        <rect x="742" y="225.5" width="48" height="6" fill="#929BAD" stroke="#110529" stroke-width="0.75"/>
        <rect x="742" y="231.5" width="48" height="10" fill="#929BAD" stroke="#110529" stroke-width="0.75"/>
        <rect x="800.5" y="227" width="48" height="3.5" fill="#929BAD" stroke="#110529" stroke-width="0.75"/>
        <rect x="800.5" y="230.5" width="48" height="11.5" fill="#929BAD" stroke="#110529" stroke-width="0.75"/>
        <rect x="858.5" y="233.5" width="48" height="3" fill="#929BAD" stroke="#110529" stroke-width="0.75"/>
        <rect width="48" height="8" transform="matrix(1 0 0 -1 858.5 244.5)" fill="#929BAD" stroke="#110529" stroke-width="0.75"/>
        <rect x="917" y="246" width="48" height="2" fill="#929BAD" stroke="#110529" stroke-width="0.75"/>
        <rect width="48" height="6.5" transform="matrix(1 0 0 -1 917 254.5)" fill="#929BAD" stroke="#110529" stroke-width="0.75"/>
        <circle cx="703" cy="255.5" r="2" fill="#110529"/>
        <circle cx="703" cy="221" r="2" fill="#110529"/>
        <circle cx="711.5" cy="234" r="2" fill="#110529"/>
        <circle cx="770" cy="252" r="2" fill="#110529"/>
        <circle cx="767" cy="220.5" r="2" fill="#110529"/>
        <circle cx="770" cy="231.5" r="2" fill="#110529"/>
        <circle cx="828" cy="223.5" r="2" fill="#110529"/>
        <circle cx="829" cy="230.5" r="2" fill="#110529"/>
        <circle cx="827.5" cy="253.5" r="2" fill="#110529"/>
        <circle cx="886" cy="236.5" r="2" fill="#110529"/>
        <circle cx="879" cy="252.5" r="2" fill="#110529"/>
        <circle cx="887.5" cy="231" r="2" fill="#110529"/>
        <circle cx="945" cy="244" r="2" fill="#110529"/>
        <circle cx="937" cy="248.5" r="2" fill="#110529"/>
        <circle cx="945" cy="261" r="2" fill="#110529"/>
        <path d="M836.5 253.5H824.5M812.5 253.5H824.5M824.5 253.5V242" stroke="#110529" stroke-width="0.75"/>
        <path d="M778 252H766M754 252H766M766 252V241.5" stroke="#110529" stroke-width="0.75"/>
        <path d="M720 255.5H708M696 255.5H708M708 255.5V244" stroke="#110529" stroke-width="0.75"/>
        <path d="M894.5 252.5H882.5M870.5 252.5H882.5M882.5 252.5V244.5" stroke="#110529" stroke-width="0.75"/>
        <path d="M953 261.5H941M929 261.5H941M941 261.5V254.5" stroke="#110529" stroke-width="0.75"/>
        <path d="M836.5 223.5H824.5M812.5 223.5H824.5M824.5 223.5V227" stroke="#110529" stroke-width="0.75"/>
        <path d="M778.5 220H766.5M754.5 220H766.5M766.5 220V225.5" stroke="#110529" stroke-width="0.75"/>
        <path d="M720 220.5H708M696 220.5H708M708 220.5V227" stroke="#110529" stroke-width="0.75"/>
        <path d="M894.5 231H882.5M870.5 231H882.5M882.5 231V233.5" stroke="#110529" stroke-width="0.75"/>
        <path d="M953 244H941M929 244H941M941 244V246" stroke="#110529" stroke-width="0.75"/>
        <path d="M51.54 27L51.54 11.16H53.619L59.361 23.073L65.07 11.16L67.171 11.16L67.171 26.989H64.993L64.993 16.154L59.878 27H58.833L53.707 16.154L53.707 27H51.54ZM70.2529 13.173L70.2529 10.94H72.5519L72.5519 13.173H70.2529ZM70.2529 27L70.2529 15.12H72.5519L72.5519 27H70.2529ZM74.3152 27L79.7162 18.981L74.4582 11.16H77.2742L81.1352 17.034L84.9742 11.16H87.8012L82.5432 18.981L87.9332 27H85.1172L81.1352 20.939L77.1422 27H74.3152ZM95.4109 27.33C90.6589 27.33 87.9199 23.975 87.9199 19.08C87.9199 14.185 90.6589 10.83 95.4109 10.83C99.0629 10.83 101.516 12.821 102.451 15.945L100.119 16.572C99.4919 14.361 97.9189 13.019 95.4109 13.019C92.0449 13.019 90.3619 15.45 90.3509 19.08C90.3289 22.71 92.0449 25.141 95.4109 25.141C97.9189 25.141 99.4919 23.799 100.119 21.588L102.451 22.215C101.516 25.339 99.0629 27.33 95.4109 27.33ZM104.65 27L104.65 11.16L111.052 11.16C111.36 11.16 111.855 11.182 112.273 11.248C114.924 11.655 116.244 13.668 116.244 16.231C116.244 18.343 115.342 20.081 113.549 20.862L116.541 27H113.912L111.151 21.313L106.949 21.313L106.949 27L104.65 27ZM106.949 19.135L110.964 19.135C111.25 19.135 111.635 19.113 111.965 19.036C113.373 18.695 113.901 17.397 113.901 16.231C113.901 15.065 113.373 13.767 111.965 13.437C111.635 13.349 111.25 13.327 110.964 13.327L106.949 13.327L106.949 19.135ZM137.168 19.597C137.168 17.892 136.2 16.869 134.77 16.869C133.461 16.869 132.35 17.782 132.35 19.575L132.339 27H130.04L130.051 19.641C130.051 17.925 129.105 16.869 127.642 16.869C126.19 16.869 125.222 17.958 125.222 19.575L125.222 27H122.912L122.912 15.12L124.958 15.12L124.958 16.396C125.717 15.428 126.938 14.823 128.368 14.823C130.007 14.823 131.195 15.549 131.822 16.748C132.548 15.549 133.879 14.823 135.43 14.823C137.982 14.823 139.467 16.495 139.467 19.047L139.456 27H137.157L137.168 19.597ZM145.459 27.33C142.83 27.33 141.444 25.702 141.444 23.766C141.444 21.973 142.412 20.829 144.249 20.246C145.624 19.839 147.582 19.586 149.507 19.322C149.43 17.683 148.682 16.913 146.823 16.913C145.569 16.913 144.425 17.463 144.018 18.783L141.873 18.123C142.445 16.088 144.095 14.79 146.845 14.79C148.968 14.79 150.618 15.494 151.355 17.056C151.729 17.837 151.773 18.695 151.773 19.685L151.773 27H149.738L149.738 25.273C148.759 26.67 147.384 27.33 145.459 27.33ZM143.721 23.744C143.721 24.668 144.392 25.449 145.866 25.449C147.824 25.449 148.979 24.25 149.243 23.095C149.43 22.545 149.474 21.786 149.485 21.236C147.692 21.5 146.361 21.687 145.36 21.984C144.414 22.303 143.721 22.809 143.721 23.744ZM154.629 13.173L154.629 10.94H156.928L156.928 13.173H154.629ZM154.629 27L154.629 15.12H156.928L156.928 27H154.629ZM168.349 21.159C168.349 19.311 167.876 16.979 165.346 16.979C163.696 16.979 162.332 18.002 162.332 20.818L162.332 27H160L160 15.12H162.057L162.057 16.539C162.926 15.45 164.257 14.801 165.984 14.801C170.076 14.801 170.681 18.563 170.681 20.4L170.681 27H168.349L168.349 21.159ZM180.124 27C177.891 27.44 175.592 27.209 174.723 25.559C174.206 24.58 174.283 23.623 174.283 22.325L174.283 16.968H172.006L172.006 15.12L174.283 15.12L174.283 11.82L176.593 11.82L176.593 15.12H180.124L180.124 16.968H176.593L176.593 22.215C176.593 23.172 176.549 23.865 176.835 24.349C177.363 25.251 178.573 25.284 180.124 25.053L180.124 27ZM185.764 27.33C183.135 27.33 181.749 25.702 181.749 23.766C181.749 21.973 182.717 20.829 184.554 20.246C185.929 19.839 187.887 19.586 189.812 19.322C189.735 17.683 188.987 16.913 187.128 16.913C185.874 16.913 184.73 17.463 184.323 18.783L182.178 18.123C182.75 16.088 184.4 14.79 187.15 14.79C189.273 14.79 190.923 15.494 191.66 17.056C192.034 17.837 192.078 18.695 192.078 19.685L192.078 27H190.043L190.043 25.273C189.064 26.67 187.689 27.33 185.764 27.33ZM184.026 23.744C184.026 24.668 184.697 25.449 186.171 25.449C188.129 25.449 189.284 24.25 189.548 23.095C189.735 22.545 189.779 21.786 189.79 21.236C187.997 21.5 186.666 21.687 185.665 21.984C184.719 22.303 184.026 22.809 184.026 23.744ZM194.934 13.173L194.934 10.94H197.233L197.233 13.173H194.934ZM194.934 27L194.934 15.12L197.233 15.12L197.233 27H194.934ZM208.655 21.159C208.655 19.311 208.182 16.979 205.652 16.979C204.002 16.979 202.638 18.002 202.638 20.818L202.638 27H200.306L200.306 15.12H202.363L202.363 16.539C203.232 15.45 204.563 14.801 206.29 14.801C210.382 14.801 210.987 18.563 210.987 20.4L210.987 27H208.655L208.655 21.159ZM218.175 27.319C215.282 27.319 213.379 25.988 212.972 23.667L215.326 23.304C215.623 24.547 216.745 25.295 218.329 25.295C219.759 25.295 220.628 24.679 220.628 23.645C220.628 22.743 220.232 22.501 217.438 21.753C214.369 20.95 213.357 20.103 213.357 18.354C213.357 16.198 215.183 14.79 217.977 14.79C220.705 14.79 222.663 16.165 222.927 18.277L220.573 18.706C220.408 17.573 219.451 16.869 217.999 16.814C216.602 16.759 215.656 17.331 215.656 18.233C215.656 19.025 216.195 19.333 218.978 20.037C221.97 20.807 222.993 21.72 222.993 23.557C222.993 25.911 221.178 27.319 218.175 27.319ZM237.729 21.159C237.729 19.311 237.256 16.979 234.726 16.979C233.076 16.979 231.712 18.002 231.712 20.818L231.712 27H229.38L229.38 11.16H231.437L231.437 16.539C232.306 15.45 233.637 14.801 235.364 14.801C239.456 14.801 240.061 18.563 240.061 20.4L240.061 27L237.729 27L237.729 21.159ZM242.926 13.173L242.926 10.94L245.225 10.94L245.225 13.173H242.926ZM242.926 27L242.926 15.12H245.225L245.225 27H242.926ZM253.204 32.61C251.29 32.61 249.464 31.708 248.496 30.014L250.619 28.936C251.136 29.948 252.17 30.399 253.226 30.399C255.184 30.399 256.328 29.343 256.295 27.297L256.295 26.175C255.459 26.912 254.37 27.33 253.028 27.33C249.717 27.33 247.649 24.613 247.649 21.049C247.649 17.463 249.728 14.79 253.072 14.79C254.546 14.79 255.723 15.307 256.57 16.187L256.57 15.12L258.605 15.12L258.605 27.319C258.605 27.957 258.572 28.518 258.451 29.079C257.956 31.488 255.976 32.61 253.204 32.61ZM250.091 21.049C250.091 23.403 251.136 25.251 253.347 25.251C255.613 25.251 256.57 23.513 256.57 21.049C256.57 18.585 255.591 16.869 253.424 16.869C251.136 16.869 250.091 18.717 250.091 21.049ZM269.811 21.159C269.811 19.311 269.338 16.979 266.808 16.979C265.158 16.979 263.794 18.002 263.794 20.818L263.794 27H261.462L261.462 11.16H263.519L263.519 16.539C264.388 15.45 265.719 14.801 267.446 14.801C271.538 14.801 272.143 18.563 272.143 20.4L272.143 27H269.811L269.811 21.159ZM280.057 27.33C276.504 27.33 274.128 24.833 274.128 21.159C274.128 17.265 276.471 14.79 279.947 14.79C283.577 14.79 285.689 17.452 285.447 21.709H276.592C276.779 23.909 277.945 25.163 279.947 25.163C281.377 25.163 282.455 24.492 283.038 23.271L285.293 23.986C284.369 26.109 282.356 27.33 280.057 27.33ZM276.647 19.916H283.093C282.851 17.826 281.861 16.825 280.035 16.825C278.066 16.825 276.944 17.903 276.647 19.916ZM292.238 27.319C289.345 27.319 287.442 25.988 287.035 23.667L289.389 23.304C289.686 24.547 290.808 25.295 292.392 25.295C293.822 25.295 294.691 24.679 294.691 23.645C294.691 22.743 294.295 22.501 291.501 21.753C288.432 20.95 287.42 20.103 287.42 18.354C287.42 16.198 289.246 14.79 292.04 14.79C294.768 14.79 296.726 16.165 296.99 18.277L294.636 18.706C294.471 17.573 293.514 16.869 292.062 16.814C290.665 16.759 289.719 17.331 289.719 18.233C289.719 19.025 290.258 19.333 293.041 20.037C296.033 20.807 297.056 21.72 297.056 23.557C297.056 25.911 295.241 27.319 292.238 27.319ZM306.068 27C303.835 27.44 301.536 27.209 300.667 25.559C300.15 24.58 300.227 23.623 300.227 22.325L300.227 16.968H297.95L297.95 15.12H300.227L300.227 11.82H302.537L302.537 15.12H306.068L306.068 16.968H302.537L302.537 22.215C302.537 23.172 302.493 23.865 302.779 24.349C303.307 25.251 304.517 25.284 306.068 25.053L306.068 27ZM317.08 27.319C314.187 27.319 312.284 25.988 311.877 23.667L314.231 23.304C314.528 24.547 315.65 25.295 317.234 25.295C318.664 25.295 319.533 24.679 319.533 23.645C319.533 22.743 319.137 22.501 316.343 21.753C313.274 20.95 312.262 20.103 312.262 18.354C312.262 16.198 314.088 14.79 316.882 14.79C319.61 14.79 321.568 16.165 321.832 18.277L319.478 18.706C319.313 17.573 318.356 16.869 316.904 16.814C315.507 16.759 314.561 17.331 314.561 18.233C314.561 19.025 315.1 19.333 317.883 20.037C320.875 20.807 321.898 21.72 321.898 23.557C321.898 25.911 320.083 27.319 317.08 27.319ZM329.381 27.33C325.828 27.33 323.452 24.833 323.452 21.159C323.452 17.265 325.795 14.79 329.271 14.79C332.901 14.79 335.013 17.452 334.771 21.709L325.916 21.709C326.103 23.909 327.269 25.163 329.271 25.163C330.701 25.163 331.779 24.492 332.362 23.271L334.617 23.986C333.693 26.109 331.68 27.33 329.381 27.33ZM325.971 19.916L332.417 19.916C332.175 17.826 331.185 16.825 329.359 16.825C327.39 16.825 326.268 17.903 325.971 19.916ZM345.035 21.159C345.035 19.311 344.562 16.979 342.032 16.979C340.382 16.979 339.018 18.002 339.018 20.818L339.018 27H336.686L336.686 15.12H338.743L338.743 16.539C339.612 15.45 340.943 14.801 342.67 14.801C346.762 14.801 347.367 18.563 347.367 20.4L347.367 27H345.035L345.035 21.159ZM354.555 27.319C351.662 27.319 349.759 25.988 349.352 23.667L351.706 23.304C352.003 24.547 353.125 25.295 354.709 25.295C356.139 25.295 357.008 24.679 357.008 23.645C357.008 22.743 356.612 22.501 353.818 21.753C350.749 20.95 349.737 20.103 349.737 18.354C349.737 16.198 351.563 14.79 354.357 14.79C357.085 14.79 359.043 16.165 359.307 18.277L356.953 18.706C356.788 17.573 355.831 16.869 354.379 16.814C352.982 16.759 352.036 17.331 352.036 18.233C352.036 19.025 352.575 19.333 355.358 20.037C358.35 20.807 359.373 21.72 359.373 23.557C359.373 25.911 357.558 27.319 354.555 27.319ZM361.807 13.173L361.807 10.94H364.106L364.106 13.173H361.807ZM361.807 27L361.807 15.12H364.106L364.106 27H361.807ZM373.987 27C371.754 27.44 369.455 27.209 368.586 25.559C368.069 24.58 368.146 23.623 368.146 22.325L368.146 16.968H365.869L365.869 15.12L368.146 15.12L368.146 11.82H370.456L370.456 15.12L373.987 15.12L373.987 16.968L370.456 16.968L370.456 22.215C370.456 23.172 370.412 23.865 370.698 24.349C371.226 25.251 372.436 25.284 373.987 25.053L373.987 27ZM376.492 13.173L376.492 10.94H378.791L378.791 13.173H376.492ZM376.492 27L376.492 15.12H378.791L378.791 27H376.492ZM385.086 27L380.774 15.12H383.095L386.252 24.118L389.409 15.12L391.73 15.12L387.418 27H385.086ZM393.712 13.173L393.712 10.94H396.011L396.011 13.173H393.712ZM393.712 27L393.712 15.12L396.011 15.12L396.011 27H393.712ZM405.892 27C403.659 27.44 401.36 27.209 400.491 25.559C399.974 24.58 400.051 23.623 400.051 22.325L400.051 16.968H397.774L397.774 15.12H400.051L400.051 11.82H402.361L402.361 15.12H405.892L405.892 16.968H402.361L402.361 22.215C402.361 23.172 402.317 23.865 402.603 24.349C403.131 25.251 404.341 25.284 405.892 25.053L405.892 27ZM409.461 32.28L411.419 26.945L406.612 15.12H409.01L412.519 24.052L415.874 15.12L418.206 15.12L411.65 32.28H409.461ZM427.248 27.33C424.619 27.33 423.233 25.702 423.233 23.766C423.233 21.973 424.201 20.829 426.038 20.246C427.413 19.839 429.371 19.586 431.296 19.322C431.219 17.683 430.471 16.913 428.612 16.913C427.358 16.913 426.214 17.463 425.807 18.783L423.662 18.123C424.234 16.088 425.884 14.79 428.634 14.79C430.757 14.79 432.407 15.494 433.144 17.056C433.518 17.837 433.562 18.695 433.562 19.685L433.562 27H431.527L431.527 25.273C430.548 26.67 429.173 27.33 427.248 27.33ZM425.51 23.744C425.51 24.668 426.181 25.449 427.655 25.449C429.613 25.449 430.768 24.25 431.032 23.095C431.219 22.545 431.263 21.786 431.274 21.236C429.481 21.5 428.15 21.687 427.149 21.984C426.203 22.303 425.51 22.809 425.51 23.744ZM442.997 27C440.764 27.44 438.465 27.209 437.596 25.559C437.079 24.58 437.156 23.623 437.156 22.325L437.156 16.968H434.879L434.879 15.12H437.156L437.156 11.82H439.466L439.466 15.12H442.997L442.997 16.968H439.466L439.466 22.215C439.466 23.172 439.422 23.865 439.708 24.349C440.236 25.251 441.446 25.284 442.997 25.053L442.997 27ZM457.804 21.159C457.804 19.311 457.331 16.979 454.801 16.979C453.151 16.979 451.787 18.002 451.787 20.818L451.787 27H449.455L449.455 11.16H451.512L451.512 16.539C452.381 15.45 453.712 14.801 455.439 14.801C459.531 14.801 460.136 18.563 460.136 20.4L460.136 27L457.804 27L457.804 21.159ZM463.001 13.173L463.001 10.94L465.3 10.94L465.3 13.173H463.001ZM463.001 27L463.001 15.12H465.3L465.3 27H463.001ZM473.278 32.61C471.364 32.61 469.538 31.708 468.57 30.014L470.693 28.936C471.21 29.948 472.244 30.399 473.3 30.399C475.258 30.399 476.402 29.343 476.369 27.297L476.369 26.175C475.533 26.912 474.444 27.33 473.102 27.33C469.791 27.33 467.723 24.613 467.723 21.049C467.723 17.463 469.802 14.79 473.146 14.79C474.62 14.79 475.797 15.307 476.644 16.187L476.644 15.12L478.679 15.12L478.679 27.319C478.679 27.957 478.646 28.518 478.525 29.079C478.03 31.488 476.05 32.61 473.278 32.61ZM470.165 21.049C470.165 23.403 471.21 25.251 473.421 25.251C475.687 25.251 476.644 23.513 476.644 21.049C476.644 18.585 475.665 16.869 473.498 16.869C471.21 16.869 470.165 18.717 470.165 21.049ZM489.886 21.159C489.886 19.311 489.413 16.979 486.883 16.979C485.233 16.979 483.869 18.002 483.869 20.818L483.869 27H481.537L481.537 11.16H483.594L483.594 16.539C484.463 15.45 485.794 14.801 487.521 14.801C491.613 14.801 492.218 18.563 492.218 20.4L492.218 27H489.886L489.886 21.159ZM504.317 27.33C500.764 27.33 498.388 24.833 498.388 21.159C498.388 17.265 500.731 14.79 504.207 14.79C507.837 14.79 509.949 17.452 509.707 21.709L500.852 21.709C501.039 23.909 502.205 25.163 504.207 25.163C505.637 25.163 506.715 24.492 507.298 23.271L509.553 23.986C508.629 26.109 506.616 27.33 504.317 27.33ZM500.907 19.916H507.353C507.111 17.826 506.121 16.825 504.295 16.825C502.326 16.825 501.204 17.903 500.907 19.916ZM511.954 27L511.954 15.12H514L514 17.012C514.275 16.517 514.649 16.088 515.1 15.791C515.991 15.131 517.3 14.922 518.367 15.12L518.367 17.276C517.597 17.067 516.563 17.133 515.771 17.639C514.649 18.354 514.275 19.608 514.275 21.005L514.275 27H511.954ZM520.242 27L520.242 15.12L522.288 15.12L522.288 17.012C522.563 16.517 522.937 16.088 523.388 15.791C524.279 15.131 525.588 14.922 526.655 15.12L526.655 17.276C525.885 17.067 524.851 17.133 524.059 17.639C522.937 18.354 522.563 19.608 522.563 21.005L522.563 27H520.242ZM533.474 27.33C529.91 27.33 527.655 24.734 527.655 21.049C527.655 17.331 529.976 14.79 533.474 14.79C537.038 14.79 539.304 17.375 539.304 21.049C539.304 24.767 537.016 27.33 533.474 27.33ZM530.097 21.049C530.097 23.557 531.252 25.163 533.474 25.163C535.74 25.163 536.862 23.48 536.862 21.049C536.862 18.563 535.718 16.957 533.474 16.957C531.164 16.957 530.097 18.629 530.097 21.049ZM541.501 27L541.501 15.12H543.547L543.547 17.012C543.822 16.517 544.196 16.088 544.647 15.791C545.538 15.131 546.847 14.922 547.914 15.12L547.914 17.276C547.144 17.067 546.11 17.133 545.318 17.639C544.196 18.354 543.822 19.608 543.822 21.005L543.822 27H541.501ZM553.974 27L553.974 15.12H556.02L556.02 17.012C556.295 16.517 556.669 16.088 557.12 15.791C558.011 15.131 559.32 14.922 560.387 15.12L560.387 17.276C559.617 17.067 558.583 17.133 557.791 17.639C556.669 18.354 556.295 19.608 556.295 21.005L556.295 27H553.974ZM565.294 27.33C562.665 27.33 561.279 25.702 561.279 23.766C561.279 21.973 562.247 20.829 564.084 20.246C565.459 19.839 567.417 19.586 569.342 19.322C569.265 17.683 568.517 16.913 566.658 16.913C565.404 16.913 564.26 17.463 563.853 18.783L561.708 18.123C562.28 16.088 563.93 14.79 566.68 14.79C568.803 14.79 570.453 15.494 571.19 17.056C571.564 17.837 571.608 18.695 571.608 19.685L571.608 27H569.573L569.573 25.273C568.594 26.67 567.219 27.33 565.294 27.33ZM563.556 23.744C563.556 24.668 564.227 25.449 565.701 25.449C567.659 25.449 568.814 24.25 569.078 23.095C569.265 22.545 569.309 21.786 569.32 21.236C567.527 21.5 566.196 21.687 565.195 21.984C564.249 22.303 563.556 22.809 563.556 23.744ZM581.043 27C578.81 27.44 576.511 27.209 575.642 25.559C575.125 24.58 575.202 23.623 575.202 22.325L575.202 16.968H572.925L572.925 15.12H575.202L575.202 11.82H577.512L577.512 15.12H581.043L581.043 16.968H577.512L577.512 22.215C577.512 23.172 577.468 23.865 577.754 24.349C578.282 25.251 579.492 25.284 581.043 25.053L581.043 27ZM588.038 27.33C584.485 27.33 582.109 24.833 582.109 21.159C582.109 17.265 584.452 14.79 587.928 14.79C591.558 14.79 593.67 17.452 593.428 21.709H584.573C584.76 23.909 585.926 25.163 587.928 25.163C589.358 25.163 590.436 24.492 591.019 23.271L593.274 23.986C592.35 26.109 590.337 27.33 588.038 27.33ZM584.628 19.916H591.074C590.832 17.826 589.842 16.825 588.016 16.825C586.047 16.825 584.925 17.903 584.628 19.916ZM600.219 27.319C597.326 27.319 595.423 25.988 595.016 23.667L597.37 23.304C597.667 24.547 598.789 25.295 600.373 25.295C601.803 25.295 602.672 24.679 602.672 23.645C602.672 22.743 602.276 22.501 599.482 21.753C596.413 20.95 595.401 20.103 595.401 18.354C595.401 16.198 597.227 14.79 600.021 14.79C602.749 14.79 604.707 16.165 604.971 18.277L602.617 18.706C602.452 17.573 601.495 16.869 600.043 16.814C598.646 16.759 597.7 17.331 597.7 18.233C597.7 19.025 598.239 19.333 601.022 20.037C604.014 20.807 605.037 21.72 605.037 23.557C605.037 25.911 603.222 27.319 600.219 27.319Z" fill="#110529"/>
        <path d="M176.37 59L176.37 47.48H177.882L182.058 56.144L186.21 47.48H187.738L187.738 58.992H186.154L186.154 51.112L182.434 59H181.674L177.946 51.112L177.946 59H176.37ZM189.979 48.944L189.979 47.32H191.651L191.651 48.944H189.979ZM189.979 59L189.979 50.36H191.651L191.651 59H189.979ZM192.934 59L196.862 53.168L193.038 47.48H195.086L197.894 51.752L200.686 47.48H202.742L198.918 53.168L202.838 59H200.79L197.894 54.592L194.99 59H192.934ZM208.276 59.24C204.82 59.24 202.828 56.8 202.828 53.24C202.828 49.68 204.82 47.24 208.276 47.24C210.932 47.24 212.716 48.688 213.396 50.96L211.7 51.416C211.244 49.808 210.1 48.832 208.276 48.832C205.828 48.832 204.604 50.6 204.596 53.24C204.58 55.88 205.828 57.648 208.276 57.648C210.1 57.648 211.244 56.672 211.7 55.064L213.396 55.52C212.716 57.792 210.932 59.24 208.276 59.24ZM214.996 59L214.996 47.48H219.652C219.876 47.48 220.236 47.496 220.54 47.544C222.468 47.84 223.428 49.304 223.428 51.168C223.428 52.704 222.772 53.968 221.468 54.536L223.644 59H221.732L219.724 54.864H216.668L216.668 59H214.996ZM216.668 53.28H219.588C219.796 53.28 220.076 53.264 220.316 53.208C221.34 52.96 221.724 52.016 221.724 51.168C221.724 50.32 221.34 49.376 220.316 49.136C220.076 49.072 219.796 49.056 219.588 49.056H216.668L216.668 53.28Z" fill="#110529"/>
        <path d="M461.285 59L461.285 47.48H462.957L462.957 59H461.285ZM475.559 53.616C475.559 52.376 474.855 51.632 473.815 51.632C472.863 51.632 472.055 52.296 472.055 53.6L472.047 59H470.375L470.383 53.648C470.383 52.4 469.695 51.632 468.631 51.632C467.575 51.632 466.871 52.424 466.871 53.6L466.871 59H465.191L465.191 50.36H466.679L466.679 51.288C467.231 50.584 468.119 50.144 469.159 50.144C470.351 50.144 471.215 50.672 471.671 51.544C472.199 50.672 473.167 50.144 474.295 50.144C476.151 50.144 477.231 51.36 477.231 53.216L477.223 59H475.551L475.559 53.616ZM489.509 53.616C489.509 52.376 488.805 51.632 487.765 51.632C486.813 51.632 486.005 52.296 486.005 53.6L485.997 59H484.325L484.333 53.648C484.333 52.4 483.645 51.632 482.581 51.632C481.525 51.632 480.821 52.424 480.821 53.6L480.821 59H479.141L479.141 50.36H480.629L480.629 51.288C481.181 50.584 482.069 50.144 483.109 50.144C484.301 50.144 485.165 50.672 485.621 51.544C486.149 50.672 487.117 50.144 488.245 50.144C490.101 50.144 491.181 51.36 491.181 53.216L491.173 59H489.501L489.509 53.616ZM496.685 59.24C494.037 59.24 492.525 57.312 492.509 54.68C492.525 52.008 494.093 50.12 496.709 50.12C498.597 50.12 500.021 51.128 500.453 52.752L498.789 53.232C498.461 52.264 497.653 51.696 496.685 51.696C495.045 51.696 494.293 52.952 494.285 54.68C494.293 56.464 495.101 57.664 496.685 57.664C497.757 57.664 498.405 57.152 498.757 56.224L500.453 56.624C499.885 58.32 498.541 59.24 496.685 59.24ZM504.253 59.24C502.341 59.24 501.333 58.056 501.333 56.648C501.333 55.344 502.037 54.512 503.373 54.088C504.373 53.792 505.797 53.608 507.197 53.416C507.141 52.224 506.597 51.664 505.245 51.664C504.333 51.664 503.501 52.064 503.205 53.024L501.645 52.544C502.061 51.064 503.261 50.12 505.261 50.12C506.805 50.12 508.005 50.632 508.541 51.768C508.813 52.336 508.845 52.96 508.845 53.68L508.845 59H507.365L507.365 57.744C506.653 58.76 505.653 59.24 504.253 59.24ZM502.989 56.632C502.989 57.304 503.477 57.872 504.549 57.872C505.973 57.872 506.813 57 507.005 56.16C507.141 55.76 507.173 55.208 507.181 54.808C505.877 55 504.909 55.136 504.181 55.352C503.493 55.584 502.989 55.952 502.989 56.632ZM516.827 54.752C516.827 53.408 516.483 51.712 514.643 51.712C513.443 51.712 512.451 52.456 512.451 54.504L512.451 59H510.755L510.755 50.36H512.251L512.251 51.392C512.883 50.6 513.851 50.128 515.107 50.128C518.083 50.128 518.523 52.864 518.523 54.2L518.523 59H516.827L516.827 54.752ZM525.39 59C523.766 59.32 522.094 59.152 521.462 57.952C521.086 57.24 521.142 56.544 521.142 55.6L521.142 51.704H519.486L519.486 50.36H521.142L521.142 47.96H522.822L522.822 50.36L525.39 50.36L525.39 51.704L522.822 51.704L522.822 55.52C522.822 56.216 522.79 56.72 522.998 57.072C523.382 57.728 524.262 57.752 525.39 57.584L525.39 59ZM529.492 59.24C527.58 59.24 526.572 58.056 526.572 56.648C526.572 55.344 527.276 54.512 528.612 54.088C529.612 53.792 531.036 53.608 532.436 53.416C532.38 52.224 531.836 51.664 530.484 51.664C529.572 51.664 528.74 52.064 528.444 53.024L526.884 52.544C527.3 51.064 528.5 50.12 530.5 50.12C532.044 50.12 533.244 50.632 533.78 51.768C534.052 52.336 534.084 52.96 534.084 53.68L534.084 59H532.604L532.604 57.744C531.892 58.76 530.892 59.24 529.492 59.24ZM528.228 56.632C528.228 57.304 528.716 57.872 529.788 57.872C531.212 57.872 532.052 57 532.244 56.16C532.38 55.76 532.412 55.208 532.42 54.808C531.116 55 530.148 55.136 529.42 55.352C528.732 55.584 528.228 55.952 528.228 56.632ZM540.945 59C539.321 59.32 537.649 59.152 537.017 57.952C536.641 57.24 536.697 56.544 536.697 55.6L536.697 51.704H535.041L535.041 50.36H536.697L536.697 47.96H538.377L538.377 50.36H540.945L540.945 51.704H538.377L538.377 55.52C538.377 56.216 538.345 56.72 538.553 57.072C538.937 57.728 539.817 57.752 540.945 57.584L540.945 59ZM542.767 48.944L542.767 47.32H544.439L544.439 48.944H542.767ZM542.767 59L542.767 50.36H544.439L544.439 59H542.767ZM550.433 59.24C547.841 59.24 546.201 57.352 546.201 54.672C546.201 51.968 547.889 50.12 550.433 50.12C553.025 50.12 554.673 52 554.673 54.672C554.673 57.376 553.009 59.24 550.433 59.24ZM547.977 54.672C547.977 56.496 548.817 57.664 550.433 57.664C552.081 57.664 552.897 56.44 552.897 54.672C552.897 52.864 552.065 51.696 550.433 51.696C548.753 51.696 547.977 52.912 547.977 54.672ZM562.335 54.752C562.335 53.408 561.991 51.712 560.151 51.712C558.951 51.712 557.959 52.456 557.959 54.504L557.959 59H556.263L556.263 50.36H557.759L557.759 51.392C558.391 50.6 559.359 50.128 560.615 50.128C563.591 50.128 564.031 52.864 564.031 54.2L564.031 59H562.335L562.335 54.752Z" fill="#110529"/>
        <path d="M798.751 59L798.751 49.056H794.919L794.919 47.48H804.255L804.255 49.056H800.423L800.423 59H798.751ZM805.376 59L805.376 47.48H810.032C810.256 47.48 810.616 47.496 810.92 47.544C812.848 47.84 813.808 49.304 813.808 51.168C813.808 52.704 813.152 53.968 811.848 54.536L814.024 59H812.112L810.104 54.864H807.048L807.048 59H805.376ZM807.048 53.28H809.968C810.176 53.28 810.456 53.264 810.696 53.208C811.72 52.96 812.104 52.016 812.104 51.168C812.104 50.32 811.72 49.376 810.696 49.136C810.456 49.072 810.176 49.056 809.968 49.056H807.048L807.048 53.28ZM820.214 59.24C817.502 59.24 815.622 57.472 815.622 54.76L815.622 47.488L817.318 47.48L817.318 54.672C817.318 56.64 818.782 57.664 820.214 57.664C821.662 57.664 823.11 56.616 823.11 54.672L823.11 47.48H824.806L824.806 54.76C824.806 57.472 822.926 59.24 820.214 59.24ZM830.575 59.24C828.087 59.24 826.239 57.888 825.863 55.696L827.607 55.432C827.959 56.848 829.175 57.664 830.671 57.664C832.055 57.664 833.247 56.976 833.247 55.824C833.247 54.992 832.647 54.568 831.799 54.312L828.847 53.44C827.695 53.104 826.311 52.416 826.311 50.552C826.311 48.416 828.119 47.24 830.439 47.248C832.775 47.272 834.439 48.504 834.911 50.624L833.119 50.928C832.871 49.624 831.735 48.848 830.415 48.832C829.127 48.808 828.079 49.488 828.079 50.472C828.079 51.432 829.055 51.776 829.871 52L831.999 52.6C833.063 52.896 834.991 53.464 834.991 55.712C834.991 58.032 832.951 59.24 830.575 59.24ZM839.408 59L839.408 49.056H835.576L835.576 47.48H844.912L844.912 49.056H841.08L841.08 59H839.408ZM850.6 59L850.6 56.992H845.4L845.4 55.408L849.144 47.48H851.056L847.312 55.408H850.6L850.6 52.288H852.296L852.296 55.408H853.44L853.44 56.992H852.296L852.296 59H850.6Z" fill="#110529"/>
    </g>
    <defs>
        <linearGradient id="paint0_linear_14947_8150" x1="84" y1="99.25" x2="84" y2="100.75" gradientUnits="userSpaceOnUse">
            <stop stop-color="#18CC18"/>
            <stop offset="1" stop-color="#A6F558"/>
        </linearGradient>
        <linearGradient id="paint1_linear_14947_8150" x1="142" y1="100.25" x2="142" y2="101.75" gradientUnits="userSpaceOnUse">
            <stop stop-color="#18CC18"/>
            <stop offset="1" stop-color="#A6F558"/>
        </linearGradient>
        <linearGradient id="paint2_linear_14947_8150" x1="200.5" y1="101.25" x2="200.5" y2="102.75" gradientUnits="userSpaceOnUse">
            <stop stop-color="#18CC18"/>
            <stop offset="1" stop-color="#A6F558"/>
        </linearGradient>
        <linearGradient id="paint3_linear_14947_8150" x1="258.5" y1="103" x2="258.5" y2="105" gradientUnits="userSpaceOnUse">
            <stop stop-color="#18CC18"/>
            <stop offset="1" stop-color="#A6F558"/>
        </linearGradient>
        <linearGradient id="paint4_linear_14947_8150" x1="317" y1="104" x2="317" y2="105.5" gradientUnits="userSpaceOnUse">
            <stop stop-color="#18CC18"/>
            <stop offset="1" stop-color="#A6F558"/>
        </linearGradient>
        <clipPath id="clip0_14947_8150">
            <rect width="995" height="380" fill="white"/>
        </clipPath>
    </defs>
</svg>
