<svg width="893" height="460" viewBox="0 0 893 460" fill="none" xmlns="http://www.w3.org/2000/svg">
    <rect width="892.5" height="460" fill="#1D1D29"/>
    <rect x="70" y="44" width="790" height="380" fill="white" fill-opacity="0.06"/>
    <path d="M22.74 278.144C22.74 281.592 20.292 283.52 16.74 283.52C13.188 283.52 10.74 281.592 10.74 278.144C10.74 275.48 12.204 273.728 14.492 273.072L14.876 274.52C13.164 274.992 12.1 276.2 12.1 278.144C12.1 280.72 13.98 282 16.74 282.016C19.5 282.032 21.38 280.72 21.38 278.144C21.38 276.2 20.316 274.992 18.604 274.52L18.988 273.072C21.276 273.728 22.74 275.48 22.74 278.144ZM22.5 271.157L10.98 271.157L10.98 269.733L22.5 269.733L22.5 271.157ZM22.74 263.653C22.74 266.237 20.852 267.813 18.172 267.813C15.46 267.813 13.62 266.189 13.62 263.653C13.62 261.061 15.5 259.485 18.172 259.485C20.884 259.485 22.74 261.085 22.74 263.653ZM18.172 266.301C20.124 266.301 21.388 265.397 21.388 263.653C21.388 261.869 20.076 260.997 18.172 260.997C16.228 260.997 14.972 261.885 14.972 263.653C14.972 265.461 16.284 266.301 18.172 266.301ZM18.172 251.572C16.548 251.572 14.988 252.092 14.988 253.916C14.988 255.348 15.948 256.292 17.948 256.292L22.5 256.292L22.5 257.732L13.86 257.732L13.86 256.452L14.972 256.452C14.116 255.812 13.636 254.82 13.636 253.572C13.636 250.788 16.084 250.132 17.724 250.132L22.5 250.132L22.5 251.572L18.172 251.572ZM22.74 244.386C22.74 246.938 20.94 248.61 18.236 248.61C15.404 248.61 13.62 246.962 13.62 244.45C13.62 241.85 15.508 240.33 18.58 240.458L18.58 247.082C20.372 246.97 21.388 246.042 21.388 244.45C21.388 243.314 20.852 242.45 19.868 241.97L20.34 240.602C21.868 241.282 22.74 242.714 22.74 244.386ZM17.436 247.058L17.436 241.938C15.74 242.114 14.9 242.938 14.9 244.402C14.9 245.954 15.796 246.858 17.436 247.058ZM22.74 231.834C22.74 234.466 20.828 235.93 18.18 235.954C15.484 235.93 13.62 234.418 13.62 231.818C13.62 230.002 14.58 228.594 16.132 228.138L16.556 229.546C15.556 229.914 14.972 230.786 14.972 231.834C14.972 233.61 16.308 234.426 18.18 234.442C20.108 234.426 21.388 233.554 21.388 231.834C21.388 230.714 20.86 229.97 19.876 229.578L20.252 228.138C21.868 228.746 22.74 230.05 22.74 231.834ZM22.74 223.059C22.74 225.643 20.852 227.219 18.172 227.219C15.46 227.219 13.62 225.595 13.62 223.059C13.62 220.467 15.5 218.891 18.172 218.891C20.884 218.891 22.74 220.491 22.74 223.059ZM18.172 225.707C20.124 225.707 21.388 224.803 21.388 223.059C21.388 221.275 20.076 220.403 18.172 220.403C16.228 220.403 14.972 221.291 14.972 223.059C14.972 224.867 16.284 225.707 18.172 225.707ZM22.724 213.85C22.724 216.634 20.276 217.29 18.636 217.29L13.86 217.29L13.86 215.85L18.188 215.85C19.812 215.85 21.372 215.33 21.372 213.506C21.372 212.074 20.412 211.13 18.412 211.13L13.86 211.13L13.86 209.698L22.5 209.698L22.5 210.97L21.388 210.97C22.244 211.61 22.724 212.602 22.724 213.85ZM18.172 201.306C16.548 201.306 14.988 201.826 14.988 203.65C14.988 205.082 15.948 206.026 17.948 206.026L22.5 206.026L22.5 207.466L13.86 207.466L13.86 206.186L14.972 206.186C14.116 205.546 13.636 204.554 13.636 203.306C13.636 200.522 16.084 199.866 17.724 199.866L22.5 199.866L22.5 201.306L18.172 201.306ZM22.5 192.962C22.812 194.506 22.636 196.098 21.46 196.698C20.788 197.042 20.132 196.994 19.236 196.994L15.036 196.994L15.036 198.746L13.86 198.746L13.86 196.994L11.46 196.994L11.46 195.57L13.86 195.57L13.86 192.962L15.036 192.962L15.036 195.57L19.172 195.57C19.884 195.57 20.364 195.602 20.724 195.394C21.412 195.01 21.46 194.146 21.276 192.962L22.5 192.962ZM22.732 187.944C22.732 190.008 21.788 191.392 20.164 191.688L19.932 190.232C20.876 190 21.46 189.104 21.46 187.856C21.46 186.68 20.94 185.96 20.092 185.96C19.364 185.96 19.156 186.288 18.588 188.4C17.98 190.688 17.388 191.416 16.148 191.416C14.628 191.416 13.62 190.088 13.62 188.096C13.62 186.128 14.628 184.704 16.148 184.52L16.412 185.976C15.492 186.12 14.924 186.92 14.892 188.096C14.86 189.216 15.34 189.984 16.076 189.984C16.708 189.984 16.98 189.544 17.492 187.512C18.076 185.232 18.716 184.488 20.052 184.488C21.724 184.488 22.732 185.792 22.732 187.944Z" fill="white"/>
    <path d="M71.4 27L71.4 12.6H73.29L78.51 23.43L83.7 12.6L85.61 12.6L85.61 26.99H83.63L83.63 17.14L78.98 27H78.03L73.37 17.14L73.37 27H71.4ZM88.4117 14.43L88.4117 12.4H90.5017L90.5017 14.43H88.4117ZM88.4117 27L88.4117 16.2H90.5017L90.5017 27H88.4117ZM92.1047 27L97.0147 19.71L92.2347 12.6H94.7947L98.3047 17.94L101.795 12.6H104.365L99.5847 19.71L104.485 27L101.925 27L98.3047 21.49L94.6747 27H92.1047ZM111.283 27.3C106.963 27.3 104.473 24.25 104.473 19.8C104.473 15.35 106.963 12.3 111.283 12.3C114.603 12.3 116.833 14.11 117.683 16.95L115.563 17.52C114.993 15.51 113.563 14.29 111.283 14.29C108.223 14.29 106.693 16.5 106.683 19.8C106.663 23.1 108.223 25.31 111.283 25.31C113.563 25.31 114.993 24.09 115.563 22.08L117.683 22.65C116.833 25.49 114.603 27.3 111.283 27.3ZM119.682 27L119.682 12.6L125.502 12.6C125.782 12.6 126.232 12.62 126.612 12.68C129.022 13.05 130.222 14.88 130.222 17.21C130.222 19.13 129.402 20.71 127.772 21.42L130.492 27H128.102L125.592 21.83H121.772L121.772 27H119.682ZM121.772 19.85H125.422C125.682 19.85 126.032 19.83 126.332 19.76C127.612 19.45 128.092 18.27 128.092 17.21C128.092 16.15 127.612 14.97 126.332 14.67C126.032 14.59 125.682 14.57 125.422 14.57L121.772 14.57L121.772 19.85ZM136.494 14.43L136.494 12.4H138.584L138.584 14.43H136.494ZM136.494 27L136.494 16.2H138.584L138.584 27H136.494ZM145.517 27.29C142.887 27.29 141.157 26.08 140.787 23.97L142.927 23.64C143.197 24.77 144.217 25.45 145.657 25.45C146.957 25.45 147.747 24.89 147.747 23.95C147.747 23.13 147.387 22.91 144.847 22.23C142.057 21.5 141.137 20.73 141.137 19.14C141.137 17.18 142.797 15.9 145.337 15.9C147.817 15.9 149.597 17.15 149.837 19.07L147.697 19.46C147.547 18.43 146.677 17.79 145.357 17.74C144.087 17.69 143.227 18.21 143.227 19.03C143.227 19.75 143.717 20.03 146.247 20.67C148.967 21.37 149.897 22.2 149.897 23.87C149.897 26.01 148.247 27.29 145.517 27.29ZM161.893 27C159.863 27.4 157.773 27.19 156.983 25.69C156.513 24.8 156.583 23.93 156.583 22.75L156.583 17.88H154.513L154.513 16.2H156.583L156.583 13.2H158.683L158.683 16.2H161.893L161.893 17.88H158.683L158.683 22.65C158.683 23.52 158.643 24.15 158.903 24.59C159.383 25.41 160.483 25.44 161.893 25.23L161.893 27ZM171.55 21.69C171.55 20.01 171.12 17.89 168.82 17.89C167.32 17.89 166.08 18.82 166.08 21.38L166.08 27H163.96L163.96 12.6L165.83 12.6L165.83 17.49C166.62 16.5 167.83 15.91 169.4 15.91C173.12 15.91 173.67 19.33 173.67 21L173.67 27H171.55L171.55 21.69ZM180.865 27.3C177.635 27.3 175.475 25.03 175.475 21.69C175.475 18.15 177.605 15.9 180.765 15.9C184.065 15.9 185.985 18.32 185.765 22.19H177.715C177.885 24.19 178.945 25.33 180.765 25.33C182.065 25.33 183.045 24.72 183.575 23.61L185.625 24.26C184.785 26.19 182.955 27.3 180.865 27.3ZM177.765 20.56H183.625C183.405 18.66 182.505 17.75 180.845 17.75C179.055 17.75 178.035 18.73 177.765 20.56ZM196.303 27.3C193.063 27.3 191.013 24.94 191.013 21.59C191.013 18.21 193.123 15.9 196.303 15.9C199.543 15.9 201.603 18.25 201.603 21.59C201.603 24.97 199.523 27.3 196.303 27.3ZM193.233 21.59C193.233 23.87 194.283 25.33 196.303 25.33C198.363 25.33 199.383 23.8 199.383 21.59C199.383 19.33 198.343 17.87 196.303 17.87C194.203 17.87 193.233 19.39 193.233 21.59ZM211.18 21.69C211.18 20.01 210.75 17.89 208.45 17.89C206.95 17.89 205.71 18.82 205.71 21.38L205.71 27H203.59L203.59 16.2H205.46L205.46 17.49C206.25 16.5 207.46 15.91 209.03 15.91C212.75 15.91 213.3 19.33 213.3 21L213.3 27H211.18L211.18 21.69ZM215.905 27L215.905 12.6L217.995 12.6L217.995 27H215.905ZM222.258 31.8L224.038 26.95L219.668 16.2H221.848L225.038 24.32L228.088 16.2H230.208L224.248 31.8H222.258ZM241.558 27C239.528 27.4 237.438 27.19 236.648 25.69C236.178 24.8 236.248 23.93 236.248 22.75L236.248 17.88H234.178L234.178 16.2H236.248L236.248 13.2H238.348L238.348 16.2H241.558L241.558 17.88H238.348L238.348 22.65C238.348 23.52 238.308 24.15 238.568 24.59C239.048 25.41 240.148 25.44 241.558 25.23L241.558 27ZM247.817 27.3C244.577 27.3 242.527 24.94 242.527 21.59C242.527 18.21 244.637 15.9 247.817 15.9C251.057 15.9 253.117 18.25 253.117 21.59C253.117 24.97 251.037 27.3 247.817 27.3ZM244.747 21.59C244.747 23.87 245.797 25.33 247.817 25.33C249.877 25.33 250.897 23.8 250.897 21.59C250.897 19.33 249.857 17.87 247.817 17.87C245.717 17.87 244.747 19.39 244.747 21.59ZM259.805 27.3C256.565 27.3 254.515 24.94 254.515 21.59C254.515 18.21 256.625 15.9 259.805 15.9C263.045 15.9 265.105 18.25 265.105 21.59C265.105 24.97 263.025 27.3 259.805 27.3ZM256.735 21.59C256.735 23.87 257.785 25.33 259.805 25.33C261.865 25.33 262.885 23.8 262.885 21.59C262.885 19.33 261.845 17.87 259.805 17.87C257.705 17.87 256.735 19.39 256.735 21.59ZM267.302 27L267.302 12.6H269.392L269.392 27H267.302ZM282.179 27C280.149 27.4 278.059 27.19 277.269 25.69C276.799 24.8 276.869 23.93 276.869 22.75L276.869 17.88H274.799L274.799 16.2H276.869L276.869 13.2H278.969L278.969 16.2H282.179L282.179 17.88H278.969L278.969 22.65C278.969 23.52 278.929 24.15 279.189 24.59C279.669 25.41 280.769 25.44 282.179 25.23L282.179 27ZM291.836 21.69C291.836 20.01 291.406 17.89 289.106 17.89C287.606 17.89 286.366 18.82 286.366 21.38L286.366 27H284.246L284.246 12.6H286.116L286.116 17.49C286.906 16.5 288.116 15.91 289.686 15.91C293.406 15.91 293.956 19.33 293.956 21L293.956 27H291.836L291.836 21.69ZM299.411 27.3C297.021 27.3 295.761 25.82 295.761 24.06C295.761 22.43 296.641 21.39 298.311 20.86C299.561 20.49 301.341 20.26 303.091 20.02C303.021 18.53 302.341 17.83 300.651 17.83C299.511 17.83 298.471 18.33 298.101 19.53L296.151 18.93C296.671 17.08 298.171 15.9 300.671 15.9C302.601 15.9 304.101 16.54 304.771 17.96C305.111 18.67 305.151 19.45 305.151 20.35L305.151 27H303.301L303.301 25.43C302.411 26.7 301.161 27.3 299.411 27.3ZM297.831 24.04C297.831 24.88 298.441 25.59 299.781 25.59C301.561 25.59 302.611 24.5 302.851 23.45C303.021 22.95 303.061 22.26 303.071 21.76C301.441 22 300.231 22.17 299.321 22.44C298.461 22.73 297.831 23.19 297.831 24.04ZM313.728 27C311.698 27.4 309.608 27.19 308.818 25.69C308.348 24.8 308.418 23.93 308.418 22.75L308.418 17.88H306.348L306.348 16.2H308.418L308.418 13.2H310.518L310.518 16.2H313.728L313.728 17.88H310.518L310.518 22.65C310.518 23.52 310.478 24.15 310.738 24.59C311.218 25.41 312.318 25.44 313.728 25.23L313.728 27ZM323.899 27.3C320.889 27.3 319.009 24.83 319.009 21.59C319.009 18.33 320.899 15.9 323.939 15.9C325.149 15.9 326.129 16.28 326.879 16.94L326.879 12.6L328.979 12.6L328.979 27H327.119L327.119 26.02C326.339 26.82 325.259 27.3 323.899 27.3ZM321.229 21.59C321.229 23.73 322.179 25.41 324.189 25.41C326.249 25.41 327.119 23.83 327.119 21.59C327.119 19.35 326.229 17.79 324.259 17.79C322.179 17.79 321.229 19.47 321.229 21.59ZM336.367 27.3C333.137 27.3 330.977 25.03 330.977 21.69C330.977 18.15 333.107 15.9 336.267 15.9C339.567 15.9 341.487 18.32 341.267 22.19H333.217C333.387 24.19 334.447 25.33 336.267 25.33C337.567 25.33 338.547 24.72 339.077 23.61L341.127 24.26C340.287 26.19 338.457 27.3 336.367 27.3ZM333.267 20.56H339.127C338.907 18.66 338.007 17.75 336.347 17.75C334.557 17.75 333.537 18.73 333.267 20.56ZM349.49 27C347.46 27.4 345.37 27.19 344.58 25.69C344.11 24.8 344.18 23.93 344.18 22.75L344.18 17.88H342.11L342.11 16.2H344.18L344.18 13.2H346.28L346.28 16.2L349.49 16.2L349.49 17.88L346.28 17.88L346.28 22.65C346.28 23.52 346.24 24.15 346.5 24.59C346.98 25.41 348.08 25.44 349.49 25.23L349.49 27ZM355.849 27.3C352.619 27.3 350.459 25.03 350.459 21.69C350.459 18.15 352.589 15.9 355.749 15.9C359.049 15.9 360.969 18.32 360.749 22.19H352.699C352.869 24.19 353.929 25.33 355.749 25.33C357.049 25.33 358.029 24.72 358.559 23.61L360.609 24.26C359.769 26.19 357.939 27.3 355.849 27.3ZM352.749 20.56H358.609C358.389 18.66 357.489 17.75 355.829 17.75C354.039 17.75 353.019 18.73 352.749 20.56ZM367.413 27.3C364.103 27.3 362.213 24.89 362.193 21.6C362.213 18.26 364.173 15.9 367.443 15.9C369.803 15.9 371.583 17.16 372.123 19.19L370.043 19.79C369.633 18.58 368.623 17.87 367.413 17.87C365.363 17.87 364.423 19.44 364.413 21.6C364.423 23.83 365.433 25.33 367.413 25.33C368.753 25.33 369.563 24.69 370.003 23.53L372.123 24.03C371.413 26.15 369.733 27.3 367.413 27.3ZM380.14 27C378.11 27.4 376.02 27.19 375.23 25.69C374.76 24.8 374.83 23.93 374.83 22.75L374.83 17.88H372.76L372.76 16.2H374.83L374.83 13.2H376.93L376.93 16.2H380.14L380.14 17.88H376.93L376.93 22.65C376.93 23.52 376.89 24.15 377.15 24.59C377.63 25.41 378.73 25.44 380.14 25.23L380.14 27ZM386.347 27.29C383.717 27.29 381.987 26.08 381.617 23.97L383.757 23.64C384.027 24.77 385.047 25.45 386.487 25.45C387.787 25.45 388.577 24.89 388.577 23.95C388.577 23.13 388.217 22.91 385.677 22.23C382.887 21.5 381.967 20.73 381.967 19.14C381.967 17.18 383.627 15.9 386.167 15.9C388.647 15.9 390.427 17.15 390.667 19.07L388.527 19.46C388.377 18.43 387.507 17.79 386.187 17.74C384.917 17.69 384.057 18.21 384.057 19.03C384.057 19.75 384.547 20.03 387.077 20.67C389.797 21.37 390.727 22.2 390.727 23.87C390.727 26.01 389.077 27.29 386.347 27.29ZM404.124 21.69C404.124 20.01 403.694 17.89 401.394 17.89C399.894 17.89 398.654 18.82 398.654 21.38L398.654 27H396.534L396.534 16.2H398.404L398.404 17.49C399.194 16.5 400.404 15.91 401.974 15.91C405.694 15.91 406.244 19.33 406.244 21L406.244 27H404.124L404.124 21.69ZM413.202 27.3C409.962 27.3 407.912 24.94 407.912 21.59C407.912 18.21 410.022 15.9 413.202 15.9C416.442 15.9 418.502 18.25 418.502 21.59C418.502 24.97 416.422 27.3 413.202 27.3ZM410.132 21.59C410.132 23.87 411.182 25.33 413.202 25.33C415.262 25.33 416.282 23.8 416.282 21.59C416.282 19.33 415.242 17.87 413.202 17.87C411.102 17.87 410.132 19.39 410.132 21.59ZM425.293 15.82C425.293 14.99 425.293 13.95 425.983 13.19C426.813 12.28 427.943 12.3 428.753 12.3H430.113L430.113 14.02H428.853C427.853 14.02 427.383 14.53 427.383 15.42L427.383 16.2H430.113L430.113 17.88H427.383L427.383 27H425.293L425.293 17.88H423.503L423.503 16.2H425.293L425.293 15.82ZM434.262 27.3C431.872 27.3 430.612 25.82 430.612 24.06C430.612 22.43 431.492 21.39 433.162 20.86C434.412 20.49 436.192 20.26 437.943 20.02C437.873 18.53 437.193 17.83 435.502 17.83C434.363 17.83 433.322 18.33 432.952 19.53L431.002 18.93C431.522 17.08 433.023 15.9 435.523 15.9C437.453 15.9 438.953 16.54 439.623 17.96C439.963 18.67 440.003 19.45 440.003 20.35L440.003 27H438.153L438.153 25.43C437.263 26.7 436.012 27.3 434.262 27.3ZM432.682 24.04C432.682 24.88 433.292 25.59 434.633 25.59C436.413 25.59 437.463 24.5 437.703 23.45C437.873 22.95 437.913 22.26 437.923 21.76C436.292 22 435.082 22.17 434.173 22.44C433.313 22.73 432.682 23.19 432.682 24.04ZM442.599 27L442.599 12.6H444.689L444.689 27H442.599ZM451.622 27.29C448.992 27.29 447.262 26.08 446.892 23.97L449.032 23.64C449.302 24.77 450.322 25.45 451.762 25.45C453.062 25.45 453.852 24.89 453.852 23.95C453.852 23.13 453.492 22.91 450.952 22.23C448.162 21.5 447.242 20.73 447.242 19.14C447.242 17.18 448.902 15.9 451.442 15.9C453.922 15.9 455.702 17.15 455.942 19.07L453.802 19.46C453.652 18.43 452.782 17.79 451.462 17.74C450.192 17.69 449.332 18.21 449.332 19.03C449.332 19.75 449.822 20.03 452.352 20.67C455.072 21.37 456.002 22.2 456.002 23.87C456.002 26.01 454.352 27.29 451.622 27.29ZM462.805 27.3C459.575 27.3 457.415 25.03 457.415 21.69C457.415 18.15 459.545 15.9 462.705 15.9C466.005 15.9 467.925 18.32 467.705 22.19H459.655C459.825 24.19 460.885 25.33 462.705 25.33C464.005 25.33 464.985 24.72 465.515 23.61L467.565 24.26C466.725 26.19 464.895 27.3 462.805 27.3ZM459.705 20.56H465.565C465.345 18.66 464.445 17.75 462.785 17.75C460.995 17.75 459.975 18.73 459.705 20.56ZM478.622 27.3C477.392 27.3 476.402 26.91 475.642 26.24L475.642 31.8H473.542L473.542 16.2H475.402L475.402 17.17C476.172 16.37 477.242 15.9 478.582 15.9C481.622 15.9 483.512 18.33 483.512 21.59C483.512 24.83 481.632 27.3 478.622 27.3ZM475.402 21.59C475.402 23.83 476.272 25.41 478.332 25.41C480.342 25.41 481.292 23.73 481.292 21.59C481.292 19.47 480.342 17.79 478.262 17.79C476.292 17.79 475.402 19.35 475.402 21.59ZM490.21 27.3C486.97 27.3 484.92 24.94 484.92 21.59C484.92 18.21 487.03 15.9 490.21 15.9C493.45 15.9 495.51 18.25 495.51 21.59C495.51 24.97 493.43 27.3 490.21 27.3ZM487.14 21.59C487.14 23.87 488.19 25.33 490.21 25.33C492.27 25.33 493.29 23.8 493.29 21.59C493.29 19.33 492.25 17.87 490.21 17.87C488.11 17.87 487.14 19.39 487.14 21.59ZM501.443 27.29C498.813 27.29 497.083 26.08 496.713 23.97L498.853 23.64C499.123 24.77 500.143 25.45 501.583 25.45C502.883 25.45 503.673 24.89 503.673 23.95C503.673 23.13 503.313 22.91 500.773 22.23C497.983 21.5 497.063 20.73 497.063 19.14C497.063 17.18 498.723 15.9 501.263 15.9C503.743 15.9 505.523 17.15 505.763 19.07L503.623 19.46C503.473 18.43 502.603 17.79 501.283 17.74C500.013 17.69 499.153 18.21 499.153 19.03C499.153 19.75 499.643 20.03 502.173 20.67C504.893 21.37 505.823 22.2 505.823 23.87C505.823 26.01 504.173 27.29 501.443 27.29ZM508.035 14.43L508.035 12.4H510.125L510.125 14.43H508.035ZM508.035 27L508.035 16.2H510.125L510.125 27H508.035ZM519.108 27C517.078 27.4 514.988 27.19 514.198 25.69C513.728 24.8 513.798 23.93 513.798 22.75L513.798 17.88H511.728L511.728 16.2H513.798L513.798 13.2H515.898L515.898 16.2H519.108L519.108 17.88H515.898L515.898 22.65C515.898 23.52 515.858 24.15 516.118 24.59C516.598 25.41 517.698 25.44 519.108 25.23L519.108 27ZM521.385 14.43L521.385 12.4H523.475L523.475 14.43H521.385ZM521.385 27L521.385 16.2H523.475L523.475 27L521.385 27ZM529.198 27L525.278 16.2L527.388 16.2L530.258 24.38L533.128 16.2H535.238L531.318 27H529.198ZM541.239 27.3C538.009 27.3 535.849 25.03 535.849 21.69C535.849 18.15 537.979 15.9 541.139 15.9C544.439 15.9 546.359 18.32 546.139 22.19L538.089 22.19C538.259 24.19 539.319 25.33 541.139 25.33C542.439 25.33 543.419 24.72 543.949 23.61L545.999 24.26C545.159 26.19 543.329 27.3 541.239 27.3ZM538.139 20.56L543.999 20.56C543.779 18.66 542.879 17.75 541.219 17.75C539.429 17.75 538.409 18.73 538.139 20.56ZM552.313 27.29C549.683 27.29 547.953 26.08 547.583 23.97L549.723 23.64C549.993 24.77 551.013 25.45 552.453 25.45C553.753 25.45 554.543 24.89 554.543 23.95C554.543 23.13 554.183 22.91 551.643 22.23C548.853 21.5 547.933 20.73 547.933 19.14C547.933 17.18 549.593 15.9 552.133 15.9C554.613 15.9 556.393 17.15 556.633 19.07L554.493 19.46C554.343 18.43 553.473 17.79 552.153 17.74C550.883 17.69 550.023 18.21 550.023 19.03C550.023 19.75 550.513 20.03 553.043 20.67C555.763 21.37 556.693 22.2 556.693 23.87C556.693 26.01 555.043 27.29 552.313 27.29Z" fill="white"/>
    <path d="M70 44V43.625H69.625V44H70ZM860 44H860.375V43.625H860V44ZM860 424V424.375H860.375V424H860ZM70 424H69.625V424.375H70V424ZM70 44.375H860V43.625H70V44.375ZM859.625 44V424H860.375V44H859.625ZM860 423.625H70V424.375H860V423.625ZM70.375 424V44H69.625V424H70.375Z" fill="black"/>
    <path d="M34.1953 48.5V41.9742L32.7726 42.8353V41.7905L34.1953 40.94H35.1456V48.5H34.1953ZM39.721 48.6575C38.2772 48.6575 37.1432 47.5235 37.1432 46.0062V43.4915C37.1432 41.906 38.2562 40.7877 39.805 40.7877C40.6345 40.7877 41.38 41.1395 41.8735 41.7747L41.1752 42.3942C40.8707 41.9585 40.3615 41.675 39.805 41.675C38.8022 41.675 38.0935 42.4835 38.0935 43.3865V44.4155C38.5292 43.9325 39.154 43.6332 39.8312 43.6332C41.2382 43.6332 42.2987 44.72 42.2987 46.127C42.2987 47.534 41.128 48.6575 39.721 48.6575ZM38.0935 46.127C38.0935 47.0195 38.818 47.7545 39.721 47.7545C40.624 47.7545 41.3537 47.03 41.3537 46.127C41.3537 45.224 40.6292 44.4942 39.7262 44.4942C38.8232 44.4942 38.0935 45.224 38.0935 46.127ZM48.3182 48.6575C46.8482 48.6575 45.7667 47.576 45.7667 46.106V43.334C45.7667 41.864 46.8482 40.7825 48.3182 40.7825C49.7882 40.7825 50.8697 41.864 50.8697 43.334V46.106C50.8697 47.576 49.7882 48.6575 48.3182 48.6575ZM46.717 46.1585C46.717 47.0457 47.431 47.7597 48.3182 47.7597C49.2055 47.7597 49.9195 47.0457 49.9195 46.1585V43.2762C49.9195 42.389 49.2055 41.675 48.3182 41.675C47.431 41.675 46.717 42.389 46.717 43.2762V46.1585ZM54.891 48.6575C53.421 48.6575 52.3395 47.576 52.3395 46.106V43.334C52.3395 41.864 53.421 40.7825 54.891 40.7825C56.361 40.7825 57.4425 41.864 57.4425 43.334V46.106C57.4425 47.576 56.361 48.6575 54.891 48.6575ZM53.2897 46.1585C53.2897 47.0457 54.0037 47.7597 54.891 47.7597C55.7782 47.7597 56.4922 47.0457 56.4922 46.1585V43.2762C56.4922 42.389 55.7782 41.675 54.891 41.675C54.0037 41.675 53.2897 42.389 53.2897 43.2762V46.1585ZM61.4637 48.6575C59.9937 48.6575 58.9122 47.576 58.9122 46.106V43.334C58.9122 41.864 59.9937 40.7825 61.4637 40.7825C62.9337 40.7825 64.0152 41.864 64.0152 43.334V46.106C64.0152 47.576 62.9337 48.6575 61.4637 48.6575ZM59.8625 46.1585C59.8625 47.0457 60.5765 47.7597 61.4637 47.7597C62.351 47.7597 63.065 47.0457 63.065 46.1585V43.2762C63.065 42.389 62.351 41.675 61.4637 41.675C60.5765 41.675 59.8625 42.389 59.8625 43.2762V46.1585Z" fill="white"/>
    <path d="M860 44.0007H70" stroke="black" stroke-width="0.75"/>
    <path d="M860 69.1672H70" stroke="black" stroke-width="0.75"/>
    <path d="M860 124.667H70" stroke="black" stroke-width="0.75"/>
    <path d="M860 194.001H70" stroke="black" stroke-width="0.75"/>
    <path d="M34.6465 99.333V92.8073L33.2238 93.6683V92.6235L34.6465 91.773H35.5968V99.333H34.6465ZM37.3844 99.3278L37.3896 98.4878L40.7444 95.469C41.3009 94.9703 41.4531 94.5345 41.4531 94.0568C41.4531 93.1853 40.8021 92.508 39.9306 92.508C39.0276 92.508 38.3661 93.2273 38.3766 94.0515H37.4211C37.4211 92.6288 38.4921 91.6155 39.9464 91.6155C41.3481 91.6155 42.4086 92.676 42.4086 94.0673C42.4086 95.0595 42.0359 95.5583 41.2589 96.246L38.8229 98.4353H42.4086V99.3278H37.3844ZM48.3182 99.4905C46.8482 99.4905 45.7667 98.409 45.7667 96.939V94.167C45.7667 92.697 46.8482 91.6155 48.3182 91.6155C49.7882 91.6155 50.8697 92.697 50.8697 94.167V96.939C50.8697 98.409 49.7882 99.4905 48.3182 99.4905ZM46.717 96.9915C46.717 97.8788 47.431 98.5928 48.3182 98.5928C49.2055 98.5928 49.9195 97.8788 49.9195 96.9915V94.1093C49.9195 93.222 49.2055 92.508 48.3182 92.508C47.431 92.508 46.717 93.222 46.717 94.1093V96.9915ZM54.891 99.4905C53.421 99.4905 52.3395 98.409 52.3395 96.939V94.167C52.3395 92.697 53.421 91.6155 54.891 91.6155C56.361 91.6155 57.4425 92.697 57.4425 94.167V96.939C57.4425 98.409 56.361 99.4905 54.891 99.4905ZM53.2897 96.9915C53.2897 97.8788 54.0037 98.5928 54.891 98.5928C55.7782 98.5928 56.4922 97.8788 56.4922 96.9915V94.1093C56.4922 93.222 55.7782 92.508 54.891 92.508C54.0037 92.508 53.2897 93.222 53.2897 94.1093V96.9915ZM61.4637 99.4905C59.9937 99.4905 58.9122 98.409 58.9122 96.939V94.167C58.9122 92.697 59.9937 91.6155 61.4637 91.6155C62.9337 91.6155 64.0152 92.697 64.0152 94.167V96.939C64.0152 98.409 62.9337 99.4905 61.4637 99.4905ZM59.8625 96.9915C59.8625 97.8788 60.5765 98.5928 61.4637 98.5928C62.351 98.5928 63.065 97.8788 63.065 96.9915V94.1093C63.065 93.222 62.351 92.508 61.4637 92.508C60.5765 92.508 59.8625 93.222 59.8625 94.1093V96.9915Z" fill="white"/>
    <path d="M860 94.8337H70" stroke="black" stroke-width="0.75"/>
    <path d="M39.8236 159.991C38.3746 159.991 37.3561 159.061 37.3561 157.675C37.3561 156.888 37.6816 156.205 38.3431 155.78C37.8181 155.413 37.5398 154.835 37.5398 154.184C37.5398 152.908 38.4901 152.116 39.8236 152.116C41.1571 152.116 42.1073 152.908 42.1073 154.184C42.1073 154.84 41.8448 155.413 41.3093 155.785C41.9656 156.2 42.3016 156.888 42.3016 157.675C42.3016 159.061 41.2726 159.991 39.8236 159.991ZM38.3431 157.675C38.3431 158.599 38.9416 159.098 39.8236 159.098C40.7056 159.098 41.3093 158.599 41.3093 157.675C41.3093 156.746 40.7161 156.247 39.8236 156.247C38.9311 156.247 38.3431 156.746 38.3431 157.675ZM38.5321 154.184C38.5321 154.961 39.0571 155.35 39.8236 155.35C40.5901 155.35 41.1151 154.961 41.1151 154.184C41.1151 153.407 40.5901 153.019 39.8236 153.019C39.0571 153.019 38.5321 153.407 38.5321 154.184ZM48.3182 159.991C46.8482 159.991 45.7667 158.909 45.7667 157.439V154.667C45.7667 153.197 46.8482 152.116 48.3182 152.116C49.7882 152.116 50.8697 153.197 50.8697 154.667V157.439C50.8697 158.909 49.7882 159.991 48.3182 159.991ZM46.717 157.492C46.717 158.379 47.431 159.093 48.3182 159.093C49.2055 159.093 49.9195 158.379 49.9195 157.492V154.609C49.9195 153.722 49.2055 153.008 48.3182 153.008C47.431 153.008 46.717 153.722 46.717 154.609V157.492ZM54.891 159.991C53.421 159.991 52.3395 158.909 52.3395 157.439V154.667C52.3395 153.197 53.421 152.116 54.891 152.116C56.361 152.116 57.4425 153.197 57.4425 154.667V157.439C57.4425 158.909 56.361 159.991 54.891 159.991ZM53.2897 157.492C53.2897 158.379 54.0037 159.093 54.891 159.093C55.7782 159.093 56.4922 158.379 56.4922 157.492V154.609C56.4922 153.722 55.7782 153.008 54.891 153.008C54.0037 153.008 53.2897 153.722 53.2897 154.609V157.492ZM61.4637 159.991C59.9937 159.991 58.9122 158.909 58.9122 157.439V154.667C58.9122 153.197 59.9937 152.116 61.4637 152.116C62.9337 152.116 64.0152 153.197 64.0152 154.667V157.439C64.0152 158.909 62.9337 159.991 61.4637 159.991ZM59.8625 157.492C59.8625 158.379 60.5765 159.093 61.4637 159.093C62.351 159.093 63.065 158.379 63.065 157.492V154.609C63.065 153.722 62.351 153.008 61.4637 153.008C60.5765 153.008 59.8625 153.722 59.8625 154.609V157.492Z" fill="white"/>
    <path d="M860 155.334H70" stroke="black" stroke-width="0.75"/>
    <path d="M40.6753 238.5V237.108H37.1998V236.221L39.6936 230.94H40.7541L38.2603 236.221H40.6753V234.095H41.6203V236.221H42.4078V237.108H41.6203V238.5H40.6753ZM48.3182 238.657C46.8482 238.657 45.7667 237.576 45.7667 236.106V233.334C45.7667 231.864 46.8482 230.782 48.3182 230.782C49.7882 230.782 50.8697 231.864 50.8697 233.334V236.106C50.8697 237.576 49.7882 238.657 48.3182 238.657ZM46.717 236.158C46.717 237.045 47.431 237.759 48.3182 237.759C49.2055 237.759 49.9195 237.045 49.9195 236.158V233.276C49.9195 232.389 49.2055 231.675 48.3182 231.675C47.431 231.675 46.717 232.389 46.717 233.276V236.158ZM54.891 238.657C53.421 238.657 52.3395 237.576 52.3395 236.106V233.334C52.3395 231.864 53.421 230.782 54.891 230.782C56.361 230.782 57.4425 231.864 57.4425 233.334V236.106C57.4425 237.576 56.361 238.657 54.891 238.657ZM53.2897 236.158C53.2897 237.045 54.0037 237.759 54.891 237.759C55.7782 237.759 56.4922 237.045 56.4922 236.158V233.276C56.4922 232.389 55.7782 231.675 54.891 231.675C54.0037 231.675 53.2897 232.389 53.2897 233.276V236.158ZM61.4637 238.657C59.9937 238.657 58.9122 237.576 58.9122 236.106V233.334C58.9122 231.864 59.9937 230.782 61.4637 230.782C62.9337 230.782 64.0152 231.864 64.0152 233.334V236.106C64.0152 237.576 62.9337 238.657 61.4637 238.657ZM59.8625 236.158C59.8625 237.045 60.5765 237.759 61.4637 237.759C62.351 237.759 63.065 237.045 63.065 236.158V233.276C63.065 232.389 62.351 231.675 61.4637 231.675C60.5765 231.675 59.8625 232.389 59.8625 233.276V236.158Z" fill="white"/>
    <path d="M860 234H70" stroke="black" stroke-width="0.75"/>
    <path d="M860 329.167H70" stroke="black" stroke-width="0.75"/>
    <path d="M70 44.0012V424" stroke="black" stroke-width="0.75" stroke-linecap="square"/>
    <path d="M86.613 439V431.44H87.5475V434.774H91.527V431.44H92.4615V439H91.527V435.661H87.5475V439H86.613ZM94.7218 441.52L95.6563 438.979L93.3568 433.33H94.3385L96.1078 437.792L97.7668 433.33H98.717L95.63 441.52H94.7218ZM102.188 439.158C101.422 439.158 100.828 438.858 100.414 438.359V439H99.5789V431.44H100.519V433.844C100.923 433.419 101.485 433.172 102.193 433.172C103.768 433.172 104.729 434.459 104.729 436.16C104.729 437.861 103.774 439.158 102.188 439.158ZM100.414 436.16C100.414 437.404 100.928 438.302 102.073 438.302C103.191 438.302 103.737 437.367 103.737 436.16C103.737 434.963 103.201 434.028 102.046 434.028C100.939 434.028 100.414 434.905 100.414 436.16ZM105.88 439V433.33H106.715V434.228C106.841 434.007 107.009 433.813 107.198 433.676C107.634 433.325 108.3 433.22 108.804 433.33V434.207C108.411 434.107 107.901 434.133 107.508 434.422C106.956 434.816 106.82 435.482 106.82 436.154V439H105.88ZM109.902 432.327V431.361H110.837V432.327H109.902ZM109.902 439V433.33H110.837V439H109.902ZM114.638 439.158C113.052 439.158 112.097 437.861 112.097 436.16C112.097 434.459 113.058 433.172 114.633 433.172C115.341 433.172 115.903 433.419 116.307 433.844V431.44H117.247V439H116.412V438.359C115.998 438.858 115.404 439.158 114.638 439.158ZM113.089 436.16C113.089 437.367 113.635 438.302 114.753 438.302C115.898 438.302 116.412 437.404 116.412 436.16C116.412 434.905 115.887 434.028 114.78 434.028C113.625 434.028 113.089 434.963 113.089 436.16ZM121.133 439.158C119.437 439.158 118.403 437.918 118.403 436.16C118.403 434.38 119.469 433.172 121.133 433.172C122.834 433.172 123.868 434.406 123.868 436.16C123.868 437.939 122.818 439.158 121.133 439.158ZM119.395 436.16C119.395 437.441 119.988 438.27 121.133 438.27C122.304 438.27 122.876 437.409 122.876 436.16C122.876 434.884 122.293 434.06 121.133 434.06C119.946 434.06 119.395 434.921 119.395 436.16ZM131.807 435.372C131.807 434.527 131.303 434.018 130.589 434.018C129.954 434.018 129.35 434.443 129.35 435.398L129.345 439H128.416L128.421 435.409C128.421 434.548 127.933 434.018 127.192 434.018C126.452 434.018 125.959 434.569 125.959 435.398V439H125.019V433.33H125.854V433.934C126.211 433.472 126.788 433.183 127.465 433.183C128.232 433.183 128.815 433.524 129.119 434.117C129.455 433.535 130.09 433.183 130.836 433.183C132.017 433.183 132.742 433.96 132.742 435.167L132.736 439H131.802L131.807 435.372ZM135.721 439.158C134.45 439.158 133.794 438.38 133.794 437.467C133.794 436.574 134.324 436.055 135.185 435.803C135.894 435.614 136.892 435.493 137.732 435.377C137.705 434.474 137.317 434.044 136.335 434.044C135.647 434.044 135.096 434.343 134.891 435.036L134.004 434.768C134.272 433.776 135.065 433.172 136.346 433.172C137.369 433.172 138.141 433.54 138.467 434.28C138.624 434.632 138.65 435.047 138.65 435.493V439H137.821V438.118C137.369 438.811 136.666 439.158 135.721 439.158ZM134.723 437.462C134.723 437.929 135.054 438.375 135.863 438.375C136.871 438.375 137.49 437.771 137.627 437.068C137.705 436.795 137.716 436.433 137.721 436.175C136.923 436.28 136.157 436.37 135.605 436.527C135.138 436.674 134.723 436.931 134.723 437.462ZM142.222 439V431.44H143.157V439H142.222ZM144.837 432.327V431.361H145.772V432.327H144.837ZM144.837 439V433.33H145.772V439H144.837ZM151.384 436.16C151.384 435.094 151.043 434.07 149.846 434.07C148.906 434.07 148.287 434.7 148.287 436.013V439H147.342V433.33H148.182V434.06C148.602 433.498 149.253 433.183 150.072 433.183C151.899 433.183 152.329 434.789 152.329 435.866V439H151.384V436.16ZM156.1 439.158C154.425 439.158 153.328 437.976 153.328 436.202C153.328 434.343 154.409 433.172 156.058 433.172C157.764 433.172 158.762 434.411 158.678 436.427H154.331C154.404 437.603 155.013 438.27 156.058 438.27C156.803 438.27 157.37 437.918 157.685 437.273L158.583 437.582C158.137 438.585 157.197 439.158 156.1 439.158ZM154.346 435.677H157.706C157.591 434.564 157.05 434.012 156.089 434.012C155.071 434.012 154.478 434.6 154.346 435.677ZM163.266 439V432.474L161.843 433.335V432.29L163.266 431.44H164.216V439H163.266Z" fill="white"/>
    <path d="M126.429 44L126.429 424" stroke="black" stroke-width="0.75"/>
    <path d="M199.318 439V431.44H200.252V434.774H204.232V431.44H205.166V439H204.232V435.661H200.252V439H199.318ZM207.427 441.52L208.361 438.979L206.062 433.33H207.043L208.813 437.792L210.472 433.33H211.422L208.335 441.52H207.427ZM214.893 439.158C214.126 439.158 213.533 438.858 213.118 438.359V439H212.284V431.44H213.223V433.844C213.628 433.419 214.189 433.172 214.898 433.172C216.473 433.172 217.434 434.459 217.434 436.16C217.434 437.861 216.478 439.158 214.893 439.158ZM213.118 436.16C213.118 437.404 213.633 438.302 214.777 438.302C215.896 438.302 216.442 437.367 216.442 436.16C216.442 434.963 215.906 434.028 214.751 434.028C213.643 434.028 213.118 434.905 213.118 436.16ZM218.585 439V433.33H219.42V434.228C219.546 434.007 219.714 433.813 219.903 433.676C220.338 433.325 221.005 433.22 221.509 433.33V434.207C221.115 434.107 220.606 434.133 220.212 434.422C219.661 434.816 219.525 435.482 219.525 436.154V439H218.585ZM222.607 432.327V431.361H223.541V432.327H222.607ZM222.607 439V433.33H223.541V439H222.607ZM227.343 439.158C225.757 439.158 224.802 437.861 224.802 436.16C224.802 434.459 225.762 433.172 227.337 433.172C228.046 433.172 228.608 433.419 229.012 433.844V431.44H229.952V439H229.117V438.359C228.702 438.858 228.109 439.158 227.343 439.158ZM225.794 436.16C225.794 437.367 226.34 438.302 227.458 438.302C228.603 438.302 229.117 437.404 229.117 436.16C229.117 434.905 228.592 434.028 227.484 434.028C226.329 434.028 225.794 434.963 225.794 436.16ZM233.838 439.158C232.142 439.158 231.108 437.918 231.108 436.16C231.108 434.38 232.173 433.172 233.838 433.172C235.539 433.172 236.573 434.406 236.573 436.16C236.573 437.939 235.523 439.158 233.838 439.158ZM232.1 436.16C232.1 437.441 232.693 438.27 233.838 438.27C235.008 438.27 235.581 437.409 235.581 436.16C235.581 434.884 234.998 434.06 233.838 434.06C232.651 434.06 232.1 434.921 232.1 436.16ZM244.512 435.372C244.512 434.527 244.008 434.018 243.294 434.018C242.659 434.018 242.055 434.443 242.055 435.398L242.05 439H241.12L241.126 435.409C241.126 434.548 240.637 434.018 239.897 434.018C239.157 434.018 238.663 434.569 238.663 435.398V439H237.724V433.33H238.558V433.934C238.915 433.472 239.493 433.183 240.17 433.183C240.937 433.183 241.519 433.524 241.824 434.117C242.16 433.535 242.795 433.183 243.541 433.183C244.722 433.183 245.446 433.96 245.446 435.167L245.441 439H244.507L244.512 435.372ZM248.426 439.158C247.155 439.158 246.499 438.38 246.499 437.467C246.499 436.574 247.029 436.055 247.89 435.803C248.599 435.614 249.596 435.493 250.436 435.377C250.41 434.474 250.022 434.044 249.04 434.044C248.352 434.044 247.801 434.343 247.596 435.036L246.709 434.768C246.977 433.776 247.769 433.172 249.05 433.172C250.074 433.172 250.846 433.54 251.171 434.28C251.329 434.632 251.355 435.047 251.355 435.493V439H250.526V438.118C250.074 438.811 249.371 439.158 248.426 439.158ZM247.428 437.462C247.428 437.929 247.759 438.375 248.567 438.375C249.575 438.375 250.195 437.771 250.331 437.068C250.41 436.795 250.421 436.433 250.426 436.175C249.628 436.28 248.861 436.37 248.31 436.527C247.843 436.674 247.428 436.931 247.428 437.462ZM254.927 439V431.44H255.862V439H254.927ZM257.542 432.327V431.361H258.476V432.327H257.542ZM257.542 439V433.33H258.476V439H257.542ZM264.089 436.16C264.089 435.094 263.748 434.07 262.551 434.07C261.611 434.07 260.991 434.7 260.991 436.013V439H260.046V433.33H260.886V434.06C261.306 433.498 261.957 433.183 262.776 433.183C264.603 433.183 265.034 434.789 265.034 435.866V439H264.089V436.16ZM268.805 439.158C267.13 439.158 266.033 437.976 266.033 436.202C266.033 434.343 267.114 433.172 268.763 433.172C270.469 433.172 271.466 434.411 271.382 436.427H267.035C267.109 437.603 267.718 438.27 268.763 438.27C269.508 438.27 270.075 437.918 270.39 437.273L271.288 437.582C270.842 438.585 269.902 439.158 268.805 439.158ZM267.051 435.677H270.411C270.296 434.564 269.755 434.012 268.794 434.012C267.776 434.012 267.182 434.6 267.051 435.677ZM274.443 438.995L274.448 438.155L277.803 435.136C278.36 434.637 278.512 434.201 278.512 433.724C278.512 432.852 277.861 432.175 276.989 432.175C276.086 432.175 275.425 432.894 275.435 433.718H274.48C274.48 432.296 275.551 431.282 277.005 431.282C278.407 431.282 279.467 432.343 279.467 433.734C279.467 434.726 279.095 435.225 278.318 435.913L275.882 438.102H279.467V438.995H274.443Z" fill="white"/>
    <path d="M239.286 44L239.286 424" stroke="black" stroke-width="0.75"/>
    <path d="M312.507 439V431.44H313.441V434.774H317.421V431.44H318.355V439H317.421V435.661H313.441V439H312.507ZM320.616 441.52L321.55 438.979L319.251 433.33H320.233L322.002 437.792L323.661 433.33H324.611L321.524 441.52H320.616ZM328.082 439.158C327.316 439.158 326.722 438.858 326.308 438.359V439H325.473V431.44H326.413V433.844C326.817 433.419 327.379 433.172 328.087 433.172C329.662 433.172 330.623 434.459 330.623 436.16C330.623 437.861 329.668 439.158 328.082 439.158ZM326.308 436.16C326.308 437.404 326.822 438.302 327.967 438.302C329.085 438.302 329.631 437.367 329.631 436.16C329.631 434.963 329.095 434.028 327.94 434.028C326.833 434.028 326.308 434.905 326.308 436.16ZM331.774 439V433.33H332.609V434.228C332.735 434.007 332.903 433.813 333.092 433.676C333.528 433.325 334.194 433.22 334.698 433.33V434.207C334.305 434.107 333.795 434.133 333.402 434.422C332.85 434.816 332.714 435.482 332.714 436.154V439H331.774ZM335.796 432.327V431.361H336.731V432.327H335.796ZM335.796 439V433.33H336.731V439H335.796ZM340.532 439.158C338.946 439.158 337.991 437.861 337.991 436.16C337.991 434.459 338.952 433.172 340.527 433.172C341.235 433.172 341.797 433.419 342.201 433.844V431.44H343.141V439H342.306V438.359C341.892 438.858 341.298 439.158 340.532 439.158ZM338.983 436.16C338.983 437.367 339.529 438.302 340.647 438.302C341.792 438.302 342.306 437.404 342.306 436.16C342.306 434.905 341.781 434.028 340.674 434.028C339.519 434.028 338.983 434.963 338.983 436.16ZM347.027 439.158C345.331 439.158 344.297 437.918 344.297 436.16C344.297 434.38 345.363 433.172 347.027 433.172C348.728 433.172 349.762 434.406 349.762 436.16C349.762 437.939 348.712 439.158 347.027 439.158ZM345.289 436.16C345.289 437.441 345.882 438.27 347.027 438.27C348.198 438.27 348.77 437.409 348.77 436.16C348.77 434.884 348.187 434.06 347.027 434.06C345.84 434.06 345.289 434.921 345.289 436.16ZM357.701 435.372C357.701 434.527 357.197 434.018 356.483 434.018C355.848 434.018 355.244 434.443 355.244 435.398L355.239 439H354.31L354.315 435.409C354.315 434.548 353.827 434.018 353.086 434.018C352.346 434.018 351.853 434.569 351.853 435.398V439H350.913V433.33H351.748V433.934C352.105 433.472 352.682 433.183 353.359 433.183C354.126 433.183 354.709 433.524 355.013 434.117C355.349 433.535 355.984 433.183 356.73 433.183C357.911 433.183 358.636 433.96 358.636 435.167L358.63 439H357.696L357.701 435.372ZM361.615 439.158C360.344 439.158 359.688 438.38 359.688 437.467C359.688 436.574 360.218 436.055 361.079 435.803C361.788 435.614 362.786 435.493 363.626 435.377C363.599 434.474 363.211 434.044 362.229 434.044C361.541 434.044 360.99 434.343 360.785 435.036L359.898 434.768C360.166 433.776 360.959 433.172 362.24 433.172C363.263 433.172 364.035 433.54 364.361 434.28C364.518 434.632 364.544 435.047 364.544 435.493V439H363.715V438.118C363.263 438.811 362.56 439.158 361.615 439.158ZM360.617 437.462C360.617 437.929 360.948 438.375 361.757 438.375C362.765 438.375 363.384 437.771 363.521 437.068C363.599 436.795 363.61 436.433 363.615 436.175C362.817 436.28 362.051 436.37 361.499 436.527C361.032 436.674 360.617 436.931 360.617 437.462ZM368.116 439V431.44H369.051V439H368.116ZM370.731 432.327V431.361H371.666V432.327H370.731ZM370.731 439V433.33H371.666V439H370.731ZM377.278 436.16C377.278 435.094 376.937 434.07 375.74 434.07C374.8 434.07 374.181 434.7 374.181 436.013V439H373.236V433.33H374.076V434.06C374.496 433.498 375.147 433.183 375.966 433.183C377.793 433.183 378.223 434.789 378.223 435.866V439H377.278V436.16ZM381.994 439.158C380.319 439.158 379.222 437.976 379.222 436.202C379.222 434.343 380.303 433.172 381.952 433.172C383.658 433.172 384.656 434.411 384.572 436.427H380.225C380.298 437.603 380.907 438.27 381.952 438.27C382.697 438.27 383.264 437.918 383.579 437.273L384.477 437.582C384.031 438.585 383.091 439.158 381.994 439.158ZM380.24 435.677H383.6C383.485 434.564 382.944 434.012 381.983 434.012C380.965 434.012 380.372 434.6 380.24 435.677ZM389.916 439.147C388.793 439.147 387.848 438.496 387.527 437.446L388.425 437.189C388.651 437.892 389.239 438.265 389.911 438.254C390.83 438.239 391.423 437.598 391.423 436.674C391.423 435.74 390.809 435.094 389.9 435.094C389.643 435.094 389.354 435.173 389.118 435.293L388.667 434.553L391.124 432.332H387.827V431.44H392.284V432.338L390.242 434.296C391.544 434.369 392.384 435.351 392.384 436.674C392.384 438.123 391.318 439.147 389.916 439.147Z" fill="white"/>
    <path d="M352.143 44L352.143 424" stroke="black" stroke-width="0.75"/>
    <path d="M424.19 439V431.44H425.124V434.774H429.104V431.44H430.038V439H429.104V435.661H425.124V439H424.19ZM432.299 441.52L433.233 438.979L430.934 433.33H431.915L433.685 437.792L435.344 433.33H436.294L433.207 441.52H432.299ZM439.765 439.158C438.999 439.158 438.405 438.858 437.991 438.359V439H437.156V431.44H438.096V433.844C438.5 433.419 439.062 433.172 439.77 433.172C441.345 433.172 442.306 434.459 442.306 436.16C442.306 437.861 441.351 439.158 439.765 439.158ZM437.991 436.16C437.991 437.404 438.505 438.302 439.65 438.302C440.768 438.302 441.314 437.367 441.314 436.16C441.314 434.963 440.778 434.028 439.623 434.028C438.516 434.028 437.991 434.905 437.991 436.16ZM443.457 439V433.33H444.292V434.228C444.418 434.007 444.586 433.813 444.775 433.676C445.21 433.325 445.877 433.22 446.381 433.33V434.207C445.987 434.107 445.478 434.133 445.084 434.422C444.533 434.816 444.397 435.482 444.397 436.154V439H443.457ZM447.479 432.327V431.361H448.413V432.327H447.479ZM447.479 439V433.33H448.413V439H447.479ZM452.215 439.158C450.629 439.158 449.674 437.861 449.674 436.16C449.674 434.459 450.634 433.172 452.209 433.172C452.918 433.172 453.48 433.419 453.884 433.844V431.44H454.824V439H453.989V438.359C453.574 438.858 452.981 439.158 452.215 439.158ZM450.666 436.16C450.666 437.367 451.212 438.302 452.33 438.302C453.475 438.302 453.989 437.404 453.989 436.16C453.989 434.905 453.464 434.028 452.356 434.028C451.201 434.028 450.666 434.963 450.666 436.16ZM458.71 439.158C457.014 439.158 455.98 437.918 455.98 436.16C455.98 434.38 457.046 433.172 458.71 433.172C460.411 433.172 461.445 434.406 461.445 436.16C461.445 437.939 460.395 439.158 458.71 439.158ZM456.972 436.16C456.972 437.441 457.565 438.27 458.71 438.27C459.881 438.27 460.453 437.409 460.453 436.16C460.453 434.884 459.87 434.06 458.71 434.06C457.523 434.06 456.972 434.921 456.972 436.16ZM469.384 435.372C469.384 434.527 468.88 434.018 468.166 434.018C467.531 434.018 466.927 434.443 466.927 435.398L466.922 439H465.992L465.998 435.409C465.998 434.548 465.509 434.018 464.769 434.018C464.029 434.018 463.535 434.569 463.535 435.398V439H462.596V433.33H463.43V433.934C463.787 433.472 464.365 433.183 465.042 433.183C465.809 433.183 466.391 433.524 466.696 434.117C467.032 433.535 467.667 433.183 468.413 433.183C469.594 433.183 470.318 433.96 470.318 435.167L470.313 439H469.379L469.384 435.372ZM473.298 439.158C472.027 439.158 471.371 438.38 471.371 437.467C471.371 436.574 471.901 436.055 472.762 435.803C473.471 435.614 474.468 435.493 475.308 435.377C475.282 434.474 474.894 434.044 473.912 434.044C473.224 434.044 472.673 434.343 472.468 435.036L471.581 434.768C471.849 433.776 472.641 433.172 473.922 433.172C474.946 433.172 475.718 433.54 476.043 434.28C476.201 434.632 476.227 435.047 476.227 435.493V439H475.398V438.118C474.946 438.811 474.243 439.158 473.298 439.158ZM472.3 437.462C472.3 437.929 472.631 438.375 473.439 438.375C474.447 438.375 475.067 437.771 475.203 437.068C475.282 436.795 475.293 436.433 475.298 436.175C474.5 436.28 473.733 436.37 473.182 436.527C472.715 436.674 472.3 436.931 472.3 437.462ZM479.799 439V431.44H480.734V439H479.799ZM482.414 432.327V431.361H483.348V432.327H482.414ZM482.414 439V433.33H483.348V439H482.414ZM488.961 436.16C488.961 435.094 488.62 434.07 487.423 434.07C486.483 434.07 485.863 434.7 485.863 436.013V439H484.918V433.33H485.758V434.06C486.178 433.498 486.829 433.183 487.648 433.183C489.475 433.183 489.906 434.789 489.906 435.866V439H488.961V436.16ZM493.677 439.158C492.002 439.158 490.905 437.976 490.905 436.202C490.905 434.343 491.986 433.172 493.635 433.172C495.341 433.172 496.338 434.411 496.254 436.427H491.907C491.981 437.603 492.59 438.27 493.635 438.27C494.38 438.27 494.947 437.918 495.262 437.273L496.16 437.582C495.714 438.585 494.774 439.158 493.677 439.158ZM491.923 435.677H495.283C495.168 434.564 494.627 434.012 493.666 434.012C492.648 434.012 492.054 434.6 491.923 435.677ZM502.791 439V437.609H499.315V436.721L501.809 431.44H502.87L500.376 436.721H502.791V434.595H503.736V436.721H504.523V437.609H503.736V439H502.791Z" fill="white"/>
    <path d="M465 44L465 424" stroke="black" stroke-width="0.75"/>
    <path d="M537.879 439V431.44H538.814V434.774H542.793V431.44H543.728V439H542.793V435.661H538.814V439H537.879ZM545.988 441.52L546.922 438.979L544.623 433.33H545.605L547.374 437.792L549.033 433.33H549.983L546.896 441.52H545.988ZM553.454 439.158C552.688 439.158 552.094 438.858 551.68 438.359V439H550.845V431.44H551.785V433.844C552.189 433.419 552.751 433.172 553.459 433.172C555.034 433.172 555.995 434.459 555.995 436.16C555.995 437.861 555.04 439.158 553.454 439.158ZM551.68 436.16C551.68 437.404 552.194 438.302 553.339 438.302C554.457 438.302 555.003 437.367 555.003 436.16C555.003 434.963 554.467 434.028 553.312 434.028C552.205 434.028 551.68 434.905 551.68 436.16ZM557.146 439V433.33H557.981V434.228C558.107 434.007 558.275 433.813 558.464 433.676C558.9 433.325 559.566 433.22 560.07 433.33V434.207C559.677 434.107 559.167 434.133 558.774 434.422C558.222 434.816 558.086 435.482 558.086 436.154V439H557.146ZM561.168 432.327V431.361H562.103V432.327H561.168ZM561.168 439V433.33H562.103V439H561.168ZM565.904 439.158C564.318 439.158 563.363 437.861 563.363 436.16C563.363 434.459 564.324 433.172 565.899 433.172C566.607 433.172 567.169 433.419 567.573 433.844V431.44H568.513V439H567.678V438.359C567.264 438.858 566.67 439.158 565.904 439.158ZM564.355 436.16C564.355 437.367 564.901 438.302 566.019 438.302C567.164 438.302 567.678 437.404 567.678 436.16C567.678 434.905 567.153 434.028 566.046 434.028C564.891 434.028 564.355 434.963 564.355 436.16ZM572.399 439.158C570.703 439.158 569.669 437.918 569.669 436.16C569.669 434.38 570.735 433.172 572.399 433.172C574.1 433.172 575.134 434.406 575.134 436.16C575.134 437.939 574.084 439.158 572.399 439.158ZM570.661 436.16C570.661 437.441 571.254 438.27 572.399 438.27C573.57 438.27 574.142 437.409 574.142 436.16C574.142 434.884 573.559 434.06 572.399 434.06C571.212 434.06 570.661 434.921 570.661 436.16ZM583.073 435.372C583.073 434.527 582.569 434.018 581.855 434.018C581.22 434.018 580.616 434.443 580.616 435.398L580.611 439H579.682L579.687 435.409C579.687 434.548 579.199 434.018 578.458 434.018C577.718 434.018 577.225 434.569 577.225 435.398V439H576.285V433.33H577.12V433.934C577.477 433.472 578.054 433.183 578.731 433.183C579.498 433.183 580.081 433.524 580.385 434.117C580.721 433.535 581.356 433.183 582.102 433.183C583.283 433.183 584.008 433.96 584.008 435.167L584.002 439H583.068L583.073 435.372ZM586.987 439.158C585.716 439.158 585.06 438.38 585.06 437.467C585.06 436.574 585.59 436.055 586.451 435.803C587.16 435.614 588.158 435.493 588.998 435.377C588.971 434.474 588.583 434.044 587.601 434.044C586.913 434.044 586.362 434.343 586.157 435.036L585.27 434.768C585.538 433.776 586.331 433.172 587.612 433.172C588.635 433.172 589.407 433.54 589.733 434.28C589.89 434.632 589.916 435.047 589.916 435.493V439H589.087V438.118C588.635 438.811 587.932 439.158 586.987 439.158ZM585.989 437.462C585.989 437.929 586.32 438.375 587.129 438.375C588.137 438.375 588.756 437.771 588.893 437.068C588.971 436.795 588.982 436.433 588.987 436.175C588.189 436.28 587.423 436.37 586.871 436.527C586.404 436.674 585.989 436.931 585.989 437.462ZM593.488 439V431.44H594.423V439H593.488ZM596.103 432.327V431.361H597.038V432.327H596.103ZM596.103 439V433.33H597.038V439H596.103ZM602.65 436.16C602.65 435.094 602.309 434.07 601.112 434.07C600.172 434.07 599.553 434.7 599.553 436.013V439H598.608V433.33H599.448V434.06C599.868 433.498 600.519 433.183 601.338 433.183C603.165 433.183 603.595 434.789 603.595 435.866V439H602.65V436.16ZM607.366 439.158C605.691 439.158 604.594 437.976 604.594 436.202C604.594 434.343 605.675 433.172 607.324 433.172C609.03 433.172 610.028 434.411 609.944 436.427H605.597C605.67 437.603 606.279 438.27 607.324 438.27C608.069 438.27 608.636 437.918 608.951 437.273L609.849 437.582C609.403 438.585 608.463 439.158 607.366 439.158ZM605.612 435.677H608.972C608.857 434.564 608.316 434.012 607.355 434.012C606.337 434.012 605.744 434.6 605.612 435.677ZM615.451 439.158C614.28 439.158 613.309 438.38 613.004 437.278L613.902 437.036C614.091 437.782 614.774 438.249 615.477 438.249C616.396 438.249 617.11 437.509 617.11 436.622C617.11 435.708 616.359 434.994 615.477 434.994C614.81 434.994 614.338 435.314 614.065 435.708L613.235 435.393L613.466 431.44H617.525V432.327H614.306L614.17 434.621C614.564 434.306 615.073 434.133 615.582 434.133C616.984 434.133 618.05 435.215 618.05 436.622C618.05 438.018 616.858 439.158 615.451 439.158Z" fill="white"/>
    <path d="M577.858 44L577.858 424" stroke="black" stroke-width="0.75"/>
    <path d="M650.521 439V431.44H651.455V434.774H655.435V431.44H656.369V439H655.435V435.661H651.455V439H650.521ZM658.63 441.52L659.564 438.979L657.265 433.33H658.246L660.016 437.792L661.675 433.33H662.625L659.538 441.52H658.63ZM666.096 439.158C665.33 439.158 664.736 438.858 664.322 438.359V439H663.487V431.44H664.427V433.844C664.831 433.419 665.393 433.172 666.101 433.172C667.676 433.172 668.637 434.459 668.637 436.16C668.637 437.861 667.682 439.158 666.096 439.158ZM664.322 436.16C664.322 437.404 664.836 438.302 665.981 438.302C667.099 438.302 667.645 437.367 667.645 436.16C667.645 434.963 667.109 434.028 665.954 434.028C664.847 434.028 664.322 434.905 664.322 436.16ZM669.788 439V433.33H670.623V434.228C670.749 434.007 670.917 433.813 671.106 433.676C671.541 433.325 672.208 433.22 672.712 433.33V434.207C672.318 434.107 671.809 434.133 671.415 434.422C670.864 434.816 670.728 435.482 670.728 436.154V439H669.788ZM673.81 432.327V431.361H674.744V432.327H673.81ZM673.81 439V433.33H674.744V439H673.81ZM678.546 439.158C676.96 439.158 676.005 437.861 676.005 436.16C676.005 434.459 676.965 433.172 678.54 433.172C679.249 433.172 679.811 433.419 680.215 433.844V431.44H681.155V439H680.32V438.359C679.905 438.858 679.312 439.158 678.546 439.158ZM676.997 436.16C676.997 437.367 677.543 438.302 678.661 438.302C679.806 438.302 680.32 437.404 680.32 436.16C680.32 434.905 679.795 434.028 678.687 434.028C677.532 434.028 676.997 434.963 676.997 436.16ZM685.041 439.158C683.345 439.158 682.311 437.918 682.311 436.16C682.311 434.38 683.377 433.172 685.041 433.172C686.742 433.172 687.776 434.406 687.776 436.16C687.776 437.939 686.726 439.158 685.041 439.158ZM683.303 436.16C683.303 437.441 683.896 438.27 685.041 438.27C686.212 438.27 686.784 437.409 686.784 436.16C686.784 434.884 686.201 434.06 685.041 434.06C683.854 434.06 683.303 434.921 683.303 436.16ZM695.715 435.372C695.715 434.527 695.211 434.018 694.497 434.018C693.862 434.018 693.258 434.443 693.258 435.398L693.253 439H692.324L692.329 435.409C692.329 434.548 691.841 434.018 691.1 434.018C690.36 434.018 689.867 434.569 689.867 435.398V439H688.927V433.33H689.762V433.934C690.119 433.472 690.696 433.183 691.373 433.183C692.14 433.183 692.723 433.524 693.027 434.117C693.363 433.535 693.998 433.183 694.744 433.183C695.925 433.183 696.65 433.96 696.65 435.167L696.644 439H695.71L695.715 435.372ZM699.629 439.158C698.358 439.158 697.702 438.38 697.702 437.467C697.702 436.574 698.232 436.055 699.093 435.803C699.802 435.614 700.799 435.493 701.639 435.377C701.613 434.474 701.225 434.044 700.243 434.044C699.555 434.044 699.004 434.343 698.799 435.036L697.912 434.768C698.18 433.776 698.972 433.172 700.253 433.172C701.277 433.172 702.049 433.54 702.374 434.28C702.532 434.632 702.558 435.047 702.558 435.493V439H701.729V438.118C701.277 438.811 700.574 439.158 699.629 439.158ZM698.631 437.462C698.631 437.929 698.962 438.375 699.77 438.375C700.778 438.375 701.398 437.771 701.534 437.068C701.613 436.795 701.624 436.433 701.629 436.175C700.831 436.28 700.064 436.37 699.513 436.527C699.046 436.674 698.631 436.931 698.631 437.462ZM706.13 439V431.44H707.065V439H706.13ZM708.745 432.327V431.361H709.68V432.327H708.745ZM708.745 439V433.33H709.68V439H708.745ZM715.292 436.16C715.292 435.094 714.951 434.07 713.754 434.07C712.814 434.07 712.195 434.7 712.195 436.013V439H711.25V433.33H712.09V434.06C712.51 433.498 713.161 433.183 713.98 433.183C715.807 433.183 716.237 434.789 716.237 435.866V439H715.292V436.16ZM720.008 439.158C718.333 439.158 717.236 437.976 717.236 436.202C717.236 434.343 718.317 433.172 719.966 433.172C721.672 433.172 722.669 434.411 722.585 436.427H718.238C718.312 437.603 718.921 438.27 719.966 438.27C720.711 438.27 721.278 437.918 721.593 437.273L722.491 437.582C722.045 438.585 721.105 439.158 720.008 439.158ZM718.254 435.677H721.614C721.499 434.564 720.958 434.012 719.997 434.012C718.979 434.012 718.385 434.6 718.254 435.677ZM728.434 439.158C726.99 439.158 725.856 438.023 725.856 436.506V433.991C725.856 432.406 726.969 431.288 728.518 431.288C729.348 431.288 730.093 431.639 730.587 432.275L729.888 432.894C729.584 432.458 729.075 432.175 728.518 432.175C727.515 432.175 726.807 432.983 726.807 433.886V434.915C727.242 434.432 727.867 434.133 728.544 434.133C729.951 434.133 731.012 435.22 731.012 436.627C731.012 438.034 729.841 439.158 728.434 439.158ZM726.807 436.627C726.807 437.519 727.531 438.254 728.434 438.254C729.337 438.254 730.067 437.53 730.067 436.627C730.067 435.724 729.342 434.994 728.439 434.994C727.536 434.994 726.807 435.724 726.807 436.627Z" fill="white"/>
    <path d="M690.715 44L690.715 424" stroke="black" stroke-width="0.75"/>
    <path d="M763.697 439V431.44H764.632V434.774H768.611V431.44H769.546V439H768.611V435.661H764.632V439H763.697ZM771.806 441.52L772.74 438.979L770.441 433.33H771.423L773.192 437.792L774.851 433.33H775.801L772.714 441.52H771.806ZM779.272 439.158C778.506 439.158 777.913 438.858 777.498 438.359V439H776.663V431.44H777.603V433.844C778.007 433.419 778.569 433.172 779.278 433.172C780.853 433.172 781.813 434.459 781.813 436.16C781.813 437.861 780.858 439.158 779.272 439.158ZM777.498 436.16C777.498 437.404 778.012 438.302 779.157 438.302C780.275 438.302 780.821 437.367 780.821 436.16C780.821 434.963 780.286 434.028 779.131 434.028C778.023 434.028 777.498 434.905 777.498 436.16ZM782.964 439V433.33H783.799V434.228C783.925 434.007 784.093 433.813 784.282 433.676C784.718 433.325 785.384 433.22 785.888 433.33V434.207C785.495 434.107 784.985 434.133 784.592 434.422C784.04 434.816 783.904 435.482 783.904 436.154V439H782.964ZM786.986 432.327V431.361H787.921V432.327H786.986ZM786.986 439V433.33H787.921V439H786.986ZM791.722 439.158C790.136 439.158 789.181 437.861 789.181 436.16C789.181 434.459 790.142 433.172 791.717 433.172C792.425 433.172 792.987 433.419 793.391 433.844V431.44H794.331V439H793.496V438.359C793.082 438.858 792.488 439.158 791.722 439.158ZM790.173 436.16C790.173 437.367 790.719 438.302 791.837 438.302C792.982 438.302 793.496 437.404 793.496 436.16C793.496 434.905 792.971 434.028 791.864 434.028C790.709 434.028 790.173 434.963 790.173 436.16ZM798.217 439.158C796.521 439.158 795.487 437.918 795.487 436.16C795.487 434.38 796.553 433.172 798.217 433.172C799.918 433.172 800.952 434.406 800.952 436.16C800.952 437.939 799.902 439.158 798.217 439.158ZM796.479 436.16C796.479 437.441 797.073 438.27 798.217 438.27C799.388 438.27 799.96 437.409 799.96 436.16C799.96 434.884 799.377 434.06 798.217 434.06C797.031 434.06 796.479 434.921 796.479 436.16ZM808.891 435.372C808.891 434.527 808.387 434.018 807.673 434.018C807.038 434.018 806.434 434.443 806.434 435.398L806.429 439H805.5L805.505 435.409C805.505 434.548 805.017 434.018 804.277 434.018C803.536 434.018 803.043 434.569 803.043 435.398V439H802.103V433.33H802.938V433.934C803.295 433.472 803.872 433.183 804.55 433.183C805.316 433.183 805.899 433.524 806.203 434.117C806.539 433.535 807.175 433.183 807.92 433.183C809.101 433.183 809.826 433.96 809.826 435.167L809.821 439H808.886L808.891 435.372ZM812.805 439.158C811.534 439.158 810.878 438.38 810.878 437.467C810.878 436.574 811.408 436.055 812.269 435.803C812.978 435.614 813.976 435.493 814.816 435.377C814.789 434.474 814.401 434.044 813.419 434.044C812.731 434.044 812.18 434.343 811.975 435.036L811.088 434.768C811.356 433.776 812.149 433.172 813.43 433.172C814.453 433.172 815.225 433.54 815.551 434.28C815.708 434.632 815.734 435.047 815.734 435.493V439H814.905V438.118C814.453 438.811 813.75 439.158 812.805 439.158ZM811.807 437.462C811.807 437.929 812.138 438.375 812.947 438.375C813.955 438.375 814.574 437.771 814.711 437.068C814.789 436.795 814.8 436.433 814.805 436.175C814.007 436.28 813.241 436.37 812.689 436.527C812.222 436.674 811.807 436.931 811.807 437.462ZM819.307 439V431.44H820.241V439H819.307ZM821.921 432.327V431.361H822.856V432.327H821.921ZM821.921 439V433.33H822.856V439H821.921ZM828.468 436.16C828.468 435.094 828.127 434.07 826.93 434.07C825.99 434.07 825.371 434.7 825.371 436.013V439H824.426V433.33H825.266V434.06C825.686 433.498 826.337 433.183 827.156 433.183C828.983 433.183 829.413 434.789 829.413 435.866V439H828.468V436.16ZM833.184 439.158C831.509 439.158 830.412 437.976 830.412 436.202C830.412 434.343 831.493 433.172 833.142 433.172C834.848 433.172 835.846 434.411 835.762 436.427H831.415C831.488 437.603 832.097 438.27 833.142 438.27C833.887 438.27 834.454 437.918 834.769 437.273L835.667 437.582C835.221 438.585 834.281 439.158 833.184 439.158ZM831.43 435.677H834.79C834.675 434.564 834.134 434.012 833.173 434.012C832.155 434.012 831.562 434.6 831.43 435.677ZM839.432 439L842.151 432.338H838.718V431.44H843.154V432.338L840.44 439H839.432Z" fill="white"/>
    <path d="M803.572 44L803.572 424" stroke="black" stroke-width="0.75"/>
    <path d="M70 424H860" stroke="white" stroke-width="0.75" stroke-linecap="square"/>
    <rect x="79.5" y="414" width="32" height="10" fill="url(#paint0_linear_14947_9668)" stroke="white" stroke-width="0.75"/>
    <rect x="111.5" y="317.5" width="32" height="106.5" fill="#929BAD" stroke="white" stroke-width="0.75"/>
    <rect x="143.5" y="346" width="32" height="78" fill="#D3D7E0" stroke="white" stroke-width="0.75"/>
    <rect x="192" y="407.5" width="32" height="16.5" fill="url(#paint1_linear_14947_9668)" stroke="white" stroke-width="0.75"/>
    <rect x="224" y="304" width="32" height="120" fill="#929BAD" stroke="white" stroke-width="0.75"/>
    <rect x="256" y="269.5" width="32" height="154.5" fill="#D3D7E0" stroke="white" stroke-width="0.75"/>
    <rect x="304.5" y="402.5" width="32" height="21.5" fill="url(#paint2_linear_14947_9668)" stroke="white" stroke-width="0.75"/>
    <rect x="336.5" y="256.5" width="32" height="167.5" fill="#929BAD" stroke="white" stroke-width="0.75"/>
    <rect x="368.5" y="55" width="32" height="369" fill="#D3D7E0" stroke="white" stroke-width="0.75"/>
    <rect x="417" y="403.5" width="32" height="20.5" fill="url(#paint3_linear_14947_9668)" stroke="white" stroke-width="0.75"/>
    <rect x="449" y="292" width="32" height="132" fill="#929BAD" stroke="white" stroke-width="0.75"/>
    <rect x="481" y="230" width="32" height="194" fill="#D3D7E0" stroke="white" stroke-width="0.75"/>
    <rect x="529.5" y="411.5" width="32" height="12.5" fill="url(#paint4_linear_14947_9668)" stroke="white" stroke-width="0.75"/>
    <rect x="561.5" y="294" width="32" height="130" fill="#929BAD" stroke="white" stroke-width="0.75"/>
    <rect x="593.5" y="89" width="32" height="335" fill="#D3D7E0" stroke="white" stroke-width="0.75"/>
    <rect x="642" y="406.5" width="32" height="17.5" fill="url(#paint5_linear_14947_9668)" stroke="white" stroke-width="0.75"/>
    <rect x="674" y="294" width="32" height="130" fill="#929BAD" stroke="white" stroke-width="0.75"/>
    <rect x="706" y="220" width="32" height="204" fill="#D3D7E0" stroke="white" stroke-width="0.75"/>
    <rect x="754.5" y="406" width="32" height="18" fill="url(#paint6_linear_14947_9668)" stroke="white" stroke-width="0.75"/>
    <rect x="786.5" y="322.5" width="32" height="101.5" fill="#929BAD" stroke="white" stroke-width="0.75"/>
    <rect x="818.5" y="144.5" width="32" height="279.5" fill="#D3D7E0" stroke="white" stroke-width="0.75"/>
    <rect x="646.625" y="13.625" width="12.75" height="12.75" rx="1.875" fill="url(#paint7_linear_14947_9668)" stroke="white" stroke-width="0.75"/>
    <path d="M665.735 24.5V16.94H666.586L669.442 22.9617L672.282 16.94H673.143V24.4947H672.256V18.9927L669.688 24.5H669.19L666.622 18.9927V24.5H665.735ZM674.72 17.8272V16.8612H675.654V17.8272H674.72ZM674.72 24.5V18.83H675.654V24.5H674.72ZM676.6 24.5L679.198 20.6727L676.668 16.94H677.807L679.765 19.8852L681.718 16.94H682.863L680.332 20.6727L682.926 24.5H681.787L679.765 21.4655L677.744 24.5H676.6ZM686.551 24.6575C684.289 24.6575 683.023 23.051 683.023 20.72C683.023 18.389 684.289 16.7825 686.551 16.7825C688.3 16.7825 689.449 17.7432 689.88 19.2447L688.93 19.4967C688.62 18.3732 687.827 17.675 686.551 17.675C684.861 17.675 684.021 18.9087 684.01 20.72C684 22.5312 684.861 23.765 686.551 23.765C687.827 23.765 688.62 23.0667 688.93 21.9432L689.88 22.1952C689.449 23.6967 688.3 24.6575 686.551 24.6575ZM691.031 24.5V16.94H694.019C694.166 16.94 694.381 16.9505 694.575 16.982C695.798 17.171 696.444 18.1212 696.444 19.3235C696.444 20.321 695.998 21.1452 695.142 21.5022L696.602 24.5H695.531L694.176 21.707H691.966V24.5H691.031ZM691.966 20.8197H693.987C694.118 20.8197 694.302 20.8092 694.46 20.7725C695.184 20.6097 695.489 19.9535 695.489 19.3235C695.489 18.6935 695.184 18.0372 694.46 17.8745C694.302 17.8377 694.118 17.8272 693.987 17.8272H691.966V20.8197Z" fill="white"/>
    <rect x="706.625" y="13.625" width="12.75" height="12.75" rx="1.875" fill="#929BAD" stroke="white" stroke-width="0.75"/>
    <path d="M727.683 24.5V17.8272H725.105V16.94H731.195V17.8272H728.617V24.5H727.683ZM732.031 24.5V16.94H735.018C735.165 16.94 735.38 16.9505 735.575 16.982C736.798 17.171 737.444 18.1212 737.444 19.3235C737.444 20.321 736.997 21.1452 736.142 21.5022L737.601 24.5H736.53L735.176 21.707H732.965V24.5H732.031ZM732.965 20.8197H734.987C735.118 20.8197 735.302 20.8092 735.459 20.7725C736.184 20.6097 736.488 19.9535 736.488 19.3235C736.488 18.6935 736.184 18.0372 735.459 17.8745C735.302 17.8377 735.118 17.8272 734.987 17.8272H732.965V20.8197ZM741.739 24.6575C739.986 24.6575 738.757 23.5077 738.757 21.7437V16.9452L739.702 16.94V21.665C739.702 23.0982 740.784 23.7755 741.739 23.7755C742.705 23.7755 743.776 23.0877 743.776 21.665V16.94H744.721V21.7437C744.721 23.5025 743.493 24.6575 741.739 24.6575ZM748.556 24.6575C746.95 24.6575 745.758 23.7965 745.506 22.4052L746.472 22.253C746.714 23.2085 747.548 23.7702 748.604 23.7702C749.617 23.7702 750.42 23.2662 750.42 22.442C750.42 21.7805 749.906 21.497 749.365 21.3342L747.438 20.762C746.598 20.5152 745.8 20.027 745.8 18.9087C745.8 17.57 746.939 16.7825 748.446 16.7877C749.969 16.7982 751.061 17.6225 751.339 18.998L750.347 19.1712C750.189 18.2525 749.396 17.6855 748.436 17.675C747.506 17.6645 746.787 18.1685 746.787 18.8667C746.787 19.565 747.485 19.8065 748.047 19.964L749.486 20.3787C750.142 20.5625 751.386 20.9352 751.386 22.3895C751.386 23.8542 750.126 24.6575 748.556 24.6575ZM754.435 24.5V17.8272H751.857V16.94H757.947V17.8272H755.37V24.5H754.435ZM761.844 24.5V23.1087H758.368V22.2215L760.862 16.94H761.923L759.429 22.2215H761.844V20.0952H762.789V22.2215H763.576V23.1087H762.789V24.5H761.844Z" fill="white"/>
    <rect x="773.625" y="13.625" width="12.75" height="12.75" rx="1.875" fill="#D3D7E0" stroke="white" stroke-width="0.75"/>
    <path d="M792.84 24.5V16.94H793.775V24.5H792.84ZM802.133 20.8722C802.133 20.027 801.629 19.5177 800.915 19.5177C800.279 19.5177 799.676 19.943 799.676 20.8985L799.67 24.5H798.741L798.746 20.909C798.746 20.048 798.258 19.5177 797.518 19.5177C796.778 19.5177 796.284 20.069 796.284 20.8985V24.5H795.344V18.83H796.179V19.4337C796.536 18.9717 797.114 18.683 797.791 18.683C798.557 18.683 799.14 19.0242 799.445 19.6175C799.781 19.0347 800.416 18.683 801.161 18.683C802.343 18.683 803.067 19.46 803.067 20.6675L803.062 24.5H802.127L802.133 20.8722ZM811.218 20.8722C811.218 20.027 810.714 19.5177 810 19.5177C809.364 19.5177 808.761 19.943 808.761 20.8985L808.755 24.5H807.826L807.831 20.909C807.831 20.048 807.343 19.5177 806.603 19.5177C805.863 19.5177 805.369 20.069 805.369 20.8985V24.5H804.429V18.83H805.264V19.4337C805.621 18.9717 806.199 18.683 806.876 18.683C807.642 18.683 808.225 19.0242 808.53 19.6175C808.866 19.0347 809.501 18.683 810.246 18.683C811.428 18.683 812.152 19.46 812.152 20.6675L812.147 24.5H811.212L811.218 20.8722ZM815.857 24.6575C814.13 24.6575 813.169 23.4027 813.153 21.665C813.169 19.8957 814.161 18.6725 815.868 18.6725C817.059 18.6725 817.983 19.3025 818.283 20.321L817.359 20.5992C817.117 19.943 816.545 19.5597 815.857 19.5597C814.692 19.5597 814.156 20.4365 814.146 21.665C814.156 22.9302 814.728 23.7702 815.857 23.7702C816.592 23.7702 817.08 23.4237 817.338 22.778L818.283 23.0247C817.884 24.0852 817.028 24.6575 815.857 24.6575ZM820.915 24.6575C819.644 24.6575 818.988 23.8805 818.988 22.967C818.988 22.0745 819.518 21.5547 820.379 21.3027C821.088 21.1137 822.085 20.993 822.925 20.8775C822.899 19.9745 822.511 19.544 821.529 19.544C820.841 19.544 820.29 19.8432 820.085 20.5362L819.198 20.2685C819.466 19.2762 820.258 18.6725 821.539 18.6725C822.563 18.6725 823.335 19.04 823.66 19.7802C823.818 20.132 823.844 20.5467 823.844 20.993V24.5H823.015V23.618C822.563 24.311 821.86 24.6575 820.915 24.6575ZM819.917 22.9617C819.917 23.429 820.248 23.8752 821.056 23.8752C822.064 23.8752 822.684 23.2715 822.82 22.568C822.899 22.295 822.91 21.9327 822.915 21.6755C822.117 21.7805 821.35 21.8697 820.799 22.0272C820.332 22.1742 819.917 22.4315 819.917 22.9617ZM829.246 21.6597C829.246 20.594 828.905 19.5702 827.708 19.5702C826.768 19.5702 826.149 20.2002 826.149 21.5127V24.5H825.204V18.83H826.044V19.5597C826.464 18.998 827.115 18.683 827.934 18.683C829.761 18.683 830.191 20.2895 830.191 21.3657V24.5H829.246V21.6597ZM834.722 24.5C833.709 24.7048 832.664 24.5893 832.27 23.8175C832.045 23.3765 832.076 22.946 832.076 22.358V19.6017H830.926V18.83H832.076V17.255H833.011V18.83H834.722V19.6017H833.011V22.316C833.011 22.7832 832.99 23.0982 833.126 23.3345C833.378 23.786 833.945 23.8175 834.722 23.6967V24.5ZM837.485 24.6575C836.214 24.6575 835.558 23.8805 835.558 22.967C835.558 22.0745 836.088 21.5547 836.949 21.3027C837.658 21.1137 838.656 20.993 839.496 20.8775C839.469 19.9745 839.081 19.544 838.099 19.544C837.411 19.544 836.86 19.8432 836.655 20.5362L835.768 20.2685C836.036 19.2762 836.829 18.6725 838.11 18.6725C839.133 18.6725 839.905 19.04 840.231 19.7802C840.388 20.132 840.414 20.5467 840.414 20.993V24.5H839.585V23.618C839.133 24.311 838.43 24.6575 837.485 24.6575ZM836.487 22.9617C836.487 23.429 836.818 23.8752 837.627 23.8752C838.635 23.8752 839.254 23.2715 839.391 22.568C839.469 22.295 839.48 21.9327 839.485 21.6755C838.687 21.7805 837.921 21.8697 837.369 22.0272C836.902 22.1742 836.487 22.4315 836.487 22.9617ZM844.945 24.5C843.932 24.7048 842.887 24.5893 842.493 23.8175C842.268 23.3765 842.299 22.946 842.299 22.358V19.6017H841.149V18.83H842.299V17.255H843.234V18.83H844.945V19.6017H843.234V22.316C843.234 22.7832 843.213 23.0982 843.349 23.3345C843.601 23.786 844.168 23.8175 844.945 23.6967V24.5ZM846.201 17.8272V16.8612H847.136V17.8272H846.201ZM846.201 24.5V18.83H847.136V24.5H846.201ZM851.126 24.6575C849.43 24.6575 848.396 23.4185 848.396 21.6597C848.396 19.88 849.462 18.6725 851.126 18.6725C852.827 18.6725 853.861 19.9062 853.861 21.6597C853.861 23.4395 852.811 24.6575 851.126 24.6575ZM849.388 21.6597C849.388 22.9407 849.982 23.7702 851.126 23.7702C852.297 23.7702 852.869 22.9092 852.869 21.6597C852.869 20.384 852.286 19.5597 851.126 19.5597C849.94 19.5597 849.388 20.4207 849.388 21.6597ZM859.054 21.6597C859.054 20.594 858.713 19.5702 857.516 19.5702C856.576 19.5702 855.957 20.2002 855.957 21.5127V24.5H855.012V18.83H855.852V19.5597C856.272 18.998 856.923 18.683 857.742 18.683C859.569 18.683 859.999 20.2895 859.999 21.3657V24.5H859.054V21.6597Z" fill="white"/>
    <defs>
        <linearGradient id="paint0_linear_14947_9668" x1="95.5" y1="414" x2="95.5" y2="424" gradientUnits="userSpaceOnUse">
            <stop stop-color="#18CC18"/>
            <stop offset="1" stop-color="#A6F558"/>
        </linearGradient>
        <linearGradient id="paint1_linear_14947_9668" x1="208" y1="407.5" x2="208" y2="424" gradientUnits="userSpaceOnUse">
            <stop stop-color="#18CC18"/>
            <stop offset="1" stop-color="#A6F558"/>
        </linearGradient>
        <linearGradient id="paint2_linear_14947_9668" x1="320.5" y1="402.5" x2="320.5" y2="424" gradientUnits="userSpaceOnUse">
            <stop stop-color="#18CC18"/>
            <stop offset="1" stop-color="#A6F558"/>
        </linearGradient>
        <linearGradient id="paint3_linear_14947_9668" x1="433" y1="403.5" x2="433" y2="424" gradientUnits="userSpaceOnUse">
            <stop stop-color="#18CC18"/>
            <stop offset="1" stop-color="#A6F558"/>
        </linearGradient>
        <linearGradient id="paint4_linear_14947_9668" x1="545.5" y1="411.5" x2="545.5" y2="424" gradientUnits="userSpaceOnUse">
            <stop stop-color="#18CC18"/>
            <stop offset="1" stop-color="#A6F558"/>
        </linearGradient>
        <linearGradient id="paint5_linear_14947_9668" x1="658" y1="406.5" x2="658" y2="424" gradientUnits="userSpaceOnUse">
            <stop stop-color="#18CC18"/>
            <stop offset="1" stop-color="#A6F558"/>
        </linearGradient>
        <linearGradient id="paint6_linear_14947_9668" x1="770.5" y1="406" x2="770.5" y2="424" gradientUnits="userSpaceOnUse">
            <stop stop-color="#18CC18"/>
            <stop offset="1" stop-color="#A6F558"/>
        </linearGradient>
        <linearGradient id="paint7_linear_14947_9668" x1="653" y1="13.25" x2="653" y2="26.75" gradientUnits="userSpaceOnUse">
            <stop stop-color="#18CC18"/>
            <stop offset="1" stop-color="#A6F558"/>
        </linearGradient>
    </defs>
</svg>
