<svg width="960" height="402" viewBox="0 0 960 402" fill="none" xmlns="http://www.w3.org/2000/svg">
<rect width="960" height="402" fill="white"/>
<path d="M104 132V24" stroke="#D3D7E0" stroke-width="2" stroke-linecap="square" stroke-dasharray="6 6"/>
<path d="M130.268 37.21C132.151 37.21 133.768 35.705 133.768 33.829C133.768 31.939 132.382 30.525 130.499 30.525C129.904 30.525 129.274 30.714 128.777 31.071L128.945 28.299H133.075V26.92H127.636L127.328 32.219L128.602 32.667C128.917 32.247 129.484 31.855 130.31 31.855C131.388 31.855 132.291 32.723 132.291 33.829C132.291 34.907 131.416 35.796 130.31 35.796C129.47 35.796 128.637 35.229 128.406 34.333L126.999 34.711C127.412 36.181 128.714 37.21 130.268 37.21ZM135.672 29.629L135.581 30.28C136.589 30.462 137.128 29.846 137.128 28.747V26.92H135.581V28.607H136.386C136.456 29.202 136.281 29.678 135.672 29.629ZM143.15 37.21C145.523 37.21 147.168 35.663 147.168 33.29V26.92H145.684V33.213C145.684 34.914 144.417 35.831 143.15 35.831C141.897 35.831 140.616 34.935 140.616 33.213V26.92L139.132 26.927V33.29C139.132 35.663 140.777 37.21 143.15 37.21ZM151.639 37H153.102V28.299H156.455V26.92H148.286V28.299H151.639V37ZM157.576 37H159.039V33.381H161.713L163.47 37H165.143L163.239 33.094C164.38 32.597 164.954 31.491 164.954 30.147C164.954 28.516 164.114 27.235 162.427 26.976C162.161 26.934 161.846 26.92 161.65 26.92H157.576V37ZM159.039 31.995V28.299H161.594C161.776 28.299 162.021 28.313 162.231 28.369C163.127 28.579 163.463 29.405 163.463 30.147C163.463 30.889 163.127 31.715 162.231 31.932C162.021 31.981 161.776 31.995 161.594 31.995H159.039Z" fill="#D3D7E0"/>
<path d="M188 132V24" stroke="#D3D7E0" stroke-width="2" stroke-linecap="square" stroke-dasharray="6 6"/>
<path d="M207.442 37H213.469V35.621H208.905V26.92H207.442V37Z" fill="#D3D7E0"/>
<path d="M232 132V24" stroke="#D3D7E0" stroke-width="2" stroke-linecap="square" stroke-dasharray="6 6"/>
<path d="M255.858 37H257.321V32.695H260.989V31.225H257.321V28.383H261.829V26.92H255.858V37ZM263.09 37H264.553V33.381H267.227L268.984 37H270.657L268.753 33.094C269.894 32.597 270.468 31.491 270.468 30.147C270.468 28.516 269.628 27.235 267.941 26.976C267.675 26.934 267.36 26.92 267.164 26.92H263.09V37ZM264.553 31.995V28.299H267.108C267.29 28.299 267.535 28.313 267.745 28.369C268.641 28.579 268.977 29.405 268.977 30.147C268.977 30.889 268.641 31.715 267.745 31.932C267.535 31.981 267.29 31.995 267.108 31.995H264.553ZM273.953 37H275.444V26.92H273.953L272.056 28.054V29.685L273.953 28.53V37Z" fill="#D3D7E0"/>
<path d="M300 132V24" stroke="#D3D7E0" stroke-width="2" stroke-linecap="square" stroke-dasharray="6 6"/>
<path d="M321.735 37.21C324.059 37.21 325.62 35.943 326.215 33.955L324.731 33.556C324.332 34.963 323.331 35.817 321.735 35.817C319.593 35.817 318.501 34.27 318.515 31.96C318.522 29.65 319.593 28.103 321.735 28.103C323.331 28.103 324.332 28.957 324.731 30.364L326.215 29.965C325.62 27.977 324.059 26.71 321.735 26.71C318.711 26.71 316.968 28.845 316.968 31.96C316.968 35.075 318.711 37.21 321.735 37.21ZM327.754 37H330.911C331.093 37 331.695 37 332.164 36.937C334.53 36.636 335.79 34.529 335.79 31.96C335.79 29.391 334.53 27.284 332.164 26.983C331.695 26.92 331.093 26.92 330.911 26.92H327.754V37ZM329.252 35.607V28.313H330.911C331.219 28.313 331.723 28.32 332.059 28.383C333.571 28.663 334.236 30.189 334.236 31.96C334.236 33.689 333.599 35.243 332.059 35.537C331.723 35.6 331.233 35.607 330.911 35.607H329.252ZM337.42 37H338.883V33.381H341.557L343.314 37H344.987L343.083 33.094C344.224 32.597 344.798 31.491 344.798 30.147C344.798 28.516 343.958 27.235 342.271 26.976C342.005 26.934 341.69 26.92 341.494 26.92H337.42V37ZM338.883 31.995V28.299H341.438C341.62 28.299 341.865 28.313 342.075 28.369C342.971 28.579 343.307 29.405 343.307 30.147C343.307 30.889 342.971 31.715 342.075 31.932C341.865 31.981 341.62 31.995 341.438 31.995H338.883ZM348.283 37H349.774V26.92H348.283L346.386 28.054V29.685L348.283 28.53V37Z" fill="#D3D7E0"/>
<path d="M368 132V24" stroke="#D3D7E0" stroke-width="2" stroke-linecap="square" stroke-dasharray="6 6"/>
<path d="M390.703 37H392.166V32.695H395.834V31.225H392.166V28.383H396.674V26.92H390.703V37ZM397.935 37H399.398V33.381H402.072L403.829 37H405.502L403.598 33.094C404.739 32.597 405.313 31.491 405.313 30.147C405.313 28.516 404.473 27.235 402.786 26.976C402.52 26.934 402.205 26.92 402.009 26.92H397.935V37ZM399.398 31.995V28.299H401.953C402.135 28.299 402.38 28.313 402.59 28.369C403.486 28.579 403.822 29.405 403.822 30.147C403.822 30.889 403.486 31.715 402.59 31.932C402.38 31.981 402.135 31.995 401.953 31.995H399.398ZM406.761 36.993H413.579V35.6H409.022L411.941 32.996C413.033 32.037 413.579 31.407 413.579 30.028C413.579 28.117 412.144 26.71 410.24 26.71C408.231 26.71 406.796 28.047 406.796 30H408.294C408.28 28.985 409.092 28.103 410.212 28.103C411.297 28.103 412.074 28.929 412.074 30.007C412.074 30.581 411.864 31.127 411.157 31.757L406.768 35.691L406.761 36.993Z" fill="#D3D7E0"/>
<path d="M436 132V24" stroke="#D3D7E0" stroke-width="2" stroke-linecap="square" stroke-dasharray="6 6"/>
<path d="M456.58 37.21C458.904 37.21 460.465 35.943 461.06 33.955L459.576 33.556C459.177 34.963 458.176 35.817 456.58 35.817C454.438 35.817 453.346 34.27 453.36 31.96C453.367 29.65 454.438 28.103 456.58 28.103C458.176 28.103 459.177 28.957 459.576 30.364L461.06 29.965C460.465 27.977 458.904 26.71 456.58 26.71C453.556 26.71 451.813 28.845 451.813 31.96C451.813 35.075 453.556 37.21 456.58 37.21ZM462.599 37H465.756C465.938 37 466.54 37 467.009 36.937C469.375 36.636 470.635 34.529 470.635 31.96C470.635 29.391 469.375 27.284 467.009 26.983C466.54 26.92 465.938 26.92 465.756 26.92H462.599V37ZM464.097 35.607V28.313H465.756C466.064 28.313 466.568 28.32 466.904 28.383C468.416 28.663 469.081 30.189 469.081 31.96C469.081 33.689 468.444 35.243 466.904 35.537C466.568 35.6 466.078 35.607 465.756 35.607H464.097ZM472.265 37H473.728V33.381H476.402L478.159 37H479.832L477.928 33.094C479.069 32.597 479.643 31.491 479.643 30.147C479.643 28.516 478.803 27.235 477.116 26.976C476.85 26.934 476.535 26.92 476.339 26.92H472.265V37ZM473.728 31.995V28.299H476.283C476.465 28.299 476.71 28.313 476.92 28.369C477.816 28.579 478.152 29.405 478.152 30.147C478.152 30.889 477.816 31.715 476.92 31.932C476.71 31.981 476.465 31.995 476.283 31.995H473.728ZM481.091 36.993H487.909V35.6H483.352L486.271 32.996C487.363 32.037 487.909 31.407 487.909 30.028C487.909 28.117 486.474 26.71 484.57 26.71C482.561 26.71 481.126 28.047 481.126 30H482.624C482.61 28.985 483.422 28.103 484.542 28.103C485.627 28.103 486.404 28.929 486.404 30.007C486.404 30.581 486.194 31.127 485.487 31.757L481.098 35.691L481.091 36.993Z" fill="#D3D7E0"/>
<path d="M504 132V24" stroke="#D3D7E0" stroke-width="2" stroke-linecap="square" stroke-dasharray="6 6"/>
<path d="M526.805 37H528.268V32.695H531.936V31.225H528.268V28.383H532.776V26.92H526.805V37ZM534.038 37H535.501V33.381H538.175L539.932 37H541.605L539.701 33.094C540.842 32.597 541.416 31.491 541.416 30.147C541.416 28.516 540.576 27.235 538.889 26.976C538.623 26.934 538.308 26.92 538.112 26.92H534.038V37ZM535.501 31.995V28.299H538.056C538.238 28.299 538.483 28.313 538.693 28.369C539.589 28.579 539.925 29.405 539.925 30.147C539.925 30.889 539.589 31.715 538.693 31.932C538.483 31.981 538.238 31.995 538.056 31.995H535.501ZM545.964 37.189C547.847 37.189 549.331 35.796 549.331 33.871C549.331 32.233 548.323 30.924 546.692 30.707L549.184 28.313V26.92H543.122V28.313H547.392L544.312 31.036L544.998 32.191C545.285 32.037 545.628 31.939 545.95 31.939C547.07 31.939 547.833 32.751 547.833 33.871C547.833 34.984 547.07 35.789 545.964 35.803C545.138 35.81 544.403 35.341 544.137 34.466L542.723 34.858C543.15 36.293 544.466 37.189 545.964 37.189Z" fill="#D3D7E0"/>
<path d="M572 132V24" stroke="#D3D7E0" stroke-width="2" stroke-linecap="square" stroke-dasharray="6 6"/>
<path d="M622.682 37.21C621.674 37.21 620.815 36.9907 620.106 36.552C619.397 36.1087 618.853 35.4927 618.475 34.704C618.102 33.9153 617.915 33.0007 617.915 31.96C617.915 30.9193 618.102 30.0047 618.475 29.216C618.853 28.4273 619.397 27.8137 620.106 27.375C620.815 26.9317 621.674 26.71 622.682 26.71C623.844 26.71 624.805 27.004 625.566 27.592C626.331 28.18 626.863 28.971 627.162 29.965L625.678 30.364C625.482 29.6593 625.132 29.1063 624.628 28.705C624.129 28.3037 623.48 28.103 622.682 28.103C621.968 28.103 621.373 28.264 620.897 28.586C620.421 28.908 620.062 29.3583 619.819 29.937C619.581 30.5157 619.462 31.19 619.462 31.96C619.457 32.73 619.574 33.4043 619.812 33.983C620.055 34.5617 620.414 35.012 620.89 35.334C621.371 35.656 621.968 35.817 622.682 35.817C623.48 35.817 624.129 35.6163 624.628 35.215C625.132 34.809 625.482 34.256 625.678 33.556L627.162 33.955C626.863 34.949 626.331 35.74 625.566 36.328C624.805 36.916 623.844 37.21 622.682 37.21ZM628.702 37V26.92H631.859C631.952 26.92 632.125 26.9223 632.377 26.927C632.633 26.9317 632.878 26.9503 633.112 26.983C633.9 27.081 634.563 27.3633 635.1 27.83C635.641 28.2967 636.049 28.8893 636.325 29.608C636.6 30.322 636.738 31.106 636.738 31.96C636.738 32.8187 636.6 33.6073 636.325 34.326C636.049 35.04 635.641 35.6303 635.1 36.097C634.563 36.559 633.9 36.839 633.112 36.937C632.878 36.9697 632.633 36.9883 632.377 36.993C632.125 36.9977 631.952 37 631.859 37H628.702ZM630.2 35.607H631.859C632.017 35.607 632.206 35.6023 632.426 35.593C632.645 35.5837 632.839 35.565 633.007 35.537C633.52 35.439 633.935 35.2173 634.253 34.872C634.575 34.522 634.81 34.0927 634.96 33.584C635.109 33.0753 635.184 32.534 635.184 31.96C635.184 31.3673 635.107 30.819 634.953 30.315C634.799 29.8063 634.561 29.3817 634.239 29.041C633.921 28.6957 633.511 28.4763 633.007 28.383C632.839 28.3503 632.643 28.3317 632.419 28.327C632.199 28.3177 632.013 28.313 631.859 28.313H630.2V35.607ZM638.368 37V26.92H642.442C642.54 26.92 642.661 26.9247 642.806 26.934C642.95 26.9387 643.088 26.9527 643.219 26.976C643.779 27.0647 644.245 27.256 644.619 27.55C644.997 27.844 645.279 28.215 645.466 28.663C645.652 29.111 645.746 29.6057 645.746 30.147C645.746 30.9497 645.54 31.6427 645.13 32.226C644.719 32.8047 644.103 33.1663 643.282 33.311L642.687 33.381H639.831V37H638.368ZM644.262 37L642.274 32.898L643.751 32.52L645.935 37H644.262ZM639.831 31.995H642.386C642.479 31.995 642.582 31.9903 642.694 31.981C642.81 31.9717 642.92 31.9553 643.023 31.932C643.321 31.862 643.562 31.7337 643.744 31.547C643.926 31.3557 644.056 31.1363 644.136 30.889C644.215 30.6417 644.255 30.3943 644.255 30.147C644.255 29.8997 644.215 29.6547 644.136 29.412C644.056 29.1647 643.926 28.9477 643.744 28.761C643.562 28.5697 643.321 28.439 643.023 28.369C642.92 28.341 642.81 28.3223 642.694 28.313C642.582 28.3037 642.479 28.299 642.386 28.299H639.831V31.995ZM650.294 37.189C649.795 37.189 649.326 37.0957 648.887 36.909C648.448 36.7177 648.068 36.447 647.746 36.097C647.429 35.747 647.198 35.334 647.053 34.858L648.467 34.466C648.602 34.9 648.838 35.2337 649.174 35.467C649.51 35.6957 649.883 35.8077 650.294 35.803C650.663 35.7983 650.987 35.712 651.267 35.544C651.547 35.376 651.766 35.1497 651.925 34.865C652.084 34.5757 652.163 34.2443 652.163 33.871C652.163 33.311 651.988 32.849 651.638 32.485C651.293 32.121 650.84 31.939 650.28 31.939C650.121 31.939 649.958 31.9623 649.79 32.009C649.627 32.0557 649.473 32.1163 649.328 32.191L648.642 31.036L652.198 27.893L652.352 28.313H647.452V26.92H653.514V28.313L650.56 31.155L650.546 30.679C651.181 30.679 651.731 30.8213 652.198 31.106C652.665 31.386 653.024 31.7687 653.276 32.254C653.533 32.7347 653.661 33.2737 653.661 33.871C653.661 34.515 653.509 35.0867 653.206 35.586C652.907 36.0853 652.504 36.4773 651.995 36.762C651.491 37.0467 650.924 37.189 650.294 37.189Z" fill="#D3D7E0"/>
<path d="M700 132V24" stroke="#D3D7E0" stroke-width="2" stroke-linecap="square" stroke-dasharray="6 6"/>
<path d="M752.593 37V26.92H758.564V28.383H754.056V31.225H757.724V32.695H754.056V37H752.593ZM759.826 37V26.92H763.9C763.998 26.92 764.119 26.9247 764.264 26.934C764.408 26.9387 764.546 26.9527 764.677 26.976C765.237 27.0647 765.703 27.256 766.077 27.55C766.455 27.844 766.737 28.215 766.924 28.663C767.11 29.111 767.204 29.6057 767.204 30.147C767.204 30.9497 766.998 31.6427 766.588 32.226C766.177 32.8047 765.561 33.1663 764.74 33.311L764.145 33.381H761.289V37H759.826ZM765.72 37L763.732 32.898L765.209 32.52L767.393 37H765.72ZM761.289 31.995H763.844C763.937 31.995 764.04 31.9903 764.152 31.981C764.268 31.9717 764.378 31.9553 764.481 31.932C764.779 31.862 765.02 31.7337 765.202 31.547C765.384 31.3557 765.514 31.1363 765.594 30.889C765.673 30.6417 765.713 30.3943 765.713 30.147C765.713 29.8997 765.673 29.6547 765.594 29.412C765.514 29.1647 765.384 28.9477 765.202 28.761C765.02 28.5697 764.779 28.439 764.481 28.369C764.378 28.341 764.268 28.3223 764.152 28.313C764.04 28.3037 763.937 28.299 763.844 28.299H761.289V31.995ZM773.201 37V35.243H768.651V33.857L771.927 26.92H773.6L770.324 33.857H773.201V31.127H774.685V33.857H775.686V35.243H774.685V37H773.201Z" fill="#D3D7E0"/>
<path d="M828 132V24" stroke="#D3D7E0" stroke-width="2" stroke-linecap="square" stroke-dasharray="6 6"/>
<g filter="url(#filter0_i_5544_36135)">
<path d="M104 81.6C104 81.0399 104 80.7599 104.109 80.546C104.205 80.3578 104.358 80.2049 104.546 80.109C104.76 80 105.04 80 105.6 80H586.4C586.96 80 587.24 80 587.454 80.109C587.642 80.2049 587.795 80.3578 587.891 80.546C588 80.7599 588 81.0399 588 81.6V130.4C588 130.96 588 131.24 587.891 131.454C587.795 131.642 587.642 131.795 587.454 131.891C587.24 132 586.96 132 586.4 132H105.6C105.04 132 104.76 132 104.546 131.891C104.358 131.795 104.205 131.642 104.109 131.454C104 131.24 104 130.96 104 130.4V125.5V119V112V106V99.5V93V86.5V81.6Z" fill="#99E099"/>
</g>
<path d="M104 81.6C104 81.0399 104 80.7599 104.109 80.546C104.205 80.3578 104.358 80.2049 104.546 80.109C104.76 80 105.04 80 105.6 80H586.4C586.96 80 587.24 80 587.454 80.109C587.642 80.2049 587.795 80.3578 587.891 80.546C588 80.7599 588 81.0399 588 81.6V130.4C588 130.96 588 131.24 587.891 131.454C587.795 131.642 587.642 131.795 587.454 131.891C587.24 132 586.96 132 586.4 132H105.6C105.04 132 104.76 132 104.546 131.891C104.358 131.795 104.205 131.642 104.109 131.454C104 131.24 104 130.96 104 130.4V125.5V119V112V106V99.5V93V86.5V81.6Z" stroke="#110529" stroke-width="2" stroke-linecap="round"/>
<path d="M345.209 114H347.792L352.813 99H350.896L346.48 112.021L342.126 99H340.188L345.209 114Z" fill="#110529"/>
<g filter="url(#filter1_i_5544_36135)">
<path d="M828 81.6C828 81.0399 828 80.7599 827.891 80.546C827.795 80.3578 827.642 80.2049 827.454 80.109C827.24 80 826.96 80 826.4 80H685.6C685.04 80 684.76 80 684.546 80.109C684.358 80.2049 684.205 80.3578 684.109 80.546C684 80.7599 684 81.0399 684 81.6V106V130.4C684 130.96 684 131.24 684.109 131.454C684.205 131.642 684.358 131.795 684.546 131.891C684.76 132 685.04 132 685.6 132H826.4C826.96 132 827.24 132 827.454 131.891C827.642 131.795 827.795 131.642 827.891 131.454C828 131.24 828 130.96 828 130.4V125.5V119V112V106V99.5V93V86.5V81.6Z" fill="#C1ADFF"/>
</g>
<path d="M828 81.6C828 81.0399 828 80.7599 827.891 80.546C827.795 80.3578 827.642 80.2049 827.454 80.109C827.24 80 826.96 80 826.4 80H685.6C685.04 80 684.76 80 684.546 80.109C684.358 80.2049 684.205 80.3578 684.109 80.546C684 80.7599 684 81.0399 684 81.6V106V130.4C684 130.96 684 131.24 684.109 131.454C684.205 131.642 684.358 131.795 684.546 131.891C684.76 132 685.04 132 685.6 132H826.4C826.96 132 827.24 132 827.454 131.891C827.642 131.795 827.795 131.642 827.891 131.454C828 131.24 828 130.96 828 130.4V125.5V119V112V106V99.5V93V86.5V81.6Z" stroke="#110529" stroke-width="2" stroke-linecap="round"/>
<path d="M759.272 99V109.292C759.272 110.604 759.272 111.312 758.71 112.312C757.939 113.604 756.751 114.312 755.126 114.312C754.356 114.312 753.606 114.146 752.96 113.729C752.001 113.187 751.314 112.208 751.022 111.146L752.876 110.708C752.981 111.292 753.356 111.812 753.856 112.146C754.21 112.396 754.668 112.542 755.106 112.542C755.897 112.542 756.731 112.125 757.085 111.354C757.356 110.792 757.356 110.375 757.356 109.292V99H759.272Z" fill="#110529"/>
<g filter="url(#filter2_i_5544_36135)">
<path d="M904 80H829.6C829.04 80 828.76 80 828.546 80.109C828.358 80.2049 828.205 80.3578 828.109 80.546C828 80.7599 828 81.0399 828 81.6V130.4C828 130.96 828 131.24 828.109 131.454C828.205 131.642 828.358 131.795 828.546 131.891C828.76 132 829.04 132 829.6 132H904L899 125.5L904 119L899 112L904 106L899 99.5L904 93L899 86.5L904 80Z" fill="#FAFAAA"/>
</g>
<path d="M904 80H829.6C829.04 80 828.76 80 828.546 80.109C828.358 80.2049 828.205 80.3578 828.109 80.546C828 80.7599 828 81.0399 828 81.6V130.4C828 130.96 828 131.24 828.109 131.454C828.205 131.642 828.358 131.795 828.546 131.891C828.76 132 829.04 132 829.6 132H904L899 125.5L904 119L899 112L904 106L899 99.5L904 93L899 86.5L904 80Z" stroke="#110529" stroke-width="2" stroke-linecap="round"/>
<path d="M868.863 109.021C868.696 109.646 868.404 110.25 868.029 110.771C867.154 111.958 865.675 112.562 864.175 112.542C862.675 112.542 861.196 111.958 860.321 110.771C859.425 109.583 859.154 108.021 859.133 106.5C859.154 104.958 859.425 103.396 860.321 102.229C861.196 101.042 862.675 100.437 864.175 100.458C865.675 100.458 867.154 101.042 868.029 102.229C868.467 102.792 868.738 103.458 868.925 104.146L870.842 103.833C870.592 102.875 870.175 101.937 869.508 101.083C868.258 99.4792 866.279 98.6875 864.175 98.6875C862.05 98.6875 860.092 99.4583 858.842 101.083C857.613 102.625 857.175 104.521 857.154 106.5C857.133 108.417 857.613 110.354 858.842 111.896C860.092 113.479 862.029 114.312 864.175 114.312C866.258 114.312 868.217 113.542 869.508 111.896C870.071 111.188 870.467 110.375 870.717 109.562L868.863 109.021Z" fill="#110529"/>
<path d="M29.11 284H30.89V271.29H35.8V269.6H24.2V271.29H29.11V284ZM43.3122 284.3C46.6422 284.3 48.8322 282.47 49.6522 279.61L47.8422 279.13C47.2522 281.27 45.7422 282.6 43.3122 282.6C40.0922 282.6 38.4522 280.25 38.4722 276.8C38.4922 273.35 40.0922 271 43.3122 271C45.7422 271 47.2522 272.33 47.8422 274.47L49.6522 273.99C48.8322 271.13 46.6422 269.3 43.3122 269.3C39.0022 269.3 36.5922 272.36 36.5922 276.8C36.5922 281.24 39.0022 284.3 43.3122 284.3ZM51.8453 284H53.6253V278.68H57.8353L60.4153 284H62.4553L59.6753 278.29C61.3053 277.61 62.1553 276.04 62.1553 274.14C62.1553 271.85 60.9253 270.04 58.5953 269.68C58.2253 269.62 57.8153 269.6 57.5353 269.6H51.8453V284ZM53.6253 276.99V271.29H57.4753C57.7253 271.29 58.0753 271.31 58.3753 271.38C59.7553 271.69 60.3353 272.94 60.3353 274.14C60.3353 275.34 59.7553 276.59 58.3753 276.9C58.0753 276.97 57.7253 276.99 57.4753 276.99H53.6253ZM72.9317 284.3C74.5717 284.3 75.8817 283.54 76.5817 282.24V284H78.1717V273.2H76.5817V274.93C75.8917 273.65 74.6317 272.9 72.9817 272.9C69.8817 272.9 68.0617 275.35 68.0617 278.6C68.0617 281.83 69.8717 284.3 72.9317 284.3ZM69.9517 278.6C69.9517 276.19 71.0617 274.53 73.1717 274.53C75.2817 274.53 76.2817 276.2 76.2817 278.59C76.2817 280.96 75.2917 282.67 73.1517 282.67C70.9817 282.67 69.9517 280.88 69.9517 278.6Z" fill="#110529"/>
<g filter="url(#filter3_i_5544_36135)">
<path d="M104 251.6C104 251.04 104 250.76 104.109 250.546C104.205 250.358 104.358 250.205 104.546 250.109C104.76 250 105.04 250 105.6 250H586.4C586.96 250 587.24 250 587.454 250.109C587.642 250.205 587.795 250.358 587.891 250.546C588 250.76 588 251.04 588 251.6V300.4C588 300.96 588 301.24 587.891 301.454C587.795 301.642 587.642 301.795 587.454 301.891C587.24 302 586.96 302 586.4 302H105.6C105.04 302 104.76 302 104.546 301.891C104.358 301.795 104.205 301.642 104.109 301.454C104 301.24 104 300.96 104 300.4V295.5V289V282V276V269.5V263V256.5V251.6Z" fill="#99E099"/>
</g>
<path d="M104 251.6C104 251.04 104 250.76 104.109 250.546C104.205 250.358 104.358 250.205 104.546 250.109C104.76 250 105.04 250 105.6 250H586.4C586.96 250 587.24 250 587.454 250.109C587.642 250.205 587.795 250.358 587.891 250.546C588 250.76 588 251.04 588 251.6V300.4C588 300.96 588 301.24 587.891 301.454C587.795 301.642 587.642 301.795 587.454 301.891C587.24 302 586.96 302 586.4 302H105.6C105.04 302 104.76 302 104.546 301.891C104.358 301.795 104.205 301.642 104.109 301.454C104 301.24 104 300.96 104 300.4V295.5V289V282V276V269.5V263V256.5V251.6Z" stroke="#110529" stroke-width="2" stroke-linecap="round"/>
<path d="M345.209 284H347.792L352.813 269H350.896L346.48 282.021L342.126 269H340.188L345.209 284Z" fill="#110529"/>
<g filter="url(#filter4_i_5544_36135)">
<rect x="588" y="250" width="30" height="52" rx="1" fill="#CBEB67"/>
</g>
<rect x="588" y="250" width="30" height="52" rx="1" stroke="#110529" stroke-width="2" stroke-linecap="round"/>
<path d="M596.509 284H598.309V272.74L605.819 284H607.619V269.6H605.819V280.85L598.309 269.6H596.509V284Z" fill="#110529"/>
<g filter="url(#filter5_i_5544_36135)">
<path d="M762 251.6C762 251.04 762 250.76 761.891 250.546C761.795 250.358 761.642 250.205 761.454 250.109C761.24 250 760.96 250 760.4 250H619.6C619.04 250 618.76 250 618.546 250.109C618.358 250.205 618.205 250.358 618.109 250.546C618 250.76 618 251.04 618 251.6V276V300.4C618 300.96 618 301.24 618.109 301.454C618.205 301.642 618.358 301.795 618.546 301.891C618.76 302 619.04 302 619.6 302H760.4C760.96 302 761.24 302 761.454 301.891C761.642 301.795 761.795 301.642 761.891 301.454C762 301.24 762 300.96 762 300.4V295.5V289V282V276V269.5V263V256.5V251.6Z" fill="#C1ADFF"/>
</g>
<path d="M762 251.6C762 251.04 762 250.76 761.891 250.546C761.795 250.358 761.642 250.205 761.454 250.109C761.24 250 760.96 250 760.4 250H619.6C619.04 250 618.76 250 618.546 250.109C618.358 250.205 618.205 250.358 618.109 250.546C618 250.76 618 251.04 618 251.6V276V300.4C618 300.96 618 301.24 618.109 301.454C618.205 301.642 618.358 301.795 618.546 301.891C618.76 302 619.04 302 619.6 302H760.4C760.96 302 761.24 302 761.454 301.891C761.642 301.795 761.795 301.642 761.891 301.454C762 301.24 762 300.96 762 300.4V295.5V289V282V276V269.5V263V256.5V251.6Z" stroke="#110529" stroke-width="2" stroke-linecap="round"/>
<g filter="url(#filter6_i_5544_36135)">
<path d="M838 250H763.6C763.04 250 762.76 250 762.546 250.109C762.358 250.205 762.205 250.358 762.109 250.546C762 250.76 762 251.04 762 251.6V300.4C762 300.96 762 301.24 762.109 301.454C762.205 301.642 762.358 301.795 762.546 301.891C762.76 302 763.04 302 763.6 302H838L833 295.5L838 289L833 282L838 276L833 269.5L838 263L833 256.5L838 250Z" fill="#FAFAAA"/>
</g>
<path d="M838 250H763.6C763.04 250 762.76 250 762.546 250.109C762.358 250.205 762.205 250.358 762.109 250.546C762 250.76 762 251.04 762 251.6V300.4C762 300.96 762 301.24 762.109 301.454C762.205 301.642 762.358 301.795 762.546 301.891C762.76 302 763.04 302 763.6 302H838L833 295.5L838 289L833 282L838 276L833 269.5L838 263L833 256.5L838 250Z" stroke="#110529" stroke-width="2" stroke-linecap="round"/>
<path d="M802.863 279.021C802.696 279.646 802.404 280.25 802.029 280.771C801.154 281.958 799.675 282.562 798.175 282.542C796.675 282.542 795.196 281.958 794.321 280.771C793.425 279.583 793.154 278.021 793.133 276.5C793.154 274.958 793.425 273.396 794.321 272.229C795.196 271.042 796.675 270.437 798.175 270.458C799.675 270.458 801.154 271.042 802.029 272.229C802.467 272.792 802.738 273.458 802.925 274.146L804.842 273.833C804.592 272.875 804.175 271.937 803.508 271.083C802.258 269.479 800.279 268.687 798.175 268.687C796.05 268.687 794.092 269.458 792.842 271.083C791.613 272.625 791.175 274.521 791.154 276.5C791.133 278.417 791.613 280.354 792.842 281.896C794.092 283.479 796.029 284.312 798.175 284.312C800.258 284.312 802.217 283.542 803.508 281.896C804.071 281.188 804.467 280.375 804.717 279.562L802.863 279.021Z" fill="#110529"/>
<path d="M693.272 269V279.292C693.272 280.604 693.272 281.312 692.71 282.312C691.939 283.604 690.751 284.312 689.126 284.312C688.356 284.312 687.606 284.146 686.96 283.729C686.001 283.187 685.314 282.208 685.022 281.146L686.876 280.708C686.981 281.292 687.356 281.812 687.856 282.146C688.21 282.396 688.668 282.542 689.106 282.542C689.897 282.542 690.731 282.125 691.085 281.354C691.356 280.792 691.356 280.375 691.356 279.292V269H693.272Z" fill="#110529"/>
<path d="M30.11 114H31.89V101.29H36.8V99.6H25.2V101.29H30.11V114ZM44.3122 114.3C47.6422 114.3 49.8322 112.47 50.6522 109.61L48.8422 109.13C48.2522 111.27 46.7422 112.6 44.3122 112.6C41.0922 112.6 39.4522 110.25 39.4722 106.8C39.4922 103.35 41.0922 101 44.3122 101C46.7422 101 48.2522 102.33 48.8422 104.47L50.6522 103.99C49.8322 101.13 47.6422 99.3 44.3122 99.3C40.0022 99.3 37.5922 102.36 37.5922 106.8C37.5922 111.24 40.0022 114.3 44.3122 114.3ZM52.8453 114H54.6253V108.68H58.8353L61.4153 114H63.4553L60.6753 108.29C62.3053 107.61 63.1553 106.04 63.1553 104.14C63.1553 101.85 61.9253 100.04 59.5953 99.68C59.2253 99.62 58.8153 99.6 58.5353 99.6H52.8453V114ZM54.6253 106.99V101.29H58.4753C58.7253 101.29 59.0753 101.31 59.3753 101.38C60.7553 101.69 61.3353 102.94 61.3353 104.14C61.3353 105.34 60.7553 106.59 59.3753 106.9C59.0753 106.97 58.7253 106.99 58.4753 106.99H54.6253ZM69.6517 103.2V118.8H71.4317V113.39C72.1417 113.96 73.1317 114.3 74.3617 114.3C77.4117 114.3 79.2617 112.57 79.2617 109.95C79.2617 107.74 77.8617 106.44 76.4717 106.09C77.5217 105.58 78.0317 104.5 78.0317 103.22C78.0317 100.84 76.2817 99.3 73.7917 99.3C71.9317 99.3 70.4017 100.16 69.8717 101.78C69.7217 102.23 69.6517 102.71 69.6517 103.2ZM71.4717 109.71V103.86C71.4717 103.44 71.4917 102.8 71.7017 102.28C72.0617 101.35 72.9417 100.99 73.8317 100.99C75.2117 100.99 76.2117 101.82 76.2117 103.24C76.2117 104.67 75.2117 105.4 73.8417 105.54V107.14C76.0317 107.18 77.4517 108.1 77.4517 109.87C77.4517 111.52 76.2117 112.61 74.4417 112.61C73.1917 112.61 71.9517 112.04 71.6217 111.01C71.5017 110.64 71.4717 110.1 71.4717 109.71Z" fill="#110529"/>
<path d="M52.8333 180L49.8958 173.979C50.5417 173.687 51.1042 173.25 51.5208 172.708C52.2083 171.875 52.625 170.812 52.625 169.729C52.6042 168.604 52.1667 167.458 51.4167 166.625C50.8958 166 50.1875 165.521 49.4167 165.271C48.9167 165.083 48.3958 165 47.8542 165H41.4583V180H43.3125V174.437H47.8542H48.0208L50.7083 180H52.8333ZM43.3125 166.771H47.8542C48.5833 166.771 49.375 167.146 49.8958 167.687C50.4167 168.229 50.6875 168.958 50.7083 169.729C50.7292 170.396 50.4792 171.062 50.0625 171.583C49.5 172.271 48.6458 172.687 47.8542 172.687H43.3125V166.771ZM58.1654 165L55.332 166.687V168.75L58.1654 167.042V180H60.0404V165H58.1654Z" fill="#110529"/>
<path d="M71 164V180H81V188L95 172L81 156V164H71Z" fill="#110529"/>
<path d="M52.8333 350L49.8958 343.979C50.5417 343.687 51.1042 343.25 51.5208 342.708C52.2083 341.875 52.625 340.812 52.625 339.729C52.6042 338.604 52.1667 337.458 51.4167 336.625C50.8958 336 50.1875 335.521 49.4167 335.271C48.9167 335.083 48.3958 335 47.8542 335H41.4583V350H43.3125V344.437H47.8542H48.0208L50.7083 350H52.8333ZM43.3125 336.771H47.8542C48.5833 336.771 49.375 337.146 49.8958 337.687C50.4167 338.229 50.6875 338.958 50.7083 339.729C50.7292 340.396 50.4792 341.062 50.0625 341.583C49.5 342.271 48.6458 342.687 47.8542 342.687H43.3125V336.771ZM58.1654 335L55.332 336.687V338.75L58.1654 337.042V350H60.0404V335H58.1654Z" fill="#110529"/>
<path d="M71 334V350H81V358L95 342L81 326V334H71Z" fill="#110529"/>
<path d="M808 354V370H798V378L784 362L798 346V354H808Z" fill="#110529"/>
<path d="M817.4 370H819.18V364.68H823.39L825.97 370H828.01L825.23 364.29C826.86 363.61 827.71 362.04 827.71 360.14C827.71 357.85 826.48 356.04 824.15 355.68C823.78 355.62 823.37 355.6 823.09 355.6H817.4V370ZM819.18 362.99V357.29H823.03C823.28 357.29 823.63 357.31 823.93 357.38C825.31 357.69 825.89 358.94 825.89 360.14C825.89 361.34 825.31 362.59 823.93 362.9C823.63 362.97 823.28 362.99 823.03 362.99H819.18ZM829.813 369.99H839.383V368.29H832.553L837.193 364.12C838.673 362.81 839.383 361.86 839.383 359.97C839.383 357.32 837.363 355.3 834.692 355.3C831.923 355.3 829.883 357.23 829.883 359.94H831.703C831.683 358.37 832.943 357 834.663 357C836.323 357 837.563 358.29 837.563 359.95C837.563 360.86 837.273 361.69 836.213 362.64L829.823 368.39L829.813 369.99Z" fill="#110529"/>
<path d="M532 172H98" stroke="#110529" stroke-width="2" stroke-linecap="square"/>
<path d="M542 172L542.707 171.293L543.414 172L542.707 172.707L542 172ZM534.707 180.707L534 181.414L532.586 180L533.293 179.293L534.707 180.707ZM533.293 164.707L532.586 164L534 162.586L534.707 163.293L533.293 164.707ZM532 171L542 171L542 173L532 173L532 171ZM542.707 172.707L534.707 180.707L533.293 179.293L541.293 171.293L542.707 172.707ZM541.293 172.707L533.293 164.707L534.707 163.293L542.707 171.293L541.293 172.707Z" fill="#110529"/>
<rect width="57" height="20" transform="translate(291 162)" fill="white"/>
<path d="M299.28 178.224C301.416 178.224 303.04 176.664 303.04 174.456C303.04 172.44 301.76 170.944 299.776 170.832L302.888 167.848V166.48H296.096V167.84H301.12L297.376 171.224L298.064 172.352C298.424 172.168 298.864 172.048 299.256 172.048C300.64 172.048 301.576 173.032 301.576 174.456C301.576 175.864 300.672 176.84 299.272 176.864C298.248 176.88 297.352 176.312 297.008 175.24L295.64 175.632C296.128 177.232 297.568 178.224 299.28 178.224ZM309.008 178.24C311.248 178.24 312.896 176.592 312.896 174.352V170.128C312.896 167.888 311.248 166.24 309.008 166.24C306.768 166.24 305.12 167.888 305.12 170.128V174.352C305.12 176.592 306.768 178.24 309.008 178.24ZM306.568 174.432V170.04C306.568 168.688 307.656 167.6 309.008 167.6C310.36 167.6 311.448 168.688 311.448 170.04V174.432C311.448 175.784 310.36 176.872 309.008 176.872C307.656 176.872 306.568 175.784 306.568 174.432ZM319.024 178.24C321.264 178.24 322.912 176.592 322.912 174.352V170.128C322.912 167.888 321.264 166.24 319.024 166.24C316.784 166.24 315.136 167.888 315.136 170.128V174.352C315.136 176.592 316.784 178.24 319.024 178.24ZM316.584 174.432V170.04C316.584 168.688 317.672 167.6 319.024 167.6C320.376 167.6 321.464 168.688 321.464 170.04V174.432C321.464 175.784 320.376 176.872 319.024 176.872C317.672 176.872 316.584 175.784 316.584 174.432ZM329.119 178.24C331.535 178.24 332.991 176.264 332.991 173.672C332.991 171.08 331.527 169.12 329.127 169.12C328.047 169.12 327.191 169.496 326.575 170.144V166.48H325.143V178H326.415V177.024C327.047 177.784 327.951 178.24 329.119 178.24ZM326.415 173.672C326.415 171.76 327.215 170.424 328.903 170.424C330.663 170.424 331.479 171.848 331.479 173.672C331.479 175.512 330.647 176.936 328.943 176.936C327.199 176.936 326.415 175.568 326.415 173.672ZM338.713 178.24C341.129 178.24 342.585 176.264 342.585 173.672C342.585 171.08 341.121 169.12 338.721 169.12C337.545 169.12 336.641 169.568 336.009 170.328V169.36H334.737V181.84H336.169V177.2C336.785 177.856 337.641 178.24 338.713 178.24ZM336.009 173.672C336.009 171.76 336.809 170.424 338.497 170.424C340.257 170.424 341.073 171.848 341.073 173.672C341.073 175.512 340.241 176.936 338.537 176.936C336.793 176.936 336.009 175.568 336.009 173.672Z" fill="#110529"/>
<path d="M476 192H848" stroke="#110529" stroke-width="2" stroke-linecap="square"/>
<path d="M461 192L460.293 191.293L459.586 192L460.293 192.707L461 192ZM468.293 200.707L469 201.414L470.414 200L469.707 199.293L468.293 200.707ZM469.707 184.707L470.414 184L469 182.586L468.293 183.293L469.707 184.707ZM481 191L461 191L461 193L481 193L481 191ZM460.293 192.707L468.293 200.707L469.707 199.293L461.707 191.293L460.293 192.707ZM461.707 192.707L469.707 184.707L468.293 183.293L460.293 191.293L461.707 192.707Z" fill="#110529"/>
<rect width="57" height="20" transform="translate(625 182)" fill="white"/>
<path d="M633.28 198.224C635.416 198.224 637.04 196.664 637.04 194.456C637.04 192.44 635.76 190.944 633.776 190.832L636.888 187.848V186.48H630.096V187.84H635.12L631.376 191.224L632.064 192.352C632.424 192.168 632.864 192.048 633.256 192.048C634.64 192.048 635.576 193.032 635.576 194.456C635.576 195.864 634.672 196.84 633.272 196.864C632.248 196.88 631.352 196.312 631.008 195.24L629.64 195.632C630.128 197.232 631.568 198.224 633.28 198.224ZM643.008 198.24C645.248 198.24 646.896 196.592 646.896 194.352V190.128C646.896 187.888 645.248 186.24 643.008 186.24C640.768 186.24 639.12 187.888 639.12 190.128V194.352C639.12 196.592 640.768 198.24 643.008 198.24ZM640.568 194.432V190.04C640.568 188.688 641.656 187.6 643.008 187.6C644.36 187.6 645.448 188.688 645.448 190.04V194.432C645.448 195.784 644.36 196.872 643.008 196.872C641.656 196.872 640.568 195.784 640.568 194.432ZM653.024 198.24C655.264 198.24 656.912 196.592 656.912 194.352V190.128C656.912 187.888 655.264 186.24 653.024 186.24C650.784 186.24 649.136 187.888 649.136 190.128V194.352C649.136 196.592 650.784 198.24 653.024 198.24ZM650.584 194.432V190.04C650.584 188.688 651.672 187.6 653.024 187.6C654.376 187.6 655.464 188.688 655.464 190.04V194.432C655.464 195.784 654.376 196.872 653.024 196.872C651.672 196.872 650.584 195.784 650.584 194.432ZM663.119 198.24C665.535 198.24 666.991 196.264 666.991 193.672C666.991 191.08 665.527 189.12 663.127 189.12C662.047 189.12 661.191 189.496 660.575 190.144V186.48H659.143V198H660.415V197.024C661.047 197.784 661.951 198.24 663.119 198.24ZM660.415 193.672C660.415 191.76 661.215 190.424 662.903 190.424C664.663 190.424 665.479 191.848 665.479 193.672C665.479 195.512 664.647 196.936 662.943 196.936C661.199 196.936 660.415 195.568 660.415 193.672ZM672.713 198.24C675.129 198.24 676.585 196.264 676.585 193.672C676.585 191.08 675.121 189.12 672.721 189.12C671.545 189.12 670.641 189.568 670.009 190.328V189.36H668.737V201.84H670.169V197.2C670.785 197.856 671.641 198.24 672.713 198.24ZM670.009 193.672C670.009 191.76 670.809 190.424 672.497 190.424C674.257 190.424 675.073 191.848 675.073 193.672C675.073 195.512 674.241 196.936 672.537 196.936C670.793 196.936 670.009 195.568 670.009 193.672Z" fill="#110529"/>
<path d="M532 342H98" stroke="#110529" stroke-width="2" stroke-linecap="square"/>
<path d="M542 342L542.707 341.293L543.414 342L542.707 342.707L542 342ZM534.707 350.707L534 351.414L532.586 350L533.293 349.293L534.707 350.707ZM533.293 334.707L532.586 334L534 332.586L534.707 333.293L533.293 334.707ZM532 341L542 341L542 343L532 343L532 341ZM542.707 342.707L534.707 350.707L533.293 349.293L541.293 341.293L542.707 342.707ZM541.293 342.707L533.293 334.707L534.707 333.293L542.707 341.293L541.293 342.707Z" fill="#110529"/>
<rect width="57" height="20" transform="translate(291 332)" fill="white"/>
<path d="M299.28 348.224C301.416 348.224 303.04 346.664 303.04 344.456C303.04 342.44 301.76 340.944 299.776 340.832L302.888 337.848V336.48H296.096V337.84H301.12L297.376 341.224L298.064 342.352C298.424 342.168 298.864 342.048 299.256 342.048C300.64 342.048 301.576 343.032 301.576 344.456C301.576 345.864 300.672 346.84 299.272 346.864C298.248 346.88 297.352 346.312 297.008 345.24L295.64 345.632C296.128 347.232 297.568 348.224 299.28 348.224ZM309.008 348.24C311.248 348.24 312.896 346.592 312.896 344.352V340.128C312.896 337.888 311.248 336.24 309.008 336.24C306.768 336.24 305.12 337.888 305.12 340.128V344.352C305.12 346.592 306.768 348.24 309.008 348.24ZM306.568 344.432V340.04C306.568 338.688 307.656 337.6 309.008 337.6C310.36 337.6 311.448 338.688 311.448 340.04V344.432C311.448 345.784 310.36 346.872 309.008 346.872C307.656 346.872 306.568 345.784 306.568 344.432ZM319.024 348.24C321.264 348.24 322.912 346.592 322.912 344.352V340.128C322.912 337.888 321.264 336.24 319.024 336.24C316.784 336.24 315.136 337.888 315.136 340.128V344.352C315.136 346.592 316.784 348.24 319.024 348.24ZM316.584 344.432V340.04C316.584 338.688 317.672 337.6 319.024 337.6C320.376 337.6 321.464 338.688 321.464 340.04V344.432C321.464 345.784 320.376 346.872 319.024 346.872C317.672 346.872 316.584 345.784 316.584 344.432ZM329.119 348.24C331.535 348.24 332.991 346.264 332.991 343.672C332.991 341.08 331.527 339.12 329.127 339.12C328.047 339.12 327.191 339.496 326.575 340.144V336.48H325.143V348H326.415V347.024C327.047 347.784 327.951 348.24 329.119 348.24ZM326.415 343.672C326.415 341.76 327.215 340.424 328.903 340.424C330.663 340.424 331.479 341.848 331.479 343.672C331.479 345.512 330.647 346.936 328.943 346.936C327.199 346.936 326.415 345.568 326.415 343.672ZM338.713 348.24C341.129 348.24 342.585 346.264 342.585 343.672C342.585 341.08 341.121 339.12 338.721 339.12C337.545 339.12 336.641 339.568 336.009 340.328V339.36H334.737V351.84H336.169V347.2C336.785 347.856 337.641 348.24 338.713 348.24ZM336.009 343.672C336.009 341.76 336.809 340.424 338.497 340.424C340.257 340.424 341.073 341.848 341.073 343.672C341.073 345.512 340.241 346.936 338.537 346.936C336.793 346.936 336.009 345.568 336.009 343.672Z" fill="#110529"/>
<path d="M409 362H781" stroke="#110529" stroke-width="2" stroke-linecap="square"/>
<path d="M394 362L393.293 361.293L392.586 362L393.293 362.707L394 362ZM401.293 370.707L402 371.414L403.414 370L402.707 369.293L401.293 370.707ZM402.707 354.707L403.414 354L402 352.586L401.293 353.293L402.707 354.707ZM414 361L394 361L394 363L414 363L414 361ZM393.293 362.707L401.293 370.707L402.707 369.293L394.707 361.293L393.293 362.707ZM394.707 362.707L402.707 354.707L401.293 353.293L393.293 361.293L394.707 362.707Z" fill="#110529"/>
<rect width="57" height="20" transform="translate(558 352)" fill="white"/>
<path d="M566.28 368.224C568.416 368.224 570.04 366.664 570.04 364.456C570.04 362.44 568.76 360.944 566.776 360.832L569.888 357.848V356.48H563.096V357.84H568.12L564.376 361.224L565.064 362.352C565.424 362.168 565.864 362.048 566.256 362.048C567.64 362.048 568.576 363.032 568.576 364.456C568.576 365.864 567.672 366.84 566.272 366.864C565.248 366.88 564.352 366.312 564.008 365.24L562.64 365.632C563.128 367.232 564.568 368.224 566.28 368.224ZM576.008 368.24C578.248 368.24 579.896 366.592 579.896 364.352V360.128C579.896 357.888 578.248 356.24 576.008 356.24C573.768 356.24 572.12 357.888 572.12 360.128V364.352C572.12 366.592 573.768 368.24 576.008 368.24ZM573.568 364.432V360.04C573.568 358.688 574.656 357.6 576.008 357.6C577.36 357.6 578.448 358.688 578.448 360.04V364.432C578.448 365.784 577.36 366.872 576.008 366.872C574.656 366.872 573.568 365.784 573.568 364.432ZM586.024 368.24C588.264 368.24 589.912 366.592 589.912 364.352V360.128C589.912 357.888 588.264 356.24 586.024 356.24C583.784 356.24 582.136 357.888 582.136 360.128V364.352C582.136 366.592 583.784 368.24 586.024 368.24ZM583.584 364.432V360.04C583.584 358.688 584.672 357.6 586.024 357.6C587.376 357.6 588.464 358.688 588.464 360.04V364.432C588.464 365.784 587.376 366.872 586.024 366.872C584.672 366.872 583.584 365.784 583.584 364.432ZM596.119 368.24C598.535 368.24 599.991 366.264 599.991 363.672C599.991 361.08 598.527 359.12 596.127 359.12C595.047 359.12 594.191 359.496 593.575 360.144V356.48H592.143V368H593.415V367.024C594.047 367.784 594.951 368.24 596.119 368.24ZM593.415 363.672C593.415 361.76 594.215 360.424 595.903 360.424C597.663 360.424 598.479 361.848 598.479 363.672C598.479 365.512 597.647 366.936 595.943 366.936C594.199 366.936 593.415 365.568 593.415 363.672ZM605.713 368.24C608.129 368.24 609.585 366.264 609.585 363.672C609.585 361.08 608.121 359.12 605.721 359.12C604.545 359.12 603.641 359.568 603.009 360.328V359.36H601.737V371.84H603.169V367.2C603.785 367.856 604.641 368.24 605.713 368.24ZM603.009 363.672C603.009 361.76 603.809 360.424 605.497 360.424C607.257 360.424 608.073 361.848 608.073 363.672C608.073 365.512 607.241 366.936 605.537 366.936C603.793 366.936 603.009 365.568 603.009 363.672Z" fill="#110529"/>
<path d="M875 184V200H865V208L851 192L865 176V184H875Z" fill="#110529"/>
<path d="M884.4 200H886.18V194.68H890.39L892.97 200H895.01L892.23 194.29C893.86 193.61 894.71 192.04 894.71 190.14C894.71 187.85 893.48 186.04 891.15 185.68C890.78 185.62 890.37 185.6 890.09 185.6H884.4V200ZM886.18 192.99V187.29H890.03C890.28 187.29 890.63 187.31 890.93 187.38C892.31 187.69 892.89 188.94 892.89 190.14C892.89 191.34 892.31 192.59 890.93 192.9C890.63 192.97 890.28 192.99 890.03 192.99H886.18ZM896.813 199.99H906.383V198.29H899.553L904.193 194.12C905.673 192.81 906.383 191.86 906.383 189.97C906.383 187.32 904.363 185.3 901.692 185.3C898.923 185.3 896.883 187.23 896.883 189.94H898.703C898.683 188.37 899.943 187 901.663 187C903.323 187 904.563 188.29 904.563 189.95C904.563 190.86 904.273 191.69 903.213 192.64L896.823 198.39L896.813 199.99Z" fill="#110529"/>
<g filter="url(#filter7_i_5544_36135)">
<rect x="588" y="80" width="30" height="52" rx="1" fill="#CBEB67"/>
</g>
<rect x="588" y="80" width="30" height="52" rx="1" stroke="#110529" stroke-width="2" stroke-linecap="round"/>
<g filter="url(#filter8_i_5544_36135)">
<rect x="654" y="80" width="30" height="52" rx="1" fill="#FAAAFA"/>
</g>
<rect x="654" y="80" width="30" height="52" rx="1" stroke="#110529" stroke-width="2" stroke-linecap="round"/>
<g filter="url(#filter9_i_5544_36135)">
<rect x="618" y="80" width="36" height="52" rx="1" fill="#FFCB8F"/>
</g>
<rect x="618" y="80" width="36" height="52" rx="1" stroke="#110529" stroke-width="2" stroke-linecap="round"/>
<path d="M597.447 114H599.247V102.74L606.757 114H608.557V99.6H606.757V110.85L599.247 99.6H597.447V114Z" fill="#110529"/>
<path d="M663.447 114H665.247V102.74L672.757 114H674.557V99.6H672.757V110.85L665.247 99.6H663.447V114Z" fill="#110529"/>
<path d="M630.593 114H635.033C635.303 114 636.183 114 636.853 113.91C640.183 113.47 641.913 110.48 641.913 106.8C641.913 103.13 640.183 100.13 636.853 99.69C636.173 99.6 635.313 99.6 635.033 99.6H630.593V114ZM632.423 112.3V101.3H635.033C635.513 101.3 636.233 101.32 636.703 101.41C639.033 101.83 640.023 104.08 640.023 106.8C640.023 109.47 639.063 111.76 636.703 112.19C636.233 112.28 635.533 112.3 635.033 112.3H632.423Z" fill="#110529"/>
<defs>
<filter id="filter0_i_5544_36135" x="103" y="79" width="486" height="54" filterUnits="userSpaceOnUse" color-interpolation-filters="sRGB">
<feFlood flood-opacity="0" result="BackgroundImageFix"/>
<feBlend mode="normal" in="SourceGraphic" in2="BackgroundImageFix" result="shape"/>
<feColorMatrix in="SourceAlpha" type="matrix" values="0 0 0 0 0 0 0 0 0 0 0 0 0 0 0 0 0 0 127 0" result="hardAlpha"/>
<feOffset dx="-8" dy="-4"/>
<feComposite in2="hardAlpha" operator="arithmetic" k2="-1" k3="1"/>
<feColorMatrix type="matrix" values="0 0 0 0 0.0666667 0 0 0 0 0.0196078 0 0 0 0 0.160784 0 0 0 0.16 0"/>
<feBlend mode="normal" in2="shape" result="effect1_innerShadow_5544_36135"/>
</filter>
<filter id="filter1_i_5544_36135" x="683" y="79" width="146" height="54" filterUnits="userSpaceOnUse" color-interpolation-filters="sRGB">
<feFlood flood-opacity="0" result="BackgroundImageFix"/>
<feBlend mode="normal" in="SourceGraphic" in2="BackgroundImageFix" result="shape"/>
<feColorMatrix in="SourceAlpha" type="matrix" values="0 0 0 0 0 0 0 0 0 0 0 0 0 0 0 0 0 0 127 0" result="hardAlpha"/>
<feOffset dx="-8" dy="-4"/>
<feComposite in2="hardAlpha" operator="arithmetic" k2="-1" k3="1"/>
<feColorMatrix type="matrix" values="0 0 0 0 0.0666667 0 0 0 0 0.0196078 0 0 0 0 0.160784 0 0 0 0.16 0"/>
<feBlend mode="normal" in2="shape" result="effect1_innerShadow_5544_36135"/>
</filter>
<filter id="filter2_i_5544_36135" x="827" y="79" width="79.0309" height="54" filterUnits="userSpaceOnUse" color-interpolation-filters="sRGB">
<feFlood flood-opacity="0" result="BackgroundImageFix"/>
<feBlend mode="normal" in="SourceGraphic" in2="BackgroundImageFix" result="shape"/>
<feColorMatrix in="SourceAlpha" type="matrix" values="0 0 0 0 0 0 0 0 0 0 0 0 0 0 0 0 0 0 127 0" result="hardAlpha"/>
<feOffset dx="-8" dy="-4"/>
<feComposite in2="hardAlpha" operator="arithmetic" k2="-1" k3="1"/>
<feColorMatrix type="matrix" values="0 0 0 0 0.0666667 0 0 0 0 0.0196078 0 0 0 0 0.160784 0 0 0 0.16 0"/>
<feBlend mode="normal" in2="shape" result="effect1_innerShadow_5544_36135"/>
</filter>
<filter id="filter3_i_5544_36135" x="103" y="249" width="486" height="54" filterUnits="userSpaceOnUse" color-interpolation-filters="sRGB">
<feFlood flood-opacity="0" result="BackgroundImageFix"/>
<feBlend mode="normal" in="SourceGraphic" in2="BackgroundImageFix" result="shape"/>
<feColorMatrix in="SourceAlpha" type="matrix" values="0 0 0 0 0 0 0 0 0 0 0 0 0 0 0 0 0 0 127 0" result="hardAlpha"/>
<feOffset dx="-8" dy="-4"/>
<feComposite in2="hardAlpha" operator="arithmetic" k2="-1" k3="1"/>
<feColorMatrix type="matrix" values="0 0 0 0 0.0666667 0 0 0 0 0.0196078 0 0 0 0 0.160784 0 0 0 0.16 0"/>
<feBlend mode="normal" in2="shape" result="effect1_innerShadow_5544_36135"/>
</filter>
<filter id="filter4_i_5544_36135" x="587" y="249" width="32" height="54" filterUnits="userSpaceOnUse" color-interpolation-filters="sRGB">
<feFlood flood-opacity="0" result="BackgroundImageFix"/>
<feBlend mode="normal" in="SourceGraphic" in2="BackgroundImageFix" result="shape"/>
<feColorMatrix in="SourceAlpha" type="matrix" values="0 0 0 0 0 0 0 0 0 0 0 0 0 0 0 0 0 0 127 0" result="hardAlpha"/>
<feOffset dx="-8" dy="-4"/>
<feComposite in2="hardAlpha" operator="arithmetic" k2="-1" k3="1"/>
<feColorMatrix type="matrix" values="0 0 0 0 0.0666667 0 0 0 0 0.0196078 0 0 0 0 0.160784 0 0 0 0.16 0"/>
<feBlend mode="normal" in2="shape" result="effect1_innerShadow_5544_36135"/>
</filter>
<filter id="filter5_i_5544_36135" x="617" y="249" width="146" height="54" filterUnits="userSpaceOnUse" color-interpolation-filters="sRGB">
<feFlood flood-opacity="0" result="BackgroundImageFix"/>
<feBlend mode="normal" in="SourceGraphic" in2="BackgroundImageFix" result="shape"/>
<feColorMatrix in="SourceAlpha" type="matrix" values="0 0 0 0 0 0 0 0 0 0 0 0 0 0 0 0 0 0 127 0" result="hardAlpha"/>
<feOffset dx="-8" dy="-4"/>
<feComposite in2="hardAlpha" operator="arithmetic" k2="-1" k3="1"/>
<feColorMatrix type="matrix" values="0 0 0 0 0.0666667 0 0 0 0 0.0196078 0 0 0 0 0.160784 0 0 0 0.16 0"/>
<feBlend mode="normal" in2="shape" result="effect1_innerShadow_5544_36135"/>
</filter>
<filter id="filter6_i_5544_36135" x="761" y="249" width="79.0309" height="54" filterUnits="userSpaceOnUse" color-interpolation-filters="sRGB">
<feFlood flood-opacity="0" result="BackgroundImageFix"/>
<feBlend mode="normal" in="SourceGraphic" in2="BackgroundImageFix" result="shape"/>
<feColorMatrix in="SourceAlpha" type="matrix" values="0 0 0 0 0 0 0 0 0 0 0 0 0 0 0 0 0 0 127 0" result="hardAlpha"/>
<feOffset dx="-8" dy="-4"/>
<feComposite in2="hardAlpha" operator="arithmetic" k2="-1" k3="1"/>
<feColorMatrix type="matrix" values="0 0 0 0 0.0666667 0 0 0 0 0.0196078 0 0 0 0 0.160784 0 0 0 0.16 0"/>
<feBlend mode="normal" in2="shape" result="effect1_innerShadow_5544_36135"/>
</filter>
<filter id="filter7_i_5544_36135" x="587" y="79" width="32" height="54" filterUnits="userSpaceOnUse" color-interpolation-filters="sRGB">
<feFlood flood-opacity="0" result="BackgroundImageFix"/>
<feBlend mode="normal" in="SourceGraphic" in2="BackgroundImageFix" result="shape"/>
<feColorMatrix in="SourceAlpha" type="matrix" values="0 0 0 0 0 0 0 0 0 0 0 0 0 0 0 0 0 0 127 0" result="hardAlpha"/>
<feOffset dx="-8" dy="-4"/>
<feComposite in2="hardAlpha" operator="arithmetic" k2="-1" k3="1"/>
<feColorMatrix type="matrix" values="0 0 0 0 0.0666667 0 0 0 0 0.0196078 0 0 0 0 0.160784 0 0 0 0.16 0"/>
<feBlend mode="normal" in2="shape" result="effect1_innerShadow_5544_36135"/>
</filter>
<filter id="filter8_i_5544_36135" x="653" y="79" width="32" height="54" filterUnits="userSpaceOnUse" color-interpolation-filters="sRGB">
<feFlood flood-opacity="0" result="BackgroundImageFix"/>
<feBlend mode="normal" in="SourceGraphic" in2="BackgroundImageFix" result="shape"/>
<feColorMatrix in="SourceAlpha" type="matrix" values="0 0 0 0 0 0 0 0 0 0 0 0 0 0 0 0 0 0 127 0" result="hardAlpha"/>
<feOffset dx="-8" dy="-4"/>
<feComposite in2="hardAlpha" operator="arithmetic" k2="-1" k3="1"/>
<feColorMatrix type="matrix" values="0 0 0 0 0.0666667 0 0 0 0 0.0196078 0 0 0 0 0.160784 0 0 0 0.16 0"/>
<feBlend mode="normal" in2="shape" result="effect1_innerShadow_5544_36135"/>
</filter>
<filter id="filter9_i_5544_36135" x="617" y="79" width="38" height="54" filterUnits="userSpaceOnUse" color-interpolation-filters="sRGB">
<feFlood flood-opacity="0" result="BackgroundImageFix"/>
<feBlend mode="normal" in="SourceGraphic" in2="BackgroundImageFix" result="shape"/>
<feColorMatrix in="SourceAlpha" type="matrix" values="0 0 0 0 0 0 0 0 0 0 0 0 0 0 0 0 0 0 127 0" result="hardAlpha"/>
<feOffset dx="-8" dy="-4"/>
<feComposite in2="hardAlpha" operator="arithmetic" k2="-1" k3="1"/>
<feColorMatrix type="matrix" values="0 0 0 0 0.0666667 0 0 0 0 0.0196078 0 0 0 0 0.160784 0 0 0 0.16 0"/>
<feBlend mode="normal" in2="shape" result="effect1_innerShadow_5544_36135"/>
</filter>
</defs>
</svg>
