<svg width="328" height="285" viewBox="0 0 328 285" fill="none" xmlns="http://www.w3.org/2000/svg">
<g filter="url(#filter0_d_6043_35364)">
<path d="M68.0069 8.20989L8 76.0363V85.5558H82.6261V102.215H91.9756V85.5558H103.195V76.8863H91.9756V8.20989H68.0069ZM71.9167 16.5395H82.6261V76.8863H18.8794L71.9167 16.5395Z" fill="url(#paint0_linear_6043_35364)"/>
<path d="M124.8 55.2974C124.8 29.4588 142.649 14.8395 164.068 14.8395C185.487 14.8395 203.336 29.4588 203.336 55.2974C203.336 81.1361 185.487 95.7553 164.068 95.7553C142.649 95.7553 124.8 81.1361 124.8 55.2974ZM212.855 55.2974C212.855 25.379 191.606 6 164.068 6C136.529 6 115.28 25.379 115.28 55.2974C115.28 85.2159 136.529 104.595 164.068 104.595C191.606 104.595 212.855 85.2159 212.855 55.2974Z" fill="url(#paint1_linear_6043_35364)"/>
<path d="M284.812 8.20989L224.805 76.0363V85.5558H299.431V102.215H308.781V85.5558H320V76.8863H308.781V8.20989H284.812ZM288.722 16.5395H299.431V76.8863H235.684L288.722 16.5395Z" fill="url(#paint2_linear_6043_35364)"/>
<path d="M83.1261 85.5558V85.0558H82.6261H8.5V76.2258L68.2321 8.70989H91.4756V76.8863V77.3863H91.9756H102.695V85.0558H91.9756H91.4756V85.5558V101.715H83.1261V85.5558ZM71.9167 16.0395H71.6904L71.5411 16.2094L18.5039 76.5562L17.7743 77.3863H18.8794H82.6261H83.1261V76.8863V16.5395V16.0395H82.6261H71.9167ZM299.931 85.5558V85.0558H299.431H225.305V76.2258L285.037 8.70989H308.281V76.8863V77.3863H308.781H319.5V85.0558H308.781H308.281V85.5558V101.715H299.931V85.5558ZM288.722 16.0395H288.495L288.346 16.2094L235.309 76.5562L234.579 77.3863H235.684H299.431H299.931V76.8863V16.5395V16.0395H299.431H288.722ZM164.068 14.3395C153.245 14.3395 143.298 18.0341 136.055 25.0191C128.807 32.0078 124.3 42.2573 124.3 55.2974C124.3 68.3375 128.807 78.587 136.055 85.5758C143.298 92.5608 153.245 96.2553 164.068 96.2553C174.891 96.2553 184.837 92.5608 192.081 85.5758C199.328 78.587 203.836 68.3375 203.836 55.2974C203.836 42.2573 199.328 32.0078 192.081 25.0191C184.837 18.0341 174.891 14.3395 164.068 14.3395ZM164.068 6.5C177.718 6.5 189.786 11.3015 198.438 19.7863C207.089 28.2692 212.355 40.4613 212.355 55.2974C212.355 70.1336 207.089 82.3256 198.438 90.8085C189.786 99.2933 177.718 104.095 164.068 104.095C150.417 104.095 138.35 99.2933 129.697 90.8085C121.046 82.3256 115.78 70.1336 115.78 55.2974C115.78 40.4613 121.046 28.2692 129.697 19.7863C138.35 11.3015 150.417 6.5 164.068 6.5Z" stroke="url(#paint3_linear_6043_35364)"/>
</g>
<path d="M57.6834 150.515C54.4034 148.395 51.3634 147.955 47.5234 147.955C42.1634 147.955 37.6434 149.835 37.6434 154.115C37.6434 157.755 40.3234 159.195 44.3234 159.635L51.2834 160.395C54.6434 160.755 56.5234 161.955 56.5234 164.515C56.5234 167.595 53.4834 169.155 48.5234 169.155C44.2034 169.155 41.4434 168.475 38.2834 166.395L37.1234 168.235C40.3634 170.355 43.6034 171.155 47.8834 171.155C54.5234 171.155 58.7234 169.075 58.7234 164.435C58.7234 160.915 56.1234 158.875 51.8034 158.355L44.5634 157.475C41.6834 157.155 39.8434 156.435 39.8434 154.075C39.8434 151.915 41.5234 149.955 47.5234 149.955C51.2834 149.955 53.8434 150.675 56.6034 152.195L57.6834 150.515ZM64.1681 159.555C64.2081 153.475 68.5681 150.035 74.2081 150.035C79.8481 150.035 84.2481 153.475 84.2481 159.555C84.2481 165.635 79.8481 169.075 74.2081 169.075C68.5681 169.075 64.2081 165.635 64.1681 159.555ZM86.4881 159.555C86.4881 152.515 81.2881 147.955 74.2081 147.955C67.1281 147.955 61.9281 152.515 61.9281 159.555C61.9281 166.595 67.1281 171.155 74.2081 171.155C81.2881 171.155 86.4881 166.595 86.4881 159.555ZM90.5016 148.475V170.595H92.7016V150.395H93.5016L104.062 170.595H106.622L116.782 150.395H117.582V170.595H119.822V148.475H115.382L105.502 168.435H105.262L94.9816 148.475H90.5016ZM124.603 148.475V170.595H144.483V168.555H126.843V160.235H142.123V158.195H126.843V150.515H143.843V148.475H124.603ZM147.7 148.475V150.555H157.9V170.595H160.14V150.555H170.34V148.475H147.7ZM173.939 148.475V170.595H176.179V160.115H193.699V170.595H195.939V148.475H193.699V158.035H176.179V148.475H173.939ZM200.736 148.475V170.595H202.976V148.475H200.736ZM207.767 148.475V170.595H209.967V150.995L227.407 170.595H230.247V148.475H228.047V167.995L210.567 148.475H207.767ZM249.193 158.555V160.395L255.473 160.635V165.275C253.353 167.795 250.593 169.075 246.313 169.075C240.673 169.075 236.513 165.035 236.513 159.515C236.513 153.835 240.353 150.035 246.313 150.035C250.233 150.035 253.193 151.395 255.113 153.795L256.913 152.715C254.553 149.635 251.273 147.955 246.433 147.955C239.513 147.955 234.233 152.315 234.233 159.515C234.233 166.715 239.273 171.155 246.433 171.155C250.713 171.155 253.353 169.955 255.553 167.875L256.033 170.595H257.593V158.555H249.193ZM262.618 154.795L263.818 155.115L265.858 149.955C265.938 149.715 266.018 149.435 266.018 149.115C266.018 147.835 265.018 146.875 263.738 146.875C262.458 146.875 261.498 147.835 261.498 149.115C261.498 150.235 262.218 151.115 263.258 151.315L262.618 154.795ZM289.832 150.515C286.552 148.395 283.512 147.955 279.672 147.955C274.312 147.955 269.792 149.835 269.792 154.115C269.792 157.755 272.472 159.195 276.472 159.635L283.432 160.395C286.792 160.755 288.672 161.955 288.672 164.515C288.672 167.595 285.632 169.155 280.672 169.155C276.352 169.155 273.592 168.475 270.432 166.395L269.272 168.235C272.512 170.355 275.752 171.155 280.032 171.155C286.672 171.155 290.872 169.075 290.872 164.435C290.872 160.915 288.272 158.875 283.952 158.355L276.712 157.475C273.832 157.155 271.992 156.435 271.992 154.075C271.992 151.915 273.672 149.955 279.672 149.955C283.432 149.955 285.992 150.675 288.752 152.195L289.832 150.515ZM90.443 180.475V202.595H92.643V182.395H93.443L104.003 202.595H106.563L116.723 182.395H117.523V202.595H119.763V180.475H115.323L105.443 200.435H105.203L94.923 180.475H90.443ZM124.545 180.475V202.595H126.785V180.475H124.545ZM151.336 182.515C148.056 180.395 145.016 179.955 141.176 179.955C135.816 179.955 131.296 181.835 131.296 186.115C131.296 189.755 133.976 191.195 137.976 191.635L144.936 192.395C148.296 192.755 150.176 193.955 150.176 196.515C150.176 199.595 147.136 201.155 142.176 201.155C137.856 201.155 135.096 200.475 131.936 198.395L130.776 200.235C134.016 202.355 137.256 203.155 141.536 203.155C148.176 203.155 152.376 201.075 152.376 196.435C152.376 192.915 149.776 190.875 145.456 190.355L138.216 189.475C135.336 189.155 133.496 188.435 133.496 186.075C133.496 183.915 135.176 181.955 141.176 181.955C144.936 181.955 147.496 182.675 150.256 184.195L151.336 182.515ZM175.75 182.515C172.47 180.395 169.43 179.955 165.59 179.955C160.23 179.955 155.71 181.835 155.71 186.115C155.71 189.755 158.39 191.195 162.39 191.635L169.35 192.395C172.71 192.755 174.59 193.955 174.59 196.515C174.59 199.595 171.55 201.155 166.59 201.155C162.27 201.155 159.51 200.475 156.35 198.395L155.19 200.235C158.43 202.355 161.67 203.155 165.95 203.155C172.59 203.155 176.79 201.075 176.79 196.435C176.79 192.915 174.19 190.875 169.87 190.355L162.63 189.475C159.75 189.155 157.91 188.435 157.91 186.075C157.91 183.915 159.59 181.955 165.59 181.955C169.35 181.955 171.91 182.675 174.67 184.195L175.75 182.515ZM180.795 180.475V202.595H183.035V180.475H180.795ZM187.826 180.475V202.595H190.026V182.995L207.466 202.595H210.306V180.475H208.106V199.995L190.626 180.475H187.826ZM229.251 190.555V192.395L235.531 192.635V197.275C233.411 199.795 230.651 201.075 226.371 201.075C220.731 201.075 216.571 197.035 216.571 191.515C216.571 185.835 220.411 182.035 226.371 182.035C230.291 182.035 233.251 183.395 235.171 185.795L236.971 184.715C234.611 181.635 231.331 179.955 226.491 179.955C219.571 179.955 214.291 184.315 214.291 191.515C214.291 198.715 219.331 203.155 226.491 203.155C230.771 203.155 233.411 201.955 235.611 199.875L236.091 202.595H237.651V190.555H229.251Z" fill="white"/>
<path d="M38.8322 230.859V239.595H37.6562V230.859H34.5482V229.823H41.9402V230.859H38.8322ZM43.442 229.235H44.562V233.547H44.618C44.7953 233.136 45.0426 232.81 45.36 232.567C45.6866 232.324 46.1206 232.203 46.662 232.203C47.4086 232.203 47.9966 232.446 48.426 232.931C48.8646 233.407 49.084 234.084 49.084 234.961V239.595H47.964V235.157C47.964 233.86 47.418 233.211 46.326 233.211C46.102 233.211 45.8826 233.239 45.668 233.295C45.4626 233.351 45.276 233.435 45.108 233.547C44.94 233.659 44.8046 233.804 44.702 233.981C44.6086 234.149 44.562 234.35 44.562 234.583V239.595H43.442V229.235ZM54.115 239.763C53.6203 239.763 53.1723 239.674 52.771 239.497C52.379 239.32 52.0383 239.068 51.749 238.741C51.469 238.405 51.2497 238.008 51.091 237.551C50.9417 237.084 50.867 236.562 50.867 235.983C50.867 235.414 50.9417 234.896 51.091 234.429C51.2497 233.962 51.469 233.566 51.749 233.239C52.0383 232.903 52.379 232.646 52.771 232.469C53.1723 232.292 53.6203 232.203 54.115 232.203C54.6003 232.203 55.0343 232.292 55.417 232.469C55.7997 232.646 56.1263 232.894 56.397 233.211C56.6677 233.519 56.873 233.888 57.013 234.317C57.1623 234.746 57.237 235.218 57.237 235.731V236.263H52.043V236.599C52.043 236.907 52.0897 237.196 52.183 237.467C52.2857 237.728 52.4257 237.957 52.603 238.153C52.7897 238.349 53.0137 238.503 53.275 238.615C53.5457 238.727 53.849 238.783 54.185 238.783C54.6423 238.783 55.039 238.676 55.375 238.461C55.7203 238.246 55.9863 237.938 56.173 237.537L56.971 238.111C56.7377 238.606 56.3737 239.007 55.879 239.315C55.3843 239.614 54.7963 239.763 54.115 239.763ZM54.115 233.141C53.807 233.141 53.527 233.197 53.275 233.309C53.023 233.412 52.8037 233.561 52.617 233.757C52.4397 233.953 52.2997 234.186 52.197 234.457C52.0943 234.718 52.043 235.008 52.043 235.325V235.423H56.033V235.269C56.033 234.625 55.8557 234.112 55.501 233.729C55.1557 233.337 54.6937 233.141 54.115 233.141ZM62.3912 232.371H63.5112V233.547H63.5672C63.7538 233.09 64.0245 232.754 64.3792 232.539C64.7432 232.315 65.1772 232.203 65.6812 232.203C66.1292 232.203 66.5352 232.292 66.8992 232.469C67.2632 232.646 67.5712 232.898 67.8232 233.225C68.0845 233.552 68.2805 233.948 68.4112 234.415C68.5512 234.882 68.6212 235.404 68.6212 235.983C68.6212 236.562 68.5512 237.084 68.4112 237.551C68.2805 238.018 68.0845 238.414 67.8232 238.741C67.5712 239.068 67.2632 239.32 66.8992 239.497C66.5352 239.674 66.1292 239.763 65.6812 239.763C64.7012 239.763 63.9965 239.315 63.5672 238.419H63.5112V242.395H62.3912V232.371ZM65.3732 238.755C66.0078 238.755 66.5072 238.559 66.8712 238.167C67.2352 237.766 67.4172 237.243 67.4172 236.599V235.367C67.4172 234.723 67.2352 234.205 66.8712 233.813C66.5072 233.412 66.0078 233.211 65.3732 233.211C65.1212 233.211 64.8785 233.248 64.6452 233.323C64.4212 233.388 64.2252 233.482 64.0572 233.603C63.8892 233.724 63.7538 233.874 63.6512 234.051C63.5578 234.219 63.5112 234.401 63.5112 234.597V237.285C63.5112 237.518 63.5578 237.728 63.6512 237.915C63.7538 238.092 63.8892 238.246 64.0572 238.377C64.2252 238.498 64.4212 238.592 64.6452 238.657C64.8785 238.722 65.1212 238.755 65.3732 238.755ZM75.7623 239.595C75.3423 239.595 75.0389 239.483 74.8523 239.259C74.6749 239.035 74.5629 238.755 74.5163 238.419H74.4463C74.2876 238.867 74.0263 239.203 73.6623 239.427C73.2983 239.651 72.8643 239.763 72.3603 239.763C71.5949 239.763 70.9976 239.567 70.5683 239.175C70.1483 238.783 69.9383 238.251 69.9383 237.579C69.9383 236.898 70.1856 236.375 70.6803 236.011C71.1843 235.647 71.9636 235.465 73.0183 235.465H74.4463V234.751C74.4463 234.238 74.3063 233.846 74.0263 233.575C73.7463 233.304 73.3169 233.169 72.7383 233.169C72.2996 233.169 71.9309 233.267 71.6323 233.463C71.3429 233.659 71.1003 233.92 70.9043 234.247L70.2323 233.617C70.4283 233.225 70.7409 232.894 71.1703 232.623C71.5996 232.343 72.1409 232.203 72.7943 232.203C73.6716 232.203 74.3529 232.418 74.8383 232.847C75.3236 233.276 75.5663 233.874 75.5663 234.639V238.615H76.3923V239.595H75.7623ZM72.5423 238.811C72.8223 238.811 73.0789 238.778 73.3123 238.713C73.5456 238.648 73.7463 238.554 73.9143 238.433C74.0823 238.312 74.2129 238.172 74.3063 238.013C74.3996 237.854 74.4463 237.682 74.4463 237.495V236.305H72.9623C72.3183 236.305 71.8469 236.398 71.5483 236.585C71.2589 236.772 71.1143 237.042 71.1143 237.397V237.691C71.1143 238.046 71.2403 238.321 71.4923 238.517C71.7536 238.713 72.1036 238.811 72.5423 238.811ZM84.0808 240.393C84.0808 241.14 83.7868 241.686 83.1988 242.031C82.6201 242.386 81.7474 242.563 80.5808 242.563C79.4514 242.563 78.6394 242.409 78.1448 242.101C77.6501 241.793 77.4028 241.354 77.4028 240.785C77.4028 240.393 77.5054 240.085 77.7108 239.861C77.9161 239.646 78.1961 239.488 78.5508 239.385V239.231C78.1214 239.026 77.9068 238.69 77.9068 238.223C77.9068 237.859 78.0234 237.584 78.2568 237.397C78.4901 237.201 78.7888 237.056 79.1528 236.963V236.907C78.7234 236.702 78.3874 236.408 78.1448 236.025C77.9114 235.642 77.7948 235.199 77.7948 234.695C77.7948 234.331 77.8601 233.995 77.9908 233.687C78.1214 233.379 78.3034 233.118 78.5368 232.903C78.7794 232.679 79.0641 232.506 79.3908 232.385C79.7268 232.264 80.1001 232.203 80.5108 232.203C81.0241 232.203 81.4814 232.296 81.8828 232.483V232.357C81.8828 232.077 81.9481 231.848 82.0788 231.671C82.2094 231.484 82.4241 231.391 82.7228 231.391H83.8008V232.371H82.4288V232.833C82.6901 233.057 82.8908 233.328 83.0308 233.645C83.1801 233.953 83.2548 234.303 83.2548 234.695C83.2548 235.059 83.1894 235.395 83.0588 235.703C82.9281 236.011 82.7414 236.277 82.4988 236.501C82.2654 236.716 81.9808 236.884 81.6448 237.005C81.3088 237.126 80.9354 237.187 80.5248 237.187C80.2914 237.187 80.0581 237.164 79.8248 237.117C79.5821 237.182 79.3628 237.28 79.1668 237.411C78.9708 237.532 78.8728 237.705 78.8728 237.929C78.8728 238.144 78.9754 238.288 79.1808 238.363C79.3861 238.438 79.6521 238.475 79.9788 238.475H81.5188C82.4148 238.475 83.0634 238.648 83.4648 238.993C83.8754 239.329 84.0808 239.796 84.0808 240.393ZM83.0308 240.477C83.0308 240.188 82.9188 239.954 82.6948 239.777C82.4801 239.609 82.0928 239.525 81.5328 239.525H79.1248C78.6768 239.73 78.4528 240.057 78.4528 240.505C78.4528 240.822 78.5694 241.093 78.8028 241.317C79.0454 241.541 79.4514 241.653 80.0208 241.653H81.0568C81.6821 241.653 82.1674 241.555 82.5128 241.359C82.8581 241.163 83.0308 240.869 83.0308 240.477ZM80.5248 236.291C81.0008 236.291 81.3788 236.179 81.6588 235.955C81.9388 235.722 82.0788 235.367 82.0788 234.891V234.499C82.0788 234.023 81.9388 233.673 81.6588 233.449C81.3788 233.216 81.0008 233.099 80.5248 233.099C80.0488 233.099 79.6708 233.216 79.3908 233.449C79.1108 233.673 78.9708 234.023 78.9708 234.499V234.891C78.9708 235.367 79.1108 235.722 79.3908 235.955C79.6708 236.179 80.0488 236.291 80.5248 236.291ZM88.0212 239.763C87.5266 239.763 87.0786 239.674 86.6772 239.497C86.2852 239.32 85.9446 239.068 85.6552 238.741C85.3752 238.405 85.1559 238.008 84.9972 237.551C84.8479 237.084 84.7732 236.562 84.7732 235.983C84.7732 235.414 84.8479 234.896 84.9972 234.429C85.1559 233.962 85.3752 233.566 85.6552 233.239C85.9446 232.903 86.2852 232.646 86.6772 232.469C87.0786 232.292 87.5266 232.203 88.0212 232.203C88.5066 232.203 88.9406 232.292 89.3232 232.469C89.7059 232.646 90.0326 232.894 90.3032 233.211C90.5739 233.519 90.7792 233.888 90.9192 234.317C91.0686 234.746 91.1432 235.218 91.1432 235.731V236.263H85.9492V236.599C85.9492 236.907 85.9959 237.196 86.0892 237.467C86.1919 237.728 86.3319 237.957 86.5092 238.153C86.6959 238.349 86.9199 238.503 87.1812 238.615C87.4519 238.727 87.7552 238.783 88.0912 238.783C88.5486 238.783 88.9452 238.676 89.2812 238.461C89.6266 238.246 89.8926 237.938 90.0792 237.537L90.8772 238.111C90.6439 238.606 90.2799 239.007 89.7852 239.315C89.2906 239.614 88.7026 239.763 88.0212 239.763ZM88.0212 233.141C87.7132 233.141 87.4332 233.197 87.1812 233.309C86.9292 233.412 86.7099 233.561 86.5232 233.757C86.3459 233.953 86.2059 234.186 86.1032 234.457C86.0006 234.718 85.9492 235.008 85.9492 235.325V235.423H89.9392V235.269C89.9392 234.625 89.7619 234.112 89.4072 233.729C89.0619 233.337 88.5999 233.141 88.0212 233.141ZM100.749 232.371H101.855L98.6214 241.275C98.5374 241.49 98.4534 241.667 98.3694 241.807C98.2854 241.956 98.1828 242.073 98.0614 242.157C97.9401 242.241 97.7861 242.302 97.5994 242.339C97.4221 242.376 97.2028 242.395 96.9414 242.395H96.3674V241.415H97.5014L98.0474 239.875L95.3454 232.371H96.4654L98.2014 237.285L98.5374 238.461H98.6074L98.9994 237.285L100.749 232.371ZM105.945 239.763C105.46 239.763 105.017 239.674 104.615 239.497C104.214 239.32 103.869 239.068 103.579 238.741C103.299 238.405 103.08 238.008 102.921 237.551C102.763 237.084 102.683 236.562 102.683 235.983C102.683 235.414 102.763 234.896 102.921 234.429C103.08 233.962 103.299 233.566 103.579 233.239C103.869 232.903 104.214 232.646 104.615 232.469C105.017 232.292 105.46 232.203 105.945 232.203C106.431 232.203 106.869 232.292 107.261 232.469C107.663 232.646 108.008 232.903 108.297 233.239C108.587 233.566 108.811 233.962 108.969 234.429C109.128 234.896 109.207 235.414 109.207 235.983C109.207 236.562 109.128 237.084 108.969 237.551C108.811 238.008 108.587 238.405 108.297 238.741C108.008 239.068 107.663 239.32 107.261 239.497C106.869 239.674 106.431 239.763 105.945 239.763ZM105.945 238.769C106.552 238.769 107.047 238.582 107.429 238.209C107.812 237.836 108.003 237.266 108.003 236.501V235.465C108.003 234.7 107.812 234.13 107.429 233.757C107.047 233.384 106.552 233.197 105.945 233.197C105.339 233.197 104.844 233.384 104.461 233.757C104.079 234.13 103.887 234.7 103.887 235.465V236.501C103.887 237.266 104.079 237.836 104.461 238.209C104.844 238.582 105.339 238.769 105.945 238.769ZM115.501 238.419H115.445C115.371 238.587 115.277 238.755 115.165 238.923C115.063 239.082 114.932 239.226 114.773 239.357C114.615 239.478 114.423 239.576 114.199 239.651C113.975 239.726 113.714 239.763 113.415 239.763C112.669 239.763 112.076 239.525 111.637 239.049C111.199 238.564 110.979 237.882 110.979 237.005V232.371H112.099V236.809C112.099 238.106 112.65 238.755 113.751 238.755C113.975 238.755 114.19 238.727 114.395 238.671C114.61 238.615 114.797 238.531 114.955 238.419C115.123 238.307 115.254 238.167 115.347 237.999C115.45 237.822 115.501 237.612 115.501 237.369V232.371H116.621V239.595H115.501V238.419ZM119.006 233.155V229.235H120.014V233.155H119.006ZM122.397 239.595V232.371H123.517V233.701H123.587C123.718 233.356 123.951 233.048 124.287 232.777C124.623 232.506 125.085 232.371 125.673 232.371H126.107V233.491H125.449C124.842 233.491 124.366 233.608 124.021 233.841C123.685 234.065 123.517 234.35 123.517 234.695V239.595H122.397ZM130.185 239.763C129.691 239.763 129.243 239.674 128.841 239.497C128.449 239.32 128.109 239.068 127.819 238.741C127.539 238.405 127.32 238.008 127.161 237.551C127.012 237.084 126.937 236.562 126.937 235.983C126.937 235.414 127.012 234.896 127.161 234.429C127.32 233.962 127.539 233.566 127.819 233.239C128.109 232.903 128.449 232.646 128.841 232.469C129.243 232.292 129.691 232.203 130.185 232.203C130.671 232.203 131.105 232.292 131.487 232.469C131.87 232.646 132.197 232.894 132.467 233.211C132.738 233.519 132.943 233.888 133.083 234.317C133.233 234.746 133.307 235.218 133.307 235.731V236.263H128.113V236.599C128.113 236.907 128.16 237.196 128.253 237.467C128.356 237.728 128.496 237.957 128.673 238.153C128.86 238.349 129.084 238.503 129.345 238.615C129.616 238.727 129.919 238.783 130.255 238.783C130.713 238.783 131.109 238.676 131.445 238.461C131.791 238.246 132.057 237.938 132.243 237.537L133.041 238.111C132.808 238.606 132.444 239.007 131.949 239.315C131.455 239.614 130.867 239.763 130.185 239.763ZM130.185 233.141C129.877 233.141 129.597 233.197 129.345 233.309C129.093 233.412 128.874 233.561 128.687 233.757C128.51 233.953 128.37 234.186 128.267 234.457C128.165 234.718 128.113 235.008 128.113 235.325V235.423H132.103V235.269C132.103 234.625 131.926 234.112 131.571 233.729C131.226 233.337 130.764 233.141 130.185 233.141ZM139.651 239.595C139.259 239.595 138.961 239.488 138.755 239.273C138.559 239.049 138.461 238.769 138.461 238.433V229.235H139.581V238.615H140.645V239.595H139.651ZM145.006 239.763C144.521 239.763 144.077 239.674 143.676 239.497C143.275 239.32 142.929 239.068 142.64 238.741C142.36 238.405 142.141 238.008 141.982 237.551C141.823 237.084 141.744 236.562 141.744 235.983C141.744 235.414 141.823 234.896 141.982 234.429C142.141 233.962 142.36 233.566 142.64 233.239C142.929 232.903 143.275 232.646 143.676 232.469C144.077 232.292 144.521 232.203 145.006 232.203C145.491 232.203 145.93 232.292 146.322 232.469C146.723 232.646 147.069 232.903 147.358 233.239C147.647 233.566 147.871 233.962 148.03 234.429C148.189 234.896 148.268 235.414 148.268 235.983C148.268 236.562 148.189 237.084 148.03 237.551C147.871 238.008 147.647 238.405 147.358 238.741C147.069 239.068 146.723 239.32 146.322 239.497C145.93 239.674 145.491 239.763 145.006 239.763ZM145.006 238.769C145.613 238.769 146.107 238.582 146.49 238.209C146.873 237.836 147.064 237.266 147.064 236.501V235.465C147.064 234.7 146.873 234.13 146.49 233.757C146.107 233.384 145.613 233.197 145.006 233.197C144.399 233.197 143.905 233.384 143.522 233.757C143.139 234.13 142.948 234.7 142.948 235.465V236.501C142.948 237.266 143.139 237.836 143.522 238.209C143.905 238.582 144.399 238.769 145.006 238.769ZM152.84 239.763C152.355 239.763 151.911 239.674 151.51 239.497C151.109 239.32 150.763 239.068 150.474 238.741C150.194 238.405 149.975 238.008 149.816 237.551C149.657 237.084 149.578 236.562 149.578 235.983C149.578 235.414 149.657 234.896 149.816 234.429C149.975 233.962 150.194 233.566 150.474 233.239C150.763 232.903 151.109 232.646 151.51 232.469C151.911 232.292 152.355 232.203 152.84 232.203C153.325 232.203 153.764 232.292 154.156 232.469C154.557 232.646 154.903 232.903 155.192 233.239C155.481 233.566 155.705 233.962 155.864 234.429C156.023 234.896 156.102 235.414 156.102 235.983C156.102 236.562 156.023 237.084 155.864 237.551C155.705 238.008 155.481 238.405 155.192 238.741C154.903 239.068 154.557 239.32 154.156 239.497C153.764 239.674 153.325 239.763 152.84 239.763ZM152.84 238.769C153.447 238.769 153.941 238.582 154.324 238.209C154.707 237.836 154.898 237.266 154.898 236.501V235.465C154.898 234.7 154.707 234.13 154.324 233.757C153.941 233.384 153.447 233.197 152.84 233.197C152.233 233.197 151.739 233.384 151.356 233.757C150.973 234.13 150.782 234.7 150.782 235.465V236.501C150.782 237.266 150.973 237.836 151.356 238.209C151.739 238.582 152.233 238.769 152.84 238.769ZM157.944 229.235H159.064V235.801H159.12L160.226 234.569L162.27 232.371H163.628L160.954 235.227L163.894 239.595H162.536L160.142 235.913L159.064 237.019V239.595H157.944V229.235ZM165.887 230.677C165.644 230.677 165.467 230.621 165.355 230.509C165.252 230.388 165.201 230.234 165.201 230.047V229.865C165.201 229.678 165.252 229.529 165.355 229.417C165.467 229.296 165.644 229.235 165.887 229.235C166.129 229.235 166.302 229.296 166.405 229.417C166.517 229.529 166.573 229.678 166.573 229.865V230.047C166.573 230.234 166.517 230.388 166.405 230.509C166.302 230.621 166.129 230.677 165.887 230.677ZM165.327 232.371H166.447V239.595H165.327V232.371ZM168.827 239.595V232.371H169.947V233.547H170.003C170.18 233.136 170.427 232.81 170.745 232.567C171.071 232.324 171.505 232.203 172.047 232.203C172.793 232.203 173.381 232.446 173.811 232.931C174.249 233.407 174.469 234.084 174.469 234.961V239.595H173.349V235.157C173.349 233.86 172.803 233.211 171.711 233.211C171.487 233.211 171.267 233.239 171.053 233.295C170.847 233.351 170.661 233.435 170.493 233.547C170.325 233.659 170.189 233.804 170.087 233.981C169.993 234.149 169.947 234.35 169.947 234.583V239.595H168.827ZM182.874 240.393C182.874 241.14 182.58 241.686 181.992 242.031C181.413 242.386 180.54 242.563 179.374 242.563C178.244 242.563 177.432 242.409 176.938 242.101C176.443 241.793 176.196 241.354 176.196 240.785C176.196 240.393 176.298 240.085 176.504 239.861C176.709 239.646 176.989 239.488 177.344 239.385V239.231C176.914 239.026 176.7 238.69 176.7 238.223C176.7 237.859 176.816 237.584 177.05 237.397C177.283 237.201 177.582 237.056 177.946 236.963V236.907C177.516 236.702 177.18 236.408 176.938 236.025C176.704 235.642 176.588 235.199 176.588 234.695C176.588 234.331 176.653 233.995 176.784 233.687C176.914 233.379 177.096 233.118 177.33 232.903C177.572 232.679 177.857 232.506 178.184 232.385C178.52 232.264 178.893 232.203 179.304 232.203C179.817 232.203 180.274 232.296 180.676 232.483V232.357C180.676 232.077 180.741 231.848 180.872 231.671C181.002 231.484 181.217 231.391 181.516 231.391H182.594V232.371H181.222V232.833C181.483 233.057 181.684 233.328 181.824 233.645C181.973 233.953 182.048 234.303 182.048 234.695C182.048 235.059 181.982 235.395 181.852 235.703C181.721 236.011 181.534 236.277 181.292 236.501C181.058 236.716 180.774 236.884 180.438 237.005C180.102 237.126 179.728 237.187 179.318 237.187C179.084 237.187 178.851 237.164 178.618 237.117C178.375 237.182 178.156 237.28 177.96 237.411C177.764 237.532 177.666 237.705 177.666 237.929C177.666 238.144 177.768 238.288 177.974 238.363C178.179 238.438 178.445 238.475 178.772 238.475H180.312C181.208 238.475 181.856 238.648 182.258 238.993C182.668 239.329 182.874 239.796 182.874 240.393ZM181.824 240.477C181.824 240.188 181.712 239.954 181.488 239.777C181.273 239.609 180.886 239.525 180.326 239.525H177.918C177.47 239.73 177.246 240.057 177.246 240.505C177.246 240.822 177.362 241.093 177.596 241.317C177.838 241.541 178.244 241.653 178.814 241.653H179.85C180.475 241.653 180.96 241.555 181.306 241.359C181.651 241.163 181.824 240.869 181.824 240.477ZM179.318 236.291C179.794 236.291 180.172 236.179 180.452 235.955C180.732 235.722 180.872 235.367 180.872 234.891V234.499C180.872 234.023 180.732 233.673 180.452 233.449C180.172 233.216 179.794 233.099 179.318 233.099C178.842 233.099 178.464 233.216 178.184 233.449C177.904 233.673 177.764 234.023 177.764 234.499V234.891C177.764 235.367 177.904 235.722 178.184 235.955C178.464 236.179 178.842 236.291 179.318 236.291ZM187.881 233.351H186.705V232.371H187.881V230.915C187.881 230.411 188.011 230.005 188.273 229.697C188.534 229.389 188.931 229.235 189.463 229.235H190.555V230.215H189.001V232.371H190.555V233.351H189.001V239.595H187.881V233.351ZM194.703 239.763C194.218 239.763 193.775 239.674 193.373 239.497C192.972 239.32 192.627 239.068 192.337 238.741C192.057 238.405 191.838 238.008 191.679 237.551C191.521 237.084 191.441 236.562 191.441 235.983C191.441 235.414 191.521 234.896 191.679 234.429C191.838 233.962 192.057 233.566 192.337 233.239C192.627 232.903 192.972 232.646 193.373 232.469C193.775 232.292 194.218 232.203 194.703 232.203C195.189 232.203 195.627 232.292 196.019 232.469C196.421 232.646 196.766 232.903 197.055 233.239C197.345 233.566 197.569 233.962 197.727 234.429C197.886 234.896 197.965 235.414 197.965 235.983C197.965 236.562 197.886 237.084 197.727 237.551C197.569 238.008 197.345 238.405 197.055 238.741C196.766 239.068 196.421 239.32 196.019 239.497C195.627 239.674 195.189 239.763 194.703 239.763ZM194.703 238.769C195.31 238.769 195.805 238.582 196.187 238.209C196.57 237.836 196.761 237.266 196.761 236.501V235.465C196.761 234.7 196.57 234.13 196.187 233.757C195.805 233.384 195.31 233.197 194.703 233.197C194.097 233.197 193.602 233.384 193.219 233.757C192.837 234.13 192.645 234.7 192.645 235.465V236.501C192.645 237.266 192.837 237.836 193.219 238.209C193.602 238.582 194.097 238.769 194.703 238.769ZM199.807 239.595V232.371H200.927V233.701H200.997C201.128 233.356 201.361 233.048 201.697 232.777C202.033 232.506 202.495 232.371 203.083 232.371H203.517V233.491H202.859C202.253 233.491 201.777 233.608 201.431 233.841C201.095 234.065 200.927 234.35 200.927 234.695V239.595H199.807ZM212.876 238.419H212.82C212.382 239.315 211.677 239.763 210.706 239.763C210.258 239.763 209.852 239.674 209.488 239.497C209.124 239.32 208.812 239.068 208.55 238.741C208.298 238.414 208.102 238.018 207.962 237.551C207.832 237.084 207.766 236.562 207.766 235.983C207.766 235.404 207.832 234.882 207.962 234.415C208.102 233.948 208.298 233.552 208.55 233.225C208.812 232.898 209.124 232.646 209.488 232.469C209.852 232.292 210.258 232.203 210.706 232.203C211.21 232.203 211.64 232.315 211.994 232.539C212.358 232.754 212.634 233.09 212.82 233.547H212.876V229.235H213.996V239.595H212.876V238.419ZM211.014 238.755C211.266 238.755 211.504 238.722 211.728 238.657C211.962 238.592 212.162 238.498 212.33 238.377C212.498 238.246 212.629 238.092 212.722 237.915C212.825 237.728 212.876 237.518 212.876 237.285V234.597C212.876 234.401 212.825 234.219 212.722 234.051C212.629 233.874 212.498 233.724 212.33 233.603C212.162 233.482 211.962 233.388 211.728 233.323C211.504 233.248 211.266 233.211 211.014 233.211C210.38 233.211 209.88 233.412 209.516 233.813C209.152 234.205 208.97 234.723 208.97 235.367V236.599C208.97 237.243 209.152 237.766 209.516 238.167C209.88 238.559 210.38 238.755 211.014 238.755ZM219.108 239.763C218.622 239.763 218.179 239.674 217.778 239.497C217.376 239.32 217.031 239.068 216.742 238.741C216.462 238.405 216.242 238.008 216.084 237.551C215.925 237.084 215.846 236.562 215.846 235.983C215.846 235.414 215.925 234.896 216.084 234.429C216.242 233.962 216.462 233.566 216.742 233.239C217.031 232.903 217.376 232.646 217.778 232.469C218.179 232.292 218.622 232.203 219.108 232.203C219.593 232.203 220.032 232.292 220.424 232.469C220.825 232.646 221.17 232.903 221.46 233.239C221.749 233.566 221.973 233.962 222.132 234.429C222.29 234.896 222.37 235.414 222.37 235.983C222.37 236.562 222.29 237.084 222.132 237.551C221.973 238.008 221.749 238.405 221.46 238.741C221.17 239.068 220.825 239.32 220.424 239.497C220.032 239.674 219.593 239.763 219.108 239.763ZM219.108 238.769C219.714 238.769 220.209 238.582 220.592 238.209C220.974 237.836 221.166 237.266 221.166 236.501V235.465C221.166 234.7 220.974 234.13 220.592 233.757C220.209 233.384 219.714 233.197 219.108 233.197C218.501 233.197 218.006 233.384 217.624 233.757C217.241 234.13 217.05 234.7 217.05 235.465V236.501C217.05 237.266 217.241 237.836 217.624 238.209C218.006 238.582 218.501 238.769 219.108 238.769ZM226.927 239.763C226.433 239.763 225.985 239.674 225.583 239.497C225.191 239.32 224.851 239.068 224.561 238.741C224.281 238.405 224.062 238.008 223.903 237.551C223.754 237.084 223.679 236.562 223.679 235.983C223.679 235.414 223.754 234.896 223.903 234.429C224.062 233.962 224.281 233.566 224.561 233.239C224.851 232.903 225.191 232.646 225.583 232.469C225.985 232.292 226.433 232.203 226.927 232.203C227.413 232.203 227.847 232.292 228.229 232.469C228.612 232.646 228.939 232.894 229.209 233.211C229.48 233.519 229.685 233.888 229.825 234.317C229.975 234.746 230.049 235.218 230.049 235.731V236.263H224.855V236.599C224.855 236.907 224.902 237.196 224.995 237.467C225.098 237.728 225.238 237.957 225.415 238.153C225.602 238.349 225.826 238.503 226.087 238.615C226.358 238.727 226.661 238.783 226.997 238.783C227.455 238.783 227.851 238.676 228.187 238.461C228.533 238.246 228.799 237.938 228.985 237.537L229.783 238.111C229.55 238.606 229.186 239.007 228.691 239.315C228.197 239.614 227.609 239.763 226.927 239.763ZM226.927 233.141C226.619 233.141 226.339 233.197 226.087 233.309C225.835 233.412 225.616 233.561 225.429 233.757C225.252 233.953 225.112 234.186 225.009 234.457C224.907 234.718 224.855 235.008 224.855 235.325V235.423H228.845V235.269C228.845 234.625 228.668 234.112 228.313 233.729C227.968 233.337 227.506 233.141 226.927 233.141ZM234.065 239.763C233.393 239.763 232.828 239.637 232.371 239.385C231.923 239.124 231.536 238.778 231.209 238.349L232.007 237.705C232.287 238.06 232.6 238.335 232.945 238.531C233.29 238.718 233.692 238.811 234.149 238.811C234.625 238.811 234.994 238.708 235.255 238.503C235.526 238.298 235.661 238.008 235.661 237.635C235.661 237.355 235.568 237.117 235.381 236.921C235.204 236.716 234.877 236.576 234.401 236.501L233.827 236.417C233.491 236.37 233.183 236.3 232.903 236.207C232.623 236.104 232.376 235.974 232.161 235.815C231.956 235.647 231.792 235.442 231.671 235.199C231.559 234.956 231.503 234.667 231.503 234.331C231.503 233.976 231.568 233.668 231.699 233.407C231.83 233.136 232.007 232.912 232.231 232.735C232.464 232.558 232.74 232.427 233.057 232.343C233.374 232.25 233.715 232.203 234.079 232.203C234.667 232.203 235.157 232.306 235.549 232.511C235.95 232.716 236.3 233.001 236.599 233.365L235.857 234.037C235.698 233.813 235.465 233.612 235.157 233.435C234.849 233.248 234.462 233.155 233.995 233.155C233.528 233.155 233.174 233.258 232.931 233.463C232.698 233.659 232.581 233.93 232.581 234.275C232.581 234.63 232.698 234.886 232.931 235.045C233.174 235.204 233.519 235.32 233.967 235.395L234.527 235.479C235.33 235.6 235.899 235.834 236.235 236.179C236.571 236.515 236.739 236.958 236.739 237.509C236.739 238.209 236.501 238.76 236.025 239.161C235.549 239.562 234.896 239.763 234.065 239.763ZM238.717 239.595V232.371H239.837V233.547H239.893C240.071 233.136 240.318 232.81 240.635 232.567C240.962 232.324 241.396 232.203 241.937 232.203C242.684 232.203 243.272 232.446 243.701 232.931C244.14 233.407 244.359 234.084 244.359 234.961V239.595H243.239V235.157C243.239 233.86 242.693 233.211 241.601 233.211C241.377 233.211 241.158 233.239 240.943 233.295C240.738 233.351 240.551 233.435 240.383 233.547C240.215 233.659 240.08 233.804 239.977 233.981C239.884 234.149 239.837 234.35 239.837 234.583V239.595H238.717ZM246.469 233.155V229.235H247.477V233.155H246.469ZM251.456 239.595C251.064 239.595 250.765 239.488 250.56 239.273C250.364 239.049 250.266 238.76 250.266 238.405V233.351H249.076V232.371H249.748C249.991 232.371 250.154 232.324 250.238 232.231C250.331 232.128 250.378 231.956 250.378 231.713V230.369H251.386V232.371H252.968V233.351H251.386V238.615H252.856V239.595H251.456ZM260.793 239.763C260.298 239.763 259.85 239.674 259.449 239.497C259.057 239.32 258.716 239.068 258.427 238.741C258.147 238.405 257.927 238.008 257.769 237.551C257.619 237.084 257.545 236.562 257.545 235.983C257.545 235.414 257.619 234.896 257.769 234.429C257.927 233.962 258.147 233.566 258.427 233.239C258.716 232.903 259.057 232.646 259.449 232.469C259.85 232.292 260.298 232.203 260.793 232.203C261.278 232.203 261.712 232.292 262.095 232.469C262.477 232.646 262.804 232.894 263.075 233.211C263.345 233.519 263.551 233.888 263.691 234.317C263.84 234.746 263.915 235.218 263.915 235.731V236.263H258.721V236.599C258.721 236.907 258.767 237.196 258.861 237.467C258.963 237.728 259.103 237.957 259.281 238.153C259.467 238.349 259.691 238.503 259.953 238.615C260.223 238.727 260.527 238.783 260.863 238.783C261.32 238.783 261.717 238.676 262.053 238.461C262.398 238.246 262.664 237.938 262.851 237.537L263.649 238.111C263.415 238.606 263.051 239.007 262.557 239.315C262.062 239.614 261.474 239.763 260.793 239.763ZM260.793 233.141C260.485 233.141 260.205 233.197 259.953 233.309C259.701 233.412 259.481 233.561 259.295 233.757C259.117 233.953 258.977 234.186 258.875 234.457C258.772 234.718 258.721 235.008 258.721 235.325V235.423H262.711V235.269C262.711 234.625 262.533 234.112 262.179 233.729C261.833 233.337 261.371 233.141 260.793 233.141ZM264.7 239.595L267.374 235.955L264.812 232.371H266.128L267.962 235.059H268.004L269.908 232.371H271.154L268.606 235.871L271.21 239.595H269.894L268.018 236.767H267.976L265.946 239.595H264.7ZM273.252 230.677C273.009 230.677 272.832 230.621 272.72 230.509C272.617 230.388 272.566 230.234 272.566 230.047V229.865C272.566 229.678 272.617 229.529 272.72 229.417C272.832 229.296 273.009 229.235 273.252 229.235C273.495 229.235 273.667 229.296 273.77 229.417C273.882 229.529 273.938 229.678 273.938 229.865V230.047C273.938 230.234 273.882 230.388 273.77 230.509C273.667 230.621 273.495 230.677 273.252 230.677ZM272.692 232.371H273.812V239.595H272.692V232.371ZM278.362 239.763C277.69 239.763 277.125 239.637 276.668 239.385C276.22 239.124 275.833 238.778 275.506 238.349L276.304 237.705C276.584 238.06 276.897 238.335 277.242 238.531C277.587 238.718 277.989 238.811 278.446 238.811C278.922 238.811 279.291 238.708 279.552 238.503C279.823 238.298 279.958 238.008 279.958 237.635C279.958 237.355 279.865 237.117 279.678 236.921C279.501 236.716 279.174 236.576 278.698 236.501L278.124 236.417C277.788 236.37 277.48 236.3 277.2 236.207C276.92 236.104 276.673 235.974 276.458 235.815C276.253 235.647 276.089 235.442 275.968 235.199C275.856 234.956 275.8 234.667 275.8 234.331C275.8 233.976 275.865 233.668 275.996 233.407C276.127 233.136 276.304 232.912 276.528 232.735C276.761 232.558 277.037 232.427 277.354 232.343C277.671 232.25 278.012 232.203 278.376 232.203C278.964 232.203 279.454 232.306 279.846 232.511C280.247 232.716 280.597 233.001 280.896 233.365L280.154 234.037C279.995 233.813 279.762 233.612 279.454 233.435C279.146 233.248 278.759 233.155 278.292 233.155C277.825 233.155 277.471 233.258 277.228 233.463C276.995 233.659 276.878 233.93 276.878 234.275C276.878 234.63 276.995 234.886 277.228 235.045C277.471 235.204 277.816 235.32 278.264 235.395L278.824 235.479C279.627 235.6 280.196 235.834 280.532 236.179C280.868 236.515 281.036 236.958 281.036 237.509C281.036 238.209 280.798 238.76 280.322 239.161C279.846 239.562 279.193 239.763 278.362 239.763ZM284.515 239.595C284.123 239.595 283.824 239.488 283.619 239.273C283.423 239.049 283.325 238.76 283.325 238.405V233.351H282.135V232.371H282.807C283.049 232.371 283.213 232.324 283.297 232.231C283.39 232.128 283.437 231.956 283.437 231.713V230.369H284.445V232.371H286.027V233.351H284.445V238.615H285.915V239.595H284.515ZM288.541 239.763C288.242 239.763 288.023 239.688 287.883 239.539C287.752 239.39 287.687 239.194 287.687 238.951V238.769C287.687 238.526 287.752 238.33 287.883 238.181C288.023 238.032 288.242 237.957 288.541 237.957C288.839 237.957 289.054 238.032 289.185 238.181C289.325 238.33 289.395 238.526 289.395 238.769V238.951C289.395 239.194 289.325 239.39 289.185 239.539C289.054 239.688 288.839 239.763 288.541 239.763ZM12.4943 259.595V258.615H13.8663V250.803H12.4943V249.823H16.4143V250.803H15.0423V258.615H16.4143V259.595H12.4943ZM20.0458 259.595C19.6538 259.595 19.3551 259.488 19.1498 259.273C18.9538 259.049 18.8558 258.76 18.8558 258.405V253.351H17.6658V252.371H18.3378C18.5804 252.371 18.7438 252.324 18.8278 252.231C18.9211 252.128 18.9678 251.956 18.9678 251.713V250.369H19.9758V252.371H21.5578V253.351H19.9758V258.615H21.4458V259.595H20.0458ZM26.6666 259.595V252.371H27.7866V253.547H27.8426C27.9266 253.36 28.0199 253.188 28.1226 253.029C28.2346 252.861 28.3652 252.716 28.5146 252.595C28.6732 252.474 28.8552 252.38 29.0606 252.315C29.2659 252.24 29.5086 252.203 29.7886 252.203C30.2646 252.203 30.7032 252.32 31.1046 252.553C31.5059 252.777 31.8046 253.15 32.0006 253.673H32.0286C32.1592 253.281 32.4019 252.94 32.7566 252.651C33.1206 252.352 33.6106 252.203 34.2266 252.203C34.9639 252.203 35.5379 252.446 35.9486 252.931C36.3686 253.407 36.5786 254.084 36.5786 254.961V259.595H35.4586V255.157C35.4586 254.513 35.3326 254.028 35.0806 253.701C34.8286 253.374 34.4272 253.211 33.8766 253.211C33.6526 253.211 33.4379 253.239 33.2326 253.295C33.0366 253.351 32.8592 253.435 32.7006 253.547C32.5419 253.659 32.4159 253.804 32.3226 253.981C32.2292 254.149 32.1826 254.35 32.1826 254.583V259.595H31.0626V255.157C31.0626 254.513 30.9366 254.028 30.6846 253.701C30.4326 253.374 30.0406 253.211 29.5086 253.211C29.2846 253.211 29.0699 253.239 28.8646 253.295C28.6592 253.351 28.4772 253.435 28.3186 253.547C28.1599 253.659 28.0292 253.804 27.9266 253.981C27.8332 254.149 27.7866 254.35 27.7866 254.583V259.595H26.6666ZM44.1392 259.595C43.7192 259.595 43.4159 259.483 43.2292 259.259C43.0519 259.035 42.9399 258.755 42.8932 258.419H42.8232C42.6646 258.867 42.4032 259.203 42.0392 259.427C41.6752 259.651 41.2412 259.763 40.7372 259.763C39.9719 259.763 39.3746 259.567 38.9452 259.175C38.5252 258.783 38.3152 258.251 38.3152 257.579C38.3152 256.898 38.5626 256.375 39.0572 256.011C39.5612 255.647 40.3406 255.465 41.3952 255.465H42.8232V254.751C42.8232 254.238 42.6832 253.846 42.4032 253.575C42.1232 253.304 41.6939 253.169 41.1152 253.169C40.6766 253.169 40.3079 253.267 40.0092 253.463C39.7199 253.659 39.4772 253.92 39.2812 254.247L38.6092 253.617C38.8052 253.225 39.1179 252.894 39.5472 252.623C39.9766 252.343 40.5179 252.203 41.1712 252.203C42.0486 252.203 42.7299 252.418 43.2152 252.847C43.7006 253.276 43.9432 253.874 43.9432 254.639V258.615H44.7692V259.595H44.1392ZM40.9192 258.811C41.1992 258.811 41.4559 258.778 41.6892 258.713C41.9226 258.648 42.1232 258.554 42.2912 258.433C42.4592 258.312 42.5899 258.172 42.6832 258.013C42.7766 257.854 42.8232 257.682 42.8232 257.495V256.305H41.3392C40.6952 256.305 40.2239 256.398 39.9252 256.585C39.6359 256.772 39.4912 257.042 39.4912 257.397V257.691C39.4912 258.046 39.6172 258.321 39.8692 258.517C40.1306 258.713 40.4806 258.811 40.9192 258.811ZM50.7514 252.371H51.8574L48.6234 261.275C48.5394 261.49 48.4554 261.667 48.3714 261.807C48.2874 261.956 48.1847 262.073 48.0634 262.157C47.942 262.241 47.788 262.302 47.6014 262.339C47.424 262.376 47.2047 262.395 46.9434 262.395H46.3694V261.415H47.5034L48.0494 259.875L45.3474 252.371H46.4674L48.2034 257.285L48.5394 258.461H48.6094L49.0014 257.285L50.7514 252.371ZM56.5943 249.235H57.7143V253.547H57.7703C57.957 253.09 58.2276 252.754 58.5823 252.539C58.9463 252.315 59.3803 252.203 59.8843 252.203C60.3323 252.203 60.7383 252.292 61.1023 252.469C61.4663 252.646 61.7743 252.898 62.0263 253.225C62.2876 253.552 62.4836 253.948 62.6143 254.415C62.7543 254.882 62.8243 255.404 62.8243 255.983C62.8243 256.562 62.7543 257.084 62.6143 257.551C62.4836 258.018 62.2876 258.414 62.0263 258.741C61.7743 259.068 61.4663 259.32 61.1023 259.497C60.7383 259.674 60.3323 259.763 59.8843 259.763C58.9043 259.763 58.1996 259.315 57.7703 258.419H57.7143V259.595H56.5943V249.235ZM59.5763 258.755C60.211 258.755 60.7103 258.559 61.0743 258.167C61.4383 257.766 61.6203 257.243 61.6203 256.599V255.367C61.6203 254.723 61.4383 254.205 61.0743 253.813C60.7103 253.412 60.211 253.211 59.5763 253.211C59.3243 253.211 59.0816 253.248 58.8483 253.323C58.6243 253.388 58.4283 253.482 58.2603 253.603C58.0923 253.724 57.957 253.874 57.8543 254.051C57.761 254.219 57.7143 254.401 57.7143 254.597V257.285C57.7143 257.518 57.761 257.728 57.8543 257.915C57.957 258.092 58.0923 258.246 58.2603 258.377C58.4283 258.498 58.6243 258.592 58.8483 258.657C59.0816 258.722 59.3243 258.755 59.5763 258.755ZM67.4314 259.763C66.9367 259.763 66.4887 259.674 66.0874 259.497C65.6954 259.32 65.3547 259.068 65.0654 258.741C64.7854 258.405 64.5661 258.008 64.4074 257.551C64.2581 257.084 64.1834 256.562 64.1834 255.983C64.1834 255.414 64.2581 254.896 64.4074 254.429C64.5661 253.962 64.7854 253.566 65.0654 253.239C65.3547 252.903 65.6954 252.646 66.0874 252.469C66.4887 252.292 66.9367 252.203 67.4314 252.203C67.9167 252.203 68.3507 252.292 68.7334 252.469C69.1161 252.646 69.4427 252.894 69.7134 253.211C69.9841 253.519 70.1894 253.888 70.3294 254.317C70.4787 254.746 70.5534 255.218 70.5534 255.731V256.263H65.3594V256.599C65.3594 256.907 65.4061 257.196 65.4994 257.467C65.6021 257.728 65.7421 257.957 65.9194 258.153C66.1061 258.349 66.3301 258.503 66.5914 258.615C66.8621 258.727 67.1654 258.783 67.5014 258.783C67.9587 258.783 68.3554 258.676 68.6914 258.461C69.0367 258.246 69.3027 257.938 69.4894 257.537L70.2874 258.111C70.0541 258.606 69.6901 259.007 69.1954 259.315C68.7007 259.614 68.1127 259.763 67.4314 259.763ZM67.4314 253.141C67.1234 253.141 66.8434 253.197 66.5914 253.309C66.3394 253.412 66.1201 253.561 65.9334 253.757C65.7561 253.953 65.6161 254.186 65.5134 254.457C65.4107 254.718 65.3594 255.008 65.3594 255.325V255.423H69.3494V255.269C69.3494 254.625 69.1721 254.112 68.8174 253.729C68.4721 253.337 68.0101 253.141 67.4314 253.141ZM78.4376 259.763C77.9522 259.763 77.5089 259.674 77.1076 259.497C76.7062 259.32 76.3609 259.068 76.0716 258.741C75.7916 258.405 75.5722 258.008 75.4136 257.551C75.2549 257.084 75.1756 256.562 75.1756 255.983C75.1756 255.414 75.2549 254.896 75.4136 254.429C75.5722 253.962 75.7916 253.566 76.0716 253.239C76.3609 252.903 76.7062 252.646 77.1076 252.469C77.5089 252.292 77.9522 252.203 78.4376 252.203C78.9229 252.203 79.3616 252.292 79.7536 252.469C80.1549 252.646 80.5002 252.903 80.7896 253.239C81.0789 253.566 81.3029 253.962 81.4616 254.429C81.6202 254.896 81.6996 255.414 81.6996 255.983C81.6996 256.562 81.6202 257.084 81.4616 257.551C81.3029 258.008 81.0789 258.405 80.7896 258.741C80.5002 259.068 80.1549 259.32 79.7536 259.497C79.3616 259.674 78.9229 259.763 78.4376 259.763ZM78.4376 258.769C79.0442 258.769 79.5389 258.582 79.9216 258.209C80.3042 257.836 80.4956 257.266 80.4956 256.501V255.465C80.4956 254.7 80.3042 254.13 79.9216 253.757C79.5389 253.384 79.0442 253.197 78.4376 253.197C77.8309 253.197 77.3362 253.384 76.9536 253.757C76.5709 254.13 76.3796 254.7 76.3796 255.465V256.501C76.3796 257.266 76.5709 257.836 76.9536 258.209C77.3362 258.582 77.8309 258.769 78.4376 258.769ZM87.9936 258.419H87.9376C87.8629 258.587 87.7696 258.755 87.6576 258.923C87.5549 259.082 87.4242 259.226 87.2656 259.357C87.1069 259.478 86.9156 259.576 86.6916 259.651C86.4676 259.726 86.2062 259.763 85.9076 259.763C85.1609 259.763 84.5682 259.525 84.1296 259.049C83.6909 258.564 83.4716 257.882 83.4716 257.005V252.371H84.5916V256.809C84.5916 258.106 85.1422 258.755 86.2436 258.755C86.4676 258.755 86.6822 258.727 86.8876 258.671C87.1022 258.615 87.2889 258.531 87.4476 258.419C87.6156 258.307 87.7462 258.167 87.8396 257.999C87.9422 257.822 87.9936 257.612 87.9936 257.369V252.371H89.1136V259.595H87.9936V258.419ZM93.0946 259.595C92.7026 259.595 92.4039 259.488 92.1986 259.273C92.0026 259.049 91.9046 258.76 91.9046 258.405V253.351H90.7146V252.371H91.3866C91.6293 252.371 91.7926 252.324 91.8766 252.231C91.9699 252.128 92.0166 251.956 92.0166 251.713V250.369H93.0246V252.371H94.6066V253.351H93.0246V258.615H94.4946V259.595H93.0946ZM102.445 259.763C101.96 259.763 101.517 259.674 101.115 259.497C100.714 259.32 100.369 259.068 100.079 258.741C99.7994 258.405 99.5801 258.008 99.4214 257.551C99.2627 257.084 99.1834 256.562 99.1834 255.983C99.1834 255.414 99.2627 254.896 99.4214 254.429C99.5801 253.962 99.7994 253.566 100.079 253.239C100.369 252.903 100.714 252.646 101.115 252.469C101.517 252.292 101.96 252.203 102.445 252.203C102.931 252.203 103.369 252.292 103.761 252.469C104.163 252.646 104.508 252.903 104.797 253.239C105.087 253.566 105.311 253.962 105.469 254.429C105.628 254.896 105.707 255.414 105.707 255.983C105.707 256.562 105.628 257.084 105.469 257.551C105.311 258.008 105.087 258.405 104.797 258.741C104.508 259.068 104.163 259.32 103.761 259.497C103.369 259.674 102.931 259.763 102.445 259.763ZM102.445 258.769C103.052 258.769 103.547 258.582 103.929 258.209C104.312 257.836 104.503 257.266 104.503 256.501V255.465C104.503 254.7 104.312 254.13 103.929 253.757C103.547 253.384 103.052 253.197 102.445 253.197C101.839 253.197 101.344 253.384 100.961 253.757C100.579 254.13 100.387 254.7 100.387 255.465V256.501C100.387 257.266 100.579 257.836 100.961 258.209C101.344 258.582 101.839 258.769 102.445 258.769ZM107.859 253.351H106.683V252.371H107.859V250.915C107.859 250.411 107.99 250.005 108.251 249.697C108.513 249.389 108.909 249.235 109.441 249.235H110.533V250.215H108.979V252.371H110.533V253.351H108.979V259.595H107.859V253.351ZM119.935 258.419H119.879C119.44 259.315 118.736 259.763 117.765 259.763C117.317 259.763 116.911 259.674 116.547 259.497C116.183 259.32 115.87 259.068 115.609 258.741C115.357 258.414 115.161 258.018 115.021 257.551C114.89 257.084 114.825 256.562 114.825 255.983C114.825 255.404 114.89 254.882 115.021 254.415C115.161 253.948 115.357 253.552 115.609 253.225C115.87 252.898 116.183 252.646 116.547 252.469C116.911 252.292 117.317 252.203 117.765 252.203C118.269 252.203 118.698 252.315 119.053 252.539C119.417 252.754 119.692 253.09 119.879 253.547H119.935V249.235H121.055V259.595H119.935V258.419ZM118.073 258.755C118.325 258.755 118.563 258.722 118.787 258.657C119.02 258.592 119.221 258.498 119.389 258.377C119.557 258.246 119.688 258.092 119.781 257.915C119.884 257.728 119.935 257.518 119.935 257.285V254.597C119.935 254.401 119.884 254.219 119.781 254.051C119.688 253.874 119.557 253.724 119.389 253.603C119.221 253.482 119.02 253.388 118.787 253.323C118.563 253.248 118.325 253.211 118.073 253.211C117.438 253.211 116.939 253.412 116.575 253.813C116.211 254.205 116.029 254.723 116.029 255.367V256.599C116.029 257.243 116.211 257.766 116.575 258.167C116.939 258.559 117.438 258.755 118.073 258.755ZM128.686 259.595C128.266 259.595 127.963 259.483 127.776 259.259C127.599 259.035 127.487 258.755 127.44 258.419H127.37C127.211 258.867 126.95 259.203 126.586 259.427C126.222 259.651 125.788 259.763 125.284 259.763C124.519 259.763 123.921 259.567 123.492 259.175C123.072 258.783 122.862 258.251 122.862 257.579C122.862 256.898 123.109 256.375 123.604 256.011C124.108 255.647 124.887 255.465 125.942 255.465H127.37V254.751C127.37 254.238 127.23 253.846 126.95 253.575C126.67 253.304 126.241 253.169 125.662 253.169C125.223 253.169 124.855 253.267 124.556 253.463C124.267 253.659 124.024 253.92 123.828 254.247L123.156 253.617C123.352 253.225 123.665 252.894 124.094 252.623C124.523 252.343 125.065 252.203 125.718 252.203C126.595 252.203 127.277 252.418 127.762 252.847C128.247 253.276 128.49 253.874 128.49 254.639V258.615H129.316V259.595H128.686ZM125.466 258.811C125.746 258.811 126.003 258.778 126.236 258.713C126.469 258.648 126.67 258.554 126.838 258.433C127.006 258.312 127.137 258.172 127.23 258.013C127.323 257.854 127.37 257.682 127.37 257.495V256.305H125.886C125.242 256.305 124.771 256.398 124.472 256.585C124.183 256.772 124.038 257.042 124.038 257.397V257.691C124.038 258.046 124.164 258.321 124.416 258.517C124.677 258.713 125.027 258.811 125.466 258.811ZM132.511 259.595C132.119 259.595 131.82 259.488 131.615 259.273C131.419 259.049 131.321 258.76 131.321 258.405V253.351H130.131V252.371H130.803C131.045 252.371 131.209 252.324 131.293 252.231C131.386 252.128 131.433 251.956 131.433 251.713V250.369H132.441V252.371H134.023V253.351H132.441V258.615H133.911V259.595H132.511ZM138.484 259.763C137.989 259.763 137.541 259.674 137.14 259.497C136.748 259.32 136.407 259.068 136.118 258.741C135.838 258.405 135.619 258.008 135.46 257.551C135.311 257.084 135.236 256.562 135.236 255.983C135.236 255.414 135.311 254.896 135.46 254.429C135.619 253.962 135.838 253.566 136.118 253.239C136.407 252.903 136.748 252.646 137.14 252.469C137.541 252.292 137.989 252.203 138.484 252.203C138.969 252.203 139.403 252.292 139.786 252.469C140.169 252.646 140.495 252.894 140.766 253.211C141.037 253.519 141.242 253.888 141.382 254.317C141.531 254.746 141.606 255.218 141.606 255.731V256.263H136.412V256.599C136.412 256.907 136.459 257.196 136.552 257.467C136.655 257.728 136.795 257.957 136.972 258.153C137.159 258.349 137.383 258.503 137.644 258.615C137.915 258.727 138.218 258.783 138.554 258.783C139.011 258.783 139.408 258.676 139.744 258.461C140.089 258.246 140.355 257.938 140.542 257.537L141.34 258.111C141.107 258.606 140.743 259.007 140.248 259.315C139.753 259.614 139.165 259.763 138.484 259.763ZM138.484 253.141C138.176 253.141 137.896 253.197 137.644 253.309C137.392 253.412 137.173 253.561 136.986 253.757C136.809 253.953 136.669 254.186 136.566 254.457C136.463 254.718 136.412 255.008 136.412 255.325V255.423H140.402V255.269C140.402 254.625 140.225 254.112 139.87 253.729C139.525 253.337 139.063 253.141 138.484 253.141ZM143.892 257.957C144.191 257.957 144.406 258.036 144.536 258.195C144.676 258.344 144.746 258.54 144.746 258.783V258.979C144.746 259.362 144.634 259.782 144.41 260.239C144.186 260.706 143.874 261.112 143.472 261.457H142.534C142.814 261.158 143.038 260.874 143.206 260.603C143.384 260.342 143.51 260.048 143.584 259.721C143.398 259.674 143.258 259.586 143.164 259.455C143.08 259.324 143.038 259.166 143.038 258.979V258.783C143.038 258.54 143.104 258.344 143.234 258.195C143.374 258.036 143.594 257.957 143.892 257.957ZM150.301 259.595V252.371H151.421V253.701H151.491C151.622 253.356 151.855 253.048 152.191 252.777C152.527 252.506 152.989 252.371 153.577 252.371H154.011V253.491H153.353C152.747 253.491 152.271 253.608 151.925 253.841C151.589 254.065 151.421 254.35 151.421 254.695V259.595H150.301ZM158.09 259.763C157.595 259.763 157.147 259.674 156.746 259.497C156.354 259.32 156.013 259.068 155.724 258.741C155.444 258.405 155.224 258.008 155.066 257.551C154.916 257.084 154.842 256.562 154.842 255.983C154.842 255.414 154.916 254.896 155.066 254.429C155.224 253.962 155.444 253.566 155.724 253.239C156.013 252.903 156.354 252.646 156.746 252.469C157.147 252.292 157.595 252.203 158.09 252.203C158.575 252.203 159.009 252.292 159.392 252.469C159.774 252.646 160.101 252.894 160.372 253.211C160.642 253.519 160.848 253.888 160.988 254.317C161.137 254.746 161.212 255.218 161.212 255.731V256.263H156.018V256.599C156.018 256.907 156.064 257.196 156.158 257.467C156.26 257.728 156.4 257.957 156.578 258.153C156.764 258.349 156.988 258.503 157.25 258.615C157.52 258.727 157.824 258.783 158.16 258.783C158.617 258.783 159.014 258.676 159.35 258.461C159.695 258.246 159.961 257.938 160.148 257.537L160.946 258.111C160.712 258.606 160.348 259.007 159.854 259.315C159.359 259.614 158.771 259.763 158.09 259.763ZM158.09 253.141C157.782 253.141 157.502 253.197 157.25 253.309C156.998 253.412 156.778 253.561 156.592 253.757C156.414 253.953 156.274 254.186 156.172 254.457C156.069 254.718 156.018 255.008 156.018 255.325V255.423H160.008V255.269C160.008 254.625 159.83 254.112 159.476 253.729C159.13 253.337 158.668 253.141 158.09 253.141ZM163.057 259.595V252.371H164.177V253.547H164.233C164.317 253.36 164.411 253.188 164.513 253.029C164.625 252.861 164.756 252.716 164.905 252.595C165.064 252.474 165.246 252.38 165.451 252.315C165.657 252.24 165.899 252.203 166.179 252.203C166.655 252.203 167.094 252.32 167.495 252.553C167.897 252.777 168.195 253.15 168.391 253.673H168.419C168.55 253.281 168.793 252.94 169.147 252.651C169.511 252.352 170.001 252.203 170.617 252.203C171.355 252.203 171.929 252.446 172.339 252.931C172.759 253.407 172.969 254.084 172.969 254.961V259.595H171.849V255.157C171.849 254.513 171.723 254.028 171.471 253.701C171.219 253.374 170.818 253.211 170.267 253.211C170.043 253.211 169.829 253.239 169.623 253.295C169.427 253.351 169.25 253.435 169.091 253.547C168.933 253.659 168.807 253.804 168.713 253.981C168.62 254.149 168.573 254.35 168.573 254.583V259.595H167.453V255.157C167.453 254.513 167.327 254.028 167.075 253.701C166.823 253.374 166.431 253.211 165.899 253.211C165.675 253.211 165.461 253.239 165.255 253.295C165.05 253.351 164.868 253.435 164.709 253.547C164.551 253.659 164.42 253.804 164.317 253.981C164.224 254.149 164.177 254.35 164.177 254.583V259.595H163.057ZM178.01 259.763C177.525 259.763 177.081 259.674 176.68 259.497C176.279 259.32 175.933 259.068 175.644 258.741C175.364 258.405 175.145 258.008 174.986 257.551C174.827 257.084 174.748 256.562 174.748 255.983C174.748 255.414 174.827 254.896 174.986 254.429C175.145 253.962 175.364 253.566 175.644 253.239C175.933 252.903 176.279 252.646 176.68 252.469C177.081 252.292 177.525 252.203 178.01 252.203C178.495 252.203 178.934 252.292 179.326 252.469C179.727 252.646 180.073 252.903 180.362 253.239C180.651 253.566 180.875 253.962 181.034 254.429C181.193 254.896 181.272 255.414 181.272 255.983C181.272 256.562 181.193 257.084 181.034 257.551C180.875 258.008 180.651 258.405 180.362 258.741C180.073 259.068 179.727 259.32 179.326 259.497C178.934 259.674 178.495 259.763 178.01 259.763ZM178.01 258.769C178.617 258.769 179.111 258.582 179.494 258.209C179.877 257.836 180.068 257.266 180.068 256.501V255.465C180.068 254.7 179.877 254.13 179.494 253.757C179.111 253.384 178.617 253.197 178.01 253.197C177.403 253.197 176.909 253.384 176.526 253.757C176.143 254.13 175.952 254.7 175.952 255.465V256.501C175.952 257.266 176.143 257.836 176.526 258.209C176.909 258.582 177.403 258.769 178.01 258.769ZM184.6 259.595L182.066 252.371H183.186L184.446 255.955L185.23 258.419H185.3L186.084 255.955L187.372 252.371H188.45L185.902 259.595H184.6ZM192.502 259.763C192.007 259.763 191.559 259.674 191.158 259.497C190.766 259.32 190.425 259.068 190.136 258.741C189.856 258.405 189.636 258.008 189.478 257.551C189.328 257.084 189.254 256.562 189.254 255.983C189.254 255.414 189.328 254.896 189.478 254.429C189.636 253.962 189.856 253.566 190.136 253.239C190.425 252.903 190.766 252.646 191.158 252.469C191.559 252.292 192.007 252.203 192.502 252.203C192.987 252.203 193.421 252.292 193.804 252.469C194.186 252.646 194.513 252.894 194.784 253.211C195.054 253.519 195.26 253.888 195.4 254.317C195.549 254.746 195.624 255.218 195.624 255.731V256.263H190.43V256.599C190.43 256.907 190.476 257.196 190.57 257.467C190.672 257.728 190.812 257.957 190.99 258.153C191.176 258.349 191.4 258.503 191.662 258.615C191.932 258.727 192.236 258.783 192.572 258.783C193.029 258.783 193.426 258.676 193.762 258.461C194.107 258.246 194.373 257.938 194.56 257.537L195.358 258.111C195.124 258.606 194.76 259.007 194.266 259.315C193.771 259.614 193.183 259.763 192.502 259.763ZM192.502 253.141C192.194 253.141 191.914 253.197 191.662 253.309C191.41 253.412 191.19 253.561 191.004 253.757C190.826 253.953 190.686 254.186 190.584 254.457C190.481 254.718 190.43 255.008 190.43 255.325V255.423H194.42V255.269C194.42 254.625 194.242 254.112 193.888 253.729C193.542 253.337 193.08 253.141 192.502 253.141ZM202.089 258.419H202.033C201.595 259.315 200.89 259.763 199.919 259.763C199.471 259.763 199.065 259.674 198.701 259.497C198.337 259.32 198.025 259.068 197.763 258.741C197.511 258.414 197.315 258.018 197.175 257.551C197.045 257.084 196.979 256.562 196.979 255.983C196.979 255.404 197.045 254.882 197.175 254.415C197.315 253.948 197.511 253.552 197.763 253.225C198.025 252.898 198.337 252.646 198.701 252.469C199.065 252.292 199.471 252.203 199.919 252.203C200.423 252.203 200.853 252.315 201.207 252.539C201.571 252.754 201.847 253.09 202.033 253.547H202.089V249.235H203.209V259.595H202.089V258.419ZM200.227 258.755C200.479 258.755 200.717 258.722 200.941 258.657C201.175 258.592 201.375 258.498 201.543 258.377C201.711 258.246 201.842 258.092 201.935 257.915C202.038 257.728 202.089 257.518 202.089 257.285V254.597C202.089 254.401 202.038 254.219 201.935 254.051C201.842 253.874 201.711 253.724 201.543 253.603C201.375 253.482 201.175 253.388 200.941 253.323C200.717 253.248 200.479 253.211 200.227 253.211C199.593 253.211 199.093 253.412 198.729 253.813C198.365 254.205 198.183 254.723 198.183 255.367V256.599C198.183 257.243 198.365 257.766 198.729 258.167C199.093 258.559 199.593 258.755 200.227 258.755ZM206.304 257.957C206.603 257.957 206.818 258.036 206.948 258.195C207.088 258.344 207.158 258.54 207.158 258.783V258.979C207.158 259.362 207.046 259.782 206.822 260.239C206.598 260.706 206.286 261.112 205.884 261.457H204.946C205.226 261.158 205.45 260.874 205.618 260.603C205.796 260.342 205.922 260.048 205.996 259.721C205.81 259.674 205.67 259.586 205.576 259.455C205.492 259.324 205.45 259.166 205.45 258.979V258.783C205.45 258.54 205.516 258.344 205.646 258.195C205.786 258.036 206.006 257.957 206.304 257.957ZM215.443 259.763C214.958 259.763 214.515 259.674 214.113 259.497C213.712 259.32 213.367 259.068 213.077 258.741C212.797 258.405 212.578 258.008 212.419 257.551C212.261 257.084 212.181 256.562 212.181 255.983C212.181 255.414 212.261 254.896 212.419 254.429C212.578 253.962 212.797 253.566 213.077 253.239C213.367 252.903 213.712 252.646 214.113 252.469C214.515 252.292 214.958 252.203 215.443 252.203C215.929 252.203 216.367 252.292 216.759 252.469C217.161 252.646 217.506 252.903 217.795 253.239C218.085 253.566 218.309 253.962 218.467 254.429C218.626 254.896 218.705 255.414 218.705 255.983C218.705 256.562 218.626 257.084 218.467 257.551C218.309 258.008 218.085 258.405 217.795 258.741C217.506 259.068 217.161 259.32 216.759 259.497C216.367 259.674 215.929 259.763 215.443 259.763ZM215.443 258.769C216.05 258.769 216.545 258.582 216.927 258.209C217.31 257.836 217.501 257.266 217.501 256.501V255.465C217.501 254.7 217.31 254.13 216.927 253.757C216.545 253.384 216.05 253.197 215.443 253.197C214.837 253.197 214.342 253.384 213.959 253.757C213.577 254.13 213.385 254.7 213.385 255.465V256.501C213.385 257.266 213.577 257.836 213.959 258.209C214.342 258.582 214.837 258.769 215.443 258.769ZM220.547 259.595V252.371H221.667V253.701H221.737C221.868 253.356 222.101 253.048 222.437 252.777C222.773 252.506 223.235 252.371 223.823 252.371H224.257V253.491H223.599C222.993 253.491 222.517 253.608 222.171 253.841C221.835 254.065 221.667 254.35 221.667 254.695V259.595H220.547ZM234.247 259.595C233.827 259.595 233.523 259.483 233.337 259.259C233.159 259.035 233.047 258.755 233.001 258.419H232.931C232.772 258.867 232.511 259.203 232.147 259.427C231.783 259.651 231.349 259.763 230.845 259.763C230.079 259.763 229.482 259.567 229.053 259.175C228.633 258.783 228.423 258.251 228.423 257.579C228.423 256.898 228.67 256.375 229.165 256.011C229.669 255.647 230.448 255.465 231.503 255.465H232.931V254.751C232.931 254.238 232.791 253.846 232.511 253.575C232.231 253.304 231.801 253.169 231.223 253.169C230.784 253.169 230.415 253.267 230.117 253.463C229.827 253.659 229.585 253.92 229.389 254.247L228.717 253.617C228.913 253.225 229.225 252.894 229.655 252.623C230.084 252.343 230.625 252.203 231.279 252.203C232.156 252.203 232.837 252.418 233.323 252.847C233.808 253.276 234.051 253.874 234.051 254.639V258.615H234.877V259.595H234.247ZM231.027 258.811C231.307 258.811 231.563 258.778 231.797 258.713C232.03 258.648 232.231 258.554 232.399 258.433C232.567 258.312 232.697 258.172 232.791 258.013C232.884 257.854 232.931 257.682 232.931 257.495V256.305H231.447C230.803 256.305 230.331 256.398 230.033 256.585C229.743 256.772 229.599 257.042 229.599 257.397V257.691C229.599 258.046 229.725 258.321 229.977 258.517C230.238 258.713 230.588 258.811 231.027 258.811ZM236.475 259.595V252.371H237.595V253.547H237.651C237.828 253.136 238.076 252.81 238.393 252.567C238.72 252.324 239.154 252.203 239.695 252.203C240.442 252.203 241.03 252.446 241.459 252.931C241.898 253.407 242.117 254.084 242.117 254.961V259.595H240.997V255.157C240.997 253.86 240.451 253.211 239.359 253.211C239.135 253.211 238.916 253.239 238.701 253.295C238.496 253.351 238.309 253.435 238.141 253.547C237.973 253.659 237.838 253.804 237.735 253.981C237.642 254.149 237.595 254.35 237.595 254.583V259.595H236.475ZM248.301 250.677C248.058 250.677 247.881 250.621 247.769 250.509C247.666 250.388 247.615 250.234 247.615 250.047V249.865C247.615 249.678 247.666 249.529 247.769 249.417C247.881 249.296 248.058 249.235 248.301 249.235C248.543 249.235 248.716 249.296 248.819 249.417C248.931 249.529 248.987 249.678 248.987 249.865V250.047C248.987 250.234 248.931 250.388 248.819 250.509C248.716 250.621 248.543 250.677 248.301 250.677ZM247.741 252.371H248.861V259.595H247.741V252.371ZM251.241 259.595V252.371H252.361V253.547H252.417C252.594 253.136 252.841 252.81 253.159 252.567C253.485 252.324 253.919 252.203 254.461 252.203C255.207 252.203 255.795 252.446 256.225 252.931C256.663 253.407 256.883 254.084 256.883 254.961V259.595H255.763V255.157C255.763 253.86 255.217 253.211 254.125 253.211C253.901 253.211 253.681 253.239 253.467 253.295C253.261 253.351 253.075 253.435 252.907 253.547C252.739 253.659 252.603 253.804 252.501 253.981C252.407 254.149 252.361 254.35 252.361 254.583V259.595H251.241ZM260.684 259.595L258.15 252.371H259.27L260.53 255.955L261.314 258.419H261.384L262.168 255.955L263.456 252.371H264.534L261.986 259.595H260.684ZM271.106 259.595C270.686 259.595 270.383 259.483 270.196 259.259C270.019 259.035 269.907 258.755 269.86 258.419H269.79C269.631 258.867 269.37 259.203 269.006 259.427C268.642 259.651 268.208 259.763 267.704 259.763C266.939 259.763 266.341 259.567 265.912 259.175C265.492 258.783 265.282 258.251 265.282 257.579C265.282 256.898 265.529 256.375 266.024 256.011C266.528 255.647 267.307 255.465 268.362 255.465H269.79V254.751C269.79 254.238 269.65 253.846 269.37 253.575C269.09 253.304 268.661 253.169 268.082 253.169C267.643 253.169 267.275 253.267 266.976 253.463C266.687 253.659 266.444 253.92 266.248 254.247L265.576 253.617C265.772 253.225 266.085 252.894 266.514 252.623C266.943 252.343 267.485 252.203 268.138 252.203C269.015 252.203 269.697 252.418 270.182 252.847C270.667 253.276 270.91 253.874 270.91 254.639V258.615H271.736V259.595H271.106ZM267.886 258.811C268.166 258.811 268.423 258.778 268.656 258.713C268.889 258.648 269.09 258.554 269.258 258.433C269.426 258.312 269.557 258.172 269.65 258.013C269.743 257.854 269.79 257.682 269.79 257.495V256.305H268.306C267.662 256.305 267.191 256.398 266.892 256.585C266.603 256.772 266.458 257.042 266.458 257.397V257.691C266.458 258.046 266.584 258.321 266.836 258.517C267.097 258.713 267.447 258.811 267.886 258.811ZM274.525 259.595C274.133 259.595 273.834 259.488 273.629 259.273C273.433 259.049 273.335 258.769 273.335 258.433V249.235H274.455V258.615H275.519V259.595H274.525ZM277.709 250.677C277.466 250.677 277.289 250.621 277.177 250.509C277.074 250.388 277.023 250.234 277.023 250.047V249.865C277.023 249.678 277.074 249.529 277.177 249.417C277.289 249.296 277.466 249.235 277.709 249.235C277.952 249.235 278.124 249.296 278.227 249.417C278.339 249.529 278.395 249.678 278.395 249.865V250.047C278.395 250.234 278.339 250.388 278.227 250.509C278.124 250.621 277.952 250.677 277.709 250.677ZM277.149 252.371H278.269V259.595H277.149V252.371ZM285.269 258.419H285.213C284.774 259.315 284.07 259.763 283.099 259.763C282.651 259.763 282.245 259.674 281.881 259.497C281.517 259.32 281.204 259.068 280.943 258.741C280.691 258.414 280.495 258.018 280.355 257.551C280.224 257.084 280.159 256.562 280.159 255.983C280.159 255.404 280.224 254.882 280.355 254.415C280.495 253.948 280.691 253.552 280.943 253.225C281.204 252.898 281.517 252.646 281.881 252.469C282.245 252.292 282.651 252.203 283.099 252.203C283.603 252.203 284.032 252.315 284.387 252.539C284.751 252.754 285.026 253.09 285.213 253.547H285.269V249.235H286.389V259.595H285.269V258.419ZM283.407 258.755C283.659 258.755 283.897 258.722 284.121 258.657C284.354 258.592 284.555 258.498 284.723 258.377C284.891 258.246 285.022 258.092 285.115 257.915C285.218 257.728 285.269 257.518 285.269 257.285V254.597C285.269 254.401 285.218 254.219 285.115 254.051C285.022 253.874 284.891 253.724 284.723 253.603C284.555 253.482 284.354 253.388 284.121 253.323C283.897 253.248 283.659 253.211 283.407 253.211C282.772 253.211 282.273 253.412 281.909 253.813C281.545 254.205 281.363 254.723 281.363 255.367V256.599C281.363 257.243 281.545 257.766 281.909 258.167C282.273 258.559 282.772 258.755 283.407 258.755ZM293.297 249.823V255.871C293.297 256.804 293.469 257.514 293.815 257.999C294.16 258.475 294.767 258.713 295.635 258.713C296.503 258.713 297.109 258.475 297.455 257.999C297.8 257.514 297.973 256.804 297.973 255.871V249.823H299.149V255.591C299.149 256.3 299.083 256.916 298.953 257.439C298.831 257.962 298.631 258.396 298.351 258.741C298.071 259.086 297.702 259.343 297.245 259.511C296.797 259.679 296.246 259.763 295.593 259.763C294.939 259.763 294.389 259.679 293.941 259.511C293.502 259.343 293.147 259.086 292.877 258.741C292.606 258.396 292.41 257.962 292.289 257.439C292.177 256.916 292.121 256.3 292.121 255.591V249.823H293.297ZM302.855 259.595H301.679V249.823H305.571C306.43 249.823 307.097 250.061 307.573 250.537C308.058 251.013 308.301 251.699 308.301 252.595C308.301 253.314 308.133 253.906 307.797 254.373C307.47 254.83 306.985 255.134 306.341 255.283L308.581 259.595H307.251L305.137 255.395H302.855V259.595ZM305.571 254.387C306.038 254.387 306.397 254.266 306.649 254.023C306.91 253.78 307.041 253.435 307.041 252.987V252.259C307.041 251.811 306.91 251.466 306.649 251.223C306.397 250.98 306.038 250.859 305.571 250.859H302.855V254.387H305.571ZM310.634 259.595V249.823H311.81V258.559H315.968V259.595H310.634ZM125.79 272.371H126.882L127.652 275.493L128.422 278.657H128.45L129.332 275.493L130.242 272.371H131.236L132.174 275.493L133.07 278.657H133.098L133.84 275.493L134.624 272.371H135.674L133.756 279.595H132.37L131.362 276.123L130.732 273.925H130.704L130.088 276.123L129.08 279.595H127.722L125.79 272.371ZM142.419 279.595C141.999 279.595 141.696 279.483 141.509 279.259C141.332 279.035 141.22 278.755 141.173 278.419H141.103C140.945 278.867 140.683 279.203 140.319 279.427C139.955 279.651 139.521 279.763 139.017 279.763C138.252 279.763 137.655 279.567 137.225 279.175C136.805 278.783 136.595 278.251 136.595 277.579C136.595 276.898 136.843 276.375 137.337 276.011C137.841 275.647 138.621 275.465 139.675 275.465H141.103V274.751C141.103 274.238 140.963 273.846 140.683 273.575C140.403 273.304 139.974 273.169 139.395 273.169C138.957 273.169 138.588 273.267 138.289 273.463C138 273.659 137.757 273.92 137.561 274.247L136.889 273.617C137.085 273.225 137.398 272.894 137.827 272.623C138.257 272.343 138.798 272.203 139.451 272.203C140.329 272.203 141.01 272.418 141.495 272.847C141.981 273.276 142.223 273.874 142.223 274.639V278.615H143.049V279.595H142.419ZM139.199 278.811C139.479 278.811 139.736 278.778 139.969 278.713C140.203 278.648 140.403 278.554 140.571 278.433C140.739 278.312 140.87 278.172 140.963 278.013C141.057 277.854 141.103 277.682 141.103 277.495V276.305H139.619C138.975 276.305 138.504 276.398 138.205 276.585C137.916 276.772 137.771 277.042 137.771 277.397V277.691C137.771 278.046 137.897 278.321 138.149 278.517C138.411 278.713 138.761 278.811 139.199 278.811ZM146.818 279.763C146.146 279.763 145.581 279.637 145.124 279.385C144.676 279.124 144.289 278.778 143.962 278.349L144.76 277.705C145.04 278.06 145.353 278.335 145.698 278.531C146.043 278.718 146.445 278.811 146.902 278.811C147.378 278.811 147.747 278.708 148.008 278.503C148.279 278.298 148.414 278.008 148.414 277.635C148.414 277.355 148.321 277.117 148.134 276.921C147.957 276.716 147.63 276.576 147.154 276.501L146.58 276.417C146.244 276.37 145.936 276.3 145.656 276.207C145.376 276.104 145.129 275.974 144.914 275.815C144.709 275.647 144.545 275.442 144.424 275.199C144.312 274.956 144.256 274.667 144.256 274.331C144.256 273.976 144.321 273.668 144.452 273.407C144.583 273.136 144.76 272.912 144.984 272.735C145.217 272.558 145.493 272.427 145.81 272.343C146.127 272.25 146.468 272.203 146.832 272.203C147.42 272.203 147.91 272.306 148.302 272.511C148.703 272.716 149.053 273.001 149.352 273.365L148.61 274.037C148.451 273.813 148.218 273.612 147.91 273.435C147.602 273.248 147.215 273.155 146.748 273.155C146.281 273.155 145.927 273.258 145.684 273.463C145.451 273.659 145.334 273.93 145.334 274.275C145.334 274.63 145.451 274.886 145.684 275.045C145.927 275.204 146.272 275.32 146.72 275.395L147.28 275.479C148.083 275.6 148.652 275.834 148.988 276.179C149.324 276.515 149.492 276.958 149.492 277.509C149.492 278.209 149.254 278.76 148.778 279.161C148.302 279.562 147.649 279.763 146.818 279.763ZM157.495 279.763C157 279.763 156.552 279.674 156.151 279.497C155.759 279.32 155.418 279.068 155.129 278.741C154.849 278.405 154.63 278.008 154.471 277.551C154.322 277.084 154.247 276.562 154.247 275.983C154.247 275.414 154.322 274.896 154.471 274.429C154.63 273.962 154.849 273.566 155.129 273.239C155.418 272.903 155.759 272.646 156.151 272.469C156.552 272.292 157 272.203 157.495 272.203C157.98 272.203 158.414 272.292 158.797 272.469C159.18 272.646 159.506 272.894 159.777 273.211C160.048 273.519 160.253 273.888 160.393 274.317C160.542 274.746 160.617 275.218 160.617 275.731V276.263H155.423V276.599C155.423 276.907 155.47 277.196 155.563 277.467C155.666 277.728 155.806 277.957 155.983 278.153C156.17 278.349 156.394 278.503 156.655 278.615C156.926 278.727 157.229 278.783 157.565 278.783C158.022 278.783 158.419 278.676 158.755 278.461C159.1 278.246 159.366 277.938 159.553 277.537L160.351 278.111C160.118 278.606 159.754 279.007 159.259 279.315C158.764 279.614 158.176 279.763 157.495 279.763ZM157.495 273.141C157.187 273.141 156.907 273.197 156.655 273.309C156.403 273.412 156.184 273.561 155.997 273.757C155.82 273.953 155.68 274.186 155.577 274.457C155.474 274.718 155.423 275.008 155.423 275.325V275.423H159.413V275.269C159.413 274.625 159.236 274.112 158.881 273.729C158.536 273.337 158.074 273.141 157.495 273.141ZM162.462 279.595V272.371H163.582V273.547H163.638C163.816 273.136 164.063 272.81 164.38 272.567C164.707 272.324 165.141 272.203 165.682 272.203C166.429 272.203 167.017 272.446 167.446 272.931C167.885 273.407 168.104 274.084 168.104 274.961V279.595H166.984V275.157C166.984 273.86 166.438 273.211 165.346 273.211C165.122 273.211 164.903 273.239 164.688 273.295C164.483 273.351 164.296 273.435 164.128 273.547C163.96 273.659 163.825 273.804 163.722 273.981C163.629 274.149 163.582 274.35 163.582 274.583V279.595H162.462ZM172.015 279.595C171.623 279.595 171.325 279.488 171.119 279.273C170.923 279.049 170.825 278.76 170.825 278.405V273.351H169.635V272.371H170.307C170.55 272.371 170.713 272.324 170.797 272.231C170.891 272.128 170.937 271.956 170.937 271.713V270.369H171.945V272.371H173.527V273.351H171.945V278.615H173.415V279.595H172.015ZM177.989 279.763C177.494 279.763 177.046 279.674 176.645 279.497C176.253 279.32 175.912 279.068 175.623 278.741C175.343 278.405 175.124 278.008 174.965 277.551C174.816 277.084 174.741 276.562 174.741 275.983C174.741 275.414 174.816 274.896 174.965 274.429C175.124 273.962 175.343 273.566 175.623 273.239C175.912 272.903 176.253 272.646 176.645 272.469C177.046 272.292 177.494 272.203 177.989 272.203C178.474 272.203 178.908 272.292 179.291 272.469C179.674 272.646 180 272.894 180.271 273.211C180.542 273.519 180.747 273.888 180.887 274.317C181.036 274.746 181.111 275.218 181.111 275.731V276.263H175.917V276.599C175.917 276.907 175.964 277.196 176.057 277.467C176.16 277.728 176.3 277.957 176.477 278.153C176.664 278.349 176.888 278.503 177.149 278.615C177.42 278.727 177.723 278.783 178.059 278.783C178.516 278.783 178.913 278.676 179.249 278.461C179.594 278.246 179.86 277.938 180.047 277.537L180.845 278.111C180.612 278.606 180.248 279.007 179.753 279.315C179.258 279.614 178.67 279.763 177.989 279.763ZM177.989 273.141C177.681 273.141 177.401 273.197 177.149 273.309C176.897 273.412 176.678 273.561 176.491 273.757C176.314 273.953 176.174 274.186 176.071 274.457C175.968 274.718 175.917 275.008 175.917 275.325V275.423H179.907V275.269C179.907 274.625 179.73 274.112 179.375 273.729C179.03 273.337 178.568 273.141 177.989 273.141ZM182.957 279.595V272.371H184.077V273.701H184.147C184.277 273.356 184.511 273.048 184.847 272.777C185.183 272.506 185.645 272.371 186.233 272.371H186.667V273.491H186.009C185.402 273.491 184.926 273.608 184.581 273.841C184.245 274.065 184.077 274.35 184.077 274.695V279.595H182.957ZM190.745 279.763C190.25 279.763 189.802 279.674 189.401 279.497C189.009 279.32 188.668 279.068 188.379 278.741C188.099 278.405 187.88 278.008 187.721 277.551C187.572 277.084 187.497 276.562 187.497 275.983C187.497 275.414 187.572 274.896 187.721 274.429C187.88 273.962 188.099 273.566 188.379 273.239C188.668 272.903 189.009 272.646 189.401 272.469C189.802 272.292 190.25 272.203 190.745 272.203C191.23 272.203 191.664 272.292 192.047 272.469C192.43 272.646 192.756 272.894 193.027 273.211C193.298 273.519 193.503 273.888 193.643 274.317C193.792 274.746 193.867 275.218 193.867 275.731V276.263H188.673V276.599C188.673 276.907 188.72 277.196 188.813 277.467C188.916 277.728 189.056 277.957 189.233 278.153C189.42 278.349 189.644 278.503 189.905 278.615C190.176 278.727 190.479 278.783 190.815 278.783C191.272 278.783 191.669 278.676 192.005 278.461C192.35 278.246 192.616 277.938 192.803 277.537L193.601 278.111C193.368 278.606 193.004 279.007 192.509 279.315C192.014 279.614 191.426 279.763 190.745 279.763ZM190.745 273.141C190.437 273.141 190.157 273.197 189.905 273.309C189.653 273.412 189.434 273.561 189.247 273.757C189.07 273.953 188.93 274.186 188.827 274.457C188.724 274.718 188.673 275.008 188.673 275.325V275.423H192.663V275.269C192.663 274.625 192.486 274.112 192.131 273.729C191.786 273.337 191.324 273.141 190.745 273.141ZM200.332 278.419H200.276C199.838 279.315 199.133 279.763 198.162 279.763C197.714 279.763 197.308 279.674 196.944 279.497C196.58 279.32 196.268 279.068 196.006 278.741C195.754 278.414 195.558 278.018 195.418 277.551C195.288 277.084 195.222 276.562 195.222 275.983C195.222 275.404 195.288 274.882 195.418 274.415C195.558 273.948 195.754 273.552 196.006 273.225C196.268 272.898 196.58 272.646 196.944 272.469C197.308 272.292 197.714 272.203 198.162 272.203C198.666 272.203 199.096 272.315 199.45 272.539C199.814 272.754 200.09 273.09 200.276 273.547H200.332V269.235H201.452V279.595H200.332V278.419ZM198.47 278.755C198.722 278.755 198.96 278.722 199.184 278.657C199.418 278.592 199.618 278.498 199.786 278.377C199.954 278.246 200.085 278.092 200.178 277.915C200.281 277.728 200.332 277.518 200.332 277.285V274.597C200.332 274.401 200.281 274.219 200.178 274.051C200.085 273.874 199.954 273.724 199.786 273.603C199.618 273.482 199.418 273.388 199.184 273.323C198.96 273.248 198.722 273.211 198.47 273.211C197.836 273.211 197.336 273.412 196.972 273.813C196.608 274.205 196.426 274.723 196.426 275.367V276.599C196.426 277.243 196.608 277.766 196.972 278.167C197.336 278.559 197.836 278.755 198.47 278.755Z" fill="white" fill-opacity="0.8"/>
<defs>
<filter id="filter0_d_6043_35364" x="0" y="0" width="328" height="114.595" filterUnits="userSpaceOnUse" color-interpolation-filters="sRGB">
<feFlood flood-opacity="0" result="BackgroundImageFix"/>
<feColorMatrix in="SourceAlpha" type="matrix" values="0 0 0 0 0 0 0 0 0 0 0 0 0 0 0 0 0 0 127 0" result="hardAlpha"/>
<feOffset dy="2"/>
<feGaussianBlur stdDeviation="4"/>
<feColorMatrix type="matrix" values="0 0 0 0 0.141176 0 0 0 0 0.133333 0 0 0 0 0.239216 0 0 0 0.12 0"/>
<feBlend mode="normal" in2="BackgroundImageFix" result="effect1_dropShadow_6043_35364"/>
<feBlend mode="normal" in="SourceGraphic" in2="effect1_dropShadow_6043_35364" result="shape"/>
</filter>
<linearGradient id="paint0_linear_6043_35364" x1="164" y1="6" x2="163.938" y2="104.595" gradientUnits="userSpaceOnUse">
<stop stop-color="white" stop-opacity="0.28"/>
<stop offset="1" stop-color="white" stop-opacity="0.16"/>
</linearGradient>
<linearGradient id="paint1_linear_6043_35364" x1="164" y1="6" x2="163.938" y2="104.595" gradientUnits="userSpaceOnUse">
<stop stop-color="white" stop-opacity="0.28"/>
<stop offset="1" stop-color="white" stop-opacity="0.16"/>
</linearGradient>
<linearGradient id="paint2_linear_6043_35364" x1="164" y1="6" x2="163.938" y2="104.595" gradientUnits="userSpaceOnUse">
<stop stop-color="white" stop-opacity="0.28"/>
<stop offset="1" stop-color="white" stop-opacity="0.16"/>
</linearGradient>
<linearGradient id="paint3_linear_6043_35364" x1="219.138" y1="6" x2="199.924" y2="114.744" gradientUnits="userSpaceOnUse">
<stop stop-color="white" stop-opacity="0.32"/>
<stop offset="1" stop-color="white" stop-opacity="0.16"/>
</linearGradient>
</defs>
</svg>
