<svg width="24" height="24" viewBox="0 0 24 24" fill="none" xmlns="http://www.w3.org/2000/svg">
<path fill-rule="evenodd" clip-rule="evenodd" d="M18.6692 14.05L14.8587 7.45C14.1619 6.243 13.6899 5.42856 13.2867 4.85786C12.879 4.28076 12.6787 4.15984 12.6109 4.12968C12.2226 3.95677 11.7791 3.95677 11.3907 4.12968C11.323 4.15984 11.1227 4.28076 10.715 4.85786C10.3118 5.42856 9.83981 6.243 9.14295 7.45L5.33243 14.05C4.63557 15.257 4.16623 16.0729 3.87359 16.7075C3.57767 17.3491 3.57309 17.583 3.58084 17.6568C3.62528 18.0796 3.84703 18.4636 4.19095 18.7135C4.25094 18.7571 4.4558 18.8701 5.15944 18.9347C5.82304 18.9955 6.70987 18.9997 7.99941 19V20.5C5.39795 20.4997 4.07926 20.4865 3.30927 19.9271C2.62142 19.4273 2.17793 18.6592 2.08906 17.8136C1.98717 16.8442 2.66925 15.6628 4.0334 13.3L7.84391 6.7C9.20806 4.33722 9.89013 3.15583 10.7806 2.75936C11.5573 2.41355 12.4443 2.41355 13.221 2.75936C14.1115 3.15583 14.7936 4.33722 16.1578 6.7L19.9683 13.3C21.3324 15.6628 22.0145 16.8442 21.9126 17.8136C21.8237 18.6592 21.3802 19.4273 20.6924 19.9271C19.9221 20.4867 18.6028 20.4997 15.9994 20.5V19C17.2905 18.9997 18.1781 18.9956 18.8422 18.9347C19.5459 18.8701 19.7507 18.7571 19.8107 18.7135C20.1546 18.4636 20.3764 18.0796 20.4208 17.6568C20.4286 17.583 20.424 17.3491 20.1281 16.7075C19.8354 16.0729 19.3661 15.257 18.6692 14.05ZM12.75 16.5V8H11.25V16.5H12.75ZM11.25 20.5V19H12.75V20.5H11.25Z" fill="#110529"/>
</svg>
