<svg width="24" height="24" viewBox="0 0 24 24" fill="none" xmlns="http://www.w3.org/2000/svg">
<path fill-rule="evenodd" clip-rule="evenodd" d="M20.5 3.5H7.5V5V16.5H19H20.5V3.5ZM20.5 2H7.5C6.67157 2 6 2.67157 6 3.5V5V16.5C6 17.3284 6.67157 18 7.5 18H19H20.5C21.3284 18 22 17.3284 22 16.5V3.5C22 2.67157 21.3284 2 20.5 2Z" fill="white"/>
<path fill-rule="evenodd" clip-rule="evenodd" d="M3.41372 6C2.62636 6.04567 2.00195 6.69864 2.00195 7.49745V20.4974C2.00195 21.3259 2.67353 21.9974 3.50195 21.9974H16.502C17.3008 21.9974 17.9537 21.373 17.9994 20.5857H3.91372C3.80836 20.5857 3.71061 20.5531 3.63 20.4974H3.50195V20.3694C3.44631 20.2888 3.41372 20.191 3.41372 20.0857V6Z" fill="white"/>
</svg>
