<svg width="24" height="24" viewBox="0 0 24 24" fill="none" xmlns="http://www.w3.org/2000/svg">
<mask id="path-1-inside-1_5037_56374" fill="white">
<path d="M13.9995 7.5C15.5 7.5 15.9994 6 15.9994 6C18 8 19.9993 10.5 19.9993 14C19.9993 18 16.8818 22 11.9998 22C7.25549 22 4 18 4 14C4 10.5 5.5 6.5 11.9995 2C11.9995 4 11.5 7.5 13.9995 7.5Z"/>
</mask>
<path d="M15.9994 6L17.0599 4.93917L15.343 3.22284L14.5762 5.52619L15.9994 6ZM11.9995 2H13.4995V-0.86299L11.1456 0.766745L11.9995 2ZM15.9994 6C14.5762 5.52619 14.5764 5.52557 14.5766 5.52496C14.5766 5.52476 14.5769 5.52415 14.577 5.52375C14.5773 5.52296 14.5775 5.52218 14.5778 5.52143C14.5783 5.51992 14.5788 5.5185 14.5792 5.51715C14.5801 5.51445 14.581 5.51206 14.5817 5.50998C14.5831 5.50581 14.5842 5.50283 14.5849 5.50097C14.5863 5.49726 14.5861 5.49786 14.5844 5.50213C14.5808 5.51095 14.5715 5.53307 14.5561 5.56394C14.5235 5.62903 14.4741 5.71252 14.4097 5.78988C14.2901 5.9334 14.1782 6 13.9995 6V9C15.3213 9 16.2093 8.3166 16.7146 7.71012C16.9625 7.41248 17.1317 7.12097 17.2397 6.90481C17.2946 6.79505 17.336 6.69999 17.3656 6.62677C17.3805 6.59003 17.3925 6.5584 17.4019 6.53272C17.4066 6.51987 17.4107 6.50847 17.4141 6.49863C17.4158 6.49371 17.4174 6.48917 17.4188 6.48503C17.4195 6.48296 17.4202 6.48099 17.4208 6.47912C17.4211 6.47818 17.4214 6.47727 17.4217 6.47639C17.4219 6.47594 17.4221 6.4753 17.4222 6.47508C17.4224 6.47444 17.4226 6.47381 15.9994 6ZM13.9995 6C13.8642 6 13.8097 5.97699 13.8019 5.97356C13.7976 5.97165 13.7923 5.97038 13.7767 5.95189C13.7245 5.89039 13.6161 5.6991 13.5417 5.25331C13.4703 4.82512 13.4529 4.30711 13.4603 3.72225C13.4664 3.24655 13.4995 2.46302 13.4995 2H10.4995C10.4995 2.53698 10.4701 2.94095 10.4606 3.684C10.4525 4.31789 10.4664 5.04988 10.5826 5.74669C10.6958 6.4259 10.9311 7.23461 11.4883 7.89186C12.103 8.61698 12.9741 9 13.9995 9V6ZM11.9998 23.5C17.8161 23.5 21.4993 18.7184 21.4993 14H18.4993C18.4993 17.2816 15.9474 20.5 11.9998 20.5V23.5ZM21.4993 14C21.4993 9.87101 19.1196 6.99825 17.0599 4.93917L14.9389 7.06083C16.8804 9.00175 18.4993 11.129 18.4993 14H21.4993ZM11.1456 0.766745C7.77485 3.10053 5.60034 5.37295 4.27263 7.60922C2.93207 9.86714 2.5 12.0127 2.5 14H5.5C5.5 12.4873 5.81793 10.8829 6.85223 9.14078C7.89938 7.37705 9.7246 5.39947 12.8533 3.23325L11.1456 0.766745ZM2.5 14C2.5 18.7364 6.33798 23.5 11.9998 23.5V20.5C8.173 20.5 5.5 17.2636 5.5 14H2.5Z" fill="#110529" mask="url(#path-1-inside-1_5037_56374)"/>
<mask id="path-3-inside-2_5037_56374" fill="white">
<path d="M16 18C16 16.0952 14.5 14 12 12C9.5 14 8 16.0952 8 18C8 19.9048 9.5 22 12 22C14.5 22 16 19.9048 16 18Z"/>
</mask>
<path d="M12 12L12.937 10.8287L12 10.0791L11.063 10.8287L12 12ZM11.063 13.1713C12.2363 14.11 13.1184 15.0273 13.6968 15.8787C14.2782 16.7344 14.5 17.4434 14.5 18H17.5C17.5 16.6518 16.9718 15.3608 16.1782 14.1927C15.3816 13.0203 14.2637 11.89 12.937 10.8287L11.063 13.1713ZM14.5 18C14.5 19.2251 13.5303 20.5 12 20.5V23.5C15.4697 23.5 17.5 20.5845 17.5 18H14.5ZM12 20.5C10.4697 20.5 9.5 19.2251 9.5 18H6.5C6.5 20.5845 8.53029 23.5 12 23.5V20.5ZM9.5 18C9.5 17.4434 9.72183 16.7344 10.3032 15.8787C10.8816 15.0273 11.7637 14.11 12.937 13.1713L11.063 10.8287C9.73631 11.89 8.61837 13.0203 7.82177 14.1927C7.02817 15.3608 6.5 16.6518 6.5 18H9.5Z" fill="#110529" mask="url(#path-3-inside-2_5037_56374)"/>
</svg>
