<svg width="24" height="24" viewBox="0 0 24 24" fill="none" xmlns="http://www.w3.org/2000/svg">
<path fill-rule="evenodd" clip-rule="evenodd" d="M18.3578 4.32112C18.2104 4.39482 18.2104 4.60518 18.3578 4.67889L18.9404 4.97019C18.9791 4.98954 19.0105 5.02092 19.0298 5.05963L19.3211 5.64223C19.3948 5.78964 19.6052 5.78964 19.6789 5.64223L19.9702 5.05963C19.9895 5.02092 20.0209 4.98954 20.0596 4.97019L20.6422 4.67889C20.7896 4.60518 20.7896 4.39482 20.6422 4.32112L20.0596 4.02982C20.0209 4.01046 19.9895 3.97908 19.9702 3.94037L19.6789 3.35777C19.6052 3.21036 19.3948 3.21036 19.3211 3.35777L19.0298 3.94037C19.0105 3.97908 18.9791 4.01046 18.9404 4.02982L18.3578 4.32112ZM18.2083 16.2099C17.5036 16.3991 16.7631 16.5 16 16.5C11.3056 16.5 7.5 12.6944 7.5 8C7.5 7.23686 7.60088 6.4964 7.79006 5.79169C5.80401 7.14138 4.5 9.41947 4.5 12C4.5 16.1421 7.85786 19.5 12 19.5C14.5805 19.5 16.8586 18.196 18.2083 16.2099ZM19.1573 14.2492C18.2087 14.7294 17.136 15 16 15C12.134 15 9 11.866 9 8C9 6.86405 9.27058 5.79129 9.75081 4.84267L9.77821 4.78912C9.83867 4.6722 9.90234 4.55719 9.96908 4.44423C10.0299 4.34128 10.0933 4.24002 10.1592 4.14055C10.4192 3.74773 10.1191 3.18416 9.66405 3.30612C9.48653 3.3537 9.31118 3.40657 9.13817 3.46455C9.01891 3.50452 8.90077 3.54692 8.7838 3.59169C8.76089 3.60045 8.73803 3.60931 8.71521 3.61826C5.3692 4.93057 3 8.18861 3 12C3 16.9706 7.02944 21 12 21C15.8114 21 19.0694 18.6308 20.3817 15.2848C20.3907 15.262 20.3995 15.2391 20.4083 15.2162C20.4531 15.0992 20.4955 14.9811 20.5354 14.8618C20.5934 14.6888 20.6463 14.5135 20.6939 14.3359C20.8158 13.8809 20.2523 13.5808 19.8595 13.8408C19.76 13.9067 19.6587 13.9701 19.5558 14.0309C19.4428 14.0977 19.3278 14.1613 19.2109 14.2218L19.1573 14.2492ZM16.4602 7.40052L15.7321 5.5803C15.6483 5.37076 15.3517 5.37076 15.2679 5.5803L14.5398 7.40052C14.5144 7.46405 14.464 7.51438 14.4005 7.53979L12.5803 8.26788C12.3708 8.3517 12.3708 8.64831 12.5803 8.73212L14.4005 9.46021C14.464 9.48562 14.5144 9.53596 14.5398 9.59948L15.2679 11.4197C15.3517 11.6292 15.6483 11.6292 15.7321 11.4197L16.4602 9.59948C16.4856 9.53596 16.536 9.48562 16.5995 9.46021L18.4197 8.73212C18.6292 8.64831 18.6292 8.3517 18.4197 8.26788L16.5995 7.53979C16.536 7.51438 16.4856 7.46405 16.4602 7.40052Z" fill="white"/>
</svg>
