<svg width="24" height="24" viewBox="0 0 24 24" fill="none" xmlns="http://www.w3.org/2000/svg">
<path fill-rule="evenodd" clip-rule="evenodd" d="M12.75 3V0H11.25V3H12.75ZM12.75 24V21H11.25V24H12.75ZM3 12.75H0V11.25H3V12.75ZM21 12.75H24V11.25H21V12.75ZM12 16.5C14.4853 16.5 16.5 14.4853 16.5 12C16.5 9.51472 14.4853 7.5 12 7.5C9.51472 7.5 7.5 9.51472 7.5 12C7.5 14.4853 9.51472 16.5 12 16.5ZM12 18C15.3137 18 18 15.3137 18 12C18 8.68629 15.3137 6 12 6C8.68629 6 6 8.68629 6 12C6 15.3137 8.68629 18 12 18ZM21.0156 4.04506L18.8943 6.16638L17.8336 5.10572L19.955 2.9844L21.0156 4.04506ZM5.10571 17.8336L6.16637 18.8943L4.04505 21.0156L2.98439 19.955L5.10571 17.8336ZM2.98439 4.04506L5.10571 6.16638L6.16637 5.10572L4.04505 2.9844L2.98439 4.04506ZM21.0156 19.955L19.955 21.0156L17.8336 18.8943L18.8943 17.8336L21.0156 19.955Z" fill="white"/>
</svg>
