<svg width="960" height="376" viewBox="0 0 960 376" fill="none" xmlns="http://www.w3.org/2000/svg">
    <rect width="960" height="376" fill="#1D1D29"/>
    <path d="M390 180L389.293 180.707L388.586 180L389.293 179.293L390 180ZM397.293 171.293L398 170.586L399.414 172L398.707 172.707L397.293 171.293ZM398.707 187.293L399.414 188L398 189.414L397.293 188.707L398.707 187.293ZM400 181L390 181L390 179L400 179L400 181ZM389.293 179.293L397.293 171.293L398.707 172.707L390.707 180.707L389.293 179.293ZM390.707 179.293L398.707 187.293L397.293 188.707L389.293 180.707L390.707 179.293Z" fill="#D3D7E0"/>
    <path d="M593.5 180H400" stroke="#D3D7E0" stroke-width="2"/>
    <rect width="57" height="20" transform="translate(593.5 170)" fill="#1D1D29"/>
    <path d="M598.933 185.992H606.589V184.632H601.125L604.837 181.296C606.021 180.248 606.589 179.488 606.589 177.976C606.589 175.856 604.973 174.24 602.837 174.24C600.621 174.24 598.989 175.784 598.989 177.952H600.445C600.429 176.696 601.437 175.6 602.813 175.6C604.141 175.6 605.133 176.632 605.133 177.96C605.133 178.688 604.901 179.352 604.053 180.112L598.941 184.712L598.933 185.992ZM611.911 186.24C614.055 186.24 615.871 184.504 615.871 182.376C615.871 180.232 614.247 178.584 612.111 178.584C611.335 178.584 610.559 178.848 609.959 179.328L610.167 175.832H615.071V174.48H608.887L608.535 180.504L609.799 180.984C610.215 180.384 610.935 179.896 611.951 179.896C613.295 179.896 614.439 180.984 614.439 182.376C614.439 183.728 613.351 184.856 611.951 184.856C610.879 184.856 609.839 184.144 609.551 183.008L608.183 183.376C608.647 185.056 610.127 186.24 611.911 186.24ZM621.672 186.24C623.912 186.24 625.56 184.592 625.56 182.352V178.128C625.56 175.888 623.912 174.24 621.672 174.24C619.432 174.24 617.784 175.888 617.784 178.128V182.352C617.784 184.592 619.432 186.24 621.672 186.24ZM619.232 182.432V178.04C619.232 176.688 620.32 175.6 621.672 175.6C623.024 175.6 624.112 176.688 624.112 178.04V182.432C624.112 183.784 623.024 184.872 621.672 184.872C620.32 184.872 619.232 183.784 619.232 182.432ZM631.768 186.24C634.184 186.24 635.64 184.264 635.64 181.672C635.64 179.08 634.176 177.12 631.776 177.12C630.696 177.12 629.84 177.496 629.224 178.144V174.48H627.792V186H629.064V185.024C629.696 185.784 630.6 186.24 631.768 186.24ZM629.064 181.672C629.064 179.76 629.864 178.424 631.552 178.424C633.312 178.424 634.128 179.848 634.128 181.672C634.128 183.512 633.296 184.936 631.592 184.936C629.848 184.936 629.064 183.568 629.064 181.672ZM641.361 186.24C643.777 186.24 645.233 184.264 645.233 181.672C645.233 179.08 643.769 177.12 641.369 177.12C640.193 177.12 639.289 177.568 638.657 178.328V177.36H637.385V189.84H638.817V185.2C639.433 185.856 640.289 186.24 641.361 186.24ZM638.657 181.672C638.657 179.76 639.457 178.424 641.145 178.424C642.905 178.424 643.721 179.848 643.721 181.672C643.721 183.512 642.889 184.936 641.185 184.936C639.441 184.936 638.657 183.568 638.657 181.672Z" fill="white"/>
    <path d="M844 180H650.5" stroke="#D3D7E0" stroke-width="2"/>
    <path d="M851.12 186H852.544V181.744H855.912L857.976 186H859.608L857.384 181.432C858.688 180.888 859.368 179.632 859.368 178.112C859.368 176.28 858.384 174.832 856.52 174.544C856.224 174.496 855.896 174.48 855.672 174.48H851.12V186ZM852.544 180.392V175.832H855.624C855.824 175.832 856.104 175.848 856.344 175.904C857.448 176.152 857.912 177.152 857.912 178.112C857.912 179.072 857.448 180.072 856.344 180.32C856.104 180.376 855.824 180.392 855.624 180.392H852.544ZM861.05 185.992H868.706V184.632H863.242L866.954 181.296C868.138 180.248 868.706 179.488 868.706 177.976C868.706 175.856 867.09 174.24 864.954 174.24C862.738 174.24 861.106 175.784 861.106 177.952H862.562C862.546 176.696 863.554 175.6 864.93 175.6C866.258 175.6 867.25 176.632 867.25 177.96C867.25 178.688 867.018 179.352 866.17 180.112L861.058 184.712L861.05 185.992Z" fill="white"/>
    <rect x="844" y="168" width="32" height="24" rx="1" stroke="#D3D7E0" stroke-width="2"/>
    <path d="M316 340L315.293 340.707L314.586 340L315.293 339.293L316 340ZM323.293 331.293L324 330.586L325.414 332L324.707 332.707L323.293 331.293ZM324.707 347.293L325.414 348L324 349.414L323.293 348.707L324.707 347.293ZM326 341L316 341L316 339L326 339L326 341ZM315.293 339.293L323.293 331.293L324.707 332.707L316.707 340.707L315.293 339.293ZM316.707 339.293L324.707 347.293L323.293 348.707L315.293 340.707L316.707 339.293Z" fill="#D3D7E0"/>
    <path d="M519.5 340H326" stroke="#D3D7E0" stroke-width="2"/>
    <rect width="57" height="20" transform="translate(519.5 330)" fill="#1D1D29"/>
    <path d="M524.933 345.992H532.589V344.632H527.125L530.837 341.296C532.021 340.248 532.589 339.488 532.589 337.976C532.589 335.856 530.973 334.24 528.837 334.24C526.621 334.24 524.989 335.784 524.989 337.952H526.445C526.429 336.696 527.437 335.6 528.813 335.6C530.141 335.6 531.133 336.632 531.133 337.96C531.133 338.688 530.901 339.352 530.053 340.112L524.941 344.712L524.933 345.992ZM537.911 346.24C540.055 346.24 541.871 344.504 541.871 342.376C541.871 340.232 540.247 338.584 538.111 338.584C537.335 338.584 536.559 338.848 535.959 339.328L536.167 335.832H541.071V334.48H534.887L534.535 340.504L535.799 340.984C536.215 340.384 536.935 339.896 537.951 339.896C539.295 339.896 540.439 340.984 540.439 342.376C540.439 343.728 539.351 344.856 537.951 344.856C536.879 344.856 535.839 344.144 535.551 343.008L534.183 343.376C534.647 345.056 536.127 346.24 537.911 346.24ZM547.672 346.24C549.912 346.24 551.56 344.592 551.56 342.352V338.128C551.56 335.888 549.912 334.24 547.672 334.24C545.432 334.24 543.784 335.888 543.784 338.128V342.352C543.784 344.592 545.432 346.24 547.672 346.24ZM545.232 342.432V338.04C545.232 336.688 546.32 335.6 547.672 335.6C549.024 335.6 550.112 336.688 550.112 338.04V342.432C550.112 343.784 549.024 344.872 547.672 344.872C546.32 344.872 545.232 343.784 545.232 342.432ZM557.768 346.24C560.184 346.24 561.64 344.264 561.64 341.672C561.64 339.08 560.176 337.12 557.776 337.12C556.696 337.12 555.84 337.496 555.224 338.144V334.48H553.792V346H555.064V345.024C555.696 345.784 556.6 346.24 557.768 346.24ZM555.064 341.672C555.064 339.76 555.864 338.424 557.552 338.424C559.312 338.424 560.128 339.848 560.128 341.672C560.128 343.512 559.296 344.936 557.592 344.936C555.848 344.936 555.064 343.568 555.064 341.672ZM567.361 346.24C569.777 346.24 571.233 344.264 571.233 341.672C571.233 339.08 569.769 337.12 567.369 337.12C566.193 337.12 565.289 337.568 564.657 338.328V337.36H563.385V349.84H564.817V345.2C565.433 345.856 566.289 346.24 567.361 346.24ZM564.657 341.672C564.657 339.76 565.457 338.424 567.145 338.424C568.905 338.424 569.721 339.848 569.721 341.672C569.721 343.512 568.889 344.936 567.185 344.936C565.441 344.936 564.657 343.568 564.657 341.672Z" fill="white"/>
    <path d="M770 340H576.5" stroke="#D3D7E0" stroke-width="2"/>
    <path d="M777.12 346H778.544V341.744H781.912L783.976 346H785.608L783.384 341.432C784.688 340.888 785.368 339.632 785.368 338.112C785.368 336.28 784.384 334.832 782.52 334.544C782.224 334.496 781.896 334.48 781.672 334.48H777.12V346ZM778.544 340.392V335.832H781.624C781.824 335.832 782.104 335.848 782.344 335.904C783.448 336.152 783.912 337.152 783.912 338.112C783.912 339.072 783.448 340.072 782.344 340.32C782.104 340.376 781.824 340.392 781.624 340.392H778.544ZM787.05 345.992H794.706V344.632H789.242L792.954 341.296C794.138 340.248 794.706 339.488 794.706 337.976C794.706 335.856 793.09 334.24 790.954 334.24C788.738 334.24 787.106 335.784 787.106 337.952H788.562C788.546 336.696 789.554 335.6 790.93 335.6C792.258 335.6 793.25 336.632 793.25 337.96C793.25 338.688 793.018 339.352 792.17 340.112L787.058 344.712L787.05 345.992Z" fill="white"/>
    <rect x="770" y="328" width="32" height="24" rx="1" stroke="#D3D7E0" stroke-width="2"/>
    <path d="M156.62 162H158.044V157.744H161.412L163.476 162H165.108L162.884 157.432C164.188 156.888 164.868 155.632 164.868 154.112C164.868 152.28 163.884 150.832 162.02 150.544C161.724 150.496 161.396 150.48 161.172 150.48H156.62V162ZM158.044 156.392V151.832H161.124C161.324 151.832 161.604 151.848 161.844 151.904C162.948 152.152 163.412 153.152 163.412 154.112C163.412 155.072 162.948 156.072 161.844 156.32C161.604 156.376 161.324 156.392 161.124 156.392H158.044ZM168.878 162H170.326V150.48H168.878L166.71 151.776V153.368L168.878 152.056V162Z" fill="white"/>
    <rect x="148" y="144" width="32" height="24" rx="1" stroke="#D3D7E0" stroke-width="2"/>
    <path d="M338 156H180" stroke="#D3D7E0" stroke-width="2"/>
    <rect width="56" height="20" transform="translate(338 146)" fill="#1D1D29"/>
    <path d="M342.933 161.992H350.589V160.632H345.125L348.837 157.296C350.021 156.248 350.589 155.488 350.589 153.976C350.589 151.856 348.973 150.24 346.837 150.24C344.621 150.24 342.989 151.784 342.989 153.952H344.445C344.429 152.696 345.437 151.6 346.813 151.6C348.141 151.6 349.133 152.632 349.133 153.96C349.133 154.688 348.901 155.352 348.053 156.112L342.941 160.712L342.933 161.992ZM355.911 162.24C358.055 162.24 359.871 160.504 359.871 158.376C359.871 156.232 358.247 154.584 356.111 154.584C355.335 154.584 354.559 154.848 353.959 155.328L354.167 151.832H359.071V150.48H352.887L352.535 156.504L353.799 156.984C354.215 156.384 354.935 155.896 355.951 155.896C357.295 155.896 358.439 156.984 358.439 158.376C358.439 159.728 357.351 160.856 355.951 160.856C354.879 160.856 353.839 160.144 353.551 159.008L352.183 159.376C352.647 161.056 354.127 162.24 355.911 162.24ZM365.672 162.24C367.912 162.24 369.56 160.592 369.56 158.352V154.128C369.56 151.888 367.912 150.24 365.672 150.24C363.432 150.24 361.784 151.888 361.784 154.128V158.352C361.784 160.592 363.432 162.24 365.672 162.24ZM363.232 158.432V154.04C363.232 152.688 364.32 151.6 365.672 151.6C367.024 151.6 368.112 152.688 368.112 154.04V158.432C368.112 159.784 367.024 160.872 365.672 160.872C364.32 160.872 363.232 159.784 363.232 158.432ZM375.768 162.24C378.184 162.24 379.64 160.264 379.64 157.672C379.64 155.08 378.176 153.12 375.776 153.12C374.696 153.12 373.84 153.496 373.224 154.144V150.48H371.792V162H373.064V161.024C373.696 161.784 374.6 162.24 375.768 162.24ZM373.064 157.672C373.064 155.76 373.864 154.424 375.552 154.424C377.312 154.424 378.128 155.848 378.128 157.672C378.128 159.512 377.296 160.936 375.592 160.936C373.848 160.936 373.064 159.568 373.064 157.672ZM385.361 162.24C387.777 162.24 389.233 160.264 389.233 157.672C389.233 155.08 387.769 153.12 385.369 153.12C384.193 153.12 383.289 153.568 382.657 154.328V153.36H381.385V165.84H382.817V161.2C383.433 161.856 384.289 162.24 385.361 162.24ZM382.657 157.672C382.657 155.76 383.457 154.424 385.145 154.424C386.905 154.424 387.721 155.848 387.721 157.672C387.721 159.512 386.889 160.936 385.185 160.936C383.441 160.936 382.657 159.568 382.657 157.672Z" fill="white"/>
    <path d="M552 156H394" stroke="#D3D7E0" stroke-width="2"/>
    <path d="M562 156L562.707 155.293L563.414 156L562.707 156.707L562 156ZM554.707 164.707L554 165.414L552.586 164L553.293 163.293L554.707 164.707ZM553.293 148.707L552.586 148L554 146.586L554.707 147.293L553.293 148.707ZM552 155L562 155L562 157L552 157L552 155ZM562.707 156.707L554.707 164.707L553.293 163.293L561.293 155.293L562.707 156.707ZM561.293 156.707L553.293 148.707L554.707 147.293L562.707 155.293L561.293 156.707Z" fill="#D3D7E0"/>
    <path d="M158.62 322H160.044V317.744H163.412L165.476 322H167.108L164.884 317.432C166.188 316.888 166.868 315.632 166.868 314.112C166.868 312.28 165.884 310.832 164.02 310.544C163.724 310.496 163.396 310.48 163.172 310.48H158.62V322ZM160.044 316.392V311.832H163.124C163.324 311.832 163.604 311.848 163.844 311.904C164.948 312.152 165.412 313.152 165.412 314.112C165.412 315.072 164.948 316.072 163.844 316.32C163.604 316.376 163.324 316.392 163.124 316.392H160.044ZM170.878 322H172.326V310.48H170.878L168.71 311.776V313.368L170.878 312.056V322Z" fill="white"/>
    <rect x="150" y="304" width="32" height="24" rx="1" stroke="#D3D7E0" stroke-width="2"/>
    <path d="M340 316H182" stroke="#D3D7E0" stroke-width="2"/>
    <rect width="56" height="20" transform="translate(340 306)" fill="#1D1D29"/>
    <path d="M344.933 321.992H352.589V320.632H347.125L350.837 317.296C352.021 316.248 352.589 315.488 352.589 313.976C352.589 311.856 350.973 310.24 348.837 310.24C346.621 310.24 344.989 311.784 344.989 313.952H346.445C346.429 312.696 347.437 311.6 348.813 311.6C350.141 311.6 351.133 312.632 351.133 313.96C351.133 314.688 350.901 315.352 350.053 316.112L344.941 320.712L344.933 321.992ZM357.911 322.24C360.055 322.24 361.871 320.504 361.871 318.376C361.871 316.232 360.247 314.584 358.111 314.584C357.335 314.584 356.559 314.848 355.959 315.328L356.167 311.832H361.071V310.48H354.887L354.535 316.504L355.799 316.984C356.215 316.384 356.935 315.896 357.951 315.896C359.295 315.896 360.439 316.984 360.439 318.376C360.439 319.728 359.351 320.856 357.951 320.856C356.879 320.856 355.839 320.144 355.551 319.008L354.183 319.376C354.647 321.056 356.127 322.24 357.911 322.24ZM367.672 322.24C369.912 322.24 371.56 320.592 371.56 318.352V314.128C371.56 311.888 369.912 310.24 367.672 310.24C365.432 310.24 363.784 311.888 363.784 314.128V318.352C363.784 320.592 365.432 322.24 367.672 322.24ZM365.232 318.432V314.04C365.232 312.688 366.32 311.6 367.672 311.6C369.024 311.6 370.112 312.688 370.112 314.04V318.432C370.112 319.784 369.024 320.872 367.672 320.872C366.32 320.872 365.232 319.784 365.232 318.432ZM377.768 322.24C380.184 322.24 381.64 320.264 381.64 317.672C381.64 315.08 380.176 313.12 377.776 313.12C376.696 313.12 375.84 313.496 375.224 314.144V310.48H373.792V322H375.064V321.024C375.696 321.784 376.6 322.24 377.768 322.24ZM375.064 317.672C375.064 315.76 375.864 314.424 377.552 314.424C379.312 314.424 380.128 315.848 380.128 317.672C380.128 319.512 379.296 320.936 377.592 320.936C375.848 320.936 375.064 319.568 375.064 317.672ZM387.361 322.24C389.777 322.24 391.233 320.264 391.233 317.672C391.233 315.08 389.769 313.12 387.369 313.12C386.193 313.12 385.289 313.568 384.657 314.328V313.36H383.385V325.84H384.817V321.2C385.433 321.856 386.289 322.24 387.361 322.24ZM384.657 317.672C384.657 315.76 385.457 314.424 387.145 314.424C388.905 314.424 389.721 315.848 389.721 317.672C389.721 319.512 388.889 320.936 387.185 320.936C385.441 320.936 384.657 319.568 384.657 317.672Z" fill="white"/>
    <path d="M554 316H396" stroke="#D3D7E0" stroke-width="2"/>
    <path d="M564 316L564.707 315.293L565.414 316L564.707 316.707L564 316ZM556.707 324.707L556 325.414L554.586 324L555.293 323.293L556.707 324.707ZM555.293 308.707L554.586 308L556 306.586L556.707 307.293L555.293 308.707ZM554 315L564 315L564 317L554 317L554 315ZM564.707 316.707L556.707 324.707L555.293 323.293L563.293 315.293L564.707 316.707ZM563.293 316.707L555.293 308.707L556.707 307.293L564.707 315.293L563.293 316.707Z" fill="#D3D7E0"/>
    <path d="M135 84V24" stroke="white" stroke-opacity="0.3" stroke-width="2" stroke-linecap="square" stroke-dasharray="6 6"/>
    <path d="M158.442 37H164.469V35.621H159.905V26.92H158.442V37Z" fill="white" fill-opacity="0.3"/>
    <path d="M187 84V24" stroke="white" stroke-opacity="0.3" stroke-width="2" stroke-linecap="square" stroke-dasharray="6 6"/>
    <path d="M214.858 37H216.321V32.695H219.989V31.225H216.321V28.383H220.829V26.92H214.858V37ZM222.09 37H223.553V33.381H226.227L227.984 37H229.657L227.753 33.094C228.894 32.597 229.468 31.491 229.468 30.147C229.468 28.516 228.628 27.235 226.941 26.976C226.675 26.934 226.36 26.92 226.164 26.92H222.09V37ZM223.553 31.995V28.299H226.108C226.29 28.299 226.535 28.313 226.745 28.369C227.641 28.579 227.977 29.405 227.977 30.147C227.977 30.889 227.641 31.715 226.745 31.932C226.535 31.981 226.29 31.995 226.108 31.995H223.553ZM232.953 37H234.444V26.92H232.953L231.056 28.054V29.685L232.953 28.53V37Z" fill="white" fill-opacity="0.3"/>
    <path d="M263 84V24" stroke="white" stroke-opacity="0.3" stroke-width="2" stroke-linecap="square" stroke-dasharray="6 6"/>
    <path d="M288.735 37.21C291.059 37.21 292.62 35.943 293.215 33.955L291.731 33.556C291.332 34.963 290.331 35.817 288.735 35.817C286.593 35.817 285.501 34.27 285.515 31.96C285.522 29.65 286.593 28.103 288.735 28.103C290.331 28.103 291.332 28.957 291.731 30.364L293.215 29.965C292.62 27.977 291.059 26.71 288.735 26.71C285.711 26.71 283.968 28.845 283.968 31.96C283.968 35.075 285.711 37.21 288.735 37.21ZM294.754 37H297.911C298.093 37 298.695 37 299.164 36.937C301.53 36.636 302.79 34.529 302.79 31.96C302.79 29.391 301.53 27.284 299.164 26.983C298.695 26.92 298.093 26.92 297.911 26.92H294.754V37ZM296.252 35.607V28.313H297.911C298.219 28.313 298.723 28.32 299.059 28.383C300.571 28.663 301.236 30.189 301.236 31.96C301.236 33.689 300.599 35.243 299.059 35.537C298.723 35.6 298.233 35.607 297.911 35.607H296.252ZM304.42 37H305.883V33.381H308.557L310.314 37H311.987L310.083 33.094C311.224 32.597 311.798 31.491 311.798 30.147C311.798 28.516 310.958 27.235 309.271 26.976C309.005 26.934 308.69 26.92 308.494 26.92H304.42V37ZM305.883 31.995V28.299H308.438C308.62 28.299 308.865 28.313 309.075 28.369C309.971 28.579 310.307 29.405 310.307 30.147C310.307 30.889 309.971 31.715 309.075 31.932C308.865 31.981 308.62 31.995 308.438 31.995H305.883ZM315.283 37H316.774V26.92H315.283L313.386 28.054V29.685L315.283 28.53V37Z" fill="white" fill-opacity="0.3"/>
    <path d="M339 84V24" stroke="white" stroke-opacity="0.3" stroke-width="2" stroke-linecap="square" stroke-dasharray="6 6"/>
    <path d="M365.703 37H367.166V32.695H370.834V31.225H367.166V28.383H371.674V26.92H365.703V37ZM372.935 37H374.398V33.381H377.072L378.829 37H380.502L378.598 33.094C379.739 32.597 380.313 31.491 380.313 30.147C380.313 28.516 379.473 27.235 377.786 26.976C377.52 26.934 377.205 26.92 377.009 26.92H372.935V37ZM374.398 31.995V28.299H376.953C377.135 28.299 377.38 28.313 377.59 28.369C378.486 28.579 378.822 29.405 378.822 30.147C378.822 30.889 378.486 31.715 377.59 31.932C377.38 31.981 377.135 31.995 376.953 31.995H374.398ZM381.761 36.993H388.579V35.6H384.022L386.941 32.996C388.033 32.037 388.579 31.407 388.579 30.028C388.579 28.117 387.144 26.71 385.24 26.71C383.231 26.71 381.796 28.047 381.796 30H383.294C383.28 28.985 384.092 28.103 385.212 28.103C386.297 28.103 387.074 28.929 387.074 30.007C387.074 30.581 386.864 31.127 386.157 31.757L381.768 35.691L381.761 36.993Z" fill="white" fill-opacity="0.3"/>
    <path d="M415 84V24" stroke="white" stroke-opacity="0.3" stroke-width="2" stroke-linecap="square" stroke-dasharray="6 6"/>
    <path d="M439.58 37.21C441.904 37.21 443.465 35.943 444.06 33.955L442.576 33.556C442.177 34.963 441.176 35.817 439.58 35.817C437.438 35.817 436.346 34.27 436.36 31.96C436.367 29.65 437.438 28.103 439.58 28.103C441.176 28.103 442.177 28.957 442.576 30.364L444.06 29.965C443.465 27.977 441.904 26.71 439.58 26.71C436.556 26.71 434.813 28.845 434.813 31.96C434.813 35.075 436.556 37.21 439.58 37.21ZM445.599 37H448.756C448.938 37 449.54 37 450.009 36.937C452.375 36.636 453.635 34.529 453.635 31.96C453.635 29.391 452.375 27.284 450.009 26.983C449.54 26.92 448.938 26.92 448.756 26.92H445.599V37ZM447.097 35.607V28.313H448.756C449.064 28.313 449.568 28.32 449.904 28.383C451.416 28.663 452.081 30.189 452.081 31.96C452.081 33.689 451.444 35.243 449.904 35.537C449.568 35.6 449.078 35.607 448.756 35.607H447.097ZM455.265 37H456.728V33.381H459.402L461.159 37H462.832L460.928 33.094C462.069 32.597 462.643 31.491 462.643 30.147C462.643 28.516 461.803 27.235 460.116 26.976C459.85 26.934 459.535 26.92 459.339 26.92H455.265V37ZM456.728 31.995V28.299H459.283C459.465 28.299 459.71 28.313 459.92 28.369C460.816 28.579 461.152 29.405 461.152 30.147C461.152 30.889 460.816 31.715 459.92 31.932C459.71 31.981 459.465 31.995 459.283 31.995H456.728ZM464.091 36.993H470.909V35.6H466.352L469.271 32.996C470.363 32.037 470.909 31.407 470.909 30.028C470.909 28.117 469.474 26.71 467.57 26.71C465.561 26.71 464.126 28.047 464.126 30H465.624C465.61 28.985 466.422 28.103 467.542 28.103C468.627 28.103 469.404 28.929 469.404 30.007C469.404 30.581 469.194 31.127 468.487 31.757L464.098 35.691L464.091 36.993Z" fill="white" fill-opacity="0.3"/>
    <path d="M491 84V24" stroke="white" stroke-opacity="0.3" stroke-width="2" stroke-linecap="square" stroke-dasharray="6 6"/>
    <path d="M517.805 37H519.268V32.695H522.936V31.225H519.268V28.383H523.776V26.92H517.805V37ZM525.038 37H526.501V33.381H529.175L530.932 37H532.605L530.701 33.094C531.842 32.597 532.416 31.491 532.416 30.147C532.416 28.516 531.576 27.235 529.889 26.976C529.623 26.934 529.308 26.92 529.112 26.92H525.038V37ZM526.501 31.995V28.299H529.056C529.238 28.299 529.483 28.313 529.693 28.369C530.589 28.579 530.925 29.405 530.925 30.147C530.925 30.889 530.589 31.715 529.693 31.932C529.483 31.981 529.238 31.995 529.056 31.995H526.501ZM536.964 37.189C538.847 37.189 540.331 35.796 540.331 33.871C540.331 32.233 539.323 30.924 537.692 30.707L540.184 28.313V26.92H534.122V28.313H538.392L535.312 31.036L535.998 32.191C536.285 32.037 536.628 31.939 536.95 31.939C538.07 31.939 538.833 32.751 538.833 33.871C538.833 34.984 538.07 35.789 536.964 35.803C536.138 35.81 535.403 35.341 535.137 34.466L533.723 34.858C534.15 36.293 535.466 37.189 536.964 37.189Z" fill="white" fill-opacity="0.3"/>
    <path d="M567 84V24" stroke="white" stroke-opacity="0.3" stroke-width="2" stroke-linecap="square" stroke-dasharray="6 6"/>
    <path d="M618.682 37.21C621.006 37.21 622.567 35.943 623.162 33.955L621.678 33.556C621.279 34.963 620.278 35.817 618.682 35.817C616.54 35.817 615.448 34.27 615.462 31.96C615.469 29.65 616.54 28.103 618.682 28.103C620.278 28.103 621.279 28.957 621.678 30.364L623.162 29.965C622.567 27.977 621.006 26.71 618.682 26.71C615.658 26.71 613.915 28.845 613.915 31.96C613.915 35.075 615.658 37.21 618.682 37.21ZM624.702 37H627.859C628.041 37 628.643 37 629.112 36.937C631.478 36.636 632.738 34.529 632.738 31.96C632.738 29.391 631.478 27.284 629.112 26.983C628.643 26.92 628.041 26.92 627.859 26.92H624.702V37ZM626.2 35.607V28.313H627.859C628.167 28.313 628.671 28.32 629.007 28.383C630.519 28.663 631.184 30.189 631.184 31.96C631.184 33.689 630.547 35.243 629.007 35.537C628.671 35.6 628.181 35.607 627.859 35.607H626.2ZM634.368 37H635.831V33.381H638.505L640.262 37H641.935L640.031 33.094C641.172 32.597 641.746 31.491 641.746 30.147C641.746 28.516 640.906 27.235 639.219 26.976C638.953 26.934 638.638 26.92 638.442 26.92H634.368V37ZM635.831 31.995V28.299H638.386C638.568 28.299 638.813 28.313 639.023 28.369C639.919 28.579 640.255 29.405 640.255 30.147C640.255 30.889 639.919 31.715 639.023 31.932C638.813 31.981 638.568 31.995 638.386 31.995H635.831ZM646.294 37.189C648.177 37.189 649.661 35.796 649.661 33.871C649.661 32.233 648.653 30.924 647.022 30.707L649.514 28.313V26.92H643.452V28.313H647.722L644.642 31.036L645.328 32.191C645.615 32.037 645.958 31.939 646.28 31.939C647.4 31.939 648.163 32.751 648.163 33.871C648.163 34.984 647.4 35.789 646.294 35.803C645.468 35.81 644.733 35.341 644.467 34.466L643.053 34.858C643.48 36.293 644.796 37.189 646.294 37.189Z" fill="white" fill-opacity="0.3"/>
    <path d="M697 84V24" stroke="white" stroke-opacity="0.3" stroke-width="2" stroke-linecap="square" stroke-dasharray="6 6"/>
    <path d="M749.593 37H751.056V32.695H754.724V31.225H751.056V28.383H755.564V26.92H749.593V37ZM756.826 37H758.289V33.381H760.963L762.72 37H764.393L762.489 33.094C763.63 32.597 764.204 31.491 764.204 30.147C764.204 28.516 763.364 27.235 761.677 26.976C761.411 26.934 761.096 26.92 760.9 26.92H756.826V37ZM758.289 31.995V28.299H760.844C761.026 28.299 761.271 28.313 761.481 28.369C762.377 28.579 762.713 29.405 762.713 30.147C762.713 30.889 762.377 31.715 761.481 31.932C761.271 31.981 761.026 31.995 760.844 31.995H758.289ZM770.201 37H771.685V35.243H772.686V33.857H771.685V31.127H770.201V33.857H767.324L770.6 26.92H768.927L765.651 33.857V35.243H770.201V37Z" fill="white" fill-opacity="0.3"/>
    <path d="M825 84V24" stroke="white" stroke-opacity="0.3" stroke-width="2" stroke-linecap="square" stroke-dasharray="6 6"/>
    <g filter="url(#filter0_i_5876_37793)">
        <path d="M125 80H582.4C582.96 80 583.24 80 583.454 80.109C583.642 80.2049 583.795 80.3578 583.891 80.546C584 80.7599 584 81.0399 584 81.6V130.4C584 130.96 584 131.24 583.891 131.454C583.795 131.642 583.642 131.795 583.454 131.891C583.24 132 582.96 132 582.4 132H125L120 125.5L125 119L120 112L125 106L120 99.5L125 93L120 86.5L125 80Z" fill="#99E099"/>
    </g>
    <path d="M125 80H582.4C582.96 80 583.24 80 583.454 80.109C583.642 80.2049 583.795 80.3578 583.891 80.546C584 80.7599 584 81.0399 584 81.6V130.4C584 130.96 584 131.24 583.891 131.454C583.795 131.642 583.642 131.795 583.454 131.891C583.24 132 582.96 132 582.4 132H125L120 125.5L125 119L120 112L125 106L120 99.5L125 93L120 86.5L125 80Z" stroke="#110529" stroke-width="2" stroke-linecap="round"/>
    <path d="M351.258 114H353.738L358.558 99.6H356.708L352.478 112.11L348.288 99.6H346.438L351.258 114Z" fill="#110529"/>
    <g filter="url(#filter1_i_5876_37793)">
        <rect x="584" y="80" width="30" height="52" rx="1" fill="#CBEB67"/>
    </g>
    <rect x="584" y="80" width="30" height="52" rx="1" stroke="#110529" stroke-width="2" stroke-linecap="round"/>
    <g filter="url(#filter2_i_5876_37793)">
        <rect x="650" y="80" width="30" height="52" rx="1" fill="#FAAAFA"/>
    </g>
    <rect x="650" y="80" width="30" height="52" rx="1" stroke="#110529" stroke-width="2" stroke-linecap="round"/>
    <g filter="url(#filter3_i_5876_37793)">
        <rect x="614" y="80" width="36" height="52" rx="1" fill="#FFCB8F"/>
    </g>
    <rect x="614" y="80" width="36" height="52" rx="1" stroke="#110529" stroke-width="2" stroke-linecap="round"/>
    <path d="M593.447 114H595.247V102.74L602.757 114H604.557V99.6H602.757V110.85L595.247 99.6H593.447V114Z" fill="#110529"/>
    <path d="M659.447 114H661.247V102.74L668.757 114H670.557V99.6H668.757V110.85L661.247 99.6H659.447V114Z" fill="#110529"/>
    <path d="M626.593 114H631.033C631.303 114 632.183 114 632.853 113.91C636.183 113.47 637.913 110.48 637.913 106.8C637.913 103.13 636.183 100.13 632.853 99.69C632.173 99.6 631.313 99.6 631.033 99.6H626.593V114ZM628.423 112.3V101.3H631.033C631.513 101.3 632.233 101.32 632.703 101.41C635.033 101.83 636.023 104.08 636.023 106.8C636.023 109.47 635.063 111.76 632.703 112.19C632.233 112.28 631.533 112.3 631.033 112.3H628.423Z" fill="#110529"/>
    <g filter="url(#filter4_i_5876_37793)">
        <path d="M824 81.6C824 81.0399 824 80.7599 823.891 80.546C823.795 80.3578 823.642 80.2049 823.454 80.109C823.24 80 822.96 80 822.4 80H681.6C681.04 80 680.76 80 680.546 80.109C680.358 80.2049 680.205 80.3578 680.109 80.546C680 80.7599 680 81.0399 680 81.6V106V130.4C680 130.96 680 131.24 680.109 131.454C680.205 131.642 680.358 131.795 680.546 131.891C680.76 132 681.04 132 681.6 132H822.4C822.96 132 823.24 132 823.454 131.891C823.642 131.795 823.795 131.642 823.891 131.454C824 131.24 824 130.96 824 130.4V125.5V119V112V106V99.5V93V86.5V81.6Z" fill="#C1ADFF"/>
    </g>
    <path d="M824 81.6C824 81.0399 824 80.7599 823.891 80.546C823.795 80.3578 823.642 80.2049 823.454 80.109C823.24 80 822.96 80 822.4 80H681.6C681.04 80 680.76 80 680.546 80.109C680.358 80.2049 680.205 80.3578 680.109 80.546C680 80.7599 680 81.0399 680 81.6V106V130.4C680 130.96 680 131.24 680.109 131.454C680.205 131.642 680.358 131.795 680.546 131.891C680.76 132 681.04 132 681.6 132H822.4C822.96 132 823.24 132 823.454 131.891C823.642 131.795 823.795 131.642 823.891 131.454C824 131.24 824 130.96 824 130.4V125.5V119V112V106V99.5V93V86.5V81.6Z" stroke="#110529" stroke-width="2" stroke-linecap="round"/>
    <path d="M751.227 114.29C752.677 114.29 753.937 113.7 754.667 112.43C755.197 111.51 755.137 110.72 755.137 109.48V99.6H753.337V109.48C753.337 110.37 753.337 110.99 753.077 111.51C752.687 112.29 751.867 112.6 751.187 112.6C750.117 112.6 749.207 111.83 748.997 110.85L747.227 111.27C747.737 113.11 749.207 114.29 751.227 114.29Z" fill="#110529"/>
    <g filter="url(#filter5_i_5876_37793)">
        <path d="M880 80H825.6C825.04 80 824.76 80 824.546 80.109C824.358 80.2049 824.205 80.3578 824.109 80.546C824 80.7599 824 81.0399 824 81.6V130.4C824 130.96 824 131.24 824.109 131.454C824.205 131.642 824.358 131.795 824.546 131.891C824.76 132 825.04 132 825.6 132H880L875 125.5L880 119L875 112L880 106L875 99.5L880 93L875 86.5L880 80Z" fill="#FAFAAA"/>
    </g>
    <path d="M880 80H825.6C825.04 80 824.76 80 824.546 80.109C824.358 80.2049 824.205 80.3578 824.109 80.546C824 80.7599 824 81.0399 824 81.6V130.4C824 130.96 824 131.24 824.109 131.454C824.205 131.642 824.358 131.795 824.546 131.891C824.76 132 825.04 132 825.6 132H880L875 125.5L880 119L875 112L880 106L875 99.5L880 93L875 86.5L880 80Z" stroke="#110529" stroke-width="2" stroke-linecap="round"/>
    <path d="M852.093 114.3C850.66 114.3 849.443 113.983 848.443 113.35C847.443 112.717 846.68 111.837 846.153 110.71C845.633 109.583 845.373 108.28 845.373 106.8C845.373 105.32 845.633 104.017 846.153 102.89C846.68 101.763 847.443 100.883 848.443 100.25C849.443 99.6167 850.66 99.3 852.093 99.3C853.76 99.3 855.13 99.7233 856.203 100.57C857.283 101.417 858.027 102.557 858.433 103.99L856.623 104.47C856.33 103.397 855.807 102.55 855.053 101.93C854.3 101.31 853.313 101 852.093 101C851.02 101 850.127 101.243 849.413 101.73C848.7 102.217 848.163 102.897 847.803 103.77C847.443 104.637 847.26 105.647 847.253 106.8C847.247 107.947 847.423 108.957 847.783 109.83C848.143 110.697 848.683 111.377 849.403 111.87C850.123 112.357 851.02 112.6 852.093 112.6C853.313 112.6 854.3 112.29 855.053 111.67C855.807 111.043 856.33 110.197 856.623 109.13L858.433 109.61C858.027 111.037 857.283 112.177 856.203 113.03C855.13 113.877 853.76 114.3 852.093 114.3Z" fill="#110529"/>
    <path d="M44.9984 114H46.7784V99.6H44.9984V114ZM55.6089 114.3C59.8189 114.3 62.0589 111.39 62.0589 107.44C62.0589 107.32 62.0489 106.87 62.0189 106.59H57.0789V108.06H60.1389C59.9189 110.93 58.4789 112.62 55.6989 112.6C52.4789 112.58 50.8489 110.25 50.8689 106.8C50.8889 103.35 52.4789 100.99 55.6989 101.01C57.7489 101.02 59.1389 102.14 59.7489 103.88L61.5489 103.51C60.7989 100.92 58.8289 99.31 55.6089 99.31C51.5789 99.31 48.9789 102.21 48.9789 106.8C48.9789 111.44 51.6389 114.3 55.6089 114.3ZM64.0563 114H65.8363V107.64H73.4163V114H75.1963V99.6H73.4163V105.95H65.8363V99.6H64.0563V114Z" fill="white"/>
    <g filter="url(#filter6_i_5876_37793)">
        <path d="M125 240H582.4C582.96 240 583.24 240 583.454 240.109C583.642 240.205 583.795 240.358 583.891 240.546C584 240.76 584 241.04 584 241.6V290.4C584 290.96 584 291.24 583.891 291.454C583.795 291.642 583.642 291.795 583.454 291.891C583.24 292 582.96 292 582.4 292H125L120 285.5L125 279L120 272L125 266L120 259.5L125 253L120 246.5L125 240Z" fill="#99E099"/>
    </g>
    <path d="M125 240H582.4C582.96 240 583.24 240 583.454 240.109C583.642 240.205 583.795 240.358 583.891 240.546C584 240.76 584 241.04 584 241.6V290.4C584 290.96 584 291.24 583.891 291.454C583.795 291.642 583.642 291.795 583.454 291.891C583.24 292 582.96 292 582.4 292H125L120 285.5L125 279L120 272L125 266L120 259.5L125 253L120 246.5L125 240Z" stroke="#110529" stroke-width="2" stroke-linecap="round"/>
    <path d="M351.258 274H353.738L358.558 259.6H356.708L352.478 272.11L348.288 259.6H346.438L351.258 274Z" fill="#110529"/>
    <g filter="url(#filter7_i_5876_37793)">
        <rect x="584" y="240" width="30" height="52" rx="1" fill="#CBEB67"/>
    </g>
    <rect x="584" y="240" width="30" height="52" rx="1" stroke="#110529" stroke-width="2" stroke-linecap="round"/>
    <path d="M593.447 274H595.247V262.74L602.757 274H604.557V259.6H602.757V270.85L595.247 259.6H593.447V274Z" fill="#110529"/>
    <g filter="url(#filter8_i_5876_37793)">
        <path d="M758 241.6C758 241.04 758 240.76 757.891 240.546C757.795 240.358 757.642 240.205 757.454 240.109C757.24 240 756.96 240 756.4 240H615.6C615.04 240 614.76 240 614.546 240.109C614.358 240.205 614.205 240.358 614.109 240.546C614 240.76 614 241.04 614 241.6V266V290.4C614 290.96 614 291.24 614.109 291.454C614.205 291.642 614.358 291.795 614.546 291.891C614.76 292 615.04 292 615.6 292H756.4C756.96 292 757.24 292 757.454 291.891C757.642 291.795 757.795 291.642 757.891 291.454C758 291.24 758 290.96 758 290.4V285.5V279V272V266V259.5V253V246.5V241.6Z" fill="#C1ADFF"/>
    </g>
    <path d="M758 241.6C758 241.04 758 240.76 757.891 240.546C757.795 240.358 757.642 240.205 757.454 240.109C757.24 240 756.96 240 756.4 240H615.6C615.04 240 614.76 240 614.546 240.109C614.358 240.205 614.205 240.358 614.109 240.546C614 240.76 614 241.04 614 241.6V266V290.4C614 290.96 614 291.24 614.109 291.454C614.205 291.642 614.358 291.795 614.546 291.891C614.76 292 615.04 292 615.6 292H756.4C756.96 292 757.24 292 757.454 291.891C757.642 291.795 757.795 291.642 757.891 291.454C758 291.24 758 290.96 758 290.4V285.5V279V272V266V259.5V253V246.5V241.6Z" stroke="#110529" stroke-width="2" stroke-linecap="round"/>
    <g filter="url(#filter9_i_5876_37793)">
        <path d="M814 240H759.6C759.04 240 758.76 240 758.546 240.109C758.358 240.205 758.205 240.358 758.109 240.546C758 240.76 758 241.04 758 241.6V290.4C758 290.96 758 291.24 758.109 291.454C758.205 291.642 758.358 291.795 758.546 291.891C758.76 292 759.04 292 759.6 292H814L809 285.5L814 279L809 272L814 266L809 259.5L814 253L809 246.5L814 240Z" fill="#FAFAAA"/>
    </g>
    <path d="M814 240H759.6C759.04 240 758.76 240 758.546 240.109C758.358 240.205 758.205 240.358 758.109 240.546C758 240.76 758 241.04 758 241.6V290.4C758 290.96 758 291.24 758.109 291.454C758.205 291.642 758.358 291.795 758.546 291.891C758.76 292 759.04 292 759.6 292H814L809 285.5L814 279L809 272L814 266L809 259.5L814 253L809 246.5L814 240Z" stroke="#110529" stroke-width="2" stroke-linecap="round"/>
    <path d="M786.593 274.3C789.923 274.3 792.113 272.47 792.933 269.61L791.123 269.13C790.533 271.27 789.023 272.6 786.593 272.6C783.373 272.6 781.733 270.25 781.753 266.8C781.773 263.35 783.373 261 786.593 261C789.023 261 790.533 262.33 791.123 264.47L792.933 263.99C792.113 261.13 789.923 259.3 786.593 259.3C782.283 259.3 779.873 262.36 779.873 266.8C779.873 271.24 782.283 274.3 786.593 274.3Z" fill="#110529"/>
    <path d="M685.227 274.29C686.677 274.29 687.937 273.7 688.667 272.43C689.197 271.51 689.137 270.72 689.137 269.48V259.6H687.337V269.48C687.337 270.37 687.337 270.99 687.077 271.51C686.687 272.29 685.867 272.6 685.187 272.6C684.117 272.6 683.207 271.83 682.997 270.85L681.227 271.27C681.737 273.11 683.207 274.29 685.227 274.29Z" fill="#110529"/>
    <path d="M23.2211 274H25.0011V259.6H23.2211V274ZM33.8316 274.3C38.0416 274.3 40.2816 271.39 40.2816 267.44C40.2816 267.32 40.2716 266.87 40.2416 266.59H35.3016V268.06H38.3616C38.1416 270.93 36.7016 272.62 33.9216 272.6C30.7016 272.58 29.0716 270.25 29.0916 266.8C29.1116 263.35 30.7016 260.99 33.9216 261.01C35.9716 261.02 37.3616 262.14 37.9716 263.88L39.7716 263.51C39.0216 260.92 37.0516 259.31 33.8316 259.31C29.8016 259.31 27.2016 262.21 27.2016 266.8C27.2016 271.44 29.8616 274.3 33.8316 274.3ZM42.2789 274H44.0589V266.96L50.8089 274H53.1089L46.0589 266.59L52.5989 259.6H50.3589L44.0589 266.36V259.6H42.2789V274ZM61.7588 259.6L57.9188 274H59.7288L63.5688 259.6H61.7588ZM70.3695 274H72.1495V259.6H70.3695V274ZM80.98 274.3C85.19 274.3 87.43 271.39 87.43 267.44C87.43 267.32 87.42 266.87 87.39 266.59H82.45V268.06H85.51C85.29 270.93 83.85 272.62 81.07 272.6C77.85 272.58 76.22 270.25 76.24 266.8C76.26 263.35 77.85 260.99 81.07 261.01C83.12 261.02 84.51 262.14 85.12 263.88L86.92 263.51C86.17 260.92 84.2 259.31 80.98 259.31C76.95 259.31 74.35 262.21 74.35 266.8C74.35 271.44 77.01 274.3 80.98 274.3ZM89.6273 274H98.0873V272.31H91.4073V259.6H89.6273V274Z" fill="white"/>
    <defs>
        <filter id="filter0_i_5876_37793" x="118.737" y="79" width="466.263" height="54" filterUnits="userSpaceOnUse" color-interpolation-filters="sRGB">
            <feFlood flood-opacity="0" result="BackgroundImageFix"/>
            <feBlend mode="normal" in="SourceGraphic" in2="BackgroundImageFix" result="shape"/>
            <feColorMatrix in="SourceAlpha" type="matrix" values="0 0 0 0 0 0 0 0 0 0 0 0 0 0 0 0 0 0 127 0" result="hardAlpha"/>
            <feOffset dx="-8" dy="-4"/>
            <feComposite in2="hardAlpha" operator="arithmetic" k2="-1" k3="1"/>
            <feColorMatrix type="matrix" values="0 0 0 0 0.0666667 0 0 0 0 0.0196078 0 0 0 0 0.160784 0 0 0 0.16 0"/>
            <feBlend mode="normal" in2="shape" result="effect1_innerShadow_5876_37793"/>
        </filter>
        <filter id="filter1_i_5876_37793" x="583" y="79" width="32" height="54" filterUnits="userSpaceOnUse" color-interpolation-filters="sRGB">
            <feFlood flood-opacity="0" result="BackgroundImageFix"/>
            <feBlend mode="normal" in="SourceGraphic" in2="BackgroundImageFix" result="shape"/>
            <feColorMatrix in="SourceAlpha" type="matrix" values="0 0 0 0 0 0 0 0 0 0 0 0 0 0 0 0 0 0 127 0" result="hardAlpha"/>
            <feOffset dx="-8" dy="-4"/>
            <feComposite in2="hardAlpha" operator="arithmetic" k2="-1" k3="1"/>
            <feColorMatrix type="matrix" values="0 0 0 0 0.0666667 0 0 0 0 0.0196078 0 0 0 0 0.160784 0 0 0 0.16 0"/>
            <feBlend mode="normal" in2="shape" result="effect1_innerShadow_5876_37793"/>
        </filter>
        <filter id="filter2_i_5876_37793" x="649" y="79" width="32" height="54" filterUnits="userSpaceOnUse" color-interpolation-filters="sRGB">
            <feFlood flood-opacity="0" result="BackgroundImageFix"/>
            <feBlend mode="normal" in="SourceGraphic" in2="BackgroundImageFix" result="shape"/>
            <feColorMatrix in="SourceAlpha" type="matrix" values="0 0 0 0 0 0 0 0 0 0 0 0 0 0 0 0 0 0 127 0" result="hardAlpha"/>
            <feOffset dx="-8" dy="-4"/>
            <feComposite in2="hardAlpha" operator="arithmetic" k2="-1" k3="1"/>
            <feColorMatrix type="matrix" values="0 0 0 0 0.0666667 0 0 0 0 0.0196078 0 0 0 0 0.160784 0 0 0 0.16 0"/>
            <feBlend mode="normal" in2="shape" result="effect1_innerShadow_5876_37793"/>
        </filter>
        <filter id="filter3_i_5876_37793" x="613" y="79" width="38" height="54" filterUnits="userSpaceOnUse" color-interpolation-filters="sRGB">
            <feFlood flood-opacity="0" result="BackgroundImageFix"/>
            <feBlend mode="normal" in="SourceGraphic" in2="BackgroundImageFix" result="shape"/>
            <feColorMatrix in="SourceAlpha" type="matrix" values="0 0 0 0 0 0 0 0 0 0 0 0 0 0 0 0 0 0 127 0" result="hardAlpha"/>
            <feOffset dx="-8" dy="-4"/>
            <feComposite in2="hardAlpha" operator="arithmetic" k2="-1" k3="1"/>
            <feColorMatrix type="matrix" values="0 0 0 0 0.0666667 0 0 0 0 0.0196078 0 0 0 0 0.160784 0 0 0 0.16 0"/>
            <feBlend mode="normal" in2="shape" result="effect1_innerShadow_5876_37793"/>
        </filter>
        <filter id="filter4_i_5876_37793" x="679" y="79" width="146" height="54" filterUnits="userSpaceOnUse" color-interpolation-filters="sRGB">
            <feFlood flood-opacity="0" result="BackgroundImageFix"/>
            <feBlend mode="normal" in="SourceGraphic" in2="BackgroundImageFix" result="shape"/>
            <feColorMatrix in="SourceAlpha" type="matrix" values="0 0 0 0 0 0 0 0 0 0 0 0 0 0 0 0 0 0 127 0" result="hardAlpha"/>
            <feOffset dx="-8" dy="-4"/>
            <feComposite in2="hardAlpha" operator="arithmetic" k2="-1" k3="1"/>
            <feColorMatrix type="matrix" values="0 0 0 0 0.0666667 0 0 0 0 0.0196078 0 0 0 0 0.160784 0 0 0 0.16 0"/>
            <feBlend mode="normal" in2="shape" result="effect1_innerShadow_5876_37793"/>
        </filter>
        <filter id="filter5_i_5876_37793" x="823" y="79" width="59.0309" height="54" filterUnits="userSpaceOnUse" color-interpolation-filters="sRGB">
            <feFlood flood-opacity="0" result="BackgroundImageFix"/>
            <feBlend mode="normal" in="SourceGraphic" in2="BackgroundImageFix" result="shape"/>
            <feColorMatrix in="SourceAlpha" type="matrix" values="0 0 0 0 0 0 0 0 0 0 0 0 0 0 0 0 0 0 127 0" result="hardAlpha"/>
            <feOffset dx="-8" dy="-4"/>
            <feComposite in2="hardAlpha" operator="arithmetic" k2="-1" k3="1"/>
            <feColorMatrix type="matrix" values="0 0 0 0 0.0666667 0 0 0 0 0.0196078 0 0 0 0 0.160784 0 0 0 0.16 0"/>
            <feBlend mode="normal" in2="shape" result="effect1_innerShadow_5876_37793"/>
        </filter>
        <filter id="filter6_i_5876_37793" x="118.737" y="239" width="466.263" height="54" filterUnits="userSpaceOnUse" color-interpolation-filters="sRGB">
            <feFlood flood-opacity="0" result="BackgroundImageFix"/>
            <feBlend mode="normal" in="SourceGraphic" in2="BackgroundImageFix" result="shape"/>
            <feColorMatrix in="SourceAlpha" type="matrix" values="0 0 0 0 0 0 0 0 0 0 0 0 0 0 0 0 0 0 127 0" result="hardAlpha"/>
            <feOffset dx="-8" dy="-4"/>
            <feComposite in2="hardAlpha" operator="arithmetic" k2="-1" k3="1"/>
            <feColorMatrix type="matrix" values="0 0 0 0 0.0666667 0 0 0 0 0.0196078 0 0 0 0 0.160784 0 0 0 0.16 0"/>
            <feBlend mode="normal" in2="shape" result="effect1_innerShadow_5876_37793"/>
        </filter>
        <filter id="filter7_i_5876_37793" x="583" y="239" width="32" height="54" filterUnits="userSpaceOnUse" color-interpolation-filters="sRGB">
            <feFlood flood-opacity="0" result="BackgroundImageFix"/>
            <feBlend mode="normal" in="SourceGraphic" in2="BackgroundImageFix" result="shape"/>
            <feColorMatrix in="SourceAlpha" type="matrix" values="0 0 0 0 0 0 0 0 0 0 0 0 0 0 0 0 0 0 127 0" result="hardAlpha"/>
            <feOffset dx="-8" dy="-4"/>
            <feComposite in2="hardAlpha" operator="arithmetic" k2="-1" k3="1"/>
            <feColorMatrix type="matrix" values="0 0 0 0 0.0666667 0 0 0 0 0.0196078 0 0 0 0 0.160784 0 0 0 0.16 0"/>
            <feBlend mode="normal" in2="shape" result="effect1_innerShadow_5876_37793"/>
        </filter>
        <filter id="filter8_i_5876_37793" x="613" y="239" width="146" height="54" filterUnits="userSpaceOnUse" color-interpolation-filters="sRGB">
            <feFlood flood-opacity="0" result="BackgroundImageFix"/>
            <feBlend mode="normal" in="SourceGraphic" in2="BackgroundImageFix" result="shape"/>
            <feColorMatrix in="SourceAlpha" type="matrix" values="0 0 0 0 0 0 0 0 0 0 0 0 0 0 0 0 0 0 127 0" result="hardAlpha"/>
            <feOffset dx="-8" dy="-4"/>
            <feComposite in2="hardAlpha" operator="arithmetic" k2="-1" k3="1"/>
            <feColorMatrix type="matrix" values="0 0 0 0 0.0666667 0 0 0 0 0.0196078 0 0 0 0 0.160784 0 0 0 0.16 0"/>
            <feBlend mode="normal" in2="shape" result="effect1_innerShadow_5876_37793"/>
        </filter>
        <filter id="filter9_i_5876_37793" x="757" y="239" width="59.0309" height="54" filterUnits="userSpaceOnUse" color-interpolation-filters="sRGB">
            <feFlood flood-opacity="0" result="BackgroundImageFix"/>
            <feBlend mode="normal" in="SourceGraphic" in2="BackgroundImageFix" result="shape"/>
            <feColorMatrix in="SourceAlpha" type="matrix" values="0 0 0 0 0 0 0 0 0 0 0 0 0 0 0 0 0 0 127 0" result="hardAlpha"/>
            <feOffset dx="-8" dy="-4"/>
            <feComposite in2="hardAlpha" operator="arithmetic" k2="-1" k3="1"/>
            <feColorMatrix type="matrix" values="0 0 0 0 0.0666667 0 0 0 0 0.0196078 0 0 0 0 0.160784 0 0 0 0.16 0"/>
            <feBlend mode="normal" in2="shape" result="effect1_innerShadow_5876_37793"/>
        </filter>
    </defs>
</svg>
