<svg width="960" height="402" viewBox="0 0 960 402" fill="none" xmlns="http://www.w3.org/2000/svg">
<rect width="960" height="402" fill="white"/>
<path d="M139 132V24" stroke="#D3D7E0" stroke-width="2" stroke-linecap="square" stroke-dasharray="6 6"/>
<path d="M162.442 37H168.469V35.621H163.905V26.92H162.442V37Z" fill="#D3D7E0"/>
<path d="M191 132V24" stroke="#D3D7E0" stroke-width="2" stroke-linecap="square" stroke-dasharray="6 6"/>
<path d="M218.858 37H220.321V32.695H223.989V31.225H220.321V28.383H224.829V26.92H218.858V37ZM226.09 37H227.553V33.381H230.227L231.984 37H233.657L231.753 33.094C232.894 32.597 233.468 31.491 233.468 30.147C233.468 28.516 232.628 27.235 230.941 26.976C230.675 26.934 230.36 26.92 230.164 26.92H226.09V37ZM227.553 31.995V28.299H230.108C230.29 28.299 230.535 28.313 230.745 28.369C231.641 28.579 231.977 29.405 231.977 30.147C231.977 30.889 231.641 31.715 230.745 31.932C230.535 31.981 230.29 31.995 230.108 31.995H227.553ZM236.953 37H238.444V26.92H236.953L235.056 28.054V29.685L236.953 28.53V37Z" fill="#D3D7E0"/>
<path d="M267 132V24" stroke="#D3D7E0" stroke-width="2" stroke-linecap="square" stroke-dasharray="6 6"/>
<path d="M292.735 37.21C295.059 37.21 296.62 35.943 297.215 33.955L295.731 33.556C295.332 34.963 294.331 35.817 292.735 35.817C290.593 35.817 289.501 34.27 289.515 31.96C289.522 29.65 290.593 28.103 292.735 28.103C294.331 28.103 295.332 28.957 295.731 30.364L297.215 29.965C296.62 27.977 295.059 26.71 292.735 26.71C289.711 26.71 287.968 28.845 287.968 31.96C287.968 35.075 289.711 37.21 292.735 37.21ZM298.754 37H301.911C302.093 37 302.695 37 303.164 36.937C305.53 36.636 306.79 34.529 306.79 31.96C306.79 29.391 305.53 27.284 303.164 26.983C302.695 26.92 302.093 26.92 301.911 26.92H298.754V37ZM300.252 35.607V28.313H301.911C302.219 28.313 302.723 28.32 303.059 28.383C304.571 28.663 305.236 30.189 305.236 31.96C305.236 33.689 304.599 35.243 303.059 35.537C302.723 35.6 302.233 35.607 301.911 35.607H300.252ZM308.42 37H309.883V33.381H312.557L314.314 37H315.987L314.083 33.094C315.224 32.597 315.798 31.491 315.798 30.147C315.798 28.516 314.958 27.235 313.271 26.976C313.005 26.934 312.69 26.92 312.494 26.92H308.42V37ZM309.883 31.995V28.299H312.438C312.62 28.299 312.865 28.313 313.075 28.369C313.971 28.579 314.307 29.405 314.307 30.147C314.307 30.889 313.971 31.715 313.075 31.932C312.865 31.981 312.62 31.995 312.438 31.995H309.883ZM319.283 37H320.774V26.92H319.283L317.386 28.054V29.685L319.283 28.53V37Z" fill="#D3D7E0"/>
<path d="M343 132V24" stroke="#D3D7E0" stroke-width="2" stroke-linecap="square" stroke-dasharray="6 6"/>
<path d="M369.703 37H371.166V32.695H374.834V31.225H371.166V28.383H375.674V26.92H369.703V37ZM376.935 37H378.398V33.381H381.072L382.829 37H384.502L382.598 33.094C383.739 32.597 384.313 31.491 384.313 30.147C384.313 28.516 383.473 27.235 381.786 26.976C381.52 26.934 381.205 26.92 381.009 26.92H376.935V37ZM378.398 31.995V28.299H380.953C381.135 28.299 381.38 28.313 381.59 28.369C382.486 28.579 382.822 29.405 382.822 30.147C382.822 30.889 382.486 31.715 381.59 31.932C381.38 31.981 381.135 31.995 380.953 31.995H378.398ZM385.761 36.993H392.579V35.6H388.022L390.941 32.996C392.033 32.037 392.579 31.407 392.579 30.028C392.579 28.117 391.144 26.71 389.24 26.71C387.231 26.71 385.796 28.047 385.796 30H387.294C387.28 28.985 388.092 28.103 389.212 28.103C390.297 28.103 391.074 28.929 391.074 30.007C391.074 30.581 390.864 31.127 390.157 31.757L385.768 35.691L385.761 36.993Z" fill="#D3D7E0"/>
<path d="M419 132V24" stroke="#D3D7E0" stroke-width="2" stroke-linecap="square" stroke-dasharray="6 6"/>
<path d="M443.58 37.21C445.904 37.21 447.465 35.943 448.06 33.955L446.576 33.556C446.177 34.963 445.176 35.817 443.58 35.817C441.438 35.817 440.346 34.27 440.36 31.96C440.367 29.65 441.438 28.103 443.58 28.103C445.176 28.103 446.177 28.957 446.576 30.364L448.06 29.965C447.465 27.977 445.904 26.71 443.58 26.71C440.556 26.71 438.813 28.845 438.813 31.96C438.813 35.075 440.556 37.21 443.58 37.21ZM449.599 37H452.756C452.938 37 453.54 37 454.009 36.937C456.375 36.636 457.635 34.529 457.635 31.96C457.635 29.391 456.375 27.284 454.009 26.983C453.54 26.92 452.938 26.92 452.756 26.92H449.599V37ZM451.097 35.607V28.313H452.756C453.064 28.313 453.568 28.32 453.904 28.383C455.416 28.663 456.081 30.189 456.081 31.96C456.081 33.689 455.444 35.243 453.904 35.537C453.568 35.6 453.078 35.607 452.756 35.607H451.097ZM459.265 37H460.728V33.381H463.402L465.159 37H466.832L464.928 33.094C466.069 32.597 466.643 31.491 466.643 30.147C466.643 28.516 465.803 27.235 464.116 26.976C463.85 26.934 463.535 26.92 463.339 26.92H459.265V37ZM460.728 31.995V28.299H463.283C463.465 28.299 463.71 28.313 463.92 28.369C464.816 28.579 465.152 29.405 465.152 30.147C465.152 30.889 464.816 31.715 463.92 31.932C463.71 31.981 463.465 31.995 463.283 31.995H460.728ZM468.091 36.993H474.909V35.6H470.352L473.271 32.996C474.363 32.037 474.909 31.407 474.909 30.028C474.909 28.117 473.474 26.71 471.57 26.71C469.561 26.71 468.126 28.047 468.126 30H469.624C469.61 28.985 470.422 28.103 471.542 28.103C472.627 28.103 473.404 28.929 473.404 30.007C473.404 30.581 473.194 31.127 472.487 31.757L468.098 35.691L468.091 36.993Z" fill="#D3D7E0"/>
<path d="M495 132V24" stroke="#D3D7E0" stroke-width="2" stroke-linecap="square" stroke-dasharray="6 6"/>
<path d="M521.805 37H523.268V32.695H526.936V31.225H523.268V28.383H527.776V26.92H521.805V37ZM529.038 37H530.501V33.381H533.175L534.932 37H536.605L534.701 33.094C535.842 32.597 536.416 31.491 536.416 30.147C536.416 28.516 535.576 27.235 533.889 26.976C533.623 26.934 533.308 26.92 533.112 26.92H529.038V37ZM530.501 31.995V28.299H533.056C533.238 28.299 533.483 28.313 533.693 28.369C534.589 28.579 534.925 29.405 534.925 30.147C534.925 30.889 534.589 31.715 533.693 31.932C533.483 31.981 533.238 31.995 533.056 31.995H530.501ZM540.964 37.189C542.847 37.189 544.331 35.796 544.331 33.871C544.331 32.233 543.323 30.924 541.692 30.707L544.184 28.313V26.92H538.122V28.313H542.392L539.312 31.036L539.998 32.191C540.285 32.037 540.628 31.939 540.95 31.939C542.07 31.939 542.833 32.751 542.833 33.871C542.833 34.984 542.07 35.789 540.964 35.803C540.138 35.81 539.403 35.341 539.137 34.466L537.723 34.858C538.15 36.293 539.466 37.189 540.964 37.189Z" fill="#D3D7E0"/>
<path d="M571 132V24" stroke="#D3D7E0" stroke-width="2" stroke-linecap="square" stroke-dasharray="6 6"/>
<path d="M622.682 37.21C625.006 37.21 626.567 35.943 627.162 33.955L625.678 33.556C625.279 34.963 624.278 35.817 622.682 35.817C620.54 35.817 619.448 34.27 619.462 31.96C619.469 29.65 620.54 28.103 622.682 28.103C624.278 28.103 625.279 28.957 625.678 30.364L627.162 29.965C626.567 27.977 625.006 26.71 622.682 26.71C619.658 26.71 617.915 28.845 617.915 31.96C617.915 35.075 619.658 37.21 622.682 37.21ZM628.702 37H631.859C632.041 37 632.643 37 633.112 36.937C635.478 36.636 636.738 34.529 636.738 31.96C636.738 29.391 635.478 27.284 633.112 26.983C632.643 26.92 632.041 26.92 631.859 26.92H628.702V37ZM630.2 35.607V28.313H631.859C632.167 28.313 632.671 28.32 633.007 28.383C634.519 28.663 635.184 30.189 635.184 31.96C635.184 33.689 634.547 35.243 633.007 35.537C632.671 35.6 632.181 35.607 631.859 35.607H630.2ZM638.368 37H639.831V33.381H642.505L644.262 37H645.935L644.031 33.094C645.172 32.597 645.746 31.491 645.746 30.147C645.746 28.516 644.906 27.235 643.219 26.976C642.953 26.934 642.638 26.92 642.442 26.92H638.368V37ZM639.831 31.995V28.299H642.386C642.568 28.299 642.813 28.313 643.023 28.369C643.919 28.579 644.255 29.405 644.255 30.147C644.255 30.889 643.919 31.715 643.023 31.932C642.813 31.981 642.568 31.995 642.386 31.995H639.831ZM650.294 37.189C652.177 37.189 653.661 35.796 653.661 33.871C653.661 32.233 652.653 30.924 651.022 30.707L653.514 28.313V26.92H647.452V28.313H651.722L648.642 31.036L649.328 32.191C649.615 32.037 649.958 31.939 650.28 31.939C651.4 31.939 652.163 32.751 652.163 33.871C652.163 34.984 651.4 35.789 650.294 35.803C649.468 35.81 648.733 35.341 648.467 34.466L647.053 34.858C647.48 36.293 648.796 37.189 650.294 37.189Z" fill="#D3D7E0"/>
<path d="M701 132V24" stroke="#D3D7E0" stroke-width="2" stroke-linecap="square" stroke-dasharray="6 6"/>
<path d="M753.593 37H755.056V32.695H758.724V31.225H755.056V28.383H759.564V26.92H753.593V37ZM760.826 37H762.289V33.381H764.963L766.72 37H768.393L766.489 33.094C767.63 32.597 768.204 31.491 768.204 30.147C768.204 28.516 767.364 27.235 765.677 26.976C765.411 26.934 765.096 26.92 764.9 26.92H760.826V37ZM762.289 31.995V28.299H764.844C765.026 28.299 765.271 28.313 765.481 28.369C766.377 28.579 766.713 29.405 766.713 30.147C766.713 30.889 766.377 31.715 765.481 31.932C765.271 31.981 765.026 31.995 764.844 31.995H762.289ZM774.201 37H775.685V35.243H776.686V33.857H775.685V31.127H774.201V33.857H771.324L774.6 26.92H772.927L769.651 33.857V35.243H774.201V37Z" fill="#D3D7E0"/>
<path d="M829 132V24" stroke="#D3D7E0" stroke-width="2" stroke-linecap="square" stroke-dasharray="6 6"/>
<g filter="url(#filter0_i_5808_36406)">
<path d="M129 80H586.4C586.96 80 587.24 80 587.454 80.109C587.642 80.2049 587.795 80.3578 587.891 80.546C588 80.7599 588 81.0399 588 81.6V130.4C588 130.96 588 131.24 587.891 131.454C587.795 131.642 587.642 131.795 587.454 131.891C587.24 132 586.96 132 586.4 132H129L124 125.5L129 119L124 112L129 106L124 99.5L129 93L124 86.5L129 80Z" fill="#99E099"/>
</g>
<path d="M129 80H586.4C586.96 80 587.24 80 587.454 80.109C587.642 80.2049 587.795 80.3578 587.891 80.546C588 80.7599 588 81.0399 588 81.6V130.4C588 130.96 588 131.24 587.891 131.454C587.795 131.642 587.642 131.795 587.454 131.891C587.24 132 586.96 132 586.4 132H129L124 125.5L129 119L124 112L129 106L124 99.5L129 93L124 86.5L129 80Z" stroke="#110529" stroke-width="2" stroke-linecap="round"/>
<path d="M355.258 114H357.738L362.558 99.6H360.708L356.478 112.11L352.288 99.6H350.438L355.258 114Z" fill="#110529"/>
<g filter="url(#filter1_i_5808_36406)">
<rect x="588" y="80" width="30" height="52" rx="1" fill="#CBEB67"/>
</g>
<rect x="588" y="80" width="30" height="52" rx="1" stroke="#110529" stroke-width="2" stroke-linecap="round"/>
<g filter="url(#filter2_i_5808_36406)">
<rect x="654" y="80" width="30" height="52" rx="1" fill="#FAAAFA"/>
</g>
<rect x="654" y="80" width="30" height="52" rx="1" stroke="#110529" stroke-width="2" stroke-linecap="round"/>
<g filter="url(#filter3_i_5808_36406)">
<rect x="618" y="80" width="36" height="52" rx="1" fill="#FFCB8F"/>
</g>
<rect x="618" y="80" width="36" height="52" rx="1" stroke="#110529" stroke-width="2" stroke-linecap="round"/>
<path d="M597.447 114V99.6H599.247L606.757 110.85V99.6H608.557V114H606.757L599.247 102.74V114H597.447Z" fill="#110529"/>
<path d="M663.447 114V99.6H665.247L672.757 110.85V99.6H674.557V114H672.757L665.247 102.74V114H663.447Z" fill="#110529"/>
<path d="M630.593 114V99.6H635.033C635.18 99.6 635.437 99.6033 635.803 99.61C636.17 99.6167 636.52 99.6433 636.853 99.69C637.967 99.8367 638.897 100.243 639.643 100.91C640.397 101.57 640.963 102.41 641.343 103.43C641.723 104.45 641.913 105.573 641.913 106.8C641.913 108.027 641.723 109.15 641.343 110.17C640.963 111.19 640.397 112.033 639.643 112.7C638.897 113.36 637.967 113.763 636.853 113.91C636.52 113.95 636.167 113.977 635.793 113.99C635.427 113.997 635.173 114 635.033 114H630.593ZM632.423 112.3H635.033C635.287 112.3 635.57 112.293 635.883 112.28C636.197 112.26 636.47 112.23 636.703 112.19C637.49 112.043 638.127 111.713 638.613 111.2C639.1 110.687 639.457 110.047 639.683 109.28C639.91 108.513 640.023 107.687 640.023 106.8C640.023 105.893 639.907 105.057 639.673 104.29C639.447 103.523 639.09 102.887 638.603 102.38C638.117 101.873 637.483 101.55 636.703 101.41C636.47 101.363 636.193 101.333 635.873 101.32C635.553 101.307 635.273 101.3 635.033 101.3H632.423V112.3Z" fill="#110529"/>
<g filter="url(#filter4_i_5808_36406)">
<path d="M828 81.6C828 81.0399 828 80.7599 827.891 80.546C827.795 80.3578 827.642 80.2049 827.454 80.109C827.24 80 826.96 80 826.4 80H685.6C685.04 80 684.76 80 684.546 80.109C684.358 80.2049 684.205 80.3578 684.109 80.546C684 80.7599 684 81.0399 684 81.6V106V130.4C684 130.96 684 131.24 684.109 131.454C684.205 131.642 684.358 131.795 684.546 131.891C684.76 132 685.04 132 685.6 132H826.4C826.96 132 827.24 132 827.454 131.891C827.642 131.795 827.795 131.642 827.891 131.454C828 131.24 828 130.96 828 130.4V125.5V119V112V106V99.5V93V86.5V81.6Z" fill="#C1ADFF"/>
</g>
<path d="M828 81.6C828 81.0399 828 80.7599 827.891 80.546C827.795 80.3578 827.642 80.2049 827.454 80.109C827.24 80 826.96 80 826.4 80H685.6C685.04 80 684.76 80 684.546 80.109C684.358 80.2049 684.205 80.3578 684.109 80.546C684 80.7599 684 81.0399 684 81.6V106V130.4C684 130.96 684 131.24 684.109 131.454C684.205 131.642 684.358 131.795 684.546 131.891C684.76 132 685.04 132 685.6 132H826.4C826.96 132 827.24 132 827.454 131.891C827.642 131.795 827.795 131.642 827.891 131.454C828 131.24 828 130.96 828 130.4V125.5V119V112V106V99.5V93V86.5V81.6Z" stroke="#110529" stroke-width="2" stroke-linecap="round"/>
<path d="M755.227 114.29C756.677 114.29 757.937 113.7 758.667 112.43C759.197 111.51 759.137 110.72 759.137 109.48V99.6H757.337V109.48C757.337 110.37 757.337 110.99 757.077 111.51C756.687 112.29 755.867 112.6 755.187 112.6C754.117 112.6 753.207 111.83 752.997 110.85L751.227 111.27C751.737 113.11 753.207 114.29 755.227 114.29Z" fill="#110529"/>
<g filter="url(#filter5_i_5808_36406)">
<path d="M884 80H829.6C829.04 80 828.76 80 828.546 80.109C828.358 80.2049 828.205 80.3578 828.109 80.546C828 80.7599 828 81.0399 828 81.6V130.4C828 130.96 828 131.24 828.109 131.454C828.205 131.642 828.358 131.795 828.546 131.891C828.76 132 829.04 132 829.6 132H884L879 125.5L884 119L879 112L884 106L879 99.5L884 93L879 86.5L884 80Z" fill="#FAFAAA"/>
</g>
<path d="M884 80H829.6C829.04 80 828.76 80 828.546 80.109C828.358 80.2049 828.205 80.3578 828.109 80.546C828 80.7599 828 81.0399 828 81.6V130.4C828 130.96 828 131.24 828.109 131.454C828.205 131.642 828.358 131.795 828.546 131.891C828.76 132 829.04 132 829.6 132H884L879 125.5L884 119L879 112L884 106L879 99.5L884 93L879 86.5L884 80Z" stroke="#110529" stroke-width="2" stroke-linecap="round"/>
<path d="M856.093 114.3C859.423 114.3 861.613 112.47 862.433 109.61L860.623 109.13C860.033 111.27 858.523 112.6 856.093 112.6C852.873 112.6 851.233 110.25 851.253 106.8C851.273 103.35 852.873 101 856.093 101C858.523 101 860.033 102.33 860.623 104.47L862.433 103.99C861.613 101.13 859.423 99.3 856.093 99.3C851.783 99.3 849.373 102.36 849.373 106.8C849.373 111.24 851.783 114.3 856.093 114.3Z" fill="#110529"/>
<g filter="url(#filter6_i_5808_36406)">
<path d="M129 250H586.4C586.96 250 587.24 250 587.454 250.109C587.642 250.205 587.795 250.358 587.891 250.546C588 250.76 588 251.04 588 251.6V300.4C588 300.96 588 301.24 587.891 301.454C587.795 301.642 587.642 301.795 587.454 301.891C587.24 302 586.96 302 586.4 302H129L124 295.5L129 289L124 282L129 276L124 269.5L129 263L124 256.5L129 250Z" fill="#99E099"/>
</g>
<path d="M129 250H586.4C586.96 250 587.24 250 587.454 250.109C587.642 250.205 587.795 250.358 587.891 250.546C588 250.76 588 251.04 588 251.6V300.4C588 300.96 588 301.24 587.891 301.454C587.795 301.642 587.642 301.795 587.454 301.891C587.24 302 586.96 302 586.4 302H129L124 295.5L129 289L124 282L129 276L124 269.5L129 263L124 256.5L129 250Z" stroke="#110529" stroke-width="2" stroke-linecap="round"/>
<path d="M355.258 284H357.738L362.558 269.6H360.708L356.478 282.11L352.288 269.6H350.438L355.258 284Z" fill="#110529"/>
<g filter="url(#filter7_i_5808_36406)">
<rect x="588" y="250" width="30" height="52" rx="1" fill="#CBEB67"/>
</g>
<rect x="588" y="250" width="30" height="52" rx="1" stroke="#110529" stroke-width="2" stroke-linecap="round"/>
<path d="M597.447 284H599.247V272.74L606.757 284H608.557V269.6H606.757V280.85L599.247 269.6H597.447V284Z" fill="#110529"/>
<g filter="url(#filter8_i_5808_36406)">
<path d="M762 251.6C762 251.04 762 250.76 761.891 250.546C761.795 250.358 761.642 250.205 761.454 250.109C761.24 250 760.96 250 760.4 250H619.6C619.04 250 618.76 250 618.546 250.109C618.358 250.205 618.205 250.358 618.109 250.546C618 250.76 618 251.04 618 251.6V276V300.4C618 300.96 618 301.24 618.109 301.454C618.205 301.642 618.358 301.795 618.546 301.891C618.76 302 619.04 302 619.6 302H760.4C760.96 302 761.24 302 761.454 301.891C761.642 301.795 761.795 301.642 761.891 301.454C762 301.24 762 300.96 762 300.4V295.5V289V282V276V269.5V263V256.5V251.6Z" fill="#C1ADFF"/>
</g>
<path d="M762 251.6C762 251.04 762 250.76 761.891 250.546C761.795 250.358 761.642 250.205 761.454 250.109C761.24 250 760.96 250 760.4 250H619.6C619.04 250 618.76 250 618.546 250.109C618.358 250.205 618.205 250.358 618.109 250.546C618 250.76 618 251.04 618 251.6V276V300.4C618 300.96 618 301.24 618.109 301.454C618.205 301.642 618.358 301.795 618.546 301.891C618.76 302 619.04 302 619.6 302H760.4C760.96 302 761.24 302 761.454 301.891C761.642 301.795 761.795 301.642 761.891 301.454C762 301.24 762 300.96 762 300.4V295.5V289V282V276V269.5V263V256.5V251.6Z" stroke="#110529" stroke-width="2" stroke-linecap="round"/>
<g filter="url(#filter9_i_5808_36406)">
<path d="M818 250H763.6C763.04 250 762.76 250 762.546 250.109C762.358 250.205 762.205 250.358 762.109 250.546C762 250.76 762 251.04 762 251.6V300.4C762 300.96 762 301.24 762.109 301.454C762.205 301.642 762.358 301.795 762.546 301.891C762.76 302 763.04 302 763.6 302H818L813 295.5L818 289L813 282L818 276L813 269.5L818 263L813 256.5L818 250Z" fill="#FAFAAA"/>
</g>
<path d="M818 250H763.6C763.04 250 762.76 250 762.546 250.109C762.358 250.205 762.205 250.358 762.109 250.546C762 250.76 762 251.04 762 251.6V300.4C762 300.96 762 301.24 762.109 301.454C762.205 301.642 762.358 301.795 762.546 301.891C762.76 302 763.04 302 763.6 302H818L813 295.5L818 289L813 282L818 276L813 269.5L818 263L813 256.5L818 250Z" stroke="#110529" stroke-width="2" stroke-linecap="round"/>
<path d="M790.593 284.3C793.923 284.3 796.113 282.47 796.933 279.61L795.123 279.13C794.533 281.27 793.023 282.6 790.593 282.6C787.373 282.6 785.733 280.25 785.753 276.8C785.773 273.35 787.373 271 790.593 271C793.023 271 794.533 272.33 795.123 274.47L796.933 273.99C796.113 271.13 793.923 269.3 790.593 269.3C786.283 269.3 783.873 272.36 783.873 276.8C783.873 281.24 786.283 284.3 790.593 284.3Z" fill="#110529"/>
<path d="M689.227 284.29C690.677 284.29 691.937 283.7 692.667 282.43C693.197 281.51 693.137 280.72 693.137 279.48V269.6H691.337V279.48C691.337 280.37 691.337 280.99 691.077 281.51C690.687 282.29 689.867 282.6 689.187 282.6C688.117 282.6 687.207 281.83 686.997 280.85L685.227 281.27C685.737 283.11 687.207 284.29 689.227 284.29Z" fill="#110529"/>
<path d="M123.4 180H125.18V174.68H129.39L131.97 180H134.01L131.23 174.29C132.86 173.61 133.71 172.04 133.71 170.14C133.71 167.85 132.48 166.04 130.15 165.68C129.78 165.62 129.37 165.6 129.09 165.6H123.4V180ZM125.18 172.99V167.29H129.03C129.28 167.29 129.63 167.31 129.93 167.38C131.31 167.69 131.89 168.94 131.89 170.14C131.89 171.34 131.31 172.59 129.93 172.9C129.63 172.97 129.28 172.99 129.03 172.99H125.18ZM138.723 180H140.533V165.6H138.723L136.013 167.22V169.21L138.723 167.57V180Z" fill="#110529"/>
<path d="M151 164V180H161V188L175 172L161 156V164H151Z" fill="#110529"/>
<path d="M123.4 350H125.18V344.68H129.39L131.97 350H134.01L131.23 344.29C132.86 343.61 133.71 342.04 133.71 340.14C133.71 337.85 132.48 336.04 130.15 335.68C129.78 335.62 129.37 335.6 129.09 335.6H123.4V350ZM125.18 342.99V337.29H129.03C129.28 337.29 129.63 337.31 129.93 337.38C131.31 337.69 131.89 338.94 131.89 340.14C131.89 341.34 131.31 342.59 129.93 342.9C129.63 342.97 129.28 342.99 129.03 342.99H125.18ZM138.723 350H140.533V335.6H138.723L136.013 337.22V339.21L138.723 337.57V350Z" fill="#110529"/>
<path d="M151 334V350H161V358L175 342L161 326V334H151Z" fill="#110529"/>
<path d="M773 354V370H763V378L749 362L763 346V354H773Z" fill="#110529"/>
<path d="M782.4 370H784.18V364.68H788.39L790.97 370H793.01L790.23 364.29C791.86 363.61 792.71 362.04 792.71 360.14C792.71 357.85 791.48 356.04 789.15 355.68C788.78 355.62 788.37 355.6 788.09 355.6H782.4V370ZM784.18 362.99V357.29H788.03C788.28 357.29 788.63 357.31 788.93 357.38C790.31 357.69 790.89 358.94 790.89 360.14C790.89 361.34 790.31 362.59 788.93 362.9C788.63 362.97 788.28 362.99 788.03 362.99H784.18ZM794.813 369.99H804.383V368.29H797.553L802.193 364.12C803.673 362.81 804.383 361.86 804.383 359.97C804.383 357.32 802.363 355.3 799.692 355.3C796.923 355.3 794.883 357.23 794.883 359.94H796.703C796.683 358.37 797.943 357 799.663 357C801.323 357 802.563 358.29 802.563 359.95C802.563 360.86 802.273 361.69 801.213 362.64L794.823 368.39L794.813 369.99Z" fill="#110529"/>
<path d="M556 172H178" stroke="#110529" stroke-width="2" stroke-linecap="square"/>
<path d="M566 172L566.707 171.293L567.414 172L566.707 172.707L566 172ZM558.707 180.707L558 181.414L556.586 180L557.293 179.293L558.707 180.707ZM557.293 164.707L556.586 164L558 162.586L558.707 163.293L557.293 164.707ZM556 171L566 171L566 173L556 173L556 171ZM566.707 172.707L558.707 180.707L557.293 179.293L565.293 171.293L566.707 172.707ZM565.293 172.707L557.293 164.707L558.707 163.293L566.707 171.293L565.293 172.707Z" fill="#110529"/>
<rect width="56" height="20" transform="translate(330 162)" fill="white"/>
<path d="M334.8 177.992H342.456V176.632H336.992L340.704 173.296C341.888 172.248 342.456 171.488 342.456 169.976C342.456 167.856 340.84 166.24 338.704 166.24C336.488 166.24 334.856 167.784 334.856 169.952H336.312C336.296 168.696 337.304 167.6 338.68 167.6C340.008 167.6 341 168.632 341 169.96C341 170.688 340.768 171.352 339.92 172.112L334.808 176.712L334.8 177.992ZM347.778 178.24C349.922 178.24 351.738 176.504 351.738 174.376C351.738 172.232 350.114 170.584 347.978 170.584C347.202 170.584 346.426 170.848 345.826 171.328L346.034 167.832H350.938V166.48H344.754L344.402 172.504L345.666 172.984C346.082 172.384 346.802 171.896 347.818 171.896C349.162 171.896 350.306 172.984 350.306 174.376C350.306 175.728 349.218 176.856 347.818 176.856C346.746 176.856 345.706 176.144 345.418 175.008L344.05 175.376C344.514 177.056 345.994 178.24 347.778 178.24ZM357.539 178.24C359.779 178.24 361.427 176.592 361.427 174.352V170.128C361.427 167.888 359.779 166.24 357.539 166.24C355.299 166.24 353.651 167.888 353.651 170.128V174.352C353.651 176.592 355.299 178.24 357.539 178.24ZM355.099 174.432V170.04C355.099 168.688 356.187 167.6 357.539 167.6C358.891 167.6 359.979 168.688 359.979 170.04V174.432C359.979 175.784 358.891 176.872 357.539 176.872C356.187 176.872 355.099 175.784 355.099 174.432ZM367.635 178.24C370.051 178.24 371.507 176.264 371.507 173.672C371.507 171.08 370.043 169.12 367.643 169.12C366.563 169.12 365.707 169.496 365.091 170.144V166.48H363.659V178H364.931V177.024C365.563 177.784 366.467 178.24 367.635 178.24ZM364.931 173.672C364.931 171.76 365.731 170.424 367.419 170.424C369.179 170.424 369.995 171.848 369.995 173.672C369.995 175.512 369.163 176.936 367.459 176.936C365.715 176.936 364.931 175.568 364.931 173.672ZM377.229 178.24C379.645 178.24 381.101 176.264 381.101 173.672C381.101 171.08 379.637 169.12 377.237 169.12C376.061 169.12 375.157 169.568 374.525 170.328V169.36H373.253V181.84H374.685V177.2C375.301 177.856 376.157 178.24 377.229 178.24ZM374.525 173.672C374.525 171.76 375.325 170.424 377.013 170.424C378.773 170.424 379.589 171.848 379.589 173.672C379.589 175.512 378.757 176.936 377.053 176.936C375.309 176.936 374.525 175.568 374.525 173.672Z" fill="#110529"/>
<path d="M412 192H824" stroke="#110529" stroke-width="2" stroke-linecap="square"/>
<path d="M397 192L396.293 191.293L395.586 192L396.293 192.707L397 192ZM404.293 200.707L405 201.414L406.414 200L405.707 199.293L404.293 200.707ZM405.707 184.707L406.414 184L405 182.586L404.293 183.293L405.707 184.707ZM417 191L397 191L397 193L417 193L417 191ZM396.293 192.707L404.293 200.707L405.707 199.293L397.707 191.293L396.293 192.707ZM397.707 192.707L405.707 184.707L404.293 183.293L396.293 191.293L397.707 192.707Z" fill="#110529"/>
<rect width="56" height="20" transform="translate(582 182)" fill="white"/>
<path d="M586.8 197.992H594.456V196.632H588.992L592.704 193.296C593.888 192.248 594.456 191.488 594.456 189.976C594.456 187.856 592.84 186.24 590.704 186.24C588.488 186.24 586.856 187.784 586.856 189.952H588.312C588.296 188.696 589.304 187.6 590.68 187.6C592.008 187.6 593 188.632 593 189.96C593 190.688 592.768 191.352 591.92 192.112L586.808 196.712L586.8 197.992ZM599.778 198.24C601.922 198.24 603.738 196.504 603.738 194.376C603.738 192.232 602.114 190.584 599.978 190.584C599.202 190.584 598.426 190.848 597.826 191.328L598.034 187.832H602.938V186.48H596.754L596.402 192.504L597.666 192.984C598.082 192.384 598.802 191.896 599.818 191.896C601.162 191.896 602.306 192.984 602.306 194.376C602.306 195.728 601.218 196.856 599.818 196.856C598.746 196.856 597.706 196.144 597.418 195.008L596.05 195.376C596.514 197.056 597.994 198.24 599.778 198.24ZM609.539 198.24C611.779 198.24 613.427 196.592 613.427 194.352V190.128C613.427 187.888 611.779 186.24 609.539 186.24C607.299 186.24 605.651 187.888 605.651 190.128V194.352C605.651 196.592 607.299 198.24 609.539 198.24ZM607.099 194.432V190.04C607.099 188.688 608.187 187.6 609.539 187.6C610.891 187.6 611.979 188.688 611.979 190.04V194.432C611.979 195.784 610.891 196.872 609.539 196.872C608.187 196.872 607.099 195.784 607.099 194.432ZM619.635 198.24C622.051 198.24 623.507 196.264 623.507 193.672C623.507 191.08 622.043 189.12 619.643 189.12C618.563 189.12 617.707 189.496 617.091 190.144V186.48H615.659V198H616.931V197.024C617.563 197.784 618.467 198.24 619.635 198.24ZM616.931 193.672C616.931 191.76 617.731 190.424 619.419 190.424C621.179 190.424 621.995 191.848 621.995 193.672C621.995 195.512 621.163 196.936 619.459 196.936C617.715 196.936 616.931 195.568 616.931 193.672ZM629.229 198.24C631.645 198.24 633.101 196.264 633.101 193.672C633.101 191.08 631.637 189.12 629.237 189.12C628.061 189.12 627.157 189.568 626.525 190.328V189.36H625.253V201.84H626.685V197.2C627.301 197.856 628.157 198.24 629.229 198.24ZM626.525 193.672C626.525 191.76 627.325 190.424 629.013 190.424C630.773 190.424 631.589 191.848 631.589 193.672C631.589 195.512 630.757 196.936 629.053 196.936C627.309 196.936 626.525 195.568 626.525 193.672Z" fill="#110529"/>
<path d="M556 342H178" stroke="#110529" stroke-width="2" stroke-linecap="square"/>
<path d="M566 342L566.707 341.293L567.414 342L566.707 342.707L566 342ZM558.707 350.707L558 351.414L556.586 350L557.293 349.293L558.707 350.707ZM557.293 334.707L556.586 334L558 332.586L558.707 333.293L557.293 334.707ZM556 341L566 341L566 343L556 343L556 341ZM566.707 342.707L558.707 350.707L557.293 349.293L565.293 341.293L566.707 342.707ZM565.293 342.707L557.293 334.707L558.707 333.293L566.707 341.293L565.293 342.707Z" fill="#110529"/>
<rect width="56" height="20" transform="translate(330 332)" fill="white"/>
<path d="M334.8 347.992H342.456V346.632H336.992L340.704 343.296C341.888 342.248 342.456 341.488 342.456 339.976C342.456 337.856 340.84 336.24 338.704 336.24C336.488 336.24 334.856 337.784 334.856 339.952H336.312C336.296 338.696 337.304 337.6 338.68 337.6C340.008 337.6 341 338.632 341 339.96C341 340.688 340.768 341.352 339.92 342.112L334.808 346.712L334.8 347.992ZM347.778 348.24C349.922 348.24 351.738 346.504 351.738 344.376C351.738 342.232 350.114 340.584 347.978 340.584C347.202 340.584 346.426 340.848 345.826 341.328L346.034 337.832H350.938V336.48H344.754L344.402 342.504L345.666 342.984C346.082 342.384 346.802 341.896 347.818 341.896C349.162 341.896 350.306 342.984 350.306 344.376C350.306 345.728 349.218 346.856 347.818 346.856C346.746 346.856 345.706 346.144 345.418 345.008L344.05 345.376C344.514 347.056 345.994 348.24 347.778 348.24ZM357.539 348.24C359.779 348.24 361.427 346.592 361.427 344.352V340.128C361.427 337.888 359.779 336.24 357.539 336.24C355.299 336.24 353.651 337.888 353.651 340.128V344.352C353.651 346.592 355.299 348.24 357.539 348.24ZM355.099 344.432V340.04C355.099 338.688 356.187 337.6 357.539 337.6C358.891 337.6 359.979 338.688 359.979 340.04V344.432C359.979 345.784 358.891 346.872 357.539 346.872C356.187 346.872 355.099 345.784 355.099 344.432ZM367.635 348.24C370.051 348.24 371.507 346.264 371.507 343.672C371.507 341.08 370.043 339.12 367.643 339.12C366.563 339.12 365.707 339.496 365.091 340.144V336.48H363.659V348H364.931V347.024C365.563 347.784 366.467 348.24 367.635 348.24ZM364.931 343.672C364.931 341.76 365.731 340.424 367.419 340.424C369.179 340.424 369.995 341.848 369.995 343.672C369.995 345.512 369.163 346.936 367.459 346.936C365.715 346.936 364.931 345.568 364.931 343.672ZM377.229 348.24C379.645 348.24 381.101 346.264 381.101 343.672C381.101 341.08 379.637 339.12 377.237 339.12C376.061 339.12 375.157 339.568 374.525 340.328V339.36H373.253V351.84H374.685V347.2C375.301 347.856 376.157 348.24 377.229 348.24ZM374.525 343.672C374.525 341.76 375.325 340.424 377.013 340.424C378.773 340.424 379.589 341.848 379.589 343.672C379.589 345.512 378.757 346.936 377.053 346.936C375.309 346.936 374.525 345.568 374.525 343.672Z" fill="#110529"/>
<path d="M342 362H746" stroke="#110529" stroke-width="2" stroke-linecap="square"/>
<path d="M327 362L326.293 361.293L325.586 362L326.293 362.707L327 362ZM334.293 370.707L335 371.414L336.414 370L335.707 369.293L334.293 370.707ZM335.707 354.707L336.414 354L335 352.586L334.293 353.293L335.707 354.707ZM347 361L327 361L327 363L347 363L347 361ZM326.293 362.707L334.293 370.707L335.707 369.293L327.707 361.293L326.293 362.707ZM327.707 362.707L335.707 354.707L334.293 353.293L326.293 361.293L327.707 362.707Z" fill="#110529"/>
<rect width="56" height="20" transform="translate(494 352)" fill="white"/>
<path d="M498.8 367.992H506.456V366.632H500.992L504.704 363.296C505.888 362.248 506.456 361.488 506.456 359.976C506.456 357.856 504.84 356.24 502.704 356.24C500.488 356.24 498.856 357.784 498.856 359.952H500.312C500.296 358.696 501.304 357.6 502.68 357.6C504.008 357.6 505 358.632 505 359.96C505 360.688 504.768 361.352 503.92 362.112L498.808 366.712L498.8 367.992ZM511.778 368.24C513.922 368.24 515.738 366.504 515.738 364.376C515.738 362.232 514.114 360.584 511.978 360.584C511.202 360.584 510.426 360.848 509.826 361.328L510.034 357.832H514.938V356.48H508.754L508.402 362.504L509.666 362.984C510.082 362.384 510.802 361.896 511.818 361.896C513.162 361.896 514.306 362.984 514.306 364.376C514.306 365.728 513.218 366.856 511.818 366.856C510.746 366.856 509.706 366.144 509.418 365.008L508.05 365.376C508.514 367.056 509.994 368.24 511.778 368.24ZM521.539 368.24C523.779 368.24 525.427 366.592 525.427 364.352V360.128C525.427 357.888 523.779 356.24 521.539 356.24C519.299 356.24 517.651 357.888 517.651 360.128V364.352C517.651 366.592 519.299 368.24 521.539 368.24ZM519.099 364.432V360.04C519.099 358.688 520.187 357.6 521.539 357.6C522.891 357.6 523.979 358.688 523.979 360.04V364.432C523.979 365.784 522.891 366.872 521.539 366.872C520.187 366.872 519.099 365.784 519.099 364.432ZM531.635 368.24C534.051 368.24 535.507 366.264 535.507 363.672C535.507 361.08 534.043 359.12 531.643 359.12C530.563 359.12 529.707 359.496 529.091 360.144V356.48H527.659V368H528.931V367.024C529.563 367.784 530.467 368.24 531.635 368.24ZM528.931 363.672C528.931 361.76 529.731 360.424 531.419 360.424C533.179 360.424 533.995 361.848 533.995 363.672C533.995 365.512 533.163 366.936 531.459 366.936C529.715 366.936 528.931 365.568 528.931 363.672ZM541.229 368.24C543.645 368.24 545.101 366.264 545.101 363.672C545.101 361.08 543.637 359.12 541.237 359.12C540.061 359.12 539.157 359.568 538.525 360.328V359.36H537.253V371.84H538.685V367.2C539.301 367.856 540.157 368.24 541.229 368.24ZM538.525 363.672C538.525 361.76 539.325 360.424 541.013 360.424C542.773 360.424 543.589 361.848 543.589 363.672C543.589 365.512 542.757 366.936 541.053 366.936C539.309 366.936 538.525 365.568 538.525 363.672Z" fill="#110529"/>
<path d="M851 184V200H841V208L827 192L841 176V184H851Z" fill="#110529"/>
<path d="M860.4 200H862.18V194.68H866.39L868.97 200H871.01L868.23 194.29C869.86 193.61 870.71 192.04 870.71 190.14C870.71 187.85 869.48 186.04 867.15 185.68C866.78 185.62 866.37 185.6 866.09 185.6H860.4V200ZM862.18 192.99V187.29H866.03C866.28 187.29 866.63 187.31 866.93 187.38C868.31 187.69 868.89 188.94 868.89 190.14C868.89 191.34 868.31 192.59 866.93 192.9C866.63 192.97 866.28 192.99 866.03 192.99H862.18ZM872.813 199.99H882.383V198.29H875.553L880.193 194.12C881.673 192.81 882.383 191.86 882.383 189.97C882.383 187.32 880.363 185.3 877.692 185.3C874.923 185.3 872.883 187.23 872.883 189.94H874.703C874.683 188.37 875.943 187 877.663 187C879.323 187 880.563 188.29 880.563 189.95C880.563 190.86 880.273 191.69 879.213 192.64L872.823 198.39L872.813 199.99Z" fill="#110529"/>
<path d="M15.11 114H16.89V101.29H21.8V99.6H10.2V101.29H15.11V114ZM29.3122 114.3C32.6422 114.3 34.8322 112.47 35.6522 109.61L33.8422 109.13C33.2522 111.27 31.7422 112.6 29.3122 112.6C26.0922 112.6 24.4522 110.25 24.4722 106.8C24.4922 103.35 26.0922 101 29.3122 101C31.7422 101 33.2522 102.33 33.8422 104.47L35.6522 103.99C34.8322 101.13 32.6422 99.3 29.3122 99.3C25.0022 99.3 22.5922 102.36 22.5922 106.8C22.5922 111.24 25.0022 114.3 29.3122 114.3ZM37.8453 114H39.6253V108.68H43.8353L46.4153 114H48.4553L45.6753 108.29C47.3053 107.61 48.1553 106.04 48.1553 104.14C48.1553 101.85 46.9253 100.04 44.5953 99.68C44.2253 99.62 43.8153 99.6 43.5353 99.6H37.8453V114ZM39.6253 106.99V101.29H43.4753C43.7253 101.29 44.0753 101.31 44.3753 101.38C45.7553 101.69 46.3353 102.94 46.3353 104.14C46.3353 105.34 45.7553 106.59 44.3753 106.9C44.0753 106.97 43.7253 106.99 43.4753 106.99H39.6253ZM54.6517 103.2V118.8H56.4317V113.39C57.1417 113.96 58.1317 114.3 59.3617 114.3C62.4117 114.3 64.2617 112.57 64.2617 109.95C64.2617 107.74 62.8617 106.44 61.4717 106.09C62.5217 105.58 63.0317 104.5 63.0317 103.22C63.0317 100.84 61.2817 99.3 58.7917 99.3C56.9317 99.3 55.4017 100.16 54.8717 101.78C54.7217 102.23 54.6517 102.71 54.6517 103.2ZM56.4717 109.71V103.86C56.4717 103.44 56.4917 102.8 56.7017 102.28C57.0617 101.35 57.9417 100.99 58.8317 100.99C60.2117 100.99 61.2117 101.82 61.2117 103.24C61.2117 104.67 60.2117 105.4 58.8417 105.54V107.14C61.0317 107.18 62.4517 108.1 62.4517 109.87C62.4517 111.52 61.2117 112.61 59.4417 112.61C58.1917 112.61 56.9517 112.04 56.6217 111.01C56.5017 110.64 56.4717 110.1 56.4717 109.71Z" fill="#110529"/>
<path d="M14.11 284H15.89V271.29H20.8V269.6H9.2V271.29H14.11V284ZM28.3122 284.3C31.6422 284.3 33.8322 282.47 34.6522 279.61L32.8422 279.13C32.2522 281.27 30.7422 282.6 28.3122 282.6C25.0922 282.6 23.4522 280.25 23.4722 276.8C23.4922 273.35 25.0922 271 28.3122 271C30.7422 271 32.2522 272.33 32.8422 274.47L34.6522 273.99C33.8322 271.13 31.6422 269.3 28.3122 269.3C24.0022 269.3 21.5922 272.36 21.5922 276.8C21.5922 281.24 24.0022 284.3 28.3122 284.3ZM36.8453 284H38.6253V278.68H42.8353L45.4153 284H47.4553L44.6753 278.29C46.3053 277.61 47.1553 276.04 47.1553 274.14C47.1553 271.85 45.9253 270.04 43.5953 269.68C43.2253 269.62 42.8153 269.6 42.5353 269.6H36.8453V284ZM38.6253 276.99V271.29H42.4753C42.7253 271.29 43.0753 271.31 43.3753 271.38C44.7553 271.69 45.3353 272.94 45.3353 274.14C45.3353 275.34 44.7553 276.59 43.3753 276.9C43.0753 276.97 42.7253 276.99 42.4753 276.99H38.6253ZM57.9317 284.3C59.5717 284.3 60.8817 283.54 61.5817 282.24V284H63.1717V273.2H61.5817V274.93C60.8917 273.65 59.6317 272.9 57.9817 272.9C54.8817 272.9 53.0617 275.35 53.0617 278.6C53.0617 281.83 54.8717 284.3 57.9317 284.3ZM54.9517 278.6C54.9517 276.19 56.0617 274.53 58.1717 274.53C60.2817 274.53 61.2817 276.2 61.2817 278.59C61.2817 280.96 60.2917 282.67 58.1517 282.67C55.9817 282.67 54.9517 280.88 54.9517 278.6Z" fill="#110529"/>
<defs>
<filter id="filter0_i_5808_36406" x="122.737" y="79" width="466.263" height="54" filterUnits="userSpaceOnUse" color-interpolation-filters="sRGB">
<feFlood flood-opacity="0" result="BackgroundImageFix"/>
<feBlend mode="normal" in="SourceGraphic" in2="BackgroundImageFix" result="shape"/>
<feColorMatrix in="SourceAlpha" type="matrix" values="0 0 0 0 0 0 0 0 0 0 0 0 0 0 0 0 0 0 127 0" result="hardAlpha"/>
<feOffset dx="-8" dy="-4"/>
<feComposite in2="hardAlpha" operator="arithmetic" k2="-1" k3="1"/>
<feColorMatrix type="matrix" values="0 0 0 0 0.0666667 0 0 0 0 0.0196078 0 0 0 0 0.160784 0 0 0 0.16 0"/>
<feBlend mode="normal" in2="shape" result="effect1_innerShadow_5808_36406"/>
</filter>
<filter id="filter1_i_5808_36406" x="587" y="79" width="32" height="54" filterUnits="userSpaceOnUse" color-interpolation-filters="sRGB">
<feFlood flood-opacity="0" result="BackgroundImageFix"/>
<feBlend mode="normal" in="SourceGraphic" in2="BackgroundImageFix" result="shape"/>
<feColorMatrix in="SourceAlpha" type="matrix" values="0 0 0 0 0 0 0 0 0 0 0 0 0 0 0 0 0 0 127 0" result="hardAlpha"/>
<feOffset dx="-8" dy="-4"/>
<feComposite in2="hardAlpha" operator="arithmetic" k2="-1" k3="1"/>
<feColorMatrix type="matrix" values="0 0 0 0 0.0666667 0 0 0 0 0.0196078 0 0 0 0 0.160784 0 0 0 0.16 0"/>
<feBlend mode="normal" in2="shape" result="effect1_innerShadow_5808_36406"/>
</filter>
<filter id="filter2_i_5808_36406" x="653" y="79" width="32" height="54" filterUnits="userSpaceOnUse" color-interpolation-filters="sRGB">
<feFlood flood-opacity="0" result="BackgroundImageFix"/>
<feBlend mode="normal" in="SourceGraphic" in2="BackgroundImageFix" result="shape"/>
<feColorMatrix in="SourceAlpha" type="matrix" values="0 0 0 0 0 0 0 0 0 0 0 0 0 0 0 0 0 0 127 0" result="hardAlpha"/>
<feOffset dx="-8" dy="-4"/>
<feComposite in2="hardAlpha" operator="arithmetic" k2="-1" k3="1"/>
<feColorMatrix type="matrix" values="0 0 0 0 0.0666667 0 0 0 0 0.0196078 0 0 0 0 0.160784 0 0 0 0.16 0"/>
<feBlend mode="normal" in2="shape" result="effect1_innerShadow_5808_36406"/>
</filter>
<filter id="filter3_i_5808_36406" x="617" y="79" width="38" height="54" filterUnits="userSpaceOnUse" color-interpolation-filters="sRGB">
<feFlood flood-opacity="0" result="BackgroundImageFix"/>
<feBlend mode="normal" in="SourceGraphic" in2="BackgroundImageFix" result="shape"/>
<feColorMatrix in="SourceAlpha" type="matrix" values="0 0 0 0 0 0 0 0 0 0 0 0 0 0 0 0 0 0 127 0" result="hardAlpha"/>
<feOffset dx="-8" dy="-4"/>
<feComposite in2="hardAlpha" operator="arithmetic" k2="-1" k3="1"/>
<feColorMatrix type="matrix" values="0 0 0 0 0.0666667 0 0 0 0 0.0196078 0 0 0 0 0.160784 0 0 0 0.16 0"/>
<feBlend mode="normal" in2="shape" result="effect1_innerShadow_5808_36406"/>
</filter>
<filter id="filter4_i_5808_36406" x="683" y="79" width="146" height="54" filterUnits="userSpaceOnUse" color-interpolation-filters="sRGB">
<feFlood flood-opacity="0" result="BackgroundImageFix"/>
<feBlend mode="normal" in="SourceGraphic" in2="BackgroundImageFix" result="shape"/>
<feColorMatrix in="SourceAlpha" type="matrix" values="0 0 0 0 0 0 0 0 0 0 0 0 0 0 0 0 0 0 127 0" result="hardAlpha"/>
<feOffset dx="-8" dy="-4"/>
<feComposite in2="hardAlpha" operator="arithmetic" k2="-1" k3="1"/>
<feColorMatrix type="matrix" values="0 0 0 0 0.0666667 0 0 0 0 0.0196078 0 0 0 0 0.160784 0 0 0 0.16 0"/>
<feBlend mode="normal" in2="shape" result="effect1_innerShadow_5808_36406"/>
</filter>
<filter id="filter5_i_5808_36406" x="827" y="79" width="59.0309" height="54" filterUnits="userSpaceOnUse" color-interpolation-filters="sRGB">
<feFlood flood-opacity="0" result="BackgroundImageFix"/>
<feBlend mode="normal" in="SourceGraphic" in2="BackgroundImageFix" result="shape"/>
<feColorMatrix in="SourceAlpha" type="matrix" values="0 0 0 0 0 0 0 0 0 0 0 0 0 0 0 0 0 0 127 0" result="hardAlpha"/>
<feOffset dx="-8" dy="-4"/>
<feComposite in2="hardAlpha" operator="arithmetic" k2="-1" k3="1"/>
<feColorMatrix type="matrix" values="0 0 0 0 0.0666667 0 0 0 0 0.0196078 0 0 0 0 0.160784 0 0 0 0.16 0"/>
<feBlend mode="normal" in2="shape" result="effect1_innerShadow_5808_36406"/>
</filter>
<filter id="filter6_i_5808_36406" x="122.737" y="249" width="466.263" height="54" filterUnits="userSpaceOnUse" color-interpolation-filters="sRGB">
<feFlood flood-opacity="0" result="BackgroundImageFix"/>
<feBlend mode="normal" in="SourceGraphic" in2="BackgroundImageFix" result="shape"/>
<feColorMatrix in="SourceAlpha" type="matrix" values="0 0 0 0 0 0 0 0 0 0 0 0 0 0 0 0 0 0 127 0" result="hardAlpha"/>
<feOffset dx="-8" dy="-4"/>
<feComposite in2="hardAlpha" operator="arithmetic" k2="-1" k3="1"/>
<feColorMatrix type="matrix" values="0 0 0 0 0.0666667 0 0 0 0 0.0196078 0 0 0 0 0.160784 0 0 0 0.16 0"/>
<feBlend mode="normal" in2="shape" result="effect1_innerShadow_5808_36406"/>
</filter>
<filter id="filter7_i_5808_36406" x="587" y="249" width="32" height="54" filterUnits="userSpaceOnUse" color-interpolation-filters="sRGB">
<feFlood flood-opacity="0" result="BackgroundImageFix"/>
<feBlend mode="normal" in="SourceGraphic" in2="BackgroundImageFix" result="shape"/>
<feColorMatrix in="SourceAlpha" type="matrix" values="0 0 0 0 0 0 0 0 0 0 0 0 0 0 0 0 0 0 127 0" result="hardAlpha"/>
<feOffset dx="-8" dy="-4"/>
<feComposite in2="hardAlpha" operator="arithmetic" k2="-1" k3="1"/>
<feColorMatrix type="matrix" values="0 0 0 0 0.0666667 0 0 0 0 0.0196078 0 0 0 0 0.160784 0 0 0 0.16 0"/>
<feBlend mode="normal" in2="shape" result="effect1_innerShadow_5808_36406"/>
</filter>
<filter id="filter8_i_5808_36406" x="617" y="249" width="146" height="54" filterUnits="userSpaceOnUse" color-interpolation-filters="sRGB">
<feFlood flood-opacity="0" result="BackgroundImageFix"/>
<feBlend mode="normal" in="SourceGraphic" in2="BackgroundImageFix" result="shape"/>
<feColorMatrix in="SourceAlpha" type="matrix" values="0 0 0 0 0 0 0 0 0 0 0 0 0 0 0 0 0 0 127 0" result="hardAlpha"/>
<feOffset dx="-8" dy="-4"/>
<feComposite in2="hardAlpha" operator="arithmetic" k2="-1" k3="1"/>
<feColorMatrix type="matrix" values="0 0 0 0 0.0666667 0 0 0 0 0.0196078 0 0 0 0 0.160784 0 0 0 0.16 0"/>
<feBlend mode="normal" in2="shape" result="effect1_innerShadow_5808_36406"/>
</filter>
<filter id="filter9_i_5808_36406" x="761" y="249" width="59.0309" height="54" filterUnits="userSpaceOnUse" color-interpolation-filters="sRGB">
<feFlood flood-opacity="0" result="BackgroundImageFix"/>
<feBlend mode="normal" in="SourceGraphic" in2="BackgroundImageFix" result="shape"/>
<feColorMatrix in="SourceAlpha" type="matrix" values="0 0 0 0 0 0 0 0 0 0 0 0 0 0 0 0 0 0 127 0" result="hardAlpha"/>
<feOffset dx="-8" dy="-4"/>
<feComposite in2="hardAlpha" operator="arithmetic" k2="-1" k3="1"/>
<feColorMatrix type="matrix" values="0 0 0 0 0.0666667 0 0 0 0 0.0196078 0 0 0 0 0.160784 0 0 0 0.16 0"/>
<feBlend mode="normal" in2="shape" result="effect1_innerShadow_5808_36406"/>
</filter>
</defs>
</svg>
