<svg width="960" height="376" viewBox="0 0 960 376" fill="none" xmlns="http://www.w3.org/2000/svg">
    <rect width="960" height="376" fill="#1D1D29"/>
    <path d="M388 180L387.293 180.707L386.586 180L387.293 179.293L388 180ZM395.293 171.293L396 170.586L397.414 172L396.707 172.707L395.293 171.293ZM396.707 187.293L397.414 188L396 189.414L395.293 188.707L396.707 187.293ZM398 181L388 181L388 179L398 179L398 181ZM387.293 179.293L395.293 171.293L396.707 172.707L388.707 180.707L387.293 179.293ZM388.707 179.293L396.707 187.293L395.293 188.707L387.293 180.707L388.707 179.293Z" fill="#D3D7E0"/>
    <path d="M591.5 180H398" stroke="#D3D7E0" stroke-width="2"/>
    <rect width="57" height="20" transform="translate(591.5 170)" fill="#1D1D29"/>
    <path d="M596.933 185.992H604.589V184.632H599.125L602.837 181.296C604.021 180.248 604.589 179.488 604.589 177.976C604.589 175.856 602.973 174.24 600.837 174.24C598.621 174.24 596.989 175.784 596.989 177.952H598.445C598.429 176.696 599.437 175.6 600.813 175.6C602.141 175.6 603.133 176.632 603.133 177.96C603.133 178.688 602.901 179.352 602.053 180.112L596.941 184.712L596.933 185.992ZM609.911 186.24C612.055 186.24 613.871 184.504 613.871 182.376C613.871 180.232 612.247 178.584 610.111 178.584C609.335 178.584 608.559 178.848 607.959 179.328L608.167 175.832H613.071V174.48H606.887L606.535 180.504L607.799 180.984C608.215 180.384 608.935 179.896 609.951 179.896C611.295 179.896 612.439 180.984 612.439 182.376C612.439 183.728 611.351 184.856 609.951 184.856C608.879 184.856 607.839 184.144 607.551 183.008L606.183 183.376C606.647 185.056 608.127 186.24 609.911 186.24ZM619.672 186.24C621.912 186.24 623.56 184.592 623.56 182.352V178.128C623.56 175.888 621.912 174.24 619.672 174.24C617.432 174.24 615.784 175.888 615.784 178.128V182.352C615.784 184.592 617.432 186.24 619.672 186.24ZM617.232 182.432V178.04C617.232 176.688 618.32 175.6 619.672 175.6C621.024 175.6 622.112 176.688 622.112 178.04V182.432C622.112 183.784 621.024 184.872 619.672 184.872C618.32 184.872 617.232 183.784 617.232 182.432ZM629.768 186.24C632.184 186.24 633.64 184.264 633.64 181.672C633.64 179.08 632.176 177.12 629.776 177.12C628.696 177.12 627.84 177.496 627.224 178.144V174.48H625.792V186H627.064V185.024C627.696 185.784 628.6 186.24 629.768 186.24ZM627.064 181.672C627.064 179.76 627.864 178.424 629.552 178.424C631.312 178.424 632.128 179.848 632.128 181.672C632.128 183.512 631.296 184.936 629.592 184.936C627.848 184.936 627.064 183.568 627.064 181.672ZM639.361 186.24C641.777 186.24 643.233 184.264 643.233 181.672C643.233 179.08 641.769 177.12 639.369 177.12C638.193 177.12 637.289 177.568 636.657 178.328V177.36H635.385V189.84H636.817V185.2C637.433 185.856 638.289 186.24 639.361 186.24ZM636.657 181.672C636.657 179.76 637.457 178.424 639.145 178.424C640.905 178.424 641.721 179.848 641.721 181.672C641.721 183.512 640.889 184.936 639.185 184.936C637.441 184.936 636.657 183.568 636.657 181.672Z" fill="white"/>
    <path d="M842 180H648.5" stroke="#D3D7E0" stroke-width="2"/>
    <path d="M849.12 186H850.544V181.744H853.912L855.976 186H857.608L855.384 181.432C856.688 180.888 857.368 179.632 857.368 178.112C857.368 176.28 856.384 174.832 854.52 174.544C854.224 174.496 853.896 174.48 853.672 174.48H849.12V186ZM850.544 180.392V175.832H853.624C853.824 175.832 854.104 175.848 854.344 175.904C855.448 176.152 855.912 177.152 855.912 178.112C855.912 179.072 855.448 180.072 854.344 180.32C854.104 180.376 853.824 180.392 853.624 180.392H850.544ZM859.05 185.992H866.706V184.632H861.242L864.954 181.296C866.138 180.248 866.706 179.488 866.706 177.976C866.706 175.856 865.09 174.24 862.954 174.24C860.738 174.24 859.106 175.784 859.106 177.952H860.562C860.546 176.696 861.554 175.6 862.93 175.6C864.258 175.6 865.25 176.632 865.25 177.96C865.25 178.688 865.018 179.352 864.17 180.112L859.058 184.712L859.05 185.992Z" fill="white"/>
    <rect x="842" y="168" width="32" height="24" rx="1" stroke="#D3D7E0" stroke-width="2"/>
    <path d="M318 340L317.293 340.707L316.586 340L317.293 339.293L318 340ZM325.293 331.293L326 330.586L327.414 332L326.707 332.707L325.293 331.293ZM326.707 347.293L327.414 348L326 349.414L325.293 348.707L326.707 347.293ZM328 341L318 341L318 339L328 339L328 341ZM317.293 339.293L325.293 331.293L326.707 332.707L318.707 340.707L317.293 339.293ZM318.707 339.293L326.707 347.293L325.293 348.707L317.293 340.707L318.707 339.293Z" fill="#D3D7E0"/>
    <path d="M521.5 340H328" stroke="#D3D7E0" stroke-width="2"/>
    <rect width="57" height="20" transform="translate(521.5 330)" fill="#1D1D29"/>
    <path d="M526.933 345.992H534.589V344.632H529.125L532.837 341.296C534.021 340.248 534.589 339.488 534.589 337.976C534.589 335.856 532.973 334.24 530.837 334.24C528.621 334.24 526.989 335.784 526.989 337.952H528.445C528.429 336.696 529.437 335.6 530.813 335.6C532.141 335.6 533.133 336.632 533.133 337.96C533.133 338.688 532.901 339.352 532.053 340.112L526.941 344.712L526.933 345.992ZM539.911 346.24C542.055 346.24 543.871 344.504 543.871 342.376C543.871 340.232 542.247 338.584 540.111 338.584C539.335 338.584 538.559 338.848 537.959 339.328L538.167 335.832H543.071V334.48H536.887L536.535 340.504L537.799 340.984C538.215 340.384 538.935 339.896 539.951 339.896C541.295 339.896 542.439 340.984 542.439 342.376C542.439 343.728 541.351 344.856 539.951 344.856C538.879 344.856 537.839 344.144 537.551 343.008L536.183 343.376C536.647 345.056 538.127 346.24 539.911 346.24ZM549.672 346.24C551.912 346.24 553.56 344.592 553.56 342.352V338.128C553.56 335.888 551.912 334.24 549.672 334.24C547.432 334.24 545.784 335.888 545.784 338.128V342.352C545.784 344.592 547.432 346.24 549.672 346.24ZM547.232 342.432V338.04C547.232 336.688 548.32 335.6 549.672 335.6C551.024 335.6 552.112 336.688 552.112 338.04V342.432C552.112 343.784 551.024 344.872 549.672 344.872C548.32 344.872 547.232 343.784 547.232 342.432ZM559.768 346.24C562.184 346.24 563.64 344.264 563.64 341.672C563.64 339.08 562.176 337.12 559.776 337.12C558.696 337.12 557.84 337.496 557.224 338.144V334.48H555.792V346H557.064V345.024C557.696 345.784 558.6 346.24 559.768 346.24ZM557.064 341.672C557.064 339.76 557.864 338.424 559.552 338.424C561.312 338.424 562.128 339.848 562.128 341.672C562.128 343.512 561.296 344.936 559.592 344.936C557.848 344.936 557.064 343.568 557.064 341.672ZM569.361 346.24C571.777 346.24 573.233 344.264 573.233 341.672C573.233 339.08 571.769 337.12 569.369 337.12C568.193 337.12 567.289 337.568 566.657 338.328V337.36H565.385V349.84H566.817V345.2C567.433 345.856 568.289 346.24 569.361 346.24ZM566.657 341.672C566.657 339.76 567.457 338.424 569.145 338.424C570.905 338.424 571.721 339.848 571.721 341.672C571.721 343.512 570.889 344.936 569.185 344.936C567.441 344.936 566.657 343.568 566.657 341.672Z" fill="white"/>
    <path d="M772 340H578.5" stroke="#D3D7E0" stroke-width="2"/>
    <path d="M779.12 346H780.544V341.744H783.912L785.976 346H787.608L785.384 341.432C786.688 340.888 787.368 339.632 787.368 338.112C787.368 336.28 786.384 334.832 784.52 334.544C784.224 334.496 783.896 334.48 783.672 334.48H779.12V346ZM780.544 340.392V335.832H783.624C783.824 335.832 784.104 335.848 784.344 335.904C785.448 336.152 785.912 337.152 785.912 338.112C785.912 339.072 785.448 340.072 784.344 340.32C784.104 340.376 783.824 340.392 783.624 340.392H780.544ZM789.05 345.992H796.706V344.632H791.242L794.954 341.296C796.138 340.248 796.706 339.488 796.706 337.976C796.706 335.856 795.09 334.24 792.954 334.24C790.738 334.24 789.106 335.784 789.106 337.952H790.562C790.546 336.696 791.554 335.6 792.93 335.6C794.258 335.6 795.25 336.632 795.25 337.96C795.25 338.688 795.018 339.352 794.17 340.112L789.058 344.712L789.05 345.992Z" fill="white"/>
    <rect x="772" y="328" width="32" height="24" rx="1" stroke="#D3D7E0" stroke-width="2"/>
    <path d="M156.62 162H158.044V157.744H161.412L163.476 162H165.108L162.884 157.432C164.188 156.888 164.868 155.632 164.868 154.112C164.868 152.28 163.884 150.832 162.02 150.544C161.724 150.496 161.396 150.48 161.172 150.48H156.62V162ZM158.044 156.392V151.832H161.124C161.324 151.832 161.604 151.848 161.844 151.904C162.948 152.152 163.412 153.152 163.412 154.112C163.412 155.072 162.948 156.072 161.844 156.32C161.604 156.376 161.324 156.392 161.124 156.392H158.044ZM168.878 162H170.326V150.48H168.878L166.71 151.776V153.368L168.878 152.056V162Z" fill="white"/>
    <rect x="148" y="144" width="32" height="24" rx="1" stroke="#D3D7E0" stroke-width="2"/>
    <path d="M338 156H180" stroke="#D3D7E0" stroke-width="2"/>
    <rect width="56" height="20" transform="translate(338 146)" fill="#1D1D29"/>
    <path d="M342.933 161.992H350.589V160.632H345.125L348.837 157.296C350.021 156.248 350.589 155.488 350.589 153.976C350.589 151.856 348.973 150.24 346.837 150.24C344.621 150.24 342.989 151.784 342.989 153.952H344.445C344.429 152.696 345.437 151.6 346.813 151.6C348.141 151.6 349.133 152.632 349.133 153.96C349.133 154.688 348.901 155.352 348.053 156.112L342.941 160.712L342.933 161.992ZM355.911 162.24C358.055 162.24 359.871 160.504 359.871 158.376C359.871 156.232 358.247 154.584 356.111 154.584C355.335 154.584 354.559 154.848 353.959 155.328L354.167 151.832H359.071V150.48H352.887L352.535 156.504L353.799 156.984C354.215 156.384 354.935 155.896 355.951 155.896C357.295 155.896 358.439 156.984 358.439 158.376C358.439 159.728 357.351 160.856 355.951 160.856C354.879 160.856 353.839 160.144 353.551 159.008L352.183 159.376C352.647 161.056 354.127 162.24 355.911 162.24ZM365.672 162.24C367.912 162.24 369.56 160.592 369.56 158.352V154.128C369.56 151.888 367.912 150.24 365.672 150.24C363.432 150.24 361.784 151.888 361.784 154.128V158.352C361.784 160.592 363.432 162.24 365.672 162.24ZM363.232 158.432V154.04C363.232 152.688 364.32 151.6 365.672 151.6C367.024 151.6 368.112 152.688 368.112 154.04V158.432C368.112 159.784 367.024 160.872 365.672 160.872C364.32 160.872 363.232 159.784 363.232 158.432ZM375.768 162.24C378.184 162.24 379.64 160.264 379.64 157.672C379.64 155.08 378.176 153.12 375.776 153.12C374.696 153.12 373.84 153.496 373.224 154.144V150.48H371.792V162H373.064V161.024C373.696 161.784 374.6 162.24 375.768 162.24ZM373.064 157.672C373.064 155.76 373.864 154.424 375.552 154.424C377.312 154.424 378.128 155.848 378.128 157.672C378.128 159.512 377.296 160.936 375.592 160.936C373.848 160.936 373.064 159.568 373.064 157.672ZM385.361 162.24C387.777 162.24 389.233 160.264 389.233 157.672C389.233 155.08 387.769 153.12 385.369 153.12C384.193 153.12 383.289 153.568 382.657 154.328V153.36H381.385V165.84H382.817V161.2C383.433 161.856 384.289 162.24 385.361 162.24ZM382.657 157.672C382.657 155.76 383.457 154.424 385.145 154.424C386.905 154.424 387.721 155.848 387.721 157.672C387.721 159.512 386.889 160.936 385.185 160.936C383.441 160.936 382.657 159.568 382.657 157.672Z" fill="white"/>
    <path d="M552 156H394" stroke="#D3D7E0" stroke-width="2"/>
    <path d="M562 156L562.707 155.293L563.414 156L562.707 156.707L562 156ZM554.707 164.707L554 165.414L552.586 164L553.293 163.293L554.707 164.707ZM553.293 148.707L552.586 148L554 146.586L554.707 147.293L553.293 148.707ZM552 155L562 155L562 157L552 157L552 155ZM562.707 156.707L554.707 164.707L553.293 163.293L561.293 155.293L562.707 156.707ZM561.293 156.707L553.293 148.707L554.707 147.293L562.707 155.293L561.293 156.707Z" fill="#D3D7E0"/>
    <path d="M156.62 322H158.044V317.744H161.412L163.476 322H165.108L162.884 317.432C164.188 316.888 164.868 315.632 164.868 314.112C164.868 312.28 163.884 310.832 162.02 310.544C161.724 310.496 161.396 310.48 161.172 310.48H156.62V322ZM158.044 316.392V311.832H161.124C161.324 311.832 161.604 311.848 161.844 311.904C162.948 312.152 163.412 313.152 163.412 314.112C163.412 315.072 162.948 316.072 161.844 316.32C161.604 316.376 161.324 316.392 161.124 316.392H158.044ZM168.878 322H170.326V310.48H168.878L166.71 311.776V313.368L168.878 312.056V322Z" fill="white"/>
    <rect x="148" y="304" width="32" height="24" rx="1" stroke="#D3D7E0" stroke-width="2"/>
    <path d="M338 316H180" stroke="#D3D7E0" stroke-width="2"/>
    <rect width="56" height="20" transform="translate(338 306)" fill="#1D1D29"/>
    <path d="M342.933 321.992H350.589V320.632H345.125L348.837 317.296C350.021 316.248 350.589 315.488 350.589 313.976C350.589 311.856 348.973 310.24 346.837 310.24C344.621 310.24 342.989 311.784 342.989 313.952H344.445C344.429 312.696 345.437 311.6 346.813 311.6C348.141 311.6 349.133 312.632 349.133 313.96C349.133 314.688 348.901 315.352 348.053 316.112L342.941 320.712L342.933 321.992ZM355.911 322.24C358.055 322.24 359.871 320.504 359.871 318.376C359.871 316.232 358.247 314.584 356.111 314.584C355.335 314.584 354.559 314.848 353.959 315.328L354.167 311.832H359.071V310.48H352.887L352.535 316.504L353.799 316.984C354.215 316.384 354.935 315.896 355.951 315.896C357.295 315.896 358.439 316.984 358.439 318.376C358.439 319.728 357.351 320.856 355.951 320.856C354.879 320.856 353.839 320.144 353.551 319.008L352.183 319.376C352.647 321.056 354.127 322.24 355.911 322.24ZM365.672 322.24C367.912 322.24 369.56 320.592 369.56 318.352V314.128C369.56 311.888 367.912 310.24 365.672 310.24C363.432 310.24 361.784 311.888 361.784 314.128V318.352C361.784 320.592 363.432 322.24 365.672 322.24ZM363.232 318.432V314.04C363.232 312.688 364.32 311.6 365.672 311.6C367.024 311.6 368.112 312.688 368.112 314.04V318.432C368.112 319.784 367.024 320.872 365.672 320.872C364.32 320.872 363.232 319.784 363.232 318.432ZM375.768 322.24C378.184 322.24 379.64 320.264 379.64 317.672C379.64 315.08 378.176 313.12 375.776 313.12C374.696 313.12 373.84 313.496 373.224 314.144V310.48H371.792V322H373.064V321.024C373.696 321.784 374.6 322.24 375.768 322.24ZM373.064 317.672C373.064 315.76 373.864 314.424 375.552 314.424C377.312 314.424 378.128 315.848 378.128 317.672C378.128 319.512 377.296 320.936 375.592 320.936C373.848 320.936 373.064 319.568 373.064 317.672ZM385.361 322.24C387.777 322.24 389.233 320.264 389.233 317.672C389.233 315.08 387.769 313.12 385.369 313.12C384.193 313.12 383.289 313.568 382.657 314.328V313.36H381.385V325.84H382.817V321.2C383.433 321.856 384.289 322.24 385.361 322.24ZM382.657 317.672C382.657 315.76 383.457 314.424 385.145 314.424C386.905 314.424 387.721 315.848 387.721 317.672C387.721 319.512 386.889 320.936 385.185 320.936C383.441 320.936 382.657 319.568 382.657 317.672Z" fill="white"/>
    <path d="M552 316H394" stroke="#D3D7E0" stroke-width="2"/>
    <path d="M562 316L562.707 315.293L563.414 316L562.707 316.707L562 316ZM554.707 324.707L554 325.414L552.586 324L553.293 323.293L554.707 324.707ZM553.293 308.707L552.586 308L554 306.586L554.707 307.293L553.293 308.707ZM552 315L562 315L562 317L552 317L552 315ZM562.707 316.707L554.707 324.707L553.293 323.293L561.293 315.293L562.707 316.707ZM561.293 316.707L553.293 308.707L554.707 307.293L562.707 315.293L561.293 316.707Z" fill="#D3D7E0"/>
    <path d="M137 84V24" stroke="white" stroke-opacity="0.3" stroke-width="2" stroke-linecap="square" stroke-dasharray="6 6"/>
    <path d="M160.442 37H166.469V35.621H161.905V26.92H160.442V37Z" fill="white" fill-opacity="0.3"/>
    <path d="M187 84V24" stroke="white" stroke-opacity="0.3" stroke-width="2" stroke-linecap="square" stroke-dasharray="6 6"/>
    <path d="M214.858 37H216.321V32.695H219.989V31.225H216.321V28.383H220.829V26.92H214.858V37ZM222.09 37H223.553V33.381H226.227L227.984 37H229.657L227.753 33.094C228.894 32.597 229.468 31.491 229.468 30.147C229.468 28.516 228.628 27.235 226.941 26.976C226.675 26.934 226.36 26.92 226.164 26.92H222.09V37ZM223.553 31.995V28.299H226.108C226.29 28.299 226.535 28.313 226.745 28.369C227.641 28.579 227.977 29.405 227.977 30.147C227.977 30.889 227.641 31.715 226.745 31.932C226.535 31.981 226.29 31.995 226.108 31.995H223.553ZM232.953 37H234.444V26.92H232.953L231.056 28.054V29.685L232.953 28.53V37Z" fill="white" fill-opacity="0.3"/>
    <path d="M263 84V24" stroke="white" stroke-opacity="0.3" stroke-width="2" stroke-linecap="square" stroke-dasharray="6 6"/>
    <path d="M288.735 37.21C291.059 37.21 292.62 35.943 293.215 33.955L291.731 33.556C291.332 34.963 290.331 35.817 288.735 35.817C286.593 35.817 285.501 34.27 285.515 31.96C285.522 29.65 286.593 28.103 288.735 28.103C290.331 28.103 291.332 28.957 291.731 30.364L293.215 29.965C292.62 27.977 291.059 26.71 288.735 26.71C285.711 26.71 283.968 28.845 283.968 31.96C283.968 35.075 285.711 37.21 288.735 37.21ZM294.754 37H297.911C298.093 37 298.695 37 299.164 36.937C301.53 36.636 302.79 34.529 302.79 31.96C302.79 29.391 301.53 27.284 299.164 26.983C298.695 26.92 298.093 26.92 297.911 26.92H294.754V37ZM296.252 35.607V28.313H297.911C298.219 28.313 298.723 28.32 299.059 28.383C300.571 28.663 301.236 30.189 301.236 31.96C301.236 33.689 300.599 35.243 299.059 35.537C298.723 35.6 298.233 35.607 297.911 35.607H296.252ZM304.42 37H305.883V33.381H308.557L310.314 37H311.987L310.083 33.094C311.224 32.597 311.798 31.491 311.798 30.147C311.798 28.516 310.958 27.235 309.271 26.976C309.005 26.934 308.69 26.92 308.494 26.92H304.42V37ZM305.883 31.995V28.299H308.438C308.62 28.299 308.865 28.313 309.075 28.369C309.971 28.579 310.307 29.405 310.307 30.147C310.307 30.889 309.971 31.715 309.075 31.932C308.865 31.981 308.62 31.995 308.438 31.995H305.883ZM315.283 37H316.774V26.92H315.283L313.386 28.054V29.685L315.283 28.53V37Z" fill="white" fill-opacity="0.3"/>
    <path d="M339 84V24" stroke="white" stroke-opacity="0.3" stroke-width="2" stroke-linecap="square" stroke-dasharray="6 6"/>
    <path d="M365.703 37H367.166V32.695H370.834V31.225H367.166V28.383H371.674V26.92H365.703V37ZM372.935 37H374.398V33.381H377.072L378.829 37H380.502L378.598 33.094C379.739 32.597 380.313 31.491 380.313 30.147C380.313 28.516 379.473 27.235 377.786 26.976C377.52 26.934 377.205 26.92 377.009 26.92H372.935V37ZM374.398 31.995V28.299H376.953C377.135 28.299 377.38 28.313 377.59 28.369C378.486 28.579 378.822 29.405 378.822 30.147C378.822 30.889 378.486 31.715 377.59 31.932C377.38 31.981 377.135 31.995 376.953 31.995H374.398ZM381.761 36.993H388.579V35.6H384.022L386.941 32.996C388.033 32.037 388.579 31.407 388.579 30.028C388.579 28.117 387.144 26.71 385.24 26.71C383.231 26.71 381.796 28.047 381.796 30H383.294C383.28 28.985 384.092 28.103 385.212 28.103C386.297 28.103 387.074 28.929 387.074 30.007C387.074 30.581 386.864 31.127 386.157 31.757L381.768 35.691L381.761 36.993Z" fill="white" fill-opacity="0.3"/>
    <path d="M415 84V24" stroke="white" stroke-opacity="0.3" stroke-width="2" stroke-linecap="square" stroke-dasharray="6 6"/>
    <path d="M439.58 37.21C441.904 37.21 443.465 35.943 444.06 33.955L442.576 33.556C442.177 34.963 441.176 35.817 439.58 35.817C437.438 35.817 436.346 34.27 436.36 31.96C436.367 29.65 437.438 28.103 439.58 28.103C441.176 28.103 442.177 28.957 442.576 30.364L444.06 29.965C443.465 27.977 441.904 26.71 439.58 26.71C436.556 26.71 434.813 28.845 434.813 31.96C434.813 35.075 436.556 37.21 439.58 37.21ZM445.599 37H448.756C448.938 37 449.54 37 450.009 36.937C452.375 36.636 453.635 34.529 453.635 31.96C453.635 29.391 452.375 27.284 450.009 26.983C449.54 26.92 448.938 26.92 448.756 26.92H445.599V37ZM447.097 35.607V28.313H448.756C449.064 28.313 449.568 28.32 449.904 28.383C451.416 28.663 452.081 30.189 452.081 31.96C452.081 33.689 451.444 35.243 449.904 35.537C449.568 35.6 449.078 35.607 448.756 35.607H447.097ZM455.265 37H456.728V33.381H459.402L461.159 37H462.832L460.928 33.094C462.069 32.597 462.643 31.491 462.643 30.147C462.643 28.516 461.803 27.235 460.116 26.976C459.85 26.934 459.535 26.92 459.339 26.92H455.265V37ZM456.728 31.995V28.299H459.283C459.465 28.299 459.71 28.313 459.92 28.369C460.816 28.579 461.152 29.405 461.152 30.147C461.152 30.889 460.816 31.715 459.92 31.932C459.71 31.981 459.465 31.995 459.283 31.995H456.728ZM464.091 36.993H470.909V35.6H466.352L469.271 32.996C470.363 32.037 470.909 31.407 470.909 30.028C470.909 28.117 469.474 26.71 467.57 26.71C465.561 26.71 464.126 28.047 464.126 30H465.624C465.61 28.985 466.422 28.103 467.542 28.103C468.627 28.103 469.404 28.929 469.404 30.007C469.404 30.581 469.194 31.127 468.487 31.757L464.098 35.691L464.091 36.993Z" fill="white" fill-opacity="0.3"/>
    <path d="M491 84V24" stroke="white" stroke-opacity="0.3" stroke-width="2" stroke-linecap="square" stroke-dasharray="6 6"/>
    <path d="M517.805 37H519.268V32.695H522.936V31.225H519.268V28.383H523.776V26.92H517.805V37ZM525.038 37H526.501V33.381H529.175L530.932 37H532.605L530.701 33.094C531.842 32.597 532.416 31.491 532.416 30.147C532.416 28.516 531.576 27.235 529.889 26.976C529.623 26.934 529.308 26.92 529.112 26.92H525.038V37ZM526.501 31.995V28.299H529.056C529.238 28.299 529.483 28.313 529.693 28.369C530.589 28.579 530.925 29.405 530.925 30.147C530.925 30.889 530.589 31.715 529.693 31.932C529.483 31.981 529.238 31.995 529.056 31.995H526.501ZM536.964 37.189C538.847 37.189 540.331 35.796 540.331 33.871C540.331 32.233 539.323 30.924 537.692 30.707L540.184 28.313V26.92H534.122V28.313H538.392L535.312 31.036L535.998 32.191C536.285 32.037 536.628 31.939 536.95 31.939C538.07 31.939 538.833 32.751 538.833 33.871C538.833 34.984 538.07 35.789 536.964 35.803C536.138 35.81 535.403 35.341 535.137 34.466L533.723 34.858C534.15 36.293 535.466 37.189 536.964 37.189Z" fill="white" fill-opacity="0.3"/>
    <path d="M567 84V24" stroke="white" stroke-opacity="0.3" stroke-width="2" stroke-linecap="square" stroke-dasharray="6 6"/>
    <path d="M618.682 37.21C621.006 37.21 622.567 35.943 623.162 33.955L621.678 33.556C621.279 34.963 620.278 35.817 618.682 35.817C616.54 35.817 615.448 34.27 615.462 31.96C615.469 29.65 616.54 28.103 618.682 28.103C620.278 28.103 621.279 28.957 621.678 30.364L623.162 29.965C622.567 27.977 621.006 26.71 618.682 26.71C615.658 26.71 613.915 28.845 613.915 31.96C613.915 35.075 615.658 37.21 618.682 37.21ZM624.702 37H627.859C628.041 37 628.643 37 629.112 36.937C631.478 36.636 632.738 34.529 632.738 31.96C632.738 29.391 631.478 27.284 629.112 26.983C628.643 26.92 628.041 26.92 627.859 26.92H624.702V37ZM626.2 35.607V28.313H627.859C628.167 28.313 628.671 28.32 629.007 28.383C630.519 28.663 631.184 30.189 631.184 31.96C631.184 33.689 630.547 35.243 629.007 35.537C628.671 35.6 628.181 35.607 627.859 35.607H626.2ZM634.368 37H635.831V33.381H638.505L640.262 37H641.935L640.031 33.094C641.172 32.597 641.746 31.491 641.746 30.147C641.746 28.516 640.906 27.235 639.219 26.976C638.953 26.934 638.638 26.92 638.442 26.92H634.368V37ZM635.831 31.995V28.299H638.386C638.568 28.299 638.813 28.313 639.023 28.369C639.919 28.579 640.255 29.405 640.255 30.147C640.255 30.889 639.919 31.715 639.023 31.932C638.813 31.981 638.568 31.995 638.386 31.995H635.831ZM646.294 37.189C648.177 37.189 649.661 35.796 649.661 33.871C649.661 32.233 648.653 30.924 647.022 30.707L649.514 28.313V26.92H643.452V28.313H647.722L644.642 31.036L645.328 32.191C645.615 32.037 645.958 31.939 646.28 31.939C647.4 31.939 648.163 32.751 648.163 33.871C648.163 34.984 647.4 35.789 646.294 35.803C645.468 35.81 644.733 35.341 644.467 34.466L643.053 34.858C643.48 36.293 644.796 37.189 646.294 37.189Z" fill="white" fill-opacity="0.3"/>
    <path d="M697 84V24" stroke="white" stroke-opacity="0.3" stroke-width="2" stroke-linecap="square" stroke-dasharray="6 6"/>
    <path d="M749.593 37H751.056V32.695H754.724V31.225H751.056V28.383H755.564V26.92H749.593V37ZM756.826 37H758.289V33.381H760.963L762.72 37H764.393L762.489 33.094C763.63 32.597 764.204 31.491 764.204 30.147C764.204 28.516 763.364 27.235 761.677 26.976C761.411 26.934 761.096 26.92 760.9 26.92H756.826V37ZM758.289 31.995V28.299H760.844C761.026 28.299 761.271 28.313 761.481 28.369C762.377 28.579 762.713 29.405 762.713 30.147C762.713 30.889 762.377 31.715 761.481 31.932C761.271 31.981 761.026 31.995 760.844 31.995H758.289ZM770.201 37H771.685V35.243H772.686V33.857H771.685V31.127H770.201V33.857H767.324L770.6 26.92H768.927L765.651 33.857V35.243H770.201V37Z" fill="white" fill-opacity="0.3"/>
    <path d="M825 84V24" stroke="white" stroke-opacity="0.3" stroke-width="2" stroke-linecap="square" stroke-dasharray="6 6"/>
    <g filter="url(#filter0_i_5876_37947)">
        <path d="M125 80H582.4C582.96 80 583.24 80 583.454 80.109C583.642 80.2049 583.795 80.3578 583.891 80.546C584 80.7599 584 81.0399 584 81.6V130.4C584 130.96 584 131.24 583.891 131.454C583.795 131.642 583.642 131.795 583.454 131.891C583.24 132 582.96 132 582.4 132H125L120 125.5L125 119L120 112L125 106L120 99.5L125 93L120 86.5L125 80Z" fill="#99E099"/>
    </g>
    <path d="M125 80H582.4C582.96 80 583.24 80 583.454 80.109C583.642 80.2049 583.795 80.3578 583.891 80.546C584 80.7599 584 81.0399 584 81.6V130.4C584 130.96 584 131.24 583.891 131.454C583.795 131.642 583.642 131.795 583.454 131.891C583.24 132 582.96 132 582.4 132H125L120 125.5L125 119L120 112L125 106L120 99.5L125 93L120 86.5L125 80Z" stroke="#110529" stroke-width="2" stroke-linecap="round"/>
    <path d="M351.258 114H353.738L358.558 99.6H356.708L352.478 112.11L348.288 99.6H346.438L351.258 114Z" fill="#110529"/>
    <g filter="url(#filter1_i_5876_37947)">
        <rect x="584" y="80" width="30" height="52" rx="1" fill="#CBEB67"/>
    </g>
    <rect x="584" y="80" width="30" height="52" rx="1" stroke="#110529" stroke-width="2" stroke-linecap="round"/>
    <g filter="url(#filter2_i_5876_37947)">
        <rect x="650" y="80" width="30" height="52" rx="1" fill="#FAAAFA"/>
    </g>
    <rect x="650" y="80" width="30" height="52" rx="1" stroke="#110529" stroke-width="2" stroke-linecap="round"/>
    <g filter="url(#filter3_i_5876_37947)">
        <rect x="614" y="80" width="36" height="52" rx="1" fill="#FFCB8F"/>
    </g>
    <rect x="614" y="80" width="36" height="52" rx="1" stroke="#110529" stroke-width="2" stroke-linecap="round"/>
    <path d="M593.447 114H595.247V102.74L602.757 114H604.557V99.6H602.757V110.85L595.247 99.6H593.447V114Z" fill="#110529"/>
    <path d="M659.447 114H661.247V102.74L668.757 114H670.557V99.6H668.757V110.85L661.247 99.6H659.447V114Z" fill="#110529"/>
    <path d="M626.593 114H631.033C631.303 114 632.183 114 632.853 113.91C636.183 113.47 637.913 110.48 637.913 106.8C637.913 103.13 636.183 100.13 632.853 99.69C632.173 99.6 631.313 99.6 631.033 99.6H626.593V114ZM628.423 112.3V101.3H631.033C631.513 101.3 632.233 101.32 632.703 101.41C635.033 101.83 636.023 104.08 636.023 106.8C636.023 109.47 635.063 111.76 632.703 112.19C632.233 112.28 631.533 112.3 631.033 112.3H628.423Z" fill="#110529"/>
    <g filter="url(#filter4_i_5876_37947)">
        <path d="M824 81.6C824 81.0399 824 80.7599 823.891 80.546C823.795 80.3578 823.642 80.2049 823.454 80.109C823.24 80 822.96 80 822.4 80H681.6C681.04 80 680.76 80 680.546 80.109C680.358 80.2049 680.205 80.3578 680.109 80.546C680 80.7599 680 81.0399 680 81.6V106V130.4C680 130.96 680 131.24 680.109 131.454C680.205 131.642 680.358 131.795 680.546 131.891C680.76 132 681.04 132 681.6 132H822.4C822.96 132 823.24 132 823.454 131.891C823.642 131.795 823.795 131.642 823.891 131.454C824 131.24 824 130.96 824 130.4V125.5V119V112V106V99.5V93V86.5V81.6Z" fill="#C1ADFF"/>
    </g>
    <path d="M824 81.6C824 81.0399 824 80.7599 823.891 80.546C823.795 80.3578 823.642 80.2049 823.454 80.109C823.24 80 822.96 80 822.4 80H681.6C681.04 80 680.76 80 680.546 80.109C680.358 80.2049 680.205 80.3578 680.109 80.546C680 80.7599 680 81.0399 680 81.6V106V130.4C680 130.96 680 131.24 680.109 131.454C680.205 131.642 680.358 131.795 680.546 131.891C680.76 132 681.04 132 681.6 132H822.4C822.96 132 823.24 132 823.454 131.891C823.642 131.795 823.795 131.642 823.891 131.454C824 131.24 824 130.96 824 130.4V125.5V119V112V106V99.5V93V86.5V81.6Z" stroke="#110529" stroke-width="2" stroke-linecap="round"/>
    <path d="M751.227 114.29C752.677 114.29 753.937 113.7 754.667 112.43C755.197 111.51 755.137 110.72 755.137 109.48V99.6H753.337V109.48C753.337 110.37 753.337 110.99 753.077 111.51C752.687 112.29 751.867 112.6 751.187 112.6C750.117 112.6 749.207 111.83 748.997 110.85L747.227 111.27C747.737 113.11 749.207 114.29 751.227 114.29Z" fill="#110529"/>
    <g filter="url(#filter5_i_5876_37947)">
        <path d="M880 80H825.6C825.04 80 824.76 80 824.546 80.109C824.358 80.2049 824.205 80.3578 824.109 80.546C824 80.7599 824 81.0399 824 81.6V130.4C824 130.96 824 131.24 824.109 131.454C824.205 131.642 824.358 131.795 824.546 131.891C824.76 132 825.04 132 825.6 132H880L875 125.5L880 119L875 112L880 106L875 99.5L880 93L875 86.5L880 80Z" fill="#FAFAAA"/>
    </g>
    <path d="M880 80H825.6C825.04 80 824.76 80 824.546 80.109C824.358 80.2049 824.205 80.3578 824.109 80.546C824 80.7599 824 81.0399 824 81.6V130.4C824 130.96 824 131.24 824.109 131.454C824.205 131.642 824.358 131.795 824.546 131.891C824.76 132 825.04 132 825.6 132H880L875 125.5L880 119L875 112L880 106L875 99.5L880 93L875 86.5L880 80Z" stroke="#110529" stroke-width="2" stroke-linecap="round"/>
    <path d="M852.093 114.3C855.423 114.3 857.613 112.47 858.433 109.61L856.623 109.13C856.033 111.27 854.523 112.6 852.093 112.6C848.873 112.6 847.233 110.25 847.253 106.8C847.273 103.35 848.873 101 852.093 101C854.523 101 856.033 102.33 856.623 104.47L858.433 103.99C857.613 101.13 855.423 99.3 852.093 99.3C847.783 99.3 845.373 102.36 845.373 106.8C845.373 111.24 847.783 114.3 852.093 114.3Z" fill="#110529"/>
    <g filter="url(#filter6_i_5876_37947)">
        <path d="M125 240H582.4C582.96 240 583.24 240 583.454 240.109C583.642 240.205 583.795 240.358 583.891 240.546C584 240.76 584 241.04 584 241.6V290.4C584 290.96 584 291.24 583.891 291.454C583.795 291.642 583.642 291.795 583.454 291.891C583.24 292 582.96 292 582.4 292H125L120 285.5L125 279L120 272L125 266L120 259.5L125 253L120 246.5L125 240Z" fill="#99E099"/>
    </g>
    <path d="M125 240H582.4C582.96 240 583.24 240 583.454 240.109C583.642 240.205 583.795 240.358 583.891 240.546C584 240.76 584 241.04 584 241.6V290.4C584 290.96 584 291.24 583.891 291.454C583.795 291.642 583.642 291.795 583.454 291.891C583.24 292 582.96 292 582.4 292H125L120 285.5L125 279L120 272L125 266L120 259.5L125 253L120 246.5L125 240Z" stroke="#110529" stroke-width="2" stroke-linecap="round"/>
    <path d="M351.258 274H353.738L358.558 259.6H356.708L352.478 272.11L348.288 259.6H346.438L351.258 274Z" fill="#110529"/>
    <g filter="url(#filter7_i_5876_37947)">
        <rect x="584" y="240" width="30" height="52" rx="1" fill="#CBEB67"/>
    </g>
    <rect x="584" y="240" width="30" height="52" rx="1" stroke="#110529" stroke-width="2" stroke-linecap="round"/>
    <path d="M593.447 274H595.247V262.74L602.757 274H604.557V259.6H602.757V270.85L595.247 259.6H593.447V274Z" fill="#110529"/>
    <g filter="url(#filter8_i_5876_37947)">
        <path d="M758 241.6C758 241.04 758 240.76 757.891 240.546C757.795 240.358 757.642 240.205 757.454 240.109C757.24 240 756.96 240 756.4 240H615.6C615.04 240 614.76 240 614.546 240.109C614.358 240.205 614.205 240.358 614.109 240.546C614 240.76 614 241.04 614 241.6V266V290.4C614 290.96 614 291.24 614.109 291.454C614.205 291.642 614.358 291.795 614.546 291.891C614.76 292 615.04 292 615.6 292H756.4C756.96 292 757.24 292 757.454 291.891C757.642 291.795 757.795 291.642 757.891 291.454C758 291.24 758 290.96 758 290.4V285.5V279V272V266V259.5V253V246.5V241.6Z" fill="#C1ADFF"/>
    </g>
    <path d="M758 241.6C758 241.04 758 240.76 757.891 240.546C757.795 240.358 757.642 240.205 757.454 240.109C757.24 240 756.96 240 756.4 240H615.6C615.04 240 614.76 240 614.546 240.109C614.358 240.205 614.205 240.358 614.109 240.546C614 240.76 614 241.04 614 241.6V266V290.4C614 290.96 614 291.24 614.109 291.454C614.205 291.642 614.358 291.795 614.546 291.891C614.76 292 615.04 292 615.6 292H756.4C756.96 292 757.24 292 757.454 291.891C757.642 291.795 757.795 291.642 757.891 291.454C758 291.24 758 290.96 758 290.4V285.5V279V272V266V259.5V253V246.5V241.6Z" stroke="#110529" stroke-width="2" stroke-linecap="round"/>
    <g filter="url(#filter9_i_5876_37947)">
        <path d="M814 240H759.6C759.04 240 758.76 240 758.546 240.109C758.358 240.205 758.205 240.358 758.109 240.546C758 240.76 758 241.04 758 241.6V290.4C758 290.96 758 291.24 758.109 291.454C758.205 291.642 758.358 291.795 758.546 291.891C758.76 292 759.04 292 759.6 292H814L809 285.5L814 279L809 272L814 266L809 259.5L814 253L809 246.5L814 240Z" fill="#FAFAAA"/>
    </g>
    <path d="M814 240H759.6C759.04 240 758.76 240 758.546 240.109C758.358 240.205 758.205 240.358 758.109 240.546C758 240.76 758 241.04 758 241.6V290.4C758 290.96 758 291.24 758.109 291.454C758.205 291.642 758.358 291.795 758.546 291.891C758.76 292 759.04 292 759.6 292H814L809 285.5L814 279L809 272L814 266L809 259.5L814 253L809 246.5L814 240Z" stroke="#110529" stroke-width="2" stroke-linecap="round"/>
    <path d="M786.593 274.3C789.923 274.3 792.113 272.47 792.933 269.61L791.123 269.13C790.533 271.27 789.023 272.6 786.593 272.6C783.373 272.6 781.733 270.25 781.753 266.8C781.773 263.35 783.373 261 786.593 261C789.023 261 790.533 262.33 791.123 264.47L792.933 263.99C792.113 261.13 789.923 259.3 786.593 259.3C782.283 259.3 779.873 262.36 779.873 266.8C779.873 271.24 782.283 274.3 786.593 274.3Z" fill="#110529"/>
    <path d="M685.227 274.29C686.677 274.29 687.937 273.7 688.667 272.43C689.197 271.51 689.137 270.72 689.137 269.48V259.6H687.337V269.48C687.337 270.37 687.337 270.99 687.077 271.51C686.687 272.29 685.867 272.6 685.187 272.6C684.117 272.6 683.207 271.83 682.997 270.85L681.227 271.27C681.737 273.11 683.207 274.29 685.227 274.29Z" fill="#110529"/>
    <path d="M37.6881 114H39.4681V101.29H44.3781V99.6H32.7781V101.29H37.6881V114ZM51.8903 114.3C55.2203 114.3 57.4103 112.47 58.2303 109.61L56.4203 109.13C55.8303 111.27 54.3203 112.6 51.8903 112.6C48.6703 112.6 47.0303 110.25 47.0503 106.8C47.0703 103.35 48.6703 101 51.8903 101C54.3203 101 55.8303 102.33 56.4203 104.47L58.2303 103.99C57.4103 101.13 55.2203 99.3 51.8903 99.3C47.5803 99.3 45.1703 102.36 45.1703 106.8C45.1703 111.24 47.5803 114.3 51.8903 114.3ZM60.4234 114H62.2034V108.68H66.4134L68.9934 114H71.0334L68.2534 108.29C69.8834 107.61 70.7334 106.04 70.7334 104.14C70.7334 101.85 69.5034 100.04 67.1734 99.68C66.8034 99.62 66.3934 99.6 66.1134 99.6H60.4234V114ZM62.2034 106.99V101.29H66.0534C66.3034 101.29 66.6534 101.31 66.9534 101.38C68.3334 101.69 68.9134 102.94 68.9134 104.14C68.9134 105.34 68.3334 106.59 66.9534 106.9C66.6534 106.97 66.3034 106.99 66.0534 106.99H62.2034ZM77.2298 103.2V118.8H79.0098V113.39C79.7198 113.96 80.7098 114.3 81.9398 114.3C84.9898 114.3 86.8398 112.57 86.8398 109.95C86.8398 107.74 85.4398 106.44 84.0498 106.09C85.0998 105.58 85.6098 104.5 85.6098 103.22C85.6098 100.84 83.8598 99.3 81.3698 99.3C79.5098 99.3 77.9798 100.16 77.4498 101.78C77.2998 102.23 77.2298 102.71 77.2298 103.2ZM79.0498 109.71V103.86C79.0498 103.44 79.0698 102.8 79.2798 102.28C79.6398 101.35 80.5198 100.99 81.4098 100.99C82.7898 100.99 83.7898 101.82 83.7898 103.24C83.7898 104.67 82.7898 105.4 81.4198 105.54V107.14C83.6098 107.18 85.0298 108.1 85.0298 109.87C85.0298 111.52 83.7898 112.61 82.0198 112.61C80.7698 112.61 79.5298 112.04 79.1998 111.01C79.0798 110.64 79.0498 110.1 79.0498 109.71Z" fill="white"/>
    <path d="M37.3268 274H39.1068V261.29H44.0168V259.6H32.4168V261.29H37.3268V274ZM51.529 274.3C54.859 274.3 57.049 272.47 57.869 269.61L56.059 269.13C55.469 271.27 53.959 272.6 51.529 272.6C48.309 272.6 46.669 270.25 46.689 266.8C46.709 263.35 48.309 261 51.529 261C53.959 261 55.469 262.33 56.059 264.47L57.869 263.99C57.049 261.13 54.859 259.3 51.529 259.3C47.219 259.3 44.809 262.36 44.809 266.8C44.809 271.24 47.219 274.3 51.529 274.3ZM60.0621 274H61.8421V268.68H66.0521L68.6321 274H70.6721L67.8921 268.29C69.5221 267.61 70.3721 266.04 70.3721 264.14C70.3721 261.85 69.1421 260.04 66.8121 259.68C66.4421 259.62 66.0321 259.6 65.7521 259.6H60.0621V274ZM61.8421 266.99V261.29H65.6921C65.9421 261.29 66.2921 261.31 66.5921 261.38C67.9721 261.69 68.5521 262.94 68.5521 264.14C68.5521 265.34 67.9721 266.59 66.5921 266.9C66.2921 266.97 65.9421 266.99 65.6921 266.99H61.8421ZM81.1485 274.3C82.7885 274.3 84.0985 273.54 84.7985 272.24V274H86.3885V263.2H84.7985V264.93C84.1085 263.65 82.8485 262.9 81.1985 262.9C78.0985 262.9 76.2785 265.35 76.2785 268.6C76.2785 271.83 78.0885 274.3 81.1485 274.3ZM78.1685 268.6C78.1685 266.19 79.2785 264.53 81.3885 264.53C83.4985 264.53 84.4985 266.2 84.4985 268.59C84.4985 270.96 83.5085 272.67 81.3685 272.67C79.1985 272.67 78.1685 270.88 78.1685 268.6Z" fill="white"/>
    <defs>
        <filter id="filter0_i_5876_37947" x="118.737" y="79" width="466.263" height="54" filterUnits="userSpaceOnUse" color-interpolation-filters="sRGB">
            <feFlood flood-opacity="0" result="BackgroundImageFix"/>
            <feBlend mode="normal" in="SourceGraphic" in2="BackgroundImageFix" result="shape"/>
            <feColorMatrix in="SourceAlpha" type="matrix" values="0 0 0 0 0 0 0 0 0 0 0 0 0 0 0 0 0 0 127 0" result="hardAlpha"/>
            <feOffset dx="-8" dy="-4"/>
            <feComposite in2="hardAlpha" operator="arithmetic" k2="-1" k3="1"/>
            <feColorMatrix type="matrix" values="0 0 0 0 0.0666667 0 0 0 0 0.0196078 0 0 0 0 0.160784 0 0 0 0.16 0"/>
            <feBlend mode="normal" in2="shape" result="effect1_innerShadow_5876_37947"/>
        </filter>
        <filter id="filter1_i_5876_37947" x="583" y="79" width="32" height="54" filterUnits="userSpaceOnUse" color-interpolation-filters="sRGB">
            <feFlood flood-opacity="0" result="BackgroundImageFix"/>
            <feBlend mode="normal" in="SourceGraphic" in2="BackgroundImageFix" result="shape"/>
            <feColorMatrix in="SourceAlpha" type="matrix" values="0 0 0 0 0 0 0 0 0 0 0 0 0 0 0 0 0 0 127 0" result="hardAlpha"/>
            <feOffset dx="-8" dy="-4"/>
            <feComposite in2="hardAlpha" operator="arithmetic" k2="-1" k3="1"/>
            <feColorMatrix type="matrix" values="0 0 0 0 0.0666667 0 0 0 0 0.0196078 0 0 0 0 0.160784 0 0 0 0.16 0"/>
            <feBlend mode="normal" in2="shape" result="effect1_innerShadow_5876_37947"/>
        </filter>
        <filter id="filter2_i_5876_37947" x="649" y="79" width="32" height="54" filterUnits="userSpaceOnUse" color-interpolation-filters="sRGB">
            <feFlood flood-opacity="0" result="BackgroundImageFix"/>
            <feBlend mode="normal" in="SourceGraphic" in2="BackgroundImageFix" result="shape"/>
            <feColorMatrix in="SourceAlpha" type="matrix" values="0 0 0 0 0 0 0 0 0 0 0 0 0 0 0 0 0 0 127 0" result="hardAlpha"/>
            <feOffset dx="-8" dy="-4"/>
            <feComposite in2="hardAlpha" operator="arithmetic" k2="-1" k3="1"/>
            <feColorMatrix type="matrix" values="0 0 0 0 0.0666667 0 0 0 0 0.0196078 0 0 0 0 0.160784 0 0 0 0.16 0"/>
            <feBlend mode="normal" in2="shape" result="effect1_innerShadow_5876_37947"/>
        </filter>
        <filter id="filter3_i_5876_37947" x="613" y="79" width="38" height="54" filterUnits="userSpaceOnUse" color-interpolation-filters="sRGB">
            <feFlood flood-opacity="0" result="BackgroundImageFix"/>
            <feBlend mode="normal" in="SourceGraphic" in2="BackgroundImageFix" result="shape"/>
            <feColorMatrix in="SourceAlpha" type="matrix" values="0 0 0 0 0 0 0 0 0 0 0 0 0 0 0 0 0 0 127 0" result="hardAlpha"/>
            <feOffset dx="-8" dy="-4"/>
            <feComposite in2="hardAlpha" operator="arithmetic" k2="-1" k3="1"/>
            <feColorMatrix type="matrix" values="0 0 0 0 0.0666667 0 0 0 0 0.0196078 0 0 0 0 0.160784 0 0 0 0.16 0"/>
            <feBlend mode="normal" in2="shape" result="effect1_innerShadow_5876_37947"/>
        </filter>
        <filter id="filter4_i_5876_37947" x="679" y="79" width="146" height="54" filterUnits="userSpaceOnUse" color-interpolation-filters="sRGB">
            <feFlood flood-opacity="0" result="BackgroundImageFix"/>
            <feBlend mode="normal" in="SourceGraphic" in2="BackgroundImageFix" result="shape"/>
            <feColorMatrix in="SourceAlpha" type="matrix" values="0 0 0 0 0 0 0 0 0 0 0 0 0 0 0 0 0 0 127 0" result="hardAlpha"/>
            <feOffset dx="-8" dy="-4"/>
            <feComposite in2="hardAlpha" operator="arithmetic" k2="-1" k3="1"/>
            <feColorMatrix type="matrix" values="0 0 0 0 0.0666667 0 0 0 0 0.0196078 0 0 0 0 0.160784 0 0 0 0.16 0"/>
            <feBlend mode="normal" in2="shape" result="effect1_innerShadow_5876_37947"/>
        </filter>
        <filter id="filter5_i_5876_37947" x="823" y="79" width="59.0309" height="54" filterUnits="userSpaceOnUse" color-interpolation-filters="sRGB">
            <feFlood flood-opacity="0" result="BackgroundImageFix"/>
            <feBlend mode="normal" in="SourceGraphic" in2="BackgroundImageFix" result="shape"/>
            <feColorMatrix in="SourceAlpha" type="matrix" values="0 0 0 0 0 0 0 0 0 0 0 0 0 0 0 0 0 0 127 0" result="hardAlpha"/>
            <feOffset dx="-8" dy="-4"/>
            <feComposite in2="hardAlpha" operator="arithmetic" k2="-1" k3="1"/>
            <feColorMatrix type="matrix" values="0 0 0 0 0.0666667 0 0 0 0 0.0196078 0 0 0 0 0.160784 0 0 0 0.16 0"/>
            <feBlend mode="normal" in2="shape" result="effect1_innerShadow_5876_37947"/>
        </filter>
        <filter id="filter6_i_5876_37947" x="118.737" y="239" width="466.263" height="54" filterUnits="userSpaceOnUse" color-interpolation-filters="sRGB">
            <feFlood flood-opacity="0" result="BackgroundImageFix"/>
            <feBlend mode="normal" in="SourceGraphic" in2="BackgroundImageFix" result="shape"/>
            <feColorMatrix in="SourceAlpha" type="matrix" values="0 0 0 0 0 0 0 0 0 0 0 0 0 0 0 0 0 0 127 0" result="hardAlpha"/>
            <feOffset dx="-8" dy="-4"/>
            <feComposite in2="hardAlpha" operator="arithmetic" k2="-1" k3="1"/>
            <feColorMatrix type="matrix" values="0 0 0 0 0.0666667 0 0 0 0 0.0196078 0 0 0 0 0.160784 0 0 0 0.16 0"/>
            <feBlend mode="normal" in2="shape" result="effect1_innerShadow_5876_37947"/>
        </filter>
        <filter id="filter7_i_5876_37947" x="583" y="239" width="32" height="54" filterUnits="userSpaceOnUse" color-interpolation-filters="sRGB">
            <feFlood flood-opacity="0" result="BackgroundImageFix"/>
            <feBlend mode="normal" in="SourceGraphic" in2="BackgroundImageFix" result="shape"/>
            <feColorMatrix in="SourceAlpha" type="matrix" values="0 0 0 0 0 0 0 0 0 0 0 0 0 0 0 0 0 0 127 0" result="hardAlpha"/>
            <feOffset dx="-8" dy="-4"/>
            <feComposite in2="hardAlpha" operator="arithmetic" k2="-1" k3="1"/>
            <feColorMatrix type="matrix" values="0 0 0 0 0.0666667 0 0 0 0 0.0196078 0 0 0 0 0.160784 0 0 0 0.16 0"/>
            <feBlend mode="normal" in2="shape" result="effect1_innerShadow_5876_37947"/>
        </filter>
        <filter id="filter8_i_5876_37947" x="613" y="239" width="146" height="54" filterUnits="userSpaceOnUse" color-interpolation-filters="sRGB">
            <feFlood flood-opacity="0" result="BackgroundImageFix"/>
            <feBlend mode="normal" in="SourceGraphic" in2="BackgroundImageFix" result="shape"/>
            <feColorMatrix in="SourceAlpha" type="matrix" values="0 0 0 0 0 0 0 0 0 0 0 0 0 0 0 0 0 0 127 0" result="hardAlpha"/>
            <feOffset dx="-8" dy="-4"/>
            <feComposite in2="hardAlpha" operator="arithmetic" k2="-1" k3="1"/>
            <feColorMatrix type="matrix" values="0 0 0 0 0.0666667 0 0 0 0 0.0196078 0 0 0 0 0.160784 0 0 0 0.16 0"/>
            <feBlend mode="normal" in2="shape" result="effect1_innerShadow_5876_37947"/>
        </filter>
        <filter id="filter9_i_5876_37947" x="757" y="239" width="59.0309" height="54" filterUnits="userSpaceOnUse" color-interpolation-filters="sRGB">
            <feFlood flood-opacity="0" result="BackgroundImageFix"/>
            <feBlend mode="normal" in="SourceGraphic" in2="BackgroundImageFix" result="shape"/>
            <feColorMatrix in="SourceAlpha" type="matrix" values="0 0 0 0 0 0 0 0 0 0 0 0 0 0 0 0 0 0 127 0" result="hardAlpha"/>
            <feOffset dx="-8" dy="-4"/>
            <feComposite in2="hardAlpha" operator="arithmetic" k2="-1" k3="1"/>
            <feColorMatrix type="matrix" values="0 0 0 0 0.0666667 0 0 0 0 0.0196078 0 0 0 0 0.160784 0 0 0 0.16 0"/>
            <feBlend mode="normal" in2="shape" result="effect1_innerShadow_5876_37947"/>
        </filter>
    </defs>
</svg>
