<svg width="960" height="310" viewBox="0 0 960 310" fill="none" xmlns="http://www.w3.org/2000/svg">
    <rect width="960" height="310" fill="white"/>
    <g filter="url(#filter0_i_5544_35613)">
        <rect x="594" y="116" width="30" height="52" rx="1" fill="#CBEB67"/>
    </g>
    <rect x="594" y="116" width="30" height="52" rx="1" stroke="#110529" stroke-width="2" stroke-linecap="round"/>
    <g filter="url(#filter1_i_5544_35613)">
        <rect x="660" y="116" width="30" height="52" rx="1" fill="#FAAAFA"/>
    </g>
    <rect x="660" y="116" width="30" height="52" rx="1" stroke="#110529" stroke-width="2" stroke-linecap="round"/>
    <g filter="url(#filter2_i_5544_35613)">
        <rect x="624" y="116" width="36" height="52" rx="1" fill="#FFCB8F"/>
    </g>
    <rect x="624" y="116" width="36" height="52" rx="1" stroke="#110529" stroke-width="2" stroke-linecap="round"/>
    <path d="M603.447 150H605.247V138.74L612.757 150H614.557V135.6H612.757V146.85L605.247 135.6H603.447V150Z" fill="#110529"/>
    <path d="M669.447 150H671.247V138.74L678.757 150H680.557V135.6H678.757V146.85L671.247 135.6H669.447V150Z" fill="#110529"/>
    <path d="M636.593 150H641.033C641.303 150 642.183 150 642.853 149.91C646.183 149.47 647.913 146.48 647.913 142.8C647.913 139.13 646.183 136.13 642.853 135.69C642.173 135.6 641.313 135.6 641.033 135.6H636.593V150ZM638.423 148.3V137.3H641.033C641.513 137.3 642.233 137.32 642.703 137.41C645.033 137.83 646.023 140.08 646.023 142.8C646.023 145.47 645.063 147.76 642.703 148.19C642.233 148.28 641.533 148.3 641.033 148.3H638.423Z" fill="#110529"/>
    <path d="M137.586 282.24C139.73 282.24 141.546 280.504 141.546 278.376C141.546 276.232 139.922 274.584 137.786 274.584C137.01 274.584 136.234 274.848 135.634 275.328L135.842 271.832H140.746V270.48H134.562L134.21 276.504L135.474 276.984C135.89 276.384 136.61 275.896 137.626 275.896C138.97 275.896 140.114 276.984 140.114 278.376C140.114 279.728 139.026 280.856 137.626 280.856C136.554 280.856 135.514 280.144 135.226 279.008L133.858 279.376C134.322 281.056 135.802 282.24 137.586 282.24ZM143.627 273.416L143.539 274.08C144.531 274.264 145.107 273.648 145.107 272.528V270.48H143.539V272.288H144.363C144.419 272.928 144.291 273.464 143.627 273.416ZM151.878 282.24C154.55 282.24 156.422 280.48 156.422 277.8V270.48H154.982V277.68C154.982 279.848 153.35 280.896 151.878 280.896C150.422 280.896 148.774 279.864 148.774 277.68V270.48L147.334 270.488V277.8C147.334 280.488 149.206 282.24 151.878 282.24ZM161.631 282H163.055V271.832H166.983V270.48H157.703V271.832H161.631V282ZM168.256 282H169.68V277.744H173.048L175.112 282H176.744L174.52 277.432C175.824 276.888 176.504 275.632 176.504 274.112C176.504 272.28 175.52 270.832 173.656 270.544C173.36 270.496 173.032 270.48 172.808 270.48H168.256V282ZM169.68 276.392V271.832H172.76C172.96 271.832 173.24 271.848 173.48 271.904C174.584 272.152 175.048 273.152 175.048 274.112C175.048 275.072 174.584 276.072 173.48 276.32C173.24 276.376 172.96 276.392 172.76 276.392H169.68Z" fill="#D3D7E0"/>
    <path d="M211.806 282H218.574V280.648H213.23V270.48H211.806V282ZM221.935 282H223.383V270.48H221.935L219.767 271.776V273.368L221.935 272.056V282Z" fill="#D3D7E0"/>
    <path d="M244.348 282H251.116V280.648H245.772V270.48H244.348V282ZM252.149 281.992H259.805V280.632H254.341L258.053 277.296C259.237 276.248 259.805 275.488 259.805 273.976C259.805 271.856 258.189 270.24 256.053 270.24C253.837 270.24 252.205 271.784 252.205 273.952H253.661C253.645 272.696 254.653 271.6 256.029 271.6C257.357 271.6 258.349 272.632 258.349 273.96C258.349 274.688 258.117 275.352 257.269 276.112L252.157 280.712L252.149 281.992Z" fill="#D3D7E0"/>
    <path d="M323.667 282H325.091V276.952H329.427V275.528H325.091V271.904H330.387V270.48H323.667V282ZM331.823 282H333.247V277.744H336.615L338.679 282H340.311L338.087 277.432C339.391 276.888 340.071 275.632 340.071 274.112C340.071 272.28 339.087 270.832 337.223 270.544C336.927 270.496 336.599 270.48 336.375 270.48H331.823V282ZM333.247 276.392V271.832H336.327C336.527 271.832 336.807 271.848 337.047 271.904C338.151 272.152 338.615 273.152 338.615 274.112C338.615 275.072 338.151 276.072 337.047 276.32C336.807 276.376 336.527 276.392 336.327 276.392H333.247ZM344.081 282H345.529V270.48H344.081L341.913 271.776V273.368L344.081 272.056V282Z" fill="#D3D7E0"/>
    <path d="M542.417 282H543.841V276.952H548.177V275.528H543.841V271.904H549.137V270.48H542.417V282ZM550.573 282H551.997V277.744H555.365L557.429 282H559.061L556.837 277.432C558.141 276.888 558.821 275.632 558.821 274.112C558.821 272.28 557.837 270.832 555.973 270.544C555.677 270.496 555.349 270.48 555.125 270.48H550.573V282ZM551.997 276.392V271.832H555.077C555.277 271.832 555.557 271.848 555.797 271.904C556.901 272.152 557.365 273.152 557.365 274.112C557.365 275.072 556.901 276.072 555.797 276.32C555.557 276.376 555.277 276.392 555.077 276.392H551.997ZM563.983 282.224C566.119 282.224 567.743 280.664 567.743 278.456C567.743 276.44 566.463 274.944 564.479 274.832L567.591 271.848V270.48H560.799V271.84H565.823L562.079 275.224L562.767 276.352C563.127 276.168 563.567 276.048 563.959 276.048C565.343 276.048 566.279 277.032 566.279 278.456C566.279 279.864 565.375 280.84 563.975 280.864C562.951 280.88 562.055 280.312 561.711 279.24L560.343 279.632C560.831 281.232 562.271 282.224 563.983 282.224Z" fill="#D3D7E0"/>
    <path d="M461.229 253H464.169V250.06H461.229V253ZM469.315 253H472.255V250.06H469.315V253ZM477.401 253H480.341V250.06H477.401V253Z" fill="#D3D7E0"/>
    <path d="M631.004 282.24C633.668 282.24 635.42 280.776 636.076 278.488L634.628 278.104C634.156 279.816 632.948 280.88 631.004 280.88C628.428 280.88 627.116 279 627.132 276.24C627.148 273.48 628.428 271.6 631.004 271.6C632.948 271.6 634.156 272.664 634.628 274.376L636.076 273.992C635.42 271.704 633.668 270.24 631.004 270.24C627.556 270.24 625.628 272.688 625.628 276.24C625.628 279.792 627.556 282.24 631.004 282.24ZM637.831 282H641.383C641.599 282 642.303 282 642.839 281.928C645.503 281.576 646.887 279.184 646.887 276.24C646.887 273.304 645.503 270.904 642.839 270.552C642.295 270.48 641.607 270.48 641.383 270.48H637.831V282ZM639.295 280.64V271.84H641.383C641.767 271.84 642.343 271.856 642.719 271.928C644.583 272.264 645.375 274.064 645.375 276.24C645.375 278.376 644.607 280.208 642.719 280.552C642.343 280.624 641.783 280.64 641.383 280.64H639.295ZM648.722 282H650.146V277.744H653.514L655.578 282H657.21L654.986 277.432C656.29 276.888 656.97 275.632 656.97 274.112C656.97 272.28 655.986 270.832 654.122 270.544C653.826 270.496 653.498 270.48 653.274 270.48H648.722V282ZM650.146 276.392V271.832H653.226C653.426 271.832 653.706 271.848 653.946 271.904C655.05 272.152 655.514 273.152 655.514 274.112C655.514 275.072 655.05 276.072 653.946 276.32C653.706 276.376 653.426 276.392 653.226 276.392H650.146ZM662.132 282.224C664.268 282.224 665.892 280.664 665.892 278.456C665.892 276.44 664.612 274.944 662.628 274.832L665.74 271.848V270.48H658.948V271.84H663.972L660.228 275.224L660.916 276.352C661.276 276.168 661.716 276.048 662.108 276.048C663.492 276.048 664.428 277.032 664.428 278.456C664.428 279.864 663.524 280.84 662.124 280.864C661.1 280.88 660.204 280.312 659.86 279.24L658.492 279.632C658.98 281.232 660.42 282.224 662.132 282.224Z" fill="#D3D7E0"/>
    <path d="M757.151 282H758.575V276.952H762.911V275.528H758.575V271.904H763.871V270.48H757.151V282ZM765.308 282H766.732V277.744H770.1L772.164 282H773.796L771.572 277.432C772.876 276.888 773.556 275.632 773.556 274.112C773.556 272.28 772.572 270.832 770.708 270.544C770.412 270.496 770.084 270.48 769.86 270.48H765.308V282ZM766.732 276.392V271.832H769.812C770.012 271.832 770.292 271.848 770.532 271.904C771.636 272.152 772.1 273.152 772.1 274.112C772.1 275.072 771.636 276.072 770.532 276.32C770.292 276.376 770.012 276.392 769.812 276.392H766.732ZM780.534 282H781.974V279.88H783.174V278.528H781.974V275.288H780.534V278.528H776.854L780.654 270.48H779.038L775.238 278.528V279.88H780.534V282Z" fill="#D3D7E0"/>
    <path d="M578 282V164" stroke="#D3D7E0" stroke-width="2" stroke-dasharray="6 6"/>
    <path d="M706 282V164" stroke="#D3D7E0" stroke-width="2" stroke-dasharray="6 6"/>
    <path d="M403.945 282V164" stroke="#D3D7E0" stroke-width="2" stroke-dasharray="6 6"/>
    <path d="M202 282V164" stroke="#D3D7E0" stroke-width="2" stroke-dasharray="6 6"/>
    <path d="M234 282V164" stroke="#D3D7E0" stroke-width="2" stroke-dasharray="6 6"/>
    <path d="M266 282V223V164" stroke="#D3D7E0" stroke-width="2" stroke-dasharray="6 6"/>
    <path d="M834 282L834 164" stroke="#D3D7E0" stroke-width="2" stroke-dasharray="6 6"/>
    <path d="M110 282V60" stroke="#D3D7E0" stroke-width="2" stroke-dasharray="6 6"/>
    <g filter="url(#filter3_i_5544_35613)">
        <path d="M115 116H438L433 122.5L438 128.5L433 135.5L438 141.5L433 148.5L438 155L433 161.5L438 168H115L110 161.5L115 155L110 148L115 142L110 135.5L115 129L110 122.5L115 116Z" fill="#99E099"/>
    </g>
    <path d="M115 116H438L433 122.5L438 128.5L433 135.5L438 141.5L433 148.5L438 155L433 161.5L438 168H115L110 161.5L115 155L110 148L115 142L110 135.5L115 129L110 122.5L115 116Z" stroke="#110529" stroke-width="2" stroke-linecap="round"/>
    <g filter="url(#filter4_i_5544_35613)">
        <path d="M507 116H592.4C592.96 116 593.24 116 593.454 116.109C593.642 116.205 593.795 116.358 593.891 116.546C594 116.76 594 117.04 594 117.6V166.4C594 166.96 594 167.24 593.891 167.454C593.795 167.642 593.642 167.795 593.454 167.891C593.24 168 592.96 168 592.4 168H507L502 161.5L507 155L502 148L507 142L502 135.5L507 129L502 122.5L507 116Z" fill="#99E099"/>
    </g>
    <path d="M507 116H592.4C592.96 116 593.24 116 593.454 116.109C593.642 116.205 593.795 116.358 593.891 116.546C594 116.76 594 117.04 594 117.6V166.4C594 166.96 594 167.24 593.891 167.454C593.795 167.642 593.642 167.795 593.454 167.891C593.24 168 592.96 168 592.4 168H507L502 161.5L507 155L502 148L507 142L502 135.5L507 129L502 122.5L507 116Z" stroke="#110529" stroke-width="2" stroke-linecap="round"/>
    <g filter="url(#filter5_i_5544_35613)">
        <path d="M690 117.6C690 117.04 690 116.76 690.109 116.546C690.205 116.358 690.358 116.205 690.546 116.109C690.76 116 691.04 116 691.6 116H832.4C832.96 116 833.24 116 833.454 116.109C833.642 116.205 833.795 116.358 833.891 116.546C834 116.76 834 117.04 834 117.6V166.4C834 166.96 834 167.24 833.891 167.454C833.795 167.642 833.642 167.795 833.454 167.891C833.24 168 832.96 168 832.4 168H691.6C691.04 168 690.76 168 690.546 167.891C690.358 167.795 690.205 167.642 690.109 167.454C690 167.24 690 166.96 690 166.4V117.6Z" fill="#C1ADFF"/>
    </g>
    <path d="M690 117.6C690 117.04 690 116.76 690.109 116.546C690.205 116.358 690.358 116.205 690.546 116.109C690.76 116 691.04 116 691.6 116H832.4C832.96 116 833.24 116 833.454 116.109C833.642 116.205 833.795 116.358 833.891 116.546C834 116.76 834 117.04 834 117.6V166.4C834 166.96 834 167.24 833.891 167.454C833.795 167.642 833.642 167.795 833.454 167.891C833.24 168 832.96 168 832.4 168H691.6C691.04 168 690.76 168 690.546 167.891C690.358 167.795 690.205 167.642 690.109 167.454C690 167.24 690 166.96 690 166.4V117.6Z" stroke="#110529" stroke-width="2" stroke-linecap="round"/>
    <g filter="url(#filter6_i_5544_35613)">
        <path d="M850 116H834V168H850L845 161.5L850 155L845 148L850 142L845 135.5L850 129L845 122.5L850 116Z" fill="#FAFAAA"/>
    </g>
    <path d="M850 116H834V168H850L845 161.5L850 155L845 148L850 142L845 135.5L850 129L845 122.5L850 116Z" stroke="#110529" stroke-width="2" stroke-linecap="round"/>
    <g filter="url(#filter7_i_5544_35613)">
        <rect x="110" y="24" width="740" height="52" rx="2" fill="#D3D7E0"/>
    </g>
    <rect x="110" y="24" width="740" height="52" rx="2" stroke="#110529" stroke-width="2" stroke-linecap="round"/>
    <path d="M436.861 95.9999L437.558 96.7167L438.295 95.9999L437.558 95.2832L436.861 95.9999ZM429.336 87.2832L428.619 86.5859L427.225 88.0193L427.942 88.7167L429.336 87.2832ZM427.942 103.283L427.225 103.981L428.619 105.414L429.336 104.717L427.942 103.283ZM405 96.9999H436.861V94.9999H405V96.9999ZM437.558 95.2832L429.336 87.2832L427.942 88.7167L436.164 96.7167L437.558 95.2832ZM436.164 95.2832L427.942 103.283L429.336 104.717L437.558 96.7167L436.164 95.2832Z" fill="#110529"/>
    <path d="M503.139 95.9999L502.441 96.7167L501.705 95.9999L502.441 95.2832L503.139 95.9999ZM510.664 87.2832L511.38 86.5859L512.775 88.0193L512.058 88.7167L510.664 87.2832ZM512.058 103.283L512.775 103.981L511.38 105.414L510.664 104.717L512.058 103.283ZM535 96.9999H503.139V94.9999H535V96.9999ZM502.441 95.2832L510.664 87.2832L512.058 88.7167L503.836 96.7167L502.441 95.2832ZM503.836 95.2832L512.058 103.283L510.664 104.717L502.441 96.7167L503.836 95.2832Z" fill="#110529"/>
    <path d="M850 96L510.833 95.9999" stroke="#110529" stroke-width="2"/>
    <path d="M423.472 95.9999L110 96.0002" stroke="#110529" stroke-width="2"/>
    <path d="M124.3 49.8V51.05H127.3C127.183 51.9167 126.933 52.7167 126.45 53.4C125.733 54.35 124.55 54.8333 123.35 54.8167C122.15 54.8333 120.967 54.35 120.267 53.4C119.55 52.4833 119.35 51.2 119.317 50C119.35 48.7833 119.55 47.5167 120.267 46.5833C120.967 45.65 122.15 45.1667 123.35 45.1667C124.55 45.1667 125.733 45.65 126.45 46.5833C126.583 46.7667 126.7 47 126.817 47.2L128.183 46.5833C128.033 46.25 127.833 45.95 127.617 45.6833C126.6 44.4 125.083 43.75 123.35 43.75C121.65 43.75 120.05 44.3833 119.1 45.6833C118.1 46.9167 117.767 48.4333 117.75 50C117.767 51.5333 118.1 53.0833 119.1 54.3C120.05 55.6167 121.667 56.25 123.35 56.25C125.017 56.25 126.567 55.6333 127.617 54.3C128.55 53.15 128.9 51.6833 128.95 50.1833V49.8H124.3ZM141.608 44H131.942V45.4H136.042V56H137.525V45.4H141.608V44ZM151.475 49.8V51.05H154.475C154.358 51.9167 154.108 52.7167 153.625 53.4C152.908 54.35 151.725 54.8333 150.525 54.8167C149.325 54.8333 148.142 54.35 147.442 53.4C146.725 52.4833 146.525 51.2 146.492 50C146.525 48.7833 146.725 47.5167 147.442 46.5833C148.142 45.65 149.325 45.1667 150.525 45.1667C151.725 45.1667 152.908 45.65 153.625 46.5833C153.758 46.7667 153.875 47 153.992 47.2L155.358 46.5833C155.208 46.25 155.008 45.95 154.792 45.6833C153.775 44.4 152.258 43.75 150.525 43.75C148.825 43.75 147.225 44.3833 146.275 45.6833C145.275 46.9167 144.942 48.4333 144.925 50C144.942 51.5333 145.275 53.0833 146.275 54.3C147.225 55.6167 148.842 56.25 150.525 56.25C152.192 56.25 153.742 55.6333 154.792 54.3C155.725 53.15 156.075 51.6833 156.125 50.1833V49.8H151.475ZM169.395 52.0167C169.261 52.5167 169.028 53 168.728 53.4167C168.028 54.3667 166.845 54.85 165.645 54.8333C164.445 54.8333 163.261 54.3667 162.561 53.4167C161.845 52.4667 161.628 51.2167 161.611 50C161.628 48.7667 161.845 47.5167 162.561 46.5833C163.261 45.6333 164.445 45.15 165.645 45.1667C166.845 45.1667 168.028 45.6333 168.728 46.5833C169.078 47.0333 169.295 47.5667 169.445 48.1167L170.978 47.8667C170.778 47.1 170.445 46.35 169.911 45.6667C168.911 44.3833 167.328 43.75 165.645 43.75C163.945 43.75 162.378 44.3667 161.378 45.6667C160.395 46.9 160.045 48.4167 160.028 50C160.011 51.5333 160.395 53.0833 161.378 54.3167C162.378 55.5833 163.928 56.25 165.645 56.25C167.311 56.25 168.878 55.6333 169.911 54.3167C170.361 53.75 170.678 53.1 170.878 52.45L169.395 52.0167ZM184.248 52.0167C184.115 52.5167 183.881 53 183.581 53.4167C182.881 54.3667 181.698 54.85 180.498 54.8333C179.298 54.8333 178.115 54.3667 177.415 53.4167C176.698 52.4667 176.481 51.2167 176.465 50C176.481 48.7667 176.698 47.5167 177.415 46.5833C178.115 45.6333 179.298 45.15 180.498 45.1667C181.698 45.1667 182.881 45.6333 183.581 46.5833C183.931 47.0333 184.148 47.5667 184.298 48.1167L185.831 47.8667C185.631 47.1 185.298 46.35 184.765 45.6667C183.765 44.3833 182.181 43.75 180.498 43.75C178.798 43.75 177.231 44.3667 176.231 45.6667C175.248 46.9 174.898 48.4167 174.881 50C174.865 51.5333 175.248 53.0833 176.231 54.3167C177.231 55.5833 178.781 56.25 180.498 56.25C182.165 56.25 183.731 55.6333 184.765 54.3167C185.215 53.75 185.531 53.1 185.731 52.45L184.248 52.0167ZM197.556 56H199.09L195.073 44H193.006L188.99 56H190.54L191.29 53.75H196.79L197.556 56ZM191.756 52.35L194.023 45.5667L196.323 52.35H191.756ZM210.983 44H201.317V45.4H205.417V56H206.9V45.4H210.983V44ZM223.883 44H214.217V45.4H218.317V56H219.8V45.4H223.883V44ZM233.75 49.8V51.05H236.75C236.633 51.9167 236.383 52.7167 235.9 53.4C235.183 54.35 234 54.8333 232.8 54.8167C231.6 54.8333 230.417 54.35 229.717 53.4C229 52.4833 228.8 51.2 228.767 50C228.8 48.7833 229 47.5167 229.717 46.5833C230.417 45.65 231.6 45.1667 232.8 45.1667C234 45.1667 235.183 45.65 235.9 46.5833C236.033 46.7667 236.15 47 236.267 47.2L237.633 46.5833C237.483 46.25 237.283 45.95 237.067 45.6833C236.05 44.4 234.533 43.75 232.8 43.75C231.1 43.75 229.5 44.3833 228.55 45.6833C227.55 46.9167 227.217 48.4333 227.2 50C227.217 51.5333 227.55 53.0833 228.55 54.3C229.5 55.6167 231.117 56.25 232.8 56.25C234.467 56.25 236.017 55.6333 237.067 54.3C238 53.15 238.35 51.6833 238.4 50.1833V49.8H233.75ZM251.058 44H241.392V45.4H245.492V56H246.975V45.4H251.058V44ZM260.925 49.8V51.05H263.925C263.808 51.9167 263.558 52.7167 263.075 53.4C262.358 54.35 261.175 54.8333 259.975 54.8167C258.775 54.8333 257.592 54.35 256.892 53.4C256.175 52.4833 255.975 51.2 255.942 50C255.975 48.7833 256.175 47.5167 256.892 46.5833C257.592 45.65 258.775 45.1667 259.975 45.1667C261.175 45.1667 262.358 45.65 263.075 46.5833C263.208 46.7667 263.325 47 263.442 47.2L264.808 46.5833C264.658 46.25 264.458 45.95 264.242 45.6833C263.225 44.4 261.708 43.75 259.975 43.75C258.275 43.75 256.675 44.3833 255.725 45.6833C254.725 46.9167 254.392 48.4333 254.375 50C254.392 51.5333 254.725 53.0833 255.725 54.3C256.675 55.6167 258.292 56.25 259.975 56.25C261.642 56.25 263.192 55.6333 264.242 54.3C265.175 53.15 265.525 51.6833 265.575 50.1833V49.8H260.925ZM277.3 56H278.833L274.817 44H272.75L268.733 56H270.283L271.033 53.75H276.533L277.3 56ZM271.5 52.35L273.767 45.5667L276.067 52.35H271.5ZM290.727 44H281.06V45.4H285.16V56H286.644V45.4H290.727V44ZM303.627 44H293.96V45.4H298.06V56H299.544V45.4H303.627V44ZM316.31 52.0167C316.177 52.5167 315.944 53 315.644 53.4167C314.944 54.3667 313.76 54.85 312.56 54.8333C311.36 54.8333 310.177 54.3667 309.477 53.4167C308.76 52.4667 308.544 51.2167 308.527 50C308.544 48.7667 308.76 47.5167 309.477 46.5833C310.177 45.6333 311.36 45.15 312.56 45.1667C313.76 45.1667 314.944 45.6333 315.644 46.5833C315.994 47.0333 316.21 47.5667 316.36 48.1167L317.894 47.8667C317.694 47.1 317.36 46.35 316.827 45.6667C315.827 44.3833 314.244 43.75 312.56 43.75C310.86 43.75 309.294 44.3667 308.294 45.6667C307.31 46.9 306.96 48.4167 306.944 50C306.927 51.5333 307.31 53.0833 308.294 54.3167C309.294 55.5833 310.844 56.25 312.56 56.25C314.227 56.25 315.794 55.6333 316.827 54.3167C317.277 53.75 317.594 53.1 317.794 52.45L316.31 52.0167ZM331.164 52.0167C331.03 52.5167 330.797 53 330.497 53.4167C329.797 54.3667 328.614 54.85 327.414 54.8333C326.214 54.8333 325.03 54.3667 324.33 53.4167C323.614 52.4667 323.397 51.2167 323.38 50C323.397 48.7667 323.614 47.5167 324.33 46.5833C325.03 45.6333 326.214 45.15 327.414 45.1667C328.614 45.1667 329.797 45.6333 330.497 46.5833C330.847 47.0333 331.064 47.5667 331.214 48.1167L332.747 47.8667C332.547 47.1 332.214 46.35 331.68 45.6667C330.68 44.3833 329.097 43.75 327.414 43.75C325.714 43.75 324.147 44.3667 323.147 45.6667C322.164 46.9 321.814 48.4167 321.797 50C321.78 51.5333 322.164 53.0833 323.147 54.3167C324.147 55.5833 325.697 56.25 327.414 56.25C329.08 56.25 330.647 55.6333 331.68 54.3167C332.13 53.75 332.447 53.1 332.647 52.45L331.164 52.0167ZM343.2 49.8V51.05H346.2C346.083 51.9167 345.833 52.7167 345.35 53.4C344.633 54.35 343.45 54.8333 342.25 54.8167C341.05 54.8333 339.867 54.35 339.167 53.4C338.45 52.4833 338.25 51.2 338.217 50C338.25 48.7833 338.45 47.5167 339.167 46.5833C339.867 45.65 341.05 45.1667 342.25 45.1667C343.45 45.1667 344.633 45.65 345.35 46.5833C345.483 46.7667 345.6 47 345.717 47.2L347.083 46.5833C346.933 46.25 346.733 45.95 346.517 45.6833C345.5 44.4 343.983 43.75 342.25 43.75C340.55 43.75 338.95 44.3833 338 45.6833C337 46.9167 336.667 48.4333 336.65 50C336.667 51.5333 337 53.0833 338 54.3C338.95 55.6167 340.567 56.25 342.25 56.25C343.917 56.25 345.467 55.6333 346.517 54.3C347.45 53.15 347.8 51.6833 347.85 50.1833V49.8H343.2ZM359.575 56H361.108L357.092 44H355.025L351.008 56H352.558L353.308 53.75H358.808L359.575 56ZM353.775 52.35L356.042 45.5667L358.342 52.35H353.775ZM373.319 56H374.852L370.835 44H368.769L364.752 56H366.302L367.052 53.75H372.552L373.319 56ZM367.519 52.35L369.785 45.5667L372.085 52.35H367.519ZM386.746 44H377.079V45.4H381.179V56H382.663V45.4H386.746V44ZM396.613 49.8V51.05H399.613C399.496 51.9167 399.246 52.7167 398.763 53.4C398.046 54.35 396.863 54.8333 395.663 54.8167C394.463 54.8333 393.279 54.35 392.579 53.4C391.863 52.4833 391.663 51.2 391.629 50C391.663 48.7833 391.863 47.5167 392.579 46.5833C393.279 45.65 394.463 45.1667 395.663 45.1667C396.863 45.1667 398.046 45.65 398.763 46.5833C398.896 46.7667 399.013 47 399.129 47.2L400.496 46.5833C400.346 46.25 400.146 45.95 399.929 45.6833C398.913 44.4 397.396 43.75 395.663 43.75C393.963 43.75 392.363 44.3833 391.413 45.6833C390.413 46.9167 390.079 48.4333 390.063 50C390.079 51.5333 390.413 53.0833 391.413 54.3C392.363 55.6167 393.979 56.25 395.663 56.25C397.329 56.25 398.879 55.6333 399.929 54.3C400.863 53.15 401.213 51.6833 401.263 50.1833V49.8H396.613ZM414.532 52.0167C414.399 52.5167 414.166 53 413.866 53.4167C413.166 54.3667 411.982 54.85 410.782 54.8333C409.582 54.8333 408.399 54.3667 407.699 53.4167C406.982 52.4667 406.766 51.2167 406.749 50C406.766 48.7667 406.982 47.5167 407.699 46.5833C408.399 45.6333 409.582 45.15 410.782 45.1667C411.982 45.1667 413.166 45.6333 413.866 46.5833C414.216 47.0333 414.432 47.5667 414.582 48.1167L416.116 47.8667C415.916 47.1 415.582 46.35 415.049 45.6667C414.049 44.3833 412.466 43.75 410.782 43.75C409.082 43.75 407.516 44.3667 406.516 45.6667C405.532 46.9 405.182 48.4167 405.166 50C405.149 51.5333 405.532 53.0833 406.516 54.3167C407.516 55.5833 409.066 56.25 410.782 56.25C412.449 56.25 414.016 55.6333 415.049 54.3167C415.499 53.75 415.816 53.1 416.016 52.45L414.532 52.0167ZM426.569 49.8V51.05H429.569C429.452 51.9167 429.202 52.7167 428.719 53.4C428.002 54.35 426.819 54.8333 425.619 54.8167C424.419 54.8333 423.235 54.35 422.535 53.4C421.819 52.4833 421.619 51.2 421.585 50C421.619 48.7833 421.819 47.5167 422.535 46.5833C423.235 45.65 424.419 45.1667 425.619 45.1667C426.819 45.1667 428.002 45.65 428.719 46.5833C428.852 46.7667 428.969 47 429.085 47.2L430.452 46.5833C430.302 46.25 430.102 45.95 429.885 45.6833C428.869 44.4 427.352 43.75 425.619 43.75C423.919 43.75 422.319 44.3833 421.369 45.6833C420.369 46.9167 420.035 48.4333 420.019 50C420.035 51.5333 420.369 53.0833 421.369 54.3C422.319 55.6167 423.935 56.25 425.619 56.25C427.285 56.25 428.835 55.6333 429.885 54.3C430.819 53.15 431.169 51.6833 431.219 50.1833V49.8H426.569ZM434.977 54.3667V56H436.61V54.3667H434.977ZM441.877 54.3667V56H443.51V54.3667H441.877ZM448.777 54.3667V56H450.41V54.3667H448.777ZM455.677 54.3667V56H457.31V54.3667H455.677ZM462.577 54.3667V56H464.21V54.3667H462.577ZM469.477 54.3667V56H471.11V54.3667H469.477ZM476.377 54.3667V56H478.01V54.3667H476.377ZM483.277 54.3667V56H484.91V54.3667H483.277ZM490.177 54.3667V56H491.81V54.3667H490.177ZM497.077 54.3667V56H498.71V54.3667H497.077ZM503.977 54.3667V56H505.61V54.3667H503.977ZM510.877 54.3667V56H512.51V54.3667H510.877ZM523.644 49.8V51.05H526.644C526.527 51.9167 526.277 52.7167 525.794 53.4C525.077 54.35 523.894 54.8333 522.694 54.8167C521.494 54.8333 520.31 54.35 519.61 53.4C518.894 52.4833 518.694 51.2 518.66 50C518.694 48.7833 518.894 47.5167 519.61 46.5833C520.31 45.65 521.494 45.1667 522.694 45.1667C523.894 45.1667 525.077 45.65 525.794 46.5833C525.927 46.7667 526.044 47 526.16 47.2L527.527 46.5833C527.377 46.25 527.177 45.95 526.96 45.6833C525.944 44.4 524.427 43.75 522.694 43.75C520.994 43.75 519.394 44.3833 518.444 45.6833C517.444 46.9167 517.11 48.4333 517.094 50C517.11 51.5333 517.444 53.0833 518.444 54.3C519.394 55.6167 521.01 56.25 522.694 56.25C524.36 56.25 525.91 55.6333 526.96 54.3C527.894 53.15 528.244 51.6833 528.294 50.1833V49.8H523.644ZM540.952 44H531.285V45.4H535.385V56H536.869V45.4H540.952V44ZM550.819 49.8V51.05H553.819C553.702 51.9167 553.452 52.7167 552.969 53.4C552.252 54.35 551.069 54.8333 549.869 54.8167C548.669 54.8333 547.485 54.35 546.785 53.4C546.069 52.4833 545.869 51.2 545.835 50C545.869 48.7833 546.069 47.5167 546.785 46.5833C547.485 45.65 548.669 45.1667 549.869 45.1667C551.069 45.1667 552.252 45.65 552.969 46.5833C553.102 46.7667 553.219 47 553.335 47.2L554.702 46.5833C554.552 46.25 554.352 45.95 554.135 45.6833C553.119 44.4 551.602 43.75 549.869 43.75C548.169 43.75 546.569 44.3833 545.619 45.6833C544.619 46.9167 544.285 48.4333 544.269 50C544.285 51.5333 544.619 53.0833 545.619 54.3C546.569 55.6167 548.185 56.25 549.869 56.25C551.535 56.25 553.085 55.6333 554.135 54.3C555.069 53.15 555.419 51.6833 555.469 50.1833V49.8H550.819ZM568.739 52.0167C568.605 52.5167 568.372 53 568.072 53.4167C567.372 54.3667 566.189 54.85 564.989 54.8333C563.789 54.8333 562.605 54.3667 561.905 53.4167C561.189 52.4667 560.972 51.2167 560.955 50C560.972 48.7667 561.189 47.5167 561.905 46.5833C562.605 45.6333 563.789 45.15 564.989 45.1667C566.189 45.1667 567.372 45.6333 568.072 46.5833C568.422 47.0333 568.639 47.5667 568.789 48.1167L570.322 47.8667C570.122 47.1 569.789 46.35 569.255 45.6667C568.255 44.3833 566.672 43.75 564.989 43.75C563.289 43.75 561.722 44.3667 560.722 45.6667C559.739 46.9 559.389 48.4167 559.372 50C559.355 51.5333 559.739 53.0833 560.722 54.3167C561.722 55.5833 563.272 56.25 564.989 56.25C566.655 56.25 568.222 55.6333 569.255 54.3167C569.705 53.75 570.022 53.1 570.222 52.45L568.739 52.0167ZM580.775 49.8V51.05H583.775C583.658 51.9167 583.408 52.7167 582.925 53.4C582.208 54.35 581.025 54.8333 579.825 54.8167C578.625 54.8333 577.442 54.35 576.742 53.4C576.025 52.4833 575.825 51.2 575.792 50C575.825 48.7833 576.025 47.5167 576.742 46.5833C577.442 45.65 578.625 45.1667 579.825 45.1667C581.025 45.1667 582.208 45.65 582.925 46.5833C583.058 46.7667 583.175 47 583.292 47.2L584.658 46.5833C584.508 46.25 584.308 45.95 584.092 45.6833C583.075 44.4 581.558 43.75 579.825 43.75C578.125 43.75 576.525 44.3833 575.575 45.6833C574.575 46.9167 574.242 48.4333 574.225 50C574.242 51.5333 574.575 53.0833 575.575 54.3C576.525 55.6167 578.142 56.25 579.825 56.25C581.492 56.25 583.042 55.6333 584.092 54.3C585.025 53.15 585.375 51.6833 585.425 50.1833V49.8H580.775ZM597.15 56H598.683L594.667 44H592.6L588.583 56H590.133L590.883 53.75H596.383L597.15 56ZM591.35 52.35L593.617 45.5667L595.917 52.35H591.35ZM610.577 44H600.91V45.4H605.01V56H606.494V45.4H610.577V44ZM623.477 44H613.81V45.4H617.91V56H619.394V45.4H623.477V44ZM633.344 49.8V51.05H636.344C636.227 51.9167 635.977 52.7167 635.494 53.4C634.777 54.35 633.594 54.8333 632.394 54.8167C631.194 54.8333 630.01 54.35 629.31 53.4C628.594 52.4833 628.394 51.2 628.36 50C628.394 48.7833 628.594 47.5167 629.31 46.5833C630.01 45.65 631.194 45.1667 632.394 45.1667C633.594 45.1667 634.777 45.65 635.494 46.5833C635.627 46.7667 635.744 47 635.86 47.2L637.227 46.5833C637.077 46.25 636.877 45.95 636.66 45.6833C635.644 44.4 634.127 43.75 632.394 43.75C630.694 43.75 629.094 44.3833 628.144 45.6833C627.144 46.9167 626.81 48.4333 626.794 50C626.81 51.5333 627.144 53.0833 628.144 54.3C629.094 55.6167 630.71 56.25 632.394 56.25C634.06 56.25 635.61 55.6333 636.66 54.3C637.594 53.15 637.944 51.6833 637.994 50.1833V49.8H633.344ZM649.719 56H651.252L647.235 44H645.169L641.152 56H642.702L643.452 53.75H648.952L649.719 56ZM643.919 52.35L646.185 45.5667L648.485 52.35H643.919ZM663.773 52.0167C663.64 52.5167 663.406 53 663.106 53.4167C662.406 54.3667 661.223 54.85 660.023 54.8333C658.823 54.8333 657.64 54.3667 656.94 53.4167C656.223 52.4667 656.006 51.2167 655.99 50C656.006 48.7667 656.223 47.5167 656.94 46.5833C657.64 45.6333 658.823 45.15 660.023 45.1667C661.223 45.1667 662.406 45.6333 663.106 46.5833C663.456 47.0333 663.673 47.5667 663.823 48.1167L665.356 47.8667C665.156 47.1 664.823 46.35 664.29 45.6667C663.29 44.3833 661.706 43.75 660.023 43.75C658.323 43.75 656.756 44.3667 655.756 45.6667C654.773 46.9 654.423 48.4167 654.406 50C654.39 51.5333 654.773 53.0833 655.756 54.3167C656.756 55.5833 658.306 56.25 660.023 56.25C661.69 56.25 663.256 55.6333 664.29 54.3167C664.74 53.75 665.056 53.1 665.256 52.45L663.773 52.0167ZM678.343 44H668.676V45.4H672.776V56H674.259V45.4H678.343V44ZM691.026 52.0167C690.893 52.5167 690.659 53 690.359 53.4167C689.659 54.3667 688.476 54.85 687.276 54.8333C686.076 54.8333 684.893 54.3667 684.193 53.4167C683.476 52.4667 683.259 51.2167 683.243 50C683.259 48.7667 683.476 47.5167 684.193 46.5833C684.893 45.6333 686.076 45.15 687.276 45.1667C688.476 45.1667 689.659 45.6333 690.359 46.5833C690.709 47.0333 690.926 47.5667 691.076 48.1167L692.609 47.8667C692.409 47.1 692.076 46.35 691.543 45.6667C690.543 44.3833 688.959 43.75 687.276 43.75C685.576 43.75 684.009 44.3667 683.009 45.6667C682.026 46.9 681.676 48.4167 681.659 50C681.643 51.5333 682.026 53.0833 683.009 54.3167C684.009 55.5833 685.559 56.25 687.276 56.25C688.943 56.25 690.509 55.6333 691.543 54.3167C691.993 53.75 692.309 53.1 692.509 52.45L691.026 52.0167ZM703.063 49.8V51.05H706.063C705.946 51.9167 705.696 52.7167 705.213 53.4C704.496 54.35 703.313 54.8333 702.113 54.8167C700.913 54.8333 699.729 54.35 699.029 53.4C698.313 52.4833 698.113 51.2 698.079 50C698.113 48.7833 698.313 47.5167 699.029 46.5833C699.729 45.65 700.913 45.1667 702.113 45.1667C703.313 45.1667 704.496 45.65 705.213 46.5833C705.346 46.7667 705.463 47 705.579 47.2L706.946 46.5833C706.796 46.25 706.596 45.95 706.379 45.6833C705.363 44.4 703.846 43.75 702.113 43.75C700.413 43.75 698.813 44.3833 697.863 45.6833C696.863 46.9167 696.529 48.4333 696.513 50C696.529 51.5333 696.863 53.0833 697.863 54.3C698.813 55.6167 700.429 56.25 702.113 56.25C703.779 56.25 705.329 55.6333 706.379 54.3C707.313 53.15 707.663 51.6833 707.713 50.1833V49.8H703.063ZM719.438 56H720.971L716.954 44H714.888L710.871 56H712.421L713.171 53.75H718.671L719.438 56ZM713.638 52.35L715.904 45.5667L718.204 52.35H713.638ZM732.865 44H723.198V45.4H727.298V56H728.781V45.4H732.865V44ZM745.548 52.0167C745.415 52.5167 745.181 53 744.881 53.4167C744.181 54.3667 742.998 54.85 741.798 54.8333C740.598 54.8333 739.415 54.3667 738.715 53.4167C737.998 52.4667 737.781 51.2167 737.765 50C737.781 48.7667 737.998 47.5167 738.715 46.5833C739.415 45.6333 740.598 45.15 741.798 45.1667C742.998 45.1667 744.181 45.6333 744.881 46.5833C745.231 47.0333 745.448 47.5667 745.598 48.1167L747.131 47.8667C746.931 47.1 746.598 46.35 746.065 45.6667C745.065 44.3833 743.481 43.75 741.798 43.75C740.098 43.75 738.531 44.3667 737.531 45.6667C736.548 46.9 736.198 48.4167 736.181 50C736.165 51.5333 736.548 53.0833 737.531 54.3167C738.531 55.5833 740.081 56.25 741.798 56.25C743.465 56.25 745.031 55.6333 746.065 54.3167C746.515 53.75 746.831 53.1 747.031 52.45L745.548 52.0167ZM757.584 49.8V51.05H760.584C760.468 51.9167 760.218 52.7167 759.734 53.4C759.018 54.35 757.834 54.8333 756.634 54.8167C755.434 54.8333 754.251 54.35 753.551 53.4C752.834 52.4833 752.634 51.2 752.601 50C752.634 48.7833 752.834 47.5167 753.551 46.5833C754.251 45.65 755.434 45.1667 756.634 45.1667C757.834 45.1667 759.018 45.65 759.734 46.5833C759.868 46.7667 759.984 47 760.101 47.2L761.468 46.5833C761.318 46.25 761.118 45.95 760.901 45.6833C759.884 44.4 758.368 43.75 756.634 43.75C754.934 43.75 753.334 44.3833 752.384 45.6833C751.384 46.9167 751.051 48.4333 751.034 50C751.051 51.5333 751.384 53.0833 752.384 54.3C753.334 55.6167 754.951 56.25 756.634 56.25C758.301 56.25 759.851 55.6333 760.901 54.3C761.834 53.15 762.184 51.6833 762.234 50.1833V49.8H757.584ZM773.959 56H775.493L771.476 44H769.409L765.393 56H766.943L767.693 53.75H773.193L773.959 56ZM768.159 52.35L770.426 45.5667L772.726 52.35H768.159ZM787.386 44H777.72V45.4H781.82V56H783.303V45.4H787.386V44ZM800.07 52.0167C799.936 52.5167 799.703 53 799.403 53.4167C798.703 54.3667 797.52 54.85 796.32 54.8333C795.12 54.8333 793.936 54.3667 793.236 53.4167C792.52 52.4667 792.303 51.2167 792.286 50C792.303 48.7667 792.52 47.5167 793.236 46.5833C793.936 45.6333 795.12 45.15 796.32 45.1667C797.52 45.1667 798.703 45.6333 799.403 46.5833C799.753 47.0333 799.97 47.5667 800.12 48.1167L801.653 47.8667C801.453 47.1 801.12 46.35 800.586 45.6667C799.586 44.3833 798.003 43.75 796.32 43.75C794.62 43.75 793.053 44.3667 792.053 45.6667C791.07 46.9 790.72 48.4167 790.703 50C790.686 51.5333 791.07 53.0833 792.053 54.3167C793.053 55.5833 794.603 56.25 796.32 56.25C797.986 56.25 799.553 55.6333 800.586 54.3167C801.036 53.75 801.353 53.1 801.553 52.45L800.07 52.0167ZM812.106 49.8V51.05H815.106C814.99 51.9167 814.74 52.7167 814.256 53.4C813.54 54.35 812.356 54.8333 811.156 54.8167C809.956 54.8333 808.773 54.35 808.073 53.4C807.356 52.4833 807.156 51.2 807.123 50C807.156 48.7833 807.356 47.5167 808.073 46.5833C808.773 45.65 809.956 45.1667 811.156 45.1667C812.356 45.1667 813.54 45.65 814.256 46.5833C814.39 46.7667 814.506 47 814.623 47.2L815.99 46.5833C815.84 46.25 815.64 45.95 815.423 45.6833C814.406 44.4 812.89 43.75 811.156 43.75C809.456 43.75 807.856 44.3833 806.906 45.6833C805.906 46.9167 805.573 48.4333 805.556 50C805.573 51.5333 805.906 53.0833 806.906 54.3C807.856 55.6167 809.473 56.25 811.156 56.25C812.823 56.25 814.373 55.6333 815.423 54.3C816.356 53.15 816.706 51.6833 816.756 50.1833V49.8H812.106ZM828.481 56H830.015L825.998 44H823.931L819.915 56H821.465L822.215 53.75H827.715L828.481 56ZM822.681 52.35L824.948 45.5667L827.248 52.35H822.681ZM841.908 44H832.242V45.4H836.342V56H837.825V45.4H841.908V44Z" fill="#110529"/>
    <path d="M271.92 150H274.4L279.22 135.6H277.37L273.14 148.11L268.95 135.6H267.1L271.92 150Z" fill="#110529"/>
    <path d="M545.92 150H548.4L553.22 135.6H551.37L547.14 148.11L542.95 135.6H541.1L545.92 150Z" fill="#110529"/>
    <path d="M761 150.29C762.45 150.29 763.71 149.7 764.44 148.43C764.97 147.51 764.91 146.72 764.91 145.48V135.6H763.11V145.48C763.11 146.37 763.11 146.99 762.85 147.51C762.46 148.29 761.64 148.6 760.96 148.6C759.89 148.6 758.98 147.83 758.77 146.85L757 147.27C757.51 149.11 758.98 150.29 761 150.29Z" fill="#110529"/>
    <path d="M110 180V188H594V180" stroke="#110529" stroke-width="2"/>
    <path d="M302.088 216H303.512V205.832H307.44V204.48H298.16V205.832H302.088V216ZM308.714 216H310.138V211.744H313.506L315.57 216H317.202L314.978 211.432C316.282 210.888 316.962 209.632 316.962 208.112C316.962 206.28 315.978 204.832 314.114 204.544C313.818 204.496 313.49 204.48 313.266 204.48H308.714V216ZM310.138 210.392V205.832H313.218C313.418 205.832 313.698 205.848 313.938 205.904C315.042 206.152 315.506 207.152 315.506 208.112C315.506 209.072 315.042 210.072 313.938 210.32C313.698 210.376 313.418 210.392 313.218 210.392H310.138ZM318.964 216H323.852C325.964 216 327.276 214.72 327.276 212.704C327.276 211.424 326.604 210.4 325.436 209.904C326.236 209.44 326.724 208.568 326.724 207.512C326.724 205.912 325.516 204.48 323.452 204.48H318.964V216ZM320.404 214.64V210.632H323.74C324.964 210.632 325.812 211.536 325.812 212.696C325.812 213.912 324.852 214.64 323.58 214.64H320.404ZM320.404 209.288V205.824H323.436C324.516 205.824 325.26 206.52 325.26 207.512C325.26 208.592 324.452 209.288 323.436 209.288H320.404ZM331.202 216H333.186L337.042 204.48H335.562L332.178 214.488L328.826 204.48H327.346L331.202 216ZM340.253 216H341.701V204.48H340.253L338.085 205.776V207.368L340.253 206.056V216ZM346.753 216H348.201V204.48H346.753L344.585 205.776V207.368L346.753 206.056V216ZM351.085 210.824H355.885V209.648H351.085V210.824ZM359.972 216H361.42V204.48H359.972L357.804 205.776V207.368L359.972 206.056V216ZM365.104 214.8H366.672V213.232H365.104V214.8ZM365.112 210.128H366.68V208.56H365.112V210.128ZM374.691 216H376.139V204.48H374.691L372.523 205.776V207.368L374.691 206.056V216ZM378.863 215.992H386.519V214.632H381.055L384.767 211.296C385.951 210.248 386.519 209.488 386.519 207.976C386.519 205.856 384.903 204.24 382.766 204.24C380.551 204.24 378.919 205.784 378.919 207.952H380.375C380.359 206.696 381.367 205.6 382.743 205.6C384.071 205.6 385.063 206.632 385.063 207.96C385.063 208.688 384.831 209.352 383.983 210.112L378.871 214.712L378.863 215.992ZM388.113 215.992H395.769V214.632H390.305L394.017 211.296C395.201 210.248 395.769 209.488 395.769 207.976C395.769 205.856 394.153 204.24 392.016 204.24C389.801 204.24 388.169 205.784 388.169 207.952H389.625C389.609 206.696 390.617 205.6 391.993 205.6C393.321 205.6 394.313 206.632 394.313 207.96C394.313 208.688 394.081 209.352 393.233 210.112L388.121 214.712L388.113 215.992ZM400.843 216.224C402.979 216.224 404.602 214.664 404.602 212.456C404.602 210.44 403.323 208.944 401.339 208.832L404.451 205.848V204.48H397.659V205.84H402.683L398.939 209.224L399.627 210.352C399.987 210.168 400.427 210.048 400.819 210.048C402.203 210.048 403.139 211.032 403.139 212.456C403.139 213.864 402.235 214.84 400.835 214.864C399.811 214.88 398.914 214.312 398.571 213.24L397.203 213.632C397.691 215.232 399.131 216.224 400.843 216.224Z" fill="#110529"/>
    <path d="M621.847 180V188H657.847V180" stroke="#110529" stroke-width="2"/>
    <path d="M602.31 216H603.734V205.832H607.662V204.48H598.382V205.832H602.31V216ZM608.936 216H610.36V211.744H613.728L615.792 216H617.424L615.2 211.432C616.504 210.888 617.184 209.632 617.184 208.112C617.184 206.28 616.2 204.832 614.336 204.544C614.04 204.496 613.712 204.48 613.488 204.48H608.936V216ZM610.36 210.392V205.832H613.44C613.64 205.832 613.92 205.848 614.16 205.904C615.264 206.152 615.728 207.152 615.728 208.112C615.728 209.072 615.264 210.072 614.16 210.32C613.92 210.376 613.64 210.392 613.44 210.392H610.36ZM619.186 216H624.074C626.186 216 627.498 214.72 627.498 212.704C627.498 211.424 626.826 210.4 625.658 209.904C626.458 209.44 626.946 208.568 626.946 207.512C626.946 205.912 625.738 204.48 623.674 204.48H619.186V216ZM620.626 214.64V210.632H623.962C625.186 210.632 626.034 211.536 626.034 212.696C626.034 213.912 625.074 214.64 623.802 214.64H620.626ZM620.626 209.288V205.824H623.658C624.738 205.824 625.482 206.52 625.482 207.512C625.482 208.592 624.674 209.288 623.658 209.288H620.626ZM629.092 216H632.644C632.86 216 633.564 216 634.1 215.928C636.764 215.576 638.148 213.184 638.148 210.24C638.148 207.304 636.764 204.904 634.1 204.552C633.556 204.48 632.868 204.48 632.644 204.48H629.092V216ZM630.556 214.64V205.84H632.644C633.028 205.84 633.604 205.856 633.98 205.928C635.844 206.264 636.636 208.064 636.636 210.24C636.636 212.376 635.868 214.208 633.98 214.552C633.604 214.624 633.044 214.64 632.644 214.64H630.556ZM639.663 215.992H647.319V214.632H641.855L645.567 211.296C646.751 210.248 647.319 209.488 647.319 207.976C647.319 205.856 645.703 204.24 643.567 204.24C641.351 204.24 639.719 205.784 639.719 207.952H641.175C641.159 206.696 642.167 205.6 643.543 205.6C644.871 205.6 645.863 206.632 645.863 207.96C645.863 208.688 645.631 209.352 644.783 210.112L639.671 214.712L639.663 215.992ZM649.873 214.8H651.441V213.232H649.873V214.8ZM649.881 210.128H651.449V208.56H649.881V210.128ZM660.86 216.24C663.004 216.24 664.82 214.504 664.82 212.376C664.82 210.232 663.196 208.584 661.06 208.584C660.284 208.584 659.508 208.848 658.908 209.328L659.116 205.832H664.02V204.48H657.836L657.484 210.504L658.748 210.984C659.164 210.384 659.884 209.896 660.9 209.896C662.244 209.896 663.388 210.984 663.388 212.376C663.388 213.728 662.3 214.856 660.9 214.856C659.828 214.856 658.788 214.144 658.5 213.008L657.132 213.376C657.596 215.056 659.076 216.24 660.86 216.24ZM665.975 215.992H673.631V214.632H668.167L671.879 211.296C673.063 210.248 673.631 209.488 673.631 207.976C673.631 205.856 672.015 204.24 669.879 204.24C667.663 204.24 666.031 205.784 666.031 207.952H667.487C667.471 206.696 668.479 205.6 669.855 205.6C671.183 205.6 672.175 206.632 672.175 207.96C672.175 208.688 671.943 209.352 671.095 210.112L665.983 214.712L665.975 215.992Z" fill="#110529"/>
    <path d="M690 180V188H834V180" stroke="#110529" stroke-width="2"/>
    <path d="M718.588 216H720.012V205.832H723.94V204.48H714.66V205.832H718.588V216ZM725.214 216H726.638V211.744H730.006L732.07 216H733.702L731.478 211.432C732.782 210.888 733.462 209.632 733.462 208.112C733.462 206.28 732.478 204.832 730.614 204.544C730.318 204.496 729.99 204.48 729.766 204.48H725.214V216ZM726.638 210.392V205.832H729.718C729.918 205.832 730.198 205.848 730.438 205.904C731.542 206.152 732.006 207.152 732.006 208.112C732.006 209.072 731.542 210.072 730.438 210.32C730.198 210.376 729.918 210.392 729.718 210.392H726.638ZM735.464 216H740.352C742.464 216 743.776 214.72 743.776 212.704C743.776 211.424 743.104 210.4 741.936 209.904C742.736 209.44 743.224 208.568 743.224 207.512C743.224 205.912 742.016 204.48 739.952 204.48H735.464V216ZM736.904 214.64V210.632H740.24C741.464 210.632 742.312 211.536 742.312 212.696C742.312 213.912 741.352 214.64 740.08 214.64H736.904ZM736.904 209.288V205.824H739.936C741.016 205.824 741.76 206.52 741.76 207.512C741.76 208.592 740.952 209.288 739.936 209.288H736.904ZM747.45 216.232C748.61 216.232 749.618 215.76 750.202 214.744C750.626 214.008 750.578 213.376 750.578 212.384V204.48H749.138V212.384C749.138 213.096 749.138 213.592 748.93 214.008C748.618 214.632 747.962 214.88 747.418 214.88C746.562 214.88 745.834 214.264 745.666 213.48L744.25 213.816C744.658 215.288 745.834 216.232 747.45 216.232ZM752.659 215.992H760.315V214.632H754.851L758.563 211.296C759.747 210.248 760.315 209.488 760.315 207.976C760.315 205.856 758.699 204.24 756.563 204.24C754.347 204.24 752.715 205.784 752.715 207.952H754.171C754.155 206.696 755.163 205.6 756.539 205.6C757.867 205.6 758.859 206.632 758.859 207.96C758.859 208.688 758.627 209.352 757.779 210.112L752.667 214.712L752.659 215.992ZM762.069 210.824H766.869V209.648H762.069V210.824ZM769.556 216H771.092L775.228 205.848V204.48H768.468V205.848H773.7L769.556 216ZM777.791 214.8H779.359V213.232H777.791V214.8ZM777.799 210.128H779.367V208.56H777.799V210.128ZM785.05 215.992H792.706V214.632H787.242L790.954 211.296C792.138 210.248 792.706 209.488 792.706 207.976C792.706 205.856 791.09 204.24 788.954 204.24C786.738 204.24 785.106 205.784 785.106 207.952H786.562C786.546 206.696 787.554 205.6 788.93 205.6C790.258 205.6 791.25 206.632 791.25 207.96C791.25 208.688 791.018 209.352 790.17 210.112L785.058 214.712L785.05 215.992ZM796.628 216H798.076V204.48H796.628L794.46 205.776V207.368L796.628 206.056V216ZM800.8 215.992H808.456V214.632H802.992L806.704 211.296C807.888 210.248 808.456 209.488 808.456 207.976C808.456 205.856 806.84 204.24 804.704 204.24C802.488 204.24 800.856 205.784 800.856 207.952H802.312C802.296 206.696 803.304 205.6 804.68 205.6C806.008 205.6 807 206.632 807 207.96C807 208.688 806.768 209.352 805.92 210.112L800.808 214.712L800.8 215.992Z" fill="#110529"/>
    <defs>
        <filter id="filter0_i_5544_35613" x="593" y="115" width="32" height="54" filterUnits="userSpaceOnUse" color-interpolation-filters="sRGB">
            <feFlood flood-opacity="0" result="BackgroundImageFix"/>
            <feBlend mode="normal" in="SourceGraphic" in2="BackgroundImageFix" result="shape"/>
            <feColorMatrix in="SourceAlpha" type="matrix" values="0 0 0 0 0 0 0 0 0 0 0 0 0 0 0 0 0 0 127 0" result="hardAlpha"/>
            <feOffset dx="-8" dy="-4"/>
            <feComposite in2="hardAlpha" operator="arithmetic" k2="-1" k3="1"/>
            <feColorMatrix type="matrix" values="0 0 0 0 0.0666667 0 0 0 0 0.0196078 0 0 0 0 0.160784 0 0 0 0.16 0"/>
            <feBlend mode="normal" in2="shape" result="effect1_innerShadow_5544_35613"/>
        </filter>
        <filter id="filter1_i_5544_35613" x="659" y="115" width="32" height="54" filterUnits="userSpaceOnUse" color-interpolation-filters="sRGB">
            <feFlood flood-opacity="0" result="BackgroundImageFix"/>
            <feBlend mode="normal" in="SourceGraphic" in2="BackgroundImageFix" result="shape"/>
            <feColorMatrix in="SourceAlpha" type="matrix" values="0 0 0 0 0 0 0 0 0 0 0 0 0 0 0 0 0 0 127 0" result="hardAlpha"/>
            <feOffset dx="-8" dy="-4"/>
            <feComposite in2="hardAlpha" operator="arithmetic" k2="-1" k3="1"/>
            <feColorMatrix type="matrix" values="0 0 0 0 0.0666667 0 0 0 0 0.0196078 0 0 0 0 0.160784 0 0 0 0.16 0"/>
            <feBlend mode="normal" in2="shape" result="effect1_innerShadow_5544_35613"/>
        </filter>
        <filter id="filter2_i_5544_35613" x="623" y="115" width="38" height="54" filterUnits="userSpaceOnUse" color-interpolation-filters="sRGB">
            <feFlood flood-opacity="0" result="BackgroundImageFix"/>
            <feBlend mode="normal" in="SourceGraphic" in2="BackgroundImageFix" result="shape"/>
            <feColorMatrix in="SourceAlpha" type="matrix" values="0 0 0 0 0 0 0 0 0 0 0 0 0 0 0 0 0 0 127 0" result="hardAlpha"/>
            <feOffset dx="-8" dy="-4"/>
            <feComposite in2="hardAlpha" operator="arithmetic" k2="-1" k3="1"/>
            <feColorMatrix type="matrix" values="0 0 0 0 0.0666667 0 0 0 0 0.0196078 0 0 0 0 0.160784 0 0 0 0.16 0"/>
            <feBlend mode="normal" in2="shape" result="effect1_innerShadow_5544_35613"/>
        </filter>
        <filter id="filter3_i_5544_35613" x="108.737" y="115" width="331.293" height="54" filterUnits="userSpaceOnUse" color-interpolation-filters="sRGB">
            <feFlood flood-opacity="0" result="BackgroundImageFix"/>
            <feBlend mode="normal" in="SourceGraphic" in2="BackgroundImageFix" result="shape"/>
            <feColorMatrix in="SourceAlpha" type="matrix" values="0 0 0 0 0 0 0 0 0 0 0 0 0 0 0 0 0 0 127 0" result="hardAlpha"/>
            <feOffset dx="-8" dy="-4"/>
            <feComposite in2="hardAlpha" operator="arithmetic" k2="-1" k3="1"/>
            <feColorMatrix type="matrix" values="0 0 0 0 0.0666667 0 0 0 0 0.0196078 0 0 0 0 0.160784 0 0 0 0.16 0"/>
            <feBlend mode="normal" in2="shape" result="effect1_innerShadow_5544_35613"/>
        </filter>
        <filter id="filter4_i_5544_35613" x="500.737" y="115" width="94.2625" height="54" filterUnits="userSpaceOnUse" color-interpolation-filters="sRGB">
            <feFlood flood-opacity="0" result="BackgroundImageFix"/>
            <feBlend mode="normal" in="SourceGraphic" in2="BackgroundImageFix" result="shape"/>
            <feColorMatrix in="SourceAlpha" type="matrix" values="0 0 0 0 0 0 0 0 0 0 0 0 0 0 0 0 0 0 127 0" result="hardAlpha"/>
            <feOffset dx="-8" dy="-4"/>
            <feComposite in2="hardAlpha" operator="arithmetic" k2="-1" k3="1"/>
            <feColorMatrix type="matrix" values="0 0 0 0 0.0666667 0 0 0 0 0.0196078 0 0 0 0 0.160784 0 0 0 0.16 0"/>
            <feBlend mode="normal" in2="shape" result="effect1_innerShadow_5544_35613"/>
        </filter>
        <filter id="filter5_i_5544_35613" x="689" y="115" width="146" height="54" filterUnits="userSpaceOnUse" color-interpolation-filters="sRGB">
            <feFlood flood-opacity="0" result="BackgroundImageFix"/>
            <feBlend mode="normal" in="SourceGraphic" in2="BackgroundImageFix" result="shape"/>
            <feColorMatrix in="SourceAlpha" type="matrix" values="0 0 0 0 0 0 0 0 0 0 0 0 0 0 0 0 0 0 127 0" result="hardAlpha"/>
            <feOffset dx="-8" dy="-4"/>
            <feComposite in2="hardAlpha" operator="arithmetic" k2="-1" k3="1"/>
            <feColorMatrix type="matrix" values="0 0 0 0 0.0666667 0 0 0 0 0.0196078 0 0 0 0 0.160784 0 0 0 0.16 0"/>
            <feBlend mode="normal" in2="shape" result="effect1_innerShadow_5544_35613"/>
        </filter>
        <filter id="filter6_i_5544_35613" x="833" y="115" width="19.0309" height="54" filterUnits="userSpaceOnUse" color-interpolation-filters="sRGB">
            <feFlood flood-opacity="0" result="BackgroundImageFix"/>
            <feBlend mode="normal" in="SourceGraphic" in2="BackgroundImageFix" result="shape"/>
            <feColorMatrix in="SourceAlpha" type="matrix" values="0 0 0 0 0 0 0 0 0 0 0 0 0 0 0 0 0 0 127 0" result="hardAlpha"/>
            <feOffset dx="-8" dy="-4"/>
            <feComposite in2="hardAlpha" operator="arithmetic" k2="-1" k3="1"/>
            <feColorMatrix type="matrix" values="0 0 0 0 0.0666667 0 0 0 0 0.0196078 0 0 0 0 0.160784 0 0 0 0.16 0"/>
            <feBlend mode="normal" in2="shape" result="effect1_innerShadow_5544_35613"/>
        </filter>
        <filter id="filter7_i_5544_35613" x="109" y="23" width="742" height="54" filterUnits="userSpaceOnUse" color-interpolation-filters="sRGB">
            <feFlood flood-opacity="0" result="BackgroundImageFix"/>
            <feBlend mode="normal" in="SourceGraphic" in2="BackgroundImageFix" result="shape"/>
            <feColorMatrix in="SourceAlpha" type="matrix" values="0 0 0 0 0 0 0 0 0 0 0 0 0 0 0 0 0 0 127 0" result="hardAlpha"/>
            <feOffset dx="-8" dy="-4"/>
            <feComposite in2="hardAlpha" operator="arithmetic" k2="-1" k3="1"/>
            <feColorMatrix type="matrix" values="0 0 0 0 0.0666667 0 0 0 0 0.0196078 0 0 0 0 0.160784 0 0 0 0.16 0"/>
            <feBlend mode="normal" in2="shape" result="effect1_innerShadow_5544_35613"/>
        </filter>
    </defs>
</svg>
