<svg width="960" height="306" viewBox="0 0 960 306" fill="none" xmlns="http://www.w3.org/2000/svg">
    <rect width="960" height="306" fill="white"/>
    <rect x="518" y="152" width="64" height="8" rx="1" fill="#99E099" fill-opacity="0.6"/>
    <g filter="url(#filter0_i_6449_38895)">
        <path d="M232 131.6C232 131.04 232 130.76 232.109 130.546C232.205 130.358 232.358 130.205 232.546 130.109C232.76 130 233.04 130 233.6 130H532L526.983 136.5L532 142.5L526.983 149.5L532 155.5L526.983 162.5L532 169L526.983 175.5L532 182H233.6C233.04 182 232.76 182 232.546 181.891C232.358 181.795 232.205 181.642 232.109 181.454C232 181.24 232 180.96 232 180.4V175.5V169V162V156V149.5V143V136.5V131.6Z" fill="#99E099"/>
    </g>
    <path d="M232 131.6C232 131.04 232 130.76 232.109 130.546C232.205 130.358 232.358 130.205 232.546 130.109C232.76 130 233.04 130 233.6 130H532L526.983 136.5L532 142.5L526.983 149.5L532 155.5L526.983 162.5L532 169L526.983 175.5L532 182H233.6C233.04 182 232.76 182 232.546 181.891C232.358 181.795 232.205 181.642 232.109 181.454C232 181.24 232 180.96 232 180.4V175.5V169V162V156V149.5V143V136.5V131.6Z" stroke="#110529" stroke-width="2" stroke-linecap="round"/>
    <g filter="url(#filter1_i_6449_38895)">
        <path d="M596 130H629.4C629.96 130 630.24 130 630.454 130.109C630.642 130.205 630.795 130.358 630.891 130.546C631 130.76 631 131.04 631 131.6V180.4C631 180.96 631 181.24 630.891 181.454C630.795 181.642 630.642 181.795 630.454 181.891C630.24 182 629.96 182 629.4 182H596L591 175.5L596 169L591 162L596 156L591 149.5L596 143L591 136.5L596 130Z" fill="#99E099"/>
    </g>
    <path d="M596 130H629.4C629.96 130 630.24 130 630.454 130.109C630.642 130.205 630.795 130.358 630.891 130.546C631 130.76 631 131.04 631 131.6V180.4C631 180.96 631 181.24 630.891 181.454C630.795 181.642 630.642 181.795 630.454 181.891C630.24 182 629.96 182 629.4 182H596L591 175.5L596 169L591 162L596 156L591 149.5L596 143L591 136.5L596 130Z" stroke="#110529" stroke-width="2" stroke-linecap="round"/>
    <g filter="url(#filter2_i_6449_38895)">
        <path d="M577 130H638.4C638.96 130 639.24 130 639.454 130.109C639.642 130.205 639.795 130.358 639.891 130.546C640 130.76 640 131.04 640 131.6V180.4C640 180.96 640 181.24 639.891 181.454C639.795 181.642 639.642 181.795 639.454 181.891C639.24 182 638.96 182 638.4 182H577L572 175.5L577 169L572 162L577 156L572 149.5L577 143L572 136.5L577 130Z" fill="#99E099"/>
    </g>
    <path d="M577 130H638.4C638.96 130 639.24 130 639.454 130.109C639.642 130.205 639.795 130.358 639.891 130.546C640 130.76 640 131.04 640 131.6V180.4C640 180.96 640 181.24 639.891 181.454C639.795 181.642 639.642 181.795 639.454 181.891C639.24 182 638.96 182 638.4 182H577L572 175.5L577 169L572 162L577 156L572 149.5L577 143L572 136.5L577 130Z" stroke="#110529" stroke-width="2" stroke-linecap="round"/>
    <g filter="url(#filter3_i_6449_38895)">
        <rect x="734" y="130" width="128" height="52" rx="1" fill="#C1ADFF"/>
        <path d="M797.244 164.29C798.694 164.29 799.954 163.7 800.684 162.43C801.214 161.51 801.154 160.72 801.154 159.48V149.6H799.354V159.48C799.354 160.37 799.354 160.99 799.094 161.51C798.704 162.29 797.884 162.6 797.204 162.6C796.134 162.6 795.224 161.83 795.014 160.85L793.244 161.27C793.754 163.11 795.224 164.29 797.244 164.29Z" fill="#110529"/>
        <rect x="734" y="130" width="128" height="52" rx="1" stroke="#110529" stroke-width="2" stroke-linecap="round"/>
    </g>
    <g filter="url(#filter4_i_6449_38895)">
        <path d="M882 130H863.6C863.04 130 862.76 130 862.546 130.109C862.358 130.205 862.205 130.358 862.109 130.546C862 130.76 862 131.04 862 131.6V180.4C862 180.96 862 181.24 862.109 181.454C862.205 181.642 862.358 181.795 862.546 181.891C862.76 182 863.04 182 863.6 182H882L877 175.5L882 169L877 162L882 156L877 149.5L882 143L877 136.5L882 130Z" fill="#FAFAAA"/>
    </g>
    <path d="M882 130H863.6C863.04 130 862.76 130 862.546 130.109C862.358 130.205 862.205 130.358 862.109 130.546C862 130.76 862 131.04 862 131.6V180.4C862 180.96 862 181.24 862.109 181.454C862.205 181.642 862.358 181.795 862.546 181.891C862.76 182 863.04 182 863.6 182H882L877 175.5L882 169L877 162L882 156L877 149.5L882 143L877 136.5L882 130Z" stroke="#110529" stroke-width="2" stroke-linecap="round"/>
    <g filter="url(#filter5_i_6449_38895)">
        <rect x="83.3805" y="230" width="795.62" height="52" rx="2" fill="#E8ECF2"/>
    </g>
    <rect x="83.3805" y="230" width="795.62" height="52" rx="2" stroke="#110529" stroke-width="2" stroke-linecap="round"/>
    <path d="M396.258 164H398.738L403.558 149.6H401.708L397.478 162.11L393.288 149.6H391.438L396.258 164Z" fill="#110529"/>
    <g filter="url(#filter6_i_6449_38895)">
        <rect x="64" y="130" width="56" height="52" rx="1" fill="#E8ECF2"/>
        <rect x="64" y="130" width="56" height="52" rx="1" stroke="#110529" stroke-width="2" stroke-linecap="round"/>
    </g>
    <g filter="url(#filter7_i_6449_38895)">
        <rect x="120" y="130" width="64" height="52" rx="1" fill="#D6E0FF"/>
        <path d="M140.553 164.3C143.893 164.3 146.233 162.1 146.233 158.75V149.6H144.433V158.6C144.433 161.31 142.393 162.62 140.553 162.62C138.733 162.62 136.673 161.33 136.673 158.6V149.6L134.873 149.61V158.75C134.873 162.11 137.213 164.3 140.553 164.3ZM149.033 164H150.723V153.51L155.613 164H156.563L161.453 153.51V163.99H163.143V149.6H161.503L156.093 161.07L150.653 149.6H149.033V164ZM166.147 164H167.927V149.6H166.147V164Z" fill="#110529"/>
        <rect x="120" y="130" width="64" height="52" rx="1" stroke="#110529" stroke-width="2" stroke-linecap="round"/>
    </g>
    <g filter="url(#filter8_i_6449_38895)">
        <rect x="184" y="130" width="24" height="52" rx="1" fill="#E8ECF2"/>
        <rect x="184" y="130" width="24" height="52" rx="1" stroke="#110529" stroke-width="2" stroke-linecap="round"/>
    </g>
    <g filter="url(#filter9_i_6449_38895)">
        <rect x="208" y="130" width="24" height="52" rx="1" fill="#FFADBA"/>
        <path d="M220.091 164.3C224.301 164.3 226.541 161.39 226.541 157.44C226.541 157.32 226.531 156.87 226.501 156.59H221.561V158.06H224.621C224.401 160.93 222.961 162.62 220.181 162.6C216.961 162.58 215.331 160.25 215.351 156.8C215.371 153.35 216.961 150.99 220.181 151.01C222.231 151.02 223.621 152.14 224.231 153.88L226.031 153.51C225.281 150.92 223.311 149.31 220.091 149.31C216.061 149.31 213.461 152.21 213.461 156.8C213.461 161.44 216.121 164.3 220.091 164.3Z" fill="#110529"/>
        <rect x="208" y="130" width="24" height="52" rx="1" stroke="#110529" stroke-width="2" stroke-linecap="round"/>
    </g>
    <path d="M417.358 37H418.821V32.695H422.489V31.225H418.821V28.383H423.329V26.92H417.358V37ZM424.59 37H426.053V33.381H428.727L430.484 37H432.157L430.253 33.094C431.394 32.597 431.968 31.491 431.968 30.147C431.968 28.516 431.128 27.235 429.441 26.976C429.175 26.934 428.86 26.92 428.664 26.92H424.59V37ZM426.053 31.995V28.299H428.608C428.79 28.299 429.035 28.313 429.245 28.369C430.141 28.579 430.477 29.405 430.477 30.147C430.477 30.889 430.141 31.715 429.245 31.932C429.035 31.981 428.79 31.995 428.608 31.995H426.053ZM435.453 37H436.944V26.92H435.453L433.556 28.054V29.685L435.453 28.53V37Z" fill="#D3D7E0"/>
    <path d="M595.805 37H597.268V32.695H600.936V31.225H597.268V28.383H601.776V26.92H595.805V37ZM603.038 37H604.501V33.381H607.175L608.932 37H610.605L608.701 33.094C609.842 32.597 610.416 31.491 610.416 30.147C610.416 28.516 609.576 27.235 607.889 26.976C607.623 26.934 607.308 26.92 607.112 26.92H603.038V37ZM604.501 31.995V28.299H607.056C607.238 28.299 607.483 28.313 607.693 28.369C608.589 28.579 608.925 29.405 608.925 30.147C608.925 30.889 608.589 31.715 607.693 31.932C607.483 31.981 607.238 31.995 607.056 31.995H604.501ZM614.964 37.189C616.847 37.189 618.331 35.796 618.331 33.871C618.331 32.233 617.323 30.924 615.692 30.707L618.184 28.313V26.92H612.122V28.313H616.392L613.312 31.036L613.998 32.191C614.285 32.037 614.628 31.939 614.95 31.939C616.07 31.939 616.833 32.751 616.833 33.871C616.833 34.984 616.07 35.789 614.964 35.803C614.138 35.81 613.403 35.341 613.137 34.466L611.723 34.858C612.15 36.293 613.466 37.189 614.964 37.189Z" fill="#D3D7E0"/>
    <path d="M515.001 37H516.548V35.453H515.001V37ZM519.007 37H520.554V35.453H519.007V37ZM523.013 37H524.56V35.453H523.013V37Z" fill="#D3D7E0"/>
    <path d="M673.682 37.21C676.006 37.21 677.567 35.943 678.162 33.955L676.678 33.556C676.279 34.963 675.278 35.817 673.682 35.817C671.54 35.817 670.448 34.27 670.462 31.96C670.469 29.65 671.54 28.103 673.682 28.103C675.278 28.103 676.279 28.957 676.678 30.364L678.162 29.965C677.567 27.977 676.006 26.71 673.682 26.71C670.658 26.71 668.915 28.845 668.915 31.96C668.915 35.075 670.658 37.21 673.682 37.21ZM679.702 37H682.859C683.041 37 683.643 37 684.112 36.937C686.478 36.636 687.738 34.529 687.738 31.96C687.738 29.391 686.478 27.284 684.112 26.983C683.643 26.92 683.041 26.92 682.859 26.92H679.702V37ZM681.2 35.607V28.313H682.859C683.167 28.313 683.671 28.32 684.007 28.383C685.519 28.663 686.184 30.189 686.184 31.96C686.184 33.689 685.547 35.243 684.007 35.537C683.671 35.6 683.181 35.607 682.859 35.607H681.2ZM689.368 37H690.831V33.381H693.505L695.262 37H696.935L695.031 33.094C696.172 32.597 696.746 31.491 696.746 30.147C696.746 28.516 695.906 27.235 694.219 26.976C693.953 26.934 693.638 26.92 693.442 26.92H689.368V37ZM690.831 31.995V28.299H693.386C693.568 28.299 693.813 28.313 694.023 28.369C694.919 28.579 695.255 29.405 695.255 30.147C695.255 30.889 694.919 31.715 694.023 31.932C693.813 31.981 693.568 31.995 693.386 31.995H690.831ZM701.294 37.189C703.177 37.189 704.661 35.796 704.661 33.871C704.661 32.233 703.653 30.924 702.022 30.707L704.514 28.313V26.92H698.452V28.313H702.722L699.642 31.036L700.328 32.191C700.615 32.037 700.958 31.939 701.28 31.939C702.4 31.939 703.163 32.751 703.163 33.871C703.163 34.984 702.4 35.789 701.294 35.803C700.468 35.81 699.733 35.341 699.467 34.466L698.053 34.858C698.48 36.293 699.796 37.189 701.294 37.189Z" fill="#D3D7E0"/>
    <path d="M791.593 37H793.056V32.695H796.724V31.225H793.056V28.383H797.564V26.92H791.593V37ZM798.826 37H800.289V33.381H802.963L804.72 37H806.393L804.489 33.094C805.63 32.597 806.204 31.491 806.204 30.147C806.204 28.516 805.364 27.235 803.677 26.976C803.411 26.934 803.096 26.92 802.9 26.92H798.826V37ZM800.289 31.995V28.299H802.844C803.026 28.299 803.271 28.313 803.481 28.369C804.377 28.579 804.713 29.405 804.713 30.147C804.713 30.889 804.377 31.715 803.481 31.932C803.271 31.981 803.026 31.995 802.844 31.995H800.289ZM812.201 37H813.685V35.243H814.686V33.857H813.685V31.127H812.201V33.857H809.324L812.6 26.92H810.927L807.651 33.857V35.243H812.201V37Z" fill="#D3D7E0"/>
    <path d="M630 124V24" stroke="#D3D7E0" stroke-width="2" stroke-dasharray="6 6"/>
    <path d="M744 124V24" stroke="#D3D7E0" stroke-width="2" stroke-dasharray="6 6"/>
    <path d="M502.944 124V24" stroke="#D3D7E0" stroke-width="2" stroke-dasharray="6 6"/>
    <path d="M862 124L862 24" stroke="#D3D7E0" stroke-width="2" stroke-dasharray="6 6"/>
    <path d="M246.268 37.21C248.151 37.21 249.768 35.705 249.768 33.829C249.768 31.939 248.382 30.525 246.499 30.525C245.904 30.525 245.274 30.714 244.777 31.071L244.945 28.299H249.075V26.92H243.636L243.328 32.219L244.602 32.667C244.917 32.247 245.484 31.855 246.31 31.855C247.388 31.855 248.291 32.723 248.291 33.829C248.291 34.907 247.416 35.796 246.31 35.796C245.47 35.796 244.637 35.229 244.406 34.333L242.999 34.711C243.412 36.181 244.714 37.21 246.268 37.21ZM251.672 29.629L251.581 30.28C252.589 30.462 253.128 29.846 253.128 28.747V26.92H251.581V28.607H252.386C252.456 29.202 252.281 29.678 251.672 29.629ZM259.15 37.21C261.523 37.21 263.168 35.663 263.168 33.29V26.92H261.684V33.213C261.684 34.914 260.417 35.831 259.15 35.831C257.897 35.831 256.616 34.935 256.616 33.213V26.92L255.132 26.927V33.29C255.132 35.663 256.777 37.21 259.15 37.21ZM267.639 37H269.102V28.299H272.455V26.92H264.286V28.299H267.639V37ZM273.576 37H275.039V33.381H277.713L279.47 37H281.143L279.239 33.094C280.38 32.597 280.954 31.491 280.954 30.147C280.954 28.516 280.114 27.235 278.427 26.976C278.161 26.934 277.846 26.92 277.65 26.92H273.576V37ZM275.039 31.995V28.299H277.594C277.776 28.299 278.021 28.313 278.231 28.369C279.127 28.579 279.463 29.405 279.463 30.147C279.463 30.889 279.127 31.715 278.231 31.932C278.021 31.981 277.776 31.995 277.594 31.995H275.039Z" fill="#D3D7E0"/>
    <path d="M301.489 37H307.516V35.621H302.952V26.92H301.489V37ZM310.462 37H311.953V26.92H310.462L308.565 28.054V29.685L310.462 28.53V37Z" fill="#D3D7E0"/>
    <path d="M330.334 37H336.361V35.621H331.797V26.92H330.334V37ZM337.269 36.993H344.087V35.6H339.53L342.449 32.996C343.541 32.037 344.087 31.407 344.087 30.028C344.087 28.117 342.652 26.71 340.748 26.71C338.739 26.71 337.304 28.047 337.304 30H338.802C338.788 28.985 339.6 28.103 340.72 28.103C341.805 28.103 342.582 28.929 342.582 30.007C342.582 30.581 342.372 31.127 341.665 31.757L337.276 35.691L337.269 36.993Z" fill="#D3D7E0"/>
    <path d="M292 124V24" stroke="#D3D7E0" stroke-width="2" stroke-dasharray="6 6"/>
    <path d="M322 124V24" stroke="#D3D7E0" stroke-width="2" stroke-dasharray="6 6"/>
    <path d="M352 124V74V24" stroke="#D3D7E0" stroke-width="2" stroke-dasharray="6 6"/>
    <path d="M232 124V24" stroke="#D3D7E0" stroke-width="2" stroke-dasharray="6 6"/>
    <path d="M28 44L64 124" stroke="#D3D7E0" stroke-width="2" stroke-dasharray="6 6"/>
    <path d="M154 44L120 124" stroke="#D3D7E0" stroke-width="2" stroke-dasharray="6 6"/>
    <path d="M196 44L196 124" stroke="#D3D7E0" stroke-width="2" stroke-dasharray="6 6"/>
    <path d="M13.8397 37H15.3027V28.299H18.6557V26.92H10.4867V28.299H13.8397V37ZM23.8989 37.21C26.8319 37.21 28.4979 35.166 28.4979 32.359C28.4979 32.289 28.4909 31.939 28.4699 31.764H24.9559V32.94H26.9159C26.7129 34.809 25.7119 35.838 23.9829 35.817C21.8409 35.803 20.7629 34.27 20.7699 31.96C20.7769 29.65 21.8409 28.089 23.9829 28.103C25.3689 28.117 26.2929 28.887 26.6989 30.091L28.1829 29.825C27.6649 27.886 26.2649 26.717 23.8989 26.717C21.1409 26.717 19.2159 28.705 19.2159 31.96C19.2159 35.264 21.1969 37.21 23.8989 37.21ZM34.0161 37.21C36.9491 37.21 38.6151 35.166 38.6151 32.359C38.6151 32.289 38.6081 31.939 38.5871 31.764H35.0731V32.94H37.0331C36.8301 34.809 35.8291 35.838 34.1001 35.817C31.9581 35.803 30.8801 34.27 30.8871 31.96C30.8941 29.65 31.9581 28.089 34.1001 28.103C35.4861 28.117 36.4101 28.887 36.8161 30.091L38.3001 29.825C37.7821 27.886 36.3821 26.717 34.0161 26.717C31.2581 26.717 29.3331 28.705 29.3331 31.96C29.3331 35.264 31.3141 37.21 34.0161 37.21ZM42.2498 37H43.7128V28.299H47.0658V26.92H38.8968V28.299H42.2498V37ZM47.2126 37H48.7316L49.4666 34.725H53.6036L54.3526 37H55.8716L52.5956 26.92H50.4886L47.2126 37ZM49.9146 33.353L51.5246 28.383L53.1556 33.353H49.9146ZM58.8065 37H60.2695V28.299H63.6225V26.92H55.4535V28.299H58.8065V37ZM68.9497 37.21C71.2737 37.21 72.8347 35.943 73.4297 33.955L71.9457 33.556C71.5467 34.963 70.5457 35.817 68.9497 35.817C66.8077 35.817 65.7157 34.27 65.7297 31.96C65.7367 29.65 66.8077 28.103 68.9497 28.103C70.5457 28.103 71.5467 28.957 71.9457 30.364L73.4297 29.965C72.8347 27.977 71.2737 26.71 68.9497 26.71C65.9257 26.71 64.1827 28.845 64.1827 31.96C64.1827 35.075 65.9257 37.21 68.9497 37.21ZM73.9958 37H75.5148L76.2498 34.725H80.3868L81.1358 37H82.6548L79.3788 26.92H77.2718L73.9958 37ZM76.6978 33.353L78.3078 28.383L79.9388 33.353H76.6978ZM83.6755 37H85.1945L85.9295 34.725H90.0665L90.8155 37H92.3345L89.0585 26.92H86.9515L83.6755 37ZM86.3775 33.353L87.9875 28.383L89.6185 33.353H86.3775ZM97.5239 37.21C99.8479 37.21 101.409 35.943 102.004 33.955L100.52 33.556C100.121 34.963 99.1199 35.817 97.5239 35.817C95.3819 35.817 94.2899 34.27 94.3039 31.96C94.3109 29.65 95.3819 28.103 97.5239 28.103C99.1199 28.103 100.121 28.957 100.52 30.364L102.004 29.965C101.409 27.977 99.8479 26.71 97.5239 26.71C94.4999 26.71 92.7569 28.845 92.7569 31.96C92.7569 35.075 94.4999 37.21 97.5239 37.21ZM107.666 37.21C110.599 37.21 112.265 35.166 112.265 32.359C112.265 32.289 112.258 31.939 112.237 31.764H108.723V32.94H110.683C110.48 34.809 109.479 35.838 107.75 35.817C105.608 35.803 104.53 34.27 104.537 31.96C104.544 29.65 105.608 28.089 107.75 28.103C109.136 28.117 110.06 28.887 110.466 30.091L111.95 29.825C111.432 27.886 110.032 26.717 107.666 26.717C104.908 26.717 102.983 28.705 102.983 31.96C102.983 35.264 104.964 37.21 107.666 37.21ZM117.868 37.21C120.192 37.21 121.753 35.943 122.348 33.955L120.864 33.556C120.465 34.963 119.464 35.817 117.868 35.817C115.726 35.817 114.634 34.27 114.648 31.96C114.655 29.65 115.726 28.103 117.868 28.103C119.464 28.103 120.465 28.957 120.864 30.364L122.348 29.965C121.753 27.977 120.192 26.71 117.868 26.71C114.844 26.71 113.101 28.845 113.101 31.96C113.101 35.075 114.844 37.21 117.868 37.21ZM122.914 37H124.433L125.168 34.725H129.305L130.054 37H131.573L128.297 26.92H126.19L122.914 37ZM125.616 33.353L127.226 28.383L128.857 33.353H125.616ZM136.678 37.21C139.611 37.21 141.277 35.166 141.277 32.359C141.277 32.289 141.27 31.939 141.249 31.764H137.735V32.94H139.695C139.492 34.809 138.491 35.838 136.762 35.817C134.62 35.803 133.542 34.27 133.549 31.96C133.556 29.65 134.62 28.089 136.762 28.103C138.148 28.117 139.072 28.887 139.478 30.091L140.962 29.825C140.444 27.886 139.044 26.717 136.678 26.717C133.92 26.717 131.995 28.705 131.995 31.96C131.995 35.264 133.976 37.21 136.678 37.21ZM141.699 37H143.218L143.953 34.725H148.09L148.839 37H150.358L147.082 26.92H144.975L141.699 37ZM144.401 33.353L146.011 28.383L147.642 33.353H144.401ZM155.463 37.21C158.396 37.21 160.062 35.166 160.062 32.359C160.062 32.289 160.055 31.939 160.034 31.764H156.52V32.94H158.48C158.277 34.809 157.276 35.838 155.547 35.817C153.405 35.803 152.327 34.27 152.334 31.96C152.341 29.65 153.405 28.089 155.547 28.103C156.933 28.117 157.857 28.887 158.263 30.091L159.747 29.825C159.229 27.886 157.829 26.717 155.463 26.717C152.705 26.717 150.78 28.705 150.78 31.96C150.78 35.264 152.761 37.21 155.463 37.21ZM163.697 37H165.16V28.299H168.513V26.92H160.344V28.299H163.697V37Z" fill="#D3D7E0"/>
    <path d="M181.789 37H183.252V28.299H186.605V26.92H178.436V28.299H181.789V37ZM191.932 37.21C194.256 37.21 195.817 35.943 196.412 33.955L194.928 33.556C194.529 34.963 193.528 35.817 191.932 35.817C189.79 35.817 188.698 34.27 188.712 31.96C188.719 29.65 189.79 28.103 191.932 28.103C193.528 28.103 194.529 28.957 194.928 30.364L196.412 29.965C195.817 27.977 194.256 26.71 191.932 26.71C188.908 26.71 187.165 28.845 187.165 31.96C187.165 35.075 188.908 37.21 191.932 37.21ZM200.465 37H201.928V28.299H205.281V26.92H197.112V28.299H200.465V37ZM209.748 37H211.211V28.299H214.564V26.92H206.395V28.299H209.748V37Z" fill="#D3D7E0"/>
    <path d="M386.088 104H387.512V93.832H391.44V92.48H382.16V93.832H386.088V104ZM392.714 104H394.138V99.744H397.506L399.57 104H401.202L398.978 99.432C400.282 98.888 400.962 97.632 400.962 96.112C400.962 94.28 399.978 92.832 398.114 92.544C397.818 92.496 397.49 92.48 397.266 92.48H392.714V104ZM394.138 98.392V93.832H397.218C397.418 93.832 397.698 93.848 397.938 93.904C399.042 94.152 399.506 95.152 399.506 96.112C399.506 97.072 399.042 98.072 397.938 98.32C397.698 98.376 397.418 98.392 397.218 98.392H394.138ZM402.964 104H407.852C409.964 104 411.276 102.72 411.276 100.704C411.276 99.424 410.604 98.4 409.436 97.904C410.236 97.44 410.724 96.568 410.724 95.512C410.724 93.912 409.516 92.48 407.452 92.48H402.964V104ZM404.404 102.64V98.632H407.74C408.964 98.632 409.812 99.536 409.812 100.696C409.812 101.912 408.852 102.64 407.58 102.64H404.404ZM404.404 97.288V93.824H407.436C408.516 93.824 409.26 94.52 409.26 95.512C409.26 96.592 408.452 97.288 407.436 97.288H404.404ZM415.202 104H417.186L421.042 92.48H419.562L416.178 102.488L412.826 92.48H411.346L415.202 104ZM424.253 104H425.701V92.48H424.253L422.085 93.776V95.368L424.253 94.056V104ZM430.753 104H432.201V92.48H430.753L428.585 93.776V95.368L430.753 94.056V104ZM435.085 98.824H439.885V97.648H435.085V98.824ZM443.972 104H445.42V92.48H443.972L441.804 93.776V95.368L443.972 94.056V104ZM449.104 102.8H450.672V101.232H449.104V102.8ZM449.112 98.128H450.68V96.56H449.112V98.128ZM458.691 104H460.139V92.48H458.691L456.523 93.776V95.368L458.691 94.056V104ZM462.863 103.992H470.519V102.632H465.055L468.767 99.296C469.951 98.248 470.519 97.488 470.519 95.976C470.519 93.856 468.903 92.24 466.766 92.24C464.551 92.24 462.919 93.784 462.919 95.952H464.375C464.359 94.696 465.367 93.6 466.743 93.6C468.071 93.6 469.063 94.632 469.063 95.96C469.063 96.688 468.831 97.352 467.983 98.112L462.871 102.712L462.863 103.992ZM472.113 103.992H479.769V102.632H474.305L478.017 99.296C479.201 98.248 479.769 97.488 479.769 95.976C479.769 93.856 478.153 92.24 476.016 92.24C473.801 92.24 472.169 93.784 472.169 95.952H473.625C473.609 94.696 474.617 93.6 475.993 93.6C477.321 93.6 478.313 94.632 478.313 95.96C478.313 96.688 478.081 97.352 477.233 98.112L472.121 102.712L472.113 103.992ZM484.843 104.224C486.979 104.224 488.602 102.664 488.602 100.456C488.602 98.44 487.323 96.944 485.339 96.832L488.451 93.848V92.48H481.659V93.84H486.683L482.939 97.224L483.627 98.352C483.987 98.168 484.427 98.048 484.819 98.048C486.203 98.048 487.139 99.032 487.139 100.456C487.139 101.864 486.235 102.84 484.835 102.864C483.811 102.88 482.914 102.312 482.571 101.24L481.203 101.632C481.691 103.232 483.131 104.224 484.843 104.224Z" fill="#110529"/>
    <path d="M232 124V116H640V124" stroke="#110529" stroke-width="2"/>
    <path d="M649.311 104H650.735V93.832H654.663V92.48H645.383V93.832H649.311V104ZM655.936 104H657.36V99.744H660.728L662.792 104H664.424L662.2 99.432C663.504 98.888 664.184 97.632 664.184 96.112C664.184 94.28 663.2 92.832 661.336 92.544C661.04 92.496 660.712 92.48 660.488 92.48H655.936V104ZM657.36 98.392V93.832H660.44C660.64 93.832 660.92 93.848 661.16 93.904C662.264 94.152 662.728 95.152 662.728 96.112C662.728 97.072 662.264 98.072 661.16 98.32C660.92 98.376 660.64 98.392 660.44 98.392H657.36ZM666.186 104H671.074C673.186 104 674.498 102.72 674.498 100.704C674.498 99.424 673.826 98.4 672.658 97.904C673.458 97.44 673.946 96.568 673.946 95.512C673.946 93.912 672.738 92.48 670.674 92.48H666.186V104ZM667.626 102.64V98.632H670.962C672.186 98.632 673.034 99.536 673.034 100.696C673.034 101.912 672.074 102.64 670.802 102.64H667.626ZM667.626 97.288V93.824H670.658C671.738 93.824 672.482 94.52 672.482 95.512C672.482 96.592 671.674 97.288 670.658 97.288H667.626ZM676.093 104H679.645C679.861 104 680.565 104 681.101 103.928C683.765 103.576 685.149 101.184 685.149 98.24C685.149 95.304 683.765 92.904 681.101 92.552C680.557 92.48 679.869 92.48 679.645 92.48H676.093V104ZM677.557 102.64V93.84H679.645C680.029 93.84 680.605 93.856 680.981 93.928C682.845 94.264 683.637 96.064 683.637 98.24C683.637 100.376 682.869 102.208 680.981 102.552C680.605 102.624 680.045 102.64 679.645 102.64H677.557ZM686.663 103.992H694.319V102.632H688.855L692.567 99.296C693.751 98.248 694.319 97.488 694.319 95.976C694.319 93.856 692.703 92.24 690.567 92.24C688.351 92.24 686.719 93.784 686.719 95.952H688.175C688.159 94.696 689.167 93.6 690.543 93.6C691.871 93.6 692.863 94.632 692.863 95.96C692.863 96.688 692.631 97.352 691.783 98.112L686.671 102.712L686.663 103.992ZM696.873 102.8H698.441V101.232H696.873V102.8ZM696.881 98.128H698.449V96.56H696.881V98.128ZM707.86 104.24C710.004 104.24 711.82 102.504 711.82 100.376C711.82 98.232 710.196 96.584 708.06 96.584C707.284 96.584 706.508 96.848 705.908 97.328L706.116 93.832H711.02V92.48H704.836L704.484 98.504L705.748 98.984C706.164 98.384 706.884 97.896 707.9 97.896C709.244 97.896 710.388 98.984 710.388 100.376C710.388 101.728 709.3 102.856 707.9 102.856C706.828 102.856 705.788 102.144 705.5 101.008L704.132 101.376C704.596 103.056 706.076 104.24 707.86 104.24ZM712.976 103.992H720.632V102.632H715.168L718.88 99.296C720.064 98.248 720.632 97.488 720.632 95.976C720.632 93.856 719.016 92.24 716.88 92.24C714.664 92.24 713.032 93.784 713.032 95.952H714.488C714.472 94.696 715.48 93.6 716.856 93.6C718.184 93.6 719.176 94.632 719.176 95.96C719.176 96.688 718.944 97.352 718.096 98.112L712.984 102.712L712.976 103.992Z" fill="#110529"/>
    <path d="M668.848 124V116H704.848V124" stroke="#110529" stroke-width="2"/>
    <path d="M754.588 104H756.012V93.832H759.94V92.48H750.66V93.832H754.588V104ZM761.214 104H762.638V99.744H766.006L768.07 104H769.702L767.478 99.432C768.782 98.888 769.462 97.632 769.462 96.112C769.462 94.28 768.478 92.832 766.614 92.544C766.318 92.496 765.99 92.48 765.766 92.48H761.214V104ZM762.638 98.392V93.832H765.718C765.918 93.832 766.198 93.848 766.438 93.904C767.542 94.152 768.006 95.152 768.006 96.112C768.006 97.072 767.542 98.072 766.438 98.32C766.198 98.376 765.918 98.392 765.718 98.392H762.638ZM771.464 104H776.352C778.464 104 779.776 102.72 779.776 100.704C779.776 99.424 779.104 98.4 777.936 97.904C778.736 97.44 779.224 96.568 779.224 95.512C779.224 93.912 778.016 92.48 775.952 92.48H771.464V104ZM772.904 102.64V98.632H776.24C777.464 98.632 778.312 99.536 778.312 100.696C778.312 101.912 777.352 102.64 776.08 102.64H772.904ZM772.904 97.288V93.824H775.936C777.016 93.824 777.76 94.52 777.76 95.512C777.76 96.592 776.952 97.288 775.936 97.288H772.904ZM783.45 104.232C784.61 104.232 785.618 103.76 786.202 102.744C786.626 102.008 786.578 101.376 786.578 100.384V92.48H785.138V100.384C785.138 101.096 785.138 101.592 784.93 102.008C784.618 102.632 783.962 102.88 783.418 102.88C782.562 102.88 781.834 102.264 781.666 101.48L780.25 101.816C780.658 103.288 781.834 104.232 783.45 104.232ZM788.659 103.992H796.315V102.632H790.851L794.563 99.296C795.747 98.248 796.315 97.488 796.315 95.976C796.315 93.856 794.699 92.24 792.563 92.24C790.347 92.24 788.715 93.784 788.715 95.952H790.171C790.155 94.696 791.163 93.6 792.539 93.6C793.867 93.6 794.859 94.632 794.859 95.96C794.859 96.688 794.627 97.352 793.779 98.112L788.667 102.712L788.659 103.992ZM798.069 98.824H802.869V97.648H798.069V98.824ZM805.556 104H807.092L811.228 93.848V92.48H804.468V93.848H809.7L805.556 104ZM813.791 102.8H815.359V101.232H813.791V102.8ZM813.799 98.128H815.367V96.56H813.799V98.128ZM821.05 103.992H828.706V102.632H823.242L826.954 99.296C828.138 98.248 828.706 97.488 828.706 95.976C828.706 93.856 827.09 92.24 824.954 92.24C822.738 92.24 821.106 93.784 821.106 95.952H822.562C822.546 94.696 823.554 93.6 824.93 93.6C826.258 93.6 827.25 94.632 827.25 95.96C827.25 96.688 827.018 97.352 826.17 98.112L821.058 102.712L821.05 103.992ZM832.628 104H834.076V92.48H832.628L830.46 93.776V95.368L832.628 94.056V104ZM836.8 103.992H844.456V102.632H838.992L842.704 99.296C843.888 98.248 844.456 97.488 844.456 95.976C844.456 93.856 842.84 92.24 840.704 92.24C838.488 92.24 836.856 93.784 836.856 95.952H838.312C838.296 94.696 839.304 93.6 840.68 93.6C842.008 93.6 843 94.632 843 95.96C843 96.688 842.768 97.352 841.92 98.112L836.808 102.712L836.8 103.992Z" fill="#110529"/>
    <path d="M734 124V116H862V124" stroke="#110529" stroke-width="2"/>
    <path d="M137.519 104H138.967V92.48H137.519L135.351 93.776V95.368L137.519 94.056V104ZM146.987 104H148.427V101.88H149.627V100.528H148.427V97.288H146.987V100.528H143.307L147.107 92.48H145.491L141.691 100.528V101.88H146.987V104ZM155.51 104.24C157.926 104.24 159.382 102.264 159.382 99.672C159.382 97.08 157.918 95.12 155.518 95.12C154.438 95.12 153.582 95.496 152.966 96.144V92.48H151.534V104H152.806V103.024C153.438 103.784 154.342 104.24 155.51 104.24ZM152.806 99.672C152.806 97.76 153.606 96.424 155.294 96.424C157.054 96.424 157.87 97.848 157.87 99.672C157.87 101.512 157.038 102.936 155.334 102.936C153.59 102.936 152.806 101.568 152.806 99.672ZM165.104 104.24C167.52 104.24 168.976 102.264 168.976 99.672C168.976 97.08 167.512 95.12 165.112 95.12C163.936 95.12 163.032 95.568 162.4 96.328V95.36H161.128V107.84H162.56V103.2C163.176 103.856 164.032 104.24 165.104 104.24ZM162.4 99.672C162.4 97.76 163.2 96.424 164.888 96.424C166.648 96.424 167.464 97.848 167.464 99.672C167.464 101.512 166.632 102.936 164.928 102.936C163.184 102.936 162.4 101.568 162.4 99.672Z" fill="#110529"/>
    <path d="M120 124V116H184V124" stroke="#110529" stroke-width="2"/>
    <g filter="url(#filter10_i_6449_38895)">
        <rect x="640" y="130" width="29" height="52" rx="1" fill="#CBEB67"/>
    </g>
    <rect x="640" y="130" width="29" height="52" rx="1" stroke="#110529" stroke-width="2" stroke-linecap="round"/>
    <g filter="url(#filter11_i_6449_38895)">
        <rect x="705" y="130" width="29" height="52" rx="1" fill="#FAAAFA"/>
    </g>
    <rect x="705" y="130" width="29" height="52" rx="1" stroke="#110529" stroke-width="2" stroke-linecap="round"/>
    <g filter="url(#filter12_i_6449_38895)">
        <rect x="669" y="130" width="36" height="52" rx="1" fill="#FFCB8F"/>
    </g>
    <rect x="669" y="130" width="36" height="52" rx="1" stroke="#110529" stroke-width="2" stroke-linecap="round"/>
    <path d="M648.947 164H650.747V152.74L658.257 164H660.057V149.6H658.257V160.85L650.747 149.6H648.947V164Z" fill="#110529"/>
    <path d="M713.947 164H715.747V152.74L723.257 164H725.057V149.6H723.257V160.85L715.747 149.6H713.947V164Z" fill="#110529"/>
    <path d="M681.593 164H686.033C686.303 164 687.183 164 687.853 163.91C691.183 163.47 692.913 160.48 692.913 156.8C692.913 153.13 691.183 150.13 687.853 149.69C687.173 149.6 686.313 149.6 686.033 149.6H681.593V164ZM683.423 162.3V151.3H686.033C686.513 151.3 687.233 151.32 687.703 151.41C690.033 151.83 691.023 154.08 691.023 156.8C691.023 159.47 690.063 161.76 687.703 162.19C687.233 162.28 686.533 162.3 686.033 162.3H683.423Z" fill="#110529"/>
    <g filter="url(#filter13_i_6449_38895)">
        <rect x="64" y="230" width="818" height="52" rx="2" fill="#E8ECF2"/>
    </g>
    <rect x="64" y="230" width="818" height="52" rx="2" stroke="#110529" stroke-width="2" stroke-linecap="round"/>
    <rect x="121" y="245" width="64" height="24" rx="2" fill="#D6E0FF"/>
    <rect opacity="0.5" x="234" y="245" width="294" height="24" rx="2" fill="#99E099"/>
    <rect opacity="0.5" x="579" y="245" width="64" height="24" rx="2" fill="#99E099"/>
    <rect opacity="0.5" x="669" y="245" width="38" height="24" rx="2" fill="#FFCB8F"/>
    <rect opacity="0.5" x="733" y="245" width="128" height="24" rx="2" fill="#C1ADFF"/>
    <path d="M75.78 257.28H82.02V264H80.46V262.32H80.22C79.9933 262.907 79.5933 263.38 79.02 263.74C78.4467 264.1 77.78 264.28 77.02 264.28C75.5133 264.28 74.3267 263.793 73.46 262.82C72.6067 261.847 72.18 260.427 72.18 258.56V255.44C72.18 253.627 72.6133 252.22 73.48 251.22C74.3467 250.22 75.5533 249.72 77.1 249.72C77.9 249.72 78.6067 249.853 79.22 250.12C79.8333 250.373 80.3467 250.733 80.76 251.2C81.1733 251.653 81.4867 252.193 81.7 252.82C81.9133 253.433 82.02 254.093 82.02 254.8V255.04H80.34V254.8C80.34 254.347 80.2733 253.907 80.14 253.48C80.02 253.053 79.8267 252.68 79.56 252.36C79.3067 252.027 78.9733 251.767 78.56 251.58C78.16 251.38 77.6733 251.28 77.1 251.28C76.02 251.28 75.2067 251.673 74.66 252.46C74.1267 253.247 73.86 254.28 73.86 255.56V258.44C73.86 259.813 74.1267 260.873 74.66 261.62C75.2067 262.353 76.0333 262.72 77.14 262.72C78.14 262.72 78.92 262.4 79.48 261.76C80.0533 261.12 80.34 260.227 80.34 259.08V258.84H75.78V257.28ZM84.8461 250H94.6861V251.56H90.6061V264H88.9261V251.56H84.8461V250ZM105.412 260.52H99.4122L98.3922 264H96.5922L100.832 250H103.992L108.232 264H106.432L105.412 260.52ZM102.292 250.72L99.8722 258.96H104.952L102.532 250.72H102.292ZM115.138 262.72C115.712 262.72 116.198 262.627 116.598 262.44C117.012 262.24 117.345 261.98 117.598 261.66C117.865 261.327 118.058 260.953 118.178 260.54C118.312 260.113 118.378 259.667 118.378 259.2V258.96H120.058V259.2C120.058 259.907 119.952 260.573 119.738 261.2C119.525 261.813 119.212 262.353 118.798 262.82C118.385 263.273 117.872 263.633 117.258 263.9C116.645 264.153 115.938 264.28 115.138 264.28C113.592 264.28 112.385 263.793 111.518 262.82C110.652 261.847 110.218 260.427 110.218 258.56V255.44C110.218 253.627 110.652 252.22 111.518 251.22C112.385 250.22 113.592 249.72 115.138 249.72C115.938 249.72 116.645 249.853 117.258 250.12C117.872 250.373 118.385 250.733 118.798 251.2C119.212 251.653 119.525 252.193 119.738 252.82C119.952 253.433 120.058 254.093 120.058 254.8V255.04H118.378V254.8C118.365 254.347 118.292 253.907 118.158 253.48C118.038 253.053 117.845 252.68 117.578 252.36C117.325 252.027 116.998 251.767 116.598 251.58C116.198 251.38 115.712 251.28 115.138 251.28C114.058 251.28 113.245 251.673 112.698 252.46C112.165 253.247 111.898 254.28 111.898 255.56V258.44C111.898 259.813 112.165 260.873 112.698 261.62C113.245 262.353 114.058 262.72 115.138 262.72ZM186.015 250H195.855V251.56H191.775V264H190.095V251.56H186.015V250ZM203.661 262.72C204.234 262.72 204.721 262.627 205.121 262.44C205.534 262.24 205.868 261.98 206.121 261.66C206.388 261.327 206.581 260.953 206.701 260.54C206.834 260.113 206.901 259.667 206.901 259.2V258.96H208.581V259.2C208.581 259.907 208.474 260.573 208.261 261.2C208.048 261.813 207.734 262.353 207.321 262.82C206.908 263.273 206.394 263.633 205.781 263.9C205.168 264.153 204.461 264.28 203.661 264.28C202.114 264.28 200.908 263.793 200.041 262.82C199.174 261.847 198.741 260.427 198.741 258.56V255.44C198.741 253.627 199.174 252.22 200.041 251.22C200.908 250.22 202.114 249.72 203.661 249.72C204.461 249.72 205.168 249.853 205.781 250.12C206.394 250.373 206.908 250.733 207.321 251.2C207.734 251.653 208.048 252.193 208.261 252.82C208.474 253.433 208.581 254.093 208.581 254.8V255.04H206.901V254.8C206.888 254.347 206.814 253.907 206.681 253.48C206.561 253.053 206.368 252.68 206.101 252.36C205.848 252.027 205.521 251.767 205.121 251.58C204.721 251.38 204.234 251.28 203.661 251.28C202.581 251.28 201.768 251.673 201.221 252.46C200.688 253.247 200.421 254.28 200.421 255.56V258.44C200.421 259.813 200.688 260.873 201.221 261.62C201.768 262.353 202.581 262.72 203.661 262.72ZM211.307 250H221.147V251.56H217.067V264H215.387V251.56H211.307V250ZM228.953 262.72C229.526 262.72 230.013 262.627 230.413 262.44C230.826 262.24 231.16 261.98 231.413 261.66C231.68 261.327 231.873 260.953 231.993 260.54C232.126 260.113 232.193 259.667 232.193 259.2V258.96H233.873V259.2C233.873 259.907 233.766 260.573 233.553 261.2C233.34 261.813 233.026 262.353 232.613 262.82C232.2 263.273 231.686 263.633 231.073 263.9C230.46 264.153 229.753 264.28 228.953 264.28C227.406 264.28 226.2 263.793 225.333 262.82C224.466 261.847 224.033 260.427 224.033 258.56V255.44C224.033 253.627 224.466 252.22 225.333 251.22C226.2 250.22 227.406 249.72 228.953 249.72C229.753 249.72 230.46 249.853 231.073 250.12C231.686 250.373 232.2 250.733 232.613 251.2C233.026 251.653 233.34 252.193 233.553 252.82C233.766 253.433 233.873 254.093 233.873 254.8V255.04H232.193V254.8C232.18 254.347 232.106 253.907 231.973 253.48C231.853 253.053 231.66 252.68 231.393 252.36C231.14 252.027 230.813 251.767 230.413 251.58C230.013 251.38 229.526 251.28 228.953 251.28C227.873 251.28 227.06 251.673 226.513 252.46C225.98 253.247 225.713 254.28 225.713 255.56V258.44C225.713 259.813 225.98 260.873 226.513 261.62C227.06 262.353 227.873 262.72 228.953 262.72Z" fill="#060E33" fill-opacity="0.24"/>
    <path d="M126.364 257.28H132.604V264H131.044V262.32H130.804C130.578 262.907 130.178 263.38 129.604 263.74C129.031 264.1 128.364 264.28 127.604 264.28C126.098 264.28 124.911 263.793 124.044 262.82C123.191 261.847 122.764 260.427 122.764 258.56V255.44C122.764 253.627 123.198 252.22 124.064 251.22C124.931 250.22 126.138 249.72 127.684 249.72C128.484 249.72 129.191 249.853 129.804 250.12C130.418 250.373 130.931 250.733 131.344 251.2C131.758 251.653 132.071 252.193 132.284 252.82C132.498 253.433 132.604 254.093 132.604 254.8V255.04H130.924V254.8C130.924 254.347 130.858 253.907 130.724 253.48C130.604 253.053 130.411 252.68 130.144 252.36C129.891 252.027 129.558 251.767 129.144 251.58C128.744 251.38 128.258 251.28 127.684 251.28C126.604 251.28 125.791 251.673 125.244 252.46C124.711 253.247 124.444 254.28 124.444 255.56V258.44C124.444 259.813 124.711 260.873 125.244 261.62C125.791 262.353 126.618 262.72 127.724 262.72C128.724 262.72 129.504 262.4 130.064 261.76C130.638 261.12 130.924 260.227 130.924 259.08V258.84H126.364V257.28ZM140.43 262.72C141.004 262.72 141.49 262.627 141.89 262.44C142.304 262.24 142.637 261.98 142.89 261.66C143.157 261.327 143.35 260.953 143.47 260.54C143.604 260.113 143.67 259.667 143.67 259.2V258.96H145.35V259.2C145.35 259.907 145.244 260.573 145.03 261.2C144.817 261.813 144.504 262.353 144.09 262.82C143.677 263.273 143.164 263.633 142.55 263.9C141.937 264.153 141.23 264.28 140.43 264.28C138.884 264.28 137.677 263.793 136.81 262.82C135.944 261.847 135.51 260.427 135.51 258.56V255.44C135.51 253.627 135.944 252.22 136.81 251.22C137.677 250.22 138.884 249.72 140.43 249.72C141.23 249.72 141.937 249.853 142.55 250.12C143.164 250.373 143.677 250.733 144.09 251.2C144.504 251.653 144.817 252.193 145.03 252.82C145.244 253.433 145.35 254.093 145.35 254.8V255.04H143.67V254.8C143.657 254.347 143.584 253.907 143.45 253.48C143.33 253.053 143.137 252.68 142.87 252.36C142.617 252.027 142.29 251.767 141.89 251.58C141.49 251.38 141.004 251.28 140.43 251.28C139.35 251.28 138.537 251.673 137.99 252.46C137.457 253.247 137.19 254.28 137.19 255.56V258.44C137.19 259.813 137.457 260.873 137.99 261.62C138.537 262.353 139.35 262.72 140.43 262.72ZM148.077 250H157.917V251.56H153.837V264H152.157V251.56H148.077V250ZM168.643 260.52H162.643L161.623 264H159.823L164.063 250H167.223L171.463 264H169.663L168.643 260.52ZM165.523 250.72L163.103 258.96H168.183L165.763 250.72H165.523ZM176.949 257.28H183.189V264H181.629V262.32H181.389C181.162 262.907 180.762 263.38 180.189 263.74C179.615 264.1 178.949 264.28 178.189 264.28C176.682 264.28 175.495 263.793 174.629 262.82C173.775 261.847 173.349 260.427 173.349 258.56V255.44C173.349 253.627 173.782 252.22 174.649 251.22C175.515 250.22 176.722 249.72 178.269 249.72C179.069 249.72 179.775 249.853 180.389 250.12C181.002 250.373 181.515 250.733 181.929 251.2C182.342 251.653 182.655 252.193 182.869 252.82C183.082 253.433 183.189 254.093 183.189 254.8V255.04H181.509V254.8C181.509 254.347 181.442 253.907 181.309 253.48C181.189 253.053 180.995 252.68 180.729 252.36C180.475 252.027 180.142 251.767 179.729 251.58C179.329 251.38 178.842 251.28 178.269 251.28C177.189 251.28 176.375 251.673 175.829 252.46C175.295 253.247 175.029 254.28 175.029 255.56V258.44C175.029 259.813 175.295 260.873 175.829 261.62C176.375 262.353 177.202 262.72 178.309 262.72C179.309 262.72 180.089 262.4 180.649 261.76C181.222 261.12 181.509 260.227 181.509 259.08V258.84H176.949V257.28ZM240.179 257.28H246.419V264H244.859V262.32H244.619C244.393 262.907 243.993 263.38 243.419 263.74C242.846 264.1 242.179 264.28 241.419 264.28C239.913 264.28 238.726 263.793 237.859 262.82C237.006 261.847 236.579 260.427 236.579 258.56V255.44C236.579 253.627 237.013 252.22 237.879 251.22C238.746 250.22 239.953 249.72 241.499 249.72C242.299 249.72 243.006 249.853 243.619 250.12C244.233 250.373 244.746 250.733 245.159 251.2C245.573 251.653 245.886 252.193 246.099 252.82C246.313 253.433 246.419 254.093 246.419 254.8V255.04H244.739V254.8C244.739 254.347 244.673 253.907 244.539 253.48C244.419 253.053 244.226 252.68 243.959 252.36C243.706 252.027 243.373 251.767 242.959 251.58C242.559 251.38 242.073 251.28 241.499 251.28C240.419 251.28 239.606 251.673 239.059 252.46C238.526 253.247 238.259 254.28 238.259 255.56V258.44C238.259 259.813 238.526 260.873 239.059 261.62C239.606 262.353 240.433 262.72 241.539 262.72C242.539 262.72 243.319 262.4 243.879 261.76C244.453 261.12 244.739 260.227 244.739 259.08V258.84H240.179V257.28ZM249.245 250H259.085V251.56H255.005V264H253.325V251.56H249.245V250ZM265.471 257.28H271.711V264H270.151V262.32H269.911C269.685 262.907 269.285 263.38 268.711 263.74C268.138 264.1 267.471 264.28 266.711 264.28C265.205 264.28 264.018 263.793 263.151 262.82C262.298 261.847 261.871 260.427 261.871 258.56V255.44C261.871 253.627 262.305 252.22 263.171 251.22C264.038 250.22 265.245 249.72 266.791 249.72C267.591 249.72 268.298 249.853 268.911 250.12C269.525 250.373 270.038 250.733 270.451 251.2C270.865 251.653 271.178 252.193 271.391 252.82C271.605 253.433 271.711 254.093 271.711 254.8V255.04H270.031V254.8C270.031 254.347 269.965 253.907 269.831 253.48C269.711 253.053 269.518 252.68 269.251 252.36C268.998 252.027 268.665 251.767 268.251 251.58C267.851 251.38 267.365 251.28 266.791 251.28C265.711 251.28 264.898 251.673 264.351 252.46C263.818 253.247 263.551 254.28 263.551 255.56V258.44C263.551 259.813 263.818 260.873 264.351 261.62C264.898 262.353 265.725 262.72 266.831 262.72C267.831 262.72 268.611 262.4 269.171 261.76C269.745 261.12 270.031 260.227 270.031 259.08V258.84H265.471V257.28ZM274.537 250H284.377V251.56H280.297V264H278.617V251.56H274.537V250ZM290.764 257.28H297.004V264H295.444V262.32H295.204C294.977 262.907 294.577 263.38 294.004 263.74C293.43 264.1 292.764 264.28 292.004 264.28C290.497 264.28 289.31 263.793 288.444 262.82C287.59 261.847 287.164 260.427 287.164 258.56V255.44C287.164 253.627 287.597 252.22 288.464 251.22C289.33 250.22 290.537 249.72 292.084 249.72C292.884 249.72 293.59 249.853 294.204 250.12C294.817 250.373 295.33 250.733 295.744 251.2C296.157 251.653 296.47 252.193 296.684 252.82C296.897 253.433 297.004 254.093 297.004 254.8V255.04H295.324V254.8C295.324 254.347 295.257 253.907 295.124 253.48C295.004 253.053 294.81 252.68 294.544 252.36C294.29 252.027 293.957 251.767 293.544 251.58C293.144 251.38 292.657 251.28 292.084 251.28C291.004 251.28 290.19 251.673 289.644 252.46C289.11 253.247 288.844 254.28 288.844 255.56V258.44C288.844 259.813 289.11 260.873 289.644 261.62C290.19 262.353 291.017 262.72 292.124 262.72C293.124 262.72 293.904 262.4 294.464 261.76C295.037 261.12 295.324 260.227 295.324 259.08V258.84H290.764V257.28ZM304.83 262.72C305.403 262.72 305.89 262.627 306.29 262.44C306.703 262.24 307.036 261.98 307.29 261.66C307.556 261.327 307.75 260.953 307.87 260.54C308.003 260.113 308.07 259.667 308.07 259.2V258.96H309.75V259.2C309.75 259.907 309.643 260.573 309.43 261.2C309.216 261.813 308.903 262.353 308.49 262.82C308.076 263.273 307.563 263.633 306.95 263.9C306.336 264.153 305.63 264.28 304.83 264.28C303.283 264.28 302.076 263.793 301.21 262.82C300.343 261.847 299.91 260.427 299.91 258.56V255.44C299.91 253.627 300.343 252.22 301.21 251.22C302.076 250.22 303.283 249.72 304.83 249.72C305.63 249.72 306.336 249.853 306.95 250.12C307.563 250.373 308.076 250.733 308.49 251.2C308.903 251.653 309.216 252.193 309.43 252.82C309.643 253.433 309.75 254.093 309.75 254.8V255.04H308.07V254.8C308.056 254.347 307.983 253.907 307.85 253.48C307.73 253.053 307.536 252.68 307.27 252.36C307.016 252.027 306.69 251.767 306.29 251.58C305.89 251.38 305.403 251.28 304.83 251.28C303.75 251.28 302.936 251.673 302.39 252.46C301.856 253.247 301.59 254.28 301.59 255.56V258.44C301.59 259.813 301.856 260.873 302.39 261.62C302.936 262.353 303.75 262.72 304.83 262.72ZM317.476 262.72C318.049 262.72 318.536 262.627 318.936 262.44C319.349 262.24 319.682 261.98 319.936 261.66C320.202 261.327 320.396 260.953 320.516 260.54C320.649 260.113 320.716 259.667 320.716 259.2V258.96H322.396V259.2C322.396 259.907 322.289 260.573 322.076 261.2C321.862 261.813 321.549 262.353 321.136 262.82C320.722 263.273 320.209 263.633 319.596 263.9C318.982 264.153 318.276 264.28 317.476 264.28C315.929 264.28 314.722 263.793 313.856 262.82C312.989 261.847 312.556 260.427 312.556 258.56V255.44C312.556 253.627 312.989 252.22 313.856 251.22C314.722 250.22 315.929 249.72 317.476 249.72C318.276 249.72 318.982 249.853 319.596 250.12C320.209 250.373 320.722 250.733 321.136 251.2C321.549 251.653 321.862 252.193 322.076 252.82C322.289 253.433 322.396 254.093 322.396 254.8V255.04H320.716V254.8C320.702 254.347 320.629 253.907 320.496 253.48C320.376 253.053 320.182 252.68 319.916 252.36C319.662 252.027 319.336 251.767 318.936 251.58C318.536 251.38 318.049 251.28 317.476 251.28C316.396 251.28 315.582 251.673 315.036 252.46C314.502 253.247 314.236 254.28 314.236 255.56V258.44C314.236 259.813 314.502 260.873 315.036 261.62C315.582 262.353 316.396 262.72 317.476 262.72ZM333.042 260.52H327.042L326.022 264H324.222L328.462 250H331.622L335.862 264H334.062L333.042 260.52ZM329.922 250.72L327.502 258.96H332.582L330.162 250.72H329.922ZM337.768 250H347.608V251.56H343.528V264H341.848V251.56H337.768V250ZM350.414 250H360.254V251.56H356.174V264H354.494V251.56H350.414V250ZM366.64 257.28H372.88V264H371.32V262.32H371.08C370.854 262.907 370.454 263.38 369.88 263.74C369.307 264.1 368.64 264.28 367.88 264.28C366.374 264.28 365.187 263.793 364.32 262.82C363.467 261.847 363.04 260.427 363.04 258.56V255.44C363.04 253.627 363.474 252.22 364.34 251.22C365.207 250.22 366.414 249.72 367.96 249.72C368.76 249.72 369.467 249.853 370.08 250.12C370.694 250.373 371.207 250.733 371.62 251.2C372.034 251.653 372.347 252.193 372.56 252.82C372.774 253.433 372.88 254.093 372.88 254.8V255.04H371.2V254.8C371.2 254.347 371.134 253.907 371 253.48C370.88 253.053 370.687 252.68 370.42 252.36C370.167 252.027 369.834 251.767 369.42 251.58C369.02 251.38 368.534 251.28 367.96 251.28C366.88 251.28 366.067 251.673 365.52 252.46C364.987 253.247 364.72 254.28 364.72 255.56V258.44C364.72 259.813 364.987 260.873 365.52 261.62C366.067 262.353 366.894 262.72 368 262.72C369 262.72 369.78 262.4 370.34 261.76C370.914 261.12 371.2 260.227 371.2 259.08V258.84H366.64V257.28ZM375.706 250H385.546V251.56H381.466V264H379.786V251.56H375.706V250ZM391.932 257.28H398.172V264H396.612V262.32H396.372C396.146 262.907 395.746 263.38 395.172 263.74C394.599 264.1 393.932 264.28 393.172 264.28C391.666 264.28 390.479 263.793 389.612 262.82C388.759 261.847 388.332 260.427 388.332 258.56V255.44C388.332 253.627 388.766 252.22 389.632 251.22C390.499 250.22 391.706 249.72 393.252 249.72C394.052 249.72 394.759 249.853 395.372 250.12C395.986 250.373 396.499 250.733 396.912 251.2C397.326 251.653 397.639 252.193 397.852 252.82C398.066 253.433 398.172 254.093 398.172 254.8V255.04H396.492V254.8C396.492 254.347 396.426 253.907 396.292 253.48C396.172 253.053 395.979 252.68 395.712 252.36C395.459 252.027 395.126 251.767 394.712 251.58C394.312 251.38 393.826 251.28 393.252 251.28C392.172 251.28 391.359 251.673 390.812 252.46C390.279 253.247 390.012 254.28 390.012 255.56V258.44C390.012 259.813 390.279 260.873 390.812 261.62C391.359 262.353 392.186 262.72 393.292 262.72C394.292 262.72 395.072 262.4 395.632 261.76C396.206 261.12 396.492 260.227 396.492 259.08V258.84H391.932V257.28ZM408.918 260.52H402.918L401.898 264H400.098L404.338 250H407.498L411.738 264H409.938L408.918 260.52ZM405.798 250.72L403.378 258.96H408.458L406.038 250.72H405.798ZM413.645 250H423.485V251.56H419.405V264H417.725V251.56H413.645V250ZM426.291 250H436.131V251.56H432.051V264H430.371V251.56H426.291V250ZM443.937 262.72C444.51 262.72 444.997 262.627 445.397 262.44C445.81 262.24 446.143 261.98 446.397 261.66C446.663 261.327 446.857 260.953 446.977 260.54C447.11 260.113 447.177 259.667 447.177 259.2V258.96H448.857V259.2C448.857 259.907 448.75 260.573 448.537 261.2C448.323 261.813 448.01 262.353 447.597 262.82C447.183 263.273 446.67 263.633 446.057 263.9C445.443 264.153 444.737 264.28 443.937 264.28C442.39 264.28 441.183 263.793 440.317 262.82C439.45 261.847 439.017 260.427 439.017 258.56V255.44C439.017 253.627 439.45 252.22 440.317 251.22C441.183 250.22 442.39 249.72 443.937 249.72C444.737 249.72 445.443 249.853 446.057 250.12C446.67 250.373 447.183 250.733 447.597 251.2C448.01 251.653 448.323 252.193 448.537 252.82C448.75 253.433 448.857 254.093 448.857 254.8V255.04H447.177V254.8C447.163 254.347 447.09 253.907 446.957 253.48C446.837 253.053 446.643 252.68 446.377 252.36C446.123 252.027 445.797 251.767 445.397 251.58C444.997 251.38 444.51 251.28 443.937 251.28C442.857 251.28 442.043 251.673 441.497 252.46C440.963 253.247 440.697 254.28 440.697 255.56V258.44C440.697 259.813 440.963 260.873 441.497 261.62C442.043 262.353 442.857 262.72 443.937 262.72ZM456.583 262.72C457.156 262.72 457.643 262.627 458.043 262.44C458.456 262.24 458.789 261.98 459.043 261.66C459.309 261.327 459.503 260.953 459.623 260.54C459.756 260.113 459.823 259.667 459.823 259.2V258.96H461.503V259.2C461.503 259.907 461.396 260.573 461.183 261.2C460.969 261.813 460.656 262.353 460.243 262.82C459.829 263.273 459.316 263.633 458.703 263.9C458.089 264.153 457.383 264.28 456.583 264.28C455.036 264.28 453.829 263.793 452.963 262.82C452.096 261.847 451.663 260.427 451.663 258.56V255.44C451.663 253.627 452.096 252.22 452.963 251.22C453.829 250.22 455.036 249.72 456.583 249.72C457.383 249.72 458.089 249.853 458.703 250.12C459.316 250.373 459.829 250.733 460.243 251.2C460.656 251.653 460.969 252.193 461.183 252.82C461.396 253.433 461.503 254.093 461.503 254.8V255.04H459.823V254.8C459.809 254.347 459.736 253.907 459.603 253.48C459.483 253.053 459.289 252.68 459.023 252.36C458.769 252.027 458.443 251.767 458.043 251.58C457.643 251.38 457.156 251.28 456.583 251.28C455.503 251.28 454.689 251.673 454.143 252.46C453.609 253.247 453.343 254.28 453.343 255.56V258.44C453.343 259.813 453.609 260.873 454.143 261.62C454.689 262.353 455.503 262.72 456.583 262.72ZM467.809 257.28H474.049V264H472.489V262.32H472.249C472.022 262.907 471.622 263.38 471.049 263.74C470.476 264.1 469.809 264.28 469.049 264.28C467.542 264.28 466.356 263.793 465.489 262.82C464.636 261.847 464.209 260.427 464.209 258.56V255.44C464.209 253.627 464.642 252.22 465.509 251.22C466.376 250.22 467.582 249.72 469.129 249.72C469.929 249.72 470.636 249.853 471.249 250.12C471.862 250.373 472.376 250.733 472.789 251.2C473.202 251.653 473.516 252.193 473.729 252.82C473.942 253.433 474.049 254.093 474.049 254.8V255.04H472.369V254.8C472.369 254.347 472.302 253.907 472.169 253.48C472.049 253.053 471.856 252.68 471.589 252.36C471.336 252.027 471.002 251.767 470.589 251.58C470.189 251.38 469.702 251.28 469.129 251.28C468.049 251.28 467.236 251.673 466.689 252.46C466.156 253.247 465.889 254.28 465.889 255.56V258.44C465.889 259.813 466.156 260.873 466.689 261.62C467.236 262.353 468.062 262.72 469.169 262.72C470.169 262.72 470.949 262.4 471.509 261.76C472.082 261.12 472.369 260.227 472.369 259.08V258.84H467.809V257.28ZM484.795 260.52H478.795L477.775 264H475.975L480.215 250H483.375L487.615 264H485.815L484.795 260.52ZM481.675 250.72L479.255 258.96H484.335L481.915 250.72H481.675ZM497.441 260.52H491.441L490.421 264H488.621L492.861 250H496.021L500.261 264H498.461L497.441 260.52ZM494.321 250.72L491.901 258.96H496.981L494.561 250.72H494.321ZM502.167 250H512.007V251.56H507.927V264H506.247V251.56H502.167V250ZM518.393 257.28H524.633V264H523.073V262.32H522.833C522.607 262.907 522.207 263.38 521.633 263.74C521.06 264.1 520.393 264.28 519.633 264.28C518.127 264.28 516.94 263.793 516.073 262.82C515.22 261.847 514.793 260.427 514.793 258.56V255.44C514.793 253.627 515.227 252.22 516.093 251.22C516.96 250.22 518.167 249.72 519.713 249.72C520.513 249.72 521.22 249.853 521.833 250.12C522.447 250.373 522.96 250.733 523.373 251.2C523.787 251.653 524.1 252.193 524.313 252.82C524.527 253.433 524.633 254.093 524.633 254.8V255.04H522.953V254.8C522.953 254.347 522.887 253.907 522.753 253.48C522.633 253.053 522.44 252.68 522.173 252.36C521.92 252.027 521.587 251.767 521.173 251.58C520.773 251.38 520.287 251.28 519.713 251.28C518.633 251.28 517.82 251.673 517.273 252.46C516.74 253.247 516.473 254.28 516.473 255.56V258.44C516.473 259.813 516.74 260.873 517.273 261.62C517.82 262.353 518.647 262.72 519.753 262.72C520.753 262.72 521.533 262.4 522.093 261.76C522.667 261.12 522.953 260.227 522.953 259.08V258.84H518.393V257.28ZM530.979 262.88C530.979 262.493 531.113 262.167 531.379 261.9C531.659 261.62 531.993 261.48 532.379 261.48C532.766 261.48 533.093 261.62 533.359 261.9C533.639 262.167 533.779 262.493 533.779 262.88C533.779 263.267 533.639 263.6 533.359 263.88C533.093 264.147 532.766 264.28 532.379 264.28C531.993 264.28 531.659 264.147 531.379 263.88C531.113 263.6 530.979 263.267 530.979 262.88ZM539.225 262.88C539.225 262.493 539.359 262.167 539.625 261.9C539.905 261.62 540.239 261.48 540.625 261.48C541.012 261.48 541.339 261.62 541.605 261.9C541.885 262.167 542.025 262.493 542.025 262.88C542.025 263.267 541.885 263.6 541.605 263.88C541.339 264.147 541.012 264.28 540.625 264.28C540.239 264.28 539.905 264.147 539.625 263.88C539.359 263.6 539.225 263.267 539.225 262.88ZM547.472 262.88C547.472 262.493 547.605 262.167 547.872 261.9C548.152 261.62 548.485 261.48 548.872 261.48C549.258 261.48 549.585 261.62 549.852 261.9C550.132 262.167 550.272 262.493 550.272 262.88C550.272 263.267 550.132 263.6 549.852 263.88C549.585 264.147 549.258 264.28 548.872 264.28C548.485 264.28 548.152 264.147 547.872 263.88C547.605 263.6 547.472 263.267 547.472 262.88ZM555.718 262.88C555.718 262.493 555.851 262.167 556.118 261.9C556.398 261.62 556.731 261.48 557.118 261.48C557.504 261.48 557.831 261.62 558.098 261.9C558.378 262.167 558.518 262.493 558.518 262.88C558.518 263.267 558.378 263.6 558.098 263.88C557.831 264.147 557.504 264.28 557.118 264.28C556.731 264.28 556.398 264.147 556.118 263.88C555.851 263.6 555.718 263.267 555.718 262.88ZM563.964 262.88C563.964 262.493 564.097 262.167 564.364 261.9C564.644 261.62 564.977 261.48 565.364 261.48C565.75 261.48 566.077 261.62 566.344 261.9C566.624 262.167 566.764 262.493 566.764 262.88C566.764 263.267 566.624 263.6 566.344 263.88C566.077 264.147 565.75 264.28 565.364 264.28C564.977 264.28 564.644 264.147 564.364 263.88C564.097 263.6 563.964 263.267 563.964 262.88ZM572.21 262.88C572.21 262.493 572.343 262.167 572.61 261.9C572.89 261.62 573.223 261.48 573.61 261.48C573.997 261.48 574.323 261.62 574.59 261.9C574.87 262.167 575.01 262.493 575.01 262.88C575.01 263.267 574.87 263.6 574.59 263.88C574.323 264.147 573.997 264.28 573.61 264.28C573.223 264.28 572.89 264.147 572.61 263.88C572.343 263.6 572.21 263.267 572.21 262.88ZM584.516 257.28H590.756V264H589.196V262.32H588.956C588.729 262.907 588.329 263.38 587.756 263.74C587.183 264.1 586.516 264.28 585.756 264.28C584.249 264.28 583.063 263.793 582.196 262.82C581.343 261.847 580.916 260.427 580.916 258.56V255.44C580.916 253.627 581.349 252.22 582.216 251.22C583.083 250.22 584.289 249.72 585.836 249.72C586.636 249.72 587.343 249.853 587.956 250.12C588.569 250.373 589.083 250.733 589.496 251.2C589.909 251.653 590.223 252.193 590.436 252.82C590.649 253.433 590.756 254.093 590.756 254.8V255.04H589.076V254.8C589.076 254.347 589.009 253.907 588.876 253.48C588.756 253.053 588.563 252.68 588.296 252.36C588.043 252.027 587.709 251.767 587.296 251.58C586.896 251.38 586.409 251.28 585.836 251.28C584.756 251.28 583.943 251.673 583.396 252.46C582.863 253.247 582.596 254.28 582.596 255.56V258.44C582.596 259.813 582.863 260.873 583.396 261.62C583.943 262.353 584.769 262.72 585.876 262.72C586.876 262.72 587.656 262.4 588.216 261.76C588.789 261.12 589.076 260.227 589.076 259.08V258.84H584.516V257.28ZM597.162 257.28H603.402V264H601.842V262.32H601.602C601.375 262.907 600.975 263.38 600.402 263.74C599.829 264.1 599.162 264.28 598.402 264.28C596.895 264.28 595.709 263.793 594.842 262.82C593.989 261.847 593.562 260.427 593.562 258.56V255.44C593.562 253.627 593.995 252.22 594.862 251.22C595.729 250.22 596.935 249.72 598.482 249.72C599.282 249.72 599.989 249.853 600.602 250.12C601.215 250.373 601.729 250.733 602.142 251.2C602.555 251.653 602.869 252.193 603.082 252.82C603.295 253.433 603.402 254.093 603.402 254.8V255.04H601.722V254.8C601.722 254.347 601.655 253.907 601.522 253.48C601.402 253.053 601.209 252.68 600.942 252.36C600.689 252.027 600.355 251.767 599.942 251.58C599.542 251.38 599.055 251.28 598.482 251.28C597.402 251.28 596.589 251.673 596.042 252.46C595.509 253.247 595.242 254.28 595.242 255.56V258.44C595.242 259.813 595.509 260.873 596.042 261.62C596.589 262.353 597.415 262.72 598.522 262.72C599.522 262.72 600.302 262.4 600.862 261.76C601.435 261.12 601.722 260.227 601.722 259.08V258.84H597.162V257.28ZM606.228 250H616.068V251.56H611.988V264H610.308V251.56H606.228V250ZM622.454 257.28H628.694V264H627.134V262.32H626.894C626.668 262.907 626.268 263.38 625.694 263.74C625.121 264.1 624.454 264.28 623.694 264.28C622.188 264.28 621.001 263.793 620.134 262.82C619.281 261.847 618.854 260.427 618.854 258.56V255.44C618.854 253.627 619.288 252.22 620.154 251.22C621.021 250.22 622.228 249.72 623.774 249.72C624.574 249.72 625.281 249.853 625.894 250.12C626.508 250.373 627.021 250.733 627.434 251.2C627.848 251.653 628.161 252.193 628.374 252.82C628.588 253.433 628.694 254.093 628.694 254.8V255.04H627.014V254.8C627.014 254.347 626.948 253.907 626.814 253.48C626.694 253.053 626.501 252.68 626.234 252.36C625.981 252.027 625.648 251.767 625.234 251.58C624.834 251.38 624.348 251.28 623.774 251.28C622.694 251.28 621.881 251.673 621.334 252.46C620.801 253.247 620.534 254.28 620.534 255.56V258.44C620.534 259.813 620.801 260.873 621.334 261.62C621.881 262.353 622.708 262.72 623.814 262.72C624.814 262.72 625.594 262.4 626.154 261.76C626.728 261.12 627.014 260.227 627.014 259.08V258.84H622.454V257.28ZM636.52 262.72C637.094 262.72 637.58 262.627 637.98 262.44C638.394 262.24 638.727 261.98 638.98 261.66C639.247 261.327 639.44 260.953 639.56 260.54C639.694 260.113 639.76 259.667 639.76 259.2V258.96H641.44V259.2C641.44 259.907 641.334 260.573 641.12 261.2C640.907 261.813 640.594 262.353 640.18 262.82C639.767 263.273 639.254 263.633 638.64 263.9C638.027 264.153 637.32 264.28 636.52 264.28C634.974 264.28 633.767 263.793 632.9 262.82C632.034 261.847 631.6 260.427 631.6 258.56V255.44C631.6 253.627 632.034 252.22 632.9 251.22C633.767 250.22 634.974 249.72 636.52 249.72C637.32 249.72 638.027 249.853 638.64 250.12C639.254 250.373 639.767 250.733 640.18 251.2C640.594 251.653 640.907 252.193 641.12 252.82C641.334 253.433 641.44 254.093 641.44 254.8V255.04H639.76V254.8C639.747 254.347 639.674 253.907 639.54 253.48C639.42 253.053 639.227 252.68 638.96 252.36C638.707 252.027 638.38 251.767 637.98 251.58C637.58 251.38 637.094 251.28 636.52 251.28C635.44 251.28 634.627 251.673 634.08 252.46C633.547 253.247 633.28 254.28 633.28 255.56V258.44C633.28 259.813 633.547 260.873 634.08 261.62C634.627 262.353 635.44 262.72 636.52 262.72ZM649.566 262.72C650.14 262.72 650.626 262.627 651.026 262.44C651.44 262.24 651.773 261.98 652.026 261.66C652.293 261.327 652.486 260.953 652.606 260.54C652.74 260.113 652.806 259.667 652.806 259.2V258.96H654.486V259.2C654.486 259.907 654.38 260.573 654.166 261.2C653.953 261.813 653.64 262.353 653.226 262.82C652.813 263.273 652.3 263.633 651.686 263.9C651.073 264.153 650.366 264.28 649.566 264.28C648.02 264.28 646.813 263.793 645.946 262.82C645.08 261.847 644.646 260.427 644.646 258.56V255.44C644.646 253.627 645.08 252.22 645.946 251.22C646.813 250.22 648.02 249.72 649.566 249.72C650.366 249.72 651.073 249.853 651.686 250.12C652.3 250.373 652.813 250.733 653.226 251.2C653.64 251.653 653.953 252.193 654.166 252.82C654.38 253.433 654.486 254.093 654.486 254.8V255.04H652.806V254.8C652.793 254.347 652.72 253.907 652.586 253.48C652.466 253.053 652.273 252.68 652.006 252.36C651.753 252.027 651.426 251.767 651.026 251.58C650.626 251.38 650.14 251.28 649.566 251.28C648.486 251.28 647.673 251.673 647.126 252.46C646.593 253.247 646.326 254.28 646.326 255.56V258.44C646.326 259.813 646.593 260.873 647.126 261.62C647.673 262.353 648.486 262.72 649.566 262.72ZM660.993 257.28H667.233V264H665.673V262.32H665.433C665.206 262.907 664.806 263.38 664.233 263.74C663.659 264.1 662.993 264.28 662.233 264.28C660.726 264.28 659.539 263.793 658.673 262.82C657.819 261.847 657.393 260.427 657.393 258.56V255.44C657.393 253.627 657.826 252.22 658.693 251.22C659.559 250.22 660.766 249.72 662.313 249.72C663.113 249.72 663.819 249.853 664.433 250.12C665.046 250.373 665.559 250.733 665.973 251.2C666.386 251.653 666.699 252.193 666.913 252.82C667.126 253.433 667.233 254.093 667.233 254.8V255.04H665.553V254.8C665.553 254.347 665.486 253.907 665.353 253.48C665.233 253.053 665.039 252.68 664.773 252.36C664.519 252.027 664.186 251.767 663.773 251.58C663.373 251.38 662.886 251.28 662.313 251.28C661.233 251.28 660.419 251.673 659.873 252.46C659.339 253.247 659.073 254.28 659.073 255.56V258.44C659.073 259.813 659.339 260.873 659.873 261.62C660.419 262.353 661.246 262.72 662.353 262.72C663.353 262.72 664.133 262.4 664.693 261.76C665.266 261.12 665.553 260.227 665.553 259.08V258.84H660.993V257.28ZM678.379 260.52H672.379L671.359 264H669.559L673.799 250H676.959L681.199 264H679.399L678.379 260.52ZM675.259 250.72L672.839 258.96H677.919L675.499 250.72H675.259ZM683.105 250H692.945V251.56H688.865V264H687.185V251.56H683.105V250ZM699.331 257.28H705.571V264H704.011V262.32H703.771C703.544 262.907 703.144 263.38 702.571 263.74C701.997 264.1 701.331 264.28 700.571 264.28C699.064 264.28 697.877 263.793 697.011 262.82C696.157 261.847 695.731 260.427 695.731 258.56V255.44C695.731 253.627 696.164 252.22 697.031 251.22C697.897 250.22 699.104 249.72 700.651 249.72C701.451 249.72 702.157 249.853 702.771 250.12C703.384 250.373 703.897 250.733 704.311 251.2C704.724 251.653 705.037 252.193 705.251 252.82C705.464 253.433 705.571 254.093 705.571 254.8V255.04H703.891V254.8C703.891 254.347 703.824 253.907 703.691 253.48C703.571 253.053 703.377 252.68 703.111 252.36C702.857 252.027 702.524 251.767 702.111 251.58C701.711 251.38 701.224 251.28 700.651 251.28C699.571 251.28 698.757 251.673 698.211 252.46C697.677 253.247 697.411 254.28 697.411 255.56V258.44C697.411 259.813 697.677 260.873 698.211 261.62C698.757 262.353 699.584 262.72 700.691 262.72C701.691 262.72 702.471 262.4 703.031 261.76C703.604 261.12 703.891 260.227 703.891 259.08V258.84H699.331V257.28ZM713.797 262.72C714.37 262.72 714.857 262.627 715.257 262.44C715.67 262.24 716.004 261.98 716.257 261.66C716.524 261.327 716.717 260.953 716.837 260.54C716.97 260.113 717.037 259.667 717.037 259.2V258.96H718.717V259.2C718.717 259.907 718.61 260.573 718.397 261.2C718.184 261.813 717.87 262.353 717.457 262.82C717.044 263.273 716.53 263.633 715.917 263.9C715.304 264.153 714.597 264.28 713.797 264.28C712.25 264.28 711.044 263.793 710.177 262.82C709.31 261.847 708.877 260.427 708.877 258.56V255.44C708.877 253.627 709.31 252.22 710.177 251.22C711.044 250.22 712.25 249.72 713.797 249.72C714.597 249.72 715.304 249.853 715.917 250.12C716.53 250.373 717.044 250.733 717.457 251.2C717.87 251.653 718.184 252.193 718.397 252.82C718.61 253.433 718.717 254.093 718.717 254.8V255.04H717.037V254.8C717.024 254.347 716.95 253.907 716.817 253.48C716.697 253.053 716.504 252.68 716.237 252.36C715.984 252.027 715.657 251.767 715.257 251.58C714.857 251.38 714.37 251.28 713.797 251.28C712.717 251.28 711.904 251.673 711.357 252.46C710.824 253.247 710.557 254.28 710.557 255.56V258.44C710.557 259.813 710.824 260.873 711.357 261.62C711.904 262.353 712.717 262.72 713.797 262.72ZM729.563 260.52H723.563L722.543 264H720.743L724.983 250H728.143L732.383 264H730.583L729.563 260.52ZM726.443 250.72L724.023 258.96H729.103L726.683 250.72H726.443ZM739.689 262.72C740.262 262.72 740.749 262.627 741.149 262.44C741.562 262.24 741.896 261.98 742.149 261.66C742.416 261.327 742.609 260.953 742.729 260.54C742.862 260.113 742.929 259.667 742.929 259.2V258.96H744.609V259.2C744.609 259.907 744.502 260.573 744.289 261.2C744.076 261.813 743.762 262.353 743.349 262.82C742.936 263.273 742.422 263.633 741.809 263.9C741.196 264.153 740.489 264.28 739.689 264.28C738.142 264.28 736.936 263.793 736.069 262.82C735.202 261.847 734.769 260.427 734.769 258.56V255.44C734.769 253.627 735.202 252.22 736.069 251.22C736.936 250.22 738.142 249.72 739.689 249.72C740.489 249.72 741.196 249.853 741.809 250.12C742.422 250.373 742.936 250.733 743.349 251.2C743.762 251.653 744.076 252.193 744.289 252.82C744.502 253.433 744.609 254.093 744.609 254.8V255.04H742.929V254.8C742.916 254.347 742.842 253.907 742.709 253.48C742.589 253.053 742.396 252.68 742.129 252.36C741.876 252.027 741.549 251.767 741.149 251.58C740.749 251.38 740.262 251.28 739.689 251.28C738.609 251.28 737.796 251.673 737.249 252.46C736.716 253.247 736.449 254.28 736.449 255.56V258.44C736.449 259.813 736.716 260.873 737.249 261.62C737.796 262.353 738.609 262.72 739.689 262.72ZM747.335 250H757.175V251.56H753.095V264H751.415V251.56H747.335V250ZM764.981 262.72C765.555 262.72 766.041 262.627 766.441 262.44C766.855 262.24 767.188 261.98 767.441 261.66C767.708 261.327 767.901 260.953 768.021 260.54C768.155 260.113 768.221 259.667 768.221 259.2V258.96H769.901V259.2C769.901 259.907 769.795 260.573 769.581 261.2C769.368 261.813 769.055 262.353 768.641 262.82C768.228 263.273 767.715 263.633 767.101 263.9C766.488 264.153 765.781 264.28 764.981 264.28C763.435 264.28 762.228 263.793 761.361 262.82C760.495 261.847 760.061 260.427 760.061 258.56V255.44C760.061 253.627 760.495 252.22 761.361 251.22C762.228 250.22 763.435 249.72 764.981 249.72C765.781 249.72 766.488 249.853 767.101 250.12C767.715 250.373 768.228 250.733 768.641 251.2C769.055 251.653 769.368 252.193 769.581 252.82C769.795 253.433 769.901 254.093 769.901 254.8V255.04H768.221V254.8C768.208 254.347 768.135 253.907 768.001 253.48C767.881 253.053 767.688 252.68 767.421 252.36C767.168 252.027 766.841 251.767 766.441 251.58C766.041 251.38 765.555 251.28 764.981 251.28C763.901 251.28 763.088 251.673 762.541 252.46C762.008 253.247 761.741 254.28 761.741 255.56V258.44C761.741 259.813 762.008 260.873 762.541 261.62C763.088 262.353 763.901 262.72 764.981 262.72ZM776.207 257.28H782.447V264H780.887V262.32H780.647C780.421 262.907 780.021 263.38 779.447 263.74C778.874 264.1 778.207 264.28 777.447 264.28C775.941 264.28 774.754 263.793 773.887 262.82C773.034 261.847 772.607 260.427 772.607 258.56V255.44C772.607 253.627 773.041 252.22 773.907 251.22C774.774 250.22 775.981 249.72 777.527 249.72C778.327 249.72 779.034 249.853 779.647 250.12C780.261 250.373 780.774 250.733 781.187 251.2C781.601 251.653 781.914 252.193 782.127 252.82C782.341 253.433 782.447 254.093 782.447 254.8V255.04H780.767V254.8C780.767 254.347 780.701 253.907 780.567 253.48C780.447 253.053 780.254 252.68 779.987 252.36C779.734 252.027 779.401 251.767 778.987 251.58C778.587 251.38 778.101 251.28 777.527 251.28C776.447 251.28 775.634 251.673 775.087 252.46C774.554 253.247 774.287 254.28 774.287 255.56V258.44C774.287 259.813 774.554 260.873 775.087 261.62C775.634 262.353 776.461 262.72 777.567 262.72C778.567 262.72 779.347 262.4 779.907 261.76C780.481 261.12 780.767 260.227 780.767 259.08V258.84H776.207V257.28ZM793.193 260.52H787.193L786.173 264H784.373L788.613 250H791.773L796.013 264H794.213L793.193 260.52ZM790.073 250.72L787.653 258.96H792.733L790.313 250.72H790.073ZM797.92 250H807.76V251.56H803.68V264H802V251.56H797.92V250ZM815.566 262.72C816.139 262.72 816.626 262.627 817.026 262.44C817.439 262.24 817.772 261.98 818.026 261.66C818.292 261.327 818.486 260.953 818.606 260.54C818.739 260.113 818.806 259.667 818.806 259.2V258.96H820.486V259.2C820.486 259.907 820.379 260.573 820.166 261.2C819.952 261.813 819.639 262.353 819.226 262.82C818.812 263.273 818.299 263.633 817.686 263.9C817.072 264.153 816.366 264.28 815.566 264.28C814.019 264.28 812.812 263.793 811.946 262.82C811.079 261.847 810.646 260.427 810.646 258.56V255.44C810.646 253.627 811.079 252.22 811.946 251.22C812.812 250.22 814.019 249.72 815.566 249.72C816.366 249.72 817.072 249.853 817.686 250.12C818.299 250.373 818.812 250.733 819.226 251.2C819.639 251.653 819.952 252.193 820.166 252.82C820.379 253.433 820.486 254.093 820.486 254.8V255.04H818.806V254.8C818.792 254.347 818.719 253.907 818.586 253.48C818.466 253.053 818.272 252.68 818.006 252.36C817.752 252.027 817.426 251.767 817.026 251.58C816.626 251.38 816.139 251.28 815.566 251.28C814.486 251.28 813.672 251.673 813.126 252.46C812.592 253.247 812.326 254.28 812.326 255.56V258.44C812.326 259.813 812.592 260.873 813.126 261.62C813.672 262.353 814.486 262.72 815.566 262.72ZM826.792 257.28H833.032V264H831.472V262.32H831.232C831.005 262.907 830.605 263.38 830.032 263.74C829.458 264.1 828.792 264.28 828.032 264.28C826.525 264.28 825.338 263.793 824.472 262.82C823.618 261.847 823.192 260.427 823.192 258.56V255.44C823.192 253.627 823.625 252.22 824.492 251.22C825.358 250.22 826.565 249.72 828.112 249.72C828.912 249.72 829.618 249.853 830.232 250.12C830.845 250.373 831.358 250.733 831.772 251.2C832.185 251.653 832.498 252.193 832.712 252.82C832.925 253.433 833.032 254.093 833.032 254.8V255.04H831.352V254.8C831.352 254.347 831.285 253.907 831.152 253.48C831.032 253.053 830.838 252.68 830.572 252.36C830.318 252.027 829.985 251.767 829.572 251.58C829.172 251.38 828.685 251.28 828.112 251.28C827.032 251.28 826.218 251.673 825.672 252.46C825.138 253.247 824.872 254.28 824.872 255.56V258.44C824.872 259.813 825.138 260.873 825.672 261.62C826.218 262.353 827.045 262.72 828.152 262.72C829.152 262.72 829.932 262.4 830.492 261.76C831.065 261.12 831.352 260.227 831.352 259.08V258.84H826.792V257.28ZM843.778 260.52H837.778L836.758 264H834.958L839.198 250H842.358L846.598 264H844.798L843.778 260.52ZM840.658 250.72L838.238 258.96H843.318L840.898 250.72H840.658ZM848.504 250H858.344V251.56H854.264V264H852.584V251.56H848.504V250ZM865.13 257.28H871.37V264H869.81V262.32H869.57C869.343 262.907 868.943 263.38 868.37 263.74C867.797 264.1 867.13 264.28 866.37 264.28C864.863 264.28 863.677 263.793 862.81 262.82C861.957 261.847 861.53 260.427 861.53 258.56V255.44C861.53 253.627 861.963 252.22 862.83 251.22C863.697 250.22 864.903 249.72 866.45 249.72C867.25 249.72 867.957 249.853 868.57 250.12C869.183 250.373 869.697 250.733 870.11 251.2C870.523 251.653 870.837 252.193 871.05 252.82C871.263 253.433 871.37 254.093 871.37 254.8V255.04H869.69V254.8C869.69 254.347 869.623 253.907 869.49 253.48C869.37 253.053 869.177 252.68 868.91 252.36C868.657 252.027 868.323 251.767 867.91 251.58C867.51 251.38 867.023 251.28 866.45 251.28C865.37 251.28 864.557 251.673 864.01 252.46C863.477 253.247 863.21 254.28 863.21 255.56V258.44C863.21 259.813 863.477 260.873 864.01 261.62C864.557 262.353 865.383 262.72 866.49 262.72C867.49 262.72 868.27 262.4 868.83 261.76C869.403 261.12 869.69 260.227 869.69 259.08V258.84H865.13V257.28Z" fill="#110529"/>
    <g opacity="0.32">
        <path d="M242 243V183" stroke="#060E33" stroke-opacity="0.24"/>
        <path d="M254.6 243V183" stroke="#060E33" stroke-opacity="0.24"/>
        <path d="M267.2 243V183" stroke="#060E33" stroke-opacity="0.24"/>
        <path d="M279.8 243V183" stroke="#060E33" stroke-opacity="0.24"/>
        <path d="M292.4 243V183" stroke="#060E33" stroke-opacity="0.24"/>
        <path d="M305 243V183" stroke="#060E33" stroke-opacity="0.24"/>
        <path d="M317.6 243V183" stroke="#060E33" stroke-opacity="0.24"/>
        <path d="M330.2 243V183" stroke="#060E33" stroke-opacity="0.24"/>
        <path d="M342.8 243V183" stroke="#060E33" stroke-opacity="0.24"/>
        <path d="M355.4 243V183" stroke="#060E33" stroke-opacity="0.24"/>
        <path d="M368 243V183" stroke="#060E33" stroke-opacity="0.24"/>
        <path d="M380.6 243V183" stroke="#060E33" stroke-opacity="0.24"/>
        <path d="M393.2 243V183" stroke="#060E33" stroke-opacity="0.24"/>
        <path d="M405.8 243V183" stroke="#060E33" stroke-opacity="0.24"/>
        <path d="M418.4 243V183" stroke="#060E33" stroke-opacity="0.24"/>
        <path d="M431 243V183" stroke="#060E33" stroke-opacity="0.24"/>
        <path d="M443.6 243V183" stroke="#060E33" stroke-opacity="0.24"/>
        <path d="M456.2 243V183" stroke="#060E33" stroke-opacity="0.24"/>
        <path d="M468.8 243V183" stroke="#060E33" stroke-opacity="0.24"/>
        <path d="M481.4 243V183" stroke="#060E33" stroke-opacity="0.24"/>
        <path d="M494 243V183" stroke="#060E33" stroke-opacity="0.24"/>
        <path d="M506.6 243V183" stroke="#060E33" stroke-opacity="0.24"/>
        <path d="M519.2 243V183" stroke="#060E33" stroke-opacity="0.24"/>
    </g>
    <rect x="64" y="194" width="32" height="24" rx="1" fill="white"/>
    <path d="M71.12 212H72.544V207.744H75.912L77.976 212H79.608L77.384 207.432C78.688 206.888 79.368 205.632 79.368 204.112C79.368 202.28 78.384 200.832 76.52 200.544C76.224 200.496 75.896 200.48 75.672 200.48H71.12V212ZM72.544 206.392V201.832H75.624C75.824 201.832 76.104 201.848 76.344 201.904C77.448 202.152 77.912 203.152 77.912 204.112C77.912 205.072 77.448 206.072 76.344 206.32C76.104 206.376 75.824 206.392 75.624 206.392H72.544ZM81.05 211.992H88.706V210.632H83.242L86.954 207.296C88.138 206.248 88.706 205.488 88.706 203.976C88.706 201.856 87.09 200.24 84.954 200.24C82.738 200.24 81.106 201.784 81.106 203.952H82.562C82.546 202.696 83.554 201.6 84.93 201.6C86.258 201.6 87.25 202.632 87.25 203.96C87.25 204.688 87.018 205.352 86.17 206.112L81.058 210.712L81.05 211.992Z" fill="#110529"/>
    <rect x="64" y="194" width="32" height="24" rx="1" stroke="#110529" stroke-width="2"/>
    <path d="M282.5 206H96" stroke="#110529" stroke-width="2"/>
    <rect width="53" height="20" transform="translate(282.5 196)" fill="white"/>
    <path d="M289.636 212H291.084V200.48H289.636L287.468 201.776V203.368L289.636 202.056V212ZM297.536 212.24C299.68 212.24 301.496 210.504 301.496 208.376C301.496 206.232 299.872 204.584 297.736 204.584C296.96 204.584 296.184 204.848 295.584 205.328L295.792 201.832H300.696V200.48H294.512L294.16 206.504L295.424 206.984C295.84 206.384 296.56 205.896 297.576 205.896C298.92 205.896 300.064 206.984 300.064 208.376C300.064 209.728 298.976 210.856 297.576 210.856C296.504 210.856 295.464 210.144 295.176 209.008L293.808 209.376C294.272 211.056 295.752 212.24 297.536 212.24ZM307.297 212.24C309.537 212.24 311.185 210.592 311.185 208.352V204.128C311.185 201.888 309.537 200.24 307.297 200.24C305.057 200.24 303.409 201.888 303.409 204.128V208.352C303.409 210.592 305.057 212.24 307.297 212.24ZM304.857 208.432V204.04C304.857 202.688 305.945 201.6 307.297 201.6C308.649 201.6 309.737 202.688 309.737 204.04V208.432C309.737 209.784 308.649 210.872 307.297 210.872C305.945 210.872 304.857 209.784 304.857 208.432ZM317.393 212.24C319.809 212.24 321.265 210.264 321.265 207.672C321.265 205.08 319.801 203.12 317.401 203.12C316.321 203.12 315.465 203.496 314.849 204.144V200.48H313.417V212H314.689V211.024C315.321 211.784 316.225 212.24 317.393 212.24ZM314.689 207.672C314.689 205.76 315.489 204.424 317.177 204.424C318.937 204.424 319.753 205.848 319.753 207.672C319.753 209.512 318.921 210.936 317.217 210.936C315.473 210.936 314.689 209.568 314.689 207.672ZM326.986 212.24C329.402 212.24 330.858 210.264 330.858 207.672C330.858 205.08 329.394 203.12 326.994 203.12C325.818 203.12 324.914 203.568 324.282 204.328V203.36H323.01V215.84H324.442V211.2C325.058 211.856 325.914 212.24 326.986 212.24ZM324.282 207.672C324.282 205.76 325.082 204.424 326.77 204.424C328.53 204.424 329.346 205.848 329.346 207.672C329.346 209.512 328.514 210.936 326.81 210.936C325.066 210.936 324.282 209.568 324.282 207.672Z" fill="#110529"/>
    <path d="M522 206H335.5" stroke="#110529" stroke-width="2"/>
    <path d="M532 206L532.707 205.293L533.414 206L532.707 206.707L532 206ZM524.707 214.707L524 215.414L522.586 214L523.293 213.293L524.707 214.707ZM523.293 198.707L522.586 198L524 196.586L524.707 197.293L523.293 198.707ZM522 205L532 205L532 207L522 207L522 205ZM532.707 206.707L524.707 214.707L523.293 213.293L531.293 205.293L532.707 206.707ZM531.293 206.707L523.293 198.707L524.707 197.293L532.707 205.293L531.293 206.707Z" fill="#110529"/>
    <g opacity="0.32">
        <path d="M585 243V183" stroke="#060E33" stroke-opacity="0.24"/>
        <path d="M597.6 243V183" stroke="#060E33" stroke-opacity="0.24"/>
        <path d="M610.2 243V183" stroke="#060E33" stroke-opacity="0.24"/>
        <path d="M622.8 243V183" stroke="#060E33" stroke-opacity="0.24"/>
        <path d="M635.4 243V183" stroke="#060E33" stroke-opacity="0.24"/>
    </g>
    <g opacity="0.32">
        <path d="M675 243V183" stroke="#060E33" stroke-opacity="0.24"/>
        <path d="M687.6 243V183" stroke="#060E33" stroke-opacity="0.24"/>
        <path d="M700.2 243V183" stroke="#060E33" stroke-opacity="0.24"/>
    </g>
    <g opacity="0.32">
        <path d="M740 243V183" stroke="#060E33" stroke-opacity="0.24"/>
        <path d="M752.6 243V183" stroke="#060E33" stroke-opacity="0.24"/>
        <path d="M765.2 243V183" stroke="#060E33" stroke-opacity="0.24"/>
        <path d="M777.8 243V183" stroke="#060E33" stroke-opacity="0.24"/>
        <path d="M790.4 243V183" stroke="#060E33" stroke-opacity="0.24"/>
        <path d="M803 243V183" stroke="#060E33" stroke-opacity="0.24"/>
        <path d="M815.6 243V183" stroke="#060E33" stroke-opacity="0.24"/>
        <path d="M828.2 243V183" stroke="#060E33" stroke-opacity="0.24"/>
        <path d="M840.8 243V183" stroke="#060E33" stroke-opacity="0.24"/>
        <path d="M853.4 243V183" stroke="#060E33" stroke-opacity="0.24"/>
    </g>
    <path d="M572 206L571.293 206.707L570.586 206L571.293 205.293L572 206ZM579.293 197.293L580 196.586L581.414 198L580.707 198.707L579.293 197.293ZM580.707 213.293L581.414 214L580 215.414L579.293 214.707L580.707 213.293ZM582 207L572 207L572 205L582 205L582 207ZM571.293 205.293L579.293 197.293L580.707 198.707L572.707 206.707L571.293 205.293ZM572.707 205.293L580.707 213.293L579.293 214.707L571.293 206.707L572.707 205.293Z" fill="#110529"/>
    <path d="M689.5 206H582" stroke="#110529" stroke-width="2"/>
    <rect width="53" height="20" transform="translate(689.5 196)" fill="white"/>
    <path d="M696.636 212H698.084V200.48H696.636L694.468 201.776V203.368L696.636 202.056V212ZM704.536 212.24C706.68 212.24 708.496 210.504 708.496 208.376C708.496 206.232 706.872 204.584 704.736 204.584C703.96 204.584 703.184 204.848 702.584 205.328L702.792 201.832H707.696V200.48H701.512L701.16 206.504L702.424 206.984C702.84 206.384 703.56 205.896 704.576 205.896C705.92 205.896 707.064 206.984 707.064 208.376C707.064 209.728 705.976 210.856 704.576 210.856C703.504 210.856 702.464 210.144 702.176 209.008L700.808 209.376C701.272 211.056 702.752 212.24 704.536 212.24ZM714.297 212.24C716.537 212.24 718.185 210.592 718.185 208.352V204.128C718.185 201.888 716.537 200.24 714.297 200.24C712.057 200.24 710.409 201.888 710.409 204.128V208.352C710.409 210.592 712.057 212.24 714.297 212.24ZM711.857 208.432V204.04C711.857 202.688 712.945 201.6 714.297 201.6C715.649 201.6 716.737 202.688 716.737 204.04V208.432C716.737 209.784 715.649 210.872 714.297 210.872C712.945 210.872 711.857 209.784 711.857 208.432ZM724.393 212.24C726.809 212.24 728.265 210.264 728.265 207.672C728.265 205.08 726.801 203.12 724.401 203.12C723.321 203.12 722.465 203.496 721.849 204.144V200.48H720.417V212H721.689V211.024C722.321 211.784 723.225 212.24 724.393 212.24ZM721.689 207.672C721.689 205.76 722.489 204.424 724.177 204.424C725.937 204.424 726.753 205.848 726.753 207.672C726.753 209.512 725.921 210.936 724.217 210.936C722.473 210.936 721.689 209.568 721.689 207.672ZM733.986 212.24C736.402 212.24 737.858 210.264 737.858 207.672C737.858 205.08 736.394 203.12 733.994 203.12C732.818 203.12 731.914 203.568 731.282 204.328V203.36H730.01V215.84H731.442V211.2C732.058 211.856 732.914 212.24 733.986 212.24ZM731.282 207.672C731.282 205.76 732.082 204.424 733.77 204.424C735.53 204.424 736.346 205.848 736.346 207.672C736.346 209.512 735.514 210.936 733.81 210.936C732.066 210.936 731.282 209.568 731.282 207.672Z" fill="#110529"/>
    <path d="M850 206H742.5" stroke="#110529" stroke-width="2"/>
    <rect x="850" y="194" width="32" height="24" rx="1" fill="white"/>
    <path d="M858.62 212H860.044V207.744H863.412L865.476 212H867.108L864.884 207.432C866.188 206.888 866.868 205.632 866.868 204.112C866.868 202.28 865.884 200.832 864.02 200.544C863.724 200.496 863.396 200.48 863.172 200.48H858.62V212ZM860.044 206.392V201.832H863.124C863.324 201.832 863.604 201.848 863.844 201.904C864.948 202.152 865.412 203.152 865.412 204.112C865.412 205.072 864.948 206.072 863.844 206.32C863.604 206.376 863.324 206.392 863.124 206.392H860.044ZM870.878 212H872.326V200.48H870.878L868.71 201.776V203.368L870.878 202.056V212Z" fill="#110529"/>
    <rect x="850" y="194" width="32" height="24" rx="1" stroke="#110529" stroke-width="2"/>
    <defs>
        <filter id="filter0_i_6449_38895" x="231" y="129" width="303.035" height="54" filterUnits="userSpaceOnUse" color-interpolation-filters="sRGB">
            <feFlood flood-opacity="0" result="BackgroundImageFix"/>
            <feBlend mode="normal" in="SourceGraphic" in2="BackgroundImageFix" result="shape"/>
            <feColorMatrix in="SourceAlpha" type="matrix" values="0 0 0 0 0 0 0 0 0 0 0 0 0 0 0 0 0 0 127 0" result="hardAlpha"/>
            <feOffset dx="-4" dy="-2"/>
            <feComposite in2="hardAlpha" operator="arithmetic" k2="-1" k3="1"/>
            <feColorMatrix type="matrix" values="0 0 0 0 0.0666667 0 0 0 0 0.0196078 0 0 0 0 0.160784 0 0 0 0.16 0"/>
            <feBlend mode="normal" in2="shape" result="effect1_innerShadow_6449_38895"/>
        </filter>
        <filter id="filter1_i_6449_38895" x="589.737" y="129" width="42.2625" height="54" filterUnits="userSpaceOnUse" color-interpolation-filters="sRGB">
            <feFlood flood-opacity="0" result="BackgroundImageFix"/>
            <feBlend mode="normal" in="SourceGraphic" in2="BackgroundImageFix" result="shape"/>
            <feColorMatrix in="SourceAlpha" type="matrix" values="0 0 0 0 0 0 0 0 0 0 0 0 0 0 0 0 0 0 127 0" result="hardAlpha"/>
            <feOffset dx="-8" dy="-4"/>
            <feComposite in2="hardAlpha" operator="arithmetic" k2="-1" k3="1"/>
            <feColorMatrix type="matrix" values="0 0 0 0 0.0666667 0 0 0 0 0.0196078 0 0 0 0 0.160784 0 0 0 0.16 0"/>
            <feBlend mode="normal" in2="shape" result="effect1_innerShadow_6449_38895"/>
        </filter>
        <filter id="filter2_i_6449_38895" x="570.737" y="129" width="70.2625" height="54" filterUnits="userSpaceOnUse" color-interpolation-filters="sRGB">
            <feFlood flood-opacity="0" result="BackgroundImageFix"/>
            <feBlend mode="normal" in="SourceGraphic" in2="BackgroundImageFix" result="shape"/>
            <feColorMatrix in="SourceAlpha" type="matrix" values="0 0 0 0 0 0 0 0 0 0 0 0 0 0 0 0 0 0 127 0" result="hardAlpha"/>
            <feOffset dx="-8" dy="-4"/>
            <feComposite in2="hardAlpha" operator="arithmetic" k2="-1" k3="1"/>
            <feColorMatrix type="matrix" values="0 0 0 0 0.0666667 0 0 0 0 0.0196078 0 0 0 0 0.160784 0 0 0 0.16 0"/>
            <feBlend mode="normal" in2="shape" result="effect1_innerShadow_6449_38895"/>
        </filter>
        <filter id="filter3_i_6449_38895" x="733" y="129" width="130" height="54" filterUnits="userSpaceOnUse" color-interpolation-filters="sRGB">
            <feFlood flood-opacity="0" result="BackgroundImageFix"/>
            <feBlend mode="normal" in="SourceGraphic" in2="BackgroundImageFix" result="shape"/>
            <feColorMatrix in="SourceAlpha" type="matrix" values="0 0 0 0 0 0 0 0 0 0 0 0 0 0 0 0 0 0 127 0" result="hardAlpha"/>
            <feOffset dx="-8" dy="-4"/>
            <feComposite in2="hardAlpha" operator="arithmetic" k2="-1" k3="1"/>
            <feColorMatrix type="matrix" values="0 0 0 0 0.0666667 0 0 0 0 0.0196078 0 0 0 0 0.160784 0 0 0 0.16 0"/>
            <feBlend mode="normal" in2="shape" result="effect1_innerShadow_6449_38895"/>
        </filter>
        <filter id="filter4_i_6449_38895" x="861" y="129" width="23.0309" height="54" filterUnits="userSpaceOnUse" color-interpolation-filters="sRGB">
            <feFlood flood-opacity="0" result="BackgroundImageFix"/>
            <feBlend mode="normal" in="SourceGraphic" in2="BackgroundImageFix" result="shape"/>
            <feColorMatrix in="SourceAlpha" type="matrix" values="0 0 0 0 0 0 0 0 0 0 0 0 0 0 0 0 0 0 127 0" result="hardAlpha"/>
            <feOffset dx="-8" dy="-4"/>
            <feComposite in2="hardAlpha" operator="arithmetic" k2="-1" k3="1"/>
            <feColorMatrix type="matrix" values="0 0 0 0 0.0666667 0 0 0 0 0.0196078 0 0 0 0 0.160784 0 0 0 0.16 0"/>
            <feBlend mode="normal" in2="shape" result="effect1_innerShadow_6449_38895"/>
        </filter>
        <filter id="filter5_i_6449_38895" x="82.3805" y="229" width="797.62" height="54" filterUnits="userSpaceOnUse" color-interpolation-filters="sRGB">
            <feFlood flood-opacity="0" result="BackgroundImageFix"/>
            <feBlend mode="normal" in="SourceGraphic" in2="BackgroundImageFix" result="shape"/>
            <feColorMatrix in="SourceAlpha" type="matrix" values="0 0 0 0 0 0 0 0 0 0 0 0 0 0 0 0 0 0 127 0" result="hardAlpha"/>
            <feOffset dx="-8" dy="-4"/>
            <feComposite in2="hardAlpha" operator="arithmetic" k2="-1" k3="1"/>
            <feColorMatrix type="matrix" values="0 0 0 0 0.0666667 0 0 0 0 0.0196078 0 0 0 0 0.160784 0 0 0 0.16 0"/>
            <feBlend mode="normal" in2="shape" result="effect1_innerShadow_6449_38895"/>
        </filter>
        <filter id="filter6_i_6449_38895" x="63" y="129" width="58" height="54" filterUnits="userSpaceOnUse" color-interpolation-filters="sRGB">
            <feFlood flood-opacity="0" result="BackgroundImageFix"/>
            <feBlend mode="normal" in="SourceGraphic" in2="BackgroundImageFix" result="shape"/>
            <feColorMatrix in="SourceAlpha" type="matrix" values="0 0 0 0 0 0 0 0 0 0 0 0 0 0 0 0 0 0 127 0" result="hardAlpha"/>
            <feOffset dx="-8" dy="-4"/>
            <feComposite in2="hardAlpha" operator="arithmetic" k2="-1" k3="1"/>
            <feColorMatrix type="matrix" values="0 0 0 0 0.0666667 0 0 0 0 0.0196078 0 0 0 0 0.160784 0 0 0 0.16 0"/>
            <feBlend mode="normal" in2="shape" result="effect1_innerShadow_6449_38895"/>
        </filter>
        <filter id="filter7_i_6449_38895" x="119" y="129" width="66" height="54" filterUnits="userSpaceOnUse" color-interpolation-filters="sRGB">
            <feFlood flood-opacity="0" result="BackgroundImageFix"/>
            <feBlend mode="normal" in="SourceGraphic" in2="BackgroundImageFix" result="shape"/>
            <feColorMatrix in="SourceAlpha" type="matrix" values="0 0 0 0 0 0 0 0 0 0 0 0 0 0 0 0 0 0 127 0" result="hardAlpha"/>
            <feOffset dx="-8" dy="-4"/>
            <feComposite in2="hardAlpha" operator="arithmetic" k2="-1" k3="1"/>
            <feColorMatrix type="matrix" values="0 0 0 0 0.0666667 0 0 0 0 0.0196078 0 0 0 0 0.160784 0 0 0 0.16 0"/>
            <feBlend mode="normal" in2="shape" result="effect1_innerShadow_6449_38895"/>
        </filter>
        <filter id="filter8_i_6449_38895" x="183" y="129" width="26" height="54" filterUnits="userSpaceOnUse" color-interpolation-filters="sRGB">
            <feFlood flood-opacity="0" result="BackgroundImageFix"/>
            <feBlend mode="normal" in="SourceGraphic" in2="BackgroundImageFix" result="shape"/>
            <feColorMatrix in="SourceAlpha" type="matrix" values="0 0 0 0 0 0 0 0 0 0 0 0 0 0 0 0 0 0 127 0" result="hardAlpha"/>
            <feOffset dx="-8" dy="-4"/>
            <feComposite in2="hardAlpha" operator="arithmetic" k2="-1" k3="1"/>
            <feColorMatrix type="matrix" values="0 0 0 0 0.0666667 0 0 0 0 0.0196078 0 0 0 0 0.160784 0 0 0 0.16 0"/>
            <feBlend mode="normal" in2="shape" result="effect1_innerShadow_6449_38895"/>
        </filter>
        <filter id="filter9_i_6449_38895" x="207" y="129" width="26" height="54" filterUnits="userSpaceOnUse" color-interpolation-filters="sRGB">
            <feFlood flood-opacity="0" result="BackgroundImageFix"/>
            <feBlend mode="normal" in="SourceGraphic" in2="BackgroundImageFix" result="shape"/>
            <feColorMatrix in="SourceAlpha" type="matrix" values="0 0 0 0 0 0 0 0 0 0 0 0 0 0 0 0 0 0 127 0" result="hardAlpha"/>
            <feOffset dx="-8" dy="-4"/>
            <feComposite in2="hardAlpha" operator="arithmetic" k2="-1" k3="1"/>
            <feColorMatrix type="matrix" values="0 0 0 0 0.0666667 0 0 0 0 0.0196078 0 0 0 0 0.160784 0 0 0 0.16 0"/>
            <feBlend mode="normal" in2="shape" result="effect1_innerShadow_6449_38895"/>
        </filter>
        <filter id="filter10_i_6449_38895" x="639" y="129" width="31" height="54" filterUnits="userSpaceOnUse" color-interpolation-filters="sRGB">
            <feFlood flood-opacity="0" result="BackgroundImageFix"/>
            <feBlend mode="normal" in="SourceGraphic" in2="BackgroundImageFix" result="shape"/>
            <feColorMatrix in="SourceAlpha" type="matrix" values="0 0 0 0 0 0 0 0 0 0 0 0 0 0 0 0 0 0 127 0" result="hardAlpha"/>
            <feOffset dx="-8" dy="-4"/>
            <feComposite in2="hardAlpha" operator="arithmetic" k2="-1" k3="1"/>
            <feColorMatrix type="matrix" values="0 0 0 0 0.0666667 0 0 0 0 0.0196078 0 0 0 0 0.160784 0 0 0 0.16 0"/>
            <feBlend mode="normal" in2="shape" result="effect1_innerShadow_6449_38895"/>
        </filter>
        <filter id="filter11_i_6449_38895" x="704" y="129" width="31" height="54" filterUnits="userSpaceOnUse" color-interpolation-filters="sRGB">
            <feFlood flood-opacity="0" result="BackgroundImageFix"/>
            <feBlend mode="normal" in="SourceGraphic" in2="BackgroundImageFix" result="shape"/>
            <feColorMatrix in="SourceAlpha" type="matrix" values="0 0 0 0 0 0 0 0 0 0 0 0 0 0 0 0 0 0 127 0" result="hardAlpha"/>
            <feOffset dx="-8" dy="-4"/>
            <feComposite in2="hardAlpha" operator="arithmetic" k2="-1" k3="1"/>
            <feColorMatrix type="matrix" values="0 0 0 0 0.0666667 0 0 0 0 0.0196078 0 0 0 0 0.160784 0 0 0 0.16 0"/>
            <feBlend mode="normal" in2="shape" result="effect1_innerShadow_6449_38895"/>
        </filter>
        <filter id="filter12_i_6449_38895" x="668" y="129" width="38" height="54" filterUnits="userSpaceOnUse" color-interpolation-filters="sRGB">
            <feFlood flood-opacity="0" result="BackgroundImageFix"/>
            <feBlend mode="normal" in="SourceGraphic" in2="BackgroundImageFix" result="shape"/>
            <feColorMatrix in="SourceAlpha" type="matrix" values="0 0 0 0 0 0 0 0 0 0 0 0 0 0 0 0 0 0 127 0" result="hardAlpha"/>
            <feOffset dx="-8" dy="-4"/>
            <feComposite in2="hardAlpha" operator="arithmetic" k2="-1" k3="1"/>
            <feColorMatrix type="matrix" values="0 0 0 0 0.0666667 0 0 0 0 0.0196078 0 0 0 0 0.160784 0 0 0 0.16 0"/>
            <feBlend mode="normal" in2="shape" result="effect1_innerShadow_6449_38895"/>
        </filter>
        <filter id="filter13_i_6449_38895" x="63" y="229" width="820" height="54" filterUnits="userSpaceOnUse" color-interpolation-filters="sRGB">
            <feFlood flood-opacity="0" result="BackgroundImageFix"/>
            <feBlend mode="normal" in="SourceGraphic" in2="BackgroundImageFix" result="shape"/>
            <feColorMatrix in="SourceAlpha" type="matrix" values="0 0 0 0 0 0 0 0 0 0 0 0 0 0 0 0 0 0 127 0" result="hardAlpha"/>
            <feOffset dx="-8" dy="-4"/>
            <feComposite in2="hardAlpha" operator="arithmetic" k2="-1" k3="1"/>
            <feColorMatrix type="matrix" values="0 0 0 0 0.0666667 0 0 0 0 0.0196078 0 0 0 0 0.160784 0 0 0 0.16 0"/>
            <feBlend mode="normal" in2="shape" result="effect1_innerShadow_6449_38895"/>
        </filter>
    </defs>
</svg>
