<svg width="960" height="224" viewBox="0 0 960 224" fill="none" xmlns="http://www.w3.org/2000/svg">
<rect width="960" height="224" fill="white"/>
<path d="M140 132V24" stroke="#D3D7E0" stroke-width="2" stroke-linecap="square" stroke-dasharray="6 6"/>
<path d="M174.858 37H176.321V32.695H179.989V31.225H176.321V28.383H180.829V26.92H174.858V37ZM182.09 37H183.553V33.381H186.227L187.984 37H189.657L187.753 33.094C188.894 32.597 189.468 31.491 189.468 30.147C189.468 28.516 188.628 27.235 186.941 26.976C186.675 26.934 186.36 26.92 186.164 26.92H182.09V37ZM183.553 31.995V28.299H186.108C186.29 28.299 186.535 28.313 186.745 28.369C187.641 28.579 187.977 29.405 187.977 30.147C187.977 30.889 187.641 31.715 186.745 31.932C186.535 31.981 186.29 31.995 186.108 31.995H183.553ZM192.953 37H194.444V26.92H192.953L191.056 28.054V29.685L192.953 28.53V37Z" fill="#D3D7E0"/>
<path d="M230 132V24" stroke="#D3D7E0" stroke-width="2" stroke-linecap="square" stroke-dasharray="6 6"/>
<path d="M262.735 37.21C265.059 37.21 266.62 35.943 267.215 33.955L265.731 33.556C265.332 34.963 264.331 35.817 262.735 35.817C260.593 35.817 259.501 34.27 259.515 31.96C259.522 29.65 260.593 28.103 262.735 28.103C264.331 28.103 265.332 28.957 265.731 30.364L267.215 29.965C266.62 27.977 265.059 26.71 262.735 26.71C259.711 26.71 257.968 28.845 257.968 31.96C257.968 35.075 259.711 37.21 262.735 37.21ZM268.754 37H271.911C272.093 37 272.695 37 273.164 36.937C275.53 36.636 276.79 34.529 276.79 31.96C276.79 29.391 275.53 27.284 273.164 26.983C272.695 26.92 272.093 26.92 271.911 26.92H268.754V37ZM270.252 35.607V28.313H271.911C272.219 28.313 272.723 28.32 273.059 28.383C274.571 28.663 275.236 30.189 275.236 31.96C275.236 33.689 274.599 35.243 273.059 35.537C272.723 35.6 272.233 35.607 271.911 35.607H270.252ZM278.42 37H279.883V33.381H282.557L284.314 37H285.987L284.083 33.094C285.224 32.597 285.798 31.491 285.798 30.147C285.798 28.516 284.958 27.235 283.271 26.976C283.005 26.934 282.69 26.92 282.494 26.92H278.42V37ZM279.883 31.995V28.299H282.438C282.62 28.299 282.865 28.313 283.075 28.369C283.971 28.579 284.307 29.405 284.307 30.147C284.307 30.889 283.971 31.715 283.075 31.932C282.865 31.981 282.62 31.995 282.438 31.995H279.883ZM289.283 37H290.774V26.92H289.283L287.386 28.054V29.685L289.283 28.53V37Z" fill="#D3D7E0"/>
<path d="M320 132V24" stroke="#D3D7E0" stroke-width="2" stroke-linecap="square" stroke-dasharray="6 6"/>
<path d="M353.703 37H355.166V32.695H358.834V31.225H355.166V28.383H359.674V26.92H353.703V37ZM360.935 37H362.398V33.381H365.072L366.829 37H368.502L366.598 33.094C367.739 32.597 368.313 31.491 368.313 30.147C368.313 28.516 367.473 27.235 365.786 26.976C365.52 26.934 365.205 26.92 365.009 26.92H360.935V37ZM362.398 31.995V28.299H364.953C365.135 28.299 365.38 28.313 365.59 28.369C366.486 28.579 366.822 29.405 366.822 30.147C366.822 30.889 366.486 31.715 365.59 31.932C365.38 31.981 365.135 31.995 364.953 31.995H362.398ZM369.761 36.993H376.579V35.6H372.022L374.941 32.996C376.033 32.037 376.579 31.407 376.579 30.028C376.579 28.117 375.144 26.71 373.24 26.71C371.231 26.71 369.796 28.047 369.796 30H371.294C371.28 28.985 372.092 28.103 373.212 28.103C374.297 28.103 375.074 28.929 375.074 30.007C375.074 30.581 374.864 31.127 374.157 31.757L369.768 35.691L369.761 36.993Z" fill="#D3D7E0"/>
<path d="M410 132V24" stroke="#D3D7E0" stroke-width="2" stroke-linecap="square" stroke-dasharray="6 6"/>
<path d="M441.58 37.21C443.904 37.21 445.465 35.943 446.06 33.955L444.576 33.556C444.177 34.963 443.176 35.817 441.58 35.817C439.438 35.817 438.346 34.27 438.36 31.96C438.367 29.65 439.438 28.103 441.58 28.103C443.176 28.103 444.177 28.957 444.576 30.364L446.06 29.965C445.465 27.977 443.904 26.71 441.58 26.71C438.556 26.71 436.813 28.845 436.813 31.96C436.813 35.075 438.556 37.21 441.58 37.21ZM447.599 37H450.756C450.938 37 451.54 37 452.009 36.937C454.375 36.636 455.635 34.529 455.635 31.96C455.635 29.391 454.375 27.284 452.009 26.983C451.54 26.92 450.938 26.92 450.756 26.92H447.599V37ZM449.097 35.607V28.313H450.756C451.064 28.313 451.568 28.32 451.904 28.383C453.416 28.663 454.081 30.189 454.081 31.96C454.081 33.689 453.444 35.243 451.904 35.537C451.568 35.6 451.078 35.607 450.756 35.607H449.097ZM457.265 37H458.728V33.381H461.402L463.159 37H464.832L462.928 33.094C464.069 32.597 464.643 31.491 464.643 30.147C464.643 28.516 463.803 27.235 462.116 26.976C461.85 26.934 461.535 26.92 461.339 26.92H457.265V37ZM458.728 31.995V28.299H461.283C461.465 28.299 461.71 28.313 461.92 28.369C462.816 28.579 463.152 29.405 463.152 30.147C463.152 30.889 462.816 31.715 461.92 31.932C461.71 31.981 461.465 31.995 461.283 31.995H458.728ZM466.091 36.993H472.909V35.6H468.352L471.271 32.996C472.363 32.037 472.909 31.407 472.909 30.028C472.909 28.117 471.474 26.71 469.57 26.71C467.561 26.71 466.126 28.047 466.126 30H467.624C467.61 28.985 468.422 28.103 469.542 28.103C470.627 28.103 471.404 28.929 471.404 30.007C471.404 30.581 471.194 31.127 470.487 31.757L466.098 35.691L466.091 36.993Z" fill="#D3D7E0"/>
<path d="M500 132V24" stroke="#D3D7E0" stroke-width="2" stroke-linecap="square" stroke-dasharray="6 6"/>
<path d="M533.805 37H535.268V32.695H538.936V31.225H535.268V28.383H539.776V26.92H533.805V37ZM541.038 37H542.501V33.381H545.175L546.932 37H548.605L546.701 33.094C547.842 32.597 548.416 31.491 548.416 30.147C548.416 28.516 547.576 27.235 545.889 26.976C545.623 26.934 545.308 26.92 545.112 26.92H541.038V37ZM542.501 31.995V28.299H545.056C545.238 28.299 545.483 28.313 545.693 28.369C546.589 28.579 546.925 29.405 546.925 30.147C546.925 30.889 546.589 31.715 545.693 31.932C545.483 31.981 545.238 31.995 545.056 31.995H542.501ZM552.964 37.189C554.847 37.189 556.331 35.796 556.331 33.871C556.331 32.233 555.323 30.924 553.692 30.707L556.184 28.313V26.92H550.122V28.313H554.392L551.312 31.036L551.998 32.191C552.285 32.037 552.628 31.939 552.95 31.939C554.07 31.939 554.833 32.751 554.833 33.871C554.833 34.984 554.07 35.789 552.964 35.803C552.138 35.81 551.403 35.341 551.137 34.466L549.723 34.858C550.15 36.293 551.466 37.189 552.964 37.189Z" fill="#D3D7E0"/>
<path d="M590 132V24" stroke="#D3D7E0" stroke-width="2" stroke-linecap="square" stroke-dasharray="6 6"/>
<path d="M642.682 37.21C645.006 37.21 646.567 35.943 647.162 33.955L645.678 33.556C645.279 34.963 644.278 35.817 642.682 35.817C640.54 35.817 639.448 34.27 639.462 31.96C639.469 29.65 640.54 28.103 642.682 28.103C644.278 28.103 645.279 28.957 645.678 30.364L647.162 29.965C646.567 27.977 645.006 26.71 642.682 26.71C639.658 26.71 637.915 28.845 637.915 31.96C637.915 35.075 639.658 37.21 642.682 37.21ZM648.702 37H651.859C652.041 37 652.643 37 653.112 36.937C655.478 36.636 656.738 34.529 656.738 31.96C656.738 29.391 655.478 27.284 653.112 26.983C652.643 26.92 652.041 26.92 651.859 26.92H648.702V37ZM650.2 35.607V28.313H651.859C652.167 28.313 652.671 28.32 653.007 28.383C654.519 28.663 655.184 30.189 655.184 31.96C655.184 33.689 654.547 35.243 653.007 35.537C652.671 35.6 652.181 35.607 651.859 35.607H650.2ZM658.368 37H659.831V33.381H662.505L664.262 37H665.935L664.031 33.094C665.172 32.597 665.746 31.491 665.746 30.147C665.746 28.516 664.906 27.235 663.219 26.976C662.953 26.934 662.638 26.92 662.442 26.92H658.368V37ZM659.831 31.995V28.299H662.386C662.568 28.299 662.813 28.313 663.023 28.369C663.919 28.579 664.255 29.405 664.255 30.147C664.255 30.889 663.919 31.715 663.023 31.932C662.813 31.981 662.568 31.995 662.386 31.995H659.831ZM670.294 37.189C672.177 37.189 673.661 35.796 673.661 33.871C673.661 32.233 672.653 30.924 671.022 30.707L673.514 28.313V26.92H667.452V28.313H671.722L668.642 31.036L669.328 32.191C669.615 32.037 669.958 31.939 670.28 31.939C671.4 31.939 672.163 32.751 672.163 33.871C672.163 34.984 671.4 35.789 670.294 35.803C669.468 35.81 668.733 35.341 668.467 34.466L667.053 34.858C667.48 36.293 668.796 37.189 670.294 37.189Z" fill="#D3D7E0"/>
<path d="M722 132V24" stroke="#D3D7E0" stroke-width="2" stroke-linecap="square" stroke-dasharray="6 6"/>
<path d="M773.593 37H775.056V32.695H778.724V31.225H775.056V28.383H779.564V26.92H773.593V37ZM780.826 37H782.289V33.381H784.963L786.72 37H788.393L786.489 33.094C787.63 32.597 788.204 31.491 788.204 30.147C788.204 28.516 787.364 27.235 785.677 26.976C785.411 26.934 785.096 26.92 784.9 26.92H780.826V37ZM782.289 31.995V28.299H784.844C785.026 28.299 785.271 28.313 785.481 28.369C786.377 28.579 786.713 29.405 786.713 30.147C786.713 30.889 786.377 31.715 785.481 31.932C785.271 31.981 785.026 31.995 784.844 31.995H782.289ZM794.201 37H795.685V35.243H796.686V33.857H795.685V31.127H794.201V33.857H791.324L794.6 26.92H792.927L789.651 33.857V35.243H794.201V37Z" fill="#D3D7E0"/>
<path d="M848 132V24" stroke="#D3D7E0" stroke-width="2" stroke-linecap="square" stroke-dasharray="6 6"/>
<g filter="url(#filter0_i_5862_35662)">
<path d="M129 80H606.4C606.96 80 607.24 80 607.454 80.109C607.642 80.2049 607.795 80.3578 607.891 80.546C608 80.7599 608 81.0399 608 81.6V130.4C608 130.96 608 131.24 607.891 131.454C607.795 131.642 607.642 131.795 607.454 131.891C607.24 132 606.96 132 606.4 132H129L124 125.5L129 119L124 112L129 106L124 99.5L129 93L124 86.5L129 80Z" fill="#99E099"/>
</g>
<path d="M129 80H606.4C606.96 80 607.24 80 607.454 80.109C607.642 80.2049 607.795 80.3578 607.891 80.546C608 80.7599 608 81.0399 608 81.6V130.4C608 130.96 608 131.24 607.891 131.454C607.795 131.642 607.642 131.795 607.454 131.891C607.24 132 606.96 132 606.4 132H129L124 125.5L129 119L124 112L129 106L124 99.5L129 93L124 86.5L129 80Z" stroke="#110529" stroke-width="2" stroke-linecap="round"/>
<path d="M355.209 114H357.792L362.813 99H360.896L356.48 112.021L352.126 99H350.188L355.209 114Z" fill="#110529"/>
<g filter="url(#filter1_i_5862_35662)">
<rect x="608" y="80" width="30" height="52" rx="1" fill="#CBEB67"/>
</g>
<rect x="608" y="80" width="30" height="52" rx="1" stroke="#110529" stroke-width="2" stroke-linecap="round"/>
<g filter="url(#filter2_i_5862_35662)">
<rect x="674" y="80" width="30" height="52" rx="1" fill="#FAAAFA"/>
</g>
<rect x="674" y="80" width="30" height="52" rx="1" stroke="#110529" stroke-width="2" stroke-linecap="round"/>
<g filter="url(#filter3_i_5862_35662)">
<rect x="638" y="80" width="36" height="52" rx="1" fill="#FFCB8F"/>
</g>
<rect x="638" y="80" width="36" height="52" rx="1" stroke="#110529" stroke-width="2" stroke-linecap="round"/>
<path d="M617.447 114V99.6H619.247L626.757 110.85V99.6H628.557V114H626.757L619.247 102.74V114H617.447Z" fill="#110529"/>
<path d="M683.447 114V99.6H685.247L692.757 110.85V99.6H694.557V114H692.757L685.247 102.74V114H683.447Z" fill="#110529"/>
<path d="M650.593 114V99.6H655.033C655.18 99.6 655.437 99.6033 655.803 99.61C656.17 99.6167 656.52 99.6433 656.853 99.69C657.967 99.8367 658.897 100.243 659.643 100.91C660.397 101.57 660.963 102.41 661.343 103.43C661.723 104.45 661.913 105.573 661.913 106.8C661.913 108.027 661.723 109.15 661.343 110.17C660.963 111.19 660.397 112.033 659.643 112.7C658.897 113.36 657.967 113.763 656.853 113.91C656.52 113.95 656.167 113.977 655.793 113.99C655.427 113.997 655.173 114 655.033 114H650.593ZM652.423 112.3H655.033C655.287 112.3 655.57 112.293 655.883 112.28C656.197 112.26 656.47 112.23 656.703 112.19C657.49 112.043 658.127 111.713 658.613 111.2C659.1 110.687 659.457 110.047 659.683 109.28C659.91 108.513 660.023 107.687 660.023 106.8C660.023 105.893 659.907 105.057 659.673 104.29C659.447 103.523 659.09 102.887 658.603 102.38C658.117 101.873 657.483 101.55 656.703 101.41C656.47 101.363 656.193 101.333 655.873 101.32C655.553 101.307 655.273 101.3 655.033 101.3H652.423V112.3Z" fill="#110529"/>
<g filter="url(#filter4_i_5862_35662)">
<path d="M848 81.6C848 81.0399 848 80.7599 847.891 80.546C847.795 80.3578 847.642 80.2049 847.454 80.109C847.24 80 846.96 80 846.4 80H705.6C705.04 80 704.76 80 704.546 80.109C704.358 80.2049 704.205 80.3578 704.109 80.546C704 80.7599 704 81.0399 704 81.6V106V130.4C704 130.96 704 131.24 704.109 131.454C704.205 131.642 704.358 131.795 704.546 131.891C704.76 132 705.04 132 705.6 132H846.4C846.96 132 847.24 132 847.454 131.891C847.642 131.795 847.795 131.642 847.891 131.454C848 131.24 848 130.96 848 130.4V125.5V119V112V106V99.5V93V86.5V81.6Z" fill="#C1ADFF"/>
</g>
<path d="M848 81.6C848 81.0399 848 80.7599 847.891 80.546C847.795 80.3578 847.642 80.2049 847.454 80.109C847.24 80 846.96 80 846.4 80H705.6C705.04 80 704.76 80 704.546 80.109C704.358 80.2049 704.205 80.3578 704.109 80.546C704 80.7599 704 81.0399 704 81.6V106V130.4C704 130.96 704 131.24 704.109 131.454C704.205 131.642 704.358 131.795 704.546 131.891C704.76 132 705.04 132 705.6 132H846.4C846.96 132 847.24 132 847.454 131.891C847.642 131.795 847.795 131.642 847.891 131.454C848 131.24 848 130.96 848 130.4V125.5V119V112V106V99.5V93V86.5V81.6Z" stroke="#110529" stroke-width="2" stroke-linecap="round"/>
<path d="M779.272 99V109.292C779.272 110.604 779.272 111.312 778.71 112.312C777.939 113.604 776.752 114.312 775.127 114.312C774.356 114.312 773.606 114.146 772.96 113.729C772.002 113.187 771.314 112.208 771.022 111.146L772.877 110.708C772.981 111.292 773.356 111.812 773.856 112.146C774.21 112.396 774.668 112.542 775.106 112.542C775.897 112.542 776.731 112.125 777.085 111.354C777.356 110.792 777.356 110.375 777.356 109.292V99H779.272Z" fill="#110529"/>
<path d="M31.11 114H32.89V101.29H37.8V99.6H26.2V101.29H31.11V114ZM45.3122 114.3C48.6422 114.3 50.8322 112.47 51.6522 109.61L49.8422 109.13C49.2522 111.27 47.7422 112.6 45.3122 112.6C42.0922 112.6 40.4522 110.25 40.4722 106.8C40.4922 103.35 42.0922 101 45.3122 101C47.7422 101 49.2522 102.33 49.8422 104.47L51.6522 103.99C50.8322 101.13 48.6422 99.3 45.3122 99.3C41.0022 99.3 38.5922 102.36 38.5922 106.8C38.5922 111.24 41.0022 114.3 45.3122 114.3ZM53.8453 114H55.6253V108.68H59.8353L62.4153 114H64.4553L61.6753 108.29C63.3053 107.61 64.1553 106.04 64.1553 104.14C64.1553 101.85 62.9253 100.04 60.5953 99.68C60.2253 99.62 59.8153 99.6 59.5353 99.6H53.8453V114ZM55.6253 106.99V101.29H59.4753C59.7253 101.29 60.0753 101.31 60.3753 101.38C61.7553 101.69 62.3353 102.94 62.3353 104.14C62.3353 105.34 61.7553 106.59 60.3753 106.9C60.0753 106.97 59.7253 106.99 59.4753 106.99H55.6253ZM70.6517 103.2V118.8H72.4317V113.39C73.1417 113.96 74.1317 114.3 75.3617 114.3C78.4117 114.3 80.2617 112.57 80.2617 109.95C80.2617 107.74 78.8617 106.44 77.4717 106.09C78.5217 105.58 79.0317 104.5 79.0317 103.22C79.0317 100.84 77.2817 99.3 74.7917 99.3C72.9317 99.3 71.4017 100.16 70.8717 101.78C70.7217 102.23 70.6517 102.71 70.6517 103.2ZM72.4717 109.71V103.86C72.4717 103.44 72.4917 102.8 72.7017 102.28C73.0617 101.35 73.9417 100.99 74.8317 100.99C76.2117 100.99 77.2117 101.82 77.2117 103.24C77.2117 104.67 76.2117 105.4 74.8417 105.54V107.14C77.0317 107.18 78.4517 108.1 78.4517 109.87C78.4517 111.52 77.2117 112.61 75.4417 112.61C74.1917 112.61 72.9517 112.04 72.6217 111.01C72.5017 110.64 72.4717 110.1 72.4717 109.71Z" fill="#110529"/>
<path d="M129.4 180H131.18V174.68H135.39L137.97 180H140.01L137.23 174.29C138.86 173.61 139.71 172.04 139.71 170.14C139.71 167.85 138.48 166.04 136.15 165.68C135.78 165.62 135.37 165.6 135.09 165.6H129.4V180ZM131.18 172.99V167.29H135.03C135.28 167.29 135.63 167.31 135.93 167.38C137.31 167.69 137.89 168.94 137.89 170.14C137.89 171.34 137.31 172.59 135.93 172.9C135.63 172.97 135.28 172.99 135.03 172.99H131.18ZM144.723 180H146.533V165.6H144.723L142.013 167.22V169.21L144.723 167.57V180Z" fill="#110529"/>
<path d="M157 164V180H167V188L181 172L167 156V164H157Z" fill="#110529"/>
<path d="M596 172H184" stroke="#110529" stroke-width="2" stroke-linecap="square"/>
<path d="M606 172L606.707 171.293L607.414 172L606.707 172.707L606 172ZM598.707 180.707L598 181.414L596.586 180L597.293 179.293L598.707 180.707ZM597.293 164.707L596.586 164L598 162.586L598.707 163.293L597.293 164.707ZM596 171L606 171L606 173L596 173L596 171ZM606.707 172.707L598.707 180.707L597.293 179.293L605.293 171.293L606.707 172.707ZM605.293 172.707L597.293 164.707L598.707 163.293L606.707 171.293L605.293 172.707Z" fill="#110529"/>
<rect width="56" height="20" transform="translate(420 162)" fill="white"/>
<path d="M424.8 177.992H432.456V176.632H426.992L430.704 173.296C431.888 172.248 432.456 171.488 432.456 169.976C432.456 167.856 430.84 166.24 428.704 166.24C426.488 166.24 424.856 167.784 424.856 169.952H426.312C426.296 168.696 427.304 167.6 428.68 167.6C430.008 167.6 431 168.632 431 169.96C431 170.688 430.768 171.352 429.92 172.112L424.808 176.712L424.8 177.992ZM437.778 178.24C439.922 178.24 441.738 176.504 441.738 174.376C441.738 172.232 440.114 170.584 437.978 170.584C437.202 170.584 436.426 170.848 435.826 171.328L436.034 167.832H440.938V166.48H434.754L434.402 172.504L435.666 172.984C436.082 172.384 436.802 171.896 437.818 171.896C439.162 171.896 440.306 172.984 440.306 174.376C440.306 175.728 439.218 176.856 437.818 176.856C436.746 176.856 435.706 176.144 435.418 175.008L434.05 175.376C434.514 177.056 435.994 178.24 437.778 178.24ZM447.539 178.24C449.779 178.24 451.427 176.592 451.427 174.352V170.128C451.427 167.888 449.779 166.24 447.539 166.24C445.299 166.24 443.651 167.888 443.651 170.128V174.352C443.651 176.592 445.299 178.24 447.539 178.24ZM445.099 174.432V170.04C445.099 168.688 446.187 167.6 447.539 167.6C448.891 167.6 449.979 168.688 449.979 170.04V174.432C449.979 175.784 448.891 176.872 447.539 176.872C446.187 176.872 445.099 175.784 445.099 174.432ZM457.635 178.24C460.051 178.24 461.507 176.264 461.507 173.672C461.507 171.08 460.043 169.12 457.643 169.12C456.563 169.12 455.707 169.496 455.091 170.144V166.48H453.659V178H454.931V177.024C455.563 177.784 456.467 178.24 457.635 178.24ZM454.931 173.672C454.931 171.76 455.731 170.424 457.419 170.424C459.179 170.424 459.995 171.848 459.995 173.672C459.995 175.512 459.163 176.936 457.459 176.936C455.715 176.936 454.931 175.568 454.931 173.672ZM467.229 178.24C469.645 178.24 471.101 176.264 471.101 173.672C471.101 171.08 469.637 169.12 467.237 169.12C466.061 169.12 465.157 169.568 464.525 170.328V169.36H463.253V181.84H464.685V177.2C465.301 177.856 466.157 178.24 467.229 178.24ZM464.525 173.672C464.525 171.76 465.325 170.424 467.013 170.424C468.773 170.424 469.589 171.848 469.589 173.672C469.589 175.512 468.757 176.936 467.053 176.936C465.309 176.936 464.525 175.568 464.525 173.672Z" fill="#110529"/>
<path d="M448 192H863" stroke="#110529" stroke-width="2" stroke-linecap="square"/>
<path d="M433 192L432.293 191.293L431.586 192L432.293 192.707L433 192ZM440.293 200.707L441 201.414L442.414 200L441.707 199.293L440.293 200.707ZM441.707 184.707L442.414 184L441 182.586L440.293 183.293L441.707 184.707ZM453 191L433 191L433 193L453 193L453 191ZM432.293 192.707L440.293 200.707L441.707 199.293L433.707 191.293L432.293 192.707ZM433.707 192.707L441.707 184.707L440.293 183.293L432.293 191.293L433.707 192.707Z" fill="#110529"/>
<rect width="58.0192" height="20" transform="translate(630.923 182)" fill="white"/>
<path d="M635.723 197.992H643.379V196.632H637.915L641.627 193.296C642.811 192.248 643.379 191.488 643.379 189.976C643.379 187.856 641.763 186.24 639.627 186.24C637.411 186.24 635.779 187.784 635.779 189.952H637.235C637.219 188.696 638.227 187.6 639.603 187.6C640.931 187.6 641.923 188.632 641.923 189.96C641.923 190.688 641.691 191.352 640.843 192.112L635.731 196.712L635.723 197.992ZM648.701 198.24C650.845 198.24 652.661 196.504 652.661 194.376C652.661 192.232 651.037 190.584 648.901 190.584C648.125 190.584 647.349 190.848 646.749 191.328L646.957 187.832H651.861V186.48H645.677L645.325 192.504L646.589 192.984C647.005 192.384 647.725 191.896 648.741 191.896C650.085 191.896 651.229 192.984 651.229 194.376C651.229 195.728 650.141 196.856 648.741 196.856C647.669 196.856 646.629 196.144 646.341 195.008L644.973 195.376C645.437 197.056 646.917 198.24 648.701 198.24ZM658.462 198.24C660.702 198.24 662.35 196.592 662.35 194.352V190.128C662.35 187.888 660.702 186.24 658.462 186.24C656.222 186.24 654.574 187.888 654.574 190.128V194.352C654.574 196.592 656.222 198.24 658.462 198.24ZM656.022 194.432V190.04C656.022 188.688 657.11 187.6 658.462 187.6C659.814 187.6 660.902 188.688 660.902 190.04V194.432C660.902 195.784 659.814 196.872 658.462 196.872C657.11 196.872 656.022 195.784 656.022 194.432ZM668.558 198.24C670.974 198.24 672.43 196.264 672.43 193.672C672.43 191.08 670.966 189.12 668.566 189.12C667.486 189.12 666.63 189.496 666.014 190.144V186.48H664.582V198H665.854V197.024C666.486 197.784 667.39 198.24 668.558 198.24ZM665.854 193.672C665.854 191.76 666.654 190.424 668.342 190.424C670.102 190.424 670.918 191.848 670.918 193.672C670.918 195.512 670.086 196.936 668.382 196.936C666.638 196.936 665.854 195.568 665.854 193.672ZM678.152 198.24C680.568 198.24 682.024 196.264 682.024 193.672C682.024 191.08 680.56 189.12 678.16 189.12C676.984 189.12 676.08 189.568 675.448 190.328V189.36H674.176V201.84H675.608V197.2C676.224 197.856 677.08 198.24 678.152 198.24ZM675.448 193.672C675.448 191.76 676.248 190.424 677.936 190.424C679.696 190.424 680.512 191.848 680.512 193.672C680.512 195.512 679.68 196.936 677.976 196.936C676.232 196.936 675.448 195.568 675.448 193.672Z" fill="#110529"/>
<path d="M887 184V200H877V208L863 192L877 176V184H887Z" fill="#110529"/>
<path d="M896.4 200H898.18V194.68H902.39L904.97 200H907.01L904.23 194.29C905.86 193.61 906.71 192.04 906.71 190.14C906.71 187.85 905.48 186.04 903.15 185.68C902.78 185.62 902.37 185.6 902.09 185.6H896.4V200ZM898.18 192.99V187.29H902.03C902.28 187.29 902.63 187.31 902.93 187.38C904.31 187.69 904.89 188.94 904.89 190.14C904.89 191.34 904.31 192.59 902.93 192.9C902.63 192.97 902.28 192.99 902.03 192.99H898.18ZM908.813 199.99H918.383V198.29H911.553L916.193 194.12C917.673 192.81 918.383 191.86 918.383 189.97C918.383 187.32 916.363 185.3 913.692 185.3C910.923 185.3 908.883 187.23 908.883 189.94H910.703C910.683 188.37 911.943 187 913.663 187C915.323 187 916.563 188.29 916.563 189.95C916.563 190.86 916.273 191.69 915.213 192.64L908.823 198.39L908.813 199.99Z" fill="#110529"/>
<defs>
<filter id="filter0_i_5862_35662" x="122.738" y="79" width="486.262" height="54" filterUnits="userSpaceOnUse" color-interpolation-filters="sRGB">
<feFlood flood-opacity="0" result="BackgroundImageFix"/>
<feBlend mode="normal" in="SourceGraphic" in2="BackgroundImageFix" result="shape"/>
<feColorMatrix in="SourceAlpha" type="matrix" values="0 0 0 0 0 0 0 0 0 0 0 0 0 0 0 0 0 0 127 0" result="hardAlpha"/>
<feOffset dx="-8" dy="-4"/>
<feComposite in2="hardAlpha" operator="arithmetic" k2="-1" k3="1"/>
<feColorMatrix type="matrix" values="0 0 0 0 0.0666667 0 0 0 0 0.0196078 0 0 0 0 0.160784 0 0 0 0.16 0"/>
<feBlend mode="normal" in2="shape" result="effect1_innerShadow_5862_35662"/>
</filter>
<filter id="filter1_i_5862_35662" x="607" y="79" width="32" height="54" filterUnits="userSpaceOnUse" color-interpolation-filters="sRGB">
<feFlood flood-opacity="0" result="BackgroundImageFix"/>
<feBlend mode="normal" in="SourceGraphic" in2="BackgroundImageFix" result="shape"/>
<feColorMatrix in="SourceAlpha" type="matrix" values="0 0 0 0 0 0 0 0 0 0 0 0 0 0 0 0 0 0 127 0" result="hardAlpha"/>
<feOffset dx="-8" dy="-4"/>
<feComposite in2="hardAlpha" operator="arithmetic" k2="-1" k3="1"/>
<feColorMatrix type="matrix" values="0 0 0 0 0.0666667 0 0 0 0 0.0196078 0 0 0 0 0.160784 0 0 0 0.16 0"/>
<feBlend mode="normal" in2="shape" result="effect1_innerShadow_5862_35662"/>
</filter>
<filter id="filter2_i_5862_35662" x="673" y="79" width="32" height="54" filterUnits="userSpaceOnUse" color-interpolation-filters="sRGB">
<feFlood flood-opacity="0" result="BackgroundImageFix"/>
<feBlend mode="normal" in="SourceGraphic" in2="BackgroundImageFix" result="shape"/>
<feColorMatrix in="SourceAlpha" type="matrix" values="0 0 0 0 0 0 0 0 0 0 0 0 0 0 0 0 0 0 127 0" result="hardAlpha"/>
<feOffset dx="-8" dy="-4"/>
<feComposite in2="hardAlpha" operator="arithmetic" k2="-1" k3="1"/>
<feColorMatrix type="matrix" values="0 0 0 0 0.0666667 0 0 0 0 0.0196078 0 0 0 0 0.160784 0 0 0 0.16 0"/>
<feBlend mode="normal" in2="shape" result="effect1_innerShadow_5862_35662"/>
</filter>
<filter id="filter3_i_5862_35662" x="637" y="79" width="38" height="54" filterUnits="userSpaceOnUse" color-interpolation-filters="sRGB">
<feFlood flood-opacity="0" result="BackgroundImageFix"/>
<feBlend mode="normal" in="SourceGraphic" in2="BackgroundImageFix" result="shape"/>
<feColorMatrix in="SourceAlpha" type="matrix" values="0 0 0 0 0 0 0 0 0 0 0 0 0 0 0 0 0 0 127 0" result="hardAlpha"/>
<feOffset dx="-8" dy="-4"/>
<feComposite in2="hardAlpha" operator="arithmetic" k2="-1" k3="1"/>
<feColorMatrix type="matrix" values="0 0 0 0 0.0666667 0 0 0 0 0.0196078 0 0 0 0 0.160784 0 0 0 0.16 0"/>
<feBlend mode="normal" in2="shape" result="effect1_innerShadow_5862_35662"/>
</filter>
<filter id="filter4_i_5862_35662" x="703" y="79" width="146" height="54" filterUnits="userSpaceOnUse" color-interpolation-filters="sRGB">
<feFlood flood-opacity="0" result="BackgroundImageFix"/>
<feBlend mode="normal" in="SourceGraphic" in2="BackgroundImageFix" result="shape"/>
<feColorMatrix in="SourceAlpha" type="matrix" values="0 0 0 0 0 0 0 0 0 0 0 0 0 0 0 0 0 0 127 0" result="hardAlpha"/>
<feOffset dx="-8" dy="-4"/>
<feComposite in2="hardAlpha" operator="arithmetic" k2="-1" k3="1"/>
<feColorMatrix type="matrix" values="0 0 0 0 0.0666667 0 0 0 0 0.0196078 0 0 0 0 0.160784 0 0 0 0.16 0"/>
<feBlend mode="normal" in2="shape" result="effect1_innerShadow_5862_35662"/>
</filter>
</defs>
</svg>
