<svg width="960" height="216" viewBox="0 0 960 216" fill="none" xmlns="http://www.w3.org/2000/svg">
    <rect width="960" height="216" fill="white"/>
    <path d="M354.805 37H356.268V32.695H359.936V31.225H356.268V28.383H360.776V26.92H354.805V37ZM362.038 37H363.501V33.381H366.175L367.932 37H369.605L367.701 33.094C368.842 32.597 369.416 31.491 369.416 30.147C369.416 28.516 368.576 27.235 366.889 26.976C366.623 26.934 366.308 26.92 366.112 26.92H362.038V37ZM363.501 31.995V28.299H366.056C366.238 28.299 366.483 28.313 366.693 28.369C367.589 28.579 367.925 29.405 367.925 30.147C367.925 30.889 367.589 31.715 366.693 31.932C366.483 31.981 366.238 31.995 366.056 31.995H363.501ZM373.964 37.189C375.847 37.189 377.331 35.796 377.331 33.871C377.331 32.233 376.323 30.924 374.692 30.707L377.184 28.313V26.92H371.122V28.313H375.392L372.312 31.036L372.998 32.191C373.285 32.037 373.628 31.939 373.95 31.939C375.07 31.939 375.833 32.751 375.833 33.871C375.833 34.984 375.07 35.789 373.964 35.803C373.138 35.81 372.403 35.341 372.137 34.466L370.723 34.858C371.15 36.293 372.466 37.189 373.964 37.189Z" fill="#D3D7E0"/>
    <path d="M498.682 37.21C501.006 37.21 502.567 35.943 503.162 33.955L501.678 33.556C501.279 34.963 500.278 35.817 498.682 35.817C496.54 35.817 495.448 34.27 495.462 31.96C495.469 29.65 496.54 28.103 498.682 28.103C500.278 28.103 501.279 28.957 501.678 30.364L503.162 29.965C502.567 27.977 501.006 26.71 498.682 26.71C495.658 26.71 493.915 28.845 493.915 31.96C493.915 35.075 495.658 37.21 498.682 37.21ZM504.702 37H507.859C508.041 37 508.643 37 509.112 36.937C511.478 36.636 512.738 34.529 512.738 31.96C512.738 29.391 511.478 27.284 509.112 26.983C508.643 26.92 508.041 26.92 507.859 26.92H504.702V37ZM506.2 35.607V28.313H507.859C508.167 28.313 508.671 28.32 509.007 28.383C510.519 28.663 511.184 30.189 511.184 31.96C511.184 33.689 510.547 35.243 509.007 35.537C508.671 35.6 508.181 35.607 507.859 35.607H506.2ZM514.368 37H515.831V33.381H518.505L520.262 37H521.935L520.031 33.094C521.172 32.597 521.746 31.491 521.746 30.147C521.746 28.516 520.906 27.235 519.219 26.976C518.953 26.934 518.638 26.92 518.442 26.92H514.368V37ZM515.831 31.995V28.299H518.386C518.568 28.299 518.813 28.313 519.023 28.369C519.919 28.579 520.255 29.405 520.255 30.147C520.255 30.889 519.919 31.715 519.023 31.932C518.813 31.981 518.568 31.995 518.386 31.995H515.831ZM526.294 37.189C528.177 37.189 529.661 35.796 529.661 33.871C529.661 32.233 528.653 30.924 527.022 30.707L529.514 28.313V26.92H523.452V28.313H527.722L524.642 31.036L525.328 32.191C525.615 32.037 525.958 31.939 526.28 31.939C527.4 31.939 528.163 32.751 528.163 33.871C528.163 34.984 527.4 35.789 526.294 35.803C525.468 35.81 524.733 35.341 524.467 34.466L523.053 34.858C523.48 36.293 524.796 37.189 526.294 37.189Z" fill="#D3D7E0"/>
    <path d="M145.688 114H147.468V101.29H152.378V99.6H140.778V101.29H145.688V114ZM159.89 114.3C163.22 114.3 165.41 112.47 166.23 109.61L164.42 109.13C163.83 111.27 162.32 112.6 159.89 112.6C156.67 112.6 155.03 110.25 155.05 106.8C155.07 103.35 156.67 101 159.89 101C162.32 101 163.83 102.33 164.42 104.47L166.23 103.99C165.41 101.13 163.22 99.3 159.89 99.3C155.58 99.3 153.17 102.36 153.17 106.8C153.17 111.24 155.58 114.3 159.89 114.3ZM168.423 114H170.203V108.68H174.413L176.993 114H179.033L176.253 108.29C177.883 107.61 178.733 106.04 178.733 104.14C178.733 101.85 177.503 100.04 175.173 99.68C174.803 99.62 174.393 99.6 174.113 99.6H168.423V114ZM170.203 106.99V101.29H174.053C174.303 101.29 174.653 101.31 174.953 101.38C176.333 101.69 176.913 102.94 176.913 104.14C176.913 105.34 176.333 106.59 174.953 106.9C174.653 106.97 174.303 106.99 174.053 106.99H170.203ZM185.23 103.2V118.8H187.01V113.39C187.72 113.96 188.71 114.3 189.94 114.3C192.99 114.3 194.84 112.57 194.84 109.95C194.84 107.74 193.44 106.44 192.05 106.09C193.1 105.58 193.61 104.5 193.61 103.22C193.61 100.84 191.86 99.3 189.37 99.3C187.51 99.3 185.98 100.16 185.45 101.78C185.3 102.23 185.23 102.71 185.23 103.2ZM187.05 109.71V103.86C187.05 103.44 187.07 102.8 187.28 102.28C187.64 101.35 188.52 100.99 189.41 100.99C190.79 100.99 191.79 101.82 191.79 103.24C191.79 104.67 190.79 105.4 189.42 105.54V107.14C191.61 107.18 193.03 108.1 193.03 109.87C193.03 111.52 191.79 112.61 190.02 112.61C188.77 112.61 187.53 112.04 187.2 111.01C187.08 110.64 187.05 110.1 187.05 109.71Z" fill="#110529"/>
    <path d="M464 112V24" stroke="#D3D7E0" stroke-width="2" stroke-linecap="square" stroke-dasharray="6 6"/>
    <g filter="url(#filter0_i_5934_38262)">
        <path d="M249 80H462.4C462.96 80 463.24 80 463.454 80.109C463.642 80.2049 463.795 80.3578 463.891 80.546C464 80.7599 464 81.0399 464 81.6V130.4C464 130.96 464 131.24 463.891 131.454C463.795 131.642 463.642 131.795 463.454 131.891C463.24 132 462.96 132 462.4 132H249L244 125.5L249 119L244 112L249 106L244 99.5L249 93L244 86.5L249 80Z" fill="#99E099"/>
    </g>
    <path d="M249 80H462.4C462.96 80 463.24 80 463.454 80.109C463.642 80.2049 463.795 80.3578 463.891 80.546C464 80.7599 464 81.0399 464 81.6V130.4C464 130.96 464 131.24 463.891 131.454C463.795 131.642 463.642 131.795 463.454 131.891C463.24 132 462.96 132 462.4 132H249L244 125.5L249 119L244 112L249 106L244 99.5L249 93L244 86.5L249 80Z" stroke="#110529" stroke-width="2" stroke-linecap="round"/>
    <path d="M363.209 114H365.792L370.813 99H368.896L364.48 112.021L360.126 99H358.188L363.209 114Z" fill="#110529"/>
    <path d="M560 112V24" stroke="#D3D7E0" stroke-width="2" stroke-linecap="square" stroke-dasharray="6 6"/>
    <g filter="url(#filter1_i_5934_38262)">
        <rect x="464" y="80" width="30" height="52" rx="1" fill="#CBEB67"/>
    </g>
    <rect x="464" y="80" width="30" height="52" rx="1" stroke="#110529" stroke-width="2" stroke-linecap="round"/>
    <g filter="url(#filter2_i_5934_38262)">
        <rect x="530" y="80" width="30" height="52" rx="1" fill="#FAAAFA"/>
    </g>
    <rect x="530" y="80" width="30" height="52" rx="1" stroke="#110529" stroke-width="2" stroke-linecap="round"/>
    <g filter="url(#filter3_i_5934_38262)">
        <rect x="494" y="80" width="36" height="52" rx="1" fill="#FFCB8F"/>
    </g>
    <rect x="494" y="80" width="36" height="52" rx="1" stroke="#110529" stroke-width="2" stroke-linecap="round"/>
    <path d="M473.447 114H475.247V102.74L482.757 114H484.557V99.6H482.757V110.85L475.247 99.6H473.447V114Z" fill="#110529"/>
    <path d="M539.447 114H541.247V102.74L548.757 114H550.557V99.6H548.757V110.85L541.247 99.6H539.447V114Z" fill="#110529"/>
    <path d="M506.593 114H511.033C511.303 114 512.183 114 512.853 113.91C516.183 113.47 517.913 110.48 517.913 106.8C517.913 103.13 516.183 100.13 512.853 99.69C512.173 99.6 511.313 99.6 511.033 99.6H506.593V114ZM508.423 112.3V101.3H511.033C511.513 101.3 512.233 101.32 512.703 101.41C515.033 101.83 516.023 104.08 516.023 106.8C516.023 109.47 515.063 111.76 512.703 112.19C512.233 112.28 511.533 112.3 511.033 112.3H508.423Z" fill="#110529"/>
    <g filter="url(#filter4_i_5934_38262)">
        <path d="M695 132L561.6 132C561.04 132 560.76 132 560.546 131.891C560.358 131.795 560.205 131.642 560.109 131.454C560 131.24 560 130.96 560 130.4V106V81.6C560 81.0399 560 80.7599 560.109 80.546C560.205 80.3578 560.358 80.2049 560.546 80.109C560.76 80 561.04 80 561.6 80L695 80L700 86.5L695 93L700 100L695 106L700 112.5L695 119L700 125.5L695 132Z" fill="#C1ADFF"/>
    </g>
    <path d="M695 132L561.6 132C561.04 132 560.76 132 560.546 131.891C560.358 131.795 560.205 131.642 560.109 131.454C560 131.24 560 130.96 560 130.4V106V81.6C560 81.0399 560 80.7599 560.109 80.546C560.205 80.3578 560.358 80.2049 560.546 80.109C560.76 80 561.04 80 561.6 80L695 80L700 86.5L695 93L700 100L695 106L700 112.5L695 119L700 125.5L695 132Z" stroke="#110529" stroke-width="2" stroke-linecap="round"/>
    <path d="M633.272 99V109.292C633.272 110.604 633.272 111.312 632.71 112.312C631.939 113.604 630.751 114.312 629.126 114.312C628.356 114.312 627.606 114.146 626.96 113.729C626.001 113.187 625.314 112.208 625.022 111.146L626.876 110.708C626.981 111.292 627.356 111.812 627.856 112.146C628.21 112.396 628.668 112.542 629.106 112.542C629.897 112.542 630.731 112.125 631.085 111.354C631.356 110.792 631.356 110.375 631.356 109.292V99H633.272Z" fill="#110529"/>
    <path d="M372 180L371.293 180.707L370.586 180L371.293 179.293L372 180ZM379.293 171.293L380 170.586L381.414 172L380.707 172.707L379.293 171.293ZM380.707 187.293L381.414 188L380 189.414L379.293 188.707L380.707 187.293ZM382 181L372 181L372 179L382 179L382 181ZM371.293 179.293L379.293 171.293L380.707 172.707L372.707 180.707L371.293 179.293ZM372.707 179.293L380.707 187.293L379.293 188.707L371.293 180.707L372.707 179.293Z" fill="#110529"/>
    <path d="M480.5 180H382" stroke="#110529" stroke-width="2"/>
    <rect width="57" height="20" transform="translate(480.5 170)" fill="white"/>
    <path d="M489.269 186H490.717V174.48H489.269L487.101 175.776V177.368L489.269 176.056V186ZM497.649 186.24C499.889 186.24 501.537 184.592 501.537 182.352V178.128C501.537 175.888 499.889 174.24 497.649 174.24C495.409 174.24 493.761 175.888 493.761 178.128V182.352C493.761 184.592 495.409 186.24 497.649 186.24ZM495.209 182.432V178.04C495.209 176.688 496.297 175.6 497.649 175.6C499.001 175.6 500.089 176.688 500.089 178.04V182.432C500.089 183.784 499.001 184.872 497.649 184.872C496.297 184.872 495.209 183.784 495.209 182.432ZM507.664 186.24C509.904 186.24 511.552 184.592 511.552 182.352V178.128C511.552 175.888 509.904 174.24 507.664 174.24C505.424 174.24 503.776 175.888 503.776 178.128V182.352C503.776 184.592 505.424 186.24 507.664 186.24ZM505.224 182.432V178.04C505.224 176.688 506.312 175.6 507.664 175.6C509.016 175.6 510.104 176.688 510.104 178.04V182.432C510.104 183.784 509.016 184.872 507.664 184.872C506.312 184.872 505.224 183.784 505.224 182.432ZM517.76 186.24C520.176 186.24 521.632 184.264 521.632 181.672C521.632 179.08 520.168 177.12 517.768 177.12C516.688 177.12 515.832 177.496 515.216 178.144V174.48H513.784V186H515.056V185.024C515.688 185.784 516.592 186.24 517.76 186.24ZM515.056 181.672C515.056 179.76 515.856 178.424 517.544 178.424C519.304 178.424 520.12 179.848 520.12 181.672C520.12 183.512 519.288 184.936 517.584 184.936C515.84 184.936 515.056 183.568 515.056 181.672ZM527.354 186.24C529.77 186.24 531.226 184.264 531.226 181.672C531.226 179.08 529.762 177.12 527.362 177.12C526.186 177.12 525.282 177.568 524.65 178.328V177.36H523.378V189.84H524.81V185.2C525.426 185.856 526.282 186.24 527.354 186.24ZM524.65 181.672C524.65 179.76 525.45 178.424 527.138 178.424C528.898 178.424 529.714 179.848 529.714 181.672C529.714 183.512 528.882 184.936 527.178 184.936C525.434 184.936 524.65 183.568 524.65 181.672Z" fill="#110529"/>
    <path d="M636 180H537.5" stroke="#110529" stroke-width="2"/>
    <path d="M643.12 186H644.544V181.744H647.912L649.976 186H651.608L649.384 181.432C650.688 180.888 651.368 179.632 651.368 178.112C651.368 176.28 650.384 174.832 648.52 174.544C648.224 174.496 647.896 174.48 647.672 174.48H643.12V186ZM644.544 180.392V175.832H647.624C647.824 175.832 648.104 175.848 648.344 175.904C649.448 176.152 649.912 177.152 649.912 178.112C649.912 179.072 649.448 180.072 648.344 180.32C648.104 180.376 647.824 180.392 647.624 180.392H644.544ZM653.05 185.992H660.706V184.632H655.242L658.954 181.296C660.138 180.248 660.706 179.488 660.706 177.976C660.706 175.856 659.09 174.24 656.954 174.24C654.738 174.24 653.106 175.784 653.106 177.952H654.562C654.546 176.696 655.554 175.6 656.93 175.6C658.258 175.6 659.25 176.632 659.25 177.96C659.25 178.688 659.018 179.352 658.17 180.112L653.058 184.712L653.05 185.992Z" fill="#110529"/>
    <rect x="636" y="168" width="32" height="24" rx="1" stroke="#110529" stroke-width="2"/>
    <path d="M272.62 162H274.044V157.744H277.412L279.476 162H281.108L278.884 157.432C280.188 156.888 280.868 155.632 280.868 154.112C280.868 152.28 279.884 150.832 278.02 150.544C277.724 150.496 277.396 150.48 277.172 150.48H272.62V162ZM274.044 156.392V151.832H277.124C277.324 151.832 277.604 151.848 277.844 151.904C278.948 152.152 279.412 153.152 279.412 154.112C279.412 155.072 278.948 156.072 277.844 156.32C277.604 156.376 277.324 156.392 277.124 156.392H274.044ZM284.878 162H286.326V150.48H284.878L282.71 151.776V153.368L284.878 152.056V162Z" fill="#110529"/>
    <rect x="264" y="144" width="32" height="24" rx="1" stroke="#110529" stroke-width="2"/>
    <path d="M396 156H296" stroke="#110529" stroke-width="2"/>
    <rect width="54" height="20" transform="translate(396 146)" fill="white"/>
    <path d="M403.269 162H404.717V150.48H403.269L401.101 151.776V153.368L403.269 152.056V162ZM411.649 162.24C413.889 162.24 415.537 160.592 415.537 158.352V154.128C415.537 151.888 413.889 150.24 411.649 150.24C409.409 150.24 407.761 151.888 407.761 154.128V158.352C407.761 160.592 409.409 162.24 411.649 162.24ZM409.209 158.432V154.04C409.209 152.688 410.297 151.6 411.649 151.6C413.001 151.6 414.089 152.688 414.089 154.04V158.432C414.089 159.784 413.001 160.872 411.649 160.872C410.297 160.872 409.209 159.784 409.209 158.432ZM421.664 162.24C423.904 162.24 425.552 160.592 425.552 158.352V154.128C425.552 151.888 423.904 150.24 421.664 150.24C419.424 150.24 417.776 151.888 417.776 154.128V158.352C417.776 160.592 419.424 162.24 421.664 162.24ZM419.224 158.432V154.04C419.224 152.688 420.312 151.6 421.664 151.6C423.016 151.6 424.104 152.688 424.104 154.04V158.432C424.104 159.784 423.016 160.872 421.664 160.872C420.312 160.872 419.224 159.784 419.224 158.432ZM431.76 162.24C434.176 162.24 435.632 160.264 435.632 157.672C435.632 155.08 434.168 153.12 431.768 153.12C430.688 153.12 429.832 153.496 429.216 154.144V150.48H427.784V162H429.056V161.024C429.688 161.784 430.592 162.24 431.76 162.24ZM429.056 157.672C429.056 155.76 429.856 154.424 431.544 154.424C433.304 154.424 434.12 155.848 434.12 157.672C434.12 159.512 433.288 160.936 431.584 160.936C429.84 160.936 429.056 159.568 429.056 157.672ZM441.354 162.24C443.77 162.24 445.226 160.264 445.226 157.672C445.226 155.08 443.762 153.12 441.362 153.12C440.186 153.12 439.282 153.568 438.65 154.328V153.36H437.378V165.84H438.81V161.2C439.426 161.856 440.282 162.24 441.354 162.24ZM438.65 157.672C438.65 155.76 439.45 154.424 441.138 154.424C442.898 154.424 443.714 155.848 443.714 157.672C443.714 159.512 442.882 160.936 441.178 160.936C439.434 160.936 438.65 159.568 438.65 157.672Z" fill="#110529"/>
    <path d="M550 156H450" stroke="#110529" stroke-width="2"/>
    <path d="M560 156L560.707 155.293L561.414 156L560.707 156.707L560 156ZM552.707 164.707L552 165.414L550.586 164L551.293 163.293L552.707 164.707ZM551.293 148.707L550.586 148L552 146.586L552.707 147.293L551.293 148.707ZM550 155L560 155L560 157L550 157L550 155ZM560.707 156.707L552.707 164.707L551.293 163.293L559.293 155.293L560.707 156.707ZM559.293 156.707L551.293 148.707L552.707 147.293L560.707 155.293L559.293 156.707Z" fill="#110529"/>
    <defs>
        <filter id="filter0_i_5934_38262" x="242.737" y="79" width="222.263" height="54" filterUnits="userSpaceOnUse" color-interpolation-filters="sRGB">
            <feFlood flood-opacity="0" result="BackgroundImageFix"/>
            <feBlend mode="normal" in="SourceGraphic" in2="BackgroundImageFix" result="shape"/>
            <feColorMatrix in="SourceAlpha" type="matrix" values="0 0 0 0 0 0 0 0 0 0 0 0 0 0 0 0 0 0 127 0" result="hardAlpha"/>
            <feOffset dx="-8" dy="-4"/>
            <feComposite in2="hardAlpha" operator="arithmetic" k2="-1" k3="1"/>
            <feColorMatrix type="matrix" values="0 0 0 0 0.0666667 0 0 0 0 0.0196078 0 0 0 0 0.160784 0 0 0 0.16 0"/>
            <feBlend mode="normal" in2="shape" result="effect1_innerShadow_5934_38262"/>
        </filter>
        <filter id="filter1_i_5934_38262" x="463" y="79" width="32" height="54" filterUnits="userSpaceOnUse" color-interpolation-filters="sRGB">
            <feFlood flood-opacity="0" result="BackgroundImageFix"/>
            <feBlend mode="normal" in="SourceGraphic" in2="BackgroundImageFix" result="shape"/>
            <feColorMatrix in="SourceAlpha" type="matrix" values="0 0 0 0 0 0 0 0 0 0 0 0 0 0 0 0 0 0 127 0" result="hardAlpha"/>
            <feOffset dx="-8" dy="-4"/>
            <feComposite in2="hardAlpha" operator="arithmetic" k2="-1" k3="1"/>
            <feColorMatrix type="matrix" values="0 0 0 0 0.0666667 0 0 0 0 0.0196078 0 0 0 0 0.160784 0 0 0 0.16 0"/>
            <feBlend mode="normal" in2="shape" result="effect1_innerShadow_5934_38262"/>
        </filter>
        <filter id="filter2_i_5934_38262" x="529" y="79" width="32" height="54" filterUnits="userSpaceOnUse" color-interpolation-filters="sRGB">
            <feFlood flood-opacity="0" result="BackgroundImageFix"/>
            <feBlend mode="normal" in="SourceGraphic" in2="BackgroundImageFix" result="shape"/>
            <feColorMatrix in="SourceAlpha" type="matrix" values="0 0 0 0 0 0 0 0 0 0 0 0 0 0 0 0 0 0 127 0" result="hardAlpha"/>
            <feOffset dx="-8" dy="-4"/>
            <feComposite in2="hardAlpha" operator="arithmetic" k2="-1" k3="1"/>
            <feColorMatrix type="matrix" values="0 0 0 0 0.0666667 0 0 0 0 0.0196078 0 0 0 0 0.160784 0 0 0 0.16 0"/>
            <feBlend mode="normal" in2="shape" result="effect1_innerShadow_5934_38262"/>
        </filter>
        <filter id="filter3_i_5934_38262" x="493" y="79" width="38" height="54" filterUnits="userSpaceOnUse" color-interpolation-filters="sRGB">
            <feFlood flood-opacity="0" result="BackgroundImageFix"/>
            <feBlend mode="normal" in="SourceGraphic" in2="BackgroundImageFix" result="shape"/>
            <feColorMatrix in="SourceAlpha" type="matrix" values="0 0 0 0 0 0 0 0 0 0 0 0 0 0 0 0 0 0 127 0" result="hardAlpha"/>
            <feOffset dx="-8" dy="-4"/>
            <feComposite in2="hardAlpha" operator="arithmetic" k2="-1" k3="1"/>
            <feColorMatrix type="matrix" values="0 0 0 0 0.0666667 0 0 0 0 0.0196078 0 0 0 0 0.160784 0 0 0 0.16 0"/>
            <feBlend mode="normal" in2="shape" result="effect1_innerShadow_5934_38262"/>
        </filter>
        <filter id="filter4_i_5934_38262" x="559" y="79" width="142.263" height="54" filterUnits="userSpaceOnUse" color-interpolation-filters="sRGB">
            <feFlood flood-opacity="0" result="BackgroundImageFix"/>
            <feBlend mode="normal" in="SourceGraphic" in2="BackgroundImageFix" result="shape"/>
            <feColorMatrix in="SourceAlpha" type="matrix" values="0 0 0 0 0 0 0 0 0 0 0 0 0 0 0 0 0 0 127 0" result="hardAlpha"/>
            <feOffset dx="-8" dy="-4"/>
            <feComposite in2="hardAlpha" operator="arithmetic" k2="-1" k3="1"/>
            <feColorMatrix type="matrix" values="0 0 0 0 0.0666667 0 0 0 0 0.0196078 0 0 0 0 0.160784 0 0 0 0.16 0"/>
            <feBlend mode="normal" in2="shape" result="effect1_innerShadow_5934_38262"/>
        </filter>
    </defs>
</svg>
