<svg width="960" height="216" viewBox="0 0 960 216" fill="none" xmlns="http://www.w3.org/2000/svg">
    <rect width="960" height="216" fill="white"/>
    <path d="M112 112V24" stroke="#D3D7E0" stroke-width="2" stroke-linecap="square" stroke-dasharray="6 6"/>
    <path d="M147.858 37H149.321V32.695H152.989V31.225H149.321V28.383H153.829V26.92H147.858V37ZM155.09 37H156.553V33.381H159.227L160.984 37H162.657L160.753 33.094C161.894 32.597 162.468 31.491 162.468 30.147C162.468 28.516 161.628 27.235 159.941 26.976C159.675 26.934 159.36 26.92 159.164 26.92H155.09V37ZM156.553 31.995V28.299H159.108C159.29 28.299 159.535 28.313 159.745 28.369C160.641 28.579 160.977 29.405 160.977 30.147C160.977 30.889 160.641 31.715 159.745 31.932C159.535 31.981 159.29 31.995 159.108 31.995H156.553ZM165.953 37H167.444V26.92H165.953L164.056 28.054V29.685L165.953 28.53V37Z" fill="#D3D7E0"/>
    <path d="M204 112V24" stroke="#D3D7E0" stroke-width="2" stroke-linecap="square" stroke-dasharray="6 6"/>
    <path d="M237.735 37.21C240.059 37.21 241.62 35.943 242.215 33.955L240.731 33.556C240.332 34.963 239.331 35.817 237.735 35.817C235.593 35.817 234.501 34.27 234.515 31.96C234.522 29.65 235.593 28.103 237.735 28.103C239.331 28.103 240.332 28.957 240.731 30.364L242.215 29.965C241.62 27.977 240.059 26.71 237.735 26.71C234.711 26.71 232.968 28.845 232.968 31.96C232.968 35.075 234.711 37.21 237.735 37.21ZM243.754 37H246.911C247.093 37 247.695 37 248.164 36.937C250.53 36.636 251.79 34.529 251.79 31.96C251.79 29.391 250.53 27.284 248.164 26.983C247.695 26.92 247.093 26.92 246.911 26.92H243.754V37ZM245.252 35.607V28.313H246.911C247.219 28.313 247.723 28.32 248.059 28.383C249.571 28.663 250.236 30.189 250.236 31.96C250.236 33.689 249.599 35.243 248.059 35.537C247.723 35.6 247.233 35.607 246.911 35.607H245.252ZM253.42 37H254.883V33.381H257.557L259.314 37H260.987L259.083 33.094C260.224 32.597 260.798 31.491 260.798 30.147C260.798 28.516 259.958 27.235 258.271 26.976C258.005 26.934 257.69 26.92 257.494 26.92H253.42V37ZM254.883 31.995V28.299H257.438C257.62 28.299 257.865 28.313 258.075 28.369C258.971 28.579 259.307 29.405 259.307 30.147C259.307 30.889 258.971 31.715 258.075 31.932C257.865 31.981 257.62 31.995 257.438 31.995H254.883ZM264.283 37H265.774V26.92H264.283L262.386 28.054V29.685L264.283 28.53V37Z" fill="#D3D7E0"/>
    <path d="M296 112V24" stroke="#D3D7E0" stroke-width="2" stroke-linecap="square" stroke-dasharray="6 6"/>
    <path d="M330.703 37H332.166V32.695H335.834V31.225H332.166V28.383H336.674V26.92H330.703V37ZM337.935 37H339.398V33.381H342.072L343.829 37H345.502L343.598 33.094C344.739 32.597 345.313 31.491 345.313 30.147C345.313 28.516 344.473 27.235 342.786 26.976C342.52 26.934 342.205 26.92 342.009 26.92H337.935V37ZM339.398 31.995V28.299H341.953C342.135 28.299 342.38 28.313 342.59 28.369C343.486 28.579 343.822 29.405 343.822 30.147C343.822 30.889 343.486 31.715 342.59 31.932C342.38 31.981 342.135 31.995 341.953 31.995H339.398ZM346.761 36.993H353.579V35.6H349.022L351.941 32.996C353.033 32.037 353.579 31.407 353.579 30.028C353.579 28.117 352.144 26.71 350.24 26.71C348.231 26.71 346.796 28.047 346.796 30H348.294C348.28 28.985 349.092 28.103 350.212 28.103C351.297 28.103 352.074 28.929 352.074 30.007C352.074 30.581 351.864 31.127 351.157 31.757L346.768 35.691L346.761 36.993Z" fill="#D3D7E0"/>
    <path d="M388 112V24" stroke="#D3D7E0" stroke-width="2" stroke-linecap="square" stroke-dasharray="6 6"/>
    <path d="M420.58 37.21C422.904 37.21 424.465 35.943 425.06 33.955L423.576 33.556C423.177 34.963 422.176 35.817 420.58 35.817C418.438 35.817 417.346 34.27 417.36 31.96C417.367 29.65 418.438 28.103 420.58 28.103C422.176 28.103 423.177 28.957 423.576 30.364L425.06 29.965C424.465 27.977 422.904 26.71 420.58 26.71C417.556 26.71 415.813 28.845 415.813 31.96C415.813 35.075 417.556 37.21 420.58 37.21ZM426.599 37H429.756C429.938 37 430.54 37 431.009 36.937C433.375 36.636 434.635 34.529 434.635 31.96C434.635 29.391 433.375 27.284 431.009 26.983C430.54 26.92 429.938 26.92 429.756 26.92H426.599V37ZM428.097 35.607V28.313H429.756C430.064 28.313 430.568 28.32 430.904 28.383C432.416 28.663 433.081 30.189 433.081 31.96C433.081 33.689 432.444 35.243 430.904 35.537C430.568 35.6 430.078 35.607 429.756 35.607H428.097ZM436.265 37H437.728V33.381H440.402L442.159 37H443.832L441.928 33.094C443.069 32.597 443.643 31.491 443.643 30.147C443.643 28.516 442.803 27.235 441.116 26.976C440.85 26.934 440.535 26.92 440.339 26.92H436.265V37ZM437.728 31.995V28.299H440.283C440.465 28.299 440.71 28.313 440.92 28.369C441.816 28.579 442.152 29.405 442.152 30.147C442.152 30.889 441.816 31.715 440.92 31.932C440.71 31.981 440.465 31.995 440.283 31.995H437.728ZM445.091 36.993H451.909V35.6H447.352L450.271 32.996C451.363 32.037 451.909 31.407 451.909 30.028C451.909 28.117 450.474 26.71 448.57 26.71C446.561 26.71 445.126 28.047 445.126 30H446.624C446.61 28.985 447.422 28.103 448.542 28.103C449.627 28.103 450.404 28.929 450.404 30.007C450.404 30.581 450.194 31.127 449.487 31.757L445.098 35.691L445.091 36.993Z" fill="#D3D7E0"/>
    <path d="M480 112V24" stroke="#D3D7E0" stroke-width="2" stroke-linecap="square" stroke-dasharray="6 6"/>
    <path d="M514.805 37H516.268V32.695H519.936V31.225H516.268V28.383H520.776V26.92H514.805V37ZM522.038 37H523.501V33.381H526.175L527.932 37H529.605L527.701 33.094C528.842 32.597 529.416 31.491 529.416 30.147C529.416 28.516 528.576 27.235 526.889 26.976C526.623 26.934 526.308 26.92 526.112 26.92H522.038V37ZM523.501 31.995V28.299H526.056C526.238 28.299 526.483 28.313 526.693 28.369C527.589 28.579 527.925 29.405 527.925 30.147C527.925 30.889 527.589 31.715 526.693 31.932C526.483 31.981 526.238 31.995 526.056 31.995H523.501ZM533.964 37.189C535.847 37.189 537.331 35.796 537.331 33.871C537.331 32.233 536.323 30.924 534.692 30.707L537.184 28.313V26.92H531.122V28.313H535.392L532.312 31.036L532.998 32.191C533.285 32.037 533.628 31.939 533.95 31.939C535.07 31.939 535.833 32.751 535.833 33.871C535.833 34.984 535.07 35.789 533.964 35.803C533.138 35.81 532.403 35.341 532.137 34.466L530.723 34.858C531.15 36.293 532.466 37.189 533.964 37.189Z" fill="#D3D7E0"/>
    <path d="M572 112V24" stroke="#D3D7E0" stroke-width="2" stroke-linecap="square" stroke-dasharray="6 6"/>
    <path d="M618.682 37.21C621.006 37.21 622.567 35.943 623.162 33.955L621.678 33.556C621.279 34.963 620.278 35.817 618.682 35.817C616.54 35.817 615.448 34.27 615.462 31.96C615.469 29.65 616.54 28.103 618.682 28.103C620.278 28.103 621.279 28.957 621.678 30.364L623.162 29.965C622.567 27.977 621.006 26.71 618.682 26.71C615.658 26.71 613.915 28.845 613.915 31.96C613.915 35.075 615.658 37.21 618.682 37.21ZM624.702 37H627.859C628.041 37 628.643 37 629.112 36.937C631.478 36.636 632.738 34.529 632.738 31.96C632.738 29.391 631.478 27.284 629.112 26.983C628.643 26.92 628.041 26.92 627.859 26.92H624.702V37ZM626.2 35.607V28.313H627.859C628.167 28.313 628.671 28.32 629.007 28.383C630.519 28.663 631.184 30.189 631.184 31.96C631.184 33.689 630.547 35.243 629.007 35.537C628.671 35.6 628.181 35.607 627.859 35.607H626.2ZM634.368 37H635.831V33.381H638.505L640.262 37H641.935L640.031 33.094C641.172 32.597 641.746 31.491 641.746 30.147C641.746 28.516 640.906 27.235 639.219 26.976C638.953 26.934 638.638 26.92 638.442 26.92H634.368V37ZM635.831 31.995V28.299H638.386C638.568 28.299 638.813 28.313 639.023 28.369C639.919 28.579 640.255 29.405 640.255 30.147C640.255 30.889 639.919 31.715 639.023 31.932C638.813 31.981 638.568 31.995 638.386 31.995H635.831ZM646.294 37.189C648.177 37.189 649.661 35.796 649.661 33.871C649.661 32.233 648.653 30.924 647.022 30.707L649.514 28.313V26.92H643.452V28.313H647.722L644.642 31.036L645.328 32.191C645.615 32.037 645.958 31.939 646.28 31.939C647.4 31.939 648.163 32.751 648.163 33.871C648.163 34.984 647.4 35.789 646.294 35.803C645.468 35.81 644.733 35.341 644.467 34.466L643.053 34.858C643.48 36.293 644.796 37.189 646.294 37.189Z" fill="#D3D7E0"/>
    <path d="M692 112V24" stroke="#D3D7E0" stroke-width="2" stroke-linecap="square" stroke-dasharray="6 6"/>
    <path d="M740.593 37H742.056V32.695H745.724V31.225H742.056V28.383H746.564V26.92H740.593V37ZM747.826 37H749.289V33.381H751.963L753.72 37H755.393L753.489 33.094C754.63 32.597 755.204 31.491 755.204 30.147C755.204 28.516 754.364 27.235 752.677 26.976C752.411 26.934 752.096 26.92 751.9 26.92H747.826V37ZM749.289 31.995V28.299H751.844C752.026 28.299 752.271 28.313 752.481 28.369C753.377 28.579 753.713 29.405 753.713 30.147C753.713 30.889 753.377 31.715 752.481 31.932C752.271 31.981 752.026 31.995 751.844 31.995H749.289ZM761.201 37H762.685V35.243H763.686V33.857H762.685V31.127H761.201V33.857H758.324L761.6 26.92H759.927L756.651 33.857V35.243H761.201V37Z" fill="#D3D7E0"/>
    <path d="M812 112V24" stroke="#D3D7E0" stroke-width="2" stroke-linecap="square" stroke-dasharray="6 6"/>
    <g filter="url(#filter0_i_5934_38100)">
        <path d="M101 80H582.4C582.96 80 583.24 80 583.454 80.109C583.642 80.2049 583.795 80.3578 583.891 80.546C584 80.7599 584 81.0399 584 81.6V130.4C584 130.96 584 131.24 583.891 131.454C583.795 131.642 583.642 131.795 583.454 131.891C583.24 132 582.96 132 582.4 132H101L96 125.5L101 119L96 112L101 106L96 99.5L101 93L96 86.5L101 80Z" fill="#99E099"/>
    </g>
    <path d="M101 80H582.4C582.96 80 583.24 80 583.454 80.109C583.642 80.2049 583.795 80.3578 583.891 80.546C584 80.7599 584 81.0399 584 81.6V130.4C584 130.96 584 131.24 583.891 131.454C583.795 131.642 583.642 131.795 583.454 131.891C583.24 132 582.96 132 582.4 132H101L96 125.5L101 119L96 112L101 106L96 99.5L101 93L96 86.5L101 80Z" stroke="#110529" stroke-width="2" stroke-linecap="round"/>
    <path d="M329.258 114H331.738L336.558 99.6H334.708L330.478 112.11L326.288 99.6H324.438L329.258 114Z" fill="#110529"/>
    <g filter="url(#filter1_i_5934_38100)">
        <rect x="584" y="80" width="30" height="52" rx="1" fill="#CBEB67"/>
    </g>
    <rect x="584" y="80" width="30" height="52" rx="1" stroke="#110529" stroke-width="2" stroke-linecap="round"/>
    <g filter="url(#filter2_i_5934_38100)">
        <rect x="650" y="80" width="30" height="52" rx="1" fill="#FAAAFA"/>
    </g>
    <rect x="650" y="80" width="30" height="52" rx="1" stroke="#110529" stroke-width="2" stroke-linecap="round"/>
    <g filter="url(#filter3_i_5934_38100)">
        <rect x="614" y="80" width="36" height="52" rx="1" fill="#FFCB8F"/>
    </g>
    <rect x="614" y="80" width="36" height="52" rx="1" stroke="#110529" stroke-width="2" stroke-linecap="round"/>
    <path d="M593.447 114H595.247V102.74L602.757 114H604.557V99.6H602.757V110.85L595.247 99.6H593.447V114Z" fill="#110529"/>
    <path d="M659.447 114H661.247V102.74L668.757 114H670.557V99.6H668.757V110.85L661.247 99.6H659.447V114Z" fill="#110529"/>
    <path d="M626.593 114H631.033C631.303 114 632.183 114 632.853 113.91C636.183 113.47 637.913 110.48 637.913 106.8C637.913 103.13 636.183 100.13 632.853 99.69C632.173 99.6 631.313 99.6 631.033 99.6H626.593V114ZM628.423 112.3V101.3H631.033C631.513 101.3 632.233 101.32 632.703 101.41C635.033 101.83 636.023 104.08 636.023 106.8C636.023 109.47 635.063 111.76 632.703 112.19C632.233 112.28 631.533 112.3 631.033 112.3H628.423Z" fill="#110529"/>
    <g filter="url(#filter4_i_5934_38100)">
        <rect x="680" y="80" width="132" height="52" rx="1" fill="#C1ADFF"/>
        <path d="M745.244 114.29C746.694 114.29 747.954 113.7 748.684 112.43C749.214 111.51 749.154 110.72 749.154 109.48V99.6H747.354V109.48C747.354 110.37 747.354 110.99 747.094 111.51C746.704 112.29 745.884 112.6 745.204 112.6C744.134 112.6 743.224 111.83 743.014 110.85L741.244 111.27C741.754 113.11 743.224 114.29 745.244 114.29Z" fill="#110529"/>
        <rect x="680" y="80" width="132" height="52" rx="1" stroke="#110529" stroke-width="2" stroke-linecap="round"/>
    </g>
    <g filter="url(#filter5_i_5934_38100)">
        <path d="M876 80H813.6C813.04 80 812.76 80 812.546 80.109C812.358 80.2049 812.205 80.3578 812.109 80.546C812 80.7599 812 81.0399 812 81.6V130.4C812 130.96 812 131.24 812.109 131.454C812.205 131.642 812.358 131.795 812.546 131.891C812.76 132 813.04 132 813.6 132H876L871 125.5L876 119L871 112L876 106L871 99.5L876 93L871 86.5L876 80Z" fill="#FAFAAA"/>
    </g>
    <path d="M876 80H813.6C813.04 80 812.76 80 812.546 80.109C812.358 80.2049 812.205 80.3578 812.109 80.546C812 80.7599 812 81.0399 812 81.6V130.4C812 130.96 812 131.24 812.109 131.454C812.205 131.642 812.358 131.795 812.546 131.891C812.76 132 813.04 132 813.6 132H876L871 125.5L876 119L871 112L876 106L871 99.5L876 93L871 86.5L876 80Z" stroke="#110529" stroke-width="2" stroke-linecap="round"/>
    <path d="M844.593 114.3C847.923 114.3 850.113 112.47 850.933 109.61L849.123 109.13C848.533 111.27 847.023 112.6 844.593 112.6C841.373 112.6 839.733 110.25 839.753 106.8C839.773 103.35 841.373 101 844.593 101C847.023 101 848.533 102.33 849.123 104.47L850.933 103.99C850.113 101.13 847.923 99.3 844.593 99.3C840.283 99.3 837.873 102.36 837.873 106.8C837.873 111.24 840.283 114.3 844.593 114.3Z" fill="#110529"/>
    <path d="M406 180L405.293 180.707L404.586 180L405.293 179.293L406 180ZM413.293 171.293L414 170.586L415.414 172L414.707 172.707L413.293 171.293ZM414.707 187.293L415.414 188L414 189.414L413.293 188.707L414.707 187.293ZM416 181L406 181L406 179L416 179L416 181ZM405.293 179.293L413.293 171.293L414.707 172.707L406.707 180.707L405.293 179.293ZM406.707 179.293L414.707 187.293L413.293 188.707L405.293 180.707L406.707 179.293Z" fill="#110529"/>
    <path d="M594.5 180H416" stroke="#110529" stroke-width="2"/>
    <rect width="57" height="20" transform="translate(594.5 170)" fill="white"/>
    <path d="M599.933 185.992H607.589V184.632H602.125L605.837 181.296C607.021 180.248 607.589 179.488 607.589 177.976C607.589 175.856 605.973 174.24 603.837 174.24C601.621 174.24 599.989 175.784 599.989 177.952H601.445C601.429 176.696 602.437 175.6 603.813 175.6C605.141 175.6 606.133 176.632 606.133 177.96C606.133 178.688 605.901 179.352 605.053 180.112L599.941 184.712L599.933 185.992ZM612.911 186.24C615.055 186.24 616.871 184.504 616.871 182.376C616.871 180.232 615.247 178.584 613.111 178.584C612.335 178.584 611.559 178.848 610.959 179.328L611.167 175.832H616.071V174.48H609.887L609.535 180.504L610.799 180.984C611.215 180.384 611.935 179.896 612.951 179.896C614.295 179.896 615.439 180.984 615.439 182.376C615.439 183.728 614.351 184.856 612.951 184.856C611.879 184.856 610.839 184.144 610.551 183.008L609.183 183.376C609.647 185.056 611.127 186.24 612.911 186.24ZM622.672 186.24C624.912 186.24 626.56 184.592 626.56 182.352V178.128C626.56 175.888 624.912 174.24 622.672 174.24C620.432 174.24 618.784 175.888 618.784 178.128V182.352C618.784 184.592 620.432 186.24 622.672 186.24ZM620.232 182.432V178.04C620.232 176.688 621.32 175.6 622.672 175.6C624.024 175.6 625.112 176.688 625.112 178.04V182.432C625.112 183.784 624.024 184.872 622.672 184.872C621.32 184.872 620.232 183.784 620.232 182.432ZM632.768 186.24C635.184 186.24 636.64 184.264 636.64 181.672C636.64 179.08 635.176 177.12 632.776 177.12C631.696 177.12 630.84 177.496 630.224 178.144V174.48H628.792V186H630.064V185.024C630.696 185.784 631.6 186.24 632.768 186.24ZM630.064 181.672C630.064 179.76 630.864 178.424 632.552 178.424C634.312 178.424 635.128 179.848 635.128 181.672C635.128 183.512 634.296 184.936 632.592 184.936C630.848 184.936 630.064 183.568 630.064 181.672ZM642.361 186.24C644.777 186.24 646.233 184.264 646.233 181.672C646.233 179.08 644.769 177.12 642.369 177.12C641.193 177.12 640.289 177.568 639.657 178.328V177.36H638.385V189.84H639.817V185.2C640.433 185.856 641.289 186.24 642.361 186.24ZM639.657 181.672C639.657 179.76 640.457 178.424 642.145 178.424C643.905 178.424 644.721 179.848 644.721 181.672C644.721 183.512 643.889 184.936 642.185 184.936C640.441 184.936 639.657 183.568 639.657 181.672Z" fill="#110529"/>
    <path d="M830 180H651.5" stroke="#110529" stroke-width="2"/>
    <path d="M837.12 186H838.544V181.744H841.912L843.976 186H845.608L843.384 181.432C844.688 180.888 845.368 179.632 845.368 178.112C845.368 176.28 844.384 174.832 842.52 174.544C842.224 174.496 841.896 174.48 841.672 174.48H837.12V186ZM838.544 180.392V175.832H841.624C841.824 175.832 842.104 175.848 842.344 175.904C843.448 176.152 843.912 177.152 843.912 178.112C843.912 179.072 843.448 180.072 842.344 180.32C842.104 180.376 841.824 180.392 841.624 180.392H838.544ZM847.05 185.992H854.706V184.632H849.242L852.954 181.296C854.138 180.248 854.706 179.488 854.706 177.976C854.706 175.856 853.09 174.24 850.954 174.24C848.738 174.24 847.106 175.784 847.106 177.952H848.562C848.546 176.696 849.554 175.6 850.93 175.6C852.258 175.6 853.25 176.632 853.25 177.96C853.25 178.688 853.018 179.352 852.17 180.112L847.058 184.712L847.05 185.992Z" fill="#110529"/>
    <rect x="830" y="168" width="32" height="24" rx="1" stroke="#110529" stroke-width="2"/>
    <path d="M104.62 162H106.044V157.744H109.412L111.476 162H113.108L110.884 157.432C112.188 156.888 112.868 155.632 112.868 154.112C112.868 152.28 111.884 150.832 110.02 150.544C109.724 150.496 109.396 150.48 109.172 150.48H104.62V162ZM106.044 156.392V151.832H109.124C109.324 151.832 109.604 151.848 109.844 151.904C110.948 152.152 111.412 153.152 111.412 154.112C111.412 155.072 110.948 156.072 109.844 156.32C109.604 156.376 109.324 156.392 109.124 156.392H106.044ZM116.878 162H118.326V150.48H116.878L114.71 151.776V153.368L116.878 152.056V162Z" fill="#110529"/>
    <rect x="96" y="144" width="32" height="24" rx="1" stroke="#110529" stroke-width="2"/>
    <path d="M317 156H128" stroke="#110529" stroke-width="2"/>
    <rect width="56" height="20" transform="translate(317 146)" fill="white"/>
    <path d="M321.933 161.992H329.589V160.632H324.125L327.837 157.296C329.021 156.248 329.589 155.488 329.589 153.976C329.589 151.856 327.973 150.24 325.837 150.24C323.621 150.24 321.989 151.784 321.989 153.952H323.445C323.429 152.696 324.437 151.6 325.813 151.6C327.141 151.6 328.133 152.632 328.133 153.96C328.133 154.688 327.901 155.352 327.053 156.112L321.941 160.712L321.933 161.992ZM334.911 162.24C337.055 162.24 338.871 160.504 338.871 158.376C338.871 156.232 337.247 154.584 335.111 154.584C334.335 154.584 333.559 154.848 332.959 155.328L333.167 151.832H338.071V150.48H331.887L331.535 156.504L332.799 156.984C333.215 156.384 333.935 155.896 334.951 155.896C336.295 155.896 337.439 156.984 337.439 158.376C337.439 159.728 336.351 160.856 334.951 160.856C333.879 160.856 332.839 160.144 332.551 159.008L331.183 159.376C331.647 161.056 333.127 162.24 334.911 162.24ZM344.672 162.24C346.912 162.24 348.56 160.592 348.56 158.352V154.128C348.56 151.888 346.912 150.24 344.672 150.24C342.432 150.24 340.784 151.888 340.784 154.128V158.352C340.784 160.592 342.432 162.24 344.672 162.24ZM342.232 158.432V154.04C342.232 152.688 343.32 151.6 344.672 151.6C346.024 151.6 347.112 152.688 347.112 154.04V158.432C347.112 159.784 346.024 160.872 344.672 160.872C343.32 160.872 342.232 159.784 342.232 158.432ZM354.768 162.24C357.184 162.24 358.64 160.264 358.64 157.672C358.64 155.08 357.176 153.12 354.776 153.12C353.696 153.12 352.84 153.496 352.224 154.144V150.48H350.792V162H352.064V161.024C352.696 161.784 353.6 162.24 354.768 162.24ZM352.064 157.672C352.064 155.76 352.864 154.424 354.552 154.424C356.312 154.424 357.128 155.848 357.128 157.672C357.128 159.512 356.296 160.936 354.592 160.936C352.848 160.936 352.064 159.568 352.064 157.672ZM364.361 162.24C366.777 162.24 368.233 160.264 368.233 157.672C368.233 155.08 366.769 153.12 364.369 153.12C363.193 153.12 362.289 153.568 361.657 154.328V153.36H360.385V165.84H361.817V161.2C362.433 161.856 363.289 162.24 364.361 162.24ZM361.657 157.672C361.657 155.76 362.457 154.424 364.145 154.424C365.905 154.424 366.721 155.848 366.721 157.672C366.721 159.512 365.889 160.936 364.185 160.936C362.441 160.936 361.657 159.568 361.657 157.672Z" fill="#110529"/>
    <path d="M562 156H373" stroke="#110529" stroke-width="2"/>
    <path d="M572 156L572.707 155.293L573.414 156L572.707 156.707L572 156ZM564.707 164.707L564 165.414L562.586 164L563.293 163.293L564.707 164.707ZM563.293 148.707L562.586 148L564 146.586L564.707 147.293L563.293 148.707ZM562 155L572 155L572 157L562 157L562 155ZM572.707 156.707L564.707 164.707L563.293 163.293L571.293 155.293L572.707 156.707ZM571.293 156.707L563.293 148.707L564.707 147.293L572.707 155.293L571.293 156.707Z" fill="#110529"/>
    <path d="M25.6881 114H27.4681V101.29H32.3781V99.6H20.7781V101.29H25.6881V114ZM39.8903 114.3C43.2203 114.3 45.4103 112.47 46.2303 109.61L44.4203 109.13C43.8303 111.27 42.3203 112.6 39.8903 112.6C36.6703 112.6 35.0303 110.25 35.0503 106.8C35.0703 103.35 36.6703 101 39.8903 101C42.3203 101 43.8303 102.33 44.4203 104.47L46.2303 103.99C45.4103 101.13 43.2203 99.3 39.8903 99.3C35.5803 99.3 33.1703 102.36 33.1703 106.8C33.1703 111.24 35.5803 114.3 39.8903 114.3ZM48.4234 114H50.2034V108.68H54.4134L56.9934 114H59.0334L56.2534 108.29C57.8834 107.61 58.7334 106.04 58.7334 104.14C58.7334 101.85 57.5034 100.04 55.1734 99.68C54.8034 99.62 54.3934 99.6 54.1134 99.6H48.4234V114ZM50.2034 106.99V101.29H54.0534C54.3034 101.29 54.6534 101.31 54.9534 101.38C56.3334 101.69 56.9134 102.94 56.9134 104.14C56.9134 105.34 56.3334 106.59 54.9534 106.9C54.6534 106.97 54.3034 106.99 54.0534 106.99H50.2034ZM65.2298 103.2V118.8H67.0098V113.39C67.7198 113.96 68.7098 114.3 69.9398 114.3C72.9898 114.3 74.8398 112.57 74.8398 109.95C74.8398 107.74 73.4398 106.44 72.0498 106.09C73.0998 105.58 73.6098 104.5 73.6098 103.22C73.6098 100.84 71.8598 99.3 69.3698 99.3C67.5098 99.3 65.9798 100.16 65.4498 101.78C65.2998 102.23 65.2298 102.71 65.2298 103.2ZM67.0498 109.71V103.86C67.0498 103.44 67.0698 102.8 67.2798 102.28C67.6398 101.35 68.5198 100.99 69.4098 100.99C70.7898 100.99 71.7898 101.82 71.7898 103.24C71.7898 104.67 70.7898 105.4 69.4198 105.54V107.14C71.6098 107.18 73.0298 108.1 73.0298 109.87C73.0298 111.52 71.7898 112.61 70.0198 112.61C68.7698 112.61 67.5298 112.04 67.1998 111.01C67.0798 110.64 67.0498 110.1 67.0498 109.71Z" fill="#110529"/>
    <defs>
        <filter id="filter0_i_5934_38100" x="94.7373" y="79" width="490.263" height="54" filterUnits="userSpaceOnUse" color-interpolation-filters="sRGB">
            <feFlood flood-opacity="0" result="BackgroundImageFix"/>
            <feBlend mode="normal" in="SourceGraphic" in2="BackgroundImageFix" result="shape"/>
            <feColorMatrix in="SourceAlpha" type="matrix" values="0 0 0 0 0 0 0 0 0 0 0 0 0 0 0 0 0 0 127 0" result="hardAlpha"/>
            <feOffset dx="-8" dy="-4"/>
            <feComposite in2="hardAlpha" operator="arithmetic" k2="-1" k3="1"/>
            <feColorMatrix type="matrix" values="0 0 0 0 0.0666667 0 0 0 0 0.0196078 0 0 0 0 0.160784 0 0 0 0.16 0"/>
            <feBlend mode="normal" in2="shape" result="effect1_innerShadow_5934_38100"/>
        </filter>
        <filter id="filter1_i_5934_38100" x="583" y="79" width="32" height="54" filterUnits="userSpaceOnUse" color-interpolation-filters="sRGB">
            <feFlood flood-opacity="0" result="BackgroundImageFix"/>
            <feBlend mode="normal" in="SourceGraphic" in2="BackgroundImageFix" result="shape"/>
            <feColorMatrix in="SourceAlpha" type="matrix" values="0 0 0 0 0 0 0 0 0 0 0 0 0 0 0 0 0 0 127 0" result="hardAlpha"/>
            <feOffset dx="-8" dy="-4"/>
            <feComposite in2="hardAlpha" operator="arithmetic" k2="-1" k3="1"/>
            <feColorMatrix type="matrix" values="0 0 0 0 0.0666667 0 0 0 0 0.0196078 0 0 0 0 0.160784 0 0 0 0.16 0"/>
            <feBlend mode="normal" in2="shape" result="effect1_innerShadow_5934_38100"/>
        </filter>
        <filter id="filter2_i_5934_38100" x="649" y="79" width="32" height="54" filterUnits="userSpaceOnUse" color-interpolation-filters="sRGB">
            <feFlood flood-opacity="0" result="BackgroundImageFix"/>
            <feBlend mode="normal" in="SourceGraphic" in2="BackgroundImageFix" result="shape"/>
            <feColorMatrix in="SourceAlpha" type="matrix" values="0 0 0 0 0 0 0 0 0 0 0 0 0 0 0 0 0 0 127 0" result="hardAlpha"/>
            <feOffset dx="-8" dy="-4"/>
            <feComposite in2="hardAlpha" operator="arithmetic" k2="-1" k3="1"/>
            <feColorMatrix type="matrix" values="0 0 0 0 0.0666667 0 0 0 0 0.0196078 0 0 0 0 0.160784 0 0 0 0.16 0"/>
            <feBlend mode="normal" in2="shape" result="effect1_innerShadow_5934_38100"/>
        </filter>
        <filter id="filter3_i_5934_38100" x="613" y="79" width="38" height="54" filterUnits="userSpaceOnUse" color-interpolation-filters="sRGB">
            <feFlood flood-opacity="0" result="BackgroundImageFix"/>
            <feBlend mode="normal" in="SourceGraphic" in2="BackgroundImageFix" result="shape"/>
            <feColorMatrix in="SourceAlpha" type="matrix" values="0 0 0 0 0 0 0 0 0 0 0 0 0 0 0 0 0 0 127 0" result="hardAlpha"/>
            <feOffset dx="-8" dy="-4"/>
            <feComposite in2="hardAlpha" operator="arithmetic" k2="-1" k3="1"/>
            <feColorMatrix type="matrix" values="0 0 0 0 0.0666667 0 0 0 0 0.0196078 0 0 0 0 0.160784 0 0 0 0.16 0"/>
            <feBlend mode="normal" in2="shape" result="effect1_innerShadow_5934_38100"/>
        </filter>
        <filter id="filter4_i_5934_38100" x="679" y="79" width="134" height="54" filterUnits="userSpaceOnUse" color-interpolation-filters="sRGB">
            <feFlood flood-opacity="0" result="BackgroundImageFix"/>
            <feBlend mode="normal" in="SourceGraphic" in2="BackgroundImageFix" result="shape"/>
            <feColorMatrix in="SourceAlpha" type="matrix" values="0 0 0 0 0 0 0 0 0 0 0 0 0 0 0 0 0 0 127 0" result="hardAlpha"/>
            <feOffset dx="-8" dy="-4"/>
            <feComposite in2="hardAlpha" operator="arithmetic" k2="-1" k3="1"/>
            <feColorMatrix type="matrix" values="0 0 0 0 0.0666667 0 0 0 0 0.0196078 0 0 0 0 0.160784 0 0 0 0.16 0"/>
            <feBlend mode="normal" in2="shape" result="effect1_innerShadow_5934_38100"/>
        </filter>
        <filter id="filter5_i_5934_38100" x="811" y="79" width="67.0308" height="54" filterUnits="userSpaceOnUse" color-interpolation-filters="sRGB">
            <feFlood flood-opacity="0" result="BackgroundImageFix"/>
            <feBlend mode="normal" in="SourceGraphic" in2="BackgroundImageFix" result="shape"/>
            <feColorMatrix in="SourceAlpha" type="matrix" values="0 0 0 0 0 0 0 0 0 0 0 0 0 0 0 0 0 0 127 0" result="hardAlpha"/>
            <feOffset dx="-8" dy="-4"/>
            <feComposite in2="hardAlpha" operator="arithmetic" k2="-1" k3="1"/>
            <feColorMatrix type="matrix" values="0 0 0 0 0.0666667 0 0 0 0 0.0196078 0 0 0 0 0.160784 0 0 0 0.16 0"/>
            <feBlend mode="normal" in2="shape" result="effect1_innerShadow_5934_38100"/>
        </filter>
    </defs>
</svg>
