<svg width="960" height="224" viewBox="0 0 960 224" fill="none" xmlns="http://www.w3.org/2000/svg">
<rect width="960" height="224" fill="white"/>
<path d="M385.805 37H387.268V32.695H390.936V31.225H387.268V28.383H391.776V26.92H385.805V37ZM393.038 37H394.501V33.381H397.175L398.932 37H400.605L398.701 33.094C399.842 32.597 400.416 31.491 400.416 30.147C400.416 28.516 399.576 27.235 397.889 26.976C397.623 26.934 397.308 26.92 397.112 26.92H393.038V37ZM394.501 31.995V28.299H397.056C397.238 28.299 397.483 28.313 397.693 28.369C398.589 28.579 398.925 29.405 398.925 30.147C398.925 30.889 398.589 31.715 397.693 31.932C397.483 31.981 397.238 31.995 397.056 31.995H394.501ZM404.964 37.189C406.847 37.189 408.331 35.796 408.331 33.871C408.331 32.233 407.323 30.924 405.692 30.707L408.184 28.313V26.92H402.122V28.313H406.392L403.312 31.036L403.998 32.191C404.285 32.037 404.628 31.939 404.95 31.939C406.07 31.939 406.833 32.751 406.833 33.871C406.833 34.984 406.07 35.789 404.964 35.803C404.138 35.81 403.403 35.341 403.137 34.466L401.723 34.858C402.15 36.293 403.466 37.189 404.964 37.189Z" fill="#D3D7E0"/>
<path d="M529.682 37.21C532.006 37.21 533.567 35.943 534.162 33.955L532.678 33.556C532.279 34.963 531.278 35.817 529.682 35.817C527.54 35.817 526.448 34.27 526.462 31.96C526.469 29.65 527.54 28.103 529.682 28.103C531.278 28.103 532.279 28.957 532.678 30.364L534.162 29.965C533.567 27.977 532.006 26.71 529.682 26.71C526.658 26.71 524.915 28.845 524.915 31.96C524.915 35.075 526.658 37.21 529.682 37.21ZM535.702 37H538.859C539.041 37 539.643 37 540.112 36.937C542.478 36.636 543.738 34.529 543.738 31.96C543.738 29.391 542.478 27.284 540.112 26.983C539.643 26.92 539.041 26.92 538.859 26.92H535.702V37ZM537.2 35.607V28.313H538.859C539.167 28.313 539.671 28.32 540.007 28.383C541.519 28.663 542.184 30.189 542.184 31.96C542.184 33.689 541.547 35.243 540.007 35.537C539.671 35.6 539.181 35.607 538.859 35.607H537.2ZM545.368 37H546.831V33.381H549.505L551.262 37H552.935L551.031 33.094C552.172 32.597 552.746 31.491 552.746 30.147C552.746 28.516 551.906 27.235 550.219 26.976C549.953 26.934 549.638 26.92 549.442 26.92H545.368V37ZM546.831 31.995V28.299H549.386C549.568 28.299 549.813 28.313 550.023 28.369C550.919 28.579 551.255 29.405 551.255 30.147C551.255 30.889 550.919 31.715 550.023 31.932C549.813 31.981 549.568 31.995 549.386 31.995H546.831ZM557.294 37.189C559.177 37.189 560.661 35.796 560.661 33.871C560.661 32.233 559.653 30.924 558.022 30.707L560.514 28.313V26.92H554.452V28.313H558.722L555.642 31.036L556.328 32.191C556.615 32.037 556.958 31.939 557.28 31.939C558.4 31.939 559.163 32.751 559.163 33.871C559.163 34.984 558.4 35.789 557.294 35.803C556.468 35.81 555.733 35.341 555.467 34.466L554.053 34.858C554.48 36.293 555.796 37.189 557.294 37.189Z" fill="#D3D7E0"/>
<path d="M31.11 114H32.89V101.29H37.8V99.6H26.2V101.29H31.11V114ZM45.3122 114.3C48.6422 114.3 50.8322 112.47 51.6522 109.61L49.8422 109.13C49.2522 111.27 47.7422 112.6 45.3122 112.6C42.0922 112.6 40.4522 110.25 40.4722 106.8C40.4922 103.35 42.0922 101 45.3122 101C47.7422 101 49.2522 102.33 49.8422 104.47L51.6522 103.99C50.8322 101.13 48.6422 99.3 45.3122 99.3C41.0022 99.3 38.5922 102.36 38.5922 106.8C38.5922 111.24 41.0022 114.3 45.3122 114.3ZM53.8453 114H55.6253V108.68H59.8353L62.4153 114H64.4553L61.6753 108.29C63.3053 107.61 64.1553 106.04 64.1553 104.14C64.1553 101.85 62.9253 100.04 60.5953 99.68C60.2253 99.62 59.8153 99.6 59.5353 99.6H53.8453V114ZM55.6253 106.99V101.29H59.4753C59.7253 101.29 60.0753 101.31 60.3753 101.38C61.7553 101.69 62.3353 102.94 62.3353 104.14C62.3353 105.34 61.7553 106.59 60.3753 106.9C60.0753 106.97 59.7253 106.99 59.4753 106.99H55.6253ZM70.6517 103.2V118.8H72.4317V113.39C73.1417 113.96 74.1317 114.3 75.3617 114.3C78.4117 114.3 80.2617 112.57 80.2617 109.95C80.2617 107.74 78.8617 106.44 77.4717 106.09C78.5217 105.58 79.0317 104.5 79.0317 103.22C79.0317 100.84 77.2817 99.3 74.7917 99.3C72.9317 99.3 71.4017 100.16 70.8717 101.78C70.7217 102.23 70.6517 102.71 70.6517 103.2ZM72.4717 109.71V103.86C72.4717 103.44 72.4917 102.8 72.7017 102.28C73.0617 101.35 73.9417 100.99 74.8317 100.99C76.2117 100.99 77.2117 101.82 77.2117 103.24C77.2117 104.67 76.2117 105.4 74.8417 105.54V107.14C77.0317 107.18 78.4517 108.1 78.4517 109.87C78.4517 111.52 77.2117 112.61 75.4417 112.61C74.1917 112.61 72.9517 112.04 72.6217 111.01C72.5017 110.64 72.4717 110.1 72.4717 109.71Z" fill="#110529"/>
<path d="M259.4 180H261.18V174.68H265.39L267.97 180H270.01L267.23 174.29C268.86 173.61 269.71 172.04 269.71 170.14C269.71 167.85 268.48 166.04 266.15 165.68C265.78 165.62 265.37 165.6 265.09 165.6H259.4V180ZM261.18 172.99V167.29H265.03C265.28 167.29 265.63 167.31 265.93 167.38C267.31 167.69 267.89 168.94 267.89 170.14C267.89 171.34 267.31 172.59 265.93 172.9C265.63 172.97 265.28 172.99 265.03 172.99H261.18ZM274.723 180H276.533V165.6H274.723L272.013 167.22V169.21L274.723 167.57V180Z" fill="#110529"/>
<path d="M287 164V180H297V188L311 172L297 156V164H287Z" fill="#110529"/>
<path d="M641.062 172H314" stroke="#110529" stroke-width="2" stroke-linecap="square"/>
<path d="M649 172L649.783 171.378L650.277 172L649.783 172.622L649 172ZM643.432 180.622L642.811 181.405L641.244 180.161L641.866 179.378L643.432 180.622ZM641.866 164.622L641.244 163.839L642.811 162.595L643.432 163.378L641.866 164.622ZM641.062 171L649 171L649 173L641.062 173L641.062 171ZM649.783 172.622L643.432 180.622L641.866 179.378L648.217 171.378L649.783 172.622ZM648.217 172.622L641.866 164.622L643.432 163.378L649.783 171.378L648.217 172.622Z" fill="#110529"/>
<rect width="49" height="20" transform="translate(501 162)" fill="white"/>
<path d="M505.769 178V168.056L503.601 169.368V167.776L505.769 166.48H507.217V178H505.769ZM514.149 178.24C513.402 178.24 512.735 178.072 512.149 177.736C511.567 177.395 511.106 176.933 510.765 176.352C510.429 175.765 510.261 175.099 510.261 174.352V170.128C510.261 169.381 510.429 168.715 510.765 168.128C511.106 167.541 511.567 167.08 512.149 166.744C512.735 166.408 513.402 166.24 514.149 166.24C514.895 166.24 515.562 166.408 516.149 166.744C516.735 167.08 517.197 167.541 517.533 168.128C517.869 168.715 518.037 169.381 518.037 170.128V174.352C518.037 175.099 517.869 175.765 517.533 176.352C517.197 176.933 516.735 177.395 516.149 177.736C515.562 178.072 514.895 178.24 514.149 178.24ZM514.149 176.872C514.602 176.872 515.013 176.763 515.381 176.544C515.749 176.325 516.042 176.032 516.261 175.664C516.479 175.291 516.589 174.88 516.589 174.432V170.04C516.589 169.587 516.479 169.176 516.261 168.808C516.042 168.44 515.749 168.147 515.381 167.928C515.013 167.709 514.602 167.6 514.149 167.6C513.701 167.6 513.29 167.709 512.917 167.928C512.549 168.147 512.255 168.44 512.037 168.808C511.818 169.176 511.709 169.587 511.709 170.04V174.432C511.709 174.88 511.818 175.291 512.037 175.664C512.255 176.032 512.549 176.325 512.917 176.544C513.29 176.763 513.701 176.872 514.149 176.872ZM524.164 178.24C523.418 178.24 522.751 178.072 522.164 177.736C521.583 177.395 521.122 176.933 520.78 176.352C520.444 175.765 520.276 175.099 520.276 174.352V170.128C520.276 169.381 520.444 168.715 520.78 168.128C521.122 167.541 521.583 167.08 522.164 166.744C522.751 166.408 523.418 166.24 524.164 166.24C524.911 166.24 525.578 166.408 526.164 166.744C526.751 167.08 527.212 167.541 527.548 168.128C527.884 168.715 528.052 169.381 528.052 170.128V174.352C528.052 175.099 527.884 175.765 527.548 176.352C527.212 176.933 526.751 177.395 526.164 177.736C525.578 178.072 524.911 178.24 524.164 178.24ZM524.164 176.872C524.618 176.872 525.028 176.763 525.396 176.544C525.764 176.325 526.058 176.032 526.276 175.664C526.495 175.291 526.604 174.88 526.604 174.432V170.04C526.604 169.587 526.495 169.176 526.276 168.808C526.058 168.44 525.764 168.147 525.396 167.928C525.028 167.709 524.618 167.6 524.164 167.6C523.716 167.6 523.306 167.709 522.932 167.928C522.564 168.147 522.271 168.44 522.052 168.808C521.834 169.176 521.724 169.587 521.724 170.04V174.432C521.724 174.88 521.834 175.291 522.052 175.664C522.271 176.032 522.564 176.325 522.932 176.544C523.306 176.763 523.716 176.872 524.164 176.872ZM534.26 178.24C533.449 178.24 532.767 178.04 532.212 177.64C531.657 177.235 531.236 176.688 530.948 176C530.665 175.307 530.524 174.531 530.524 173.672C530.524 172.803 530.665 172.024 530.948 171.336C531.236 170.648 531.657 170.107 532.212 169.712C532.772 169.317 533.457 169.12 534.268 169.12C535.068 169.12 535.756 169.32 536.332 169.72C536.913 170.115 537.359 170.656 537.668 171.344C537.977 172.032 538.132 172.808 538.132 173.672C538.132 174.536 537.977 175.312 537.668 176C537.359 176.688 536.913 177.235 536.332 177.64C535.756 178.04 535.065 178.24 534.26 178.24ZM530.284 178V166.48H531.716V171.64H531.556V178H530.284ZM534.084 176.936C534.655 176.936 535.127 176.792 535.5 176.504C535.873 176.216 536.153 175.827 536.34 175.336C536.527 174.84 536.62 174.285 536.62 173.672C536.62 173.064 536.527 172.515 536.34 172.024C536.159 171.533 535.876 171.144 535.492 170.856C535.113 170.568 534.631 170.424 534.044 170.424C533.484 170.424 533.02 170.563 532.652 170.84C532.284 171.112 532.009 171.493 531.828 171.984C531.647 172.469 531.556 173.032 531.556 173.672C531.556 174.301 531.644 174.864 531.82 175.36C532.001 175.851 532.279 176.237 532.652 176.52C533.025 176.797 533.503 176.936 534.084 176.936ZM543.854 178.24C543.043 178.24 542.36 178.04 541.806 177.64C541.251 177.235 540.83 176.688 540.542 176C540.259 175.307 540.118 174.531 540.118 173.672C540.118 172.803 540.259 172.024 540.542 171.336C540.83 170.648 541.251 170.107 541.806 169.712C542.366 169.317 543.051 169.12 543.862 169.12C544.662 169.12 545.35 169.32 545.926 169.72C546.507 170.115 546.952 170.656 547.262 171.344C547.571 172.032 547.726 172.808 547.726 173.672C547.726 174.536 547.571 175.312 547.262 176C546.952 176.688 546.507 177.235 545.926 177.64C545.35 178.04 544.659 178.24 543.854 178.24ZM539.878 181.84V169.36H541.15V175.72H541.31V181.84H539.878ZM543.678 176.936C544.248 176.936 544.72 176.792 545.094 176.504C545.467 176.216 545.747 175.827 545.934 175.336C546.12 174.84 546.214 174.285 546.214 173.672C546.214 173.064 546.12 172.515 545.934 172.024C545.752 171.533 545.47 171.144 545.086 170.856C544.707 170.568 544.224 170.424 543.638 170.424C543.078 170.424 542.614 170.563 542.246 170.84C541.878 171.112 541.603 171.493 541.422 171.984C541.24 172.469 541.15 173.032 541.15 173.672C541.15 174.301 541.238 174.864 541.414 175.36C541.595 175.851 541.872 176.237 542.246 176.52C542.619 176.797 543.096 176.936 543.678 176.936Z" fill="#110529"/>
<path d="M686.26 202H359.199" stroke="#110529" stroke-width="2" stroke-linecap="square"/>
<rect width="49" height="20" transform="translate(546.199 192)" fill="white"/>
<path d="M550.967 208V198.056L548.799 199.368V197.776L550.967 196.48H552.415V208H550.967ZM559.347 208.24C558.601 208.24 557.934 208.072 557.347 207.736C556.766 207.395 556.305 206.933 555.963 206.352C555.627 205.765 555.459 205.099 555.459 204.352V200.128C555.459 199.381 555.627 198.715 555.963 198.128C556.305 197.541 556.766 197.08 557.347 196.744C557.934 196.408 558.601 196.24 559.347 196.24C560.094 196.24 560.761 196.408 561.347 196.744C561.934 197.08 562.395 197.541 562.731 198.128C563.067 198.715 563.235 199.381 563.235 200.128V204.352C563.235 205.099 563.067 205.765 562.731 206.352C562.395 206.933 561.934 207.395 561.347 207.736C560.761 208.072 560.094 208.24 559.347 208.24ZM559.347 206.872C559.801 206.872 560.211 206.763 560.579 206.544C560.947 206.325 561.241 206.032 561.459 205.664C561.678 205.291 561.787 204.88 561.787 204.432V200.04C561.787 199.587 561.678 199.176 561.459 198.808C561.241 198.44 560.947 198.147 560.579 197.928C560.211 197.709 559.801 197.6 559.347 197.6C558.899 197.6 558.489 197.709 558.115 197.928C557.747 198.147 557.454 198.44 557.235 198.808C557.017 199.176 556.907 199.587 556.907 200.04V204.432C556.907 204.88 557.017 205.291 557.235 205.664C557.454 206.032 557.747 206.325 558.115 206.544C558.489 206.763 558.899 206.872 559.347 206.872ZM569.363 208.24C568.616 208.24 567.95 208.072 567.363 207.736C566.782 207.395 566.32 206.933 565.979 206.352C565.643 205.765 565.475 205.099 565.475 204.352V200.128C565.475 199.381 565.643 198.715 565.979 198.128C566.32 197.541 566.782 197.08 567.363 196.744C567.95 196.408 568.616 196.24 569.363 196.24C570.11 196.24 570.776 196.408 571.363 196.744C571.95 197.08 572.411 197.541 572.747 198.128C573.083 198.715 573.251 199.381 573.251 200.128V204.352C573.251 205.099 573.083 205.765 572.747 206.352C572.411 206.933 571.95 207.395 571.363 207.736C570.776 208.072 570.11 208.24 569.363 208.24ZM569.363 206.872C569.816 206.872 570.227 206.763 570.595 206.544C570.963 206.325 571.256 206.032 571.475 205.664C571.694 205.291 571.803 204.88 571.803 204.432V200.04C571.803 199.587 571.694 199.176 571.475 198.808C571.256 198.44 570.963 198.147 570.595 197.928C570.227 197.709 569.816 197.6 569.363 197.6C568.915 197.6 568.504 197.709 568.131 197.928C567.763 198.147 567.47 198.44 567.251 198.808C567.032 199.176 566.923 199.587 566.923 200.04V204.432C566.923 204.88 567.032 205.291 567.251 205.664C567.47 206.032 567.763 206.325 568.131 206.544C568.504 206.763 568.915 206.872 569.363 206.872ZM579.459 208.24C578.648 208.24 577.965 208.04 577.411 207.64C576.856 207.235 576.435 206.688 576.147 206C575.864 205.307 575.723 204.531 575.723 203.672C575.723 202.803 575.864 202.024 576.147 201.336C576.435 200.648 576.856 200.107 577.411 199.712C577.971 199.317 578.656 199.12 579.467 199.12C580.267 199.12 580.955 199.32 581.531 199.72C582.112 200.115 582.557 200.656 582.867 201.344C583.176 202.032 583.331 202.808 583.331 203.672C583.331 204.536 583.176 205.312 582.867 206C582.557 206.688 582.112 207.235 581.531 207.64C580.955 208.04 580.264 208.24 579.459 208.24ZM575.483 208V196.48H576.915V201.64H576.755V208H575.483ZM579.283 206.936C579.853 206.936 580.325 206.792 580.699 206.504C581.072 206.216 581.352 205.827 581.539 205.336C581.725 204.84 581.819 204.285 581.819 203.672C581.819 203.064 581.725 202.515 581.539 202.024C581.357 201.533 581.075 201.144 580.691 200.856C580.312 200.568 579.829 200.424 579.243 200.424C578.683 200.424 578.219 200.563 577.851 200.84C577.483 201.112 577.208 201.493 577.027 201.984C576.845 202.469 576.755 203.032 576.755 203.672C576.755 204.301 576.843 204.864 577.019 205.36C577.2 205.851 577.477 206.237 577.851 206.52C578.224 206.797 578.701 206.936 579.283 206.936ZM589.052 208.24C588.242 208.24 587.559 208.04 587.004 207.64C586.45 207.235 586.028 206.688 585.74 206C585.458 205.307 585.316 204.531 585.316 203.672C585.316 202.803 585.458 202.024 585.74 201.336C586.028 200.648 586.45 200.107 587.004 199.712C587.564 199.317 588.25 199.12 589.06 199.12C589.86 199.12 590.548 199.32 591.124 199.72C591.706 200.115 592.151 200.656 592.46 201.344C592.77 202.032 592.924 202.808 592.924 203.672C592.924 204.536 592.77 205.312 592.46 206C592.151 206.688 591.706 207.235 591.124 207.64C590.548 208.04 589.858 208.24 589.052 208.24ZM585.076 211.84V199.36H586.348V205.72H586.508V211.84H585.076ZM588.876 206.936C589.447 206.936 589.919 206.792 590.292 206.504C590.666 206.216 590.946 205.827 591.132 205.336C591.319 204.84 591.412 204.285 591.412 203.672C591.412 203.064 591.319 202.515 591.132 202.024C590.951 201.533 590.668 201.144 590.284 200.856C589.906 200.568 589.423 200.424 588.836 200.424C588.276 200.424 587.812 200.563 587.444 200.84C587.076 201.112 586.802 201.493 586.62 201.984C586.439 202.469 586.348 203.032 586.348 203.672C586.348 204.301 586.436 204.864 586.612 205.36C586.794 205.851 587.071 206.237 587.444 206.52C587.818 206.797 588.295 206.936 588.876 206.936Z" fill="#110529"/>
<path d="M359 202L358.217 202.622L357.723 202L358.217 201.378L359 202ZM364.568 193.378L365.189 192.595L366.756 193.839L366.134 194.622L364.568 193.378ZM366.134 209.378L366.756 210.161L365.189 211.405L364.568 210.622L366.134 209.378ZM366.938 203L359 203L359 201L366.938 201L366.938 203ZM358.217 201.378L364.568 193.378L366.134 194.622L359.783 202.622L358.217 201.378ZM359.783 201.378L366.134 209.378L364.568 210.622L358.217 202.622L359.783 201.378Z" fill="#110529"/>
<path d="M495 132V12" stroke="#D3D7E0" stroke-width="2" stroke-linecap="square" stroke-dasharray="6 6"/>
<g filter="url(#filter0_i_5862_35751)">
<path d="M280 80H493.4C493.96 80 494.24 80 494.454 80.109C494.642 80.2049 494.795 80.3578 494.891 80.546C495 80.7599 495 81.0399 495 81.6V130.4C495 130.96 495 131.24 494.891 131.454C494.795 131.642 494.642 131.795 494.454 131.891C494.24 132 493.96 132 493.4 132H280L275 125.5L280 119L275 112L280 106L275 99.5L280 93L275 86.5L280 80Z" fill="#99E099"/>
</g>
<path d="M280 80H493.4C493.96 80 494.24 80 494.454 80.109C494.642 80.2049 494.795 80.3578 494.891 80.546C495 80.7599 495 81.0399 495 81.6V130.4C495 130.96 495 131.24 494.891 131.454C494.795 131.642 494.642 131.795 494.454 131.891C494.24 132 493.96 132 493.4 132H280L275 125.5L280 119L275 112L280 106L275 99.5L280 93L275 86.5L280 80Z" stroke="#110529" stroke-width="2" stroke-linecap="round"/>
<path d="M395.209 114H397.792L402.813 99H400.896L396.48 112.021L392.126 99H390.188L395.209 114Z" fill="#110529"/>
<path d="M591 132V12" stroke="#D3D7E0" stroke-width="2" stroke-linecap="square" stroke-dasharray="6 6"/>
<g filter="url(#filter1_i_5862_35751)">
<rect x="495" y="80" width="30" height="52" rx="1" fill="#CBEB67"/>
</g>
<rect x="495" y="80" width="30" height="52" rx="1" stroke="#110529" stroke-width="2" stroke-linecap="round"/>
<g filter="url(#filter2_i_5862_35751)">
<rect x="561" y="80" width="30" height="52" rx="1" fill="#FAAAFA"/>
</g>
<rect x="561" y="80" width="30" height="52" rx="1" stroke="#110529" stroke-width="2" stroke-linecap="round"/>
<g filter="url(#filter3_i_5862_35751)">
<rect x="525" y="80" width="36" height="52" rx="1" fill="#FFCB8F"/>
</g>
<rect x="525" y="80" width="36" height="52" rx="1" stroke="#110529" stroke-width="2" stroke-linecap="round"/>
<path d="M504.447 114V99.6H506.247L513.757 110.85V99.6H515.557V114H513.757L506.247 102.74V114H504.447Z" fill="#110529"/>
<path d="M570.447 114V99.6H572.247L579.757 110.85V99.6H581.557V114H579.757L572.247 102.74V114H570.447Z" fill="#110529"/>
<path d="M537.593 114V99.6H542.033C542.18 99.6 542.437 99.6033 542.803 99.61C543.17 99.6167 543.52 99.6433 543.853 99.69C544.967 99.8367 545.897 100.243 546.643 100.91C547.397 101.57 547.963 102.41 548.343 103.43C548.723 104.45 548.913 105.573 548.913 106.8C548.913 108.027 548.723 109.15 548.343 110.17C547.963 111.19 547.397 112.033 546.643 112.7C545.897 113.36 544.967 113.763 543.853 113.91C543.52 113.95 543.167 113.977 542.793 113.99C542.427 113.997 542.173 114 542.033 114H537.593ZM539.423 112.3H542.033C542.287 112.3 542.57 112.293 542.883 112.28C543.197 112.26 543.47 112.23 543.703 112.19C544.49 112.043 545.127 111.713 545.613 111.2C546.1 110.687 546.457 110.047 546.683 109.28C546.91 108.513 547.023 107.687 547.023 106.8C547.023 105.893 546.907 105.057 546.673 104.29C546.447 103.523 546.09 102.887 545.603 102.38C545.117 101.873 544.483 101.55 543.703 101.41C543.47 101.363 543.193 101.333 542.873 101.32C542.553 101.307 542.273 101.3 542.033 101.3H539.423V112.3Z" fill="#110529"/>
<g filter="url(#filter4_i_5862_35751)">
<path d="M726 132L592.6 132C592.04 132 591.76 132 591.546 131.891C591.358 131.795 591.205 131.642 591.109 131.454C591 131.24 591 130.96 591 130.4V106V81.6C591 81.0399 591 80.7599 591.109 80.546C591.205 80.3578 591.358 80.2049 591.546 80.109C591.76 80 592.04 80 592.6 80L726 80L731 86.5L726 93L731 100L726 106L731 112.5L726 119L731 125.5L726 132Z" fill="#C1ADFF"/>
</g>
<path d="M726 132L592.6 132C592.04 132 591.76 132 591.546 131.891C591.358 131.795 591.205 131.642 591.109 131.454C591 131.24 591 130.96 591 130.4V106V81.6C591 81.0399 591 80.7599 591.109 80.546C591.205 80.3578 591.358 80.2049 591.546 80.109C591.76 80 592.04 80 592.6 80L726 80L731 86.5L726 93L731 100L726 106L731 112.5L726 119L731 125.5L726 132Z" stroke="#110529" stroke-width="2" stroke-linecap="round"/>
<g opacity="0.8">
<path d="M714 210V194H704V186L690 202L704 218V210H714Z" fill="#110529"/>
</g>
<path d="M718.4 210V195.6H724.09C724.23 195.6 724.397 195.607 724.59 195.62C724.783 195.627 724.97 195.647 725.15 195.68C725.93 195.8 726.583 196.067 727.11 196.48C727.643 196.893 728.043 197.417 728.31 198.05C728.577 198.677 728.71 199.373 728.71 200.14C728.71 201.253 728.42 202.22 727.84 203.04C727.26 203.853 726.41 204.363 725.29 204.57L724.61 204.68H720.18V210H718.4ZM726.97 210L724.13 204.14L725.89 203.6L729.01 210H726.97ZM720.18 202.99H724.03C724.157 202.99 724.3 202.983 724.46 202.97C724.627 202.957 724.783 202.933 724.93 202.9C725.39 202.793 725.763 202.6 726.05 202.32C726.343 202.033 726.557 201.7 726.69 201.32C726.823 200.933 726.89 200.54 726.89 200.14C726.89 199.74 726.823 199.35 726.69 198.97C726.557 198.583 726.343 198.247 726.05 197.96C725.763 197.673 725.39 197.48 724.93 197.38C724.783 197.34 724.627 197.317 724.46 197.31C724.3 197.297 724.157 197.29 724.03 197.29H720.18V202.99ZM730.813 209.99L730.823 208.39L737.213 202.64C737.746 202.16 738.103 201.707 738.283 201.28C738.469 200.847 738.563 200.403 738.563 199.95C738.563 199.397 738.436 198.897 738.183 198.45C737.929 198.003 737.583 197.65 737.143 197.39C736.709 197.13 736.216 197 735.663 197C735.089 197 734.579 197.137 734.133 197.41C733.686 197.677 733.333 198.033 733.073 198.48C732.819 198.927 732.696 199.413 732.703 199.94H730.883C730.883 199.033 731.093 198.233 731.513 197.54C731.933 196.84 732.503 196.293 733.223 195.9C733.949 195.5 734.773 195.3 735.692 195.3C736.586 195.3 737.386 195.507 738.093 195.92C738.799 196.327 739.356 196.883 739.763 197.59C740.176 198.29 740.383 199.083 740.383 199.97C740.383 200.597 740.303 201.14 740.142 201.6C739.989 202.06 739.749 202.487 739.423 202.88C739.096 203.267 738.686 203.68 738.193 204.12L732.883 208.89L732.653 208.29H740.383V209.99H730.813Z" fill="#110529"/>
<path d="M664.272 99V109.292C664.272 110.604 664.272 111.312 663.71 112.312C662.939 113.604 661.751 114.312 660.126 114.312C659.356 114.312 658.606 114.146 657.96 113.729C657.001 113.187 656.314 112.208 656.022 111.146L657.876 110.708C657.981 111.292 658.356 111.812 658.856 112.146C659.21 112.396 659.668 112.542 660.106 112.542C660.897 112.542 661.731 112.125 662.085 111.354C662.356 110.792 662.356 110.375 662.356 109.292V99H664.272Z" fill="#110529"/>
<defs>
<filter id="filter0_i_5862_35751" x="273.738" y="79" width="222.262" height="54" filterUnits="userSpaceOnUse" color-interpolation-filters="sRGB">
<feFlood flood-opacity="0" result="BackgroundImageFix"/>
<feBlend mode="normal" in="SourceGraphic" in2="BackgroundImageFix" result="shape"/>
<feColorMatrix in="SourceAlpha" type="matrix" values="0 0 0 0 0 0 0 0 0 0 0 0 0 0 0 0 0 0 127 0" result="hardAlpha"/>
<feOffset dx="-8" dy="-4"/>
<feComposite in2="hardAlpha" operator="arithmetic" k2="-1" k3="1"/>
<feColorMatrix type="matrix" values="0 0 0 0 0.0666667 0 0 0 0 0.0196078 0 0 0 0 0.160784 0 0 0 0.16 0"/>
<feBlend mode="normal" in2="shape" result="effect1_innerShadow_5862_35751"/>
</filter>
<filter id="filter1_i_5862_35751" x="494" y="79" width="32" height="54" filterUnits="userSpaceOnUse" color-interpolation-filters="sRGB">
<feFlood flood-opacity="0" result="BackgroundImageFix"/>
<feBlend mode="normal" in="SourceGraphic" in2="BackgroundImageFix" result="shape"/>
<feColorMatrix in="SourceAlpha" type="matrix" values="0 0 0 0 0 0 0 0 0 0 0 0 0 0 0 0 0 0 127 0" result="hardAlpha"/>
<feOffset dx="-8" dy="-4"/>
<feComposite in2="hardAlpha" operator="arithmetic" k2="-1" k3="1"/>
<feColorMatrix type="matrix" values="0 0 0 0 0.0666667 0 0 0 0 0.0196078 0 0 0 0 0.160784 0 0 0 0.16 0"/>
<feBlend mode="normal" in2="shape" result="effect1_innerShadow_5862_35751"/>
</filter>
<filter id="filter2_i_5862_35751" x="560" y="79" width="32" height="54" filterUnits="userSpaceOnUse" color-interpolation-filters="sRGB">
<feFlood flood-opacity="0" result="BackgroundImageFix"/>
<feBlend mode="normal" in="SourceGraphic" in2="BackgroundImageFix" result="shape"/>
<feColorMatrix in="SourceAlpha" type="matrix" values="0 0 0 0 0 0 0 0 0 0 0 0 0 0 0 0 0 0 127 0" result="hardAlpha"/>
<feOffset dx="-8" dy="-4"/>
<feComposite in2="hardAlpha" operator="arithmetic" k2="-1" k3="1"/>
<feColorMatrix type="matrix" values="0 0 0 0 0.0666667 0 0 0 0 0.0196078 0 0 0 0 0.160784 0 0 0 0.16 0"/>
<feBlend mode="normal" in2="shape" result="effect1_innerShadow_5862_35751"/>
</filter>
<filter id="filter3_i_5862_35751" x="524" y="79" width="38" height="54" filterUnits="userSpaceOnUse" color-interpolation-filters="sRGB">
<feFlood flood-opacity="0" result="BackgroundImageFix"/>
<feBlend mode="normal" in="SourceGraphic" in2="BackgroundImageFix" result="shape"/>
<feColorMatrix in="SourceAlpha" type="matrix" values="0 0 0 0 0 0 0 0 0 0 0 0 0 0 0 0 0 0 127 0" result="hardAlpha"/>
<feOffset dx="-8" dy="-4"/>
<feComposite in2="hardAlpha" operator="arithmetic" k2="-1" k3="1"/>
<feColorMatrix type="matrix" values="0 0 0 0 0.0666667 0 0 0 0 0.0196078 0 0 0 0 0.160784 0 0 0 0.16 0"/>
<feBlend mode="normal" in2="shape" result="effect1_innerShadow_5862_35751"/>
</filter>
<filter id="filter4_i_5862_35751" x="590" y="79" width="142.262" height="54" filterUnits="userSpaceOnUse" color-interpolation-filters="sRGB">
<feFlood flood-opacity="0" result="BackgroundImageFix"/>
<feBlend mode="normal" in="SourceGraphic" in2="BackgroundImageFix" result="shape"/>
<feColorMatrix in="SourceAlpha" type="matrix" values="0 0 0 0 0 0 0 0 0 0 0 0 0 0 0 0 0 0 127 0" result="hardAlpha"/>
<feOffset dx="-8" dy="-4"/>
<feComposite in2="hardAlpha" operator="arithmetic" k2="-1" k3="1"/>
<feColorMatrix type="matrix" values="0 0 0 0 0.0666667 0 0 0 0 0.0196078 0 0 0 0 0.160784 0 0 0 0.16 0"/>
<feBlend mode="normal" in2="shape" result="effect1_innerShadow_5862_35751"/>
</filter>
</defs>
</svg>
