<svg width="960" height="185" viewBox="0 0 960 185" fill="none" xmlns="http://www.w3.org/2000/svg">
    <rect width="960" height="185" fill="white"/>
    <path d="M621 93L621.707 93.7071L622.414 93L621.707 92.2929L621 93ZM613.707 84.2929L613 83.5858L611.586 85L612.293 85.7071L613.707 84.2929ZM612.293 100.293L611.586 101L613 102.414L613.707 101.707L612.293 100.293ZM590 94H621V92H590V94ZM621.707 92.2929L613.707 84.2929L612.293 85.7071L620.293 93.7071L621.707 92.2929ZM620.293 92.2929L612.293 100.293L613.707 101.707L621.707 93.7071L620.293 92.2929Z" fill="#110529"/>
    <rect x="138" y="51" width="200" height="84" rx="12" fill="url(#paint0_linear_6214_37726)"/>
    <path fill-rule="evenodd" clip-rule="evenodd" d="M143.148 132.852C144.273 134.468 145.783 135.791 147.552 136.692C150.119 138 153.479 138 160.2 138H321.8C328.521 138 331.881 138 334.448 136.692C336.706 135.542 338.542 133.706 339.692 131.448C341 128.881 341 125.521 341 118.8V73.2C341 66.4793 341 63.119 339.692 60.5521C338.791 58.7827 337.468 57.2726 335.852 56.1483C336.162 56.5947 336.443 57.0635 336.692 57.5521C338 60.119 338 63.4793 338 70.2V115.8C338 122.521 338 125.881 336.692 128.448C335.542 130.706 333.706 132.542 331.448 133.692C328.881 135 325.521 135 318.8 135H157.2C150.479 135 147.119 135 144.552 133.692C144.064 133.443 143.595 133.162 143.148 132.852Z" fill="#110529"/>
    <path d="M207.404 100V97.648H209.756V100H207.404ZM214.725 100V86.332C214.725 85.996 214.741 85.656 214.773 85.312C214.805 84.96 214.877 84.62 214.989 84.292C215.101 83.956 215.285 83.648 215.541 83.368C215.837 83.04 216.161 82.808 216.513 82.672C216.865 82.528 217.221 82.44 217.581 82.408C217.949 82.376 218.297 82.36 218.625 82.36H220.269V84.136H218.745C218.113 84.136 217.641 84.292 217.329 84.604C217.017 84.908 216.861 85.372 216.861 85.996V100H214.725ZM212.529 88.804V87.04H220.269V88.804H212.529ZM225.516 100.36C224.548 100.36 223.736 100.184 223.08 99.832C222.432 99.472 221.94 99 221.604 98.416C221.276 97.832 221.112 97.192 221.112 96.496C221.112 95.816 221.24 95.228 221.496 94.732C221.76 94.228 222.128 93.812 222.6 93.484C223.072 93.148 223.636 92.884 224.292 92.692C224.908 92.524 225.596 92.38 226.356 92.26C227.124 92.132 227.9 92.016 228.684 91.912C229.468 91.808 230.2 91.708 230.88 91.612L230.112 92.056C230.136 90.904 229.904 90.052 229.416 89.5C228.936 88.948 228.104 88.672 226.92 88.672C226.136 88.672 225.448 88.852 224.856 89.212C224.272 89.564 223.86 90.14 223.62 90.94L221.592 90.328C221.904 89.192 222.508 88.3 223.404 87.652C224.3 87.004 225.48 86.68 226.944 86.68C228.12 86.68 229.128 86.892 229.968 87.316C230.816 87.732 231.424 88.364 231.792 89.212C231.976 89.612 232.092 90.048 232.14 90.52C232.188 90.984 232.212 91.472 232.212 91.984V100H230.316V96.892L230.76 97.18C230.272 98.228 229.588 99.02 228.708 99.556C227.836 100.092 226.772 100.36 225.516 100.36ZM225.84 98.572C226.608 98.572 227.272 98.436 227.832 98.164C228.4 97.884 228.856 97.52 229.2 97.072C229.544 96.616 229.768 96.12 229.872 95.584C229.992 95.184 230.056 94.74 230.064 94.252C230.08 93.756 230.088 93.376 230.088 93.112L230.832 93.436C230.136 93.532 229.452 93.624 228.78 93.712C228.108 93.8 227.472 93.896 226.872 94C226.272 94.096 225.732 94.212 225.252 94.348C224.9 94.46 224.568 94.604 224.256 94.78C223.952 94.956 223.704 95.184 223.512 95.464C223.328 95.736 223.236 96.076 223.236 96.484C223.236 96.836 223.324 97.172 223.5 97.492C223.684 97.812 223.964 98.072 224.34 98.272C224.724 98.472 225.224 98.572 225.84 98.572ZM240.228 100.348C238.684 100.348 237.416 100.012 236.424 99.34C235.44 98.66 234.836 97.712 234.612 96.496L236.796 96.148C236.972 96.852 237.376 97.412 238.008 97.828C238.64 98.236 239.424 98.44 240.36 98.44C241.248 98.44 241.944 98.256 242.448 97.888C242.952 97.52 243.204 97.02 243.204 96.388C243.204 96.02 243.12 95.724 242.952 95.5C242.784 95.268 242.436 95.052 241.908 94.852C241.388 94.652 240.6 94.412 239.544 94.132C238.4 93.828 237.5 93.512 236.844 93.184C236.188 92.856 235.72 92.476 235.44 92.044C235.16 91.612 235.02 91.088 235.02 90.472C235.02 89.712 235.228 89.048 235.644 88.48C236.06 87.904 236.64 87.46 237.384 87.148C238.136 86.836 239.008 86.68 240 86.68C240.984 86.68 241.864 86.836 242.64 87.148C243.416 87.46 244.04 87.904 244.512 88.48C244.992 89.048 245.276 89.712 245.364 90.472L243.18 90.868C243.076 90.172 242.74 89.624 242.172 89.224C241.612 88.824 240.888 88.612 240 88.588C239.16 88.556 238.476 88.704 237.948 89.032C237.428 89.36 237.168 89.804 237.168 90.364C237.168 90.676 237.264 90.944 237.456 91.168C237.656 91.392 238.02 91.604 238.548 91.804C239.084 92.004 239.86 92.232 240.876 92.488C242.02 92.776 242.92 93.092 243.576 93.436C244.24 93.772 244.712 94.172 244.992 94.636C245.272 95.092 245.412 95.656 245.412 96.328C245.412 97.576 244.952 98.56 244.032 99.28C243.112 99.992 241.844 100.348 240.228 100.348ZM255.295 100C254.527 100.152 253.767 100.212 253.015 100.18C252.271 100.156 251.607 100.008 251.023 99.736C250.439 99.456 249.995 99.024 249.691 98.44C249.435 97.928 249.295 97.412 249.271 96.892C249.255 96.364 249.247 95.768 249.247 95.104V83.44H251.383V95.008C251.383 95.536 251.387 95.988 251.395 96.364C251.411 96.74 251.495 97.064 251.647 97.336C251.935 97.848 252.391 98.148 253.015 98.236C253.647 98.324 254.407 98.3 255.295 98.164V100ZM246.619 88.804V87.04H255.295V88.804H246.619ZM263.014 100.36C261.806 100.36 260.77 100.06 259.906 99.46C259.042 98.852 258.374 98.032 257.902 97C257.438 95.968 257.206 94.804 257.206 93.508C257.206 92.212 257.438 91.048 257.902 90.016C258.374 88.984 259.042 88.172 259.906 87.58C260.77 86.98 261.802 86.68 263.002 86.68C264.226 86.68 265.254 86.976 266.086 87.568C266.918 88.16 267.546 88.972 267.97 90.004C268.402 91.036 268.618 92.204 268.618 93.508C268.618 94.796 268.402 95.96 267.97 97C267.546 98.032 266.918 98.852 266.086 99.46C265.254 100.06 264.23 100.36 263.014 100.36ZM263.278 98.404C264.15 98.404 264.866 98.196 265.426 97.78C265.986 97.356 266.398 96.776 266.662 96.04C266.934 95.296 267.07 94.452 267.07 93.508C267.07 92.548 266.934 91.704 266.662 90.976C266.398 90.24 265.99 89.668 265.438 89.26C264.886 88.844 264.186 88.636 263.338 88.636C262.458 88.636 261.73 88.852 261.154 89.284C260.586 89.716 260.162 90.3 259.882 91.036C259.61 91.772 259.474 92.596 259.474 93.508C259.474 94.428 259.614 95.26 259.894 96.004C260.174 96.74 260.594 97.324 261.154 97.756C261.722 98.188 262.43 98.404 263.278 98.404ZM266.83 105.76V96.58H267.07V87.04H268.978V105.76H266.83Z" fill="#110529"/>
    <rect x="138" y="51" width="200" height="84" rx="12" stroke="#110529" stroke-width="2"/>
    <rect x="622" y="51" width="200" height="84" rx="12" fill="url(#paint1_linear_6214_37726)"/>
    <path fill-rule="evenodd" clip-rule="evenodd" d="M627.148 132.852C628.273 134.468 629.783 135.791 631.552 136.692C634.119 138 637.479 138 644.2 138H805.8C812.521 138 815.881 138 818.448 136.692C820.706 135.542 822.542 133.706 823.692 131.448C825 128.881 825 125.521 825 118.8V73.2C825 66.4793 825 63.119 823.692 60.5521C822.791 58.7827 821.468 57.2726 819.852 56.1483C820.162 56.5947 820.443 57.0635 820.692 57.5521C822 60.119 822 63.4793 822 70.2V115.8C822 122.521 822 125.881 820.692 128.448C819.542 130.706 817.706 132.542 815.448 133.692C812.881 135 809.521 135 802.8 135H641.2C634.479 135 631.119 135 628.552 133.692C628.064 133.443 627.595 133.162 627.148 132.852Z" fill="#110529"/>
    <path d="M666.128 100.36C664.816 100.36 663.7 100.068 662.78 99.484C661.868 98.892 661.172 98.08 660.692 97.048C660.212 96.016 659.964 94.84 659.948 93.52C659.964 92.168 660.216 90.98 660.704 89.956C661.2 88.924 661.908 88.12 662.828 87.544C663.748 86.968 664.856 86.68 666.152 86.68C667.52 86.68 668.696 87.016 669.68 87.688C670.672 88.36 671.336 89.28 671.672 90.448L669.56 91.084C669.288 90.332 668.844 89.748 668.228 89.332C667.62 88.916 666.92 88.708 666.128 88.708C665.24 88.708 664.508 88.916 663.932 89.332C663.356 89.74 662.928 90.308 662.648 91.036C662.368 91.756 662.224 92.584 662.216 93.52C662.232 94.96 662.564 96.124 663.212 97.012C663.868 97.892 664.84 98.332 666.128 98.332C666.976 98.332 667.68 98.14 668.24 97.756C668.8 97.364 669.224 96.8 669.512 96.064L671.672 96.628C671.224 97.836 670.524 98.76 669.572 99.4C668.62 100.04 667.472 100.36 666.128 100.36ZM674.01 100V82.36H676.146V100H674.01ZM685.266 100.36C683.978 100.36 682.866 100.068 681.93 99.484C681.002 98.9 680.286 98.092 679.782 97.06C679.278 96.028 679.026 94.844 679.026 93.508C679.026 92.148 679.282 90.956 679.794 89.932C680.306 88.908 681.03 88.112 681.966 87.544C682.902 86.968 684.002 86.68 685.266 86.68C686.562 86.68 687.678 86.972 688.614 87.556C689.55 88.132 690.266 88.936 690.762 89.968C691.266 90.992 691.518 92.172 691.518 93.508C691.518 94.86 691.266 96.052 690.762 97.084C690.258 98.108 689.538 98.912 688.602 99.496C687.666 100.072 686.554 100.36 685.266 100.36ZM685.266 98.332C686.61 98.332 687.61 97.884 688.266 96.988C688.922 96.092 689.25 94.932 689.25 93.508C689.25 92.044 688.918 90.88 688.254 90.016C687.59 89.144 686.594 88.708 685.266 88.708C684.362 88.708 683.618 88.912 683.034 89.32C682.45 89.728 682.014 90.292 681.726 91.012C681.438 91.732 681.294 92.564 681.294 93.508C681.294 94.964 681.63 96.132 682.302 97.012C682.974 97.892 683.962 98.332 685.266 98.332ZM703.388 100V93.508C703.388 92.892 703.332 92.3 703.22 91.732C703.116 91.164 702.928 90.656 702.656 90.208C702.392 89.752 702.032 89.392 701.576 89.128C701.128 88.864 700.56 88.732 699.872 88.732C699.336 88.732 698.848 88.824 698.408 89.008C697.976 89.184 697.604 89.456 697.292 89.824C696.98 90.192 696.736 90.656 696.56 91.216C696.392 91.768 696.308 92.42 696.308 93.172L694.904 92.74C694.904 91.484 695.128 90.408 695.576 89.512C696.032 88.608 696.668 87.916 697.484 87.436C698.308 86.948 699.276 86.704 700.388 86.704C701.228 86.704 701.944 86.836 702.536 87.1C703.128 87.364 703.62 87.716 704.012 88.156C704.404 88.588 704.712 89.076 704.936 89.62C705.16 90.156 705.316 90.704 705.404 91.264C705.5 91.816 705.548 92.34 705.548 92.836V100H703.388ZM694.148 100V87.04H696.068V90.508H696.308V100H694.148ZM714.071 100.36C712.783 100.36 711.671 100.068 710.735 99.484C709.807 98.9 709.091 98.092 708.587 97.06C708.083 96.028 707.831 94.844 707.831 93.508C707.831 92.148 708.087 90.956 708.599 89.932C709.111 88.908 709.835 88.112 710.771 87.544C711.707 86.968 712.807 86.68 714.071 86.68C715.367 86.68 716.483 86.972 717.419 87.556C718.355 88.132 719.071 88.936 719.567 89.968C720.071 90.992 720.323 92.172 720.323 93.508C720.323 94.86 720.071 96.052 719.567 97.084C719.063 98.108 718.343 98.912 717.407 99.496C716.471 100.072 715.359 100.36 714.071 100.36ZM714.071 98.332C715.415 98.332 716.415 97.884 717.071 96.988C717.727 96.092 718.055 94.932 718.055 93.508C718.055 92.044 717.723 90.88 717.059 90.016C716.395 89.144 715.399 88.708 714.071 88.708C713.167 88.708 712.423 88.912 711.839 89.32C711.255 89.728 710.819 90.292 710.531 91.012C710.243 91.732 710.099 92.564 710.099 93.508C710.099 94.964 710.435 96.132 711.107 97.012C711.779 97.892 712.767 98.332 714.071 98.332ZM730.201 100C729.433 100.152 728.673 100.212 727.921 100.18C727.177 100.156 726.513 100.008 725.929 99.736C725.345 99.456 724.901 99.024 724.597 98.44C724.341 97.928 724.201 97.412 724.177 96.892C724.161 96.364 724.153 95.768 724.153 95.104V83.44H726.289V95.008C726.289 95.536 726.293 95.988 726.301 96.364C726.317 96.74 726.401 97.064 726.553 97.336C726.841 97.848 727.297 98.148 727.921 98.236C728.553 98.324 729.313 98.3 730.201 98.164V100ZM721.525 88.804V87.04H730.201V88.804H721.525ZM734.281 105.76L736.789 98.944L736.825 100.96L731.161 87.04H733.405L737.845 98.236H737.077L741.241 87.04H743.413L736.357 105.76H734.281ZM751.347 100.36C750.131 100.36 749.107 100.06 748.275 99.46C747.443 98.852 746.811 98.032 746.379 97C745.955 95.96 745.743 94.796 745.743 93.508C745.743 92.204 745.955 91.036 746.379 90.004C746.811 88.972 747.443 88.16 748.275 87.568C749.115 86.976 750.143 86.68 751.359 86.68C752.559 86.68 753.591 86.98 754.455 87.58C755.327 88.172 755.995 88.984 756.459 90.016C756.923 91.048 757.155 92.212 757.155 93.508C757.155 94.804 756.923 95.968 756.459 97C755.995 98.032 755.327 98.852 754.455 99.46C753.591 100.06 752.555 100.36 751.347 100.36ZM745.383 105.76V87.04H747.291V96.58H747.531V105.76H745.383ZM751.083 98.404C751.939 98.404 752.647 98.188 753.207 97.756C753.767 97.324 754.187 96.74 754.467 96.004C754.747 95.26 754.887 94.428 754.887 93.508C754.887 92.596 754.747 91.772 754.467 91.036C754.195 90.3 753.771 89.716 753.195 89.284C752.627 88.852 751.903 88.636 751.023 88.636C750.183 88.636 749.487 88.844 748.935 89.26C748.383 89.668 747.971 90.24 747.699 90.976C747.427 91.704 747.291 92.548 747.291 93.508C747.291 94.452 747.423 95.296 747.687 96.04C747.959 96.776 748.375 97.356 748.935 97.78C749.495 98.196 750.211 98.404 751.083 98.404ZM765.401 100.36C764.129 100.36 763.017 100.08 762.065 99.52C761.121 98.952 760.385 98.164 759.857 97.156C759.329 96.14 759.065 94.956 759.065 93.604C759.065 92.188 759.325 90.964 759.845 89.932C760.365 88.892 761.089 88.092 762.017 87.532C762.953 86.964 764.049 86.68 765.305 86.68C766.609 86.68 767.717 86.98 768.629 87.58C769.549 88.18 770.237 89.036 770.693 90.148C771.157 91.26 771.357 92.584 771.293 94.12H769.133V93.352C769.109 91.76 768.785 90.572 768.161 89.788C767.537 88.996 766.609 88.6 765.377 88.6C764.057 88.6 763.053 89.024 762.365 89.872C761.677 90.72 761.333 91.936 761.333 93.52C761.333 95.048 761.677 96.232 762.365 97.072C763.053 97.912 764.033 98.332 765.305 98.332C766.161 98.332 766.905 98.136 767.537 97.744C768.169 97.352 768.665 96.788 769.025 96.052L771.077 96.76C770.573 97.904 769.813 98.792 768.797 99.424C767.789 100.048 766.657 100.36 765.401 100.36ZM760.613 94.12V92.404H770.189V94.12H760.613ZM778.861 100.348C777.317 100.348 776.049 100.012 775.057 99.34C774.073 98.66 773.469 97.712 773.245 96.496L775.429 96.148C775.605 96.852 776.009 97.412 776.641 97.828C777.273 98.236 778.057 98.44 778.993 98.44C779.881 98.44 780.577 98.256 781.081 97.888C781.585 97.52 781.837 97.02 781.837 96.388C781.837 96.02 781.753 95.724 781.585 95.5C781.417 95.268 781.069 95.052 780.541 94.852C780.021 94.652 779.233 94.412 778.177 94.132C777.033 93.828 776.133 93.512 775.477 93.184C774.821 92.856 774.353 92.476 774.073 92.044C773.793 91.612 773.653 91.088 773.653 90.472C773.653 89.712 773.861 89.048 774.277 88.48C774.693 87.904 775.273 87.46 776.017 87.148C776.769 86.836 777.641 86.68 778.633 86.68C779.617 86.68 780.497 86.836 781.273 87.148C782.049 87.46 782.673 87.904 783.145 88.48C783.625 89.048 783.909 89.712 783.997 90.472L781.813 90.868C781.709 90.172 781.373 89.624 780.805 89.224C780.245 88.824 779.521 88.612 778.633 88.588C777.793 88.556 777.109 88.704 776.581 89.032C776.061 89.36 775.801 89.804 775.801 90.364C775.801 90.676 775.897 90.944 776.089 91.168C776.289 91.392 776.653 91.604 777.181 91.804C777.717 92.004 778.493 92.232 779.509 92.488C780.653 92.776 781.553 93.092 782.209 93.436C782.873 93.772 783.345 94.172 783.625 94.636C783.905 95.092 784.045 95.656 784.045 96.328C784.045 97.576 783.585 98.56 782.665 99.28C781.745 99.992 780.477 100.348 778.861 100.348Z" fill="#110529"/>
    <rect x="622" y="51" width="200" height="84" rx="12" stroke="#110529" stroke-width="2"/>
    <path d="M590 93L403.921 93L340 93" stroke="#110529" stroke-width="2"/>
    <defs>
        <linearGradient id="paint0_linear_6214_37726" x1="149.25" y1="51" x2="149.25" y2="135" gradientUnits="userSpaceOnUse">
            <stop stop-color="#A1E69C"/>
            <stop offset="1" stop-color="#D0F5B0"/>
        </linearGradient>
        <linearGradient id="paint1_linear_6214_37726" x1="633.25" y1="51" x2="633.25" y2="135" gradientUnits="userSpaceOnUse">
            <stop stop-color="#A1E69C"/>
            <stop offset="1" stop-color="#D0F5B0"/>
        </linearGradient>
    </defs>
</svg>
