<svg width="960" height="380" viewBox="0 0 960 380" fill="none" xmlns="http://www.w3.org/2000/svg">
    <rect width="960" height="380" fill="white"/>
    <path d="M356 308V24" stroke="#D3D7E0" stroke-width="2" stroke-linecap="square" stroke-dasharray="6 6"/>
    <path d="M546 308V24" stroke="#D3D7E0" stroke-width="2" stroke-linecap="square" stroke-dasharray="6 6"/>
    <path d="M451 271L450.293 271.707L451 272.414L451.707 271.707L451 271ZM459.707 263.707L460.414 263L459 261.586L458.293 262.293L459.707 263.707ZM443.707 262.293L443 261.586L441.586 263L442.293 263.707L443.707 262.293ZM450 240L450 271L452 271L452 240L450 240ZM451.707 271.707L459.707 263.707L458.293 262.293L450.293 270.293L451.707 271.707ZM451.707 270.293L443.707 262.293L442.293 263.707L450.293 271.707L451.707 270.293Z" fill="#110529"/>
    <path d="M260.4 122H262.18V116.68H266.39L268.97 122H271.01L268.23 116.29C269.86 115.61 270.71 114.04 270.71 112.14C270.71 109.85 269.48 108.04 267.15 107.68C266.78 107.62 266.37 107.6 266.09 107.6H260.4V122ZM262.18 114.99V109.29H266.03C266.28 109.29 266.63 109.31 266.93 109.38C268.31 109.69 268.89 110.94 268.89 112.14C268.89 113.34 268.31 114.59 266.93 114.9C266.63 114.97 266.28 114.99 266.03 114.99H262.18ZM275.723 122H277.533V107.6H275.723L273.013 109.22V111.21L275.723 109.57V122Z" fill="#110529"/>
    <path d="M40.4 190H42.18V184.68H46.39L48.97 190H51.01L48.23 184.29C49.86 183.61 50.71 182.04 50.71 180.14C50.71 177.85 49.48 176.04 47.15 175.68C46.78 175.62 46.37 175.6 46.09 175.6H40.4V190ZM42.18 182.99V177.29H46.03C46.28 177.29 46.63 177.31 46.93 177.38C48.31 177.69 48.89 178.94 48.89 180.14C48.89 181.34 48.31 182.59 46.93 182.9C46.63 182.97 46.28 182.99 46.03 182.99H42.18ZM55.7225 190H57.5325V175.6H55.7225L53.0125 177.22V179.21L55.7225 177.57V190Z" fill="#110529"/>
    <path d="M891.4 122H893.18V116.68H897.39L899.97 122H902.01L899.23 116.29C900.86 115.61 901.71 114.04 901.71 112.14C901.71 109.85 900.48 108.04 898.15 107.68C897.78 107.62 897.37 107.6 897.09 107.6H891.4V122ZM893.18 114.99V109.29H897.03C897.28 109.29 897.63 109.31 897.93 109.38C899.31 109.69 899.89 110.94 899.89 112.14C899.89 113.34 899.31 114.59 897.93 114.9C897.63 114.97 897.28 114.99 897.03 114.99H893.18ZM903.813 121.99H913.383V120.29H906.553L911.193 116.12C912.673 114.81 913.383 113.86 913.383 111.97C913.383 109.32 911.363 107.3 908.692 107.3C905.923 107.3 903.883 109.23 903.883 111.94H905.703C905.683 110.37 906.943 109 908.663 109C910.323 109 911.563 110.29 911.563 111.95C911.563 112.86 911.273 113.69 910.213 114.64L903.823 120.39L903.813 121.99Z" fill="#110529"/>
    <path d="M635.4 190H637.18V184.68H641.39L643.97 190H646.01L643.23 184.29C644.86 183.61 645.71 182.04 645.71 180.14C645.71 177.85 644.48 176.04 642.15 175.68C641.78 175.62 641.37 175.6 641.09 175.6H635.4V190ZM637.18 182.99V177.29H641.03C641.28 177.29 641.63 177.31 641.93 177.38C643.31 177.69 643.89 178.94 643.89 180.14C643.89 181.34 643.31 182.59 641.93 182.9C641.63 182.97 641.28 182.99 641.03 182.99H637.18ZM647.813 189.99H657.383V188.29H650.553L655.193 184.12C656.673 182.81 657.383 181.86 657.383 179.97C657.383 177.32 655.363 175.3 652.692 175.3C649.923 175.3 647.883 177.23 647.883 179.94H649.703C649.683 178.37 650.943 177 652.663 177C654.323 177 655.563 178.29 655.563 179.95C655.563 180.86 655.273 181.69 654.213 182.64L647.823 188.39L647.813 189.99Z" fill="#110529"/>
    <g filter="url(#filter0_i_5544_35541)">
        <path d="M83 156H322L317 162.5L322 169L317 175.5L322 182L317 188.5L322 195L317 201.5L322 208H83L78 201.5L83 195L78 188L83 182L78 175.5L83 169L78 162.5L83 156Z" fill="#99E099"/>
    </g>
    <path d="M83 156H322L317 162.5L322 169L317 175.5L322 182L317 188.5L322 195L317 201.5L322 208H83L78 201.5L83 195L78 188L83 182L78 175.5L83 169L78 162.5L83 156Z" stroke="#110529" stroke-width="2" stroke-linecap="round"/>
    <g filter="url(#filter1_i_5544_35541)">
        <path d="M635 88H874L869 94.5L874 101L869 107.5L874 114L869 120.5L874 127L869 133.5L874 140H635L630 133.5L635 127L630 120L635 114L630 107.5L635 101L630 94.5L635 88Z" fill="#FAFAAA"/>
    </g>
    <path d="M635 88H874L869 94.5L874 101L869 107.5L874 114L869 120.5L874 127L869 133.5L874 140H635L630 133.5L635 127L630 120L635 114L630 107.5L635 101L630 94.5L635 88Z" stroke="#110529" stroke-width="2" stroke-linecap="round"/>
    <g filter="url(#filter2_i_5544_35541)">
        <path d="M635 304H874L869 310.5L874 317L869 323.5L874 330L869 336.5L874 343L869 349.5L874 356H635L630 349.5L635 343L630 336L635 330L630 323.5L635 317L630 310.5L635 304Z" fill="#FAFAAA"/>
    </g>
    <path d="M635 304H874L869 310.5L874 317L869 323.5L874 330L869 336.5L874 343L869 349.5L874 356H635L630 349.5L635 343L630 336L635 330L630 323.5L635 317L630 310.5L635 304Z" stroke="#110529" stroke-width="2" stroke-linecap="round"/>
    <g filter="url(#filter3_i_5544_35541)">
        <path d="M399 156H410V208H399L394 201.5L399 195L394 188L399 182L394 175.5L399 169L394 162.5L399 156Z" fill="#99E099"/>
    </g>
    <path d="M399 156H410V208H399L394 201.5L399 195L394 188L399 182L394 175.5L399 169L394 162.5L399 156Z" stroke="#110529" stroke-width="2" stroke-linecap="round"/>
    <g filter="url(#filter4_i_5544_35541)">
        <path d="M522 88H507.6C507.04 88 506.76 88 506.546 88.109C506.358 88.2049 506.205 88.3578 506.109 88.546C506 88.7599 506 89.0399 506 89.6V138.4C506 138.96 506 139.24 506.109 139.454C506.205 139.642 506.358 139.795 506.546 139.891C506.76 140 507.04 140 507.6 140H522L517 133.5L522 127L517 120L522 114L517 107.5L522 101L517 94.5L522 88Z" fill="#C1ADFF"/>
    </g>
    <path d="M522 88H507.6C507.04 88 506.76 88 506.546 88.109C506.358 88.2049 506.205 88.3578 506.109 88.546C506 88.7599 506 89.0399 506 89.6V138.4C506 138.96 506 139.24 506.109 139.454C506.205 139.642 506.358 139.795 506.546 139.891C506.76 140 507.04 140 507.6 140H522L517 133.5L522 127L517 120L522 114L517 107.5L522 101L517 94.5L522 88Z" stroke="#110529" stroke-width="2" stroke-linecap="round"/>
    <g filter="url(#filter5_i_5544_35541)">
        <path d="M618 304H602V356H618L613 349.5L618 343L613 336L618 330L613 323.5L618 317L613 310.5L618 304Z" fill="#FAFAAA"/>
    </g>
    <path d="M618 304H602V356H618L613 349.5L618 343L613 336L618 330L613 323.5L618 317L613 310.5L618 304Z" stroke="#110529" stroke-width="2" stroke-linecap="round"/>
    <g filter="url(#filter6_i_5544_35541)">
        <path d="M618 156H602V208H618L613 201.5L618 195L613 188L618 182L613 175.5L618 169L613 162.5L618 156Z" fill="#FAFAAA"/>
    </g>
    <path d="M618 156H602V208H618L613 201.5L618 195L613 188L618 182L613 175.5L618 169L613 162.5L618 156Z" stroke="#110529" stroke-width="2" stroke-linecap="round"/>
    <path d="M354.209 122H356.792L361.813 107H359.896L355.48 120.021L351.126 107H349.188L354.209 122Z" fill="#110529"/>
    <g filter="url(#filter7_i_5544_35541)">
        <path d="M83 304H410V356H83L78 349.5L83 343L78 336L83 330L78 323.5L83 317L78 310.5L83 304Z" fill="#99E099"/>
    </g>
    <path d="M83 304H410V356H83L78 349.5L83 343L78 336L83 330L78 323.5L83 317L78 310.5L83 304Z" stroke="#110529" stroke-width="2" stroke-linecap="round"/>
    <g filter="url(#filter8_i_5544_35541)">
        <path d="M506 305.6C506 305.04 506 304.76 506.109 304.546C506.205 304.358 506.358 304.205 506.546 304.109C506.76 304 507.04 304 507.6 304H600.4C600.96 304 601.24 304 601.454 304.109C601.642 304.205 601.795 304.358 601.891 304.546C602 304.76 602 305.04 602 305.6V354.4C602 354.96 602 355.24 601.891 355.454C601.795 355.642 601.642 355.795 601.454 355.891C601.24 356 600.96 356 600.4 356H507.6C507.04 356 506.76 356 506.546 355.891C506.358 355.795 506.205 355.642 506.109 355.454C506 355.24 506 354.96 506 354.4V305.6Z" fill="#C1ADFF"/>
    </g>
    <path d="M506 305.6C506 305.04 506 304.76 506.109 304.546C506.205 304.358 506.358 304.205 506.546 304.109C506.76 304 507.04 304 507.6 304H600.4C600.96 304 601.24 304 601.454 304.109C601.642 304.205 601.795 304.358 601.891 304.546C602 304.76 602 305.04 602 305.6V354.4C602 354.96 602 355.24 601.891 355.454C601.795 355.642 601.642 355.795 601.454 355.891C601.24 356 600.96 356 600.4 356H507.6C507.04 356 506.76 356 506.546 355.891C506.358 355.795 506.205 355.642 506.109 355.454C506 355.24 506 354.96 506 354.4V305.6Z" stroke="#110529" stroke-width="2" stroke-linecap="round"/>
    <path d="M243.258 338H245.738L250.558 323.6H248.708L244.478 336.11L240.288 323.6H238.438L243.258 338Z" fill="#110529"/>
    <path d="M552.244 338.29C553.694 338.29 554.954 337.7 555.684 336.43C556.214 335.51 556.154 334.72 556.154 333.48V323.6H554.354V333.48C554.354 334.37 554.354 334.99 554.094 335.51C553.704 336.29 552.884 336.6 552.204 336.6C551.134 336.6 550.224 335.83 550.014 334.85L548.244 335.27C548.754 337.11 550.224 338.29 552.244 338.29Z" fill="#110529"/>
    <path d="M557.289 175V185.292C557.289 186.604 557.289 187.312 556.727 188.312C555.956 189.604 554.768 190.312 553.143 190.312C552.372 190.312 551.622 190.146 550.977 189.729C550.018 189.187 549.331 188.208 549.039 187.146L550.893 186.708C550.997 187.292 551.372 187.812 551.872 188.146C552.227 188.396 552.685 188.542 553.122 188.542C553.914 188.542 554.747 188.125 555.102 187.354C555.372 186.792 555.372 186.375 555.372 185.292V175H557.289Z" fill="#110529"/>
    <path d="M752.593 122.3C755.923 122.3 758.113 120.47 758.933 117.61L757.123 117.13C756.533 119.27 755.023 120.6 752.593 120.6C749.373 120.6 747.733 118.25 747.753 114.8C747.773 111.35 749.373 109 752.593 109C755.023 109 756.533 110.33 757.123 112.47L758.933 111.99C758.113 109.13 755.923 107.3 752.593 107.3C748.283 107.3 745.873 110.36 745.873 114.8C745.873 119.24 748.283 122.3 752.593 122.3Z" fill="#110529"/>
    <path d="M752.593 338.3C755.923 338.3 758.113 336.47 758.933 333.61L757.123 333.13C756.533 335.27 755.023 336.6 752.593 336.6C749.373 336.6 747.733 334.25 747.753 330.8C747.773 327.35 749.373 325 752.593 325C755.023 325 756.533 326.33 757.123 328.47L758.933 327.99C758.113 325.13 755.923 323.3 752.593 323.3C748.283 323.3 745.873 326.36 745.873 330.8C745.873 335.24 748.283 338.3 752.593 338.3Z" fill="#110529"/>
    <path d="M201.258 190H203.738L208.558 175.6H206.708L202.478 188.11L198.288 175.6H196.438L201.258 190Z" fill="#110529"/>
    <g filter="url(#filter9_i_5544_35541)">
        <path d="M303 88H410V140H303L298 133.5L303 127L298 120L303 114L298 107.5L303 101L298 94.5L303 88Z" fill="#99E099"/>
    </g>
    <path d="M303 88H410V140H303L298 133.5L303 127L298 120L303 114L298 107.5L303 101L298 94.5L303 88Z" stroke="#110529" stroke-width="2" stroke-linecap="round"/>
    <g filter="url(#filter10_i_5544_35541)">
        <path d="M506 157.6C506 157.04 506 156.76 506.109 156.546C506.205 156.358 506.358 156.205 506.546 156.109C506.76 156 507.04 156 507.6 156H600.4C600.96 156 601.24 156 601.454 156.109C601.642 156.205 601.795 156.358 601.891 156.546C602 156.76 602 157.04 602 157.6V206.4C602 206.96 602 207.24 601.891 207.454C601.795 207.642 601.642 207.795 601.454 207.891C601.24 208 600.96 208 600.4 208H507.6C507.04 208 506.76 208 506.546 207.891C506.358 207.795 506.205 207.642 506.109 207.454C506 207.24 506 206.96 506 206.4V157.6Z" fill="#C1ADFF"/>
    </g>
    <path d="M506 157.6C506 157.04 506 156.76 506.109 156.546C506.205 156.358 506.358 156.205 506.546 156.109C506.76 156 507.04 156 507.6 156H600.4C600.96 156 601.24 156 601.454 156.109C601.642 156.205 601.795 156.358 601.891 156.546C602 156.76 602 157.04 602 157.6V206.4C602 206.96 602 207.24 601.891 207.454C601.795 207.642 601.642 207.795 601.454 207.891C601.24 208 600.96 208 600.4 208H507.6C507.04 208 506.76 208 506.546 207.891C506.358 207.795 506.205 207.642 506.109 207.454C506 207.24 506 206.96 506 206.4V157.6Z" stroke="#110529" stroke-width="2" stroke-linecap="round"/>
    <path d="M437.682 37.21C440.006 37.21 441.567 35.943 442.162 33.955L440.678 33.556C440.279 34.963 439.278 35.817 437.682 35.817C435.54 35.817 434.448 34.27 434.462 31.96C434.469 29.65 435.54 28.103 437.682 28.103C439.278 28.103 440.279 28.957 440.678 30.364L442.162 29.965C441.567 27.977 440.006 26.71 437.682 26.71C434.658 26.71 432.915 28.845 432.915 31.96C432.915 35.075 434.658 37.21 437.682 37.21ZM443.702 37H446.859C447.041 37 447.643 37 448.112 36.937C450.478 36.636 451.738 34.529 451.738 31.96C451.738 29.391 450.478 27.284 448.112 26.983C447.643 26.92 447.041 26.92 446.859 26.92H443.702V37ZM445.2 35.607V28.313H446.859C447.167 28.313 447.671 28.32 448.007 28.383C449.519 28.663 450.184 30.189 450.184 31.96C450.184 33.689 449.547 35.243 448.007 35.537C447.671 35.6 447.181 35.607 446.859 35.607H445.2ZM453.368 37H454.831V33.381H457.505L459.262 37H460.935L459.031 33.094C460.172 32.597 460.746 31.491 460.746 30.147C460.746 28.516 459.906 27.235 458.219 26.976C457.953 26.934 457.638 26.92 457.442 26.92H453.368V37ZM454.831 31.995V28.299H457.386C457.568 28.299 457.813 28.313 458.023 28.369C458.919 28.579 459.255 29.405 459.255 30.147C459.255 30.889 458.919 31.715 458.023 31.932C457.813 31.981 457.568 31.995 457.386 31.995H454.831ZM465.294 37.189C467.177 37.189 468.661 35.796 468.661 33.871C468.661 32.233 467.653 30.924 466.022 30.707L468.514 28.313V26.92H462.452V28.313H466.722L463.642 31.036L464.328 32.191C464.615 32.037 464.958 31.939 465.28 31.939C466.4 31.939 467.163 32.751 467.163 33.871C467.163 34.984 466.4 35.789 465.294 35.803C464.468 35.81 463.733 35.341 463.467 34.466L462.053 34.858C462.48 36.293 463.796 37.189 465.294 37.189Z" fill="#D3D7E0"/>
    <g filter="url(#filter11_i_5544_35541)">
        <rect x="410" y="88" width="30" height="52" rx="1" fill="#CBEB67"/>
    </g>
    <rect x="410" y="88" width="30" height="52" rx="1" stroke="#110529" stroke-width="2" stroke-linecap="round"/>
    <g filter="url(#filter12_i_5544_35541)">
        <rect x="476" y="88" width="30" height="52" rx="1" fill="#FAAAFA"/>
    </g>
    <rect x="476" y="88" width="30" height="52" rx="1" stroke="#110529" stroke-width="2" stroke-linecap="round"/>
    <g filter="url(#filter13_i_5544_35541)">
        <rect x="440" y="88" width="36" height="52" rx="1" fill="#FFCB8F"/>
    </g>
    <rect x="440" y="88" width="36" height="52" rx="1" stroke="#110529" stroke-width="2" stroke-linecap="round"/>
    <path d="M419.447 122H421.247V110.74L428.757 122H430.557V107.6H428.757V118.85L421.247 107.6H419.447V122Z" fill="#110529"/>
    <path d="M485.447 122H487.247V110.74L494.757 122H496.557V107.6H494.757V118.85L487.247 107.6H485.447V122Z" fill="#110529"/>
    <path d="M452.593 122H457.033C457.303 122 458.183 122 458.853 121.91C462.183 121.47 463.913 118.48 463.913 114.8C463.913 111.13 462.183 108.13 458.853 107.69C458.173 107.6 457.313 107.6 457.033 107.6H452.593V122ZM454.423 120.3V109.3H457.033C457.513 109.3 458.233 109.32 458.703 109.41C461.033 109.83 462.023 112.08 462.023 114.8C462.023 117.47 461.063 119.76 458.703 120.19C458.233 120.28 457.533 120.3 457.033 120.3H454.423Z" fill="#110529"/>
    <g filter="url(#filter14_i_5544_35541)">
        <rect x="410" y="156" width="30" height="52" rx="1" fill="#CBEB67"/>
    </g>
    <rect x="410" y="156" width="30" height="52" rx="1" stroke="#110529" stroke-width="2" stroke-linecap="round"/>
    <g filter="url(#filter15_i_5544_35541)">
        <rect x="476" y="156" width="30" height="52" rx="1" fill="#FAAAFA"/>
    </g>
    <rect x="476" y="156" width="30" height="52" rx="1" stroke="#110529" stroke-width="2" stroke-linecap="round"/>
    <g filter="url(#filter16_i_5544_35541)">
        <rect x="440" y="156" width="36" height="52" rx="1" fill="#FFCB8F"/>
    </g>
    <rect x="440" y="156" width="36" height="52" rx="1" stroke="#110529" stroke-width="2" stroke-linecap="round"/>
    <path d="M419.447 190H421.247V178.74L428.757 190H430.557V175.6H428.757V186.85L421.247 175.6H419.447V190Z" fill="#110529"/>
    <path d="M485.447 190H487.247V178.74L494.757 190H496.557V175.6H494.757V186.85L487.247 175.6H485.447V190Z" fill="#110529"/>
    <path d="M452.593 190H457.033C457.303 190 458.183 190 458.853 189.91C462.183 189.47 463.913 186.48 463.913 182.8C463.913 179.13 462.183 176.13 458.853 175.69C458.173 175.6 457.313 175.6 457.033 175.6H452.593V190ZM454.423 188.3V177.3H457.033C457.513 177.3 458.233 177.32 458.703 177.41C461.033 177.83 462.023 180.08 462.023 182.8C462.023 185.47 461.063 187.76 458.703 188.19C458.233 188.28 457.533 188.3 457.033 188.3H454.423Z" fill="#110529"/>
    <g filter="url(#filter17_i_5544_35541)">
        <rect x="410" y="304" width="30" height="52" rx="1" fill="#CBEB67"/>
    </g>
    <rect x="410" y="304" width="30" height="52" rx="1" stroke="#110529" stroke-width="2" stroke-linecap="round"/>
    <g filter="url(#filter18_i_5544_35541)">
        <rect x="476" y="304" width="30" height="52" rx="1" fill="#FAAAFA"/>
    </g>
    <rect x="476" y="304" width="30" height="52" rx="1" stroke="#110529" stroke-width="2" stroke-linecap="round"/>
    <g filter="url(#filter19_i_5544_35541)">
        <rect x="440" y="304" width="36" height="52" rx="1" fill="#FFCB8F"/>
    </g>
    <rect x="440" y="304" width="36" height="52" rx="1" stroke="#110529" stroke-width="2" stroke-linecap="round"/>
    <path d="M419.447 338H421.247V326.74L428.757 338H430.557V323.6H428.757V334.85L421.247 323.6H419.447V338Z" fill="#110529"/>
    <path d="M485.447 338H487.247V326.74L494.757 338H496.557V323.6H494.757V334.85L487.247 323.6H485.447V338Z" fill="#110529"/>
    <path d="M452.593 338H457.033C457.303 338 458.183 338 458.853 337.91C462.183 337.47 463.913 334.48 463.913 330.8C463.913 327.13 462.183 324.13 458.853 323.69C458.173 323.6 457.313 323.6 457.033 323.6H452.593V338ZM454.423 336.3V325.3H457.033C457.513 325.3 458.233 325.32 458.703 325.41C461.033 325.83 462.023 328.08 462.023 330.8C462.023 333.47 461.063 335.76 458.703 336.19C458.233 336.28 457.533 336.3 457.033 336.3H454.423Z" fill="#110529"/>
    <defs>
        <filter id="filter0_i_5544_35541" x="76.7375" y="155" width="247.293" height="54" filterUnits="userSpaceOnUse" color-interpolation-filters="sRGB">
            <feFlood flood-opacity="0" result="BackgroundImageFix"/>
            <feBlend mode="normal" in="SourceGraphic" in2="BackgroundImageFix" result="shape"/>
            <feColorMatrix in="SourceAlpha" type="matrix" values="0 0 0 0 0 0 0 0 0 0 0 0 0 0 0 0 0 0 127 0" result="hardAlpha"/>
            <feOffset dx="-8" dy="-4"/>
            <feComposite in2="hardAlpha" operator="arithmetic" k2="-1" k3="1"/>
            <feColorMatrix type="matrix" values="0 0 0 0 0.0666667 0 0 0 0 0.0196078 0 0 0 0 0.160784 0 0 0 0.16 0"/>
            <feBlend mode="normal" in2="shape" result="effect1_innerShadow_5544_35541"/>
        </filter>
        <filter id="filter1_i_5544_35541" x="628.737" y="87" width="247.293" height="54" filterUnits="userSpaceOnUse" color-interpolation-filters="sRGB">
            <feFlood flood-opacity="0" result="BackgroundImageFix"/>
            <feBlend mode="normal" in="SourceGraphic" in2="BackgroundImageFix" result="shape"/>
            <feColorMatrix in="SourceAlpha" type="matrix" values="0 0 0 0 0 0 0 0 0 0 0 0 0 0 0 0 0 0 127 0" result="hardAlpha"/>
            <feOffset dx="-8" dy="-4"/>
            <feComposite in2="hardAlpha" operator="arithmetic" k2="-1" k3="1"/>
            <feColorMatrix type="matrix" values="0 0 0 0 0.0666667 0 0 0 0 0.0196078 0 0 0 0 0.160784 0 0 0 0.16 0"/>
            <feBlend mode="normal" in2="shape" result="effect1_innerShadow_5544_35541"/>
        </filter>
        <filter id="filter2_i_5544_35541" x="628.737" y="303" width="247.293" height="54" filterUnits="userSpaceOnUse" color-interpolation-filters="sRGB">
            <feFlood flood-opacity="0" result="BackgroundImageFix"/>
            <feBlend mode="normal" in="SourceGraphic" in2="BackgroundImageFix" result="shape"/>
            <feColorMatrix in="SourceAlpha" type="matrix" values="0 0 0 0 0 0 0 0 0 0 0 0 0 0 0 0 0 0 127 0" result="hardAlpha"/>
            <feOffset dx="-8" dy="-4"/>
            <feComposite in2="hardAlpha" operator="arithmetic" k2="-1" k3="1"/>
            <feColorMatrix type="matrix" values="0 0 0 0 0.0666667 0 0 0 0 0.0196078 0 0 0 0 0.160784 0 0 0 0.16 0"/>
            <feBlend mode="normal" in2="shape" result="effect1_innerShadow_5544_35541"/>
        </filter>
        <filter id="filter3_i_5544_35541" x="392.737" y="155" width="18.2625" height="54" filterUnits="userSpaceOnUse" color-interpolation-filters="sRGB">
            <feFlood flood-opacity="0" result="BackgroundImageFix"/>
            <feBlend mode="normal" in="SourceGraphic" in2="BackgroundImageFix" result="shape"/>
            <feColorMatrix in="SourceAlpha" type="matrix" values="0 0 0 0 0 0 0 0 0 0 0 0 0 0 0 0 0 0 127 0" result="hardAlpha"/>
            <feOffset dx="-8" dy="-4"/>
            <feComposite in2="hardAlpha" operator="arithmetic" k2="-1" k3="1"/>
            <feColorMatrix type="matrix" values="0 0 0 0 0.0666667 0 0 0 0 0.0196078 0 0 0 0 0.160784 0 0 0 0.16 0"/>
            <feBlend mode="normal" in2="shape" result="effect1_innerShadow_5544_35541"/>
        </filter>
        <filter id="filter4_i_5544_35541" x="505" y="87" width="19.0309" height="54" filterUnits="userSpaceOnUse" color-interpolation-filters="sRGB">
            <feFlood flood-opacity="0" result="BackgroundImageFix"/>
            <feBlend mode="normal" in="SourceGraphic" in2="BackgroundImageFix" result="shape"/>
            <feColorMatrix in="SourceAlpha" type="matrix" values="0 0 0 0 0 0 0 0 0 0 0 0 0 0 0 0 0 0 127 0" result="hardAlpha"/>
            <feOffset dx="-8" dy="-4"/>
            <feComposite in2="hardAlpha" operator="arithmetic" k2="-1" k3="1"/>
            <feColorMatrix type="matrix" values="0 0 0 0 0.0666667 0 0 0 0 0.0196078 0 0 0 0 0.160784 0 0 0 0.16 0"/>
            <feBlend mode="normal" in2="shape" result="effect1_innerShadow_5544_35541"/>
        </filter>
        <filter id="filter5_i_5544_35541" x="601" y="303" width="19.0309" height="54" filterUnits="userSpaceOnUse" color-interpolation-filters="sRGB">
            <feFlood flood-opacity="0" result="BackgroundImageFix"/>
            <feBlend mode="normal" in="SourceGraphic" in2="BackgroundImageFix" result="shape"/>
            <feColorMatrix in="SourceAlpha" type="matrix" values="0 0 0 0 0 0 0 0 0 0 0 0 0 0 0 0 0 0 127 0" result="hardAlpha"/>
            <feOffset dx="-8" dy="-4"/>
            <feComposite in2="hardAlpha" operator="arithmetic" k2="-1" k3="1"/>
            <feColorMatrix type="matrix" values="0 0 0 0 0.0666667 0 0 0 0 0.0196078 0 0 0 0 0.160784 0 0 0 0.16 0"/>
            <feBlend mode="normal" in2="shape" result="effect1_innerShadow_5544_35541"/>
        </filter>
        <filter id="filter6_i_5544_35541" x="601" y="155" width="19.0309" height="54" filterUnits="userSpaceOnUse" color-interpolation-filters="sRGB">
            <feFlood flood-opacity="0" result="BackgroundImageFix"/>
            <feBlend mode="normal" in="SourceGraphic" in2="BackgroundImageFix" result="shape"/>
            <feColorMatrix in="SourceAlpha" type="matrix" values="0 0 0 0 0 0 0 0 0 0 0 0 0 0 0 0 0 0 127 0" result="hardAlpha"/>
            <feOffset dx="-8" dy="-4"/>
            <feComposite in2="hardAlpha" operator="arithmetic" k2="-1" k3="1"/>
            <feColorMatrix type="matrix" values="0 0 0 0 0.0666667 0 0 0 0 0.0196078 0 0 0 0 0.160784 0 0 0 0.16 0"/>
            <feBlend mode="normal" in2="shape" result="effect1_innerShadow_5544_35541"/>
        </filter>
        <filter id="filter7_i_5544_35541" x="76.7375" y="303" width="334.263" height="54" filterUnits="userSpaceOnUse" color-interpolation-filters="sRGB">
            <feFlood flood-opacity="0" result="BackgroundImageFix"/>
            <feBlend mode="normal" in="SourceGraphic" in2="BackgroundImageFix" result="shape"/>
            <feColorMatrix in="SourceAlpha" type="matrix" values="0 0 0 0 0 0 0 0 0 0 0 0 0 0 0 0 0 0 127 0" result="hardAlpha"/>
            <feOffset dx="-8" dy="-4"/>
            <feComposite in2="hardAlpha" operator="arithmetic" k2="-1" k3="1"/>
            <feColorMatrix type="matrix" values="0 0 0 0 0.0666667 0 0 0 0 0.0196078 0 0 0 0 0.160784 0 0 0 0.16 0"/>
            <feBlend mode="normal" in2="shape" result="effect1_innerShadow_5544_35541"/>
        </filter>
        <filter id="filter8_i_5544_35541" x="505" y="303" width="98" height="54" filterUnits="userSpaceOnUse" color-interpolation-filters="sRGB">
            <feFlood flood-opacity="0" result="BackgroundImageFix"/>
            <feBlend mode="normal" in="SourceGraphic" in2="BackgroundImageFix" result="shape"/>
            <feColorMatrix in="SourceAlpha" type="matrix" values="0 0 0 0 0 0 0 0 0 0 0 0 0 0 0 0 0 0 127 0" result="hardAlpha"/>
            <feOffset dx="-8" dy="-4"/>
            <feComposite in2="hardAlpha" operator="arithmetic" k2="-1" k3="1"/>
            <feColorMatrix type="matrix" values="0 0 0 0 0.0666667 0 0 0 0 0.0196078 0 0 0 0 0.160784 0 0 0 0.16 0"/>
            <feBlend mode="normal" in2="shape" result="effect1_innerShadow_5544_35541"/>
        </filter>
        <filter id="filter9_i_5544_35541" x="296.737" y="87" width="114.263" height="54" filterUnits="userSpaceOnUse" color-interpolation-filters="sRGB">
            <feFlood flood-opacity="0" result="BackgroundImageFix"/>
            <feBlend mode="normal" in="SourceGraphic" in2="BackgroundImageFix" result="shape"/>
            <feColorMatrix in="SourceAlpha" type="matrix" values="0 0 0 0 0 0 0 0 0 0 0 0 0 0 0 0 0 0 127 0" result="hardAlpha"/>
            <feOffset dx="-8" dy="-4"/>
            <feComposite in2="hardAlpha" operator="arithmetic" k2="-1" k3="1"/>
            <feColorMatrix type="matrix" values="0 0 0 0 0.0666667 0 0 0 0 0.0196078 0 0 0 0 0.160784 0 0 0 0.16 0"/>
            <feBlend mode="normal" in2="shape" result="effect1_innerShadow_5544_35541"/>
        </filter>
        <filter id="filter10_i_5544_35541" x="505" y="155" width="98" height="54" filterUnits="userSpaceOnUse" color-interpolation-filters="sRGB">
            <feFlood flood-opacity="0" result="BackgroundImageFix"/>
            <feBlend mode="normal" in="SourceGraphic" in2="BackgroundImageFix" result="shape"/>
            <feColorMatrix in="SourceAlpha" type="matrix" values="0 0 0 0 0 0 0 0 0 0 0 0 0 0 0 0 0 0 127 0" result="hardAlpha"/>
            <feOffset dx="-8" dy="-4"/>
            <feComposite in2="hardAlpha" operator="arithmetic" k2="-1" k3="1"/>
            <feColorMatrix type="matrix" values="0 0 0 0 0.0666667 0 0 0 0 0.0196078 0 0 0 0 0.160784 0 0 0 0.16 0"/>
            <feBlend mode="normal" in2="shape" result="effect1_innerShadow_5544_35541"/>
        </filter>
        <filter id="filter11_i_5544_35541" x="409" y="87" width="32" height="54" filterUnits="userSpaceOnUse" color-interpolation-filters="sRGB">
            <feFlood flood-opacity="0" result="BackgroundImageFix"/>
            <feBlend mode="normal" in="SourceGraphic" in2="BackgroundImageFix" result="shape"/>
            <feColorMatrix in="SourceAlpha" type="matrix" values="0 0 0 0 0 0 0 0 0 0 0 0 0 0 0 0 0 0 127 0" result="hardAlpha"/>
            <feOffset dx="-8" dy="-4"/>
            <feComposite in2="hardAlpha" operator="arithmetic" k2="-1" k3="1"/>
            <feColorMatrix type="matrix" values="0 0 0 0 0.0666667 0 0 0 0 0.0196078 0 0 0 0 0.160784 0 0 0 0.16 0"/>
            <feBlend mode="normal" in2="shape" result="effect1_innerShadow_5544_35541"/>
        </filter>
        <filter id="filter12_i_5544_35541" x="475" y="87" width="32" height="54" filterUnits="userSpaceOnUse" color-interpolation-filters="sRGB">
            <feFlood flood-opacity="0" result="BackgroundImageFix"/>
            <feBlend mode="normal" in="SourceGraphic" in2="BackgroundImageFix" result="shape"/>
            <feColorMatrix in="SourceAlpha" type="matrix" values="0 0 0 0 0 0 0 0 0 0 0 0 0 0 0 0 0 0 127 0" result="hardAlpha"/>
            <feOffset dx="-8" dy="-4"/>
            <feComposite in2="hardAlpha" operator="arithmetic" k2="-1" k3="1"/>
            <feColorMatrix type="matrix" values="0 0 0 0 0.0666667 0 0 0 0 0.0196078 0 0 0 0 0.160784 0 0 0 0.16 0"/>
            <feBlend mode="normal" in2="shape" result="effect1_innerShadow_5544_35541"/>
        </filter>
        <filter id="filter13_i_5544_35541" x="439" y="87" width="38" height="54" filterUnits="userSpaceOnUse" color-interpolation-filters="sRGB">
            <feFlood flood-opacity="0" result="BackgroundImageFix"/>
            <feBlend mode="normal" in="SourceGraphic" in2="BackgroundImageFix" result="shape"/>
            <feColorMatrix in="SourceAlpha" type="matrix" values="0 0 0 0 0 0 0 0 0 0 0 0 0 0 0 0 0 0 127 0" result="hardAlpha"/>
            <feOffset dx="-8" dy="-4"/>
            <feComposite in2="hardAlpha" operator="arithmetic" k2="-1" k3="1"/>
            <feColorMatrix type="matrix" values="0 0 0 0 0.0666667 0 0 0 0 0.0196078 0 0 0 0 0.160784 0 0 0 0.16 0"/>
            <feBlend mode="normal" in2="shape" result="effect1_innerShadow_5544_35541"/>
        </filter>
        <filter id="filter14_i_5544_35541" x="409" y="155" width="32" height="54" filterUnits="userSpaceOnUse" color-interpolation-filters="sRGB">
            <feFlood flood-opacity="0" result="BackgroundImageFix"/>
            <feBlend mode="normal" in="SourceGraphic" in2="BackgroundImageFix" result="shape"/>
            <feColorMatrix in="SourceAlpha" type="matrix" values="0 0 0 0 0 0 0 0 0 0 0 0 0 0 0 0 0 0 127 0" result="hardAlpha"/>
            <feOffset dx="-8" dy="-4"/>
            <feComposite in2="hardAlpha" operator="arithmetic" k2="-1" k3="1"/>
            <feColorMatrix type="matrix" values="0 0 0 0 0.0666667 0 0 0 0 0.0196078 0 0 0 0 0.160784 0 0 0 0.16 0"/>
            <feBlend mode="normal" in2="shape" result="effect1_innerShadow_5544_35541"/>
        </filter>
        <filter id="filter15_i_5544_35541" x="475" y="155" width="32" height="54" filterUnits="userSpaceOnUse" color-interpolation-filters="sRGB">
            <feFlood flood-opacity="0" result="BackgroundImageFix"/>
            <feBlend mode="normal" in="SourceGraphic" in2="BackgroundImageFix" result="shape"/>
            <feColorMatrix in="SourceAlpha" type="matrix" values="0 0 0 0 0 0 0 0 0 0 0 0 0 0 0 0 0 0 127 0" result="hardAlpha"/>
            <feOffset dx="-8" dy="-4"/>
            <feComposite in2="hardAlpha" operator="arithmetic" k2="-1" k3="1"/>
            <feColorMatrix type="matrix" values="0 0 0 0 0.0666667 0 0 0 0 0.0196078 0 0 0 0 0.160784 0 0 0 0.16 0"/>
            <feBlend mode="normal" in2="shape" result="effect1_innerShadow_5544_35541"/>
        </filter>
        <filter id="filter16_i_5544_35541" x="439" y="155" width="38" height="54" filterUnits="userSpaceOnUse" color-interpolation-filters="sRGB">
            <feFlood flood-opacity="0" result="BackgroundImageFix"/>
            <feBlend mode="normal" in="SourceGraphic" in2="BackgroundImageFix" result="shape"/>
            <feColorMatrix in="SourceAlpha" type="matrix" values="0 0 0 0 0 0 0 0 0 0 0 0 0 0 0 0 0 0 127 0" result="hardAlpha"/>
            <feOffset dx="-8" dy="-4"/>
            <feComposite in2="hardAlpha" operator="arithmetic" k2="-1" k3="1"/>
            <feColorMatrix type="matrix" values="0 0 0 0 0.0666667 0 0 0 0 0.0196078 0 0 0 0 0.160784 0 0 0 0.16 0"/>
            <feBlend mode="normal" in2="shape" result="effect1_innerShadow_5544_35541"/>
        </filter>
        <filter id="filter17_i_5544_35541" x="409" y="303" width="32" height="54" filterUnits="userSpaceOnUse" color-interpolation-filters="sRGB">
            <feFlood flood-opacity="0" result="BackgroundImageFix"/>
            <feBlend mode="normal" in="SourceGraphic" in2="BackgroundImageFix" result="shape"/>
            <feColorMatrix in="SourceAlpha" type="matrix" values="0 0 0 0 0 0 0 0 0 0 0 0 0 0 0 0 0 0 127 0" result="hardAlpha"/>
            <feOffset dx="-8" dy="-4"/>
            <feComposite in2="hardAlpha" operator="arithmetic" k2="-1" k3="1"/>
            <feColorMatrix type="matrix" values="0 0 0 0 0.0666667 0 0 0 0 0.0196078 0 0 0 0 0.160784 0 0 0 0.16 0"/>
            <feBlend mode="normal" in2="shape" result="effect1_innerShadow_5544_35541"/>
        </filter>
        <filter id="filter18_i_5544_35541" x="475" y="303" width="32" height="54" filterUnits="userSpaceOnUse" color-interpolation-filters="sRGB">
            <feFlood flood-opacity="0" result="BackgroundImageFix"/>
            <feBlend mode="normal" in="SourceGraphic" in2="BackgroundImageFix" result="shape"/>
            <feColorMatrix in="SourceAlpha" type="matrix" values="0 0 0 0 0 0 0 0 0 0 0 0 0 0 0 0 0 0 127 0" result="hardAlpha"/>
            <feOffset dx="-8" dy="-4"/>
            <feComposite in2="hardAlpha" operator="arithmetic" k2="-1" k3="1"/>
            <feColorMatrix type="matrix" values="0 0 0 0 0.0666667 0 0 0 0 0.0196078 0 0 0 0 0.160784 0 0 0 0.16 0"/>
            <feBlend mode="normal" in2="shape" result="effect1_innerShadow_5544_35541"/>
        </filter>
        <filter id="filter19_i_5544_35541" x="439" y="303" width="38" height="54" filterUnits="userSpaceOnUse" color-interpolation-filters="sRGB">
            <feFlood flood-opacity="0" result="BackgroundImageFix"/>
            <feBlend mode="normal" in="SourceGraphic" in2="BackgroundImageFix" result="shape"/>
            <feColorMatrix in="SourceAlpha" type="matrix" values="0 0 0 0 0 0 0 0 0 0 0 0 0 0 0 0 0 0 127 0" result="hardAlpha"/>
            <feOffset dx="-8" dy="-4"/>
            <feComposite in2="hardAlpha" operator="arithmetic" k2="-1" k3="1"/>
            <feColorMatrix type="matrix" values="0 0 0 0 0.0666667 0 0 0 0 0.0196078 0 0 0 0 0.160784 0 0 0 0.16 0"/>
            <feBlend mode="normal" in2="shape" result="effect1_innerShadow_5544_35541"/>
        </filter>
    </defs>
</svg>
