<svg width="960" height="380" viewBox="0 0 960 380" fill="none" xmlns="http://www.w3.org/2000/svg">
<rect width="960" height="380" fill="white"/>
<path d="M341 303V304H343V303H341ZM343 29V28H341V29H343ZM341 29V31.9783H343V29H341ZM341 37.9348V43.8913H343V37.9348H341ZM341 49.8478V55.8043H343V49.8478H341ZM341 61.7609V67.7174H343V61.7609H341ZM341 73.6739V79.6304H343V73.6739H341ZM341 85.5869V91.5435H343V85.5869H341ZM341 97.5V103.457H343V97.5H341ZM341 109.413V115.37H343V109.413H341ZM341 121.326V127.283H343V121.326H341ZM341 133.239V139.196H343V133.239H341ZM341 145.152V151.109H343V145.152H341ZM341 157.065V163.022H343V157.065H341ZM341 168.978V174.935H343V168.978H341ZM341 180.891V186.848H343V180.891H341ZM341 192.804V198.761H343V192.804H341ZM341 204.717V210.674H343V204.717H341ZM341 216.63V222.587H343V216.63H341ZM341 228.544V234.5H343V228.544H341ZM341 240.457V246.413H343V240.457H341ZM341 252.37V258.326H343V252.37H341ZM341 264.283V270.239H343V264.283H341ZM341 276.196V282.152H343V276.196H341ZM341 288.109V294.065H343V288.109H341ZM341 300.022V303H343V300.022H341Z" fill="#D3D7E0"/>
<path d="M553 303V304H555V303H553ZM555 29V28H553V29H555ZM553 29V31.9783H555V29H553ZM553 37.9348V43.8913H555V37.9348H553ZM553 49.8478V55.8043H555V49.8478H553ZM553 61.7609V67.7174H555V61.7609H553ZM553 73.6739V79.6304H555V73.6739H553ZM553 85.5869V91.5435H555V85.5869H553ZM553 97.5V103.457H555V97.5H553ZM553 109.413V115.37H555V109.413H553ZM553 121.326V127.283H555V121.326H553ZM553 133.239V139.196H555V133.239H553ZM553 145.152V151.109H555V145.152H553ZM553 157.065V163.022H555V157.065H553ZM553 168.978V174.935H555V168.978H553ZM553 180.891V186.848H555V180.891H553ZM553 192.804V198.761H555V192.804H553ZM553 204.717V210.674H555V204.717H553ZM553 216.63V222.587H555V216.63H553ZM553 228.544V234.5H555V228.544H553ZM553 240.457V246.413H555V240.457H553ZM553 252.37V258.326H555V252.37H553ZM553 264.283V270.239H555V264.283H553ZM553 276.196V282.152H555V276.196H553ZM553 288.109V294.065H555V288.109H553ZM553 300.022V303H555V300.022H553Z" fill="#D3D7E0"/>
<g filter="url(#filter0_i_4694_30369)">
<path d="M401 88H431.4C431.96 88 432.24 88 432.454 88.109C432.642 88.2049 432.795 88.3578 432.891 88.546C433 88.7599 433 89.0399 433 89.6V138.4C433 138.96 433 139.24 432.891 139.454C432.795 139.642 432.642 139.795 432.454 139.891C432.24 140 431.96 140 431.4 140H401V88Z" fill="#CBEB67"/>
</g>
<path d="M401 88H431.4C431.96 88 432.24 88 432.454 88.109C432.642 88.2049 432.795 88.3578 432.891 88.546C433 88.7599 433 89.0399 433 89.6V138.4C433 138.96 433 139.24 432.891 139.454C432.795 139.642 432.642 139.795 432.454 139.891C432.24 140 431.96 140 431.4 140H401V88Z" stroke="#110529" stroke-width="2" stroke-linecap="round"/>
<g filter="url(#filter1_i_4694_30369)">
<path d="M485 88H515.4C515.96 88 516.24 88 516.454 88.109C516.642 88.2049 516.795 88.3578 516.891 88.546C517 88.7599 517 89.0399 517 89.6V138.4C517 138.96 517 139.24 516.891 139.454C516.795 139.642 516.642 139.795 516.454 139.891C516.24 140 515.96 140 515.4 140H485V88Z" fill="#FAAAFA"/>
</g>
<path d="M485 88H515.4C515.96 88 516.24 88 516.454 88.109C516.642 88.2049 516.795 88.3578 516.891 88.546C517 88.7599 517 89.0399 517 89.6V138.4C517 138.96 517 139.24 516.891 139.454C516.795 139.642 516.642 139.795 516.454 139.891C516.24 140 515.96 140 515.4 140H485V88Z" stroke="#110529" stroke-width="2" stroke-linecap="round"/>
<g filter="url(#filter2_i_4694_30369)">
<path d="M433 88H483.4C483.96 88 484.24 88 484.454 88.109C484.642 88.2049 484.795 88.3578 484.891 88.546C485 88.7599 485 89.0399 485 89.6V138.4C485 138.96 485 139.24 484.891 139.454C484.795 139.642 484.642 139.795 484.454 139.891C484.24 140 483.96 140 483.4 140H433V88Z" fill="#FFCB8F"/>
</g>
<path d="M433 88H483.4C483.96 88 484.24 88 484.454 88.109C484.642 88.2049 484.795 88.3578 484.891 88.546C485 88.7599 485 89.0399 485 89.6V138.4C485 138.96 485 139.24 484.891 139.454C484.795 139.642 484.642 139.795 484.454 139.891C484.24 140 483.96 140 483.4 140H433V88Z" stroke="#110529" stroke-width="2" stroke-linecap="round"/>
<path d="M412.587 107H410.712V122H412.587V110.271L420.421 122H422.296V107H420.421V118.708L412.587 107Z" fill="#110529"/>
<path d="M496.587 107H494.712V122H496.587V110.271L504.421 122H506.296V107H504.421V118.708L496.587 107Z" fill="#110529"/>
<path d="M464.66 114.542C464.66 116.562 464.056 118.646 462.785 120.021C461.556 121.375 459.764 121.979 457.91 121.979H452.868V106.979L457.952 107C459.889 107 461.598 107.646 462.785 108.979C464.139 110.437 464.66 112.458 464.66 114.542ZM462.702 114.542C462.723 112.917 462.348 111.312 461.389 110.208C460.493 109.187 459.306 108.792 457.931 108.771L454.785 108.792V120.187L457.91 120.229C459.285 120.208 460.535 119.75 461.41 118.771C462.348 117.687 462.681 116.062 462.702 114.542Z" fill="#110529"/>
<g filter="url(#filter3_i_4694_30369)">
<path d="M401 304H431.4C431.96 304 432.24 304 432.454 304.109C432.642 304.205 432.795 304.358 432.891 304.546C433 304.76 433 305.04 433 305.6V354.4C433 354.96 433 355.24 432.891 355.454C432.795 355.642 432.642 355.795 432.454 355.891C432.24 356 431.96 356 431.4 356H401V304Z" fill="#CBEB67"/>
</g>
<path d="M401 304H431.4C431.96 304 432.24 304 432.454 304.109C432.642 304.205 432.795 304.358 432.891 304.546C433 304.76 433 305.04 433 305.6V354.4C433 354.96 433 355.24 432.891 355.454C432.795 355.642 432.642 355.795 432.454 355.891C432.24 356 431.96 356 431.4 356H401V304Z" stroke="#110529" stroke-width="2" stroke-linecap="round"/>
<g filter="url(#filter4_i_4694_30369)">
<path d="M485 304H515.4C515.96 304 516.24 304 516.454 304.109C516.642 304.205 516.795 304.358 516.891 304.546C517 304.76 517 305.04 517 305.6V354.4C517 354.96 517 355.24 516.891 355.454C516.795 355.642 516.642 355.795 516.454 355.891C516.24 356 515.96 356 515.4 356H485V304Z" fill="#FAAAFA"/>
</g>
<path d="M485 304H515.4C515.96 304 516.24 304 516.454 304.109C516.642 304.205 516.795 304.358 516.891 304.546C517 304.76 517 305.04 517 305.6V354.4C517 354.96 517 355.24 516.891 355.454C516.795 355.642 516.642 355.795 516.454 355.891C516.24 356 515.96 356 515.4 356H485V304Z" stroke="#110529" stroke-width="2" stroke-linecap="round"/>
<g filter="url(#filter5_i_4694_30369)">
<path d="M433 304H483.4C483.96 304 484.24 304 484.454 304.109C484.642 304.205 484.795 304.358 484.891 304.546C485 304.76 485 305.04 485 305.6V354.4C485 354.96 485 355.24 484.891 355.454C484.795 355.642 484.642 355.795 484.454 355.891C484.24 356 483.96 356 483.4 356H433V304Z" fill="#FFCB8F"/>
</g>
<path d="M433 304H483.4C483.96 304 484.24 304 484.454 304.109C484.642 304.205 484.795 304.358 484.891 304.546C485 304.76 485 305.04 485 305.6V354.4C485 354.96 485 355.24 484.891 355.454C484.795 355.642 484.642 355.795 484.454 355.891C484.24 356 483.96 356 483.4 356H433V304Z" stroke="#110529" stroke-width="2" stroke-linecap="round"/>
<path d="M410.447 338V323.6H412.247L419.757 334.85V323.6H421.557V338H419.757L412.247 326.74V338H410.447Z" fill="#110529"/>
<path d="M494.447 338V323.6H496.247L503.757 334.85V323.6H505.557V338H503.757L496.247 326.74V338H494.447Z" fill="#110529"/>
<path d="M452.593 338V323.6H457.033C457.18 323.6 457.437 323.603 457.803 323.61C458.17 323.617 458.52 323.643 458.853 323.69C459.967 323.837 460.897 324.243 461.643 324.91C462.397 325.57 462.963 326.41 463.343 327.43C463.723 328.45 463.913 329.573 463.913 330.8C463.913 332.027 463.723 333.15 463.343 334.17C462.963 335.19 462.397 336.033 461.643 336.7C460.897 337.36 459.967 337.763 458.853 337.91C458.52 337.95 458.167 337.977 457.793 337.99C457.427 337.997 457.173 338 457.033 338H452.593ZM454.423 336.3H457.033C457.287 336.3 457.57 336.293 457.883 336.28C458.197 336.26 458.47 336.23 458.703 336.19C459.49 336.043 460.127 335.713 460.613 335.2C461.1 334.687 461.457 334.047 461.683 333.28C461.91 332.513 462.023 331.687 462.023 330.8C462.023 329.893 461.907 329.057 461.673 328.29C461.447 327.523 461.09 326.887 460.603 326.38C460.117 325.873 459.483 325.55 458.703 325.41C458.47 325.363 458.193 325.333 457.873 325.32C457.553 325.307 457.273 325.3 457.033 325.3H454.423V336.3Z" fill="#110529"/>
<g filter="url(#filter6_i_4694_30369)">
<path d="M401 157.6C401 157.04 401 156.76 401.109 156.546C401.205 156.358 401.358 156.205 401.546 156.109C401.76 156 402.04 156 402.6 156H431.4C431.96 156 432.24 156 432.454 156.109C432.642 156.205 432.795 156.358 432.891 156.546C433 156.76 433 157.04 433 157.6V206.4C433 206.96 433 207.24 432.891 207.454C432.795 207.642 432.642 207.795 432.454 207.891C432.24 208 431.96 208 431.4 208H402.6C402.04 208 401.76 208 401.546 207.891C401.358 207.795 401.205 207.642 401.109 207.454C401 207.24 401 206.96 401 206.4V157.6Z" fill="#CBEB67"/>
</g>
<path d="M401 157.6C401 157.04 401 156.76 401.109 156.546C401.205 156.358 401.358 156.205 401.546 156.109C401.76 156 402.04 156 402.6 156H431.4C431.96 156 432.24 156 432.454 156.109C432.642 156.205 432.795 156.358 432.891 156.546C433 156.76 433 157.04 433 157.6V206.4C433 206.96 433 207.24 432.891 207.454C432.795 207.642 432.642 207.795 432.454 207.891C432.24 208 431.96 208 431.4 208H402.6C402.04 208 401.76 208 401.546 207.891C401.358 207.795 401.205 207.642 401.109 207.454C401 207.24 401 206.96 401 206.4V157.6Z" stroke="#110529" stroke-width="2" stroke-linecap="round"/>
<g filter="url(#filter7_i_4694_30369)">
<path d="M485 156H515.4C515.96 156 516.24 156 516.454 156.109C516.642 156.205 516.795 156.358 516.891 156.546C517 156.76 517 157.04 517 157.6V206.4C517 206.96 517 207.24 516.891 207.454C516.795 207.642 516.642 207.795 516.454 207.891C516.24 208 515.96 208 515.4 208H485V156Z" fill="#FAAAFA"/>
</g>
<path d="M485 156H515.4C515.96 156 516.24 156 516.454 156.109C516.642 156.205 516.795 156.358 516.891 156.546C517 156.76 517 157.04 517 157.6V206.4C517 206.96 517 207.24 516.891 207.454C516.795 207.642 516.642 207.795 516.454 207.891C516.24 208 515.96 208 515.4 208H485V156Z" stroke="#110529" stroke-width="2" stroke-linecap="round"/>
<g filter="url(#filter8_i_4694_30369)">
<path d="M433 156H483.4C483.96 156 484.24 156 484.454 156.109C484.642 156.205 484.795 156.358 484.891 156.546C485 156.76 485 157.04 485 157.6V206.4C485 206.96 485 207.24 484.891 207.454C484.795 207.642 484.642 207.795 484.454 207.891C484.24 208 483.96 208 483.4 208H433V156Z" fill="#FFCB8F"/>
</g>
<path d="M433 156H483.4C483.96 156 484.24 156 484.454 156.109C484.642 156.205 484.795 156.358 484.891 156.546C485 156.76 485 157.04 485 157.6V206.4C485 206.96 485 207.24 484.891 207.454C484.795 207.642 484.642 207.795 484.454 207.891C484.24 208 483.96 208 483.4 208H433V156Z" stroke="#110529" stroke-width="2" stroke-linecap="round"/>
<path d="M412.587 175H410.712V190H412.587V178.271L420.421 190H422.296V175H420.421V186.708L412.587 175Z" fill="#110529"/>
<path d="M496.587 175H494.712V190H496.587V178.271L504.421 190H506.296V175H504.421V186.708L496.587 175Z" fill="#110529"/>
<path d="M464.66 182.542C464.66 184.562 464.056 186.646 462.785 188.021C461.556 189.375 459.764 189.979 457.91 189.979H452.868V174.979L457.952 175C459.889 175 461.598 175.646 462.785 176.979C464.139 178.437 464.66 180.458 464.66 182.542ZM462.702 182.542C462.723 180.917 462.348 179.312 461.389 178.208C460.493 177.187 459.306 176.792 457.931 176.771L454.785 176.792V188.187L457.91 188.229C459.285 188.208 460.535 187.75 461.41 186.771C462.348 185.687 462.681 184.062 462.702 182.542Z" fill="#110529"/>
<path d="M459 271L458.293 271.707L459 272.414L459.707 271.707L459 271ZM467.707 263.707L468.414 263L467 261.586L466.293 262.293L467.707 263.707ZM451.707 262.293L451 261.586L449.586 263L450.293 263.707L451.707 262.293ZM458 240L458 271L460 271L460 240L458 240ZM459.707 271.707L467.707 263.707L466.293 262.293L458.293 270.293L459.707 271.707ZM459.707 270.293L451.707 262.293L450.293 263.707L458.293 271.707L459.707 270.293Z" fill="#110529"/>
<path d="M262.833 122L259.896 115.979C260.542 115.687 261.104 115.25 261.521 114.708C262.208 113.875 262.625 112.812 262.625 111.729C262.604 110.604 262.167 109.458 261.417 108.625C260.896 108 260.188 107.521 259.417 107.271C258.917 107.083 258.396 107 257.854 107H251.458V122H253.313V116.437H257.854H258.021L260.708 122H262.833ZM253.313 108.771H257.854C258.583 108.771 259.375 109.146 259.896 109.687C260.417 110.229 260.688 110.958 260.708 111.729C260.729 112.396 260.479 113.062 260.063 113.583C259.5 114.271 258.646 114.687 257.854 114.687H253.313V108.771ZM268.165 107L265.332 108.687V110.75L268.165 109.042V122H270.04V107H268.165Z" fill="#110529"/>
<path d="M42.8333 190L39.8958 183.979C40.5417 183.687 41.1042 183.25 41.5208 182.708C42.2083 181.875 42.625 180.812 42.625 179.729C42.6042 178.604 42.1667 177.458 41.4167 176.625C40.8958 176 40.1875 175.521 39.4167 175.271C38.9167 175.083 38.3958 175 37.8542 175H31.4583V190H33.3125V184.437H37.8542H38.0208L40.7083 190H42.8333ZM33.3125 176.771H37.8542C38.5833 176.771 39.375 177.146 39.8958 177.687C40.4167 178.229 40.6875 178.958 40.7083 179.729C40.7292 180.396 40.4792 181.062 40.0625 181.583C39.5 182.271 38.6458 182.687 37.8542 182.687H33.3125V176.771ZM48.1654 175L45.332 176.687V178.75L48.1654 177.042V190H50.0404V175H48.1654Z" fill="#110529"/>
<path d="M913.833 122L910.896 115.979C911.542 115.687 912.104 115.25 912.521 114.708C913.208 113.875 913.625 112.812 913.625 111.729C913.604 110.604 913.167 109.458 912.417 108.625C911.896 108 911.188 107.521 910.417 107.271C909.917 107.083 909.396 107 908.854 107H902.458V122H904.313V116.437H908.854H909.021L911.708 122H913.833ZM904.313 108.771H908.854C909.583 108.771 910.375 109.146 910.896 109.687C911.417 110.229 911.688 110.958 911.708 111.729C911.729 112.396 911.479 113.062 911.063 113.583C910.5 114.271 909.646 114.687 908.854 114.687H904.313V108.771ZM916.228 111.521H918.124C918.124 110.604 918.54 109.75 919.207 109.167C919.728 108.729 920.415 108.458 921.165 108.458C921.978 108.458 922.728 108.75 923.27 109.292C923.874 109.854 924.228 110.667 924.228 111.521C924.228 112.479 923.936 113.354 922.832 114.333L916.145 120.208L916.124 121.979H925.915V120.208H919.04L923.853 115.917C925.374 114.562 926.124 113.458 926.124 111.542C926.124 110.229 925.603 108.958 924.686 108.083C923.811 107.146 922.582 106.687 921.249 106.687C920.04 106.687 918.832 107.021 917.915 107.812C916.874 108.708 916.207 110.062 916.228 111.521Z" fill="#110529"/>
<path d="M657.833 190L654.896 183.979C655.542 183.687 656.104 183.25 656.521 182.708C657.208 181.875 657.625 180.812 657.625 179.729C657.604 178.604 657.167 177.458 656.417 176.625C655.896 176 655.188 175.521 654.417 175.271C653.917 175.083 653.396 175 652.854 175H646.458V190H648.313V184.437H652.854H653.021L655.708 190H657.833ZM648.313 176.771H652.854C653.583 176.771 654.375 177.146 654.896 177.687C655.417 178.229 655.688 178.958 655.708 179.729C655.729 180.396 655.479 181.062 655.063 181.583C654.5 182.271 653.646 182.687 652.854 182.687H648.313V176.771ZM660.228 179.521H662.124C662.124 178.604 662.54 177.75 663.207 177.167C663.728 176.729 664.415 176.458 665.165 176.458C665.978 176.458 666.728 176.75 667.27 177.292C667.874 177.854 668.228 178.667 668.228 179.521C668.228 180.479 667.936 181.354 666.832 182.333L660.145 188.208L660.124 189.979H669.915V188.208H663.04L667.853 183.917C669.374 182.562 670.124 181.458 670.124 179.542C670.124 178.229 669.603 176.958 668.686 176.083C667.811 175.146 666.582 174.687 665.249 174.687C664.04 174.687 662.832 175.021 661.915 175.812C660.874 176.708 660.207 178.062 660.228 179.521Z" fill="#110529"/>
<g filter="url(#filter9_i_4694_30369)">
<path d="M74 156H313L308 162.5L313 169L308 175.5L313 182L308 188.5L313 195L308 201.5L313 208H74L69 201.5L74 195L69 188L74 182L69 175.5L74 169L69 162.5L74 156Z" fill="#99E099"/>
</g>
<path d="M74 156H313L308 162.5L313 169L308 175.5L313 182L308 188.5L313 195L308 201.5L313 208H74L69 201.5L74 195L69 188L74 182L69 175.5L74 169L69 162.5L74 156Z" stroke="#110529" stroke-width="2" stroke-linecap="round"/>
<g filter="url(#filter10_i_4694_30369)">
<path d="M646 88H885L880 94.5L885 101L880 107.5L885 114L880 120.5L885 127L880 133.5L885 140H646L641 133.5L646 127L641 120L646 114L641 107.5L646 101L641 94.5L646 88Z" fill="#FAFAAA"/>
</g>
<path d="M646 88H885L880 94.5L885 101L880 107.5L885 114L880 120.5L885 127L880 133.5L885 140H646L641 133.5L646 127L641 120L646 114L641 107.5L646 101L641 94.5L646 88Z" stroke="#110529" stroke-width="2" stroke-linecap="round"/>
<g filter="url(#filter11_i_4694_30369)">
<path d="M646 304H885L880 310.5L885 317L880 323.5L885 330L880 336.5L885 343L880 349.5L885 356H646L641 349.5L646 343L641 336L646 330L641 323.5L646 317L641 310.5L646 304Z" fill="#FAFAAA"/>
</g>
<path d="M646 304H885L880 310.5L885 317L880 323.5L885 330L880 336.5L885 343L880 349.5L885 356H646L641 349.5L646 343L641 336L646 330L641 323.5L646 317L641 310.5L646 304Z" stroke="#110529" stroke-width="2" stroke-linecap="round"/>
<g filter="url(#filter12_i_4694_30369)">
<path d="M390 156H401V208H390L385 201.5L390 195L385 188L390 182L385 175.5L390 169L385 162.5L390 156Z" fill="#99E099"/>
</g>
<path d="M390 156H401V208H390L385 201.5L390 195L385 188L390 182L385 175.5L390 169L385 162.5L390 156Z" stroke="#110529" stroke-width="2" stroke-linecap="round"/>
<g filter="url(#filter13_i_4694_30369)">
<path d="M533 88H517V140H533L528 133.5L533 127L528 120L533 114L528 107.5L533 101L528 94.5L533 88Z" fill="#C1ADFF"/>
</g>
<path d="M533 88H517V140H533L528 133.5L533 127L528 120L533 114L528 107.5L533 101L528 94.5L533 88Z" stroke="#110529" stroke-width="2" stroke-linecap="round"/>
<g filter="url(#filter14_i_4694_30369)">
<path d="M629 304H613V356H629L624 349.5L629 343L624 336L629 330L624 323.5L629 317L624 310.5L629 304Z" fill="#FAFAAA"/>
</g>
<path d="M629 304H613V356H629L624 349.5L629 343L624 336L629 330L624 323.5L629 317L624 310.5L629 304Z" stroke="#110529" stroke-width="2" stroke-linecap="round"/>
<g filter="url(#filter15_i_4694_30369)">
<path d="M629 156H613V208H629L624 201.5L629 195L624 188L629 182L624 175.5L629 169L624 162.5L629 156Z" fill="#FAFAAA"/>
</g>
<path d="M629 156H613V208H629L624 201.5L629 195L624 188L629 182L624 175.5L629 169L624 162.5L629 156Z" stroke="#110529" stroke-width="2" stroke-linecap="round"/>
<path d="M345.209 122H347.792L352.813 107H350.896L346.48 120.021L342.126 107H340.188L345.209 122Z" fill="#110529"/>
<g filter="url(#filter16_i_4694_30369)">
<path d="M74 304H401V356H74L69 349.5L74 343L69 336L74 330L69 323.5L74 317L69 310.5L74 304Z" fill="#99E099"/>
</g>
<path d="M74 304H401V356H74L69 349.5L74 343L69 336L74 330L69 323.5L74 317L69 310.5L74 304Z" stroke="#110529" stroke-width="2" stroke-linecap="round"/>
<g filter="url(#filter17_i_4694_30369)">
<path d="M517 304H611.4C611.96 304 612.24 304 612.454 304.109C612.642 304.205 612.795 304.358 612.891 304.546C613 304.76 613 305.04 613 305.6V354.4C613 354.96 613 355.24 612.891 355.454C612.795 355.642 612.642 355.795 612.454 355.891C612.24 356 611.96 356 611.4 356H517V304Z" fill="#C1ADFF"/>
</g>
<path d="M517 304H611.4C611.96 304 612.24 304 612.454 304.109C612.642 304.205 612.795 304.358 612.891 304.546C613 304.76 613 305.04 613 305.6V354.4C613 354.96 613 355.24 612.891 355.454C612.795 355.642 612.642 355.795 612.454 355.891C612.24 356 611.96 356 611.4 356H517V304Z" stroke="#110529" stroke-width="2" stroke-linecap="round"/>
<path d="M234.258 338L229.438 323.6H231.288L235.478 336.11L239.708 323.6H241.558L236.738 338H234.258Z" fill="#110529"/>
<path d="M563.244 338.29C562.237 338.29 561.384 338.017 560.684 337.47C559.984 336.923 559.504 336.19 559.244 335.27L561.014 334.85C561.121 335.337 561.377 335.75 561.784 336.09C562.197 336.43 562.671 336.6 563.204 336.6C563.551 336.6 563.904 336.517 564.264 336.35C564.624 336.177 564.901 335.897 565.094 335.51C565.227 335.243 565.304 334.95 565.324 334.63C565.344 334.303 565.354 333.92 565.354 333.48V323.6H567.154V333.48C567.154 333.893 567.151 334.263 567.144 334.59C567.144 334.917 567.111 335.23 567.044 335.53C566.984 335.823 566.864 336.123 566.684 336.43C566.324 337.063 565.841 337.533 565.234 337.84C564.634 338.14 563.971 338.29 563.244 338.29Z" fill="#110529"/>
<path d="M568.289 175V185.292C568.289 186.604 568.289 187.312 567.727 188.312C566.956 189.604 565.768 190.312 564.143 190.312C563.372 190.312 562.622 190.146 561.977 189.729C561.018 189.187 560.331 188.208 560.039 187.146L561.893 186.708C561.997 187.292 562.372 187.812 562.872 188.146C563.227 188.396 563.685 188.542 564.122 188.542C564.914 188.542 565.747 188.125 566.102 187.354C566.372 186.792 566.372 186.375 566.372 185.292V175H568.289Z" fill="#110529"/>
<path d="M767.863 117.021C767.696 117.646 767.404 118.25 767.029 118.771C766.154 119.958 764.675 120.562 763.175 120.542C761.675 120.542 760.196 119.958 759.321 118.771C758.425 117.583 758.154 116.021 758.133 114.5C758.154 112.958 758.425 111.396 759.321 110.229C760.196 109.042 761.675 108.437 763.175 108.458C764.675 108.458 766.154 109.042 767.029 110.229C767.467 110.792 767.738 111.458 767.925 112.146L769.842 111.833C769.592 110.875 769.175 109.937 768.508 109.083C767.258 107.479 765.279 106.687 763.175 106.687C761.05 106.687 759.092 107.458 757.842 109.083C756.613 110.625 756.175 112.521 756.154 114.5C756.133 116.417 756.613 118.354 757.842 119.896C759.092 121.479 761.029 122.312 763.175 122.312C765.258 122.312 767.217 121.542 768.508 119.896C769.071 119.188 769.467 118.375 769.717 117.562L767.863 117.021Z" fill="#110529"/>
<path d="M767.863 333.021C767.696 333.646 767.404 334.25 767.029 334.771C766.154 335.958 764.675 336.562 763.175 336.542C761.675 336.542 760.196 335.958 759.321 334.771C758.425 333.583 758.154 332.021 758.133 330.5C758.154 328.958 758.425 327.396 759.321 326.229C760.196 325.042 761.675 324.437 763.175 324.458C764.675 324.458 766.154 325.042 767.029 326.229C767.467 326.792 767.738 327.458 767.925 328.146L769.842 327.833C769.592 326.875 769.175 325.937 768.508 325.083C767.258 323.479 765.279 322.687 763.175 322.687C761.05 322.687 759.092 323.458 757.842 325.083C756.613 326.625 756.175 328.521 756.154 330.5C756.133 332.417 756.613 334.354 757.842 335.896C759.092 337.479 761.029 338.312 763.175 338.312C765.258 338.312 767.217 337.542 768.508 335.896C769.071 335.188 769.467 334.375 769.717 333.562L767.863 333.021Z" fill="#110529"/>
<path d="M192.209 190H194.792L199.813 175H197.896L193.48 188.021L189.126 175H187.188L192.209 190Z" fill="#110529"/>
<g filter="url(#filter18_i_4694_30369)">
<path d="M294 88H401V140H294L289 133.5L294 127L289 120L294 114L289 107.5L294 101L289 94.5L294 88Z" fill="#99E099"/>
</g>
<path d="M294 88H401V140H294L289 133.5L294 127L289 120L294 114L289 107.5L294 101L289 94.5L294 88Z" stroke="#110529" stroke-width="2" stroke-linecap="round"/>
<g filter="url(#filter19_i_4694_30369)">
<path d="M517 156H611.4C611.96 156 612.24 156 612.454 156.109C612.642 156.205 612.795 156.358 612.891 156.546C613 156.76 613 157.04 613 157.6V206.4C613 206.96 613 207.24 612.891 207.454C612.795 207.642 612.642 207.795 612.454 207.891C612.24 208 611.96 208 611.4 208H517V156Z" fill="#C1ADFF"/>
</g>
<path d="M517 156H611.4C611.96 156 612.24 156 612.454 156.109C612.642 156.205 612.795 156.358 612.891 156.546C613 156.76 613 157.04 613 157.6V206.4C613 206.96 613 207.24 612.891 207.454C612.795 207.642 612.642 207.795 612.454 207.891C612.24 208 611.96 208 611.4 208H517V156Z" stroke="#110529" stroke-width="2" stroke-linecap="round"/>
<path d="M426.756 42.3C425.322 42.3 424.106 41.9833 423.106 41.35C422.106 40.7167 421.342 39.8367 420.816 38.71C420.296 37.5833 420.036 36.28 420.036 34.8C420.036 33.32 420.296 32.0167 420.816 30.89C421.342 29.7633 422.106 28.8833 423.106 28.25C424.106 27.6167 425.322 27.3 426.756 27.3C428.422 27.3 429.792 27.7233 430.866 28.57C431.946 29.4167 432.689 30.5567 433.096 31.99L431.286 32.47C430.992 31.3967 430.469 30.55 429.716 29.93C428.962 29.31 427.976 29 426.756 29C425.682 29 424.789 29.2433 424.076 29.73C423.362 30.2167 422.826 30.8967 422.466 31.77C422.106 32.6367 421.922 33.6467 421.916 34.8C421.909 35.9467 422.086 36.9567 422.446 37.83C422.806 38.6967 423.346 39.3767 424.066 39.87C424.786 40.3567 425.682 40.6 426.756 40.6C427.976 40.6 428.962 40.29 429.716 39.67C430.469 39.0433 430.992 38.1967 431.286 37.13L433.096 37.61C432.689 39.0367 431.946 40.1767 430.866 41.03C429.792 41.8767 428.422 42.3 426.756 42.3ZM435.289 42V27.6H439.729C439.875 27.6 440.132 27.6033 440.499 27.61C440.865 27.6167 441.215 27.6433 441.549 27.69C442.662 27.8367 443.592 28.2433 444.339 28.91C445.092 29.57 445.659 30.41 446.039 31.43C446.419 32.45 446.609 33.5733 446.609 34.8C446.609 36.0267 446.419 37.15 446.039 38.17C445.659 39.19 445.092 40.0333 444.339 40.7C443.592 41.36 442.662 41.7633 441.549 41.91C441.215 41.95 440.862 41.9767 440.489 41.99C440.122 41.9967 439.869 42 439.729 42H435.289ZM437.119 40.3H439.729C439.982 40.3 440.265 40.2933 440.579 40.28C440.892 40.26 441.165 40.23 441.399 40.19C442.185 40.0433 442.822 39.7133 443.309 39.2C443.795 38.6867 444.152 38.0467 444.379 37.28C444.605 36.5133 444.719 35.6867 444.719 34.8C444.719 33.8933 444.602 33.0567 444.369 32.29C444.142 31.5233 443.785 30.8867 443.299 30.38C442.812 29.8733 442.179 29.55 441.399 29.41C441.165 29.3633 440.889 29.3333 440.569 29.32C440.249 29.3067 439.969 29.3 439.729 29.3H437.119V40.3ZM448.902 42V27.6H454.592C454.732 27.6 454.899 27.6067 455.092 27.62C455.285 27.6267 455.472 27.6467 455.652 27.68C456.432 27.8 457.085 28.0667 457.612 28.48C458.145 28.8933 458.545 29.4167 458.812 30.05C459.079 30.6767 459.212 31.3733 459.212 32.14C459.212 33.2533 458.922 34.22 458.342 35.04C457.762 35.8533 456.912 36.3633 455.792 36.57L455.112 36.68H450.682V42H448.902ZM457.472 42L454.632 36.14L456.392 35.6L459.512 42H457.472ZM450.682 34.99H454.532C454.659 34.99 454.802 34.9833 454.962 34.97C455.129 34.9567 455.285 34.9333 455.432 34.9C455.892 34.7933 456.265 34.6 456.552 34.32C456.845 34.0333 457.059 33.7 457.192 33.32C457.325 32.9333 457.392 32.54 457.392 32.14C457.392 31.74 457.325 31.35 457.192 30.97C457.059 30.5833 456.845 30.2467 456.552 29.96C456.265 29.6733 455.892 29.48 455.432 29.38C455.285 29.34 455.129 29.3167 454.962 29.31C454.802 29.2967 454.659 29.29 454.532 29.29H450.682V34.99ZM465.664 42.28C464.951 42.28 464.288 42.15 463.674 41.89C463.061 41.6233 462.531 41.25 462.084 40.77C461.644 40.2833 461.321 39.7067 461.114 39.04L462.824 38.55C463.044 39.2167 463.411 39.7233 463.924 40.07C464.438 40.4167 465.014 40.5867 465.654 40.58C466.241 40.5667 466.748 40.4333 467.174 40.18C467.608 39.92 467.941 39.5667 468.174 39.12C468.414 38.6733 468.534 38.1567 468.534 37.57C468.534 36.6767 468.268 35.9533 467.734 35.4C467.201 34.84 466.501 34.56 465.634 34.56C465.394 34.56 465.141 34.5933 464.874 34.66C464.614 34.7267 464.371 34.82 464.144 34.94L463.284 33.53L468.624 28.7L468.854 29.3H461.684V27.6H470.174V29.31L465.624 33.67L465.604 33.04C466.558 32.9733 467.391 33.13 468.104 33.51C468.818 33.89 469.371 34.4333 469.764 35.14C470.164 35.8467 470.364 36.6567 470.364 37.57C470.364 38.49 470.158 39.3033 469.744 40.01C469.331 40.7167 468.771 41.2733 468.064 41.68C467.358 42.08 466.558 42.28 465.664 42.28Z" fill="#D3D7E0"/>
<defs>
<filter id="filter0_i_4694_30369" x="400" y="87" width="34" height="54" filterUnits="userSpaceOnUse" color-interpolation-filters="sRGB">
<feFlood flood-opacity="0" result="BackgroundImageFix"/>
<feBlend mode="normal" in="SourceGraphic" in2="BackgroundImageFix" result="shape"/>
<feColorMatrix in="SourceAlpha" type="matrix" values="0 0 0 0 0 0 0 0 0 0 0 0 0 0 0 0 0 0 127 0" result="hardAlpha"/>
<feOffset dx="-8" dy="-4"/>
<feComposite in2="hardAlpha" operator="arithmetic" k2="-1" k3="1"/>
<feColorMatrix type="matrix" values="0 0 0 0 0.0666667 0 0 0 0 0.0196078 0 0 0 0 0.160784 0 0 0 0.16 0"/>
<feBlend mode="normal" in2="shape" result="effect1_innerShadow_4694_30369"/>
</filter>
<filter id="filter1_i_4694_30369" x="484" y="87" width="34" height="54" filterUnits="userSpaceOnUse" color-interpolation-filters="sRGB">
<feFlood flood-opacity="0" result="BackgroundImageFix"/>
<feBlend mode="normal" in="SourceGraphic" in2="BackgroundImageFix" result="shape"/>
<feColorMatrix in="SourceAlpha" type="matrix" values="0 0 0 0 0 0 0 0 0 0 0 0 0 0 0 0 0 0 127 0" result="hardAlpha"/>
<feOffset dx="-8" dy="-4"/>
<feComposite in2="hardAlpha" operator="arithmetic" k2="-1" k3="1"/>
<feColorMatrix type="matrix" values="0 0 0 0 0.0666667 0 0 0 0 0.0196078 0 0 0 0 0.160784 0 0 0 0.16 0"/>
<feBlend mode="normal" in2="shape" result="effect1_innerShadow_4694_30369"/>
</filter>
<filter id="filter2_i_4694_30369" x="432" y="87" width="54" height="54" filterUnits="userSpaceOnUse" color-interpolation-filters="sRGB">
<feFlood flood-opacity="0" result="BackgroundImageFix"/>
<feBlend mode="normal" in="SourceGraphic" in2="BackgroundImageFix" result="shape"/>
<feColorMatrix in="SourceAlpha" type="matrix" values="0 0 0 0 0 0 0 0 0 0 0 0 0 0 0 0 0 0 127 0" result="hardAlpha"/>
<feOffset dx="-8" dy="-4"/>
<feComposite in2="hardAlpha" operator="arithmetic" k2="-1" k3="1"/>
<feColorMatrix type="matrix" values="0 0 0 0 0.0666667 0 0 0 0 0.0196078 0 0 0 0 0.160784 0 0 0 0.16 0"/>
<feBlend mode="normal" in2="shape" result="effect1_innerShadow_4694_30369"/>
</filter>
<filter id="filter3_i_4694_30369" x="400" y="303" width="34" height="54" filterUnits="userSpaceOnUse" color-interpolation-filters="sRGB">
<feFlood flood-opacity="0" result="BackgroundImageFix"/>
<feBlend mode="normal" in="SourceGraphic" in2="BackgroundImageFix" result="shape"/>
<feColorMatrix in="SourceAlpha" type="matrix" values="0 0 0 0 0 0 0 0 0 0 0 0 0 0 0 0 0 0 127 0" result="hardAlpha"/>
<feOffset dx="-8" dy="-4"/>
<feComposite in2="hardAlpha" operator="arithmetic" k2="-1" k3="1"/>
<feColorMatrix type="matrix" values="0 0 0 0 0.0666667 0 0 0 0 0.0196078 0 0 0 0 0.160784 0 0 0 0.16 0"/>
<feBlend mode="normal" in2="shape" result="effect1_innerShadow_4694_30369"/>
</filter>
<filter id="filter4_i_4694_30369" x="484" y="303" width="34" height="54" filterUnits="userSpaceOnUse" color-interpolation-filters="sRGB">
<feFlood flood-opacity="0" result="BackgroundImageFix"/>
<feBlend mode="normal" in="SourceGraphic" in2="BackgroundImageFix" result="shape"/>
<feColorMatrix in="SourceAlpha" type="matrix" values="0 0 0 0 0 0 0 0 0 0 0 0 0 0 0 0 0 0 127 0" result="hardAlpha"/>
<feOffset dx="-8" dy="-4"/>
<feComposite in2="hardAlpha" operator="arithmetic" k2="-1" k3="1"/>
<feColorMatrix type="matrix" values="0 0 0 0 0.0666667 0 0 0 0 0.0196078 0 0 0 0 0.160784 0 0 0 0.16 0"/>
<feBlend mode="normal" in2="shape" result="effect1_innerShadow_4694_30369"/>
</filter>
<filter id="filter5_i_4694_30369" x="432" y="303" width="54" height="54" filterUnits="userSpaceOnUse" color-interpolation-filters="sRGB">
<feFlood flood-opacity="0" result="BackgroundImageFix"/>
<feBlend mode="normal" in="SourceGraphic" in2="BackgroundImageFix" result="shape"/>
<feColorMatrix in="SourceAlpha" type="matrix" values="0 0 0 0 0 0 0 0 0 0 0 0 0 0 0 0 0 0 127 0" result="hardAlpha"/>
<feOffset dx="-8" dy="-4"/>
<feComposite in2="hardAlpha" operator="arithmetic" k2="-1" k3="1"/>
<feColorMatrix type="matrix" values="0 0 0 0 0.0666667 0 0 0 0 0.0196078 0 0 0 0 0.160784 0 0 0 0.16 0"/>
<feBlend mode="normal" in2="shape" result="effect1_innerShadow_4694_30369"/>
</filter>
<filter id="filter6_i_4694_30369" x="400" y="155" width="34" height="54" filterUnits="userSpaceOnUse" color-interpolation-filters="sRGB">
<feFlood flood-opacity="0" result="BackgroundImageFix"/>
<feBlend mode="normal" in="SourceGraphic" in2="BackgroundImageFix" result="shape"/>
<feColorMatrix in="SourceAlpha" type="matrix" values="0 0 0 0 0 0 0 0 0 0 0 0 0 0 0 0 0 0 127 0" result="hardAlpha"/>
<feOffset dx="-8" dy="-4"/>
<feComposite in2="hardAlpha" operator="arithmetic" k2="-1" k3="1"/>
<feColorMatrix type="matrix" values="0 0 0 0 0.0666667 0 0 0 0 0.0196078 0 0 0 0 0.160784 0 0 0 0.16 0"/>
<feBlend mode="normal" in2="shape" result="effect1_innerShadow_4694_30369"/>
</filter>
<filter id="filter7_i_4694_30369" x="484" y="155" width="34" height="54" filterUnits="userSpaceOnUse" color-interpolation-filters="sRGB">
<feFlood flood-opacity="0" result="BackgroundImageFix"/>
<feBlend mode="normal" in="SourceGraphic" in2="BackgroundImageFix" result="shape"/>
<feColorMatrix in="SourceAlpha" type="matrix" values="0 0 0 0 0 0 0 0 0 0 0 0 0 0 0 0 0 0 127 0" result="hardAlpha"/>
<feOffset dx="-8" dy="-4"/>
<feComposite in2="hardAlpha" operator="arithmetic" k2="-1" k3="1"/>
<feColorMatrix type="matrix" values="0 0 0 0 0.0666667 0 0 0 0 0.0196078 0 0 0 0 0.160784 0 0 0 0.16 0"/>
<feBlend mode="normal" in2="shape" result="effect1_innerShadow_4694_30369"/>
</filter>
<filter id="filter8_i_4694_30369" x="432" y="155" width="54" height="54" filterUnits="userSpaceOnUse" color-interpolation-filters="sRGB">
<feFlood flood-opacity="0" result="BackgroundImageFix"/>
<feBlend mode="normal" in="SourceGraphic" in2="BackgroundImageFix" result="shape"/>
<feColorMatrix in="SourceAlpha" type="matrix" values="0 0 0 0 0 0 0 0 0 0 0 0 0 0 0 0 0 0 127 0" result="hardAlpha"/>
<feOffset dx="-8" dy="-4"/>
<feComposite in2="hardAlpha" operator="arithmetic" k2="-1" k3="1"/>
<feColorMatrix type="matrix" values="0 0 0 0 0.0666667 0 0 0 0 0.0196078 0 0 0 0 0.160784 0 0 0 0.16 0"/>
<feBlend mode="normal" in2="shape" result="effect1_innerShadow_4694_30369"/>
</filter>
<filter id="filter9_i_4694_30369" x="67.7375" y="155" width="247.293" height="54" filterUnits="userSpaceOnUse" color-interpolation-filters="sRGB">
<feFlood flood-opacity="0" result="BackgroundImageFix"/>
<feBlend mode="normal" in="SourceGraphic" in2="BackgroundImageFix" result="shape"/>
<feColorMatrix in="SourceAlpha" type="matrix" values="0 0 0 0 0 0 0 0 0 0 0 0 0 0 0 0 0 0 127 0" result="hardAlpha"/>
<feOffset dx="-8" dy="-4"/>
<feComposite in2="hardAlpha" operator="arithmetic" k2="-1" k3="1"/>
<feColorMatrix type="matrix" values="0 0 0 0 0.0666667 0 0 0 0 0.0196078 0 0 0 0 0.160784 0 0 0 0.16 0"/>
<feBlend mode="normal" in2="shape" result="effect1_innerShadow_4694_30369"/>
</filter>
<filter id="filter10_i_4694_30369" x="639.738" y="87" width="247.293" height="54" filterUnits="userSpaceOnUse" color-interpolation-filters="sRGB">
<feFlood flood-opacity="0" result="BackgroundImageFix"/>
<feBlend mode="normal" in="SourceGraphic" in2="BackgroundImageFix" result="shape"/>
<feColorMatrix in="SourceAlpha" type="matrix" values="0 0 0 0 0 0 0 0 0 0 0 0 0 0 0 0 0 0 127 0" result="hardAlpha"/>
<feOffset dx="-8" dy="-4"/>
<feComposite in2="hardAlpha" operator="arithmetic" k2="-1" k3="1"/>
<feColorMatrix type="matrix" values="0 0 0 0 0.0666667 0 0 0 0 0.0196078 0 0 0 0 0.160784 0 0 0 0.16 0"/>
<feBlend mode="normal" in2="shape" result="effect1_innerShadow_4694_30369"/>
</filter>
<filter id="filter11_i_4694_30369" x="639.738" y="303" width="247.293" height="54" filterUnits="userSpaceOnUse" color-interpolation-filters="sRGB">
<feFlood flood-opacity="0" result="BackgroundImageFix"/>
<feBlend mode="normal" in="SourceGraphic" in2="BackgroundImageFix" result="shape"/>
<feColorMatrix in="SourceAlpha" type="matrix" values="0 0 0 0 0 0 0 0 0 0 0 0 0 0 0 0 0 0 127 0" result="hardAlpha"/>
<feOffset dx="-8" dy="-4"/>
<feComposite in2="hardAlpha" operator="arithmetic" k2="-1" k3="1"/>
<feColorMatrix type="matrix" values="0 0 0 0 0.0666667 0 0 0 0 0.0196078 0 0 0 0 0.160784 0 0 0 0.16 0"/>
<feBlend mode="normal" in2="shape" result="effect1_innerShadow_4694_30369"/>
</filter>
<filter id="filter12_i_4694_30369" x="383.738" y="155" width="18.2625" height="54" filterUnits="userSpaceOnUse" color-interpolation-filters="sRGB">
<feFlood flood-opacity="0" result="BackgroundImageFix"/>
<feBlend mode="normal" in="SourceGraphic" in2="BackgroundImageFix" result="shape"/>
<feColorMatrix in="SourceAlpha" type="matrix" values="0 0 0 0 0 0 0 0 0 0 0 0 0 0 0 0 0 0 127 0" result="hardAlpha"/>
<feOffset dx="-8" dy="-4"/>
<feComposite in2="hardAlpha" operator="arithmetic" k2="-1" k3="1"/>
<feColorMatrix type="matrix" values="0 0 0 0 0.0666667 0 0 0 0 0.0196078 0 0 0 0 0.160784 0 0 0 0.16 0"/>
<feBlend mode="normal" in2="shape" result="effect1_innerShadow_4694_30369"/>
</filter>
<filter id="filter13_i_4694_30369" x="516" y="87" width="19.0308" height="54" filterUnits="userSpaceOnUse" color-interpolation-filters="sRGB">
<feFlood flood-opacity="0" result="BackgroundImageFix"/>
<feBlend mode="normal" in="SourceGraphic" in2="BackgroundImageFix" result="shape"/>
<feColorMatrix in="SourceAlpha" type="matrix" values="0 0 0 0 0 0 0 0 0 0 0 0 0 0 0 0 0 0 127 0" result="hardAlpha"/>
<feOffset dx="-8" dy="-4"/>
<feComposite in2="hardAlpha" operator="arithmetic" k2="-1" k3="1"/>
<feColorMatrix type="matrix" values="0 0 0 0 0.0666667 0 0 0 0 0.0196078 0 0 0 0 0.160784 0 0 0 0.16 0"/>
<feBlend mode="normal" in2="shape" result="effect1_innerShadow_4694_30369"/>
</filter>
<filter id="filter14_i_4694_30369" x="612" y="303" width="19.0308" height="54" filterUnits="userSpaceOnUse" color-interpolation-filters="sRGB">
<feFlood flood-opacity="0" result="BackgroundImageFix"/>
<feBlend mode="normal" in="SourceGraphic" in2="BackgroundImageFix" result="shape"/>
<feColorMatrix in="SourceAlpha" type="matrix" values="0 0 0 0 0 0 0 0 0 0 0 0 0 0 0 0 0 0 127 0" result="hardAlpha"/>
<feOffset dx="-8" dy="-4"/>
<feComposite in2="hardAlpha" operator="arithmetic" k2="-1" k3="1"/>
<feColorMatrix type="matrix" values="0 0 0 0 0.0666667 0 0 0 0 0.0196078 0 0 0 0 0.160784 0 0 0 0.16 0"/>
<feBlend mode="normal" in2="shape" result="effect1_innerShadow_4694_30369"/>
</filter>
<filter id="filter15_i_4694_30369" x="612" y="155" width="19.0308" height="54" filterUnits="userSpaceOnUse" color-interpolation-filters="sRGB">
<feFlood flood-opacity="0" result="BackgroundImageFix"/>
<feBlend mode="normal" in="SourceGraphic" in2="BackgroundImageFix" result="shape"/>
<feColorMatrix in="SourceAlpha" type="matrix" values="0 0 0 0 0 0 0 0 0 0 0 0 0 0 0 0 0 0 127 0" result="hardAlpha"/>
<feOffset dx="-8" dy="-4"/>
<feComposite in2="hardAlpha" operator="arithmetic" k2="-1" k3="1"/>
<feColorMatrix type="matrix" values="0 0 0 0 0.0666667 0 0 0 0 0.0196078 0 0 0 0 0.160784 0 0 0 0.16 0"/>
<feBlend mode="normal" in2="shape" result="effect1_innerShadow_4694_30369"/>
</filter>
<filter id="filter16_i_4694_30369" x="67.7375" y="303" width="334.262" height="54" filterUnits="userSpaceOnUse" color-interpolation-filters="sRGB">
<feFlood flood-opacity="0" result="BackgroundImageFix"/>
<feBlend mode="normal" in="SourceGraphic" in2="BackgroundImageFix" result="shape"/>
<feColorMatrix in="SourceAlpha" type="matrix" values="0 0 0 0 0 0 0 0 0 0 0 0 0 0 0 0 0 0 127 0" result="hardAlpha"/>
<feOffset dx="-8" dy="-4"/>
<feComposite in2="hardAlpha" operator="arithmetic" k2="-1" k3="1"/>
<feColorMatrix type="matrix" values="0 0 0 0 0.0666667 0 0 0 0 0.0196078 0 0 0 0 0.160784 0 0 0 0.16 0"/>
<feBlend mode="normal" in2="shape" result="effect1_innerShadow_4694_30369"/>
</filter>
<filter id="filter17_i_4694_30369" x="516" y="303" width="98" height="54" filterUnits="userSpaceOnUse" color-interpolation-filters="sRGB">
<feFlood flood-opacity="0" result="BackgroundImageFix"/>
<feBlend mode="normal" in="SourceGraphic" in2="BackgroundImageFix" result="shape"/>
<feColorMatrix in="SourceAlpha" type="matrix" values="0 0 0 0 0 0 0 0 0 0 0 0 0 0 0 0 0 0 127 0" result="hardAlpha"/>
<feOffset dx="-8" dy="-4"/>
<feComposite in2="hardAlpha" operator="arithmetic" k2="-1" k3="1"/>
<feColorMatrix type="matrix" values="0 0 0 0 0.0666667 0 0 0 0 0.0196078 0 0 0 0 0.160784 0 0 0 0.16 0"/>
<feBlend mode="normal" in2="shape" result="effect1_innerShadow_4694_30369"/>
</filter>
<filter id="filter18_i_4694_30369" x="287.738" y="87" width="114.262" height="54" filterUnits="userSpaceOnUse" color-interpolation-filters="sRGB">
<feFlood flood-opacity="0" result="BackgroundImageFix"/>
<feBlend mode="normal" in="SourceGraphic" in2="BackgroundImageFix" result="shape"/>
<feColorMatrix in="SourceAlpha" type="matrix" values="0 0 0 0 0 0 0 0 0 0 0 0 0 0 0 0 0 0 127 0" result="hardAlpha"/>
<feOffset dx="-8" dy="-4"/>
<feComposite in2="hardAlpha" operator="arithmetic" k2="-1" k3="1"/>
<feColorMatrix type="matrix" values="0 0 0 0 0.0666667 0 0 0 0 0.0196078 0 0 0 0 0.160784 0 0 0 0.16 0"/>
<feBlend mode="normal" in2="shape" result="effect1_innerShadow_4694_30369"/>
</filter>
<filter id="filter19_i_4694_30369" x="516" y="155" width="98" height="54" filterUnits="userSpaceOnUse" color-interpolation-filters="sRGB">
<feFlood flood-opacity="0" result="BackgroundImageFix"/>
<feBlend mode="normal" in="SourceGraphic" in2="BackgroundImageFix" result="shape"/>
<feColorMatrix in="SourceAlpha" type="matrix" values="0 0 0 0 0 0 0 0 0 0 0 0 0 0 0 0 0 0 127 0" result="hardAlpha"/>
<feOffset dx="-8" dy="-4"/>
<feComposite in2="hardAlpha" operator="arithmetic" k2="-1" k3="1"/>
<feColorMatrix type="matrix" values="0 0 0 0 0.0666667 0 0 0 0 0.0196078 0 0 0 0 0.160784 0 0 0 0.16 0"/>
<feBlend mode="normal" in2="shape" result="effect1_innerShadow_4694_30369"/>
</filter>
</defs>
</svg>
