<svg width="960" height="402" viewBox="0 0 960 402" fill="none" xmlns="http://www.w3.org/2000/svg">
<rect width="960" height="402" fill="white"/>
<path d="M140 132V24" stroke="#D3D7E0" stroke-width="2" stroke-linecap="square" stroke-dasharray="6 6"/>
<path d="M174.858 37H176.321V32.695H179.989V31.225H176.321V28.383H180.829V26.92H174.858V37ZM182.09 37H183.553V33.381H186.227L187.984 37H189.657L187.753 33.094C188.894 32.597 189.468 31.491 189.468 30.147C189.468 28.516 188.628 27.235 186.941 26.976C186.675 26.934 186.36 26.92 186.164 26.92H182.09V37ZM183.553 31.995V28.299H186.108C186.29 28.299 186.535 28.313 186.745 28.369C187.641 28.579 187.977 29.405 187.977 30.147C187.977 30.889 187.641 31.715 186.745 31.932C186.535 31.981 186.29 31.995 186.108 31.995H183.553ZM192.953 37H194.444V26.92H192.953L191.056 28.054V29.685L192.953 28.53V37Z" fill="#D3D7E0"/>
<path d="M230 132V24" stroke="#D3D7E0" stroke-width="2" stroke-linecap="square" stroke-dasharray="6 6"/>
<path d="M262.735 37.21C265.059 37.21 266.62 35.943 267.215 33.955L265.731 33.556C265.332 34.963 264.331 35.817 262.735 35.817C260.593 35.817 259.501 34.27 259.515 31.96C259.522 29.65 260.593 28.103 262.735 28.103C264.331 28.103 265.332 28.957 265.731 30.364L267.215 29.965C266.62 27.977 265.059 26.71 262.735 26.71C259.711 26.71 257.968 28.845 257.968 31.96C257.968 35.075 259.711 37.21 262.735 37.21ZM268.754 37H271.911C272.093 37 272.695 37 273.164 36.937C275.53 36.636 276.79 34.529 276.79 31.96C276.79 29.391 275.53 27.284 273.164 26.983C272.695 26.92 272.093 26.92 271.911 26.92H268.754V37ZM270.252 35.607V28.313H271.911C272.219 28.313 272.723 28.32 273.059 28.383C274.571 28.663 275.236 30.189 275.236 31.96C275.236 33.689 274.599 35.243 273.059 35.537C272.723 35.6 272.233 35.607 271.911 35.607H270.252ZM278.42 37H279.883V33.381H282.557L284.314 37H285.987L284.083 33.094C285.224 32.597 285.798 31.491 285.798 30.147C285.798 28.516 284.958 27.235 283.271 26.976C283.005 26.934 282.69 26.92 282.494 26.92H278.42V37ZM279.883 31.995V28.299H282.438C282.62 28.299 282.865 28.313 283.075 28.369C283.971 28.579 284.307 29.405 284.307 30.147C284.307 30.889 283.971 31.715 283.075 31.932C282.865 31.981 282.62 31.995 282.438 31.995H279.883ZM289.283 37H290.774V26.92H289.283L287.386 28.054V29.685L289.283 28.53V37Z" fill="#D3D7E0"/>
<path d="M320 132V24" stroke="#D3D7E0" stroke-width="2" stroke-linecap="square" stroke-dasharray="6 6"/>
<path d="M353.703 37H355.166V32.695H358.834V31.225H355.166V28.383H359.674V26.92H353.703V37ZM360.935 37H362.398V33.381H365.072L366.829 37H368.502L366.598 33.094C367.739 32.597 368.313 31.491 368.313 30.147C368.313 28.516 367.473 27.235 365.786 26.976C365.52 26.934 365.205 26.92 365.009 26.92H360.935V37ZM362.398 31.995V28.299H364.953C365.135 28.299 365.38 28.313 365.59 28.369C366.486 28.579 366.822 29.405 366.822 30.147C366.822 30.889 366.486 31.715 365.59 31.932C365.38 31.981 365.135 31.995 364.953 31.995H362.398ZM369.761 36.993H376.579V35.6H372.022L374.941 32.996C376.033 32.037 376.579 31.407 376.579 30.028C376.579 28.117 375.144 26.71 373.24 26.71C371.231 26.71 369.796 28.047 369.796 30H371.294C371.28 28.985 372.092 28.103 373.212 28.103C374.297 28.103 375.074 28.929 375.074 30.007C375.074 30.581 374.864 31.127 374.157 31.757L369.768 35.691L369.761 36.993Z" fill="#D3D7E0"/>
<path d="M410 132V24" stroke="#D3D7E0" stroke-width="2" stroke-linecap="square" stroke-dasharray="6 6"/>
<path d="M441.58 37.21C443.904 37.21 445.465 35.943 446.06 33.955L444.576 33.556C444.177 34.963 443.176 35.817 441.58 35.817C439.438 35.817 438.346 34.27 438.36 31.96C438.367 29.65 439.438 28.103 441.58 28.103C443.176 28.103 444.177 28.957 444.576 30.364L446.06 29.965C445.465 27.977 443.904 26.71 441.58 26.71C438.556 26.71 436.813 28.845 436.813 31.96C436.813 35.075 438.556 37.21 441.58 37.21ZM447.599 37H450.756C450.938 37 451.54 37 452.009 36.937C454.375 36.636 455.635 34.529 455.635 31.96C455.635 29.391 454.375 27.284 452.009 26.983C451.54 26.92 450.938 26.92 450.756 26.92H447.599V37ZM449.097 35.607V28.313H450.756C451.064 28.313 451.568 28.32 451.904 28.383C453.416 28.663 454.081 30.189 454.081 31.96C454.081 33.689 453.444 35.243 451.904 35.537C451.568 35.6 451.078 35.607 450.756 35.607H449.097ZM457.265 37H458.728V33.381H461.402L463.159 37H464.832L462.928 33.094C464.069 32.597 464.643 31.491 464.643 30.147C464.643 28.516 463.803 27.235 462.116 26.976C461.85 26.934 461.535 26.92 461.339 26.92H457.265V37ZM458.728 31.995V28.299H461.283C461.465 28.299 461.71 28.313 461.92 28.369C462.816 28.579 463.152 29.405 463.152 30.147C463.152 30.889 462.816 31.715 461.92 31.932C461.71 31.981 461.465 31.995 461.283 31.995H458.728ZM466.091 36.993H472.909V35.6H468.352L471.271 32.996C472.363 32.037 472.909 31.407 472.909 30.028C472.909 28.117 471.474 26.71 469.57 26.71C467.561 26.71 466.126 28.047 466.126 30H467.624C467.61 28.985 468.422 28.103 469.542 28.103C470.627 28.103 471.404 28.929 471.404 30.007C471.404 30.581 471.194 31.127 470.487 31.757L466.098 35.691L466.091 36.993Z" fill="#D3D7E0"/>
<path d="M500 132V24" stroke="#D3D7E0" stroke-width="2" stroke-linecap="square" stroke-dasharray="6 6"/>
<path d="M533.805 37H535.268V32.695H538.936V31.225H535.268V28.383H539.776V26.92H533.805V37ZM541.038 37H542.501V33.381H545.175L546.932 37H548.605L546.701 33.094C547.842 32.597 548.416 31.491 548.416 30.147C548.416 28.516 547.576 27.235 545.889 26.976C545.623 26.934 545.308 26.92 545.112 26.92H541.038V37ZM542.501 31.995V28.299H545.056C545.238 28.299 545.483 28.313 545.693 28.369C546.589 28.579 546.925 29.405 546.925 30.147C546.925 30.889 546.589 31.715 545.693 31.932C545.483 31.981 545.238 31.995 545.056 31.995H542.501ZM552.964 37.189C554.847 37.189 556.331 35.796 556.331 33.871C556.331 32.233 555.323 30.924 553.692 30.707L556.184 28.313V26.92H550.122V28.313H554.392L551.312 31.036L551.998 32.191C552.285 32.037 552.628 31.939 552.95 31.939C554.07 31.939 554.833 32.751 554.833 33.871C554.833 34.984 554.07 35.789 552.964 35.803C552.138 35.81 551.403 35.341 551.137 34.466L549.723 34.858C550.15 36.293 551.466 37.189 552.964 37.189Z" fill="#D3D7E0"/>
<path d="M590 132V24" stroke="#D3D7E0" stroke-width="2" stroke-linecap="square" stroke-dasharray="6 6"/>
<path d="M642.682 37.21C645.006 37.21 646.567 35.943 647.162 33.955L645.678 33.556C645.279 34.963 644.278 35.817 642.682 35.817C640.54 35.817 639.448 34.27 639.462 31.96C639.469 29.65 640.54 28.103 642.682 28.103C644.278 28.103 645.279 28.957 645.678 30.364L647.162 29.965C646.567 27.977 645.006 26.71 642.682 26.71C639.658 26.71 637.915 28.845 637.915 31.96C637.915 35.075 639.658 37.21 642.682 37.21ZM648.702 37H651.859C652.041 37 652.643 37 653.112 36.937C655.478 36.636 656.738 34.529 656.738 31.96C656.738 29.391 655.478 27.284 653.112 26.983C652.643 26.92 652.041 26.92 651.859 26.92H648.702V37ZM650.2 35.607V28.313H651.859C652.167 28.313 652.671 28.32 653.007 28.383C654.519 28.663 655.184 30.189 655.184 31.96C655.184 33.689 654.547 35.243 653.007 35.537C652.671 35.6 652.181 35.607 651.859 35.607H650.2ZM658.368 37H659.831V33.381H662.505L664.262 37H665.935L664.031 33.094C665.172 32.597 665.746 31.491 665.746 30.147C665.746 28.516 664.906 27.235 663.219 26.976C662.953 26.934 662.638 26.92 662.442 26.92H658.368V37ZM659.831 31.995V28.299H662.386C662.568 28.299 662.813 28.313 663.023 28.369C663.919 28.579 664.255 29.405 664.255 30.147C664.255 30.889 663.919 31.715 663.023 31.932C662.813 31.981 662.568 31.995 662.386 31.995H659.831ZM670.294 37.189C672.177 37.189 673.661 35.796 673.661 33.871C673.661 32.233 672.653 30.924 671.022 30.707L673.514 28.313V26.92H667.452V28.313H671.722L668.642 31.036L669.328 32.191C669.615 32.037 669.958 31.939 670.28 31.939C671.4 31.939 672.163 32.751 672.163 33.871C672.163 34.984 671.4 35.789 670.294 35.803C669.468 35.81 668.733 35.341 668.467 34.466L667.053 34.858C667.48 36.293 668.796 37.189 670.294 37.189Z" fill="#D3D7E0"/>
<path d="M722 132V24" stroke="#D3D7E0" stroke-width="2" stroke-linecap="square" stroke-dasharray="6 6"/>
<path d="M773.593 37H775.056V32.695H778.724V31.225H775.056V28.383H779.564V26.92H773.593V37ZM780.826 37H782.289V33.381H784.963L786.72 37H788.393L786.489 33.094C787.63 32.597 788.204 31.491 788.204 30.147C788.204 28.516 787.364 27.235 785.677 26.976C785.411 26.934 785.096 26.92 784.9 26.92H780.826V37ZM782.289 31.995V28.299H784.844C785.026 28.299 785.271 28.313 785.481 28.369C786.377 28.579 786.713 29.405 786.713 30.147C786.713 30.889 786.377 31.715 785.481 31.932C785.271 31.981 785.026 31.995 784.844 31.995H782.289ZM794.201 37H795.685V35.243H796.686V33.857H795.685V31.127H794.201V33.857H791.324L794.6 26.92H792.927L789.651 33.857V35.243H794.201V37Z" fill="#D3D7E0"/>
<path d="M848 132V24" stroke="#D3D7E0" stroke-width="2" stroke-linecap="square" stroke-dasharray="6 6"/>
<g filter="url(#filter0_i_5684_35131)">
<path d="M129 80H606.4C606.96 80 607.24 80 607.454 80.109C607.642 80.2049 607.795 80.3578 607.891 80.546C608 80.7599 608 81.0399 608 81.6V130.4C608 130.96 608 131.24 607.891 131.454C607.795 131.642 607.642 131.795 607.454 131.891C607.24 132 606.96 132 606.4 132H129L124 125.5L129 119L124 112L129 106L124 99.5L129 93L124 86.5L129 80Z" fill="#99E099"/>
</g>
<path d="M129 80H606.4C606.96 80 607.24 80 607.454 80.109C607.642 80.2049 607.795 80.3578 607.891 80.546C608 80.7599 608 81.0399 608 81.6V130.4C608 130.96 608 131.24 607.891 131.454C607.795 131.642 607.642 131.795 607.454 131.891C607.24 132 606.96 132 606.4 132H129L124 125.5L129 119L124 112L129 106L124 99.5L129 93L124 86.5L129 80Z" stroke="#110529" stroke-width="2" stroke-linecap="round"/>
<path d="M355.209 114H357.792L362.813 99H360.896L356.48 112.021L352.126 99H350.188L355.209 114Z" fill="#110529"/>
<g filter="url(#filter1_i_5684_35131)">
<rect x="608" y="80" width="30" height="52" rx="1" fill="#CBEB67"/>
</g>
<rect x="608" y="80" width="30" height="52" rx="1" stroke="#110529" stroke-width="2" stroke-linecap="round"/>
<g filter="url(#filter2_i_5684_35131)">
<rect x="674" y="80" width="30" height="52" rx="1" fill="#FAAAFA"/>
</g>
<rect x="674" y="80" width="30" height="52" rx="1" stroke="#110529" stroke-width="2" stroke-linecap="round"/>
<g filter="url(#filter3_i_5684_35131)">
<rect x="638" y="80" width="36" height="52" rx="1" fill="#FFCB8F"/>
</g>
<rect x="638" y="80" width="36" height="52" rx="1" stroke="#110529" stroke-width="2" stroke-linecap="round"/>
<path d="M617.447 114V99.6H619.247L626.757 110.85V99.6H628.557V114H626.757L619.247 102.74V114H617.447Z" fill="#110529"/>
<path d="M683.447 114V99.6H685.247L692.757 110.85V99.6H694.557V114H692.757L685.247 102.74V114H683.447Z" fill="#110529"/>
<path d="M650.593 114V99.6H655.033C655.18 99.6 655.437 99.6033 655.803 99.61C656.17 99.6167 656.52 99.6433 656.853 99.69C657.967 99.8367 658.897 100.243 659.643 100.91C660.397 101.57 660.963 102.41 661.343 103.43C661.723 104.45 661.913 105.573 661.913 106.8C661.913 108.027 661.723 109.15 661.343 110.17C660.963 111.19 660.397 112.033 659.643 112.7C658.897 113.36 657.967 113.763 656.853 113.91C656.52 113.95 656.167 113.977 655.793 113.99C655.427 113.997 655.173 114 655.033 114H650.593ZM652.423 112.3H655.033C655.287 112.3 655.57 112.293 655.883 112.28C656.197 112.26 656.47 112.23 656.703 112.19C657.49 112.043 658.127 111.713 658.613 111.2C659.1 110.687 659.457 110.047 659.683 109.28C659.91 108.513 660.023 107.687 660.023 106.8C660.023 105.893 659.907 105.057 659.673 104.29C659.447 103.523 659.09 102.887 658.603 102.38C658.117 101.873 657.483 101.55 656.703 101.41C656.47 101.363 656.193 101.333 655.873 101.32C655.553 101.307 655.273 101.3 655.033 101.3H652.423V112.3Z" fill="#110529"/>
<g filter="url(#filter4_i_5684_35131)">
<path d="M848 81.6C848 81.0399 848 80.7599 847.891 80.546C847.795 80.3578 847.642 80.2049 847.454 80.109C847.24 80 846.96 80 846.4 80H705.6C705.04 80 704.76 80 704.546 80.109C704.358 80.2049 704.205 80.3578 704.109 80.546C704 80.7599 704 81.0399 704 81.6V106V130.4C704 130.96 704 131.24 704.109 131.454C704.205 131.642 704.358 131.795 704.546 131.891C704.76 132 705.04 132 705.6 132H846.4C846.96 132 847.24 132 847.454 131.891C847.642 131.795 847.795 131.642 847.891 131.454C848 131.24 848 130.96 848 130.4V125.5V119V112V106V99.5V93V86.5V81.6Z" fill="#C1ADFF"/>
</g>
<path d="M848 81.6C848 81.0399 848 80.7599 847.891 80.546C847.795 80.3578 847.642 80.2049 847.454 80.109C847.24 80 846.96 80 846.4 80H705.6C705.04 80 704.76 80 704.546 80.109C704.358 80.2049 704.205 80.3578 704.109 80.546C704 80.7599 704 81.0399 704 81.6V106V130.4C704 130.96 704 131.24 704.109 131.454C704.205 131.642 704.358 131.795 704.546 131.891C704.76 132 705.04 132 705.6 132H846.4C846.96 132 847.24 132 847.454 131.891C847.642 131.795 847.795 131.642 847.891 131.454C848 131.24 848 130.96 848 130.4V125.5V119V112V106V99.5V93V86.5V81.6Z" stroke="#110529" stroke-width="2" stroke-linecap="round"/>
<path d="M779.272 99V109.292C779.272 110.604 779.272 111.312 778.71 112.312C777.939 113.604 776.752 114.312 775.127 114.312C774.356 114.312 773.606 114.146 772.96 113.729C772.002 113.187 771.314 112.208 771.022 111.146L772.877 110.708C772.981 111.292 773.356 111.812 773.856 112.146C774.21 112.396 774.668 112.542 775.106 112.542C775.897 112.542 776.731 112.125 777.085 111.354C777.356 110.792 777.356 110.375 777.356 109.292V99H779.272Z" fill="#110529"/>
<g filter="url(#filter5_i_5684_35131)">
<path d="M864 80H849.6C849.04 80 848.76 80 848.546 80.109C848.358 80.2049 848.205 80.3578 848.109 80.546C848 80.7599 848 81.0399 848 81.6V130.4C848 130.96 848 131.24 848.109 131.454C848.205 131.642 848.358 131.795 848.546 131.891C848.76 132 849.04 132 849.6 132H864L859 125.5L864 119L859 112L864 106L859 99.5L864 93L859 86.5L864 80Z" fill="#FAFAAA"/>
</g>
<path d="M864 80H849.6C849.04 80 848.76 80 848.546 80.109C848.358 80.2049 848.205 80.3578 848.109 80.546C848 80.7599 848 81.0399 848 81.6V130.4C848 130.96 848 131.24 848.109 131.454C848.205 131.642 848.358 131.795 848.546 131.891C848.76 132 849.04 132 849.6 132H864L859 125.5L864 119L859 112L864 106L859 99.5L864 93L859 86.5L864 80Z" stroke="#110529" stroke-width="2" stroke-linecap="round"/>
<path d="M46.6 114H48.38V99.6H46.6V114ZM57.2105 114.3C61.4205 114.3 63.6605 111.39 63.6605 107.44C63.6605 107.32 63.6505 106.87 63.6205 106.59H58.6805V108.06H61.7405C61.5205 110.93 60.0805 112.62 57.3005 112.6C54.0805 112.58 52.4505 110.25 52.4705 106.8C52.4905 103.35 54.0805 100.99 57.3005 101.01C59.3505 101.02 60.7405 102.14 61.3505 103.88L63.1505 103.51C62.4005 100.92 60.4305 99.31 57.2105 99.31C53.1805 99.31 50.5805 102.21 50.5805 106.8C50.5805 111.44 53.2405 114.3 57.2105 114.3ZM65.6578 114H67.4378V107.64H75.0178V114H76.7978V99.6H75.0178V105.95H67.4378V99.6H65.6578V114Z" fill="#110529"/>
<g filter="url(#filter6_i_5684_35131)">
<path d="M129 250H606.4C606.96 250 607.24 250 607.454 250.109C607.642 250.205 607.795 250.358 607.891 250.546C608 250.76 608 251.04 608 251.6V300.4C608 300.96 608 301.24 607.891 301.454C607.795 301.642 607.642 301.795 607.454 301.891C607.24 302 606.96 302 606.4 302H129L124 295.5L129 289L124 282L129 276L124 269.5L129 263L124 256.5L129 250Z" fill="#99E099"/>
</g>
<path d="M129 250H606.4C606.96 250 607.24 250 607.454 250.109C607.642 250.205 607.795 250.358 607.891 250.546C608 250.76 608 251.04 608 251.6V300.4C608 300.96 608 301.24 607.891 301.454C607.795 301.642 607.642 301.795 607.454 301.891C607.24 302 606.96 302 606.4 302H129L124 295.5L129 289L124 282L129 276L124 269.5L129 263L124 256.5L129 250Z" stroke="#110529" stroke-width="2" stroke-linecap="round"/>
<path d="M365.209 284H367.792L372.813 269H370.896L366.48 282.021L362.126 269H360.188L365.209 284Z" fill="#110529"/>
<g filter="url(#filter7_i_5684_35131)">
<rect x="608" y="250" width="30" height="52" rx="1" fill="#CBEB67"/>
</g>
<rect x="608" y="250" width="30" height="52" rx="1" stroke="#110529" stroke-width="2" stroke-linecap="round"/>
<path d="M619.087 269H617.212V284H619.087V272.271L626.921 284H628.796V269H626.921V280.708L619.087 269Z" fill="#110529"/>
<g filter="url(#filter8_i_5684_35131)">
<path d="M782 251.6C782 251.04 782 250.76 781.891 250.546C781.795 250.358 781.642 250.205 781.454 250.109C781.24 250 780.96 250 780.4 250H639.6C639.04 250 638.76 250 638.546 250.109C638.358 250.205 638.205 250.358 638.109 250.546C638 250.76 638 251.04 638 251.6V276V300.4C638 300.96 638 301.24 638.109 301.454C638.205 301.642 638.358 301.795 638.546 301.891C638.76 302 639.04 302 639.6 302H780.4C780.96 302 781.24 302 781.454 301.891C781.642 301.795 781.795 301.642 781.891 301.454C782 301.24 782 300.96 782 300.4V295.5V289V282V276V269.5V263V256.5V251.6Z" fill="#C1ADFF"/>
</g>
<path d="M782 251.6C782 251.04 782 250.76 781.891 250.546C781.795 250.358 781.642 250.205 781.454 250.109C781.24 250 780.96 250 780.4 250H639.6C639.04 250 638.76 250 638.546 250.109C638.358 250.205 638.205 250.358 638.109 250.546C638 250.76 638 251.04 638 251.6V276V300.4C638 300.96 638 301.24 638.109 301.454C638.205 301.642 638.358 301.795 638.546 301.891C638.76 302 639.04 302 639.6 302H780.4C780.96 302 781.24 302 781.454 301.891C781.642 301.795 781.795 301.642 781.891 301.454C782 301.24 782 300.96 782 300.4V295.5V289V282V276V269.5V263V256.5V251.6Z" stroke="#110529" stroke-width="2" stroke-linecap="round"/>
<g filter="url(#filter9_i_5684_35131)">
<path d="M798 250H783.6C783.04 250 782.76 250 782.546 250.109C782.358 250.205 782.205 250.358 782.109 250.546C782 250.76 782 251.04 782 251.6V300.4C782 300.96 782 301.24 782.109 301.454C782.205 301.642 782.358 301.795 782.546 301.891C782.76 302 783.04 302 783.6 302H798L793 295.5L798 289L793 282L798 276L793 269.5L798 263L793 256.5L798 250Z" fill="#FAFAAA"/>
</g>
<path d="M798 250H783.6C783.04 250 782.76 250 782.546 250.109C782.358 250.205 782.205 250.358 782.109 250.546C782 250.76 782 251.04 782 251.6V300.4C782 300.96 782 301.24 782.109 301.454C782.205 301.642 782.358 301.795 782.546 301.891C782.76 302 783.04 302 783.6 302H798L793 295.5L798 289L793 282L798 276L793 269.5L798 263L793 256.5L798 250Z" stroke="#110529" stroke-width="2" stroke-linecap="round"/>
<path d="M713.272 269V279.292C713.272 280.604 713.272 281.312 712.71 282.312C711.939 283.604 710.751 284.312 709.126 284.312C708.356 284.312 707.606 284.146 706.96 283.729C706.001 283.187 705.314 282.208 705.022 281.146L706.876 280.708C706.981 281.292 707.356 281.812 707.856 282.146C708.21 282.396 708.668 282.542 709.106 282.542C709.897 282.542 710.731 282.125 711.085 281.354C711.356 280.792 711.356 280.375 711.356 279.292V269H713.272Z" fill="#110529"/>
<path d="M25.6 284H27.38V269.6H25.6V284ZM36.2105 284.3C40.4205 284.3 42.6605 281.39 42.6605 277.44C42.6605 277.32 42.6505 276.87 42.6205 276.59H37.6805V278.06H40.7405C40.5205 280.93 39.0805 282.62 36.3005 282.6C33.0805 282.58 31.4505 280.25 31.4705 276.8C31.4905 273.35 33.0805 270.99 36.3005 271.01C38.3505 271.02 39.7405 272.14 40.3505 273.88L42.1505 273.51C41.4005 270.92 39.4305 269.31 36.2105 269.31C32.1805 269.31 29.5805 272.21 29.5805 276.8C29.5805 281.44 32.2405 284.3 36.2105 284.3ZM44.6578 284H46.4378V276.96L53.1878 284H55.4878L48.4378 276.59L54.9778 269.6H52.7378L46.4378 276.36V269.6H44.6578V284ZM64.1377 269.6L60.2977 284H62.1077L65.9477 269.6H64.1377ZM72.7484 284H74.5284V269.6H72.7484V284ZM83.3589 284.3C87.5689 284.3 89.8089 281.39 89.8089 277.44C89.8089 277.32 89.7989 276.87 89.7689 276.59H84.8289V278.06H87.8889C87.6689 280.93 86.2289 282.62 83.4489 282.6C80.2289 282.58 78.5989 280.25 78.6189 276.8C78.6389 273.35 80.2289 270.99 83.4489 271.01C85.4989 271.02 86.8889 272.14 87.4989 273.88L89.2989 273.51C88.5489 270.92 86.5789 269.31 83.3589 269.31C79.3289 269.31 76.7289 272.21 76.7289 276.8C76.7289 281.44 79.3889 284.3 83.3589 284.3ZM92.0063 284H100.466V282.31H93.7863V269.6H92.0063V284Z" fill="#110529"/>
<path d="M129.4 180H131.18V174.68H135.39L137.97 180H140.01L137.23 174.29C138.86 173.61 139.71 172.04 139.71 170.14C139.71 167.85 138.48 166.04 136.15 165.68C135.78 165.62 135.37 165.6 135.09 165.6H129.4V180ZM131.18 172.99V167.29H135.03C135.28 167.29 135.63 167.31 135.93 167.38C137.31 167.69 137.89 168.94 137.89 170.14C137.89 171.34 137.31 172.59 135.93 172.9C135.63 172.97 135.28 172.99 135.03 172.99H131.18ZM144.723 180H146.533V165.6H144.723L142.013 167.22V169.21L144.723 167.57V180Z" fill="#110529"/>
<path d="M157 164V180H167V188L181 172L167 156V164H157Z" fill="#110529"/>
<path d="M129.4 350H131.18V344.68H135.39L137.97 350H140.01L137.23 344.29C138.86 343.61 139.71 342.04 139.71 340.14C139.71 337.85 138.48 336.04 136.15 335.68C135.78 335.62 135.37 335.6 135.09 335.6H129.4V350ZM131.18 342.99V337.29H135.03C135.28 337.29 135.63 337.31 135.93 337.38C137.31 337.69 137.89 338.94 137.89 340.14C137.89 341.34 137.31 342.59 135.93 342.9C135.63 342.97 135.28 342.99 135.03 342.99H131.18ZM144.723 350H146.533V335.6H144.723L142.013 337.22V339.21L144.723 337.57V350Z" fill="#110529"/>
<path d="M157 334V350H167V358L181 342L167 326V334H157Z" fill="#110529"/>
<path d="M713 354V370H703V378L689 362L703 346V354H713Z" fill="#110529"/>
<path d="M722.4 370H724.18V364.68H728.39L730.97 370H733.01L730.23 364.29C731.86 363.61 732.71 362.04 732.71 360.14C732.71 357.85 731.48 356.04 729.15 355.68C728.78 355.62 728.37 355.6 728.09 355.6H722.4V370ZM724.18 362.99V357.29H728.03C728.28 357.29 728.63 357.31 728.93 357.38C730.31 357.69 730.89 358.94 730.89 360.14C730.89 361.34 730.31 362.59 728.93 362.9C728.63 362.97 728.28 362.99 728.03 362.99H724.18ZM734.813 369.99H744.383V368.29H737.553L742.193 364.12C743.673 362.81 744.383 361.86 744.383 359.97C744.383 357.32 742.363 355.3 739.692 355.3C736.923 355.3 734.883 357.23 734.883 359.94H736.703C736.683 358.37 737.943 357 739.663 357C741.323 357 742.563 358.29 742.563 359.95C742.563 360.86 742.273 361.69 741.213 362.64L734.823 368.39L734.813 369.99Z" fill="#110529"/>
<path d="M596 172H184" stroke="#110529" stroke-width="2" stroke-linecap="square"/>
<path d="M606 172L606.707 171.293L607.414 172L606.707 172.707L606 172ZM598.707 180.707L598 181.414L596.586 180L597.293 179.293L598.707 180.707ZM597.293 164.707L596.586 164L598 162.586L598.707 163.293L597.293 164.707ZM596 171L606 171L606 173L596 173L596 171ZM606.707 172.707L598.707 180.707L597.293 179.293L605.293 171.293L606.707 172.707ZM605.293 172.707L597.293 164.707L598.707 163.293L606.707 171.293L605.293 172.707Z" fill="#110529"/>
<rect width="56" height="20" transform="translate(420 162)" fill="white"/>
<path d="M424.8 177.992H432.456V176.632H426.992L430.704 173.296C431.888 172.248 432.456 171.488 432.456 169.976C432.456 167.856 430.84 166.24 428.704 166.24C426.488 166.24 424.856 167.784 424.856 169.952H426.312C426.296 168.696 427.304 167.6 428.68 167.6C430.008 167.6 431 168.632 431 169.96C431 170.688 430.768 171.352 429.92 172.112L424.808 176.712L424.8 177.992ZM437.778 178.24C439.922 178.24 441.738 176.504 441.738 174.376C441.738 172.232 440.114 170.584 437.978 170.584C437.202 170.584 436.426 170.848 435.826 171.328L436.034 167.832H440.938V166.48H434.754L434.402 172.504L435.666 172.984C436.082 172.384 436.802 171.896 437.818 171.896C439.162 171.896 440.306 172.984 440.306 174.376C440.306 175.728 439.218 176.856 437.818 176.856C436.746 176.856 435.706 176.144 435.418 175.008L434.05 175.376C434.514 177.056 435.994 178.24 437.778 178.24ZM447.539 178.24C449.779 178.24 451.427 176.592 451.427 174.352V170.128C451.427 167.888 449.779 166.24 447.539 166.24C445.299 166.24 443.651 167.888 443.651 170.128V174.352C443.651 176.592 445.299 178.24 447.539 178.24ZM445.099 174.432V170.04C445.099 168.688 446.187 167.6 447.539 167.6C448.891 167.6 449.979 168.688 449.979 170.04V174.432C449.979 175.784 448.891 176.872 447.539 176.872C446.187 176.872 445.099 175.784 445.099 174.432ZM457.635 178.24C460.051 178.24 461.507 176.264 461.507 173.672C461.507 171.08 460.043 169.12 457.643 169.12C456.563 169.12 455.707 169.496 455.091 170.144V166.48H453.659V178H454.931V177.024C455.563 177.784 456.467 178.24 457.635 178.24ZM454.931 173.672C454.931 171.76 455.731 170.424 457.419 170.424C459.179 170.424 459.995 171.848 459.995 173.672C459.995 175.512 459.163 176.936 457.459 176.936C455.715 176.936 454.931 175.568 454.931 173.672ZM467.229 178.24C469.645 178.24 471.101 176.264 471.101 173.672C471.101 171.08 469.637 169.12 467.237 169.12C466.061 169.12 465.157 169.568 464.525 170.328V169.36H463.253V181.84H464.685V177.2C465.301 177.856 466.157 178.24 467.229 178.24ZM464.525 173.672C464.525 171.76 465.325 170.424 467.013 170.424C468.773 170.424 469.589 171.848 469.589 173.672C469.589 175.512 468.757 176.936 467.053 176.936C465.309 176.936 464.525 175.568 464.525 173.672Z" fill="#110529"/>
<path d="M338 192H753" stroke="#110529" stroke-width="2" stroke-linecap="square"/>
<path d="M323 192L322.293 191.293L321.586 192L322.293 192.707L323 192ZM330.293 200.707L331 201.414L332.414 200L331.707 199.293L330.293 200.707ZM331.707 184.707L332.414 184L331 182.586L330.293 183.293L331.707 184.707ZM343 191L323 191L323 193L343 193L343 191ZM322.293 192.707L330.293 200.707L331.707 199.293L323.707 191.293L322.293 192.707ZM323.707 192.707L331.707 184.707L330.293 183.293L322.293 191.293L323.707 192.707Z" fill="#110529"/>
<rect width="58.0192" height="20" transform="translate(520.923 182)" fill="white"/>
<path d="M525.723 197.992H533.379V196.632H527.915L531.627 193.296C532.811 192.248 533.379 191.488 533.379 189.976C533.379 187.856 531.763 186.24 529.627 186.24C527.411 186.24 525.779 187.784 525.779 189.952H527.235C527.219 188.696 528.227 187.6 529.603 187.6C530.931 187.6 531.923 188.632 531.923 189.96C531.923 190.688 531.691 191.352 530.843 192.112L525.731 196.712L525.723 197.992ZM538.701 198.24C540.845 198.24 542.661 196.504 542.661 194.376C542.661 192.232 541.037 190.584 538.901 190.584C538.125 190.584 537.349 190.848 536.749 191.328L536.957 187.832H541.861V186.48H535.677L535.325 192.504L536.589 192.984C537.005 192.384 537.725 191.896 538.741 191.896C540.085 191.896 541.229 192.984 541.229 194.376C541.229 195.728 540.141 196.856 538.741 196.856C537.669 196.856 536.629 196.144 536.341 195.008L534.973 195.376C535.437 197.056 536.917 198.24 538.701 198.24ZM548.462 198.24C550.702 198.24 552.35 196.592 552.35 194.352V190.128C552.35 187.888 550.702 186.24 548.462 186.24C546.222 186.24 544.574 187.888 544.574 190.128V194.352C544.574 196.592 546.222 198.24 548.462 198.24ZM546.022 194.432V190.04C546.022 188.688 547.11 187.6 548.462 187.6C549.814 187.6 550.902 188.688 550.902 190.04V194.432C550.902 195.784 549.814 196.872 548.462 196.872C547.11 196.872 546.022 195.784 546.022 194.432ZM558.558 198.24C560.974 198.24 562.43 196.264 562.43 193.672C562.43 191.08 560.966 189.12 558.566 189.12C557.486 189.12 556.63 189.496 556.014 190.144V186.48H554.582V198H555.854V197.024C556.486 197.784 557.39 198.24 558.558 198.24ZM555.854 193.672C555.854 191.76 556.654 190.424 558.342 190.424C560.102 190.424 560.918 191.848 560.918 193.672C560.918 195.512 560.086 196.936 558.382 196.936C556.638 196.936 555.854 195.568 555.854 193.672ZM568.152 198.24C570.568 198.24 572.024 196.264 572.024 193.672C572.024 191.08 570.56 189.12 568.16 189.12C566.984 189.12 566.08 189.568 565.448 190.328V189.36H564.176V201.84H565.608V197.2C566.224 197.856 567.08 198.24 568.152 198.24ZM565.448 193.672C565.448 191.76 566.248 190.424 567.936 190.424C569.696 190.424 570.512 191.848 570.512 193.672C570.512 195.512 569.68 196.936 567.976 196.936C566.232 196.936 565.448 195.568 565.448 193.672Z" fill="#110529"/>
<path d="M596 342H184" stroke="#110529" stroke-width="2" stroke-linecap="square"/>
<path d="M606 342L606.707 341.293L607.414 342L606.707 342.707L606 342ZM598.707 350.707L598 351.414L596.586 350L597.293 349.293L598.707 350.707ZM597.293 334.707L596.586 334L598 332.586L598.707 333.293L597.293 334.707ZM596 341L606 341L606 343L596 343L596 341ZM606.707 342.707L598.707 350.707L597.293 349.293L605.293 341.293L606.707 342.707ZM605.293 342.707L597.293 334.707L598.707 333.293L606.707 341.293L605.293 342.707Z" fill="#110529"/>
<rect width="56" height="20" transform="translate(420 332)" fill="white"/>
<path d="M424.8 347.992H432.456V346.632H426.992L430.704 343.296C431.888 342.248 432.456 341.488 432.456 339.976C432.456 337.856 430.84 336.24 428.704 336.24C426.488 336.24 424.856 337.784 424.856 339.952H426.312C426.296 338.696 427.304 337.6 428.68 337.6C430.008 337.6 431 338.632 431 339.96C431 340.688 430.768 341.352 429.92 342.112L424.808 346.712L424.8 347.992ZM437.778 348.24C439.922 348.24 441.738 346.504 441.738 344.376C441.738 342.232 440.114 340.584 437.978 340.584C437.202 340.584 436.426 340.848 435.826 341.328L436.034 337.832H440.938V336.48H434.754L434.402 342.504L435.666 342.984C436.082 342.384 436.802 341.896 437.818 341.896C439.162 341.896 440.306 342.984 440.306 344.376C440.306 345.728 439.218 346.856 437.818 346.856C436.746 346.856 435.706 346.144 435.418 345.008L434.05 345.376C434.514 347.056 435.994 348.24 437.778 348.24ZM447.539 348.24C449.779 348.24 451.427 346.592 451.427 344.352V340.128C451.427 337.888 449.779 336.24 447.539 336.24C445.299 336.24 443.651 337.888 443.651 340.128V344.352C443.651 346.592 445.299 348.24 447.539 348.24ZM445.099 344.432V340.04C445.099 338.688 446.187 337.6 447.539 337.6C448.891 337.6 449.979 338.688 449.979 340.04V344.432C449.979 345.784 448.891 346.872 447.539 346.872C446.187 346.872 445.099 345.784 445.099 344.432ZM457.635 348.24C460.051 348.24 461.507 346.264 461.507 343.672C461.507 341.08 460.043 339.12 457.643 339.12C456.563 339.12 455.707 339.496 455.091 340.144V336.48H453.659V348H454.931V347.024C455.563 347.784 456.467 348.24 457.635 348.24ZM454.931 343.672C454.931 341.76 455.731 340.424 457.419 340.424C459.179 340.424 459.995 341.848 459.995 343.672C459.995 345.512 459.163 346.936 457.459 346.936C455.715 346.936 454.931 345.568 454.931 343.672ZM467.229 348.24C469.645 348.24 471.101 346.264 471.101 343.672C471.101 341.08 469.637 339.12 467.237 339.12C466.061 339.12 465.157 339.568 464.525 340.328V339.36H463.253V351.84H464.685V347.2C465.301 347.856 466.157 348.24 467.229 348.24ZM464.525 343.672C464.525 341.76 465.325 340.424 467.013 340.424C468.773 340.424 469.589 341.848 469.589 343.672C469.589 345.512 468.757 346.936 467.053 346.936C465.309 346.936 464.525 345.568 464.525 343.672Z" fill="#110529"/>
<path d="M338 362H689" stroke="#110529" stroke-width="2" stroke-linecap="square"/>
<path d="M323 362L322.293 361.293L321.586 362L322.293 362.707L323 362ZM330.293 370.707L331 371.414L332.414 370L331.707 369.293L330.293 370.707ZM331.707 354.707L332.414 354L331 352.586L330.293 353.293L331.707 354.707ZM343 361L323 361L323 363L343 363L343 361ZM322.293 362.707L330.293 370.707L331.707 369.293L323.707 361.293L322.293 362.707ZM323.707 362.707L331.707 354.707L330.293 353.293L322.293 361.293L323.707 362.707Z" fill="#110529"/>
<rect width="61.1667" height="20" transform="translate(531.714 352)" fill="white"/>
<path d="M536.514 367.992H544.17V366.632H538.706L542.418 363.296C543.602 362.248 544.17 361.488 544.17 359.976C544.17 357.856 542.554 356.24 540.418 356.24C538.202 356.24 536.57 357.784 536.57 359.952H538.026C538.01 358.696 539.018 357.6 540.394 357.6C541.722 357.6 542.714 358.632 542.714 359.96C542.714 360.688 542.482 361.352 541.634 362.112L536.522 366.712L536.514 367.992ZM549.492 368.24C551.636 368.24 553.452 366.504 553.452 364.376C553.452 362.232 551.828 360.584 549.692 360.584C548.916 360.584 548.14 360.848 547.54 361.328L547.748 357.832H552.652V356.48H546.468L546.116 362.504L547.38 362.984C547.796 362.384 548.516 361.896 549.532 361.896C550.876 361.896 552.02 362.984 552.02 364.376C552.02 365.728 550.932 366.856 549.532 366.856C548.46 366.856 547.42 366.144 547.132 365.008L545.764 365.376C546.228 367.056 547.708 368.24 549.492 368.24ZM559.254 368.24C561.494 368.24 563.142 366.592 563.142 364.352V360.128C563.142 357.888 561.494 356.24 559.254 356.24C557.014 356.24 555.366 357.888 555.366 360.128V364.352C555.366 366.592 557.014 368.24 559.254 368.24ZM556.814 364.432V360.04C556.814 358.688 557.902 357.6 559.254 357.6C560.606 357.6 561.694 358.688 561.694 360.04V364.432C561.694 365.784 560.606 366.872 559.254 366.872C557.902 366.872 556.814 365.784 556.814 364.432ZM569.349 368.24C571.765 368.24 573.221 366.264 573.221 363.672C573.221 361.08 571.757 359.12 569.357 359.12C568.277 359.12 567.421 359.496 566.805 360.144V356.48H565.373V368H566.645V367.024C567.277 367.784 568.181 368.24 569.349 368.24ZM566.645 363.672C566.645 361.76 567.445 360.424 569.133 360.424C570.893 360.424 571.709 361.848 571.709 363.672C571.709 365.512 570.877 366.936 569.173 366.936C567.429 366.936 566.645 365.568 566.645 363.672ZM578.943 368.24C581.359 368.24 582.815 366.264 582.815 363.672C582.815 361.08 581.351 359.12 578.951 359.12C577.775 359.12 576.871 359.568 576.239 360.328V359.36H574.967V371.84H576.399V367.2C577.015 367.856 577.871 368.24 578.943 368.24ZM576.239 363.672C576.239 361.76 577.039 360.424 578.727 360.424C580.487 360.424 581.303 361.848 581.303 363.672C581.303 365.512 580.471 366.936 578.767 366.936C577.023 366.936 576.239 365.568 576.239 363.672Z" fill="#110529"/>
<path d="M777 184V200H767V208L753 192L767 176V184H777Z" fill="#110529"/>
<path d="M786.4 200H788.18V194.68H792.39L794.97 200H797.01L794.23 194.29C795.86 193.61 796.71 192.04 796.71 190.14C796.71 187.85 795.48 186.04 793.15 185.68C792.78 185.62 792.37 185.6 792.09 185.6H786.4V200ZM788.18 192.99V187.29H792.03C792.28 187.29 792.63 187.31 792.93 187.38C794.31 187.69 794.89 188.94 794.89 190.14C794.89 191.34 794.31 192.59 792.93 192.9C792.63 192.97 792.28 192.99 792.03 192.99H788.18ZM798.813 199.99H808.383V198.29H801.553L806.193 194.12C807.673 192.81 808.383 191.86 808.383 189.97C808.383 187.32 806.363 185.3 803.692 185.3C800.923 185.3 798.883 187.23 798.883 189.94H800.703C800.683 188.37 801.943 187 803.663 187C805.323 187 806.563 188.29 806.563 189.95C806.563 190.86 806.273 191.69 805.213 192.64L798.823 198.39L798.813 199.99Z" fill="#110529"/>
<defs>
<filter id="filter0_i_5684_35131" x="122.737" y="79" width="486.263" height="54" filterUnits="userSpaceOnUse" color-interpolation-filters="sRGB">
<feFlood flood-opacity="0" result="BackgroundImageFix"/>
<feBlend mode="normal" in="SourceGraphic" in2="BackgroundImageFix" result="shape"/>
<feColorMatrix in="SourceAlpha" type="matrix" values="0 0 0 0 0 0 0 0 0 0 0 0 0 0 0 0 0 0 127 0" result="hardAlpha"/>
<feOffset dx="-8" dy="-4"/>
<feComposite in2="hardAlpha" operator="arithmetic" k2="-1" k3="1"/>
<feColorMatrix type="matrix" values="0 0 0 0 0.0666667 0 0 0 0 0.0196078 0 0 0 0 0.160784 0 0 0 0.16 0"/>
<feBlend mode="normal" in2="shape" result="effect1_innerShadow_5684_35131"/>
</filter>
<filter id="filter1_i_5684_35131" x="607" y="79" width="32" height="54" filterUnits="userSpaceOnUse" color-interpolation-filters="sRGB">
<feFlood flood-opacity="0" result="BackgroundImageFix"/>
<feBlend mode="normal" in="SourceGraphic" in2="BackgroundImageFix" result="shape"/>
<feColorMatrix in="SourceAlpha" type="matrix" values="0 0 0 0 0 0 0 0 0 0 0 0 0 0 0 0 0 0 127 0" result="hardAlpha"/>
<feOffset dx="-8" dy="-4"/>
<feComposite in2="hardAlpha" operator="arithmetic" k2="-1" k3="1"/>
<feColorMatrix type="matrix" values="0 0 0 0 0.0666667 0 0 0 0 0.0196078 0 0 0 0 0.160784 0 0 0 0.16 0"/>
<feBlend mode="normal" in2="shape" result="effect1_innerShadow_5684_35131"/>
</filter>
<filter id="filter2_i_5684_35131" x="673" y="79" width="32" height="54" filterUnits="userSpaceOnUse" color-interpolation-filters="sRGB">
<feFlood flood-opacity="0" result="BackgroundImageFix"/>
<feBlend mode="normal" in="SourceGraphic" in2="BackgroundImageFix" result="shape"/>
<feColorMatrix in="SourceAlpha" type="matrix" values="0 0 0 0 0 0 0 0 0 0 0 0 0 0 0 0 0 0 127 0" result="hardAlpha"/>
<feOffset dx="-8" dy="-4"/>
<feComposite in2="hardAlpha" operator="arithmetic" k2="-1" k3="1"/>
<feColorMatrix type="matrix" values="0 0 0 0 0.0666667 0 0 0 0 0.0196078 0 0 0 0 0.160784 0 0 0 0.16 0"/>
<feBlend mode="normal" in2="shape" result="effect1_innerShadow_5684_35131"/>
</filter>
<filter id="filter3_i_5684_35131" x="637" y="79" width="38" height="54" filterUnits="userSpaceOnUse" color-interpolation-filters="sRGB">
<feFlood flood-opacity="0" result="BackgroundImageFix"/>
<feBlend mode="normal" in="SourceGraphic" in2="BackgroundImageFix" result="shape"/>
<feColorMatrix in="SourceAlpha" type="matrix" values="0 0 0 0 0 0 0 0 0 0 0 0 0 0 0 0 0 0 127 0" result="hardAlpha"/>
<feOffset dx="-8" dy="-4"/>
<feComposite in2="hardAlpha" operator="arithmetic" k2="-1" k3="1"/>
<feColorMatrix type="matrix" values="0 0 0 0 0.0666667 0 0 0 0 0.0196078 0 0 0 0 0.160784 0 0 0 0.16 0"/>
<feBlend mode="normal" in2="shape" result="effect1_innerShadow_5684_35131"/>
</filter>
<filter id="filter4_i_5684_35131" x="703" y="79" width="146" height="54" filterUnits="userSpaceOnUse" color-interpolation-filters="sRGB">
<feFlood flood-opacity="0" result="BackgroundImageFix"/>
<feBlend mode="normal" in="SourceGraphic" in2="BackgroundImageFix" result="shape"/>
<feColorMatrix in="SourceAlpha" type="matrix" values="0 0 0 0 0 0 0 0 0 0 0 0 0 0 0 0 0 0 127 0" result="hardAlpha"/>
<feOffset dx="-8" dy="-4"/>
<feComposite in2="hardAlpha" operator="arithmetic" k2="-1" k3="1"/>
<feColorMatrix type="matrix" values="0 0 0 0 0.0666667 0 0 0 0 0.0196078 0 0 0 0 0.160784 0 0 0 0.16 0"/>
<feBlend mode="normal" in2="shape" result="effect1_innerShadow_5684_35131"/>
</filter>
<filter id="filter5_i_5684_35131" x="847" y="79" width="19.0309" height="54" filterUnits="userSpaceOnUse" color-interpolation-filters="sRGB">
<feFlood flood-opacity="0" result="BackgroundImageFix"/>
<feBlend mode="normal" in="SourceGraphic" in2="BackgroundImageFix" result="shape"/>
<feColorMatrix in="SourceAlpha" type="matrix" values="0 0 0 0 0 0 0 0 0 0 0 0 0 0 0 0 0 0 127 0" result="hardAlpha"/>
<feOffset dx="-8" dy="-4"/>
<feComposite in2="hardAlpha" operator="arithmetic" k2="-1" k3="1"/>
<feColorMatrix type="matrix" values="0 0 0 0 0.0666667 0 0 0 0 0.0196078 0 0 0 0 0.160784 0 0 0 0.16 0"/>
<feBlend mode="normal" in2="shape" result="effect1_innerShadow_5684_35131"/>
</filter>
<filter id="filter6_i_5684_35131" x="122.737" y="249" width="486.263" height="54" filterUnits="userSpaceOnUse" color-interpolation-filters="sRGB">
<feFlood flood-opacity="0" result="BackgroundImageFix"/>
<feBlend mode="normal" in="SourceGraphic" in2="BackgroundImageFix" result="shape"/>
<feColorMatrix in="SourceAlpha" type="matrix" values="0 0 0 0 0 0 0 0 0 0 0 0 0 0 0 0 0 0 127 0" result="hardAlpha"/>
<feOffset dx="-8" dy="-4"/>
<feComposite in2="hardAlpha" operator="arithmetic" k2="-1" k3="1"/>
<feColorMatrix type="matrix" values="0 0 0 0 0.0666667 0 0 0 0 0.0196078 0 0 0 0 0.160784 0 0 0 0.16 0"/>
<feBlend mode="normal" in2="shape" result="effect1_innerShadow_5684_35131"/>
</filter>
<filter id="filter7_i_5684_35131" x="607" y="249" width="32" height="54" filterUnits="userSpaceOnUse" color-interpolation-filters="sRGB">
<feFlood flood-opacity="0" result="BackgroundImageFix"/>
<feBlend mode="normal" in="SourceGraphic" in2="BackgroundImageFix" result="shape"/>
<feColorMatrix in="SourceAlpha" type="matrix" values="0 0 0 0 0 0 0 0 0 0 0 0 0 0 0 0 0 0 127 0" result="hardAlpha"/>
<feOffset dx="-8" dy="-4"/>
<feComposite in2="hardAlpha" operator="arithmetic" k2="-1" k3="1"/>
<feColorMatrix type="matrix" values="0 0 0 0 0.0666667 0 0 0 0 0.0196078 0 0 0 0 0.160784 0 0 0 0.16 0"/>
<feBlend mode="normal" in2="shape" result="effect1_innerShadow_5684_35131"/>
</filter>
<filter id="filter8_i_5684_35131" x="637" y="249" width="146" height="54" filterUnits="userSpaceOnUse" color-interpolation-filters="sRGB">
<feFlood flood-opacity="0" result="BackgroundImageFix"/>
<feBlend mode="normal" in="SourceGraphic" in2="BackgroundImageFix" result="shape"/>
<feColorMatrix in="SourceAlpha" type="matrix" values="0 0 0 0 0 0 0 0 0 0 0 0 0 0 0 0 0 0 127 0" result="hardAlpha"/>
<feOffset dx="-8" dy="-4"/>
<feComposite in2="hardAlpha" operator="arithmetic" k2="-1" k3="1"/>
<feColorMatrix type="matrix" values="0 0 0 0 0.0666667 0 0 0 0 0.0196078 0 0 0 0 0.160784 0 0 0 0.16 0"/>
<feBlend mode="normal" in2="shape" result="effect1_innerShadow_5684_35131"/>
</filter>
<filter id="filter9_i_5684_35131" x="781" y="249" width="19.0309" height="54" filterUnits="userSpaceOnUse" color-interpolation-filters="sRGB">
<feFlood flood-opacity="0" result="BackgroundImageFix"/>
<feBlend mode="normal" in="SourceGraphic" in2="BackgroundImageFix" result="shape"/>
<feColorMatrix in="SourceAlpha" type="matrix" values="0 0 0 0 0 0 0 0 0 0 0 0 0 0 0 0 0 0 127 0" result="hardAlpha"/>
<feOffset dx="-8" dy="-4"/>
<feComposite in2="hardAlpha" operator="arithmetic" k2="-1" k3="1"/>
<feColorMatrix type="matrix" values="0 0 0 0 0.0666667 0 0 0 0 0.0196078 0 0 0 0 0.160784 0 0 0 0.16 0"/>
<feBlend mode="normal" in2="shape" result="effect1_innerShadow_5684_35131"/>
</filter>
</defs>
</svg>
