<svg width="960" height="524" viewBox="0 0 960 524" fill="none" xmlns="http://www.w3.org/2000/svg">
    <rect width="960" height="524" fill="white"/>
    <path d="M113.858 37V26.92H119.829V28.383H115.321V31.225H118.989V32.695H115.321V37H113.858ZM121.09 37V26.92H125.164C125.36 26.92 125.675 26.934 125.941 26.976C127.628 27.235 128.468 28.516 128.468 30.147C128.468 31.491 127.894 32.597 126.753 33.094L128.657 37H126.984L125.227 33.381H122.553V37H121.09ZM122.553 31.995H125.108C125.29 31.995 125.535 31.981 125.745 31.932C126.641 31.715 126.977 30.889 126.977 30.147C126.977 29.405 126.641 28.579 125.745 28.369C125.535 28.313 125.29 28.299 125.108 28.299H122.553V31.995ZM131.953 37V28.53L130.056 29.685V28.054L131.953 26.92H133.444V37H131.953Z" fill="#D3D7E0"/>
    <path d="M156 112V24" stroke="#D3D7E0" stroke-width="2" stroke-linecap="square" stroke-dasharray="6 6"/>
    <path d="M175.735 37.21C172.711 37.21 170.968 35.075 170.968 31.96C170.968 28.845 172.711 26.71 175.735 26.71C178.059 26.71 179.62 27.977 180.215 29.965L178.731 30.364C178.332 28.957 177.331 28.103 175.735 28.103C173.593 28.103 172.522 29.65 172.515 31.96C172.501 34.27 173.593 35.817 175.735 35.817C177.331 35.817 178.332 34.963 178.731 33.556L180.215 33.955C179.62 35.943 178.059 37.21 175.735 37.21ZM181.754 37V26.92H184.911C185.093 26.92 185.695 26.92 186.164 26.983C188.53 27.284 189.79 29.391 189.79 31.96C189.79 34.529 188.53 36.636 186.164 36.937C185.695 37 185.093 37 184.911 37H181.754ZM183.252 35.607H184.911C185.233 35.607 185.723 35.6 186.059 35.537C187.599 35.243 188.236 33.689 188.236 31.96C188.236 30.189 187.571 28.663 186.059 28.383C185.723 28.32 185.219 28.313 184.911 28.313H183.252V35.607ZM191.42 37V26.92H195.494C195.69 26.92 196.005 26.934 196.271 26.976C197.958 27.235 198.798 28.516 198.798 30.147C198.798 31.491 198.224 32.597 197.083 33.094L198.987 37H197.314L195.557 33.381H192.883V37H191.42ZM192.883 31.995H195.438C195.62 31.995 195.865 31.981 196.075 31.932C196.971 31.715 197.307 30.889 197.307 30.147C197.307 29.405 196.971 28.579 196.075 28.369C195.865 28.313 195.62 28.299 195.438 28.299H192.883V31.995ZM202.283 37V28.53L200.386 29.685V28.054L202.283 26.92H203.774V37H202.283Z" fill="#D3D7E0"/>
    <path d="M220 112V24" stroke="#D3D7E0" stroke-width="2" stroke-linecap="square" stroke-dasharray="6 6"/>
    <path d="M240.703 37V26.92H246.674V28.383H242.166V31.225H245.834V32.695H242.166V37H240.703ZM247.935 37V26.92H252.009C252.205 26.92 252.52 26.934 252.786 26.976C254.473 27.235 255.313 28.516 255.313 30.147C255.313 31.491 254.739 32.597 253.598 33.094L255.502 37H253.829L252.072 33.381H249.398V37H247.935ZM249.398 31.995H251.953C252.135 31.995 252.38 31.981 252.59 31.932C253.486 31.715 253.822 30.889 253.822 30.147C253.822 29.405 253.486 28.579 252.59 28.369C252.38 28.313 252.135 28.299 251.953 28.299H249.398V31.995ZM256.761 36.993L256.768 35.691L261.157 31.757C261.864 31.127 262.074 30.581 262.074 30.007C262.074 28.929 261.297 28.103 260.212 28.103C259.092 28.103 258.28 28.985 258.294 30H256.796C256.796 28.047 258.231 26.71 260.24 26.71C262.144 26.71 263.579 28.117 263.579 30.028C263.579 31.407 263.033 32.037 261.941 32.996L259.022 35.6H263.579V36.993H256.761Z" fill="#D3D7E0"/>
    <path d="M284 112V24" stroke="#D3D7E0" stroke-width="2" stroke-linecap="square" stroke-dasharray="6 6"/>
    <path d="M302.58 37.21C299.556 37.21 297.813 35.075 297.813 31.96C297.813 28.845 299.556 26.71 302.58 26.71C304.904 26.71 306.465 27.977 307.06 29.965L305.576 30.364C305.177 28.957 304.176 28.103 302.58 28.103C300.438 28.103 299.367 29.65 299.36 31.96C299.346 34.27 300.438 35.817 302.58 35.817C304.176 35.817 305.177 34.963 305.576 33.556L307.06 33.955C306.465 35.943 304.904 37.21 302.58 37.21ZM308.599 37V26.92H311.756C311.938 26.92 312.54 26.92 313.009 26.983C315.375 27.284 316.635 29.391 316.635 31.96C316.635 34.529 315.375 36.636 313.009 36.937C312.54 37 311.938 37 311.756 37H308.599ZM310.097 35.607H311.756C312.078 35.607 312.568 35.6 312.904 35.537C314.444 35.243 315.081 33.689 315.081 31.96C315.081 30.189 314.416 28.663 312.904 28.383C312.568 28.32 312.064 28.313 311.756 28.313H310.097V35.607ZM318.265 37V26.92H322.339C322.535 26.92 322.85 26.934 323.116 26.976C324.803 27.235 325.643 28.516 325.643 30.147C325.643 31.491 325.069 32.597 323.928 33.094L325.832 37H324.159L322.402 33.381H319.728V37H318.265ZM319.728 31.995H322.283C322.465 31.995 322.71 31.981 322.92 31.932C323.816 31.715 324.152 30.889 324.152 30.147C324.152 29.405 323.816 28.579 322.92 28.369C322.71 28.313 322.465 28.299 322.283 28.299H319.728V31.995ZM327.091 36.993L327.098 35.691L331.487 31.757C332.194 31.127 332.404 30.581 332.404 30.007C332.404 28.929 331.627 28.103 330.542 28.103C329.422 28.103 328.61 28.985 328.624 30H327.126C327.126 28.047 328.561 26.71 330.57 26.71C332.474 26.71 333.909 28.117 333.909 30.028C333.909 31.407 333.363 32.037 332.271 32.996L329.352 35.6H333.909V36.993H327.091Z" fill="#D3D7E0"/>
    <path d="M348 112V24" stroke="#D3D7E0" stroke-width="2" stroke-linecap="square" stroke-dasharray="6 6"/>
    <path d="M368.805 37V26.92H374.776V28.383H370.268V31.225H373.936V32.695H370.268V37H368.805ZM376.038 37V26.92H380.112C380.308 26.92 380.623 26.934 380.889 26.976C382.576 27.235 383.416 28.516 383.416 30.147C383.416 31.491 382.842 32.597 381.701 33.094L383.605 37H381.932L380.175 33.381H377.501V37H376.038ZM377.501 31.995H380.056C380.238 31.995 380.483 31.981 380.693 31.932C381.589 31.715 381.925 30.889 381.925 30.147C381.925 29.405 381.589 28.579 380.693 28.369C380.483 28.313 380.238 28.299 380.056 28.299H377.501V31.995ZM387.964 37.189C386.466 37.189 385.15 36.293 384.723 34.858L386.137 34.466C386.403 35.341 387.138 35.81 387.964 35.803C389.07 35.789 389.833 34.984 389.833 33.871C389.833 32.751 389.07 31.939 387.95 31.939C387.628 31.939 387.285 32.037 386.998 32.191L386.312 31.036L389.392 28.313H385.122V26.92H391.184V28.313L388.692 30.707C390.323 30.924 391.331 32.233 391.331 33.871C391.331 35.796 389.847 37.189 387.964 37.189Z" fill="#D3D7E0"/>
    <path d="M412 112V24" stroke="#D3D7E0" stroke-width="2" stroke-linecap="square" stroke-dasharray="6 6"/>
    <path d="M664 112V24" stroke="#D3D7E0" stroke-width="2" stroke-linecap="square" stroke-dasharray="6 6"/>
    <path d="M532 112V24" stroke="#D3D7E0" stroke-width="2" stroke-linecap="square" stroke-dasharray="6 6"/>
    <g filter="url(#filter0_i_6903_4667)">
        <path d="M101 80H422.4C422.96 80 423.24 80 423.454 80.109C423.642 80.2049 423.795 80.3578 423.891 80.546C424 80.7599 424 81.0399 424 81.6V130.4C424 130.96 424 131.24 423.891 131.454C423.795 131.642 423.642 131.795 423.454 131.891C423.24 132 422.96 132 422.4 132H101L96 125.5L101 119L96 112L101 106L96 99.5L101 93L96 86.5L101 80Z" fill="#99E099"/>
    </g>
    <path d="M101 80H422.4C422.96 80 423.24 80 423.454 80.109C423.642 80.2049 423.795 80.3578 423.891 80.546C424 80.7599 424 81.0399 424 81.6V130.4C424 130.96 424 131.24 423.891 131.454C423.795 131.642 423.642 131.795 423.454 131.891C423.24 132 422.96 132 422.4 132H101L96 125.5L101 119L96 112L101 106L96 99.5L101 93L96 86.5L101 80Z" stroke="#110529" stroke-width="2" stroke-linecap="round"/>
    <path d="M259.258 114H261.738L266.558 99.6H264.708L260.478 112.11L256.288 99.6H254.438L259.258 114Z" fill="#110529"/>
    <g filter="url(#filter1_i_6903_4667)">
        <rect x="424" y="80" width="30" height="52" rx="1" fill="#CBEB67"/>
    </g>
    <rect x="424" y="80" width="30" height="52" rx="1" stroke="#110529" stroke-width="2" stroke-linecap="round"/>
    <g filter="url(#filter2_i_6903_4667)">
        <rect x="490" y="80" width="30" height="52" rx="1" fill="#FAAAFA"/>
    </g>
    <rect x="490" y="80" width="30" height="52" rx="1" stroke="#110529" stroke-width="2" stroke-linecap="round"/>
    <g filter="url(#filter3_i_6903_4667)">
        <rect x="454" y="80" width="36" height="52" rx="1" fill="#FFCB8F"/>
    </g>
    <rect x="454" y="80" width="36" height="52" rx="1" stroke="#110529" stroke-width="2" stroke-linecap="round"/>
    <path d="M433.447 114V99.6H435.247L442.757 110.85V99.6H444.557V114H442.757L435.247 102.74V114H433.447Z" fill="#110529"/>
    <path d="M499.447 114V99.6H501.247L508.757 110.85V99.6H510.557V114H508.757L501.247 102.74V114H499.447Z" fill="#110529"/>
    <path d="M466.593 114V99.6H471.033C471.313 99.6 472.173 99.6 472.853 99.69C476.183 100.13 477.913 103.13 477.913 106.8C477.913 110.48 476.183 113.47 472.853 113.91C472.183 114 471.303 114 471.033 114H466.593ZM468.423 112.3H471.033C471.533 112.3 472.233 112.28 472.703 112.19C475.063 111.76 476.023 109.47 476.023 106.8C476.023 104.08 475.033 101.83 472.703 101.41C472.233 101.32 471.513 101.3 471.033 101.3H468.423V112.3Z" fill="#110529"/>
    <g filter="url(#filter4_i_6903_4667)">
        <rect x="520" y="80" width="144" height="52" rx="1" fill="#C1ADFF"/>
        <path d="M591.244 114.29C592.694 114.29 593.954 113.7 594.684 112.43C595.214 111.51 595.154 110.72 595.154 109.48V99.6H593.354V109.48C593.354 110.37 593.354 110.99 593.094 111.51C592.704 112.29 591.884 112.6 591.204 112.6C590.134 112.6 589.224 111.83 589.014 110.85L587.244 111.27C587.754 113.11 589.224 114.29 591.244 114.29Z" fill="#110529"/>
        <rect x="520" y="80" width="144" height="52" rx="1" stroke="#110529" stroke-width="2" stroke-linecap="round"/>
    </g>
    <g filter="url(#filter5_i_6903_4667)">
        <rect x="664" y="80" width="80" height="52" rx="1" fill="#FAFAAA"/>
        <path d="M704.593 114.3C703.16 114.3 701.943 113.983 700.943 113.35C699.943 112.717 699.18 111.837 698.653 110.71C698.133 109.583 697.873 108.28 697.873 106.8C697.873 105.32 698.133 104.017 698.653 102.89C699.18 101.763 699.943 100.883 700.943 100.25C701.943 99.6167 703.16 99.3 704.593 99.3C706.26 99.3 707.63 99.7233 708.703 100.57C709.783 101.417 710.527 102.557 710.933 103.99L709.123 104.47C708.83 103.397 708.307 102.55 707.553 101.93C706.8 101.31 705.813 101 704.593 101C703.52 101 702.627 101.243 701.913 101.73C701.2 102.217 700.663 102.897 700.303 103.77C699.943 104.637 699.76 105.647 699.753 106.8C699.747 107.947 699.923 108.957 700.283 109.83C700.643 110.697 701.183 111.377 701.903 111.87C702.623 112.357 703.52 112.6 704.593 112.6C705.813 112.6 706.8 112.29 707.553 111.67C708.307 111.043 708.83 110.197 709.123 109.13L710.933 109.61C710.527 111.037 709.783 112.177 708.703 113.03C707.63 113.877 706.26 114.3 704.593 114.3Z" fill="#110529"/>
        <rect x="664" y="80" width="80" height="52" rx="1" stroke="#110529" stroke-width="2" stroke-linecap="round"/>
    </g>
    <g filter="url(#filter6_i_6903_4667)">
        <rect x="744" y="80" width="64" height="52" rx="1" fill="#D6E0FF"/>
        <path d="M765.053 114.3C768.393 114.3 770.733 112.1 770.733 108.75V99.6H768.933V108.6C768.933 111.31 766.893 112.62 765.053 112.62C763.233 112.62 761.173 111.33 761.173 108.6V99.6L759.373 99.61V108.75C759.373 112.11 761.713 114.3 765.053 114.3ZM773.533 114H775.223V103.51L780.113 114H781.063L785.953 103.51V113.99H787.643V99.6H786.003L780.593 111.07L775.153 99.6H773.533V114ZM790.647 114H792.427V99.6H790.647V114Z" fill="#110529"/>
        <rect x="744" y="80" width="64" height="52" rx="1" stroke="#110529" stroke-width="2" stroke-linecap="round"/>
    </g>
    <g filter="url(#filter7_i_6903_4667)">
        <path d="M101 340H422.4C422.96 340 423.24 340 423.454 340.109C423.642 340.205 423.795 340.358 423.891 340.546C424 340.76 424 341.04 424 341.6V390.4C424 390.96 424 391.24 423.891 391.454C423.795 391.642 423.642 391.795 423.454 391.891C423.24 392 422.96 392 422.4 392H101L96 385.5L101 379L96 372L101 366L96 359.5L101 353L96 346.5L101 340Z" fill="#99E099"/>
    </g>
    <path d="M101 340H422.4C422.96 340 423.24 340 423.454 340.109C423.642 340.205 423.795 340.358 423.891 340.546C424 340.76 424 341.04 424 341.6V390.4C424 390.96 424 391.24 423.891 391.454C423.795 391.642 423.642 391.795 423.454 391.891C423.24 392 422.96 392 422.4 392H101L96 385.5L101 379L96 372L101 366L96 359.5L101 353L96 346.5L101 340Z" stroke="#110529" stroke-width="2" stroke-linecap="round"/>
    <path d="M259.258 374H261.738L266.558 359.6H264.708L260.478 372.11L256.288 359.6H254.438L259.258 374Z" fill="#110529"/>
    <g filter="url(#filter8_i_6903_4667)">
        <rect x="424" y="340" width="30" height="52" rx="1" fill="#CBEB67"/>
    </g>
    <rect x="424" y="340" width="30" height="52" rx="1" stroke="#110529" stroke-width="2" stroke-linecap="round"/>
    <g filter="url(#filter9_i_6903_4667)">
        <rect x="490" y="340" width="30" height="52" rx="1" fill="#FAAAFA"/>
    </g>
    <rect x="490" y="340" width="30" height="52" rx="1" stroke="#110529" stroke-width="2" stroke-linecap="round"/>
    <g filter="url(#filter10_i_6903_4667)">
        <rect x="454" y="340" width="36" height="52" rx="1" fill="#FFCB8F"/>
    </g>
    <rect x="454" y="340" width="36" height="52" rx="1" stroke="#110529" stroke-width="2" stroke-linecap="round"/>
    <path d="M433.447 374V359.6H435.247L442.757 370.85V359.6H444.557V374H442.757L435.247 362.74V374H433.447Z" fill="#110529"/>
    <path d="M499.447 374V359.6H501.247L508.757 370.85V359.6H510.557V374H508.757L501.247 362.74V374H499.447Z" fill="#110529"/>
    <path d="M466.593 374V359.6H471.033C471.313 359.6 472.173 359.6 472.853 359.69C476.183 360.13 477.913 363.13 477.913 366.8C477.913 370.48 476.183 373.47 472.853 373.91C472.183 374 471.303 374 471.033 374H466.593ZM468.423 372.3H471.033C471.533 372.3 472.233 372.28 472.703 372.19C475.063 371.76 476.023 369.47 476.023 366.8C476.023 364.08 475.033 361.83 472.703 361.41C472.233 361.32 471.513 361.3 471.033 361.3H468.423V372.3Z" fill="#110529"/>
    <g filter="url(#filter11_i_6903_4667)">
        <rect x="520" y="340" width="144" height="52" rx="1" fill="#C1ADFF"/>
        <path d="M591.244 374.29C592.694 374.29 593.954 373.7 594.684 372.43C595.214 371.51 595.154 370.72 595.154 369.48V359.6H593.354V369.48C593.354 370.37 593.354 370.99 593.094 371.51C592.704 372.29 591.884 372.6 591.204 372.6C590.134 372.6 589.224 371.83 589.014 370.85L587.244 371.27C587.754 373.11 589.224 374.29 591.244 374.29Z" fill="#110529"/>
        <rect x="520" y="340" width="144" height="52" rx="1" stroke="#110529" stroke-width="2" stroke-linecap="round"/>
    </g>
    <g filter="url(#filter12_i_6903_4667)">
        <rect x="664" y="340" width="80" height="52" rx="1" fill="#FAFAAA"/>
        <path d="M704.593 374.3C703.16 374.3 701.943 373.983 700.943 373.35C699.943 372.717 699.18 371.837 698.653 370.71C698.133 369.583 697.873 368.28 697.873 366.8C697.873 365.32 698.133 364.017 698.653 362.89C699.18 361.763 699.943 360.883 700.943 360.25C701.943 359.617 703.16 359.3 704.593 359.3C706.26 359.3 707.63 359.723 708.703 360.57C709.783 361.417 710.527 362.557 710.933 363.99L709.123 364.47C708.83 363.397 708.307 362.55 707.553 361.93C706.8 361.31 705.813 361 704.593 361C703.52 361 702.627 361.243 701.913 361.73C701.2 362.217 700.663 362.897 700.303 363.77C699.943 364.637 699.76 365.647 699.753 366.8C699.747 367.947 699.923 368.957 700.283 369.83C700.643 370.697 701.183 371.377 701.903 371.87C702.623 372.357 703.52 372.6 704.593 372.6C705.813 372.6 706.8 372.29 707.553 371.67C708.307 371.043 708.83 370.197 709.123 369.13L710.933 369.61C710.527 371.037 709.783 372.177 708.703 373.03C707.63 373.877 706.26 374.3 704.593 374.3Z" fill="#110529"/>
        <rect x="664" y="340" width="80" height="52" rx="1" stroke="#110529" stroke-width="2" stroke-linecap="round"/>
    </g>
    <g filter="url(#filter13_i_6903_4667)">
        <rect x="744" y="340" width="64" height="52" rx="1" fill="#D6E0FF"/>
        <path d="M765.053 374.3C768.393 374.3 770.733 372.1 770.733 368.75V359.6H768.933V368.6C768.933 371.31 766.893 372.62 765.053 372.62C763.233 372.62 761.173 371.33 761.173 368.6V359.6L759.373 359.61V368.75C759.373 372.11 761.713 374.3 765.053 374.3ZM773.533 374H775.223V363.51L780.113 374H781.063L785.953 363.51V373.99H787.643V359.6H786.003L780.593 371.07L775.153 359.6H773.533V374ZM790.647 374H792.427V359.6H790.647V374Z" fill="#110529"/>
        <rect x="744" y="340" width="64" height="52" rx="1" stroke="#110529" stroke-width="2" stroke-linecap="round"/>
    </g>
    <path d="M586.593 37H588.056V32.695H591.724V31.225H588.056V28.383H592.564V26.92H586.593V37ZM593.826 37H595.289V33.381H597.963L599.72 37H601.393L599.489 33.094C600.63 32.597 601.204 31.491 601.204 30.147C601.204 28.516 600.364 27.235 598.677 26.976C598.411 26.934 598.096 26.92 597.9 26.92H593.826V37ZM595.289 31.995V28.299H597.844C598.026 28.299 598.271 28.313 598.481 28.369C599.377 28.579 599.713 29.405 599.713 30.147C599.713 30.889 599.377 31.715 598.481 31.932C598.271 31.981 598.026 31.995 597.844 31.995H595.289ZM607.201 37H608.685V35.243H609.686V33.857H608.685V31.127H607.201V33.857H604.324L607.6 26.92H605.927L602.651 33.857V35.243H607.201V37Z" fill="#D3D7E0"/>
    <path d="M458.682 37.21C461.006 37.21 462.567 35.943 463.162 33.955L461.678 33.556C461.279 34.963 460.278 35.817 458.682 35.817C456.54 35.817 455.448 34.27 455.462 31.96C455.469 29.65 456.54 28.103 458.682 28.103C460.278 28.103 461.279 28.957 461.678 30.364L463.162 29.965C462.567 27.977 461.006 26.71 458.682 26.71C455.658 26.71 453.915 28.845 453.915 31.96C453.915 35.075 455.658 37.21 458.682 37.21ZM464.702 37H467.859C468.041 37 468.643 37 469.112 36.937C471.478 36.636 472.738 34.529 472.738 31.96C472.738 29.391 471.478 27.284 469.112 26.983C468.643 26.92 468.041 26.92 467.859 26.92H464.702V37ZM466.2 35.607V28.313H467.859C468.167 28.313 468.671 28.32 469.007 28.383C470.519 28.663 471.184 30.189 471.184 31.96C471.184 33.689 470.547 35.243 469.007 35.537C468.671 35.6 468.181 35.607 467.859 35.607H466.2ZM474.368 37H475.831V33.381H478.505L480.262 37H481.935L480.031 33.094C481.172 32.597 481.746 31.491 481.746 30.147C481.746 28.516 480.906 27.235 479.219 26.976C478.953 26.934 478.638 26.92 478.442 26.92H474.368V37ZM475.831 31.995V28.299H478.386C478.568 28.299 478.813 28.313 479.023 28.369C479.919 28.579 480.255 29.405 480.255 30.147C480.255 30.889 479.919 31.715 479.023 31.932C478.813 31.981 478.568 31.995 478.386 31.995H475.831ZM486.294 37.189C488.177 37.189 489.661 35.796 489.661 33.871C489.661 32.233 488.653 30.924 487.022 30.707L489.514 28.313V26.92H483.452V28.313H487.722L484.642 31.036L485.328 32.191C485.615 32.037 485.958 31.939 486.28 31.939C487.4 31.939 488.163 32.751 488.163 33.871C488.163 34.984 487.4 35.789 486.294 35.803C485.468 35.81 484.733 35.341 484.467 34.466L483.053 34.858C483.48 36.293 484.796 37.189 486.294 37.189Z" fill="#D3D7E0"/>
    <rect width="44" height="20" transform="translate(754 48)" fill="white"/>
    <path d="M761.128 64H762.576V52.48H761.128L758.96 53.776V55.368L761.128 54.056V64ZM770.596 64H772.036V61.88H773.236V60.528H772.036V57.288H770.596V60.528H766.916L770.716 52.48H769.1L765.3 60.528V61.88H770.596V64ZM779.119 64.24C781.535 64.24 782.991 62.264 782.991 59.672C782.991 57.08 781.527 55.12 779.127 55.12C778.047 55.12 777.191 55.496 776.575 56.144V52.48H775.143V64H776.415V63.024C777.047 63.784 777.951 64.24 779.119 64.24ZM776.415 59.672C776.415 57.76 777.215 56.424 778.903 56.424C780.663 56.424 781.479 57.848 781.479 59.672C781.479 61.512 780.647 62.936 778.943 62.936C777.199 62.936 776.415 61.568 776.415 59.672ZM788.713 64.24C791.129 64.24 792.585 62.264 792.585 59.672C792.585 57.08 791.121 55.12 788.721 55.12C787.545 55.12 786.641 55.568 786.009 56.328V55.36H784.737V67.84H786.169V63.2C786.785 63.856 787.641 64.24 788.713 64.24ZM786.009 59.672C786.009 57.76 786.809 56.424 788.497 56.424C790.257 56.424 791.073 57.848 791.073 59.672C791.073 61.512 790.241 62.936 788.537 62.936C786.793 62.936 786.009 61.568 786.009 59.672Z" fill="#110529"/>
    <path d="M19.6627 104H21.4427V91.29H26.3527V89.6H14.7527V91.29H19.6627V104ZM33.8649 104.3C37.1949 104.3 39.3849 102.47 40.2049 99.61L38.3949 99.13C37.8049 101.27 36.2949 102.6 33.8649 102.6C30.6449 102.6 29.0049 100.25 29.0249 96.8C29.0449 93.35 30.6449 91 33.8649 91C36.2949 91 37.8049 92.33 38.3949 94.47L40.2049 93.99C39.3849 91.13 37.1949 89.3 33.8649 89.3C29.5549 89.3 27.1449 92.36 27.1449 96.8C27.1449 101.24 29.5549 104.3 33.8649 104.3ZM42.398 104H44.178V98.68H48.388L50.968 104H53.008L50.228 98.29C51.858 97.61 52.708 96.04 52.708 94.14C52.708 91.85 51.478 90.04 49.148 89.68C48.778 89.62 48.368 89.6 48.088 89.6H42.398V104ZM44.178 96.99V91.29H48.028C48.278 91.29 48.628 91.31 48.928 91.38C50.308 91.69 50.888 92.94 50.888 94.14C50.888 95.34 50.308 96.59 48.928 96.9C48.628 96.97 48.278 96.99 48.028 96.99H44.178ZM59.2045 93.2V108.8H60.9845V103.39C61.6945 103.96 62.6845 104.3 63.9145 104.3C66.9645 104.3 68.8145 102.57 68.8145 99.95C68.8145 97.74 67.4145 96.44 66.0245 96.09C67.0745 95.58 67.5845 94.5 67.5845 93.22C67.5845 90.84 65.8345 89.3 63.3445 89.3C61.4845 89.3 59.9545 90.16 59.4245 91.78C59.2745 92.23 59.2045 92.71 59.2045 93.2ZM61.0245 99.71V93.86C61.0245 93.44 61.0445 92.8 61.2545 92.28C61.6145 91.35 62.4945 90.99 63.3845 90.99C64.7645 90.99 65.7645 91.82 65.7645 93.24C65.7645 94.67 64.7645 95.4 63.3945 95.54V97.14C65.5845 97.18 67.0045 98.1 67.0045 99.87C67.0045 101.52 65.7645 102.61 63.9945 102.61C62.7445 102.61 61.5045 102.04 61.1745 101.01C61.0545 100.64 61.0245 100.1 61.0245 99.71ZM78.4404 89.6L74.6004 104H76.4104L80.2504 89.6H78.4404ZM25.4733 124H27.2533V111.29H32.1633V109.6H20.5633V111.29H25.4733V124ZM39.6755 124.3C43.0055 124.3 45.1955 122.47 46.0155 119.61L44.2055 119.13C43.6155 121.27 42.1055 122.6 39.6755 122.6C36.4555 122.6 34.8155 120.25 34.8355 116.8C34.8555 113.35 36.4555 111 39.6755 111C42.1055 111 43.6155 112.33 44.2055 114.47L46.0155 113.99C45.1955 111.13 43.0055 109.3 39.6755 109.3C35.3655 109.3 32.9555 112.36 32.9555 116.8C32.9555 121.24 35.3655 124.3 39.6755 124.3ZM48.2086 124H49.9886V118.68H54.1986L56.7786 124H58.8186L56.0386 118.29C57.6686 117.61 58.5186 116.04 58.5186 114.14C58.5186 111.85 57.2886 110.04 54.9586 109.68C54.5886 109.62 54.1786 109.6 53.8986 109.6H48.2086V124ZM49.9886 116.99V111.29H53.8386C54.0886 111.29 54.4386 111.31 54.7386 111.38C56.1186 111.69 56.6986 112.94 56.6986 114.14C56.6986 115.34 56.1186 116.59 54.7386 116.9C54.4386 116.97 54.0886 116.99 53.8386 116.99H49.9886ZM69.595 124.29C72.845 124.29 74.835 122.14 74.835 119.03C74.835 116.57 73.585 114.7 71.435 114.05C69.385 113.33 67.755 112.92 67.755 111.87C67.755 111.33 68.145 111.01 68.695 110.87C68.985 110.8 69.325 110.78 69.735 110.78H72.895V109.3H69.335C68.885 109.3 68.515 109.3 68.115 109.38C66.535 109.64 65.985 110.76 65.985 111.8C65.985 113.11 66.865 113.88 67.975 114.39C65.725 114.77 64.425 116.69 64.425 119.17C64.425 122.24 66.405 124.29 69.595 124.29ZM66.445 119.03C66.445 116.88 67.495 115.47 69.635 115.47C71.735 115.47 72.825 116.83 72.825 119.01C72.825 121.18 71.755 122.6 69.635 122.6C67.555 122.6 66.445 121.25 66.445 119.03Z" fill="#110529"/>
    <g filter="url(#filter14_i_6903_4667)">
        <path d="M101 240H422.4C422.96 240 423.24 240 423.454 240.109C423.642 240.205 423.795 240.358 423.891 240.546C424 240.76 424 241.04 424 241.6V290.4C424 290.96 424 291.24 423.891 291.454C423.795 291.642 423.642 291.795 423.454 291.891C423.24 292 422.96 292 422.4 292H101L96 285.5L101 279L96 272L101 266L96 259.5L101 253L96 246.5L101 240Z" fill="#99E099"/>
    </g>
    <path d="M101 240H422.4C422.96 240 423.24 240 423.454 240.109C423.642 240.205 423.795 240.358 423.891 240.546C424 240.76 424 241.04 424 241.6V290.4C424 290.96 424 291.24 423.891 291.454C423.795 291.642 423.642 291.795 423.454 291.891C423.24 292 422.96 292 422.4 292H101L96 285.5L101 279L96 272L101 266L96 259.5L101 253L96 246.5L101 240Z" stroke="#110529" stroke-width="2" stroke-linecap="round"/>
    <path d="M259.258 274H261.738L266.558 259.6H264.708L260.478 272.11L256.288 259.6H254.438L259.258 274Z" fill="#110529"/>
    <g filter="url(#filter15_i_6903_4667)">
        <rect x="424" y="240" width="30" height="52" rx="1" fill="#CBEB67"/>
    </g>
    <rect x="424" y="240" width="30" height="52" rx="1" stroke="#110529" stroke-width="2" stroke-linecap="round"/>
    <path d="M433.447 274H435.247V262.74L442.757 274H444.557V259.6H442.757V270.85L435.247 259.6H433.447V274Z" fill="#110529"/>
    <g filter="url(#filter16_i_6903_4667)">
        <rect x="454" y="240" width="144" height="52" rx="1" fill="#C1ADFF"/>
        <path d="M525.244 274.29C526.694 274.29 527.954 273.7 528.684 272.43C529.214 271.51 529.154 270.72 529.154 269.48V259.6H527.354V269.48C527.354 270.37 527.354 270.99 527.094 271.51C526.704 272.29 525.884 272.6 525.204 272.6C524.134 272.6 523.224 271.83 523.014 270.85L521.244 271.27C521.754 273.11 523.224 274.29 525.244 274.29Z" fill="#110529"/>
        <rect x="454" y="240" width="144" height="52" rx="1" stroke="#110529" stroke-width="2" stroke-linecap="round"/>
    </g>
    <g filter="url(#filter17_i_6903_4667)">
        <rect x="598" y="240" width="80" height="52" rx="1" fill="#FAFAAA"/>
        <path d="M638.593 274.3C637.16 274.3 635.943 273.983 634.943 273.35C633.943 272.717 633.18 271.837 632.653 270.71C632.133 269.583 631.873 268.28 631.873 266.8C631.873 265.32 632.133 264.017 632.653 262.89C633.18 261.763 633.943 260.883 634.943 260.25C635.943 259.617 637.16 259.3 638.593 259.3C640.26 259.3 641.63 259.723 642.703 260.57C643.783 261.417 644.527 262.557 644.933 263.99L643.123 264.47C642.83 263.397 642.307 262.55 641.553 261.93C640.8 261.31 639.813 261 638.593 261C637.52 261 636.627 261.243 635.913 261.73C635.2 262.217 634.663 262.897 634.303 263.77C633.943 264.637 633.76 265.647 633.753 266.8C633.747 267.947 633.923 268.957 634.283 269.83C634.643 270.697 635.183 271.377 635.903 271.87C636.623 272.357 637.52 272.6 638.593 272.6C639.813 272.6 640.8 272.29 641.553 271.67C642.307 271.043 642.83 270.197 643.123 269.13L644.933 269.61C644.527 271.037 643.783 272.177 642.703 273.03C641.63 273.877 640.26 274.3 638.593 274.3Z" fill="#110529"/>
        <rect x="598" y="240" width="80" height="52" rx="1" stroke="#110529" stroke-width="2" stroke-linecap="round"/>
    </g>
    <g filter="url(#filter18_i_6903_4667)">
        <rect x="678" y="240" width="64" height="52" rx="1" fill="#D6E0FF"/>
        <path d="M699.053 274.3C702.393 274.3 704.733 272.1 704.733 268.75V259.6H702.933V268.6C702.933 271.31 700.893 272.62 699.053 272.62C697.233 272.62 695.173 271.33 695.173 268.6V259.6L693.373 259.61V268.75C693.373 272.11 695.713 274.3 699.053 274.3ZM707.533 274H709.223V263.51L714.113 274H715.063L719.953 263.51V273.99H721.643V259.6H720.003L714.593 271.07L709.153 259.6H707.533V274ZM724.647 274H726.427V259.6H724.647V274Z" fill="#110529"/>
        <rect x="678" y="240" width="64" height="52" rx="1" stroke="#110529" stroke-width="2" stroke-linecap="round"/>
    </g>
    <g filter="url(#filter19_i_6903_4667)">
        <path d="M101 440H422.4C422.96 440 423.24 440 423.454 440.109C423.642 440.205 423.795 440.358 423.891 440.546C424 440.76 424 441.04 424 441.6V490.4C424 490.96 424 491.24 423.891 491.454C423.795 491.642 423.642 491.795 423.454 491.891C423.24 492 422.96 492 422.4 492H101L96 485.5L101 479L96 472L101 466L96 459.5L101 453L96 446.5L101 440Z" fill="#99E099"/>
    </g>
    <path d="M101 440H422.4C422.96 440 423.24 440 423.454 440.109C423.642 440.205 423.795 440.358 423.891 440.546C424 440.76 424 441.04 424 441.6V490.4C424 490.96 424 491.24 423.891 491.454C423.795 491.642 423.642 491.795 423.454 491.891C423.24 492 422.96 492 422.4 492H101L96 485.5L101 479L96 472L101 466L96 459.5L101 453L96 446.5L101 440Z" stroke="#110529" stroke-width="2" stroke-linecap="round"/>
    <path d="M259.258 474H261.738L266.558 459.6H264.708L260.478 472.11L256.288 459.6H254.438L259.258 474Z" fill="#110529"/>
    <g filter="url(#filter20_i_6903_4667)">
        <rect x="424" y="440" width="30" height="52" rx="1" fill="#CBEB67"/>
    </g>
    <rect x="424" y="440" width="30" height="52" rx="1" stroke="#110529" stroke-width="2" stroke-linecap="round"/>
    <path d="M433.447 474H435.247V462.74L442.757 474H444.557V459.6H442.757V470.85L435.247 459.6H433.447V474Z" fill="#110529"/>
    <g filter="url(#filter21_i_6903_4667)">
        <rect x="454" y="440" width="144" height="52" rx="1" fill="#C1ADFF"/>
        <path d="M525.244 474.29C526.694 474.29 527.954 473.7 528.684 472.43C529.214 471.51 529.154 470.72 529.154 469.48V459.6H527.354V469.48C527.354 470.37 527.354 470.99 527.094 471.51C526.704 472.29 525.884 472.6 525.204 472.6C524.134 472.6 523.224 471.83 523.014 470.85L521.244 471.27C521.754 473.11 523.224 474.29 525.244 474.29Z" fill="#110529"/>
        <rect x="454" y="440" width="144" height="52" rx="1" stroke="#110529" stroke-width="2" stroke-linecap="round"/>
    </g>
    <g filter="url(#filter22_i_6903_4667)">
        <rect x="598" y="440" width="80" height="52" rx="1" fill="#FAFAAA"/>
        <path d="M638.593 474.3C637.16 474.3 635.943 473.983 634.943 473.35C633.943 472.717 633.18 471.837 632.653 470.71C632.133 469.583 631.873 468.28 631.873 466.8C631.873 465.32 632.133 464.017 632.653 462.89C633.18 461.763 633.943 460.883 634.943 460.25C635.943 459.617 637.16 459.3 638.593 459.3C640.26 459.3 641.63 459.723 642.703 460.57C643.783 461.417 644.527 462.557 644.933 463.99L643.123 464.47C642.83 463.397 642.307 462.55 641.553 461.93C640.8 461.31 639.813 461 638.593 461C637.52 461 636.627 461.243 635.913 461.73C635.2 462.217 634.663 462.897 634.303 463.77C633.943 464.637 633.76 465.647 633.753 466.8C633.747 467.947 633.923 468.957 634.283 469.83C634.643 470.697 635.183 471.377 635.903 471.87C636.623 472.357 637.52 472.6 638.593 472.6C639.813 472.6 640.8 472.29 641.553 471.67C642.307 471.043 642.83 470.197 643.123 469.13L644.933 469.61C644.527 471.037 643.783 472.177 642.703 473.03C641.63 473.877 640.26 474.3 638.593 474.3Z" fill="#110529"/>
        <rect x="598" y="440" width="80" height="52" rx="1" stroke="#110529" stroke-width="2" stroke-linecap="round"/>
    </g>
    <g filter="url(#filter23_i_6903_4667)">
        <rect x="678" y="440" width="64" height="52" rx="1" fill="#D6E0FF"/>
        <path d="M699.053 474.3C702.393 474.3 704.733 472.1 704.733 468.75V459.6H702.933V468.6C702.933 471.31 700.893 472.62 699.053 472.62C697.233 472.62 695.173 471.33 695.173 468.6V459.6L693.373 459.61V468.75C693.373 472.11 695.713 474.3 699.053 474.3ZM707.533 474H709.223V463.51L714.113 474H715.063L719.953 463.51V473.99H721.643V459.6H720.003L714.593 471.07L709.153 459.6H707.533V474ZM724.647 474H726.427V459.6H724.647V474Z" fill="#110529"/>
        <rect x="678" y="440" width="64" height="52" rx="1" stroke="#110529" stroke-width="2" stroke-linecap="round"/>
    </g>
    <path d="M248 180L247.293 180.707L246.586 180L247.293 179.293L248 180ZM255.293 171.293L256 170.586L257.414 172L256.707 172.707L255.293 171.293ZM256.707 187.293L257.414 188L256 189.414L255.293 188.707L256.707 187.293ZM258 181L248 181L248 179L258 179L258 181ZM247.293 179.293L255.293 171.293L256.707 172.707L248.707 180.707L247.293 179.293ZM248.707 179.293L256.707 187.293L255.293 188.707L247.293 180.707L248.707 179.293Z" fill="#110529"/>
    <path d="M488.5 180H258" stroke="#110529" stroke-width="2"/>
    <rect width="57" height="20" transform="translate(488.5 170)" fill="white"/>
    <path d="M497.171 186.224C495.459 186.224 494.019 185.232 493.531 183.632L494.899 183.24C495.243 184.312 496.139 184.88 497.163 184.864C498.563 184.84 499.467 183.864 499.467 182.456C499.467 181.032 498.531 180.048 497.147 180.048C496.755 180.048 496.315 180.168 495.955 180.352L495.267 179.224L499.011 175.84H493.987V174.48H500.779V175.848L497.667 178.832C499.651 178.944 500.931 180.44 500.931 182.456C500.931 184.664 499.307 186.224 497.171 186.224ZM506.899 186.24C504.659 186.24 503.011 184.592 503.011 182.352V178.128C503.011 175.888 504.659 174.24 506.899 174.24C509.139 174.24 510.787 175.888 510.787 178.128V182.352C510.787 184.592 509.139 186.24 506.899 186.24ZM504.459 182.432C504.459 183.784 505.547 184.872 506.899 184.872C508.251 184.872 509.339 183.784 509.339 182.432V178.04C509.339 176.688 508.251 175.6 506.899 175.6C505.547 175.6 504.459 176.688 504.459 178.04V182.432ZM516.914 186.24C514.674 186.24 513.026 184.592 513.026 182.352V178.128C513.026 175.888 514.674 174.24 516.914 174.24C519.154 174.24 520.802 175.888 520.802 178.128V182.352C520.802 184.592 519.154 186.24 516.914 186.24ZM514.474 182.432C514.474 183.784 515.562 184.872 516.914 184.872C518.266 184.872 519.354 183.784 519.354 182.432V178.04C519.354 176.688 518.266 175.6 516.914 175.6C515.562 175.6 514.474 176.688 514.474 178.04V182.432ZM527.01 186.24C525.842 186.24 524.938 185.784 524.306 185.024V186H523.034V174.48H524.466V178.144C525.082 177.496 525.938 177.12 527.018 177.12C529.418 177.12 530.882 179.08 530.882 181.672C530.882 184.264 529.426 186.24 527.01 186.24ZM524.306 181.672C524.306 183.568 525.09 184.936 526.834 184.936C528.538 184.936 529.37 183.512 529.37 181.672C529.37 179.848 528.554 178.424 526.794 178.424C525.106 178.424 524.306 179.76 524.306 181.672ZM536.604 186.24C535.532 186.24 534.676 185.856 534.06 185.2V189.84H532.628V177.36H533.9V178.328C534.532 177.568 535.436 177.12 536.612 177.12C539.012 177.12 540.476 179.08 540.476 181.672C540.476 184.264 539.02 186.24 536.604 186.24ZM533.9 181.672C533.9 183.568 534.684 184.936 536.428 184.936C538.132 184.936 538.964 183.512 538.964 181.672C538.964 179.848 538.148 178.424 536.388 178.424C534.7 178.424 533.9 179.76 533.9 181.672Z" fill="#110529"/>
    <path d="M776 180H545.5" stroke="#110529" stroke-width="2"/>
    <rect x="776" y="168" width="32" height="24" rx="1" fill="white"/>
    <path d="M783.12 186V174.48H787.672C787.896 174.48 788.224 174.496 788.52 174.544C790.384 174.832 791.368 176.28 791.368 178.112C791.368 179.632 790.688 180.888 789.384 181.432L791.608 186H789.976L787.912 181.744H784.544V186H783.12ZM784.544 180.392H787.624C787.824 180.392 788.104 180.376 788.344 180.32C789.448 180.072 789.912 179.072 789.912 178.112C789.912 177.152 789.448 176.152 788.344 175.904C788.104 175.848 787.824 175.832 787.624 175.832H784.544V180.392ZM793.05 185.992L793.058 184.712L798.17 180.112C799.018 179.352 799.25 178.688 799.25 177.96C799.25 176.632 798.258 175.6 796.93 175.6C795.554 175.6 794.546 176.696 794.562 177.952H793.106C793.106 175.784 794.738 174.24 796.954 174.24C799.09 174.24 800.706 175.856 800.706 177.976C800.706 179.488 800.138 180.248 798.954 181.296L795.242 184.632H800.706V185.992H793.05Z" fill="#110529"/>
    <rect x="776" y="168" width="32" height="24" rx="1" stroke="#110529" stroke-width="2"/>
    <rect x="96" y="144" width="32" height="24" rx="1" fill="white"/>
    <path d="M104.62 162V150.48H109.172C109.396 150.48 109.724 150.496 110.02 150.544C111.884 150.832 112.868 152.28 112.868 154.112C112.868 155.632 112.188 156.888 110.884 157.432L113.108 162H111.476L109.412 157.744H106.044V162H104.62ZM106.044 156.392H109.124C109.324 156.392 109.604 156.376 109.844 156.32C110.948 156.072 111.412 155.072 111.412 154.112C111.412 153.152 110.948 152.152 109.844 151.904C109.604 151.848 109.324 151.832 109.124 151.832H106.044V156.392ZM116.878 162V152.056L114.71 153.368V151.776L116.878 150.48H118.326V162H116.878Z" fill="#110529"/>
    <rect x="96" y="144" width="32" height="24" rx="1" stroke="#110529" stroke-width="2"/>
    <path d="M362.5 156H128" stroke="#110529" stroke-width="2"/>
    <rect width="57" height="20" transform="translate(362.5 146)" fill="white"/>
    <path d="M371.171 162.224C369.459 162.224 368.019 161.232 367.531 159.632L368.899 159.24C369.243 160.312 370.139 160.88 371.163 160.864C372.563 160.84 373.467 159.864 373.467 158.456C373.467 157.032 372.531 156.048 371.147 156.048C370.755 156.048 370.315 156.168 369.955 156.352L369.267 155.224L373.011 151.84H367.987V150.48H374.779V151.848L371.667 154.832C373.651 154.944 374.931 156.44 374.931 158.456C374.931 160.664 373.307 162.224 371.171 162.224ZM380.899 162.24C378.659 162.24 377.011 160.592 377.011 158.352V154.128C377.011 151.888 378.659 150.24 380.899 150.24C383.139 150.24 384.787 151.888 384.787 154.128V158.352C384.787 160.592 383.139 162.24 380.899 162.24ZM378.459 158.432C378.459 159.784 379.547 160.872 380.899 160.872C382.251 160.872 383.339 159.784 383.339 158.432V154.04C383.339 152.688 382.251 151.6 380.899 151.6C379.547 151.6 378.459 152.688 378.459 154.04V158.432ZM390.914 162.24C388.674 162.24 387.026 160.592 387.026 158.352V154.128C387.026 151.888 388.674 150.24 390.914 150.24C393.154 150.24 394.802 151.888 394.802 154.128V158.352C394.802 160.592 393.154 162.24 390.914 162.24ZM388.474 158.432C388.474 159.784 389.562 160.872 390.914 160.872C392.266 160.872 393.354 159.784 393.354 158.432V154.04C393.354 152.688 392.266 151.6 390.914 151.6C389.562 151.6 388.474 152.688 388.474 154.04V158.432ZM401.01 162.24C399.842 162.24 398.938 161.784 398.306 161.024V162H397.034V150.48H398.466V154.144C399.082 153.496 399.938 153.12 401.018 153.12C403.418 153.12 404.882 155.08 404.882 157.672C404.882 160.264 403.426 162.24 401.01 162.24ZM398.306 157.672C398.306 159.568 399.09 160.936 400.834 160.936C402.538 160.936 403.37 159.512 403.37 157.672C403.37 155.848 402.554 154.424 400.794 154.424C399.106 154.424 398.306 155.76 398.306 157.672ZM410.604 162.24C409.532 162.24 408.676 161.856 408.06 161.2V165.84H406.628V153.36H407.9V154.328C408.532 153.568 409.436 153.12 410.612 153.12C413.012 153.12 414.476 155.08 414.476 157.672C414.476 160.264 413.02 162.24 410.604 162.24ZM407.9 157.672C407.9 159.568 408.684 160.936 410.428 160.936C412.132 160.936 412.964 159.512 412.964 157.672C412.964 155.848 412.148 154.424 410.388 154.424C408.7 154.424 407.9 155.76 407.9 157.672Z" fill="#110529"/>
    <path d="M654 156H419.5" stroke="#110529" stroke-width="2"/>
    <path d="M664 156L664.707 155.293L665.414 156L664.707 156.707L664 156ZM656.707 164.707L656 165.414L654.586 164L655.293 163.293L656.707 164.707ZM655.293 148.707L654.586 148L656 146.586L656.707 147.293L655.293 148.707ZM654 155L664 155L664 157L654 157L654 155ZM664.707 156.707L656.707 164.707L655.293 163.293L663.293 155.293L664.707 156.707ZM663.293 156.707L655.293 148.707L656.707 147.293L664.707 155.293L663.293 156.707Z" fill="#110529"/>
    <path d="M32.9984 374H34.7784V359.6H32.9984V374ZM43.6089 374.3C47.8189 374.3 50.0589 371.39 50.0589 367.44C50.0589 367.32 50.0489 366.87 50.0189 366.59H45.0789V368.06H48.1389C47.9189 370.93 46.4789 372.62 43.6989 372.6C40.4789 372.58 38.8489 370.25 38.8689 366.8C38.8889 363.35 40.4789 360.99 43.6989 361.01C45.7489 361.02 47.1389 362.14 47.7489 363.88L49.5489 363.51C48.7989 360.92 46.8289 359.31 43.6089 359.31C39.5789 359.31 36.9789 362.21 36.9789 366.8C36.9789 371.44 39.6389 374.3 43.6089 374.3ZM52.0563 374H53.8363V367.64H61.4163V374H63.1963V359.6H61.4163V365.95H53.8363V359.6H52.0563V374Z" fill="#110529"/>
    <path d="M26.0258 464H27.8058V449.6H26.0258V464ZM36.6363 464.3C40.8463 464.3 43.0863 461.39 43.0863 457.44C43.0863 457.32 43.0763 456.87 43.0463 456.59H38.1063V458.06H41.1662C40.9463 460.93 39.5062 462.62 36.7263 462.6C33.5063 462.58 31.8763 460.25 31.8963 456.8C31.9163 453.35 33.5063 450.99 36.7263 451.01C38.7763 451.02 40.1663 452.14 40.7763 453.88L42.5763 453.51C41.8263 450.92 39.8563 449.31 36.6363 449.31C32.6063 449.31 30.0063 452.21 30.0063 456.8C30.0063 461.44 32.6663 464.3 36.6363 464.3ZM45.0836 464H46.8636V456.96L53.6136 464H55.9136L48.8636 456.59L55.4036 449.6H53.1636L46.8636 456.36V449.6H45.0836V464ZM64.5634 449.6L60.7234 464H62.5334L66.3734 449.6H64.5634ZM34.7953 484H36.5753V469.6H34.7953V484ZM45.4058 484.3C49.6158 484.3 51.8558 481.39 51.8558 477.44C51.8558 477.32 51.8458 476.87 51.8158 476.59H46.8758V478.06H49.9358C49.7158 480.93 48.2758 482.62 45.4958 482.6C42.2758 482.58 40.6458 480.25 40.6658 476.8C40.6858 473.35 42.2758 470.99 45.4958 471.01C47.5458 471.02 48.9358 472.14 49.5458 473.88L51.3458 473.51C50.5958 470.92 48.6258 469.31 45.4058 469.31C41.3758 469.31 38.7758 472.21 38.7758 476.8C38.7758 481.44 41.4358 484.3 45.4058 484.3ZM54.0531 484H62.5131V482.31H55.8331V469.6H54.0531V484Z" fill="#110529"/>
    <path d="M19.3014 264H21.0814V251.29H25.9914V249.6H14.3914V251.29H19.3014V264ZM33.5036 264.3C36.8336 264.3 39.0236 262.47 39.8436 259.61L38.0336 259.13C37.4436 261.27 35.9336 262.6 33.5036 262.6C30.2836 262.6 28.6436 260.25 28.6636 256.8C28.6836 253.35 30.2836 251 33.5036 251C35.9336 251 37.4436 252.33 38.0336 254.47L39.8436 253.99C39.0236 251.13 36.8336 249.3 33.5036 249.3C29.1936 249.3 26.7836 252.36 26.7836 256.8C26.7836 261.24 29.1936 264.3 33.5036 264.3ZM42.0367 264H43.8167V258.68H48.0267L50.6067 264H52.6467L49.8667 258.29C51.4967 257.61 52.3467 256.04 52.3467 254.14C52.3467 251.85 51.1167 250.04 48.7867 249.68C48.4167 249.62 48.0067 249.6 47.7267 249.6H42.0367V264ZM43.8167 256.99V251.29H47.6667C47.9167 251.29 48.2667 251.31 48.5667 251.38C49.9467 251.69 50.5267 252.94 50.5267 254.14C50.5267 255.34 49.9467 256.59 48.5667 256.9C48.2667 256.97 47.9167 256.99 47.6667 256.99H43.8167ZM63.1231 264.3C64.7631 264.3 66.0731 263.54 66.7731 262.24V264H68.3631V253.2H66.7731V254.93C66.0831 253.65 64.8231 252.9 63.1731 252.9C60.0731 252.9 58.2531 255.35 58.2531 258.6C58.2531 261.83 60.0631 264.3 63.1231 264.3ZM60.1431 258.6C60.1431 256.19 61.2531 254.53 63.3631 254.53C65.4731 254.53 66.4731 256.2 66.4731 258.59C66.4731 260.96 65.4831 262.67 63.3431 262.67C61.1731 262.67 60.1431 260.88 60.1431 258.6ZM78.8017 249.6L74.9617 264H76.7717L80.6117 249.6H78.8017ZM26.2448 284H28.0248V271.29H32.9348V269.6H21.3348V271.29H26.2448V284ZM40.447 284.3C43.777 284.3 45.967 282.47 46.787 279.61L44.977 279.13C44.387 281.27 42.877 282.6 40.447 282.6C37.227 282.6 35.587 280.25 35.607 276.8C35.627 273.35 37.227 271 40.447 271C42.877 271 44.387 272.33 44.977 274.47L46.787 273.99C45.967 271.13 43.777 269.3 40.447 269.3C36.137 269.3 33.727 272.36 33.727 276.8C33.727 281.24 36.137 284.3 40.447 284.3ZM48.9801 284H50.7601V278.68H54.9701L57.5501 284H59.5901L56.8101 278.29C58.4401 277.61 59.2901 276.04 59.2901 274.14C59.2901 271.85 58.0601 270.04 55.7301 269.68C55.3601 269.62 54.9501 269.6 54.6701 269.6H48.9801V284ZM50.7601 276.99V271.29H54.6101C54.8601 271.29 55.2101 271.31 55.5101 271.38C56.8901 271.69 57.4701 272.94 57.4701 274.14C57.4701 275.34 56.8901 276.59 55.5101 276.9C55.2101 276.97 54.8601 276.99 54.6101 276.99H50.7601ZM68.7165 287.6H70.5365V284L74.4565 273.2H72.6565L69.6265 281.73L66.6065 273.2H64.7965L68.7165 284V287.6Z" fill="#110529"/>
    <defs>
        <filter id="filter0_i_6903_4667" x="94.7375" y="79" width="330.262" height="54" filterUnits="userSpaceOnUse" color-interpolation-filters="sRGB">
            <feFlood flood-opacity="0" result="BackgroundImageFix"/>
            <feBlend mode="normal" in="SourceGraphic" in2="BackgroundImageFix" result="shape"/>
            <feColorMatrix in="SourceAlpha" type="matrix" values="0 0 0 0 0 0 0 0 0 0 0 0 0 0 0 0 0 0 127 0" result="hardAlpha"/>
            <feOffset dx="-8" dy="-4"/>
            <feComposite in2="hardAlpha" operator="arithmetic" k2="-1" k3="1"/>
            <feColorMatrix type="matrix" values="0 0 0 0 0.0666667 0 0 0 0 0.0196078 0 0 0 0 0.160784 0 0 0 0.16 0"/>
            <feBlend mode="normal" in2="shape" result="effect1_innerShadow_6903_4667"/>
        </filter>
        <filter id="filter1_i_6903_4667" x="423" y="79" width="32" height="54" filterUnits="userSpaceOnUse" color-interpolation-filters="sRGB">
            <feFlood flood-opacity="0" result="BackgroundImageFix"/>
            <feBlend mode="normal" in="SourceGraphic" in2="BackgroundImageFix" result="shape"/>
            <feColorMatrix in="SourceAlpha" type="matrix" values="0 0 0 0 0 0 0 0 0 0 0 0 0 0 0 0 0 0 127 0" result="hardAlpha"/>
            <feOffset dx="-8" dy="-4"/>
            <feComposite in2="hardAlpha" operator="arithmetic" k2="-1" k3="1"/>
            <feColorMatrix type="matrix" values="0 0 0 0 0.0666667 0 0 0 0 0.0196078 0 0 0 0 0.160784 0 0 0 0.16 0"/>
            <feBlend mode="normal" in2="shape" result="effect1_innerShadow_6903_4667"/>
        </filter>
        <filter id="filter2_i_6903_4667" x="489" y="79" width="32" height="54" filterUnits="userSpaceOnUse" color-interpolation-filters="sRGB">
            <feFlood flood-opacity="0" result="BackgroundImageFix"/>
            <feBlend mode="normal" in="SourceGraphic" in2="BackgroundImageFix" result="shape"/>
            <feColorMatrix in="SourceAlpha" type="matrix" values="0 0 0 0 0 0 0 0 0 0 0 0 0 0 0 0 0 0 127 0" result="hardAlpha"/>
            <feOffset dx="-8" dy="-4"/>
            <feComposite in2="hardAlpha" operator="arithmetic" k2="-1" k3="1"/>
            <feColorMatrix type="matrix" values="0 0 0 0 0.0666667 0 0 0 0 0.0196078 0 0 0 0 0.160784 0 0 0 0.16 0"/>
            <feBlend mode="normal" in2="shape" result="effect1_innerShadow_6903_4667"/>
        </filter>
        <filter id="filter3_i_6903_4667" x="453" y="79" width="38" height="54" filterUnits="userSpaceOnUse" color-interpolation-filters="sRGB">
            <feFlood flood-opacity="0" result="BackgroundImageFix"/>
            <feBlend mode="normal" in="SourceGraphic" in2="BackgroundImageFix" result="shape"/>
            <feColorMatrix in="SourceAlpha" type="matrix" values="0 0 0 0 0 0 0 0 0 0 0 0 0 0 0 0 0 0 127 0" result="hardAlpha"/>
            <feOffset dx="-8" dy="-4"/>
            <feComposite in2="hardAlpha" operator="arithmetic" k2="-1" k3="1"/>
            <feColorMatrix type="matrix" values="0 0 0 0 0.0666667 0 0 0 0 0.0196078 0 0 0 0 0.160784 0 0 0 0.16 0"/>
            <feBlend mode="normal" in2="shape" result="effect1_innerShadow_6903_4667"/>
        </filter>
        <filter id="filter4_i_6903_4667" x="519" y="79" width="146" height="54" filterUnits="userSpaceOnUse" color-interpolation-filters="sRGB">
            <feFlood flood-opacity="0" result="BackgroundImageFix"/>
            <feBlend mode="normal" in="SourceGraphic" in2="BackgroundImageFix" result="shape"/>
            <feColorMatrix in="SourceAlpha" type="matrix" values="0 0 0 0 0 0 0 0 0 0 0 0 0 0 0 0 0 0 127 0" result="hardAlpha"/>
            <feOffset dx="-8" dy="-4"/>
            <feComposite in2="hardAlpha" operator="arithmetic" k2="-1" k3="1"/>
            <feColorMatrix type="matrix" values="0 0 0 0 0.0666667 0 0 0 0 0.0196078 0 0 0 0 0.160784 0 0 0 0.16 0"/>
            <feBlend mode="normal" in2="shape" result="effect1_innerShadow_6903_4667"/>
        </filter>
        <filter id="filter5_i_6903_4667" x="663" y="79" width="82" height="54" filterUnits="userSpaceOnUse" color-interpolation-filters="sRGB">
            <feFlood flood-opacity="0" result="BackgroundImageFix"/>
            <feBlend mode="normal" in="SourceGraphic" in2="BackgroundImageFix" result="shape"/>
            <feColorMatrix in="SourceAlpha" type="matrix" values="0 0 0 0 0 0 0 0 0 0 0 0 0 0 0 0 0 0 127 0" result="hardAlpha"/>
            <feOffset dx="-8" dy="-4"/>
            <feComposite in2="hardAlpha" operator="arithmetic" k2="-1" k3="1"/>
            <feColorMatrix type="matrix" values="0 0 0 0 0.0666667 0 0 0 0 0.0196078 0 0 0 0 0.160784 0 0 0 0.16 0"/>
            <feBlend mode="normal" in2="shape" result="effect1_innerShadow_6903_4667"/>
        </filter>
        <filter id="filter6_i_6903_4667" x="743" y="79" width="66" height="54" filterUnits="userSpaceOnUse" color-interpolation-filters="sRGB">
            <feFlood flood-opacity="0" result="BackgroundImageFix"/>
            <feBlend mode="normal" in="SourceGraphic" in2="BackgroundImageFix" result="shape"/>
            <feColorMatrix in="SourceAlpha" type="matrix" values="0 0 0 0 0 0 0 0 0 0 0 0 0 0 0 0 0 0 127 0" result="hardAlpha"/>
            <feOffset dx="-8" dy="-4"/>
            <feComposite in2="hardAlpha" operator="arithmetic" k2="-1" k3="1"/>
            <feColorMatrix type="matrix" values="0 0 0 0 0.0666667 0 0 0 0 0.0196078 0 0 0 0 0.160784 0 0 0 0.16 0"/>
            <feBlend mode="normal" in2="shape" result="effect1_innerShadow_6903_4667"/>
        </filter>
        <filter id="filter7_i_6903_4667" x="94.7375" y="339" width="330.262" height="54" filterUnits="userSpaceOnUse" color-interpolation-filters="sRGB">
            <feFlood flood-opacity="0" result="BackgroundImageFix"/>
            <feBlend mode="normal" in="SourceGraphic" in2="BackgroundImageFix" result="shape"/>
            <feColorMatrix in="SourceAlpha" type="matrix" values="0 0 0 0 0 0 0 0 0 0 0 0 0 0 0 0 0 0 127 0" result="hardAlpha"/>
            <feOffset dx="-8" dy="-4"/>
            <feComposite in2="hardAlpha" operator="arithmetic" k2="-1" k3="1"/>
            <feColorMatrix type="matrix" values="0 0 0 0 0.0666667 0 0 0 0 0.0196078 0 0 0 0 0.160784 0 0 0 0.16 0"/>
            <feBlend mode="normal" in2="shape" result="effect1_innerShadow_6903_4667"/>
        </filter>
        <filter id="filter8_i_6903_4667" x="423" y="339" width="32" height="54" filterUnits="userSpaceOnUse" color-interpolation-filters="sRGB">
            <feFlood flood-opacity="0" result="BackgroundImageFix"/>
            <feBlend mode="normal" in="SourceGraphic" in2="BackgroundImageFix" result="shape"/>
            <feColorMatrix in="SourceAlpha" type="matrix" values="0 0 0 0 0 0 0 0 0 0 0 0 0 0 0 0 0 0 127 0" result="hardAlpha"/>
            <feOffset dx="-8" dy="-4"/>
            <feComposite in2="hardAlpha" operator="arithmetic" k2="-1" k3="1"/>
            <feColorMatrix type="matrix" values="0 0 0 0 0.0666667 0 0 0 0 0.0196078 0 0 0 0 0.160784 0 0 0 0.16 0"/>
            <feBlend mode="normal" in2="shape" result="effect1_innerShadow_6903_4667"/>
        </filter>
        <filter id="filter9_i_6903_4667" x="489" y="339" width="32" height="54" filterUnits="userSpaceOnUse" color-interpolation-filters="sRGB">
            <feFlood flood-opacity="0" result="BackgroundImageFix"/>
            <feBlend mode="normal" in="SourceGraphic" in2="BackgroundImageFix" result="shape"/>
            <feColorMatrix in="SourceAlpha" type="matrix" values="0 0 0 0 0 0 0 0 0 0 0 0 0 0 0 0 0 0 127 0" result="hardAlpha"/>
            <feOffset dx="-8" dy="-4"/>
            <feComposite in2="hardAlpha" operator="arithmetic" k2="-1" k3="1"/>
            <feColorMatrix type="matrix" values="0 0 0 0 0.0666667 0 0 0 0 0.0196078 0 0 0 0 0.160784 0 0 0 0.16 0"/>
            <feBlend mode="normal" in2="shape" result="effect1_innerShadow_6903_4667"/>
        </filter>
        <filter id="filter10_i_6903_4667" x="453" y="339" width="38" height="54" filterUnits="userSpaceOnUse" color-interpolation-filters="sRGB">
            <feFlood flood-opacity="0" result="BackgroundImageFix"/>
            <feBlend mode="normal" in="SourceGraphic" in2="BackgroundImageFix" result="shape"/>
            <feColorMatrix in="SourceAlpha" type="matrix" values="0 0 0 0 0 0 0 0 0 0 0 0 0 0 0 0 0 0 127 0" result="hardAlpha"/>
            <feOffset dx="-8" dy="-4"/>
            <feComposite in2="hardAlpha" operator="arithmetic" k2="-1" k3="1"/>
            <feColorMatrix type="matrix" values="0 0 0 0 0.0666667 0 0 0 0 0.0196078 0 0 0 0 0.160784 0 0 0 0.16 0"/>
            <feBlend mode="normal" in2="shape" result="effect1_innerShadow_6903_4667"/>
        </filter>
        <filter id="filter11_i_6903_4667" x="519" y="339" width="146" height="54" filterUnits="userSpaceOnUse" color-interpolation-filters="sRGB">
            <feFlood flood-opacity="0" result="BackgroundImageFix"/>
            <feBlend mode="normal" in="SourceGraphic" in2="BackgroundImageFix" result="shape"/>
            <feColorMatrix in="SourceAlpha" type="matrix" values="0 0 0 0 0 0 0 0 0 0 0 0 0 0 0 0 0 0 127 0" result="hardAlpha"/>
            <feOffset dx="-8" dy="-4"/>
            <feComposite in2="hardAlpha" operator="arithmetic" k2="-1" k3="1"/>
            <feColorMatrix type="matrix" values="0 0 0 0 0.0666667 0 0 0 0 0.0196078 0 0 0 0 0.160784 0 0 0 0.16 0"/>
            <feBlend mode="normal" in2="shape" result="effect1_innerShadow_6903_4667"/>
        </filter>
        <filter id="filter12_i_6903_4667" x="663" y="339" width="82" height="54" filterUnits="userSpaceOnUse" color-interpolation-filters="sRGB">
            <feFlood flood-opacity="0" result="BackgroundImageFix"/>
            <feBlend mode="normal" in="SourceGraphic" in2="BackgroundImageFix" result="shape"/>
            <feColorMatrix in="SourceAlpha" type="matrix" values="0 0 0 0 0 0 0 0 0 0 0 0 0 0 0 0 0 0 127 0" result="hardAlpha"/>
            <feOffset dx="-8" dy="-4"/>
            <feComposite in2="hardAlpha" operator="arithmetic" k2="-1" k3="1"/>
            <feColorMatrix type="matrix" values="0 0 0 0 0.0666667 0 0 0 0 0.0196078 0 0 0 0 0.160784 0 0 0 0.16 0"/>
            <feBlend mode="normal" in2="shape" result="effect1_innerShadow_6903_4667"/>
        </filter>
        <filter id="filter13_i_6903_4667" x="743" y="339" width="66" height="54" filterUnits="userSpaceOnUse" color-interpolation-filters="sRGB">
            <feFlood flood-opacity="0" result="BackgroundImageFix"/>
            <feBlend mode="normal" in="SourceGraphic" in2="BackgroundImageFix" result="shape"/>
            <feColorMatrix in="SourceAlpha" type="matrix" values="0 0 0 0 0 0 0 0 0 0 0 0 0 0 0 0 0 0 127 0" result="hardAlpha"/>
            <feOffset dx="-8" dy="-4"/>
            <feComposite in2="hardAlpha" operator="arithmetic" k2="-1" k3="1"/>
            <feColorMatrix type="matrix" values="0 0 0 0 0.0666667 0 0 0 0 0.0196078 0 0 0 0 0.160784 0 0 0 0.16 0"/>
            <feBlend mode="normal" in2="shape" result="effect1_innerShadow_6903_4667"/>
        </filter>
        <filter id="filter14_i_6903_4667" x="94.7375" y="239" width="330.262" height="54" filterUnits="userSpaceOnUse" color-interpolation-filters="sRGB">
            <feFlood flood-opacity="0" result="BackgroundImageFix"/>
            <feBlend mode="normal" in="SourceGraphic" in2="BackgroundImageFix" result="shape"/>
            <feColorMatrix in="SourceAlpha" type="matrix" values="0 0 0 0 0 0 0 0 0 0 0 0 0 0 0 0 0 0 127 0" result="hardAlpha"/>
            <feOffset dx="-8" dy="-4"/>
            <feComposite in2="hardAlpha" operator="arithmetic" k2="-1" k3="1"/>
            <feColorMatrix type="matrix" values="0 0 0 0 0.0666667 0 0 0 0 0.0196078 0 0 0 0 0.160784 0 0 0 0.16 0"/>
            <feBlend mode="normal" in2="shape" result="effect1_innerShadow_6903_4667"/>
        </filter>
        <filter id="filter15_i_6903_4667" x="423" y="239" width="32" height="54" filterUnits="userSpaceOnUse" color-interpolation-filters="sRGB">
            <feFlood flood-opacity="0" result="BackgroundImageFix"/>
            <feBlend mode="normal" in="SourceGraphic" in2="BackgroundImageFix" result="shape"/>
            <feColorMatrix in="SourceAlpha" type="matrix" values="0 0 0 0 0 0 0 0 0 0 0 0 0 0 0 0 0 0 127 0" result="hardAlpha"/>
            <feOffset dx="-8" dy="-4"/>
            <feComposite in2="hardAlpha" operator="arithmetic" k2="-1" k3="1"/>
            <feColorMatrix type="matrix" values="0 0 0 0 0.0666667 0 0 0 0 0.0196078 0 0 0 0 0.160784 0 0 0 0.16 0"/>
            <feBlend mode="normal" in2="shape" result="effect1_innerShadow_6903_4667"/>
        </filter>
        <filter id="filter16_i_6903_4667" x="453" y="239" width="146" height="54" filterUnits="userSpaceOnUse" color-interpolation-filters="sRGB">
            <feFlood flood-opacity="0" result="BackgroundImageFix"/>
            <feBlend mode="normal" in="SourceGraphic" in2="BackgroundImageFix" result="shape"/>
            <feColorMatrix in="SourceAlpha" type="matrix" values="0 0 0 0 0 0 0 0 0 0 0 0 0 0 0 0 0 0 127 0" result="hardAlpha"/>
            <feOffset dx="-8" dy="-4"/>
            <feComposite in2="hardAlpha" operator="arithmetic" k2="-1" k3="1"/>
            <feColorMatrix type="matrix" values="0 0 0 0 0.0666667 0 0 0 0 0.0196078 0 0 0 0 0.160784 0 0 0 0.16 0"/>
            <feBlend mode="normal" in2="shape" result="effect1_innerShadow_6903_4667"/>
        </filter>
        <filter id="filter17_i_6903_4667" x="597" y="239" width="82" height="54" filterUnits="userSpaceOnUse" color-interpolation-filters="sRGB">
            <feFlood flood-opacity="0" result="BackgroundImageFix"/>
            <feBlend mode="normal" in="SourceGraphic" in2="BackgroundImageFix" result="shape"/>
            <feColorMatrix in="SourceAlpha" type="matrix" values="0 0 0 0 0 0 0 0 0 0 0 0 0 0 0 0 0 0 127 0" result="hardAlpha"/>
            <feOffset dx="-8" dy="-4"/>
            <feComposite in2="hardAlpha" operator="arithmetic" k2="-1" k3="1"/>
            <feColorMatrix type="matrix" values="0 0 0 0 0.0666667 0 0 0 0 0.0196078 0 0 0 0 0.160784 0 0 0 0.16 0"/>
            <feBlend mode="normal" in2="shape" result="effect1_innerShadow_6903_4667"/>
        </filter>
        <filter id="filter18_i_6903_4667" x="677" y="239" width="66" height="54" filterUnits="userSpaceOnUse" color-interpolation-filters="sRGB">
            <feFlood flood-opacity="0" result="BackgroundImageFix"/>
            <feBlend mode="normal" in="SourceGraphic" in2="BackgroundImageFix" result="shape"/>
            <feColorMatrix in="SourceAlpha" type="matrix" values="0 0 0 0 0 0 0 0 0 0 0 0 0 0 0 0 0 0 127 0" result="hardAlpha"/>
            <feOffset dx="-8" dy="-4"/>
            <feComposite in2="hardAlpha" operator="arithmetic" k2="-1" k3="1"/>
            <feColorMatrix type="matrix" values="0 0 0 0 0.0666667 0 0 0 0 0.0196078 0 0 0 0 0.160784 0 0 0 0.16 0"/>
            <feBlend mode="normal" in2="shape" result="effect1_innerShadow_6903_4667"/>
        </filter>
        <filter id="filter19_i_6903_4667" x="94.7375" y="439" width="330.262" height="54" filterUnits="userSpaceOnUse" color-interpolation-filters="sRGB">
            <feFlood flood-opacity="0" result="BackgroundImageFix"/>
            <feBlend mode="normal" in="SourceGraphic" in2="BackgroundImageFix" result="shape"/>
            <feColorMatrix in="SourceAlpha" type="matrix" values="0 0 0 0 0 0 0 0 0 0 0 0 0 0 0 0 0 0 127 0" result="hardAlpha"/>
            <feOffset dx="-8" dy="-4"/>
            <feComposite in2="hardAlpha" operator="arithmetic" k2="-1" k3="1"/>
            <feColorMatrix type="matrix" values="0 0 0 0 0.0666667 0 0 0 0 0.0196078 0 0 0 0 0.160784 0 0 0 0.16 0"/>
            <feBlend mode="normal" in2="shape" result="effect1_innerShadow_6903_4667"/>
        </filter>
        <filter id="filter20_i_6903_4667" x="423" y="439" width="32" height="54" filterUnits="userSpaceOnUse" color-interpolation-filters="sRGB">
            <feFlood flood-opacity="0" result="BackgroundImageFix"/>
            <feBlend mode="normal" in="SourceGraphic" in2="BackgroundImageFix" result="shape"/>
            <feColorMatrix in="SourceAlpha" type="matrix" values="0 0 0 0 0 0 0 0 0 0 0 0 0 0 0 0 0 0 127 0" result="hardAlpha"/>
            <feOffset dx="-8" dy="-4"/>
            <feComposite in2="hardAlpha" operator="arithmetic" k2="-1" k3="1"/>
            <feColorMatrix type="matrix" values="0 0 0 0 0.0666667 0 0 0 0 0.0196078 0 0 0 0 0.160784 0 0 0 0.16 0"/>
            <feBlend mode="normal" in2="shape" result="effect1_innerShadow_6903_4667"/>
        </filter>
        <filter id="filter21_i_6903_4667" x="453" y="439" width="146" height="54" filterUnits="userSpaceOnUse" color-interpolation-filters="sRGB">
            <feFlood flood-opacity="0" result="BackgroundImageFix"/>
            <feBlend mode="normal" in="SourceGraphic" in2="BackgroundImageFix" result="shape"/>
            <feColorMatrix in="SourceAlpha" type="matrix" values="0 0 0 0 0 0 0 0 0 0 0 0 0 0 0 0 0 0 127 0" result="hardAlpha"/>
            <feOffset dx="-8" dy="-4"/>
            <feComposite in2="hardAlpha" operator="arithmetic" k2="-1" k3="1"/>
            <feColorMatrix type="matrix" values="0 0 0 0 0.0666667 0 0 0 0 0.0196078 0 0 0 0 0.160784 0 0 0 0.16 0"/>
            <feBlend mode="normal" in2="shape" result="effect1_innerShadow_6903_4667"/>
        </filter>
        <filter id="filter22_i_6903_4667" x="597" y="439" width="82" height="54" filterUnits="userSpaceOnUse" color-interpolation-filters="sRGB">
            <feFlood flood-opacity="0" result="BackgroundImageFix"/>
            <feBlend mode="normal" in="SourceGraphic" in2="BackgroundImageFix" result="shape"/>
            <feColorMatrix in="SourceAlpha" type="matrix" values="0 0 0 0 0 0 0 0 0 0 0 0 0 0 0 0 0 0 127 0" result="hardAlpha"/>
            <feOffset dx="-8" dy="-4"/>
            <feComposite in2="hardAlpha" operator="arithmetic" k2="-1" k3="1"/>
            <feColorMatrix type="matrix" values="0 0 0 0 0.0666667 0 0 0 0 0.0196078 0 0 0 0 0.160784 0 0 0 0.16 0"/>
            <feBlend mode="normal" in2="shape" result="effect1_innerShadow_6903_4667"/>
        </filter>
        <filter id="filter23_i_6903_4667" x="677" y="439" width="66" height="54" filterUnits="userSpaceOnUse" color-interpolation-filters="sRGB">
            <feFlood flood-opacity="0" result="BackgroundImageFix"/>
            <feBlend mode="normal" in="SourceGraphic" in2="BackgroundImageFix" result="shape"/>
            <feColorMatrix in="SourceAlpha" type="matrix" values="0 0 0 0 0 0 0 0 0 0 0 0 0 0 0 0 0 0 127 0" result="hardAlpha"/>
            <feOffset dx="-8" dy="-4"/>
            <feComposite in2="hardAlpha" operator="arithmetic" k2="-1" k3="1"/>
            <feColorMatrix type="matrix" values="0 0 0 0 0.0666667 0 0 0 0 0.0196078 0 0 0 0 0.160784 0 0 0 0.16 0"/>
            <feBlend mode="normal" in2="shape" result="effect1_innerShadow_6903_4667"/>
        </filter>
    </defs>
</svg>
