<svg width="960" height="580" viewBox="0 0 960 580" fill="none" xmlns="http://www.w3.org/2000/svg">
    <rect width="960" height="580" fill="#1D1D29"/>
    <path d="M664 112V24" stroke="white" stroke-opacity="0.3" stroke-width="2" stroke-linecap="square" stroke-dasharray="6 6"/>
    <path d="M532 112V24" stroke="white" stroke-opacity="0.3" stroke-width="2" stroke-linecap="square" stroke-dasharray="6 6"/>
    <path d="M412 112V24" stroke="white" stroke-opacity="0.3" stroke-width="2" stroke-linecap="square" stroke-dasharray="6 6"/>
    <g filter="url(#filter0_i_6229_37734)">
        <path d="M101 84H422.4C422.96 84 423.24 84 423.454 84.109C423.642 84.2049 423.795 84.3578 423.891 84.546C424 84.7599 424 85.0399 424 85.6V134.4C424 134.96 424 135.24 423.891 135.454C423.795 135.642 423.642 135.795 423.454 135.891C423.24 136 422.96 136 422.4 136H101L96 129.5L101 123L96 116L101 110L96 103.5L101 97L96 90.5L101 84Z" fill="#99E099"/>
    </g>
    <path d="M101 84H422.4C422.96 84 423.24 84 423.454 84.109C423.642 84.2049 423.795 84.3578 423.891 84.546C424 84.7599 424 85.0399 424 85.6V134.4C424 134.96 424 135.24 423.891 135.454C423.795 135.642 423.642 135.795 423.454 135.891C423.24 136 422.96 136 422.4 136H101L96 129.5L101 123L96 116L101 110L96 103.5L101 97L96 90.5L101 84Z" stroke="#110529" stroke-width="2" stroke-linecap="round"/>
    <path d="M259.258 118H261.738L266.558 103.6H264.708L260.478 116.11L256.288 103.6H254.438L259.258 118Z" fill="#110529"/>
    <g filter="url(#filter1_i_6229_37734)">
        <rect x="424" y="84" width="30" height="52" rx="1" fill="#CBEB67"/>
    </g>
    <rect x="424" y="84" width="30" height="52" rx="1" stroke="#110529" stroke-width="2" stroke-linecap="round"/>
    <g filter="url(#filter2_i_6229_37734)">
        <rect x="490" y="84" width="30" height="52" rx="1" fill="#FAAAFA"/>
    </g>
    <rect x="490" y="84" width="30" height="52" rx="1" stroke="#110529" stroke-width="2" stroke-linecap="round"/>
    <g filter="url(#filter3_i_6229_37734)">
        <rect x="454" y="84" width="36" height="52" rx="1" fill="#FFCB8F"/>
    </g>
    <rect x="454" y="84" width="36" height="52" rx="1" stroke="#110529" stroke-width="2" stroke-linecap="round"/>
    <path d="M433.447 118V103.6H435.247L442.757 114.85V103.6H444.557V118H442.757L435.247 106.74V118H433.447Z" fill="#110529"/>
    <path d="M499.447 118V103.6H501.247L508.757 114.85V103.6H510.557V118H508.757L501.247 106.74V118H499.447Z" fill="#110529"/>
    <path d="M466.593 118V103.6H471.033C471.18 103.6 471.437 103.603 471.803 103.61C472.17 103.617 472.52 103.643 472.853 103.69C473.967 103.837 474.897 104.243 475.643 104.91C476.397 105.57 476.963 106.41 477.343 107.43C477.723 108.45 477.913 109.573 477.913 110.8C477.913 112.027 477.723 113.15 477.343 114.17C476.963 115.19 476.397 116.033 475.643 116.7C474.897 117.36 473.967 117.763 472.853 117.91C472.52 117.95 472.167 117.977 471.793 117.99C471.427 117.997 471.173 118 471.033 118H466.593ZM468.423 116.3H471.033C471.287 116.3 471.57 116.293 471.883 116.28C472.197 116.26 472.47 116.23 472.703 116.19C473.49 116.043 474.127 115.713 474.613 115.2C475.1 114.687 475.457 114.047 475.683 113.28C475.91 112.513 476.023 111.687 476.023 110.8C476.023 109.893 475.907 109.057 475.673 108.29C475.447 107.523 475.09 106.887 474.603 106.38C474.117 105.873 473.483 105.55 472.703 105.41C472.47 105.363 472.193 105.333 471.873 105.32C471.553 105.307 471.273 105.3 471.033 105.3H468.423V116.3Z" fill="#110529"/>
    <g filter="url(#filter4_i_6229_37734)">
        <rect x="520" y="84" width="144" height="52" rx="1" fill="#C1ADFF"/>
        <path d="M591.244 118.29C592.694 118.29 593.954 117.7 594.684 116.43C595.214 115.51 595.154 114.72 595.154 113.48V103.6H593.354V113.48C593.354 114.37 593.354 114.99 593.094 115.51C592.704 116.29 591.884 116.6 591.204 116.6C590.134 116.6 589.224 115.83 589.014 114.85L587.244 115.27C587.754 117.11 589.224 118.29 591.244 118.29Z" fill="#110529"/>
        <rect x="520" y="84" width="144" height="52" rx="1" stroke="#110529" stroke-width="2" stroke-linecap="round"/>
    </g>
    <g filter="url(#filter5_i_6229_37734)">
        <rect x="664" y="84" width="80" height="52" rx="1" fill="#FAFAAA"/>
        <path d="M704.593 118.3C703.16 118.3 701.943 117.983 700.943 117.35C699.943 116.717 699.18 115.837 698.653 114.71C698.133 113.583 697.873 112.28 697.873 110.8C697.873 109.32 698.133 108.017 698.653 106.89C699.18 105.763 699.943 104.883 700.943 104.25C701.943 103.617 703.16 103.3 704.593 103.3C706.26 103.3 707.63 103.723 708.703 104.57C709.783 105.417 710.527 106.557 710.933 107.99L709.123 108.47C708.83 107.397 708.307 106.55 707.553 105.93C706.8 105.31 705.813 105 704.593 105C703.52 105 702.627 105.243 701.913 105.73C701.2 106.217 700.663 106.897 700.303 107.77C699.943 108.637 699.76 109.647 699.753 110.8C699.747 111.947 699.923 112.957 700.283 113.83C700.643 114.697 701.183 115.377 701.903 115.87C702.623 116.357 703.52 116.6 704.593 116.6C705.813 116.6 706.8 116.29 707.553 115.67C708.307 115.043 708.83 114.197 709.123 113.13L710.933 113.61C710.527 115.037 709.783 116.177 708.703 117.03C707.63 117.877 706.26 118.3 704.593 118.3Z" fill="#110529"/>
        <rect x="664" y="84" width="80" height="52" rx="1" stroke="#110529" stroke-width="2" stroke-linecap="round"/>
    </g>
    <g filter="url(#filter6_i_6229_37734)">
        <rect x="744" y="84" width="64" height="52" rx="1" fill="#D6E0FF"/>
        <path d="M765.053 118.3C768.393 118.3 770.733 116.1 770.733 112.75V103.6H768.933V112.6C768.933 115.31 766.893 116.62 765.053 116.62C763.233 116.62 761.173 115.33 761.173 112.6V103.6L759.373 103.61V112.75C759.373 116.11 761.713 118.3 765.053 118.3ZM773.533 118H775.223V107.51L780.113 118H781.063L785.953 107.51V117.99H787.643V103.6H786.003L780.593 115.07L775.153 103.6H773.533V118ZM790.647 118H792.427V103.6H790.647V118Z" fill="#110529"/>
        <rect x="744" y="84" width="64" height="52" rx="1" stroke="#110529" stroke-width="2" stroke-linecap="round"/>
    </g>
    <g filter="url(#filter7_i_6229_37734)">
        <path d="M101 404H422.4C422.96 404 423.24 404 423.454 404.109C423.642 404.205 423.795 404.358 423.891 404.546C424 404.76 424 405.04 424 405.6V454.4C424 454.96 424 455.24 423.891 455.454C423.795 455.642 423.642 455.795 423.454 455.891C423.24 456 422.96 456 422.4 456H101L96 449.5L101 443L96 436L101 430L96 423.5L101 417L96 410.5L101 404Z" fill="#99E099"/>
    </g>
    <path d="M101 404H422.4C422.96 404 423.24 404 423.454 404.109C423.642 404.205 423.795 404.358 423.891 404.546C424 404.76 424 405.04 424 405.6V454.4C424 454.96 424 455.24 423.891 455.454C423.795 455.642 423.642 455.795 423.454 455.891C423.24 456 422.96 456 422.4 456H101L96 449.5L101 443L96 436L101 430L96 423.5L101 417L96 410.5L101 404Z" stroke="#110529" stroke-width="2" stroke-linecap="round"/>
    <path d="M259.258 438H261.738L266.558 423.6H264.708L260.478 436.11L256.288 423.6H254.438L259.258 438Z" fill="#110529"/>
    <g filter="url(#filter8_i_6229_37734)">
        <rect x="424" y="404" width="30" height="52" rx="1" fill="#CBEB67"/>
    </g>
    <rect x="424" y="404" width="30" height="52" rx="1" stroke="#110529" stroke-width="2" stroke-linecap="round"/>
    <g filter="url(#filter9_i_6229_37734)">
        <rect x="490" y="404" width="30" height="52" rx="1" fill="#FAAAFA"/>
    </g>
    <rect x="490" y="404" width="30" height="52" rx="1" stroke="#110529" stroke-width="2" stroke-linecap="round"/>
    <g filter="url(#filter10_i_6229_37734)">
        <rect x="454" y="404" width="36" height="52" rx="1" fill="#FFCB8F"/>
    </g>
    <rect x="454" y="404" width="36" height="52" rx="1" stroke="#110529" stroke-width="2" stroke-linecap="round"/>
    <path d="M433.447 438V423.6H435.247L442.757 434.85V423.6H444.557V438H442.757L435.247 426.74V438H433.447Z" fill="#110529"/>
    <path d="M499.447 438V423.6H501.247L508.757 434.85V423.6H510.557V438H508.757L501.247 426.74V438H499.447Z" fill="#110529"/>
    <path d="M466.593 438V423.6H471.033C471.18 423.6 471.437 423.603 471.803 423.61C472.17 423.617 472.52 423.643 472.853 423.69C473.967 423.837 474.897 424.243 475.643 424.91C476.397 425.57 476.963 426.41 477.343 427.43C477.723 428.45 477.913 429.573 477.913 430.8C477.913 432.027 477.723 433.15 477.343 434.17C476.963 435.19 476.397 436.033 475.643 436.7C474.897 437.36 473.967 437.763 472.853 437.91C472.52 437.95 472.167 437.977 471.793 437.99C471.427 437.997 471.173 438 471.033 438H466.593ZM468.423 436.3H471.033C471.287 436.3 471.57 436.293 471.883 436.28C472.197 436.26 472.47 436.23 472.703 436.19C473.49 436.043 474.127 435.713 474.613 435.2C475.1 434.687 475.457 434.047 475.683 433.28C475.91 432.513 476.023 431.687 476.023 430.8C476.023 429.893 475.907 429.057 475.673 428.29C475.447 427.523 475.09 426.887 474.603 426.38C474.117 425.873 473.483 425.55 472.703 425.41C472.47 425.363 472.193 425.333 471.873 425.32C471.553 425.307 471.273 425.3 471.033 425.3H468.423V436.3Z" fill="#110529"/>
    <g filter="url(#filter11_i_6229_37734)">
        <rect x="520" y="404" width="144" height="52" rx="1" fill="#C1ADFF"/>
        <path d="M591.244 438.29C592.694 438.29 593.954 437.7 594.684 436.43C595.214 435.51 595.154 434.72 595.154 433.48V423.6H593.354V433.48C593.354 434.37 593.354 434.99 593.094 435.51C592.704 436.29 591.884 436.6 591.204 436.6C590.134 436.6 589.224 435.83 589.014 434.85L587.244 435.27C587.754 437.11 589.224 438.29 591.244 438.29Z" fill="#110529"/>
        <rect x="520" y="404" width="144" height="52" rx="1" stroke="#110529" stroke-width="2" stroke-linecap="round"/>
    </g>
    <g filter="url(#filter12_i_6229_37734)">
        <rect x="664" y="404" width="80" height="52" rx="1" fill="#FAFAAA"/>
        <path d="M704.593 438.3C703.16 438.3 701.943 437.983 700.943 437.35C699.943 436.717 699.18 435.837 698.653 434.71C698.133 433.583 697.873 432.28 697.873 430.8C697.873 429.32 698.133 428.017 698.653 426.89C699.18 425.763 699.943 424.883 700.943 424.25C701.943 423.617 703.16 423.3 704.593 423.3C706.26 423.3 707.63 423.723 708.703 424.57C709.783 425.417 710.527 426.557 710.933 427.99L709.123 428.47C708.83 427.397 708.307 426.55 707.553 425.93C706.8 425.31 705.813 425 704.593 425C703.52 425 702.627 425.243 701.913 425.73C701.2 426.217 700.663 426.897 700.303 427.77C699.943 428.637 699.76 429.647 699.753 430.8C699.747 431.947 699.923 432.957 700.283 433.83C700.643 434.697 701.183 435.377 701.903 435.87C702.623 436.357 703.52 436.6 704.593 436.6C705.813 436.6 706.8 436.29 707.553 435.67C708.307 435.043 708.83 434.197 709.123 433.13L710.933 433.61C710.527 435.037 709.783 436.177 708.703 437.03C707.63 437.877 706.26 438.3 704.593 438.3Z" fill="#110529"/>
        <rect x="664" y="404" width="80" height="52" rx="1" stroke="#110529" stroke-width="2" stroke-linecap="round"/>
    </g>
    <g filter="url(#filter13_i_6229_37734)">
        <rect x="744" y="404" width="64" height="52" rx="1" fill="#D6E0FF"/>
        <path d="M765.053 438.3C768.393 438.3 770.733 436.1 770.733 432.75V423.6H768.933V432.6C768.933 435.31 766.893 436.62 765.053 436.62C763.233 436.62 761.173 435.33 761.173 432.6V423.6L759.373 423.61V432.75C759.373 436.11 761.713 438.3 765.053 438.3ZM773.533 438H775.223V427.51L780.113 438H781.063L785.953 427.51V437.99H787.643V423.6H786.003L780.593 435.07L775.153 423.6H773.533V438ZM790.647 438H792.427V423.6H790.647V438Z" fill="#110529"/>
        <rect x="744" y="404" width="64" height="52" rx="1" stroke="#110529" stroke-width="2" stroke-linecap="round"/>
    </g>
    <path d="M586.593 37V26.92H592.564V28.383H588.056V31.225H591.724V32.695H588.056V37H586.593ZM593.826 37V26.92H597.9C597.998 26.92 598.119 26.9247 598.264 26.934C598.408 26.9387 598.546 26.9527 598.677 26.976C599.237 27.0647 599.703 27.256 600.077 27.55C600.455 27.844 600.737 28.215 600.924 28.663C601.11 29.111 601.204 29.6057 601.204 30.147C601.204 30.9497 600.998 31.6427 600.588 32.226C600.177 32.8047 599.561 33.1663 598.74 33.311L598.145 33.381H595.289V37H593.826ZM599.72 37L597.732 32.898L599.209 32.52L601.393 37H599.72ZM595.289 31.995H597.844C597.937 31.995 598.04 31.9903 598.152 31.981C598.268 31.9717 598.378 31.9553 598.481 31.932C598.779 31.862 599.02 31.7337 599.202 31.547C599.384 31.3557 599.514 31.1363 599.594 30.889C599.673 30.6417 599.713 30.3943 599.713 30.147C599.713 29.8997 599.673 29.6547 599.594 29.412C599.514 29.1647 599.384 28.9477 599.202 28.761C599.02 28.5697 598.779 28.439 598.481 28.369C598.378 28.341 598.268 28.3223 598.152 28.313C598.04 28.3037 597.937 28.299 597.844 28.299H595.289V31.995ZM607.201 37V35.243H602.651V33.857L605.927 26.92H607.6L604.324 33.857H607.201V31.127H608.685V33.857H609.686V35.243H608.685V37H607.201Z" fill="white" fill-opacity="0.3"/>
    <path d="M458.682 37.21C457.674 37.21 456.815 36.9907 456.106 36.552C455.397 36.1087 454.853 35.4927 454.475 34.704C454.102 33.9153 453.915 33.0007 453.915 31.96C453.915 30.9193 454.102 30.0047 454.475 29.216C454.853 28.4273 455.397 27.8137 456.106 27.375C456.815 26.9317 457.674 26.71 458.682 26.71C459.844 26.71 460.805 27.004 461.566 27.592C462.331 28.18 462.863 28.971 463.162 29.965L461.678 30.364C461.482 29.6593 461.132 29.1063 460.628 28.705C460.129 28.3037 459.48 28.103 458.682 28.103C457.968 28.103 457.373 28.264 456.897 28.586C456.421 28.908 456.062 29.3583 455.819 29.937C455.581 30.5157 455.462 31.19 455.462 31.96C455.457 32.73 455.574 33.4043 455.812 33.983C456.055 34.5617 456.414 35.012 456.89 35.334C457.371 35.656 457.968 35.817 458.682 35.817C459.48 35.817 460.129 35.6163 460.628 35.215C461.132 34.809 461.482 34.256 461.678 33.556L463.162 33.955C462.863 34.949 462.331 35.74 461.566 36.328C460.805 36.916 459.844 37.21 458.682 37.21ZM464.702 37V26.92H467.859C467.952 26.92 468.125 26.9223 468.377 26.927C468.633 26.9317 468.878 26.9503 469.112 26.983C469.9 27.081 470.563 27.3633 471.1 27.83C471.641 28.2967 472.049 28.8893 472.325 29.608C472.6 30.322 472.738 31.106 472.738 31.96C472.738 32.8187 472.6 33.6073 472.325 34.326C472.049 35.04 471.641 35.6303 471.1 36.097C470.563 36.559 469.9 36.839 469.112 36.937C468.878 36.9697 468.633 36.9883 468.377 36.993C468.125 36.9977 467.952 37 467.859 37H464.702ZM466.2 35.607H467.859C468.017 35.607 468.206 35.6023 468.426 35.593C468.645 35.5837 468.839 35.565 469.007 35.537C469.52 35.439 469.935 35.2173 470.253 34.872C470.575 34.522 470.81 34.0927 470.96 33.584C471.109 33.0753 471.184 32.534 471.184 31.96C471.184 31.3673 471.107 30.819 470.953 30.315C470.799 29.8063 470.561 29.3817 470.239 29.041C469.921 28.6957 469.511 28.4763 469.007 28.383C468.839 28.3503 468.643 28.3317 468.419 28.327C468.199 28.3177 468.013 28.313 467.859 28.313H466.2V35.607ZM474.368 37V26.92H478.442C478.54 26.92 478.661 26.9247 478.806 26.934C478.95 26.9387 479.088 26.9527 479.219 26.976C479.779 27.0647 480.245 27.256 480.619 27.55C480.997 27.844 481.279 28.215 481.466 28.663C481.652 29.111 481.746 29.6057 481.746 30.147C481.746 30.9497 481.54 31.6427 481.13 32.226C480.719 32.8047 480.103 33.1663 479.282 33.311L478.687 33.381H475.831V37H474.368ZM480.262 37L478.274 32.898L479.751 32.52L481.935 37H480.262ZM475.831 31.995H478.386C478.479 31.995 478.582 31.9903 478.694 31.981C478.81 31.9717 478.92 31.9553 479.023 31.932C479.321 31.862 479.562 31.7337 479.744 31.547C479.926 31.3557 480.056 31.1363 480.136 30.889C480.215 30.6417 480.255 30.3943 480.255 30.147C480.255 29.8997 480.215 29.6547 480.136 29.412C480.056 29.1647 479.926 28.9477 479.744 28.761C479.562 28.5697 479.321 28.439 479.023 28.369C478.92 28.341 478.81 28.3223 478.694 28.313C478.582 28.3037 478.479 28.299 478.386 28.299H475.831V31.995ZM486.294 37.189C485.795 37.189 485.326 37.0957 484.887 36.909C484.448 36.7177 484.068 36.447 483.746 36.097C483.429 35.747 483.198 35.334 483.053 34.858L484.467 34.466C484.602 34.9 484.838 35.2337 485.174 35.467C485.51 35.6957 485.883 35.8077 486.294 35.803C486.663 35.7983 486.987 35.712 487.267 35.544C487.547 35.376 487.766 35.1497 487.925 34.865C488.084 34.5757 488.163 34.2443 488.163 33.871C488.163 33.311 487.988 32.849 487.638 32.485C487.293 32.121 486.84 31.939 486.28 31.939C486.121 31.939 485.958 31.9623 485.79 32.009C485.627 32.0557 485.473 32.1163 485.328 32.191L484.642 31.036L488.198 27.893L488.352 28.313H483.452V26.92H489.514V28.313L486.56 31.155L486.546 30.679C487.181 30.679 487.731 30.8213 488.198 31.106C488.665 31.386 489.024 31.7687 489.276 32.254C489.533 32.7347 489.661 33.2737 489.661 33.871C489.661 34.515 489.509 35.0867 489.206 35.586C488.907 36.0853 488.504 36.4773 487.995 36.762C487.491 37.0467 486.924 37.189 486.294 37.189Z" fill="white" fill-opacity="0.3"/>
    <path d="M323.805 37V26.92H329.776V28.383H325.268V31.225H328.936V32.695H325.268V37H323.805ZM331.038 37V26.92H335.112C335.21 26.92 335.331 26.9247 335.476 26.934C335.62 26.9387 335.758 26.9527 335.889 26.976C336.449 27.0647 336.915 27.256 337.289 27.55C337.667 27.844 337.949 28.215 338.136 28.663C338.322 29.111 338.416 29.6057 338.416 30.147C338.416 30.9497 338.21 31.6427 337.8 32.226C337.389 32.8047 336.773 33.1663 335.952 33.311L335.357 33.381H332.501V37H331.038ZM336.932 37L334.944 32.898L336.421 32.52L338.605 37H336.932ZM332.501 31.995H335.056C335.149 31.995 335.252 31.9903 335.364 31.981C335.48 31.9717 335.59 31.9553 335.693 31.932C335.991 31.862 336.232 31.7337 336.414 31.547C336.596 31.3557 336.726 31.1363 336.806 30.889C336.885 30.6417 336.925 30.3943 336.925 30.147C336.925 29.8997 336.885 29.6547 336.806 29.412C336.726 29.1647 336.596 28.9477 336.414 28.761C336.232 28.5697 335.991 28.439 335.693 28.369C335.59 28.341 335.48 28.3223 335.364 28.313C335.252 28.3037 335.149 28.299 335.056 28.299H332.501V31.995ZM342.964 37.189C342.465 37.189 341.996 37.0957 341.557 36.909C341.118 36.7177 340.738 36.447 340.416 36.097C340.099 35.747 339.868 35.334 339.723 34.858L341.137 34.466C341.272 34.9 341.508 35.2337 341.844 35.467C342.18 35.6957 342.553 35.8077 342.964 35.803C343.333 35.7983 343.657 35.712 343.937 35.544C344.217 35.376 344.436 35.1497 344.595 34.865C344.754 34.5757 344.833 34.2443 344.833 33.871C344.833 33.311 344.658 32.849 344.308 32.485C343.963 32.121 343.51 31.939 342.95 31.939C342.791 31.939 342.628 31.9623 342.46 32.009C342.297 32.0557 342.143 32.1163 341.998 32.191L341.312 31.036L344.868 27.893L345.022 28.313H340.122V26.92H346.184V28.313L343.23 31.155L343.216 30.679C343.851 30.679 344.401 30.8213 344.868 31.106C345.335 31.386 345.694 31.7687 345.946 32.254C346.203 32.7347 346.331 33.2737 346.331 33.871C346.331 34.515 346.179 35.0867 345.876 35.586C345.577 36.0853 345.174 36.4773 344.665 36.762C344.161 37.0467 343.594 37.189 342.964 37.189Z" fill="white" fill-opacity="0.3"/>
    <path d="M761.128 68V58.056L758.96 59.368V57.776L761.128 56.48H762.576V68H761.128ZM770.596 68V65.88H765.3V64.528L769.1 56.48H770.716L766.916 64.528H770.596V61.288H772.036V64.528H773.236V65.88H772.036V68H770.596ZM779.119 68.24C778.309 68.24 777.626 68.04 777.071 67.64C776.517 67.2347 776.095 66.688 775.807 66C775.525 65.3067 775.383 64.5307 775.383 63.672C775.383 62.8027 775.525 62.024 775.807 61.336C776.095 60.648 776.517 60.1067 777.071 59.712C777.631 59.3173 778.317 59.12 779.127 59.12C779.927 59.12 780.615 59.32 781.191 59.72C781.773 60.1147 782.218 60.656 782.527 61.344C782.837 62.032 782.991 62.808 782.991 63.672C782.991 64.536 782.837 65.312 782.527 66C782.218 66.688 781.773 67.2347 781.191 67.64C780.615 68.04 779.925 68.24 779.119 68.24ZM775.143 68V56.48H776.575V61.64H776.415V68H775.143ZM778.943 66.936C779.514 66.936 779.986 66.792 780.359 66.504C780.733 66.216 781.013 65.8267 781.199 65.336C781.386 64.84 781.479 64.2853 781.479 63.672C781.479 63.064 781.386 62.5147 781.199 62.024C781.018 61.5333 780.735 61.144 780.351 60.856C779.973 60.568 779.49 60.424 778.903 60.424C778.343 60.424 777.879 60.5627 777.511 60.84C777.143 61.112 776.869 61.4933 776.687 61.984C776.506 62.4693 776.415 63.032 776.415 63.672C776.415 64.3013 776.503 64.864 776.679 65.36C776.861 65.8507 777.138 66.2373 777.511 66.52C777.885 66.7973 778.362 66.936 778.943 66.936ZM788.713 68.24C787.902 68.24 787.22 68.04 786.665 67.64C786.11 67.2347 785.689 66.688 785.401 66C785.118 65.3067 784.977 64.5307 784.977 63.672C784.977 62.8027 785.118 62.024 785.401 61.336C785.689 60.648 786.11 60.1067 786.665 59.712C787.225 59.3173 787.91 59.12 788.721 59.12C789.521 59.12 790.209 59.32 790.785 59.72C791.366 60.1147 791.812 60.656 792.121 61.344C792.43 62.032 792.585 62.808 792.585 63.672C792.585 64.536 792.43 65.312 792.121 66C791.812 66.688 791.366 67.2347 790.785 67.64C790.209 68.04 789.518 68.24 788.713 68.24ZM784.737 71.84V59.36H786.009V65.72H786.169V71.84H784.737ZM788.537 66.936C789.108 66.936 789.58 66.792 789.953 66.504C790.326 66.216 790.606 65.8267 790.793 65.336C790.98 64.84 791.073 64.2853 791.073 63.672C791.073 63.064 790.98 62.5147 790.793 62.024C790.612 61.5333 790.329 61.144 789.945 60.856C789.566 60.568 789.084 60.424 788.497 60.424C787.937 60.424 787.473 60.5627 787.105 60.84C786.737 61.112 786.462 61.4933 786.281 61.984C786.1 62.4693 786.009 63.032 786.009 63.672C786.009 64.3013 786.097 64.864 786.273 65.36C786.454 65.8507 786.732 66.2373 787.105 66.52C787.478 66.7973 787.956 66.936 788.537 66.936Z" fill="white"/>
    <path d="M19.6627 108V95.29H14.7527V93.6H26.3527V95.29H21.4427V108H19.6627ZM33.8649 108.3C32.4316 108.3 31.2149 107.983 30.2149 107.35C29.2149 106.717 28.4516 105.837 27.9249 104.71C27.4049 103.583 27.1449 102.28 27.1449 100.8C27.1449 99.32 27.4049 98.0167 27.9249 96.89C28.4516 95.7633 29.2149 94.8833 30.2149 94.25C31.2149 93.6167 32.4316 93.3 33.8649 93.3C35.5316 93.3 36.9016 93.7233 37.9749 94.57C39.0549 95.4167 39.7983 96.5567 40.2049 97.99L38.3949 98.47C38.1016 97.3967 37.5783 96.55 36.8249 95.93C36.0716 95.31 35.0849 95 33.8649 95C32.7916 95 31.8983 95.2433 31.1849 95.73C30.4716 96.2167 29.9349 96.8967 29.5749 97.77C29.2149 98.6367 29.0316 99.6467 29.0249 100.8C29.0183 101.947 29.1949 102.957 29.5549 103.83C29.9149 104.697 30.4549 105.377 31.1749 105.87C31.8949 106.357 32.7916 106.6 33.8649 106.6C35.0849 106.6 36.0716 106.29 36.8249 105.67C37.5783 105.043 38.1016 104.197 38.3949 103.13L40.2049 103.61C39.7983 105.037 39.0549 106.177 37.9749 107.03C36.9016 107.877 35.5316 108.3 33.8649 108.3ZM42.398 108V93.6H48.088C48.228 93.6 48.3947 93.6067 48.588 93.62C48.7814 93.6267 48.968 93.6467 49.148 93.68C49.928 93.8 50.5814 94.0667 51.108 94.48C51.6414 94.8933 52.0414 95.4167 52.308 96.05C52.5747 96.6767 52.708 97.3733 52.708 98.14C52.708 99.2533 52.418 100.22 51.838 101.04C51.258 101.853 50.408 102.363 49.288 102.57L48.608 102.68H44.178V108H42.398ZM50.968 108L48.128 102.14L49.888 101.6L53.008 108H50.968ZM44.178 100.99H48.028C48.1547 100.99 48.298 100.983 48.458 100.97C48.6247 100.957 48.7814 100.933 48.928 100.9C49.388 100.793 49.7614 100.6 50.048 100.32C50.3414 100.033 50.5547 99.7 50.688 99.32C50.8214 98.9333 50.888 98.54 50.888 98.14C50.888 97.74 50.8214 97.35 50.688 96.97C50.5547 96.5833 50.3414 96.2467 50.048 95.96C49.7614 95.6733 49.388 95.48 48.928 95.38C48.7814 95.34 48.6247 95.3167 48.458 95.31C48.298 95.2967 48.1547 95.29 48.028 95.29H44.178V100.99ZM59.2045 112.8V97.2C59.2045 96.9533 59.2211 96.71 59.2545 96.47C59.2945 96.23 59.3511 96 59.4245 95.78C59.6045 95.24 59.8845 94.7867 60.2645 94.42C60.6445 94.0467 61.0978 93.7667 61.6245 93.58C62.1511 93.3933 62.7245 93.3 63.3445 93.3C64.1778 93.3 64.9111 93.4633 65.5445 93.79C66.1845 94.11 66.6845 94.5633 67.0445 95.15C67.4045 95.7367 67.5845 96.4267 67.5845 97.22C67.5845 97.86 67.4545 98.4333 67.1945 98.94C66.9411 99.4467 66.5511 99.83 66.0245 100.09C66.3778 100.177 66.7178 100.323 67.0445 100.53C67.3778 100.737 67.6778 101 67.9445 101.32C68.2111 101.64 68.4211 102.02 68.5745 102.46C68.7345 102.9 68.8145 103.397 68.8145 103.95C68.8145 104.823 68.6178 105.587 68.2245 106.24C67.8311 106.887 67.2678 107.393 66.5345 107.76C65.8078 108.12 64.9345 108.3 63.9145 108.3C63.3011 108.3 62.7478 108.217 62.2545 108.05C61.7678 107.89 61.3445 107.67 60.9845 107.39V112.8H59.2045ZM63.9945 106.61C64.5878 106.61 65.1111 106.497 65.5645 106.27C66.0178 106.037 66.3711 105.717 66.6245 105.31C66.8778 104.897 67.0045 104.417 67.0045 103.87C67.0045 102.983 66.6778 102.313 66.0245 101.86C65.3711 101.4 64.4945 101.16 63.3945 101.14V99.54C63.8545 99.4933 64.2611 99.38 64.6145 99.2C64.9745 99.02 65.2545 98.7667 65.4545 98.44C65.6611 98.1133 65.7645 97.7133 65.7645 97.24C65.7645 96.5267 65.5411 95.9733 65.0945 95.58C64.6478 95.1867 64.0778 94.99 63.3845 94.99C62.9445 94.99 62.5245 95.09 62.1245 95.29C61.7311 95.4833 61.4411 95.8133 61.2545 96.28C61.1545 96.54 61.0911 96.8167 61.0645 97.11C61.0378 97.3967 61.0245 97.6467 61.0245 97.86V103.71C61.0245 103.903 61.0345 104.123 61.0545 104.37C61.0811 104.61 61.1211 104.823 61.1745 105.01C61.3411 105.523 61.6978 105.92 62.2445 106.2C62.7911 106.473 63.3745 106.61 63.9945 106.61ZM78.4404 93.6H80.2504L76.4104 108H74.6004L78.4404 93.6ZM25.4733 128V115.29H20.5633V113.6H32.1633V115.29H27.2533V128H25.4733ZM39.6755 128.3C38.2421 128.3 37.0255 127.983 36.0255 127.35C35.0255 126.717 34.2621 125.837 33.7355 124.71C33.2155 123.583 32.9555 122.28 32.9555 120.8C32.9555 119.32 33.2155 118.017 33.7355 116.89C34.2621 115.763 35.0255 114.883 36.0255 114.25C37.0255 113.617 38.2421 113.3 39.6755 113.3C41.3421 113.3 42.7121 113.723 43.7855 114.57C44.8655 115.417 45.6088 116.557 46.0155 117.99L44.2055 118.47C43.9121 117.397 43.3888 116.55 42.6355 115.93C41.8821 115.31 40.8955 115 39.6755 115C38.6021 115 37.7088 115.243 36.9955 115.73C36.2821 116.217 35.7455 116.897 35.3855 117.77C35.0255 118.637 34.8421 119.647 34.8355 120.8C34.8288 121.947 35.0055 122.957 35.3655 123.83C35.7255 124.697 36.2655 125.377 36.9855 125.87C37.7055 126.357 38.6021 126.6 39.6755 126.6C40.8955 126.6 41.8821 126.29 42.6355 125.67C43.3888 125.043 43.9121 124.197 44.2055 123.13L46.0155 123.61C45.6088 125.037 44.8655 126.177 43.7855 127.03C42.7121 127.877 41.3421 128.3 39.6755 128.3ZM48.2086 128V113.6H53.8986C54.0386 113.6 54.2053 113.607 54.3986 113.62C54.5919 113.627 54.7786 113.647 54.9586 113.68C55.7386 113.8 56.3919 114.067 56.9186 114.48C57.4519 114.893 57.8519 115.417 58.1186 116.05C58.3853 116.677 58.5186 117.373 58.5186 118.14C58.5186 119.253 58.2286 120.22 57.6486 121.04C57.0686 121.853 56.2186 122.363 55.0986 122.57L54.4186 122.68H49.9886V128H48.2086ZM56.7786 128L53.9386 122.14L55.6986 121.6L58.8186 128H56.7786ZM49.9886 120.99H53.8386C53.9653 120.99 54.1086 120.983 54.2686 120.97C54.4353 120.957 54.5919 120.933 54.7386 120.9C55.1986 120.793 55.5719 120.6 55.8586 120.32C56.1519 120.033 56.3653 119.7 56.4986 119.32C56.6319 118.933 56.6986 118.54 56.6986 118.14C56.6986 117.74 56.6319 117.35 56.4986 116.97C56.3653 116.583 56.1519 116.247 55.8586 115.96C55.5719 115.673 55.1986 115.48 54.7386 115.38C54.5919 115.34 54.4353 115.317 54.2686 115.31C54.1086 115.297 53.9653 115.29 53.8386 115.29H49.9886V120.99ZM69.595 128.29C68.535 128.29 67.6183 128.077 66.845 127.65C66.0717 127.223 65.475 126.627 65.055 125.86C64.635 125.087 64.425 124.19 64.425 123.17C64.425 122.157 64.6317 121.263 65.045 120.49C65.4583 119.717 66.0517 119.133 66.825 118.74C67.605 118.347 68.5383 118.223 69.625 118.37V117.79C70.705 117.79 71.635 118.013 72.415 118.46C73.195 118.9 73.7917 119.517 74.205 120.31C74.625 121.097 74.835 122.003 74.835 123.03C74.835 124.063 74.625 124.977 74.205 125.77C73.785 126.557 73.1817 127.173 72.395 127.62C71.615 128.067 70.6817 128.29 69.595 128.29ZM69.635 126.6C70.7017 126.6 71.4983 126.273 72.025 125.62C72.5583 124.96 72.825 124.09 72.825 123.01C72.825 121.917 72.555 121.053 72.015 120.42C71.4817 119.787 70.6883 119.47 69.635 119.47C68.5683 119.47 67.7683 119.793 67.235 120.44C66.7083 121.087 66.445 121.95 66.445 123.03C66.445 124.137 66.7183 125.01 67.265 125.65C67.8117 126.283 68.6017 126.6 69.635 126.6ZM71.085 119.37C70.605 119.223 70.0717 119.07 69.485 118.91C68.8983 118.75 68.3383 118.547 67.805 118.3C67.2783 118.053 66.8417 117.73 66.495 117.33C66.155 116.93 65.985 116.42 65.985 115.8C65.985 115.453 66.0517 115.11 66.185 114.77C66.325 114.43 66.5483 114.137 66.855 113.89C67.1683 113.637 67.5883 113.467 68.115 113.38C68.315 113.34 68.5117 113.317 68.705 113.31C68.905 113.303 69.115 113.3 69.335 113.3H72.895V114.78H69.735C69.535 114.78 69.3483 114.787 69.175 114.8C69.0017 114.807 68.8417 114.83 68.695 114.87C68.4217 114.937 68.195 115.053 68.015 115.22C67.8417 115.38 67.755 115.597 67.755 115.87C67.755 116.143 67.8583 116.383 68.065 116.59C68.2783 116.79 68.5683 116.973 68.935 117.14C69.3017 117.3 69.725 117.46 70.205 117.62C70.6917 117.78 71.2083 117.96 71.755 118.16L71.085 119.37Z" fill="white"/>
    <g filter="url(#filter14_i_6229_37734)">
        <path d="M101 244H422.4C422.96 244 423.24 244 423.454 244.109C423.642 244.205 423.795 244.358 423.891 244.546C424 244.76 424 245.04 424 245.6V294.4C424 294.96 424 295.24 423.891 295.454C423.795 295.642 423.642 295.795 423.454 295.891C423.24 296 422.96 296 422.4 296H101L96 289.5L101 283L96 276L101 270L96 263.5L101 257L96 250.5L101 244Z" fill="#99E099"/>
    </g>
    <path d="M101 244H422.4C422.96 244 423.24 244 423.454 244.109C423.642 244.205 423.795 244.358 423.891 244.546C424 244.76 424 245.04 424 245.6V294.4C424 294.96 424 295.24 423.891 295.454C423.795 295.642 423.642 295.795 423.454 295.891C423.24 296 422.96 296 422.4 296H101L96 289.5L101 283L96 276L101 270L96 263.5L101 257L96 250.5L101 244Z" stroke="#110529" stroke-width="2" stroke-linecap="round"/>
    <path d="M259.258 278H261.738L266.558 263.6H264.708L260.478 276.11L256.288 263.6H254.438L259.258 278Z" fill="#110529"/>
    <g filter="url(#filter15_i_6229_37734)">
        <rect x="424" y="244" width="30" height="52" rx="1" fill="#CBEB67"/>
    </g>
    <rect x="424" y="244" width="30" height="52" rx="1" stroke="#110529" stroke-width="2" stroke-linecap="round"/>
    <path d="M433.447 278H435.247V266.74L442.757 278H444.557V263.6H442.757V274.85L435.247 263.6H433.447V278Z" fill="#110529"/>
    <g filter="url(#filter16_i_6229_37734)">
        <rect x="454" y="244" width="144" height="52" rx="1" fill="#C1ADFF"/>
        <path d="M525.244 278.29C526.694 278.29 527.954 277.7 528.684 276.43C529.214 275.51 529.154 274.72 529.154 273.48V263.6H527.354V273.48C527.354 274.37 527.354 274.99 527.094 275.51C526.704 276.29 525.884 276.6 525.204 276.6C524.134 276.6 523.224 275.83 523.014 274.85L521.244 275.27C521.754 277.11 523.224 278.29 525.244 278.29Z" fill="#110529"/>
        <rect x="454" y="244" width="144" height="52" rx="1" stroke="#110529" stroke-width="2" stroke-linecap="round"/>
    </g>
    <g filter="url(#filter17_i_6229_37734)">
        <rect x="598" y="244" width="80" height="52" rx="1" fill="#FAFAAA"/>
        <path d="M638.593 278.3C637.16 278.3 635.943 277.983 634.943 277.35C633.943 276.717 633.18 275.837 632.653 274.71C632.133 273.583 631.873 272.28 631.873 270.8C631.873 269.32 632.133 268.017 632.653 266.89C633.18 265.763 633.943 264.883 634.943 264.25C635.943 263.617 637.16 263.3 638.593 263.3C640.26 263.3 641.63 263.723 642.703 264.57C643.783 265.417 644.527 266.557 644.933 267.99L643.123 268.47C642.83 267.397 642.307 266.55 641.553 265.93C640.8 265.31 639.813 265 638.593 265C637.52 265 636.627 265.243 635.913 265.73C635.2 266.217 634.663 266.897 634.303 267.77C633.943 268.637 633.76 269.647 633.753 270.8C633.747 271.947 633.923 272.957 634.283 273.83C634.643 274.697 635.183 275.377 635.903 275.87C636.623 276.357 637.52 276.6 638.593 276.6C639.813 276.6 640.8 276.29 641.553 275.67C642.307 275.043 642.83 274.197 643.123 273.13L644.933 273.61C644.527 275.037 643.783 276.177 642.703 277.03C641.63 277.877 640.26 278.3 638.593 278.3Z" fill="#110529"/>
        <rect x="598" y="244" width="80" height="52" rx="1" stroke="#110529" stroke-width="2" stroke-linecap="round"/>
    </g>
    <g filter="url(#filter18_i_6229_37734)">
        <rect x="678" y="244" width="64" height="52" rx="1" fill="#D6E0FF"/>
        <path d="M699.053 278.3C702.393 278.3 704.733 276.1 704.733 272.75V263.6H702.933V272.6C702.933 275.31 700.893 276.62 699.053 276.62C697.233 276.62 695.173 275.33 695.173 272.6V263.6L693.373 263.61V272.75C693.373 276.11 695.713 278.3 699.053 278.3ZM707.533 278H709.223V267.51L714.113 278H715.063L719.953 267.51V277.99H721.643V263.6H720.003L714.593 275.07L709.153 263.6H707.533V278ZM724.647 278H726.427V263.6H724.647V278Z" fill="#110529"/>
        <rect x="678" y="244" width="64" height="52" rx="1" stroke="#110529" stroke-width="2" stroke-linecap="round"/>
    </g>
    <g filter="url(#filter19_i_6229_37734)">
        <path d="M101 504H422.4C422.96 504 423.24 504 423.454 504.109C423.642 504.205 423.795 504.358 423.891 504.546C424 504.76 424 505.04 424 505.6V554.4C424 554.96 424 555.24 423.891 555.454C423.795 555.642 423.642 555.795 423.454 555.891C423.24 556 422.96 556 422.4 556H101L96 549.5L101 543L96 536L101 530L96 523.5L101 517L96 510.5L101 504Z" fill="#99E099"/>
    </g>
    <path d="M101 504H422.4C422.96 504 423.24 504 423.454 504.109C423.642 504.205 423.795 504.358 423.891 504.546C424 504.76 424 505.04 424 505.6V554.4C424 554.96 424 555.24 423.891 555.454C423.795 555.642 423.642 555.795 423.454 555.891C423.24 556 422.96 556 422.4 556H101L96 549.5L101 543L96 536L101 530L96 523.5L101 517L96 510.5L101 504Z" stroke="#110529" stroke-width="2" stroke-linecap="round"/>
    <path d="M259.258 538H261.738L266.558 523.6H264.708L260.478 536.11L256.288 523.6H254.438L259.258 538Z" fill="#110529"/>
    <g filter="url(#filter20_i_6229_37734)">
        <rect x="424" y="504" width="30" height="52" rx="1" fill="#CBEB67"/>
    </g>
    <rect x="424" y="504" width="30" height="52" rx="1" stroke="#110529" stroke-width="2" stroke-linecap="round"/>
    <path d="M433.447 538H435.247V526.74L442.757 538H444.557V523.6H442.757V534.85L435.247 523.6H433.447V538Z" fill="#110529"/>
    <g filter="url(#filter21_i_6229_37734)">
        <rect x="454" y="504" width="144" height="52" rx="1" fill="#C1ADFF"/>
        <path d="M525.244 538.29C526.694 538.29 527.954 537.7 528.684 536.43C529.214 535.51 529.154 534.72 529.154 533.48V523.6H527.354V533.48C527.354 534.37 527.354 534.99 527.094 535.51C526.704 536.29 525.884 536.6 525.204 536.6C524.134 536.6 523.224 535.83 523.014 534.85L521.244 535.27C521.754 537.11 523.224 538.29 525.244 538.29Z" fill="#110529"/>
        <rect x="454" y="504" width="144" height="52" rx="1" stroke="#110529" stroke-width="2" stroke-linecap="round"/>
    </g>
    <g filter="url(#filter22_i_6229_37734)">
        <rect x="598" y="504" width="80" height="52" rx="1" fill="#FAFAAA"/>
        <path d="M638.593 538.3C637.16 538.3 635.943 537.983 634.943 537.35C633.943 536.717 633.18 535.837 632.653 534.71C632.133 533.583 631.873 532.28 631.873 530.8C631.873 529.32 632.133 528.017 632.653 526.89C633.18 525.763 633.943 524.883 634.943 524.25C635.943 523.617 637.16 523.3 638.593 523.3C640.26 523.3 641.63 523.723 642.703 524.57C643.783 525.417 644.527 526.557 644.933 527.99L643.123 528.47C642.83 527.397 642.307 526.55 641.553 525.93C640.8 525.31 639.813 525 638.593 525C637.52 525 636.627 525.243 635.913 525.73C635.2 526.217 634.663 526.897 634.303 527.77C633.943 528.637 633.76 529.647 633.753 530.8C633.747 531.947 633.923 532.957 634.283 533.83C634.643 534.697 635.183 535.377 635.903 535.87C636.623 536.357 637.52 536.6 638.593 536.6C639.813 536.6 640.8 536.29 641.553 535.67C642.307 535.043 642.83 534.197 643.123 533.13L644.933 533.61C644.527 535.037 643.783 536.177 642.703 537.03C641.63 537.877 640.26 538.3 638.593 538.3Z" fill="#110529"/>
        <rect x="598" y="504" width="80" height="52" rx="1" stroke="#110529" stroke-width="2" stroke-linecap="round"/>
    </g>
    <g filter="url(#filter23_i_6229_37734)">
        <rect x="678" y="504" width="64" height="52" rx="1" fill="#D6E0FF"/>
        <path d="M699.053 538.3C702.393 538.3 704.733 536.1 704.733 532.75V523.6H702.933V532.6C702.933 535.31 700.893 536.62 699.053 536.62C697.233 536.62 695.173 535.33 695.173 532.6V523.6L693.373 523.61V532.75C693.373 536.11 695.713 538.3 699.053 538.3ZM707.533 538H709.223V527.51L714.113 538H715.063L719.953 527.51V537.99H721.643V523.6H720.003L714.593 535.07L709.153 523.6H707.533V538ZM724.647 538H726.427V523.6H724.647V538Z" fill="#110529"/>
        <rect x="678" y="504" width="64" height="52" rx="1" stroke="#110529" stroke-width="2" stroke-linecap="round"/>
    </g>
    <path d="M296 184L295.293 184.707L294.586 184L295.293 183.293L296 184ZM303.293 175.293L304 174.586L305.414 176L304.707 176.707L303.293 175.293ZM304.707 191.293L305.414 192L304 193.414L303.293 192.707L304.707 191.293ZM306 185L296 185L296 183L306 183L306 185ZM295.293 183.293L303.293 175.293L304.707 176.707L296.707 184.707L295.293 183.293ZM296.707 183.293L304.707 191.293L303.293 192.707L295.293 184.707L296.707 183.293Z" fill="#D3D7E0"/>
    <path d="M512.5 184H306" stroke="#D3D7E0" stroke-width="2"/>
    <rect width="57" height="20" transform="translate(512.5 174)" fill="#1D1D29"/>
    <path d="M521.636 190V180.056L519.468 181.368V179.776L521.636 178.48H523.084V190H521.636ZM529.536 190.24C528.944 190.24 528.392 190.117 527.88 189.872C527.373 189.627 526.938 189.291 526.576 188.864C526.218 188.432 525.962 187.936 525.808 187.376L527.176 187.008C527.272 187.387 527.442 187.715 527.688 187.992C527.933 188.264 528.218 188.477 528.544 188.632C528.874 188.781 529.218 188.856 529.576 188.856C530.045 188.856 530.466 188.744 530.84 188.52C531.218 188.291 531.517 187.989 531.736 187.616C531.954 187.237 532.064 186.824 532.064 186.376C532.064 185.912 531.949 185.493 531.72 185.12C531.496 184.741 531.194 184.443 530.816 184.224C530.437 184.005 530.024 183.896 529.576 183.896C529.069 183.896 528.634 184.003 528.272 184.216C527.914 184.424 527.632 184.68 527.424 184.984L526.16 184.504L526.512 178.48H532.696V179.832H527.2L527.832 179.24L527.536 184.064L527.224 183.656C527.544 183.315 527.925 183.051 528.368 182.864C528.816 182.677 529.272 182.584 529.736 182.584C530.45 182.584 531.09 182.752 531.656 183.088C532.221 183.419 532.669 183.872 533 184.448C533.33 185.019 533.496 185.661 533.496 186.376C533.496 187.085 533.314 187.733 532.952 188.32C532.589 188.901 532.106 189.368 531.504 189.72C530.906 190.067 530.25 190.24 529.536 190.24ZM539.297 190.24C538.55 190.24 537.884 190.072 537.297 189.736C536.716 189.395 536.254 188.933 535.913 188.352C535.577 187.765 535.409 187.099 535.409 186.352V182.128C535.409 181.381 535.577 180.715 535.913 180.128C536.254 179.541 536.716 179.08 537.297 178.744C537.884 178.408 538.55 178.24 539.297 178.24C540.044 178.24 540.71 178.408 541.297 178.744C541.884 179.08 542.345 179.541 542.681 180.128C543.017 180.715 543.185 181.381 543.185 182.128V186.352C543.185 187.099 543.017 187.765 542.681 188.352C542.345 188.933 541.884 189.395 541.297 189.736C540.71 190.072 540.044 190.24 539.297 190.24ZM539.297 188.872C539.75 188.872 540.161 188.763 540.529 188.544C540.897 188.325 541.19 188.032 541.409 187.664C541.628 187.291 541.737 186.88 541.737 186.432V182.04C541.737 181.587 541.628 181.176 541.409 180.808C541.19 180.44 540.897 180.147 540.529 179.928C540.161 179.709 539.75 179.6 539.297 179.6C538.849 179.6 538.438 179.709 538.065 179.928C537.697 180.147 537.404 180.44 537.185 180.808C536.966 181.176 536.857 181.587 536.857 182.04V186.432C536.857 186.88 536.966 187.291 537.185 187.664C537.404 188.032 537.697 188.325 538.065 188.544C538.438 188.763 538.849 188.872 539.297 188.872ZM549.393 190.24C548.582 190.24 547.899 190.04 547.345 189.64C546.79 189.235 546.369 188.688 546.081 188C545.798 187.307 545.657 186.531 545.657 185.672C545.657 184.803 545.798 184.024 546.081 183.336C546.369 182.648 546.79 182.107 547.345 181.712C547.905 181.317 548.59 181.12 549.401 181.12C550.201 181.12 550.889 181.32 551.465 181.72C552.046 182.115 552.491 182.656 552.801 183.344C553.11 184.032 553.265 184.808 553.265 185.672C553.265 186.536 553.11 187.312 552.801 188C552.491 188.688 552.046 189.235 551.465 189.64C550.889 190.04 550.198 190.24 549.393 190.24ZM545.417 190V178.48H546.849V183.64H546.689V190H545.417ZM549.217 188.936C549.787 188.936 550.259 188.792 550.633 188.504C551.006 188.216 551.286 187.827 551.473 187.336C551.659 186.84 551.753 186.285 551.753 185.672C551.753 185.064 551.659 184.515 551.473 184.024C551.291 183.533 551.009 183.144 550.625 182.856C550.246 182.568 549.763 182.424 549.177 182.424C548.617 182.424 548.153 182.563 547.785 182.84C547.417 183.112 547.142 183.493 546.961 183.984C546.779 184.469 546.689 185.032 546.689 185.672C546.689 186.301 546.777 186.864 546.953 187.36C547.134 187.851 547.411 188.237 547.785 188.52C548.158 188.797 548.635 188.936 549.217 188.936ZM558.986 190.24C558.176 190.24 557.493 190.04 556.938 189.64C556.384 189.235 555.962 188.688 555.674 188C555.392 187.307 555.25 186.531 555.25 185.672C555.25 184.803 555.392 184.024 555.674 183.336C555.962 182.648 556.384 182.107 556.938 181.712C557.498 181.317 558.184 181.12 558.994 181.12C559.794 181.12 560.482 181.32 561.058 181.72C561.64 182.115 562.085 182.656 562.394 183.344C562.704 184.032 562.858 184.808 562.858 185.672C562.858 186.536 562.704 187.312 562.394 188C562.085 188.688 561.64 189.235 561.058 189.64C560.482 190.04 559.792 190.24 558.986 190.24ZM555.01 193.84V181.36H556.282V187.72H556.442V193.84H555.01ZM558.81 188.936C559.381 188.936 559.853 188.792 560.226 188.504C560.6 188.216 560.88 187.827 561.066 187.336C561.253 186.84 561.346 186.285 561.346 185.672C561.346 185.064 561.253 184.515 561.066 184.024C560.885 183.533 560.602 183.144 560.218 182.856C559.84 182.568 559.357 182.424 558.77 182.424C558.21 182.424 557.746 182.563 557.378 182.84C557.01 183.112 556.736 183.493 556.554 183.984C556.373 184.469 556.282 185.032 556.282 185.672C556.282 186.301 556.37 186.864 556.546 187.36C556.728 187.851 557.005 188.237 557.378 188.52C557.752 188.797 558.229 188.936 558.81 188.936Z" fill="white"/>
    <path d="M776 184H569.5" stroke="#D3D7E0" stroke-width="2"/>
    <path d="M783.12 190V178.48H787.672C787.784 178.48 787.917 178.485 788.072 178.496C788.227 178.501 788.376 178.517 788.52 178.544C789.144 178.64 789.667 178.853 790.088 179.184C790.515 179.515 790.835 179.933 791.048 180.44C791.261 180.941 791.368 181.499 791.368 182.112C791.368 183.003 791.136 183.776 790.672 184.432C790.208 185.083 789.528 185.491 788.632 185.656L788.088 185.744H784.544V190H783.12ZM789.976 190L787.704 185.312L789.112 184.88L791.608 190H789.976ZM784.544 184.392H787.624C787.725 184.392 787.84 184.387 787.968 184.376C788.101 184.365 788.227 184.347 788.344 184.32C788.712 184.235 789.011 184.08 789.24 183.856C789.475 183.627 789.645 183.36 789.752 183.056C789.859 182.747 789.912 182.432 789.912 182.112C789.912 181.792 789.859 181.48 789.752 181.176C789.645 180.867 789.475 180.597 789.24 180.368C789.011 180.139 788.712 179.984 788.344 179.904C788.227 179.872 788.101 179.853 787.968 179.848C787.84 179.837 787.725 179.832 787.624 179.832H784.544V184.392ZM793.05 189.992L793.058 188.712L798.17 184.112C798.597 183.728 798.882 183.365 799.026 183.024C799.175 182.677 799.25 182.323 799.25 181.96C799.25 181.517 799.149 181.117 798.946 180.76C798.743 180.403 798.466 180.12 798.114 179.912C797.767 179.704 797.373 179.6 796.93 179.6C796.471 179.6 796.063 179.709 795.706 179.928C795.349 180.141 795.066 180.427 794.858 180.784C794.655 181.141 794.557 181.531 794.562 181.952H793.106C793.106 181.227 793.274 180.587 793.61 180.032C793.946 179.472 794.402 179.035 794.978 178.72C795.559 178.4 796.218 178.24 796.954 178.24C797.669 178.24 798.309 178.405 798.874 178.736C799.439 179.061 799.885 179.507 800.21 180.072C800.541 180.632 800.706 181.267 800.706 181.976C800.706 182.477 800.642 182.912 800.514 183.28C800.391 183.648 800.199 183.989 799.938 184.304C799.677 184.613 799.349 184.944 798.954 185.296L794.706 189.112L794.522 188.632H800.706V189.992H793.05Z" fill="white"/>
    <rect x="776" y="172" width="32" height="24" rx="1" stroke="#D3D7E0" stroke-width="2"/>
    <path d="M282 344L281.293 344.707L280.586 344L281.293 343.293L282 344ZM289.293 335.293L290 334.586L291.414 336L290.707 336.707L289.293 335.293ZM290.707 351.293L291.414 352L290 353.414L289.293 352.707L290.707 351.293ZM292 345L282 345L282 343L292 343L292 345ZM281.293 343.293L289.293 335.293L290.707 336.707L282.707 344.707L281.293 343.293ZM282.707 343.293L290.707 351.293L289.293 352.707L281.293 344.707L282.707 343.293Z" fill="#D3D7E0"/>
    <path d="M472.5 344H292" stroke="#D3D7E0" stroke-width="2"/>
    <rect width="57" height="20" transform="translate(472.5 334)" fill="#1D1D29"/>
    <path d="M481.636 350V340.056L479.468 341.368V339.776L481.636 338.48H483.084V350H481.636ZM489.536 350.24C488.944 350.24 488.392 350.117 487.88 349.872C487.373 349.627 486.938 349.291 486.576 348.864C486.218 348.432 485.962 347.936 485.808 347.376L487.176 347.008C487.272 347.387 487.442 347.715 487.688 347.992C487.933 348.264 488.218 348.477 488.544 348.632C488.874 348.781 489.218 348.856 489.576 348.856C490.045 348.856 490.466 348.744 490.84 348.52C491.218 348.291 491.517 347.989 491.736 347.616C491.954 347.237 492.064 346.824 492.064 346.376C492.064 345.912 491.949 345.493 491.72 345.12C491.496 344.741 491.194 344.443 490.816 344.224C490.437 344.005 490.024 343.896 489.576 343.896C489.069 343.896 488.634 344.003 488.272 344.216C487.914 344.424 487.632 344.68 487.424 344.984L486.16 344.504L486.512 338.48H492.696V339.832H487.2L487.832 339.24L487.536 344.064L487.224 343.656C487.544 343.315 487.925 343.051 488.368 342.864C488.816 342.677 489.272 342.584 489.736 342.584C490.45 342.584 491.09 342.752 491.656 343.088C492.221 343.419 492.669 343.872 493 344.448C493.33 345.019 493.496 345.661 493.496 346.376C493.496 347.085 493.314 347.733 492.952 348.32C492.589 348.901 492.106 349.368 491.504 349.72C490.906 350.067 490.25 350.24 489.536 350.24ZM499.297 350.24C498.55 350.24 497.884 350.072 497.297 349.736C496.716 349.395 496.254 348.933 495.913 348.352C495.577 347.765 495.409 347.099 495.409 346.352V342.128C495.409 341.381 495.577 340.715 495.913 340.128C496.254 339.541 496.716 339.08 497.297 338.744C497.884 338.408 498.55 338.24 499.297 338.24C500.044 338.24 500.71 338.408 501.297 338.744C501.884 339.08 502.345 339.541 502.681 340.128C503.017 340.715 503.185 341.381 503.185 342.128V346.352C503.185 347.099 503.017 347.765 502.681 348.352C502.345 348.933 501.884 349.395 501.297 349.736C500.71 350.072 500.044 350.24 499.297 350.24ZM499.297 348.872C499.75 348.872 500.161 348.763 500.529 348.544C500.897 348.325 501.19 348.032 501.409 347.664C501.628 347.291 501.737 346.88 501.737 346.432V342.04C501.737 341.587 501.628 341.176 501.409 340.808C501.19 340.44 500.897 340.147 500.529 339.928C500.161 339.709 499.75 339.6 499.297 339.6C498.849 339.6 498.438 339.709 498.065 339.928C497.697 340.147 497.404 340.44 497.185 340.808C496.966 341.176 496.857 341.587 496.857 342.04V346.432C496.857 346.88 496.966 347.291 497.185 347.664C497.404 348.032 497.697 348.325 498.065 348.544C498.438 348.763 498.849 348.872 499.297 348.872ZM509.393 350.24C508.582 350.24 507.899 350.04 507.345 349.64C506.79 349.235 506.369 348.688 506.081 348C505.798 347.307 505.657 346.531 505.657 345.672C505.657 344.803 505.798 344.024 506.081 343.336C506.369 342.648 506.79 342.107 507.345 341.712C507.905 341.317 508.59 341.12 509.401 341.12C510.201 341.12 510.889 341.32 511.465 341.72C512.046 342.115 512.491 342.656 512.801 343.344C513.11 344.032 513.265 344.808 513.265 345.672C513.265 346.536 513.11 347.312 512.801 348C512.491 348.688 512.046 349.235 511.465 349.64C510.889 350.04 510.198 350.24 509.393 350.24ZM505.417 350V338.48H506.849V343.64H506.689V350H505.417ZM509.217 348.936C509.787 348.936 510.259 348.792 510.633 348.504C511.006 348.216 511.286 347.827 511.473 347.336C511.659 346.84 511.753 346.285 511.753 345.672C511.753 345.064 511.659 344.515 511.473 344.024C511.291 343.533 511.009 343.144 510.625 342.856C510.246 342.568 509.763 342.424 509.177 342.424C508.617 342.424 508.153 342.563 507.785 342.84C507.417 343.112 507.142 343.493 506.961 343.984C506.779 344.469 506.689 345.032 506.689 345.672C506.689 346.301 506.777 346.864 506.953 347.36C507.134 347.851 507.411 348.237 507.785 348.52C508.158 348.797 508.635 348.936 509.217 348.936ZM518.986 350.24C518.176 350.24 517.493 350.04 516.938 349.64C516.384 349.235 515.962 348.688 515.674 348C515.392 347.307 515.25 346.531 515.25 345.672C515.25 344.803 515.392 344.024 515.674 343.336C515.962 342.648 516.384 342.107 516.938 341.712C517.498 341.317 518.184 341.12 518.994 341.12C519.794 341.12 520.482 341.32 521.058 341.72C521.64 342.115 522.085 342.656 522.394 343.344C522.704 344.032 522.858 344.808 522.858 345.672C522.858 346.536 522.704 347.312 522.394 348C522.085 348.688 521.64 349.235 521.058 349.64C520.482 350.04 519.792 350.24 518.986 350.24ZM515.01 353.84V341.36H516.282V347.72H516.442V353.84H515.01ZM518.81 348.936C519.381 348.936 519.853 348.792 520.226 348.504C520.6 348.216 520.88 347.827 521.066 347.336C521.253 346.84 521.346 346.285 521.346 345.672C521.346 345.064 521.253 344.515 521.066 344.024C520.885 343.533 520.602 343.144 520.218 342.856C519.84 342.568 519.357 342.424 518.77 342.424C518.21 342.424 517.746 342.563 517.378 342.84C517.01 343.112 516.736 343.493 516.554 343.984C516.373 344.469 516.282 345.032 516.282 345.672C516.282 346.301 516.37 346.864 516.546 347.36C516.728 347.851 517.005 348.237 517.378 348.52C517.752 348.797 518.229 348.936 518.81 348.936Z" fill="white"/>
    <path d="M710 344H529.5" stroke="#D3D7E0" stroke-width="2"/>
    <path d="M717.12 350V338.48H721.672C721.784 338.48 721.917 338.485 722.072 338.496C722.227 338.501 722.376 338.517 722.52 338.544C723.144 338.64 723.667 338.853 724.088 339.184C724.515 339.515 724.835 339.933 725.048 340.44C725.261 340.941 725.368 341.499 725.368 342.112C725.368 343.003 725.136 343.776 724.672 344.432C724.208 345.083 723.528 345.491 722.632 345.656L722.088 345.744H718.544V350H717.12ZM723.976 350L721.704 345.312L723.112 344.88L725.608 350H723.976ZM718.544 344.392H721.624C721.725 344.392 721.84 344.387 721.968 344.376C722.101 344.365 722.227 344.347 722.344 344.32C722.712 344.235 723.011 344.08 723.24 343.856C723.475 343.627 723.645 343.36 723.752 343.056C723.859 342.747 723.912 342.432 723.912 342.112C723.912 341.792 723.859 341.48 723.752 341.176C723.645 340.867 723.475 340.597 723.24 340.368C723.011 340.139 722.712 339.984 722.344 339.904C722.227 339.872 722.101 339.853 721.968 339.848C721.84 339.837 721.725 339.832 721.624 339.832H718.544V344.392ZM727.05 349.992L727.058 348.712L732.17 344.112C732.597 343.728 732.882 343.365 733.026 343.024C733.175 342.677 733.25 342.323 733.25 341.96C733.25 341.517 733.149 341.117 732.946 340.76C732.743 340.403 732.466 340.12 732.114 339.912C731.767 339.704 731.373 339.6 730.93 339.6C730.471 339.6 730.063 339.709 729.706 339.928C729.349 340.141 729.066 340.427 728.858 340.784C728.655 341.141 728.557 341.531 728.562 341.952H727.106C727.106 341.227 727.274 340.587 727.61 340.032C727.946 339.472 728.402 339.035 728.978 338.72C729.559 338.4 730.218 338.24 730.954 338.24C731.669 338.24 732.309 338.405 732.874 338.736C733.439 339.061 733.885 339.507 734.21 340.072C734.541 340.632 734.706 341.267 734.706 341.976C734.706 342.477 734.642 342.912 734.514 343.28C734.391 343.648 734.199 343.989 733.938 344.304C733.677 344.613 733.349 344.944 732.954 345.296L728.706 349.112L728.522 348.632H734.706V349.992H727.05Z" fill="white"/>
    <rect x="710" y="332" width="32" height="24" rx="1" stroke="#D3D7E0" stroke-width="2"/>
    <path d="M104.62 166V154.48H109.172C109.284 154.48 109.417 154.485 109.572 154.496C109.727 154.501 109.876 154.517 110.02 154.544C110.644 154.64 111.167 154.853 111.588 155.184C112.015 155.515 112.335 155.933 112.548 156.44C112.761 156.941 112.868 157.499 112.868 158.112C112.868 159.003 112.636 159.776 112.172 160.432C111.708 161.083 111.028 161.491 110.132 161.656L109.588 161.744H106.044V166H104.62ZM111.476 166L109.204 161.312L110.612 160.88L113.108 166H111.476ZM106.044 160.392H109.124C109.225 160.392 109.34 160.387 109.468 160.376C109.601 160.365 109.727 160.347 109.844 160.32C110.212 160.235 110.511 160.08 110.74 159.856C110.975 159.627 111.145 159.36 111.252 159.056C111.359 158.747 111.412 158.432 111.412 158.112C111.412 157.792 111.359 157.48 111.252 157.176C111.145 156.867 110.975 156.597 110.74 156.368C110.511 156.139 110.212 155.984 109.844 155.904C109.727 155.872 109.601 155.853 109.468 155.848C109.34 155.837 109.225 155.832 109.124 155.832H106.044V160.392ZM116.878 166V156.056L114.71 157.368V155.776L116.878 154.48H118.326V166H116.878Z" fill="white"/>
    <rect x="96" y="148" width="32" height="24" rx="1" stroke="#D3D7E0" stroke-width="2"/>
    <path d="M343.5 160H128" stroke="#D3D7E0" stroke-width="2"/>
    <rect width="53" height="20" transform="translate(343.5 150)" fill="#1D1D29"/>
    <path d="M350.636 166V156.056L348.468 157.368V155.776L350.636 154.48H352.084V166H350.636ZM358.536 166.24C357.944 166.24 357.392 166.117 356.88 165.872C356.373 165.627 355.938 165.291 355.576 164.864C355.218 164.432 354.962 163.936 354.808 163.376L356.176 163.008C356.272 163.387 356.442 163.715 356.688 163.992C356.933 164.264 357.218 164.477 357.544 164.632C357.874 164.781 358.218 164.856 358.576 164.856C359.045 164.856 359.466 164.744 359.84 164.52C360.218 164.291 360.517 163.989 360.736 163.616C360.954 163.237 361.064 162.824 361.064 162.376C361.064 161.912 360.949 161.493 360.72 161.12C360.496 160.741 360.194 160.443 359.816 160.224C359.437 160.005 359.024 159.896 358.576 159.896C358.069 159.896 357.634 160.003 357.272 160.216C356.914 160.424 356.632 160.68 356.424 160.984L355.16 160.504L355.512 154.48H361.696V155.832H356.2L356.832 155.24L356.536 160.064L356.224 159.656C356.544 159.315 356.925 159.051 357.368 158.864C357.816 158.677 358.272 158.584 358.736 158.584C359.45 158.584 360.09 158.752 360.656 159.088C361.221 159.419 361.669 159.872 362 160.448C362.33 161.019 362.496 161.661 362.496 162.376C362.496 163.085 362.314 163.733 361.952 164.32C361.589 164.901 361.106 165.368 360.504 165.72C359.906 166.067 359.25 166.24 358.536 166.24ZM368.297 166.24C367.55 166.24 366.884 166.072 366.297 165.736C365.716 165.395 365.254 164.933 364.913 164.352C364.577 163.765 364.409 163.099 364.409 162.352V158.128C364.409 157.381 364.577 156.715 364.913 156.128C365.254 155.541 365.716 155.08 366.297 154.744C366.884 154.408 367.55 154.24 368.297 154.24C369.044 154.24 369.71 154.408 370.297 154.744C370.884 155.08 371.345 155.541 371.681 156.128C372.017 156.715 372.185 157.381 372.185 158.128V162.352C372.185 163.099 372.017 163.765 371.681 164.352C371.345 164.933 370.884 165.395 370.297 165.736C369.71 166.072 369.044 166.24 368.297 166.24ZM368.297 164.872C368.75 164.872 369.161 164.763 369.529 164.544C369.897 164.325 370.19 164.032 370.409 163.664C370.628 163.291 370.737 162.88 370.737 162.432V158.04C370.737 157.587 370.628 157.176 370.409 156.808C370.19 156.44 369.897 156.147 369.529 155.928C369.161 155.709 368.75 155.6 368.297 155.6C367.849 155.6 367.438 155.709 367.065 155.928C366.697 156.147 366.404 156.44 366.185 156.808C365.966 157.176 365.857 157.587 365.857 158.04V162.432C365.857 162.88 365.966 163.291 366.185 163.664C366.404 164.032 366.697 164.325 367.065 164.544C367.438 164.763 367.849 164.872 368.297 164.872ZM378.393 166.24C377.582 166.24 376.899 166.04 376.345 165.64C375.79 165.235 375.369 164.688 375.081 164C374.798 163.307 374.657 162.531 374.657 161.672C374.657 160.803 374.798 160.024 375.081 159.336C375.369 158.648 375.79 158.107 376.345 157.712C376.905 157.317 377.59 157.12 378.401 157.12C379.201 157.12 379.889 157.32 380.465 157.72C381.046 158.115 381.491 158.656 381.801 159.344C382.11 160.032 382.265 160.808 382.265 161.672C382.265 162.536 382.11 163.312 381.801 164C381.491 164.688 381.046 165.235 380.465 165.64C379.889 166.04 379.198 166.24 378.393 166.24ZM374.417 166V154.48H375.849V159.64H375.689V166H374.417ZM378.217 164.936C378.787 164.936 379.259 164.792 379.633 164.504C380.006 164.216 380.286 163.827 380.473 163.336C380.659 162.84 380.753 162.285 380.753 161.672C380.753 161.064 380.659 160.515 380.473 160.024C380.291 159.533 380.009 159.144 379.625 158.856C379.246 158.568 378.763 158.424 378.177 158.424C377.617 158.424 377.153 158.563 376.785 158.84C376.417 159.112 376.142 159.493 375.961 159.984C375.779 160.469 375.689 161.032 375.689 161.672C375.689 162.301 375.777 162.864 375.953 163.36C376.134 163.851 376.411 164.237 376.785 164.52C377.158 164.797 377.635 164.936 378.217 164.936ZM387.986 166.24C387.176 166.24 386.493 166.04 385.938 165.64C385.384 165.235 384.962 164.688 384.674 164C384.392 163.307 384.25 162.531 384.25 161.672C384.25 160.803 384.392 160.024 384.674 159.336C384.962 158.648 385.384 158.107 385.938 157.712C386.498 157.317 387.184 157.12 387.994 157.12C388.794 157.12 389.482 157.32 390.058 157.72C390.64 158.115 391.085 158.656 391.394 159.344C391.704 160.032 391.858 160.808 391.858 161.672C391.858 162.536 391.704 163.312 391.394 164C391.085 164.688 390.64 165.235 390.058 165.64C389.482 166.04 388.792 166.24 387.986 166.24ZM384.01 169.84V157.36H385.282V163.72H385.442V169.84H384.01ZM387.81 164.936C388.381 164.936 388.853 164.792 389.226 164.504C389.6 164.216 389.88 163.827 390.066 163.336C390.253 162.84 390.346 162.285 390.346 161.672C390.346 161.064 390.253 160.515 390.066 160.024C389.885 159.533 389.602 159.144 389.218 158.856C388.84 158.568 388.357 158.424 387.77 158.424C387.21 158.424 386.746 158.563 386.378 158.84C386.01 159.112 385.736 159.493 385.554 159.984C385.373 160.469 385.282 161.032 385.282 161.672C385.282 162.301 385.37 162.864 385.546 163.36C385.728 163.851 386.005 164.237 386.378 164.52C386.752 164.797 387.229 164.936 387.81 164.936Z" fill="white"/>
    <path d="M612 160H396.5" stroke="#D3D7E0" stroke-width="2"/>
    <path d="M622 160L622.707 159.293L623.414 160L622.707 160.707L622 160ZM614.707 168.707L614 169.414L612.586 168L613.293 167.293L614.707 168.707ZM613.293 152.707L612.586 152L614 150.586L614.707 151.293L613.293 152.707ZM612 159L622 159L622 161L612 161L612 159ZM622.707 160.707L614.707 168.707L613.293 167.293L621.293 159.293L622.707 160.707ZM621.293 160.707L613.293 152.707L614.707 151.293L622.707 159.293L621.293 160.707Z" fill="#D3D7E0"/>
    <path d="M104.62 326V314.48H109.172C109.284 314.48 109.417 314.485 109.572 314.496C109.727 314.501 109.876 314.517 110.02 314.544C110.644 314.64 111.167 314.853 111.588 315.184C112.015 315.515 112.335 315.933 112.548 316.44C112.761 316.941 112.868 317.499 112.868 318.112C112.868 319.003 112.636 319.776 112.172 320.432C111.708 321.083 111.028 321.491 110.132 321.656L109.588 321.744H106.044V326H104.62ZM111.476 326L109.204 321.312L110.612 320.88L113.108 326H111.476ZM106.044 320.392H109.124C109.225 320.392 109.34 320.387 109.468 320.376C109.601 320.365 109.727 320.347 109.844 320.32C110.212 320.235 110.511 320.08 110.74 319.856C110.975 319.627 111.145 319.36 111.252 319.056C111.359 318.747 111.412 318.432 111.412 318.112C111.412 317.792 111.359 317.48 111.252 317.176C111.145 316.867 110.975 316.597 110.74 316.368C110.511 316.139 110.212 315.984 109.844 315.904C109.727 315.872 109.601 315.853 109.468 315.848C109.34 315.837 109.225 315.832 109.124 315.832H106.044V320.392ZM116.878 326V316.056L114.71 317.368V315.776L116.878 314.48H118.326V326H116.878Z" fill="white"/>
    <rect x="96" y="308" width="32" height="24" rx="1" stroke="#D3D7E0" stroke-width="2"/>
    <path d="M320.5 320H128" stroke="#D3D7E0" stroke-width="2"/>
    <rect width="53" height="20" transform="translate(320.5 310)" fill="#1D1D29"/>
    <path d="M327.636 326V316.056L325.468 317.368V315.776L327.636 314.48H329.084V326H327.636ZM335.536 326.24C334.944 326.24 334.392 326.117 333.88 325.872C333.373 325.627 332.938 325.291 332.576 324.864C332.218 324.432 331.962 323.936 331.808 323.376L333.176 323.008C333.272 323.387 333.442 323.715 333.688 323.992C333.933 324.264 334.218 324.477 334.544 324.632C334.874 324.781 335.218 324.856 335.576 324.856C336.045 324.856 336.466 324.744 336.84 324.52C337.218 324.291 337.517 323.989 337.736 323.616C337.954 323.237 338.064 322.824 338.064 322.376C338.064 321.912 337.949 321.493 337.72 321.12C337.496 320.741 337.194 320.443 336.816 320.224C336.437 320.005 336.024 319.896 335.576 319.896C335.069 319.896 334.634 320.003 334.272 320.216C333.914 320.424 333.632 320.68 333.424 320.984L332.16 320.504L332.512 314.48H338.696V315.832H333.2L333.832 315.24L333.536 320.064L333.224 319.656C333.544 319.315 333.925 319.051 334.368 318.864C334.816 318.677 335.272 318.584 335.736 318.584C336.45 318.584 337.09 318.752 337.656 319.088C338.221 319.419 338.669 319.872 339 320.448C339.33 321.019 339.496 321.661 339.496 322.376C339.496 323.085 339.314 323.733 338.952 324.32C338.589 324.901 338.106 325.368 337.504 325.72C336.906 326.067 336.25 326.24 335.536 326.24ZM345.297 326.24C344.55 326.24 343.884 326.072 343.297 325.736C342.716 325.395 342.254 324.933 341.913 324.352C341.577 323.765 341.409 323.099 341.409 322.352V318.128C341.409 317.381 341.577 316.715 341.913 316.128C342.254 315.541 342.716 315.08 343.297 314.744C343.884 314.408 344.55 314.24 345.297 314.24C346.044 314.24 346.71 314.408 347.297 314.744C347.884 315.08 348.345 315.541 348.681 316.128C349.017 316.715 349.185 317.381 349.185 318.128V322.352C349.185 323.099 349.017 323.765 348.681 324.352C348.345 324.933 347.884 325.395 347.297 325.736C346.71 326.072 346.044 326.24 345.297 326.24ZM345.297 324.872C345.75 324.872 346.161 324.763 346.529 324.544C346.897 324.325 347.19 324.032 347.409 323.664C347.628 323.291 347.737 322.88 347.737 322.432V318.04C347.737 317.587 347.628 317.176 347.409 316.808C347.19 316.44 346.897 316.147 346.529 315.928C346.161 315.709 345.75 315.6 345.297 315.6C344.849 315.6 344.438 315.709 344.065 315.928C343.697 316.147 343.404 316.44 343.185 316.808C342.966 317.176 342.857 317.587 342.857 318.04V322.432C342.857 322.88 342.966 323.291 343.185 323.664C343.404 324.032 343.697 324.325 344.065 324.544C344.438 324.763 344.849 324.872 345.297 324.872ZM355.393 326.24C354.582 326.24 353.899 326.04 353.345 325.64C352.79 325.235 352.369 324.688 352.081 324C351.798 323.307 351.657 322.531 351.657 321.672C351.657 320.803 351.798 320.024 352.081 319.336C352.369 318.648 352.79 318.107 353.345 317.712C353.905 317.317 354.59 317.12 355.401 317.12C356.201 317.12 356.889 317.32 357.465 317.72C358.046 318.115 358.491 318.656 358.801 319.344C359.11 320.032 359.265 320.808 359.265 321.672C359.265 322.536 359.11 323.312 358.801 324C358.491 324.688 358.046 325.235 357.465 325.64C356.889 326.04 356.198 326.24 355.393 326.24ZM351.417 326V314.48H352.849V319.64H352.689V326H351.417ZM355.217 324.936C355.787 324.936 356.259 324.792 356.633 324.504C357.006 324.216 357.286 323.827 357.473 323.336C357.659 322.84 357.753 322.285 357.753 321.672C357.753 321.064 357.659 320.515 357.473 320.024C357.291 319.533 357.009 319.144 356.625 318.856C356.246 318.568 355.763 318.424 355.177 318.424C354.617 318.424 354.153 318.563 353.785 318.84C353.417 319.112 353.142 319.493 352.961 319.984C352.779 320.469 352.689 321.032 352.689 321.672C352.689 322.301 352.777 322.864 352.953 323.36C353.134 323.851 353.411 324.237 353.785 324.52C354.158 324.797 354.635 324.936 355.217 324.936ZM364.986 326.24C364.176 326.24 363.493 326.04 362.938 325.64C362.384 325.235 361.962 324.688 361.674 324C361.392 323.307 361.25 322.531 361.25 321.672C361.25 320.803 361.392 320.024 361.674 319.336C361.962 318.648 362.384 318.107 362.938 317.712C363.498 317.317 364.184 317.12 364.994 317.12C365.794 317.12 366.482 317.32 367.058 317.72C367.64 318.115 368.085 318.656 368.394 319.344C368.704 320.032 368.858 320.808 368.858 321.672C368.858 322.536 368.704 323.312 368.394 324C368.085 324.688 367.64 325.235 367.058 325.64C366.482 326.04 365.792 326.24 364.986 326.24ZM361.01 329.84V317.36H362.282V323.72H362.442V329.84H361.01ZM364.81 324.936C365.381 324.936 365.853 324.792 366.226 324.504C366.6 324.216 366.88 323.827 367.066 323.336C367.253 322.84 367.346 322.285 367.346 321.672C367.346 321.064 367.253 320.515 367.066 320.024C366.885 319.533 366.602 319.144 366.218 318.856C365.84 318.568 365.357 318.424 364.77 318.424C364.21 318.424 363.746 318.563 363.378 318.84C363.01 319.112 362.736 319.493 362.554 319.984C362.373 320.469 362.282 321.032 362.282 321.672C362.282 322.301 362.37 322.864 362.546 323.36C362.728 323.851 363.005 324.237 363.378 324.52C363.752 324.797 364.229 324.936 364.81 324.936Z" fill="white"/>
    <path d="M566 320H373.5" stroke="#D3D7E0" stroke-width="2"/>
    <path d="M576 320L576.707 319.293L577.414 320L576.707 320.707L576 320ZM568.707 328.707L568 329.414L566.586 328L567.293 327.293L568.707 328.707ZM567.293 312.707L566.586 312L568 310.586L568.707 311.293L567.293 312.707ZM566 319L576 319L576 321L566 321L566 319ZM576.707 320.707L568.707 328.707L567.293 327.293L575.293 319.293L576.707 320.707ZM575.293 320.707L567.293 312.707L568.707 311.293L576.707 319.293L575.293 320.707Z" fill="#D3D7E0"/>
    <path d="M32.9984 438V423.6H34.7784V438H32.9984ZM43.6089 438.3C42.6222 438.3 41.7222 438.127 40.9089 437.78C40.0956 437.433 39.3956 436.937 38.8089 436.29C38.2222 435.637 37.7689 434.85 37.4489 433.93C37.1356 433.003 36.9789 431.96 36.9789 430.8C36.9789 429.267 37.2522 427.94 37.7989 426.82C38.3456 425.7 39.1156 424.837 40.1089 424.23C41.1022 423.617 42.2689 423.31 43.6089 423.31C45.2222 423.31 46.5222 423.687 47.5089 424.44C48.4956 425.187 49.1756 426.21 49.5489 427.51L47.7489 427.88C47.4489 427.007 46.9556 426.31 46.2689 425.79C45.5822 425.27 44.7256 425.01 43.6989 425.01C42.6256 425.003 41.7322 425.243 41.0189 425.73C40.3122 426.21 39.7789 426.887 39.4189 427.76C39.0589 428.633 38.8756 429.647 38.8689 430.8C38.8622 431.947 39.0389 432.953 39.3989 433.82C39.7589 434.687 40.2956 435.367 41.0089 435.86C41.7289 436.347 42.6256 436.593 43.6989 436.6C44.6256 436.607 45.4056 436.43 46.0389 436.07C46.6722 435.71 47.1622 435.19 47.5089 434.51C47.8556 433.83 48.0656 433.013 48.1389 432.06H45.0789V430.59H50.0189C50.0389 430.723 50.0489 430.883 50.0489 431.07C50.0556 431.25 50.0589 431.373 50.0589 431.44C50.0589 432.753 49.8122 433.93 49.3189 434.97C48.8322 436.003 48.1089 436.817 47.1489 437.41C46.1956 438.003 45.0156 438.3 43.6089 438.3ZM52.0563 438V423.6H53.8363V429.95H61.4163V423.6H63.1963V438H61.4163V431.64H53.8363V438H52.0563Z" fill="white"/>
    <path d="M26.0258 528V513.6H27.8058V528H26.0258ZM36.6363 528.3C35.6496 528.3 34.7496 528.127 33.9363 527.78C33.1229 527.433 32.4229 526.937 31.8363 526.29C31.2496 525.637 30.7963 524.85 30.4763 523.93C30.1629 523.003 30.0063 521.96 30.0063 520.8C30.0063 519.267 30.2796 517.94 30.8263 516.82C31.3729 515.7 32.1429 514.837 33.1363 514.23C34.1296 513.617 35.2963 513.31 36.6363 513.31C38.2496 513.31 39.5496 513.687 40.5363 514.44C41.5229 515.187 42.2029 516.21 42.5763 517.51L40.7763 517.88C40.4763 517.007 39.9829 516.31 39.2963 515.79C38.6096 515.27 37.7529 515.01 36.7263 515.01C35.6529 515.003 34.7596 515.243 34.0463 515.73C33.3396 516.21 32.8063 516.887 32.4463 517.76C32.0863 518.633 31.9029 519.647 31.8963 520.8C31.8896 521.947 32.0663 522.953 32.4263 523.82C32.7863 524.687 33.3229 525.367 34.0363 525.86C34.7563 526.347 35.6529 526.593 36.7263 526.6C37.6529 526.607 38.4329 526.43 39.0663 526.07C39.6996 525.71 40.1896 525.19 40.5363 524.51C40.8829 523.83 41.0929 523.013 41.1662 522.06H38.1063V520.59H43.0463C43.0663 520.723 43.0763 520.883 43.0763 521.07C43.0829 521.25 43.0863 521.373 43.0863 521.44C43.0863 522.753 42.8396 523.93 42.3463 524.97C41.8596 526.003 41.1363 526.817 40.1763 527.41C39.2229 528.003 38.0429 528.3 36.6363 528.3ZM45.0836 528V513.6H46.8636V520.36L53.1636 513.6H55.4036L48.8636 520.59L55.9136 528H53.6136L46.8636 520.96V528H45.0836ZM64.5634 513.6H66.3734L62.5334 528H60.7234L64.5634 513.6ZM34.7953 548V533.6H36.5753V548H34.7953ZM45.4058 548.3C44.4191 548.3 43.5191 548.127 42.7058 547.78C41.8924 547.433 41.1924 546.937 40.6058 546.29C40.0191 545.637 39.5658 544.85 39.2458 543.93C38.9324 543.003 38.7758 541.96 38.7758 540.8C38.7758 539.267 39.0491 537.94 39.5958 536.82C40.1424 535.7 40.9124 534.837 41.9058 534.23C42.8991 533.617 44.0658 533.31 45.4058 533.31C47.0191 533.31 48.3191 533.687 49.3058 534.44C50.2924 535.187 50.9724 536.21 51.3458 537.51L49.5458 537.88C49.2458 537.007 48.7524 536.31 48.0658 535.79C47.3791 535.27 46.5224 535.01 45.4958 535.01C44.4224 535.003 43.5291 535.243 42.8158 535.73C42.1091 536.21 41.5758 536.887 41.2158 537.76C40.8558 538.633 40.6724 539.647 40.6658 540.8C40.6591 541.947 40.8358 542.953 41.1958 543.82C41.5558 544.687 42.0924 545.367 42.8058 545.86C43.5258 546.347 44.4224 546.593 45.4958 546.6C46.4224 546.607 47.2024 546.43 47.8358 546.07C48.4691 545.71 48.9591 545.19 49.3058 544.51C49.6524 543.83 49.8624 543.013 49.9358 542.06H46.8758V540.59H51.8158C51.8358 540.723 51.8458 540.883 51.8458 541.07C51.8524 541.25 51.8558 541.373 51.8558 541.44C51.8558 542.753 51.6091 543.93 51.1158 544.97C50.6291 546.003 49.9058 546.817 48.9458 547.41C47.9924 548.003 46.8124 548.3 45.4058 548.3ZM54.0531 548V533.6H55.8331V546.31H62.5131V548H54.0531Z" fill="white"/>
    <path d="M19.3014 268V255.29H14.3914V253.6H25.9914V255.29H21.0814V268H19.3014ZM33.5036 268.3C32.0703 268.3 30.8536 267.983 29.8536 267.35C28.8536 266.717 28.0903 265.837 27.5636 264.71C27.0436 263.583 26.7836 262.28 26.7836 260.8C26.7836 259.32 27.0436 258.017 27.5636 256.89C28.0903 255.763 28.8536 254.883 29.8536 254.25C30.8536 253.617 32.0703 253.3 33.5036 253.3C35.1703 253.3 36.5403 253.723 37.6136 254.57C38.6936 255.417 39.4369 256.557 39.8436 257.99L38.0336 258.47C37.7403 257.397 37.2169 256.55 36.4636 255.93C35.7103 255.31 34.7236 255 33.5036 255C32.4303 255 31.5369 255.243 30.8236 255.73C30.1103 256.217 29.5736 256.897 29.2136 257.77C28.8536 258.637 28.6703 259.647 28.6636 260.8C28.6569 261.947 28.8336 262.957 29.1936 263.83C29.5536 264.697 30.0936 265.377 30.8136 265.87C31.5336 266.357 32.4303 266.6 33.5036 266.6C34.7236 266.6 35.7103 266.29 36.4636 265.67C37.2169 265.043 37.7403 264.197 38.0336 263.13L39.8436 263.61C39.4369 265.037 38.6936 266.177 37.6136 267.03C36.5403 267.877 35.1703 268.3 33.5036 268.3ZM42.0367 268V253.6H47.7267C47.8667 253.6 48.0334 253.607 48.2267 253.62C48.4201 253.627 48.6067 253.647 48.7867 253.68C49.5667 253.8 50.2201 254.067 50.7467 254.48C51.2801 254.893 51.6801 255.417 51.9467 256.05C52.2134 256.677 52.3467 257.373 52.3467 258.14C52.3467 259.253 52.0567 260.22 51.4767 261.04C50.8967 261.853 50.0467 262.363 48.9267 262.57L48.2467 262.68H43.8167V268H42.0367ZM50.6067 268L47.7667 262.14L49.5267 261.6L52.6467 268H50.6067ZM43.8167 260.99H47.6667C47.7934 260.99 47.9367 260.983 48.0967 260.97C48.2634 260.957 48.4201 260.933 48.5667 260.9C49.0267 260.793 49.4001 260.6 49.6867 260.32C49.9801 260.033 50.1934 259.7 50.3267 259.32C50.4601 258.933 50.5267 258.54 50.5267 258.14C50.5267 257.74 50.4601 257.35 50.3267 256.97C50.1934 256.583 49.9801 256.247 49.6867 255.96C49.4001 255.673 49.0267 255.48 48.5667 255.38C48.4201 255.34 48.2634 255.317 48.0967 255.31C47.9367 255.297 47.7934 255.29 47.6667 255.29H43.8167V260.99ZM63.1231 268.3C62.1031 268.3 61.2298 268.05 60.5031 267.55C59.7765 267.043 59.2198 266.36 58.8331 265.5C58.4465 264.64 58.2531 263.673 58.2531 262.6C58.2531 261.513 58.4465 260.543 58.8331 259.69C59.2265 258.83 59.7898 258.15 60.5231 257.65C61.2565 257.15 62.1398 256.9 63.1731 256.9C64.1398 256.9 64.9598 257.143 65.6331 257.63C66.3131 258.11 66.7931 258.777 67.0731 259.63L66.7731 260.15V257.2H68.3631V268H66.7731V265.02L67.0731 265.54C66.7931 266.4 66.3031 267.077 65.6031 267.57C64.9098 268.057 64.0831 268.3 63.1231 268.3ZM63.3431 266.67C64.0565 266.67 64.6431 266.497 65.1031 266.15C65.5698 265.797 65.9131 265.313 66.1331 264.7C66.3598 264.08 66.4731 263.377 66.4731 262.59C66.4731 261.79 66.3598 261.087 66.1331 260.48C65.9131 259.867 65.5731 259.39 65.1131 259.05C64.6531 258.703 64.0698 258.53 63.3631 258.53C62.6631 258.53 62.0731 258.703 61.5931 259.05C61.1131 259.39 60.7498 259.867 60.5031 260.48C60.2631 261.087 60.1431 261.793 60.1431 262.6C60.1431 263.36 60.2598 264.047 60.4931 264.66C60.7265 265.273 61.0798 265.763 61.5531 266.13C62.0265 266.49 62.6231 266.67 63.3431 266.67ZM78.8017 253.6H80.6117L76.7717 268H74.9617L78.8017 253.6ZM26.2448 288V275.29H21.3348V273.6H32.9348V275.29H28.0248V288H26.2448ZM40.447 288.3C39.0136 288.3 37.797 287.983 36.797 287.35C35.797 286.717 35.0336 285.837 34.507 284.71C33.987 283.583 33.727 282.28 33.727 280.8C33.727 279.32 33.987 278.017 34.507 276.89C35.0336 275.763 35.797 274.883 36.797 274.25C37.797 273.617 39.0136 273.3 40.447 273.3C42.1136 273.3 43.4836 273.723 44.557 274.57C45.637 275.417 46.3803 276.557 46.787 277.99L44.977 278.47C44.6836 277.397 44.1603 276.55 43.407 275.93C42.6536 275.31 41.667 275 40.447 275C39.3736 275 38.4803 275.243 37.767 275.73C37.0536 276.217 36.517 276.897 36.157 277.77C35.797 278.637 35.6136 279.647 35.607 280.8C35.6003 281.947 35.777 282.957 36.137 283.83C36.497 284.697 37.037 285.377 37.757 285.87C38.477 286.357 39.3736 286.6 40.447 286.6C41.667 286.6 42.6536 286.29 43.407 285.67C44.1603 285.043 44.6836 284.197 44.977 283.13L46.787 283.61C46.3803 285.037 45.637 286.177 44.557 287.03C43.4836 287.877 42.1136 288.3 40.447 288.3ZM48.9801 288V273.6H54.6701C54.8101 273.6 54.9767 273.607 55.1701 273.62C55.3634 273.627 55.5501 273.647 55.7301 273.68C56.5101 273.8 57.1634 274.067 57.6901 274.48C58.2234 274.893 58.6234 275.417 58.8901 276.05C59.1567 276.677 59.2901 277.373 59.2901 278.14C59.2901 279.253 59.0001 280.22 58.4201 281.04C57.8401 281.853 56.9901 282.363 55.8701 282.57L55.1901 282.68H50.7601V288H48.9801ZM57.5501 288L54.7101 282.14L56.4701 281.6L59.5901 288H57.5501ZM50.7601 280.99H54.6101C54.7367 280.99 54.8801 280.983 55.0401 280.97C55.2067 280.957 55.3634 280.933 55.5101 280.9C55.9701 280.793 56.3434 280.6 56.6301 280.32C56.9234 280.033 57.1367 279.7 57.2701 279.32C57.4034 278.933 57.4701 278.54 57.4701 278.14C57.4701 277.74 57.4034 277.35 57.2701 276.97C57.1367 276.583 56.9234 276.247 56.6301 275.96C56.3434 275.673 55.9701 275.48 55.5101 275.38C55.3634 275.34 55.2067 275.317 55.0401 275.31C54.8801 275.297 54.7367 275.29 54.6101 275.29H50.7601V280.99ZM68.7165 291.6V288L64.7965 277.2H66.6065L69.6265 285.73L72.6565 277.2H74.4565L70.5365 288V291.6H68.7165Z" fill="white"/>
    <defs>
        <filter id="filter0_i_6229_37734" x="94.7373" y="83" width="330.263" height="54" filterUnits="userSpaceOnUse" color-interpolation-filters="sRGB">
            <feFlood flood-opacity="0" result="BackgroundImageFix"/>
            <feBlend mode="normal" in="SourceGraphic" in2="BackgroundImageFix" result="shape"/>
            <feColorMatrix in="SourceAlpha" type="matrix" values="0 0 0 0 0 0 0 0 0 0 0 0 0 0 0 0 0 0 127 0" result="hardAlpha"/>
            <feOffset dx="-8" dy="-4"/>
            <feComposite in2="hardAlpha" operator="arithmetic" k2="-1" k3="1"/>
            <feColorMatrix type="matrix" values="0 0 0 0 0.0666667 0 0 0 0 0.0196078 0 0 0 0 0.160784 0 0 0 0.16 0"/>
            <feBlend mode="normal" in2="shape" result="effect1_innerShadow_6229_37734"/>
        </filter>
        <filter id="filter1_i_6229_37734" x="423" y="83" width="32" height="54" filterUnits="userSpaceOnUse" color-interpolation-filters="sRGB">
            <feFlood flood-opacity="0" result="BackgroundImageFix"/>
            <feBlend mode="normal" in="SourceGraphic" in2="BackgroundImageFix" result="shape"/>
            <feColorMatrix in="SourceAlpha" type="matrix" values="0 0 0 0 0 0 0 0 0 0 0 0 0 0 0 0 0 0 127 0" result="hardAlpha"/>
            <feOffset dx="-8" dy="-4"/>
            <feComposite in2="hardAlpha" operator="arithmetic" k2="-1" k3="1"/>
            <feColorMatrix type="matrix" values="0 0 0 0 0.0666667 0 0 0 0 0.0196078 0 0 0 0 0.160784 0 0 0 0.16 0"/>
            <feBlend mode="normal" in2="shape" result="effect1_innerShadow_6229_37734"/>
        </filter>
        <filter id="filter2_i_6229_37734" x="489" y="83" width="32" height="54" filterUnits="userSpaceOnUse" color-interpolation-filters="sRGB">
            <feFlood flood-opacity="0" result="BackgroundImageFix"/>
            <feBlend mode="normal" in="SourceGraphic" in2="BackgroundImageFix" result="shape"/>
            <feColorMatrix in="SourceAlpha" type="matrix" values="0 0 0 0 0 0 0 0 0 0 0 0 0 0 0 0 0 0 127 0" result="hardAlpha"/>
            <feOffset dx="-8" dy="-4"/>
            <feComposite in2="hardAlpha" operator="arithmetic" k2="-1" k3="1"/>
            <feColorMatrix type="matrix" values="0 0 0 0 0.0666667 0 0 0 0 0.0196078 0 0 0 0 0.160784 0 0 0 0.16 0"/>
            <feBlend mode="normal" in2="shape" result="effect1_innerShadow_6229_37734"/>
        </filter>
        <filter id="filter3_i_6229_37734" x="453" y="83" width="38" height="54" filterUnits="userSpaceOnUse" color-interpolation-filters="sRGB">
            <feFlood flood-opacity="0" result="BackgroundImageFix"/>
            <feBlend mode="normal" in="SourceGraphic" in2="BackgroundImageFix" result="shape"/>
            <feColorMatrix in="SourceAlpha" type="matrix" values="0 0 0 0 0 0 0 0 0 0 0 0 0 0 0 0 0 0 127 0" result="hardAlpha"/>
            <feOffset dx="-8" dy="-4"/>
            <feComposite in2="hardAlpha" operator="arithmetic" k2="-1" k3="1"/>
            <feColorMatrix type="matrix" values="0 0 0 0 0.0666667 0 0 0 0 0.0196078 0 0 0 0 0.160784 0 0 0 0.16 0"/>
            <feBlend mode="normal" in2="shape" result="effect1_innerShadow_6229_37734"/>
        </filter>
        <filter id="filter4_i_6229_37734" x="519" y="83" width="146" height="54" filterUnits="userSpaceOnUse" color-interpolation-filters="sRGB">
            <feFlood flood-opacity="0" result="BackgroundImageFix"/>
            <feBlend mode="normal" in="SourceGraphic" in2="BackgroundImageFix" result="shape"/>
            <feColorMatrix in="SourceAlpha" type="matrix" values="0 0 0 0 0 0 0 0 0 0 0 0 0 0 0 0 0 0 127 0" result="hardAlpha"/>
            <feOffset dx="-8" dy="-4"/>
            <feComposite in2="hardAlpha" operator="arithmetic" k2="-1" k3="1"/>
            <feColorMatrix type="matrix" values="0 0 0 0 0.0666667 0 0 0 0 0.0196078 0 0 0 0 0.160784 0 0 0 0.16 0"/>
            <feBlend mode="normal" in2="shape" result="effect1_innerShadow_6229_37734"/>
        </filter>
        <filter id="filter5_i_6229_37734" x="663" y="83" width="82" height="54" filterUnits="userSpaceOnUse" color-interpolation-filters="sRGB">
            <feFlood flood-opacity="0" result="BackgroundImageFix"/>
            <feBlend mode="normal" in="SourceGraphic" in2="BackgroundImageFix" result="shape"/>
            <feColorMatrix in="SourceAlpha" type="matrix" values="0 0 0 0 0 0 0 0 0 0 0 0 0 0 0 0 0 0 127 0" result="hardAlpha"/>
            <feOffset dx="-8" dy="-4"/>
            <feComposite in2="hardAlpha" operator="arithmetic" k2="-1" k3="1"/>
            <feColorMatrix type="matrix" values="0 0 0 0 0.0666667 0 0 0 0 0.0196078 0 0 0 0 0.160784 0 0 0 0.16 0"/>
            <feBlend mode="normal" in2="shape" result="effect1_innerShadow_6229_37734"/>
        </filter>
        <filter id="filter6_i_6229_37734" x="743" y="83" width="66" height="54" filterUnits="userSpaceOnUse" color-interpolation-filters="sRGB">
            <feFlood flood-opacity="0" result="BackgroundImageFix"/>
            <feBlend mode="normal" in="SourceGraphic" in2="BackgroundImageFix" result="shape"/>
            <feColorMatrix in="SourceAlpha" type="matrix" values="0 0 0 0 0 0 0 0 0 0 0 0 0 0 0 0 0 0 127 0" result="hardAlpha"/>
            <feOffset dx="-8" dy="-4"/>
            <feComposite in2="hardAlpha" operator="arithmetic" k2="-1" k3="1"/>
            <feColorMatrix type="matrix" values="0 0 0 0 0.0666667 0 0 0 0 0.0196078 0 0 0 0 0.160784 0 0 0 0.16 0"/>
            <feBlend mode="normal" in2="shape" result="effect1_innerShadow_6229_37734"/>
        </filter>
        <filter id="filter7_i_6229_37734" x="94.7373" y="403" width="330.263" height="54" filterUnits="userSpaceOnUse" color-interpolation-filters="sRGB">
            <feFlood flood-opacity="0" result="BackgroundImageFix"/>
            <feBlend mode="normal" in="SourceGraphic" in2="BackgroundImageFix" result="shape"/>
            <feColorMatrix in="SourceAlpha" type="matrix" values="0 0 0 0 0 0 0 0 0 0 0 0 0 0 0 0 0 0 127 0" result="hardAlpha"/>
            <feOffset dx="-8" dy="-4"/>
            <feComposite in2="hardAlpha" operator="arithmetic" k2="-1" k3="1"/>
            <feColorMatrix type="matrix" values="0 0 0 0 0.0666667 0 0 0 0 0.0196078 0 0 0 0 0.160784 0 0 0 0.16 0"/>
            <feBlend mode="normal" in2="shape" result="effect1_innerShadow_6229_37734"/>
        </filter>
        <filter id="filter8_i_6229_37734" x="423" y="403" width="32" height="54" filterUnits="userSpaceOnUse" color-interpolation-filters="sRGB">
            <feFlood flood-opacity="0" result="BackgroundImageFix"/>
            <feBlend mode="normal" in="SourceGraphic" in2="BackgroundImageFix" result="shape"/>
            <feColorMatrix in="SourceAlpha" type="matrix" values="0 0 0 0 0 0 0 0 0 0 0 0 0 0 0 0 0 0 127 0" result="hardAlpha"/>
            <feOffset dx="-8" dy="-4"/>
            <feComposite in2="hardAlpha" operator="arithmetic" k2="-1" k3="1"/>
            <feColorMatrix type="matrix" values="0 0 0 0 0.0666667 0 0 0 0 0.0196078 0 0 0 0 0.160784 0 0 0 0.16 0"/>
            <feBlend mode="normal" in2="shape" result="effect1_innerShadow_6229_37734"/>
        </filter>
        <filter id="filter9_i_6229_37734" x="489" y="403" width="32" height="54" filterUnits="userSpaceOnUse" color-interpolation-filters="sRGB">
            <feFlood flood-opacity="0" result="BackgroundImageFix"/>
            <feBlend mode="normal" in="SourceGraphic" in2="BackgroundImageFix" result="shape"/>
            <feColorMatrix in="SourceAlpha" type="matrix" values="0 0 0 0 0 0 0 0 0 0 0 0 0 0 0 0 0 0 127 0" result="hardAlpha"/>
            <feOffset dx="-8" dy="-4"/>
            <feComposite in2="hardAlpha" operator="arithmetic" k2="-1" k3="1"/>
            <feColorMatrix type="matrix" values="0 0 0 0 0.0666667 0 0 0 0 0.0196078 0 0 0 0 0.160784 0 0 0 0.16 0"/>
            <feBlend mode="normal" in2="shape" result="effect1_innerShadow_6229_37734"/>
        </filter>
        <filter id="filter10_i_6229_37734" x="453" y="403" width="38" height="54" filterUnits="userSpaceOnUse" color-interpolation-filters="sRGB">
            <feFlood flood-opacity="0" result="BackgroundImageFix"/>
            <feBlend mode="normal" in="SourceGraphic" in2="BackgroundImageFix" result="shape"/>
            <feColorMatrix in="SourceAlpha" type="matrix" values="0 0 0 0 0 0 0 0 0 0 0 0 0 0 0 0 0 0 127 0" result="hardAlpha"/>
            <feOffset dx="-8" dy="-4"/>
            <feComposite in2="hardAlpha" operator="arithmetic" k2="-1" k3="1"/>
            <feColorMatrix type="matrix" values="0 0 0 0 0.0666667 0 0 0 0 0.0196078 0 0 0 0 0.160784 0 0 0 0.16 0"/>
            <feBlend mode="normal" in2="shape" result="effect1_innerShadow_6229_37734"/>
        </filter>
        <filter id="filter11_i_6229_37734" x="519" y="403" width="146" height="54" filterUnits="userSpaceOnUse" color-interpolation-filters="sRGB">
            <feFlood flood-opacity="0" result="BackgroundImageFix"/>
            <feBlend mode="normal" in="SourceGraphic" in2="BackgroundImageFix" result="shape"/>
            <feColorMatrix in="SourceAlpha" type="matrix" values="0 0 0 0 0 0 0 0 0 0 0 0 0 0 0 0 0 0 127 0" result="hardAlpha"/>
            <feOffset dx="-8" dy="-4"/>
            <feComposite in2="hardAlpha" operator="arithmetic" k2="-1" k3="1"/>
            <feColorMatrix type="matrix" values="0 0 0 0 0.0666667 0 0 0 0 0.0196078 0 0 0 0 0.160784 0 0 0 0.16 0"/>
            <feBlend mode="normal" in2="shape" result="effect1_innerShadow_6229_37734"/>
        </filter>
        <filter id="filter12_i_6229_37734" x="663" y="403" width="82" height="54" filterUnits="userSpaceOnUse" color-interpolation-filters="sRGB">
            <feFlood flood-opacity="0" result="BackgroundImageFix"/>
            <feBlend mode="normal" in="SourceGraphic" in2="BackgroundImageFix" result="shape"/>
            <feColorMatrix in="SourceAlpha" type="matrix" values="0 0 0 0 0 0 0 0 0 0 0 0 0 0 0 0 0 0 127 0" result="hardAlpha"/>
            <feOffset dx="-8" dy="-4"/>
            <feComposite in2="hardAlpha" operator="arithmetic" k2="-1" k3="1"/>
            <feColorMatrix type="matrix" values="0 0 0 0 0.0666667 0 0 0 0 0.0196078 0 0 0 0 0.160784 0 0 0 0.16 0"/>
            <feBlend mode="normal" in2="shape" result="effect1_innerShadow_6229_37734"/>
        </filter>
        <filter id="filter13_i_6229_37734" x="743" y="403" width="66" height="54" filterUnits="userSpaceOnUse" color-interpolation-filters="sRGB">
            <feFlood flood-opacity="0" result="BackgroundImageFix"/>
            <feBlend mode="normal" in="SourceGraphic" in2="BackgroundImageFix" result="shape"/>
            <feColorMatrix in="SourceAlpha" type="matrix" values="0 0 0 0 0 0 0 0 0 0 0 0 0 0 0 0 0 0 127 0" result="hardAlpha"/>
            <feOffset dx="-8" dy="-4"/>
            <feComposite in2="hardAlpha" operator="arithmetic" k2="-1" k3="1"/>
            <feColorMatrix type="matrix" values="0 0 0 0 0.0666667 0 0 0 0 0.0196078 0 0 0 0 0.160784 0 0 0 0.16 0"/>
            <feBlend mode="normal" in2="shape" result="effect1_innerShadow_6229_37734"/>
        </filter>
        <filter id="filter14_i_6229_37734" x="94.7373" y="243" width="330.263" height="54" filterUnits="userSpaceOnUse" color-interpolation-filters="sRGB">
            <feFlood flood-opacity="0" result="BackgroundImageFix"/>
            <feBlend mode="normal" in="SourceGraphic" in2="BackgroundImageFix" result="shape"/>
            <feColorMatrix in="SourceAlpha" type="matrix" values="0 0 0 0 0 0 0 0 0 0 0 0 0 0 0 0 0 0 127 0" result="hardAlpha"/>
            <feOffset dx="-8" dy="-4"/>
            <feComposite in2="hardAlpha" operator="arithmetic" k2="-1" k3="1"/>
            <feColorMatrix type="matrix" values="0 0 0 0 0.0666667 0 0 0 0 0.0196078 0 0 0 0 0.160784 0 0 0 0.16 0"/>
            <feBlend mode="normal" in2="shape" result="effect1_innerShadow_6229_37734"/>
        </filter>
        <filter id="filter15_i_6229_37734" x="423" y="243" width="32" height="54" filterUnits="userSpaceOnUse" color-interpolation-filters="sRGB">
            <feFlood flood-opacity="0" result="BackgroundImageFix"/>
            <feBlend mode="normal" in="SourceGraphic" in2="BackgroundImageFix" result="shape"/>
            <feColorMatrix in="SourceAlpha" type="matrix" values="0 0 0 0 0 0 0 0 0 0 0 0 0 0 0 0 0 0 127 0" result="hardAlpha"/>
            <feOffset dx="-8" dy="-4"/>
            <feComposite in2="hardAlpha" operator="arithmetic" k2="-1" k3="1"/>
            <feColorMatrix type="matrix" values="0 0 0 0 0.0666667 0 0 0 0 0.0196078 0 0 0 0 0.160784 0 0 0 0.16 0"/>
            <feBlend mode="normal" in2="shape" result="effect1_innerShadow_6229_37734"/>
        </filter>
        <filter id="filter16_i_6229_37734" x="453" y="243" width="146" height="54" filterUnits="userSpaceOnUse" color-interpolation-filters="sRGB">
            <feFlood flood-opacity="0" result="BackgroundImageFix"/>
            <feBlend mode="normal" in="SourceGraphic" in2="BackgroundImageFix" result="shape"/>
            <feColorMatrix in="SourceAlpha" type="matrix" values="0 0 0 0 0 0 0 0 0 0 0 0 0 0 0 0 0 0 127 0" result="hardAlpha"/>
            <feOffset dx="-8" dy="-4"/>
            <feComposite in2="hardAlpha" operator="arithmetic" k2="-1" k3="1"/>
            <feColorMatrix type="matrix" values="0 0 0 0 0.0666667 0 0 0 0 0.0196078 0 0 0 0 0.160784 0 0 0 0.16 0"/>
            <feBlend mode="normal" in2="shape" result="effect1_innerShadow_6229_37734"/>
        </filter>
        <filter id="filter17_i_6229_37734" x="597" y="243" width="82" height="54" filterUnits="userSpaceOnUse" color-interpolation-filters="sRGB">
            <feFlood flood-opacity="0" result="BackgroundImageFix"/>
            <feBlend mode="normal" in="SourceGraphic" in2="BackgroundImageFix" result="shape"/>
            <feColorMatrix in="SourceAlpha" type="matrix" values="0 0 0 0 0 0 0 0 0 0 0 0 0 0 0 0 0 0 127 0" result="hardAlpha"/>
            <feOffset dx="-8" dy="-4"/>
            <feComposite in2="hardAlpha" operator="arithmetic" k2="-1" k3="1"/>
            <feColorMatrix type="matrix" values="0 0 0 0 0.0666667 0 0 0 0 0.0196078 0 0 0 0 0.160784 0 0 0 0.16 0"/>
            <feBlend mode="normal" in2="shape" result="effect1_innerShadow_6229_37734"/>
        </filter>
        <filter id="filter18_i_6229_37734" x="677" y="243" width="66" height="54" filterUnits="userSpaceOnUse" color-interpolation-filters="sRGB">
            <feFlood flood-opacity="0" result="BackgroundImageFix"/>
            <feBlend mode="normal" in="SourceGraphic" in2="BackgroundImageFix" result="shape"/>
            <feColorMatrix in="SourceAlpha" type="matrix" values="0 0 0 0 0 0 0 0 0 0 0 0 0 0 0 0 0 0 127 0" result="hardAlpha"/>
            <feOffset dx="-8" dy="-4"/>
            <feComposite in2="hardAlpha" operator="arithmetic" k2="-1" k3="1"/>
            <feColorMatrix type="matrix" values="0 0 0 0 0.0666667 0 0 0 0 0.0196078 0 0 0 0 0.160784 0 0 0 0.16 0"/>
            <feBlend mode="normal" in2="shape" result="effect1_innerShadow_6229_37734"/>
        </filter>
        <filter id="filter19_i_6229_37734" x="94.7373" y="503" width="330.263" height="54" filterUnits="userSpaceOnUse" color-interpolation-filters="sRGB">
            <feFlood flood-opacity="0" result="BackgroundImageFix"/>
            <feBlend mode="normal" in="SourceGraphic" in2="BackgroundImageFix" result="shape"/>
            <feColorMatrix in="SourceAlpha" type="matrix" values="0 0 0 0 0 0 0 0 0 0 0 0 0 0 0 0 0 0 127 0" result="hardAlpha"/>
            <feOffset dx="-8" dy="-4"/>
            <feComposite in2="hardAlpha" operator="arithmetic" k2="-1" k3="1"/>
            <feColorMatrix type="matrix" values="0 0 0 0 0.0666667 0 0 0 0 0.0196078 0 0 0 0 0.160784 0 0 0 0.16 0"/>
            <feBlend mode="normal" in2="shape" result="effect1_innerShadow_6229_37734"/>
        </filter>
        <filter id="filter20_i_6229_37734" x="423" y="503" width="32" height="54" filterUnits="userSpaceOnUse" color-interpolation-filters="sRGB">
            <feFlood flood-opacity="0" result="BackgroundImageFix"/>
            <feBlend mode="normal" in="SourceGraphic" in2="BackgroundImageFix" result="shape"/>
            <feColorMatrix in="SourceAlpha" type="matrix" values="0 0 0 0 0 0 0 0 0 0 0 0 0 0 0 0 0 0 127 0" result="hardAlpha"/>
            <feOffset dx="-8" dy="-4"/>
            <feComposite in2="hardAlpha" operator="arithmetic" k2="-1" k3="1"/>
            <feColorMatrix type="matrix" values="0 0 0 0 0.0666667 0 0 0 0 0.0196078 0 0 0 0 0.160784 0 0 0 0.16 0"/>
            <feBlend mode="normal" in2="shape" result="effect1_innerShadow_6229_37734"/>
        </filter>
        <filter id="filter21_i_6229_37734" x="453" y="503" width="146" height="54" filterUnits="userSpaceOnUse" color-interpolation-filters="sRGB">
            <feFlood flood-opacity="0" result="BackgroundImageFix"/>
            <feBlend mode="normal" in="SourceGraphic" in2="BackgroundImageFix" result="shape"/>
            <feColorMatrix in="SourceAlpha" type="matrix" values="0 0 0 0 0 0 0 0 0 0 0 0 0 0 0 0 0 0 127 0" result="hardAlpha"/>
            <feOffset dx="-8" dy="-4"/>
            <feComposite in2="hardAlpha" operator="arithmetic" k2="-1" k3="1"/>
            <feColorMatrix type="matrix" values="0 0 0 0 0.0666667 0 0 0 0 0.0196078 0 0 0 0 0.160784 0 0 0 0.16 0"/>
            <feBlend mode="normal" in2="shape" result="effect1_innerShadow_6229_37734"/>
        </filter>
        <filter id="filter22_i_6229_37734" x="597" y="503" width="82" height="54" filterUnits="userSpaceOnUse" color-interpolation-filters="sRGB">
            <feFlood flood-opacity="0" result="BackgroundImageFix"/>
            <feBlend mode="normal" in="SourceGraphic" in2="BackgroundImageFix" result="shape"/>
            <feColorMatrix in="SourceAlpha" type="matrix" values="0 0 0 0 0 0 0 0 0 0 0 0 0 0 0 0 0 0 127 0" result="hardAlpha"/>
            <feOffset dx="-8" dy="-4"/>
            <feComposite in2="hardAlpha" operator="arithmetic" k2="-1" k3="1"/>
            <feColorMatrix type="matrix" values="0 0 0 0 0.0666667 0 0 0 0 0.0196078 0 0 0 0 0.160784 0 0 0 0.16 0"/>
            <feBlend mode="normal" in2="shape" result="effect1_innerShadow_6229_37734"/>
        </filter>
        <filter id="filter23_i_6229_37734" x="677" y="503" width="66" height="54" filterUnits="userSpaceOnUse" color-interpolation-filters="sRGB">
            <feFlood flood-opacity="0" result="BackgroundImageFix"/>
            <feBlend mode="normal" in="SourceGraphic" in2="BackgroundImageFix" result="shape"/>
            <feColorMatrix in="SourceAlpha" type="matrix" values="0 0 0 0 0 0 0 0 0 0 0 0 0 0 0 0 0 0 127 0" result="hardAlpha"/>
            <feOffset dx="-8" dy="-4"/>
            <feComposite in2="hardAlpha" operator="arithmetic" k2="-1" k3="1"/>
            <feColorMatrix type="matrix" values="0 0 0 0 0.0666667 0 0 0 0 0.0196078 0 0 0 0 0.160784 0 0 0 0.16 0"/>
            <feBlend mode="normal" in2="shape" result="effect1_innerShadow_6229_37734"/>
        </filter>
    </defs>
</svg>
