<svg width="960" height="356" viewBox="0 0 960 356" fill="none" xmlns="http://www.w3.org/2000/svg">
    <rect width="960" height="356" fill="white"/>
    <rect x="128" y="56" width="110" height="12" rx="2" fill="#99E099"/>
    <rect x="94" y="56" width="32" height="12" rx="2" fill="#42B842"/>
    <rect x="128" y="80" width="110" height="12" rx="2" fill="#C1ADFF"/>
    <rect x="247" y="80" width="110" height="12" rx="2" fill="#C1ADFF"/>
    <rect x="94" y="80" width="32" height="12" rx="2" fill="#845CFF"/>
    <rect x="128" y="104" width="110" height="12" rx="2" fill="#C1ADFF"/>
    <rect x="247" y="104" width="110" height="12" rx="2" fill="#C1ADFF"/>
    <rect x="94" y="104" width="32" height="12" rx="2" fill="#27C2C2"/>
    <rect x="128" y="128" width="110" height="12" rx="2" fill="#FFCB8F"/>
    <rect x="128" y="128" width="110" height="12" rx="2" fill="#FFCB8F"/>
    <rect x="94" y="128" width="32" height="12" rx="2" fill="#FF9429"/>
    <rect x="109" y="126" width="6" height="16" fill="#F05670" stroke="white" stroke-width="2"/>
    <rect x="247" y="128" width="110" height="12" rx="2" fill="#FFCB8F"/>
    <rect x="128" y="152" width="110" height="12" rx="2" fill="#99E099"/>
    <rect x="247" y="152" width="110" height="12" rx="2" fill="#99E099"/>
    <rect x="94" y="152" width="32" height="12" rx="2" fill="#42B842"/>
    <rect x="128" y="176" width="110" height="12" rx="2" fill="#C1ADFF"/>
    <rect x="94" y="176" width="32" height="12" rx="2" fill="#27C2C2"/>
    <rect x="115" y="174" width="6" height="16" fill="#F05670" stroke="white" stroke-width="2"/>
    <rect x="247" y="176" width="110" height="12" rx="2" fill="#C1ADFF"/>
    <rect x="128" y="200" width="110" height="12" rx="2" fill="#C1ADFF"/>
    <rect x="247" y="200" width="110" height="12" rx="2" fill="#C1ADFF"/>
    <rect x="94" y="200" width="32" height="12" rx="2" fill="#27C2C2"/>
    <rect x="128" y="224" width="110" height="12" rx="2" fill="#FFCB8F"/>
    <rect x="247" y="224" width="110" height="12" rx="2" fill="#FFCB8F"/>
    <rect x="94" y="224" width="32" height="12" rx="2" fill="#E653E6"/>
    <rect x="128" y="248" width="110" height="12" rx="2" fill="#C1ADFF"/>
    <rect x="128" y="248" width="110" height="12" rx="2" fill="#C1ADFF"/>
    <rect x="94" y="248" width="32" height="12" rx="2" fill="#2D93FA"/>
    <rect x="100" y="246" width="6" height="16" fill="#F05670" stroke="white" stroke-width="2"/>
    <rect x="247" y="248" width="110" height="12" rx="2" fill="#C1ADFF"/>
    <rect x="128" y="272" width="110" height="12" rx="2" fill="#FFCB8F"/>
    <rect x="247" y="272" width="110" height="12" rx="2" fill="#FFCB8F"/>
    <rect x="94" y="272" width="32" height="12" rx="2" fill="#FF9429"/>
    <rect x="128" y="296" width="110" height="12" rx="2" fill="#C1ADFF"/>
    <rect x="247" y="296" width="110" height="12" rx="2" fill="#C1ADFF"/>
    <rect x="94" y="296" width="32" height="12" rx="2" fill="#845CFF"/>
    <rect x="128" y="320" width="110" height="12" rx="2" fill="#FFCB8F"/>
    <rect x="247" y="320" width="110" height="12" rx="2" fill="#FFCB8F"/>
    <rect x="94" y="320" width="32" height="12" rx="2" fill="#FF9429"/>
    <path d="M100.742 40.24C99.8515 40.24 99.0648 40.056 98.3821 39.688C97.6995 39.32 97.1635 38.8053 96.7741 38.144C96.3901 37.4773 96.1981 36.696 96.1981 35.8V28.488L97.6381 28.48V35.68C97.6381 36.224 97.7288 36.6987 97.9101 37.104C98.0968 37.504 98.3421 37.8373 98.6461 38.104C98.9501 38.3707 99.2835 38.5707 99.6461 38.704C100.014 38.832 100.379 38.896 100.742 38.896C101.11 38.896 101.478 38.8293 101.846 38.696C102.214 38.5627 102.547 38.3653 102.846 38.104C103.15 37.8373 103.393 37.5013 103.574 37.096C103.755 36.6907 103.846 36.2187 103.846 35.68V28.48H105.286V35.8C105.286 36.6907 105.091 37.4693 104.702 38.136C104.318 38.8027 103.785 39.32 103.102 39.688C102.419 40.056 101.633 40.24 100.742 40.24ZM107.526 40V28.48H108.822L113.174 37.656L117.502 28.48H118.814V39.992H117.462V31.608L113.55 40H112.79L108.878 31.608V40H107.526ZM121.218 40V28.48H122.642V40H121.218Z" fill="#110529"/>
    <path d="M165.245 40V28.48H169.797C169.909 28.48 170.042 28.4853 170.197 28.496C170.352 28.5013 170.501 28.5173 170.645 28.544C171.269 28.64 171.792 28.8533 172.213 29.184C172.64 29.5147 172.96 29.9333 173.173 30.44C173.386 30.9413 173.493 31.4987 173.493 32.112C173.493 33.0027 173.261 33.776 172.797 34.432C172.333 35.0827 171.653 35.4907 170.757 35.656L170.213 35.744H166.669V40H165.245ZM172.101 40L169.829 35.312L171.237 34.88L173.733 40H172.101ZM166.669 34.392H169.749C169.85 34.392 169.965 34.3867 170.093 34.376C170.226 34.3653 170.352 34.3467 170.469 34.32C170.837 34.2347 171.136 34.08 171.365 33.856C171.6 33.6267 171.77 33.36 171.877 33.056C171.984 32.7467 172.037 32.432 172.037 32.112C172.037 31.792 171.984 31.48 171.877 31.176C171.77 30.8667 171.6 30.5973 171.365 30.368C171.136 30.1387 170.837 29.984 170.469 29.904C170.352 29.872 170.226 29.8533 170.093 29.848C169.965 29.8373 169.85 29.832 169.749 29.832H166.669V34.392ZM177.503 40V30.056L175.335 31.368V29.776L177.503 28.48H178.951V40H177.503Z" fill="#110529"/>
    <path d="M296.37 40V28.48H300.922C301.034 28.48 301.167 28.4853 301.322 28.496C301.477 28.5013 301.626 28.5173 301.77 28.544C302.394 28.64 302.917 28.8533 303.338 29.184C303.765 29.5147 304.085 29.9333 304.298 30.44C304.511 30.9413 304.618 31.4987 304.618 32.112C304.618 33.0027 304.386 33.776 303.922 34.432C303.458 35.0827 302.778 35.4907 301.882 35.656L301.338 35.744H297.794V40H296.37ZM303.226 40L300.954 35.312L302.362 34.88L304.858 40H303.226ZM297.794 34.392H300.874C300.975 34.392 301.09 34.3867 301.218 34.376C301.351 34.3653 301.477 34.3467 301.594 34.32C301.962 34.2347 302.261 34.08 302.49 33.856C302.725 33.6267 302.895 33.36 303.002 33.056C303.109 32.7467 303.162 32.432 303.162 32.112C303.162 31.792 303.109 31.48 303.002 31.176C302.895 30.8667 302.725 30.5973 302.49 30.368C302.261 30.1387 301.962 29.984 301.594 29.904C301.477 29.872 301.351 29.8533 301.218 29.848C301.09 29.8373 300.975 29.832 300.874 29.832H297.794V34.392ZM306.3 39.992L306.308 38.712L311.42 34.112C311.847 33.728 312.132 33.3653 312.276 33.024C312.425 32.6773 312.5 32.3227 312.5 31.96C312.5 31.5173 312.399 31.1173 312.196 30.76C311.993 30.4027 311.716 30.12 311.364 29.912C311.017 29.704 310.623 29.6 310.18 29.6C309.721 29.6 309.313 29.7093 308.956 29.928C308.599 30.1413 308.316 30.4267 308.108 30.784C307.905 31.1413 307.807 31.5307 307.812 31.952H306.356C306.356 31.2267 306.524 30.5867 306.86 30.032C307.196 29.472 307.652 29.0347 308.228 28.72C308.809 28.4 309.468 28.24 310.204 28.24C310.919 28.24 311.559 28.4053 312.124 28.736C312.689 29.0613 313.135 29.5067 313.46 30.072C313.791 30.632 313.956 31.2667 313.956 31.976C313.956 32.4773 313.892 32.912 313.764 33.28C313.641 33.648 313.449 33.9893 313.188 34.304C312.927 34.6133 312.599 34.944 312.204 35.296L307.956 39.112L307.772 38.632H313.956V39.992H306.3Z" fill="#110529"/>
    <path d="M495 162L495.707 162.707L496.414 162L495.707 161.293L495 162ZM487.707 153.293L487 152.586L485.586 154L486.293 154.707L487.707 153.293ZM486.293 169.293L485.586 170L487 171.414L487.707 170.707L486.293 169.293ZM464 163H495V161H464V163ZM495.707 161.293L487.707 153.293L486.293 154.707L494.293 162.707L495.707 161.293ZM494.293 161.293L486.293 169.293L487.707 170.707L495.707 162.707L494.293 161.293Z" fill="#110529"/>
    <path d="M433.416 202.24C432.542 202.24 431.798 202.045 431.184 201.656C430.576 201.261 430.112 200.72 429.792 200.032C429.472 199.344 429.307 198.56 429.296 197.68C429.307 196.779 429.475 195.987 429.8 195.304C430.131 194.616 430.603 194.08 431.216 193.696C431.83 193.312 432.568 193.12 433.432 193.12C434.344 193.12 435.128 193.344 435.784 193.792C436.446 194.24 436.888 194.853 437.112 195.632L435.704 196.056C435.523 195.555 435.227 195.165 434.816 194.888C434.411 194.611 433.944 194.472 433.416 194.472C432.824 194.472 432.336 194.611 431.952 194.888C431.568 195.16 431.283 195.539 431.096 196.024C430.91 196.504 430.814 197.056 430.808 197.68C430.819 198.64 431.04 199.416 431.472 200.008C431.91 200.595 432.558 200.888 433.416 200.888C433.982 200.888 434.451 200.76 434.824 200.504C435.198 200.243 435.48 199.867 435.672 199.376L437.112 199.752C436.814 200.557 436.347 201.173 435.712 201.6C435.078 202.027 434.312 202.24 433.416 202.24ZM442.191 202.24C441.332 202.24 440.591 202.045 439.967 201.656C439.348 201.267 438.871 200.728 438.535 200.04C438.199 199.352 438.031 198.563 438.031 197.672C438.031 196.765 438.201 195.971 438.543 195.288C438.884 194.605 439.367 194.075 439.991 193.696C440.615 193.312 441.348 193.12 442.191 193.12C443.055 193.12 443.799 193.315 444.423 193.704C445.047 194.088 445.524 194.624 445.855 195.312C446.191 195.995 446.359 196.781 446.359 197.672C446.359 198.573 446.191 199.368 445.855 200.056C445.519 200.739 445.039 201.275 444.415 201.664C443.791 202.048 443.049 202.24 442.191 202.24ZM442.191 200.888C443.087 200.888 443.753 200.589 444.191 199.992C444.628 199.395 444.847 198.621 444.847 197.672C444.847 196.696 444.625 195.92 444.183 195.344C443.74 194.763 443.076 194.472 442.191 194.472C441.588 194.472 441.092 194.608 440.703 194.88C440.313 195.152 440.023 195.528 439.831 196.008C439.639 196.488 439.543 197.043 439.543 197.672C439.543 198.643 439.767 199.421 440.215 200.008C440.663 200.595 441.321 200.888 442.191 200.888ZM448.12 202V193.36H449.392V195.448L449.184 195.176C449.285 194.909 449.416 194.664 449.576 194.44C449.741 194.216 449.925 194.032 450.128 193.888C450.352 193.707 450.605 193.568 450.888 193.472C451.171 193.376 451.459 193.32 451.752 193.304C452.045 193.283 452.32 193.301 452.576 193.36V194.696C452.277 194.616 451.949 194.595 451.592 194.632C451.235 194.669 450.904 194.8 450.6 195.024C450.323 195.221 450.107 195.461 449.952 195.744C449.803 196.027 449.699 196.333 449.64 196.664C449.581 196.989 449.552 197.323 449.552 197.664V202H448.12ZM454.089 202V193.36H455.361V195.448L455.153 195.176C455.254 194.909 455.385 194.664 455.545 194.44C455.71 194.216 455.894 194.032 456.097 193.888C456.321 193.707 456.574 193.568 456.857 193.472C457.139 193.376 457.427 193.32 457.721 193.304C458.014 193.283 458.289 193.301 458.545 193.36V194.696C458.246 194.616 457.918 194.595 457.561 194.632C457.203 194.669 456.873 194.8 456.569 195.024C456.291 195.221 456.075 195.461 455.921 195.744C455.771 196.027 455.667 196.333 455.609 196.664C455.55 196.989 455.521 197.323 455.521 197.664V202H454.089ZM463.645 202.24C462.797 202.24 462.056 202.053 461.421 201.68C460.792 201.301 460.301 200.776 459.949 200.104C459.597 199.427 459.421 198.637 459.421 197.736C459.421 196.792 459.595 195.976 459.941 195.288C460.288 194.595 460.771 194.061 461.389 193.688C462.013 193.309 462.744 193.12 463.581 193.12C464.451 193.12 465.189 193.32 465.797 193.72C466.411 194.12 466.869 194.691 467.173 195.432C467.483 196.173 467.616 197.056 467.573 198.08H466.133V197.568C466.117 196.507 465.901 195.715 465.485 195.192C465.069 194.664 464.451 194.4 463.629 194.4C462.749 194.4 462.08 194.683 461.621 195.248C461.163 195.813 460.933 196.624 460.933 197.68C460.933 198.699 461.163 199.488 461.621 200.048C462.08 200.608 462.733 200.888 463.581 200.888C464.152 200.888 464.648 200.757 465.069 200.496C465.491 200.235 465.821 199.859 466.061 199.368L467.429 199.84C467.093 200.603 466.587 201.195 465.909 201.616C465.237 202.032 464.483 202.24 463.645 202.24ZM460.453 198.08V196.936H466.837V198.08H460.453ZM472.994 202.24C472.12 202.24 471.376 202.045 470.762 201.656C470.154 201.261 469.69 200.72 469.37 200.032C469.05 199.344 468.885 198.56 468.874 197.68C468.885 196.779 469.053 195.987 469.378 195.304C469.709 194.616 470.181 194.08 470.794 193.696C471.408 193.312 472.146 193.12 473.01 193.12C473.922 193.12 474.706 193.344 475.362 193.792C476.024 194.24 476.466 194.853 476.69 195.632L475.282 196.056C475.101 195.555 474.805 195.165 474.394 194.888C473.989 194.611 473.522 194.472 472.994 194.472C472.402 194.472 471.914 194.611 471.53 194.888C471.146 195.16 470.861 195.539 470.674 196.024C470.488 196.504 470.392 197.056 470.386 197.68C470.397 198.64 470.618 199.416 471.05 200.008C471.488 200.595 472.136 200.888 472.994 200.888C473.56 200.888 474.029 200.76 474.402 200.504C474.776 200.243 475.058 199.867 475.25 199.376L476.69 199.752C476.392 200.557 475.925 201.173 475.29 201.6C474.656 202.027 473.89 202.24 472.994 202.24ZM483.147 202C482.635 202.101 482.128 202.141 481.627 202.12C481.131 202.104 480.688 202.005 480.299 201.824C479.91 201.637 479.614 201.349 479.411 200.96C479.24 200.619 479.147 200.275 479.131 199.928C479.12 199.576 479.115 199.179 479.115 198.736V190.96H480.539V198.672C480.539 199.024 480.542 199.325 480.547 199.576C480.558 199.827 480.614 200.043 480.715 200.224C480.907 200.565 481.211 200.765 481.627 200.824C482.048 200.883 482.555 200.867 483.147 200.776V202ZM477.363 194.536V193.36H483.147V194.536H477.363ZM491.848 202.24C491.208 202.24 490.611 202.147 490.056 201.96C489.502 201.773 489.038 201.48 488.664 201.08C488.376 200.76 488.16 200.408 488.016 200.024C487.878 199.635 487.8 199.224 487.784 198.792C487.784 198.371 487.846 197.96 487.968 197.56C488.091 197.155 488.286 196.795 488.552 196.48C488.691 196.309 488.846 196.165 489.016 196.048C489.192 195.925 489.368 195.821 489.544 195.736C489.176 195.341 488.894 194.971 488.696 194.624C488.504 194.277 488.408 193.859 488.408 193.368C488.408 192.744 488.568 192.181 488.888 191.68C489.214 191.173 489.656 190.803 490.216 190.568C490.488 190.451 490.766 190.371 491.048 190.328C491.336 190.28 491.616 190.256 491.888 190.256C492.347 190.256 492.792 190.32 493.224 190.448C493.656 190.576 494.024 190.784 494.328 191.072C494.531 191.243 494.704 191.44 494.848 191.664C494.992 191.883 495.104 192.112 495.184 192.352L493.792 192.712C493.691 192.44 493.523 192.211 493.288 192.024C493.102 191.864 492.883 191.755 492.632 191.696C492.387 191.637 492.139 191.608 491.888 191.608C491.472 191.608 491.096 191.688 490.76 191.848C490.462 191.992 490.238 192.195 490.088 192.456C489.939 192.712 489.864 193.016 489.864 193.368C489.864 193.672 489.915 193.923 490.016 194.12C490.123 194.312 490.27 194.517 490.456 194.736C490.568 194.853 490.694 194.979 490.832 195.112C490.976 195.24 491.123 195.373 491.272 195.512L494.664 198.664C494.68 198.531 494.691 198.395 494.696 198.256C494.702 198.117 494.704 197.984 494.704 197.856L494.696 196.264H496V198.136C496 198.515 495.987 198.837 495.96 199.104C495.939 199.371 495.902 199.592 495.848 199.768L497.312 201.12L496.384 202.112L495.168 200.96C494.96 201.195 494.712 201.4 494.424 201.576C494.136 201.752 493.848 201.885 493.56 201.976C493.288 202.077 493.008 202.147 492.72 202.184C492.432 202.221 492.142 202.24 491.848 202.24ZM491.88 200.872C492.142 200.872 492.379 200.856 492.592 200.824C492.806 200.792 493.008 200.731 493.2 200.64C493.456 200.517 493.654 200.4 493.792 200.288C493.931 200.176 494.046 200.072 494.136 199.976L490.624 196.76C490.432 196.824 490.251 196.909 490.08 197.016C489.915 197.123 489.771 197.248 489.648 197.392C489.51 197.563 489.406 197.763 489.336 197.992C489.272 198.221 489.24 198.464 489.24 198.72C489.246 198.992 489.291 199.243 489.376 199.472C489.462 199.701 489.582 199.907 489.736 200.088C489.971 200.36 490.288 200.56 490.688 200.688C491.088 200.811 491.486 200.872 491.88 200.872ZM505.087 202.232C504.058 202.232 503.212 202.008 502.551 201.56C501.895 201.107 501.492 200.475 501.343 199.664L502.799 199.432C502.916 199.901 503.186 200.275 503.607 200.552C504.028 200.824 504.551 200.96 505.175 200.96C505.767 200.96 506.231 200.837 506.567 200.592C506.903 200.347 507.071 200.013 507.071 199.592C507.071 199.347 507.015 199.149 506.903 199C506.791 198.845 506.559 198.701 506.207 198.568C505.86 198.435 505.335 198.275 504.631 198.088C503.868 197.885 503.268 197.675 502.831 197.456C502.394 197.237 502.082 196.984 501.895 196.696C501.708 196.408 501.615 196.059 501.615 195.648C501.615 195.141 501.754 194.699 502.031 194.32C502.308 193.936 502.695 193.64 503.191 193.432C503.692 193.224 504.274 193.12 504.935 193.12C505.591 193.12 506.178 193.224 506.695 193.432C507.212 193.64 507.628 193.936 507.943 194.32C508.263 194.699 508.452 195.141 508.511 195.648L507.055 195.912C506.986 195.448 506.762 195.083 506.383 194.816C506.01 194.549 505.527 194.408 504.935 194.392C504.375 194.371 503.919 194.469 503.567 194.688C503.22 194.907 503.047 195.203 503.047 195.576C503.047 195.784 503.111 195.963 503.239 196.112C503.372 196.261 503.615 196.403 503.967 196.536C504.324 196.669 504.842 196.821 505.519 196.992C506.282 197.184 506.882 197.395 507.319 197.624C507.762 197.848 508.076 198.115 508.263 198.424C508.45 198.728 508.543 199.104 508.543 199.552C508.543 200.384 508.236 201.04 507.623 201.52C507.01 201.995 506.164 202.232 505.087 202.232ZM513.988 202.24C513.129 202.24 512.388 202.045 511.764 201.656C511.145 201.267 510.668 200.728 510.332 200.04C509.996 199.352 509.828 198.563 509.828 197.672C509.828 196.765 509.998 195.971 510.34 195.288C510.681 194.605 511.164 194.075 511.788 193.696C512.412 193.312 513.145 193.12 513.988 193.12C514.852 193.12 515.596 193.315 516.22 193.704C516.844 194.088 517.321 194.624 517.652 195.312C517.988 195.995 518.156 196.781 518.156 197.672C518.156 198.573 517.988 199.368 517.652 200.056C517.316 200.739 516.836 201.275 516.212 201.664C515.588 202.048 514.846 202.24 513.988 202.24ZM513.988 200.888C514.884 200.888 515.55 200.589 515.988 199.992C516.425 199.395 516.644 198.621 516.644 197.672C516.644 196.696 516.422 195.92 515.98 195.344C515.537 194.763 514.873 194.472 513.988 194.472C513.385 194.472 512.889 194.608 512.5 194.88C512.11 195.152 511.82 195.528 511.628 196.008C511.436 196.488 511.34 197.043 511.34 197.672C511.34 198.643 511.564 199.421 512.012 200.008C512.46 200.595 513.118 200.888 513.988 200.888ZM519.917 202V193.36H521.189V195.448L520.981 195.176C521.082 194.909 521.213 194.664 521.373 194.44C521.538 194.216 521.722 194.032 521.925 193.888C522.149 193.707 522.402 193.568 522.685 193.472C522.968 193.376 523.256 193.32 523.549 193.304C523.842 193.283 524.117 193.301 524.373 193.36V194.696C524.074 194.616 523.746 194.595 523.389 194.632C523.032 194.669 522.701 194.8 522.397 195.024C522.12 195.221 521.904 195.461 521.749 195.744C521.6 196.027 521.496 196.333 521.437 196.664C521.378 196.989 521.349 197.323 521.349 197.664V202H519.917ZM530.71 202C530.198 202.101 529.691 202.141 529.19 202.12C528.694 202.104 528.251 202.005 527.862 201.824C527.472 201.637 527.176 201.349 526.974 200.96C526.803 200.619 526.71 200.275 526.694 199.928C526.683 199.576 526.678 199.179 526.678 198.736V190.96H528.102V198.672C528.102 199.024 528.104 199.325 528.11 199.576C528.12 199.827 528.176 200.043 528.278 200.224C528.47 200.565 528.774 200.765 529.19 200.824C529.611 200.883 530.118 200.867 530.71 200.776V202ZM524.926 194.536V193.36H530.71V194.536H524.926Z" fill="#110529"/>
    <rect x="247" y="56" width="110" height="12" rx="2" fill="#99E099"/>
    <path d="M236.969 50L237.187 50.4499L238.115 50L237.187 49.5501L236.969 50ZM228.937 45.5501L228.487 45.332L228.051 46.2318L228.501 46.4499L228.937 45.5501ZM228.501 53.5501L228.051 53.7682L228.487 54.668L228.937 54.4499L228.501 53.5501ZM205 50.5H236.969V49.5H205V50.5ZM237.187 49.5501L228.937 45.5501L228.501 46.4499L236.751 50.4499L237.187 49.5501ZM236.751 49.5501L228.501 53.5501L228.937 54.4499L237.187 50.4499L236.751 49.5501Z" fill="#110529"/>
    <path d="M236 50H94" stroke="#110529"/>
    <path d="M248.031 50L247.813 49.5501L246.885 50L247.813 50.4499L248.031 50ZM256.063 54.4499L256.513 54.668L256.949 53.7682L256.499 53.5501L256.063 54.4499ZM256.499 46.4499L256.949 46.2318L256.513 45.332L256.063 45.5501L256.499 46.4499ZM280 49.5H248.031V50.5H280V49.5ZM247.813 50.4499L256.063 54.4499L256.499 53.5501L248.249 49.5501L247.813 50.4499ZM248.249 50.4499L256.499 46.4499L256.063 45.5501L247.813 49.5501L248.249 50.4499Z" fill="#110529"/>
    <path d="M357 50L248 50" stroke="#110529"/>
    <rect x="630" y="56" width="110" height="12" rx="2" fill="#99E099"/>
    <rect x="596" y="56" width="32" height="12" rx="2" fill="#42B842"/>
    <rect x="630" y="80" width="110" height="12" rx="2" fill="#99E099"/>
    <rect x="749" y="80" width="110" height="12" rx="2" fill="#99E099"/>
    <rect x="596" y="80" width="32" height="12" rx="2" fill="#42B842"/>
    <rect x="630" y="104" width="110" height="12" rx="2" fill="#C1ADFF"/>
    <rect x="749" y="104" width="110" height="12" rx="2" fill="#C1ADFF"/>
    <rect x="596" y="104" width="32" height="12" rx="2" fill="#845CFF"/>
    <rect x="630" y="128" width="110" height="12" rx="2" fill="#C1ADFF"/>
    <rect x="749" y="128" width="110" height="12" rx="2" fill="#C1ADFF"/>
    <rect x="596" y="128" width="32" height="12" rx="2" fill="#845CFF"/>
    <rect x="630" y="152" width="110" height="12" rx="2" fill="#C1ADFF"/>
    <rect x="749" y="152" width="110" height="12" rx="2" fill="#C1ADFF"/>
    <rect x="596" y="152" width="32" height="12" rx="2" fill="#27C2C2"/>
    <rect x="630" y="176" width="110" height="12" rx="2" fill="#C1ADFF"/>
    <rect x="596" y="176" width="32" height="12" rx="2" fill="#27C2C2"/>
    <rect x="749" y="176" width="110" height="12" rx="2" fill="#C1ADFF"/>
    <rect x="630" y="200" width="110" height="12" rx="2" fill="#C1ADFF"/>
    <rect x="749" y="200" width="110" height="12" rx="2" fill="#C1ADFF"/>
    <rect x="596" y="200" width="32" height="12" rx="2" fill="#27C2C2"/>
    <rect x="630" y="224" width="110" height="12" rx="2" fill="#FFCB8F"/>
    <rect x="630" y="224" width="110" height="12" rx="2" fill="#FFCB8F"/>
    <rect x="596" y="224" width="32" height="12" rx="2" fill="#FF9429"/>
    <rect x="749" y="224" width="110" height="12" rx="2" fill="#FFCB8F"/>
    <rect x="630" y="248" width="110" height="12" rx="2" fill="#FFCB8F"/>
    <rect x="749" y="248" width="110" height="12" rx="2" fill="#FFCB8F"/>
    <rect x="596" y="248" width="32" height="12" rx="2" fill="#FF9429"/>
    <rect x="630" y="272" width="110" height="12" rx="2" fill="#FFCB8F"/>
    <rect x="749" y="272" width="110" height="12" rx="2" fill="#FFCB8F"/>
    <rect x="596" y="272" width="32" height="12" rx="2" fill="#FF9429"/>
    <rect x="630" y="296" width="110" height="12" rx="2" fill="#C1ADFF"/>
    <rect x="630" y="296" width="110" height="12" rx="2" fill="#C1ADFF"/>
    <rect x="596" y="296" width="32" height="12" rx="2" fill="#2D93FA"/>
    <rect x="749" y="296" width="110" height="12" rx="2" fill="#C1ADFF"/>
    <rect x="630" y="320" width="110" height="12" rx="2" fill="#FFCB8F"/>
    <rect x="749" y="320" width="110" height="12" rx="2" fill="#FFCB8F"/>
    <rect x="596" y="320" width="32" height="12" rx="2" fill="#E653E6"/>
    <path d="M602.742 40.24C601.851 40.24 601.065 40.056 600.382 39.688C599.699 39.32 599.163 38.8053 598.774 38.144C598.39 37.4773 598.198 36.696 598.198 35.8V28.488L599.638 28.48V35.68C599.638 36.224 599.729 36.6987 599.91 37.104C600.097 37.504 600.342 37.8373 600.646 38.104C600.95 38.3707 601.283 38.5707 601.646 38.704C602.014 38.832 602.379 38.896 602.742 38.896C603.11 38.896 603.478 38.8293 603.846 38.696C604.214 38.5627 604.547 38.3653 604.846 38.104C605.15 37.8373 605.393 37.5013 605.574 37.096C605.755 36.6907 605.846 36.2187 605.846 35.68V28.48H607.286V35.8C607.286 36.6907 607.091 37.4693 606.702 38.136C606.318 38.8027 605.785 39.32 605.102 39.688C604.419 40.056 603.633 40.24 602.742 40.24ZM609.526 40V28.48H610.822L615.174 37.656L619.502 28.48H620.814V39.992H619.462V31.608L615.55 40H614.79L610.878 31.608V40H609.526ZM623.218 40V28.48H624.642V40H623.218Z" fill="#110529"/>
    <path d="M667.245 40V28.48H671.797C671.909 28.48 672.042 28.4853 672.197 28.496C672.352 28.5013 672.501 28.5173 672.645 28.544C673.269 28.64 673.792 28.8533 674.213 29.184C674.64 29.5147 674.96 29.9333 675.173 30.44C675.386 30.9413 675.493 31.4987 675.493 32.112C675.493 33.0027 675.261 33.776 674.797 34.432C674.333 35.0827 673.653 35.4907 672.757 35.656L672.213 35.744H668.669V40H667.245ZM674.101 40L671.829 35.312L673.237 34.88L675.733 40H674.101ZM668.669 34.392H671.749C671.85 34.392 671.965 34.3867 672.093 34.376C672.226 34.3653 672.352 34.3467 672.469 34.32C672.837 34.2347 673.136 34.08 673.365 33.856C673.6 33.6267 673.77 33.36 673.877 33.056C673.984 32.7467 674.037 32.432 674.037 32.112C674.037 31.792 673.984 31.48 673.877 31.176C673.77 30.8667 673.6 30.5973 673.365 30.368C673.136 30.1387 672.837 29.984 672.469 29.904C672.352 29.872 672.226 29.8533 672.093 29.848C671.965 29.8373 671.85 29.832 671.749 29.832H668.669V34.392ZM679.503 40V30.056L677.335 31.368V29.776L679.503 28.48H680.951V40H679.503Z" fill="#110529"/>
    <path d="M798.37 40V28.48H802.922C803.034 28.48 803.167 28.4853 803.322 28.496C803.477 28.5013 803.626 28.5173 803.77 28.544C804.394 28.64 804.917 28.8533 805.338 29.184C805.765 29.5147 806.085 29.9333 806.298 30.44C806.511 30.9413 806.618 31.4987 806.618 32.112C806.618 33.0027 806.386 33.776 805.922 34.432C805.458 35.0827 804.778 35.4907 803.882 35.656L803.338 35.744H799.794V40H798.37ZM805.226 40L802.954 35.312L804.362 34.88L806.858 40H805.226ZM799.794 34.392H802.874C802.975 34.392 803.09 34.3867 803.218 34.376C803.351 34.3653 803.477 34.3467 803.594 34.32C803.962 34.2347 804.261 34.08 804.49 33.856C804.725 33.6267 804.895 33.36 805.002 33.056C805.109 32.7467 805.162 32.432 805.162 32.112C805.162 31.792 805.109 31.48 805.002 31.176C804.895 30.8667 804.725 30.5973 804.49 30.368C804.261 30.1387 803.962 29.984 803.594 29.904C803.477 29.872 803.351 29.8533 803.218 29.848C803.09 29.8373 802.975 29.832 802.874 29.832H799.794V34.392ZM808.3 39.992L808.308 38.712L813.42 34.112C813.847 33.728 814.132 33.3653 814.276 33.024C814.425 32.6773 814.5 32.3227 814.5 31.96C814.5 31.5173 814.399 31.1173 814.196 30.76C813.993 30.4027 813.716 30.12 813.364 29.912C813.017 29.704 812.623 29.6 812.18 29.6C811.721 29.6 811.313 29.7093 810.956 29.928C810.599 30.1413 810.316 30.4267 810.108 30.784C809.905 31.1413 809.807 31.5307 809.812 31.952H808.356C808.356 31.2267 808.524 30.5867 808.86 30.032C809.196 29.472 809.652 29.0347 810.228 28.72C810.809 28.4 811.468 28.24 812.204 28.24C812.919 28.24 813.559 28.4053 814.124 28.736C814.689 29.0613 815.135 29.5067 815.46 30.072C815.791 30.632 815.956 31.2667 815.956 31.976C815.956 32.4773 815.892 32.912 815.764 33.28C815.641 33.648 815.449 33.9893 815.188 34.304C814.927 34.6133 814.599 34.944 814.204 35.296L809.956 39.112L809.772 38.632H815.956V39.992H808.3Z" fill="#110529"/>
    <rect x="749" y="56" width="110" height="12" rx="2" fill="#99E099"/>
    <path d="M738.969 50L739.187 50.4499L740.115 50L739.187 49.5501L738.969 50ZM730.937 45.5501L730.487 45.332L730.051 46.2318L730.501 46.4499L730.937 45.5501ZM730.501 53.5501L730.051 53.7682L730.487 54.668L730.937 54.4499L730.501 53.5501ZM707 50.5H738.969V49.5H707V50.5ZM739.187 49.5501L730.937 45.5501L730.501 46.4499L738.751 50.4499L739.187 49.5501ZM738.751 49.5501L730.501 53.5501L730.937 54.4499L739.187 50.4499L738.751 49.5501Z" fill="#110529"/>
    <path d="M738 50H596" stroke="#110529"/>
    <path d="M750.031 50L749.813 49.5501L748.885 50L749.813 50.4499L750.031 50ZM758.063 54.4499L758.513 54.668L758.949 53.7682L758.499 53.5501L758.063 54.4499ZM758.499 46.4499L758.949 46.2318L758.513 45.332L758.063 45.5501L758.499 46.4499ZM782 49.5H750.031V50.5H782V49.5ZM749.813 50.4499L758.063 54.4499L758.499 53.5501L750.249 49.5501L749.813 50.4499ZM750.249 50.4499L758.499 46.4499L758.063 45.5501L749.813 49.5501L750.249 50.4499Z" fill="#110529"/>
    <path d="M859 50L750 50" stroke="#110529"/>
</svg>
