<svg width="960" height="252" viewBox="0 0 960 252" fill="none" xmlns="http://www.w3.org/2000/svg">
    <rect width="960" height="252" fill="#1D1D29"/>
    <g filter="url(#filter0_i_5878_36767)">
        <path d="M436 80H181.6C181.04 80 180.76 80 180.546 80.109C180.358 80.2049 180.205 80.3578 180.109 80.546C180 80.7599 180 81.0399 180 81.6V130.4C180 130.96 180 131.24 180.109 131.454C180.205 131.642 180.358 131.795 180.546 131.891C180.76 132 181.04 132 181.6 132H436L431 125.5L436 119L431 112L436 106L431 99.5L436 93L431 86.5L436 80Z" fill="#99E099"/>
    </g>
    <path d="M436 80H181.6C181.04 80 180.76 80 180.546 80.109C180.358 80.2049 180.205 80.3578 180.109 80.546C180 80.7599 180 81.0399 180 81.6V130.4C180 130.96 180 131.24 180.109 131.454C180.205 131.642 180.358 131.795 180.546 131.891C180.76 132 181.04 132 181.6 132H436L431 125.5L436 119L431 112L436 106L431 99.5L436 93L431 86.5L436 80Z" stroke="#110529" stroke-width="2" stroke-linecap="round"/>
    <path d="M560.453 187.999L561 24" stroke="white" stroke-opacity="0.3" stroke-width="2" stroke-linecap="square" stroke-dasharray="6 6"/>
    <path d="M756 84V24" stroke="white" stroke-opacity="0.3" stroke-width="2" stroke-linecap="square" stroke-dasharray="6 6"/>
    <path d="M144.4 114H146.18V108.68H150.39L152.97 114H155.01L152.23 108.29C153.86 107.61 154.71 106.04 154.71 104.14C154.71 101.85 153.48 100.04 151.15 99.68C150.78 99.62 150.37 99.6 150.09 99.6H144.4V114ZM146.18 106.99V101.29H150.03C150.28 101.29 150.63 101.31 150.93 101.38C152.31 101.69 152.89 102.94 152.89 104.14C152.89 105.34 152.31 106.59 150.93 106.9C150.63 106.97 150.28 106.99 150.03 106.99H146.18ZM159.723 114H161.533V99.6H159.723L157.013 101.22V103.21L159.723 101.57V114Z" fill="white"/>
    <path d="M773.4 114H775.18V108.68H779.39L781.97 114H784.01L781.23 108.29C782.86 107.61 783.71 106.04 783.71 104.14C783.71 101.85 782.48 100.04 780.15 99.68C779.78 99.62 779.37 99.6 779.09 99.6H773.4V114ZM775.18 106.99V101.29H779.03C779.28 101.29 779.63 101.31 779.93 101.38C781.31 101.69 781.89 102.94 781.89 104.14C781.89 105.34 781.31 106.59 779.93 106.9C779.63 106.97 779.28 106.99 779.03 106.99H775.18ZM785.813 113.99H795.383V112.29H788.553L793.193 108.12C794.673 106.81 795.383 105.86 795.383 103.97C795.383 101.32 793.363 99.3 790.692 99.3C787.923 99.3 785.883 101.23 785.883 103.94H787.703C787.683 102.37 788.943 101 790.663 101C792.323 101 793.563 102.29 793.563 103.95C793.563 104.86 793.273 105.69 792.213 106.64L785.823 112.39L785.813 113.99Z" fill="white"/>
    <g filter="url(#filter1_i_5878_36767)">
        <path d="M737 80L754.4 80C754.96 80 755.24 80 755.454 80.109C755.642 80.2049 755.795 80.3578 755.891 80.546C756 80.7599 756 81.0399 756 81.6V130.4C756 130.96 756 131.24 755.891 131.454C755.795 131.642 755.642 131.795 755.454 131.891C755.24 132 754.96 132 754.4 132H737L732 125.5L737 119L732 112L737 106L732 99.5L737 93L732 86.5L737 80Z" fill="#C1ADFF" fill-opacity="0.6"/>
    </g>
    <path d="M737 80L754.4 80C754.96 80 755.24 80 755.454 80.109C755.642 80.2049 755.795 80.3578 755.891 80.546C756 80.7599 756 81.0399 756 81.6V130.4C756 130.96 756 131.24 755.891 131.454C755.795 131.642 755.642 131.795 755.454 131.891C755.24 132 754.96 132 754.4 132H737L732 125.5L737 119L732 112L737 106L732 99.5L737 93L732 86.5L737 80Z" stroke="#110529" stroke-width="2" stroke-linecap="round"/>
    <g filter="url(#filter2_i_5878_36767)">
        <path d="M732 80H717.6C717.04 80 716.76 80 716.546 80.109C716.358 80.2049 716.205 80.3578 716.109 80.546C716 80.7599 716 81.0399 716 81.6V130.4C716 130.96 716 131.24 716.109 131.454C716.205 131.642 716.358 131.795 716.546 131.891C716.76 132 717.04 132 717.6 132H732L727 125.5L732 119L727 112L732 106L727 99.5L732 93L727 86.5L732 80Z" fill="#C1ADFF"/>
    </g>
    <path d="M732 80H717.6C717.04 80 716.76 80 716.546 80.109C716.358 80.2049 716.205 80.3578 716.109 80.546C716 80.7599 716 81.0399 716 81.6V130.4C716 130.96 716 131.24 716.109 131.454C716.205 131.642 716.358 131.795 716.546 131.891C716.76 132 717.04 132 717.6 132H732L727 125.5L732 119L727 112L732 106L727 99.5L732 93L727 86.5L732 80Z" stroke="#110529" stroke-width="2" stroke-linecap="round"/>
    <path d="M564.209 114H566.792L571.813 99H569.896L565.48 112.021L561.126 99H559.188L564.209 114Z" fill="#110529"/>
    <g filter="url(#filter3_i_5878_36767)">
        <path d="M505 80H618.4C618.96 80 619.24 80 619.454 80.109C619.642 80.2049 619.795 80.3578 619.891 80.546C620 80.7599 620 81.0399 620 81.6V130.4C620 130.96 620 131.24 619.891 131.454C619.795 131.642 619.642 131.795 619.454 131.891C619.24 132 618.96 132 618.4 132H505L500 125.5L505 119L500 112L505 106L500 99.5L505 93L500 86.5L505 80Z" fill="#99E099"/>
    </g>
    <path d="M505 80H618.4C618.96 80 619.24 80 619.454 80.109C619.642 80.2049 619.795 80.3578 619.891 80.546C620 80.7599 620 81.0399 620 81.6V130.4C620 130.96 620 131.24 619.891 131.454C619.795 131.642 619.642 131.795 619.454 131.891C619.24 132 618.96 132 618.4 132H505L500 125.5L505 119L500 112L505 106L500 99.5L505 93L500 86.5L505 80Z" stroke="#110529" stroke-width="2" stroke-linecap="round"/>
    <path d="M559.209 114H561.792L566.813 99H564.896L560.48 112.021L556.126 99H554.188L559.209 114Z" fill="#110529"/>
    <path d="M644.682 37.21C647.006 37.21 648.567 35.943 649.162 33.955L647.678 33.556C647.279 34.963 646.278 35.817 644.682 35.817C642.54 35.817 641.448 34.27 641.462 31.96C641.469 29.65 642.54 28.103 644.682 28.103C646.278 28.103 647.279 28.957 647.678 30.364L649.162 29.965C648.567 27.977 647.006 26.71 644.682 26.71C641.658 26.71 639.915 28.845 639.915 31.96C639.915 35.075 641.658 37.21 644.682 37.21ZM650.702 37H653.859C654.041 37 654.643 37 655.112 36.937C657.478 36.636 658.738 34.529 658.738 31.96C658.738 29.391 657.478 27.284 655.112 26.983C654.643 26.92 654.041 26.92 653.859 26.92H650.702V37ZM652.2 35.607V28.313H653.859C654.167 28.313 654.671 28.32 655.007 28.383C656.519 28.663 657.184 30.189 657.184 31.96C657.184 33.689 656.547 35.243 655.007 35.537C654.671 35.6 654.181 35.607 653.859 35.607H652.2ZM660.368 37H661.831V33.381H664.505L666.262 37H667.935L666.031 33.094C667.172 32.597 667.746 31.491 667.746 30.147C667.746 28.516 666.906 27.235 665.219 26.976C664.953 26.934 664.638 26.92 664.442 26.92H660.368V37ZM661.831 31.995V28.299H664.386C664.568 28.299 664.813 28.313 665.023 28.369C665.919 28.579 666.255 29.405 666.255 30.147C666.255 30.889 665.919 31.715 665.023 31.932C664.813 31.981 664.568 31.995 664.386 31.995H661.831ZM672.294 37.189C674.177 37.189 675.661 35.796 675.661 33.871C675.661 32.233 674.653 30.924 673.022 30.707L675.514 28.313V26.92H669.452V28.313H673.722L670.642 31.036L671.328 32.191C671.615 32.037 671.958 31.939 672.28 31.939C673.4 31.939 674.163 32.751 674.163 33.871C674.163 34.984 673.4 35.789 672.294 35.803C671.468 35.81 670.733 35.341 670.467 34.466L669.053 34.858C669.48 36.293 670.796 37.189 672.294 37.189Z" fill="white" fill-opacity="0.3"/>
    <path d="M745 145L745.707 144.293L745 143.586L744.293 144.293L745 145ZM736.293 152.293L735.586 153L737 154.414L737.707 153.707L736.293 152.293ZM752.293 153.707L753 154.414L754.414 153L753.707 152.293L752.293 153.707ZM746 176V145H744V176H746ZM744.293 144.293L736.293 152.293L737.707 153.707L745.707 145.707L744.293 144.293ZM744.293 145.707L752.293 153.707L753.707 152.293L745.707 144.293L744.293 145.707Z" fill="#D3D7E0"/>
    <path d="M706.941 198.3C709.031 198.3 710.821 197.21 711.671 195.3L709.961 194.71C709.361 195.94 708.281 196.61 706.861 196.61C704.871 196.61 703.711 195.34 703.571 193.1H711.851C712.011 189.26 710.111 186.9 706.861 186.9C703.721 186.9 701.661 189.13 701.661 192.67C701.661 196.05 703.751 198.3 706.941 198.3ZM703.601 191.67C703.851 189.62 704.981 188.5 706.921 188.5C708.751 188.5 709.781 189.55 710.001 191.67H703.601ZM712.487 198H714.617L717.657 193.92L720.677 198H722.807L718.667 192.54L722.707 187.2H720.587L717.657 191.16L714.697 187.2H712.577L716.617 192.54L712.487 198ZM730.44 198V196.47C728.96 196.7 727.88 196.64 727.4 195.78C727.14 195.33 727.18 194.73 727.18 193.84V188.67H730.44V187.2H727.18V184.2H725.4V187.2H723.21V188.67H725.4V193.92C725.4 195.04 725.34 195.86 725.77 196.7C726.52 198.17 728.51 198.39 730.44 198ZM736.863 198.3C738.953 198.3 740.743 197.21 741.593 195.3L739.883 194.71C739.283 195.94 738.203 196.61 736.783 196.61C734.793 196.61 733.633 195.34 733.493 193.1H741.773C741.933 189.26 740.033 186.9 736.783 186.9C733.643 186.9 731.583 189.13 731.583 192.67C731.583 196.05 733.673 198.3 736.863 198.3ZM733.523 191.67C733.773 189.62 734.903 188.5 736.843 188.5C738.673 188.5 739.703 189.55 739.923 191.67H733.523ZM751.397 192.59V198H753.197V192.03C753.197 189.98 752.377 186.92 748.897 186.92C747.337 186.92 746.097 187.52 745.297 188.59V187.2H743.697V198H745.497V192.31C745.497 189.81 746.677 188.61 748.467 188.61C750.747 188.61 751.397 190.56 751.397 192.59ZM759.939 198.3C761.399 198.3 762.529 197.73 763.319 196.78V198H764.909V183.6H763.119V188.18C762.349 187.37 761.279 186.9 759.929 186.9C756.929 186.9 755.099 189.35 755.099 192.59C755.099 195.83 756.919 198.3 759.939 198.3ZM756.989 192.59C756.989 190.31 758.009 188.53 760.209 188.53C762.319 188.53 763.319 190.2 763.319 192.59C763.319 194.96 762.339 196.67 760.159 196.67C758.029 196.67 756.989 194.89 756.989 192.59ZM772.391 198.3C774.481 198.3 776.271 197.21 777.121 195.3L775.411 194.71C774.811 195.94 773.731 196.61 772.311 196.61C770.321 196.61 769.161 195.34 769.021 193.1H777.301C777.461 189.26 775.561 186.9 772.311 186.9C769.171 186.9 767.111 189.13 767.111 192.67C767.111 196.05 769.201 198.3 772.391 198.3ZM769.051 191.67C769.301 189.62 770.431 188.5 772.371 188.5C774.201 188.5 775.231 189.55 775.451 191.67H769.051ZM783.767 198.3C785.227 198.3 786.357 197.73 787.147 196.78V198H788.737V183.6H786.947V188.18C786.177 187.37 785.107 186.9 783.757 186.9C780.757 186.9 778.927 189.35 778.927 192.59C778.927 195.83 780.747 198.3 783.767 198.3ZM780.817 192.59C780.817 190.31 781.837 188.53 784.037 188.53C786.147 188.53 787.147 190.2 787.147 192.59C787.147 194.96 786.167 196.67 783.987 196.67C781.857 196.67 780.817 194.89 780.817 192.59ZM699.422 218.29C700.872 218.29 702.132 217.7 702.862 216.43C703.392 215.51 703.332 214.72 703.332 213.48V203.6H701.532V213.48C701.532 214.37 701.532 214.99 701.272 215.51C700.882 216.29 700.062 216.6 699.382 216.6C698.312 216.6 697.402 215.83 697.192 214.85L695.422 215.27C695.932 217.11 697.402 218.29 699.422 218.29ZM711.368 206.61V207.2H709.538V208.67H711.368V218H713.148V208.67H715.988V207.2H713.148V206.33C713.148 205.3 713.658 204.78 714.718 204.78H715.988V203.3H714.618C713.798 203.3 712.788 203.33 712.048 204.14C711.408 204.84 711.368 205.78 711.368 206.61ZM717.584 218H719.374V212.58C719.374 211.3 719.634 210.03 720.684 209.28C721.434 208.73 722.404 208.68 723.154 208.87V207.2C722.194 206.99 720.924 207.19 720.094 207.86C719.734 208.12 719.414 208.49 719.174 208.91V207.2H717.584V218ZM727.763 218.3C729.563 218.3 730.903 217.64 731.763 216.32V218H733.343V211.32C733.343 210.47 733.293 209.68 732.993 209.01C732.373 207.6 730.903 206.9 728.953 206.9C726.513 206.9 725.003 208.05 724.493 209.94L726.183 210.45C726.573 209.13 727.623 208.56 728.933 208.56C730.803 208.56 731.543 209.38 731.593 211.1C729.993 211.32 728.093 211.55 726.743 211.91C725.103 212.39 724.093 213.38 724.093 215.08C724.093 216.82 725.343 218.3 727.763 218.3ZM725.863 215.07C725.863 214.06 726.653 213.57 727.543 213.29C728.593 212.99 730.053 212.82 731.573 212.62C731.563 213.11 731.543 213.8 731.393 214.32C731.133 215.66 729.953 216.81 728.033 216.81C726.493 216.81 725.863 215.96 725.863 215.07ZM740.313 223.1C742.893 223.1 744.593 222.03 745.013 219.73C745.113 219.2 745.143 218.67 745.143 218.07V207.2H743.563V208.41C742.773 207.46 741.643 206.9 740.173 206.9C737.173 206.9 735.343 209.35 735.343 212.59C735.343 215.83 737.163 218.3 740.183 218.3C741.513 218.3 742.583 217.82 743.353 217.01V218.05C743.373 220.25 742.383 221.38 740.323 221.38C739.273 221.38 738.203 220.93 737.673 219.87L736.043 220.73C736.943 222.34 738.613 223.1 740.313 223.1ZM737.233 212.59C737.233 210.31 738.253 208.53 740.453 208.53C742.563 208.53 743.563 210.2 743.563 212.59C743.563 214.96 742.583 216.67 740.403 216.67C738.273 216.67 737.233 214.89 737.233 212.59ZM760.855 211.09L760.845 218H762.625L762.635 210.7C762.635 208.4 761.255 206.92 759.005 206.92C757.585 206.92 756.375 207.59 755.735 208.7C755.155 207.57 754.045 206.92 752.585 206.92C751.295 206.92 750.195 207.47 749.515 208.35V207.2H747.925V218H749.715V211.14C749.715 209.56 750.655 208.51 752.065 208.51C753.475 208.51 754.405 209.52 754.405 211.16L754.395 218H756.165L756.175 211.14C756.175 209.32 757.325 208.51 758.535 208.51C759.895 208.51 760.855 209.48 760.855 211.09ZM769.822 218.3C771.912 218.3 773.702 217.21 774.552 215.3L772.842 214.71C772.242 215.94 771.162 216.61 769.742 216.61C767.752 216.61 766.592 215.34 766.452 213.1H774.732C774.892 209.26 772.992 206.9 769.742 206.9C766.602 206.9 764.542 209.13 764.542 212.67C764.542 216.05 766.632 218.3 769.822 218.3ZM766.482 211.67C766.732 209.62 767.862 208.5 769.802 208.5C771.632 208.5 772.662 209.55 772.882 211.67H766.482ZM784.356 212.59V218H786.156V212.03C786.156 209.98 785.336 206.92 781.856 206.92C780.296 206.92 779.056 207.52 778.256 208.59V207.2H776.656V218H778.456V212.31C778.456 209.81 779.636 208.61 781.426 208.61C783.706 208.61 784.356 210.56 784.356 212.59ZM794.785 218V216.47C793.305 216.7 792.225 216.64 791.745 215.78C791.485 215.33 791.525 214.73 791.525 213.84V208.67H794.785V207.2H791.525V204.2H789.745V207.2H787.555V208.67H789.745V213.92C789.745 215.04 789.685 215.86 790.115 216.7C790.865 218.17 792.855 218.39 794.785 218Z" fill="white"/>
    <g filter="url(#filter4_i_5878_36767)">
        <rect x="620" y="80" width="30" height="52" rx="1" fill="#CBEB67"/>
    </g>
    <rect x="620" y="80" width="30" height="52" rx="1" stroke="#110529" stroke-width="2" stroke-linecap="round"/>
    <g filter="url(#filter5_i_5878_36767)">
        <rect x="686" y="80" width="30" height="52" rx="1" fill="#FAAAFA"/>
    </g>
    <rect x="686" y="80" width="30" height="52" rx="1" stroke="#110529" stroke-width="2" stroke-linecap="round"/>
    <g filter="url(#filter6_i_5878_36767)">
        <rect x="650" y="80" width="36" height="52" rx="1" fill="#FFCB8F"/>
    </g>
    <rect x="650" y="80" width="36" height="52" rx="1" stroke="#110529" stroke-width="2" stroke-linecap="round"/>
    <path d="M629.447 114H631.247V102.74L638.757 114H640.557V99.6H638.757V110.85L631.247 99.6H629.447V114Z" fill="#110529"/>
    <path d="M695.447 114H697.247V102.74L704.757 114H706.557V99.6H704.757V110.85L697.247 99.6H695.447V114Z" fill="#110529"/>
    <path d="M662.593 114H667.033C667.303 114 668.183 114 668.853 113.91C672.183 113.47 673.913 110.48 673.913 106.8C673.913 103.13 672.183 100.13 668.853 99.69C668.173 99.6 667.313 99.6 667.033 99.6H662.593V114ZM664.423 112.3V101.3H667.033C667.513 101.3 668.233 101.32 668.703 101.41C671.033 101.83 672.023 104.08 672.023 106.8C672.023 109.47 671.063 111.76 668.703 112.19C668.233 112.28 667.533 112.3 667.033 112.3H664.423Z" fill="#110529"/>
    <defs>
        <filter id="filter0_i_5878_36767" x="179" y="79" width="259.031" height="54" filterUnits="userSpaceOnUse" color-interpolation-filters="sRGB">
            <feFlood flood-opacity="0" result="BackgroundImageFix"/>
            <feBlend mode="normal" in="SourceGraphic" in2="BackgroundImageFix" result="shape"/>
            <feColorMatrix in="SourceAlpha" type="matrix" values="0 0 0 0 0 0 0 0 0 0 0 0 0 0 0 0 0 0 127 0" result="hardAlpha"/>
            <feOffset dx="-8" dy="-4"/>
            <feComposite in2="hardAlpha" operator="arithmetic" k2="-1" k3="1"/>
            <feColorMatrix type="matrix" values="0 0 0 0 0.0666667 0 0 0 0 0.0196078 0 0 0 0 0.160784 0 0 0 0.16 0"/>
            <feBlend mode="normal" in2="shape" result="effect1_innerShadow_5878_36767"/>
        </filter>
        <filter id="filter1_i_5878_36767" x="730.738" y="79" width="26.2623" height="54" filterUnits="userSpaceOnUse" color-interpolation-filters="sRGB">
            <feFlood flood-opacity="0" result="BackgroundImageFix"/>
            <feBlend mode="normal" in="SourceGraphic" in2="BackgroundImageFix" result="shape"/>
            <feColorMatrix in="SourceAlpha" type="matrix" values="0 0 0 0 0 0 0 0 0 0 0 0 0 0 0 0 0 0 127 0" result="hardAlpha"/>
            <feOffset dx="-8" dy="-4"/>
            <feComposite in2="hardAlpha" operator="arithmetic" k2="-1" k3="1"/>
            <feColorMatrix type="matrix" values="0 0 0 0 0.0666667 0 0 0 0 0.0196078 0 0 0 0 0.160784 0 0 0 0.16 0"/>
            <feBlend mode="normal" in2="shape" result="effect1_innerShadow_5878_36767"/>
        </filter>
        <filter id="filter2_i_5878_36767" x="715" y="79" width="19.0309" height="54" filterUnits="userSpaceOnUse" color-interpolation-filters="sRGB">
            <feFlood flood-opacity="0" result="BackgroundImageFix"/>
            <feBlend mode="normal" in="SourceGraphic" in2="BackgroundImageFix" result="shape"/>
            <feColorMatrix in="SourceAlpha" type="matrix" values="0 0 0 0 0 0 0 0 0 0 0 0 0 0 0 0 0 0 127 0" result="hardAlpha"/>
            <feOffset dx="-8" dy="-4"/>
            <feComposite in2="hardAlpha" operator="arithmetic" k2="-1" k3="1"/>
            <feColorMatrix type="matrix" values="0 0 0 0 0.0666667 0 0 0 0 0.0196078 0 0 0 0 0.160784 0 0 0 0.16 0"/>
            <feBlend mode="normal" in2="shape" result="effect1_innerShadow_5878_36767"/>
        </filter>
        <filter id="filter3_i_5878_36767" x="498.738" y="79" width="122.262" height="54" filterUnits="userSpaceOnUse" color-interpolation-filters="sRGB">
            <feFlood flood-opacity="0" result="BackgroundImageFix"/>
            <feBlend mode="normal" in="SourceGraphic" in2="BackgroundImageFix" result="shape"/>
            <feColorMatrix in="SourceAlpha" type="matrix" values="0 0 0 0 0 0 0 0 0 0 0 0 0 0 0 0 0 0 127 0" result="hardAlpha"/>
            <feOffset dx="-8" dy="-4"/>
            <feComposite in2="hardAlpha" operator="arithmetic" k2="-1" k3="1"/>
            <feColorMatrix type="matrix" values="0 0 0 0 0.0666667 0 0 0 0 0.0196078 0 0 0 0 0.160784 0 0 0 0.16 0"/>
            <feBlend mode="normal" in2="shape" result="effect1_innerShadow_5878_36767"/>
        </filter>
        <filter id="filter4_i_5878_36767" x="619" y="79" width="32" height="54" filterUnits="userSpaceOnUse" color-interpolation-filters="sRGB">
            <feFlood flood-opacity="0" result="BackgroundImageFix"/>
            <feBlend mode="normal" in="SourceGraphic" in2="BackgroundImageFix" result="shape"/>
            <feColorMatrix in="SourceAlpha" type="matrix" values="0 0 0 0 0 0 0 0 0 0 0 0 0 0 0 0 0 0 127 0" result="hardAlpha"/>
            <feOffset dx="-8" dy="-4"/>
            <feComposite in2="hardAlpha" operator="arithmetic" k2="-1" k3="1"/>
            <feColorMatrix type="matrix" values="0 0 0 0 0.0666667 0 0 0 0 0.0196078 0 0 0 0 0.160784 0 0 0 0.16 0"/>
            <feBlend mode="normal" in2="shape" result="effect1_innerShadow_5878_36767"/>
        </filter>
        <filter id="filter5_i_5878_36767" x="685" y="79" width="32" height="54" filterUnits="userSpaceOnUse" color-interpolation-filters="sRGB">
            <feFlood flood-opacity="0" result="BackgroundImageFix"/>
            <feBlend mode="normal" in="SourceGraphic" in2="BackgroundImageFix" result="shape"/>
            <feColorMatrix in="SourceAlpha" type="matrix" values="0 0 0 0 0 0 0 0 0 0 0 0 0 0 0 0 0 0 127 0" result="hardAlpha"/>
            <feOffset dx="-8" dy="-4"/>
            <feComposite in2="hardAlpha" operator="arithmetic" k2="-1" k3="1"/>
            <feColorMatrix type="matrix" values="0 0 0 0 0.0666667 0 0 0 0 0.0196078 0 0 0 0 0.160784 0 0 0 0.16 0"/>
            <feBlend mode="normal" in2="shape" result="effect1_innerShadow_5878_36767"/>
        </filter>
        <filter id="filter6_i_5878_36767" x="649" y="79" width="38" height="54" filterUnits="userSpaceOnUse" color-interpolation-filters="sRGB">
            <feFlood flood-opacity="0" result="BackgroundImageFix"/>
            <feBlend mode="normal" in="SourceGraphic" in2="BackgroundImageFix" result="shape"/>
            <feColorMatrix in="SourceAlpha" type="matrix" values="0 0 0 0 0 0 0 0 0 0 0 0 0 0 0 0 0 0 127 0" result="hardAlpha"/>
            <feOffset dx="-8" dy="-4"/>
            <feComposite in2="hardAlpha" operator="arithmetic" k2="-1" k3="1"/>
            <feColorMatrix type="matrix" values="0 0 0 0 0.0666667 0 0 0 0 0.0196078 0 0 0 0 0.160784 0 0 0 0.16 0"/>
            <feBlend mode="normal" in2="shape" result="effect1_innerShadow_5878_36767"/>
        </filter>
    </defs>
</svg>
