<svg width="960" height="544" viewBox="0 0 960 544" fill="none" xmlns="http://www.w3.org/2000/svg">
<rect width="960" height="544" fill="white"/>
<g filter="url(#filter0_i_4694_30302)">
<rect x="490" y="24" width="200" height="32" rx="2" fill="#FFCB8F"/>
</g>
<rect x="490" y="24" width="200" height="32" rx="2" stroke="#110529" stroke-width="2" stroke-linecap="round"/>
<g filter="url(#filter1_i_4694_30302)">
<rect x="685" y="254" width="200" height="32" rx="2" fill="#FFCB8F"/>
</g>
<rect x="685" y="254" width="200" height="32" rx="2" stroke="#110529" stroke-width="2" stroke-linecap="round"/>
<path d="M843 251H842V252V288V289H843H849H850V288V252V251H849H843Z" fill="#F05670" stroke="white" stroke-width="2"/>
<path d="M749 251H748V252V288V289H749H755H756V288V252V251H755H749Z" fill="#27C2C2" stroke="white" stroke-width="2"/>
<g filter="url(#filter2_i_4694_30302)">
<rect x="295" y="138" width="200" height="32" rx="2" fill="#F0F0F0"/>
</g>
<rect x="295" y="138" width="200" height="32" rx="2" stroke="#110529" stroke-width="2" stroke-linecap="round"/>
<rect x="411" y="135" width="8" height="38" fill="#F05670" stroke="white" stroke-width="2"/>
<g filter="url(#filter3_i_4694_30302)">
<rect x="165" y="254" width="200" height="32" rx="2" fill="#FFCB8F"/>
</g>
<rect x="165" y="254" width="200" height="32" rx="2" stroke="#110529" stroke-width="2" stroke-linecap="round"/>
<rect x="281" y="251" width="8" height="38" fill="#F05670" stroke="white" stroke-width="2"/>
<rect x="204" y="251" width="8" height="38" fill="#95C700" stroke="white" stroke-width="2"/>
<g filter="url(#filter4_i_4694_30302)">
<rect x="75" y="370" width="200" height="32" rx="2" fill="#FFCB8F"/>
</g>
<rect x="75" y="370" width="200" height="32" rx="2" stroke="#110529" stroke-width="2" stroke-linecap="round"/>
<rect x="232" y="367" width="8" height="38" fill="#27C2C2" stroke="white" stroke-width="2"/>
<rect x="191" y="367" width="8" height="38" fill="#F05670" stroke="white" stroke-width="2"/>
<rect x="114" y="367" width="8" height="38" fill="#95C700" stroke="white" stroke-width="2"/>
<g filter="url(#filter5_i_4694_30302)">
<rect x="255" y="486" width="200" height="32" rx="2" fill="#FFCB8F"/>
</g>
<rect x="255" y="486" width="200" height="32" rx="2" stroke="#110529" stroke-width="2" stroke-linecap="round"/>
<rect x="371" y="483" width="8" height="38" fill="#F05670" stroke="white" stroke-width="2"/>
<rect x="314" y="483" width="8" height="38" fill="#845CFF" stroke="white" stroke-width="2"/>
<rect x="400" y="483" width="8" height="38" fill="#2D93FA" stroke="white" stroke-width="2"/>
<rect x="294" y="483" width="8" height="38" fill="#95C700" stroke="white" stroke-width="2"/>
<g filter="url(#filter6_i_4694_30302)">
<rect x="425" y="370" width="200" height="32" rx="2" fill="#FFCB8F"/>
</g>
<rect x="425" y="370" width="200" height="32" rx="2" stroke="#110529" stroke-width="2" stroke-linecap="round"/>
<rect x="541" y="367" width="8" height="38" fill="#F05670" stroke="white" stroke-width="2"/>
<rect x="488" y="367" width="8" height="38" fill="#27C2C2" stroke="white" stroke-width="2"/>
<rect x="564" y="367" width="8" height="38" fill="#845CFF" stroke="white" stroke-width="2"/>
<g filter="url(#filter7_i_4694_30302)">
<rect x="425" y="254" width="200" height="32" rx="2" fill="#FFCB8F"/>
</g>
<rect x="425" y="254" width="200" height="32" rx="2" stroke="#110529" stroke-width="2" stroke-linecap="round"/>
<path d="M565 251H564V252V288V289H565H571H572V288V252V251H571H565Z" fill="#845CFF" stroke="white" stroke-width="2"/>
<path d="M542 251H541V252V288V289H542H548H549V288V252V251H548H542Z" fill="#F05670" stroke="white" stroke-width="2"/>
<path d="M785 244V110C785 98.6863 785 93.0294 781.485 89.5147C777.971 86 772.314 86 761 86H590" stroke="#D3D7E0" stroke-width="2"/>
<path d="M175 358V342C175 330.686 175 325.029 178.515 321.515C182.029 318 187.686 318 199 318H265M355 474V342C355 330.686 355 325.029 351.485 321.515C347.971 318 342.314 318 331 318H265M265 318V298" stroke="#49CC49" stroke-width="2"/>
<path d="M355 474V342C355 330.686 355 325.029 351.485 321.515C347.971 318 342.314 318 331 318H265V298" stroke="#49CC49" stroke-width="2"/>
<path d="M265 242V226C265 214.686 265 209.029 268.515 205.515C272.029 202 277.686 202 289 202H395" stroke="#D3D7E0" stroke-width="2"/>
<path d="M525 358V325.273L-nan -nanL525 325.273M525 358V325.273L-nan -nanL525 325.273M525 325.273V298" stroke="#D3D7E0" stroke-width="2"/>
<path d="M395 124V110C395 98.6863 395 93.0294 398.515 89.5147C402.029 86 407.686 86 419 86H590V66" stroke="#D3D7E0" stroke-width="2"/>
<path d="M525 242V226C525 214.686 525 209.029 521.485 205.515C517.971 202 512.314 202 501 202H395V182" stroke="#D3D7E0" stroke-width="2"/>
<defs>
<filter id="filter0_i_4694_30302" x="489" y="23" width="202" height="34" filterUnits="userSpaceOnUse" color-interpolation-filters="sRGB">
<feFlood flood-opacity="0" result="BackgroundImageFix"/>
<feBlend mode="normal" in="SourceGraphic" in2="BackgroundImageFix" result="shape"/>
<feColorMatrix in="SourceAlpha" type="matrix" values="0 0 0 0 0 0 0 0 0 0 0 0 0 0 0 0 0 0 127 0" result="hardAlpha"/>
<feOffset dx="-8" dy="-4"/>
<feComposite in2="hardAlpha" operator="arithmetic" k2="-1" k3="1"/>
<feColorMatrix type="matrix" values="0 0 0 0 0.0666667 0 0 0 0 0.0196078 0 0 0 0 0.160784 0 0 0 0.16 0"/>
<feBlend mode="normal" in2="shape" result="effect1_innerShadow_4694_30302"/>
</filter>
<filter id="filter1_i_4694_30302" x="684" y="253" width="202" height="34" filterUnits="userSpaceOnUse" color-interpolation-filters="sRGB">
<feFlood flood-opacity="0" result="BackgroundImageFix"/>
<feBlend mode="normal" in="SourceGraphic" in2="BackgroundImageFix" result="shape"/>
<feColorMatrix in="SourceAlpha" type="matrix" values="0 0 0 0 0 0 0 0 0 0 0 0 0 0 0 0 0 0 127 0" result="hardAlpha"/>
<feOffset dx="-8" dy="-4"/>
<feComposite in2="hardAlpha" operator="arithmetic" k2="-1" k3="1"/>
<feColorMatrix type="matrix" values="0 0 0 0 0.0666667 0 0 0 0 0.0196078 0 0 0 0 0.160784 0 0 0 0.16 0"/>
<feBlend mode="normal" in2="shape" result="effect1_innerShadow_4694_30302"/>
</filter>
<filter id="filter2_i_4694_30302" x="294" y="137" width="202" height="34" filterUnits="userSpaceOnUse" color-interpolation-filters="sRGB">
<feFlood flood-opacity="0" result="BackgroundImageFix"/>
<feBlend mode="normal" in="SourceGraphic" in2="BackgroundImageFix" result="shape"/>
<feColorMatrix in="SourceAlpha" type="matrix" values="0 0 0 0 0 0 0 0 0 0 0 0 0 0 0 0 0 0 127 0" result="hardAlpha"/>
<feOffset dx="-8" dy="-4"/>
<feComposite in2="hardAlpha" operator="arithmetic" k2="-1" k3="1"/>
<feColorMatrix type="matrix" values="0 0 0 0 0.0666667 0 0 0 0 0.0196078 0 0 0 0 0.160784 0 0 0 0.16 0"/>
<feBlend mode="normal" in2="shape" result="effect1_innerShadow_4694_30302"/>
</filter>
<filter id="filter3_i_4694_30302" x="164" y="253" width="202" height="34" filterUnits="userSpaceOnUse" color-interpolation-filters="sRGB">
<feFlood flood-opacity="0" result="BackgroundImageFix"/>
<feBlend mode="normal" in="SourceGraphic" in2="BackgroundImageFix" result="shape"/>
<feColorMatrix in="SourceAlpha" type="matrix" values="0 0 0 0 0 0 0 0 0 0 0 0 0 0 0 0 0 0 127 0" result="hardAlpha"/>
<feOffset dx="-8" dy="-4"/>
<feComposite in2="hardAlpha" operator="arithmetic" k2="-1" k3="1"/>
<feColorMatrix type="matrix" values="0 0 0 0 0.0666667 0 0 0 0 0.0196078 0 0 0 0 0.160784 0 0 0 0.16 0"/>
<feBlend mode="normal" in2="shape" result="effect1_innerShadow_4694_30302"/>
</filter>
<filter id="filter4_i_4694_30302" x="74" y="369" width="202" height="34" filterUnits="userSpaceOnUse" color-interpolation-filters="sRGB">
<feFlood flood-opacity="0" result="BackgroundImageFix"/>
<feBlend mode="normal" in="SourceGraphic" in2="BackgroundImageFix" result="shape"/>
<feColorMatrix in="SourceAlpha" type="matrix" values="0 0 0 0 0 0 0 0 0 0 0 0 0 0 0 0 0 0 127 0" result="hardAlpha"/>
<feOffset dx="-8" dy="-4"/>
<feComposite in2="hardAlpha" operator="arithmetic" k2="-1" k3="1"/>
<feColorMatrix type="matrix" values="0 0 0 0 0.0666667 0 0 0 0 0.0196078 0 0 0 0 0.160784 0 0 0 0.16 0"/>
<feBlend mode="normal" in2="shape" result="effect1_innerShadow_4694_30302"/>
</filter>
<filter id="filter5_i_4694_30302" x="254" y="485" width="202" height="34" filterUnits="userSpaceOnUse" color-interpolation-filters="sRGB">
<feFlood flood-opacity="0" result="BackgroundImageFix"/>
<feBlend mode="normal" in="SourceGraphic" in2="BackgroundImageFix" result="shape"/>
<feColorMatrix in="SourceAlpha" type="matrix" values="0 0 0 0 0 0 0 0 0 0 0 0 0 0 0 0 0 0 127 0" result="hardAlpha"/>
<feOffset dx="-8" dy="-4"/>
<feComposite in2="hardAlpha" operator="arithmetic" k2="-1" k3="1"/>
<feColorMatrix type="matrix" values="0 0 0 0 0.0666667 0 0 0 0 0.0196078 0 0 0 0 0.160784 0 0 0 0.16 0"/>
<feBlend mode="normal" in2="shape" result="effect1_innerShadow_4694_30302"/>
</filter>
<filter id="filter6_i_4694_30302" x="424" y="369" width="202" height="34" filterUnits="userSpaceOnUse" color-interpolation-filters="sRGB">
<feFlood flood-opacity="0" result="BackgroundImageFix"/>
<feBlend mode="normal" in="SourceGraphic" in2="BackgroundImageFix" result="shape"/>
<feColorMatrix in="SourceAlpha" type="matrix" values="0 0 0 0 0 0 0 0 0 0 0 0 0 0 0 0 0 0 127 0" result="hardAlpha"/>
<feOffset dx="-8" dy="-4"/>
<feComposite in2="hardAlpha" operator="arithmetic" k2="-1" k3="1"/>
<feColorMatrix type="matrix" values="0 0 0 0 0.0666667 0 0 0 0 0.0196078 0 0 0 0 0.160784 0 0 0 0.16 0"/>
<feBlend mode="normal" in2="shape" result="effect1_innerShadow_4694_30302"/>
</filter>
<filter id="filter7_i_4694_30302" x="424" y="253" width="202" height="34" filterUnits="userSpaceOnUse" color-interpolation-filters="sRGB">
<feFlood flood-opacity="0" result="BackgroundImageFix"/>
<feBlend mode="normal" in="SourceGraphic" in2="BackgroundImageFix" result="shape"/>
<feColorMatrix in="SourceAlpha" type="matrix" values="0 0 0 0 0 0 0 0 0 0 0 0 0 0 0 0 0 0 127 0" result="hardAlpha"/>
<feOffset dx="-8" dy="-4"/>
<feComposite in2="hardAlpha" operator="arithmetic" k2="-1" k3="1"/>
<feColorMatrix type="matrix" values="0 0 0 0 0.0666667 0 0 0 0 0.0196078 0 0 0 0 0.160784 0 0 0 0.16 0"/>
<feBlend mode="normal" in2="shape" result="effect1_innerShadow_4694_30302"/>
</filter>
</defs>
</svg>
