<svg width="960" height="472" viewBox="0 0 960 472" fill="none" xmlns="http://www.w3.org/2000/svg">
<rect width="960" height="472" fill="white"/>
<path d="M700 448V24" stroke="#060E33" stroke-opacity="0.24" stroke-width="2" stroke-dasharray="6 6"/>
<path d="M502 448V24" stroke="#060E33" stroke-opacity="0.24" stroke-width="2" stroke-dasharray="6 6"/>
<path d="M566.863 41.0208C566.696 41.6458 566.404 42.25 566.029 42.7708C565.154 43.9583 563.675 44.5625 562.175 44.5417C560.675 44.5417 559.196 43.9583 558.321 42.7708C557.425 41.5833 557.154 40.0208 557.133 38.5C557.154 36.9583 557.425 35.3958 558.321 34.2292C559.196 33.0417 560.675 32.4375 562.175 32.4583C563.675 32.4583 565.154 33.0417 566.029 34.2292C566.467 34.7917 566.738 35.4583 566.925 36.1458L568.842 35.8333C568.592 34.875 568.175 33.9375 567.508 33.0833C566.258 31.4792 564.279 30.6875 562.175 30.6875C560.05 30.6875 558.092 31.4583 556.842 33.0833C555.613 34.625 555.175 36.5208 555.154 38.5C555.133 40.4167 555.613 42.3542 556.842 43.8958C558.092 45.4792 560.029 46.3125 562.175 46.3125C564.258 46.3125 566.217 45.5417 567.508 43.8958C568.071 43.1875 568.467 42.375 568.717 41.5625L566.863 41.0208ZM583.033 38.5417C583.033 40.5625 582.429 42.6458 581.158 44.0208C579.929 45.375 578.137 45.9792 576.283 45.9792H571.242V30.9792L576.325 31C578.262 31 579.971 31.6458 581.158 32.9792C582.512 34.4375 583.033 36.4583 583.033 38.5417ZM581.075 38.5417C581.096 36.9167 580.721 35.3125 579.762 34.2083C578.867 33.1875 577.679 32.7917 576.304 32.7708L573.158 32.7917V44.1875L576.283 44.2292C577.658 44.2083 578.908 43.75 579.783 42.7708C580.721 41.6875 581.054 40.0625 581.075 38.5417ZM596.796 46L593.859 39.9792C594.505 39.6875 595.067 39.25 595.484 38.7083C596.171 37.875 596.588 36.8125 596.588 35.7292C596.567 34.6042 596.13 33.4583 595.38 32.625C594.859 32 594.15 31.5208 593.38 31.2708C592.88 31.0833 592.359 31 591.817 31H585.421V46H587.275V40.4375H591.817H591.984L594.671 46H596.796ZM587.275 32.7708H591.817C592.546 32.7708 593.338 33.1458 593.859 33.6875C594.38 34.2292 594.65 34.9583 594.671 35.7292C594.692 36.3958 594.442 37.0625 594.025 37.5833C593.463 38.2708 592.609 38.6875 591.817 38.6875H587.275V32.7708ZM607.316 38.0208C606.524 37.2083 605.462 36.75 604.253 36.6667L608.316 32.8333V31H599.482V32.7708H605.795L601.149 37.1667L602.045 38.6458C602.503 38.3958 603.087 38.25 603.587 38.25C604.357 38.25 605.087 38.4792 605.649 38.9792C606.316 39.5833 606.607 40.4792 606.607 41.375C606.607 42.3125 606.316 43.2292 605.566 43.8333C605.045 44.2708 604.337 44.5 603.607 44.5208C602.899 44.5208 602.191 44.2917 601.649 43.8542C601.17 43.5 600.857 42.9792 600.67 42.3958L598.878 42.9167C599.149 43.7917 599.691 44.625 600.42 45.2083C601.337 45.9375 602.482 46.3125 603.628 46.2917C604.753 46.2708 605.92 45.9375 606.816 45.1875C607.92 44.2917 608.482 42.875 608.524 41.375C608.545 40.1458 608.149 38.8958 607.316 38.0208Z" fill="#110529"/>
<path d="M288.973 31V46H290.827V31H288.973ZM301.627 38.25V39.8125H305.377C305.231 40.8958 304.919 41.8958 304.314 42.75C303.419 43.9375 301.939 44.5417 300.439 44.5208C298.939 44.5417 297.46 43.9375 296.585 42.75C295.689 41.6042 295.439 40 295.398 38.5C295.439 36.9792 295.689 35.3958 296.585 34.2292C297.46 33.0625 298.939 32.4583 300.439 32.4583C301.939 32.4583 303.419 33.0625 304.314 34.2292C304.481 34.4583 304.627 34.75 304.773 35L306.481 34.2292C306.294 33.8125 306.044 33.4375 305.773 33.1042C304.502 31.5 302.606 30.6875 300.439 30.6875C298.314 30.6875 296.314 31.4792 295.127 33.1042C293.877 34.6458 293.46 36.5417 293.439 38.5C293.46 40.4167 293.877 42.3542 295.127 43.875C296.314 45.5208 298.335 46.3125 300.439 46.3125C302.523 46.3125 304.46 45.5417 305.773 43.875C306.939 42.4375 307.377 40.6042 307.439 38.7292V38.25H301.627ZM319.589 31V38.7083H311.693V31H309.839V46H311.693V40.4583H319.589V46H321.443V31H319.589ZM328.018 46H330.601L335.622 31H333.705L329.288 44.0208L324.934 31H322.997L328.018 46ZM339.808 31L336.975 32.6875V34.75L339.808 33.0417V46H341.683V31H339.808ZM345.432 39.3542V40.875H351.682V39.3542H345.432ZM357.015 31L354.182 32.6875V34.75L357.015 33.0417V46H358.89V31H357.015ZM363.014 34.7917C362.993 35.625 363.264 36.4583 363.826 37.125C364.035 37.4375 364.326 37.7083 364.618 37.9583C364.16 38.2708 363.764 38.6875 363.472 39.125C362.889 39.875 362.639 40.8333 362.639 41.7083C362.66 42.9792 363.139 44.2917 364.118 45.1458C365.035 45.9583 366.326 46.3125 367.535 46.3125C368.743 46.3125 370.014 45.9792 370.972 45.1458C371.993 44.2917 372.43 43.0208 372.451 41.7083C372.472 40.8333 372.222 39.875 371.618 39.125C371.326 38.6875 370.93 38.2708 370.472 37.9583C370.764 37.7083 371.035 37.4375 371.264 37.125C371.826 36.4583 372.076 35.625 372.076 34.7917C372.076 33.5833 371.597 32.375 370.618 31.6458C369.764 30.9375 368.639 30.6875 367.535 30.6875C366.472 30.6875 365.347 30.9375 364.472 31.6458C363.493 32.3958 363.035 33.5 363.014 34.7917ZM364.972 34.7917C364.993 34.1042 365.201 33.4792 365.68 33.0625C366.16 32.6458 366.847 32.4792 367.535 32.4792C368.243 32.4583 368.93 32.6458 369.41 33.0625C369.889 33.4792 370.118 34.1042 370.097 34.7917C370.097 35.4583 369.889 36.1042 369.41 36.5C368.93 36.9167 368.243 37.1042 367.535 37.1042C366.847 37.1042 366.16 36.9167 365.68 36.5C365.18 36.1042 364.972 35.4583 364.972 34.7917ZM369.701 43.7917C369.16 44.2917 368.347 44.5417 367.535 44.5417C366.743 44.5417 365.93 44.2917 365.389 43.7917C364.826 43.2708 364.597 42.5 364.597 41.7083C364.597 40.9167 364.826 40.1458 365.389 39.625C365.93 39.1042 366.743 38.875 367.535 38.875C368.347 38.875 369.16 39.1042 369.701 39.625C370.243 40.1458 370.493 40.9167 370.493 41.7083C370.493 42.5 370.243 43.2708 369.701 43.7917Z" fill="#110529"/>
<g filter="url(#filter0_i_4694_30651)">
<rect x="140" y="86" width="380" height="32" rx="2" fill="#99E099"/>
</g>
<rect x="140" y="86" width="380" height="32" rx="2" stroke="#110529" stroke-width="2" stroke-linecap="round"/>
<rect x="403" y="83" width="8" height="38" fill="#F05670" stroke="white" stroke-width="2"/>
<g filter="url(#filter1_i_4694_30651)">
<path d="M520 89.2C520 88.0799 520 87.5198 520.218 87.092C520.41 86.7157 520.716 86.4097 521.092 86.218C521.52 86 522.08 86 523.2 86H578.853H640.8C641.92 86 642.48 86 642.908 86.218C643.284 86.4097 643.59 86.7157 643.782 87.092C644 87.5198 644 88.0799 644 89.2V114.8C644 115.92 644 116.48 643.782 116.908C643.59 117.284 643.284 117.59 642.908 117.782C642.48 118 641.92 118 640.8 118H523.2C522.08 118 521.52 118 521.092 117.782C520.716 117.59 520.41 117.284 520.218 116.908C520 116.48 520 115.92 520 114.8V89.2Z" fill="#C1ADFF"/>
</g>
<path d="M520 89.2C520 88.0799 520 87.5198 520.218 87.092C520.41 86.7157 520.716 86.4097 521.092 86.218C521.52 86 522.08 86 523.2 86H578.853H640.8C641.92 86 642.48 86 642.908 86.218C643.284 86.4097 643.59 86.7157 643.782 87.092C644 87.5198 644 88.0799 644 89.2V114.8C644 115.92 644 116.48 643.782 116.908C643.59 117.284 643.284 117.59 642.908 117.782C642.48 118 641.92 118 640.8 118H523.2C522.08 118 521.52 118 521.092 117.782C520.716 117.59 520.41 117.284 520.218 116.908C520 116.48 520 115.92 520 114.8V89.2Z" stroke="#110529" stroke-width="2" stroke-linecap="round"/>
<g filter="url(#filter2_i_4694_30651)">
<rect x="140" y="158" width="380" height="32" rx="2" fill="#99E099"/>
</g>
<rect x="140" y="158" width="380" height="32" rx="2" stroke="#110529" stroke-width="2" stroke-linecap="round"/>
<rect x="403" y="155" width="8" height="38" fill="#F05670" stroke="white" stroke-width="2"/>
<g filter="url(#filter3_i_4694_30651)">
<path d="M520 161.2C520 160.08 520 159.52 520.218 159.092C520.41 158.716 520.716 158.41 521.092 158.218C521.52 158 522.08 158 523.2 158H588.024H612.8C613.92 158 614.48 158 614.908 158.218C615.284 158.41 615.59 158.716 615.782 159.092C616 159.52 616 160.08 616 161.2V186.8C616 187.92 616 188.48 615.782 188.908C615.59 189.284 615.284 189.59 614.908 189.782C614.48 190 613.92 190 612.8 190H523.2C522.08 190 521.52 190 521.092 189.782C520.716 189.59 520.41 189.284 520.218 188.908C520 188.48 520 187.92 520 186.8V161.2Z" fill="#FFCB8F"/>
</g>
<path d="M520 161.2C520 160.08 520 159.52 520.218 159.092C520.41 158.716 520.716 158.41 521.092 158.218C521.52 158 522.08 158 523.2 158H588.024H612.8C613.92 158 614.48 158 614.908 158.218C615.284 158.41 615.59 158.716 615.782 159.092C616 159.52 616 160.08 616 161.2V186.8C616 187.92 616 188.48 615.782 188.908C615.59 189.284 615.284 189.59 614.908 189.782C614.48 190 613.92 190 612.8 190H523.2C522.08 190 521.52 190 521.092 189.782C520.716 189.59 520.41 189.284 520.218 188.908C520 188.48 520 187.92 520 186.8V161.2Z" stroke="#110529" stroke-width="2" stroke-linecap="round"/>
<g filter="url(#filter4_i_4694_30651)">
<rect x="140" y="230" width="380" height="32" rx="2" fill="#99E099"/>
</g>
<rect x="140" y="230" width="380" height="32" rx="2" stroke="#110529" stroke-width="2" stroke-linecap="round"/>
<rect x="326" y="227" width="8" height="38" fill="#845CFF" stroke="white" stroke-width="2"/>
<g filter="url(#filter5_i_4694_30651)">
<path d="M520 233.2C520 232.08 520 231.52 520.218 231.092C520.41 230.716 520.716 230.41 521.092 230.218C521.52 230 522.08 230 523.2 230H570.946H676.8C677.92 230 678.48 230 678.908 230.218C679.284 230.41 679.59 230.716 679.782 231.092C680 231.52 680 232.08 680 233.2V258.8C680 259.92 680 260.48 679.782 260.908C679.59 261.284 679.284 261.59 678.908 261.782C678.48 262 677.92 262 676.8 262H523.2C522.08 262 521.52 262 521.092 261.782C520.716 261.59 520.41 261.284 520.218 260.908C520 260.48 520 259.92 520 258.8V233.2Z" fill="#90E0E0"/>
</g>
<path d="M520 233.2C520 232.08 520 231.52 520.218 231.092C520.41 230.716 520.716 230.41 521.092 230.218C521.52 230 522.08 230 523.2 230H570.946H676.8C677.92 230 678.48 230 678.908 230.218C679.284 230.41 679.59 230.716 679.782 231.092C680 231.52 680 232.08 680 233.2V258.8C680 259.92 680 260.48 679.782 260.908C679.59 261.284 679.284 261.59 678.908 261.782C678.48 262 677.92 262 676.8 262H523.2C522.08 262 521.52 262 521.092 261.782C520.716 261.59 520.41 261.284 520.218 260.908C520 260.48 520 259.92 520 258.8V233.2Z" stroke="#110529" stroke-width="2" stroke-linecap="round"/>
<g filter="url(#filter6_i_4694_30651)">
<rect x="140" y="302" width="380" height="32" rx="2" fill="#99E099"/>
</g>
<rect x="140" y="302" width="380" height="32" rx="2" stroke="#110529" stroke-width="2" stroke-linecap="round"/>
<rect x="326" y="299" width="8" height="38" fill="#845CFF" stroke="white" stroke-width="2"/>
<g filter="url(#filter7_i_4694_30651)">
<path d="M520 305.2C520 304.08 520 303.52 520.218 303.092C520.41 302.716 520.716 302.41 521.092 302.218C521.52 302 522.08 302 523.2 302H567.462H616.8C617.92 302 618.48 302 618.908 302.218C619.284 302.41 619.59 302.716 619.782 303.092C620 303.52 620 304.08 620 305.2V330.8C620 331.92 620 332.48 619.782 332.908C619.59 333.284 619.284 333.59 618.908 333.782C618.48 334 617.92 334 616.8 334H523.2C522.08 334 521.52 334 521.092 333.782C520.716 333.59 520.41 333.284 520.218 332.908C520 332.48 520 331.92 520 330.8V305.2Z" fill="#FAAAFA"/>
</g>
<path d="M520 305.2C520 304.08 520 303.52 520.218 303.092C520.41 302.716 520.716 302.41 521.092 302.218C521.52 302 522.08 302 523.2 302H567.462H616.8C617.92 302 618.48 302 618.908 302.218C619.284 302.41 619.59 302.716 619.782 303.092C620 303.52 620 304.08 620 305.2V330.8C620 331.92 620 332.48 619.782 332.908C619.59 333.284 619.284 333.59 618.908 333.782C618.48 334 617.92 334 616.8 334H523.2C522.08 334 521.52 334 521.092 333.782C520.716 333.59 520.41 333.284 520.218 332.908C520 332.48 520 331.92 520 330.8V305.2Z" stroke="#110529" stroke-width="2" stroke-linecap="round"/>
<g filter="url(#filter8_i_4694_30651)">
<rect x="140" y="374" width="380" height="32" rx="2" fill="#99E099"/>
</g>
<rect x="140" y="374" width="380" height="32" rx="2" stroke="#110529" stroke-width="2" stroke-linecap="round"/>
<rect x="326" y="371" width="8" height="38" fill="#845CFF" stroke="white" stroke-width="2"/>
<g filter="url(#filter9_i_4694_30651)">
<path d="M520 377.2C520 376.08 520 375.52 520.218 375.092C520.41 374.716 520.716 374.41 521.092 374.218C521.52 374 522.08 374 523.2 374H577.747H648.8C649.92 374 650.48 374 650.908 374.218C651.284 374.41 651.59 374.716 651.782 375.092C652 375.52 652 376.08 652 377.2V402.8C652 403.92 652 404.48 651.782 404.908C651.59 405.284 651.284 405.59 650.908 405.782C650.48 406 649.92 406 648.8 406H523.2C522.08 406 521.52 406 521.092 405.782C520.716 405.59 520.41 405.284 520.218 404.908C520 404.48 520 403.92 520 402.8V377.2Z" fill="#CBEB67"/>
</g>
<path d="M520 377.2C520 376.08 520 375.52 520.218 375.092C520.41 374.716 520.716 374.41 521.092 374.218C521.52 374 522.08 374 523.2 374H577.747H648.8C649.92 374 650.48 374 650.908 374.218C651.284 374.41 651.59 374.716 651.782 375.092C652 375.52 652 376.08 652 377.2V402.8C652 403.92 652 404.48 651.782 404.908C651.59 405.284 651.284 405.59 650.908 405.782C650.48 406 649.92 406 648.8 406H523.2C522.08 406 521.52 406 521.092 405.782C520.716 405.59 520.41 405.284 520.218 404.908C520 404.48 520 403.92 520 402.8V377.2Z" stroke="#110529" stroke-width="2" stroke-linecap="round"/>
<g opacity="0.16">
<g filter="url(#filter10_i_4694_30651)">
<rect x="644" y="86" width="164" height="32" rx="2" fill="#929BAD"/>
</g>
<rect x="644" y="86" width="164" height="32" rx="2" stroke="#110529" stroke-width="2" stroke-linecap="round"/>
<g filter="url(#filter11_i_4694_30651)">
<rect x="616" y="158" width="164" height="32" rx="2" fill="#929BAD"/>
</g>
<rect x="616" y="158" width="164" height="32" rx="2" stroke="#110529" stroke-width="2" stroke-linecap="round"/>
<g filter="url(#filter12_i_4694_30651)">
<rect x="680" y="230" width="140" height="32" rx="2" fill="#929BAD"/>
</g>
<rect x="680" y="230" width="140" height="32" rx="2" stroke="#110529" stroke-width="2" stroke-linecap="round"/>
<g filter="url(#filter13_i_4694_30651)">
<rect x="620" y="302" width="148" height="32" rx="2" fill="#929BAD"/>
</g>
<rect x="620" y="302" width="148" height="32" rx="2" stroke="#110529" stroke-width="2" stroke-linecap="round"/>
<g filter="url(#filter14_i_4694_30651)">
<rect x="652" y="374" width="154" height="32" rx="2" fill="#929BAD"/>
</g>
<rect x="652" y="374" width="154" height="32" rx="2" stroke="#110529" stroke-width="2" stroke-linecap="round"/>
</g>
<defs>
<filter id="filter0_i_4694_30651" x="139" y="85" width="382" height="34" filterUnits="userSpaceOnUse" color-interpolation-filters="sRGB">
<feFlood flood-opacity="0" result="BackgroundImageFix"/>
<feBlend mode="normal" in="SourceGraphic" in2="BackgroundImageFix" result="shape"/>
<feColorMatrix in="SourceAlpha" type="matrix" values="0 0 0 0 0 0 0 0 0 0 0 0 0 0 0 0 0 0 127 0" result="hardAlpha"/>
<feOffset dx="-8" dy="-4"/>
<feComposite in2="hardAlpha" operator="arithmetic" k2="-1" k3="1"/>
<feColorMatrix type="matrix" values="0 0 0 0 0.0666667 0 0 0 0 0.0196078 0 0 0 0 0.160784 0 0 0 0.16 0"/>
<feBlend mode="normal" in2="shape" result="effect1_innerShadow_4694_30651"/>
</filter>
<filter id="filter1_i_4694_30651" x="519" y="85" width="126" height="34" filterUnits="userSpaceOnUse" color-interpolation-filters="sRGB">
<feFlood flood-opacity="0" result="BackgroundImageFix"/>
<feBlend mode="normal" in="SourceGraphic" in2="BackgroundImageFix" result="shape"/>
<feColorMatrix in="SourceAlpha" type="matrix" values="0 0 0 0 0 0 0 0 0 0 0 0 0 0 0 0 0 0 127 0" result="hardAlpha"/>
<feOffset dx="-8" dy="-4"/>
<feComposite in2="hardAlpha" operator="arithmetic" k2="-1" k3="1"/>
<feColorMatrix type="matrix" values="0 0 0 0 0.0666667 0 0 0 0 0.0196078 0 0 0 0 0.160784 0 0 0 0.16 0"/>
<feBlend mode="normal" in2="shape" result="effect1_innerShadow_4694_30651"/>
</filter>
<filter id="filter2_i_4694_30651" x="139" y="157" width="382" height="34" filterUnits="userSpaceOnUse" color-interpolation-filters="sRGB">
<feFlood flood-opacity="0" result="BackgroundImageFix"/>
<feBlend mode="normal" in="SourceGraphic" in2="BackgroundImageFix" result="shape"/>
<feColorMatrix in="SourceAlpha" type="matrix" values="0 0 0 0 0 0 0 0 0 0 0 0 0 0 0 0 0 0 127 0" result="hardAlpha"/>
<feOffset dx="-8" dy="-4"/>
<feComposite in2="hardAlpha" operator="arithmetic" k2="-1" k3="1"/>
<feColorMatrix type="matrix" values="0 0 0 0 0.0666667 0 0 0 0 0.0196078 0 0 0 0 0.160784 0 0 0 0.16 0"/>
<feBlend mode="normal" in2="shape" result="effect1_innerShadow_4694_30651"/>
</filter>
<filter id="filter3_i_4694_30651" x="519" y="157" width="98" height="34" filterUnits="userSpaceOnUse" color-interpolation-filters="sRGB">
<feFlood flood-opacity="0" result="BackgroundImageFix"/>
<feBlend mode="normal" in="SourceGraphic" in2="BackgroundImageFix" result="shape"/>
<feColorMatrix in="SourceAlpha" type="matrix" values="0 0 0 0 0 0 0 0 0 0 0 0 0 0 0 0 0 0 127 0" result="hardAlpha"/>
<feOffset dx="-8" dy="-4"/>
<feComposite in2="hardAlpha" operator="arithmetic" k2="-1" k3="1"/>
<feColorMatrix type="matrix" values="0 0 0 0 0.0666667 0 0 0 0 0.0196078 0 0 0 0 0.160784 0 0 0 0.16 0"/>
<feBlend mode="normal" in2="shape" result="effect1_innerShadow_4694_30651"/>
</filter>
<filter id="filter4_i_4694_30651" x="139" y="229" width="382" height="34" filterUnits="userSpaceOnUse" color-interpolation-filters="sRGB">
<feFlood flood-opacity="0" result="BackgroundImageFix"/>
<feBlend mode="normal" in="SourceGraphic" in2="BackgroundImageFix" result="shape"/>
<feColorMatrix in="SourceAlpha" type="matrix" values="0 0 0 0 0 0 0 0 0 0 0 0 0 0 0 0 0 0 127 0" result="hardAlpha"/>
<feOffset dx="-8" dy="-4"/>
<feComposite in2="hardAlpha" operator="arithmetic" k2="-1" k3="1"/>
<feColorMatrix type="matrix" values="0 0 0 0 0.0666667 0 0 0 0 0.0196078 0 0 0 0 0.160784 0 0 0 0.16 0"/>
<feBlend mode="normal" in2="shape" result="effect1_innerShadow_4694_30651"/>
</filter>
<filter id="filter5_i_4694_30651" x="519" y="229" width="162" height="34" filterUnits="userSpaceOnUse" color-interpolation-filters="sRGB">
<feFlood flood-opacity="0" result="BackgroundImageFix"/>
<feBlend mode="normal" in="SourceGraphic" in2="BackgroundImageFix" result="shape"/>
<feColorMatrix in="SourceAlpha" type="matrix" values="0 0 0 0 0 0 0 0 0 0 0 0 0 0 0 0 0 0 127 0" result="hardAlpha"/>
<feOffset dx="-8" dy="-4"/>
<feComposite in2="hardAlpha" operator="arithmetic" k2="-1" k3="1"/>
<feColorMatrix type="matrix" values="0 0 0 0 0.0666667 0 0 0 0 0.0196078 0 0 0 0 0.160784 0 0 0 0.16 0"/>
<feBlend mode="normal" in2="shape" result="effect1_innerShadow_4694_30651"/>
</filter>
<filter id="filter6_i_4694_30651" x="139" y="301" width="382" height="34" filterUnits="userSpaceOnUse" color-interpolation-filters="sRGB">
<feFlood flood-opacity="0" result="BackgroundImageFix"/>
<feBlend mode="normal" in="SourceGraphic" in2="BackgroundImageFix" result="shape"/>
<feColorMatrix in="SourceAlpha" type="matrix" values="0 0 0 0 0 0 0 0 0 0 0 0 0 0 0 0 0 0 127 0" result="hardAlpha"/>
<feOffset dx="-8" dy="-4"/>
<feComposite in2="hardAlpha" operator="arithmetic" k2="-1" k3="1"/>
<feColorMatrix type="matrix" values="0 0 0 0 0.0666667 0 0 0 0 0.0196078 0 0 0 0 0.160784 0 0 0 0.16 0"/>
<feBlend mode="normal" in2="shape" result="effect1_innerShadow_4694_30651"/>
</filter>
<filter id="filter7_i_4694_30651" x="519" y="301" width="102" height="34" filterUnits="userSpaceOnUse" color-interpolation-filters="sRGB">
<feFlood flood-opacity="0" result="BackgroundImageFix"/>
<feBlend mode="normal" in="SourceGraphic" in2="BackgroundImageFix" result="shape"/>
<feColorMatrix in="SourceAlpha" type="matrix" values="0 0 0 0 0 0 0 0 0 0 0 0 0 0 0 0 0 0 127 0" result="hardAlpha"/>
<feOffset dx="-8" dy="-4"/>
<feComposite in2="hardAlpha" operator="arithmetic" k2="-1" k3="1"/>
<feColorMatrix type="matrix" values="0 0 0 0 0.0666667 0 0 0 0 0.0196078 0 0 0 0 0.160784 0 0 0 0.16 0"/>
<feBlend mode="normal" in2="shape" result="effect1_innerShadow_4694_30651"/>
</filter>
<filter id="filter8_i_4694_30651" x="139" y="373" width="382" height="34" filterUnits="userSpaceOnUse" color-interpolation-filters="sRGB">
<feFlood flood-opacity="0" result="BackgroundImageFix"/>
<feBlend mode="normal" in="SourceGraphic" in2="BackgroundImageFix" result="shape"/>
<feColorMatrix in="SourceAlpha" type="matrix" values="0 0 0 0 0 0 0 0 0 0 0 0 0 0 0 0 0 0 127 0" result="hardAlpha"/>
<feOffset dx="-8" dy="-4"/>
<feComposite in2="hardAlpha" operator="arithmetic" k2="-1" k3="1"/>
<feColorMatrix type="matrix" values="0 0 0 0 0.0666667 0 0 0 0 0.0196078 0 0 0 0 0.160784 0 0 0 0.16 0"/>
<feBlend mode="normal" in2="shape" result="effect1_innerShadow_4694_30651"/>
</filter>
<filter id="filter9_i_4694_30651" x="519" y="373" width="134" height="34" filterUnits="userSpaceOnUse" color-interpolation-filters="sRGB">
<feFlood flood-opacity="0" result="BackgroundImageFix"/>
<feBlend mode="normal" in="SourceGraphic" in2="BackgroundImageFix" result="shape"/>
<feColorMatrix in="SourceAlpha" type="matrix" values="0 0 0 0 0 0 0 0 0 0 0 0 0 0 0 0 0 0 127 0" result="hardAlpha"/>
<feOffset dx="-8" dy="-4"/>
<feComposite in2="hardAlpha" operator="arithmetic" k2="-1" k3="1"/>
<feColorMatrix type="matrix" values="0 0 0 0 0.0666667 0 0 0 0 0.0196078 0 0 0 0 0.160784 0 0 0 0.16 0"/>
<feBlend mode="normal" in2="shape" result="effect1_innerShadow_4694_30651"/>
</filter>
<filter id="filter10_i_4694_30651" x="643" y="85" width="166" height="34" filterUnits="userSpaceOnUse" color-interpolation-filters="sRGB">
<feFlood flood-opacity="0" result="BackgroundImageFix"/>
<feBlend mode="normal" in="SourceGraphic" in2="BackgroundImageFix" result="shape"/>
<feColorMatrix in="SourceAlpha" type="matrix" values="0 0 0 0 0 0 0 0 0 0 0 0 0 0 0 0 0 0 127 0" result="hardAlpha"/>
<feOffset dx="-8" dy="-4"/>
<feComposite in2="hardAlpha" operator="arithmetic" k2="-1" k3="1"/>
<feColorMatrix type="matrix" values="0 0 0 0 0.0666667 0 0 0 0 0.0196078 0 0 0 0 0.160784 0 0 0 0.16 0"/>
<feBlend mode="normal" in2="shape" result="effect1_innerShadow_4694_30651"/>
</filter>
<filter id="filter11_i_4694_30651" x="615" y="157" width="166" height="34" filterUnits="userSpaceOnUse" color-interpolation-filters="sRGB">
<feFlood flood-opacity="0" result="BackgroundImageFix"/>
<feBlend mode="normal" in="SourceGraphic" in2="BackgroundImageFix" result="shape"/>
<feColorMatrix in="SourceAlpha" type="matrix" values="0 0 0 0 0 0 0 0 0 0 0 0 0 0 0 0 0 0 127 0" result="hardAlpha"/>
<feOffset dx="-8" dy="-4"/>
<feComposite in2="hardAlpha" operator="arithmetic" k2="-1" k3="1"/>
<feColorMatrix type="matrix" values="0 0 0 0 0.0666667 0 0 0 0 0.0196078 0 0 0 0 0.160784 0 0 0 0.16 0"/>
<feBlend mode="normal" in2="shape" result="effect1_innerShadow_4694_30651"/>
</filter>
<filter id="filter12_i_4694_30651" x="679" y="229" width="142" height="34" filterUnits="userSpaceOnUse" color-interpolation-filters="sRGB">
<feFlood flood-opacity="0" result="BackgroundImageFix"/>
<feBlend mode="normal" in="SourceGraphic" in2="BackgroundImageFix" result="shape"/>
<feColorMatrix in="SourceAlpha" type="matrix" values="0 0 0 0 0 0 0 0 0 0 0 0 0 0 0 0 0 0 127 0" result="hardAlpha"/>
<feOffset dx="-8" dy="-4"/>
<feComposite in2="hardAlpha" operator="arithmetic" k2="-1" k3="1"/>
<feColorMatrix type="matrix" values="0 0 0 0 0.0666667 0 0 0 0 0.0196078 0 0 0 0 0.160784 0 0 0 0.16 0"/>
<feBlend mode="normal" in2="shape" result="effect1_innerShadow_4694_30651"/>
</filter>
<filter id="filter13_i_4694_30651" x="619" y="301" width="150" height="34" filterUnits="userSpaceOnUse" color-interpolation-filters="sRGB">
<feFlood flood-opacity="0" result="BackgroundImageFix"/>
<feBlend mode="normal" in="SourceGraphic" in2="BackgroundImageFix" result="shape"/>
<feColorMatrix in="SourceAlpha" type="matrix" values="0 0 0 0 0 0 0 0 0 0 0 0 0 0 0 0 0 0 127 0" result="hardAlpha"/>
<feOffset dx="-8" dy="-4"/>
<feComposite in2="hardAlpha" operator="arithmetic" k2="-1" k3="1"/>
<feColorMatrix type="matrix" values="0 0 0 0 0.0666667 0 0 0 0 0.0196078 0 0 0 0 0.160784 0 0 0 0.16 0"/>
<feBlend mode="normal" in2="shape" result="effect1_innerShadow_4694_30651"/>
</filter>
<filter id="filter14_i_4694_30651" x="651" y="373" width="156" height="34" filterUnits="userSpaceOnUse" color-interpolation-filters="sRGB">
<feFlood flood-opacity="0" result="BackgroundImageFix"/>
<feBlend mode="normal" in="SourceGraphic" in2="BackgroundImageFix" result="shape"/>
<feColorMatrix in="SourceAlpha" type="matrix" values="0 0 0 0 0 0 0 0 0 0 0 0 0 0 0 0 0 0 127 0" result="hardAlpha"/>
<feOffset dx="-8" dy="-4"/>
<feComposite in2="hardAlpha" operator="arithmetic" k2="-1" k3="1"/>
<feColorMatrix type="matrix" values="0 0 0 0 0.0666667 0 0 0 0 0.0196078 0 0 0 0 0.160784 0 0 0 0.16 0"/>
<feBlend mode="normal" in2="shape" result="effect1_innerShadow_4694_30651"/>
</filter>
</defs>
</svg>
