<svg width="960" height="252" viewBox="0 0 960 252" fill="none" xmlns="http://www.w3.org/2000/svg">
<rect width="960" height="252" fill="#1D1D29"/>
<path d="M96 184L95.2929 184.707L94.5858 184L95.2929 183.293L96 184ZM103.293 175.293L104 174.586L105.414 176L104.707 176.707L103.293 175.293ZM104.707 191.293L105.414 192L104 193.414L103.293 192.707L104.707 191.293ZM106 185L96 185L96 183L106 183L106 185ZM95.2929 183.293L103.293 175.293L104.707 176.707L96.7071 184.707L95.2929 183.293ZM96.7071 183.293L104.707 191.293L103.293 192.707L95.2929 184.707L96.7071 183.293Z" fill="#D3D7E0"/>
<path d="M456 184H106" stroke="#D3D7E0" stroke-width="2"/>
<rect width="74" height="20" transform="translate(456 174)" fill="#1D1D29"/>
<path d="M467.255 186.424C465.935 186.424 464.766 185.048 463.871 185.048C463.319 185.048 463.159 185.616 463.343 186.2H461.991C461.615 184.704 462.271 183.504 463.735 183.504C465.071 183.504 466.239 184.88 467.135 184.88C467.639 184.88 467.855 184.352 467.663 183.704H469.015C469.391 185.2 468.743 186.424 467.255 186.424ZM474.066 190V180.056L471.898 181.368V179.776L474.066 178.48H475.514V190H474.066ZM481.966 190.24C480.182 190.24 478.702 189.056 478.238 187.376L479.606 187.008C479.894 188.144 480.934 188.856 482.006 188.856C483.406 188.856 484.494 187.728 484.494 186.376C484.494 184.984 483.35 183.896 482.006 183.896C480.99 183.896 480.27 184.384 479.854 184.984L478.59 184.504L478.942 178.48H485.126V179.832H480.222L480.014 183.328C480.614 182.848 481.39 182.584 482.166 182.584C484.302 182.584 485.926 184.232 485.926 186.376C485.926 188.504 484.11 190.24 481.966 190.24ZM491.727 190.24C489.487 190.24 487.839 188.592 487.839 186.352V182.128C487.839 179.888 489.487 178.24 491.727 178.24C493.967 178.24 495.615 179.888 495.615 182.128V186.352C495.615 188.592 493.967 190.24 491.727 190.24ZM489.287 186.432C489.287 187.784 490.375 188.872 491.727 188.872C493.079 188.872 494.167 187.784 494.167 186.432V182.04C494.167 180.688 493.079 179.6 491.727 179.6C490.375 179.6 489.287 180.688 489.287 182.04V186.432ZM501.742 190.24C499.502 190.24 497.854 188.592 497.854 186.352V182.128C497.854 179.888 499.502 178.24 501.742 178.24C503.982 178.24 505.63 179.888 505.63 182.128V186.352C505.63 188.592 503.982 190.24 501.742 190.24ZM499.302 186.432C499.302 187.784 500.39 188.872 501.742 188.872C503.094 188.872 504.182 187.784 504.182 186.432V182.04C504.182 180.688 503.094 179.6 501.742 179.6C500.39 179.6 499.302 180.688 499.302 182.04V186.432ZM511.838 190.24C510.67 190.24 509.766 189.784 509.134 189.024V190H507.862V178.48H509.294V182.144C509.91 181.496 510.766 181.12 511.846 181.12C514.246 181.12 515.71 183.08 515.71 185.672C515.71 188.264 514.254 190.24 511.838 190.24ZM509.134 185.672C509.134 187.568 509.918 188.936 511.662 188.936C513.366 188.936 514.198 187.512 514.198 185.672C514.198 183.848 513.382 182.424 511.622 182.424C509.934 182.424 509.134 183.76 509.134 185.672ZM521.432 190.24C520.36 190.24 519.504 189.856 518.888 189.2V193.84H517.456V181.36H518.728V182.328C519.36 181.568 520.264 181.12 521.44 181.12C523.84 181.12 525.304 183.08 525.304 185.672C525.304 188.264 523.848 190.24 521.432 190.24ZM518.728 185.672C518.728 187.568 519.512 188.936 521.256 188.936C522.96 188.936 523.792 187.512 523.792 185.672C523.792 183.848 522.976 182.424 521.216 182.424C519.528 182.424 518.728 183.76 518.728 185.672Z" fill="white"/>
<path d="M880 184H530" stroke="#D3D7E0" stroke-width="2"/>
<path d="M891.62 190V178.48H896.172C896.396 178.48 896.724 178.496 897.02 178.544C898.884 178.832 899.868 180.28 899.868 182.112C899.868 183.632 899.188 184.888 897.884 185.432L900.108 190H898.476L896.412 185.744H893.044V190H891.62ZM893.044 184.392H896.124C896.324 184.392 896.604 184.376 896.844 184.32C897.948 184.072 898.412 183.072 898.412 182.112C898.412 181.152 897.948 180.152 896.844 179.904C896.604 179.848 896.324 179.832 896.124 179.832H893.044V184.392Z" fill="white"/>
<rect x="880" y="172" width="32" height="24" rx="1" stroke="#D3D7E0" stroke-width="2"/>
<path d="M107.62 214V202.48H112.172C112.396 202.48 112.724 202.496 113.02 202.544C114.884 202.832 115.868 204.28 115.868 206.112C115.868 207.632 115.188 208.888 113.884 209.432L116.108 214H114.476L112.412 209.744H109.044V214H107.62ZM109.044 208.392H112.124C112.324 208.392 112.604 208.376 112.844 208.32C113.948 208.072 114.412 207.072 114.412 206.112C114.412 205.152 113.948 204.152 112.844 203.904C112.604 203.848 112.324 203.832 112.124 203.832H109.044V208.392Z" fill="white"/>
<rect x="96" y="196" width="32" height="24" rx="1" stroke="#D3D7E0" stroke-width="2"/>
<path d="M128 207H127V209H128V207ZM130.977 209H131.977V207H130.977V209ZM136.931 207H135.931V209H136.931V207ZM142.885 209H143.885V207H142.885V209ZM148.838 207H147.838V209H148.838V207ZM154.792 209H155.792V207H154.792V209ZM160.746 207H159.746V209H160.746V207ZM166.7 209H167.7V207H166.7V209ZM172.654 207H171.654V209H172.654V207ZM178.608 209H179.608V207H178.608V209ZM184.562 207H183.562V209H184.562V207ZM190.515 209H191.515V207H190.515V209ZM196.469 207H195.469V209H196.469V207ZM202.423 209H203.423V207H202.423V209ZM208.377 207H207.377V209H208.377V207ZM214.331 209H215.331V207H214.331V209ZM220.285 207H219.285V209H220.285V207ZM226.238 209H227.238V207H226.238V209ZM232.192 207H231.192V209H232.192V207ZM238.146 209H239.146V207H238.146V209ZM244.1 207H243.1V209H244.1V207ZM250.054 209H251.054V207H250.054V209ZM256.008 207H255.008V209H256.008V207ZM261.962 209H262.962V207H261.962V209ZM267.915 207H266.915V209H267.915V207ZM273.869 209H274.869V207H273.869V209ZM279.823 207H278.823V209H279.823V207ZM285.777 209H286.777V207H285.777V209ZM291.731 207H290.731V209H291.731V207ZM297.685 209H298.685V207H297.685V209ZM303.638 207H302.638V209H303.638V207ZM309.592 209H310.592V207H309.592V209ZM315.546 207H314.546V209H315.546V207ZM321.5 209H322.5V207H321.5V209ZM327.454 207H326.454V209H327.454V207ZM333.408 209H334.408V207H333.408V209ZM339.361 207H338.361V209H339.361V207ZM345.315 209H346.315V207H345.315V209ZM351.269 207H350.269V209H351.269V207ZM357.223 209H358.223V207H357.223V209ZM363.177 207H362.177V209H363.177V207ZM369.131 209H370.131V207H369.131V209ZM375.085 207H374.085V209H375.085V207ZM381.038 209H382.038V207H381.038V209ZM386.992 207H385.992V209H386.992V207ZM392.946 209H393.946V207H392.946V209ZM398.9 207H397.9V209H398.9V207ZM404.854 209H405.854V207H404.854V209ZM410.808 207H409.808V209H410.808V207ZM416.761 209H417.761V207H416.761V209ZM422.715 207H421.715V209H422.715V207ZM428.669 209H429.669V207H428.669V209ZM434.623 207H433.623V209H434.623V207ZM440.577 209H441.577V207H440.577V209ZM446.531 207H445.531V209H446.531V207ZM452.485 209H453.485V207H452.485V209ZM458.438 207H457.438V209H458.438V207ZM464.392 209H465.392V207H464.392V209ZM470.346 207H469.346V209H470.346V207ZM476.3 209H477.3V207H476.3V209ZM482.254 207H481.254V209H482.254V207ZM488.208 209H489.208V207H488.208V209ZM494.162 207H493.162V209H494.162V207ZM500.116 209H501.116V207H500.116V209ZM506.069 207H505.069V209H506.069V207ZM512.023 209H513.023V207H512.023V209ZM517.977 207H516.977V209H517.977V207ZM523.931 209H524.931V207H523.931V209ZM529.885 207H528.885V209H529.885V207ZM535.839 209H536.839V207H535.839V209ZM541.793 207H540.793V209H541.793V207ZM547.746 209H548.746V207H547.746V209ZM553.7 207H552.7V209H553.7V207ZM559.654 209H560.654V207H559.654V209ZM565.608 207H564.608V209H565.608V207ZM571.562 209H572.562V207H571.562V209ZM577.516 207H576.516V209H577.516V207ZM583.47 209H584.47V207H583.47V209ZM589.423 207H588.423V209H589.423V207ZM595.377 209H596.377V207H595.377V209ZM601.331 207H600.331V209H601.331V207ZM607.285 209H608.285V207H607.285V209ZM613.239 207H612.239V209H613.239V207ZM619.193 209H620.193V207H619.193V209ZM625.146 207H624.146V209H625.146V207ZM631.1 209H632.1V207H631.1V209ZM637.054 207H636.054V209H637.054V207ZM643.008 209H644.008V207H643.008V209ZM648.962 207H647.962V209H648.962V207ZM654.916 209H655.916V207H654.916V209ZM660.87 207H659.87V209H660.87V207ZM666.823 209H667.823V207H666.823V209ZM672.777 207H671.777V209H672.777V207ZM678.731 209H679.731V207H678.731V209ZM684.685 207H683.685V209H684.685V207ZM690.639 209H691.639V207H690.639V209ZM696.593 207H695.593V209H696.593V207ZM702.547 209H703.547V207H702.547V209ZM708.5 207H707.5V209H708.5V207ZM714.454 209H715.454V207H714.454V209ZM720.408 207H719.408V209H720.408V207ZM726.362 209H727.362V207H726.362V209ZM732.316 207H731.316V209H732.316V207ZM738.27 209H739.27V207H738.27V209ZM744.224 207H743.224V209H744.224V207ZM750.177 209H751.177V207H750.177V209ZM756.131 207H755.131V209H756.131V207ZM762.085 209H763.085V207H762.085V209ZM768.039 207H767.039V209H768.039V207ZM773.993 209H774.993V207H773.993V209ZM779.947 207H778.947V209H779.947V207ZM785.901 209H786.901V207H785.901V209ZM791.854 207H790.854V209H791.854V207ZM797.808 209H798.808V207H797.808V209ZM803.762 207H802.762V209H803.762V207ZM809.716 209H810.716V207H809.716V209ZM815.67 207H814.67V209H815.67V207ZM821.624 209H822.624V207H821.624V209ZM827.578 207H826.578V209H827.578V207ZM833.531 209H834.531V207H833.531V209ZM839.485 207H838.485V209H839.485V207ZM845.439 209H846.439V207H845.439V209ZM851.393 207H850.393V209H851.393V207ZM857.347 209H858.347V207H857.347V209ZM863.301 207H862.301V209H863.301V207ZM869.255 209H870.255V207H869.255V209ZM875.208 207H874.208V209H875.208V207ZM881.162 209H882.162V207H881.162V209ZM887.116 207H886.116V209H887.116V207ZM893.07 209H894.07V207H893.07V209ZM899.024 207H898.024V209H899.024V207ZM128 209H130.977V207H128V209ZM136.931 209H142.885V207H136.931V209ZM148.838 209H154.792V207H148.838V209ZM160.746 209H166.7V207H160.746V209ZM172.654 209H178.608V207H172.654V209ZM184.562 209H190.515V207H184.562V209ZM196.469 209H202.423V207H196.469V209ZM208.377 209H214.331V207H208.377V209ZM220.285 209H226.238V207H220.285V209ZM232.192 209H238.146V207H232.192V209ZM244.1 209H250.054V207H244.1V209ZM256.008 209H261.962V207H256.008V209ZM267.915 209H273.869V207H267.915V209ZM279.823 209H285.777V207H279.823V209ZM291.731 209H297.685V207H291.731V209ZM303.638 209H309.592V207H303.638V209ZM315.546 209H321.5V207H315.546V209ZM327.454 209H333.408V207H327.454V209ZM339.361 209H345.315V207H339.361V209ZM351.269 209H357.223V207H351.269V209ZM363.177 209H369.131V207H363.177V209ZM375.085 209H381.038V207H375.085V209ZM386.992 209H392.946V207H386.992V209ZM398.9 209H404.854V207H398.9V209ZM410.808 209H416.761V207H410.808V209ZM422.715 209H428.669V207H422.715V209ZM434.623 209H440.577V207H434.623V209ZM446.531 209H452.485V207H446.531V209ZM458.438 209H464.392V207H458.438V209ZM470.346 209H476.3V207H470.346V209ZM482.254 209H488.208V207H482.254V209ZM494.162 209H500.116V207H494.162V209ZM506.069 209H512.023V207H506.069V209ZM517.977 209H523.931V207H517.977V209ZM529.885 209H535.839V207H529.885V209ZM541.793 209H547.746V207H541.793V209ZM553.7 209H559.654V207H553.7V209ZM565.608 209H571.562V207H565.608V209ZM577.516 209H583.47V207H577.516V209ZM589.423 209H595.377V207H589.423V209ZM601.331 209H607.285V207H601.331V209ZM613.239 209H619.193V207H613.239V209ZM625.146 209H631.1V207H625.146V209ZM637.054 209H643.008V207H637.054V209ZM648.962 209H654.916V207H648.962V209ZM660.87 209H666.823V207H660.87V209ZM672.777 209H678.731V207H672.777V209ZM684.685 209H690.639V207H684.685V209ZM696.593 209H702.547V207H696.593V209ZM708.5 209H714.454V207H708.5V209ZM720.408 209H726.362V207H720.408V209ZM732.316 209H738.27V207H732.316V209ZM744.224 209H750.177V207H744.224V209ZM756.131 209H762.085V207H756.131V209ZM768.039 209H773.993V207H768.039V209ZM779.947 209H785.901V207H779.947V209ZM791.854 209H797.808V207H791.854V209ZM803.762 209H809.716V207H803.762V209ZM815.67 209H821.624V207H815.67V209ZM827.578 209H833.531V207H827.578V209ZM839.485 209H845.439V207H839.485V209ZM851.393 209H857.347V207H851.393V209ZM863.301 209H869.255V207H863.301V209ZM875.208 209H881.162V207H875.208V209ZM887.116 209H893.07V207H887.116V209ZM899.024 209H902V207H899.024V209Z" fill="#D3D7E0"/>
<path d="M912 208L912.707 207.293L913.414 208L912.707 208.707L912 208ZM904.707 216.707L904 217.414L902.586 216L903.293 215.293L904.707 216.707ZM903.293 200.707L902.586 200L904 198.586L904.707 199.293L903.293 200.707ZM902 207L912 207L912 209L902 209L902 207ZM912.707 208.707L904.707 216.707L903.293 215.293L911.293 207.293L912.707 208.707ZM911.293 208.707L903.293 200.707L904.707 199.293L912.707 207.293L911.293 208.707Z" fill="#D3D7E0"/>
<path d="M225 112V24" stroke="white" stroke-opacity="0.3" stroke-width="2" stroke-linecap="square" stroke-dasharray="6 6"/>
<path d="M239.268 37.21C238.75 37.21 238.267 37.105 237.819 36.895C237.375 36.6803 236.995 36.3863 236.678 36.013C236.36 35.635 236.134 35.201 235.999 34.711L237.406 34.333C237.485 34.6317 237.62 34.8907 237.812 35.11C238.008 35.3293 238.236 35.4997 238.498 35.621C238.759 35.7377 239.03 35.796 239.31 35.796C239.678 35.796 240.012 35.7073 240.311 35.53C240.614 35.3527 240.852 35.1147 241.025 34.816C241.202 34.5173 241.291 34.1883 241.291 33.829C241.291 33.4603 241.2 33.1267 241.018 32.828C240.84 32.5293 240.6 32.2937 240.297 32.121C239.998 31.9437 239.669 31.855 239.31 31.855C238.899 31.855 238.551 31.9367 238.267 32.1C237.982 32.2633 237.76 32.4523 237.602 32.667L236.328 32.219L236.636 26.92H242.075V28.299H237.385L237.98 27.746L237.735 31.715L237.448 31.344C237.714 31.078 238.031 30.875 238.4 30.735C238.768 30.595 239.135 30.525 239.499 30.525C240.124 30.525 240.682 30.6697 241.172 30.959C241.666 31.2483 242.056 31.6427 242.341 32.142C242.625 32.6367 242.768 33.199 242.768 33.829C242.768 34.4543 242.607 35.0237 242.285 35.537C241.963 36.0457 241.536 36.4517 241.004 36.755C240.472 37.0583 239.893 37.21 239.268 37.21ZM244.581 30.28L244.672 29.629C244.873 29.643 245.029 29.6057 245.141 29.517C245.253 29.4283 245.328 29.3047 245.365 29.146C245.402 28.9873 245.409 28.8077 245.386 28.607H244.581V26.92H246.128V28.747C246.128 29.2977 245.995 29.713 245.729 29.993C245.468 30.273 245.085 30.3687 244.581 30.28ZM252.15 37.21C251.362 37.21 250.664 37.049 250.057 36.727C249.455 36.4003 248.984 35.9453 248.643 35.362C248.303 34.774 248.132 34.0833 248.132 33.29V26.927L249.616 26.92V33.213C249.616 33.6423 249.689 34.0203 249.833 34.347C249.978 34.6737 250.172 34.9467 250.414 35.166C250.657 35.3853 250.928 35.551 251.226 35.663C251.53 35.775 251.838 35.831 252.15 35.831C252.468 35.831 252.776 35.775 253.074 35.663C253.378 35.5463 253.651 35.3783 253.893 35.159C254.136 34.9397 254.327 34.6667 254.467 34.34C254.612 34.0133 254.684 33.6377 254.684 33.213V26.92H256.168V33.29C256.168 34.0787 255.998 34.767 255.657 35.355C255.317 35.943 254.843 36.4003 254.236 36.727C253.634 37.049 252.939 37.21 252.15 37.21ZM260.639 37V28.299H257.286V26.92H265.455V28.299H262.102V37H260.639ZM266.576 37V26.92H270.65C270.748 26.92 270.869 26.9247 271.014 26.934C271.158 26.9387 271.296 26.9527 271.427 26.976C271.987 27.0647 272.453 27.256 272.827 27.55C273.205 27.844 273.487 28.215 273.674 28.663C273.86 29.111 273.954 29.6057 273.954 30.147C273.954 30.9497 273.748 31.6427 273.338 32.226C272.927 32.8047 272.311 33.1663 271.49 33.311L270.895 33.381H268.039V37H266.576ZM272.47 37L270.482 32.898L271.959 32.52L274.143 37H272.47ZM268.039 31.995H270.594C270.687 31.995 270.79 31.9903 270.902 31.981C271.018 31.9717 271.128 31.9553 271.231 31.932C271.529 31.862 271.77 31.7337 271.952 31.547C272.134 31.3557 272.264 31.1363 272.344 30.889C272.423 30.6417 272.463 30.3943 272.463 30.147C272.463 29.8997 272.423 29.6547 272.344 29.412C272.264 29.1647 272.134 28.9477 271.952 28.761C271.77 28.5697 271.529 28.439 271.231 28.369C271.128 28.341 271.018 28.3223 270.902 28.313C270.79 28.3037 270.687 28.299 270.594 28.299H268.039V31.995Z" fill="white" fill-opacity="0.3"/>
<path d="M285 112V24" stroke="white" stroke-opacity="0.3" stroke-width="2" stroke-linecap="square" stroke-dasharray="6 6"/>
<path d="M294.442 37V26.92H295.905V35.621H300.469V37H294.442Z" fill="white" fill-opacity="0.3"/>
<path d="M309 112V24" stroke="white" stroke-opacity="0.3" stroke-width="2" stroke-linecap="square" stroke-dasharray="6 6"/>
<path d="M322.858 37V26.92H328.829V28.383H324.321V31.225H327.989V32.695H324.321V37H322.858ZM330.09 37V26.92H334.164C334.262 26.92 334.384 26.9247 334.528 26.934C334.673 26.9387 334.811 26.9527 334.941 26.976C335.501 27.0647 335.968 27.256 336.341 27.55C336.719 27.844 337.002 28.215 337.188 28.663C337.375 29.111 337.468 29.6057 337.468 30.147C337.468 30.9497 337.263 31.6427 336.852 32.226C336.442 32.8047 335.826 33.1663 335.004 33.311L334.409 33.381H331.553V37H330.09ZM335.984 37L333.996 32.898L335.473 32.52L337.657 37H335.984ZM331.553 31.995H334.108C334.202 31.995 334.304 31.9903 334.416 31.981C334.533 31.9717 334.643 31.9553 334.745 31.932C335.044 31.862 335.284 31.7337 335.466 31.547C335.648 31.3557 335.779 31.1363 335.858 30.889C335.938 30.6417 335.977 30.3943 335.977 30.147C335.977 29.8997 335.938 29.6547 335.858 29.412C335.779 29.1647 335.648 28.9477 335.466 28.761C335.284 28.5697 335.044 28.439 334.745 28.369C334.643 28.341 334.533 28.3223 334.416 28.313C334.304 28.3037 334.202 28.299 334.108 28.299H331.553V31.995ZM340.953 37V28.53L339.056 29.685V28.054L340.953 26.92H342.444V37H340.953Z" fill="white" fill-opacity="0.3"/>
<path d="M357 112V24" stroke="white" stroke-opacity="0.3" stroke-width="2" stroke-linecap="square" stroke-dasharray="6 6"/>
<path d="M368.735 37.21C367.727 37.21 366.868 36.9907 366.159 36.552C365.45 36.1087 364.906 35.4927 364.528 34.704C364.155 33.9153 363.968 33.0007 363.968 31.96C363.968 30.9193 364.155 30.0047 364.528 29.216C364.906 28.4273 365.45 27.8137 366.159 27.375C366.868 26.9317 367.727 26.71 368.735 26.71C369.897 26.71 370.858 27.004 371.619 27.592C372.384 28.18 372.916 28.971 373.215 29.965L371.731 30.364C371.535 29.6593 371.185 29.1063 370.681 28.705C370.182 28.3037 369.533 28.103 368.735 28.103C368.021 28.103 367.426 28.264 366.95 28.586C366.474 28.908 366.115 29.3583 365.872 29.937C365.634 30.5157 365.515 31.19 365.515 31.96C365.51 32.73 365.627 33.4043 365.865 33.983C366.108 34.5617 366.467 35.012 366.943 35.334C367.424 35.656 368.021 35.817 368.735 35.817C369.533 35.817 370.182 35.6163 370.681 35.215C371.185 34.809 371.535 34.256 371.731 33.556L373.215 33.955C372.916 34.949 372.384 35.74 371.619 36.328C370.858 36.916 369.897 37.21 368.735 37.21ZM374.754 37V26.92H377.911C378.005 26.92 378.177 26.9223 378.429 26.927C378.686 26.9317 378.931 26.9503 379.164 26.983C379.953 27.081 380.616 27.3633 381.152 27.83C381.694 28.2967 382.102 28.8893 382.377 29.608C382.653 30.322 382.79 31.106 382.79 31.96C382.79 32.8187 382.653 33.6073 382.377 34.326C382.102 35.04 381.694 35.6303 381.152 36.097C380.616 36.559 379.953 36.839 379.164 36.937C378.931 36.9697 378.686 36.9883 378.429 36.993C378.177 36.9977 378.005 37 377.911 37H374.754ZM376.252 35.607H377.911C378.07 35.607 378.259 35.6023 378.478 35.593C378.698 35.5837 378.891 35.565 379.059 35.537C379.573 35.439 379.988 35.2173 380.305 34.872C380.627 34.522 380.863 34.0927 381.012 33.584C381.162 33.0753 381.236 32.534 381.236 31.96C381.236 31.3673 381.159 30.819 381.005 30.315C380.851 29.8063 380.613 29.3817 380.291 29.041C379.974 28.6957 379.563 28.4763 379.059 28.383C378.891 28.3503 378.695 28.3317 378.471 28.327C378.252 28.3177 378.065 28.313 377.911 28.313H376.252V35.607ZM384.42 37V26.92H388.494C388.592 26.92 388.714 26.9247 388.858 26.934C389.003 26.9387 389.141 26.9527 389.271 26.976C389.831 27.0647 390.298 27.256 390.671 27.55C391.049 27.844 391.332 28.215 391.518 28.663C391.705 29.111 391.798 29.6057 391.798 30.147C391.798 30.9497 391.593 31.6427 391.182 32.226C390.772 32.8047 390.156 33.1663 389.334 33.311L388.739 33.381H385.883V37H384.42ZM390.314 37L388.326 32.898L389.803 32.52L391.987 37H390.314ZM385.883 31.995H388.438C388.532 31.995 388.634 31.9903 388.746 31.981C388.863 31.9717 388.973 31.9553 389.075 31.932C389.374 31.862 389.614 31.7337 389.796 31.547C389.978 31.3557 390.109 31.1363 390.188 30.889C390.268 30.6417 390.307 30.3943 390.307 30.147C390.307 29.8997 390.268 29.6547 390.188 29.412C390.109 29.1647 389.978 28.9477 389.796 28.761C389.614 28.5697 389.374 28.439 389.075 28.369C388.973 28.341 388.863 28.3223 388.746 28.313C388.634 28.3037 388.532 28.299 388.438 28.299H385.883V31.995ZM395.283 37V28.53L393.386 29.685V28.054L395.283 26.92H396.774V37H395.283Z" fill="white" fill-opacity="0.3"/>
<path d="M405 112V24" stroke="white" stroke-opacity="0.3" stroke-width="2" stroke-linecap="square" stroke-dasharray="6 6"/>
<path d="M417.703 37V26.92H423.674V28.383H419.166V31.225H422.834V32.695H419.166V37H417.703ZM424.935 37V26.92H429.009C429.107 26.92 429.228 26.9247 429.373 26.934C429.518 26.9387 429.655 26.9527 429.786 26.976C430.346 27.0647 430.813 27.256 431.186 27.55C431.564 27.844 431.846 28.215 432.033 28.663C432.22 29.111 432.313 29.6057 432.313 30.147C432.313 30.9497 432.108 31.6427 431.697 32.226C431.286 32.8047 430.67 33.1663 429.849 33.311L429.254 33.381H426.398V37H424.935ZM430.829 37L428.841 32.898L430.318 32.52L432.502 37H430.829ZM426.398 31.995H428.953C429.046 31.995 429.149 31.9903 429.261 31.981C429.378 31.9717 429.487 31.9553 429.59 31.932C429.889 31.862 430.129 31.7337 430.311 31.547C430.493 31.3557 430.624 31.1363 430.703 30.889C430.782 30.6417 430.822 30.3943 430.822 30.147C430.822 29.8997 430.782 29.6547 430.703 29.412C430.624 29.1647 430.493 28.9477 430.311 28.761C430.129 28.5697 429.889 28.439 429.59 28.369C429.487 28.341 429.378 28.3223 429.261 28.313C429.149 28.3037 429.046 28.299 428.953 28.299H426.398V31.995ZM433.761 36.993L433.768 35.691L438.157 31.757C438.511 31.4443 438.752 31.1457 438.878 30.861C439.008 30.5763 439.074 30.2917 439.074 30.007C439.074 29.6477 438.994 29.3257 438.836 29.041C438.677 28.7517 438.458 28.523 438.178 28.355C437.898 28.187 437.576 28.103 437.212 28.103C436.838 28.103 436.505 28.1917 436.211 28.369C435.921 28.5417 435.695 28.7727 435.532 29.062C435.368 29.3513 435.289 29.664 435.294 30H433.796C433.796 29.3467 433.943 28.775 434.237 28.285C434.535 27.7903 434.944 27.4053 435.462 27.13C435.98 26.85 436.572 26.71 437.24 26.71C437.874 26.71 438.444 26.8547 438.948 27.144C439.452 27.4287 439.848 27.8207 440.138 28.32C440.432 28.8193 440.579 29.3887 440.579 30.028C440.579 30.49 440.518 30.882 440.397 31.204C440.275 31.526 440.093 31.8247 439.851 32.1C439.608 32.3753 439.305 32.674 438.941 32.996L435.553 36.02L435.392 35.6H440.579V36.993H433.761Z" fill="white" fill-opacity="0.3"/>
<path d="M453 112V24" stroke="white" stroke-opacity="0.3" stroke-width="2" stroke-linecap="square" stroke-dasharray="6 6"/>
<path d="M463.58 37.21C462.572 37.21 461.713 36.9907 461.004 36.552C460.294 36.1087 459.751 35.4927 459.373 34.704C458.999 33.9153 458.813 33.0007 458.813 31.96C458.813 30.9193 458.999 30.0047 459.373 29.216C459.751 28.4273 460.294 27.8137 461.004 27.375C461.713 26.9317 462.572 26.71 463.58 26.71C464.742 26.71 465.703 27.004 466.464 27.592C467.229 28.18 467.761 28.971 468.06 29.965L466.576 30.364C466.38 29.6593 466.03 29.1063 465.526 28.705C465.026 28.3037 464.378 28.103 463.58 28.103C462.866 28.103 462.271 28.264 461.795 28.586C461.319 28.908 460.959 29.3583 460.717 29.937C460.479 30.5157 460.36 31.19 460.36 31.96C460.355 32.73 460.472 33.4043 460.71 33.983C460.952 34.5617 461.312 35.012 461.788 35.334C462.268 35.656 462.866 35.817 463.58 35.817C464.378 35.817 465.026 35.6163 465.526 35.215C466.03 34.809 466.38 34.256 466.576 33.556L468.06 33.955C467.761 34.949 467.229 35.74 466.464 36.328C465.703 36.916 464.742 37.21 463.58 37.21ZM469.599 37V26.92H472.756C472.849 26.92 473.022 26.9223 473.274 26.927C473.531 26.9317 473.776 26.9503 474.009 26.983C474.798 27.081 475.46 27.3633 475.997 27.83C476.538 28.2967 476.947 28.8893 477.222 29.608C477.497 30.322 477.635 31.106 477.635 31.96C477.635 32.8187 477.497 33.6073 477.222 34.326C476.947 35.04 476.538 35.6303 475.997 36.097C475.46 36.559 474.798 36.839 474.009 36.937C473.776 36.9697 473.531 36.9883 473.274 36.993C473.022 36.9977 472.849 37 472.756 37H469.599ZM471.097 35.607H472.756C472.915 35.607 473.104 35.6023 473.323 35.593C473.542 35.5837 473.736 35.565 473.904 35.537C474.417 35.439 474.833 35.2173 475.15 34.872C475.472 34.522 475.708 34.0927 475.857 33.584C476.006 33.0753 476.081 32.534 476.081 31.96C476.081 31.3673 476.004 30.819 475.85 30.315C475.696 29.8063 475.458 29.3817 475.136 29.041C474.819 28.6957 474.408 28.4763 473.904 28.383C473.736 28.3503 473.54 28.3317 473.316 28.327C473.097 28.3177 472.91 28.313 472.756 28.313H471.097V35.607ZM479.265 37V26.92H483.339C483.437 26.92 483.558 26.9247 483.703 26.934C483.848 26.9387 483.985 26.9527 484.116 26.976C484.676 27.0647 485.143 27.256 485.516 27.55C485.894 27.844 486.176 28.215 486.363 28.663C486.55 29.111 486.643 29.6057 486.643 30.147C486.643 30.9497 486.438 31.6427 486.027 32.226C485.616 32.8047 485 33.1663 484.179 33.311L483.584 33.381H480.728V37H479.265ZM485.159 37L483.171 32.898L484.648 32.52L486.832 37H485.159ZM480.728 31.995H483.283C483.376 31.995 483.479 31.9903 483.591 31.981C483.708 31.9717 483.817 31.9553 483.92 31.932C484.219 31.862 484.459 31.7337 484.641 31.547C484.823 31.3557 484.954 31.1363 485.033 30.889C485.112 30.6417 485.152 30.3943 485.152 30.147C485.152 29.8997 485.112 29.6547 485.033 29.412C484.954 29.1647 484.823 28.9477 484.641 28.761C484.459 28.5697 484.219 28.439 483.92 28.369C483.817 28.341 483.708 28.3223 483.591 28.313C483.479 28.3037 483.376 28.299 483.283 28.299H480.728V31.995ZM488.091 36.993L488.098 35.691L492.487 31.757C492.841 31.4443 493.082 31.1457 493.208 30.861C493.338 30.5763 493.404 30.2917 493.404 30.007C493.404 29.6477 493.324 29.3257 493.166 29.041C493.007 28.7517 492.788 28.523 492.508 28.355C492.228 28.187 491.906 28.103 491.542 28.103C491.168 28.103 490.835 28.1917 490.541 28.369C490.251 28.5417 490.025 28.7727 489.862 29.062C489.698 29.3513 489.619 29.664 489.624 30H488.126C488.126 29.3467 488.273 28.775 488.567 28.285C488.865 27.7903 489.274 27.4053 489.792 27.13C490.31 26.85 490.902 26.71 491.57 26.71C492.204 26.71 492.774 26.8547 493.278 27.144C493.782 27.4287 494.178 27.8207 494.468 28.32C494.762 28.8193 494.909 29.3887 494.909 30.028C494.909 30.49 494.848 30.882 494.727 31.204C494.605 31.526 494.423 31.8247 494.181 32.1C493.938 32.3753 493.635 32.674 493.271 32.996L489.883 36.02L489.722 35.6H494.909V36.993H488.091Z" fill="white" fill-opacity="0.3"/>
<path d="M501 112V24" stroke="white" stroke-opacity="0.3" stroke-width="2" stroke-linecap="square" stroke-dasharray="6 6"/>
<path d="M513.805 37V26.92H519.776V28.383H515.268V31.225H518.936V32.695H515.268V37H513.805ZM521.038 37V26.92H525.112C525.21 26.92 525.331 26.9247 525.476 26.934C525.62 26.9387 525.758 26.9527 525.889 26.976C526.449 27.0647 526.915 27.256 527.289 27.55C527.667 27.844 527.949 28.215 528.136 28.663C528.322 29.111 528.416 29.6057 528.416 30.147C528.416 30.9497 528.21 31.6427 527.8 32.226C527.389 32.8047 526.773 33.1663 525.952 33.311L525.357 33.381H522.501V37H521.038ZM526.932 37L524.944 32.898L526.421 32.52L528.605 37H526.932ZM522.501 31.995H525.056C525.149 31.995 525.252 31.9903 525.364 31.981C525.48 31.9717 525.59 31.9553 525.693 31.932C525.991 31.862 526.232 31.7337 526.414 31.547C526.596 31.3557 526.726 31.1363 526.806 30.889C526.885 30.6417 526.925 30.3943 526.925 30.147C526.925 29.8997 526.885 29.6547 526.806 29.412C526.726 29.1647 526.596 28.9477 526.414 28.761C526.232 28.5697 525.991 28.439 525.693 28.369C525.59 28.341 525.48 28.3223 525.364 28.313C525.252 28.3037 525.149 28.299 525.056 28.299H522.501V31.995ZM532.964 37.189C532.465 37.189 531.996 37.0957 531.557 36.909C531.118 36.7177 530.738 36.447 530.416 36.097C530.099 35.747 529.868 35.334 529.723 34.858L531.137 34.466C531.272 34.9 531.508 35.2337 531.844 35.467C532.18 35.6957 532.553 35.8077 532.964 35.803C533.333 35.7983 533.657 35.712 533.937 35.544C534.217 35.376 534.436 35.1497 534.595 34.865C534.754 34.5757 534.833 34.2443 534.833 33.871C534.833 33.311 534.658 32.849 534.308 32.485C533.963 32.121 533.51 31.939 532.95 31.939C532.791 31.939 532.628 31.9623 532.46 32.009C532.297 32.0557 532.143 32.1163 531.998 32.191L531.312 31.036L534.868 27.893L535.022 28.313H530.122V26.92H536.184V28.313L533.23 31.155L533.216 30.679C533.851 30.679 534.401 30.8213 534.868 31.106C535.335 31.386 535.694 31.7687 535.946 32.254C536.203 32.7347 536.331 33.2737 536.331 33.871C536.331 34.515 536.179 35.0867 535.876 35.586C535.577 36.0853 535.174 36.4773 534.665 36.762C534.161 37.0467 533.594 37.189 532.964 37.189Z" fill="white" fill-opacity="0.3"/>
<path d="M549 112V24" stroke="white" stroke-opacity="0.3" stroke-width="2" stroke-linecap="square" stroke-dasharray="6 6"/>
<path d="M592.682 37.21C591.674 37.21 590.815 36.9907 590.106 36.552C589.397 36.1087 588.853 35.4927 588.475 34.704C588.102 33.9153 587.915 33.0007 587.915 31.96C587.915 30.9193 588.102 30.0047 588.475 29.216C588.853 28.4273 589.397 27.8137 590.106 27.375C590.815 26.9317 591.674 26.71 592.682 26.71C593.844 26.71 594.805 27.004 595.566 27.592C596.331 28.18 596.863 28.971 597.162 29.965L595.678 30.364C595.482 29.6593 595.132 29.1063 594.628 28.705C594.129 28.3037 593.48 28.103 592.682 28.103C591.968 28.103 591.373 28.264 590.897 28.586C590.421 28.908 590.062 29.3583 589.819 29.937C589.581 30.5157 589.462 31.19 589.462 31.96C589.457 32.73 589.574 33.4043 589.812 33.983C590.055 34.5617 590.414 35.012 590.89 35.334C591.371 35.656 591.968 35.817 592.682 35.817C593.48 35.817 594.129 35.6163 594.628 35.215C595.132 34.809 595.482 34.256 595.678 33.556L597.162 33.955C596.863 34.949 596.331 35.74 595.566 36.328C594.805 36.916 593.844 37.21 592.682 37.21ZM598.702 37V26.92H601.859C601.952 26.92 602.125 26.9223 602.377 26.927C602.633 26.9317 602.878 26.9503 603.112 26.983C603.9 27.081 604.563 27.3633 605.1 27.83C605.641 28.2967 606.049 28.8893 606.325 29.608C606.6 30.322 606.738 31.106 606.738 31.96C606.738 32.8187 606.6 33.6073 606.325 34.326C606.049 35.04 605.641 35.6303 605.1 36.097C604.563 36.559 603.9 36.839 603.112 36.937C602.878 36.9697 602.633 36.9883 602.377 36.993C602.125 36.9977 601.952 37 601.859 37H598.702ZM600.2 35.607H601.859C602.017 35.607 602.206 35.6023 602.426 35.593C602.645 35.5837 602.839 35.565 603.007 35.537C603.52 35.439 603.935 35.2173 604.253 34.872C604.575 34.522 604.81 34.0927 604.96 33.584C605.109 33.0753 605.184 32.534 605.184 31.96C605.184 31.3673 605.107 30.819 604.953 30.315C604.799 29.8063 604.561 29.3817 604.239 29.041C603.921 28.6957 603.511 28.4763 603.007 28.383C602.839 28.3503 602.643 28.3317 602.419 28.327C602.199 28.3177 602.013 28.313 601.859 28.313H600.2V35.607ZM608.368 37V26.92H612.442C612.54 26.92 612.661 26.9247 612.806 26.934C612.95 26.9387 613.088 26.9527 613.219 26.976C613.779 27.0647 614.245 27.256 614.619 27.55C614.997 27.844 615.279 28.215 615.466 28.663C615.652 29.111 615.746 29.6057 615.746 30.147C615.746 30.9497 615.54 31.6427 615.13 32.226C614.719 32.8047 614.103 33.1663 613.282 33.311L612.687 33.381H609.831V37H608.368ZM614.262 37L612.274 32.898L613.751 32.52L615.935 37H614.262ZM609.831 31.995H612.386C612.479 31.995 612.582 31.9903 612.694 31.981C612.81 31.9717 612.92 31.9553 613.023 31.932C613.321 31.862 613.562 31.7337 613.744 31.547C613.926 31.3557 614.056 31.1363 614.136 30.889C614.215 30.6417 614.255 30.3943 614.255 30.147C614.255 29.8997 614.215 29.6547 614.136 29.412C614.056 29.1647 613.926 28.9477 613.744 28.761C613.562 28.5697 613.321 28.439 613.023 28.369C612.92 28.341 612.81 28.3223 612.694 28.313C612.582 28.3037 612.479 28.299 612.386 28.299H609.831V31.995ZM620.294 37.189C619.795 37.189 619.326 37.0957 618.887 36.909C618.448 36.7177 618.068 36.447 617.746 36.097C617.429 35.747 617.198 35.334 617.053 34.858L618.467 34.466C618.602 34.9 618.838 35.2337 619.174 35.467C619.51 35.6957 619.883 35.8077 620.294 35.803C620.663 35.7983 620.987 35.712 621.267 35.544C621.547 35.376 621.766 35.1497 621.925 34.865C622.084 34.5757 622.163 34.2443 622.163 33.871C622.163 33.311 621.988 32.849 621.638 32.485C621.293 32.121 620.84 31.939 620.28 31.939C620.121 31.939 619.958 31.9623 619.79 32.009C619.627 32.0557 619.473 32.1163 619.328 32.191L618.642 31.036L622.198 27.893L622.352 28.313H617.452V26.92H623.514V28.313L620.56 31.155L620.546 30.679C621.181 30.679 621.731 30.8213 622.198 31.106C622.665 31.386 623.024 31.7687 623.276 32.254C623.533 32.7347 623.661 33.2737 623.661 33.871C623.661 34.515 623.509 35.0867 623.206 35.586C622.907 36.0853 622.504 36.4773 621.995 36.762C621.491 37.0467 620.924 37.189 620.294 37.189Z" fill="white" fill-opacity="0.3"/>
<path d="M666 112V24" stroke="white" stroke-opacity="0.3" stroke-width="2" stroke-linecap="square" stroke-dasharray="6 6"/>
<path d="M689.593 37V26.92H695.564V28.383H691.056V31.225H694.724V32.695H691.056V37H689.593ZM696.826 37V26.92H700.9C700.998 26.92 701.119 26.9247 701.264 26.934C701.408 26.9387 701.546 26.9527 701.677 26.976C702.237 27.0647 702.703 27.256 703.077 27.55C703.455 27.844 703.737 28.215 703.924 28.663C704.11 29.111 704.204 29.6057 704.204 30.147C704.204 30.9497 703.998 31.6427 703.588 32.226C703.177 32.8047 702.561 33.1663 701.74 33.311L701.145 33.381H698.289V37H696.826ZM702.72 37L700.732 32.898L702.209 32.52L704.393 37H702.72ZM698.289 31.995H700.844C700.937 31.995 701.04 31.9903 701.152 31.981C701.268 31.9717 701.378 31.9553 701.481 31.932C701.779 31.862 702.02 31.7337 702.202 31.547C702.384 31.3557 702.514 31.1363 702.594 30.889C702.673 30.6417 702.713 30.3943 702.713 30.147C702.713 29.8997 702.673 29.6547 702.594 29.412C702.514 29.1647 702.384 28.9477 702.202 28.761C702.02 28.5697 701.779 28.439 701.481 28.369C701.378 28.341 701.268 28.3223 701.152 28.313C701.04 28.3037 700.937 28.299 700.844 28.299H698.289V31.995ZM710.201 37V35.243H705.651V33.857L708.927 26.92H710.6L707.324 33.857H710.201V31.127H711.685V33.857H712.686V35.243H711.685V37H710.201Z" fill="white" fill-opacity="0.3"/>
<path d="M736 112V24" stroke="white" stroke-opacity="0.3" stroke-width="2" stroke-linecap="square" stroke-dasharray="6 6"/>
<path d="M159.128 92V82.056L156.96 83.368V81.776L159.128 80.48H160.576V92H159.128ZM168.596 92V89.88H163.3V88.528L167.1 80.48H168.716L164.916 88.528H168.596V85.288H170.036V88.528H171.236V89.88H170.036V92H168.596ZM177.119 92.24C176.309 92.24 175.626 92.04 175.071 91.64C174.517 91.2347 174.095 90.688 173.807 90C173.525 89.3067 173.383 88.5307 173.383 87.672C173.383 86.8027 173.525 86.024 173.807 85.336C174.095 84.648 174.517 84.1067 175.071 83.712C175.631 83.3173 176.317 83.12 177.127 83.12C177.927 83.12 178.615 83.32 179.191 83.72C179.773 84.1147 180.218 84.656 180.527 85.344C180.837 86.032 180.991 86.808 180.991 87.672C180.991 88.536 180.837 89.312 180.527 90C180.218 90.688 179.773 91.2347 179.191 91.64C178.615 92.04 177.925 92.24 177.119 92.24ZM173.143 92V80.48H174.575V85.64H174.415V92H173.143ZM176.943 90.936C177.514 90.936 177.986 90.792 178.359 90.504C178.733 90.216 179.013 89.8267 179.199 89.336C179.386 88.84 179.479 88.2853 179.479 87.672C179.479 87.064 179.386 86.5147 179.199 86.024C179.018 85.5333 178.735 85.144 178.351 84.856C177.973 84.568 177.49 84.424 176.903 84.424C176.343 84.424 175.879 84.5627 175.511 84.84C175.143 85.112 174.869 85.4933 174.687 85.984C174.506 86.4693 174.415 87.032 174.415 87.672C174.415 88.3013 174.503 88.864 174.679 89.36C174.861 89.8507 175.138 90.2373 175.511 90.52C175.885 90.7973 176.362 90.936 176.943 90.936ZM186.713 92.24C185.902 92.24 185.22 92.04 184.665 91.64C184.11 91.2347 183.689 90.688 183.401 90C183.118 89.3067 182.977 88.5307 182.977 87.672C182.977 86.8027 183.118 86.024 183.401 85.336C183.689 84.648 184.11 84.1067 184.665 83.712C185.225 83.3173 185.91 83.12 186.721 83.12C187.521 83.12 188.209 83.32 188.785 83.72C189.366 84.1147 189.812 84.656 190.121 85.344C190.43 86.032 190.585 86.808 190.585 87.672C190.585 88.536 190.43 89.312 190.121 90C189.812 90.688 189.366 91.2347 188.785 91.64C188.209 92.04 187.518 92.24 186.713 92.24ZM182.737 95.84V83.36H184.009V89.72H184.169V95.84H182.737ZM186.537 90.936C187.108 90.936 187.58 90.792 187.953 90.504C188.326 90.216 188.606 89.8267 188.793 89.336C188.98 88.84 189.073 88.2853 189.073 87.672C189.073 87.064 188.98 86.5147 188.793 86.024C188.612 85.5333 188.329 85.144 187.945 84.856C187.566 84.568 187.084 84.424 186.497 84.424C185.937 84.424 185.473 84.5627 185.105 84.84C184.737 85.112 184.462 85.4933 184.281 85.984C184.1 86.4693 184.009 87.032 184.009 87.672C184.009 88.3013 184.097 88.864 184.273 89.36C184.454 89.8507 184.732 90.2373 185.105 90.52C185.478 90.7973 185.956 90.936 186.537 90.936Z" fill="white"/>
<path d="M105.8 91.992L105.808 90.712L110.92 86.112C111.347 85.728 111.632 85.3653 111.776 85.024C111.925 84.6773 112 84.3227 112 83.96C112 83.5173 111.899 83.1173 111.696 82.76C111.493 82.4027 111.216 82.12 110.864 81.912C110.517 81.704 110.123 81.6 109.68 81.6C109.221 81.6 108.813 81.7093 108.456 81.928C108.099 82.1413 107.816 82.4267 107.608 82.784C107.405 83.1413 107.307 83.5307 107.312 83.952H105.856C105.856 83.2267 106.024 82.5867 106.36 82.032C106.696 81.472 107.152 81.0347 107.728 80.72C108.309 80.4 108.968 80.24 109.704 80.24C110.419 80.24 111.059 80.4053 111.624 80.736C112.189 81.0613 112.635 81.5067 112.96 82.072C113.291 82.632 113.456 83.2667 113.456 83.976C113.456 84.4773 113.392 84.912 113.264 85.28C113.141 85.648 112.949 85.9893 112.688 86.304C112.427 86.6133 112.099 86.944 111.704 87.296L107.456 91.112L107.272 90.632H113.456V91.992H105.8ZM118.53 92.224C117.959 92.224 117.429 92.12 116.938 91.912C116.447 91.6987 116.023 91.4 115.666 91.016C115.314 90.6267 115.055 90.1653 114.89 89.632L116.258 89.24C116.434 89.7733 116.727 90.1787 117.138 90.456C117.549 90.7333 118.01 90.8693 118.522 90.864C118.991 90.8533 119.397 90.7467 119.738 90.544C120.085 90.336 120.351 90.0533 120.538 89.696C120.73 89.3387 120.826 88.9253 120.826 88.456C120.826 87.7413 120.613 87.1627 120.186 86.72C119.759 86.272 119.199 86.048 118.506 86.048C118.314 86.048 118.111 86.0747 117.898 86.128C117.69 86.1813 117.495 86.256 117.314 86.352L116.626 85.224L120.898 81.36L121.082 81.84H115.346V80.48H122.138V81.848L118.498 85.336L118.482 84.832C119.245 84.7787 119.911 84.904 120.482 85.208C121.053 85.512 121.495 85.9467 121.81 86.512C122.13 87.0773 122.29 87.7253 122.29 88.456C122.29 89.192 122.125 89.8427 121.794 90.408C121.463 90.9733 121.015 91.4187 120.45 91.744C119.885 92.064 119.245 92.224 118.53 92.224ZM128.338 92.24C127.527 92.24 126.845 92.04 126.29 91.64C125.735 91.2347 125.314 90.688 125.026 90C124.743 89.3067 124.602 88.5307 124.602 87.672C124.602 86.8027 124.743 86.024 125.026 85.336C125.314 84.648 125.735 84.1067 126.29 83.712C126.85 83.3173 127.535 83.12 128.346 83.12C129.146 83.12 129.834 83.32 130.41 83.72C130.991 84.1147 131.437 84.656 131.746 85.344C132.055 86.032 132.21 86.808 132.21 87.672C132.21 88.536 132.055 89.312 131.746 90C131.437 90.688 130.991 91.2347 130.41 91.64C129.834 92.04 129.143 92.24 128.338 92.24ZM124.362 92V80.48H125.794V85.64H125.634V92H124.362ZM128.162 90.936C128.733 90.936 129.205 90.792 129.578 90.504C129.951 90.216 130.231 89.8267 130.418 89.336C130.605 88.84 130.698 88.2853 130.698 87.672C130.698 87.064 130.605 86.5147 130.418 86.024C130.237 85.5333 129.954 85.144 129.57 84.856C129.191 84.568 128.709 84.424 128.122 84.424C127.562 84.424 127.098 84.5627 126.73 84.84C126.362 85.112 126.087 85.4933 125.906 85.984C125.725 86.4693 125.634 87.032 125.634 87.672C125.634 88.3013 125.722 88.864 125.898 89.36C126.079 89.8507 126.357 90.2373 126.73 90.52C127.103 90.7973 127.581 90.936 128.162 90.936ZM137.932 92.24C137.121 92.24 136.438 92.04 135.884 91.64C135.329 91.2347 134.908 90.688 134.62 90C134.337 89.3067 134.196 88.5307 134.196 87.672C134.196 86.8027 134.337 86.024 134.62 85.336C134.908 84.648 135.329 84.1067 135.884 83.712C136.444 83.3173 137.129 83.12 137.94 83.12C138.74 83.12 139.428 83.32 140.004 83.72C140.585 84.1147 141.03 84.656 141.34 85.344C141.649 86.032 141.804 86.808 141.804 87.672C141.804 88.536 141.649 89.312 141.34 90C141.03 90.688 140.585 91.2347 140.004 91.64C139.428 92.04 138.737 92.24 137.932 92.24ZM133.956 95.84V83.36H135.228V89.72H135.388V95.84H133.956ZM137.756 90.936C138.326 90.936 138.798 90.792 139.172 90.504C139.545 90.216 139.825 89.8267 140.012 89.336C140.198 88.84 140.292 88.2853 140.292 87.672C140.292 87.064 140.198 86.5147 140.012 86.024C139.83 85.5333 139.548 85.144 139.164 84.856C138.785 84.568 138.302 84.424 137.716 84.424C137.156 84.424 136.692 84.5627 136.324 84.84C135.956 85.112 135.681 85.4933 135.5 85.984C135.318 86.4693 135.228 87.032 135.228 87.672C135.228 88.3013 135.316 88.864 135.492 89.36C135.673 89.8507 135.95 90.2373 136.324 90.52C136.697 90.7973 137.174 90.936 137.756 90.936Z" fill="white"/>
<g filter="url(#filter0_i_6921_6633)">
<rect x="96" y="108" width="56" height="52" rx="1" fill="#D3D7E0"/>
<rect x="96" y="108" width="56" height="52" rx="1" stroke="#110529" stroke-width="2" stroke-linecap="round"/>
</g>
<g filter="url(#filter1_i_6921_6633)">
<rect x="152" y="108" width="48" height="52" rx="1" fill="#D6E0FF"/>
<path d="M164.553 142.3C161.213 142.3 158.873 140.11 158.873 136.75V127.61L160.673 127.6V136.6C160.673 139.33 162.733 140.62 164.553 140.62C166.393 140.62 168.433 139.31 168.433 136.6V127.6H170.233V136.75C170.233 140.1 167.893 142.3 164.553 142.3ZM173.033 142V127.6H174.653L180.093 139.07L185.503 127.6H187.143V141.99H185.453V131.51L180.563 142H179.613L174.723 131.51V142H173.033ZM190.147 142V127.6H191.927V142H190.147Z" fill="#110529"/>
<rect x="152" y="108" width="48" height="52" rx="1" stroke="#110529" stroke-width="2" stroke-linecap="round"/>
</g>
<g filter="url(#filter2_i_6921_6633)">
<rect x="200" y="108" width="24" height="52" rx="1" fill="#D3D7E0"/>
<rect x="200" y="108" width="24" height="52" rx="1" stroke="#110529" stroke-width="2" stroke-linecap="round"/>
</g>
<g filter="url(#filter3_i_6921_6633)">
<rect x="224" y="108" width="336" height="52" rx="1" fill="#99E099"/>
<path d="M390.758 142L385.938 127.6H387.788L391.978 140.11L396.208 127.6H398.058L393.238 142H390.758Z" fill="#110529"/>
<rect x="224" y="108" width="336" height="52" rx="1" stroke="#110529" stroke-width="2" stroke-linecap="round"/>
</g>
<g filter="url(#filter4_i_6921_6633)">
<rect x="560" y="108" width="30" height="52" rx="1" fill="#CBEB67"/>
</g>
<rect x="560" y="108" width="30" height="52" rx="1" stroke="#110529" stroke-width="2" stroke-linecap="round"/>
<g filter="url(#filter5_i_6921_6633)">
<rect x="626" y="108" width="30" height="52" rx="1" fill="#FAAAFA"/>
</g>
<rect x="626" y="108" width="30" height="52" rx="1" stroke="#110529" stroke-width="2" stroke-linecap="round"/>
<g filter="url(#filter6_i_6921_6633)">
<rect x="590" y="108" width="36" height="52" rx="1" fill="#FFCB8F"/>
</g>
<rect x="590" y="108" width="36" height="52" rx="1" stroke="#110529" stroke-width="2" stroke-linecap="round"/>
<path d="M569.447 142V127.6H571.247L578.757 138.85V127.6H580.557V142H578.757L571.247 130.74V142H569.447Z" fill="#110529"/>
<path d="M635.447 142V127.6H637.247L644.757 138.85V127.6H646.557V142H644.757L637.247 130.74V142H635.447Z" fill="#110529"/>
<path d="M602.593 142V127.6H607.033C607.313 127.6 608.173 127.6 608.853 127.69C612.183 128.13 613.913 131.13 613.913 134.8C613.913 138.48 612.183 141.47 608.853 141.91C608.183 142 607.303 142 607.033 142H602.593ZM604.423 140.3H607.033C607.533 140.3 608.233 140.28 608.703 140.19C611.063 139.76 612.023 137.47 612.023 134.8C612.023 132.08 611.033 129.83 608.703 129.41C608.233 129.32 607.513 129.3 607.033 129.3H604.423V140.3Z" fill="#110529"/>
<g filter="url(#filter7_i_6921_6633)">
<rect x="656" y="108" width="80" height="52" rx="1" fill="#C1ADFF"/>
<path d="M695.244 142.29C693.224 142.29 691.754 141.11 691.244 139.27L693.014 138.85C693.224 139.83 694.134 140.6 695.204 140.6C695.884 140.6 696.704 140.29 697.094 139.51C697.354 138.99 697.354 138.37 697.354 137.48V127.6H699.154V137.48C699.154 138.72 699.214 139.51 698.684 140.43C697.954 141.7 696.694 142.29 695.244 142.29Z" fill="#110529"/>
<rect x="656" y="108" width="80" height="52" rx="1" stroke="#110529" stroke-width="2" stroke-linecap="round"/>
</g>
<g filter="url(#filter8_i_6921_6633)">
<rect x="736" y="108" width="112" height="52" rx="1" fill="#FAFAAA"/>
<path d="M792.093 142.3C787.783 142.3 785.373 139.24 785.373 134.8C785.373 130.36 787.783 127.3 792.093 127.3C795.423 127.3 797.613 129.13 798.433 131.99L796.623 132.47C796.033 130.33 794.523 129 792.093 129C788.873 129 787.273 131.35 787.253 134.8C787.233 138.25 788.873 140.6 792.093 140.6C794.523 140.6 796.033 139.27 796.623 137.13L798.433 137.61C797.613 140.47 795.423 142.3 792.093 142.3Z" fill="#110529"/>
<rect x="736" y="108" width="112" height="52" rx="1" stroke="#110529" stroke-width="2" stroke-linecap="round"/>
</g>
<g filter="url(#filter9_i_6921_6633)">
<rect x="848" y="108" width="64" height="52" rx="1" fill="#90E0E0"/>
<path d="M860.426 142.3C857.366 142.3 855.096 140.66 854.616 138.01L856.456 137.72C856.916 139.54 858.506 140.61 860.516 140.61C862.446 140.61 863.976 139.65 863.976 138.08C863.976 136.82 862.996 136.28 861.966 135.97L858.296 134.88C856.696 134.41 855.176 133.48 855.176 131.35C855.176 128.8 857.346 127.3 860.216 127.31C863.116 127.33 865.196 128.9 865.726 131.52L863.836 131.85C863.536 130.1 862.026 129.02 860.196 129C858.426 128.98 857.056 129.94 857.056 131.27C857.056 132.6 858.386 133.06 859.456 133.36L862.196 134.15C863.446 134.5 865.816 135.21 865.816 137.98C865.816 140.77 863.416 142.3 860.426 142.3ZM867.914 142V127.6H869.534L874.974 139.07L880.384 127.6H882.024V141.99H880.334V131.51L875.444 142H874.494L869.604 131.51V142H867.914ZM884.828 142V127.6H890.518C890.798 127.6 891.208 127.62 891.578 127.68C893.908 128.04 895.138 129.85 895.138 132.14C895.138 134.43 893.898 136.24 891.578 136.6C891.208 136.66 890.788 136.68 890.518 136.68H886.608V142H884.828ZM886.608 134.99H890.458C890.708 134.99 891.058 134.97 891.358 134.9C892.738 134.59 893.318 133.34 893.318 132.14C893.318 130.94 892.738 129.69 891.358 129.38C891.058 129.31 890.708 129.29 890.458 129.29H886.608V134.99ZM897.332 142V127.6H899.112V140.31H905.792V142H897.332Z" fill="#110529"/>
<rect x="848" y="108" width="64" height="52" rx="1" stroke="#110529" stroke-width="2" stroke-linecap="round"/>
</g>
<path d="M200.728 92L204.872 81.848H199.64V80.48H206.4V81.848L202.264 92H200.728ZM212.291 92.24C211.48 92.24 210.798 92.04 210.243 91.64C209.688 91.2347 209.267 90.688 208.979 90C208.696 89.3067 208.555 88.5307 208.555 87.672C208.555 86.8027 208.696 86.024 208.979 85.336C209.267 84.648 209.688 84.1067 210.243 83.712C210.803 83.3173 211.488 83.12 212.299 83.12C213.099 83.12 213.787 83.32 214.363 83.72C214.944 84.1147 215.39 84.656 215.699 85.344C216.008 86.032 216.163 86.808 216.163 87.672C216.163 88.536 216.008 89.312 215.699 90C215.39 90.688 214.944 91.2347 214.363 91.64C213.787 92.04 213.096 92.24 212.291 92.24ZM208.315 92V80.48H209.747V85.64H209.587V92H208.315ZM212.115 90.936C212.686 90.936 213.158 90.792 213.531 90.504C213.904 90.216 214.184 89.8267 214.371 89.336C214.558 88.84 214.651 88.2853 214.651 87.672C214.651 87.064 214.558 86.5147 214.371 86.024C214.19 85.5333 213.907 85.144 213.523 84.856C213.144 84.568 212.662 84.424 212.075 84.424C211.515 84.424 211.051 84.5627 210.683 84.84C210.315 85.112 210.04 85.4933 209.859 85.984C209.678 86.4693 209.587 87.032 209.587 87.672C209.587 88.3013 209.675 88.864 209.851 89.36C210.032 89.8507 210.31 90.2373 210.683 90.52C211.056 90.7973 211.534 90.936 212.115 90.936ZM221.885 92.24C221.074 92.24 220.392 92.04 219.837 91.64C219.282 91.2347 218.861 90.688 218.573 90C218.29 89.3067 218.149 88.5307 218.149 87.672C218.149 86.8027 218.29 86.024 218.573 85.336C218.861 84.648 219.282 84.1067 219.837 83.712C220.397 83.3173 221.082 83.12 221.893 83.12C222.693 83.12 223.381 83.32 223.957 83.72C224.538 84.1147 224.984 84.656 225.293 85.344C225.602 86.032 225.757 86.808 225.757 87.672C225.757 88.536 225.602 89.312 225.293 90C224.984 90.688 224.538 91.2347 223.957 91.64C223.381 92.04 222.69 92.24 221.885 92.24ZM217.909 95.84V83.36H219.181V89.72H219.341V95.84H217.909ZM221.709 90.936C222.28 90.936 222.752 90.792 223.125 90.504C223.498 90.216 223.778 89.8267 223.965 89.336C224.152 88.84 224.245 88.2853 224.245 87.672C224.245 87.064 224.152 86.5147 223.965 86.024C223.784 85.5333 223.501 85.144 223.117 84.856C222.738 84.568 222.256 84.424 221.669 84.424C221.109 84.424 220.645 84.5627 220.277 84.84C219.909 85.112 219.634 85.4933 219.453 85.984C219.272 86.4693 219.181 87.032 219.181 87.672C219.181 88.3013 219.269 88.864 219.445 89.36C219.626 89.8507 219.904 90.2373 220.277 90.52C220.65 90.7973 221.128 90.936 221.709 90.936Z" fill="white"/>
<path d="M849.128 92V82.056L846.96 83.368V81.776L849.128 80.48H850.576V92H849.128ZM857.548 92.24C856.817 92.24 856.153 92.064 855.556 91.712C854.964 91.36 854.492 90.88 854.14 90.272C853.793 89.6587 853.62 88.968 853.62 88.2V84.368C853.62 83.5627 853.793 82.8507 854.14 82.232C854.492 81.608 854.972 81.1227 855.58 80.776C856.193 80.424 856.892 80.248 857.676 80.248C858.311 80.248 858.9 80.3787 859.444 80.64C859.993 80.896 860.455 81.2667 860.828 81.752L859.764 82.696C859.535 82.36 859.236 82.0933 858.868 81.896C858.5 81.6987 858.103 81.6 857.676 81.6C857.169 81.6 856.719 81.7227 856.324 81.968C855.935 82.208 855.628 82.528 855.404 82.928C855.18 83.3227 855.068 83.7493 855.068 84.208V86.52L854.756 86.168C855.092 85.688 855.519 85.304 856.036 85.016C856.553 84.728 857.113 84.584 857.716 84.584C858.431 84.584 859.071 84.752 859.636 85.088C860.207 85.424 860.655 85.88 860.98 86.456C861.311 87.0267 861.476 87.6693 861.476 88.384C861.476 89.0987 861.297 89.7467 860.94 90.328C860.583 90.9093 860.105 91.3733 859.508 91.72C858.916 92.0667 858.263 92.24 857.548 92.24ZM857.548 90.864C858.007 90.864 858.425 90.7547 858.804 90.536C859.183 90.312 859.481 90.0133 859.7 89.64C859.924 89.2613 860.036 88.8427 860.036 88.384C860.036 87.9253 859.924 87.5067 859.7 87.128C859.481 86.7493 859.183 86.4507 858.804 86.232C858.431 86.008 858.015 85.896 857.556 85.896C857.097 85.896 856.679 86.008 856.3 86.232C855.927 86.4507 855.628 86.7493 855.404 87.128C855.18 87.5067 855.068 87.9253 855.068 88.384C855.068 88.8373 855.177 89.2533 855.396 89.632C855.62 90.0053 855.919 90.304 856.292 90.528C856.671 90.752 857.089 90.864 857.548 90.864ZM867.526 92.24C866.715 92.24 866.032 92.04 865.478 91.64C864.923 91.2347 864.502 90.688 864.214 90C863.931 89.3067 863.79 88.5307 863.79 87.672C863.79 86.8027 863.931 86.024 864.214 85.336C864.502 84.648 864.923 84.1067 865.478 83.712C866.038 83.3173 866.723 83.12 867.534 83.12C868.334 83.12 869.022 83.32 869.598 83.72C870.179 84.1147 870.624 84.656 870.934 85.344C871.243 86.032 871.398 86.808 871.398 87.672C871.398 88.536 871.243 89.312 870.934 90C870.624 90.688 870.179 91.2347 869.598 91.64C869.022 92.04 868.331 92.24 867.526 92.24ZM863.55 92V80.48H864.982V85.64H864.822V92H863.55ZM867.35 90.936C867.92 90.936 868.392 90.792 868.766 90.504C869.139 90.216 869.419 89.8267 869.606 89.336C869.792 88.84 869.886 88.2853 869.886 87.672C869.886 87.064 869.792 86.5147 869.606 86.024C869.424 85.5333 869.142 85.144 868.758 84.856C868.379 84.568 867.896 84.424 867.31 84.424C866.75 84.424 866.286 84.5627 865.918 84.84C865.55 85.112 865.275 85.4933 865.094 85.984C864.912 86.4693 864.822 87.032 864.822 87.672C864.822 88.3013 864.91 88.864 865.086 89.36C865.267 89.8507 865.544 90.2373 865.918 90.52C866.291 90.7973 866.768 90.936 867.35 90.936ZM877.119 92.24C876.309 92.24 875.626 92.04 875.071 91.64C874.517 91.2347 874.095 90.688 873.807 90C873.525 89.3067 873.383 88.5307 873.383 87.672C873.383 86.8027 873.525 86.024 873.807 85.336C874.095 84.648 874.517 84.1067 875.071 83.712C875.631 83.3173 876.317 83.12 877.127 83.12C877.927 83.12 878.615 83.32 879.191 83.72C879.773 84.1147 880.218 84.656 880.527 85.344C880.837 86.032 880.991 86.808 880.991 87.672C880.991 88.536 880.837 89.312 880.527 90C880.218 90.688 879.773 91.2347 879.191 91.64C878.615 92.04 877.925 92.24 877.119 92.24ZM873.143 95.84V83.36H874.415V89.72H874.575V95.84H873.143ZM876.943 90.936C877.514 90.936 877.986 90.792 878.359 90.504C878.733 90.216 879.013 89.8267 879.199 89.336C879.386 88.84 879.479 88.2853 879.479 87.672C879.479 87.064 879.386 86.5147 879.199 86.024C879.018 85.5333 878.735 85.144 878.351 84.856C877.973 84.568 877.49 84.424 876.903 84.424C876.343 84.424 875.879 84.5627 875.511 84.84C875.143 85.112 874.869 85.4933 874.687 85.984C874.506 86.4693 874.415 87.032 874.415 87.672C874.415 88.3013 874.503 88.864 874.679 89.36C874.861 89.8507 875.138 90.2373 875.511 90.52C875.885 90.7973 876.362 90.936 876.943 90.936Z" fill="white"/>
<path d="M32.9984 142V127.6H34.7784V142H32.9984ZM43.6089 142.3C42.6222 142.3 41.7222 142.127 40.9089 141.78C40.0956 141.433 39.3956 140.937 38.8089 140.29C38.2222 139.637 37.7689 138.85 37.4489 137.93C37.1356 137.003 36.9789 135.96 36.9789 134.8C36.9789 133.267 37.2522 131.94 37.7989 130.82C38.3456 129.7 39.1156 128.837 40.1089 128.23C41.1022 127.617 42.2689 127.31 43.6089 127.31C45.2222 127.31 46.5222 127.687 47.5089 128.44C48.4956 129.187 49.1756 130.21 49.5489 131.51L47.7489 131.88C47.4489 131.007 46.9556 130.31 46.2689 129.79C45.5822 129.27 44.7256 129.01 43.6989 129.01C42.6256 129.003 41.7322 129.243 41.0189 129.73C40.3122 130.21 39.7789 130.887 39.4189 131.76C39.0589 132.633 38.8756 133.647 38.8689 134.8C38.8622 135.947 39.0389 136.953 39.3989 137.82C39.7589 138.687 40.2956 139.367 41.0089 139.86C41.7289 140.347 42.6256 140.593 43.6989 140.6C44.6256 140.607 45.4056 140.43 46.0389 140.07C46.6722 139.71 47.1622 139.19 47.5089 138.51C47.8556 137.83 48.0656 137.013 48.1389 136.06H45.0789V134.59H50.0189C50.0389 134.723 50.0489 134.883 50.0489 135.07C50.0556 135.25 50.0589 135.373 50.0589 135.44C50.0589 136.753 49.8122 137.93 49.3189 138.97C48.8322 140.003 48.1089 140.817 47.1489 141.41C46.1956 142.003 45.0156 142.3 43.6089 142.3ZM52.0563 142V127.6H53.8363V133.95H61.4163V127.6H63.1963V142H61.4163V135.64H53.8363V142H52.0563Z" fill="white"/>
<defs>
<filter id="filter0_i_6921_6633" x="95" y="107" width="58" height="54" filterUnits="userSpaceOnUse" color-interpolation-filters="sRGB">
<feFlood flood-opacity="0" result="BackgroundImageFix"/>
<feBlend mode="normal" in="SourceGraphic" in2="BackgroundImageFix" result="shape"/>
<feColorMatrix in="SourceAlpha" type="matrix" values="0 0 0 0 0 0 0 0 0 0 0 0 0 0 0 0 0 0 127 0" result="hardAlpha"/>
<feOffset dx="-8" dy="-4"/>
<feComposite in2="hardAlpha" operator="arithmetic" k2="-1" k3="1"/>
<feColorMatrix type="matrix" values="0 0 0 0 0.0666667 0 0 0 0 0.0196078 0 0 0 0 0.160784 0 0 0 0.16 0"/>
<feBlend mode="normal" in2="shape" result="effect1_innerShadow_6921_6633"/>
</filter>
<filter id="filter1_i_6921_6633" x="151" y="107" width="50" height="54" filterUnits="userSpaceOnUse" color-interpolation-filters="sRGB">
<feFlood flood-opacity="0" result="BackgroundImageFix"/>
<feBlend mode="normal" in="SourceGraphic" in2="BackgroundImageFix" result="shape"/>
<feColorMatrix in="SourceAlpha" type="matrix" values="0 0 0 0 0 0 0 0 0 0 0 0 0 0 0 0 0 0 127 0" result="hardAlpha"/>
<feOffset dx="-8" dy="-4"/>
<feComposite in2="hardAlpha" operator="arithmetic" k2="-1" k3="1"/>
<feColorMatrix type="matrix" values="0 0 0 0 0.0666667 0 0 0 0 0.0196078 0 0 0 0 0.160784 0 0 0 0.16 0"/>
<feBlend mode="normal" in2="shape" result="effect1_innerShadow_6921_6633"/>
</filter>
<filter id="filter2_i_6921_6633" x="199" y="107" width="26" height="54" filterUnits="userSpaceOnUse" color-interpolation-filters="sRGB">
<feFlood flood-opacity="0" result="BackgroundImageFix"/>
<feBlend mode="normal" in="SourceGraphic" in2="BackgroundImageFix" result="shape"/>
<feColorMatrix in="SourceAlpha" type="matrix" values="0 0 0 0 0 0 0 0 0 0 0 0 0 0 0 0 0 0 127 0" result="hardAlpha"/>
<feOffset dx="-8" dy="-4"/>
<feComposite in2="hardAlpha" operator="arithmetic" k2="-1" k3="1"/>
<feColorMatrix type="matrix" values="0 0 0 0 0.0666667 0 0 0 0 0.0196078 0 0 0 0 0.160784 0 0 0 0.16 0"/>
<feBlend mode="normal" in2="shape" result="effect1_innerShadow_6921_6633"/>
</filter>
<filter id="filter3_i_6921_6633" x="223" y="107" width="338" height="54" filterUnits="userSpaceOnUse" color-interpolation-filters="sRGB">
<feFlood flood-opacity="0" result="BackgroundImageFix"/>
<feBlend mode="normal" in="SourceGraphic" in2="BackgroundImageFix" result="shape"/>
<feColorMatrix in="SourceAlpha" type="matrix" values="0 0 0 0 0 0 0 0 0 0 0 0 0 0 0 0 0 0 127 0" result="hardAlpha"/>
<feOffset dx="-8" dy="-4"/>
<feComposite in2="hardAlpha" operator="arithmetic" k2="-1" k3="1"/>
<feColorMatrix type="matrix" values="0 0 0 0 0.0666667 0 0 0 0 0.0196078 0 0 0 0 0.160784 0 0 0 0.16 0"/>
<feBlend mode="normal" in2="shape" result="effect1_innerShadow_6921_6633"/>
</filter>
<filter id="filter4_i_6921_6633" x="559" y="107" width="32" height="54" filterUnits="userSpaceOnUse" color-interpolation-filters="sRGB">
<feFlood flood-opacity="0" result="BackgroundImageFix"/>
<feBlend mode="normal" in="SourceGraphic" in2="BackgroundImageFix" result="shape"/>
<feColorMatrix in="SourceAlpha" type="matrix" values="0 0 0 0 0 0 0 0 0 0 0 0 0 0 0 0 0 0 127 0" result="hardAlpha"/>
<feOffset dx="-8" dy="-4"/>
<feComposite in2="hardAlpha" operator="arithmetic" k2="-1" k3="1"/>
<feColorMatrix type="matrix" values="0 0 0 0 0.0666667 0 0 0 0 0.0196078 0 0 0 0 0.160784 0 0 0 0.16 0"/>
<feBlend mode="normal" in2="shape" result="effect1_innerShadow_6921_6633"/>
</filter>
<filter id="filter5_i_6921_6633" x="625" y="107" width="32" height="54" filterUnits="userSpaceOnUse" color-interpolation-filters="sRGB">
<feFlood flood-opacity="0" result="BackgroundImageFix"/>
<feBlend mode="normal" in="SourceGraphic" in2="BackgroundImageFix" result="shape"/>
<feColorMatrix in="SourceAlpha" type="matrix" values="0 0 0 0 0 0 0 0 0 0 0 0 0 0 0 0 0 0 127 0" result="hardAlpha"/>
<feOffset dx="-8" dy="-4"/>
<feComposite in2="hardAlpha" operator="arithmetic" k2="-1" k3="1"/>
<feColorMatrix type="matrix" values="0 0 0 0 0.0666667 0 0 0 0 0.0196078 0 0 0 0 0.160784 0 0 0 0.16 0"/>
<feBlend mode="normal" in2="shape" result="effect1_innerShadow_6921_6633"/>
</filter>
<filter id="filter6_i_6921_6633" x="589" y="107" width="38" height="54" filterUnits="userSpaceOnUse" color-interpolation-filters="sRGB">
<feFlood flood-opacity="0" result="BackgroundImageFix"/>
<feBlend mode="normal" in="SourceGraphic" in2="BackgroundImageFix" result="shape"/>
<feColorMatrix in="SourceAlpha" type="matrix" values="0 0 0 0 0 0 0 0 0 0 0 0 0 0 0 0 0 0 127 0" result="hardAlpha"/>
<feOffset dx="-8" dy="-4"/>
<feComposite in2="hardAlpha" operator="arithmetic" k2="-1" k3="1"/>
<feColorMatrix type="matrix" values="0 0 0 0 0.0666667 0 0 0 0 0.0196078 0 0 0 0 0.160784 0 0 0 0.16 0"/>
<feBlend mode="normal" in2="shape" result="effect1_innerShadow_6921_6633"/>
</filter>
<filter id="filter7_i_6921_6633" x="655" y="107" width="82" height="54" filterUnits="userSpaceOnUse" color-interpolation-filters="sRGB">
<feFlood flood-opacity="0" result="BackgroundImageFix"/>
<feBlend mode="normal" in="SourceGraphic" in2="BackgroundImageFix" result="shape"/>
<feColorMatrix in="SourceAlpha" type="matrix" values="0 0 0 0 0 0 0 0 0 0 0 0 0 0 0 0 0 0 127 0" result="hardAlpha"/>
<feOffset dx="-8" dy="-4"/>
<feComposite in2="hardAlpha" operator="arithmetic" k2="-1" k3="1"/>
<feColorMatrix type="matrix" values="0 0 0 0 0.0666667 0 0 0 0 0.0196078 0 0 0 0 0.160784 0 0 0 0.16 0"/>
<feBlend mode="normal" in2="shape" result="effect1_innerShadow_6921_6633"/>
</filter>
<filter id="filter8_i_6921_6633" x="735" y="107" width="114" height="54" filterUnits="userSpaceOnUse" color-interpolation-filters="sRGB">
<feFlood flood-opacity="0" result="BackgroundImageFix"/>
<feBlend mode="normal" in="SourceGraphic" in2="BackgroundImageFix" result="shape"/>
<feColorMatrix in="SourceAlpha" type="matrix" values="0 0 0 0 0 0 0 0 0 0 0 0 0 0 0 0 0 0 127 0" result="hardAlpha"/>
<feOffset dx="-8" dy="-4"/>
<feComposite in2="hardAlpha" operator="arithmetic" k2="-1" k3="1"/>
<feColorMatrix type="matrix" values="0 0 0 0 0.0666667 0 0 0 0 0.0196078 0 0 0 0 0.160784 0 0 0 0.16 0"/>
<feBlend mode="normal" in2="shape" result="effect1_innerShadow_6921_6633"/>
</filter>
<filter id="filter9_i_6921_6633" x="847" y="107" width="66" height="54" filterUnits="userSpaceOnUse" color-interpolation-filters="sRGB">
<feFlood flood-opacity="0" result="BackgroundImageFix"/>
<feBlend mode="normal" in="SourceGraphic" in2="BackgroundImageFix" result="shape"/>
<feColorMatrix in="SourceAlpha" type="matrix" values="0 0 0 0 0 0 0 0 0 0 0 0 0 0 0 0 0 0 127 0" result="hardAlpha"/>
<feOffset dx="-8" dy="-4"/>
<feComposite in2="hardAlpha" operator="arithmetic" k2="-1" k3="1"/>
<feColorMatrix type="matrix" values="0 0 0 0 0.0666667 0 0 0 0 0.0196078 0 0 0 0 0.160784 0 0 0 0.16 0"/>
<feBlend mode="normal" in2="shape" result="effect1_innerShadow_6921_6633"/>
</filter>
</defs>
</svg>
