<svg width="960" height="252" viewBox="0 0 960 252" fill="none" xmlns="http://www.w3.org/2000/svg">
<rect width="960" height="252" fill="white"/>
<path d="M96 184L95.2929 184.707L94.5858 184L95.2929 183.293L96 184ZM103.293 175.293L104 174.586L105.414 176L104.707 176.707L103.293 175.293ZM104.707 191.293L105.414 192L104 193.414L103.293 192.707L104.707 191.293ZM106 185L96 185L96 183L106 183L106 185ZM95.2929 183.293L103.293 175.293L104.707 176.707L96.7071 184.707L95.2929 183.293ZM96.7071 183.293L104.707 191.293L103.293 192.707L95.2929 184.707L96.7071 183.293Z" fill="#110529"/>
<path d="M456 184H106" stroke="#110529" stroke-width="2"/>
<rect width="74" height="20" transform="translate(456 174)" fill="white"/>
<path d="M467.255 186.424C465.935 186.424 464.766 185.048 463.871 185.048C463.319 185.048 463.159 185.616 463.343 186.2H461.991C461.615 184.704 462.271 183.504 463.735 183.504C465.071 183.504 466.239 184.88 467.135 184.88C467.639 184.88 467.855 184.352 467.663 183.704H469.015C469.391 185.2 468.743 186.424 467.255 186.424ZM474.066 190V180.056L471.898 181.368V179.776L474.066 178.48H475.514V190H474.066ZM481.966 190.24C480.182 190.24 478.702 189.056 478.238 187.376L479.606 187.008C479.894 188.144 480.934 188.856 482.006 188.856C483.406 188.856 484.494 187.728 484.494 186.376C484.494 184.984 483.35 183.896 482.006 183.896C480.99 183.896 480.27 184.384 479.854 184.984L478.59 184.504L478.942 178.48H485.126V179.832H480.222L480.014 183.328C480.614 182.848 481.39 182.584 482.166 182.584C484.302 182.584 485.926 184.232 485.926 186.376C485.926 188.504 484.11 190.24 481.966 190.24ZM491.727 190.24C489.487 190.24 487.839 188.592 487.839 186.352V182.128C487.839 179.888 489.487 178.24 491.727 178.24C493.967 178.24 495.615 179.888 495.615 182.128V186.352C495.615 188.592 493.967 190.24 491.727 190.24ZM489.287 186.432C489.287 187.784 490.375 188.872 491.727 188.872C493.079 188.872 494.167 187.784 494.167 186.432V182.04C494.167 180.688 493.079 179.6 491.727 179.6C490.375 179.6 489.287 180.688 489.287 182.04V186.432ZM501.742 190.24C499.502 190.24 497.854 188.592 497.854 186.352V182.128C497.854 179.888 499.502 178.24 501.742 178.24C503.982 178.24 505.63 179.888 505.63 182.128V186.352C505.63 188.592 503.982 190.24 501.742 190.24ZM499.302 186.432C499.302 187.784 500.39 188.872 501.742 188.872C503.094 188.872 504.182 187.784 504.182 186.432V182.04C504.182 180.688 503.094 179.6 501.742 179.6C500.39 179.6 499.302 180.688 499.302 182.04V186.432ZM511.838 190.24C510.67 190.24 509.766 189.784 509.134 189.024V190H507.862V178.48H509.294V182.144C509.91 181.496 510.766 181.12 511.846 181.12C514.246 181.12 515.71 183.08 515.71 185.672C515.71 188.264 514.254 190.24 511.838 190.24ZM509.134 185.672C509.134 187.568 509.918 188.936 511.662 188.936C513.366 188.936 514.198 187.512 514.198 185.672C514.198 183.848 513.382 182.424 511.622 182.424C509.934 182.424 509.134 183.76 509.134 185.672ZM521.432 190.24C520.36 190.24 519.504 189.856 518.888 189.2V193.84H517.456V181.36H518.728V182.328C519.36 181.568 520.264 181.12 521.44 181.12C523.84 181.12 525.304 183.08 525.304 185.672C525.304 188.264 523.848 190.24 521.432 190.24ZM518.728 185.672C518.728 187.568 519.512 188.936 521.256 188.936C522.96 188.936 523.792 187.512 523.792 185.672C523.792 183.848 522.976 182.424 521.216 182.424C519.528 182.424 518.728 183.76 518.728 185.672Z" fill="#110529"/>
<path d="M880 184H530" stroke="#110529" stroke-width="2"/>
<rect x="880" y="172" width="32" height="24" rx="1" fill="white"/>
<path d="M891.62 190V178.48H896.172C896.396 178.48 896.724 178.496 897.02 178.544C898.884 178.832 899.868 180.28 899.868 182.112C899.868 183.632 899.188 184.888 897.884 185.432L900.108 190H898.476L896.412 185.744H893.044V190H891.62ZM893.044 184.392H896.124C896.324 184.392 896.604 184.376 896.844 184.32C897.948 184.072 898.412 183.072 898.412 182.112C898.412 181.152 897.948 180.152 896.844 179.904C896.604 179.848 896.324 179.832 896.124 179.832H893.044V184.392Z" fill="#110529"/>
<rect x="880" y="172" width="32" height="24" rx="1" stroke="#110529" stroke-width="2"/>
<rect x="96" y="196" width="32" height="24" rx="1" fill="white"/>
<path d="M107.62 214V202.48H112.172C112.396 202.48 112.724 202.496 113.02 202.544C114.884 202.832 115.868 204.28 115.868 206.112C115.868 207.632 115.188 208.888 113.884 209.432L116.108 214H114.476L112.412 209.744H109.044V214H107.62ZM109.044 208.392H112.124C112.324 208.392 112.604 208.376 112.844 208.32C113.948 208.072 114.412 207.072 114.412 206.112C114.412 205.152 113.948 204.152 112.844 203.904C112.604 203.848 112.324 203.832 112.124 203.832H109.044V208.392Z" fill="#110529"/>
<rect x="96" y="196" width="32" height="24" rx="1" stroke="#110529" stroke-width="2"/>
<path d="M128 207H127V209H128V207ZM130.977 209H131.977V207H130.977V209ZM136.931 207H135.931V209H136.931V207ZM142.885 209H143.885V207H142.885V209ZM148.838 207H147.838V209H148.838V207ZM154.792 209H155.792V207H154.792V209ZM160.746 207H159.746V209H160.746V207ZM166.7 209H167.7V207H166.7V209ZM172.654 207H171.654V209H172.654V207ZM178.608 209H179.608V207H178.608V209ZM184.562 207H183.562V209H184.562V207ZM190.515 209H191.515V207H190.515V209ZM196.469 207H195.469V209H196.469V207ZM202.423 209H203.423V207H202.423V209ZM208.377 207H207.377V209H208.377V207ZM214.331 209H215.331V207H214.331V209ZM220.285 207H219.285V209H220.285V207ZM226.238 209H227.238V207H226.238V209ZM232.192 207H231.192V209H232.192V207ZM238.146 209H239.146V207H238.146V209ZM244.1 207H243.1V209H244.1V207ZM250.054 209H251.054V207H250.054V209ZM256.008 207H255.008V209H256.008V207ZM261.962 209H262.962V207H261.962V209ZM267.915 207H266.915V209H267.915V207ZM273.869 209H274.869V207H273.869V209ZM279.823 207H278.823V209H279.823V207ZM285.777 209H286.777V207H285.777V209ZM291.731 207H290.731V209H291.731V207ZM297.685 209H298.685V207H297.685V209ZM303.638 207H302.638V209H303.638V207ZM309.592 209H310.592V207H309.592V209ZM315.546 207H314.546V209H315.546V207ZM321.5 209H322.5V207H321.5V209ZM327.454 207H326.454V209H327.454V207ZM333.408 209H334.408V207H333.408V209ZM339.361 207H338.361V209H339.361V207ZM345.315 209H346.315V207H345.315V209ZM351.269 207H350.269V209H351.269V207ZM357.223 209H358.223V207H357.223V209ZM363.177 207H362.177V209H363.177V207ZM369.131 209H370.131V207H369.131V209ZM375.085 207H374.085V209H375.085V207ZM381.038 209H382.038V207H381.038V209ZM386.992 207H385.992V209H386.992V207ZM392.946 209H393.946V207H392.946V209ZM398.9 207H397.9V209H398.9V207ZM404.854 209H405.854V207H404.854V209ZM410.808 207H409.808V209H410.808V207ZM416.761 209H417.761V207H416.761V209ZM422.715 207H421.715V209H422.715V207ZM428.669 209H429.669V207H428.669V209ZM434.623 207H433.623V209H434.623V207ZM440.577 209H441.577V207H440.577V209ZM446.531 207H445.531V209H446.531V207ZM452.485 209H453.485V207H452.485V209ZM458.438 207H457.438V209H458.438V207ZM464.392 209H465.392V207H464.392V209ZM470.346 207H469.346V209H470.346V207ZM476.3 209H477.3V207H476.3V209ZM482.254 207H481.254V209H482.254V207ZM488.208 209H489.208V207H488.208V209ZM494.162 207H493.162V209H494.162V207ZM500.116 209H501.116V207H500.116V209ZM506.069 207H505.069V209H506.069V207ZM512.023 209H513.023V207H512.023V209ZM517.977 207H516.977V209H517.977V207ZM523.931 209H524.931V207H523.931V209ZM529.885 207H528.885V209H529.885V207ZM535.839 209H536.839V207H535.839V209ZM541.793 207H540.793V209H541.793V207ZM547.746 209H548.746V207H547.746V209ZM553.7 207H552.7V209H553.7V207ZM559.654 209H560.654V207H559.654V209ZM565.608 207H564.608V209H565.608V207ZM571.562 209H572.562V207H571.562V209ZM577.516 207H576.516V209H577.516V207ZM583.47 209H584.47V207H583.47V209ZM589.423 207H588.423V209H589.423V207ZM595.377 209H596.377V207H595.377V209ZM601.331 207H600.331V209H601.331V207ZM607.285 209H608.285V207H607.285V209ZM613.239 207H612.239V209H613.239V207ZM619.193 209H620.193V207H619.193V209ZM625.146 207H624.146V209H625.146V207ZM631.1 209H632.1V207H631.1V209ZM637.054 207H636.054V209H637.054V207ZM643.008 209H644.008V207H643.008V209ZM648.962 207H647.962V209H648.962V207ZM654.916 209H655.916V207H654.916V209ZM660.87 207H659.87V209H660.87V207ZM666.823 209H667.823V207H666.823V209ZM672.777 207H671.777V209H672.777V207ZM678.731 209H679.731V207H678.731V209ZM684.685 207H683.685V209H684.685V207ZM690.639 209H691.639V207H690.639V209ZM696.593 207H695.593V209H696.593V207ZM702.547 209H703.547V207H702.547V209ZM708.5 207H707.5V209H708.5V207ZM714.454 209H715.454V207H714.454V209ZM720.408 207H719.408V209H720.408V207ZM726.362 209H727.362V207H726.362V209ZM732.316 207H731.316V209H732.316V207ZM738.27 209H739.27V207H738.27V209ZM744.224 207H743.224V209H744.224V207ZM750.177 209H751.177V207H750.177V209ZM756.131 207H755.131V209H756.131V207ZM762.085 209H763.085V207H762.085V209ZM768.039 207H767.039V209H768.039V207ZM773.993 209H774.993V207H773.993V209ZM779.947 207H778.947V209H779.947V207ZM785.901 209H786.901V207H785.901V209ZM791.854 207H790.854V209H791.854V207ZM797.808 209H798.808V207H797.808V209ZM803.762 207H802.762V209H803.762V207ZM809.716 209H810.716V207H809.716V209ZM815.67 207H814.67V209H815.67V207ZM821.624 209H822.624V207H821.624V209ZM827.578 207H826.578V209H827.578V207ZM833.531 209H834.531V207H833.531V209ZM839.485 207H838.485V209H839.485V207ZM845.439 209H846.439V207H845.439V209ZM851.393 207H850.393V209H851.393V207ZM857.347 209H858.347V207H857.347V209ZM863.301 207H862.301V209H863.301V207ZM869.255 209H870.255V207H869.255V209ZM875.208 207H874.208V209H875.208V207ZM881.162 209H882.162V207H881.162V209ZM887.116 207H886.116V209H887.116V207ZM893.07 209H894.07V207H893.07V209ZM899.024 207H898.024V209H899.024V207ZM128 209H130.977V207H128V209ZM136.931 209H142.885V207H136.931V209ZM148.838 209H154.792V207H148.838V209ZM160.746 209H166.7V207H160.746V209ZM172.654 209H178.608V207H172.654V209ZM184.562 209H190.515V207H184.562V209ZM196.469 209H202.423V207H196.469V209ZM208.377 209H214.331V207H208.377V209ZM220.285 209H226.238V207H220.285V209ZM232.192 209H238.146V207H232.192V209ZM244.1 209H250.054V207H244.1V209ZM256.008 209H261.962V207H256.008V209ZM267.915 209H273.869V207H267.915V209ZM279.823 209H285.777V207H279.823V209ZM291.731 209H297.685V207H291.731V209ZM303.638 209H309.592V207H303.638V209ZM315.546 209H321.5V207H315.546V209ZM327.454 209H333.408V207H327.454V209ZM339.361 209H345.315V207H339.361V209ZM351.269 209H357.223V207H351.269V209ZM363.177 209H369.131V207H363.177V209ZM375.085 209H381.038V207H375.085V209ZM386.992 209H392.946V207H386.992V209ZM398.9 209H404.854V207H398.9V209ZM410.808 209H416.761V207H410.808V209ZM422.715 209H428.669V207H422.715V209ZM434.623 209H440.577V207H434.623V209ZM446.531 209H452.485V207H446.531V209ZM458.438 209H464.392V207H458.438V209ZM470.346 209H476.3V207H470.346V209ZM482.254 209H488.208V207H482.254V209ZM494.162 209H500.116V207H494.162V209ZM506.069 209H512.023V207H506.069V209ZM517.977 209H523.931V207H517.977V209ZM529.885 209H535.839V207H529.885V209ZM541.793 209H547.746V207H541.793V209ZM553.7 209H559.654V207H553.7V209ZM565.608 209H571.562V207H565.608V209ZM577.516 209H583.47V207H577.516V209ZM589.423 209H595.377V207H589.423V209ZM601.331 209H607.285V207H601.331V209ZM613.239 209H619.193V207H613.239V209ZM625.146 209H631.1V207H625.146V209ZM637.054 209H643.008V207H637.054V209ZM648.962 209H654.916V207H648.962V209ZM660.87 209H666.823V207H660.87V209ZM672.777 209H678.731V207H672.777V209ZM684.685 209H690.639V207H684.685V209ZM696.593 209H702.547V207H696.593V209ZM708.5 209H714.454V207H708.5V209ZM720.408 209H726.362V207H720.408V209ZM732.316 209H738.27V207H732.316V209ZM744.224 209H750.177V207H744.224V209ZM756.131 209H762.085V207H756.131V209ZM768.039 209H773.993V207H768.039V209ZM779.947 209H785.901V207H779.947V209ZM791.854 209H797.808V207H791.854V209ZM803.762 209H809.716V207H803.762V209ZM815.67 209H821.624V207H815.67V209ZM827.578 209H833.531V207H827.578V209ZM839.485 209H845.439V207H839.485V209ZM851.393 209H857.347V207H851.393V209ZM863.301 209H869.255V207H863.301V209ZM875.208 209H881.162V207H875.208V209ZM887.116 209H893.07V207H887.116V209ZM899.024 209H902V207H899.024V209Z" fill="#110529"/>
<path d="M912 208L912.707 207.293L913.414 208L912.707 208.707L912 208ZM904.707 216.707L904 217.414L902.586 216L903.293 215.293L904.707 216.707ZM903.293 200.707L902.586 200L904 198.586L904.707 199.293L903.293 200.707ZM902 207L912 207L912 209L902 209L902 207ZM912.707 208.707L904.707 216.707L903.293 215.293L911.293 207.293L912.707 208.707ZM911.293 208.707L903.293 200.707L904.707 199.293L912.707 207.293L911.293 208.707Z" fill="#110529"/>
<path d="M225 112V24" stroke="#D3D7E0" stroke-width="2" stroke-linecap="square" stroke-dasharray="6 6"/>
<path d="M239.268 37.21C237.714 37.21 236.412 36.181 235.999 34.711L237.406 34.333C237.637 35.229 238.47 35.796 239.31 35.796C240.416 35.796 241.291 34.907 241.291 33.829C241.291 32.723 240.388 31.855 239.31 31.855C238.484 31.855 237.917 32.247 237.602 32.667L236.328 32.219L236.636 26.92H242.075V28.299H237.945L237.777 31.071C238.274 30.714 238.904 30.525 239.499 30.525C241.382 30.525 242.768 31.939 242.768 33.829C242.768 35.705 241.151 37.21 239.268 37.21ZM244.672 29.629C245.281 29.678 245.456 29.202 245.386 28.607H244.581V26.92H246.128V28.747C246.128 29.846 245.589 30.462 244.581 30.28L244.672 29.629ZM252.15 37.21C249.777 37.21 248.132 35.663 248.132 33.29V26.927L249.616 26.92V33.213C249.616 34.935 250.897 35.831 252.15 35.831C253.417 35.831 254.684 34.914 254.684 33.213V26.92H256.168V33.29C256.168 35.663 254.523 37.21 252.15 37.21ZM260.639 37V28.299H257.286V26.92H265.455V28.299H262.102V37H260.639ZM266.576 37V26.92H270.65C270.846 26.92 271.161 26.934 271.427 26.976C273.114 27.235 273.954 28.516 273.954 30.147C273.954 31.491 273.38 32.597 272.239 33.094L274.143 37H272.47L270.713 33.381H268.039V37H266.576ZM268.039 31.995H270.594C270.776 31.995 271.021 31.981 271.231 31.932C272.127 31.715 272.463 30.889 272.463 30.147C272.463 29.405 272.127 28.579 271.231 28.369C271.021 28.313 270.776 28.299 270.594 28.299H268.039V31.995Z" fill="#D3D7E0"/>
<path d="M285 112V24" stroke="#D3D7E0" stroke-width="2" stroke-linecap="square" stroke-dasharray="6 6"/>
<path d="M294.442 37V26.92H295.905V35.621H300.469V37H294.442Z" fill="#D3D7E0"/>
<path d="M309 112V24" stroke="#D3D7E0" stroke-width="2" stroke-linecap="square" stroke-dasharray="6 6"/>
<path d="M322.858 37V26.92H328.829V28.383H324.321V31.225H327.989V32.695H324.321V37H322.858ZM330.09 37V26.92H334.164C334.36 26.92 334.675 26.934 334.941 26.976C336.628 27.235 337.468 28.516 337.468 30.147C337.468 31.491 336.894 32.597 335.753 33.094L337.657 37H335.984L334.227 33.381H331.553V37H330.09ZM331.553 31.995H334.108C334.29 31.995 334.535 31.981 334.745 31.932C335.641 31.715 335.977 30.889 335.977 30.147C335.977 29.405 335.641 28.579 334.745 28.369C334.535 28.313 334.29 28.299 334.108 28.299H331.553V31.995ZM340.953 37V28.53L339.056 29.685V28.054L340.953 26.92H342.444V37H340.953Z" fill="#D3D7E0"/>
<path d="M357 112V24" stroke="#D3D7E0" stroke-width="2" stroke-linecap="square" stroke-dasharray="6 6"/>
<path d="M368.735 37.21C365.711 37.21 363.968 35.075 363.968 31.96C363.968 28.845 365.711 26.71 368.735 26.71C371.059 26.71 372.62 27.977 373.215 29.965L371.731 30.364C371.332 28.957 370.331 28.103 368.735 28.103C366.593 28.103 365.522 29.65 365.515 31.96C365.501 34.27 366.593 35.817 368.735 35.817C370.331 35.817 371.332 34.963 371.731 33.556L373.215 33.955C372.62 35.943 371.059 37.21 368.735 37.21ZM374.754 37V26.92H377.911C378.093 26.92 378.695 26.92 379.164 26.983C381.53 27.284 382.79 29.391 382.79 31.96C382.79 34.529 381.53 36.636 379.164 36.937C378.695 37 378.093 37 377.911 37H374.754ZM376.252 35.607H377.911C378.233 35.607 378.723 35.6 379.059 35.537C380.599 35.243 381.236 33.689 381.236 31.96C381.236 30.189 380.571 28.663 379.059 28.383C378.723 28.32 378.219 28.313 377.911 28.313H376.252V35.607ZM384.42 37V26.92H388.494C388.69 26.92 389.005 26.934 389.271 26.976C390.958 27.235 391.798 28.516 391.798 30.147C391.798 31.491 391.224 32.597 390.083 33.094L391.987 37H390.314L388.557 33.381H385.883V37H384.42ZM385.883 31.995H388.438C388.62 31.995 388.865 31.981 389.075 31.932C389.971 31.715 390.307 30.889 390.307 30.147C390.307 29.405 389.971 28.579 389.075 28.369C388.865 28.313 388.62 28.299 388.438 28.299H385.883V31.995ZM395.283 37V28.53L393.386 29.685V28.054L395.283 26.92H396.774V37H395.283Z" fill="#D3D7E0"/>
<path d="M405 112V24" stroke="#D3D7E0" stroke-width="2" stroke-linecap="square" stroke-dasharray="6 6"/>
<path d="M417.703 37V26.92H423.674V28.383H419.166V31.225H422.834V32.695H419.166V37H417.703ZM424.935 37V26.92H429.009C429.205 26.92 429.52 26.934 429.786 26.976C431.473 27.235 432.313 28.516 432.313 30.147C432.313 31.491 431.739 32.597 430.598 33.094L432.502 37H430.829L429.072 33.381H426.398V37H424.935ZM426.398 31.995H428.953C429.135 31.995 429.38 31.981 429.59 31.932C430.486 31.715 430.822 30.889 430.822 30.147C430.822 29.405 430.486 28.579 429.59 28.369C429.38 28.313 429.135 28.299 428.953 28.299H426.398V31.995ZM433.761 36.993L433.768 35.691L438.157 31.757C438.864 31.127 439.074 30.581 439.074 30.007C439.074 28.929 438.297 28.103 437.212 28.103C436.092 28.103 435.28 28.985 435.294 30H433.796C433.796 28.047 435.231 26.71 437.24 26.71C439.144 26.71 440.579 28.117 440.579 30.028C440.579 31.407 440.033 32.037 438.941 32.996L436.022 35.6H440.579V36.993H433.761Z" fill="#D3D7E0"/>
<path d="M453 112V24" stroke="#D3D7E0" stroke-width="2" stroke-linecap="square" stroke-dasharray="6 6"/>
<path d="M463.58 37.21C460.556 37.21 458.813 35.075 458.813 31.96C458.813 28.845 460.556 26.71 463.58 26.71C465.904 26.71 467.465 27.977 468.06 29.965L466.576 30.364C466.177 28.957 465.176 28.103 463.58 28.103C461.438 28.103 460.367 29.65 460.36 31.96C460.346 34.27 461.438 35.817 463.58 35.817C465.176 35.817 466.177 34.963 466.576 33.556L468.06 33.955C467.465 35.943 465.904 37.21 463.58 37.21ZM469.599 37V26.92H472.756C472.938 26.92 473.54 26.92 474.009 26.983C476.375 27.284 477.635 29.391 477.635 31.96C477.635 34.529 476.375 36.636 474.009 36.937C473.54 37 472.938 37 472.756 37H469.599ZM471.097 35.607H472.756C473.078 35.607 473.568 35.6 473.904 35.537C475.444 35.243 476.081 33.689 476.081 31.96C476.081 30.189 475.416 28.663 473.904 28.383C473.568 28.32 473.064 28.313 472.756 28.313H471.097V35.607ZM479.265 37V26.92H483.339C483.535 26.92 483.85 26.934 484.116 26.976C485.803 27.235 486.643 28.516 486.643 30.147C486.643 31.491 486.069 32.597 484.928 33.094L486.832 37H485.159L483.402 33.381H480.728V37H479.265ZM480.728 31.995H483.283C483.465 31.995 483.71 31.981 483.92 31.932C484.816 31.715 485.152 30.889 485.152 30.147C485.152 29.405 484.816 28.579 483.92 28.369C483.71 28.313 483.465 28.299 483.283 28.299H480.728V31.995ZM488.091 36.993L488.098 35.691L492.487 31.757C493.194 31.127 493.404 30.581 493.404 30.007C493.404 28.929 492.627 28.103 491.542 28.103C490.422 28.103 489.61 28.985 489.624 30H488.126C488.126 28.047 489.561 26.71 491.57 26.71C493.474 26.71 494.909 28.117 494.909 30.028C494.909 31.407 494.363 32.037 493.271 32.996L490.352 35.6H494.909V36.993H488.091Z" fill="#D3D7E0"/>
<path d="M501 112V24" stroke="#D3D7E0" stroke-width="2" stroke-linecap="square" stroke-dasharray="6 6"/>
<path d="M513.805 37V26.92H519.776V28.383H515.268V31.225H518.936V32.695H515.268V37H513.805ZM521.038 37V26.92H525.112C525.308 26.92 525.623 26.934 525.889 26.976C527.576 27.235 528.416 28.516 528.416 30.147C528.416 31.491 527.842 32.597 526.701 33.094L528.605 37H526.932L525.175 33.381H522.501V37H521.038ZM522.501 31.995H525.056C525.238 31.995 525.483 31.981 525.693 31.932C526.589 31.715 526.925 30.889 526.925 30.147C526.925 29.405 526.589 28.579 525.693 28.369C525.483 28.313 525.238 28.299 525.056 28.299H522.501V31.995ZM532.964 37.189C531.466 37.189 530.15 36.293 529.723 34.858L531.137 34.466C531.403 35.341 532.138 35.81 532.964 35.803C534.07 35.789 534.833 34.984 534.833 33.871C534.833 32.751 534.07 31.939 532.95 31.939C532.628 31.939 532.285 32.037 531.998 32.191L531.312 31.036L534.392 28.313H530.122V26.92H536.184V28.313L533.692 30.707C535.323 30.924 536.331 32.233 536.331 33.871C536.331 35.796 534.847 37.189 532.964 37.189Z" fill="#D3D7E0"/>
<path d="M549 112V24" stroke="#D3D7E0" stroke-width="2" stroke-linecap="square" stroke-dasharray="6 6"/>
<path d="M592.682 37.21C589.658 37.21 587.915 35.075 587.915 31.96C587.915 28.845 589.658 26.71 592.682 26.71C595.006 26.71 596.567 27.977 597.162 29.965L595.678 30.364C595.279 28.957 594.278 28.103 592.682 28.103C590.54 28.103 589.469 29.65 589.462 31.96C589.448 34.27 590.54 35.817 592.682 35.817C594.278 35.817 595.279 34.963 595.678 33.556L597.162 33.955C596.567 35.943 595.006 37.21 592.682 37.21ZM598.702 37V26.92H601.859C602.041 26.92 602.643 26.92 603.112 26.983C605.478 27.284 606.738 29.391 606.738 31.96C606.738 34.529 605.478 36.636 603.112 36.937C602.643 37 602.041 37 601.859 37H598.702ZM600.2 35.607H601.859C602.181 35.607 602.671 35.6 603.007 35.537C604.547 35.243 605.184 33.689 605.184 31.96C605.184 30.189 604.519 28.663 603.007 28.383C602.671 28.32 602.167 28.313 601.859 28.313H600.2V35.607ZM608.368 37V26.92H612.442C612.638 26.92 612.953 26.934 613.219 26.976C614.906 27.235 615.746 28.516 615.746 30.147C615.746 31.491 615.172 32.597 614.031 33.094L615.935 37H614.262L612.505 33.381H609.831V37H608.368ZM609.831 31.995H612.386C612.568 31.995 612.813 31.981 613.023 31.932C613.919 31.715 614.255 30.889 614.255 30.147C614.255 29.405 613.919 28.579 613.023 28.369C612.813 28.313 612.568 28.299 612.386 28.299H609.831V31.995ZM620.294 37.189C618.796 37.189 617.48 36.293 617.053 34.858L618.467 34.466C618.733 35.341 619.468 35.81 620.294 35.803C621.4 35.789 622.163 34.984 622.163 33.871C622.163 32.751 621.4 31.939 620.28 31.939C619.958 31.939 619.615 32.037 619.328 32.191L618.642 31.036L621.722 28.313H617.452V26.92H623.514V28.313L621.022 30.707C622.653 30.924 623.661 32.233 623.661 33.871C623.661 35.796 622.177 37.189 620.294 37.189Z" fill="#D3D7E0"/>
<path d="M666 112V24" stroke="#D3D7E0" stroke-width="2" stroke-linecap="square" stroke-dasharray="6 6"/>
<path d="M689.593 37H691.056V32.695H694.724V31.225H691.056V28.383H695.564V26.92H689.593V37ZM696.826 37H698.289V33.381H700.963L702.72 37H704.393L702.489 33.094C703.63 32.597 704.204 31.491 704.204 30.147C704.204 28.516 703.364 27.235 701.677 26.976C701.411 26.934 701.096 26.92 700.9 26.92H696.826V37ZM698.289 31.995V28.299H700.844C701.026 28.299 701.271 28.313 701.481 28.369C702.377 28.579 702.713 29.405 702.713 30.147C702.713 30.889 702.377 31.715 701.481 31.932C701.271 31.981 701.026 31.995 700.844 31.995H698.289ZM710.201 37H711.685V35.243H712.686V33.857H711.685V31.127H710.201V33.857H707.324L710.6 26.92H708.927L705.651 33.857V35.243H710.201V37Z" fill="#D3D7E0"/>
<path d="M736 112V24" stroke="#D3D7E0" stroke-width="2" stroke-linecap="square" stroke-dasharray="6 6"/>
<rect width="46" height="20" transform="translate(152 76)" fill="white"/>
<path d="M159.267 80L157 81.35V83L159.267 81.6333V92H160.767V80H159.267ZM170.582 88.3833V85H169.082V88.3833H165.166L169.116 80H167.566L163.599 88.3833V89.7833H169.082V92H170.582V89.7833H171.832V88.3833H170.582ZM181.272 84.1833C180.539 83.25 179.389 82.75 178.155 82.75C177.089 82.75 176.072 83.15 175.339 83.85V80H173.839V92H175.172V90.95C175.889 91.8167 176.955 92.25 178.155 92.25C179.372 92.25 180.522 91.7333 181.272 90.8C182.022 89.85 182.272 88.6667 182.272 87.4833C182.272 86.3 181.989 85.1 181.272 84.1833ZM180.072 89.8833C179.589 90.5667 178.789 90.8833 177.972 90.8833C177.139 90.8833 176.372 90.5833 175.872 89.9667C175.372 89.35 175.172 88.4167 175.172 87.4833C175.172 86.5667 175.372 85.65 175.872 85.0167C176.355 84.4 177.105 84.1 177.922 84.1C178.805 84.1 179.572 84.4167 180.055 85.1C180.522 85.7167 180.689 86.5833 180.689 87.4833C180.689 88.3833 180.539 89.2667 180.072 89.8833ZM191.538 84.1833C190.804 83.25 189.654 82.75 188.421 82.75C187.271 82.75 186.171 83.2 185.438 84.0167V83H184.104V96H185.604V91.15C186.304 91.8833 187.304 92.25 188.421 92.25C189.638 92.25 190.788 91.7333 191.538 90.8C192.288 89.85 192.538 88.6667 192.538 87.4833C192.538 86.3 192.254 85.1 191.538 84.1833ZM190.338 89.8833C189.854 90.5667 189.054 90.8833 188.238 90.8833C187.404 90.8833 186.638 90.5833 186.138 89.9667C185.638 89.35 185.438 88.4167 185.438 87.4833C185.438 86.5667 185.638 85.65 186.138 85.0167C186.621 84.4 187.371 84.1 188.188 84.1C189.071 84.1 189.838 84.4167 190.321 85.1C190.788 85.7167 190.954 86.5833 190.954 87.4833C190.954 88.3833 190.804 89.2667 190.338 89.8833Z" fill="#110529"/>
<rect width="46" height="20" transform="translate(101 76)" fill="white"/>
<path d="M105.8 91.992L105.808 90.712L110.92 86.112C111.768 85.352 112 84.688 112 83.96C112 82.632 111.008 81.6 109.68 81.6C108.304 81.6 107.296 82.696 107.312 83.952H105.856C105.856 81.784 107.488 80.24 109.704 80.24C111.84 80.24 113.456 81.856 113.456 83.976C113.456 85.488 112.888 86.248 111.704 87.296L107.992 90.632H113.456V91.992H105.8ZM118.53 92.224C116.818 92.224 115.378 91.232 114.89 89.632L116.258 89.24C116.602 90.312 117.498 90.88 118.522 90.864C119.922 90.84 120.826 89.864 120.826 88.456C120.826 87.032 119.89 86.048 118.506 86.048C118.114 86.048 117.674 86.168 117.314 86.352L116.626 85.224L120.37 81.84H115.346V80.48H122.138V81.848L119.026 84.832C121.01 84.944 122.29 86.44 122.29 88.456C122.29 90.664 120.666 92.224 118.53 92.224ZM128.338 92.24C127.17 92.24 126.266 91.784 125.634 91.024V92H124.362V80.48H125.794V84.144C126.41 83.496 127.266 83.12 128.346 83.12C130.746 83.12 132.21 85.08 132.21 87.672C132.21 90.264 130.754 92.24 128.338 92.24ZM125.634 87.672C125.634 89.568 126.418 90.936 128.162 90.936C129.866 90.936 130.698 89.512 130.698 87.672C130.698 85.848 129.882 84.424 128.122 84.424C126.434 84.424 125.634 85.76 125.634 87.672ZM137.932 92.24C136.86 92.24 136.004 91.856 135.388 91.2V95.84H133.956V83.36H135.228V84.328C135.86 83.568 136.764 83.12 137.94 83.12C140.34 83.12 141.804 85.08 141.804 87.672C141.804 90.264 140.348 92.24 137.932 92.24ZM135.228 87.672C135.228 89.568 136.012 90.936 137.756 90.936C139.46 90.936 140.292 89.512 140.292 87.672C140.292 85.848 139.476 84.424 137.716 84.424C136.028 84.424 135.228 85.76 135.228 87.672Z" fill="#110529"/>
<g filter="url(#filter0_i_6921_6467)">
<rect x="96" y="108" width="56" height="52" rx="1" fill="#D3D7E0"/>
<rect x="96" y="108" width="56" height="52" rx="1" stroke="#110529" stroke-width="2" stroke-linecap="round"/>
</g>
<g filter="url(#filter1_i_6921_6467)">
<rect x="152" y="108" width="48" height="52" rx="1" fill="#D6E0FF"/>
<path d="M164.553 142.3C161.213 142.3 158.873 140.11 158.873 136.75V127.61L160.673 127.6V136.6C160.673 139.33 162.733 140.62 164.553 140.62C166.393 140.62 168.433 139.31 168.433 136.6V127.6H170.233V136.75C170.233 140.1 167.893 142.3 164.553 142.3ZM173.033 142V127.6H174.653L180.093 139.07L185.503 127.6H187.143V141.99H185.453V131.51L180.563 142H179.613L174.723 131.51V142H173.033ZM190.147 142V127.6H191.927V142H190.147Z" fill="#110529"/>
<rect x="152" y="108" width="48" height="52" rx="1" stroke="#110529" stroke-width="2" stroke-linecap="round"/>
</g>
<g filter="url(#filter2_i_6921_6467)">
<rect x="200" y="108" width="24" height="52" rx="1" fill="#D3D7E0"/>
<rect x="200" y="108" width="24" height="52" rx="1" stroke="#110529" stroke-width="2" stroke-linecap="round"/>
</g>
<g filter="url(#filter3_i_6921_6467)">
<rect x="224" y="108" width="336" height="52" rx="1" fill="#99E099"/>
<path d="M390.758 142L385.938 127.6H387.788L391.978 140.11L396.208 127.6H398.058L393.238 142H390.758Z" fill="#110529"/>
<rect x="224" y="108" width="336" height="52" rx="1" stroke="#110529" stroke-width="2" stroke-linecap="round"/>
</g>
<g filter="url(#filter4_i_6921_6467)">
<rect x="560" y="108" width="30" height="52" rx="1" fill="#CBEB67"/>
</g>
<rect x="560" y="108" width="30" height="52" rx="1" stroke="#110529" stroke-width="2" stroke-linecap="round"/>
<g filter="url(#filter5_i_6921_6467)">
<rect x="626" y="108" width="30" height="52" rx="1" fill="#FAAAFA"/>
</g>
<rect x="626" y="108" width="30" height="52" rx="1" stroke="#110529" stroke-width="2" stroke-linecap="round"/>
<g filter="url(#filter6_i_6921_6467)">
<rect x="590" y="108" width="36" height="52" rx="1" fill="#FFCB8F"/>
</g>
<rect x="590" y="108" width="36" height="52" rx="1" stroke="#110529" stroke-width="2" stroke-linecap="round"/>
<path d="M569.447 142V127.6H571.247L578.757 138.85V127.6H580.557V142H578.757L571.247 130.74V142H569.447Z" fill="#110529"/>
<path d="M635.447 142V127.6H637.247L644.757 138.85V127.6H646.557V142H644.757L637.247 130.74V142H635.447Z" fill="#110529"/>
<path d="M602.593 142V127.6H607.033C607.313 127.6 608.173 127.6 608.853 127.69C612.183 128.13 613.913 131.13 613.913 134.8C613.913 138.48 612.183 141.47 608.853 141.91C608.183 142 607.303 142 607.033 142H602.593ZM604.423 140.3H607.033C607.533 140.3 608.233 140.28 608.703 140.19C611.063 139.76 612.023 137.47 612.023 134.8C612.023 132.08 611.033 129.83 608.703 129.41C608.233 129.32 607.513 129.3 607.033 129.3H604.423V140.3Z" fill="#110529"/>
<g filter="url(#filter7_i_6921_6467)">
<rect x="656" y="108" width="80" height="52" rx="1" fill="#C1ADFF"/>
<path d="M695.244 142.29C693.224 142.29 691.754 141.11 691.244 139.27L693.014 138.85C693.224 139.83 694.134 140.6 695.204 140.6C695.884 140.6 696.704 140.29 697.094 139.51C697.354 138.99 697.354 138.37 697.354 137.48V127.6H699.154V137.48C699.154 138.72 699.214 139.51 698.684 140.43C697.954 141.7 696.694 142.29 695.244 142.29Z" fill="#110529"/>
<rect x="656" y="108" width="80" height="52" rx="1" stroke="#110529" stroke-width="2" stroke-linecap="round"/>
</g>
<g filter="url(#filter8_i_6921_6467)">
<rect x="736" y="108" width="112" height="52" rx="1" fill="#FAFAAA"/>
<path d="M792.093 142.3C787.783 142.3 785.373 139.24 785.373 134.8C785.373 130.36 787.783 127.3 792.093 127.3C795.423 127.3 797.613 129.13 798.433 131.99L796.623 132.47C796.033 130.33 794.523 129 792.093 129C788.873 129 787.273 131.35 787.253 134.8C787.233 138.25 788.873 140.6 792.093 140.6C794.523 140.6 796.033 139.27 796.623 137.13L798.433 137.61C797.613 140.47 795.423 142.3 792.093 142.3Z" fill="#110529"/>
<rect x="736" y="108" width="112" height="52" rx="1" stroke="#110529" stroke-width="2" stroke-linecap="round"/>
</g>
<g filter="url(#filter9_i_6921_6467)">
<rect x="848" y="108" width="64" height="52" rx="1" fill="#90E0E0"/>
<path d="M860.426 142.3C857.366 142.3 855.096 140.66 854.616 138.01L856.456 137.72C856.916 139.54 858.506 140.61 860.516 140.61C862.446 140.61 863.976 139.65 863.976 138.08C863.976 136.82 862.996 136.28 861.966 135.97L858.296 134.88C856.696 134.41 855.176 133.48 855.176 131.35C855.176 128.8 857.346 127.3 860.216 127.31C863.116 127.33 865.196 128.9 865.726 131.52L863.836 131.85C863.536 130.1 862.026 129.02 860.196 129C858.426 128.98 857.056 129.94 857.056 131.27C857.056 132.6 858.386 133.06 859.456 133.36L862.196 134.15C863.446 134.5 865.816 135.21 865.816 137.98C865.816 140.77 863.416 142.3 860.426 142.3ZM867.914 142V127.6H869.534L874.974 139.07L880.384 127.6H882.024V141.99H880.334V131.51L875.444 142H874.494L869.604 131.51V142H867.914ZM884.828 142V127.6H890.518C890.798 127.6 891.208 127.62 891.578 127.68C893.908 128.04 895.138 129.85 895.138 132.14C895.138 134.43 893.898 136.24 891.578 136.6C891.208 136.66 890.788 136.68 890.518 136.68H886.608V142H884.828ZM886.608 134.99H890.458C890.708 134.99 891.058 134.97 891.358 134.9C892.738 134.59 893.318 133.34 893.318 132.14C893.318 130.94 892.738 129.69 891.358 129.38C891.058 129.31 890.708 129.29 890.458 129.29H886.608V134.99ZM897.332 142V127.6H899.112V140.31H905.792V142H897.332Z" fill="#110529"/>
<rect x="848" y="108" width="64" height="52" rx="1" stroke="#110529" stroke-width="2" stroke-linecap="round"/>
</g>
<rect width="32" height="20" transform="translate(197 76)" fill="white"/>
<path d="M200.728 92L204.872 81.848H199.64V80.48H206.4V81.848L202.264 92H200.728ZM212.291 92.24C211.123 92.24 210.219 91.784 209.587 91.024V92H208.315V80.48H209.747V84.144C210.363 83.496 211.219 83.12 212.299 83.12C214.699 83.12 216.163 85.08 216.163 87.672C216.163 90.264 214.707 92.24 212.291 92.24ZM209.587 87.672C209.587 89.568 210.371 90.936 212.115 90.936C213.819 90.936 214.651 89.512 214.651 87.672C214.651 85.848 213.835 84.424 212.075 84.424C210.387 84.424 209.587 85.76 209.587 87.672ZM221.885 92.24C220.813 92.24 219.957 91.856 219.341 91.2V95.84H217.909V83.36H219.181V84.328C219.813 83.568 220.717 83.12 221.893 83.12C224.293 83.12 225.757 85.08 225.757 87.672C225.757 90.264 224.301 92.24 221.885 92.24ZM219.181 87.672C219.181 89.568 219.965 90.936 221.709 90.936C223.413 90.936 224.245 89.512 224.245 87.672C224.245 85.848 223.429 84.424 221.669 84.424C219.981 84.424 219.181 85.76 219.181 87.672Z" fill="#110529"/>
<rect width="40" height="20" transform="translate(844 76)" fill="white"/>
<path d="M849.128 92V82.056L846.96 83.368V81.776L849.128 80.48H850.576V92H849.128ZM857.548 92.24C855.348 92.24 853.62 90.512 853.62 88.2V84.368C853.62 81.952 855.316 80.248 857.676 80.248C858.94 80.248 860.076 80.784 860.828 81.752L859.764 82.696C859.3 82.032 858.524 81.6 857.676 81.6C856.148 81.6 855.068 82.832 855.068 84.208V85.776C855.732 85.04 856.684 84.584 857.716 84.584C859.86 84.584 861.476 86.24 861.476 88.384C861.476 90.528 859.692 92.24 857.548 92.24ZM855.068 88.384C855.068 89.744 856.172 90.864 857.548 90.864C858.924 90.864 860.036 89.76 860.036 88.384C860.036 87.008 858.932 85.896 857.556 85.896C856.18 85.896 855.068 87.008 855.068 88.384ZM867.526 92.24C866.358 92.24 865.454 91.784 864.822 91.024V92H863.55V80.48H864.982V84.144C865.598 83.496 866.454 83.12 867.534 83.12C869.934 83.12 871.398 85.08 871.398 87.672C871.398 90.264 869.942 92.24 867.526 92.24ZM864.822 87.672C864.822 89.568 865.606 90.936 867.35 90.936C869.054 90.936 869.886 89.512 869.886 87.672C869.886 85.848 869.07 84.424 867.31 84.424C865.622 84.424 864.822 85.76 864.822 87.672ZM877.119 92.24C876.047 92.24 875.191 91.856 874.575 91.2V95.84H873.143V83.36H874.415V84.328C875.047 83.568 875.951 83.12 877.127 83.12C879.527 83.12 880.991 85.08 880.991 87.672C880.991 90.264 879.535 92.24 877.119 92.24ZM874.415 87.672C874.415 89.568 875.199 90.936 876.943 90.936C878.647 90.936 879.479 89.512 879.479 87.672C879.479 85.848 878.663 84.424 876.903 84.424C875.215 84.424 874.415 85.76 874.415 87.672Z" fill="#110529"/>
<path d="M32.9984 142V127.6H34.7784V142H32.9984ZM43.6089 142.3C39.6389 142.3 36.9789 139.44 36.9789 134.8C36.9789 130.21 39.5789 127.31 43.6089 127.31C46.8289 127.31 48.7989 128.92 49.5489 131.51L47.7489 131.88C47.1389 130.14 45.7489 129.02 43.6989 129.01C40.4789 128.99 38.8889 131.35 38.8689 134.8C38.8489 138.25 40.4789 140.58 43.6989 140.6C46.4789 140.62 47.9189 138.93 48.1389 136.06H45.0789V134.59H50.0189C50.0489 134.87 50.0589 135.32 50.0589 135.44C50.0589 139.39 47.8189 142.3 43.6089 142.3ZM52.0563 142V127.6H53.8363V133.95H61.4163V127.6H63.1963V142H61.4163V135.64H53.8363V142H52.0563Z" fill="#110529"/>
<defs>
<filter id="filter0_i_6921_6467" x="95" y="107" width="58" height="54" filterUnits="userSpaceOnUse" color-interpolation-filters="sRGB">
<feFlood flood-opacity="0" result="BackgroundImageFix"/>
<feBlend mode="normal" in="SourceGraphic" in2="BackgroundImageFix" result="shape"/>
<feColorMatrix in="SourceAlpha" type="matrix" values="0 0 0 0 0 0 0 0 0 0 0 0 0 0 0 0 0 0 127 0" result="hardAlpha"/>
<feOffset dx="-8" dy="-4"/>
<feComposite in2="hardAlpha" operator="arithmetic" k2="-1" k3="1"/>
<feColorMatrix type="matrix" values="0 0 0 0 0.0666667 0 0 0 0 0.0196078 0 0 0 0 0.160784 0 0 0 0.16 0"/>
<feBlend mode="normal" in2="shape" result="effect1_innerShadow_6921_6467"/>
</filter>
<filter id="filter1_i_6921_6467" x="151" y="107" width="50" height="54" filterUnits="userSpaceOnUse" color-interpolation-filters="sRGB">
<feFlood flood-opacity="0" result="BackgroundImageFix"/>
<feBlend mode="normal" in="SourceGraphic" in2="BackgroundImageFix" result="shape"/>
<feColorMatrix in="SourceAlpha" type="matrix" values="0 0 0 0 0 0 0 0 0 0 0 0 0 0 0 0 0 0 127 0" result="hardAlpha"/>
<feOffset dx="-8" dy="-4"/>
<feComposite in2="hardAlpha" operator="arithmetic" k2="-1" k3="1"/>
<feColorMatrix type="matrix" values="0 0 0 0 0.0666667 0 0 0 0 0.0196078 0 0 0 0 0.160784 0 0 0 0.16 0"/>
<feBlend mode="normal" in2="shape" result="effect1_innerShadow_6921_6467"/>
</filter>
<filter id="filter2_i_6921_6467" x="199" y="107" width="26" height="54" filterUnits="userSpaceOnUse" color-interpolation-filters="sRGB">
<feFlood flood-opacity="0" result="BackgroundImageFix"/>
<feBlend mode="normal" in="SourceGraphic" in2="BackgroundImageFix" result="shape"/>
<feColorMatrix in="SourceAlpha" type="matrix" values="0 0 0 0 0 0 0 0 0 0 0 0 0 0 0 0 0 0 127 0" result="hardAlpha"/>
<feOffset dx="-8" dy="-4"/>
<feComposite in2="hardAlpha" operator="arithmetic" k2="-1" k3="1"/>
<feColorMatrix type="matrix" values="0 0 0 0 0.0666667 0 0 0 0 0.0196078 0 0 0 0 0.160784 0 0 0 0.16 0"/>
<feBlend mode="normal" in2="shape" result="effect1_innerShadow_6921_6467"/>
</filter>
<filter id="filter3_i_6921_6467" x="223" y="107" width="338" height="54" filterUnits="userSpaceOnUse" color-interpolation-filters="sRGB">
<feFlood flood-opacity="0" result="BackgroundImageFix"/>
<feBlend mode="normal" in="SourceGraphic" in2="BackgroundImageFix" result="shape"/>
<feColorMatrix in="SourceAlpha" type="matrix" values="0 0 0 0 0 0 0 0 0 0 0 0 0 0 0 0 0 0 127 0" result="hardAlpha"/>
<feOffset dx="-8" dy="-4"/>
<feComposite in2="hardAlpha" operator="arithmetic" k2="-1" k3="1"/>
<feColorMatrix type="matrix" values="0 0 0 0 0.0666667 0 0 0 0 0.0196078 0 0 0 0 0.160784 0 0 0 0.16 0"/>
<feBlend mode="normal" in2="shape" result="effect1_innerShadow_6921_6467"/>
</filter>
<filter id="filter4_i_6921_6467" x="559" y="107" width="32" height="54" filterUnits="userSpaceOnUse" color-interpolation-filters="sRGB">
<feFlood flood-opacity="0" result="BackgroundImageFix"/>
<feBlend mode="normal" in="SourceGraphic" in2="BackgroundImageFix" result="shape"/>
<feColorMatrix in="SourceAlpha" type="matrix" values="0 0 0 0 0 0 0 0 0 0 0 0 0 0 0 0 0 0 127 0" result="hardAlpha"/>
<feOffset dx="-8" dy="-4"/>
<feComposite in2="hardAlpha" operator="arithmetic" k2="-1" k3="1"/>
<feColorMatrix type="matrix" values="0 0 0 0 0.0666667 0 0 0 0 0.0196078 0 0 0 0 0.160784 0 0 0 0.16 0"/>
<feBlend mode="normal" in2="shape" result="effect1_innerShadow_6921_6467"/>
</filter>
<filter id="filter5_i_6921_6467" x="625" y="107" width="32" height="54" filterUnits="userSpaceOnUse" color-interpolation-filters="sRGB">
<feFlood flood-opacity="0" result="BackgroundImageFix"/>
<feBlend mode="normal" in="SourceGraphic" in2="BackgroundImageFix" result="shape"/>
<feColorMatrix in="SourceAlpha" type="matrix" values="0 0 0 0 0 0 0 0 0 0 0 0 0 0 0 0 0 0 127 0" result="hardAlpha"/>
<feOffset dx="-8" dy="-4"/>
<feComposite in2="hardAlpha" operator="arithmetic" k2="-1" k3="1"/>
<feColorMatrix type="matrix" values="0 0 0 0 0.0666667 0 0 0 0 0.0196078 0 0 0 0 0.160784 0 0 0 0.16 0"/>
<feBlend mode="normal" in2="shape" result="effect1_innerShadow_6921_6467"/>
</filter>
<filter id="filter6_i_6921_6467" x="589" y="107" width="38" height="54" filterUnits="userSpaceOnUse" color-interpolation-filters="sRGB">
<feFlood flood-opacity="0" result="BackgroundImageFix"/>
<feBlend mode="normal" in="SourceGraphic" in2="BackgroundImageFix" result="shape"/>
<feColorMatrix in="SourceAlpha" type="matrix" values="0 0 0 0 0 0 0 0 0 0 0 0 0 0 0 0 0 0 127 0" result="hardAlpha"/>
<feOffset dx="-8" dy="-4"/>
<feComposite in2="hardAlpha" operator="arithmetic" k2="-1" k3="1"/>
<feColorMatrix type="matrix" values="0 0 0 0 0.0666667 0 0 0 0 0.0196078 0 0 0 0 0.160784 0 0 0 0.16 0"/>
<feBlend mode="normal" in2="shape" result="effect1_innerShadow_6921_6467"/>
</filter>
<filter id="filter7_i_6921_6467" x="655" y="107" width="82" height="54" filterUnits="userSpaceOnUse" color-interpolation-filters="sRGB">
<feFlood flood-opacity="0" result="BackgroundImageFix"/>
<feBlend mode="normal" in="SourceGraphic" in2="BackgroundImageFix" result="shape"/>
<feColorMatrix in="SourceAlpha" type="matrix" values="0 0 0 0 0 0 0 0 0 0 0 0 0 0 0 0 0 0 127 0" result="hardAlpha"/>
<feOffset dx="-8" dy="-4"/>
<feComposite in2="hardAlpha" operator="arithmetic" k2="-1" k3="1"/>
<feColorMatrix type="matrix" values="0 0 0 0 0.0666667 0 0 0 0 0.0196078 0 0 0 0 0.160784 0 0 0 0.16 0"/>
<feBlend mode="normal" in2="shape" result="effect1_innerShadow_6921_6467"/>
</filter>
<filter id="filter8_i_6921_6467" x="735" y="107" width="114" height="54" filterUnits="userSpaceOnUse" color-interpolation-filters="sRGB">
<feFlood flood-opacity="0" result="BackgroundImageFix"/>
<feBlend mode="normal" in="SourceGraphic" in2="BackgroundImageFix" result="shape"/>
<feColorMatrix in="SourceAlpha" type="matrix" values="0 0 0 0 0 0 0 0 0 0 0 0 0 0 0 0 0 0 127 0" result="hardAlpha"/>
<feOffset dx="-8" dy="-4"/>
<feComposite in2="hardAlpha" operator="arithmetic" k2="-1" k3="1"/>
<feColorMatrix type="matrix" values="0 0 0 0 0.0666667 0 0 0 0 0.0196078 0 0 0 0 0.160784 0 0 0 0.16 0"/>
<feBlend mode="normal" in2="shape" result="effect1_innerShadow_6921_6467"/>
</filter>
<filter id="filter9_i_6921_6467" x="847" y="107" width="66" height="54" filterUnits="userSpaceOnUse" color-interpolation-filters="sRGB">
<feFlood flood-opacity="0" result="BackgroundImageFix"/>
<feBlend mode="normal" in="SourceGraphic" in2="BackgroundImageFix" result="shape"/>
<feColorMatrix in="SourceAlpha" type="matrix" values="0 0 0 0 0 0 0 0 0 0 0 0 0 0 0 0 0 0 127 0" result="hardAlpha"/>
<feOffset dx="-8" dy="-4"/>
<feComposite in2="hardAlpha" operator="arithmetic" k2="-1" k3="1"/>
<feColorMatrix type="matrix" values="0 0 0 0 0.0666667 0 0 0 0 0.0196078 0 0 0 0 0.160784 0 0 0 0.16 0"/>
<feBlend mode="normal" in2="shape" result="effect1_innerShadow_6921_6467"/>
</filter>
</defs>
</svg>
