<svg width="1240" height="392" viewBox="0 0 1240 392" fill="none" xmlns="http://www.w3.org/2000/svg">
    <rect width="1240" height="392" fill="#1D1D29"/>
    <g filter="url(#filter0_i_5874_36215)">
        <path d="M200 80H350.4C350.96 80 351.24 80 351.454 80.109C351.642 80.2049 351.795 80.3578 351.891 80.546C352 80.7599 352 81.0399 352 81.6V118.4C352 118.96 352 119.24 351.891 119.454C351.795 119.642 351.642 119.795 351.454 119.891C351.24 120 350.96 120 350.4 120H200L196 115L200 110L196 104.615L200 100L196 95L200 90L196 85L200 80Z" fill="#99E099"/>
    </g>
    <path d="M200 80H350.4C350.96 80 351.24 80 351.454 80.109C351.642 80.2049 351.795 80.3578 351.891 80.546C352 80.7599 352 81.0399 352 81.6V118.4C352 118.96 352 119.24 351.891 119.454C351.795 119.642 351.642 119.795 351.454 119.891C351.24 120 350.96 120 350.4 120H200L196 115L200 110L196 104.615L200 100L196 95L200 90L196 85L200 80Z" stroke="#110529" stroke-width="2" stroke-linecap="round"/>
    <g filter="url(#filter1_i_5874_36215)">
        <path d="M1032 80H881.6C881.04 80 880.76 80 880.546 80.109C880.358 80.2049 880.205 80.3578 880.109 80.546C880 80.7599 880 81.0399 880 81.6V118.4C880 118.96 880 119.24 880.109 119.454C880.205 119.642 880.358 119.795 880.546 119.891C880.76 120 881.04 120 881.6 120H1032L1036 115L1032 110L1036 104.615L1032 100L1036 95L1032 90L1036 85L1032 80Z" fill="#C1ADFF"/>
    </g>
    <path d="M1032 80H881.6C881.04 80 880.76 80 880.546 80.109C880.358 80.2049 880.205 80.3578 880.109 80.546C880 80.7599 880 81.0399 880 81.6V118.4C880 118.96 880 119.24 880.109 119.454C880.205 119.642 880.358 119.795 880.546 119.891C880.76 120 881.04 120 881.6 120H1032L1036 115L1032 110L1036 104.615L1032 100L1036 95L1032 90L1036 85L1032 80Z" stroke="#110529" stroke-width="2" stroke-linecap="round"/>
    <path d="M592 24L592 80" stroke="white" stroke-opacity="0.3" stroke-width="2"/>
    <path d="M549.67 40H551.654L555.51 28.48H554.03L550.646 38.488L547.294 28.48H545.814L549.67 40ZM556.714 40H563.994V38.648H558.138V34.792H563.034V33.44H558.138V29.832H563.994V28.48H556.714V40ZM572.069 35.672V40H573.509V35.224C573.509 33.584 572.853 31.136 570.069 31.136C568.821 31.136 567.829 31.616 567.189 32.472V31.36H565.909V40H567.349V35.448C567.349 33.448 568.293 32.488 569.725 32.488C571.549 32.488 572.069 34.048 572.069 35.672ZM578.903 40.24C580.071 40.24 580.975 39.784 581.607 39.024V40H582.879V28.48H581.447V32.144C580.831 31.496 579.975 31.12 578.895 31.12C576.495 31.12 575.031 33.08 575.031 35.672C575.031 38.264 576.487 40.24 578.903 40.24ZM576.543 35.672C576.543 33.848 577.359 32.424 579.119 32.424C580.807 32.424 581.607 33.76 581.607 35.672C581.607 37.568 580.823 38.936 579.079 38.936C577.375 38.936 576.543 37.512 576.543 35.672Z" fill="white"/>
    <path d="M736 312L736 368" stroke="white" stroke-opacity="0.3" stroke-width="2"/>
    <path d="M689.823 364H693.375C693.591 364 694.295 364 694.831 363.928C697.495 363.576 698.879 361.184 698.879 358.24C698.879 355.304 697.495 352.904 694.831 352.552C694.287 352.48 693.599 352.48 693.375 352.48H689.823V364ZM691.287 362.64V353.84H693.375C693.759 353.84 694.335 353.856 694.711 353.928C696.575 354.264 697.367 356.064 697.367 358.24C697.367 360.376 696.599 362.208 694.711 362.552C694.335 362.624 693.775 362.64 693.375 362.64H691.287ZM700.714 364H707.994V362.648H702.138V358.792H707.034V357.44H702.138V353.832H707.994V352.48H700.714V364ZM716.069 359.672V364H717.509V359.224C717.509 357.584 716.853 355.136 714.069 355.136C712.821 355.136 711.829 355.616 711.189 356.472V355.36H709.909V364H711.349V359.448C711.349 357.448 712.293 356.488 713.725 356.488C715.549 356.488 716.069 358.048 716.069 359.672ZM722.903 364.24C724.071 364.24 724.975 363.784 725.607 363.024V364H726.879V352.48H725.447V356.144C724.831 355.496 723.975 355.12 722.895 355.12C720.495 355.12 719.031 357.08 719.031 359.672C719.031 362.264 720.487 364.24 722.903 364.24ZM720.543 359.672C720.543 357.848 721.359 356.424 723.119 356.424C724.807 356.424 725.607 357.76 725.607 359.672C725.607 361.568 724.823 362.936 723.079 362.936C721.375 362.936 720.543 361.512 720.543 359.672Z" fill="white"/>
    <g filter="url(#filter2_i_5874_36215)">
        <rect x="352" y="80" width="240" height="40" rx="1" fill="#FFADBA"/>
        <path d="M402.3 99.8V101.05H405.3C405.183 101.917 404.933 102.717 404.45 103.4C403.733 104.35 402.55 104.833 401.35 104.817C400.15 104.833 398.967 104.35 398.267 103.4C397.55 102.483 397.35 101.2 397.317 100C397.35 98.7833 397.55 97.5167 398.267 96.5833C398.967 95.65 400.15 95.1667 401.35 95.1667C402.55 95.1667 403.733 95.65 404.45 96.5833C404.583 96.7667 404.7 97 404.817 97.2L406.183 96.5833C406.033 96.25 405.833 95.95 405.617 95.6833C404.6 94.4 403.083 93.75 401.35 93.75C399.65 93.75 398.05 94.3833 397.1 95.6833C396.1 96.9167 395.767 98.4333 395.75 100C395.767 101.533 396.1 103.083 397.1 104.3C398.05 105.617 399.667 106.25 401.35 106.25C403.017 106.25 404.567 105.633 405.617 104.3C406.55 103.15 406.9 101.683 406.95 100.183V99.8H402.3ZM409.903 102H417.02C417.103 100.55 416.82 99.2333 416.003 98.2167C415.203 97.2333 414.003 96.75 412.703 96.75C411.403 96.75 410.203 97.2333 409.403 98.2167C408.67 99.1333 408.37 100.333 408.37 101.55C408.37 102.683 408.67 103.833 409.403 104.767C410.186 105.733 411.47 106.25 412.77 106.25C414.486 106.25 415.87 105.483 416.686 104.067L415.57 103.333C414.886 104.417 413.953 104.917 412.703 104.917C411.853 104.917 411.02 104.583 410.536 103.917C410.136 103.383 409.953 102.717 409.903 102ZM412.703 98.0667C413.57 98.0667 414.386 98.4 414.87 99.0667C415.186 99.4833 415.386 100.033 415.47 100.65H409.936C410.02 100.067 410.203 99.5 410.536 99.0667C411.02 98.4 411.853 98.0667 412.703 98.0667ZM429.903 97.4667C429.353 96.9667 428.553 96.7667 427.853 96.7667C426.803 96.7667 425.803 97.2667 425.22 98.1333C425.186 98.1667 425.17 98.2167 425.153 98.25C425.003 97.9833 424.803 97.7167 424.52 97.4667C423.97 96.9667 423.17 96.7667 422.47 96.7667C421.486 96.7667 420.553 97.2 419.953 97.9667V97H418.62V106H420.12V100.283C420.12 99.7333 420.186 99.2667 420.57 98.7833C420.936 98.3333 421.503 98.0833 422.086 98.0833C422.553 98.0833 423.02 98.2667 423.353 98.5833C423.953 99.1 424.02 99.65 424.02 100.55L424.003 106H425.486L425.503 100.467V100.283C425.503 99.7333 425.57 99.2667 425.953 98.7833C426.32 98.3333 426.886 98.0833 427.47 98.0833C427.936 98.0833 428.403 98.2667 428.736 98.5833C429.336 99.1 429.403 99.65 429.403 100.55L429.386 106H430.87L430.886 100.467C430.886 99.2 430.836 98.3 429.903 97.4667ZM433.057 106V93.75H434.541V106H433.057ZM437.036 93.95V95.4833H438.52V93.95H437.036ZM437.036 97V106H438.52V97H437.036ZM447.659 97.55C446.876 96.8833 445.909 96.7167 444.993 96.7833C444.176 96.8167 443.309 97.1167 442.726 97.75C442.593 97.9 442.459 98.0333 442.359 98.1833V97H441.043V106H442.526V102.067V102.05C442.526 101.367 442.526 100.683 442.643 100.15C442.743 99.5667 443.009 99.05 443.426 98.7C443.809 98.3667 444.309 98.2 444.843 98.1667C445.493 98.15 446.076 98.3167 446.509 98.6667C447.309 99.3 447.443 100.4 447.443 101.683V106H448.943V101.633C448.959 100.083 448.826 98.5 447.659 97.55ZM452.138 102H459.254C459.338 100.55 459.054 99.2333 458.238 98.2167C457.438 97.2333 456.238 96.75 454.938 96.75C453.638 96.75 452.438 97.2333 451.638 98.2167C450.904 99.1333 450.604 100.333 450.604 101.55C450.604 102.683 450.904 103.833 451.638 104.767C452.421 105.733 453.704 106.25 455.004 106.25C456.721 106.25 458.104 105.483 458.921 104.067L457.804 103.333C457.121 104.417 456.188 104.917 454.938 104.917C454.088 104.917 453.254 104.583 452.771 103.917C452.371 103.383 452.188 102.717 452.138 102ZM454.938 98.0667C455.804 98.0667 456.621 98.4 457.104 99.0667C457.421 99.4833 457.621 100.033 457.704 100.65H452.171C452.254 100.067 452.438 99.5 452.771 99.0667C453.254 98.4 454.088 98.0667 454.938 98.0667ZM464.038 106H466.104L470.121 94H468.588L465.054 104.417L461.571 94H460.021L464.038 106ZM479.992 102.017C479.858 102.517 479.625 103 479.325 103.417C478.625 104.367 477.442 104.85 476.242 104.833C475.042 104.833 473.858 104.367 473.158 103.417C472.442 102.467 472.225 101.217 472.208 100C472.225 98.7667 472.442 97.5167 473.158 96.5833C473.858 95.6333 475.042 95.15 476.242 95.1667C477.442 95.1667 478.625 95.6333 479.325 96.5833C479.675 97.0333 479.892 97.5667 480.042 98.1167L481.575 97.8667C481.375 97.1 481.042 96.35 480.508 95.6667C479.508 94.3833 477.925 93.75 476.242 93.75C474.542 93.75 472.975 94.3667 471.975 95.6667C470.992 96.9 470.642 98.4167 470.625 100C470.608 101.533 470.992 103.083 471.975 104.317C472.975 105.583 474.525 106.25 476.242 106.25C477.908 106.25 479.475 105.633 480.508 104.317C480.958 103.75 481.275 103.1 481.475 102.45L479.992 102.017ZM492.928 100.033C492.928 101.65 492.445 103.317 491.428 104.417C490.445 105.5 489.011 105.983 487.528 105.983H483.495V93.9833L487.561 94C489.111 94 490.478 94.5167 491.428 95.5833C492.511 96.75 492.928 98.3667 492.928 100.033ZM491.361 100.033C491.378 98.7333 491.078 97.45 490.311 96.5667C489.595 95.75 488.645 95.4333 487.545 95.4167L485.028 95.4333V104.55L487.528 104.583C488.628 104.567 489.628 104.2 490.328 103.417C491.078 102.55 491.345 101.25 491.361 100.033ZM503.939 106L501.589 101.183C502.105 100.95 502.555 100.6 502.889 100.167C503.439 99.5 503.772 98.65 503.772 97.7833C503.755 96.8833 503.405 95.9667 502.805 95.3C502.389 94.8 501.822 94.4167 501.205 94.2167C500.805 94.0667 500.389 94 499.955 94H494.839V106H496.322V101.55H499.955H500.089L502.239 106H503.939ZM496.322 95.4167H499.955C500.539 95.4167 501.172 95.7167 501.589 96.15C502.005 96.5833 502.222 97.1667 502.239 97.7833C502.255 98.3167 502.055 98.85 501.722 99.2667C501.272 99.8167 500.589 100.15 499.955 100.15H496.322V95.4167ZM512.354 99.6167C511.721 98.9667 510.871 98.6 509.904 98.5333L513.154 95.4667V94H506.088V95.4167H511.138L507.421 98.9333L508.138 100.117C508.504 99.9167 508.971 99.8 509.371 99.8C509.988 99.8 510.571 99.9833 511.021 100.383C511.554 100.867 511.788 101.583 511.788 102.3C511.788 103.05 511.554 103.783 510.954 104.267C510.538 104.617 509.971 104.8 509.388 104.817C508.821 104.817 508.254 104.633 507.821 104.283C507.438 104 507.188 103.583 507.038 103.117L505.604 103.533C505.821 104.233 506.254 104.9 506.838 105.367C507.571 105.95 508.488 106.25 509.404 106.233C510.304 106.217 511.238 105.95 511.954 105.35C512.838 104.633 513.288 103.5 513.321 102.3C513.338 101.317 513.021 100.317 512.354 99.6167ZM523.461 95.3C523.045 94.8 522.478 94.4167 521.861 94.2167C521.461 94.0667 521.045 94 520.611 94H515.495V106H516.978V101.55H520.611C521.761 101.55 522.878 101.017 523.545 100.167C524.095 99.5 524.428 98.65 524.428 97.7833C524.411 96.8833 524.061 95.9667 523.461 95.3ZM522.378 99.2667C521.928 99.8167 521.245 100.15 520.611 100.15H516.978V95.4167H520.611C521.195 95.4167 521.828 95.7167 522.245 96.15C522.661 96.5833 522.878 97.1667 522.895 97.7833C522.911 98.3167 522.711 98.85 522.378 99.2667ZM533.227 106V100.5C533.227 99.4167 532.96 98.3333 532.127 97.6333C531.527 97.1 530.61 96.75 529.694 96.75C528.21 96.75 527.01 97.2 526.077 98.2667L527.01 99.2667C527.744 98.4 528.61 98.1667 529.544 98.1667C530.794 98.1667 531.677 98.7833 531.727 100.033C529.994 100.3 528.21 100.45 527.094 101C525.977 101.567 525.51 102.367 525.51 103.517C525.51 105.183 526.727 106.25 528.477 106.25C529.977 106.25 531.077 105.817 531.91 104.633V106H533.227ZM531.394 103.55C530.894 104.45 529.944 104.95 528.76 104.95C527.744 104.95 526.994 104.333 526.994 103.383C526.994 102.517 527.827 101.983 528.844 101.767C529.477 101.617 530.494 101.45 531.744 101.25C531.744 102.233 531.744 102.917 531.394 103.55ZM539.518 96.75C538.818 96.7667 538.101 96.9833 537.534 97.4333C537.184 97.7 536.934 97.9833 536.734 98.3167V97H535.401V106H536.901V101.583C536.901 100.433 536.951 99.5167 537.701 98.8167C538.101 98.4167 538.701 98.1667 539.401 98.15C539.918 98.1167 540.401 98.2 540.801 98.35V96.95C540.384 96.8 539.951 96.7333 539.518 96.75ZM544.702 98.2167H547.419V97H544.702V94.5H543.219V97H541.385V98.2167H543.219V102.6C543.219 103.483 543.235 104.2 543.552 104.85C543.885 105.517 544.502 105.9 545.302 106.067C545.902 106.2 546.785 106.167 547.419 106V104.683C546.952 104.767 546.402 104.783 545.935 104.75C545.502 104.7 545.085 104.467 544.902 104.083C544.685 103.717 544.702 103.25 544.702 102.517V98.2167Z" fill="#110529"/>
        <rect x="352" y="80" width="240" height="40" rx="1" stroke="#110529" stroke-width="2" stroke-linecap="round"/>
    </g>
    <g filter="url(#filter3_i_5874_36215)">
        <rect x="640" y="80" width="240" height="40" rx="1" fill="#FFADBA"/>
        <path d="M691.3 99.8V101.05H694.3C694.183 101.917 693.933 102.717 693.45 103.4C692.733 104.35 691.55 104.833 690.35 104.817C689.15 104.833 687.967 104.35 687.267 103.4C686.55 102.483 686.35 101.2 686.317 100C686.35 98.7833 686.55 97.5167 687.267 96.5833C687.967 95.65 689.15 95.1667 690.35 95.1667C691.55 95.1667 692.733 95.65 693.45 96.5833C693.583 96.7667 693.7 97 693.817 97.2L695.183 96.5833C695.033 96.25 694.833 95.95 694.617 95.6833C693.6 94.4 692.083 93.75 690.35 93.75C688.65 93.75 687.05 94.3833 686.1 95.6833C685.1 96.9167 684.767 98.4333 684.75 100C684.767 101.533 685.1 103.083 686.1 104.3C687.05 105.617 688.667 106.25 690.35 106.25C692.017 106.25 693.567 105.633 694.617 104.3C695.55 103.15 695.9 101.683 695.95 100.183V99.8H691.3ZM698.903 102H706.02C706.103 100.55 705.82 99.2333 705.003 98.2167C704.203 97.2333 703.003 96.75 701.703 96.75C700.403 96.75 699.203 97.2333 698.403 98.2167C697.67 99.1333 697.37 100.333 697.37 101.55C697.37 102.683 697.67 103.833 698.403 104.767C699.186 105.733 700.47 106.25 701.77 106.25C703.486 106.25 704.87 105.483 705.686 104.067L704.57 103.333C703.886 104.417 702.953 104.917 701.703 104.917C700.853 104.917 700.02 104.583 699.536 103.917C699.136 103.383 698.953 102.717 698.903 102ZM701.703 98.0667C702.57 98.0667 703.386 98.4 703.87 99.0667C704.186 99.4833 704.386 100.033 704.47 100.65H698.936C699.02 100.067 699.203 99.5 699.536 99.0667C700.02 98.4 700.853 98.0667 701.703 98.0667ZM718.903 97.4667C718.353 96.9667 717.553 96.7667 716.853 96.7667C715.803 96.7667 714.803 97.2667 714.22 98.1333C714.186 98.1667 714.17 98.2167 714.153 98.25C714.003 97.9833 713.803 97.7167 713.52 97.4667C712.97 96.9667 712.17 96.7667 711.47 96.7667C710.486 96.7667 709.553 97.2 708.953 97.9667V97H707.62V106H709.12V100.283C709.12 99.7333 709.186 99.2667 709.57 98.7833C709.936 98.3333 710.503 98.0833 711.086 98.0833C711.553 98.0833 712.02 98.2667 712.353 98.5833C712.953 99.1 713.02 99.65 713.02 100.55L713.003 106H714.486L714.503 100.467V100.283C714.503 99.7333 714.57 99.2667 714.953 98.7833C715.32 98.3333 715.886 98.0833 716.47 98.0833C716.936 98.0833 717.403 98.2667 717.736 98.5833C718.336 99.1 718.403 99.65 718.403 100.55L718.386 106H719.87L719.886 100.467C719.886 99.2 719.836 98.3 718.903 97.4667ZM722.057 106V93.75H723.541V106H722.057ZM726.036 93.95V95.4833H727.52V93.95H726.036ZM726.036 97V106H727.52V97H726.036ZM736.659 97.55C735.876 96.8833 734.909 96.7167 733.993 96.7833C733.176 96.8167 732.309 97.1167 731.726 97.75C731.593 97.9 731.459 98.0333 731.359 98.1833V97H730.043V106H731.526V102.067V102.05C731.526 101.367 731.526 100.683 731.643 100.15C731.743 99.5667 732.009 99.05 732.426 98.7C732.809 98.3667 733.309 98.2 733.843 98.1667C734.493 98.15 735.076 98.3167 735.509 98.6667C736.309 99.3 736.443 100.4 736.443 101.683V106H737.943V101.633C737.959 100.083 737.826 98.5 736.659 97.55ZM741.138 102H748.254C748.338 100.55 748.054 99.2333 747.238 98.2167C746.438 97.2333 745.238 96.75 743.938 96.75C742.638 96.75 741.438 97.2333 740.638 98.2167C739.904 99.1333 739.604 100.333 739.604 101.55C739.604 102.683 739.904 103.833 740.638 104.767C741.421 105.733 742.704 106.25 744.004 106.25C745.721 106.25 747.104 105.483 747.921 104.067L746.804 103.333C746.121 104.417 745.188 104.917 743.938 104.917C743.088 104.917 742.254 104.583 741.771 103.917C741.371 103.383 741.188 102.717 741.138 102ZM743.938 98.0667C744.804 98.0667 745.621 98.4 746.104 99.0667C746.421 99.4833 746.621 100.033 746.704 100.65H741.171C741.254 100.067 741.438 99.5 741.771 99.0667C742.254 98.4 743.088 98.0667 743.938 98.0667ZM755.538 94V102.233C755.538 103.283 755.538 103.85 755.088 104.65C754.471 105.683 753.521 106.25 752.221 106.25C751.604 106.25 751.004 106.117 750.488 105.783C749.721 105.35 749.171 104.567 748.938 103.717L750.421 103.367C750.504 103.833 750.804 104.25 751.204 104.517C751.488 104.717 751.854 104.833 752.204 104.833C752.838 104.833 753.504 104.5 753.788 103.883C754.004 103.433 754.004 103.1 754.004 102.233V94H755.538ZM766.992 102.017C766.858 102.517 766.625 103 766.325 103.417C765.625 104.367 764.442 104.85 763.242 104.833C762.042 104.833 760.858 104.367 760.158 103.417C759.442 102.467 759.225 101.217 759.208 100C759.225 98.7667 759.442 97.5167 760.158 96.5833C760.858 95.6333 762.042 95.15 763.242 95.1667C764.442 95.1667 765.625 95.6333 766.325 96.5833C766.675 97.0333 766.892 97.5667 767.042 98.1167L768.575 97.8667C768.375 97.1 768.042 96.35 767.508 95.6667C766.508 94.3833 764.925 93.75 763.242 93.75C761.542 93.75 759.975 94.3667 758.975 95.6667C757.992 96.9 757.642 98.4167 757.625 100C757.608 101.533 757.992 103.083 758.975 104.317C759.975 105.583 761.525 106.25 763.242 106.25C764.908 106.25 766.475 105.633 767.508 104.317C767.958 103.75 768.275 103.1 768.475 102.45L766.992 102.017ZM779.928 100.033C779.928 101.65 779.445 103.317 778.428 104.417C777.445 105.5 776.011 105.983 774.528 105.983H770.495V93.9833L774.561 94C776.111 94 777.478 94.5167 778.428 95.5833C779.511 96.75 779.928 98.3667 779.928 100.033ZM778.361 100.033C778.378 98.7333 778.078 97.45 777.311 96.5667C776.595 95.75 775.645 95.4333 774.545 95.4167L772.028 95.4333V104.55L774.528 104.583C775.628 104.567 776.628 104.2 777.328 103.417C778.078 102.55 778.345 101.25 778.361 100.033ZM790.939 106L788.589 101.183C789.105 100.95 789.555 100.6 789.889 100.167C790.439 99.5 790.772 98.65 790.772 97.7833C790.755 96.8833 790.405 95.9667 789.805 95.3C789.389 94.8 788.822 94.4167 788.205 94.2167C787.805 94.0667 787.389 94 786.955 94H781.839V106H783.322V101.55H786.955H787.089L789.239 106H790.939ZM783.322 95.4167H786.955C787.539 95.4167 788.172 95.7167 788.589 96.15C789.005 96.5833 789.222 97.1667 789.239 97.7833C789.255 98.3167 789.055 98.85 788.722 99.2667C788.272 99.8167 787.589 100.15 786.955 100.15H783.322V95.4167ZM799.354 99.6167C798.721 98.9667 797.871 98.6 796.904 98.5333L800.154 95.4667V94H793.088V95.4167H798.138L794.421 98.9333L795.138 100.117C795.504 99.9167 795.971 99.8 796.371 99.8C796.988 99.8 797.571 99.9833 798.021 100.383C798.554 100.867 798.788 101.583 798.788 102.3C798.788 103.05 798.554 103.783 797.954 104.267C797.538 104.617 796.971 104.8 796.388 104.817C795.821 104.817 795.254 104.633 794.821 104.283C794.438 104 794.188 103.583 794.038 103.117L792.604 103.533C792.821 104.233 793.254 104.9 793.838 105.367C794.571 105.95 795.488 106.25 796.404 106.233C797.304 106.217 798.238 105.95 798.954 105.35C799.838 104.633 800.288 103.5 800.321 102.3C800.338 101.317 800.021 100.317 799.354 99.6167ZM810.461 95.3C810.045 94.8 809.478 94.4167 808.861 94.2167C808.461 94.0667 808.045 94 807.611 94H802.495V106H803.978V101.55H807.611C808.761 101.55 809.878 101.017 810.545 100.167C811.095 99.5 811.428 98.65 811.428 97.7833C811.411 96.8833 811.061 95.9667 810.461 95.3ZM809.378 99.2667C808.928 99.8167 808.245 100.15 807.611 100.15H803.978V95.4167H807.611C808.195 95.4167 808.828 95.7167 809.245 96.15C809.661 96.5833 809.878 97.1667 809.895 97.7833C809.911 98.3167 809.711 98.85 809.378 99.2667ZM820.227 106V100.5C820.227 99.4167 819.96 98.3333 819.127 97.6333C818.527 97.1 817.61 96.75 816.694 96.75C815.21 96.75 814.01 97.2 813.077 98.2667L814.01 99.2667C814.744 98.4 815.61 98.1667 816.544 98.1667C817.794 98.1667 818.677 98.7833 818.727 100.033C816.994 100.3 815.21 100.45 814.094 101C812.977 101.567 812.51 102.367 812.51 103.517C812.51 105.183 813.727 106.25 815.477 106.25C816.977 106.25 818.077 105.817 818.91 104.633V106H820.227ZM818.394 103.55C817.894 104.45 816.944 104.95 815.76 104.95C814.744 104.95 813.994 104.333 813.994 103.383C813.994 102.517 814.827 101.983 815.844 101.767C816.477 101.617 817.494 101.45 818.744 101.25C818.744 102.233 818.744 102.917 818.394 103.55ZM826.518 96.75C825.818 96.7667 825.101 96.9833 824.534 97.4333C824.184 97.7 823.934 97.9833 823.734 98.3167V97H822.401V106H823.901V101.583C823.901 100.433 823.951 99.5167 824.701 98.8167C825.101 98.4167 825.701 98.1667 826.401 98.15C826.918 98.1167 827.401 98.2 827.801 98.35V96.95C827.384 96.8 826.951 96.7333 826.518 96.75ZM831.702 98.2167H834.419V97H831.702V94.5H830.219V97H828.385V98.2167H830.219V102.6C830.219 103.483 830.235 104.2 830.552 104.85C830.885 105.517 831.502 105.9 832.302 106.067C832.902 106.2 833.785 106.167 834.419 106V104.683C833.952 104.767 833.402 104.783 832.935 104.75C832.502 104.7 832.085 104.467 831.902 104.083C831.685 103.717 831.702 103.25 831.702 102.517V98.2167Z" fill="#110529"/>
        <rect x="640" y="80" width="240" height="40" rx="1" stroke="#110529" stroke-width="2" stroke-linecap="round"/>
    </g>
    <g filter="url(#filter4_i_5874_36215)">
        <rect x="496" y="272" width="240" height="40" rx="1" fill="#FFCB8F"/>
        <path d="M592.6 292.033C592.6 293.65 592.117 295.317 591.1 296.417C590.117 297.5 588.683 297.983 587.2 297.983H583.167V285.983L587.233 286C588.783 286 590.15 286.517 591.1 287.583C592.183 288.75 592.6 290.367 592.6 292.033ZM591.033 292.033C591.05 290.733 590.75 289.45 589.983 288.567C589.267 287.75 588.317 287.433 587.217 287.417L584.7 287.433V296.55L587.2 296.583C588.3 296.567 589.3 296.2 590 295.417C590.75 294.55 591.017 293.25 591.033 292.033ZM603.61 298L601.26 293.183C601.777 292.95 602.227 292.6 602.56 292.167C603.11 291.5 603.444 290.65 603.444 289.783C603.427 288.883 603.077 287.967 602.477 287.3C602.06 286.8 601.494 286.417 600.877 286.217C600.477 286.067 600.06 286 599.627 286H594.51V298H595.994V293.55H599.627H599.76L601.91 298H603.61ZM595.994 287.417H599.627C600.21 287.417 600.844 287.717 601.26 288.15C601.677 288.583 601.894 289.167 601.91 289.783C601.927 290.317 601.727 290.85 601.394 291.267C600.944 291.817 600.26 292.15 599.627 292.15H595.994V287.417ZM606.809 294H613.926C614.009 292.55 613.726 291.233 612.909 290.217C612.109 289.233 610.909 288.75 609.609 288.75C608.309 288.75 607.109 289.233 606.309 290.217C605.576 291.133 605.276 292.333 605.276 293.55C605.276 294.683 605.576 295.833 606.309 296.767C607.093 297.733 608.376 298.25 609.676 298.25C611.393 298.25 612.776 297.483 613.593 296.067L612.476 295.333C611.793 296.417 610.859 296.917 609.609 296.917C608.759 296.917 607.926 296.583 607.443 295.917C607.043 295.383 606.859 294.717 606.809 294ZM609.609 290.067C610.476 290.067 611.293 290.4 611.776 291.067C612.093 291.483 612.293 292.033 612.376 292.65H606.843C606.926 292.067 607.109 291.5 607.443 291.067C607.926 290.4 608.759 290.067 609.609 290.067ZM622.376 289V290.017C621.643 289.2 620.543 288.75 619.393 288.75C618.159 288.75 617.009 289.25 616.276 290.183C615.559 291.1 615.276 292.3 615.276 293.483C615.276 294.667 615.526 295.85 616.276 296.8C617.026 297.733 618.176 298.25 619.393 298.25C620.509 298.25 621.509 297.883 622.209 297.15V298.05C622.209 299.15 622.076 299.7 621.459 300.217C620.959 300.633 620.226 300.817 619.509 300.817C618.859 300.817 618.126 300.583 617.693 300.083C617.543 299.933 617.409 299.783 617.309 299.617L615.943 300.283C616.176 300.7 616.576 301.067 616.959 301.3C617.609 301.917 618.576 302.25 619.509 302.25C620.409 302.25 621.393 302.083 622.276 301.45C623.326 300.717 623.693 299.767 623.693 298.067V289H622.376ZM621.676 295.967C621.176 296.583 620.409 296.883 619.576 296.883C618.759 296.883 617.959 296.567 617.476 295.883C617.009 295.267 616.859 294.383 616.859 293.483C616.859 292.583 617.026 291.717 617.493 291.1C617.976 290.417 618.743 290.1 619.626 290.1C620.443 290.1 621.193 290.4 621.676 291.017C622.176 291.65 622.376 292.567 622.376 293.483C622.376 294.417 622.176 295.35 621.676 295.967ZM626.193 285.95V287.483H627.676V285.95H626.193ZM626.193 289V298H627.676V289H626.193ZM634.016 298.25C635.332 298.25 636.516 297.767 637.316 296.767C638.082 295.817 638.366 294.7 638.366 293.483C638.366 292.317 638.099 291.167 637.316 290.217C636.532 289.233 635.316 288.75 634.016 288.75C632.716 288.75 631.482 289.267 630.716 290.217C629.982 291.133 629.682 292.3 629.682 293.483C629.682 294.683 629.966 295.817 630.716 296.767C631.516 297.75 632.716 298.25 634.016 298.25ZM636.132 295.867C635.666 296.5 634.866 296.833 634.016 296.833C633.182 296.833 632.382 296.5 631.916 295.867C631.416 295.217 631.266 294.35 631.266 293.483C631.266 292.633 631.416 291.75 631.916 291.117C632.382 290.467 633.182 290.15 634.016 290.15C634.866 290.15 635.666 290.467 636.132 291.117C636.632 291.75 636.782 292.633 636.782 293.483C636.782 294.35 636.632 295.217 636.132 295.867ZM646.831 289.55C646.048 288.883 645.081 288.717 644.165 288.783C643.348 288.817 642.481 289.117 641.898 289.75C641.765 289.9 641.631 290.033 641.531 290.183V289H640.215V298H641.698V294.067V294.05C641.698 293.367 641.698 292.683 641.815 292.15C641.915 291.567 642.181 291.05 642.598 290.7C642.981 290.367 643.481 290.2 644.015 290.167C644.665 290.15 645.248 290.317 645.681 290.667C646.481 291.3 646.615 292.4 646.615 293.683V298H648.115V293.633C648.131 292.083 647.998 290.5 646.831 289.55Z" fill="#110529"/>
        <rect x="496" y="272" width="240" height="40" rx="1" stroke="#110529" stroke-width="2" stroke-linecap="round"/>
    </g>
    <path d="M581.842 146.24C583.282 146.24 584.354 145.712 585.042 144.656V146H586.306V140.656C586.306 139.976 586.266 139.344 586.026 138.808C585.53 137.68 584.354 137.12 582.794 137.12C580.842 137.12 579.634 138.04 579.226 139.552L580.578 139.96C580.89 138.904 581.73 138.448 582.778 138.448C584.274 138.448 584.866 139.104 584.906 140.48C583.626 140.656 582.106 140.84 581.026 141.128C579.714 141.512 578.906 142.304 578.906 143.664C578.906 145.056 579.906 146.24 581.842 146.24ZM580.322 143.656C580.322 142.848 580.954 142.456 581.666 142.232C582.506 141.992 583.674 141.856 584.89 141.696C584.882 142.088 584.866 142.64 584.746 143.056C584.538 144.128 583.594 145.048 582.058 145.048C580.826 145.048 580.322 144.368 580.322 143.656ZM588.546 146H589.97V134.48H588.546V146ZM592.53 135.832H593.954V134.36H592.53V135.832ZM592.53 146H593.954V137.36H592.53V146ZM599.85 150.08C601.914 150.08 603.274 149.224 603.61 147.384C603.69 146.96 603.714 146.536 603.714 146.056V137.36H602.45V138.328C601.818 137.568 600.914 137.12 599.738 137.12C597.338 137.12 595.874 139.08 595.874 141.672C595.874 144.264 597.33 146.24 599.746 146.24C600.81 146.24 601.666 145.856 602.282 145.208V146.04C602.298 147.8 601.506 148.704 599.858 148.704C599.018 148.704 598.162 148.344 597.738 147.496L596.434 148.184C597.154 149.472 598.49 150.08 599.85 150.08ZM597.386 141.672C597.386 139.848 598.202 138.424 599.962 138.424C601.65 138.424 602.45 139.76 602.45 141.672C602.45 143.568 601.666 144.936 599.922 144.936C598.218 144.936 597.386 143.512 597.386 141.672ZM612.1 141.672V146H613.54V141.224C613.54 139.584 612.884 137.136 610.1 137.136C608.852 137.136 607.86 137.616 607.22 138.472V137.36H605.94V146H607.38V141.448C607.38 139.448 608.324 138.488 609.756 138.488C611.58 138.488 612.1 140.048 612.1 141.672ZM625.956 140.472L625.948 146H627.372L627.38 140.16C627.38 138.32 626.276 137.136 624.476 137.136C623.34 137.136 622.372 137.672 621.86 138.56C621.396 137.656 620.508 137.136 619.34 137.136C618.308 137.136 617.428 137.576 616.884 138.28V137.36H615.612V146H617.044V140.512C617.044 139.248 617.796 138.408 618.924 138.408C620.052 138.408 620.796 139.216 620.796 140.528L620.788 146H622.204L622.212 140.512C622.212 139.056 623.132 138.408 624.1 138.408C625.188 138.408 625.956 139.184 625.956 140.472ZM633.13 146.24C634.802 146.24 636.234 145.368 636.914 143.84L635.546 143.368C635.066 144.352 634.202 144.888 633.066 144.888C631.474 144.888 630.546 143.872 630.434 142.08H637.058C637.186 139.008 635.666 137.12 633.066 137.12C630.554 137.12 628.906 138.904 628.906 141.736C628.906 144.44 630.578 146.24 633.13 146.24ZM630.458 140.936C630.658 139.296 631.562 138.4 633.114 138.4C634.578 138.4 635.402 139.24 635.578 140.936H630.458ZM644.756 141.672V146H646.196V141.224C646.196 139.584 645.54 137.136 642.756 137.136C641.508 137.136 640.516 137.616 639.876 138.472V137.36H638.596V146H640.036V141.448C640.036 139.448 640.98 138.488 642.412 138.488C644.236 138.488 644.756 140.048 644.756 141.672ZM653.1 146V144.776C651.916 144.96 651.052 144.912 650.668 144.224C650.46 143.864 650.492 143.384 650.492 142.672V138.536H653.1V137.36H650.492V134.96H649.068V137.36H647.316V138.536H649.068V142.736C649.068 143.632 649.02 144.288 649.364 144.96C649.964 146.136 651.556 146.312 653.1 146ZM585.338 162.24C587.754 162.24 589.21 160.264 589.21 157.672C589.21 155.08 587.746 153.12 585.346 153.12C584.266 153.12 583.41 153.496 582.794 154.144V150.48H581.362V162H582.634V161.024C583.266 161.784 584.17 162.24 585.338 162.24ZM582.634 157.672C582.634 155.76 583.434 154.424 585.122 154.424C586.882 154.424 587.698 155.848 587.698 157.672C587.698 159.512 586.866 160.936 585.162 160.936C583.418 160.936 582.634 159.568 582.634 157.672ZM594.644 162.24C597.212 162.24 598.812 160.384 598.812 157.672C598.812 155 597.236 153.12 594.644 153.12C592.108 153.12 590.484 154.96 590.484 157.672C590.484 160.352 592.06 162.24 594.644 162.24ZM591.996 157.672C591.996 155.784 592.836 154.472 594.644 154.472C596.412 154.472 597.3 155.728 597.3 157.672C597.3 159.576 596.428 160.888 594.644 160.888C592.9 160.888 591.996 159.624 591.996 157.672ZM603.853 162.224C605.101 162.224 606.093 161.744 606.733 160.888V162H608.005V153.36H606.573V157.912C606.573 159.912 605.629 160.872 604.197 160.872C602.373 160.872 601.853 159.312 601.853 157.688V153.36H600.413V158.136C600.413 159.776 601.069 162.224 603.853 162.224ZM616.397 157.672V162H617.837V157.224C617.837 155.584 617.181 153.136 614.397 153.136C613.149 153.136 612.157 153.616 611.517 154.472V153.36H610.237V162H611.677V157.448C611.677 155.448 612.621 154.488 614.053 154.488C615.877 154.488 616.397 156.048 616.397 157.672ZM623.231 162.24C624.399 162.24 625.303 161.784 625.935 161.024V162H627.207V150.48H625.775V154.144C625.159 153.496 624.303 153.12 623.223 153.12C620.823 153.12 619.359 155.08 619.359 157.672C619.359 160.264 620.815 162.24 623.231 162.24ZM620.871 157.672C620.871 155.848 621.687 154.424 623.447 154.424C625.135 154.424 625.935 155.76 625.935 157.672C625.935 159.568 625.151 160.936 623.407 160.936C621.703 160.936 620.871 159.512 620.871 157.672ZM631.904 162.24C633.344 162.24 634.416 161.712 635.104 160.656V162H636.368V156.656C636.368 155.976 636.328 155.344 636.088 154.808C635.592 153.68 634.416 153.12 632.856 153.12C630.904 153.12 629.696 154.04 629.288 155.552L630.64 155.96C630.952 154.904 631.792 154.448 632.84 154.448C634.336 154.448 634.928 155.104 634.968 156.48C633.688 156.656 632.168 156.84 631.088 157.128C629.776 157.512 628.968 158.304 628.968 159.664C628.968 161.056 629.968 162.24 631.904 162.24ZM630.384 159.656C630.384 158.848 631.016 158.456 631.728 158.232C632.568 157.992 633.736 157.856 634.952 157.696C634.944 158.088 634.928 158.64 634.808 159.056C634.6 160.128 633.656 161.048 632.12 161.048C630.888 161.048 630.384 160.368 630.384 159.656ZM638.448 162H639.88V157.664C639.88 156.64 640.088 155.624 640.928 155.024C641.528 154.584 642.304 154.544 642.904 154.696V153.36C642.136 153.192 641.12 153.352 640.456 153.888C640.168 154.096 639.912 154.392 639.72 154.728V153.36H638.448V162ZM645.461 165.84H646.845L651.549 153.36H650.101L647.573 160.16L644.877 153.36H643.381L646.885 161.968L645.461 165.84Z" fill="white"/>
    <path d="M200.92 54H203.4L208.22 39.6H206.37L202.14 52.11L197.95 39.6H196.1L200.92 54Z" fill="white"/>
    <path d="M1030 54.29C1031.45 54.29 1032.71 53.7 1033.44 52.43C1033.97 51.51 1033.91 50.72 1033.91 49.48V39.6H1032.11V49.48C1032.11 50.37 1032.11 50.99 1031.85 51.51C1031.46 52.29 1030.64 52.6 1029.96 52.6C1028.89 52.6 1027.98 51.83 1027.77 50.85L1026 51.27C1026.51 53.11 1027.98 54.29 1030 54.29Z" fill="white"/>
    <path d="M773.25 292.542C773.25 294.562 772.646 296.646 771.375 298.021C770.146 299.375 768.354 299.979 766.5 299.979H761.458V284.979L766.542 285C768.479 285 770.188 285.646 771.375 286.979C772.729 288.437 773.25 290.458 773.25 292.542ZM771.292 292.542C771.313 290.917 770.938 289.312 769.979 288.208C769.083 287.187 767.896 286.792 766.521 286.771L763.375 286.792V298.187L766.5 298.229C767.875 298.208 769.125 297.75 770 296.771C770.938 295.687 771.271 294.062 771.292 292.542Z" fill="#110529"/>
    <g filter="url(#filter5_i_5874_36215)">
        <path d="M200 176H350.4C350.96 176 351.24 176 351.454 176.109C351.642 176.205 351.795 176.358 351.891 176.546C352 176.76 352 177.04 352 177.6V214.4C352 214.96 352 215.24 351.891 215.454C351.795 215.642 351.642 215.795 351.454 215.891C351.24 216 350.96 216 350.4 216H200L196 211L200 206L196 200.615L200 196L196 191L200 186L196 181L200 176Z" fill="#99E099"/>
    </g>
    <path d="M200 176H350.4C350.96 176 351.24 176 351.454 176.109C351.642 176.205 351.795 176.358 351.891 176.546C352 176.76 352 177.04 352 177.6V214.4C352 214.96 352 215.24 351.891 215.454C351.795 215.642 351.642 215.795 351.454 215.891C351.24 216 350.96 216 350.4 216H200L196 211L200 206L196 200.615L200 196L196 191L200 186L196 181L200 176Z" stroke="#110529" stroke-width="2" stroke-linecap="round"/>
    <g filter="url(#filter6_i_5874_36215)">
        <rect x="352" y="176" width="160" height="40" rx="1" fill="#FAAAFA"/>
        <path d="M391.6 202H393.667L397.683 190H396.15L392.617 200.417L389.133 190H387.583L391.6 202ZM407.554 198.017C407.421 198.517 407.188 199 406.888 199.417C406.188 200.367 405.004 200.85 403.804 200.833C402.604 200.833 401.421 200.367 400.721 199.417C400.004 198.467 399.788 197.217 399.771 196C399.788 194.767 400.004 193.517 400.721 192.583C401.421 191.633 402.604 191.15 403.804 191.167C405.004 191.167 406.188 191.633 406.888 192.583C407.238 193.033 407.454 193.567 407.604 194.117L409.138 193.867C408.938 193.1 408.604 192.35 408.071 191.667C407.071 190.383 405.488 189.75 403.804 189.75C402.104 189.75 400.538 190.367 399.538 191.667C398.554 192.9 398.204 194.417 398.188 196C398.171 197.533 398.554 199.083 399.538 200.317C400.538 201.583 402.088 202.25 403.804 202.25C405.471 202.25 407.038 201.633 408.071 200.317C408.521 199.75 408.838 199.1 409.038 198.45L407.554 198.017ZM420.491 196.033C420.491 197.65 420.007 199.317 418.991 200.417C418.007 201.5 416.574 201.983 415.091 201.983H411.057V189.983L415.124 190C416.674 190 418.041 190.517 418.991 191.583C420.074 192.75 420.491 194.367 420.491 196.033ZM418.924 196.033C418.941 194.733 418.641 193.45 417.874 192.567C417.157 191.75 416.207 191.433 415.107 191.417L412.591 191.433V200.55L415.091 200.583C416.191 200.567 417.191 200.2 417.891 199.417C418.641 198.55 418.907 197.25 418.924 196.033ZM431.501 202L429.151 197.183C429.668 196.95 430.118 196.6 430.451 196.167C431.001 195.5 431.334 194.65 431.334 193.783C431.318 192.883 430.968 191.967 430.368 191.3C429.951 190.8 429.384 190.417 428.768 190.217C428.368 190.067 427.951 190 427.518 190H422.401V202H423.884V197.55H427.518H427.651L429.801 202H431.501ZM423.884 191.417H427.518C428.101 191.417 428.734 191.717 429.151 192.15C429.568 192.583 429.784 193.167 429.801 193.783C429.818 194.317 429.618 194.85 429.284 195.267C428.834 195.817 428.151 196.15 427.518 196.15H423.884V191.417ZM439.917 195.617C439.283 194.967 438.433 194.6 437.467 194.533L440.717 191.467V190H433.65V191.417H438.7L434.983 194.933L435.7 196.117C436.067 195.917 436.533 195.8 436.933 195.8C437.55 195.8 438.133 195.983 438.583 196.383C439.117 196.867 439.35 197.583 439.35 198.3C439.35 199.05 439.117 199.783 438.517 200.267C438.1 200.617 437.533 200.8 436.95 200.817C436.383 200.817 435.817 200.633 435.383 200.283C435 200 434.75 199.583 434.6 199.117L433.167 199.533C433.383 200.233 433.817 200.9 434.4 201.367C435.133 201.95 436.05 202.25 436.967 202.233C437.867 202.217 438.8 201.95 439.517 201.35C440.4 200.633 440.85 199.5 440.883 198.3C440.9 197.317 440.583 196.317 439.917 195.617ZM451.024 191.3C450.607 190.8 450.041 190.417 449.424 190.217C449.024 190.067 448.607 190 448.174 190H443.057V202H444.541V197.55H448.174C449.324 197.55 450.441 197.017 451.107 196.167C451.657 195.5 451.991 194.65 451.991 193.783C451.974 192.883 451.624 191.967 451.024 191.3ZM449.941 195.267C449.491 195.817 448.807 196.15 448.174 196.15H444.541V191.417H448.174C448.757 191.417 449.391 191.717 449.807 192.15C450.224 192.583 450.441 193.167 450.457 193.783C450.474 194.317 450.274 194.85 449.941 195.267ZM460.79 202V196.5C460.79 195.417 460.523 194.333 459.69 193.633C459.09 193.1 458.173 192.75 457.256 192.75C455.773 192.75 454.573 193.2 453.64 194.267L454.573 195.267C455.306 194.4 456.173 194.167 457.106 194.167C458.356 194.167 459.24 194.783 459.29 196.033C457.556 196.3 455.773 196.45 454.656 197C453.54 197.567 453.073 198.367 453.073 199.517C453.073 201.183 454.29 202.25 456.04 202.25C457.54 202.25 458.64 201.817 459.473 200.633V202H460.79ZM458.956 199.55C458.456 200.45 457.506 200.95 456.323 200.95C455.306 200.95 454.556 200.333 454.556 199.383C454.556 198.517 455.39 197.983 456.406 197.767C457.04 197.617 458.056 197.45 459.306 197.25C459.306 198.233 459.306 198.917 458.956 199.55ZM467.08 192.75C466.38 192.767 465.664 192.983 465.097 193.433C464.747 193.7 464.497 193.983 464.297 194.317V193H462.964V202H464.464V197.583C464.464 196.433 464.514 195.517 465.264 194.817C465.664 194.417 466.264 194.167 466.964 194.15C467.48 194.117 467.964 194.2 468.364 194.35V192.95C467.947 192.8 467.514 192.733 467.08 192.75ZM472.265 194.217H474.981V193H472.265V190.5H470.781V193H468.948V194.217H470.781V198.6C470.781 199.483 470.798 200.2 471.115 200.85C471.448 201.517 472.065 201.9 472.865 202.067C473.465 202.2 474.348 202.167 474.981 202V200.683C474.515 200.767 473.965 200.783 473.498 200.75C473.065 200.7 472.648 200.467 472.465 200.083C472.248 199.717 472.265 199.25 472.265 198.517V194.217Z" fill="#110529"/>
        <rect x="352" y="176" width="160" height="40" rx="1" stroke="#110529" stroke-width="2" stroke-linecap="round"/>
    </g>
    <g filter="url(#filter7_i_5874_36215)">
        <rect x="512" y="176" width="24" height="40" rx="1" fill="#FAFAAA"/>
        <rect x="512" y="176" width="24" height="40" rx="1" stroke="#110529" stroke-width="2" stroke-linecap="round"/>
    </g>
    <g filter="url(#filter8_i_5874_36215)">
        <rect x="536" y="176" width="160" height="40" rx="1" fill="#FAAAFA"/>
        <path d="M581.6 196.033C581.6 197.65 581.117 199.317 580.1 200.417C579.117 201.5 577.683 201.983 576.2 201.983H572.167V189.983L576.233 190C577.783 190 579.15 190.517 580.1 191.583C581.183 192.75 581.6 194.367 581.6 196.033ZM580.033 196.033C580.05 194.733 579.75 193.45 578.983 192.567C578.267 191.75 577.317 191.433 576.217 191.417L573.7 191.433V200.55L576.2 200.583C577.3 200.567 578.3 200.2 579 199.417C579.75 198.55 580.017 197.25 580.033 196.033ZM592.46 198.017C592.327 198.517 592.094 199 591.794 199.417C591.094 200.367 589.91 200.85 588.71 200.833C587.51 200.833 586.327 200.367 585.627 199.417C584.91 198.467 584.694 197.217 584.677 196C584.694 194.767 584.91 193.517 585.627 192.583C586.327 191.633 587.51 191.15 588.71 191.167C589.91 191.167 591.094 191.633 591.794 192.583C592.144 193.033 592.36 193.567 592.51 194.117L594.044 193.867C593.844 193.1 593.51 192.35 592.977 191.667C591.977 190.383 590.394 189.75 588.71 189.75C587.01 189.75 585.444 190.367 584.444 191.667C583.46 192.9 583.11 194.417 583.094 196C583.077 197.533 583.46 199.083 584.444 200.317C585.444 201.583 586.994 202.25 588.71 202.25C590.377 202.25 591.944 201.633 592.977 200.317C593.427 199.75 593.744 199.1 593.944 198.45L592.46 198.017ZM605.397 196.033C605.397 197.65 604.914 199.317 603.897 200.417C602.914 201.5 601.48 201.983 599.997 201.983H595.964V189.983L600.03 190C601.58 190 602.947 190.517 603.897 191.583C604.98 192.75 605.397 194.367 605.397 196.033ZM603.83 196.033C603.847 194.733 603.547 193.45 602.78 192.567C602.064 191.75 601.114 191.433 600.014 191.417L597.497 191.433V200.55L599.997 200.583C601.097 200.567 602.097 200.2 602.797 199.417C603.547 198.55 603.814 197.25 603.83 196.033ZM616.407 202L614.057 197.183C614.574 196.95 615.024 196.6 615.357 196.167C615.907 195.5 616.241 194.65 616.241 193.783C616.224 192.883 615.874 191.967 615.274 191.3C614.857 190.8 614.291 190.417 613.674 190.217C613.274 190.067 612.857 190 612.424 190H607.307V202H608.791V197.55H612.424H612.557L614.707 202H616.407ZM608.791 191.417H612.424C613.007 191.417 613.641 191.717 614.057 192.15C614.474 192.583 614.691 193.167 614.707 193.783C614.724 194.317 614.524 194.85 614.191 195.267C613.741 195.817 613.057 196.15 612.424 196.15H608.791V191.417ZM624.823 195.617C624.19 194.967 623.34 194.6 622.373 194.533L625.623 191.467V190H618.556V191.417H623.606L619.89 194.933L620.606 196.117C620.973 195.917 621.44 195.8 621.84 195.8C622.456 195.8 623.04 195.983 623.49 196.383C624.023 196.867 624.256 197.583 624.256 198.3C624.256 199.05 624.023 199.783 623.423 200.267C623.006 200.617 622.44 200.8 621.856 200.817C621.29 200.817 620.723 200.633 620.29 200.283C619.906 200 619.656 199.583 619.506 199.117L618.073 199.533C618.29 200.233 618.723 200.9 619.306 201.367C620.04 201.95 620.956 202.25 621.873 202.233C622.773 202.217 623.706 201.95 624.423 201.35C625.306 200.633 625.756 199.5 625.79 198.3C625.806 197.317 625.49 196.317 624.823 195.617ZM635.93 191.3C635.514 190.8 634.947 190.417 634.33 190.217C633.93 190.067 633.514 190 633.08 190H627.964V202H629.447V197.55H633.08C634.23 197.55 635.347 197.017 636.014 196.167C636.564 195.5 636.897 194.65 636.897 193.783C636.88 192.883 636.53 191.967 635.93 191.3ZM634.847 195.267C634.397 195.817 633.714 196.15 633.08 196.15H629.447V191.417H633.08C633.664 191.417 634.297 191.717 634.714 192.15C635.13 192.583 635.347 193.167 635.364 193.783C635.38 194.317 635.18 194.85 634.847 195.267ZM645.696 202V196.5C645.696 195.417 645.429 194.333 644.596 193.633C643.996 193.1 643.079 192.75 642.163 192.75C640.679 192.75 639.479 193.2 638.546 194.267L639.479 195.267C640.213 194.4 641.079 194.167 642.013 194.167C643.263 194.167 644.146 194.783 644.196 196.033C642.463 196.3 640.679 196.45 639.562 197C638.446 197.567 637.979 198.367 637.979 199.517C637.979 201.183 639.196 202.25 640.946 202.25C642.446 202.25 643.546 201.817 644.379 200.633V202H645.696ZM643.863 199.55C643.363 200.45 642.413 200.95 641.229 200.95C640.213 200.95 639.463 200.333 639.463 199.383C639.463 198.517 640.296 197.983 641.312 197.767C641.946 197.617 642.963 197.45 644.213 197.25C644.213 198.233 644.213 198.917 643.863 199.55ZM651.986 192.75C651.286 192.767 650.57 192.983 650.003 193.433C649.653 193.7 649.403 193.983 649.203 194.317V193H647.87V202H649.37V197.583C649.37 196.433 649.42 195.517 650.17 194.817C650.57 194.417 651.17 194.167 651.87 194.15C652.386 194.117 652.87 194.2 653.27 194.35V192.95C652.853 192.8 652.42 192.733 651.986 192.75ZM657.171 194.217H659.888V193H657.171V190.5H655.688V193H653.854V194.217H655.688V198.6C655.688 199.483 655.704 200.2 656.021 200.85C656.354 201.517 656.971 201.9 657.771 202.067C658.371 202.2 659.254 202.167 659.888 202V200.683C659.421 200.767 658.871 200.783 658.404 200.75C657.971 200.7 657.554 200.467 657.371 200.083C657.154 199.717 657.171 199.25 657.171 198.517V194.217Z" fill="#110529"/>
        <rect x="536" y="176" width="160" height="40" rx="1" stroke="#110529" stroke-width="2" stroke-linecap="round"/>
    </g>
    <g filter="url(#filter9_i_5874_36215)">
        <rect x="696" y="176" width="24" height="40" rx="1" fill="#FAFAAA"/>
        <rect x="696" y="176" width="24" height="40" rx="1" stroke="#110529" stroke-width="2" stroke-linecap="round"/>
    </g>
    <g filter="url(#filter10_i_5874_36215)">
        <rect x="720" y="176" width="160" height="40" rx="1" fill="#FAAAFA"/>
        <path d="M763.1 190V198.233C763.1 199.283 763.1 199.85 762.65 200.65C762.033 201.683 761.083 202.25 759.783 202.25C759.167 202.25 758.567 202.117 758.05 201.783C757.283 201.35 756.733 200.567 756.5 199.717L757.983 199.367C758.067 199.833 758.367 200.25 758.767 200.517C759.05 200.717 759.417 200.833 759.767 200.833C760.4 200.833 761.067 200.5 761.35 199.883C761.567 199.433 761.567 199.1 761.567 198.233V190H763.1ZM774.554 198.017C774.421 198.517 774.188 199 773.888 199.417C773.188 200.367 772.004 200.85 770.804 200.833C769.604 200.833 768.421 200.367 767.721 199.417C767.004 198.467 766.788 197.217 766.771 196C766.788 194.767 767.004 193.517 767.721 192.583C768.421 191.633 769.604 191.15 770.804 191.167C772.004 191.167 773.188 191.633 773.888 192.583C774.238 193.033 774.454 193.567 774.604 194.117L776.138 193.867C775.938 193.1 775.604 192.35 775.071 191.667C774.071 190.383 772.488 189.75 770.804 189.75C769.104 189.75 767.538 190.367 766.538 191.667C765.554 192.9 765.204 194.417 765.188 196C765.171 197.533 765.554 199.083 766.538 200.317C767.538 201.583 769.088 202.25 770.804 202.25C772.471 202.25 774.038 201.633 775.071 200.317C775.521 199.75 775.838 199.1 776.038 198.45L774.554 198.017ZM787.491 196.033C787.491 197.65 787.007 199.317 785.991 200.417C785.007 201.5 783.574 201.983 782.091 201.983H778.057V189.983L782.124 190C783.674 190 785.041 190.517 785.991 191.583C787.074 192.75 787.491 194.367 787.491 196.033ZM785.924 196.033C785.941 194.733 785.641 193.45 784.874 192.567C784.157 191.75 783.207 191.433 782.107 191.417L779.591 191.433V200.55L782.091 200.583C783.191 200.567 784.191 200.2 784.891 199.417C785.641 198.55 785.907 197.25 785.924 196.033ZM798.501 202L796.151 197.183C796.668 196.95 797.118 196.6 797.451 196.167C798.001 195.5 798.334 194.65 798.334 193.783C798.318 192.883 797.968 191.967 797.368 191.3C796.951 190.8 796.384 190.417 795.768 190.217C795.368 190.067 794.951 190 794.518 190H789.401V202H790.884V197.55H794.518H794.651L796.801 202H798.501ZM790.884 191.417H794.518C795.101 191.417 795.734 191.717 796.151 192.15C796.568 192.583 796.784 193.167 796.801 193.783C796.818 194.317 796.618 194.85 796.284 195.267C795.834 195.817 795.151 196.15 794.518 196.15H790.884V191.417ZM806.917 195.617C806.283 194.967 805.433 194.6 804.467 194.533L807.717 191.467V190H800.65V191.417H805.7L801.983 194.933L802.7 196.117C803.067 195.917 803.533 195.8 803.933 195.8C804.55 195.8 805.133 195.983 805.583 196.383C806.117 196.867 806.35 197.583 806.35 198.3C806.35 199.05 806.117 199.783 805.517 200.267C805.1 200.617 804.533 200.8 803.95 200.817C803.383 200.817 802.817 200.633 802.383 200.283C802 200 801.75 199.583 801.6 199.117L800.167 199.533C800.383 200.233 800.817 200.9 801.4 201.367C802.133 201.95 803.05 202.25 803.967 202.233C804.867 202.217 805.8 201.95 806.517 201.35C807.4 200.633 807.85 199.5 807.883 198.3C807.9 197.317 807.583 196.317 806.917 195.617ZM818.024 191.3C817.607 190.8 817.041 190.417 816.424 190.217C816.024 190.067 815.607 190 815.174 190H810.057V202H811.541V197.55H815.174C816.324 197.55 817.441 197.017 818.107 196.167C818.657 195.5 818.991 194.65 818.991 193.783C818.974 192.883 818.624 191.967 818.024 191.3ZM816.941 195.267C816.491 195.817 815.807 196.15 815.174 196.15H811.541V191.417H815.174C815.757 191.417 816.391 191.717 816.807 192.15C817.224 192.583 817.441 193.167 817.457 193.783C817.474 194.317 817.274 194.85 816.941 195.267ZM827.79 202V196.5C827.79 195.417 827.523 194.333 826.69 193.633C826.09 193.1 825.173 192.75 824.256 192.75C822.773 192.75 821.573 193.2 820.64 194.267L821.573 195.267C822.306 194.4 823.173 194.167 824.106 194.167C825.356 194.167 826.24 194.783 826.29 196.033C824.556 196.3 822.773 196.45 821.656 197C820.54 197.567 820.073 198.367 820.073 199.517C820.073 201.183 821.29 202.25 823.04 202.25C824.54 202.25 825.64 201.817 826.473 200.633V202H827.79ZM825.956 199.55C825.456 200.45 824.506 200.95 823.323 200.95C822.306 200.95 821.556 200.333 821.556 199.383C821.556 198.517 822.39 197.983 823.406 197.767C824.04 197.617 825.056 197.45 826.306 197.25C826.306 198.233 826.306 198.917 825.956 199.55ZM834.08 192.75C833.38 192.767 832.664 192.983 832.097 193.433C831.747 193.7 831.497 193.983 831.297 194.317V193H829.964V202H831.464V197.583C831.464 196.433 831.514 195.517 832.264 194.817C832.664 194.417 833.264 194.167 833.964 194.15C834.48 194.117 834.964 194.2 835.364 194.35V192.95C834.947 192.8 834.514 192.733 834.08 192.75ZM839.265 194.217H841.981V193H839.265V190.5H837.781V193H835.948V194.217H837.781V198.6C837.781 199.483 837.798 200.2 838.115 200.85C838.448 201.517 839.065 201.9 839.865 202.067C840.465 202.2 841.348 202.167 841.981 202V200.683C841.515 200.767 840.965 200.783 840.498 200.75C840.065 200.7 839.648 200.467 839.465 200.083C839.248 199.717 839.265 199.25 839.265 198.517V194.217Z" fill="#110529"/>
        <rect x="720" y="176" width="160" height="40" rx="1" stroke="#110529" stroke-width="2" stroke-linecap="round"/>
    </g>
    <g filter="url(#filter11_i_5874_36215)">
        <path d="M1032 176H881.6C881.04 176 880.76 176 880.546 176.109C880.358 176.205 880.205 176.358 880.109 176.546C880 176.76 880 177.04 880 177.6V214.4C880 214.96 880 215.24 880.109 215.454C880.205 215.642 880.358 215.795 880.546 215.891C880.76 216 881.04 216 881.6 216H1032L1036 211L1032 206L1036 200.615L1032 196L1036 191L1032 186L1036 181L1032 176Z" fill="#C1ADFF"/>
    </g>
    <path d="M1032 176H881.6C881.04 176 880.76 176 880.546 176.109C880.358 176.205 880.205 176.358 880.109 176.546C880 176.76 880 177.04 880 177.6V214.4C880 214.96 880 215.24 880.109 215.454C880.205 215.642 880.358 215.795 880.546 215.891C880.76 216 881.04 216 881.6 216H1032L1036 211L1032 206L1036 200.615L1032 196L1036 191L1032 186L1036 181L1032 176Z" stroke="#110529" stroke-width="2" stroke-linecap="round"/>
    <path d="M23.3231 88.24C26.6911 88.24 28.4831 85.912 28.4831 82.752C28.4831 82.656 28.4751 82.296 28.4511 82.072H24.4991V83.248H26.9471C26.7711 85.544 25.6191 86.896 23.3951 86.88C20.8191 86.864 19.5151 85 19.5311 82.24C19.5471 79.48 20.8191 77.592 23.3951 77.608C25.0351 77.616 26.1471 78.512 26.6351 79.904L28.0751 79.608C27.4751 77.536 25.8991 76.248 23.3231 76.248C20.0991 76.248 18.0191 78.568 18.0191 82.24C18.0191 85.952 20.1471 88.24 23.3231 88.24ZM33.8249 88.24C35.4969 88.24 36.9289 87.368 37.6089 85.84L36.2409 85.368C35.7609 86.352 34.8969 86.888 33.7609 86.888C32.1689 86.888 31.2409 85.872 31.1289 84.08H37.7529C37.8809 81.008 36.3609 79.12 33.7609 79.12C31.2489 79.12 29.6009 80.904 29.6009 83.736C29.6009 86.44 31.2729 88.24 33.8249 88.24ZM31.1529 82.936C31.3529 81.296 32.2569 80.4 33.8089 80.4C35.2729 80.4 36.0969 81.24 36.2729 82.936H31.1529ZM49.6357 82.472L49.6277 88H51.0517L51.0597 82.16C51.0597 80.32 49.9557 79.136 48.1557 79.136C47.0197 79.136 46.0517 79.672 45.5397 80.56C45.0757 79.656 44.1877 79.136 43.0197 79.136C41.9877 79.136 41.1077 79.576 40.5637 80.28V79.36H39.2917V88H40.7237V82.512C40.7237 81.248 41.4757 80.408 42.6037 80.408C43.7317 80.408 44.4757 81.216 44.4757 82.528L44.4677 88H45.8837L45.8917 82.512C45.8917 81.056 46.8117 80.408 47.7797 80.408C48.8677 80.408 49.6357 81.184 49.6357 82.472ZM53.3034 88H54.7274V76.48H53.3034V88ZM57.2878 77.832H58.7118V76.36H57.2878V77.832ZM57.2878 88H58.7118V79.36H57.2878V88ZM67.2642 83.672V88H68.7042V83.224C68.7042 81.584 68.0482 79.136 65.2642 79.136C64.0162 79.136 63.0242 79.616 62.3842 80.472V79.36H61.1042V88H62.5442V83.448C62.5442 81.448 63.4882 80.488 64.9202 80.488C66.7442 80.488 67.2642 82.048 67.2642 83.672ZM74.4499 88.24C76.1219 88.24 77.5539 87.368 78.2339 85.84L76.8659 85.368C76.3859 86.352 75.5219 86.888 74.3859 86.888C72.7939 86.888 71.8659 85.872 71.7539 84.08H78.3779C78.5059 81.008 76.9859 79.12 74.3859 79.12C71.8739 79.12 70.2259 80.904 70.2259 83.736C70.2259 86.44 71.8979 88.24 74.4499 88.24ZM71.7779 82.936C71.9779 81.296 72.8819 80.4 74.4339 80.4C75.8979 80.4 76.7219 81.24 76.8979 82.936H71.7779ZM86.6262 88.232C88.7782 88.232 90.0822 87.224 90.0822 85.552C90.0822 84.216 89.3382 83.576 87.0582 82.992C85.0262 82.48 84.5862 82.208 84.5862 81.576C84.5862 80.84 85.3542 80.36 86.4742 80.392C87.6502 80.424 88.4502 80.992 88.5942 81.912L90.0502 81.648C89.8662 80.128 88.4422 79.12 86.4742 79.12C84.4822 79.12 83.1542 80.128 83.1542 81.648C83.1542 82.888 83.8822 83.48 86.1702 84.088C88.2822 84.656 88.6102 84.864 88.6102 85.592C88.6102 86.44 87.8902 86.96 86.7142 86.96C85.4662 86.96 84.5702 86.376 84.3382 85.432L82.8822 85.664C83.1782 87.288 84.5622 88.232 86.6262 88.232ZM95.5906 88.24C97.2626 88.24 98.6946 87.368 99.3746 85.84L98.0066 85.368C97.5266 86.352 96.6626 86.888 95.5266 86.888C93.9346 86.888 93.0066 85.872 92.8946 84.08H99.5186C99.6466 81.008 98.1266 79.12 95.5266 79.12C93.0146 79.12 91.3666 80.904 91.3666 83.736C91.3666 86.44 93.0386 88.24 95.5906 88.24ZM92.9186 82.936C93.1186 81.296 94.0226 80.4 95.5746 80.4C97.0386 80.4 97.8626 81.24 98.0386 82.936H92.9186ZM104.692 88.24C105.764 88.24 106.62 87.856 107.236 87.2V91.84H108.668V79.36H107.396V80.328C106.764 79.568 105.86 79.12 104.684 79.12C102.284 79.12 100.82 81.08 100.82 83.672C100.82 86.264 102.276 88.24 104.692 88.24ZM102.332 83.672C102.332 81.848 103.148 80.424 104.908 80.424C106.596 80.424 107.396 81.76 107.396 83.672C107.396 85.568 106.612 86.936 104.868 86.936C103.164 86.936 102.332 85.512 102.332 83.672ZM114.189 88.224C115.437 88.224 116.429 87.744 117.069 86.888V88H118.341V79.36H116.909V83.912C116.909 85.912 115.965 86.872 114.533 86.872C112.709 86.872 112.189 85.312 112.189 83.688V79.36H110.749V84.136C110.749 85.776 111.405 88.224 114.189 88.224ZM124.325 88.24C125.997 88.24 127.429 87.368 128.109 85.84L126.741 85.368C126.261 86.352 125.397 86.888 124.261 86.888C122.669 86.888 121.741 85.872 121.629 84.08H128.253C128.381 81.008 126.861 79.12 124.261 79.12C121.749 79.12 120.101 80.904 120.101 83.736C120.101 86.44 121.773 88.24 124.325 88.24ZM121.653 82.936C121.853 81.296 122.757 80.4 124.309 80.4C125.773 80.4 126.597 81.24 126.773 82.936H121.653ZM135.952 83.672V88H137.392V83.224C137.392 81.584 136.736 79.136 133.952 79.136C132.704 79.136 131.712 79.616 131.072 80.472V79.36H129.792V88H131.232V83.448C131.232 81.448 132.176 80.488 133.608 80.488C135.432 80.488 135.952 82.048 135.952 83.672ZM143.033 88.24C144.817 88.24 146.121 87.368 146.729 85.752L145.289 85.376C144.897 86.36 144.153 86.888 143.033 86.888C141.313 86.888 140.441 85.608 140.425 83.68C140.441 81.808 141.257 80.472 143.033 80.472C144.081 80.472 144.953 81.056 145.321 82.056L146.729 81.632C146.273 80.08 144.865 79.12 143.049 79.12C140.449 79.12 138.937 80.984 138.913 83.68C138.937 86.328 140.401 88.24 143.033 88.24ZM151.872 88.24C153.544 88.24 154.976 87.368 155.656 85.84L154.288 85.368C153.808 86.352 152.944 86.888 151.808 86.888C150.216 86.888 149.288 85.872 149.176 84.08H155.8C155.928 81.008 154.408 79.12 151.808 79.12C149.296 79.12 147.648 80.904 147.648 83.736C147.648 86.44 149.32 88.24 151.872 88.24ZM149.2 82.936C149.4 81.296 150.304 80.4 151.856 80.4C153.32 80.4 154.144 81.24 154.32 82.936H149.2Z" fill="#D3D7E0"/>
    <path d="M44.1825 192H45.6065V187.744H48.9745L51.0385 192H52.6705L50.4465 187.432C51.7505 186.888 52.4305 185.632 52.4305 184.112C52.4305 182.28 51.4465 180.832 49.5825 180.544C49.2865 180.496 48.9585 180.48 48.7345 180.48H44.1825V192ZM45.6065 186.392V181.832H48.6865C48.8865 181.832 49.1665 181.848 49.4065 181.904C50.5105 182.152 50.9745 183.152 50.9745 184.112C50.9745 185.072 50.5105 186.072 49.4065 186.32C49.1665 186.376 48.8865 186.392 48.6865 186.392H45.6065ZM58.1765 192.24C59.8485 192.24 61.2805 191.368 61.9605 189.84L60.5925 189.368C60.1125 190.352 59.2485 190.888 58.1125 190.888C56.5205 190.888 55.5925 189.872 55.4805 188.08H62.1045C62.2325 185.008 60.7125 183.12 58.1125 183.12C55.6005 183.12 53.9525 184.904 53.9525 187.736C53.9525 190.44 55.6245 192.24 58.1765 192.24ZM55.5045 186.936C55.7045 185.296 56.6085 184.4 58.1605 184.4C59.6245 184.4 60.4485 185.24 60.6245 186.936H55.5045ZM66.1854 192.24C67.6254 192.24 68.6974 191.712 69.3854 190.656V192H70.6494V186.656C70.6494 185.976 70.6094 185.344 70.3694 184.808C69.8734 183.68 68.6974 183.12 67.1374 183.12C65.1854 183.12 63.9774 184.04 63.5694 185.552L64.9214 185.96C65.2334 184.904 66.0734 184.448 67.1214 184.448C68.6174 184.448 69.2094 185.104 69.2494 186.48C67.9694 186.656 66.4494 186.84 65.3694 187.128C64.0574 187.512 63.2494 188.304 63.2494 189.664C63.2494 191.056 64.2494 192.24 66.1854 192.24ZM64.6654 189.656C64.6654 188.848 65.2974 188.456 66.0094 188.232C66.8494 187.992 68.0174 187.856 69.2334 187.696C69.2254 188.088 69.2094 188.64 69.0894 189.056C68.8814 190.128 67.9374 191.048 66.4014 191.048C65.1694 191.048 64.6654 190.368 64.6654 189.656ZM72.7294 192H74.1614V187.664C74.1614 186.64 74.3694 185.624 75.2094 185.024C75.8094 184.584 76.5854 184.544 77.1854 184.696V183.36C76.4174 183.192 75.4014 183.352 74.7374 183.888C74.4494 184.096 74.1934 184.392 74.0014 184.728V183.36H72.7294V192ZM78.6981 192H80.1301V187.664C80.1301 186.64 80.3381 185.624 81.1781 185.024C81.7781 184.584 82.5541 184.544 83.1541 184.696V183.36C82.3861 183.192 81.3701 183.352 80.7061 183.888C80.4181 184.096 80.1621 184.392 79.9701 184.728V183.36H78.6981V192ZM88.2546 192.24C89.9266 192.24 91.3586 191.368 92.0386 189.84L90.6706 189.368C90.1906 190.352 89.3266 190.888 88.1906 190.888C86.5986 190.888 85.6706 189.872 85.5586 188.08H92.1826C92.3106 185.008 90.7906 183.12 88.1906 183.12C85.6786 183.12 84.0306 184.904 84.0306 187.736C84.0306 190.44 85.7026 192.24 88.2546 192.24ZM85.5826 186.936C85.7826 185.296 86.6866 184.4 88.2386 184.4C89.7026 184.4 90.5266 185.24 90.7026 186.936H85.5826ZM99.8814 187.672V192H101.321V187.224C101.321 185.584 100.665 183.136 97.8814 183.136C96.6334 183.136 95.6414 183.616 95.0014 184.472V183.36H93.7214V192H95.1614V187.448C95.1614 185.448 96.1054 184.488 97.5374 184.488C99.3614 184.488 99.8814 186.048 99.8814 187.672ZM106.897 196.08C108.961 196.08 110.321 195.224 110.657 193.384C110.737 192.96 110.761 192.536 110.761 192.056V183.36H109.497V184.328C108.865 183.568 107.961 183.12 106.785 183.12C104.385 183.12 102.921 185.08 102.921 187.672C102.921 190.264 104.377 192.24 106.793 192.24C107.857 192.24 108.713 191.856 109.329 191.208V192.04C109.345 193.8 108.553 194.704 106.905 194.704C106.065 194.704 105.209 194.344 104.785 193.496L103.481 194.184C104.201 195.472 105.537 196.08 106.897 196.08ZM104.433 187.672C104.433 185.848 105.249 184.424 107.009 184.424C108.697 184.424 109.497 185.76 109.497 187.672C109.497 189.568 108.713 190.936 106.969 190.936C105.265 190.936 104.433 189.512 104.433 187.672ZM116.739 192.24C118.411 192.24 119.843 191.368 120.523 189.84L119.155 189.368C118.675 190.352 117.811 190.888 116.675 190.888C115.083 190.888 114.155 189.872 114.043 188.08H120.667C120.795 185.008 119.275 183.12 116.675 183.12C114.163 183.12 112.515 184.904 112.515 187.736C112.515 190.44 114.187 192.24 116.739 192.24ZM114.067 186.936C114.267 185.296 115.171 184.4 116.723 184.4C118.187 184.4 119.011 185.24 119.187 186.936H114.067ZM125.84 192.24C127.008 192.24 127.912 191.784 128.544 191.024V192H129.816V180.48H128.384V184.144C127.768 183.496 126.912 183.12 125.832 183.12C123.432 183.12 121.968 185.08 121.968 187.672C121.968 190.264 123.424 192.24 125.84 192.24ZM123.48 187.672C123.48 185.848 124.296 184.424 126.056 184.424C127.744 184.424 128.544 185.76 128.544 187.672C128.544 189.568 127.76 190.936 126.016 190.936C124.312 190.936 123.48 189.512 123.48 187.672ZM54.2746 212.232C56.4266 212.232 57.7306 211.224 57.7306 209.552C57.7306 208.216 56.9866 207.576 54.7066 206.992C52.6746 206.48 52.2346 206.208 52.2346 205.576C52.2346 204.84 53.0026 204.36 54.1226 204.392C55.2986 204.424 56.0986 204.992 56.2426 205.912L57.6986 205.648C57.5146 204.128 56.0906 203.12 54.1226 203.12C52.1306 203.12 50.8026 204.128 50.8026 205.648C50.8026 206.888 51.5306 207.48 53.8186 208.088C55.9306 208.656 56.2586 208.864 56.2586 209.592C56.2586 210.44 55.5386 210.96 54.3626 210.96C53.1146 210.96 52.2186 210.376 51.9866 209.432L50.5306 209.664C50.8266 211.288 52.2106 212.232 54.2746 212.232ZM63.239 212.24C64.911 212.24 66.343 211.368 67.023 209.84L65.655 209.368C65.175 210.352 64.311 210.888 63.175 210.888C61.583 210.888 60.655 209.872 60.543 208.08H67.167C67.295 205.008 65.775 203.12 63.175 203.12C60.663 203.12 59.015 204.904 59.015 207.736C59.015 210.44 60.687 212.24 63.239 212.24ZM60.567 206.936C60.767 205.296 61.671 204.4 63.223 204.4C64.687 204.4 65.511 205.24 65.687 206.936H60.567ZM72.3401 212.24C73.4121 212.24 74.2681 211.856 74.8841 211.2V215.84H76.3161V203.36H75.0441V204.328C74.4121 203.568 73.5081 203.12 72.3321 203.12C69.9321 203.12 68.4681 205.08 68.4681 207.672C68.4681 210.264 69.9241 212.24 72.3401 212.24ZM69.9801 207.672C69.9801 205.848 70.7961 204.424 72.5561 204.424C74.2441 204.424 75.0441 205.76 75.0441 207.672C75.0441 209.568 74.2601 210.936 72.5161 210.936C70.8121 210.936 69.9801 209.512 69.9801 207.672ZM81.8375 212.224C83.0855 212.224 84.0775 211.744 84.7175 210.888V212H85.9895V203.36H84.5575V207.912C84.5575 209.912 83.6135 210.872 82.1815 210.872C80.3575 210.872 79.8375 209.312 79.8375 207.688V203.36H78.3975V208.136C78.3975 209.776 79.0535 212.224 81.8375 212.224ZM91.9734 212.24C93.6454 212.24 95.0774 211.368 95.7574 209.84L94.3894 209.368C93.9094 210.352 93.0454 210.888 91.9094 210.888C90.3174 210.888 89.3894 209.872 89.2774 208.08H95.9014C96.0294 205.008 94.5094 203.12 91.9094 203.12C89.3974 203.12 87.7494 204.904 87.7494 207.736C87.7494 210.44 89.4214 212.24 91.9734 212.24ZM89.3014 206.936C89.5014 205.296 90.4054 204.4 91.9574 204.4C93.4214 204.4 94.2454 205.24 94.4214 206.936H89.3014ZM103.6 207.672V212H105.04V207.224C105.04 205.584 104.384 203.136 101.6 203.136C100.352 203.136 99.3601 203.616 98.7201 204.472V203.36H97.4401V212H98.8801V207.448C98.8801 205.448 99.8241 204.488 101.256 204.488C103.08 204.488 103.6 206.048 103.6 207.672ZM110.682 212.24C112.466 212.24 113.77 211.368 114.378 209.752L112.938 209.376C112.546 210.36 111.802 210.888 110.682 210.888C108.962 210.888 108.09 209.608 108.074 207.68C108.09 205.808 108.906 204.472 110.682 204.472C111.73 204.472 112.602 205.056 112.97 206.056L114.378 205.632C113.922 204.08 112.514 203.12 110.698 203.12C108.098 203.12 106.586 204.984 106.562 207.68C106.586 210.328 108.05 212.24 110.682 212.24ZM119.52 212.24C121.192 212.24 122.624 211.368 123.304 209.84L121.936 209.368C121.456 210.352 120.592 210.888 119.456 210.888C117.864 210.888 116.936 209.872 116.824 208.08H123.448C123.576 205.008 122.056 203.12 119.456 203.12C116.944 203.12 115.296 204.904 115.296 207.736C115.296 210.44 116.968 212.24 119.52 212.24ZM116.848 206.936C117.048 205.296 117.952 204.4 119.504 204.4C120.968 204.4 121.792 205.24 121.968 206.936H116.848Z" fill="#D3D7E0"/>
    <path d="M180 24L172 24L172 160L180 160" stroke="white" stroke-opacity="0.3" stroke-width="2"/>
    <path d="M180 176L172 176L172 216L180 216" stroke="white" stroke-opacity="0.3" stroke-width="2"/>
    <path d="M23.3231 296.24C26.6911 296.24 28.4831 293.912 28.4831 290.752C28.4831 290.656 28.4751 290.296 28.4511 290.072H24.4991V291.248H26.9471C26.7711 293.544 25.6191 294.896 23.3951 294.88C20.8191 294.864 19.5151 293 19.5311 290.24C19.5471 287.48 20.8191 285.592 23.3951 285.608C25.0351 285.616 26.1471 286.512 26.6351 287.904L28.0751 287.608C27.4751 285.536 25.8991 284.248 23.3231 284.248C20.0991 284.248 18.0191 286.568 18.0191 290.24C18.0191 293.952 20.1471 296.24 23.3231 296.24ZM33.8249 296.24C35.4969 296.24 36.9289 295.368 37.6089 293.84L36.2409 293.368C35.7609 294.352 34.8969 294.888 33.7609 294.888C32.1689 294.888 31.2409 293.872 31.1289 292.08H37.7529C37.8809 289.008 36.3609 287.12 33.7609 287.12C31.2489 287.12 29.6009 288.904 29.6009 291.736C29.6009 294.44 31.2729 296.24 33.8249 296.24ZM31.1529 290.936C31.3529 289.296 32.2569 288.4 33.8089 288.4C35.2729 288.4 36.0969 289.24 36.2729 290.936H31.1529ZM49.6357 290.472L49.6277 296H51.0517L51.0597 290.16C51.0597 288.32 49.9557 287.136 48.1557 287.136C47.0197 287.136 46.0517 287.672 45.5397 288.56C45.0757 287.656 44.1877 287.136 43.0197 287.136C41.9877 287.136 41.1077 287.576 40.5637 288.28V287.36H39.2917V296H40.7237V290.512C40.7237 289.248 41.4757 288.408 42.6037 288.408C43.7317 288.408 44.4757 289.216 44.4757 290.528L44.4677 296H45.8837L45.8917 290.512C45.8917 289.056 46.8117 288.408 47.7797 288.408C48.8677 288.408 49.6357 289.184 49.6357 290.472ZM53.3034 296H54.7274V284.48H53.3034V296ZM57.2878 285.832H58.7118V284.36H57.2878V285.832ZM57.2878 296H58.7118V287.36H57.2878V296ZM67.2642 291.672V296H68.7042V291.224C68.7042 289.584 68.0482 287.136 65.2642 287.136C64.0162 287.136 63.0242 287.616 62.3842 288.472V287.36H61.1042V296H62.5442V291.448C62.5442 289.448 63.4882 288.488 64.9202 288.488C66.7442 288.488 67.2642 290.048 67.2642 291.672ZM74.4499 296.24C76.1219 296.24 77.5539 295.368 78.2339 293.84L76.8659 293.368C76.3859 294.352 75.5219 294.888 74.3859 294.888C72.7939 294.888 71.8659 293.872 71.7539 292.08H78.3779C78.5059 289.008 76.9859 287.12 74.3859 287.12C71.8739 287.12 70.2259 288.904 70.2259 291.736C70.2259 294.44 71.8979 296.24 74.4499 296.24ZM71.7779 290.936C71.9779 289.296 72.8819 288.4 74.4339 288.4C75.8979 288.4 76.7219 289.24 76.8979 290.936H71.7779ZM86.6262 296.232C88.7782 296.232 90.0822 295.224 90.0822 293.552C90.0822 292.216 89.3382 291.576 87.0582 290.992C85.0262 290.48 84.5862 290.208 84.5862 289.576C84.5862 288.84 85.3542 288.36 86.4742 288.392C87.6502 288.424 88.4502 288.992 88.5942 289.912L90.0502 289.648C89.8662 288.128 88.4422 287.12 86.4742 287.12C84.4822 287.12 83.1542 288.128 83.1542 289.648C83.1542 290.888 83.8822 291.48 86.1702 292.088C88.2822 292.656 88.6102 292.864 88.6102 293.592C88.6102 294.44 87.8902 294.96 86.7142 294.96C85.4662 294.96 84.5702 294.376 84.3382 293.432L82.8822 293.664C83.1782 295.288 84.5622 296.232 86.6262 296.232ZM95.5906 296.24C97.2626 296.24 98.6946 295.368 99.3746 293.84L98.0066 293.368C97.5266 294.352 96.6626 294.888 95.5266 294.888C93.9346 294.888 93.0066 293.872 92.8946 292.08H99.5186C99.6466 289.008 98.1266 287.12 95.5266 287.12C93.0146 287.12 91.3666 288.904 91.3666 291.736C91.3666 294.44 93.0386 296.24 95.5906 296.24ZM92.9186 290.936C93.1186 289.296 94.0226 288.4 95.5746 288.4C97.0386 288.4 97.8626 289.24 98.0386 290.936H92.9186ZM104.692 296.24C105.764 296.24 106.62 295.856 107.236 295.2V299.84H108.668V287.36H107.396V288.328C106.764 287.568 105.86 287.12 104.684 287.12C102.284 287.12 100.82 289.08 100.82 291.672C100.82 294.264 102.276 296.24 104.692 296.24ZM102.332 291.672C102.332 289.848 103.148 288.424 104.908 288.424C106.596 288.424 107.396 289.76 107.396 291.672C107.396 293.568 106.612 294.936 104.868 294.936C103.164 294.936 102.332 293.512 102.332 291.672ZM114.189 296.224C115.437 296.224 116.429 295.744 117.069 294.888V296H118.341V287.36H116.909V291.912C116.909 293.912 115.965 294.872 114.533 294.872C112.709 294.872 112.189 293.312 112.189 291.688V287.36H110.749V292.136C110.749 293.776 111.405 296.224 114.189 296.224ZM124.325 296.24C125.997 296.24 127.429 295.368 128.109 293.84L126.741 293.368C126.261 294.352 125.397 294.888 124.261 294.888C122.669 294.888 121.741 293.872 121.629 292.08H128.253C128.381 289.008 126.861 287.12 124.261 287.12C121.749 287.12 120.101 288.904 120.101 291.736C120.101 294.44 121.773 296.24 124.325 296.24ZM121.653 290.936C121.853 289.296 122.757 288.4 124.309 288.4C125.773 288.4 126.597 289.24 126.773 290.936H121.653ZM135.952 291.672V296H137.392V291.224C137.392 289.584 136.736 287.136 133.952 287.136C132.704 287.136 131.712 287.616 131.072 288.472V287.36H129.792V296H131.232V291.448C131.232 289.448 132.176 288.488 133.608 288.488C135.432 288.488 135.952 290.048 135.952 291.672ZM143.033 296.24C144.817 296.24 146.121 295.368 146.729 293.752L145.289 293.376C144.897 294.36 144.153 294.888 143.033 294.888C141.313 294.888 140.441 293.608 140.425 291.68C140.441 289.808 141.257 288.472 143.033 288.472C144.081 288.472 144.953 289.056 145.321 290.056L146.729 289.632C146.273 288.08 144.865 287.12 143.049 287.12C140.449 287.12 138.937 288.984 138.913 291.68C138.937 294.328 140.401 296.24 143.033 296.24ZM151.872 296.24C153.544 296.24 154.976 295.368 155.656 293.84L154.288 293.368C153.808 294.352 152.944 294.888 151.808 294.888C150.216 294.888 149.288 293.872 149.176 292.08H155.8C155.928 289.008 154.408 287.12 151.808 287.12C149.296 287.12 147.648 288.904 147.648 291.736C147.648 294.44 149.32 296.24 151.872 296.24ZM149.2 290.936C149.4 289.296 150.304 288.4 151.856 288.4C153.32 288.4 154.144 289.24 154.32 290.936H149.2Z" fill="#D3D7E0"/>
    <path d="M180 232L172 232L172 368L180 368" stroke="white" stroke-opacity="0.3" stroke-width="2"/>
    <path d="M640 24L640 80" stroke="white" stroke-opacity="0.3" stroke-width="2"/>
    <path d="M651.2 40.232C652.36 40.232 653.368 39.76 653.952 38.744C654.376 38.008 654.328 37.376 654.328 36.384V28.48H652.888V36.384C652.888 37.096 652.888 37.592 652.68 38.008C652.368 38.632 651.712 38.88 651.168 38.88C650.312 38.88 649.584 38.264 649.416 37.48L648 37.816C648.408 39.288 649.584 40.232 651.2 40.232ZM656.729 40H661.617C663.729 40 665.041 38.72 665.041 36.704C665.041 35.424 664.369 34.4 663.201 33.904C664.001 33.44 664.489 32.568 664.489 31.512C664.489 29.912 663.281 28.48 661.217 28.48H656.729V40ZM658.169 38.64V34.632H661.505C662.729 34.632 663.577 35.536 663.577 36.696C663.577 37.912 662.617 38.64 661.345 38.64H658.169ZM658.169 33.288V29.824H661.201C662.281 29.824 663.025 30.52 663.025 31.512C663.025 32.592 662.217 33.288 661.201 33.288H658.169ZM670.38 40.24C672.052 40.24 673.484 39.368 674.164 37.84L672.796 37.368C672.316 38.352 671.452 38.888 670.316 38.888C668.724 38.888 667.796 37.872 667.684 36.08H674.308C674.436 33.008 672.916 31.12 670.316 31.12C667.804 31.12 666.156 32.904 666.156 35.736C666.156 38.44 667.828 40.24 670.38 40.24ZM667.708 34.936C667.908 33.296 668.812 32.4 670.364 32.4C671.828 32.4 672.652 33.24 672.828 34.936H667.708ZM679.585 44.08C681.649 44.08 683.009 43.224 683.345 41.384C683.425 40.96 683.449 40.536 683.449 40.056V31.36H682.185V32.328C681.553 31.568 680.649 31.12 679.473 31.12C677.073 31.12 675.609 33.08 675.609 35.672C675.609 38.264 677.065 40.24 679.481 40.24C680.545 40.24 681.401 39.856 682.017 39.208V40.04C682.033 41.8 681.241 42.704 679.593 42.704C678.753 42.704 677.897 42.344 677.473 41.496L676.169 42.184C676.889 43.472 678.225 44.08 679.585 44.08ZM677.121 35.672C677.121 33.848 677.937 32.424 679.697 32.424C681.385 32.424 682.185 33.76 682.185 35.672C682.185 37.568 681.401 38.936 679.657 38.936C677.953 38.936 677.121 37.512 677.121 35.672ZM685.843 29.832H687.267V28.36H685.843V29.832ZM685.843 40H687.267V31.36H685.843V40ZM695.819 35.672V40H697.259V35.224C697.259 33.584 696.603 31.136 693.819 31.136C692.571 31.136 691.579 31.616 690.939 32.472V31.36H689.659V40H691.099V35.448C691.099 33.448 692.043 32.488 693.475 32.488C695.299 32.488 695.819 34.048 695.819 35.672Z" fill="white"/>
    <path d="M496 312L496 368" stroke="white" stroke-opacity="0.3" stroke-width="2"/>
    <path d="M505.12 364H508.672C508.888 364 509.592 364 510.128 363.928C512.792 363.576 514.176 361.184 514.176 358.24C514.176 355.304 512.792 352.904 510.128 352.552C509.584 352.48 508.896 352.48 508.672 352.48H505.12V364ZM506.584 362.64V353.84H508.672C509.056 353.84 509.632 353.856 510.008 353.928C511.872 354.264 512.664 356.064 512.664 358.24C512.664 360.376 511.896 362.208 510.008 362.552C509.632 362.624 509.072 362.64 508.672 362.64H506.584ZM516.011 364H520.899C523.011 364 524.323 362.72 524.323 360.704C524.323 359.424 523.651 358.4 522.483 357.904C523.283 357.44 523.771 356.568 523.771 355.512C523.771 353.912 522.563 352.48 520.499 352.48H516.011V364ZM517.451 362.64V358.632H520.787C522.011 358.632 522.859 359.536 522.859 360.696C522.859 361.912 521.899 362.64 520.627 362.64H517.451ZM517.451 357.288V353.824H520.483C521.563 353.824 522.307 354.52 522.307 355.512C522.307 356.592 521.499 357.288 520.483 357.288H517.451ZM529.661 364.24C531.333 364.24 532.765 363.368 533.445 361.84L532.077 361.368C531.597 362.352 530.733 362.888 529.597 362.888C528.005 362.888 527.077 361.872 526.965 360.08H533.589C533.717 357.008 532.197 355.12 529.597 355.12C527.085 355.12 525.437 356.904 525.437 359.736C525.437 362.44 527.109 364.24 529.661 364.24ZM526.989 358.936C527.189 357.296 528.093 356.4 529.645 356.4C531.109 356.4 531.933 357.24 532.109 358.936H526.989ZM538.866 368.08C540.93 368.08 542.29 367.224 542.626 365.384C542.706 364.96 542.73 364.536 542.73 364.056V355.36H541.466V356.328C540.834 355.568 539.93 355.12 538.754 355.12C536.354 355.12 534.89 357.08 534.89 359.672C534.89 362.264 536.346 364.24 538.762 364.24C539.826 364.24 540.682 363.856 541.298 363.208V364.04C541.314 365.8 540.522 366.704 538.874 366.704C538.034 366.704 537.178 366.344 536.754 365.496L535.45 366.184C536.17 367.472 537.506 368.08 538.866 368.08ZM536.402 359.672C536.402 357.848 537.218 356.424 538.978 356.424C540.666 356.424 541.466 357.76 541.466 359.672C541.466 361.568 540.682 362.936 538.938 362.936C537.234 362.936 536.402 361.512 536.402 359.672ZM545.124 353.832H546.548V352.36H545.124V353.832ZM545.124 364H546.548V355.36H545.124V364ZM555.1 359.672V364H556.54V359.224C556.54 357.584 555.884 355.136 553.1 355.136C551.852 355.136 550.86 355.616 550.22 356.472V355.36H548.94V364H550.38V359.448C550.38 357.448 551.324 356.488 552.756 356.488C554.58 356.488 555.1 358.048 555.1 359.672Z" fill="white"/>
    <path d="M711 148L711.707 148.707L712.414 148L711.707 147.293L711 148ZM703.707 139.293L703 138.586L701.586 140L702.293 140.707L703.707 139.293ZM702.293 155.293L701.586 156L703 157.414L703.707 156.707L702.293 155.293ZM680 149H711V147H680V149ZM711.707 147.293L703.707 139.293L702.293 140.707L710.293 148.707L711.707 147.293ZM710.293 147.293L702.293 155.293L703.707 156.707L711.707 148.707L710.293 147.293Z" fill="#D3D7E0"/>
    <path d="M521 148L520.293 148.707L519.586 148L520.293 147.293L521 148ZM528.293 139.293L529 138.586L530.414 140L529.707 140.707L528.293 139.293ZM529.707 155.293L530.414 156L529 157.414L528.293 156.707L529.707 155.293ZM552 149H521V147H552V149ZM520.293 147.293L528.293 139.293L529.707 140.707L521.707 148.707L520.293 147.293ZM521.707 147.293L529.707 155.293L528.293 156.707L520.293 148.707L521.707 147.293Z" fill="#D3D7E0"/>
    <path d="M705 244L704.293 244.707L703.586 244L704.293 243.293L705 244ZM712.293 235.293L713 234.586L714.414 236L713.707 236.707L712.293 235.293ZM713.707 251.293L714.414 252L713 253.414L712.293 252.707L713.707 251.293ZM736 245H705V243H736V245ZM704.293 243.293L712.293 235.293L713.707 236.707L705.707 244.707L704.293 243.293ZM705.707 243.293L713.707 251.293L712.293 252.707L704.293 244.707L705.707 243.293Z" fill="#D3D7E0"/>
    <path d="M527 244L527.707 244.707L528.414 244L527.707 243.293L527 244ZM519.707 235.293L519 234.586L517.586 236L518.293 236.707L519.707 235.293ZM518.293 251.293L517.586 252L519 253.414L519.707 252.707L518.293 251.293ZM496 245H527V243H496V245ZM527.707 243.293L519.707 235.293L518.293 236.707L526.293 244.707L527.707 243.293ZM526.293 243.293L518.293 251.293L519.707 252.707L527.707 244.707L526.293 243.293Z" fill="#D3D7E0"/>
    <path d="M208 136V160" stroke="white" stroke-opacity="0.3" stroke-width="2"/>
    <path d="M224 136V160" stroke="white" stroke-opacity="0.3" stroke-width="2"/>
    <path d="M240 136V160" stroke="white" stroke-opacity="0.3" stroke-width="2"/>
    <path d="M256 136V160" stroke="white" stroke-opacity="0.3" stroke-width="2"/>
    <path d="M272 136V160" stroke="white" stroke-opacity="0.3" stroke-width="2"/>
    <path d="M288 136V160" stroke="white" stroke-opacity="0.3" stroke-width="2"/>
    <path d="M304 136V160" stroke="white" stroke-opacity="0.3" stroke-width="2"/>
    <path d="M320 136V160" stroke="white" stroke-opacity="0.3" stroke-width="2"/>
    <path d="M336 136V160" stroke="white" stroke-opacity="0.3" stroke-width="2"/>
    <path d="M352 136V160" stroke="white" stroke-opacity="0.3" stroke-width="2"/>
    <path d="M368 136V160" stroke="white" stroke-opacity="0.3" stroke-width="2"/>
    <path d="M384 136V160" stroke="white" stroke-opacity="0.3" stroke-width="2"/>
    <path d="M400 136V160" stroke="white" stroke-opacity="0.3" stroke-width="2"/>
    <path d="M416 136V160" stroke="white" stroke-opacity="0.3" stroke-width="2"/>
    <path d="M432 136V160" stroke="white" stroke-opacity="0.3" stroke-width="2"/>
    <path d="M448 136V160" stroke="white" stroke-opacity="0.3" stroke-width="2"/>
    <path d="M464 136V160" stroke="white" stroke-opacity="0.3" stroke-width="2"/>
    <path d="M480 136V160" stroke="white" stroke-opacity="0.3" stroke-width="2"/>
    <path d="M496 136V160" stroke="white" stroke-opacity="0.3" stroke-width="2"/>
    <path d="M512 174V122" stroke="#110529" stroke-width="2" stroke-linecap="square" stroke-dasharray="6 6"/>
    <path d="M1024 136V160" stroke="white" stroke-opacity="0.3" stroke-width="2"/>
    <path d="M1008 136V160" stroke="white" stroke-opacity="0.3" stroke-width="2"/>
    <path d="M992 136V160" stroke="white" stroke-opacity="0.3" stroke-width="2"/>
    <path d="M976 136V160" stroke="white" stroke-opacity="0.3" stroke-width="2"/>
    <path d="M960 136V160" stroke="white" stroke-opacity="0.3" stroke-width="2"/>
    <path d="M944 136V160" stroke="white" stroke-opacity="0.3" stroke-width="2"/>
    <path d="M928 136V160" stroke="white" stroke-opacity="0.3" stroke-width="2"/>
    <path d="M912 136V160" stroke="white" stroke-opacity="0.3" stroke-width="2"/>
    <path d="M896 136V160" stroke="white" stroke-opacity="0.3" stroke-width="2"/>
    <path d="M880 136V160" stroke="white" stroke-opacity="0.3" stroke-width="2"/>
    <path d="M864 136V160" stroke="white" stroke-opacity="0.3" stroke-width="2"/>
    <path d="M848 136V160" stroke="white" stroke-opacity="0.3" stroke-width="2"/>
    <path d="M832 136V160" stroke="white" stroke-opacity="0.3" stroke-width="2"/>
    <path d="M816 136V160" stroke="white" stroke-opacity="0.3" stroke-width="2"/>
    <path d="M800 136V160" stroke="white" stroke-opacity="0.3" stroke-width="2"/>
    <path d="M784 136V160" stroke="white" stroke-opacity="0.3" stroke-width="2"/>
    <path d="M768 136V160" stroke="white" stroke-opacity="0.3" stroke-width="2"/>
    <path d="M752 136V160" stroke="white" stroke-opacity="0.3" stroke-width="2"/>
    <path d="M736 136V160" stroke="white" stroke-opacity="0.3" stroke-width="2"/>
    <path d="M720 174V122" stroke="#110529" stroke-width="2" stroke-linecap="square" stroke-dasharray="6 6"/>
    <path d="M696 270V218" stroke="#110529" stroke-width="2" stroke-linecap="square" stroke-dasharray="6 6"/>
    <path d="M680 232V256" stroke="white" stroke-opacity="0.3" stroke-width="2"/>
    <path d="M664 232V256" stroke="white" stroke-opacity="0.3" stroke-width="2"/>
    <path d="M648 232V256" stroke="white" stroke-opacity="0.3" stroke-width="2"/>
    <path d="M632 232V256" stroke="white" stroke-opacity="0.3" stroke-width="2"/>
    <path d="M616 232V256" stroke="white" stroke-opacity="0.3" stroke-width="2"/>
    <path d="M600 232V256" stroke="white" stroke-opacity="0.3" stroke-width="2"/>
    <path d="M584 232V256" stroke="white" stroke-opacity="0.3" stroke-width="2"/>
    <path d="M568 232V256" stroke="white" stroke-opacity="0.3" stroke-width="2"/>
    <path d="M552 232V256" stroke="white" stroke-opacity="0.3" stroke-width="2"/>
    <path d="M536 270V218" stroke="#110529" stroke-width="2" stroke-linecap="square" stroke-dasharray="6 6"/>
    <defs>
        <filter id="filter0_i_5874_36215" x="194.718" y="79" width="158.282" height="42" filterUnits="userSpaceOnUse" color-interpolation-filters="sRGB">
            <feFlood flood-opacity="0" result="BackgroundImageFix"/>
            <feBlend mode="normal" in="SourceGraphic" in2="BackgroundImageFix" result="shape"/>
            <feColorMatrix in="SourceAlpha" type="matrix" values="0 0 0 0 0 0 0 0 0 0 0 0 0 0 0 0 0 0 127 0" result="hardAlpha"/>
            <feOffset dx="-8" dy="-4"/>
            <feComposite in2="hardAlpha" operator="arithmetic" k2="-1" k3="1"/>
            <feColorMatrix type="matrix" values="0 0 0 0 0.0666667 0 0 0 0 0.0196078 0 0 0 0 0.160784 0 0 0 0.16 0"/>
            <feBlend mode="normal" in2="shape" result="effect1_innerShadow_5874_36215"/>
        </filter>
        <filter id="filter1_i_5874_36215" x="879" y="79" width="158.281" height="42" filterUnits="userSpaceOnUse" color-interpolation-filters="sRGB">
            <feFlood flood-opacity="0" result="BackgroundImageFix"/>
            <feBlend mode="normal" in="SourceGraphic" in2="BackgroundImageFix" result="shape"/>
            <feColorMatrix in="SourceAlpha" type="matrix" values="0 0 0 0 0 0 0 0 0 0 0 0 0 0 0 0 0 0 127 0" result="hardAlpha"/>
            <feOffset dx="-8" dy="-4"/>
            <feComposite in2="hardAlpha" operator="arithmetic" k2="-1" k3="1"/>
            <feColorMatrix type="matrix" values="0 0 0 0 0.0666667 0 0 0 0 0.0196078 0 0 0 0 0.160784 0 0 0 0.16 0"/>
            <feBlend mode="normal" in2="shape" result="effect1_innerShadow_5874_36215"/>
        </filter>
        <filter id="filter2_i_5874_36215" x="351" y="79" width="242" height="42" filterUnits="userSpaceOnUse" color-interpolation-filters="sRGB">
            <feFlood flood-opacity="0" result="BackgroundImageFix"/>
            <feBlend mode="normal" in="SourceGraphic" in2="BackgroundImageFix" result="shape"/>
            <feColorMatrix in="SourceAlpha" type="matrix" values="0 0 0 0 0 0 0 0 0 0 0 0 0 0 0 0 0 0 127 0" result="hardAlpha"/>
            <feOffset dx="-8" dy="-4"/>
            <feComposite in2="hardAlpha" operator="arithmetic" k2="-1" k3="1"/>
            <feColorMatrix type="matrix" values="0 0 0 0 0.0666667 0 0 0 0 0.0196078 0 0 0 0 0.160784 0 0 0 0.16 0"/>
            <feBlend mode="normal" in2="shape" result="effect1_innerShadow_5874_36215"/>
        </filter>
        <filter id="filter3_i_5874_36215" x="639" y="79" width="242" height="42" filterUnits="userSpaceOnUse" color-interpolation-filters="sRGB">
            <feFlood flood-opacity="0" result="BackgroundImageFix"/>
            <feBlend mode="normal" in="SourceGraphic" in2="BackgroundImageFix" result="shape"/>
            <feColorMatrix in="SourceAlpha" type="matrix" values="0 0 0 0 0 0 0 0 0 0 0 0 0 0 0 0 0 0 127 0" result="hardAlpha"/>
            <feOffset dx="-8" dy="-4"/>
            <feComposite in2="hardAlpha" operator="arithmetic" k2="-1" k3="1"/>
            <feColorMatrix type="matrix" values="0 0 0 0 0.0666667 0 0 0 0 0.0196078 0 0 0 0 0.160784 0 0 0 0.16 0"/>
            <feBlend mode="normal" in2="shape" result="effect1_innerShadow_5874_36215"/>
        </filter>
        <filter id="filter4_i_5874_36215" x="495" y="271" width="242" height="42" filterUnits="userSpaceOnUse" color-interpolation-filters="sRGB">
            <feFlood flood-opacity="0" result="BackgroundImageFix"/>
            <feBlend mode="normal" in="SourceGraphic" in2="BackgroundImageFix" result="shape"/>
            <feColorMatrix in="SourceAlpha" type="matrix" values="0 0 0 0 0 0 0 0 0 0 0 0 0 0 0 0 0 0 127 0" result="hardAlpha"/>
            <feOffset dx="-8" dy="-4"/>
            <feComposite in2="hardAlpha" operator="arithmetic" k2="-1" k3="1"/>
            <feColorMatrix type="matrix" values="0 0 0 0 0.0666667 0 0 0 0 0.0196078 0 0 0 0 0.160784 0 0 0 0.16 0"/>
            <feBlend mode="normal" in2="shape" result="effect1_innerShadow_5874_36215"/>
        </filter>
        <filter id="filter5_i_5874_36215" x="194.718" y="175" width="158.282" height="42" filterUnits="userSpaceOnUse" color-interpolation-filters="sRGB">
            <feFlood flood-opacity="0" result="BackgroundImageFix"/>
            <feBlend mode="normal" in="SourceGraphic" in2="BackgroundImageFix" result="shape"/>
            <feColorMatrix in="SourceAlpha" type="matrix" values="0 0 0 0 0 0 0 0 0 0 0 0 0 0 0 0 0 0 127 0" result="hardAlpha"/>
            <feOffset dx="-8" dy="-4"/>
            <feComposite in2="hardAlpha" operator="arithmetic" k2="-1" k3="1"/>
            <feColorMatrix type="matrix" values="0 0 0 0 0.0666667 0 0 0 0 0.0196078 0 0 0 0 0.160784 0 0 0 0.16 0"/>
            <feBlend mode="normal" in2="shape" result="effect1_innerShadow_5874_36215"/>
        </filter>
        <filter id="filter6_i_5874_36215" x="351" y="175" width="162" height="42" filterUnits="userSpaceOnUse" color-interpolation-filters="sRGB">
            <feFlood flood-opacity="0" result="BackgroundImageFix"/>
            <feBlend mode="normal" in="SourceGraphic" in2="BackgroundImageFix" result="shape"/>
            <feColorMatrix in="SourceAlpha" type="matrix" values="0 0 0 0 0 0 0 0 0 0 0 0 0 0 0 0 0 0 127 0" result="hardAlpha"/>
            <feOffset dx="-8" dy="-4"/>
            <feComposite in2="hardAlpha" operator="arithmetic" k2="-1" k3="1"/>
            <feColorMatrix type="matrix" values="0 0 0 0 0.0666667 0 0 0 0 0.0196078 0 0 0 0 0.160784 0 0 0 0.16 0"/>
            <feBlend mode="normal" in2="shape" result="effect1_innerShadow_5874_36215"/>
        </filter>
        <filter id="filter7_i_5874_36215" x="511" y="175" width="26" height="42" filterUnits="userSpaceOnUse" color-interpolation-filters="sRGB">
            <feFlood flood-opacity="0" result="BackgroundImageFix"/>
            <feBlend mode="normal" in="SourceGraphic" in2="BackgroundImageFix" result="shape"/>
            <feColorMatrix in="SourceAlpha" type="matrix" values="0 0 0 0 0 0 0 0 0 0 0 0 0 0 0 0 0 0 127 0" result="hardAlpha"/>
            <feOffset dx="-8" dy="-4"/>
            <feComposite in2="hardAlpha" operator="arithmetic" k2="-1" k3="1"/>
            <feColorMatrix type="matrix" values="0 0 0 0 0.0666667 0 0 0 0 0.0196078 0 0 0 0 0.160784 0 0 0 0.16 0"/>
            <feBlend mode="normal" in2="shape" result="effect1_innerShadow_5874_36215"/>
        </filter>
        <filter id="filter8_i_5874_36215" x="535" y="175" width="162" height="42" filterUnits="userSpaceOnUse" color-interpolation-filters="sRGB">
            <feFlood flood-opacity="0" result="BackgroundImageFix"/>
            <feBlend mode="normal" in="SourceGraphic" in2="BackgroundImageFix" result="shape"/>
            <feColorMatrix in="SourceAlpha" type="matrix" values="0 0 0 0 0 0 0 0 0 0 0 0 0 0 0 0 0 0 127 0" result="hardAlpha"/>
            <feOffset dx="-8" dy="-4"/>
            <feComposite in2="hardAlpha" operator="arithmetic" k2="-1" k3="1"/>
            <feColorMatrix type="matrix" values="0 0 0 0 0.0666667 0 0 0 0 0.0196078 0 0 0 0 0.160784 0 0 0 0.16 0"/>
            <feBlend mode="normal" in2="shape" result="effect1_innerShadow_5874_36215"/>
        </filter>
        <filter id="filter9_i_5874_36215" x="695" y="175" width="26" height="42" filterUnits="userSpaceOnUse" color-interpolation-filters="sRGB">
            <feFlood flood-opacity="0" result="BackgroundImageFix"/>
            <feBlend mode="normal" in="SourceGraphic" in2="BackgroundImageFix" result="shape"/>
            <feColorMatrix in="SourceAlpha" type="matrix" values="0 0 0 0 0 0 0 0 0 0 0 0 0 0 0 0 0 0 127 0" result="hardAlpha"/>
            <feOffset dx="-8" dy="-4"/>
            <feComposite in2="hardAlpha" operator="arithmetic" k2="-1" k3="1"/>
            <feColorMatrix type="matrix" values="0 0 0 0 0.0666667 0 0 0 0 0.0196078 0 0 0 0 0.160784 0 0 0 0.16 0"/>
            <feBlend mode="normal" in2="shape" result="effect1_innerShadow_5874_36215"/>
        </filter>
        <filter id="filter10_i_5874_36215" x="719" y="175" width="162" height="42" filterUnits="userSpaceOnUse" color-interpolation-filters="sRGB">
            <feFlood flood-opacity="0" result="BackgroundImageFix"/>
            <feBlend mode="normal" in="SourceGraphic" in2="BackgroundImageFix" result="shape"/>
            <feColorMatrix in="SourceAlpha" type="matrix" values="0 0 0 0 0 0 0 0 0 0 0 0 0 0 0 0 0 0 127 0" result="hardAlpha"/>
            <feOffset dx="-8" dy="-4"/>
            <feComposite in2="hardAlpha" operator="arithmetic" k2="-1" k3="1"/>
            <feColorMatrix type="matrix" values="0 0 0 0 0.0666667 0 0 0 0 0.0196078 0 0 0 0 0.160784 0 0 0 0.16 0"/>
            <feBlend mode="normal" in2="shape" result="effect1_innerShadow_5874_36215"/>
        </filter>
        <filter id="filter11_i_5874_36215" x="879" y="175" width="158.281" height="42" filterUnits="userSpaceOnUse" color-interpolation-filters="sRGB">
            <feFlood flood-opacity="0" result="BackgroundImageFix"/>
            <feBlend mode="normal" in="SourceGraphic" in2="BackgroundImageFix" result="shape"/>
            <feColorMatrix in="SourceAlpha" type="matrix" values="0 0 0 0 0 0 0 0 0 0 0 0 0 0 0 0 0 0 127 0" result="hardAlpha"/>
            <feOffset dx="-8" dy="-4"/>
            <feComposite in2="hardAlpha" operator="arithmetic" k2="-1" k3="1"/>
            <feColorMatrix type="matrix" values="0 0 0 0 0.0666667 0 0 0 0 0.0196078 0 0 0 0 0.160784 0 0 0 0.16 0"/>
            <feBlend mode="normal" in2="shape" result="effect1_innerShadow_5874_36215"/>
        </filter>
    </defs>
</svg>
