<svg width="960" height="404" viewBox="0 0 960 404" fill="none" xmlns="http://www.w3.org/2000/svg">
    <rect width="960" height="404" fill="#1D1D29"/>
    <path d="M442 112V24" stroke="white" stroke-opacity="0.3" stroke-width="2" stroke-linecap="square" stroke-dasharray="6 6"/>
    <path d="M336.805 37V26.92H342.776V28.383H338.268V31.225H341.936V32.695H338.268V37H336.805ZM344.038 37V26.92H348.112C348.21 26.92 348.331 26.9247 348.476 26.934C348.62 26.9387 348.758 26.9527 348.889 26.976C349.449 27.0647 349.915 27.256 350.289 27.55C350.667 27.844 350.949 28.215 351.136 28.663C351.322 29.111 351.416 29.6057 351.416 30.147C351.416 30.9497 351.21 31.6427 350.8 32.226C350.389 32.8047 349.773 33.1663 348.952 33.311L348.357 33.381H345.501V37H344.038ZM349.932 37L347.944 32.898L349.421 32.52L351.605 37H349.932ZM345.501 31.995H348.056C348.149 31.995 348.252 31.9903 348.364 31.981C348.48 31.9717 348.59 31.9553 348.693 31.932C348.991 31.862 349.232 31.7337 349.414 31.547C349.596 31.3557 349.726 31.1363 349.806 30.889C349.885 30.6417 349.925 30.3943 349.925 30.147C349.925 29.8997 349.885 29.6547 349.806 29.412C349.726 29.1647 349.596 28.9477 349.414 28.761C349.232 28.5697 348.991 28.439 348.693 28.369C348.59 28.341 348.48 28.3223 348.364 28.313C348.252 28.3037 348.149 28.299 348.056 28.299H345.501V31.995ZM355.964 37.189C355.465 37.189 354.996 37.0957 354.557 36.909C354.118 36.7177 353.738 36.447 353.416 36.097C353.099 35.747 352.868 35.334 352.723 34.858L354.137 34.466C354.272 34.9 354.508 35.2337 354.844 35.467C355.18 35.6957 355.553 35.8077 355.964 35.803C356.333 35.7983 356.657 35.712 356.937 35.544C357.217 35.376 357.436 35.1497 357.595 34.865C357.754 34.5757 357.833 34.2443 357.833 33.871C357.833 33.311 357.658 32.849 357.308 32.485C356.963 32.121 356.51 31.939 355.95 31.939C355.791 31.939 355.628 31.9623 355.46 32.009C355.297 32.0557 355.143 32.1163 354.998 32.191L354.312 31.036L357.868 27.893L358.022 28.313H353.122V26.92H359.184V28.313L356.23 31.155L356.216 30.679C356.851 30.679 357.401 30.8213 357.868 31.106C358.335 31.386 358.694 31.7687 358.946 32.254C359.203 32.7347 359.331 33.2737 359.331 33.871C359.331 34.515 359.179 35.0867 358.876 35.586C358.577 36.0853 358.174 36.4773 357.665 36.762C357.161 37.0467 356.594 37.189 355.964 37.189Z" fill="white" fill-opacity="0.3"/>
    <path d="M492.682 37.21C491.674 37.21 490.815 36.9907 490.106 36.552C489.397 36.1087 488.853 35.4927 488.475 34.704C488.102 33.9153 487.915 33.0007 487.915 31.96C487.915 30.9193 488.102 30.0047 488.475 29.216C488.853 28.4273 489.397 27.8137 490.106 27.375C490.815 26.9317 491.674 26.71 492.682 26.71C493.844 26.71 494.805 27.004 495.566 27.592C496.331 28.18 496.863 28.971 497.162 29.965L495.678 30.364C495.482 29.6593 495.132 29.1063 494.628 28.705C494.129 28.3037 493.48 28.103 492.682 28.103C491.968 28.103 491.373 28.264 490.897 28.586C490.421 28.908 490.062 29.3583 489.819 29.937C489.581 30.5157 489.462 31.19 489.462 31.96C489.457 32.73 489.574 33.4043 489.812 33.983C490.055 34.5617 490.414 35.012 490.89 35.334C491.371 35.656 491.968 35.817 492.682 35.817C493.48 35.817 494.129 35.6163 494.628 35.215C495.132 34.809 495.482 34.256 495.678 33.556L497.162 33.955C496.863 34.949 496.331 35.74 495.566 36.328C494.805 36.916 493.844 37.21 492.682 37.21ZM498.702 37V26.92H501.859C501.952 26.92 502.125 26.9223 502.377 26.927C502.633 26.9317 502.878 26.9503 503.112 26.983C503.9 27.081 504.563 27.3633 505.1 27.83C505.641 28.2967 506.049 28.8893 506.325 29.608C506.6 30.322 506.738 31.106 506.738 31.96C506.738 32.8187 506.6 33.6073 506.325 34.326C506.049 35.04 505.641 35.6303 505.1 36.097C504.563 36.559 503.9 36.839 503.112 36.937C502.878 36.9697 502.633 36.9883 502.377 36.993C502.125 36.9977 501.952 37 501.859 37H498.702ZM500.2 35.607H501.859C502.017 35.607 502.206 35.6023 502.426 35.593C502.645 35.5837 502.839 35.565 503.007 35.537C503.52 35.439 503.935 35.2173 504.253 34.872C504.575 34.522 504.81 34.0927 504.96 33.584C505.109 33.0753 505.184 32.534 505.184 31.96C505.184 31.3673 505.107 30.819 504.953 30.315C504.799 29.8063 504.561 29.3817 504.239 29.041C503.921 28.6957 503.511 28.4763 503.007 28.383C502.839 28.3503 502.643 28.3317 502.419 28.327C502.199 28.3177 502.013 28.313 501.859 28.313H500.2V35.607ZM508.368 37V26.92H512.442C512.54 26.92 512.661 26.9247 512.806 26.934C512.95 26.9387 513.088 26.9527 513.219 26.976C513.779 27.0647 514.245 27.256 514.619 27.55C514.997 27.844 515.279 28.215 515.466 28.663C515.652 29.111 515.746 29.6057 515.746 30.147C515.746 30.9497 515.54 31.6427 515.13 32.226C514.719 32.8047 514.103 33.1663 513.282 33.311L512.687 33.381H509.831V37H508.368ZM514.262 37L512.274 32.898L513.751 32.52L515.935 37H514.262ZM509.831 31.995H512.386C512.479 31.995 512.582 31.9903 512.694 31.981C512.81 31.9717 512.92 31.9553 513.023 31.932C513.321 31.862 513.562 31.7337 513.744 31.547C513.926 31.3557 514.056 31.1363 514.136 30.889C514.215 30.6417 514.255 30.3943 514.255 30.147C514.255 29.8997 514.215 29.6547 514.136 29.412C514.056 29.1647 513.926 28.9477 513.744 28.761C513.562 28.5697 513.321 28.439 513.023 28.369C512.92 28.341 512.81 28.3223 512.694 28.313C512.582 28.3037 512.479 28.299 512.386 28.299H509.831V31.995ZM520.294 37.189C519.795 37.189 519.326 37.0957 518.887 36.909C518.448 36.7177 518.068 36.447 517.746 36.097C517.429 35.747 517.198 35.334 517.053 34.858L518.467 34.466C518.602 34.9 518.838 35.2337 519.174 35.467C519.51 35.6957 519.883 35.8077 520.294 35.803C520.663 35.7983 520.987 35.712 521.267 35.544C521.547 35.376 521.766 35.1497 521.925 34.865C522.084 34.5757 522.163 34.2443 522.163 33.871C522.163 33.311 521.988 32.849 521.638 32.485C521.293 32.121 520.84 31.939 520.28 31.939C520.121 31.939 519.958 31.9623 519.79 32.009C519.627 32.0557 519.473 32.1163 519.328 32.191L518.642 31.036L522.198 27.893L522.352 28.313H517.452V26.92H523.514V28.313L520.56 31.155L520.546 30.679C521.181 30.679 521.731 30.8213 522.198 31.106C522.665 31.386 523.024 31.7687 523.276 32.254C523.533 32.7347 523.661 33.2737 523.661 33.871C523.661 34.515 523.509 35.0867 523.206 35.586C522.907 36.0853 522.504 36.4773 521.995 36.762C521.491 37.0467 520.924 37.189 520.294 37.189Z" fill="white" fill-opacity="0.3"/>
    <path d="M570 112V24" stroke="white" stroke-opacity="0.3" stroke-width="2" stroke-linecap="square" stroke-dasharray="6 6"/>
    <path d="M622.593 37V26.92H628.564V28.383H624.056V31.225H627.724V32.695H624.056V37H622.593ZM629.826 37V26.92H633.9C633.998 26.92 634.119 26.9247 634.264 26.934C634.408 26.9387 634.546 26.9527 634.677 26.976C635.237 27.0647 635.703 27.256 636.077 27.55C636.455 27.844 636.737 28.215 636.924 28.663C637.11 29.111 637.204 29.6057 637.204 30.147C637.204 30.9497 636.998 31.6427 636.588 32.226C636.177 32.8047 635.561 33.1663 634.74 33.311L634.145 33.381H631.289V37H629.826ZM635.72 37L633.732 32.898L635.209 32.52L637.393 37H635.72ZM631.289 31.995H633.844C633.937 31.995 634.04 31.9903 634.152 31.981C634.268 31.9717 634.378 31.9553 634.481 31.932C634.779 31.862 635.02 31.7337 635.202 31.547C635.384 31.3557 635.514 31.1363 635.594 30.889C635.673 30.6417 635.713 30.3943 635.713 30.147C635.713 29.8997 635.673 29.6547 635.594 29.412C635.514 29.1647 635.384 28.9477 635.202 28.761C635.02 28.5697 634.779 28.439 634.481 28.369C634.378 28.341 634.268 28.3223 634.152 28.313C634.04 28.3037 633.937 28.299 633.844 28.299H631.289V31.995ZM643.201 37V35.243H638.651V33.857L641.927 26.92H643.6L640.324 33.857H643.201V31.127H644.685V33.857H645.686V35.243H644.685V37H643.201Z" fill="white" fill-opacity="0.3"/>
    <path d="M698 112V24" stroke="white" stroke-opacity="0.3" stroke-width="2" stroke-linecap="square" stroke-dasharray="6 6"/>
    <g filter="url(#filter0_i_6123_38210)">
        <rect x="96" y="108" width="30" height="52" rx="1" fill="#90E0E0"/>
    </g>
    <rect x="96" y="108" width="30" height="52" rx="1" stroke="#110529" stroke-width="2" stroke-linecap="round"/>
    <path d="M105.447 142H107.247V130.74L114.757 142H116.557V127.6H114.757V138.85L107.247 127.6H105.447V142Z" fill="#110529"/>
    <g filter="url(#filter1_i_6123_38210)">
        <rect x="126" y="108" width="56" height="52" rx="1" fill="#F0F0F0"/>
        <path d="M131.338 142H133.118V136.68H137.028C137.298 136.68 137.718 136.66 138.088 136.6C140.408 136.24 141.648 134.43 141.648 132.14C141.648 129.85 140.418 128.04 138.088 127.68C137.718 127.62 137.308 127.6 137.028 127.6H131.338V142ZM133.118 134.99V129.29H136.968C137.218 129.29 137.568 129.31 137.868 129.38C139.248 129.69 139.828 130.94 139.828 132.14C139.828 133.34 139.248 134.59 137.868 134.9C137.568 134.97 137.218 134.99 136.968 134.99H133.118ZM143.842 142H145.622V127.6H143.842V142ZM151.693 142.3C153.493 142.3 154.833 141.64 155.693 140.32V142H157.273V135.32C157.273 134.47 157.223 133.68 156.923 133.01C156.303 131.6 154.833 130.9 152.883 130.9C150.443 130.9 148.933 132.05 148.423 133.94L150.113 134.45C150.503 133.13 151.553 132.56 152.863 132.56C154.733 132.56 155.473 133.38 155.523 135.1C153.923 135.32 152.023 135.55 150.673 135.91C149.033 136.39 148.023 137.38 148.023 139.08C148.023 140.82 149.273 142.3 151.693 142.3ZM149.793 139.07C149.793 138.06 150.583 137.57 151.473 137.29C152.523 136.99 153.983 136.82 155.503 136.62C155.493 137.11 155.473 137.8 155.323 138.32C155.063 139.66 153.883 140.81 151.963 140.81C150.423 140.81 149.793 139.96 149.793 139.07ZM165.903 142V140.47C164.423 140.7 163.343 140.64 162.863 139.78C162.603 139.33 162.643 138.73 162.643 137.84V132.67H165.903V131.2H162.643V128.2H160.863V131.2H158.673V132.67H160.863V137.92C160.863 139.04 160.803 139.86 161.233 140.7C161.983 142.17 163.973 142.39 165.903 142ZM172.326 142.3C174.416 142.3 176.206 141.21 177.056 139.3L175.346 138.71C174.746 139.94 173.666 140.61 172.246 140.61C170.256 140.61 169.096 139.34 168.956 137.1H177.236C177.396 133.26 175.496 130.9 172.246 130.9C169.106 130.9 167.046 133.13 167.046 136.67C167.046 140.05 169.136 142.3 172.326 142.3ZM168.986 135.67C169.236 133.62 170.366 132.5 172.306 132.5C174.136 132.5 175.166 133.55 175.386 135.67H168.986Z" fill="#110529"/>
        <rect x="126" y="108" width="56" height="52" rx="1" stroke="#110529" stroke-width="2" stroke-linecap="round"/>
    </g>
    <g filter="url(#filter2_i_6123_38210)">
        <rect x="182" y="108" width="20" height="52" rx="1" fill="#99CCFF"/>
        <rect x="182" y="108" width="20" height="52" rx="1" stroke="#110529" stroke-width="2" stroke-linecap="round"/>
    </g>
    <g filter="url(#filter3_i_6123_38210)">
        <rect x="202" y="108" width="56" height="52" rx="1" fill="#F0F0F0"/>
        <path d="M211.39 142H213.17V136.68H217.38L219.96 142H222L219.22 136.29C220.85 135.61 221.7 134.04 221.7 132.14C221.7 129.85 220.47 128.04 218.14 127.68C217.77 127.62 217.36 127.6 217.08 127.6H211.39V142ZM213.17 134.99V129.29H217.02C217.27 129.29 217.62 129.31 217.92 129.38C219.3 129.69 219.88 130.94 219.88 132.14C219.88 133.34 219.3 134.59 217.92 134.9C217.62 134.97 217.27 134.99 217.02 134.99H213.17ZM228.803 142.3C232.013 142.3 234.013 139.98 234.013 136.59C234.013 133.25 232.043 130.9 228.803 130.9C225.633 130.9 223.603 133.2 223.603 136.59C223.603 139.94 225.573 142.3 228.803 142.3ZM225.493 136.59C225.493 134.23 226.543 132.59 228.803 132.59C231.013 132.59 232.123 134.16 232.123 136.59C232.123 138.97 231.033 140.61 228.803 140.61C226.623 140.61 225.493 139.03 225.493 136.59ZM238.124 142H239.604L242.214 133.79L244.824 142H246.304L249.604 131.2H247.844L245.424 139.1L243.004 131.2H241.434L239.004 139.1L236.594 131.2L234.824 131.19L238.124 142Z" fill="#110529"/>
        <rect x="202" y="108" width="56" height="52" rx="1" stroke="#110529" stroke-width="2" stroke-linecap="round"/>
    </g>
    <g filter="url(#filter4_i_6123_38210)">
        <path d="M258 109.6C258 109.04 258 108.76 258.109 108.546C258.205 108.358 258.358 108.205 258.546 108.109C258.76 108 259.04 108 259.6 108H456.4C456.96 108 457.24 108 457.454 108.109C457.642 108.205 457.795 108.358 457.891 108.546C458 108.76 458 109.04 458 109.6V158.4C458 158.96 458 159.24 457.891 159.454C457.795 159.642 457.642 159.795 457.454 159.891C457.24 160 456.96 160 456.4 160H259.6C259.04 160 258.76 160 258.546 159.891C258.358 159.795 258.205 159.642 258.109 159.454C258 159.24 258 158.96 258 158.4V153.5V147V140V134V127.5V121V114.5V109.6Z" fill="#99E099"/>
    </g>
    <path d="M258 109.6C258 109.04 258 108.76 258.109 108.546C258.205 108.358 258.358 108.205 258.546 108.109C258.76 108 259.04 108 259.6 108H456.4C456.96 108 457.24 108 457.454 108.109C457.642 108.205 457.795 108.358 457.891 108.546C458 108.76 458 109.04 458 109.6V158.4C458 158.96 458 159.24 457.891 159.454C457.795 159.642 457.642 159.795 457.454 159.891C457.24 160 456.96 160 456.4 160H259.6C259.04 160 258.76 160 258.546 159.891C258.358 159.795 258.205 159.642 258.109 159.454C258 159.24 258 158.96 258 158.4V153.5V147V140V134V127.5V121V114.5V109.6Z" stroke="#110529" stroke-width="2" stroke-linecap="round"/>
    <path d="M357.258 142H359.738L364.558 127.6H362.708L358.478 140.11L354.288 127.6H352.438L357.258 142Z" fill="#110529"/>
    <g filter="url(#filter5_i_6123_38210)">
        <rect x="458" y="108" width="30" height="52" rx="1" fill="#CBEB67"/>
    </g>
    <rect x="458" y="108" width="30" height="52" rx="1" stroke="#110529" stroke-width="2" stroke-linecap="round"/>
    <g filter="url(#filter6_i_6123_38210)">
        <rect x="524" y="108" width="30" height="52" rx="1" fill="#FAAAFA"/>
    </g>
    <rect x="524" y="108" width="30" height="52" rx="1" stroke="#110529" stroke-width="2" stroke-linecap="round"/>
    <g filter="url(#filter7_i_6123_38210)">
        <rect x="488" y="108" width="36" height="52" rx="1" fill="#FFCB8F"/>
    </g>
    <rect x="488" y="108" width="36" height="52" rx="1" stroke="#110529" stroke-width="2" stroke-linecap="round"/>
    <path d="M467.447 142V127.6H469.247L476.757 138.85V127.6H478.557V142H476.757L469.247 130.74V142H467.447Z" fill="#110529"/>
    <path d="M533.447 142V127.6H535.247L542.757 138.85V127.6H544.557V142H542.757L535.247 130.74V142H533.447Z" fill="#110529"/>
    <path d="M500.593 142V127.6H505.033C505.18 127.6 505.437 127.603 505.803 127.61C506.17 127.617 506.52 127.643 506.853 127.69C507.967 127.837 508.897 128.243 509.643 128.91C510.397 129.57 510.963 130.41 511.343 131.43C511.723 132.45 511.913 133.573 511.913 134.8C511.913 136.027 511.723 137.15 511.343 138.17C510.963 139.19 510.397 140.033 509.643 140.7C508.897 141.36 507.967 141.763 506.853 141.91C506.52 141.95 506.167 141.977 505.793 141.99C505.427 141.997 505.173 142 505.033 142H500.593ZM502.423 140.3H505.033C505.287 140.3 505.57 140.293 505.883 140.28C506.197 140.26 506.47 140.23 506.703 140.19C507.49 140.043 508.127 139.713 508.613 139.2C509.1 138.687 509.457 138.047 509.683 137.28C509.91 136.513 510.023 135.687 510.023 134.8C510.023 133.893 509.907 133.057 509.673 132.29C509.447 131.523 509.09 130.887 508.603 130.38C508.117 129.873 507.483 129.55 506.703 129.41C506.47 129.363 506.193 129.333 505.873 129.32C505.553 129.307 505.273 129.3 505.033 129.3H502.423V140.3Z" fill="#110529"/>
    <g filter="url(#filter8_i_6123_38210)">
        <rect x="554" y="108" width="144" height="52" rx="1" fill="#C1ADFF"/>
        <path d="M625.244 142.29C626.694 142.29 627.954 141.7 628.684 140.43C629.214 139.51 629.154 138.72 629.154 137.48V127.6H627.354V137.48C627.354 138.37 627.354 138.99 627.094 139.51C626.704 140.29 625.884 140.6 625.204 140.6C624.134 140.6 623.224 139.83 623.014 138.85L621.244 139.27C621.754 141.11 623.224 142.29 625.244 142.29Z" fill="#110529"/>
        <rect x="554" y="108" width="144" height="52" rx="1" stroke="#110529" stroke-width="2" stroke-linecap="round"/>
    </g>
    <g filter="url(#filter9_i_6123_38210)">
        <rect x="698" y="108" width="128" height="52" rx="1" fill="#FAFAAA"/>
        <path d="M762.093 142.3C765.423 142.3 767.613 140.47 768.433 137.61L766.623 137.13C766.033 139.27 764.523 140.6 762.093 140.6C758.873 140.6 757.233 138.25 757.253 134.8C757.273 131.35 758.873 129 762.093 129C764.523 129 766.033 130.33 766.623 132.47L768.433 131.99C767.613 129.13 765.423 127.3 762.093 127.3C757.783 127.3 755.373 130.36 755.373 134.8C755.373 139.24 757.783 142.3 762.093 142.3Z" fill="#110529"/>
        <rect x="698" y="108" width="128" height="52" rx="1" stroke="#110529" stroke-width="2" stroke-linecap="round"/>
    </g>
    <g filter="url(#filter10_i_6123_38210)">
        <rect x="826" y="108" width="56" height="52" rx="1" fill="#F0F0F0"/>
        <path d="M842.902 142.3C846.232 142.3 848.422 140.47 849.242 137.61L847.432 137.13C846.842 139.27 845.332 140.6 842.902 140.6C839.682 140.6 838.042 138.25 838.062 134.8C838.082 131.35 839.682 129 842.902 129C845.332 129 846.842 130.33 847.432 132.47L849.242 131.99C848.422 129.13 846.232 127.3 842.902 127.3C838.592 127.3 836.182 130.36 836.182 134.8C836.182 139.24 838.592 142.3 842.902 142.3ZM856.035 142.3C859.245 142.3 861.245 139.98 861.245 136.59C861.245 133.25 859.275 130.9 856.035 130.9C852.865 130.9 850.835 133.2 850.835 136.59C850.835 139.94 852.805 142.3 856.035 142.3ZM852.725 136.59C852.725 134.23 853.775 132.59 856.035 132.59C858.245 132.59 859.355 134.16 859.355 136.59C859.355 138.97 858.265 140.61 856.035 140.61C853.855 140.61 852.725 139.03 852.725 136.59ZM863.647 142H865.427V127.6H863.647V142ZM868.747 142H870.707V140.04H868.747V142Z" fill="#110529"/>
        <rect x="826" y="108" width="56" height="52" rx="1" stroke="#110529" stroke-width="2" stroke-linecap="round"/>
    </g>
    <g filter="url(#filter11_i_6123_38210)">
        <rect x="882" y="108" width="30" height="52" rx="1" fill="#90E0E0"/>
    </g>
    <rect x="882" y="108" width="30" height="52" rx="1" stroke="#110529" stroke-width="2" stroke-linecap="round"/>
    <path d="M891.447 142H893.247V130.74L900.757 142H902.557V127.6H900.757V138.85L893.247 127.6H891.447V142Z" fill="#110529"/>
    <g filter="url(#filter12_i_6123_38210)">
        <rect x="96" y="268" width="30" height="52" rx="1" fill="#90E0E0"/>
    </g>
    <rect x="96" y="268" width="30" height="52" rx="1" stroke="#110529" stroke-width="2" stroke-linecap="round"/>
    <path d="M105.447 302H107.247V290.74L114.757 302H116.557V287.6H114.757V298.85L107.247 287.6H105.447V302Z" fill="#110529"/>
    <g filter="url(#filter13_i_6123_38210)">
        <rect x="126" y="268" width="56" height="52" rx="1" fill="#F0F0F0"/>
        <path d="M131.338 302H133.118V296.68H137.028C137.298 296.68 137.718 296.66 138.088 296.6C140.408 296.24 141.648 294.43 141.648 292.14C141.648 289.85 140.418 288.04 138.088 287.68C137.718 287.62 137.308 287.6 137.028 287.6H131.338V302ZM133.118 294.99V289.29H136.968C137.218 289.29 137.568 289.31 137.868 289.38C139.248 289.69 139.828 290.94 139.828 292.14C139.828 293.34 139.248 294.59 137.868 294.9C137.568 294.97 137.218 294.99 136.968 294.99H133.118ZM143.842 302H145.622V287.6H143.842V302ZM151.693 302.3C153.493 302.3 154.833 301.64 155.693 300.32V302H157.273V295.32C157.273 294.47 157.223 293.68 156.923 293.01C156.303 291.6 154.833 290.9 152.883 290.9C150.443 290.9 148.933 292.05 148.423 293.94L150.113 294.45C150.503 293.13 151.553 292.56 152.863 292.56C154.733 292.56 155.473 293.38 155.523 295.1C153.923 295.32 152.023 295.55 150.673 295.91C149.033 296.39 148.023 297.38 148.023 299.08C148.023 300.82 149.273 302.3 151.693 302.3ZM149.793 299.07C149.793 298.06 150.583 297.57 151.473 297.29C152.523 296.99 153.983 296.82 155.503 296.62C155.493 297.11 155.473 297.8 155.323 298.32C155.063 299.66 153.883 300.81 151.963 300.81C150.423 300.81 149.793 299.96 149.793 299.07ZM165.903 302V300.47C164.423 300.7 163.343 300.64 162.863 299.78C162.603 299.33 162.643 298.73 162.643 297.84V292.67H165.903V291.2H162.643V288.2H160.863V291.2H158.673V292.67H160.863V297.92C160.863 299.04 160.803 299.86 161.233 300.7C161.983 302.17 163.973 302.39 165.903 302ZM172.326 302.3C174.416 302.3 176.206 301.21 177.056 299.3L175.346 298.71C174.746 299.94 173.666 300.61 172.246 300.61C170.256 300.61 169.096 299.34 168.956 297.1H177.236C177.396 293.26 175.496 290.9 172.246 290.9C169.106 290.9 167.046 293.13 167.046 296.67C167.046 300.05 169.136 302.3 172.326 302.3ZM168.986 295.67C169.236 293.62 170.366 292.5 172.306 292.5C174.136 292.5 175.166 293.55 175.386 295.67H168.986Z" fill="#110529"/>
        <rect x="126" y="268" width="56" height="52" rx="1" stroke="#110529" stroke-width="2" stroke-linecap="round"/>
    </g>
    <g filter="url(#filter14_i_6123_38210)">
        <rect x="182" y="268" width="20" height="52" rx="1" fill="#99CCFF"/>
        <rect x="182" y="268" width="20" height="52" rx="1" stroke="#110529" stroke-width="2" stroke-linecap="round"/>
    </g>
    <g filter="url(#filter15_i_6123_38210)">
        <rect x="202" y="268" width="56" height="52" rx="1" fill="#F0F0F0"/>
        <path d="M211.39 302H213.17V296.68H217.38L219.96 302H222L219.22 296.29C220.85 295.61 221.7 294.04 221.7 292.14C221.7 289.85 220.47 288.04 218.14 287.68C217.77 287.62 217.36 287.6 217.08 287.6H211.39V302ZM213.17 294.99V289.29H217.02C217.27 289.29 217.62 289.31 217.92 289.38C219.3 289.69 219.88 290.94 219.88 292.14C219.88 293.34 219.3 294.59 217.92 294.9C217.62 294.97 217.27 294.99 217.02 294.99H213.17ZM228.803 302.3C232.013 302.3 234.013 299.98 234.013 296.59C234.013 293.25 232.043 290.9 228.803 290.9C225.633 290.9 223.603 293.2 223.603 296.59C223.603 299.94 225.573 302.3 228.803 302.3ZM225.493 296.59C225.493 294.23 226.543 292.59 228.803 292.59C231.013 292.59 232.123 294.16 232.123 296.59C232.123 298.97 231.033 300.61 228.803 300.61C226.623 300.61 225.493 299.03 225.493 296.59ZM238.124 302H239.604L242.214 293.79L244.824 302H246.304L249.604 291.2H247.844L245.424 299.1L243.004 291.2H241.434L239.004 299.1L236.594 291.2L234.824 291.19L238.124 302Z" fill="#110529"/>
        <rect x="202" y="268" width="56" height="52" rx="1" stroke="#110529" stroke-width="2" stroke-linecap="round"/>
    </g>
    <g filter="url(#filter16_i_6123_38210)">
        <path d="M258 269.6C258 269.04 258 268.76 258.109 268.546C258.205 268.358 258.358 268.205 258.546 268.109C258.76 268 259.04 268 259.6 268H456.4C456.96 268 457.24 268 457.454 268.109C457.642 268.205 457.795 268.358 457.891 268.546C458 268.76 458 269.04 458 269.6V318.4C458 318.96 458 319.24 457.891 319.454C457.795 319.642 457.642 319.795 457.454 319.891C457.24 320 456.96 320 456.4 320H259.6C259.04 320 258.76 320 258.546 319.891C258.358 319.795 258.205 319.642 258.109 319.454C258 319.24 258 318.96 258 318.4V313.5V307V300V294V287.5V281V274.5V269.6Z" fill="#99E099"/>
    </g>
    <path d="M258 269.6C258 269.04 258 268.76 258.109 268.546C258.205 268.358 258.358 268.205 258.546 268.109C258.76 268 259.04 268 259.6 268H456.4C456.96 268 457.24 268 457.454 268.109C457.642 268.205 457.795 268.358 457.891 268.546C458 268.76 458 269.04 458 269.6V318.4C458 318.96 458 319.24 457.891 319.454C457.795 319.642 457.642 319.795 457.454 319.891C457.24 320 456.96 320 456.4 320H259.6C259.04 320 258.76 320 258.546 319.891C258.358 319.795 258.205 319.642 258.109 319.454C258 319.24 258 318.96 258 318.4V313.5V307V300V294V287.5V281V274.5V269.6Z" stroke="#110529" stroke-width="2" stroke-linecap="round"/>
    <path d="M357.258 302H359.738L364.558 287.6H362.708L358.478 300.11L354.288 287.6H352.438L357.258 302Z" fill="#110529"/>
    <g filter="url(#filter17_i_6123_38210)">
        <rect x="458" y="268" width="30" height="52" rx="1" fill="#CBEB67"/>
    </g>
    <rect x="458" y="268" width="30" height="52" rx="1" stroke="#110529" stroke-width="2" stroke-linecap="round"/>
    <path d="M467.447 302H469.247V290.74L476.757 302H478.557V287.6H476.757V298.85L469.247 287.6H467.447V302Z" fill="#110529"/>
    <g filter="url(#filter18_i_6123_38210)">
        <rect x="488" y="268" width="144" height="52" rx="1" fill="#C1ADFF"/>
        <path d="M559.244 302.29C560.694 302.29 561.954 301.7 562.684 300.43C563.214 299.51 563.154 298.72 563.154 297.48V287.6H561.354V297.48C561.354 298.37 561.354 298.99 561.094 299.51C560.704 300.29 559.884 300.6 559.204 300.6C558.134 300.6 557.224 299.83 557.014 298.85L555.244 299.27C555.754 301.11 557.224 302.29 559.244 302.29Z" fill="#110529"/>
        <rect x="488" y="268" width="144" height="52" rx="1" stroke="#110529" stroke-width="2" stroke-linecap="round"/>
    </g>
    <g filter="url(#filter19_i_6123_38210)">
        <rect x="632" y="268" width="128" height="52" rx="1" fill="#FAFAAA"/>
        <path d="M696.093 302.3C699.423 302.3 701.613 300.47 702.433 297.61L700.623 297.13C700.033 299.27 698.523 300.6 696.093 300.6C692.873 300.6 691.233 298.25 691.253 294.8C691.273 291.35 692.873 289 696.093 289C698.523 289 700.033 290.33 700.623 292.47L702.433 291.99C701.613 289.13 699.423 287.3 696.093 287.3C691.783 287.3 689.373 290.36 689.373 294.8C689.373 299.24 691.783 302.3 696.093 302.3Z" fill="#110529"/>
        <rect x="632" y="268" width="128" height="52" rx="1" stroke="#110529" stroke-width="2" stroke-linecap="round"/>
    </g>
    <g filter="url(#filter20_i_6123_38210)">
        <rect x="760" y="268" width="56" height="52" rx="1" fill="#F0F0F0"/>
        <path d="M776.902 302.3C780.232 302.3 782.422 300.47 783.242 297.61L781.432 297.13C780.842 299.27 779.332 300.6 776.902 300.6C773.682 300.6 772.042 298.25 772.062 294.8C772.082 291.35 773.682 289 776.902 289C779.332 289 780.842 290.33 781.432 292.47L783.242 291.99C782.422 289.13 780.232 287.3 776.902 287.3C772.592 287.3 770.182 290.36 770.182 294.8C770.182 299.24 772.592 302.3 776.902 302.3ZM790.035 302.3C793.245 302.3 795.245 299.98 795.245 296.59C795.245 293.25 793.275 290.9 790.035 290.9C786.865 290.9 784.835 293.2 784.835 296.59C784.835 299.94 786.805 302.3 790.035 302.3ZM786.725 296.59C786.725 294.23 787.775 292.59 790.035 292.59C792.245 292.59 793.355 294.16 793.355 296.59C793.355 298.97 792.265 300.61 790.035 300.61C787.855 300.61 786.725 299.03 786.725 296.59ZM797.647 302H799.427V287.6H797.647V302ZM802.747 302H804.707V300.04H802.747V302Z" fill="#110529"/>
        <rect x="760" y="268" width="56" height="52" rx="1" stroke="#110529" stroke-width="2" stroke-linecap="round"/>
    </g>
    <g filter="url(#filter21_i_6123_38210)">
        <rect x="816" y="268" width="30" height="52" rx="1" fill="#90E0E0"/>
    </g>
    <rect x="816" y="268" width="30" height="52" rx="1" stroke="#110529" stroke-width="2" stroke-linecap="round"/>
    <path d="M825.447 302H827.247V290.74L834.757 302H836.557V287.6H834.757V298.85L827.247 287.6H825.447V302Z" fill="#110529"/>
    <path d="M284 208L283.293 208.707L282.586 208L283.293 207.293L284 208ZM291.293 199.293L292 198.586L293.414 200L292.707 200.707L291.293 199.293ZM292.707 215.293L293.414 216L292 217.414L291.293 216.707L292.707 215.293ZM294 209L284 209L284 207L294 207L294 209ZM283.293 207.293L291.293 199.293L292.707 200.707L284.707 208.707L283.293 207.293ZM284.707 207.293L292.707 215.293L291.293 216.707L283.293 208.707L284.707 207.293Z" fill="#D3D7E0"/>
    <path d="M558.5 208H294" stroke="#D3D7E0" stroke-width="2"/>
    <rect width="57" height="20" transform="translate(558.5 198)" fill="#1D1D29"/>
    <path d="M565.691 213.992L565.699 212.712L570.811 208.112C571.237 207.728 571.523 207.365 571.667 207.024C571.816 206.677 571.891 206.323 571.891 205.96C571.891 205.517 571.789 205.117 571.587 204.76C571.384 204.403 571.107 204.12 570.755 203.912C570.408 203.704 570.013 203.6 569.571 203.6C569.112 203.6 568.704 203.709 568.347 203.928C567.989 204.141 567.707 204.427 567.499 204.784C567.296 205.141 567.197 205.531 567.203 205.952H565.747C565.747 205.227 565.915 204.587 566.251 204.032C566.587 203.472 567.043 203.035 567.619 202.72C568.2 202.4 568.859 202.24 569.595 202.24C570.309 202.24 570.949 202.405 571.515 202.736C572.08 203.061 572.525 203.507 572.851 204.072C573.181 204.632 573.347 205.267 573.347 205.976C573.347 206.477 573.283 206.912 573.155 207.28C573.032 207.648 572.84 207.989 572.579 208.304C572.317 208.613 571.989 208.944 571.595 209.296L567.347 213.112L567.163 212.632H573.347V213.992H565.691ZM578.669 214.24C578.077 214.24 577.525 214.117 577.013 213.872C576.506 213.627 576.071 213.291 575.709 212.864C575.351 212.432 575.095 211.936 574.941 211.376L576.309 211.008C576.405 211.387 576.575 211.715 576.821 211.992C577.066 212.264 577.351 212.477 577.677 212.632C578.007 212.781 578.351 212.856 578.709 212.856C579.178 212.856 579.599 212.744 579.973 212.52C580.351 212.291 580.65 211.989 580.869 211.616C581.087 211.237 581.197 210.824 581.197 210.376C581.197 209.912 581.082 209.493 580.853 209.12C580.629 208.741 580.327 208.443 579.949 208.224C579.57 208.005 579.157 207.896 578.709 207.896C578.202 207.896 577.767 208.003 577.405 208.216C577.047 208.424 576.765 208.68 576.557 208.984L575.293 208.504L575.645 202.48H581.829V203.832H576.333L576.965 203.24L576.669 208.064L576.357 207.656C576.677 207.315 577.058 207.051 577.501 206.864C577.949 206.677 578.405 206.584 578.869 206.584C579.583 206.584 580.223 206.752 580.789 207.088C581.354 207.419 581.802 207.872 582.133 208.448C582.463 209.019 582.629 209.661 582.629 210.376C582.629 211.085 582.447 211.733 582.085 212.32C581.722 212.901 581.239 213.368 580.637 213.72C580.039 214.067 579.383 214.24 578.669 214.24ZM586.55 214V204.056L584.382 205.368V203.776L586.55 202.48H587.998V214H586.55ZM595.01 214.24C594.199 214.24 593.517 214.04 592.962 213.64C592.407 213.235 591.986 212.688 591.698 212C591.415 211.307 591.274 210.531 591.274 209.672C591.274 208.803 591.415 208.024 591.698 207.336C591.986 206.648 592.407 206.107 592.962 205.712C593.522 205.317 594.207 205.12 595.018 205.12C595.818 205.12 596.506 205.32 597.082 205.72C597.663 206.115 598.109 206.656 598.418 207.344C598.727 208.032 598.882 208.808 598.882 209.672C598.882 210.536 598.727 211.312 598.418 212C598.109 212.688 597.663 213.235 597.082 213.64C596.506 214.04 595.815 214.24 595.01 214.24ZM591.034 214V202.48H592.466V207.64H592.306V214H591.034ZM594.834 212.936C595.405 212.936 595.877 212.792 596.25 212.504C596.623 212.216 596.903 211.827 597.09 211.336C597.277 210.84 597.37 210.285 597.37 209.672C597.37 209.064 597.277 208.515 597.09 208.024C596.909 207.533 596.626 207.144 596.242 206.856C595.863 206.568 595.381 206.424 594.794 206.424C594.234 206.424 593.77 206.563 593.402 206.84C593.034 207.112 592.759 207.493 592.578 207.984C592.397 208.469 592.306 209.032 592.306 209.672C592.306 210.301 592.394 210.864 592.57 211.36C592.751 211.851 593.029 212.237 593.402 212.52C593.775 212.797 594.253 212.936 594.834 212.936ZM604.604 214.24C603.793 214.24 603.11 214.04 602.556 213.64C602.001 213.235 601.58 212.688 601.292 212C601.009 211.307 600.868 210.531 600.868 209.672C600.868 208.803 601.009 208.024 601.292 207.336C601.58 206.648 602.001 206.107 602.556 205.712C603.116 205.317 603.801 205.12 604.612 205.12C605.412 205.12 606.1 205.32 606.676 205.72C607.257 206.115 607.702 206.656 608.012 207.344C608.321 208.032 608.476 208.808 608.476 209.672C608.476 210.536 608.321 211.312 608.012 212C607.702 212.688 607.257 213.235 606.676 213.64C606.1 214.04 605.409 214.24 604.604 214.24ZM600.628 217.84V205.36H601.9V211.72H602.06V217.84H600.628ZM604.428 212.936C604.998 212.936 605.47 212.792 605.844 212.504C606.217 212.216 606.497 211.827 606.684 211.336C606.87 210.84 606.964 210.285 606.964 209.672C606.964 209.064 606.87 208.515 606.684 208.024C606.502 207.533 606.22 207.144 605.836 206.856C605.457 206.568 604.974 206.424 604.388 206.424C603.828 206.424 603.364 206.563 602.996 206.84C602.628 207.112 602.353 207.493 602.172 207.984C601.99 208.469 601.9 209.032 601.9 209.672C601.9 210.301 601.988 210.864 602.164 211.36C602.345 211.851 602.622 212.237 602.996 212.52C603.369 212.797 603.846 212.936 604.428 212.936Z" fill="white"/>
    <path d="M880 208H615.5" stroke="#D3D7E0" stroke-width="2"/>
    <path d="M887.12 214V202.48H891.672C891.784 202.48 891.917 202.485 892.072 202.496C892.227 202.501 892.376 202.517 892.52 202.544C893.144 202.64 893.667 202.853 894.088 203.184C894.515 203.515 894.835 203.933 895.048 204.44C895.261 204.941 895.368 205.499 895.368 206.112C895.368 207.003 895.136 207.776 894.672 208.432C894.208 209.083 893.528 209.491 892.632 209.656L892.088 209.744H888.544V214H887.12ZM893.976 214L891.704 209.312L893.112 208.88L895.608 214H893.976ZM888.544 208.392H891.624C891.725 208.392 891.84 208.387 891.968 208.376C892.101 208.365 892.227 208.347 892.344 208.32C892.712 208.235 893.011 208.08 893.24 207.856C893.475 207.627 893.645 207.36 893.752 207.056C893.859 206.747 893.912 206.432 893.912 206.112C893.912 205.792 893.859 205.48 893.752 205.176C893.645 204.867 893.475 204.597 893.24 204.368C893.011 204.139 892.712 203.984 892.344 203.904C892.227 203.872 892.101 203.853 891.968 203.848C891.84 203.837 891.725 203.832 891.624 203.832H888.544V208.392ZM897.05 213.992L897.058 212.712L902.17 208.112C902.597 207.728 902.882 207.365 903.026 207.024C903.175 206.677 903.25 206.323 903.25 205.96C903.25 205.517 903.149 205.117 902.946 204.76C902.743 204.403 902.466 204.12 902.114 203.912C901.767 203.704 901.373 203.6 900.93 203.6C900.471 203.6 900.063 203.709 899.706 203.928C899.349 204.141 899.066 204.427 898.858 204.784C898.655 205.141 898.557 205.531 898.562 205.952H897.106C897.106 205.227 897.274 204.587 897.61 204.032C897.946 203.472 898.402 203.035 898.978 202.72C899.559 202.4 900.218 202.24 900.954 202.24C901.669 202.24 902.309 202.405 902.874 202.736C903.439 203.061 903.885 203.507 904.21 204.072C904.541 204.632 904.706 205.267 904.706 205.976C904.706 206.477 904.642 206.912 904.514 207.28C904.391 207.648 904.199 207.989 903.938 208.304C903.677 208.613 903.349 208.944 902.954 209.296L898.706 213.112L898.522 212.632H904.706V213.992H897.05Z" fill="white"/>
    <rect x="880" y="196" width="32" height="24" rx="1" stroke="#D3D7E0" stroke-width="2"/>
    <path d="M244 368L243.293 368.707L242.586 368L243.293 367.293L244 368ZM251.293 359.293L252 358.586L253.414 360L252.707 360.707L251.293 359.293ZM252.707 375.293L253.414 376L252 377.414L251.293 376.707L252.707 375.293ZM254 369L244 369L244 367L254 367L254 369ZM243.293 367.293L251.293 359.293L252.707 360.707L244.707 368.707L243.293 367.293ZM244.707 367.293L252.707 375.293L251.293 376.707L243.293 368.707L244.707 367.293Z" fill="#D3D7E0"/>
    <path d="M505.5 368H254" stroke="#D3D7E0" stroke-width="2"/>
    <rect width="57" height="20" transform="translate(505.5 358)" fill="#1D1D29"/>
    <path d="M512.691 373.992L512.699 372.712L517.811 368.112C518.237 367.728 518.523 367.365 518.667 367.024C518.816 366.677 518.891 366.323 518.891 365.96C518.891 365.517 518.789 365.117 518.587 364.76C518.384 364.403 518.107 364.12 517.755 363.912C517.408 363.704 517.013 363.6 516.571 363.6C516.112 363.6 515.704 363.709 515.347 363.928C514.989 364.141 514.707 364.427 514.499 364.784C514.296 365.141 514.197 365.531 514.203 365.952H512.747C512.747 365.227 512.915 364.587 513.251 364.032C513.587 363.472 514.043 363.035 514.619 362.72C515.2 362.4 515.859 362.24 516.595 362.24C517.309 362.24 517.949 362.405 518.515 362.736C519.08 363.061 519.525 363.507 519.851 364.072C520.181 364.632 520.347 365.267 520.347 365.976C520.347 366.477 520.283 366.912 520.155 367.28C520.032 367.648 519.84 367.989 519.579 368.304C519.317 368.613 518.989 368.944 518.595 369.296L514.347 373.112L514.163 372.632H520.347V373.992H512.691ZM525.669 374.24C525.077 374.24 524.525 374.117 524.013 373.872C523.506 373.627 523.071 373.291 522.709 372.864C522.351 372.432 522.095 371.936 521.941 371.376L523.309 371.008C523.405 371.387 523.575 371.715 523.821 371.992C524.066 372.264 524.351 372.477 524.677 372.632C525.007 372.781 525.351 372.856 525.709 372.856C526.178 372.856 526.599 372.744 526.973 372.52C527.351 372.291 527.65 371.989 527.869 371.616C528.087 371.237 528.197 370.824 528.197 370.376C528.197 369.912 528.082 369.493 527.853 369.12C527.629 368.741 527.327 368.443 526.949 368.224C526.57 368.005 526.157 367.896 525.709 367.896C525.202 367.896 524.767 368.003 524.405 368.216C524.047 368.424 523.765 368.68 523.557 368.984L522.293 368.504L522.645 362.48H528.829V363.832H523.333L523.965 363.24L523.669 368.064L523.357 367.656C523.677 367.315 524.058 367.051 524.501 366.864C524.949 366.677 525.405 366.584 525.869 366.584C526.583 366.584 527.223 366.752 527.789 367.088C528.354 367.419 528.802 367.872 529.133 368.448C529.463 369.019 529.629 369.661 529.629 370.376C529.629 371.085 529.447 371.733 529.085 372.32C528.722 372.901 528.239 373.368 527.637 373.72C527.039 374.067 526.383 374.24 525.669 374.24ZM533.55 374V364.056L531.382 365.368V363.776L533.55 362.48H534.998V374H533.55ZM542.01 374.24C541.199 374.24 540.517 374.04 539.962 373.64C539.407 373.235 538.986 372.688 538.698 372C538.415 371.307 538.274 370.531 538.274 369.672C538.274 368.803 538.415 368.024 538.698 367.336C538.986 366.648 539.407 366.107 539.962 365.712C540.522 365.317 541.207 365.12 542.018 365.12C542.818 365.12 543.506 365.32 544.082 365.72C544.663 366.115 545.109 366.656 545.418 367.344C545.727 368.032 545.882 368.808 545.882 369.672C545.882 370.536 545.727 371.312 545.418 372C545.109 372.688 544.663 373.235 544.082 373.64C543.506 374.04 542.815 374.24 542.01 374.24ZM538.034 374V362.48H539.466V367.64H539.306V374H538.034ZM541.834 372.936C542.405 372.936 542.877 372.792 543.25 372.504C543.623 372.216 543.903 371.827 544.09 371.336C544.277 370.84 544.37 370.285 544.37 369.672C544.37 369.064 544.277 368.515 544.09 368.024C543.909 367.533 543.626 367.144 543.242 366.856C542.863 366.568 542.381 366.424 541.794 366.424C541.234 366.424 540.77 366.563 540.402 366.84C540.034 367.112 539.759 367.493 539.578 367.984C539.397 368.469 539.306 369.032 539.306 369.672C539.306 370.301 539.394 370.864 539.57 371.36C539.751 371.851 540.029 372.237 540.402 372.52C540.775 372.797 541.253 372.936 541.834 372.936ZM551.604 374.24C550.793 374.24 550.11 374.04 549.556 373.64C549.001 373.235 548.58 372.688 548.292 372C548.009 371.307 547.868 370.531 547.868 369.672C547.868 368.803 548.009 368.024 548.292 367.336C548.58 366.648 549.001 366.107 549.556 365.712C550.116 365.317 550.801 365.12 551.612 365.12C552.412 365.12 553.1 365.32 553.676 365.72C554.257 366.115 554.702 366.656 555.012 367.344C555.321 368.032 555.476 368.808 555.476 369.672C555.476 370.536 555.321 371.312 555.012 372C554.702 372.688 554.257 373.235 553.676 373.64C553.1 374.04 552.409 374.24 551.604 374.24ZM547.628 377.84V365.36H548.9V371.72H549.06V377.84H547.628ZM551.428 372.936C551.998 372.936 552.47 372.792 552.844 372.504C553.217 372.216 553.497 371.827 553.684 371.336C553.87 370.84 553.964 370.285 553.964 369.672C553.964 369.064 553.87 368.515 553.684 368.024C553.502 367.533 553.22 367.144 552.836 366.856C552.457 366.568 551.974 366.424 551.388 366.424C550.828 366.424 550.364 366.563 549.996 366.84C549.628 367.112 549.353 367.493 549.172 367.984C548.99 368.469 548.9 369.032 548.9 369.672C548.9 370.301 548.988 370.864 549.164 371.36C549.345 371.851 549.622 372.237 549.996 372.52C550.369 372.797 550.846 372.936 551.428 372.936Z" fill="white"/>
    <path d="M814 368H562.5" stroke="#D3D7E0" stroke-width="2"/>
    <path d="M821.12 374V362.48H825.672C825.784 362.48 825.917 362.485 826.072 362.496C826.227 362.501 826.376 362.517 826.52 362.544C827.144 362.64 827.667 362.853 828.088 363.184C828.515 363.515 828.835 363.933 829.048 364.44C829.261 364.941 829.368 365.499 829.368 366.112C829.368 367.003 829.136 367.776 828.672 368.432C828.208 369.083 827.528 369.491 826.632 369.656L826.088 369.744H822.544V374H821.12ZM827.976 374L825.704 369.312L827.112 368.88L829.608 374H827.976ZM822.544 368.392H825.624C825.725 368.392 825.84 368.387 825.968 368.376C826.101 368.365 826.227 368.347 826.344 368.32C826.712 368.235 827.011 368.08 827.24 367.856C827.475 367.627 827.645 367.36 827.752 367.056C827.859 366.747 827.912 366.432 827.912 366.112C827.912 365.792 827.859 365.48 827.752 365.176C827.645 364.867 827.475 364.597 827.24 364.368C827.011 364.139 826.712 363.984 826.344 363.904C826.227 363.872 826.101 363.853 825.968 363.848C825.84 363.837 825.725 363.832 825.624 363.832H822.544V368.392ZM831.05 373.992L831.058 372.712L836.17 368.112C836.597 367.728 836.882 367.365 837.026 367.024C837.175 366.677 837.25 366.323 837.25 365.96C837.25 365.517 837.149 365.117 836.946 364.76C836.743 364.403 836.466 364.12 836.114 363.912C835.767 363.704 835.373 363.6 834.93 363.6C834.471 363.6 834.063 363.709 833.706 363.928C833.349 364.141 833.066 364.427 832.858 364.784C832.655 365.141 832.557 365.531 832.562 365.952H831.106C831.106 365.227 831.274 364.587 831.61 364.032C831.946 363.472 832.402 363.035 832.978 362.72C833.559 362.4 834.218 362.24 834.954 362.24C835.669 362.24 836.309 362.405 836.874 362.736C837.439 363.061 837.885 363.507 838.21 364.072C838.541 364.632 838.706 365.267 838.706 365.976C838.706 366.477 838.642 366.912 838.514 367.28C838.391 367.648 838.199 367.989 837.938 368.304C837.677 368.613 837.349 368.944 836.954 369.296L832.706 373.112L832.522 372.632H838.706V373.992H831.05Z" fill="white"/>
    <rect x="814" y="356" width="32" height="24" rx="1" stroke="#D3D7E0" stroke-width="2"/>
    <path d="M104.62 190V178.48H109.172C109.284 178.48 109.417 178.485 109.572 178.496C109.727 178.501 109.876 178.517 110.02 178.544C110.644 178.64 111.167 178.853 111.588 179.184C112.015 179.515 112.335 179.933 112.548 180.44C112.761 180.941 112.868 181.499 112.868 182.112C112.868 183.003 112.636 183.776 112.172 184.432C111.708 185.083 111.028 185.491 110.132 185.656L109.588 185.744H106.044V190H104.62ZM111.476 190L109.204 185.312L110.612 184.88L113.108 190H111.476ZM106.044 184.392H109.124C109.225 184.392 109.34 184.387 109.468 184.376C109.601 184.365 109.727 184.347 109.844 184.32C110.212 184.235 110.511 184.08 110.74 183.856C110.975 183.627 111.145 183.36 111.252 183.056C111.359 182.747 111.412 182.432 111.412 182.112C111.412 181.792 111.359 181.48 111.252 181.176C111.145 180.867 110.975 180.597 110.74 180.368C110.511 180.139 110.212 179.984 109.844 179.904C109.727 179.872 109.601 179.853 109.468 179.848C109.34 179.837 109.225 179.832 109.124 179.832H106.044V184.392ZM116.878 190V180.056L114.71 181.368V179.776L116.878 178.48H118.326V190H116.878Z" fill="white"/>
    <rect x="96" y="172" width="32" height="24" rx="1" stroke="#D3D7E0" stroke-width="2"/>
    <path d="M394.5 184H128" stroke="#D3D7E0" stroke-width="2"/>
    <rect width="53" height="20" transform="translate(394.5 174)" fill="#1D1D29"/>
    <path d="M399.691 189.992L399.699 188.712L404.811 184.112C405.237 183.728 405.523 183.365 405.667 183.024C405.816 182.677 405.891 182.323 405.891 181.96C405.891 181.517 405.789 181.117 405.587 180.76C405.384 180.403 405.107 180.12 404.755 179.912C404.408 179.704 404.013 179.6 403.571 179.6C403.112 179.6 402.704 179.709 402.347 179.928C401.989 180.141 401.707 180.427 401.499 180.784C401.296 181.141 401.197 181.531 401.203 181.952H399.747C399.747 181.227 399.915 180.587 400.251 180.032C400.587 179.472 401.043 179.035 401.619 178.72C402.2 178.4 402.859 178.24 403.595 178.24C404.309 178.24 404.949 178.405 405.515 178.736C406.08 179.061 406.525 179.507 406.851 180.072C407.181 180.632 407.347 181.267 407.347 181.976C407.347 182.477 407.283 182.912 407.155 183.28C407.032 183.648 406.84 183.989 406.579 184.304C406.317 184.613 405.989 184.944 405.595 185.296L401.347 189.112L401.163 188.632H407.347V189.992H399.691ZM412.669 190.24C412.077 190.24 411.525 190.117 411.013 189.872C410.506 189.627 410.071 189.291 409.709 188.864C409.351 188.432 409.095 187.936 408.941 187.376L410.309 187.008C410.405 187.387 410.575 187.715 410.821 187.992C411.066 188.264 411.351 188.477 411.677 188.632C412.007 188.781 412.351 188.856 412.709 188.856C413.178 188.856 413.599 188.744 413.973 188.52C414.351 188.291 414.65 187.989 414.869 187.616C415.087 187.237 415.197 186.824 415.197 186.376C415.197 185.912 415.082 185.493 414.853 185.12C414.629 184.741 414.327 184.443 413.949 184.224C413.57 184.005 413.157 183.896 412.709 183.896C412.202 183.896 411.767 184.003 411.405 184.216C411.047 184.424 410.765 184.68 410.557 184.984L409.293 184.504L409.645 178.48H415.829V179.832H410.333L410.965 179.24L410.669 184.064L410.357 183.656C410.677 183.315 411.058 183.051 411.501 182.864C411.949 182.677 412.405 182.584 412.869 182.584C413.583 182.584 414.223 182.752 414.789 183.088C415.354 183.419 415.802 183.872 416.133 184.448C416.463 185.019 416.629 185.661 416.629 186.376C416.629 187.085 416.447 187.733 416.085 188.32C415.722 188.901 415.239 189.368 414.637 189.72C414.039 190.067 413.383 190.24 412.669 190.24ZM420.55 190V180.056L418.382 181.368V179.776L420.55 178.48H421.998V190H420.55ZM429.01 190.24C428.199 190.24 427.517 190.04 426.962 189.64C426.407 189.235 425.986 188.688 425.698 188C425.415 187.307 425.274 186.531 425.274 185.672C425.274 184.803 425.415 184.024 425.698 183.336C425.986 182.648 426.407 182.107 426.962 181.712C427.522 181.317 428.207 181.12 429.018 181.12C429.818 181.12 430.506 181.32 431.082 181.72C431.663 182.115 432.109 182.656 432.418 183.344C432.727 184.032 432.882 184.808 432.882 185.672C432.882 186.536 432.727 187.312 432.418 188C432.109 188.688 431.663 189.235 431.082 189.64C430.506 190.04 429.815 190.24 429.01 190.24ZM425.034 190V178.48H426.466V183.64H426.306V190H425.034ZM428.834 188.936C429.405 188.936 429.877 188.792 430.25 188.504C430.623 188.216 430.903 187.827 431.09 187.336C431.277 186.84 431.37 186.285 431.37 185.672C431.37 185.064 431.277 184.515 431.09 184.024C430.909 183.533 430.626 183.144 430.242 182.856C429.863 182.568 429.381 182.424 428.794 182.424C428.234 182.424 427.77 182.563 427.402 182.84C427.034 183.112 426.759 183.493 426.578 183.984C426.397 184.469 426.306 185.032 426.306 185.672C426.306 186.301 426.394 186.864 426.57 187.36C426.751 187.851 427.029 188.237 427.402 188.52C427.775 188.797 428.253 188.936 428.834 188.936ZM438.604 190.24C437.793 190.24 437.11 190.04 436.556 189.64C436.001 189.235 435.58 188.688 435.292 188C435.009 187.307 434.868 186.531 434.868 185.672C434.868 184.803 435.009 184.024 435.292 183.336C435.58 182.648 436.001 182.107 436.556 181.712C437.116 181.317 437.801 181.12 438.612 181.12C439.412 181.12 440.1 181.32 440.676 181.72C441.257 182.115 441.702 182.656 442.012 183.344C442.321 184.032 442.476 184.808 442.476 185.672C442.476 186.536 442.321 187.312 442.012 188C441.702 188.688 441.257 189.235 440.676 189.64C440.1 190.04 439.409 190.24 438.604 190.24ZM434.628 193.84V181.36H435.9V187.72H436.06V193.84H434.628ZM438.428 188.936C438.998 188.936 439.47 188.792 439.844 188.504C440.217 188.216 440.497 187.827 440.684 187.336C440.87 186.84 440.964 186.285 440.964 185.672C440.964 185.064 440.87 184.515 440.684 184.024C440.502 183.533 440.22 183.144 439.836 182.856C439.457 182.568 438.974 182.424 438.388 182.424C437.828 182.424 437.364 182.563 436.996 182.84C436.628 183.112 436.353 183.493 436.172 183.984C435.99 184.469 435.9 185.032 435.9 185.672C435.9 186.301 435.988 186.864 436.164 187.36C436.345 187.851 436.622 188.237 436.996 188.52C437.369 188.797 437.846 188.936 438.428 188.936Z" fill="white"/>
    <path d="M714 184H447.5" stroke="#D3D7E0" stroke-width="2"/>
    <path d="M724 184L724.707 183.293L725.414 184L724.707 184.707L724 184ZM716.707 192.707L716 193.414L714.586 192L715.293 191.293L716.707 192.707ZM715.293 176.707L714.586 176L716 174.586L716.707 175.293L715.293 176.707ZM714 183L724 183L724 185L714 185L714 183ZM724.707 184.707L716.707 192.707L715.293 191.293L723.293 183.293L724.707 184.707ZM723.293 184.707L715.293 176.707L716.707 175.293L724.707 183.293L723.293 184.707Z" fill="#D3D7E0"/>
    <path d="M104.62 350V338.48H109.172C109.284 338.48 109.417 338.485 109.572 338.496C109.727 338.501 109.876 338.517 110.02 338.544C110.644 338.64 111.167 338.853 111.588 339.184C112.015 339.515 112.335 339.933 112.548 340.44C112.761 340.941 112.868 341.499 112.868 342.112C112.868 343.003 112.636 343.776 112.172 344.432C111.708 345.083 111.028 345.491 110.132 345.656L109.588 345.744H106.044V350H104.62ZM111.476 350L109.204 345.312L110.612 344.88L113.108 350H111.476ZM106.044 344.392H109.124C109.225 344.392 109.34 344.387 109.468 344.376C109.601 344.365 109.727 344.347 109.844 344.32C110.212 344.235 110.511 344.08 110.74 343.856C110.975 343.627 111.145 343.36 111.252 343.056C111.359 342.747 111.412 342.432 111.412 342.112C111.412 341.792 111.359 341.48 111.252 341.176C111.145 340.867 110.975 340.597 110.74 340.368C110.511 340.139 110.212 339.984 109.844 339.904C109.727 339.872 109.601 339.853 109.468 339.848C109.34 339.837 109.225 339.832 109.124 339.832H106.044V344.392ZM116.878 350V340.056L114.71 341.368V339.776L116.878 338.48H118.326V350H116.878Z" fill="white"/>
    <rect x="96" y="332" width="32" height="24" rx="1" stroke="#D3D7E0" stroke-width="2"/>
    <path d="M394.5 344H128" stroke="#D3D7E0" stroke-width="2"/>
    <rect width="53" height="20" transform="translate(394.5 334)" fill="#1D1D29"/>
    <path d="M399.691 349.992L399.699 348.712L404.811 344.112C405.237 343.728 405.523 343.365 405.667 343.024C405.816 342.677 405.891 342.323 405.891 341.96C405.891 341.517 405.789 341.117 405.587 340.76C405.384 340.403 405.107 340.12 404.755 339.912C404.408 339.704 404.013 339.6 403.571 339.6C403.112 339.6 402.704 339.709 402.347 339.928C401.989 340.141 401.707 340.427 401.499 340.784C401.296 341.141 401.197 341.531 401.203 341.952H399.747C399.747 341.227 399.915 340.587 400.251 340.032C400.587 339.472 401.043 339.035 401.619 338.72C402.2 338.4 402.859 338.24 403.595 338.24C404.309 338.24 404.949 338.405 405.515 338.736C406.08 339.061 406.525 339.507 406.851 340.072C407.181 340.632 407.347 341.267 407.347 341.976C407.347 342.477 407.283 342.912 407.155 343.28C407.032 343.648 406.84 343.989 406.579 344.304C406.317 344.613 405.989 344.944 405.595 345.296L401.347 349.112L401.163 348.632H407.347V349.992H399.691ZM412.669 350.24C412.077 350.24 411.525 350.117 411.013 349.872C410.506 349.627 410.071 349.291 409.709 348.864C409.351 348.432 409.095 347.936 408.941 347.376L410.309 347.008C410.405 347.387 410.575 347.715 410.821 347.992C411.066 348.264 411.351 348.477 411.677 348.632C412.007 348.781 412.351 348.856 412.709 348.856C413.178 348.856 413.599 348.744 413.973 348.52C414.351 348.291 414.65 347.989 414.869 347.616C415.087 347.237 415.197 346.824 415.197 346.376C415.197 345.912 415.082 345.493 414.853 345.12C414.629 344.741 414.327 344.443 413.949 344.224C413.57 344.005 413.157 343.896 412.709 343.896C412.202 343.896 411.767 344.003 411.405 344.216C411.047 344.424 410.765 344.68 410.557 344.984L409.293 344.504L409.645 338.48H415.829V339.832H410.333L410.965 339.24L410.669 344.064L410.357 343.656C410.677 343.315 411.058 343.051 411.501 342.864C411.949 342.677 412.405 342.584 412.869 342.584C413.583 342.584 414.223 342.752 414.789 343.088C415.354 343.419 415.802 343.872 416.133 344.448C416.463 345.019 416.629 345.661 416.629 346.376C416.629 347.085 416.447 347.733 416.085 348.32C415.722 348.901 415.239 349.368 414.637 349.72C414.039 350.067 413.383 350.24 412.669 350.24ZM420.55 350V340.056L418.382 341.368V339.776L420.55 338.48H421.998V350H420.55ZM429.01 350.24C428.199 350.24 427.517 350.04 426.962 349.64C426.407 349.235 425.986 348.688 425.698 348C425.415 347.307 425.274 346.531 425.274 345.672C425.274 344.803 425.415 344.024 425.698 343.336C425.986 342.648 426.407 342.107 426.962 341.712C427.522 341.317 428.207 341.12 429.018 341.12C429.818 341.12 430.506 341.32 431.082 341.72C431.663 342.115 432.109 342.656 432.418 343.344C432.727 344.032 432.882 344.808 432.882 345.672C432.882 346.536 432.727 347.312 432.418 348C432.109 348.688 431.663 349.235 431.082 349.64C430.506 350.04 429.815 350.24 429.01 350.24ZM425.034 350V338.48H426.466V343.64H426.306V350H425.034ZM428.834 348.936C429.405 348.936 429.877 348.792 430.25 348.504C430.623 348.216 430.903 347.827 431.09 347.336C431.277 346.84 431.37 346.285 431.37 345.672C431.37 345.064 431.277 344.515 431.09 344.024C430.909 343.533 430.626 343.144 430.242 342.856C429.863 342.568 429.381 342.424 428.794 342.424C428.234 342.424 427.77 342.563 427.402 342.84C427.034 343.112 426.759 343.493 426.578 343.984C426.397 344.469 426.306 345.032 426.306 345.672C426.306 346.301 426.394 346.864 426.57 347.36C426.751 347.851 427.029 348.237 427.402 348.52C427.775 348.797 428.253 348.936 428.834 348.936ZM438.604 350.24C437.793 350.24 437.11 350.04 436.556 349.64C436.001 349.235 435.58 348.688 435.292 348C435.009 347.307 434.868 346.531 434.868 345.672C434.868 344.803 435.009 344.024 435.292 343.336C435.58 342.648 436.001 342.107 436.556 341.712C437.116 341.317 437.801 341.12 438.612 341.12C439.412 341.12 440.1 341.32 440.676 341.72C441.257 342.115 441.702 342.656 442.012 343.344C442.321 344.032 442.476 344.808 442.476 345.672C442.476 346.536 442.321 347.312 442.012 348C441.702 348.688 441.257 349.235 440.676 349.64C440.1 350.04 439.409 350.24 438.604 350.24ZM434.628 353.84V341.36H435.9V347.72H436.06V353.84H434.628ZM438.428 348.936C438.998 348.936 439.47 348.792 439.844 348.504C440.217 348.216 440.497 347.827 440.684 347.336C440.87 346.84 440.964 346.285 440.964 345.672C440.964 345.064 440.87 344.515 440.684 344.024C440.502 343.533 440.22 343.144 439.836 342.856C439.457 342.568 438.974 342.424 438.388 342.424C437.828 342.424 437.364 342.563 436.996 342.84C436.628 343.112 436.353 343.493 436.172 343.984C435.99 344.469 435.9 345.032 435.9 345.672C435.9 346.301 435.988 346.864 436.164 347.36C436.345 347.851 436.622 348.237 436.996 348.52C437.369 348.797 437.846 348.936 438.428 348.936Z" fill="white"/>
    <path d="M714 344H447.5" stroke="#D3D7E0" stroke-width="2"/>
    <path d="M724 344L724.707 343.293L725.414 344L724.707 344.707L724 344ZM716.707 352.707L716 353.414L714.586 352L715.293 351.293L716.707 352.707ZM715.293 336.707L714.586 336L716 334.586L716.707 335.293L715.293 336.707ZM714 343L724 343L724 345L714 345L714 343ZM724.707 344.707L716.707 352.707L715.293 351.293L723.293 343.293L724.707 344.707ZM723.293 344.707L715.293 336.707L716.707 335.293L724.707 343.293L723.293 344.707Z" fill="#D3D7E0"/>
    <path d="M98.5813 91.992L98.5893 90.712L103.701 86.112C104.128 85.728 104.413 85.3653 104.557 85.024C104.707 84.6773 104.781 84.3227 104.781 83.96C104.781 83.5173 104.68 83.1173 104.477 82.76C104.275 82.4027 103.997 82.12 103.645 81.912C103.299 81.704 102.904 81.6 102.461 81.6C102.003 81.6 101.595 81.7093 101.237 81.928C100.88 82.1413 100.597 82.4267 100.389 82.784C100.187 83.1413 100.088 83.5307 100.093 83.952H98.6373C98.6373 83.2267 98.8053 82.5867 99.1413 82.032C99.4773 81.472 99.9333 81.0347 100.509 80.72C101.091 80.4 101.749 80.24 102.485 80.24C103.2 80.24 103.84 80.4053 104.405 80.736C104.971 81.0613 105.416 81.5067 105.741 82.072C106.072 82.632 106.237 83.2667 106.237 83.976C106.237 84.4773 106.173 84.912 106.045 85.28C105.923 85.648 105.731 85.9893 105.469 86.304C105.208 86.6133 104.88 86.944 104.485 87.296L100.237 91.112L100.053 90.632H106.237V91.992H98.5813ZM112.119 92.24C111.309 92.24 110.626 92.04 110.071 91.64C109.517 91.2347 109.095 90.688 108.807 90C108.525 89.3067 108.383 88.5307 108.383 87.672C108.383 86.8027 108.525 86.024 108.807 85.336C109.095 84.648 109.517 84.1067 110.071 83.712C110.631 83.3173 111.317 83.12 112.127 83.12C112.927 83.12 113.615 83.32 114.191 83.72C114.773 84.1147 115.218 84.656 115.527 85.344C115.837 86.032 115.991 86.808 115.991 87.672C115.991 88.536 115.837 89.312 115.527 90C115.218 90.688 114.773 91.2347 114.191 91.64C113.615 92.04 112.925 92.24 112.119 92.24ZM108.143 92V80.48H109.575V85.64H109.415V92H108.143ZM111.943 90.936C112.514 90.936 112.986 90.792 113.359 90.504C113.733 90.216 114.013 89.8267 114.199 89.336C114.386 88.84 114.479 88.2853 114.479 87.672C114.479 87.064 114.386 86.5147 114.199 86.024C114.018 85.5333 113.735 85.144 113.351 84.856C112.973 84.568 112.49 84.424 111.903 84.424C111.343 84.424 110.879 84.5627 110.511 84.84C110.143 85.112 109.869 85.4933 109.687 85.984C109.506 86.4693 109.415 87.032 109.415 87.672C109.415 88.3013 109.503 88.864 109.679 89.36C109.861 89.8507 110.138 90.2373 110.511 90.52C110.885 90.7973 111.362 90.936 111.943 90.936ZM121.713 92.24C120.902 92.24 120.22 92.04 119.665 91.64C119.11 91.2347 118.689 90.688 118.401 90C118.118 89.3067 117.977 88.5307 117.977 87.672C117.977 86.8027 118.118 86.024 118.401 85.336C118.689 84.648 119.11 84.1067 119.665 83.712C120.225 83.3173 120.91 83.12 121.721 83.12C122.521 83.12 123.209 83.32 123.785 83.72C124.366 84.1147 124.812 84.656 125.121 85.344C125.43 86.032 125.585 86.808 125.585 87.672C125.585 88.536 125.43 89.312 125.121 90C124.812 90.688 124.366 91.2347 123.785 91.64C123.209 92.04 122.518 92.24 121.713 92.24ZM117.737 95.84V83.36H119.009V89.72H119.169V95.84H117.737ZM121.537 90.936C122.108 90.936 122.58 90.792 122.953 90.504C123.326 90.216 123.606 89.8267 123.793 89.336C123.98 88.84 124.073 88.2853 124.073 87.672C124.073 87.064 123.98 86.5147 123.793 86.024C123.612 85.5333 123.329 85.144 122.945 84.856C122.566 84.568 122.084 84.424 121.497 84.424C120.937 84.424 120.473 84.5627 120.105 84.84C119.737 85.112 119.462 85.4933 119.281 85.984C119.1 86.4693 119.009 87.032 119.009 87.672C119.009 88.3013 119.097 88.864 119.273 89.36C119.454 89.8507 119.732 90.2373 120.105 90.52C120.478 90.7973 120.956 90.936 121.537 90.936Z" fill="white"/>
    <path d="M881.581 91.992L881.589 90.712L886.701 86.112C887.128 85.728 887.413 85.3653 887.557 85.024C887.707 84.6773 887.781 84.3227 887.781 83.96C887.781 83.5173 887.68 83.1173 887.477 82.76C887.275 82.4027 886.997 82.12 886.645 81.912C886.299 81.704 885.904 81.6 885.461 81.6C885.003 81.6 884.595 81.7093 884.237 81.928C883.88 82.1413 883.597 82.4267 883.389 82.784C883.187 83.1413 883.088 83.5307 883.093 83.952H881.637C881.637 83.2267 881.805 82.5867 882.141 82.032C882.477 81.472 882.933 81.0347 883.509 80.72C884.091 80.4 884.749 80.24 885.485 80.24C886.2 80.24 886.84 80.4053 887.405 80.736C887.971 81.0613 888.416 81.5067 888.741 82.072C889.072 82.632 889.237 83.2667 889.237 83.976C889.237 84.4773 889.173 84.912 889.045 85.28C888.923 85.648 888.731 85.9893 888.469 86.304C888.208 86.6133 887.88 86.944 887.485 87.296L883.237 91.112L883.053 90.632H889.237V91.992H881.581ZM895.119 92.24C894.309 92.24 893.626 92.04 893.071 91.64C892.517 91.2347 892.095 90.688 891.807 90C891.525 89.3067 891.383 88.5307 891.383 87.672C891.383 86.8027 891.525 86.024 891.807 85.336C892.095 84.648 892.517 84.1067 893.071 83.712C893.631 83.3173 894.317 83.12 895.127 83.12C895.927 83.12 896.615 83.32 897.191 83.72C897.773 84.1147 898.218 84.656 898.527 85.344C898.837 86.032 898.991 86.808 898.991 87.672C898.991 88.536 898.837 89.312 898.527 90C898.218 90.688 897.773 91.2347 897.191 91.64C896.615 92.04 895.925 92.24 895.119 92.24ZM891.143 92V80.48H892.575V85.64H892.415V92H891.143ZM894.943 90.936C895.514 90.936 895.986 90.792 896.359 90.504C896.733 90.216 897.013 89.8267 897.199 89.336C897.386 88.84 897.479 88.2853 897.479 87.672C897.479 87.064 897.386 86.5147 897.199 86.024C897.018 85.5333 896.735 85.144 896.351 84.856C895.973 84.568 895.49 84.424 894.903 84.424C894.343 84.424 893.879 84.5627 893.511 84.84C893.143 85.112 892.869 85.4933 892.687 85.984C892.506 86.4693 892.415 87.032 892.415 87.672C892.415 88.3013 892.503 88.864 892.679 89.36C892.861 89.8507 893.138 90.2373 893.511 90.52C893.885 90.7973 894.362 90.936 894.943 90.936ZM904.713 92.24C903.902 92.24 903.22 92.04 902.665 91.64C902.11 91.2347 901.689 90.688 901.401 90C901.118 89.3067 900.977 88.5307 900.977 87.672C900.977 86.8027 901.118 86.024 901.401 85.336C901.689 84.648 902.11 84.1067 902.665 83.712C903.225 83.3173 903.91 83.12 904.721 83.12C905.521 83.12 906.209 83.32 906.785 83.72C907.366 84.1147 907.812 84.656 908.121 85.344C908.43 86.032 908.585 86.808 908.585 87.672C908.585 88.536 908.43 89.312 908.121 90C907.812 90.688 907.366 91.2347 906.785 91.64C906.209 92.04 905.518 92.24 904.713 92.24ZM900.737 95.84V83.36H902.009V89.72H902.169V95.84H900.737ZM904.537 90.936C905.108 90.936 905.58 90.792 905.953 90.504C906.326 90.216 906.606 89.8267 906.793 89.336C906.98 88.84 907.073 88.2853 907.073 87.672C907.073 87.064 906.98 86.5147 906.793 86.024C906.612 85.5333 906.329 85.144 905.945 84.856C905.566 84.568 905.084 84.424 904.497 84.424C903.937 84.424 903.473 84.5627 903.105 84.84C902.737 85.112 902.462 85.4933 902.281 85.984C902.1 86.4693 902.009 87.032 902.009 87.672C902.009 88.3013 902.097 88.864 902.273 89.36C902.454 89.8507 902.732 90.2373 903.105 90.52C903.478 90.7973 903.956 90.936 904.537 90.936Z" fill="white"/>
    <path d="M187.065 92.24C186.276 92.24 185.556 92.1013 184.905 91.824C184.255 91.5467 183.695 91.1493 183.225 90.632C182.756 90.1093 182.393 89.48 182.137 88.744C181.887 88.0027 181.761 87.168 181.761 86.24C181.761 85.0133 181.98 83.952 182.417 83.056C182.855 82.16 183.471 81.4693 184.265 80.984C185.06 80.4933 185.993 80.248 187.065 80.248C188.356 80.248 189.396 80.5493 190.185 81.152C190.975 81.7493 191.519 82.568 191.817 83.608L190.377 83.904C190.137 83.2053 189.743 82.648 189.193 82.232C188.644 81.816 187.959 81.608 187.137 81.608C186.279 81.6027 185.564 81.7947 184.993 82.184C184.428 82.568 184.001 83.1093 183.713 83.808C183.425 84.5067 183.279 85.3173 183.273 86.24C183.268 87.1573 183.409 87.9627 183.697 88.656C183.985 89.3493 184.415 89.8933 184.985 90.288C185.561 90.6773 186.279 90.8747 187.137 90.88C187.879 90.8853 188.503 90.744 189.009 90.456C189.516 90.168 189.908 89.752 190.185 89.208C190.463 88.664 190.631 88.0107 190.689 87.248H188.241V86.072H192.193C192.209 86.1787 192.217 86.3067 192.217 86.456C192.223 86.6 192.225 86.6987 192.225 86.752C192.225 87.8027 192.028 88.744 191.633 89.576C191.244 90.4027 190.665 91.0533 189.897 91.528C189.135 92.0027 188.191 92.24 187.065 92.24ZM192.711 92L196.567 80.48H198.551L202.407 92H200.927L197.319 81.312H197.767L194.191 92H192.711ZM194.567 89.304V87.968H200.551V89.304H194.567Z" fill="white"/>
    <path d="M222.294 92.24C221.702 92.24 221.15 92.1173 220.638 91.872C220.131 91.6267 219.696 91.2907 219.334 90.864C218.976 90.432 218.72 89.936 218.566 89.376L219.934 89.008C220.03 89.3867 220.2 89.7147 220.446 89.992C220.691 90.264 220.976 90.4773 221.302 90.632C221.632 90.7813 221.976 90.856 222.334 90.856C222.803 90.856 223.224 90.744 223.598 90.52C223.976 90.2907 224.275 89.9893 224.494 89.616C224.712 89.2373 224.822 88.824 224.822 88.376C224.822 87.912 224.707 87.4933 224.478 87.12C224.254 86.7413 223.952 86.4427 223.574 86.224C223.195 86.0053 222.782 85.896 222.334 85.896C221.827 85.896 221.392 86.0027 221.03 86.216C220.672 86.424 220.39 86.68 220.182 86.984L218.918 86.504L219.27 80.48H225.454V81.832H219.958L220.59 81.24L220.294 86.064L219.982 85.656C220.302 85.3147 220.683 85.0507 221.126 84.864C221.574 84.6773 222.03 84.584 222.494 84.584C223.208 84.584 223.848 84.752 224.414 85.088C224.979 85.4187 225.427 85.872 225.758 86.448C226.088 87.0187 226.254 87.6613 226.254 88.376C226.254 89.0853 226.072 89.7333 225.71 90.32C225.347 90.9013 224.864 91.368 224.262 91.72C223.664 92.0667 223.008 92.24 222.294 92.24ZM232.135 92.24C231.324 92.24 230.642 92.04 230.087 91.64C229.532 91.2347 229.111 90.688 228.823 90C228.54 89.3067 228.399 88.5307 228.399 87.672C228.399 86.8027 228.54 86.024 228.823 85.336C229.111 84.648 229.532 84.1067 230.087 83.712C230.647 83.3173 231.332 83.12 232.143 83.12C232.943 83.12 233.631 83.32 234.207 83.72C234.788 84.1147 235.234 84.656 235.543 85.344C235.852 86.032 236.007 86.808 236.007 87.672C236.007 88.536 235.852 89.312 235.543 90C235.234 90.688 234.788 91.2347 234.207 91.64C233.631 92.04 232.94 92.24 232.135 92.24ZM228.159 92V80.48H229.591V85.64H229.431V92H228.159ZM231.959 90.936C232.53 90.936 233.002 90.792 233.375 90.504C233.748 90.216 234.028 89.8267 234.215 89.336C234.402 88.84 234.495 88.2853 234.495 87.672C234.495 87.064 234.402 86.5147 234.215 86.024C234.034 85.5333 233.751 85.144 233.367 84.856C232.988 84.568 232.506 84.424 231.919 84.424C231.359 84.424 230.895 84.5627 230.527 84.84C230.159 85.112 229.884 85.4933 229.703 85.984C229.522 86.4693 229.431 87.032 229.431 87.672C229.431 88.3013 229.519 88.864 229.695 89.36C229.876 89.8507 230.154 90.2373 230.527 90.52C230.9 90.7973 231.378 90.936 231.959 90.936ZM241.729 92.24C240.918 92.24 240.235 92.04 239.681 91.64C239.126 91.2347 238.705 90.688 238.417 90C238.134 89.3067 237.993 88.5307 237.993 87.672C237.993 86.8027 238.134 86.024 238.417 85.336C238.705 84.648 239.126 84.1067 239.681 83.712C240.241 83.3173 240.926 83.12 241.737 83.12C242.537 83.12 243.225 83.32 243.801 83.72C244.382 84.1147 244.827 84.656 245.137 85.344C245.446 86.032 245.601 86.808 245.601 87.672C245.601 88.536 245.446 89.312 245.137 90C244.827 90.688 244.382 91.2347 243.801 91.64C243.225 92.04 242.534 92.24 241.729 92.24ZM237.753 95.84V83.36H239.025V89.72H239.185V95.84H237.753ZM241.553 90.936C242.123 90.936 242.595 90.792 242.969 90.504C243.342 90.216 243.622 89.8267 243.809 89.336C243.995 88.84 244.089 88.2853 244.089 87.672C244.089 87.064 243.995 86.5147 243.809 86.024C243.627 85.5333 243.345 85.144 242.961 84.856C242.582 84.568 242.099 84.424 241.513 84.424C240.953 84.424 240.489 84.5627 240.121 84.84C239.753 85.112 239.478 85.4933 239.297 85.984C239.115 86.4693 239.025 87.032 239.025 87.672C239.025 88.3013 239.113 88.864 239.289 89.36C239.47 89.8507 239.747 90.2373 240.121 90.52C240.494 90.7973 240.971 90.936 241.553 90.936Z" fill="white"/>
    <path d="M144.294 92.24C143.702 92.24 143.15 92.1173 142.638 91.872C142.131 91.6267 141.696 91.2907 141.334 90.864C140.976 90.432 140.72 89.936 140.566 89.376L141.934 89.008C142.03 89.3867 142.2 89.7147 142.446 89.992C142.691 90.264 142.976 90.4773 143.302 90.632C143.632 90.7813 143.976 90.856 144.334 90.856C144.803 90.856 145.224 90.744 145.598 90.52C145.976 90.2907 146.275 89.9893 146.494 89.616C146.712 89.2373 146.822 88.824 146.822 88.376C146.822 87.912 146.707 87.4933 146.478 87.12C146.254 86.7413 145.952 86.4427 145.574 86.224C145.195 86.0053 144.782 85.896 144.334 85.896C143.827 85.896 143.392 86.0027 143.03 86.216C142.672 86.424 142.39 86.68 142.182 86.984L140.918 86.504L141.27 80.48H147.454V81.832H141.958L142.59 81.24L142.294 86.064L141.982 85.656C142.302 85.3147 142.683 85.0507 143.126 84.864C143.574 84.6773 144.03 84.584 144.494 84.584C145.208 84.584 145.848 84.752 146.414 85.088C146.979 85.4187 147.427 85.872 147.758 86.448C148.088 87.0187 148.254 87.6613 148.254 88.376C148.254 89.0853 148.072 89.7333 147.71 90.32C147.347 90.9013 146.864 91.368 146.262 91.72C145.664 92.0667 145.008 92.24 144.294 92.24ZM154.135 92.24C153.324 92.24 152.642 92.04 152.087 91.64C151.532 91.2347 151.111 90.688 150.823 90C150.54 89.3067 150.399 88.5307 150.399 87.672C150.399 86.8027 150.54 86.024 150.823 85.336C151.111 84.648 151.532 84.1067 152.087 83.712C152.647 83.3173 153.332 83.12 154.143 83.12C154.943 83.12 155.631 83.32 156.207 83.72C156.788 84.1147 157.234 84.656 157.543 85.344C157.852 86.032 158.007 86.808 158.007 87.672C158.007 88.536 157.852 89.312 157.543 90C157.234 90.688 156.788 91.2347 156.207 91.64C155.631 92.04 154.94 92.24 154.135 92.24ZM150.159 92V80.48H151.591V85.64H151.431V92H150.159ZM153.959 90.936C154.53 90.936 155.002 90.792 155.375 90.504C155.748 90.216 156.028 89.8267 156.215 89.336C156.402 88.84 156.495 88.2853 156.495 87.672C156.495 87.064 156.402 86.5147 156.215 86.024C156.034 85.5333 155.751 85.144 155.367 84.856C154.988 84.568 154.506 84.424 153.919 84.424C153.359 84.424 152.895 84.5627 152.527 84.84C152.159 85.112 151.884 85.4933 151.703 85.984C151.522 86.4693 151.431 87.032 151.431 87.672C151.431 88.3013 151.519 88.864 151.695 89.36C151.876 89.8507 152.154 90.2373 152.527 90.52C152.9 90.7973 153.378 90.936 153.959 90.936ZM163.729 92.24C162.918 92.24 162.235 92.04 161.681 91.64C161.126 91.2347 160.705 90.688 160.417 90C160.134 89.3067 159.993 88.5307 159.993 87.672C159.993 86.8027 160.134 86.024 160.417 85.336C160.705 84.648 161.126 84.1067 161.681 83.712C162.241 83.3173 162.926 83.12 163.737 83.12C164.537 83.12 165.225 83.32 165.801 83.72C166.382 84.1147 166.827 84.656 167.137 85.344C167.446 86.032 167.601 86.808 167.601 87.672C167.601 88.536 167.446 89.312 167.137 90C166.827 90.688 166.382 91.2347 165.801 91.64C165.225 92.04 164.534 92.24 163.729 92.24ZM159.753 95.84V83.36H161.025V89.72H161.185V95.84H159.753ZM163.553 90.936C164.123 90.936 164.595 90.792 164.969 90.504C165.342 90.216 165.622 89.8267 165.809 89.336C165.995 88.84 166.089 88.2853 166.089 87.672C166.089 87.064 165.995 86.5147 165.809 86.024C165.627 85.5333 165.345 85.144 164.961 84.856C164.582 84.568 164.099 84.424 163.513 84.424C162.953 84.424 162.489 84.5627 162.121 84.84C161.753 85.112 161.478 85.4933 161.297 85.984C161.115 86.4693 161.025 87.032 161.025 87.672C161.025 88.3013 161.113 88.864 161.289 89.36C161.47 89.8507 161.747 90.2373 162.121 90.52C162.494 90.7973 162.971 90.936 163.553 90.936Z" fill="white"/>
    <path d="M842.294 92.24C841.702 92.24 841.15 92.1173 840.638 91.872C840.131 91.6267 839.696 91.2907 839.334 90.864C838.976 90.432 838.72 89.936 838.566 89.376L839.934 89.008C840.03 89.3867 840.2 89.7147 840.446 89.992C840.691 90.264 840.976 90.4773 841.302 90.632C841.632 90.7813 841.976 90.856 842.334 90.856C842.803 90.856 843.224 90.744 843.598 90.52C843.976 90.2907 844.275 89.9893 844.494 89.616C844.712 89.2373 844.822 88.824 844.822 88.376C844.822 87.912 844.707 87.4933 844.478 87.12C844.254 86.7413 843.952 86.4427 843.574 86.224C843.195 86.0053 842.782 85.896 842.334 85.896C841.827 85.896 841.392 86.0027 841.03 86.216C840.672 86.424 840.39 86.68 840.182 86.984L838.918 86.504L839.27 80.48H845.454V81.832H839.958L840.59 81.24L840.294 86.064L839.982 85.656C840.302 85.3147 840.683 85.0507 841.126 84.864C841.574 84.6773 842.03 84.584 842.494 84.584C843.208 84.584 843.848 84.752 844.414 85.088C844.979 85.4187 845.427 85.872 845.758 86.448C846.088 87.0187 846.254 87.6613 846.254 88.376C846.254 89.0853 846.072 89.7333 845.71 90.32C845.347 90.9013 844.864 91.368 844.262 91.72C843.664 92.0667 843.008 92.24 842.294 92.24ZM852.135 92.24C851.324 92.24 850.642 92.04 850.087 91.64C849.532 91.2347 849.111 90.688 848.823 90C848.54 89.3067 848.399 88.5307 848.399 87.672C848.399 86.8027 848.54 86.024 848.823 85.336C849.111 84.648 849.532 84.1067 850.087 83.712C850.647 83.3173 851.332 83.12 852.143 83.12C852.943 83.12 853.631 83.32 854.207 83.72C854.788 84.1147 855.234 84.656 855.543 85.344C855.852 86.032 856.007 86.808 856.007 87.672C856.007 88.536 855.852 89.312 855.543 90C855.234 90.688 854.788 91.2347 854.207 91.64C853.631 92.04 852.94 92.24 852.135 92.24ZM848.159 92V80.48H849.591V85.64H849.431V92H848.159ZM851.959 90.936C852.53 90.936 853.002 90.792 853.375 90.504C853.748 90.216 854.028 89.8267 854.215 89.336C854.402 88.84 854.495 88.2853 854.495 87.672C854.495 87.064 854.402 86.5147 854.215 86.024C854.034 85.5333 853.751 85.144 853.367 84.856C852.988 84.568 852.506 84.424 851.919 84.424C851.359 84.424 850.895 84.5627 850.527 84.84C850.159 85.112 849.884 85.4933 849.703 85.984C849.522 86.4693 849.431 87.032 849.431 87.672C849.431 88.3013 849.519 88.864 849.695 89.36C849.876 89.8507 850.154 90.2373 850.527 90.52C850.9 90.7973 851.378 90.936 851.959 90.936ZM861.729 92.24C860.918 92.24 860.235 92.04 859.681 91.64C859.126 91.2347 858.705 90.688 858.417 90C858.134 89.3067 857.993 88.5307 857.993 87.672C857.993 86.8027 858.134 86.024 858.417 85.336C858.705 84.648 859.126 84.1067 859.681 83.712C860.241 83.3173 860.926 83.12 861.737 83.12C862.537 83.12 863.225 83.32 863.801 83.72C864.382 84.1147 864.827 84.656 865.137 85.344C865.446 86.032 865.601 86.808 865.601 87.672C865.601 88.536 865.446 89.312 865.137 90C864.827 90.688 864.382 91.2347 863.801 91.64C863.225 92.04 862.534 92.24 861.729 92.24ZM857.753 95.84V83.36H859.025V89.72H859.185V95.84H857.753ZM861.553 90.936C862.123 90.936 862.595 90.792 862.969 90.504C863.342 90.216 863.622 89.8267 863.809 89.336C863.995 88.84 864.089 88.2853 864.089 87.672C864.089 87.064 863.995 86.5147 863.809 86.024C863.627 85.5333 863.345 85.144 862.961 84.856C862.582 84.568 862.099 84.424 861.513 84.424C860.953 84.424 860.489 84.5627 860.121 84.84C859.753 85.112 859.478 85.4933 859.297 85.984C859.115 86.4693 859.025 87.032 859.025 87.672C859.025 88.3013 859.113 88.864 859.289 89.36C859.47 89.8507 859.747 90.2373 860.121 90.52C860.494 90.7973 860.971 90.936 861.553 90.936Z" fill="white"/>
    <path d="M25.3268 302V289.29H20.4168V287.6H32.0168V289.29H27.1068V302H25.3268ZM39.529 302.3C38.0957 302.3 36.879 301.983 35.879 301.35C34.879 300.717 34.1157 299.837 33.589 298.71C33.069 297.583 32.809 296.28 32.809 294.8C32.809 293.32 33.069 292.017 33.589 290.89C34.1157 289.763 34.879 288.883 35.879 288.25C36.879 287.617 38.0957 287.3 39.529 287.3C41.1957 287.3 42.5657 287.723 43.639 288.57C44.719 289.417 45.4623 290.557 45.869 291.99L44.059 292.47C43.7657 291.397 43.2423 290.55 42.489 289.93C41.7357 289.31 40.749 289 39.529 289C38.4557 289 37.5623 289.243 36.849 289.73C36.1357 290.217 35.599 290.897 35.239 291.77C34.879 292.637 34.6957 293.647 34.689 294.8C34.6823 295.947 34.859 296.957 35.219 297.83C35.579 298.697 36.119 299.377 36.839 299.87C37.559 300.357 38.4557 300.6 39.529 300.6C40.749 300.6 41.7357 300.29 42.489 299.67C43.2423 299.043 43.7657 298.197 44.059 297.13L45.869 297.61C45.4623 299.037 44.719 300.177 43.639 301.03C42.5657 301.877 41.1957 302.3 39.529 302.3ZM48.0621 302V287.6H53.7521C53.8921 287.6 54.0588 287.607 54.2521 287.62C54.4454 287.627 54.6321 287.647 54.8121 287.68C55.5921 287.8 56.2454 288.067 56.7721 288.48C57.3054 288.893 57.7054 289.417 57.9721 290.05C58.2388 290.677 58.3721 291.373 58.3721 292.14C58.3721 293.253 58.0821 294.22 57.5021 295.04C56.9221 295.853 56.0721 296.363 54.9521 296.57L54.2721 296.68H49.8421V302H48.0621ZM56.6321 302L53.7921 296.14L55.5521 295.6L58.6721 302H56.6321ZM49.8421 294.99H53.6921C53.8188 294.99 53.9621 294.983 54.1221 294.97C54.2888 294.957 54.4454 294.933 54.5921 294.9C55.0521 294.793 55.4254 294.6 55.7121 294.32C56.0054 294.033 56.2188 293.7 56.3521 293.32C56.4854 292.933 56.5521 292.54 56.5521 292.14C56.5521 291.74 56.4854 291.35 56.3521 290.97C56.2188 290.583 56.0054 290.247 55.7121 289.96C55.4254 289.673 55.0521 289.48 54.5921 289.38C54.4454 289.34 54.2888 289.317 54.1221 289.31C53.9621 289.297 53.8188 289.29 53.6921 289.29H49.8421V294.99ZM69.1485 302.3C68.1285 302.3 67.2552 302.05 66.5285 301.55C65.8018 301.043 65.2452 300.36 64.8585 299.5C64.4718 298.64 64.2785 297.673 64.2785 296.6C64.2785 295.513 64.4718 294.543 64.8585 293.69C65.2518 292.83 65.8152 292.15 66.5485 291.65C67.2818 291.15 68.1652 290.9 69.1985 290.9C70.1652 290.9 70.9852 291.143 71.6585 291.63C72.3385 292.11 72.8185 292.777 73.0985 293.63L72.7985 294.15V291.2H74.3885V302H72.7985V299.02L73.0985 299.54C72.8185 300.4 72.3285 301.077 71.6285 301.57C70.9352 302.057 70.1085 302.3 69.1485 302.3ZM69.3685 300.67C70.0818 300.67 70.6685 300.497 71.1285 300.15C71.5952 299.797 71.9385 299.313 72.1585 298.7C72.3852 298.08 72.4985 297.377 72.4985 296.59C72.4985 295.79 72.3852 295.087 72.1585 294.48C71.9385 293.867 71.5985 293.39 71.1385 293.05C70.6785 292.703 70.0952 292.53 69.3885 292.53C68.6885 292.53 68.0985 292.703 67.6185 293.05C67.1385 293.39 66.7752 293.867 66.5285 294.48C66.2885 295.087 66.1685 295.793 66.1685 296.6C66.1685 297.36 66.2852 298.047 66.5185 298.66C66.7518 299.273 67.1052 299.763 67.5785 300.13C68.0518 300.49 68.6485 300.67 69.3685 300.67Z" fill="white"/>
    <path d="M25.6881 142V129.29H20.7781V127.6H32.3781V129.29H27.4681V142H25.6881ZM39.8903 142.3C38.457 142.3 37.2403 141.983 36.2403 141.35C35.2403 140.717 34.477 139.837 33.9503 138.71C33.4303 137.583 33.1703 136.28 33.1703 134.8C33.1703 133.32 33.4303 132.017 33.9503 130.89C34.477 129.763 35.2403 128.883 36.2403 128.25C37.2403 127.617 38.457 127.3 39.8903 127.3C41.557 127.3 42.927 127.723 44.0003 128.57C45.0803 129.417 45.8236 130.557 46.2303 131.99L44.4203 132.47C44.127 131.397 43.6036 130.55 42.8503 129.93C42.097 129.31 41.1103 129 39.8903 129C38.817 129 37.9236 129.243 37.2103 129.73C36.497 130.217 35.9603 130.897 35.6003 131.77C35.2403 132.637 35.057 133.647 35.0503 134.8C35.0436 135.947 35.2203 136.957 35.5803 137.83C35.9403 138.697 36.4803 139.377 37.2003 139.87C37.9203 140.357 38.817 140.6 39.8903 140.6C41.1103 140.6 42.097 140.29 42.8503 139.67C43.6036 139.043 44.127 138.197 44.4203 137.13L46.2303 137.61C45.8236 139.037 45.0803 140.177 44.0003 141.03C42.927 141.877 41.557 142.3 39.8903 142.3ZM48.4234 142V127.6H54.1134C54.2534 127.6 54.4201 127.607 54.6134 127.62C54.8068 127.627 54.9934 127.647 55.1734 127.68C55.9534 127.8 56.6068 128.067 57.1334 128.48C57.6668 128.893 58.0668 129.417 58.3334 130.05C58.6001 130.677 58.7334 131.373 58.7334 132.14C58.7334 133.253 58.4434 134.22 57.8634 135.04C57.2834 135.853 56.4334 136.363 55.3134 136.57L54.6334 136.68H50.2034V142H48.4234ZM56.9934 142L54.1534 136.14L55.9134 135.6L59.0334 142H56.9934ZM50.2034 134.99H54.0534C54.1801 134.99 54.3234 134.983 54.4834 134.97C54.6501 134.957 54.8068 134.933 54.9534 134.9C55.4134 134.793 55.7868 134.6 56.0734 134.32C56.3668 134.033 56.5801 133.7 56.7134 133.32C56.8468 132.933 56.9134 132.54 56.9134 132.14C56.9134 131.74 56.8468 131.35 56.7134 130.97C56.5801 130.583 56.3668 130.247 56.0734 129.96C55.7868 129.673 55.4134 129.48 54.9534 129.38C54.8068 129.34 54.6501 129.317 54.4834 129.31C54.3234 129.297 54.1801 129.29 54.0534 129.29H50.2034V134.99ZM65.2298 146.8V131.2C65.2298 130.953 65.2465 130.71 65.2798 130.47C65.3198 130.23 65.3765 130 65.4498 129.78C65.6298 129.24 65.9098 128.787 66.2898 128.42C66.6698 128.047 67.1232 127.767 67.6498 127.58C68.1765 127.393 68.7498 127.3 69.3698 127.3C70.2032 127.3 70.9365 127.463 71.5698 127.79C72.2098 128.11 72.7098 128.563 73.0698 129.15C73.4298 129.737 73.6098 130.427 73.6098 131.22C73.6098 131.86 73.4798 132.433 73.2198 132.94C72.9665 133.447 72.5765 133.83 72.0498 134.09C72.4032 134.177 72.7432 134.323 73.0698 134.53C73.4032 134.737 73.7032 135 73.9698 135.32C74.2365 135.64 74.4465 136.02 74.5998 136.46C74.7598 136.9 74.8398 137.397 74.8398 137.95C74.8398 138.823 74.6432 139.587 74.2498 140.24C73.8565 140.887 73.2932 141.393 72.5598 141.76C71.8332 142.12 70.9598 142.3 69.9398 142.3C69.3265 142.3 68.7732 142.217 68.2798 142.05C67.7932 141.89 67.3698 141.67 67.0098 141.39V146.8H65.2298ZM70.0198 140.61C70.6132 140.61 71.1365 140.497 71.5898 140.27C72.0432 140.037 72.3965 139.717 72.6498 139.31C72.9032 138.897 73.0298 138.417 73.0298 137.87C73.0298 136.983 72.7032 136.313 72.0498 135.86C71.3965 135.4 70.5198 135.16 69.4198 135.14V133.54C69.8798 133.493 70.2865 133.38 70.6398 133.2C70.9998 133.02 71.2798 132.767 71.4798 132.44C71.6865 132.113 71.7898 131.713 71.7898 131.24C71.7898 130.527 71.5665 129.973 71.1198 129.58C70.6732 129.187 70.1032 128.99 69.4098 128.99C68.9698 128.99 68.5498 129.09 68.1498 129.29C67.7565 129.483 67.4665 129.813 67.2798 130.28C67.1798 130.54 67.1165 130.817 67.0898 131.11C67.0632 131.397 67.0498 131.647 67.0498 131.86V137.71C67.0498 137.903 67.0598 138.123 67.0798 138.37C67.1065 138.61 67.1465 138.823 67.1998 139.01C67.3665 139.523 67.7232 139.92 68.2698 140.2C68.8165 140.473 69.3998 140.61 70.0198 140.61Z" fill="white"/>
    <defs>
        <filter id="filter0_i_6123_38210" x="95" y="107" width="32" height="54" filterUnits="userSpaceOnUse" color-interpolation-filters="sRGB">
            <feFlood flood-opacity="0" result="BackgroundImageFix"/>
            <feBlend mode="normal" in="SourceGraphic" in2="BackgroundImageFix" result="shape"/>
            <feColorMatrix in="SourceAlpha" type="matrix" values="0 0 0 0 0 0 0 0 0 0 0 0 0 0 0 0 0 0 127 0" result="hardAlpha"/>
            <feOffset dx="-8" dy="-4"/>
            <feComposite in2="hardAlpha" operator="arithmetic" k2="-1" k3="1"/>
            <feColorMatrix type="matrix" values="0 0 0 0 0.0666667 0 0 0 0 0.0196078 0 0 0 0 0.160784 0 0 0 0.16 0"/>
            <feBlend mode="normal" in2="shape" result="effect1_innerShadow_6123_38210"/>
        </filter>
        <filter id="filter1_i_6123_38210" x="125" y="107" width="58" height="54" filterUnits="userSpaceOnUse" color-interpolation-filters="sRGB">
            <feFlood flood-opacity="0" result="BackgroundImageFix"/>
            <feBlend mode="normal" in="SourceGraphic" in2="BackgroundImageFix" result="shape"/>
            <feColorMatrix in="SourceAlpha" type="matrix" values="0 0 0 0 0 0 0 0 0 0 0 0 0 0 0 0 0 0 127 0" result="hardAlpha"/>
            <feOffset dx="-8" dy="-4"/>
            <feComposite in2="hardAlpha" operator="arithmetic" k2="-1" k3="1"/>
            <feColorMatrix type="matrix" values="0 0 0 0 0.0666667 0 0 0 0 0.0196078 0 0 0 0 0.160784 0 0 0 0.16 0"/>
            <feBlend mode="normal" in2="shape" result="effect1_innerShadow_6123_38210"/>
        </filter>
        <filter id="filter2_i_6123_38210" x="181" y="107" width="22" height="54" filterUnits="userSpaceOnUse" color-interpolation-filters="sRGB">
            <feFlood flood-opacity="0" result="BackgroundImageFix"/>
            <feBlend mode="normal" in="SourceGraphic" in2="BackgroundImageFix" result="shape"/>
            <feColorMatrix in="SourceAlpha" type="matrix" values="0 0 0 0 0 0 0 0 0 0 0 0 0 0 0 0 0 0 127 0" result="hardAlpha"/>
            <feOffset dx="-8" dy="-4"/>
            <feComposite in2="hardAlpha" operator="arithmetic" k2="-1" k3="1"/>
            <feColorMatrix type="matrix" values="0 0 0 0 0.0666667 0 0 0 0 0.0196078 0 0 0 0 0.160784 0 0 0 0.16 0"/>
            <feBlend mode="normal" in2="shape" result="effect1_innerShadow_6123_38210"/>
        </filter>
        <filter id="filter3_i_6123_38210" x="201" y="107" width="58" height="54" filterUnits="userSpaceOnUse" color-interpolation-filters="sRGB">
            <feFlood flood-opacity="0" result="BackgroundImageFix"/>
            <feBlend mode="normal" in="SourceGraphic" in2="BackgroundImageFix" result="shape"/>
            <feColorMatrix in="SourceAlpha" type="matrix" values="0 0 0 0 0 0 0 0 0 0 0 0 0 0 0 0 0 0 127 0" result="hardAlpha"/>
            <feOffset dx="-8" dy="-4"/>
            <feComposite in2="hardAlpha" operator="arithmetic" k2="-1" k3="1"/>
            <feColorMatrix type="matrix" values="0 0 0 0 0.0666667 0 0 0 0 0.0196078 0 0 0 0 0.160784 0 0 0 0.16 0"/>
            <feBlend mode="normal" in2="shape" result="effect1_innerShadow_6123_38210"/>
        </filter>
        <filter id="filter4_i_6123_38210" x="257" y="107" width="202" height="54" filterUnits="userSpaceOnUse" color-interpolation-filters="sRGB">
            <feFlood flood-opacity="0" result="BackgroundImageFix"/>
            <feBlend mode="normal" in="SourceGraphic" in2="BackgroundImageFix" result="shape"/>
            <feColorMatrix in="SourceAlpha" type="matrix" values="0 0 0 0 0 0 0 0 0 0 0 0 0 0 0 0 0 0 127 0" result="hardAlpha"/>
            <feOffset dx="-8" dy="-4"/>
            <feComposite in2="hardAlpha" operator="arithmetic" k2="-1" k3="1"/>
            <feColorMatrix type="matrix" values="0 0 0 0 0.0666667 0 0 0 0 0.0196078 0 0 0 0 0.160784 0 0 0 0.16 0"/>
            <feBlend mode="normal" in2="shape" result="effect1_innerShadow_6123_38210"/>
        </filter>
        <filter id="filter5_i_6123_38210" x="457" y="107" width="32" height="54" filterUnits="userSpaceOnUse" color-interpolation-filters="sRGB">
            <feFlood flood-opacity="0" result="BackgroundImageFix"/>
            <feBlend mode="normal" in="SourceGraphic" in2="BackgroundImageFix" result="shape"/>
            <feColorMatrix in="SourceAlpha" type="matrix" values="0 0 0 0 0 0 0 0 0 0 0 0 0 0 0 0 0 0 127 0" result="hardAlpha"/>
            <feOffset dx="-8" dy="-4"/>
            <feComposite in2="hardAlpha" operator="arithmetic" k2="-1" k3="1"/>
            <feColorMatrix type="matrix" values="0 0 0 0 0.0666667 0 0 0 0 0.0196078 0 0 0 0 0.160784 0 0 0 0.16 0"/>
            <feBlend mode="normal" in2="shape" result="effect1_innerShadow_6123_38210"/>
        </filter>
        <filter id="filter6_i_6123_38210" x="523" y="107" width="32" height="54" filterUnits="userSpaceOnUse" color-interpolation-filters="sRGB">
            <feFlood flood-opacity="0" result="BackgroundImageFix"/>
            <feBlend mode="normal" in="SourceGraphic" in2="BackgroundImageFix" result="shape"/>
            <feColorMatrix in="SourceAlpha" type="matrix" values="0 0 0 0 0 0 0 0 0 0 0 0 0 0 0 0 0 0 127 0" result="hardAlpha"/>
            <feOffset dx="-8" dy="-4"/>
            <feComposite in2="hardAlpha" operator="arithmetic" k2="-1" k3="1"/>
            <feColorMatrix type="matrix" values="0 0 0 0 0.0666667 0 0 0 0 0.0196078 0 0 0 0 0.160784 0 0 0 0.16 0"/>
            <feBlend mode="normal" in2="shape" result="effect1_innerShadow_6123_38210"/>
        </filter>
        <filter id="filter7_i_6123_38210" x="487" y="107" width="38" height="54" filterUnits="userSpaceOnUse" color-interpolation-filters="sRGB">
            <feFlood flood-opacity="0" result="BackgroundImageFix"/>
            <feBlend mode="normal" in="SourceGraphic" in2="BackgroundImageFix" result="shape"/>
            <feColorMatrix in="SourceAlpha" type="matrix" values="0 0 0 0 0 0 0 0 0 0 0 0 0 0 0 0 0 0 127 0" result="hardAlpha"/>
            <feOffset dx="-8" dy="-4"/>
            <feComposite in2="hardAlpha" operator="arithmetic" k2="-1" k3="1"/>
            <feColorMatrix type="matrix" values="0 0 0 0 0.0666667 0 0 0 0 0.0196078 0 0 0 0 0.160784 0 0 0 0.16 0"/>
            <feBlend mode="normal" in2="shape" result="effect1_innerShadow_6123_38210"/>
        </filter>
        <filter id="filter8_i_6123_38210" x="553" y="107" width="146" height="54" filterUnits="userSpaceOnUse" color-interpolation-filters="sRGB">
            <feFlood flood-opacity="0" result="BackgroundImageFix"/>
            <feBlend mode="normal" in="SourceGraphic" in2="BackgroundImageFix" result="shape"/>
            <feColorMatrix in="SourceAlpha" type="matrix" values="0 0 0 0 0 0 0 0 0 0 0 0 0 0 0 0 0 0 127 0" result="hardAlpha"/>
            <feOffset dx="-8" dy="-4"/>
            <feComposite in2="hardAlpha" operator="arithmetic" k2="-1" k3="1"/>
            <feColorMatrix type="matrix" values="0 0 0 0 0.0666667 0 0 0 0 0.0196078 0 0 0 0 0.160784 0 0 0 0.16 0"/>
            <feBlend mode="normal" in2="shape" result="effect1_innerShadow_6123_38210"/>
        </filter>
        <filter id="filter9_i_6123_38210" x="697" y="107" width="130" height="54" filterUnits="userSpaceOnUse" color-interpolation-filters="sRGB">
            <feFlood flood-opacity="0" result="BackgroundImageFix"/>
            <feBlend mode="normal" in="SourceGraphic" in2="BackgroundImageFix" result="shape"/>
            <feColorMatrix in="SourceAlpha" type="matrix" values="0 0 0 0 0 0 0 0 0 0 0 0 0 0 0 0 0 0 127 0" result="hardAlpha"/>
            <feOffset dx="-8" dy="-4"/>
            <feComposite in2="hardAlpha" operator="arithmetic" k2="-1" k3="1"/>
            <feColorMatrix type="matrix" values="0 0 0 0 0.0666667 0 0 0 0 0.0196078 0 0 0 0 0.160784 0 0 0 0.16 0"/>
            <feBlend mode="normal" in2="shape" result="effect1_innerShadow_6123_38210"/>
        </filter>
        <filter id="filter10_i_6123_38210" x="825" y="107" width="58" height="54" filterUnits="userSpaceOnUse" color-interpolation-filters="sRGB">
            <feFlood flood-opacity="0" result="BackgroundImageFix"/>
            <feBlend mode="normal" in="SourceGraphic" in2="BackgroundImageFix" result="shape"/>
            <feColorMatrix in="SourceAlpha" type="matrix" values="0 0 0 0 0 0 0 0 0 0 0 0 0 0 0 0 0 0 127 0" result="hardAlpha"/>
            <feOffset dx="-8" dy="-4"/>
            <feComposite in2="hardAlpha" operator="arithmetic" k2="-1" k3="1"/>
            <feColorMatrix type="matrix" values="0 0 0 0 0.0666667 0 0 0 0 0.0196078 0 0 0 0 0.160784 0 0 0 0.16 0"/>
            <feBlend mode="normal" in2="shape" result="effect1_innerShadow_6123_38210"/>
        </filter>
        <filter id="filter11_i_6123_38210" x="881" y="107" width="32" height="54" filterUnits="userSpaceOnUse" color-interpolation-filters="sRGB">
            <feFlood flood-opacity="0" result="BackgroundImageFix"/>
            <feBlend mode="normal" in="SourceGraphic" in2="BackgroundImageFix" result="shape"/>
            <feColorMatrix in="SourceAlpha" type="matrix" values="0 0 0 0 0 0 0 0 0 0 0 0 0 0 0 0 0 0 127 0" result="hardAlpha"/>
            <feOffset dx="-8" dy="-4"/>
            <feComposite in2="hardAlpha" operator="arithmetic" k2="-1" k3="1"/>
            <feColorMatrix type="matrix" values="0 0 0 0 0.0666667 0 0 0 0 0.0196078 0 0 0 0 0.160784 0 0 0 0.16 0"/>
            <feBlend mode="normal" in2="shape" result="effect1_innerShadow_6123_38210"/>
        </filter>
        <filter id="filter12_i_6123_38210" x="95" y="267" width="32" height="54" filterUnits="userSpaceOnUse" color-interpolation-filters="sRGB">
            <feFlood flood-opacity="0" result="BackgroundImageFix"/>
            <feBlend mode="normal" in="SourceGraphic" in2="BackgroundImageFix" result="shape"/>
            <feColorMatrix in="SourceAlpha" type="matrix" values="0 0 0 0 0 0 0 0 0 0 0 0 0 0 0 0 0 0 127 0" result="hardAlpha"/>
            <feOffset dx="-8" dy="-4"/>
            <feComposite in2="hardAlpha" operator="arithmetic" k2="-1" k3="1"/>
            <feColorMatrix type="matrix" values="0 0 0 0 0.0666667 0 0 0 0 0.0196078 0 0 0 0 0.160784 0 0 0 0.16 0"/>
            <feBlend mode="normal" in2="shape" result="effect1_innerShadow_6123_38210"/>
        </filter>
        <filter id="filter13_i_6123_38210" x="125" y="267" width="58" height="54" filterUnits="userSpaceOnUse" color-interpolation-filters="sRGB">
            <feFlood flood-opacity="0" result="BackgroundImageFix"/>
            <feBlend mode="normal" in="SourceGraphic" in2="BackgroundImageFix" result="shape"/>
            <feColorMatrix in="SourceAlpha" type="matrix" values="0 0 0 0 0 0 0 0 0 0 0 0 0 0 0 0 0 0 127 0" result="hardAlpha"/>
            <feOffset dx="-8" dy="-4"/>
            <feComposite in2="hardAlpha" operator="arithmetic" k2="-1" k3="1"/>
            <feColorMatrix type="matrix" values="0 0 0 0 0.0666667 0 0 0 0 0.0196078 0 0 0 0 0.160784 0 0 0 0.16 0"/>
            <feBlend mode="normal" in2="shape" result="effect1_innerShadow_6123_38210"/>
        </filter>
        <filter id="filter14_i_6123_38210" x="181" y="267" width="22" height="54" filterUnits="userSpaceOnUse" color-interpolation-filters="sRGB">
            <feFlood flood-opacity="0" result="BackgroundImageFix"/>
            <feBlend mode="normal" in="SourceGraphic" in2="BackgroundImageFix" result="shape"/>
            <feColorMatrix in="SourceAlpha" type="matrix" values="0 0 0 0 0 0 0 0 0 0 0 0 0 0 0 0 0 0 127 0" result="hardAlpha"/>
            <feOffset dx="-8" dy="-4"/>
            <feComposite in2="hardAlpha" operator="arithmetic" k2="-1" k3="1"/>
            <feColorMatrix type="matrix" values="0 0 0 0 0.0666667 0 0 0 0 0.0196078 0 0 0 0 0.160784 0 0 0 0.16 0"/>
            <feBlend mode="normal" in2="shape" result="effect1_innerShadow_6123_38210"/>
        </filter>
        <filter id="filter15_i_6123_38210" x="201" y="267" width="58" height="54" filterUnits="userSpaceOnUse" color-interpolation-filters="sRGB">
            <feFlood flood-opacity="0" result="BackgroundImageFix"/>
            <feBlend mode="normal" in="SourceGraphic" in2="BackgroundImageFix" result="shape"/>
            <feColorMatrix in="SourceAlpha" type="matrix" values="0 0 0 0 0 0 0 0 0 0 0 0 0 0 0 0 0 0 127 0" result="hardAlpha"/>
            <feOffset dx="-8" dy="-4"/>
            <feComposite in2="hardAlpha" operator="arithmetic" k2="-1" k3="1"/>
            <feColorMatrix type="matrix" values="0 0 0 0 0.0666667 0 0 0 0 0.0196078 0 0 0 0 0.160784 0 0 0 0.16 0"/>
            <feBlend mode="normal" in2="shape" result="effect1_innerShadow_6123_38210"/>
        </filter>
        <filter id="filter16_i_6123_38210" x="257" y="267" width="202" height="54" filterUnits="userSpaceOnUse" color-interpolation-filters="sRGB">
            <feFlood flood-opacity="0" result="BackgroundImageFix"/>
            <feBlend mode="normal" in="SourceGraphic" in2="BackgroundImageFix" result="shape"/>
            <feColorMatrix in="SourceAlpha" type="matrix" values="0 0 0 0 0 0 0 0 0 0 0 0 0 0 0 0 0 0 127 0" result="hardAlpha"/>
            <feOffset dx="-8" dy="-4"/>
            <feComposite in2="hardAlpha" operator="arithmetic" k2="-1" k3="1"/>
            <feColorMatrix type="matrix" values="0 0 0 0 0.0666667 0 0 0 0 0.0196078 0 0 0 0 0.160784 0 0 0 0.16 0"/>
            <feBlend mode="normal" in2="shape" result="effect1_innerShadow_6123_38210"/>
        </filter>
        <filter id="filter17_i_6123_38210" x="457" y="267" width="32" height="54" filterUnits="userSpaceOnUse" color-interpolation-filters="sRGB">
            <feFlood flood-opacity="0" result="BackgroundImageFix"/>
            <feBlend mode="normal" in="SourceGraphic" in2="BackgroundImageFix" result="shape"/>
            <feColorMatrix in="SourceAlpha" type="matrix" values="0 0 0 0 0 0 0 0 0 0 0 0 0 0 0 0 0 0 127 0" result="hardAlpha"/>
            <feOffset dx="-8" dy="-4"/>
            <feComposite in2="hardAlpha" operator="arithmetic" k2="-1" k3="1"/>
            <feColorMatrix type="matrix" values="0 0 0 0 0.0666667 0 0 0 0 0.0196078 0 0 0 0 0.160784 0 0 0 0.16 0"/>
            <feBlend mode="normal" in2="shape" result="effect1_innerShadow_6123_38210"/>
        </filter>
        <filter id="filter18_i_6123_38210" x="487" y="267" width="146" height="54" filterUnits="userSpaceOnUse" color-interpolation-filters="sRGB">
            <feFlood flood-opacity="0" result="BackgroundImageFix"/>
            <feBlend mode="normal" in="SourceGraphic" in2="BackgroundImageFix" result="shape"/>
            <feColorMatrix in="SourceAlpha" type="matrix" values="0 0 0 0 0 0 0 0 0 0 0 0 0 0 0 0 0 0 127 0" result="hardAlpha"/>
            <feOffset dx="-8" dy="-4"/>
            <feComposite in2="hardAlpha" operator="arithmetic" k2="-1" k3="1"/>
            <feColorMatrix type="matrix" values="0 0 0 0 0.0666667 0 0 0 0 0.0196078 0 0 0 0 0.160784 0 0 0 0.16 0"/>
            <feBlend mode="normal" in2="shape" result="effect1_innerShadow_6123_38210"/>
        </filter>
        <filter id="filter19_i_6123_38210" x="631" y="267" width="130" height="54" filterUnits="userSpaceOnUse" color-interpolation-filters="sRGB">
            <feFlood flood-opacity="0" result="BackgroundImageFix"/>
            <feBlend mode="normal" in="SourceGraphic" in2="BackgroundImageFix" result="shape"/>
            <feColorMatrix in="SourceAlpha" type="matrix" values="0 0 0 0 0 0 0 0 0 0 0 0 0 0 0 0 0 0 127 0" result="hardAlpha"/>
            <feOffset dx="-8" dy="-4"/>
            <feComposite in2="hardAlpha" operator="arithmetic" k2="-1" k3="1"/>
            <feColorMatrix type="matrix" values="0 0 0 0 0.0666667 0 0 0 0 0.0196078 0 0 0 0 0.160784 0 0 0 0.16 0"/>
            <feBlend mode="normal" in2="shape" result="effect1_innerShadow_6123_38210"/>
        </filter>
        <filter id="filter20_i_6123_38210" x="759" y="267" width="58" height="54" filterUnits="userSpaceOnUse" color-interpolation-filters="sRGB">
            <feFlood flood-opacity="0" result="BackgroundImageFix"/>
            <feBlend mode="normal" in="SourceGraphic" in2="BackgroundImageFix" result="shape"/>
            <feColorMatrix in="SourceAlpha" type="matrix" values="0 0 0 0 0 0 0 0 0 0 0 0 0 0 0 0 0 0 127 0" result="hardAlpha"/>
            <feOffset dx="-8" dy="-4"/>
            <feComposite in2="hardAlpha" operator="arithmetic" k2="-1" k3="1"/>
            <feColorMatrix type="matrix" values="0 0 0 0 0.0666667 0 0 0 0 0.0196078 0 0 0 0 0.160784 0 0 0 0.16 0"/>
            <feBlend mode="normal" in2="shape" result="effect1_innerShadow_6123_38210"/>
        </filter>
        <filter id="filter21_i_6123_38210" x="815" y="267" width="32" height="54" filterUnits="userSpaceOnUse" color-interpolation-filters="sRGB">
            <feFlood flood-opacity="0" result="BackgroundImageFix"/>
            <feBlend mode="normal" in="SourceGraphic" in2="BackgroundImageFix" result="shape"/>
            <feColorMatrix in="SourceAlpha" type="matrix" values="0 0 0 0 0 0 0 0 0 0 0 0 0 0 0 0 0 0 127 0" result="hardAlpha"/>
            <feOffset dx="-8" dy="-4"/>
            <feComposite in2="hardAlpha" operator="arithmetic" k2="-1" k3="1"/>
            <feColorMatrix type="matrix" values="0 0 0 0 0.0666667 0 0 0 0 0.0196078 0 0 0 0 0.160784 0 0 0 0.16 0"/>
            <feBlend mode="normal" in2="shape" result="effect1_innerShadow_6123_38210"/>
        </filter>
    </defs>
</svg>
