<svg width="960" height="404" viewBox="0 0 960 404" fill="none" xmlns="http://www.w3.org/2000/svg">
    <rect width="960" height="404" fill="white"/>
    <path d="M442 112V24" stroke="#D3D7E0" stroke-width="2" stroke-linecap="square" stroke-dasharray="6 6"/>
    <path d="M336.805 37H338.268V32.695H341.936V31.225H338.268V28.383H342.776V26.92H336.805V37ZM344.038 37H345.501V33.381H348.175L349.932 37H351.605L349.701 33.094C350.842 32.597 351.416 31.491 351.416 30.147C351.416 28.516 350.576 27.235 348.889 26.976C348.623 26.934 348.308 26.92 348.112 26.92H344.038V37ZM345.501 31.995V28.299H348.056C348.238 28.299 348.483 28.313 348.693 28.369C349.589 28.579 349.925 29.405 349.925 30.147C349.925 30.889 349.589 31.715 348.693 31.932C348.483 31.981 348.238 31.995 348.056 31.995H345.501ZM355.964 37.189C357.847 37.189 359.331 35.796 359.331 33.871C359.331 32.233 358.323 30.924 356.692 30.707L359.184 28.313V26.92H353.122V28.313H357.392L354.312 31.036L354.998 32.191C355.285 32.037 355.628 31.939 355.95 31.939C357.07 31.939 357.833 32.751 357.833 33.871C357.833 34.984 357.07 35.789 355.964 35.803C355.138 35.81 354.403 35.341 354.137 34.466L352.723 34.858C353.15 36.293 354.466 37.189 355.964 37.189Z" fill="#D3D7E0"/>
    <path d="M492.682 37.21C495.006 37.21 496.567 35.943 497.162 33.955L495.678 33.556C495.279 34.963 494.278 35.817 492.682 35.817C490.54 35.817 489.448 34.27 489.462 31.96C489.469 29.65 490.54 28.103 492.682 28.103C494.278 28.103 495.279 28.957 495.678 30.364L497.162 29.965C496.567 27.977 495.006 26.71 492.682 26.71C489.658 26.71 487.915 28.845 487.915 31.96C487.915 35.075 489.658 37.21 492.682 37.21ZM498.702 37H501.859C502.041 37 502.643 37 503.112 36.937C505.478 36.636 506.738 34.529 506.738 31.96C506.738 29.391 505.478 27.284 503.112 26.983C502.643 26.92 502.041 26.92 501.859 26.92H498.702V37ZM500.2 35.607V28.313H501.859C502.167 28.313 502.671 28.32 503.007 28.383C504.519 28.663 505.184 30.189 505.184 31.96C505.184 33.689 504.547 35.243 503.007 35.537C502.671 35.6 502.181 35.607 501.859 35.607H500.2ZM508.368 37H509.831V33.381H512.505L514.262 37H515.935L514.031 33.094C515.172 32.597 515.746 31.491 515.746 30.147C515.746 28.516 514.906 27.235 513.219 26.976C512.953 26.934 512.638 26.92 512.442 26.92H508.368V37ZM509.831 31.995V28.299H512.386C512.568 28.299 512.813 28.313 513.023 28.369C513.919 28.579 514.255 29.405 514.255 30.147C514.255 30.889 513.919 31.715 513.023 31.932C512.813 31.981 512.568 31.995 512.386 31.995H509.831ZM520.294 37.189C522.177 37.189 523.661 35.796 523.661 33.871C523.661 32.233 522.653 30.924 521.022 30.707L523.514 28.313V26.92H517.452V28.313H521.722L518.642 31.036L519.328 32.191C519.615 32.037 519.958 31.939 520.28 31.939C521.4 31.939 522.163 32.751 522.163 33.871C522.163 34.984 521.4 35.789 520.294 35.803C519.468 35.81 518.733 35.341 518.467 34.466L517.053 34.858C517.48 36.293 518.796 37.189 520.294 37.189Z" fill="#D3D7E0"/>
    <path d="M570 112V24" stroke="#D3D7E0" stroke-width="2" stroke-linecap="square" stroke-dasharray="6 6"/>
    <path d="M622.593 37H624.056V32.695H627.724V31.225H624.056V28.383H628.564V26.92H622.593V37ZM629.826 37H631.289V33.381H633.963L635.72 37H637.393L635.489 33.094C636.63 32.597 637.204 31.491 637.204 30.147C637.204 28.516 636.364 27.235 634.677 26.976C634.411 26.934 634.096 26.92 633.9 26.92H629.826V37ZM631.289 31.995V28.299H633.844C634.026 28.299 634.271 28.313 634.481 28.369C635.377 28.579 635.713 29.405 635.713 30.147C635.713 30.889 635.377 31.715 634.481 31.932C634.271 31.981 634.026 31.995 633.844 31.995H631.289ZM643.201 37H644.685V35.243H645.686V33.857H644.685V31.127H643.201V33.857H640.324L643.6 26.92H641.927L638.651 33.857V35.243H643.201V37Z" fill="#D3D7E0"/>
    <path d="M698 112V24" stroke="#D3D7E0" stroke-width="2" stroke-linecap="square" stroke-dasharray="6 6"/>
    <g filter="url(#filter0_i_6123_37490)">
        <rect x="96" y="108" width="30" height="52" rx="1" fill="#90E0E0"/>
    </g>
    <rect x="96" y="108" width="30" height="52" rx="1" stroke="#110529" stroke-width="2" stroke-linecap="round"/>
    <path d="M105.447 142H107.247V130.74L114.757 142H116.557V127.6H114.757V138.85L107.247 127.6H105.447V142Z" fill="#110529"/>
    <g filter="url(#filter1_i_6123_37490)">
        <rect x="126" y="108" width="56" height="52" rx="1" fill="#F0F0F0"/>
        <path d="M131.338 142H133.118V136.68H137.028C137.298 136.68 137.718 136.66 138.088 136.6C140.408 136.24 141.648 134.43 141.648 132.14C141.648 129.85 140.418 128.04 138.088 127.68C137.718 127.62 137.308 127.6 137.028 127.6H131.338V142ZM133.118 134.99V129.29H136.968C137.218 129.29 137.568 129.31 137.868 129.38C139.248 129.69 139.828 130.94 139.828 132.14C139.828 133.34 139.248 134.59 137.868 134.9C137.568 134.97 137.218 134.99 136.968 134.99H133.118ZM143.842 142H145.622V127.6H143.842V142ZM151.693 142.3C153.493 142.3 154.833 141.64 155.693 140.32V142H157.273V135.32C157.273 134.47 157.223 133.68 156.923 133.01C156.303 131.6 154.833 130.9 152.883 130.9C150.443 130.9 148.933 132.05 148.423 133.94L150.113 134.45C150.503 133.13 151.553 132.56 152.863 132.56C154.733 132.56 155.473 133.38 155.523 135.1C153.923 135.32 152.023 135.55 150.673 135.91C149.033 136.39 148.023 137.38 148.023 139.08C148.023 140.82 149.273 142.3 151.693 142.3ZM149.793 139.07C149.793 138.06 150.583 137.57 151.473 137.29C152.523 136.99 153.983 136.82 155.503 136.62C155.493 137.11 155.473 137.8 155.323 138.32C155.063 139.66 153.883 140.81 151.963 140.81C150.423 140.81 149.793 139.96 149.793 139.07ZM165.903 142V140.47C164.423 140.7 163.343 140.64 162.863 139.78C162.603 139.33 162.643 138.73 162.643 137.84V132.67H165.903V131.2H162.643V128.2H160.863V131.2H158.673V132.67H160.863V137.92C160.863 139.04 160.803 139.86 161.233 140.7C161.983 142.17 163.973 142.39 165.903 142ZM172.326 142.3C174.416 142.3 176.206 141.21 177.056 139.3L175.346 138.71C174.746 139.94 173.666 140.61 172.246 140.61C170.256 140.61 169.096 139.34 168.956 137.1H177.236C177.396 133.26 175.496 130.9 172.246 130.9C169.106 130.9 167.046 133.13 167.046 136.67C167.046 140.05 169.136 142.3 172.326 142.3ZM168.986 135.67C169.236 133.62 170.366 132.5 172.306 132.5C174.136 132.5 175.166 133.55 175.386 135.67H168.986Z" fill="#110529"/>
        <rect x="126" y="108" width="56" height="52" rx="1" stroke="#110529" stroke-width="2" stroke-linecap="round"/>
    </g>
    <g filter="url(#filter2_i_6123_37490)">
        <rect x="182" y="108" width="20" height="52" rx="1" fill="#99CCFF"/>
        <rect x="182" y="108" width="20" height="52" rx="1" stroke="#110529" stroke-width="2" stroke-linecap="round"/>
    </g>
    <g filter="url(#filter3_i_6123_37490)">
        <rect x="202" y="108" width="56" height="52" rx="1" fill="#F0F0F0"/>
        <path d="M211.39 142H213.17V136.68H217.38L219.96 142H222L219.22 136.29C220.85 135.61 221.7 134.04 221.7 132.14C221.7 129.85 220.47 128.04 218.14 127.68C217.77 127.62 217.36 127.6 217.08 127.6H211.39V142ZM213.17 134.99V129.29H217.02C217.27 129.29 217.62 129.31 217.92 129.38C219.3 129.69 219.88 130.94 219.88 132.14C219.88 133.34 219.3 134.59 217.92 134.9C217.62 134.97 217.27 134.99 217.02 134.99H213.17ZM228.803 142.3C232.013 142.3 234.013 139.98 234.013 136.59C234.013 133.25 232.043 130.9 228.803 130.9C225.633 130.9 223.603 133.2 223.603 136.59C223.603 139.94 225.573 142.3 228.803 142.3ZM225.493 136.59C225.493 134.23 226.543 132.59 228.803 132.59C231.013 132.59 232.123 134.16 232.123 136.59C232.123 138.97 231.033 140.61 228.803 140.61C226.623 140.61 225.493 139.03 225.493 136.59ZM238.124 142H239.604L242.214 133.79L244.824 142H246.304L249.604 131.2H247.844L245.424 139.1L243.004 131.2H241.434L239.004 139.1L236.594 131.2L234.824 131.19L238.124 142Z" fill="#110529"/>
        <rect x="202" y="108" width="56" height="52" rx="1" stroke="#110529" stroke-width="2" stroke-linecap="round"/>
    </g>
    <g filter="url(#filter4_i_6123_37490)">
        <path d="M258 109.6C258 109.04 258 108.76 258.109 108.546C258.205 108.358 258.358 108.205 258.546 108.109C258.76 108 259.04 108 259.6 108H456.4C456.96 108 457.24 108 457.454 108.109C457.642 108.205 457.795 108.358 457.891 108.546C458 108.76 458 109.04 458 109.6V158.4C458 158.96 458 159.24 457.891 159.454C457.795 159.642 457.642 159.795 457.454 159.891C457.24 160 456.96 160 456.4 160H259.6C259.04 160 258.76 160 258.546 159.891C258.358 159.795 258.205 159.642 258.109 159.454C258 159.24 258 158.96 258 158.4V153.5V147V140V134V127.5V121V114.5V109.6Z" fill="#99E099"/>
    </g>
    <path d="M258 109.6C258 109.04 258 108.76 258.109 108.546C258.205 108.358 258.358 108.205 258.546 108.109C258.76 108 259.04 108 259.6 108H456.4C456.96 108 457.24 108 457.454 108.109C457.642 108.205 457.795 108.358 457.891 108.546C458 108.76 458 109.04 458 109.6V158.4C458 158.96 458 159.24 457.891 159.454C457.795 159.642 457.642 159.795 457.454 159.891C457.24 160 456.96 160 456.4 160H259.6C259.04 160 258.76 160 258.546 159.891C258.358 159.795 258.205 159.642 258.109 159.454C258 159.24 258 158.96 258 158.4V153.5V147V140V134V127.5V121V114.5V109.6Z" stroke="#110529" stroke-width="2" stroke-linecap="round"/>
    <path d="M357.258 142H359.738L364.558 127.6H362.708L358.478 140.11L354.288 127.6H352.438L357.258 142Z" fill="#110529"/>
    <g filter="url(#filter5_i_6123_37490)">
        <rect x="458" y="108" width="30" height="52" rx="1" fill="#CBEB67"/>
    </g>
    <rect x="458" y="108" width="30" height="52" rx="1" stroke="#110529" stroke-width="2" stroke-linecap="round"/>
    <g filter="url(#filter6_i_6123_37490)">
        <rect x="524" y="108" width="30" height="52" rx="1" fill="#FAAAFA"/>
    </g>
    <rect x="524" y="108" width="30" height="52" rx="1" stroke="#110529" stroke-width="2" stroke-linecap="round"/>
    <g filter="url(#filter7_i_6123_37490)">
        <rect x="488" y="108" width="36" height="52" rx="1" fill="#FFCB8F"/>
    </g>
    <rect x="488" y="108" width="36" height="52" rx="1" stroke="#110529" stroke-width="2" stroke-linecap="round"/>
    <path d="M467.447 142V127.6H469.247L476.757 138.85V127.6H478.557V142H476.757L469.247 130.74V142H467.447Z" fill="#110529"/>
    <path d="M533.447 142V127.6H535.247L542.757 138.85V127.6H544.557V142H542.757L535.247 130.74V142H533.447Z" fill="#110529"/>
    <path d="M500.593 142V127.6H505.033C505.18 127.6 505.437 127.603 505.803 127.61C506.17 127.617 506.52 127.643 506.853 127.69C507.967 127.837 508.897 128.243 509.643 128.91C510.397 129.57 510.963 130.41 511.343 131.43C511.723 132.45 511.913 133.573 511.913 134.8C511.913 136.027 511.723 137.15 511.343 138.17C510.963 139.19 510.397 140.033 509.643 140.7C508.897 141.36 507.967 141.763 506.853 141.91C506.52 141.95 506.167 141.977 505.793 141.99C505.427 141.997 505.173 142 505.033 142H500.593ZM502.423 140.3H505.033C505.287 140.3 505.57 140.293 505.883 140.28C506.197 140.26 506.47 140.23 506.703 140.19C507.49 140.043 508.127 139.713 508.613 139.2C509.1 138.687 509.457 138.047 509.683 137.28C509.91 136.513 510.023 135.687 510.023 134.8C510.023 133.893 509.907 133.057 509.673 132.29C509.447 131.523 509.09 130.887 508.603 130.38C508.117 129.873 507.483 129.55 506.703 129.41C506.47 129.363 506.193 129.333 505.873 129.32C505.553 129.307 505.273 129.3 505.033 129.3H502.423V140.3Z" fill="#110529"/>
    <g filter="url(#filter8_i_6123_37490)">
        <rect x="554" y="108" width="144" height="52" rx="1" fill="#C1ADFF"/>
        <path d="M625.244 142.29C626.694 142.29 627.954 141.7 628.684 140.43C629.214 139.51 629.154 138.72 629.154 137.48V127.6H627.354V137.48C627.354 138.37 627.354 138.99 627.094 139.51C626.704 140.29 625.884 140.6 625.204 140.6C624.134 140.6 623.224 139.83 623.014 138.85L621.244 139.27C621.754 141.11 623.224 142.29 625.244 142.29Z" fill="#110529"/>
        <rect x="554" y="108" width="144" height="52" rx="1" stroke="#110529" stroke-width="2" stroke-linecap="round"/>
    </g>
    <g filter="url(#filter9_i_6123_37490)">
        <rect x="698" y="108" width="128" height="52" rx="1" fill="#FAFAAA"/>
        <path d="M762.093 142.3C765.423 142.3 767.613 140.47 768.433 137.61L766.623 137.13C766.033 139.27 764.523 140.6 762.093 140.6C758.873 140.6 757.233 138.25 757.253 134.8C757.273 131.35 758.873 129 762.093 129C764.523 129 766.033 130.33 766.623 132.47L768.433 131.99C767.613 129.13 765.423 127.3 762.093 127.3C757.783 127.3 755.373 130.36 755.373 134.8C755.373 139.24 757.783 142.3 762.093 142.3Z" fill="#110529"/>
        <rect x="698" y="108" width="128" height="52" rx="1" stroke="#110529" stroke-width="2" stroke-linecap="round"/>
    </g>
    <g filter="url(#filter10_i_6123_37490)">
        <rect x="826" y="108" width="56" height="52" rx="1" fill="#F0F0F0"/>
        <path d="M842.902 142.3C846.232 142.3 848.422 140.47 849.242 137.61L847.432 137.13C846.842 139.27 845.332 140.6 842.902 140.6C839.682 140.6 838.042 138.25 838.062 134.8C838.082 131.35 839.682 129 842.902 129C845.332 129 846.842 130.33 847.432 132.47L849.242 131.99C848.422 129.13 846.232 127.3 842.902 127.3C838.592 127.3 836.182 130.36 836.182 134.8C836.182 139.24 838.592 142.3 842.902 142.3ZM856.035 142.3C859.245 142.3 861.245 139.98 861.245 136.59C861.245 133.25 859.275 130.9 856.035 130.9C852.865 130.9 850.835 133.2 850.835 136.59C850.835 139.94 852.805 142.3 856.035 142.3ZM852.725 136.59C852.725 134.23 853.775 132.59 856.035 132.59C858.245 132.59 859.355 134.16 859.355 136.59C859.355 138.97 858.265 140.61 856.035 140.61C853.855 140.61 852.725 139.03 852.725 136.59ZM863.647 142H865.427V127.6H863.647V142ZM868.747 142H870.707V140.04H868.747V142Z" fill="#110529"/>
        <rect x="826" y="108" width="56" height="52" rx="1" stroke="#110529" stroke-width="2" stroke-linecap="round"/>
    </g>
    <g filter="url(#filter11_i_6123_37490)">
        <rect x="882" y="108" width="30" height="52" rx="1" fill="#90E0E0"/>
    </g>
    <rect x="882" y="108" width="30" height="52" rx="1" stroke="#110529" stroke-width="2" stroke-linecap="round"/>
    <path d="M891.447 142H893.247V130.74L900.757 142H902.557V127.6H900.757V138.85L893.247 127.6H891.447V142Z" fill="#110529"/>
    <g filter="url(#filter12_i_6123_37490)">
        <rect x="96" y="268" width="30" height="52" rx="1" fill="#90E0E0"/>
    </g>
    <rect x="96" y="268" width="30" height="52" rx="1" stroke="#110529" stroke-width="2" stroke-linecap="round"/>
    <path d="M105.447 302H107.247V290.74L114.757 302H116.557V287.6H114.757V298.85L107.247 287.6H105.447V302Z" fill="#110529"/>
    <g filter="url(#filter13_i_6123_37490)">
        <rect x="126" y="268" width="56" height="52" rx="1" fill="#F0F0F0"/>
        <path d="M131.338 302H133.118V296.68H137.028C137.298 296.68 137.718 296.66 138.088 296.6C140.408 296.24 141.648 294.43 141.648 292.14C141.648 289.85 140.418 288.04 138.088 287.68C137.718 287.62 137.308 287.6 137.028 287.6H131.338V302ZM133.118 294.99V289.29H136.968C137.218 289.29 137.568 289.31 137.868 289.38C139.248 289.69 139.828 290.94 139.828 292.14C139.828 293.34 139.248 294.59 137.868 294.9C137.568 294.97 137.218 294.99 136.968 294.99H133.118ZM143.842 302H145.622V287.6H143.842V302ZM151.693 302.3C153.493 302.3 154.833 301.64 155.693 300.32V302H157.273V295.32C157.273 294.47 157.223 293.68 156.923 293.01C156.303 291.6 154.833 290.9 152.883 290.9C150.443 290.9 148.933 292.05 148.423 293.94L150.113 294.45C150.503 293.13 151.553 292.56 152.863 292.56C154.733 292.56 155.473 293.38 155.523 295.1C153.923 295.32 152.023 295.55 150.673 295.91C149.033 296.39 148.023 297.38 148.023 299.08C148.023 300.82 149.273 302.3 151.693 302.3ZM149.793 299.07C149.793 298.06 150.583 297.57 151.473 297.29C152.523 296.99 153.983 296.82 155.503 296.62C155.493 297.11 155.473 297.8 155.323 298.32C155.063 299.66 153.883 300.81 151.963 300.81C150.423 300.81 149.793 299.96 149.793 299.07ZM165.903 302V300.47C164.423 300.7 163.343 300.64 162.863 299.78C162.603 299.33 162.643 298.73 162.643 297.84V292.67H165.903V291.2H162.643V288.2H160.863V291.2H158.673V292.67H160.863V297.92C160.863 299.04 160.803 299.86 161.233 300.7C161.983 302.17 163.973 302.39 165.903 302ZM172.326 302.3C174.416 302.3 176.206 301.21 177.056 299.3L175.346 298.71C174.746 299.94 173.666 300.61 172.246 300.61C170.256 300.61 169.096 299.34 168.956 297.1H177.236C177.396 293.26 175.496 290.9 172.246 290.9C169.106 290.9 167.046 293.13 167.046 296.67C167.046 300.05 169.136 302.3 172.326 302.3ZM168.986 295.67C169.236 293.62 170.366 292.5 172.306 292.5C174.136 292.5 175.166 293.55 175.386 295.67H168.986Z" fill="#110529"/>
        <rect x="126" y="268" width="56" height="52" rx="1" stroke="#110529" stroke-width="2" stroke-linecap="round"/>
    </g>
    <g filter="url(#filter14_i_6123_37490)">
        <rect x="182" y="268" width="20" height="52" rx="1" fill="#99CCFF"/>
        <rect x="182" y="268" width="20" height="52" rx="1" stroke="#110529" stroke-width="2" stroke-linecap="round"/>
    </g>
    <g filter="url(#filter15_i_6123_37490)">
        <rect x="202" y="268" width="56" height="52" rx="1" fill="#F0F0F0"/>
        <path d="M211.39 302H213.17V296.68H217.38L219.96 302H222L219.22 296.29C220.85 295.61 221.7 294.04 221.7 292.14C221.7 289.85 220.47 288.04 218.14 287.68C217.77 287.62 217.36 287.6 217.08 287.6H211.39V302ZM213.17 294.99V289.29H217.02C217.27 289.29 217.62 289.31 217.92 289.38C219.3 289.69 219.88 290.94 219.88 292.14C219.88 293.34 219.3 294.59 217.92 294.9C217.62 294.97 217.27 294.99 217.02 294.99H213.17ZM228.803 302.3C232.013 302.3 234.013 299.98 234.013 296.59C234.013 293.25 232.043 290.9 228.803 290.9C225.633 290.9 223.603 293.2 223.603 296.59C223.603 299.94 225.573 302.3 228.803 302.3ZM225.493 296.59C225.493 294.23 226.543 292.59 228.803 292.59C231.013 292.59 232.123 294.16 232.123 296.59C232.123 298.97 231.033 300.61 228.803 300.61C226.623 300.61 225.493 299.03 225.493 296.59ZM238.124 302H239.604L242.214 293.79L244.824 302H246.304L249.604 291.2H247.844L245.424 299.1L243.004 291.2H241.434L239.004 299.1L236.594 291.2L234.824 291.19L238.124 302Z" fill="#110529"/>
        <rect x="202" y="268" width="56" height="52" rx="1" stroke="#110529" stroke-width="2" stroke-linecap="round"/>
    </g>
    <g filter="url(#filter16_i_6123_37490)">
        <path d="M258 269.6C258 269.04 258 268.76 258.109 268.546C258.205 268.358 258.358 268.205 258.546 268.109C258.76 268 259.04 268 259.6 268H456.4C456.96 268 457.24 268 457.454 268.109C457.642 268.205 457.795 268.358 457.891 268.546C458 268.76 458 269.04 458 269.6V318.4C458 318.96 458 319.24 457.891 319.454C457.795 319.642 457.642 319.795 457.454 319.891C457.24 320 456.96 320 456.4 320H259.6C259.04 320 258.76 320 258.546 319.891C258.358 319.795 258.205 319.642 258.109 319.454C258 319.24 258 318.96 258 318.4V313.5V307V300V294V287.5V281V274.5V269.6Z" fill="#99E099"/>
    </g>
    <path d="M258 269.6C258 269.04 258 268.76 258.109 268.546C258.205 268.358 258.358 268.205 258.546 268.109C258.76 268 259.04 268 259.6 268H456.4C456.96 268 457.24 268 457.454 268.109C457.642 268.205 457.795 268.358 457.891 268.546C458 268.76 458 269.04 458 269.6V318.4C458 318.96 458 319.24 457.891 319.454C457.795 319.642 457.642 319.795 457.454 319.891C457.24 320 456.96 320 456.4 320H259.6C259.04 320 258.76 320 258.546 319.891C258.358 319.795 258.205 319.642 258.109 319.454C258 319.24 258 318.96 258 318.4V313.5V307V300V294V287.5V281V274.5V269.6Z" stroke="#110529" stroke-width="2" stroke-linecap="round"/>
    <path d="M357.258 302H359.738L364.558 287.6H362.708L358.478 300.11L354.288 287.6H352.438L357.258 302Z" fill="#110529"/>
    <g filter="url(#filter17_i_6123_37490)">
        <rect x="458" y="268" width="30" height="52" rx="1" fill="#CBEB67"/>
    </g>
    <rect x="458" y="268" width="30" height="52" rx="1" stroke="#110529" stroke-width="2" stroke-linecap="round"/>
    <path d="M467.447 302H469.247V290.74L476.757 302H478.557V287.6H476.757V298.85L469.247 287.6H467.447V302Z" fill="#110529"/>
    <g filter="url(#filter18_i_6123_37490)">
        <rect x="488" y="268" width="144" height="52" rx="1" fill="#C1ADFF"/>
        <path d="M559.244 302.29C560.694 302.29 561.954 301.7 562.684 300.43C563.214 299.51 563.154 298.72 563.154 297.48V287.6H561.354V297.48C561.354 298.37 561.354 298.99 561.094 299.51C560.704 300.29 559.884 300.6 559.204 300.6C558.134 300.6 557.224 299.83 557.014 298.85L555.244 299.27C555.754 301.11 557.224 302.29 559.244 302.29Z" fill="#110529"/>
        <rect x="488" y="268" width="144" height="52" rx="1" stroke="#110529" stroke-width="2" stroke-linecap="round"/>
    </g>
    <g filter="url(#filter19_i_6123_37490)">
        <rect x="632" y="268" width="128" height="52" rx="1" fill="#FAFAAA"/>
        <path d="M696.093 302.3C699.423 302.3 701.613 300.47 702.433 297.61L700.623 297.13C700.033 299.27 698.523 300.6 696.093 300.6C692.873 300.6 691.233 298.25 691.253 294.8C691.273 291.35 692.873 289 696.093 289C698.523 289 700.033 290.33 700.623 292.47L702.433 291.99C701.613 289.13 699.423 287.3 696.093 287.3C691.783 287.3 689.373 290.36 689.373 294.8C689.373 299.24 691.783 302.3 696.093 302.3Z" fill="#110529"/>
        <rect x="632" y="268" width="128" height="52" rx="1" stroke="#110529" stroke-width="2" stroke-linecap="round"/>
    </g>
    <g filter="url(#filter20_i_6123_37490)">
        <rect x="760" y="268" width="56" height="52" rx="1" fill="#F0F0F0"/>
        <path d="M779.597 302.3C778.164 302.3 776.947 301.983 775.947 301.35C774.947 300.717 774.184 299.837 773.657 298.71C773.137 297.583 772.877 296.28 772.877 294.8C772.877 293.32 773.137 292.017 773.657 290.89C774.184 289.763 774.947 288.883 775.947 288.25C776.947 287.617 778.164 287.3 779.597 287.3C781.264 287.3 782.634 287.723 783.707 288.57C784.787 289.417 785.531 290.557 785.937 291.99L784.127 292.47C783.834 291.397 783.311 290.55 782.557 289.93C781.804 289.31 780.817 289 779.597 289C778.524 289 777.631 289.243 776.917 289.73C776.204 290.217 775.667 290.897 775.307 291.77C774.947 292.637 774.764 293.647 774.757 294.8C774.751 295.947 774.927 296.957 775.287 297.83C775.647 298.697 776.187 299.377 776.907 299.87C777.627 300.357 778.524 300.6 779.597 300.6C780.817 300.6 781.804 300.29 782.557 299.67C783.311 299.043 783.834 298.197 784.127 297.13L785.937 297.61C785.531 299.037 784.787 300.177 783.707 301.03C782.634 301.877 781.264 302.3 779.597 302.3ZM792.73 302.3C791.657 302.3 790.73 302.057 789.95 301.57C789.177 301.083 788.58 300.41 788.16 299.55C787.74 298.69 787.53 297.703 787.53 296.59C787.53 295.457 787.744 294.463 788.17 293.61C788.597 292.757 789.2 292.093 789.98 291.62C790.76 291.14 791.677 290.9 792.73 290.9C793.81 290.9 794.74 291.143 795.52 291.63C796.3 292.11 796.897 292.78 797.31 293.64C797.73 294.493 797.94 295.477 797.94 296.59C797.94 297.717 797.73 298.71 797.31 299.57C796.89 300.423 796.29 301.093 795.51 301.58C794.73 302.06 793.804 302.3 792.73 302.3ZM792.73 300.61C793.85 300.61 794.684 300.237 795.23 299.49C795.777 298.743 796.05 297.777 796.05 296.59C796.05 295.37 795.774 294.4 795.22 293.68C794.667 292.953 793.837 292.59 792.73 292.59C791.977 292.59 791.357 292.76 790.87 293.1C790.384 293.44 790.02 293.91 789.78 294.51C789.54 295.11 789.42 295.803 789.42 296.59C789.42 297.803 789.7 298.777 790.26 299.51C790.82 300.243 791.644 300.61 792.73 300.61ZM800.342 302V287.3H802.122V302H800.342Z" fill="#110529"/>
        <rect x="760" y="268" width="56" height="52" rx="1" stroke="#110529" stroke-width="2" stroke-linecap="round"/>
    </g>
    <g filter="url(#filter21_i_6123_37490)">
        <rect x="816" y="268" width="30" height="52" rx="1" fill="#90E0E0"/>
    </g>
    <rect x="816" y="268" width="30" height="52" rx="1" stroke="#110529" stroke-width="2" stroke-linecap="round"/>
    <path d="M825.447 302H827.247V290.74L834.757 302H836.557V287.6H834.757V298.85L827.247 287.6H825.447V302Z" fill="#110529"/>
    <path d="M284 208L283.293 208.707L282.586 208L283.293 207.293L284 208ZM291.293 199.293L292 198.586L293.414 200L292.707 200.707L291.293 199.293ZM292.707 215.293L293.414 216L292 217.414L291.293 216.707L292.707 215.293ZM294 209L284 209L284 207L294 207L294 209ZM283.293 207.293L291.293 199.293L292.707 200.707L284.707 208.707L283.293 207.293ZM284.707 207.293L292.707 215.293L291.293 216.707L283.293 208.707L284.707 207.293Z" fill="#110529"/>
    <path d="M558.5 208H294" stroke="#110529" stroke-width="2"/>
    <rect width="57" height="20" transform="translate(558.5 198)" fill="white"/>
    <path d="M565.691 213.992H573.347V212.632H567.883L571.595 209.296C572.779 208.248 573.347 207.488 573.347 205.976C573.347 203.856 571.731 202.24 569.595 202.24C567.379 202.24 565.747 203.784 565.747 205.952H567.203C567.187 204.696 568.195 203.6 569.571 203.6C570.899 203.6 571.891 204.632 571.891 205.96C571.891 206.688 571.659 207.352 570.811 208.112L565.699 212.712L565.691 213.992ZM578.669 214.24C580.813 214.24 582.629 212.504 582.629 210.376C582.629 208.232 581.005 206.584 578.869 206.584C578.093 206.584 577.317 206.848 576.717 207.328L576.925 203.832H581.829V202.48H575.645L575.293 208.504L576.557 208.984C576.973 208.384 577.693 207.896 578.709 207.896C580.053 207.896 581.197 208.984 581.197 210.376C581.197 211.728 580.109 212.856 578.709 212.856C577.637 212.856 576.597 212.144 576.309 211.008L574.941 211.376C575.405 213.056 576.885 214.24 578.669 214.24ZM586.55 214H587.998V202.48H586.55L584.382 203.776V205.368L586.55 204.056V214ZM595.01 214.24C597.426 214.24 598.882 212.264 598.882 209.672C598.882 207.08 597.418 205.12 595.018 205.12C593.938 205.12 593.082 205.496 592.466 206.144V202.48H591.034V214H592.306V213.024C592.938 213.784 593.842 214.24 595.01 214.24ZM592.306 209.672C592.306 207.76 593.106 206.424 594.794 206.424C596.554 206.424 597.37 207.848 597.37 209.672C597.37 211.512 596.538 212.936 594.834 212.936C593.09 212.936 592.306 211.568 592.306 209.672ZM604.604 214.24C607.02 214.24 608.476 212.264 608.476 209.672C608.476 207.08 607.012 205.12 604.612 205.12C603.436 205.12 602.532 205.568 601.9 206.328V205.36H600.628V217.84H602.06V213.2C602.676 213.856 603.532 214.24 604.604 214.24ZM601.9 209.672C601.9 207.76 602.7 206.424 604.388 206.424C606.148 206.424 606.964 207.848 606.964 209.672C606.964 211.512 606.132 212.936 604.428 212.936C602.684 212.936 601.9 211.568 601.9 209.672Z" fill="#110529"/>
    <path d="M880 208H615.5" stroke="#110529" stroke-width="2"/>
    <path d="M887.12 214H888.544V209.744H891.912L893.976 214H895.608L893.384 209.432C894.688 208.888 895.368 207.632 895.368 206.112C895.368 204.28 894.384 202.832 892.52 202.544C892.224 202.496 891.896 202.48 891.672 202.48H887.12V214ZM888.544 208.392V203.832H891.624C891.824 203.832 892.104 203.848 892.344 203.904C893.448 204.152 893.912 205.152 893.912 206.112C893.912 207.072 893.448 208.072 892.344 208.32C892.104 208.376 891.824 208.392 891.624 208.392H888.544ZM897.05 213.992H904.706V212.632H899.242L902.954 209.296C904.138 208.248 904.706 207.488 904.706 205.976C904.706 203.856 903.09 202.24 900.954 202.24C898.738 202.24 897.106 203.784 897.106 205.952H898.562C898.546 204.696 899.554 203.6 900.93 203.6C902.258 203.6 903.25 204.632 903.25 205.96C903.25 206.688 903.018 207.352 902.17 208.112L897.058 212.712L897.05 213.992Z" fill="#110529"/>
    <rect x="880" y="196" width="32" height="24" rx="1" stroke="#110529" stroke-width="2"/>
    <path d="M244 368L243.293 368.707L242.586 368L243.293 367.293L244 368ZM251.293 359.293L252 358.586L253.414 360L252.707 360.707L251.293 359.293ZM252.707 375.293L253.414 376L252 377.414L251.293 376.707L252.707 375.293ZM254 369L244 369L244 367L254 367L254 369ZM243.293 367.293L251.293 359.293L252.707 360.707L244.707 368.707L243.293 367.293ZM244.707 367.293L252.707 375.293L251.293 376.707L243.293 368.707L244.707 367.293Z" fill="#110529"/>
    <path d="M505.5 368H254" stroke="#110529" stroke-width="2"/>
    <rect width="57" height="20" transform="translate(505.5 358)" fill="white"/>
    <path d="M512.691 373.992L512.699 372.712L517.811 368.112C518.237 367.728 518.523 367.365 518.667 367.024C518.816 366.677 518.891 366.323 518.891 365.96C518.891 365.517 518.789 365.117 518.587 364.76C518.384 364.403 518.107 364.12 517.755 363.912C517.408 363.704 517.013 363.6 516.571 363.6C516.112 363.6 515.704 363.709 515.347 363.928C514.989 364.141 514.707 364.427 514.499 364.784C514.296 365.141 514.197 365.531 514.203 365.952H512.747C512.747 365.227 512.915 364.587 513.251 364.032C513.587 363.472 514.043 363.035 514.619 362.72C515.2 362.4 515.859 362.24 516.595 362.24C517.309 362.24 517.949 362.405 518.515 362.736C519.08 363.061 519.525 363.507 519.851 364.072C520.181 364.632 520.347 365.267 520.347 365.976C520.347 366.477 520.283 366.912 520.155 367.28C520.032 367.648 519.84 367.989 519.579 368.304C519.317 368.613 518.989 368.944 518.595 369.296L514.347 373.112L514.163 372.632H520.347V373.992H512.691ZM525.669 374.24C525.077 374.24 524.525 374.117 524.013 373.872C523.506 373.627 523.071 373.291 522.709 372.864C522.351 372.432 522.095 371.936 521.941 371.376L523.309 371.008C523.405 371.387 523.575 371.715 523.821 371.992C524.066 372.264 524.351 372.477 524.677 372.632C525.007 372.781 525.351 372.856 525.709 372.856C526.178 372.856 526.599 372.744 526.973 372.52C527.351 372.291 527.65 371.989 527.869 371.616C528.087 371.237 528.197 370.824 528.197 370.376C528.197 369.912 528.082 369.493 527.853 369.12C527.629 368.741 527.327 368.443 526.949 368.224C526.57 368.005 526.157 367.896 525.709 367.896C525.202 367.896 524.767 368.003 524.405 368.216C524.047 368.424 523.765 368.68 523.557 368.984L522.293 368.504L522.645 362.48H528.829V363.832H523.333L523.965 363.24L523.669 368.064L523.357 367.656C523.677 367.315 524.058 367.051 524.501 366.864C524.949 366.677 525.405 366.584 525.869 366.584C526.583 366.584 527.223 366.752 527.789 367.088C528.354 367.419 528.802 367.872 529.133 368.448C529.463 369.019 529.629 369.661 529.629 370.376C529.629 371.085 529.447 371.733 529.085 372.32C528.722 372.901 528.239 373.368 527.637 373.72C527.039 374.067 526.383 374.24 525.669 374.24ZM533.55 374V364.056L531.382 365.368V363.776L533.55 362.48H534.998V374H533.55ZM542.01 374.24C541.199 374.24 540.517 374.04 539.962 373.64C539.407 373.235 538.986 372.688 538.698 372C538.415 371.307 538.274 370.531 538.274 369.672C538.274 368.803 538.415 368.024 538.698 367.336C538.986 366.648 539.407 366.107 539.962 365.712C540.522 365.317 541.207 365.12 542.018 365.12C542.818 365.12 543.506 365.32 544.082 365.72C544.663 366.115 545.109 366.656 545.418 367.344C545.727 368.032 545.882 368.808 545.882 369.672C545.882 370.536 545.727 371.312 545.418 372C545.109 372.688 544.663 373.235 544.082 373.64C543.506 374.04 542.815 374.24 542.01 374.24ZM538.034 374V362.48H539.466V367.64H539.306V374H538.034ZM541.834 372.936C542.405 372.936 542.877 372.792 543.25 372.504C543.623 372.216 543.903 371.827 544.09 371.336C544.277 370.84 544.37 370.285 544.37 369.672C544.37 369.064 544.277 368.515 544.09 368.024C543.909 367.533 543.626 367.144 543.242 366.856C542.863 366.568 542.381 366.424 541.794 366.424C541.234 366.424 540.77 366.563 540.402 366.84C540.034 367.112 539.759 367.493 539.578 367.984C539.397 368.469 539.306 369.032 539.306 369.672C539.306 370.301 539.394 370.864 539.57 371.36C539.751 371.851 540.029 372.237 540.402 372.52C540.775 372.797 541.253 372.936 541.834 372.936ZM551.604 374.24C550.793 374.24 550.11 374.04 549.556 373.64C549.001 373.235 548.58 372.688 548.292 372C548.009 371.307 547.868 370.531 547.868 369.672C547.868 368.803 548.009 368.024 548.292 367.336C548.58 366.648 549.001 366.107 549.556 365.712C550.116 365.317 550.801 365.12 551.612 365.12C552.412 365.12 553.1 365.32 553.676 365.72C554.257 366.115 554.702 366.656 555.012 367.344C555.321 368.032 555.476 368.808 555.476 369.672C555.476 370.536 555.321 371.312 555.012 372C554.702 372.688 554.257 373.235 553.676 373.64C553.1 374.04 552.409 374.24 551.604 374.24ZM547.628 377.84V365.36H548.9V371.72H549.06V377.84H547.628ZM551.428 372.936C551.998 372.936 552.47 372.792 552.844 372.504C553.217 372.216 553.497 371.827 553.684 371.336C553.87 370.84 553.964 370.285 553.964 369.672C553.964 369.064 553.87 368.515 553.684 368.024C553.502 367.533 553.22 367.144 552.836 366.856C552.457 366.568 551.974 366.424 551.388 366.424C550.828 366.424 550.364 366.563 549.996 366.84C549.628 367.112 549.353 367.493 549.172 367.984C548.99 368.469 548.9 369.032 548.9 369.672C548.9 370.301 548.988 370.864 549.164 371.36C549.345 371.851 549.622 372.237 549.996 372.52C550.369 372.797 550.846 372.936 551.428 372.936Z" fill="#110529"/>
    <path d="M814 368H562.5" stroke="#110529" stroke-width="2"/>
    <path d="M821.12 374V362.48H825.672C825.784 362.48 825.917 362.485 826.072 362.496C826.227 362.501 826.376 362.517 826.52 362.544C827.144 362.64 827.667 362.853 828.088 363.184C828.515 363.515 828.835 363.933 829.048 364.44C829.261 364.941 829.368 365.499 829.368 366.112C829.368 367.003 829.136 367.776 828.672 368.432C828.208 369.083 827.528 369.491 826.632 369.656L826.088 369.744H822.544V374H821.12ZM827.976 374L825.704 369.312L827.112 368.88L829.608 374H827.976ZM822.544 368.392H825.624C825.725 368.392 825.84 368.387 825.968 368.376C826.101 368.365 826.227 368.347 826.344 368.32C826.712 368.235 827.011 368.08 827.24 367.856C827.475 367.627 827.645 367.36 827.752 367.056C827.859 366.747 827.912 366.432 827.912 366.112C827.912 365.792 827.859 365.48 827.752 365.176C827.645 364.867 827.475 364.597 827.24 364.368C827.011 364.139 826.712 363.984 826.344 363.904C826.227 363.872 826.101 363.853 825.968 363.848C825.84 363.837 825.725 363.832 825.624 363.832H822.544V368.392ZM831.05 373.992L831.058 372.712L836.17 368.112C836.597 367.728 836.882 367.365 837.026 367.024C837.175 366.677 837.25 366.323 837.25 365.96C837.25 365.517 837.149 365.117 836.946 364.76C836.743 364.403 836.466 364.12 836.114 363.912C835.767 363.704 835.373 363.6 834.93 363.6C834.471 363.6 834.063 363.709 833.706 363.928C833.349 364.141 833.066 364.427 832.858 364.784C832.655 365.141 832.557 365.531 832.562 365.952H831.106C831.106 365.227 831.274 364.587 831.61 364.032C831.946 363.472 832.402 363.035 832.978 362.72C833.559 362.4 834.218 362.24 834.954 362.24C835.669 362.24 836.309 362.405 836.874 362.736C837.439 363.061 837.885 363.507 838.21 364.072C838.541 364.632 838.706 365.267 838.706 365.976C838.706 366.477 838.642 366.912 838.514 367.28C838.391 367.648 838.199 367.989 837.938 368.304C837.677 368.613 837.349 368.944 836.954 369.296L832.706 373.112L832.522 372.632H838.706V373.992H831.05Z" fill="#110529"/>
    <rect x="814" y="356" width="32" height="24" rx="1" stroke="#110529" stroke-width="2"/>
    <path d="M104.62 190H106.044V185.744H109.412L111.476 190H113.108L110.884 185.432C112.188 184.888 112.868 183.632 112.868 182.112C112.868 180.28 111.884 178.832 110.02 178.544C109.724 178.496 109.396 178.48 109.172 178.48H104.62V190ZM106.044 184.392V179.832H109.124C109.324 179.832 109.604 179.848 109.844 179.904C110.948 180.152 111.412 181.152 111.412 182.112C111.412 183.072 110.948 184.072 109.844 184.32C109.604 184.376 109.324 184.392 109.124 184.392H106.044ZM116.878 190H118.326V178.48H116.878L114.71 179.776V181.368L116.878 180.056V190Z" fill="#110529"/>
    <rect x="96" y="172" width="32" height="24" rx="1" stroke="#110529" stroke-width="2"/>
    <path d="M394.5 184H128" stroke="#110529" stroke-width="2"/>
    <rect width="53" height="20" transform="translate(394.5 174)" fill="white"/>
    <path d="M399.691 189.992H407.347V188.632H401.883L405.595 185.296C406.779 184.248 407.347 183.488 407.347 181.976C407.347 179.856 405.731 178.24 403.595 178.24C401.379 178.24 399.747 179.784 399.747 181.952H401.203C401.187 180.696 402.195 179.6 403.571 179.6C404.899 179.6 405.891 180.632 405.891 181.96C405.891 182.688 405.659 183.352 404.811 184.112L399.699 188.712L399.691 189.992ZM412.669 190.24C414.813 190.24 416.629 188.504 416.629 186.376C416.629 184.232 415.005 182.584 412.869 182.584C412.093 182.584 411.317 182.848 410.717 183.328L410.925 179.832H415.829V178.48H409.645L409.293 184.504L410.557 184.984C410.973 184.384 411.693 183.896 412.709 183.896C414.053 183.896 415.197 184.984 415.197 186.376C415.197 187.728 414.109 188.856 412.709 188.856C411.637 188.856 410.597 188.144 410.309 187.008L408.941 187.376C409.405 189.056 410.885 190.24 412.669 190.24ZM420.55 190H421.998V178.48H420.55L418.382 179.776V181.368L420.55 180.056V190ZM429.01 190.24C431.426 190.24 432.882 188.264 432.882 185.672C432.882 183.08 431.418 181.12 429.018 181.12C427.938 181.12 427.082 181.496 426.466 182.144V178.48H425.034V190H426.306V189.024C426.938 189.784 427.842 190.24 429.01 190.24ZM426.306 185.672C426.306 183.76 427.106 182.424 428.794 182.424C430.554 182.424 431.37 183.848 431.37 185.672C431.37 187.512 430.538 188.936 428.834 188.936C427.09 188.936 426.306 187.568 426.306 185.672ZM438.604 190.24C441.02 190.24 442.476 188.264 442.476 185.672C442.476 183.08 441.012 181.12 438.612 181.12C437.436 181.12 436.532 181.568 435.9 182.328V181.36H434.628V193.84H436.06V189.2C436.676 189.856 437.532 190.24 438.604 190.24ZM435.9 185.672C435.9 183.76 436.7 182.424 438.388 182.424C440.148 182.424 440.964 183.848 440.964 185.672C440.964 187.512 440.132 188.936 438.428 188.936C436.684 188.936 435.9 187.568 435.9 185.672Z" fill="#110529"/>
    <path d="M714 184H447.5" stroke="#110529" stroke-width="2"/>
    <path d="M724 184L724.707 183.293L725.414 184L724.707 184.707L724 184ZM716.707 192.707L716 193.414L714.586 192L715.293 191.293L716.707 192.707ZM715.293 176.707L714.586 176L716 174.586L716.707 175.293L715.293 176.707ZM714 183L724 183L724 185L714 185L714 183ZM724.707 184.707L716.707 192.707L715.293 191.293L723.293 183.293L724.707 184.707ZM723.293 184.707L715.293 176.707L716.707 175.293L724.707 183.293L723.293 184.707Z" fill="#110529"/>
    <path d="M104.62 350V338.48H109.172C109.284 338.48 109.417 338.485 109.572 338.496C109.727 338.501 109.876 338.517 110.02 338.544C110.644 338.64 111.167 338.853 111.588 339.184C112.015 339.515 112.335 339.933 112.548 340.44C112.761 340.941 112.868 341.499 112.868 342.112C112.868 343.003 112.636 343.776 112.172 344.432C111.708 345.083 111.028 345.491 110.132 345.656L109.588 345.744H106.044V350H104.62ZM111.476 350L109.204 345.312L110.612 344.88L113.108 350H111.476ZM106.044 344.392H109.124C109.225 344.392 109.34 344.387 109.468 344.376C109.601 344.365 109.727 344.347 109.844 344.32C110.212 344.235 110.511 344.08 110.74 343.856C110.975 343.627 111.145 343.36 111.252 343.056C111.359 342.747 111.412 342.432 111.412 342.112C111.412 341.792 111.359 341.48 111.252 341.176C111.145 340.867 110.975 340.597 110.74 340.368C110.511 340.139 110.212 339.984 109.844 339.904C109.727 339.872 109.601 339.853 109.468 339.848C109.34 339.837 109.225 339.832 109.124 339.832H106.044V344.392ZM116.878 350V340.056L114.71 341.368V339.776L116.878 338.48H118.326V350H116.878Z" fill="#110529"/>
    <rect x="96" y="332" width="32" height="24" rx="1" stroke="#110529" stroke-width="2"/>
    <path d="M394.5 344H128" stroke="#110529" stroke-width="2"/>
    <rect width="53" height="20" transform="translate(394.5 334)" fill="white"/>
    <path d="M399.691 349.992L399.699 348.712L404.811 344.112C405.237 343.728 405.523 343.365 405.667 343.024C405.816 342.677 405.891 342.323 405.891 341.96C405.891 341.517 405.789 341.117 405.587 340.76C405.384 340.403 405.107 340.12 404.755 339.912C404.408 339.704 404.013 339.6 403.571 339.6C403.112 339.6 402.704 339.709 402.347 339.928C401.989 340.141 401.707 340.427 401.499 340.784C401.296 341.141 401.197 341.531 401.203 341.952H399.747C399.747 341.227 399.915 340.587 400.251 340.032C400.587 339.472 401.043 339.035 401.619 338.72C402.2 338.4 402.859 338.24 403.595 338.24C404.309 338.24 404.949 338.405 405.515 338.736C406.08 339.061 406.525 339.507 406.851 340.072C407.181 340.632 407.347 341.267 407.347 341.976C407.347 342.477 407.283 342.912 407.155 343.28C407.032 343.648 406.84 343.989 406.579 344.304C406.317 344.613 405.989 344.944 405.595 345.296L401.347 349.112L401.163 348.632H407.347V349.992H399.691ZM412.669 350.24C412.077 350.24 411.525 350.117 411.013 349.872C410.506 349.627 410.071 349.291 409.709 348.864C409.351 348.432 409.095 347.936 408.941 347.376L410.309 347.008C410.405 347.387 410.575 347.715 410.821 347.992C411.066 348.264 411.351 348.477 411.677 348.632C412.007 348.781 412.351 348.856 412.709 348.856C413.178 348.856 413.599 348.744 413.973 348.52C414.351 348.291 414.65 347.989 414.869 347.616C415.087 347.237 415.197 346.824 415.197 346.376C415.197 345.912 415.082 345.493 414.853 345.12C414.629 344.741 414.327 344.443 413.949 344.224C413.57 344.005 413.157 343.896 412.709 343.896C412.202 343.896 411.767 344.003 411.405 344.216C411.047 344.424 410.765 344.68 410.557 344.984L409.293 344.504L409.645 338.48H415.829V339.832H410.333L410.965 339.24L410.669 344.064L410.357 343.656C410.677 343.315 411.058 343.051 411.501 342.864C411.949 342.677 412.405 342.584 412.869 342.584C413.583 342.584 414.223 342.752 414.789 343.088C415.354 343.419 415.802 343.872 416.133 344.448C416.463 345.019 416.629 345.661 416.629 346.376C416.629 347.085 416.447 347.733 416.085 348.32C415.722 348.901 415.239 349.368 414.637 349.72C414.039 350.067 413.383 350.24 412.669 350.24ZM420.55 350V340.056L418.382 341.368V339.776L420.55 338.48H421.998V350H420.55ZM429.01 350.24C428.199 350.24 427.517 350.04 426.962 349.64C426.407 349.235 425.986 348.688 425.698 348C425.415 347.307 425.274 346.531 425.274 345.672C425.274 344.803 425.415 344.024 425.698 343.336C425.986 342.648 426.407 342.107 426.962 341.712C427.522 341.317 428.207 341.12 429.018 341.12C429.818 341.12 430.506 341.32 431.082 341.72C431.663 342.115 432.109 342.656 432.418 343.344C432.727 344.032 432.882 344.808 432.882 345.672C432.882 346.536 432.727 347.312 432.418 348C432.109 348.688 431.663 349.235 431.082 349.64C430.506 350.04 429.815 350.24 429.01 350.24ZM425.034 350V338.48H426.466V343.64H426.306V350H425.034ZM428.834 348.936C429.405 348.936 429.877 348.792 430.25 348.504C430.623 348.216 430.903 347.827 431.09 347.336C431.277 346.84 431.37 346.285 431.37 345.672C431.37 345.064 431.277 344.515 431.09 344.024C430.909 343.533 430.626 343.144 430.242 342.856C429.863 342.568 429.381 342.424 428.794 342.424C428.234 342.424 427.77 342.563 427.402 342.84C427.034 343.112 426.759 343.493 426.578 343.984C426.397 344.469 426.306 345.032 426.306 345.672C426.306 346.301 426.394 346.864 426.57 347.36C426.751 347.851 427.029 348.237 427.402 348.52C427.775 348.797 428.253 348.936 428.834 348.936ZM438.604 350.24C437.793 350.24 437.11 350.04 436.556 349.64C436.001 349.235 435.58 348.688 435.292 348C435.009 347.307 434.868 346.531 434.868 345.672C434.868 344.803 435.009 344.024 435.292 343.336C435.58 342.648 436.001 342.107 436.556 341.712C437.116 341.317 437.801 341.12 438.612 341.12C439.412 341.12 440.1 341.32 440.676 341.72C441.257 342.115 441.702 342.656 442.012 343.344C442.321 344.032 442.476 344.808 442.476 345.672C442.476 346.536 442.321 347.312 442.012 348C441.702 348.688 441.257 349.235 440.676 349.64C440.1 350.04 439.409 350.24 438.604 350.24ZM434.628 353.84V341.36H435.9V347.72H436.06V353.84H434.628ZM438.428 348.936C438.998 348.936 439.47 348.792 439.844 348.504C440.217 348.216 440.497 347.827 440.684 347.336C440.87 346.84 440.964 346.285 440.964 345.672C440.964 345.064 440.87 344.515 440.684 344.024C440.502 343.533 440.22 343.144 439.836 342.856C439.457 342.568 438.974 342.424 438.388 342.424C437.828 342.424 437.364 342.563 436.996 342.84C436.628 343.112 436.353 343.493 436.172 343.984C435.99 344.469 435.9 345.032 435.9 345.672C435.9 346.301 435.988 346.864 436.164 347.36C436.345 347.851 436.622 348.237 436.996 348.52C437.369 348.797 437.846 348.936 438.428 348.936Z" fill="#110529"/>
    <path d="M714 344H447.5" stroke="#110529" stroke-width="2"/>
    <path d="M724 344L724.707 343.293L725.414 344L724.707 344.707L724 344ZM716.707 352.707L716 353.414L714.586 352L715.293 351.293L716.707 352.707ZM715.293 336.707L714.586 336L716 334.586L716.707 335.293L715.293 336.707ZM714 343L724 343L724 345L714 345L714 343ZM724.707 344.707L716.707 352.707L715.293 351.293L723.293 343.293L724.707 344.707ZM723.293 344.707L715.293 336.707L716.707 335.293L724.707 343.293L723.293 344.707Z" fill="#110529"/>
    <path d="M98.5813 91.992H106.237V90.632H100.773L104.485 87.296C105.669 86.248 106.237 85.488 106.237 83.976C106.237 81.856 104.621 80.24 102.485 80.24C100.269 80.24 98.6373 81.784 98.6373 83.952H100.093C100.077 82.696 101.085 81.6 102.461 81.6C103.789 81.6 104.781 82.632 104.781 83.96C104.781 84.688 104.549 85.352 103.701 86.112L98.5893 90.712L98.5813 91.992ZM112.119 92.24C114.535 92.24 115.991 90.264 115.991 87.672C115.991 85.08 114.527 83.12 112.127 83.12C111.047 83.12 110.191 83.496 109.575 84.144V80.48H108.143V92H109.415V91.024C110.047 91.784 110.951 92.24 112.119 92.24ZM109.415 87.672C109.415 85.76 110.215 84.424 111.903 84.424C113.663 84.424 114.479 85.848 114.479 87.672C114.479 89.512 113.647 90.936 111.943 90.936C110.199 90.936 109.415 89.568 109.415 87.672ZM121.713 92.24C124.129 92.24 125.585 90.264 125.585 87.672C125.585 85.08 124.121 83.12 121.721 83.12C120.545 83.12 119.641 83.568 119.009 84.328V83.36H117.737V95.84H119.169V91.2C119.785 91.856 120.641 92.24 121.713 92.24ZM119.009 87.672C119.009 85.76 119.809 84.424 121.497 84.424C123.257 84.424 124.073 85.848 124.073 87.672C124.073 89.512 123.241 90.936 121.537 90.936C119.793 90.936 119.009 89.568 119.009 87.672Z" fill="#110529"/>
    <path d="M881.581 91.992H889.237V90.632H883.773L887.485 87.296C888.669 86.248 889.237 85.488 889.237 83.976C889.237 81.856 887.621 80.24 885.485 80.24C883.269 80.24 881.637 81.784 881.637 83.952H883.093C883.077 82.696 884.085 81.6 885.461 81.6C886.789 81.6 887.781 82.632 887.781 83.96C887.781 84.688 887.549 85.352 886.701 86.112L881.589 90.712L881.581 91.992ZM895.119 92.24C897.535 92.24 898.991 90.264 898.991 87.672C898.991 85.08 897.527 83.12 895.127 83.12C894.047 83.12 893.191 83.496 892.575 84.144V80.48H891.143V92H892.415V91.024C893.047 91.784 893.951 92.24 895.119 92.24ZM892.415 87.672C892.415 85.76 893.215 84.424 894.903 84.424C896.663 84.424 897.479 85.848 897.479 87.672C897.479 89.512 896.647 90.936 894.943 90.936C893.199 90.936 892.415 89.568 892.415 87.672ZM904.713 92.24C907.129 92.24 908.585 90.264 908.585 87.672C908.585 85.08 907.121 83.12 904.721 83.12C903.545 83.12 902.641 83.568 902.009 84.328V83.36H900.737V95.84H902.169V91.2C902.785 91.856 903.641 92.24 904.713 92.24ZM902.009 87.672C902.009 85.76 902.809 84.424 904.497 84.424C906.257 84.424 907.073 85.848 907.073 87.672C907.073 89.512 906.241 90.936 904.537 90.936C902.793 90.936 902.009 89.568 902.009 87.672Z" fill="#110529"/>
    <path d="M187.065 92.24C190.433 92.24 192.225 89.912 192.225 86.752C192.225 86.656 192.217 86.296 192.193 86.072H188.241V87.248H190.689C190.513 89.544 189.361 90.896 187.137 90.88C184.561 90.864 183.257 89 183.273 86.24C183.289 83.48 184.561 81.592 187.137 81.608C188.777 81.616 189.889 82.512 190.377 83.904L191.817 83.608C191.217 81.536 189.641 80.248 187.065 80.248C183.841 80.248 181.761 82.568 181.761 86.24C181.761 89.952 183.889 92.24 187.065 92.24ZM192.711 92H194.191L195.095 89.304H200.015L200.927 92H202.407L198.551 80.48H196.567L192.711 92ZM195.543 87.968L197.543 81.976L199.567 87.968H195.543Z" fill="#110529"/>
    <path d="M222.294 92.24C224.438 92.24 226.254 90.504 226.254 88.376C226.254 86.232 224.63 84.584 222.494 84.584C221.718 84.584 220.942 84.848 220.342 85.328L220.55 81.832H225.454V80.48H219.27L218.918 86.504L220.182 86.984C220.598 86.384 221.318 85.896 222.334 85.896C223.678 85.896 224.822 86.984 224.822 88.376C224.822 89.728 223.734 90.856 222.334 90.856C221.262 90.856 220.222 90.144 219.934 89.008L218.566 89.376C219.03 91.056 220.51 92.24 222.294 92.24ZM232.135 92.24C234.551 92.24 236.007 90.264 236.007 87.672C236.007 85.08 234.543 83.12 232.143 83.12C231.063 83.12 230.207 83.496 229.591 84.144V80.48H228.159V92H229.431V91.024C230.063 91.784 230.967 92.24 232.135 92.24ZM229.431 87.672C229.431 85.76 230.231 84.424 231.919 84.424C233.679 84.424 234.495 85.848 234.495 87.672C234.495 89.512 233.663 90.936 231.959 90.936C230.215 90.936 229.431 89.568 229.431 87.672ZM241.729 92.24C244.145 92.24 245.601 90.264 245.601 87.672C245.601 85.08 244.137 83.12 241.737 83.12C240.561 83.12 239.657 83.568 239.025 84.328V83.36H237.753V95.84H239.185V91.2C239.801 91.856 240.657 92.24 241.729 92.24ZM239.025 87.672C239.025 85.76 239.825 84.424 241.513 84.424C243.273 84.424 244.089 85.848 244.089 87.672C244.089 89.512 243.257 90.936 241.553 90.936C239.809 90.936 239.025 89.568 239.025 87.672Z" fill="#110529"/>
    <path d="M144.294 92.24C146.438 92.24 148.254 90.504 148.254 88.376C148.254 86.232 146.63 84.584 144.494 84.584C143.718 84.584 142.942 84.848 142.342 85.328L142.55 81.832H147.454V80.48H141.27L140.918 86.504L142.182 86.984C142.598 86.384 143.318 85.896 144.334 85.896C145.678 85.896 146.822 86.984 146.822 88.376C146.822 89.728 145.734 90.856 144.334 90.856C143.262 90.856 142.222 90.144 141.934 89.008L140.566 89.376C141.03 91.056 142.51 92.24 144.294 92.24ZM154.135 92.24C156.551 92.24 158.007 90.264 158.007 87.672C158.007 85.08 156.543 83.12 154.143 83.12C153.063 83.12 152.207 83.496 151.591 84.144V80.48H150.159V92H151.431V91.024C152.063 91.784 152.967 92.24 154.135 92.24ZM151.431 87.672C151.431 85.76 152.231 84.424 153.919 84.424C155.679 84.424 156.495 85.848 156.495 87.672C156.495 89.512 155.663 90.936 153.959 90.936C152.215 90.936 151.431 89.568 151.431 87.672ZM163.729 92.24C166.145 92.24 167.601 90.264 167.601 87.672C167.601 85.08 166.137 83.12 163.737 83.12C162.561 83.12 161.657 83.568 161.025 84.328V83.36H159.753V95.84H161.185V91.2C161.801 91.856 162.657 92.24 163.729 92.24ZM161.025 87.672C161.025 85.76 161.825 84.424 163.513 84.424C165.273 84.424 166.089 85.848 166.089 87.672C166.089 89.512 165.257 90.936 163.553 90.936C161.809 90.936 161.025 89.568 161.025 87.672Z" fill="#110529"/>
    <path d="M842.294 92.24C844.438 92.24 846.254 90.504 846.254 88.376C846.254 86.232 844.63 84.584 842.494 84.584C841.718 84.584 840.942 84.848 840.342 85.328L840.55 81.832H845.454V80.48H839.27L838.918 86.504L840.182 86.984C840.598 86.384 841.318 85.896 842.334 85.896C843.678 85.896 844.822 86.984 844.822 88.376C844.822 89.728 843.734 90.856 842.334 90.856C841.262 90.856 840.222 90.144 839.934 89.008L838.566 89.376C839.03 91.056 840.51 92.24 842.294 92.24ZM852.135 92.24C854.551 92.24 856.007 90.264 856.007 87.672C856.007 85.08 854.543 83.12 852.143 83.12C851.063 83.12 850.207 83.496 849.591 84.144V80.48H848.159V92H849.431V91.024C850.063 91.784 850.967 92.24 852.135 92.24ZM849.431 87.672C849.431 85.76 850.231 84.424 851.919 84.424C853.679 84.424 854.495 85.848 854.495 87.672C854.495 89.512 853.663 90.936 851.959 90.936C850.215 90.936 849.431 89.568 849.431 87.672ZM861.729 92.24C864.145 92.24 865.601 90.264 865.601 87.672C865.601 85.08 864.137 83.12 861.737 83.12C860.561 83.12 859.657 83.568 859.025 84.328V83.36H857.753V95.84H859.185V91.2C859.801 91.856 860.657 92.24 861.729 92.24ZM859.025 87.672C859.025 85.76 859.825 84.424 861.513 84.424C863.273 84.424 864.089 85.848 864.089 87.672C864.089 89.512 863.257 90.936 861.553 90.936C859.809 90.936 859.025 89.568 859.025 87.672Z" fill="#110529"/>
    <path d="M25.3268 302H27.1068V289.29H32.0168V287.6H20.4168V289.29H25.3268V302ZM39.529 302.3C42.859 302.3 45.049 300.47 45.869 297.61L44.059 297.13C43.469 299.27 41.959 300.6 39.529 300.6C36.309 300.6 34.669 298.25 34.689 294.8C34.709 291.35 36.309 289 39.529 289C41.959 289 43.469 290.33 44.059 292.47L45.869 291.99C45.049 289.13 42.859 287.3 39.529 287.3C35.219 287.3 32.809 290.36 32.809 294.8C32.809 299.24 35.219 302.3 39.529 302.3ZM48.0621 302H49.8421V296.68H54.0521L56.6321 302H58.6721L55.8921 296.29C57.5221 295.61 58.3721 294.04 58.3721 292.14C58.3721 289.85 57.1421 288.04 54.8121 287.68C54.4421 287.62 54.0321 287.6 53.7521 287.6H48.0621V302ZM49.8421 294.99V289.29H53.6921C53.9421 289.29 54.2921 289.31 54.5921 289.38C55.9721 289.69 56.5521 290.94 56.5521 292.14C56.5521 293.34 55.9721 294.59 54.5921 294.9C54.2921 294.97 53.9421 294.99 53.6921 294.99H49.8421ZM69.1485 302.3C70.7885 302.3 72.0985 301.54 72.7985 300.24V302H74.3885V291.2H72.7985V292.93C72.1085 291.65 70.8485 290.9 69.1985 290.9C66.0985 290.9 64.2785 293.35 64.2785 296.6C64.2785 299.83 66.0885 302.3 69.1485 302.3ZM66.1685 296.6C66.1685 294.19 67.2785 292.53 69.3885 292.53C71.4985 292.53 72.4985 294.2 72.4985 296.59C72.4985 298.96 71.5085 300.67 69.3685 300.67C67.1985 300.67 66.1685 298.88 66.1685 296.6Z" fill="#110529"/>
    <path d="M25.6881 142H27.4681V129.29H32.3781V127.6H20.7781V129.29H25.6881V142ZM39.8903 142.3C43.2203 142.3 45.4103 140.47 46.2303 137.61L44.4203 137.13C43.8303 139.27 42.3203 140.6 39.8903 140.6C36.6703 140.6 35.0303 138.25 35.0503 134.8C35.0703 131.35 36.6703 129 39.8903 129C42.3203 129 43.8303 130.33 44.4203 132.47L46.2303 131.99C45.4103 129.13 43.2203 127.3 39.8903 127.3C35.5803 127.3 33.1703 130.36 33.1703 134.8C33.1703 139.24 35.5803 142.3 39.8903 142.3ZM48.4234 142H50.2034V136.68H54.4134L56.9934 142H59.0334L56.2534 136.29C57.8834 135.61 58.7334 134.04 58.7334 132.14C58.7334 129.85 57.5034 128.04 55.1734 127.68C54.8034 127.62 54.3934 127.6 54.1134 127.6H48.4234V142ZM50.2034 134.99V129.29H54.0534C54.3034 129.29 54.6534 129.31 54.9534 129.38C56.3334 129.69 56.9134 130.94 56.9134 132.14C56.9134 133.34 56.3334 134.59 54.9534 134.9C54.6534 134.97 54.3034 134.99 54.0534 134.99H50.2034ZM65.2298 131.2V146.8H67.0098V141.39C67.7198 141.96 68.7098 142.3 69.9398 142.3C72.9898 142.3 74.8398 140.57 74.8398 137.95C74.8398 135.74 73.4398 134.44 72.0498 134.09C73.0998 133.58 73.6098 132.5 73.6098 131.22C73.6098 128.84 71.8598 127.3 69.3698 127.3C67.5098 127.3 65.9798 128.16 65.4498 129.78C65.2998 130.23 65.2298 130.71 65.2298 131.2ZM67.0498 137.71V131.86C67.0498 131.44 67.0698 130.8 67.2798 130.28C67.6398 129.35 68.5198 128.99 69.4098 128.99C70.7898 128.99 71.7898 129.82 71.7898 131.24C71.7898 132.67 70.7898 133.4 69.4198 133.54V135.14C71.6098 135.18 73.0298 136.1 73.0298 137.87C73.0298 139.52 71.7898 140.61 70.0198 140.61C68.7698 140.61 67.5298 140.04 67.1998 139.01C67.0798 138.64 67.0498 138.1 67.0498 137.71Z" fill="#110529"/>
    <defs>
        <filter id="filter0_i_6123_37490" x="95" y="107" width="32" height="54" filterUnits="userSpaceOnUse" color-interpolation-filters="sRGB">
            <feFlood flood-opacity="0" result="BackgroundImageFix"/>
            <feBlend mode="normal" in="SourceGraphic" in2="BackgroundImageFix" result="shape"/>
            <feColorMatrix in="SourceAlpha" type="matrix" values="0 0 0 0 0 0 0 0 0 0 0 0 0 0 0 0 0 0 127 0" result="hardAlpha"/>
            <feOffset dx="-8" dy="-4"/>
            <feComposite in2="hardAlpha" operator="arithmetic" k2="-1" k3="1"/>
            <feColorMatrix type="matrix" values="0 0 0 0 0.0666667 0 0 0 0 0.0196078 0 0 0 0 0.160784 0 0 0 0.16 0"/>
            <feBlend mode="normal" in2="shape" result="effect1_innerShadow_6123_37490"/>
        </filter>
        <filter id="filter1_i_6123_37490" x="125" y="107" width="58" height="54" filterUnits="userSpaceOnUse" color-interpolation-filters="sRGB">
            <feFlood flood-opacity="0" result="BackgroundImageFix"/>
            <feBlend mode="normal" in="SourceGraphic" in2="BackgroundImageFix" result="shape"/>
            <feColorMatrix in="SourceAlpha" type="matrix" values="0 0 0 0 0 0 0 0 0 0 0 0 0 0 0 0 0 0 127 0" result="hardAlpha"/>
            <feOffset dx="-8" dy="-4"/>
            <feComposite in2="hardAlpha" operator="arithmetic" k2="-1" k3="1"/>
            <feColorMatrix type="matrix" values="0 0 0 0 0.0666667 0 0 0 0 0.0196078 0 0 0 0 0.160784 0 0 0 0.16 0"/>
            <feBlend mode="normal" in2="shape" result="effect1_innerShadow_6123_37490"/>
        </filter>
        <filter id="filter2_i_6123_37490" x="181" y="107" width="22" height="54" filterUnits="userSpaceOnUse" color-interpolation-filters="sRGB">
            <feFlood flood-opacity="0" result="BackgroundImageFix"/>
            <feBlend mode="normal" in="SourceGraphic" in2="BackgroundImageFix" result="shape"/>
            <feColorMatrix in="SourceAlpha" type="matrix" values="0 0 0 0 0 0 0 0 0 0 0 0 0 0 0 0 0 0 127 0" result="hardAlpha"/>
            <feOffset dx="-8" dy="-4"/>
            <feComposite in2="hardAlpha" operator="arithmetic" k2="-1" k3="1"/>
            <feColorMatrix type="matrix" values="0 0 0 0 0.0666667 0 0 0 0 0.0196078 0 0 0 0 0.160784 0 0 0 0.16 0"/>
            <feBlend mode="normal" in2="shape" result="effect1_innerShadow_6123_37490"/>
        </filter>
        <filter id="filter3_i_6123_37490" x="201" y="107" width="58" height="54" filterUnits="userSpaceOnUse" color-interpolation-filters="sRGB">
            <feFlood flood-opacity="0" result="BackgroundImageFix"/>
            <feBlend mode="normal" in="SourceGraphic" in2="BackgroundImageFix" result="shape"/>
            <feColorMatrix in="SourceAlpha" type="matrix" values="0 0 0 0 0 0 0 0 0 0 0 0 0 0 0 0 0 0 127 0" result="hardAlpha"/>
            <feOffset dx="-8" dy="-4"/>
            <feComposite in2="hardAlpha" operator="arithmetic" k2="-1" k3="1"/>
            <feColorMatrix type="matrix" values="0 0 0 0 0.0666667 0 0 0 0 0.0196078 0 0 0 0 0.160784 0 0 0 0.16 0"/>
            <feBlend mode="normal" in2="shape" result="effect1_innerShadow_6123_37490"/>
        </filter>
        <filter id="filter4_i_6123_37490" x="257" y="107" width="202" height="54" filterUnits="userSpaceOnUse" color-interpolation-filters="sRGB">
            <feFlood flood-opacity="0" result="BackgroundImageFix"/>
            <feBlend mode="normal" in="SourceGraphic" in2="BackgroundImageFix" result="shape"/>
            <feColorMatrix in="SourceAlpha" type="matrix" values="0 0 0 0 0 0 0 0 0 0 0 0 0 0 0 0 0 0 127 0" result="hardAlpha"/>
            <feOffset dx="-8" dy="-4"/>
            <feComposite in2="hardAlpha" operator="arithmetic" k2="-1" k3="1"/>
            <feColorMatrix type="matrix" values="0 0 0 0 0.0666667 0 0 0 0 0.0196078 0 0 0 0 0.160784 0 0 0 0.16 0"/>
            <feBlend mode="normal" in2="shape" result="effect1_innerShadow_6123_37490"/>
        </filter>
        <filter id="filter5_i_6123_37490" x="457" y="107" width="32" height="54" filterUnits="userSpaceOnUse" color-interpolation-filters="sRGB">
            <feFlood flood-opacity="0" result="BackgroundImageFix"/>
            <feBlend mode="normal" in="SourceGraphic" in2="BackgroundImageFix" result="shape"/>
            <feColorMatrix in="SourceAlpha" type="matrix" values="0 0 0 0 0 0 0 0 0 0 0 0 0 0 0 0 0 0 127 0" result="hardAlpha"/>
            <feOffset dx="-8" dy="-4"/>
            <feComposite in2="hardAlpha" operator="arithmetic" k2="-1" k3="1"/>
            <feColorMatrix type="matrix" values="0 0 0 0 0.0666667 0 0 0 0 0.0196078 0 0 0 0 0.160784 0 0 0 0.16 0"/>
            <feBlend mode="normal" in2="shape" result="effect1_innerShadow_6123_37490"/>
        </filter>
        <filter id="filter6_i_6123_37490" x="523" y="107" width="32" height="54" filterUnits="userSpaceOnUse" color-interpolation-filters="sRGB">
            <feFlood flood-opacity="0" result="BackgroundImageFix"/>
            <feBlend mode="normal" in="SourceGraphic" in2="BackgroundImageFix" result="shape"/>
            <feColorMatrix in="SourceAlpha" type="matrix" values="0 0 0 0 0 0 0 0 0 0 0 0 0 0 0 0 0 0 127 0" result="hardAlpha"/>
            <feOffset dx="-8" dy="-4"/>
            <feComposite in2="hardAlpha" operator="arithmetic" k2="-1" k3="1"/>
            <feColorMatrix type="matrix" values="0 0 0 0 0.0666667 0 0 0 0 0.0196078 0 0 0 0 0.160784 0 0 0 0.16 0"/>
            <feBlend mode="normal" in2="shape" result="effect1_innerShadow_6123_37490"/>
        </filter>
        <filter id="filter7_i_6123_37490" x="487" y="107" width="38" height="54" filterUnits="userSpaceOnUse" color-interpolation-filters="sRGB">
            <feFlood flood-opacity="0" result="BackgroundImageFix"/>
            <feBlend mode="normal" in="SourceGraphic" in2="BackgroundImageFix" result="shape"/>
            <feColorMatrix in="SourceAlpha" type="matrix" values="0 0 0 0 0 0 0 0 0 0 0 0 0 0 0 0 0 0 127 0" result="hardAlpha"/>
            <feOffset dx="-8" dy="-4"/>
            <feComposite in2="hardAlpha" operator="arithmetic" k2="-1" k3="1"/>
            <feColorMatrix type="matrix" values="0 0 0 0 0.0666667 0 0 0 0 0.0196078 0 0 0 0 0.160784 0 0 0 0.16 0"/>
            <feBlend mode="normal" in2="shape" result="effect1_innerShadow_6123_37490"/>
        </filter>
        <filter id="filter8_i_6123_37490" x="553" y="107" width="146" height="54" filterUnits="userSpaceOnUse" color-interpolation-filters="sRGB">
            <feFlood flood-opacity="0" result="BackgroundImageFix"/>
            <feBlend mode="normal" in="SourceGraphic" in2="BackgroundImageFix" result="shape"/>
            <feColorMatrix in="SourceAlpha" type="matrix" values="0 0 0 0 0 0 0 0 0 0 0 0 0 0 0 0 0 0 127 0" result="hardAlpha"/>
            <feOffset dx="-8" dy="-4"/>
            <feComposite in2="hardAlpha" operator="arithmetic" k2="-1" k3="1"/>
            <feColorMatrix type="matrix" values="0 0 0 0 0.0666667 0 0 0 0 0.0196078 0 0 0 0 0.160784 0 0 0 0.16 0"/>
            <feBlend mode="normal" in2="shape" result="effect1_innerShadow_6123_37490"/>
        </filter>
        <filter id="filter9_i_6123_37490" x="697" y="107" width="130" height="54" filterUnits="userSpaceOnUse" color-interpolation-filters="sRGB">
            <feFlood flood-opacity="0" result="BackgroundImageFix"/>
            <feBlend mode="normal" in="SourceGraphic" in2="BackgroundImageFix" result="shape"/>
            <feColorMatrix in="SourceAlpha" type="matrix" values="0 0 0 0 0 0 0 0 0 0 0 0 0 0 0 0 0 0 127 0" result="hardAlpha"/>
            <feOffset dx="-8" dy="-4"/>
            <feComposite in2="hardAlpha" operator="arithmetic" k2="-1" k3="1"/>
            <feColorMatrix type="matrix" values="0 0 0 0 0.0666667 0 0 0 0 0.0196078 0 0 0 0 0.160784 0 0 0 0.16 0"/>
            <feBlend mode="normal" in2="shape" result="effect1_innerShadow_6123_37490"/>
        </filter>
        <filter id="filter10_i_6123_37490" x="825" y="107" width="58" height="54" filterUnits="userSpaceOnUse" color-interpolation-filters="sRGB">
            <feFlood flood-opacity="0" result="BackgroundImageFix"/>
            <feBlend mode="normal" in="SourceGraphic" in2="BackgroundImageFix" result="shape"/>
            <feColorMatrix in="SourceAlpha" type="matrix" values="0 0 0 0 0 0 0 0 0 0 0 0 0 0 0 0 0 0 127 0" result="hardAlpha"/>
            <feOffset dx="-8" dy="-4"/>
            <feComposite in2="hardAlpha" operator="arithmetic" k2="-1" k3="1"/>
            <feColorMatrix type="matrix" values="0 0 0 0 0.0666667 0 0 0 0 0.0196078 0 0 0 0 0.160784 0 0 0 0.16 0"/>
            <feBlend mode="normal" in2="shape" result="effect1_innerShadow_6123_37490"/>
        </filter>
        <filter id="filter11_i_6123_37490" x="881" y="107" width="32" height="54" filterUnits="userSpaceOnUse" color-interpolation-filters="sRGB">
            <feFlood flood-opacity="0" result="BackgroundImageFix"/>
            <feBlend mode="normal" in="SourceGraphic" in2="BackgroundImageFix" result="shape"/>
            <feColorMatrix in="SourceAlpha" type="matrix" values="0 0 0 0 0 0 0 0 0 0 0 0 0 0 0 0 0 0 127 0" result="hardAlpha"/>
            <feOffset dx="-8" dy="-4"/>
            <feComposite in2="hardAlpha" operator="arithmetic" k2="-1" k3="1"/>
            <feColorMatrix type="matrix" values="0 0 0 0 0.0666667 0 0 0 0 0.0196078 0 0 0 0 0.160784 0 0 0 0.16 0"/>
            <feBlend mode="normal" in2="shape" result="effect1_innerShadow_6123_37490"/>
        </filter>
        <filter id="filter12_i_6123_37490" x="95" y="267" width="32" height="54" filterUnits="userSpaceOnUse" color-interpolation-filters="sRGB">
            <feFlood flood-opacity="0" result="BackgroundImageFix"/>
            <feBlend mode="normal" in="SourceGraphic" in2="BackgroundImageFix" result="shape"/>
            <feColorMatrix in="SourceAlpha" type="matrix" values="0 0 0 0 0 0 0 0 0 0 0 0 0 0 0 0 0 0 127 0" result="hardAlpha"/>
            <feOffset dx="-8" dy="-4"/>
            <feComposite in2="hardAlpha" operator="arithmetic" k2="-1" k3="1"/>
            <feColorMatrix type="matrix" values="0 0 0 0 0.0666667 0 0 0 0 0.0196078 0 0 0 0 0.160784 0 0 0 0.16 0"/>
            <feBlend mode="normal" in2="shape" result="effect1_innerShadow_6123_37490"/>
        </filter>
        <filter id="filter13_i_6123_37490" x="125" y="267" width="58" height="54" filterUnits="userSpaceOnUse" color-interpolation-filters="sRGB">
            <feFlood flood-opacity="0" result="BackgroundImageFix"/>
            <feBlend mode="normal" in="SourceGraphic" in2="BackgroundImageFix" result="shape"/>
            <feColorMatrix in="SourceAlpha" type="matrix" values="0 0 0 0 0 0 0 0 0 0 0 0 0 0 0 0 0 0 127 0" result="hardAlpha"/>
            <feOffset dx="-8" dy="-4"/>
            <feComposite in2="hardAlpha" operator="arithmetic" k2="-1" k3="1"/>
            <feColorMatrix type="matrix" values="0 0 0 0 0.0666667 0 0 0 0 0.0196078 0 0 0 0 0.160784 0 0 0 0.16 0"/>
            <feBlend mode="normal" in2="shape" result="effect1_innerShadow_6123_37490"/>
        </filter>
        <filter id="filter14_i_6123_37490" x="181" y="267" width="22" height="54" filterUnits="userSpaceOnUse" color-interpolation-filters="sRGB">
            <feFlood flood-opacity="0" result="BackgroundImageFix"/>
            <feBlend mode="normal" in="SourceGraphic" in2="BackgroundImageFix" result="shape"/>
            <feColorMatrix in="SourceAlpha" type="matrix" values="0 0 0 0 0 0 0 0 0 0 0 0 0 0 0 0 0 0 127 0" result="hardAlpha"/>
            <feOffset dx="-8" dy="-4"/>
            <feComposite in2="hardAlpha" operator="arithmetic" k2="-1" k3="1"/>
            <feColorMatrix type="matrix" values="0 0 0 0 0.0666667 0 0 0 0 0.0196078 0 0 0 0 0.160784 0 0 0 0.16 0"/>
            <feBlend mode="normal" in2="shape" result="effect1_innerShadow_6123_37490"/>
        </filter>
        <filter id="filter15_i_6123_37490" x="201" y="267" width="58" height="54" filterUnits="userSpaceOnUse" color-interpolation-filters="sRGB">
            <feFlood flood-opacity="0" result="BackgroundImageFix"/>
            <feBlend mode="normal" in="SourceGraphic" in2="BackgroundImageFix" result="shape"/>
            <feColorMatrix in="SourceAlpha" type="matrix" values="0 0 0 0 0 0 0 0 0 0 0 0 0 0 0 0 0 0 127 0" result="hardAlpha"/>
            <feOffset dx="-8" dy="-4"/>
            <feComposite in2="hardAlpha" operator="arithmetic" k2="-1" k3="1"/>
            <feColorMatrix type="matrix" values="0 0 0 0 0.0666667 0 0 0 0 0.0196078 0 0 0 0 0.160784 0 0 0 0.16 0"/>
            <feBlend mode="normal" in2="shape" result="effect1_innerShadow_6123_37490"/>
        </filter>
        <filter id="filter16_i_6123_37490" x="257" y="267" width="202" height="54" filterUnits="userSpaceOnUse" color-interpolation-filters="sRGB">
            <feFlood flood-opacity="0" result="BackgroundImageFix"/>
            <feBlend mode="normal" in="SourceGraphic" in2="BackgroundImageFix" result="shape"/>
            <feColorMatrix in="SourceAlpha" type="matrix" values="0 0 0 0 0 0 0 0 0 0 0 0 0 0 0 0 0 0 127 0" result="hardAlpha"/>
            <feOffset dx="-8" dy="-4"/>
            <feComposite in2="hardAlpha" operator="arithmetic" k2="-1" k3="1"/>
            <feColorMatrix type="matrix" values="0 0 0 0 0.0666667 0 0 0 0 0.0196078 0 0 0 0 0.160784 0 0 0 0.16 0"/>
            <feBlend mode="normal" in2="shape" result="effect1_innerShadow_6123_37490"/>
        </filter>
        <filter id="filter17_i_6123_37490" x="457" y="267" width="32" height="54" filterUnits="userSpaceOnUse" color-interpolation-filters="sRGB">
            <feFlood flood-opacity="0" result="BackgroundImageFix"/>
            <feBlend mode="normal" in="SourceGraphic" in2="BackgroundImageFix" result="shape"/>
            <feColorMatrix in="SourceAlpha" type="matrix" values="0 0 0 0 0 0 0 0 0 0 0 0 0 0 0 0 0 0 127 0" result="hardAlpha"/>
            <feOffset dx="-8" dy="-4"/>
            <feComposite in2="hardAlpha" operator="arithmetic" k2="-1" k3="1"/>
            <feColorMatrix type="matrix" values="0 0 0 0 0.0666667 0 0 0 0 0.0196078 0 0 0 0 0.160784 0 0 0 0.16 0"/>
            <feBlend mode="normal" in2="shape" result="effect1_innerShadow_6123_37490"/>
        </filter>
        <filter id="filter18_i_6123_37490" x="487" y="267" width="146" height="54" filterUnits="userSpaceOnUse" color-interpolation-filters="sRGB">
            <feFlood flood-opacity="0" result="BackgroundImageFix"/>
            <feBlend mode="normal" in="SourceGraphic" in2="BackgroundImageFix" result="shape"/>
            <feColorMatrix in="SourceAlpha" type="matrix" values="0 0 0 0 0 0 0 0 0 0 0 0 0 0 0 0 0 0 127 0" result="hardAlpha"/>
            <feOffset dx="-8" dy="-4"/>
            <feComposite in2="hardAlpha" operator="arithmetic" k2="-1" k3="1"/>
            <feColorMatrix type="matrix" values="0 0 0 0 0.0666667 0 0 0 0 0.0196078 0 0 0 0 0.160784 0 0 0 0.16 0"/>
            <feBlend mode="normal" in2="shape" result="effect1_innerShadow_6123_37490"/>
        </filter>
        <filter id="filter19_i_6123_37490" x="631" y="267" width="130" height="54" filterUnits="userSpaceOnUse" color-interpolation-filters="sRGB">
            <feFlood flood-opacity="0" result="BackgroundImageFix"/>
            <feBlend mode="normal" in="SourceGraphic" in2="BackgroundImageFix" result="shape"/>
            <feColorMatrix in="SourceAlpha" type="matrix" values="0 0 0 0 0 0 0 0 0 0 0 0 0 0 0 0 0 0 127 0" result="hardAlpha"/>
            <feOffset dx="-8" dy="-4"/>
            <feComposite in2="hardAlpha" operator="arithmetic" k2="-1" k3="1"/>
            <feColorMatrix type="matrix" values="0 0 0 0 0.0666667 0 0 0 0 0.0196078 0 0 0 0 0.160784 0 0 0 0.16 0"/>
            <feBlend mode="normal" in2="shape" result="effect1_innerShadow_6123_37490"/>
        </filter>
        <filter id="filter20_i_6123_37490" x="759" y="267" width="58" height="54" filterUnits="userSpaceOnUse" color-interpolation-filters="sRGB">
            <feFlood flood-opacity="0" result="BackgroundImageFix"/>
            <feBlend mode="normal" in="SourceGraphic" in2="BackgroundImageFix" result="shape"/>
            <feColorMatrix in="SourceAlpha" type="matrix" values="0 0 0 0 0 0 0 0 0 0 0 0 0 0 0 0 0 0 127 0" result="hardAlpha"/>
            <feOffset dx="-8" dy="-4"/>
            <feComposite in2="hardAlpha" operator="arithmetic" k2="-1" k3="1"/>
            <feColorMatrix type="matrix" values="0 0 0 0 0.0666667 0 0 0 0 0.0196078 0 0 0 0 0.160784 0 0 0 0.16 0"/>
            <feBlend mode="normal" in2="shape" result="effect1_innerShadow_6123_37490"/>
        </filter>
        <filter id="filter21_i_6123_37490" x="815" y="267" width="32" height="54" filterUnits="userSpaceOnUse" color-interpolation-filters="sRGB">
            <feFlood flood-opacity="0" result="BackgroundImageFix"/>
            <feBlend mode="normal" in="SourceGraphic" in2="BackgroundImageFix" result="shape"/>
            <feColorMatrix in="SourceAlpha" type="matrix" values="0 0 0 0 0 0 0 0 0 0 0 0 0 0 0 0 0 0 127 0" result="hardAlpha"/>
            <feOffset dx="-8" dy="-4"/>
            <feComposite in2="hardAlpha" operator="arithmetic" k2="-1" k3="1"/>
            <feColorMatrix type="matrix" values="0 0 0 0 0.0666667 0 0 0 0 0.0196078 0 0 0 0 0.160784 0 0 0 0.16 0"/>
            <feBlend mode="normal" in2="shape" result="effect1_innerShadow_6123_37490"/>
        </filter>
    </defs>
</svg>
