<svg width="960" height="336" viewBox="0 0 960 336" fill="none" xmlns="http://www.w3.org/2000/svg">
    <rect width="960" height="336" fill="white"/>
    <path d="M25.1881 142V129.29H20.2781V127.6H31.8781V129.29H26.9681V142H25.1881ZM39.3903 142.3C37.957 142.3 36.7403 141.983 35.7403 141.35C34.7403 140.717 33.977 139.837 33.4503 138.71C32.9303 137.583 32.6703 136.28 32.6703 134.8C32.6703 133.32 32.9303 132.017 33.4503 130.89C33.977 129.763 34.7403 128.883 35.7403 128.25C36.7403 127.617 37.957 127.3 39.3903 127.3C41.057 127.3 42.427 127.723 43.5003 128.57C44.5803 129.417 45.3236 130.557 45.7303 131.99L43.9203 132.47C43.627 131.397 43.1036 130.55 42.3503 129.93C41.597 129.31 40.6103 129 39.3903 129C38.317 129 37.4236 129.243 36.7103 129.73C35.997 130.217 35.4603 130.897 35.1003 131.77C34.7403 132.637 34.557 133.647 34.5503 134.8C34.5436 135.947 34.7203 136.957 35.0803 137.83C35.4403 138.697 35.9803 139.377 36.7003 139.87C37.4203 140.357 38.317 140.6 39.3903 140.6C40.6103 140.6 41.597 140.29 42.3503 139.67C43.1036 139.043 43.627 138.197 43.9203 137.13L45.7303 137.61C45.3236 139.037 44.5803 140.177 43.5003 141.03C42.427 141.877 41.057 142.3 39.3903 142.3ZM47.9234 142V127.6H53.6134C53.7534 127.6 53.9201 127.607 54.1134 127.62C54.3068 127.627 54.4934 127.647 54.6734 127.68C55.4534 127.8 56.1068 128.067 56.6334 128.48C57.1668 128.893 57.5668 129.417 57.8334 130.05C58.1001 130.677 58.2334 131.373 58.2334 132.14C58.2334 133.253 57.9434 134.22 57.3634 135.04C56.7834 135.853 55.9334 136.363 54.8134 136.57L54.1334 136.68H49.7034V142H47.9234ZM56.4934 142L53.6534 136.14L55.4134 135.6L58.5334 142H56.4934ZM49.7034 134.99H53.5534C53.6801 134.99 53.8234 134.983 53.9834 134.97C54.1501 134.957 54.3068 134.933 54.4534 134.9C54.9134 134.793 55.2868 134.6 55.5734 134.32C55.8668 134.033 56.0801 133.7 56.2134 133.32C56.3468 132.933 56.4134 132.54 56.4134 132.14C56.4134 131.74 56.3468 131.35 56.2134 130.97C56.0801 130.583 55.8668 130.247 55.5734 129.96C55.2868 129.673 54.9134 129.48 54.4534 129.38C54.3068 129.34 54.1501 129.317 53.9834 129.31C53.8234 129.297 53.6801 129.29 53.5534 129.29H49.7034V134.99ZM64.7298 146.8V131.2C64.7298 130.953 64.7465 130.71 64.7798 130.47C64.8198 130.23 64.8765 130 64.9498 129.78C65.1298 129.24 65.4098 128.787 65.7898 128.42C66.1698 128.047 66.6232 127.767 67.1498 127.58C67.6765 127.393 68.2498 127.3 68.8698 127.3C69.7032 127.3 70.4365 127.463 71.0698 127.79C71.7098 128.11 72.2098 128.563 72.5698 129.15C72.9298 129.737 73.1098 130.427 73.1098 131.22C73.1098 131.86 72.9798 132.433 72.7198 132.94C72.4665 133.447 72.0765 133.83 71.5498 134.09C71.9032 134.177 72.2432 134.323 72.5698 134.53C72.9032 134.737 73.2032 135 73.4698 135.32C73.7365 135.64 73.9465 136.02 74.0998 136.46C74.2598 136.9 74.3398 137.397 74.3398 137.95C74.3398 138.823 74.1432 139.587 73.7498 140.24C73.3565 140.887 72.7932 141.393 72.0598 141.76C71.3332 142.12 70.4598 142.3 69.4398 142.3C68.8265 142.3 68.2732 142.217 67.7798 142.05C67.2932 141.89 66.8698 141.67 66.5098 141.39V146.8H64.7298ZM69.5198 140.61C70.1132 140.61 70.6365 140.497 71.0898 140.27C71.5432 140.037 71.8965 139.717 72.1498 139.31C72.4032 138.897 72.5298 138.417 72.5298 137.87C72.5298 136.983 72.2032 136.313 71.5498 135.86C70.8965 135.4 70.0198 135.16 68.9198 135.14V133.54C69.3798 133.493 69.7865 133.38 70.1398 133.2C70.4998 133.02 70.7798 132.767 70.9798 132.44C71.1865 132.113 71.2898 131.713 71.2898 131.24C71.2898 130.527 71.0665 129.973 70.6198 129.58C70.1732 129.187 69.6032 128.99 68.9098 128.99C68.4698 128.99 68.0498 129.09 67.6498 129.29C67.2565 129.483 66.9665 129.813 66.7798 130.28C66.6798 130.54 66.6165 130.817 66.5898 131.11C66.5632 131.397 66.5498 131.647 66.5498 131.86V137.71C66.5498 137.903 66.5598 138.123 66.5798 138.37C66.6065 138.61 66.6465 138.823 66.6998 139.01C66.8665 139.523 67.2232 139.92 67.7698 140.2C68.3165 140.473 68.8998 140.61 69.5198 140.61Z" fill="#110529"/>
    <path d="M25.3268 278V265.29H20.4168V263.6H32.0168V265.29H27.1068V278H25.3268ZM39.529 278.3C38.0957 278.3 36.879 277.983 35.879 277.35C34.879 276.717 34.1157 275.837 33.589 274.71C33.069 273.583 32.809 272.28 32.809 270.8C32.809 269.32 33.069 268.017 33.589 266.89C34.1157 265.763 34.879 264.883 35.879 264.25C36.879 263.617 38.0957 263.3 39.529 263.3C41.1957 263.3 42.5657 263.723 43.639 264.57C44.719 265.417 45.4623 266.557 45.869 267.99L44.059 268.47C43.7657 267.397 43.2423 266.55 42.489 265.93C41.7357 265.31 40.749 265 39.529 265C38.4557 265 37.5623 265.243 36.849 265.73C36.1357 266.217 35.599 266.897 35.239 267.77C34.879 268.637 34.6957 269.647 34.689 270.8C34.6823 271.947 34.859 272.957 35.219 273.83C35.579 274.697 36.119 275.377 36.839 275.87C37.559 276.357 38.4557 276.6 39.529 276.6C40.749 276.6 41.7357 276.29 42.489 275.67C43.2423 275.043 43.7657 274.197 44.059 273.13L45.869 273.61C45.4623 275.037 44.719 276.177 43.639 277.03C42.5657 277.877 41.1957 278.3 39.529 278.3ZM48.0621 278V263.6H53.7521C53.8921 263.6 54.0588 263.607 54.2521 263.62C54.4454 263.627 54.6321 263.647 54.8121 263.68C55.5921 263.8 56.2454 264.067 56.7721 264.48C57.3054 264.893 57.7054 265.417 57.9721 266.05C58.2388 266.677 58.3721 267.373 58.3721 268.14C58.3721 269.253 58.0821 270.22 57.5021 271.04C56.9221 271.853 56.0721 272.363 54.9521 272.57L54.2721 272.68H49.8421V278H48.0621ZM56.6321 278L53.7921 272.14L55.5521 271.6L58.6721 278H56.6321ZM49.8421 270.99H53.6921C53.8188 270.99 53.9621 270.983 54.1221 270.97C54.2888 270.957 54.4454 270.933 54.5921 270.9C55.0521 270.793 55.4254 270.6 55.7121 270.32C56.0054 270.033 56.2188 269.7 56.3521 269.32C56.4854 268.933 56.5521 268.54 56.5521 268.14C56.5521 267.74 56.4854 267.35 56.3521 266.97C56.2188 266.583 56.0054 266.247 55.7121 265.96C55.4254 265.673 55.0521 265.48 54.5921 265.38C54.4454 265.34 54.2888 265.317 54.1221 265.31C53.9621 265.297 53.8188 265.29 53.6921 265.29H49.8421V270.99ZM69.1485 278.3C68.1285 278.3 67.2552 278.05 66.5285 277.55C65.8018 277.043 65.2452 276.36 64.8585 275.5C64.4718 274.64 64.2785 273.673 64.2785 272.6C64.2785 271.513 64.4718 270.543 64.8585 269.69C65.2518 268.83 65.8152 268.15 66.5485 267.65C67.2818 267.15 68.1652 266.9 69.1985 266.9C70.1652 266.9 70.9852 267.143 71.6585 267.63C72.3385 268.11 72.8185 268.777 73.0985 269.63L72.7985 270.15V267.2H74.3885V278H72.7985V275.02L73.0985 275.54C72.8185 276.4 72.3285 277.077 71.6285 277.57C70.9352 278.057 70.1085 278.3 69.1485 278.3ZM69.3685 276.67C70.0818 276.67 70.6685 276.497 71.1285 276.15C71.5952 275.797 71.9385 275.313 72.1585 274.7C72.3852 274.08 72.4985 273.377 72.4985 272.59C72.4985 271.79 72.3852 271.087 72.1585 270.48C71.9385 269.867 71.5985 269.39 71.1385 269.05C70.6785 268.703 70.0952 268.53 69.3885 268.53C68.6885 268.53 68.0985 268.703 67.6185 269.05C67.1385 269.39 66.7752 269.867 66.5285 270.48C66.2885 271.087 66.1685 271.793 66.1685 272.6C66.1685 273.36 66.2852 274.047 66.5185 274.66C66.7518 275.273 67.1052 275.763 67.5785 276.13C68.0518 276.49 68.6485 276.67 69.3685 276.67Z" fill="#110529"/>
    <path d="M740 112V24" stroke="#D3D7E0" stroke-width="2" stroke-linecap="square" stroke-dasharray="6 6"/>
    <path d="M212 112V24" stroke="#D3D7E0" stroke-width="2" stroke-linecap="square" stroke-dasharray="6 6"/>
    <path d="M226.268 37.21C224.714 37.21 223.412 36.181 222.999 34.711L224.406 34.333C224.637 35.229 225.47 35.796 226.31 35.796C227.416 35.796 228.291 34.907 228.291 33.829C228.291 32.723 227.388 31.855 226.31 31.855C225.484 31.855 224.917 32.247 224.602 32.667L223.328 32.219L223.636 26.92H229.075V28.299H224.945L224.777 31.071C225.274 30.714 225.904 30.525 226.499 30.525C228.382 30.525 229.768 31.939 229.768 33.829C229.768 35.705 228.151 37.21 226.268 37.21ZM231.672 29.629C232.281 29.678 232.456 29.202 232.386 28.607H231.581V26.92H233.128V28.747C233.128 29.846 232.589 30.462 231.581 30.28L231.672 29.629ZM239.15 37.21C236.777 37.21 235.132 35.663 235.132 33.29V26.927L236.616 26.92V33.213C236.616 34.935 237.897 35.831 239.15 35.831C240.417 35.831 241.684 34.914 241.684 33.213V26.92H243.168V33.29C243.168 35.663 241.523 37.21 239.15 37.21ZM247.639 37V28.299H244.286V26.92H252.455V28.299H249.102V37H247.639ZM253.576 37V26.92H257.65C257.846 26.92 258.161 26.934 258.427 26.976C260.114 27.235 260.954 28.516 260.954 30.147C260.954 31.491 260.38 32.597 259.239 33.094L261.143 37H259.47L257.713 33.381H255.039V37H253.576ZM255.039 31.995H257.594C257.776 31.995 258.021 31.981 258.231 31.932C259.127 31.715 259.463 30.889 259.463 30.147C259.463 29.405 259.127 28.579 258.231 28.369C258.021 28.313 257.776 28.299 257.594 28.299H255.039V31.995Z" fill="#D3D7E0"/>
    <path d="M272 112V24" stroke="#D3D7E0" stroke-width="2" stroke-linecap="square" stroke-dasharray="6 6"/>
    <path d="M281.442 37V26.92H282.905V35.621H287.469V37H281.442Z" fill="#D3D7E0"/>
    <path d="M296 112V24" stroke="#D3D7E0" stroke-width="2" stroke-linecap="square" stroke-dasharray="6 6"/>
    <path d="M309.858 37V26.92H315.829V28.383H311.321V31.225H314.989V32.695H311.321V37H309.858ZM317.09 37V26.92H321.164C321.36 26.92 321.675 26.934 321.941 26.976C323.628 27.235 324.468 28.516 324.468 30.147C324.468 31.491 323.894 32.597 322.753 33.094L324.657 37H322.984L321.227 33.381H318.553V37H317.09ZM318.553 31.995H321.108C321.29 31.995 321.535 31.981 321.745 31.932C322.641 31.715 322.977 30.889 322.977 30.147C322.977 29.405 322.641 28.579 321.745 28.369C321.535 28.313 321.29 28.299 321.108 28.299H318.553V31.995ZM327.953 37V28.53L326.056 29.685V28.054L327.953 26.92H329.444V37H327.953Z" fill="#D3D7E0"/>
    <path d="M344 112V24" stroke="#D3D7E0" stroke-width="2" stroke-linecap="square" stroke-dasharray="6 6"/>
    <path d="M355.735 37.21C352.711 37.21 350.968 35.075 350.968 31.96C350.968 28.845 352.711 26.71 355.735 26.71C358.059 26.71 359.62 27.977 360.215 29.965L358.731 30.364C358.332 28.957 357.331 28.103 355.735 28.103C353.593 28.103 352.522 29.65 352.515 31.96C352.501 34.27 353.593 35.817 355.735 35.817C357.331 35.817 358.332 34.963 358.731 33.556L360.215 33.955C359.62 35.943 358.059 37.21 355.735 37.21ZM361.754 37V26.92H364.911C365.093 26.92 365.695 26.92 366.164 26.983C368.53 27.284 369.79 29.391 369.79 31.96C369.79 34.529 368.53 36.636 366.164 36.937C365.695 37 365.093 37 364.911 37H361.754ZM363.252 35.607H364.911C365.233 35.607 365.723 35.6 366.059 35.537C367.599 35.243 368.236 33.689 368.236 31.96C368.236 30.189 367.571 28.663 366.059 28.383C365.723 28.32 365.219 28.313 364.911 28.313H363.252V35.607ZM371.42 37V26.92H375.494C375.69 26.92 376.005 26.934 376.271 26.976C377.958 27.235 378.798 28.516 378.798 30.147C378.798 31.491 378.224 32.597 377.083 33.094L378.987 37H377.314L375.557 33.381H372.883V37H371.42ZM372.883 31.995H375.438C375.62 31.995 375.865 31.981 376.075 31.932C376.971 31.715 377.307 30.889 377.307 30.147C377.307 29.405 376.971 28.579 376.075 28.369C375.865 28.313 375.62 28.299 375.438 28.299H372.883V31.995ZM382.283 37V28.53L380.386 29.685V28.054L382.283 26.92H383.774V37H382.283Z" fill="#D3D7E0"/>
    <path d="M392 112V24" stroke="#D3D7E0" stroke-width="2" stroke-linecap="square" stroke-dasharray="6 6"/>
    <path d="M404.703 37V26.92H410.674V28.383H406.166V31.225H409.834V32.695H406.166V37H404.703ZM411.935 37V26.92H416.009C416.205 26.92 416.52 26.934 416.786 26.976C418.473 27.235 419.313 28.516 419.313 30.147C419.313 31.491 418.739 32.597 417.598 33.094L419.502 37H417.829L416.072 33.381H413.398V37H411.935ZM413.398 31.995H415.953C416.135 31.995 416.38 31.981 416.59 31.932C417.486 31.715 417.822 30.889 417.822 30.147C417.822 29.405 417.486 28.579 416.59 28.369C416.38 28.313 416.135 28.299 415.953 28.299H413.398V31.995ZM420.761 36.993L420.768 35.691L425.157 31.757C425.864 31.127 426.074 30.581 426.074 30.007C426.074 28.929 425.297 28.103 424.212 28.103C423.092 28.103 422.28 28.985 422.294 30H420.796C420.796 28.047 422.231 26.71 424.24 26.71C426.144 26.71 427.579 28.117 427.579 30.028C427.579 31.407 427.033 32.037 425.941 32.996L423.022 35.6H427.579V36.993H420.761Z" fill="#D3D7E0"/>
    <path d="M440 112V24" stroke="#D3D7E0" stroke-width="2" stroke-linecap="square" stroke-dasharray="6 6"/>
    <path d="M450.58 37.21C447.556 37.21 445.813 35.075 445.813 31.96C445.813 28.845 447.556 26.71 450.58 26.71C452.904 26.71 454.465 27.977 455.06 29.965L453.576 30.364C453.177 28.957 452.176 28.103 450.58 28.103C448.438 28.103 447.367 29.65 447.36 31.96C447.346 34.27 448.438 35.817 450.58 35.817C452.176 35.817 453.177 34.963 453.576 33.556L455.06 33.955C454.465 35.943 452.904 37.21 450.58 37.21ZM456.599 37V26.92H459.756C459.938 26.92 460.54 26.92 461.009 26.983C463.375 27.284 464.635 29.391 464.635 31.96C464.635 34.529 463.375 36.636 461.009 36.937C460.54 37 459.938 37 459.756 37H456.599ZM458.097 35.607H459.756C460.078 35.607 460.568 35.6 460.904 35.537C462.444 35.243 463.081 33.689 463.081 31.96C463.081 30.189 462.416 28.663 460.904 28.383C460.568 28.32 460.064 28.313 459.756 28.313H458.097V35.607ZM466.265 37V26.92H470.339C470.535 26.92 470.85 26.934 471.116 26.976C472.803 27.235 473.643 28.516 473.643 30.147C473.643 31.491 473.069 32.597 471.928 33.094L473.832 37H472.159L470.402 33.381H467.728V37H466.265ZM467.728 31.995H470.283C470.465 31.995 470.71 31.981 470.92 31.932C471.816 31.715 472.152 30.889 472.152 30.147C472.152 29.405 471.816 28.579 470.92 28.369C470.71 28.313 470.465 28.299 470.283 28.299H467.728V31.995ZM475.091 36.993L475.098 35.691L479.487 31.757C480.194 31.127 480.404 30.581 480.404 30.007C480.404 28.929 479.627 28.103 478.542 28.103C477.422 28.103 476.61 28.985 476.624 30H475.126C475.126 28.047 476.561 26.71 478.57 26.71C480.474 26.71 481.909 28.117 481.909 30.028C481.909 31.407 481.363 32.037 480.271 32.996L477.352 35.6H481.909V36.993H475.091Z" fill="#D3D7E0"/>
    <path d="M488 112V24" stroke="#D3D7E0" stroke-width="2" stroke-linecap="square" stroke-dasharray="6 6"/>
    <path d="M500.805 37V26.92H506.776V28.383H502.268V31.225H505.936V32.695H502.268V37H500.805ZM508.038 37V26.92H512.112C512.308 26.92 512.623 26.934 512.889 26.976C514.576 27.235 515.416 28.516 515.416 30.147C515.416 31.491 514.842 32.597 513.701 33.094L515.605 37H513.932L512.175 33.381H509.501V37H508.038ZM509.501 31.995H512.056C512.238 31.995 512.483 31.981 512.693 31.932C513.589 31.715 513.925 30.889 513.925 30.147C513.925 29.405 513.589 28.579 512.693 28.369C512.483 28.313 512.238 28.299 512.056 28.299H509.501V31.995ZM519.964 37.189C518.466 37.189 517.15 36.293 516.723 34.858L518.137 34.466C518.403 35.341 519.138 35.81 519.964 35.803C521.07 35.789 521.833 34.984 521.833 33.871C521.833 32.751 521.07 31.939 519.95 31.939C519.628 31.939 519.285 32.037 518.998 32.191L518.312 31.036L521.392 28.313H517.122V26.92H523.184V28.313L520.692 30.707C522.323 30.924 523.331 32.233 523.331 33.871C523.331 35.796 521.847 37.189 519.964 37.189Z" fill="#D3D7E0"/>
    <path d="M536 112V24" stroke="#D3D7E0" stroke-width="2" stroke-linecap="square" stroke-dasharray="6 6"/>
    <path d="M152 24L152 110" stroke="#D3D7E0" stroke-width="2" stroke-linecap="square" stroke-dasharray="6 6"/>
    <path d="M582.682 37.21C585.006 37.21 586.567 35.943 587.162 33.955L585.678 33.556C585.279 34.963 584.278 35.817 582.682 35.817C580.54 35.817 579.448 34.27 579.462 31.96C579.469 29.65 580.54 28.103 582.682 28.103C584.278 28.103 585.279 28.957 585.678 30.364L587.162 29.965C586.567 27.977 585.006 26.71 582.682 26.71C579.658 26.71 577.915 28.845 577.915 31.96C577.915 35.075 579.658 37.21 582.682 37.21ZM588.702 37H591.859C592.041 37 592.643 37 593.112 36.937C595.478 36.636 596.738 34.529 596.738 31.96C596.738 29.391 595.478 27.284 593.112 26.983C592.643 26.92 592.041 26.92 591.859 26.92H588.702V37ZM590.2 35.607V28.313H591.859C592.167 28.313 592.671 28.32 593.007 28.383C594.519 28.663 595.184 30.189 595.184 31.96C595.184 33.689 594.547 35.243 593.007 35.537C592.671 35.6 592.181 35.607 591.859 35.607H590.2ZM598.368 37H599.831V33.381H602.505L604.262 37H605.935L604.031 33.094C605.172 32.597 605.746 31.491 605.746 30.147C605.746 28.516 604.906 27.235 603.219 26.976C602.953 26.934 602.638 26.92 602.442 26.92H598.368V37ZM599.831 31.995V28.299H602.386C602.568 28.299 602.813 28.313 603.023 28.369C603.919 28.579 604.255 29.405 604.255 30.147C604.255 30.889 603.919 31.715 603.023 31.932C602.813 31.981 602.568 31.995 602.386 31.995H599.831ZM610.294 37.189C612.177 37.189 613.661 35.796 613.661 33.871C613.661 32.233 612.653 30.924 611.022 30.707L613.514 28.313V26.92H607.452V28.313H611.722L608.642 31.036L609.328 32.191C609.615 32.037 609.958 31.939 610.28 31.939C611.4 31.939 612.163 32.751 612.163 33.871C612.163 34.984 611.4 35.789 610.294 35.803C609.468 35.81 608.733 35.341 608.467 34.466L607.053 34.858C607.48 36.293 608.796 37.189 610.294 37.189Z" fill="#D3D7E0"/>
    <path d="M656 112V24" stroke="#D3D7E0" stroke-width="2" stroke-linecap="square" stroke-dasharray="6 6"/>
    <path d="M686.593 37H688.056V32.695H691.724V31.225H688.056V28.383H692.564V26.92H686.593V37ZM693.826 37H695.289V33.381H697.963L699.72 37H701.393L699.489 33.094C700.63 32.597 701.204 31.491 701.204 30.147C701.204 28.516 700.364 27.235 698.677 26.976C698.411 26.934 698.096 26.92 697.9 26.92H693.826V37ZM695.289 31.995V28.299H697.844C698.026 28.299 698.271 28.313 698.481 28.369C699.377 28.579 699.713 29.405 699.713 30.147C699.713 30.889 699.377 31.715 698.481 31.932C698.271 31.981 698.026 31.995 697.844 31.995H695.289ZM707.201 37H708.685V35.243H709.686V33.857H708.685V31.127H707.201V33.857H704.324L707.6 26.92H705.927L702.651 33.857V35.243H707.201V37Z" fill="#D3D7E0"/>
    <rect width="37" height="20" transform="translate(107 76)" fill="white"/>
    <path d="M115.72 92.24C114.984 92.24 114.333 92.0933 113.768 91.8C113.203 91.5013 112.76 91.088 112.44 90.56C112.12 90.032 111.96 89.416 111.96 88.712C111.96 88.024 112.123 87.4027 112.448 86.848C112.779 86.2933 113.275 85.8667 113.936 85.568L113.912 86.088C113.373 85.8267 112.96 85.4587 112.672 84.984C112.384 84.504 112.24 83.9733 112.24 83.392C112.24 82.7413 112.389 82.1813 112.688 81.712C112.987 81.2427 113.397 80.88 113.92 80.624C114.443 80.368 115.043 80.24 115.72 80.24C116.397 80.24 116.997 80.368 117.52 80.624C118.043 80.88 118.453 81.2427 118.752 81.712C119.051 82.1813 119.2 82.7413 119.2 83.392C119.2 83.9733 119.064 84.5013 118.792 84.976C118.52 85.4453 118.101 85.816 117.536 86.088L117.504 85.576C118.165 85.864 118.661 86.288 118.992 86.848C119.328 87.4027 119.496 88.024 119.496 88.712C119.496 89.416 119.333 90.032 119.008 90.56C118.688 91.088 118.243 91.5013 117.672 91.8C117.107 92.0933 116.456 92.24 115.72 92.24ZM115.72 90.88C116.392 90.88 116.936 90.696 117.352 90.328C117.773 89.9547 117.984 89.416 117.984 88.712C117.984 88.0027 117.776 87.464 117.36 87.096C116.949 86.7227 116.403 86.536 115.72 86.536C115.043 86.536 114.496 86.7227 114.08 87.096C113.669 87.464 113.464 88.0027 113.464 88.712C113.464 89.416 113.672 89.9547 114.088 90.328C114.504 90.696 115.048 90.88 115.72 90.88ZM115.72 85.168C116.307 85.168 116.781 85.0213 117.144 84.728C117.507 84.4293 117.688 83.984 117.688 83.392C117.688 82.8 117.507 82.3573 117.144 82.064C116.781 81.7653 116.307 81.616 115.72 81.616C115.139 81.616 114.664 81.7653 114.296 82.064C113.933 82.3573 113.752 82.8 113.752 83.392C113.752 83.984 113.933 84.4293 114.296 84.728C114.664 85.0213 115.139 85.168 115.72 85.168ZM125.541 92.24C124.73 92.24 124.048 92.04 123.493 91.64C122.938 91.2347 122.517 90.688 122.229 90C121.946 89.3067 121.805 88.5307 121.805 87.672C121.805 86.8027 121.946 86.024 122.229 85.336C122.517 84.648 122.938 84.1067 123.493 83.712C124.053 83.3173 124.738 83.12 125.549 83.12C126.349 83.12 127.037 83.32 127.613 83.72C128.194 84.1147 128.64 84.656 128.949 85.344C129.258 86.032 129.413 86.808 129.413 87.672C129.413 88.536 129.258 89.312 128.949 90C128.64 90.688 128.194 91.2347 127.613 91.64C127.037 92.04 126.346 92.24 125.541 92.24ZM121.565 92V80.48H122.997V85.64H122.837V92H121.565ZM125.365 90.936C125.936 90.936 126.408 90.792 126.781 90.504C127.154 90.216 127.434 89.8267 127.621 89.336C127.808 88.84 127.901 88.2853 127.901 87.672C127.901 87.064 127.808 86.5147 127.621 86.024C127.44 85.5333 127.157 85.144 126.773 84.856C126.394 84.568 125.912 84.424 125.325 84.424C124.765 84.424 124.301 84.5627 123.933 84.84C123.565 85.112 123.29 85.4933 123.109 85.984C122.928 86.4693 122.837 87.032 122.837 87.672C122.837 88.3013 122.925 88.864 123.101 89.36C123.282 89.8507 123.56 90.2373 123.933 90.52C124.306 90.7973 124.784 90.936 125.365 90.936ZM135.135 92.24C134.324 92.24 133.642 92.04 133.087 91.64C132.532 91.2347 132.111 90.688 131.823 90C131.54 89.3067 131.399 88.5307 131.399 87.672C131.399 86.8027 131.54 86.024 131.823 85.336C132.111 84.648 132.532 84.1067 133.087 83.712C133.647 83.3173 134.332 83.12 135.143 83.12C135.943 83.12 136.631 83.32 137.207 83.72C137.788 84.1147 138.234 84.656 138.543 85.344C138.852 86.032 139.007 86.808 139.007 87.672C139.007 88.536 138.852 89.312 138.543 90C138.234 90.688 137.788 91.2347 137.207 91.64C136.631 92.04 135.94 92.24 135.135 92.24ZM131.159 95.84V83.36H132.431V89.72H132.591V95.84H131.159ZM134.959 90.936C135.53 90.936 136.002 90.792 136.375 90.504C136.748 90.216 137.028 89.8267 137.215 89.336C137.402 88.84 137.495 88.2853 137.495 87.672C137.495 87.064 137.402 86.5147 137.215 86.024C137.034 85.5333 136.751 85.144 136.367 84.856C135.988 84.568 135.506 84.424 134.919 84.424C134.359 84.424 133.895 84.5627 133.527 84.84C133.159 85.112 132.884 85.4933 132.703 85.984C132.522 86.4693 132.431 87.032 132.431 87.672C132.431 88.3013 132.519 88.864 132.695 89.36C132.876 89.8507 133.154 90.2373 133.527 90.52C133.9 90.7973 134.378 90.936 134.959 90.936Z" fill="#110529"/>
    <rect width="43" height="20" transform="translate(160 76)" fill="white"/>
    <path d="M167.128 92V82.056L164.96 83.368V81.776L167.128 80.48H168.576V92H167.128ZM174.78 92.224C174.209 92.224 173.679 92.12 173.188 91.912C172.697 91.6987 172.273 91.4 171.916 91.016C171.564 90.6267 171.305 90.1653 171.14 89.632L172.508 89.24C172.684 89.7733 172.977 90.1787 173.388 90.456C173.799 90.7333 174.26 90.8693 174.772 90.864C175.241 90.8533 175.647 90.7467 175.988 90.544C176.335 90.336 176.601 90.0533 176.788 89.696C176.98 89.3387 177.076 88.9253 177.076 88.456C177.076 87.7413 176.863 87.1627 176.436 86.72C176.009 86.272 175.449 86.048 174.756 86.048C174.564 86.048 174.361 86.0747 174.148 86.128C173.94 86.1813 173.745 86.256 173.564 86.352L172.876 85.224L177.148 81.36L177.332 81.84H171.596V80.48H178.388V81.848L174.748 85.336L174.732 84.832C175.495 84.7787 176.161 84.904 176.732 85.208C177.303 85.512 177.745 85.9467 178.06 86.512C178.38 87.0773 178.54 87.7253 178.54 88.456C178.54 89.192 178.375 89.8427 178.044 90.408C177.713 90.9733 177.265 91.4187 176.7 91.744C176.135 92.064 175.495 92.224 174.78 92.224ZM184.588 92.24C183.777 92.24 183.095 92.04 182.54 91.64C181.985 91.2347 181.564 90.688 181.276 90C180.993 89.3067 180.852 88.5307 180.852 87.672C180.852 86.8027 180.993 86.024 181.276 85.336C181.564 84.648 181.985 84.1067 182.54 83.712C183.1 83.3173 183.785 83.12 184.596 83.12C185.396 83.12 186.084 83.32 186.66 83.72C187.241 84.1147 187.687 84.656 187.996 85.344C188.305 86.032 188.46 86.808 188.46 87.672C188.46 88.536 188.305 89.312 187.996 90C187.687 90.688 187.241 91.2347 186.66 91.64C186.084 92.04 185.393 92.24 184.588 92.24ZM180.612 92V80.48H182.044V85.64H181.884V92H180.612ZM184.412 90.936C184.983 90.936 185.455 90.792 185.828 90.504C186.201 90.216 186.481 89.8267 186.668 89.336C186.855 88.84 186.948 88.2853 186.948 87.672C186.948 87.064 186.855 86.5147 186.668 86.024C186.487 85.5333 186.204 85.144 185.82 84.856C185.441 84.568 184.959 84.424 184.372 84.424C183.812 84.424 183.348 84.5627 182.98 84.84C182.612 85.112 182.337 85.4933 182.156 85.984C181.975 86.4693 181.884 87.032 181.884 87.672C181.884 88.3013 181.972 88.864 182.148 89.36C182.329 89.8507 182.607 90.2373 182.98 90.52C183.353 90.7973 183.831 90.936 184.412 90.936ZM194.182 92.24C193.371 92.24 192.688 92.04 192.134 91.64C191.579 91.2347 191.158 90.688 190.87 90C190.587 89.3067 190.446 88.5307 190.446 87.672C190.446 86.8027 190.587 86.024 190.87 85.336C191.158 84.648 191.579 84.1067 192.134 83.712C192.694 83.3173 193.379 83.12 194.19 83.12C194.99 83.12 195.678 83.32 196.254 83.72C196.835 84.1147 197.28 84.656 197.59 85.344C197.899 86.032 198.054 86.808 198.054 87.672C198.054 88.536 197.899 89.312 197.59 90C197.28 90.688 196.835 91.2347 196.254 91.64C195.678 92.04 194.987 92.24 194.182 92.24ZM190.206 95.84V83.36H191.478V89.72H191.638V95.84H190.206ZM194.006 90.936C194.576 90.936 195.048 90.792 195.422 90.504C195.795 90.216 196.075 89.8267 196.262 89.336C196.448 88.84 196.542 88.2853 196.542 87.672C196.542 87.064 196.448 86.5147 196.262 86.024C196.08 85.5333 195.798 85.144 195.414 84.856C195.035 84.568 194.552 84.424 193.966 84.424C193.406 84.424 192.942 84.5627 192.574 84.84C192.206 85.112 191.931 85.4933 191.75 85.984C191.568 86.4693 191.478 87.032 191.478 87.672C191.478 88.3013 191.566 88.864 191.742 89.36C191.923 89.8507 192.2 90.2373 192.574 90.52C192.947 90.7973 193.424 90.936 194.006 90.936Z" fill="#110529"/>
    <g filter="url(#filter0_i_6992_6181)">
        <rect x="96" y="108" width="56" height="52" rx="1" fill="#D6E0FF"/>
        <rect x="96" y="108" width="56" height="52" rx="1" stroke="#110529" stroke-width="2" stroke-linecap="round"/>
        <path d="M112.553 142.3C111.439 142.3 110.456 142.07 109.603 141.61C108.749 141.15 108.079 140.507 107.593 139.68C107.113 138.847 106.873 137.87 106.873 136.75V127.61L108.673 127.6V136.6C108.673 137.28 108.786 137.873 109.013 138.38C109.246 138.88 109.553 139.297 109.933 139.63C110.313 139.963 110.729 140.213 111.183 140.38C111.643 140.54 112.099 140.62 112.553 140.62C113.013 140.62 113.473 140.537 113.933 140.37C114.393 140.203 114.809 139.957 115.183 139.63C115.563 139.297 115.866 138.877 116.093 138.37C116.319 137.863 116.433 137.273 116.433 136.6V127.6H118.233V136.75C118.233 137.863 117.989 138.837 117.503 139.67C117.023 140.503 116.356 141.15 115.503 141.61C114.649 142.07 113.666 142.3 112.553 142.3ZM121.033 142V127.6H122.653L128.093 139.07L133.503 127.6H135.143V141.99H133.453V131.51L128.563 142H127.613L122.723 131.51V142H121.033ZM138.147 142V127.6H139.927V142H138.147Z" fill="#110529"/>
    </g>
    <g filter="url(#filter1_i_6992_6181)">
        <rect x="152" y="108" width="60" height="52" rx="1" fill="#D3D7E0"/>
        <rect x="152" y="108" width="60" height="52" rx="1" stroke="#110529" stroke-width="2" stroke-linecap="round"/>
    </g>
    <g filter="url(#filter2_i_6992_6181)">
        <rect x="212" y="108" width="336" height="52" rx="1" fill="#99E099"/>
        <rect x="212" y="108" width="336" height="52" rx="1" stroke="#110529" stroke-width="2" stroke-linecap="round"/>
        <path d="M378.758 142L373.938 127.6H375.788L379.978 140.11L384.208 127.6H386.058L381.238 142H378.758Z" fill="#110529"/>
    </g>
    <g filter="url(#filter3_i_6992_6181)">
        <rect x="548" y="108" width="30" height="52" rx="1" fill="#CBEB67"/>
    </g>
    <rect x="548" y="108" width="30" height="52" rx="1" stroke="#110529" stroke-width="2" stroke-linecap="round"/>
    <g filter="url(#filter4_i_6992_6181)">
        <rect x="614" y="108" width="30" height="52" rx="1" fill="#FAAAFA"/>
    </g>
    <rect x="614" y="108" width="30" height="52" rx="1" stroke="#110529" stroke-width="2" stroke-linecap="round"/>
    <g filter="url(#filter5_i_6992_6181)">
        <rect x="578" y="108" width="36" height="52" rx="1" fill="#FFCB8F"/>
    </g>
    <rect x="578" y="108" width="36" height="52" rx="1" stroke="#110529" stroke-width="2" stroke-linecap="round"/>
    <path d="M557.447 142V127.6H559.247L566.757 138.85V127.6H568.557V142H566.757L559.247 130.74V142H557.447Z" fill="#110529"/>
    <path d="M623.447 142V127.6H625.247L632.757 138.85V127.6H634.557V142H632.757L625.247 130.74V142H623.447Z" fill="#110529"/>
    <path d="M590.593 142V127.6H595.033C595.313 127.6 596.173 127.6 596.853 127.69C600.183 128.13 601.913 131.13 601.913 134.8C601.913 138.48 600.183 141.47 596.853 141.91C596.183 142 595.303 142 595.033 142H590.593ZM592.423 140.3H595.033C595.533 140.3 596.233 140.28 596.703 140.19C599.063 139.76 600.023 137.47 600.023 134.8C600.023 132.08 599.033 129.83 596.703 129.41C596.233 129.32 595.513 129.3 595.033 129.3H592.423V140.3Z" fill="#110529"/>
    <g filter="url(#filter6_i_6992_6181)">
        <rect x="644" y="108" width="96" height="52" rx="1" fill="#C1ADFF"/>
        <rect x="644" y="108" width="96" height="52" rx="1" stroke="#110529" stroke-width="2" stroke-linecap="round"/>
        <path d="M691.244 142.29C690.237 142.29 689.384 142.017 688.684 141.47C687.984 140.923 687.504 140.19 687.244 139.27L689.014 138.85C689.121 139.337 689.377 139.75 689.784 140.09C690.197 140.43 690.671 140.6 691.204 140.6C691.551 140.6 691.904 140.517 692.264 140.35C692.624 140.177 692.901 139.897 693.094 139.51C693.227 139.243 693.304 138.95 693.324 138.63C693.344 138.303 693.354 137.92 693.354 137.48V127.6H695.154V137.48C695.154 137.893 695.151 138.263 695.144 138.59C695.144 138.917 695.111 139.23 695.044 139.53C694.984 139.823 694.864 140.123 694.684 140.43C694.324 141.063 693.841 141.533 693.234 141.84C692.634 142.14 691.971 142.29 691.244 142.29Z" fill="#110529"/>
    </g>
    <g filter="url(#filter7_i_6992_6181)">
        <rect x="740" y="108" width="144" height="52" rx="1" fill="#FAFAAA"/>
        <rect x="740" y="108" width="144" height="52" rx="1" stroke="#110529" stroke-width="2" stroke-linecap="round"/>
        <path d="M812.093 142.3C810.66 142.3 809.443 141.983 808.443 141.35C807.443 140.717 806.68 139.837 806.153 138.71C805.633 137.583 805.373 136.28 805.373 134.8C805.373 133.32 805.633 132.017 806.153 130.89C806.68 129.763 807.443 128.883 808.443 128.25C809.443 127.617 810.66 127.3 812.093 127.3C813.76 127.3 815.13 127.723 816.203 128.57C817.283 129.417 818.027 130.557 818.433 131.99L816.623 132.47C816.33 131.397 815.807 130.55 815.053 129.93C814.3 129.31 813.313 129 812.093 129C811.02 129 810.127 129.243 809.413 129.73C808.7 130.217 808.163 130.897 807.803 131.77C807.443 132.637 807.26 133.647 807.253 134.8C807.247 135.947 807.423 136.957 807.783 137.83C808.143 138.697 808.683 139.377 809.403 139.87C810.123 140.357 811.02 140.6 812.093 140.6C813.313 140.6 814.3 140.29 815.053 139.67C815.807 139.043 816.33 138.197 816.623 137.13L818.433 137.61C818.027 139.037 817.283 140.177 816.203 141.03C815.13 141.877 813.76 142.3 812.093 142.3Z" fill="#110529"/>
    </g>
    <g filter="url(#filter8_i_6992_6181)">
        <rect x="96" y="244" width="56" height="52" rx="1" fill="#D6E0FF"/>
        <rect x="96" y="244" width="56" height="52" rx="1" stroke="#110529" stroke-width="2" stroke-linecap="round"/>
        <path d="M112.553 278.3C111.439 278.3 110.456 278.07 109.603 277.61C108.749 277.15 108.079 276.507 107.593 275.68C107.113 274.847 106.873 273.87 106.873 272.75V263.61L108.673 263.6V272.6C108.673 273.28 108.786 273.873 109.013 274.38C109.246 274.88 109.553 275.297 109.933 275.63C110.313 275.963 110.729 276.213 111.183 276.38C111.643 276.54 112.099 276.62 112.553 276.62C113.013 276.62 113.473 276.537 113.933 276.37C114.393 276.203 114.809 275.957 115.183 275.63C115.563 275.297 115.866 274.877 116.093 274.37C116.319 273.863 116.433 273.273 116.433 272.6V263.6H118.233V272.75C118.233 273.863 117.989 274.837 117.503 275.67C117.023 276.503 116.356 277.15 115.503 277.61C114.649 278.07 113.666 278.3 112.553 278.3ZM121.033 278V263.6H122.653L128.093 275.07L133.503 263.6H135.143V277.99H133.453V267.51L128.563 278H127.613L122.723 267.51V278H121.033ZM138.147 278V263.6H139.927V278H138.147Z" fill="#110529"/>
    </g>
    <g filter="url(#filter9_i_6992_6181)">
        <rect x="152" y="244" width="60" height="52" rx="1" fill="#D3D7E0"/>
        <rect x="152" y="244" width="60" height="52" rx="1" stroke="#110529" stroke-width="2" stroke-linecap="round"/>
    </g>
    <g filter="url(#filter10_i_6992_6181)">
        <rect x="212" y="244" width="350" height="52" rx="1" fill="#99E099"/>
        <rect x="212" y="244" width="350" height="52" rx="1" stroke="#110529" stroke-width="2" stroke-linecap="round"/>
        <path d="M385.758 278L380.938 263.6H382.788L386.978 276.11L391.208 263.6H393.058L388.238 278H385.758Z" fill="#110529"/>
    </g>
    <g filter="url(#filter11_i_6992_6181)">
        <rect x="562" y="244" width="30" height="52" rx="1" fill="#CBEB67"/>
    </g>
    <rect x="562" y="244" width="30" height="52" rx="1" stroke="#110529" stroke-width="2" stroke-linecap="round"/>
    <path d="M571.447 278V263.6H573.247L580.757 274.85V263.6H582.557V278H580.757L573.247 266.74V278H571.447Z" fill="#110529"/>
    <g filter="url(#filter12_i_6992_6181)">
        <rect x="592" y="244" width="96" height="52" rx="1" fill="#C1ADFF"/>
        <rect x="592" y="244" width="96" height="52" rx="1" stroke="#110529" stroke-width="2" stroke-linecap="round"/>
        <path d="M639.244 278.29C638.237 278.29 637.384 278.017 636.684 277.47C635.984 276.923 635.504 276.19 635.244 275.27L637.014 274.85C637.121 275.337 637.377 275.75 637.784 276.09C638.197 276.43 638.671 276.6 639.204 276.6C639.551 276.6 639.904 276.517 640.264 276.35C640.624 276.177 640.901 275.897 641.094 275.51C641.227 275.243 641.304 274.95 641.324 274.63C641.344 274.303 641.354 273.92 641.354 273.48V263.6H643.154V273.48C643.154 273.893 643.151 274.263 643.144 274.59C643.144 274.917 643.111 275.23 643.044 275.53C642.984 275.823 642.864 276.123 642.684 276.43C642.324 277.063 641.841 277.533 641.234 277.84C640.634 278.14 639.971 278.29 639.244 278.29Z" fill="#110529"/>
    </g>
    <g filter="url(#filter13_i_6992_6181)">
        <rect x="688" y="244" width="144" height="52" rx="1" fill="#FAFAAA"/>
        <rect x="688" y="244" width="144" height="52" rx="1" stroke="#110529" stroke-width="2" stroke-linecap="round"/>
        <path d="M760.093 278.3C758.66 278.3 757.443 277.983 756.443 277.35C755.443 276.717 754.68 275.837 754.153 274.71C753.633 273.583 753.373 272.28 753.373 270.8C753.373 269.32 753.633 268.017 754.153 266.89C754.68 265.763 755.443 264.883 756.443 264.25C757.443 263.617 758.66 263.3 760.093 263.3C761.76 263.3 763.13 263.723 764.203 264.57C765.283 265.417 766.027 266.557 766.433 267.99L764.623 268.47C764.33 267.397 763.807 266.55 763.053 265.93C762.3 265.31 761.313 265 760.093 265C759.02 265 758.127 265.243 757.413 265.73C756.7 266.217 756.163 266.897 755.803 267.77C755.443 268.637 755.26 269.647 755.253 270.8C755.247 271.947 755.423 272.957 755.783 273.83C756.143 274.697 756.683 275.377 757.403 275.87C758.123 276.357 759.02 276.6 760.093 276.6C761.313 276.6 762.3 276.29 763.053 275.67C763.807 275.043 764.33 274.197 764.623 273.13L766.433 273.61C766.027 275.037 765.283 276.177 764.203 277.03C763.13 277.877 761.76 278.3 760.093 278.3Z" fill="#110529"/>
    </g>
    <path d="M524 184L523.293 184.707L522.586 184L523.293 183.293L524 184ZM531.293 175.293L532 174.586L533.414 176L532.707 176.707L531.293 175.293ZM532.707 191.293L533.414 192L532 193.414L531.293 192.707L532.707 191.293ZM534 185L524 185L524 183L534 183L534 185ZM523.293 183.293L531.293 175.293L532.707 176.707L524.707 184.707L523.293 183.293ZM524.707 183.293L532.707 191.293L531.293 192.707L523.293 184.707L524.707 183.293Z" fill="#110529"/>
    <path d="M664.5 184H534" stroke="#110529" stroke-width="2"/>
    <rect width="57" height="20" transform="translate(664.5 174)" fill="white"/>
    <path d="M673.636 190V180.056L671.468 181.368V179.776L673.636 178.48H675.084V190H673.636ZM681.536 190.24C680.944 190.24 680.392 190.117 679.88 189.872C679.373 189.627 678.938 189.291 678.576 188.864C678.218 188.432 677.962 187.936 677.808 187.376L679.176 187.008C679.272 187.387 679.442 187.715 679.688 187.992C679.933 188.264 680.218 188.477 680.544 188.632C680.874 188.781 681.218 188.856 681.576 188.856C682.045 188.856 682.466 188.744 682.84 188.52C683.218 188.291 683.517 187.989 683.736 187.616C683.954 187.237 684.064 186.824 684.064 186.376C684.064 185.912 683.949 185.493 683.72 185.12C683.496 184.741 683.194 184.443 682.816 184.224C682.437 184.005 682.024 183.896 681.576 183.896C681.069 183.896 680.634 184.003 680.272 184.216C679.914 184.424 679.632 184.68 679.424 184.984L678.16 184.504L678.512 178.48H684.696V179.832H679.2L679.832 179.24L679.536 184.064L679.224 183.656C679.544 183.315 679.925 183.051 680.368 182.864C680.816 182.677 681.272 182.584 681.736 182.584C682.45 182.584 683.09 182.752 683.656 183.088C684.221 183.419 684.669 183.872 685 184.448C685.33 185.019 685.496 185.661 685.496 186.376C685.496 187.085 685.314 187.733 684.952 188.32C684.589 188.901 684.106 189.368 683.504 189.72C682.906 190.067 682.25 190.24 681.536 190.24ZM691.297 190.24C690.55 190.24 689.884 190.072 689.297 189.736C688.716 189.395 688.254 188.933 687.913 188.352C687.577 187.765 687.409 187.099 687.409 186.352V182.128C687.409 181.381 687.577 180.715 687.913 180.128C688.254 179.541 688.716 179.08 689.297 178.744C689.884 178.408 690.55 178.24 691.297 178.24C692.044 178.24 692.71 178.408 693.297 178.744C693.884 179.08 694.345 179.541 694.681 180.128C695.017 180.715 695.185 181.381 695.185 182.128V186.352C695.185 187.099 695.017 187.765 694.681 188.352C694.345 188.933 693.884 189.395 693.297 189.736C692.71 190.072 692.044 190.24 691.297 190.24ZM691.297 188.872C691.75 188.872 692.161 188.763 692.529 188.544C692.897 188.325 693.19 188.032 693.409 187.664C693.628 187.291 693.737 186.88 693.737 186.432V182.04C693.737 181.587 693.628 181.176 693.409 180.808C693.19 180.44 692.897 180.147 692.529 179.928C692.161 179.709 691.75 179.6 691.297 179.6C690.849 179.6 690.438 179.709 690.065 179.928C689.697 180.147 689.404 180.44 689.185 180.808C688.966 181.176 688.857 181.587 688.857 182.04V186.432C688.857 186.88 688.966 187.291 689.185 187.664C689.404 188.032 689.697 188.325 690.065 188.544C690.438 188.763 690.849 188.872 691.297 188.872ZM701.393 190.24C700.582 190.24 699.899 190.04 699.345 189.64C698.79 189.235 698.369 188.688 698.081 188C697.798 187.307 697.657 186.531 697.657 185.672C697.657 184.803 697.798 184.024 698.081 183.336C698.369 182.648 698.79 182.107 699.345 181.712C699.905 181.317 700.59 181.12 701.401 181.12C702.201 181.12 702.889 181.32 703.465 181.72C704.046 182.115 704.491 182.656 704.801 183.344C705.11 184.032 705.265 184.808 705.265 185.672C705.265 186.536 705.11 187.312 704.801 188C704.491 188.688 704.046 189.235 703.465 189.64C702.889 190.04 702.198 190.24 701.393 190.24ZM697.417 190V178.48H698.849V183.64H698.689V190H697.417ZM701.217 188.936C701.787 188.936 702.259 188.792 702.633 188.504C703.006 188.216 703.286 187.827 703.473 187.336C703.659 186.84 703.753 186.285 703.753 185.672C703.753 185.064 703.659 184.515 703.473 184.024C703.291 183.533 703.009 183.144 702.625 182.856C702.246 182.568 701.763 182.424 701.177 182.424C700.617 182.424 700.153 182.563 699.785 182.84C699.417 183.112 699.142 183.493 698.961 183.984C698.779 184.469 698.689 185.032 698.689 185.672C698.689 186.301 698.777 186.864 698.953 187.36C699.134 187.851 699.411 188.237 699.785 188.52C700.158 188.797 700.635 188.936 701.217 188.936ZM710.986 190.24C710.176 190.24 709.493 190.04 708.938 189.64C708.384 189.235 707.962 188.688 707.674 188C707.392 187.307 707.25 186.531 707.25 185.672C707.25 184.803 707.392 184.024 707.674 183.336C707.962 182.648 708.384 182.107 708.938 181.712C709.498 181.317 710.184 181.12 710.994 181.12C711.794 181.12 712.482 181.32 713.058 181.72C713.64 182.115 714.085 182.656 714.394 183.344C714.704 184.032 714.858 184.808 714.858 185.672C714.858 186.536 714.704 187.312 714.394 188C714.085 188.688 713.64 189.235 713.058 189.64C712.482 190.04 711.792 190.24 710.986 190.24ZM707.01 193.84V181.36H708.282V187.72H708.442V193.84H707.01ZM710.81 188.936C711.381 188.936 711.853 188.792 712.226 188.504C712.6 188.216 712.88 187.827 713.066 187.336C713.253 186.84 713.346 186.285 713.346 185.672C713.346 185.064 713.253 184.515 713.066 184.024C712.885 183.533 712.602 183.144 712.218 182.856C711.84 182.568 711.357 182.424 710.77 182.424C710.21 182.424 709.746 182.563 709.378 182.84C709.01 183.112 708.736 183.493 708.554 183.984C708.373 184.469 708.282 185.032 708.282 185.672C708.282 186.301 708.37 186.864 708.546 187.36C708.728 187.851 709.005 188.237 709.378 188.52C709.752 188.797 710.229 188.936 710.81 188.936Z" fill="#110529"/>
    <path d="M852 184H721.5" stroke="#110529" stroke-width="2"/>
    <rect x="852" y="172" width="32" height="24" rx="1" fill="white"/>
    <rect x="852" y="172" width="32" height="24" rx="1" stroke="#110529" stroke-width="2"/>
    <path d="M859.12 190V178.48H863.672C863.784 178.48 863.917 178.485 864.072 178.496C864.227 178.501 864.376 178.517 864.52 178.544C865.144 178.64 865.667 178.853 866.088 179.184C866.515 179.515 866.835 179.933 867.048 180.44C867.261 180.941 867.368 181.499 867.368 182.112C867.368 183.003 867.136 183.776 866.672 184.432C866.208 185.083 865.528 185.491 864.632 185.656L864.088 185.744H860.544V190H859.12ZM865.976 190L863.704 185.312L865.112 184.88L867.608 190H865.976ZM860.544 184.392H863.624C863.725 184.392 863.84 184.387 863.968 184.376C864.101 184.365 864.227 184.347 864.344 184.32C864.712 184.235 865.011 184.08 865.24 183.856C865.475 183.627 865.645 183.36 865.752 183.056C865.859 182.747 865.912 182.432 865.912 182.112C865.912 181.792 865.859 181.48 865.752 181.176C865.645 180.867 865.475 180.597 865.24 180.368C865.011 180.139 864.712 179.984 864.344 179.904C864.227 179.872 864.101 179.853 863.968 179.848C863.84 179.837 863.725 179.832 863.624 179.832H860.544V184.392ZM869.05 189.992L869.058 188.712L874.17 184.112C874.597 183.728 874.882 183.365 875.026 183.024C875.175 182.677 875.25 182.323 875.25 181.96C875.25 181.517 875.149 181.117 874.946 180.76C874.743 180.403 874.466 180.12 874.114 179.912C873.767 179.704 873.373 179.6 872.93 179.6C872.471 179.6 872.063 179.709 871.706 179.928C871.349 180.141 871.066 180.427 870.858 180.784C870.655 181.141 870.557 181.531 870.562 181.952H869.106C869.106 181.227 869.274 180.587 869.61 180.032C869.946 179.472 870.402 179.035 870.978 178.72C871.559 178.4 872.218 178.24 872.954 178.24C873.669 178.24 874.309 178.405 874.874 178.736C875.439 179.061 875.885 179.507 876.21 180.072C876.541 180.632 876.706 181.267 876.706 181.976C876.706 182.477 876.642 182.912 876.514 183.28C876.391 183.648 876.199 183.989 875.938 184.304C875.677 184.613 875.349 184.944 874.954 185.296L870.706 189.112L870.522 188.632H876.706V189.992H869.05Z" fill="#110529"/>
    <rect x="96" y="172" width="32" height="24" rx="1" fill="white"/>
    <rect x="96" y="172" width="32" height="24" rx="1" stroke="#110529" stroke-width="2"/>
    <path d="M104.62 190V178.48H109.172C109.284 178.48 109.417 178.485 109.572 178.496C109.727 178.501 109.876 178.517 110.02 178.544C110.644 178.64 111.167 178.853 111.588 179.184C112.015 179.515 112.335 179.933 112.548 180.44C112.761 180.941 112.868 181.499 112.868 182.112C112.868 183.003 112.636 183.776 112.172 184.432C111.708 185.083 111.028 185.491 110.132 185.656L109.588 185.744H106.044V190H104.62ZM111.476 190L109.204 185.312L110.612 184.88L113.108 190H111.476ZM106.044 184.392H109.124C109.225 184.392 109.34 184.387 109.468 184.376C109.601 184.365 109.727 184.347 109.844 184.32C110.212 184.235 110.511 184.08 110.74 183.856C110.975 183.627 111.145 183.36 111.252 183.056C111.359 182.747 111.412 182.432 111.412 182.112C111.412 181.792 111.359 181.48 111.252 181.176C111.145 180.867 110.975 180.597 110.74 180.368C110.511 180.139 110.212 179.984 109.844 179.904C109.727 179.872 109.601 179.853 109.468 179.848C109.34 179.837 109.225 179.832 109.124 179.832H106.044V184.392ZM116.878 190V180.056L114.71 181.368V179.776L116.878 178.48H118.326V190H116.878Z" fill="#110529"/>
    <path d="M260.5 184H128" stroke="#110529" stroke-width="2"/>
    <rect width="53" height="20" transform="translate(260.5 174)" fill="white"/>
    <path d="M267.636 190V180.056L265.468 181.368V179.776L267.636 178.48H269.084V190H267.636ZM275.536 190.24C274.944 190.24 274.392 190.117 273.88 189.872C273.373 189.627 272.938 189.291 272.576 188.864C272.218 188.432 271.962 187.936 271.808 187.376L273.176 187.008C273.272 187.387 273.442 187.715 273.688 187.992C273.933 188.264 274.218 188.477 274.544 188.632C274.874 188.781 275.218 188.856 275.576 188.856C276.045 188.856 276.466 188.744 276.84 188.52C277.218 188.291 277.517 187.989 277.736 187.616C277.954 187.237 278.064 186.824 278.064 186.376C278.064 185.912 277.949 185.493 277.72 185.12C277.496 184.741 277.194 184.443 276.816 184.224C276.437 184.005 276.024 183.896 275.576 183.896C275.069 183.896 274.634 184.003 274.272 184.216C273.914 184.424 273.632 184.68 273.424 184.984L272.16 184.504L272.512 178.48H278.696V179.832H273.2L273.832 179.24L273.536 184.064L273.224 183.656C273.544 183.315 273.925 183.051 274.368 182.864C274.816 182.677 275.272 182.584 275.736 182.584C276.45 182.584 277.09 182.752 277.656 183.088C278.221 183.419 278.669 183.872 279 184.448C279.33 185.019 279.496 185.661 279.496 186.376C279.496 187.085 279.314 187.733 278.952 188.32C278.589 188.901 278.106 189.368 277.504 189.72C276.906 190.067 276.25 190.24 275.536 190.24ZM285.297 190.24C284.55 190.24 283.884 190.072 283.297 189.736C282.716 189.395 282.254 188.933 281.913 188.352C281.577 187.765 281.409 187.099 281.409 186.352V182.128C281.409 181.381 281.577 180.715 281.913 180.128C282.254 179.541 282.716 179.08 283.297 178.744C283.884 178.408 284.55 178.24 285.297 178.24C286.044 178.24 286.71 178.408 287.297 178.744C287.884 179.08 288.345 179.541 288.681 180.128C289.017 180.715 289.185 181.381 289.185 182.128V186.352C289.185 187.099 289.017 187.765 288.681 188.352C288.345 188.933 287.884 189.395 287.297 189.736C286.71 190.072 286.044 190.24 285.297 190.24ZM285.297 188.872C285.75 188.872 286.161 188.763 286.529 188.544C286.897 188.325 287.19 188.032 287.409 187.664C287.628 187.291 287.737 186.88 287.737 186.432V182.04C287.737 181.587 287.628 181.176 287.409 180.808C287.19 180.44 286.897 180.147 286.529 179.928C286.161 179.709 285.75 179.6 285.297 179.6C284.849 179.6 284.438 179.709 284.065 179.928C283.697 180.147 283.404 180.44 283.185 180.808C282.966 181.176 282.857 181.587 282.857 182.04V186.432C282.857 186.88 282.966 187.291 283.185 187.664C283.404 188.032 283.697 188.325 284.065 188.544C284.438 188.763 284.849 188.872 285.297 188.872ZM295.393 190.24C294.582 190.24 293.899 190.04 293.345 189.64C292.79 189.235 292.369 188.688 292.081 188C291.798 187.307 291.657 186.531 291.657 185.672C291.657 184.803 291.798 184.024 292.081 183.336C292.369 182.648 292.79 182.107 293.345 181.712C293.905 181.317 294.59 181.12 295.401 181.12C296.201 181.12 296.889 181.32 297.465 181.72C298.046 182.115 298.491 182.656 298.801 183.344C299.11 184.032 299.265 184.808 299.265 185.672C299.265 186.536 299.11 187.312 298.801 188C298.491 188.688 298.046 189.235 297.465 189.64C296.889 190.04 296.198 190.24 295.393 190.24ZM291.417 190V178.48H292.849V183.64H292.689V190H291.417ZM295.217 188.936C295.787 188.936 296.259 188.792 296.633 188.504C297.006 188.216 297.286 187.827 297.473 187.336C297.659 186.84 297.753 186.285 297.753 185.672C297.753 185.064 297.659 184.515 297.473 184.024C297.291 183.533 297.009 183.144 296.625 182.856C296.246 182.568 295.763 182.424 295.177 182.424C294.617 182.424 294.153 182.563 293.785 182.84C293.417 183.112 293.142 183.493 292.961 183.984C292.779 184.469 292.689 185.032 292.689 185.672C292.689 186.301 292.777 186.864 292.953 187.36C293.134 187.851 293.411 188.237 293.785 188.52C294.158 188.797 294.635 188.936 295.217 188.936ZM304.986 190.24C304.176 190.24 303.493 190.04 302.938 189.64C302.384 189.235 301.962 188.688 301.674 188C301.392 187.307 301.25 186.531 301.25 185.672C301.25 184.803 301.392 184.024 301.674 183.336C301.962 182.648 302.384 182.107 302.938 181.712C303.498 181.317 304.184 181.12 304.994 181.12C305.794 181.12 306.482 181.32 307.058 181.72C307.64 182.115 308.085 182.656 308.394 183.344C308.704 184.032 308.858 184.808 308.858 185.672C308.858 186.536 308.704 187.312 308.394 188C308.085 188.688 307.64 189.235 307.058 189.64C306.482 190.04 305.792 190.24 304.986 190.24ZM301.01 193.84V181.36H302.282V187.72H302.442V193.84H301.01ZM304.81 188.936C305.381 188.936 305.853 188.792 306.226 188.504C306.6 188.216 306.88 187.827 307.066 187.336C307.253 186.84 307.346 186.285 307.346 185.672C307.346 185.064 307.253 184.515 307.066 184.024C306.885 183.533 306.602 183.144 306.218 182.856C305.84 182.568 305.357 182.424 304.77 182.424C304.21 182.424 303.746 182.563 303.378 182.84C303.01 183.112 302.736 183.493 302.554 183.984C302.373 184.469 302.282 185.032 302.282 185.672C302.282 186.301 302.37 186.864 302.546 187.36C302.728 187.851 303.005 188.237 303.378 188.52C303.752 188.797 304.229 188.936 304.81 188.936Z" fill="#110529"/>
    <path d="M446 184H313.5" stroke="#110529" stroke-width="2"/>
    <path d="M456 184L456.707 183.293L457.414 184L456.707 184.707L456 184ZM448.707 192.707L448 193.414L446.586 192L447.293 191.293L448.707 192.707ZM447.293 176.707L446.586 176L448 174.586L448.707 175.293L447.293 176.707ZM446 183L456 183L456 185L446 185L446 183ZM456.707 184.707L448.707 192.707L447.293 191.293L455.293 183.293L456.707 184.707ZM455.293 184.707L447.293 176.707L448.707 175.293L456.707 183.293L455.293 184.707Z" fill="#110529"/>
    <defs>
        <filter id="filter0_i_6992_6181" x="95" y="107" width="58" height="54" filterUnits="userSpaceOnUse" color-interpolation-filters="sRGB">
            <feFlood flood-opacity="0" result="BackgroundImageFix"/>
            <feBlend mode="normal" in="SourceGraphic" in2="BackgroundImageFix" result="shape"/>
            <feColorMatrix in="SourceAlpha" type="matrix" values="0 0 0 0 0 0 0 0 0 0 0 0 0 0 0 0 0 0 127 0" result="hardAlpha"/>
            <feOffset dx="-8" dy="-4"/>
            <feComposite in2="hardAlpha" operator="arithmetic" k2="-1" k3="1"/>
            <feColorMatrix type="matrix" values="0 0 0 0 0.0666667 0 0 0 0 0.0196078 0 0 0 0 0.160784 0 0 0 0.16 0"/>
            <feBlend mode="normal" in2="shape" result="effect1_innerShadow_6992_6181"/>
        </filter>
        <filter id="filter1_i_6992_6181" x="151" y="107" width="62" height="54" filterUnits="userSpaceOnUse" color-interpolation-filters="sRGB">
            <feFlood flood-opacity="0" result="BackgroundImageFix"/>
            <feBlend mode="normal" in="SourceGraphic" in2="BackgroundImageFix" result="shape"/>
            <feColorMatrix in="SourceAlpha" type="matrix" values="0 0 0 0 0 0 0 0 0 0 0 0 0 0 0 0 0 0 127 0" result="hardAlpha"/>
            <feOffset dx="-8" dy="-4"/>
            <feComposite in2="hardAlpha" operator="arithmetic" k2="-1" k3="1"/>
            <feColorMatrix type="matrix" values="0 0 0 0 0.0666667 0 0 0 0 0.0196078 0 0 0 0 0.160784 0 0 0 0.16 0"/>
            <feBlend mode="normal" in2="shape" result="effect1_innerShadow_6992_6181"/>
        </filter>
        <filter id="filter2_i_6992_6181" x="211" y="107" width="338" height="54" filterUnits="userSpaceOnUse" color-interpolation-filters="sRGB">
            <feFlood flood-opacity="0" result="BackgroundImageFix"/>
            <feBlend mode="normal" in="SourceGraphic" in2="BackgroundImageFix" result="shape"/>
            <feColorMatrix in="SourceAlpha" type="matrix" values="0 0 0 0 0 0 0 0 0 0 0 0 0 0 0 0 0 0 127 0" result="hardAlpha"/>
            <feOffset dx="-8" dy="-4"/>
            <feComposite in2="hardAlpha" operator="arithmetic" k2="-1" k3="1"/>
            <feColorMatrix type="matrix" values="0 0 0 0 0.0666667 0 0 0 0 0.0196078 0 0 0 0 0.160784 0 0 0 0.16 0"/>
            <feBlend mode="normal" in2="shape" result="effect1_innerShadow_6992_6181"/>
        </filter>
        <filter id="filter3_i_6992_6181" x="547" y="107" width="32" height="54" filterUnits="userSpaceOnUse" color-interpolation-filters="sRGB">
            <feFlood flood-opacity="0" result="BackgroundImageFix"/>
            <feBlend mode="normal" in="SourceGraphic" in2="BackgroundImageFix" result="shape"/>
            <feColorMatrix in="SourceAlpha" type="matrix" values="0 0 0 0 0 0 0 0 0 0 0 0 0 0 0 0 0 0 127 0" result="hardAlpha"/>
            <feOffset dx="-8" dy="-4"/>
            <feComposite in2="hardAlpha" operator="arithmetic" k2="-1" k3="1"/>
            <feColorMatrix type="matrix" values="0 0 0 0 0.0666667 0 0 0 0 0.0196078 0 0 0 0 0.160784 0 0 0 0.16 0"/>
            <feBlend mode="normal" in2="shape" result="effect1_innerShadow_6992_6181"/>
        </filter>
        <filter id="filter4_i_6992_6181" x="613" y="107" width="32" height="54" filterUnits="userSpaceOnUse" color-interpolation-filters="sRGB">
            <feFlood flood-opacity="0" result="BackgroundImageFix"/>
            <feBlend mode="normal" in="SourceGraphic" in2="BackgroundImageFix" result="shape"/>
            <feColorMatrix in="SourceAlpha" type="matrix" values="0 0 0 0 0 0 0 0 0 0 0 0 0 0 0 0 0 0 127 0" result="hardAlpha"/>
            <feOffset dx="-8" dy="-4"/>
            <feComposite in2="hardAlpha" operator="arithmetic" k2="-1" k3="1"/>
            <feColorMatrix type="matrix" values="0 0 0 0 0.0666667 0 0 0 0 0.0196078 0 0 0 0 0.160784 0 0 0 0.16 0"/>
            <feBlend mode="normal" in2="shape" result="effect1_innerShadow_6992_6181"/>
        </filter>
        <filter id="filter5_i_6992_6181" x="577" y="107" width="38" height="54" filterUnits="userSpaceOnUse" color-interpolation-filters="sRGB">
            <feFlood flood-opacity="0" result="BackgroundImageFix"/>
            <feBlend mode="normal" in="SourceGraphic" in2="BackgroundImageFix" result="shape"/>
            <feColorMatrix in="SourceAlpha" type="matrix" values="0 0 0 0 0 0 0 0 0 0 0 0 0 0 0 0 0 0 127 0" result="hardAlpha"/>
            <feOffset dx="-8" dy="-4"/>
            <feComposite in2="hardAlpha" operator="arithmetic" k2="-1" k3="1"/>
            <feColorMatrix type="matrix" values="0 0 0 0 0.0666667 0 0 0 0 0.0196078 0 0 0 0 0.160784 0 0 0 0.16 0"/>
            <feBlend mode="normal" in2="shape" result="effect1_innerShadow_6992_6181"/>
        </filter>
        <filter id="filter6_i_6992_6181" x="643" y="107" width="98" height="54" filterUnits="userSpaceOnUse" color-interpolation-filters="sRGB">
            <feFlood flood-opacity="0" result="BackgroundImageFix"/>
            <feBlend mode="normal" in="SourceGraphic" in2="BackgroundImageFix" result="shape"/>
            <feColorMatrix in="SourceAlpha" type="matrix" values="0 0 0 0 0 0 0 0 0 0 0 0 0 0 0 0 0 0 127 0" result="hardAlpha"/>
            <feOffset dx="-8" dy="-4"/>
            <feComposite in2="hardAlpha" operator="arithmetic" k2="-1" k3="1"/>
            <feColorMatrix type="matrix" values="0 0 0 0 0.0666667 0 0 0 0 0.0196078 0 0 0 0 0.160784 0 0 0 0.16 0"/>
            <feBlend mode="normal" in2="shape" result="effect1_innerShadow_6992_6181"/>
        </filter>
        <filter id="filter7_i_6992_6181" x="739" y="107" width="146" height="54" filterUnits="userSpaceOnUse" color-interpolation-filters="sRGB">
            <feFlood flood-opacity="0" result="BackgroundImageFix"/>
            <feBlend mode="normal" in="SourceGraphic" in2="BackgroundImageFix" result="shape"/>
            <feColorMatrix in="SourceAlpha" type="matrix" values="0 0 0 0 0 0 0 0 0 0 0 0 0 0 0 0 0 0 127 0" result="hardAlpha"/>
            <feOffset dx="-8" dy="-4"/>
            <feComposite in2="hardAlpha" operator="arithmetic" k2="-1" k3="1"/>
            <feColorMatrix type="matrix" values="0 0 0 0 0.0666667 0 0 0 0 0.0196078 0 0 0 0 0.160784 0 0 0 0.16 0"/>
            <feBlend mode="normal" in2="shape" result="effect1_innerShadow_6992_6181"/>
        </filter>
        <filter id="filter8_i_6992_6181" x="95" y="243" width="58" height="54" filterUnits="userSpaceOnUse" color-interpolation-filters="sRGB">
            <feFlood flood-opacity="0" result="BackgroundImageFix"/>
            <feBlend mode="normal" in="SourceGraphic" in2="BackgroundImageFix" result="shape"/>
            <feColorMatrix in="SourceAlpha" type="matrix" values="0 0 0 0 0 0 0 0 0 0 0 0 0 0 0 0 0 0 127 0" result="hardAlpha"/>
            <feOffset dx="-8" dy="-4"/>
            <feComposite in2="hardAlpha" operator="arithmetic" k2="-1" k3="1"/>
            <feColorMatrix type="matrix" values="0 0 0 0 0.0666667 0 0 0 0 0.0196078 0 0 0 0 0.160784 0 0 0 0.16 0"/>
            <feBlend mode="normal" in2="shape" result="effect1_innerShadow_6992_6181"/>
        </filter>
        <filter id="filter9_i_6992_6181" x="151" y="243" width="62" height="54" filterUnits="userSpaceOnUse" color-interpolation-filters="sRGB">
            <feFlood flood-opacity="0" result="BackgroundImageFix"/>
            <feBlend mode="normal" in="SourceGraphic" in2="BackgroundImageFix" result="shape"/>
            <feColorMatrix in="SourceAlpha" type="matrix" values="0 0 0 0 0 0 0 0 0 0 0 0 0 0 0 0 0 0 127 0" result="hardAlpha"/>
            <feOffset dx="-8" dy="-4"/>
            <feComposite in2="hardAlpha" operator="arithmetic" k2="-1" k3="1"/>
            <feColorMatrix type="matrix" values="0 0 0 0 0.0666667 0 0 0 0 0.0196078 0 0 0 0 0.160784 0 0 0 0.16 0"/>
            <feBlend mode="normal" in2="shape" result="effect1_innerShadow_6992_6181"/>
        </filter>
        <filter id="filter10_i_6992_6181" x="211" y="243" width="352" height="54" filterUnits="userSpaceOnUse" color-interpolation-filters="sRGB">
            <feFlood flood-opacity="0" result="BackgroundImageFix"/>
            <feBlend mode="normal" in="SourceGraphic" in2="BackgroundImageFix" result="shape"/>
            <feColorMatrix in="SourceAlpha" type="matrix" values="0 0 0 0 0 0 0 0 0 0 0 0 0 0 0 0 0 0 127 0" result="hardAlpha"/>
            <feOffset dx="-8" dy="-4"/>
            <feComposite in2="hardAlpha" operator="arithmetic" k2="-1" k3="1"/>
            <feColorMatrix type="matrix" values="0 0 0 0 0.0666667 0 0 0 0 0.0196078 0 0 0 0 0.160784 0 0 0 0.16 0"/>
            <feBlend mode="normal" in2="shape" result="effect1_innerShadow_6992_6181"/>
        </filter>
        <filter id="filter11_i_6992_6181" x="561" y="243" width="32" height="54" filterUnits="userSpaceOnUse" color-interpolation-filters="sRGB">
            <feFlood flood-opacity="0" result="BackgroundImageFix"/>
            <feBlend mode="normal" in="SourceGraphic" in2="BackgroundImageFix" result="shape"/>
            <feColorMatrix in="SourceAlpha" type="matrix" values="0 0 0 0 0 0 0 0 0 0 0 0 0 0 0 0 0 0 127 0" result="hardAlpha"/>
            <feOffset dx="-8" dy="-4"/>
            <feComposite in2="hardAlpha" operator="arithmetic" k2="-1" k3="1"/>
            <feColorMatrix type="matrix" values="0 0 0 0 0.0666667 0 0 0 0 0.0196078 0 0 0 0 0.160784 0 0 0 0.16 0"/>
            <feBlend mode="normal" in2="shape" result="effect1_innerShadow_6992_6181"/>
        </filter>
        <filter id="filter12_i_6992_6181" x="591" y="243" width="98" height="54" filterUnits="userSpaceOnUse" color-interpolation-filters="sRGB">
            <feFlood flood-opacity="0" result="BackgroundImageFix"/>
            <feBlend mode="normal" in="SourceGraphic" in2="BackgroundImageFix" result="shape"/>
            <feColorMatrix in="SourceAlpha" type="matrix" values="0 0 0 0 0 0 0 0 0 0 0 0 0 0 0 0 0 0 127 0" result="hardAlpha"/>
            <feOffset dx="-8" dy="-4"/>
            <feComposite in2="hardAlpha" operator="arithmetic" k2="-1" k3="1"/>
            <feColorMatrix type="matrix" values="0 0 0 0 0.0666667 0 0 0 0 0.0196078 0 0 0 0 0.160784 0 0 0 0.16 0"/>
            <feBlend mode="normal" in2="shape" result="effect1_innerShadow_6992_6181"/>
        </filter>
        <filter id="filter13_i_6992_6181" x="687" y="243" width="146" height="54" filterUnits="userSpaceOnUse" color-interpolation-filters="sRGB">
            <feFlood flood-opacity="0" result="BackgroundImageFix"/>
            <feBlend mode="normal" in="SourceGraphic" in2="BackgroundImageFix" result="shape"/>
            <feColorMatrix in="SourceAlpha" type="matrix" values="0 0 0 0 0 0 0 0 0 0 0 0 0 0 0 0 0 0 127 0" result="hardAlpha"/>
            <feOffset dx="-8" dy="-4"/>
            <feComposite in2="hardAlpha" operator="arithmetic" k2="-1" k3="1"/>
            <feColorMatrix type="matrix" values="0 0 0 0 0.0666667 0 0 0 0 0.0196078 0 0 0 0 0.160784 0 0 0 0.16 0"/>
            <feBlend mode="normal" in2="shape" result="effect1_innerShadow_6992_6181"/>
        </filter>
    </defs>
</svg>
