<svg width="960" height="224" viewBox="0 0 960 224" fill="none" xmlns="http://www.w3.org/2000/svg">
<rect width="960" height="224" fill="#1D1D29"/>
<path d="M157.442 37V26.92H158.905V35.621H163.469V37H157.442Z" fill="#60616B"/>
<path d="M184 112V24" stroke="#60616B" stroke-width="2" stroke-linecap="square" stroke-dasharray="6 6"/>
<path d="M208 112V24" stroke="#60616B" stroke-width="2" stroke-linecap="square" stroke-dasharray="6 6"/>
<path d="M229.858 37V26.92H235.829V28.383H231.321V31.225H234.989V32.695H231.321V37H229.858ZM237.09 37V26.92H241.164C241.262 26.92 241.384 26.9247 241.528 26.934C241.673 26.9387 241.811 26.9527 241.941 26.976C242.501 27.0647 242.968 27.256 243.341 27.55C243.719 27.844 244.002 28.215 244.188 28.663C244.375 29.111 244.468 29.6057 244.468 30.147C244.468 30.9497 244.263 31.6427 243.852 32.226C243.442 32.8047 242.826 33.1663 242.004 33.311L241.409 33.381H238.553V37H237.09ZM242.984 37L240.996 32.898L242.473 32.52L244.657 37H242.984ZM238.553 31.995H241.108C241.202 31.995 241.304 31.9903 241.416 31.981C241.533 31.9717 241.643 31.9553 241.745 31.932C242.044 31.862 242.284 31.7337 242.466 31.547C242.648 31.3557 242.779 31.1363 242.858 30.889C242.938 30.6417 242.977 30.3943 242.977 30.147C242.977 29.8997 242.938 29.6547 242.858 29.412C242.779 29.1647 242.648 28.9477 242.466 28.761C242.284 28.5697 242.044 28.439 241.745 28.369C241.643 28.341 241.533 28.3223 241.416 28.313C241.304 28.3037 241.202 28.299 241.108 28.299H238.553V31.995ZM247.953 37V28.53L246.056 29.685V28.054L247.953 26.92H249.444V37H247.953Z" fill="#60616B"/>
<path d="M272 112V24" stroke="#60616B" stroke-width="2" stroke-linecap="square" stroke-dasharray="6 6"/>
<path d="M291.735 37.21C290.727 37.21 289.868 36.9907 289.159 36.552C288.45 36.1087 287.906 35.4927 287.528 34.704C287.155 33.9153 286.968 33.0007 286.968 31.96C286.968 30.9193 287.155 30.0047 287.528 29.216C287.906 28.4273 288.45 27.8137 289.159 27.375C289.868 26.9317 290.727 26.71 291.735 26.71C292.897 26.71 293.858 27.004 294.619 27.592C295.384 28.18 295.916 28.971 296.215 29.965L294.731 30.364C294.535 29.6593 294.185 29.1063 293.681 28.705C293.182 28.3037 292.533 28.103 291.735 28.103C291.021 28.103 290.426 28.264 289.95 28.586C289.474 28.908 289.115 29.3583 288.872 29.937C288.634 30.5157 288.515 31.19 288.515 31.96C288.51 32.73 288.627 33.4043 288.865 33.983C289.108 34.5617 289.467 35.012 289.943 35.334C290.424 35.656 291.021 35.817 291.735 35.817C292.533 35.817 293.182 35.6163 293.681 35.215C294.185 34.809 294.535 34.256 294.731 33.556L296.215 33.955C295.916 34.949 295.384 35.74 294.619 36.328C293.858 36.916 292.897 37.21 291.735 37.21ZM297.754 37V26.92H300.911C301.005 26.92 301.177 26.9223 301.429 26.927C301.686 26.9317 301.931 26.9503 302.164 26.983C302.953 27.081 303.616 27.3633 304.152 27.83C304.694 28.2967 305.102 28.8893 305.377 29.608C305.653 30.322 305.79 31.106 305.79 31.96C305.79 32.8187 305.653 33.6073 305.377 34.326C305.102 35.04 304.694 35.6303 304.152 36.097C303.616 36.559 302.953 36.839 302.164 36.937C301.931 36.9697 301.686 36.9883 301.429 36.993C301.177 36.9977 301.005 37 300.911 37H297.754ZM299.252 35.607H300.911C301.07 35.607 301.259 35.6023 301.478 35.593C301.698 35.5837 301.891 35.565 302.059 35.537C302.573 35.439 302.988 35.2173 303.305 34.872C303.627 34.522 303.863 34.0927 304.012 33.584C304.162 33.0753 304.236 32.534 304.236 31.96C304.236 31.3673 304.159 30.819 304.005 30.315C303.851 29.8063 303.613 29.3817 303.291 29.041C302.974 28.6957 302.563 28.4763 302.059 28.383C301.891 28.3503 301.695 28.3317 301.471 28.327C301.252 28.3177 301.065 28.313 300.911 28.313H299.252V35.607ZM307.42 37V26.92H311.494C311.592 26.92 311.714 26.9247 311.858 26.934C312.003 26.9387 312.141 26.9527 312.271 26.976C312.831 27.0647 313.298 27.256 313.671 27.55C314.049 27.844 314.332 28.215 314.518 28.663C314.705 29.111 314.798 29.6057 314.798 30.147C314.798 30.9497 314.593 31.6427 314.182 32.226C313.772 32.8047 313.156 33.1663 312.334 33.311L311.739 33.381H308.883V37H307.42ZM313.314 37L311.326 32.898L312.803 32.52L314.987 37H313.314ZM308.883 31.995H311.438C311.532 31.995 311.634 31.9903 311.746 31.981C311.863 31.9717 311.973 31.9553 312.075 31.932C312.374 31.862 312.614 31.7337 312.796 31.547C312.978 31.3557 313.109 31.1363 313.188 30.889C313.268 30.6417 313.307 30.3943 313.307 30.147C313.307 29.8997 313.268 29.6547 313.188 29.412C313.109 29.1647 312.978 28.9477 312.796 28.761C312.614 28.5697 312.374 28.439 312.075 28.369C311.973 28.341 311.863 28.3223 311.746 28.313C311.634 28.3037 311.532 28.299 311.438 28.299H308.883V31.995ZM318.283 37V28.53L316.386 29.685V28.054L318.283 26.92H319.774V37H318.283Z" fill="#60616B"/>
<path d="M336 112V24" stroke="#60616B" stroke-width="2" stroke-linecap="square" stroke-dasharray="6 6"/>
<path d="M356.703 37V26.92H362.674V28.383H358.166V31.225H361.834V32.695H358.166V37H356.703ZM363.935 37V26.92H368.009C368.107 26.92 368.228 26.9247 368.373 26.934C368.518 26.9387 368.655 26.9527 368.786 26.976C369.346 27.0647 369.813 27.256 370.186 27.55C370.564 27.844 370.846 28.215 371.033 28.663C371.22 29.111 371.313 29.6057 371.313 30.147C371.313 30.9497 371.108 31.6427 370.697 32.226C370.286 32.8047 369.67 33.1663 368.849 33.311L368.254 33.381H365.398V37H363.935ZM369.829 37L367.841 32.898L369.318 32.52L371.502 37H369.829ZM365.398 31.995H367.953C368.046 31.995 368.149 31.9903 368.261 31.981C368.378 31.9717 368.487 31.9553 368.59 31.932C368.889 31.862 369.129 31.7337 369.311 31.547C369.493 31.3557 369.624 31.1363 369.703 30.889C369.782 30.6417 369.822 30.3943 369.822 30.147C369.822 29.8997 369.782 29.6547 369.703 29.412C369.624 29.1647 369.493 28.9477 369.311 28.761C369.129 28.5697 368.889 28.439 368.59 28.369C368.487 28.341 368.378 28.3223 368.261 28.313C368.149 28.3037 368.046 28.299 367.953 28.299H365.398V31.995ZM372.761 36.993L372.768 35.691L377.157 31.757C377.511 31.4443 377.752 31.1457 377.878 30.861C378.008 30.5763 378.074 30.2917 378.074 30.007C378.074 29.6477 377.994 29.3257 377.836 29.041C377.677 28.7517 377.458 28.523 377.178 28.355C376.898 28.187 376.576 28.103 376.212 28.103C375.838 28.103 375.505 28.1917 375.211 28.369C374.921 28.5417 374.695 28.7727 374.532 29.062C374.368 29.3513 374.289 29.664 374.294 30H372.796C372.796 29.3467 372.943 28.775 373.237 28.285C373.535 27.7903 373.944 27.4053 374.462 27.13C374.98 26.85 375.572 26.71 376.24 26.71C376.874 26.71 377.444 26.8547 377.948 27.144C378.452 27.4287 378.848 27.8207 379.138 28.32C379.432 28.8193 379.579 29.3887 379.579 30.028C379.579 30.49 379.518 30.882 379.397 31.204C379.275 31.526 379.093 31.8247 378.851 32.1C378.608 32.3753 378.305 32.674 377.941 32.996L374.553 36.02L374.392 35.6H379.579V36.993H372.761Z" fill="#60616B"/>
<path d="M400 112V24" stroke="#60616B" stroke-width="2" stroke-linecap="square" stroke-dasharray="6 6"/>
<path d="M418.58 37.21C417.572 37.21 416.713 36.9907 416.004 36.552C415.294 36.1087 414.751 35.4927 414.373 34.704C413.999 33.9153 413.813 33.0007 413.813 31.96C413.813 30.9193 413.999 30.0047 414.373 29.216C414.751 28.4273 415.294 27.8137 416.004 27.375C416.713 26.9317 417.572 26.71 418.58 26.71C419.742 26.71 420.703 27.004 421.464 27.592C422.229 28.18 422.761 28.971 423.06 29.965L421.576 30.364C421.38 29.6593 421.03 29.1063 420.526 28.705C420.026 28.3037 419.378 28.103 418.58 28.103C417.866 28.103 417.271 28.264 416.795 28.586C416.319 28.908 415.959 29.3583 415.717 29.937C415.479 30.5157 415.36 31.19 415.36 31.96C415.355 32.73 415.472 33.4043 415.71 33.983C415.952 34.5617 416.312 35.012 416.788 35.334C417.268 35.656 417.866 35.817 418.58 35.817C419.378 35.817 420.026 35.6163 420.526 35.215C421.03 34.809 421.38 34.256 421.576 33.556L423.06 33.955C422.761 34.949 422.229 35.74 421.464 36.328C420.703 36.916 419.742 37.21 418.58 37.21ZM424.599 37V26.92H427.756C427.849 26.92 428.022 26.9223 428.274 26.927C428.531 26.9317 428.776 26.9503 429.009 26.983C429.798 27.081 430.46 27.3633 430.997 27.83C431.538 28.2967 431.947 28.8893 432.222 29.608C432.497 30.322 432.635 31.106 432.635 31.96C432.635 32.8187 432.497 33.6073 432.222 34.326C431.947 35.04 431.538 35.6303 430.997 36.097C430.46 36.559 429.798 36.839 429.009 36.937C428.776 36.9697 428.531 36.9883 428.274 36.993C428.022 36.9977 427.849 37 427.756 37H424.599ZM426.097 35.607H427.756C427.915 35.607 428.104 35.6023 428.323 35.593C428.542 35.5837 428.736 35.565 428.904 35.537C429.417 35.439 429.833 35.2173 430.15 34.872C430.472 34.522 430.708 34.0927 430.857 33.584C431.006 33.0753 431.081 32.534 431.081 31.96C431.081 31.3673 431.004 30.819 430.85 30.315C430.696 29.8063 430.458 29.3817 430.136 29.041C429.819 28.6957 429.408 28.4763 428.904 28.383C428.736 28.3503 428.54 28.3317 428.316 28.327C428.097 28.3177 427.91 28.313 427.756 28.313H426.097V35.607ZM434.265 37V26.92H438.339C438.437 26.92 438.558 26.9247 438.703 26.934C438.848 26.9387 438.985 26.9527 439.116 26.976C439.676 27.0647 440.143 27.256 440.516 27.55C440.894 27.844 441.176 28.215 441.363 28.663C441.55 29.111 441.643 29.6057 441.643 30.147C441.643 30.9497 441.438 31.6427 441.027 32.226C440.616 32.8047 440 33.1663 439.179 33.311L438.584 33.381H435.728V37H434.265ZM440.159 37L438.171 32.898L439.648 32.52L441.832 37H440.159ZM435.728 31.995H438.283C438.376 31.995 438.479 31.9903 438.591 31.981C438.708 31.9717 438.817 31.9553 438.92 31.932C439.219 31.862 439.459 31.7337 439.641 31.547C439.823 31.3557 439.954 31.1363 440.033 30.889C440.112 30.6417 440.152 30.3943 440.152 30.147C440.152 29.8997 440.112 29.6547 440.033 29.412C439.954 29.1647 439.823 28.9477 439.641 28.761C439.459 28.5697 439.219 28.439 438.92 28.369C438.817 28.341 438.708 28.3223 438.591 28.313C438.479 28.3037 438.376 28.299 438.283 28.299H435.728V31.995ZM443.091 36.993L443.098 35.691L447.487 31.757C447.841 31.4443 448.082 31.1457 448.208 30.861C448.338 30.5763 448.404 30.2917 448.404 30.007C448.404 29.6477 448.324 29.3257 448.166 29.041C448.007 28.7517 447.788 28.523 447.508 28.355C447.228 28.187 446.906 28.103 446.542 28.103C446.168 28.103 445.835 28.1917 445.541 28.369C445.251 28.5417 445.025 28.7727 444.862 29.062C444.698 29.3513 444.619 29.664 444.624 30H443.126C443.126 29.3467 443.273 28.775 443.567 28.285C443.865 27.7903 444.274 27.4053 444.792 27.13C445.31 26.85 445.902 26.71 446.57 26.71C447.204 26.71 447.774 26.8547 448.278 27.144C448.782 27.4287 449.178 27.8207 449.468 28.32C449.762 28.8193 449.909 29.3887 449.909 30.028C449.909 30.49 449.848 30.882 449.727 31.204C449.605 31.526 449.423 31.8247 449.181 32.1C448.938 32.3753 448.635 32.674 448.271 32.996L444.883 36.02L444.722 35.6H449.909V36.993H443.091Z" fill="#60616B"/>
<path d="M464 112V24" stroke="#60616B" stroke-width="2" stroke-linecap="square" stroke-dasharray="6 6"/>
<path d="M484.805 37V26.92H490.776V28.383H486.268V31.225H489.936V32.695H486.268V37H484.805ZM492.038 37V26.92H496.112C496.21 26.92 496.331 26.9247 496.476 26.934C496.62 26.9387 496.758 26.9527 496.889 26.976C497.449 27.0647 497.915 27.256 498.289 27.55C498.667 27.844 498.949 28.215 499.136 28.663C499.322 29.111 499.416 29.6057 499.416 30.147C499.416 30.9497 499.21 31.6427 498.8 32.226C498.389 32.8047 497.773 33.1663 496.952 33.311L496.357 33.381H493.501V37H492.038ZM497.932 37L495.944 32.898L497.421 32.52L499.605 37H497.932ZM493.501 31.995H496.056C496.149 31.995 496.252 31.9903 496.364 31.981C496.48 31.9717 496.59 31.9553 496.693 31.932C496.991 31.862 497.232 31.7337 497.414 31.547C497.596 31.3557 497.726 31.1363 497.806 30.889C497.885 30.6417 497.925 30.3943 497.925 30.147C497.925 29.8997 497.885 29.6547 497.806 29.412C497.726 29.1647 497.596 28.9477 497.414 28.761C497.232 28.5697 496.991 28.439 496.693 28.369C496.59 28.341 496.48 28.3223 496.364 28.313C496.252 28.3037 496.149 28.299 496.056 28.299H493.501V31.995ZM503.964 37.189C503.465 37.189 502.996 37.0957 502.557 36.909C502.118 36.7177 501.738 36.447 501.416 36.097C501.099 35.747 500.868 35.334 500.723 34.858L502.137 34.466C502.272 34.9 502.508 35.2337 502.844 35.467C503.18 35.6957 503.553 35.8077 503.964 35.803C504.333 35.7983 504.657 35.712 504.937 35.544C505.217 35.376 505.436 35.1497 505.595 34.865C505.754 34.5757 505.833 34.2443 505.833 33.871C505.833 33.311 505.658 32.849 505.308 32.485C504.963 32.121 504.51 31.939 503.95 31.939C503.791 31.939 503.628 31.9623 503.46 32.009C503.297 32.0557 503.143 32.1163 502.998 32.191L502.312 31.036L505.868 27.893L506.022 28.313H501.122V26.92H507.184V28.313L504.23 31.155L504.216 30.679C504.851 30.679 505.401 30.8213 505.868 31.106C506.335 31.386 506.694 31.7687 506.946 32.254C507.203 32.7347 507.331 33.2737 507.331 33.871C507.331 34.515 507.179 35.0867 506.876 35.586C506.577 36.0853 506.174 36.4773 505.665 36.762C505.161 37.0467 504.594 37.189 503.964 37.189Z" fill="#60616B"/>
<path d="M528 112V24" stroke="#60616B" stroke-width="2" stroke-linecap="square" stroke-dasharray="6 6"/>
<path d="M574.682 37.21C573.674 37.21 572.815 36.9907 572.106 36.552C571.397 36.1087 570.853 35.4927 570.475 34.704C570.102 33.9153 569.915 33.0007 569.915 31.96C569.915 30.9193 570.102 30.0047 570.475 29.216C570.853 28.4273 571.397 27.8137 572.106 27.375C572.815 26.9317 573.674 26.71 574.682 26.71C575.844 26.71 576.805 27.004 577.566 27.592C578.331 28.18 578.863 28.971 579.162 29.965L577.678 30.364C577.482 29.6593 577.132 29.1063 576.628 28.705C576.129 28.3037 575.48 28.103 574.682 28.103C573.968 28.103 573.373 28.264 572.897 28.586C572.421 28.908 572.062 29.3583 571.819 29.937C571.581 30.5157 571.462 31.19 571.462 31.96C571.457 32.73 571.574 33.4043 571.812 33.983C572.055 34.5617 572.414 35.012 572.89 35.334C573.371 35.656 573.968 35.817 574.682 35.817C575.48 35.817 576.129 35.6163 576.628 35.215C577.132 34.809 577.482 34.256 577.678 33.556L579.162 33.955C578.863 34.949 578.331 35.74 577.566 36.328C576.805 36.916 575.844 37.21 574.682 37.21ZM580.702 37V26.92H583.859C583.952 26.92 584.125 26.9223 584.377 26.927C584.633 26.9317 584.878 26.9503 585.112 26.983C585.9 27.081 586.563 27.3633 587.1 27.83C587.641 28.2967 588.049 28.8893 588.325 29.608C588.6 30.322 588.738 31.106 588.738 31.96C588.738 32.8187 588.6 33.6073 588.325 34.326C588.049 35.04 587.641 35.6303 587.1 36.097C586.563 36.559 585.9 36.839 585.112 36.937C584.878 36.9697 584.633 36.9883 584.377 36.993C584.125 36.9977 583.952 37 583.859 37H580.702ZM582.2 35.607H583.859C584.017 35.607 584.206 35.6023 584.426 35.593C584.645 35.5837 584.839 35.565 585.007 35.537C585.52 35.439 585.935 35.2173 586.253 34.872C586.575 34.522 586.81 34.0927 586.96 33.584C587.109 33.0753 587.184 32.534 587.184 31.96C587.184 31.3673 587.107 30.819 586.953 30.315C586.799 29.8063 586.561 29.3817 586.239 29.041C585.921 28.6957 585.511 28.4763 585.007 28.383C584.839 28.3503 584.643 28.3317 584.419 28.327C584.199 28.3177 584.013 28.313 583.859 28.313H582.2V35.607ZM590.368 37V26.92H594.442C594.54 26.92 594.661 26.9247 594.806 26.934C594.95 26.9387 595.088 26.9527 595.219 26.976C595.779 27.0647 596.245 27.256 596.619 27.55C596.997 27.844 597.279 28.215 597.466 28.663C597.652 29.111 597.746 29.6057 597.746 30.147C597.746 30.9497 597.54 31.6427 597.13 32.226C596.719 32.8047 596.103 33.1663 595.282 33.311L594.687 33.381H591.831V37H590.368ZM596.262 37L594.274 32.898L595.751 32.52L597.935 37H596.262ZM591.831 31.995H594.386C594.479 31.995 594.582 31.9903 594.694 31.981C594.81 31.9717 594.92 31.9553 595.023 31.932C595.321 31.862 595.562 31.7337 595.744 31.547C595.926 31.3557 596.056 31.1363 596.136 30.889C596.215 30.6417 596.255 30.3943 596.255 30.147C596.255 29.8997 596.215 29.6547 596.136 29.412C596.056 29.1647 595.926 28.9477 595.744 28.761C595.562 28.5697 595.321 28.439 595.023 28.369C594.92 28.341 594.81 28.3223 594.694 28.313C594.582 28.3037 594.479 28.299 594.386 28.299H591.831V31.995ZM602.294 37.189C601.795 37.189 601.326 37.0957 600.887 36.909C600.448 36.7177 600.068 36.447 599.746 36.097C599.429 35.747 599.198 35.334 599.053 34.858L600.467 34.466C600.602 34.9 600.838 35.2337 601.174 35.467C601.51 35.6957 601.883 35.8077 602.294 35.803C602.663 35.7983 602.987 35.712 603.267 35.544C603.547 35.376 603.766 35.1497 603.925 34.865C604.084 34.5757 604.163 34.2443 604.163 33.871C604.163 33.311 603.988 32.849 603.638 32.485C603.293 32.121 602.84 31.939 602.28 31.939C602.121 31.939 601.958 31.9623 601.79 32.009C601.627 32.0557 601.473 32.1163 601.328 32.191L600.642 31.036L604.198 27.893L604.352 28.313H599.452V26.92H605.514V28.313L602.56 31.155L602.546 30.679C603.181 30.679 603.731 30.8213 604.198 31.106C604.665 31.386 605.024 31.7687 605.276 32.254C605.533 32.7347 605.661 33.2737 605.661 33.871C605.661 34.515 605.509 35.0867 605.206 35.586C604.907 36.0853 604.504 36.4773 603.995 36.762C603.491 37.0467 602.924 37.189 602.294 37.189Z" fill="#60616B"/>
<path d="M648 112V24" stroke="#60616B" stroke-width="2" stroke-linecap="square" stroke-dasharray="6 6"/>
<path d="M702.593 37V26.92H708.564V28.383H704.056V31.225H707.724V32.695H704.056V37H702.593ZM709.826 37V26.92H713.9C713.998 26.92 714.119 26.9247 714.264 26.934C714.408 26.9387 714.546 26.9527 714.677 26.976C715.237 27.0647 715.703 27.256 716.077 27.55C716.455 27.844 716.737 28.215 716.924 28.663C717.11 29.111 717.204 29.6057 717.204 30.147C717.204 30.9497 716.998 31.6427 716.588 32.226C716.177 32.8047 715.561 33.1663 714.74 33.311L714.145 33.381H711.289V37H709.826ZM715.72 37L713.732 32.898L715.209 32.52L717.393 37H715.72ZM711.289 31.995H713.844C713.937 31.995 714.04 31.9903 714.152 31.981C714.268 31.9717 714.378 31.9553 714.481 31.932C714.779 31.862 715.02 31.7337 715.202 31.547C715.384 31.3557 715.514 31.1363 715.594 30.889C715.673 30.6417 715.713 30.3943 715.713 30.147C715.713 29.8997 715.673 29.6547 715.594 29.412C715.514 29.1647 715.384 28.9477 715.202 28.761C715.02 28.5697 714.779 28.439 714.481 28.369C714.378 28.341 714.268 28.3223 714.152 28.313C714.04 28.3037 713.937 28.299 713.844 28.299H711.289V31.995ZM723.201 37V35.243H718.651V33.857L721.927 26.92H723.6L720.324 33.857H723.201V31.127H724.685V33.857H725.686V35.243H724.685V37H723.201Z" fill="#60616B"/>
<path d="M48.9984 114V99.6H50.7784V114H48.9984ZM59.6089 114.3C58.6222 114.3 57.7222 114.127 56.9089 113.78C56.0956 113.433 55.3956 112.937 54.8089 112.29C54.2222 111.637 53.7689 110.85 53.4489 109.93C53.1356 109.003 52.9789 107.96 52.9789 106.8C52.9789 105.267 53.2522 103.94 53.7989 102.82C54.3456 101.7 55.1156 100.837 56.1089 100.23C57.1022 99.6167 58.2689 99.31 59.6089 99.31C61.2222 99.31 62.5222 99.6867 63.5089 100.44C64.4956 101.187 65.1756 102.21 65.5489 103.51L63.7489 103.88C63.4489 103.007 62.9556 102.31 62.2689 101.79C61.5822 101.27 60.7256 101.01 59.6989 101.01C58.6256 101.003 57.7322 101.243 57.0189 101.73C56.3122 102.21 55.7789 102.887 55.4189 103.76C55.0589 104.633 54.8756 105.647 54.8689 106.8C54.8622 107.947 55.0389 108.953 55.3989 109.82C55.7589 110.687 56.2956 111.367 57.0089 111.86C57.7289 112.347 58.6256 112.593 59.6989 112.6C60.6256 112.607 61.4056 112.43 62.0389 112.07C62.6722 111.71 63.1622 111.19 63.5089 110.51C63.8556 109.83 64.0656 109.013 64.1389 108.06H61.0789V106.59H66.0189C66.0389 106.723 66.0489 106.883 66.0489 107.07C66.0556 107.25 66.0589 107.373 66.0589 107.44C66.0589 108.753 65.8122 109.93 65.3189 110.97C64.8322 112.003 64.1089 112.817 63.1489 113.41C62.1956 114.003 61.0156 114.3 59.6089 114.3ZM68.0563 114V99.6H69.8363V105.95H77.4163V99.6H79.1963V114H77.4163V107.64H69.8363V114H68.0563Z" fill="white"/>
<rect width="46" height="22" transform="translate(173 46)" fill="#1B1B1F"/>
<path d="M174.616 53.832V52.36H176.04V53.832H174.616ZM174.616 64V55.36H176.04V64H174.616ZM184.592 64V59.672C184.592 59.2613 184.555 58.8667 184.48 58.488C184.411 58.1093 184.286 57.7707 184.104 57.472C183.928 57.168 183.688 56.928 183.384 56.752C183.086 56.576 182.707 56.488 182.248 56.488C181.891 56.488 181.566 56.5493 181.272 56.672C180.984 56.7893 180.736 56.9707 180.528 57.216C180.32 57.4613 180.158 57.7707 180.04 58.144C179.928 58.512 179.872 58.9467 179.872 59.448L178.936 59.16C178.936 58.3227 179.086 57.6053 179.384 57.008C179.688 56.4053 180.112 55.944 180.656 55.624C181.206 55.2987 181.851 55.136 182.592 55.136C183.152 55.136 183.63 55.224 184.024 55.4C184.419 55.576 184.747 55.8107 185.008 56.104C185.27 56.392 185.475 56.7173 185.624 57.08C185.774 57.4373 185.878 57.8027 185.936 58.176C186 58.544 186.032 58.8933 186.032 59.224V64H184.592ZM178.432 64V55.36H179.712V57.672H179.872V64H178.432ZM192.936 64C192.424 64.1013 191.918 64.1413 191.416 64.12C190.92 64.104 190.478 64.0053 190.088 63.824C189.699 63.6373 189.403 63.3493 189.2 62.96C189.03 62.6187 188.936 62.2747 188.92 61.928C188.91 61.576 188.904 61.1787 188.904 60.736V52.96H190.328V60.672C190.328 61.024 190.331 61.3253 190.336 61.576C190.347 61.8267 190.403 62.0427 190.504 62.224C190.696 62.5653 191 62.7653 191.416 62.824C191.838 62.8827 192.344 62.8667 192.936 62.776V64ZM187.152 56.536V55.36H192.936V56.536H187.152ZM194.69 64V55.36H195.962V57.448L195.754 57.176C195.856 56.9093 195.986 56.664 196.146 56.44C196.312 56.216 196.496 56.032 196.698 55.888C196.922 55.7067 197.176 55.568 197.458 55.472C197.741 55.376 198.029 55.32 198.322 55.304C198.616 55.2827 198.89 55.3013 199.146 55.36V56.696C198.848 56.616 198.52 56.5947 198.162 56.632C197.805 56.6693 197.474 56.8 197.17 57.024C196.893 57.2213 196.677 57.4613 196.522 57.744C196.373 58.0267 196.269 58.3333 196.21 58.664C196.152 58.9893 196.122 59.3227 196.122 59.664V64H194.69ZM204.183 64.24C203.324 64.24 202.583 64.0453 201.959 63.656C201.34 63.2667 200.863 62.728 200.527 62.04C200.191 61.352 200.023 60.5627 200.023 59.672C200.023 58.7653 200.193 57.9707 200.535 57.288C200.876 56.6053 201.359 56.0747 201.983 55.696C202.607 55.312 203.34 55.12 204.183 55.12C205.047 55.12 205.791 55.3147 206.415 55.704C207.039 56.088 207.516 56.624 207.847 57.312C208.183 57.9947 208.351 58.7813 208.351 59.672C208.351 60.5733 208.183 61.368 207.847 62.056C207.511 62.7387 207.031 63.2747 206.407 63.664C205.783 64.048 205.041 64.24 204.183 64.24ZM204.183 62.888C205.079 62.888 205.745 62.5893 206.183 61.992C206.62 61.3947 206.839 60.6213 206.839 59.672C206.839 58.696 206.617 57.92 206.175 57.344C205.732 56.7627 205.068 56.472 204.183 56.472C203.58 56.472 203.084 56.608 202.695 56.88C202.305 57.152 202.015 57.528 201.823 58.008C201.631 58.488 201.535 59.0427 201.535 59.672C201.535 60.6427 201.759 61.4213 202.207 62.008C202.655 62.5947 203.313 62.888 204.183 62.888ZM216.264 64V59.672C216.264 59.2613 216.227 58.8667 216.152 58.488C216.083 58.1093 215.958 57.7707 215.776 57.472C215.6 57.168 215.36 56.928 215.056 56.752C214.758 56.576 214.379 56.488 213.92 56.488C213.563 56.488 213.238 56.5493 212.944 56.672C212.656 56.7893 212.408 56.9707 212.2 57.216C211.992 57.4613 211.83 57.7707 211.712 58.144C211.6 58.512 211.544 58.9467 211.544 59.448L210.608 59.16C210.608 58.3227 210.758 57.6053 211.056 57.008C211.36 56.4053 211.784 55.944 212.328 55.624C212.878 55.2987 213.523 55.136 214.264 55.136C214.824 55.136 215.302 55.224 215.696 55.4C216.091 55.576 216.419 55.8107 216.68 56.104C216.942 56.392 217.147 56.7173 217.296 57.08C217.446 57.4373 217.55 57.8027 217.608 58.176C217.672 58.544 217.704 58.8933 217.704 59.224V64H216.264ZM210.104 64V55.36H211.384V57.672H211.544V64H210.104Z" fill="white"/>
<path d="M320 180L319.293 180.707L318.586 180L319.293 179.293L320 180ZM327.293 171.293L328 170.586L329.414 172L328.707 172.707L327.293 171.293ZM328.707 187.293L329.414 188L328 189.414L327.293 188.707L328.707 187.293ZM330 181L320 181L320 179L330 179L330 181ZM319.293 179.293L327.293 171.293L328.707 172.707L320.707 180.707L319.293 179.293ZM320.707 179.293L328.707 187.293L327.293 188.707L319.293 180.707L320.707 179.293Z" fill="#DFE0E5"/>
<path d="M510.5 180H330" stroke="#DFE0E5" stroke-width="2"/>
<rect width="57" height="20" transform="translate(510.5 170)" fill="#1B1B1F"/>
<path d="M519.171 186.224C517.459 186.224 516.019 185.232 515.531 183.632L516.899 183.24C517.243 184.312 518.139 184.88 519.163 184.864C520.563 184.84 521.467 183.864 521.467 182.456C521.467 181.032 520.531 180.048 519.147 180.048C518.755 180.048 518.315 180.168 517.955 180.352L517.267 179.224L521.011 175.84H515.987V174.48H522.779V175.848L519.667 178.832C521.651 178.944 522.931 180.44 522.931 182.456C522.931 184.664 521.307 186.224 519.171 186.224ZM528.899 186.24C526.659 186.24 525.011 184.592 525.011 182.352V178.128C525.011 175.888 526.659 174.24 528.899 174.24C531.139 174.24 532.787 175.888 532.787 178.128V182.352C532.787 184.592 531.139 186.24 528.899 186.24ZM526.459 182.432C526.459 183.784 527.547 184.872 528.899 184.872C530.251 184.872 531.339 183.784 531.339 182.432V178.04C531.339 176.688 530.251 175.6 528.899 175.6C527.547 175.6 526.459 176.688 526.459 178.04V182.432ZM538.914 186.24C536.674 186.24 535.026 184.592 535.026 182.352V178.128C535.026 175.888 536.674 174.24 538.914 174.24C541.154 174.24 542.802 175.888 542.802 178.128V182.352C542.802 184.592 541.154 186.24 538.914 186.24ZM536.474 182.432C536.474 183.784 537.562 184.872 538.914 184.872C540.266 184.872 541.354 183.784 541.354 182.432V178.04C541.354 176.688 540.266 175.6 538.914 175.6C537.562 175.6 536.474 176.688 536.474 178.04V182.432ZM549.01 186.24C547.842 186.24 546.938 185.784 546.306 185.024V186H545.034V174.48H546.466V178.144C547.082 177.496 547.938 177.12 549.018 177.12C551.418 177.12 552.882 179.08 552.882 181.672C552.882 184.264 551.426 186.24 549.01 186.24ZM546.306 181.672C546.306 183.568 547.09 184.936 548.834 184.936C550.538 184.936 551.37 183.512 551.37 181.672C551.37 179.848 550.554 178.424 548.794 178.424C547.106 178.424 546.306 179.76 546.306 181.672ZM558.604 186.24C557.532 186.24 556.676 185.856 556.06 185.2V189.84H554.628V177.36H555.9V178.328C556.532 177.568 557.436 177.12 558.612 177.12C561.012 177.12 562.476 179.08 562.476 181.672C562.476 184.264 561.02 186.24 558.604 186.24ZM555.9 181.672C555.9 183.568 556.684 184.936 558.428 184.936C560.132 184.936 560.964 183.512 560.964 181.672C560.964 179.848 560.148 178.424 558.388 178.424C556.7 178.424 555.9 179.76 555.9 181.672Z" fill="white"/>
<path d="M748 180H567.5" stroke="#DFE0E5" stroke-width="2"/>
<path d="M755.12 186V174.48H759.672C759.896 174.48 760.224 174.496 760.52 174.544C762.384 174.832 763.368 176.28 763.368 178.112C763.368 179.632 762.688 180.888 761.384 181.432L763.608 186H761.976L759.912 181.744H756.544V186H755.12ZM756.544 180.392H759.624C759.824 180.392 760.104 180.376 760.344 180.32C761.448 180.072 761.912 179.072 761.912 178.112C761.912 177.152 761.448 176.152 760.344 175.904C760.104 175.848 759.824 175.832 759.624 175.832H756.544V180.392ZM765.05 185.992L765.058 184.712L770.17 180.112C771.018 179.352 771.25 178.688 771.25 177.96C771.25 176.632 770.258 175.6 768.93 175.6C767.554 175.6 766.546 176.696 766.562 177.952H765.106C765.106 175.784 766.738 174.24 768.954 174.24C771.09 174.24 772.706 175.856 772.706 177.976C772.706 179.488 772.138 180.248 770.954 181.296L767.242 184.632H772.706V185.992H765.05Z" fill="white"/>
<rect x="748" y="168" width="32" height="24" rx="1" stroke="#DFE0E5" stroke-width="2"/>
<path d="M129.62 162V150.48H134.172C134.396 150.48 134.724 150.496 135.02 150.544C136.884 150.832 137.868 152.28 137.868 154.112C137.868 155.632 137.188 156.888 135.884 157.432L138.108 162H136.476L134.412 157.744H131.044V162H129.62ZM131.044 156.392H134.124C134.324 156.392 134.604 156.376 134.844 156.32C135.948 156.072 136.412 155.072 136.412 154.112C136.412 153.152 135.948 152.152 134.844 151.904C134.604 151.848 134.324 151.832 134.124 151.832H131.044V156.392ZM141.878 162V152.056L139.71 153.368V151.776L141.878 150.48H143.326V162H141.878Z" fill="white"/>
<rect x="121" y="144" width="32" height="24" rx="1" stroke="#DFE0E5" stroke-width="2"/>
<path d="M333.5 156H153" stroke="#DFE0E5" stroke-width="2"/>
<rect width="57" height="20" transform="translate(333.5 146)" fill="#1B1B1F"/>
<path d="M342.171 162.224C340.459 162.224 339.019 161.232 338.531 159.632L339.899 159.24C340.243 160.312 341.139 160.88 342.163 160.864C343.563 160.84 344.467 159.864 344.467 158.456C344.467 157.032 343.531 156.048 342.147 156.048C341.755 156.048 341.315 156.168 340.955 156.352L340.267 155.224L344.011 151.84H338.987V150.48H345.779V151.848L342.667 154.832C344.651 154.944 345.931 156.44 345.931 158.456C345.931 160.664 344.307 162.224 342.171 162.224ZM351.899 162.24C349.659 162.24 348.011 160.592 348.011 158.352V154.128C348.011 151.888 349.659 150.24 351.899 150.24C354.139 150.24 355.787 151.888 355.787 154.128V158.352C355.787 160.592 354.139 162.24 351.899 162.24ZM349.459 158.432C349.459 159.784 350.547 160.872 351.899 160.872C353.251 160.872 354.339 159.784 354.339 158.432V154.04C354.339 152.688 353.251 151.6 351.899 151.6C350.547 151.6 349.459 152.688 349.459 154.04V158.432ZM361.914 162.24C359.674 162.24 358.026 160.592 358.026 158.352V154.128C358.026 151.888 359.674 150.24 361.914 150.24C364.154 150.24 365.802 151.888 365.802 154.128V158.352C365.802 160.592 364.154 162.24 361.914 162.24ZM359.474 158.432C359.474 159.784 360.562 160.872 361.914 160.872C363.266 160.872 364.354 159.784 364.354 158.432V154.04C364.354 152.688 363.266 151.6 361.914 151.6C360.562 151.6 359.474 152.688 359.474 154.04V158.432ZM372.01 162.24C370.842 162.24 369.938 161.784 369.306 161.024V162H368.034V150.48H369.466V154.144C370.082 153.496 370.938 153.12 372.018 153.12C374.418 153.12 375.882 155.08 375.882 157.672C375.882 160.264 374.426 162.24 372.01 162.24ZM369.306 157.672C369.306 159.568 370.09 160.936 371.834 160.936C373.538 160.936 374.37 159.512 374.37 157.672C374.37 155.848 373.554 154.424 371.794 154.424C370.106 154.424 369.306 155.76 369.306 157.672ZM381.604 162.24C380.532 162.24 379.676 161.856 379.06 161.2V165.84H377.628V153.36H378.9V154.328C379.532 153.568 380.436 153.12 381.612 153.12C384.012 153.12 385.476 155.08 385.476 157.672C385.476 160.264 384.02 162.24 381.604 162.24ZM378.9 157.672C378.9 159.568 379.684 160.936 381.428 160.936C383.132 160.936 383.964 159.512 383.964 157.672C383.964 155.848 383.148 154.424 381.388 154.424C379.7 154.424 378.9 155.76 378.9 157.672Z" fill="white"/>
<path d="M571 156H390.5" stroke="#DFE0E5" stroke-width="2"/>
<path d="M581 156L581.707 155.293L582.414 156L581.707 156.707L581 156ZM573.707 164.707L573 165.414L571.586 164L572.293 163.293L573.707 164.707ZM572.293 148.707L571.586 148L573 146.586L573.707 147.293L572.293 148.707ZM571 155L581 155L581 157L571 157L571 155ZM581.707 156.707L573.707 164.707L572.293 163.293L580.293 155.293L581.707 156.707ZM580.293 156.707L572.293 148.707L573.707 147.293L581.707 155.293L580.293 156.707Z" fill="#DFE0E5"/>
<path d="M807.718 174V162.48H809.142V174H807.718ZM811.702 174V162.24H813.126V174H811.702ZM815.686 174V162.24H817.11V174H815.686ZM822.791 174.224C822.236 174.224 821.759 174.136 821.359 173.96C820.964 173.784 820.636 173.549 820.375 173.256C820.113 172.963 819.908 172.637 819.759 172.28C819.609 171.923 819.503 171.557 819.439 171.184C819.38 170.811 819.351 170.461 819.351 170.136V165.36H820.791V169.688C820.791 170.093 820.828 170.485 820.903 170.864C820.977 171.243 821.103 171.584 821.279 171.888C821.46 172.192 821.7 172.432 821.999 172.608C822.303 172.784 822.681 172.872 823.135 172.872C823.492 172.872 823.817 172.811 824.111 172.688C824.404 172.565 824.655 172.384 824.863 172.144C825.071 171.899 825.231 171.589 825.343 171.216C825.455 170.843 825.511 170.408 825.511 169.912L826.447 170.2C826.447 171.032 826.295 171.749 825.991 172.352C825.692 172.955 825.268 173.419 824.719 173.744C824.175 174.064 823.532 174.224 822.791 174.224ZM825.671 174V171.688H825.511V165.36H826.943V174H825.671ZM839.511 174L839.519 168.472C839.519 167.827 839.345 167.323 838.999 166.96C838.657 166.592 838.212 166.408 837.663 166.408C837.343 166.408 837.039 166.483 836.751 166.632C836.463 166.776 836.228 167.005 836.047 167.32C835.865 167.629 835.775 168.027 835.775 168.512L835.023 168.208C835.012 167.595 835.137 167.059 835.399 166.6C835.665 166.136 836.028 165.776 836.487 165.52C836.945 165.264 837.463 165.136 838.039 165.136C838.94 165.136 839.649 165.411 840.167 165.96C840.684 166.504 840.943 167.237 840.943 168.16L840.935 174H839.511ZM829.175 174V165.36H830.447V167.672H830.607V174H829.175ZM834.351 174L834.359 168.528C834.359 167.867 834.188 167.349 833.847 166.976C833.505 166.597 833.052 166.408 832.487 166.408C831.927 166.408 831.473 166.6 831.127 166.984C830.78 167.368 830.607 167.877 830.607 168.512L829.855 168.064C829.855 167.504 829.988 167.003 830.255 166.56C830.521 166.117 830.884 165.771 831.343 165.52C831.801 165.264 832.321 165.136 832.903 165.136C833.484 165.136 833.991 165.259 834.423 165.504C834.855 165.749 835.188 166.101 835.423 166.56C835.657 167.013 835.775 167.555 835.775 168.184L835.767 174H834.351ZM843.186 163.832V162.36H844.61V163.832H843.186ZM843.186 174V165.36H844.61V174H843.186ZM853.163 174V169.672C853.163 169.261 853.125 168.867 853.051 168.488C852.981 168.109 852.856 167.771 852.675 167.472C852.499 167.168 852.259 166.928 851.955 166.752C851.656 166.576 851.277 166.488 850.819 166.488C850.461 166.488 850.136 166.549 849.843 166.672C849.555 166.789 849.307 166.971 849.099 167.216C848.891 167.461 848.728 167.771 848.611 168.144C848.499 168.512 848.443 168.947 848.443 169.448L847.507 169.16C847.507 168.323 847.656 167.605 847.955 167.008C848.259 166.405 848.683 165.944 849.227 165.624C849.776 165.299 850.421 165.136 851.163 165.136C851.723 165.136 852.2 165.224 852.595 165.4C852.989 165.576 853.317 165.811 853.579 166.104C853.84 166.392 854.045 166.717 854.195 167.08C854.344 167.437 854.448 167.803 854.507 168.176C854.571 168.544 854.603 168.893 854.603 169.224V174H853.163ZM847.003 174V165.36H848.283V167.672H848.443V174H847.003ZM859.139 174.24C858.493 174.24 857.952 174.123 857.515 173.888C857.083 173.648 856.755 173.333 856.531 172.944C856.312 172.555 856.203 172.128 856.203 171.664C856.203 171.211 856.288 170.819 856.459 170.488C856.635 170.152 856.88 169.875 857.195 169.656C857.509 169.432 857.885 169.256 858.323 169.128C858.733 169.016 859.192 168.92 859.699 168.84C860.211 168.755 860.728 168.677 861.251 168.608C861.773 168.539 862.261 168.472 862.715 168.408L862.203 168.704C862.219 167.936 862.064 167.368 861.739 167C861.419 166.632 860.864 166.448 860.075 166.448C859.552 166.448 859.093 166.568 858.699 166.808C858.309 167.043 858.035 167.427 857.875 167.96L856.523 167.552C856.731 166.795 857.133 166.2 857.731 165.768C858.328 165.336 859.115 165.12 860.091 165.12C860.875 165.12 861.547 165.261 862.107 165.544C862.672 165.821 863.077 166.243 863.323 166.808C863.445 167.075 863.523 167.365 863.555 167.68C863.587 167.989 863.602 168.315 863.602 168.656V174H862.339V171.928L862.635 172.12C862.309 172.819 861.853 173.347 861.267 173.704C860.685 174.061 859.976 174.24 859.139 174.24ZM859.355 173.048C859.867 173.048 860.309 172.957 860.683 172.776C861.061 172.589 861.365 172.347 861.595 172.048C861.824 171.744 861.973 171.413 862.043 171.056C862.123 170.789 862.165 170.493 862.171 170.168C862.181 169.837 862.187 169.584 862.187 169.408L862.683 169.624C862.219 169.688 861.763 169.749 861.315 169.808C860.867 169.867 860.443 169.931 860.043 170C859.643 170.064 859.283 170.141 858.963 170.232C858.728 170.307 858.507 170.403 858.299 170.52C858.096 170.637 857.931 170.789 857.803 170.976C857.68 171.157 857.618 171.384 857.618 171.656C857.618 171.891 857.677 172.115 857.795 172.328C857.917 172.541 858.104 172.715 858.355 172.848C858.611 172.981 858.944 173.048 859.355 173.048Z" fill="#ADAEB8"/>
<path d="M792 148H800V188H792" stroke="#60616B" stroke-width="2"/>
<g filter="url(#filter0_i_6962_5962)">
<path fill-rule="evenodd" clip-rule="evenodd" d="M133.6 80H125L120 86.5L125 93L120 99.5L125 106L120 112L125 119L120 125.5L125 132H133.6H134H182.4C182.96 132 183.24 132 183.454 131.891C183.642 131.795 183.795 131.642 183.891 131.454C184 131.24 184 130.96 184 130.4V125.5V119V112V106V99.5V93V86.5V81.6C184 81.0399 184 80.7599 183.891 80.546C183.795 80.3578 183.642 80.2049 183.454 80.109C183.24 80 182.96 80 182.4 80H134H133.6Z" fill="#99E099"/>
</g>
<path d="M125 80V79H124.508L124.207 79.3903L125 80ZM120 86.5L119.207 85.8903L118.738 86.5L119.207 87.1097L120 86.5ZM125 93L125.793 93.6097L126.262 93L125.793 92.3903L125 93ZM120 99.5L119.207 98.8903L118.738 99.5L119.207 100.11L120 99.5ZM125 106L125.768 106.64L126.281 106.025L125.793 105.39L125 106ZM120 112L119.232 111.36L118.737 111.953L119.186 112.581L120 112ZM125 119L125.793 119.61L126.245 119.022L125.814 118.419L125 119ZM120 125.5L119.207 124.89L118.738 125.5L119.207 126.11L120 125.5ZM125 132L124.207 132.61L124.508 133H125V132ZM183.454 131.891L183.908 132.782L183.908 132.782L183.454 131.891ZM183.891 131.454L184.782 131.908L184.782 131.908L183.891 131.454ZM183.891 80.546L184.782 80.092V80.092L183.891 80.546ZM183.454 80.109L183.908 79.218L183.908 79.218L183.454 80.109ZM125 81H133.6V79H125V81ZM120.793 87.1097L125.793 80.6097L124.207 79.3903L119.207 85.8903L120.793 87.1097ZM125.793 92.3903L120.793 85.8903L119.207 87.1097L124.207 93.6097L125.793 92.3903ZM120.793 100.11L125.793 93.6097L124.207 92.3903L119.207 98.8903L120.793 100.11ZM125.793 105.39L120.793 98.8903L119.207 100.11L124.207 106.61L125.793 105.39ZM120.768 112.64L125.768 106.64L124.232 105.36L119.232 111.36L120.768 112.64ZM125.814 118.419L120.814 111.419L119.186 112.581L124.186 119.581L125.814 118.419ZM120.793 126.11L125.793 119.61L124.207 118.39L119.207 124.89L120.793 126.11ZM125.793 131.39L120.793 124.89L119.207 126.11L124.207 132.61L125.793 131.39ZM133.6 131H125V133H133.6V131ZM133.6 133H134V131H133.6V133ZM134 133H182.4V131H134V133ZM182.4 133C182.664 133 182.921 133.001 183.138 132.983C183.367 132.964 183.637 132.92 183.908 132.782L183 131C183.058 130.971 183.08 130.981 182.975 130.99C182.859 130.999 182.697 131 182.4 131V133ZM183.908 132.782C184.284 132.59 184.59 132.284 184.782 131.908L183 131L183 131L183.908 132.782ZM184.782 131.908C184.92 131.637 184.964 131.367 184.983 131.138C185.001 130.921 185 130.664 185 130.4H183C183 130.697 182.999 130.859 182.99 130.975C182.981 131.08 182.971 131.058 183 131L184.782 131.908ZM185 130.4V125.5H183V130.4H185ZM185 125.5V119H183V125.5H185ZM185 119V112H183V119H185ZM185 112V106H183V112H185ZM185 106V99.5H183V106H185ZM185 99.5V93H183V99.5H185ZM185 93V86.5H183V93H185ZM185 86.5V81.6H183V86.5H185ZM185 81.6C185 81.3365 185.001 81.0787 184.983 80.8618C184.964 80.6332 184.92 80.3634 184.782 80.092L183 81C182.971 80.9425 182.981 80.9197 182.99 81.0246C182.999 81.1412 183 81.3035 183 81.6H185ZM184.782 80.092C184.59 79.7157 184.284 79.4097 183.908 79.218L183 81L183 81L184.782 80.092ZM183.908 79.218C183.637 79.0797 183.367 79.0356 183.138 79.0169C182.921 78.9992 182.664 79 182.4 79V81C182.697 81 182.859 81.0008 182.975 81.0103C183.08 81.0189 183.058 81.0293 183 81L183.908 79.218ZM182.4 79H134V81H182.4V79ZM134 79H133.6V81H134V79Z" fill="#110529"/>
<g filter="url(#filter1_i_6962_5962)">
<rect x="184" y="80" width="24" height="52" rx="1" fill="#F0F0F0"/>
<rect x="184" y="80" width="24" height="52" rx="1" stroke="#110529" stroke-width="2" stroke-linecap="round"/>
</g>
<g filter="url(#filter2_i_6962_5962)">
<path d="M540 81.6C540 81.0399 540 80.7599 539.891 80.546C539.795 80.3578 539.642 80.2049 539.454 80.109C539.24 80 538.96 80 538.4 80H209.6C209.04 80 208.76 80 208.546 80.109C208.358 80.2049 208.205 80.3578 208.109 80.546C208 80.7599 208 81.0399 208 81.6V130.4C208 130.96 208 131.24 208.109 131.454C208.205 131.642 208.358 131.795 208.546 131.891C208.76 132 209.04 132 209.6 132H538.4C538.96 132 539.24 132 539.454 131.891C539.642 131.795 539.795 131.642 539.891 131.454C540 131.24 540 130.96 540 130.4V125.5V119V112V106V99.5V93V86.5V81.6Z" fill="#99E099"/>
</g>
<path d="M540 81.6C540 81.0399 540 80.7599 539.891 80.546C539.795 80.3578 539.642 80.2049 539.454 80.109C539.24 80 538.96 80 538.4 80H209.6C209.04 80 208.76 80 208.546 80.109C208.358 80.2049 208.205 80.3578 208.109 80.546C208 80.7599 208 81.0399 208 81.6V130.4C208 130.96 208 131.24 208.109 131.454C208.205 131.642 208.358 131.795 208.546 131.891C208.76 132 209.04 132 209.6 132H538.4C538.96 132 539.24 132 539.454 131.891C539.642 131.795 539.795 131.642 539.891 131.454C540 131.24 540 130.96 540 130.4V125.5V119V112V106V99.5V93V86.5V81.6Z" stroke="#110529" stroke-width="2" stroke-linecap="round"/>
<path d="M372.758 114L367.938 99.6H369.788L373.978 112.11L378.208 99.6H380.058L375.238 114H372.758Z" fill="#110529"/>
<g filter="url(#filter3_i_6962_5962)">
<rect x="540" y="80" width="30" height="52" rx="1" fill="#CBEB67"/>
</g>
<rect x="540" y="80" width="30" height="52" rx="1" stroke="#110529" stroke-width="2" stroke-linecap="round"/>
<g filter="url(#filter4_i_6962_5962)">
<rect x="606" y="80" width="30" height="52" rx="1" fill="#FAAAFA"/>
</g>
<rect x="606" y="80" width="30" height="52" rx="1" stroke="#110529" stroke-width="2" stroke-linecap="round"/>
<g filter="url(#filter5_i_6962_5962)">
<rect x="570" y="80" width="36" height="52" rx="1" fill="#FFCB8F"/>
</g>
<rect x="570" y="80" width="36" height="52" rx="1" stroke="#110529" stroke-width="2" stroke-linecap="round"/>
<path d="M549.447 114V99.6H551.247L558.757 110.85V99.6H560.557V114H558.757L551.247 102.74V114H549.447Z" fill="#110529"/>
<path d="M615.447 114V99.6H617.247L624.757 110.85V99.6H626.557V114H624.757L617.247 102.74V114H615.447Z" fill="#110529"/>
<path d="M582.593 114V99.6H587.033C587.313 99.6 588.173 99.6 588.853 99.69C592.183 100.13 593.913 103.13 593.913 106.8C593.913 110.48 592.183 113.47 588.853 113.91C588.183 114 587.303 114 587.033 114H582.593ZM584.423 112.3H587.033C587.533 112.3 588.233 112.28 588.703 112.19C591.063 111.76 592.023 109.47 592.023 106.8C592.023 104.08 591.033 101.83 588.703 101.41C588.233 101.32 587.513 101.3 587.033 101.3H584.423V112.3Z" fill="#110529"/>
<g filter="url(#filter6_i_6962_5962)">
<path fill-rule="evenodd" clip-rule="evenodd" d="M773.4 132H780L775 125.5L780 119L775 112L780 106L775 99.5L780 93L775 86.5L780 80H773.4H766H637.6C637.04 80 636.76 80 636.546 80.109C636.358 80.2049 636.205 80.3578 636.109 80.546C636 80.7599 636 81.0399 636 81.6V130.4C636 130.96 636 131.24 636.109 131.454C636.205 131.642 636.358 131.795 636.546 131.891C636.76 132 637.04 132 637.6 132H766H773.4Z" fill="#C1ADFF"/>
</g>
<path d="M780 132V133H782.031L780.793 131.39L780 132ZM775 125.5L774.207 124.89L773.738 125.5L774.207 126.11L775 125.5ZM780 119L780.793 119.61L781.245 119.022L780.814 118.419L780 119ZM775 112L774.232 111.36L773.737 111.953L774.186 112.581L775 112ZM780 106L780.768 106.64L781.281 106.025L780.793 105.39L780 106ZM775 99.5L774.207 98.8903L773.738 99.5L774.207 100.11L775 99.5ZM780 93L780.793 93.6097L781.262 93L780.793 92.3903L780 93ZM775 86.5L774.207 85.8903L773.738 86.5L774.207 87.1097L775 86.5ZM780 80L780.793 80.6097L782.031 79H780V80ZM636.546 80.109L636.092 79.218L636.092 79.218L636.546 80.109ZM636.109 80.546L637 81L637 81L636.109 80.546ZM636.109 131.454L635.218 131.908H635.218L636.109 131.454ZM636.546 131.891L636.092 132.782L636.092 132.782L636.546 131.891ZM773.4 133H780V131H773.4V133ZM780.793 131.39L775.793 124.89L774.207 126.11L779.207 132.61L780.793 131.39ZM775.793 126.11L780.793 119.61L779.207 118.39L774.207 124.89L775.793 126.11ZM780.814 118.419L775.814 111.419L774.186 112.581L779.186 119.581L780.814 118.419ZM775.768 112.64L780.768 106.64L779.232 105.36L774.232 111.36L775.768 112.64ZM780.793 105.39L775.793 98.8903L774.207 100.11L779.207 106.61L780.793 105.39ZM775.793 100.11L780.793 93.6097L779.207 92.3903L774.207 98.8903L775.793 100.11ZM780.793 92.3903L775.793 85.8903L774.207 87.1097L779.207 93.6097L780.793 92.3903ZM775.793 87.1097L780.793 80.6097L779.207 79.3903L774.207 85.8903L775.793 87.1097ZM780 79H773.4V81H780V79ZM773.4 79H766V81H773.4V79ZM766 79H637.6V81H766V79ZM637.6 79C637.336 79 637.079 78.9992 636.862 79.0169C636.633 79.0356 636.363 79.0797 636.092 79.218L637 81C636.942 81.0293 636.92 81.0189 637.025 81.0103C637.141 81.0008 637.303 81 637.6 81V79ZM636.092 79.218C635.716 79.4097 635.41 79.7157 635.218 80.092L637 81L636.092 79.218ZM635.218 80.092C635.08 80.3634 635.036 80.6332 635.017 80.8618C634.999 81.0787 635 81.3365 635 81.6H637C637 81.3035 637.001 81.1412 637.01 81.0246C637.019 80.9197 637.029 80.9425 637 81L635.218 80.092ZM635 81.6V130.4H637V81.6H635ZM635 130.4C635 130.664 634.999 130.921 635.017 131.138C635.036 131.367 635.08 131.637 635.218 131.908L637 131C637.029 131.058 637.019 131.08 637.01 130.975C637.001 130.859 637 130.697 637 130.4H635ZM635.218 131.908C635.41 132.284 635.716 132.59 636.092 132.782L637 131L637 131L635.218 131.908ZM636.092 132.782C636.363 132.92 636.633 132.964 636.862 132.983C637.079 133.001 637.336 133 637.6 133V131C637.303 131 637.141 130.999 637.025 130.99C636.92 130.981 636.942 130.971 637 131L636.092 132.782ZM637.6 133H766V131H637.6V133ZM766 133H773.4V131H766V133Z" fill="#110529"/>
<g filter="url(#filter7_i_6962_5962)">
<path fill-rule="evenodd" clip-rule="evenodd" d="M773.4 132H780L775 125.5L780 119L775 112L780 106L775 99.5L780 93L775 86.5L780 80H773.4H766H637.6C637.04 80 636.76 80 636.546 80.109C636.358 80.2049 636.205 80.3578 636.109 80.546C636 80.7599 636 81.0399 636 81.6V130.4C636 130.96 636 131.24 636.109 131.454C636.205 131.642 636.358 131.795 636.546 131.891C636.76 132 637.04 132 637.6 132H766H773.4Z" fill="#C1ADFF"/>
</g>
<path d="M780 132V133H782.031L780.793 131.39L780 132ZM775 125.5L774.207 124.89L773.738 125.5L774.207 126.11L775 125.5ZM780 119L780.793 119.61L781.245 119.022L780.814 118.419L780 119ZM775 112L774.232 111.36L773.737 111.953L774.186 112.581L775 112ZM780 106L780.768 106.64L781.281 106.025L780.793 105.39L780 106ZM775 99.5L774.207 98.8903L773.738 99.5L774.207 100.11L775 99.5ZM780 93L780.793 93.6097L781.262 93L780.793 92.3903L780 93ZM775 86.5L774.207 85.8903L773.738 86.5L774.207 87.1097L775 86.5ZM780 80L780.793 80.6097L782.031 79H780V80ZM636.546 80.109L636.092 79.218L636.092 79.218L636.546 80.109ZM636.109 80.546L637 81L637 81L636.109 80.546ZM636.109 131.454L635.218 131.908H635.218L636.109 131.454ZM636.546 131.891L636.092 132.782L636.092 132.782L636.546 131.891ZM773.4 133H780V131H773.4V133ZM780.793 131.39L775.793 124.89L774.207 126.11L779.207 132.61L780.793 131.39ZM775.793 126.11L780.793 119.61L779.207 118.39L774.207 124.89L775.793 126.11ZM780.814 118.419L775.814 111.419L774.186 112.581L779.186 119.581L780.814 118.419ZM775.768 112.64L780.768 106.64L779.232 105.36L774.232 111.36L775.768 112.64ZM780.793 105.39L775.793 98.8903L774.207 100.11L779.207 106.61L780.793 105.39ZM775.793 100.11L780.793 93.6097L779.207 92.3903L774.207 98.8903L775.793 100.11ZM780.793 92.3903L775.793 85.8903L774.207 87.1097L779.207 93.6097L780.793 92.3903ZM775.793 87.1097L780.793 80.6097L779.207 79.3903L774.207 85.8903L775.793 87.1097ZM780 79H773.4V81H780V79ZM773.4 79H766V81H773.4V79ZM766 79H637.6V81H766V79ZM637.6 79C637.336 79 637.079 78.9992 636.862 79.0169C636.633 79.0356 636.363 79.0797 636.092 79.218L637 81C636.942 81.0293 636.92 81.0189 637.025 81.0103C637.141 81.0008 637.303 81 637.6 81V79ZM636.092 79.218C635.716 79.4097 635.41 79.7157 635.218 80.092L637 81L636.092 79.218ZM635.218 80.092C635.08 80.3634 635.036 80.6332 635.017 80.8618C634.999 81.0787 635 81.3365 635 81.6H637C637 81.3035 637.001 81.1412 637.01 81.0246C637.019 80.9197 637.029 80.9425 637 81L635.218 80.092ZM635 81.6V130.4H637V81.6H635ZM635 130.4C635 130.664 634.999 130.921 635.017 131.138C635.036 131.367 635.08 131.637 635.218 131.908L637 131C637.029 131.058 637.019 131.08 637.01 130.975C637.001 130.859 637 130.697 637 130.4H635ZM635.218 131.908C635.41 132.284 635.716 132.59 636.092 132.782L637 131L637 131L635.218 131.908ZM636.092 132.782C636.363 132.92 636.633 132.964 636.862 132.983C637.079 133.001 637.336 133 637.6 133V131C637.303 131 637.141 130.999 637.025 130.99C636.92 130.981 636.942 130.971 637 131L636.092 132.782ZM637.6 133H766V131H637.6V133ZM766 133H773.4V131H766V133Z" fill="#110529"/>
<path d="M707.244 114.29C705.224 114.29 703.754 113.11 703.244 111.27L705.014 110.85C705.224 111.83 706.134 112.6 707.204 112.6C707.884 112.6 708.704 112.29 709.094 111.51C709.354 110.99 709.354 110.37 709.354 109.48V99.6H711.154V109.48C711.154 110.72 711.214 111.51 710.684 112.43C709.954 113.7 708.694 114.29 707.244 114.29Z" fill="#110529"/>
<defs>
<filter id="filter0_i_6962_5962" x="118.737" y="79" width="66.2627" height="54" filterUnits="userSpaceOnUse" color-interpolation-filters="sRGB">
<feFlood flood-opacity="0" result="BackgroundImageFix"/>
<feBlend mode="normal" in="SourceGraphic" in2="BackgroundImageFix" result="shape"/>
<feColorMatrix in="SourceAlpha" type="matrix" values="0 0 0 0 0 0 0 0 0 0 0 0 0 0 0 0 0 0 127 0" result="hardAlpha"/>
<feOffset dx="-8" dy="-4"/>
<feComposite in2="hardAlpha" operator="arithmetic" k2="-1" k3="1"/>
<feColorMatrix type="matrix" values="0 0 0 0 0.0666667 0 0 0 0 0.0196078 0 0 0 0 0.160784 0 0 0 0.16 0"/>
<feBlend mode="normal" in2="shape" result="effect1_innerShadow_6962_5962"/>
</filter>
<filter id="filter1_i_6962_5962" x="183" y="79" width="26" height="54" filterUnits="userSpaceOnUse" color-interpolation-filters="sRGB">
<feFlood flood-opacity="0" result="BackgroundImageFix"/>
<feBlend mode="normal" in="SourceGraphic" in2="BackgroundImageFix" result="shape"/>
<feColorMatrix in="SourceAlpha" type="matrix" values="0 0 0 0 0 0 0 0 0 0 0 0 0 0 0 0 0 0 127 0" result="hardAlpha"/>
<feOffset dx="-8" dy="-4"/>
<feComposite in2="hardAlpha" operator="arithmetic" k2="-1" k3="1"/>
<feColorMatrix type="matrix" values="0 0 0 0 0.0666667 0 0 0 0 0.0196078 0 0 0 0 0.160784 0 0 0 0.16 0"/>
<feBlend mode="normal" in2="shape" result="effect1_innerShadow_6962_5962"/>
</filter>
<filter id="filter2_i_6962_5962" x="207" y="79" width="334" height="54" filterUnits="userSpaceOnUse" color-interpolation-filters="sRGB">
<feFlood flood-opacity="0" result="BackgroundImageFix"/>
<feBlend mode="normal" in="SourceGraphic" in2="BackgroundImageFix" result="shape"/>
<feColorMatrix in="SourceAlpha" type="matrix" values="0 0 0 0 0 0 0 0 0 0 0 0 0 0 0 0 0 0 127 0" result="hardAlpha"/>
<feOffset dx="-8" dy="-4"/>
<feComposite in2="hardAlpha" operator="arithmetic" k2="-1" k3="1"/>
<feColorMatrix type="matrix" values="0 0 0 0 0.0666667 0 0 0 0 0.0196078 0 0 0 0 0.160784 0 0 0 0.16 0"/>
<feBlend mode="normal" in2="shape" result="effect1_innerShadow_6962_5962"/>
</filter>
<filter id="filter3_i_6962_5962" x="539" y="79" width="32" height="54" filterUnits="userSpaceOnUse" color-interpolation-filters="sRGB">
<feFlood flood-opacity="0" result="BackgroundImageFix"/>
<feBlend mode="normal" in="SourceGraphic" in2="BackgroundImageFix" result="shape"/>
<feColorMatrix in="SourceAlpha" type="matrix" values="0 0 0 0 0 0 0 0 0 0 0 0 0 0 0 0 0 0 127 0" result="hardAlpha"/>
<feOffset dx="-8" dy="-4"/>
<feComposite in2="hardAlpha" operator="arithmetic" k2="-1" k3="1"/>
<feColorMatrix type="matrix" values="0 0 0 0 0.0666667 0 0 0 0 0.0196078 0 0 0 0 0.160784 0 0 0 0.16 0"/>
<feBlend mode="normal" in2="shape" result="effect1_innerShadow_6962_5962"/>
</filter>
<filter id="filter4_i_6962_5962" x="605" y="79" width="32" height="54" filterUnits="userSpaceOnUse" color-interpolation-filters="sRGB">
<feFlood flood-opacity="0" result="BackgroundImageFix"/>
<feBlend mode="normal" in="SourceGraphic" in2="BackgroundImageFix" result="shape"/>
<feColorMatrix in="SourceAlpha" type="matrix" values="0 0 0 0 0 0 0 0 0 0 0 0 0 0 0 0 0 0 127 0" result="hardAlpha"/>
<feOffset dx="-8" dy="-4"/>
<feComposite in2="hardAlpha" operator="arithmetic" k2="-1" k3="1"/>
<feColorMatrix type="matrix" values="0 0 0 0 0.0666667 0 0 0 0 0.0196078 0 0 0 0 0.160784 0 0 0 0.16 0"/>
<feBlend mode="normal" in2="shape" result="effect1_innerShadow_6962_5962"/>
</filter>
<filter id="filter5_i_6962_5962" x="569" y="79" width="38" height="54" filterUnits="userSpaceOnUse" color-interpolation-filters="sRGB">
<feFlood flood-opacity="0" result="BackgroundImageFix"/>
<feBlend mode="normal" in="SourceGraphic" in2="BackgroundImageFix" result="shape"/>
<feColorMatrix in="SourceAlpha" type="matrix" values="0 0 0 0 0 0 0 0 0 0 0 0 0 0 0 0 0 0 127 0" result="hardAlpha"/>
<feOffset dx="-8" dy="-4"/>
<feComposite in2="hardAlpha" operator="arithmetic" k2="-1" k3="1"/>
<feColorMatrix type="matrix" values="0 0 0 0 0.0666667 0 0 0 0 0.0196078 0 0 0 0 0.160784 0 0 0 0.16 0"/>
<feBlend mode="normal" in2="shape" result="effect1_innerShadow_6962_5962"/>
</filter>
<filter id="filter6_i_6962_5962" x="635" y="79" width="147.031" height="54" filterUnits="userSpaceOnUse" color-interpolation-filters="sRGB">
<feFlood flood-opacity="0" result="BackgroundImageFix"/>
<feBlend mode="normal" in="SourceGraphic" in2="BackgroundImageFix" result="shape"/>
<feColorMatrix in="SourceAlpha" type="matrix" values="0 0 0 0 0 0 0 0 0 0 0 0 0 0 0 0 0 0 127 0" result="hardAlpha"/>
<feOffset dx="-8" dy="-4"/>
<feComposite in2="hardAlpha" operator="arithmetic" k2="-1" k3="1"/>
<feColorMatrix type="matrix" values="0 0 0 0 0.0666667 0 0 0 0 0.0196078 0 0 0 0 0.160784 0 0 0 0.16 0"/>
<feBlend mode="normal" in2="shape" result="effect1_innerShadow_6962_5962"/>
</filter>
<filter id="filter7_i_6962_5962" x="635" y="79" width="147.031" height="54" filterUnits="userSpaceOnUse" color-interpolation-filters="sRGB">
<feFlood flood-opacity="0" result="BackgroundImageFix"/>
<feBlend mode="normal" in="SourceGraphic" in2="BackgroundImageFix" result="shape"/>
<feColorMatrix in="SourceAlpha" type="matrix" values="0 0 0 0 0 0 0 0 0 0 0 0 0 0 0 0 0 0 127 0" result="hardAlpha"/>
<feOffset dx="-8" dy="-4"/>
<feComposite in2="hardAlpha" operator="arithmetic" k2="-1" k3="1"/>
<feColorMatrix type="matrix" values="0 0 0 0 0.0666667 0 0 0 0 0.0196078 0 0 0 0 0.160784 0 0 0 0.16 0"/>
<feBlend mode="normal" in2="shape" result="effect1_innerShadow_6962_5962"/>
</filter>
</defs>
</svg>
