<svg width="960" height="476" viewBox="0 0 960 476" fill="none" xmlns="http://www.w3.org/2000/svg">
    <rect width="960" height="476" fill="#1D1D29"/>
    <path d="M109.858 37H111.321V32.695H114.989V31.225H111.321V28.383H115.829V26.92H109.858V37ZM117.09 37H118.553V33.381H121.227L122.984 37H124.657L122.753 33.094C123.894 32.597 124.468 31.491 124.468 30.147C124.468 28.516 123.628 27.235 121.941 26.976C121.675 26.934 121.36 26.92 121.164 26.92H117.09V37ZM118.553 31.995V28.299H121.108C121.29 28.299 121.535 28.313 121.745 28.369C122.641 28.579 122.977 29.405 122.977 30.147C122.977 30.889 122.641 31.715 121.745 31.932C121.535 31.981 121.29 31.995 121.108 31.995H118.553ZM127.953 37H129.444V26.92H127.953L126.056 28.054V29.685L127.953 28.53V37Z" fill="white" fill-opacity="0.3"/>
    <path d="M168 112V24" stroke="white" stroke-opacity="0.3" stroke-width="2" stroke-linecap="square" stroke-dasharray="6 6"/>
    <path d="M203.735 37.21C206.059 37.21 207.62 35.943 208.215 33.955L206.731 33.556C206.332 34.963 205.331 35.817 203.735 35.817C201.593 35.817 200.501 34.27 200.515 31.96C200.522 29.65 201.593 28.103 203.735 28.103C205.331 28.103 206.332 28.957 206.731 30.364L208.215 29.965C207.62 27.977 206.059 26.71 203.735 26.71C200.711 26.71 198.968 28.845 198.968 31.96C198.968 35.075 200.711 37.21 203.735 37.21ZM209.754 37H212.911C213.093 37 213.695 37 214.164 36.937C216.53 36.636 217.79 34.529 217.79 31.96C217.79 29.391 216.53 27.284 214.164 26.983C213.695 26.92 213.093 26.92 212.911 26.92H209.754V37ZM211.252 35.607V28.313H212.911C213.219 28.313 213.723 28.32 214.059 28.383C215.571 28.663 216.236 30.189 216.236 31.96C216.236 33.689 215.599 35.243 214.059 35.537C213.723 35.6 213.233 35.607 212.911 35.607H211.252ZM219.42 37H220.883V33.381H223.557L225.314 37H226.987L225.083 33.094C226.224 32.597 226.798 31.491 226.798 30.147C226.798 28.516 225.958 27.235 224.271 26.976C224.005 26.934 223.69 26.92 223.494 26.92H219.42V37ZM220.883 31.995V28.299H223.438C223.62 28.299 223.865 28.313 224.075 28.369C224.971 28.579 225.307 29.405 225.307 30.147C225.307 30.889 224.971 31.715 224.075 31.932C223.865 31.981 223.62 31.995 223.438 31.995H220.883ZM230.283 37H231.774V26.92H230.283L228.386 28.054V29.685L230.283 28.53V37Z" fill="white" fill-opacity="0.3"/>
    <path d="M264 112V24" stroke="white" stroke-opacity="0.3" stroke-width="2" stroke-linecap="square" stroke-dasharray="6 6"/>
    <path d="M300.703 37H302.166V32.695H305.834V31.225H302.166V28.383H306.674V26.92H300.703V37ZM307.935 37H309.398V33.381H312.072L313.829 37H315.502L313.598 33.094C314.739 32.597 315.313 31.491 315.313 30.147C315.313 28.516 314.473 27.235 312.786 26.976C312.52 26.934 312.205 26.92 312.009 26.92H307.935V37ZM309.398 31.995V28.299H311.953C312.135 28.299 312.38 28.313 312.59 28.369C313.486 28.579 313.822 29.405 313.822 30.147C313.822 30.889 313.486 31.715 312.59 31.932C312.38 31.981 312.135 31.995 311.953 31.995H309.398ZM316.761 36.993H323.579V35.6H319.022L321.941 32.996C323.033 32.037 323.579 31.407 323.579 30.028C323.579 28.117 322.144 26.71 320.24 26.71C318.231 26.71 316.796 28.047 316.796 30H318.294C318.28 28.985 319.092 28.103 320.212 28.103C321.297 28.103 322.074 28.929 322.074 30.007C322.074 30.581 321.864 31.127 321.157 31.757L316.768 35.691L316.761 36.993Z" fill="white" fill-opacity="0.3"/>
    <path d="M360 112V24" stroke="white" stroke-opacity="0.3" stroke-width="2" stroke-linecap="square" stroke-dasharray="6 6"/>
    <path d="M394.58 37.21C396.904 37.21 398.465 35.943 399.06 33.955L397.576 33.556C397.177 34.963 396.176 35.817 394.58 35.817C392.438 35.817 391.346 34.27 391.36 31.96C391.367 29.65 392.438 28.103 394.58 28.103C396.176 28.103 397.177 28.957 397.576 30.364L399.06 29.965C398.465 27.977 396.904 26.71 394.58 26.71C391.556 26.71 389.813 28.845 389.813 31.96C389.813 35.075 391.556 37.21 394.58 37.21ZM400.599 37H403.756C403.938 37 404.54 37 405.009 36.937C407.375 36.636 408.635 34.529 408.635 31.96C408.635 29.391 407.375 27.284 405.009 26.983C404.54 26.92 403.938 26.92 403.756 26.92H400.599V37ZM402.097 35.607V28.313H403.756C404.064 28.313 404.568 28.32 404.904 28.383C406.416 28.663 407.081 30.189 407.081 31.96C407.081 33.689 406.444 35.243 404.904 35.537C404.568 35.6 404.078 35.607 403.756 35.607H402.097ZM410.265 37H411.728V33.381H414.402L416.159 37H417.832L415.928 33.094C417.069 32.597 417.643 31.491 417.643 30.147C417.643 28.516 416.803 27.235 415.116 26.976C414.85 26.934 414.535 26.92 414.339 26.92H410.265V37ZM411.728 31.995V28.299H414.283C414.465 28.299 414.71 28.313 414.92 28.369C415.816 28.579 416.152 29.405 416.152 30.147C416.152 30.889 415.816 31.715 414.92 31.932C414.71 31.981 414.465 31.995 414.283 31.995H411.728ZM419.091 36.993H425.909V35.6H421.352L424.271 32.996C425.363 32.037 425.909 31.407 425.909 30.028C425.909 28.117 424.474 26.71 422.57 26.71C420.561 26.71 419.126 28.047 419.126 30H420.624C420.61 28.985 421.422 28.103 422.542 28.103C423.627 28.103 424.404 28.929 424.404 30.007C424.404 30.581 424.194 31.127 423.487 31.757L419.098 35.691L419.091 36.993Z" fill="white" fill-opacity="0.3"/>
    <path d="M456 112V24" stroke="white" stroke-opacity="0.3" stroke-width="2" stroke-linecap="square" stroke-dasharray="6 6"/>
    <path d="M492.805 37H494.268V32.695H497.936V31.225H494.268V28.383H498.776V26.92H492.805V37ZM500.038 37H501.501V33.381H504.175L505.932 37H507.605L505.701 33.094C506.842 32.597 507.416 31.491 507.416 30.147C507.416 28.516 506.576 27.235 504.889 26.976C504.623 26.934 504.308 26.92 504.112 26.92H500.038V37ZM501.501 31.995V28.299H504.056C504.238 28.299 504.483 28.313 504.693 28.369C505.589 28.579 505.925 29.405 505.925 30.147C505.925 30.889 505.589 31.715 504.693 31.932C504.483 31.981 504.238 31.995 504.056 31.995H501.501ZM511.964 37.189C513.847 37.189 515.331 35.796 515.331 33.871C515.331 32.233 514.323 30.924 512.692 30.707L515.184 28.313V26.92H509.122V28.313H513.392L510.312 31.036L510.998 32.191C511.285 32.037 511.628 31.939 511.95 31.939C513.07 31.939 513.833 32.751 513.833 33.871C513.833 34.984 513.07 35.789 511.964 35.803C511.138 35.81 510.403 35.341 510.137 34.466L508.723 34.858C509.15 36.293 510.466 37.189 511.964 37.189Z" fill="white" fill-opacity="0.3"/>
    <path d="M552 112V24" stroke="white" stroke-opacity="0.3" stroke-width="2" stroke-linecap="square" stroke-dasharray="6 6"/>
    <path d="M598.682 37.21C601.006 37.21 602.567 35.943 603.162 33.955L601.678 33.556C601.279 34.963 600.278 35.817 598.682 35.817C596.54 35.817 595.448 34.27 595.462 31.96C595.469 29.65 596.54 28.103 598.682 28.103C600.278 28.103 601.279 28.957 601.678 30.364L603.162 29.965C602.567 27.977 601.006 26.71 598.682 26.71C595.658 26.71 593.915 28.845 593.915 31.96C593.915 35.075 595.658 37.21 598.682 37.21ZM604.702 37H607.859C608.041 37 608.643 37 609.112 36.937C611.478 36.636 612.738 34.529 612.738 31.96C612.738 29.391 611.478 27.284 609.112 26.983C608.643 26.92 608.041 26.92 607.859 26.92H604.702V37ZM606.2 35.607V28.313H607.859C608.167 28.313 608.671 28.32 609.007 28.383C610.519 28.663 611.184 30.189 611.184 31.96C611.184 33.689 610.547 35.243 609.007 35.537C608.671 35.6 608.181 35.607 607.859 35.607H606.2ZM614.368 37H615.831V33.381H618.505L620.262 37H621.935L620.031 33.094C621.172 32.597 621.746 31.491 621.746 30.147C621.746 28.516 620.906 27.235 619.219 26.976C618.953 26.934 618.638 26.92 618.442 26.92H614.368V37ZM615.831 31.995V28.299H618.386C618.568 28.299 618.813 28.313 619.023 28.369C619.919 28.579 620.255 29.405 620.255 30.147C620.255 30.889 619.919 31.715 619.023 31.932C618.813 31.981 618.568 31.995 618.386 31.995H615.831ZM626.294 37.189C628.177 37.189 629.661 35.796 629.661 33.871C629.661 32.233 628.653 30.924 627.022 30.707L629.514 28.313V26.92H623.452V28.313H627.722L624.642 31.036L625.328 32.191C625.615 32.037 625.958 31.939 626.28 31.939C627.4 31.939 628.163 32.751 628.163 33.871C628.163 34.984 627.4 35.789 626.294 35.803C625.468 35.81 624.733 35.341 624.467 34.466L623.053 34.858C623.48 36.293 624.796 37.189 626.294 37.189Z" fill="white" fill-opacity="0.3"/>
    <path d="M672 112V24" stroke="white" stroke-opacity="0.3" stroke-width="2" stroke-linecap="square" stroke-dasharray="6 6"/>
    <path d="M720.593 37H722.056V32.695H725.724V31.225H722.056V28.383H726.564V26.92H720.593V37ZM727.826 37H729.289V33.381H731.963L733.72 37H735.393L733.489 33.094C734.63 32.597 735.204 31.491 735.204 30.147C735.204 28.516 734.364 27.235 732.677 26.976C732.411 26.934 732.096 26.92 731.9 26.92H727.826V37ZM729.289 31.995V28.299H731.844C732.026 28.299 732.271 28.313 732.481 28.369C733.377 28.579 733.713 29.405 733.713 30.147C733.713 30.889 733.377 31.715 732.481 31.932C732.271 31.981 732.026 31.995 731.844 31.995H729.289ZM741.201 37H742.685V35.243H743.686V33.857H742.685V31.127H741.201V33.857H738.324L741.6 26.92H739.927L736.651 33.857V35.243H741.201V37Z" fill="white" fill-opacity="0.3"/>
    <path d="M792 112V24" stroke="white" stroke-opacity="0.3" stroke-width="2" stroke-linecap="square" stroke-dasharray="6 6"/>
    <g filter="url(#filter0_i_6150_40231)">
        <path d="M101 84H562.4C562.96 84 563.24 84 563.454 84.109C563.642 84.2049 563.795 84.3578 563.891 84.546C564 84.7599 564 85.0399 564 85.6V134.4C564 134.96 564 135.24 563.891 135.454C563.795 135.642 563.642 135.795 563.454 135.891C563.24 136 562.96 136 562.4 136H101L96 129.5L101 123L96 116L101 110L96 103.5L101 97L96 90.5L101 84Z" fill="#99E099"/>
    </g>
    <path d="M101 84H562.4C562.96 84 563.24 84 563.454 84.109C563.642 84.2049 563.795 84.3578 563.891 84.546C564 84.7599 564 85.0399 564 85.6V134.4C564 134.96 564 135.24 563.891 135.454C563.795 135.642 563.642 135.795 563.454 135.891C563.24 136 562.96 136 562.4 136H101L96 129.5L101 123L96 116L101 110L96 103.5L101 97L96 90.5L101 84Z" stroke="#110529" stroke-width="2" stroke-linecap="round"/>
    <path d="M329.258 118H331.738L336.558 103.6H334.708L330.478 116.11L326.288 103.6H324.438L329.258 118Z" fill="#110529"/>
    <g filter="url(#filter1_i_6150_40231)">
        <rect x="564" y="84" width="30" height="52" rx="1" fill="#CBEB67"/>
    </g>
    <rect x="564" y="84" width="30" height="52" rx="1" stroke="#110529" stroke-width="2" stroke-linecap="round"/>
    <g filter="url(#filter2_i_6150_40231)">
        <rect x="630" y="84" width="30" height="52" rx="1" fill="#FAAAFA"/>
    </g>
    <rect x="630" y="84" width="30" height="52" rx="1" stroke="#110529" stroke-width="2" stroke-linecap="round"/>
    <g filter="url(#filter3_i_6150_40231)">
        <rect x="594" y="84" width="36" height="52" rx="1" fill="#FFCB8F"/>
    </g>
    <rect x="594" y="84" width="36" height="52" rx="1" stroke="#110529" stroke-width="2" stroke-linecap="round"/>
    <path d="M573.447 118H575.247V106.74L582.757 118H584.557V103.6H582.757V114.85L575.247 103.6H573.447V118Z" fill="#110529"/>
    <path d="M639.447 118H641.247V106.74L648.757 118H650.557V103.6H648.757V114.85L641.247 103.6H639.447V118Z" fill="#110529"/>
    <path d="M606.593 118H611.033C611.303 118 612.183 118 612.853 117.91C616.183 117.47 617.913 114.48 617.913 110.8C617.913 107.13 616.183 104.13 612.853 103.69C612.173 103.6 611.313 103.6 611.033 103.6H606.593V118ZM608.423 116.3V105.3H611.033C611.513 105.3 612.233 105.32 612.703 105.41C615.033 105.83 616.023 108.08 616.023 110.8C616.023 113.47 615.063 115.76 612.703 116.19C612.233 116.28 611.533 116.3 611.033 116.3H608.423Z" fill="#110529"/>
    <g filter="url(#filter4_i_6150_40231)">
        <rect x="660" y="84" width="132" height="52" rx="1" fill="#C1ADFF"/>
        <path d="M725.244 118.29C726.694 118.29 727.954 117.7 728.684 116.43C729.214 115.51 729.154 114.72 729.154 113.48V103.6H727.354V113.48C727.354 114.37 727.354 114.99 727.094 115.51C726.704 116.29 725.884 116.6 725.204 116.6C724.134 116.6 723.224 115.83 723.014 114.85L721.244 115.27C721.754 117.11 723.224 118.29 725.244 118.29Z" fill="#110529"/>
        <rect x="660" y="84" width="132" height="52" rx="1" stroke="#110529" stroke-width="2" stroke-linecap="round"/>
    </g>
    <g filter="url(#filter5_i_6150_40231)">
        <path d="M856 84H793.6C793.04 84 792.76 84 792.546 84.109C792.358 84.2049 792.205 84.3578 792.109 84.546C792 84.7599 792 85.0399 792 85.6V134.4C792 134.96 792 135.24 792.109 135.454C792.205 135.642 792.358 135.795 792.546 135.891C792.76 136 793.04 136 793.6 136H856L851 129.5L856 123L851 116L856 110L851 103.5L856 97L851 90.5L856 84Z" fill="#FAFAAA"/>
    </g>
    <path d="M856 84H793.6C793.04 84 792.76 84 792.546 84.109C792.358 84.2049 792.205 84.3578 792.109 84.546C792 84.7599 792 85.0399 792 85.6V134.4C792 134.96 792 135.24 792.109 135.454C792.205 135.642 792.358 135.795 792.546 135.891C792.76 136 793.04 136 793.6 136H856L851 129.5L856 123L851 116L856 110L851 103.5L856 97L851 90.5L856 84Z" stroke="#110529" stroke-width="2" stroke-linecap="round"/>
    <path d="M824.593 118.3C827.923 118.3 830.113 116.47 830.933 113.61L829.123 113.13C828.533 115.27 827.023 116.6 824.593 116.6C821.373 116.6 819.733 114.25 819.753 110.8C819.773 107.35 821.373 105 824.593 105C827.023 105 828.533 106.33 829.123 108.47L830.933 107.99C830.113 105.13 827.923 103.3 824.593 103.3C820.283 103.3 817.873 106.36 817.873 110.8C817.873 115.24 820.283 118.3 824.593 118.3Z" fill="#110529"/>
    <g filter="url(#filter6_i_6150_40231)">
        <path d="M101 292H562.4C562.96 292 563.24 292 563.454 292.109C563.642 292.205 563.795 292.358 563.891 292.546C564 292.76 564 293.04 564 293.6V342.4C564 342.96 564 343.24 563.891 343.454C563.795 343.642 563.642 343.795 563.454 343.891C563.24 344 562.96 344 562.4 344H101L96 337.5L101 331L96 324L101 318L96 311.5L101 305L96 298.5L101 292Z" fill="#99E099"/>
    </g>
    <path d="M101 292H562.4C562.96 292 563.24 292 563.454 292.109C563.642 292.205 563.795 292.358 563.891 292.546C564 292.76 564 293.04 564 293.6V342.4C564 342.96 564 343.24 563.891 343.454C563.795 343.642 563.642 343.795 563.454 343.891C563.24 344 562.96 344 562.4 344H101L96 337.5L101 331L96 324L101 318L96 311.5L101 305L96 298.5L101 292Z" stroke="#110529" stroke-width="2" stroke-linecap="round"/>
    <path d="M329.258 326H331.738L336.558 311.6H334.708L330.478 324.11L326.288 311.6H324.438L329.258 326Z" fill="#110529"/>
    <g filter="url(#filter7_i_6150_40231)">
        <rect x="564" y="292" width="30" height="52" rx="1" fill="#CBEB67"/>
    </g>
    <rect x="564" y="292" width="30" height="52" rx="1" stroke="#110529" stroke-width="2" stroke-linecap="round"/>
    <path d="M573.447 326H575.247V314.74L582.757 326H584.557V311.6H582.757V322.85L575.247 311.6H573.447V326Z" fill="#110529"/>
    <g filter="url(#filter8_i_6150_40231)">
        <rect x="594" y="292" width="132" height="52" rx="1" fill="#C1ADFF"/>
        <path d="M659.244 326.29C660.694 326.29 661.954 325.7 662.684 324.43C663.214 323.51 663.154 322.72 663.154 321.48V311.6H661.354V321.48C661.354 322.37 661.354 322.99 661.094 323.51C660.704 324.29 659.884 324.6 659.204 324.6C658.134 324.6 657.224 323.83 657.014 322.85L655.244 323.27C655.754 325.11 657.224 326.29 659.244 326.29Z" fill="#110529"/>
        <rect x="594" y="292" width="132" height="52" rx="1" stroke="#110529" stroke-width="2" stroke-linecap="round"/>
    </g>
    <g filter="url(#filter9_i_6150_40231)">
        <path d="M790 292H727.6C727.04 292 726.76 292 726.546 292.109C726.358 292.205 726.205 292.358 726.109 292.546C726 292.76 726 293.04 726 293.6V342.4C726 342.96 726 343.24 726.109 343.454C726.205 343.642 726.358 343.795 726.546 343.891C726.76 344 727.04 344 727.6 344H790L785 337.5L790 331L785 324L790 318L785 311.5L790 305L785 298.5L790 292Z" fill="#FAFAAA"/>
    </g>
    <path d="M790 292H727.6C727.04 292 726.76 292 726.546 292.109C726.358 292.205 726.205 292.358 726.109 292.546C726 292.76 726 293.04 726 293.6V342.4C726 342.96 726 343.24 726.109 343.454C726.205 343.642 726.358 343.795 726.546 343.891C726.76 344 727.04 344 727.6 344H790L785 337.5L790 331L785 324L790 318L785 311.5L790 305L785 298.5L790 292Z" stroke="#110529" stroke-width="2" stroke-linecap="round"/>
    <path d="M758.593 326.3C761.923 326.3 764.113 324.47 764.933 321.61L763.123 321.13C762.533 323.27 761.023 324.6 758.593 324.6C755.373 324.6 753.733 322.25 753.753 318.8C753.773 315.35 755.373 313 758.593 313C761.023 313 762.533 314.33 763.123 316.47L764.933 315.99C764.113 313.13 761.923 311.3 758.593 311.3C754.283 311.3 751.873 314.36 751.873 318.8C751.873 323.24 754.283 326.3 758.593 326.3Z" fill="#110529"/>
    <path d="M328 160L327.293 160.707L326.586 160L327.293 159.293L328 160ZM335.293 151.293L336 150.586L337.414 152L336.707 152.707L335.293 151.293ZM336.707 167.293L337.414 168L336 169.414L335.293 168.707L336.707 167.293ZM338 161L328 161L328 159L338 159L338 161ZM327.293 159.293L335.293 151.293L336.707 152.707L328.707 160.707L327.293 159.293ZM328.707 159.293L336.707 167.293L335.293 168.707L327.293 160.707L328.707 159.293Z" fill="#D3D7E0"/>
    <path d="M551.5 160H338" stroke="#D3D7E0" stroke-width="2"/>
    <rect width="57" height="20" transform="translate(551.5 150)" fill="#1D1D29"/>
    <path d="M556.933 165.992H564.589V164.632H559.125L562.837 161.296C564.021 160.248 564.589 159.488 564.589 157.976C564.589 155.856 562.973 154.24 560.837 154.24C558.621 154.24 556.989 155.784 556.989 157.952H558.445C558.429 156.696 559.437 155.6 560.813 155.6C562.141 155.6 563.133 156.632 563.133 157.96C563.133 158.688 562.901 159.352 562.053 160.112L556.941 164.712L556.933 165.992ZM569.911 166.24C572.055 166.24 573.871 164.504 573.871 162.376C573.871 160.232 572.247 158.584 570.111 158.584C569.335 158.584 568.559 158.848 567.959 159.328L568.167 155.832H573.071V154.48H566.887L566.535 160.504L567.799 160.984C568.215 160.384 568.935 159.896 569.951 159.896C571.295 159.896 572.439 160.984 572.439 162.376C572.439 163.728 571.351 164.856 569.951 164.856C568.879 164.856 567.839 164.144 567.551 163.008L566.183 163.376C566.647 165.056 568.127 166.24 569.911 166.24ZM579.672 166.24C581.912 166.24 583.56 164.592 583.56 162.352V158.128C583.56 155.888 581.912 154.24 579.672 154.24C577.432 154.24 575.784 155.888 575.784 158.128V162.352C575.784 164.592 577.432 166.24 579.672 166.24ZM577.232 162.432V158.04C577.232 156.688 578.32 155.6 579.672 155.6C581.024 155.6 582.112 156.688 582.112 158.04V162.432C582.112 163.784 581.024 164.872 579.672 164.872C578.32 164.872 577.232 163.784 577.232 162.432ZM589.768 166.24C592.184 166.24 593.64 164.264 593.64 161.672C593.64 159.08 592.176 157.12 589.776 157.12C588.696 157.12 587.84 157.496 587.224 158.144V154.48H585.792V166H587.064V165.024C587.696 165.784 588.6 166.24 589.768 166.24ZM587.064 161.672C587.064 159.76 587.864 158.424 589.552 158.424C591.312 158.424 592.128 159.848 592.128 161.672C592.128 163.512 591.296 164.936 589.592 164.936C587.848 164.936 587.064 163.568 587.064 161.672ZM599.361 166.24C601.777 166.24 603.233 164.264 603.233 161.672C603.233 159.08 601.769 157.12 599.369 157.12C598.193 157.12 597.289 157.568 596.657 158.328V157.36H595.385V169.84H596.817V165.2C597.433 165.856 598.289 166.24 599.361 166.24ZM596.657 161.672C596.657 159.76 597.457 158.424 599.145 158.424C600.905 158.424 601.721 159.848 601.721 161.672C601.721 163.512 600.889 164.936 599.185 164.936C597.441 164.936 596.657 163.568 596.657 161.672Z" fill="white"/>
    <path d="M822 160H608.5" stroke="#D3D7E0" stroke-width="2"/>
    <path d="M827.28 166H834.048V164.648H828.704V154.48H827.28V166ZM835.401 166H836.825V161.744H840.193L842.257 166H843.889L841.665 161.432C842.969 160.888 843.649 159.632 843.649 158.112C843.649 156.28 842.665 154.832 840.801 154.544C840.505 154.496 840.177 154.48 839.953 154.48H835.401V166ZM836.825 160.392V155.832H839.905C840.105 155.832 840.385 155.848 840.625 155.904C841.729 156.152 842.193 157.152 842.193 158.112C842.193 159.072 841.729 160.072 840.625 160.32C840.385 160.376 840.105 160.392 839.905 160.392H836.825ZM847.659 166H849.107V154.48H847.659L845.491 155.776V157.368L847.659 156.056V166Z" fill="white"/>
    <rect x="822" y="148" width="34" height="24" rx="1" stroke="#D3D7E0" stroke-width="2"/>
    <path d="M310 368L309.293 368.707L308.586 368L309.293 367.293L310 368ZM317.293 359.293L318 358.586L319.414 360L318.707 360.707L317.293 359.293ZM318.707 375.293L319.414 376L318 377.414L317.293 376.707L318.707 375.293ZM320 369L310 369L310 367L320 367L320 369ZM309.293 367.293L317.293 359.293L318.707 360.707L310.707 368.707L309.293 367.293ZM310.707 367.293L318.707 375.293L317.293 376.707L309.293 368.707L310.707 367.293Z" fill="#D3D7E0"/>
    <path d="M509.5 368H320" stroke="#D3D7E0" stroke-width="2"/>
    <rect width="57" height="20" transform="translate(509.5 358)" fill="#1D1D29"/>
    <path d="M514.933 373.992H522.589V372.632H517.125L520.837 369.296C522.021 368.248 522.589 367.488 522.589 365.976C522.589 363.856 520.973 362.24 518.837 362.24C516.621 362.24 514.989 363.784 514.989 365.952H516.445C516.429 364.696 517.437 363.6 518.813 363.6C520.141 363.6 521.133 364.632 521.133 365.96C521.133 366.688 520.901 367.352 520.053 368.112L514.941 372.712L514.933 373.992ZM527.911 374.24C530.055 374.24 531.871 372.504 531.871 370.376C531.871 368.232 530.247 366.584 528.111 366.584C527.335 366.584 526.559 366.848 525.959 367.328L526.167 363.832H531.071V362.48H524.887L524.535 368.504L525.799 368.984C526.215 368.384 526.935 367.896 527.951 367.896C529.295 367.896 530.439 368.984 530.439 370.376C530.439 371.728 529.351 372.856 527.951 372.856C526.879 372.856 525.839 372.144 525.551 371.008L524.183 371.376C524.647 373.056 526.127 374.24 527.911 374.24ZM537.672 374.24C539.912 374.24 541.56 372.592 541.56 370.352V366.128C541.56 363.888 539.912 362.24 537.672 362.24C535.432 362.24 533.784 363.888 533.784 366.128V370.352C533.784 372.592 535.432 374.24 537.672 374.24ZM535.232 370.432V366.04C535.232 364.688 536.32 363.6 537.672 363.6C539.024 363.6 540.112 364.688 540.112 366.04V370.432C540.112 371.784 539.024 372.872 537.672 372.872C536.32 372.872 535.232 371.784 535.232 370.432ZM547.768 374.24C550.184 374.24 551.64 372.264 551.64 369.672C551.64 367.08 550.176 365.12 547.776 365.12C546.696 365.12 545.84 365.496 545.224 366.144V362.48H543.792V374H545.064V373.024C545.696 373.784 546.6 374.24 547.768 374.24ZM545.064 369.672C545.064 367.76 545.864 366.424 547.552 366.424C549.312 366.424 550.128 367.848 550.128 369.672C550.128 371.512 549.296 372.936 547.592 372.936C545.848 372.936 545.064 371.568 545.064 369.672ZM557.361 374.24C559.777 374.24 561.233 372.264 561.233 369.672C561.233 367.08 559.769 365.12 557.369 365.12C556.193 365.12 555.289 365.568 554.657 366.328V365.36H553.385V377.84H554.817V373.2C555.433 373.856 556.289 374.24 557.361 374.24ZM554.657 369.672C554.657 367.76 555.457 366.424 557.145 366.424C558.905 366.424 559.721 367.848 559.721 369.672C559.721 371.512 558.889 372.936 557.185 372.936C555.441 372.936 554.657 371.568 554.657 369.672Z" fill="white"/>
    <path d="M756 368H566.5" stroke="#D3D7E0" stroke-width="2"/>
    <path d="M761.28 374H768.048V372.648H762.704V362.48H761.28V374ZM769.401 374H770.825V369.744H774.193L776.257 374H777.889L775.665 369.432C776.969 368.888 777.649 367.632 777.649 366.112C777.649 364.28 776.665 362.832 774.801 362.544C774.505 362.496 774.177 362.48 773.953 362.48H769.401V374ZM770.825 368.392V363.832H773.905C774.105 363.832 774.385 363.848 774.625 363.904C775.729 364.152 776.193 365.152 776.193 366.112C776.193 367.072 775.729 368.072 774.625 368.32C774.385 368.376 774.105 368.392 773.905 368.392H770.825ZM781.659 374H783.107V362.48H781.659L779.491 363.776V365.368L781.659 364.056V374Z" fill="white"/>
    <rect x="756" y="356" width="34" height="24" rx="1" stroke="#D3D7E0" stroke-width="2"/>
    <path d="M560 208L559.293 208.707L558.586 208L559.293 207.293L560 208ZM567.293 199.293L568 198.586L569.414 200L568.707 200.707L567.293 199.293ZM568.707 215.293L569.414 216L568 217.414L567.293 216.707L568.707 215.293ZM570 209L560 209L560 207L570 207L570 209ZM559.293 207.293L567.293 199.293L568.707 200.707L560.707 208.707L559.293 207.293ZM560.707 207.293L568.707 215.293L567.293 216.707L559.293 208.707L560.707 207.293Z" fill="#D3D7E0"/>
    <path d="M667 208H570" stroke="#D3D7E0" stroke-width="2"/>
    <rect width="57" height="20" transform="translate(667 198)" fill="#1D1D29"/>
    <path d="M675.769 214H677.217V202.48H675.769L673.601 203.776V205.368L675.769 204.056V214ZM684.149 214.24C686.389 214.24 688.037 212.592 688.037 210.352V206.128C688.037 203.888 686.389 202.24 684.149 202.24C681.909 202.24 680.261 203.888 680.261 206.128V210.352C680.261 212.592 681.909 214.24 684.149 214.24ZM681.709 210.432V206.04C681.709 204.688 682.797 203.6 684.149 203.6C685.501 203.6 686.589 204.688 686.589 206.04V210.432C686.589 211.784 685.501 212.872 684.149 212.872C682.797 212.872 681.709 211.784 681.709 210.432ZM694.164 214.24C696.404 214.24 698.052 212.592 698.052 210.352V206.128C698.052 203.888 696.404 202.24 694.164 202.24C691.924 202.24 690.276 203.888 690.276 206.128V210.352C690.276 212.592 691.924 214.24 694.164 214.24ZM691.724 210.432V206.04C691.724 204.688 692.812 203.6 694.164 203.6C695.516 203.6 696.604 204.688 696.604 206.04V210.432C696.604 211.784 695.516 212.872 694.164 212.872C692.812 212.872 691.724 211.784 691.724 210.432ZM704.26 214.24C706.676 214.24 708.132 212.264 708.132 209.672C708.132 207.08 706.668 205.12 704.268 205.12C703.188 205.12 702.332 205.496 701.716 206.144V202.48H700.284V214H701.556V213.024C702.188 213.784 703.092 214.24 704.26 214.24ZM701.556 209.672C701.556 207.76 702.356 206.424 704.044 206.424C705.804 206.424 706.62 207.848 706.62 209.672C706.62 211.512 705.788 212.936 704.084 212.936C702.34 212.936 701.556 211.568 701.556 209.672ZM713.854 214.24C716.27 214.24 717.726 212.264 717.726 209.672C717.726 207.08 716.262 205.12 713.862 205.12C712.686 205.12 711.782 205.568 711.15 206.328V205.36H709.878V217.84H711.31V213.2C711.926 213.856 712.782 214.24 713.854 214.24ZM711.15 209.672C711.15 207.76 711.95 206.424 713.638 206.424C715.398 206.424 716.214 207.848 716.214 209.672C716.214 211.512 715.382 212.936 713.678 212.936C711.934 212.936 711.15 211.568 711.15 209.672Z" fill="white"/>
    <path d="M821 208H724" stroke="#D3D7E0" stroke-width="2"/>
    <path d="M830.208 214.24C832.6 214.24 834.52 213.016 834.52 210.784C834.52 208.568 832.624 208 831.624 207.72L829.432 207.088C828.576 206.848 827.512 206.48 827.512 205.416C827.512 204.352 828.608 203.584 830.024 203.6C831.488 203.616 832.696 204.48 832.936 205.88L834.448 205.616C834.024 203.52 832.36 202.264 830.04 202.248C827.744 202.24 826.008 203.44 826.008 205.48C826.008 207.184 827.224 207.928 828.504 208.304L831.44 209.176C832.264 209.424 833.048 209.856 833.048 210.864C833.048 212.12 831.824 212.888 830.28 212.888C828.672 212.888 827.4 212.032 827.032 210.576L825.56 210.808C825.944 212.928 827.76 214.24 830.208 214.24ZM836.198 214H837.622V209.744H840.99L843.054 214H844.686L842.462 209.432C843.766 208.888 844.446 207.632 844.446 206.112C844.446 204.28 843.462 202.832 841.598 202.544C841.302 202.496 840.974 202.48 840.75 202.48H836.198V214ZM837.622 208.392V203.832H840.702C840.902 203.832 841.182 203.848 841.422 203.904C842.526 204.152 842.99 205.152 842.99 206.112C842.99 207.072 842.526 208.072 841.422 208.32C841.182 208.376 840.902 208.392 840.702 208.392H837.622ZM848.456 214H849.904V202.48H848.456L846.288 203.776V205.368L848.456 204.056V214Z" fill="white"/>
    <rect x="821" y="196" width="35" height="24" rx="1" stroke="#D3D7E0" stroke-width="2"/>
    <path d="M494 416L493.293 416.707L492.586 416L493.293 415.293L494 416ZM501.293 407.293L502 406.586L503.414 408L502.707 408.707L501.293 407.293ZM502.707 423.293L503.414 424L502 425.414L501.293 424.707L502.707 423.293ZM504 417L494 417L494 415L504 415L504 417ZM493.293 415.293L501.293 407.293L502.707 408.707L494.707 416.707L493.293 415.293ZM494.707 415.293L502.707 423.293L501.293 424.707L493.293 416.707L494.707 415.293Z" fill="#D3D7E0"/>
    <path d="M601 416H504" stroke="#D3D7E0" stroke-width="2"/>
    <rect width="57" height="20" transform="translate(601 406)" fill="#1D1D29"/>
    <path d="M609.769 422H611.217V410.48H609.769L607.601 411.776V413.368L609.769 412.056V422ZM618.149 422.24C620.389 422.24 622.037 420.592 622.037 418.352V414.128C622.037 411.888 620.389 410.24 618.149 410.24C615.909 410.24 614.261 411.888 614.261 414.128V418.352C614.261 420.592 615.909 422.24 618.149 422.24ZM615.709 418.432V414.04C615.709 412.688 616.797 411.6 618.149 411.6C619.501 411.6 620.589 412.688 620.589 414.04V418.432C620.589 419.784 619.501 420.872 618.149 420.872C616.797 420.872 615.709 419.784 615.709 418.432ZM628.164 422.24C630.404 422.24 632.052 420.592 632.052 418.352V414.128C632.052 411.888 630.404 410.24 628.164 410.24C625.924 410.24 624.276 411.888 624.276 414.128V418.352C624.276 420.592 625.924 422.24 628.164 422.24ZM625.724 418.432V414.04C625.724 412.688 626.812 411.6 628.164 411.6C629.516 411.6 630.604 412.688 630.604 414.04V418.432C630.604 419.784 629.516 420.872 628.164 420.872C626.812 420.872 625.724 419.784 625.724 418.432ZM638.26 422.24C640.676 422.24 642.132 420.264 642.132 417.672C642.132 415.08 640.668 413.12 638.268 413.12C637.188 413.12 636.332 413.496 635.716 414.144V410.48H634.284V422H635.556V421.024C636.188 421.784 637.092 422.24 638.26 422.24ZM635.556 417.672C635.556 415.76 636.356 414.424 638.044 414.424C639.804 414.424 640.62 415.848 640.62 417.672C640.62 419.512 639.788 420.936 638.084 420.936C636.34 420.936 635.556 419.568 635.556 417.672ZM647.854 422.24C650.27 422.24 651.726 420.264 651.726 417.672C651.726 415.08 650.262 413.12 647.862 413.12C646.686 413.12 645.782 413.568 645.15 414.328V413.36H643.878V425.84H645.31V421.2C645.926 421.856 646.782 422.24 647.854 422.24ZM645.15 417.672C645.15 415.76 645.95 414.424 647.638 414.424C649.398 414.424 650.214 415.848 650.214 417.672C650.214 419.512 649.382 420.936 647.678 420.936C645.934 420.936 645.15 419.568 645.15 417.672Z" fill="white"/>
    <path d="M755 416H658" stroke="#D3D7E0" stroke-width="2"/>
    <path d="M764.208 422.24C766.6 422.24 768.52 421.016 768.52 418.784C768.52 416.568 766.624 416 765.624 415.72L763.432 415.088C762.576 414.848 761.512 414.48 761.512 413.416C761.512 412.352 762.608 411.584 764.024 411.6C765.488 411.616 766.696 412.48 766.936 413.88L768.448 413.616C768.024 411.52 766.36 410.264 764.04 410.248C761.744 410.24 760.008 411.44 760.008 413.48C760.008 415.184 761.224 415.928 762.504 416.304L765.44 417.176C766.264 417.424 767.048 417.856 767.048 418.864C767.048 420.12 765.824 420.888 764.28 420.888C762.672 420.888 761.4 420.032 761.032 418.576L759.56 418.808C759.944 420.928 761.76 422.24 764.208 422.24ZM770.198 422H771.622V417.744H774.99L777.054 422H778.686L776.462 417.432C777.766 416.888 778.446 415.632 778.446 414.112C778.446 412.28 777.462 410.832 775.598 410.544C775.302 410.496 774.974 410.48 774.75 410.48H770.198V422ZM771.622 416.392V411.832H774.702C774.902 411.832 775.182 411.848 775.422 411.904C776.526 412.152 776.99 413.152 776.99 414.112C776.99 415.072 776.526 416.072 775.422 416.32C775.182 416.376 774.902 416.392 774.702 416.392H771.622ZM782.456 422H783.904V410.48H782.456L780.288 411.776V413.368L782.456 412.056V422Z" fill="white"/>
    <rect x="755" y="404" width="35" height="24" rx="1" stroke="#D3D7E0" stroke-width="2"/>
    <path d="M101.28 190H108.048V188.648H102.704V178.48H101.28V190ZM109.401 190H110.825V185.744H114.193L116.257 190H117.889L115.665 185.432C116.969 184.888 117.649 183.632 117.649 182.112C117.649 180.28 116.665 178.832 114.801 178.544C114.505 178.496 114.177 178.48 113.953 178.48H109.401V190ZM110.825 184.392V179.832H113.905C114.105 179.832 114.385 179.848 114.625 179.904C115.729 180.152 116.193 181.152 116.193 182.112C116.193 183.072 115.729 184.072 114.625 184.32C114.385 184.376 114.105 184.392 113.905 184.392H110.825ZM119.331 189.992H126.987V188.632H121.523L125.235 185.296C126.419 184.248 126.987 183.488 126.987 181.976C126.987 179.856 125.371 178.24 123.235 178.24C121.019 178.24 119.387 179.784 119.387 181.952H120.843C120.827 180.696 121.835 179.6 123.211 179.6C124.539 179.6 125.531 180.632 125.531 181.96C125.531 182.688 125.299 183.352 124.451 184.112L119.339 188.712L119.331 189.992Z" fill="white"/>
    <rect x="96" y="172" width="36" height="24" rx="1" stroke="#D3D7E0" stroke-width="2"/>
    <path d="M371 184H132" stroke="#D3D7E0" stroke-width="2"/>
    <rect width="56" height="20" transform="translate(371 174)" fill="#1D1D29"/>
    <path d="M375.933 189.992H383.589V188.632H378.125L381.837 185.296C383.021 184.248 383.589 183.488 383.589 181.976C383.589 179.856 381.973 178.24 379.837 178.24C377.621 178.24 375.989 179.784 375.989 181.952H377.445C377.429 180.696 378.437 179.6 379.813 179.6C381.141 179.6 382.133 180.632 382.133 181.96C382.133 182.688 381.901 183.352 381.053 184.112L375.941 188.712L375.933 189.992ZM388.911 190.24C391.055 190.24 392.871 188.504 392.871 186.376C392.871 184.232 391.247 182.584 389.111 182.584C388.335 182.584 387.559 182.848 386.959 183.328L387.167 179.832H392.071V178.48H385.887L385.535 184.504L386.799 184.984C387.215 184.384 387.935 183.896 388.951 183.896C390.295 183.896 391.439 184.984 391.439 186.376C391.439 187.728 390.351 188.856 388.951 188.856C387.879 188.856 386.839 188.144 386.551 187.008L385.183 187.376C385.647 189.056 387.127 190.24 388.911 190.24ZM398.672 190.24C400.912 190.24 402.56 188.592 402.56 186.352V182.128C402.56 179.888 400.912 178.24 398.672 178.24C396.432 178.24 394.784 179.888 394.784 182.128V186.352C394.784 188.592 396.432 190.24 398.672 190.24ZM396.232 186.432V182.04C396.232 180.688 397.32 179.6 398.672 179.6C400.024 179.6 401.112 180.688 401.112 182.04V186.432C401.112 187.784 400.024 188.872 398.672 188.872C397.32 188.872 396.232 187.784 396.232 186.432ZM408.768 190.24C411.184 190.24 412.64 188.264 412.64 185.672C412.64 183.08 411.176 181.12 408.776 181.12C407.696 181.12 406.84 181.496 406.224 182.144V178.48H404.792V190H406.064V189.024C406.696 189.784 407.6 190.24 408.768 190.24ZM406.064 185.672C406.064 183.76 406.864 182.424 408.552 182.424C410.312 182.424 411.128 183.848 411.128 185.672C411.128 187.512 410.296 188.936 408.592 188.936C406.848 188.936 406.064 187.568 406.064 185.672ZM418.361 190.24C420.777 190.24 422.233 188.264 422.233 185.672C422.233 183.08 420.769 181.12 418.369 181.12C417.193 181.12 416.289 181.568 415.657 182.328V181.36H414.385V193.84H415.817V189.2C416.433 189.856 417.289 190.24 418.361 190.24ZM415.657 185.672C415.657 183.76 416.457 182.424 418.145 182.424C419.905 182.424 420.721 183.848 420.721 185.672C420.721 187.512 419.889 188.936 418.185 188.936C416.441 188.936 415.657 187.568 415.657 185.672Z" fill="white"/>
    <path d="M666 184H427" stroke="#D3D7E0" stroke-width="2"/>
    <path d="M676 184L676.707 183.293L677.414 184L676.707 184.707L676 184ZM668.707 192.707L668 193.414L666.586 192L667.293 191.293L668.707 192.707ZM667.293 176.707L666.586 176L668 174.586L668.707 175.293L667.293 176.707ZM666 183L676 183L676 185L666 185L666 183ZM676.707 184.707L668.707 192.707L667.293 191.293L675.293 183.293L676.707 184.707ZM675.293 184.707L667.293 176.707L668.707 175.293L676.707 183.293L675.293 184.707Z" fill="#D3D7E0"/>
    <path d="M101.28 398H108.048V396.648H102.704V386.48H101.28V398ZM109.401 398H110.825V393.744H114.193L116.257 398H117.889L115.665 393.432C116.969 392.888 117.649 391.632 117.649 390.112C117.649 388.28 116.665 386.832 114.801 386.544C114.505 386.496 114.177 386.48 113.953 386.48H109.401V398ZM110.825 392.392V387.832H113.905C114.105 387.832 114.385 387.848 114.625 387.904C115.729 388.152 116.193 389.152 116.193 390.112C116.193 391.072 115.729 392.072 114.625 392.32C114.385 392.376 114.105 392.392 113.905 392.392H110.825ZM119.331 397.992H126.987V396.632H121.523L125.235 393.296C126.419 392.248 126.987 391.488 126.987 389.976C126.987 387.856 125.371 386.24 123.235 386.24C121.019 386.24 119.387 387.784 119.387 389.952H120.843C120.827 388.696 121.835 387.6 123.211 387.6C124.539 387.6 125.531 388.632 125.531 389.96C125.531 390.688 125.299 391.352 124.451 392.112L119.339 396.712L119.331 397.992Z" fill="white"/>
    <rect x="96" y="380" width="36" height="24" rx="1" stroke="#D3D7E0" stroke-width="2"/>
    <path d="M351 392H132" stroke="#D3D7E0" stroke-width="2"/>
    <rect width="56" height="20" transform="translate(351 382)" fill="#1D1D29"/>
    <path d="M355.933 397.992H363.589V396.632H358.125L361.837 393.296C363.021 392.248 363.589 391.488 363.589 389.976C363.589 387.856 361.973 386.24 359.837 386.24C357.621 386.24 355.989 387.784 355.989 389.952H357.445C357.429 388.696 358.437 387.6 359.813 387.6C361.141 387.6 362.133 388.632 362.133 389.96C362.133 390.688 361.901 391.352 361.053 392.112L355.941 396.712L355.933 397.992ZM368.911 398.24C371.055 398.24 372.871 396.504 372.871 394.376C372.871 392.232 371.247 390.584 369.111 390.584C368.335 390.584 367.559 390.848 366.959 391.328L367.167 387.832H372.071V386.48H365.887L365.535 392.504L366.799 392.984C367.215 392.384 367.935 391.896 368.951 391.896C370.295 391.896 371.439 392.984 371.439 394.376C371.439 395.728 370.351 396.856 368.951 396.856C367.879 396.856 366.839 396.144 366.551 395.008L365.183 395.376C365.647 397.056 367.127 398.24 368.911 398.24ZM378.672 398.24C380.912 398.24 382.56 396.592 382.56 394.352V390.128C382.56 387.888 380.912 386.24 378.672 386.24C376.432 386.24 374.784 387.888 374.784 390.128V394.352C374.784 396.592 376.432 398.24 378.672 398.24ZM376.232 394.432V390.04C376.232 388.688 377.32 387.6 378.672 387.6C380.024 387.6 381.112 388.688 381.112 390.04V394.432C381.112 395.784 380.024 396.872 378.672 396.872C377.32 396.872 376.232 395.784 376.232 394.432ZM388.768 398.24C391.184 398.24 392.64 396.264 392.64 393.672C392.64 391.08 391.176 389.12 388.776 389.12C387.696 389.12 386.84 389.496 386.224 390.144V386.48H384.792V398H386.064V397.024C386.696 397.784 387.6 398.24 388.768 398.24ZM386.064 393.672C386.064 391.76 386.864 390.424 388.552 390.424C390.312 390.424 391.128 391.848 391.128 393.672C391.128 395.512 390.296 396.936 388.592 396.936C386.848 396.936 386.064 395.568 386.064 393.672ZM398.361 398.24C400.777 398.24 402.233 396.264 402.233 393.672C402.233 391.08 400.769 389.12 398.369 389.12C397.193 389.12 396.289 389.568 395.657 390.328V389.36H394.385V401.84H395.817V397.2C396.433 397.856 397.289 398.24 398.361 398.24ZM395.657 393.672C395.657 391.76 396.457 390.424 398.145 390.424C399.905 390.424 400.721 391.848 400.721 393.672C400.721 395.512 399.889 396.936 398.185 396.936C396.441 396.936 395.657 395.568 395.657 393.672Z" fill="white"/>
    <path d="M626 392H407" stroke="#D3D7E0" stroke-width="2"/>
    <path d="M636 392L636.707 391.293L637.414 392L636.707 392.707L636 392ZM628.707 400.707L628 401.414L626.586 400L627.293 399.293L628.707 400.707ZM627.293 384.707L626.586 384L628 382.586L628.707 383.293L627.293 384.707ZM626 391L636 391L636 393L626 393L626 391ZM636.707 392.707L628.707 400.707L627.293 399.293L635.293 391.293L636.707 392.707ZM635.293 392.707L627.293 384.707L628.707 383.293L636.707 391.293L635.293 392.707Z" fill="#D3D7E0"/>
    <path d="M497.208 238.24C499.6 238.24 501.52 237.016 501.52 234.784C501.52 232.568 499.624 232 498.624 231.72L496.432 231.088C495.576 230.848 494.512 230.48 494.512 229.416C494.512 228.352 495.608 227.584 497.024 227.6C498.488 227.616 499.696 228.48 499.936 229.88L501.448 229.616C501.024 227.52 499.36 226.264 497.04 226.248C494.744 226.24 493.008 227.44 493.008 229.48C493.008 231.184 494.224 231.928 495.504 232.304L498.44 233.176C499.264 233.424 500.048 233.856 500.048 234.864C500.048 236.12 498.824 236.888 497.28 236.888C495.672 236.888 494.4 236.032 494.032 234.576L492.56 234.808C492.944 236.928 494.76 238.24 497.208 238.24ZM503.198 238H504.622V233.744H507.99L510.054 238H511.686L509.462 233.432C510.766 232.888 511.446 231.632 511.446 230.112C511.446 228.28 510.462 226.832 508.598 226.544C508.302 226.496 507.974 226.48 507.75 226.48H503.198V238ZM504.622 232.392V227.832H507.702C507.902 227.832 508.182 227.848 508.422 227.904C509.526 228.152 509.99 229.152 509.99 230.112C509.99 231.072 509.526 232.072 508.422 232.32C508.182 232.376 507.902 232.392 507.702 232.392H504.622ZM513.128 237.992H520.784V236.632H515.32L519.032 233.296C520.216 232.248 520.784 231.488 520.784 229.976C520.784 227.856 519.168 226.24 517.032 226.24C514.816 226.24 513.184 227.784 513.184 229.952H514.64C514.624 228.696 515.632 227.6 517.008 227.6C518.336 227.6 519.328 228.632 519.328 229.96C519.328 230.688 519.096 231.352 518.248 232.112L513.136 236.712L513.128 237.992Z" fill="white"/>
    <rect x="488" y="220" width="38" height="24" rx="1" stroke="#D3D7E0" stroke-width="2"/>
    <path d="M623 232H526" stroke="#D3D7E0" stroke-width="2"/>
    <rect width="54" height="20" transform="translate(623 222)" fill="#1D1D29"/>
    <path d="M630.269 238H631.717V226.48H630.269L628.101 227.776V229.368L630.269 228.056V238ZM638.649 238.24C640.889 238.24 642.537 236.592 642.537 234.352V230.128C642.537 227.888 640.889 226.24 638.649 226.24C636.409 226.24 634.761 227.888 634.761 230.128V234.352C634.761 236.592 636.409 238.24 638.649 238.24ZM636.209 234.432V230.04C636.209 228.688 637.297 227.6 638.649 227.6C640.001 227.6 641.089 228.688 641.089 230.04V234.432C641.089 235.784 640.001 236.872 638.649 236.872C637.297 236.872 636.209 235.784 636.209 234.432ZM648.664 238.24C650.904 238.24 652.552 236.592 652.552 234.352V230.128C652.552 227.888 650.904 226.24 648.664 226.24C646.424 226.24 644.776 227.888 644.776 230.128V234.352C644.776 236.592 646.424 238.24 648.664 238.24ZM646.224 234.432V230.04C646.224 228.688 647.312 227.6 648.664 227.6C650.016 227.6 651.104 228.688 651.104 230.04V234.432C651.104 235.784 650.016 236.872 648.664 236.872C647.312 236.872 646.224 235.784 646.224 234.432ZM658.76 238.24C661.176 238.24 662.632 236.264 662.632 233.672C662.632 231.08 661.168 229.12 658.768 229.12C657.688 229.12 656.832 229.496 656.216 230.144V226.48H654.784V238H656.056V237.024C656.688 237.784 657.592 238.24 658.76 238.24ZM656.056 233.672C656.056 231.76 656.856 230.424 658.544 230.424C660.304 230.424 661.12 231.848 661.12 233.672C661.12 235.512 660.288 236.936 658.584 236.936C656.84 236.936 656.056 235.568 656.056 233.672ZM668.354 238.24C670.77 238.24 672.226 236.264 672.226 233.672C672.226 231.08 670.762 229.12 668.362 229.12C667.186 229.12 666.282 229.568 665.65 230.328V229.36H664.378V241.84H665.81V237.2C666.426 237.856 667.282 238.24 668.354 238.24ZM665.65 233.672C665.65 231.76 666.45 230.424 668.138 230.424C669.898 230.424 670.714 231.848 670.714 233.672C670.714 235.512 669.882 236.936 668.178 236.936C666.434 236.936 665.65 235.568 665.65 233.672Z" fill="white"/>
    <path d="M774 232H677" stroke="#D3D7E0" stroke-width="2"/>
    <path d="M784 232L784.707 231.293L785.414 232L784.707 232.707L784 232ZM776.707 240.707L776 241.414L774.586 240L775.293 239.293L776.707 240.707ZM775.293 224.707L774.586 224L776 222.586L776.707 223.293L775.293 224.707ZM774 231L784 231L784 233L774 233L774 231ZM784.707 232.707L776.707 240.707L775.293 239.293L783.293 231.293L784.707 232.707ZM783.293 232.707L775.293 224.707L776.707 223.293L784.707 231.293L783.293 232.707Z" fill="#D3D7E0"/>
    <path d="M433.208 446.24C435.6 446.24 437.52 445.016 437.52 442.784C437.52 440.568 435.624 440 434.624 439.72L432.432 439.088C431.576 438.848 430.512 438.48 430.512 437.416C430.512 436.352 431.608 435.584 433.024 435.6C434.488 435.616 435.696 436.48 435.936 437.88L437.448 437.616C437.024 435.52 435.36 434.264 433.04 434.248C430.744 434.24 429.008 435.44 429.008 437.48C429.008 439.184 430.224 439.928 431.504 440.304L434.44 441.176C435.264 441.424 436.048 441.856 436.048 442.864C436.048 444.12 434.824 444.888 433.28 444.888C431.672 444.888 430.4 444.032 430.032 442.576L428.56 442.808C428.944 444.928 430.76 446.24 433.208 446.24ZM439.198 446H440.622V441.744H443.99L446.054 446H447.686L445.462 441.432C446.766 440.888 447.446 439.632 447.446 438.112C447.446 436.28 446.462 434.832 444.598 434.544C444.302 434.496 443.974 434.48 443.75 434.48H439.198V446ZM440.622 440.392V435.832H443.702C443.902 435.832 444.182 435.848 444.422 435.904C445.526 436.152 445.99 437.152 445.99 438.112C445.99 439.072 445.526 440.072 444.422 440.32C444.182 440.376 443.902 440.392 443.702 440.392H440.622ZM449.128 445.992H456.784V444.632H451.32L455.032 441.296C456.216 440.248 456.784 439.488 456.784 437.976C456.784 435.856 455.168 434.24 453.032 434.24C450.816 434.24 449.184 435.784 449.184 437.952H450.64C450.624 436.696 451.632 435.6 453.008 435.6C454.336 435.6 455.328 436.632 455.328 437.96C455.328 438.688 455.096 439.352 454.248 440.112L449.136 444.712L449.128 445.992Z" fill="white"/>
    <rect x="424" y="428" width="38" height="24" rx="1" stroke="#D3D7E0" stroke-width="2"/>
    <path d="M559 440H462" stroke="#D3D7E0" stroke-width="2"/>
    <rect width="54" height="20" transform="translate(559 430)" fill="#1D1D29"/>
    <path d="M566.269 446H567.717V434.48H566.269L564.101 435.776V437.368L566.269 436.056V446ZM574.649 446.24C576.889 446.24 578.537 444.592 578.537 442.352V438.128C578.537 435.888 576.889 434.24 574.649 434.24C572.409 434.24 570.761 435.888 570.761 438.128V442.352C570.761 444.592 572.409 446.24 574.649 446.24ZM572.209 442.432V438.04C572.209 436.688 573.297 435.6 574.649 435.6C576.001 435.6 577.089 436.688 577.089 438.04V442.432C577.089 443.784 576.001 444.872 574.649 444.872C573.297 444.872 572.209 443.784 572.209 442.432ZM584.664 446.24C586.904 446.24 588.552 444.592 588.552 442.352V438.128C588.552 435.888 586.904 434.24 584.664 434.24C582.424 434.24 580.776 435.888 580.776 438.128V442.352C580.776 444.592 582.424 446.24 584.664 446.24ZM582.224 442.432V438.04C582.224 436.688 583.312 435.6 584.664 435.6C586.016 435.6 587.104 436.688 587.104 438.04V442.432C587.104 443.784 586.016 444.872 584.664 444.872C583.312 444.872 582.224 443.784 582.224 442.432ZM594.76 446.24C597.176 446.24 598.632 444.264 598.632 441.672C598.632 439.08 597.168 437.12 594.768 437.12C593.688 437.12 592.832 437.496 592.216 438.144V434.48H590.784V446H592.056V445.024C592.688 445.784 593.592 446.24 594.76 446.24ZM592.056 441.672C592.056 439.76 592.856 438.424 594.544 438.424C596.304 438.424 597.12 439.848 597.12 441.672C597.12 443.512 596.288 444.936 594.584 444.936C592.84 444.936 592.056 443.568 592.056 441.672ZM604.354 446.24C606.77 446.24 608.226 444.264 608.226 441.672C608.226 439.08 606.762 437.12 604.362 437.12C603.186 437.12 602.282 437.568 601.65 438.328V437.36H600.378V449.84H601.81V445.2C602.426 445.856 603.282 446.24 604.354 446.24ZM601.65 441.672C601.65 439.76 602.45 438.424 604.138 438.424C605.898 438.424 606.714 439.848 606.714 441.672C606.714 443.512 605.882 444.936 604.178 444.936C602.434 444.936 601.65 443.568 601.65 441.672Z" fill="white"/>
    <path d="M710 440H613" stroke="#D3D7E0" stroke-width="2"/>
    <path d="M720 440L720.707 439.293L721.414 440L720.707 440.707L720 440ZM712.707 448.707L712 449.414L710.586 448L711.293 447.293L712.707 448.707ZM711.293 432.707L710.586 432L712 430.586L712.707 431.293L711.293 432.707ZM710 439L720 439L720 441L710 441L710 439ZM720.707 440.707L712.707 448.707L711.293 447.293L719.293 439.293L720.707 440.707ZM719.293 440.707L711.293 432.707L712.707 431.293L720.707 439.293L719.293 440.707Z" fill="#D3D7E0"/>
    <path d="M32.9984 118H34.7784V103.6H32.9984V118ZM43.6089 118.3C47.8189 118.3 50.0589 115.39 50.0589 111.44C50.0589 111.32 50.0489 110.87 50.0189 110.59H45.0789V112.06H48.1389C47.9189 114.93 46.4789 116.62 43.6989 116.6C40.4789 116.58 38.8489 114.25 38.8689 110.8C38.8889 107.35 40.4789 104.99 43.6989 105.01C45.7489 105.02 47.1389 106.14 47.7489 107.88L49.5489 107.51C48.7989 104.92 46.8289 103.31 43.6089 103.31C39.5789 103.31 36.9789 106.21 36.9789 110.8C36.9789 115.44 39.6389 118.3 43.6089 118.3ZM52.0563 118H53.8363V111.64H61.4163V118H63.1963V103.6H61.4163V109.95H53.8363V103.6H52.0563V118Z" fill="white"/>
    <path d="M26.0258 316H27.8058V301.6H26.0258V316ZM36.6363 316.3C40.8463 316.3 43.0863 313.39 43.0863 309.44C43.0863 309.32 43.0763 308.87 43.0463 308.59H38.1063V310.06H41.1662C40.9463 312.93 39.5062 314.62 36.7263 314.6C33.5063 314.58 31.8763 312.25 31.8963 308.8C31.9163 305.35 33.5063 302.99 36.7263 303.01C38.7763 303.02 40.1663 304.14 40.7763 305.88L42.5763 305.51C41.8263 302.92 39.8563 301.31 36.6363 301.31C32.6063 301.31 30.0063 304.21 30.0063 308.8C30.0063 313.44 32.6663 316.3 36.6363 316.3ZM45.0836 316H46.8636V308.96L53.6136 316H55.9136L48.8636 308.59L55.4036 301.6H53.1636L46.8636 308.36V301.6H45.0836V316ZM64.5634 301.6L60.7234 316H62.5334L66.3734 301.6H64.5634ZM34.7953 336H36.5753V321.6H34.7953V336ZM45.4058 336.3C49.6158 336.3 51.8558 333.39 51.8558 329.44C51.8558 329.32 51.8458 328.87 51.8158 328.59H46.8758V330.06H49.9358C49.7158 332.93 48.2758 334.62 45.4958 334.6C42.2758 334.58 40.6458 332.25 40.6658 328.8C40.6858 325.35 42.2758 322.99 45.4958 323.01C47.5458 323.02 48.9358 324.14 49.5458 325.88L51.3458 325.51C50.5958 322.92 48.6258 321.31 45.4058 321.31C41.3758 321.31 38.7758 324.21 38.7758 328.8C38.7758 333.44 41.4358 336.3 45.4058 336.3ZM54.0531 336H62.5131V334.31H55.8331V321.6H54.0531V336Z" fill="white"/>
    <defs>
        <filter id="filter0_i_6150_40231" x="94.7373" y="83" width="470.263" height="54" filterUnits="userSpaceOnUse" color-interpolation-filters="sRGB">
            <feFlood flood-opacity="0" result="BackgroundImageFix"/>
            <feBlend mode="normal" in="SourceGraphic" in2="BackgroundImageFix" result="shape"/>
            <feColorMatrix in="SourceAlpha" type="matrix" values="0 0 0 0 0 0 0 0 0 0 0 0 0 0 0 0 0 0 127 0" result="hardAlpha"/>
            <feOffset dx="-8" dy="-4"/>
            <feComposite in2="hardAlpha" operator="arithmetic" k2="-1" k3="1"/>
            <feColorMatrix type="matrix" values="0 0 0 0 0.0666667 0 0 0 0 0.0196078 0 0 0 0 0.160784 0 0 0 0.16 0"/>
            <feBlend mode="normal" in2="shape" result="effect1_innerShadow_6150_40231"/>
        </filter>
        <filter id="filter1_i_6150_40231" x="563" y="83" width="32" height="54" filterUnits="userSpaceOnUse" color-interpolation-filters="sRGB">
            <feFlood flood-opacity="0" result="BackgroundImageFix"/>
            <feBlend mode="normal" in="SourceGraphic" in2="BackgroundImageFix" result="shape"/>
            <feColorMatrix in="SourceAlpha" type="matrix" values="0 0 0 0 0 0 0 0 0 0 0 0 0 0 0 0 0 0 127 0" result="hardAlpha"/>
            <feOffset dx="-8" dy="-4"/>
            <feComposite in2="hardAlpha" operator="arithmetic" k2="-1" k3="1"/>
            <feColorMatrix type="matrix" values="0 0 0 0 0.0666667 0 0 0 0 0.0196078 0 0 0 0 0.160784 0 0 0 0.16 0"/>
            <feBlend mode="normal" in2="shape" result="effect1_innerShadow_6150_40231"/>
        </filter>
        <filter id="filter2_i_6150_40231" x="629" y="83" width="32" height="54" filterUnits="userSpaceOnUse" color-interpolation-filters="sRGB">
            <feFlood flood-opacity="0" result="BackgroundImageFix"/>
            <feBlend mode="normal" in="SourceGraphic" in2="BackgroundImageFix" result="shape"/>
            <feColorMatrix in="SourceAlpha" type="matrix" values="0 0 0 0 0 0 0 0 0 0 0 0 0 0 0 0 0 0 127 0" result="hardAlpha"/>
            <feOffset dx="-8" dy="-4"/>
            <feComposite in2="hardAlpha" operator="arithmetic" k2="-1" k3="1"/>
            <feColorMatrix type="matrix" values="0 0 0 0 0.0666667 0 0 0 0 0.0196078 0 0 0 0 0.160784 0 0 0 0.16 0"/>
            <feBlend mode="normal" in2="shape" result="effect1_innerShadow_6150_40231"/>
        </filter>
        <filter id="filter3_i_6150_40231" x="593" y="83" width="38" height="54" filterUnits="userSpaceOnUse" color-interpolation-filters="sRGB">
            <feFlood flood-opacity="0" result="BackgroundImageFix"/>
            <feBlend mode="normal" in="SourceGraphic" in2="BackgroundImageFix" result="shape"/>
            <feColorMatrix in="SourceAlpha" type="matrix" values="0 0 0 0 0 0 0 0 0 0 0 0 0 0 0 0 0 0 127 0" result="hardAlpha"/>
            <feOffset dx="-8" dy="-4"/>
            <feComposite in2="hardAlpha" operator="arithmetic" k2="-1" k3="1"/>
            <feColorMatrix type="matrix" values="0 0 0 0 0.0666667 0 0 0 0 0.0196078 0 0 0 0 0.160784 0 0 0 0.16 0"/>
            <feBlend mode="normal" in2="shape" result="effect1_innerShadow_6150_40231"/>
        </filter>
        <filter id="filter4_i_6150_40231" x="659" y="83" width="134" height="54" filterUnits="userSpaceOnUse" color-interpolation-filters="sRGB">
            <feFlood flood-opacity="0" result="BackgroundImageFix"/>
            <feBlend mode="normal" in="SourceGraphic" in2="BackgroundImageFix" result="shape"/>
            <feColorMatrix in="SourceAlpha" type="matrix" values="0 0 0 0 0 0 0 0 0 0 0 0 0 0 0 0 0 0 127 0" result="hardAlpha"/>
            <feOffset dx="-8" dy="-4"/>
            <feComposite in2="hardAlpha" operator="arithmetic" k2="-1" k3="1"/>
            <feColorMatrix type="matrix" values="0 0 0 0 0.0666667 0 0 0 0 0.0196078 0 0 0 0 0.160784 0 0 0 0.16 0"/>
            <feBlend mode="normal" in2="shape" result="effect1_innerShadow_6150_40231"/>
        </filter>
        <filter id="filter5_i_6150_40231" x="791" y="83" width="67.0312" height="54" filterUnits="userSpaceOnUse" color-interpolation-filters="sRGB">
            <feFlood flood-opacity="0" result="BackgroundImageFix"/>
            <feBlend mode="normal" in="SourceGraphic" in2="BackgroundImageFix" result="shape"/>
            <feColorMatrix in="SourceAlpha" type="matrix" values="0 0 0 0 0 0 0 0 0 0 0 0 0 0 0 0 0 0 127 0" result="hardAlpha"/>
            <feOffset dx="-8" dy="-4"/>
            <feComposite in2="hardAlpha" operator="arithmetic" k2="-1" k3="1"/>
            <feColorMatrix type="matrix" values="0 0 0 0 0.0666667 0 0 0 0 0.0196078 0 0 0 0 0.160784 0 0 0 0.16 0"/>
            <feBlend mode="normal" in2="shape" result="effect1_innerShadow_6150_40231"/>
        </filter>
        <filter id="filter6_i_6150_40231" x="94.7373" y="291" width="470.263" height="54" filterUnits="userSpaceOnUse" color-interpolation-filters="sRGB">
            <feFlood flood-opacity="0" result="BackgroundImageFix"/>
            <feBlend mode="normal" in="SourceGraphic" in2="BackgroundImageFix" result="shape"/>
            <feColorMatrix in="SourceAlpha" type="matrix" values="0 0 0 0 0 0 0 0 0 0 0 0 0 0 0 0 0 0 127 0" result="hardAlpha"/>
            <feOffset dx="-8" dy="-4"/>
            <feComposite in2="hardAlpha" operator="arithmetic" k2="-1" k3="1"/>
            <feColorMatrix type="matrix" values="0 0 0 0 0.0666667 0 0 0 0 0.0196078 0 0 0 0 0.160784 0 0 0 0.16 0"/>
            <feBlend mode="normal" in2="shape" result="effect1_innerShadow_6150_40231"/>
        </filter>
        <filter id="filter7_i_6150_40231" x="563" y="291" width="32" height="54" filterUnits="userSpaceOnUse" color-interpolation-filters="sRGB">
            <feFlood flood-opacity="0" result="BackgroundImageFix"/>
            <feBlend mode="normal" in="SourceGraphic" in2="BackgroundImageFix" result="shape"/>
            <feColorMatrix in="SourceAlpha" type="matrix" values="0 0 0 0 0 0 0 0 0 0 0 0 0 0 0 0 0 0 127 0" result="hardAlpha"/>
            <feOffset dx="-8" dy="-4"/>
            <feComposite in2="hardAlpha" operator="arithmetic" k2="-1" k3="1"/>
            <feColorMatrix type="matrix" values="0 0 0 0 0.0666667 0 0 0 0 0.0196078 0 0 0 0 0.160784 0 0 0 0.16 0"/>
            <feBlend mode="normal" in2="shape" result="effect1_innerShadow_6150_40231"/>
        </filter>
        <filter id="filter8_i_6150_40231" x="593" y="291" width="134" height="54" filterUnits="userSpaceOnUse" color-interpolation-filters="sRGB">
            <feFlood flood-opacity="0" result="BackgroundImageFix"/>
            <feBlend mode="normal" in="SourceGraphic" in2="BackgroundImageFix" result="shape"/>
            <feColorMatrix in="SourceAlpha" type="matrix" values="0 0 0 0 0 0 0 0 0 0 0 0 0 0 0 0 0 0 127 0" result="hardAlpha"/>
            <feOffset dx="-8" dy="-4"/>
            <feComposite in2="hardAlpha" operator="arithmetic" k2="-1" k3="1"/>
            <feColorMatrix type="matrix" values="0 0 0 0 0.0666667 0 0 0 0 0.0196078 0 0 0 0 0.160784 0 0 0 0.16 0"/>
            <feBlend mode="normal" in2="shape" result="effect1_innerShadow_6150_40231"/>
        </filter>
        <filter id="filter9_i_6150_40231" x="725" y="291" width="67.0312" height="54" filterUnits="userSpaceOnUse" color-interpolation-filters="sRGB">
            <feFlood flood-opacity="0" result="BackgroundImageFix"/>
            <feBlend mode="normal" in="SourceGraphic" in2="BackgroundImageFix" result="shape"/>
            <feColorMatrix in="SourceAlpha" type="matrix" values="0 0 0 0 0 0 0 0 0 0 0 0 0 0 0 0 0 0 127 0" result="hardAlpha"/>
            <feOffset dx="-8" dy="-4"/>
            <feComposite in2="hardAlpha" operator="arithmetic" k2="-1" k3="1"/>
            <feColorMatrix type="matrix" values="0 0 0 0 0.0666667 0 0 0 0 0.0196078 0 0 0 0 0.160784 0 0 0 0.16 0"/>
            <feBlend mode="normal" in2="shape" result="effect1_innerShadow_6150_40231"/>
        </filter>
    </defs>
</svg>
