<svg width="960" height="576" viewBox="0 0 960 576" fill="none" xmlns="http://www.w3.org/2000/svg">
    <rect width="960" height="576" fill="#1D1D29"/>
    <path d="M32.9984 436H34.7784V421.6H32.9984V436ZM43.6089 436.3C47.8189 436.3 50.0589 433.39 50.0589 429.44C50.0589 429.32 50.0489 428.87 50.0189 428.59H45.0789V430.06H48.1389C47.9189 432.93 46.4789 434.62 43.6989 434.6C40.4789 434.58 38.8489 432.25 38.8689 428.8C38.8889 425.35 40.4789 422.99 43.6989 423.01C45.7489 423.02 47.1389 424.14 47.7489 425.88L49.5489 425.51C48.7989 422.92 46.8289 421.31 43.6089 421.31C39.5789 421.31 36.9789 424.21 36.9789 428.8C36.9789 433.44 39.6389 436.3 43.6089 436.3ZM52.0563 436H53.8363V429.64H61.4163V436H63.1963V421.6H61.4163V427.95H53.8363V421.6H52.0563V436Z" fill="white"/>
    <path d="M26.0258 526H27.8058V511.6H26.0258V526ZM36.6363 526.3C40.8463 526.3 43.0863 523.39 43.0863 519.44C43.0863 519.32 43.0763 518.87 43.0463 518.59H38.1063V520.06H41.1662C40.9463 522.93 39.5062 524.62 36.7263 524.6C33.5063 524.58 31.8763 522.25 31.8963 518.8C31.9163 515.35 33.5063 512.99 36.7263 513.01C38.7763 513.02 40.1663 514.14 40.7763 515.88L42.5763 515.51C41.8263 512.92 39.8563 511.31 36.6363 511.31C32.6063 511.31 30.0063 514.21 30.0063 518.8C30.0063 523.44 32.6663 526.3 36.6363 526.3ZM45.0836 526H46.8636V518.96L53.6136 526H55.9136L48.8636 518.59L55.4036 511.6H53.1636L46.8636 518.36V511.6H45.0836V526ZM64.5634 511.6L60.7234 526H62.5334L66.3734 511.6H64.5634ZM34.7953 546H36.5753V531.6H34.7953V546ZM45.4058 546.3C49.6158 546.3 51.8558 543.39 51.8558 539.44C51.8558 539.32 51.8458 538.87 51.8158 538.59H46.8758V540.06H49.9358C49.7158 542.93 48.2758 544.62 45.4958 544.6C42.2758 544.58 40.6458 542.25 40.6658 538.8C40.6858 535.35 42.2758 532.99 45.4958 533.01C47.5458 533.02 48.9358 534.14 49.5458 535.88L51.3458 535.51C50.5958 532.92 48.6258 531.31 45.4058 531.31C41.3758 531.31 38.7758 534.21 38.7758 538.8C38.7758 543.44 41.4358 546.3 45.4058 546.3ZM54.0531 546H62.5131V544.31H55.8331V531.6H54.0531V546Z" fill="white"/>
    <path d="M109.858 37H111.321V32.695H114.989V31.225H111.321V28.383H115.829V26.92H109.858V37ZM117.09 37H118.553V33.381H121.227L122.984 37H124.657L122.753 33.094C123.894 32.597 124.468 31.491 124.468 30.147C124.468 28.516 123.628 27.235 121.941 26.976C121.675 26.934 121.36 26.92 121.164 26.92H117.09V37ZM118.553 31.995V28.299H121.108C121.29 28.299 121.535 28.313 121.745 28.369C122.641 28.579 122.977 29.405 122.977 30.147C122.977 30.889 122.641 31.715 121.745 31.932C121.535 31.981 121.29 31.995 121.108 31.995H118.553ZM127.953 37H129.444V26.92H127.953L126.056 28.054V29.685L127.953 28.53V37Z" fill="white" fill-opacity="0.3"/>
    <path d="M168 112V24" stroke="white" stroke-opacity="0.3" stroke-width="2" stroke-linecap="square" stroke-dasharray="6 6"/>
    <path d="M203.735 37.21C206.059 37.21 207.62 35.943 208.215 33.955L206.731 33.556C206.332 34.963 205.331 35.817 203.735 35.817C201.593 35.817 200.501 34.27 200.515 31.96C200.522 29.65 201.593 28.103 203.735 28.103C205.331 28.103 206.332 28.957 206.731 30.364L208.215 29.965C207.62 27.977 206.059 26.71 203.735 26.71C200.711 26.71 198.968 28.845 198.968 31.96C198.968 35.075 200.711 37.21 203.735 37.21ZM209.754 37H212.911C213.093 37 213.695 37 214.164 36.937C216.53 36.636 217.79 34.529 217.79 31.96C217.79 29.391 216.53 27.284 214.164 26.983C213.695 26.92 213.093 26.92 212.911 26.92H209.754V37ZM211.252 35.607V28.313H212.911C213.219 28.313 213.723 28.32 214.059 28.383C215.571 28.663 216.236 30.189 216.236 31.96C216.236 33.689 215.599 35.243 214.059 35.537C213.723 35.6 213.233 35.607 212.911 35.607H211.252ZM219.42 37H220.883V33.381H223.557L225.314 37H226.987L225.083 33.094C226.224 32.597 226.798 31.491 226.798 30.147C226.798 28.516 225.958 27.235 224.271 26.976C224.005 26.934 223.69 26.92 223.494 26.92H219.42V37ZM220.883 31.995V28.299H223.438C223.62 28.299 223.865 28.313 224.075 28.369C224.971 28.579 225.307 29.405 225.307 30.147C225.307 30.889 224.971 31.715 224.075 31.932C223.865 31.981 223.62 31.995 223.438 31.995H220.883ZM230.283 37H231.774V26.92H230.283L228.386 28.054V29.685L230.283 28.53V37Z" fill="white" fill-opacity="0.3"/>
    <path d="M264 112V24" stroke="white" stroke-opacity="0.3" stroke-width="2" stroke-linecap="square" stroke-dasharray="6 6"/>
    <path d="M300.703 37H302.166V32.695H305.834V31.225H302.166V28.383H306.674V26.92H300.703V37ZM307.935 37H309.398V33.381H312.072L313.829 37H315.502L313.598 33.094C314.739 32.597 315.313 31.491 315.313 30.147C315.313 28.516 314.473 27.235 312.786 26.976C312.52 26.934 312.205 26.92 312.009 26.92H307.935V37ZM309.398 31.995V28.299H311.953C312.135 28.299 312.38 28.313 312.59 28.369C313.486 28.579 313.822 29.405 313.822 30.147C313.822 30.889 313.486 31.715 312.59 31.932C312.38 31.981 312.135 31.995 311.953 31.995H309.398ZM316.761 36.993H323.579V35.6H319.022L321.941 32.996C323.033 32.037 323.579 31.407 323.579 30.028C323.579 28.117 322.144 26.71 320.24 26.71C318.231 26.71 316.796 28.047 316.796 30H318.294C318.28 28.985 319.092 28.103 320.212 28.103C321.297 28.103 322.074 28.929 322.074 30.007C322.074 30.581 321.864 31.127 321.157 31.757L316.768 35.691L316.761 36.993Z" fill="white" fill-opacity="0.3"/>
    <path d="M360 112V24" stroke="white" stroke-opacity="0.3" stroke-width="2" stroke-linecap="square" stroke-dasharray="6 6"/>
    <path d="M394.58 37.21C396.904 37.21 398.465 35.943 399.06 33.955L397.576 33.556C397.177 34.963 396.176 35.817 394.58 35.817C392.438 35.817 391.346 34.27 391.36 31.96C391.367 29.65 392.438 28.103 394.58 28.103C396.176 28.103 397.177 28.957 397.576 30.364L399.06 29.965C398.465 27.977 396.904 26.71 394.58 26.71C391.556 26.71 389.813 28.845 389.813 31.96C389.813 35.075 391.556 37.21 394.58 37.21ZM400.599 37H403.756C403.938 37 404.54 37 405.009 36.937C407.375 36.636 408.635 34.529 408.635 31.96C408.635 29.391 407.375 27.284 405.009 26.983C404.54 26.92 403.938 26.92 403.756 26.92H400.599V37ZM402.097 35.607V28.313H403.756C404.064 28.313 404.568 28.32 404.904 28.383C406.416 28.663 407.081 30.189 407.081 31.96C407.081 33.689 406.444 35.243 404.904 35.537C404.568 35.6 404.078 35.607 403.756 35.607H402.097ZM410.265 37H411.728V33.381H414.402L416.159 37H417.832L415.928 33.094C417.069 32.597 417.643 31.491 417.643 30.147C417.643 28.516 416.803 27.235 415.116 26.976C414.85 26.934 414.535 26.92 414.339 26.92H410.265V37ZM411.728 31.995V28.299H414.283C414.465 28.299 414.71 28.313 414.92 28.369C415.816 28.579 416.152 29.405 416.152 30.147C416.152 30.889 415.816 31.715 414.92 31.932C414.71 31.981 414.465 31.995 414.283 31.995H411.728ZM419.091 36.993H425.909V35.6H421.352L424.271 32.996C425.363 32.037 425.909 31.407 425.909 30.028C425.909 28.117 424.474 26.71 422.57 26.71C420.561 26.71 419.126 28.047 419.126 30H420.624C420.61 28.985 421.422 28.103 422.542 28.103C423.627 28.103 424.404 28.929 424.404 30.007C424.404 30.581 424.194 31.127 423.487 31.757L419.098 35.691L419.091 36.993Z" fill="white" fill-opacity="0.3"/>
    <path d="M456 112V24" stroke="white" stroke-opacity="0.3" stroke-width="2" stroke-linecap="square" stroke-dasharray="6 6"/>
    <path d="M492.805 37H494.268V32.695H497.936V31.225H494.268V28.383H498.776V26.92H492.805V37ZM500.038 37H501.501V33.381H504.175L505.932 37H507.605L505.701 33.094C506.842 32.597 507.416 31.491 507.416 30.147C507.416 28.516 506.576 27.235 504.889 26.976C504.623 26.934 504.308 26.92 504.112 26.92H500.038V37ZM501.501 31.995V28.299H504.056C504.238 28.299 504.483 28.313 504.693 28.369C505.589 28.579 505.925 29.405 505.925 30.147C505.925 30.889 505.589 31.715 504.693 31.932C504.483 31.981 504.238 31.995 504.056 31.995H501.501ZM511.964 37.189C513.847 37.189 515.331 35.796 515.331 33.871C515.331 32.233 514.323 30.924 512.692 30.707L515.184 28.313V26.92H509.122V28.313H513.392L510.312 31.036L510.998 32.191C511.285 32.037 511.628 31.939 511.95 31.939C513.07 31.939 513.833 32.751 513.833 33.871C513.833 34.984 513.07 35.789 511.964 35.803C511.138 35.81 510.403 35.341 510.137 34.466L508.723 34.858C509.15 36.293 510.466 37.189 511.964 37.189Z" fill="white" fill-opacity="0.3"/>
    <path d="M552 112V24" stroke="white" stroke-opacity="0.3" stroke-width="2" stroke-linecap="square" stroke-dasharray="6 6"/>
    <path d="M598.682 37.21C601.006 37.21 602.567 35.943 603.162 33.955L601.678 33.556C601.279 34.963 600.278 35.817 598.682 35.817C596.54 35.817 595.448 34.27 595.462 31.96C595.469 29.65 596.54 28.103 598.682 28.103C600.278 28.103 601.279 28.957 601.678 30.364L603.162 29.965C602.567 27.977 601.006 26.71 598.682 26.71C595.658 26.71 593.915 28.845 593.915 31.96C593.915 35.075 595.658 37.21 598.682 37.21ZM604.702 37H607.859C608.041 37 608.643 37 609.112 36.937C611.478 36.636 612.738 34.529 612.738 31.96C612.738 29.391 611.478 27.284 609.112 26.983C608.643 26.92 608.041 26.92 607.859 26.92H604.702V37ZM606.2 35.607V28.313H607.859C608.167 28.313 608.671 28.32 609.007 28.383C610.519 28.663 611.184 30.189 611.184 31.96C611.184 33.689 610.547 35.243 609.007 35.537C608.671 35.6 608.181 35.607 607.859 35.607H606.2ZM614.368 37H615.831V33.381H618.505L620.262 37H621.935L620.031 33.094C621.172 32.597 621.746 31.491 621.746 30.147C621.746 28.516 620.906 27.235 619.219 26.976C618.953 26.934 618.638 26.92 618.442 26.92H614.368V37ZM615.831 31.995V28.299H618.386C618.568 28.299 618.813 28.313 619.023 28.369C619.919 28.579 620.255 29.405 620.255 30.147C620.255 30.889 619.919 31.715 619.023 31.932C618.813 31.981 618.568 31.995 618.386 31.995H615.831ZM626.294 37.189C628.177 37.189 629.661 35.796 629.661 33.871C629.661 32.233 628.653 30.924 627.022 30.707L629.514 28.313V26.92H623.452V28.313H627.722L624.642 31.036L625.328 32.191C625.615 32.037 625.958 31.939 626.28 31.939C627.4 31.939 628.163 32.751 628.163 33.871C628.163 34.984 627.4 35.789 626.294 35.803C625.468 35.81 624.733 35.341 624.467 34.466L623.053 34.858C623.48 36.293 624.796 37.189 626.294 37.189Z" fill="white" fill-opacity="0.3"/>
    <path d="M672 112V24" stroke="white" stroke-opacity="0.3" stroke-width="2" stroke-linecap="square" stroke-dasharray="6 6"/>
    <path d="M720.593 37H722.056V32.695H725.724V31.225H722.056V28.383H726.564V26.92H720.593V37ZM727.826 37H729.289V33.381H731.963L733.72 37H735.393L733.489 33.094C734.63 32.597 735.204 31.491 735.204 30.147C735.204 28.516 734.364 27.235 732.677 26.976C732.411 26.934 732.096 26.92 731.9 26.92H727.826V37ZM729.289 31.995V28.299H731.844C732.026 28.299 732.271 28.313 732.481 28.369C733.377 28.579 733.713 29.405 733.713 30.147C733.713 30.889 733.377 31.715 732.481 31.932C732.271 31.981 732.026 31.995 731.844 31.995H729.289ZM741.201 37H742.685V35.243H743.686V33.857H742.685V31.127H741.201V33.857H738.324L741.6 26.92H739.927L736.651 33.857V35.243H741.201V37Z" fill="white" fill-opacity="0.3"/>
    <path d="M792 112V24" stroke="white" stroke-opacity="0.3" stroke-width="2" stroke-linecap="square" stroke-dasharray="6 6"/>
    <g filter="url(#filter0_i_6150_39930)">
        <path d="M101 84H562.4C562.96 84 563.24 84 563.454 84.109C563.642 84.2049 563.795 84.3578 563.891 84.546C564 84.7599 564 85.0399 564 85.6V134.4C564 134.96 564 135.24 563.891 135.454C563.795 135.642 563.642 135.795 563.454 135.891C563.24 136 562.96 136 562.4 136H101L96 129.5L101 123L96 116L101 110L96 103.5L101 97L96 90.5L101 84Z" fill="#99E099"/>
    </g>
    <path d="M101 84H562.4C562.96 84 563.24 84 563.454 84.109C563.642 84.2049 563.795 84.3578 563.891 84.546C564 84.7599 564 85.0399 564 85.6V134.4C564 134.96 564 135.24 563.891 135.454C563.795 135.642 563.642 135.795 563.454 135.891C563.24 136 562.96 136 562.4 136H101L96 129.5L101 123L96 116L101 110L96 103.5L101 97L96 90.5L101 84Z" stroke="#110529" stroke-width="2" stroke-linecap="round"/>
    <path d="M329.258 118H331.738L336.558 103.6H334.708L330.478 116.11L326.288 103.6H324.438L329.258 118Z" fill="#110529"/>
    <g filter="url(#filter1_i_6150_39930)">
        <rect x="564" y="84" width="30" height="52" rx="1" fill="#CBEB67"/>
    </g>
    <rect x="564" y="84" width="30" height="52" rx="1" stroke="#110529" stroke-width="2" stroke-linecap="round"/>
    <g filter="url(#filter2_i_6150_39930)">
        <rect x="630" y="84" width="30" height="52" rx="1" fill="#FAAAFA"/>
    </g>
    <rect x="630" y="84" width="30" height="52" rx="1" stroke="#110529" stroke-width="2" stroke-linecap="round"/>
    <g filter="url(#filter3_i_6150_39930)">
        <rect x="594" y="84" width="36" height="52" rx="1" fill="#FFCB8F"/>
    </g>
    <rect x="594" y="84" width="36" height="52" rx="1" stroke="#110529" stroke-width="2" stroke-linecap="round"/>
    <path d="M573.447 118H575.247V106.74L582.757 118H584.557V103.6H582.757V114.85L575.247 103.6H573.447V118Z" fill="#110529"/>
    <path d="M639.447 118H641.247V106.74L648.757 118H650.557V103.6H648.757V114.85L641.247 103.6H639.447V118Z" fill="#110529"/>
    <path d="M606.593 118H611.033C611.303 118 612.183 118 612.853 117.91C616.183 117.47 617.913 114.48 617.913 110.8C617.913 107.13 616.183 104.13 612.853 103.69C612.173 103.6 611.313 103.6 611.033 103.6H606.593V118ZM608.423 116.3V105.3H611.033C611.513 105.3 612.233 105.32 612.703 105.41C615.033 105.83 616.023 108.08 616.023 110.8C616.023 113.47 615.063 115.76 612.703 116.19C612.233 116.28 611.533 116.3 611.033 116.3H608.423Z" fill="#110529"/>
    <g filter="url(#filter4_i_6150_39930)">
        <rect x="660" y="84" width="132" height="52" rx="1" fill="#C1ADFF"/>
        <path d="M725.244 118.29C726.694 118.29 727.954 117.7 728.684 116.43C729.214 115.51 729.154 114.72 729.154 113.48V103.6H727.354V113.48C727.354 114.37 727.354 114.99 727.094 115.51C726.704 116.29 725.884 116.6 725.204 116.6C724.134 116.6 723.224 115.83 723.014 114.85L721.244 115.27C721.754 117.11 723.224 118.29 725.244 118.29Z" fill="#110529"/>
        <rect x="660" y="84" width="132" height="52" rx="1" stroke="#110529" stroke-width="2" stroke-linecap="round"/>
    </g>
    <g filter="url(#filter5_i_6150_39930)">
        <path d="M856 84H793.6C793.04 84 792.76 84 792.546 84.109C792.358 84.2049 792.205 84.3578 792.109 84.546C792 84.7599 792 85.0399 792 85.6V134.4C792 134.96 792 135.24 792.109 135.454C792.205 135.642 792.358 135.795 792.546 135.891C792.76 136 793.04 136 793.6 136H856L851 129.5L856 123L851 116L856 110L851 103.5L856 97L851 90.5L856 84Z" fill="#FAFAAA"/>
    </g>
    <path d="M856 84H793.6C793.04 84 792.76 84 792.546 84.109C792.358 84.2049 792.205 84.3578 792.109 84.546C792 84.7599 792 85.0399 792 85.6V134.4C792 134.96 792 135.24 792.109 135.454C792.205 135.642 792.358 135.795 792.546 135.891C792.76 136 793.04 136 793.6 136H856L851 129.5L856 123L851 116L856 110L851 103.5L856 97L851 90.5L856 84Z" stroke="#110529" stroke-width="2" stroke-linecap="round"/>
    <path d="M824.593 118.3C827.923 118.3 830.113 116.47 830.933 113.61L829.123 113.13C828.533 115.27 827.023 116.6 824.593 116.6C821.373 116.6 819.733 114.25 819.753 110.8C819.773 107.35 821.373 105 824.593 105C827.023 105 828.533 106.33 829.123 108.47L830.933 107.99C830.113 105.13 827.923 103.3 824.593 103.3C820.283 103.3 817.873 106.36 817.873 110.8C817.873 115.24 820.283 118.3 824.593 118.3Z" fill="#110529"/>
    <g filter="url(#filter6_i_6150_39930)">
        <path d="M101 400H562.4C562.96 400 563.24 400 563.454 400.109C563.642 400.205 563.795 400.358 563.891 400.546C564 400.76 564 401.04 564 401.6V450.4C564 450.96 564 451.24 563.891 451.454C563.795 451.642 563.642 451.795 563.454 451.891C563.24 452 562.96 452 562.4 452H101L96 445.5L101 439L96 432L101 426L96 419.5L101 413L96 406.5L101 400Z" fill="#99E099"/>
    </g>
    <path d="M101 400H562.4C562.96 400 563.24 400 563.454 400.109C563.642 400.205 563.795 400.358 563.891 400.546C564 400.76 564 401.04 564 401.6V450.4C564 450.96 564 451.24 563.891 451.454C563.795 451.642 563.642 451.795 563.454 451.891C563.24 452 562.96 452 562.4 452H101L96 445.5L101 439L96 432L101 426L96 419.5L101 413L96 406.5L101 400Z" stroke="#110529" stroke-width="2" stroke-linecap="round"/>
    <path d="M329.258 434H331.738L336.558 419.6H334.708L330.478 432.11L326.288 419.6H324.438L329.258 434Z" fill="#110529"/>
    <g filter="url(#filter7_i_6150_39930)">
        <rect x="564" y="400" width="30" height="52" rx="1" fill="#CBEB67"/>
    </g>
    <rect x="564" y="400" width="30" height="52" rx="1" stroke="#110529" stroke-width="2" stroke-linecap="round"/>
    <g filter="url(#filter8_i_6150_39930)">
        <rect x="630" y="400" width="30" height="52" rx="1" fill="#FAAAFA"/>
    </g>
    <rect x="630" y="400" width="30" height="52" rx="1" stroke="#110529" stroke-width="2" stroke-linecap="round"/>
    <g filter="url(#filter9_i_6150_39930)">
        <rect x="594" y="400" width="36" height="52" rx="1" fill="#FFCB8F"/>
    </g>
    <rect x="594" y="400" width="36" height="52" rx="1" stroke="#110529" stroke-width="2" stroke-linecap="round"/>
    <path d="M573.447 434H575.247V422.74L582.757 434H584.557V419.6H582.757V430.85L575.247 419.6H573.447V434Z" fill="#110529"/>
    <path d="M639.447 434H641.247V422.74L648.757 434H650.557V419.6H648.757V430.85L641.247 419.6H639.447V434Z" fill="#110529"/>
    <path d="M606.593 434H611.033C611.303 434 612.183 434 612.853 433.91C616.183 433.47 617.913 430.48 617.913 426.8C617.913 423.13 616.183 420.13 612.853 419.69C612.173 419.6 611.313 419.6 611.033 419.6H606.593V434ZM608.423 432.3V421.3H611.033C611.513 421.3 612.233 421.32 612.703 421.41C615.033 421.83 616.023 424.08 616.023 426.8C616.023 429.47 615.063 431.76 612.703 432.19C612.233 432.28 611.533 432.3 611.033 432.3H608.423Z" fill="#110529"/>
    <g filter="url(#filter10_i_6150_39930)">
        <rect x="660" y="400" width="132" height="52" rx="1" fill="#C1ADFF"/>
        <path d="M725.244 434.29C726.694 434.29 727.954 433.7 728.684 432.43C729.214 431.51 729.154 430.72 729.154 429.48V419.6H727.354V429.48C727.354 430.37 727.354 430.99 727.094 431.51C726.704 432.29 725.884 432.6 725.204 432.6C724.134 432.6 723.224 431.83 723.014 430.85L721.244 431.27C721.754 433.11 723.224 434.29 725.244 434.29Z" fill="#110529"/>
        <rect x="660" y="400" width="132" height="52" rx="1" stroke="#110529" stroke-width="2" stroke-linecap="round"/>
    </g>
    <g filter="url(#filter11_i_6150_39930)">
        <path d="M856 400H793.6C793.04 400 792.76 400 792.546 400.109C792.358 400.205 792.205 400.358 792.109 400.546C792 400.76 792 401.04 792 401.6V450.4C792 450.96 792 451.24 792.109 451.454C792.205 451.642 792.358 451.795 792.546 451.891C792.76 452 793.04 452 793.6 452H856L851 445.5L856 439L851 432L856 426L851 419.5L856 413L851 406.5L856 400Z" fill="#FAFAAA"/>
    </g>
    <path d="M856 400H793.6C793.04 400 792.76 400 792.546 400.109C792.358 400.205 792.205 400.358 792.109 400.546C792 400.76 792 401.04 792 401.6V450.4C792 450.96 792 451.24 792.109 451.454C792.205 451.642 792.358 451.795 792.546 451.891C792.76 452 793.04 452 793.6 452H856L851 445.5L856 439L851 432L856 426L851 419.5L856 413L851 406.5L856 400Z" stroke="#110529" stroke-width="2" stroke-linecap="round"/>
    <path d="M824.593 434.3C827.923 434.3 830.113 432.47 830.933 429.61L829.123 429.13C828.533 431.27 827.023 432.6 824.593 432.6C821.373 432.6 819.733 430.25 819.753 426.8C819.773 423.35 821.373 421 824.593 421C827.023 421 828.533 422.33 829.123 424.47L830.933 423.99C830.113 421.13 827.923 419.3 824.593 419.3C820.283 419.3 817.873 422.36 817.873 426.8C817.873 431.24 820.283 434.3 824.593 434.3Z" fill="#110529"/>
    <g filter="url(#filter12_i_6150_39930)">
        <path d="M101 242H562.4C562.96 242 563.24 242 563.454 242.109C563.642 242.205 563.795 242.358 563.891 242.546C564 242.76 564 243.04 564 243.6V292.4C564 292.96 564 293.24 563.891 293.454C563.795 293.642 563.642 293.795 563.454 293.891C563.24 294 562.96 294 562.4 294H101L96 287.5L101 281L96 274L101 268L96 261.5L101 255L96 248.5L101 242Z" fill="#99E099"/>
    </g>
    <path d="M101 242H562.4C562.96 242 563.24 242 563.454 242.109C563.642 242.205 563.795 242.358 563.891 242.546C564 242.76 564 243.04 564 243.6V292.4C564 292.96 564 293.24 563.891 293.454C563.795 293.642 563.642 293.795 563.454 293.891C563.24 294 562.96 294 562.4 294H101L96 287.5L101 281L96 274L101 268L96 261.5L101 255L96 248.5L101 242Z" stroke="#110529" stroke-width="2" stroke-linecap="round"/>
    <path d="M329.258 276H331.738L336.558 261.6H334.708L330.478 274.11L326.288 261.6H324.438L329.258 276Z" fill="#110529"/>
    <g filter="url(#filter13_i_6150_39930)">
        <rect x="564" y="242" width="30" height="52" rx="1" fill="#CBEB67"/>
    </g>
    <rect x="564" y="242" width="30" height="52" rx="1" stroke="#110529" stroke-width="2" stroke-linecap="round"/>
    <path d="M573.447 276H575.247V264.74L582.757 276H584.557V261.6H582.757V272.85L575.247 261.6H573.447V276Z" fill="#110529"/>
    <g filter="url(#filter14_i_6150_39930)">
        <rect x="594" y="242" width="132" height="52" rx="1" fill="#C1ADFF"/>
        <path d="M659.244 276.29C660.694 276.29 661.954 275.7 662.684 274.43C663.214 273.51 663.154 272.72 663.154 271.48V261.6H661.354V271.48C661.354 272.37 661.354 272.99 661.094 273.51C660.704 274.29 659.884 274.6 659.204 274.6C658.134 274.6 657.224 273.83 657.014 272.85L655.244 273.27C655.754 275.11 657.224 276.29 659.244 276.29Z" fill="#110529"/>
        <rect x="594" y="242" width="132" height="52" rx="1" stroke="#110529" stroke-width="2" stroke-linecap="round"/>
    </g>
    <g filter="url(#filter15_i_6150_39930)">
        <path d="M790 242H727.6C727.04 242 726.76 242 726.546 242.109C726.358 242.205 726.205 242.358 726.109 242.546C726 242.76 726 243.04 726 243.6V292.4C726 292.96 726 293.24 726.109 293.454C726.205 293.642 726.358 293.795 726.546 293.891C726.76 294 727.04 294 727.6 294H790L785 287.5L790 281L785 274L790 268L785 261.5L790 255L785 248.5L790 242Z" fill="#FAFAAA"/>
    </g>
    <path d="M790 242H727.6C727.04 242 726.76 242 726.546 242.109C726.358 242.205 726.205 242.358 726.109 242.546C726 242.76 726 243.04 726 243.6V292.4C726 292.96 726 293.24 726.109 293.454C726.205 293.642 726.358 293.795 726.546 293.891C726.76 294 727.04 294 727.6 294H790L785 287.5L790 281L785 274L790 268L785 261.5L790 255L785 248.5L790 242Z" stroke="#110529" stroke-width="2" stroke-linecap="round"/>
    <path d="M758.593 276.3C761.923 276.3 764.113 274.47 764.933 271.61L763.123 271.13C762.533 273.27 761.023 274.6 758.593 274.6C755.373 274.6 753.733 272.25 753.753 268.8C753.773 265.35 755.373 263 758.593 263C761.023 263 762.533 264.33 763.123 266.47L764.933 265.99C764.113 263.13 761.923 261.3 758.593 261.3C754.283 261.3 751.873 264.36 751.873 268.8C751.873 273.24 754.283 276.3 758.593 276.3Z" fill="#110529"/>
    <g filter="url(#filter16_i_6150_39930)">
        <path d="M101 500H562.4C562.96 500 563.24 500 563.454 500.109C563.642 500.205 563.795 500.358 563.891 500.546C564 500.76 564 501.04 564 501.6V550.4C564 550.96 564 551.24 563.891 551.454C563.795 551.642 563.642 551.795 563.454 551.891C563.24 552 562.96 552 562.4 552H101L96 545.5L101 539L96 532L101 526L96 519.5L101 513L96 506.5L101 500Z" fill="#99E099"/>
    </g>
    <path d="M101 500H562.4C562.96 500 563.24 500 563.454 500.109C563.642 500.205 563.795 500.358 563.891 500.546C564 500.76 564 501.04 564 501.6V550.4C564 550.96 564 551.24 563.891 551.454C563.795 551.642 563.642 551.795 563.454 551.891C563.24 552 562.96 552 562.4 552H101L96 545.5L101 539L96 532L101 526L96 519.5L101 513L96 506.5L101 500Z" stroke="#110529" stroke-width="2" stroke-linecap="round"/>
    <path d="M329.258 534H331.738L336.558 519.6H334.708L330.478 532.11L326.288 519.6H324.438L329.258 534Z" fill="#110529"/>
    <g filter="url(#filter17_i_6150_39930)">
        <rect x="564" y="500" width="30" height="52" rx="1" fill="#CBEB67"/>
    </g>
    <rect x="564" y="500" width="30" height="52" rx="1" stroke="#110529" stroke-width="2" stroke-linecap="round"/>
    <path d="M573.447 534H575.247V522.74L582.757 534H584.557V519.6H582.757V530.85L575.247 519.6H573.447V534Z" fill="#110529"/>
    <g filter="url(#filter18_i_6150_39930)">
        <rect x="594" y="500" width="132" height="52" rx="1" fill="#C1ADFF"/>
        <path d="M659.244 534.29C660.694 534.29 661.954 533.7 662.684 532.43C663.214 531.51 663.154 530.72 663.154 529.48V519.6H661.354V529.48C661.354 530.37 661.354 530.99 661.094 531.51C660.704 532.29 659.884 532.6 659.204 532.6C658.134 532.6 657.224 531.83 657.014 530.85L655.244 531.27C655.754 533.11 657.224 534.29 659.244 534.29Z" fill="#110529"/>
        <rect x="594" y="500" width="132" height="52" rx="1" stroke="#110529" stroke-width="2" stroke-linecap="round"/>
    </g>
    <g filter="url(#filter19_i_6150_39930)">
        <path d="M790 500H727.6C727.04 500 726.76 500 726.546 500.109C726.358 500.205 726.205 500.358 726.109 500.546C726 500.76 726 501.04 726 501.6V550.4C726 550.96 726 551.24 726.109 551.454C726.205 551.642 726.358 551.795 726.546 551.891C726.76 552 727.04 552 727.6 552H790L785 545.5L790 539L785 532L790 526L785 519.5L790 513L785 506.5L790 500Z" fill="#FAFAAA"/>
    </g>
    <path d="M790 500H727.6C727.04 500 726.76 500 726.546 500.109C726.358 500.205 726.205 500.358 726.109 500.546C726 500.76 726 501.04 726 501.6V550.4C726 550.96 726 551.24 726.109 551.454C726.205 551.642 726.358 551.795 726.546 551.891C726.76 552 727.04 552 727.6 552H790L785 545.5L790 539L785 532L790 526L785 519.5L790 513L785 506.5L790 500Z" stroke="#110529" stroke-width="2" stroke-linecap="round"/>
    <path d="M758.593 534.3C761.923 534.3 764.113 532.47 764.933 529.61L763.123 529.13C762.533 531.27 761.023 532.6 758.593 532.6C755.373 532.6 753.733 530.25 753.753 526.8C753.773 523.35 755.373 521 758.593 521C761.023 521 762.533 522.33 763.123 524.47L764.933 523.99C764.113 521.13 761.923 519.3 758.593 519.3C754.283 519.3 751.873 522.36 751.873 526.8C751.873 531.24 754.283 534.3 758.593 534.3Z" fill="#110529"/>
    <path d="M19.3014 264H21.0814V251.29H25.9914V249.6H14.3914V251.29H19.3014V264ZM33.5036 264.3C36.8336 264.3 39.0236 262.47 39.8436 259.61L38.0336 259.13C37.4436 261.27 35.9336 262.6 33.5036 262.6C30.2836 262.6 28.6436 260.25 28.6636 256.8C28.6836 253.35 30.2836 251 33.5036 251C35.9336 251 37.4436 252.33 38.0336 254.47L39.8436 253.99C39.0236 251.13 36.8336 249.3 33.5036 249.3C29.1936 249.3 26.7836 252.36 26.7836 256.8C26.7836 261.24 29.1936 264.3 33.5036 264.3ZM42.0367 264H43.8167V258.68H48.0267L50.6067 264H52.6467L49.8667 258.29C51.4967 257.61 52.3467 256.04 52.3467 254.14C52.3467 251.85 51.1167 250.04 48.7867 249.68C48.4167 249.62 48.0067 249.6 47.7267 249.6H42.0367V264ZM43.8167 256.99V251.29H47.6667C47.9167 251.29 48.2667 251.31 48.5667 251.38C49.9467 251.69 50.5267 252.94 50.5267 254.14C50.5267 255.34 49.9467 256.59 48.5667 256.9C48.2667 256.97 47.9167 256.99 47.6667 256.99H43.8167ZM63.1231 264.3C64.7631 264.3 66.0731 263.54 66.7731 262.24V264H68.3631V253.2H66.7731V254.93C66.0831 253.65 64.8231 252.9 63.1731 252.9C60.0731 252.9 58.2531 255.35 58.2531 258.6C58.2531 261.83 60.0631 264.3 63.1231 264.3ZM60.1431 258.6C60.1431 256.19 61.2531 254.53 63.3631 254.53C65.4731 254.53 66.4731 256.2 66.4731 258.59C66.4731 260.96 65.4831 262.67 63.3431 262.67C61.1731 262.67 60.1431 260.88 60.1431 258.6ZM78.8017 249.6L74.9617 264H76.7717L80.6117 249.6H78.8017ZM26.2448 284H28.0248V271.29H32.9348V269.6H21.3348V271.29H26.2448V284ZM40.447 284.3C43.777 284.3 45.967 282.47 46.787 279.61L44.977 279.13C44.387 281.27 42.877 282.6 40.447 282.6C37.227 282.6 35.587 280.25 35.607 276.8C35.627 273.35 37.227 271 40.447 271C42.877 271 44.387 272.33 44.977 274.47L46.787 273.99C45.967 271.13 43.777 269.3 40.447 269.3C36.137 269.3 33.727 272.36 33.727 276.8C33.727 281.24 36.137 284.3 40.447 284.3ZM48.9801 284H50.7601V278.68H54.9701L57.5501 284H59.5901L56.8101 278.29C58.4401 277.61 59.2901 276.04 59.2901 274.14C59.2901 271.85 58.0601 270.04 55.7301 269.68C55.3601 269.62 54.9501 269.6 54.6701 269.6H48.9801V284ZM50.7601 276.99V271.29H54.6101C54.8601 271.29 55.2101 271.31 55.5101 271.38C56.8901 271.69 57.4701 272.94 57.4701 274.14C57.4701 275.34 56.8901 276.59 55.5101 276.9C55.2101 276.97 54.8601 276.99 54.6101 276.99H50.7601ZM68.7165 287.6H70.5365V284L74.4565 273.2H72.6565L69.6265 281.73L66.6065 273.2H64.7965L68.7165 284V287.6Z" fill="white"/>
    <path d="M19.6627 108H21.4427V95.29H26.3527V93.6H14.7527V95.29H19.6627V108ZM33.8649 108.3C37.1949 108.3 39.3849 106.47 40.2049 103.61L38.3949 103.13C37.8049 105.27 36.2949 106.6 33.8649 106.6C30.6449 106.6 29.0049 104.25 29.0249 100.8C29.0449 97.35 30.6449 95 33.8649 95C36.2949 95 37.8049 96.33 38.3949 98.47L40.2049 97.99C39.3849 95.13 37.1949 93.3 33.8649 93.3C29.5549 93.3 27.1449 96.36 27.1449 100.8C27.1449 105.24 29.5549 108.3 33.8649 108.3ZM42.398 108H44.178V102.68H48.388L50.968 108H53.008L50.228 102.29C51.858 101.61 52.708 100.04 52.708 98.14C52.708 95.85 51.478 94.04 49.148 93.68C48.778 93.62 48.368 93.6 48.088 93.6H42.398V108ZM44.178 100.99V95.29H48.028C48.278 95.29 48.628 95.31 48.928 95.38C50.308 95.69 50.888 96.94 50.888 98.14C50.888 99.34 50.308 100.59 48.928 100.9C48.628 100.97 48.278 100.99 48.028 100.99H44.178ZM59.2045 97.2V112.8H60.9845V107.39C61.6945 107.96 62.6845 108.3 63.9145 108.3C66.9645 108.3 68.8145 106.57 68.8145 103.95C68.8145 101.74 67.4145 100.44 66.0245 100.09C67.0745 99.58 67.5845 98.5 67.5845 97.22C67.5845 94.84 65.8345 93.3 63.3445 93.3C61.4845 93.3 59.9545 94.16 59.4245 95.78C59.2745 96.23 59.2045 96.71 59.2045 97.2ZM61.0245 103.71V97.86C61.0245 97.44 61.0445 96.8 61.2545 96.28C61.6145 95.35 62.4945 94.99 63.3845 94.99C64.7645 94.99 65.7645 95.82 65.7645 97.24C65.7645 98.67 64.7645 99.4 63.3945 99.54V101.14C65.5845 101.18 67.0045 102.1 67.0045 103.87C67.0045 105.52 65.7645 106.61 63.9945 106.61C62.7445 106.61 61.5045 106.04 61.1745 105.01C61.0545 104.64 61.0245 104.1 61.0245 103.71ZM78.4404 93.6L74.6004 108H76.4104L80.2504 93.6H78.4404ZM25.4733 128H27.2533V115.29H32.1633V113.6H20.5633V115.29H25.4733V128ZM39.6755 128.3C43.0055 128.3 45.1955 126.47 46.0155 123.61L44.2055 123.13C43.6155 125.27 42.1055 126.6 39.6755 126.6C36.4555 126.6 34.8155 124.25 34.8355 120.8C34.8555 117.35 36.4555 115 39.6755 115C42.1055 115 43.6155 116.33 44.2055 118.47L46.0155 117.99C45.1955 115.13 43.0055 113.3 39.6755 113.3C35.3655 113.3 32.9555 116.36 32.9555 120.8C32.9555 125.24 35.3655 128.3 39.6755 128.3ZM48.2086 128H49.9886V122.68H54.1986L56.7786 128H58.8186L56.0386 122.29C57.6686 121.61 58.5186 120.04 58.5186 118.14C58.5186 115.85 57.2886 114.04 54.9586 113.68C54.5886 113.62 54.1786 113.6 53.8986 113.6H48.2086V128ZM49.9886 120.99V115.29H53.8386C54.0886 115.29 54.4386 115.31 54.7386 115.38C56.1186 115.69 56.6986 116.94 56.6986 118.14C56.6986 119.34 56.1186 120.59 54.7386 120.9C54.4386 120.97 54.0886 120.99 53.8386 120.99H49.9886ZM69.595 128.29C72.845 128.29 74.835 126.14 74.835 123.03C74.835 120.57 73.585 118.7 71.435 118.05C69.385 117.33 67.755 116.92 67.755 115.87C67.755 115.33 68.145 115.01 68.695 114.87C68.985 114.8 69.325 114.78 69.735 114.78H72.895V113.3H69.335C68.885 113.3 68.515 113.3 68.115 113.38C66.535 113.64 65.985 114.76 65.985 115.8C65.985 117.11 66.865 117.88 67.975 118.39C65.725 118.77 64.425 120.69 64.425 123.17C64.425 126.24 66.405 128.29 69.595 128.29ZM66.445 123.03C66.445 120.88 67.495 119.47 69.635 119.47C71.735 119.47 72.825 120.83 72.825 123.01C72.825 125.18 71.755 126.6 69.635 126.6C67.555 126.6 66.445 125.25 66.445 123.03Z" fill="white"/>
    <path d="M103.12 190H104.544V185.744H107.912L109.976 190H111.608L109.384 185.432C110.688 184.888 111.368 183.632 111.368 182.112C111.368 180.28 110.384 178.832 108.52 178.544C108.224 178.496 107.896 178.48 107.672 178.48H103.12V190ZM104.544 184.392V179.832H107.624C107.824 179.832 108.104 179.848 108.344 179.904C109.448 180.152 109.912 181.152 109.912 182.112C109.912 183.072 109.448 184.072 108.344 184.32C108.104 184.376 107.824 184.392 107.624 184.392H104.544ZM113.05 189.992H120.706V188.632H115.242L118.954 185.296C120.138 184.248 120.706 183.488 120.706 181.976C120.706 179.856 119.09 178.24 116.954 178.24C114.738 178.24 113.106 179.784 113.106 181.952H114.562C114.546 180.696 115.554 179.6 116.93 179.6C118.258 179.6 119.25 180.632 119.25 181.96C119.25 182.688 119.018 183.352 118.17 184.112L113.058 188.712L113.05 189.992Z" fill="white"/>
    <rect x="96" y="172" width="32" height="24" rx="1" stroke="#D3D7E0" stroke-width="2"/>
    <path d="M299 184H128" stroke="#D3D7E0" stroke-width="2"/>
    <rect width="56" height="20" transform="translate(299 174)" fill="#1D1D29"/>
    <path d="M303.933 189.992H311.589V188.632H306.125L309.837 185.296C311.021 184.248 311.589 183.488 311.589 181.976C311.589 179.856 309.973 178.24 307.837 178.24C305.621 178.24 303.989 179.784 303.989 181.952H305.445C305.429 180.696 306.437 179.6 307.813 179.6C309.141 179.6 310.133 180.632 310.133 181.96C310.133 182.688 309.901 183.352 309.053 184.112L303.941 188.712L303.933 189.992ZM316.911 190.24C319.055 190.24 320.871 188.504 320.871 186.376C320.871 184.232 319.247 182.584 317.111 182.584C316.335 182.584 315.559 182.848 314.959 183.328L315.167 179.832H320.071V178.48H313.887L313.535 184.504L314.799 184.984C315.215 184.384 315.935 183.896 316.951 183.896C318.295 183.896 319.439 184.984 319.439 186.376C319.439 187.728 318.351 188.856 316.951 188.856C315.879 188.856 314.839 188.144 314.551 187.008L313.183 187.376C313.647 189.056 315.127 190.24 316.911 190.24ZM326.672 190.24C328.912 190.24 330.56 188.592 330.56 186.352V182.128C330.56 179.888 328.912 178.24 326.672 178.24C324.432 178.24 322.784 179.888 322.784 182.128V186.352C322.784 188.592 324.432 190.24 326.672 190.24ZM324.232 186.432V182.04C324.232 180.688 325.32 179.6 326.672 179.6C328.024 179.6 329.112 180.688 329.112 182.04V186.432C329.112 187.784 328.024 188.872 326.672 188.872C325.32 188.872 324.232 187.784 324.232 186.432ZM336.768 190.24C339.184 190.24 340.64 188.264 340.64 185.672C340.64 183.08 339.176 181.12 336.776 181.12C335.696 181.12 334.84 181.496 334.224 182.144V178.48H332.792V190H334.064V189.024C334.696 189.784 335.6 190.24 336.768 190.24ZM334.064 185.672C334.064 183.76 334.864 182.424 336.552 182.424C338.312 182.424 339.128 183.848 339.128 185.672C339.128 187.512 338.296 188.936 336.592 188.936C334.848 188.936 334.064 187.568 334.064 185.672ZM346.361 190.24C348.777 190.24 350.233 188.264 350.233 185.672C350.233 183.08 348.769 181.12 346.369 181.12C345.193 181.12 344.289 181.568 343.657 182.328V181.36H342.385V193.84H343.817V189.2C344.433 189.856 345.289 190.24 346.361 190.24ZM343.657 185.672C343.657 183.76 344.457 182.424 346.145 182.424C347.905 182.424 348.721 183.848 348.721 185.672C348.721 187.512 347.889 188.936 346.185 188.936C344.441 188.936 343.657 187.568 343.657 185.672Z" fill="white"/>
    <path d="M526 184H355" stroke="#D3D7E0" stroke-width="2"/>
    <path d="M536 184L536.707 183.293L537.414 184L536.707 184.707L536 184ZM528.707 192.707L528 193.414L526.586 192L527.293 191.293L528.707 192.707ZM527.293 176.707L526.586 176L528 174.586L528.707 175.293L527.293 176.707ZM526 183L536 183L536 185L526 185L526 183ZM536.707 184.707L528.707 192.707L527.293 191.293L535.293 183.293L536.707 184.707ZM535.293 184.707L527.293 176.707L528.707 175.293L536.707 183.293L535.293 184.707Z" fill="#D3D7E0"/>
    <path d="M103.12 348H104.544V343.744H107.912L109.976 348H111.608L109.384 343.432C110.688 342.888 111.368 341.632 111.368 340.112C111.368 338.28 110.384 336.832 108.52 336.544C108.224 336.496 107.896 336.48 107.672 336.48H103.12V348ZM104.544 342.392V337.832H107.624C107.824 337.832 108.104 337.848 108.344 337.904C109.448 338.152 109.912 339.152 109.912 340.112C109.912 341.072 109.448 342.072 108.344 342.32C108.104 342.376 107.824 342.392 107.624 342.392H104.544ZM113.05 347.992H120.706V346.632H115.242L118.954 343.296C120.138 342.248 120.706 341.488 120.706 339.976C120.706 337.856 119.09 336.24 116.954 336.24C114.738 336.24 113.106 337.784 113.106 339.952H114.562C114.546 338.696 115.554 337.6 116.93 337.6C118.258 337.6 119.25 338.632 119.25 339.96C119.25 340.688 119.018 341.352 118.17 342.112L113.058 346.712L113.05 347.992Z" fill="white"/>
    <rect x="96" y="330" width="32" height="24" rx="1" stroke="#D3D7E0" stroke-width="2"/>
    <path d="M289 342H128" stroke="#D3D7E0" stroke-width="2"/>
    <rect width="56" height="20" transform="translate(289 332)" fill="#1D1D29"/>
    <path d="M293.933 347.992H301.589V346.632H296.125L299.837 343.296C301.021 342.248 301.589 341.488 301.589 339.976C301.589 337.856 299.973 336.24 297.837 336.24C295.621 336.24 293.989 337.784 293.989 339.952H295.445C295.429 338.696 296.437 337.6 297.813 337.6C299.141 337.6 300.133 338.632 300.133 339.96C300.133 340.688 299.901 341.352 299.053 342.112L293.941 346.712L293.933 347.992ZM306.911 348.24C309.055 348.24 310.871 346.504 310.871 344.376C310.871 342.232 309.247 340.584 307.111 340.584C306.335 340.584 305.559 340.848 304.959 341.328L305.167 337.832H310.071V336.48H303.887L303.535 342.504L304.799 342.984C305.215 342.384 305.935 341.896 306.951 341.896C308.295 341.896 309.439 342.984 309.439 344.376C309.439 345.728 308.351 346.856 306.951 346.856C305.879 346.856 304.839 346.144 304.551 345.008L303.183 345.376C303.647 347.056 305.127 348.24 306.911 348.24ZM316.672 348.24C318.912 348.24 320.56 346.592 320.56 344.352V340.128C320.56 337.888 318.912 336.24 316.672 336.24C314.432 336.24 312.784 337.888 312.784 340.128V344.352C312.784 346.592 314.432 348.24 316.672 348.24ZM314.232 344.432V340.04C314.232 338.688 315.32 337.6 316.672 337.6C318.024 337.6 319.112 338.688 319.112 340.04V344.432C319.112 345.784 318.024 346.872 316.672 346.872C315.32 346.872 314.232 345.784 314.232 344.432ZM326.768 348.24C329.184 348.24 330.64 346.264 330.64 343.672C330.64 341.08 329.176 339.12 326.776 339.12C325.696 339.12 324.84 339.496 324.224 340.144V336.48H322.792V348H324.064V347.024C324.696 347.784 325.6 348.24 326.768 348.24ZM324.064 343.672C324.064 341.76 324.864 340.424 326.552 340.424C328.312 340.424 329.128 341.848 329.128 343.672C329.128 345.512 328.296 346.936 326.592 346.936C324.848 346.936 324.064 345.568 324.064 343.672ZM336.361 348.24C338.777 348.24 340.233 346.264 340.233 343.672C340.233 341.08 338.769 339.12 336.369 339.12C335.193 339.12 334.289 339.568 333.657 340.328V339.36H332.385V351.84H333.817V347.2C334.433 347.856 335.289 348.24 336.361 348.24ZM333.657 343.672C333.657 341.76 334.457 340.424 336.145 340.424C337.905 340.424 338.721 341.848 338.721 343.672C338.721 345.512 337.889 346.936 336.185 346.936C334.441 346.936 333.657 345.568 333.657 343.672Z" fill="white"/>
    <path d="M506 342H345" stroke="#D3D7E0" stroke-width="2"/>
    <path d="M516 342L516.707 341.293L517.414 342L516.707 342.707L516 342ZM508.707 350.707L508 351.414L506.586 350L507.293 349.293L508.707 350.707ZM507.293 334.707L506.586 334L508 332.586L508.707 333.293L507.293 334.707ZM506 341L516 341L516 343L506 343L506 341ZM516.707 342.707L508.707 350.707L507.293 349.293L515.293 341.293L516.707 342.707ZM515.293 342.707L507.293 334.707L508.707 333.293L516.707 341.293L515.293 342.707Z" fill="#D3D7E0"/>
    <path d="M416 160L415.293 160.707L414.586 160L415.293 159.293L416 160ZM423.293 151.293L424 150.586L425.414 152L424.707 152.707L423.293 151.293ZM424.707 167.293L425.414 168L424 169.414L423.293 168.707L424.707 167.293ZM426 161L416 161L416 159L426 159L426 161ZM415.293 159.293L423.293 151.293L424.707 152.707L416.707 160.707L415.293 159.293ZM416.707 159.293L424.707 167.293L423.293 168.707L415.293 160.707L416.707 159.293Z" fill="#D3D7E0"/>
    <path d="M596.5 160H426" stroke="#D3D7E0" stroke-width="2"/>
    <rect width="57" height="20" transform="translate(596.5 150)" fill="#1D1D29"/>
    <path d="M601.933 165.992H609.589V164.632H604.125L607.837 161.296C609.021 160.248 609.589 159.488 609.589 157.976C609.589 155.856 607.973 154.24 605.837 154.24C603.621 154.24 601.989 155.784 601.989 157.952H603.445C603.429 156.696 604.437 155.6 605.813 155.6C607.141 155.6 608.133 156.632 608.133 157.96C608.133 158.688 607.901 159.352 607.053 160.112L601.941 164.712L601.933 165.992ZM614.911 166.24C617.055 166.24 618.871 164.504 618.871 162.376C618.871 160.232 617.247 158.584 615.111 158.584C614.335 158.584 613.559 158.848 612.959 159.328L613.167 155.832H618.071V154.48H611.887L611.535 160.504L612.799 160.984C613.215 160.384 613.935 159.896 614.951 159.896C616.295 159.896 617.439 160.984 617.439 162.376C617.439 163.728 616.351 164.856 614.951 164.856C613.879 164.856 612.839 164.144 612.551 163.008L611.183 163.376C611.647 165.056 613.127 166.24 614.911 166.24ZM624.672 166.24C626.912 166.24 628.56 164.592 628.56 162.352V158.128C628.56 155.888 626.912 154.24 624.672 154.24C622.432 154.24 620.784 155.888 620.784 158.128V162.352C620.784 164.592 622.432 166.24 624.672 166.24ZM622.232 162.432V158.04C622.232 156.688 623.32 155.6 624.672 155.6C626.024 155.6 627.112 156.688 627.112 158.04V162.432C627.112 163.784 626.024 164.872 624.672 164.872C623.32 164.872 622.232 163.784 622.232 162.432ZM634.768 166.24C637.184 166.24 638.64 164.264 638.64 161.672C638.64 159.08 637.176 157.12 634.776 157.12C633.696 157.12 632.84 157.496 632.224 158.144V154.48H630.792V166H632.064V165.024C632.696 165.784 633.6 166.24 634.768 166.24ZM632.064 161.672C632.064 159.76 632.864 158.424 634.552 158.424C636.312 158.424 637.128 159.848 637.128 161.672C637.128 163.512 636.296 164.936 634.592 164.936C632.848 164.936 632.064 163.568 632.064 161.672ZM644.361 166.24C646.777 166.24 648.233 164.264 648.233 161.672C648.233 159.08 646.769 157.12 644.369 157.12C643.193 157.12 642.289 157.568 641.657 158.328V157.36H640.385V169.84H641.817V165.2C642.433 165.856 643.289 166.24 644.361 166.24ZM641.657 161.672C641.657 159.76 642.457 158.424 644.145 158.424C645.905 158.424 646.721 159.848 646.721 161.672C646.721 163.512 645.889 164.936 644.185 164.936C642.441 164.936 641.657 163.568 641.657 161.672Z" fill="white"/>
    <path d="M824 160H653.5" stroke="#D3D7E0" stroke-width="2"/>
    <path d="M832.62 166H834.044V161.744H837.412L839.476 166H841.108L838.884 161.432C840.188 160.888 840.868 159.632 840.868 158.112C840.868 156.28 839.884 154.832 838.02 154.544C837.724 154.496 837.396 154.48 837.172 154.48H832.62V166ZM834.044 160.392V155.832H837.124C837.324 155.832 837.604 155.848 837.844 155.904C838.948 156.152 839.412 157.152 839.412 158.112C839.412 159.072 838.948 160.072 837.844 160.32C837.604 160.376 837.324 160.392 837.124 160.392H834.044ZM844.878 166H846.326V154.48H844.878L842.71 155.776V157.368L844.878 156.056V166Z" fill="white"/>
    <rect x="824" y="148" width="32" height="24" rx="1" stroke="#D3D7E0" stroke-width="2"/>
    <path d="M370 318L369.293 318.707L368.586 318L369.293 317.293L370 318ZM377.293 309.293L378 308.586L379.414 310L378.707 310.707L377.293 309.293ZM378.707 325.293L379.414 326L378 327.414L377.293 326.707L378.707 325.293ZM380 319L370 319L370 317L380 317L380 319ZM369.293 317.293L377.293 309.293L378.707 310.707L370.707 318.707L369.293 317.293ZM370.707 317.293L378.707 325.293L377.293 326.707L369.293 318.707L370.707 317.293Z" fill="#D3D7E0"/>
    <path d="M540.5 318H380" stroke="#D3D7E0" stroke-width="2"/>
    <rect width="57" height="20" transform="translate(540.5 308)" fill="#1D1D29"/>
    <path d="M545.933 323.992H553.589V322.632H548.125L551.837 319.296C553.021 318.248 553.589 317.488 553.589 315.976C553.589 313.856 551.973 312.24 549.837 312.24C547.621 312.24 545.989 313.784 545.989 315.952H547.445C547.429 314.696 548.437 313.6 549.813 313.6C551.141 313.6 552.133 314.632 552.133 315.96C552.133 316.688 551.901 317.352 551.053 318.112L545.941 322.712L545.933 323.992ZM558.911 324.24C561.055 324.24 562.871 322.504 562.871 320.376C562.871 318.232 561.247 316.584 559.111 316.584C558.335 316.584 557.559 316.848 556.959 317.328L557.167 313.832H562.071V312.48H555.887L555.535 318.504L556.799 318.984C557.215 318.384 557.935 317.896 558.951 317.896C560.295 317.896 561.439 318.984 561.439 320.376C561.439 321.728 560.351 322.856 558.951 322.856C557.879 322.856 556.839 322.144 556.551 321.008L555.183 321.376C555.647 323.056 557.127 324.24 558.911 324.24ZM568.672 324.24C570.912 324.24 572.56 322.592 572.56 320.352V316.128C572.56 313.888 570.912 312.24 568.672 312.24C566.432 312.24 564.784 313.888 564.784 316.128V320.352C564.784 322.592 566.432 324.24 568.672 324.24ZM566.232 320.432V316.04C566.232 314.688 567.32 313.6 568.672 313.6C570.024 313.6 571.112 314.688 571.112 316.04V320.432C571.112 321.784 570.024 322.872 568.672 322.872C567.32 322.872 566.232 321.784 566.232 320.432ZM578.768 324.24C581.184 324.24 582.64 322.264 582.64 319.672C582.64 317.08 581.176 315.12 578.776 315.12C577.696 315.12 576.84 315.496 576.224 316.144V312.48H574.792V324H576.064V323.024C576.696 323.784 577.6 324.24 578.768 324.24ZM576.064 319.672C576.064 317.76 576.864 316.424 578.552 316.424C580.312 316.424 581.128 317.848 581.128 319.672C581.128 321.512 580.296 322.936 578.592 322.936C576.848 322.936 576.064 321.568 576.064 319.672ZM588.361 324.24C590.777 324.24 592.233 322.264 592.233 319.672C592.233 317.08 590.769 315.12 588.369 315.12C587.193 315.12 586.289 315.568 585.657 316.328V315.36H584.385V327.84H585.817V323.2C586.433 323.856 587.289 324.24 588.361 324.24ZM585.657 319.672C585.657 317.76 586.457 316.424 588.145 316.424C589.905 316.424 590.721 317.848 590.721 319.672C590.721 321.512 589.889 322.936 588.185 322.936C586.441 322.936 585.657 321.568 585.657 319.672Z" fill="white"/>
    <path d="M758 318H597.5" stroke="#D3D7E0" stroke-width="2"/>
    <path d="M766.62 324H768.044V319.744H771.412L773.476 324H775.108L772.884 319.432C774.188 318.888 774.868 317.632 774.868 316.112C774.868 314.28 773.884 312.832 772.02 312.544C771.724 312.496 771.396 312.48 771.172 312.48H766.62V324ZM768.044 318.392V313.832H771.124C771.324 313.832 771.604 313.848 771.844 313.904C772.948 314.152 773.412 315.152 773.412 316.112C773.412 317.072 772.948 318.072 771.844 318.32C771.604 318.376 771.324 318.392 771.124 318.392H768.044ZM778.878 324H780.326V312.48H778.878L776.71 313.776V315.368L778.878 314.056V324Z" fill="white"/>
    <rect x="758" y="306" width="32" height="24" rx="1" stroke="#D3D7E0" stroke-width="2"/>
    <defs>
        <filter id="filter0_i_6150_39930" x="94.7373" y="83" width="470.263" height="54" filterUnits="userSpaceOnUse" color-interpolation-filters="sRGB">
            <feFlood flood-opacity="0" result="BackgroundImageFix"/>
            <feBlend mode="normal" in="SourceGraphic" in2="BackgroundImageFix" result="shape"/>
            <feColorMatrix in="SourceAlpha" type="matrix" values="0 0 0 0 0 0 0 0 0 0 0 0 0 0 0 0 0 0 127 0" result="hardAlpha"/>
            <feOffset dx="-8" dy="-4"/>
            <feComposite in2="hardAlpha" operator="arithmetic" k2="-1" k3="1"/>
            <feColorMatrix type="matrix" values="0 0 0 0 0.0666667 0 0 0 0 0.0196078 0 0 0 0 0.160784 0 0 0 0.16 0"/>
            <feBlend mode="normal" in2="shape" result="effect1_innerShadow_6150_39930"/>
        </filter>
        <filter id="filter1_i_6150_39930" x="563" y="83" width="32" height="54" filterUnits="userSpaceOnUse" color-interpolation-filters="sRGB">
            <feFlood flood-opacity="0" result="BackgroundImageFix"/>
            <feBlend mode="normal" in="SourceGraphic" in2="BackgroundImageFix" result="shape"/>
            <feColorMatrix in="SourceAlpha" type="matrix" values="0 0 0 0 0 0 0 0 0 0 0 0 0 0 0 0 0 0 127 0" result="hardAlpha"/>
            <feOffset dx="-8" dy="-4"/>
            <feComposite in2="hardAlpha" operator="arithmetic" k2="-1" k3="1"/>
            <feColorMatrix type="matrix" values="0 0 0 0 0.0666667 0 0 0 0 0.0196078 0 0 0 0 0.160784 0 0 0 0.16 0"/>
            <feBlend mode="normal" in2="shape" result="effect1_innerShadow_6150_39930"/>
        </filter>
        <filter id="filter2_i_6150_39930" x="629" y="83" width="32" height="54" filterUnits="userSpaceOnUse" color-interpolation-filters="sRGB">
            <feFlood flood-opacity="0" result="BackgroundImageFix"/>
            <feBlend mode="normal" in="SourceGraphic" in2="BackgroundImageFix" result="shape"/>
            <feColorMatrix in="SourceAlpha" type="matrix" values="0 0 0 0 0 0 0 0 0 0 0 0 0 0 0 0 0 0 127 0" result="hardAlpha"/>
            <feOffset dx="-8" dy="-4"/>
            <feComposite in2="hardAlpha" operator="arithmetic" k2="-1" k3="1"/>
            <feColorMatrix type="matrix" values="0 0 0 0 0.0666667 0 0 0 0 0.0196078 0 0 0 0 0.160784 0 0 0 0.16 0"/>
            <feBlend mode="normal" in2="shape" result="effect1_innerShadow_6150_39930"/>
        </filter>
        <filter id="filter3_i_6150_39930" x="593" y="83" width="38" height="54" filterUnits="userSpaceOnUse" color-interpolation-filters="sRGB">
            <feFlood flood-opacity="0" result="BackgroundImageFix"/>
            <feBlend mode="normal" in="SourceGraphic" in2="BackgroundImageFix" result="shape"/>
            <feColorMatrix in="SourceAlpha" type="matrix" values="0 0 0 0 0 0 0 0 0 0 0 0 0 0 0 0 0 0 127 0" result="hardAlpha"/>
            <feOffset dx="-8" dy="-4"/>
            <feComposite in2="hardAlpha" operator="arithmetic" k2="-1" k3="1"/>
            <feColorMatrix type="matrix" values="0 0 0 0 0.0666667 0 0 0 0 0.0196078 0 0 0 0 0.160784 0 0 0 0.16 0"/>
            <feBlend mode="normal" in2="shape" result="effect1_innerShadow_6150_39930"/>
        </filter>
        <filter id="filter4_i_6150_39930" x="659" y="83" width="134" height="54" filterUnits="userSpaceOnUse" color-interpolation-filters="sRGB">
            <feFlood flood-opacity="0" result="BackgroundImageFix"/>
            <feBlend mode="normal" in="SourceGraphic" in2="BackgroundImageFix" result="shape"/>
            <feColorMatrix in="SourceAlpha" type="matrix" values="0 0 0 0 0 0 0 0 0 0 0 0 0 0 0 0 0 0 127 0" result="hardAlpha"/>
            <feOffset dx="-8" dy="-4"/>
            <feComposite in2="hardAlpha" operator="arithmetic" k2="-1" k3="1"/>
            <feColorMatrix type="matrix" values="0 0 0 0 0.0666667 0 0 0 0 0.0196078 0 0 0 0 0.160784 0 0 0 0.16 0"/>
            <feBlend mode="normal" in2="shape" result="effect1_innerShadow_6150_39930"/>
        </filter>
        <filter id="filter5_i_6150_39930" x="791" y="83" width="67.0312" height="54" filterUnits="userSpaceOnUse" color-interpolation-filters="sRGB">
            <feFlood flood-opacity="0" result="BackgroundImageFix"/>
            <feBlend mode="normal" in="SourceGraphic" in2="BackgroundImageFix" result="shape"/>
            <feColorMatrix in="SourceAlpha" type="matrix" values="0 0 0 0 0 0 0 0 0 0 0 0 0 0 0 0 0 0 127 0" result="hardAlpha"/>
            <feOffset dx="-8" dy="-4"/>
            <feComposite in2="hardAlpha" operator="arithmetic" k2="-1" k3="1"/>
            <feColorMatrix type="matrix" values="0 0 0 0 0.0666667 0 0 0 0 0.0196078 0 0 0 0 0.160784 0 0 0 0.16 0"/>
            <feBlend mode="normal" in2="shape" result="effect1_innerShadow_6150_39930"/>
        </filter>
        <filter id="filter6_i_6150_39930" x="94.7373" y="399" width="470.263" height="54" filterUnits="userSpaceOnUse" color-interpolation-filters="sRGB">
            <feFlood flood-opacity="0" result="BackgroundImageFix"/>
            <feBlend mode="normal" in="SourceGraphic" in2="BackgroundImageFix" result="shape"/>
            <feColorMatrix in="SourceAlpha" type="matrix" values="0 0 0 0 0 0 0 0 0 0 0 0 0 0 0 0 0 0 127 0" result="hardAlpha"/>
            <feOffset dx="-8" dy="-4"/>
            <feComposite in2="hardAlpha" operator="arithmetic" k2="-1" k3="1"/>
            <feColorMatrix type="matrix" values="0 0 0 0 0.0666667 0 0 0 0 0.0196078 0 0 0 0 0.160784 0 0 0 0.16 0"/>
            <feBlend mode="normal" in2="shape" result="effect1_innerShadow_6150_39930"/>
        </filter>
        <filter id="filter7_i_6150_39930" x="563" y="399" width="32" height="54" filterUnits="userSpaceOnUse" color-interpolation-filters="sRGB">
            <feFlood flood-opacity="0" result="BackgroundImageFix"/>
            <feBlend mode="normal" in="SourceGraphic" in2="BackgroundImageFix" result="shape"/>
            <feColorMatrix in="SourceAlpha" type="matrix" values="0 0 0 0 0 0 0 0 0 0 0 0 0 0 0 0 0 0 127 0" result="hardAlpha"/>
            <feOffset dx="-8" dy="-4"/>
            <feComposite in2="hardAlpha" operator="arithmetic" k2="-1" k3="1"/>
            <feColorMatrix type="matrix" values="0 0 0 0 0.0666667 0 0 0 0 0.0196078 0 0 0 0 0.160784 0 0 0 0.16 0"/>
            <feBlend mode="normal" in2="shape" result="effect1_innerShadow_6150_39930"/>
        </filter>
        <filter id="filter8_i_6150_39930" x="629" y="399" width="32" height="54" filterUnits="userSpaceOnUse" color-interpolation-filters="sRGB">
            <feFlood flood-opacity="0" result="BackgroundImageFix"/>
            <feBlend mode="normal" in="SourceGraphic" in2="BackgroundImageFix" result="shape"/>
            <feColorMatrix in="SourceAlpha" type="matrix" values="0 0 0 0 0 0 0 0 0 0 0 0 0 0 0 0 0 0 127 0" result="hardAlpha"/>
            <feOffset dx="-8" dy="-4"/>
            <feComposite in2="hardAlpha" operator="arithmetic" k2="-1" k3="1"/>
            <feColorMatrix type="matrix" values="0 0 0 0 0.0666667 0 0 0 0 0.0196078 0 0 0 0 0.160784 0 0 0 0.16 0"/>
            <feBlend mode="normal" in2="shape" result="effect1_innerShadow_6150_39930"/>
        </filter>
        <filter id="filter9_i_6150_39930" x="593" y="399" width="38" height="54" filterUnits="userSpaceOnUse" color-interpolation-filters="sRGB">
            <feFlood flood-opacity="0" result="BackgroundImageFix"/>
            <feBlend mode="normal" in="SourceGraphic" in2="BackgroundImageFix" result="shape"/>
            <feColorMatrix in="SourceAlpha" type="matrix" values="0 0 0 0 0 0 0 0 0 0 0 0 0 0 0 0 0 0 127 0" result="hardAlpha"/>
            <feOffset dx="-8" dy="-4"/>
            <feComposite in2="hardAlpha" operator="arithmetic" k2="-1" k3="1"/>
            <feColorMatrix type="matrix" values="0 0 0 0 0.0666667 0 0 0 0 0.0196078 0 0 0 0 0.160784 0 0 0 0.16 0"/>
            <feBlend mode="normal" in2="shape" result="effect1_innerShadow_6150_39930"/>
        </filter>
        <filter id="filter10_i_6150_39930" x="659" y="399" width="134" height="54" filterUnits="userSpaceOnUse" color-interpolation-filters="sRGB">
            <feFlood flood-opacity="0" result="BackgroundImageFix"/>
            <feBlend mode="normal" in="SourceGraphic" in2="BackgroundImageFix" result="shape"/>
            <feColorMatrix in="SourceAlpha" type="matrix" values="0 0 0 0 0 0 0 0 0 0 0 0 0 0 0 0 0 0 127 0" result="hardAlpha"/>
            <feOffset dx="-8" dy="-4"/>
            <feComposite in2="hardAlpha" operator="arithmetic" k2="-1" k3="1"/>
            <feColorMatrix type="matrix" values="0 0 0 0 0.0666667 0 0 0 0 0.0196078 0 0 0 0 0.160784 0 0 0 0.16 0"/>
            <feBlend mode="normal" in2="shape" result="effect1_innerShadow_6150_39930"/>
        </filter>
        <filter id="filter11_i_6150_39930" x="791" y="399" width="67.0312" height="54" filterUnits="userSpaceOnUse" color-interpolation-filters="sRGB">
            <feFlood flood-opacity="0" result="BackgroundImageFix"/>
            <feBlend mode="normal" in="SourceGraphic" in2="BackgroundImageFix" result="shape"/>
            <feColorMatrix in="SourceAlpha" type="matrix" values="0 0 0 0 0 0 0 0 0 0 0 0 0 0 0 0 0 0 127 0" result="hardAlpha"/>
            <feOffset dx="-8" dy="-4"/>
            <feComposite in2="hardAlpha" operator="arithmetic" k2="-1" k3="1"/>
            <feColorMatrix type="matrix" values="0 0 0 0 0.0666667 0 0 0 0 0.0196078 0 0 0 0 0.160784 0 0 0 0.16 0"/>
            <feBlend mode="normal" in2="shape" result="effect1_innerShadow_6150_39930"/>
        </filter>
        <filter id="filter12_i_6150_39930" x="94.7373" y="241" width="470.263" height="54" filterUnits="userSpaceOnUse" color-interpolation-filters="sRGB">
            <feFlood flood-opacity="0" result="BackgroundImageFix"/>
            <feBlend mode="normal" in="SourceGraphic" in2="BackgroundImageFix" result="shape"/>
            <feColorMatrix in="SourceAlpha" type="matrix" values="0 0 0 0 0 0 0 0 0 0 0 0 0 0 0 0 0 0 127 0" result="hardAlpha"/>
            <feOffset dx="-8" dy="-4"/>
            <feComposite in2="hardAlpha" operator="arithmetic" k2="-1" k3="1"/>
            <feColorMatrix type="matrix" values="0 0 0 0 0.0666667 0 0 0 0 0.0196078 0 0 0 0 0.160784 0 0 0 0.16 0"/>
            <feBlend mode="normal" in2="shape" result="effect1_innerShadow_6150_39930"/>
        </filter>
        <filter id="filter13_i_6150_39930" x="563" y="241" width="32" height="54" filterUnits="userSpaceOnUse" color-interpolation-filters="sRGB">
            <feFlood flood-opacity="0" result="BackgroundImageFix"/>
            <feBlend mode="normal" in="SourceGraphic" in2="BackgroundImageFix" result="shape"/>
            <feColorMatrix in="SourceAlpha" type="matrix" values="0 0 0 0 0 0 0 0 0 0 0 0 0 0 0 0 0 0 127 0" result="hardAlpha"/>
            <feOffset dx="-8" dy="-4"/>
            <feComposite in2="hardAlpha" operator="arithmetic" k2="-1" k3="1"/>
            <feColorMatrix type="matrix" values="0 0 0 0 0.0666667 0 0 0 0 0.0196078 0 0 0 0 0.160784 0 0 0 0.16 0"/>
            <feBlend mode="normal" in2="shape" result="effect1_innerShadow_6150_39930"/>
        </filter>
        <filter id="filter14_i_6150_39930" x="593" y="241" width="134" height="54" filterUnits="userSpaceOnUse" color-interpolation-filters="sRGB">
            <feFlood flood-opacity="0" result="BackgroundImageFix"/>
            <feBlend mode="normal" in="SourceGraphic" in2="BackgroundImageFix" result="shape"/>
            <feColorMatrix in="SourceAlpha" type="matrix" values="0 0 0 0 0 0 0 0 0 0 0 0 0 0 0 0 0 0 127 0" result="hardAlpha"/>
            <feOffset dx="-8" dy="-4"/>
            <feComposite in2="hardAlpha" operator="arithmetic" k2="-1" k3="1"/>
            <feColorMatrix type="matrix" values="0 0 0 0 0.0666667 0 0 0 0 0.0196078 0 0 0 0 0.160784 0 0 0 0.16 0"/>
            <feBlend mode="normal" in2="shape" result="effect1_innerShadow_6150_39930"/>
        </filter>
        <filter id="filter15_i_6150_39930" x="725" y="241" width="67.0312" height="54" filterUnits="userSpaceOnUse" color-interpolation-filters="sRGB">
            <feFlood flood-opacity="0" result="BackgroundImageFix"/>
            <feBlend mode="normal" in="SourceGraphic" in2="BackgroundImageFix" result="shape"/>
            <feColorMatrix in="SourceAlpha" type="matrix" values="0 0 0 0 0 0 0 0 0 0 0 0 0 0 0 0 0 0 127 0" result="hardAlpha"/>
            <feOffset dx="-8" dy="-4"/>
            <feComposite in2="hardAlpha" operator="arithmetic" k2="-1" k3="1"/>
            <feColorMatrix type="matrix" values="0 0 0 0 0.0666667 0 0 0 0 0.0196078 0 0 0 0 0.160784 0 0 0 0.16 0"/>
            <feBlend mode="normal" in2="shape" result="effect1_innerShadow_6150_39930"/>
        </filter>
        <filter id="filter16_i_6150_39930" x="94.7373" y="499" width="470.263" height="54" filterUnits="userSpaceOnUse" color-interpolation-filters="sRGB">
            <feFlood flood-opacity="0" result="BackgroundImageFix"/>
            <feBlend mode="normal" in="SourceGraphic" in2="BackgroundImageFix" result="shape"/>
            <feColorMatrix in="SourceAlpha" type="matrix" values="0 0 0 0 0 0 0 0 0 0 0 0 0 0 0 0 0 0 127 0" result="hardAlpha"/>
            <feOffset dx="-8" dy="-4"/>
            <feComposite in2="hardAlpha" operator="arithmetic" k2="-1" k3="1"/>
            <feColorMatrix type="matrix" values="0 0 0 0 0.0666667 0 0 0 0 0.0196078 0 0 0 0 0.160784 0 0 0 0.16 0"/>
            <feBlend mode="normal" in2="shape" result="effect1_innerShadow_6150_39930"/>
        </filter>
        <filter id="filter17_i_6150_39930" x="563" y="499" width="32" height="54" filterUnits="userSpaceOnUse" color-interpolation-filters="sRGB">
            <feFlood flood-opacity="0" result="BackgroundImageFix"/>
            <feBlend mode="normal" in="SourceGraphic" in2="BackgroundImageFix" result="shape"/>
            <feColorMatrix in="SourceAlpha" type="matrix" values="0 0 0 0 0 0 0 0 0 0 0 0 0 0 0 0 0 0 127 0" result="hardAlpha"/>
            <feOffset dx="-8" dy="-4"/>
            <feComposite in2="hardAlpha" operator="arithmetic" k2="-1" k3="1"/>
            <feColorMatrix type="matrix" values="0 0 0 0 0.0666667 0 0 0 0 0.0196078 0 0 0 0 0.160784 0 0 0 0.16 0"/>
            <feBlend mode="normal" in2="shape" result="effect1_innerShadow_6150_39930"/>
        </filter>
        <filter id="filter18_i_6150_39930" x="593" y="499" width="134" height="54" filterUnits="userSpaceOnUse" color-interpolation-filters="sRGB">
            <feFlood flood-opacity="0" result="BackgroundImageFix"/>
            <feBlend mode="normal" in="SourceGraphic" in2="BackgroundImageFix" result="shape"/>
            <feColorMatrix in="SourceAlpha" type="matrix" values="0 0 0 0 0 0 0 0 0 0 0 0 0 0 0 0 0 0 127 0" result="hardAlpha"/>
            <feOffset dx="-8" dy="-4"/>
            <feComposite in2="hardAlpha" operator="arithmetic" k2="-1" k3="1"/>
            <feColorMatrix type="matrix" values="0 0 0 0 0.0666667 0 0 0 0 0.0196078 0 0 0 0 0.160784 0 0 0 0.16 0"/>
            <feBlend mode="normal" in2="shape" result="effect1_innerShadow_6150_39930"/>
        </filter>
        <filter id="filter19_i_6150_39930" x="725" y="499" width="67.0312" height="54" filterUnits="userSpaceOnUse" color-interpolation-filters="sRGB">
            <feFlood flood-opacity="0" result="BackgroundImageFix"/>
            <feBlend mode="normal" in="SourceGraphic" in2="BackgroundImageFix" result="shape"/>
            <feColorMatrix in="SourceAlpha" type="matrix" values="0 0 0 0 0 0 0 0 0 0 0 0 0 0 0 0 0 0 127 0" result="hardAlpha"/>
            <feOffset dx="-8" dy="-4"/>
            <feComposite in2="hardAlpha" operator="arithmetic" k2="-1" k3="1"/>
            <feColorMatrix type="matrix" values="0 0 0 0 0.0666667 0 0 0 0 0.0196078 0 0 0 0 0.160784 0 0 0 0.16 0"/>
            <feBlend mode="normal" in2="shape" result="effect1_innerShadow_6150_39930"/>
        </filter>
    </defs>
</svg>
