<svg width="960" height="476" viewBox="0 0 960 476" fill="none" xmlns="http://www.w3.org/2000/svg">
    <rect width="960" height="476" fill="white"/>
    <path d="M108.703 37H110.166V32.695H113.834V31.225H110.166V28.383H114.674V26.92H108.703V37ZM115.935 37H117.398V33.381H120.072L121.829 37H123.502L121.598 33.094C122.739 32.597 123.313 31.491 123.313 30.147C123.313 28.516 122.473 27.235 120.786 26.976C120.52 26.934 120.205 26.92 120.009 26.92H115.935V37ZM117.398 31.995V28.299H119.953C120.135 28.299 120.38 28.313 120.59 28.369C121.486 28.579 121.822 29.405 121.822 30.147C121.822 30.889 121.486 31.715 120.59 31.932C120.38 31.981 120.135 31.995 119.953 31.995H117.398ZM124.761 36.993H131.579V35.6H127.022L129.941 32.996C131.033 32.037 131.579 31.407 131.579 30.028C131.579 28.117 130.144 26.71 128.24 26.71C126.231 26.71 124.796 28.047 124.796 30H126.294C126.28 28.985 127.092 28.103 128.212 28.103C129.297 28.103 130.074 28.929 130.074 30.007C130.074 30.581 129.864 31.127 129.157 31.757L124.768 35.691L124.761 36.993Z" fill="#D3D7E0"/>
    <path d="M194 112V24" stroke="#D3D7E0" stroke-width="2" stroke-linecap="square" stroke-dasharray="6 6"/>
    <path d="M254.58 37.21C256.904 37.21 258.465 35.943 259.06 33.955L257.576 33.556C257.177 34.963 256.176 35.817 254.58 35.817C252.438 35.817 251.346 34.27 251.36 31.96C251.367 29.65 252.438 28.103 254.58 28.103C256.176 28.103 257.177 28.957 257.576 30.364L259.06 29.965C258.465 27.977 256.904 26.71 254.58 26.71C251.556 26.71 249.813 28.845 249.813 31.96C249.813 35.075 251.556 37.21 254.58 37.21ZM260.599 37H263.756C263.938 37 264.54 37 265.009 36.937C267.375 36.636 268.635 34.529 268.635 31.96C268.635 29.391 267.375 27.284 265.009 26.983C264.54 26.92 263.938 26.92 263.756 26.92H260.599V37ZM262.097 35.607V28.313H263.756C264.064 28.313 264.568 28.32 264.904 28.383C266.416 28.663 267.081 30.189 267.081 31.96C267.081 33.689 266.444 35.243 264.904 35.537C264.568 35.6 264.078 35.607 263.756 35.607H262.097ZM270.265 37H271.728V33.381H274.402L276.159 37H277.832L275.928 33.094C277.069 32.597 277.643 31.491 277.643 30.147C277.643 28.516 276.803 27.235 275.116 26.976C274.85 26.934 274.535 26.92 274.339 26.92H270.265V37ZM271.728 31.995V28.299H274.283C274.465 28.299 274.71 28.313 274.92 28.369C275.816 28.579 276.152 29.405 276.152 30.147C276.152 30.889 275.816 31.715 274.92 31.932C274.71 31.981 274.465 31.995 274.283 31.995H271.728ZM279.091 36.993H285.909V35.6H281.352L284.271 32.996C285.363 32.037 285.909 31.407 285.909 30.028C285.909 28.117 284.474 26.71 282.57 26.71C280.561 26.71 279.126 28.047 279.126 30H280.624C280.61 28.985 281.422 28.103 282.542 28.103C283.627 28.103 284.404 28.929 284.404 30.007C284.404 30.581 284.194 31.127 283.487 31.757L279.098 35.691L279.091 36.993Z" fill="#D3D7E0"/>
    <path d="M342 112V24" stroke="#D3D7E0" stroke-width="2" stroke-linecap="square" stroke-dasharray="6 6"/>
    <path d="M404.805 37H406.268V32.695H409.936V31.225H406.268V28.383H410.776V26.92H404.805V37ZM412.038 37H413.501V33.381H416.175L417.932 37H419.605L417.701 33.094C418.842 32.597 419.416 31.491 419.416 30.147C419.416 28.516 418.576 27.235 416.889 26.976C416.623 26.934 416.308 26.92 416.112 26.92H412.038V37ZM413.501 31.995V28.299H416.056C416.238 28.299 416.483 28.313 416.693 28.369C417.589 28.579 417.925 29.405 417.925 30.147C417.925 30.889 417.589 31.715 416.693 31.932C416.483 31.981 416.238 31.995 416.056 31.995H413.501ZM423.964 37.189C425.847 37.189 427.331 35.796 427.331 33.871C427.331 32.233 426.323 30.924 424.692 30.707L427.184 28.313V26.92H421.122V28.313H425.392L422.312 31.036L422.998 32.191C423.285 32.037 423.628 31.939 423.95 31.939C425.07 31.939 425.833 32.751 425.833 33.871C425.833 34.984 425.07 35.789 423.964 35.803C423.138 35.81 422.403 35.341 422.137 34.466L420.723 34.858C421.15 36.293 422.466 37.189 423.964 37.189Z" fill="#D3D7E0"/>
    <path d="M490 112V24" stroke="#D3D7E0" stroke-width="2" stroke-linecap="square" stroke-dasharray="6 6"/>
    <path d="M538.682 37.21C541.006 37.21 542.567 35.943 543.162 33.955L541.678 33.556C541.279 34.963 540.278 35.817 538.682 35.817C536.54 35.817 535.448 34.27 535.462 31.96C535.469 29.65 536.54 28.103 538.682 28.103C540.278 28.103 541.279 28.957 541.678 30.364L543.162 29.965C542.567 27.977 541.006 26.71 538.682 26.71C535.658 26.71 533.915 28.845 533.915 31.96C533.915 35.075 535.658 37.21 538.682 37.21ZM544.702 37H547.859C548.041 37 548.643 37 549.112 36.937C551.478 36.636 552.738 34.529 552.738 31.96C552.738 29.391 551.478 27.284 549.112 26.983C548.643 26.92 548.041 26.92 547.859 26.92H544.702V37ZM546.2 35.607V28.313H547.859C548.167 28.313 548.671 28.32 549.007 28.383C550.519 28.663 551.184 30.189 551.184 31.96C551.184 33.689 550.547 35.243 549.007 35.537C548.671 35.6 548.181 35.607 547.859 35.607H546.2ZM554.368 37H555.831V33.381H558.505L560.262 37H561.935L560.031 33.094C561.172 32.597 561.746 31.491 561.746 30.147C561.746 28.516 560.906 27.235 559.219 26.976C558.953 26.934 558.638 26.92 558.442 26.92H554.368V37ZM555.831 31.995V28.299H558.386C558.568 28.299 558.813 28.313 559.023 28.369C559.919 28.579 560.255 29.405 560.255 30.147C560.255 30.889 559.919 31.715 559.023 31.932C558.813 31.981 558.568 31.995 558.386 31.995H555.831ZM566.294 37.189C568.177 37.189 569.661 35.796 569.661 33.871C569.661 32.233 568.653 30.924 567.022 30.707L569.514 28.313V26.92H563.452V28.313H567.722L564.642 31.036L565.328 32.191C565.615 32.037 565.958 31.939 566.28 31.939C567.4 31.939 568.163 32.751 568.163 33.871C568.163 34.984 567.4 35.789 566.294 35.803C565.468 35.81 564.733 35.341 564.467 34.466L563.053 34.858C563.48 36.293 564.796 37.189 566.294 37.189Z" fill="#D3D7E0"/>
    <path d="M612 112V24" stroke="#D3D7E0" stroke-width="2" stroke-linecap="square" stroke-dasharray="6 6"/>
    <path d="M660.593 37H662.056V32.695H665.724V31.225H662.056V28.383H666.564V26.92H660.593V37ZM667.826 37H669.289V33.381H671.963L673.72 37H675.393L673.489 33.094C674.63 32.597 675.204 31.491 675.204 30.147C675.204 28.516 674.364 27.235 672.677 26.976C672.411 26.934 672.096 26.92 671.9 26.92H667.826V37ZM669.289 31.995V28.299H671.844C672.026 28.299 672.271 28.313 672.481 28.369C673.377 28.579 673.713 29.405 673.713 30.147C673.713 30.889 673.377 31.715 672.481 31.932C672.271 31.981 672.026 31.995 671.844 31.995H669.289ZM681.201 37H682.685V35.243H683.686V33.857H682.685V31.127H681.201V33.857H678.324L681.6 26.92H679.927L676.651 33.857V35.243H681.201V37Z" fill="#D3D7E0"/>
    <path d="M732 112V24" stroke="#D3D7E0" stroke-width="2" stroke-linecap="square" stroke-dasharray="6 6"/>
    <g filter="url(#filter0_i_6150_38981)">
        <path d="M101 84H502.4C502.96 84 503.24 84 503.454 84.109C503.642 84.2049 503.795 84.3578 503.891 84.546C504 84.7599 504 85.0399 504 85.6V134.4C504 134.96 504 135.24 503.891 135.454C503.795 135.642 503.642 135.795 503.454 135.891C503.24 136 502.96 136 502.4 136H101L96 129.5L101 123L96 116L101 110L96 103.5L101 97L96 90.5L101 84Z" fill="#99E099"/>
    </g>
    <path d="M101 84H502.4C502.96 84 503.24 84 503.454 84.109C503.642 84.2049 503.795 84.3578 503.891 84.546C504 84.7599 504 85.0399 504 85.6V134.4C504 134.96 504 135.24 503.891 135.454C503.795 135.642 503.642 135.795 503.454 135.891C503.24 136 502.96 136 502.4 136H101L96 129.5L101 123L96 116L101 110L96 103.5L101 97L96 90.5L101 84Z" stroke="#110529" stroke-width="2" stroke-linecap="round"/>
    <path d="M299.258 118H301.738L306.558 103.6H304.708L300.478 116.11L296.288 103.6H294.438L299.258 118Z" fill="#110529"/>
    <g filter="url(#filter1_i_6150_38981)">
        <rect x="504" y="84" width="30" height="52" rx="1" fill="#CBEB67"/>
    </g>
    <rect x="504" y="84" width="30" height="52" rx="1" stroke="#110529" stroke-width="2" stroke-linecap="round"/>
    <g filter="url(#filter2_i_6150_38981)">
        <rect x="570" y="84" width="30" height="52" rx="1" fill="#FAAAFA"/>
    </g>
    <rect x="570" y="84" width="30" height="52" rx="1" stroke="#110529" stroke-width="2" stroke-linecap="round"/>
    <g filter="url(#filter3_i_6150_38981)">
        <rect x="534" y="84" width="36" height="52" rx="1" fill="#FFCB8F"/>
    </g>
    <rect x="534" y="84" width="36" height="52" rx="1" stroke="#110529" stroke-width="2" stroke-linecap="round"/>
    <path d="M513.447 118V103.6H515.247L522.757 114.85V103.6H524.557V118H522.757L515.247 106.74V118H513.447Z" fill="#110529"/>
    <path d="M579.447 118V103.6H581.247L588.757 114.85V103.6H590.557V118H588.757L581.247 106.74V118H579.447Z" fill="#110529"/>
    <path d="M546.593 118V103.6H551.033C551.18 103.6 551.437 103.603 551.803 103.61C552.17 103.617 552.52 103.643 552.853 103.69C553.967 103.837 554.897 104.243 555.643 104.91C556.397 105.57 556.963 106.41 557.343 107.43C557.723 108.45 557.913 109.573 557.913 110.8C557.913 112.027 557.723 113.15 557.343 114.17C556.963 115.19 556.397 116.033 555.643 116.7C554.897 117.36 553.967 117.763 552.853 117.91C552.52 117.95 552.167 117.977 551.793 117.99C551.427 117.997 551.173 118 551.033 118H546.593ZM548.423 116.3H551.033C551.287 116.3 551.57 116.293 551.883 116.28C552.197 116.26 552.47 116.23 552.703 116.19C553.49 116.043 554.127 115.713 554.613 115.2C555.1 114.687 555.457 114.047 555.683 113.28C555.91 112.513 556.023 111.687 556.023 110.8C556.023 109.893 555.907 109.057 555.673 108.29C555.447 107.523 555.09 106.887 554.603 106.38C554.117 105.873 553.483 105.55 552.703 105.41C552.47 105.363 552.193 105.333 551.873 105.32C551.553 105.307 551.273 105.3 551.033 105.3H548.423V116.3Z" fill="#110529"/>
    <g filter="url(#filter4_i_6150_38981)">
        <rect x="600" y="84" width="132" height="52" rx="1" fill="#C1ADFF"/>
        <path d="M665.244 118.29C666.694 118.29 667.954 117.7 668.684 116.43C669.214 115.51 669.154 114.72 669.154 113.48V103.6H667.354V113.48C667.354 114.37 667.354 114.99 667.094 115.51C666.704 116.29 665.884 116.6 665.204 116.6C664.134 116.6 663.224 115.83 663.014 114.85L661.244 115.27C661.754 117.11 663.224 118.29 665.244 118.29Z" fill="#110529"/>
        <rect x="600" y="84" width="132" height="52" rx="1" stroke="#110529" stroke-width="2" stroke-linecap="round"/>
    </g>
    <g filter="url(#filter5_i_6150_38981)">
        <path d="M796 84H733.6C733.04 84 732.76 84 732.546 84.109C732.358 84.2049 732.205 84.3578 732.109 84.546C732 84.7599 732 85.0399 732 85.6V134.4C732 134.96 732 135.24 732.109 135.454C732.205 135.642 732.358 135.795 732.546 135.891C732.76 136 733.04 136 733.6 136H796L791 129.5L796 123L791 116L796 110L791 103.5L796 97L791 90.5L796 84Z" fill="#FAFAAA"/>
    </g>
    <path d="M796 84H733.6C733.04 84 732.76 84 732.546 84.109C732.358 84.2049 732.205 84.3578 732.109 84.546C732 84.7599 732 85.0399 732 85.6V134.4C732 134.96 732 135.24 732.109 135.454C732.205 135.642 732.358 135.795 732.546 135.891C732.76 136 733.04 136 733.6 136H796L791 129.5L796 123L791 116L796 110L791 103.5L796 97L791 90.5L796 84Z" stroke="#110529" stroke-width="2" stroke-linecap="round"/>
    <path d="M764.593 118.3C767.923 118.3 770.113 116.47 770.933 113.61L769.123 113.13C768.533 115.27 767.023 116.6 764.593 116.6C761.373 116.6 759.733 114.25 759.753 110.8C759.773 107.35 761.373 105 764.593 105C767.023 105 768.533 106.33 769.123 108.47L770.933 107.99C770.113 105.13 767.923 103.3 764.593 103.3C760.283 103.3 757.873 106.36 757.873 110.8C757.873 115.24 760.283 118.3 764.593 118.3Z" fill="#110529"/>
    <g filter="url(#filter6_i_6150_38981)">
        <path d="M101 292H502.4C502.96 292 503.24 292 503.454 292.109C503.642 292.205 503.795 292.358 503.891 292.546C504 292.76 504 293.04 504 293.6V342.4C504 342.96 504 343.24 503.891 343.454C503.795 343.642 503.642 343.795 503.454 343.891C503.24 344 502.96 344 502.4 344H101L96 337.5L101 331L96 324L101 318L96 311.5L101 305L96 298.5L101 292Z" fill="#99E099"/>
    </g>
    <path d="M101 292H502.4C502.96 292 503.24 292 503.454 292.109C503.642 292.205 503.795 292.358 503.891 292.546C504 292.76 504 293.04 504 293.6V342.4C504 342.96 504 343.24 503.891 343.454C503.795 343.642 503.642 343.795 503.454 343.891C503.24 344 502.96 344 502.4 344H101L96 337.5L101 331L96 324L101 318L96 311.5L101 305L96 298.5L101 292Z" stroke="#110529" stroke-width="2" stroke-linecap="round"/>
    <path d="M299.258 326H301.738L306.558 311.6H304.708L300.478 324.11L296.288 311.6H294.438L299.258 326Z" fill="#110529"/>
    <g filter="url(#filter7_i_6150_38981)">
        <rect x="504" y="292" width="30" height="52" rx="1" fill="#CBEB67"/>
    </g>
    <rect x="504" y="292" width="30" height="52" rx="1" stroke="#110529" stroke-width="2" stroke-linecap="round"/>
    <path d="M513.447 326H515.247V314.74L522.757 326H524.557V311.6H522.757V322.85L515.247 311.6H513.447V326Z" fill="#110529"/>
    <g filter="url(#filter8_i_6150_38981)">
        <rect x="534" y="292" width="132" height="52" rx="1" fill="#C1ADFF"/>
        <path d="M599.244 326.29C600.694 326.29 601.954 325.7 602.684 324.43C603.214 323.51 603.154 322.72 603.154 321.48V311.6H601.354V321.48C601.354 322.37 601.354 322.99 601.094 323.51C600.704 324.29 599.884 324.6 599.204 324.6C598.134 324.6 597.224 323.83 597.014 322.85L595.244 323.27C595.754 325.11 597.224 326.29 599.244 326.29Z" fill="#110529"/>
        <rect x="534" y="292" width="132" height="52" rx="1" stroke="#110529" stroke-width="2" stroke-linecap="round"/>
    </g>
    <g filter="url(#filter9_i_6150_38981)">
        <path d="M730 292H667.6C667.04 292 666.76 292 666.546 292.109C666.358 292.205 666.205 292.358 666.109 292.546C666 292.76 666 293.04 666 293.6V342.4C666 342.96 666 343.24 666.109 343.454C666.205 343.642 666.358 343.795 666.546 343.891C666.76 344 667.04 344 667.6 344H730L725 337.5L730 331L725 324L730 318L725 311.5L730 305L725 298.5L730 292Z" fill="#FAFAAA"/>
    </g>
    <path d="M730 292H667.6C667.04 292 666.76 292 666.546 292.109C666.358 292.205 666.205 292.358 666.109 292.546C666 292.76 666 293.04 666 293.6V342.4C666 342.96 666 343.24 666.109 343.454C666.205 343.642 666.358 343.795 666.546 343.891C666.76 344 667.04 344 667.6 344H730L725 337.5L730 331L725 324L730 318L725 311.5L730 305L725 298.5L730 292Z" stroke="#110529" stroke-width="2" stroke-linecap="round"/>
    <path d="M698.593 326.3C701.923 326.3 704.113 324.47 704.933 321.61L703.123 321.13C702.533 323.27 701.023 324.6 698.593 324.6C695.373 324.6 693.733 322.25 693.753 318.8C693.773 315.35 695.373 313 698.593 313C701.023 313 702.533 314.33 703.123 316.47L704.933 315.99C704.113 313.13 701.923 311.3 698.593 311.3C694.283 311.3 691.873 314.36 691.873 318.8C691.873 323.24 694.283 326.3 698.593 326.3Z" fill="#110529"/>
    <path d="M32.9984 118H34.7784V103.6H32.9984V118ZM43.6089 118.3C47.8189 118.3 50.0589 115.39 50.0589 111.44C50.0589 111.32 50.0489 110.87 50.0189 110.59H45.0789V112.06H48.1389C47.9189 114.93 46.4789 116.62 43.6989 116.6C40.4789 116.58 38.8489 114.25 38.8689 110.8C38.8889 107.35 40.4789 104.99 43.6989 105.01C45.7489 105.02 47.1389 106.14 47.7489 107.88L49.5489 107.51C48.7989 104.92 46.8289 103.31 43.6089 103.31C39.5789 103.31 36.9789 106.21 36.9789 110.8C36.9789 115.44 39.6389 118.3 43.6089 118.3ZM52.0563 118H53.8363V111.64H61.4163V118H63.1963V103.6H61.4163V109.95H53.8363V103.6H52.0563V118Z" fill="#110529"/>
    <path d="M26.0258 316H27.8058V301.6H26.0258V316ZM36.6363 316.3C40.8463 316.3 43.0863 313.39 43.0863 309.44C43.0863 309.32 43.0763 308.87 43.0463 308.59H38.1063V310.06H41.1662C40.9463 312.93 39.5062 314.62 36.7263 314.6C33.5063 314.58 31.8763 312.25 31.8963 308.8C31.9163 305.35 33.5063 302.99 36.7263 303.01C38.7763 303.02 40.1663 304.14 40.7763 305.88L42.5763 305.51C41.8263 302.92 39.8563 301.31 36.6363 301.31C32.6063 301.31 30.0063 304.21 30.0063 308.8C30.0063 313.44 32.6663 316.3 36.6363 316.3ZM45.0836 316H46.8636V308.96L53.6136 316H55.9136L48.8636 308.59L55.4036 301.6H53.1636L46.8636 308.36V301.6H45.0836V316ZM64.5634 301.6L60.7234 316H62.5334L66.3734 301.6H64.5634ZM34.7953 336H36.5753V321.6H34.7953V336ZM45.4058 336.3C49.6158 336.3 51.8558 333.39 51.8558 329.44C51.8558 329.32 51.8458 328.87 51.8158 328.59H46.8758V330.06H49.9358C49.7158 332.93 48.2758 334.62 45.4958 334.6C42.2758 334.58 40.6458 332.25 40.6658 328.8C40.6858 325.35 42.2758 322.99 45.4958 323.01C47.5458 323.02 48.9358 324.14 49.5458 325.88L51.3458 325.51C50.5958 322.92 48.6258 321.31 45.4058 321.31C41.3758 321.31 38.7758 324.21 38.7758 328.8C38.7758 333.44 41.4358 336.3 45.4058 336.3ZM54.0531 336H62.5131V334.31H55.8331V321.6H54.0531V336Z" fill="#110529"/>
    <path d="M328 160L327.293 160.707L326.586 160L327.293 159.293L328 160ZM335.293 151.293L336 150.586L337.414 152L336.707 152.707L335.293 151.293ZM336.707 167.293L337.414 168L336 169.414L335.293 168.707L336.707 167.293ZM338 161L328 161L328 159L338 159L338 161ZM327.293 159.293L335.293 151.293L336.707 152.707L328.707 160.707L327.293 159.293ZM328.707 159.293L336.707 167.293L335.293 168.707L327.293 160.707L328.707 159.293Z" fill="#110529"/>
    <path d="M521.5 160H338" stroke="#110529" stroke-width="2"/>
    <rect width="57" height="20" transform="translate(521.5 150)" fill="white"/>
    <path d="M526.933 165.992L526.941 164.712L532.053 160.112C532.479 159.728 532.765 159.365 532.909 159.024C533.058 158.677 533.133 158.323 533.133 157.96C533.133 157.517 533.031 157.117 532.829 156.76C532.626 156.403 532.349 156.12 531.997 155.912C531.65 155.704 531.255 155.6 530.813 155.6C530.354 155.6 529.946 155.709 529.589 155.928C529.231 156.141 528.949 156.427 528.741 156.784C528.538 157.141 528.439 157.531 528.445 157.952H526.989C526.989 157.227 527.157 156.587 527.493 156.032C527.829 155.472 528.285 155.035 528.861 154.72C529.442 154.4 530.101 154.24 530.837 154.24C531.551 154.24 532.191 154.405 532.757 154.736C533.322 155.061 533.767 155.507 534.093 156.072C534.423 156.632 534.589 157.267 534.589 157.976C534.589 158.477 534.525 158.912 534.397 159.28C534.274 159.648 534.082 159.989 533.821 160.304C533.559 160.613 533.231 160.944 532.837 161.296L528.589 165.112L528.405 164.632H534.589V165.992H526.933ZM539.911 166.24C539.319 166.24 538.767 166.117 538.255 165.872C537.748 165.627 537.313 165.291 536.951 164.864C536.593 164.432 536.337 163.936 536.183 163.376L537.551 163.008C537.647 163.387 537.817 163.715 538.063 163.992C538.308 164.264 538.593 164.477 538.919 164.632C539.249 164.781 539.593 164.856 539.951 164.856C540.42 164.856 540.841 164.744 541.215 164.52C541.593 164.291 541.892 163.989 542.111 163.616C542.329 163.237 542.439 162.824 542.439 162.376C542.439 161.912 542.324 161.493 542.095 161.12C541.871 160.741 541.569 160.443 541.191 160.224C540.812 160.005 540.399 159.896 539.951 159.896C539.444 159.896 539.009 160.003 538.647 160.216C538.289 160.424 538.007 160.68 537.799 160.984L536.535 160.504L536.887 154.48H543.071V155.832H537.575L538.207 155.24L537.911 160.064L537.599 159.656C537.919 159.315 538.3 159.051 538.743 158.864C539.191 158.677 539.647 158.584 540.111 158.584C540.825 158.584 541.465 158.752 542.031 159.088C542.596 159.419 543.044 159.872 543.375 160.448C543.705 161.019 543.871 161.661 543.871 162.376C543.871 163.085 543.689 163.733 543.327 164.32C542.964 164.901 542.481 165.368 541.879 165.72C541.281 166.067 540.625 166.24 539.911 166.24ZM549.672 166.24C548.925 166.24 548.259 166.072 547.672 165.736C547.091 165.395 546.629 164.933 546.288 164.352C545.952 163.765 545.784 163.099 545.784 162.352V158.128C545.784 157.381 545.952 156.715 546.288 156.128C546.629 155.541 547.091 155.08 547.672 154.744C548.259 154.408 548.925 154.24 549.672 154.24C550.419 154.24 551.085 154.408 551.672 154.744C552.259 155.08 552.72 155.541 553.056 156.128C553.392 156.715 553.56 157.381 553.56 158.128V162.352C553.56 163.099 553.392 163.765 553.056 164.352C552.72 164.933 552.259 165.395 551.672 165.736C551.085 166.072 550.419 166.24 549.672 166.24ZM549.672 164.872C550.125 164.872 550.536 164.763 550.904 164.544C551.272 164.325 551.565 164.032 551.784 163.664C552.003 163.291 552.112 162.88 552.112 162.432V158.04C552.112 157.587 552.003 157.176 551.784 156.808C551.565 156.44 551.272 156.147 550.904 155.928C550.536 155.709 550.125 155.6 549.672 155.6C549.224 155.6 548.813 155.709 548.44 155.928C548.072 156.147 547.779 156.44 547.56 156.808C547.341 157.176 547.232 157.587 547.232 158.04V162.432C547.232 162.88 547.341 163.291 547.56 163.664C547.779 164.032 548.072 164.325 548.44 164.544C548.813 164.763 549.224 164.872 549.672 164.872ZM559.768 166.24C558.957 166.24 558.274 166.04 557.72 165.64C557.165 165.235 556.744 164.688 556.456 164C556.173 163.307 556.032 162.531 556.032 161.672C556.032 160.803 556.173 160.024 556.456 159.336C556.744 158.648 557.165 158.107 557.72 157.712C558.28 157.317 558.965 157.12 559.776 157.12C560.576 157.12 561.264 157.32 561.84 157.72C562.421 158.115 562.866 158.656 563.176 159.344C563.485 160.032 563.64 160.808 563.64 161.672C563.64 162.536 563.485 163.312 563.176 164C562.866 164.688 562.421 165.235 561.84 165.64C561.264 166.04 560.573 166.24 559.768 166.24ZM555.792 166V154.48H557.224V159.64H557.064V166H555.792ZM559.592 164.936C560.162 164.936 560.634 164.792 561.008 164.504C561.381 164.216 561.661 163.827 561.848 163.336C562.034 162.84 562.128 162.285 562.128 161.672C562.128 161.064 562.034 160.515 561.848 160.024C561.666 159.533 561.384 159.144 561 158.856C560.621 158.568 560.138 158.424 559.552 158.424C558.992 158.424 558.528 158.563 558.16 158.84C557.792 159.112 557.517 159.493 557.336 159.984C557.154 160.469 557.064 161.032 557.064 161.672C557.064 162.301 557.152 162.864 557.328 163.36C557.509 163.851 557.786 164.237 558.16 164.52C558.533 164.797 559.01 164.936 559.592 164.936ZM569.361 166.24C568.551 166.24 567.868 166.04 567.313 165.64C566.759 165.235 566.337 164.688 566.049 164C565.767 163.307 565.625 162.531 565.625 161.672C565.625 160.803 565.767 160.024 566.049 159.336C566.337 158.648 566.759 158.107 567.313 157.712C567.873 157.317 568.559 157.12 569.369 157.12C570.169 157.12 570.857 157.32 571.433 157.72C572.015 158.115 572.46 158.656 572.769 159.344C573.079 160.032 573.233 160.808 573.233 161.672C573.233 162.536 573.079 163.312 572.769 164C572.46 164.688 572.015 165.235 571.433 165.64C570.857 166.04 570.167 166.24 569.361 166.24ZM565.385 169.84V157.36H566.657V163.72H566.817V169.84H565.385ZM569.185 164.936C569.756 164.936 570.228 164.792 570.601 164.504C570.975 164.216 571.255 163.827 571.441 163.336C571.628 162.84 571.721 162.285 571.721 161.672C571.721 161.064 571.628 160.515 571.441 160.024C571.26 159.533 570.977 159.144 570.593 158.856C570.215 158.568 569.732 158.424 569.145 158.424C568.585 158.424 568.121 158.563 567.753 158.84C567.385 159.112 567.111 159.493 566.929 159.984C566.748 160.469 566.657 161.032 566.657 161.672C566.657 162.301 566.745 162.864 566.921 163.36C567.103 163.851 567.38 164.237 567.753 164.52C568.127 164.797 568.604 164.936 569.185 164.936Z" fill="#110529"/>
    <path d="M762 160H578.5" stroke="#110529" stroke-width="2"/>
    <path d="M767.28 166V154.48H768.704V164.648H774.048V166H767.28ZM775.401 166V154.48H779.953C780.065 154.48 780.199 154.485 780.353 154.496C780.508 154.501 780.657 154.517 780.801 154.544C781.425 154.64 781.948 154.853 782.369 155.184C782.796 155.515 783.116 155.933 783.329 156.44C783.543 156.941 783.649 157.499 783.649 158.112C783.649 159.003 783.417 159.776 782.953 160.432C782.489 161.083 781.809 161.491 780.913 161.656L780.369 161.744H776.825V166H775.401ZM782.257 166L779.985 161.312L781.393 160.88L783.889 166H782.257ZM776.825 160.392H779.905C780.007 160.392 780.121 160.387 780.249 160.376C780.383 160.365 780.508 160.347 780.625 160.32C780.993 160.235 781.292 160.08 781.521 159.856C781.756 159.627 781.927 159.36 782.033 159.056C782.14 158.747 782.193 158.432 782.193 158.112C782.193 157.792 782.14 157.48 782.033 157.176C781.927 156.867 781.756 156.597 781.521 156.368C781.292 156.139 780.993 155.984 780.625 155.904C780.508 155.872 780.383 155.853 780.249 155.848C780.121 155.837 780.007 155.832 779.905 155.832H776.825V160.392ZM787.659 166V156.056L785.491 157.368V155.776L787.659 154.48H789.107V166H787.659Z" fill="#110529"/>
    <rect x="762" y="148" width="34" height="24" rx="1" stroke="#110529" stroke-width="2"/>
    <path d="M270 368L269.293 368.707L268.586 368L269.293 367.293L270 368ZM277.293 359.293L278 358.586L279.414 360L278.707 360.707L277.293 359.293ZM278.707 375.293L279.414 376L278 377.414L277.293 376.707L278.707 375.293ZM280 369L270 369L270 367L280 367L280 369ZM269.293 367.293L277.293 359.293L278.707 360.707L270.707 368.707L269.293 367.293ZM270.707 367.293L278.707 375.293L277.293 376.707L269.293 368.707L270.707 367.293Z" fill="#110529"/>
    <path d="M459.5 368H280" stroke="#110529" stroke-width="2"/>
    <rect width="57" height="20" transform="translate(459.5 358)" fill="white"/>
    <path d="M464.933 373.992L464.941 372.712L470.053 368.112C470.479 367.728 470.765 367.365 470.909 367.024C471.058 366.677 471.133 366.323 471.133 365.96C471.133 365.517 471.031 365.117 470.829 364.76C470.626 364.403 470.349 364.12 469.997 363.912C469.65 363.704 469.255 363.6 468.813 363.6C468.354 363.6 467.946 363.709 467.589 363.928C467.231 364.141 466.949 364.427 466.741 364.784C466.538 365.141 466.439 365.531 466.445 365.952H464.989C464.989 365.227 465.157 364.587 465.493 364.032C465.829 363.472 466.285 363.035 466.861 362.72C467.442 362.4 468.101 362.24 468.837 362.24C469.551 362.24 470.191 362.405 470.757 362.736C471.322 363.061 471.767 363.507 472.093 364.072C472.423 364.632 472.589 365.267 472.589 365.976C472.589 366.477 472.525 366.912 472.397 367.28C472.274 367.648 472.082 367.989 471.821 368.304C471.559 368.613 471.231 368.944 470.837 369.296L466.589 373.112L466.405 372.632H472.589V373.992H464.933ZM477.911 374.24C477.319 374.24 476.767 374.117 476.255 373.872C475.748 373.627 475.313 373.291 474.951 372.864C474.593 372.432 474.337 371.936 474.183 371.376L475.551 371.008C475.647 371.387 475.817 371.715 476.063 371.992C476.308 372.264 476.593 372.477 476.919 372.632C477.249 372.781 477.593 372.856 477.951 372.856C478.42 372.856 478.841 372.744 479.215 372.52C479.593 372.291 479.892 371.989 480.111 371.616C480.329 371.237 480.439 370.824 480.439 370.376C480.439 369.912 480.324 369.493 480.095 369.12C479.871 368.741 479.569 368.443 479.191 368.224C478.812 368.005 478.399 367.896 477.951 367.896C477.444 367.896 477.009 368.003 476.647 368.216C476.289 368.424 476.007 368.68 475.799 368.984L474.535 368.504L474.887 362.48H481.071V363.832H475.575L476.207 363.24L475.911 368.064L475.599 367.656C475.919 367.315 476.3 367.051 476.743 366.864C477.191 366.677 477.647 366.584 478.111 366.584C478.825 366.584 479.465 366.752 480.031 367.088C480.596 367.419 481.044 367.872 481.375 368.448C481.705 369.019 481.871 369.661 481.871 370.376C481.871 371.085 481.689 371.733 481.327 372.32C480.964 372.901 480.481 373.368 479.879 373.72C479.281 374.067 478.625 374.24 477.911 374.24ZM487.672 374.24C486.925 374.24 486.259 374.072 485.672 373.736C485.091 373.395 484.629 372.933 484.288 372.352C483.952 371.765 483.784 371.099 483.784 370.352V366.128C483.784 365.381 483.952 364.715 484.288 364.128C484.629 363.541 485.091 363.08 485.672 362.744C486.259 362.408 486.925 362.24 487.672 362.24C488.419 362.24 489.085 362.408 489.672 362.744C490.259 363.08 490.72 363.541 491.056 364.128C491.392 364.715 491.56 365.381 491.56 366.128V370.352C491.56 371.099 491.392 371.765 491.056 372.352C490.72 372.933 490.259 373.395 489.672 373.736C489.085 374.072 488.419 374.24 487.672 374.24ZM487.672 372.872C488.125 372.872 488.536 372.763 488.904 372.544C489.272 372.325 489.565 372.032 489.784 371.664C490.003 371.291 490.112 370.88 490.112 370.432V366.04C490.112 365.587 490.003 365.176 489.784 364.808C489.565 364.44 489.272 364.147 488.904 363.928C488.536 363.709 488.125 363.6 487.672 363.6C487.224 363.6 486.813 363.709 486.44 363.928C486.072 364.147 485.779 364.44 485.56 364.808C485.341 365.176 485.232 365.587 485.232 366.04V370.432C485.232 370.88 485.341 371.291 485.56 371.664C485.779 372.032 486.072 372.325 486.44 372.544C486.813 372.763 487.224 372.872 487.672 372.872ZM497.768 374.24C496.957 374.24 496.274 374.04 495.72 373.64C495.165 373.235 494.744 372.688 494.456 372C494.173 371.307 494.032 370.531 494.032 369.672C494.032 368.803 494.173 368.024 494.456 367.336C494.744 366.648 495.165 366.107 495.72 365.712C496.28 365.317 496.965 365.12 497.776 365.12C498.576 365.12 499.264 365.32 499.84 365.72C500.421 366.115 500.866 366.656 501.176 367.344C501.485 368.032 501.64 368.808 501.64 369.672C501.64 370.536 501.485 371.312 501.176 372C500.866 372.688 500.421 373.235 499.84 373.64C499.264 374.04 498.573 374.24 497.768 374.24ZM493.792 374V362.48H495.224V367.64H495.064V374H493.792ZM497.592 372.936C498.162 372.936 498.634 372.792 499.008 372.504C499.381 372.216 499.661 371.827 499.848 371.336C500.034 370.84 500.128 370.285 500.128 369.672C500.128 369.064 500.034 368.515 499.848 368.024C499.666 367.533 499.384 367.144 499 366.856C498.621 366.568 498.138 366.424 497.552 366.424C496.992 366.424 496.528 366.563 496.16 366.84C495.792 367.112 495.517 367.493 495.336 367.984C495.154 368.469 495.064 369.032 495.064 369.672C495.064 370.301 495.152 370.864 495.328 371.36C495.509 371.851 495.786 372.237 496.16 372.52C496.533 372.797 497.01 372.936 497.592 372.936ZM507.361 374.24C506.551 374.24 505.868 374.04 505.313 373.64C504.759 373.235 504.337 372.688 504.049 372C503.767 371.307 503.625 370.531 503.625 369.672C503.625 368.803 503.767 368.024 504.049 367.336C504.337 366.648 504.759 366.107 505.313 365.712C505.873 365.317 506.559 365.12 507.369 365.12C508.169 365.12 508.857 365.32 509.433 365.72C510.015 366.115 510.46 366.656 510.769 367.344C511.079 368.032 511.233 368.808 511.233 369.672C511.233 370.536 511.079 371.312 510.769 372C510.46 372.688 510.015 373.235 509.433 373.64C508.857 374.04 508.167 374.24 507.361 374.24ZM503.385 377.84V365.36H504.657V371.72H504.817V377.84H503.385ZM507.185 372.936C507.756 372.936 508.228 372.792 508.601 372.504C508.975 372.216 509.255 371.827 509.441 371.336C509.628 370.84 509.721 370.285 509.721 369.672C509.721 369.064 509.628 368.515 509.441 368.024C509.26 367.533 508.977 367.144 508.593 366.856C508.215 366.568 507.732 366.424 507.145 366.424C506.585 366.424 506.121 366.563 505.753 366.84C505.385 367.112 505.111 367.493 504.929 367.984C504.748 368.469 504.657 369.032 504.657 369.672C504.657 370.301 504.745 370.864 504.921 371.36C505.103 371.851 505.38 372.237 505.753 372.52C506.127 372.797 506.604 372.936 507.185 372.936Z" fill="#110529"/>
    <path d="M696 368H516.5" stroke="#110529" stroke-width="2"/>
    <path d="M701.28 374V362.48H702.704V372.648H708.048V374H701.28ZM709.401 374V362.48H713.953C714.065 362.48 714.199 362.485 714.353 362.496C714.508 362.501 714.657 362.517 714.801 362.544C715.425 362.64 715.948 362.853 716.369 363.184C716.796 363.515 717.116 363.933 717.329 364.44C717.543 364.941 717.649 365.499 717.649 366.112C717.649 367.003 717.417 367.776 716.953 368.432C716.489 369.083 715.809 369.491 714.913 369.656L714.369 369.744H710.825V374H709.401ZM716.257 374L713.985 369.312L715.393 368.88L717.889 374H716.257ZM710.825 368.392H713.905C714.007 368.392 714.121 368.387 714.249 368.376C714.383 368.365 714.508 368.347 714.625 368.32C714.993 368.235 715.292 368.08 715.521 367.856C715.756 367.627 715.927 367.36 716.033 367.056C716.14 366.747 716.193 366.432 716.193 366.112C716.193 365.792 716.14 365.48 716.033 365.176C715.927 364.867 715.756 364.597 715.521 364.368C715.292 364.139 714.993 363.984 714.625 363.904C714.508 363.872 714.383 363.853 714.249 363.848C714.121 363.837 714.007 363.832 713.905 363.832H710.825V368.392ZM721.659 374V364.056L719.491 365.368V363.776L721.659 362.48H723.107V374H721.659Z" fill="#110529"/>
    <rect x="696" y="356" width="34" height="24" rx="1" stroke="#110529" stroke-width="2"/>
    <path d="M435 208L434.293 208.707L433.586 208L434.293 207.293L435 208ZM442.293 199.293L443 198.586L444.414 200L443.707 200.707L442.293 199.293ZM443.707 215.293L444.414 216L443 217.414L442.293 216.707L443.707 215.293ZM445 209L435 209L435 207L445 207L445 209ZM434.293 207.293L442.293 199.293L443.707 200.707L435.707 208.707L434.293 207.293ZM435.707 207.293L443.707 215.293L442.293 216.707L434.293 208.707L435.707 207.293Z" fill="#110529"/>
    <path d="M574.5 208H445" stroke="#110529" stroke-width="2"/>
    <rect width="57" height="20" transform="translate(574.5 198)" fill="white"/>
    <path d="M583.269 214V204.056L581.101 205.368V203.776L583.269 202.48H584.717V214H583.269ZM591.649 214.24C590.902 214.24 590.235 214.072 589.649 213.736C589.067 213.395 588.606 212.933 588.265 212.352C587.929 211.765 587.761 211.099 587.761 210.352V206.128C587.761 205.381 587.929 204.715 588.265 204.128C588.606 203.541 589.067 203.08 589.649 202.744C590.235 202.408 590.902 202.24 591.649 202.24C592.395 202.24 593.062 202.408 593.649 202.744C594.235 203.08 594.697 203.541 595.033 204.128C595.369 204.715 595.537 205.381 595.537 206.128V210.352C595.537 211.099 595.369 211.765 595.033 212.352C594.697 212.933 594.235 213.395 593.649 213.736C593.062 214.072 592.395 214.24 591.649 214.24ZM591.649 212.872C592.102 212.872 592.513 212.763 592.881 212.544C593.249 212.325 593.542 212.032 593.761 211.664C593.979 211.291 594.089 210.88 594.089 210.432V206.04C594.089 205.587 593.979 205.176 593.761 204.808C593.542 204.44 593.249 204.147 592.881 203.928C592.513 203.709 592.102 203.6 591.649 203.6C591.201 203.6 590.79 203.709 590.417 203.928C590.049 204.147 589.755 204.44 589.537 204.808C589.318 205.176 589.209 205.587 589.209 206.04V210.432C589.209 210.88 589.318 211.291 589.537 211.664C589.755 212.032 590.049 212.325 590.417 212.544C590.79 212.763 591.201 212.872 591.649 212.872ZM601.664 214.24C600.918 214.24 600.251 214.072 599.664 213.736C599.083 213.395 598.622 212.933 598.28 212.352C597.944 211.765 597.776 211.099 597.776 210.352V206.128C597.776 205.381 597.944 204.715 598.28 204.128C598.622 203.541 599.083 203.08 599.664 202.744C600.251 202.408 600.918 202.24 601.664 202.24C602.411 202.24 603.078 202.408 603.664 202.744C604.251 203.08 604.712 203.541 605.048 204.128C605.384 204.715 605.552 205.381 605.552 206.128V210.352C605.552 211.099 605.384 211.765 605.048 212.352C604.712 212.933 604.251 213.395 603.664 213.736C603.078 214.072 602.411 214.24 601.664 214.24ZM601.664 212.872C602.118 212.872 602.528 212.763 602.896 212.544C603.264 212.325 603.558 212.032 603.776 211.664C603.995 211.291 604.104 210.88 604.104 210.432V206.04C604.104 205.587 603.995 205.176 603.776 204.808C603.558 204.44 603.264 204.147 602.896 203.928C602.528 203.709 602.118 203.6 601.664 203.6C601.216 203.6 600.806 203.709 600.432 203.928C600.064 204.147 599.771 204.44 599.552 204.808C599.334 205.176 599.224 205.587 599.224 206.04V210.432C599.224 210.88 599.334 211.291 599.552 211.664C599.771 212.032 600.064 212.325 600.432 212.544C600.806 212.763 601.216 212.872 601.664 212.872ZM611.76 214.24C610.949 214.24 610.267 214.04 609.712 213.64C609.157 213.235 608.736 212.688 608.448 212C608.165 211.307 608.024 210.531 608.024 209.672C608.024 208.803 608.165 208.024 608.448 207.336C608.736 206.648 609.157 206.107 609.712 205.712C610.272 205.317 610.957 205.12 611.768 205.12C612.568 205.12 613.256 205.32 613.832 205.72C614.413 206.115 614.859 206.656 615.168 207.344C615.477 208.032 615.632 208.808 615.632 209.672C615.632 210.536 615.477 211.312 615.168 212C614.859 212.688 614.413 213.235 613.832 213.64C613.256 214.04 612.565 214.24 611.76 214.24ZM607.784 214V202.48H609.216V207.64H609.056V214H607.784ZM611.584 212.936C612.155 212.936 612.627 212.792 613 212.504C613.373 212.216 613.653 211.827 613.84 211.336C614.027 210.84 614.12 210.285 614.12 209.672C614.12 209.064 614.027 208.515 613.84 208.024C613.659 207.533 613.376 207.144 612.992 206.856C612.613 206.568 612.131 206.424 611.544 206.424C610.984 206.424 610.52 206.563 610.152 206.84C609.784 207.112 609.509 207.493 609.328 207.984C609.147 208.469 609.056 209.032 609.056 209.672C609.056 210.301 609.144 210.864 609.32 211.36C609.501 211.851 609.779 212.237 610.152 212.52C610.525 212.797 611.003 212.936 611.584 212.936ZM621.354 214.24C620.543 214.24 619.86 214.04 619.306 213.64C618.751 213.235 618.33 212.688 618.042 212C617.759 211.307 617.618 210.531 617.618 209.672C617.618 208.803 617.759 208.024 618.042 207.336C618.33 206.648 618.751 206.107 619.306 205.712C619.866 205.317 620.551 205.12 621.362 205.12C622.162 205.12 622.85 205.32 623.426 205.72C624.007 206.115 624.452 206.656 624.762 207.344C625.071 208.032 625.226 208.808 625.226 209.672C625.226 210.536 625.071 211.312 624.762 212C624.452 212.688 624.007 213.235 623.426 213.64C622.85 214.04 622.159 214.24 621.354 214.24ZM617.378 217.84V205.36H618.65V211.72H618.81V217.84H617.378ZM621.178 212.936C621.748 212.936 622.22 212.792 622.594 212.504C622.967 212.216 623.247 211.827 623.434 211.336C623.62 210.84 623.714 210.285 623.714 209.672C623.714 209.064 623.62 208.515 623.434 208.024C623.252 207.533 622.97 207.144 622.586 206.856C622.207 206.568 621.724 206.424 621.138 206.424C620.578 206.424 620.114 206.563 619.746 206.84C619.378 207.112 619.103 207.493 618.922 207.984C618.74 208.469 618.65 209.032 618.65 209.672C618.65 210.301 618.738 210.864 618.914 211.36C619.095 211.851 619.372 212.237 619.746 212.52C620.119 212.797 620.596 212.936 621.178 212.936Z" fill="#110529"/>
    <path d="M761 208H631.5" stroke="#110529" stroke-width="2"/>
    <path d="M770.208 214.24C769.392 214.24 768.656 214.101 768 213.824C767.349 213.547 766.811 213.152 766.384 212.64C765.963 212.123 765.688 211.512 765.56 210.808L767.032 210.576C767.219 211.301 767.605 211.869 768.192 212.28C768.784 212.685 769.48 212.888 770.28 212.888C770.797 212.888 771.264 212.808 771.68 212.648C772.101 212.483 772.435 212.248 772.68 211.944C772.925 211.64 773.048 211.28 773.048 210.864C773.048 210.608 773.003 210.389 772.912 210.208C772.827 210.021 772.707 209.864 772.552 209.736C772.403 209.603 772.232 209.491 772.04 209.4C771.848 209.309 771.648 209.235 771.44 209.176L768.504 208.304C768.184 208.208 767.875 208.088 767.576 207.944C767.277 207.795 767.011 207.611 766.776 207.392C766.541 207.168 766.355 206.901 766.216 206.592C766.077 206.277 766.008 205.907 766.008 205.48C766.008 204.797 766.184 204.216 766.536 203.736C766.893 203.251 767.376 202.88 767.984 202.624C768.592 202.368 769.277 202.243 770.04 202.248C770.813 202.253 771.504 202.392 772.112 202.664C772.725 202.931 773.232 203.315 773.632 203.816C774.037 204.317 774.309 204.917 774.448 205.616L772.936 205.88C772.856 205.411 772.677 205.008 772.4 204.672C772.128 204.331 771.787 204.069 771.376 203.888C770.965 203.701 770.515 203.605 770.024 203.6C769.555 203.595 769.131 203.669 768.752 203.824C768.373 203.979 768.072 204.195 767.848 204.472C767.624 204.744 767.512 205.059 767.512 205.416C767.512 205.768 767.613 206.053 767.816 206.272C768.019 206.485 768.267 206.656 768.56 206.784C768.859 206.907 769.149 207.008 769.432 207.088L771.624 207.72C771.875 207.789 772.163 207.885 772.488 208.008C772.819 208.131 773.139 208.304 773.448 208.528C773.757 208.747 774.013 209.04 774.216 209.408C774.419 209.771 774.52 210.229 774.52 210.784C774.52 211.339 774.408 211.832 774.184 212.264C773.965 212.696 773.659 213.059 773.264 213.352C772.869 213.64 772.411 213.859 771.888 214.008C771.365 214.163 770.805 214.24 770.208 214.24ZM776.198 214V202.48H780.75C780.862 202.48 780.995 202.485 781.15 202.496C781.305 202.501 781.454 202.517 781.598 202.544C782.222 202.64 782.745 202.853 783.166 203.184C783.593 203.515 783.913 203.933 784.126 204.44C784.339 204.941 784.446 205.499 784.446 206.112C784.446 207.003 784.214 207.776 783.75 208.432C783.286 209.083 782.606 209.491 781.71 209.656L781.166 209.744H777.622V214H776.198ZM783.054 214L780.782 209.312L782.19 208.88L784.686 214H783.054ZM777.622 208.392H780.702C780.803 208.392 780.918 208.387 781.046 208.376C781.179 208.365 781.305 208.347 781.422 208.32C781.79 208.235 782.089 208.08 782.318 207.856C782.553 207.627 782.723 207.36 782.83 207.056C782.937 206.747 782.99 206.432 782.99 206.112C782.99 205.792 782.937 205.48 782.83 205.176C782.723 204.867 782.553 204.597 782.318 204.368C782.089 204.139 781.79 203.984 781.422 203.904C781.305 203.872 781.179 203.853 781.046 203.848C780.918 203.837 780.803 203.832 780.702 203.832H777.622V208.392ZM788.456 214V204.056L786.288 205.368V203.776L788.456 202.48H789.904V214H788.456Z" fill="#110529"/>
    <rect x="761" y="196" width="35" height="24" rx="1" stroke="#110529" stroke-width="2"/>
    <path d="M401 416L400.293 416.707L399.586 416L400.293 415.293L401 416ZM408.293 407.293L409 406.586L410.414 408L409.707 408.707L408.293 407.293ZM409.707 423.293L410.414 424L409 425.414L408.293 424.707L409.707 423.293ZM411 417L401 417L401 415L411 415L411 417ZM400.293 415.293L408.293 407.293L409.707 408.707L401.707 416.707L400.293 415.293ZM401.707 415.293L409.707 423.293L408.293 424.707L400.293 416.707L401.707 415.293Z" fill="#110529"/>
    <path d="M524.5 416H411" stroke="#110529" stroke-width="2"/>
    <rect width="57" height="20" transform="translate(524.5 406)" fill="white"/>
    <path d="M533.269 422V412.056L531.101 413.368V411.776L533.269 410.48H534.717V422H533.269ZM541.649 422.24C540.902 422.24 540.235 422.072 539.649 421.736C539.067 421.395 538.606 420.933 538.265 420.352C537.929 419.765 537.761 419.099 537.761 418.352V414.128C537.761 413.381 537.929 412.715 538.265 412.128C538.606 411.541 539.067 411.08 539.649 410.744C540.235 410.408 540.902 410.24 541.649 410.24C542.395 410.24 543.062 410.408 543.649 410.744C544.235 411.08 544.697 411.541 545.033 412.128C545.369 412.715 545.537 413.381 545.537 414.128V418.352C545.537 419.099 545.369 419.765 545.033 420.352C544.697 420.933 544.235 421.395 543.649 421.736C543.062 422.072 542.395 422.24 541.649 422.24ZM541.649 420.872C542.102 420.872 542.513 420.763 542.881 420.544C543.249 420.325 543.542 420.032 543.761 419.664C543.979 419.291 544.089 418.88 544.089 418.432V414.04C544.089 413.587 543.979 413.176 543.761 412.808C543.542 412.44 543.249 412.147 542.881 411.928C542.513 411.709 542.102 411.6 541.649 411.6C541.201 411.6 540.79 411.709 540.417 411.928C540.049 412.147 539.755 412.44 539.537 412.808C539.318 413.176 539.209 413.587 539.209 414.04V418.432C539.209 418.88 539.318 419.291 539.537 419.664C539.755 420.032 540.049 420.325 540.417 420.544C540.79 420.763 541.201 420.872 541.649 420.872ZM551.664 422.24C550.918 422.24 550.251 422.072 549.664 421.736C549.083 421.395 548.622 420.933 548.28 420.352C547.944 419.765 547.776 419.099 547.776 418.352V414.128C547.776 413.381 547.944 412.715 548.28 412.128C548.622 411.541 549.083 411.08 549.664 410.744C550.251 410.408 550.918 410.24 551.664 410.24C552.411 410.24 553.078 410.408 553.664 410.744C554.251 411.08 554.712 411.541 555.048 412.128C555.384 412.715 555.552 413.381 555.552 414.128V418.352C555.552 419.099 555.384 419.765 555.048 420.352C554.712 420.933 554.251 421.395 553.664 421.736C553.078 422.072 552.411 422.24 551.664 422.24ZM551.664 420.872C552.118 420.872 552.528 420.763 552.896 420.544C553.264 420.325 553.558 420.032 553.776 419.664C553.995 419.291 554.104 418.88 554.104 418.432V414.04C554.104 413.587 553.995 413.176 553.776 412.808C553.558 412.44 553.264 412.147 552.896 411.928C552.528 411.709 552.118 411.6 551.664 411.6C551.216 411.6 550.806 411.709 550.432 411.928C550.064 412.147 549.771 412.44 549.552 412.808C549.334 413.176 549.224 413.587 549.224 414.04V418.432C549.224 418.88 549.334 419.291 549.552 419.664C549.771 420.032 550.064 420.325 550.432 420.544C550.806 420.763 551.216 420.872 551.664 420.872ZM561.76 422.24C560.949 422.24 560.267 422.04 559.712 421.64C559.157 421.235 558.736 420.688 558.448 420C558.165 419.307 558.024 418.531 558.024 417.672C558.024 416.803 558.165 416.024 558.448 415.336C558.736 414.648 559.157 414.107 559.712 413.712C560.272 413.317 560.957 413.12 561.768 413.12C562.568 413.12 563.256 413.32 563.832 413.72C564.413 414.115 564.859 414.656 565.168 415.344C565.477 416.032 565.632 416.808 565.632 417.672C565.632 418.536 565.477 419.312 565.168 420C564.859 420.688 564.413 421.235 563.832 421.64C563.256 422.04 562.565 422.24 561.76 422.24ZM557.784 422V410.48H559.216V415.64H559.056V422H557.784ZM561.584 420.936C562.155 420.936 562.627 420.792 563 420.504C563.373 420.216 563.653 419.827 563.84 419.336C564.027 418.84 564.12 418.285 564.12 417.672C564.12 417.064 564.027 416.515 563.84 416.024C563.659 415.533 563.376 415.144 562.992 414.856C562.613 414.568 562.131 414.424 561.544 414.424C560.984 414.424 560.52 414.563 560.152 414.84C559.784 415.112 559.509 415.493 559.328 415.984C559.147 416.469 559.056 417.032 559.056 417.672C559.056 418.301 559.144 418.864 559.32 419.36C559.501 419.851 559.779 420.237 560.152 420.52C560.525 420.797 561.003 420.936 561.584 420.936ZM571.354 422.24C570.543 422.24 569.86 422.04 569.306 421.64C568.751 421.235 568.33 420.688 568.042 420C567.759 419.307 567.618 418.531 567.618 417.672C567.618 416.803 567.759 416.024 568.042 415.336C568.33 414.648 568.751 414.107 569.306 413.712C569.866 413.317 570.551 413.12 571.362 413.12C572.162 413.12 572.85 413.32 573.426 413.72C574.007 414.115 574.452 414.656 574.762 415.344C575.071 416.032 575.226 416.808 575.226 417.672C575.226 418.536 575.071 419.312 574.762 420C574.452 420.688 574.007 421.235 573.426 421.64C572.85 422.04 572.159 422.24 571.354 422.24ZM567.378 425.84V413.36H568.65V419.72H568.81V425.84H567.378ZM571.178 420.936C571.748 420.936 572.22 420.792 572.594 420.504C572.967 420.216 573.247 419.827 573.434 419.336C573.62 418.84 573.714 418.285 573.714 417.672C573.714 417.064 573.62 416.515 573.434 416.024C573.252 415.533 572.97 415.144 572.586 414.856C572.207 414.568 571.724 414.424 571.138 414.424C570.578 414.424 570.114 414.563 569.746 414.84C569.378 415.112 569.103 415.493 568.922 415.984C568.74 416.469 568.65 417.032 568.65 417.672C568.65 418.301 568.738 418.864 568.914 419.36C569.095 419.851 569.372 420.237 569.746 420.52C570.119 420.797 570.596 420.936 571.178 420.936Z" fill="#110529"/>
    <path d="M695 416H581.5" stroke="#110529" stroke-width="2"/>
    <path d="M704.208 422.24C703.392 422.24 702.656 422.101 702 421.824C701.349 421.547 700.811 421.152 700.384 420.64C699.963 420.123 699.688 419.512 699.56 418.808L701.032 418.576C701.219 419.301 701.605 419.869 702.192 420.28C702.784 420.685 703.48 420.888 704.28 420.888C704.797 420.888 705.264 420.808 705.68 420.648C706.101 420.483 706.435 420.248 706.68 419.944C706.925 419.64 707.048 419.28 707.048 418.864C707.048 418.608 707.003 418.389 706.912 418.208C706.827 418.021 706.707 417.864 706.552 417.736C706.403 417.603 706.232 417.491 706.04 417.4C705.848 417.309 705.648 417.235 705.44 417.176L702.504 416.304C702.184 416.208 701.875 416.088 701.576 415.944C701.277 415.795 701.011 415.611 700.776 415.392C700.541 415.168 700.355 414.901 700.216 414.592C700.077 414.277 700.008 413.907 700.008 413.48C700.008 412.797 700.184 412.216 700.536 411.736C700.893 411.251 701.376 410.88 701.984 410.624C702.592 410.368 703.277 410.243 704.04 410.248C704.813 410.253 705.504 410.392 706.112 410.664C706.725 410.931 707.232 411.315 707.632 411.816C708.037 412.317 708.309 412.917 708.448 413.616L706.936 413.88C706.856 413.411 706.677 413.008 706.4 412.672C706.128 412.331 705.787 412.069 705.376 411.888C704.965 411.701 704.515 411.605 704.024 411.6C703.555 411.595 703.131 411.669 702.752 411.824C702.373 411.979 702.072 412.195 701.848 412.472C701.624 412.744 701.512 413.059 701.512 413.416C701.512 413.768 701.613 414.053 701.816 414.272C702.019 414.485 702.267 414.656 702.56 414.784C702.859 414.907 703.149 415.008 703.432 415.088L705.624 415.72C705.875 415.789 706.163 415.885 706.488 416.008C706.819 416.131 707.139 416.304 707.448 416.528C707.757 416.747 708.013 417.04 708.216 417.408C708.419 417.771 708.52 418.229 708.52 418.784C708.52 419.339 708.408 419.832 708.184 420.264C707.965 420.696 707.659 421.059 707.264 421.352C706.869 421.64 706.411 421.859 705.888 422.008C705.365 422.163 704.805 422.24 704.208 422.24ZM710.198 422V410.48H714.75C714.862 410.48 714.995 410.485 715.15 410.496C715.305 410.501 715.454 410.517 715.598 410.544C716.222 410.64 716.745 410.853 717.166 411.184C717.593 411.515 717.913 411.933 718.126 412.44C718.339 412.941 718.446 413.499 718.446 414.112C718.446 415.003 718.214 415.776 717.75 416.432C717.286 417.083 716.606 417.491 715.71 417.656L715.166 417.744H711.622V422H710.198ZM717.054 422L714.782 417.312L716.19 416.88L718.686 422H717.054ZM711.622 416.392H714.702C714.803 416.392 714.918 416.387 715.046 416.376C715.179 416.365 715.305 416.347 715.422 416.32C715.79 416.235 716.089 416.08 716.318 415.856C716.553 415.627 716.723 415.36 716.83 415.056C716.937 414.747 716.99 414.432 716.99 414.112C716.99 413.792 716.937 413.48 716.83 413.176C716.723 412.867 716.553 412.597 716.318 412.368C716.089 412.139 715.79 411.984 715.422 411.904C715.305 411.872 715.179 411.853 715.046 411.848C714.918 411.837 714.803 411.832 714.702 411.832H711.622V416.392ZM722.456 422V412.056L720.288 413.368V411.776L722.456 410.48H723.904V422H722.456Z" fill="#110529"/>
    <rect x="695" y="404" width="35" height="24" rx="1" stroke="#110529" stroke-width="2"/>
    <path d="M101.28 190V178.48H102.704V188.648H108.048V190H101.28ZM109.401 190V178.48H113.953C114.065 178.48 114.199 178.485 114.353 178.496C114.508 178.501 114.657 178.517 114.801 178.544C115.425 178.64 115.948 178.853 116.369 179.184C116.796 179.515 117.116 179.933 117.329 180.44C117.543 180.941 117.649 181.499 117.649 182.112C117.649 183.003 117.417 183.776 116.953 184.432C116.489 185.083 115.809 185.491 114.913 185.656L114.369 185.744H110.825V190H109.401ZM116.257 190L113.985 185.312L115.393 184.88L117.889 190H116.257ZM110.825 184.392H113.905C114.007 184.392 114.121 184.387 114.249 184.376C114.383 184.365 114.508 184.347 114.625 184.32C114.993 184.235 115.292 184.08 115.521 183.856C115.756 183.627 115.927 183.36 116.033 183.056C116.14 182.747 116.193 182.432 116.193 182.112C116.193 181.792 116.14 181.48 116.033 181.176C115.927 180.867 115.756 180.597 115.521 180.368C115.292 180.139 114.993 179.984 114.625 179.904C114.508 179.872 114.383 179.853 114.249 179.848C114.121 179.837 114.007 179.832 113.905 179.832H110.825V184.392ZM119.331 189.992L119.339 188.712L124.451 184.112C124.878 183.728 125.163 183.365 125.307 183.024C125.457 182.677 125.531 182.323 125.531 181.96C125.531 181.517 125.43 181.117 125.227 180.76C125.025 180.403 124.747 180.12 124.395 179.912C124.049 179.704 123.654 179.6 123.211 179.6C122.753 179.6 122.345 179.709 121.987 179.928C121.63 180.141 121.347 180.427 121.139 180.784C120.937 181.141 120.838 181.531 120.843 181.952H119.387C119.387 181.227 119.555 180.587 119.891 180.032C120.227 179.472 120.683 179.035 121.259 178.72C121.841 178.4 122.499 178.24 123.235 178.24C123.95 178.24 124.59 178.405 125.155 178.736C125.721 179.061 126.166 179.507 126.491 180.072C126.822 180.632 126.987 181.267 126.987 181.976C126.987 182.477 126.923 182.912 126.795 183.28C126.673 183.648 126.481 183.989 126.219 184.304C125.958 184.613 125.63 184.944 125.235 185.296L120.987 189.112L120.803 188.632H126.987V189.992H119.331Z" fill="#110529"/>
    <rect x="96" y="172" width="36" height="24" rx="1" stroke="#110529" stroke-width="2"/>
    <path d="M341 184H132" stroke="#110529" stroke-width="2"/>
    <rect width="56" height="20" transform="translate(341 174)" fill="white"/>
    <path d="M345.933 189.992L345.941 188.712L351.053 184.112C351.479 183.728 351.765 183.365 351.909 183.024C352.058 182.677 352.133 182.323 352.133 181.96C352.133 181.517 352.031 181.117 351.829 180.76C351.626 180.403 351.349 180.12 350.997 179.912C350.65 179.704 350.255 179.6 349.813 179.6C349.354 179.6 348.946 179.709 348.589 179.928C348.231 180.141 347.949 180.427 347.741 180.784C347.538 181.141 347.439 181.531 347.445 181.952H345.989C345.989 181.227 346.157 180.587 346.493 180.032C346.829 179.472 347.285 179.035 347.861 178.72C348.442 178.4 349.101 178.24 349.837 178.24C350.551 178.24 351.191 178.405 351.757 178.736C352.322 179.061 352.767 179.507 353.093 180.072C353.423 180.632 353.589 181.267 353.589 181.976C353.589 182.477 353.525 182.912 353.397 183.28C353.274 183.648 353.082 183.989 352.821 184.304C352.559 184.613 352.231 184.944 351.837 185.296L347.589 189.112L347.405 188.632H353.589V189.992H345.933ZM358.911 190.24C358.319 190.24 357.767 190.117 357.255 189.872C356.748 189.627 356.313 189.291 355.951 188.864C355.593 188.432 355.337 187.936 355.183 187.376L356.551 187.008C356.647 187.387 356.817 187.715 357.063 187.992C357.308 188.264 357.593 188.477 357.919 188.632C358.249 188.781 358.593 188.856 358.951 188.856C359.42 188.856 359.841 188.744 360.215 188.52C360.593 188.291 360.892 187.989 361.111 187.616C361.329 187.237 361.439 186.824 361.439 186.376C361.439 185.912 361.324 185.493 361.095 185.12C360.871 184.741 360.569 184.443 360.191 184.224C359.812 184.005 359.399 183.896 358.951 183.896C358.444 183.896 358.009 184.003 357.647 184.216C357.289 184.424 357.007 184.68 356.799 184.984L355.535 184.504L355.887 178.48H362.071V179.832H356.575L357.207 179.24L356.911 184.064L356.599 183.656C356.919 183.315 357.3 183.051 357.743 182.864C358.191 182.677 358.647 182.584 359.111 182.584C359.825 182.584 360.465 182.752 361.031 183.088C361.596 183.419 362.044 183.872 362.375 184.448C362.705 185.019 362.871 185.661 362.871 186.376C362.871 187.085 362.689 187.733 362.327 188.32C361.964 188.901 361.481 189.368 360.879 189.72C360.281 190.067 359.625 190.24 358.911 190.24ZM368.672 190.24C367.925 190.24 367.259 190.072 366.672 189.736C366.091 189.395 365.629 188.933 365.288 188.352C364.952 187.765 364.784 187.099 364.784 186.352V182.128C364.784 181.381 364.952 180.715 365.288 180.128C365.629 179.541 366.091 179.08 366.672 178.744C367.259 178.408 367.925 178.24 368.672 178.24C369.419 178.24 370.085 178.408 370.672 178.744C371.259 179.08 371.72 179.541 372.056 180.128C372.392 180.715 372.56 181.381 372.56 182.128V186.352C372.56 187.099 372.392 187.765 372.056 188.352C371.72 188.933 371.259 189.395 370.672 189.736C370.085 190.072 369.419 190.24 368.672 190.24ZM368.672 188.872C369.125 188.872 369.536 188.763 369.904 188.544C370.272 188.325 370.565 188.032 370.784 187.664C371.003 187.291 371.112 186.88 371.112 186.432V182.04C371.112 181.587 371.003 181.176 370.784 180.808C370.565 180.44 370.272 180.147 369.904 179.928C369.536 179.709 369.125 179.6 368.672 179.6C368.224 179.6 367.813 179.709 367.44 179.928C367.072 180.147 366.779 180.44 366.56 180.808C366.341 181.176 366.232 181.587 366.232 182.04V186.432C366.232 186.88 366.341 187.291 366.56 187.664C366.779 188.032 367.072 188.325 367.44 188.544C367.813 188.763 368.224 188.872 368.672 188.872ZM378.768 190.24C377.957 190.24 377.274 190.04 376.72 189.64C376.165 189.235 375.744 188.688 375.456 188C375.173 187.307 375.032 186.531 375.032 185.672C375.032 184.803 375.173 184.024 375.456 183.336C375.744 182.648 376.165 182.107 376.72 181.712C377.28 181.317 377.965 181.12 378.776 181.12C379.576 181.12 380.264 181.32 380.84 181.72C381.421 182.115 381.866 182.656 382.176 183.344C382.485 184.032 382.64 184.808 382.64 185.672C382.64 186.536 382.485 187.312 382.176 188C381.866 188.688 381.421 189.235 380.84 189.64C380.264 190.04 379.573 190.24 378.768 190.24ZM374.792 190V178.48H376.224V183.64H376.064V190H374.792ZM378.592 188.936C379.162 188.936 379.634 188.792 380.008 188.504C380.381 188.216 380.661 187.827 380.848 187.336C381.034 186.84 381.128 186.285 381.128 185.672C381.128 185.064 381.034 184.515 380.848 184.024C380.666 183.533 380.384 183.144 380 182.856C379.621 182.568 379.138 182.424 378.552 182.424C377.992 182.424 377.528 182.563 377.16 182.84C376.792 183.112 376.517 183.493 376.336 183.984C376.154 184.469 376.064 185.032 376.064 185.672C376.064 186.301 376.152 186.864 376.328 187.36C376.509 187.851 376.786 188.237 377.16 188.52C377.533 188.797 378.01 188.936 378.592 188.936ZM388.361 190.24C387.551 190.24 386.868 190.04 386.313 189.64C385.759 189.235 385.337 188.688 385.049 188C384.767 187.307 384.625 186.531 384.625 185.672C384.625 184.803 384.767 184.024 385.049 183.336C385.337 182.648 385.759 182.107 386.313 181.712C386.873 181.317 387.559 181.12 388.369 181.12C389.169 181.12 389.857 181.32 390.433 181.72C391.015 182.115 391.46 182.656 391.769 183.344C392.079 184.032 392.233 184.808 392.233 185.672C392.233 186.536 392.079 187.312 391.769 188C391.46 188.688 391.015 189.235 390.433 189.64C389.857 190.04 389.167 190.24 388.361 190.24ZM384.385 193.84V181.36H385.657V187.72H385.817V193.84H384.385ZM388.185 188.936C388.756 188.936 389.228 188.792 389.601 188.504C389.975 188.216 390.255 187.827 390.441 187.336C390.628 186.84 390.721 186.285 390.721 185.672C390.721 185.064 390.628 184.515 390.441 184.024C390.26 183.533 389.977 183.144 389.593 182.856C389.215 182.568 388.732 182.424 388.145 182.424C387.585 182.424 387.121 182.563 386.753 182.84C386.385 183.112 386.111 183.493 385.929 183.984C385.748 184.469 385.657 185.032 385.657 185.672C385.657 186.301 385.745 186.864 385.921 187.36C386.103 187.851 386.38 188.237 386.753 188.52C387.127 188.797 387.604 188.936 388.185 188.936Z" fill="#110529"/>
    <path d="M606 184H397" stroke="#110529" stroke-width="2"/>
    <path d="M616 184L616.707 183.293L617.414 184L616.707 184.707L616 184ZM608.707 192.707L608 193.414L606.586 192L607.293 191.293L608.707 192.707ZM607.293 176.707L606.586 176L608 174.586L608.707 175.293L607.293 176.707ZM606 183L616 183L616 185L606 185L606 183ZM616.707 184.707L608.707 192.707L607.293 191.293L615.293 183.293L616.707 184.707ZM615.293 184.707L607.293 176.707L608.707 175.293L616.707 183.293L615.293 184.707Z" fill="#110529"/>
    <path d="M101.28 398V386.48H102.704V396.648H108.048V398H101.28ZM109.401 398V386.48H113.953C114.065 386.48 114.199 386.485 114.353 386.496C114.508 386.501 114.657 386.517 114.801 386.544C115.425 386.64 115.948 386.853 116.369 387.184C116.796 387.515 117.116 387.933 117.329 388.44C117.543 388.941 117.649 389.499 117.649 390.112C117.649 391.003 117.417 391.776 116.953 392.432C116.489 393.083 115.809 393.491 114.913 393.656L114.369 393.744H110.825V398H109.401ZM116.257 398L113.985 393.312L115.393 392.88L117.889 398H116.257ZM110.825 392.392H113.905C114.007 392.392 114.121 392.387 114.249 392.376C114.383 392.365 114.508 392.347 114.625 392.32C114.993 392.235 115.292 392.08 115.521 391.856C115.756 391.627 115.927 391.36 116.033 391.056C116.14 390.747 116.193 390.432 116.193 390.112C116.193 389.792 116.14 389.48 116.033 389.176C115.927 388.867 115.756 388.597 115.521 388.368C115.292 388.139 114.993 387.984 114.625 387.904C114.508 387.872 114.383 387.853 114.249 387.848C114.121 387.837 114.007 387.832 113.905 387.832H110.825V392.392ZM119.331 397.992L119.339 396.712L124.451 392.112C124.878 391.728 125.163 391.365 125.307 391.024C125.457 390.677 125.531 390.323 125.531 389.96C125.531 389.517 125.43 389.117 125.227 388.76C125.025 388.403 124.747 388.12 124.395 387.912C124.049 387.704 123.654 387.6 123.211 387.6C122.753 387.6 122.345 387.709 121.987 387.928C121.63 388.141 121.347 388.427 121.139 388.784C120.937 389.141 120.838 389.531 120.843 389.952H119.387C119.387 389.227 119.555 388.587 119.891 388.032C120.227 387.472 120.683 387.035 121.259 386.72C121.841 386.4 122.499 386.24 123.235 386.24C123.95 386.24 124.59 386.405 125.155 386.736C125.721 387.061 126.166 387.507 126.491 388.072C126.822 388.632 126.987 389.267 126.987 389.976C126.987 390.477 126.923 390.912 126.795 391.28C126.673 391.648 126.481 391.989 126.219 392.304C125.958 392.613 125.63 392.944 125.235 393.296L120.987 397.112L120.803 396.632H126.987V397.992H119.331Z" fill="#110529"/>
    <rect x="96" y="380" width="36" height="24" rx="1" stroke="#110529" stroke-width="2"/>
    <path d="M325 392H132" stroke="#110529" stroke-width="2"/>
    <rect width="56" height="20" transform="translate(325 382)" fill="white"/>
    <path d="M329.933 397.992L329.941 396.712L335.053 392.112C335.479 391.728 335.765 391.365 335.909 391.024C336.058 390.677 336.133 390.323 336.133 389.96C336.133 389.517 336.031 389.117 335.829 388.76C335.626 388.403 335.349 388.12 334.997 387.912C334.65 387.704 334.255 387.6 333.813 387.6C333.354 387.6 332.946 387.709 332.589 387.928C332.231 388.141 331.949 388.427 331.741 388.784C331.538 389.141 331.439 389.531 331.445 389.952H329.989C329.989 389.227 330.157 388.587 330.493 388.032C330.829 387.472 331.285 387.035 331.861 386.72C332.442 386.4 333.101 386.24 333.837 386.24C334.551 386.24 335.191 386.405 335.757 386.736C336.322 387.061 336.767 387.507 337.093 388.072C337.423 388.632 337.589 389.267 337.589 389.976C337.589 390.477 337.525 390.912 337.397 391.28C337.274 391.648 337.082 391.989 336.821 392.304C336.559 392.613 336.231 392.944 335.837 393.296L331.589 397.112L331.405 396.632H337.589V397.992H329.933ZM342.911 398.24C342.319 398.24 341.767 398.117 341.255 397.872C340.748 397.627 340.313 397.291 339.951 396.864C339.593 396.432 339.337 395.936 339.183 395.376L340.551 395.008C340.647 395.387 340.817 395.715 341.063 395.992C341.308 396.264 341.593 396.477 341.919 396.632C342.249 396.781 342.593 396.856 342.951 396.856C343.42 396.856 343.841 396.744 344.215 396.52C344.593 396.291 344.892 395.989 345.111 395.616C345.329 395.237 345.439 394.824 345.439 394.376C345.439 393.912 345.324 393.493 345.095 393.12C344.871 392.741 344.569 392.443 344.191 392.224C343.812 392.005 343.399 391.896 342.951 391.896C342.444 391.896 342.009 392.003 341.647 392.216C341.289 392.424 341.007 392.68 340.799 392.984L339.535 392.504L339.887 386.48H346.071V387.832H340.575L341.207 387.24L340.911 392.064L340.599 391.656C340.919 391.315 341.3 391.051 341.743 390.864C342.191 390.677 342.647 390.584 343.111 390.584C343.825 390.584 344.465 390.752 345.031 391.088C345.596 391.419 346.044 391.872 346.375 392.448C346.705 393.019 346.871 393.661 346.871 394.376C346.871 395.085 346.689 395.733 346.327 396.32C345.964 396.901 345.481 397.368 344.879 397.72C344.281 398.067 343.625 398.24 342.911 398.24ZM352.672 398.24C351.925 398.24 351.259 398.072 350.672 397.736C350.091 397.395 349.629 396.933 349.288 396.352C348.952 395.765 348.784 395.099 348.784 394.352V390.128C348.784 389.381 348.952 388.715 349.288 388.128C349.629 387.541 350.091 387.08 350.672 386.744C351.259 386.408 351.925 386.24 352.672 386.24C353.419 386.24 354.085 386.408 354.672 386.744C355.259 387.08 355.72 387.541 356.056 388.128C356.392 388.715 356.56 389.381 356.56 390.128V394.352C356.56 395.099 356.392 395.765 356.056 396.352C355.72 396.933 355.259 397.395 354.672 397.736C354.085 398.072 353.419 398.24 352.672 398.24ZM352.672 396.872C353.125 396.872 353.536 396.763 353.904 396.544C354.272 396.325 354.565 396.032 354.784 395.664C355.003 395.291 355.112 394.88 355.112 394.432V390.04C355.112 389.587 355.003 389.176 354.784 388.808C354.565 388.44 354.272 388.147 353.904 387.928C353.536 387.709 353.125 387.6 352.672 387.6C352.224 387.6 351.813 387.709 351.44 387.928C351.072 388.147 350.779 388.44 350.56 388.808C350.341 389.176 350.232 389.587 350.232 390.04V394.432C350.232 394.88 350.341 395.291 350.56 395.664C350.779 396.032 351.072 396.325 351.44 396.544C351.813 396.763 352.224 396.872 352.672 396.872ZM362.768 398.24C361.957 398.24 361.274 398.04 360.72 397.64C360.165 397.235 359.744 396.688 359.456 396C359.173 395.307 359.032 394.531 359.032 393.672C359.032 392.803 359.173 392.024 359.456 391.336C359.744 390.648 360.165 390.107 360.72 389.712C361.28 389.317 361.965 389.12 362.776 389.12C363.576 389.12 364.264 389.32 364.84 389.72C365.421 390.115 365.866 390.656 366.176 391.344C366.485 392.032 366.64 392.808 366.64 393.672C366.64 394.536 366.485 395.312 366.176 396C365.866 396.688 365.421 397.235 364.84 397.64C364.264 398.04 363.573 398.24 362.768 398.24ZM358.792 398V386.48H360.224V391.64H360.064V398H358.792ZM362.592 396.936C363.162 396.936 363.634 396.792 364.008 396.504C364.381 396.216 364.661 395.827 364.848 395.336C365.034 394.84 365.128 394.285 365.128 393.672C365.128 393.064 365.034 392.515 364.848 392.024C364.666 391.533 364.384 391.144 364 390.856C363.621 390.568 363.138 390.424 362.552 390.424C361.992 390.424 361.528 390.563 361.16 390.84C360.792 391.112 360.517 391.493 360.336 391.984C360.154 392.469 360.064 393.032 360.064 393.672C360.064 394.301 360.152 394.864 360.328 395.36C360.509 395.851 360.786 396.237 361.16 396.52C361.533 396.797 362.01 396.936 362.592 396.936ZM372.361 398.24C371.551 398.24 370.868 398.04 370.313 397.64C369.759 397.235 369.337 396.688 369.049 396C368.767 395.307 368.625 394.531 368.625 393.672C368.625 392.803 368.767 392.024 369.049 391.336C369.337 390.648 369.759 390.107 370.313 389.712C370.873 389.317 371.559 389.12 372.369 389.12C373.169 389.12 373.857 389.32 374.433 389.72C375.015 390.115 375.46 390.656 375.769 391.344C376.079 392.032 376.233 392.808 376.233 393.672C376.233 394.536 376.079 395.312 375.769 396C375.46 396.688 375.015 397.235 374.433 397.64C373.857 398.04 373.167 398.24 372.361 398.24ZM368.385 401.84V389.36H369.657V395.72H369.817V401.84H368.385ZM372.185 396.936C372.756 396.936 373.228 396.792 373.601 396.504C373.975 396.216 374.255 395.827 374.441 395.336C374.628 394.84 374.721 394.285 374.721 393.672C374.721 393.064 374.628 392.515 374.441 392.024C374.26 391.533 373.977 391.144 373.593 390.856C373.215 390.568 372.732 390.424 372.145 390.424C371.585 390.424 371.121 390.563 370.753 390.84C370.385 391.112 370.111 391.493 369.929 391.984C369.748 392.469 369.657 393.032 369.657 393.672C369.657 394.301 369.745 394.864 369.921 395.36C370.103 395.851 370.38 396.237 370.753 396.52C371.127 396.797 371.604 396.936 372.185 396.936Z" fill="#110529"/>
    <path d="M574 392H381" stroke="#110529" stroke-width="2"/>
    <path d="M584 392L584.707 391.293L585.414 392L584.707 392.707L584 392ZM576.707 400.707L576 401.414L574.586 400L575.293 399.293L576.707 400.707ZM575.293 384.707L574.586 384L576 382.586L576.707 383.293L575.293 384.707ZM574 391L584 391L584 393L574 393L574 391ZM584.707 392.707L576.707 400.707L575.293 399.293L583.293 391.293L584.707 392.707ZM583.293 392.707L575.293 384.707L576.707 383.293L584.707 391.293L583.293 392.707Z" fill="#110529"/>
    <path d="M406.208 238.24C405.392 238.24 404.656 238.101 404 237.824C403.349 237.547 402.811 237.152 402.384 236.64C401.963 236.123 401.688 235.512 401.56 234.808L403.032 234.576C403.219 235.301 403.605 235.869 404.192 236.28C404.784 236.685 405.48 236.888 406.28 236.888C406.797 236.888 407.264 236.808 407.68 236.648C408.101 236.483 408.435 236.248 408.68 235.944C408.925 235.64 409.048 235.28 409.048 234.864C409.048 234.608 409.003 234.389 408.912 234.208C408.827 234.021 408.707 233.864 408.552 233.736C408.403 233.603 408.232 233.491 408.04 233.4C407.848 233.309 407.648 233.235 407.44 233.176L404.504 232.304C404.184 232.208 403.875 232.088 403.576 231.944C403.277 231.795 403.011 231.611 402.776 231.392C402.541 231.168 402.355 230.901 402.216 230.592C402.077 230.277 402.008 229.907 402.008 229.48C402.008 228.797 402.184 228.216 402.536 227.736C402.893 227.251 403.376 226.88 403.984 226.624C404.592 226.368 405.277 226.243 406.04 226.248C406.813 226.253 407.504 226.392 408.112 226.664C408.725 226.931 409.232 227.315 409.632 227.816C410.037 228.317 410.309 228.917 410.448 229.616L408.936 229.88C408.856 229.411 408.677 229.008 408.4 228.672C408.128 228.331 407.787 228.069 407.376 227.888C406.965 227.701 406.515 227.605 406.024 227.6C405.555 227.595 405.131 227.669 404.752 227.824C404.373 227.979 404.072 228.195 403.848 228.472C403.624 228.744 403.512 229.059 403.512 229.416C403.512 229.768 403.613 230.053 403.816 230.272C404.019 230.485 404.267 230.656 404.56 230.784C404.859 230.907 405.149 231.008 405.432 231.088L407.624 231.72C407.875 231.789 408.163 231.885 408.488 232.008C408.819 232.131 409.139 232.304 409.448 232.528C409.757 232.747 410.013 233.04 410.216 233.408C410.419 233.771 410.52 234.229 410.52 234.784C410.52 235.339 410.408 235.832 410.184 236.264C409.965 236.696 409.659 237.059 409.264 237.352C408.869 237.64 408.411 237.859 407.888 238.008C407.365 238.163 406.805 238.24 406.208 238.24ZM412.198 238V226.48H416.75C416.862 226.48 416.995 226.485 417.15 226.496C417.305 226.501 417.454 226.517 417.598 226.544C418.222 226.64 418.745 226.853 419.166 227.184C419.593 227.515 419.913 227.933 420.126 228.44C420.339 228.941 420.446 229.499 420.446 230.112C420.446 231.003 420.214 231.776 419.75 232.432C419.286 233.083 418.606 233.491 417.71 233.656L417.166 233.744H413.622V238H412.198ZM419.054 238L416.782 233.312L418.19 232.88L420.686 238H419.054ZM413.622 232.392H416.702C416.803 232.392 416.918 232.387 417.046 232.376C417.179 232.365 417.305 232.347 417.422 232.32C417.79 232.235 418.089 232.08 418.318 231.856C418.553 231.627 418.723 231.36 418.83 231.056C418.937 230.747 418.99 230.432 418.99 230.112C418.99 229.792 418.937 229.48 418.83 229.176C418.723 228.867 418.553 228.597 418.318 228.368C418.089 228.139 417.79 227.984 417.422 227.904C417.305 227.872 417.179 227.853 417.046 227.848C416.918 227.837 416.803 227.832 416.702 227.832H413.622V232.392ZM422.128 237.992L422.136 236.712L427.248 232.112C427.675 231.728 427.96 231.365 428.104 231.024C428.253 230.677 428.328 230.323 428.328 229.96C428.328 229.517 428.227 229.117 428.024 228.76C427.821 228.403 427.544 228.12 427.192 227.912C426.845 227.704 426.451 227.6 426.008 227.6C425.549 227.6 425.141 227.709 424.784 227.928C424.427 228.141 424.144 228.427 423.936 228.784C423.733 229.141 423.635 229.531 423.64 229.952H422.184C422.184 229.227 422.352 228.587 422.688 228.032C423.024 227.472 423.48 227.035 424.056 226.72C424.637 226.4 425.296 226.24 426.032 226.24C426.747 226.24 427.387 226.405 427.952 226.736C428.517 227.061 428.963 227.507 429.288 228.072C429.619 228.632 429.784 229.267 429.784 229.976C429.784 230.477 429.72 230.912 429.592 231.28C429.469 231.648 429.277 231.989 429.016 232.304C428.755 232.613 428.427 232.944 428.032 233.296L423.784 237.112L423.6 236.632H429.784V237.992H422.128Z" fill="#110529"/>
    <rect x="397" y="220" width="38" height="24" rx="1" stroke="#110529" stroke-width="2"/>
    <path d="M566 232H435" stroke="#110529" stroke-width="2"/>
    <rect width="54" height="20" transform="translate(566 222)" fill="white"/>
    <path d="M573.269 238V228.056L571.101 229.368V227.776L573.269 226.48H574.717V238H573.269ZM581.649 238.24C580.902 238.24 580.235 238.072 579.649 237.736C579.067 237.395 578.606 236.933 578.265 236.352C577.929 235.765 577.761 235.099 577.761 234.352V230.128C577.761 229.381 577.929 228.715 578.265 228.128C578.606 227.541 579.067 227.08 579.649 226.744C580.235 226.408 580.902 226.24 581.649 226.24C582.395 226.24 583.062 226.408 583.649 226.744C584.235 227.08 584.697 227.541 585.033 228.128C585.369 228.715 585.537 229.381 585.537 230.128V234.352C585.537 235.099 585.369 235.765 585.033 236.352C584.697 236.933 584.235 237.395 583.649 237.736C583.062 238.072 582.395 238.24 581.649 238.24ZM581.649 236.872C582.102 236.872 582.513 236.763 582.881 236.544C583.249 236.325 583.542 236.032 583.761 235.664C583.979 235.291 584.089 234.88 584.089 234.432V230.04C584.089 229.587 583.979 229.176 583.761 228.808C583.542 228.44 583.249 228.147 582.881 227.928C582.513 227.709 582.102 227.6 581.649 227.6C581.201 227.6 580.79 227.709 580.417 227.928C580.049 228.147 579.755 228.44 579.537 228.808C579.318 229.176 579.209 229.587 579.209 230.04V234.432C579.209 234.88 579.318 235.291 579.537 235.664C579.755 236.032 580.049 236.325 580.417 236.544C580.79 236.763 581.201 236.872 581.649 236.872ZM591.664 238.24C590.918 238.24 590.251 238.072 589.664 237.736C589.083 237.395 588.622 236.933 588.28 236.352C587.944 235.765 587.776 235.099 587.776 234.352V230.128C587.776 229.381 587.944 228.715 588.28 228.128C588.622 227.541 589.083 227.08 589.664 226.744C590.251 226.408 590.918 226.24 591.664 226.24C592.411 226.24 593.078 226.408 593.664 226.744C594.251 227.08 594.712 227.541 595.048 228.128C595.384 228.715 595.552 229.381 595.552 230.128V234.352C595.552 235.099 595.384 235.765 595.048 236.352C594.712 236.933 594.251 237.395 593.664 237.736C593.078 238.072 592.411 238.24 591.664 238.24ZM591.664 236.872C592.118 236.872 592.528 236.763 592.896 236.544C593.264 236.325 593.558 236.032 593.776 235.664C593.995 235.291 594.104 234.88 594.104 234.432V230.04C594.104 229.587 593.995 229.176 593.776 228.808C593.558 228.44 593.264 228.147 592.896 227.928C592.528 227.709 592.118 227.6 591.664 227.6C591.216 227.6 590.806 227.709 590.432 227.928C590.064 228.147 589.771 228.44 589.552 228.808C589.334 229.176 589.224 229.587 589.224 230.04V234.432C589.224 234.88 589.334 235.291 589.552 235.664C589.771 236.032 590.064 236.325 590.432 236.544C590.806 236.763 591.216 236.872 591.664 236.872ZM601.76 238.24C600.949 238.24 600.267 238.04 599.712 237.64C599.157 237.235 598.736 236.688 598.448 236C598.165 235.307 598.024 234.531 598.024 233.672C598.024 232.803 598.165 232.024 598.448 231.336C598.736 230.648 599.157 230.107 599.712 229.712C600.272 229.317 600.957 229.12 601.768 229.12C602.568 229.12 603.256 229.32 603.832 229.72C604.413 230.115 604.859 230.656 605.168 231.344C605.477 232.032 605.632 232.808 605.632 233.672C605.632 234.536 605.477 235.312 605.168 236C604.859 236.688 604.413 237.235 603.832 237.64C603.256 238.04 602.565 238.24 601.76 238.24ZM597.784 238V226.48H599.216V231.64H599.056V238H597.784ZM601.584 236.936C602.155 236.936 602.627 236.792 603 236.504C603.373 236.216 603.653 235.827 603.84 235.336C604.027 234.84 604.12 234.285 604.12 233.672C604.12 233.064 604.027 232.515 603.84 232.024C603.659 231.533 603.376 231.144 602.992 230.856C602.613 230.568 602.131 230.424 601.544 230.424C600.984 230.424 600.52 230.563 600.152 230.84C599.784 231.112 599.509 231.493 599.328 231.984C599.147 232.469 599.056 233.032 599.056 233.672C599.056 234.301 599.144 234.864 599.32 235.36C599.501 235.851 599.779 236.237 600.152 236.52C600.525 236.797 601.003 236.936 601.584 236.936ZM611.354 238.24C610.543 238.24 609.86 238.04 609.306 237.64C608.751 237.235 608.33 236.688 608.042 236C607.759 235.307 607.618 234.531 607.618 233.672C607.618 232.803 607.759 232.024 608.042 231.336C608.33 230.648 608.751 230.107 609.306 229.712C609.866 229.317 610.551 229.12 611.362 229.12C612.162 229.12 612.85 229.32 613.426 229.72C614.007 230.115 614.452 230.656 614.762 231.344C615.071 232.032 615.226 232.808 615.226 233.672C615.226 234.536 615.071 235.312 614.762 236C614.452 236.688 614.007 237.235 613.426 237.64C612.85 238.04 612.159 238.24 611.354 238.24ZM607.378 241.84V229.36H608.65V235.72H608.81V241.84H607.378ZM611.178 236.936C611.748 236.936 612.22 236.792 612.594 236.504C612.967 236.216 613.247 235.827 613.434 235.336C613.62 234.84 613.714 234.285 613.714 233.672C613.714 233.064 613.62 232.515 613.434 232.024C613.252 231.533 612.97 231.144 612.586 230.856C612.207 230.568 611.724 230.424 611.138 230.424C610.578 230.424 610.114 230.563 609.746 230.84C609.378 231.112 609.103 231.493 608.922 231.984C608.74 232.469 608.65 233.032 608.65 233.672C608.65 234.301 608.738 234.864 608.914 235.36C609.095 235.851 609.372 236.237 609.746 236.52C610.119 236.797 610.596 236.936 611.178 236.936Z" fill="#110529"/>
    <path d="M751 232H620" stroke="#110529" stroke-width="2"/>
    <path d="M761 232L761.707 231.293L762.414 232L761.707 232.707L761 232ZM753.707 240.707L753 241.414L751.586 240L752.293 239.293L753.707 240.707ZM752.293 224.707L751.586 224L753 222.586L753.707 223.293L752.293 224.707ZM751 231L761 231L761 233L751 233L751 231ZM761.707 232.707L753.707 240.707L752.293 239.293L760.293 231.293L761.707 232.707ZM760.293 232.707L752.293 224.707L753.707 223.293L761.707 231.293L760.293 232.707Z" fill="#110529"/>
    <path d="M371.208 446.24C370.392 446.24 369.656 446.101 369 445.824C368.349 445.547 367.811 445.152 367.384 444.64C366.963 444.123 366.688 443.512 366.56 442.808L368.032 442.576C368.219 443.301 368.605 443.869 369.192 444.28C369.784 444.685 370.48 444.888 371.28 444.888C371.797 444.888 372.264 444.808 372.68 444.648C373.101 444.483 373.435 444.248 373.68 443.944C373.925 443.64 374.048 443.28 374.048 442.864C374.048 442.608 374.003 442.389 373.912 442.208C373.827 442.021 373.707 441.864 373.552 441.736C373.403 441.603 373.232 441.491 373.04 441.4C372.848 441.309 372.648 441.235 372.44 441.176L369.504 440.304C369.184 440.208 368.875 440.088 368.576 439.944C368.277 439.795 368.011 439.611 367.776 439.392C367.541 439.168 367.355 438.901 367.216 438.592C367.077 438.277 367.008 437.907 367.008 437.48C367.008 436.797 367.184 436.216 367.536 435.736C367.893 435.251 368.376 434.88 368.984 434.624C369.592 434.368 370.277 434.243 371.04 434.248C371.813 434.253 372.504 434.392 373.112 434.664C373.725 434.931 374.232 435.315 374.632 435.816C375.037 436.317 375.309 436.917 375.448 437.616L373.936 437.88C373.856 437.411 373.677 437.008 373.4 436.672C373.128 436.331 372.787 436.069 372.376 435.888C371.965 435.701 371.515 435.605 371.024 435.6C370.555 435.595 370.131 435.669 369.752 435.824C369.373 435.979 369.072 436.195 368.848 436.472C368.624 436.744 368.512 437.059 368.512 437.416C368.512 437.768 368.613 438.053 368.816 438.272C369.019 438.485 369.267 438.656 369.56 438.784C369.859 438.907 370.149 439.008 370.432 439.088L372.624 439.72C372.875 439.789 373.163 439.885 373.488 440.008C373.819 440.131 374.139 440.304 374.448 440.528C374.757 440.747 375.013 441.04 375.216 441.408C375.419 441.771 375.52 442.229 375.52 442.784C375.52 443.339 375.408 443.832 375.184 444.264C374.965 444.696 374.659 445.059 374.264 445.352C373.869 445.64 373.411 445.859 372.888 446.008C372.365 446.163 371.805 446.24 371.208 446.24ZM377.198 446V434.48H381.75C381.862 434.48 381.995 434.485 382.15 434.496C382.305 434.501 382.454 434.517 382.598 434.544C383.222 434.64 383.745 434.853 384.166 435.184C384.593 435.515 384.913 435.933 385.126 436.44C385.339 436.941 385.446 437.499 385.446 438.112C385.446 439.003 385.214 439.776 384.75 440.432C384.286 441.083 383.606 441.491 382.71 441.656L382.166 441.744H378.622V446H377.198ZM384.054 446L381.782 441.312L383.19 440.88L385.686 446H384.054ZM378.622 440.392H381.702C381.803 440.392 381.918 440.387 382.046 440.376C382.179 440.365 382.305 440.347 382.422 440.32C382.79 440.235 383.089 440.08 383.318 439.856C383.553 439.627 383.723 439.36 383.83 439.056C383.937 438.747 383.99 438.432 383.99 438.112C383.99 437.792 383.937 437.48 383.83 437.176C383.723 436.867 383.553 436.597 383.318 436.368C383.089 436.139 382.79 435.984 382.422 435.904C382.305 435.872 382.179 435.853 382.046 435.848C381.918 435.837 381.803 435.832 381.702 435.832H378.622V440.392ZM387.128 445.992L387.136 444.712L392.248 440.112C392.675 439.728 392.96 439.365 393.104 439.024C393.253 438.677 393.328 438.323 393.328 437.96C393.328 437.517 393.227 437.117 393.024 436.76C392.821 436.403 392.544 436.12 392.192 435.912C391.845 435.704 391.451 435.6 391.008 435.6C390.549 435.6 390.141 435.709 389.784 435.928C389.427 436.141 389.144 436.427 388.936 436.784C388.733 437.141 388.635 437.531 388.64 437.952H387.184C387.184 437.227 387.352 436.587 387.688 436.032C388.024 435.472 388.48 435.035 389.056 434.72C389.637 434.4 390.296 434.24 391.032 434.24C391.747 434.24 392.387 434.405 392.952 434.736C393.517 435.061 393.963 435.507 394.288 436.072C394.619 436.632 394.784 437.267 394.784 437.976C394.784 438.477 394.72 438.912 394.592 439.28C394.469 439.648 394.277 439.989 394.016 440.304C393.755 440.613 393.427 440.944 393.032 441.296L388.784 445.112L388.6 444.632H394.784V445.992H387.128Z" fill="#110529"/>
    <rect x="362" y="428" width="38" height="24" rx="1" stroke="#110529" stroke-width="2"/>
    <path d="M515.5 440H400" stroke="#110529" stroke-width="2"/>
    <rect width="54" height="20" transform="translate(515.5 430)" fill="white"/>
    <path d="M522.769 446V436.056L520.601 437.368V435.776L522.769 434.48H524.217V446H522.769ZM531.149 446.24C530.402 446.24 529.735 446.072 529.149 445.736C528.567 445.395 528.106 444.933 527.765 444.352C527.429 443.765 527.261 443.099 527.261 442.352V438.128C527.261 437.381 527.429 436.715 527.765 436.128C528.106 435.541 528.567 435.08 529.149 434.744C529.735 434.408 530.402 434.24 531.149 434.24C531.895 434.24 532.562 434.408 533.149 434.744C533.735 435.08 534.197 435.541 534.533 436.128C534.869 436.715 535.037 437.381 535.037 438.128V442.352C535.037 443.099 534.869 443.765 534.533 444.352C534.197 444.933 533.735 445.395 533.149 445.736C532.562 446.072 531.895 446.24 531.149 446.24ZM531.149 444.872C531.602 444.872 532.013 444.763 532.381 444.544C532.749 444.325 533.042 444.032 533.261 443.664C533.479 443.291 533.589 442.88 533.589 442.432V438.04C533.589 437.587 533.479 437.176 533.261 436.808C533.042 436.44 532.749 436.147 532.381 435.928C532.013 435.709 531.602 435.6 531.149 435.6C530.701 435.6 530.29 435.709 529.917 435.928C529.549 436.147 529.255 436.44 529.037 436.808C528.818 437.176 528.709 437.587 528.709 438.04V442.432C528.709 442.88 528.818 443.291 529.037 443.664C529.255 444.032 529.549 444.325 529.917 444.544C530.29 444.763 530.701 444.872 531.149 444.872ZM541.164 446.24C540.418 446.24 539.751 446.072 539.164 445.736C538.583 445.395 538.122 444.933 537.78 444.352C537.444 443.765 537.276 443.099 537.276 442.352V438.128C537.276 437.381 537.444 436.715 537.78 436.128C538.122 435.541 538.583 435.08 539.164 434.744C539.751 434.408 540.418 434.24 541.164 434.24C541.911 434.24 542.578 434.408 543.164 434.744C543.751 435.08 544.212 435.541 544.548 436.128C544.884 436.715 545.052 437.381 545.052 438.128V442.352C545.052 443.099 544.884 443.765 544.548 444.352C544.212 444.933 543.751 445.395 543.164 445.736C542.578 446.072 541.911 446.24 541.164 446.24ZM541.164 444.872C541.618 444.872 542.028 444.763 542.396 444.544C542.764 444.325 543.058 444.032 543.276 443.664C543.495 443.291 543.604 442.88 543.604 442.432V438.04C543.604 437.587 543.495 437.176 543.276 436.808C543.058 436.44 542.764 436.147 542.396 435.928C542.028 435.709 541.618 435.6 541.164 435.6C540.716 435.6 540.306 435.709 539.932 435.928C539.564 436.147 539.271 436.44 539.052 436.808C538.834 437.176 538.724 437.587 538.724 438.04V442.432C538.724 442.88 538.834 443.291 539.052 443.664C539.271 444.032 539.564 444.325 539.932 444.544C540.306 444.763 540.716 444.872 541.164 444.872ZM551.26 446.24C550.449 446.24 549.767 446.04 549.212 445.64C548.657 445.235 548.236 444.688 547.948 444C547.665 443.307 547.524 442.531 547.524 441.672C547.524 440.803 547.665 440.024 547.948 439.336C548.236 438.648 548.657 438.107 549.212 437.712C549.772 437.317 550.457 437.12 551.268 437.12C552.068 437.12 552.756 437.32 553.332 437.72C553.913 438.115 554.359 438.656 554.668 439.344C554.977 440.032 555.132 440.808 555.132 441.672C555.132 442.536 554.977 443.312 554.668 444C554.359 444.688 553.913 445.235 553.332 445.64C552.756 446.04 552.065 446.24 551.26 446.24ZM547.284 446V434.48H548.716V439.64H548.556V446H547.284ZM551.084 444.936C551.655 444.936 552.127 444.792 552.5 444.504C552.873 444.216 553.153 443.827 553.34 443.336C553.527 442.84 553.62 442.285 553.62 441.672C553.62 441.064 553.527 440.515 553.34 440.024C553.159 439.533 552.876 439.144 552.492 438.856C552.113 438.568 551.631 438.424 551.044 438.424C550.484 438.424 550.02 438.563 549.652 438.84C549.284 439.112 549.009 439.493 548.828 439.984C548.647 440.469 548.556 441.032 548.556 441.672C548.556 442.301 548.644 442.864 548.82 443.36C549.001 443.851 549.279 444.237 549.652 444.52C550.025 444.797 550.503 444.936 551.084 444.936ZM560.854 446.24C560.043 446.24 559.36 446.04 558.806 445.64C558.251 445.235 557.83 444.688 557.542 444C557.259 443.307 557.118 442.531 557.118 441.672C557.118 440.803 557.259 440.024 557.542 439.336C557.83 438.648 558.251 438.107 558.806 437.712C559.366 437.317 560.051 437.12 560.862 437.12C561.662 437.12 562.35 437.32 562.926 437.72C563.507 438.115 563.952 438.656 564.262 439.344C564.571 440.032 564.726 440.808 564.726 441.672C564.726 442.536 564.571 443.312 564.262 444C563.952 444.688 563.507 445.235 562.926 445.64C562.35 446.04 561.659 446.24 560.854 446.24ZM556.878 449.84V437.36H558.15V443.72H558.31V449.84H556.878ZM560.678 444.936C561.248 444.936 561.72 444.792 562.094 444.504C562.467 444.216 562.747 443.827 562.934 443.336C563.12 442.84 563.214 442.285 563.214 441.672C563.214 441.064 563.12 440.515 562.934 440.024C562.752 439.533 562.47 439.144 562.086 438.856C561.707 438.568 561.224 438.424 560.638 438.424C560.078 438.424 559.614 438.563 559.246 438.84C558.878 439.112 558.603 439.493 558.422 439.984C558.24 440.469 558.15 441.032 558.15 441.672C558.15 442.301 558.238 442.864 558.414 443.36C558.595 443.851 558.872 444.237 559.246 444.52C559.619 444.797 560.096 444.936 560.678 444.936Z" fill="#110529"/>
    <path d="M685 440H569.5" stroke="#110529" stroke-width="2"/>
    <path d="M695 440L695.707 439.293L696.414 440L695.707 440.707L695 440ZM687.707 448.707L687 449.414L685.586 448L686.293 447.293L687.707 448.707ZM686.293 432.707L685.586 432L687 430.586L687.707 431.293L686.293 432.707ZM685 439L695 439L695 441L685 441L685 439ZM695.707 440.707L687.707 448.707L686.293 447.293L694.293 439.293L695.707 440.707ZM694.293 440.707L686.293 432.707L687.707 431.293L695.707 439.293L694.293 440.707Z" fill="#110529"/>
    <defs>
        <filter id="filter0_i_6150_38981" x="94.7373" y="83" width="410.263" height="54" filterUnits="userSpaceOnUse" color-interpolation-filters="sRGB">
            <feFlood flood-opacity="0" result="BackgroundImageFix"/>
            <feBlend mode="normal" in="SourceGraphic" in2="BackgroundImageFix" result="shape"/>
            <feColorMatrix in="SourceAlpha" type="matrix" values="0 0 0 0 0 0 0 0 0 0 0 0 0 0 0 0 0 0 127 0" result="hardAlpha"/>
            <feOffset dx="-8" dy="-4"/>
            <feComposite in2="hardAlpha" operator="arithmetic" k2="-1" k3="1"/>
            <feColorMatrix type="matrix" values="0 0 0 0 0.0666667 0 0 0 0 0.0196078 0 0 0 0 0.160784 0 0 0 0.16 0"/>
            <feBlend mode="normal" in2="shape" result="effect1_innerShadow_6150_38981"/>
        </filter>
        <filter id="filter1_i_6150_38981" x="503" y="83" width="32" height="54" filterUnits="userSpaceOnUse" color-interpolation-filters="sRGB">
            <feFlood flood-opacity="0" result="BackgroundImageFix"/>
            <feBlend mode="normal" in="SourceGraphic" in2="BackgroundImageFix" result="shape"/>
            <feColorMatrix in="SourceAlpha" type="matrix" values="0 0 0 0 0 0 0 0 0 0 0 0 0 0 0 0 0 0 127 0" result="hardAlpha"/>
            <feOffset dx="-8" dy="-4"/>
            <feComposite in2="hardAlpha" operator="arithmetic" k2="-1" k3="1"/>
            <feColorMatrix type="matrix" values="0 0 0 0 0.0666667 0 0 0 0 0.0196078 0 0 0 0 0.160784 0 0 0 0.16 0"/>
            <feBlend mode="normal" in2="shape" result="effect1_innerShadow_6150_38981"/>
        </filter>
        <filter id="filter2_i_6150_38981" x="569" y="83" width="32" height="54" filterUnits="userSpaceOnUse" color-interpolation-filters="sRGB">
            <feFlood flood-opacity="0" result="BackgroundImageFix"/>
            <feBlend mode="normal" in="SourceGraphic" in2="BackgroundImageFix" result="shape"/>
            <feColorMatrix in="SourceAlpha" type="matrix" values="0 0 0 0 0 0 0 0 0 0 0 0 0 0 0 0 0 0 127 0" result="hardAlpha"/>
            <feOffset dx="-8" dy="-4"/>
            <feComposite in2="hardAlpha" operator="arithmetic" k2="-1" k3="1"/>
            <feColorMatrix type="matrix" values="0 0 0 0 0.0666667 0 0 0 0 0.0196078 0 0 0 0 0.160784 0 0 0 0.16 0"/>
            <feBlend mode="normal" in2="shape" result="effect1_innerShadow_6150_38981"/>
        </filter>
        <filter id="filter3_i_6150_38981" x="533" y="83" width="38" height="54" filterUnits="userSpaceOnUse" color-interpolation-filters="sRGB">
            <feFlood flood-opacity="0" result="BackgroundImageFix"/>
            <feBlend mode="normal" in="SourceGraphic" in2="BackgroundImageFix" result="shape"/>
            <feColorMatrix in="SourceAlpha" type="matrix" values="0 0 0 0 0 0 0 0 0 0 0 0 0 0 0 0 0 0 127 0" result="hardAlpha"/>
            <feOffset dx="-8" dy="-4"/>
            <feComposite in2="hardAlpha" operator="arithmetic" k2="-1" k3="1"/>
            <feColorMatrix type="matrix" values="0 0 0 0 0.0666667 0 0 0 0 0.0196078 0 0 0 0 0.160784 0 0 0 0.16 0"/>
            <feBlend mode="normal" in2="shape" result="effect1_innerShadow_6150_38981"/>
        </filter>
        <filter id="filter4_i_6150_38981" x="599" y="83" width="134" height="54" filterUnits="userSpaceOnUse" color-interpolation-filters="sRGB">
            <feFlood flood-opacity="0" result="BackgroundImageFix"/>
            <feBlend mode="normal" in="SourceGraphic" in2="BackgroundImageFix" result="shape"/>
            <feColorMatrix in="SourceAlpha" type="matrix" values="0 0 0 0 0 0 0 0 0 0 0 0 0 0 0 0 0 0 127 0" result="hardAlpha"/>
            <feOffset dx="-8" dy="-4"/>
            <feComposite in2="hardAlpha" operator="arithmetic" k2="-1" k3="1"/>
            <feColorMatrix type="matrix" values="0 0 0 0 0.0666667 0 0 0 0 0.0196078 0 0 0 0 0.160784 0 0 0 0.16 0"/>
            <feBlend mode="normal" in2="shape" result="effect1_innerShadow_6150_38981"/>
        </filter>
        <filter id="filter5_i_6150_38981" x="731" y="83" width="67.0312" height="54" filterUnits="userSpaceOnUse" color-interpolation-filters="sRGB">
            <feFlood flood-opacity="0" result="BackgroundImageFix"/>
            <feBlend mode="normal" in="SourceGraphic" in2="BackgroundImageFix" result="shape"/>
            <feColorMatrix in="SourceAlpha" type="matrix" values="0 0 0 0 0 0 0 0 0 0 0 0 0 0 0 0 0 0 127 0" result="hardAlpha"/>
            <feOffset dx="-8" dy="-4"/>
            <feComposite in2="hardAlpha" operator="arithmetic" k2="-1" k3="1"/>
            <feColorMatrix type="matrix" values="0 0 0 0 0.0666667 0 0 0 0 0.0196078 0 0 0 0 0.160784 0 0 0 0.16 0"/>
            <feBlend mode="normal" in2="shape" result="effect1_innerShadow_6150_38981"/>
        </filter>
        <filter id="filter6_i_6150_38981" x="94.7373" y="291" width="410.263" height="54" filterUnits="userSpaceOnUse" color-interpolation-filters="sRGB">
            <feFlood flood-opacity="0" result="BackgroundImageFix"/>
            <feBlend mode="normal" in="SourceGraphic" in2="BackgroundImageFix" result="shape"/>
            <feColorMatrix in="SourceAlpha" type="matrix" values="0 0 0 0 0 0 0 0 0 0 0 0 0 0 0 0 0 0 127 0" result="hardAlpha"/>
            <feOffset dx="-8" dy="-4"/>
            <feComposite in2="hardAlpha" operator="arithmetic" k2="-1" k3="1"/>
            <feColorMatrix type="matrix" values="0 0 0 0 0.0666667 0 0 0 0 0.0196078 0 0 0 0 0.160784 0 0 0 0.16 0"/>
            <feBlend mode="normal" in2="shape" result="effect1_innerShadow_6150_38981"/>
        </filter>
        <filter id="filter7_i_6150_38981" x="503" y="291" width="32" height="54" filterUnits="userSpaceOnUse" color-interpolation-filters="sRGB">
            <feFlood flood-opacity="0" result="BackgroundImageFix"/>
            <feBlend mode="normal" in="SourceGraphic" in2="BackgroundImageFix" result="shape"/>
            <feColorMatrix in="SourceAlpha" type="matrix" values="0 0 0 0 0 0 0 0 0 0 0 0 0 0 0 0 0 0 127 0" result="hardAlpha"/>
            <feOffset dx="-8" dy="-4"/>
            <feComposite in2="hardAlpha" operator="arithmetic" k2="-1" k3="1"/>
            <feColorMatrix type="matrix" values="0 0 0 0 0.0666667 0 0 0 0 0.0196078 0 0 0 0 0.160784 0 0 0 0.16 0"/>
            <feBlend mode="normal" in2="shape" result="effect1_innerShadow_6150_38981"/>
        </filter>
        <filter id="filter8_i_6150_38981" x="533" y="291" width="134" height="54" filterUnits="userSpaceOnUse" color-interpolation-filters="sRGB">
            <feFlood flood-opacity="0" result="BackgroundImageFix"/>
            <feBlend mode="normal" in="SourceGraphic" in2="BackgroundImageFix" result="shape"/>
            <feColorMatrix in="SourceAlpha" type="matrix" values="0 0 0 0 0 0 0 0 0 0 0 0 0 0 0 0 0 0 127 0" result="hardAlpha"/>
            <feOffset dx="-8" dy="-4"/>
            <feComposite in2="hardAlpha" operator="arithmetic" k2="-1" k3="1"/>
            <feColorMatrix type="matrix" values="0 0 0 0 0.0666667 0 0 0 0 0.0196078 0 0 0 0 0.160784 0 0 0 0.16 0"/>
            <feBlend mode="normal" in2="shape" result="effect1_innerShadow_6150_38981"/>
        </filter>
        <filter id="filter9_i_6150_38981" x="665" y="291" width="67.0312" height="54" filterUnits="userSpaceOnUse" color-interpolation-filters="sRGB">
            <feFlood flood-opacity="0" result="BackgroundImageFix"/>
            <feBlend mode="normal" in="SourceGraphic" in2="BackgroundImageFix" result="shape"/>
            <feColorMatrix in="SourceAlpha" type="matrix" values="0 0 0 0 0 0 0 0 0 0 0 0 0 0 0 0 0 0 127 0" result="hardAlpha"/>
            <feOffset dx="-8" dy="-4"/>
            <feComposite in2="hardAlpha" operator="arithmetic" k2="-1" k3="1"/>
            <feColorMatrix type="matrix" values="0 0 0 0 0.0666667 0 0 0 0 0.0196078 0 0 0 0 0.160784 0 0 0 0.16 0"/>
            <feBlend mode="normal" in2="shape" result="effect1_innerShadow_6150_38981"/>
        </filter>
    </defs>
</svg>
