<svg width="960" height="476" viewBox="0 0 960 476" fill="none" xmlns="http://www.w3.org/2000/svg">
    <rect width="960" height="476" fill="white"/>
    <path d="M108.703 37H110.166V32.695H113.834V31.225H110.166V28.383H114.674V26.92H108.703V37ZM115.935 37H117.398V33.381H120.072L121.829 37H123.502L121.598 33.094C122.739 32.597 123.313 31.491 123.313 30.147C123.313 28.516 122.473 27.235 120.786 26.976C120.52 26.934 120.205 26.92 120.009 26.92H115.935V37ZM117.398 31.995V28.299H119.953C120.135 28.299 120.38 28.313 120.59 28.369C121.486 28.579 121.822 29.405 121.822 30.147C121.822 30.889 121.486 31.715 120.59 31.932C120.38 31.981 120.135 31.995 119.953 31.995H117.398ZM124.761 36.993H131.579V35.6H127.022L129.941 32.996C131.033 32.037 131.579 31.407 131.579 30.028C131.579 28.117 130.144 26.71 128.24 26.71C126.231 26.71 124.796 28.047 124.796 30H126.294C126.28 28.985 127.092 28.103 128.212 28.103C129.297 28.103 130.074 28.929 130.074 30.007C130.074 30.581 129.864 31.127 129.157 31.757L124.768 35.691L124.761 36.993Z" fill="#D3D7E0"/>
    <path d="M194 112V24" stroke="#D3D7E0" stroke-width="2" stroke-linecap="square" stroke-dasharray="6 6"/>
    <path d="M254.58 37.21C256.904 37.21 258.465 35.943 259.06 33.955L257.576 33.556C257.177 34.963 256.176 35.817 254.58 35.817C252.438 35.817 251.346 34.27 251.36 31.96C251.367 29.65 252.438 28.103 254.58 28.103C256.176 28.103 257.177 28.957 257.576 30.364L259.06 29.965C258.465 27.977 256.904 26.71 254.58 26.71C251.556 26.71 249.813 28.845 249.813 31.96C249.813 35.075 251.556 37.21 254.58 37.21ZM260.599 37H263.756C263.938 37 264.54 37 265.009 36.937C267.375 36.636 268.635 34.529 268.635 31.96C268.635 29.391 267.375 27.284 265.009 26.983C264.54 26.92 263.938 26.92 263.756 26.92H260.599V37ZM262.097 35.607V28.313H263.756C264.064 28.313 264.568 28.32 264.904 28.383C266.416 28.663 267.081 30.189 267.081 31.96C267.081 33.689 266.444 35.243 264.904 35.537C264.568 35.6 264.078 35.607 263.756 35.607H262.097ZM270.265 37H271.728V33.381H274.402L276.159 37H277.832L275.928 33.094C277.069 32.597 277.643 31.491 277.643 30.147C277.643 28.516 276.803 27.235 275.116 26.976C274.85 26.934 274.535 26.92 274.339 26.92H270.265V37ZM271.728 31.995V28.299H274.283C274.465 28.299 274.71 28.313 274.92 28.369C275.816 28.579 276.152 29.405 276.152 30.147C276.152 30.889 275.816 31.715 274.92 31.932C274.71 31.981 274.465 31.995 274.283 31.995H271.728ZM279.091 36.993H285.909V35.6H281.352L284.271 32.996C285.363 32.037 285.909 31.407 285.909 30.028C285.909 28.117 284.474 26.71 282.57 26.71C280.561 26.71 279.126 28.047 279.126 30H280.624C280.61 28.985 281.422 28.103 282.542 28.103C283.627 28.103 284.404 28.929 284.404 30.007C284.404 30.581 284.194 31.127 283.487 31.757L279.098 35.691L279.091 36.993Z" fill="#D3D7E0"/>
    <path d="M342 112V24" stroke="#D3D7E0" stroke-width="2" stroke-linecap="square" stroke-dasharray="6 6"/>
    <path d="M404.805 37H406.268V32.695H409.936V31.225H406.268V28.383H410.776V26.92H404.805V37ZM412.038 37H413.501V33.381H416.175L417.932 37H419.605L417.701 33.094C418.842 32.597 419.416 31.491 419.416 30.147C419.416 28.516 418.576 27.235 416.889 26.976C416.623 26.934 416.308 26.92 416.112 26.92H412.038V37ZM413.501 31.995V28.299H416.056C416.238 28.299 416.483 28.313 416.693 28.369C417.589 28.579 417.925 29.405 417.925 30.147C417.925 30.889 417.589 31.715 416.693 31.932C416.483 31.981 416.238 31.995 416.056 31.995H413.501ZM423.964 37.189C425.847 37.189 427.331 35.796 427.331 33.871C427.331 32.233 426.323 30.924 424.692 30.707L427.184 28.313V26.92H421.122V28.313H425.392L422.312 31.036L422.998 32.191C423.285 32.037 423.628 31.939 423.95 31.939C425.07 31.939 425.833 32.751 425.833 33.871C425.833 34.984 425.07 35.789 423.964 35.803C423.138 35.81 422.403 35.341 422.137 34.466L420.723 34.858C421.15 36.293 422.466 37.189 423.964 37.189Z" fill="#D3D7E0"/>
    <path d="M490 112V24" stroke="#D3D7E0" stroke-width="2" stroke-linecap="square" stroke-dasharray="6 6"/>
    <path d="M538.682 37.21C541.006 37.21 542.567 35.943 543.162 33.955L541.678 33.556C541.279 34.963 540.278 35.817 538.682 35.817C536.54 35.817 535.448 34.27 535.462 31.96C535.469 29.65 536.54 28.103 538.682 28.103C540.278 28.103 541.279 28.957 541.678 30.364L543.162 29.965C542.567 27.977 541.006 26.71 538.682 26.71C535.658 26.71 533.915 28.845 533.915 31.96C533.915 35.075 535.658 37.21 538.682 37.21ZM544.702 37H547.859C548.041 37 548.643 37 549.112 36.937C551.478 36.636 552.738 34.529 552.738 31.96C552.738 29.391 551.478 27.284 549.112 26.983C548.643 26.92 548.041 26.92 547.859 26.92H544.702V37ZM546.2 35.607V28.313H547.859C548.167 28.313 548.671 28.32 549.007 28.383C550.519 28.663 551.184 30.189 551.184 31.96C551.184 33.689 550.547 35.243 549.007 35.537C548.671 35.6 548.181 35.607 547.859 35.607H546.2ZM554.368 37H555.831V33.381H558.505L560.262 37H561.935L560.031 33.094C561.172 32.597 561.746 31.491 561.746 30.147C561.746 28.516 560.906 27.235 559.219 26.976C558.953 26.934 558.638 26.92 558.442 26.92H554.368V37ZM555.831 31.995V28.299H558.386C558.568 28.299 558.813 28.313 559.023 28.369C559.919 28.579 560.255 29.405 560.255 30.147C560.255 30.889 559.919 31.715 559.023 31.932C558.813 31.981 558.568 31.995 558.386 31.995H555.831ZM566.294 37.189C568.177 37.189 569.661 35.796 569.661 33.871C569.661 32.233 568.653 30.924 567.022 30.707L569.514 28.313V26.92H563.452V28.313H567.722L564.642 31.036L565.328 32.191C565.615 32.037 565.958 31.939 566.28 31.939C567.4 31.939 568.163 32.751 568.163 33.871C568.163 34.984 567.4 35.789 566.294 35.803C565.468 35.81 564.733 35.341 564.467 34.466L563.053 34.858C563.48 36.293 564.796 37.189 566.294 37.189Z" fill="#D3D7E0"/>
    <path d="M612 112V24" stroke="#D3D7E0" stroke-width="2" stroke-linecap="square" stroke-dasharray="6 6"/>
    <path d="M660.593 37H662.056V32.695H665.724V31.225H662.056V28.383H666.564V26.92H660.593V37ZM667.826 37H669.289V33.381H671.963L673.72 37H675.393L673.489 33.094C674.63 32.597 675.204 31.491 675.204 30.147C675.204 28.516 674.364 27.235 672.677 26.976C672.411 26.934 672.096 26.92 671.9 26.92H667.826V37ZM669.289 31.995V28.299H671.844C672.026 28.299 672.271 28.313 672.481 28.369C673.377 28.579 673.713 29.405 673.713 30.147C673.713 30.889 673.377 31.715 672.481 31.932C672.271 31.981 672.026 31.995 671.844 31.995H669.289ZM681.201 37H682.685V35.243H683.686V33.857H682.685V31.127H681.201V33.857H678.324L681.6 26.92H679.927L676.651 33.857V35.243H681.201V37Z" fill="#D3D7E0"/>
    <path d="M732 112V24" stroke="#D3D7E0" stroke-width="2" stroke-linecap="square" stroke-dasharray="6 6"/>
    <g filter="url(#filter0_i_6150_38868)">
        <path d="M101 84H502.4C502.96 84 503.24 84 503.454 84.109C503.642 84.2049 503.795 84.3578 503.891 84.546C504 84.7599 504 85.0399 504 85.6V134.4C504 134.96 504 135.24 503.891 135.454C503.795 135.642 503.642 135.795 503.454 135.891C503.24 136 502.96 136 502.4 136H101L96 129.5L101 123L96 116L101 110L96 103.5L101 97L96 90.5L101 84Z" fill="#99E099"/>
    </g>
    <path d="M101 84H502.4C502.96 84 503.24 84 503.454 84.109C503.642 84.2049 503.795 84.3578 503.891 84.546C504 84.7599 504 85.0399 504 85.6V134.4C504 134.96 504 135.24 503.891 135.454C503.795 135.642 503.642 135.795 503.454 135.891C503.24 136 502.96 136 502.4 136H101L96 129.5L101 123L96 116L101 110L96 103.5L101 97L96 90.5L101 84Z" stroke="#110529" stroke-width="2" stroke-linecap="round"/>
    <path d="M299.258 118H301.738L306.558 103.6H304.708L300.478 116.11L296.288 103.6H294.438L299.258 118Z" fill="#110529"/>
    <g filter="url(#filter1_i_6150_38868)">
        <rect x="504" y="84" width="30" height="52" rx="1" fill="#CBEB67"/>
    </g>
    <rect x="504" y="84" width="30" height="52" rx="1" stroke="#110529" stroke-width="2" stroke-linecap="round"/>
    <g filter="url(#filter2_i_6150_38868)">
        <rect x="570" y="84" width="30" height="52" rx="1" fill="#FAAAFA"/>
    </g>
    <rect x="570" y="84" width="30" height="52" rx="1" stroke="#110529" stroke-width="2" stroke-linecap="round"/>
    <g filter="url(#filter3_i_6150_38868)">
        <rect x="534" y="84" width="36" height="52" rx="1" fill="#FFCB8F"/>
    </g>
    <rect x="534" y="84" width="36" height="52" rx="1" stroke="#110529" stroke-width="2" stroke-linecap="round"/>
    <path d="M513.447 118V103.6H515.247L522.757 114.85V103.6H524.557V118H522.757L515.247 106.74V118H513.447Z" fill="#110529"/>
    <path d="M579.447 118V103.6H581.247L588.757 114.85V103.6H590.557V118H588.757L581.247 106.74V118H579.447Z" fill="#110529"/>
    <path d="M546.593 118V103.6H551.033C551.18 103.6 551.437 103.603 551.803 103.61C552.17 103.617 552.52 103.643 552.853 103.69C553.967 103.837 554.897 104.243 555.643 104.91C556.397 105.57 556.963 106.41 557.343 107.43C557.723 108.45 557.913 109.573 557.913 110.8C557.913 112.027 557.723 113.15 557.343 114.17C556.963 115.19 556.397 116.033 555.643 116.7C554.897 117.36 553.967 117.763 552.853 117.91C552.52 117.95 552.167 117.977 551.793 117.99C551.427 117.997 551.173 118 551.033 118H546.593ZM548.423 116.3H551.033C551.287 116.3 551.57 116.293 551.883 116.28C552.197 116.26 552.47 116.23 552.703 116.19C553.49 116.043 554.127 115.713 554.613 115.2C555.1 114.687 555.457 114.047 555.683 113.28C555.91 112.513 556.023 111.687 556.023 110.8C556.023 109.893 555.907 109.057 555.673 108.29C555.447 107.523 555.09 106.887 554.603 106.38C554.117 105.873 553.483 105.55 552.703 105.41C552.47 105.363 552.193 105.333 551.873 105.32C551.553 105.307 551.273 105.3 551.033 105.3H548.423V116.3Z" fill="#110529"/>
    <g filter="url(#filter4_i_6150_38868)">
        <rect x="600" y="84" width="132" height="52" rx="1" fill="#C1ADFF"/>
        <path d="M665.244 118.29C666.694 118.29 667.954 117.7 668.684 116.43C669.214 115.51 669.154 114.72 669.154 113.48V103.6H667.354V113.48C667.354 114.37 667.354 114.99 667.094 115.51C666.704 116.29 665.884 116.6 665.204 116.6C664.134 116.6 663.224 115.83 663.014 114.85L661.244 115.27C661.754 117.11 663.224 118.29 665.244 118.29Z" fill="#110529"/>
        <rect x="600" y="84" width="132" height="52" rx="1" stroke="#110529" stroke-width="2" stroke-linecap="round"/>
    </g>
    <g filter="url(#filter5_i_6150_38868)">
        <path d="M796 84H733.6C733.04 84 732.76 84 732.546 84.109C732.358 84.2049 732.205 84.3578 732.109 84.546C732 84.7599 732 85.0399 732 85.6V134.4C732 134.96 732 135.24 732.109 135.454C732.205 135.642 732.358 135.795 732.546 135.891C732.76 136 733.04 136 733.6 136H796L791 129.5L796 123L791 116L796 110L791 103.5L796 97L791 90.5L796 84Z" fill="#FAFAAA"/>
    </g>
    <path d="M796 84H733.6C733.04 84 732.76 84 732.546 84.109C732.358 84.2049 732.205 84.3578 732.109 84.546C732 84.7599 732 85.0399 732 85.6V134.4C732 134.96 732 135.24 732.109 135.454C732.205 135.642 732.358 135.795 732.546 135.891C732.76 136 733.04 136 733.6 136H796L791 129.5L796 123L791 116L796 110L791 103.5L796 97L791 90.5L796 84Z" stroke="#110529" stroke-width="2" stroke-linecap="round"/>
    <path d="M764.593 118.3C767.923 118.3 770.113 116.47 770.933 113.61L769.123 113.13C768.533 115.27 767.023 116.6 764.593 116.6C761.373 116.6 759.733 114.25 759.753 110.8C759.773 107.35 761.373 105 764.593 105C767.023 105 768.533 106.33 769.123 108.47L770.933 107.99C770.113 105.13 767.923 103.3 764.593 103.3C760.283 103.3 757.873 106.36 757.873 110.8C757.873 115.24 760.283 118.3 764.593 118.3Z" fill="#110529"/>
    <g filter="url(#filter6_i_6150_38868)">
        <path d="M101 292H502.4C502.96 292 503.24 292 503.454 292.109C503.642 292.205 503.795 292.358 503.891 292.546C504 292.76 504 293.04 504 293.6V342.4C504 342.96 504 343.24 503.891 343.454C503.795 343.642 503.642 343.795 503.454 343.891C503.24 344 502.96 344 502.4 344H101L96 337.5L101 331L96 324L101 318L96 311.5L101 305L96 298.5L101 292Z" fill="#99E099"/>
    </g>
    <path d="M101 292H502.4C502.96 292 503.24 292 503.454 292.109C503.642 292.205 503.795 292.358 503.891 292.546C504 292.76 504 293.04 504 293.6V342.4C504 342.96 504 343.24 503.891 343.454C503.795 343.642 503.642 343.795 503.454 343.891C503.24 344 502.96 344 502.4 344H101L96 337.5L101 331L96 324L101 318L96 311.5L101 305L96 298.5L101 292Z" stroke="#110529" stroke-width="2" stroke-linecap="round"/>
    <path d="M299.258 326H301.738L306.558 311.6H304.708L300.478 324.11L296.288 311.6H294.438L299.258 326Z" fill="#110529"/>
    <g filter="url(#filter7_i_6150_38868)">
        <rect x="504" y="292" width="30" height="52" rx="1" fill="#CBEB67"/>
    </g>
    <rect x="504" y="292" width="30" height="52" rx="1" stroke="#110529" stroke-width="2" stroke-linecap="round"/>
    <path d="M513.447 326H515.247V314.74L522.757 326H524.557V311.6H522.757V322.85L515.247 311.6H513.447V326Z" fill="#110529"/>
    <g filter="url(#filter8_i_6150_38868)">
        <rect x="534" y="292" width="132" height="52" rx="1" fill="#C1ADFF"/>
        <path d="M599.244 326.29C600.694 326.29 601.954 325.7 602.684 324.43C603.214 323.51 603.154 322.72 603.154 321.48V311.6H601.354V321.48C601.354 322.37 601.354 322.99 601.094 323.51C600.704 324.29 599.884 324.6 599.204 324.6C598.134 324.6 597.224 323.83 597.014 322.85L595.244 323.27C595.754 325.11 597.224 326.29 599.244 326.29Z" fill="#110529"/>
        <rect x="534" y="292" width="132" height="52" rx="1" stroke="#110529" stroke-width="2" stroke-linecap="round"/>
    </g>
    <g filter="url(#filter9_i_6150_38868)">
        <path d="M730 292H667.6C667.04 292 666.76 292 666.546 292.109C666.358 292.205 666.205 292.358 666.109 292.546C666 292.76 666 293.04 666 293.6V342.4C666 342.96 666 343.24 666.109 343.454C666.205 343.642 666.358 343.795 666.546 343.891C666.76 344 667.04 344 667.6 344H730L725 337.5L730 331L725 324L730 318L725 311.5L730 305L725 298.5L730 292Z" fill="#FAFAAA"/>
    </g>
    <path d="M730 292H667.6C667.04 292 666.76 292 666.546 292.109C666.358 292.205 666.205 292.358 666.109 292.546C666 292.76 666 293.04 666 293.6V342.4C666 342.96 666 343.24 666.109 343.454C666.205 343.642 666.358 343.795 666.546 343.891C666.76 344 667.04 344 667.6 344H730L725 337.5L730 331L725 324L730 318L725 311.5L730 305L725 298.5L730 292Z" stroke="#110529" stroke-width="2" stroke-linecap="round"/>
    <path d="M698.593 326.3C701.923 326.3 704.113 324.47 704.933 321.61L703.123 321.13C702.533 323.27 701.023 324.6 698.593 324.6C695.373 324.6 693.733 322.25 693.753 318.8C693.773 315.35 695.373 313 698.593 313C701.023 313 702.533 314.33 703.123 316.47L704.933 315.99C704.113 313.13 701.923 311.3 698.593 311.3C694.283 311.3 691.873 314.36 691.873 318.8C691.873 323.24 694.283 326.3 698.593 326.3Z" fill="#110529"/>
    <path d="M328 160L327.293 160.707L326.586 160L327.293 159.293L328 160ZM335.293 151.293L336 150.586L337.414 152L336.707 152.707L335.293 151.293ZM336.707 167.293L337.414 168L336 169.414L335.293 168.707L336.707 167.293ZM338 161L328 161L328 159L338 159L338 161ZM327.293 159.293L335.293 151.293L336.707 152.707L328.707 160.707L327.293 159.293ZM328.707 159.293L336.707 167.293L335.293 168.707L327.293 160.707L328.707 159.293Z" fill="#110529"/>
    <path d="M521.5 160H338" stroke="#110529" stroke-width="2"/>
    <rect width="57" height="20" transform="translate(521.5 150)" fill="white"/>
    <path d="M526.933 165.992H534.589V164.632H529.125L532.837 161.296C534.021 160.248 534.589 159.488 534.589 157.976C534.589 155.856 532.973 154.24 530.837 154.24C528.621 154.24 526.989 155.784 526.989 157.952H528.445C528.429 156.696 529.437 155.6 530.813 155.6C532.141 155.6 533.133 156.632 533.133 157.96C533.133 158.688 532.901 159.352 532.053 160.112L526.941 164.712L526.933 165.992ZM539.911 166.24C542.055 166.24 543.871 164.504 543.871 162.376C543.871 160.232 542.247 158.584 540.111 158.584C539.335 158.584 538.559 158.848 537.959 159.328L538.167 155.832H543.071V154.48H536.887L536.535 160.504L537.799 160.984C538.215 160.384 538.935 159.896 539.951 159.896C541.295 159.896 542.439 160.984 542.439 162.376C542.439 163.728 541.351 164.856 539.951 164.856C538.879 164.856 537.839 164.144 537.551 163.008L536.183 163.376C536.647 165.056 538.127 166.24 539.911 166.24ZM549.672 166.24C551.912 166.24 553.56 164.592 553.56 162.352V158.128C553.56 155.888 551.912 154.24 549.672 154.24C547.432 154.24 545.784 155.888 545.784 158.128V162.352C545.784 164.592 547.432 166.24 549.672 166.24ZM547.232 162.432V158.04C547.232 156.688 548.32 155.6 549.672 155.6C551.024 155.6 552.112 156.688 552.112 158.04V162.432C552.112 163.784 551.024 164.872 549.672 164.872C548.32 164.872 547.232 163.784 547.232 162.432ZM559.768 166.24C562.184 166.24 563.64 164.264 563.64 161.672C563.64 159.08 562.176 157.12 559.776 157.12C558.696 157.12 557.84 157.496 557.224 158.144V154.48H555.792V166H557.064V165.024C557.696 165.784 558.6 166.24 559.768 166.24ZM557.064 161.672C557.064 159.76 557.864 158.424 559.552 158.424C561.312 158.424 562.128 159.848 562.128 161.672C562.128 163.512 561.296 164.936 559.592 164.936C557.848 164.936 557.064 163.568 557.064 161.672ZM569.361 166.24C571.777 166.24 573.233 164.264 573.233 161.672C573.233 159.08 571.769 157.12 569.369 157.12C568.193 157.12 567.289 157.568 566.657 158.328V157.36H565.385V169.84H566.817V165.2C567.433 165.856 568.289 166.24 569.361 166.24ZM566.657 161.672C566.657 159.76 567.457 158.424 569.145 158.424C570.905 158.424 571.721 159.848 571.721 161.672C571.721 163.512 570.889 164.936 569.185 164.936C567.441 164.936 566.657 163.568 566.657 161.672Z" fill="#110529"/>
    <path d="M762 160H578.5" stroke="#110529" stroke-width="2"/>
    <path d="M767.28 166H774.048V164.648H768.704V154.48H767.28V166ZM775.401 166H776.825V161.744H780.193L782.257 166H783.889L781.665 161.432C782.969 160.888 783.649 159.632 783.649 158.112C783.649 156.28 782.665 154.832 780.801 154.544C780.505 154.496 780.177 154.48 779.953 154.48H775.401V166ZM776.825 160.392V155.832H779.905C780.105 155.832 780.385 155.848 780.625 155.904C781.729 156.152 782.193 157.152 782.193 158.112C782.193 159.072 781.729 160.072 780.625 160.32C780.385 160.376 780.105 160.392 779.905 160.392H776.825ZM787.659 166H789.107V154.48H787.659L785.491 155.776V157.368L787.659 156.056V166Z" fill="#110529"/>
    <rect x="762" y="148" width="34" height="24" rx="1" stroke="#110529" stroke-width="2"/>
    <path d="M270 368L269.293 368.707L268.586 368L269.293 367.293L270 368ZM277.293 359.293L278 358.586L279.414 360L278.707 360.707L277.293 359.293ZM278.707 375.293L279.414 376L278 377.414L277.293 376.707L278.707 375.293ZM280 369L270 369L270 367L280 367L280 369ZM269.293 367.293L277.293 359.293L278.707 360.707L270.707 368.707L269.293 367.293ZM270.707 367.293L278.707 375.293L277.293 376.707L269.293 368.707L270.707 367.293Z" fill="#110529"/>
    <path d="M459.5 368H280" stroke="#110529" stroke-width="2"/>
    <rect width="57" height="20" transform="translate(459.5 358)" fill="white"/>
    <path d="M464.933 373.992H472.589V372.632H467.125L470.837 369.296C472.021 368.248 472.589 367.488 472.589 365.976C472.589 363.856 470.973 362.24 468.837 362.24C466.621 362.24 464.989 363.784 464.989 365.952H466.445C466.429 364.696 467.437 363.6 468.813 363.6C470.141 363.6 471.133 364.632 471.133 365.96C471.133 366.688 470.901 367.352 470.053 368.112L464.941 372.712L464.933 373.992ZM477.911 374.24C480.055 374.24 481.871 372.504 481.871 370.376C481.871 368.232 480.247 366.584 478.111 366.584C477.335 366.584 476.559 366.848 475.959 367.328L476.167 363.832H481.071V362.48H474.887L474.535 368.504L475.799 368.984C476.215 368.384 476.935 367.896 477.951 367.896C479.295 367.896 480.439 368.984 480.439 370.376C480.439 371.728 479.351 372.856 477.951 372.856C476.879 372.856 475.839 372.144 475.551 371.008L474.183 371.376C474.647 373.056 476.127 374.24 477.911 374.24ZM487.672 374.24C489.912 374.24 491.56 372.592 491.56 370.352V366.128C491.56 363.888 489.912 362.24 487.672 362.24C485.432 362.24 483.784 363.888 483.784 366.128V370.352C483.784 372.592 485.432 374.24 487.672 374.24ZM485.232 370.432V366.04C485.232 364.688 486.32 363.6 487.672 363.6C489.024 363.6 490.112 364.688 490.112 366.04V370.432C490.112 371.784 489.024 372.872 487.672 372.872C486.32 372.872 485.232 371.784 485.232 370.432ZM497.768 374.24C500.184 374.24 501.64 372.264 501.64 369.672C501.64 367.08 500.176 365.12 497.776 365.12C496.696 365.12 495.84 365.496 495.224 366.144V362.48H493.792V374H495.064V373.024C495.696 373.784 496.6 374.24 497.768 374.24ZM495.064 369.672C495.064 367.76 495.864 366.424 497.552 366.424C499.312 366.424 500.128 367.848 500.128 369.672C500.128 371.512 499.296 372.936 497.592 372.936C495.848 372.936 495.064 371.568 495.064 369.672ZM507.361 374.24C509.777 374.24 511.233 372.264 511.233 369.672C511.233 367.08 509.769 365.12 507.369 365.12C506.193 365.12 505.289 365.568 504.657 366.328V365.36H503.385V377.84H504.817V373.2C505.433 373.856 506.289 374.24 507.361 374.24ZM504.657 369.672C504.657 367.76 505.457 366.424 507.145 366.424C508.905 366.424 509.721 367.848 509.721 369.672C509.721 371.512 508.889 372.936 507.185 372.936C505.441 372.936 504.657 371.568 504.657 369.672Z" fill="#110529"/>
    <path d="M696 368H516.5" stroke="#110529" stroke-width="2"/>
    <path d="M701.28 374H708.048V372.648H702.704V362.48H701.28V374ZM709.401 374H710.825V369.744H714.193L716.257 374H717.889L715.665 369.432C716.969 368.888 717.649 367.632 717.649 366.112C717.649 364.28 716.665 362.832 714.801 362.544C714.505 362.496 714.177 362.48 713.953 362.48H709.401V374ZM710.825 368.392V363.832H713.905C714.105 363.832 714.385 363.848 714.625 363.904C715.729 364.152 716.193 365.152 716.193 366.112C716.193 367.072 715.729 368.072 714.625 368.32C714.385 368.376 714.105 368.392 713.905 368.392H710.825ZM721.659 374H723.107V362.48H721.659L719.491 363.776V365.368L721.659 364.056V374Z" fill="#110529"/>
    <rect x="696" y="356" width="34" height="24" rx="1" stroke="#110529" stroke-width="2"/>
    <path d="M435 208L434.293 208.707L433.586 208L434.293 207.293L435 208ZM442.293 199.293L443 198.586L444.414 200L443.707 200.707L442.293 199.293ZM443.707 215.293L444.414 216L443 217.414L442.293 216.707L443.707 215.293ZM445 209L435 209L435 207L445 207L445 209ZM434.293 207.293L442.293 199.293L443.707 200.707L435.707 208.707L434.293 207.293ZM435.707 207.293L443.707 215.293L442.293 216.707L434.293 208.707L435.707 207.293Z" fill="#110529"/>
    <path d="M574.5 208H445" stroke="#110529" stroke-width="2"/>
    <rect width="57" height="20" transform="translate(574.5 198)" fill="white"/>
    <path d="M583.269 214H584.717V202.48H583.269L581.101 203.776V205.368L583.269 204.056V214ZM591.649 214.24C593.889 214.24 595.537 212.592 595.537 210.352V206.128C595.537 203.888 593.889 202.24 591.649 202.24C589.409 202.24 587.761 203.888 587.761 206.128V210.352C587.761 212.592 589.409 214.24 591.649 214.24ZM589.209 210.432V206.04C589.209 204.688 590.297 203.6 591.649 203.6C593.001 203.6 594.089 204.688 594.089 206.04V210.432C594.089 211.784 593.001 212.872 591.649 212.872C590.297 212.872 589.209 211.784 589.209 210.432ZM601.664 214.24C603.904 214.24 605.552 212.592 605.552 210.352V206.128C605.552 203.888 603.904 202.24 601.664 202.24C599.424 202.24 597.776 203.888 597.776 206.128V210.352C597.776 212.592 599.424 214.24 601.664 214.24ZM599.224 210.432V206.04C599.224 204.688 600.312 203.6 601.664 203.6C603.016 203.6 604.104 204.688 604.104 206.04V210.432C604.104 211.784 603.016 212.872 601.664 212.872C600.312 212.872 599.224 211.784 599.224 210.432ZM611.76 214.24C614.176 214.24 615.632 212.264 615.632 209.672C615.632 207.08 614.168 205.12 611.768 205.12C610.688 205.12 609.832 205.496 609.216 206.144V202.48H607.784V214H609.056V213.024C609.688 213.784 610.592 214.24 611.76 214.24ZM609.056 209.672C609.056 207.76 609.856 206.424 611.544 206.424C613.304 206.424 614.12 207.848 614.12 209.672C614.12 211.512 613.288 212.936 611.584 212.936C609.84 212.936 609.056 211.568 609.056 209.672ZM621.354 214.24C623.77 214.24 625.226 212.264 625.226 209.672C625.226 207.08 623.762 205.12 621.362 205.12C620.186 205.12 619.282 205.568 618.65 206.328V205.36H617.378V217.84H618.81V213.2C619.426 213.856 620.282 214.24 621.354 214.24ZM618.65 209.672C618.65 207.76 619.45 206.424 621.138 206.424C622.898 206.424 623.714 207.848 623.714 209.672C623.714 211.512 622.882 212.936 621.178 212.936C619.434 212.936 618.65 211.568 618.65 209.672Z" fill="#110529"/>
    <path d="M761 208H631.5" stroke="#110529" stroke-width="2"/>
    <path d="M770.208 214.24C772.6 214.24 774.52 213.016 774.52 210.784C774.52 208.568 772.624 208 771.624 207.72L769.432 207.088C768.576 206.848 767.512 206.48 767.512 205.416C767.512 204.352 768.608 203.584 770.024 203.6C771.488 203.616 772.696 204.48 772.936 205.88L774.448 205.616C774.024 203.52 772.36 202.264 770.04 202.248C767.744 202.24 766.008 203.44 766.008 205.48C766.008 207.184 767.224 207.928 768.504 208.304L771.44 209.176C772.264 209.424 773.048 209.856 773.048 210.864C773.048 212.12 771.824 212.888 770.28 212.888C768.672 212.888 767.4 212.032 767.032 210.576L765.56 210.808C765.944 212.928 767.76 214.24 770.208 214.24ZM776.198 214H777.622V209.744H780.99L783.054 214H784.686L782.462 209.432C783.766 208.888 784.446 207.632 784.446 206.112C784.446 204.28 783.462 202.832 781.598 202.544C781.302 202.496 780.974 202.48 780.75 202.48H776.198V214ZM777.622 208.392V203.832H780.702C780.902 203.832 781.182 203.848 781.422 203.904C782.526 204.152 782.99 205.152 782.99 206.112C782.99 207.072 782.526 208.072 781.422 208.32C781.182 208.376 780.902 208.392 780.702 208.392H777.622ZM788.456 214H789.904V202.48H788.456L786.288 203.776V205.368L788.456 204.056V214Z" fill="#110529"/>
    <rect x="761" y="196" width="35" height="24" rx="1" stroke="#110529" stroke-width="2"/>
    <path d="M401 416L400.293 416.707L399.586 416L400.293 415.293L401 416ZM408.293 407.293L409 406.586L410.414 408L409.707 408.707L408.293 407.293ZM409.707 423.293L410.414 424L409 425.414L408.293 424.707L409.707 423.293ZM411 417L401 417L401 415L411 415L411 417ZM400.293 415.293L408.293 407.293L409.707 408.707L401.707 416.707L400.293 415.293ZM401.707 415.293L409.707 423.293L408.293 424.707L400.293 416.707L401.707 415.293Z" fill="#110529"/>
    <path d="M524.5 416H411" stroke="#110529" stroke-width="2"/>
    <rect width="57" height="20" transform="translate(524.5 406)" fill="white"/>
    <path d="M533.269 422H534.717V410.48H533.269L531.101 411.776V413.368L533.269 412.056V422ZM541.649 422.24C543.889 422.24 545.537 420.592 545.537 418.352V414.128C545.537 411.888 543.889 410.24 541.649 410.24C539.409 410.24 537.761 411.888 537.761 414.128V418.352C537.761 420.592 539.409 422.24 541.649 422.24ZM539.209 418.432V414.04C539.209 412.688 540.297 411.6 541.649 411.6C543.001 411.6 544.089 412.688 544.089 414.04V418.432C544.089 419.784 543.001 420.872 541.649 420.872C540.297 420.872 539.209 419.784 539.209 418.432ZM551.664 422.24C553.904 422.24 555.552 420.592 555.552 418.352V414.128C555.552 411.888 553.904 410.24 551.664 410.24C549.424 410.24 547.776 411.888 547.776 414.128V418.352C547.776 420.592 549.424 422.24 551.664 422.24ZM549.224 418.432V414.04C549.224 412.688 550.312 411.6 551.664 411.6C553.016 411.6 554.104 412.688 554.104 414.04V418.432C554.104 419.784 553.016 420.872 551.664 420.872C550.312 420.872 549.224 419.784 549.224 418.432ZM561.76 422.24C564.176 422.24 565.632 420.264 565.632 417.672C565.632 415.08 564.168 413.12 561.768 413.12C560.688 413.12 559.832 413.496 559.216 414.144V410.48H557.784V422H559.056V421.024C559.688 421.784 560.592 422.24 561.76 422.24ZM559.056 417.672C559.056 415.76 559.856 414.424 561.544 414.424C563.304 414.424 564.12 415.848 564.12 417.672C564.12 419.512 563.288 420.936 561.584 420.936C559.84 420.936 559.056 419.568 559.056 417.672ZM571.354 422.24C573.77 422.24 575.226 420.264 575.226 417.672C575.226 415.08 573.762 413.12 571.362 413.12C570.186 413.12 569.282 413.568 568.65 414.328V413.36H567.378V425.84H568.81V421.2C569.426 421.856 570.282 422.24 571.354 422.24ZM568.65 417.672C568.65 415.76 569.45 414.424 571.138 414.424C572.898 414.424 573.714 415.848 573.714 417.672C573.714 419.512 572.882 420.936 571.178 420.936C569.434 420.936 568.65 419.568 568.65 417.672Z" fill="#110529"/>
    <path d="M695 416H581.5" stroke="#110529" stroke-width="2"/>
    <path d="M704.208 422.24C706.6 422.24 708.52 421.016 708.52 418.784C708.52 416.568 706.624 416 705.624 415.72L703.432 415.088C702.576 414.848 701.512 414.48 701.512 413.416C701.512 412.352 702.608 411.584 704.024 411.6C705.488 411.616 706.696 412.48 706.936 413.88L708.448 413.616C708.024 411.52 706.36 410.264 704.04 410.248C701.744 410.24 700.008 411.44 700.008 413.48C700.008 415.184 701.224 415.928 702.504 416.304L705.44 417.176C706.264 417.424 707.048 417.856 707.048 418.864C707.048 420.12 705.824 420.888 704.28 420.888C702.672 420.888 701.4 420.032 701.032 418.576L699.56 418.808C699.944 420.928 701.76 422.24 704.208 422.24ZM710.198 422H711.622V417.744H714.99L717.054 422H718.686L716.462 417.432C717.766 416.888 718.446 415.632 718.446 414.112C718.446 412.28 717.462 410.832 715.598 410.544C715.302 410.496 714.974 410.48 714.75 410.48H710.198V422ZM711.622 416.392V411.832H714.702C714.902 411.832 715.182 411.848 715.422 411.904C716.526 412.152 716.99 413.152 716.99 414.112C716.99 415.072 716.526 416.072 715.422 416.32C715.182 416.376 714.902 416.392 714.702 416.392H711.622ZM722.456 422H723.904V410.48H722.456L720.288 411.776V413.368L722.456 412.056V422Z" fill="#110529"/>
    <rect x="695" y="404" width="35" height="24" rx="1" stroke="#110529" stroke-width="2"/>
    <path d="M101.28 190H108.048V188.648H102.704V178.48H101.28V190ZM109.401 190H110.825V185.744H114.193L116.257 190H117.889L115.665 185.432C116.969 184.888 117.649 183.632 117.649 182.112C117.649 180.28 116.665 178.832 114.801 178.544C114.505 178.496 114.177 178.48 113.953 178.48H109.401V190ZM110.825 184.392V179.832H113.905C114.105 179.832 114.385 179.848 114.625 179.904C115.729 180.152 116.193 181.152 116.193 182.112C116.193 183.072 115.729 184.072 114.625 184.32C114.385 184.376 114.105 184.392 113.905 184.392H110.825ZM119.331 189.992H126.987V188.632H121.523L125.235 185.296C126.419 184.248 126.987 183.488 126.987 181.976C126.987 179.856 125.371 178.24 123.235 178.24C121.019 178.24 119.387 179.784 119.387 181.952H120.843C120.827 180.696 121.835 179.6 123.211 179.6C124.539 179.6 125.531 180.632 125.531 181.96C125.531 182.688 125.299 183.352 124.451 184.112L119.339 188.712L119.331 189.992Z" fill="#110529"/>
    <rect x="96" y="172" width="36" height="24" rx="1" stroke="#110529" stroke-width="2"/>
    <path d="M341 184H132" stroke="#110529" stroke-width="2"/>
    <rect width="56" height="20" transform="translate(341 174)" fill="white"/>
    <path d="M345.933 189.992H353.589V188.632H348.125L351.837 185.296C353.021 184.248 353.589 183.488 353.589 181.976C353.589 179.856 351.973 178.24 349.837 178.24C347.621 178.24 345.989 179.784 345.989 181.952H347.445C347.429 180.696 348.437 179.6 349.813 179.6C351.141 179.6 352.133 180.632 352.133 181.96C352.133 182.688 351.901 183.352 351.053 184.112L345.941 188.712L345.933 189.992ZM358.911 190.24C361.055 190.24 362.871 188.504 362.871 186.376C362.871 184.232 361.247 182.584 359.111 182.584C358.335 182.584 357.559 182.848 356.959 183.328L357.167 179.832H362.071V178.48H355.887L355.535 184.504L356.799 184.984C357.215 184.384 357.935 183.896 358.951 183.896C360.295 183.896 361.439 184.984 361.439 186.376C361.439 187.728 360.351 188.856 358.951 188.856C357.879 188.856 356.839 188.144 356.551 187.008L355.183 187.376C355.647 189.056 357.127 190.24 358.911 190.24ZM368.672 190.24C370.912 190.24 372.56 188.592 372.56 186.352V182.128C372.56 179.888 370.912 178.24 368.672 178.24C366.432 178.24 364.784 179.888 364.784 182.128V186.352C364.784 188.592 366.432 190.24 368.672 190.24ZM366.232 186.432V182.04C366.232 180.688 367.32 179.6 368.672 179.6C370.024 179.6 371.112 180.688 371.112 182.04V186.432C371.112 187.784 370.024 188.872 368.672 188.872C367.32 188.872 366.232 187.784 366.232 186.432ZM378.768 190.24C381.184 190.24 382.64 188.264 382.64 185.672C382.64 183.08 381.176 181.12 378.776 181.12C377.696 181.12 376.84 181.496 376.224 182.144V178.48H374.792V190H376.064V189.024C376.696 189.784 377.6 190.24 378.768 190.24ZM376.064 185.672C376.064 183.76 376.864 182.424 378.552 182.424C380.312 182.424 381.128 183.848 381.128 185.672C381.128 187.512 380.296 188.936 378.592 188.936C376.848 188.936 376.064 187.568 376.064 185.672ZM388.361 190.24C390.777 190.24 392.233 188.264 392.233 185.672C392.233 183.08 390.769 181.12 388.369 181.12C387.193 181.12 386.289 181.568 385.657 182.328V181.36H384.385V193.84H385.817V189.2C386.433 189.856 387.289 190.24 388.361 190.24ZM385.657 185.672C385.657 183.76 386.457 182.424 388.145 182.424C389.905 182.424 390.721 183.848 390.721 185.672C390.721 187.512 389.889 188.936 388.185 188.936C386.441 188.936 385.657 187.568 385.657 185.672Z" fill="#110529"/>
    <path d="M606 184H397" stroke="#110529" stroke-width="2"/>
    <path d="M616 184L616.707 183.293L617.414 184L616.707 184.707L616 184ZM608.707 192.707L608 193.414L606.586 192L607.293 191.293L608.707 192.707ZM607.293 176.707L606.586 176L608 174.586L608.707 175.293L607.293 176.707ZM606 183L616 183L616 185L606 185L606 183ZM616.707 184.707L608.707 192.707L607.293 191.293L615.293 183.293L616.707 184.707ZM615.293 184.707L607.293 176.707L608.707 175.293L616.707 183.293L615.293 184.707Z" fill="#110529"/>
    <path d="M101.28 398H108.048V396.648H102.704V386.48H101.28V398ZM109.401 398H110.825V393.744H114.193L116.257 398H117.889L115.665 393.432C116.969 392.888 117.649 391.632 117.649 390.112C117.649 388.28 116.665 386.832 114.801 386.544C114.505 386.496 114.177 386.48 113.953 386.48H109.401V398ZM110.825 392.392V387.832H113.905C114.105 387.832 114.385 387.848 114.625 387.904C115.729 388.152 116.193 389.152 116.193 390.112C116.193 391.072 115.729 392.072 114.625 392.32C114.385 392.376 114.105 392.392 113.905 392.392H110.825ZM119.331 397.992H126.987V396.632H121.523L125.235 393.296C126.419 392.248 126.987 391.488 126.987 389.976C126.987 387.856 125.371 386.24 123.235 386.24C121.019 386.24 119.387 387.784 119.387 389.952H120.843C120.827 388.696 121.835 387.6 123.211 387.6C124.539 387.6 125.531 388.632 125.531 389.96C125.531 390.688 125.299 391.352 124.451 392.112L119.339 396.712L119.331 397.992Z" fill="#110529"/>
    <rect x="96" y="380" width="36" height="24" rx="1" stroke="#110529" stroke-width="2"/>
    <path d="M325 392H132" stroke="#110529" stroke-width="2"/>
    <rect width="56" height="20" transform="translate(325 382)" fill="white"/>
    <path d="M329.933 397.992H337.589V396.632H332.125L335.837 393.296C337.021 392.248 337.589 391.488 337.589 389.976C337.589 387.856 335.973 386.24 333.837 386.24C331.621 386.24 329.989 387.784 329.989 389.952H331.445C331.429 388.696 332.437 387.6 333.813 387.6C335.141 387.6 336.133 388.632 336.133 389.96C336.133 390.688 335.901 391.352 335.053 392.112L329.941 396.712L329.933 397.992ZM342.911 398.24C345.055 398.24 346.871 396.504 346.871 394.376C346.871 392.232 345.247 390.584 343.111 390.584C342.335 390.584 341.559 390.848 340.959 391.328L341.167 387.832H346.071V386.48H339.887L339.535 392.504L340.799 392.984C341.215 392.384 341.935 391.896 342.951 391.896C344.295 391.896 345.439 392.984 345.439 394.376C345.439 395.728 344.351 396.856 342.951 396.856C341.879 396.856 340.839 396.144 340.551 395.008L339.183 395.376C339.647 397.056 341.127 398.24 342.911 398.24ZM352.672 398.24C354.912 398.24 356.56 396.592 356.56 394.352V390.128C356.56 387.888 354.912 386.24 352.672 386.24C350.432 386.24 348.784 387.888 348.784 390.128V394.352C348.784 396.592 350.432 398.24 352.672 398.24ZM350.232 394.432V390.04C350.232 388.688 351.32 387.6 352.672 387.6C354.024 387.6 355.112 388.688 355.112 390.04V394.432C355.112 395.784 354.024 396.872 352.672 396.872C351.32 396.872 350.232 395.784 350.232 394.432ZM362.768 398.24C365.184 398.24 366.64 396.264 366.64 393.672C366.64 391.08 365.176 389.12 362.776 389.12C361.696 389.12 360.84 389.496 360.224 390.144V386.48H358.792V398H360.064V397.024C360.696 397.784 361.6 398.24 362.768 398.24ZM360.064 393.672C360.064 391.76 360.864 390.424 362.552 390.424C364.312 390.424 365.128 391.848 365.128 393.672C365.128 395.512 364.296 396.936 362.592 396.936C360.848 396.936 360.064 395.568 360.064 393.672ZM372.361 398.24C374.777 398.24 376.233 396.264 376.233 393.672C376.233 391.08 374.769 389.12 372.369 389.12C371.193 389.12 370.289 389.568 369.657 390.328V389.36H368.385V401.84H369.817V397.2C370.433 397.856 371.289 398.24 372.361 398.24ZM369.657 393.672C369.657 391.76 370.457 390.424 372.145 390.424C373.905 390.424 374.721 391.848 374.721 393.672C374.721 395.512 373.889 396.936 372.185 396.936C370.441 396.936 369.657 395.568 369.657 393.672Z" fill="#110529"/>
    <path d="M574 392H381" stroke="#110529" stroke-width="2"/>
    <path d="M584 392L584.707 391.293L585.414 392L584.707 392.707L584 392ZM576.707 400.707L576 401.414L574.586 400L575.293 399.293L576.707 400.707ZM575.293 384.707L574.586 384L576 382.586L576.707 383.293L575.293 384.707ZM574 391L584 391L584 393L574 393L574 391ZM584.707 392.707L576.707 400.707L575.293 399.293L583.293 391.293L584.707 392.707ZM583.293 392.707L575.293 384.707L576.707 383.293L584.707 391.293L583.293 392.707Z" fill="#110529"/>
    <path d="M406.208 238.24C408.6 238.24 410.52 237.016 410.52 234.784C410.52 232.568 408.624 232 407.624 231.72L405.432 231.088C404.576 230.848 403.512 230.48 403.512 229.416C403.512 228.352 404.608 227.584 406.024 227.6C407.488 227.616 408.696 228.48 408.936 229.88L410.448 229.616C410.024 227.52 408.36 226.264 406.04 226.248C403.744 226.24 402.008 227.44 402.008 229.48C402.008 231.184 403.224 231.928 404.504 232.304L407.44 233.176C408.264 233.424 409.048 233.856 409.048 234.864C409.048 236.12 407.824 236.888 406.28 236.888C404.672 236.888 403.4 236.032 403.032 234.576L401.56 234.808C401.944 236.928 403.76 238.24 406.208 238.24ZM412.198 238H413.622V233.744H416.99L419.054 238H420.686L418.462 233.432C419.766 232.888 420.446 231.632 420.446 230.112C420.446 228.28 419.462 226.832 417.598 226.544C417.302 226.496 416.974 226.48 416.75 226.48H412.198V238ZM413.622 232.392V227.832H416.702C416.902 227.832 417.182 227.848 417.422 227.904C418.526 228.152 418.99 229.152 418.99 230.112C418.99 231.072 418.526 232.072 417.422 232.32C417.182 232.376 416.902 232.392 416.702 232.392H413.622ZM422.128 237.992H429.784V236.632H424.32L428.032 233.296C429.216 232.248 429.784 231.488 429.784 229.976C429.784 227.856 428.168 226.24 426.032 226.24C423.816 226.24 422.184 227.784 422.184 229.952H423.64C423.624 228.696 424.632 227.6 426.008 227.6C427.336 227.6 428.328 228.632 428.328 229.96C428.328 230.688 428.096 231.352 427.248 232.112L422.136 236.712L422.128 237.992Z" fill="#110529"/>
    <rect x="397" y="220" width="38" height="24" rx="1" stroke="#110529" stroke-width="2"/>
    <path d="M566 232H435" stroke="#110529" stroke-width="2"/>
    <rect width="54" height="20" transform="translate(566 222)" fill="white"/>
    <path d="M573.269 238H574.717V226.48H573.269L571.101 227.776V229.368L573.269 228.056V238ZM581.649 238.24C583.889 238.24 585.537 236.592 585.537 234.352V230.128C585.537 227.888 583.889 226.24 581.649 226.24C579.409 226.24 577.761 227.888 577.761 230.128V234.352C577.761 236.592 579.409 238.24 581.649 238.24ZM579.209 234.432V230.04C579.209 228.688 580.297 227.6 581.649 227.6C583.001 227.6 584.089 228.688 584.089 230.04V234.432C584.089 235.784 583.001 236.872 581.649 236.872C580.297 236.872 579.209 235.784 579.209 234.432ZM591.664 238.24C593.904 238.24 595.552 236.592 595.552 234.352V230.128C595.552 227.888 593.904 226.24 591.664 226.24C589.424 226.24 587.776 227.888 587.776 230.128V234.352C587.776 236.592 589.424 238.24 591.664 238.24ZM589.224 234.432V230.04C589.224 228.688 590.312 227.6 591.664 227.6C593.016 227.6 594.104 228.688 594.104 230.04V234.432C594.104 235.784 593.016 236.872 591.664 236.872C590.312 236.872 589.224 235.784 589.224 234.432ZM601.76 238.24C604.176 238.24 605.632 236.264 605.632 233.672C605.632 231.08 604.168 229.12 601.768 229.12C600.688 229.12 599.832 229.496 599.216 230.144V226.48H597.784V238H599.056V237.024C599.688 237.784 600.592 238.24 601.76 238.24ZM599.056 233.672C599.056 231.76 599.856 230.424 601.544 230.424C603.304 230.424 604.12 231.848 604.12 233.672C604.12 235.512 603.288 236.936 601.584 236.936C599.84 236.936 599.056 235.568 599.056 233.672ZM611.354 238.24C613.77 238.24 615.226 236.264 615.226 233.672C615.226 231.08 613.762 229.12 611.362 229.12C610.186 229.12 609.282 229.568 608.65 230.328V229.36H607.378V241.84H608.81V237.2C609.426 237.856 610.282 238.24 611.354 238.24ZM608.65 233.672C608.65 231.76 609.45 230.424 611.138 230.424C612.898 230.424 613.714 231.848 613.714 233.672C613.714 235.512 612.882 236.936 611.178 236.936C609.434 236.936 608.65 235.568 608.65 233.672Z" fill="#110529"/>
    <path d="M751 232H620" stroke="#110529" stroke-width="2"/>
    <path d="M761 232L761.707 231.293L762.414 232L761.707 232.707L761 232ZM753.707 240.707L753 241.414L751.586 240L752.293 239.293L753.707 240.707ZM752.293 224.707L751.586 224L753 222.586L753.707 223.293L752.293 224.707ZM751 231L761 231L761 233L751 233L751 231ZM761.707 232.707L753.707 240.707L752.293 239.293L760.293 231.293L761.707 232.707ZM760.293 232.707L752.293 224.707L753.707 223.293L761.707 231.293L760.293 232.707Z" fill="#110529"/>
    <path d="M371.208 446.24C373.6 446.24 375.52 445.016 375.52 442.784C375.52 440.568 373.624 440 372.624 439.72L370.432 439.088C369.576 438.848 368.512 438.48 368.512 437.416C368.512 436.352 369.608 435.584 371.024 435.6C372.488 435.616 373.696 436.48 373.936 437.88L375.448 437.616C375.024 435.52 373.36 434.264 371.04 434.248C368.744 434.24 367.008 435.44 367.008 437.48C367.008 439.184 368.224 439.928 369.504 440.304L372.44 441.176C373.264 441.424 374.048 441.856 374.048 442.864C374.048 444.12 372.824 444.888 371.28 444.888C369.672 444.888 368.4 444.032 368.032 442.576L366.56 442.808C366.944 444.928 368.76 446.24 371.208 446.24ZM377.198 446H378.622V441.744H381.99L384.054 446H385.686L383.462 441.432C384.766 440.888 385.446 439.632 385.446 438.112C385.446 436.28 384.462 434.832 382.598 434.544C382.302 434.496 381.974 434.48 381.75 434.48H377.198V446ZM378.622 440.392V435.832H381.702C381.902 435.832 382.182 435.848 382.422 435.904C383.526 436.152 383.99 437.152 383.99 438.112C383.99 439.072 383.526 440.072 382.422 440.32C382.182 440.376 381.902 440.392 381.702 440.392H378.622ZM387.128 445.992H394.784V444.632H389.32L393.032 441.296C394.216 440.248 394.784 439.488 394.784 437.976C394.784 435.856 393.168 434.24 391.032 434.24C388.816 434.24 387.184 435.784 387.184 437.952H388.64C388.624 436.696 389.632 435.6 391.008 435.6C392.336 435.6 393.328 436.632 393.328 437.96C393.328 438.688 393.096 439.352 392.248 440.112L387.136 444.712L387.128 445.992Z" fill="#110529"/>
    <rect x="362" y="428" width="38" height="24" rx="1" stroke="#110529" stroke-width="2"/>
    <path d="M515.5 440H400" stroke="#110529" stroke-width="2"/>
    <rect width="54" height="20" transform="translate(515.5 430)" fill="white"/>
    <path d="M522.769 446H524.217V434.48H522.769L520.601 435.776V437.368L522.769 436.056V446ZM531.149 446.24C533.389 446.24 535.037 444.592 535.037 442.352V438.128C535.037 435.888 533.389 434.24 531.149 434.24C528.909 434.24 527.261 435.888 527.261 438.128V442.352C527.261 444.592 528.909 446.24 531.149 446.24ZM528.709 442.432V438.04C528.709 436.688 529.797 435.6 531.149 435.6C532.501 435.6 533.589 436.688 533.589 438.04V442.432C533.589 443.784 532.501 444.872 531.149 444.872C529.797 444.872 528.709 443.784 528.709 442.432ZM541.164 446.24C543.404 446.24 545.052 444.592 545.052 442.352V438.128C545.052 435.888 543.404 434.24 541.164 434.24C538.924 434.24 537.276 435.888 537.276 438.128V442.352C537.276 444.592 538.924 446.24 541.164 446.24ZM538.724 442.432V438.04C538.724 436.688 539.812 435.6 541.164 435.6C542.516 435.6 543.604 436.688 543.604 438.04V442.432C543.604 443.784 542.516 444.872 541.164 444.872C539.812 444.872 538.724 443.784 538.724 442.432ZM551.26 446.24C553.676 446.24 555.132 444.264 555.132 441.672C555.132 439.08 553.668 437.12 551.268 437.12C550.188 437.12 549.332 437.496 548.716 438.144V434.48H547.284V446H548.556V445.024C549.188 445.784 550.092 446.24 551.26 446.24ZM548.556 441.672C548.556 439.76 549.356 438.424 551.044 438.424C552.804 438.424 553.62 439.848 553.62 441.672C553.62 443.512 552.788 444.936 551.084 444.936C549.34 444.936 548.556 443.568 548.556 441.672ZM560.854 446.24C563.27 446.24 564.726 444.264 564.726 441.672C564.726 439.08 563.262 437.12 560.862 437.12C559.686 437.12 558.782 437.568 558.15 438.328V437.36H556.878V449.84H558.31V445.2C558.926 445.856 559.782 446.24 560.854 446.24ZM558.15 441.672C558.15 439.76 558.95 438.424 560.638 438.424C562.398 438.424 563.214 439.848 563.214 441.672C563.214 443.512 562.382 444.936 560.678 444.936C558.934 444.936 558.15 443.568 558.15 441.672Z" fill="#110529"/>
    <path d="M685 440H569.5" stroke="#110529" stroke-width="2"/>
    <path d="M695 440L695.707 439.293L696.414 440L695.707 440.707L695 440ZM687.707 448.707L687 449.414L685.586 448L686.293 447.293L687.707 448.707ZM686.293 432.707L685.586 432L687 430.586L687.707 431.293L686.293 432.707ZM685 439L695 439L695 441L685 441L685 439ZM695.707 440.707L687.707 448.707L686.293 447.293L694.293 439.293L695.707 440.707ZM694.293 440.707L686.293 432.707L687.707 431.293L695.707 439.293L694.293 440.707Z" fill="#110529"/>
    <path d="M19.3014 316H21.0814V303.29H25.9914V301.6H14.3914V303.29H19.3014V316ZM33.5036 316.3C36.8336 316.3 39.0236 314.47 39.8436 311.61L38.0336 311.13C37.4436 313.27 35.9336 314.6 33.5036 314.6C30.2836 314.6 28.6436 312.25 28.6636 308.8C28.6836 305.35 30.2836 303 33.5036 303C35.9336 303 37.4436 304.33 38.0336 306.47L39.8436 305.99C39.0236 303.13 36.8336 301.3 33.5036 301.3C29.1936 301.3 26.7836 304.36 26.7836 308.8C26.7836 313.24 29.1936 316.3 33.5036 316.3ZM42.0367 316H43.8167V310.68H48.0267L50.6067 316H52.6467L49.8667 310.29C51.4967 309.61 52.3467 308.04 52.3467 306.14C52.3467 303.85 51.1167 302.04 48.7867 301.68C48.4167 301.62 48.0067 301.6 47.7267 301.6H42.0367V316ZM43.8167 308.99V303.29H47.6667C47.9167 303.29 48.2667 303.31 48.5667 303.38C49.9467 303.69 50.5267 304.94 50.5267 306.14C50.5267 307.34 49.9467 308.59 48.5667 308.9C48.2667 308.97 47.9167 308.99 47.6667 308.99H43.8167ZM63.1231 316.3C64.7631 316.3 66.0731 315.54 66.7731 314.24V316H68.3631V305.2H66.7731V306.93C66.0831 305.65 64.8231 304.9 63.1731 304.9C60.0731 304.9 58.2531 307.35 58.2531 310.6C58.2531 313.83 60.0631 316.3 63.1231 316.3ZM60.1431 310.6C60.1431 308.19 61.2531 306.53 63.3631 306.53C65.4731 306.53 66.4731 308.2 66.4731 310.59C66.4731 312.96 65.4831 314.67 63.3431 314.67C61.1731 314.67 60.1431 312.88 60.1431 310.6ZM78.8017 301.6L74.9617 316H76.7717L80.6117 301.6H78.8017ZM26.2448 336H28.0248V323.29H32.9348V321.6H21.3348V323.29H26.2448V336ZM40.447 336.3C43.777 336.3 45.967 334.47 46.787 331.61L44.977 331.13C44.387 333.27 42.877 334.6 40.447 334.6C37.227 334.6 35.587 332.25 35.607 328.8C35.627 325.35 37.227 323 40.447 323C42.877 323 44.387 324.33 44.977 326.47L46.787 325.99C45.967 323.13 43.777 321.3 40.447 321.3C36.137 321.3 33.727 324.36 33.727 328.8C33.727 333.24 36.137 336.3 40.447 336.3ZM48.9801 336H50.7601V330.68H54.9701L57.5501 336H59.5901L56.8101 330.29C58.4401 329.61 59.2901 328.04 59.2901 326.14C59.2901 323.85 58.0601 322.04 55.7301 321.68C55.3601 321.62 54.9501 321.6 54.6701 321.6H48.9801V336ZM50.7601 328.99V323.29H54.6101C54.8601 323.29 55.2101 323.31 55.5101 323.38C56.8901 323.69 57.4701 324.94 57.4701 326.14C57.4701 327.34 56.8901 328.59 55.5101 328.9C55.2101 328.97 54.8601 328.99 54.6101 328.99H50.7601ZM68.7165 339.6H70.5365V336L74.4565 325.2H72.6565L69.6265 333.73L66.6065 325.2H64.7965L68.7165 336V339.6Z" fill="#110529"/>
    <path d="M19.6627 108H21.4427V95.29H26.3527V93.6H14.7527V95.29H19.6627V108ZM33.8649 108.3C37.1949 108.3 39.3849 106.47 40.2049 103.61L38.3949 103.13C37.8049 105.27 36.2949 106.6 33.8649 106.6C30.6449 106.6 29.0049 104.25 29.0249 100.8C29.0449 97.35 30.6449 95 33.8649 95C36.2949 95 37.8049 96.33 38.3949 98.47L40.2049 97.99C39.3849 95.13 37.1949 93.3 33.8649 93.3C29.5549 93.3 27.1449 96.36 27.1449 100.8C27.1449 105.24 29.5549 108.3 33.8649 108.3ZM42.398 108H44.178V102.68H48.388L50.968 108H53.008L50.228 102.29C51.858 101.61 52.708 100.04 52.708 98.14C52.708 95.85 51.478 94.04 49.148 93.68C48.778 93.62 48.368 93.6 48.088 93.6H42.398V108ZM44.178 100.99V95.29H48.028C48.278 95.29 48.628 95.31 48.928 95.38C50.308 95.69 50.888 96.94 50.888 98.14C50.888 99.34 50.308 100.59 48.928 100.9C48.628 100.97 48.278 100.99 48.028 100.99H44.178ZM59.2045 97.2V112.8H60.9845V107.39C61.6945 107.96 62.6845 108.3 63.9145 108.3C66.9645 108.3 68.8145 106.57 68.8145 103.95C68.8145 101.74 67.4145 100.44 66.0245 100.09C67.0745 99.58 67.5845 98.5 67.5845 97.22C67.5845 94.84 65.8345 93.3 63.3445 93.3C61.4845 93.3 59.9545 94.16 59.4245 95.78C59.2745 96.23 59.2045 96.71 59.2045 97.2ZM61.0245 103.71V97.86C61.0245 97.44 61.0445 96.8 61.2545 96.28C61.6145 95.35 62.4945 94.99 63.3845 94.99C64.7645 94.99 65.7645 95.82 65.7645 97.24C65.7645 98.67 64.7645 99.4 63.3945 99.54V101.14C65.5845 101.18 67.0045 102.1 67.0045 103.87C67.0045 105.52 65.7645 106.61 63.9945 106.61C62.7445 106.61 61.5045 106.04 61.1745 105.01C61.0545 104.64 61.0245 104.1 61.0245 103.71ZM78.4404 93.6L74.6004 108H76.4104L80.2504 93.6H78.4404ZM25.4733 128H27.2533V115.29H32.1633V113.6H20.5633V115.29H25.4733V128ZM39.6755 128.3C43.0055 128.3 45.1955 126.47 46.0155 123.61L44.2055 123.13C43.6155 125.27 42.1055 126.6 39.6755 126.6C36.4555 126.6 34.8155 124.25 34.8355 120.8C34.8555 117.35 36.4555 115 39.6755 115C42.1055 115 43.6155 116.33 44.2055 118.47L46.0155 117.99C45.1955 115.13 43.0055 113.3 39.6755 113.3C35.3655 113.3 32.9555 116.36 32.9555 120.8C32.9555 125.24 35.3655 128.3 39.6755 128.3ZM48.2086 128H49.9886V122.68H54.1986L56.7786 128H58.8186L56.0386 122.29C57.6686 121.61 58.5186 120.04 58.5186 118.14C58.5186 115.85 57.2886 114.04 54.9586 113.68C54.5886 113.62 54.1786 113.6 53.8986 113.6H48.2086V128ZM49.9886 120.99V115.29H53.8386C54.0886 115.29 54.4386 115.31 54.7386 115.38C56.1186 115.69 56.6986 116.94 56.6986 118.14C56.6986 119.34 56.1186 120.59 54.7386 120.9C54.4386 120.97 54.0886 120.99 53.8386 120.99H49.9886ZM69.595 128.29C72.845 128.29 74.835 126.14 74.835 123.03C74.835 120.57 73.585 118.7 71.435 118.05C69.385 117.33 67.755 116.92 67.755 115.87C67.755 115.33 68.145 115.01 68.695 114.87C68.985 114.8 69.325 114.78 69.735 114.78H72.895V113.3H69.335C68.885 113.3 68.515 113.3 68.115 113.38C66.535 113.64 65.985 114.76 65.985 115.8C65.985 117.11 66.865 117.88 67.975 118.39C65.725 118.77 64.425 120.69 64.425 123.17C64.425 126.24 66.405 128.29 69.595 128.29ZM66.445 123.03C66.445 120.88 67.495 119.47 69.635 119.47C71.735 119.47 72.825 120.83 72.825 123.01C72.825 125.18 71.755 126.6 69.635 126.6C67.555 126.6 66.445 125.25 66.445 123.03Z" fill="#110529"/>
    <defs>
        <filter id="filter0_i_6150_38868" x="94.7373" y="83" width="410.263" height="54" filterUnits="userSpaceOnUse" color-interpolation-filters="sRGB">
            <feFlood flood-opacity="0" result="BackgroundImageFix"/>
            <feBlend mode="normal" in="SourceGraphic" in2="BackgroundImageFix" result="shape"/>
            <feColorMatrix in="SourceAlpha" type="matrix" values="0 0 0 0 0 0 0 0 0 0 0 0 0 0 0 0 0 0 127 0" result="hardAlpha"/>
            <feOffset dx="-8" dy="-4"/>
            <feComposite in2="hardAlpha" operator="arithmetic" k2="-1" k3="1"/>
            <feColorMatrix type="matrix" values="0 0 0 0 0.0666667 0 0 0 0 0.0196078 0 0 0 0 0.160784 0 0 0 0.16 0"/>
            <feBlend mode="normal" in2="shape" result="effect1_innerShadow_6150_38868"/>
        </filter>
        <filter id="filter1_i_6150_38868" x="503" y="83" width="32" height="54" filterUnits="userSpaceOnUse" color-interpolation-filters="sRGB">
            <feFlood flood-opacity="0" result="BackgroundImageFix"/>
            <feBlend mode="normal" in="SourceGraphic" in2="BackgroundImageFix" result="shape"/>
            <feColorMatrix in="SourceAlpha" type="matrix" values="0 0 0 0 0 0 0 0 0 0 0 0 0 0 0 0 0 0 127 0" result="hardAlpha"/>
            <feOffset dx="-8" dy="-4"/>
            <feComposite in2="hardAlpha" operator="arithmetic" k2="-1" k3="1"/>
            <feColorMatrix type="matrix" values="0 0 0 0 0.0666667 0 0 0 0 0.0196078 0 0 0 0 0.160784 0 0 0 0.16 0"/>
            <feBlend mode="normal" in2="shape" result="effect1_innerShadow_6150_38868"/>
        </filter>
        <filter id="filter2_i_6150_38868" x="569" y="83" width="32" height="54" filterUnits="userSpaceOnUse" color-interpolation-filters="sRGB">
            <feFlood flood-opacity="0" result="BackgroundImageFix"/>
            <feBlend mode="normal" in="SourceGraphic" in2="BackgroundImageFix" result="shape"/>
            <feColorMatrix in="SourceAlpha" type="matrix" values="0 0 0 0 0 0 0 0 0 0 0 0 0 0 0 0 0 0 127 0" result="hardAlpha"/>
            <feOffset dx="-8" dy="-4"/>
            <feComposite in2="hardAlpha" operator="arithmetic" k2="-1" k3="1"/>
            <feColorMatrix type="matrix" values="0 0 0 0 0.0666667 0 0 0 0 0.0196078 0 0 0 0 0.160784 0 0 0 0.16 0"/>
            <feBlend mode="normal" in2="shape" result="effect1_innerShadow_6150_38868"/>
        </filter>
        <filter id="filter3_i_6150_38868" x="533" y="83" width="38" height="54" filterUnits="userSpaceOnUse" color-interpolation-filters="sRGB">
            <feFlood flood-opacity="0" result="BackgroundImageFix"/>
            <feBlend mode="normal" in="SourceGraphic" in2="BackgroundImageFix" result="shape"/>
            <feColorMatrix in="SourceAlpha" type="matrix" values="0 0 0 0 0 0 0 0 0 0 0 0 0 0 0 0 0 0 127 0" result="hardAlpha"/>
            <feOffset dx="-8" dy="-4"/>
            <feComposite in2="hardAlpha" operator="arithmetic" k2="-1" k3="1"/>
            <feColorMatrix type="matrix" values="0 0 0 0 0.0666667 0 0 0 0 0.0196078 0 0 0 0 0.160784 0 0 0 0.16 0"/>
            <feBlend mode="normal" in2="shape" result="effect1_innerShadow_6150_38868"/>
        </filter>
        <filter id="filter4_i_6150_38868" x="599" y="83" width="134" height="54" filterUnits="userSpaceOnUse" color-interpolation-filters="sRGB">
            <feFlood flood-opacity="0" result="BackgroundImageFix"/>
            <feBlend mode="normal" in="SourceGraphic" in2="BackgroundImageFix" result="shape"/>
            <feColorMatrix in="SourceAlpha" type="matrix" values="0 0 0 0 0 0 0 0 0 0 0 0 0 0 0 0 0 0 127 0" result="hardAlpha"/>
            <feOffset dx="-8" dy="-4"/>
            <feComposite in2="hardAlpha" operator="arithmetic" k2="-1" k3="1"/>
            <feColorMatrix type="matrix" values="0 0 0 0 0.0666667 0 0 0 0 0.0196078 0 0 0 0 0.160784 0 0 0 0.16 0"/>
            <feBlend mode="normal" in2="shape" result="effect1_innerShadow_6150_38868"/>
        </filter>
        <filter id="filter5_i_6150_38868" x="731" y="83" width="67.0312" height="54" filterUnits="userSpaceOnUse" color-interpolation-filters="sRGB">
            <feFlood flood-opacity="0" result="BackgroundImageFix"/>
            <feBlend mode="normal" in="SourceGraphic" in2="BackgroundImageFix" result="shape"/>
            <feColorMatrix in="SourceAlpha" type="matrix" values="0 0 0 0 0 0 0 0 0 0 0 0 0 0 0 0 0 0 127 0" result="hardAlpha"/>
            <feOffset dx="-8" dy="-4"/>
            <feComposite in2="hardAlpha" operator="arithmetic" k2="-1" k3="1"/>
            <feColorMatrix type="matrix" values="0 0 0 0 0.0666667 0 0 0 0 0.0196078 0 0 0 0 0.160784 0 0 0 0.16 0"/>
            <feBlend mode="normal" in2="shape" result="effect1_innerShadow_6150_38868"/>
        </filter>
        <filter id="filter6_i_6150_38868" x="94.7373" y="291" width="410.263" height="54" filterUnits="userSpaceOnUse" color-interpolation-filters="sRGB">
            <feFlood flood-opacity="0" result="BackgroundImageFix"/>
            <feBlend mode="normal" in="SourceGraphic" in2="BackgroundImageFix" result="shape"/>
            <feColorMatrix in="SourceAlpha" type="matrix" values="0 0 0 0 0 0 0 0 0 0 0 0 0 0 0 0 0 0 127 0" result="hardAlpha"/>
            <feOffset dx="-8" dy="-4"/>
            <feComposite in2="hardAlpha" operator="arithmetic" k2="-1" k3="1"/>
            <feColorMatrix type="matrix" values="0 0 0 0 0.0666667 0 0 0 0 0.0196078 0 0 0 0 0.160784 0 0 0 0.16 0"/>
            <feBlend mode="normal" in2="shape" result="effect1_innerShadow_6150_38868"/>
        </filter>
        <filter id="filter7_i_6150_38868" x="503" y="291" width="32" height="54" filterUnits="userSpaceOnUse" color-interpolation-filters="sRGB">
            <feFlood flood-opacity="0" result="BackgroundImageFix"/>
            <feBlend mode="normal" in="SourceGraphic" in2="BackgroundImageFix" result="shape"/>
            <feColorMatrix in="SourceAlpha" type="matrix" values="0 0 0 0 0 0 0 0 0 0 0 0 0 0 0 0 0 0 127 0" result="hardAlpha"/>
            <feOffset dx="-8" dy="-4"/>
            <feComposite in2="hardAlpha" operator="arithmetic" k2="-1" k3="1"/>
            <feColorMatrix type="matrix" values="0 0 0 0 0.0666667 0 0 0 0 0.0196078 0 0 0 0 0.160784 0 0 0 0.16 0"/>
            <feBlend mode="normal" in2="shape" result="effect1_innerShadow_6150_38868"/>
        </filter>
        <filter id="filter8_i_6150_38868" x="533" y="291" width="134" height="54" filterUnits="userSpaceOnUse" color-interpolation-filters="sRGB">
            <feFlood flood-opacity="0" result="BackgroundImageFix"/>
            <feBlend mode="normal" in="SourceGraphic" in2="BackgroundImageFix" result="shape"/>
            <feColorMatrix in="SourceAlpha" type="matrix" values="0 0 0 0 0 0 0 0 0 0 0 0 0 0 0 0 0 0 127 0" result="hardAlpha"/>
            <feOffset dx="-8" dy="-4"/>
            <feComposite in2="hardAlpha" operator="arithmetic" k2="-1" k3="1"/>
            <feColorMatrix type="matrix" values="0 0 0 0 0.0666667 0 0 0 0 0.0196078 0 0 0 0 0.160784 0 0 0 0.16 0"/>
            <feBlend mode="normal" in2="shape" result="effect1_innerShadow_6150_38868"/>
        </filter>
        <filter id="filter9_i_6150_38868" x="665" y="291" width="67.0312" height="54" filterUnits="userSpaceOnUse" color-interpolation-filters="sRGB">
            <feFlood flood-opacity="0" result="BackgroundImageFix"/>
            <feBlend mode="normal" in="SourceGraphic" in2="BackgroundImageFix" result="shape"/>
            <feColorMatrix in="SourceAlpha" type="matrix" values="0 0 0 0 0 0 0 0 0 0 0 0 0 0 0 0 0 0 127 0" result="hardAlpha"/>
            <feOffset dx="-8" dy="-4"/>
            <feComposite in2="hardAlpha" operator="arithmetic" k2="-1" k3="1"/>
            <feColorMatrix type="matrix" values="0 0 0 0 0.0666667 0 0 0 0 0.0196078 0 0 0 0 0.160784 0 0 0 0.16 0"/>
            <feBlend mode="normal" in2="shape" result="effect1_innerShadow_6150_38868"/>
        </filter>
    </defs>
</svg>
