<svg width="960" height="528" viewBox="0 0 960 528" fill="none" xmlns="http://www.w3.org/2000/svg">
<rect width="960" height="528" fill="white"/>
<path d="M678 112V24" stroke="#D3D7E0" stroke-width="2" stroke-linecap="square" stroke-dasharray="6 6"/>
<path d="M139.858 37V26.92H145.829V28.383H141.321V31.225H144.989V32.695H141.321V37H139.858ZM147.09 37V26.92H151.164C151.36 26.92 151.675 26.934 151.941 26.976C153.628 27.235 154.468 28.516 154.468 30.147C154.468 31.491 153.894 32.597 152.753 33.094L154.657 37H152.984L151.227 33.381H148.553V37H147.09ZM148.553 31.995H151.108C151.29 31.995 151.535 31.981 151.745 31.932C152.641 31.715 152.977 30.889 152.977 30.147C152.977 29.405 152.641 28.579 151.745 28.369C151.535 28.313 151.29 28.299 151.108 28.299H148.553V31.995ZM157.953 37V28.53L156.056 29.685V28.054L157.953 26.92H159.444V37H157.953Z" fill="#D3D7E0"/>
<path d="M186 112V24" stroke="#D3D7E0" stroke-width="2" stroke-linecap="square" stroke-dasharray="6 6"/>
<path d="M209.735 37.21C206.711 37.21 204.968 35.075 204.968 31.96C204.968 28.845 206.711 26.71 209.735 26.71C212.059 26.71 213.62 27.977 214.215 29.965L212.731 30.364C212.332 28.957 211.331 28.103 209.735 28.103C207.593 28.103 206.522 29.65 206.515 31.96C206.501 34.27 207.593 35.817 209.735 35.817C211.331 35.817 212.332 34.963 212.731 33.556L214.215 33.955C213.62 35.943 212.059 37.21 209.735 37.21ZM215.754 37V26.92H218.911C219.093 26.92 219.695 26.92 220.164 26.983C222.53 27.284 223.79 29.391 223.79 31.96C223.79 34.529 222.53 36.636 220.164 36.937C219.695 37 219.093 37 218.911 37H215.754ZM217.252 35.607H218.911C219.233 35.607 219.723 35.6 220.059 35.537C221.599 35.243 222.236 33.689 222.236 31.96C222.236 30.189 221.571 28.663 220.059 28.383C219.723 28.32 219.219 28.313 218.911 28.313H217.252V35.607ZM225.42 37V26.92H229.494C229.69 26.92 230.005 26.934 230.271 26.976C231.958 27.235 232.798 28.516 232.798 30.147C232.798 31.491 232.224 32.597 231.083 33.094L232.987 37H231.314L229.557 33.381H226.883V37H225.42ZM226.883 31.995H229.438C229.62 31.995 229.865 31.981 230.075 31.932C230.971 31.715 231.307 30.889 231.307 30.147C231.307 29.405 230.971 28.579 230.075 28.369C229.865 28.313 229.62 28.299 229.438 28.299H226.883V31.995ZM236.283 37V28.53L234.386 29.685V28.054L236.283 26.92H237.774V37H236.283Z" fill="#D3D7E0"/>
<path d="M258 112V24" stroke="#D3D7E0" stroke-width="2" stroke-linecap="square" stroke-dasharray="6 6"/>
<path d="M282.703 37V26.92H288.674V28.383H284.166V31.225H287.834V32.695H284.166V37H282.703ZM289.935 37V26.92H294.009C294.205 26.92 294.52 26.934 294.786 26.976C296.473 27.235 297.313 28.516 297.313 30.147C297.313 31.491 296.739 32.597 295.598 33.094L297.502 37H295.829L294.072 33.381H291.398V37H289.935ZM291.398 31.995H293.953C294.135 31.995 294.38 31.981 294.59 31.932C295.486 31.715 295.822 30.889 295.822 30.147C295.822 29.405 295.486 28.579 294.59 28.369C294.38 28.313 294.135 28.299 293.953 28.299H291.398V31.995ZM298.761 36.993L298.768 35.691L303.157 31.757C303.864 31.127 304.074 30.581 304.074 30.007C304.074 28.929 303.297 28.103 302.212 28.103C301.092 28.103 300.28 28.985 300.294 30H298.796C298.796 28.047 300.231 26.71 302.24 26.71C304.144 26.71 305.579 28.117 305.579 30.028C305.579 31.407 305.033 32.037 303.941 32.996L301.022 35.6H305.579V36.993H298.761Z" fill="#D3D7E0"/>
<path d="M330 112V24" stroke="#D3D7E0" stroke-width="2" stroke-linecap="square" stroke-dasharray="6 6"/>
<path d="M352.58 37.21C349.556 37.21 347.813 35.075 347.813 31.96C347.813 28.845 349.556 26.71 352.58 26.71C354.904 26.71 356.465 27.977 357.06 29.965L355.576 30.364C355.177 28.957 354.176 28.103 352.58 28.103C350.438 28.103 349.367 29.65 349.36 31.96C349.346 34.27 350.438 35.817 352.58 35.817C354.176 35.817 355.177 34.963 355.576 33.556L357.06 33.955C356.465 35.943 354.904 37.21 352.58 37.21ZM358.599 37V26.92H361.756C361.938 26.92 362.54 26.92 363.009 26.983C365.375 27.284 366.635 29.391 366.635 31.96C366.635 34.529 365.375 36.636 363.009 36.937C362.54 37 361.938 37 361.756 37H358.599ZM360.097 35.607H361.756C362.078 35.607 362.568 35.6 362.904 35.537C364.444 35.243 365.081 33.689 365.081 31.96C365.081 30.189 364.416 28.663 362.904 28.383C362.568 28.32 362.064 28.313 361.756 28.313H360.097V35.607ZM368.265 37V26.92H372.339C372.535 26.92 372.85 26.934 373.116 26.976C374.803 27.235 375.643 28.516 375.643 30.147C375.643 31.491 375.069 32.597 373.928 33.094L375.832 37H374.159L372.402 33.381H369.728V37H368.265ZM369.728 31.995H372.283C372.465 31.995 372.71 31.981 372.92 31.932C373.816 31.715 374.152 30.889 374.152 30.147C374.152 29.405 373.816 28.579 372.92 28.369C372.71 28.313 372.465 28.299 372.283 28.299H369.728V31.995ZM377.091 36.993L377.098 35.691L381.487 31.757C382.194 31.127 382.404 30.581 382.404 30.007C382.404 28.929 381.627 28.103 380.542 28.103C379.422 28.103 378.61 28.985 378.624 30H377.126C377.126 28.047 378.561 26.71 380.57 26.71C382.474 26.71 383.909 28.117 383.909 30.028C383.909 31.407 383.363 32.037 382.271 32.996L379.352 35.6H383.909V36.993H377.091Z" fill="#D3D7E0"/>
<path d="M402 112V24" stroke="#D3D7E0" stroke-width="2" stroke-linecap="square" stroke-dasharray="6 6"/>
<path d="M426.805 37V26.92H432.776V28.383H428.268V31.225H431.936V32.695H428.268V37H426.805ZM434.038 37V26.92H438.112C438.308 26.92 438.623 26.934 438.889 26.976C440.576 27.235 441.416 28.516 441.416 30.147C441.416 31.491 440.842 32.597 439.701 33.094L441.605 37H439.932L438.175 33.381H435.501V37H434.038ZM435.501 31.995H438.056C438.238 31.995 438.483 31.981 438.693 31.932C439.589 31.715 439.925 30.889 439.925 30.147C439.925 29.405 439.589 28.579 438.693 28.369C438.483 28.313 438.238 28.299 438.056 28.299H435.501V31.995ZM445.964 37.189C444.466 37.189 443.15 36.293 442.723 34.858L444.137 34.466C444.403 35.341 445.138 35.81 445.964 35.803C447.07 35.789 447.833 34.984 447.833 33.871C447.833 32.751 447.07 31.939 445.95 31.939C445.628 31.939 445.285 32.037 444.998 32.191L444.312 31.036L447.392 28.313H443.122V26.92H449.184V28.313L446.692 30.707C448.323 30.924 449.331 32.233 449.331 33.871C449.331 35.796 447.847 37.189 445.964 37.189Z" fill="#D3D7E0"/>
<path d="M474 112V24" stroke="#D3D7E0" stroke-width="2" stroke-linecap="square" stroke-dasharray="6 6"/>
<path d="M520.682 37.21C523.006 37.21 524.567 35.943 525.162 33.955L523.678 33.556C523.279 34.963 522.278 35.817 520.682 35.817C518.54 35.817 517.448 34.27 517.462 31.96C517.469 29.65 518.54 28.103 520.682 28.103C522.278 28.103 523.279 28.957 523.678 30.364L525.162 29.965C524.567 27.977 523.006 26.71 520.682 26.71C517.658 26.71 515.915 28.845 515.915 31.96C515.915 35.075 517.658 37.21 520.682 37.21ZM526.702 37H529.859C530.041 37 530.643 37 531.112 36.937C533.478 36.636 534.738 34.529 534.738 31.96C534.738 29.391 533.478 27.284 531.112 26.983C530.643 26.92 530.041 26.92 529.859 26.92H526.702V37ZM528.2 35.607V28.313H529.859C530.167 28.313 530.671 28.32 531.007 28.383C532.519 28.663 533.184 30.189 533.184 31.96C533.184 33.689 532.547 35.243 531.007 35.537C530.671 35.6 530.181 35.607 529.859 35.607H528.2ZM536.368 37H537.831V33.381H540.505L542.262 37H543.935L542.031 33.094C543.172 32.597 543.746 31.491 543.746 30.147C543.746 28.516 542.906 27.235 541.219 26.976C540.953 26.934 540.638 26.92 540.442 26.92H536.368V37ZM537.831 31.995V28.299H540.386C540.568 28.299 540.813 28.313 541.023 28.369C541.919 28.579 542.255 29.405 542.255 30.147C542.255 30.889 541.919 31.715 541.023 31.932C540.813 31.981 540.568 31.995 540.386 31.995H537.831ZM548.294 37.189C550.177 37.189 551.661 35.796 551.661 33.871C551.661 32.233 550.653 30.924 549.022 30.707L551.514 28.313V26.92H545.452V28.313H549.722L546.642 31.036L547.328 32.191C547.615 32.037 547.958 31.939 548.28 31.939C549.4 31.939 550.163 32.751 550.163 33.871C550.163 34.984 549.4 35.789 548.294 35.803C547.468 35.81 546.733 35.341 546.467 34.466L545.053 34.858C545.48 36.293 546.796 37.189 548.294 37.189Z" fill="#D3D7E0"/>
<path d="M594 112V24" stroke="#D3D7E0" stroke-width="2" stroke-linecap="square" stroke-dasharray="6 6"/>
<path d="M624.593 37H626.056V32.695H629.724V31.225H626.056V28.383H630.564V26.92H624.593V37ZM631.826 37H633.289V33.381H635.963L637.72 37H639.393L637.489 33.094C638.63 32.597 639.204 31.491 639.204 30.147C639.204 28.516 638.364 27.235 636.677 26.976C636.411 26.934 636.096 26.92 635.9 26.92H631.826V37ZM633.289 31.995V28.299H635.844C636.026 28.299 636.271 28.313 636.481 28.369C637.377 28.579 637.713 29.405 637.713 30.147C637.713 30.889 637.377 31.715 636.481 31.932C636.271 31.981 636.026 31.995 635.844 31.995H633.289ZM645.201 37H646.685V35.243H647.686V33.857H646.685V31.127H645.201V33.857H642.324L645.6 26.92H643.927L640.651 33.857V35.243H645.201V37Z" fill="#D3D7E0"/>
<path d="M869.128 92V82.056L866.96 83.368V81.776L869.128 80.48H870.576V92H869.128ZM877.508 92.24C875.268 92.24 873.62 90.592 873.62 88.352V84.128C873.62 81.888 875.268 80.24 877.508 80.24C879.748 80.24 881.396 81.888 881.396 84.128V88.352C881.396 90.592 879.748 92.24 877.508 92.24ZM875.068 88.432C875.068 89.784 876.156 90.872 877.508 90.872C878.86 90.872 879.948 89.784 879.948 88.432V84.04C879.948 82.688 878.86 81.6 877.508 81.6C876.156 81.6 875.068 82.688 875.068 84.04V88.432ZM887.604 92.24C886.436 92.24 885.532 91.784 884.9 91.024V92H883.628V80.48H885.06V84.144C885.676 83.496 886.532 83.12 887.612 83.12C890.012 83.12 891.476 85.08 891.476 87.672C891.476 90.264 890.02 92.24 887.604 92.24ZM884.9 87.672C884.9 89.568 885.684 90.936 887.428 90.936C889.132 90.936 889.964 89.512 889.964 87.672C889.964 85.848 889.148 84.424 887.388 84.424C885.7 84.424 884.9 85.76 884.9 87.672ZM897.197 92.24C896.125 92.24 895.269 91.856 894.653 91.2V95.84H893.221V83.36H894.493V84.328C895.125 83.568 896.029 83.12 897.205 83.12C899.605 83.12 901.069 85.08 901.069 87.672C901.069 90.264 899.613 92.24 897.197 92.24ZM894.493 87.672C894.493 89.568 895.277 90.936 897.021 90.936C898.725 90.936 899.557 89.512 899.557 87.672C899.557 85.848 898.741 84.424 896.981 84.424C895.293 84.424 894.493 85.76 894.493 87.672Z" fill="#110529"/>
<path d="M826.72 92.24C824.512 92.24 822.96 90.824 822.96 88.712C822.96 87.512 823.456 86.472 824.464 85.824C823.664 85.264 823.24 84.384 823.24 83.392C823.24 81.448 824.688 80.24 826.72 80.24C828.752 80.24 830.2 81.448 830.2 83.392C830.2 84.392 829.8 85.264 828.984 85.832C829.984 86.464 830.496 87.512 830.496 88.712C830.496 90.824 828.928 92.24 826.72 92.24ZM824.464 88.712C824.464 90.12 825.376 90.88 826.72 90.88C828.064 90.88 828.984 90.12 828.984 88.712C828.984 87.296 828.08 86.536 826.72 86.536C825.36 86.536 824.464 87.296 824.464 88.712ZM824.752 83.392C824.752 84.576 825.552 85.168 826.72 85.168C827.888 85.168 828.688 84.576 828.688 83.392C828.688 82.208 827.888 81.616 826.72 81.616C825.552 81.616 824.752 82.208 824.752 83.392ZM836.541 92.24C835.373 92.24 834.469 91.784 833.837 91.024V92H832.565V80.48H833.997V84.144C834.613 83.496 835.469 83.12 836.549 83.12C838.949 83.12 840.413 85.08 840.413 87.672C840.413 90.264 838.957 92.24 836.541 92.24ZM833.837 87.672C833.837 89.568 834.621 90.936 836.365 90.936C838.069 90.936 838.901 89.512 838.901 87.672C838.901 85.848 838.085 84.424 836.325 84.424C834.637 84.424 833.837 85.76 833.837 87.672ZM846.135 92.24C845.063 92.24 844.207 91.856 843.591 91.2V95.84H842.159V83.36H843.431V84.328C844.063 83.568 844.967 83.12 846.143 83.12C848.543 83.12 850.007 85.08 850.007 87.672C850.007 90.264 848.551 92.24 846.135 92.24ZM843.431 87.672C843.431 89.568 844.215 90.936 845.959 90.936C847.663 90.936 848.495 89.512 848.495 87.672C848.495 85.848 847.679 84.424 845.919 84.424C844.231 84.424 843.431 85.76 843.431 87.672Z" fill="#110529"/>
<path d="M101.28 92.224C99.568 92.224 98.128 91.232 97.64 89.632L99.008 89.24C99.352 90.312 100.248 90.88 101.272 90.864C102.672 90.84 103.576 89.864 103.576 88.456C103.576 87.032 102.64 86.048 101.256 86.048C100.864 86.048 100.424 86.168 100.064 86.352L99.376 85.224L103.12 81.84H98.096V80.48H104.888V81.848L101.776 84.832C103.76 84.944 105.04 86.44 105.04 88.456C105.04 90.664 103.416 92.224 101.28 92.224ZM111.088 92.24C109.92 92.24 109.016 91.784 108.384 91.024V92H107.112V80.48H108.544V84.144C109.16 83.496 110.016 83.12 111.096 83.12C113.496 83.12 114.96 85.08 114.96 87.672C114.96 90.264 113.504 92.24 111.088 92.24ZM108.384 87.672C108.384 89.568 109.168 90.936 110.912 90.936C112.616 90.936 113.448 89.512 113.448 87.672C113.448 85.848 112.632 84.424 110.872 84.424C109.184 84.424 108.384 85.76 108.384 87.672ZM120.682 92.24C119.61 92.24 118.754 91.856 118.138 91.2V95.84H116.706V83.36H117.978V84.328C118.61 83.568 119.514 83.12 120.69 83.12C123.09 83.12 124.554 85.08 124.554 87.672C124.554 90.264 123.098 92.24 120.682 92.24ZM117.978 87.672C117.978 89.568 118.762 90.936 120.506 90.936C122.21 90.936 123.042 89.512 123.042 87.672C123.042 85.848 122.226 84.424 120.466 84.424C118.778 84.424 117.978 85.76 117.978 87.672Z" fill="#110529"/>
<g filter="url(#filter0_i_6910_5698)">
<rect x="96" y="108" width="30" height="52" rx="1" fill="#90E0E0"/>
<path d="M105.447 142V127.6H107.247L114.757 138.85V127.6H116.557V142H114.757L107.247 130.74V142H105.447Z" fill="#110529"/>
<rect x="96" y="108" width="30" height="52" rx="1" stroke="#110529" stroke-width="2" stroke-linecap="round"/>
</g>
<g filter="url(#filter1_i_6910_5698)">
<path d="M126 109.6C126 109.04 126 108.76 126.109 108.546C126.205 108.358 126.358 108.205 126.546 108.109C126.76 108 127.04 108 127.6 108H484.4C484.96 108 485.24 108 485.454 108.109C485.642 108.205 485.795 108.358 485.891 108.546C486 108.76 486 109.04 486 109.6V158.4C486 158.96 486 159.24 485.891 159.454C485.795 159.642 485.642 159.795 485.454 159.891C485.24 160 484.96 160 484.4 160H127.6C127.04 160 126.76 160 126.546 159.891C126.358 159.795 126.205 159.642 126.109 159.454C126 159.24 126 158.96 126 158.4V153.5V147V140V134V127.5V121V114.5V109.6Z" fill="#99E099"/>
</g>
<path d="M126 109.6C126 109.04 126 108.76 126.109 108.546C126.205 108.358 126.358 108.205 126.546 108.109C126.76 108 127.04 108 127.6 108H484.4C484.96 108 485.24 108 485.454 108.109C485.642 108.205 485.795 108.358 485.891 108.546C486 108.76 486 109.04 486 109.6V158.4C486 158.96 486 159.24 485.891 159.454C485.795 159.642 485.642 159.795 485.454 159.891C485.24 160 484.96 160 484.4 160H127.6C127.04 160 126.76 160 126.546 159.891C126.358 159.795 126.205 159.642 126.109 159.454C126 159.24 126 158.96 126 158.4V153.5V147V140V134V127.5V121V114.5V109.6Z" stroke="#110529" stroke-width="2" stroke-linecap="round"/>
<path d="M316.758 142L311.938 127.6H313.788L317.978 140.11L322.208 127.6H324.058L319.238 142H316.758Z" fill="#110529"/>
<g filter="url(#filter2_i_6910_5698)">
<rect x="486" y="108" width="30" height="52" rx="1" fill="#CBEB67"/>
</g>
<rect x="486" y="108" width="30" height="52" rx="1" stroke="#110529" stroke-width="2" stroke-linecap="round"/>
<g filter="url(#filter3_i_6910_5698)">
<rect x="552" y="108" width="30" height="52" rx="1" fill="#FAAAFA"/>
</g>
<rect x="552" y="108" width="30" height="52" rx="1" stroke="#110529" stroke-width="2" stroke-linecap="round"/>
<g filter="url(#filter4_i_6910_5698)">
<rect x="516" y="108" width="36" height="52" rx="1" fill="#FFCB8F"/>
</g>
<rect x="516" y="108" width="36" height="52" rx="1" stroke="#110529" stroke-width="2" stroke-linecap="round"/>
<path d="M495.447 142V127.6H497.247L504.757 138.85V127.6H506.557V142H504.757L497.247 130.74V142H495.447Z" fill="#110529"/>
<path d="M561.447 142V127.6H563.247L570.757 138.85V127.6H572.557V142H570.757L563.247 130.74V142H561.447Z" fill="#110529"/>
<path d="M528.593 142V127.6H533.033C533.313 127.6 534.173 127.6 534.853 127.69C538.183 128.13 539.913 131.13 539.913 134.8C539.913 138.48 538.183 141.47 534.853 141.91C534.183 142 533.303 142 533.033 142H528.593ZM530.423 140.3H533.033C533.533 140.3 534.233 140.28 534.703 140.19C537.063 139.76 538.023 137.47 538.023 134.8C538.023 132.08 537.033 129.83 534.703 129.41C534.233 129.32 533.513 129.3 533.033 129.3H530.423V140.3Z" fill="#110529"/>
<g filter="url(#filter5_i_6910_5698)">
<rect x="582" y="108" width="96" height="52" rx="1" fill="#C1ADFF"/>
<path d="M629.244 142.29C627.224 142.29 625.754 141.11 625.244 139.27L627.014 138.85C627.224 139.83 628.134 140.6 629.204 140.6C629.884 140.6 630.704 140.29 631.094 139.51C631.354 138.99 631.354 138.37 631.354 137.48V127.6H633.154V137.48C633.154 138.72 633.214 139.51 632.684 140.43C631.954 141.7 630.694 142.29 629.244 142.29Z" fill="#110529"/>
<rect x="582" y="108" width="96" height="52" rx="1" stroke="#110529" stroke-width="2" stroke-linecap="round"/>
</g>
<g filter="url(#filter6_i_6910_5698)">
<rect x="678" y="108" width="144" height="52" rx="1" fill="#FAFAAA"/>
<path d="M750.093 142.3C745.783 142.3 743.373 139.24 743.373 134.8C743.373 130.36 745.783 127.3 750.093 127.3C753.423 127.3 755.613 129.13 756.433 131.99L754.623 132.47C754.033 130.33 752.523 129 750.093 129C746.873 129 745.273 131.35 745.253 134.8C745.233 138.25 746.873 140.6 750.093 140.6C752.523 140.6 754.033 139.27 754.623 137.13L756.433 137.61C755.613 140.47 753.423 142.3 750.093 142.3Z" fill="#110529"/>
<rect x="678" y="108" width="144" height="52" rx="1" stroke="#110529" stroke-width="2" stroke-linecap="round"/>
</g>
<g filter="url(#filter7_i_6910_5698)">
<rect x="822" y="108" width="30" height="52" rx="1" fill="#D3D7E0"/>
<rect x="822" y="108" width="30" height="52" rx="1" stroke="#110529" stroke-width="2" stroke-linecap="round"/>
</g>
<g filter="url(#filter8_i_6910_5698)">
<rect x="852" y="108" width="64" height="52" rx="1" fill="#D6E0FF"/>
<path d="M872.553 142.3C869.213 142.3 866.873 140.11 866.873 136.75V127.61L868.673 127.6V136.6C868.673 139.33 870.733 140.62 872.553 140.62C874.393 140.62 876.433 139.31 876.433 136.6V127.6H878.233V136.75C878.233 140.1 875.893 142.3 872.553 142.3ZM881.033 142V127.6H882.653L888.093 139.07L893.503 127.6H895.143V141.99H893.453V131.51L888.563 142H887.613L882.723 131.51V142H881.033ZM898.147 142V127.6H899.927V142H898.147Z" fill="#110529"/>
<rect x="852" y="108" width="64" height="52" rx="1" stroke="#110529" stroke-width="2" stroke-linecap="round"/>
</g>
<g filter="url(#filter9_i_6910_5698)">
<rect x="96" y="244" width="30" height="52" rx="1" fill="#90E0E0"/>
<path d="M105.447 278V263.6H107.247L114.757 274.85V263.6H116.557V278H114.757L107.247 266.74V278H105.447Z" fill="#110529"/>
<rect x="96" y="244" width="30" height="52" rx="1" stroke="#110529" stroke-width="2" stroke-linecap="round"/>
</g>
<g filter="url(#filter10_i_6910_5698)">
<path d="M126 245.6C126 245.04 126 244.76 126.109 244.546C126.205 244.358 126.358 244.205 126.546 244.109C126.76 244 127.04 244 127.6 244H484.4C484.96 244 485.24 244 485.454 244.109C485.642 244.205 485.795 244.358 485.891 244.546C486 244.76 486 245.04 486 245.6V294.4C486 294.96 486 295.24 485.891 295.454C485.795 295.642 485.642 295.795 485.454 295.891C485.24 296 484.96 296 484.4 296H127.6C127.04 296 126.76 296 126.546 295.891C126.358 295.795 126.205 295.642 126.109 295.454C126 295.24 126 294.96 126 294.4V289.5V283V276V270V263.5V257V250.5V245.6Z" fill="#99E099"/>
</g>
<path d="M126 245.6C126 245.04 126 244.76 126.109 244.546C126.205 244.358 126.358 244.205 126.546 244.109C126.76 244 127.04 244 127.6 244H484.4C484.96 244 485.24 244 485.454 244.109C485.642 244.205 485.795 244.358 485.891 244.546C486 244.76 486 245.04 486 245.6V294.4C486 294.96 486 295.24 485.891 295.454C485.795 295.642 485.642 295.795 485.454 295.891C485.24 296 484.96 296 484.4 296H127.6C127.04 296 126.76 296 126.546 295.891C126.358 295.795 126.205 295.642 126.109 295.454C126 295.24 126 294.96 126 294.4V289.5V283V276V270V263.5V257V250.5V245.6Z" stroke="#110529" stroke-width="2" stroke-linecap="round"/>
<path d="M316.758 278L311.938 263.6H313.788L317.978 276.11L322.208 263.6H324.058L319.238 278H316.758Z" fill="#110529"/>
<g filter="url(#filter11_i_6910_5698)">
<rect x="486" y="244" width="30" height="52" rx="1" fill="#CBEB67"/>
<path d="M495.447 278V263.6H497.247L504.757 274.85V263.6H506.557V278H504.757L497.247 266.74V278H495.447Z" fill="#110529"/>
<rect x="486" y="244" width="30" height="52" rx="1" stroke="#110529" stroke-width="2" stroke-linecap="round"/>
</g>
<g filter="url(#filter12_i_6910_5698)">
<rect x="516" y="244" width="96" height="52" rx="1" fill="#C1ADFF"/>
<path d="M563.244 278.29C561.224 278.29 559.754 277.11 559.244 275.27L561.014 274.85C561.224 275.83 562.134 276.6 563.204 276.6C563.884 276.6 564.704 276.29 565.094 275.51C565.354 274.99 565.354 274.37 565.354 273.48V263.6H567.154V273.48C567.154 274.72 567.214 275.51 566.684 276.43C565.954 277.7 564.694 278.29 563.244 278.29Z" fill="#110529"/>
<rect x="516" y="244" width="96" height="52" rx="1" stroke="#110529" stroke-width="2" stroke-linecap="round"/>
</g>
<g filter="url(#filter13_i_6910_5698)">
<rect x="612" y="244" width="144" height="52" rx="1" fill="#FAFAAA"/>
<path d="M684.093 278.3C679.783 278.3 677.373 275.24 677.373 270.8C677.373 266.36 679.783 263.3 684.093 263.3C687.423 263.3 689.613 265.13 690.433 267.99L688.623 268.47C688.033 266.33 686.523 265 684.093 265C680.873 265 679.273 267.35 679.253 270.8C679.233 274.25 680.873 276.6 684.093 276.6C686.523 276.6 688.033 275.27 688.623 273.13L690.433 273.61C689.613 276.47 687.423 278.3 684.093 278.3Z" fill="#110529"/>
<rect x="612" y="244" width="144" height="52" rx="1" stroke="#110529" stroke-width="2" stroke-linecap="round"/>
</g>
<g filter="url(#filter14_i_6910_5698)">
<rect x="756" y="244" width="30" height="52" rx="1" fill="#D3D7E0"/>
<rect x="756" y="244" width="30" height="52" rx="1" stroke="#110529" stroke-width="2" stroke-linecap="round"/>
</g>
<g filter="url(#filter15_i_6910_5698)">
<rect x="786" y="244" width="64" height="52" rx="1" fill="#D6E0FF"/>
<path d="M806.553 278.3C803.213 278.3 800.873 276.11 800.873 272.75V263.61L802.673 263.6V272.6C802.673 275.33 804.733 276.62 806.553 276.62C808.393 276.62 810.433 275.31 810.433 272.6V263.6H812.233V272.75C812.233 276.1 809.893 278.3 806.553 278.3ZM815.033 278V263.6H816.653L822.093 275.07L827.503 263.6H829.143V277.99H827.453V267.51L822.563 278H821.613L816.723 267.51V278H815.033ZM832.147 278V263.6H833.927V278H832.147Z" fill="#110529"/>
<rect x="786" y="244" width="64" height="52" rx="1" stroke="#110529" stroke-width="2" stroke-linecap="round"/>
</g>
<g filter="url(#filter16_i_6910_5698)">
<rect x="96" y="344" width="30" height="52" rx="1" fill="#90E0E0"/>
<path d="M105.447 378V363.6H107.247L114.757 374.85V363.6H116.557V378H114.757L107.247 366.74V378H105.447Z" fill="#110529"/>
<rect x="96" y="344" width="30" height="52" rx="1" stroke="#110529" stroke-width="2" stroke-linecap="round"/>
</g>
<g filter="url(#filter17_i_6910_5698)">
<path d="M126 345.6C126 345.04 126 344.76 126.109 344.546C126.205 344.358 126.358 344.205 126.546 344.109C126.76 344 127.04 344 127.6 344H484.4C484.96 344 485.24 344 485.454 344.109C485.642 344.205 485.795 344.358 485.891 344.546C486 344.76 486 345.04 486 345.6V394.4C486 394.96 486 395.24 485.891 395.454C485.795 395.642 485.642 395.795 485.454 395.891C485.24 396 484.96 396 484.4 396H127.6C127.04 396 126.76 396 126.546 395.891C126.358 395.795 126.205 395.642 126.109 395.454C126 395.24 126 394.96 126 394.4V389.5V383V376V370V363.5V357V350.5V345.6Z" fill="#99E099"/>
</g>
<path d="M126 345.6C126 345.04 126 344.76 126.109 344.546C126.205 344.358 126.358 344.205 126.546 344.109C126.76 344 127.04 344 127.6 344H484.4C484.96 344 485.24 344 485.454 344.109C485.642 344.205 485.795 344.358 485.891 344.546C486 344.76 486 345.04 486 345.6V394.4C486 394.96 486 395.24 485.891 395.454C485.795 395.642 485.642 395.795 485.454 395.891C485.24 396 484.96 396 484.4 396H127.6C127.04 396 126.76 396 126.546 395.891C126.358 395.795 126.205 395.642 126.109 395.454C126 395.24 126 394.96 126 394.4V389.5V383V376V370V363.5V357V350.5V345.6Z" stroke="#110529" stroke-width="2" stroke-linecap="round"/>
<path d="M316.758 378L311.938 363.6H313.788L317.978 376.11L322.208 363.6H324.058L319.238 378H316.758Z" fill="#110529"/>
<g filter="url(#filter18_i_6910_5698)">
<rect x="486" y="344" width="30" height="52" rx="1" fill="#CBEB67"/>
</g>
<rect x="486" y="344" width="30" height="52" rx="1" stroke="#110529" stroke-width="2" stroke-linecap="round"/>
<g filter="url(#filter19_i_6910_5698)">
<rect x="552" y="344" width="30" height="52" rx="1" fill="#FAAAFA"/>
</g>
<rect x="552" y="344" width="30" height="52" rx="1" stroke="#110529" stroke-width="2" stroke-linecap="round"/>
<g filter="url(#filter20_i_6910_5698)">
<rect x="516" y="344" width="36" height="52" rx="1" fill="#FFCB8F"/>
</g>
<rect x="516" y="344" width="36" height="52" rx="1" stroke="#110529" stroke-width="2" stroke-linecap="round"/>
<path d="M495.447 378V363.6H497.247L504.757 374.85V363.6H506.557V378H504.757L497.247 366.74V378H495.447Z" fill="#110529"/>
<path d="M561.447 378V363.6H563.247L570.757 374.85V363.6H572.557V378H570.757L563.247 366.74V378H561.447Z" fill="#110529"/>
<path d="M528.593 378V363.6H533.033C533.313 363.6 534.173 363.6 534.853 363.69C538.183 364.13 539.913 367.13 539.913 370.8C539.913 374.48 538.183 377.47 534.853 377.91C534.183 378 533.303 378 533.033 378H528.593ZM530.423 376.3H533.033C533.533 376.3 534.233 376.28 534.703 376.19C537.063 375.76 538.023 373.47 538.023 370.8C538.023 368.08 537.033 365.83 534.703 365.41C534.233 365.32 533.513 365.3 533.033 365.3H530.423V376.3Z" fill="#110529"/>
<g filter="url(#filter21_i_6910_5698)">
<rect x="582" y="344" width="96" height="52" rx="1" fill="#C1ADFF"/>
<path d="M629.244 378.29C627.224 378.29 625.754 377.11 625.244 375.27L627.014 374.85C627.224 375.83 628.134 376.6 629.204 376.6C629.884 376.6 630.704 376.29 631.094 375.51C631.354 374.99 631.354 374.37 631.354 373.48V363.6H633.154V373.48C633.154 374.72 633.214 375.51 632.684 376.43C631.954 377.7 630.694 378.29 629.244 378.29Z" fill="#110529"/>
<rect x="582" y="344" width="96" height="52" rx="1" stroke="#110529" stroke-width="2" stroke-linecap="round"/>
</g>
<g filter="url(#filter22_i_6910_5698)">
<rect x="678" y="344" width="144" height="52" rx="1" fill="#FAFAAA"/>
<path d="M750.093 378.3C745.783 378.3 743.373 375.24 743.373 370.8C743.373 366.36 745.783 363.3 750.093 363.3C753.423 363.3 755.613 365.13 756.433 367.99L754.623 368.47C754.033 366.33 752.523 365 750.093 365C746.873 365 745.273 367.35 745.253 370.8C745.233 374.25 746.873 376.6 750.093 376.6C752.523 376.6 754.033 375.27 754.623 373.13L756.433 373.61C755.613 376.47 753.423 378.3 750.093 378.3Z" fill="#110529"/>
<rect x="678" y="344" width="144" height="52" rx="1" stroke="#110529" stroke-width="2" stroke-linecap="round"/>
</g>
<g filter="url(#filter23_i_6910_5698)">
<rect x="822" y="344" width="30" height="52" rx="1" fill="#D3D7E0"/>
<rect x="822" y="344" width="30" height="52" rx="1" stroke="#110529" stroke-width="2" stroke-linecap="round"/>
</g>
<g filter="url(#filter24_i_6910_5698)">
<rect x="852" y="344" width="64" height="52" rx="1" fill="#D6E0FF"/>
<path d="M872.553 378.3C869.213 378.3 866.873 376.11 866.873 372.75V363.61L868.673 363.6V372.6C868.673 375.33 870.733 376.62 872.553 376.62C874.393 376.62 876.433 375.31 876.433 372.6V363.6H878.233V372.75C878.233 376.1 875.893 378.3 872.553 378.3ZM881.033 378V363.6H882.653L888.093 375.07L893.503 363.6H895.143V377.99H893.453V367.51L888.563 378H887.613L882.723 367.51V378H881.033ZM898.147 378V363.6H899.927V378H898.147Z" fill="#110529"/>
<rect x="852" y="344" width="64" height="52" rx="1" stroke="#110529" stroke-width="2" stroke-linecap="round"/>
</g>
<g filter="url(#filter25_i_6910_5698)">
<rect x="96" y="444" width="30" height="52" rx="1" fill="#90E0E0"/>
<path d="M105.447 478V463.6H107.247L114.757 474.85V463.6H116.557V478H114.757L107.247 466.74V478H105.447Z" fill="#110529"/>
<rect x="96" y="444" width="30" height="52" rx="1" stroke="#110529" stroke-width="2" stroke-linecap="round"/>
</g>
<g filter="url(#filter26_i_6910_5698)">
<path d="M126 445.6C126 445.04 126 444.76 126.109 444.546C126.205 444.358 126.358 444.205 126.546 444.109C126.76 444 127.04 444 127.6 444H484.4C484.96 444 485.24 444 485.454 444.109C485.642 444.205 485.795 444.358 485.891 444.546C486 444.76 486 445.04 486 445.6V494.4C486 494.96 486 495.24 485.891 495.454C485.795 495.642 485.642 495.795 485.454 495.891C485.24 496 484.96 496 484.4 496H127.6C127.04 496 126.76 496 126.546 495.891C126.358 495.795 126.205 495.642 126.109 495.454C126 495.24 126 494.96 126 494.4V489.5V483V476V470V463.5V457V450.5V445.6Z" fill="#99E099"/>
</g>
<path d="M126 445.6C126 445.04 126 444.76 126.109 444.546C126.205 444.358 126.358 444.205 126.546 444.109C126.76 444 127.04 444 127.6 444H484.4C484.96 444 485.24 444 485.454 444.109C485.642 444.205 485.795 444.358 485.891 444.546C486 444.76 486 445.04 486 445.6V494.4C486 494.96 486 495.24 485.891 495.454C485.795 495.642 485.642 495.795 485.454 495.891C485.24 496 484.96 496 484.4 496H127.6C127.04 496 126.76 496 126.546 495.891C126.358 495.795 126.205 495.642 126.109 495.454C126 495.24 126 494.96 126 494.4V489.5V483V476V470V463.5V457V450.5V445.6Z" stroke="#110529" stroke-width="2" stroke-linecap="round"/>
<path d="M316.758 478L311.938 463.6H313.788L317.978 476.11L322.208 463.6H324.058L319.238 478H316.758Z" fill="#110529"/>
<g filter="url(#filter27_i_6910_5698)">
<rect x="486" y="444" width="30" height="52" rx="1" fill="#CBEB67"/>
<path d="M495.447 478V463.6H497.247L504.757 474.85V463.6H506.557V478H504.757L497.247 466.74V478H495.447Z" fill="#110529"/>
<rect x="486" y="444" width="30" height="52" rx="1" stroke="#110529" stroke-width="2" stroke-linecap="round"/>
</g>
<g filter="url(#filter28_i_6910_5698)">
<rect x="516" y="444" width="96" height="52" rx="1" fill="#C1ADFF"/>
<path d="M563.244 478.29C561.224 478.29 559.754 477.11 559.244 475.27L561.014 474.85C561.224 475.83 562.134 476.6 563.204 476.6C563.884 476.6 564.704 476.29 565.094 475.51C565.354 474.99 565.354 474.37 565.354 473.48V463.6H567.154V473.48C567.154 474.72 567.214 475.51 566.684 476.43C565.954 477.7 564.694 478.29 563.244 478.29Z" fill="#110529"/>
<rect x="516" y="444" width="96" height="52" rx="1" stroke="#110529" stroke-width="2" stroke-linecap="round"/>
</g>
<g filter="url(#filter29_i_6910_5698)">
<rect x="612" y="444" width="144" height="52" rx="1" fill="#FAFAAA"/>
<path d="M684.093 478.3C679.783 478.3 677.373 475.24 677.373 470.8C677.373 466.36 679.783 463.3 684.093 463.3C687.423 463.3 689.613 465.13 690.433 467.99L688.623 468.47C688.033 466.33 686.523 465 684.093 465C680.873 465 679.273 467.35 679.253 470.8C679.233 474.25 680.873 476.6 684.093 476.6C686.523 476.6 688.033 475.27 688.623 473.13L690.433 473.61C689.613 476.47 687.423 478.3 684.093 478.3Z" fill="#110529"/>
<rect x="612" y="444" width="144" height="52" rx="1" stroke="#110529" stroke-width="2" stroke-linecap="round"/>
</g>
<g filter="url(#filter30_i_6910_5698)">
<rect x="756" y="444" width="30" height="52" rx="1" fill="#D3D7E0"/>
<rect x="756" y="444" width="30" height="52" rx="1" stroke="#110529" stroke-width="2" stroke-linecap="round"/>
</g>
<g filter="url(#filter31_i_6910_5698)">
<rect x="786" y="444" width="64" height="52" rx="1" fill="#D6E0FF"/>
<path d="M806.553 478.3C803.213 478.3 800.873 476.11 800.873 472.75V463.61L802.673 463.6V472.6C802.673 475.33 804.733 476.62 806.553 476.62C808.393 476.62 810.433 475.31 810.433 472.6V463.6H812.233V472.75C812.233 476.1 809.893 478.3 806.553 478.3ZM815.033 478V463.6H816.653L822.093 475.07L827.503 463.6H829.143V477.99H827.453V467.51L822.563 478H821.613L816.723 467.51V478H815.033ZM832.147 478V463.6H833.927V478H832.147Z" fill="#110529"/>
<rect x="786" y="444" width="64" height="52" rx="1" stroke="#110529" stroke-width="2" stroke-linecap="round"/>
</g>
<path d="M32.9984 142V127.6H34.7784V142H32.9984ZM43.6089 142.3C39.6389 142.3 36.9789 139.44 36.9789 134.8C36.9789 130.21 39.5789 127.31 43.6089 127.31C46.8289 127.31 48.7989 128.92 49.5489 131.51L47.7489 131.88C47.1389 130.14 45.7489 129.02 43.6989 129.01C40.4789 128.99 38.8889 131.35 38.8689 134.8C38.8489 138.25 40.4789 140.58 43.6989 140.6C46.4789 140.62 47.9189 138.93 48.1389 136.06H45.0789V134.59H50.0189C50.0489 134.87 50.0589 135.32 50.0589 135.44C50.0589 139.39 47.8189 142.3 43.6089 142.3ZM52.0563 142V127.6H53.8363V133.95H61.4163V127.6H63.1963V142H61.4163V135.64H53.8363V142H52.0563Z" fill="#110529"/>
<path d="M28.0277 268V253.6H29.8077V268H28.0277ZM38.6382 268.3C34.6682 268.3 32.0082 265.44 32.0082 260.8C32.0082 256.21 34.6082 253.31 38.6382 253.31C41.8582 253.31 43.8282 254.92 44.5782 257.51L42.7782 257.88C42.1682 256.14 40.7782 255.02 38.7282 255.01C35.5082 254.99 33.9182 257.35 33.8982 260.8C33.8782 264.25 35.5082 266.58 38.7282 266.6C41.5082 266.62 42.9482 264.93 43.1682 262.06H40.1082V260.59H45.0482C45.0782 260.87 45.0882 261.32 45.0882 261.44C45.0882 265.39 42.8482 268.3 38.6382 268.3ZM47.0855 268V253.6H48.8655V260.36L55.1655 253.6H57.4055L50.8655 260.59L57.9155 268H55.6155L48.8655 260.96V268H47.0855ZM66.5654 253.6H68.3754L64.5354 268H62.7254L66.5654 253.6ZM34.7953 288V273.6H36.5753V288H34.7953ZM45.4058 288.3C41.4358 288.3 38.7758 285.44 38.7758 280.8C38.7758 276.21 41.3758 273.31 45.4058 273.31C48.6258 273.31 50.5958 274.92 51.3458 277.51L49.5458 277.88C48.9358 276.14 47.5458 275.02 45.4958 275.01C42.2758 274.99 40.6858 277.35 40.6658 280.8C40.6458 284.25 42.2758 286.58 45.4958 286.6C48.2758 286.62 49.7158 284.93 49.9358 282.06H46.8758V280.59H51.8158C51.8458 280.87 51.8558 281.32 51.8558 281.44C51.8558 285.39 49.6158 288.3 45.4058 288.3ZM54.0531 288V273.6H55.8331V286.31H62.5131V288H54.0531Z" fill="#110529"/>
<path d="M296 184L295.293 184.707L294.586 184L295.293 183.293L296 184ZM303.293 175.293L304 174.586L305.414 176L304.707 176.707L303.293 175.293ZM304.707 191.293L305.414 192L304 193.414L303.293 192.707L304.707 191.293ZM306 185L296 185L296 183L306 183L306 185ZM295.293 183.293L303.293 175.293L304.707 176.707L296.707 184.707L295.293 183.293ZM296.707 183.293L304.707 191.293L303.293 192.707L295.293 184.707L296.707 183.293Z" fill="#110529"/>
<path d="M566.5 184H306" stroke="#110529" stroke-width="2"/>
<rect width="57" height="20" transform="translate(566.5 174)" fill="white"/>
<path d="M575.171 190.224C573.459 190.224 572.019 189.232 571.531 187.632L572.899 187.24C573.243 188.312 574.139 188.88 575.163 188.864C576.563 188.84 577.467 187.864 577.467 186.456C577.467 185.032 576.531 184.048 575.147 184.048C574.755 184.048 574.315 184.168 573.955 184.352L573.267 183.224L577.011 179.84H571.987V178.48H578.779V179.848L575.667 182.832C577.651 182.944 578.931 184.44 578.931 186.456C578.931 188.664 577.307 190.224 575.171 190.224ZM584.899 190.24C582.659 190.24 581.011 188.592 581.011 186.352V182.128C581.011 179.888 582.659 178.24 584.899 178.24C587.139 178.24 588.787 179.888 588.787 182.128V186.352C588.787 188.592 587.139 190.24 584.899 190.24ZM582.459 186.432C582.459 187.784 583.547 188.872 584.899 188.872C586.251 188.872 587.339 187.784 587.339 186.432V182.04C587.339 180.688 586.251 179.6 584.899 179.6C583.547 179.6 582.459 180.688 582.459 182.04V186.432ZM594.914 190.24C592.674 190.24 591.026 188.592 591.026 186.352V182.128C591.026 179.888 592.674 178.24 594.914 178.24C597.154 178.24 598.802 179.888 598.802 182.128V186.352C598.802 188.592 597.154 190.24 594.914 190.24ZM592.474 186.432C592.474 187.784 593.562 188.872 594.914 188.872C596.266 188.872 597.354 187.784 597.354 186.432V182.04C597.354 180.688 596.266 179.6 594.914 179.6C593.562 179.6 592.474 180.688 592.474 182.04V186.432ZM605.01 190.24C603.842 190.24 602.938 189.784 602.306 189.024V190H601.034V178.48H602.466V182.144C603.082 181.496 603.938 181.12 605.018 181.12C607.418 181.12 608.882 183.08 608.882 185.672C608.882 188.264 607.426 190.24 605.01 190.24ZM602.306 185.672C602.306 187.568 603.09 188.936 604.834 188.936C606.538 188.936 607.37 187.512 607.37 185.672C607.37 183.848 606.554 182.424 604.794 182.424C603.106 182.424 602.306 183.76 602.306 185.672ZM614.604 190.24C613.532 190.24 612.676 189.856 612.06 189.2V193.84H610.628V181.36H611.9V182.328C612.532 181.568 613.436 181.12 614.612 181.12C617.012 181.12 618.476 183.08 618.476 185.672C618.476 188.264 617.02 190.24 614.604 190.24ZM611.9 185.672C611.9 187.568 612.684 188.936 614.428 188.936C616.132 188.936 616.964 187.512 616.964 185.672C616.964 183.848 616.148 182.424 614.388 182.424C612.7 182.424 611.9 183.76 611.9 185.672Z" fill="#110529"/>
<path d="M884 184H623.5" stroke="#110529" stroke-width="2"/>
<rect x="884" y="172" width="32" height="24" rx="1" fill="white"/>
<path d="M892.62 190V178.48H897.172C897.396 178.48 897.724 178.496 898.02 178.544C899.884 178.832 900.868 180.28 900.868 182.112C900.868 183.632 900.188 184.888 898.884 185.432L901.108 190H899.476L897.412 185.744H894.044V190H892.62ZM894.044 184.392H897.124C897.324 184.392 897.604 184.376 897.844 184.32C898.948 184.072 899.412 183.072 899.412 182.112C899.412 181.152 898.948 180.152 897.844 179.904C897.604 179.848 897.324 179.832 897.124 179.832H894.044V184.392ZM904.878 190V180.056L902.71 181.368V179.776L904.878 178.48H906.326V190H904.878Z" fill="#110529"/>
<rect x="884" y="172" width="32" height="24" rx="1" stroke="#110529" stroke-width="2"/>
<path d="M25.6881 380V367.29H20.7781V365.6H32.3781V367.29H27.4681V380H25.6881ZM39.8903 380.3C35.5803 380.3 33.1703 377.24 33.1703 372.8C33.1703 368.36 35.5803 365.3 39.8903 365.3C43.2203 365.3 45.4103 367.13 46.2303 369.99L44.4203 370.47C43.8303 368.33 42.3203 367 39.8903 367C36.6703 367 35.0703 369.35 35.0503 372.8C35.0303 376.25 36.6703 378.6 39.8903 378.6C42.3203 378.6 43.8303 377.27 44.4203 375.13L46.2303 375.61C45.4103 378.47 43.2203 380.3 39.8903 380.3ZM48.4234 380V365.6H54.1134C54.3934 365.6 54.8034 365.62 55.1734 365.68C57.5034 366.04 58.7334 367.85 58.7334 370.14C58.7334 372.04 57.8834 373.61 56.2534 374.29L59.0334 380H56.9934L54.4134 374.68H50.2034V380H48.4234ZM50.2034 372.99H54.0534C54.3034 372.99 54.6534 372.97 54.9534 372.9C56.3334 372.59 56.9134 371.34 56.9134 370.14C56.9134 368.94 56.3334 367.69 54.9534 367.38C54.6534 367.31 54.3034 367.29 54.0534 367.29H50.2034V372.99ZM65.2298 369.2C65.2298 368.71 65.2998 368.23 65.4498 367.78C65.9798 366.16 67.5098 365.3 69.3698 365.3C71.8598 365.3 73.6098 366.84 73.6098 369.22C73.6098 370.5 73.0998 371.58 72.0498 372.09C73.4398 372.44 74.8398 373.74 74.8398 375.95C74.8398 378.57 72.9898 380.3 69.9398 380.3C68.7098 380.3 67.7198 379.96 67.0098 379.39V384.8H65.2298V369.2ZM67.0498 375.71C67.0498 376.1 67.0798 376.64 67.1998 377.01C67.5298 378.04 68.7698 378.61 70.0198 378.61C71.7898 378.61 73.0298 377.52 73.0298 375.87C73.0298 374.1 71.6098 373.18 69.4198 373.14V371.54C70.7898 371.4 71.7898 370.67 71.7898 369.24C71.7898 367.82 70.7898 366.99 69.4098 366.99C68.5198 366.99 67.6398 367.35 67.2798 368.28C67.0698 368.8 67.0498 369.44 67.0498 369.86V375.71Z" fill="#110529"/>
<path d="M25.3268 480V467.29H20.4168V465.6H32.0168V467.29H27.1068V480H25.3268ZM39.529 480.3C35.219 480.3 32.809 477.24 32.809 472.8C32.809 468.36 35.219 465.3 39.529 465.3C42.859 465.3 45.049 467.13 45.869 469.99L44.059 470.47C43.469 468.33 41.959 467 39.529 467C36.309 467 34.709 469.35 34.689 472.8C34.669 476.25 36.309 478.6 39.529 478.6C41.959 478.6 43.469 477.27 44.059 475.13L45.869 475.61C45.049 478.47 42.859 480.3 39.529 480.3ZM48.0621 480V465.6H53.7521C54.0321 465.6 54.4421 465.62 54.8121 465.68C57.1421 466.04 58.3721 467.85 58.3721 470.14C58.3721 472.04 57.5221 473.61 55.8921 474.29L58.6721 480H56.6321L54.0521 474.68H49.8421V480H48.0621ZM49.8421 472.99H53.6921C53.9421 472.99 54.2921 472.97 54.5921 472.9C55.9721 472.59 56.5521 471.34 56.5521 470.14C56.5521 468.94 55.9721 467.69 54.5921 467.38C54.2921 467.31 53.9421 467.29 53.6921 467.29H49.8421V472.99ZM69.1485 480.3C66.0885 480.3 64.2785 477.83 64.2785 474.6C64.2785 471.35 66.0985 468.9 69.1985 468.9C70.8485 468.9 72.1085 469.65 72.7985 470.93V469.2H74.3885V480H72.7985V478.24C72.0985 479.54 70.7885 480.3 69.1485 480.3ZM66.1685 474.6C66.1685 476.88 67.1985 478.67 69.3685 478.67C71.5085 478.67 72.4985 476.96 72.4985 474.59C72.4985 472.2 71.4985 470.53 69.3885 470.53C67.2785 470.53 66.1685 472.19 66.1685 474.6Z" fill="#110529"/>
<defs>
<filter id="filter0_i_6910_5698" x="95" y="107" width="32" height="54" filterUnits="userSpaceOnUse" color-interpolation-filters="sRGB">
<feFlood flood-opacity="0" result="BackgroundImageFix"/>
<feBlend mode="normal" in="SourceGraphic" in2="BackgroundImageFix" result="shape"/>
<feColorMatrix in="SourceAlpha" type="matrix" values="0 0 0 0 0 0 0 0 0 0 0 0 0 0 0 0 0 0 127 0" result="hardAlpha"/>
<feOffset dx="-8" dy="-4"/>
<feComposite in2="hardAlpha" operator="arithmetic" k2="-1" k3="1"/>
<feColorMatrix type="matrix" values="0 0 0 0 0.0666667 0 0 0 0 0.0196078 0 0 0 0 0.160784 0 0 0 0.16 0"/>
<feBlend mode="normal" in2="shape" result="effect1_innerShadow_6910_5698"/>
</filter>
<filter id="filter1_i_6910_5698" x="125" y="107" width="362" height="54" filterUnits="userSpaceOnUse" color-interpolation-filters="sRGB">
<feFlood flood-opacity="0" result="BackgroundImageFix"/>
<feBlend mode="normal" in="SourceGraphic" in2="BackgroundImageFix" result="shape"/>
<feColorMatrix in="SourceAlpha" type="matrix" values="0 0 0 0 0 0 0 0 0 0 0 0 0 0 0 0 0 0 127 0" result="hardAlpha"/>
<feOffset dx="-8" dy="-4"/>
<feComposite in2="hardAlpha" operator="arithmetic" k2="-1" k3="1"/>
<feColorMatrix type="matrix" values="0 0 0 0 0.0666667 0 0 0 0 0.0196078 0 0 0 0 0.160784 0 0 0 0.16 0"/>
<feBlend mode="normal" in2="shape" result="effect1_innerShadow_6910_5698"/>
</filter>
<filter id="filter2_i_6910_5698" x="485" y="107" width="32" height="54" filterUnits="userSpaceOnUse" color-interpolation-filters="sRGB">
<feFlood flood-opacity="0" result="BackgroundImageFix"/>
<feBlend mode="normal" in="SourceGraphic" in2="BackgroundImageFix" result="shape"/>
<feColorMatrix in="SourceAlpha" type="matrix" values="0 0 0 0 0 0 0 0 0 0 0 0 0 0 0 0 0 0 127 0" result="hardAlpha"/>
<feOffset dx="-8" dy="-4"/>
<feComposite in2="hardAlpha" operator="arithmetic" k2="-1" k3="1"/>
<feColorMatrix type="matrix" values="0 0 0 0 0.0666667 0 0 0 0 0.0196078 0 0 0 0 0.160784 0 0 0 0.16 0"/>
<feBlend mode="normal" in2="shape" result="effect1_innerShadow_6910_5698"/>
</filter>
<filter id="filter3_i_6910_5698" x="551" y="107" width="32" height="54" filterUnits="userSpaceOnUse" color-interpolation-filters="sRGB">
<feFlood flood-opacity="0" result="BackgroundImageFix"/>
<feBlend mode="normal" in="SourceGraphic" in2="BackgroundImageFix" result="shape"/>
<feColorMatrix in="SourceAlpha" type="matrix" values="0 0 0 0 0 0 0 0 0 0 0 0 0 0 0 0 0 0 127 0" result="hardAlpha"/>
<feOffset dx="-8" dy="-4"/>
<feComposite in2="hardAlpha" operator="arithmetic" k2="-1" k3="1"/>
<feColorMatrix type="matrix" values="0 0 0 0 0.0666667 0 0 0 0 0.0196078 0 0 0 0 0.160784 0 0 0 0.16 0"/>
<feBlend mode="normal" in2="shape" result="effect1_innerShadow_6910_5698"/>
</filter>
<filter id="filter4_i_6910_5698" x="515" y="107" width="38" height="54" filterUnits="userSpaceOnUse" color-interpolation-filters="sRGB">
<feFlood flood-opacity="0" result="BackgroundImageFix"/>
<feBlend mode="normal" in="SourceGraphic" in2="BackgroundImageFix" result="shape"/>
<feColorMatrix in="SourceAlpha" type="matrix" values="0 0 0 0 0 0 0 0 0 0 0 0 0 0 0 0 0 0 127 0" result="hardAlpha"/>
<feOffset dx="-8" dy="-4"/>
<feComposite in2="hardAlpha" operator="arithmetic" k2="-1" k3="1"/>
<feColorMatrix type="matrix" values="0 0 0 0 0.0666667 0 0 0 0 0.0196078 0 0 0 0 0.160784 0 0 0 0.16 0"/>
<feBlend mode="normal" in2="shape" result="effect1_innerShadow_6910_5698"/>
</filter>
<filter id="filter5_i_6910_5698" x="581" y="107" width="98" height="54" filterUnits="userSpaceOnUse" color-interpolation-filters="sRGB">
<feFlood flood-opacity="0" result="BackgroundImageFix"/>
<feBlend mode="normal" in="SourceGraphic" in2="BackgroundImageFix" result="shape"/>
<feColorMatrix in="SourceAlpha" type="matrix" values="0 0 0 0 0 0 0 0 0 0 0 0 0 0 0 0 0 0 127 0" result="hardAlpha"/>
<feOffset dx="-8" dy="-4"/>
<feComposite in2="hardAlpha" operator="arithmetic" k2="-1" k3="1"/>
<feColorMatrix type="matrix" values="0 0 0 0 0.0666667 0 0 0 0 0.0196078 0 0 0 0 0.160784 0 0 0 0.16 0"/>
<feBlend mode="normal" in2="shape" result="effect1_innerShadow_6910_5698"/>
</filter>
<filter id="filter6_i_6910_5698" x="677" y="107" width="146" height="54" filterUnits="userSpaceOnUse" color-interpolation-filters="sRGB">
<feFlood flood-opacity="0" result="BackgroundImageFix"/>
<feBlend mode="normal" in="SourceGraphic" in2="BackgroundImageFix" result="shape"/>
<feColorMatrix in="SourceAlpha" type="matrix" values="0 0 0 0 0 0 0 0 0 0 0 0 0 0 0 0 0 0 127 0" result="hardAlpha"/>
<feOffset dx="-8" dy="-4"/>
<feComposite in2="hardAlpha" operator="arithmetic" k2="-1" k3="1"/>
<feColorMatrix type="matrix" values="0 0 0 0 0.0666667 0 0 0 0 0.0196078 0 0 0 0 0.160784 0 0 0 0.16 0"/>
<feBlend mode="normal" in2="shape" result="effect1_innerShadow_6910_5698"/>
</filter>
<filter id="filter7_i_6910_5698" x="821" y="107" width="32" height="54" filterUnits="userSpaceOnUse" color-interpolation-filters="sRGB">
<feFlood flood-opacity="0" result="BackgroundImageFix"/>
<feBlend mode="normal" in="SourceGraphic" in2="BackgroundImageFix" result="shape"/>
<feColorMatrix in="SourceAlpha" type="matrix" values="0 0 0 0 0 0 0 0 0 0 0 0 0 0 0 0 0 0 127 0" result="hardAlpha"/>
<feOffset dx="-8" dy="-4"/>
<feComposite in2="hardAlpha" operator="arithmetic" k2="-1" k3="1"/>
<feColorMatrix type="matrix" values="0 0 0 0 0.0666667 0 0 0 0 0.0196078 0 0 0 0 0.160784 0 0 0 0.16 0"/>
<feBlend mode="normal" in2="shape" result="effect1_innerShadow_6910_5698"/>
</filter>
<filter id="filter8_i_6910_5698" x="851" y="107" width="66" height="54" filterUnits="userSpaceOnUse" color-interpolation-filters="sRGB">
<feFlood flood-opacity="0" result="BackgroundImageFix"/>
<feBlend mode="normal" in="SourceGraphic" in2="BackgroundImageFix" result="shape"/>
<feColorMatrix in="SourceAlpha" type="matrix" values="0 0 0 0 0 0 0 0 0 0 0 0 0 0 0 0 0 0 127 0" result="hardAlpha"/>
<feOffset dx="-8" dy="-4"/>
<feComposite in2="hardAlpha" operator="arithmetic" k2="-1" k3="1"/>
<feColorMatrix type="matrix" values="0 0 0 0 0.0666667 0 0 0 0 0.0196078 0 0 0 0 0.160784 0 0 0 0.16 0"/>
<feBlend mode="normal" in2="shape" result="effect1_innerShadow_6910_5698"/>
</filter>
<filter id="filter9_i_6910_5698" x="95" y="243" width="32" height="54" filterUnits="userSpaceOnUse" color-interpolation-filters="sRGB">
<feFlood flood-opacity="0" result="BackgroundImageFix"/>
<feBlend mode="normal" in="SourceGraphic" in2="BackgroundImageFix" result="shape"/>
<feColorMatrix in="SourceAlpha" type="matrix" values="0 0 0 0 0 0 0 0 0 0 0 0 0 0 0 0 0 0 127 0" result="hardAlpha"/>
<feOffset dx="-8" dy="-4"/>
<feComposite in2="hardAlpha" operator="arithmetic" k2="-1" k3="1"/>
<feColorMatrix type="matrix" values="0 0 0 0 0.0666667 0 0 0 0 0.0196078 0 0 0 0 0.160784 0 0 0 0.16 0"/>
<feBlend mode="normal" in2="shape" result="effect1_innerShadow_6910_5698"/>
</filter>
<filter id="filter10_i_6910_5698" x="125" y="243" width="362" height="54" filterUnits="userSpaceOnUse" color-interpolation-filters="sRGB">
<feFlood flood-opacity="0" result="BackgroundImageFix"/>
<feBlend mode="normal" in="SourceGraphic" in2="BackgroundImageFix" result="shape"/>
<feColorMatrix in="SourceAlpha" type="matrix" values="0 0 0 0 0 0 0 0 0 0 0 0 0 0 0 0 0 0 127 0" result="hardAlpha"/>
<feOffset dx="-8" dy="-4"/>
<feComposite in2="hardAlpha" operator="arithmetic" k2="-1" k3="1"/>
<feColorMatrix type="matrix" values="0 0 0 0 0.0666667 0 0 0 0 0.0196078 0 0 0 0 0.160784 0 0 0 0.16 0"/>
<feBlend mode="normal" in2="shape" result="effect1_innerShadow_6910_5698"/>
</filter>
<filter id="filter11_i_6910_5698" x="485" y="243" width="32" height="54" filterUnits="userSpaceOnUse" color-interpolation-filters="sRGB">
<feFlood flood-opacity="0" result="BackgroundImageFix"/>
<feBlend mode="normal" in="SourceGraphic" in2="BackgroundImageFix" result="shape"/>
<feColorMatrix in="SourceAlpha" type="matrix" values="0 0 0 0 0 0 0 0 0 0 0 0 0 0 0 0 0 0 127 0" result="hardAlpha"/>
<feOffset dx="-8" dy="-4"/>
<feComposite in2="hardAlpha" operator="arithmetic" k2="-1" k3="1"/>
<feColorMatrix type="matrix" values="0 0 0 0 0.0666667 0 0 0 0 0.0196078 0 0 0 0 0.160784 0 0 0 0.16 0"/>
<feBlend mode="normal" in2="shape" result="effect1_innerShadow_6910_5698"/>
</filter>
<filter id="filter12_i_6910_5698" x="515" y="243" width="98" height="54" filterUnits="userSpaceOnUse" color-interpolation-filters="sRGB">
<feFlood flood-opacity="0" result="BackgroundImageFix"/>
<feBlend mode="normal" in="SourceGraphic" in2="BackgroundImageFix" result="shape"/>
<feColorMatrix in="SourceAlpha" type="matrix" values="0 0 0 0 0 0 0 0 0 0 0 0 0 0 0 0 0 0 127 0" result="hardAlpha"/>
<feOffset dx="-8" dy="-4"/>
<feComposite in2="hardAlpha" operator="arithmetic" k2="-1" k3="1"/>
<feColorMatrix type="matrix" values="0 0 0 0 0.0666667 0 0 0 0 0.0196078 0 0 0 0 0.160784 0 0 0 0.16 0"/>
<feBlend mode="normal" in2="shape" result="effect1_innerShadow_6910_5698"/>
</filter>
<filter id="filter13_i_6910_5698" x="611" y="243" width="146" height="54" filterUnits="userSpaceOnUse" color-interpolation-filters="sRGB">
<feFlood flood-opacity="0" result="BackgroundImageFix"/>
<feBlend mode="normal" in="SourceGraphic" in2="BackgroundImageFix" result="shape"/>
<feColorMatrix in="SourceAlpha" type="matrix" values="0 0 0 0 0 0 0 0 0 0 0 0 0 0 0 0 0 0 127 0" result="hardAlpha"/>
<feOffset dx="-8" dy="-4"/>
<feComposite in2="hardAlpha" operator="arithmetic" k2="-1" k3="1"/>
<feColorMatrix type="matrix" values="0 0 0 0 0.0666667 0 0 0 0 0.0196078 0 0 0 0 0.160784 0 0 0 0.16 0"/>
<feBlend mode="normal" in2="shape" result="effect1_innerShadow_6910_5698"/>
</filter>
<filter id="filter14_i_6910_5698" x="755" y="243" width="32" height="54" filterUnits="userSpaceOnUse" color-interpolation-filters="sRGB">
<feFlood flood-opacity="0" result="BackgroundImageFix"/>
<feBlend mode="normal" in="SourceGraphic" in2="BackgroundImageFix" result="shape"/>
<feColorMatrix in="SourceAlpha" type="matrix" values="0 0 0 0 0 0 0 0 0 0 0 0 0 0 0 0 0 0 127 0" result="hardAlpha"/>
<feOffset dx="-8" dy="-4"/>
<feComposite in2="hardAlpha" operator="arithmetic" k2="-1" k3="1"/>
<feColorMatrix type="matrix" values="0 0 0 0 0.0666667 0 0 0 0 0.0196078 0 0 0 0 0.160784 0 0 0 0.16 0"/>
<feBlend mode="normal" in2="shape" result="effect1_innerShadow_6910_5698"/>
</filter>
<filter id="filter15_i_6910_5698" x="785" y="243" width="66" height="54" filterUnits="userSpaceOnUse" color-interpolation-filters="sRGB">
<feFlood flood-opacity="0" result="BackgroundImageFix"/>
<feBlend mode="normal" in="SourceGraphic" in2="BackgroundImageFix" result="shape"/>
<feColorMatrix in="SourceAlpha" type="matrix" values="0 0 0 0 0 0 0 0 0 0 0 0 0 0 0 0 0 0 127 0" result="hardAlpha"/>
<feOffset dx="-8" dy="-4"/>
<feComposite in2="hardAlpha" operator="arithmetic" k2="-1" k3="1"/>
<feColorMatrix type="matrix" values="0 0 0 0 0.0666667 0 0 0 0 0.0196078 0 0 0 0 0.160784 0 0 0 0.16 0"/>
<feBlend mode="normal" in2="shape" result="effect1_innerShadow_6910_5698"/>
</filter>
<filter id="filter16_i_6910_5698" x="95" y="343" width="32" height="54" filterUnits="userSpaceOnUse" color-interpolation-filters="sRGB">
<feFlood flood-opacity="0" result="BackgroundImageFix"/>
<feBlend mode="normal" in="SourceGraphic" in2="BackgroundImageFix" result="shape"/>
<feColorMatrix in="SourceAlpha" type="matrix" values="0 0 0 0 0 0 0 0 0 0 0 0 0 0 0 0 0 0 127 0" result="hardAlpha"/>
<feOffset dx="-8" dy="-4"/>
<feComposite in2="hardAlpha" operator="arithmetic" k2="-1" k3="1"/>
<feColorMatrix type="matrix" values="0 0 0 0 0.0666667 0 0 0 0 0.0196078 0 0 0 0 0.160784 0 0 0 0.16 0"/>
<feBlend mode="normal" in2="shape" result="effect1_innerShadow_6910_5698"/>
</filter>
<filter id="filter17_i_6910_5698" x="125" y="343" width="362" height="54" filterUnits="userSpaceOnUse" color-interpolation-filters="sRGB">
<feFlood flood-opacity="0" result="BackgroundImageFix"/>
<feBlend mode="normal" in="SourceGraphic" in2="BackgroundImageFix" result="shape"/>
<feColorMatrix in="SourceAlpha" type="matrix" values="0 0 0 0 0 0 0 0 0 0 0 0 0 0 0 0 0 0 127 0" result="hardAlpha"/>
<feOffset dx="-8" dy="-4"/>
<feComposite in2="hardAlpha" operator="arithmetic" k2="-1" k3="1"/>
<feColorMatrix type="matrix" values="0 0 0 0 0.0666667 0 0 0 0 0.0196078 0 0 0 0 0.160784 0 0 0 0.16 0"/>
<feBlend mode="normal" in2="shape" result="effect1_innerShadow_6910_5698"/>
</filter>
<filter id="filter18_i_6910_5698" x="485" y="343" width="32" height="54" filterUnits="userSpaceOnUse" color-interpolation-filters="sRGB">
<feFlood flood-opacity="0" result="BackgroundImageFix"/>
<feBlend mode="normal" in="SourceGraphic" in2="BackgroundImageFix" result="shape"/>
<feColorMatrix in="SourceAlpha" type="matrix" values="0 0 0 0 0 0 0 0 0 0 0 0 0 0 0 0 0 0 127 0" result="hardAlpha"/>
<feOffset dx="-8" dy="-4"/>
<feComposite in2="hardAlpha" operator="arithmetic" k2="-1" k3="1"/>
<feColorMatrix type="matrix" values="0 0 0 0 0.0666667 0 0 0 0 0.0196078 0 0 0 0 0.160784 0 0 0 0.16 0"/>
<feBlend mode="normal" in2="shape" result="effect1_innerShadow_6910_5698"/>
</filter>
<filter id="filter19_i_6910_5698" x="551" y="343" width="32" height="54" filterUnits="userSpaceOnUse" color-interpolation-filters="sRGB">
<feFlood flood-opacity="0" result="BackgroundImageFix"/>
<feBlend mode="normal" in="SourceGraphic" in2="BackgroundImageFix" result="shape"/>
<feColorMatrix in="SourceAlpha" type="matrix" values="0 0 0 0 0 0 0 0 0 0 0 0 0 0 0 0 0 0 127 0" result="hardAlpha"/>
<feOffset dx="-8" dy="-4"/>
<feComposite in2="hardAlpha" operator="arithmetic" k2="-1" k3="1"/>
<feColorMatrix type="matrix" values="0 0 0 0 0.0666667 0 0 0 0 0.0196078 0 0 0 0 0.160784 0 0 0 0.16 0"/>
<feBlend mode="normal" in2="shape" result="effect1_innerShadow_6910_5698"/>
</filter>
<filter id="filter20_i_6910_5698" x="515" y="343" width="38" height="54" filterUnits="userSpaceOnUse" color-interpolation-filters="sRGB">
<feFlood flood-opacity="0" result="BackgroundImageFix"/>
<feBlend mode="normal" in="SourceGraphic" in2="BackgroundImageFix" result="shape"/>
<feColorMatrix in="SourceAlpha" type="matrix" values="0 0 0 0 0 0 0 0 0 0 0 0 0 0 0 0 0 0 127 0" result="hardAlpha"/>
<feOffset dx="-8" dy="-4"/>
<feComposite in2="hardAlpha" operator="arithmetic" k2="-1" k3="1"/>
<feColorMatrix type="matrix" values="0 0 0 0 0.0666667 0 0 0 0 0.0196078 0 0 0 0 0.160784 0 0 0 0.16 0"/>
<feBlend mode="normal" in2="shape" result="effect1_innerShadow_6910_5698"/>
</filter>
<filter id="filter21_i_6910_5698" x="581" y="343" width="98" height="54" filterUnits="userSpaceOnUse" color-interpolation-filters="sRGB">
<feFlood flood-opacity="0" result="BackgroundImageFix"/>
<feBlend mode="normal" in="SourceGraphic" in2="BackgroundImageFix" result="shape"/>
<feColorMatrix in="SourceAlpha" type="matrix" values="0 0 0 0 0 0 0 0 0 0 0 0 0 0 0 0 0 0 127 0" result="hardAlpha"/>
<feOffset dx="-8" dy="-4"/>
<feComposite in2="hardAlpha" operator="arithmetic" k2="-1" k3="1"/>
<feColorMatrix type="matrix" values="0 0 0 0 0.0666667 0 0 0 0 0.0196078 0 0 0 0 0.160784 0 0 0 0.16 0"/>
<feBlend mode="normal" in2="shape" result="effect1_innerShadow_6910_5698"/>
</filter>
<filter id="filter22_i_6910_5698" x="677" y="343" width="146" height="54" filterUnits="userSpaceOnUse" color-interpolation-filters="sRGB">
<feFlood flood-opacity="0" result="BackgroundImageFix"/>
<feBlend mode="normal" in="SourceGraphic" in2="BackgroundImageFix" result="shape"/>
<feColorMatrix in="SourceAlpha" type="matrix" values="0 0 0 0 0 0 0 0 0 0 0 0 0 0 0 0 0 0 127 0" result="hardAlpha"/>
<feOffset dx="-8" dy="-4"/>
<feComposite in2="hardAlpha" operator="arithmetic" k2="-1" k3="1"/>
<feColorMatrix type="matrix" values="0 0 0 0 0.0666667 0 0 0 0 0.0196078 0 0 0 0 0.160784 0 0 0 0.16 0"/>
<feBlend mode="normal" in2="shape" result="effect1_innerShadow_6910_5698"/>
</filter>
<filter id="filter23_i_6910_5698" x="821" y="343" width="32" height="54" filterUnits="userSpaceOnUse" color-interpolation-filters="sRGB">
<feFlood flood-opacity="0" result="BackgroundImageFix"/>
<feBlend mode="normal" in="SourceGraphic" in2="BackgroundImageFix" result="shape"/>
<feColorMatrix in="SourceAlpha" type="matrix" values="0 0 0 0 0 0 0 0 0 0 0 0 0 0 0 0 0 0 127 0" result="hardAlpha"/>
<feOffset dx="-8" dy="-4"/>
<feComposite in2="hardAlpha" operator="arithmetic" k2="-1" k3="1"/>
<feColorMatrix type="matrix" values="0 0 0 0 0.0666667 0 0 0 0 0.0196078 0 0 0 0 0.160784 0 0 0 0.16 0"/>
<feBlend mode="normal" in2="shape" result="effect1_innerShadow_6910_5698"/>
</filter>
<filter id="filter24_i_6910_5698" x="851" y="343" width="66" height="54" filterUnits="userSpaceOnUse" color-interpolation-filters="sRGB">
<feFlood flood-opacity="0" result="BackgroundImageFix"/>
<feBlend mode="normal" in="SourceGraphic" in2="BackgroundImageFix" result="shape"/>
<feColorMatrix in="SourceAlpha" type="matrix" values="0 0 0 0 0 0 0 0 0 0 0 0 0 0 0 0 0 0 127 0" result="hardAlpha"/>
<feOffset dx="-8" dy="-4"/>
<feComposite in2="hardAlpha" operator="arithmetic" k2="-1" k3="1"/>
<feColorMatrix type="matrix" values="0 0 0 0 0.0666667 0 0 0 0 0.0196078 0 0 0 0 0.160784 0 0 0 0.16 0"/>
<feBlend mode="normal" in2="shape" result="effect1_innerShadow_6910_5698"/>
</filter>
<filter id="filter25_i_6910_5698" x="95" y="443" width="32" height="54" filterUnits="userSpaceOnUse" color-interpolation-filters="sRGB">
<feFlood flood-opacity="0" result="BackgroundImageFix"/>
<feBlend mode="normal" in="SourceGraphic" in2="BackgroundImageFix" result="shape"/>
<feColorMatrix in="SourceAlpha" type="matrix" values="0 0 0 0 0 0 0 0 0 0 0 0 0 0 0 0 0 0 127 0" result="hardAlpha"/>
<feOffset dx="-8" dy="-4"/>
<feComposite in2="hardAlpha" operator="arithmetic" k2="-1" k3="1"/>
<feColorMatrix type="matrix" values="0 0 0 0 0.0666667 0 0 0 0 0.0196078 0 0 0 0 0.160784 0 0 0 0.16 0"/>
<feBlend mode="normal" in2="shape" result="effect1_innerShadow_6910_5698"/>
</filter>
<filter id="filter26_i_6910_5698" x="125" y="443" width="362" height="54" filterUnits="userSpaceOnUse" color-interpolation-filters="sRGB">
<feFlood flood-opacity="0" result="BackgroundImageFix"/>
<feBlend mode="normal" in="SourceGraphic" in2="BackgroundImageFix" result="shape"/>
<feColorMatrix in="SourceAlpha" type="matrix" values="0 0 0 0 0 0 0 0 0 0 0 0 0 0 0 0 0 0 127 0" result="hardAlpha"/>
<feOffset dx="-8" dy="-4"/>
<feComposite in2="hardAlpha" operator="arithmetic" k2="-1" k3="1"/>
<feColorMatrix type="matrix" values="0 0 0 0 0.0666667 0 0 0 0 0.0196078 0 0 0 0 0.160784 0 0 0 0.16 0"/>
<feBlend mode="normal" in2="shape" result="effect1_innerShadow_6910_5698"/>
</filter>
<filter id="filter27_i_6910_5698" x="485" y="443" width="32" height="54" filterUnits="userSpaceOnUse" color-interpolation-filters="sRGB">
<feFlood flood-opacity="0" result="BackgroundImageFix"/>
<feBlend mode="normal" in="SourceGraphic" in2="BackgroundImageFix" result="shape"/>
<feColorMatrix in="SourceAlpha" type="matrix" values="0 0 0 0 0 0 0 0 0 0 0 0 0 0 0 0 0 0 127 0" result="hardAlpha"/>
<feOffset dx="-8" dy="-4"/>
<feComposite in2="hardAlpha" operator="arithmetic" k2="-1" k3="1"/>
<feColorMatrix type="matrix" values="0 0 0 0 0.0666667 0 0 0 0 0.0196078 0 0 0 0 0.160784 0 0 0 0.16 0"/>
<feBlend mode="normal" in2="shape" result="effect1_innerShadow_6910_5698"/>
</filter>
<filter id="filter28_i_6910_5698" x="515" y="443" width="98" height="54" filterUnits="userSpaceOnUse" color-interpolation-filters="sRGB">
<feFlood flood-opacity="0" result="BackgroundImageFix"/>
<feBlend mode="normal" in="SourceGraphic" in2="BackgroundImageFix" result="shape"/>
<feColorMatrix in="SourceAlpha" type="matrix" values="0 0 0 0 0 0 0 0 0 0 0 0 0 0 0 0 0 0 127 0" result="hardAlpha"/>
<feOffset dx="-8" dy="-4"/>
<feComposite in2="hardAlpha" operator="arithmetic" k2="-1" k3="1"/>
<feColorMatrix type="matrix" values="0 0 0 0 0.0666667 0 0 0 0 0.0196078 0 0 0 0 0.160784 0 0 0 0.16 0"/>
<feBlend mode="normal" in2="shape" result="effect1_innerShadow_6910_5698"/>
</filter>
<filter id="filter29_i_6910_5698" x="611" y="443" width="146" height="54" filterUnits="userSpaceOnUse" color-interpolation-filters="sRGB">
<feFlood flood-opacity="0" result="BackgroundImageFix"/>
<feBlend mode="normal" in="SourceGraphic" in2="BackgroundImageFix" result="shape"/>
<feColorMatrix in="SourceAlpha" type="matrix" values="0 0 0 0 0 0 0 0 0 0 0 0 0 0 0 0 0 0 127 0" result="hardAlpha"/>
<feOffset dx="-8" dy="-4"/>
<feComposite in2="hardAlpha" operator="arithmetic" k2="-1" k3="1"/>
<feColorMatrix type="matrix" values="0 0 0 0 0.0666667 0 0 0 0 0.0196078 0 0 0 0 0.160784 0 0 0 0.16 0"/>
<feBlend mode="normal" in2="shape" result="effect1_innerShadow_6910_5698"/>
</filter>
<filter id="filter30_i_6910_5698" x="755" y="443" width="32" height="54" filterUnits="userSpaceOnUse" color-interpolation-filters="sRGB">
<feFlood flood-opacity="0" result="BackgroundImageFix"/>
<feBlend mode="normal" in="SourceGraphic" in2="BackgroundImageFix" result="shape"/>
<feColorMatrix in="SourceAlpha" type="matrix" values="0 0 0 0 0 0 0 0 0 0 0 0 0 0 0 0 0 0 127 0" result="hardAlpha"/>
<feOffset dx="-8" dy="-4"/>
<feComposite in2="hardAlpha" operator="arithmetic" k2="-1" k3="1"/>
<feColorMatrix type="matrix" values="0 0 0 0 0.0666667 0 0 0 0 0.0196078 0 0 0 0 0.160784 0 0 0 0.16 0"/>
<feBlend mode="normal" in2="shape" result="effect1_innerShadow_6910_5698"/>
</filter>
<filter id="filter31_i_6910_5698" x="785" y="443" width="66" height="54" filterUnits="userSpaceOnUse" color-interpolation-filters="sRGB">
<feFlood flood-opacity="0" result="BackgroundImageFix"/>
<feBlend mode="normal" in="SourceGraphic" in2="BackgroundImageFix" result="shape"/>
<feColorMatrix in="SourceAlpha" type="matrix" values="0 0 0 0 0 0 0 0 0 0 0 0 0 0 0 0 0 0 127 0" result="hardAlpha"/>
<feOffset dx="-8" dy="-4"/>
<feComposite in2="hardAlpha" operator="arithmetic" k2="-1" k3="1"/>
<feColorMatrix type="matrix" values="0 0 0 0 0.0666667 0 0 0 0 0.0196078 0 0 0 0 0.160784 0 0 0 0.16 0"/>
<feBlend mode="normal" in2="shape" result="effect1_innerShadow_6910_5698"/>
</filter>
</defs>
</svg>
