<svg width="960" height="552" viewBox="0 0 960 552" fill="none" xmlns="http://www.w3.org/2000/svg">
<rect width="960" height="552" fill="#1D1D29"/>
<path d="M32.9984 142V127.6H34.7784V142H32.9984ZM43.6089 142.3C39.6389 142.3 36.9789 139.44 36.9789 134.8C36.9789 130.21 39.5789 127.31 43.6089 127.31C46.8289 127.31 48.7989 128.92 49.5489 131.51L47.7489 131.88C47.1389 130.14 45.7489 129.02 43.6989 129.01C40.4789 128.99 38.8889 131.35 38.8689 134.8C38.8489 138.25 40.4789 140.58 43.6989 140.6C46.4789 140.62 47.9189 138.93 48.1389 136.06H45.0789V134.59H50.0189C50.0489 134.87 50.0589 135.32 50.0589 135.44C50.0589 139.39 47.8189 142.3 43.6089 142.3ZM52.0563 142V127.6H53.8363V133.95H61.4163V127.6H63.1963V142H61.4163V135.64H53.8363V142H52.0563Z" fill="white"/>
<path d="M28.0277 292V277.6H29.8077V292H28.0277ZM38.6382 292.3C34.6682 292.3 32.0082 289.44 32.0082 284.8C32.0082 280.21 34.6082 277.31 38.6382 277.31C41.8582 277.31 43.8282 278.92 44.5782 281.51L42.7782 281.88C42.1682 280.14 40.7782 279.02 38.7282 279.01C35.5082 278.99 33.9182 281.35 33.8982 284.8C33.8782 288.25 35.5082 290.58 38.7282 290.6C41.5082 290.62 42.9482 288.93 43.1682 286.06H40.1082V284.59H45.0482C45.0782 284.87 45.0882 285.32 45.0882 285.44C45.0882 289.39 42.8482 292.3 38.6382 292.3ZM47.0855 292V277.6H48.8655V284.36L55.1655 277.6H57.4055L50.8655 284.59L57.9155 292H55.6155L48.8655 284.96V292H47.0855ZM66.5654 277.6H68.3754L64.5354 292H62.7254L66.5654 277.6ZM34.7953 312V297.6H36.5753V312H34.7953ZM45.4058 312.3C41.4358 312.3 38.7758 309.44 38.7758 304.8C38.7758 300.21 41.3758 297.31 45.4058 297.31C48.6258 297.31 50.5958 298.92 51.3458 301.51L49.5458 301.88C48.9358 300.14 47.5458 299.02 45.4958 299.01C42.2758 298.99 40.6858 301.35 40.6658 304.8C40.6458 308.25 42.2758 310.58 45.4958 310.6C48.2758 310.62 49.7158 308.93 49.9358 306.06H46.8758V304.59H51.8158C51.8458 304.87 51.8558 305.32 51.8558 305.44C51.8558 309.39 49.6158 312.3 45.4058 312.3ZM54.0531 312V297.6H55.8331V310.31H62.5131V312H54.0531Z" fill="white"/>
<path d="M678 112V24" stroke="white" stroke-opacity="0.3" stroke-width="2" stroke-linecap="square" stroke-dasharray="6 6"/>
<path d="M139.858 37V26.92H145.829V28.383H141.321V31.225H144.989V32.695H141.321V37H139.858ZM147.09 37V26.92H151.164C151.262 26.92 151.384 26.9247 151.528 26.934C151.673 26.9387 151.811 26.9527 151.941 26.976C152.501 27.0647 152.968 27.256 153.341 27.55C153.719 27.844 154.002 28.215 154.188 28.663C154.375 29.111 154.468 29.6057 154.468 30.147C154.468 30.9497 154.263 31.6427 153.852 32.226C153.442 32.8047 152.826 33.1663 152.004 33.311L151.409 33.381H148.553V37H147.09ZM152.984 37L150.996 32.898L152.473 32.52L154.657 37H152.984ZM148.553 31.995H151.108C151.202 31.995 151.304 31.9903 151.416 31.981C151.533 31.9717 151.643 31.9553 151.745 31.932C152.044 31.862 152.284 31.7337 152.466 31.547C152.648 31.3557 152.779 31.1363 152.858 30.889C152.938 30.6417 152.977 30.3943 152.977 30.147C152.977 29.8997 152.938 29.6547 152.858 29.412C152.779 29.1647 152.648 28.9477 152.466 28.761C152.284 28.5697 152.044 28.439 151.745 28.369C151.643 28.341 151.533 28.3223 151.416 28.313C151.304 28.3037 151.202 28.299 151.108 28.299H148.553V31.995ZM157.953 37V28.53L156.056 29.685V28.054L157.953 26.92H159.444V37H157.953Z" fill="white" fill-opacity="0.3"/>
<path d="M186 112V24" stroke="white" stroke-opacity="0.3" stroke-width="2" stroke-linecap="square" stroke-dasharray="6 6"/>
<path d="M209.735 37.21C208.727 37.21 207.868 36.9907 207.159 36.552C206.45 36.1087 205.906 35.4927 205.528 34.704C205.155 33.9153 204.968 33.0007 204.968 31.96C204.968 30.9193 205.155 30.0047 205.528 29.216C205.906 28.4273 206.45 27.8137 207.159 27.375C207.868 26.9317 208.727 26.71 209.735 26.71C210.897 26.71 211.858 27.004 212.619 27.592C213.384 28.18 213.916 28.971 214.215 29.965L212.731 30.364C212.535 29.6593 212.185 29.1063 211.681 28.705C211.182 28.3037 210.533 28.103 209.735 28.103C209.021 28.103 208.426 28.264 207.95 28.586C207.474 28.908 207.115 29.3583 206.872 29.937C206.634 30.5157 206.515 31.19 206.515 31.96C206.51 32.73 206.627 33.4043 206.865 33.983C207.108 34.5617 207.467 35.012 207.943 35.334C208.424 35.656 209.021 35.817 209.735 35.817C210.533 35.817 211.182 35.6163 211.681 35.215C212.185 34.809 212.535 34.256 212.731 33.556L214.215 33.955C213.916 34.949 213.384 35.74 212.619 36.328C211.858 36.916 210.897 37.21 209.735 37.21ZM215.754 37V26.92H218.911C219.005 26.92 219.177 26.9223 219.429 26.927C219.686 26.9317 219.931 26.9503 220.164 26.983C220.953 27.081 221.616 27.3633 222.152 27.83C222.694 28.2967 223.102 28.8893 223.377 29.608C223.653 30.322 223.79 31.106 223.79 31.96C223.79 32.8187 223.653 33.6073 223.377 34.326C223.102 35.04 222.694 35.6303 222.152 36.097C221.616 36.559 220.953 36.839 220.164 36.937C219.931 36.9697 219.686 36.9883 219.429 36.993C219.177 36.9977 219.005 37 218.911 37H215.754ZM217.252 35.607H218.911C219.07 35.607 219.259 35.6023 219.478 35.593C219.698 35.5837 219.891 35.565 220.059 35.537C220.573 35.439 220.988 35.2173 221.305 34.872C221.627 34.522 221.863 34.0927 222.012 33.584C222.162 33.0753 222.236 32.534 222.236 31.96C222.236 31.3673 222.159 30.819 222.005 30.315C221.851 29.8063 221.613 29.3817 221.291 29.041C220.974 28.6957 220.563 28.4763 220.059 28.383C219.891 28.3503 219.695 28.3317 219.471 28.327C219.252 28.3177 219.065 28.313 218.911 28.313H217.252V35.607ZM225.42 37V26.92H229.494C229.592 26.92 229.714 26.9247 229.858 26.934C230.003 26.9387 230.141 26.9527 230.271 26.976C230.831 27.0647 231.298 27.256 231.671 27.55C232.049 27.844 232.332 28.215 232.518 28.663C232.705 29.111 232.798 29.6057 232.798 30.147C232.798 30.9497 232.593 31.6427 232.182 32.226C231.772 32.8047 231.156 33.1663 230.334 33.311L229.739 33.381H226.883V37H225.42ZM231.314 37L229.326 32.898L230.803 32.52L232.987 37H231.314ZM226.883 31.995H229.438C229.532 31.995 229.634 31.9903 229.746 31.981C229.863 31.9717 229.973 31.9553 230.075 31.932C230.374 31.862 230.614 31.7337 230.796 31.547C230.978 31.3557 231.109 31.1363 231.188 30.889C231.268 30.6417 231.307 30.3943 231.307 30.147C231.307 29.8997 231.268 29.6547 231.188 29.412C231.109 29.1647 230.978 28.9477 230.796 28.761C230.614 28.5697 230.374 28.439 230.075 28.369C229.973 28.341 229.863 28.3223 229.746 28.313C229.634 28.3037 229.532 28.299 229.438 28.299H226.883V31.995ZM236.283 37V28.53L234.386 29.685V28.054L236.283 26.92H237.774V37H236.283Z" fill="white" fill-opacity="0.3"/>
<path d="M258 112V24" stroke="white" stroke-opacity="0.3" stroke-width="2" stroke-linecap="square" stroke-dasharray="6 6"/>
<path d="M282.703 37V26.92H288.674V28.383H284.166V31.225H287.834V32.695H284.166V37H282.703ZM289.935 37V26.92H294.009C294.107 26.92 294.228 26.9247 294.373 26.934C294.518 26.9387 294.655 26.9527 294.786 26.976C295.346 27.0647 295.813 27.256 296.186 27.55C296.564 27.844 296.846 28.215 297.033 28.663C297.22 29.111 297.313 29.6057 297.313 30.147C297.313 30.9497 297.108 31.6427 296.697 32.226C296.286 32.8047 295.67 33.1663 294.849 33.311L294.254 33.381H291.398V37H289.935ZM295.829 37L293.841 32.898L295.318 32.52L297.502 37H295.829ZM291.398 31.995H293.953C294.046 31.995 294.149 31.9903 294.261 31.981C294.378 31.9717 294.487 31.9553 294.59 31.932C294.889 31.862 295.129 31.7337 295.311 31.547C295.493 31.3557 295.624 31.1363 295.703 30.889C295.782 30.6417 295.822 30.3943 295.822 30.147C295.822 29.8997 295.782 29.6547 295.703 29.412C295.624 29.1647 295.493 28.9477 295.311 28.761C295.129 28.5697 294.889 28.439 294.59 28.369C294.487 28.341 294.378 28.3223 294.261 28.313C294.149 28.3037 294.046 28.299 293.953 28.299H291.398V31.995ZM298.761 36.993L298.768 35.691L303.157 31.757C303.511 31.4443 303.752 31.1457 303.878 30.861C304.008 30.5763 304.074 30.2917 304.074 30.007C304.074 29.6477 303.994 29.3257 303.836 29.041C303.677 28.7517 303.458 28.523 303.178 28.355C302.898 28.187 302.576 28.103 302.212 28.103C301.838 28.103 301.505 28.1917 301.211 28.369C300.921 28.5417 300.695 28.7727 300.532 29.062C300.368 29.3513 300.289 29.664 300.294 30H298.796C298.796 29.3467 298.943 28.775 299.237 28.285C299.535 27.7903 299.944 27.4053 300.462 27.13C300.98 26.85 301.572 26.71 302.24 26.71C302.874 26.71 303.444 26.8547 303.948 27.144C304.452 27.4287 304.848 27.8207 305.138 28.32C305.432 28.8193 305.579 29.3887 305.579 30.028C305.579 30.49 305.518 30.882 305.397 31.204C305.275 31.526 305.093 31.8247 304.851 32.1C304.608 32.3753 304.305 32.674 303.941 32.996L300.553 36.02L300.392 35.6H305.579V36.993H298.761Z" fill="white" fill-opacity="0.3"/>
<path d="M330 112V24" stroke="white" stroke-opacity="0.3" stroke-width="2" stroke-linecap="square" stroke-dasharray="6 6"/>
<path d="M352.58 37.21C351.572 37.21 350.713 36.9907 350.004 36.552C349.294 36.1087 348.751 35.4927 348.373 34.704C347.999 33.9153 347.813 33.0007 347.813 31.96C347.813 30.9193 347.999 30.0047 348.373 29.216C348.751 28.4273 349.294 27.8137 350.004 27.375C350.713 26.9317 351.572 26.71 352.58 26.71C353.742 26.71 354.703 27.004 355.464 27.592C356.229 28.18 356.761 28.971 357.06 29.965L355.576 30.364C355.38 29.6593 355.03 29.1063 354.526 28.705C354.026 28.3037 353.378 28.103 352.58 28.103C351.866 28.103 351.271 28.264 350.795 28.586C350.319 28.908 349.959 29.3583 349.717 29.937C349.479 30.5157 349.36 31.19 349.36 31.96C349.355 32.73 349.472 33.4043 349.71 33.983C349.952 34.5617 350.312 35.012 350.788 35.334C351.268 35.656 351.866 35.817 352.58 35.817C353.378 35.817 354.026 35.6163 354.526 35.215C355.03 34.809 355.38 34.256 355.576 33.556L357.06 33.955C356.761 34.949 356.229 35.74 355.464 36.328C354.703 36.916 353.742 37.21 352.58 37.21ZM358.599 37V26.92H361.756C361.849 26.92 362.022 26.9223 362.274 26.927C362.531 26.9317 362.776 26.9503 363.009 26.983C363.798 27.081 364.46 27.3633 364.997 27.83C365.538 28.2967 365.947 28.8893 366.222 29.608C366.497 30.322 366.635 31.106 366.635 31.96C366.635 32.8187 366.497 33.6073 366.222 34.326C365.947 35.04 365.538 35.6303 364.997 36.097C364.46 36.559 363.798 36.839 363.009 36.937C362.776 36.9697 362.531 36.9883 362.274 36.993C362.022 36.9977 361.849 37 361.756 37H358.599ZM360.097 35.607H361.756C361.915 35.607 362.104 35.6023 362.323 35.593C362.542 35.5837 362.736 35.565 362.904 35.537C363.417 35.439 363.833 35.2173 364.15 34.872C364.472 34.522 364.708 34.0927 364.857 33.584C365.006 33.0753 365.081 32.534 365.081 31.96C365.081 31.3673 365.004 30.819 364.85 30.315C364.696 29.8063 364.458 29.3817 364.136 29.041C363.819 28.6957 363.408 28.4763 362.904 28.383C362.736 28.3503 362.54 28.3317 362.316 28.327C362.097 28.3177 361.91 28.313 361.756 28.313H360.097V35.607ZM368.265 37V26.92H372.339C372.437 26.92 372.558 26.9247 372.703 26.934C372.848 26.9387 372.985 26.9527 373.116 26.976C373.676 27.0647 374.143 27.256 374.516 27.55C374.894 27.844 375.176 28.215 375.363 28.663C375.55 29.111 375.643 29.6057 375.643 30.147C375.643 30.9497 375.438 31.6427 375.027 32.226C374.616 32.8047 374 33.1663 373.179 33.311L372.584 33.381H369.728V37H368.265ZM374.159 37L372.171 32.898L373.648 32.52L375.832 37H374.159ZM369.728 31.995H372.283C372.376 31.995 372.479 31.9903 372.591 31.981C372.708 31.9717 372.817 31.9553 372.92 31.932C373.219 31.862 373.459 31.7337 373.641 31.547C373.823 31.3557 373.954 31.1363 374.033 30.889C374.112 30.6417 374.152 30.3943 374.152 30.147C374.152 29.8997 374.112 29.6547 374.033 29.412C373.954 29.1647 373.823 28.9477 373.641 28.761C373.459 28.5697 373.219 28.439 372.92 28.369C372.817 28.341 372.708 28.3223 372.591 28.313C372.479 28.3037 372.376 28.299 372.283 28.299H369.728V31.995ZM377.091 36.993L377.098 35.691L381.487 31.757C381.841 31.4443 382.082 31.1457 382.208 30.861C382.338 30.5763 382.404 30.2917 382.404 30.007C382.404 29.6477 382.324 29.3257 382.166 29.041C382.007 28.7517 381.788 28.523 381.508 28.355C381.228 28.187 380.906 28.103 380.542 28.103C380.168 28.103 379.835 28.1917 379.541 28.369C379.251 28.5417 379.025 28.7727 378.862 29.062C378.698 29.3513 378.619 29.664 378.624 30H377.126C377.126 29.3467 377.273 28.775 377.567 28.285C377.865 27.7903 378.274 27.4053 378.792 27.13C379.31 26.85 379.902 26.71 380.57 26.71C381.204 26.71 381.774 26.8547 382.278 27.144C382.782 27.4287 383.178 27.8207 383.468 28.32C383.762 28.8193 383.909 29.3887 383.909 30.028C383.909 30.49 383.848 30.882 383.727 31.204C383.605 31.526 383.423 31.8247 383.181 32.1C382.938 32.3753 382.635 32.674 382.271 32.996L378.883 36.02L378.722 35.6H383.909V36.993H377.091Z" fill="white" fill-opacity="0.3"/>
<path d="M402 112V24" stroke="white" stroke-opacity="0.3" stroke-width="2" stroke-linecap="square" stroke-dasharray="6 6"/>
<path d="M426.805 37V26.92H432.776V28.383H428.268V31.225H431.936V32.695H428.268V37H426.805ZM434.038 37V26.92H438.112C438.21 26.92 438.331 26.9247 438.476 26.934C438.62 26.9387 438.758 26.9527 438.889 26.976C439.449 27.0647 439.915 27.256 440.289 27.55C440.667 27.844 440.949 28.215 441.136 28.663C441.322 29.111 441.416 29.6057 441.416 30.147C441.416 30.9497 441.21 31.6427 440.8 32.226C440.389 32.8047 439.773 33.1663 438.952 33.311L438.357 33.381H435.501V37H434.038ZM439.932 37L437.944 32.898L439.421 32.52L441.605 37H439.932ZM435.501 31.995H438.056C438.149 31.995 438.252 31.9903 438.364 31.981C438.48 31.9717 438.59 31.9553 438.693 31.932C438.991 31.862 439.232 31.7337 439.414 31.547C439.596 31.3557 439.726 31.1363 439.806 30.889C439.885 30.6417 439.925 30.3943 439.925 30.147C439.925 29.8997 439.885 29.6547 439.806 29.412C439.726 29.1647 439.596 28.9477 439.414 28.761C439.232 28.5697 438.991 28.439 438.693 28.369C438.59 28.341 438.48 28.3223 438.364 28.313C438.252 28.3037 438.149 28.299 438.056 28.299H435.501V31.995ZM445.964 37.189C445.465 37.189 444.996 37.0957 444.557 36.909C444.118 36.7177 443.738 36.447 443.416 36.097C443.099 35.747 442.868 35.334 442.723 34.858L444.137 34.466C444.272 34.9 444.508 35.2337 444.844 35.467C445.18 35.6957 445.553 35.8077 445.964 35.803C446.333 35.7983 446.657 35.712 446.937 35.544C447.217 35.376 447.436 35.1497 447.595 34.865C447.754 34.5757 447.833 34.2443 447.833 33.871C447.833 33.311 447.658 32.849 447.308 32.485C446.963 32.121 446.51 31.939 445.95 31.939C445.791 31.939 445.628 31.9623 445.46 32.009C445.297 32.0557 445.143 32.1163 444.998 32.191L444.312 31.036L447.868 27.893L448.022 28.313H443.122V26.92H449.184V28.313L446.23 31.155L446.216 30.679C446.851 30.679 447.401 30.8213 447.868 31.106C448.335 31.386 448.694 31.7687 448.946 32.254C449.203 32.7347 449.331 33.2737 449.331 33.871C449.331 34.515 449.179 35.0867 448.876 35.586C448.577 36.0853 448.174 36.4773 447.665 36.762C447.161 37.0467 446.594 37.189 445.964 37.189Z" fill="white" fill-opacity="0.3"/>
<path d="M474 112V24" stroke="white" stroke-opacity="0.3" stroke-width="2" stroke-linecap="square" stroke-dasharray="6 6"/>
<path d="M520.682 37.21C519.674 37.21 518.815 36.9907 518.106 36.552C517.397 36.1087 516.853 35.4927 516.475 34.704C516.102 33.9153 515.915 33.0007 515.915 31.96C515.915 30.9193 516.102 30.0047 516.475 29.216C516.853 28.4273 517.397 27.8137 518.106 27.375C518.815 26.9317 519.674 26.71 520.682 26.71C521.844 26.71 522.805 27.004 523.566 27.592C524.331 28.18 524.863 28.971 525.162 29.965L523.678 30.364C523.482 29.6593 523.132 29.1063 522.628 28.705C522.129 28.3037 521.48 28.103 520.682 28.103C519.968 28.103 519.373 28.264 518.897 28.586C518.421 28.908 518.062 29.3583 517.819 29.937C517.581 30.5157 517.462 31.19 517.462 31.96C517.457 32.73 517.574 33.4043 517.812 33.983C518.055 34.5617 518.414 35.012 518.89 35.334C519.371 35.656 519.968 35.817 520.682 35.817C521.48 35.817 522.129 35.6163 522.628 35.215C523.132 34.809 523.482 34.256 523.678 33.556L525.162 33.955C524.863 34.949 524.331 35.74 523.566 36.328C522.805 36.916 521.844 37.21 520.682 37.21ZM526.702 37V26.92H529.859C529.952 26.92 530.125 26.9223 530.377 26.927C530.633 26.9317 530.878 26.9503 531.112 26.983C531.9 27.081 532.563 27.3633 533.1 27.83C533.641 28.2967 534.049 28.8893 534.325 29.608C534.6 30.322 534.738 31.106 534.738 31.96C534.738 32.8187 534.6 33.6073 534.325 34.326C534.049 35.04 533.641 35.6303 533.1 36.097C532.563 36.559 531.9 36.839 531.112 36.937C530.878 36.9697 530.633 36.9883 530.377 36.993C530.125 36.9977 529.952 37 529.859 37H526.702ZM528.2 35.607H529.859C530.017 35.607 530.206 35.6023 530.426 35.593C530.645 35.5837 530.839 35.565 531.007 35.537C531.52 35.439 531.935 35.2173 532.253 34.872C532.575 34.522 532.81 34.0927 532.96 33.584C533.109 33.0753 533.184 32.534 533.184 31.96C533.184 31.3673 533.107 30.819 532.953 30.315C532.799 29.8063 532.561 29.3817 532.239 29.041C531.921 28.6957 531.511 28.4763 531.007 28.383C530.839 28.3503 530.643 28.3317 530.419 28.327C530.199 28.3177 530.013 28.313 529.859 28.313H528.2V35.607ZM536.368 37V26.92H540.442C540.54 26.92 540.661 26.9247 540.806 26.934C540.95 26.9387 541.088 26.9527 541.219 26.976C541.779 27.0647 542.245 27.256 542.619 27.55C542.997 27.844 543.279 28.215 543.466 28.663C543.652 29.111 543.746 29.6057 543.746 30.147C543.746 30.9497 543.54 31.6427 543.13 32.226C542.719 32.8047 542.103 33.1663 541.282 33.311L540.687 33.381H537.831V37H536.368ZM542.262 37L540.274 32.898L541.751 32.52L543.935 37H542.262ZM537.831 31.995H540.386C540.479 31.995 540.582 31.9903 540.694 31.981C540.81 31.9717 540.92 31.9553 541.023 31.932C541.321 31.862 541.562 31.7337 541.744 31.547C541.926 31.3557 542.056 31.1363 542.136 30.889C542.215 30.6417 542.255 30.3943 542.255 30.147C542.255 29.8997 542.215 29.6547 542.136 29.412C542.056 29.1647 541.926 28.9477 541.744 28.761C541.562 28.5697 541.321 28.439 541.023 28.369C540.92 28.341 540.81 28.3223 540.694 28.313C540.582 28.3037 540.479 28.299 540.386 28.299H537.831V31.995ZM548.294 37.189C547.795 37.189 547.326 37.0957 546.887 36.909C546.448 36.7177 546.068 36.447 545.746 36.097C545.429 35.747 545.198 35.334 545.053 34.858L546.467 34.466C546.602 34.9 546.838 35.2337 547.174 35.467C547.51 35.6957 547.883 35.8077 548.294 35.803C548.663 35.7983 548.987 35.712 549.267 35.544C549.547 35.376 549.766 35.1497 549.925 34.865C550.084 34.5757 550.163 34.2443 550.163 33.871C550.163 33.311 549.988 32.849 549.638 32.485C549.293 32.121 548.84 31.939 548.28 31.939C548.121 31.939 547.958 31.9623 547.79 32.009C547.627 32.0557 547.473 32.1163 547.328 32.191L546.642 31.036L550.198 27.893L550.352 28.313H545.452V26.92H551.514V28.313L548.56 31.155L548.546 30.679C549.181 30.679 549.731 30.8213 550.198 31.106C550.665 31.386 551.024 31.7687 551.276 32.254C551.533 32.7347 551.661 33.2737 551.661 33.871C551.661 34.515 551.509 35.0867 551.206 35.586C550.907 36.0853 550.504 36.4773 549.995 36.762C549.491 37.0467 548.924 37.189 548.294 37.189Z" fill="white" fill-opacity="0.3"/>
<path d="M594 112V24" stroke="white" stroke-opacity="0.3" stroke-width="2" stroke-linecap="square" stroke-dasharray="6 6"/>
<path d="M624.593 37V26.92H630.564V28.383H626.056V31.225H629.724V32.695H626.056V37H624.593ZM631.826 37V26.92H635.9C635.998 26.92 636.119 26.9247 636.264 26.934C636.408 26.9387 636.546 26.9527 636.677 26.976C637.237 27.0647 637.703 27.256 638.077 27.55C638.455 27.844 638.737 28.215 638.924 28.663C639.11 29.111 639.204 29.6057 639.204 30.147C639.204 30.9497 638.998 31.6427 638.588 32.226C638.177 32.8047 637.561 33.1663 636.74 33.311L636.145 33.381H633.289V37H631.826ZM637.72 37L635.732 32.898L637.209 32.52L639.393 37H637.72ZM633.289 31.995H635.844C635.937 31.995 636.04 31.9903 636.152 31.981C636.268 31.9717 636.378 31.9553 636.481 31.932C636.779 31.862 637.02 31.7337 637.202 31.547C637.384 31.3557 637.514 31.1363 637.594 30.889C637.673 30.6417 637.713 30.3943 637.713 30.147C637.713 29.8997 637.673 29.6547 637.594 29.412C637.514 29.1647 637.384 28.9477 637.202 28.761C637.02 28.5697 636.779 28.439 636.481 28.369C636.378 28.341 636.268 28.3223 636.152 28.313C636.04 28.3037 635.937 28.299 635.844 28.299H633.289V31.995ZM645.201 37V35.243H640.651V33.857L643.927 26.92H645.6L642.324 33.857H645.201V31.127H646.685V33.857H647.686V35.243H646.685V37H645.201Z" fill="white" fill-opacity="0.3"/>
<path d="M869.128 92V82.056L866.96 83.368V81.776L869.128 80.48H870.576V92H869.128ZM877.508 92.24C876.761 92.24 876.095 92.072 875.508 91.736C874.927 91.3947 874.465 90.9333 874.124 90.352C873.788 89.7653 873.62 89.0987 873.62 88.352V84.128C873.62 83.3813 873.788 82.7147 874.124 82.128C874.465 81.5413 874.927 81.08 875.508 80.744C876.095 80.408 876.761 80.24 877.508 80.24C878.255 80.24 878.921 80.408 879.508 80.744C880.095 81.08 880.556 81.5413 880.892 82.128C881.228 82.7147 881.396 83.3813 881.396 84.128V88.352C881.396 89.0987 881.228 89.7653 880.892 90.352C880.556 90.9333 880.095 91.3947 879.508 91.736C878.921 92.072 878.255 92.24 877.508 92.24ZM877.508 90.872C877.961 90.872 878.372 90.7627 878.74 90.544C879.108 90.3253 879.401 90.032 879.62 89.664C879.839 89.2907 879.948 88.88 879.948 88.432V84.04C879.948 83.5867 879.839 83.176 879.62 82.808C879.401 82.44 879.108 82.1467 878.74 81.928C878.372 81.7093 877.961 81.6 877.508 81.6C877.06 81.6 876.649 81.7093 876.276 81.928C875.908 82.1467 875.615 82.44 875.396 82.808C875.177 83.176 875.068 83.5867 875.068 84.04V88.432C875.068 88.88 875.177 89.2907 875.396 89.664C875.615 90.032 875.908 90.3253 876.276 90.544C876.649 90.7627 877.06 90.872 877.508 90.872ZM887.604 92.24C886.793 92.24 886.11 92.04 885.556 91.64C885.001 91.2347 884.58 90.688 884.292 90C884.009 89.3067 883.868 88.5307 883.868 87.672C883.868 86.8027 884.009 86.024 884.292 85.336C884.58 84.648 885.001 84.1067 885.556 83.712C886.116 83.3173 886.801 83.12 887.612 83.12C888.412 83.12 889.1 83.32 889.676 83.72C890.257 84.1147 890.702 84.656 891.012 85.344C891.321 86.032 891.476 86.808 891.476 87.672C891.476 88.536 891.321 89.312 891.012 90C890.702 90.688 890.257 91.2347 889.676 91.64C889.1 92.04 888.409 92.24 887.604 92.24ZM883.628 92V80.48H885.06V85.64H884.9V92H883.628ZM887.428 90.936C887.998 90.936 888.47 90.792 888.844 90.504C889.217 90.216 889.497 89.8267 889.684 89.336C889.87 88.84 889.964 88.2853 889.964 87.672C889.964 87.064 889.87 86.5147 889.684 86.024C889.502 85.5333 889.22 85.144 888.836 84.856C888.457 84.568 887.974 84.424 887.388 84.424C886.828 84.424 886.364 84.5627 885.996 84.84C885.628 85.112 885.353 85.4933 885.172 85.984C884.99 86.4693 884.9 87.032 884.9 87.672C884.9 88.3013 884.988 88.864 885.164 89.36C885.345 89.8507 885.622 90.2373 885.996 90.52C886.369 90.7973 886.846 90.936 887.428 90.936ZM897.197 92.24C896.387 92.24 895.704 92.04 895.149 91.64C894.595 91.2347 894.173 90.688 893.885 90C893.603 89.3067 893.461 88.5307 893.461 87.672C893.461 86.8027 893.603 86.024 893.885 85.336C894.173 84.648 894.595 84.1067 895.149 83.712C895.709 83.3173 896.395 83.12 897.205 83.12C898.005 83.12 898.693 83.32 899.269 83.72C899.851 84.1147 900.296 84.656 900.605 85.344C900.915 86.032 901.069 86.808 901.069 87.672C901.069 88.536 900.915 89.312 900.605 90C900.296 90.688 899.851 91.2347 899.269 91.64C898.693 92.04 898.003 92.24 897.197 92.24ZM893.221 95.84V83.36H894.493V89.72H894.653V95.84H893.221ZM897.021 90.936C897.592 90.936 898.064 90.792 898.437 90.504C898.811 90.216 899.091 89.8267 899.277 89.336C899.464 88.84 899.557 88.2853 899.557 87.672C899.557 87.064 899.464 86.5147 899.277 86.024C899.096 85.5333 898.813 85.144 898.429 84.856C898.051 84.568 897.568 84.424 896.981 84.424C896.421 84.424 895.957 84.5627 895.589 84.84C895.221 85.112 894.947 85.4933 894.765 85.984C894.584 86.4693 894.493 87.032 894.493 87.672C894.493 88.3013 894.581 88.864 894.757 89.36C894.939 89.8507 895.216 90.2373 895.589 90.52C895.963 90.7973 896.44 90.936 897.021 90.936Z" fill="white"/>
<path d="M826.72 92.24C825.984 92.24 825.333 92.0933 824.768 91.8C824.203 91.5013 823.76 91.088 823.44 90.56C823.12 90.032 822.96 89.416 822.96 88.712C822.96 88.024 823.123 87.4027 823.448 86.848C823.779 86.2933 824.275 85.8667 824.936 85.568L824.912 86.088C824.373 85.8267 823.96 85.4587 823.672 84.984C823.384 84.504 823.24 83.9733 823.24 83.392C823.24 82.7413 823.389 82.1813 823.688 81.712C823.987 81.2427 824.397 80.88 824.92 80.624C825.443 80.368 826.043 80.24 826.72 80.24C827.397 80.24 827.997 80.368 828.52 80.624C829.043 80.88 829.453 81.2427 829.752 81.712C830.051 82.1813 830.2 82.7413 830.2 83.392C830.2 83.9733 830.064 84.5013 829.792 84.976C829.52 85.4453 829.101 85.816 828.536 86.088L828.504 85.576C829.165 85.864 829.661 86.288 829.992 86.848C830.328 87.4027 830.496 88.024 830.496 88.712C830.496 89.416 830.333 90.032 830.008 90.56C829.688 91.088 829.243 91.5013 828.672 91.8C828.107 92.0933 827.456 92.24 826.72 92.24ZM826.72 90.88C827.392 90.88 827.936 90.696 828.352 90.328C828.773 89.9547 828.984 89.416 828.984 88.712C828.984 88.0027 828.776 87.464 828.36 87.096C827.949 86.7227 827.403 86.536 826.72 86.536C826.043 86.536 825.496 86.7227 825.08 87.096C824.669 87.464 824.464 88.0027 824.464 88.712C824.464 89.416 824.672 89.9547 825.088 90.328C825.504 90.696 826.048 90.88 826.72 90.88ZM826.72 85.168C827.307 85.168 827.781 85.0213 828.144 84.728C828.507 84.4293 828.688 83.984 828.688 83.392C828.688 82.8 828.507 82.3573 828.144 82.064C827.781 81.7653 827.307 81.616 826.72 81.616C826.139 81.616 825.664 81.7653 825.296 82.064C824.933 82.3573 824.752 82.8 824.752 83.392C824.752 83.984 824.933 84.4293 825.296 84.728C825.664 85.0213 826.139 85.168 826.72 85.168ZM836.541 92.24C835.73 92.24 835.048 92.04 834.493 91.64C833.938 91.2347 833.517 90.688 833.229 90C832.946 89.3067 832.805 88.5307 832.805 87.672C832.805 86.8027 832.946 86.024 833.229 85.336C833.517 84.648 833.938 84.1067 834.493 83.712C835.053 83.3173 835.738 83.12 836.549 83.12C837.349 83.12 838.037 83.32 838.613 83.72C839.194 84.1147 839.64 84.656 839.949 85.344C840.258 86.032 840.413 86.808 840.413 87.672C840.413 88.536 840.258 89.312 839.949 90C839.64 90.688 839.194 91.2347 838.613 91.64C838.037 92.04 837.346 92.24 836.541 92.24ZM832.565 92V80.48H833.997V85.64H833.837V92H832.565ZM836.365 90.936C836.936 90.936 837.408 90.792 837.781 90.504C838.154 90.216 838.434 89.8267 838.621 89.336C838.808 88.84 838.901 88.2853 838.901 87.672C838.901 87.064 838.808 86.5147 838.621 86.024C838.44 85.5333 838.157 85.144 837.773 84.856C837.394 84.568 836.912 84.424 836.325 84.424C835.765 84.424 835.301 84.5627 834.933 84.84C834.565 85.112 834.29 85.4933 834.109 85.984C833.928 86.4693 833.837 87.032 833.837 87.672C833.837 88.3013 833.925 88.864 834.101 89.36C834.282 89.8507 834.56 90.2373 834.933 90.52C835.306 90.7973 835.784 90.936 836.365 90.936ZM846.135 92.24C845.324 92.24 844.642 92.04 844.087 91.64C843.532 91.2347 843.111 90.688 842.823 90C842.54 89.3067 842.399 88.5307 842.399 87.672C842.399 86.8027 842.54 86.024 842.823 85.336C843.111 84.648 843.532 84.1067 844.087 83.712C844.647 83.3173 845.332 83.12 846.143 83.12C846.943 83.12 847.631 83.32 848.207 83.72C848.788 84.1147 849.234 84.656 849.543 85.344C849.852 86.032 850.007 86.808 850.007 87.672C850.007 88.536 849.852 89.312 849.543 90C849.234 90.688 848.788 91.2347 848.207 91.64C847.631 92.04 846.94 92.24 846.135 92.24ZM842.159 95.84V83.36H843.431V89.72H843.591V95.84H842.159ZM845.959 90.936C846.53 90.936 847.002 90.792 847.375 90.504C847.748 90.216 848.028 89.8267 848.215 89.336C848.402 88.84 848.495 88.2853 848.495 87.672C848.495 87.064 848.402 86.5147 848.215 86.024C848.034 85.5333 847.751 85.144 847.367 84.856C846.988 84.568 846.506 84.424 845.919 84.424C845.359 84.424 844.895 84.5627 844.527 84.84C844.159 85.112 843.884 85.4933 843.703 85.984C843.522 86.4693 843.431 87.032 843.431 87.672C843.431 88.3013 843.519 88.864 843.695 89.36C843.876 89.8507 844.154 90.2373 844.527 90.52C844.9 90.7973 845.378 90.936 845.959 90.936Z" fill="white"/>
<path d="M101.28 92.224C100.709 92.224 100.179 92.12 99.688 91.912C99.1973 91.6987 98.7733 91.4 98.416 91.016C98.064 90.6267 97.8053 90.1653 97.64 89.632L99.008 89.24C99.184 89.7733 99.4773 90.1787 99.888 90.456C100.299 90.7333 100.76 90.8693 101.272 90.864C101.741 90.8533 102.147 90.7467 102.488 90.544C102.835 90.336 103.101 90.0533 103.288 89.696C103.48 89.3387 103.576 88.9253 103.576 88.456C103.576 87.7413 103.363 87.1627 102.936 86.72C102.509 86.272 101.949 86.048 101.256 86.048C101.064 86.048 100.861 86.0747 100.648 86.128C100.44 86.1813 100.245 86.256 100.064 86.352L99.376 85.224L103.648 81.36L103.832 81.84H98.096V80.48H104.888V81.848L101.248 85.336L101.232 84.832C101.995 84.7787 102.661 84.904 103.232 85.208C103.803 85.512 104.245 85.9467 104.56 86.512C104.88 87.0773 105.04 87.7253 105.04 88.456C105.04 89.192 104.875 89.8427 104.544 90.408C104.213 90.9733 103.765 91.4187 103.2 91.744C102.635 92.064 101.995 92.224 101.28 92.224ZM111.088 92.24C110.277 92.24 109.595 92.04 109.04 91.64C108.485 91.2347 108.064 90.688 107.776 90C107.493 89.3067 107.352 88.5307 107.352 87.672C107.352 86.8027 107.493 86.024 107.776 85.336C108.064 84.648 108.485 84.1067 109.04 83.712C109.6 83.3173 110.285 83.12 111.096 83.12C111.896 83.12 112.584 83.32 113.16 83.72C113.741 84.1147 114.187 84.656 114.496 85.344C114.805 86.032 114.96 86.808 114.96 87.672C114.96 88.536 114.805 89.312 114.496 90C114.187 90.688 113.741 91.2347 113.16 91.64C112.584 92.04 111.893 92.24 111.088 92.24ZM107.112 92V80.48H108.544V85.64H108.384V92H107.112ZM110.912 90.936C111.483 90.936 111.955 90.792 112.328 90.504C112.701 90.216 112.981 89.8267 113.168 89.336C113.355 88.84 113.448 88.2853 113.448 87.672C113.448 87.064 113.355 86.5147 113.168 86.024C112.987 85.5333 112.704 85.144 112.32 84.856C111.941 84.568 111.459 84.424 110.872 84.424C110.312 84.424 109.848 84.5627 109.48 84.84C109.112 85.112 108.837 85.4933 108.656 85.984C108.475 86.4693 108.384 87.032 108.384 87.672C108.384 88.3013 108.472 88.864 108.648 89.36C108.829 89.8507 109.107 90.2373 109.48 90.52C109.853 90.7973 110.331 90.936 110.912 90.936ZM120.682 92.24C119.871 92.24 119.188 92.04 118.634 91.64C118.079 91.2347 117.658 90.688 117.37 90C117.087 89.3067 116.946 88.5307 116.946 87.672C116.946 86.8027 117.087 86.024 117.37 85.336C117.658 84.648 118.079 84.1067 118.634 83.712C119.194 83.3173 119.879 83.12 120.69 83.12C121.49 83.12 122.178 83.32 122.754 83.72C123.335 84.1147 123.78 84.656 124.09 85.344C124.399 86.032 124.554 86.808 124.554 87.672C124.554 88.536 124.399 89.312 124.09 90C123.78 90.688 123.335 91.2347 122.754 91.64C122.178 92.04 121.487 92.24 120.682 92.24ZM116.706 95.84V83.36H117.978V89.72H118.138V95.84H116.706ZM120.506 90.936C121.076 90.936 121.548 90.792 121.922 90.504C122.295 90.216 122.575 89.8267 122.762 89.336C122.948 88.84 123.042 88.2853 123.042 87.672C123.042 87.064 122.948 86.5147 122.762 86.024C122.58 85.5333 122.298 85.144 121.914 84.856C121.535 84.568 121.052 84.424 120.466 84.424C119.906 84.424 119.442 84.5627 119.074 84.84C118.706 85.112 118.431 85.4933 118.25 85.984C118.068 86.4693 117.978 87.032 117.978 87.672C117.978 88.3013 118.066 88.864 118.242 89.36C118.423 89.8507 118.7 90.2373 119.074 90.52C119.447 90.7973 119.924 90.936 120.506 90.936Z" fill="white"/>
<g filter="url(#filter0_i_6910_5298)">
<rect x="96" y="108" width="30" height="52" rx="1" fill="#90E0E0"/>
<path d="M105.447 142V127.6H107.247L114.757 138.85V127.6H116.557V142H114.757L107.247 130.74V142H105.447Z" fill="#110529"/>
<rect x="96" y="108" width="30" height="52" rx="1" stroke="#110529" stroke-width="2" stroke-linecap="round"/>
</g>
<g filter="url(#filter1_i_6910_5298)">
<path d="M126 109.6C126 109.04 126 108.76 126.109 108.546C126.205 108.358 126.358 108.205 126.546 108.109C126.76 108 127.04 108 127.6 108H484.4C484.96 108 485.24 108 485.454 108.109C485.642 108.205 485.795 108.358 485.891 108.546C486 108.76 486 109.04 486 109.6V158.4C486 158.96 486 159.24 485.891 159.454C485.795 159.642 485.642 159.795 485.454 159.891C485.24 160 484.96 160 484.4 160H127.6C127.04 160 126.76 160 126.546 159.891C126.358 159.795 126.205 159.642 126.109 159.454C126 159.24 126 158.96 126 158.4V153.5V147V140V134V127.5V121V114.5V109.6Z" fill="#99E099"/>
</g>
<path d="M126 109.6C126 109.04 126 108.76 126.109 108.546C126.205 108.358 126.358 108.205 126.546 108.109C126.76 108 127.04 108 127.6 108H484.4C484.96 108 485.24 108 485.454 108.109C485.642 108.205 485.795 108.358 485.891 108.546C486 108.76 486 109.04 486 109.6V158.4C486 158.96 486 159.24 485.891 159.454C485.795 159.642 485.642 159.795 485.454 159.891C485.24 160 484.96 160 484.4 160H127.6C127.04 160 126.76 160 126.546 159.891C126.358 159.795 126.205 159.642 126.109 159.454C126 159.24 126 158.96 126 158.4V153.5V147V140V134V127.5V121V114.5V109.6Z" stroke="#110529" stroke-width="2" stroke-linecap="round"/>
<path d="M316.758 142L311.938 127.6H313.788L317.978 140.11L322.208 127.6H324.058L319.238 142H316.758Z" fill="#110529"/>
<g filter="url(#filter2_i_6910_5298)">
<rect x="486" y="108" width="30" height="52" rx="1" fill="#CBEB67"/>
</g>
<rect x="486" y="108" width="30" height="52" rx="1" stroke="#110529" stroke-width="2" stroke-linecap="round"/>
<g filter="url(#filter3_i_6910_5298)">
<rect x="552" y="108" width="30" height="52" rx="1" fill="#FAAAFA"/>
</g>
<rect x="552" y="108" width="30" height="52" rx="1" stroke="#110529" stroke-width="2" stroke-linecap="round"/>
<g filter="url(#filter4_i_6910_5298)">
<rect x="516" y="108" width="36" height="52" rx="1" fill="#FFCB8F"/>
</g>
<rect x="516" y="108" width="36" height="52" rx="1" stroke="#110529" stroke-width="2" stroke-linecap="round"/>
<path d="M495.447 142V127.6H497.247L504.757 138.85V127.6H506.557V142H504.757L497.247 130.74V142H495.447Z" fill="#110529"/>
<path d="M561.447 142V127.6H563.247L570.757 138.85V127.6H572.557V142H570.757L563.247 130.74V142H561.447Z" fill="#110529"/>
<path d="M528.593 142V127.6H533.033C533.313 127.6 534.173 127.6 534.853 127.69C538.183 128.13 539.913 131.13 539.913 134.8C539.913 138.48 538.183 141.47 534.853 141.91C534.183 142 533.303 142 533.033 142H528.593ZM530.423 140.3H533.033C533.533 140.3 534.233 140.28 534.703 140.19C537.063 139.76 538.023 137.47 538.023 134.8C538.023 132.08 537.033 129.83 534.703 129.41C534.233 129.32 533.513 129.3 533.033 129.3H530.423V140.3Z" fill="#110529"/>
<g filter="url(#filter5_i_6910_5298)">
<rect x="582" y="108" width="96" height="52" rx="1" fill="#C1ADFF"/>
<path d="M629.244 142.29C627.224 142.29 625.754 141.11 625.244 139.27L627.014 138.85C627.224 139.83 628.134 140.6 629.204 140.6C629.884 140.6 630.704 140.29 631.094 139.51C631.354 138.99 631.354 138.37 631.354 137.48V127.6H633.154V137.48C633.154 138.72 633.214 139.51 632.684 140.43C631.954 141.7 630.694 142.29 629.244 142.29Z" fill="#110529"/>
<rect x="582" y="108" width="96" height="52" rx="1" stroke="#110529" stroke-width="2" stroke-linecap="round"/>
</g>
<g filter="url(#filter6_i_6910_5298)">
<rect x="678" y="108" width="144" height="52" rx="1" fill="#FAFAAA"/>
<path d="M750.093 142.3C745.783 142.3 743.373 139.24 743.373 134.8C743.373 130.36 745.783 127.3 750.093 127.3C753.423 127.3 755.613 129.13 756.433 131.99L754.623 132.47C754.033 130.33 752.523 129 750.093 129C746.873 129 745.273 131.35 745.253 134.8C745.233 138.25 746.873 140.6 750.093 140.6C752.523 140.6 754.033 139.27 754.623 137.13L756.433 137.61C755.613 140.47 753.423 142.3 750.093 142.3Z" fill="#110529"/>
<rect x="678" y="108" width="144" height="52" rx="1" stroke="#110529" stroke-width="2" stroke-linecap="round"/>
</g>
<g filter="url(#filter7_i_6910_5298)">
<rect x="822" y="108" width="30" height="52" rx="1" fill="#D3D7E0"/>
<rect x="822" y="108" width="30" height="52" rx="1" stroke="#110529" stroke-width="2" stroke-linecap="round"/>
</g>
<g filter="url(#filter8_i_6910_5298)">
<rect x="852" y="108" width="64" height="52" rx="1" fill="#D6E0FF"/>
<path d="M872.553 142.3C869.213 142.3 866.873 140.11 866.873 136.75V127.61L868.673 127.6V136.6C868.673 139.33 870.733 140.62 872.553 140.62C874.393 140.62 876.433 139.31 876.433 136.6V127.6H878.233V136.75C878.233 140.1 875.893 142.3 872.553 142.3ZM881.033 142V127.6H882.653L888.093 139.07L893.503 127.6H895.143V141.99H893.453V131.51L888.563 142H887.613L882.723 131.51V142H881.033ZM898.147 142V127.6H899.927V142H898.147Z" fill="#110529"/>
<rect x="852" y="108" width="64" height="52" rx="1" stroke="#110529" stroke-width="2" stroke-linecap="round"/>
</g>
<g filter="url(#filter9_i_6910_5298)">
<rect x="96" y="268" width="30" height="52" rx="1" fill="#90E0E0"/>
<path d="M105.447 302V287.6H107.247L114.757 298.85V287.6H116.557V302H114.757L107.247 290.74V302H105.447Z" fill="#110529"/>
<rect x="96" y="268" width="30" height="52" rx="1" stroke="#110529" stroke-width="2" stroke-linecap="round"/>
</g>
<g filter="url(#filter10_i_6910_5298)">
<path d="M126 269.6C126 269.04 126 268.76 126.109 268.546C126.205 268.358 126.358 268.205 126.546 268.109C126.76 268 127.04 268 127.6 268H484.4C484.96 268 485.24 268 485.454 268.109C485.642 268.205 485.795 268.358 485.891 268.546C486 268.76 486 269.04 486 269.6V318.4C486 318.96 486 319.24 485.891 319.454C485.795 319.642 485.642 319.795 485.454 319.891C485.24 320 484.96 320 484.4 320H127.6C127.04 320 126.76 320 126.546 319.891C126.358 319.795 126.205 319.642 126.109 319.454C126 319.24 126 318.96 126 318.4V313.5V307V300V294V287.5V281V274.5V269.6Z" fill="#99E099"/>
</g>
<path d="M126 269.6C126 269.04 126 268.76 126.109 268.546C126.205 268.358 126.358 268.205 126.546 268.109C126.76 268 127.04 268 127.6 268H484.4C484.96 268 485.24 268 485.454 268.109C485.642 268.205 485.795 268.358 485.891 268.546C486 268.76 486 269.04 486 269.6V318.4C486 318.96 486 319.24 485.891 319.454C485.795 319.642 485.642 319.795 485.454 319.891C485.24 320 484.96 320 484.4 320H127.6C127.04 320 126.76 320 126.546 319.891C126.358 319.795 126.205 319.642 126.109 319.454C126 319.24 126 318.96 126 318.4V313.5V307V300V294V287.5V281V274.5V269.6Z" stroke="#110529" stroke-width="2" stroke-linecap="round"/>
<path d="M316.758 302L311.938 287.6H313.788L317.978 300.11L322.208 287.6H324.058L319.238 302H316.758Z" fill="#110529"/>
<g filter="url(#filter11_i_6910_5298)">
<rect x="486" y="268" width="30" height="52" rx="1" fill="#CBEB67"/>
<path d="M495.447 302V287.6H497.247L504.757 298.85V287.6H506.557V302H504.757L497.247 290.74V302H495.447Z" fill="#110529"/>
<rect x="486" y="268" width="30" height="52" rx="1" stroke="#110529" stroke-width="2" stroke-linecap="round"/>
</g>
<g filter="url(#filter12_i_6910_5298)">
<rect x="516" y="268" width="96" height="52" rx="1" fill="#C1ADFF"/>
<path d="M563.244 302.29C561.224 302.29 559.754 301.11 559.244 299.27L561.014 298.85C561.224 299.83 562.134 300.6 563.204 300.6C563.884 300.6 564.704 300.29 565.094 299.51C565.354 298.99 565.354 298.37 565.354 297.48V287.6H567.154V297.48C567.154 298.72 567.214 299.51 566.684 300.43C565.954 301.7 564.694 302.29 563.244 302.29Z" fill="#110529"/>
<rect x="516" y="268" width="96" height="52" rx="1" stroke="#110529" stroke-width="2" stroke-linecap="round"/>
</g>
<g filter="url(#filter13_i_6910_5298)">
<rect x="612" y="268" width="144" height="52" rx="1" fill="#FAFAAA"/>
<path d="M684.093 302.3C679.783 302.3 677.373 299.24 677.373 294.8C677.373 290.36 679.783 287.3 684.093 287.3C687.423 287.3 689.613 289.13 690.433 291.99L688.623 292.47C688.033 290.33 686.523 289 684.093 289C680.873 289 679.273 291.35 679.253 294.8C679.233 298.25 680.873 300.6 684.093 300.6C686.523 300.6 688.033 299.27 688.623 297.13L690.433 297.61C689.613 300.47 687.423 302.3 684.093 302.3Z" fill="#110529"/>
<rect x="612" y="268" width="144" height="52" rx="1" stroke="#110529" stroke-width="2" stroke-linecap="round"/>
</g>
<g filter="url(#filter14_i_6910_5298)">
<rect x="756" y="268" width="30" height="52" rx="1" fill="#D3D7E0"/>
<rect x="756" y="268" width="30" height="52" rx="1" stroke="#110529" stroke-width="2" stroke-linecap="round"/>
</g>
<g filter="url(#filter15_i_6910_5298)">
<rect x="786" y="268" width="64" height="52" rx="1" fill="#D6E0FF"/>
<path d="M806.553 302.3C803.213 302.3 800.873 300.11 800.873 296.75V287.61L802.673 287.6V296.6C802.673 299.33 804.733 300.62 806.553 300.62C808.393 300.62 810.433 299.31 810.433 296.6V287.6H812.233V296.75C812.233 300.1 809.893 302.3 806.553 302.3ZM815.033 302V287.6H816.653L822.093 299.07L827.503 287.6H829.143V301.99H827.453V291.51L822.563 302H821.613L816.723 291.51V302H815.033ZM832.147 302V287.6H833.927V302H832.147Z" fill="#110529"/>
<rect x="786" y="268" width="64" height="52" rx="1" stroke="#110529" stroke-width="2" stroke-linecap="round"/>
</g>
<g filter="url(#filter16_i_6910_5298)">
<rect x="96" y="368" width="30" height="52" rx="1" fill="#90E0E0"/>
<path d="M105.447 402V387.6H107.247L114.757 398.85V387.6H116.557V402H114.757L107.247 390.74V402H105.447Z" fill="#110529"/>
<rect x="96" y="368" width="30" height="52" rx="1" stroke="#110529" stroke-width="2" stroke-linecap="round"/>
</g>
<g filter="url(#filter17_i_6910_5298)">
<path d="M126 369.6C126 369.04 126 368.76 126.109 368.546C126.205 368.358 126.358 368.205 126.546 368.109C126.76 368 127.04 368 127.6 368H484.4C484.96 368 485.24 368 485.454 368.109C485.642 368.205 485.795 368.358 485.891 368.546C486 368.76 486 369.04 486 369.6V418.4C486 418.96 486 419.24 485.891 419.454C485.795 419.642 485.642 419.795 485.454 419.891C485.24 420 484.96 420 484.4 420H127.6C127.04 420 126.76 420 126.546 419.891C126.358 419.795 126.205 419.642 126.109 419.454C126 419.24 126 418.96 126 418.4V413.5V407V400V394V387.5V381V374.5V369.6Z" fill="#99E099"/>
</g>
<path d="M126 369.6C126 369.04 126 368.76 126.109 368.546C126.205 368.358 126.358 368.205 126.546 368.109C126.76 368 127.04 368 127.6 368H484.4C484.96 368 485.24 368 485.454 368.109C485.642 368.205 485.795 368.358 485.891 368.546C486 368.76 486 369.04 486 369.6V418.4C486 418.96 486 419.24 485.891 419.454C485.795 419.642 485.642 419.795 485.454 419.891C485.24 420 484.96 420 484.4 420H127.6C127.04 420 126.76 420 126.546 419.891C126.358 419.795 126.205 419.642 126.109 419.454C126 419.24 126 418.96 126 418.4V413.5V407V400V394V387.5V381V374.5V369.6Z" stroke="#110529" stroke-width="2" stroke-linecap="round"/>
<path d="M316.758 402L311.938 387.6H313.788L317.978 400.11L322.208 387.6H324.058L319.238 402H316.758Z" fill="#110529"/>
<g filter="url(#filter18_i_6910_5298)">
<rect x="486" y="368" width="30" height="52" rx="1" fill="#CBEB67"/>
</g>
<rect x="486" y="368" width="30" height="52" rx="1" stroke="#110529" stroke-width="2" stroke-linecap="round"/>
<g filter="url(#filter19_i_6910_5298)">
<rect x="552" y="368" width="30" height="52" rx="1" fill="#FAAAFA"/>
</g>
<rect x="552" y="368" width="30" height="52" rx="1" stroke="#110529" stroke-width="2" stroke-linecap="round"/>
<g filter="url(#filter20_i_6910_5298)">
<rect x="516" y="368" width="36" height="52" rx="1" fill="#FFCB8F"/>
</g>
<rect x="516" y="368" width="36" height="52" rx="1" stroke="#110529" stroke-width="2" stroke-linecap="round"/>
<path d="M495.447 402V387.6H497.247L504.757 398.85V387.6H506.557V402H504.757L497.247 390.74V402H495.447Z" fill="#110529"/>
<path d="M561.447 402V387.6H563.247L570.757 398.85V387.6H572.557V402H570.757L563.247 390.74V402H561.447Z" fill="#110529"/>
<path d="M528.593 402V387.6H533.033C533.313 387.6 534.173 387.6 534.853 387.69C538.183 388.13 539.913 391.13 539.913 394.8C539.913 398.48 538.183 401.47 534.853 401.91C534.183 402 533.303 402 533.033 402H528.593ZM530.423 400.3H533.033C533.533 400.3 534.233 400.28 534.703 400.19C537.063 399.76 538.023 397.47 538.023 394.8C538.023 392.08 537.033 389.83 534.703 389.41C534.233 389.32 533.513 389.3 533.033 389.3H530.423V400.3Z" fill="#110529"/>
<g filter="url(#filter21_i_6910_5298)">
<rect x="582" y="368" width="96" height="52" rx="1" fill="#C1ADFF"/>
<path d="M629.244 402.29C627.224 402.29 625.754 401.11 625.244 399.27L627.014 398.85C627.224 399.83 628.134 400.6 629.204 400.6C629.884 400.6 630.704 400.29 631.094 399.51C631.354 398.99 631.354 398.37 631.354 397.48V387.6H633.154V397.48C633.154 398.72 633.214 399.51 632.684 400.43C631.954 401.7 630.694 402.29 629.244 402.29Z" fill="#110529"/>
<rect x="582" y="368" width="96" height="52" rx="1" stroke="#110529" stroke-width="2" stroke-linecap="round"/>
</g>
<g filter="url(#filter22_i_6910_5298)">
<rect x="678" y="368" width="144" height="52" rx="1" fill="#FAFAAA"/>
<path d="M750.093 402.3C745.783 402.3 743.373 399.24 743.373 394.8C743.373 390.36 745.783 387.3 750.093 387.3C753.423 387.3 755.613 389.13 756.433 391.99L754.623 392.47C754.033 390.33 752.523 389 750.093 389C746.873 389 745.273 391.35 745.253 394.8C745.233 398.25 746.873 400.6 750.093 400.6C752.523 400.6 754.033 399.27 754.623 397.13L756.433 397.61C755.613 400.47 753.423 402.3 750.093 402.3Z" fill="#110529"/>
<rect x="678" y="368" width="144" height="52" rx="1" stroke="#110529" stroke-width="2" stroke-linecap="round"/>
</g>
<g filter="url(#filter23_i_6910_5298)">
<rect x="822" y="368" width="30" height="52" rx="1" fill="#D3D7E0"/>
<rect x="822" y="368" width="30" height="52" rx="1" stroke="#110529" stroke-width="2" stroke-linecap="round"/>
</g>
<g filter="url(#filter24_i_6910_5298)">
<rect x="852" y="368" width="64" height="52" rx="1" fill="#D6E0FF"/>
<path d="M872.553 402.3C869.213 402.3 866.873 400.11 866.873 396.75V387.61L868.673 387.6V396.6C868.673 399.33 870.733 400.62 872.553 400.62C874.393 400.62 876.433 399.31 876.433 396.6V387.6H878.233V396.75C878.233 400.1 875.893 402.3 872.553 402.3ZM881.033 402V387.6H882.653L888.093 399.07L893.503 387.6H895.143V401.99H893.453V391.51L888.563 402H887.613L882.723 391.51V402H881.033ZM898.147 402V387.6H899.927V402H898.147Z" fill="#110529"/>
<rect x="852" y="368" width="64" height="52" rx="1" stroke="#110529" stroke-width="2" stroke-linecap="round"/>
</g>
<g filter="url(#filter25_i_6910_5298)">
<rect x="96" y="468" width="30" height="52" rx="1" fill="#90E0E0"/>
<path d="M105.447 502V487.6H107.247L114.757 498.85V487.6H116.557V502H114.757L107.247 490.74V502H105.447Z" fill="#110529"/>
<rect x="96" y="468" width="30" height="52" rx="1" stroke="#110529" stroke-width="2" stroke-linecap="round"/>
</g>
<g filter="url(#filter26_i_6910_5298)">
<path d="M126 469.6C126 469.04 126 468.76 126.109 468.546C126.205 468.358 126.358 468.205 126.546 468.109C126.76 468 127.04 468 127.6 468H484.4C484.96 468 485.24 468 485.454 468.109C485.642 468.205 485.795 468.358 485.891 468.546C486 468.76 486 469.04 486 469.6V518.4C486 518.96 486 519.24 485.891 519.454C485.795 519.642 485.642 519.795 485.454 519.891C485.24 520 484.96 520 484.4 520H127.6C127.04 520 126.76 520 126.546 519.891C126.358 519.795 126.205 519.642 126.109 519.454C126 519.24 126 518.96 126 518.4V513.5V507V500V494V487.5V481V474.5V469.6Z" fill="#99E099"/>
</g>
<path d="M126 469.6C126 469.04 126 468.76 126.109 468.546C126.205 468.358 126.358 468.205 126.546 468.109C126.76 468 127.04 468 127.6 468H484.4C484.96 468 485.24 468 485.454 468.109C485.642 468.205 485.795 468.358 485.891 468.546C486 468.76 486 469.04 486 469.6V518.4C486 518.96 486 519.24 485.891 519.454C485.795 519.642 485.642 519.795 485.454 519.891C485.24 520 484.96 520 484.4 520H127.6C127.04 520 126.76 520 126.546 519.891C126.358 519.795 126.205 519.642 126.109 519.454C126 519.24 126 518.96 126 518.4V513.5V507V500V494V487.5V481V474.5V469.6Z" stroke="#110529" stroke-width="2" stroke-linecap="round"/>
<path d="M316.758 502L311.938 487.6H313.788L317.978 500.11L322.208 487.6H324.058L319.238 502H316.758Z" fill="#110529"/>
<g filter="url(#filter27_i_6910_5298)">
<rect x="486" y="468" width="30" height="52" rx="1" fill="#CBEB67"/>
<path d="M495.447 502V487.6H497.247L504.757 498.85V487.6H506.557V502H504.757L497.247 490.74V502H495.447Z" fill="#110529"/>
<rect x="486" y="468" width="30" height="52" rx="1" stroke="#110529" stroke-width="2" stroke-linecap="round"/>
</g>
<g filter="url(#filter28_i_6910_5298)">
<rect x="516" y="468" width="96" height="52" rx="1" fill="#C1ADFF"/>
<path d="M563.244 502.29C561.224 502.29 559.754 501.11 559.244 499.27L561.014 498.85C561.224 499.83 562.134 500.6 563.204 500.6C563.884 500.6 564.704 500.29 565.094 499.51C565.354 498.99 565.354 498.37 565.354 497.48V487.6H567.154V497.48C567.154 498.72 567.214 499.51 566.684 500.43C565.954 501.7 564.694 502.29 563.244 502.29Z" fill="#110529"/>
<rect x="516" y="468" width="96" height="52" rx="1" stroke="#110529" stroke-width="2" stroke-linecap="round"/>
</g>
<g filter="url(#filter29_i_6910_5298)">
<rect x="612" y="468" width="144" height="52" rx="1" fill="#FAFAAA"/>
<path d="M684.093 502.3C679.783 502.3 677.373 499.24 677.373 494.8C677.373 490.36 679.783 487.3 684.093 487.3C687.423 487.3 689.613 489.13 690.433 491.99L688.623 492.47C688.033 490.33 686.523 489 684.093 489C680.873 489 679.273 491.35 679.253 494.8C679.233 498.25 680.873 500.6 684.093 500.6C686.523 500.6 688.033 499.27 688.623 497.13L690.433 497.61C689.613 500.47 687.423 502.3 684.093 502.3Z" fill="#110529"/>
<rect x="612" y="468" width="144" height="52" rx="1" stroke="#110529" stroke-width="2" stroke-linecap="round"/>
</g>
<g filter="url(#filter30_i_6910_5298)">
<rect x="756" y="468" width="30" height="52" rx="1" fill="#D3D7E0"/>
<rect x="756" y="468" width="30" height="52" rx="1" stroke="#110529" stroke-width="2" stroke-linecap="round"/>
</g>
<g filter="url(#filter31_i_6910_5298)">
<rect x="786" y="468" width="64" height="52" rx="1" fill="#D6E0FF"/>
<path d="M806.553 502.3C803.213 502.3 800.873 500.11 800.873 496.75V487.61L802.673 487.6V496.6C802.673 499.33 804.733 500.62 806.553 500.62C808.393 500.62 810.433 499.31 810.433 496.6V487.6H812.233V496.75C812.233 500.1 809.893 502.3 806.553 502.3ZM815.033 502V487.6H816.653L822.093 499.07L827.503 487.6H829.143V501.99H827.453V491.51L822.563 502H821.613L816.723 491.51V502H815.033ZM832.147 502V487.6H833.927V502H832.147Z" fill="#110529"/>
<rect x="786" y="468" width="64" height="52" rx="1" stroke="#110529" stroke-width="2" stroke-linecap="round"/>
</g>
<path d="M296 184L295.293 184.707L294.586 184L295.293 183.293L296 184ZM303.293 175.293L304 174.586L305.414 176L304.707 176.707L303.293 175.293ZM304.707 191.293L305.414 192L304 193.414L303.293 192.707L304.707 191.293ZM306 185L296 185L296 183L306 183L306 185ZM295.293 183.293L303.293 175.293L304.707 176.707L296.707 184.707L295.293 183.293ZM296.707 183.293L304.707 191.293L303.293 192.707L295.293 184.707L296.707 183.293Z" fill="#D3D7E0"/>
<path d="M566.5 184H306" stroke="#D3D7E0" stroke-width="2"/>
<rect width="57" height="20" transform="translate(566.5 174)" fill="#1D1D29"/>
<path d="M575.171 190.224C573.459 190.224 572.019 189.232 571.531 187.632L572.899 187.24C573.243 188.312 574.139 188.88 575.163 188.864C576.563 188.84 577.467 187.864 577.467 186.456C577.467 185.032 576.531 184.048 575.147 184.048C574.755 184.048 574.315 184.168 573.955 184.352L573.267 183.224L577.011 179.84H571.987V178.48H578.779V179.848L575.667 182.832C577.651 182.944 578.931 184.44 578.931 186.456C578.931 188.664 577.307 190.224 575.171 190.224ZM584.899 190.24C582.659 190.24 581.011 188.592 581.011 186.352V182.128C581.011 179.888 582.659 178.24 584.899 178.24C587.139 178.24 588.787 179.888 588.787 182.128V186.352C588.787 188.592 587.139 190.24 584.899 190.24ZM582.459 186.432C582.459 187.784 583.547 188.872 584.899 188.872C586.251 188.872 587.339 187.784 587.339 186.432V182.04C587.339 180.688 586.251 179.6 584.899 179.6C583.547 179.6 582.459 180.688 582.459 182.04V186.432ZM594.914 190.24C592.674 190.24 591.026 188.592 591.026 186.352V182.128C591.026 179.888 592.674 178.24 594.914 178.24C597.154 178.24 598.802 179.888 598.802 182.128V186.352C598.802 188.592 597.154 190.24 594.914 190.24ZM592.474 186.432C592.474 187.784 593.562 188.872 594.914 188.872C596.266 188.872 597.354 187.784 597.354 186.432V182.04C597.354 180.688 596.266 179.6 594.914 179.6C593.562 179.6 592.474 180.688 592.474 182.04V186.432ZM605.01 190.24C603.842 190.24 602.938 189.784 602.306 189.024V190H601.034V178.48H602.466V182.144C603.082 181.496 603.938 181.12 605.018 181.12C607.418 181.12 608.882 183.08 608.882 185.672C608.882 188.264 607.426 190.24 605.01 190.24ZM602.306 185.672C602.306 187.568 603.09 188.936 604.834 188.936C606.538 188.936 607.37 187.512 607.37 185.672C607.37 183.848 606.554 182.424 604.794 182.424C603.106 182.424 602.306 183.76 602.306 185.672ZM614.604 190.24C613.532 190.24 612.676 189.856 612.06 189.2V193.84H610.628V181.36H611.9V182.328C612.532 181.568 613.436 181.12 614.612 181.12C617.012 181.12 618.476 183.08 618.476 185.672C618.476 188.264 617.02 190.24 614.604 190.24ZM611.9 185.672C611.9 187.568 612.684 188.936 614.428 188.936C616.132 188.936 616.964 187.512 616.964 185.672C616.964 183.848 616.148 182.424 614.388 182.424C612.7 182.424 611.9 183.76 611.9 185.672Z" fill="white"/>
<path d="M884 184H623.5" stroke="#D3D7E0" stroke-width="2"/>
<path d="M892.62 190V178.48H897.172C897.396 178.48 897.724 178.496 898.02 178.544C899.884 178.832 900.868 180.28 900.868 182.112C900.868 183.632 900.188 184.888 898.884 185.432L901.108 190H899.476L897.412 185.744H894.044V190H892.62ZM894.044 184.392H897.124C897.324 184.392 897.604 184.376 897.844 184.32C898.948 184.072 899.412 183.072 899.412 182.112C899.412 181.152 898.948 180.152 897.844 179.904C897.604 179.848 897.324 179.832 897.124 179.832H894.044V184.392ZM904.878 190V180.056L902.71 181.368V179.776L904.878 178.48H906.326V190H904.878Z" fill="white"/>
<rect x="884" y="172" width="32" height="24" rx="1" stroke="#D3D7E0" stroke-width="2"/>
<path d="M103.12 214V202.48H107.672C107.896 202.48 108.224 202.496 108.52 202.544C110.384 202.832 111.368 204.28 111.368 206.112C111.368 207.632 110.688 208.888 109.384 209.432L111.608 214H109.976L107.912 209.744H104.544V214H103.12ZM104.544 208.392H107.624C107.824 208.392 108.104 208.376 108.344 208.32C109.448 208.072 109.912 207.072 109.912 206.112C109.912 205.152 109.448 204.152 108.344 203.904C108.104 203.848 107.824 203.832 107.624 203.832H104.544V208.392ZM113.05 213.992L113.058 212.712L118.17 208.112C119.018 207.352 119.25 206.688 119.25 205.96C119.25 204.632 118.258 203.6 116.93 203.6C115.554 203.6 114.546 204.696 114.562 205.952H113.106C113.106 203.784 114.738 202.24 116.954 202.24C119.09 202.24 120.706 203.856 120.706 205.976C120.706 207.488 120.138 208.248 118.954 209.296L115.242 212.632H120.706V213.992H113.05Z" fill="white"/>
<rect x="96" y="196" width="32" height="24" rx="1" stroke="#D3D7E0" stroke-width="2"/>
<path d="M368.5 208H128" stroke="#D3D7E0" stroke-width="2"/>
<rect width="57" height="20" transform="translate(368.5 198)" fill="#1D1D29"/>
<path d="M377.171 214.224C375.459 214.224 374.019 213.232 373.531 211.632L374.899 211.24C375.243 212.312 376.139 212.88 377.163 212.864C378.563 212.84 379.467 211.864 379.467 210.456C379.467 209.032 378.531 208.048 377.147 208.048C376.755 208.048 376.315 208.168 375.955 208.352L375.267 207.224L379.011 203.84H373.987V202.48H380.779V203.848L377.667 206.832C379.651 206.944 380.931 208.44 380.931 210.456C380.931 212.664 379.307 214.224 377.171 214.224ZM386.899 214.24C384.659 214.24 383.011 212.592 383.011 210.352V206.128C383.011 203.888 384.659 202.24 386.899 202.24C389.139 202.24 390.787 203.888 390.787 206.128V210.352C390.787 212.592 389.139 214.24 386.899 214.24ZM384.459 210.432C384.459 211.784 385.547 212.872 386.899 212.872C388.251 212.872 389.339 211.784 389.339 210.432V206.04C389.339 204.688 388.251 203.6 386.899 203.6C385.547 203.6 384.459 204.688 384.459 206.04V210.432ZM396.914 214.24C394.674 214.24 393.026 212.592 393.026 210.352V206.128C393.026 203.888 394.674 202.24 396.914 202.24C399.154 202.24 400.802 203.888 400.802 206.128V210.352C400.802 212.592 399.154 214.24 396.914 214.24ZM394.474 210.432C394.474 211.784 395.562 212.872 396.914 212.872C398.266 212.872 399.354 211.784 399.354 210.432V206.04C399.354 204.688 398.266 203.6 396.914 203.6C395.562 203.6 394.474 204.688 394.474 206.04V210.432ZM407.01 214.24C405.842 214.24 404.938 213.784 404.306 213.024V214H403.034V202.48H404.466V206.144C405.082 205.496 405.938 205.12 407.018 205.12C409.418 205.12 410.882 207.08 410.882 209.672C410.882 212.264 409.426 214.24 407.01 214.24ZM404.306 209.672C404.306 211.568 405.09 212.936 406.834 212.936C408.538 212.936 409.37 211.512 409.37 209.672C409.37 207.848 408.554 206.424 406.794 206.424C405.106 206.424 404.306 207.76 404.306 209.672ZM416.604 214.24C415.532 214.24 414.676 213.856 414.06 213.2V217.84H412.628V205.36H413.9V206.328C414.532 205.568 415.436 205.12 416.612 205.12C419.012 205.12 420.476 207.08 420.476 209.672C420.476 212.264 419.02 214.24 416.604 214.24ZM413.9 209.672C413.9 211.568 414.684 212.936 416.428 212.936C418.132 212.936 418.964 211.512 418.964 209.672C418.964 207.848 418.148 206.424 416.388 206.424C414.7 206.424 413.9 207.76 413.9 209.672Z" fill="white"/>
<path d="M666 208H425.5" stroke="#D3D7E0" stroke-width="2"/>
<path d="M676 208L676.707 207.293L677.414 208L676.707 208.707L676 208ZM668.707 216.707L668 217.414L666.586 216L667.293 215.293L668.707 216.707ZM667.293 200.707L666.586 200L668 198.586L668.707 199.293L667.293 200.707ZM666 207L676 207L676 209L666 209L666 207ZM676.707 208.707L668.707 216.707L667.293 215.293L675.293 207.293L676.707 208.707ZM675.293 208.707L667.293 200.707L668.707 199.293L676.707 207.293L675.293 208.707Z" fill="#D3D7E0"/>
<path d="M25.6881 402V389.29H20.7781V387.6H32.3781V389.29H27.4681V402H25.6881ZM39.8903 402.3C35.5803 402.3 33.1703 399.24 33.1703 394.8C33.1703 390.36 35.5803 387.3 39.8903 387.3C43.2203 387.3 45.4103 389.13 46.2303 391.99L44.4203 392.47C43.8303 390.33 42.3203 389 39.8903 389C36.6703 389 35.0703 391.35 35.0503 394.8C35.0303 398.25 36.6703 400.6 39.8903 400.6C42.3203 400.6 43.8303 399.27 44.4203 397.13L46.2303 397.61C45.4103 400.47 43.2203 402.3 39.8903 402.3ZM48.4234 402V387.6H54.1134C54.3934 387.6 54.8034 387.62 55.1734 387.68C57.5034 388.04 58.7334 389.85 58.7334 392.14C58.7334 394.04 57.8834 395.61 56.2534 396.29L59.0334 402H56.9934L54.4134 396.68H50.2034V402H48.4234ZM50.2034 394.99H54.0534C54.3034 394.99 54.6534 394.97 54.9534 394.9C56.3334 394.59 56.9134 393.34 56.9134 392.14C56.9134 390.94 56.3334 389.69 54.9534 389.38C54.6534 389.31 54.3034 389.29 54.0534 389.29H50.2034V394.99ZM65.2298 391.2C65.2298 390.71 65.2998 390.23 65.4498 389.78C65.9798 388.16 67.5098 387.3 69.3698 387.3C71.8598 387.3 73.6098 388.84 73.6098 391.22C73.6098 392.5 73.0998 393.58 72.0498 394.09C73.4398 394.44 74.8398 395.74 74.8398 397.95C74.8398 400.57 72.9898 402.3 69.9398 402.3C68.7098 402.3 67.7198 401.96 67.0098 401.39V406.8H65.2298V391.2ZM67.0498 397.71C67.0498 398.1 67.0798 398.64 67.1998 399.01C67.5298 400.04 68.7698 400.61 70.0198 400.61C71.7898 400.61 73.0298 399.52 73.0298 397.87C73.0298 396.1 71.6098 395.18 69.4198 395.14V393.54C70.7898 393.4 71.7898 392.67 71.7898 391.24C71.7898 389.82 70.7898 388.99 69.4098 388.99C68.5198 388.99 67.6398 389.35 67.2798 390.28C67.0698 390.8 67.0498 391.44 67.0498 391.86V397.71Z" fill="white"/>
<path d="M25.3268 502V489.29H20.4168V487.6H32.0168V489.29H27.1068V502H25.3268ZM39.529 502.3C35.219 502.3 32.809 499.24 32.809 494.8C32.809 490.36 35.219 487.3 39.529 487.3C42.859 487.3 45.049 489.13 45.869 491.99L44.059 492.47C43.469 490.33 41.959 489 39.529 489C36.309 489 34.709 491.35 34.689 494.8C34.669 498.25 36.309 500.6 39.529 500.6C41.959 500.6 43.469 499.27 44.059 497.13L45.869 497.61C45.049 500.47 42.859 502.3 39.529 502.3ZM48.0621 502V487.6H53.7521C54.0321 487.6 54.4421 487.62 54.8121 487.68C57.1421 488.04 58.3721 489.85 58.3721 492.14C58.3721 494.04 57.5221 495.61 55.8921 496.29L58.6721 502H56.6321L54.0521 496.68H49.8421V502H48.0621ZM49.8421 494.99H53.6921C53.9421 494.99 54.2921 494.97 54.5921 494.9C55.9721 494.59 56.5521 493.34 56.5521 492.14C56.5521 490.94 55.9721 489.69 54.5921 489.38C54.2921 489.31 53.9421 489.29 53.6921 489.29H49.8421V494.99ZM69.1485 502.3C66.0885 502.3 64.2785 499.83 64.2785 496.6C64.2785 493.35 66.0985 490.9 69.1985 490.9C70.8485 490.9 72.1085 491.65 72.7985 492.93V491.2H74.3885V502H72.7985V500.24C72.0985 501.54 70.7885 502.3 69.1485 502.3ZM66.1685 496.6C66.1685 498.88 67.1985 500.67 69.3685 500.67C71.5085 500.67 72.4985 498.96 72.4985 496.59C72.4985 494.2 71.4985 492.53 69.3885 492.53C67.2785 492.53 66.1685 494.19 66.1685 496.6Z" fill="white"/>
<path d="M25.6881 402V389.29H20.7781V387.6H32.3781V389.29H27.4681V402H25.6881ZM39.8903 402.3C35.5803 402.3 33.1703 399.24 33.1703 394.8C33.1703 390.36 35.5803 387.3 39.8903 387.3C43.2203 387.3 45.4103 389.13 46.2303 391.99L44.4203 392.47C43.8303 390.33 42.3203 389 39.8903 389C36.6703 389 35.0703 391.35 35.0503 394.8C35.0303 398.25 36.6703 400.6 39.8903 400.6C42.3203 400.6 43.8303 399.27 44.4203 397.13L46.2303 397.61C45.4103 400.47 43.2203 402.3 39.8903 402.3ZM48.4234 402V387.6H54.1134C54.3934 387.6 54.8034 387.62 55.1734 387.68C57.5034 388.04 58.7334 389.85 58.7334 392.14C58.7334 394.04 57.8834 395.61 56.2534 396.29L59.0334 402H56.9934L54.4134 396.68H50.2034V402H48.4234ZM50.2034 394.99H54.0534C54.3034 394.99 54.6534 394.97 54.9534 394.9C56.3334 394.59 56.9134 393.34 56.9134 392.14C56.9134 390.94 56.3334 389.69 54.9534 389.38C54.6534 389.31 54.3034 389.29 54.0534 389.29H50.2034V394.99ZM65.2298 391.2C65.2298 390.71 65.2998 390.23 65.4498 389.78C65.9798 388.16 67.5098 387.3 69.3698 387.3C71.8598 387.3 73.6098 388.84 73.6098 391.22C73.6098 392.5 73.0998 393.58 72.0498 394.09C73.4398 394.44 74.8398 395.74 74.8398 397.95C74.8398 400.57 72.9898 402.3 69.9398 402.3C68.7098 402.3 67.7198 401.96 67.0098 401.39V406.8H65.2298V391.2ZM67.0498 397.71C67.0498 398.1 67.0798 398.64 67.1998 399.01C67.5298 400.04 68.7698 400.61 70.0198 400.61C71.7898 400.61 73.0298 399.52 73.0298 397.87C73.0298 396.1 71.6098 395.18 69.4198 395.14V393.54C70.7898 393.4 71.7898 392.67 71.7898 391.24C71.7898 389.82 70.7898 388.99 69.4098 388.99C68.5198 388.99 67.6398 389.35 67.2798 390.28C67.0698 390.8 67.0498 391.44 67.0498 391.86V397.71Z" fill="white"/>
<path d="M25.3268 502V489.29H20.4168V487.6H32.0168V489.29H27.1068V502H25.3268ZM39.529 502.3C35.219 502.3 32.809 499.24 32.809 494.8C32.809 490.36 35.219 487.3 39.529 487.3C42.859 487.3 45.049 489.13 45.869 491.99L44.059 492.47C43.469 490.33 41.959 489 39.529 489C36.309 489 34.709 491.35 34.689 494.8C34.669 498.25 36.309 500.6 39.529 500.6C41.959 500.6 43.469 499.27 44.059 497.13L45.869 497.61C45.049 500.47 42.859 502.3 39.529 502.3ZM48.0621 502V487.6H53.7521C54.0321 487.6 54.4421 487.62 54.8121 487.68C57.1421 488.04 58.3721 489.85 58.3721 492.14C58.3721 494.04 57.5221 495.61 55.8921 496.29L58.6721 502H56.6321L54.0521 496.68H49.8421V502H48.0621ZM49.8421 494.99H53.6921C53.9421 494.99 54.2921 494.97 54.5921 494.9C55.9721 494.59 56.5521 493.34 56.5521 492.14C56.5521 490.94 55.9721 489.69 54.5921 489.38C54.2921 489.31 53.9421 489.29 53.6921 489.29H49.8421V494.99ZM69.1485 502.3C66.0885 502.3 64.2785 499.83 64.2785 496.6C64.2785 493.35 66.0985 490.9 69.1985 490.9C70.8485 490.9 72.1085 491.65 72.7985 492.93V491.2H74.3885V502H72.7985V500.24C72.0985 501.54 70.7885 502.3 69.1485 502.3ZM66.1685 496.6C66.1685 498.88 67.1985 500.67 69.3685 500.67C71.5085 500.67 72.4985 498.96 72.4985 496.59C72.4985 494.2 71.4985 492.53 69.3885 492.53C67.2785 492.53 66.1685 494.19 66.1685 496.6Z" fill="white"/>
<defs>
<filter id="filter0_i_6910_5298" x="95" y="107" width="32" height="54" filterUnits="userSpaceOnUse" color-interpolation-filters="sRGB">
<feFlood flood-opacity="0" result="BackgroundImageFix"/>
<feBlend mode="normal" in="SourceGraphic" in2="BackgroundImageFix" result="shape"/>
<feColorMatrix in="SourceAlpha" type="matrix" values="0 0 0 0 0 0 0 0 0 0 0 0 0 0 0 0 0 0 127 0" result="hardAlpha"/>
<feOffset dx="-8" dy="-4"/>
<feComposite in2="hardAlpha" operator="arithmetic" k2="-1" k3="1"/>
<feColorMatrix type="matrix" values="0 0 0 0 0.0666667 0 0 0 0 0.0196078 0 0 0 0 0.160784 0 0 0 0.16 0"/>
<feBlend mode="normal" in2="shape" result="effect1_innerShadow_6910_5298"/>
</filter>
<filter id="filter1_i_6910_5298" x="125" y="107" width="362" height="54" filterUnits="userSpaceOnUse" color-interpolation-filters="sRGB">
<feFlood flood-opacity="0" result="BackgroundImageFix"/>
<feBlend mode="normal" in="SourceGraphic" in2="BackgroundImageFix" result="shape"/>
<feColorMatrix in="SourceAlpha" type="matrix" values="0 0 0 0 0 0 0 0 0 0 0 0 0 0 0 0 0 0 127 0" result="hardAlpha"/>
<feOffset dx="-8" dy="-4"/>
<feComposite in2="hardAlpha" operator="arithmetic" k2="-1" k3="1"/>
<feColorMatrix type="matrix" values="0 0 0 0 0.0666667 0 0 0 0 0.0196078 0 0 0 0 0.160784 0 0 0 0.16 0"/>
<feBlend mode="normal" in2="shape" result="effect1_innerShadow_6910_5298"/>
</filter>
<filter id="filter2_i_6910_5298" x="485" y="107" width="32" height="54" filterUnits="userSpaceOnUse" color-interpolation-filters="sRGB">
<feFlood flood-opacity="0" result="BackgroundImageFix"/>
<feBlend mode="normal" in="SourceGraphic" in2="BackgroundImageFix" result="shape"/>
<feColorMatrix in="SourceAlpha" type="matrix" values="0 0 0 0 0 0 0 0 0 0 0 0 0 0 0 0 0 0 127 0" result="hardAlpha"/>
<feOffset dx="-8" dy="-4"/>
<feComposite in2="hardAlpha" operator="arithmetic" k2="-1" k3="1"/>
<feColorMatrix type="matrix" values="0 0 0 0 0.0666667 0 0 0 0 0.0196078 0 0 0 0 0.160784 0 0 0 0.16 0"/>
<feBlend mode="normal" in2="shape" result="effect1_innerShadow_6910_5298"/>
</filter>
<filter id="filter3_i_6910_5298" x="551" y="107" width="32" height="54" filterUnits="userSpaceOnUse" color-interpolation-filters="sRGB">
<feFlood flood-opacity="0" result="BackgroundImageFix"/>
<feBlend mode="normal" in="SourceGraphic" in2="BackgroundImageFix" result="shape"/>
<feColorMatrix in="SourceAlpha" type="matrix" values="0 0 0 0 0 0 0 0 0 0 0 0 0 0 0 0 0 0 127 0" result="hardAlpha"/>
<feOffset dx="-8" dy="-4"/>
<feComposite in2="hardAlpha" operator="arithmetic" k2="-1" k3="1"/>
<feColorMatrix type="matrix" values="0 0 0 0 0.0666667 0 0 0 0 0.0196078 0 0 0 0 0.160784 0 0 0 0.16 0"/>
<feBlend mode="normal" in2="shape" result="effect1_innerShadow_6910_5298"/>
</filter>
<filter id="filter4_i_6910_5298" x="515" y="107" width="38" height="54" filterUnits="userSpaceOnUse" color-interpolation-filters="sRGB">
<feFlood flood-opacity="0" result="BackgroundImageFix"/>
<feBlend mode="normal" in="SourceGraphic" in2="BackgroundImageFix" result="shape"/>
<feColorMatrix in="SourceAlpha" type="matrix" values="0 0 0 0 0 0 0 0 0 0 0 0 0 0 0 0 0 0 127 0" result="hardAlpha"/>
<feOffset dx="-8" dy="-4"/>
<feComposite in2="hardAlpha" operator="arithmetic" k2="-1" k3="1"/>
<feColorMatrix type="matrix" values="0 0 0 0 0.0666667 0 0 0 0 0.0196078 0 0 0 0 0.160784 0 0 0 0.16 0"/>
<feBlend mode="normal" in2="shape" result="effect1_innerShadow_6910_5298"/>
</filter>
<filter id="filter5_i_6910_5298" x="581" y="107" width="98" height="54" filterUnits="userSpaceOnUse" color-interpolation-filters="sRGB">
<feFlood flood-opacity="0" result="BackgroundImageFix"/>
<feBlend mode="normal" in="SourceGraphic" in2="BackgroundImageFix" result="shape"/>
<feColorMatrix in="SourceAlpha" type="matrix" values="0 0 0 0 0 0 0 0 0 0 0 0 0 0 0 0 0 0 127 0" result="hardAlpha"/>
<feOffset dx="-8" dy="-4"/>
<feComposite in2="hardAlpha" operator="arithmetic" k2="-1" k3="1"/>
<feColorMatrix type="matrix" values="0 0 0 0 0.0666667 0 0 0 0 0.0196078 0 0 0 0 0.160784 0 0 0 0.16 0"/>
<feBlend mode="normal" in2="shape" result="effect1_innerShadow_6910_5298"/>
</filter>
<filter id="filter6_i_6910_5298" x="677" y="107" width="146" height="54" filterUnits="userSpaceOnUse" color-interpolation-filters="sRGB">
<feFlood flood-opacity="0" result="BackgroundImageFix"/>
<feBlend mode="normal" in="SourceGraphic" in2="BackgroundImageFix" result="shape"/>
<feColorMatrix in="SourceAlpha" type="matrix" values="0 0 0 0 0 0 0 0 0 0 0 0 0 0 0 0 0 0 127 0" result="hardAlpha"/>
<feOffset dx="-8" dy="-4"/>
<feComposite in2="hardAlpha" operator="arithmetic" k2="-1" k3="1"/>
<feColorMatrix type="matrix" values="0 0 0 0 0.0666667 0 0 0 0 0.0196078 0 0 0 0 0.160784 0 0 0 0.16 0"/>
<feBlend mode="normal" in2="shape" result="effect1_innerShadow_6910_5298"/>
</filter>
<filter id="filter7_i_6910_5298" x="821" y="107" width="32" height="54" filterUnits="userSpaceOnUse" color-interpolation-filters="sRGB">
<feFlood flood-opacity="0" result="BackgroundImageFix"/>
<feBlend mode="normal" in="SourceGraphic" in2="BackgroundImageFix" result="shape"/>
<feColorMatrix in="SourceAlpha" type="matrix" values="0 0 0 0 0 0 0 0 0 0 0 0 0 0 0 0 0 0 127 0" result="hardAlpha"/>
<feOffset dx="-8" dy="-4"/>
<feComposite in2="hardAlpha" operator="arithmetic" k2="-1" k3="1"/>
<feColorMatrix type="matrix" values="0 0 0 0 0.0666667 0 0 0 0 0.0196078 0 0 0 0 0.160784 0 0 0 0.16 0"/>
<feBlend mode="normal" in2="shape" result="effect1_innerShadow_6910_5298"/>
</filter>
<filter id="filter8_i_6910_5298" x="851" y="107" width="66" height="54" filterUnits="userSpaceOnUse" color-interpolation-filters="sRGB">
<feFlood flood-opacity="0" result="BackgroundImageFix"/>
<feBlend mode="normal" in="SourceGraphic" in2="BackgroundImageFix" result="shape"/>
<feColorMatrix in="SourceAlpha" type="matrix" values="0 0 0 0 0 0 0 0 0 0 0 0 0 0 0 0 0 0 127 0" result="hardAlpha"/>
<feOffset dx="-8" dy="-4"/>
<feComposite in2="hardAlpha" operator="arithmetic" k2="-1" k3="1"/>
<feColorMatrix type="matrix" values="0 0 0 0 0.0666667 0 0 0 0 0.0196078 0 0 0 0 0.160784 0 0 0 0.16 0"/>
<feBlend mode="normal" in2="shape" result="effect1_innerShadow_6910_5298"/>
</filter>
<filter id="filter9_i_6910_5298" x="95" y="267" width="32" height="54" filterUnits="userSpaceOnUse" color-interpolation-filters="sRGB">
<feFlood flood-opacity="0" result="BackgroundImageFix"/>
<feBlend mode="normal" in="SourceGraphic" in2="BackgroundImageFix" result="shape"/>
<feColorMatrix in="SourceAlpha" type="matrix" values="0 0 0 0 0 0 0 0 0 0 0 0 0 0 0 0 0 0 127 0" result="hardAlpha"/>
<feOffset dx="-8" dy="-4"/>
<feComposite in2="hardAlpha" operator="arithmetic" k2="-1" k3="1"/>
<feColorMatrix type="matrix" values="0 0 0 0 0.0666667 0 0 0 0 0.0196078 0 0 0 0 0.160784 0 0 0 0.16 0"/>
<feBlend mode="normal" in2="shape" result="effect1_innerShadow_6910_5298"/>
</filter>
<filter id="filter10_i_6910_5298" x="125" y="267" width="362" height="54" filterUnits="userSpaceOnUse" color-interpolation-filters="sRGB">
<feFlood flood-opacity="0" result="BackgroundImageFix"/>
<feBlend mode="normal" in="SourceGraphic" in2="BackgroundImageFix" result="shape"/>
<feColorMatrix in="SourceAlpha" type="matrix" values="0 0 0 0 0 0 0 0 0 0 0 0 0 0 0 0 0 0 127 0" result="hardAlpha"/>
<feOffset dx="-8" dy="-4"/>
<feComposite in2="hardAlpha" operator="arithmetic" k2="-1" k3="1"/>
<feColorMatrix type="matrix" values="0 0 0 0 0.0666667 0 0 0 0 0.0196078 0 0 0 0 0.160784 0 0 0 0.16 0"/>
<feBlend mode="normal" in2="shape" result="effect1_innerShadow_6910_5298"/>
</filter>
<filter id="filter11_i_6910_5298" x="485" y="267" width="32" height="54" filterUnits="userSpaceOnUse" color-interpolation-filters="sRGB">
<feFlood flood-opacity="0" result="BackgroundImageFix"/>
<feBlend mode="normal" in="SourceGraphic" in2="BackgroundImageFix" result="shape"/>
<feColorMatrix in="SourceAlpha" type="matrix" values="0 0 0 0 0 0 0 0 0 0 0 0 0 0 0 0 0 0 127 0" result="hardAlpha"/>
<feOffset dx="-8" dy="-4"/>
<feComposite in2="hardAlpha" operator="arithmetic" k2="-1" k3="1"/>
<feColorMatrix type="matrix" values="0 0 0 0 0.0666667 0 0 0 0 0.0196078 0 0 0 0 0.160784 0 0 0 0.16 0"/>
<feBlend mode="normal" in2="shape" result="effect1_innerShadow_6910_5298"/>
</filter>
<filter id="filter12_i_6910_5298" x="515" y="267" width="98" height="54" filterUnits="userSpaceOnUse" color-interpolation-filters="sRGB">
<feFlood flood-opacity="0" result="BackgroundImageFix"/>
<feBlend mode="normal" in="SourceGraphic" in2="BackgroundImageFix" result="shape"/>
<feColorMatrix in="SourceAlpha" type="matrix" values="0 0 0 0 0 0 0 0 0 0 0 0 0 0 0 0 0 0 127 0" result="hardAlpha"/>
<feOffset dx="-8" dy="-4"/>
<feComposite in2="hardAlpha" operator="arithmetic" k2="-1" k3="1"/>
<feColorMatrix type="matrix" values="0 0 0 0 0.0666667 0 0 0 0 0.0196078 0 0 0 0 0.160784 0 0 0 0.16 0"/>
<feBlend mode="normal" in2="shape" result="effect1_innerShadow_6910_5298"/>
</filter>
<filter id="filter13_i_6910_5298" x="611" y="267" width="146" height="54" filterUnits="userSpaceOnUse" color-interpolation-filters="sRGB">
<feFlood flood-opacity="0" result="BackgroundImageFix"/>
<feBlend mode="normal" in="SourceGraphic" in2="BackgroundImageFix" result="shape"/>
<feColorMatrix in="SourceAlpha" type="matrix" values="0 0 0 0 0 0 0 0 0 0 0 0 0 0 0 0 0 0 127 0" result="hardAlpha"/>
<feOffset dx="-8" dy="-4"/>
<feComposite in2="hardAlpha" operator="arithmetic" k2="-1" k3="1"/>
<feColorMatrix type="matrix" values="0 0 0 0 0.0666667 0 0 0 0 0.0196078 0 0 0 0 0.160784 0 0 0 0.16 0"/>
<feBlend mode="normal" in2="shape" result="effect1_innerShadow_6910_5298"/>
</filter>
<filter id="filter14_i_6910_5298" x="755" y="267" width="32" height="54" filterUnits="userSpaceOnUse" color-interpolation-filters="sRGB">
<feFlood flood-opacity="0" result="BackgroundImageFix"/>
<feBlend mode="normal" in="SourceGraphic" in2="BackgroundImageFix" result="shape"/>
<feColorMatrix in="SourceAlpha" type="matrix" values="0 0 0 0 0 0 0 0 0 0 0 0 0 0 0 0 0 0 127 0" result="hardAlpha"/>
<feOffset dx="-8" dy="-4"/>
<feComposite in2="hardAlpha" operator="arithmetic" k2="-1" k3="1"/>
<feColorMatrix type="matrix" values="0 0 0 0 0.0666667 0 0 0 0 0.0196078 0 0 0 0 0.160784 0 0 0 0.16 0"/>
<feBlend mode="normal" in2="shape" result="effect1_innerShadow_6910_5298"/>
</filter>
<filter id="filter15_i_6910_5298" x="785" y="267" width="66" height="54" filterUnits="userSpaceOnUse" color-interpolation-filters="sRGB">
<feFlood flood-opacity="0" result="BackgroundImageFix"/>
<feBlend mode="normal" in="SourceGraphic" in2="BackgroundImageFix" result="shape"/>
<feColorMatrix in="SourceAlpha" type="matrix" values="0 0 0 0 0 0 0 0 0 0 0 0 0 0 0 0 0 0 127 0" result="hardAlpha"/>
<feOffset dx="-8" dy="-4"/>
<feComposite in2="hardAlpha" operator="arithmetic" k2="-1" k3="1"/>
<feColorMatrix type="matrix" values="0 0 0 0 0.0666667 0 0 0 0 0.0196078 0 0 0 0 0.160784 0 0 0 0.16 0"/>
<feBlend mode="normal" in2="shape" result="effect1_innerShadow_6910_5298"/>
</filter>
<filter id="filter16_i_6910_5298" x="95" y="367" width="32" height="54" filterUnits="userSpaceOnUse" color-interpolation-filters="sRGB">
<feFlood flood-opacity="0" result="BackgroundImageFix"/>
<feBlend mode="normal" in="SourceGraphic" in2="BackgroundImageFix" result="shape"/>
<feColorMatrix in="SourceAlpha" type="matrix" values="0 0 0 0 0 0 0 0 0 0 0 0 0 0 0 0 0 0 127 0" result="hardAlpha"/>
<feOffset dx="-8" dy="-4"/>
<feComposite in2="hardAlpha" operator="arithmetic" k2="-1" k3="1"/>
<feColorMatrix type="matrix" values="0 0 0 0 0.0666667 0 0 0 0 0.0196078 0 0 0 0 0.160784 0 0 0 0.16 0"/>
<feBlend mode="normal" in2="shape" result="effect1_innerShadow_6910_5298"/>
</filter>
<filter id="filter17_i_6910_5298" x="125" y="367" width="362" height="54" filterUnits="userSpaceOnUse" color-interpolation-filters="sRGB">
<feFlood flood-opacity="0" result="BackgroundImageFix"/>
<feBlend mode="normal" in="SourceGraphic" in2="BackgroundImageFix" result="shape"/>
<feColorMatrix in="SourceAlpha" type="matrix" values="0 0 0 0 0 0 0 0 0 0 0 0 0 0 0 0 0 0 127 0" result="hardAlpha"/>
<feOffset dx="-8" dy="-4"/>
<feComposite in2="hardAlpha" operator="arithmetic" k2="-1" k3="1"/>
<feColorMatrix type="matrix" values="0 0 0 0 0.0666667 0 0 0 0 0.0196078 0 0 0 0 0.160784 0 0 0 0.16 0"/>
<feBlend mode="normal" in2="shape" result="effect1_innerShadow_6910_5298"/>
</filter>
<filter id="filter18_i_6910_5298" x="485" y="367" width="32" height="54" filterUnits="userSpaceOnUse" color-interpolation-filters="sRGB">
<feFlood flood-opacity="0" result="BackgroundImageFix"/>
<feBlend mode="normal" in="SourceGraphic" in2="BackgroundImageFix" result="shape"/>
<feColorMatrix in="SourceAlpha" type="matrix" values="0 0 0 0 0 0 0 0 0 0 0 0 0 0 0 0 0 0 127 0" result="hardAlpha"/>
<feOffset dx="-8" dy="-4"/>
<feComposite in2="hardAlpha" operator="arithmetic" k2="-1" k3="1"/>
<feColorMatrix type="matrix" values="0 0 0 0 0.0666667 0 0 0 0 0.0196078 0 0 0 0 0.160784 0 0 0 0.16 0"/>
<feBlend mode="normal" in2="shape" result="effect1_innerShadow_6910_5298"/>
</filter>
<filter id="filter19_i_6910_5298" x="551" y="367" width="32" height="54" filterUnits="userSpaceOnUse" color-interpolation-filters="sRGB">
<feFlood flood-opacity="0" result="BackgroundImageFix"/>
<feBlend mode="normal" in="SourceGraphic" in2="BackgroundImageFix" result="shape"/>
<feColorMatrix in="SourceAlpha" type="matrix" values="0 0 0 0 0 0 0 0 0 0 0 0 0 0 0 0 0 0 127 0" result="hardAlpha"/>
<feOffset dx="-8" dy="-4"/>
<feComposite in2="hardAlpha" operator="arithmetic" k2="-1" k3="1"/>
<feColorMatrix type="matrix" values="0 0 0 0 0.0666667 0 0 0 0 0.0196078 0 0 0 0 0.160784 0 0 0 0.16 0"/>
<feBlend mode="normal" in2="shape" result="effect1_innerShadow_6910_5298"/>
</filter>
<filter id="filter20_i_6910_5298" x="515" y="367" width="38" height="54" filterUnits="userSpaceOnUse" color-interpolation-filters="sRGB">
<feFlood flood-opacity="0" result="BackgroundImageFix"/>
<feBlend mode="normal" in="SourceGraphic" in2="BackgroundImageFix" result="shape"/>
<feColorMatrix in="SourceAlpha" type="matrix" values="0 0 0 0 0 0 0 0 0 0 0 0 0 0 0 0 0 0 127 0" result="hardAlpha"/>
<feOffset dx="-8" dy="-4"/>
<feComposite in2="hardAlpha" operator="arithmetic" k2="-1" k3="1"/>
<feColorMatrix type="matrix" values="0 0 0 0 0.0666667 0 0 0 0 0.0196078 0 0 0 0 0.160784 0 0 0 0.16 0"/>
<feBlend mode="normal" in2="shape" result="effect1_innerShadow_6910_5298"/>
</filter>
<filter id="filter21_i_6910_5298" x="581" y="367" width="98" height="54" filterUnits="userSpaceOnUse" color-interpolation-filters="sRGB">
<feFlood flood-opacity="0" result="BackgroundImageFix"/>
<feBlend mode="normal" in="SourceGraphic" in2="BackgroundImageFix" result="shape"/>
<feColorMatrix in="SourceAlpha" type="matrix" values="0 0 0 0 0 0 0 0 0 0 0 0 0 0 0 0 0 0 127 0" result="hardAlpha"/>
<feOffset dx="-8" dy="-4"/>
<feComposite in2="hardAlpha" operator="arithmetic" k2="-1" k3="1"/>
<feColorMatrix type="matrix" values="0 0 0 0 0.0666667 0 0 0 0 0.0196078 0 0 0 0 0.160784 0 0 0 0.16 0"/>
<feBlend mode="normal" in2="shape" result="effect1_innerShadow_6910_5298"/>
</filter>
<filter id="filter22_i_6910_5298" x="677" y="367" width="146" height="54" filterUnits="userSpaceOnUse" color-interpolation-filters="sRGB">
<feFlood flood-opacity="0" result="BackgroundImageFix"/>
<feBlend mode="normal" in="SourceGraphic" in2="BackgroundImageFix" result="shape"/>
<feColorMatrix in="SourceAlpha" type="matrix" values="0 0 0 0 0 0 0 0 0 0 0 0 0 0 0 0 0 0 127 0" result="hardAlpha"/>
<feOffset dx="-8" dy="-4"/>
<feComposite in2="hardAlpha" operator="arithmetic" k2="-1" k3="1"/>
<feColorMatrix type="matrix" values="0 0 0 0 0.0666667 0 0 0 0 0.0196078 0 0 0 0 0.160784 0 0 0 0.16 0"/>
<feBlend mode="normal" in2="shape" result="effect1_innerShadow_6910_5298"/>
</filter>
<filter id="filter23_i_6910_5298" x="821" y="367" width="32" height="54" filterUnits="userSpaceOnUse" color-interpolation-filters="sRGB">
<feFlood flood-opacity="0" result="BackgroundImageFix"/>
<feBlend mode="normal" in="SourceGraphic" in2="BackgroundImageFix" result="shape"/>
<feColorMatrix in="SourceAlpha" type="matrix" values="0 0 0 0 0 0 0 0 0 0 0 0 0 0 0 0 0 0 127 0" result="hardAlpha"/>
<feOffset dx="-8" dy="-4"/>
<feComposite in2="hardAlpha" operator="arithmetic" k2="-1" k3="1"/>
<feColorMatrix type="matrix" values="0 0 0 0 0.0666667 0 0 0 0 0.0196078 0 0 0 0 0.160784 0 0 0 0.16 0"/>
<feBlend mode="normal" in2="shape" result="effect1_innerShadow_6910_5298"/>
</filter>
<filter id="filter24_i_6910_5298" x="851" y="367" width="66" height="54" filterUnits="userSpaceOnUse" color-interpolation-filters="sRGB">
<feFlood flood-opacity="0" result="BackgroundImageFix"/>
<feBlend mode="normal" in="SourceGraphic" in2="BackgroundImageFix" result="shape"/>
<feColorMatrix in="SourceAlpha" type="matrix" values="0 0 0 0 0 0 0 0 0 0 0 0 0 0 0 0 0 0 127 0" result="hardAlpha"/>
<feOffset dx="-8" dy="-4"/>
<feComposite in2="hardAlpha" operator="arithmetic" k2="-1" k3="1"/>
<feColorMatrix type="matrix" values="0 0 0 0 0.0666667 0 0 0 0 0.0196078 0 0 0 0 0.160784 0 0 0 0.16 0"/>
<feBlend mode="normal" in2="shape" result="effect1_innerShadow_6910_5298"/>
</filter>
<filter id="filter25_i_6910_5298" x="95" y="467" width="32" height="54" filterUnits="userSpaceOnUse" color-interpolation-filters="sRGB">
<feFlood flood-opacity="0" result="BackgroundImageFix"/>
<feBlend mode="normal" in="SourceGraphic" in2="BackgroundImageFix" result="shape"/>
<feColorMatrix in="SourceAlpha" type="matrix" values="0 0 0 0 0 0 0 0 0 0 0 0 0 0 0 0 0 0 127 0" result="hardAlpha"/>
<feOffset dx="-8" dy="-4"/>
<feComposite in2="hardAlpha" operator="arithmetic" k2="-1" k3="1"/>
<feColorMatrix type="matrix" values="0 0 0 0 0.0666667 0 0 0 0 0.0196078 0 0 0 0 0.160784 0 0 0 0.16 0"/>
<feBlend mode="normal" in2="shape" result="effect1_innerShadow_6910_5298"/>
</filter>
<filter id="filter26_i_6910_5298" x="125" y="467" width="362" height="54" filterUnits="userSpaceOnUse" color-interpolation-filters="sRGB">
<feFlood flood-opacity="0" result="BackgroundImageFix"/>
<feBlend mode="normal" in="SourceGraphic" in2="BackgroundImageFix" result="shape"/>
<feColorMatrix in="SourceAlpha" type="matrix" values="0 0 0 0 0 0 0 0 0 0 0 0 0 0 0 0 0 0 127 0" result="hardAlpha"/>
<feOffset dx="-8" dy="-4"/>
<feComposite in2="hardAlpha" operator="arithmetic" k2="-1" k3="1"/>
<feColorMatrix type="matrix" values="0 0 0 0 0.0666667 0 0 0 0 0.0196078 0 0 0 0 0.160784 0 0 0 0.16 0"/>
<feBlend mode="normal" in2="shape" result="effect1_innerShadow_6910_5298"/>
</filter>
<filter id="filter27_i_6910_5298" x="485" y="467" width="32" height="54" filterUnits="userSpaceOnUse" color-interpolation-filters="sRGB">
<feFlood flood-opacity="0" result="BackgroundImageFix"/>
<feBlend mode="normal" in="SourceGraphic" in2="BackgroundImageFix" result="shape"/>
<feColorMatrix in="SourceAlpha" type="matrix" values="0 0 0 0 0 0 0 0 0 0 0 0 0 0 0 0 0 0 127 0" result="hardAlpha"/>
<feOffset dx="-8" dy="-4"/>
<feComposite in2="hardAlpha" operator="arithmetic" k2="-1" k3="1"/>
<feColorMatrix type="matrix" values="0 0 0 0 0.0666667 0 0 0 0 0.0196078 0 0 0 0 0.160784 0 0 0 0.16 0"/>
<feBlend mode="normal" in2="shape" result="effect1_innerShadow_6910_5298"/>
</filter>
<filter id="filter28_i_6910_5298" x="515" y="467" width="98" height="54" filterUnits="userSpaceOnUse" color-interpolation-filters="sRGB">
<feFlood flood-opacity="0" result="BackgroundImageFix"/>
<feBlend mode="normal" in="SourceGraphic" in2="BackgroundImageFix" result="shape"/>
<feColorMatrix in="SourceAlpha" type="matrix" values="0 0 0 0 0 0 0 0 0 0 0 0 0 0 0 0 0 0 127 0" result="hardAlpha"/>
<feOffset dx="-8" dy="-4"/>
<feComposite in2="hardAlpha" operator="arithmetic" k2="-1" k3="1"/>
<feColorMatrix type="matrix" values="0 0 0 0 0.0666667 0 0 0 0 0.0196078 0 0 0 0 0.160784 0 0 0 0.16 0"/>
<feBlend mode="normal" in2="shape" result="effect1_innerShadow_6910_5298"/>
</filter>
<filter id="filter29_i_6910_5298" x="611" y="467" width="146" height="54" filterUnits="userSpaceOnUse" color-interpolation-filters="sRGB">
<feFlood flood-opacity="0" result="BackgroundImageFix"/>
<feBlend mode="normal" in="SourceGraphic" in2="BackgroundImageFix" result="shape"/>
<feColorMatrix in="SourceAlpha" type="matrix" values="0 0 0 0 0 0 0 0 0 0 0 0 0 0 0 0 0 0 127 0" result="hardAlpha"/>
<feOffset dx="-8" dy="-4"/>
<feComposite in2="hardAlpha" operator="arithmetic" k2="-1" k3="1"/>
<feColorMatrix type="matrix" values="0 0 0 0 0.0666667 0 0 0 0 0.0196078 0 0 0 0 0.160784 0 0 0 0.16 0"/>
<feBlend mode="normal" in2="shape" result="effect1_innerShadow_6910_5298"/>
</filter>
<filter id="filter30_i_6910_5298" x="755" y="467" width="32" height="54" filterUnits="userSpaceOnUse" color-interpolation-filters="sRGB">
<feFlood flood-opacity="0" result="BackgroundImageFix"/>
<feBlend mode="normal" in="SourceGraphic" in2="BackgroundImageFix" result="shape"/>
<feColorMatrix in="SourceAlpha" type="matrix" values="0 0 0 0 0 0 0 0 0 0 0 0 0 0 0 0 0 0 127 0" result="hardAlpha"/>
<feOffset dx="-8" dy="-4"/>
<feComposite in2="hardAlpha" operator="arithmetic" k2="-1" k3="1"/>
<feColorMatrix type="matrix" values="0 0 0 0 0.0666667 0 0 0 0 0.0196078 0 0 0 0 0.160784 0 0 0 0.16 0"/>
<feBlend mode="normal" in2="shape" result="effect1_innerShadow_6910_5298"/>
</filter>
<filter id="filter31_i_6910_5298" x="785" y="467" width="66" height="54" filterUnits="userSpaceOnUse" color-interpolation-filters="sRGB">
<feFlood flood-opacity="0" result="BackgroundImageFix"/>
<feBlend mode="normal" in="SourceGraphic" in2="BackgroundImageFix" result="shape"/>
<feColorMatrix in="SourceAlpha" type="matrix" values="0 0 0 0 0 0 0 0 0 0 0 0 0 0 0 0 0 0 127 0" result="hardAlpha"/>
<feOffset dx="-8" dy="-4"/>
<feComposite in2="hardAlpha" operator="arithmetic" k2="-1" k3="1"/>
<feColorMatrix type="matrix" values="0 0 0 0 0.0666667 0 0 0 0 0.0196078 0 0 0 0 0.160784 0 0 0 0.16 0"/>
<feBlend mode="normal" in2="shape" result="effect1_innerShadow_6910_5298"/>
</filter>
</defs>
</svg>
