<svg width="960" height="328" viewBox="0 0 960 328" fill="none" xmlns="http://www.w3.org/2000/svg">
    <rect width="960" height="328" fill="#1D1D29"/>
    <path d="M576 184L575.293 184.707L574.586 184L575.293 183.293L576 184ZM583.293 175.293L584 174.586L585.414 176L584.707 176.707L583.293 175.293ZM584.707 191.293L585.414 192L584 193.414L583.293 192.707L584.707 191.293ZM586 185L576 185L576 183L586 183L586 185ZM575.293 183.293L583.293 175.293L584.707 176.707L576.707 184.707L575.293 183.293ZM576.707 183.293L584.707 191.293L583.293 192.707L575.293 184.707L576.707 183.293Z" fill="#D3D7E0"/>
    <path d="M692.5 184H586" stroke="#D3D7E0" stroke-width="2"/>
    <rect width="57" height="20" transform="translate(692.5 174)" fill="#1D1D29"/>
    <path d="M701.636 190H703.084V178.48H701.636L699.468 179.776V181.368L701.636 180.056V190ZM709.536 190.24C711.68 190.24 713.496 188.504 713.496 186.376C713.496 184.232 711.872 182.584 709.736 182.584C708.96 182.584 708.184 182.848 707.584 183.328L707.792 179.832H712.696V178.48H706.512L706.16 184.504L707.424 184.984C707.84 184.384 708.56 183.896 709.576 183.896C710.92 183.896 712.064 184.984 712.064 186.376C712.064 187.728 710.976 188.856 709.576 188.856C708.504 188.856 707.464 188.144 707.176 187.008L705.808 187.376C706.272 189.056 707.752 190.24 709.536 190.24ZM719.297 190.24C721.537 190.24 723.185 188.592 723.185 186.352V182.128C723.185 179.888 721.537 178.24 719.297 178.24C717.057 178.24 715.409 179.888 715.409 182.128V186.352C715.409 188.592 717.057 190.24 719.297 190.24ZM716.857 186.432V182.04C716.857 180.688 717.945 179.6 719.297 179.6C720.649 179.6 721.737 180.688 721.737 182.04V186.432C721.737 187.784 720.649 188.872 719.297 188.872C717.945 188.872 716.857 187.784 716.857 186.432ZM729.393 190.24C731.809 190.24 733.265 188.264 733.265 185.672C733.265 183.08 731.801 181.12 729.401 181.12C728.321 181.12 727.465 181.496 726.849 182.144V178.48H725.417V190H726.689V189.024C727.321 189.784 728.225 190.24 729.393 190.24ZM726.689 185.672C726.689 183.76 727.489 182.424 729.177 182.424C730.937 182.424 731.753 183.848 731.753 185.672C731.753 187.512 730.921 188.936 729.217 188.936C727.473 188.936 726.689 187.568 726.689 185.672ZM738.986 190.24C741.402 190.24 742.858 188.264 742.858 185.672C742.858 183.08 741.394 181.12 738.994 181.12C737.818 181.12 736.914 181.568 736.282 182.328V181.36H735.01V193.84H736.442V189.2C737.058 189.856 737.914 190.24 738.986 190.24ZM736.282 185.672C736.282 183.76 737.082 182.424 738.77 182.424C740.53 182.424 741.346 183.848 741.346 185.672C741.346 187.512 740.514 188.936 738.81 188.936C737.066 188.936 736.282 187.568 736.282 185.672Z" fill="white"/>
    <path d="M856 184H749.5" stroke="#D3D7E0" stroke-width="2"/>
    <path d="M864.62 190H866.044V185.744H869.412L871.476 190H873.108L870.884 185.432C872.188 184.888 872.868 183.632 872.868 182.112C872.868 180.28 871.884 178.832 870.02 178.544C869.724 178.496 869.396 178.48 869.172 178.48H864.62V190ZM866.044 184.392V179.832H869.124C869.324 179.832 869.604 179.848 869.844 179.904C870.948 180.152 871.412 181.152 871.412 182.112C871.412 183.072 870.948 184.072 869.844 184.32C869.604 184.376 869.324 184.392 869.124 184.392H866.044ZM876.878 190H878.326V178.48H876.878L874.71 179.776V181.368L876.878 180.056V190Z" fill="white"/>
    <rect x="856" y="172" width="32" height="24" rx="1" stroke="#D3D7E0" stroke-width="2"/>
    <path d="M52 46L96 100" stroke="white" stroke-opacity="0.3" stroke-width="2" stroke-linecap="square" stroke-dasharray="6 6"/>
    <path d="M192 46L152 100" stroke="white" stroke-opacity="0.3" stroke-width="2" stroke-linecap="square" stroke-dasharray="6 6"/>
    <path d="M228 46L228 110" stroke="white" stroke-opacity="0.3" stroke-width="2" stroke-linecap="square" stroke-dasharray="6 6"/>
    <path d="M45.3397 37H46.8027V28.299H50.1557V26.92H41.9867V28.299H45.3397V37ZM55.3989 37.21C58.3319 37.21 59.9979 35.166 59.9979 32.359C59.9979 32.289 59.9909 31.939 59.9699 31.764H56.4559V32.94H58.4159C58.2129 34.809 57.2119 35.838 55.4829 35.817C53.3409 35.803 52.2629 34.27 52.2699 31.96C52.2769 29.65 53.3409 28.089 55.4829 28.103C56.8689 28.117 57.7929 28.887 58.1989 30.091L59.6829 29.825C59.1649 27.886 57.7649 26.717 55.3989 26.717C52.6409 26.717 50.7159 28.705 50.7159 31.96C50.7159 35.264 52.6969 37.21 55.3989 37.21ZM65.5161 37.21C68.4491 37.21 70.1151 35.166 70.1151 32.359C70.1151 32.289 70.1081 31.939 70.0871 31.764H66.5731V32.94H68.5331C68.3301 34.809 67.3291 35.838 65.6001 35.817C63.4581 35.803 62.3801 34.27 62.3871 31.96C62.3941 29.65 63.4581 28.089 65.6001 28.103C66.9861 28.117 67.9101 28.887 68.3161 30.091L69.8001 29.825C69.2821 27.886 67.8821 26.717 65.5161 26.717C62.7581 26.717 60.8331 28.705 60.8331 31.96C60.8331 35.264 62.8141 37.21 65.5161 37.21ZM73.7498 37H75.2128V28.299H78.5658V26.92H70.3968V28.299H73.7498V37ZM78.7126 37H80.2316L80.9666 34.725H85.1036L85.8526 37H87.3716L84.0956 26.92H81.9886L78.7126 37ZM81.4146 33.353L83.0246 28.383L84.6556 33.353H81.4146ZM90.3065 37H91.7695V28.299H95.1225V26.92H86.9535V28.299H90.3065V37ZM100.45 37.21C102.774 37.21 104.335 35.943 104.93 33.955L103.446 33.556C103.047 34.963 102.046 35.817 100.45 35.817C98.3077 35.817 97.2157 34.27 97.2297 31.96C97.2367 29.65 98.3077 28.103 100.45 28.103C102.046 28.103 103.047 28.957 103.446 30.364L104.93 29.965C104.335 27.977 102.774 26.71 100.45 26.71C97.4257 26.71 95.6827 28.845 95.6827 31.96C95.6827 35.075 97.4257 37.21 100.45 37.21ZM105.496 37H107.015L107.75 34.725H111.887L112.636 37H114.155L110.879 26.92H108.772L105.496 37ZM108.198 33.353L109.808 28.383L111.439 33.353H108.198ZM115.176 37H116.695L117.43 34.725H121.567L122.316 37H123.835L120.559 26.92H118.452L115.176 37ZM117.878 33.353L119.488 28.383L121.119 33.353H117.878ZM129.024 37.21C131.348 37.21 132.909 35.943 133.504 33.955L132.02 33.556C131.621 34.963 130.62 35.817 129.024 35.817C126.882 35.817 125.79 34.27 125.804 31.96C125.811 29.65 126.882 28.103 129.024 28.103C130.62 28.103 131.621 28.957 132.02 30.364L133.504 29.965C132.909 27.977 131.348 26.71 129.024 26.71C126 26.71 124.257 28.845 124.257 31.96C124.257 35.075 126 37.21 129.024 37.21ZM139.166 37.21C142.099 37.21 143.765 35.166 143.765 32.359C143.765 32.289 143.758 31.939 143.737 31.764H140.223V32.94H142.183C141.98 34.809 140.979 35.838 139.25 35.817C137.108 35.803 136.03 34.27 136.037 31.96C136.044 29.65 137.108 28.089 139.25 28.103C140.636 28.117 141.56 28.887 141.966 30.091L143.45 29.825C142.932 27.886 141.532 26.717 139.166 26.717C136.408 26.717 134.483 28.705 134.483 31.96C134.483 35.264 136.464 37.21 139.166 37.21ZM149.368 37.21C151.692 37.21 153.253 35.943 153.848 33.955L152.364 33.556C151.965 34.963 150.964 35.817 149.368 35.817C147.226 35.817 146.134 34.27 146.148 31.96C146.155 29.65 147.226 28.103 149.368 28.103C150.964 28.103 151.965 28.957 152.364 30.364L153.848 29.965C153.253 27.977 151.692 26.71 149.368 26.71C146.344 26.71 144.601 28.845 144.601 31.96C144.601 35.075 146.344 37.21 149.368 37.21ZM154.414 37H155.933L156.668 34.725H160.805L161.554 37H163.073L159.797 26.92H157.69L154.414 37ZM157.116 33.353L158.726 28.383L160.357 33.353H157.116ZM168.178 37.21C171.111 37.21 172.777 35.166 172.777 32.359C172.777 32.289 172.77 31.939 172.749 31.764H169.235V32.94H171.195C170.992 34.809 169.991 35.838 168.262 35.817C166.12 35.803 165.042 34.27 165.049 31.96C165.056 29.65 166.12 28.089 168.262 28.103C169.648 28.117 170.572 28.887 170.978 30.091L172.462 29.825C171.944 27.886 170.544 26.717 168.178 26.717C165.42 26.717 163.495 28.705 163.495 31.96C163.495 35.264 165.476 37.21 168.178 37.21ZM173.199 37H174.718L175.453 34.725H179.59L180.339 37H181.858L178.582 26.92H176.475L173.199 37ZM175.901 33.353L177.511 28.383L179.142 33.353H175.901ZM186.963 37.21C189.896 37.21 191.562 35.166 191.562 32.359C191.562 32.289 191.555 31.939 191.534 31.764H188.02V32.94H189.98C189.777 34.809 188.776 35.838 187.047 35.817C184.905 35.803 183.827 34.27 183.834 31.96C183.841 29.65 184.905 28.089 187.047 28.103C188.433 28.117 189.357 28.887 189.763 30.091L191.247 29.825C190.729 27.886 189.329 26.717 186.963 26.717C184.205 26.717 182.28 28.705 182.28 31.96C182.28 35.264 184.261 37.21 186.963 37.21ZM195.197 37H196.66V28.299H200.013V26.92H191.844V28.299H195.197V37Z" fill="white"/>
    <path d="M213.289 37H214.752V28.299H218.105V26.92H209.936V28.299H213.289V37ZM223.432 37.21C225.756 37.21 227.317 35.943 227.912 33.955L226.428 33.556C226.029 34.963 225.028 35.817 223.432 35.817C221.29 35.817 220.198 34.27 220.212 31.96C220.219 29.65 221.29 28.103 223.432 28.103C225.028 28.103 226.029 28.957 226.428 30.364L227.912 29.965C227.317 27.977 225.756 26.71 223.432 26.71C220.408 26.71 218.665 28.845 218.665 31.96C218.665 35.075 220.408 37.21 223.432 37.21ZM231.965 37H233.428V28.299H236.781V26.92H228.612V28.299H231.965V37ZM241.248 37H242.711V28.299H246.064V26.92H237.895V28.299H241.248V37Z" fill="white"/>
    <path d="M264 112V24" stroke="white" stroke-opacity="0.3" stroke-width="2" stroke-linecap="square" stroke-dasharray="6 6"/>
    <path d="M278.268 37.21C280.151 37.21 281.768 35.705 281.768 33.829C281.768 31.939 280.382 30.525 278.499 30.525C277.904 30.525 277.274 30.714 276.777 31.071L276.945 28.299H281.075V26.92H275.636L275.328 32.219L276.602 32.667C276.917 32.247 277.484 31.855 278.31 31.855C279.388 31.855 280.291 32.723 280.291 33.829C280.291 34.907 279.416 35.796 278.31 35.796C277.47 35.796 276.637 35.229 276.406 34.333L274.999 34.711C275.412 36.181 276.714 37.21 278.268 37.21ZM283.672 29.629L283.581 30.28C284.589 30.462 285.128 29.846 285.128 28.747V26.92H283.581V28.607H284.386C284.456 29.202 284.281 29.678 283.672 29.629ZM291.15 37.21C293.523 37.21 295.168 35.663 295.168 33.29V26.92H293.684V33.213C293.684 34.914 292.417 35.831 291.15 35.831C289.897 35.831 288.616 34.935 288.616 33.213V26.92L287.132 26.927V33.29C287.132 35.663 288.777 37.21 291.15 37.21ZM299.639 37H301.102V28.299H304.455V26.92H296.286V28.299H299.639V37ZM305.576 37H307.039V33.381H309.713L311.47 37H313.143L311.239 33.094C312.38 32.597 312.954 31.491 312.954 30.147C312.954 28.516 312.114 27.235 310.427 26.976C310.161 26.934 309.846 26.92 309.65 26.92H305.576V37ZM307.039 31.995V28.299H309.594C309.776 28.299 310.021 28.313 310.231 28.369C311.127 28.579 311.463 29.405 311.463 30.147C311.463 30.889 311.127 31.715 310.231 31.932C310.021 31.981 309.776 31.995 309.594 31.995H307.039Z" fill="white" fill-opacity="0.3"/>
    <path d="M324 112V24" stroke="white" stroke-opacity="0.3" stroke-width="2" stroke-linecap="square" stroke-dasharray="6 6"/>
    <path d="M333.442 37H339.469V35.621H334.905V26.92H333.442V37Z" fill="white" fill-opacity="0.3"/>
    <path d="M348 112V24" stroke="white" stroke-opacity="0.3" stroke-width="2" stroke-linecap="square" stroke-dasharray="6 6"/>
    <path d="M361.858 37H363.321V32.695H366.989V31.225H363.321V28.383H367.829V26.92H361.858V37ZM369.09 37H370.553V33.381H373.227L374.984 37H376.657L374.753 33.094C375.894 32.597 376.468 31.491 376.468 30.147C376.468 28.516 375.628 27.235 373.941 26.976C373.675 26.934 373.36 26.92 373.164 26.92H369.09V37ZM370.553 31.995V28.299H373.108C373.29 28.299 373.535 28.313 373.745 28.369C374.641 28.579 374.977 29.405 374.977 30.147C374.977 30.889 374.641 31.715 373.745 31.932C373.535 31.981 373.29 31.995 373.108 31.995H370.553ZM379.953 37H381.444V26.92H379.953L378.056 28.054V29.685L379.953 28.53V37Z" fill="white" fill-opacity="0.3"/>
    <path d="M396 112V24" stroke="white" stroke-opacity="0.3" stroke-width="2" stroke-linecap="square" stroke-dasharray="6 6"/>
    <path d="M407.735 37.21C410.059 37.21 411.62 35.943 412.215 33.955L410.731 33.556C410.332 34.963 409.331 35.817 407.735 35.817C405.593 35.817 404.501 34.27 404.515 31.96C404.522 29.65 405.593 28.103 407.735 28.103C409.331 28.103 410.332 28.957 410.731 30.364L412.215 29.965C411.62 27.977 410.059 26.71 407.735 26.71C404.711 26.71 402.968 28.845 402.968 31.96C402.968 35.075 404.711 37.21 407.735 37.21ZM413.754 37H416.911C417.093 37 417.695 37 418.164 36.937C420.53 36.636 421.79 34.529 421.79 31.96C421.79 29.391 420.53 27.284 418.164 26.983C417.695 26.92 417.093 26.92 416.911 26.92H413.754V37ZM415.252 35.607V28.313H416.911C417.219 28.313 417.723 28.32 418.059 28.383C419.571 28.663 420.236 30.189 420.236 31.96C420.236 33.689 419.599 35.243 418.059 35.537C417.723 35.6 417.233 35.607 416.911 35.607H415.252ZM423.42 37H424.883V33.381H427.557L429.314 37H430.987L429.083 33.094C430.224 32.597 430.798 31.491 430.798 30.147C430.798 28.516 429.958 27.235 428.271 26.976C428.005 26.934 427.69 26.92 427.494 26.92H423.42V37ZM424.883 31.995V28.299H427.438C427.62 28.299 427.865 28.313 428.075 28.369C428.971 28.579 429.307 29.405 429.307 30.147C429.307 30.889 428.971 31.715 428.075 31.932C427.865 31.981 427.62 31.995 427.438 31.995H424.883ZM434.283 37H435.774V26.92H434.283L432.386 28.054V29.685L434.283 28.53V37Z" fill="white" fill-opacity="0.3"/>
    <path d="M444 112V24" stroke="white" stroke-opacity="0.3" stroke-width="2" stroke-linecap="square" stroke-dasharray="6 6"/>
    <path d="M456.703 37H458.166V32.695H461.834V31.225H458.166V28.383H462.674V26.92H456.703V37ZM463.935 37H465.398V33.381H468.072L469.829 37H471.502L469.598 33.094C470.739 32.597 471.313 31.491 471.313 30.147C471.313 28.516 470.473 27.235 468.786 26.976C468.52 26.934 468.205 26.92 468.009 26.92H463.935V37ZM465.398 31.995V28.299H467.953C468.135 28.299 468.38 28.313 468.59 28.369C469.486 28.579 469.822 29.405 469.822 30.147C469.822 30.889 469.486 31.715 468.59 31.932C468.38 31.981 468.135 31.995 467.953 31.995H465.398ZM472.761 36.993H479.579V35.6H475.022L477.941 32.996C479.033 32.037 479.579 31.407 479.579 30.028C479.579 28.117 478.144 26.71 476.24 26.71C474.231 26.71 472.796 28.047 472.796 30H474.294C474.28 28.985 475.092 28.103 476.212 28.103C477.297 28.103 478.074 28.929 478.074 30.007C478.074 30.581 477.864 31.127 477.157 31.757L472.768 35.691L472.761 36.993Z" fill="white" fill-opacity="0.3"/>
    <path d="M492 112V24" stroke="white" stroke-opacity="0.3" stroke-width="2" stroke-linecap="square" stroke-dasharray="6 6"/>
    <path d="M502.58 37.21C504.904 37.21 506.465 35.943 507.06 33.955L505.576 33.556C505.177 34.963 504.176 35.817 502.58 35.817C500.438 35.817 499.346 34.27 499.36 31.96C499.367 29.65 500.438 28.103 502.58 28.103C504.176 28.103 505.177 28.957 505.576 30.364L507.06 29.965C506.465 27.977 504.904 26.71 502.58 26.71C499.556 26.71 497.813 28.845 497.813 31.96C497.813 35.075 499.556 37.21 502.58 37.21ZM508.599 37H511.756C511.938 37 512.54 37 513.009 36.937C515.375 36.636 516.635 34.529 516.635 31.96C516.635 29.391 515.375 27.284 513.009 26.983C512.54 26.92 511.938 26.92 511.756 26.92H508.599V37ZM510.097 35.607V28.313H511.756C512.064 28.313 512.568 28.32 512.904 28.383C514.416 28.663 515.081 30.189 515.081 31.96C515.081 33.689 514.444 35.243 512.904 35.537C512.568 35.6 512.078 35.607 511.756 35.607H510.097ZM518.265 37H519.728V33.381H522.402L524.159 37H525.832L523.928 33.094C525.069 32.597 525.643 31.491 525.643 30.147C525.643 28.516 524.803 27.235 523.116 26.976C522.85 26.934 522.535 26.92 522.339 26.92H518.265V37ZM519.728 31.995V28.299H522.283C522.465 28.299 522.71 28.313 522.92 28.369C523.816 28.579 524.152 29.405 524.152 30.147C524.152 30.889 523.816 31.715 522.92 31.932C522.71 31.981 522.465 31.995 522.283 31.995H519.728ZM527.091 36.993H533.909V35.6H529.352L532.271 32.996C533.363 32.037 533.909 31.407 533.909 30.028C533.909 28.117 532.474 26.71 530.57 26.71C528.561 26.71 527.126 28.047 527.126 30H528.624C528.61 28.985 529.422 28.103 530.542 28.103C531.627 28.103 532.404 28.929 532.404 30.007C532.404 30.581 532.194 31.127 531.487 31.757L527.098 35.691L527.091 36.993Z" fill="white" fill-opacity="0.3"/>
    <path d="M540 112V24" stroke="white" stroke-opacity="0.3" stroke-width="2" stroke-linecap="square" stroke-dasharray="6 6"/>
    <path d="M552.805 37H554.268V32.695H557.936V31.225H554.268V28.383H558.776V26.92H552.805V37ZM560.038 37H561.501V33.381H564.175L565.932 37H567.605L565.701 33.094C566.842 32.597 567.416 31.491 567.416 30.147C567.416 28.516 566.576 27.235 564.889 26.976C564.623 26.934 564.308 26.92 564.112 26.92H560.038V37ZM561.501 31.995V28.299H564.056C564.238 28.299 564.483 28.313 564.693 28.369C565.589 28.579 565.925 29.405 565.925 30.147C565.925 30.889 565.589 31.715 564.693 31.932C564.483 31.981 564.238 31.995 564.056 31.995H561.501ZM571.964 37.189C573.847 37.189 575.331 35.796 575.331 33.871C575.331 32.233 574.323 30.924 572.692 30.707L575.184 28.313V26.92H569.122V28.313H573.392L570.312 31.036L570.998 32.191C571.285 32.037 571.628 31.939 571.95 31.939C573.07 31.939 573.833 32.751 573.833 33.871C573.833 34.984 573.07 35.789 571.964 35.803C571.138 35.81 570.403 35.341 570.137 34.466L568.723 34.858C569.15 36.293 570.466 37.189 571.964 37.189Z" fill="white" fill-opacity="0.3"/>
    <path d="M588 112V24" stroke="white" stroke-opacity="0.3" stroke-width="2" stroke-linecap="square" stroke-dasharray="6 6"/>
    <path d="M634.682 37.21C637.006 37.21 638.567 35.943 639.162 33.955L637.678 33.556C637.279 34.963 636.278 35.817 634.682 35.817C632.54 35.817 631.448 34.27 631.462 31.96C631.469 29.65 632.54 28.103 634.682 28.103C636.278 28.103 637.279 28.957 637.678 30.364L639.162 29.965C638.567 27.977 637.006 26.71 634.682 26.71C631.658 26.71 629.915 28.845 629.915 31.96C629.915 35.075 631.658 37.21 634.682 37.21ZM640.702 37H643.859C644.041 37 644.643 37 645.112 36.937C647.478 36.636 648.738 34.529 648.738 31.96C648.738 29.391 647.478 27.284 645.112 26.983C644.643 26.92 644.041 26.92 643.859 26.92H640.702V37ZM642.2 35.607V28.313H643.859C644.167 28.313 644.671 28.32 645.007 28.383C646.519 28.663 647.184 30.189 647.184 31.96C647.184 33.689 646.547 35.243 645.007 35.537C644.671 35.6 644.181 35.607 643.859 35.607H642.2ZM650.368 37H651.831V33.381H654.505L656.262 37H657.935L656.031 33.094C657.172 32.597 657.746 31.491 657.746 30.147C657.746 28.516 656.906 27.235 655.219 26.976C654.953 26.934 654.638 26.92 654.442 26.92H650.368V37ZM651.831 31.995V28.299H654.386C654.568 28.299 654.813 28.313 655.023 28.369C655.919 28.579 656.255 29.405 656.255 30.147C656.255 30.889 655.919 31.715 655.023 31.932C654.813 31.981 654.568 31.995 654.386 31.995H651.831ZM662.294 37.189C664.177 37.189 665.661 35.796 665.661 33.871C665.661 32.233 664.653 30.924 663.022 30.707L665.514 28.313V26.92H659.452V28.313H663.722L660.642 31.036L661.328 32.191C661.615 32.037 661.958 31.939 662.28 31.939C663.4 31.939 664.163 32.751 664.163 33.871C664.163 34.984 663.4 35.789 662.294 35.803C661.468 35.81 660.733 35.341 660.467 34.466L659.053 34.858C659.48 36.293 660.796 37.189 662.294 37.189Z" fill="white" fill-opacity="0.3"/>
    <path d="M708 112V24" stroke="white" stroke-opacity="0.3" stroke-width="2" stroke-linecap="square" stroke-dasharray="6 6"/>
    <path d="M754.593 37H756.056V32.695H759.724V31.225H756.056V28.383H760.564V26.92H754.593V37ZM761.826 37H763.289V33.381H765.963L767.72 37H769.393L767.489 33.094C768.63 32.597 769.204 31.491 769.204 30.147C769.204 28.516 768.364 27.235 766.677 26.976C766.411 26.934 766.096 26.92 765.9 26.92H761.826V37ZM763.289 31.995V28.299H765.844C766.026 28.299 766.271 28.313 766.481 28.369C767.377 28.579 767.713 29.405 767.713 30.147C767.713 30.889 767.377 31.715 766.481 31.932C766.271 31.981 766.026 31.995 765.844 31.995H763.289ZM775.201 37H776.685V35.243H777.686V33.857H776.685V31.127H775.201V33.857H772.324L775.6 26.92H773.927L770.651 33.857V35.243H775.201V37Z" fill="white" fill-opacity="0.3"/>
    <path d="M824 112V24" stroke="white" stroke-opacity="0.3" stroke-width="2" stroke-linecap="square" stroke-dasharray="6 6"/>
    <rect width="44" height="20" transform="translate(162 76)" fill="#1D1D29"/>
    <path d="M169.128 92H170.576V80.48H169.128L166.96 81.776V83.368L169.128 82.056V92ZM178.596 92H180.036V89.88H181.236V88.528H180.036V85.288H178.596V88.528H174.916L178.716 80.48H177.1L173.3 88.528V89.88H178.596V92ZM187.119 92.24C189.535 92.24 190.991 90.264 190.991 87.672C190.991 85.08 189.527 83.12 187.127 83.12C186.047 83.12 185.191 83.496 184.575 84.144V80.48H183.143V92H184.415V91.024C185.047 91.784 185.951 92.24 187.119 92.24ZM184.415 87.672C184.415 85.76 185.215 84.424 186.903 84.424C188.663 84.424 189.479 85.848 189.479 87.672C189.479 89.512 188.647 90.936 186.943 90.936C185.199 90.936 184.415 89.568 184.415 87.672ZM196.713 92.24C199.129 92.24 200.585 90.264 200.585 87.672C200.585 85.08 199.121 83.12 196.721 83.12C195.545 83.12 194.641 83.568 194.009 84.328V83.36H192.737V95.84H194.169V91.2C194.785 91.856 195.641 92.24 196.713 92.24ZM194.009 87.672C194.009 85.76 194.809 84.424 196.497 84.424C198.257 84.424 199.073 85.848 199.073 87.672C199.073 89.512 198.241 90.936 196.537 90.936C194.793 90.936 194.009 89.568 194.009 87.672Z" fill="white"/>
    <g filter="url(#filter0_i_5907_36776)">
        <rect x="96" y="108" width="56" height="52" rx="1" fill="#D3D7E0"/>
        <rect x="96" y="108" width="56" height="52" rx="1" stroke="#110529" stroke-width="2" stroke-linecap="round"/>
    </g>
    <g filter="url(#filter1_i_5907_36776)">
        <rect x="152" y="108" width="64" height="52" rx="1" fill="#D6E0FF"/>
        <path d="M172.553 142.3C175.893 142.3 178.233 140.1 178.233 136.75V127.6H176.433V136.6C176.433 139.31 174.393 140.62 172.553 140.62C170.733 140.62 168.673 139.33 168.673 136.6V127.6L166.873 127.61V136.75C166.873 140.11 169.213 142.3 172.553 142.3ZM181.033 142H182.723V131.51L187.613 142H188.563L193.453 131.51V141.99H195.143V127.6H193.503L188.093 139.07L182.653 127.6H181.033V142ZM198.147 142H199.927V127.6H198.147V142Z" fill="#110529"/>
        <rect x="152" y="108" width="64" height="52" rx="1" stroke="#110529" stroke-width="2" stroke-linecap="round"/>
    </g>
    <g filter="url(#filter2_i_5907_36776)">
        <rect x="216" y="108" width="24" height="52" rx="1" fill="#D3D7E0"/>
        <rect x="216" y="108" width="24" height="52" rx="1" stroke="#110529" stroke-width="2" stroke-linecap="round"/>
    </g>
    <g filter="url(#filter3_i_5907_36776)">
        <rect x="240" y="108" width="24" height="52" rx="1" fill="#FFADBA"/>
        <path d="M252.091 142.3C256.301 142.3 258.541 139.39 258.541 135.44C258.541 135.32 258.531 134.87 258.501 134.59H253.561V136.06H256.621C256.401 138.93 254.961 140.62 252.181 140.6C248.961 140.58 247.331 138.25 247.351 134.8C247.371 131.35 248.961 128.99 252.181 129.01C254.231 129.02 255.621 130.14 256.231 131.88L258.031 131.51C257.281 128.92 255.311 127.31 252.091 127.31C248.061 127.31 245.461 130.21 245.461 134.8C245.461 139.44 248.121 142.3 252.091 142.3Z" fill="#110529"/>
        <rect x="240" y="108" width="24" height="52" rx="1" stroke="#110529" stroke-width="2" stroke-linecap="round"/>
    </g>
    <g filter="url(#filter4_i_5907_36776)">
        <rect x="264" y="108" width="336" height="52" rx="1" fill="#99E099"/>
        <path d="M430.758 142H433.238L438.058 127.6H436.208L431.978 140.11L427.788 127.6H425.938L430.758 142Z" fill="#110529"/>
        <rect x="264" y="108" width="336" height="52" rx="1" stroke="#110529" stroke-width="2" stroke-linecap="round"/>
    </g>
    <g filter="url(#filter5_i_5907_36776)">
        <rect x="600" y="108" width="30" height="52" rx="1" fill="#CBEB67"/>
    </g>
    <rect x="600" y="108" width="30" height="52" rx="1" stroke="#110529" stroke-width="2" stroke-linecap="round"/>
    <g filter="url(#filter6_i_5907_36776)">
        <rect x="666" y="108" width="30" height="52" rx="1" fill="#FAAAFA"/>
    </g>
    <rect x="666" y="108" width="30" height="52" rx="1" stroke="#110529" stroke-width="2" stroke-linecap="round"/>
    <g filter="url(#filter7_i_5907_36776)">
        <rect x="630" y="108" width="36" height="52" rx="1" fill="#FFCB8F"/>
    </g>
    <rect x="630" y="108" width="36" height="52" rx="1" stroke="#110529" stroke-width="2" stroke-linecap="round"/>
    <path d="M609.447 142H611.247V130.74L618.757 142H620.557V127.6H618.757V138.85L611.247 127.6H609.447V142Z" fill="#110529"/>
    <path d="M675.447 142H677.247V130.74L684.757 142H686.557V127.6H684.757V138.85L677.247 127.6H675.447V142Z" fill="#110529"/>
    <path d="M642.593 142H647.033C647.303 142 648.183 142 648.853 141.91C652.183 141.47 653.913 138.48 653.913 134.8C653.913 131.13 652.183 128.13 648.853 127.69C648.173 127.6 647.313 127.6 647.033 127.6H642.593V142ZM644.423 140.3V129.3H647.033C647.513 129.3 648.233 129.32 648.703 129.41C651.033 129.83 652.023 132.08 652.023 134.8C652.023 137.47 651.063 139.76 648.703 140.19C648.233 140.28 647.533 140.3 647.033 140.3H644.423Z" fill="#110529"/>
    <g filter="url(#filter8_i_5907_36776)">
        <rect x="696" y="108" width="128" height="52" rx="1" fill="#C1ADFF"/>
        <path d="M759.244 142.29C760.694 142.29 761.954 141.7 762.684 140.43C763.214 139.51 763.154 138.72 763.154 137.48V127.6H761.354V137.48C761.354 138.37 761.354 138.99 761.094 139.51C760.704 140.29 759.884 140.6 759.204 140.6C758.134 140.6 757.224 139.83 757.014 138.85L755.244 139.27C755.754 141.11 757.224 142.29 759.244 142.29Z" fill="#110529"/>
        <rect x="696" y="108" width="128" height="52" rx="1" stroke="#110529" stroke-width="2" stroke-linecap="round"/>
    </g>
    <g filter="url(#filter9_i_5907_36776)">
        <path d="M888 108H825.6C825.04 108 824.76 108 824.546 108.109C824.358 108.205 824.205 108.358 824.109 108.546C824 108.76 824 109.04 824 109.6V158.4C824 158.96 824 159.24 824.109 159.454C824.205 159.642 824.358 159.795 824.546 159.891C824.76 160 825.04 160 825.6 160H888L883 153.5L888 147L883 140L888 134L883 127.5L888 121L883 114.5L888 108Z" fill="#FAFAAA"/>
    </g>
    <path d="M888 108H825.6C825.04 108 824.76 108 824.546 108.109C824.358 108.205 824.205 108.358 824.109 108.546C824 108.76 824 109.04 824 109.6V158.4C824 158.96 824 159.24 824.109 159.454C824.205 159.642 824.358 159.795 824.546 159.891C824.76 160 825.04 160 825.6 160H888L883 153.5L888 147L883 140L888 134L883 127.5L888 121L883 114.5L888 108Z" stroke="#110529" stroke-width="2" stroke-linecap="round"/>
    <path d="M856.593 142.3C859.923 142.3 862.113 140.47 862.933 137.61L861.123 137.13C860.533 139.27 859.023 140.6 856.593 140.6C853.373 140.6 851.733 138.25 851.753 134.8C851.773 131.35 853.373 129 856.593 129C859.023 129 860.533 130.33 861.123 132.47L862.933 131.99C862.113 129.13 859.923 127.3 856.593 127.3C852.283 127.3 849.873 130.36 849.873 134.8C849.873 139.24 852.283 142.3 856.593 142.3Z" fill="#110529"/>
    <g filter="url(#filter10_i_5907_36776)">
        <rect x="96" y="244" width="56" height="52" rx="1" fill="#D3D7E0"/>
        <rect x="96" y="244" width="56" height="52" rx="1" stroke="#110529" stroke-width="2" stroke-linecap="round"/>
    </g>
    <g filter="url(#filter11_i_5907_36776)">
        <rect x="152" y="244" width="64" height="52" rx="1" fill="#D6E0FF"/>
        <path d="M172.553 278.3C175.893 278.3 178.233 276.1 178.233 272.75V263.6H176.433V272.6C176.433 275.31 174.393 276.62 172.553 276.62C170.733 276.62 168.673 275.33 168.673 272.6V263.6L166.873 263.61V272.75C166.873 276.11 169.213 278.3 172.553 278.3ZM181.033 278H182.723V267.51L187.613 278H188.563L193.453 267.51V277.99H195.143V263.6H193.503L188.093 275.07L182.653 263.6H181.033V278ZM198.147 278H199.927V263.6H198.147V278Z" fill="#110529"/>
        <rect x="152" y="244" width="64" height="52" rx="1" stroke="#110529" stroke-width="2" stroke-linecap="round"/>
    </g>
    <g filter="url(#filter12_i_5907_36776)">
        <rect x="216" y="244" width="24" height="52" rx="1" fill="#D3D7E0"/>
        <rect x="216" y="244" width="24" height="52" rx="1" stroke="#110529" stroke-width="2" stroke-linecap="round"/>
    </g>
    <g filter="url(#filter13_i_5907_36776)">
        <rect x="240" y="244" width="24" height="52" rx="1" fill="#FFADBA"/>
        <path d="M252.091 278.3C256.301 278.3 258.541 275.39 258.541 271.44C258.541 271.32 258.531 270.87 258.501 270.59H253.561V272.06H256.621C256.401 274.93 254.961 276.62 252.181 276.6C248.961 276.58 247.331 274.25 247.351 270.8C247.371 267.35 248.961 264.99 252.181 265.01C254.231 265.02 255.621 266.14 256.231 267.88L258.031 267.51C257.281 264.92 255.311 263.31 252.091 263.31C248.061 263.31 245.461 266.21 245.461 270.8C245.461 275.44 248.121 278.3 252.091 278.3Z" fill="#110529"/>
        <rect x="240" y="244" width="24" height="52" rx="1" stroke="#110529" stroke-width="2" stroke-linecap="round"/>
    </g>
    <g filter="url(#filter14_i_5907_36776)">
        <rect x="264" y="244" width="336" height="52" rx="1" fill="#99E099"/>
        <path d="M430.758 278H433.238L438.058 263.6H436.208L431.978 276.11L427.788 263.6H425.938L430.758 278Z" fill="#110529"/>
        <rect x="264" y="244" width="336" height="52" rx="1" stroke="#110529" stroke-width="2" stroke-linecap="round"/>
    </g>
    <g filter="url(#filter15_i_5907_36776)">
        <rect x="600" y="244" width="30" height="52" rx="1" fill="#CBEB67"/>
    </g>
    <rect x="600" y="244" width="30" height="52" rx="1" stroke="#110529" stroke-width="2" stroke-linecap="round"/>
    <path d="M609.447 278H611.247V266.74L618.757 278H620.557V263.6H618.757V274.85L611.247 263.6H609.447V278Z" fill="#110529"/>
    <g filter="url(#filter16_i_5907_36776)">
        <rect x="630" y="244" width="128" height="52" rx="1" fill="#C1ADFF"/>
        <path d="M693.244 278.29C694.694 278.29 695.954 277.7 696.684 276.43C697.214 275.51 697.154 274.72 697.154 273.48V263.6H695.354V273.48C695.354 274.37 695.354 274.99 695.094 275.51C694.704 276.29 693.884 276.6 693.204 276.6C692.134 276.6 691.224 275.83 691.014 274.85L689.244 275.27C689.754 277.11 691.224 278.29 693.244 278.29Z" fill="#110529"/>
        <rect x="630" y="244" width="128" height="52" rx="1" stroke="#110529" stroke-width="2" stroke-linecap="round"/>
    </g>
    <g filter="url(#filter17_i_5907_36776)">
        <path d="M822 244H759.6C759.04 244 758.76 244 758.546 244.109C758.358 244.205 758.205 244.358 758.109 244.546C758 244.76 758 245.04 758 245.6V294.4C758 294.96 758 295.24 758.109 295.454C758.205 295.642 758.358 295.795 758.546 295.891C758.76 296 759.04 296 759.6 296H822L817 289.5L822 283L817 276L822 270L817 263.5L822 257L817 250.5L822 244Z" fill="#FAFAAA"/>
    </g>
    <path d="M822 244H759.6C759.04 244 758.76 244 758.546 244.109C758.358 244.205 758.205 244.358 758.109 244.546C758 244.76 758 245.04 758 245.6V294.4C758 294.96 758 295.24 758.109 295.454C758.205 295.642 758.358 295.795 758.546 295.891C758.76 296 759.04 296 759.6 296H822L817 289.5L822 283L817 276L822 270L817 263.5L822 257L817 250.5L822 244Z" stroke="#110529" stroke-width="2" stroke-linecap="round"/>
    <path d="M790.593 278.3C793.923 278.3 796.113 276.47 796.933 273.61L795.123 273.13C794.533 275.27 793.023 276.6 790.593 276.6C787.373 276.6 785.733 274.25 785.753 270.8C785.773 267.35 787.373 265 790.593 265C793.023 265 794.533 266.33 795.123 268.47L796.933 267.99C796.113 265.13 793.923 263.3 790.593 263.3C786.283 263.3 783.873 266.36 783.873 270.8C783.873 275.24 786.283 278.3 790.593 278.3Z" fill="#110529"/>
    <path d="M25.3268 278H27.1068V265.29H32.0168V263.6H20.4168V265.29H25.3268V278ZM39.529 278.3C42.859 278.3 45.049 276.47 45.869 273.61L44.059 273.13C43.469 275.27 41.959 276.6 39.529 276.6C36.309 276.6 34.669 274.25 34.689 270.8C34.709 267.35 36.309 265 39.529 265C41.959 265 43.469 266.33 44.059 268.47L45.869 267.99C45.049 265.13 42.859 263.3 39.529 263.3C35.219 263.3 32.809 266.36 32.809 270.8C32.809 275.24 35.219 278.3 39.529 278.3ZM48.0621 278H49.8421V272.68H54.0521L56.6321 278H58.6721L55.8921 272.29C57.5221 271.61 58.3721 270.04 58.3721 268.14C58.3721 265.85 57.1421 264.04 54.8121 263.68C54.4421 263.62 54.0321 263.6 53.7521 263.6H48.0621V278ZM49.8421 270.99V265.29H53.6921C53.9421 265.29 54.2921 265.31 54.5921 265.38C55.9721 265.69 56.5521 266.94 56.5521 268.14C56.5521 269.34 55.9721 270.59 54.5921 270.9C54.2921 270.97 53.9421 270.99 53.6921 270.99H49.8421ZM69.1485 278.3C70.7885 278.3 72.0985 277.54 72.7985 276.24V278H74.3885V267.2H72.7985V268.93C72.1085 267.65 70.8485 266.9 69.1985 266.9C66.0985 266.9 64.2785 269.35 64.2785 272.6C64.2785 275.83 66.0885 278.3 69.1485 278.3ZM66.1685 272.6C66.1685 270.19 67.2785 268.53 69.3885 268.53C71.4985 268.53 72.4985 270.2 72.4985 272.59C72.4985 274.96 71.5085 276.67 69.3685 276.67C67.1985 276.67 66.1685 274.88 66.1685 272.6Z" fill="white"/>
    <path d="M25.6881 142H27.4681V129.29H32.3781V127.6H20.7781V129.29H25.6881V142ZM39.8903 142.3C43.2203 142.3 45.4103 140.47 46.2303 137.61L44.4203 137.13C43.8303 139.27 42.3203 140.6 39.8903 140.6C36.6703 140.6 35.0303 138.25 35.0503 134.8C35.0703 131.35 36.6703 129 39.8903 129C42.3203 129 43.8303 130.33 44.4203 132.47L46.2303 131.99C45.4103 129.13 43.2203 127.3 39.8903 127.3C35.5803 127.3 33.1703 130.36 33.1703 134.8C33.1703 139.24 35.5803 142.3 39.8903 142.3ZM48.4234 142H50.2034V136.68H54.4134L56.9934 142H59.0334L56.2534 136.29C57.8834 135.61 58.7334 134.04 58.7334 132.14C58.7334 129.85 57.5034 128.04 55.1734 127.68C54.8034 127.62 54.3934 127.6 54.1134 127.6H48.4234V142ZM50.2034 134.99V129.29H54.0534C54.3034 129.29 54.6534 129.31 54.9534 129.38C56.3334 129.69 56.9134 130.94 56.9134 132.14C56.9134 133.34 56.3334 134.59 54.9534 134.9C54.6534 134.97 54.3034 134.99 54.0534 134.99H50.2034ZM65.2298 131.2V146.8H67.0098V141.39C67.7198 141.96 68.7098 142.3 69.9398 142.3C72.9898 142.3 74.8398 140.57 74.8398 137.95C74.8398 135.74 73.4398 134.44 72.0498 134.09C73.0998 133.58 73.6098 132.5 73.6098 131.22C73.6098 128.84 71.8598 127.3 69.3698 127.3C67.5098 127.3 65.9798 128.16 65.4498 129.78C65.2998 130.23 65.2298 130.71 65.2298 131.2ZM67.0498 137.71V131.86C67.0498 131.44 67.0698 130.8 67.2798 130.28C67.6398 129.35 68.5198 128.99 69.4098 128.99C70.7898 128.99 71.7898 129.82 71.7898 131.24C71.7898 132.67 70.7898 133.4 69.4198 133.54V135.14C71.6098 135.18 73.0298 136.1 73.0298 137.87C73.0298 139.52 71.7898 140.61 70.0198 140.61C68.7698 140.61 67.5298 140.04 67.1998 139.01C67.0798 138.64 67.0498 138.1 67.0498 137.71Z" fill="white"/>
    <rect width="49" height="20" transform="translate(230 76)" fill="#1D1D29"/>
    <path d="M236.28 92.224C238.416 92.224 240.04 90.664 240.04 88.456C240.04 86.44 238.76 84.944 236.776 84.832L239.888 81.848V80.48H233.096V81.84H238.12L234.376 85.224L235.064 86.352C235.424 86.168 235.864 86.048 236.256 86.048C237.64 86.048 238.576 87.032 238.576 88.456C238.576 89.864 237.672 90.84 236.272 90.864C235.248 90.88 234.352 90.312 234.008 89.24L232.64 89.632C233.128 91.232 234.568 92.224 236.28 92.224ZM241.96 86.824H246.76V85.648H241.96V86.824ZM253.815 92H255.255V89.88H256.455V88.528H255.255V85.288H253.815V88.528H250.135L253.935 80.48H252.319L248.519 88.528V89.88H253.815V92ZM262.338 92.24C264.754 92.24 266.21 90.264 266.21 87.672C266.21 85.08 264.746 83.12 262.346 83.12C261.266 83.12 260.41 83.496 259.794 84.144V80.48H258.362V92H259.634V91.024C260.266 91.784 261.17 92.24 262.338 92.24ZM259.634 87.672C259.634 85.76 260.434 84.424 262.122 84.424C263.882 84.424 264.698 85.848 264.698 87.672C264.698 89.512 263.866 90.936 262.162 90.936C260.418 90.936 259.634 89.568 259.634 87.672ZM271.932 92.24C274.348 92.24 275.804 90.264 275.804 87.672C275.804 85.08 274.34 83.12 271.94 83.12C270.764 83.12 269.86 83.568 269.228 84.328V83.36H267.956V95.84H269.388V91.2C270.004 91.856 270.86 92.24 271.932 92.24ZM269.228 87.672C269.228 85.76 270.028 84.424 271.716 84.424C273.476 84.424 274.292 85.848 274.292 87.672C274.292 89.512 273.46 90.936 271.756 90.936C270.012 90.936 269.228 89.568 269.228 87.672Z" fill="white"/>
    <path d="M103.12 190H104.544V185.744H107.912L109.976 190H111.608L109.384 185.432C110.688 184.888 111.368 183.632 111.368 182.112C111.368 180.28 110.384 178.832 108.52 178.544C108.224 178.496 107.896 178.48 107.672 178.48H103.12V190ZM104.544 184.392V179.832H107.624C107.824 179.832 108.104 179.848 108.344 179.904C109.448 180.152 109.912 181.152 109.912 182.112C109.912 183.072 109.448 184.072 108.344 184.32C108.104 184.376 107.824 184.392 107.624 184.392H104.544ZM113.05 189.992H120.706V188.632H115.242L118.954 185.296C120.138 184.248 120.706 183.488 120.706 181.976C120.706 179.856 119.09 178.24 116.954 178.24C114.738 178.24 113.106 179.784 113.106 181.952H114.562C114.546 180.696 115.554 179.6 116.93 179.6C118.258 179.6 119.25 180.632 119.25 181.96C119.25 182.688 119.018 183.352 118.17 184.112L113.058 188.712L113.05 189.992Z" fill="white"/>
    <rect x="96" y="172" width="32" height="24" rx="1" stroke="#D3D7E0" stroke-width="2"/>
    <path d="M224.5 184H128" stroke="#D3D7E0" stroke-width="2"/>
    <rect width="53" height="20" transform="translate(224.5 174)" fill="#1D1D29"/>
    <path d="M231.636 190H233.084V178.48H231.636L229.468 179.776V181.368L231.636 180.056V190ZM239.536 190.24C241.68 190.24 243.496 188.504 243.496 186.376C243.496 184.232 241.872 182.584 239.736 182.584C238.96 182.584 238.184 182.848 237.584 183.328L237.792 179.832H242.696V178.48H236.512L236.16 184.504L237.424 184.984C237.84 184.384 238.56 183.896 239.576 183.896C240.92 183.896 242.064 184.984 242.064 186.376C242.064 187.728 240.976 188.856 239.576 188.856C238.504 188.856 237.464 188.144 237.176 187.008L235.808 187.376C236.272 189.056 237.752 190.24 239.536 190.24ZM249.297 190.24C251.537 190.24 253.185 188.592 253.185 186.352V182.128C253.185 179.888 251.537 178.24 249.297 178.24C247.057 178.24 245.409 179.888 245.409 182.128V186.352C245.409 188.592 247.057 190.24 249.297 190.24ZM246.857 186.432V182.04C246.857 180.688 247.945 179.6 249.297 179.6C250.649 179.6 251.737 180.688 251.737 182.04V186.432C251.737 187.784 250.649 188.872 249.297 188.872C247.945 188.872 246.857 187.784 246.857 186.432ZM259.393 190.24C261.809 190.24 263.265 188.264 263.265 185.672C263.265 183.08 261.801 181.12 259.401 181.12C258.321 181.12 257.465 181.496 256.849 182.144V178.48H255.417V190H256.689V189.024C257.321 189.784 258.225 190.24 259.393 190.24ZM256.689 185.672C256.689 183.76 257.489 182.424 259.177 182.424C260.937 182.424 261.753 183.848 261.753 185.672C261.753 187.512 260.921 188.936 259.217 188.936C257.473 188.936 256.689 187.568 256.689 185.672ZM268.986 190.24C271.402 190.24 272.858 188.264 272.858 185.672C272.858 183.08 271.394 181.12 268.994 181.12C267.818 181.12 266.914 181.568 266.282 182.328V181.36H265.01V193.84H266.442V189.2C267.058 189.856 267.914 190.24 268.986 190.24ZM266.282 185.672C266.282 183.76 267.082 182.424 268.77 182.424C270.53 182.424 271.346 183.848 271.346 185.672C271.346 187.512 270.514 188.936 268.81 188.936C267.066 188.936 266.282 187.568 266.282 185.672Z" fill="white"/>
    <path d="M374 184H277.5" stroke="#D3D7E0" stroke-width="2"/>
    <path d="M384 184L384.707 183.293L385.414 184L384.707 184.707L384 184ZM376.707 192.707L376 193.414L374.586 192L375.293 191.293L376.707 192.707ZM375.293 176.707L374.586 176L376 174.586L376.707 175.293L375.293 176.707ZM374 183L384 183L384 185L374 185L374 183ZM384.707 184.707L376.707 192.707L375.293 191.293L383.293 183.293L384.707 184.707ZM383.293 184.707L375.293 176.707L376.707 175.293L384.707 183.293L383.293 184.707Z" fill="#D3D7E0"/>
    <defs>
        <filter id="filter0_i_5907_36776" x="95" y="107" width="58" height="54" filterUnits="userSpaceOnUse" color-interpolation-filters="sRGB">
            <feFlood flood-opacity="0" result="BackgroundImageFix"/>
            <feBlend mode="normal" in="SourceGraphic" in2="BackgroundImageFix" result="shape"/>
            <feColorMatrix in="SourceAlpha" type="matrix" values="0 0 0 0 0 0 0 0 0 0 0 0 0 0 0 0 0 0 127 0" result="hardAlpha"/>
            <feOffset dx="-8" dy="-4"/>
            <feComposite in2="hardAlpha" operator="arithmetic" k2="-1" k3="1"/>
            <feColorMatrix type="matrix" values="0 0 0 0 0.0666667 0 0 0 0 0.0196078 0 0 0 0 0.160784 0 0 0 0.16 0"/>
            <feBlend mode="normal" in2="shape" result="effect1_innerShadow_5907_36776"/>
        </filter>
        <filter id="filter1_i_5907_36776" x="151" y="107" width="66" height="54" filterUnits="userSpaceOnUse" color-interpolation-filters="sRGB">
            <feFlood flood-opacity="0" result="BackgroundImageFix"/>
            <feBlend mode="normal" in="SourceGraphic" in2="BackgroundImageFix" result="shape"/>
            <feColorMatrix in="SourceAlpha" type="matrix" values="0 0 0 0 0 0 0 0 0 0 0 0 0 0 0 0 0 0 127 0" result="hardAlpha"/>
            <feOffset dx="-8" dy="-4"/>
            <feComposite in2="hardAlpha" operator="arithmetic" k2="-1" k3="1"/>
            <feColorMatrix type="matrix" values="0 0 0 0 0.0666667 0 0 0 0 0.0196078 0 0 0 0 0.160784 0 0 0 0.16 0"/>
            <feBlend mode="normal" in2="shape" result="effect1_innerShadow_5907_36776"/>
        </filter>
        <filter id="filter2_i_5907_36776" x="215" y="107" width="26" height="54" filterUnits="userSpaceOnUse" color-interpolation-filters="sRGB">
            <feFlood flood-opacity="0" result="BackgroundImageFix"/>
            <feBlend mode="normal" in="SourceGraphic" in2="BackgroundImageFix" result="shape"/>
            <feColorMatrix in="SourceAlpha" type="matrix" values="0 0 0 0 0 0 0 0 0 0 0 0 0 0 0 0 0 0 127 0" result="hardAlpha"/>
            <feOffset dx="-8" dy="-4"/>
            <feComposite in2="hardAlpha" operator="arithmetic" k2="-1" k3="1"/>
            <feColorMatrix type="matrix" values="0 0 0 0 0.0666667 0 0 0 0 0.0196078 0 0 0 0 0.160784 0 0 0 0.16 0"/>
            <feBlend mode="normal" in2="shape" result="effect1_innerShadow_5907_36776"/>
        </filter>
        <filter id="filter3_i_5907_36776" x="239" y="107" width="26" height="54" filterUnits="userSpaceOnUse" color-interpolation-filters="sRGB">
            <feFlood flood-opacity="0" result="BackgroundImageFix"/>
            <feBlend mode="normal" in="SourceGraphic" in2="BackgroundImageFix" result="shape"/>
            <feColorMatrix in="SourceAlpha" type="matrix" values="0 0 0 0 0 0 0 0 0 0 0 0 0 0 0 0 0 0 127 0" result="hardAlpha"/>
            <feOffset dx="-8" dy="-4"/>
            <feComposite in2="hardAlpha" operator="arithmetic" k2="-1" k3="1"/>
            <feColorMatrix type="matrix" values="0 0 0 0 0.0666667 0 0 0 0 0.0196078 0 0 0 0 0.160784 0 0 0 0.16 0"/>
            <feBlend mode="normal" in2="shape" result="effect1_innerShadow_5907_36776"/>
        </filter>
        <filter id="filter4_i_5907_36776" x="263" y="107" width="338" height="54" filterUnits="userSpaceOnUse" color-interpolation-filters="sRGB">
            <feFlood flood-opacity="0" result="BackgroundImageFix"/>
            <feBlend mode="normal" in="SourceGraphic" in2="BackgroundImageFix" result="shape"/>
            <feColorMatrix in="SourceAlpha" type="matrix" values="0 0 0 0 0 0 0 0 0 0 0 0 0 0 0 0 0 0 127 0" result="hardAlpha"/>
            <feOffset dx="-8" dy="-4"/>
            <feComposite in2="hardAlpha" operator="arithmetic" k2="-1" k3="1"/>
            <feColorMatrix type="matrix" values="0 0 0 0 0.0666667 0 0 0 0 0.0196078 0 0 0 0 0.160784 0 0 0 0.16 0"/>
            <feBlend mode="normal" in2="shape" result="effect1_innerShadow_5907_36776"/>
        </filter>
        <filter id="filter5_i_5907_36776" x="599" y="107" width="32" height="54" filterUnits="userSpaceOnUse" color-interpolation-filters="sRGB">
            <feFlood flood-opacity="0" result="BackgroundImageFix"/>
            <feBlend mode="normal" in="SourceGraphic" in2="BackgroundImageFix" result="shape"/>
            <feColorMatrix in="SourceAlpha" type="matrix" values="0 0 0 0 0 0 0 0 0 0 0 0 0 0 0 0 0 0 127 0" result="hardAlpha"/>
            <feOffset dx="-8" dy="-4"/>
            <feComposite in2="hardAlpha" operator="arithmetic" k2="-1" k3="1"/>
            <feColorMatrix type="matrix" values="0 0 0 0 0.0666667 0 0 0 0 0.0196078 0 0 0 0 0.160784 0 0 0 0.16 0"/>
            <feBlend mode="normal" in2="shape" result="effect1_innerShadow_5907_36776"/>
        </filter>
        <filter id="filter6_i_5907_36776" x="665" y="107" width="32" height="54" filterUnits="userSpaceOnUse" color-interpolation-filters="sRGB">
            <feFlood flood-opacity="0" result="BackgroundImageFix"/>
            <feBlend mode="normal" in="SourceGraphic" in2="BackgroundImageFix" result="shape"/>
            <feColorMatrix in="SourceAlpha" type="matrix" values="0 0 0 0 0 0 0 0 0 0 0 0 0 0 0 0 0 0 127 0" result="hardAlpha"/>
            <feOffset dx="-8" dy="-4"/>
            <feComposite in2="hardAlpha" operator="arithmetic" k2="-1" k3="1"/>
            <feColorMatrix type="matrix" values="0 0 0 0 0.0666667 0 0 0 0 0.0196078 0 0 0 0 0.160784 0 0 0 0.16 0"/>
            <feBlend mode="normal" in2="shape" result="effect1_innerShadow_5907_36776"/>
        </filter>
        <filter id="filter7_i_5907_36776" x="629" y="107" width="38" height="54" filterUnits="userSpaceOnUse" color-interpolation-filters="sRGB">
            <feFlood flood-opacity="0" result="BackgroundImageFix"/>
            <feBlend mode="normal" in="SourceGraphic" in2="BackgroundImageFix" result="shape"/>
            <feColorMatrix in="SourceAlpha" type="matrix" values="0 0 0 0 0 0 0 0 0 0 0 0 0 0 0 0 0 0 127 0" result="hardAlpha"/>
            <feOffset dx="-8" dy="-4"/>
            <feComposite in2="hardAlpha" operator="arithmetic" k2="-1" k3="1"/>
            <feColorMatrix type="matrix" values="0 0 0 0 0.0666667 0 0 0 0 0.0196078 0 0 0 0 0.160784 0 0 0 0.16 0"/>
            <feBlend mode="normal" in2="shape" result="effect1_innerShadow_5907_36776"/>
        </filter>
        <filter id="filter8_i_5907_36776" x="695" y="107" width="130" height="54" filterUnits="userSpaceOnUse" color-interpolation-filters="sRGB">
            <feFlood flood-opacity="0" result="BackgroundImageFix"/>
            <feBlend mode="normal" in="SourceGraphic" in2="BackgroundImageFix" result="shape"/>
            <feColorMatrix in="SourceAlpha" type="matrix" values="0 0 0 0 0 0 0 0 0 0 0 0 0 0 0 0 0 0 127 0" result="hardAlpha"/>
            <feOffset dx="-8" dy="-4"/>
            <feComposite in2="hardAlpha" operator="arithmetic" k2="-1" k3="1"/>
            <feColorMatrix type="matrix" values="0 0 0 0 0.0666667 0 0 0 0 0.0196078 0 0 0 0 0.160784 0 0 0 0.16 0"/>
            <feBlend mode="normal" in2="shape" result="effect1_innerShadow_5907_36776"/>
        </filter>
        <filter id="filter9_i_5907_36776" x="823" y="107" width="67.0308" height="54" filterUnits="userSpaceOnUse" color-interpolation-filters="sRGB">
            <feFlood flood-opacity="0" result="BackgroundImageFix"/>
            <feBlend mode="normal" in="SourceGraphic" in2="BackgroundImageFix" result="shape"/>
            <feColorMatrix in="SourceAlpha" type="matrix" values="0 0 0 0 0 0 0 0 0 0 0 0 0 0 0 0 0 0 127 0" result="hardAlpha"/>
            <feOffset dx="-8" dy="-4"/>
            <feComposite in2="hardAlpha" operator="arithmetic" k2="-1" k3="1"/>
            <feColorMatrix type="matrix" values="0 0 0 0 0.0666667 0 0 0 0 0.0196078 0 0 0 0 0.160784 0 0 0 0.16 0"/>
            <feBlend mode="normal" in2="shape" result="effect1_innerShadow_5907_36776"/>
        </filter>
        <filter id="filter10_i_5907_36776" x="95" y="243" width="58" height="54" filterUnits="userSpaceOnUse" color-interpolation-filters="sRGB">
            <feFlood flood-opacity="0" result="BackgroundImageFix"/>
            <feBlend mode="normal" in="SourceGraphic" in2="BackgroundImageFix" result="shape"/>
            <feColorMatrix in="SourceAlpha" type="matrix" values="0 0 0 0 0 0 0 0 0 0 0 0 0 0 0 0 0 0 127 0" result="hardAlpha"/>
            <feOffset dx="-8" dy="-4"/>
            <feComposite in2="hardAlpha" operator="arithmetic" k2="-1" k3="1"/>
            <feColorMatrix type="matrix" values="0 0 0 0 0.0666667 0 0 0 0 0.0196078 0 0 0 0 0.160784 0 0 0 0.16 0"/>
            <feBlend mode="normal" in2="shape" result="effect1_innerShadow_5907_36776"/>
        </filter>
        <filter id="filter11_i_5907_36776" x="151" y="243" width="66" height="54" filterUnits="userSpaceOnUse" color-interpolation-filters="sRGB">
            <feFlood flood-opacity="0" result="BackgroundImageFix"/>
            <feBlend mode="normal" in="SourceGraphic" in2="BackgroundImageFix" result="shape"/>
            <feColorMatrix in="SourceAlpha" type="matrix" values="0 0 0 0 0 0 0 0 0 0 0 0 0 0 0 0 0 0 127 0" result="hardAlpha"/>
            <feOffset dx="-8" dy="-4"/>
            <feComposite in2="hardAlpha" operator="arithmetic" k2="-1" k3="1"/>
            <feColorMatrix type="matrix" values="0 0 0 0 0.0666667 0 0 0 0 0.0196078 0 0 0 0 0.160784 0 0 0 0.16 0"/>
            <feBlend mode="normal" in2="shape" result="effect1_innerShadow_5907_36776"/>
        </filter>
        <filter id="filter12_i_5907_36776" x="215" y="243" width="26" height="54" filterUnits="userSpaceOnUse" color-interpolation-filters="sRGB">
            <feFlood flood-opacity="0" result="BackgroundImageFix"/>
            <feBlend mode="normal" in="SourceGraphic" in2="BackgroundImageFix" result="shape"/>
            <feColorMatrix in="SourceAlpha" type="matrix" values="0 0 0 0 0 0 0 0 0 0 0 0 0 0 0 0 0 0 127 0" result="hardAlpha"/>
            <feOffset dx="-8" dy="-4"/>
            <feComposite in2="hardAlpha" operator="arithmetic" k2="-1" k3="1"/>
            <feColorMatrix type="matrix" values="0 0 0 0 0.0666667 0 0 0 0 0.0196078 0 0 0 0 0.160784 0 0 0 0.16 0"/>
            <feBlend mode="normal" in2="shape" result="effect1_innerShadow_5907_36776"/>
        </filter>
        <filter id="filter13_i_5907_36776" x="239" y="243" width="26" height="54" filterUnits="userSpaceOnUse" color-interpolation-filters="sRGB">
            <feFlood flood-opacity="0" result="BackgroundImageFix"/>
            <feBlend mode="normal" in="SourceGraphic" in2="BackgroundImageFix" result="shape"/>
            <feColorMatrix in="SourceAlpha" type="matrix" values="0 0 0 0 0 0 0 0 0 0 0 0 0 0 0 0 0 0 127 0" result="hardAlpha"/>
            <feOffset dx="-8" dy="-4"/>
            <feComposite in2="hardAlpha" operator="arithmetic" k2="-1" k3="1"/>
            <feColorMatrix type="matrix" values="0 0 0 0 0.0666667 0 0 0 0 0.0196078 0 0 0 0 0.160784 0 0 0 0.16 0"/>
            <feBlend mode="normal" in2="shape" result="effect1_innerShadow_5907_36776"/>
        </filter>
        <filter id="filter14_i_5907_36776" x="263" y="243" width="338" height="54" filterUnits="userSpaceOnUse" color-interpolation-filters="sRGB">
            <feFlood flood-opacity="0" result="BackgroundImageFix"/>
            <feBlend mode="normal" in="SourceGraphic" in2="BackgroundImageFix" result="shape"/>
            <feColorMatrix in="SourceAlpha" type="matrix" values="0 0 0 0 0 0 0 0 0 0 0 0 0 0 0 0 0 0 127 0" result="hardAlpha"/>
            <feOffset dx="-8" dy="-4"/>
            <feComposite in2="hardAlpha" operator="arithmetic" k2="-1" k3="1"/>
            <feColorMatrix type="matrix" values="0 0 0 0 0.0666667 0 0 0 0 0.0196078 0 0 0 0 0.160784 0 0 0 0.16 0"/>
            <feBlend mode="normal" in2="shape" result="effect1_innerShadow_5907_36776"/>
        </filter>
        <filter id="filter15_i_5907_36776" x="599" y="243" width="32" height="54" filterUnits="userSpaceOnUse" color-interpolation-filters="sRGB">
            <feFlood flood-opacity="0" result="BackgroundImageFix"/>
            <feBlend mode="normal" in="SourceGraphic" in2="BackgroundImageFix" result="shape"/>
            <feColorMatrix in="SourceAlpha" type="matrix" values="0 0 0 0 0 0 0 0 0 0 0 0 0 0 0 0 0 0 127 0" result="hardAlpha"/>
            <feOffset dx="-8" dy="-4"/>
            <feComposite in2="hardAlpha" operator="arithmetic" k2="-1" k3="1"/>
            <feColorMatrix type="matrix" values="0 0 0 0 0.0666667 0 0 0 0 0.0196078 0 0 0 0 0.160784 0 0 0 0.16 0"/>
            <feBlend mode="normal" in2="shape" result="effect1_innerShadow_5907_36776"/>
        </filter>
        <filter id="filter16_i_5907_36776" x="629" y="243" width="130" height="54" filterUnits="userSpaceOnUse" color-interpolation-filters="sRGB">
            <feFlood flood-opacity="0" result="BackgroundImageFix"/>
            <feBlend mode="normal" in="SourceGraphic" in2="BackgroundImageFix" result="shape"/>
            <feColorMatrix in="SourceAlpha" type="matrix" values="0 0 0 0 0 0 0 0 0 0 0 0 0 0 0 0 0 0 127 0" result="hardAlpha"/>
            <feOffset dx="-8" dy="-4"/>
            <feComposite in2="hardAlpha" operator="arithmetic" k2="-1" k3="1"/>
            <feColorMatrix type="matrix" values="0 0 0 0 0.0666667 0 0 0 0 0.0196078 0 0 0 0 0.160784 0 0 0 0.16 0"/>
            <feBlend mode="normal" in2="shape" result="effect1_innerShadow_5907_36776"/>
        </filter>
        <filter id="filter17_i_5907_36776" x="757" y="243" width="67.0308" height="54" filterUnits="userSpaceOnUse" color-interpolation-filters="sRGB">
            <feFlood flood-opacity="0" result="BackgroundImageFix"/>
            <feBlend mode="normal" in="SourceGraphic" in2="BackgroundImageFix" result="shape"/>
            <feColorMatrix in="SourceAlpha" type="matrix" values="0 0 0 0 0 0 0 0 0 0 0 0 0 0 0 0 0 0 127 0" result="hardAlpha"/>
            <feOffset dx="-8" dy="-4"/>
            <feComposite in2="hardAlpha" operator="arithmetic" k2="-1" k3="1"/>
            <feColorMatrix type="matrix" values="0 0 0 0 0.0666667 0 0 0 0 0.0196078 0 0 0 0 0.160784 0 0 0 0.16 0"/>
            <feBlend mode="normal" in2="shape" result="effect1_innerShadow_5907_36776"/>
        </filter>
    </defs>
</svg>
