<svg width="960" height="404" viewBox="0 0 960 404" fill="none" xmlns="http://www.w3.org/2000/svg">
    <rect width="960" height="404" fill="white"/>
    <path d="M300 112V24" stroke="#D3D7E0" stroke-width="2" stroke-linecap="square" stroke-dasharray="6 6"/>
    <path d="M194.805 37H196.268V32.695H199.936V31.225H196.268V28.383H200.776V26.92H194.805V37ZM202.038 37H203.501V33.381H206.175L207.932 37H209.605L207.701 33.094C208.842 32.597 209.416 31.491 209.416 30.147C209.416 28.516 208.576 27.235 206.889 26.976C206.623 26.934 206.308 26.92 206.112 26.92H202.038V37ZM203.501 31.995V28.299H206.056C206.238 28.299 206.483 28.313 206.693 28.369C207.589 28.579 207.925 29.405 207.925 30.147C207.925 30.889 207.589 31.715 206.693 31.932C206.483 31.981 206.238 31.995 206.056 31.995H203.501ZM213.964 37.189C215.847 37.189 217.331 35.796 217.331 33.871C217.331 32.233 216.323 30.924 214.692 30.707L217.184 28.313V26.92H211.122V28.313H215.392L212.312 31.036L212.998 32.191C213.285 32.037 213.628 31.939 213.95 31.939C215.07 31.939 215.833 32.751 215.833 33.871C215.833 34.984 215.07 35.789 213.964 35.803C213.138 35.81 212.403 35.341 212.137 34.466L210.723 34.858C211.15 36.293 212.466 37.189 213.964 37.189Z" fill="#D3D7E0"/>
    <path d="M676 46L708 100" stroke="#D3D7E0" stroke-width="2" stroke-linecap="square" stroke-dasharray="6 6"/>
    <path d="M832 46L772 100" stroke="#D3D7E0" stroke-width="2" stroke-linecap="square" stroke-dasharray="6 6"/>
    <path d="M632 46V110" stroke="#D3D7E0" stroke-width="2" stroke-linecap="square" stroke-dasharray="6 6"/>
    <path d="M617.289 37V28.299H613.936V26.92H622.105V28.299H618.752V37H617.289ZM626.572 37V28.299H623.219V26.92H631.388V28.299H628.035V37H626.572ZM636.715 37.21C635.707 37.21 634.849 36.9907 634.139 36.552C633.43 36.1087 632.886 35.4927 632.508 34.704C632.135 33.9153 631.948 33.0007 631.948 31.96C631.948 30.9193 632.135 30.0047 632.508 29.216C632.886 28.4273 633.43 27.8137 634.139 27.375C634.849 26.9317 635.707 26.71 636.715 26.71C637.877 26.71 638.839 27.004 639.599 27.592C640.365 28.18 640.897 28.971 641.195 29.965L639.711 30.364C639.515 29.6593 639.165 29.1063 638.661 28.705C638.162 28.3037 637.513 28.103 636.715 28.103C636.001 28.103 635.406 28.264 634.93 28.586C634.454 28.908 634.095 29.3583 633.852 29.937C633.614 30.5157 633.495 31.19 633.495 31.96C633.491 32.73 633.607 33.4043 633.845 33.983C634.088 34.5617 634.447 35.012 634.923 35.334C635.404 35.656 636.001 35.817 636.715 35.817C637.513 35.817 638.162 35.6163 638.661 35.215C639.165 34.809 639.515 34.256 639.711 33.556L641.195 33.955C640.897 34.949 640.365 35.74 639.599 36.328C638.839 36.916 637.877 37.21 636.715 37.21ZM645.248 37V28.299H641.895V26.92H650.064V28.299H646.711V37H645.248Z" fill="#110529"/>
    <path d="M350.682 37.21C353.006 37.21 354.567 35.943 355.162 33.955L353.678 33.556C353.279 34.963 352.278 35.817 350.682 35.817C348.54 35.817 347.448 34.27 347.462 31.96C347.469 29.65 348.54 28.103 350.682 28.103C352.278 28.103 353.279 28.957 353.678 30.364L355.162 29.965C354.567 27.977 353.006 26.71 350.682 26.71C347.658 26.71 345.915 28.845 345.915 31.96C345.915 35.075 347.658 37.21 350.682 37.21ZM356.702 37H359.859C360.041 37 360.643 37 361.112 36.937C363.478 36.636 364.738 34.529 364.738 31.96C364.738 29.391 363.478 27.284 361.112 26.983C360.643 26.92 360.041 26.92 359.859 26.92H356.702V37ZM358.2 35.607V28.313H359.859C360.167 28.313 360.671 28.32 361.007 28.383C362.519 28.663 363.184 30.189 363.184 31.96C363.184 33.689 362.547 35.243 361.007 35.537C360.671 35.6 360.181 35.607 359.859 35.607H358.2ZM366.368 37H367.831V33.381H370.505L372.262 37H373.935L372.031 33.094C373.172 32.597 373.746 31.491 373.746 30.147C373.746 28.516 372.906 27.235 371.219 26.976C370.953 26.934 370.638 26.92 370.442 26.92H366.368V37ZM367.831 31.995V28.299H370.386C370.568 28.299 370.813 28.313 371.023 28.369C371.919 28.579 372.255 29.405 372.255 30.147C372.255 30.889 371.919 31.715 371.023 31.932C370.813 31.981 370.568 31.995 370.386 31.995H367.831ZM378.294 37.189C380.177 37.189 381.661 35.796 381.661 33.871C381.661 32.233 380.653 30.924 379.022 30.707L381.514 28.313V26.92H375.452V28.313H379.722L376.642 31.036L377.328 32.191C377.615 32.037 377.958 31.939 378.28 31.939C379.4 31.939 380.163 32.751 380.163 33.871C380.163 34.984 379.4 35.789 378.294 35.803C377.468 35.81 376.733 35.341 376.467 34.466L375.053 34.858C375.48 36.293 376.796 37.189 378.294 37.189Z" fill="#D3D7E0"/>
    <path d="M428 112V24" stroke="#D3D7E0" stroke-width="2" stroke-linecap="square" stroke-dasharray="6 6"/>
    <path d="M480.593 37H482.056V32.695H485.724V31.225H482.056V28.383H486.564V26.92H480.593V37ZM487.826 37H489.289V33.381H491.963L493.72 37H495.393L493.489 33.094C494.63 32.597 495.204 31.491 495.204 30.147C495.204 28.516 494.364 27.235 492.677 26.976C492.411 26.934 492.096 26.92 491.9 26.92H487.826V37ZM489.289 31.995V28.299H491.844C492.026 28.299 492.271 28.313 492.481 28.369C493.377 28.579 493.713 29.405 493.713 30.147C493.713 30.889 493.377 31.715 492.481 31.932C492.271 31.981 492.026 31.995 491.844 31.995H489.289ZM501.201 37H502.685V35.243H503.686V33.857H502.685V31.127H501.201V33.857H498.324L501.6 26.92H499.927L496.651 33.857V35.243H501.201V37Z" fill="#D3D7E0"/>
    <path d="M556 112V24" stroke="#D3D7E0" stroke-width="2" stroke-linecap="square" stroke-dasharray="6 6"/>
    <path d="M662.128 92V82.056L659.96 83.368V81.776L662.128 80.48H663.576V92H662.128ZM671.596 92V89.88H666.3V88.528L670.1 80.48H671.716L667.916 88.528H671.596V85.288H673.036V88.528H674.236V89.88H673.036V92H671.596ZM680.119 92.24C679.309 92.24 678.626 92.04 678.071 91.64C677.517 91.2347 677.095 90.688 676.807 90C676.525 89.3067 676.383 88.5307 676.383 87.672C676.383 86.8027 676.525 86.024 676.807 85.336C677.095 84.648 677.517 84.1067 678.071 83.712C678.631 83.3173 679.317 83.12 680.127 83.12C680.927 83.12 681.615 83.32 682.191 83.72C682.773 84.1147 683.218 84.656 683.527 85.344C683.837 86.032 683.991 86.808 683.991 87.672C683.991 88.536 683.837 89.312 683.527 90C683.218 90.688 682.773 91.2347 682.191 91.64C681.615 92.04 680.925 92.24 680.119 92.24ZM676.143 92V80.48H677.575V85.64H677.415V92H676.143ZM679.943 90.936C680.514 90.936 680.986 90.792 681.359 90.504C681.733 90.216 682.013 89.8267 682.199 89.336C682.386 88.84 682.479 88.2853 682.479 87.672C682.479 87.064 682.386 86.5147 682.199 86.024C682.018 85.5333 681.735 85.144 681.351 84.856C680.973 84.568 680.49 84.424 679.903 84.424C679.343 84.424 678.879 84.5627 678.511 84.84C678.143 85.112 677.869 85.4933 677.687 85.984C677.506 86.4693 677.415 87.032 677.415 87.672C677.415 88.3013 677.503 88.864 677.679 89.36C677.861 89.8507 678.138 90.2373 678.511 90.52C678.885 90.7973 679.362 90.936 679.943 90.936ZM689.713 92.24C688.902 92.24 688.22 92.04 687.665 91.64C687.11 91.2347 686.689 90.688 686.401 90C686.118 89.3067 685.977 88.5307 685.977 87.672C685.977 86.8027 686.118 86.024 686.401 85.336C686.689 84.648 687.11 84.1067 687.665 83.712C688.225 83.3173 688.91 83.12 689.721 83.12C690.521 83.12 691.209 83.32 691.785 83.72C692.366 84.1147 692.812 84.656 693.121 85.344C693.43 86.032 693.585 86.808 693.585 87.672C693.585 88.536 693.43 89.312 693.121 90C692.812 90.688 692.366 91.2347 691.785 91.64C691.209 92.04 690.518 92.24 689.713 92.24ZM685.737 95.84V83.36H687.009V89.72H687.169V95.84H685.737ZM689.537 90.936C690.108 90.936 690.58 90.792 690.953 90.504C691.326 90.216 691.606 89.8267 691.793 89.336C691.98 88.84 692.073 88.2853 692.073 87.672C692.073 87.064 691.98 86.5147 691.793 86.024C691.612 85.5333 691.329 85.144 690.945 84.856C690.566 84.568 690.084 84.424 689.497 84.424C688.937 84.424 688.473 84.5627 688.105 84.84C687.737 85.112 687.462 85.4933 687.281 85.984C687.1 86.4693 687.009 87.032 687.009 87.672C687.009 88.3013 687.097 88.864 687.273 89.36C687.454 89.8507 687.732 90.2373 688.105 90.52C688.478 90.7973 688.956 90.936 689.537 90.936Z" fill="#110529"/>
    <rect width="54" height="20" transform="translate(760 76)" fill="white"/>
    <path d="M769.008 92.24C771.248 92.24 772.896 90.592 772.896 88.352V84.128C772.896 81.888 771.248 80.24 769.008 80.24C766.768 80.24 765.12 81.888 765.12 84.128V88.352C765.12 90.592 766.768 92.24 769.008 92.24ZM766.568 88.432V84.04C766.568 82.688 767.656 81.6 769.008 81.6C770.36 81.6 771.448 82.688 771.448 84.04V88.432C771.448 89.784 770.36 90.872 769.008 90.872C767.656 90.872 766.568 89.784 766.568 88.432ZM774.976 86.824H779.776V85.648H774.976V86.824ZM781.534 91.992H789.19V90.632H783.726L787.438 87.296C788.622 86.248 789.19 85.488 789.19 83.976C789.19 81.856 787.574 80.24 785.438 80.24C783.222 80.24 781.59 81.784 781.59 83.952H783.046C783.03 82.696 784.038 81.6 785.414 81.6C786.742 81.6 787.734 82.632 787.734 83.96C787.734 84.688 787.502 85.352 786.654 86.112L781.542 90.712L781.534 91.992ZM795.072 92.24C797.488 92.24 798.944 90.264 798.944 87.672C798.944 85.08 797.48 83.12 795.08 83.12C794 83.12 793.144 83.496 792.528 84.144V80.48H791.096V92H792.368V91.024C793 91.784 793.904 92.24 795.072 92.24ZM792.368 87.672C792.368 85.76 793.168 84.424 794.856 84.424C796.616 84.424 797.432 85.848 797.432 87.672C797.432 89.512 796.6 90.936 794.896 90.936C793.152 90.936 792.368 89.568 792.368 87.672ZM804.666 92.24C807.082 92.24 808.538 90.264 808.538 87.672C808.538 85.08 807.074 83.12 804.674 83.12C803.498 83.12 802.594 83.568 801.962 84.328V83.36H800.69V95.84H802.122V91.2C802.738 91.856 803.594 92.24 804.666 92.24ZM801.962 87.672C801.962 85.76 802.762 84.424 804.45 84.424C806.21 84.424 807.026 85.848 807.026 87.672C807.026 89.512 806.194 90.936 804.49 90.936C802.746 90.936 801.962 89.568 801.962 87.672Z" fill="#110529"/>
    <g filter="url(#filter0_i_5552_34988)">
        <path d="M101 108H314.4C314.96 108 315.24 108 315.454 108.109C315.642 108.205 315.795 108.358 315.891 108.546C316 108.76 316 109.04 316 109.6V158.4C316 158.96 316 159.24 315.891 159.454C315.795 159.642 315.642 159.795 315.454 159.891C315.24 160 314.96 160 314.4 160H101L96 153.5L101 147L96 140L101 134L96 127.5L101 121L96 114.5L101 108Z" fill="#99E099"/>
    </g>
    <path d="M101 108H314.4C314.96 108 315.24 108 315.454 108.109C315.642 108.205 315.795 108.358 315.891 108.546C316 108.76 316 109.04 316 109.6V158.4C316 158.96 316 159.24 315.891 159.454C315.795 159.642 315.642 159.795 315.454 159.891C315.24 160 314.96 160 314.4 160H101L96 153.5L101 147L96 140L101 134L96 127.5L101 121L96 114.5L101 108Z" stroke="#110529" stroke-width="2" stroke-linecap="round"/>
    <path d="M205.258 142H207.738L212.558 127.6H210.708L206.478 140.11L202.288 127.6H200.438L205.258 142Z" fill="#110529"/>
    <g filter="url(#filter1_i_5552_34988)">
        <rect x="316" y="108" width="30" height="52" rx="1" fill="#CBEB67"/>
    </g>
    <rect x="316" y="108" width="30" height="52" rx="1" stroke="#110529" stroke-width="2" stroke-linecap="round"/>
    <g filter="url(#filter2_i_5552_34988)">
        <rect x="382" y="108" width="30" height="52" rx="1" fill="#FAAAFA"/>
    </g>
    <rect x="382" y="108" width="30" height="52" rx="1" stroke="#110529" stroke-width="2" stroke-linecap="round"/>
    <g filter="url(#filter3_i_5552_34988)">
        <rect x="346" y="108" width="36" height="52" rx="1" fill="#FFCB8F"/>
    </g>
    <rect x="346" y="108" width="36" height="52" rx="1" stroke="#110529" stroke-width="2" stroke-linecap="round"/>
    <path d="M325.447 142H327.247V130.74L334.757 142H336.557V127.6H334.757V138.85L327.247 127.6H325.447V142Z" fill="#110529"/>
    <path d="M391.447 142H393.247V130.74L400.757 142H402.557V127.6H400.757V138.85L393.247 127.6H391.447V142Z" fill="#110529"/>
    <path d="M358.593 142H363.033C363.303 142 364.183 142 364.853 141.91C368.183 141.47 369.913 138.48 369.913 134.8C369.913 131.13 368.183 128.13 364.853 127.69C364.173 127.6 363.313 127.6 363.033 127.6H358.593V142ZM360.423 140.3V129.3H363.033C363.513 129.3 364.233 129.32 364.703 129.41C367.033 129.83 368.023 132.08 368.023 134.8C368.023 137.47 367.063 139.76 364.703 140.19C364.233 140.28 363.533 140.3 363.033 140.3H360.423Z" fill="#110529"/>
    <g filter="url(#filter4_i_5552_34988)">
        <rect x="412" y="108" width="144" height="52" rx="1" fill="#C1ADFF"/>
        <path d="M483.244 142.29C484.694 142.29 485.954 141.7 486.684 140.43C487.214 139.51 487.154 138.72 487.154 137.48V127.6H485.354V137.48C485.354 138.37 485.354 138.99 485.094 139.51C484.704 140.29 483.884 140.6 483.204 140.6C482.134 140.6 481.224 139.83 481.014 138.85L479.244 139.27C479.754 141.11 481.224 142.29 483.244 142.29Z" fill="#110529"/>
        <rect x="412" y="108" width="144" height="52" rx="1" stroke="#110529" stroke-width="2" stroke-linecap="round"/>
    </g>
    <g filter="url(#filter5_i_5552_34988)">
        <rect x="556" y="108" width="64" height="52" rx="1" fill="#FAFAAA"/>
        <path d="M588.093 142.3C591.423 142.3 593.613 140.47 594.433 137.61L592.623 137.13C592.033 139.27 590.523 140.6 588.093 140.6C584.873 140.6 583.233 138.25 583.253 134.8C583.273 131.35 584.873 129 588.093 129C590.523 129 592.033 130.33 592.623 132.47L594.433 131.99C593.613 129.13 591.423 127.3 588.093 127.3C583.783 127.3 581.373 130.36 581.373 134.8C581.373 139.24 583.783 142.3 588.093 142.3Z" fill="#110529"/>
        <rect x="556" y="108" width="64" height="52" rx="1" stroke="#110529" stroke-width="2" stroke-linecap="round"/>
    </g>
    <g filter="url(#filter6_i_5552_34988)">
        <rect x="620" y="108" width="24" height="52" rx="1" fill="#D3D7E0"/>
        <rect x="620" y="108" width="24" height="52" rx="1" stroke="#110529" stroke-width="2" stroke-linecap="round"/>
    </g>
    <g filter="url(#filter7_i_5552_34988)">
        <rect x="644" y="108" width="64" height="52" rx="1" fill="#D6E0FF"/>
        <path d="M664.553 142.3C667.893 142.3 670.233 140.1 670.233 136.75V127.6H668.433V136.6C668.433 139.31 666.393 140.62 664.553 140.62C662.733 140.62 660.673 139.33 660.673 136.6V127.6L658.873 127.61V136.75C658.873 140.11 661.213 142.3 664.553 142.3ZM673.033 142H674.723V131.51L679.613 142H680.563L685.453 131.51V141.99H687.143V127.6H685.503L680.093 139.07L674.653 127.6H673.033V142ZM690.147 142H691.927V127.6H690.147V142Z" fill="#110529"/>
        <rect x="644" y="108" width="64" height="52" rx="1" stroke="#110529" stroke-width="2" stroke-linecap="round"/>
    </g>
    <g filter="url(#filter8_i_5552_34988)">
        <rect x="708" y="108" width="64" height="52" rx="1" fill="#D3D7E0"/>
        <rect x="708" y="108" width="64" height="52" rx="1" stroke="#110529" stroke-width="2" stroke-linecap="round"/>
    </g>
    <g filter="url(#filter9_i_5552_34988)">
        <rect x="772" y="108" width="30" height="52" rx="1" fill="#90E0E0"/>
        <path d="M781.447 142H783.247V130.74L790.757 142H792.557V127.6H790.757V138.85L783.247 127.6H781.447V142Z" fill="#110529"/>
        <rect x="772" y="108" width="30" height="52" rx="1" stroke="#110529" stroke-width="2" stroke-linecap="round"/>
    </g>
    <g filter="url(#filter10_i_5552_34988)">
        <path d="M101 268H314.4C314.96 268 315.24 268 315.454 268.109C315.642 268.205 315.795 268.358 315.891 268.546C316 268.76 316 269.04 316 269.6V318.4C316 318.96 316 319.24 315.891 319.454C315.795 319.642 315.642 319.795 315.454 319.891C315.24 320 314.96 320 314.4 320H101L96 313.5L101 307L96 300L101 294L96 287.5L101 281L96 274.5L101 268Z" fill="#99E099"/>
    </g>
    <path d="M101 268H314.4C314.96 268 315.24 268 315.454 268.109C315.642 268.205 315.795 268.358 315.891 268.546C316 268.76 316 269.04 316 269.6V318.4C316 318.96 316 319.24 315.891 319.454C315.795 319.642 315.642 319.795 315.454 319.891C315.24 320 314.96 320 314.4 320H101L96 313.5L101 307L96 300L101 294L96 287.5L101 281L96 274.5L101 268Z" stroke="#110529" stroke-width="2" stroke-linecap="round"/>
    <path d="M205.258 302H207.738L212.558 287.6H210.708L206.478 300.11L202.288 287.6H200.438L205.258 302Z" fill="#110529"/>
    <g filter="url(#filter11_i_5552_34988)">
        <rect x="316" y="268" width="30" height="52" rx="1" fill="#CBEB67"/>
    </g>
    <rect x="316" y="268" width="30" height="52" rx="1" stroke="#110529" stroke-width="2" stroke-linecap="round"/>
    <path d="M325.447 302H327.247V290.74L334.757 302H336.557V287.6H334.757V298.85L327.247 287.6H325.447V302Z" fill="#110529"/>
    <g filter="url(#filter12_i_5552_34988)">
        <rect x="346" y="268" width="144" height="52" rx="1" fill="#C1ADFF"/>
        <path d="M417.244 302.29C418.694 302.29 419.954 301.7 420.684 300.43C421.214 299.51 421.154 298.72 421.154 297.48V287.6H419.354V297.48C419.354 298.37 419.354 298.99 419.094 299.51C418.704 300.29 417.884 300.6 417.204 300.6C416.134 300.6 415.224 299.83 415.014 298.85L413.244 299.27C413.754 301.11 415.224 302.29 417.244 302.29Z" fill="#110529"/>
        <rect x="346" y="268" width="144" height="52" rx="1" stroke="#110529" stroke-width="2" stroke-linecap="round"/>
    </g>
    <g filter="url(#filter13_i_5552_34988)">
        <rect x="490" y="268" width="64" height="52" rx="1" fill="#FAFAAA"/>
        <path d="M522.093 302.3C525.423 302.3 527.613 300.47 528.433 297.61L526.623 297.13C526.033 299.27 524.523 300.6 522.093 300.6C518.873 300.6 517.233 298.25 517.253 294.8C517.273 291.35 518.873 289 522.093 289C524.523 289 526.033 290.33 526.623 292.47L528.433 291.99C527.613 289.13 525.423 287.3 522.093 287.3C517.783 287.3 515.373 290.36 515.373 294.8C515.373 299.24 517.783 302.3 522.093 302.3Z" fill="#110529"/>
        <rect x="490" y="268" width="64" height="52" rx="1" stroke="#110529" stroke-width="2" stroke-linecap="round"/>
    </g>
    <g filter="url(#filter14_i_5552_34988)">
        <rect x="554" y="268" width="24" height="52" rx="1" fill="#D3D7E0"/>
        <rect x="554" y="268" width="24" height="52" rx="1" stroke="#110529" stroke-width="2" stroke-linecap="round"/>
    </g>
    <g filter="url(#filter15_i_5552_34988)">
        <rect x="578" y="268" width="64" height="52" rx="1" fill="#D6E0FF"/>
        <path d="M598.553 302.3C601.893 302.3 604.233 300.1 604.233 296.75V287.6H602.433V296.6C602.433 299.31 600.393 300.62 598.553 300.62C596.733 300.62 594.673 299.33 594.673 296.6V287.6L592.873 287.61V296.75C592.873 300.11 595.213 302.3 598.553 302.3ZM607.033 302H608.723V291.51L613.613 302H614.563L619.453 291.51V301.99H621.143V287.6H619.503L614.093 299.07L608.653 287.6H607.033V302ZM624.147 302H625.927V287.6H624.147V302Z" fill="#110529"/>
        <rect x="578" y="268" width="64" height="52" rx="1" stroke="#110529" stroke-width="2" stroke-linecap="round"/>
    </g>
    <g filter="url(#filter16_i_5552_34988)">
        <rect x="642" y="268" width="64" height="52" rx="1" fill="#D3D7E0"/>
        <rect x="642" y="268" width="64" height="52" rx="1" stroke="#110529" stroke-width="2" stroke-linecap="round"/>
    </g>
    <g filter="url(#filter17_i_5552_34988)">
        <rect x="706" y="268" width="30" height="52" rx="1" fill="#90E0E0"/>
        <path d="M715.447 302H717.247V290.74L724.757 302H726.557V287.6H724.757V298.85L717.247 287.6H715.447V302Z" fill="#110529"/>
        <rect x="706" y="268" width="30" height="52" rx="1" stroke="#110529" stroke-width="2" stroke-linecap="round"/>
    </g>
    <path d="M25.3268 302H27.1068V289.29H32.0168V287.6H20.4168V289.29H25.3268V302ZM39.529 302.3C42.859 302.3 45.049 300.47 45.869 297.61L44.059 297.13C43.469 299.27 41.959 300.6 39.529 300.6C36.309 300.6 34.669 298.25 34.689 294.8C34.709 291.35 36.309 289 39.529 289C41.959 289 43.469 290.33 44.059 292.47L45.869 291.99C45.049 289.13 42.859 287.3 39.529 287.3C35.219 287.3 32.809 290.36 32.809 294.8C32.809 299.24 35.219 302.3 39.529 302.3ZM48.0621 302H49.8421V296.68H54.0521L56.6321 302H58.6721L55.8921 296.29C57.5221 295.61 58.3721 294.04 58.3721 292.14C58.3721 289.85 57.1421 288.04 54.8121 287.68C54.4421 287.62 54.0321 287.6 53.7521 287.6H48.0621V302ZM49.8421 294.99V289.29H53.6921C53.9421 289.29 54.2921 289.31 54.5921 289.38C55.9721 289.69 56.5521 290.94 56.5521 292.14C56.5521 293.34 55.9721 294.59 54.5921 294.9C54.2921 294.97 53.9421 294.99 53.6921 294.99H49.8421ZM69.1485 302.3C70.7885 302.3 72.0985 301.54 72.7985 300.24V302H74.3885V291.2H72.7985V292.93C72.1085 291.65 70.8485 290.9 69.1985 290.9C66.0985 290.9 64.2785 293.35 64.2785 296.6C64.2785 299.83 66.0885 302.3 69.1485 302.3ZM66.1685 296.6C66.1685 294.19 67.2785 292.53 69.3885 292.53C71.4985 292.53 72.4985 294.2 72.4985 296.59C72.4985 298.96 71.5085 300.67 69.3685 300.67C67.1985 300.67 66.1685 298.88 66.1685 296.6Z" fill="#110529"/>
    <path d="M25.6881 142H27.4681V129.29H32.3781V127.6H20.7781V129.29H25.6881V142ZM39.8903 142.3C43.2203 142.3 45.4103 140.47 46.2303 137.61L44.4203 137.13C43.8303 139.27 42.3203 140.6 39.8903 140.6C36.6703 140.6 35.0303 138.25 35.0503 134.8C35.0703 131.35 36.6703 129 39.8903 129C42.3203 129 43.8303 130.33 44.4203 132.47L46.2303 131.99C45.4103 129.13 43.2203 127.3 39.8903 127.3C35.5803 127.3 33.1703 130.36 33.1703 134.8C33.1703 139.24 35.5803 142.3 39.8903 142.3ZM48.4234 142H50.2034V136.68H54.4134L56.9934 142H59.0334L56.2534 136.29C57.8834 135.61 58.7334 134.04 58.7334 132.14C58.7334 129.85 57.5034 128.04 55.1734 127.68C54.8034 127.62 54.3934 127.6 54.1134 127.6H48.4234V142ZM50.2034 134.99V129.29H54.0534C54.3034 129.29 54.6534 129.31 54.9534 129.38C56.3334 129.69 56.9134 130.94 56.9134 132.14C56.9134 133.34 56.3334 134.59 54.9534 134.9C54.6534 134.97 54.3034 134.99 54.0534 134.99H50.2034ZM65.2298 131.2V146.8H67.0098V141.39C67.7198 141.96 68.7098 142.3 69.9398 142.3C72.9898 142.3 74.8398 140.57 74.8398 137.95C74.8398 135.74 73.4398 134.44 72.0498 134.09C73.0998 133.58 73.6098 132.5 73.6098 131.22C73.6098 128.84 71.8598 127.3 69.3698 127.3C67.5098 127.3 65.9798 128.16 65.4498 129.78C65.2998 130.23 65.2298 130.71 65.2298 131.2ZM67.0498 137.71V131.86C67.0498 131.44 67.0698 130.8 67.2798 130.28C67.6398 129.35 68.5198 128.99 69.4098 128.99C70.7898 128.99 71.7898 129.82 71.7898 131.24C71.7898 132.67 70.7898 133.4 69.4198 133.54V135.14C71.6098 135.18 73.0298 136.1 73.0298 137.87C73.0298 139.52 71.7898 140.61 70.0198 140.61C68.7698 140.61 67.5298 140.04 67.1998 139.01C67.0798 138.64 67.0498 138.1 67.0498 137.71Z" fill="#110529"/>
    <path d="M667.142 37.189C669.025 37.189 670.509 35.796 670.509 33.871C670.509 32.233 669.501 30.924 667.87 30.707L670.362 28.313V26.92H664.3V28.313H668.57L665.49 31.036L666.176 32.191C666.463 32.037 666.806 31.939 667.128 31.939C668.248 31.939 669.011 32.751 669.011 33.871C669.011 34.984 668.248 35.789 667.142 35.803C666.316 35.81 665.581 35.341 665.315 34.466L663.901 34.858C664.328 36.293 665.644 37.189 667.142 37.189ZM672.564 29.629L672.473 30.28C673.481 30.462 674.02 29.846 674.02 28.747V26.92H672.473V28.607H673.278C673.348 29.202 673.173 29.678 672.564 29.629ZM681.34 37H682.803V28.299H686.156V26.92H677.987V28.299H681.34V37ZM691.399 37.21C694.332 37.21 695.998 35.166 695.998 32.359C695.998 32.289 695.991 31.939 695.97 31.764H692.456V32.94H694.416C694.213 34.809 693.212 35.838 691.483 35.817C689.341 35.803 688.263 34.27 688.27 31.96C688.277 29.65 689.341 28.089 691.483 28.103C692.869 28.117 693.793 28.887 694.199 30.091L695.683 29.825C695.165 27.886 693.765 26.717 691.399 26.717C688.641 26.717 686.716 28.705 686.716 31.96C686.716 35.264 688.697 37.21 691.399 37.21ZM696.42 37H697.939L698.674 34.725H702.811L703.56 37H705.079L701.803 26.92H699.696L696.42 37ZM699.122 33.353L700.732 28.383L702.363 33.353H699.122ZM710.184 37.21C713.117 37.21 714.783 35.166 714.783 32.359C714.783 32.289 714.776 31.939 714.755 31.764H711.241V32.94H713.201C712.998 34.809 711.997 35.838 710.268 35.817C708.126 35.803 707.048 34.27 707.055 31.96C707.062 29.65 708.126 28.089 710.268 28.103C711.654 28.117 712.578 28.887 712.984 30.091L714.468 29.825C713.95 27.886 712.55 26.717 710.184 26.717C707.426 26.717 705.501 28.705 705.501 31.96C705.501 35.264 707.482 37.21 710.184 37.21ZM715.205 37H716.724L717.459 34.725H721.596L722.345 37H723.864L720.588 26.92H718.481L715.205 37ZM717.907 33.353L719.517 28.383L721.148 33.353H717.907ZM729.053 37.21C731.377 37.21 732.938 35.943 733.533 33.955L732.049 33.556C731.65 34.963 730.649 35.817 729.053 35.817C726.911 35.817 725.819 34.27 725.833 31.96C725.84 29.65 726.911 28.103 729.053 28.103C730.649 28.103 731.65 28.957 732.049 30.364L733.533 29.965C732.938 27.977 731.377 26.71 729.053 26.71C726.029 26.71 724.286 28.845 724.286 31.96C724.286 35.075 726.029 37.21 729.053 37.21ZM739.196 37.21C742.129 37.21 743.795 35.166 743.795 32.359C743.795 32.289 743.788 31.939 743.767 31.764H740.253V32.94H742.213C742.01 34.809 741.009 35.838 739.28 35.817C737.138 35.803 736.06 34.27 736.067 31.96C736.074 29.65 737.138 28.089 739.28 28.103C740.666 28.117 741.59 28.887 741.996 30.091L743.48 29.825C742.962 27.886 741.562 26.717 739.196 26.717C736.438 26.717 734.513 28.705 734.513 31.96C734.513 35.264 736.494 37.21 739.196 37.21ZM749.397 37.21C751.721 37.21 753.282 35.943 753.877 33.955L752.393 33.556C751.994 34.963 750.993 35.817 749.397 35.817C747.255 35.817 746.163 34.27 746.177 31.96C746.184 29.65 747.255 28.103 749.397 28.103C750.993 28.103 751.994 28.957 752.393 30.364L753.877 29.965C753.282 27.977 751.721 26.71 749.397 26.71C746.373 26.71 744.63 28.845 744.63 31.96C744.63 35.075 746.373 37.21 749.397 37.21ZM754.443 37H755.962L756.697 34.725H760.834L761.583 37H763.102L759.826 26.92H757.719L754.443 37ZM757.145 33.353L758.755 28.383L760.386 33.353H757.145ZM764.123 37H765.642L766.377 34.725H770.514L771.263 37H772.782L769.506 26.92H767.399L764.123 37ZM766.825 33.353L768.435 28.383L770.066 33.353H766.825ZM777.971 37.21C780.295 37.21 781.856 35.943 782.451 33.955L780.967 33.556C780.568 34.963 779.567 35.817 777.971 35.817C775.829 35.817 774.737 34.27 774.751 31.96C774.758 29.65 775.829 28.103 777.971 28.103C779.567 28.103 780.568 28.957 780.967 30.364L782.451 29.965C781.856 27.977 780.295 26.71 777.971 26.71C774.947 26.71 773.204 28.845 773.204 31.96C773.204 35.075 774.947 37.21 777.971 37.21ZM786.504 37H787.967V28.299H791.32V26.92H783.151V28.299H786.504V37ZM791.467 37H792.986L793.721 34.725H797.858L798.607 37H800.126L796.85 26.92H794.743L791.467 37ZM794.169 33.353L795.779 28.383L797.41 33.353H794.169ZM803.06 37H804.523V28.299H807.876V26.92H799.707V28.299H803.06V37ZM813.12 37.21C816.053 37.21 817.719 35.166 817.719 32.359C817.719 32.289 817.712 31.939 817.691 31.764H814.177V32.94H816.137C815.934 34.809 814.933 35.838 813.204 35.817C811.062 35.803 809.984 34.27 809.991 31.96C809.998 29.65 811.062 28.089 813.204 28.103C814.59 28.117 815.514 28.887 815.92 30.091L817.404 29.825C816.886 27.886 815.486 26.717 813.12 26.717C810.362 26.717 808.437 28.705 808.437 31.96C808.437 35.264 810.418 37.21 813.12 37.21ZM823.237 37.21C826.17 37.21 827.836 35.166 827.836 32.359C827.836 32.289 827.829 31.939 827.808 31.764H824.294V32.94H826.254C826.051 34.809 825.05 35.838 823.321 35.817C821.179 35.803 820.101 34.27 820.108 31.96C820.115 29.65 821.179 28.089 823.321 28.103C824.707 28.117 825.631 28.887 826.037 30.091L827.521 29.825C827.003 27.886 825.603 26.717 823.237 26.717C820.479 26.717 818.554 28.705 818.554 31.96C818.554 35.264 820.535 37.21 823.237 37.21ZM831.471 37H832.934V28.299H836.287V26.92H828.118V28.299H831.471V37ZM842.775 37.21C844.658 37.21 846.275 35.705 846.275 33.829C846.275 31.939 844.889 30.525 843.006 30.525C842.411 30.525 841.781 30.714 841.284 31.071L841.452 28.299H845.582V26.92H840.143L839.835 32.219L841.109 32.667C841.424 32.247 841.991 31.855 842.817 31.855C843.895 31.855 844.798 32.723 844.798 33.829C844.798 34.907 843.923 35.796 842.817 35.796C841.977 35.796 841.144 35.229 840.913 34.333L839.506 34.711C839.919 36.181 841.221 37.21 842.775 37.21ZM848.179 29.629L848.088 30.28C849.096 30.462 849.635 29.846 849.635 28.747V26.92H848.088V28.607H848.893C848.963 29.202 848.788 29.678 848.179 29.629Z" fill="#110529"/>
    <path d="M300 184L299.293 184.707L298.586 184L299.293 183.293L300 184ZM307.293 175.293L308 174.586L309.414 176L308.707 176.707L307.293 175.293ZM308.707 191.293L309.414 192L308 193.414L307.293 192.707L308.707 191.293ZM310 185L300 185L300 183L310 183L310 185ZM299.293 183.293L307.293 175.293L308.707 176.707L300.707 184.707L299.293 183.293ZM300.707 183.293L308.707 191.293L307.293 192.707L299.293 184.707L300.707 183.293Z" fill="#110529"/>
    <path d="M511.5 184H310" stroke="#110529" stroke-width="2"/>
    <rect width="57" height="20" transform="translate(511.5 174)" fill="white"/>
    <path d="M520.636 190H522.084V178.48H520.636L518.468 179.776V181.368L520.636 180.056V190ZM528.536 190.24C530.68 190.24 532.496 188.504 532.496 186.376C532.496 184.232 530.872 182.584 528.736 182.584C527.96 182.584 527.184 182.848 526.584 183.328L526.792 179.832H531.696V178.48H525.512L525.16 184.504L526.424 184.984C526.84 184.384 527.56 183.896 528.576 183.896C529.92 183.896 531.064 184.984 531.064 186.376C531.064 187.728 529.976 188.856 528.576 188.856C527.504 188.856 526.464 188.144 526.176 187.008L524.808 187.376C525.272 189.056 526.752 190.24 528.536 190.24ZM538.297 190.24C540.537 190.24 542.185 188.592 542.185 186.352V182.128C542.185 179.888 540.537 178.24 538.297 178.24C536.057 178.24 534.409 179.888 534.409 182.128V186.352C534.409 188.592 536.057 190.24 538.297 190.24ZM535.857 186.432V182.04C535.857 180.688 536.945 179.6 538.297 179.6C539.649 179.6 540.737 180.688 540.737 182.04V186.432C540.737 187.784 539.649 188.872 538.297 188.872C536.945 188.872 535.857 187.784 535.857 186.432ZM548.393 190.24C550.809 190.24 552.265 188.264 552.265 185.672C552.265 183.08 550.801 181.12 548.401 181.12C547.321 181.12 546.465 181.496 545.849 182.144V178.48H544.417V190H545.689V189.024C546.321 189.784 547.225 190.24 548.393 190.24ZM545.689 185.672C545.689 183.76 546.489 182.424 548.177 182.424C549.937 182.424 550.753 183.848 550.753 185.672C550.753 187.512 549.921 188.936 548.217 188.936C546.473 188.936 545.689 187.568 545.689 185.672ZM557.986 190.24C560.402 190.24 561.858 188.264 561.858 185.672C561.858 183.08 560.394 181.12 557.994 181.12C556.818 181.12 555.914 181.568 555.282 182.328V181.36H554.01V193.84H555.442V189.2C556.058 189.856 556.914 190.24 557.986 190.24ZM555.282 185.672C555.282 183.76 556.082 182.424 557.77 182.424C559.53 182.424 560.346 183.848 560.346 185.672C560.346 187.512 559.514 188.936 557.81 188.936C556.066 188.936 555.282 187.568 555.282 185.672Z" fill="#110529"/>
    <path d="M770 184H568.5" stroke="#110529" stroke-width="2"/>
    <path d="M778.62 190H780.044V185.744H783.412L785.476 190H787.108L784.884 185.432C786.188 184.888 786.868 183.632 786.868 182.112C786.868 180.28 785.884 178.832 784.02 178.544C783.724 178.496 783.396 178.48 783.172 178.48H778.62V190ZM780.044 184.392V179.832H783.124C783.324 179.832 783.604 179.848 783.844 179.904C784.948 180.152 785.412 181.152 785.412 182.112C785.412 183.072 784.948 184.072 783.844 184.32C783.604 184.376 783.324 184.392 783.124 184.392H780.044ZM790.878 190H792.326V178.48H790.878L788.71 179.776V181.368L790.878 180.056V190Z" fill="#110529"/>
    <rect x="770" y="172" width="32" height="24" rx="1" stroke="#110529" stroke-width="2"/>
    <path d="M300 344L299.293 344.707L298.586 344L299.293 343.293L300 344ZM307.293 335.293L308 334.586L309.414 336L308.707 336.707L307.293 335.293ZM308.707 351.293L309.414 352L308 353.414L307.293 352.707L308.707 351.293ZM310 345L300 345L300 343L310 343L310 345ZM299.293 343.293L307.293 335.293L308.707 336.707L300.707 344.707L299.293 343.293ZM300.707 343.293L308.707 351.293L307.293 352.707L299.293 344.707L300.707 343.293Z" fill="#110529"/>
    <path d="M478.5 344H310" stroke="#110529" stroke-width="2"/>
    <rect width="57" height="20" transform="translate(478.5 334)" fill="white"/>
    <path d="M487.636 350H489.084V338.48H487.636L485.468 339.776V341.368L487.636 340.056V350ZM495.536 350.24C497.68 350.24 499.496 348.504 499.496 346.376C499.496 344.232 497.872 342.584 495.736 342.584C494.96 342.584 494.184 342.848 493.584 343.328L493.792 339.832H498.696V338.48H492.512L492.16 344.504L493.424 344.984C493.84 344.384 494.56 343.896 495.576 343.896C496.92 343.896 498.064 344.984 498.064 346.376C498.064 347.728 496.976 348.856 495.576 348.856C494.504 348.856 493.464 348.144 493.176 347.008L491.808 347.376C492.272 349.056 493.752 350.24 495.536 350.24ZM505.297 350.24C507.537 350.24 509.185 348.592 509.185 346.352V342.128C509.185 339.888 507.537 338.24 505.297 338.24C503.057 338.24 501.409 339.888 501.409 342.128V346.352C501.409 348.592 503.057 350.24 505.297 350.24ZM502.857 346.432V342.04C502.857 340.688 503.945 339.6 505.297 339.6C506.649 339.6 507.737 340.688 507.737 342.04V346.432C507.737 347.784 506.649 348.872 505.297 348.872C503.945 348.872 502.857 347.784 502.857 346.432ZM515.393 350.24C517.809 350.24 519.265 348.264 519.265 345.672C519.265 343.08 517.801 341.12 515.401 341.12C514.321 341.12 513.465 341.496 512.849 342.144V338.48H511.417V350H512.689V349.024C513.321 349.784 514.225 350.24 515.393 350.24ZM512.689 345.672C512.689 343.76 513.489 342.424 515.177 342.424C516.937 342.424 517.753 343.848 517.753 345.672C517.753 347.512 516.921 348.936 515.217 348.936C513.473 348.936 512.689 347.568 512.689 345.672ZM524.986 350.24C527.402 350.24 528.858 348.264 528.858 345.672C528.858 343.08 527.394 341.12 524.994 341.12C523.818 341.12 522.914 341.568 522.282 342.328V341.36H521.01V353.84H522.442V349.2C523.058 349.856 523.914 350.24 524.986 350.24ZM522.282 345.672C522.282 343.76 523.082 342.424 524.77 342.424C526.53 342.424 527.346 343.848 527.346 345.672C527.346 347.512 526.514 348.936 524.81 348.936C523.066 348.936 522.282 347.568 522.282 345.672Z" fill="#110529"/>
    <path d="M704 344H535.5" stroke="#110529" stroke-width="2"/>
    <path d="M712.62 350H714.044V345.744H717.412L719.476 350H721.108L718.884 345.432C720.188 344.888 720.868 343.632 720.868 342.112C720.868 340.28 719.884 338.832 718.02 338.544C717.724 338.496 717.396 338.48 717.172 338.48H712.62V350ZM714.044 344.392V339.832H717.124C717.324 339.832 717.604 339.848 717.844 339.904C718.948 340.152 719.412 341.152 719.412 342.112C719.412 343.072 718.948 344.072 717.844 344.32C717.604 344.376 717.324 344.392 717.124 344.392H714.044ZM724.878 350H726.326V338.48H724.878L722.71 339.776V341.368L724.878 340.056V350Z" fill="#110529"/>
    <rect x="704" y="332" width="32" height="24" rx="1" stroke="#110529" stroke-width="2"/>
    <path d="M103.12 214H104.544V209.744H107.912L109.976 214H111.608L109.384 209.432C110.688 208.888 111.368 207.632 111.368 206.112C111.368 204.28 110.384 202.832 108.52 202.544C108.224 202.496 107.896 202.48 107.672 202.48H103.12V214ZM104.544 208.392V203.832H107.624C107.824 203.832 108.104 203.848 108.344 203.904C109.448 204.152 109.912 205.152 109.912 206.112C109.912 207.072 109.448 208.072 108.344 208.32C108.104 208.376 107.824 208.392 107.624 208.392H104.544ZM113.05 213.992H120.706V212.632H115.242L118.954 209.296C120.138 208.248 120.706 207.488 120.706 205.976C120.706 203.856 119.09 202.24 116.954 202.24C114.738 202.24 113.106 203.784 113.106 205.952H114.562C114.546 204.696 115.554 203.6 116.93 203.6C118.258 203.6 119.25 204.632 119.25 205.96C119.25 206.688 119.018 207.352 118.17 208.112L113.058 212.712L113.05 213.992Z" fill="#110529"/>
    <rect x="96" y="196" width="32" height="24" rx="1" stroke="#110529" stroke-width="2"/>
    <path d="M296.5 208H128" stroke="#110529" stroke-width="2"/>
    <rect width="53" height="20" transform="translate(296.5 198)" fill="white"/>
    <path d="M303.636 214H305.084V202.48H303.636L301.468 203.776V205.368L303.636 204.056V214ZM311.536 214.24C313.68 214.24 315.496 212.504 315.496 210.376C315.496 208.232 313.872 206.584 311.736 206.584C310.96 206.584 310.184 206.848 309.584 207.328L309.792 203.832H314.696V202.48H308.512L308.16 208.504L309.424 208.984C309.84 208.384 310.56 207.896 311.576 207.896C312.92 207.896 314.064 208.984 314.064 210.376C314.064 211.728 312.976 212.856 311.576 212.856C310.504 212.856 309.464 212.144 309.176 211.008L307.808 211.376C308.272 213.056 309.752 214.24 311.536 214.24ZM321.297 214.24C323.537 214.24 325.185 212.592 325.185 210.352V206.128C325.185 203.888 323.537 202.24 321.297 202.24C319.057 202.24 317.409 203.888 317.409 206.128V210.352C317.409 212.592 319.057 214.24 321.297 214.24ZM318.857 210.432V206.04C318.857 204.688 319.945 203.6 321.297 203.6C322.649 203.6 323.737 204.688 323.737 206.04V210.432C323.737 211.784 322.649 212.872 321.297 212.872C319.945 212.872 318.857 211.784 318.857 210.432ZM331.393 214.24C333.809 214.24 335.265 212.264 335.265 209.672C335.265 207.08 333.801 205.12 331.401 205.12C330.321 205.12 329.465 205.496 328.849 206.144V202.48H327.417V214H328.689V213.024C329.321 213.784 330.225 214.24 331.393 214.24ZM328.689 209.672C328.689 207.76 329.489 206.424 331.177 206.424C332.937 206.424 333.753 207.848 333.753 209.672C333.753 211.512 332.921 212.936 331.217 212.936C329.473 212.936 328.689 211.568 328.689 209.672ZM340.986 214.24C343.402 214.24 344.858 212.264 344.858 209.672C344.858 207.08 343.394 205.12 340.994 205.12C339.818 205.12 338.914 205.568 338.282 206.328V205.36H337.01V217.84H338.442V213.2C339.058 213.856 339.914 214.24 340.986 214.24ZM338.282 209.672C338.282 207.76 339.082 206.424 340.77 206.424C342.53 206.424 343.346 207.848 343.346 209.672C343.346 211.512 342.514 212.936 340.81 212.936C339.066 212.936 338.282 211.568 338.282 209.672Z" fill="#110529"/>
    <path d="M518 208H349.5" stroke="#110529" stroke-width="2"/>
    <path d="M528 208L528.707 207.293L529.414 208L528.707 208.707L528 208ZM520.707 216.707L520 217.414L518.586 216L519.293 215.293L520.707 216.707ZM519.293 200.707L518.586 200L520 198.586L520.707 199.293L519.293 200.707ZM518 207L528 207L528 209L518 209L518 207ZM528.707 208.707L520.707 216.707L519.293 215.293L527.293 207.293L528.707 208.707ZM527.293 208.707L519.293 200.707L520.707 199.293L528.707 207.293L527.293 208.707Z" fill="#110529"/>
    <path d="M103.12 374H104.544V369.744H107.912L109.976 374H111.608L109.384 369.432C110.688 368.888 111.368 367.632 111.368 366.112C111.368 364.28 110.384 362.832 108.52 362.544C108.224 362.496 107.896 362.48 107.672 362.48H103.12V374ZM104.544 368.392V363.832H107.624C107.824 363.832 108.104 363.848 108.344 363.904C109.448 364.152 109.912 365.152 109.912 366.112C109.912 367.072 109.448 368.072 108.344 368.32C108.104 368.376 107.824 368.392 107.624 368.392H104.544ZM113.05 373.992H120.706V372.632H115.242L118.954 369.296C120.138 368.248 120.706 367.488 120.706 365.976C120.706 363.856 119.09 362.24 116.954 362.24C114.738 362.24 113.106 363.784 113.106 365.952H114.562C114.546 364.696 115.554 363.6 116.93 363.6C118.258 363.6 119.25 364.632 119.25 365.96C119.25 366.688 119.018 367.352 118.17 368.112L113.058 372.712L113.05 373.992Z" fill="#110529"/>
    <rect x="96" y="356" width="32" height="24" rx="1" stroke="#110529" stroke-width="2"/>
    <path d="M296.5 368H128" stroke="#110529" stroke-width="2"/>
    <rect width="53" height="20" transform="translate(296.5 358)" fill="white"/>
    <path d="M303.636 374H305.084V362.48H303.636L301.468 363.776V365.368L303.636 364.056V374ZM311.536 374.24C313.68 374.24 315.496 372.504 315.496 370.376C315.496 368.232 313.872 366.584 311.736 366.584C310.96 366.584 310.184 366.848 309.584 367.328L309.792 363.832H314.696V362.48H308.512L308.16 368.504L309.424 368.984C309.84 368.384 310.56 367.896 311.576 367.896C312.92 367.896 314.064 368.984 314.064 370.376C314.064 371.728 312.976 372.856 311.576 372.856C310.504 372.856 309.464 372.144 309.176 371.008L307.808 371.376C308.272 373.056 309.752 374.24 311.536 374.24ZM321.297 374.24C323.537 374.24 325.185 372.592 325.185 370.352V366.128C325.185 363.888 323.537 362.24 321.297 362.24C319.057 362.24 317.409 363.888 317.409 366.128V370.352C317.409 372.592 319.057 374.24 321.297 374.24ZM318.857 370.432V366.04C318.857 364.688 319.945 363.6 321.297 363.6C322.649 363.6 323.737 364.688 323.737 366.04V370.432C323.737 371.784 322.649 372.872 321.297 372.872C319.945 372.872 318.857 371.784 318.857 370.432ZM331.393 374.24C333.809 374.24 335.265 372.264 335.265 369.672C335.265 367.08 333.801 365.12 331.401 365.12C330.321 365.12 329.465 365.496 328.849 366.144V362.48H327.417V374H328.689V373.024C329.321 373.784 330.225 374.24 331.393 374.24ZM328.689 369.672C328.689 367.76 329.489 366.424 331.177 366.424C332.937 366.424 333.753 367.848 333.753 369.672C333.753 371.512 332.921 372.936 331.217 372.936C329.473 372.936 328.689 371.568 328.689 369.672ZM340.986 374.24C343.402 374.24 344.858 372.264 344.858 369.672C344.858 367.08 343.394 365.12 340.994 365.12C339.818 365.12 338.914 365.568 338.282 366.328V365.36H337.01V377.84H338.442V373.2C339.058 373.856 339.914 374.24 340.986 374.24ZM338.282 369.672C338.282 367.76 339.082 366.424 340.77 366.424C342.53 366.424 343.346 367.848 343.346 369.672C343.346 371.512 342.514 372.936 340.81 372.936C339.066 372.936 338.282 371.568 338.282 369.672Z" fill="#110529"/>
    <path d="M518 368H349.5" stroke="#110529" stroke-width="2"/>
    <path d="M528 368L528.707 367.293L529.414 368L528.707 368.707L528 368ZM520.707 376.707L520 377.414L518.586 376L519.293 375.293L520.707 376.707ZM519.293 360.707L518.586 360L520 358.586L520.707 359.293L519.293 360.707ZM518 367L528 367L528 369L518 369L518 367ZM528.707 368.707L520.707 376.707L519.293 375.293L527.293 367.293L528.707 368.707ZM527.293 368.707L519.293 360.707L520.707 359.293L528.707 367.293L527.293 368.707Z" fill="#110529"/>
    <defs>
        <filter id="filter0_i_5552_34988" x="94.7373" y="107" width="222.263" height="54" filterUnits="userSpaceOnUse" color-interpolation-filters="sRGB">
            <feFlood flood-opacity="0" result="BackgroundImageFix"/>
            <feBlend mode="normal" in="SourceGraphic" in2="BackgroundImageFix" result="shape"/>
            <feColorMatrix in="SourceAlpha" type="matrix" values="0 0 0 0 0 0 0 0 0 0 0 0 0 0 0 0 0 0 127 0" result="hardAlpha"/>
            <feOffset dx="-8" dy="-4"/>
            <feComposite in2="hardAlpha" operator="arithmetic" k2="-1" k3="1"/>
            <feColorMatrix type="matrix" values="0 0 0 0 0.0666667 0 0 0 0 0.0196078 0 0 0 0 0.160784 0 0 0 0.16 0"/>
            <feBlend mode="normal" in2="shape" result="effect1_innerShadow_5552_34988"/>
        </filter>
        <filter id="filter1_i_5552_34988" x="315" y="107" width="32" height="54" filterUnits="userSpaceOnUse" color-interpolation-filters="sRGB">
            <feFlood flood-opacity="0" result="BackgroundImageFix"/>
            <feBlend mode="normal" in="SourceGraphic" in2="BackgroundImageFix" result="shape"/>
            <feColorMatrix in="SourceAlpha" type="matrix" values="0 0 0 0 0 0 0 0 0 0 0 0 0 0 0 0 0 0 127 0" result="hardAlpha"/>
            <feOffset dx="-8" dy="-4"/>
            <feComposite in2="hardAlpha" operator="arithmetic" k2="-1" k3="1"/>
            <feColorMatrix type="matrix" values="0 0 0 0 0.0666667 0 0 0 0 0.0196078 0 0 0 0 0.160784 0 0 0 0.16 0"/>
            <feBlend mode="normal" in2="shape" result="effect1_innerShadow_5552_34988"/>
        </filter>
        <filter id="filter2_i_5552_34988" x="381" y="107" width="32" height="54" filterUnits="userSpaceOnUse" color-interpolation-filters="sRGB">
            <feFlood flood-opacity="0" result="BackgroundImageFix"/>
            <feBlend mode="normal" in="SourceGraphic" in2="BackgroundImageFix" result="shape"/>
            <feColorMatrix in="SourceAlpha" type="matrix" values="0 0 0 0 0 0 0 0 0 0 0 0 0 0 0 0 0 0 127 0" result="hardAlpha"/>
            <feOffset dx="-8" dy="-4"/>
            <feComposite in2="hardAlpha" operator="arithmetic" k2="-1" k3="1"/>
            <feColorMatrix type="matrix" values="0 0 0 0 0.0666667 0 0 0 0 0.0196078 0 0 0 0 0.160784 0 0 0 0.16 0"/>
            <feBlend mode="normal" in2="shape" result="effect1_innerShadow_5552_34988"/>
        </filter>
        <filter id="filter3_i_5552_34988" x="345" y="107" width="38" height="54" filterUnits="userSpaceOnUse" color-interpolation-filters="sRGB">
            <feFlood flood-opacity="0" result="BackgroundImageFix"/>
            <feBlend mode="normal" in="SourceGraphic" in2="BackgroundImageFix" result="shape"/>
            <feColorMatrix in="SourceAlpha" type="matrix" values="0 0 0 0 0 0 0 0 0 0 0 0 0 0 0 0 0 0 127 0" result="hardAlpha"/>
            <feOffset dx="-8" dy="-4"/>
            <feComposite in2="hardAlpha" operator="arithmetic" k2="-1" k3="1"/>
            <feColorMatrix type="matrix" values="0 0 0 0 0.0666667 0 0 0 0 0.0196078 0 0 0 0 0.160784 0 0 0 0.16 0"/>
            <feBlend mode="normal" in2="shape" result="effect1_innerShadow_5552_34988"/>
        </filter>
        <filter id="filter4_i_5552_34988" x="411" y="107" width="146" height="54" filterUnits="userSpaceOnUse" color-interpolation-filters="sRGB">
            <feFlood flood-opacity="0" result="BackgroundImageFix"/>
            <feBlend mode="normal" in="SourceGraphic" in2="BackgroundImageFix" result="shape"/>
            <feColorMatrix in="SourceAlpha" type="matrix" values="0 0 0 0 0 0 0 0 0 0 0 0 0 0 0 0 0 0 127 0" result="hardAlpha"/>
            <feOffset dx="-8" dy="-4"/>
            <feComposite in2="hardAlpha" operator="arithmetic" k2="-1" k3="1"/>
            <feColorMatrix type="matrix" values="0 0 0 0 0.0666667 0 0 0 0 0.0196078 0 0 0 0 0.160784 0 0 0 0.16 0"/>
            <feBlend mode="normal" in2="shape" result="effect1_innerShadow_5552_34988"/>
        </filter>
        <filter id="filter5_i_5552_34988" x="555" y="107" width="66" height="54" filterUnits="userSpaceOnUse" color-interpolation-filters="sRGB">
            <feFlood flood-opacity="0" result="BackgroundImageFix"/>
            <feBlend mode="normal" in="SourceGraphic" in2="BackgroundImageFix" result="shape"/>
            <feColorMatrix in="SourceAlpha" type="matrix" values="0 0 0 0 0 0 0 0 0 0 0 0 0 0 0 0 0 0 127 0" result="hardAlpha"/>
            <feOffset dx="-8" dy="-4"/>
            <feComposite in2="hardAlpha" operator="arithmetic" k2="-1" k3="1"/>
            <feColorMatrix type="matrix" values="0 0 0 0 0.0666667 0 0 0 0 0.0196078 0 0 0 0 0.160784 0 0 0 0.16 0"/>
            <feBlend mode="normal" in2="shape" result="effect1_innerShadow_5552_34988"/>
        </filter>
        <filter id="filter6_i_5552_34988" x="619" y="107" width="26" height="54" filterUnits="userSpaceOnUse" color-interpolation-filters="sRGB">
            <feFlood flood-opacity="0" result="BackgroundImageFix"/>
            <feBlend mode="normal" in="SourceGraphic" in2="BackgroundImageFix" result="shape"/>
            <feColorMatrix in="SourceAlpha" type="matrix" values="0 0 0 0 0 0 0 0 0 0 0 0 0 0 0 0 0 0 127 0" result="hardAlpha"/>
            <feOffset dx="-8" dy="-4"/>
            <feComposite in2="hardAlpha" operator="arithmetic" k2="-1" k3="1"/>
            <feColorMatrix type="matrix" values="0 0 0 0 0.0666667 0 0 0 0 0.0196078 0 0 0 0 0.160784 0 0 0 0.16 0"/>
            <feBlend mode="normal" in2="shape" result="effect1_innerShadow_5552_34988"/>
        </filter>
        <filter id="filter7_i_5552_34988" x="643" y="107" width="66" height="54" filterUnits="userSpaceOnUse" color-interpolation-filters="sRGB">
            <feFlood flood-opacity="0" result="BackgroundImageFix"/>
            <feBlend mode="normal" in="SourceGraphic" in2="BackgroundImageFix" result="shape"/>
            <feColorMatrix in="SourceAlpha" type="matrix" values="0 0 0 0 0 0 0 0 0 0 0 0 0 0 0 0 0 0 127 0" result="hardAlpha"/>
            <feOffset dx="-8" dy="-4"/>
            <feComposite in2="hardAlpha" operator="arithmetic" k2="-1" k3="1"/>
            <feColorMatrix type="matrix" values="0 0 0 0 0.0666667 0 0 0 0 0.0196078 0 0 0 0 0.160784 0 0 0 0.16 0"/>
            <feBlend mode="normal" in2="shape" result="effect1_innerShadow_5552_34988"/>
        </filter>
        <filter id="filter8_i_5552_34988" x="707" y="107" width="66" height="54" filterUnits="userSpaceOnUse" color-interpolation-filters="sRGB">
            <feFlood flood-opacity="0" result="BackgroundImageFix"/>
            <feBlend mode="normal" in="SourceGraphic" in2="BackgroundImageFix" result="shape"/>
            <feColorMatrix in="SourceAlpha" type="matrix" values="0 0 0 0 0 0 0 0 0 0 0 0 0 0 0 0 0 0 127 0" result="hardAlpha"/>
            <feOffset dx="-8" dy="-4"/>
            <feComposite in2="hardAlpha" operator="arithmetic" k2="-1" k3="1"/>
            <feColorMatrix type="matrix" values="0 0 0 0 0.0666667 0 0 0 0 0.0196078 0 0 0 0 0.160784 0 0 0 0.16 0"/>
            <feBlend mode="normal" in2="shape" result="effect1_innerShadow_5552_34988"/>
        </filter>
        <filter id="filter9_i_5552_34988" x="771" y="107" width="32" height="54" filterUnits="userSpaceOnUse" color-interpolation-filters="sRGB">
            <feFlood flood-opacity="0" result="BackgroundImageFix"/>
            <feBlend mode="normal" in="SourceGraphic" in2="BackgroundImageFix" result="shape"/>
            <feColorMatrix in="SourceAlpha" type="matrix" values="0 0 0 0 0 0 0 0 0 0 0 0 0 0 0 0 0 0 127 0" result="hardAlpha"/>
            <feOffset dx="-8" dy="-4"/>
            <feComposite in2="hardAlpha" operator="arithmetic" k2="-1" k3="1"/>
            <feColorMatrix type="matrix" values="0 0 0 0 0.0666667 0 0 0 0 0.0196078 0 0 0 0 0.160784 0 0 0 0.16 0"/>
            <feBlend mode="normal" in2="shape" result="effect1_innerShadow_5552_34988"/>
        </filter>
        <filter id="filter10_i_5552_34988" x="94.7373" y="267" width="222.263" height="54" filterUnits="userSpaceOnUse" color-interpolation-filters="sRGB">
            <feFlood flood-opacity="0" result="BackgroundImageFix"/>
            <feBlend mode="normal" in="SourceGraphic" in2="BackgroundImageFix" result="shape"/>
            <feColorMatrix in="SourceAlpha" type="matrix" values="0 0 0 0 0 0 0 0 0 0 0 0 0 0 0 0 0 0 127 0" result="hardAlpha"/>
            <feOffset dx="-8" dy="-4"/>
            <feComposite in2="hardAlpha" operator="arithmetic" k2="-1" k3="1"/>
            <feColorMatrix type="matrix" values="0 0 0 0 0.0666667 0 0 0 0 0.0196078 0 0 0 0 0.160784 0 0 0 0.16 0"/>
            <feBlend mode="normal" in2="shape" result="effect1_innerShadow_5552_34988"/>
        </filter>
        <filter id="filter11_i_5552_34988" x="315" y="267" width="32" height="54" filterUnits="userSpaceOnUse" color-interpolation-filters="sRGB">
            <feFlood flood-opacity="0" result="BackgroundImageFix"/>
            <feBlend mode="normal" in="SourceGraphic" in2="BackgroundImageFix" result="shape"/>
            <feColorMatrix in="SourceAlpha" type="matrix" values="0 0 0 0 0 0 0 0 0 0 0 0 0 0 0 0 0 0 127 0" result="hardAlpha"/>
            <feOffset dx="-8" dy="-4"/>
            <feComposite in2="hardAlpha" operator="arithmetic" k2="-1" k3="1"/>
            <feColorMatrix type="matrix" values="0 0 0 0 0.0666667 0 0 0 0 0.0196078 0 0 0 0 0.160784 0 0 0 0.16 0"/>
            <feBlend mode="normal" in2="shape" result="effect1_innerShadow_5552_34988"/>
        </filter>
        <filter id="filter12_i_5552_34988" x="345" y="267" width="146" height="54" filterUnits="userSpaceOnUse" color-interpolation-filters="sRGB">
            <feFlood flood-opacity="0" result="BackgroundImageFix"/>
            <feBlend mode="normal" in="SourceGraphic" in2="BackgroundImageFix" result="shape"/>
            <feColorMatrix in="SourceAlpha" type="matrix" values="0 0 0 0 0 0 0 0 0 0 0 0 0 0 0 0 0 0 127 0" result="hardAlpha"/>
            <feOffset dx="-8" dy="-4"/>
            <feComposite in2="hardAlpha" operator="arithmetic" k2="-1" k3="1"/>
            <feColorMatrix type="matrix" values="0 0 0 0 0.0666667 0 0 0 0 0.0196078 0 0 0 0 0.160784 0 0 0 0.16 0"/>
            <feBlend mode="normal" in2="shape" result="effect1_innerShadow_5552_34988"/>
        </filter>
        <filter id="filter13_i_5552_34988" x="489" y="267" width="66" height="54" filterUnits="userSpaceOnUse" color-interpolation-filters="sRGB">
            <feFlood flood-opacity="0" result="BackgroundImageFix"/>
            <feBlend mode="normal" in="SourceGraphic" in2="BackgroundImageFix" result="shape"/>
            <feColorMatrix in="SourceAlpha" type="matrix" values="0 0 0 0 0 0 0 0 0 0 0 0 0 0 0 0 0 0 127 0" result="hardAlpha"/>
            <feOffset dx="-8" dy="-4"/>
            <feComposite in2="hardAlpha" operator="arithmetic" k2="-1" k3="1"/>
            <feColorMatrix type="matrix" values="0 0 0 0 0.0666667 0 0 0 0 0.0196078 0 0 0 0 0.160784 0 0 0 0.16 0"/>
            <feBlend mode="normal" in2="shape" result="effect1_innerShadow_5552_34988"/>
        </filter>
        <filter id="filter14_i_5552_34988" x="553" y="267" width="26" height="54" filterUnits="userSpaceOnUse" color-interpolation-filters="sRGB">
            <feFlood flood-opacity="0" result="BackgroundImageFix"/>
            <feBlend mode="normal" in="SourceGraphic" in2="BackgroundImageFix" result="shape"/>
            <feColorMatrix in="SourceAlpha" type="matrix" values="0 0 0 0 0 0 0 0 0 0 0 0 0 0 0 0 0 0 127 0" result="hardAlpha"/>
            <feOffset dx="-8" dy="-4"/>
            <feComposite in2="hardAlpha" operator="arithmetic" k2="-1" k3="1"/>
            <feColorMatrix type="matrix" values="0 0 0 0 0.0666667 0 0 0 0 0.0196078 0 0 0 0 0.160784 0 0 0 0.16 0"/>
            <feBlend mode="normal" in2="shape" result="effect1_innerShadow_5552_34988"/>
        </filter>
        <filter id="filter15_i_5552_34988" x="577" y="267" width="66" height="54" filterUnits="userSpaceOnUse" color-interpolation-filters="sRGB">
            <feFlood flood-opacity="0" result="BackgroundImageFix"/>
            <feBlend mode="normal" in="SourceGraphic" in2="BackgroundImageFix" result="shape"/>
            <feColorMatrix in="SourceAlpha" type="matrix" values="0 0 0 0 0 0 0 0 0 0 0 0 0 0 0 0 0 0 127 0" result="hardAlpha"/>
            <feOffset dx="-8" dy="-4"/>
            <feComposite in2="hardAlpha" operator="arithmetic" k2="-1" k3="1"/>
            <feColorMatrix type="matrix" values="0 0 0 0 0.0666667 0 0 0 0 0.0196078 0 0 0 0 0.160784 0 0 0 0.16 0"/>
            <feBlend mode="normal" in2="shape" result="effect1_innerShadow_5552_34988"/>
        </filter>
        <filter id="filter16_i_5552_34988" x="641" y="267" width="66" height="54" filterUnits="userSpaceOnUse" color-interpolation-filters="sRGB">
            <feFlood flood-opacity="0" result="BackgroundImageFix"/>
            <feBlend mode="normal" in="SourceGraphic" in2="BackgroundImageFix" result="shape"/>
            <feColorMatrix in="SourceAlpha" type="matrix" values="0 0 0 0 0 0 0 0 0 0 0 0 0 0 0 0 0 0 127 0" result="hardAlpha"/>
            <feOffset dx="-8" dy="-4"/>
            <feComposite in2="hardAlpha" operator="arithmetic" k2="-1" k3="1"/>
            <feColorMatrix type="matrix" values="0 0 0 0 0.0666667 0 0 0 0 0.0196078 0 0 0 0 0.160784 0 0 0 0.16 0"/>
            <feBlend mode="normal" in2="shape" result="effect1_innerShadow_5552_34988"/>
        </filter>
        <filter id="filter17_i_5552_34988" x="705" y="267" width="32" height="54" filterUnits="userSpaceOnUse" color-interpolation-filters="sRGB">
            <feFlood flood-opacity="0" result="BackgroundImageFix"/>
            <feBlend mode="normal" in="SourceGraphic" in2="BackgroundImageFix" result="shape"/>
            <feColorMatrix in="SourceAlpha" type="matrix" values="0 0 0 0 0 0 0 0 0 0 0 0 0 0 0 0 0 0 127 0" result="hardAlpha"/>
            <feOffset dx="-8" dy="-4"/>
            <feComposite in2="hardAlpha" operator="arithmetic" k2="-1" k3="1"/>
            <feColorMatrix type="matrix" values="0 0 0 0 0.0666667 0 0 0 0 0.0196078 0 0 0 0 0.160784 0 0 0 0.16 0"/>
            <feBlend mode="normal" in2="shape" result="effect1_innerShadow_5552_34988"/>
        </filter>
    </defs>
</svg>
