<svg width="960" height="524" viewBox="0 0 960 524" fill="none" xmlns="http://www.w3.org/2000/svg">
    <rect width="960" height="524" fill="#1D1D29"/>
    <path d="M101.969 37.21C101.451 37.21 100.968 37.105 100.52 36.895C100.077 36.6803 99.6963 36.3863 99.379 36.013C99.0617 35.635 98.8353 35.201 98.7 34.711L100.107 34.333C100.186 34.6317 100.322 34.8907 100.513 35.11C100.709 35.3293 100.938 35.4997 101.199 35.621C101.46 35.7377 101.731 35.796 102.011 35.796C102.38 35.796 102.713 35.7073 103.012 35.53C103.315 35.3527 103.553 35.1147 103.726 34.816C103.903 34.5173 103.992 34.1883 103.992 33.829C103.992 33.4603 103.901 33.1267 103.719 32.828C103.542 32.5293 103.301 32.2937 102.998 32.121C102.699 31.9437 102.37 31.855 102.011 31.855C101.6 31.855 101.253 31.9367 100.968 32.1C100.683 32.2633 100.462 32.4523 100.303 32.667L99.029 32.219L99.337 26.92H104.776V28.299H100.086L100.681 27.746L100.436 31.715L100.149 31.344C100.415 31.078 100.732 30.875 101.101 30.735C101.47 30.595 101.836 30.525 102.2 30.525C102.825 30.525 103.383 30.6697 103.873 30.959C104.368 31.2483 104.757 31.6427 105.042 32.142C105.327 32.6367 105.469 33.199 105.469 33.829C105.469 34.4543 105.308 35.0237 104.986 35.537C104.664 36.0457 104.237 36.4517 103.705 36.755C103.173 37.0583 102.594 37.21 101.969 37.21ZM107.282 30.28L107.373 29.629C107.574 29.643 107.73 29.6057 107.842 29.517C107.954 29.4283 108.029 29.3047 108.066 29.146C108.103 28.9873 108.11 28.8077 108.087 28.607H107.282V26.92H108.829V28.747C108.829 29.2977 108.696 29.713 108.43 29.993C108.169 30.273 107.786 30.3687 107.282 30.28ZM114.852 37.21C114.063 37.21 113.365 37.049 112.759 36.727C112.157 36.4003 111.685 35.9453 111.345 35.362C111.004 34.774 110.834 34.0833 110.834 33.29V26.927L112.318 26.92V33.213C112.318 33.6423 112.39 34.0203 112.535 34.347C112.679 34.6737 112.873 34.9467 113.116 35.166C113.358 35.3853 113.629 35.551 113.928 35.663C114.231 35.775 114.539 35.831 114.852 35.831C115.169 35.831 115.477 35.775 115.776 35.663C116.079 35.5463 116.352 35.3783 116.595 35.159C116.837 34.9397 117.029 34.6667 117.169 34.34C117.313 34.0133 117.386 33.6377 117.386 33.213V26.92H118.87V33.29C118.87 34.0787 118.699 34.767 118.359 35.355C118.018 35.943 117.544 36.4003 116.938 36.727C116.336 37.049 115.64 37.21 114.852 37.21ZM123.341 37V28.299H119.988V26.92H128.157V28.299H124.804V37H123.341ZM129.277 37V26.92H133.351C133.449 26.92 133.57 26.9247 133.715 26.934C133.86 26.9387 133.997 26.9527 134.128 26.976C134.688 27.0647 135.155 27.256 135.528 27.55C135.906 27.844 136.188 28.215 136.375 28.663C136.562 29.111 136.655 29.6057 136.655 30.147C136.655 30.9497 136.45 31.6427 136.039 32.226C135.628 32.8047 135.012 33.1663 134.191 33.311L133.596 33.381H130.74V37H129.277ZM135.171 37L133.183 32.898L134.66 32.52L136.844 37H135.171ZM130.74 31.995H133.295C133.388 31.995 133.491 31.9903 133.603 31.981C133.72 31.9717 133.829 31.9553 133.932 31.932C134.231 31.862 134.471 31.7337 134.653 31.547C134.835 31.3557 134.966 31.1363 135.045 30.889C135.124 30.6417 135.164 30.3943 135.164 30.147C135.164 29.8997 135.124 29.6547 135.045 29.412C134.966 29.1647 134.835 28.9477 134.653 28.761C134.471 28.5697 134.231 28.439 133.932 28.369C133.829 28.341 133.72 28.3223 133.603 28.313C133.491 28.3037 133.388 28.299 133.295 28.299H130.74V31.995Z" fill="white" fill-opacity="0.3"/>
    <path d="M144 112V24" stroke="white" stroke-opacity="0.3" stroke-width="2" stroke-linecap="square" stroke-dasharray="6 6"/>
    <path d="M151.442 37V26.92H152.905V35.621H157.469V37H151.442Z" fill="white" fill-opacity="0.3"/>
    <path d="M164 112V24" stroke="white" stroke-opacity="0.3" stroke-width="2" stroke-linecap="square" stroke-dasharray="6 6"/>
    <path d="M173.858 37V26.92H179.829V28.383H175.321V31.225H178.989V32.695H175.321V37H173.858ZM181.09 37V26.92H185.164C185.262 26.92 185.384 26.9247 185.528 26.934C185.673 26.9387 185.811 26.9527 185.941 26.976C186.501 27.0647 186.968 27.256 187.341 27.55C187.719 27.844 188.002 28.215 188.188 28.663C188.375 29.111 188.468 29.6057 188.468 30.147C188.468 30.9497 188.263 31.6427 187.852 32.226C187.442 32.8047 186.826 33.1663 186.004 33.311L185.409 33.381H182.553V37H181.09ZM186.984 37L184.996 32.898L186.473 32.52L188.657 37H186.984ZM182.553 31.995H185.108C185.202 31.995 185.304 31.9903 185.416 31.981C185.533 31.9717 185.643 31.9553 185.745 31.932C186.044 31.862 186.284 31.7337 186.466 31.547C186.648 31.3557 186.779 31.1363 186.858 30.889C186.938 30.6417 186.977 30.3943 186.977 30.147C186.977 29.8997 186.938 29.6547 186.858 29.412C186.779 29.1647 186.648 28.9477 186.466 28.761C186.284 28.5697 186.044 28.439 185.745 28.369C185.643 28.341 185.533 28.3223 185.416 28.313C185.304 28.3037 185.202 28.299 185.108 28.299H182.553V31.995ZM191.953 37V28.53L190.056 29.685V28.054L191.953 26.92H193.444V37H191.953Z" fill="white" fill-opacity="0.3"/>
    <path d="M204 112V24" stroke="white" stroke-opacity="0.3" stroke-width="2" stroke-linecap="square" stroke-dasharray="6 6"/>
    <path d="M213.735 37.21C212.727 37.21 211.868 36.9907 211.159 36.552C210.45 36.1087 209.906 35.4927 209.528 34.704C209.155 33.9153 208.968 33.0007 208.968 31.96C208.968 30.9193 209.155 30.0047 209.528 29.216C209.906 28.4273 210.45 27.8137 211.159 27.375C211.868 26.9317 212.727 26.71 213.735 26.71C214.897 26.71 215.858 27.004 216.619 27.592C217.384 28.18 217.916 28.971 218.215 29.965L216.731 30.364C216.535 29.6593 216.185 29.1063 215.681 28.705C215.182 28.3037 214.533 28.103 213.735 28.103C213.021 28.103 212.426 28.264 211.95 28.586C211.474 28.908 211.115 29.3583 210.872 29.937C210.634 30.5157 210.515 31.19 210.515 31.96C210.51 32.73 210.627 33.4043 210.865 33.983C211.108 34.5617 211.467 35.012 211.943 35.334C212.424 35.656 213.021 35.817 213.735 35.817C214.533 35.817 215.182 35.6163 215.681 35.215C216.185 34.809 216.535 34.256 216.731 33.556L218.215 33.955C217.916 34.949 217.384 35.74 216.619 36.328C215.858 36.916 214.897 37.21 213.735 37.21ZM219.754 37V26.92H222.911C223.005 26.92 223.177 26.9223 223.429 26.927C223.686 26.9317 223.931 26.9503 224.164 26.983C224.953 27.081 225.616 27.3633 226.152 27.83C226.694 28.2967 227.102 28.8893 227.377 29.608C227.653 30.322 227.79 31.106 227.79 31.96C227.79 32.8187 227.653 33.6073 227.377 34.326C227.102 35.04 226.694 35.6303 226.152 36.097C225.616 36.559 224.953 36.839 224.164 36.937C223.931 36.9697 223.686 36.9883 223.429 36.993C223.177 36.9977 223.005 37 222.911 37H219.754ZM221.252 35.607H222.911C223.07 35.607 223.259 35.6023 223.478 35.593C223.698 35.5837 223.891 35.565 224.059 35.537C224.573 35.439 224.988 35.2173 225.305 34.872C225.627 34.522 225.863 34.0927 226.012 33.584C226.162 33.0753 226.236 32.534 226.236 31.96C226.236 31.3673 226.159 30.819 226.005 30.315C225.851 29.8063 225.613 29.3817 225.291 29.041C224.974 28.6957 224.563 28.4763 224.059 28.383C223.891 28.3503 223.695 28.3317 223.471 28.327C223.252 28.3177 223.065 28.313 222.911 28.313H221.252V35.607ZM229.42 37V26.92H233.494C233.592 26.92 233.714 26.9247 233.858 26.934C234.003 26.9387 234.141 26.9527 234.271 26.976C234.831 27.0647 235.298 27.256 235.671 27.55C236.049 27.844 236.332 28.215 236.518 28.663C236.705 29.111 236.798 29.6057 236.798 30.147C236.798 30.9497 236.593 31.6427 236.182 32.226C235.772 32.8047 235.156 33.1663 234.334 33.311L233.739 33.381H230.883V37H229.42ZM235.314 37L233.326 32.898L234.803 32.52L236.987 37H235.314ZM230.883 31.995H233.438C233.532 31.995 233.634 31.9903 233.746 31.981C233.863 31.9717 233.973 31.9553 234.075 31.932C234.374 31.862 234.614 31.7337 234.796 31.547C234.978 31.3557 235.109 31.1363 235.188 30.889C235.268 30.6417 235.307 30.3943 235.307 30.147C235.307 29.8997 235.268 29.6547 235.188 29.412C235.109 29.1647 234.978 28.9477 234.796 28.761C234.614 28.5697 234.374 28.439 234.075 28.369C233.973 28.341 233.863 28.3223 233.746 28.313C233.634 28.3037 233.532 28.299 233.438 28.299H230.883V31.995ZM240.283 37V28.53L238.386 29.685V28.054L240.283 26.92H241.774V37H240.283Z" fill="white" fill-opacity="0.3"/>
    <path d="M248 112V24" stroke="white" stroke-opacity="0.3" stroke-width="2" stroke-linecap="square" stroke-dasharray="6 6"/>
    <path d="M256.703 37V26.92H262.674V28.383H258.166V31.225H261.834V32.695H258.166V37H256.703ZM263.935 37V26.92H268.009C268.107 26.92 268.228 26.9247 268.373 26.934C268.518 26.9387 268.655 26.9527 268.786 26.976C269.346 27.0647 269.813 27.256 270.186 27.55C270.564 27.844 270.846 28.215 271.033 28.663C271.22 29.111 271.313 29.6057 271.313 30.147C271.313 30.9497 271.108 31.6427 270.697 32.226C270.286 32.8047 269.67 33.1663 268.849 33.311L268.254 33.381H265.398V37H263.935ZM269.829 37L267.841 32.898L269.318 32.52L271.502 37H269.829ZM265.398 31.995H267.953C268.046 31.995 268.149 31.9903 268.261 31.981C268.378 31.9717 268.487 31.9553 268.59 31.932C268.889 31.862 269.129 31.7337 269.311 31.547C269.493 31.3557 269.624 31.1363 269.703 30.889C269.782 30.6417 269.822 30.3943 269.822 30.147C269.822 29.8997 269.782 29.6547 269.703 29.412C269.624 29.1647 269.493 28.9477 269.311 28.761C269.129 28.5697 268.889 28.439 268.59 28.369C268.487 28.341 268.378 28.3223 268.261 28.313C268.149 28.3037 268.046 28.299 267.953 28.299H265.398V31.995ZM272.761 36.993L272.768 35.691L277.157 31.757C277.511 31.4443 277.752 31.1457 277.878 30.861C278.008 30.5763 278.074 30.2917 278.074 30.007C278.074 29.6477 277.994 29.3257 277.836 29.041C277.677 28.7517 277.458 28.523 277.178 28.355C276.898 28.187 276.576 28.103 276.212 28.103C275.838 28.103 275.505 28.1917 275.211 28.369C274.921 28.5417 274.695 28.7727 274.532 29.062C274.368 29.3513 274.289 29.664 274.294 30H272.796C272.796 29.3467 272.943 28.775 273.237 28.285C273.535 27.7903 273.944 27.4053 274.462 27.13C274.98 26.85 275.572 26.71 276.24 26.71C276.874 26.71 277.444 26.8547 277.948 27.144C278.452 27.4287 278.848 27.8207 279.138 28.32C279.432 28.8193 279.579 29.3887 279.579 30.028C279.579 30.49 279.518 30.882 279.397 31.204C279.275 31.526 279.093 31.8247 278.851 32.1C278.608 32.3753 278.305 32.674 277.941 32.996L274.553 36.02L274.392 35.6H279.579V36.993H272.761Z" fill="white" fill-opacity="0.3"/>
    <path d="M288 112V24" stroke="white" stroke-opacity="0.3" stroke-width="2" stroke-linecap="square" stroke-dasharray="6 6"/>
    <path d="M296.58 37.21C295.572 37.21 294.713 36.9907 294.004 36.552C293.294 36.1087 292.751 35.4927 292.373 34.704C291.999 33.9153 291.813 33.0007 291.813 31.96C291.813 30.9193 291.999 30.0047 292.373 29.216C292.751 28.4273 293.294 27.8137 294.004 27.375C294.713 26.9317 295.572 26.71 296.58 26.71C297.742 26.71 298.703 27.004 299.464 27.592C300.229 28.18 300.761 28.971 301.06 29.965L299.576 30.364C299.38 29.6593 299.03 29.1063 298.526 28.705C298.026 28.3037 297.378 28.103 296.58 28.103C295.866 28.103 295.271 28.264 294.795 28.586C294.319 28.908 293.959 29.3583 293.717 29.937C293.479 30.5157 293.36 31.19 293.36 31.96C293.355 32.73 293.472 33.4043 293.71 33.983C293.952 34.5617 294.312 35.012 294.788 35.334C295.268 35.656 295.866 35.817 296.58 35.817C297.378 35.817 298.026 35.6163 298.526 35.215C299.03 34.809 299.38 34.256 299.576 33.556L301.06 33.955C300.761 34.949 300.229 35.74 299.464 36.328C298.703 36.916 297.742 37.21 296.58 37.21ZM302.599 37V26.92H305.756C305.849 26.92 306.022 26.9223 306.274 26.927C306.531 26.9317 306.776 26.9503 307.009 26.983C307.798 27.081 308.46 27.3633 308.997 27.83C309.538 28.2967 309.947 28.8893 310.222 29.608C310.497 30.322 310.635 31.106 310.635 31.96C310.635 32.8187 310.497 33.6073 310.222 34.326C309.947 35.04 309.538 35.6303 308.997 36.097C308.46 36.559 307.798 36.839 307.009 36.937C306.776 36.9697 306.531 36.9883 306.274 36.993C306.022 36.9977 305.849 37 305.756 37H302.599ZM304.097 35.607H305.756C305.915 35.607 306.104 35.6023 306.323 35.593C306.542 35.5837 306.736 35.565 306.904 35.537C307.417 35.439 307.833 35.2173 308.15 34.872C308.472 34.522 308.708 34.0927 308.857 33.584C309.006 33.0753 309.081 32.534 309.081 31.96C309.081 31.3673 309.004 30.819 308.85 30.315C308.696 29.8063 308.458 29.3817 308.136 29.041C307.819 28.6957 307.408 28.4763 306.904 28.383C306.736 28.3503 306.54 28.3317 306.316 28.327C306.097 28.3177 305.91 28.313 305.756 28.313H304.097V35.607ZM312.265 37V26.92H316.339C316.437 26.92 316.558 26.9247 316.703 26.934C316.848 26.9387 316.985 26.9527 317.116 26.976C317.676 27.0647 318.143 27.256 318.516 27.55C318.894 27.844 319.176 28.215 319.363 28.663C319.55 29.111 319.643 29.6057 319.643 30.147C319.643 30.9497 319.438 31.6427 319.027 32.226C318.616 32.8047 318 33.1663 317.179 33.311L316.584 33.381H313.728V37H312.265ZM318.159 37L316.171 32.898L317.648 32.52L319.832 37H318.159ZM313.728 31.995H316.283C316.376 31.995 316.479 31.9903 316.591 31.981C316.708 31.9717 316.817 31.9553 316.92 31.932C317.219 31.862 317.459 31.7337 317.641 31.547C317.823 31.3557 317.954 31.1363 318.033 30.889C318.112 30.6417 318.152 30.3943 318.152 30.147C318.152 29.8997 318.112 29.6547 318.033 29.412C317.954 29.1647 317.823 28.9477 317.641 28.761C317.459 28.5697 317.219 28.439 316.92 28.369C316.817 28.341 316.708 28.3223 316.591 28.313C316.479 28.3037 316.376 28.299 316.283 28.299H313.728V31.995ZM321.091 36.993L321.098 35.691L325.487 31.757C325.841 31.4443 326.082 31.1457 326.208 30.861C326.338 30.5763 326.404 30.2917 326.404 30.007C326.404 29.6477 326.324 29.3257 326.166 29.041C326.007 28.7517 325.788 28.523 325.508 28.355C325.228 28.187 324.906 28.103 324.542 28.103C324.168 28.103 323.835 28.1917 323.541 28.369C323.251 28.5417 323.025 28.7727 322.862 29.062C322.698 29.3513 322.619 29.664 322.624 30H321.126C321.126 29.3467 321.273 28.775 321.567 28.285C321.865 27.7903 322.274 27.4053 322.792 27.13C323.31 26.85 323.902 26.71 324.57 26.71C325.204 26.71 325.774 26.8547 326.278 27.144C326.782 27.4287 327.178 27.8207 327.468 28.32C327.762 28.8193 327.909 29.3887 327.909 30.028C327.909 30.49 327.848 30.882 327.727 31.204C327.605 31.526 327.423 31.8247 327.181 32.1C326.938 32.3753 326.635 32.674 326.271 32.996L322.883 36.02L322.722 35.6H327.909V36.993H321.091Z" fill="white" fill-opacity="0.3"/>
    <path d="M332 112V24" stroke="white" stroke-opacity="0.3" stroke-width="2" stroke-linecap="square" stroke-dasharray="6 6"/>
    <path d="M340.805 37V26.92H346.776V28.383H342.268V31.225H345.936V32.695H342.268V37H340.805ZM348.038 37V26.92H352.112C352.21 26.92 352.331 26.9247 352.476 26.934C352.62 26.9387 352.758 26.9527 352.889 26.976C353.449 27.0647 353.915 27.256 354.289 27.55C354.667 27.844 354.949 28.215 355.136 28.663C355.322 29.111 355.416 29.6057 355.416 30.147C355.416 30.9497 355.21 31.6427 354.8 32.226C354.389 32.8047 353.773 33.1663 352.952 33.311L352.357 33.381H349.501V37H348.038ZM353.932 37L351.944 32.898L353.421 32.52L355.605 37H353.932ZM349.501 31.995H352.056C352.149 31.995 352.252 31.9903 352.364 31.981C352.48 31.9717 352.59 31.9553 352.693 31.932C352.991 31.862 353.232 31.7337 353.414 31.547C353.596 31.3557 353.726 31.1363 353.806 30.889C353.885 30.6417 353.925 30.3943 353.925 30.147C353.925 29.8997 353.885 29.6547 353.806 29.412C353.726 29.1647 353.596 28.9477 353.414 28.761C353.232 28.5697 352.991 28.439 352.693 28.369C352.59 28.341 352.48 28.3223 352.364 28.313C352.252 28.3037 352.149 28.299 352.056 28.299H349.501V31.995ZM359.964 37.189C359.465 37.189 358.996 37.0957 358.557 36.909C358.118 36.7177 357.738 36.447 357.416 36.097C357.099 35.747 356.868 35.334 356.723 34.858L358.137 34.466C358.272 34.9 358.508 35.2337 358.844 35.467C359.18 35.6957 359.553 35.8077 359.964 35.803C360.333 35.7983 360.657 35.712 360.937 35.544C361.217 35.376 361.436 35.1497 361.595 34.865C361.754 34.5757 361.833 34.2443 361.833 33.871C361.833 33.311 361.658 32.849 361.308 32.485C360.963 32.121 360.51 31.939 359.95 31.939C359.791 31.939 359.628 31.9623 359.46 32.009C359.297 32.0557 359.143 32.1163 358.998 32.191L358.312 31.036L361.868 27.893L362.022 28.313H357.122V26.92H363.184V28.313L360.23 31.155L360.216 30.679C360.851 30.679 361.401 30.8213 361.868 31.106C362.335 31.386 362.694 31.7687 362.946 32.254C363.203 32.7347 363.331 33.2737 363.331 33.871C363.331 34.515 363.179 35.0867 362.876 35.586C362.577 36.0853 362.174 36.4773 361.665 36.762C361.161 37.0467 360.594 37.189 359.964 37.189Z" fill="white" fill-opacity="0.3"/>
    <path d="M372 112V24" stroke="white" stroke-opacity="0.3" stroke-width="2" stroke-linecap="square" stroke-dasharray="6 6"/>
    <path d="M418.682 37.21C417.674 37.21 416.815 36.9907 416.106 36.552C415.397 36.1087 414.853 35.4927 414.475 34.704C414.102 33.9153 413.915 33.0007 413.915 31.96C413.915 30.9193 414.102 30.0047 414.475 29.216C414.853 28.4273 415.397 27.8137 416.106 27.375C416.815 26.9317 417.674 26.71 418.682 26.71C419.844 26.71 420.805 27.004 421.566 27.592C422.331 28.18 422.863 28.971 423.162 29.965L421.678 30.364C421.482 29.6593 421.132 29.1063 420.628 28.705C420.129 28.3037 419.48 28.103 418.682 28.103C417.968 28.103 417.373 28.264 416.897 28.586C416.421 28.908 416.062 29.3583 415.819 29.937C415.581 30.5157 415.462 31.19 415.462 31.96C415.457 32.73 415.574 33.4043 415.812 33.983C416.055 34.5617 416.414 35.012 416.89 35.334C417.371 35.656 417.968 35.817 418.682 35.817C419.48 35.817 420.129 35.6163 420.628 35.215C421.132 34.809 421.482 34.256 421.678 33.556L423.162 33.955C422.863 34.949 422.331 35.74 421.566 36.328C420.805 36.916 419.844 37.21 418.682 37.21ZM424.702 37V26.92H427.859C427.952 26.92 428.125 26.9223 428.377 26.927C428.633 26.9317 428.878 26.9503 429.112 26.983C429.9 27.081 430.563 27.3633 431.1 27.83C431.641 28.2967 432.049 28.8893 432.325 29.608C432.6 30.322 432.738 31.106 432.738 31.96C432.738 32.8187 432.6 33.6073 432.325 34.326C432.049 35.04 431.641 35.6303 431.1 36.097C430.563 36.559 429.9 36.839 429.112 36.937C428.878 36.9697 428.633 36.9883 428.377 36.993C428.125 36.9977 427.952 37 427.859 37H424.702ZM426.2 35.607H427.859C428.017 35.607 428.206 35.6023 428.426 35.593C428.645 35.5837 428.839 35.565 429.007 35.537C429.52 35.439 429.935 35.2173 430.253 34.872C430.575 34.522 430.81 34.0927 430.96 33.584C431.109 33.0753 431.184 32.534 431.184 31.96C431.184 31.3673 431.107 30.819 430.953 30.315C430.799 29.8063 430.561 29.3817 430.239 29.041C429.921 28.6957 429.511 28.4763 429.007 28.383C428.839 28.3503 428.643 28.3317 428.419 28.327C428.199 28.3177 428.013 28.313 427.859 28.313H426.2V35.607ZM434.368 37V26.92H438.442C438.54 26.92 438.661 26.9247 438.806 26.934C438.95 26.9387 439.088 26.9527 439.219 26.976C439.779 27.0647 440.245 27.256 440.619 27.55C440.997 27.844 441.279 28.215 441.466 28.663C441.652 29.111 441.746 29.6057 441.746 30.147C441.746 30.9497 441.54 31.6427 441.13 32.226C440.719 32.8047 440.103 33.1663 439.282 33.311L438.687 33.381H435.831V37H434.368ZM440.262 37L438.274 32.898L439.751 32.52L441.935 37H440.262ZM435.831 31.995H438.386C438.479 31.995 438.582 31.9903 438.694 31.981C438.81 31.9717 438.92 31.9553 439.023 31.932C439.321 31.862 439.562 31.7337 439.744 31.547C439.926 31.3557 440.056 31.1363 440.136 30.889C440.215 30.6417 440.255 30.3943 440.255 30.147C440.255 29.8997 440.215 29.6547 440.136 29.412C440.056 29.1647 439.926 28.9477 439.744 28.761C439.562 28.5697 439.321 28.439 439.023 28.369C438.92 28.341 438.81 28.3223 438.694 28.313C438.582 28.3037 438.479 28.299 438.386 28.299H435.831V31.995ZM446.294 37.189C445.795 37.189 445.326 37.0957 444.887 36.909C444.448 36.7177 444.068 36.447 443.746 36.097C443.429 35.747 443.198 35.334 443.053 34.858L444.467 34.466C444.602 34.9 444.838 35.2337 445.174 35.467C445.51 35.6957 445.883 35.8077 446.294 35.803C446.663 35.7983 446.987 35.712 447.267 35.544C447.547 35.376 447.766 35.1497 447.925 34.865C448.084 34.5757 448.163 34.2443 448.163 33.871C448.163 33.311 447.988 32.849 447.638 32.485C447.293 32.121 446.84 31.939 446.28 31.939C446.121 31.939 445.958 31.9623 445.79 32.009C445.627 32.0557 445.473 32.1163 445.328 32.191L444.642 31.036L448.198 27.893L448.352 28.313H443.452V26.92H449.514V28.313L446.56 31.155L446.546 30.679C447.181 30.679 447.731 30.8213 448.198 31.106C448.665 31.386 449.024 31.7687 449.276 32.254C449.533 32.7347 449.661 33.2737 449.661 33.871C449.661 34.515 449.509 35.0867 449.206 35.586C448.907 36.0853 448.504 36.4773 447.995 36.762C447.491 37.0467 446.924 37.189 446.294 37.189Z" fill="white" fill-opacity="0.3"/>
    <path d="M492 112V24" stroke="white" stroke-opacity="0.3" stroke-width="2" stroke-linecap="square" stroke-dasharray="6 6"/>
    <path d="M600 112V24" stroke="white" stroke-opacity="0.3" stroke-width="2" stroke-linecap="square" stroke-dasharray="6 6"/>
    <path d="M534.593 37V26.92H540.564V28.383H536.056V31.225H539.724V32.695H536.056V37H534.593ZM541.826 37V26.92H545.9C545.998 26.92 546.119 26.9247 546.264 26.934C546.408 26.9387 546.546 26.9527 546.677 26.976C547.237 27.0647 547.703 27.256 548.077 27.55C548.455 27.844 548.737 28.215 548.924 28.663C549.11 29.111 549.204 29.6057 549.204 30.147C549.204 30.9497 548.998 31.6427 548.588 32.226C548.177 32.8047 547.561 33.1663 546.74 33.311L546.145 33.381H543.289V37H541.826ZM547.72 37L545.732 32.898L547.209 32.52L549.393 37H547.72ZM543.289 31.995H545.844C545.937 31.995 546.04 31.9903 546.152 31.981C546.268 31.9717 546.378 31.9553 546.481 31.932C546.779 31.862 547.02 31.7337 547.202 31.547C547.384 31.3557 547.514 31.1363 547.594 30.889C547.673 30.6417 547.713 30.3943 547.713 30.147C547.713 29.8997 547.673 29.6547 547.594 29.412C547.514 29.1647 547.384 28.9477 547.202 28.761C547.02 28.5697 546.779 28.439 546.481 28.369C546.378 28.341 546.268 28.3223 546.152 28.313C546.04 28.3037 545.937 28.299 545.844 28.299H543.289V31.995ZM555.201 37V35.243H550.651V33.857L553.927 26.92H555.6L552.324 33.857H555.201V31.127H556.685V33.857H557.686V35.243H556.685V37H555.201Z" fill="white" fill-opacity="0.3"/>
    <path d="M25.6881 118V105.29H20.7781V103.6H32.3781V105.29H27.4681V118H25.6881ZM39.8903 118.3C38.457 118.3 37.2403 117.983 36.2403 117.35C35.2403 116.717 34.477 115.837 33.9503 114.71C33.4303 113.583 33.1703 112.28 33.1703 110.8C33.1703 109.32 33.4303 108.017 33.9503 106.89C34.477 105.763 35.2403 104.883 36.2403 104.25C37.2403 103.617 38.457 103.3 39.8903 103.3C41.557 103.3 42.927 103.723 44.0003 104.57C45.0803 105.417 45.8236 106.557 46.2303 107.99L44.4203 108.47C44.127 107.397 43.6036 106.55 42.8503 105.93C42.097 105.31 41.1103 105 39.8903 105C38.817 105 37.9236 105.243 37.2103 105.73C36.497 106.217 35.9603 106.897 35.6003 107.77C35.2403 108.637 35.057 109.647 35.0503 110.8C35.0436 111.947 35.2203 112.957 35.5803 113.83C35.9403 114.697 36.4803 115.377 37.2003 115.87C37.9203 116.357 38.817 116.6 39.8903 116.6C41.1103 116.6 42.097 116.29 42.8503 115.67C43.6036 115.043 44.127 114.197 44.4203 113.13L46.2303 113.61C45.8236 115.037 45.0803 116.177 44.0003 117.03C42.927 117.877 41.557 118.3 39.8903 118.3ZM48.4234 118V103.6H54.1134C54.2534 103.6 54.4201 103.607 54.6134 103.62C54.8068 103.627 54.9934 103.647 55.1734 103.68C55.9534 103.8 56.6068 104.067 57.1334 104.48C57.6668 104.893 58.0668 105.417 58.3334 106.05C58.6001 106.677 58.7334 107.373 58.7334 108.14C58.7334 109.253 58.4434 110.22 57.8634 111.04C57.2834 111.853 56.4334 112.363 55.3134 112.57L54.6334 112.68H50.2034V118H48.4234ZM56.9934 118L54.1534 112.14L55.9134 111.6L59.0334 118H56.9934ZM50.2034 110.99H54.0534C54.1801 110.99 54.3234 110.983 54.4834 110.97C54.6501 110.957 54.8068 110.933 54.9534 110.9C55.4134 110.793 55.7868 110.6 56.0734 110.32C56.3668 110.033 56.5801 109.7 56.7134 109.32C56.8468 108.933 56.9134 108.54 56.9134 108.14C56.9134 107.74 56.8468 107.35 56.7134 106.97C56.5801 106.583 56.3668 106.247 56.0734 105.96C55.7868 105.673 55.4134 105.48 54.9534 105.38C54.8068 105.34 54.6501 105.317 54.4834 105.31C54.3234 105.297 54.1801 105.29 54.0534 105.29H50.2034V110.99ZM65.2298 122.8V107.2C65.2298 106.953 65.2465 106.71 65.2798 106.47C65.3198 106.23 65.3765 106 65.4498 105.78C65.6298 105.24 65.9098 104.787 66.2898 104.42C66.6698 104.047 67.1232 103.767 67.6498 103.58C68.1765 103.393 68.7498 103.3 69.3698 103.3C70.2032 103.3 70.9365 103.463 71.5698 103.79C72.2098 104.11 72.7098 104.563 73.0698 105.15C73.4298 105.737 73.6098 106.427 73.6098 107.22C73.6098 107.86 73.4798 108.433 73.2198 108.94C72.9665 109.447 72.5765 109.83 72.0498 110.09C72.4032 110.177 72.7432 110.323 73.0698 110.53C73.4032 110.737 73.7032 111 73.9698 111.32C74.2365 111.64 74.4465 112.02 74.5998 112.46C74.7598 112.9 74.8398 113.397 74.8398 113.95C74.8398 114.823 74.6432 115.587 74.2498 116.24C73.8565 116.887 73.2932 117.393 72.5598 117.76C71.8332 118.12 70.9598 118.3 69.9398 118.3C69.3265 118.3 68.7732 118.217 68.2798 118.05C67.7932 117.89 67.3698 117.67 67.0098 117.39V122.8H65.2298ZM70.0198 116.61C70.6132 116.61 71.1365 116.497 71.5898 116.27C72.0432 116.037 72.3965 115.717 72.6498 115.31C72.9032 114.897 73.0298 114.417 73.0298 113.87C73.0298 112.983 72.7032 112.313 72.0498 111.86C71.3965 111.4 70.5198 111.16 69.4198 111.14V109.54C69.8798 109.493 70.2865 109.38 70.6398 109.2C70.9998 109.02 71.2798 108.767 71.4798 108.44C71.6865 108.113 71.7898 107.713 71.7898 107.24C71.7898 106.527 71.5665 105.973 71.1198 105.58C70.6732 105.187 70.1032 104.99 69.4098 104.99C68.9698 104.99 68.5498 105.09 68.1498 105.29C67.7565 105.483 67.4665 105.813 67.2798 106.28C67.1798 106.54 67.1165 106.817 67.0898 107.11C67.0632 107.397 67.0498 107.647 67.0498 107.86V113.71C67.0498 113.903 67.0598 114.123 67.0798 114.37C67.1065 114.61 67.1465 114.823 67.1998 115.01C67.3665 115.523 67.7232 115.92 68.2698 116.2C68.8165 116.473 69.3998 116.61 70.0198 116.61Z" fill="white"/>
    <path d="M25.3268 274V261.29H20.4168V259.6H32.0168V261.29H27.1068V274H25.3268ZM39.529 274.3C38.0957 274.3 36.879 273.983 35.879 273.35C34.879 272.717 34.1157 271.837 33.589 270.71C33.069 269.583 32.809 268.28 32.809 266.8C32.809 265.32 33.069 264.017 33.589 262.89C34.1157 261.763 34.879 260.883 35.879 260.25C36.879 259.617 38.0957 259.3 39.529 259.3C41.1957 259.3 42.5657 259.723 43.639 260.57C44.719 261.417 45.4623 262.557 45.869 263.99L44.059 264.47C43.7657 263.397 43.2423 262.55 42.489 261.93C41.7357 261.31 40.749 261 39.529 261C38.4557 261 37.5623 261.243 36.849 261.73C36.1357 262.217 35.599 262.897 35.239 263.77C34.879 264.637 34.6957 265.647 34.689 266.8C34.6823 267.947 34.859 268.957 35.219 269.83C35.579 270.697 36.119 271.377 36.839 271.87C37.559 272.357 38.4557 272.6 39.529 272.6C40.749 272.6 41.7357 272.29 42.489 271.67C43.2423 271.043 43.7657 270.197 44.059 269.13L45.869 269.61C45.4623 271.037 44.719 272.177 43.639 273.03C42.5657 273.877 41.1957 274.3 39.529 274.3ZM48.0621 274V259.6H53.7521C53.8921 259.6 54.0588 259.607 54.2521 259.62C54.4454 259.627 54.6321 259.647 54.8121 259.68C55.5921 259.8 56.2454 260.067 56.7721 260.48C57.3054 260.893 57.7054 261.417 57.9721 262.05C58.2388 262.677 58.3721 263.373 58.3721 264.14C58.3721 265.253 58.0821 266.22 57.5021 267.04C56.9221 267.853 56.0721 268.363 54.9521 268.57L54.2721 268.68H49.8421V274H48.0621ZM56.6321 274L53.7921 268.14L55.5521 267.6L58.6721 274H56.6321ZM49.8421 266.99H53.6921C53.8188 266.99 53.9621 266.983 54.1221 266.97C54.2888 266.957 54.4454 266.933 54.5921 266.9C55.0521 266.793 55.4254 266.6 55.7121 266.32C56.0054 266.033 56.2188 265.7 56.3521 265.32C56.4854 264.933 56.5521 264.54 56.5521 264.14C56.5521 263.74 56.4854 263.35 56.3521 262.97C56.2188 262.583 56.0054 262.247 55.7121 261.96C55.4254 261.673 55.0521 261.48 54.5921 261.38C54.4454 261.34 54.2888 261.317 54.1221 261.31C53.9621 261.297 53.8188 261.29 53.6921 261.29H49.8421V266.99ZM69.1485 274.3C68.1285 274.3 67.2552 274.05 66.5285 273.55C65.8018 273.043 65.2452 272.36 64.8585 271.5C64.4718 270.64 64.2785 269.673 64.2785 268.6C64.2785 267.513 64.4718 266.543 64.8585 265.69C65.2518 264.83 65.8152 264.15 66.5485 263.65C67.2818 263.15 68.1652 262.9 69.1985 262.9C70.1652 262.9 70.9852 263.143 71.6585 263.63C72.3385 264.11 72.8185 264.777 73.0985 265.63L72.7985 266.15V263.2H74.3885V274H72.7985V271.02L73.0985 271.54C72.8185 272.4 72.3285 273.077 71.6285 273.57C70.9352 274.057 70.1085 274.3 69.1485 274.3ZM69.3685 272.67C70.0818 272.67 70.6685 272.497 71.1285 272.15C71.5952 271.797 71.9385 271.313 72.1585 270.7C72.3852 270.08 72.4985 269.377 72.4985 268.59C72.4985 267.79 72.3852 267.087 72.1585 266.48C71.9385 265.867 71.5985 265.39 71.1385 265.05C70.6785 264.703 70.0952 264.53 69.3885 264.53C68.6885 264.53 68.0985 264.703 67.6185 265.05C67.1385 265.39 66.7752 265.867 66.5285 266.48C66.2885 267.087 66.1685 267.793 66.1685 268.6C66.1685 269.36 66.2852 270.047 66.5185 270.66C66.7518 271.273 67.1052 271.763 67.5785 272.13C68.0518 272.49 68.6485 272.67 69.3685 272.67Z" fill="white"/>
    <path d="M32.9984 374V359.6H34.7784V374H32.9984ZM43.6089 374.3C42.6222 374.3 41.7222 374.127 40.9089 373.78C40.0956 373.433 39.3956 372.937 38.8089 372.29C38.2222 371.637 37.7689 370.85 37.4489 369.93C37.1356 369.003 36.9789 367.96 36.9789 366.8C36.9789 365.267 37.2522 363.94 37.7989 362.82C38.3456 361.7 39.1156 360.837 40.1089 360.23C41.1022 359.617 42.2689 359.31 43.6089 359.31C45.2222 359.31 46.5222 359.687 47.5089 360.44C48.4956 361.187 49.1756 362.21 49.5489 363.51L47.7489 363.88C47.4489 363.007 46.9556 362.31 46.2689 361.79C45.5822 361.27 44.7256 361.01 43.6989 361.01C42.6256 361.003 41.7322 361.243 41.0189 361.73C40.3122 362.21 39.7789 362.887 39.4189 363.76C39.0589 364.633 38.8756 365.647 38.8689 366.8C38.8622 367.947 39.0389 368.953 39.3989 369.82C39.7589 370.687 40.2956 371.367 41.0089 371.86C41.7289 372.347 42.6256 372.593 43.6989 372.6C44.6256 372.607 45.4056 372.43 46.0389 372.07C46.6722 371.71 47.1622 371.19 47.5089 370.51C47.8556 369.83 48.0656 369.013 48.1389 368.06H45.0789V366.59H50.0189C50.0389 366.723 50.0489 366.883 50.0489 367.07C50.0556 367.25 50.0589 367.373 50.0589 367.44C50.0589 368.753 49.8122 369.93 49.3189 370.97C48.8322 372.003 48.1089 372.817 47.1489 373.41C46.1956 374.003 45.0156 374.3 43.6089 374.3ZM52.0563 374V359.6H53.8363V365.95H61.4163V359.6H63.1963V374H61.4163V367.64H53.8363V374H52.0563Z" fill="white"/>
    <path d="M26.0258 464V449.6H27.8058V464H26.0258ZM36.6363 464.3C35.6496 464.3 34.7496 464.127 33.9363 463.78C33.1229 463.433 32.4229 462.937 31.8363 462.29C31.2496 461.637 30.7963 460.85 30.4763 459.93C30.1629 459.003 30.0063 457.96 30.0063 456.8C30.0063 455.267 30.2796 453.94 30.8263 452.82C31.3729 451.7 32.1429 450.837 33.1363 450.23C34.1296 449.617 35.2963 449.31 36.6363 449.31C38.2496 449.31 39.5496 449.687 40.5363 450.44C41.5229 451.187 42.2029 452.21 42.5763 453.51L40.7763 453.88C40.4763 453.007 39.9829 452.31 39.2963 451.79C38.6096 451.27 37.7529 451.01 36.7263 451.01C35.6529 451.003 34.7596 451.243 34.0463 451.73C33.3396 452.21 32.8063 452.887 32.4463 453.76C32.0863 454.633 31.9029 455.647 31.8963 456.8C31.8896 457.947 32.0663 458.953 32.4263 459.82C32.7863 460.687 33.3229 461.367 34.0363 461.86C34.7563 462.347 35.6529 462.593 36.7263 462.6C37.6529 462.607 38.4329 462.43 39.0663 462.07C39.6996 461.71 40.1896 461.19 40.5363 460.51C40.8829 459.83 41.0929 459.013 41.1662 458.06H38.1063V456.59H43.0463C43.0663 456.723 43.0763 456.883 43.0763 457.07C43.0829 457.25 43.0863 457.373 43.0863 457.44C43.0863 458.753 42.8396 459.93 42.3463 460.97C41.8596 462.003 41.1363 462.817 40.1763 463.41C39.2229 464.003 38.0429 464.3 36.6363 464.3ZM45.0836 464V449.6H46.8636V456.36L53.1636 449.6H55.4036L48.8636 456.59L55.9136 464H53.6136L46.8636 456.96V464H45.0836ZM64.5634 449.6H66.3734L62.5334 464H60.7234L64.5634 449.6ZM34.7953 484V469.6H36.5753V484H34.7953ZM45.4058 484.3C44.4191 484.3 43.5191 484.127 42.7058 483.78C41.8924 483.433 41.1924 482.937 40.6058 482.29C40.0191 481.637 39.5658 480.85 39.2458 479.93C38.9324 479.003 38.7758 477.96 38.7758 476.8C38.7758 475.267 39.0491 473.94 39.5958 472.82C40.1424 471.7 40.9124 470.837 41.9058 470.23C42.8991 469.617 44.0658 469.31 45.4058 469.31C47.0191 469.31 48.3191 469.687 49.3058 470.44C50.2924 471.187 50.9724 472.21 51.3458 473.51L49.5458 473.88C49.2458 473.007 48.7524 472.31 48.0658 471.79C47.3791 471.27 46.5224 471.01 45.4958 471.01C44.4224 471.003 43.5291 471.243 42.8158 471.73C42.1091 472.21 41.5758 472.887 41.2158 473.76C40.8558 474.633 40.6724 475.647 40.6658 476.8C40.6591 477.947 40.8358 478.953 41.1958 479.82C41.5558 480.687 42.0924 481.367 42.8058 481.86C43.5258 482.347 44.4224 482.593 45.4958 482.6C46.4224 482.607 47.2024 482.43 47.8358 482.07C48.4691 481.71 48.9591 481.19 49.3058 480.51C49.6524 479.83 49.8624 479.013 49.9358 478.06H46.8758V476.59H51.8158C51.8358 476.723 51.8458 476.883 51.8458 477.07C51.8524 477.25 51.8558 477.373 51.8558 477.44C51.8558 478.753 51.6091 479.93 51.1158 480.97C50.6291 482.003 49.9058 482.817 48.9458 483.41C47.9924 484.003 46.8124 484.3 45.4058 484.3ZM54.0531 484V469.6H55.8331V482.31H62.5131V484H54.0531Z" fill="white"/>
    <path d="M429.5 158H96" stroke="white" stroke-width="2"/>
    <rect width="107" height="20" transform="translate(429.5 148)" fill="#1D1D29"/>
    <path d="M436.995 164H438.443V152.48H436.995L434.827 153.776V155.368L436.995 154.056V164ZM445.375 164.24C447.615 164.24 449.263 162.592 449.263 160.352V156.128C449.263 153.888 447.615 152.24 445.375 152.24C443.135 152.24 441.487 153.888 441.487 156.128V160.352C441.487 162.592 443.135 164.24 445.375 164.24ZM442.935 160.432V156.04C442.935 154.688 444.023 153.6 445.375 153.6C446.727 153.6 447.815 154.688 447.815 156.04V160.432C447.815 161.784 446.727 162.872 445.375 162.872C444.023 162.872 442.935 161.784 442.935 160.432ZM455.391 164.24C457.631 164.24 459.279 162.592 459.279 160.352V156.128C459.279 153.888 457.631 152.24 455.391 152.24C453.151 152.24 451.503 153.888 451.503 156.128V160.352C451.503 162.592 453.151 164.24 455.391 164.24ZM452.951 160.432V156.04C452.951 154.688 454.039 153.6 455.391 153.6C456.743 153.6 457.831 154.688 457.831 156.04V160.432C457.831 161.784 456.743 162.872 455.391 162.872C454.039 162.872 452.951 161.784 452.951 160.432ZM465.406 164.24C467.646 164.24 469.294 162.592 469.294 160.352V156.128C469.294 153.888 467.646 152.24 465.406 152.24C463.166 152.24 461.518 153.888 461.518 156.128V160.352C461.518 162.592 463.166 164.24 465.406 164.24ZM462.966 160.432V156.04C462.966 154.688 464.054 153.6 465.406 153.6C466.758 153.6 467.846 154.688 467.846 156.04V160.432C467.846 161.784 466.758 162.872 465.406 162.872C464.054 162.872 462.966 161.784 462.966 160.432ZM471.374 158.824H476.174V157.648H471.374V158.824ZM480.261 164H481.709V152.48H480.261L478.093 153.776V155.368L480.261 154.056V164ZM488.161 164.24C490.305 164.24 492.121 162.504 492.121 160.376C492.121 158.232 490.497 156.584 488.361 156.584C487.585 156.584 486.809 156.848 486.209 157.328L486.417 153.832H491.321V152.48H485.137L484.785 158.504L486.049 158.984C486.465 158.384 487.185 157.896 488.201 157.896C489.545 157.896 490.689 158.984 490.689 160.376C490.689 161.728 489.601 162.856 488.201 162.856C487.129 162.856 486.089 162.144 485.801 161.008L484.433 161.376C484.897 163.056 486.377 164.24 488.161 164.24ZM497.922 164.24C500.162 164.24 501.81 162.592 501.81 160.352V156.128C501.81 153.888 500.162 152.24 497.922 152.24C495.682 152.24 494.034 153.888 494.034 156.128V160.352C494.034 162.592 495.682 164.24 497.922 164.24ZM495.482 160.432V156.04C495.482 154.688 496.57 153.6 497.922 153.6C499.274 153.6 500.362 154.688 500.362 156.04V160.432C500.362 161.784 499.274 162.872 497.922 162.872C496.57 162.872 495.482 161.784 495.482 160.432ZM507.938 164.24C510.178 164.24 511.826 162.592 511.826 160.352V156.128C511.826 153.888 510.178 152.24 507.938 152.24C505.698 152.24 504.05 153.888 504.05 156.128V160.352C504.05 162.592 505.698 164.24 507.938 164.24ZM505.498 160.432V156.04C505.498 154.688 506.586 153.6 507.938 153.6C509.29 153.6 510.378 154.688 510.378 156.04V160.432C510.378 161.784 509.29 162.872 507.938 162.872C506.586 162.872 505.498 161.784 505.498 160.432ZM518.033 164.24C520.449 164.24 521.905 162.264 521.905 159.672C521.905 157.08 520.441 155.12 518.041 155.12C516.961 155.12 516.105 155.496 515.489 156.144V152.48H514.057V164H515.329V163.024C515.961 163.784 516.865 164.24 518.033 164.24ZM515.329 159.672C515.329 157.76 516.129 156.424 517.817 156.424C519.577 156.424 520.393 157.848 520.393 159.672C520.393 161.512 519.561 162.936 517.857 162.936C516.113 162.936 515.329 161.568 515.329 159.672ZM527.627 164.24C530.043 164.24 531.499 162.264 531.499 159.672C531.499 157.08 530.035 155.12 527.635 155.12C526.459 155.12 525.555 155.568 524.923 156.328V155.36H523.651V167.84H525.083V163.2C525.699 163.856 526.555 164.24 527.627 164.24ZM524.923 159.672C524.923 157.76 525.723 156.424 527.411 156.424C529.171 156.424 529.987 157.848 529.987 159.672C529.987 161.512 529.155 162.936 527.451 162.936C525.707 162.936 524.923 161.568 524.923 159.672Z" fill="white"/>
    <path d="M870 158H536.5" stroke="white" stroke-width="2"/>
    <path d="M880 158L880.707 157.293L881.414 158L880.707 158.707L880 158ZM872.707 166.707L872 167.414L870.586 166L871.293 165.293L872.707 166.707ZM871.293 150.707L870.586 150L872 148.586L872.707 149.293L871.293 150.707ZM870 157L880 157L880 159L870 159L870 157ZM880.707 158.707L872.707 166.707L871.293 165.293L879.293 157.293L880.707 158.707ZM879.293 158.707L871.293 150.707L872.707 149.293L880.707 157.293L879.293 158.707Z" fill="white"/>
    <g filter="url(#filter0_i_6463_39029)">
        <rect x="96" y="84" width="288" height="52" rx="1" fill="#99E099"/>
        <path d="M238.758 118L233.938 103.6H235.788L239.978 116.11L244.208 103.6H246.058L241.238 118H238.758Z" fill="#110529"/>
        <rect x="96" y="84" width="288" height="52" rx="1" stroke="#110529" stroke-width="2" stroke-linecap="round"/>
    </g>
    <g filter="url(#filter1_i_6463_39029)">
        <rect x="384" y="84" width="30" height="52" rx="1" fill="#CBEB67"/>
    </g>
    <rect x="384" y="84" width="30" height="52" rx="1" stroke="#110529" stroke-width="2" stroke-linecap="round"/>
    <g filter="url(#filter2_i_6463_39029)">
        <rect x="450" y="84" width="30" height="52" rx="1" fill="#FAAAFA"/>
    </g>
    <rect x="450" y="84" width="30" height="52" rx="1" stroke="#110529" stroke-width="2" stroke-linecap="round"/>
    <g filter="url(#filter3_i_6463_39029)">
        <rect x="414" y="84" width="36" height="52" rx="1" fill="#FFCB8F"/>
    </g>
    <rect x="414" y="84" width="36" height="52" rx="1" stroke="#110529" stroke-width="2" stroke-linecap="round"/>
    <path d="M393.447 118V103.6H395.247L402.757 114.85V103.6H404.557V118H402.757L395.247 106.74V118H393.447Z" fill="#110529"/>
    <path d="M459.447 118V103.6H461.247L468.757 114.85V103.6H470.557V118H468.757L461.247 106.74V118H459.447Z" fill="#110529"/>
    <path d="M426.593 118V103.6H431.033C431.18 103.6 431.437 103.603 431.803 103.61C432.17 103.617 432.52 103.643 432.853 103.69C433.967 103.837 434.897 104.243 435.643 104.91C436.397 105.57 436.963 106.41 437.343 107.43C437.723 108.45 437.913 109.573 437.913 110.8C437.913 112.027 437.723 113.15 437.343 114.17C436.963 115.19 436.397 116.033 435.643 116.7C434.897 117.36 433.967 117.763 432.853 117.91C432.52 117.95 432.167 117.977 431.793 117.99C431.427 117.997 431.173 118 431.033 118H426.593ZM428.423 116.3H431.033C431.287 116.3 431.57 116.293 431.883 116.28C432.197 116.26 432.47 116.23 432.703 116.19C433.49 116.043 434.127 115.713 434.613 115.2C435.1 114.687 435.457 114.047 435.683 113.28C435.91 112.513 436.023 111.687 436.023 110.8C436.023 109.893 435.907 109.057 435.673 108.29C435.447 107.523 435.09 106.887 434.603 106.38C434.117 105.873 433.483 105.55 432.703 105.41C432.47 105.363 432.193 105.333 431.873 105.32C431.553 105.307 431.273 105.3 431.033 105.3H428.423V116.3Z" fill="#110529"/>
    <g filter="url(#filter4_i_6463_39029)">
        <rect x="480" y="84" width="120" height="52" rx="1" fill="#C1ADFF"/>
        <path d="M539.244 118.29C538.237 118.29 537.384 118.017 536.684 117.47C535.984 116.923 535.504 116.19 535.244 115.27L537.014 114.85C537.121 115.337 537.377 115.75 537.784 116.09C538.197 116.43 538.671 116.6 539.204 116.6C539.551 116.6 539.904 116.517 540.264 116.35C540.624 116.177 540.901 115.897 541.094 115.51C541.227 115.243 541.304 114.95 541.324 114.63C541.344 114.303 541.354 113.92 541.354 113.48V103.6H543.154V113.48C543.154 113.893 543.151 114.263 543.144 114.59C543.144 114.917 543.111 115.23 543.044 115.53C542.984 115.823 542.864 116.123 542.684 116.43C542.324 117.063 541.841 117.533 541.234 117.84C540.634 118.14 539.971 118.29 539.244 118.29Z" fill="#110529"/>
        <rect x="480" y="84" width="120" height="52" rx="1" stroke="#110529" stroke-width="2" stroke-linecap="round"/>
    </g>
    <g filter="url(#filter5_i_6463_39029)">
        <rect x="600" y="84" width="280" height="52" rx="1" fill="#FAFAAA"/>
        <path d="M740.093 118.3C738.66 118.3 737.443 117.983 736.443 117.35C735.443 116.717 734.68 115.837 734.153 114.71C733.633 113.583 733.373 112.28 733.373 110.8C733.373 109.32 733.633 108.017 734.153 106.89C734.68 105.763 735.443 104.883 736.443 104.25C737.443 103.617 738.66 103.3 740.093 103.3C741.76 103.3 743.13 103.723 744.203 104.57C745.283 105.417 746.027 106.557 746.433 107.99L744.623 108.47C744.33 107.397 743.807 106.55 743.053 105.93C742.3 105.31 741.313 105 740.093 105C739.02 105 738.127 105.243 737.413 105.73C736.7 106.217 736.163 106.897 735.803 107.77C735.443 108.637 735.26 109.647 735.253 110.8C735.247 111.947 735.423 112.957 735.783 113.83C736.143 114.697 736.683 115.377 737.403 115.87C738.123 116.357 739.02 116.6 740.093 116.6C741.313 116.6 742.3 116.29 743.053 115.67C743.807 115.043 744.33 114.197 744.623 113.13L746.433 113.61C746.027 115.037 745.283 116.177 744.203 117.03C743.13 117.877 741.76 118.3 740.093 118.3Z" fill="#110529"/>
        <rect x="600" y="84" width="280" height="52" rx="1" stroke="#110529" stroke-width="2" stroke-linecap="round"/>
    </g>
    <g filter="url(#filter6_i_6463_39029)">
        <rect x="96" y="340" width="288" height="52" rx="1" fill="#99E099"/>
        <path d="M238.758 374L233.938 359.6H235.788L239.978 372.11L244.208 359.6H246.058L241.238 374H238.758Z" fill="#110529"/>
        <rect x="96" y="340" width="288" height="52" rx="1" stroke="#110529" stroke-width="2" stroke-linecap="round"/>
    </g>
    <g filter="url(#filter7_i_6463_39029)">
        <rect x="384" y="340" width="30" height="52" rx="1" fill="#CBEB67"/>
    </g>
    <rect x="384" y="340" width="30" height="52" rx="1" stroke="#110529" stroke-width="2" stroke-linecap="round"/>
    <g filter="url(#filter8_i_6463_39029)">
        <rect x="450" y="340" width="30" height="52" rx="1" fill="#FAAAFA"/>
    </g>
    <rect x="450" y="340" width="30" height="52" rx="1" stroke="#110529" stroke-width="2" stroke-linecap="round"/>
    <g filter="url(#filter9_i_6463_39029)">
        <rect x="414" y="340" width="36" height="52" rx="1" fill="#FFCB8F"/>
    </g>
    <rect x="414" y="340" width="36" height="52" rx="1" stroke="#110529" stroke-width="2" stroke-linecap="round"/>
    <path d="M393.447 374V359.6H395.247L402.757 370.85V359.6H404.557V374H402.757L395.247 362.74V374H393.447Z" fill="#110529"/>
    <path d="M459.447 374V359.6H461.247L468.757 370.85V359.6H470.557V374H468.757L461.247 362.74V374H459.447Z" fill="#110529"/>
    <path d="M426.593 374V359.6H431.033C431.18 359.6 431.437 359.603 431.803 359.61C432.17 359.617 432.52 359.643 432.853 359.69C433.967 359.837 434.897 360.243 435.643 360.91C436.397 361.57 436.963 362.41 437.343 363.43C437.723 364.45 437.913 365.573 437.913 366.8C437.913 368.027 437.723 369.15 437.343 370.17C436.963 371.19 436.397 372.033 435.643 372.7C434.897 373.36 433.967 373.763 432.853 373.91C432.52 373.95 432.167 373.977 431.793 373.99C431.427 373.997 431.173 374 431.033 374H426.593ZM428.423 372.3H431.033C431.287 372.3 431.57 372.293 431.883 372.28C432.197 372.26 432.47 372.23 432.703 372.19C433.49 372.043 434.127 371.713 434.613 371.2C435.1 370.687 435.457 370.047 435.683 369.28C435.91 368.513 436.023 367.687 436.023 366.8C436.023 365.893 435.907 365.057 435.673 364.29C435.447 363.523 435.09 362.887 434.603 362.38C434.117 361.873 433.483 361.55 432.703 361.41C432.47 361.363 432.193 361.333 431.873 361.32C431.553 361.307 431.273 361.3 431.033 361.3H428.423V372.3Z" fill="#110529"/>
    <g filter="url(#filter10_i_6463_39029)">
        <rect x="480" y="340" width="120" height="52" rx="1" fill="#C1ADFF"/>
        <path d="M539.244 374.29C538.237 374.29 537.384 374.017 536.684 373.47C535.984 372.923 535.504 372.19 535.244 371.27L537.014 370.85C537.121 371.337 537.377 371.75 537.784 372.09C538.197 372.43 538.671 372.6 539.204 372.6C539.551 372.6 539.904 372.517 540.264 372.35C540.624 372.177 540.901 371.897 541.094 371.51C541.227 371.243 541.304 370.95 541.324 370.63C541.344 370.303 541.354 369.92 541.354 369.48V359.6H543.154V369.48C543.154 369.893 543.151 370.263 543.144 370.59C543.144 370.917 543.111 371.23 543.044 371.53C542.984 371.823 542.864 372.123 542.684 372.43C542.324 373.063 541.841 373.533 541.234 373.84C540.634 374.14 539.971 374.29 539.244 374.29Z" fill="#110529"/>
        <rect x="480" y="340" width="120" height="52" rx="1" stroke="#110529" stroke-width="2" stroke-linecap="round"/>
    </g>
    <g filter="url(#filter11_i_6463_39029)">
        <rect x="600" y="340" width="280" height="52" rx="1" fill="#FAFAAA"/>
        <path d="M740.093 374.3C738.66 374.3 737.443 373.983 736.443 373.35C735.443 372.717 734.68 371.837 734.153 370.71C733.633 369.583 733.373 368.28 733.373 366.8C733.373 365.32 733.633 364.017 734.153 362.89C734.68 361.763 735.443 360.883 736.443 360.25C737.443 359.617 738.66 359.3 740.093 359.3C741.76 359.3 743.13 359.723 744.203 360.57C745.283 361.417 746.027 362.557 746.433 363.99L744.623 364.47C744.33 363.397 743.807 362.55 743.053 361.93C742.3 361.31 741.313 361 740.093 361C739.02 361 738.127 361.243 737.413 361.73C736.7 362.217 736.163 362.897 735.803 363.77C735.443 364.637 735.26 365.647 735.253 366.8C735.247 367.947 735.423 368.957 735.783 369.83C736.143 370.697 736.683 371.377 737.403 371.87C738.123 372.357 739.02 372.6 740.093 372.6C741.313 372.6 742.3 372.29 743.053 371.67C743.807 371.043 744.33 370.197 744.623 369.13L746.433 369.61C746.027 371.037 745.283 372.177 744.203 373.03C743.13 373.877 741.76 374.3 740.093 374.3Z" fill="#110529"/>
        <rect x="600" y="340" width="280" height="52" rx="1" stroke="#110529" stroke-width="2" stroke-linecap="round"/>
    </g>
    <g filter="url(#filter12_i_6463_39029)">
        <rect x="96" y="240" width="288" height="52" rx="1" fill="#99E099"/>
        <path d="M238.758 274L233.938 259.6H235.788L239.978 272.11L244.208 259.6H246.058L241.238 274H238.758Z" fill="#110529"/>
        <rect x="96" y="240" width="288" height="52" rx="1" stroke="#110529" stroke-width="2" stroke-linecap="round"/>
    </g>
    <g filter="url(#filter13_i_6463_39029)">
        <rect x="384" y="240" width="30" height="52" rx="1" fill="#CBEB67"/>
        <path d="M393.447 274V259.6H395.247L402.757 270.85V259.6H404.557V274H402.757L395.247 262.74V274H393.447Z" fill="#110529"/>
        <rect x="384" y="240" width="30" height="52" rx="1" stroke="#110529" stroke-width="2" stroke-linecap="round"/>
    </g>
    <g filter="url(#filter14_i_6463_39029)">
        <rect x="414" y="240" width="120" height="52" rx="1" fill="#C1ADFF"/>
        <path d="M473.244 274.29C472.237 274.29 471.384 274.017 470.684 273.47C469.984 272.923 469.504 272.19 469.244 271.27L471.014 270.85C471.121 271.337 471.377 271.75 471.784 272.09C472.197 272.43 472.671 272.6 473.204 272.6C473.551 272.6 473.904 272.517 474.264 272.35C474.624 272.177 474.901 271.897 475.094 271.51C475.227 271.243 475.304 270.95 475.324 270.63C475.344 270.303 475.354 269.92 475.354 269.48V259.6H477.154V269.48C477.154 269.893 477.151 270.263 477.144 270.59C477.144 270.917 477.111 271.23 477.044 271.53C476.984 271.823 476.864 272.123 476.684 272.43C476.324 273.063 475.841 273.533 475.234 273.84C474.634 274.14 473.971 274.29 473.244 274.29Z" fill="#110529"/>
        <rect x="414" y="240" width="120" height="52" rx="1" stroke="#110529" stroke-width="2" stroke-linecap="round"/>
    </g>
    <g filter="url(#filter15_i_6463_39029)">
        <rect x="534" y="240" width="280" height="52" rx="1" fill="#FAFAAA"/>
        <path d="M674.093 274.3C672.66 274.3 671.443 273.983 670.443 273.35C669.443 272.717 668.68 271.837 668.153 270.71C667.633 269.583 667.373 268.28 667.373 266.8C667.373 265.32 667.633 264.017 668.153 262.89C668.68 261.763 669.443 260.883 670.443 260.25C671.443 259.617 672.66 259.3 674.093 259.3C675.76 259.3 677.13 259.723 678.203 260.57C679.283 261.417 680.027 262.557 680.433 263.99L678.623 264.47C678.33 263.397 677.807 262.55 677.053 261.93C676.3 261.31 675.313 261 674.093 261C673.02 261 672.127 261.243 671.413 261.73C670.7 262.217 670.163 262.897 669.803 263.77C669.443 264.637 669.26 265.647 669.253 266.8C669.247 267.947 669.423 268.957 669.783 269.83C670.143 270.697 670.683 271.377 671.403 271.87C672.123 272.357 673.02 272.6 674.093 272.6C675.313 272.6 676.3 272.29 677.053 271.67C677.807 271.043 678.33 270.197 678.623 269.13L680.433 269.61C680.027 271.037 679.283 272.177 678.203 273.03C677.13 273.877 675.76 274.3 674.093 274.3Z" fill="#110529"/>
        <rect x="534" y="240" width="280" height="52" rx="1" stroke="#110529" stroke-width="2" stroke-linecap="round"/>
    </g>
    <g filter="url(#filter16_i_6463_39029)">
        <rect x="96" y="440" width="288" height="52" rx="1" fill="#99E099"/>
        <path d="M238.758 474L233.938 459.6H235.788L239.978 472.11L244.208 459.6H246.058L241.238 474H238.758Z" fill="#110529"/>
        <rect x="96" y="440" width="288" height="52" rx="1" stroke="#110529" stroke-width="2" stroke-linecap="round"/>
    </g>
    <g filter="url(#filter17_i_6463_39029)">
        <rect x="384" y="440" width="30" height="52" rx="1" fill="#CBEB67"/>
        <path d="M393.447 474V459.6H395.247L402.757 470.85V459.6H404.557V474H402.757L395.247 462.74V474H393.447Z" fill="#110529"/>
        <rect x="384" y="440" width="30" height="52" rx="1" stroke="#110529" stroke-width="2" stroke-linecap="round"/>
    </g>
    <g filter="url(#filter18_i_6463_39029)">
        <rect x="414" y="440" width="120" height="52" rx="1" fill="#C1ADFF"/>
        <path d="M473.244 474.29C472.237 474.29 471.384 474.017 470.684 473.47C469.984 472.923 469.504 472.19 469.244 471.27L471.014 470.85C471.121 471.337 471.377 471.75 471.784 472.09C472.197 472.43 472.671 472.6 473.204 472.6C473.551 472.6 473.904 472.517 474.264 472.35C474.624 472.177 474.901 471.897 475.094 471.51C475.227 471.243 475.304 470.95 475.324 470.63C475.344 470.303 475.354 469.92 475.354 469.48V459.6H477.154V469.48C477.154 469.893 477.151 470.263 477.144 470.59C477.144 470.917 477.111 471.23 477.044 471.53C476.984 471.823 476.864 472.123 476.684 472.43C476.324 473.063 475.841 473.533 475.234 473.84C474.634 474.14 473.971 474.29 473.244 474.29Z" fill="#110529"/>
        <rect x="414" y="440" width="120" height="52" rx="1" stroke="#110529" stroke-width="2" stroke-linecap="round"/>
    </g>
    <g filter="url(#filter19_i_6463_39029)">
        <rect x="534" y="440" width="280" height="52" rx="1" fill="#FAFAAA"/>
        <path d="M674.093 474.3C672.66 474.3 671.443 473.983 670.443 473.35C669.443 472.717 668.68 471.837 668.153 470.71C667.633 469.583 667.373 468.28 667.373 466.8C667.373 465.32 667.633 464.017 668.153 462.89C668.68 461.763 669.443 460.883 670.443 460.25C671.443 459.617 672.66 459.3 674.093 459.3C675.76 459.3 677.13 459.723 678.203 460.57C679.283 461.417 680.027 462.557 680.433 463.99L678.623 464.47C678.33 463.397 677.807 462.55 677.053 461.93C676.3 461.31 675.313 461 674.093 461C673.02 461 672.127 461.243 671.413 461.73C670.7 462.217 670.163 462.897 669.803 463.77C669.443 464.637 669.26 465.647 669.253 466.8C669.247 467.947 669.423 468.957 669.783 469.83C670.143 470.697 670.683 471.377 671.403 471.87C672.123 472.357 673.02 472.6 674.093 472.6C675.313 472.6 676.3 472.29 677.053 471.67C677.807 471.043 678.33 470.197 678.623 469.13L680.433 469.61C680.027 471.037 679.283 472.177 678.203 473.03C677.13 473.877 675.76 474.3 674.093 474.3Z" fill="#110529"/>
        <rect x="534" y="440" width="280" height="52" rx="1" stroke="#110529" stroke-width="2" stroke-linecap="round"/>
    </g>
    <path d="M96 182L95.2929 182.707L94.5858 182L95.2929 181.293L96 182ZM103.293 173.293L104 172.586L105.414 174L104.707 174.707L103.293 173.293ZM104.707 189.293L105.414 190L104 191.414L103.293 190.707L104.707 189.293ZM106 183L96 183L96 181L106 181L106 183ZM95.2929 181.293L103.293 173.293L104.707 174.707L96.7071 182.707L95.2929 181.293ZM96.7071 181.293L104.707 189.293L103.293 190.707L95.2929 182.707L96.7071 181.293Z" fill="white"/>
    <path d="M439.5 182H106" stroke="white" stroke-width="2"/>
    <rect width="107" height="20" transform="translate(439.5 172)" fill="#1D1D29"/>
    <path d="M446.995 188H448.443V176.48H446.995L444.827 177.776V179.368L446.995 178.056V188ZM455.375 188.24C457.615 188.24 459.263 186.592 459.263 184.352V180.128C459.263 177.888 457.615 176.24 455.375 176.24C453.135 176.24 451.487 177.888 451.487 180.128V184.352C451.487 186.592 453.135 188.24 455.375 188.24ZM452.935 184.432V180.04C452.935 178.688 454.023 177.6 455.375 177.6C456.727 177.6 457.815 178.688 457.815 180.04V184.432C457.815 185.784 456.727 186.872 455.375 186.872C454.023 186.872 452.935 185.784 452.935 184.432ZM465.391 188.24C467.631 188.24 469.279 186.592 469.279 184.352V180.128C469.279 177.888 467.631 176.24 465.391 176.24C463.151 176.24 461.503 177.888 461.503 180.128V184.352C461.503 186.592 463.151 188.24 465.391 188.24ZM462.951 184.432V180.04C462.951 178.688 464.039 177.6 465.391 177.6C466.743 177.6 467.831 178.688 467.831 180.04V184.432C467.831 185.784 466.743 186.872 465.391 186.872C464.039 186.872 462.951 185.784 462.951 184.432ZM475.406 188.24C477.646 188.24 479.294 186.592 479.294 184.352V180.128C479.294 177.888 477.646 176.24 475.406 176.24C473.166 176.24 471.518 177.888 471.518 180.128V184.352C471.518 186.592 473.166 188.24 475.406 188.24ZM472.966 184.432V180.04C472.966 178.688 474.054 177.6 475.406 177.6C476.758 177.6 477.846 178.688 477.846 180.04V184.432C477.846 185.784 476.758 186.872 475.406 186.872C474.054 186.872 472.966 185.784 472.966 184.432ZM481.374 182.824H486.174V181.648H481.374V182.824ZM490.261 188H491.709V176.48H490.261L488.093 177.776V179.368L490.261 178.056V188ZM498.161 188.24C500.305 188.24 502.121 186.504 502.121 184.376C502.121 182.232 500.497 180.584 498.361 180.584C497.585 180.584 496.809 180.848 496.209 181.328L496.417 177.832H501.321V176.48H495.137L494.785 182.504L496.049 182.984C496.465 182.384 497.185 181.896 498.201 181.896C499.545 181.896 500.689 182.984 500.689 184.376C500.689 185.728 499.601 186.856 498.201 186.856C497.129 186.856 496.089 186.144 495.801 185.008L494.433 185.376C494.897 187.056 496.377 188.24 498.161 188.24ZM507.922 188.24C510.162 188.24 511.81 186.592 511.81 184.352V180.128C511.81 177.888 510.162 176.24 507.922 176.24C505.682 176.24 504.034 177.888 504.034 180.128V184.352C504.034 186.592 505.682 188.24 507.922 188.24ZM505.482 184.432V180.04C505.482 178.688 506.57 177.6 507.922 177.6C509.274 177.6 510.362 178.688 510.362 180.04V184.432C510.362 185.784 509.274 186.872 507.922 186.872C506.57 186.872 505.482 185.784 505.482 184.432ZM517.938 188.24C520.178 188.24 521.826 186.592 521.826 184.352V180.128C521.826 177.888 520.178 176.24 517.938 176.24C515.698 176.24 514.05 177.888 514.05 180.128V184.352C514.05 186.592 515.698 188.24 517.938 188.24ZM515.498 184.432V180.04C515.498 178.688 516.586 177.6 517.938 177.6C519.29 177.6 520.378 178.688 520.378 180.04V184.432C520.378 185.784 519.29 186.872 517.938 186.872C516.586 186.872 515.498 185.784 515.498 184.432ZM528.033 188.24C530.449 188.24 531.905 186.264 531.905 183.672C531.905 181.08 530.441 179.12 528.041 179.12C526.961 179.12 526.105 179.496 525.489 180.144V176.48H524.057V188H525.329V187.024C525.961 187.784 526.865 188.24 528.033 188.24ZM525.329 183.672C525.329 181.76 526.129 180.424 527.817 180.424C529.577 180.424 530.393 181.848 530.393 183.672C530.393 185.512 529.561 186.936 527.857 186.936C526.113 186.936 525.329 185.568 525.329 183.672ZM537.627 188.24C540.043 188.24 541.499 186.264 541.499 183.672C541.499 181.08 540.035 179.12 537.635 179.12C536.459 179.12 535.555 179.568 534.923 180.328V179.36H533.651V191.84H535.083V187.2C535.699 187.856 536.555 188.24 537.627 188.24ZM534.923 183.672C534.923 181.76 535.723 180.424 537.411 180.424C539.171 180.424 539.987 181.848 539.987 183.672C539.987 185.512 539.155 186.936 537.451 186.936C535.707 186.936 534.923 185.568 534.923 183.672Z" fill="white"/>
    <path d="M880 182H546.5" stroke="white" stroke-width="2"/>
    <defs>
        <filter id="filter0_i_6463_39029" x="95" y="83" width="290" height="54" filterUnits="userSpaceOnUse" color-interpolation-filters="sRGB">
            <feFlood flood-opacity="0" result="BackgroundImageFix"/>
            <feBlend mode="normal" in="SourceGraphic" in2="BackgroundImageFix" result="shape"/>
            <feColorMatrix in="SourceAlpha" type="matrix" values="0 0 0 0 0 0 0 0 0 0 0 0 0 0 0 0 0 0 127 0" result="hardAlpha"/>
            <feOffset dx="-8" dy="-4"/>
            <feComposite in2="hardAlpha" operator="arithmetic" k2="-1" k3="1"/>
            <feColorMatrix type="matrix" values="0 0 0 0 0.0666667 0 0 0 0 0.0196078 0 0 0 0 0.160784 0 0 0 0.16 0"/>
            <feBlend mode="normal" in2="shape" result="effect1_innerShadow_6463_39029"/>
        </filter>
        <filter id="filter1_i_6463_39029" x="383" y="83" width="32" height="54" filterUnits="userSpaceOnUse" color-interpolation-filters="sRGB">
            <feFlood flood-opacity="0" result="BackgroundImageFix"/>
            <feBlend mode="normal" in="SourceGraphic" in2="BackgroundImageFix" result="shape"/>
            <feColorMatrix in="SourceAlpha" type="matrix" values="0 0 0 0 0 0 0 0 0 0 0 0 0 0 0 0 0 0 127 0" result="hardAlpha"/>
            <feOffset dx="-8" dy="-4"/>
            <feComposite in2="hardAlpha" operator="arithmetic" k2="-1" k3="1"/>
            <feColorMatrix type="matrix" values="0 0 0 0 0.0666667 0 0 0 0 0.0196078 0 0 0 0 0.160784 0 0 0 0.16 0"/>
            <feBlend mode="normal" in2="shape" result="effect1_innerShadow_6463_39029"/>
        </filter>
        <filter id="filter2_i_6463_39029" x="449" y="83" width="32" height="54" filterUnits="userSpaceOnUse" color-interpolation-filters="sRGB">
            <feFlood flood-opacity="0" result="BackgroundImageFix"/>
            <feBlend mode="normal" in="SourceGraphic" in2="BackgroundImageFix" result="shape"/>
            <feColorMatrix in="SourceAlpha" type="matrix" values="0 0 0 0 0 0 0 0 0 0 0 0 0 0 0 0 0 0 127 0" result="hardAlpha"/>
            <feOffset dx="-8" dy="-4"/>
            <feComposite in2="hardAlpha" operator="arithmetic" k2="-1" k3="1"/>
            <feColorMatrix type="matrix" values="0 0 0 0 0.0666667 0 0 0 0 0.0196078 0 0 0 0 0.160784 0 0 0 0.16 0"/>
            <feBlend mode="normal" in2="shape" result="effect1_innerShadow_6463_39029"/>
        </filter>
        <filter id="filter3_i_6463_39029" x="413" y="83" width="38" height="54" filterUnits="userSpaceOnUse" color-interpolation-filters="sRGB">
            <feFlood flood-opacity="0" result="BackgroundImageFix"/>
            <feBlend mode="normal" in="SourceGraphic" in2="BackgroundImageFix" result="shape"/>
            <feColorMatrix in="SourceAlpha" type="matrix" values="0 0 0 0 0 0 0 0 0 0 0 0 0 0 0 0 0 0 127 0" result="hardAlpha"/>
            <feOffset dx="-8" dy="-4"/>
            <feComposite in2="hardAlpha" operator="arithmetic" k2="-1" k3="1"/>
            <feColorMatrix type="matrix" values="0 0 0 0 0.0666667 0 0 0 0 0.0196078 0 0 0 0 0.160784 0 0 0 0.16 0"/>
            <feBlend mode="normal" in2="shape" result="effect1_innerShadow_6463_39029"/>
        </filter>
        <filter id="filter4_i_6463_39029" x="479" y="83" width="122" height="54" filterUnits="userSpaceOnUse" color-interpolation-filters="sRGB">
            <feFlood flood-opacity="0" result="BackgroundImageFix"/>
            <feBlend mode="normal" in="SourceGraphic" in2="BackgroundImageFix" result="shape"/>
            <feColorMatrix in="SourceAlpha" type="matrix" values="0 0 0 0 0 0 0 0 0 0 0 0 0 0 0 0 0 0 127 0" result="hardAlpha"/>
            <feOffset dx="-8" dy="-4"/>
            <feComposite in2="hardAlpha" operator="arithmetic" k2="-1" k3="1"/>
            <feColorMatrix type="matrix" values="0 0 0 0 0.0666667 0 0 0 0 0.0196078 0 0 0 0 0.160784 0 0 0 0.16 0"/>
            <feBlend mode="normal" in2="shape" result="effect1_innerShadow_6463_39029"/>
        </filter>
        <filter id="filter5_i_6463_39029" x="599" y="83" width="282" height="54" filterUnits="userSpaceOnUse" color-interpolation-filters="sRGB">
            <feFlood flood-opacity="0" result="BackgroundImageFix"/>
            <feBlend mode="normal" in="SourceGraphic" in2="BackgroundImageFix" result="shape"/>
            <feColorMatrix in="SourceAlpha" type="matrix" values="0 0 0 0 0 0 0 0 0 0 0 0 0 0 0 0 0 0 127 0" result="hardAlpha"/>
            <feOffset dx="-8" dy="-4"/>
            <feComposite in2="hardAlpha" operator="arithmetic" k2="-1" k3="1"/>
            <feColorMatrix type="matrix" values="0 0 0 0 0.0666667 0 0 0 0 0.0196078 0 0 0 0 0.160784 0 0 0 0.16 0"/>
            <feBlend mode="normal" in2="shape" result="effect1_innerShadow_6463_39029"/>
        </filter>
        <filter id="filter6_i_6463_39029" x="95" y="339" width="290" height="54" filterUnits="userSpaceOnUse" color-interpolation-filters="sRGB">
            <feFlood flood-opacity="0" result="BackgroundImageFix"/>
            <feBlend mode="normal" in="SourceGraphic" in2="BackgroundImageFix" result="shape"/>
            <feColorMatrix in="SourceAlpha" type="matrix" values="0 0 0 0 0 0 0 0 0 0 0 0 0 0 0 0 0 0 127 0" result="hardAlpha"/>
            <feOffset dx="-8" dy="-4"/>
            <feComposite in2="hardAlpha" operator="arithmetic" k2="-1" k3="1"/>
            <feColorMatrix type="matrix" values="0 0 0 0 0.0666667 0 0 0 0 0.0196078 0 0 0 0 0.160784 0 0 0 0.16 0"/>
            <feBlend mode="normal" in2="shape" result="effect1_innerShadow_6463_39029"/>
        </filter>
        <filter id="filter7_i_6463_39029" x="383" y="339" width="32" height="54" filterUnits="userSpaceOnUse" color-interpolation-filters="sRGB">
            <feFlood flood-opacity="0" result="BackgroundImageFix"/>
            <feBlend mode="normal" in="SourceGraphic" in2="BackgroundImageFix" result="shape"/>
            <feColorMatrix in="SourceAlpha" type="matrix" values="0 0 0 0 0 0 0 0 0 0 0 0 0 0 0 0 0 0 127 0" result="hardAlpha"/>
            <feOffset dx="-8" dy="-4"/>
            <feComposite in2="hardAlpha" operator="arithmetic" k2="-1" k3="1"/>
            <feColorMatrix type="matrix" values="0 0 0 0 0.0666667 0 0 0 0 0.0196078 0 0 0 0 0.160784 0 0 0 0.16 0"/>
            <feBlend mode="normal" in2="shape" result="effect1_innerShadow_6463_39029"/>
        </filter>
        <filter id="filter8_i_6463_39029" x="449" y="339" width="32" height="54" filterUnits="userSpaceOnUse" color-interpolation-filters="sRGB">
            <feFlood flood-opacity="0" result="BackgroundImageFix"/>
            <feBlend mode="normal" in="SourceGraphic" in2="BackgroundImageFix" result="shape"/>
            <feColorMatrix in="SourceAlpha" type="matrix" values="0 0 0 0 0 0 0 0 0 0 0 0 0 0 0 0 0 0 127 0" result="hardAlpha"/>
            <feOffset dx="-8" dy="-4"/>
            <feComposite in2="hardAlpha" operator="arithmetic" k2="-1" k3="1"/>
            <feColorMatrix type="matrix" values="0 0 0 0 0.0666667 0 0 0 0 0.0196078 0 0 0 0 0.160784 0 0 0 0.16 0"/>
            <feBlend mode="normal" in2="shape" result="effect1_innerShadow_6463_39029"/>
        </filter>
        <filter id="filter9_i_6463_39029" x="413" y="339" width="38" height="54" filterUnits="userSpaceOnUse" color-interpolation-filters="sRGB">
            <feFlood flood-opacity="0" result="BackgroundImageFix"/>
            <feBlend mode="normal" in="SourceGraphic" in2="BackgroundImageFix" result="shape"/>
            <feColorMatrix in="SourceAlpha" type="matrix" values="0 0 0 0 0 0 0 0 0 0 0 0 0 0 0 0 0 0 127 0" result="hardAlpha"/>
            <feOffset dx="-8" dy="-4"/>
            <feComposite in2="hardAlpha" operator="arithmetic" k2="-1" k3="1"/>
            <feColorMatrix type="matrix" values="0 0 0 0 0.0666667 0 0 0 0 0.0196078 0 0 0 0 0.160784 0 0 0 0.16 0"/>
            <feBlend mode="normal" in2="shape" result="effect1_innerShadow_6463_39029"/>
        </filter>
        <filter id="filter10_i_6463_39029" x="479" y="339" width="122" height="54" filterUnits="userSpaceOnUse" color-interpolation-filters="sRGB">
            <feFlood flood-opacity="0" result="BackgroundImageFix"/>
            <feBlend mode="normal" in="SourceGraphic" in2="BackgroundImageFix" result="shape"/>
            <feColorMatrix in="SourceAlpha" type="matrix" values="0 0 0 0 0 0 0 0 0 0 0 0 0 0 0 0 0 0 127 0" result="hardAlpha"/>
            <feOffset dx="-8" dy="-4"/>
            <feComposite in2="hardAlpha" operator="arithmetic" k2="-1" k3="1"/>
            <feColorMatrix type="matrix" values="0 0 0 0 0.0666667 0 0 0 0 0.0196078 0 0 0 0 0.160784 0 0 0 0.16 0"/>
            <feBlend mode="normal" in2="shape" result="effect1_innerShadow_6463_39029"/>
        </filter>
        <filter id="filter11_i_6463_39029" x="599" y="339" width="282" height="54" filterUnits="userSpaceOnUse" color-interpolation-filters="sRGB">
            <feFlood flood-opacity="0" result="BackgroundImageFix"/>
            <feBlend mode="normal" in="SourceGraphic" in2="BackgroundImageFix" result="shape"/>
            <feColorMatrix in="SourceAlpha" type="matrix" values="0 0 0 0 0 0 0 0 0 0 0 0 0 0 0 0 0 0 127 0" result="hardAlpha"/>
            <feOffset dx="-8" dy="-4"/>
            <feComposite in2="hardAlpha" operator="arithmetic" k2="-1" k3="1"/>
            <feColorMatrix type="matrix" values="0 0 0 0 0.0666667 0 0 0 0 0.0196078 0 0 0 0 0.160784 0 0 0 0.16 0"/>
            <feBlend mode="normal" in2="shape" result="effect1_innerShadow_6463_39029"/>
        </filter>
        <filter id="filter12_i_6463_39029" x="95" y="239" width="290" height="54" filterUnits="userSpaceOnUse" color-interpolation-filters="sRGB">
            <feFlood flood-opacity="0" result="BackgroundImageFix"/>
            <feBlend mode="normal" in="SourceGraphic" in2="BackgroundImageFix" result="shape"/>
            <feColorMatrix in="SourceAlpha" type="matrix" values="0 0 0 0 0 0 0 0 0 0 0 0 0 0 0 0 0 0 127 0" result="hardAlpha"/>
            <feOffset dx="-8" dy="-4"/>
            <feComposite in2="hardAlpha" operator="arithmetic" k2="-1" k3="1"/>
            <feColorMatrix type="matrix" values="0 0 0 0 0.0666667 0 0 0 0 0.0196078 0 0 0 0 0.160784 0 0 0 0.16 0"/>
            <feBlend mode="normal" in2="shape" result="effect1_innerShadow_6463_39029"/>
        </filter>
        <filter id="filter13_i_6463_39029" x="383" y="239" width="32" height="54" filterUnits="userSpaceOnUse" color-interpolation-filters="sRGB">
            <feFlood flood-opacity="0" result="BackgroundImageFix"/>
            <feBlend mode="normal" in="SourceGraphic" in2="BackgroundImageFix" result="shape"/>
            <feColorMatrix in="SourceAlpha" type="matrix" values="0 0 0 0 0 0 0 0 0 0 0 0 0 0 0 0 0 0 127 0" result="hardAlpha"/>
            <feOffset dx="-8" dy="-4"/>
            <feComposite in2="hardAlpha" operator="arithmetic" k2="-1" k3="1"/>
            <feColorMatrix type="matrix" values="0 0 0 0 0.0666667 0 0 0 0 0.0196078 0 0 0 0 0.160784 0 0 0 0.16 0"/>
            <feBlend mode="normal" in2="shape" result="effect1_innerShadow_6463_39029"/>
        </filter>
        <filter id="filter14_i_6463_39029" x="413" y="239" width="122" height="54" filterUnits="userSpaceOnUse" color-interpolation-filters="sRGB">
            <feFlood flood-opacity="0" result="BackgroundImageFix"/>
            <feBlend mode="normal" in="SourceGraphic" in2="BackgroundImageFix" result="shape"/>
            <feColorMatrix in="SourceAlpha" type="matrix" values="0 0 0 0 0 0 0 0 0 0 0 0 0 0 0 0 0 0 127 0" result="hardAlpha"/>
            <feOffset dx="-8" dy="-4"/>
            <feComposite in2="hardAlpha" operator="arithmetic" k2="-1" k3="1"/>
            <feColorMatrix type="matrix" values="0 0 0 0 0.0666667 0 0 0 0 0.0196078 0 0 0 0 0.160784 0 0 0 0.16 0"/>
            <feBlend mode="normal" in2="shape" result="effect1_innerShadow_6463_39029"/>
        </filter>
        <filter id="filter15_i_6463_39029" x="533" y="239" width="282" height="54" filterUnits="userSpaceOnUse" color-interpolation-filters="sRGB">
            <feFlood flood-opacity="0" result="BackgroundImageFix"/>
            <feBlend mode="normal" in="SourceGraphic" in2="BackgroundImageFix" result="shape"/>
            <feColorMatrix in="SourceAlpha" type="matrix" values="0 0 0 0 0 0 0 0 0 0 0 0 0 0 0 0 0 0 127 0" result="hardAlpha"/>
            <feOffset dx="-8" dy="-4"/>
            <feComposite in2="hardAlpha" operator="arithmetic" k2="-1" k3="1"/>
            <feColorMatrix type="matrix" values="0 0 0 0 0.0666667 0 0 0 0 0.0196078 0 0 0 0 0.160784 0 0 0 0.16 0"/>
            <feBlend mode="normal" in2="shape" result="effect1_innerShadow_6463_39029"/>
        </filter>
        <filter id="filter16_i_6463_39029" x="95" y="439" width="290" height="54" filterUnits="userSpaceOnUse" color-interpolation-filters="sRGB">
            <feFlood flood-opacity="0" result="BackgroundImageFix"/>
            <feBlend mode="normal" in="SourceGraphic" in2="BackgroundImageFix" result="shape"/>
            <feColorMatrix in="SourceAlpha" type="matrix" values="0 0 0 0 0 0 0 0 0 0 0 0 0 0 0 0 0 0 127 0" result="hardAlpha"/>
            <feOffset dx="-8" dy="-4"/>
            <feComposite in2="hardAlpha" operator="arithmetic" k2="-1" k3="1"/>
            <feColorMatrix type="matrix" values="0 0 0 0 0.0666667 0 0 0 0 0.0196078 0 0 0 0 0.160784 0 0 0 0.16 0"/>
            <feBlend mode="normal" in2="shape" result="effect1_innerShadow_6463_39029"/>
        </filter>
        <filter id="filter17_i_6463_39029" x="383" y="439" width="32" height="54" filterUnits="userSpaceOnUse" color-interpolation-filters="sRGB">
            <feFlood flood-opacity="0" result="BackgroundImageFix"/>
            <feBlend mode="normal" in="SourceGraphic" in2="BackgroundImageFix" result="shape"/>
            <feColorMatrix in="SourceAlpha" type="matrix" values="0 0 0 0 0 0 0 0 0 0 0 0 0 0 0 0 0 0 127 0" result="hardAlpha"/>
            <feOffset dx="-8" dy="-4"/>
            <feComposite in2="hardAlpha" operator="arithmetic" k2="-1" k3="1"/>
            <feColorMatrix type="matrix" values="0 0 0 0 0.0666667 0 0 0 0 0.0196078 0 0 0 0 0.160784 0 0 0 0.16 0"/>
            <feBlend mode="normal" in2="shape" result="effect1_innerShadow_6463_39029"/>
        </filter>
        <filter id="filter18_i_6463_39029" x="413" y="439" width="122" height="54" filterUnits="userSpaceOnUse" color-interpolation-filters="sRGB">
            <feFlood flood-opacity="0" result="BackgroundImageFix"/>
            <feBlend mode="normal" in="SourceGraphic" in2="BackgroundImageFix" result="shape"/>
            <feColorMatrix in="SourceAlpha" type="matrix" values="0 0 0 0 0 0 0 0 0 0 0 0 0 0 0 0 0 0 127 0" result="hardAlpha"/>
            <feOffset dx="-8" dy="-4"/>
            <feComposite in2="hardAlpha" operator="arithmetic" k2="-1" k3="1"/>
            <feColorMatrix type="matrix" values="0 0 0 0 0.0666667 0 0 0 0 0.0196078 0 0 0 0 0.160784 0 0 0 0.16 0"/>
            <feBlend mode="normal" in2="shape" result="effect1_innerShadow_6463_39029"/>
        </filter>
        <filter id="filter19_i_6463_39029" x="533" y="439" width="282" height="54" filterUnits="userSpaceOnUse" color-interpolation-filters="sRGB">
            <feFlood flood-opacity="0" result="BackgroundImageFix"/>
            <feBlend mode="normal" in="SourceGraphic" in2="BackgroundImageFix" result="shape"/>
            <feColorMatrix in="SourceAlpha" type="matrix" values="0 0 0 0 0 0 0 0 0 0 0 0 0 0 0 0 0 0 127 0" result="hardAlpha"/>
            <feOffset dx="-8" dy="-4"/>
            <feComposite in2="hardAlpha" operator="arithmetic" k2="-1" k3="1"/>
            <feColorMatrix type="matrix" values="0 0 0 0 0.0666667 0 0 0 0 0.0196078 0 0 0 0 0.160784 0 0 0 0.16 0"/>
            <feBlend mode="normal" in2="shape" result="effect1_innerShadow_6463_39029"/>
        </filter>
    </defs>
</svg>
