<svg width="960" height="504" viewBox="0 0 960 504" fill="none" xmlns="http://www.w3.org/2000/svg">
    <rect width="960" height="504" fill="#1D1D29"/>
    <path d="M101.969 37.21C101.451 37.21 100.968 37.105 100.52 36.895C100.077 36.6803 99.6963 36.3863 99.379 36.013C99.0617 35.635 98.8353 35.201 98.7 34.711L100.107 34.333C100.186 34.6317 100.322 34.8907 100.513 35.11C100.709 35.3293 100.938 35.4997 101.199 35.621C101.46 35.7377 101.731 35.796 102.011 35.796C102.38 35.796 102.713 35.7073 103.012 35.53C103.315 35.3527 103.553 35.1147 103.726 34.816C103.903 34.5173 103.992 34.1883 103.992 33.829C103.992 33.4603 103.901 33.1267 103.719 32.828C103.542 32.5293 103.301 32.2937 102.998 32.121C102.699 31.9437 102.37 31.855 102.011 31.855C101.6 31.855 101.253 31.9367 100.968 32.1C100.683 32.2633 100.462 32.4523 100.303 32.667L99.029 32.219L99.337 26.92H104.776V28.299H100.086L100.681 27.746L100.436 31.715L100.149 31.344C100.415 31.078 100.732 30.875 101.101 30.735C101.47 30.595 101.836 30.525 102.2 30.525C102.825 30.525 103.383 30.6697 103.873 30.959C104.368 31.2483 104.757 31.6427 105.042 32.142C105.327 32.6367 105.469 33.199 105.469 33.829C105.469 34.4543 105.308 35.0237 104.986 35.537C104.664 36.0457 104.237 36.4517 103.705 36.755C103.173 37.0583 102.594 37.21 101.969 37.21ZM107.282 30.28L107.373 29.629C107.574 29.643 107.73 29.6057 107.842 29.517C107.954 29.4283 108.029 29.3047 108.066 29.146C108.103 28.9873 108.11 28.8077 108.087 28.607H107.282V26.92H108.829V28.747C108.829 29.2977 108.696 29.713 108.43 29.993C108.169 30.273 107.786 30.3687 107.282 30.28ZM114.852 37.21C114.063 37.21 113.365 37.049 112.759 36.727C112.157 36.4003 111.685 35.9453 111.345 35.362C111.004 34.774 110.834 34.0833 110.834 33.29V26.927L112.318 26.92V33.213C112.318 33.6423 112.39 34.0203 112.535 34.347C112.679 34.6737 112.873 34.9467 113.116 35.166C113.358 35.3853 113.629 35.551 113.928 35.663C114.231 35.775 114.539 35.831 114.852 35.831C115.169 35.831 115.477 35.775 115.776 35.663C116.079 35.5463 116.352 35.3783 116.595 35.159C116.837 34.9397 117.029 34.6667 117.169 34.34C117.313 34.0133 117.386 33.6377 117.386 33.213V26.92H118.87V33.29C118.87 34.0787 118.699 34.767 118.359 35.355C118.018 35.943 117.544 36.4003 116.938 36.727C116.336 37.049 115.64 37.21 114.852 37.21ZM123.341 37V28.299H119.988V26.92H128.157V28.299H124.804V37H123.341ZM129.277 37V26.92H133.351C133.449 26.92 133.57 26.9247 133.715 26.934C133.86 26.9387 133.997 26.9527 134.128 26.976C134.688 27.0647 135.155 27.256 135.528 27.55C135.906 27.844 136.188 28.215 136.375 28.663C136.562 29.111 136.655 29.6057 136.655 30.147C136.655 30.9497 136.45 31.6427 136.039 32.226C135.628 32.8047 135.012 33.1663 134.191 33.311L133.596 33.381H130.74V37H129.277ZM135.171 37L133.183 32.898L134.66 32.52L136.844 37H135.171ZM130.74 31.995H133.295C133.388 31.995 133.491 31.9903 133.603 31.981C133.72 31.9717 133.829 31.9553 133.932 31.932C134.231 31.862 134.471 31.7337 134.653 31.547C134.835 31.3557 134.966 31.1363 135.045 30.889C135.124 30.6417 135.164 30.3943 135.164 30.147C135.164 29.8997 135.124 29.6547 135.045 29.412C134.966 29.1647 134.835 28.9477 134.653 28.761C134.471 28.5697 134.231 28.439 133.932 28.369C133.829 28.341 133.72 28.3223 133.603 28.313C133.491 28.3037 133.388 28.299 133.295 28.299H130.74V31.995Z" fill="white" fill-opacity="0.3"/>
    <path d="M144 112V24" stroke="white" stroke-opacity="0.3" stroke-width="2" stroke-linecap="square" stroke-dasharray="6 6"/>
    <path d="M151.442 37V26.92H152.905V35.621H157.469V37H151.442Z" fill="white" fill-opacity="0.3"/>
    <path d="M164 112V24" stroke="white" stroke-opacity="0.3" stroke-width="2" stroke-linecap="square" stroke-dasharray="6 6"/>
    <path d="M173.858 37V26.92H179.829V28.383H175.321V31.225H178.989V32.695H175.321V37H173.858ZM181.09 37V26.92H185.164C185.262 26.92 185.384 26.9247 185.528 26.934C185.673 26.9387 185.811 26.9527 185.941 26.976C186.501 27.0647 186.968 27.256 187.341 27.55C187.719 27.844 188.002 28.215 188.188 28.663C188.375 29.111 188.468 29.6057 188.468 30.147C188.468 30.9497 188.263 31.6427 187.852 32.226C187.442 32.8047 186.826 33.1663 186.004 33.311L185.409 33.381H182.553V37H181.09ZM186.984 37L184.996 32.898L186.473 32.52L188.657 37H186.984ZM182.553 31.995H185.108C185.202 31.995 185.304 31.9903 185.416 31.981C185.533 31.9717 185.643 31.9553 185.745 31.932C186.044 31.862 186.284 31.7337 186.466 31.547C186.648 31.3557 186.779 31.1363 186.858 30.889C186.938 30.6417 186.977 30.3943 186.977 30.147C186.977 29.8997 186.938 29.6547 186.858 29.412C186.779 29.1647 186.648 28.9477 186.466 28.761C186.284 28.5697 186.044 28.439 185.745 28.369C185.643 28.341 185.533 28.3223 185.416 28.313C185.304 28.3037 185.202 28.299 185.108 28.299H182.553V31.995ZM191.953 37V28.53L190.056 29.685V28.054L191.953 26.92H193.444V37H191.953Z" fill="white" fill-opacity="0.3"/>
    <path d="M204 112V24" stroke="white" stroke-opacity="0.3" stroke-width="2" stroke-linecap="square" stroke-dasharray="6 6"/>
    <path d="M213.735 37.21C212.727 37.21 211.868 36.9907 211.159 36.552C210.45 36.1087 209.906 35.4927 209.528 34.704C209.155 33.9153 208.968 33.0007 208.968 31.96C208.968 30.9193 209.155 30.0047 209.528 29.216C209.906 28.4273 210.45 27.8137 211.159 27.375C211.868 26.9317 212.727 26.71 213.735 26.71C214.897 26.71 215.858 27.004 216.619 27.592C217.384 28.18 217.916 28.971 218.215 29.965L216.731 30.364C216.535 29.6593 216.185 29.1063 215.681 28.705C215.182 28.3037 214.533 28.103 213.735 28.103C213.021 28.103 212.426 28.264 211.95 28.586C211.474 28.908 211.115 29.3583 210.872 29.937C210.634 30.5157 210.515 31.19 210.515 31.96C210.51 32.73 210.627 33.4043 210.865 33.983C211.108 34.5617 211.467 35.012 211.943 35.334C212.424 35.656 213.021 35.817 213.735 35.817C214.533 35.817 215.182 35.6163 215.681 35.215C216.185 34.809 216.535 34.256 216.731 33.556L218.215 33.955C217.916 34.949 217.384 35.74 216.619 36.328C215.858 36.916 214.897 37.21 213.735 37.21ZM219.754 37V26.92H222.911C223.005 26.92 223.177 26.9223 223.429 26.927C223.686 26.9317 223.931 26.9503 224.164 26.983C224.953 27.081 225.616 27.3633 226.152 27.83C226.694 28.2967 227.102 28.8893 227.377 29.608C227.653 30.322 227.79 31.106 227.79 31.96C227.79 32.8187 227.653 33.6073 227.377 34.326C227.102 35.04 226.694 35.6303 226.152 36.097C225.616 36.559 224.953 36.839 224.164 36.937C223.931 36.9697 223.686 36.9883 223.429 36.993C223.177 36.9977 223.005 37 222.911 37H219.754ZM221.252 35.607H222.911C223.07 35.607 223.259 35.6023 223.478 35.593C223.698 35.5837 223.891 35.565 224.059 35.537C224.573 35.439 224.988 35.2173 225.305 34.872C225.627 34.522 225.863 34.0927 226.012 33.584C226.162 33.0753 226.236 32.534 226.236 31.96C226.236 31.3673 226.159 30.819 226.005 30.315C225.851 29.8063 225.613 29.3817 225.291 29.041C224.974 28.6957 224.563 28.4763 224.059 28.383C223.891 28.3503 223.695 28.3317 223.471 28.327C223.252 28.3177 223.065 28.313 222.911 28.313H221.252V35.607ZM229.42 37V26.92H233.494C233.592 26.92 233.714 26.9247 233.858 26.934C234.003 26.9387 234.141 26.9527 234.271 26.976C234.831 27.0647 235.298 27.256 235.671 27.55C236.049 27.844 236.332 28.215 236.518 28.663C236.705 29.111 236.798 29.6057 236.798 30.147C236.798 30.9497 236.593 31.6427 236.182 32.226C235.772 32.8047 235.156 33.1663 234.334 33.311L233.739 33.381H230.883V37H229.42ZM235.314 37L233.326 32.898L234.803 32.52L236.987 37H235.314ZM230.883 31.995H233.438C233.532 31.995 233.634 31.9903 233.746 31.981C233.863 31.9717 233.973 31.9553 234.075 31.932C234.374 31.862 234.614 31.7337 234.796 31.547C234.978 31.3557 235.109 31.1363 235.188 30.889C235.268 30.6417 235.307 30.3943 235.307 30.147C235.307 29.8997 235.268 29.6547 235.188 29.412C235.109 29.1647 234.978 28.9477 234.796 28.761C234.614 28.5697 234.374 28.439 234.075 28.369C233.973 28.341 233.863 28.3223 233.746 28.313C233.634 28.3037 233.532 28.299 233.438 28.299H230.883V31.995ZM240.283 37V28.53L238.386 29.685V28.054L240.283 26.92H241.774V37H240.283Z" fill="white" fill-opacity="0.3"/>
    <path d="M248 112V24" stroke="white" stroke-opacity="0.3" stroke-width="2" stroke-linecap="square" stroke-dasharray="6 6"/>
    <path d="M256.703 37V26.92H262.674V28.383H258.166V31.225H261.834V32.695H258.166V37H256.703ZM263.935 37V26.92H268.009C268.107 26.92 268.228 26.9247 268.373 26.934C268.518 26.9387 268.655 26.9527 268.786 26.976C269.346 27.0647 269.813 27.256 270.186 27.55C270.564 27.844 270.846 28.215 271.033 28.663C271.22 29.111 271.313 29.6057 271.313 30.147C271.313 30.9497 271.108 31.6427 270.697 32.226C270.286 32.8047 269.67 33.1663 268.849 33.311L268.254 33.381H265.398V37H263.935ZM269.829 37L267.841 32.898L269.318 32.52L271.502 37H269.829ZM265.398 31.995H267.953C268.046 31.995 268.149 31.9903 268.261 31.981C268.378 31.9717 268.487 31.9553 268.59 31.932C268.889 31.862 269.129 31.7337 269.311 31.547C269.493 31.3557 269.624 31.1363 269.703 30.889C269.782 30.6417 269.822 30.3943 269.822 30.147C269.822 29.8997 269.782 29.6547 269.703 29.412C269.624 29.1647 269.493 28.9477 269.311 28.761C269.129 28.5697 268.889 28.439 268.59 28.369C268.487 28.341 268.378 28.3223 268.261 28.313C268.149 28.3037 268.046 28.299 267.953 28.299H265.398V31.995ZM272.761 36.993L272.768 35.691L277.157 31.757C277.511 31.4443 277.752 31.1457 277.878 30.861C278.008 30.5763 278.074 30.2917 278.074 30.007C278.074 29.6477 277.994 29.3257 277.836 29.041C277.677 28.7517 277.458 28.523 277.178 28.355C276.898 28.187 276.576 28.103 276.212 28.103C275.838 28.103 275.505 28.1917 275.211 28.369C274.921 28.5417 274.695 28.7727 274.532 29.062C274.368 29.3513 274.289 29.664 274.294 30H272.796C272.796 29.3467 272.943 28.775 273.237 28.285C273.535 27.7903 273.944 27.4053 274.462 27.13C274.98 26.85 275.572 26.71 276.24 26.71C276.874 26.71 277.444 26.8547 277.948 27.144C278.452 27.4287 278.848 27.8207 279.138 28.32C279.432 28.8193 279.579 29.3887 279.579 30.028C279.579 30.49 279.518 30.882 279.397 31.204C279.275 31.526 279.093 31.8247 278.851 32.1C278.608 32.3753 278.305 32.674 277.941 32.996L274.553 36.02L274.392 35.6H279.579V36.993H272.761Z" fill="white" fill-opacity="0.3"/>
    <path d="M288 112V24" stroke="white" stroke-opacity="0.3" stroke-width="2" stroke-linecap="square" stroke-dasharray="6 6"/>
    <path d="M296.58 37.21C295.572 37.21 294.713 36.9907 294.004 36.552C293.294 36.1087 292.751 35.4927 292.373 34.704C291.999 33.9153 291.813 33.0007 291.813 31.96C291.813 30.9193 291.999 30.0047 292.373 29.216C292.751 28.4273 293.294 27.8137 294.004 27.375C294.713 26.9317 295.572 26.71 296.58 26.71C297.742 26.71 298.703 27.004 299.464 27.592C300.229 28.18 300.761 28.971 301.06 29.965L299.576 30.364C299.38 29.6593 299.03 29.1063 298.526 28.705C298.026 28.3037 297.378 28.103 296.58 28.103C295.866 28.103 295.271 28.264 294.795 28.586C294.319 28.908 293.959 29.3583 293.717 29.937C293.479 30.5157 293.36 31.19 293.36 31.96C293.355 32.73 293.472 33.4043 293.71 33.983C293.952 34.5617 294.312 35.012 294.788 35.334C295.268 35.656 295.866 35.817 296.58 35.817C297.378 35.817 298.026 35.6163 298.526 35.215C299.03 34.809 299.38 34.256 299.576 33.556L301.06 33.955C300.761 34.949 300.229 35.74 299.464 36.328C298.703 36.916 297.742 37.21 296.58 37.21ZM302.599 37V26.92H305.756C305.849 26.92 306.022 26.9223 306.274 26.927C306.531 26.9317 306.776 26.9503 307.009 26.983C307.798 27.081 308.46 27.3633 308.997 27.83C309.538 28.2967 309.947 28.8893 310.222 29.608C310.497 30.322 310.635 31.106 310.635 31.96C310.635 32.8187 310.497 33.6073 310.222 34.326C309.947 35.04 309.538 35.6303 308.997 36.097C308.46 36.559 307.798 36.839 307.009 36.937C306.776 36.9697 306.531 36.9883 306.274 36.993C306.022 36.9977 305.849 37 305.756 37H302.599ZM304.097 35.607H305.756C305.915 35.607 306.104 35.6023 306.323 35.593C306.542 35.5837 306.736 35.565 306.904 35.537C307.417 35.439 307.833 35.2173 308.15 34.872C308.472 34.522 308.708 34.0927 308.857 33.584C309.006 33.0753 309.081 32.534 309.081 31.96C309.081 31.3673 309.004 30.819 308.85 30.315C308.696 29.8063 308.458 29.3817 308.136 29.041C307.819 28.6957 307.408 28.4763 306.904 28.383C306.736 28.3503 306.54 28.3317 306.316 28.327C306.097 28.3177 305.91 28.313 305.756 28.313H304.097V35.607ZM312.265 37V26.92H316.339C316.437 26.92 316.558 26.9247 316.703 26.934C316.848 26.9387 316.985 26.9527 317.116 26.976C317.676 27.0647 318.143 27.256 318.516 27.55C318.894 27.844 319.176 28.215 319.363 28.663C319.55 29.111 319.643 29.6057 319.643 30.147C319.643 30.9497 319.438 31.6427 319.027 32.226C318.616 32.8047 318 33.1663 317.179 33.311L316.584 33.381H313.728V37H312.265ZM318.159 37L316.171 32.898L317.648 32.52L319.832 37H318.159ZM313.728 31.995H316.283C316.376 31.995 316.479 31.9903 316.591 31.981C316.708 31.9717 316.817 31.9553 316.92 31.932C317.219 31.862 317.459 31.7337 317.641 31.547C317.823 31.3557 317.954 31.1363 318.033 30.889C318.112 30.6417 318.152 30.3943 318.152 30.147C318.152 29.8997 318.112 29.6547 318.033 29.412C317.954 29.1647 317.823 28.9477 317.641 28.761C317.459 28.5697 317.219 28.439 316.92 28.369C316.817 28.341 316.708 28.3223 316.591 28.313C316.479 28.3037 316.376 28.299 316.283 28.299H313.728V31.995ZM321.091 36.993L321.098 35.691L325.487 31.757C325.841 31.4443 326.082 31.1457 326.208 30.861C326.338 30.5763 326.404 30.2917 326.404 30.007C326.404 29.6477 326.324 29.3257 326.166 29.041C326.007 28.7517 325.788 28.523 325.508 28.355C325.228 28.187 324.906 28.103 324.542 28.103C324.168 28.103 323.835 28.1917 323.541 28.369C323.251 28.5417 323.025 28.7727 322.862 29.062C322.698 29.3513 322.619 29.664 322.624 30H321.126C321.126 29.3467 321.273 28.775 321.567 28.285C321.865 27.7903 322.274 27.4053 322.792 27.13C323.31 26.85 323.902 26.71 324.57 26.71C325.204 26.71 325.774 26.8547 326.278 27.144C326.782 27.4287 327.178 27.8207 327.468 28.32C327.762 28.8193 327.909 29.3887 327.909 30.028C327.909 30.49 327.848 30.882 327.727 31.204C327.605 31.526 327.423 31.8247 327.181 32.1C326.938 32.3753 326.635 32.674 326.271 32.996L322.883 36.02L322.722 35.6H327.909V36.993H321.091Z" fill="white" fill-opacity="0.3"/>
    <path d="M332 112V24" stroke="white" stroke-opacity="0.3" stroke-width="2" stroke-linecap="square" stroke-dasharray="6 6"/>
    <path d="M340.805 37V26.92H346.776V28.383H342.268V31.225H345.936V32.695H342.268V37H340.805ZM348.038 37V26.92H352.112C352.21 26.92 352.331 26.9247 352.476 26.934C352.62 26.9387 352.758 26.9527 352.889 26.976C353.449 27.0647 353.915 27.256 354.289 27.55C354.667 27.844 354.949 28.215 355.136 28.663C355.322 29.111 355.416 29.6057 355.416 30.147C355.416 30.9497 355.21 31.6427 354.8 32.226C354.389 32.8047 353.773 33.1663 352.952 33.311L352.357 33.381H349.501V37H348.038ZM353.932 37L351.944 32.898L353.421 32.52L355.605 37H353.932ZM349.501 31.995H352.056C352.149 31.995 352.252 31.9903 352.364 31.981C352.48 31.9717 352.59 31.9553 352.693 31.932C352.991 31.862 353.232 31.7337 353.414 31.547C353.596 31.3557 353.726 31.1363 353.806 30.889C353.885 30.6417 353.925 30.3943 353.925 30.147C353.925 29.8997 353.885 29.6547 353.806 29.412C353.726 29.1647 353.596 28.9477 353.414 28.761C353.232 28.5697 352.991 28.439 352.693 28.369C352.59 28.341 352.48 28.3223 352.364 28.313C352.252 28.3037 352.149 28.299 352.056 28.299H349.501V31.995ZM359.964 37.189C359.465 37.189 358.996 37.0957 358.557 36.909C358.118 36.7177 357.738 36.447 357.416 36.097C357.099 35.747 356.868 35.334 356.723 34.858L358.137 34.466C358.272 34.9 358.508 35.2337 358.844 35.467C359.18 35.6957 359.553 35.8077 359.964 35.803C360.333 35.7983 360.657 35.712 360.937 35.544C361.217 35.376 361.436 35.1497 361.595 34.865C361.754 34.5757 361.833 34.2443 361.833 33.871C361.833 33.311 361.658 32.849 361.308 32.485C360.963 32.121 360.51 31.939 359.95 31.939C359.791 31.939 359.628 31.9623 359.46 32.009C359.297 32.0557 359.143 32.1163 358.998 32.191L358.312 31.036L361.868 27.893L362.022 28.313H357.122V26.92H363.184V28.313L360.23 31.155L360.216 30.679C360.851 30.679 361.401 30.8213 361.868 31.106C362.335 31.386 362.694 31.7687 362.946 32.254C363.203 32.7347 363.331 33.2737 363.331 33.871C363.331 34.515 363.179 35.0867 362.876 35.586C362.577 36.0853 362.174 36.4773 361.665 36.762C361.161 37.0467 360.594 37.189 359.964 37.189Z" fill="white" fill-opacity="0.3"/>
    <path d="M372 112V24" stroke="white" stroke-opacity="0.3" stroke-width="2" stroke-linecap="square" stroke-dasharray="6 6"/>
    <path d="M418.682 37.21C417.674 37.21 416.815 36.9907 416.106 36.552C415.397 36.1087 414.853 35.4927 414.475 34.704C414.102 33.9153 413.915 33.0007 413.915 31.96C413.915 30.9193 414.102 30.0047 414.475 29.216C414.853 28.4273 415.397 27.8137 416.106 27.375C416.815 26.9317 417.674 26.71 418.682 26.71C419.844 26.71 420.805 27.004 421.566 27.592C422.331 28.18 422.863 28.971 423.162 29.965L421.678 30.364C421.482 29.6593 421.132 29.1063 420.628 28.705C420.129 28.3037 419.48 28.103 418.682 28.103C417.968 28.103 417.373 28.264 416.897 28.586C416.421 28.908 416.062 29.3583 415.819 29.937C415.581 30.5157 415.462 31.19 415.462 31.96C415.457 32.73 415.574 33.4043 415.812 33.983C416.055 34.5617 416.414 35.012 416.89 35.334C417.371 35.656 417.968 35.817 418.682 35.817C419.48 35.817 420.129 35.6163 420.628 35.215C421.132 34.809 421.482 34.256 421.678 33.556L423.162 33.955C422.863 34.949 422.331 35.74 421.566 36.328C420.805 36.916 419.844 37.21 418.682 37.21ZM424.702 37V26.92H427.859C427.952 26.92 428.125 26.9223 428.377 26.927C428.633 26.9317 428.878 26.9503 429.112 26.983C429.9 27.081 430.563 27.3633 431.1 27.83C431.641 28.2967 432.049 28.8893 432.325 29.608C432.6 30.322 432.738 31.106 432.738 31.96C432.738 32.8187 432.6 33.6073 432.325 34.326C432.049 35.04 431.641 35.6303 431.1 36.097C430.563 36.559 429.9 36.839 429.112 36.937C428.878 36.9697 428.633 36.9883 428.377 36.993C428.125 36.9977 427.952 37 427.859 37H424.702ZM426.2 35.607H427.859C428.017 35.607 428.206 35.6023 428.426 35.593C428.645 35.5837 428.839 35.565 429.007 35.537C429.52 35.439 429.935 35.2173 430.253 34.872C430.575 34.522 430.81 34.0927 430.96 33.584C431.109 33.0753 431.184 32.534 431.184 31.96C431.184 31.3673 431.107 30.819 430.953 30.315C430.799 29.8063 430.561 29.3817 430.239 29.041C429.921 28.6957 429.511 28.4763 429.007 28.383C428.839 28.3503 428.643 28.3317 428.419 28.327C428.199 28.3177 428.013 28.313 427.859 28.313H426.2V35.607ZM434.368 37V26.92H438.442C438.54 26.92 438.661 26.9247 438.806 26.934C438.95 26.9387 439.088 26.9527 439.219 26.976C439.779 27.0647 440.245 27.256 440.619 27.55C440.997 27.844 441.279 28.215 441.466 28.663C441.652 29.111 441.746 29.6057 441.746 30.147C441.746 30.9497 441.54 31.6427 441.13 32.226C440.719 32.8047 440.103 33.1663 439.282 33.311L438.687 33.381H435.831V37H434.368ZM440.262 37L438.274 32.898L439.751 32.52L441.935 37H440.262ZM435.831 31.995H438.386C438.479 31.995 438.582 31.9903 438.694 31.981C438.81 31.9717 438.92 31.9553 439.023 31.932C439.321 31.862 439.562 31.7337 439.744 31.547C439.926 31.3557 440.056 31.1363 440.136 30.889C440.215 30.6417 440.255 30.3943 440.255 30.147C440.255 29.8997 440.215 29.6547 440.136 29.412C440.056 29.1647 439.926 28.9477 439.744 28.761C439.562 28.5697 439.321 28.439 439.023 28.369C438.92 28.341 438.81 28.3223 438.694 28.313C438.582 28.3037 438.479 28.299 438.386 28.299H435.831V31.995ZM446.294 37.189C445.795 37.189 445.326 37.0957 444.887 36.909C444.448 36.7177 444.068 36.447 443.746 36.097C443.429 35.747 443.198 35.334 443.053 34.858L444.467 34.466C444.602 34.9 444.838 35.2337 445.174 35.467C445.51 35.6957 445.883 35.8077 446.294 35.803C446.663 35.7983 446.987 35.712 447.267 35.544C447.547 35.376 447.766 35.1497 447.925 34.865C448.084 34.5757 448.163 34.2443 448.163 33.871C448.163 33.311 447.988 32.849 447.638 32.485C447.293 32.121 446.84 31.939 446.28 31.939C446.121 31.939 445.958 31.9623 445.79 32.009C445.627 32.0557 445.473 32.1163 445.328 32.191L444.642 31.036L448.198 27.893L448.352 28.313H443.452V26.92H449.514V28.313L446.56 31.155L446.546 30.679C447.181 30.679 447.731 30.8213 448.198 31.106C448.665 31.386 449.024 31.7687 449.276 32.254C449.533 32.7347 449.661 33.2737 449.661 33.871C449.661 34.515 449.509 35.0867 449.206 35.586C448.907 36.0853 448.504 36.4773 447.995 36.762C447.491 37.0467 446.924 37.189 446.294 37.189Z" fill="white" fill-opacity="0.3"/>
    <path d="M492 112V24" stroke="white" stroke-opacity="0.3" stroke-width="2" stroke-linecap="square" stroke-dasharray="6 6"/>
    <path d="M600 112V24" stroke="white" stroke-opacity="0.3" stroke-width="2" stroke-linecap="square" stroke-dasharray="6 6"/>
    <path d="M534.593 37V26.92H540.564V28.383H536.056V31.225H539.724V32.695H536.056V37H534.593ZM541.826 37V26.92H545.9C545.998 26.92 546.119 26.9247 546.264 26.934C546.408 26.9387 546.546 26.9527 546.677 26.976C547.237 27.0647 547.703 27.256 548.077 27.55C548.455 27.844 548.737 28.215 548.924 28.663C549.11 29.111 549.204 29.6057 549.204 30.147C549.204 30.9497 548.998 31.6427 548.588 32.226C548.177 32.8047 547.561 33.1663 546.74 33.311L546.145 33.381H543.289V37H541.826ZM547.72 37L545.732 32.898L547.209 32.52L549.393 37H547.72ZM543.289 31.995H545.844C545.937 31.995 546.04 31.9903 546.152 31.981C546.268 31.9717 546.378 31.9553 546.481 31.932C546.779 31.862 547.02 31.7337 547.202 31.547C547.384 31.3557 547.514 31.1363 547.594 30.889C547.673 30.6417 547.713 30.3943 547.713 30.147C547.713 29.8997 547.673 29.6547 547.594 29.412C547.514 29.1647 547.384 28.9477 547.202 28.761C547.02 28.5697 546.779 28.439 546.481 28.369C546.378 28.341 546.268 28.3223 546.152 28.313C546.04 28.3037 545.937 28.299 545.844 28.299H543.289V31.995ZM555.201 37V35.243H550.651V33.857L553.927 26.92H555.6L552.324 33.857H555.201V31.127H556.685V33.857H557.686V35.243H556.685V37H555.201Z" fill="white" fill-opacity="0.3"/>
    <path d="M25.6881 118V105.29H20.7781V103.6H32.3781V105.29H27.4681V118H25.6881ZM39.8903 118.3C38.457 118.3 37.2403 117.983 36.2403 117.35C35.2403 116.717 34.477 115.837 33.9503 114.71C33.4303 113.583 33.1703 112.28 33.1703 110.8C33.1703 109.32 33.4303 108.017 33.9503 106.89C34.477 105.763 35.2403 104.883 36.2403 104.25C37.2403 103.617 38.457 103.3 39.8903 103.3C41.557 103.3 42.927 103.723 44.0003 104.57C45.0803 105.417 45.8236 106.557 46.2303 107.99L44.4203 108.47C44.127 107.397 43.6036 106.55 42.8503 105.93C42.097 105.31 41.1103 105 39.8903 105C38.817 105 37.9236 105.243 37.2103 105.73C36.497 106.217 35.9603 106.897 35.6003 107.77C35.2403 108.637 35.057 109.647 35.0503 110.8C35.0436 111.947 35.2203 112.957 35.5803 113.83C35.9403 114.697 36.4803 115.377 37.2003 115.87C37.9203 116.357 38.817 116.6 39.8903 116.6C41.1103 116.6 42.097 116.29 42.8503 115.67C43.6036 115.043 44.127 114.197 44.4203 113.13L46.2303 113.61C45.8236 115.037 45.0803 116.177 44.0003 117.03C42.927 117.877 41.557 118.3 39.8903 118.3ZM48.4234 118V103.6H54.1134C54.2534 103.6 54.4201 103.607 54.6134 103.62C54.8068 103.627 54.9934 103.647 55.1734 103.68C55.9534 103.8 56.6068 104.067 57.1334 104.48C57.6668 104.893 58.0668 105.417 58.3334 106.05C58.6001 106.677 58.7334 107.373 58.7334 108.14C58.7334 109.253 58.4434 110.22 57.8634 111.04C57.2834 111.853 56.4334 112.363 55.3134 112.57L54.6334 112.68H50.2034V118H48.4234ZM56.9934 118L54.1534 112.14L55.9134 111.6L59.0334 118H56.9934ZM50.2034 110.99H54.0534C54.1801 110.99 54.3234 110.983 54.4834 110.97C54.6501 110.957 54.8068 110.933 54.9534 110.9C55.4134 110.793 55.7868 110.6 56.0734 110.32C56.3668 110.033 56.5801 109.7 56.7134 109.32C56.8468 108.933 56.9134 108.54 56.9134 108.14C56.9134 107.74 56.8468 107.35 56.7134 106.97C56.5801 106.583 56.3668 106.247 56.0734 105.96C55.7868 105.673 55.4134 105.48 54.9534 105.38C54.8068 105.34 54.6501 105.317 54.4834 105.31C54.3234 105.297 54.1801 105.29 54.0534 105.29H50.2034V110.99ZM65.2298 122.8V107.2C65.2298 106.953 65.2465 106.71 65.2798 106.47C65.3198 106.23 65.3765 106 65.4498 105.78C65.6298 105.24 65.9098 104.787 66.2898 104.42C66.6698 104.047 67.1232 103.767 67.6498 103.58C68.1765 103.393 68.7498 103.3 69.3698 103.3C70.2032 103.3 70.9365 103.463 71.5698 103.79C72.2098 104.11 72.7098 104.563 73.0698 105.15C73.4298 105.737 73.6098 106.427 73.6098 107.22C73.6098 107.86 73.4798 108.433 73.2198 108.94C72.9665 109.447 72.5765 109.83 72.0498 110.09C72.4032 110.177 72.7432 110.323 73.0698 110.53C73.4032 110.737 73.7032 111 73.9698 111.32C74.2365 111.64 74.4465 112.02 74.5998 112.46C74.7598 112.9 74.8398 113.397 74.8398 113.95C74.8398 114.823 74.6432 115.587 74.2498 116.24C73.8565 116.887 73.2932 117.393 72.5598 117.76C71.8332 118.12 70.9598 118.3 69.9398 118.3C69.3265 118.3 68.7732 118.217 68.2798 118.05C67.7932 117.89 67.3698 117.67 67.0098 117.39V122.8H65.2298ZM70.0198 116.61C70.6132 116.61 71.1365 116.497 71.5898 116.27C72.0432 116.037 72.3965 115.717 72.6498 115.31C72.9032 114.897 73.0298 114.417 73.0298 113.87C73.0298 112.983 72.7032 112.313 72.0498 111.86C71.3965 111.4 70.5198 111.16 69.4198 111.14V109.54C69.8798 109.493 70.2865 109.38 70.6398 109.2C70.9998 109.02 71.2798 108.767 71.4798 108.44C71.6865 108.113 71.7898 107.713 71.7898 107.24C71.7898 106.527 71.5665 105.973 71.1198 105.58C70.6732 105.187 70.1032 104.99 69.4098 104.99C68.9698 104.99 68.5498 105.09 68.1498 105.29C67.7565 105.483 67.4665 105.813 67.2798 106.28C67.1798 106.54 67.1165 106.817 67.0898 107.11C67.0632 107.397 67.0498 107.647 67.0498 107.86V113.71C67.0498 113.903 67.0598 114.123 67.0798 114.37C67.1065 114.61 67.1465 114.823 67.1998 115.01C67.3665 115.523 67.7232 115.92 68.2698 116.2C68.8165 116.473 69.3998 116.61 70.0198 116.61Z" fill="white"/>
    <path d="M25.3268 254V241.29H20.4168V239.6H32.0168V241.29H27.1068V254H25.3268ZM39.529 254.3C38.0957 254.3 36.879 253.983 35.879 253.35C34.879 252.717 34.1157 251.837 33.589 250.71C33.069 249.583 32.809 248.28 32.809 246.8C32.809 245.32 33.069 244.017 33.589 242.89C34.1157 241.763 34.879 240.883 35.879 240.25C36.879 239.617 38.0957 239.3 39.529 239.3C41.1957 239.3 42.5657 239.723 43.639 240.57C44.719 241.417 45.4623 242.557 45.869 243.99L44.059 244.47C43.7657 243.397 43.2423 242.55 42.489 241.93C41.7357 241.31 40.749 241 39.529 241C38.4557 241 37.5623 241.243 36.849 241.73C36.1357 242.217 35.599 242.897 35.239 243.77C34.879 244.637 34.6957 245.647 34.689 246.8C34.6823 247.947 34.859 248.957 35.219 249.83C35.579 250.697 36.119 251.377 36.839 251.87C37.559 252.357 38.4557 252.6 39.529 252.6C40.749 252.6 41.7357 252.29 42.489 251.67C43.2423 251.043 43.7657 250.197 44.059 249.13L45.869 249.61C45.4623 251.037 44.719 252.177 43.639 253.03C42.5657 253.877 41.1957 254.3 39.529 254.3ZM48.0621 254V239.6H53.7521C53.8921 239.6 54.0588 239.607 54.2521 239.62C54.4454 239.627 54.6321 239.647 54.8121 239.68C55.5921 239.8 56.2454 240.067 56.7721 240.48C57.3054 240.893 57.7054 241.417 57.9721 242.05C58.2388 242.677 58.3721 243.373 58.3721 244.14C58.3721 245.253 58.0821 246.22 57.5021 247.04C56.9221 247.853 56.0721 248.363 54.9521 248.57L54.2721 248.68H49.8421V254H48.0621ZM56.6321 254L53.7921 248.14L55.5521 247.6L58.6721 254H56.6321ZM49.8421 246.99H53.6921C53.8188 246.99 53.9621 246.983 54.1221 246.97C54.2888 246.957 54.4454 246.933 54.5921 246.9C55.0521 246.793 55.4254 246.6 55.7121 246.32C56.0054 246.033 56.2188 245.7 56.3521 245.32C56.4854 244.933 56.5521 244.54 56.5521 244.14C56.5521 243.74 56.4854 243.35 56.3521 242.97C56.2188 242.583 56.0054 242.247 55.7121 241.96C55.4254 241.673 55.0521 241.48 54.5921 241.38C54.4454 241.34 54.2888 241.317 54.1221 241.31C53.9621 241.297 53.8188 241.29 53.6921 241.29H49.8421V246.99ZM69.1485 254.3C68.1285 254.3 67.2552 254.05 66.5285 253.55C65.8018 253.043 65.2452 252.36 64.8585 251.5C64.4718 250.64 64.2785 249.673 64.2785 248.6C64.2785 247.513 64.4718 246.543 64.8585 245.69C65.2518 244.83 65.8152 244.15 66.5485 243.65C67.2818 243.15 68.1652 242.9 69.1985 242.9C70.1652 242.9 70.9852 243.143 71.6585 243.63C72.3385 244.11 72.8185 244.777 73.0985 245.63L72.7985 246.15V243.2H74.3885V254H72.7985V251.02L73.0985 251.54C72.8185 252.4 72.3285 253.077 71.6285 253.57C70.9352 254.057 70.1085 254.3 69.1485 254.3ZM69.3685 252.67C70.0818 252.67 70.6685 252.497 71.1285 252.15C71.5952 251.797 71.9385 251.313 72.1585 250.7C72.3852 250.08 72.4985 249.377 72.4985 248.59C72.4985 247.79 72.3852 247.087 72.1585 246.48C71.9385 245.867 71.5985 245.39 71.1385 245.05C70.6785 244.703 70.0952 244.53 69.3885 244.53C68.6885 244.53 68.0985 244.703 67.6185 245.05C67.1385 245.39 66.7752 245.867 66.5285 246.48C66.2885 247.087 66.1685 247.793 66.1685 248.6C66.1685 249.36 66.2852 250.047 66.5185 250.66C66.7518 251.273 67.1052 251.763 67.5785 252.13C68.0518 252.49 68.6485 252.67 69.3685 252.67Z" fill="white"/>
    <path d="M32.9984 354V339.6H34.7784V354H32.9984ZM43.6089 354.3C42.6222 354.3 41.7222 354.127 40.9089 353.78C40.0956 353.433 39.3956 352.937 38.8089 352.29C38.2222 351.637 37.7689 350.85 37.4489 349.93C37.1356 349.003 36.9789 347.96 36.9789 346.8C36.9789 345.267 37.2522 343.94 37.7989 342.82C38.3456 341.7 39.1156 340.837 40.1089 340.23C41.1022 339.617 42.2689 339.31 43.6089 339.31C45.2222 339.31 46.5222 339.687 47.5089 340.44C48.4956 341.187 49.1756 342.21 49.5489 343.51L47.7489 343.88C47.4489 343.007 46.9556 342.31 46.2689 341.79C45.5822 341.27 44.7256 341.01 43.6989 341.01C42.6256 341.003 41.7322 341.243 41.0189 341.73C40.3122 342.21 39.7789 342.887 39.4189 343.76C39.0589 344.633 38.8756 345.647 38.8689 346.8C38.8622 347.947 39.0389 348.953 39.3989 349.82C39.7589 350.687 40.2956 351.367 41.0089 351.86C41.7289 352.347 42.6256 352.593 43.6989 352.6C44.6256 352.607 45.4056 352.43 46.0389 352.07C46.6722 351.71 47.1622 351.19 47.5089 350.51C47.8556 349.83 48.0656 349.013 48.1389 348.06H45.0789V346.59H50.0189C50.0389 346.723 50.0489 346.883 50.0489 347.07C50.0556 347.25 50.0589 347.373 50.0589 347.44C50.0589 348.753 49.8122 349.93 49.3189 350.97C48.8322 352.003 48.1089 352.817 47.1489 353.41C46.1956 354.003 45.0156 354.3 43.6089 354.3ZM52.0563 354V339.6H53.8363V345.95H61.4163V339.6H63.1963V354H61.4163V347.64H53.8363V354H52.0563Z" fill="white"/>
    <path d="M26.0258 444V429.6H27.8058V444H26.0258ZM36.6363 444.3C35.6496 444.3 34.7496 444.127 33.9363 443.78C33.1229 443.433 32.4229 442.937 31.8363 442.29C31.2496 441.637 30.7963 440.85 30.4763 439.93C30.1629 439.003 30.0063 437.96 30.0063 436.8C30.0063 435.267 30.2796 433.94 30.8263 432.82C31.3729 431.7 32.1429 430.837 33.1363 430.23C34.1296 429.617 35.2963 429.31 36.6363 429.31C38.2496 429.31 39.5496 429.687 40.5363 430.44C41.5229 431.187 42.2029 432.21 42.5763 433.51L40.7763 433.88C40.4763 433.007 39.9829 432.31 39.2963 431.79C38.6096 431.27 37.7529 431.01 36.7263 431.01C35.6529 431.003 34.7596 431.243 34.0463 431.73C33.3396 432.21 32.8063 432.887 32.4463 433.76C32.0863 434.633 31.9029 435.647 31.8963 436.8C31.8896 437.947 32.0663 438.953 32.4263 439.82C32.7863 440.687 33.3229 441.367 34.0363 441.86C34.7563 442.347 35.6529 442.593 36.7263 442.6C37.6529 442.607 38.4329 442.43 39.0663 442.07C39.6996 441.71 40.1896 441.19 40.5363 440.51C40.8829 439.83 41.0929 439.013 41.1662 438.06H38.1063V436.59H43.0463C43.0663 436.723 43.0763 436.883 43.0763 437.07C43.0829 437.25 43.0863 437.373 43.0863 437.44C43.0863 438.753 42.8396 439.93 42.3463 440.97C41.8596 442.003 41.1363 442.817 40.1763 443.41C39.2229 444.003 38.0429 444.3 36.6363 444.3ZM45.0836 444V429.6H46.8636V436.36L53.1636 429.6H55.4036L48.8636 436.59L55.9136 444H53.6136L46.8636 436.96V444H45.0836ZM64.5634 429.6H66.3734L62.5334 444H60.7234L64.5634 429.6ZM34.7953 464V449.6H36.5753V464H34.7953ZM45.4058 464.3C44.4191 464.3 43.5191 464.127 42.7058 463.78C41.8924 463.433 41.1924 462.937 40.6058 462.29C40.0191 461.637 39.5658 460.85 39.2458 459.93C38.9324 459.003 38.7758 457.96 38.7758 456.8C38.7758 455.267 39.0491 453.94 39.5958 452.82C40.1424 451.7 40.9124 450.837 41.9058 450.23C42.8991 449.617 44.0658 449.31 45.4058 449.31C47.0191 449.31 48.3191 449.687 49.3058 450.44C50.2924 451.187 50.9724 452.21 51.3458 453.51L49.5458 453.88C49.2458 453.007 48.7524 452.31 48.0658 451.79C47.3791 451.27 46.5224 451.01 45.4958 451.01C44.4224 451.003 43.5291 451.243 42.8158 451.73C42.1091 452.21 41.5758 452.887 41.2158 453.76C40.8558 454.633 40.6724 455.647 40.6658 456.8C40.6591 457.947 40.8358 458.953 41.1958 459.82C41.5558 460.687 42.0924 461.367 42.8058 461.86C43.5258 462.347 44.4224 462.593 45.4958 462.6C46.4224 462.607 47.2024 462.43 47.8358 462.07C48.4691 461.71 48.9591 461.19 49.3058 460.51C49.6524 459.83 49.8624 459.013 49.9358 458.06H46.8758V456.59H51.8158C51.8358 456.723 51.8458 456.883 51.8458 457.07C51.8524 457.25 51.8558 457.373 51.8558 457.44C51.8558 458.753 51.6091 459.93 51.1158 460.97C50.6291 462.003 49.9058 462.817 48.9458 463.41C47.9924 464.003 46.8124 464.3 45.4058 464.3ZM54.0531 464V449.6H55.8331V462.31H62.5131V464H54.0531Z" fill="white"/>
    <path d="M104.62 166H106.044V161.744H109.412L111.476 166H113.108L110.884 161.432C112.188 160.888 112.868 159.632 112.868 158.112C112.868 156.28 111.884 154.832 110.02 154.544C109.724 154.496 109.396 154.48 109.172 154.48H104.62V166ZM106.044 160.392V155.832H109.124C109.324 155.832 109.604 155.848 109.844 155.904C110.948 156.152 111.412 157.152 111.412 158.112C111.412 159.072 110.948 160.072 109.844 160.32C109.604 160.376 109.324 160.392 109.124 160.392H106.044ZM116.878 166H118.326V154.48H116.878L114.71 155.776V157.368L116.878 156.056V166Z" fill="white"/>
    <rect x="96" y="148" width="32" height="24" rx="1" stroke="#D3D7E0" stroke-width="2"/>
    <path d="M444.5 160H128" stroke="#D3D7E0" stroke-width="2"/>
    <rect width="107" height="20" transform="translate(444.5 150)" fill="#1D1D29"/>
    <path d="M451.995 166H453.443V154.48H451.995L449.827 155.776V157.368L451.995 156.056V166ZM460.375 166.24C462.615 166.24 464.263 164.592 464.263 162.352V158.128C464.263 155.888 462.615 154.24 460.375 154.24C458.135 154.24 456.487 155.888 456.487 158.128V162.352C456.487 164.592 458.135 166.24 460.375 166.24ZM457.935 162.432V158.04C457.935 156.688 459.023 155.6 460.375 155.6C461.727 155.6 462.815 156.688 462.815 158.04V162.432C462.815 163.784 461.727 164.872 460.375 164.872C459.023 164.872 457.935 163.784 457.935 162.432ZM470.391 166.24C472.631 166.24 474.279 164.592 474.279 162.352V158.128C474.279 155.888 472.631 154.24 470.391 154.24C468.151 154.24 466.503 155.888 466.503 158.128V162.352C466.503 164.592 468.151 166.24 470.391 166.24ZM467.951 162.432V158.04C467.951 156.688 469.039 155.6 470.391 155.6C471.743 155.6 472.831 156.688 472.831 158.04V162.432C472.831 163.784 471.743 164.872 470.391 164.872C469.039 164.872 467.951 163.784 467.951 162.432ZM480.406 166.24C482.646 166.24 484.294 164.592 484.294 162.352V158.128C484.294 155.888 482.646 154.24 480.406 154.24C478.166 154.24 476.518 155.888 476.518 158.128V162.352C476.518 164.592 478.166 166.24 480.406 166.24ZM477.966 162.432V158.04C477.966 156.688 479.054 155.6 480.406 155.6C481.758 155.6 482.846 156.688 482.846 158.04V162.432C482.846 163.784 481.758 164.872 480.406 164.872C479.054 164.872 477.966 163.784 477.966 162.432ZM486.374 160.824H491.174V159.648H486.374V160.824ZM495.261 166H496.709V154.48H495.261L493.093 155.776V157.368L495.261 156.056V166ZM503.161 166.24C505.305 166.24 507.121 164.504 507.121 162.376C507.121 160.232 505.497 158.584 503.361 158.584C502.585 158.584 501.809 158.848 501.209 159.328L501.417 155.832H506.321V154.48H500.137L499.785 160.504L501.049 160.984C501.465 160.384 502.185 159.896 503.201 159.896C504.545 159.896 505.689 160.984 505.689 162.376C505.689 163.728 504.601 164.856 503.201 164.856C502.129 164.856 501.089 164.144 500.801 163.008L499.433 163.376C499.897 165.056 501.377 166.24 503.161 166.24ZM512.922 166.24C515.162 166.24 516.81 164.592 516.81 162.352V158.128C516.81 155.888 515.162 154.24 512.922 154.24C510.682 154.24 509.034 155.888 509.034 158.128V162.352C509.034 164.592 510.682 166.24 512.922 166.24ZM510.482 162.432V158.04C510.482 156.688 511.57 155.6 512.922 155.6C514.274 155.6 515.362 156.688 515.362 158.04V162.432C515.362 163.784 514.274 164.872 512.922 164.872C511.57 164.872 510.482 163.784 510.482 162.432ZM522.938 166.24C525.178 166.24 526.826 164.592 526.826 162.352V158.128C526.826 155.888 525.178 154.24 522.938 154.24C520.698 154.24 519.05 155.888 519.05 158.128V162.352C519.05 164.592 520.698 166.24 522.938 166.24ZM520.498 162.432V158.04C520.498 156.688 521.586 155.6 522.938 155.6C524.29 155.6 525.378 156.688 525.378 158.04V162.432C525.378 163.784 524.29 164.872 522.938 164.872C521.586 164.872 520.498 163.784 520.498 162.432ZM533.033 166.24C535.449 166.24 536.905 164.264 536.905 161.672C536.905 159.08 535.441 157.12 533.041 157.12C531.961 157.12 531.105 157.496 530.489 158.144V154.48H529.057V166H530.329V165.024C530.961 165.784 531.865 166.24 533.033 166.24ZM530.329 161.672C530.329 159.76 531.129 158.424 532.817 158.424C534.577 158.424 535.393 159.848 535.393 161.672C535.393 163.512 534.561 164.936 532.857 164.936C531.113 164.936 530.329 163.568 530.329 161.672ZM542.627 166.24C545.043 166.24 546.499 164.264 546.499 161.672C546.499 159.08 545.035 157.12 542.635 157.12C541.459 157.12 540.555 157.568 539.923 158.328V157.36H538.651V169.84H540.083V165.2C540.699 165.856 541.555 166.24 542.627 166.24ZM539.923 161.672C539.923 159.76 540.723 158.424 542.411 158.424C544.171 158.424 544.987 159.848 544.987 161.672C544.987 163.512 544.155 164.936 542.451 164.936C540.707 164.936 539.923 163.568 539.923 161.672Z" fill="white"/>
    <path d="M868 160H551.5" stroke="#D3D7E0" stroke-width="2"/>
    <path d="M878 160L878.707 159.293L879.414 160L878.707 160.707L878 160ZM870.707 168.707L870 169.414L868.586 168L869.293 167.293L870.707 168.707ZM869.293 152.707L868.586 152L870 150.586L870.707 151.293L869.293 152.707ZM868 159L878 159L878 161L868 161L868 159ZM878.707 160.707L870.707 168.707L869.293 167.293L877.293 159.293L878.707 160.707ZM877.293 160.707L869.293 152.707L870.707 151.293L878.707 159.293L877.293 160.707Z" fill="#D3D7E0"/>
    <g filter="url(#filter0_i_6463_39029)">
        <rect x="96" y="84" width="288" height="52" rx="1" fill="#99E099"/>
        <path d="M238.758 118L233.938 103.6H235.788L239.978 116.11L244.208 103.6H246.058L241.238 118H238.758Z" fill="#110529"/>
        <rect x="96" y="84" width="288" height="52" rx="1" stroke="#110529" stroke-width="2" stroke-linecap="round"/>
    </g>
    <g filter="url(#filter1_i_6463_39029)">
        <rect x="384" y="84" width="30" height="52" rx="1" fill="#CBEB67"/>
    </g>
    <rect x="384" y="84" width="30" height="52" rx="1" stroke="#110529" stroke-width="2" stroke-linecap="round"/>
    <g filter="url(#filter2_i_6463_39029)">
        <rect x="450" y="84" width="30" height="52" rx="1" fill="#FAAAFA"/>
    </g>
    <rect x="450" y="84" width="30" height="52" rx="1" stroke="#110529" stroke-width="2" stroke-linecap="round"/>
    <g filter="url(#filter3_i_6463_39029)">
        <rect x="414" y="84" width="36" height="52" rx="1" fill="#FFCB8F"/>
    </g>
    <rect x="414" y="84" width="36" height="52" rx="1" stroke="#110529" stroke-width="2" stroke-linecap="round"/>
    <path d="M393.447 118V103.6H395.247L402.757 114.85V103.6H404.557V118H402.757L395.247 106.74V118H393.447Z" fill="#110529"/>
    <path d="M459.447 118V103.6H461.247L468.757 114.85V103.6H470.557V118H468.757L461.247 106.74V118H459.447Z" fill="#110529"/>
    <path d="M426.593 118V103.6H431.033C431.18 103.6 431.437 103.603 431.803 103.61C432.17 103.617 432.52 103.643 432.853 103.69C433.967 103.837 434.897 104.243 435.643 104.91C436.397 105.57 436.963 106.41 437.343 107.43C437.723 108.45 437.913 109.573 437.913 110.8C437.913 112.027 437.723 113.15 437.343 114.17C436.963 115.19 436.397 116.033 435.643 116.7C434.897 117.36 433.967 117.763 432.853 117.91C432.52 117.95 432.167 117.977 431.793 117.99C431.427 117.997 431.173 118 431.033 118H426.593ZM428.423 116.3H431.033C431.287 116.3 431.57 116.293 431.883 116.28C432.197 116.26 432.47 116.23 432.703 116.19C433.49 116.043 434.127 115.713 434.613 115.2C435.1 114.687 435.457 114.047 435.683 113.28C435.91 112.513 436.023 111.687 436.023 110.8C436.023 109.893 435.907 109.057 435.673 108.29C435.447 107.523 435.09 106.887 434.603 106.38C434.117 105.873 433.483 105.55 432.703 105.41C432.47 105.363 432.193 105.333 431.873 105.32C431.553 105.307 431.273 105.3 431.033 105.3H428.423V116.3Z" fill="#110529"/>
    <g filter="url(#filter4_i_6463_39029)">
        <rect x="480" y="84" width="120" height="52" rx="1" fill="#C1ADFF"/>
        <path d="M539.244 118.29C538.237 118.29 537.384 118.017 536.684 117.47C535.984 116.923 535.504 116.19 535.244 115.27L537.014 114.85C537.121 115.337 537.377 115.75 537.784 116.09C538.197 116.43 538.671 116.6 539.204 116.6C539.551 116.6 539.904 116.517 540.264 116.35C540.624 116.177 540.901 115.897 541.094 115.51C541.227 115.243 541.304 114.95 541.324 114.63C541.344 114.303 541.354 113.92 541.354 113.48V103.6H543.154V113.48C543.154 113.893 543.151 114.263 543.144 114.59C543.144 114.917 543.111 115.23 543.044 115.53C542.984 115.823 542.864 116.123 542.684 116.43C542.324 117.063 541.841 117.533 541.234 117.84C540.634 118.14 539.971 118.29 539.244 118.29Z" fill="#110529"/>
        <rect x="480" y="84" width="120" height="52" rx="1" stroke="#110529" stroke-width="2" stroke-linecap="round"/>
    </g>
    <g filter="url(#filter5_i_6463_39029)">
        <rect x="600" y="84" width="280" height="52" rx="1" fill="#FAFAAA"/>
        <path d="M740.093 118.3C738.66 118.3 737.443 117.983 736.443 117.35C735.443 116.717 734.68 115.837 734.153 114.71C733.633 113.583 733.373 112.28 733.373 110.8C733.373 109.32 733.633 108.017 734.153 106.89C734.68 105.763 735.443 104.883 736.443 104.25C737.443 103.617 738.66 103.3 740.093 103.3C741.76 103.3 743.13 103.723 744.203 104.57C745.283 105.417 746.027 106.557 746.433 107.99L744.623 108.47C744.33 107.397 743.807 106.55 743.053 105.93C742.3 105.31 741.313 105 740.093 105C739.02 105 738.127 105.243 737.413 105.73C736.7 106.217 736.163 106.897 735.803 107.77C735.443 108.637 735.26 109.647 735.253 110.8C735.247 111.947 735.423 112.957 735.783 113.83C736.143 114.697 736.683 115.377 737.403 115.87C738.123 116.357 739.02 116.6 740.093 116.6C741.313 116.6 742.3 116.29 743.053 115.67C743.807 115.043 744.33 114.197 744.623 113.13L746.433 113.61C746.027 115.037 745.283 116.177 744.203 117.03C743.13 117.877 741.76 118.3 740.093 118.3Z" fill="#110529"/>
        <rect x="600" y="84" width="280" height="52" rx="1" stroke="#110529" stroke-width="2" stroke-linecap="round"/>
    </g>
    <g filter="url(#filter6_i_6463_39029)">
        <rect x="96" y="320" width="288" height="52" rx="1" fill="#99E099"/>
        <path d="M238.758 354L233.938 339.6H235.788L239.978 352.11L244.208 339.6H246.058L241.238 354H238.758Z" fill="#110529"/>
        <rect x="96" y="320" width="288" height="52" rx="1" stroke="#110529" stroke-width="2" stroke-linecap="round"/>
    </g>
    <g filter="url(#filter7_i_6463_39029)">
        <rect x="384" y="320" width="30" height="52" rx="1" fill="#CBEB67"/>
    </g>
    <rect x="384" y="320" width="30" height="52" rx="1" stroke="#110529" stroke-width="2" stroke-linecap="round"/>
    <g filter="url(#filter8_i_6463_39029)">
        <rect x="450" y="320" width="30" height="52" rx="1" fill="#FAAAFA"/>
    </g>
    <rect x="450" y="320" width="30" height="52" rx="1" stroke="#110529" stroke-width="2" stroke-linecap="round"/>
    <g filter="url(#filter9_i_6463_39029)">
        <rect x="414" y="320" width="36" height="52" rx="1" fill="#FFCB8F"/>
    </g>
    <rect x="414" y="320" width="36" height="52" rx="1" stroke="#110529" stroke-width="2" stroke-linecap="round"/>
    <path d="M393.447 354V339.6H395.247L402.757 350.85V339.6H404.557V354H402.757L395.247 342.74V354H393.447Z" fill="#110529"/>
    <path d="M459.447 354V339.6H461.247L468.757 350.85V339.6H470.557V354H468.757L461.247 342.74V354H459.447Z" fill="#110529"/>
    <path d="M426.593 354V339.6H431.033C431.18 339.6 431.437 339.603 431.803 339.61C432.17 339.617 432.52 339.643 432.853 339.69C433.967 339.837 434.897 340.243 435.643 340.91C436.397 341.57 436.963 342.41 437.343 343.43C437.723 344.45 437.913 345.573 437.913 346.8C437.913 348.027 437.723 349.15 437.343 350.17C436.963 351.19 436.397 352.033 435.643 352.7C434.897 353.36 433.967 353.763 432.853 353.91C432.52 353.95 432.167 353.977 431.793 353.99C431.427 353.997 431.173 354 431.033 354H426.593ZM428.423 352.3H431.033C431.287 352.3 431.57 352.293 431.883 352.28C432.197 352.26 432.47 352.23 432.703 352.19C433.49 352.043 434.127 351.713 434.613 351.2C435.1 350.687 435.457 350.047 435.683 349.28C435.91 348.513 436.023 347.687 436.023 346.8C436.023 345.893 435.907 345.057 435.673 344.29C435.447 343.523 435.09 342.887 434.603 342.38C434.117 341.873 433.483 341.55 432.703 341.41C432.47 341.363 432.193 341.333 431.873 341.32C431.553 341.307 431.273 341.3 431.033 341.3H428.423V352.3Z" fill="#110529"/>
    <g filter="url(#filter10_i_6463_39029)">
        <rect x="480" y="320" width="120" height="52" rx="1" fill="#C1ADFF"/>
        <path d="M539.244 354.29C538.237 354.29 537.384 354.017 536.684 353.47C535.984 352.923 535.504 352.19 535.244 351.27L537.014 350.85C537.121 351.337 537.377 351.75 537.784 352.09C538.197 352.43 538.671 352.6 539.204 352.6C539.551 352.6 539.904 352.517 540.264 352.35C540.624 352.177 540.901 351.897 541.094 351.51C541.227 351.243 541.304 350.95 541.324 350.63C541.344 350.303 541.354 349.92 541.354 349.48V339.6H543.154V349.48C543.154 349.893 543.151 350.263 543.144 350.59C543.144 350.917 543.111 351.23 543.044 351.53C542.984 351.823 542.864 352.123 542.684 352.43C542.324 353.063 541.841 353.533 541.234 353.84C540.634 354.14 539.971 354.29 539.244 354.29Z" fill="#110529"/>
        <rect x="480" y="320" width="120" height="52" rx="1" stroke="#110529" stroke-width="2" stroke-linecap="round"/>
    </g>
    <g filter="url(#filter11_i_6463_39029)">
        <rect x="600" y="320" width="280" height="52" rx="1" fill="#FAFAAA"/>
        <path d="M740.093 354.3C738.66 354.3 737.443 353.983 736.443 353.35C735.443 352.717 734.68 351.837 734.153 350.71C733.633 349.583 733.373 348.28 733.373 346.8C733.373 345.32 733.633 344.017 734.153 342.89C734.68 341.763 735.443 340.883 736.443 340.25C737.443 339.617 738.66 339.3 740.093 339.3C741.76 339.3 743.13 339.723 744.203 340.57C745.283 341.417 746.027 342.557 746.433 343.99L744.623 344.47C744.33 343.397 743.807 342.55 743.053 341.93C742.3 341.31 741.313 341 740.093 341C739.02 341 738.127 341.243 737.413 341.73C736.7 342.217 736.163 342.897 735.803 343.77C735.443 344.637 735.26 345.647 735.253 346.8C735.247 347.947 735.423 348.957 735.783 349.83C736.143 350.697 736.683 351.377 737.403 351.87C738.123 352.357 739.02 352.6 740.093 352.6C741.313 352.6 742.3 352.29 743.053 351.67C743.807 351.043 744.33 350.197 744.623 349.13L746.433 349.61C746.027 351.037 745.283 352.177 744.203 353.03C743.13 353.877 741.76 354.3 740.093 354.3Z" fill="#110529"/>
        <rect x="600" y="320" width="280" height="52" rx="1" stroke="#110529" stroke-width="2" stroke-linecap="round"/>
    </g>
    <g filter="url(#filter12_i_6463_39029)">
        <rect x="96" y="220" width="288" height="52" rx="1" fill="#99E099"/>
        <path d="M238.758 254L233.938 239.6H235.788L239.978 252.11L244.208 239.6H246.058L241.238 254H238.758Z" fill="#110529"/>
        <rect x="96" y="220" width="288" height="52" rx="1" stroke="#110529" stroke-width="2" stroke-linecap="round"/>
    </g>
    <g filter="url(#filter13_i_6463_39029)">
        <rect x="384" y="220" width="30" height="52" rx="1" fill="#CBEB67"/>
        <path d="M393.447 254V239.6H395.247L402.757 250.85V239.6H404.557V254H402.757L395.247 242.74V254H393.447Z" fill="#110529"/>
        <rect x="384" y="220" width="30" height="52" rx="1" stroke="#110529" stroke-width="2" stroke-linecap="round"/>
    </g>
    <g filter="url(#filter14_i_6463_39029)">
        <rect x="414" y="220" width="120" height="52" rx="1" fill="#C1ADFF"/>
        <path d="M473.244 254.29C472.237 254.29 471.384 254.017 470.684 253.47C469.984 252.923 469.504 252.19 469.244 251.27L471.014 250.85C471.121 251.337 471.377 251.75 471.784 252.09C472.197 252.43 472.671 252.6 473.204 252.6C473.551 252.6 473.904 252.517 474.264 252.35C474.624 252.177 474.901 251.897 475.094 251.51C475.227 251.243 475.304 250.95 475.324 250.63C475.344 250.303 475.354 249.92 475.354 249.48V239.6H477.154V249.48C477.154 249.893 477.151 250.263 477.144 250.59C477.144 250.917 477.111 251.23 477.044 251.53C476.984 251.823 476.864 252.123 476.684 252.43C476.324 253.063 475.841 253.533 475.234 253.84C474.634 254.14 473.971 254.29 473.244 254.29Z" fill="#110529"/>
        <rect x="414" y="220" width="120" height="52" rx="1" stroke="#110529" stroke-width="2" stroke-linecap="round"/>
    </g>
    <g filter="url(#filter15_i_6463_39029)">
        <rect x="534" y="220" width="280" height="52" rx="1" fill="#FAFAAA"/>
        <path d="M674.093 254.3C672.66 254.3 671.443 253.983 670.443 253.35C669.443 252.717 668.68 251.837 668.153 250.71C667.633 249.583 667.373 248.28 667.373 246.8C667.373 245.32 667.633 244.017 668.153 242.89C668.68 241.763 669.443 240.883 670.443 240.25C671.443 239.617 672.66 239.3 674.093 239.3C675.76 239.3 677.13 239.723 678.203 240.57C679.283 241.417 680.027 242.557 680.433 243.99L678.623 244.47C678.33 243.397 677.807 242.55 677.053 241.93C676.3 241.31 675.313 241 674.093 241C673.02 241 672.127 241.243 671.413 241.73C670.7 242.217 670.163 242.897 669.803 243.77C669.443 244.637 669.26 245.647 669.253 246.8C669.247 247.947 669.423 248.957 669.783 249.83C670.143 250.697 670.683 251.377 671.403 251.87C672.123 252.357 673.02 252.6 674.093 252.6C675.313 252.6 676.3 252.29 677.053 251.67C677.807 251.043 678.33 250.197 678.623 249.13L680.433 249.61C680.027 251.037 679.283 252.177 678.203 253.03C677.13 253.877 675.76 254.3 674.093 254.3Z" fill="#110529"/>
        <rect x="534" y="220" width="280" height="52" rx="1" stroke="#110529" stroke-width="2" stroke-linecap="round"/>
    </g>
    <g filter="url(#filter16_i_6463_39029)">
        <rect x="96" y="420" width="288" height="52" rx="1" fill="#99E099"/>
        <path d="M238.758 454L233.938 439.6H235.788L239.978 452.11L244.208 439.6H246.058L241.238 454H238.758Z" fill="#110529"/>
        <rect x="96" y="420" width="288" height="52" rx="1" stroke="#110529" stroke-width="2" stroke-linecap="round"/>
    </g>
    <g filter="url(#filter17_i_6463_39029)">
        <rect x="384" y="420" width="30" height="52" rx="1" fill="#CBEB67"/>
        <path d="M393.447 454V439.6H395.247L402.757 450.85V439.6H404.557V454H402.757L395.247 442.74V454H393.447Z" fill="#110529"/>
        <rect x="384" y="420" width="30" height="52" rx="1" stroke="#110529" stroke-width="2" stroke-linecap="round"/>
    </g>
    <g filter="url(#filter18_i_6463_39029)">
        <rect x="414" y="420" width="120" height="52" rx="1" fill="#C1ADFF"/>
        <path d="M473.244 454.29C472.237 454.29 471.384 454.017 470.684 453.47C469.984 452.923 469.504 452.19 469.244 451.27L471.014 450.85C471.121 451.337 471.377 451.75 471.784 452.09C472.197 452.43 472.671 452.6 473.204 452.6C473.551 452.6 473.904 452.517 474.264 452.35C474.624 452.177 474.901 451.897 475.094 451.51C475.227 451.243 475.304 450.95 475.324 450.63C475.344 450.303 475.354 449.92 475.354 449.48V439.6H477.154V449.48C477.154 449.893 477.151 450.263 477.144 450.59C477.144 450.917 477.111 451.23 477.044 451.53C476.984 451.823 476.864 452.123 476.684 452.43C476.324 453.063 475.841 453.533 475.234 453.84C474.634 454.14 473.971 454.29 473.244 454.29Z" fill="#110529"/>
        <rect x="414" y="420" width="120" height="52" rx="1" stroke="#110529" stroke-width="2" stroke-linecap="round"/>
    </g>
    <g filter="url(#filter19_i_6463_39029)">
        <rect x="534" y="420" width="280" height="52" rx="1" fill="#FAFAAA"/>
        <path d="M674.093 454.3C672.66 454.3 671.443 453.983 670.443 453.35C669.443 452.717 668.68 451.837 668.153 450.71C667.633 449.583 667.373 448.28 667.373 446.8C667.373 445.32 667.633 444.017 668.153 442.89C668.68 441.763 669.443 440.883 670.443 440.25C671.443 439.617 672.66 439.3 674.093 439.3C675.76 439.3 677.13 439.723 678.203 440.57C679.283 441.417 680.027 442.557 680.433 443.99L678.623 444.47C678.33 443.397 677.807 442.55 677.053 441.93C676.3 441.31 675.313 441 674.093 441C673.02 441 672.127 441.243 671.413 441.73C670.7 442.217 670.163 442.897 669.803 443.77C669.443 444.637 669.26 445.647 669.253 446.8C669.247 447.947 669.423 448.957 669.783 449.83C670.143 450.697 670.683 451.377 671.403 451.87C672.123 452.357 673.02 452.6 674.093 452.6C675.313 452.6 676.3 452.29 677.053 451.67C677.807 451.043 678.33 450.197 678.623 449.13L680.433 449.61C680.027 451.037 679.283 452.177 678.203 453.03C677.13 453.877 675.76 454.3 674.093 454.3Z" fill="#110529"/>
        <rect x="534" y="420" width="280" height="52" rx="1" stroke="#110529" stroke-width="2" stroke-linecap="round"/>
    </g>
    <defs>
        <filter id="filter0_i_6463_39029" x="95" y="83" width="290" height="54" filterUnits="userSpaceOnUse" color-interpolation-filters="sRGB">
            <feFlood flood-opacity="0" result="BackgroundImageFix"/>
            <feBlend mode="normal" in="SourceGraphic" in2="BackgroundImageFix" result="shape"/>
            <feColorMatrix in="SourceAlpha" type="matrix" values="0 0 0 0 0 0 0 0 0 0 0 0 0 0 0 0 0 0 127 0" result="hardAlpha"/>
            <feOffset dx="-8" dy="-4"/>
            <feComposite in2="hardAlpha" operator="arithmetic" k2="-1" k3="1"/>
            <feColorMatrix type="matrix" values="0 0 0 0 0.0666667 0 0 0 0 0.0196078 0 0 0 0 0.160784 0 0 0 0.16 0"/>
            <feBlend mode="normal" in2="shape" result="effect1_innerShadow_6463_39029"/>
        </filter>
        <filter id="filter1_i_6463_39029" x="383" y="83" width="32" height="54" filterUnits="userSpaceOnUse" color-interpolation-filters="sRGB">
            <feFlood flood-opacity="0" result="BackgroundImageFix"/>
            <feBlend mode="normal" in="SourceGraphic" in2="BackgroundImageFix" result="shape"/>
            <feColorMatrix in="SourceAlpha" type="matrix" values="0 0 0 0 0 0 0 0 0 0 0 0 0 0 0 0 0 0 127 0" result="hardAlpha"/>
            <feOffset dx="-8" dy="-4"/>
            <feComposite in2="hardAlpha" operator="arithmetic" k2="-1" k3="1"/>
            <feColorMatrix type="matrix" values="0 0 0 0 0.0666667 0 0 0 0 0.0196078 0 0 0 0 0.160784 0 0 0 0.16 0"/>
            <feBlend mode="normal" in2="shape" result="effect1_innerShadow_6463_39029"/>
        </filter>
        <filter id="filter2_i_6463_39029" x="449" y="83" width="32" height="54" filterUnits="userSpaceOnUse" color-interpolation-filters="sRGB">
            <feFlood flood-opacity="0" result="BackgroundImageFix"/>
            <feBlend mode="normal" in="SourceGraphic" in2="BackgroundImageFix" result="shape"/>
            <feColorMatrix in="SourceAlpha" type="matrix" values="0 0 0 0 0 0 0 0 0 0 0 0 0 0 0 0 0 0 127 0" result="hardAlpha"/>
            <feOffset dx="-8" dy="-4"/>
            <feComposite in2="hardAlpha" operator="arithmetic" k2="-1" k3="1"/>
            <feColorMatrix type="matrix" values="0 0 0 0 0.0666667 0 0 0 0 0.0196078 0 0 0 0 0.160784 0 0 0 0.16 0"/>
            <feBlend mode="normal" in2="shape" result="effect1_innerShadow_6463_39029"/>
        </filter>
        <filter id="filter3_i_6463_39029" x="413" y="83" width="38" height="54" filterUnits="userSpaceOnUse" color-interpolation-filters="sRGB">
            <feFlood flood-opacity="0" result="BackgroundImageFix"/>
            <feBlend mode="normal" in="SourceGraphic" in2="BackgroundImageFix" result="shape"/>
            <feColorMatrix in="SourceAlpha" type="matrix" values="0 0 0 0 0 0 0 0 0 0 0 0 0 0 0 0 0 0 127 0" result="hardAlpha"/>
            <feOffset dx="-8" dy="-4"/>
            <feComposite in2="hardAlpha" operator="arithmetic" k2="-1" k3="1"/>
            <feColorMatrix type="matrix" values="0 0 0 0 0.0666667 0 0 0 0 0.0196078 0 0 0 0 0.160784 0 0 0 0.16 0"/>
            <feBlend mode="normal" in2="shape" result="effect1_innerShadow_6463_39029"/>
        </filter>
        <filter id="filter4_i_6463_39029" x="479" y="83" width="122" height="54" filterUnits="userSpaceOnUse" color-interpolation-filters="sRGB">
            <feFlood flood-opacity="0" result="BackgroundImageFix"/>
            <feBlend mode="normal" in="SourceGraphic" in2="BackgroundImageFix" result="shape"/>
            <feColorMatrix in="SourceAlpha" type="matrix" values="0 0 0 0 0 0 0 0 0 0 0 0 0 0 0 0 0 0 127 0" result="hardAlpha"/>
            <feOffset dx="-8" dy="-4"/>
            <feComposite in2="hardAlpha" operator="arithmetic" k2="-1" k3="1"/>
            <feColorMatrix type="matrix" values="0 0 0 0 0.0666667 0 0 0 0 0.0196078 0 0 0 0 0.160784 0 0 0 0.16 0"/>
            <feBlend mode="normal" in2="shape" result="effect1_innerShadow_6463_39029"/>
        </filter>
        <filter id="filter5_i_6463_39029" x="599" y="83" width="282" height="54" filterUnits="userSpaceOnUse" color-interpolation-filters="sRGB">
            <feFlood flood-opacity="0" result="BackgroundImageFix"/>
            <feBlend mode="normal" in="SourceGraphic" in2="BackgroundImageFix" result="shape"/>
            <feColorMatrix in="SourceAlpha" type="matrix" values="0 0 0 0 0 0 0 0 0 0 0 0 0 0 0 0 0 0 127 0" result="hardAlpha"/>
            <feOffset dx="-8" dy="-4"/>
            <feComposite in2="hardAlpha" operator="arithmetic" k2="-1" k3="1"/>
            <feColorMatrix type="matrix" values="0 0 0 0 0.0666667 0 0 0 0 0.0196078 0 0 0 0 0.160784 0 0 0 0.16 0"/>
            <feBlend mode="normal" in2="shape" result="effect1_innerShadow_6463_39029"/>
        </filter>
        <filter id="filter6_i_6463_39029" x="95" y="319" width="290" height="54" filterUnits="userSpaceOnUse" color-interpolation-filters="sRGB">
            <feFlood flood-opacity="0" result="BackgroundImageFix"/>
            <feBlend mode="normal" in="SourceGraphic" in2="BackgroundImageFix" result="shape"/>
            <feColorMatrix in="SourceAlpha" type="matrix" values="0 0 0 0 0 0 0 0 0 0 0 0 0 0 0 0 0 0 127 0" result="hardAlpha"/>
            <feOffset dx="-8" dy="-4"/>
            <feComposite in2="hardAlpha" operator="arithmetic" k2="-1" k3="1"/>
            <feColorMatrix type="matrix" values="0 0 0 0 0.0666667 0 0 0 0 0.0196078 0 0 0 0 0.160784 0 0 0 0.16 0"/>
            <feBlend mode="normal" in2="shape" result="effect1_innerShadow_6463_39029"/>
        </filter>
        <filter id="filter7_i_6463_39029" x="383" y="319" width="32" height="54" filterUnits="userSpaceOnUse" color-interpolation-filters="sRGB">
            <feFlood flood-opacity="0" result="BackgroundImageFix"/>
            <feBlend mode="normal" in="SourceGraphic" in2="BackgroundImageFix" result="shape"/>
            <feColorMatrix in="SourceAlpha" type="matrix" values="0 0 0 0 0 0 0 0 0 0 0 0 0 0 0 0 0 0 127 0" result="hardAlpha"/>
            <feOffset dx="-8" dy="-4"/>
            <feComposite in2="hardAlpha" operator="arithmetic" k2="-1" k3="1"/>
            <feColorMatrix type="matrix" values="0 0 0 0 0.0666667 0 0 0 0 0.0196078 0 0 0 0 0.160784 0 0 0 0.16 0"/>
            <feBlend mode="normal" in2="shape" result="effect1_innerShadow_6463_39029"/>
        </filter>
        <filter id="filter8_i_6463_39029" x="449" y="319" width="32" height="54" filterUnits="userSpaceOnUse" color-interpolation-filters="sRGB">
            <feFlood flood-opacity="0" result="BackgroundImageFix"/>
            <feBlend mode="normal" in="SourceGraphic" in2="BackgroundImageFix" result="shape"/>
            <feColorMatrix in="SourceAlpha" type="matrix" values="0 0 0 0 0 0 0 0 0 0 0 0 0 0 0 0 0 0 127 0" result="hardAlpha"/>
            <feOffset dx="-8" dy="-4"/>
            <feComposite in2="hardAlpha" operator="arithmetic" k2="-1" k3="1"/>
            <feColorMatrix type="matrix" values="0 0 0 0 0.0666667 0 0 0 0 0.0196078 0 0 0 0 0.160784 0 0 0 0.16 0"/>
            <feBlend mode="normal" in2="shape" result="effect1_innerShadow_6463_39029"/>
        </filter>
        <filter id="filter9_i_6463_39029" x="413" y="319" width="38" height="54" filterUnits="userSpaceOnUse" color-interpolation-filters="sRGB">
            <feFlood flood-opacity="0" result="BackgroundImageFix"/>
            <feBlend mode="normal" in="SourceGraphic" in2="BackgroundImageFix" result="shape"/>
            <feColorMatrix in="SourceAlpha" type="matrix" values="0 0 0 0 0 0 0 0 0 0 0 0 0 0 0 0 0 0 127 0" result="hardAlpha"/>
            <feOffset dx="-8" dy="-4"/>
            <feComposite in2="hardAlpha" operator="arithmetic" k2="-1" k3="1"/>
            <feColorMatrix type="matrix" values="0 0 0 0 0.0666667 0 0 0 0 0.0196078 0 0 0 0 0.160784 0 0 0 0.16 0"/>
            <feBlend mode="normal" in2="shape" result="effect1_innerShadow_6463_39029"/>
        </filter>
        <filter id="filter10_i_6463_39029" x="479" y="319" width="122" height="54" filterUnits="userSpaceOnUse" color-interpolation-filters="sRGB">
            <feFlood flood-opacity="0" result="BackgroundImageFix"/>
            <feBlend mode="normal" in="SourceGraphic" in2="BackgroundImageFix" result="shape"/>
            <feColorMatrix in="SourceAlpha" type="matrix" values="0 0 0 0 0 0 0 0 0 0 0 0 0 0 0 0 0 0 127 0" result="hardAlpha"/>
            <feOffset dx="-8" dy="-4"/>
            <feComposite in2="hardAlpha" operator="arithmetic" k2="-1" k3="1"/>
            <feColorMatrix type="matrix" values="0 0 0 0 0.0666667 0 0 0 0 0.0196078 0 0 0 0 0.160784 0 0 0 0.16 0"/>
            <feBlend mode="normal" in2="shape" result="effect1_innerShadow_6463_39029"/>
        </filter>
        <filter id="filter11_i_6463_39029" x="599" y="319" width="282" height="54" filterUnits="userSpaceOnUse" color-interpolation-filters="sRGB">
            <feFlood flood-opacity="0" result="BackgroundImageFix"/>
            <feBlend mode="normal" in="SourceGraphic" in2="BackgroundImageFix" result="shape"/>
            <feColorMatrix in="SourceAlpha" type="matrix" values="0 0 0 0 0 0 0 0 0 0 0 0 0 0 0 0 0 0 127 0" result="hardAlpha"/>
            <feOffset dx="-8" dy="-4"/>
            <feComposite in2="hardAlpha" operator="arithmetic" k2="-1" k3="1"/>
            <feColorMatrix type="matrix" values="0 0 0 0 0.0666667 0 0 0 0 0.0196078 0 0 0 0 0.160784 0 0 0 0.16 0"/>
            <feBlend mode="normal" in2="shape" result="effect1_innerShadow_6463_39029"/>
        </filter>
        <filter id="filter12_i_6463_39029" x="95" y="219" width="290" height="54" filterUnits="userSpaceOnUse" color-interpolation-filters="sRGB">
            <feFlood flood-opacity="0" result="BackgroundImageFix"/>
            <feBlend mode="normal" in="SourceGraphic" in2="BackgroundImageFix" result="shape"/>
            <feColorMatrix in="SourceAlpha" type="matrix" values="0 0 0 0 0 0 0 0 0 0 0 0 0 0 0 0 0 0 127 0" result="hardAlpha"/>
            <feOffset dx="-8" dy="-4"/>
            <feComposite in2="hardAlpha" operator="arithmetic" k2="-1" k3="1"/>
            <feColorMatrix type="matrix" values="0 0 0 0 0.0666667 0 0 0 0 0.0196078 0 0 0 0 0.160784 0 0 0 0.16 0"/>
            <feBlend mode="normal" in2="shape" result="effect1_innerShadow_6463_39029"/>
        </filter>
        <filter id="filter13_i_6463_39029" x="383" y="219" width="32" height="54" filterUnits="userSpaceOnUse" color-interpolation-filters="sRGB">
            <feFlood flood-opacity="0" result="BackgroundImageFix"/>
            <feBlend mode="normal" in="SourceGraphic" in2="BackgroundImageFix" result="shape"/>
            <feColorMatrix in="SourceAlpha" type="matrix" values="0 0 0 0 0 0 0 0 0 0 0 0 0 0 0 0 0 0 127 0" result="hardAlpha"/>
            <feOffset dx="-8" dy="-4"/>
            <feComposite in2="hardAlpha" operator="arithmetic" k2="-1" k3="1"/>
            <feColorMatrix type="matrix" values="0 0 0 0 0.0666667 0 0 0 0 0.0196078 0 0 0 0 0.160784 0 0 0 0.16 0"/>
            <feBlend mode="normal" in2="shape" result="effect1_innerShadow_6463_39029"/>
        </filter>
        <filter id="filter14_i_6463_39029" x="413" y="219" width="122" height="54" filterUnits="userSpaceOnUse" color-interpolation-filters="sRGB">
            <feFlood flood-opacity="0" result="BackgroundImageFix"/>
            <feBlend mode="normal" in="SourceGraphic" in2="BackgroundImageFix" result="shape"/>
            <feColorMatrix in="SourceAlpha" type="matrix" values="0 0 0 0 0 0 0 0 0 0 0 0 0 0 0 0 0 0 127 0" result="hardAlpha"/>
            <feOffset dx="-8" dy="-4"/>
            <feComposite in2="hardAlpha" operator="arithmetic" k2="-1" k3="1"/>
            <feColorMatrix type="matrix" values="0 0 0 0 0.0666667 0 0 0 0 0.0196078 0 0 0 0 0.160784 0 0 0 0.16 0"/>
            <feBlend mode="normal" in2="shape" result="effect1_innerShadow_6463_39029"/>
        </filter>
        <filter id="filter15_i_6463_39029" x="533" y="219" width="282" height="54" filterUnits="userSpaceOnUse" color-interpolation-filters="sRGB">
            <feFlood flood-opacity="0" result="BackgroundImageFix"/>
            <feBlend mode="normal" in="SourceGraphic" in2="BackgroundImageFix" result="shape"/>
            <feColorMatrix in="SourceAlpha" type="matrix" values="0 0 0 0 0 0 0 0 0 0 0 0 0 0 0 0 0 0 127 0" result="hardAlpha"/>
            <feOffset dx="-8" dy="-4"/>
            <feComposite in2="hardAlpha" operator="arithmetic" k2="-1" k3="1"/>
            <feColorMatrix type="matrix" values="0 0 0 0 0.0666667 0 0 0 0 0.0196078 0 0 0 0 0.160784 0 0 0 0.16 0"/>
            <feBlend mode="normal" in2="shape" result="effect1_innerShadow_6463_39029"/>
        </filter>
        <filter id="filter16_i_6463_39029" x="95" y="419" width="290" height="54" filterUnits="userSpaceOnUse" color-interpolation-filters="sRGB">
            <feFlood flood-opacity="0" result="BackgroundImageFix"/>
            <feBlend mode="normal" in="SourceGraphic" in2="BackgroundImageFix" result="shape"/>
            <feColorMatrix in="SourceAlpha" type="matrix" values="0 0 0 0 0 0 0 0 0 0 0 0 0 0 0 0 0 0 127 0" result="hardAlpha"/>
            <feOffset dx="-8" dy="-4"/>
            <feComposite in2="hardAlpha" operator="arithmetic" k2="-1" k3="1"/>
            <feColorMatrix type="matrix" values="0 0 0 0 0.0666667 0 0 0 0 0.0196078 0 0 0 0 0.160784 0 0 0 0.16 0"/>
            <feBlend mode="normal" in2="shape" result="effect1_innerShadow_6463_39029"/>
        </filter>
        <filter id="filter17_i_6463_39029" x="383" y="419" width="32" height="54" filterUnits="userSpaceOnUse" color-interpolation-filters="sRGB">
            <feFlood flood-opacity="0" result="BackgroundImageFix"/>
            <feBlend mode="normal" in="SourceGraphic" in2="BackgroundImageFix" result="shape"/>
            <feColorMatrix in="SourceAlpha" type="matrix" values="0 0 0 0 0 0 0 0 0 0 0 0 0 0 0 0 0 0 127 0" result="hardAlpha"/>
            <feOffset dx="-8" dy="-4"/>
            <feComposite in2="hardAlpha" operator="arithmetic" k2="-1" k3="1"/>
            <feColorMatrix type="matrix" values="0 0 0 0 0.0666667 0 0 0 0 0.0196078 0 0 0 0 0.160784 0 0 0 0.16 0"/>
            <feBlend mode="normal" in2="shape" result="effect1_innerShadow_6463_39029"/>
        </filter>
        <filter id="filter18_i_6463_39029" x="413" y="419" width="122" height="54" filterUnits="userSpaceOnUse" color-interpolation-filters="sRGB">
            <feFlood flood-opacity="0" result="BackgroundImageFix"/>
            <feBlend mode="normal" in="SourceGraphic" in2="BackgroundImageFix" result="shape"/>
            <feColorMatrix in="SourceAlpha" type="matrix" values="0 0 0 0 0 0 0 0 0 0 0 0 0 0 0 0 0 0 127 0" result="hardAlpha"/>
            <feOffset dx="-8" dy="-4"/>
            <feComposite in2="hardAlpha" operator="arithmetic" k2="-1" k3="1"/>
            <feColorMatrix type="matrix" values="0 0 0 0 0.0666667 0 0 0 0 0.0196078 0 0 0 0 0.160784 0 0 0 0.16 0"/>
            <feBlend mode="normal" in2="shape" result="effect1_innerShadow_6463_39029"/>
        </filter>
        <filter id="filter19_i_6463_39029" x="533" y="419" width="282" height="54" filterUnits="userSpaceOnUse" color-interpolation-filters="sRGB">
            <feFlood flood-opacity="0" result="BackgroundImageFix"/>
            <feBlend mode="normal" in="SourceGraphic" in2="BackgroundImageFix" result="shape"/>
            <feColorMatrix in="SourceAlpha" type="matrix" values="0 0 0 0 0 0 0 0 0 0 0 0 0 0 0 0 0 0 127 0" result="hardAlpha"/>
            <feOffset dx="-8" dy="-4"/>
            <feComposite in2="hardAlpha" operator="arithmetic" k2="-1" k3="1"/>
            <feColorMatrix type="matrix" values="0 0 0 0 0.0666667 0 0 0 0 0.0196078 0 0 0 0 0.160784 0 0 0 0.16 0"/>
            <feBlend mode="normal" in2="shape" result="effect1_innerShadow_6463_39029"/>
        </filter>
    </defs>
</svg>
