<svg width="960" height="524" viewBox="0 0 960 524" fill="none" xmlns="http://www.w3.org/2000/svg">
    <rect width="960" height="524" fill="white"/>
    <path d="M101.969 37.21C103.852 37.21 105.469 35.705 105.469 33.829C105.469 31.939 104.083 30.525 102.2 30.525C101.605 30.525 100.975 30.714 100.478 31.071L100.646 28.299H104.776V26.92H99.337L99.029 32.219L100.303 32.667C100.618 32.247 101.185 31.855 102.011 31.855C103.089 31.855 103.992 32.723 103.992 33.829C103.992 34.907 103.117 35.796 102.011 35.796C101.171 35.796 100.338 35.229 100.107 34.333L98.7 34.711C99.113 36.181 100.415 37.21 101.969 37.21ZM107.373 29.629L107.282 30.28C108.29 30.462 108.829 29.846 108.829 28.747V26.92H107.282V28.607H108.087C108.157 29.202 107.982 29.678 107.373 29.629ZM114.852 37.21C117.225 37.21 118.87 35.663 118.87 33.29V26.92H117.386V33.213C117.386 34.914 116.119 35.831 114.852 35.831C113.599 35.831 112.318 34.935 112.318 33.213V26.92L110.834 26.927V33.29C110.834 35.663 112.479 37.21 114.852 37.21ZM123.341 37H124.804V28.299H128.157V26.92H119.988V28.299H123.341V37ZM129.277 37H130.74V33.381H133.414L135.171 37H136.844L134.94 33.094C136.081 32.597 136.655 31.491 136.655 30.147C136.655 28.516 135.815 27.235 134.128 26.976C133.862 26.934 133.547 26.92 133.351 26.92H129.277V37ZM130.74 31.995V28.299H133.295C133.477 28.299 133.722 28.313 133.932 28.369C134.828 28.579 135.164 29.405 135.164 30.147C135.164 30.889 134.828 31.715 133.932 31.932C133.722 31.981 133.477 31.995 133.295 31.995H130.74Z" fill="#D3D7E0"/>
    <path d="M144 112V24" stroke="#D3D7E0" stroke-width="2" stroke-linecap="square" stroke-dasharray="6 6"/>
    <path d="M151.442 37V26.92H152.905V35.621H157.469V37H151.442Z" fill="#D3D7E0"/>
    <path d="M164 112V24" stroke="#D3D7E0" stroke-width="2" stroke-linecap="square" stroke-dasharray="6 6"/>
    <path d="M173.858 37H175.321V32.695H178.989V31.225H175.321V28.383H179.829V26.92H173.858V37ZM181.09 37H182.553V33.381H185.227L186.984 37H188.657L186.753 33.094C187.894 32.597 188.468 31.491 188.468 30.147C188.468 28.516 187.628 27.235 185.941 26.976C185.675 26.934 185.36 26.92 185.164 26.92H181.09V37ZM182.553 31.995V28.299H185.108C185.29 28.299 185.535 28.313 185.745 28.369C186.641 28.579 186.977 29.405 186.977 30.147C186.977 30.889 186.641 31.715 185.745 31.932C185.535 31.981 185.29 31.995 185.108 31.995H182.553ZM191.953 37H193.444V26.92H191.953L190.056 28.054V29.685L191.953 28.53V37Z" fill="#D3D7E0"/>
    <path d="M204 112V24" stroke="#D3D7E0" stroke-width="2" stroke-linecap="square" stroke-dasharray="6 6"/>
    <path d="M213.735 37.21C216.059 37.21 217.62 35.943 218.215 33.955L216.731 33.556C216.332 34.963 215.331 35.817 213.735 35.817C211.593 35.817 210.501 34.27 210.515 31.96C210.522 29.65 211.593 28.103 213.735 28.103C215.331 28.103 216.332 28.957 216.731 30.364L218.215 29.965C217.62 27.977 216.059 26.71 213.735 26.71C210.711 26.71 208.968 28.845 208.968 31.96C208.968 35.075 210.711 37.21 213.735 37.21ZM219.754 37H222.911C223.093 37 223.695 37 224.164 36.937C226.53 36.636 227.79 34.529 227.79 31.96C227.79 29.391 226.53 27.284 224.164 26.983C223.695 26.92 223.093 26.92 222.911 26.92H219.754V37ZM221.252 35.607V28.313H222.911C223.219 28.313 223.723 28.32 224.059 28.383C225.571 28.663 226.236 30.189 226.236 31.96C226.236 33.689 225.599 35.243 224.059 35.537C223.723 35.6 223.233 35.607 222.911 35.607H221.252ZM229.42 37H230.883V33.381H233.557L235.314 37H236.987L235.083 33.094C236.224 32.597 236.798 31.491 236.798 30.147C236.798 28.516 235.958 27.235 234.271 26.976C234.005 26.934 233.69 26.92 233.494 26.92H229.42V37ZM230.883 31.995V28.299H233.438C233.62 28.299 233.865 28.313 234.075 28.369C234.971 28.579 235.307 29.405 235.307 30.147C235.307 30.889 234.971 31.715 234.075 31.932C233.865 31.981 233.62 31.995 233.438 31.995H230.883ZM240.283 37H241.774V26.92H240.283L238.386 28.054V29.685L240.283 28.53V37Z" fill="#D3D7E0"/>
    <path d="M248 112V24" stroke="#D3D7E0" stroke-width="2" stroke-linecap="square" stroke-dasharray="6 6"/>
    <path d="M256.703 37H258.166V32.695H261.834V31.225H258.166V28.383H262.674V26.92H256.703V37ZM263.935 37H265.398V33.381H268.072L269.829 37H271.502L269.598 33.094C270.739 32.597 271.313 31.491 271.313 30.147C271.313 28.516 270.473 27.235 268.786 26.976C268.52 26.934 268.205 26.92 268.009 26.92H263.935V37ZM265.398 31.995V28.299H267.953C268.135 28.299 268.38 28.313 268.59 28.369C269.486 28.579 269.822 29.405 269.822 30.147C269.822 30.889 269.486 31.715 268.59 31.932C268.38 31.981 268.135 31.995 267.953 31.995H265.398ZM272.761 36.993H279.579V35.6H275.022L277.941 32.996C279.033 32.037 279.579 31.407 279.579 30.028C279.579 28.117 278.144 26.71 276.24 26.71C274.231 26.71 272.796 28.047 272.796 30H274.294C274.28 28.985 275.092 28.103 276.212 28.103C277.297 28.103 278.074 28.929 278.074 30.007C278.074 30.581 277.864 31.127 277.157 31.757L272.768 35.691L272.761 36.993Z" fill="#D3D7E0"/>
    <path d="M288 112V24" stroke="#D3D7E0" stroke-width="2" stroke-linecap="square" stroke-dasharray="6 6"/>
    <path d="M296.58 37.21C298.904 37.21 300.465 35.943 301.06 33.955L299.576 33.556C299.177 34.963 298.176 35.817 296.58 35.817C294.438 35.817 293.346 34.27 293.36 31.96C293.367 29.65 294.438 28.103 296.58 28.103C298.176 28.103 299.177 28.957 299.576 30.364L301.06 29.965C300.465 27.977 298.904 26.71 296.58 26.71C293.556 26.71 291.813 28.845 291.813 31.96C291.813 35.075 293.556 37.21 296.58 37.21ZM302.599 37H305.756C305.938 37 306.54 37 307.009 36.937C309.375 36.636 310.635 34.529 310.635 31.96C310.635 29.391 309.375 27.284 307.009 26.983C306.54 26.92 305.938 26.92 305.756 26.92H302.599V37ZM304.097 35.607V28.313H305.756C306.064 28.313 306.568 28.32 306.904 28.383C308.416 28.663 309.081 30.189 309.081 31.96C309.081 33.689 308.444 35.243 306.904 35.537C306.568 35.6 306.078 35.607 305.756 35.607H304.097ZM312.265 37H313.728V33.381H316.402L318.159 37H319.832L317.928 33.094C319.069 32.597 319.643 31.491 319.643 30.147C319.643 28.516 318.803 27.235 317.116 26.976C316.85 26.934 316.535 26.92 316.339 26.92H312.265V37ZM313.728 31.995V28.299H316.283C316.465 28.299 316.71 28.313 316.92 28.369C317.816 28.579 318.152 29.405 318.152 30.147C318.152 30.889 317.816 31.715 316.92 31.932C316.71 31.981 316.465 31.995 316.283 31.995H313.728ZM321.091 36.993H327.909V35.6H323.352L326.271 32.996C327.363 32.037 327.909 31.407 327.909 30.028C327.909 28.117 326.474 26.71 324.57 26.71C322.561 26.71 321.126 28.047 321.126 30H322.624C322.61 28.985 323.422 28.103 324.542 28.103C325.627 28.103 326.404 28.929 326.404 30.007C326.404 30.581 326.194 31.127 325.487 31.757L321.098 35.691L321.091 36.993Z" fill="#D3D7E0"/>
    <path d="M332 112V24" stroke="#D3D7E0" stroke-width="2" stroke-linecap="square" stroke-dasharray="6 6"/>
    <path d="M340.805 37H342.268V32.695H345.936V31.225H342.268V28.383H346.776V26.92H340.805V37ZM348.038 37H349.501V33.381H352.175L353.932 37H355.605L353.701 33.094C354.842 32.597 355.416 31.491 355.416 30.147C355.416 28.516 354.576 27.235 352.889 26.976C352.623 26.934 352.308 26.92 352.112 26.92H348.038V37ZM349.501 31.995V28.299H352.056C352.238 28.299 352.483 28.313 352.693 28.369C353.589 28.579 353.925 29.405 353.925 30.147C353.925 30.889 353.589 31.715 352.693 31.932C352.483 31.981 352.238 31.995 352.056 31.995H349.501ZM359.964 37.189C361.847 37.189 363.331 35.796 363.331 33.871C363.331 32.233 362.323 30.924 360.692 30.707L363.184 28.313V26.92H357.122V28.313H361.392L358.312 31.036L358.998 32.191C359.285 32.037 359.628 31.939 359.95 31.939C361.07 31.939 361.833 32.751 361.833 33.871C361.833 34.984 361.07 35.789 359.964 35.803C359.138 35.81 358.403 35.341 358.137 34.466L356.723 34.858C357.15 36.293 358.466 37.189 359.964 37.189Z" fill="#D3D7E0"/>
    <path d="M372 112V24" stroke="#D3D7E0" stroke-width="2" stroke-linecap="square" stroke-dasharray="6 6"/>
    <path d="M418.682 37.21C421.006 37.21 422.567 35.943 423.162 33.955L421.678 33.556C421.279 34.963 420.278 35.817 418.682 35.817C416.54 35.817 415.448 34.27 415.462 31.96C415.469 29.65 416.54 28.103 418.682 28.103C420.278 28.103 421.279 28.957 421.678 30.364L423.162 29.965C422.567 27.977 421.006 26.71 418.682 26.71C415.658 26.71 413.915 28.845 413.915 31.96C413.915 35.075 415.658 37.21 418.682 37.21ZM424.702 37H427.859C428.041 37 428.643 37 429.112 36.937C431.478 36.636 432.738 34.529 432.738 31.96C432.738 29.391 431.478 27.284 429.112 26.983C428.643 26.92 428.041 26.92 427.859 26.92H424.702V37ZM426.2 35.607V28.313H427.859C428.167 28.313 428.671 28.32 429.007 28.383C430.519 28.663 431.184 30.189 431.184 31.96C431.184 33.689 430.547 35.243 429.007 35.537C428.671 35.6 428.181 35.607 427.859 35.607H426.2ZM434.368 37H435.831V33.381H438.505L440.262 37H441.935L440.031 33.094C441.172 32.597 441.746 31.491 441.746 30.147C441.746 28.516 440.906 27.235 439.219 26.976C438.953 26.934 438.638 26.92 438.442 26.92H434.368V37ZM435.831 31.995V28.299H438.386C438.568 28.299 438.813 28.313 439.023 28.369C439.919 28.579 440.255 29.405 440.255 30.147C440.255 30.889 439.919 31.715 439.023 31.932C438.813 31.981 438.568 31.995 438.386 31.995H435.831ZM446.294 37.189C448.177 37.189 449.661 35.796 449.661 33.871C449.661 32.233 448.653 30.924 447.022 30.707L449.514 28.313V26.92H443.452V28.313H447.722L444.642 31.036L445.328 32.191C445.615 32.037 445.958 31.939 446.28 31.939C447.4 31.939 448.163 32.751 448.163 33.871C448.163 34.984 447.4 35.789 446.294 35.803C445.468 35.81 444.733 35.341 444.467 34.466L443.053 34.858C443.48 36.293 444.796 37.189 446.294 37.189Z" fill="#D3D7E0"/>
    <path d="M492 112V24" stroke="#D3D7E0" stroke-width="2" stroke-linecap="square" stroke-dasharray="6 6"/>
    <path d="M600 112V24" stroke="#D3D7E0" stroke-width="2" stroke-linecap="square" stroke-dasharray="6 6"/>
    <path d="M534.593 37H536.056V32.695H539.724V31.225H536.056V28.383H540.564V26.92H534.593V37ZM541.826 37H543.289V33.381H545.963L547.72 37H549.393L547.489 33.094C548.63 32.597 549.204 31.491 549.204 30.147C549.204 28.516 548.364 27.235 546.677 26.976C546.411 26.934 546.096 26.92 545.9 26.92H541.826V37ZM543.289 31.995V28.299H545.844C546.026 28.299 546.271 28.313 546.481 28.369C547.377 28.579 547.713 29.405 547.713 30.147C547.713 30.889 547.377 31.715 546.481 31.932C546.271 31.981 546.026 31.995 545.844 31.995H543.289ZM555.201 37H556.685V35.243H557.686V33.857H556.685V31.127H555.201V33.857H552.324L555.6 26.92H553.927L550.651 33.857V35.243H555.201V37Z" fill="#D3D7E0"/>
    <path d="M25.6881 118H27.4681V105.29H32.3781V103.6H20.7781V105.29H25.6881V118ZM39.8903 118.3C43.2203 118.3 45.4103 116.47 46.2303 113.61L44.4203 113.13C43.8303 115.27 42.3203 116.6 39.8903 116.6C36.6703 116.6 35.0303 114.25 35.0503 110.8C35.0703 107.35 36.6703 105 39.8903 105C42.3203 105 43.8303 106.33 44.4203 108.47L46.2303 107.99C45.4103 105.13 43.2203 103.3 39.8903 103.3C35.5803 103.3 33.1703 106.36 33.1703 110.8C33.1703 115.24 35.5803 118.3 39.8903 118.3ZM48.4234 118H50.2034V112.68H54.4134L56.9934 118H59.0334L56.2534 112.29C57.8834 111.61 58.7334 110.04 58.7334 108.14C58.7334 105.85 57.5034 104.04 55.1734 103.68C54.8034 103.62 54.3934 103.6 54.1134 103.6H48.4234V118ZM50.2034 110.99V105.29H54.0534C54.3034 105.29 54.6534 105.31 54.9534 105.38C56.3334 105.69 56.9134 106.94 56.9134 108.14C56.9134 109.34 56.3334 110.59 54.9534 110.9C54.6534 110.97 54.3034 110.99 54.0534 110.99H50.2034ZM65.2298 107.2V122.8H67.0098V117.39C67.7198 117.96 68.7098 118.3 69.9398 118.3C72.9898 118.3 74.8398 116.57 74.8398 113.95C74.8398 111.74 73.4398 110.44 72.0498 110.09C73.0998 109.58 73.6098 108.5 73.6098 107.22C73.6098 104.84 71.8598 103.3 69.3698 103.3C67.5098 103.3 65.9798 104.16 65.4498 105.78C65.2998 106.23 65.2298 106.71 65.2298 107.2ZM67.0498 113.71V107.86C67.0498 107.44 67.0698 106.8 67.2798 106.28C67.6398 105.35 68.5198 104.99 69.4098 104.99C70.7898 104.99 71.7898 105.82 71.7898 107.24C71.7898 108.67 70.7898 109.4 69.4198 109.54V111.14C71.6098 111.18 73.0298 112.1 73.0298 113.87C73.0298 115.52 71.7898 116.61 70.0198 116.61C68.7698 116.61 67.5298 116.04 67.1998 115.01C67.0798 114.64 67.0498 114.1 67.0498 113.71Z" fill="#110529"/>
    <path d="M25.3268 274H27.1068V261.29H32.0168V259.6H20.4168V261.29H25.3268V274ZM39.529 274.3C42.859 274.3 45.049 272.47 45.869 269.61L44.059 269.13C43.469 271.27 41.959 272.6 39.529 272.6C36.309 272.6 34.669 270.25 34.689 266.8C34.709 263.35 36.309 261 39.529 261C41.959 261 43.469 262.33 44.059 264.47L45.869 263.99C45.049 261.13 42.859 259.3 39.529 259.3C35.219 259.3 32.809 262.36 32.809 266.8C32.809 271.24 35.219 274.3 39.529 274.3ZM48.0621 274H49.8421V268.68H54.0521L56.6321 274H58.6721L55.8921 268.29C57.5221 267.61 58.3721 266.04 58.3721 264.14C58.3721 261.85 57.1421 260.04 54.8121 259.68C54.4421 259.62 54.0321 259.6 53.7521 259.6H48.0621V274ZM49.8421 266.99V261.29H53.6921C53.9421 261.29 54.2921 261.31 54.5921 261.38C55.9721 261.69 56.5521 262.94 56.5521 264.14C56.5521 265.34 55.9721 266.59 54.5921 266.9C54.2921 266.97 53.9421 266.99 53.6921 266.99H49.8421ZM69.1485 274.3C70.7885 274.3 72.0985 273.54 72.7985 272.24V274H74.3885V263.2H72.7985V264.93C72.1085 263.65 70.8485 262.9 69.1985 262.9C66.0985 262.9 64.2785 265.35 64.2785 268.6C64.2785 271.83 66.0885 274.3 69.1485 274.3ZM66.1685 268.6C66.1685 266.19 67.2785 264.53 69.3885 264.53C71.4985 264.53 72.4985 266.2 72.4985 268.59C72.4985 270.96 71.5085 272.67 69.3685 272.67C67.1985 272.67 66.1685 270.88 66.1685 268.6Z" fill="#110529"/>
    <path d="M32.9984 374H34.7784V359.6H32.9984V374ZM43.6089 374.3C47.8189 374.3 50.0589 371.39 50.0589 367.44C50.0589 367.32 50.0489 366.87 50.0189 366.59H45.0789V368.06H48.1389C47.9189 370.93 46.4789 372.62 43.6989 372.6C40.4789 372.58 38.8489 370.25 38.8689 366.8C38.8889 363.35 40.4789 360.99 43.6989 361.01C45.7489 361.02 47.1389 362.14 47.7489 363.88L49.5489 363.51C48.7989 360.92 46.8289 359.31 43.6089 359.31C39.5789 359.31 36.9789 362.21 36.9789 366.8C36.9789 371.44 39.6389 374.3 43.6089 374.3ZM52.0563 374H53.8363V367.64H61.4163V374H63.1963V359.6H61.4163V365.95H53.8363V359.6H52.0563V374Z" fill="#110529"/>
    <path d="M26.0258 464H27.8058V449.6H26.0258V464ZM36.6363 464.3C40.8463 464.3 43.0863 461.39 43.0863 457.44C43.0863 457.32 43.0763 456.87 43.0463 456.59H38.1063V458.06H41.1662C40.9463 460.93 39.5062 462.62 36.7263 462.6C33.5063 462.58 31.8763 460.25 31.8963 456.8C31.9163 453.35 33.5063 450.99 36.7263 451.01C38.7763 451.02 40.1663 452.14 40.7763 453.88L42.5763 453.51C41.8263 450.92 39.8563 449.31 36.6363 449.31C32.6063 449.31 30.0063 452.21 30.0063 456.8C30.0063 461.44 32.6663 464.3 36.6363 464.3ZM45.0836 464H46.8636V456.96L53.6136 464H55.9136L48.8636 456.59L55.4036 449.6H53.1636L46.8636 456.36V449.6H45.0836V464ZM64.5634 449.6L60.7234 464H62.5334L66.3734 449.6H64.5634ZM34.7953 484H36.5753V469.6H34.7953V484ZM45.4058 484.3C49.6158 484.3 51.8558 481.39 51.8558 477.44C51.8558 477.32 51.8458 476.87 51.8158 476.59H46.8758V478.06H49.9358C49.7158 480.93 48.2758 482.62 45.4958 482.6C42.2758 482.58 40.6458 480.25 40.6658 476.8C40.6858 473.35 42.2758 470.99 45.4958 471.01C47.5458 471.02 48.9358 472.14 49.5458 473.88L51.3458 473.51C50.5958 470.92 48.6258 469.31 45.4058 469.31C41.3758 469.31 38.7758 472.21 38.7758 476.8C38.7758 481.44 41.4358 484.3 45.4058 484.3ZM54.0531 484H62.5131V482.31H55.8331V469.6H54.0531V484Z" fill="#110529"/>
    <path d="M429.5 158H96" stroke="#110529" stroke-width="2"/>
    <rect width="107" height="20" transform="translate(429.5 148)" fill="white"/>
    <path d="M436.995 164V154.056L434.827 155.368V153.776L436.995 152.48H438.443V164H436.995ZM445.375 164.24C444.629 164.24 443.962 164.072 443.375 163.736C442.794 163.395 442.333 162.933 441.991 162.352C441.655 161.765 441.487 161.099 441.487 160.352V156.128C441.487 155.381 441.655 154.715 441.991 154.128C442.333 153.541 442.794 153.08 443.375 152.744C443.962 152.408 444.629 152.24 445.375 152.24C446.122 152.24 446.789 152.408 447.375 152.744C447.962 153.08 448.423 153.541 448.759 154.128C449.095 154.715 449.263 155.381 449.263 156.128V160.352C449.263 161.099 449.095 161.765 448.759 162.352C448.423 162.933 447.962 163.395 447.375 163.736C446.789 164.072 446.122 164.24 445.375 164.24ZM445.375 162.872C445.829 162.872 446.239 162.763 446.607 162.544C446.975 162.325 447.269 162.032 447.487 161.664C447.706 161.291 447.815 160.88 447.815 160.432V156.04C447.815 155.587 447.706 155.176 447.487 154.808C447.269 154.44 446.975 154.147 446.607 153.928C446.239 153.709 445.829 153.6 445.375 153.6C444.927 153.6 444.517 153.709 444.143 153.928C443.775 154.147 443.482 154.44 443.263 154.808C443.045 155.176 442.935 155.587 442.935 156.04V160.432C442.935 160.88 443.045 161.291 443.263 161.664C443.482 162.032 443.775 162.325 444.143 162.544C444.517 162.763 444.927 162.872 445.375 162.872ZM455.391 164.24C454.644 164.24 453.977 164.072 453.391 163.736C452.809 163.395 452.348 162.933 452.007 162.352C451.671 161.765 451.503 161.099 451.503 160.352V156.128C451.503 155.381 451.671 154.715 452.007 154.128C452.348 153.541 452.809 153.08 453.391 152.744C453.977 152.408 454.644 152.24 455.391 152.24C456.137 152.24 456.804 152.408 457.391 152.744C457.977 153.08 458.439 153.541 458.775 154.128C459.111 154.715 459.279 155.381 459.279 156.128V160.352C459.279 161.099 459.111 161.765 458.775 162.352C458.439 162.933 457.977 163.395 457.391 163.736C456.804 164.072 456.137 164.24 455.391 164.24ZM455.391 162.872C455.844 162.872 456.255 162.763 456.623 162.544C456.991 162.325 457.284 162.032 457.503 161.664C457.721 161.291 457.831 160.88 457.831 160.432V156.04C457.831 155.587 457.721 155.176 457.503 154.808C457.284 154.44 456.991 154.147 456.623 153.928C456.255 153.709 455.844 153.6 455.391 153.6C454.943 153.6 454.532 153.709 454.159 153.928C453.791 154.147 453.497 154.44 453.279 154.808C453.06 155.176 452.951 155.587 452.951 156.04V160.432C452.951 160.88 453.06 161.291 453.279 161.664C453.497 162.032 453.791 162.325 454.159 162.544C454.532 162.763 454.943 162.872 455.391 162.872ZM465.406 164.24C464.66 164.24 463.993 164.072 463.406 163.736C462.825 163.395 462.364 162.933 462.022 162.352C461.686 161.765 461.518 161.099 461.518 160.352V156.128C461.518 155.381 461.686 154.715 462.022 154.128C462.364 153.541 462.825 153.08 463.406 152.744C463.993 152.408 464.66 152.24 465.406 152.24C466.153 152.24 466.82 152.408 467.406 152.744C467.993 153.08 468.454 153.541 468.79 154.128C469.126 154.715 469.294 155.381 469.294 156.128V160.352C469.294 161.099 469.126 161.765 468.79 162.352C468.454 162.933 467.993 163.395 467.406 163.736C466.82 164.072 466.153 164.24 465.406 164.24ZM465.406 162.872C465.86 162.872 466.27 162.763 466.638 162.544C467.006 162.325 467.3 162.032 467.518 161.664C467.737 161.291 467.846 160.88 467.846 160.432V156.04C467.846 155.587 467.737 155.176 467.518 154.808C467.3 154.44 467.006 154.147 466.638 153.928C466.27 153.709 465.86 153.6 465.406 153.6C464.958 153.6 464.548 153.709 464.174 153.928C463.806 154.147 463.513 154.44 463.294 154.808C463.076 155.176 462.966 155.587 462.966 156.04V160.432C462.966 160.88 463.076 161.291 463.294 161.664C463.513 162.032 463.806 162.325 464.174 162.544C464.548 162.763 464.958 162.872 465.406 162.872ZM471.374 158.824V157.648H476.174V158.824H471.374ZM480.261 164V154.056L478.093 155.368V153.776L480.261 152.48H481.709V164H480.261ZM488.161 164.24C487.569 164.24 487.017 164.117 486.505 163.872C485.998 163.627 485.563 163.291 485.201 162.864C484.843 162.432 484.587 161.936 484.433 161.376L485.801 161.008C485.897 161.387 486.067 161.715 486.313 161.992C486.558 162.264 486.843 162.477 487.169 162.632C487.499 162.781 487.843 162.856 488.201 162.856C488.67 162.856 489.091 162.744 489.465 162.52C489.843 162.291 490.142 161.989 490.361 161.616C490.579 161.237 490.689 160.824 490.689 160.376C490.689 159.912 490.574 159.493 490.345 159.12C490.121 158.741 489.819 158.443 489.441 158.224C489.062 158.005 488.649 157.896 488.201 157.896C487.694 157.896 487.259 158.003 486.897 158.216C486.539 158.424 486.257 158.68 486.049 158.984L484.785 158.504L485.137 152.48H491.321V153.832H485.825L486.457 153.24L486.161 158.064L485.849 157.656C486.169 157.315 486.55 157.051 486.993 156.864C487.441 156.677 487.897 156.584 488.361 156.584C489.075 156.584 489.715 156.752 490.281 157.088C490.846 157.419 491.294 157.872 491.625 158.448C491.955 159.019 492.121 159.661 492.121 160.376C492.121 161.085 491.939 161.733 491.577 162.32C491.214 162.901 490.731 163.368 490.129 163.72C489.531 164.067 488.875 164.24 488.161 164.24ZM497.922 164.24C497.175 164.24 496.509 164.072 495.922 163.736C495.341 163.395 494.879 162.933 494.538 162.352C494.202 161.765 494.034 161.099 494.034 160.352V156.128C494.034 155.381 494.202 154.715 494.538 154.128C494.879 153.541 495.341 153.08 495.922 152.744C496.509 152.408 497.175 152.24 497.922 152.24C498.669 152.24 499.335 152.408 499.922 152.744C500.509 153.08 500.97 153.541 501.306 154.128C501.642 154.715 501.81 155.381 501.81 156.128V160.352C501.81 161.099 501.642 161.765 501.306 162.352C500.97 162.933 500.509 163.395 499.922 163.736C499.335 164.072 498.669 164.24 497.922 164.24ZM497.922 162.872C498.375 162.872 498.786 162.763 499.154 162.544C499.522 162.325 499.815 162.032 500.034 161.664C500.253 161.291 500.362 160.88 500.362 160.432V156.04C500.362 155.587 500.253 155.176 500.034 154.808C499.815 154.44 499.522 154.147 499.154 153.928C498.786 153.709 498.375 153.6 497.922 153.6C497.474 153.6 497.063 153.709 496.69 153.928C496.322 154.147 496.029 154.44 495.81 154.808C495.591 155.176 495.482 155.587 495.482 156.04V160.432C495.482 160.88 495.591 161.291 495.81 161.664C496.029 162.032 496.322 162.325 496.69 162.544C497.063 162.763 497.474 162.872 497.922 162.872ZM507.938 164.24C507.191 164.24 506.524 164.072 505.938 163.736C505.356 163.395 504.895 162.933 504.554 162.352C504.218 161.765 504.05 161.099 504.05 160.352V156.128C504.05 155.381 504.218 154.715 504.554 154.128C504.895 153.541 505.356 153.08 505.938 152.744C506.524 152.408 507.191 152.24 507.938 152.24C508.684 152.24 509.351 152.408 509.938 152.744C510.524 153.08 510.986 153.541 511.322 154.128C511.658 154.715 511.826 155.381 511.826 156.128V160.352C511.826 161.099 511.658 161.765 511.322 162.352C510.986 162.933 510.524 163.395 509.938 163.736C509.351 164.072 508.684 164.24 507.938 164.24ZM507.938 162.872C508.391 162.872 508.802 162.763 509.17 162.544C509.538 162.325 509.831 162.032 510.05 161.664C510.268 161.291 510.378 160.88 510.378 160.432V156.04C510.378 155.587 510.268 155.176 510.05 154.808C509.831 154.44 509.538 154.147 509.17 153.928C508.802 153.709 508.391 153.6 507.938 153.6C507.49 153.6 507.079 153.709 506.706 153.928C506.338 154.147 506.044 154.44 505.826 154.808C505.607 155.176 505.498 155.587 505.498 156.04V160.432C505.498 160.88 505.607 161.291 505.826 161.664C506.044 162.032 506.338 162.325 506.706 162.544C507.079 162.763 507.49 162.872 507.938 162.872ZM518.033 164.24C517.223 164.24 516.54 164.04 515.985 163.64C515.431 163.235 515.009 162.688 514.721 162C514.439 161.307 514.297 160.531 514.297 159.672C514.297 158.803 514.439 158.024 514.721 157.336C515.009 156.648 515.431 156.107 515.985 155.712C516.545 155.317 517.231 155.12 518.041 155.12C518.841 155.12 519.529 155.32 520.105 155.72C520.687 156.115 521.132 156.656 521.441 157.344C521.751 158.032 521.905 158.808 521.905 159.672C521.905 160.536 521.751 161.312 521.441 162C521.132 162.688 520.687 163.235 520.105 163.64C519.529 164.04 518.839 164.24 518.033 164.24ZM514.057 164V152.48H515.489V157.64H515.329V164H514.057ZM517.857 162.936C518.428 162.936 518.9 162.792 519.273 162.504C519.647 162.216 519.927 161.827 520.113 161.336C520.3 160.84 520.393 160.285 520.393 159.672C520.393 159.064 520.3 158.515 520.113 158.024C519.932 157.533 519.649 157.144 519.265 156.856C518.887 156.568 518.404 156.424 517.817 156.424C517.257 156.424 516.793 156.563 516.425 156.84C516.057 157.112 515.783 157.493 515.601 157.984C515.42 158.469 515.329 159.032 515.329 159.672C515.329 160.301 515.417 160.864 515.593 161.36C515.775 161.851 516.052 162.237 516.425 162.52C516.799 162.797 517.276 162.936 517.857 162.936ZM527.627 164.24C526.816 164.24 526.134 164.04 525.579 163.64C525.024 163.235 524.603 162.688 524.315 162C524.032 161.307 523.891 160.531 523.891 159.672C523.891 158.803 524.032 158.024 524.315 157.336C524.603 156.648 525.024 156.107 525.579 155.712C526.139 155.317 526.824 155.12 527.635 155.12C528.435 155.12 529.123 155.32 529.699 155.72C530.28 156.115 530.726 156.656 531.035 157.344C531.344 158.032 531.499 158.808 531.499 159.672C531.499 160.536 531.344 161.312 531.035 162C530.726 162.688 530.28 163.235 529.699 163.64C529.123 164.04 528.432 164.24 527.627 164.24ZM523.651 167.84V155.36H524.923V161.72H525.083V167.84H523.651ZM527.451 162.936C528.022 162.936 528.494 162.792 528.867 162.504C529.24 162.216 529.52 161.827 529.707 161.336C529.894 160.84 529.987 160.285 529.987 159.672C529.987 159.064 529.894 158.515 529.707 158.024C529.526 157.533 529.243 157.144 528.859 156.856C528.48 156.568 527.998 156.424 527.411 156.424C526.851 156.424 526.387 156.563 526.019 156.84C525.651 157.112 525.376 157.493 525.195 157.984C525.014 158.469 524.923 159.032 524.923 159.672C524.923 160.301 525.011 160.864 525.187 161.36C525.368 161.851 525.646 162.237 526.019 162.52C526.392 162.797 526.87 162.936 527.451 162.936Z" fill="#110529"/>
    <path d="M870 158H536.5" stroke="#110529" stroke-width="2"/>
    <path d="M880 158L880.707 157.293L881.414 158L880.707 158.707L880 158ZM872.707 166.707L872 167.414L870.586 166L871.293 165.293L872.707 166.707ZM871.293 150.707L870.586 150L872 148.586L872.707 149.293L871.293 150.707ZM870 157L880 157L880 159L870 159L870 157ZM880.707 158.707L872.707 166.707L871.293 165.293L879.293 157.293L880.707 158.707ZM879.293 158.707L871.293 150.707L872.707 149.293L880.707 157.293L879.293 158.707Z" fill="#110529"/>
    <g filter="url(#filter0_i_6463_40170)">
        <rect x="96" y="84" width="288" height="52" rx="1" fill="#99E099"/>
        <path d="M238.758 118L233.938 103.6H235.788L239.978 116.11L244.208 103.6H246.058L241.238 118H238.758Z" fill="#110529"/>
        <rect x="96" y="84" width="288" height="52" rx="1" stroke="#110529" stroke-width="2" stroke-linecap="round"/>
    </g>
    <g filter="url(#filter1_i_6463_40170)">
        <rect x="384" y="84" width="30" height="52" rx="1" fill="#CBEB67"/>
    </g>
    <rect x="384" y="84" width="30" height="52" rx="1" stroke="#110529" stroke-width="2" stroke-linecap="round"/>
    <g filter="url(#filter2_i_6463_40170)">
        <rect x="450" y="84" width="30" height="52" rx="1" fill="#FAAAFA"/>
    </g>
    <rect x="450" y="84" width="30" height="52" rx="1" stroke="#110529" stroke-width="2" stroke-linecap="round"/>
    <g filter="url(#filter3_i_6463_40170)">
        <rect x="414" y="84" width="36" height="52" rx="1" fill="#FFCB8F"/>
    </g>
    <rect x="414" y="84" width="36" height="52" rx="1" stroke="#110529" stroke-width="2" stroke-linecap="round"/>
    <path d="M393.447 118V103.6H395.247L402.757 114.85V103.6H404.557V118H402.757L395.247 106.74V118H393.447Z" fill="#110529"/>
    <path d="M459.447 118V103.6H461.247L468.757 114.85V103.6H470.557V118H468.757L461.247 106.74V118H459.447Z" fill="#110529"/>
    <path d="M426.593 118V103.6H431.033C431.18 103.6 431.437 103.603 431.803 103.61C432.17 103.617 432.52 103.643 432.853 103.69C433.967 103.837 434.897 104.243 435.643 104.91C436.397 105.57 436.963 106.41 437.343 107.43C437.723 108.45 437.913 109.573 437.913 110.8C437.913 112.027 437.723 113.15 437.343 114.17C436.963 115.19 436.397 116.033 435.643 116.7C434.897 117.36 433.967 117.763 432.853 117.91C432.52 117.95 432.167 117.977 431.793 117.99C431.427 117.997 431.173 118 431.033 118H426.593ZM428.423 116.3H431.033C431.287 116.3 431.57 116.293 431.883 116.28C432.197 116.26 432.47 116.23 432.703 116.19C433.49 116.043 434.127 115.713 434.613 115.2C435.1 114.687 435.457 114.047 435.683 113.28C435.91 112.513 436.023 111.687 436.023 110.8C436.023 109.893 435.907 109.057 435.673 108.29C435.447 107.523 435.09 106.887 434.603 106.38C434.117 105.873 433.483 105.55 432.703 105.41C432.47 105.363 432.193 105.333 431.873 105.32C431.553 105.307 431.273 105.3 431.033 105.3H428.423V116.3Z" fill="#110529"/>
    <g filter="url(#filter4_i_6463_40170)">
        <rect x="480" y="84" width="120" height="52" rx="1" fill="#C1ADFF"/>
        <path d="M539.244 118.29C538.237 118.29 537.384 118.017 536.684 117.47C535.984 116.923 535.504 116.19 535.244 115.27L537.014 114.85C537.121 115.337 537.377 115.75 537.784 116.09C538.197 116.43 538.671 116.6 539.204 116.6C539.551 116.6 539.904 116.517 540.264 116.35C540.624 116.177 540.901 115.897 541.094 115.51C541.227 115.243 541.304 114.95 541.324 114.63C541.344 114.303 541.354 113.92 541.354 113.48V103.6H543.154V113.48C543.154 113.893 543.151 114.263 543.144 114.59C543.144 114.917 543.111 115.23 543.044 115.53C542.984 115.823 542.864 116.123 542.684 116.43C542.324 117.063 541.841 117.533 541.234 117.84C540.634 118.14 539.971 118.29 539.244 118.29Z" fill="#110529"/>
        <rect x="480" y="84" width="120" height="52" rx="1" stroke="#110529" stroke-width="2" stroke-linecap="round"/>
    </g>
    <g filter="url(#filter5_i_6463_40170)">
        <rect x="600" y="84" width="280" height="52" rx="1" fill="#FAFAAA"/>
        <path d="M740.093 118.3C738.66 118.3 737.443 117.983 736.443 117.35C735.443 116.717 734.68 115.837 734.153 114.71C733.633 113.583 733.373 112.28 733.373 110.8C733.373 109.32 733.633 108.017 734.153 106.89C734.68 105.763 735.443 104.883 736.443 104.25C737.443 103.617 738.66 103.3 740.093 103.3C741.76 103.3 743.13 103.723 744.203 104.57C745.283 105.417 746.027 106.557 746.433 107.99L744.623 108.47C744.33 107.397 743.807 106.55 743.053 105.93C742.3 105.31 741.313 105 740.093 105C739.02 105 738.127 105.243 737.413 105.73C736.7 106.217 736.163 106.897 735.803 107.77C735.443 108.637 735.26 109.647 735.253 110.8C735.247 111.947 735.423 112.957 735.783 113.83C736.143 114.697 736.683 115.377 737.403 115.87C738.123 116.357 739.02 116.6 740.093 116.6C741.313 116.6 742.3 116.29 743.053 115.67C743.807 115.043 744.33 114.197 744.623 113.13L746.433 113.61C746.027 115.037 745.283 116.177 744.203 117.03C743.13 117.877 741.76 118.3 740.093 118.3Z" fill="#110529"/>
        <rect x="600" y="84" width="280" height="52" rx="1" stroke="#110529" stroke-width="2" stroke-linecap="round"/>
    </g>
    <g filter="url(#filter6_i_6463_40170)">
        <rect x="96" y="340" width="288" height="52" rx="1" fill="#99E099"/>
        <path d="M238.758 374L233.938 359.6H235.788L239.978 372.11L244.208 359.6H246.058L241.238 374H238.758Z" fill="#110529"/>
        <rect x="96" y="340" width="288" height="52" rx="1" stroke="#110529" stroke-width="2" stroke-linecap="round"/>
    </g>
    <g filter="url(#filter7_i_6463_40170)">
        <rect x="384" y="340" width="30" height="52" rx="1" fill="#CBEB67"/>
    </g>
    <rect x="384" y="340" width="30" height="52" rx="1" stroke="#110529" stroke-width="2" stroke-linecap="round"/>
    <g filter="url(#filter8_i_6463_40170)">
        <rect x="450" y="340" width="30" height="52" rx="1" fill="#FAAAFA"/>
    </g>
    <rect x="450" y="340" width="30" height="52" rx="1" stroke="#110529" stroke-width="2" stroke-linecap="round"/>
    <g filter="url(#filter9_i_6463_40170)">
        <rect x="414" y="340" width="36" height="52" rx="1" fill="#FFCB8F"/>
    </g>
    <rect x="414" y="340" width="36" height="52" rx="1" stroke="#110529" stroke-width="2" stroke-linecap="round"/>
    <path d="M393.447 374V359.6H395.247L402.757 370.85V359.6H404.557V374H402.757L395.247 362.74V374H393.447Z" fill="#110529"/>
    <path d="M459.447 374V359.6H461.247L468.757 370.85V359.6H470.557V374H468.757L461.247 362.74V374H459.447Z" fill="#110529"/>
    <path d="M426.593 374V359.6H431.033C431.18 359.6 431.437 359.603 431.803 359.61C432.17 359.617 432.52 359.643 432.853 359.69C433.967 359.837 434.897 360.243 435.643 360.91C436.397 361.57 436.963 362.41 437.343 363.43C437.723 364.45 437.913 365.573 437.913 366.8C437.913 368.027 437.723 369.15 437.343 370.17C436.963 371.19 436.397 372.033 435.643 372.7C434.897 373.36 433.967 373.763 432.853 373.91C432.52 373.95 432.167 373.977 431.793 373.99C431.427 373.997 431.173 374 431.033 374H426.593ZM428.423 372.3H431.033C431.287 372.3 431.57 372.293 431.883 372.28C432.197 372.26 432.47 372.23 432.703 372.19C433.49 372.043 434.127 371.713 434.613 371.2C435.1 370.687 435.457 370.047 435.683 369.28C435.91 368.513 436.023 367.687 436.023 366.8C436.023 365.893 435.907 365.057 435.673 364.29C435.447 363.523 435.09 362.887 434.603 362.38C434.117 361.873 433.483 361.55 432.703 361.41C432.47 361.363 432.193 361.333 431.873 361.32C431.553 361.307 431.273 361.3 431.033 361.3H428.423V372.3Z" fill="#110529"/>
    <g filter="url(#filter10_i_6463_40170)">
        <rect x="480" y="340" width="120" height="52" rx="1" fill="#C1ADFF"/>
        <path d="M539.244 374.29C538.237 374.29 537.384 374.017 536.684 373.47C535.984 372.923 535.504 372.19 535.244 371.27L537.014 370.85C537.121 371.337 537.377 371.75 537.784 372.09C538.197 372.43 538.671 372.6 539.204 372.6C539.551 372.6 539.904 372.517 540.264 372.35C540.624 372.177 540.901 371.897 541.094 371.51C541.227 371.243 541.304 370.95 541.324 370.63C541.344 370.303 541.354 369.92 541.354 369.48V359.6H543.154V369.48C543.154 369.893 543.151 370.263 543.144 370.59C543.144 370.917 543.111 371.23 543.044 371.53C542.984 371.823 542.864 372.123 542.684 372.43C542.324 373.063 541.841 373.533 541.234 373.84C540.634 374.14 539.971 374.29 539.244 374.29Z" fill="#110529"/>
        <rect x="480" y="340" width="120" height="52" rx="1" stroke="#110529" stroke-width="2" stroke-linecap="round"/>
    </g>
    <g filter="url(#filter11_i_6463_40170)">
        <rect x="600" y="340" width="280" height="52" rx="1" fill="#FAFAAA"/>
        <path d="M740.093 374.3C738.66 374.3 737.443 373.983 736.443 373.35C735.443 372.717 734.68 371.837 734.153 370.71C733.633 369.583 733.373 368.28 733.373 366.8C733.373 365.32 733.633 364.017 734.153 362.89C734.68 361.763 735.443 360.883 736.443 360.25C737.443 359.617 738.66 359.3 740.093 359.3C741.76 359.3 743.13 359.723 744.203 360.57C745.283 361.417 746.027 362.557 746.433 363.99L744.623 364.47C744.33 363.397 743.807 362.55 743.053 361.93C742.3 361.31 741.313 361 740.093 361C739.02 361 738.127 361.243 737.413 361.73C736.7 362.217 736.163 362.897 735.803 363.77C735.443 364.637 735.26 365.647 735.253 366.8C735.247 367.947 735.423 368.957 735.783 369.83C736.143 370.697 736.683 371.377 737.403 371.87C738.123 372.357 739.02 372.6 740.093 372.6C741.313 372.6 742.3 372.29 743.053 371.67C743.807 371.043 744.33 370.197 744.623 369.13L746.433 369.61C746.027 371.037 745.283 372.177 744.203 373.03C743.13 373.877 741.76 374.3 740.093 374.3Z" fill="#110529"/>
        <rect x="600" y="340" width="280" height="52" rx="1" stroke="#110529" stroke-width="2" stroke-linecap="round"/>
    </g>
    <g filter="url(#filter12_i_6463_40170)">
        <rect x="96" y="240" width="288" height="52" rx="1" fill="#99E099"/>
        <path d="M238.758 274L233.938 259.6H235.788L239.978 272.11L244.208 259.6H246.058L241.238 274H238.758Z" fill="#110529"/>
        <rect x="96" y="240" width="288" height="52" rx="1" stroke="#110529" stroke-width="2" stroke-linecap="round"/>
    </g>
    <g filter="url(#filter13_i_6463_40170)">
        <rect x="384" y="240" width="30" height="52" rx="1" fill="#CBEB67"/>
        <path d="M393.447 274V259.6H395.247L402.757 270.85V259.6H404.557V274H402.757L395.247 262.74V274H393.447Z" fill="#110529"/>
        <rect x="384" y="240" width="30" height="52" rx="1" stroke="#110529" stroke-width="2" stroke-linecap="round"/>
    </g>
    <g filter="url(#filter14_i_6463_40170)">
        <rect x="414" y="240" width="120" height="52" rx="1" fill="#C1ADFF"/>
        <path d="M473.244 274.29C472.237 274.29 471.384 274.017 470.684 273.47C469.984 272.923 469.504 272.19 469.244 271.27L471.014 270.85C471.121 271.337 471.377 271.75 471.784 272.09C472.197 272.43 472.671 272.6 473.204 272.6C473.551 272.6 473.904 272.517 474.264 272.35C474.624 272.177 474.901 271.897 475.094 271.51C475.227 271.243 475.304 270.95 475.324 270.63C475.344 270.303 475.354 269.92 475.354 269.48V259.6H477.154V269.48C477.154 269.893 477.151 270.263 477.144 270.59C477.144 270.917 477.111 271.23 477.044 271.53C476.984 271.823 476.864 272.123 476.684 272.43C476.324 273.063 475.841 273.533 475.234 273.84C474.634 274.14 473.971 274.29 473.244 274.29Z" fill="#110529"/>
        <rect x="414" y="240" width="120" height="52" rx="1" stroke="#110529" stroke-width="2" stroke-linecap="round"/>
    </g>
    <g filter="url(#filter15_i_6463_40170)">
        <rect x="534" y="240" width="280" height="52" rx="1" fill="#FAFAAA"/>
        <path d="M674.093 274.3C672.66 274.3 671.443 273.983 670.443 273.35C669.443 272.717 668.68 271.837 668.153 270.71C667.633 269.583 667.373 268.28 667.373 266.8C667.373 265.32 667.633 264.017 668.153 262.89C668.68 261.763 669.443 260.883 670.443 260.25C671.443 259.617 672.66 259.3 674.093 259.3C675.76 259.3 677.13 259.723 678.203 260.57C679.283 261.417 680.027 262.557 680.433 263.99L678.623 264.47C678.33 263.397 677.807 262.55 677.053 261.93C676.3 261.31 675.313 261 674.093 261C673.02 261 672.127 261.243 671.413 261.73C670.7 262.217 670.163 262.897 669.803 263.77C669.443 264.637 669.26 265.647 669.253 266.8C669.247 267.947 669.423 268.957 669.783 269.83C670.143 270.697 670.683 271.377 671.403 271.87C672.123 272.357 673.02 272.6 674.093 272.6C675.313 272.6 676.3 272.29 677.053 271.67C677.807 271.043 678.33 270.197 678.623 269.13L680.433 269.61C680.027 271.037 679.283 272.177 678.203 273.03C677.13 273.877 675.76 274.3 674.093 274.3Z" fill="#110529"/>
        <rect x="534" y="240" width="280" height="52" rx="1" stroke="#110529" stroke-width="2" stroke-linecap="round"/>
    </g>
    <g filter="url(#filter16_i_6463_40170)">
        <rect x="96" y="440" width="288" height="52" rx="1" fill="#99E099"/>
        <path d="M238.758 474L233.938 459.6H235.788L239.978 472.11L244.208 459.6H246.058L241.238 474H238.758Z" fill="#110529"/>
        <rect x="96" y="440" width="288" height="52" rx="1" stroke="#110529" stroke-width="2" stroke-linecap="round"/>
    </g>
    <g filter="url(#filter17_i_6463_40170)">
        <rect x="384" y="440" width="30" height="52" rx="1" fill="#CBEB67"/>
        <path d="M393.447 474V459.6H395.247L402.757 470.85V459.6H404.557V474H402.757L395.247 462.74V474H393.447Z" fill="#110529"/>
        <rect x="384" y="440" width="30" height="52" rx="1" stroke="#110529" stroke-width="2" stroke-linecap="round"/>
    </g>
    <g filter="url(#filter18_i_6463_40170)">
        <rect x="414" y="440" width="120" height="52" rx="1" fill="#C1ADFF"/>
        <path d="M473.244 474.29C472.237 474.29 471.384 474.017 470.684 473.47C469.984 472.923 469.504 472.19 469.244 471.27L471.014 470.85C471.121 471.337 471.377 471.75 471.784 472.09C472.197 472.43 472.671 472.6 473.204 472.6C473.551 472.6 473.904 472.517 474.264 472.35C474.624 472.177 474.901 471.897 475.094 471.51C475.227 471.243 475.304 470.95 475.324 470.63C475.344 470.303 475.354 469.92 475.354 469.48V459.6H477.154V469.48C477.154 469.893 477.151 470.263 477.144 470.59C477.144 470.917 477.111 471.23 477.044 471.53C476.984 471.823 476.864 472.123 476.684 472.43C476.324 473.063 475.841 473.533 475.234 473.84C474.634 474.14 473.971 474.29 473.244 474.29Z" fill="#110529"/>
        <rect x="414" y="440" width="120" height="52" rx="1" stroke="#110529" stroke-width="2" stroke-linecap="round"/>
    </g>
    <g filter="url(#filter19_i_6463_40170)">
        <rect x="534" y="440" width="280" height="52" rx="1" fill="#FAFAAA"/>
        <path d="M674.093 474.3C672.66 474.3 671.443 473.983 670.443 473.35C669.443 472.717 668.68 471.837 668.153 470.71C667.633 469.583 667.373 468.28 667.373 466.8C667.373 465.32 667.633 464.017 668.153 462.89C668.68 461.763 669.443 460.883 670.443 460.25C671.443 459.617 672.66 459.3 674.093 459.3C675.76 459.3 677.13 459.723 678.203 460.57C679.283 461.417 680.027 462.557 680.433 463.99L678.623 464.47C678.33 463.397 677.807 462.55 677.053 461.93C676.3 461.31 675.313 461 674.093 461C673.02 461 672.127 461.243 671.413 461.73C670.7 462.217 670.163 462.897 669.803 463.77C669.443 464.637 669.26 465.647 669.253 466.8C669.247 467.947 669.423 468.957 669.783 469.83C670.143 470.697 670.683 471.377 671.403 471.87C672.123 472.357 673.02 472.6 674.093 472.6C675.313 472.6 676.3 472.29 677.053 471.67C677.807 471.043 678.33 470.197 678.623 469.13L680.433 469.61C680.027 471.037 679.283 472.177 678.203 473.03C677.13 473.877 675.76 474.3 674.093 474.3Z" fill="#110529"/>
        <rect x="534" y="440" width="280" height="52" rx="1" stroke="#110529" stroke-width="2" stroke-linecap="round"/>
    </g>
    <path d="M96 182L95.2929 182.707L94.5858 182L95.2929 181.293L96 182ZM103.293 173.293L104 172.586L105.414 174L104.707 174.707L103.293 173.293ZM104.707 189.293L105.414 190L104 191.414L103.293 190.707L104.707 189.293ZM106 183L96 183L96 181L106 181L106 183ZM95.2929 181.293L103.293 173.293L104.707 174.707L96.7071 182.707L95.2929 181.293ZM96.7071 181.293L104.707 189.293L103.293 190.707L95.2929 182.707L96.7071 181.293Z" fill="#110529"/>
    <path d="M439.5 182H106" stroke="#110529" stroke-width="2"/>
    <rect width="107" height="20" transform="translate(439.5 172)" fill="white"/>
    <path d="M446.995 188V178.056L444.827 179.368V177.776L446.995 176.48H448.443V188H446.995ZM455.375 188.24C454.629 188.24 453.962 188.072 453.375 187.736C452.794 187.395 452.333 186.933 451.991 186.352C451.655 185.765 451.487 185.099 451.487 184.352V180.128C451.487 179.381 451.655 178.715 451.991 178.128C452.333 177.541 452.794 177.08 453.375 176.744C453.962 176.408 454.629 176.24 455.375 176.24C456.122 176.24 456.789 176.408 457.375 176.744C457.962 177.08 458.423 177.541 458.759 178.128C459.095 178.715 459.263 179.381 459.263 180.128V184.352C459.263 185.099 459.095 185.765 458.759 186.352C458.423 186.933 457.962 187.395 457.375 187.736C456.789 188.072 456.122 188.24 455.375 188.24ZM455.375 186.872C455.829 186.872 456.239 186.763 456.607 186.544C456.975 186.325 457.269 186.032 457.487 185.664C457.706 185.291 457.815 184.88 457.815 184.432V180.04C457.815 179.587 457.706 179.176 457.487 178.808C457.269 178.44 456.975 178.147 456.607 177.928C456.239 177.709 455.829 177.6 455.375 177.6C454.927 177.6 454.517 177.709 454.143 177.928C453.775 178.147 453.482 178.44 453.263 178.808C453.045 179.176 452.935 179.587 452.935 180.04V184.432C452.935 184.88 453.045 185.291 453.263 185.664C453.482 186.032 453.775 186.325 454.143 186.544C454.517 186.763 454.927 186.872 455.375 186.872ZM465.391 188.24C464.644 188.24 463.977 188.072 463.391 187.736C462.809 187.395 462.348 186.933 462.007 186.352C461.671 185.765 461.503 185.099 461.503 184.352V180.128C461.503 179.381 461.671 178.715 462.007 178.128C462.348 177.541 462.809 177.08 463.391 176.744C463.977 176.408 464.644 176.24 465.391 176.24C466.137 176.24 466.804 176.408 467.391 176.744C467.977 177.08 468.439 177.541 468.775 178.128C469.111 178.715 469.279 179.381 469.279 180.128V184.352C469.279 185.099 469.111 185.765 468.775 186.352C468.439 186.933 467.977 187.395 467.391 187.736C466.804 188.072 466.137 188.24 465.391 188.24ZM465.391 186.872C465.844 186.872 466.255 186.763 466.623 186.544C466.991 186.325 467.284 186.032 467.503 185.664C467.721 185.291 467.831 184.88 467.831 184.432V180.04C467.831 179.587 467.721 179.176 467.503 178.808C467.284 178.44 466.991 178.147 466.623 177.928C466.255 177.709 465.844 177.6 465.391 177.6C464.943 177.6 464.532 177.709 464.159 177.928C463.791 178.147 463.497 178.44 463.279 178.808C463.06 179.176 462.951 179.587 462.951 180.04V184.432C462.951 184.88 463.06 185.291 463.279 185.664C463.497 186.032 463.791 186.325 464.159 186.544C464.532 186.763 464.943 186.872 465.391 186.872ZM475.406 188.24C474.66 188.24 473.993 188.072 473.406 187.736C472.825 187.395 472.364 186.933 472.022 186.352C471.686 185.765 471.518 185.099 471.518 184.352V180.128C471.518 179.381 471.686 178.715 472.022 178.128C472.364 177.541 472.825 177.08 473.406 176.744C473.993 176.408 474.66 176.24 475.406 176.24C476.153 176.24 476.82 176.408 477.406 176.744C477.993 177.08 478.454 177.541 478.79 178.128C479.126 178.715 479.294 179.381 479.294 180.128V184.352C479.294 185.099 479.126 185.765 478.79 186.352C478.454 186.933 477.993 187.395 477.406 187.736C476.82 188.072 476.153 188.24 475.406 188.24ZM475.406 186.872C475.86 186.872 476.27 186.763 476.638 186.544C477.006 186.325 477.3 186.032 477.518 185.664C477.737 185.291 477.846 184.88 477.846 184.432V180.04C477.846 179.587 477.737 179.176 477.518 178.808C477.3 178.44 477.006 178.147 476.638 177.928C476.27 177.709 475.86 177.6 475.406 177.6C474.958 177.6 474.548 177.709 474.174 177.928C473.806 178.147 473.513 178.44 473.294 178.808C473.076 179.176 472.966 179.587 472.966 180.04V184.432C472.966 184.88 473.076 185.291 473.294 185.664C473.513 186.032 473.806 186.325 474.174 186.544C474.548 186.763 474.958 186.872 475.406 186.872ZM481.374 182.824V181.648H486.174V182.824H481.374ZM490.261 188V178.056L488.093 179.368V177.776L490.261 176.48H491.709V188H490.261ZM498.161 188.24C497.569 188.24 497.017 188.117 496.505 187.872C495.998 187.627 495.563 187.291 495.201 186.864C494.843 186.432 494.587 185.936 494.433 185.376L495.801 185.008C495.897 185.387 496.067 185.715 496.313 185.992C496.558 186.264 496.843 186.477 497.169 186.632C497.499 186.781 497.843 186.856 498.201 186.856C498.67 186.856 499.091 186.744 499.465 186.52C499.843 186.291 500.142 185.989 500.361 185.616C500.579 185.237 500.689 184.824 500.689 184.376C500.689 183.912 500.574 183.493 500.345 183.12C500.121 182.741 499.819 182.443 499.441 182.224C499.062 182.005 498.649 181.896 498.201 181.896C497.694 181.896 497.259 182.003 496.897 182.216C496.539 182.424 496.257 182.68 496.049 182.984L494.785 182.504L495.137 176.48H501.321V177.832H495.825L496.457 177.24L496.161 182.064L495.849 181.656C496.169 181.315 496.55 181.051 496.993 180.864C497.441 180.677 497.897 180.584 498.361 180.584C499.075 180.584 499.715 180.752 500.281 181.088C500.846 181.419 501.294 181.872 501.625 182.448C501.955 183.019 502.121 183.661 502.121 184.376C502.121 185.085 501.939 185.733 501.577 186.32C501.214 186.901 500.731 187.368 500.129 187.72C499.531 188.067 498.875 188.24 498.161 188.24ZM507.922 188.24C507.175 188.24 506.509 188.072 505.922 187.736C505.341 187.395 504.879 186.933 504.538 186.352C504.202 185.765 504.034 185.099 504.034 184.352V180.128C504.034 179.381 504.202 178.715 504.538 178.128C504.879 177.541 505.341 177.08 505.922 176.744C506.509 176.408 507.175 176.24 507.922 176.24C508.669 176.24 509.335 176.408 509.922 176.744C510.509 177.08 510.97 177.541 511.306 178.128C511.642 178.715 511.81 179.381 511.81 180.128V184.352C511.81 185.099 511.642 185.765 511.306 186.352C510.97 186.933 510.509 187.395 509.922 187.736C509.335 188.072 508.669 188.24 507.922 188.24ZM507.922 186.872C508.375 186.872 508.786 186.763 509.154 186.544C509.522 186.325 509.815 186.032 510.034 185.664C510.253 185.291 510.362 184.88 510.362 184.432V180.04C510.362 179.587 510.253 179.176 510.034 178.808C509.815 178.44 509.522 178.147 509.154 177.928C508.786 177.709 508.375 177.6 507.922 177.6C507.474 177.6 507.063 177.709 506.69 177.928C506.322 178.147 506.029 178.44 505.81 178.808C505.591 179.176 505.482 179.587 505.482 180.04V184.432C505.482 184.88 505.591 185.291 505.81 185.664C506.029 186.032 506.322 186.325 506.69 186.544C507.063 186.763 507.474 186.872 507.922 186.872ZM517.938 188.24C517.191 188.24 516.524 188.072 515.938 187.736C515.356 187.395 514.895 186.933 514.554 186.352C514.218 185.765 514.05 185.099 514.05 184.352V180.128C514.05 179.381 514.218 178.715 514.554 178.128C514.895 177.541 515.356 177.08 515.938 176.744C516.524 176.408 517.191 176.24 517.938 176.24C518.684 176.24 519.351 176.408 519.938 176.744C520.524 177.08 520.986 177.541 521.322 178.128C521.658 178.715 521.826 179.381 521.826 180.128V184.352C521.826 185.099 521.658 185.765 521.322 186.352C520.986 186.933 520.524 187.395 519.938 187.736C519.351 188.072 518.684 188.24 517.938 188.24ZM517.938 186.872C518.391 186.872 518.802 186.763 519.17 186.544C519.538 186.325 519.831 186.032 520.05 185.664C520.268 185.291 520.378 184.88 520.378 184.432V180.04C520.378 179.587 520.268 179.176 520.05 178.808C519.831 178.44 519.538 178.147 519.17 177.928C518.802 177.709 518.391 177.6 517.938 177.6C517.49 177.6 517.079 177.709 516.706 177.928C516.338 178.147 516.044 178.44 515.826 178.808C515.607 179.176 515.498 179.587 515.498 180.04V184.432C515.498 184.88 515.607 185.291 515.826 185.664C516.044 186.032 516.338 186.325 516.706 186.544C517.079 186.763 517.49 186.872 517.938 186.872ZM528.033 188.24C527.223 188.24 526.54 188.04 525.985 187.64C525.431 187.235 525.009 186.688 524.721 186C524.439 185.307 524.297 184.531 524.297 183.672C524.297 182.803 524.439 182.024 524.721 181.336C525.009 180.648 525.431 180.107 525.985 179.712C526.545 179.317 527.231 179.12 528.041 179.12C528.841 179.12 529.529 179.32 530.105 179.72C530.687 180.115 531.132 180.656 531.441 181.344C531.751 182.032 531.905 182.808 531.905 183.672C531.905 184.536 531.751 185.312 531.441 186C531.132 186.688 530.687 187.235 530.105 187.64C529.529 188.04 528.839 188.24 528.033 188.24ZM524.057 188V176.48H525.489V181.64H525.329V188H524.057ZM527.857 186.936C528.428 186.936 528.9 186.792 529.273 186.504C529.647 186.216 529.927 185.827 530.113 185.336C530.3 184.84 530.393 184.285 530.393 183.672C530.393 183.064 530.3 182.515 530.113 182.024C529.932 181.533 529.649 181.144 529.265 180.856C528.887 180.568 528.404 180.424 527.817 180.424C527.257 180.424 526.793 180.563 526.425 180.84C526.057 181.112 525.783 181.493 525.601 181.984C525.42 182.469 525.329 183.032 525.329 183.672C525.329 184.301 525.417 184.864 525.593 185.36C525.775 185.851 526.052 186.237 526.425 186.52C526.799 186.797 527.276 186.936 527.857 186.936ZM537.627 188.24C536.816 188.24 536.134 188.04 535.579 187.64C535.024 187.235 534.603 186.688 534.315 186C534.032 185.307 533.891 184.531 533.891 183.672C533.891 182.803 534.032 182.024 534.315 181.336C534.603 180.648 535.024 180.107 535.579 179.712C536.139 179.317 536.824 179.12 537.635 179.12C538.435 179.12 539.123 179.32 539.699 179.72C540.28 180.115 540.726 180.656 541.035 181.344C541.344 182.032 541.499 182.808 541.499 183.672C541.499 184.536 541.344 185.312 541.035 186C540.726 186.688 540.28 187.235 539.699 187.64C539.123 188.04 538.432 188.24 537.627 188.24ZM533.651 191.84V179.36H534.923V185.72H535.083V191.84H533.651ZM537.451 186.936C538.022 186.936 538.494 186.792 538.867 186.504C539.24 186.216 539.52 185.827 539.707 185.336C539.894 184.84 539.987 184.285 539.987 183.672C539.987 183.064 539.894 182.515 539.707 182.024C539.526 181.533 539.243 181.144 538.859 180.856C538.48 180.568 537.998 180.424 537.411 180.424C536.851 180.424 536.387 180.563 536.019 180.84C535.651 181.112 535.376 181.493 535.195 181.984C535.014 182.469 534.923 183.032 534.923 183.672C534.923 184.301 535.011 184.864 535.187 185.36C535.368 185.851 535.646 186.237 536.019 186.52C536.392 186.797 536.87 186.936 537.451 186.936Z" fill="#110529"/>
    <path d="M880 182H546.5" stroke="#110529" stroke-width="2"/>
    <defs>
        <filter id="filter0_i_6463_40170" x="95" y="83" width="290" height="54" filterUnits="userSpaceOnUse" color-interpolation-filters="sRGB">
            <feFlood flood-opacity="0" result="BackgroundImageFix"/>
            <feBlend mode="normal" in="SourceGraphic" in2="BackgroundImageFix" result="shape"/>
            <feColorMatrix in="SourceAlpha" type="matrix" values="0 0 0 0 0 0 0 0 0 0 0 0 0 0 0 0 0 0 127 0" result="hardAlpha"/>
            <feOffset dx="-8" dy="-4"/>
            <feComposite in2="hardAlpha" operator="arithmetic" k2="-1" k3="1"/>
            <feColorMatrix type="matrix" values="0 0 0 0 0.0666667 0 0 0 0 0.0196078 0 0 0 0 0.160784 0 0 0 0.16 0"/>
            <feBlend mode="normal" in2="shape" result="effect1_innerShadow_6463_40170"/>
        </filter>
        <filter id="filter1_i_6463_40170" x="383" y="83" width="32" height="54" filterUnits="userSpaceOnUse" color-interpolation-filters="sRGB">
            <feFlood flood-opacity="0" result="BackgroundImageFix"/>
            <feBlend mode="normal" in="SourceGraphic" in2="BackgroundImageFix" result="shape"/>
            <feColorMatrix in="SourceAlpha" type="matrix" values="0 0 0 0 0 0 0 0 0 0 0 0 0 0 0 0 0 0 127 0" result="hardAlpha"/>
            <feOffset dx="-8" dy="-4"/>
            <feComposite in2="hardAlpha" operator="arithmetic" k2="-1" k3="1"/>
            <feColorMatrix type="matrix" values="0 0 0 0 0.0666667 0 0 0 0 0.0196078 0 0 0 0 0.160784 0 0 0 0.16 0"/>
            <feBlend mode="normal" in2="shape" result="effect1_innerShadow_6463_40170"/>
        </filter>
        <filter id="filter2_i_6463_40170" x="449" y="83" width="32" height="54" filterUnits="userSpaceOnUse" color-interpolation-filters="sRGB">
            <feFlood flood-opacity="0" result="BackgroundImageFix"/>
            <feBlend mode="normal" in="SourceGraphic" in2="BackgroundImageFix" result="shape"/>
            <feColorMatrix in="SourceAlpha" type="matrix" values="0 0 0 0 0 0 0 0 0 0 0 0 0 0 0 0 0 0 127 0" result="hardAlpha"/>
            <feOffset dx="-8" dy="-4"/>
            <feComposite in2="hardAlpha" operator="arithmetic" k2="-1" k3="1"/>
            <feColorMatrix type="matrix" values="0 0 0 0 0.0666667 0 0 0 0 0.0196078 0 0 0 0 0.160784 0 0 0 0.16 0"/>
            <feBlend mode="normal" in2="shape" result="effect1_innerShadow_6463_40170"/>
        </filter>
        <filter id="filter3_i_6463_40170" x="413" y="83" width="38" height="54" filterUnits="userSpaceOnUse" color-interpolation-filters="sRGB">
            <feFlood flood-opacity="0" result="BackgroundImageFix"/>
            <feBlend mode="normal" in="SourceGraphic" in2="BackgroundImageFix" result="shape"/>
            <feColorMatrix in="SourceAlpha" type="matrix" values="0 0 0 0 0 0 0 0 0 0 0 0 0 0 0 0 0 0 127 0" result="hardAlpha"/>
            <feOffset dx="-8" dy="-4"/>
            <feComposite in2="hardAlpha" operator="arithmetic" k2="-1" k3="1"/>
            <feColorMatrix type="matrix" values="0 0 0 0 0.0666667 0 0 0 0 0.0196078 0 0 0 0 0.160784 0 0 0 0.16 0"/>
            <feBlend mode="normal" in2="shape" result="effect1_innerShadow_6463_40170"/>
        </filter>
        <filter id="filter4_i_6463_40170" x="479" y="83" width="122" height="54" filterUnits="userSpaceOnUse" color-interpolation-filters="sRGB">
            <feFlood flood-opacity="0" result="BackgroundImageFix"/>
            <feBlend mode="normal" in="SourceGraphic" in2="BackgroundImageFix" result="shape"/>
            <feColorMatrix in="SourceAlpha" type="matrix" values="0 0 0 0 0 0 0 0 0 0 0 0 0 0 0 0 0 0 127 0" result="hardAlpha"/>
            <feOffset dx="-8" dy="-4"/>
            <feComposite in2="hardAlpha" operator="arithmetic" k2="-1" k3="1"/>
            <feColorMatrix type="matrix" values="0 0 0 0 0.0666667 0 0 0 0 0.0196078 0 0 0 0 0.160784 0 0 0 0.16 0"/>
            <feBlend mode="normal" in2="shape" result="effect1_innerShadow_6463_40170"/>
        </filter>
        <filter id="filter5_i_6463_40170" x="599" y="83" width="282" height="54" filterUnits="userSpaceOnUse" color-interpolation-filters="sRGB">
            <feFlood flood-opacity="0" result="BackgroundImageFix"/>
            <feBlend mode="normal" in="SourceGraphic" in2="BackgroundImageFix" result="shape"/>
            <feColorMatrix in="SourceAlpha" type="matrix" values="0 0 0 0 0 0 0 0 0 0 0 0 0 0 0 0 0 0 127 0" result="hardAlpha"/>
            <feOffset dx="-8" dy="-4"/>
            <feComposite in2="hardAlpha" operator="arithmetic" k2="-1" k3="1"/>
            <feColorMatrix type="matrix" values="0 0 0 0 0.0666667 0 0 0 0 0.0196078 0 0 0 0 0.160784 0 0 0 0.16 0"/>
            <feBlend mode="normal" in2="shape" result="effect1_innerShadow_6463_40170"/>
        </filter>
        <filter id="filter6_i_6463_40170" x="95" y="339" width="290" height="54" filterUnits="userSpaceOnUse" color-interpolation-filters="sRGB">
            <feFlood flood-opacity="0" result="BackgroundImageFix"/>
            <feBlend mode="normal" in="SourceGraphic" in2="BackgroundImageFix" result="shape"/>
            <feColorMatrix in="SourceAlpha" type="matrix" values="0 0 0 0 0 0 0 0 0 0 0 0 0 0 0 0 0 0 127 0" result="hardAlpha"/>
            <feOffset dx="-8" dy="-4"/>
            <feComposite in2="hardAlpha" operator="arithmetic" k2="-1" k3="1"/>
            <feColorMatrix type="matrix" values="0 0 0 0 0.0666667 0 0 0 0 0.0196078 0 0 0 0 0.160784 0 0 0 0.16 0"/>
            <feBlend mode="normal" in2="shape" result="effect1_innerShadow_6463_40170"/>
        </filter>
        <filter id="filter7_i_6463_40170" x="383" y="339" width="32" height="54" filterUnits="userSpaceOnUse" color-interpolation-filters="sRGB">
            <feFlood flood-opacity="0" result="BackgroundImageFix"/>
            <feBlend mode="normal" in="SourceGraphic" in2="BackgroundImageFix" result="shape"/>
            <feColorMatrix in="SourceAlpha" type="matrix" values="0 0 0 0 0 0 0 0 0 0 0 0 0 0 0 0 0 0 127 0" result="hardAlpha"/>
            <feOffset dx="-8" dy="-4"/>
            <feComposite in2="hardAlpha" operator="arithmetic" k2="-1" k3="1"/>
            <feColorMatrix type="matrix" values="0 0 0 0 0.0666667 0 0 0 0 0.0196078 0 0 0 0 0.160784 0 0 0 0.16 0"/>
            <feBlend mode="normal" in2="shape" result="effect1_innerShadow_6463_40170"/>
        </filter>
        <filter id="filter8_i_6463_40170" x="449" y="339" width="32" height="54" filterUnits="userSpaceOnUse" color-interpolation-filters="sRGB">
            <feFlood flood-opacity="0" result="BackgroundImageFix"/>
            <feBlend mode="normal" in="SourceGraphic" in2="BackgroundImageFix" result="shape"/>
            <feColorMatrix in="SourceAlpha" type="matrix" values="0 0 0 0 0 0 0 0 0 0 0 0 0 0 0 0 0 0 127 0" result="hardAlpha"/>
            <feOffset dx="-8" dy="-4"/>
            <feComposite in2="hardAlpha" operator="arithmetic" k2="-1" k3="1"/>
            <feColorMatrix type="matrix" values="0 0 0 0 0.0666667 0 0 0 0 0.0196078 0 0 0 0 0.160784 0 0 0 0.16 0"/>
            <feBlend mode="normal" in2="shape" result="effect1_innerShadow_6463_40170"/>
        </filter>
        <filter id="filter9_i_6463_40170" x="413" y="339" width="38" height="54" filterUnits="userSpaceOnUse" color-interpolation-filters="sRGB">
            <feFlood flood-opacity="0" result="BackgroundImageFix"/>
            <feBlend mode="normal" in="SourceGraphic" in2="BackgroundImageFix" result="shape"/>
            <feColorMatrix in="SourceAlpha" type="matrix" values="0 0 0 0 0 0 0 0 0 0 0 0 0 0 0 0 0 0 127 0" result="hardAlpha"/>
            <feOffset dx="-8" dy="-4"/>
            <feComposite in2="hardAlpha" operator="arithmetic" k2="-1" k3="1"/>
            <feColorMatrix type="matrix" values="0 0 0 0 0.0666667 0 0 0 0 0.0196078 0 0 0 0 0.160784 0 0 0 0.16 0"/>
            <feBlend mode="normal" in2="shape" result="effect1_innerShadow_6463_40170"/>
        </filter>
        <filter id="filter10_i_6463_40170" x="479" y="339" width="122" height="54" filterUnits="userSpaceOnUse" color-interpolation-filters="sRGB">
            <feFlood flood-opacity="0" result="BackgroundImageFix"/>
            <feBlend mode="normal" in="SourceGraphic" in2="BackgroundImageFix" result="shape"/>
            <feColorMatrix in="SourceAlpha" type="matrix" values="0 0 0 0 0 0 0 0 0 0 0 0 0 0 0 0 0 0 127 0" result="hardAlpha"/>
            <feOffset dx="-8" dy="-4"/>
            <feComposite in2="hardAlpha" operator="arithmetic" k2="-1" k3="1"/>
            <feColorMatrix type="matrix" values="0 0 0 0 0.0666667 0 0 0 0 0.0196078 0 0 0 0 0.160784 0 0 0 0.16 0"/>
            <feBlend mode="normal" in2="shape" result="effect1_innerShadow_6463_40170"/>
        </filter>
        <filter id="filter11_i_6463_40170" x="599" y="339" width="282" height="54" filterUnits="userSpaceOnUse" color-interpolation-filters="sRGB">
            <feFlood flood-opacity="0" result="BackgroundImageFix"/>
            <feBlend mode="normal" in="SourceGraphic" in2="BackgroundImageFix" result="shape"/>
            <feColorMatrix in="SourceAlpha" type="matrix" values="0 0 0 0 0 0 0 0 0 0 0 0 0 0 0 0 0 0 127 0" result="hardAlpha"/>
            <feOffset dx="-8" dy="-4"/>
            <feComposite in2="hardAlpha" operator="arithmetic" k2="-1" k3="1"/>
            <feColorMatrix type="matrix" values="0 0 0 0 0.0666667 0 0 0 0 0.0196078 0 0 0 0 0.160784 0 0 0 0.16 0"/>
            <feBlend mode="normal" in2="shape" result="effect1_innerShadow_6463_40170"/>
        </filter>
        <filter id="filter12_i_6463_40170" x="95" y="239" width="290" height="54" filterUnits="userSpaceOnUse" color-interpolation-filters="sRGB">
            <feFlood flood-opacity="0" result="BackgroundImageFix"/>
            <feBlend mode="normal" in="SourceGraphic" in2="BackgroundImageFix" result="shape"/>
            <feColorMatrix in="SourceAlpha" type="matrix" values="0 0 0 0 0 0 0 0 0 0 0 0 0 0 0 0 0 0 127 0" result="hardAlpha"/>
            <feOffset dx="-8" dy="-4"/>
            <feComposite in2="hardAlpha" operator="arithmetic" k2="-1" k3="1"/>
            <feColorMatrix type="matrix" values="0 0 0 0 0.0666667 0 0 0 0 0.0196078 0 0 0 0 0.160784 0 0 0 0.16 0"/>
            <feBlend mode="normal" in2="shape" result="effect1_innerShadow_6463_40170"/>
        </filter>
        <filter id="filter13_i_6463_40170" x="383" y="239" width="32" height="54" filterUnits="userSpaceOnUse" color-interpolation-filters="sRGB">
            <feFlood flood-opacity="0" result="BackgroundImageFix"/>
            <feBlend mode="normal" in="SourceGraphic" in2="BackgroundImageFix" result="shape"/>
            <feColorMatrix in="SourceAlpha" type="matrix" values="0 0 0 0 0 0 0 0 0 0 0 0 0 0 0 0 0 0 127 0" result="hardAlpha"/>
            <feOffset dx="-8" dy="-4"/>
            <feComposite in2="hardAlpha" operator="arithmetic" k2="-1" k3="1"/>
            <feColorMatrix type="matrix" values="0 0 0 0 0.0666667 0 0 0 0 0.0196078 0 0 0 0 0.160784 0 0 0 0.16 0"/>
            <feBlend mode="normal" in2="shape" result="effect1_innerShadow_6463_40170"/>
        </filter>
        <filter id="filter14_i_6463_40170" x="413" y="239" width="122" height="54" filterUnits="userSpaceOnUse" color-interpolation-filters="sRGB">
            <feFlood flood-opacity="0" result="BackgroundImageFix"/>
            <feBlend mode="normal" in="SourceGraphic" in2="BackgroundImageFix" result="shape"/>
            <feColorMatrix in="SourceAlpha" type="matrix" values="0 0 0 0 0 0 0 0 0 0 0 0 0 0 0 0 0 0 127 0" result="hardAlpha"/>
            <feOffset dx="-8" dy="-4"/>
            <feComposite in2="hardAlpha" operator="arithmetic" k2="-1" k3="1"/>
            <feColorMatrix type="matrix" values="0 0 0 0 0.0666667 0 0 0 0 0.0196078 0 0 0 0 0.160784 0 0 0 0.16 0"/>
            <feBlend mode="normal" in2="shape" result="effect1_innerShadow_6463_40170"/>
        </filter>
        <filter id="filter15_i_6463_40170" x="533" y="239" width="282" height="54" filterUnits="userSpaceOnUse" color-interpolation-filters="sRGB">
            <feFlood flood-opacity="0" result="BackgroundImageFix"/>
            <feBlend mode="normal" in="SourceGraphic" in2="BackgroundImageFix" result="shape"/>
            <feColorMatrix in="SourceAlpha" type="matrix" values="0 0 0 0 0 0 0 0 0 0 0 0 0 0 0 0 0 0 127 0" result="hardAlpha"/>
            <feOffset dx="-8" dy="-4"/>
            <feComposite in2="hardAlpha" operator="arithmetic" k2="-1" k3="1"/>
            <feColorMatrix type="matrix" values="0 0 0 0 0.0666667 0 0 0 0 0.0196078 0 0 0 0 0.160784 0 0 0 0.16 0"/>
            <feBlend mode="normal" in2="shape" result="effect1_innerShadow_6463_40170"/>
        </filter>
        <filter id="filter16_i_6463_40170" x="95" y="439" width="290" height="54" filterUnits="userSpaceOnUse" color-interpolation-filters="sRGB">
            <feFlood flood-opacity="0" result="BackgroundImageFix"/>
            <feBlend mode="normal" in="SourceGraphic" in2="BackgroundImageFix" result="shape"/>
            <feColorMatrix in="SourceAlpha" type="matrix" values="0 0 0 0 0 0 0 0 0 0 0 0 0 0 0 0 0 0 127 0" result="hardAlpha"/>
            <feOffset dx="-8" dy="-4"/>
            <feComposite in2="hardAlpha" operator="arithmetic" k2="-1" k3="1"/>
            <feColorMatrix type="matrix" values="0 0 0 0 0.0666667 0 0 0 0 0.0196078 0 0 0 0 0.160784 0 0 0 0.16 0"/>
            <feBlend mode="normal" in2="shape" result="effect1_innerShadow_6463_40170"/>
        </filter>
        <filter id="filter17_i_6463_40170" x="383" y="439" width="32" height="54" filterUnits="userSpaceOnUse" color-interpolation-filters="sRGB">
            <feFlood flood-opacity="0" result="BackgroundImageFix"/>
            <feBlend mode="normal" in="SourceGraphic" in2="BackgroundImageFix" result="shape"/>
            <feColorMatrix in="SourceAlpha" type="matrix" values="0 0 0 0 0 0 0 0 0 0 0 0 0 0 0 0 0 0 127 0" result="hardAlpha"/>
            <feOffset dx="-8" dy="-4"/>
            <feComposite in2="hardAlpha" operator="arithmetic" k2="-1" k3="1"/>
            <feColorMatrix type="matrix" values="0 0 0 0 0.0666667 0 0 0 0 0.0196078 0 0 0 0 0.160784 0 0 0 0.16 0"/>
            <feBlend mode="normal" in2="shape" result="effect1_innerShadow_6463_40170"/>
        </filter>
        <filter id="filter18_i_6463_40170" x="413" y="439" width="122" height="54" filterUnits="userSpaceOnUse" color-interpolation-filters="sRGB">
            <feFlood flood-opacity="0" result="BackgroundImageFix"/>
            <feBlend mode="normal" in="SourceGraphic" in2="BackgroundImageFix" result="shape"/>
            <feColorMatrix in="SourceAlpha" type="matrix" values="0 0 0 0 0 0 0 0 0 0 0 0 0 0 0 0 0 0 127 0" result="hardAlpha"/>
            <feOffset dx="-8" dy="-4"/>
            <feComposite in2="hardAlpha" operator="arithmetic" k2="-1" k3="1"/>
            <feColorMatrix type="matrix" values="0 0 0 0 0.0666667 0 0 0 0 0.0196078 0 0 0 0 0.160784 0 0 0 0.16 0"/>
            <feBlend mode="normal" in2="shape" result="effect1_innerShadow_6463_40170"/>
        </filter>
        <filter id="filter19_i_6463_40170" x="533" y="439" width="282" height="54" filterUnits="userSpaceOnUse" color-interpolation-filters="sRGB">
            <feFlood flood-opacity="0" result="BackgroundImageFix"/>
            <feBlend mode="normal" in="SourceGraphic" in2="BackgroundImageFix" result="shape"/>
            <feColorMatrix in="SourceAlpha" type="matrix" values="0 0 0 0 0 0 0 0 0 0 0 0 0 0 0 0 0 0 127 0" result="hardAlpha"/>
            <feOffset dx="-8" dy="-4"/>
            <feComposite in2="hardAlpha" operator="arithmetic" k2="-1" k3="1"/>
            <feColorMatrix type="matrix" values="0 0 0 0 0.0666667 0 0 0 0 0.0196078 0 0 0 0 0.160784 0 0 0 0.16 0"/>
            <feBlend mode="normal" in2="shape" result="effect1_innerShadow_6463_40170"/>
        </filter>
    </defs>
</svg>
