<svg width="960" height="404" viewBox="0 0 960 404" fill="none" xmlns="http://www.w3.org/2000/svg">
    <rect width="960" height="404" fill="#1D1D29"/>
    <g filter="url(#filter0_i_5913_39612)">
        <rect x="96" y="268" width="64" height="52" rx="1" fill="#D6E0FF"/>
        <path d="M117.053 302.3C120.393 302.3 122.733 300.1 122.733 296.75V287.6H120.933V296.6C120.933 299.31 118.893 300.62 117.053 300.62C115.233 300.62 113.173 299.33 113.173 296.6V287.6L111.373 287.61V296.75C111.373 300.11 113.713 302.3 117.053 302.3ZM125.533 302H127.223V291.51L132.113 302H133.063L137.953 291.51V301.99H139.643V287.6H138.003L132.593 299.07L127.153 287.6H125.533V302ZM142.647 302H144.427V287.6H142.647V302Z" fill="#110529"/>
        <rect x="96" y="268" width="64" height="52" rx="1" stroke="#110529" stroke-width="2" stroke-linecap="round"/>
    </g>
    <g filter="url(#filter1_i_5913_39612)">
        <rect x="160" y="268" width="52" height="52" rx="1" fill="#D3D7E0"/>
        <path d="M178.815 302H180.595V289.29H185.505V287.6H173.905V289.29H178.815V302ZM192.207 302.3C195.197 302.3 197.597 300.77 197.597 297.98C197.597 295.21 195.227 294.5 193.977 294.15L191.237 293.36C190.167 293.06 188.837 292.6 188.837 291.27C188.837 289.94 190.207 288.98 191.977 289C193.807 289.02 195.317 290.1 195.617 291.85L197.507 291.52C196.977 288.9 194.897 287.33 191.997 287.31C189.127 287.3 186.957 288.8 186.957 291.35C186.957 293.48 188.477 294.41 190.077 294.88L193.747 295.97C194.777 296.28 195.757 296.82 195.757 298.08C195.757 299.65 194.227 300.61 192.297 300.61C190.287 300.61 188.697 299.54 188.237 297.72L186.397 298.01C186.877 300.66 189.147 302.3 192.207 302.3Z" fill="#110529"/>
        <rect x="160" y="268" width="52" height="52" rx="1" stroke="#110529" stroke-width="2" stroke-linecap="round"/>
    </g>
    <g filter="url(#filter2_i_5913_39612)">
        <rect x="212" y="268" width="350" height="52" rx="1" fill="#99E099"/>
        <path d="M385.758 302H388.238L393.058 287.6H391.208L386.978 300.11L382.788 287.6H380.938L385.758 302Z" fill="#110529"/>
        <rect x="212" y="268" width="350" height="52" rx="1" stroke="#110529" stroke-width="2" stroke-linecap="round"/>
    </g>
    <g filter="url(#filter3_i_5913_39612)">
        <rect x="562" y="268" width="30" height="52" rx="1" fill="#CBEB67"/>
    </g>
    <rect x="562" y="268" width="30" height="52" rx="1" stroke="#110529" stroke-width="2" stroke-linecap="round"/>
    <path d="M571.447 302V287.6H573.247L580.757 298.85V287.6H582.557V302H580.757L573.247 290.74V302H571.447Z" fill="#110529"/>
    <g filter="url(#filter4_i_5913_39612)">
        <path d="M688 269.6C688 269.04 688 268.76 687.891 268.546C687.795 268.358 687.642 268.205 687.454 268.109C687.24 268 686.96 268 686.4 268H593.6C593.04 268 592.76 268 592.546 268.109C592.358 268.205 592.205 268.358 592.109 268.546C592 268.76 592 269.04 592 269.6V294V318.4C592 318.96 592 319.24 592.109 319.454C592.205 319.642 592.358 319.795 592.546 319.891C592.76 320 593.04 320 593.6 320H686.4C686.96 320 687.24 320 687.454 319.891C687.642 319.795 687.795 319.642 687.891 319.454C688 319.24 688 318.96 688 318.4V313.5V307V300V294V287.5V281V274.5V269.6Z" fill="#C1ADFF"/>
    </g>
    <path d="M688 269.6C688 269.04 688 268.76 687.891 268.546C687.795 268.358 687.642 268.205 687.454 268.109C687.24 268 686.96 268 686.4 268H593.6C593.04 268 592.76 268 592.546 268.109C592.358 268.205 592.205 268.358 592.109 268.546C592 268.76 592 269.04 592 269.6V294V318.4C592 318.96 592 319.24 592.109 319.454C592.205 319.642 592.358 319.795 592.546 319.891C592.76 320 593.04 320 593.6 320H686.4C686.96 320 687.24 320 687.454 319.891C687.642 319.795 687.795 319.642 687.891 319.454C688 319.24 688 318.96 688 318.4V313.5V307V300V294V287.5V281V274.5V269.6Z" stroke="#110529" stroke-width="2" stroke-linecap="round"/>
    <path d="M637.227 302.29C636.221 302.29 635.367 302.017 634.667 301.47C633.967 300.923 633.487 300.19 633.227 299.27L634.997 298.85C635.104 299.337 635.361 299.75 635.767 300.09C636.181 300.43 636.654 300.6 637.187 300.6C637.534 300.6 637.887 300.517 638.247 300.35C638.607 300.177 638.884 299.897 639.077 299.51C639.211 299.243 639.287 298.95 639.307 298.63C639.327 298.303 639.337 297.92 639.337 297.48V287.6H641.137V297.48C641.137 297.893 641.134 298.263 641.127 298.59C641.127 298.917 641.094 299.23 641.027 299.53C640.967 299.823 640.847 300.123 640.667 300.43C640.307 301.063 639.824 301.533 639.217 301.84C638.617 302.14 637.954 302.29 637.227 302.29Z" fill="#110529"/>
    <g filter="url(#filter5_i_5913_39612)">
        <rect x="688" y="268" width="144" height="52" rx="1" fill="#FAFAAA"/>
        <path d="M759.593 302.3C758.16 302.3 756.943 301.983 755.943 301.35C754.943 300.717 754.18 299.837 753.653 298.71C753.133 297.583 752.873 296.28 752.873 294.8C752.873 293.32 753.133 292.017 753.653 290.89C754.18 289.763 754.943 288.883 755.943 288.25C756.943 287.617 758.16 287.3 759.593 287.3C761.26 287.3 762.63 287.723 763.703 288.57C764.783 289.417 765.527 290.557 765.933 291.99L764.123 292.47C763.83 291.397 763.307 290.55 762.553 289.93C761.8 289.31 760.813 289 759.593 289C758.52 289 757.627 289.243 756.913 289.73C756.2 290.217 755.663 290.897 755.303 291.77C754.943 292.637 754.76 293.647 754.753 294.8C754.747 295.947 754.923 296.957 755.283 297.83C755.643 298.697 756.183 299.377 756.903 299.87C757.623 300.357 758.52 300.6 759.593 300.6C760.813 300.6 761.8 300.29 762.553 299.67C763.307 299.043 763.83 298.197 764.123 297.13L765.933 297.61C765.527 299.037 764.783 300.177 763.703 301.03C762.63 301.877 761.26 302.3 759.593 302.3Z" fill="#110529"/>
        <rect x="688" y="268" width="144" height="52" rx="1" stroke="#110529" stroke-width="2" stroke-linecap="round"/>
    </g>
    <path d="M19.3014 292H21.0814V279.29H25.9914V277.6H14.3914V279.29H19.3014V292ZM33.5036 292.3C36.8336 292.3 39.0236 290.47 39.8436 287.61L38.0336 287.13C37.4436 289.27 35.9336 290.6 33.5036 290.6C30.2836 290.6 28.6436 288.25 28.6636 284.8C28.6836 281.35 30.2836 279 33.5036 279C35.9336 279 37.4436 280.33 38.0336 282.47L39.8436 281.99C39.0236 279.13 36.8336 277.3 33.5036 277.3C29.1936 277.3 26.7836 280.36 26.7836 284.8C26.7836 289.24 29.1936 292.3 33.5036 292.3ZM42.0367 292H43.8167V286.68H48.0267L50.6067 292H52.6467L49.8667 286.29C51.4967 285.61 52.3467 284.04 52.3467 282.14C52.3467 279.85 51.1167 278.04 48.7867 277.68C48.4167 277.62 48.0067 277.6 47.7267 277.6H42.0367V292ZM43.8167 284.99V279.29H47.6667C47.9167 279.29 48.2667 279.31 48.5667 279.38C49.9467 279.69 50.5267 280.94 50.5267 282.14C50.5267 283.34 49.9467 284.59 48.5667 284.9C48.2667 284.97 47.9167 284.99 47.6667 284.99H43.8167ZM63.1231 292.3C64.7631 292.3 66.0731 291.54 66.7731 290.24V292H68.3631V281.2H66.7731V282.93C66.0831 281.65 64.8231 280.9 63.1731 280.9C60.0731 280.9 58.2531 283.35 58.2531 286.6C58.2531 289.83 60.0631 292.3 63.1231 292.3ZM60.1431 286.6C60.1431 284.19 61.2531 282.53 63.3631 282.53C65.4731 282.53 66.4731 284.2 66.4731 286.59C66.4731 288.96 65.4831 290.67 63.3431 290.67C61.1731 290.67 60.1431 288.88 60.1431 286.6ZM78.8017 277.6L74.9617 292H76.7717L80.6117 277.6H78.8017ZM26.2448 312H28.0248V299.29H32.9348V297.6H21.3348V299.29H26.2448V312ZM40.447 312.3C43.777 312.3 45.967 310.47 46.787 307.61L44.977 307.13C44.387 309.27 42.877 310.6 40.447 310.6C37.227 310.6 35.587 308.25 35.607 304.8C35.627 301.35 37.227 299 40.447 299C42.877 299 44.387 300.33 44.977 302.47L46.787 301.99C45.967 299.13 43.777 297.3 40.447 297.3C36.137 297.3 33.727 300.36 33.727 304.8C33.727 309.24 36.137 312.3 40.447 312.3ZM48.9801 312H50.7601V306.68H54.9701L57.5501 312H59.5901L56.8101 306.29C58.4401 305.61 59.2901 304.04 59.2901 302.14C59.2901 299.85 58.0601 298.04 55.7301 297.68C55.3601 297.62 54.9501 297.6 54.6701 297.6H48.9801V312ZM50.7601 304.99V299.29H54.6101C54.8601 299.29 55.2101 299.31 55.5101 299.38C56.8901 299.69 57.4701 300.94 57.4701 302.14C57.4701 303.34 56.8901 304.59 55.5101 304.9C55.2101 304.97 54.8601 304.99 54.6101 304.99H50.7601ZM68.7165 315.6H70.5365V312L74.4565 301.2H72.6565L69.6265 309.73L66.6065 301.2H64.7965L68.7165 312V315.6Z" fill="white"/>
    <path d="M19.6627 132H21.4427V119.29H26.3527V117.6H14.7527V119.29H19.6627V132ZM33.8649 132.3C37.1949 132.3 39.3849 130.47 40.2049 127.61L38.3949 127.13C37.8049 129.27 36.2949 130.6 33.8649 130.6C30.6449 130.6 29.0049 128.25 29.0249 124.8C29.0449 121.35 30.6449 119 33.8649 119C36.2949 119 37.8049 120.33 38.3949 122.47L40.2049 121.99C39.3849 119.13 37.1949 117.3 33.8649 117.3C29.5549 117.3 27.1449 120.36 27.1449 124.8C27.1449 129.24 29.5549 132.3 33.8649 132.3ZM42.398 132H44.178V126.68H48.388L50.968 132H53.008L50.228 126.29C51.858 125.61 52.708 124.04 52.708 122.14C52.708 119.85 51.478 118.04 49.148 117.68C48.778 117.62 48.368 117.6 48.088 117.6H42.398V132ZM44.178 124.99V119.29H48.028C48.278 119.29 48.628 119.31 48.928 119.38C50.308 119.69 50.888 120.94 50.888 122.14C50.888 123.34 50.308 124.59 48.928 124.9C48.628 124.97 48.278 124.99 48.028 124.99H44.178ZM59.2045 121.2V136.8H60.9845V131.39C61.6945 131.96 62.6845 132.3 63.9145 132.3C66.9645 132.3 68.8145 130.57 68.8145 127.95C68.8145 125.74 67.4145 124.44 66.0245 124.09C67.0745 123.58 67.5845 122.5 67.5845 121.22C67.5845 118.84 65.8345 117.3 63.3445 117.3C61.4845 117.3 59.9545 118.16 59.4245 119.78C59.2745 120.23 59.2045 120.71 59.2045 121.2ZM61.0245 127.71V121.86C61.0245 121.44 61.0445 120.8 61.2545 120.28C61.6145 119.35 62.4945 118.99 63.3845 118.99C64.7645 118.99 65.7645 119.82 65.7645 121.24C65.7645 122.67 64.7645 123.4 63.3945 123.54V125.14C65.5845 125.18 67.0045 126.1 67.0045 127.87C67.0045 129.52 65.7645 130.61 63.9945 130.61C62.7445 130.61 61.5045 130.04 61.1745 129.01C61.0545 128.64 61.0245 128.1 61.0245 127.71ZM78.4404 117.6L74.6004 132H76.4104L80.2504 117.6H78.4404ZM25.4733 152H27.2533V139.29H32.1633V137.6H20.5633V139.29H25.4733V152ZM39.6755 152.3C43.0055 152.3 45.1955 150.47 46.0155 147.61L44.2055 147.13C43.6155 149.27 42.1055 150.6 39.6755 150.6C36.4555 150.6 34.8155 148.25 34.8355 144.8C34.8555 141.35 36.4555 139 39.6755 139C42.1055 139 43.6155 140.33 44.2055 142.47L46.0155 141.99C45.1955 139.13 43.0055 137.3 39.6755 137.3C35.3655 137.3 32.9555 140.36 32.9555 144.8C32.9555 149.24 35.3655 152.3 39.6755 152.3ZM48.2086 152H49.9886V146.68H54.1986L56.7786 152H58.8186L56.0386 146.29C57.6686 145.61 58.5186 144.04 58.5186 142.14C58.5186 139.85 57.2886 138.04 54.9586 137.68C54.5886 137.62 54.1786 137.6 53.8986 137.6H48.2086V152ZM49.9886 144.99V139.29H53.8386C54.0886 139.29 54.4386 139.31 54.7386 139.38C56.1186 139.69 56.6986 140.94 56.6986 142.14C56.6986 143.34 56.1186 144.59 54.7386 144.9C54.4386 144.97 54.0886 144.99 53.8386 144.99H49.9886ZM69.595 152.29C72.845 152.29 74.835 150.14 74.835 147.03C74.835 144.57 73.585 142.7 71.435 142.05C69.385 141.33 67.755 140.92 67.755 139.87C67.755 139.33 68.145 139.01 68.695 138.87C68.985 138.8 69.325 138.78 69.735 138.78H72.895V137.3H69.335C68.885 137.3 68.515 137.3 68.115 137.38C66.535 137.64 65.985 138.76 65.985 139.8C65.985 141.11 66.865 141.88 67.975 142.39C65.725 142.77 64.425 144.69 64.425 147.17C64.425 150.24 66.405 152.29 69.595 152.29ZM66.445 147.03C66.445 144.88 67.495 143.47 69.635 143.47C71.735 143.47 72.825 144.83 72.825 147.01C72.825 149.18 71.755 150.6 69.635 150.6C67.555 150.6 66.445 149.25 66.445 147.03Z" fill="white"/>
    <path d="M810 112V24" stroke="white" stroke-opacity="0.3" stroke-width="2" stroke-linecap="square" stroke-dasharray="6 6"/>
    <path d="M898 112V24" stroke="white" stroke-opacity="0.3" stroke-width="2" stroke-linecap="square" stroke-dasharray="6 6"/>
    <path d="M754 112V24" stroke="white" stroke-opacity="0.3" stroke-width="2" stroke-linecap="square" stroke-dasharray="6 6"/>
    <path d="M700.593 37H702.056V32.695H705.724V31.225H702.056V28.383H706.564V26.92H700.593V37ZM707.826 37H709.289V33.381H711.963L713.72 37H715.393L713.489 33.094C714.63 32.597 715.204 31.491 715.204 30.147C715.204 28.516 714.364 27.235 712.677 26.976C712.411 26.934 712.096 26.92 711.9 26.92H707.826V37ZM709.289 31.995V28.299H711.844C712.026 28.299 712.271 28.313 712.481 28.369C713.377 28.579 713.713 29.405 713.713 30.147C713.713 30.889 713.377 31.715 712.481 31.932C712.271 31.981 712.026 31.995 711.844 31.995H709.289ZM721.201 37H722.685V35.243H723.686V33.857H722.685V31.127H721.201V33.857H718.324L721.6 26.92H719.927L716.651 33.857V35.243H721.201V37Z" fill="white" fill-opacity="0.3"/>
    <path d="M670 112V24" stroke="white" stroke-opacity="0.3" stroke-width="2" stroke-linecap="square" stroke-dasharray="6 6"/>
    <path d="M596.682 37.21C599.006 37.21 600.567 35.943 601.162 33.955L599.678 33.556C599.279 34.963 598.278 35.817 596.682 35.817C594.54 35.817 593.448 34.27 593.462 31.96C593.469 29.65 594.54 28.103 596.682 28.103C598.278 28.103 599.279 28.957 599.678 30.364L601.162 29.965C600.567 27.977 599.006 26.71 596.682 26.71C593.658 26.71 591.915 28.845 591.915 31.96C591.915 35.075 593.658 37.21 596.682 37.21ZM602.702 37H605.859C606.041 37 606.643 37 607.112 36.937C609.478 36.636 610.738 34.529 610.738 31.96C610.738 29.391 609.478 27.284 607.112 26.983C606.643 26.92 606.041 26.92 605.859 26.92H602.702V37ZM604.2 35.607V28.313H605.859C606.167 28.313 606.671 28.32 607.007 28.383C608.519 28.663 609.184 30.189 609.184 31.96C609.184 33.689 608.547 35.243 607.007 35.537C606.671 35.6 606.181 35.607 605.859 35.607H604.2ZM612.368 37H613.831V33.381H616.505L618.262 37H619.935L618.031 33.094C619.172 32.597 619.746 31.491 619.746 30.147C619.746 28.516 618.906 27.235 617.219 26.976C616.953 26.934 616.638 26.92 616.442 26.92H612.368V37ZM613.831 31.995V28.299H616.386C616.568 28.299 616.813 28.313 617.023 28.369C617.919 28.579 618.255 29.405 618.255 30.147C618.255 30.889 617.919 31.715 617.023 31.932C616.813 31.981 616.568 31.995 616.386 31.995H613.831ZM624.294 37.189C626.177 37.189 627.661 35.796 627.661 33.871C627.661 32.233 626.653 30.924 625.022 30.707L627.514 28.313V26.92H621.452V28.313H625.722L622.642 31.036L623.328 32.191C623.615 32.037 623.958 31.939 624.28 31.939C625.4 31.939 626.163 32.751 626.163 33.871C626.163 34.984 625.4 35.789 624.294 35.803C623.468 35.81 622.733 35.341 622.467 34.466L621.053 34.858C621.48 36.293 622.796 37.189 624.294 37.189Z" fill="white" fill-opacity="0.3"/>
    <path d="M212 112V24" stroke="white" stroke-opacity="0.3" stroke-width="2" stroke-linecap="square" stroke-dasharray="6 6"/>
    <path d="M227.268 37.21C229.151 37.21 230.768 35.705 230.768 33.829C230.768 31.939 229.382 30.525 227.499 30.525C226.904 30.525 226.274 30.714 225.777 31.071L225.945 28.299H230.075V26.92H224.636L224.328 32.219L225.602 32.667C225.917 32.247 226.484 31.855 227.31 31.855C228.388 31.855 229.291 32.723 229.291 33.829C229.291 34.907 228.416 35.796 227.31 35.796C226.47 35.796 225.637 35.229 225.406 34.333L223.999 34.711C224.412 36.181 225.714 37.21 227.268 37.21ZM232.672 29.629L232.581 30.28C233.589 30.462 234.128 29.846 234.128 28.747V26.92H232.581V28.607H233.386C233.456 29.202 233.281 29.678 232.672 29.629ZM240.15 37.21C242.523 37.21 244.168 35.663 244.168 33.29V26.92H242.684V33.213C242.684 34.914 241.417 35.831 240.15 35.831C238.897 35.831 237.616 34.935 237.616 33.213V26.92L236.132 26.927V33.29C236.132 35.663 237.777 37.21 240.15 37.21ZM248.639 37H250.102V28.299H253.455V26.92H245.286V28.299H248.639V37ZM254.576 37H256.039V33.381H258.713L260.47 37H262.143L260.239 33.094C261.38 32.597 261.954 31.491 261.954 30.147C261.954 28.516 261.114 27.235 259.427 26.976C259.161 26.934 258.846 26.92 258.65 26.92H254.576V37ZM256.039 31.995V28.299H258.594C258.776 28.299 259.021 28.313 259.231 28.369C260.127 28.579 260.463 29.405 260.463 30.147C260.463 30.889 260.127 31.715 259.231 31.932C259.021 31.981 258.776 31.995 258.594 31.995H256.039Z" fill="white" fill-opacity="0.3"/>
    <path d="M274 112V24" stroke="white" stroke-opacity="0.3" stroke-width="2" stroke-linecap="square" stroke-dasharray="6 6"/>
    <path d="M284.442 37H290.469V35.621H285.905V26.92H284.442V37Z" fill="white" fill-opacity="0.3"/>
    <path d="M300 112V24" stroke="white" stroke-opacity="0.3" stroke-width="2" stroke-linecap="square" stroke-dasharray="6 6"/>
    <path d="M314.858 37H316.321V32.695H319.989V31.225H316.321V28.383H320.829V26.92H314.858V37ZM322.09 37H323.553V33.381H326.227L327.984 37H329.657L327.753 33.094C328.894 32.597 329.468 31.491 329.468 30.147C329.468 28.516 328.628 27.235 326.941 26.976C326.675 26.934 326.36 26.92 326.164 26.92H322.09V37ZM323.553 31.995V28.299H326.108C326.29 28.299 326.535 28.313 326.745 28.369C327.641 28.579 327.977 29.405 327.977 30.147C327.977 30.889 327.641 31.715 326.745 31.932C326.535 31.981 326.29 31.995 326.108 31.995H323.553ZM332.953 37H334.444V26.92H332.953L331.056 28.054V29.685L332.953 28.53V37Z" fill="white" fill-opacity="0.3"/>
    <path d="M350 112V24" stroke="white" stroke-opacity="0.3" stroke-width="2" stroke-linecap="square" stroke-dasharray="6 6"/>
    <path d="M362.735 37.21C365.059 37.21 366.62 35.943 367.215 33.955L365.731 33.556C365.332 34.963 364.331 35.817 362.735 35.817C360.593 35.817 359.501 34.27 359.515 31.96C359.522 29.65 360.593 28.103 362.735 28.103C364.331 28.103 365.332 28.957 365.731 30.364L367.215 29.965C366.62 27.977 365.059 26.71 362.735 26.71C359.711 26.71 357.968 28.845 357.968 31.96C357.968 35.075 359.711 37.21 362.735 37.21ZM368.754 37H371.911C372.093 37 372.695 37 373.164 36.937C375.53 36.636 376.79 34.529 376.79 31.96C376.79 29.391 375.53 27.284 373.164 26.983C372.695 26.92 372.093 26.92 371.911 26.92H368.754V37ZM370.252 35.607V28.313H371.911C372.219 28.313 372.723 28.32 373.059 28.383C374.571 28.663 375.236 30.189 375.236 31.96C375.236 33.689 374.599 35.243 373.059 35.537C372.723 35.6 372.233 35.607 371.911 35.607H370.252ZM378.42 37H379.883V33.381H382.557L384.314 37H385.987L384.083 33.094C385.224 32.597 385.798 31.491 385.798 30.147C385.798 28.516 384.958 27.235 383.271 26.976C383.005 26.934 382.69 26.92 382.494 26.92H378.42V37ZM379.883 31.995V28.299H382.438C382.62 28.299 382.865 28.313 383.075 28.369C383.971 28.579 384.307 29.405 384.307 30.147C384.307 30.889 383.971 31.715 383.075 31.932C382.865 31.981 382.62 31.995 382.438 31.995H379.883ZM389.283 37H390.774V26.92H389.283L387.386 28.054V29.685L389.283 28.53V37Z" fill="white" fill-opacity="0.3"/>
    <path d="M400 112V24" stroke="white" stroke-opacity="0.3" stroke-width="2" stroke-linecap="square" stroke-dasharray="6 6"/>
    <path d="M413.703 37H415.166V32.695H418.834V31.225H415.166V28.383H419.674V26.92H413.703V37ZM420.935 37H422.398V33.381H425.072L426.829 37H428.502L426.598 33.094C427.739 32.597 428.313 31.491 428.313 30.147C428.313 28.516 427.473 27.235 425.786 26.976C425.52 26.934 425.205 26.92 425.009 26.92H420.935V37ZM422.398 31.995V28.299H424.953C425.135 28.299 425.38 28.313 425.59 28.369C426.486 28.579 426.822 29.405 426.822 30.147C426.822 30.889 426.486 31.715 425.59 31.932C425.38 31.981 425.135 31.995 424.953 31.995H422.398ZM429.761 36.993H436.579V35.6H432.022L434.941 32.996C436.033 32.037 436.579 31.407 436.579 30.028C436.579 28.117 435.144 26.71 433.24 26.71C431.231 26.71 429.796 28.047 429.796 30H431.294C431.28 28.985 432.092 28.103 433.212 28.103C434.297 28.103 435.074 28.929 435.074 30.007C435.074 30.581 434.864 31.127 434.157 31.757L429.768 35.691L429.761 36.993Z" fill="white" fill-opacity="0.3"/>
    <path d="M450 112V24" stroke="white" stroke-opacity="0.3" stroke-width="2" stroke-linecap="square" stroke-dasharray="6 6"/>
    <path d="M461.58 37.21C463.904 37.21 465.465 35.943 466.06 33.955L464.576 33.556C464.177 34.963 463.176 35.817 461.58 35.817C459.438 35.817 458.346 34.27 458.36 31.96C458.367 29.65 459.438 28.103 461.58 28.103C463.176 28.103 464.177 28.957 464.576 30.364L466.06 29.965C465.465 27.977 463.904 26.71 461.58 26.71C458.556 26.71 456.813 28.845 456.813 31.96C456.813 35.075 458.556 37.21 461.58 37.21ZM467.599 37H470.756C470.938 37 471.54 37 472.009 36.937C474.375 36.636 475.635 34.529 475.635 31.96C475.635 29.391 474.375 27.284 472.009 26.983C471.54 26.92 470.938 26.92 470.756 26.92H467.599V37ZM469.097 35.607V28.313H470.756C471.064 28.313 471.568 28.32 471.904 28.383C473.416 28.663 474.081 30.189 474.081 31.96C474.081 33.689 473.444 35.243 471.904 35.537C471.568 35.6 471.078 35.607 470.756 35.607H469.097ZM477.265 37H478.728V33.381H481.402L483.159 37H484.832L482.928 33.094C484.069 32.597 484.643 31.491 484.643 30.147C484.643 28.516 483.803 27.235 482.116 26.976C481.85 26.934 481.535 26.92 481.339 26.92H477.265V37ZM478.728 31.995V28.299H481.283C481.465 28.299 481.71 28.313 481.92 28.369C482.816 28.579 483.152 29.405 483.152 30.147C483.152 30.889 482.816 31.715 481.92 31.932C481.71 31.981 481.465 31.995 481.283 31.995H478.728ZM486.091 36.993H492.909V35.6H488.352L491.271 32.996C492.363 32.037 492.909 31.407 492.909 30.028C492.909 28.117 491.474 26.71 489.57 26.71C487.561 26.71 486.126 28.047 486.126 30H487.624C487.61 28.985 488.422 28.103 489.542 28.103C490.627 28.103 491.404 28.929 491.404 30.007C491.404 30.581 491.194 31.127 490.487 31.757L486.098 35.691L486.091 36.993Z" fill="white" fill-opacity="0.3"/>
    <path d="M500 112V24" stroke="white" stroke-opacity="0.3" stroke-width="2" stroke-linecap="square" stroke-dasharray="6 6"/>
    <path d="M513.805 37H515.268V32.695H518.936V31.225H515.268V28.383H519.776V26.92H513.805V37ZM521.038 37H522.501V33.381H525.175L526.932 37H528.605L526.701 33.094C527.842 32.597 528.416 31.491 528.416 30.147C528.416 28.516 527.576 27.235 525.889 26.976C525.623 26.934 525.308 26.92 525.112 26.92H521.038V37ZM522.501 31.995V28.299H525.056C525.238 28.299 525.483 28.313 525.693 28.369C526.589 28.579 526.925 29.405 526.925 30.147C526.925 30.889 526.589 31.715 525.693 31.932C525.483 31.981 525.238 31.995 525.056 31.995H522.501ZM532.964 37.189C534.847 37.189 536.331 35.796 536.331 33.871C536.331 32.233 535.323 30.924 533.692 30.707L536.184 28.313V26.92H530.122V28.313H534.392L531.312 31.036L531.998 32.191C532.285 32.037 532.628 31.939 532.95 31.939C534.07 31.939 534.833 32.751 534.833 33.871C534.833 34.984 534.07 35.789 532.964 35.803C532.138 35.81 531.403 35.341 531.137 34.466L529.723 34.858C530.15 36.293 531.466 37.189 532.964 37.189Z" fill="white" fill-opacity="0.3"/>
    <path d="M550 112V24" stroke="white" stroke-opacity="0.3" stroke-width="2" stroke-linecap="square" stroke-dasharray="6 6"/>
    <rect x="789" y="56" width="138" height="22" fill="#1D1D29"/>
    <path d="M802.684 72.24C805.348 72.24 807.1 70.776 807.756 68.488L806.308 68.104C805.836 69.816 804.628 70.88 802.684 70.88C800.108 70.88 798.796 69 798.812 66.24C798.828 63.48 800.108 61.6 802.684 61.6C804.628 61.6 805.836 62.664 806.308 64.376L807.756 63.992C807.1 61.704 805.348 60.24 802.684 60.24C799.236 60.24 797.308 62.688 797.308 66.24C797.308 69.792 799.236 72.24 802.684 72.24ZM809.351 67.544H814.151V66.368H809.351V67.544ZM816.229 72H817.661V67.664C817.661 66.64 817.869 65.624 818.709 65.024C819.309 64.584 820.085 64.544 820.685 64.696V63.36C819.917 63.192 818.901 63.352 818.237 63.888C817.949 64.096 817.693 64.392 817.501 64.728V63.36H816.229V72ZM825.786 72.24C827.458 72.24 828.89 71.368 829.57 69.84L828.202 69.368C827.722 70.352 826.858 70.888 825.722 70.888C824.13 70.888 823.202 69.872 823.09 68.08H829.714C829.842 65.008 828.322 63.12 825.722 63.12C823.21 63.12 821.562 64.904 821.562 67.736C821.562 70.44 823.234 72.24 825.786 72.24ZM823.114 66.936C823.314 65.296 824.218 64.4 825.77 64.4C827.234 64.4 828.058 65.24 828.234 66.936H823.114ZM834.991 76.08C837.055 76.08 838.415 75.224 838.751 73.384C838.831 72.96 838.855 72.536 838.855 72.056V63.36H837.591V64.328C836.959 63.568 836.055 63.12 834.879 63.12C832.479 63.12 831.015 65.08 831.015 67.672C831.015 70.264 832.471 72.24 834.887 72.24C835.951 72.24 836.807 71.856 837.423 71.208V72.04C837.439 73.8 836.647 74.704 834.999 74.704C834.159 74.704 833.303 74.344 832.879 73.496L831.575 74.184C832.295 75.472 833.631 76.08 834.991 76.08ZM832.527 67.672C832.527 65.848 833.343 64.424 835.103 64.424C836.791 64.424 837.591 65.76 837.591 67.672C837.591 69.568 836.807 70.936 835.063 70.936C833.359 70.936 832.527 69.512 832.527 67.672ZM841.249 61.832H842.673V60.36H841.249V61.832ZM841.249 72H842.673V63.36H841.249V72ZM848.753 72.24C851.321 72.24 852.921 70.384 852.921 67.672C852.921 65 851.345 63.12 848.753 63.12C846.217 63.12 844.593 64.96 844.593 67.672C844.593 70.352 846.169 72.24 848.753 72.24ZM846.105 67.672C846.105 65.784 846.945 64.472 848.753 64.472C850.521 64.472 851.409 65.728 851.409 67.672C851.409 69.576 850.537 70.888 848.753 70.888C847.009 70.888 846.105 69.624 846.105 67.672ZM860.835 67.672V72H862.275V67.224C862.275 65.584 861.619 63.136 858.835 63.136C857.587 63.136 856.595 63.616 855.955 64.472V63.36H854.675V72H856.115V67.448C856.115 65.448 857.059 64.488 858.491 64.488C860.315 64.488 860.835 66.048 860.835 67.672ZM871.526 72.24C873.942 72.24 875.398 70.264 875.398 67.672C875.398 65.08 873.934 63.12 871.534 63.12C870.358 63.12 869.454 63.568 868.822 64.328V63.36H867.55V75.84H868.982V71.2C869.598 71.856 870.454 72.24 871.526 72.24ZM868.822 67.672C868.822 65.76 869.622 64.424 871.31 64.424C873.07 64.424 873.886 65.848 873.886 67.672C873.886 69.512 873.054 70.936 871.35 70.936C869.606 70.936 868.822 69.568 868.822 67.672ZM877.151 72H878.583V67.664C878.583 66.64 878.791 65.624 879.631 65.024C880.231 64.584 881.007 64.544 881.607 64.696V63.36C880.839 63.192 879.823 63.352 879.159 63.888C878.871 64.096 878.615 64.392 878.423 64.728V63.36H877.151V72ZM883.28 61.832H884.704V60.36H883.28V61.832ZM883.28 72H884.704V63.36H883.28V72ZM897.44 66.472L897.432 72H898.856L898.864 66.16C898.864 64.32 897.76 63.136 895.96 63.136C894.824 63.136 893.856 63.672 893.344 64.56C892.88 63.656 891.992 63.136 890.824 63.136C889.792 63.136 888.912 63.576 888.368 64.28V63.36H887.096V72H888.528V66.512C888.528 65.248 889.28 64.408 890.408 64.408C891.536 64.408 892.28 65.216 892.28 66.528L892.272 72H893.688L893.696 66.512C893.696 65.056 894.616 64.408 895.584 64.408C896.672 64.408 897.44 65.184 897.44 66.472ZM904.614 72.24C906.286 72.24 907.718 71.368 908.398 69.84L907.03 69.368C906.55 70.352 905.686 70.888 904.55 70.888C902.958 70.888 902.03 69.872 901.918 68.08H908.542C908.67 65.008 907.15 63.12 904.55 63.12C902.038 63.12 900.39 64.904 900.39 67.736C900.39 70.44 902.062 72.24 904.614 72.24ZM901.942 66.936C902.142 65.296 903.046 64.4 904.598 64.4C906.062 64.4 906.886 65.24 907.062 66.936H901.942ZM910.323 72H911.755V67.664C911.755 66.64 911.963 65.624 912.803 65.024C913.403 64.584 914.179 64.544 914.779 64.696V63.36C914.011 63.192 912.995 63.352 912.331 63.888C912.043 64.096 911.787 64.392 911.595 64.728V63.36H910.323V72ZM824.98 91.992H832.636V90.632H827.172L830.884 87.296C832.068 86.248 832.636 85.488 832.636 83.976C832.636 81.856 831.02 80.24 828.884 80.24C826.668 80.24 825.036 81.784 825.036 83.952H826.492C826.476 82.696 827.484 81.6 828.86 81.6C830.188 81.6 831.18 82.632 831.18 83.96C831.18 84.688 830.948 85.352 830.1 86.112L824.988 90.712L824.98 91.992ZM838.438 92.24C840.678 92.24 842.326 90.592 842.326 88.352V84.128C842.326 81.888 840.678 80.24 838.438 80.24C836.198 80.24 834.55 81.888 834.55 84.128V88.352C834.55 90.592 836.198 92.24 838.438 92.24ZM835.998 88.432V84.04C835.998 82.688 837.086 81.6 838.438 81.6C839.79 81.6 840.878 82.688 840.878 84.04V88.432C840.878 89.784 839.79 90.872 838.438 90.872C837.086 90.872 835.998 89.784 835.998 88.432ZM844.405 86.824H849.205V85.648H844.405V86.824ZM850.964 91.992H858.62V90.632H853.156L856.868 87.296C858.052 86.248 858.62 85.488 858.62 83.976C858.62 81.856 857.004 80.24 854.868 80.24C852.652 80.24 851.02 81.784 851.02 83.952H852.476C852.46 82.696 853.468 81.6 854.844 81.6C856.172 81.6 857.164 82.632 857.164 83.96C857.164 84.688 856.932 85.352 856.084 86.112L850.972 90.712L850.964 91.992ZM865.198 92H866.638V89.88H867.838V88.528H866.638V85.288H865.198V88.528H861.518L865.318 80.48H863.702L859.902 88.528V89.88H865.198V92ZM873.721 92.24C876.137 92.24 877.593 90.264 877.593 87.672C877.593 85.08 876.129 83.12 873.729 83.12C872.649 83.12 871.793 83.496 871.177 84.144V80.48H869.745V92H871.017V91.024C871.649 91.784 872.553 92.24 873.721 92.24ZM871.017 87.672C871.017 85.76 871.817 84.424 873.505 84.424C875.265 84.424 876.081 85.848 876.081 87.672C876.081 89.512 875.249 90.936 873.545 90.936C871.801 90.936 871.017 89.568 871.017 87.672ZM883.315 92.24C885.731 92.24 887.187 90.264 887.187 87.672C887.187 85.08 885.723 83.12 883.323 83.12C882.147 83.12 881.243 83.568 880.611 84.328V83.36H879.339V95.84H880.771V91.2C881.387 91.856 882.243 92.24 883.315 92.24ZM880.611 87.672C880.611 85.76 881.411 84.424 883.099 84.424C884.859 84.424 885.675 85.848 885.675 87.672C885.675 89.512 884.843 90.936 883.139 90.936C881.395 90.936 880.611 89.568 880.611 87.672Z" fill="white"/>
    <g filter="url(#filter6_i_5913_39612)">
        <rect x="96" y="108" width="64" height="52" rx="1" fill="#D6E0FF"/>
        <path d="M117.053 142.3C120.393 142.3 122.733 140.1 122.733 136.75V127.6H120.933V136.6C120.933 139.31 118.893 140.62 117.053 140.62C115.233 140.62 113.173 139.33 113.173 136.6V127.6L111.373 127.61V136.75C111.373 140.11 113.713 142.3 117.053 142.3ZM125.533 142H127.223V131.51L132.113 142H133.063L137.953 131.51V141.99H139.643V127.6H138.003L132.593 139.07L127.153 127.6H125.533V142ZM142.647 142H144.427V127.6H142.647V142Z" fill="#110529"/>
        <rect x="96" y="108" width="64" height="52" rx="1" stroke="#110529" stroke-width="2" stroke-linecap="round"/>
    </g>
    <g filter="url(#filter7_i_5913_39612)">
        <rect x="160" y="108" width="52" height="52" rx="1" fill="#D3D7E0"/>
        <path d="M178.815 142H180.595V129.29H185.505V127.6H173.905V129.29H178.815V142ZM192.207 142.3C195.197 142.3 197.597 140.77 197.597 137.98C197.597 135.21 195.227 134.5 193.977 134.15L191.237 133.36C190.167 133.06 188.837 132.6 188.837 131.27C188.837 129.94 190.207 128.98 191.977 129C193.807 129.02 195.317 130.1 195.617 131.85L197.507 131.52C196.977 128.9 194.897 127.33 191.997 127.31C189.127 127.3 186.957 128.8 186.957 131.35C186.957 133.48 188.477 134.41 190.077 134.88L193.747 135.97C194.777 136.28 195.757 136.82 195.757 138.08C195.757 139.65 194.227 140.61 192.297 140.61C190.287 140.61 188.697 139.54 188.237 137.72L186.397 138.01C186.877 140.66 189.147 142.3 192.207 142.3Z" fill="#110529"/>
        <rect x="160" y="108" width="52" height="52" rx="1" stroke="#110529" stroke-width="2" stroke-linecap="round"/>
    </g>
    <g filter="url(#filter8_i_5913_39612)">
        <rect x="212" y="108" width="350" height="52" rx="1" fill="#99E099"/>
        <path d="M385.758 142H388.238L393.058 127.6H391.208L386.978 140.11L382.788 127.6H380.938L385.758 142Z" fill="#110529"/>
        <rect x="212" y="108" width="350" height="52" rx="1" stroke="#110529" stroke-width="2" stroke-linecap="round"/>
    </g>
    <g filter="url(#filter9_i_5913_39612)">
        <rect x="562" y="108" width="30" height="52" rx="1" fill="#CBEB67"/>
    </g>
    <rect x="562" y="108" width="30" height="52" rx="1" stroke="#110529" stroke-width="2" stroke-linecap="round"/>
    <g filter="url(#filter10_i_5913_39612)">
        <rect x="628" y="108" width="30" height="52" rx="1" fill="#FAAAFA"/>
    </g>
    <rect x="628" y="108" width="30" height="52" rx="1" stroke="#110529" stroke-width="2" stroke-linecap="round"/>
    <g filter="url(#filter11_i_5913_39612)">
        <rect x="592" y="108" width="36" height="52" rx="1" fill="#FFCB8F"/>
    </g>
    <rect x="592" y="108" width="36" height="52" rx="1" stroke="#110529" stroke-width="2" stroke-linecap="round"/>
    <path d="M571.447 142H573.247V130.74L580.757 142H582.557V127.6H580.757V138.85L573.247 127.6H571.447V142Z" fill="#110529"/>
    <path d="M637.447 142H639.247V130.74L646.757 142H648.557V127.6H646.757V138.85L639.247 127.6H637.447V142Z" fill="#110529"/>
    <path d="M604.593 142H609.033C609.303 142 610.183 142 610.853 141.91C614.183 141.47 615.913 138.48 615.913 134.8C615.913 131.13 614.183 128.13 610.853 127.69C610.173 127.6 609.313 127.6 609.033 127.6H604.593V142ZM606.423 140.3V129.3H609.033C609.513 129.3 610.233 129.32 610.703 129.41C613.033 129.83 614.023 132.08 614.023 134.8C614.023 137.47 613.063 139.76 610.703 140.19C610.233 140.28 609.533 140.3 609.033 140.3H606.423Z" fill="#110529"/>
    <g filter="url(#filter12_i_5913_39612)">
        <rect x="658" y="108" width="96" height="52" rx="1" fill="#C1ADFF"/>
        <path d="M705.244 142.29C706.694 142.29 707.954 141.7 708.684 140.43C709.214 139.51 709.154 138.72 709.154 137.48V127.6H707.354V137.48C707.354 138.37 707.354 138.99 707.094 139.51C706.704 140.29 705.884 140.6 705.204 140.6C704.134 140.6 703.224 139.83 703.014 138.85L701.244 139.27C701.754 141.11 703.224 142.29 705.244 142.29Z" fill="#110529"/>
        <rect x="658" y="108" width="96" height="52" rx="1" stroke="#110529" stroke-width="2" stroke-linecap="round"/>
    </g>
    <g filter="url(#filter13_i_5913_39612)">
        <rect x="754" y="108" width="144" height="52" rx="1" fill="#FAFAAA"/>
        <path d="M825.593 142.3C824.16 142.3 822.943 141.983 821.943 141.35C820.943 140.717 820.18 139.837 819.653 138.71C819.133 137.583 818.873 136.28 818.873 134.8C818.873 133.32 819.133 132.017 819.653 130.89C820.18 129.763 820.943 128.883 821.943 128.25C822.943 127.617 824.16 127.3 825.593 127.3C827.26 127.3 828.63 127.723 829.703 128.57C830.783 129.417 831.527 130.557 831.933 131.99L830.123 132.47C829.83 131.397 829.307 130.55 828.553 129.93C827.8 129.31 826.813 129 825.593 129C824.52 129 823.627 129.243 822.913 129.73C822.2 130.217 821.663 130.897 821.303 131.77C820.943 132.637 820.76 133.647 820.753 134.8C820.747 135.947 820.923 136.957 821.283 137.83C821.643 138.697 822.183 139.377 822.903 139.87C823.623 140.357 824.52 140.6 825.593 140.6C826.813 140.6 827.8 140.29 828.553 139.67C829.307 139.043 829.83 138.197 830.123 137.13L831.933 137.61C831.527 139.037 830.783 140.177 829.703 141.03C828.63 141.877 827.26 142.3 825.593 142.3Z" fill="#110529"/>
        <rect x="754" y="108" width="144" height="52" rx="1" stroke="#110529" stroke-width="2" stroke-linecap="round"/>
    </g>
    <path d="M466 184L465.293 184.707L464.586 184L465.293 183.293L466 184ZM473.293 175.293L474 174.586L475.414 176L474.707 176.707L473.293 175.293ZM474.707 191.293L475.414 192L474 193.414L473.293 192.707L474.707 191.293ZM476 185L466 185L466 183L476 183L476 185ZM465.293 183.293L473.293 175.293L474.707 176.707L466.707 184.707L465.293 183.293ZM466.707 183.293L474.707 191.293L473.293 192.707L465.293 184.707L466.707 183.293Z" fill="#D3D7E0"/>
    <path d="M642.5 184H476" stroke="#D3D7E0" stroke-width="2"/>
    <rect width="57" height="20" transform="translate(642.5 174)" fill="#1D1D29"/>
    <path d="M651.171 190.224C653.307 190.224 654.931 188.664 654.931 186.456C654.931 184.44 653.651 182.944 651.667 182.832L654.779 179.848V178.48H647.987V179.84H653.011L649.267 183.224L649.955 184.352C650.315 184.168 650.755 184.048 651.147 184.048C652.531 184.048 653.467 185.032 653.467 186.456C653.467 187.864 652.563 188.84 651.163 188.864C650.139 188.88 649.243 188.312 648.899 187.24L647.531 187.632C648.019 189.232 649.459 190.224 651.171 190.224ZM660.899 190.24C663.139 190.24 664.787 188.592 664.787 186.352V182.128C664.787 179.888 663.139 178.24 660.899 178.24C658.659 178.24 657.011 179.888 657.011 182.128V186.352C657.011 188.592 658.659 190.24 660.899 190.24ZM658.459 186.432V182.04C658.459 180.688 659.547 179.6 660.899 179.6C662.251 179.6 663.339 180.688 663.339 182.04V186.432C663.339 187.784 662.251 188.872 660.899 188.872C659.547 188.872 658.459 187.784 658.459 186.432ZM670.914 190.24C673.154 190.24 674.802 188.592 674.802 186.352V182.128C674.802 179.888 673.154 178.24 670.914 178.24C668.674 178.24 667.026 179.888 667.026 182.128V186.352C667.026 188.592 668.674 190.24 670.914 190.24ZM668.474 186.432V182.04C668.474 180.688 669.562 179.6 670.914 179.6C672.266 179.6 673.354 180.688 673.354 182.04V186.432C673.354 187.784 672.266 188.872 670.914 188.872C669.562 188.872 668.474 187.784 668.474 186.432ZM681.01 190.24C683.426 190.24 684.882 188.264 684.882 185.672C684.882 183.08 683.418 181.12 681.018 181.12C679.938 181.12 679.082 181.496 678.466 182.144V178.48H677.034V190H678.306V189.024C678.938 189.784 679.842 190.24 681.01 190.24ZM678.306 185.672C678.306 183.76 679.106 182.424 680.794 182.424C682.554 182.424 683.37 183.848 683.37 185.672C683.37 187.512 682.538 188.936 680.834 188.936C679.09 188.936 678.306 187.568 678.306 185.672ZM690.604 190.24C693.02 190.24 694.476 188.264 694.476 185.672C694.476 183.08 693.012 181.12 690.612 181.12C689.436 181.12 688.532 181.568 687.9 182.328V181.36H686.628V193.84H688.06V189.2C688.676 189.856 689.532 190.24 690.604 190.24ZM687.9 185.672C687.9 183.76 688.7 182.424 690.388 182.424C692.148 182.424 692.964 183.848 692.964 185.672C692.964 187.512 692.132 188.936 690.428 188.936C688.684 188.936 687.9 187.568 687.9 185.672Z" fill="white"/>
    <path d="M866 184H699.5" stroke="#D3D7E0" stroke-width="2"/>
    <path d="M874.62 190H876.044V185.744H879.412L881.476 190H883.108L880.884 185.432C882.188 184.888 882.868 183.632 882.868 182.112C882.868 180.28 881.884 178.832 880.02 178.544C879.724 178.496 879.396 178.48 879.172 178.48H874.62V190ZM876.044 184.392V179.832H879.124C879.324 179.832 879.604 179.848 879.844 179.904C880.948 180.152 881.412 181.152 881.412 182.112C881.412 183.072 880.948 184.072 879.844 184.32C879.604 184.376 879.324 184.392 879.124 184.392H876.044ZM886.878 190H888.326V178.48H886.878L884.71 179.776V181.368L886.878 180.056V190Z" fill="white"/>
    <rect x="866" y="172" width="32" height="24" rx="1" stroke="#D3D7E0" stroke-width="2"/>
    <path d="M103.12 214H104.544V209.744H107.912L109.976 214H111.608L109.384 209.432C110.688 208.888 111.368 207.632 111.368 206.112C111.368 204.28 110.384 202.832 108.52 202.544C108.224 202.496 107.896 202.48 107.672 202.48H103.12V214ZM104.544 208.392V203.832H107.624C107.824 203.832 108.104 203.848 108.344 203.904C109.448 204.152 109.912 205.152 109.912 206.112C109.912 207.072 109.448 208.072 108.344 208.32C108.104 208.376 107.824 208.392 107.624 208.392H104.544ZM113.05 213.992H120.706V212.632H115.242L118.954 209.296C120.138 208.248 120.706 207.488 120.706 205.976C120.706 203.856 119.09 202.24 116.954 202.24C114.738 202.24 113.106 203.784 113.106 205.952H114.562C114.546 204.696 115.554 203.6 116.93 203.6C118.258 203.6 119.25 204.632 119.25 205.96C119.25 206.688 119.018 207.352 118.17 208.112L113.058 212.712L113.05 213.992Z" fill="white"/>
    <rect x="96" y="196" width="32" height="24" rx="1" stroke="#D3D7E0" stroke-width="2"/>
    <path d="M294.5 208H128" stroke="#D3D7E0" stroke-width="2"/>
    <rect width="57" height="20" transform="translate(294.5 198)" fill="#1D1D29"/>
    <path d="M303.171 214.224C305.307 214.224 306.931 212.664 306.931 210.456C306.931 208.44 305.651 206.944 303.667 206.832L306.779 203.848V202.48H299.987V203.84H305.011L301.267 207.224L301.955 208.352C302.315 208.168 302.755 208.048 303.147 208.048C304.531 208.048 305.467 209.032 305.467 210.456C305.467 211.864 304.563 212.84 303.163 212.864C302.139 212.88 301.243 212.312 300.899 211.24L299.531 211.632C300.019 213.232 301.459 214.224 303.171 214.224ZM312.899 214.24C315.139 214.24 316.787 212.592 316.787 210.352V206.128C316.787 203.888 315.139 202.24 312.899 202.24C310.659 202.24 309.011 203.888 309.011 206.128V210.352C309.011 212.592 310.659 214.24 312.899 214.24ZM310.459 210.432V206.04C310.459 204.688 311.547 203.6 312.899 203.6C314.251 203.6 315.339 204.688 315.339 206.04V210.432C315.339 211.784 314.251 212.872 312.899 212.872C311.547 212.872 310.459 211.784 310.459 210.432ZM322.914 214.24C325.154 214.24 326.802 212.592 326.802 210.352V206.128C326.802 203.888 325.154 202.24 322.914 202.24C320.674 202.24 319.026 203.888 319.026 206.128V210.352C319.026 212.592 320.674 214.24 322.914 214.24ZM320.474 210.432V206.04C320.474 204.688 321.562 203.6 322.914 203.6C324.266 203.6 325.354 204.688 325.354 206.04V210.432C325.354 211.784 324.266 212.872 322.914 212.872C321.562 212.872 320.474 211.784 320.474 210.432ZM333.01 214.24C335.426 214.24 336.882 212.264 336.882 209.672C336.882 207.08 335.418 205.12 333.018 205.12C331.938 205.12 331.082 205.496 330.466 206.144V202.48H329.034V214H330.306V213.024C330.938 213.784 331.842 214.24 333.01 214.24ZM330.306 209.672C330.306 207.76 331.106 206.424 332.794 206.424C334.554 206.424 335.37 207.848 335.37 209.672C335.37 211.512 334.538 212.936 332.834 212.936C331.09 212.936 330.306 211.568 330.306 209.672ZM342.604 214.24C345.02 214.24 346.476 212.264 346.476 209.672C346.476 207.08 345.012 205.12 342.612 205.12C341.436 205.12 340.532 205.568 339.9 206.328V205.36H338.628V217.84H340.06V213.2C340.676 213.856 341.532 214.24 342.604 214.24ZM339.9 209.672C339.9 207.76 340.7 206.424 342.388 206.424C344.148 206.424 344.964 207.848 344.964 209.672C344.964 211.512 344.132 212.936 342.428 212.936C340.684 212.936 339.9 211.568 339.9 209.672Z" fill="white"/>
    <path d="M518 208H351.5" stroke="#D3D7E0" stroke-width="2"/>
    <path d="M528 208L528.707 207.293L529.414 208L528.707 208.707L528 208ZM520.707 216.707L520 217.414L518.586 216L519.293 215.293L520.707 216.707ZM519.293 200.707L518.586 200L520 198.586L520.707 199.293L519.293 200.707ZM518 207L528 207L528 209L518 209L518 207ZM528.707 208.707L520.707 216.707L519.293 215.293L527.293 207.293L528.707 208.707ZM527.293 208.707L519.293 200.707L520.707 199.293L528.707 207.293L527.293 208.707Z" fill="#D3D7E0"/>
    <path d="M412 344L411.293 344.707L410.586 344L411.293 343.293L412 344ZM419.293 335.293L420 334.586L421.414 336L420.707 336.707L419.293 335.293ZM420.707 351.293L421.414 352L420 353.414L419.293 352.707L420.707 351.293ZM422 345L412 345L412 343L422 343L422 345ZM411.293 343.293L419.293 335.293L420.707 336.707L412.707 344.707L411.293 343.293ZM412.707 343.293L420.707 351.293L419.293 352.707L411.293 344.707L412.707 343.293Z" fill="#D3D7E0"/>
    <path d="M582.5 344H422" stroke="#D3D7E0" stroke-width="2"/>
    <rect width="57" height="20" transform="translate(582.5 334)" fill="#1D1D29"/>
    <path d="M591.171 350.224C593.307 350.224 594.931 348.664 594.931 346.456C594.931 344.44 593.651 342.944 591.667 342.832L594.779 339.848V338.48H587.987V339.84H593.011L589.267 343.224L589.955 344.352C590.315 344.168 590.755 344.048 591.147 344.048C592.531 344.048 593.467 345.032 593.467 346.456C593.467 347.864 592.563 348.84 591.163 348.864C590.139 348.88 589.243 348.312 588.899 347.24L587.531 347.632C588.019 349.232 589.459 350.224 591.171 350.224ZM600.899 350.24C603.139 350.24 604.787 348.592 604.787 346.352V342.128C604.787 339.888 603.139 338.24 600.899 338.24C598.659 338.24 597.011 339.888 597.011 342.128V346.352C597.011 348.592 598.659 350.24 600.899 350.24ZM598.459 346.432V342.04C598.459 340.688 599.547 339.6 600.899 339.6C602.251 339.6 603.339 340.688 603.339 342.04V346.432C603.339 347.784 602.251 348.872 600.899 348.872C599.547 348.872 598.459 347.784 598.459 346.432ZM610.914 350.24C613.154 350.24 614.802 348.592 614.802 346.352V342.128C614.802 339.888 613.154 338.24 610.914 338.24C608.674 338.24 607.026 339.888 607.026 342.128V346.352C607.026 348.592 608.674 350.24 610.914 350.24ZM608.474 346.432V342.04C608.474 340.688 609.562 339.6 610.914 339.6C612.266 339.6 613.354 340.688 613.354 342.04V346.432C613.354 347.784 612.266 348.872 610.914 348.872C609.562 348.872 608.474 347.784 608.474 346.432ZM621.01 350.24C623.426 350.24 624.882 348.264 624.882 345.672C624.882 343.08 623.418 341.12 621.018 341.12C619.938 341.12 619.082 341.496 618.466 342.144V338.48H617.034V350H618.306V349.024C618.938 349.784 619.842 350.24 621.01 350.24ZM618.306 345.672C618.306 343.76 619.106 342.424 620.794 342.424C622.554 342.424 623.37 343.848 623.37 345.672C623.37 347.512 622.538 348.936 620.834 348.936C619.09 348.936 618.306 347.568 618.306 345.672ZM630.604 350.24C633.02 350.24 634.476 348.264 634.476 345.672C634.476 343.08 633.012 341.12 630.612 341.12C629.436 341.12 628.532 341.568 627.9 342.328V341.36H626.628V353.84H628.06V349.2C628.676 349.856 629.532 350.24 630.604 350.24ZM627.9 345.672C627.9 343.76 628.7 342.424 630.388 342.424C632.148 342.424 632.964 343.848 632.964 345.672C632.964 347.512 632.132 348.936 630.428 348.936C628.684 348.936 627.9 347.568 627.9 345.672Z" fill="white"/>
    <path d="M800 344H639.5" stroke="#D3D7E0" stroke-width="2"/>
    <path d="M808.62 350H810.044V345.744H813.412L815.476 350H817.108L814.884 345.432C816.188 344.888 816.868 343.632 816.868 342.112C816.868 340.28 815.884 338.832 814.02 338.544C813.724 338.496 813.396 338.48 813.172 338.48H808.62V350ZM810.044 344.392V339.832H813.124C813.324 339.832 813.604 339.848 813.844 339.904C814.948 340.152 815.412 341.152 815.412 342.112C815.412 343.072 814.948 344.072 813.844 344.32C813.604 344.376 813.324 344.392 813.124 344.392H810.044ZM820.878 350H822.326V338.48H820.878L818.71 339.776V341.368L820.878 340.056V350Z" fill="white"/>
    <rect x="800" y="332" width="32" height="24" rx="1" stroke="#D3D7E0" stroke-width="2"/>
    <path d="M103.12 374H104.544V369.744H107.912L109.976 374H111.608L109.384 369.432C110.688 368.888 111.368 367.632 111.368 366.112C111.368 364.28 110.384 362.832 108.52 362.544C108.224 362.496 107.896 362.48 107.672 362.48H103.12V374ZM104.544 368.392V363.832H107.624C107.824 363.832 108.104 363.848 108.344 363.904C109.448 364.152 109.912 365.152 109.912 366.112C109.912 367.072 109.448 368.072 108.344 368.32C108.104 368.376 107.824 368.392 107.624 368.392H104.544ZM113.05 373.992H120.706V372.632H115.242L118.954 369.296C120.138 368.248 120.706 367.488 120.706 365.976C120.706 363.856 119.09 362.24 116.954 362.24C114.738 362.24 113.106 363.784 113.106 365.952H114.562C114.546 364.696 115.554 363.6 116.93 363.6C118.258 363.6 119.25 364.632 119.25 365.96C119.25 366.688 119.018 367.352 118.17 368.112L113.058 372.712L113.05 373.992Z" fill="white"/>
    <rect x="96" y="356" width="32" height="24" rx="1" stroke="#D3D7E0" stroke-width="2"/>
    <path d="M294.5 368H128" stroke="#D3D7E0" stroke-width="2"/>
    <rect width="57" height="20" transform="translate(294.5 358)" fill="#1D1D29"/>
    <path d="M303.171 374.224C305.307 374.224 306.931 372.664 306.931 370.456C306.931 368.44 305.651 366.944 303.667 366.832L306.779 363.848V362.48H299.987V363.84H305.011L301.267 367.224L301.955 368.352C302.315 368.168 302.755 368.048 303.147 368.048C304.531 368.048 305.467 369.032 305.467 370.456C305.467 371.864 304.563 372.84 303.163 372.864C302.139 372.88 301.243 372.312 300.899 371.24L299.531 371.632C300.019 373.232 301.459 374.224 303.171 374.224ZM312.899 374.24C315.139 374.24 316.787 372.592 316.787 370.352V366.128C316.787 363.888 315.139 362.24 312.899 362.24C310.659 362.24 309.011 363.888 309.011 366.128V370.352C309.011 372.592 310.659 374.24 312.899 374.24ZM310.459 370.432V366.04C310.459 364.688 311.547 363.6 312.899 363.6C314.251 363.6 315.339 364.688 315.339 366.04V370.432C315.339 371.784 314.251 372.872 312.899 372.872C311.547 372.872 310.459 371.784 310.459 370.432ZM322.914 374.24C325.154 374.24 326.802 372.592 326.802 370.352V366.128C326.802 363.888 325.154 362.24 322.914 362.24C320.674 362.24 319.026 363.888 319.026 366.128V370.352C319.026 372.592 320.674 374.24 322.914 374.24ZM320.474 370.432V366.04C320.474 364.688 321.562 363.6 322.914 363.6C324.266 363.6 325.354 364.688 325.354 366.04V370.432C325.354 371.784 324.266 372.872 322.914 372.872C321.562 372.872 320.474 371.784 320.474 370.432ZM333.01 374.24C335.426 374.24 336.882 372.264 336.882 369.672C336.882 367.08 335.418 365.12 333.018 365.12C331.938 365.12 331.082 365.496 330.466 366.144V362.48H329.034V374H330.306V373.024C330.938 373.784 331.842 374.24 333.01 374.24ZM330.306 369.672C330.306 367.76 331.106 366.424 332.794 366.424C334.554 366.424 335.37 367.848 335.37 369.672C335.37 371.512 334.538 372.936 332.834 372.936C331.09 372.936 330.306 371.568 330.306 369.672ZM342.604 374.24C345.02 374.24 346.476 372.264 346.476 369.672C346.476 367.08 345.012 365.12 342.612 365.12C341.436 365.12 340.532 365.568 339.9 366.328V365.36H338.628V377.84H340.06V373.2C340.676 373.856 341.532 374.24 342.604 374.24ZM339.9 369.672C339.9 367.76 340.7 366.424 342.388 366.424C344.148 366.424 344.964 367.848 344.964 369.672C344.964 371.512 344.132 372.936 342.428 372.936C340.684 372.936 339.9 371.568 339.9 369.672Z" fill="white"/>
    <path d="M518 368H351.5" stroke="#D3D7E0" stroke-width="2"/>
    <path d="M528 368L528.707 367.293L529.414 368L528.707 368.707L528 368ZM520.707 376.707L520 377.414L518.586 376L519.293 375.293L520.707 376.707ZM519.293 360.707L518.586 360L520 358.586L520.707 359.293L519.293 360.707ZM518 367L528 367L528 369L518 369L518 367ZM528.707 368.707L520.707 376.707L519.293 375.293L527.293 367.293L528.707 368.707ZM527.293 368.707L519.293 360.707L520.707 359.293L528.707 367.293L527.293 368.707Z" fill="#D3D7E0"/>
    <rect width="42" height="20" transform="translate(108 74)" fill="#1D1D29"/>
    <path d="M115.128 90H116.576V78.48H115.128L112.96 79.776V81.368L115.128 80.056V90ZM120.228 90H121.764L125.9 79.848V78.48H119.14V79.848H124.372L120.228 90ZM131.791 90.24C134.207 90.24 135.663 88.264 135.663 85.672C135.663 83.08 134.199 81.12 131.799 81.12C130.719 81.12 129.863 81.496 129.247 82.144V78.48H127.815V90H129.087V89.024C129.719 89.784 130.623 90.24 131.791 90.24ZM129.087 85.672C129.087 83.76 129.887 82.424 131.575 82.424C133.335 82.424 134.151 83.848 134.151 85.672C134.151 87.512 133.319 88.936 131.615 88.936C129.871 88.936 129.087 87.568 129.087 85.672ZM141.385 90.24C143.801 90.24 145.257 88.264 145.257 85.672C145.257 83.08 143.793 81.12 141.393 81.12C140.217 81.12 139.313 81.568 138.681 82.328V81.36H137.409V93.84H138.841V89.2C139.457 89.856 140.313 90.24 141.385 90.24ZM138.681 85.672C138.681 83.76 139.481 82.424 141.169 82.424C142.929 82.424 143.745 83.848 143.745 85.672C143.745 87.512 142.913 88.936 141.209 88.936C139.465 88.936 138.681 87.568 138.681 85.672Z" fill="white"/>
    <rect width="59" height="20" transform="translate(160 74)" fill="#1D1D29"/>
    <path d="M165.728 90H167.264L171.4 79.848V78.48H164.64V79.848H169.872L165.728 90ZM173.163 84.824H177.963V83.648H173.163V84.824ZM182.05 90H183.498V78.48H182.05L179.882 79.776V81.368L182.05 80.056V90ZM190.43 90.24C192.67 90.24 194.318 88.592 194.318 86.352V82.128C194.318 79.888 192.67 78.24 190.43 78.24C188.19 78.24 186.542 79.888 186.542 82.128V86.352C186.542 88.592 188.19 90.24 190.43 90.24ZM187.99 86.432V82.04C187.99 80.688 189.078 79.6 190.43 79.6C191.782 79.6 192.87 80.688 192.87 82.04V86.432C192.87 87.784 191.782 88.872 190.43 88.872C189.078 88.872 187.99 87.784 187.99 86.432ZM200.526 90.24C202.942 90.24 204.398 88.264 204.398 85.672C204.398 83.08 202.934 81.12 200.534 81.12C199.454 81.12 198.598 81.496 197.982 82.144V78.48H196.55V90H197.822V89.024C198.454 89.784 199.358 90.24 200.526 90.24ZM197.822 85.672C197.822 83.76 198.622 82.424 200.31 82.424C202.07 82.424 202.886 83.848 202.886 85.672C202.886 87.512 202.054 88.936 200.35 88.936C198.606 88.936 197.822 87.568 197.822 85.672ZM210.119 90.24C212.535 90.24 213.991 88.264 213.991 85.672C213.991 83.08 212.527 81.12 210.127 81.12C208.951 81.12 208.047 81.568 207.415 82.328V81.36H206.143V93.84H207.575V89.2C208.191 89.856 209.047 90.24 210.119 90.24ZM207.415 85.672C207.415 83.76 208.215 82.424 209.903 82.424C211.663 82.424 212.479 83.848 212.479 85.672C212.479 87.512 211.647 88.936 209.943 88.936C208.199 88.936 207.415 87.568 207.415 85.672Z" fill="white"/>
    <defs>
        <filter id="filter0_i_5913_39612" x="95" y="267" width="66" height="54" filterUnits="userSpaceOnUse" color-interpolation-filters="sRGB">
            <feFlood flood-opacity="0" result="BackgroundImageFix"/>
            <feBlend mode="normal" in="SourceGraphic" in2="BackgroundImageFix" result="shape"/>
            <feColorMatrix in="SourceAlpha" type="matrix" values="0 0 0 0 0 0 0 0 0 0 0 0 0 0 0 0 0 0 127 0" result="hardAlpha"/>
            <feOffset dx="-8" dy="-4"/>
            <feComposite in2="hardAlpha" operator="arithmetic" k2="-1" k3="1"/>
            <feColorMatrix type="matrix" values="0 0 0 0 0.0666667 0 0 0 0 0.0196078 0 0 0 0 0.160784 0 0 0 0.16 0"/>
            <feBlend mode="normal" in2="shape" result="effect1_innerShadow_5913_39612"/>
        </filter>
        <filter id="filter1_i_5913_39612" x="159" y="267" width="54" height="54" filterUnits="userSpaceOnUse" color-interpolation-filters="sRGB">
            <feFlood flood-opacity="0" result="BackgroundImageFix"/>
            <feBlend mode="normal" in="SourceGraphic" in2="BackgroundImageFix" result="shape"/>
            <feColorMatrix in="SourceAlpha" type="matrix" values="0 0 0 0 0 0 0 0 0 0 0 0 0 0 0 0 0 0 127 0" result="hardAlpha"/>
            <feOffset dx="-8" dy="-4"/>
            <feComposite in2="hardAlpha" operator="arithmetic" k2="-1" k3="1"/>
            <feColorMatrix type="matrix" values="0 0 0 0 0.0666667 0 0 0 0 0.0196078 0 0 0 0 0.160784 0 0 0 0.16 0"/>
            <feBlend mode="normal" in2="shape" result="effect1_innerShadow_5913_39612"/>
        </filter>
        <filter id="filter2_i_5913_39612" x="211" y="267" width="352" height="54" filterUnits="userSpaceOnUse" color-interpolation-filters="sRGB">
            <feFlood flood-opacity="0" result="BackgroundImageFix"/>
            <feBlend mode="normal" in="SourceGraphic" in2="BackgroundImageFix" result="shape"/>
            <feColorMatrix in="SourceAlpha" type="matrix" values="0 0 0 0 0 0 0 0 0 0 0 0 0 0 0 0 0 0 127 0" result="hardAlpha"/>
            <feOffset dx="-8" dy="-4"/>
            <feComposite in2="hardAlpha" operator="arithmetic" k2="-1" k3="1"/>
            <feColorMatrix type="matrix" values="0 0 0 0 0.0666667 0 0 0 0 0.0196078 0 0 0 0 0.160784 0 0 0 0.16 0"/>
            <feBlend mode="normal" in2="shape" result="effect1_innerShadow_5913_39612"/>
        </filter>
        <filter id="filter3_i_5913_39612" x="561" y="267" width="32" height="54" filterUnits="userSpaceOnUse" color-interpolation-filters="sRGB">
            <feFlood flood-opacity="0" result="BackgroundImageFix"/>
            <feBlend mode="normal" in="SourceGraphic" in2="BackgroundImageFix" result="shape"/>
            <feColorMatrix in="SourceAlpha" type="matrix" values="0 0 0 0 0 0 0 0 0 0 0 0 0 0 0 0 0 0 127 0" result="hardAlpha"/>
            <feOffset dx="-8" dy="-4"/>
            <feComposite in2="hardAlpha" operator="arithmetic" k2="-1" k3="1"/>
            <feColorMatrix type="matrix" values="0 0 0 0 0.0666667 0 0 0 0 0.0196078 0 0 0 0 0.160784 0 0 0 0.16 0"/>
            <feBlend mode="normal" in2="shape" result="effect1_innerShadow_5913_39612"/>
        </filter>
        <filter id="filter4_i_5913_39612" x="591" y="267" width="98" height="54" filterUnits="userSpaceOnUse" color-interpolation-filters="sRGB">
            <feFlood flood-opacity="0" result="BackgroundImageFix"/>
            <feBlend mode="normal" in="SourceGraphic" in2="BackgroundImageFix" result="shape"/>
            <feColorMatrix in="SourceAlpha" type="matrix" values="0 0 0 0 0 0 0 0 0 0 0 0 0 0 0 0 0 0 127 0" result="hardAlpha"/>
            <feOffset dx="-8" dy="-4"/>
            <feComposite in2="hardAlpha" operator="arithmetic" k2="-1" k3="1"/>
            <feColorMatrix type="matrix" values="0 0 0 0 0.0666667 0 0 0 0 0.0196078 0 0 0 0 0.160784 0 0 0 0.16 0"/>
            <feBlend mode="normal" in2="shape" result="effect1_innerShadow_5913_39612"/>
        </filter>
        <filter id="filter5_i_5913_39612" x="687" y="267" width="146" height="54" filterUnits="userSpaceOnUse" color-interpolation-filters="sRGB">
            <feFlood flood-opacity="0" result="BackgroundImageFix"/>
            <feBlend mode="normal" in="SourceGraphic" in2="BackgroundImageFix" result="shape"/>
            <feColorMatrix in="SourceAlpha" type="matrix" values="0 0 0 0 0 0 0 0 0 0 0 0 0 0 0 0 0 0 127 0" result="hardAlpha"/>
            <feOffset dx="-8" dy="-4"/>
            <feComposite in2="hardAlpha" operator="arithmetic" k2="-1" k3="1"/>
            <feColorMatrix type="matrix" values="0 0 0 0 0.0666667 0 0 0 0 0.0196078 0 0 0 0 0.160784 0 0 0 0.16 0"/>
            <feBlend mode="normal" in2="shape" result="effect1_innerShadow_5913_39612"/>
        </filter>
        <filter id="filter6_i_5913_39612" x="95" y="107" width="66" height="54" filterUnits="userSpaceOnUse" color-interpolation-filters="sRGB">
            <feFlood flood-opacity="0" result="BackgroundImageFix"/>
            <feBlend mode="normal" in="SourceGraphic" in2="BackgroundImageFix" result="shape"/>
            <feColorMatrix in="SourceAlpha" type="matrix" values="0 0 0 0 0 0 0 0 0 0 0 0 0 0 0 0 0 0 127 0" result="hardAlpha"/>
            <feOffset dx="-8" dy="-4"/>
            <feComposite in2="hardAlpha" operator="arithmetic" k2="-1" k3="1"/>
            <feColorMatrix type="matrix" values="0 0 0 0 0.0666667 0 0 0 0 0.0196078 0 0 0 0 0.160784 0 0 0 0.16 0"/>
            <feBlend mode="normal" in2="shape" result="effect1_innerShadow_5913_39612"/>
        </filter>
        <filter id="filter7_i_5913_39612" x="159" y="107" width="54" height="54" filterUnits="userSpaceOnUse" color-interpolation-filters="sRGB">
            <feFlood flood-opacity="0" result="BackgroundImageFix"/>
            <feBlend mode="normal" in="SourceGraphic" in2="BackgroundImageFix" result="shape"/>
            <feColorMatrix in="SourceAlpha" type="matrix" values="0 0 0 0 0 0 0 0 0 0 0 0 0 0 0 0 0 0 127 0" result="hardAlpha"/>
            <feOffset dx="-8" dy="-4"/>
            <feComposite in2="hardAlpha" operator="arithmetic" k2="-1" k3="1"/>
            <feColorMatrix type="matrix" values="0 0 0 0 0.0666667 0 0 0 0 0.0196078 0 0 0 0 0.160784 0 0 0 0.16 0"/>
            <feBlend mode="normal" in2="shape" result="effect1_innerShadow_5913_39612"/>
        </filter>
        <filter id="filter8_i_5913_39612" x="211" y="107" width="352" height="54" filterUnits="userSpaceOnUse" color-interpolation-filters="sRGB">
            <feFlood flood-opacity="0" result="BackgroundImageFix"/>
            <feBlend mode="normal" in="SourceGraphic" in2="BackgroundImageFix" result="shape"/>
            <feColorMatrix in="SourceAlpha" type="matrix" values="0 0 0 0 0 0 0 0 0 0 0 0 0 0 0 0 0 0 127 0" result="hardAlpha"/>
            <feOffset dx="-8" dy="-4"/>
            <feComposite in2="hardAlpha" operator="arithmetic" k2="-1" k3="1"/>
            <feColorMatrix type="matrix" values="0 0 0 0 0.0666667 0 0 0 0 0.0196078 0 0 0 0 0.160784 0 0 0 0.16 0"/>
            <feBlend mode="normal" in2="shape" result="effect1_innerShadow_5913_39612"/>
        </filter>
        <filter id="filter9_i_5913_39612" x="561" y="107" width="32" height="54" filterUnits="userSpaceOnUse" color-interpolation-filters="sRGB">
            <feFlood flood-opacity="0" result="BackgroundImageFix"/>
            <feBlend mode="normal" in="SourceGraphic" in2="BackgroundImageFix" result="shape"/>
            <feColorMatrix in="SourceAlpha" type="matrix" values="0 0 0 0 0 0 0 0 0 0 0 0 0 0 0 0 0 0 127 0" result="hardAlpha"/>
            <feOffset dx="-8" dy="-4"/>
            <feComposite in2="hardAlpha" operator="arithmetic" k2="-1" k3="1"/>
            <feColorMatrix type="matrix" values="0 0 0 0 0.0666667 0 0 0 0 0.0196078 0 0 0 0 0.160784 0 0 0 0.16 0"/>
            <feBlend mode="normal" in2="shape" result="effect1_innerShadow_5913_39612"/>
        </filter>
        <filter id="filter10_i_5913_39612" x="627" y="107" width="32" height="54" filterUnits="userSpaceOnUse" color-interpolation-filters="sRGB">
            <feFlood flood-opacity="0" result="BackgroundImageFix"/>
            <feBlend mode="normal" in="SourceGraphic" in2="BackgroundImageFix" result="shape"/>
            <feColorMatrix in="SourceAlpha" type="matrix" values="0 0 0 0 0 0 0 0 0 0 0 0 0 0 0 0 0 0 127 0" result="hardAlpha"/>
            <feOffset dx="-8" dy="-4"/>
            <feComposite in2="hardAlpha" operator="arithmetic" k2="-1" k3="1"/>
            <feColorMatrix type="matrix" values="0 0 0 0 0.0666667 0 0 0 0 0.0196078 0 0 0 0 0.160784 0 0 0 0.16 0"/>
            <feBlend mode="normal" in2="shape" result="effect1_innerShadow_5913_39612"/>
        </filter>
        <filter id="filter11_i_5913_39612" x="591" y="107" width="38" height="54" filterUnits="userSpaceOnUse" color-interpolation-filters="sRGB">
            <feFlood flood-opacity="0" result="BackgroundImageFix"/>
            <feBlend mode="normal" in="SourceGraphic" in2="BackgroundImageFix" result="shape"/>
            <feColorMatrix in="SourceAlpha" type="matrix" values="0 0 0 0 0 0 0 0 0 0 0 0 0 0 0 0 0 0 127 0" result="hardAlpha"/>
            <feOffset dx="-8" dy="-4"/>
            <feComposite in2="hardAlpha" operator="arithmetic" k2="-1" k3="1"/>
            <feColorMatrix type="matrix" values="0 0 0 0 0.0666667 0 0 0 0 0.0196078 0 0 0 0 0.160784 0 0 0 0.16 0"/>
            <feBlend mode="normal" in2="shape" result="effect1_innerShadow_5913_39612"/>
        </filter>
        <filter id="filter12_i_5913_39612" x="657" y="107" width="98" height="54" filterUnits="userSpaceOnUse" color-interpolation-filters="sRGB">
            <feFlood flood-opacity="0" result="BackgroundImageFix"/>
            <feBlend mode="normal" in="SourceGraphic" in2="BackgroundImageFix" result="shape"/>
            <feColorMatrix in="SourceAlpha" type="matrix" values="0 0 0 0 0 0 0 0 0 0 0 0 0 0 0 0 0 0 127 0" result="hardAlpha"/>
            <feOffset dx="-8" dy="-4"/>
            <feComposite in2="hardAlpha" operator="arithmetic" k2="-1" k3="1"/>
            <feColorMatrix type="matrix" values="0 0 0 0 0.0666667 0 0 0 0 0.0196078 0 0 0 0 0.160784 0 0 0 0.16 0"/>
            <feBlend mode="normal" in2="shape" result="effect1_innerShadow_5913_39612"/>
        </filter>
        <filter id="filter13_i_5913_39612" x="753" y="107" width="146" height="54" filterUnits="userSpaceOnUse" color-interpolation-filters="sRGB">
            <feFlood flood-opacity="0" result="BackgroundImageFix"/>
            <feBlend mode="normal" in="SourceGraphic" in2="BackgroundImageFix" result="shape"/>
            <feColorMatrix in="SourceAlpha" type="matrix" values="0 0 0 0 0 0 0 0 0 0 0 0 0 0 0 0 0 0 127 0" result="hardAlpha"/>
            <feOffset dx="-8" dy="-4"/>
            <feComposite in2="hardAlpha" operator="arithmetic" k2="-1" k3="1"/>
            <feColorMatrix type="matrix" values="0 0 0 0 0.0666667 0 0 0 0 0.0196078 0 0 0 0 0.160784 0 0 0 0.16 0"/>
            <feBlend mode="normal" in2="shape" result="effect1_innerShadow_5913_39612"/>
        </filter>
    </defs>
</svg>
