<svg width="960" height="404" viewBox="0 0 960 404" fill="none" xmlns="http://www.w3.org/2000/svg">
    <rect width="960" height="404" fill="#1D1D29"/>
    <path d="M812 112V24" stroke="white" stroke-opacity="0.3" stroke-width="2" stroke-linecap="square" stroke-dasharray="6 6"/>
    <path d="M896 112V24" stroke="white" stroke-opacity="0.3" stroke-width="2" stroke-linecap="square" stroke-dasharray="6 6"/>
    <path d="M754 112V24" stroke="white" stroke-opacity="0.3" stroke-width="2" stroke-linecap="square" stroke-dasharray="6 6"/>
    <path d="M700.593 37H702.056V32.695H705.724V31.225H702.056V28.383H706.564V26.92H700.593V37ZM707.826 37H709.289V33.381H711.963L713.72 37H715.393L713.489 33.094C714.63 32.597 715.204 31.491 715.204 30.147C715.204 28.516 714.364 27.235 712.677 26.976C712.411 26.934 712.096 26.92 711.9 26.92H707.826V37ZM709.289 31.995V28.299H711.844C712.026 28.299 712.271 28.313 712.481 28.369C713.377 28.579 713.713 29.405 713.713 30.147C713.713 30.889 713.377 31.715 712.481 31.932C712.271 31.981 712.026 31.995 711.844 31.995H709.289ZM721.201 37H722.685V35.243H723.686V33.857H722.685V31.127H721.201V33.857H718.324L721.6 26.92H719.927L716.651 33.857V35.243H721.201V37Z" fill="white" fill-opacity="0.3"/>
    <path d="M670 112V24" stroke="white" stroke-opacity="0.3" stroke-width="2" stroke-linecap="square" stroke-dasharray="6 6"/>
    <path d="M596.682 37.21C599.006 37.21 600.567 35.943 601.162 33.955L599.678 33.556C599.279 34.963 598.278 35.817 596.682 35.817C594.54 35.817 593.448 34.27 593.462 31.96C593.469 29.65 594.54 28.103 596.682 28.103C598.278 28.103 599.279 28.957 599.678 30.364L601.162 29.965C600.567 27.977 599.006 26.71 596.682 26.71C593.658 26.71 591.915 28.845 591.915 31.96C591.915 35.075 593.658 37.21 596.682 37.21ZM602.702 37H605.859C606.041 37 606.643 37 607.112 36.937C609.478 36.636 610.738 34.529 610.738 31.96C610.738 29.391 609.478 27.284 607.112 26.983C606.643 26.92 606.041 26.92 605.859 26.92H602.702V37ZM604.2 35.607V28.313H605.859C606.167 28.313 606.671 28.32 607.007 28.383C608.519 28.663 609.184 30.189 609.184 31.96C609.184 33.689 608.547 35.243 607.007 35.537C606.671 35.6 606.181 35.607 605.859 35.607H604.2ZM612.368 37H613.831V33.381H616.505L618.262 37H619.935L618.031 33.094C619.172 32.597 619.746 31.491 619.746 30.147C619.746 28.516 618.906 27.235 617.219 26.976C616.953 26.934 616.638 26.92 616.442 26.92H612.368V37ZM613.831 31.995V28.299H616.386C616.568 28.299 616.813 28.313 617.023 28.369C617.919 28.579 618.255 29.405 618.255 30.147C618.255 30.889 617.919 31.715 617.023 31.932C616.813 31.981 616.568 31.995 616.386 31.995H613.831ZM624.294 37.189C626.177 37.189 627.661 35.796 627.661 33.871C627.661 32.233 626.653 30.924 625.022 30.707L627.514 28.313V26.92H621.452V28.313H625.722L622.642 31.036L623.328 32.191C623.615 32.037 623.958 31.939 624.28 31.939C625.4 31.939 626.163 32.751 626.163 33.871C626.163 34.984 625.4 35.789 624.294 35.803C623.468 35.81 622.733 35.341 622.467 34.466L621.053 34.858C621.48 36.293 622.796 37.189 624.294 37.189Z" fill="white" fill-opacity="0.3"/>
    <path d="M212 112V24" stroke="white" stroke-opacity="0.3" stroke-width="2" stroke-linecap="square" stroke-dasharray="6 6"/>
    <path d="M227.268 37.21C229.151 37.21 230.768 35.705 230.768 33.829C230.768 31.939 229.382 30.525 227.499 30.525C226.904 30.525 226.274 30.714 225.777 31.071L225.945 28.299H230.075V26.92H224.636L224.328 32.219L225.602 32.667C225.917 32.247 226.484 31.855 227.31 31.855C228.388 31.855 229.291 32.723 229.291 33.829C229.291 34.907 228.416 35.796 227.31 35.796C226.47 35.796 225.637 35.229 225.406 34.333L223.999 34.711C224.412 36.181 225.714 37.21 227.268 37.21ZM232.672 29.629L232.581 30.28C233.589 30.462 234.128 29.846 234.128 28.747V26.92H232.581V28.607H233.386C233.456 29.202 233.281 29.678 232.672 29.629ZM240.15 37.21C242.523 37.21 244.168 35.663 244.168 33.29V26.92H242.684V33.213C242.684 34.914 241.417 35.831 240.15 35.831C238.897 35.831 237.616 34.935 237.616 33.213V26.92L236.132 26.927V33.29C236.132 35.663 237.777 37.21 240.15 37.21ZM248.639 37H250.102V28.299H253.455V26.92H245.286V28.299H248.639V37ZM254.576 37H256.039V33.381H258.713L260.47 37H262.143L260.239 33.094C261.38 32.597 261.954 31.491 261.954 30.147C261.954 28.516 261.114 27.235 259.427 26.976C259.161 26.934 258.846 26.92 258.65 26.92H254.576V37ZM256.039 31.995V28.299H258.594C258.776 28.299 259.021 28.313 259.231 28.369C260.127 28.579 260.463 29.405 260.463 30.147C260.463 30.889 260.127 31.715 259.231 31.932C259.021 31.981 258.776 31.995 258.594 31.995H256.039Z" fill="white" fill-opacity="0.3"/>
    <path d="M274 112V24" stroke="white" stroke-opacity="0.3" stroke-width="2" stroke-linecap="square" stroke-dasharray="6 6"/>
    <path d="M284.442 37H290.469V35.621H285.905V26.92H284.442V37Z" fill="white" fill-opacity="0.3"/>
    <path d="M300 112V24" stroke="white" stroke-opacity="0.3" stroke-width="2" stroke-linecap="square" stroke-dasharray="6 6"/>
    <path d="M314.858 37H316.321V32.695H319.989V31.225H316.321V28.383H320.829V26.92H314.858V37ZM322.09 37H323.553V33.381H326.227L327.984 37H329.657L327.753 33.094C328.894 32.597 329.468 31.491 329.468 30.147C329.468 28.516 328.628 27.235 326.941 26.976C326.675 26.934 326.36 26.92 326.164 26.92H322.09V37ZM323.553 31.995V28.299H326.108C326.29 28.299 326.535 28.313 326.745 28.369C327.641 28.579 327.977 29.405 327.977 30.147C327.977 30.889 327.641 31.715 326.745 31.932C326.535 31.981 326.29 31.995 326.108 31.995H323.553ZM332.953 37H334.444V26.92H332.953L331.056 28.054V29.685L332.953 28.53V37Z" fill="white" fill-opacity="0.3"/>
    <path d="M350 112V24" stroke="white" stroke-opacity="0.3" stroke-width="2" stroke-linecap="square" stroke-dasharray="6 6"/>
    <path d="M362.735 37.21C365.059 37.21 366.62 35.943 367.215 33.955L365.731 33.556C365.332 34.963 364.331 35.817 362.735 35.817C360.593 35.817 359.501 34.27 359.515 31.96C359.522 29.65 360.593 28.103 362.735 28.103C364.331 28.103 365.332 28.957 365.731 30.364L367.215 29.965C366.62 27.977 365.059 26.71 362.735 26.71C359.711 26.71 357.968 28.845 357.968 31.96C357.968 35.075 359.711 37.21 362.735 37.21ZM368.754 37H371.911C372.093 37 372.695 37 373.164 36.937C375.53 36.636 376.79 34.529 376.79 31.96C376.79 29.391 375.53 27.284 373.164 26.983C372.695 26.92 372.093 26.92 371.911 26.92H368.754V37ZM370.252 35.607V28.313H371.911C372.219 28.313 372.723 28.32 373.059 28.383C374.571 28.663 375.236 30.189 375.236 31.96C375.236 33.689 374.599 35.243 373.059 35.537C372.723 35.6 372.233 35.607 371.911 35.607H370.252ZM378.42 37H379.883V33.381H382.557L384.314 37H385.987L384.083 33.094C385.224 32.597 385.798 31.491 385.798 30.147C385.798 28.516 384.958 27.235 383.271 26.976C383.005 26.934 382.69 26.92 382.494 26.92H378.42V37ZM379.883 31.995V28.299H382.438C382.62 28.299 382.865 28.313 383.075 28.369C383.971 28.579 384.307 29.405 384.307 30.147C384.307 30.889 383.971 31.715 383.075 31.932C382.865 31.981 382.62 31.995 382.438 31.995H379.883ZM389.283 37H390.774V26.92H389.283L387.386 28.054V29.685L389.283 28.53V37Z" fill="white" fill-opacity="0.3"/>
    <path d="M400 112V24" stroke="white" stroke-opacity="0.3" stroke-width="2" stroke-linecap="square" stroke-dasharray="6 6"/>
    <path d="M413.703 37H415.166V32.695H418.834V31.225H415.166V28.383H419.674V26.92H413.703V37ZM420.935 37H422.398V33.381H425.072L426.829 37H428.502L426.598 33.094C427.739 32.597 428.313 31.491 428.313 30.147C428.313 28.516 427.473 27.235 425.786 26.976C425.52 26.934 425.205 26.92 425.009 26.92H420.935V37ZM422.398 31.995V28.299H424.953C425.135 28.299 425.38 28.313 425.59 28.369C426.486 28.579 426.822 29.405 426.822 30.147C426.822 30.889 426.486 31.715 425.59 31.932C425.38 31.981 425.135 31.995 424.953 31.995H422.398ZM429.761 36.993H436.579V35.6H432.022L434.941 32.996C436.033 32.037 436.579 31.407 436.579 30.028C436.579 28.117 435.144 26.71 433.24 26.71C431.231 26.71 429.796 28.047 429.796 30H431.294C431.28 28.985 432.092 28.103 433.212 28.103C434.297 28.103 435.074 28.929 435.074 30.007C435.074 30.581 434.864 31.127 434.157 31.757L429.768 35.691L429.761 36.993Z" fill="white" fill-opacity="0.3"/>
    <path d="M450 112V24" stroke="white" stroke-opacity="0.3" stroke-width="2" stroke-linecap="square" stroke-dasharray="6 6"/>
    <path d="M461.58 37.21C463.904 37.21 465.465 35.943 466.06 33.955L464.576 33.556C464.177 34.963 463.176 35.817 461.58 35.817C459.438 35.817 458.346 34.27 458.36 31.96C458.367 29.65 459.438 28.103 461.58 28.103C463.176 28.103 464.177 28.957 464.576 30.364L466.06 29.965C465.465 27.977 463.904 26.71 461.58 26.71C458.556 26.71 456.813 28.845 456.813 31.96C456.813 35.075 458.556 37.21 461.58 37.21ZM467.599 37H470.756C470.938 37 471.54 37 472.009 36.937C474.375 36.636 475.635 34.529 475.635 31.96C475.635 29.391 474.375 27.284 472.009 26.983C471.54 26.92 470.938 26.92 470.756 26.92H467.599V37ZM469.097 35.607V28.313H470.756C471.064 28.313 471.568 28.32 471.904 28.383C473.416 28.663 474.081 30.189 474.081 31.96C474.081 33.689 473.444 35.243 471.904 35.537C471.568 35.6 471.078 35.607 470.756 35.607H469.097ZM477.265 37H478.728V33.381H481.402L483.159 37H484.832L482.928 33.094C484.069 32.597 484.643 31.491 484.643 30.147C484.643 28.516 483.803 27.235 482.116 26.976C481.85 26.934 481.535 26.92 481.339 26.92H477.265V37ZM478.728 31.995V28.299H481.283C481.465 28.299 481.71 28.313 481.92 28.369C482.816 28.579 483.152 29.405 483.152 30.147C483.152 30.889 482.816 31.715 481.92 31.932C481.71 31.981 481.465 31.995 481.283 31.995H478.728ZM486.091 36.993H492.909V35.6H488.352L491.271 32.996C492.363 32.037 492.909 31.407 492.909 30.028C492.909 28.117 491.474 26.71 489.57 26.71C487.561 26.71 486.126 28.047 486.126 30H487.624C487.61 28.985 488.422 28.103 489.542 28.103C490.627 28.103 491.404 28.929 491.404 30.007C491.404 30.581 491.194 31.127 490.487 31.757L486.098 35.691L486.091 36.993Z" fill="white" fill-opacity="0.3"/>
    <path d="M500 112V24" stroke="white" stroke-opacity="0.3" stroke-width="2" stroke-linecap="square" stroke-dasharray="6 6"/>
    <path d="M513.805 37H515.268V32.695H518.936V31.225H515.268V28.383H519.776V26.92H513.805V37ZM521.038 37H522.501V33.381H525.175L526.932 37H528.605L526.701 33.094C527.842 32.597 528.416 31.491 528.416 30.147C528.416 28.516 527.576 27.235 525.889 26.976C525.623 26.934 525.308 26.92 525.112 26.92H521.038V37ZM522.501 31.995V28.299H525.056C525.238 28.299 525.483 28.313 525.693 28.369C526.589 28.579 526.925 29.405 526.925 30.147C526.925 30.889 526.589 31.715 525.693 31.932C525.483 31.981 525.238 31.995 525.056 31.995H522.501ZM532.964 37.189C534.847 37.189 536.331 35.796 536.331 33.871C536.331 32.233 535.323 30.924 533.692 30.707L536.184 28.313V26.92H530.122V28.313H534.392L531.312 31.036L531.998 32.191C532.285 32.037 532.628 31.939 532.95 31.939C534.07 31.939 534.833 32.751 534.833 33.871C534.833 34.984 534.07 35.789 532.964 35.803C532.138 35.81 531.403 35.341 531.137 34.466L529.723 34.858C530.15 36.293 531.466 37.189 532.964 37.189Z" fill="white" fill-opacity="0.3"/>
    <path d="M550 112V24" stroke="white" stroke-opacity="0.3" stroke-width="2" stroke-linecap="square" stroke-dasharray="6 6"/>
    <rect width="42" height="20" transform="translate(106 76)" fill="#1D1D29"/>
    <path d="M113.128 92H114.576V80.48H113.128L110.96 81.776V83.368L113.128 82.056V92ZM118.228 92H119.764L123.9 81.848V80.48H117.14V81.848H122.372L118.228 92ZM129.791 92.24C132.207 92.24 133.663 90.264 133.663 87.672C133.663 85.08 132.199 83.12 129.799 83.12C128.719 83.12 127.863 83.496 127.247 84.144V80.48H125.815V92H127.087V91.024C127.719 91.784 128.623 92.24 129.791 92.24ZM127.087 87.672C127.087 85.76 127.887 84.424 129.575 84.424C131.335 84.424 132.151 85.848 132.151 87.672C132.151 89.512 131.319 90.936 129.615 90.936C127.871 90.936 127.087 89.568 127.087 87.672ZM139.385 92.24C141.801 92.24 143.257 90.264 143.257 87.672C143.257 85.08 141.793 83.12 139.393 83.12C138.217 83.12 137.313 83.568 136.681 84.328V83.36H135.409V95.84H136.841V91.2C137.457 91.856 138.313 92.24 139.385 92.24ZM136.681 87.672C136.681 85.76 137.481 84.424 139.169 84.424C140.929 84.424 141.745 85.848 141.745 87.672C141.745 89.512 140.913 90.936 139.209 90.936C137.465 90.936 136.681 89.568 136.681 87.672Z" fill="white"/>
    <rect width="59" height="20" transform="translate(156 76)" fill="#1D1D29"/>
    <path d="M161.728 92H163.264L167.4 81.848V80.48H160.64V81.848H165.872L161.728 92ZM169.163 86.824H173.963V85.648H169.163V86.824ZM178.05 92H179.498V80.48H178.05L175.882 81.776V83.368L178.05 82.056V92ZM186.43 92.24C188.67 92.24 190.318 90.592 190.318 88.352V84.128C190.318 81.888 188.67 80.24 186.43 80.24C184.19 80.24 182.542 81.888 182.542 84.128V88.352C182.542 90.592 184.19 92.24 186.43 92.24ZM183.99 88.432V84.04C183.99 82.688 185.078 81.6 186.43 81.6C187.782 81.6 188.87 82.688 188.87 84.04V88.432C188.87 89.784 187.782 90.872 186.43 90.872C185.078 90.872 183.99 89.784 183.99 88.432ZM196.526 92.24C198.942 92.24 200.398 90.264 200.398 87.672C200.398 85.08 198.934 83.12 196.534 83.12C195.454 83.12 194.598 83.496 193.982 84.144V80.48H192.55V92H193.822V91.024C194.454 91.784 195.358 92.24 196.526 92.24ZM193.822 87.672C193.822 85.76 194.622 84.424 196.31 84.424C198.07 84.424 198.886 85.848 198.886 87.672C198.886 89.512 198.054 90.936 196.35 90.936C194.606 90.936 193.822 89.568 193.822 87.672ZM206.119 92.24C208.535 92.24 209.991 90.264 209.991 87.672C209.991 85.08 208.527 83.12 206.127 83.12C204.951 83.12 204.047 83.568 203.415 84.328V83.36H202.143V95.84H203.575V91.2C204.191 91.856 205.047 92.24 206.119 92.24ZM203.415 87.672C203.415 85.76 204.215 84.424 205.903 84.424C207.663 84.424 208.479 85.848 208.479 87.672C208.479 89.512 207.647 90.936 205.943 90.936C204.199 90.936 203.415 89.568 203.415 87.672Z" fill="white"/>
    <g filter="url(#filter0_i_5910_38000)">
        <rect x="96" y="268" width="64" height="52" rx="1" fill="#D6E0FF"/>
        <path d="M117.053 302.3C120.393 302.3 122.733 300.1 122.733 296.75V287.6H120.933V296.6C120.933 299.31 118.893 300.62 117.053 300.62C115.233 300.62 113.173 299.33 113.173 296.6V287.6L111.373 287.61V296.75C111.373 300.11 113.713 302.3 117.053 302.3ZM125.533 302H127.223V291.51L132.113 302H133.063L137.953 291.51V301.99H139.643V287.6H138.003L132.593 299.07L127.153 287.6H125.533V302ZM142.647 302H144.427V287.6H142.647V302Z" fill="#110529"/>
        <rect x="96" y="268" width="64" height="52" rx="1" stroke="#110529" stroke-width="2" stroke-linecap="round"/>
    </g>
    <g filter="url(#filter1_i_5910_38000)">
        <rect x="160" y="268" width="52" height="52" rx="1" fill="#D3D7E0"/>
        <path d="M178.815 302H180.595V289.29H185.505V287.6H173.905V289.29H178.815V302ZM192.207 302.3C195.197 302.3 197.597 300.77 197.597 297.98C197.597 295.21 195.227 294.5 193.977 294.15L191.237 293.36C190.167 293.06 188.837 292.6 188.837 291.27C188.837 289.94 190.207 288.98 191.977 289C193.807 289.02 195.317 290.1 195.617 291.85L197.507 291.52C196.977 288.9 194.897 287.33 191.997 287.31C189.127 287.3 186.957 288.8 186.957 291.35C186.957 293.48 188.477 294.41 190.077 294.88L193.747 295.97C194.777 296.28 195.757 296.82 195.757 298.08C195.757 299.65 194.227 300.61 192.297 300.61C190.287 300.61 188.697 299.54 188.237 297.72L186.397 298.01C186.877 300.66 189.147 302.3 192.207 302.3Z" fill="#110529"/>
        <rect x="160" y="268" width="52" height="52" rx="1" stroke="#110529" stroke-width="2" stroke-linecap="round"/>
    </g>
    <g filter="url(#filter2_i_5910_38000)">
        <rect x="212" y="268" width="350" height="52" rx="1" fill="#99E099"/>
        <path d="M385.758 302H388.238L393.058 287.6H391.208L386.978 300.11L382.788 287.6H380.938L385.758 302Z" fill="#110529"/>
        <rect x="212" y="268" width="350" height="52" rx="1" stroke="#110529" stroke-width="2" stroke-linecap="round"/>
    </g>
    <g filter="url(#filter3_i_5910_38000)">
        <rect x="562" y="268" width="30" height="52" rx="1" fill="#CBEB67"/>
    </g>
    <rect x="562" y="268" width="30" height="52" rx="1" stroke="#110529" stroke-width="2" stroke-linecap="round"/>
    <path d="M571.447 302V287.6H573.247L580.757 298.85V287.6H582.557V302H580.757L573.247 290.74V302H571.447Z" fill="#110529"/>
    <g filter="url(#filter4_i_5910_38000)">
        <path d="M688 269.6C688 269.04 688 268.76 687.891 268.546C687.795 268.358 687.642 268.205 687.454 268.109C687.24 268 686.96 268 686.4 268H593.6C593.04 268 592.76 268 592.546 268.109C592.358 268.205 592.205 268.358 592.109 268.546C592 268.76 592 269.04 592 269.6V294V318.4C592 318.96 592 319.24 592.109 319.454C592.205 319.642 592.358 319.795 592.546 319.891C592.76 320 593.04 320 593.6 320H686.4C686.96 320 687.24 320 687.454 319.891C687.642 319.795 687.795 319.642 687.891 319.454C688 319.24 688 318.96 688 318.4V313.5V307V300V294V287.5V281V274.5V269.6Z" fill="#C1ADFF"/>
    </g>
    <path d="M688 269.6C688 269.04 688 268.76 687.891 268.546C687.795 268.358 687.642 268.205 687.454 268.109C687.24 268 686.96 268 686.4 268H593.6C593.04 268 592.76 268 592.546 268.109C592.358 268.205 592.205 268.358 592.109 268.546C592 268.76 592 269.04 592 269.6V294V318.4C592 318.96 592 319.24 592.109 319.454C592.205 319.642 592.358 319.795 592.546 319.891C592.76 320 593.04 320 593.6 320H686.4C686.96 320 687.24 320 687.454 319.891C687.642 319.795 687.795 319.642 687.891 319.454C688 319.24 688 318.96 688 318.4V313.5V307V300V294V287.5V281V274.5V269.6Z" stroke="#110529" stroke-width="2" stroke-linecap="round"/>
    <path d="M637.227 302.29C636.221 302.29 635.367 302.017 634.667 301.47C633.967 300.923 633.487 300.19 633.227 299.27L634.997 298.85C635.104 299.337 635.361 299.75 635.767 300.09C636.181 300.43 636.654 300.6 637.187 300.6C637.534 300.6 637.887 300.517 638.247 300.35C638.607 300.177 638.884 299.897 639.077 299.51C639.211 299.243 639.287 298.95 639.307 298.63C639.327 298.303 639.337 297.92 639.337 297.48V287.6H641.137V297.48C641.137 297.893 641.134 298.263 641.127 298.59C641.127 298.917 641.094 299.23 641.027 299.53C640.967 299.823 640.847 300.123 640.667 300.43C640.307 301.063 639.824 301.533 639.217 301.84C638.617 302.14 637.954 302.29 637.227 302.29Z" fill="#110529"/>
    <g filter="url(#filter5_i_5910_38000)">
        <rect x="688" y="268" width="144" height="52" rx="1" fill="#FAFAAA"/>
        <path d="M759.593 302.3C758.16 302.3 756.943 301.983 755.943 301.35C754.943 300.717 754.18 299.837 753.653 298.71C753.133 297.583 752.873 296.28 752.873 294.8C752.873 293.32 753.133 292.017 753.653 290.89C754.18 289.763 754.943 288.883 755.943 288.25C756.943 287.617 758.16 287.3 759.593 287.3C761.26 287.3 762.63 287.723 763.703 288.57C764.783 289.417 765.527 290.557 765.933 291.99L764.123 292.47C763.83 291.397 763.307 290.55 762.553 289.93C761.8 289.31 760.813 289 759.593 289C758.52 289 757.627 289.243 756.913 289.73C756.2 290.217 755.663 290.897 755.303 291.77C754.943 292.637 754.76 293.647 754.753 294.8C754.747 295.947 754.923 296.957 755.283 297.83C755.643 298.697 756.183 299.377 756.903 299.87C757.623 300.357 758.52 300.6 759.593 300.6C760.813 300.6 761.8 300.29 762.553 299.67C763.307 299.043 763.83 298.197 764.123 297.13L765.933 297.61C765.527 299.037 764.783 300.177 763.703 301.03C762.63 301.877 761.26 302.3 759.593 302.3Z" fill="#110529"/>
        <rect x="688" y="268" width="144" height="52" rx="1" stroke="#110529" stroke-width="2" stroke-linecap="round"/>
    </g>
    <g filter="url(#filter6_i_5910_38000)">
        <rect x="96" y="108" width="64" height="52" rx="1" fill="#D6E0FF"/>
        <path d="M117.053 142.3C120.393 142.3 122.733 140.1 122.733 136.75V127.6H120.933V136.6C120.933 139.31 118.893 140.62 117.053 140.62C115.233 140.62 113.173 139.33 113.173 136.6V127.6L111.373 127.61V136.75C111.373 140.11 113.713 142.3 117.053 142.3ZM125.533 142H127.223V131.51L132.113 142H133.063L137.953 131.51V141.99H139.643V127.6H138.003L132.593 139.07L127.153 127.6H125.533V142ZM142.647 142H144.427V127.6H142.647V142Z" fill="#110529"/>
        <rect x="96" y="108" width="64" height="52" rx="1" stroke="#110529" stroke-width="2" stroke-linecap="round"/>
    </g>
    <g filter="url(#filter7_i_5910_38000)">
        <rect x="160" y="108" width="52" height="52" rx="1" fill="#D3D7E0"/>
        <path d="M178.815 142H180.595V129.29H185.505V127.6H173.905V129.29H178.815V142ZM192.207 142.3C195.197 142.3 197.597 140.77 197.597 137.98C197.597 135.21 195.227 134.5 193.977 134.15L191.237 133.36C190.167 133.06 188.837 132.6 188.837 131.27C188.837 129.94 190.207 128.98 191.977 129C193.807 129.02 195.317 130.1 195.617 131.85L197.507 131.52C196.977 128.9 194.897 127.33 191.997 127.31C189.127 127.3 186.957 128.8 186.957 131.35C186.957 133.48 188.477 134.41 190.077 134.88L193.747 135.97C194.777 136.28 195.757 136.82 195.757 138.08C195.757 139.65 194.227 140.61 192.297 140.61C190.287 140.61 188.697 139.54 188.237 137.72L186.397 138.01C186.877 140.66 189.147 142.3 192.207 142.3Z" fill="#110529"/>
        <rect x="160" y="108" width="52" height="52" rx="1" stroke="#110529" stroke-width="2" stroke-linecap="round"/>
    </g>
    <g filter="url(#filter8_i_5910_38000)">
        <rect x="212" y="108" width="350" height="52" rx="1" fill="#99E099"/>
        <path d="M385.758 142H388.238L393.058 127.6H391.208L386.978 140.11L382.788 127.6H380.938L385.758 142Z" fill="#110529"/>
        <rect x="212" y="108" width="350" height="52" rx="1" stroke="#110529" stroke-width="2" stroke-linecap="round"/>
    </g>
    <g filter="url(#filter9_i_5910_38000)">
        <rect x="562" y="108" width="30" height="52" rx="1" fill="#CBEB67"/>
    </g>
    <rect x="562" y="108" width="30" height="52" rx="1" stroke="#110529" stroke-width="2" stroke-linecap="round"/>
    <g filter="url(#filter10_i_5910_38000)">
        <rect x="628" y="108" width="30" height="52" rx="1" fill="#FAAAFA"/>
    </g>
    <rect x="628" y="108" width="30" height="52" rx="1" stroke="#110529" stroke-width="2" stroke-linecap="round"/>
    <g filter="url(#filter11_i_5910_38000)">
        <rect x="592" y="108" width="36" height="52" rx="1" fill="#FFCB8F"/>
    </g>
    <rect x="592" y="108" width="36" height="52" rx="1" stroke="#110529" stroke-width="2" stroke-linecap="round"/>
    <path d="M571.447 142H573.247V130.74L580.757 142H582.557V127.6H580.757V138.85L573.247 127.6H571.447V142Z" fill="#110529"/>
    <path d="M637.447 142H639.247V130.74L646.757 142H648.557V127.6H646.757V138.85L639.247 127.6H637.447V142Z" fill="#110529"/>
    <path d="M604.593 142H609.033C609.303 142 610.183 142 610.853 141.91C614.183 141.47 615.913 138.48 615.913 134.8C615.913 131.13 614.183 128.13 610.853 127.69C610.173 127.6 609.313 127.6 609.033 127.6H604.593V142ZM606.423 140.3V129.3H609.033C609.513 129.3 610.233 129.32 610.703 129.41C613.033 129.83 614.023 132.08 614.023 134.8C614.023 137.47 613.063 139.76 610.703 140.19C610.233 140.28 609.533 140.3 609.033 140.3H606.423Z" fill="#110529"/>
    <g filter="url(#filter12_i_5910_38000)">
        <rect x="658" y="108" width="96" height="52" rx="1" fill="#C1ADFF"/>
        <path d="M705.244 142.29C706.694 142.29 707.954 141.7 708.684 140.43C709.214 139.51 709.154 138.72 709.154 137.48V127.6H707.354V137.48C707.354 138.37 707.354 138.99 707.094 139.51C706.704 140.29 705.884 140.6 705.204 140.6C704.134 140.6 703.224 139.83 703.014 138.85L701.244 139.27C701.754 141.11 703.224 142.29 705.244 142.29Z" fill="#110529"/>
        <rect x="658" y="108" width="96" height="52" rx="1" stroke="#110529" stroke-width="2" stroke-linecap="round"/>
    </g>
    <g filter="url(#filter13_i_5910_38000)">
        <rect x="754" y="108" width="144" height="52" rx="1" fill="#FAFAAA"/>
        <path d="M825.593 142.3C824.16 142.3 822.943 141.983 821.943 141.35C820.943 140.717 820.18 139.837 819.653 138.71C819.133 137.583 818.873 136.28 818.873 134.8C818.873 133.32 819.133 132.017 819.653 130.89C820.18 129.763 820.943 128.883 821.943 128.25C822.943 127.617 824.16 127.3 825.593 127.3C827.26 127.3 828.63 127.723 829.703 128.57C830.783 129.417 831.527 130.557 831.933 131.99L830.123 132.47C829.83 131.397 829.307 130.55 828.553 129.93C827.8 129.31 826.813 129 825.593 129C824.52 129 823.627 129.243 822.913 129.73C822.2 130.217 821.663 130.897 821.303 131.77C820.943 132.637 820.76 133.647 820.753 134.8C820.747 135.947 820.923 136.957 821.283 137.83C821.643 138.697 822.183 139.377 822.903 139.87C823.623 140.357 824.52 140.6 825.593 140.6C826.813 140.6 827.8 140.29 828.553 139.67C829.307 139.043 829.83 138.197 830.123 137.13L831.933 137.61C831.527 139.037 830.783 140.177 829.703 141.03C828.63 141.877 827.26 142.3 825.593 142.3Z" fill="#110529"/>
        <rect x="754" y="108" width="144" height="52" rx="1" stroke="#110529" stroke-width="2" stroke-linecap="round"/>
    </g>
    <path d="M25.6881 142H27.4681V129.29H32.3781V127.6H20.7781V129.29H25.6881V142ZM39.8903 142.3C43.2203 142.3 45.4103 140.47 46.2303 137.61L44.4203 137.13C43.8303 139.27 42.3203 140.6 39.8903 140.6C36.6703 140.6 35.0303 138.25 35.0503 134.8C35.0703 131.35 36.6703 129 39.8903 129C42.3203 129 43.8303 130.33 44.4203 132.47L46.2303 131.99C45.4103 129.13 43.2203 127.3 39.8903 127.3C35.5803 127.3 33.1703 130.36 33.1703 134.8C33.1703 139.24 35.5803 142.3 39.8903 142.3ZM48.4234 142H50.2034V136.68H54.4134L56.9934 142H59.0334L56.2534 136.29C57.8834 135.61 58.7334 134.04 58.7334 132.14C58.7334 129.85 57.5034 128.04 55.1734 127.68C54.8034 127.62 54.3934 127.6 54.1134 127.6H48.4234V142ZM50.2034 134.99V129.29H54.0534C54.3034 129.29 54.6534 129.31 54.9534 129.38C56.3334 129.69 56.9134 130.94 56.9134 132.14C56.9134 133.34 56.3334 134.59 54.9534 134.9C54.6534 134.97 54.3034 134.99 54.0534 134.99H50.2034ZM65.2298 131.2V146.8H67.0098V141.39C67.7198 141.96 68.7098 142.3 69.9398 142.3C72.9898 142.3 74.8398 140.57 74.8398 137.95C74.8398 135.74 73.4398 134.44 72.0498 134.09C73.0998 133.58 73.6098 132.5 73.6098 131.22C73.6098 128.84 71.8598 127.3 69.3698 127.3C67.5098 127.3 65.9798 128.16 65.4498 129.78C65.2998 130.23 65.2298 130.71 65.2298 131.2ZM67.0498 137.71V131.86C67.0498 131.44 67.0698 130.8 67.2798 130.28C67.6398 129.35 68.5198 128.99 69.4098 128.99C70.7898 128.99 71.7898 129.82 71.7898 131.24C71.7898 132.67 70.7898 133.4 69.4198 133.54V135.14C71.6098 135.18 73.0298 136.1 73.0298 137.87C73.0298 139.52 71.7898 140.61 70.0198 140.61C68.7698 140.61 67.5298 140.04 67.1998 139.01C67.0798 138.64 67.0498 138.1 67.0498 137.71Z" fill="white"/>
    <path d="M25.3268 302H27.1068V289.29H32.0168V287.6H20.4168V289.29H25.3268V302ZM39.529 302.3C42.859 302.3 45.049 300.47 45.869 297.61L44.059 297.13C43.469 299.27 41.959 300.6 39.529 300.6C36.309 300.6 34.669 298.25 34.689 294.8C34.709 291.35 36.309 289 39.529 289C41.959 289 43.469 290.33 44.059 292.47L45.869 291.99C45.049 289.13 42.859 287.3 39.529 287.3C35.219 287.3 32.809 290.36 32.809 294.8C32.809 299.24 35.219 302.3 39.529 302.3ZM48.0621 302H49.8421V296.68H54.0521L56.6321 302H58.6721L55.8921 296.29C57.5221 295.61 58.3721 294.04 58.3721 292.14C58.3721 289.85 57.1421 288.04 54.8121 287.68C54.4421 287.62 54.0321 287.6 53.7521 287.6H48.0621V302ZM49.8421 294.99V289.29H53.6921C53.9421 289.29 54.2921 289.31 54.5921 289.38C55.9721 289.69 56.5521 290.94 56.5521 292.14C56.5521 293.34 55.9721 294.59 54.5921 294.9C54.2921 294.97 53.9421 294.99 53.6921 294.99H49.8421ZM69.1485 302.3C70.7885 302.3 72.0985 301.54 72.7985 300.24V302H74.3885V291.2H72.7985V292.93C72.1085 291.65 70.8485 290.9 69.1985 290.9C66.0985 290.9 64.2785 293.35 64.2785 296.6C64.2785 299.83 66.0885 302.3 69.1485 302.3ZM66.1685 296.6C66.1685 294.19 67.2785 292.53 69.3885 292.53C71.4985 292.53 72.4985 294.2 72.4985 296.59C72.4985 298.96 71.5085 300.67 69.3685 300.67C67.1985 300.67 66.1685 298.88 66.1685 296.6Z" fill="white"/>
    <rect x="789" y="56" width="138" height="22" fill="#1D1D29"/>
    <path d="M802.684 72.24C805.348 72.24 807.1 70.776 807.756 68.488L806.308 68.104C805.836 69.816 804.628 70.88 802.684 70.88C800.108 70.88 798.796 69 798.812 66.24C798.828 63.48 800.108 61.6 802.684 61.6C804.628 61.6 805.836 62.664 806.308 64.376L807.756 63.992C807.1 61.704 805.348 60.24 802.684 60.24C799.236 60.24 797.308 62.688 797.308 66.24C797.308 69.792 799.236 72.24 802.684 72.24ZM809.351 67.544H814.151V66.368H809.351V67.544ZM816.229 72H817.661V67.664C817.661 66.64 817.869 65.624 818.709 65.024C819.309 64.584 820.085 64.544 820.685 64.696V63.36C819.917 63.192 818.901 63.352 818.237 63.888C817.949 64.096 817.693 64.392 817.501 64.728V63.36H816.229V72ZM825.786 72.24C827.458 72.24 828.89 71.368 829.57 69.84L828.202 69.368C827.722 70.352 826.858 70.888 825.722 70.888C824.13 70.888 823.202 69.872 823.09 68.08H829.714C829.842 65.008 828.322 63.12 825.722 63.12C823.21 63.12 821.562 64.904 821.562 67.736C821.562 70.44 823.234 72.24 825.786 72.24ZM823.114 66.936C823.314 65.296 824.218 64.4 825.77 64.4C827.234 64.4 828.058 65.24 828.234 66.936H823.114ZM834.991 76.08C837.055 76.08 838.415 75.224 838.751 73.384C838.831 72.96 838.855 72.536 838.855 72.056V63.36H837.591V64.328C836.959 63.568 836.055 63.12 834.879 63.12C832.479 63.12 831.015 65.08 831.015 67.672C831.015 70.264 832.471 72.24 834.887 72.24C835.951 72.24 836.807 71.856 837.423 71.208V72.04C837.439 73.8 836.647 74.704 834.999 74.704C834.159 74.704 833.303 74.344 832.879 73.496L831.575 74.184C832.295 75.472 833.631 76.08 834.991 76.08ZM832.527 67.672C832.527 65.848 833.343 64.424 835.103 64.424C836.791 64.424 837.591 65.76 837.591 67.672C837.591 69.568 836.807 70.936 835.063 70.936C833.359 70.936 832.527 69.512 832.527 67.672ZM841.249 61.832H842.673V60.36H841.249V61.832ZM841.249 72H842.673V63.36H841.249V72ZM848.753 72.24C851.321 72.24 852.921 70.384 852.921 67.672C852.921 65 851.345 63.12 848.753 63.12C846.217 63.12 844.593 64.96 844.593 67.672C844.593 70.352 846.169 72.24 848.753 72.24ZM846.105 67.672C846.105 65.784 846.945 64.472 848.753 64.472C850.521 64.472 851.409 65.728 851.409 67.672C851.409 69.576 850.537 70.888 848.753 70.888C847.009 70.888 846.105 69.624 846.105 67.672ZM860.835 67.672V72H862.275V67.224C862.275 65.584 861.619 63.136 858.835 63.136C857.587 63.136 856.595 63.616 855.955 64.472V63.36H854.675V72H856.115V67.448C856.115 65.448 857.059 64.488 858.491 64.488C860.315 64.488 860.835 66.048 860.835 67.672ZM871.526 72.24C873.942 72.24 875.398 70.264 875.398 67.672C875.398 65.08 873.934 63.12 871.534 63.12C870.358 63.12 869.454 63.568 868.822 64.328V63.36H867.55V75.84H868.982V71.2C869.598 71.856 870.454 72.24 871.526 72.24ZM868.822 67.672C868.822 65.76 869.622 64.424 871.31 64.424C873.07 64.424 873.886 65.848 873.886 67.672C873.886 69.512 873.054 70.936 871.35 70.936C869.606 70.936 868.822 69.568 868.822 67.672ZM877.151 72H878.583V67.664C878.583 66.64 878.791 65.624 879.631 65.024C880.231 64.584 881.007 64.544 881.607 64.696V63.36C880.839 63.192 879.823 63.352 879.159 63.888C878.871 64.096 878.615 64.392 878.423 64.728V63.36H877.151V72ZM883.28 61.832H884.704V60.36H883.28V61.832ZM883.28 72H884.704V63.36H883.28V72ZM897.44 66.472L897.432 72H898.856L898.864 66.16C898.864 64.32 897.76 63.136 895.96 63.136C894.824 63.136 893.856 63.672 893.344 64.56C892.88 63.656 891.992 63.136 890.824 63.136C889.792 63.136 888.912 63.576 888.368 64.28V63.36H887.096V72H888.528V66.512C888.528 65.248 889.28 64.408 890.408 64.408C891.536 64.408 892.28 65.216 892.28 66.528L892.272 72H893.688L893.696 66.512C893.696 65.056 894.616 64.408 895.584 64.408C896.672 64.408 897.44 65.184 897.44 66.472ZM904.614 72.24C906.286 72.24 907.718 71.368 908.398 69.84L907.03 69.368C906.55 70.352 905.686 70.888 904.55 70.888C902.958 70.888 902.03 69.872 901.918 68.08H908.542C908.67 65.008 907.15 63.12 904.55 63.12C902.038 63.12 900.39 64.904 900.39 67.736C900.39 70.44 902.062 72.24 904.614 72.24ZM901.942 66.936C902.142 65.296 903.046 64.4 904.598 64.4C906.062 64.4 906.886 65.24 907.062 66.936H901.942ZM910.323 72H911.755V67.664C911.755 66.64 911.963 65.624 912.803 65.024C913.403 64.584 914.179 64.544 914.779 64.696V63.36C914.011 63.192 912.995 63.352 912.331 63.888C912.043 64.096 911.787 64.392 911.595 64.728V63.36H910.323V72ZM841.316 92H842.764V80.48H841.316L839.148 81.776V83.368L841.316 82.056V92ZM849.576 80.248C847.432 80.248 845.648 81.96 845.648 84.104C845.648 86.248 847.264 87.904 849.408 87.904C850.44 87.904 851.392 87.448 852.056 86.712V88.28C852.056 89.656 850.976 90.888 849.448 90.888C848.6 90.888 847.824 90.456 847.36 89.792L846.296 90.736C847.048 91.704 848.184 92.24 849.448 92.24C851.808 92.24 853.503 90.536 853.503 88.12V84.288C853.503 81.976 851.776 80.248 849.576 80.248ZM847.088 84.104C847.088 82.728 848.2 81.624 849.576 81.624C850.952 81.624 852.056 82.744 852.056 84.104C852.056 85.48 850.944 86.592 849.568 86.592C848.192 86.592 847.088 85.48 847.088 84.104ZM859.713 92.24C862.129 92.24 863.585 90.264 863.585 87.672C863.585 85.08 862.121 83.12 859.721 83.12C858.641 83.12 857.785 83.496 857.169 84.144V80.48H855.737V92H857.009V91.024C857.641 91.784 858.545 92.24 859.713 92.24ZM857.009 87.672C857.009 85.76 857.809 84.424 859.497 84.424C861.257 84.424 862.073 85.848 862.073 87.672C862.073 89.512 861.241 90.936 859.537 90.936C857.793 90.936 857.009 89.568 857.009 87.672ZM869.307 92.24C871.723 92.24 873.179 90.264 873.179 87.672C873.179 85.08 871.715 83.12 869.315 83.12C868.139 83.12 867.235 83.568 866.603 84.328V83.36H865.331V95.84H866.763V91.2C867.379 91.856 868.235 92.24 869.307 92.24ZM866.603 87.672C866.603 85.76 867.403 84.424 869.091 84.424C870.851 84.424 871.667 85.848 871.667 87.672C871.667 89.512 870.835 90.936 869.131 90.936C867.387 90.936 866.603 89.568 866.603 87.672Z" fill="white"/>
    <path d="M450 184L449.293 184.707L448.586 184L449.293 183.293L450 184ZM457.293 175.293L458 174.586L459.414 176L458.707 176.707L457.293 175.293ZM458.707 191.293L459.414 192L458 193.414L457.293 192.707L458.707 191.293ZM460 185L450 185L450 183L460 183L460 185ZM449.293 183.293L457.293 175.293L458.707 176.707L450.707 184.707L449.293 183.293ZM450.707 183.293L458.707 191.293L457.293 192.707L449.293 184.707L450.707 183.293Z" fill="#D3D7E0"/>
    <path d="M634.5 184H460" stroke="#D3D7E0" stroke-width="2"/>
    <rect width="57" height="20" transform="translate(634.5 174)" fill="#1D1D29"/>
    <path d="M643.171 190.224C645.307 190.224 646.931 188.664 646.931 186.456C646.931 184.44 645.651 182.944 643.667 182.832L646.779 179.848V178.48H639.987V179.84H645.011L641.267 183.224L641.955 184.352C642.315 184.168 642.755 184.048 643.147 184.048C644.531 184.048 645.467 185.032 645.467 186.456C645.467 187.864 644.563 188.84 643.163 188.864C642.139 188.88 641.243 188.312 640.899 187.24L639.531 187.632C640.019 189.232 641.459 190.224 643.171 190.224ZM652.899 190.24C655.139 190.24 656.787 188.592 656.787 186.352V182.128C656.787 179.888 655.139 178.24 652.899 178.24C650.659 178.24 649.011 179.888 649.011 182.128V186.352C649.011 188.592 650.659 190.24 652.899 190.24ZM650.459 186.432V182.04C650.459 180.688 651.547 179.6 652.899 179.6C654.251 179.6 655.339 180.688 655.339 182.04V186.432C655.339 187.784 654.251 188.872 652.899 188.872C651.547 188.872 650.459 187.784 650.459 186.432ZM662.914 190.24C665.154 190.24 666.802 188.592 666.802 186.352V182.128C666.802 179.888 665.154 178.24 662.914 178.24C660.674 178.24 659.026 179.888 659.026 182.128V186.352C659.026 188.592 660.674 190.24 662.914 190.24ZM660.474 186.432V182.04C660.474 180.688 661.562 179.6 662.914 179.6C664.266 179.6 665.354 180.688 665.354 182.04V186.432C665.354 187.784 664.266 188.872 662.914 188.872C661.562 188.872 660.474 187.784 660.474 186.432ZM673.01 190.24C675.426 190.24 676.882 188.264 676.882 185.672C676.882 183.08 675.418 181.12 673.018 181.12C671.938 181.12 671.082 181.496 670.466 182.144V178.48H669.034V190H670.306V189.024C670.938 189.784 671.842 190.24 673.01 190.24ZM670.306 185.672C670.306 183.76 671.106 182.424 672.794 182.424C674.554 182.424 675.37 183.848 675.37 185.672C675.37 187.512 674.538 188.936 672.834 188.936C671.09 188.936 670.306 187.568 670.306 185.672ZM682.604 190.24C685.02 190.24 686.476 188.264 686.476 185.672C686.476 183.08 685.012 181.12 682.612 181.12C681.436 181.12 680.532 181.568 679.9 182.328V181.36H678.628V193.84H680.06V189.2C680.676 189.856 681.532 190.24 682.604 190.24ZM679.9 185.672C679.9 183.76 680.7 182.424 682.388 182.424C684.148 182.424 684.964 183.848 684.964 185.672C684.964 187.512 684.132 188.936 682.428 188.936C680.684 188.936 679.9 187.568 679.9 185.672Z" fill="white"/>
    <path d="M866 184H691.5" stroke="#D3D7E0" stroke-width="2"/>
    <path d="M874.62 190H876.044V185.744H879.412L881.476 190H883.108L880.884 185.432C882.188 184.888 882.868 183.632 882.868 182.112C882.868 180.28 881.884 178.832 880.02 178.544C879.724 178.496 879.396 178.48 879.172 178.48H874.62V190ZM876.044 184.392V179.832H879.124C879.324 179.832 879.604 179.848 879.844 179.904C880.948 180.152 881.412 181.152 881.412 182.112C881.412 183.072 880.948 184.072 879.844 184.32C879.604 184.376 879.324 184.392 879.124 184.392H876.044ZM886.878 190H888.326V178.48H886.878L884.71 179.776V181.368L886.878 180.056V190Z" fill="white"/>
    <rect x="866" y="172" width="32" height="24" rx="1" stroke="#D3D7E0" stroke-width="2"/>
    <path d="M408 344L407.293 344.707L406.586 344L407.293 343.293L408 344ZM415.293 335.293L416 334.586L417.414 336L416.707 336.707L415.293 335.293ZM416.707 351.293L417.414 352L416 353.414L415.293 352.707L416.707 351.293ZM418 345L408 345L408 343L418 343L418 345ZM407.293 343.293L415.293 335.293L416.707 336.707L408.707 344.707L407.293 343.293ZM408.707 343.293L416.707 351.293L415.293 352.707L407.293 344.707L408.707 343.293Z" fill="#D3D7E0"/>
    <path d="M580.5 344H418" stroke="#D3D7E0" stroke-width="2"/>
    <rect width="57" height="20" transform="translate(580.5 334)" fill="#1D1D29"/>
    <path d="M589.171 350.224C591.307 350.224 592.931 348.664 592.931 346.456C592.931 344.44 591.651 342.944 589.667 342.832L592.779 339.848V338.48H585.987V339.84H591.011L587.267 343.224L587.955 344.352C588.315 344.168 588.755 344.048 589.147 344.048C590.531 344.048 591.467 345.032 591.467 346.456C591.467 347.864 590.563 348.84 589.163 348.864C588.139 348.88 587.243 348.312 586.899 347.24L585.531 347.632C586.019 349.232 587.459 350.224 589.171 350.224ZM598.899 350.24C601.139 350.24 602.787 348.592 602.787 346.352V342.128C602.787 339.888 601.139 338.24 598.899 338.24C596.659 338.24 595.011 339.888 595.011 342.128V346.352C595.011 348.592 596.659 350.24 598.899 350.24ZM596.459 346.432V342.04C596.459 340.688 597.547 339.6 598.899 339.6C600.251 339.6 601.339 340.688 601.339 342.04V346.432C601.339 347.784 600.251 348.872 598.899 348.872C597.547 348.872 596.459 347.784 596.459 346.432ZM608.914 350.24C611.154 350.24 612.802 348.592 612.802 346.352V342.128C612.802 339.888 611.154 338.24 608.914 338.24C606.674 338.24 605.026 339.888 605.026 342.128V346.352C605.026 348.592 606.674 350.24 608.914 350.24ZM606.474 346.432V342.04C606.474 340.688 607.562 339.6 608.914 339.6C610.266 339.6 611.354 340.688 611.354 342.04V346.432C611.354 347.784 610.266 348.872 608.914 348.872C607.562 348.872 606.474 347.784 606.474 346.432ZM619.01 350.24C621.426 350.24 622.882 348.264 622.882 345.672C622.882 343.08 621.418 341.12 619.018 341.12C617.938 341.12 617.082 341.496 616.466 342.144V338.48H615.034V350H616.306V349.024C616.938 349.784 617.842 350.24 619.01 350.24ZM616.306 345.672C616.306 343.76 617.106 342.424 618.794 342.424C620.554 342.424 621.37 343.848 621.37 345.672C621.37 347.512 620.538 348.936 618.834 348.936C617.09 348.936 616.306 347.568 616.306 345.672ZM628.604 350.24C631.02 350.24 632.476 348.264 632.476 345.672C632.476 343.08 631.012 341.12 628.612 341.12C627.436 341.12 626.532 341.568 625.9 342.328V341.36H624.628V353.84H626.06V349.2C626.676 349.856 627.532 350.24 628.604 350.24ZM625.9 345.672C625.9 343.76 626.7 342.424 628.388 342.424C630.148 342.424 630.964 343.848 630.964 345.672C630.964 347.512 630.132 348.936 628.428 348.936C626.684 348.936 625.9 347.568 625.9 345.672Z" fill="white"/>
    <path d="M800 344H637.5" stroke="#D3D7E0" stroke-width="2"/>
    <path d="M808.62 350H810.044V345.744H813.412L815.476 350H817.108L814.884 345.432C816.188 344.888 816.868 343.632 816.868 342.112C816.868 340.28 815.884 338.832 814.02 338.544C813.724 338.496 813.396 338.48 813.172 338.48H808.62V350ZM810.044 344.392V339.832H813.124C813.324 339.832 813.604 339.848 813.844 339.904C814.948 340.152 815.412 341.152 815.412 342.112C815.412 343.072 814.948 344.072 813.844 344.32C813.604 344.376 813.324 344.392 813.124 344.392H810.044ZM820.878 350H822.326V338.48H820.878L818.71 339.776V341.368L820.878 340.056V350Z" fill="white"/>
    <rect x="800" y="332" width="32" height="24" rx="1" stroke="#D3D7E0" stroke-width="2"/>
    <path d="M103.12 214H104.544V209.744H107.912L109.976 214H111.608L109.384 209.432C110.688 208.888 111.368 207.632 111.368 206.112C111.368 204.28 110.384 202.832 108.52 202.544C108.224 202.496 107.896 202.48 107.672 202.48H103.12V214ZM104.544 208.392V203.832H107.624C107.824 203.832 108.104 203.848 108.344 203.904C109.448 204.152 109.912 205.152 109.912 206.112C109.912 207.072 109.448 208.072 108.344 208.32C108.104 208.376 107.824 208.392 107.624 208.392H104.544ZM113.05 213.992H120.706V212.632H115.242L118.954 209.296C120.138 208.248 120.706 207.488 120.706 205.976C120.706 203.856 119.09 202.24 116.954 202.24C114.738 202.24 113.106 203.784 113.106 205.952H114.562C114.546 204.696 115.554 203.6 116.93 203.6C118.258 203.6 119.25 204.632 119.25 205.96C119.25 206.688 119.018 207.352 118.17 208.112L113.058 212.712L113.05 213.992Z" fill="white"/>
    <rect x="96" y="196" width="32" height="24" rx="1" stroke="#D3D7E0" stroke-width="2"/>
    <path d="M294.5 208H128" stroke="#D3D7E0" stroke-width="2"/>
    <rect width="57" height="20" transform="translate(294.5 198)" fill="#1D1D29"/>
    <path d="M303.171 214.224C305.307 214.224 306.931 212.664 306.931 210.456C306.931 208.44 305.651 206.944 303.667 206.832L306.779 203.848V202.48H299.987V203.84H305.011L301.267 207.224L301.955 208.352C302.315 208.168 302.755 208.048 303.147 208.048C304.531 208.048 305.467 209.032 305.467 210.456C305.467 211.864 304.563 212.84 303.163 212.864C302.139 212.88 301.243 212.312 300.899 211.24L299.531 211.632C300.019 213.232 301.459 214.224 303.171 214.224ZM312.899 214.24C315.139 214.24 316.787 212.592 316.787 210.352V206.128C316.787 203.888 315.139 202.24 312.899 202.24C310.659 202.24 309.011 203.888 309.011 206.128V210.352C309.011 212.592 310.659 214.24 312.899 214.24ZM310.459 210.432V206.04C310.459 204.688 311.547 203.6 312.899 203.6C314.251 203.6 315.339 204.688 315.339 206.04V210.432C315.339 211.784 314.251 212.872 312.899 212.872C311.547 212.872 310.459 211.784 310.459 210.432ZM322.914 214.24C325.154 214.24 326.802 212.592 326.802 210.352V206.128C326.802 203.888 325.154 202.24 322.914 202.24C320.674 202.24 319.026 203.888 319.026 206.128V210.352C319.026 212.592 320.674 214.24 322.914 214.24ZM320.474 210.432V206.04C320.474 204.688 321.562 203.6 322.914 203.6C324.266 203.6 325.354 204.688 325.354 206.04V210.432C325.354 211.784 324.266 212.872 322.914 212.872C321.562 212.872 320.474 211.784 320.474 210.432ZM333.01 214.24C335.426 214.24 336.882 212.264 336.882 209.672C336.882 207.08 335.418 205.12 333.018 205.12C331.938 205.12 331.082 205.496 330.466 206.144V202.48H329.034V214H330.306V213.024C330.938 213.784 331.842 214.24 333.01 214.24ZM330.306 209.672C330.306 207.76 331.106 206.424 332.794 206.424C334.554 206.424 335.37 207.848 335.37 209.672C335.37 211.512 334.538 212.936 332.834 212.936C331.09 212.936 330.306 211.568 330.306 209.672ZM342.604 214.24C345.02 214.24 346.476 212.264 346.476 209.672C346.476 207.08 345.012 205.12 342.612 205.12C341.436 205.12 340.532 205.568 339.9 206.328V205.36H338.628V217.84H340.06V213.2C340.676 213.856 341.532 214.24 342.604 214.24ZM339.9 209.672C339.9 207.76 340.7 206.424 342.388 206.424C344.148 206.424 344.964 207.848 344.964 209.672C344.964 211.512 344.132 212.936 342.428 212.936C340.684 212.936 339.9 211.568 339.9 209.672Z" fill="white"/>
    <path d="M518 208H351.5" stroke="#D3D7E0" stroke-width="2"/>
    <path d="M528 208L528.707 207.293L529.414 208L528.707 208.707L528 208ZM520.707 216.707L520 217.414L518.586 216L519.293 215.293L520.707 216.707ZM519.293 200.707L518.586 200L520 198.586L520.707 199.293L519.293 200.707ZM518 207L528 207L528 209L518 209L518 207ZM528.707 208.707L520.707 216.707L519.293 215.293L527.293 207.293L528.707 208.707ZM527.293 208.707L519.293 200.707L520.707 199.293L528.707 207.293L527.293 208.707Z" fill="#D3D7E0"/>
    <path d="M103.12 374H104.544V369.744H107.912L109.976 374H111.608L109.384 369.432C110.688 368.888 111.368 367.632 111.368 366.112C111.368 364.28 110.384 362.832 108.52 362.544C108.224 362.496 107.896 362.48 107.672 362.48H103.12V374ZM104.544 368.392V363.832H107.624C107.824 363.832 108.104 363.848 108.344 363.904C109.448 364.152 109.912 365.152 109.912 366.112C109.912 367.072 109.448 368.072 108.344 368.32C108.104 368.376 107.824 368.392 107.624 368.392H104.544ZM113.05 373.992H120.706V372.632H115.242L118.954 369.296C120.138 368.248 120.706 367.488 120.706 365.976C120.706 363.856 119.09 362.24 116.954 362.24C114.738 362.24 113.106 363.784 113.106 365.952H114.562C114.546 364.696 115.554 363.6 116.93 363.6C118.258 363.6 119.25 364.632 119.25 365.96C119.25 366.688 119.018 367.352 118.17 368.112L113.058 372.712L113.05 373.992Z" fill="white"/>
    <rect x="96" y="356" width="32" height="24" rx="1" stroke="#D3D7E0" stroke-width="2"/>
    <path d="M294.5 368H128" stroke="#D3D7E0" stroke-width="2"/>
    <rect width="57" height="20" transform="translate(294.5 358)" fill="#1D1D29"/>
    <path d="M303.171 374.224C305.307 374.224 306.931 372.664 306.931 370.456C306.931 368.44 305.651 366.944 303.667 366.832L306.779 363.848V362.48H299.987V363.84H305.011L301.267 367.224L301.955 368.352C302.315 368.168 302.755 368.048 303.147 368.048C304.531 368.048 305.467 369.032 305.467 370.456C305.467 371.864 304.563 372.84 303.163 372.864C302.139 372.88 301.243 372.312 300.899 371.24L299.531 371.632C300.019 373.232 301.459 374.224 303.171 374.224ZM312.899 374.24C315.139 374.24 316.787 372.592 316.787 370.352V366.128C316.787 363.888 315.139 362.24 312.899 362.24C310.659 362.24 309.011 363.888 309.011 366.128V370.352C309.011 372.592 310.659 374.24 312.899 374.24ZM310.459 370.432V366.04C310.459 364.688 311.547 363.6 312.899 363.6C314.251 363.6 315.339 364.688 315.339 366.04V370.432C315.339 371.784 314.251 372.872 312.899 372.872C311.547 372.872 310.459 371.784 310.459 370.432ZM322.914 374.24C325.154 374.24 326.802 372.592 326.802 370.352V366.128C326.802 363.888 325.154 362.24 322.914 362.24C320.674 362.24 319.026 363.888 319.026 366.128V370.352C319.026 372.592 320.674 374.24 322.914 374.24ZM320.474 370.432V366.04C320.474 364.688 321.562 363.6 322.914 363.6C324.266 363.6 325.354 364.688 325.354 366.04V370.432C325.354 371.784 324.266 372.872 322.914 372.872C321.562 372.872 320.474 371.784 320.474 370.432ZM333.01 374.24C335.426 374.24 336.882 372.264 336.882 369.672C336.882 367.08 335.418 365.12 333.018 365.12C331.938 365.12 331.082 365.496 330.466 366.144V362.48H329.034V374H330.306V373.024C330.938 373.784 331.842 374.24 333.01 374.24ZM330.306 369.672C330.306 367.76 331.106 366.424 332.794 366.424C334.554 366.424 335.37 367.848 335.37 369.672C335.37 371.512 334.538 372.936 332.834 372.936C331.09 372.936 330.306 371.568 330.306 369.672ZM342.604 374.24C345.02 374.24 346.476 372.264 346.476 369.672C346.476 367.08 345.012 365.12 342.612 365.12C341.436 365.12 340.532 365.568 339.9 366.328V365.36H338.628V377.84H340.06V373.2C340.676 373.856 341.532 374.24 342.604 374.24ZM339.9 369.672C339.9 367.76 340.7 366.424 342.388 366.424C344.148 366.424 344.964 367.848 344.964 369.672C344.964 371.512 344.132 372.936 342.428 372.936C340.684 372.936 339.9 371.568 339.9 369.672Z" fill="white"/>
    <path d="M518 368H351.5" stroke="#D3D7E0" stroke-width="2"/>
    <path d="M528 368L528.707 367.293L529.414 368L528.707 368.707L528 368ZM520.707 376.707L520 377.414L518.586 376L519.293 375.293L520.707 376.707ZM519.293 360.707L518.586 360L520 358.586L520.707 359.293L519.293 360.707ZM518 367L528 367L528 369L518 369L518 367ZM528.707 368.707L520.707 376.707L519.293 375.293L527.293 367.293L528.707 368.707ZM527.293 368.707L519.293 360.707L520.707 359.293L528.707 367.293L527.293 368.707Z" fill="#D3D7E0"/>
    <defs>
        <filter id="filter0_i_5910_38000" x="95" y="267" width="66" height="54" filterUnits="userSpaceOnUse" color-interpolation-filters="sRGB">
            <feFlood flood-opacity="0" result="BackgroundImageFix"/>
            <feBlend mode="normal" in="SourceGraphic" in2="BackgroundImageFix" result="shape"/>
            <feColorMatrix in="SourceAlpha" type="matrix" values="0 0 0 0 0 0 0 0 0 0 0 0 0 0 0 0 0 0 127 0" result="hardAlpha"/>
            <feOffset dx="-8" dy="-4"/>
            <feComposite in2="hardAlpha" operator="arithmetic" k2="-1" k3="1"/>
            <feColorMatrix type="matrix" values="0 0 0 0 0.0666667 0 0 0 0 0.0196078 0 0 0 0 0.160784 0 0 0 0.16 0"/>
            <feBlend mode="normal" in2="shape" result="effect1_innerShadow_5910_38000"/>
        </filter>
        <filter id="filter1_i_5910_38000" x="159" y="267" width="54" height="54" filterUnits="userSpaceOnUse" color-interpolation-filters="sRGB">
            <feFlood flood-opacity="0" result="BackgroundImageFix"/>
            <feBlend mode="normal" in="SourceGraphic" in2="BackgroundImageFix" result="shape"/>
            <feColorMatrix in="SourceAlpha" type="matrix" values="0 0 0 0 0 0 0 0 0 0 0 0 0 0 0 0 0 0 127 0" result="hardAlpha"/>
            <feOffset dx="-8" dy="-4"/>
            <feComposite in2="hardAlpha" operator="arithmetic" k2="-1" k3="1"/>
            <feColorMatrix type="matrix" values="0 0 0 0 0.0666667 0 0 0 0 0.0196078 0 0 0 0 0.160784 0 0 0 0.16 0"/>
            <feBlend mode="normal" in2="shape" result="effect1_innerShadow_5910_38000"/>
        </filter>
        <filter id="filter2_i_5910_38000" x="211" y="267" width="352" height="54" filterUnits="userSpaceOnUse" color-interpolation-filters="sRGB">
            <feFlood flood-opacity="0" result="BackgroundImageFix"/>
            <feBlend mode="normal" in="SourceGraphic" in2="BackgroundImageFix" result="shape"/>
            <feColorMatrix in="SourceAlpha" type="matrix" values="0 0 0 0 0 0 0 0 0 0 0 0 0 0 0 0 0 0 127 0" result="hardAlpha"/>
            <feOffset dx="-8" dy="-4"/>
            <feComposite in2="hardAlpha" operator="arithmetic" k2="-1" k3="1"/>
            <feColorMatrix type="matrix" values="0 0 0 0 0.0666667 0 0 0 0 0.0196078 0 0 0 0 0.160784 0 0 0 0.16 0"/>
            <feBlend mode="normal" in2="shape" result="effect1_innerShadow_5910_38000"/>
        </filter>
        <filter id="filter3_i_5910_38000" x="561" y="267" width="32" height="54" filterUnits="userSpaceOnUse" color-interpolation-filters="sRGB">
            <feFlood flood-opacity="0" result="BackgroundImageFix"/>
            <feBlend mode="normal" in="SourceGraphic" in2="BackgroundImageFix" result="shape"/>
            <feColorMatrix in="SourceAlpha" type="matrix" values="0 0 0 0 0 0 0 0 0 0 0 0 0 0 0 0 0 0 127 0" result="hardAlpha"/>
            <feOffset dx="-8" dy="-4"/>
            <feComposite in2="hardAlpha" operator="arithmetic" k2="-1" k3="1"/>
            <feColorMatrix type="matrix" values="0 0 0 0 0.0666667 0 0 0 0 0.0196078 0 0 0 0 0.160784 0 0 0 0.16 0"/>
            <feBlend mode="normal" in2="shape" result="effect1_innerShadow_5910_38000"/>
        </filter>
        <filter id="filter4_i_5910_38000" x="591" y="267" width="98" height="54" filterUnits="userSpaceOnUse" color-interpolation-filters="sRGB">
            <feFlood flood-opacity="0" result="BackgroundImageFix"/>
            <feBlend mode="normal" in="SourceGraphic" in2="BackgroundImageFix" result="shape"/>
            <feColorMatrix in="SourceAlpha" type="matrix" values="0 0 0 0 0 0 0 0 0 0 0 0 0 0 0 0 0 0 127 0" result="hardAlpha"/>
            <feOffset dx="-8" dy="-4"/>
            <feComposite in2="hardAlpha" operator="arithmetic" k2="-1" k3="1"/>
            <feColorMatrix type="matrix" values="0 0 0 0 0.0666667 0 0 0 0 0.0196078 0 0 0 0 0.160784 0 0 0 0.16 0"/>
            <feBlend mode="normal" in2="shape" result="effect1_innerShadow_5910_38000"/>
        </filter>
        <filter id="filter5_i_5910_38000" x="687" y="267" width="146" height="54" filterUnits="userSpaceOnUse" color-interpolation-filters="sRGB">
            <feFlood flood-opacity="0" result="BackgroundImageFix"/>
            <feBlend mode="normal" in="SourceGraphic" in2="BackgroundImageFix" result="shape"/>
            <feColorMatrix in="SourceAlpha" type="matrix" values="0 0 0 0 0 0 0 0 0 0 0 0 0 0 0 0 0 0 127 0" result="hardAlpha"/>
            <feOffset dx="-8" dy="-4"/>
            <feComposite in2="hardAlpha" operator="arithmetic" k2="-1" k3="1"/>
            <feColorMatrix type="matrix" values="0 0 0 0 0.0666667 0 0 0 0 0.0196078 0 0 0 0 0.160784 0 0 0 0.16 0"/>
            <feBlend mode="normal" in2="shape" result="effect1_innerShadow_5910_38000"/>
        </filter>
        <filter id="filter6_i_5910_38000" x="95" y="107" width="66" height="54" filterUnits="userSpaceOnUse" color-interpolation-filters="sRGB">
            <feFlood flood-opacity="0" result="BackgroundImageFix"/>
            <feBlend mode="normal" in="SourceGraphic" in2="BackgroundImageFix" result="shape"/>
            <feColorMatrix in="SourceAlpha" type="matrix" values="0 0 0 0 0 0 0 0 0 0 0 0 0 0 0 0 0 0 127 0" result="hardAlpha"/>
            <feOffset dx="-8" dy="-4"/>
            <feComposite in2="hardAlpha" operator="arithmetic" k2="-1" k3="1"/>
            <feColorMatrix type="matrix" values="0 0 0 0 0.0666667 0 0 0 0 0.0196078 0 0 0 0 0.160784 0 0 0 0.16 0"/>
            <feBlend mode="normal" in2="shape" result="effect1_innerShadow_5910_38000"/>
        </filter>
        <filter id="filter7_i_5910_38000" x="159" y="107" width="54" height="54" filterUnits="userSpaceOnUse" color-interpolation-filters="sRGB">
            <feFlood flood-opacity="0" result="BackgroundImageFix"/>
            <feBlend mode="normal" in="SourceGraphic" in2="BackgroundImageFix" result="shape"/>
            <feColorMatrix in="SourceAlpha" type="matrix" values="0 0 0 0 0 0 0 0 0 0 0 0 0 0 0 0 0 0 127 0" result="hardAlpha"/>
            <feOffset dx="-8" dy="-4"/>
            <feComposite in2="hardAlpha" operator="arithmetic" k2="-1" k3="1"/>
            <feColorMatrix type="matrix" values="0 0 0 0 0.0666667 0 0 0 0 0.0196078 0 0 0 0 0.160784 0 0 0 0.16 0"/>
            <feBlend mode="normal" in2="shape" result="effect1_innerShadow_5910_38000"/>
        </filter>
        <filter id="filter8_i_5910_38000" x="211" y="107" width="352" height="54" filterUnits="userSpaceOnUse" color-interpolation-filters="sRGB">
            <feFlood flood-opacity="0" result="BackgroundImageFix"/>
            <feBlend mode="normal" in="SourceGraphic" in2="BackgroundImageFix" result="shape"/>
            <feColorMatrix in="SourceAlpha" type="matrix" values="0 0 0 0 0 0 0 0 0 0 0 0 0 0 0 0 0 0 127 0" result="hardAlpha"/>
            <feOffset dx="-8" dy="-4"/>
            <feComposite in2="hardAlpha" operator="arithmetic" k2="-1" k3="1"/>
            <feColorMatrix type="matrix" values="0 0 0 0 0.0666667 0 0 0 0 0.0196078 0 0 0 0 0.160784 0 0 0 0.16 0"/>
            <feBlend mode="normal" in2="shape" result="effect1_innerShadow_5910_38000"/>
        </filter>
        <filter id="filter9_i_5910_38000" x="561" y="107" width="32" height="54" filterUnits="userSpaceOnUse" color-interpolation-filters="sRGB">
            <feFlood flood-opacity="0" result="BackgroundImageFix"/>
            <feBlend mode="normal" in="SourceGraphic" in2="BackgroundImageFix" result="shape"/>
            <feColorMatrix in="SourceAlpha" type="matrix" values="0 0 0 0 0 0 0 0 0 0 0 0 0 0 0 0 0 0 127 0" result="hardAlpha"/>
            <feOffset dx="-8" dy="-4"/>
            <feComposite in2="hardAlpha" operator="arithmetic" k2="-1" k3="1"/>
            <feColorMatrix type="matrix" values="0 0 0 0 0.0666667 0 0 0 0 0.0196078 0 0 0 0 0.160784 0 0 0 0.16 0"/>
            <feBlend mode="normal" in2="shape" result="effect1_innerShadow_5910_38000"/>
        </filter>
        <filter id="filter10_i_5910_38000" x="627" y="107" width="32" height="54" filterUnits="userSpaceOnUse" color-interpolation-filters="sRGB">
            <feFlood flood-opacity="0" result="BackgroundImageFix"/>
            <feBlend mode="normal" in="SourceGraphic" in2="BackgroundImageFix" result="shape"/>
            <feColorMatrix in="SourceAlpha" type="matrix" values="0 0 0 0 0 0 0 0 0 0 0 0 0 0 0 0 0 0 127 0" result="hardAlpha"/>
            <feOffset dx="-8" dy="-4"/>
            <feComposite in2="hardAlpha" operator="arithmetic" k2="-1" k3="1"/>
            <feColorMatrix type="matrix" values="0 0 0 0 0.0666667 0 0 0 0 0.0196078 0 0 0 0 0.160784 0 0 0 0.16 0"/>
            <feBlend mode="normal" in2="shape" result="effect1_innerShadow_5910_38000"/>
        </filter>
        <filter id="filter11_i_5910_38000" x="591" y="107" width="38" height="54" filterUnits="userSpaceOnUse" color-interpolation-filters="sRGB">
            <feFlood flood-opacity="0" result="BackgroundImageFix"/>
            <feBlend mode="normal" in="SourceGraphic" in2="BackgroundImageFix" result="shape"/>
            <feColorMatrix in="SourceAlpha" type="matrix" values="0 0 0 0 0 0 0 0 0 0 0 0 0 0 0 0 0 0 127 0" result="hardAlpha"/>
            <feOffset dx="-8" dy="-4"/>
            <feComposite in2="hardAlpha" operator="arithmetic" k2="-1" k3="1"/>
            <feColorMatrix type="matrix" values="0 0 0 0 0.0666667 0 0 0 0 0.0196078 0 0 0 0 0.160784 0 0 0 0.16 0"/>
            <feBlend mode="normal" in2="shape" result="effect1_innerShadow_5910_38000"/>
        </filter>
        <filter id="filter12_i_5910_38000" x="657" y="107" width="98" height="54" filterUnits="userSpaceOnUse" color-interpolation-filters="sRGB">
            <feFlood flood-opacity="0" result="BackgroundImageFix"/>
            <feBlend mode="normal" in="SourceGraphic" in2="BackgroundImageFix" result="shape"/>
            <feColorMatrix in="SourceAlpha" type="matrix" values="0 0 0 0 0 0 0 0 0 0 0 0 0 0 0 0 0 0 127 0" result="hardAlpha"/>
            <feOffset dx="-8" dy="-4"/>
            <feComposite in2="hardAlpha" operator="arithmetic" k2="-1" k3="1"/>
            <feColorMatrix type="matrix" values="0 0 0 0 0.0666667 0 0 0 0 0.0196078 0 0 0 0 0.160784 0 0 0 0.16 0"/>
            <feBlend mode="normal" in2="shape" result="effect1_innerShadow_5910_38000"/>
        </filter>
        <filter id="filter13_i_5910_38000" x="753" y="107" width="146" height="54" filterUnits="userSpaceOnUse" color-interpolation-filters="sRGB">
            <feFlood flood-opacity="0" result="BackgroundImageFix"/>
            <feBlend mode="normal" in="SourceGraphic" in2="BackgroundImageFix" result="shape"/>
            <feColorMatrix in="SourceAlpha" type="matrix" values="0 0 0 0 0 0 0 0 0 0 0 0 0 0 0 0 0 0 127 0" result="hardAlpha"/>
            <feOffset dx="-8" dy="-4"/>
            <feComposite in2="hardAlpha" operator="arithmetic" k2="-1" k3="1"/>
            <feColorMatrix type="matrix" values="0 0 0 0 0.0666667 0 0 0 0 0.0196078 0 0 0 0 0.160784 0 0 0 0.16 0"/>
            <feBlend mode="normal" in2="shape" result="effect1_innerShadow_5910_38000"/>
        </filter>
    </defs>
</svg>
