<svg width="960" height="402" viewBox="0 0 960 402" fill="none" xmlns="http://www.w3.org/2000/svg">
<rect width="960" height="402" fill="white"/>
<path d="M830 147V27" stroke="#D3D7E0" stroke-width="2" stroke-linecap="square" stroke-dasharray="6 6"/>
<path d="M915 147V27" stroke="#D3D7E0" stroke-width="2" stroke-linecap="square" stroke-dasharray="6 6"/>
<path d="M771 158V24" stroke="#D3D7E0" stroke-width="2" stroke-linecap="square" stroke-dasharray="6 6"/>
<path d="M719.593 37V26.92H725.564V28.383H721.056V31.225H724.724V32.695H721.056V37H719.593ZM726.826 37V26.92H730.9C730.998 26.92 731.119 26.9247 731.264 26.934C731.408 26.9387 731.546 26.9527 731.677 26.976C732.237 27.0647 732.703 27.256 733.077 27.55C733.455 27.844 733.737 28.215 733.924 28.663C734.11 29.111 734.204 29.6057 734.204 30.147C734.204 30.9497 733.998 31.6427 733.588 32.226C733.177 32.8047 732.561 33.1663 731.74 33.311L731.145 33.381H728.289V37H726.826ZM732.72 37L730.732 32.898L732.209 32.52L734.393 37H732.72ZM728.289 31.995H730.844C730.937 31.995 731.04 31.9903 731.152 31.981C731.268 31.9717 731.378 31.9553 731.481 31.932C731.779 31.862 732.02 31.7337 732.202 31.547C732.384 31.3557 732.514 31.1363 732.594 30.889C732.673 30.6417 732.713 30.3943 732.713 30.147C732.713 29.8997 732.673 29.6547 732.594 29.412C732.514 29.1647 732.384 28.9477 732.202 28.761C732.02 28.5697 731.779 28.439 731.481 28.369C731.378 28.341 731.268 28.3223 731.152 28.313C731.04 28.3037 730.937 28.299 730.844 28.299H728.289V31.995ZM740.201 37V35.243H735.651V33.857L738.927 26.92H740.6L737.324 33.857H740.201V31.127H741.685V33.857H742.686V35.243H741.685V37H740.201Z" fill="#D3D7E0"/>
<path d="M689 158V24" stroke="#D3D7E0" stroke-width="2" stroke-linecap="square" stroke-dasharray="6 6"/>
<path d="M612.682 37.21C611.674 37.21 610.815 36.9907 610.106 36.552C609.397 36.1087 608.853 35.4927 608.475 34.704C608.102 33.9153 607.915 33.0007 607.915 31.96C607.915 30.9193 608.102 30.0047 608.475 29.216C608.853 28.4273 609.397 27.8137 610.106 27.375C610.815 26.9317 611.674 26.71 612.682 26.71C613.844 26.71 614.805 27.004 615.566 27.592C616.331 28.18 616.863 28.971 617.162 29.965L615.678 30.364C615.482 29.6593 615.132 29.1063 614.628 28.705C614.129 28.3037 613.48 28.103 612.682 28.103C611.968 28.103 611.373 28.264 610.897 28.586C610.421 28.908 610.062 29.3583 609.819 29.937C609.581 30.5157 609.462 31.19 609.462 31.96C609.457 32.73 609.574 33.4043 609.812 33.983C610.055 34.5617 610.414 35.012 610.89 35.334C611.371 35.656 611.968 35.817 612.682 35.817C613.48 35.817 614.129 35.6163 614.628 35.215C615.132 34.809 615.482 34.256 615.678 33.556L617.162 33.955C616.863 34.949 616.331 35.74 615.566 36.328C614.805 36.916 613.844 37.21 612.682 37.21ZM618.702 37V26.92H621.859C621.952 26.92 622.125 26.9223 622.377 26.927C622.633 26.9317 622.878 26.9503 623.112 26.983C623.9 27.081 624.563 27.3633 625.1 27.83C625.641 28.2967 626.049 28.8893 626.325 29.608C626.6 30.322 626.738 31.106 626.738 31.96C626.738 32.8187 626.6 33.6073 626.325 34.326C626.049 35.04 625.641 35.6303 625.1 36.097C624.563 36.559 623.9 36.839 623.112 36.937C622.878 36.9697 622.633 36.9883 622.377 36.993C622.125 36.9977 621.952 37 621.859 37H618.702ZM620.2 35.607H621.859C622.017 35.607 622.206 35.6023 622.426 35.593C622.645 35.5837 622.839 35.565 623.007 35.537C623.52 35.439 623.935 35.2173 624.253 34.872C624.575 34.522 624.81 34.0927 624.96 33.584C625.109 33.0753 625.184 32.534 625.184 31.96C625.184 31.3673 625.107 30.819 624.953 30.315C624.799 29.8063 624.561 29.3817 624.239 29.041C623.921 28.6957 623.511 28.4763 623.007 28.383C622.839 28.3503 622.643 28.3317 622.419 28.327C622.199 28.3177 622.013 28.313 621.859 28.313H620.2V35.607ZM628.368 37V26.92H632.442C632.54 26.92 632.661 26.9247 632.806 26.934C632.95 26.9387 633.088 26.9527 633.219 26.976C633.779 27.0647 634.245 27.256 634.619 27.55C634.997 27.844 635.279 28.215 635.466 28.663C635.652 29.111 635.746 29.6057 635.746 30.147C635.746 30.9497 635.54 31.6427 635.13 32.226C634.719 32.8047 634.103 33.1663 633.282 33.311L632.687 33.381H629.831V37H628.368ZM634.262 37L632.274 32.898L633.751 32.52L635.935 37H634.262ZM629.831 31.995H632.386C632.479 31.995 632.582 31.9903 632.694 31.981C632.81 31.9717 632.92 31.9553 633.023 31.932C633.321 31.862 633.562 31.7337 633.744 31.547C633.926 31.3557 634.056 31.1363 634.136 30.889C634.215 30.6417 634.255 30.3943 634.255 30.147C634.255 29.8997 634.215 29.6547 634.136 29.412C634.056 29.1647 633.926 28.9477 633.744 28.761C633.562 28.5697 633.321 28.439 633.023 28.369C632.92 28.341 632.81 28.3223 632.694 28.313C632.582 28.3037 632.479 28.299 632.386 28.299H629.831V31.995ZM640.294 37.189C639.795 37.189 639.326 37.0957 638.887 36.909C638.448 36.7177 638.068 36.447 637.746 36.097C637.429 35.747 637.198 35.334 637.053 34.858L638.467 34.466C638.602 34.9 638.838 35.2337 639.174 35.467C639.51 35.6957 639.883 35.8077 640.294 35.803C640.663 35.7983 640.987 35.712 641.267 35.544C641.547 35.376 641.766 35.1497 641.925 34.865C642.084 34.5757 642.163 34.2443 642.163 33.871C642.163 33.311 641.988 32.849 641.638 32.485C641.293 32.121 640.84 31.939 640.28 31.939C640.121 31.939 639.958 31.9623 639.79 32.009C639.627 32.0557 639.473 32.1163 639.328 32.191L638.642 31.036L642.198 27.893L642.352 28.313H637.452V26.92H643.514V28.313L640.56 31.155L640.546 30.679C641.181 30.679 641.731 30.8213 642.198 31.106C642.665 31.386 643.024 31.7687 643.276 32.254C643.533 32.7347 643.661 33.2737 643.661 33.871C643.661 34.515 643.509 35.0867 643.206 35.586C642.907 36.0853 642.504 36.4773 641.995 36.762C641.491 37.0467 640.924 37.189 640.294 37.189Z" fill="#D3D7E0"/>
<path d="M208 158V24" stroke="#D3D7E0" stroke-width="2" stroke-linecap="square" stroke-dasharray="6 6"/>
<path d="M224.268 37.21C223.75 37.21 223.267 37.105 222.819 36.895C222.375 36.6803 221.995 36.3863 221.678 36.013C221.36 35.635 221.134 35.201 220.999 34.711L222.406 34.333C222.485 34.6317 222.62 34.8907 222.812 35.11C223.008 35.3293 223.236 35.4997 223.498 35.621C223.759 35.7377 224.03 35.796 224.31 35.796C224.678 35.796 225.012 35.7073 225.311 35.53C225.614 35.3527 225.852 35.1147 226.025 34.816C226.202 34.5173 226.291 34.1883 226.291 33.829C226.291 33.4603 226.2 33.1267 226.018 32.828C225.84 32.5293 225.6 32.2937 225.297 32.121C224.998 31.9437 224.669 31.855 224.31 31.855C223.899 31.855 223.551 31.9367 223.267 32.1C222.982 32.2633 222.76 32.4523 222.602 32.667L221.328 32.219L221.636 26.92H227.075V28.299H222.385L222.98 27.746L222.735 31.715L222.448 31.344C222.714 31.078 223.031 30.875 223.4 30.735C223.768 30.595 224.135 30.525 224.499 30.525C225.124 30.525 225.682 30.6697 226.172 30.959C226.666 31.2483 227.056 31.6427 227.341 32.142C227.625 32.6367 227.768 33.199 227.768 33.829C227.768 34.4543 227.607 35.0237 227.285 35.537C226.963 36.0457 226.536 36.4517 226.004 36.755C225.472 37.0583 224.893 37.21 224.268 37.21ZM229.581 30.28L229.672 29.629C229.873 29.643 230.029 29.6057 230.141 29.517C230.253 29.4283 230.328 29.3047 230.365 29.146C230.402 28.9873 230.409 28.8077 230.386 28.607H229.581V26.92H231.128V28.747C231.128 29.2977 230.995 29.713 230.729 29.993C230.468 30.273 230.085 30.3687 229.581 30.28ZM237.15 37.21C236.362 37.21 235.664 37.049 235.057 36.727C234.455 36.4003 233.984 35.9453 233.643 35.362C233.303 34.774 233.132 34.0833 233.132 33.29V26.927L234.616 26.92V33.213C234.616 33.6423 234.689 34.0203 234.833 34.347C234.978 34.6737 235.172 34.9467 235.414 35.166C235.657 35.3853 235.928 35.551 236.226 35.663C236.53 35.775 236.838 35.831 237.15 35.831C237.468 35.831 237.776 35.775 238.074 35.663C238.378 35.5463 238.651 35.3783 238.893 35.159C239.136 34.9397 239.327 34.6667 239.467 34.34C239.612 34.0133 239.684 33.6377 239.684 33.213V26.92H241.168V33.29C241.168 34.0787 240.998 34.767 240.657 35.355C240.317 35.943 239.843 36.4003 239.236 36.727C238.634 37.049 237.939 37.21 237.15 37.21ZM245.639 37V28.299H242.286V26.92H250.455V28.299H247.102V37H245.639ZM251.576 37V26.92H255.65C255.748 26.92 255.869 26.9247 256.014 26.934C256.158 26.9387 256.296 26.9527 256.427 26.976C256.987 27.0647 257.453 27.256 257.827 27.55C258.205 27.844 258.487 28.215 258.674 28.663C258.86 29.111 258.954 29.6057 258.954 30.147C258.954 30.9497 258.748 31.6427 258.338 32.226C257.927 32.8047 257.311 33.1663 256.49 33.311L255.895 33.381H253.039V37H251.576ZM257.47 37L255.482 32.898L256.959 32.52L259.143 37H257.47ZM253.039 31.995H255.594C255.687 31.995 255.79 31.9903 255.902 31.981C256.018 31.9717 256.128 31.9553 256.231 31.932C256.529 31.862 256.77 31.7337 256.952 31.547C257.134 31.3557 257.264 31.1363 257.344 30.889C257.423 30.6417 257.463 30.3943 257.463 30.147C257.463 29.8997 257.423 29.6547 257.344 29.412C257.264 29.1647 257.134 28.9477 256.952 28.761C256.77 28.5697 256.529 28.439 256.231 28.369C256.128 28.341 256.018 28.3223 255.902 28.313C255.79 28.3037 255.687 28.299 255.594 28.299H253.039V31.995Z" fill="#D3D7E0"/>
<path d="M272 158V24" stroke="#D3D7E0" stroke-width="2" stroke-linecap="square" stroke-dasharray="6 6"/>
<path d="M283.442 37V26.92H284.905V35.621H289.469V37H283.442Z" fill="#D3D7E0"/>
<path d="M300 158V24" stroke="#D3D7E0" stroke-width="2" stroke-linecap="square" stroke-dasharray="6 6"/>
<path d="M315.858 37H317.321V32.695H320.989V31.225H317.321V28.383H321.829V26.92H315.858V37ZM323.09 37H324.553V33.381H327.227L328.984 37H330.657L328.753 33.094C329.894 32.597 330.468 31.491 330.468 30.147C330.468 28.516 329.628 27.235 327.941 26.976C327.675 26.934 327.36 26.92 327.164 26.92H323.09V37ZM324.553 31.995V28.299H327.108C327.29 28.299 327.535 28.313 327.745 28.369C328.641 28.579 328.977 29.405 328.977 30.147C328.977 30.889 328.641 31.715 327.745 31.932C327.535 31.981 327.29 31.995 327.108 31.995H324.553ZM333.953 37H335.444V26.92H333.953L332.056 28.054V29.685L333.953 28.53V37Z" fill="#D3D7E0"/>
<path d="M352 158V24" stroke="#D3D7E0" stroke-width="2" stroke-linecap="square" stroke-dasharray="6 6"/>
<path d="M365.735 37.21C368.059 37.21 369.62 35.943 370.215 33.955L368.731 33.556C368.332 34.963 367.331 35.817 365.735 35.817C363.593 35.817 362.501 34.27 362.515 31.96C362.522 29.65 363.593 28.103 365.735 28.103C367.331 28.103 368.332 28.957 368.731 30.364L370.215 29.965C369.62 27.977 368.059 26.71 365.735 26.71C362.711 26.71 360.968 28.845 360.968 31.96C360.968 35.075 362.711 37.21 365.735 37.21ZM371.754 37H374.911C375.093 37 375.695 37 376.164 36.937C378.53 36.636 379.79 34.529 379.79 31.96C379.79 29.391 378.53 27.284 376.164 26.983C375.695 26.92 375.093 26.92 374.911 26.92H371.754V37ZM373.252 35.607V28.313H374.911C375.219 28.313 375.723 28.32 376.059 28.383C377.571 28.663 378.236 30.189 378.236 31.96C378.236 33.689 377.599 35.243 376.059 35.537C375.723 35.6 375.233 35.607 374.911 35.607H373.252ZM381.42 37H382.883V33.381H385.557L387.314 37H388.987L387.083 33.094C388.224 32.597 388.798 31.491 388.798 30.147C388.798 28.516 387.958 27.235 386.271 26.976C386.005 26.934 385.69 26.92 385.494 26.92H381.42V37ZM382.883 31.995V28.299H385.438C385.62 28.299 385.865 28.313 386.075 28.369C386.971 28.579 387.307 29.405 387.307 30.147C387.307 30.889 386.971 31.715 386.075 31.932C385.865 31.981 385.62 31.995 385.438 31.995H382.883ZM392.283 37H393.774V26.92H392.283L390.386 28.054V29.685L392.283 28.53V37Z" fill="#D3D7E0"/>
<path d="M404 158V24" stroke="#D3D7E0" stroke-width="2" stroke-linecap="square" stroke-dasharray="6 6"/>
<path d="M418.703 37H420.166V32.695H423.834V31.225H420.166V28.383H424.674V26.92H418.703V37ZM425.935 37H427.398V33.381H430.072L431.829 37H433.502L431.598 33.094C432.739 32.597 433.313 31.491 433.313 30.147C433.313 28.516 432.473 27.235 430.786 26.976C430.52 26.934 430.205 26.92 430.009 26.92H425.935V37ZM427.398 31.995V28.299H429.953C430.135 28.299 430.38 28.313 430.59 28.369C431.486 28.579 431.822 29.405 431.822 30.147C431.822 30.889 431.486 31.715 430.59 31.932C430.38 31.981 430.135 31.995 429.953 31.995H427.398ZM434.761 36.993H441.579V35.6H437.022L439.941 32.996C441.033 32.037 441.579 31.407 441.579 30.028C441.579 28.117 440.144 26.71 438.24 26.71C436.231 26.71 434.796 28.047 434.796 30H436.294C436.28 28.985 437.092 28.103 438.212 28.103C439.297 28.103 440.074 28.929 440.074 30.007C440.074 30.581 439.864 31.127 439.157 31.757L434.768 35.691L434.761 36.993Z" fill="#D3D7E0"/>
<path d="M456 158V24" stroke="#D3D7E0" stroke-width="2" stroke-linecap="square" stroke-dasharray="6 6"/>
<path d="M468.58 37.21C470.904 37.21 472.465 35.943 473.06 33.955L471.576 33.556C471.177 34.963 470.176 35.817 468.58 35.817C466.438 35.817 465.346 34.27 465.36 31.96C465.367 29.65 466.438 28.103 468.58 28.103C470.176 28.103 471.177 28.957 471.576 30.364L473.06 29.965C472.465 27.977 470.904 26.71 468.58 26.71C465.556 26.71 463.813 28.845 463.813 31.96C463.813 35.075 465.556 37.21 468.58 37.21ZM474.599 37H477.756C477.938 37 478.54 37 479.009 36.937C481.375 36.636 482.635 34.529 482.635 31.96C482.635 29.391 481.375 27.284 479.009 26.983C478.54 26.92 477.938 26.92 477.756 26.92H474.599V37ZM476.097 35.607V28.313H477.756C478.064 28.313 478.568 28.32 478.904 28.383C480.416 28.663 481.081 30.189 481.081 31.96C481.081 33.689 480.444 35.243 478.904 35.537C478.568 35.6 478.078 35.607 477.756 35.607H476.097ZM484.265 37H485.728V33.381H488.402L490.159 37H491.832L489.928 33.094C491.069 32.597 491.643 31.491 491.643 30.147C491.643 28.516 490.803 27.235 489.116 26.976C488.85 26.934 488.535 26.92 488.339 26.92H484.265V37ZM485.728 31.995V28.299H488.283C488.465 28.299 488.71 28.313 488.92 28.369C489.816 28.579 490.152 29.405 490.152 30.147C490.152 30.889 489.816 31.715 488.92 31.932C488.71 31.981 488.465 31.995 488.283 31.995H485.728ZM493.091 36.993H499.909V35.6H495.352L498.271 32.996C499.363 32.037 499.909 31.407 499.909 30.028C499.909 28.117 498.474 26.71 496.57 26.71C494.561 26.71 493.126 28.047 493.126 30H494.624C494.61 28.985 495.422 28.103 496.542 28.103C497.627 28.103 498.404 28.929 498.404 30.007C498.404 30.581 498.194 31.127 497.487 31.757L493.098 35.691L493.091 36.993Z" fill="#D3D7E0"/>
<path d="M508 158V24" stroke="#D3D7E0" stroke-width="2" stroke-linecap="square" stroke-dasharray="6 6"/>
<path d="M522.805 37H524.268V32.695H527.936V31.225H524.268V28.383H528.776V26.92H522.805V37ZM530.038 37H531.501V33.381H534.175L535.932 37H537.605L535.701 33.094C536.842 32.597 537.416 31.491 537.416 30.147C537.416 28.516 536.576 27.235 534.889 26.976C534.623 26.934 534.308 26.92 534.112 26.92H530.038V37ZM531.501 31.995V28.299H534.056C534.238 28.299 534.483 28.313 534.693 28.369C535.589 28.579 535.925 29.405 535.925 30.147C535.925 30.889 535.589 31.715 534.693 31.932C534.483 31.981 534.238 31.995 534.056 31.995H531.501ZM541.964 37.189C543.847 37.189 545.331 35.796 545.331 33.871C545.331 32.233 544.323 30.924 542.692 30.707L545.184 28.313V26.92H539.122V28.313H543.392L540.312 31.036L540.998 32.191C541.285 32.037 541.628 31.939 541.95 31.939C543.07 31.939 543.833 32.751 543.833 33.871C543.833 34.984 543.07 35.789 541.964 35.803C541.138 35.81 540.403 35.341 540.137 34.466L538.723 34.858C539.15 36.293 540.466 37.189 541.964 37.189Z" fill="#D3D7E0"/>
<path d="M560 158V24" stroke="#D3D7E0" stroke-width="2" stroke-linecap="square" stroke-dasharray="6 6"/>
<rect width="44" height="20" transform="translate(93 74)" fill="white"/>
<path d="M100.267 78L98 79.35V81L100.267 79.6333V90H101.767V78H100.267ZM105.649 90H107.166L111.482 79.4167V78H104.432V79.4167H109.966L105.649 90ZM120.913 82.1833C120.179 81.25 119.029 80.75 117.796 80.75C116.729 80.75 115.713 81.15 114.979 81.85V78H113.479V90H114.813V88.95C115.529 89.8167 116.596 90.25 117.796 90.25C119.013 90.25 120.163 89.7333 120.913 88.8C121.663 87.85 121.913 86.6667 121.913 85.4833C121.913 84.3 121.629 83.1 120.913 82.1833ZM119.713 87.8833C119.229 88.5667 118.429 88.8833 117.613 88.8833C116.779 88.8833 116.013 88.5833 115.513 87.9667C115.013 87.35 114.813 86.4167 114.813 85.4833C114.813 84.5667 115.013 83.65 115.513 83.0167C115.996 82.4 116.746 82.1 117.563 82.1C118.446 82.1 119.213 82.4167 119.696 83.1C120.163 83.7167 120.329 84.5833 120.329 85.4833C120.329 86.3833 120.179 87.2667 119.713 87.8833ZM131.178 82.1833C130.445 81.25 129.295 80.75 128.061 80.75C126.911 80.75 125.811 81.2 125.078 82.0167V81H123.745V94H125.245V89.15C125.945 89.8833 126.945 90.25 128.061 90.25C129.278 90.25 130.428 89.7333 131.178 88.8C131.928 87.85 132.178 86.6667 132.178 85.4833C132.178 84.3 131.895 83.1 131.178 82.1833ZM129.978 87.8833C129.495 88.5667 128.695 88.8833 127.878 88.8833C127.045 88.8833 126.278 88.5833 125.778 87.9667C125.278 87.35 125.078 86.4167 125.078 85.4833C125.078 84.5667 125.278 83.65 125.778 83.0167C126.261 82.4 127.011 82.1 127.828 82.1C128.711 82.1 129.478 82.4167 129.961 83.1C130.428 83.7167 130.595 84.5833 130.595 85.4833C130.595 86.3833 130.445 87.2667 129.978 87.8833Z" fill="#110529"/>
<rect width="62" height="20" transform="translate(151 74)" fill="white"/>
<path d="M156.883 90H158.4L162.717 79.4167V78H155.667V79.4167H161.2L156.883 90ZM164.375 84.6833V85.9H169.375V84.6833H164.375ZM173.642 78L171.375 79.35V81L173.642 79.6333V90H175.142V78H173.642ZM182.357 90.25C181.207 90.25 180.057 89.7833 179.307 88.9167C178.574 88.0667 178.307 87.1833 178.307 86.0333V81.95C178.307 80.7833 178.574 79.9 179.341 79.0167C180.074 78.2167 181.174 77.7333 182.357 77.75C183.507 77.7333 184.624 78.1667 185.391 79.0167C186.141 79.85 186.407 80.7667 186.407 81.95V86.0333C186.407 87.1667 186.157 88.0833 185.407 88.9333C184.657 89.7667 183.557 90.25 182.357 90.25ZM182.357 79.1667C181.491 79.15 180.674 79.6333 180.224 80.3333C179.924 80.7833 179.824 81.3167 179.824 81.95V86.0333C179.824 86.6167 179.907 87.1833 180.241 87.6667C180.707 88.3667 181.491 88.8333 182.357 88.8167C183.241 88.8333 184.041 88.3667 184.491 87.6667C184.824 87.1833 184.907 86.6833 184.907 86.0333V81.95C184.907 81.3333 184.824 80.8667 184.507 80.35C184.057 79.6333 183.241 79.15 182.357 79.1667ZM196.178 82.1833C195.445 81.25 194.295 80.75 193.061 80.75C191.995 80.75 190.978 81.15 190.245 81.85V78H188.745V90H190.078V88.95C190.795 89.8167 191.861 90.25 193.061 90.25C194.278 90.25 195.428 89.7333 196.178 88.8C196.928 87.85 197.178 86.6667 197.178 85.4833C197.178 84.3 196.895 83.1 196.178 82.1833ZM194.978 87.8833C194.495 88.5667 193.695 88.8833 192.878 88.8833C192.045 88.8833 191.278 88.5833 190.778 87.9667C190.278 87.35 190.078 86.4167 190.078 85.4833C190.078 84.5667 190.278 83.65 190.778 83.0167C191.261 82.4 192.011 82.1 192.828 82.1C193.711 82.1 194.478 82.4167 194.961 83.1C195.428 83.7167 195.595 84.5833 195.595 85.4833C195.595 86.3833 195.445 87.2667 194.978 87.8833ZM206.444 82.1833C205.71 81.25 204.56 80.75 203.327 80.75C202.177 80.75 201.077 81.2 200.344 82.0167V81H199.01V94H200.51V89.15C201.21 89.8833 202.21 90.25 203.327 90.25C204.544 90.25 205.694 89.7333 206.444 88.8C207.194 87.85 207.444 86.6667 207.444 85.4833C207.444 84.3 207.16 83.1 206.444 82.1833ZM205.244 87.8833C204.76 88.5667 203.96 88.8833 203.144 88.8833C202.31 88.8833 201.544 88.5833 201.044 87.9667C200.544 87.35 200.344 86.4167 200.344 85.4833C200.344 84.5667 200.544 83.65 201.044 83.0167C201.527 82.4 202.277 82.1 203.094 82.1C203.977 82.1 204.744 82.4167 205.227 83.1C205.694 83.7167 205.86 84.5833 205.86 85.4833C205.86 86.3833 205.71 87.2667 205.244 87.8833Z" fill="#110529"/>
<g filter="url(#filter0_i_5803_36194)">
<rect x="80" y="272" width="72" height="52" rx="1" fill="#D6E0FF"/>
<path d="M105.053 306.3C108.393 306.3 110.733 304.1 110.733 300.75V291.6H108.933V300.6C108.933 303.31 106.893 304.62 105.053 304.62C103.233 304.62 101.173 303.33 101.173 300.6V291.6L99.3727 291.61V300.75C99.3727 304.11 101.713 306.3 105.053 306.3ZM113.533 306H115.223V295.51L120.113 306H121.063L125.953 295.51V305.99H127.643V291.6H126.003L120.593 303.07L115.153 291.6H113.533V306ZM130.647 306H132.427V291.6H130.647V306Z" fill="#110529"/>
<rect x="80" y="272" width="72" height="52" rx="1" stroke="#110529" stroke-width="2" stroke-linecap="round"/>
</g>
<g filter="url(#filter1_i_5803_36194)">
<rect x="152" y="272" width="56" height="52" rx="1" fill="#D3D7E0"/>
<path d="M172.815 306H174.595V293.29H179.505V291.6H167.905V293.29H172.815V306ZM186.207 306.3C189.197 306.3 191.597 304.77 191.597 301.98C191.597 299.21 189.227 298.5 187.977 298.15L185.237 297.36C184.167 297.06 182.837 296.6 182.837 295.27C182.837 293.94 184.207 292.98 185.977 293C187.807 293.02 189.317 294.1 189.617 295.85L191.507 295.52C190.977 292.9 188.897 291.33 185.997 291.31C183.127 291.3 180.957 292.8 180.957 295.35C180.957 297.48 182.477 298.41 184.077 298.88L187.747 299.97C188.777 300.28 189.757 300.82 189.757 302.08C189.757 303.65 188.227 304.61 186.297 304.61C184.287 304.61 182.697 303.54 182.237 301.72L180.397 302.01C180.877 304.66 183.147 306.3 186.207 306.3Z" fill="#110529"/>
<rect x="152" y="272" width="56" height="52" rx="1" stroke="#110529" stroke-width="2" stroke-linecap="round"/>
</g>
<g filter="url(#filter2_i_5803_36194)">
<rect x="208" y="272" width="373" height="52" rx="1" fill="#99E099"/>
<path d="M393.258 306H395.738L400.558 291.6H398.708L394.478 304.11L390.288 291.6H388.438L393.258 306Z" fill="#110529"/>
<rect x="208" y="272" width="373" height="52" rx="1" stroke="#110529" stroke-width="2" stroke-linecap="round"/>
</g>
<g filter="url(#filter3_i_5803_36194)">
<rect x="581" y="272" width="30" height="52" rx="1" fill="#CBEB67"/>
</g>
<rect x="581" y="272" width="30" height="52" rx="1" stroke="#110529" stroke-width="2" stroke-linecap="round"/>
<path d="M590.447 306V291.6H592.247L599.757 302.85V291.6H601.557V306H599.757L592.247 294.74V306H590.447Z" fill="#110529"/>
<g filter="url(#filter4_i_5803_36194)">
<path d="M712 273.6C712 273.04 712 272.76 711.891 272.546C711.795 272.358 711.642 272.205 711.454 272.109C711.24 272 710.96 272 710.4 272H612.6C612.04 272 611.76 272 611.546 272.109C611.358 272.205 611.205 272.358 611.109 272.546C611 272.76 611 273.04 611 273.6V298V322.4C611 322.96 611 323.24 611.109 323.454C611.205 323.642 611.358 323.795 611.546 323.891C611.76 324 612.04 324 612.6 324H710.4C710.96 324 711.24 324 711.454 323.891C711.642 323.795 711.795 323.642 711.891 323.454C712 323.24 712 322.96 712 322.4V317.5V311V304V298V291.5V285V278.5V273.6Z" fill="#C1ADFF"/>
</g>
<path d="M712 273.6C712 273.04 712 272.76 711.891 272.546C711.795 272.358 711.642 272.205 711.454 272.109C711.24 272 710.96 272 710.4 272H612.6C612.04 272 611.76 272 611.546 272.109C611.358 272.205 611.205 272.358 611.109 272.546C611 272.76 611 273.04 611 273.6V298V322.4C611 322.96 611 323.24 611.109 323.454C611.205 323.642 611.358 323.795 611.546 323.891C611.76 324 612.04 324 612.6 324H710.4C710.96 324 711.24 324 711.454 323.891C711.642 323.795 711.795 323.642 711.891 323.454C712 323.24 712 322.96 712 322.4V317.5V311V304V298V291.5V285V278.5V273.6Z" stroke="#110529" stroke-width="2" stroke-linecap="round"/>
<path d="M661.227 306.29C660.221 306.29 659.367 306.017 658.667 305.47C657.967 304.923 657.487 304.19 657.227 303.27L658.997 302.85C659.104 303.337 659.361 303.75 659.767 304.09C660.181 304.43 660.654 304.6 661.187 304.6C661.534 304.6 661.887 304.517 662.247 304.35C662.607 304.177 662.884 303.897 663.077 303.51C663.211 303.243 663.287 302.95 663.307 302.63C663.327 302.303 663.337 301.92 663.337 301.48V291.6H665.137V301.48C665.137 301.893 665.134 302.263 665.127 302.59C665.127 302.917 665.094 303.23 665.027 303.53C664.967 303.823 664.847 304.123 664.667 304.43C664.307 305.063 663.824 305.533 663.217 305.84C662.617 306.14 661.954 306.29 661.227 306.29Z" fill="#110529"/>
<g filter="url(#filter5_i_5803_36194)">
<rect x="712" y="272" width="144" height="52" rx="1" fill="#FAFAAA"/>
<path d="M783.593 306.3C782.16 306.3 780.943 305.983 779.943 305.35C778.943 304.717 778.18 303.837 777.653 302.71C777.133 301.583 776.873 300.28 776.873 298.8C776.873 297.32 777.133 296.017 777.653 294.89C778.18 293.763 778.943 292.883 779.943 292.25C780.943 291.617 782.16 291.3 783.593 291.3C785.26 291.3 786.63 291.723 787.703 292.57C788.783 293.417 789.527 294.557 789.933 295.99L788.123 296.47C787.83 295.397 787.307 294.55 786.553 293.93C785.8 293.31 784.813 293 783.593 293C782.52 293 781.627 293.243 780.913 293.73C780.2 294.217 779.663 294.897 779.303 295.77C778.943 296.637 778.76 297.647 778.753 298.8C778.747 299.947 778.923 300.957 779.283 301.83C779.643 302.697 780.183 303.377 780.903 303.87C781.623 304.357 782.52 304.6 783.593 304.6C784.813 304.6 785.8 304.29 786.553 303.67C787.307 303.043 787.83 302.197 788.123 301.13L789.933 301.61C789.527 303.037 788.783 304.177 787.703 305.03C786.63 305.877 785.26 306.3 783.593 306.3Z" fill="#110529"/>
<rect x="712" y="272" width="144" height="52" rx="1" stroke="#110529" stroke-width="2" stroke-linecap="round"/>
</g>
<path d="M21.6 140H23.38V125.6H21.6V140ZM32.2105 140.3C36.4205 140.3 38.6605 137.39 38.6605 133.44C38.6605 133.32 38.6505 132.87 38.6205 132.59H33.6805V134.06H36.7405C36.5205 136.93 35.0805 138.62 32.3005 138.6C29.0805 138.58 27.4505 136.25 27.4705 132.8C27.4905 129.35 29.0805 126.99 32.3005 127.01C34.3505 127.02 35.7405 128.14 36.3505 129.88L38.1505 129.51C37.4005 126.92 35.4305 125.31 32.2105 125.31C28.1805 125.31 25.5805 128.21 25.5805 132.8C25.5805 137.44 28.2405 140.3 32.2105 140.3ZM40.6578 140H42.4378V133.64H50.0178V140H51.7978V125.6H50.0178V131.95H42.4378V125.6H40.6578V140Z" fill="#110529"/>
<path d="M21.6 296H23.38V281.6H21.6V296ZM32.2105 296.3C36.4205 296.3 38.6605 293.39 38.6605 289.44C38.6605 289.32 38.6505 288.87 38.6205 288.59H33.6805V290.06H36.7405C36.5205 292.93 35.0805 294.62 32.3005 294.6C29.0805 294.58 27.4505 292.25 27.4705 288.8C27.4905 285.35 29.0805 282.99 32.3005 283.01C34.3505 283.02 35.7405 284.14 36.3505 285.88L38.1505 285.51C37.4005 282.92 35.4305 281.31 32.2105 281.31C28.1805 281.31 25.5805 284.21 25.5805 288.8C25.5805 293.44 28.2405 296.3 32.2105 296.3ZM40.6578 296H42.4378V288.96L49.1878 296H51.4878L44.4378 288.59L50.9778 281.6H48.7378L42.4378 288.36V281.6H40.6578V296ZM60.1377 281.6L56.2977 296H58.1077L61.9477 281.6H60.1377ZM21.6 316H23.38V301.6H21.6V316ZM32.2105 316.3C36.4205 316.3 38.6605 313.39 38.6605 309.44C38.6605 309.32 38.6505 308.87 38.6205 308.59H33.6805V310.06H36.7405C36.5205 312.93 35.0805 314.62 32.3005 314.6C29.0805 314.58 27.4505 312.25 27.4705 308.8C27.4905 305.35 29.0805 302.99 32.3005 303.01C34.3505 303.02 35.7405 304.14 36.3505 305.88L38.1505 305.51C37.4005 302.92 35.4305 301.31 32.2105 301.31C28.1805 301.31 25.5805 304.21 25.5805 308.8C25.5805 313.44 28.2405 316.3 32.2105 316.3ZM40.8578 316H49.3178V314.31H42.6378V301.6H40.8578V316Z" fill="#110529"/>
<path d="M839.964 90.992L839.972 89.712L845.084 85.112C845.511 84.728 845.796 84.3653 845.94 84.024C846.089 83.6773 846.164 83.3227 846.164 82.96C846.164 82.5173 846.063 82.1173 845.86 81.76C845.657 81.4027 845.38 81.12 845.028 80.912C844.681 80.704 844.287 80.6 843.844 80.6C843.385 80.6 842.977 80.7093 842.62 80.928C842.263 81.1413 841.98 81.4267 841.772 81.784C841.569 82.1413 841.471 82.5307 841.476 82.952H840.02C840.02 82.2267 840.188 81.5867 840.524 81.032C840.86 80.472 841.316 80.0347 841.892 79.72C842.473 79.4 843.132 79.24 843.868 79.24C844.583 79.24 845.223 79.4053 845.788 79.736C846.353 80.0613 846.799 80.5067 847.124 81.072C847.455 81.632 847.62 82.2667 847.62 82.976C847.62 83.4773 847.556 83.912 847.428 84.28C847.305 84.648 847.113 84.9893 846.852 85.304C846.591 85.6133 846.263 85.944 845.868 86.296L841.62 90.112L841.436 89.632H847.62V90.992H839.964ZM853.422 91.24C852.675 91.24 852.009 91.072 851.422 90.736C850.841 90.3947 850.379 89.9333 850.038 89.352C849.702 88.7653 849.534 88.0987 849.534 87.352V83.128C849.534 82.3813 849.702 81.7147 850.038 81.128C850.379 80.5413 850.841 80.08 851.422 79.744C852.009 79.408 852.675 79.24 853.422 79.24C854.169 79.24 854.835 79.408 855.422 79.744C856.009 80.08 856.47 80.5413 856.806 81.128C857.142 81.7147 857.31 82.3813 857.31 83.128V87.352C857.31 88.0987 857.142 88.7653 856.806 89.352C856.47 89.9333 856.009 90.3947 855.422 90.736C854.835 91.072 854.169 91.24 853.422 91.24ZM853.422 89.872C853.875 89.872 854.286 89.7627 854.654 89.544C855.022 89.3253 855.315 89.032 855.534 88.664C855.753 88.2907 855.862 87.88 855.862 87.432V83.04C855.862 82.5867 855.753 82.176 855.534 81.808C855.315 81.44 855.022 81.1467 854.654 80.928C854.286 80.7093 853.875 80.6 853.422 80.6C852.974 80.6 852.563 80.7093 852.19 80.928C851.822 81.1467 851.529 81.44 851.31 81.808C851.091 82.176 850.982 82.5867 850.982 83.04V87.432C850.982 87.88 851.091 88.2907 851.31 88.664C851.529 89.032 851.822 89.3253 852.19 89.544C852.563 89.7627 852.974 89.872 853.422 89.872ZM859.39 85.824V84.648H864.19V85.824H859.39ZM865.948 90.992L865.956 89.712L871.068 85.112C871.495 84.728 871.78 84.3653 871.924 84.024C872.074 83.6773 872.148 83.3227 872.148 82.96C872.148 82.5173 872.047 82.1173 871.844 81.76C871.642 81.4027 871.364 81.12 871.012 80.912C870.666 80.704 870.271 80.6 869.828 80.6C869.37 80.6 868.962 80.7093 868.604 80.928C868.247 81.1413 867.964 81.4267 867.756 81.784C867.554 82.1413 867.455 82.5307 867.46 82.952H866.004C866.004 82.2267 866.172 81.5867 866.508 81.032C866.844 80.472 867.3 80.0347 867.876 79.72C868.458 79.4 869.116 79.24 869.852 79.24C870.567 79.24 871.207 79.4053 871.772 79.736C872.338 80.0613 872.783 80.5067 873.108 81.072C873.439 81.632 873.604 82.2667 873.604 82.976C873.604 83.4773 873.54 83.912 873.412 84.28C873.29 84.648 873.098 84.9893 872.836 85.304C872.575 85.6133 872.247 85.944 871.852 86.296L867.604 90.112L867.42 89.632H873.604V90.992H865.948ZM875.198 90.992L875.206 89.712L880.318 85.112C880.745 84.728 881.03 84.3653 881.174 84.024C881.324 83.6773 881.398 83.3227 881.398 82.96C881.398 82.5173 881.297 82.1173 881.094 81.76C880.892 81.4027 880.614 81.12 880.262 80.912C879.916 80.704 879.521 80.6 879.078 80.6C878.62 80.6 878.212 80.7093 877.854 80.928C877.497 81.1413 877.214 81.4267 877.006 81.784C876.804 82.1413 876.705 82.5307 876.71 82.952H875.254C875.254 82.2267 875.422 81.5867 875.758 81.032C876.094 80.472 876.55 80.0347 877.126 79.72C877.708 79.4 878.366 79.24 879.102 79.24C879.817 79.24 880.457 79.4053 881.022 79.736C881.588 80.0613 882.033 80.5067 882.358 81.072C882.689 81.632 882.854 82.2667 882.854 82.976C882.854 83.4773 882.79 83.912 882.662 84.28C882.54 84.648 882.348 84.9893 882.086 85.304C881.825 85.6133 881.497 85.944 881.102 86.296L876.854 90.112L876.67 89.632H882.854V90.992H875.198ZM888.736 91.24C887.926 91.24 887.243 91.04 886.688 90.64C886.134 90.2347 885.712 89.688 885.424 89C885.142 88.3067 885 87.5307 885 86.672C885 85.8027 885.142 85.024 885.424 84.336C885.712 83.648 886.134 83.1067 886.688 82.712C887.248 82.3173 887.934 82.12 888.744 82.12C889.544 82.12 890.232 82.32 890.808 82.72C891.39 83.1147 891.835 83.656 892.144 84.344C892.454 85.032 892.608 85.808 892.608 86.672C892.608 87.536 892.454 88.312 892.144 89C891.835 89.688 891.39 90.2347 890.808 90.64C890.232 91.04 889.542 91.24 888.736 91.24ZM884.76 91V79.48H886.192V84.64H886.032V91H884.76ZM888.56 89.936C889.131 89.936 889.603 89.792 889.976 89.504C890.35 89.216 890.63 88.8267 890.816 88.336C891.003 87.84 891.096 87.2853 891.096 86.672C891.096 86.064 891.003 85.5147 890.816 85.024C890.635 84.5333 890.352 84.144 889.968 83.856C889.59 83.568 889.107 83.424 888.52 83.424C887.96 83.424 887.496 83.5627 887.128 83.84C886.76 84.112 886.486 84.4933 886.304 84.984C886.123 85.4693 886.032 86.032 886.032 86.672C886.032 87.3013 886.12 87.864 886.296 88.36C886.478 88.8507 886.755 89.2373 887.128 89.52C887.502 89.7973 887.979 89.936 888.56 89.936ZM898.33 91.24C897.52 91.24 896.837 91.04 896.282 90.64C895.728 90.2347 895.306 89.688 895.018 89C894.736 88.3067 894.594 87.5307 894.594 86.672C894.594 85.8027 894.736 85.024 895.018 84.336C895.306 83.648 895.728 83.1067 896.282 82.712C896.842 82.3173 897.528 82.12 898.338 82.12C899.138 82.12 899.826 82.32 900.402 82.72C900.984 83.1147 901.429 83.656 901.738 84.344C902.048 85.032 902.202 85.808 902.202 86.672C902.202 87.536 902.048 88.312 901.738 89C901.429 89.688 900.984 90.2347 900.402 90.64C899.826 91.04 899.136 91.24 898.33 91.24ZM894.354 94.84V82.36H895.626V88.72H895.786V94.84H894.354ZM898.154 89.936C898.725 89.936 899.197 89.792 899.57 89.504C899.944 89.216 900.224 88.8267 900.41 88.336C900.597 87.84 900.69 87.2853 900.69 86.672C900.69 86.064 900.597 85.5147 900.41 85.024C900.229 84.5333 899.946 84.144 899.562 83.856C899.184 83.568 898.701 83.424 898.114 83.424C897.554 83.424 897.09 83.5627 896.722 83.84C896.354 84.112 896.08 84.4933 895.898 84.984C895.717 85.4693 895.626 86.032 895.626 86.672C895.626 87.3013 895.714 87.864 895.89 88.36C896.072 88.8507 896.349 89.2373 896.722 89.52C897.096 89.7973 897.573 89.936 898.154 89.936Z" fill="#110529"/>
<path d="M817.684 60.24C816.537 60.24 815.564 59.9867 814.764 59.48C813.964 58.9733 813.353 58.2693 812.932 57.368C812.516 56.4667 812.308 55.424 812.308 54.24C812.308 53.056 812.516 52.0133 812.932 51.112C813.353 50.2107 813.964 49.5067 814.764 49C815.564 48.4933 816.537 48.24 817.684 48.24C819.017 48.24 820.113 48.5787 820.972 49.256C821.836 49.9333 822.431 50.8453 822.756 51.992L821.308 52.376C821.073 51.5173 820.655 50.84 820.052 50.344C819.449 49.848 818.66 49.6 817.684 49.6C816.825 49.6 816.111 49.7947 815.54 50.184C814.969 50.5733 814.54 51.1173 814.252 51.816C813.964 52.5093 813.817 53.3173 813.812 54.24C813.807 55.1573 813.948 55.9653 814.236 56.664C814.524 57.3573 814.956 57.9013 815.532 58.296C816.108 58.6853 816.825 58.88 817.684 58.88C818.66 58.88 819.449 58.632 820.052 58.136C820.655 57.6347 821.073 56.9573 821.308 56.104L822.756 56.488C822.431 57.6293 821.836 58.5413 820.972 59.224C820.113 59.9013 819.017 60.24 817.684 60.24ZM824.351 55.544V54.368H829.151V55.544H824.351ZM831.229 60V51.36H832.501V53.448L832.293 53.176C832.395 52.9093 832.525 52.664 832.685 52.44C832.851 52.216 833.035 52.032 833.237 51.888C833.461 51.7067 833.715 51.568 833.997 51.472C834.28 51.376 834.568 51.32 834.861 51.304C835.155 51.2827 835.429 51.3013 835.685 51.36V52.696C835.387 52.616 835.059 52.5947 834.701 52.632C834.344 52.6693 834.013 52.8 833.709 53.024C833.432 53.2213 833.216 53.4613 833.061 53.744C832.912 54.0267 832.808 54.3333 832.749 54.664C832.691 54.9893 832.661 55.3227 832.661 55.664V60H831.229ZM840.786 60.24C839.938 60.24 839.197 60.0533 838.562 59.68C837.933 59.3013 837.442 58.776 837.09 58.104C836.738 57.4267 836.562 56.6373 836.562 55.736C836.562 54.792 836.735 53.976 837.082 53.288C837.429 52.5947 837.911 52.0613 838.53 51.688C839.154 51.3093 839.885 51.12 840.722 51.12C841.591 51.12 842.33 51.32 842.938 51.72C843.551 52.12 844.01 52.6907 844.314 53.432C844.623 54.1733 844.757 55.056 844.714 56.08H843.274V55.568C843.258 54.5067 843.042 53.7147 842.626 53.192C842.21 52.664 841.591 52.4 840.77 52.4C839.89 52.4 839.221 52.6827 838.762 53.248C838.303 53.8133 838.074 54.624 838.074 55.68C838.074 56.6987 838.303 57.488 838.762 58.048C839.221 58.608 839.874 58.888 840.722 58.888C841.293 58.888 841.789 58.7573 842.21 58.496C842.631 58.2347 842.962 57.8587 843.202 57.368L844.57 57.84C844.234 58.6027 843.727 59.1947 843.05 59.616C842.378 60.032 841.623 60.24 840.786 60.24ZM837.594 56.08V54.936H843.978V56.08H837.594ZM849.991 64.08C849.538 64.08 849.095 64.0107 848.663 63.872C848.231 63.7333 847.834 63.5227 847.471 63.24C847.114 62.9627 846.815 62.6107 846.575 62.184L847.879 61.496C848.092 61.9173 848.394 62.224 848.783 62.416C849.178 62.608 849.583 62.704 849.999 62.704C850.548 62.704 851.004 62.6027 851.367 62.4C851.73 62.2027 851.996 61.9067 852.167 61.512C852.343 61.1173 852.428 60.6267 852.423 60.04V57.68H852.591V51.36H853.855V60.056C853.855 60.2907 853.847 60.5173 853.831 60.736C853.82 60.9547 853.794 61.1707 853.751 61.384C853.639 61.9973 853.418 62.5013 853.087 62.896C852.756 63.296 852.33 63.592 851.807 63.784C851.284 63.9813 850.679 64.08 849.991 64.08ZM849.887 60.24C849.082 60.24 848.391 60.04 847.815 59.64C847.239 59.2347 846.794 58.688 846.479 58C846.17 57.312 846.015 56.536 846.015 55.672C846.015 54.808 846.17 54.032 846.479 53.344C846.794 52.656 847.239 52.1147 847.815 51.72C848.391 51.32 849.079 51.12 849.879 51.12C850.695 51.12 851.38 51.3173 851.935 51.712C852.49 52.1067 852.908 52.648 853.191 53.336C853.479 54.024 853.623 54.8027 853.623 55.672C853.623 56.5307 853.479 57.3067 853.191 58C852.908 58.688 852.49 59.2347 851.935 59.64C851.38 60.04 850.698 60.24 849.887 60.24ZM850.063 58.936C850.644 58.936 851.122 58.7973 851.495 58.52C851.868 58.2373 852.143 57.8507 852.319 57.36C852.5 56.864 852.591 56.3013 852.591 55.672C852.591 55.032 852.5 54.4693 852.319 53.984C852.143 53.4933 851.871 53.112 851.503 52.84C851.135 52.5627 850.668 52.424 850.103 52.424C849.516 52.424 849.031 52.568 848.647 52.856C848.268 53.144 847.986 53.5333 847.799 54.024C847.618 54.5147 847.527 55.064 847.527 55.672C847.527 56.2853 847.62 56.84 847.807 57.336C847.994 57.8267 848.274 58.216 848.647 58.504C849.026 58.792 849.498 58.936 850.063 58.936ZM856.249 49.832V48.36H857.673V49.832H856.249ZM856.249 60V51.36H857.673V60H856.249ZM863.753 60.24C862.894 60.24 862.153 60.0453 861.529 59.656C860.91 59.2667 860.433 58.728 860.097 58.04C859.761 57.352 859.593 56.5627 859.593 55.672C859.593 54.7653 859.764 53.9707 860.105 53.288C860.446 52.6053 860.929 52.0747 861.553 51.696C862.177 51.312 862.91 51.12 863.753 51.12C864.617 51.12 865.361 51.3147 865.985 51.704C866.609 52.088 867.086 52.624 867.417 53.312C867.753 53.9947 867.921 54.7813 867.921 55.672C867.921 56.5733 867.753 57.368 867.417 58.056C867.081 58.7387 866.601 59.2747 865.977 59.664C865.353 60.048 864.612 60.24 863.753 60.24ZM863.753 58.888C864.649 58.888 865.316 58.5893 865.753 57.992C866.19 57.3947 866.409 56.6213 866.409 55.672C866.409 54.696 866.188 53.92 865.745 53.344C865.302 52.7627 864.638 52.472 863.753 52.472C863.15 52.472 862.654 52.608 862.265 52.88C861.876 53.152 861.585 53.528 861.393 54.008C861.201 54.488 861.105 55.0427 861.105 55.672C861.105 56.6427 861.329 57.4213 861.777 58.008C862.225 58.5947 862.884 58.888 863.753 58.888ZM875.835 60V55.672C875.835 55.2613 875.797 54.8667 875.723 54.488C875.653 54.1093 875.528 53.7707 875.347 53.472C875.171 53.168 874.931 52.928 874.627 52.752C874.328 52.576 873.949 52.488 873.491 52.488C873.133 52.488 872.808 52.5493 872.515 52.672C872.227 52.7893 871.979 52.9707 871.771 53.216C871.563 53.4613 871.4 53.7707 871.283 54.144C871.171 54.512 871.115 54.9467 871.115 55.448L870.179 55.16C870.179 54.3227 870.328 53.6053 870.627 53.008C870.931 52.4053 871.355 51.944 871.899 51.624C872.448 51.2987 873.093 51.136 873.835 51.136C874.395 51.136 874.872 51.224 875.267 51.4C875.661 51.576 875.989 51.8107 876.251 52.104C876.512 52.392 876.717 52.7173 876.867 53.08C877.016 53.4373 877.12 53.8027 877.179 54.176C877.243 54.544 877.275 54.8933 877.275 55.224V60H875.835ZM869.675 60V51.36H870.955V53.672H871.115V60H869.675ZM886.526 60.24C885.715 60.24 885.032 60.04 884.478 59.64C883.923 59.2347 883.502 58.688 883.214 58C882.931 57.3067 882.79 56.5307 882.79 55.672C882.79 54.8027 882.931 54.024 883.214 53.336C883.502 52.648 883.923 52.1067 884.478 51.712C885.038 51.3173 885.723 51.12 886.534 51.12C887.334 51.12 888.022 51.32 888.598 51.72C889.179 52.1147 889.624 52.656 889.934 53.344C890.243 54.032 890.398 54.808 890.398 55.672C890.398 56.536 890.243 57.312 889.934 58C889.624 58.688 889.179 59.2347 888.598 59.64C888.022 60.04 887.331 60.24 886.526 60.24ZM882.55 63.84V51.36H883.822V57.72H883.982V63.84H882.55ZM886.35 58.936C886.92 58.936 887.392 58.792 887.766 58.504C888.139 58.216 888.419 57.8267 888.606 57.336C888.792 56.84 888.886 56.2853 888.886 55.672C888.886 55.064 888.792 54.5147 888.606 54.024C888.424 53.5333 888.142 53.144 887.758 52.856C887.379 52.568 886.896 52.424 886.31 52.424C885.75 52.424 885.286 52.5627 884.918 52.84C884.55 53.112 884.275 53.4933 884.094 53.984C883.912 54.4693 883.822 55.032 883.822 55.672C883.822 56.3013 883.91 56.864 884.086 57.36C884.267 57.8507 884.544 58.2373 884.918 58.52C885.291 58.7973 885.768 58.936 886.35 58.936ZM892.151 60V51.36H893.423V53.448L893.215 53.176C893.317 52.9093 893.447 52.664 893.607 52.44C893.773 52.216 893.957 52.032 894.159 51.888C894.383 51.7067 894.637 51.568 894.919 51.472C895.202 51.376 895.49 51.32 895.783 51.304C896.077 51.2827 896.351 51.3013 896.607 51.36V52.696C896.309 52.616 895.981 52.5947 895.623 52.632C895.266 52.6693 894.935 52.8 894.631 53.024C894.354 53.2213 894.138 53.4613 893.983 53.744C893.834 54.0267 893.73 54.3333 893.671 54.664C893.613 54.9893 893.583 55.3227 893.583 55.664V60H892.151ZM898.28 49.832V48.36H899.704V49.832H898.28ZM898.28 60V51.36H899.704V60H898.28ZM912.432 60L912.44 54.472C912.44 53.8267 912.267 53.3227 911.92 52.96C911.579 52.592 911.134 52.408 910.584 52.408C910.264 52.408 909.96 52.4827 909.672 52.632C909.384 52.776 909.15 53.0053 908.968 53.32C908.787 53.6293 908.696 54.0267 908.696 54.512L907.944 54.208C907.934 53.5947 908.059 53.0587 908.32 52.6C908.587 52.136 908.95 51.776 909.408 51.52C909.867 51.264 910.384 51.136 910.96 51.136C911.862 51.136 912.571 51.4107 913.088 51.96C913.606 52.504 913.864 53.2373 913.864 54.16L913.856 60H912.432ZM902.096 60V51.36H903.368V53.672H903.528V60H902.096ZM907.272 60L907.28 54.528C907.28 53.8667 907.11 53.3493 906.768 52.976C906.427 52.5973 905.974 52.408 905.408 52.408C904.848 52.408 904.395 52.6 904.048 52.984C903.702 53.368 903.528 53.8773 903.528 54.512L902.776 54.064C902.776 53.504 902.91 53.0027 903.176 52.56C903.443 52.1173 903.806 51.7707 904.264 51.52C904.723 51.264 905.243 51.136 905.824 51.136C906.406 51.136 906.912 51.2587 907.344 51.504C907.776 51.7493 908.11 52.1013 908.344 52.56C908.579 53.0133 908.696 53.5547 908.696 54.184L908.688 60H907.272ZM919.614 60.24C918.766 60.24 918.025 60.0533 917.39 59.68C916.761 59.3013 916.27 58.776 915.918 58.104C915.566 57.4267 915.39 56.6373 915.39 55.736C915.39 54.792 915.563 53.976 915.91 53.288C916.257 52.5947 916.739 52.0613 917.358 51.688C917.982 51.3093 918.713 51.12 919.55 51.12C920.419 51.12 921.158 51.32 921.766 51.72C922.379 52.12 922.838 52.6907 923.142 53.432C923.451 54.1733 923.585 55.056 923.542 56.08H922.102V55.568C922.086 54.5067 921.87 53.7147 921.454 53.192C921.038 52.664 920.419 52.4 919.598 52.4C918.718 52.4 918.049 52.6827 917.59 53.248C917.131 53.8133 916.902 54.624 916.902 55.68C916.902 56.6987 917.131 57.488 917.59 58.048C918.049 58.608 918.702 58.888 919.55 58.888C920.121 58.888 920.617 58.7573 921.038 58.496C921.459 58.2347 921.79 57.8587 922.03 57.368L923.398 57.84C923.062 58.6027 922.555 59.1947 921.878 59.616C921.206 60.032 920.451 60.24 919.614 60.24ZM916.422 56.08V54.936H922.806V56.08H916.422ZM925.323 60V51.36H926.595V53.448L926.387 53.176C926.488 52.9093 926.619 52.664 926.779 52.44C926.944 52.216 927.128 52.032 927.331 51.888C927.555 51.7067 927.808 51.568 928.091 51.472C928.374 51.376 928.662 51.32 928.955 51.304C929.248 51.2827 929.523 51.3013 929.779 51.36V52.696C929.48 52.616 929.152 52.5947 928.795 52.632C928.438 52.6693 928.107 52.8 927.803 53.024C927.526 53.2213 927.31 53.4613 927.155 53.744C927.006 54.0267 926.902 54.3333 926.843 54.664C926.784 54.9893 926.755 55.3227 926.755 55.664V60H925.323Z" fill="#110529"/>
<g filter="url(#filter6_i_5803_36194)">
<rect x="80" y="106" width="72" height="52" rx="1" fill="#D6E0FF"/>
<path d="M105.053 140.3C108.393 140.3 110.733 138.1 110.733 134.75V125.6H108.933V134.6C108.933 137.31 106.893 138.62 105.053 138.62C103.233 138.62 101.173 137.33 101.173 134.6V125.6L99.3727 125.61V134.75C99.3727 138.11 101.713 140.3 105.053 140.3ZM113.533 140H115.223V129.51L120.113 140H121.063L125.953 129.51V139.99H127.643V125.6H126.003L120.593 137.07L115.153 125.6H113.533V140ZM130.647 140H132.427V125.6H130.647V140Z" fill="#110529"/>
<rect x="80" y="106" width="72" height="52" rx="1" stroke="#110529" stroke-width="2" stroke-linecap="round"/>
</g>
<g filter="url(#filter7_i_5803_36194)">
<rect x="152" y="106" width="56" height="52" rx="1" fill="#D3D7E0"/>
<path d="M172.815 140H174.595V127.29H179.505V125.6H167.905V127.29H172.815V140ZM186.207 140.3C189.197 140.3 191.597 138.77 191.597 135.98C191.597 133.21 189.227 132.5 187.977 132.15L185.237 131.36C184.167 131.06 182.837 130.6 182.837 129.27C182.837 127.94 184.207 126.98 185.977 127C187.807 127.02 189.317 128.1 189.617 129.85L191.507 129.52C190.977 126.9 188.897 125.33 185.997 125.31C183.127 125.3 180.957 126.8 180.957 129.35C180.957 131.48 182.477 132.41 184.077 132.88L187.747 133.97C188.777 134.28 189.757 134.82 189.757 136.08C189.757 137.65 188.227 138.61 186.297 138.61C184.287 138.61 182.697 137.54 182.237 135.72L180.397 136.01C180.877 138.66 183.147 140.3 186.207 140.3Z" fill="#110529"/>
<rect x="152" y="106" width="56" height="52" rx="1" stroke="#110529" stroke-width="2" stroke-linecap="round"/>
</g>
<g filter="url(#filter8_i_5803_36194)">
<rect x="208" y="106" width="372" height="52" rx="1" fill="#99E099"/>
<path d="M392.758 140H395.238L400.058 125.6H398.208L393.978 138.11L389.788 125.6H387.938L392.758 140Z" fill="#110529"/>
<rect x="208" y="106" width="372" height="52" rx="1" stroke="#110529" stroke-width="2" stroke-linecap="round"/>
</g>
<g filter="url(#filter9_i_5803_36194)">
<rect x="580" y="106" width="30" height="52" rx="1" fill="#CBEB67"/>
</g>
<rect x="580" y="106" width="30" height="52" rx="1" stroke="#110529" stroke-width="2" stroke-linecap="round"/>
<g filter="url(#filter10_i_5803_36194)">
<rect x="646" y="106" width="30" height="52" rx="1" fill="#FAAAFA"/>
</g>
<rect x="646" y="106" width="30" height="52" rx="1" stroke="#110529" stroke-width="2" stroke-linecap="round"/>
<g filter="url(#filter11_i_5803_36194)">
<rect x="610" y="106" width="36" height="52" rx="1" fill="#FFCB8F"/>
</g>
<rect x="610" y="106" width="36" height="52" rx="1" stroke="#110529" stroke-width="2" stroke-linecap="round"/>
<path d="M589.447 140V125.6H591.247L598.757 136.85V125.6H600.557V140H598.757L591.247 128.74V140H589.447Z" fill="#110529"/>
<path d="M655.447 140V125.6H657.247L664.757 136.85V125.6H666.557V140H664.757L657.247 128.74V140H655.447Z" fill="#110529"/>
<path d="M622.593 140V125.6H627.033C627.18 125.6 627.437 125.603 627.803 125.61C628.17 125.617 628.52 125.643 628.853 125.69C629.967 125.837 630.897 126.243 631.643 126.91C632.397 127.57 632.963 128.41 633.343 129.43C633.723 130.45 633.913 131.573 633.913 132.8C633.913 134.027 633.723 135.15 633.343 136.17C632.963 137.19 632.397 138.033 631.643 138.7C630.897 139.36 629.967 139.763 628.853 139.91C628.52 139.95 628.167 139.977 627.793 139.99C627.427 139.997 627.173 140 627.033 140H622.593ZM624.423 138.3H627.033C627.287 138.3 627.57 138.293 627.883 138.28C628.197 138.26 628.47 138.23 628.703 138.19C629.49 138.043 630.127 137.713 630.613 137.2C631.1 136.687 631.457 136.047 631.683 135.28C631.91 134.513 632.023 133.687 632.023 132.8C632.023 131.893 631.907 131.057 631.673 130.29C631.447 129.523 631.09 128.887 630.603 128.38C630.117 127.873 629.483 127.55 628.703 127.41C628.47 127.363 628.193 127.333 627.873 127.32C627.553 127.307 627.273 127.3 627.033 127.3H624.423V138.3Z" fill="#110529"/>
<g filter="url(#filter12_i_5803_36194)">
<rect x="676" y="106" width="95" height="52" rx="1" fill="#C1ADFF"/>
<path d="M722.744 140.29C724.194 140.29 725.454 139.7 726.184 138.43C726.714 137.51 726.654 136.72 726.654 135.48V125.6H724.854V135.48C724.854 136.37 724.854 136.99 724.594 137.51C724.204 138.29 723.384 138.6 722.704 138.6C721.634 138.6 720.724 137.83 720.514 136.85L718.744 137.27C719.254 139.11 720.724 140.29 722.744 140.29Z" fill="#110529"/>
<rect x="676" y="106" width="95" height="52" rx="1" stroke="#110529" stroke-width="2" stroke-linecap="round"/>
</g>
<g filter="url(#filter13_i_5803_36194)">
<rect x="771" y="106" width="144" height="52" rx="1" fill="#FAFAAA"/>
<path d="M842.593 140.3C841.16 140.3 839.943 139.983 838.943 139.35C837.943 138.717 837.18 137.837 836.653 136.71C836.133 135.583 835.873 134.28 835.873 132.8C835.873 131.32 836.133 130.017 836.653 128.89C837.18 127.763 837.943 126.883 838.943 126.25C839.943 125.617 841.16 125.3 842.593 125.3C844.26 125.3 845.63 125.723 846.703 126.57C847.783 127.417 848.527 128.557 848.933 129.99L847.123 130.47C846.83 129.397 846.307 128.55 845.553 127.93C844.8 127.31 843.813 127 842.593 127C841.52 127 840.627 127.243 839.913 127.73C839.2 128.217 838.663 128.897 838.303 129.77C837.943 130.637 837.76 131.647 837.753 132.8C837.747 133.947 837.923 134.957 838.283 135.83C838.643 136.697 839.183 137.377 839.903 137.87C840.623 138.357 841.52 138.6 842.593 138.6C843.813 138.6 844.8 138.29 845.553 137.67C846.307 137.043 846.83 136.197 847.123 135.13L848.933 135.61C848.527 137.037 847.783 138.177 846.703 139.03C845.63 139.877 844.26 140.3 842.593 140.3Z" fill="#110529"/>
<rect x="771" y="106" width="144" height="52" rx="1" stroke="#110529" stroke-width="2" stroke-linecap="round"/>
</g>
<path d="M47.4 192H49.18V186.68H53.39L55.97 192H58.01L55.23 186.29C56.86 185.61 57.71 184.04 57.71 182.14C57.71 179.85 56.48 178.04 54.15 177.68C53.78 177.62 53.37 177.6 53.09 177.6H47.4V192ZM49.18 184.99V179.29H53.03C53.28 179.29 53.63 179.31 53.93 179.38C55.31 179.69 55.89 180.94 55.89 182.14C55.89 183.34 55.31 184.59 53.93 184.9C53.63 184.97 53.28 184.99 53.03 184.99H49.18ZM59.8125 191.99H69.3825V190.29H62.5525L67.1925 186.12C68.6725 184.81 69.3825 183.86 69.3825 181.97C69.3825 179.32 67.3625 177.3 64.6925 177.3C61.9225 177.3 59.8825 179.23 59.8825 181.94H61.7025C61.6825 180.37 62.9425 179 64.6625 179C66.3225 179 67.5625 180.29 67.5625 181.95C67.5625 182.86 67.2725 183.69 66.2125 184.64L59.8225 190.39L59.8125 191.99Z" fill="#110529"/>
<path d="M79 176V192H89V200L103 184L89 168V176H79Z" fill="#110529"/>
<path d="M283.5 184H106" stroke="#110529" stroke-width="2" stroke-linecap="square"/>
<rect width="57" height="20" transform="translate(283.5 174)" fill="white"/>
<path d="M291.78 190.224C291.209 190.224 290.678 190.12 290.188 189.912C289.697 189.699 289.273 189.4 288.916 189.016C288.564 188.627 288.305 188.165 288.14 187.632L289.508 187.24C289.684 187.773 289.977 188.179 290.388 188.456C290.798 188.733 291.26 188.869 291.772 188.864C292.241 188.853 292.646 188.747 292.988 188.544C293.334 188.336 293.601 188.053 293.788 187.696C293.98 187.339 294.076 186.925 294.076 186.456C294.076 185.741 293.862 185.163 293.436 184.72C293.009 184.272 292.449 184.048 291.756 184.048C291.564 184.048 291.361 184.075 291.148 184.128C290.94 184.181 290.745 184.256 290.564 184.352L289.876 183.224L294.148 179.36L294.332 179.84H288.596V178.48H295.388V179.848L291.748 183.336L291.732 182.832C292.494 182.779 293.161 182.904 293.732 183.208C294.302 183.512 294.745 183.947 295.06 184.512C295.38 185.077 295.54 185.725 295.54 186.456C295.54 187.192 295.374 187.843 295.044 188.408C294.713 188.973 294.265 189.419 293.7 189.744C293.134 190.064 292.494 190.224 291.78 190.224ZM301.508 190.24C300.761 190.24 300.094 190.072 299.508 189.736C298.926 189.395 298.465 188.933 298.124 188.352C297.788 187.765 297.62 187.099 297.62 186.352V182.128C297.62 181.381 297.788 180.715 298.124 180.128C298.465 179.541 298.926 179.08 299.508 178.744C300.094 178.408 300.761 178.24 301.508 178.24C302.254 178.24 302.921 178.408 303.508 178.744C304.094 179.08 304.556 179.541 304.892 180.128C305.228 180.715 305.396 181.381 305.396 182.128V186.352C305.396 187.099 305.228 187.765 304.892 188.352C304.556 188.933 304.094 189.395 303.508 189.736C302.921 190.072 302.254 190.24 301.508 190.24ZM301.508 188.872C301.961 188.872 302.372 188.763 302.74 188.544C303.108 188.325 303.401 188.032 303.62 187.664C303.838 187.291 303.948 186.88 303.948 186.432V182.04C303.948 181.587 303.838 181.176 303.62 180.808C303.401 180.44 303.108 180.147 302.74 179.928C302.372 179.709 301.961 179.6 301.508 179.6C301.06 179.6 300.649 179.709 300.276 179.928C299.908 180.147 299.614 180.44 299.396 180.808C299.177 181.176 299.068 181.587 299.068 182.04V186.432C299.068 186.88 299.177 187.291 299.396 187.664C299.614 188.032 299.908 188.325 300.276 188.544C300.649 188.763 301.06 188.872 301.508 188.872ZM311.523 190.24C310.776 190.24 310.11 190.072 309.523 189.736C308.942 189.395 308.48 188.933 308.139 188.352C307.803 187.765 307.635 187.099 307.635 186.352V182.128C307.635 181.381 307.803 180.715 308.139 180.128C308.48 179.541 308.942 179.08 309.523 178.744C310.11 178.408 310.776 178.24 311.523 178.24C312.27 178.24 312.936 178.408 313.523 178.744C314.11 179.08 314.571 179.541 314.907 180.128C315.243 180.715 315.411 181.381 315.411 182.128V186.352C315.411 187.099 315.243 187.765 314.907 188.352C314.571 188.933 314.11 189.395 313.523 189.736C312.936 190.072 312.27 190.24 311.523 190.24ZM311.523 188.872C311.976 188.872 312.387 188.763 312.755 188.544C313.123 188.325 313.416 188.032 313.635 187.664C313.854 187.291 313.963 186.88 313.963 186.432V182.04C313.963 181.587 313.854 181.176 313.635 180.808C313.416 180.44 313.123 180.147 312.755 179.928C312.387 179.709 311.976 179.6 311.523 179.6C311.075 179.6 310.664 179.709 310.291 179.928C309.923 180.147 309.63 180.44 309.411 180.808C309.192 181.176 309.083 181.587 309.083 182.04V186.432C309.083 186.88 309.192 187.291 309.411 187.664C309.63 188.032 309.923 188.325 310.291 188.544C310.664 188.763 311.075 188.872 311.523 188.872ZM321.619 190.24C320.808 190.24 320.125 190.04 319.571 189.64C319.016 189.235 318.595 188.688 318.307 188C318.024 187.307 317.883 186.531 317.883 185.672C317.883 184.803 318.024 184.024 318.307 183.336C318.595 182.648 319.016 182.107 319.571 181.712C320.131 181.317 320.816 181.12 321.627 181.12C322.427 181.12 323.115 181.32 323.691 181.72C324.272 182.115 324.717 182.656 325.027 183.344C325.336 184.032 325.491 184.808 325.491 185.672C325.491 186.536 325.336 187.312 325.027 188C324.717 188.688 324.272 189.235 323.691 189.64C323.115 190.04 322.424 190.24 321.619 190.24ZM317.643 190V178.48H319.075V183.64H318.915V190H317.643ZM321.443 188.936C322.013 188.936 322.485 188.792 322.859 188.504C323.232 188.216 323.512 187.827 323.699 187.336C323.885 186.84 323.979 186.285 323.979 185.672C323.979 185.064 323.885 184.515 323.699 184.024C323.517 183.533 323.235 183.144 322.851 182.856C322.472 182.568 321.989 182.424 321.403 182.424C320.843 182.424 320.379 182.563 320.011 182.84C319.643 183.112 319.368 183.493 319.187 183.984C319.005 184.469 318.915 185.032 318.915 185.672C318.915 186.301 319.003 186.864 319.179 187.36C319.36 187.851 319.637 188.237 320.011 188.52C320.384 188.797 320.861 188.936 321.443 188.936ZM331.213 190.24C330.402 190.24 329.719 190.04 329.165 189.64C328.61 189.235 328.189 188.688 327.901 188C327.618 187.307 327.477 186.531 327.477 185.672C327.477 184.803 327.618 184.024 327.901 183.336C328.189 182.648 328.61 182.107 329.165 181.712C329.725 181.317 330.41 181.12 331.221 181.12C332.021 181.12 332.709 181.32 333.285 181.72C333.866 182.115 334.311 182.656 334.621 183.344C334.93 184.032 335.085 184.808 335.085 185.672C335.085 186.536 334.93 187.312 334.621 188C334.311 188.688 333.866 189.235 333.285 189.64C332.709 190.04 332.018 190.24 331.213 190.24ZM327.237 193.84V181.36H328.509V187.72H328.669V193.84H327.237ZM331.037 188.936C331.607 188.936 332.079 188.792 332.453 188.504C332.826 188.216 333.106 187.827 333.293 187.336C333.479 186.84 333.573 186.285 333.573 185.672C333.573 185.064 333.479 184.515 333.293 184.024C333.111 183.533 332.829 183.144 332.445 182.856C332.066 182.568 331.583 182.424 330.997 182.424C330.437 182.424 329.973 182.563 329.605 182.84C329.237 183.112 328.962 183.493 328.781 183.984C328.599 184.469 328.509 185.032 328.509 185.672C328.509 186.301 328.597 186.864 328.773 187.36C328.954 187.851 329.231 188.237 329.605 188.52C329.978 188.797 330.455 188.936 331.037 188.936Z" fill="#110529"/>
<path d="M518 184H340.5" stroke="#110529" stroke-width="2" stroke-linecap="square"/>
<path d="M528 184L528.707 183.293L529.414 184L528.707 184.707L528 184ZM520.707 192.707L520 193.414L518.585 192L519.292 191.293L520.707 192.707ZM519.292 176.707L518.585 176L520 174.586L520.707 175.293L519.292 176.707ZM518 183L528 183L528 185L518 185L518 183ZM528.707 184.707L520.707 192.707L519.292 191.293L527.292 183.293L528.707 184.707ZM527.292 184.707L519.292 176.707L520.707 175.293L528.707 183.293L527.292 184.707Z" fill="#110529"/>
<path d="M467 205L466.293 205.707L465.586 205L466.293 204.293L467 205ZM474.293 196.293L475 195.586L476.414 197L475.707 197.707L474.293 196.293ZM475.707 212.293L476.414 213L475 214.414L474.293 213.707L475.707 212.293ZM477 206L467 206L467 204L477 204L477 206ZM466.293 204.293L474.293 196.293L475.707 197.707L467.707 205.707L466.293 204.293ZM467.707 204.293L475.707 212.293L474.293 213.707L466.293 205.707L467.707 204.293Z" fill="#110529"/>
<path d="M654.5 205H477" stroke="#110529" stroke-width="2" stroke-linecap="square"/>
<rect width="57" height="20" transform="translate(654.5 195)" fill="white"/>
<path d="M662.78 211.224C662.209 211.224 661.679 211.12 661.188 210.912C660.697 210.699 660.273 210.4 659.916 210.016C659.564 209.627 659.305 209.165 659.14 208.632L660.508 208.24C660.684 208.773 660.977 209.179 661.388 209.456C661.799 209.733 662.26 209.869 662.772 209.864C663.241 209.853 663.647 209.747 663.988 209.544C664.335 209.336 664.601 209.053 664.788 208.696C664.98 208.339 665.076 207.925 665.076 207.456C665.076 206.741 664.863 206.163 664.436 205.72C664.009 205.272 663.449 205.048 662.756 205.048C662.564 205.048 662.361 205.075 662.148 205.128C661.94 205.181 661.745 205.256 661.564 205.352L660.876 204.224L665.148 200.36L665.332 200.84H659.596V199.48H666.388V200.848L662.748 204.336L662.732 203.832C663.495 203.779 664.161 203.904 664.732 204.208C665.303 204.512 665.745 204.947 666.06 205.512C666.38 206.077 666.54 206.725 666.54 207.456C666.54 208.192 666.375 208.843 666.044 209.408C665.713 209.973 665.265 210.419 664.7 210.744C664.135 211.064 663.495 211.224 662.78 211.224ZM672.508 211.24C671.761 211.24 671.095 211.072 670.508 210.736C669.927 210.395 669.465 209.933 669.124 209.352C668.788 208.765 668.62 208.099 668.62 207.352V203.128C668.62 202.381 668.788 201.715 669.124 201.128C669.465 200.541 669.927 200.08 670.508 199.744C671.095 199.408 671.761 199.24 672.508 199.24C673.255 199.24 673.921 199.408 674.508 199.744C675.095 200.08 675.556 200.541 675.892 201.128C676.228 201.715 676.396 202.381 676.396 203.128V207.352C676.396 208.099 676.228 208.765 675.892 209.352C675.556 209.933 675.095 210.395 674.508 210.736C673.921 211.072 673.255 211.24 672.508 211.24ZM672.508 209.872C672.961 209.872 673.372 209.763 673.74 209.544C674.108 209.325 674.401 209.032 674.62 208.664C674.839 208.291 674.948 207.88 674.948 207.432V203.04C674.948 202.587 674.839 202.176 674.62 201.808C674.401 201.44 674.108 201.147 673.74 200.928C673.372 200.709 672.961 200.6 672.508 200.6C672.06 200.6 671.649 200.709 671.276 200.928C670.908 201.147 670.615 201.44 670.396 201.808C670.177 202.176 670.068 202.587 670.068 203.04V207.432C670.068 207.88 670.177 208.291 670.396 208.664C670.615 209.032 670.908 209.325 671.276 209.544C671.649 209.763 672.06 209.872 672.508 209.872ZM682.524 211.24C681.777 211.24 681.11 211.072 680.524 210.736C679.942 210.395 679.481 209.933 679.14 209.352C678.804 208.765 678.636 208.099 678.636 207.352V203.128C678.636 202.381 678.804 201.715 679.14 201.128C679.481 200.541 679.942 200.08 680.524 199.744C681.11 199.408 681.777 199.24 682.524 199.24C683.27 199.24 683.937 199.408 684.524 199.744C685.11 200.08 685.572 200.541 685.908 201.128C686.244 201.715 686.412 202.381 686.412 203.128V207.352C686.412 208.099 686.244 208.765 685.908 209.352C685.572 209.933 685.11 210.395 684.524 210.736C683.937 211.072 683.27 211.24 682.524 211.24ZM682.524 209.872C682.977 209.872 683.388 209.763 683.756 209.544C684.124 209.325 684.417 209.032 684.636 208.664C684.854 208.291 684.964 207.88 684.964 207.432V203.04C684.964 202.587 684.854 202.176 684.636 201.808C684.417 201.44 684.124 201.147 683.756 200.928C683.388 200.709 682.977 200.6 682.524 200.6C682.076 200.6 681.665 200.709 681.292 200.928C680.924 201.147 680.63 201.44 680.412 201.808C680.193 202.176 680.084 202.587 680.084 203.04V207.432C680.084 207.88 680.193 208.291 680.412 208.664C680.63 209.032 680.924 209.325 681.292 209.544C681.665 209.763 682.076 209.872 682.524 209.872ZM692.619 211.24C691.809 211.24 691.126 211.04 690.571 210.64C690.017 210.235 689.595 209.688 689.307 209C689.025 208.307 688.883 207.531 688.883 206.672C688.883 205.803 689.025 205.024 689.307 204.336C689.595 203.648 690.017 203.107 690.571 202.712C691.131 202.317 691.817 202.12 692.627 202.12C693.427 202.12 694.115 202.32 694.691 202.72C695.273 203.115 695.718 203.656 696.027 204.344C696.337 205.032 696.491 205.808 696.491 206.672C696.491 207.536 696.337 208.312 696.027 209C695.718 209.688 695.273 210.235 694.691 210.64C694.115 211.04 693.425 211.24 692.619 211.24ZM688.643 211V199.48H690.075V204.64H689.915V211H688.643ZM692.443 209.936C693.014 209.936 693.486 209.792 693.859 209.504C694.233 209.216 694.513 208.827 694.699 208.336C694.886 207.84 694.979 207.285 694.979 206.672C694.979 206.064 694.886 205.515 694.699 205.024C694.518 204.533 694.235 204.144 693.851 203.856C693.473 203.568 692.99 203.424 692.403 203.424C691.843 203.424 691.379 203.563 691.011 203.84C690.643 204.112 690.369 204.493 690.187 204.984C690.006 205.469 689.915 206.032 689.915 206.672C689.915 207.301 690.003 207.864 690.179 208.36C690.361 208.851 690.638 209.237 691.011 209.52C691.385 209.797 691.862 209.936 692.443 209.936ZM702.213 211.24C701.402 211.24 700.72 211.04 700.165 210.64C699.61 210.235 699.189 209.688 698.901 209C698.618 208.307 698.477 207.531 698.477 206.672C698.477 205.803 698.618 205.024 698.901 204.336C699.189 203.648 699.61 203.107 700.165 202.712C700.725 202.317 701.41 202.12 702.221 202.12C703.021 202.12 703.709 202.32 704.285 202.72C704.866 203.115 705.312 203.656 705.621 204.344C705.93 205.032 706.085 205.808 706.085 206.672C706.085 207.536 705.93 208.312 705.621 209C705.312 209.688 704.866 210.235 704.285 210.64C703.709 211.04 703.018 211.24 702.213 211.24ZM698.237 214.84V202.36H699.509V208.72H699.669V214.84H698.237ZM702.037 209.936C702.608 209.936 703.08 209.792 703.453 209.504C703.826 209.216 704.106 208.827 704.293 208.336C704.48 207.84 704.573 207.285 704.573 206.672C704.573 206.064 704.48 205.515 704.293 205.024C704.112 204.533 703.829 204.144 703.445 203.856C703.066 203.568 702.584 203.424 701.997 203.424C701.437 203.424 700.973 203.563 700.605 203.84C700.237 204.112 699.962 204.493 699.781 204.984C699.6 205.469 699.509 206.032 699.509 206.672C699.509 207.301 699.597 207.864 699.773 208.36C699.954 208.851 700.232 209.237 700.605 209.52C700.978 209.797 701.456 209.936 702.037 209.936Z" fill="#110529"/>
<path d="M889 205H711.5" stroke="#110529" stroke-width="2" stroke-linecap="square"/>
<path d="M916 197V213H906V221L892 205L906 189V197H916Z" fill="#110529"/>
<path d="M925.4 213H927.18V207.68H931.39L933.97 213H936.01L933.23 207.29C934.86 206.61 935.71 205.04 935.71 203.14C935.71 200.85 934.48 199.04 932.15 198.68C931.78 198.62 931.37 198.6 931.09 198.6H925.4V213ZM927.18 205.99V200.29H931.03C931.28 200.29 931.63 200.31 931.93 200.38C933.31 200.69 933.89 201.94 933.89 203.14C933.89 204.34 933.31 205.59 931.93 205.9C931.63 205.97 931.28 205.99 931.03 205.99H927.18ZM940.723 213H942.533V198.6H940.723L938.013 200.22V202.21L940.723 200.57V213Z" fill="#110529"/>
<path d="M409 375L408.293 375.707L407.586 375L408.293 374.293L409 375ZM416.293 366.293L417 365.586L418.414 367L417.707 367.707L416.293 366.293ZM417.707 382.293L418.414 383L417 384.414L416.293 383.707L417.707 382.293ZM419 376L409 376L409 374L419 374L419 376ZM408.293 374.293L416.293 366.293L417.707 367.707L409.707 375.707L408.293 374.293ZM409.707 374.293L417.707 382.293L416.293 383.707L408.293 375.707L409.707 374.293Z" fill="#110529"/>
<path d="M596.5 375H419" stroke="#110529" stroke-width="2" stroke-linecap="square"/>
<rect width="57" height="20" transform="translate(596.5 365)" fill="white"/>
<path d="M604.78 381.224C604.209 381.224 603.679 381.12 603.188 380.912C602.697 380.699 602.273 380.4 601.916 380.016C601.564 379.627 601.305 379.165 601.14 378.632L602.508 378.24C602.684 378.773 602.977 379.179 603.388 379.456C603.799 379.733 604.26 379.869 604.772 379.864C605.241 379.853 605.647 379.747 605.988 379.544C606.335 379.336 606.601 379.053 606.788 378.696C606.98 378.339 607.076 377.925 607.076 377.456C607.076 376.741 606.863 376.163 606.436 375.72C606.009 375.272 605.449 375.048 604.756 375.048C604.564 375.048 604.361 375.075 604.148 375.128C603.94 375.181 603.745 375.256 603.564 375.352L602.876 374.224L607.148 370.36L607.332 370.84H601.596V369.48H608.388V370.848L604.748 374.336L604.732 373.832C605.495 373.779 606.161 373.904 606.732 374.208C607.303 374.512 607.745 374.947 608.06 375.512C608.38 376.077 608.54 376.725 608.54 377.456C608.54 378.192 608.375 378.843 608.044 379.408C607.713 379.973 607.265 380.419 606.7 380.744C606.135 381.064 605.495 381.224 604.78 381.224ZM614.508 381.24C613.761 381.24 613.095 381.072 612.508 380.736C611.927 380.395 611.465 379.933 611.124 379.352C610.788 378.765 610.62 378.099 610.62 377.352V373.128C610.62 372.381 610.788 371.715 611.124 371.128C611.465 370.541 611.927 370.08 612.508 369.744C613.095 369.408 613.761 369.24 614.508 369.24C615.255 369.24 615.921 369.408 616.508 369.744C617.095 370.08 617.556 370.541 617.892 371.128C618.228 371.715 618.396 372.381 618.396 373.128V377.352C618.396 378.099 618.228 378.765 617.892 379.352C617.556 379.933 617.095 380.395 616.508 380.736C615.921 381.072 615.255 381.24 614.508 381.24ZM614.508 379.872C614.961 379.872 615.372 379.763 615.74 379.544C616.108 379.325 616.401 379.032 616.62 378.664C616.839 378.291 616.948 377.88 616.948 377.432V373.04C616.948 372.587 616.839 372.176 616.62 371.808C616.401 371.44 616.108 371.147 615.74 370.928C615.372 370.709 614.961 370.6 614.508 370.6C614.06 370.6 613.649 370.709 613.276 370.928C612.908 371.147 612.615 371.44 612.396 371.808C612.177 372.176 612.068 372.587 612.068 373.04V377.432C612.068 377.88 612.177 378.291 612.396 378.664C612.615 379.032 612.908 379.325 613.276 379.544C613.649 379.763 614.06 379.872 614.508 379.872ZM624.524 381.24C623.777 381.24 623.11 381.072 622.524 380.736C621.942 380.395 621.481 379.933 621.14 379.352C620.804 378.765 620.636 378.099 620.636 377.352V373.128C620.636 372.381 620.804 371.715 621.14 371.128C621.481 370.541 621.942 370.08 622.524 369.744C623.11 369.408 623.777 369.24 624.524 369.24C625.27 369.24 625.937 369.408 626.524 369.744C627.11 370.08 627.572 370.541 627.908 371.128C628.244 371.715 628.412 372.381 628.412 373.128V377.352C628.412 378.099 628.244 378.765 627.908 379.352C627.572 379.933 627.11 380.395 626.524 380.736C625.937 381.072 625.27 381.24 624.524 381.24ZM624.524 379.872C624.977 379.872 625.388 379.763 625.756 379.544C626.124 379.325 626.417 379.032 626.636 378.664C626.854 378.291 626.964 377.88 626.964 377.432V373.04C626.964 372.587 626.854 372.176 626.636 371.808C626.417 371.44 626.124 371.147 625.756 370.928C625.388 370.709 624.977 370.6 624.524 370.6C624.076 370.6 623.665 370.709 623.292 370.928C622.924 371.147 622.63 371.44 622.412 371.808C622.193 372.176 622.084 372.587 622.084 373.04V377.432C622.084 377.88 622.193 378.291 622.412 378.664C622.63 379.032 622.924 379.325 623.292 379.544C623.665 379.763 624.076 379.872 624.524 379.872ZM634.619 381.24C633.809 381.24 633.126 381.04 632.571 380.64C632.017 380.235 631.595 379.688 631.307 379C631.025 378.307 630.883 377.531 630.883 376.672C630.883 375.803 631.025 375.024 631.307 374.336C631.595 373.648 632.017 373.107 632.571 372.712C633.131 372.317 633.817 372.12 634.627 372.12C635.427 372.12 636.115 372.32 636.691 372.72C637.273 373.115 637.718 373.656 638.027 374.344C638.337 375.032 638.491 375.808 638.491 376.672C638.491 377.536 638.337 378.312 638.027 379C637.718 379.688 637.273 380.235 636.691 380.64C636.115 381.04 635.425 381.24 634.619 381.24ZM630.643 381V369.48H632.075V374.64H631.915V381H630.643ZM634.443 379.936C635.014 379.936 635.486 379.792 635.859 379.504C636.233 379.216 636.513 378.827 636.699 378.336C636.886 377.84 636.979 377.285 636.979 376.672C636.979 376.064 636.886 375.515 636.699 375.024C636.518 374.533 636.235 374.144 635.851 373.856C635.473 373.568 634.99 373.424 634.403 373.424C633.843 373.424 633.379 373.563 633.011 373.84C632.643 374.112 632.369 374.493 632.187 374.984C632.006 375.469 631.915 376.032 631.915 376.672C631.915 377.301 632.003 377.864 632.179 378.36C632.361 378.851 632.638 379.237 633.011 379.52C633.385 379.797 633.862 379.936 634.443 379.936ZM644.213 381.24C643.402 381.24 642.72 381.04 642.165 380.64C641.61 380.235 641.189 379.688 640.901 379C640.618 378.307 640.477 377.531 640.477 376.672C640.477 375.803 640.618 375.024 640.901 374.336C641.189 373.648 641.61 373.107 642.165 372.712C642.725 372.317 643.41 372.12 644.221 372.12C645.021 372.12 645.709 372.32 646.285 372.72C646.866 373.115 647.312 373.656 647.621 374.344C647.93 375.032 648.085 375.808 648.085 376.672C648.085 377.536 647.93 378.312 647.621 379C647.312 379.688 646.866 380.235 646.285 380.64C645.709 381.04 645.018 381.24 644.213 381.24ZM640.237 384.84V372.36H641.509V378.72H641.669V384.84H640.237ZM644.037 379.936C644.608 379.936 645.08 379.792 645.453 379.504C645.826 379.216 646.106 378.827 646.293 378.336C646.48 377.84 646.573 377.285 646.573 376.672C646.573 376.064 646.48 375.515 646.293 375.024C646.112 374.533 645.829 374.144 645.445 373.856C645.066 373.568 644.584 373.424 643.997 373.424C643.437 373.424 642.973 373.563 642.605 373.84C642.237 374.112 641.962 374.493 641.781 374.984C641.6 375.469 641.509 376.032 641.509 376.672C641.509 377.301 641.597 377.864 641.773 378.36C641.954 378.851 642.232 379.237 642.605 379.52C642.978 379.797 643.456 379.936 644.037 379.936Z" fill="#110529"/>
<path d="M831 375H653.5" stroke="#110529" stroke-width="2" stroke-linecap="square"/>
<path d="M858 367V383H848V391L834 375L848 359V367H858Z" fill="#110529"/>
<path d="M867.4 383H869.18V377.68H873.39L875.97 383H878.01L875.23 377.29C876.86 376.61 877.71 375.04 877.71 373.14C877.71 370.85 876.48 369.04 874.15 368.68C873.78 368.62 873.37 368.6 873.09 368.6H867.4V383ZM869.18 375.99V370.29H873.03C873.28 370.29 873.63 370.31 873.93 370.38C875.31 370.69 875.89 371.94 875.89 373.14C875.89 374.34 875.31 375.59 873.93 375.9C873.63 375.97 873.28 375.99 873.03 375.99H869.18ZM882.723 383H884.533V368.6H882.723L880.013 370.22V372.21L882.723 370.57V383Z" fill="#110529"/>
<path d="M47.4 362H49.18V356.68H53.39L55.97 362H58.01L55.23 356.29C56.86 355.61 57.71 354.04 57.71 352.14C57.71 349.85 56.48 348.04 54.15 347.68C53.78 347.62 53.37 347.6 53.09 347.6H47.4V362ZM49.18 354.99V349.29H53.03C53.28 349.29 53.63 349.31 53.93 349.38C55.31 349.69 55.89 350.94 55.89 352.14C55.89 353.34 55.31 354.59 53.93 354.9C53.63 354.97 53.28 354.99 53.03 354.99H49.18ZM59.8125 361.99H69.3825V360.29H62.5525L67.1925 356.12C68.6725 354.81 69.3825 353.86 69.3825 351.97C69.3825 349.32 67.3625 347.3 64.6925 347.3C61.9225 347.3 59.8825 349.23 59.8825 351.94H61.7025C61.6825 350.37 62.9425 349 64.6625 349C66.3225 349 67.5625 350.29 67.5625 351.95C67.5625 352.86 67.2725 353.69 66.2125 354.64L59.8225 360.39L59.8125 361.99Z" fill="#110529"/>
<path d="M79 346V362H89V370L103 354L89 338V346H79Z" fill="#110529"/>
<path d="M283.5 354H106" stroke="#110529" stroke-width="2" stroke-linecap="square"/>
<rect width="57" height="20" transform="translate(283.5 344)" fill="white"/>
<path d="M291.78 360.224C291.209 360.224 290.678 360.12 290.188 359.912C289.697 359.699 289.273 359.4 288.916 359.016C288.564 358.627 288.305 358.165 288.14 357.632L289.508 357.24C289.684 357.773 289.977 358.179 290.388 358.456C290.798 358.733 291.26 358.869 291.772 358.864C292.241 358.853 292.646 358.747 292.988 358.544C293.334 358.336 293.601 358.053 293.788 357.696C293.98 357.339 294.076 356.925 294.076 356.456C294.076 355.741 293.862 355.163 293.436 354.72C293.009 354.272 292.449 354.048 291.756 354.048C291.564 354.048 291.361 354.075 291.148 354.128C290.94 354.181 290.745 354.256 290.564 354.352L289.876 353.224L294.148 349.36L294.332 349.84H288.596V348.48H295.388V349.848L291.748 353.336L291.732 352.832C292.494 352.779 293.161 352.904 293.732 353.208C294.302 353.512 294.745 353.947 295.06 354.512C295.38 355.077 295.54 355.725 295.54 356.456C295.54 357.192 295.374 357.843 295.044 358.408C294.713 358.973 294.265 359.419 293.7 359.744C293.134 360.064 292.494 360.224 291.78 360.224ZM301.508 360.24C300.761 360.24 300.094 360.072 299.508 359.736C298.926 359.395 298.465 358.933 298.124 358.352C297.788 357.765 297.62 357.099 297.62 356.352V352.128C297.62 351.381 297.788 350.715 298.124 350.128C298.465 349.541 298.926 349.08 299.508 348.744C300.094 348.408 300.761 348.24 301.508 348.24C302.254 348.24 302.921 348.408 303.508 348.744C304.094 349.08 304.556 349.541 304.892 350.128C305.228 350.715 305.396 351.381 305.396 352.128V356.352C305.396 357.099 305.228 357.765 304.892 358.352C304.556 358.933 304.094 359.395 303.508 359.736C302.921 360.072 302.254 360.24 301.508 360.24ZM301.508 358.872C301.961 358.872 302.372 358.763 302.74 358.544C303.108 358.325 303.401 358.032 303.62 357.664C303.838 357.291 303.948 356.88 303.948 356.432V352.04C303.948 351.587 303.838 351.176 303.62 350.808C303.401 350.44 303.108 350.147 302.74 349.928C302.372 349.709 301.961 349.6 301.508 349.6C301.06 349.6 300.649 349.709 300.276 349.928C299.908 350.147 299.614 350.44 299.396 350.808C299.177 351.176 299.068 351.587 299.068 352.04V356.432C299.068 356.88 299.177 357.291 299.396 357.664C299.614 358.032 299.908 358.325 300.276 358.544C300.649 358.763 301.06 358.872 301.508 358.872ZM311.523 360.24C310.776 360.24 310.11 360.072 309.523 359.736C308.942 359.395 308.48 358.933 308.139 358.352C307.803 357.765 307.635 357.099 307.635 356.352V352.128C307.635 351.381 307.803 350.715 308.139 350.128C308.48 349.541 308.942 349.08 309.523 348.744C310.11 348.408 310.776 348.24 311.523 348.24C312.27 348.24 312.936 348.408 313.523 348.744C314.11 349.08 314.571 349.541 314.907 350.128C315.243 350.715 315.411 351.381 315.411 352.128V356.352C315.411 357.099 315.243 357.765 314.907 358.352C314.571 358.933 314.11 359.395 313.523 359.736C312.936 360.072 312.27 360.24 311.523 360.24ZM311.523 358.872C311.976 358.872 312.387 358.763 312.755 358.544C313.123 358.325 313.416 358.032 313.635 357.664C313.854 357.291 313.963 356.88 313.963 356.432V352.04C313.963 351.587 313.854 351.176 313.635 350.808C313.416 350.44 313.123 350.147 312.755 349.928C312.387 349.709 311.976 349.6 311.523 349.6C311.075 349.6 310.664 349.709 310.291 349.928C309.923 350.147 309.63 350.44 309.411 350.808C309.192 351.176 309.083 351.587 309.083 352.04V356.432C309.083 356.88 309.192 357.291 309.411 357.664C309.63 358.032 309.923 358.325 310.291 358.544C310.664 358.763 311.075 358.872 311.523 358.872ZM321.619 360.24C320.808 360.24 320.125 360.04 319.571 359.64C319.016 359.235 318.595 358.688 318.307 358C318.024 357.307 317.883 356.531 317.883 355.672C317.883 354.803 318.024 354.024 318.307 353.336C318.595 352.648 319.016 352.107 319.571 351.712C320.131 351.317 320.816 351.12 321.627 351.12C322.427 351.12 323.115 351.32 323.691 351.72C324.272 352.115 324.717 352.656 325.027 353.344C325.336 354.032 325.491 354.808 325.491 355.672C325.491 356.536 325.336 357.312 325.027 358C324.717 358.688 324.272 359.235 323.691 359.64C323.115 360.04 322.424 360.24 321.619 360.24ZM317.643 360V348.48H319.075V353.64H318.915V360H317.643ZM321.443 358.936C322.013 358.936 322.485 358.792 322.859 358.504C323.232 358.216 323.512 357.827 323.699 357.336C323.885 356.84 323.979 356.285 323.979 355.672C323.979 355.064 323.885 354.515 323.699 354.024C323.517 353.533 323.235 353.144 322.851 352.856C322.472 352.568 321.989 352.424 321.403 352.424C320.843 352.424 320.379 352.563 320.011 352.84C319.643 353.112 319.368 353.493 319.187 353.984C319.005 354.469 318.915 355.032 318.915 355.672C318.915 356.301 319.003 356.864 319.179 357.36C319.36 357.851 319.637 358.237 320.011 358.52C320.384 358.797 320.861 358.936 321.443 358.936ZM331.213 360.24C330.402 360.24 329.719 360.04 329.165 359.64C328.61 359.235 328.189 358.688 327.901 358C327.618 357.307 327.477 356.531 327.477 355.672C327.477 354.803 327.618 354.024 327.901 353.336C328.189 352.648 328.61 352.107 329.165 351.712C329.725 351.317 330.41 351.12 331.221 351.12C332.021 351.12 332.709 351.32 333.285 351.72C333.866 352.115 334.311 352.656 334.621 353.344C334.93 354.032 335.085 354.808 335.085 355.672C335.085 356.536 334.93 357.312 334.621 358C334.311 358.688 333.866 359.235 333.285 359.64C332.709 360.04 332.018 360.24 331.213 360.24ZM327.237 363.84V351.36H328.509V357.72H328.669V363.84H327.237ZM331.037 358.936C331.607 358.936 332.079 358.792 332.453 358.504C332.826 358.216 333.106 357.827 333.293 357.336C333.479 356.84 333.573 356.285 333.573 355.672C333.573 355.064 333.479 354.515 333.293 354.024C333.111 353.533 332.829 353.144 332.445 352.856C332.066 352.568 331.583 352.424 330.997 352.424C330.437 352.424 329.973 352.563 329.605 352.84C329.237 353.112 328.962 353.493 328.781 353.984C328.599 354.469 328.509 355.032 328.509 355.672C328.509 356.301 328.597 356.864 328.773 357.36C328.954 357.851 329.231 358.237 329.605 358.52C329.978 358.797 330.455 358.936 331.037 358.936Z" fill="#110529"/>
<path d="M518 354H340.5" stroke="#110529" stroke-width="2" stroke-linecap="square"/>
<path d="M528 354L528.707 353.293L529.414 354L528.707 354.707L528 354ZM520.707 362.707L520 363.414L518.585 362L519.292 361.293L520.707 362.707ZM519.292 346.707L518.585 346L520 344.586L520.707 345.293L519.292 346.707ZM518 353L528 353L528 355L518 355L518 353ZM528.707 354.707L520.707 362.707L519.292 361.293L527.292 353.293L528.707 354.707ZM527.292 354.707L519.292 346.707L520.707 345.293L528.707 353.293L527.292 354.707Z" fill="#110529"/>
<defs>
<filter id="filter0_i_5803_36194" x="79" y="271" width="74" height="54" filterUnits="userSpaceOnUse" color-interpolation-filters="sRGB">
<feFlood flood-opacity="0" result="BackgroundImageFix"/>
<feBlend mode="normal" in="SourceGraphic" in2="BackgroundImageFix" result="shape"/>
<feColorMatrix in="SourceAlpha" type="matrix" values="0 0 0 0 0 0 0 0 0 0 0 0 0 0 0 0 0 0 127 0" result="hardAlpha"/>
<feOffset dx="-8" dy="-4"/>
<feComposite in2="hardAlpha" operator="arithmetic" k2="-1" k3="1"/>
<feColorMatrix type="matrix" values="0 0 0 0 0.0666667 0 0 0 0 0.0196078 0 0 0 0 0.160784 0 0 0 0.16 0"/>
<feBlend mode="normal" in2="shape" result="effect1_innerShadow_5803_36194"/>
</filter>
<filter id="filter1_i_5803_36194" x="151" y="271" width="58" height="54" filterUnits="userSpaceOnUse" color-interpolation-filters="sRGB">
<feFlood flood-opacity="0" result="BackgroundImageFix"/>
<feBlend mode="normal" in="SourceGraphic" in2="BackgroundImageFix" result="shape"/>
<feColorMatrix in="SourceAlpha" type="matrix" values="0 0 0 0 0 0 0 0 0 0 0 0 0 0 0 0 0 0 127 0" result="hardAlpha"/>
<feOffset dx="-8" dy="-4"/>
<feComposite in2="hardAlpha" operator="arithmetic" k2="-1" k3="1"/>
<feColorMatrix type="matrix" values="0 0 0 0 0.0666667 0 0 0 0 0.0196078 0 0 0 0 0.160784 0 0 0 0.16 0"/>
<feBlend mode="normal" in2="shape" result="effect1_innerShadow_5803_36194"/>
</filter>
<filter id="filter2_i_5803_36194" x="207" y="271" width="375" height="54" filterUnits="userSpaceOnUse" color-interpolation-filters="sRGB">
<feFlood flood-opacity="0" result="BackgroundImageFix"/>
<feBlend mode="normal" in="SourceGraphic" in2="BackgroundImageFix" result="shape"/>
<feColorMatrix in="SourceAlpha" type="matrix" values="0 0 0 0 0 0 0 0 0 0 0 0 0 0 0 0 0 0 127 0" result="hardAlpha"/>
<feOffset dx="-8" dy="-4"/>
<feComposite in2="hardAlpha" operator="arithmetic" k2="-1" k3="1"/>
<feColorMatrix type="matrix" values="0 0 0 0 0.0666667 0 0 0 0 0.0196078 0 0 0 0 0.160784 0 0 0 0.16 0"/>
<feBlend mode="normal" in2="shape" result="effect1_innerShadow_5803_36194"/>
</filter>
<filter id="filter3_i_5803_36194" x="580" y="271" width="32" height="54" filterUnits="userSpaceOnUse" color-interpolation-filters="sRGB">
<feFlood flood-opacity="0" result="BackgroundImageFix"/>
<feBlend mode="normal" in="SourceGraphic" in2="BackgroundImageFix" result="shape"/>
<feColorMatrix in="SourceAlpha" type="matrix" values="0 0 0 0 0 0 0 0 0 0 0 0 0 0 0 0 0 0 127 0" result="hardAlpha"/>
<feOffset dx="-8" dy="-4"/>
<feComposite in2="hardAlpha" operator="arithmetic" k2="-1" k3="1"/>
<feColorMatrix type="matrix" values="0 0 0 0 0.0666667 0 0 0 0 0.0196078 0 0 0 0 0.160784 0 0 0 0.16 0"/>
<feBlend mode="normal" in2="shape" result="effect1_innerShadow_5803_36194"/>
</filter>
<filter id="filter4_i_5803_36194" x="610" y="271" width="103" height="54" filterUnits="userSpaceOnUse" color-interpolation-filters="sRGB">
<feFlood flood-opacity="0" result="BackgroundImageFix"/>
<feBlend mode="normal" in="SourceGraphic" in2="BackgroundImageFix" result="shape"/>
<feColorMatrix in="SourceAlpha" type="matrix" values="0 0 0 0 0 0 0 0 0 0 0 0 0 0 0 0 0 0 127 0" result="hardAlpha"/>
<feOffset dx="-8" dy="-4"/>
<feComposite in2="hardAlpha" operator="arithmetic" k2="-1" k3="1"/>
<feColorMatrix type="matrix" values="0 0 0 0 0.0666667 0 0 0 0 0.0196078 0 0 0 0 0.160784 0 0 0 0.16 0"/>
<feBlend mode="normal" in2="shape" result="effect1_innerShadow_5803_36194"/>
</filter>
<filter id="filter5_i_5803_36194" x="711" y="271" width="146" height="54" filterUnits="userSpaceOnUse" color-interpolation-filters="sRGB">
<feFlood flood-opacity="0" result="BackgroundImageFix"/>
<feBlend mode="normal" in="SourceGraphic" in2="BackgroundImageFix" result="shape"/>
<feColorMatrix in="SourceAlpha" type="matrix" values="0 0 0 0 0 0 0 0 0 0 0 0 0 0 0 0 0 0 127 0" result="hardAlpha"/>
<feOffset dx="-8" dy="-4"/>
<feComposite in2="hardAlpha" operator="arithmetic" k2="-1" k3="1"/>
<feColorMatrix type="matrix" values="0 0 0 0 0.0666667 0 0 0 0 0.0196078 0 0 0 0 0.160784 0 0 0 0.16 0"/>
<feBlend mode="normal" in2="shape" result="effect1_innerShadow_5803_36194"/>
</filter>
<filter id="filter6_i_5803_36194" x="79" y="105" width="74" height="54" filterUnits="userSpaceOnUse" color-interpolation-filters="sRGB">
<feFlood flood-opacity="0" result="BackgroundImageFix"/>
<feBlend mode="normal" in="SourceGraphic" in2="BackgroundImageFix" result="shape"/>
<feColorMatrix in="SourceAlpha" type="matrix" values="0 0 0 0 0 0 0 0 0 0 0 0 0 0 0 0 0 0 127 0" result="hardAlpha"/>
<feOffset dx="-8" dy="-4"/>
<feComposite in2="hardAlpha" operator="arithmetic" k2="-1" k3="1"/>
<feColorMatrix type="matrix" values="0 0 0 0 0.0666667 0 0 0 0 0.0196078 0 0 0 0 0.160784 0 0 0 0.16 0"/>
<feBlend mode="normal" in2="shape" result="effect1_innerShadow_5803_36194"/>
</filter>
<filter id="filter7_i_5803_36194" x="151" y="105" width="58" height="54" filterUnits="userSpaceOnUse" color-interpolation-filters="sRGB">
<feFlood flood-opacity="0" result="BackgroundImageFix"/>
<feBlend mode="normal" in="SourceGraphic" in2="BackgroundImageFix" result="shape"/>
<feColorMatrix in="SourceAlpha" type="matrix" values="0 0 0 0 0 0 0 0 0 0 0 0 0 0 0 0 0 0 127 0" result="hardAlpha"/>
<feOffset dx="-8" dy="-4"/>
<feComposite in2="hardAlpha" operator="arithmetic" k2="-1" k3="1"/>
<feColorMatrix type="matrix" values="0 0 0 0 0.0666667 0 0 0 0 0.0196078 0 0 0 0 0.160784 0 0 0 0.16 0"/>
<feBlend mode="normal" in2="shape" result="effect1_innerShadow_5803_36194"/>
</filter>
<filter id="filter8_i_5803_36194" x="207" y="105" width="374" height="54" filterUnits="userSpaceOnUse" color-interpolation-filters="sRGB">
<feFlood flood-opacity="0" result="BackgroundImageFix"/>
<feBlend mode="normal" in="SourceGraphic" in2="BackgroundImageFix" result="shape"/>
<feColorMatrix in="SourceAlpha" type="matrix" values="0 0 0 0 0 0 0 0 0 0 0 0 0 0 0 0 0 0 127 0" result="hardAlpha"/>
<feOffset dx="-8" dy="-4"/>
<feComposite in2="hardAlpha" operator="arithmetic" k2="-1" k3="1"/>
<feColorMatrix type="matrix" values="0 0 0 0 0.0666667 0 0 0 0 0.0196078 0 0 0 0 0.160784 0 0 0 0.16 0"/>
<feBlend mode="normal" in2="shape" result="effect1_innerShadow_5803_36194"/>
</filter>
<filter id="filter9_i_5803_36194" x="579" y="105" width="32" height="54" filterUnits="userSpaceOnUse" color-interpolation-filters="sRGB">
<feFlood flood-opacity="0" result="BackgroundImageFix"/>
<feBlend mode="normal" in="SourceGraphic" in2="BackgroundImageFix" result="shape"/>
<feColorMatrix in="SourceAlpha" type="matrix" values="0 0 0 0 0 0 0 0 0 0 0 0 0 0 0 0 0 0 127 0" result="hardAlpha"/>
<feOffset dx="-8" dy="-4"/>
<feComposite in2="hardAlpha" operator="arithmetic" k2="-1" k3="1"/>
<feColorMatrix type="matrix" values="0 0 0 0 0.0666667 0 0 0 0 0.0196078 0 0 0 0 0.160784 0 0 0 0.16 0"/>
<feBlend mode="normal" in2="shape" result="effect1_innerShadow_5803_36194"/>
</filter>
<filter id="filter10_i_5803_36194" x="645" y="105" width="32" height="54" filterUnits="userSpaceOnUse" color-interpolation-filters="sRGB">
<feFlood flood-opacity="0" result="BackgroundImageFix"/>
<feBlend mode="normal" in="SourceGraphic" in2="BackgroundImageFix" result="shape"/>
<feColorMatrix in="SourceAlpha" type="matrix" values="0 0 0 0 0 0 0 0 0 0 0 0 0 0 0 0 0 0 127 0" result="hardAlpha"/>
<feOffset dx="-8" dy="-4"/>
<feComposite in2="hardAlpha" operator="arithmetic" k2="-1" k3="1"/>
<feColorMatrix type="matrix" values="0 0 0 0 0.0666667 0 0 0 0 0.0196078 0 0 0 0 0.160784 0 0 0 0.16 0"/>
<feBlend mode="normal" in2="shape" result="effect1_innerShadow_5803_36194"/>
</filter>
<filter id="filter11_i_5803_36194" x="609" y="105" width="38" height="54" filterUnits="userSpaceOnUse" color-interpolation-filters="sRGB">
<feFlood flood-opacity="0" result="BackgroundImageFix"/>
<feBlend mode="normal" in="SourceGraphic" in2="BackgroundImageFix" result="shape"/>
<feColorMatrix in="SourceAlpha" type="matrix" values="0 0 0 0 0 0 0 0 0 0 0 0 0 0 0 0 0 0 127 0" result="hardAlpha"/>
<feOffset dx="-8" dy="-4"/>
<feComposite in2="hardAlpha" operator="arithmetic" k2="-1" k3="1"/>
<feColorMatrix type="matrix" values="0 0 0 0 0.0666667 0 0 0 0 0.0196078 0 0 0 0 0.160784 0 0 0 0.16 0"/>
<feBlend mode="normal" in2="shape" result="effect1_innerShadow_5803_36194"/>
</filter>
<filter id="filter12_i_5803_36194" x="675" y="105" width="97" height="54" filterUnits="userSpaceOnUse" color-interpolation-filters="sRGB">
<feFlood flood-opacity="0" result="BackgroundImageFix"/>
<feBlend mode="normal" in="SourceGraphic" in2="BackgroundImageFix" result="shape"/>
<feColorMatrix in="SourceAlpha" type="matrix" values="0 0 0 0 0 0 0 0 0 0 0 0 0 0 0 0 0 0 127 0" result="hardAlpha"/>
<feOffset dx="-8" dy="-4"/>
<feComposite in2="hardAlpha" operator="arithmetic" k2="-1" k3="1"/>
<feColorMatrix type="matrix" values="0 0 0 0 0.0666667 0 0 0 0 0.0196078 0 0 0 0 0.160784 0 0 0 0.16 0"/>
<feBlend mode="normal" in2="shape" result="effect1_innerShadow_5803_36194"/>
</filter>
<filter id="filter13_i_5803_36194" x="770" y="105" width="146" height="54" filterUnits="userSpaceOnUse" color-interpolation-filters="sRGB">
<feFlood flood-opacity="0" result="BackgroundImageFix"/>
<feBlend mode="normal" in="SourceGraphic" in2="BackgroundImageFix" result="shape"/>
<feColorMatrix in="SourceAlpha" type="matrix" values="0 0 0 0 0 0 0 0 0 0 0 0 0 0 0 0 0 0 127 0" result="hardAlpha"/>
<feOffset dx="-8" dy="-4"/>
<feComposite in2="hardAlpha" operator="arithmetic" k2="-1" k3="1"/>
<feColorMatrix type="matrix" values="0 0 0 0 0.0666667 0 0 0 0 0.0196078 0 0 0 0 0.160784 0 0 0 0.16 0"/>
<feBlend mode="normal" in2="shape" result="effect1_innerShadow_5803_36194"/>
</filter>
</defs>
</svg>
