<svg width="960" height="404" viewBox="0 0 960 404" fill="none" xmlns="http://www.w3.org/2000/svg">
    <rect width="960" height="404" fill="#1D1D29"/>
    <path d="M810 112V24" stroke="white" stroke-opacity="0.3" stroke-width="2" stroke-linecap="square" stroke-dasharray="6 6"/>
    <path d="M898 112V24" stroke="white" stroke-opacity="0.3" stroke-width="2" stroke-linecap="square" stroke-dasharray="6 6"/>
    <path d="M754 112V24" stroke="white" stroke-opacity="0.3" stroke-width="2" stroke-linecap="square" stroke-dasharray="6 6"/>
    <path d="M700.593 37H702.056V32.695H705.724V31.225H702.056V28.383H706.564V26.92H700.593V37ZM707.826 37H709.289V33.381H711.963L713.72 37H715.393L713.489 33.094C714.63 32.597 715.204 31.491 715.204 30.147C715.204 28.516 714.364 27.235 712.677 26.976C712.411 26.934 712.096 26.92 711.9 26.92H707.826V37ZM709.289 31.995V28.299H711.844C712.026 28.299 712.271 28.313 712.481 28.369C713.377 28.579 713.713 29.405 713.713 30.147C713.713 30.889 713.377 31.715 712.481 31.932C712.271 31.981 712.026 31.995 711.844 31.995H709.289ZM721.201 37H722.685V35.243H723.686V33.857H722.685V31.127H721.201V33.857H718.324L721.6 26.92H719.927L716.651 33.857V35.243H721.201V37Z" fill="white" fill-opacity="0.3"/>
    <path d="M670 112V24" stroke="white" stroke-opacity="0.3" stroke-width="2" stroke-linecap="square" stroke-dasharray="6 6"/>
    <path d="M596.682 37.21C599.006 37.21 600.567 35.943 601.162 33.955L599.678 33.556C599.279 34.963 598.278 35.817 596.682 35.817C594.54 35.817 593.448 34.27 593.462 31.96C593.469 29.65 594.54 28.103 596.682 28.103C598.278 28.103 599.279 28.957 599.678 30.364L601.162 29.965C600.567 27.977 599.006 26.71 596.682 26.71C593.658 26.71 591.915 28.845 591.915 31.96C591.915 35.075 593.658 37.21 596.682 37.21ZM602.702 37H605.859C606.041 37 606.643 37 607.112 36.937C609.478 36.636 610.738 34.529 610.738 31.96C610.738 29.391 609.478 27.284 607.112 26.983C606.643 26.92 606.041 26.92 605.859 26.92H602.702V37ZM604.2 35.607V28.313H605.859C606.167 28.313 606.671 28.32 607.007 28.383C608.519 28.663 609.184 30.189 609.184 31.96C609.184 33.689 608.547 35.243 607.007 35.537C606.671 35.6 606.181 35.607 605.859 35.607H604.2ZM612.368 37H613.831V33.381H616.505L618.262 37H619.935L618.031 33.094C619.172 32.597 619.746 31.491 619.746 30.147C619.746 28.516 618.906 27.235 617.219 26.976C616.953 26.934 616.638 26.92 616.442 26.92H612.368V37ZM613.831 31.995V28.299H616.386C616.568 28.299 616.813 28.313 617.023 28.369C617.919 28.579 618.255 29.405 618.255 30.147C618.255 30.889 617.919 31.715 617.023 31.932C616.813 31.981 616.568 31.995 616.386 31.995H613.831ZM624.294 37.189C626.177 37.189 627.661 35.796 627.661 33.871C627.661 32.233 626.653 30.924 625.022 30.707L627.514 28.313V26.92H621.452V28.313H625.722L622.642 31.036L623.328 32.191C623.615 32.037 623.958 31.939 624.28 31.939C625.4 31.939 626.163 32.751 626.163 33.871C626.163 34.984 625.4 35.789 624.294 35.803C623.468 35.81 622.733 35.341 622.467 34.466L621.053 34.858C621.48 36.293 622.796 37.189 624.294 37.189Z" fill="white" fill-opacity="0.3"/>
    <path d="M212 112V24" stroke="white" stroke-opacity="0.3" stroke-width="2" stroke-linecap="square" stroke-dasharray="6 6"/>
    <path d="M227.268 37.21C229.151 37.21 230.768 35.705 230.768 33.829C230.768 31.939 229.382 30.525 227.499 30.525C226.904 30.525 226.274 30.714 225.777 31.071L225.945 28.299H230.075V26.92H224.636L224.328 32.219L225.602 32.667C225.917 32.247 226.484 31.855 227.31 31.855C228.388 31.855 229.291 32.723 229.291 33.829C229.291 34.907 228.416 35.796 227.31 35.796C226.47 35.796 225.637 35.229 225.406 34.333L223.999 34.711C224.412 36.181 225.714 37.21 227.268 37.21ZM232.672 29.629L232.581 30.28C233.589 30.462 234.128 29.846 234.128 28.747V26.92H232.581V28.607H233.386C233.456 29.202 233.281 29.678 232.672 29.629ZM240.15 37.21C242.523 37.21 244.168 35.663 244.168 33.29V26.92H242.684V33.213C242.684 34.914 241.417 35.831 240.15 35.831C238.897 35.831 237.616 34.935 237.616 33.213V26.92L236.132 26.927V33.29C236.132 35.663 237.777 37.21 240.15 37.21ZM248.639 37H250.102V28.299H253.455V26.92H245.286V28.299H248.639V37ZM254.576 37H256.039V33.381H258.713L260.47 37H262.143L260.239 33.094C261.38 32.597 261.954 31.491 261.954 30.147C261.954 28.516 261.114 27.235 259.427 26.976C259.161 26.934 258.846 26.92 258.65 26.92H254.576V37ZM256.039 31.995V28.299H258.594C258.776 28.299 259.021 28.313 259.231 28.369C260.127 28.579 260.463 29.405 260.463 30.147C260.463 30.889 260.127 31.715 259.231 31.932C259.021 31.981 258.776 31.995 258.594 31.995H256.039Z" fill="white" fill-opacity="0.3"/>
    <path d="M274 112V24" stroke="white" stroke-opacity="0.3" stroke-width="2" stroke-linecap="square" stroke-dasharray="6 6"/>
    <path d="M284.442 37H290.469V35.621H285.905V26.92H284.442V37Z" fill="white" fill-opacity="0.3"/>
    <path d="M300 112V24" stroke="white" stroke-opacity="0.3" stroke-width="2" stroke-linecap="square" stroke-dasharray="6 6"/>
    <path d="M314.858 37H316.321V32.695H319.989V31.225H316.321V28.383H320.829V26.92H314.858V37ZM322.09 37H323.553V33.381H326.227L327.984 37H329.657L327.753 33.094C328.894 32.597 329.468 31.491 329.468 30.147C329.468 28.516 328.628 27.235 326.941 26.976C326.675 26.934 326.36 26.92 326.164 26.92H322.09V37ZM323.553 31.995V28.299H326.108C326.29 28.299 326.535 28.313 326.745 28.369C327.641 28.579 327.977 29.405 327.977 30.147C327.977 30.889 327.641 31.715 326.745 31.932C326.535 31.981 326.29 31.995 326.108 31.995H323.553ZM332.953 37H334.444V26.92H332.953L331.056 28.054V29.685L332.953 28.53V37Z" fill="white" fill-opacity="0.3"/>
    <path d="M350 112V24" stroke="white" stroke-opacity="0.3" stroke-width="2" stroke-linecap="square" stroke-dasharray="6 6"/>
    <path d="M362.735 37.21C365.059 37.21 366.62 35.943 367.215 33.955L365.731 33.556C365.332 34.963 364.331 35.817 362.735 35.817C360.593 35.817 359.501 34.27 359.515 31.96C359.522 29.65 360.593 28.103 362.735 28.103C364.331 28.103 365.332 28.957 365.731 30.364L367.215 29.965C366.62 27.977 365.059 26.71 362.735 26.71C359.711 26.71 357.968 28.845 357.968 31.96C357.968 35.075 359.711 37.21 362.735 37.21ZM368.754 37H371.911C372.093 37 372.695 37 373.164 36.937C375.53 36.636 376.79 34.529 376.79 31.96C376.79 29.391 375.53 27.284 373.164 26.983C372.695 26.92 372.093 26.92 371.911 26.92H368.754V37ZM370.252 35.607V28.313H371.911C372.219 28.313 372.723 28.32 373.059 28.383C374.571 28.663 375.236 30.189 375.236 31.96C375.236 33.689 374.599 35.243 373.059 35.537C372.723 35.6 372.233 35.607 371.911 35.607H370.252ZM378.42 37H379.883V33.381H382.557L384.314 37H385.987L384.083 33.094C385.224 32.597 385.798 31.491 385.798 30.147C385.798 28.516 384.958 27.235 383.271 26.976C383.005 26.934 382.69 26.92 382.494 26.92H378.42V37ZM379.883 31.995V28.299H382.438C382.62 28.299 382.865 28.313 383.075 28.369C383.971 28.579 384.307 29.405 384.307 30.147C384.307 30.889 383.971 31.715 383.075 31.932C382.865 31.981 382.62 31.995 382.438 31.995H379.883ZM389.283 37H390.774V26.92H389.283L387.386 28.054V29.685L389.283 28.53V37Z" fill="white" fill-opacity="0.3"/>
    <path d="M400 112V24" stroke="white" stroke-opacity="0.3" stroke-width="2" stroke-linecap="square" stroke-dasharray="6 6"/>
    <path d="M413.703 37H415.166V32.695H418.834V31.225H415.166V28.383H419.674V26.92H413.703V37ZM420.935 37H422.398V33.381H425.072L426.829 37H428.502L426.598 33.094C427.739 32.597 428.313 31.491 428.313 30.147C428.313 28.516 427.473 27.235 425.786 26.976C425.52 26.934 425.205 26.92 425.009 26.92H420.935V37ZM422.398 31.995V28.299H424.953C425.135 28.299 425.38 28.313 425.59 28.369C426.486 28.579 426.822 29.405 426.822 30.147C426.822 30.889 426.486 31.715 425.59 31.932C425.38 31.981 425.135 31.995 424.953 31.995H422.398ZM429.761 36.993H436.579V35.6H432.022L434.941 32.996C436.033 32.037 436.579 31.407 436.579 30.028C436.579 28.117 435.144 26.71 433.24 26.71C431.231 26.71 429.796 28.047 429.796 30H431.294C431.28 28.985 432.092 28.103 433.212 28.103C434.297 28.103 435.074 28.929 435.074 30.007C435.074 30.581 434.864 31.127 434.157 31.757L429.768 35.691L429.761 36.993Z" fill="white" fill-opacity="0.3"/>
    <path d="M450 112V24" stroke="white" stroke-opacity="0.3" stroke-width="2" stroke-linecap="square" stroke-dasharray="6 6"/>
    <path d="M461.58 37.21C463.904 37.21 465.465 35.943 466.06 33.955L464.576 33.556C464.177 34.963 463.176 35.817 461.58 35.817C459.438 35.817 458.346 34.27 458.36 31.96C458.367 29.65 459.438 28.103 461.58 28.103C463.176 28.103 464.177 28.957 464.576 30.364L466.06 29.965C465.465 27.977 463.904 26.71 461.58 26.71C458.556 26.71 456.813 28.845 456.813 31.96C456.813 35.075 458.556 37.21 461.58 37.21ZM467.599 37H470.756C470.938 37 471.54 37 472.009 36.937C474.375 36.636 475.635 34.529 475.635 31.96C475.635 29.391 474.375 27.284 472.009 26.983C471.54 26.92 470.938 26.92 470.756 26.92H467.599V37ZM469.097 35.607V28.313H470.756C471.064 28.313 471.568 28.32 471.904 28.383C473.416 28.663 474.081 30.189 474.081 31.96C474.081 33.689 473.444 35.243 471.904 35.537C471.568 35.6 471.078 35.607 470.756 35.607H469.097ZM477.265 37H478.728V33.381H481.402L483.159 37H484.832L482.928 33.094C484.069 32.597 484.643 31.491 484.643 30.147C484.643 28.516 483.803 27.235 482.116 26.976C481.85 26.934 481.535 26.92 481.339 26.92H477.265V37ZM478.728 31.995V28.299H481.283C481.465 28.299 481.71 28.313 481.92 28.369C482.816 28.579 483.152 29.405 483.152 30.147C483.152 30.889 482.816 31.715 481.92 31.932C481.71 31.981 481.465 31.995 481.283 31.995H478.728ZM486.091 36.993H492.909V35.6H488.352L491.271 32.996C492.363 32.037 492.909 31.407 492.909 30.028C492.909 28.117 491.474 26.71 489.57 26.71C487.561 26.71 486.126 28.047 486.126 30H487.624C487.61 28.985 488.422 28.103 489.542 28.103C490.627 28.103 491.404 28.929 491.404 30.007C491.404 30.581 491.194 31.127 490.487 31.757L486.098 35.691L486.091 36.993Z" fill="white" fill-opacity="0.3"/>
    <path d="M500 112V24" stroke="white" stroke-opacity="0.3" stroke-width="2" stroke-linecap="square" stroke-dasharray="6 6"/>
    <path d="M513.805 37H515.268V32.695H518.936V31.225H515.268V28.383H519.776V26.92H513.805V37ZM521.038 37H522.501V33.381H525.175L526.932 37H528.605L526.701 33.094C527.842 32.597 528.416 31.491 528.416 30.147C528.416 28.516 527.576 27.235 525.889 26.976C525.623 26.934 525.308 26.92 525.112 26.92H521.038V37ZM522.501 31.995V28.299H525.056C525.238 28.299 525.483 28.313 525.693 28.369C526.589 28.579 526.925 29.405 526.925 30.147C526.925 30.889 526.589 31.715 525.693 31.932C525.483 31.981 525.238 31.995 525.056 31.995H522.501ZM532.964 37.189C534.847 37.189 536.331 35.796 536.331 33.871C536.331 32.233 535.323 30.924 533.692 30.707L536.184 28.313V26.92H530.122V28.313H534.392L531.312 31.036L531.998 32.191C532.285 32.037 532.628 31.939 532.95 31.939C534.07 31.939 534.833 32.751 534.833 33.871C534.833 34.984 534.07 35.789 532.964 35.803C532.138 35.81 531.403 35.341 531.137 34.466L529.723 34.858C530.15 36.293 531.466 37.189 532.964 37.189Z" fill="white" fill-opacity="0.3"/>
    <path d="M550 112V24" stroke="white" stroke-opacity="0.3" stroke-width="2" stroke-linecap="square" stroke-dasharray="6 6"/>
    <rect width="42" height="20" transform="translate(108 74)" fill="#1D1D29"/>
    <path d="M115.128 90H116.576V78.48H115.128L112.96 79.776V81.368L115.128 80.056V90ZM120.228 90H121.764L125.9 79.848V78.48H119.14V79.848H124.372L120.228 90ZM131.791 90.24C134.207 90.24 135.663 88.264 135.663 85.672C135.663 83.08 134.199 81.12 131.799 81.12C130.719 81.12 129.863 81.496 129.247 82.144V78.48H127.815V90H129.087V89.024C129.719 89.784 130.623 90.24 131.791 90.24ZM129.087 85.672C129.087 83.76 129.887 82.424 131.575 82.424C133.335 82.424 134.151 83.848 134.151 85.672C134.151 87.512 133.319 88.936 131.615 88.936C129.871 88.936 129.087 87.568 129.087 85.672ZM141.385 90.24C143.801 90.24 145.257 88.264 145.257 85.672C145.257 83.08 143.793 81.12 141.393 81.12C140.217 81.12 139.313 81.568 138.681 82.328V81.36H137.409V93.84H138.841V89.2C139.457 89.856 140.313 90.24 141.385 90.24ZM138.681 85.672C138.681 83.76 139.481 82.424 141.169 82.424C142.929 82.424 143.745 83.848 143.745 85.672C143.745 87.512 142.913 88.936 141.209 88.936C139.465 88.936 138.681 87.568 138.681 85.672Z" fill="white"/>
    <rect width="59" height="20" transform="translate(160 74)" fill="#1D1D29"/>
    <path d="M165.728 90H167.264L171.4 79.848V78.48H164.64V79.848H169.872L165.728 90ZM173.163 84.824H177.963V83.648H173.163V84.824ZM182.05 90H183.498V78.48H182.05L179.882 79.776V81.368L182.05 80.056V90ZM190.43 90.24C192.67 90.24 194.318 88.592 194.318 86.352V82.128C194.318 79.888 192.67 78.24 190.43 78.24C188.19 78.24 186.542 79.888 186.542 82.128V86.352C186.542 88.592 188.19 90.24 190.43 90.24ZM187.99 86.432V82.04C187.99 80.688 189.078 79.6 190.43 79.6C191.782 79.6 192.87 80.688 192.87 82.04V86.432C192.87 87.784 191.782 88.872 190.43 88.872C189.078 88.872 187.99 87.784 187.99 86.432ZM200.526 90.24C202.942 90.24 204.398 88.264 204.398 85.672C204.398 83.08 202.934 81.12 200.534 81.12C199.454 81.12 198.598 81.496 197.982 82.144V78.48H196.55V90H197.822V89.024C198.454 89.784 199.358 90.24 200.526 90.24ZM197.822 85.672C197.822 83.76 198.622 82.424 200.31 82.424C202.07 82.424 202.886 83.848 202.886 85.672C202.886 87.512 202.054 88.936 200.35 88.936C198.606 88.936 197.822 87.568 197.822 85.672ZM210.119 90.24C212.535 90.24 213.991 88.264 213.991 85.672C213.991 83.08 212.527 81.12 210.127 81.12C208.951 81.12 208.047 81.568 207.415 82.328V81.36H206.143V93.84H207.575V89.2C208.191 89.856 209.047 90.24 210.119 90.24ZM207.415 85.672C207.415 83.76 208.215 82.424 209.903 82.424C211.663 82.424 212.479 83.848 212.479 85.672C212.479 87.512 211.647 88.936 209.943 88.936C208.199 88.936 207.415 87.568 207.415 85.672Z" fill="white"/>
    <g filter="url(#filter0_i_5913_39316)">
        <rect x="96" y="268" width="64" height="52" rx="1" fill="#D6E0FF"/>
        <path d="M117.053 302.3C120.393 302.3 122.733 300.1 122.733 296.75V287.6H120.933V296.6C120.933 299.31 118.893 300.62 117.053 300.62C115.233 300.62 113.173 299.33 113.173 296.6V287.6L111.373 287.61V296.75C111.373 300.11 113.713 302.3 117.053 302.3ZM125.533 302H127.223V291.51L132.113 302H133.063L137.953 291.51V301.99H139.643V287.6H138.003L132.593 299.07L127.153 287.6H125.533V302ZM142.647 302H144.427V287.6H142.647V302Z" fill="#110529"/>
        <rect x="96" y="268" width="64" height="52" rx="1" stroke="#110529" stroke-width="2" stroke-linecap="round"/>
    </g>
    <g filter="url(#filter1_i_5913_39316)">
        <rect x="160" y="268" width="52" height="52" rx="1" fill="#D3D7E0"/>
        <path d="M178.815 302H180.595V289.29H185.505V287.6H173.905V289.29H178.815V302ZM192.207 302.3C195.197 302.3 197.597 300.77 197.597 297.98C197.597 295.21 195.227 294.5 193.977 294.15L191.237 293.36C190.167 293.06 188.837 292.6 188.837 291.27C188.837 289.94 190.207 288.98 191.977 289C193.807 289.02 195.317 290.1 195.617 291.85L197.507 291.52C196.977 288.9 194.897 287.33 191.997 287.31C189.127 287.3 186.957 288.8 186.957 291.35C186.957 293.48 188.477 294.41 190.077 294.88L193.747 295.97C194.777 296.28 195.757 296.82 195.757 298.08C195.757 299.65 194.227 300.61 192.297 300.61C190.287 300.61 188.697 299.54 188.237 297.72L186.397 298.01C186.877 300.66 189.147 302.3 192.207 302.3Z" fill="#110529"/>
        <rect x="160" y="268" width="52" height="52" rx="1" stroke="#110529" stroke-width="2" stroke-linecap="round"/>
    </g>
    <g filter="url(#filter2_i_5913_39316)">
        <rect x="212" y="268" width="350" height="52" rx="1" fill="#99E099"/>
        <path d="M385.758 302H388.238L393.058 287.6H391.208L386.978 300.11L382.788 287.6H380.938L385.758 302Z" fill="#110529"/>
        <rect x="212" y="268" width="350" height="52" rx="1" stroke="#110529" stroke-width="2" stroke-linecap="round"/>
    </g>
    <g filter="url(#filter3_i_5913_39316)">
        <rect x="562" y="268" width="30" height="52" rx="1" fill="#CBEB67"/>
    </g>
    <rect x="562" y="268" width="30" height="52" rx="1" stroke="#110529" stroke-width="2" stroke-linecap="round"/>
    <path d="M571.447 302V287.6H573.247L580.757 298.85V287.6H582.557V302H580.757L573.247 290.74V302H571.447Z" fill="#110529"/>
    <g filter="url(#filter4_i_5913_39316)">
        <path d="M688 269.6C688 269.04 688 268.76 687.891 268.546C687.795 268.358 687.642 268.205 687.454 268.109C687.24 268 686.96 268 686.4 268H593.6C593.04 268 592.76 268 592.546 268.109C592.358 268.205 592.205 268.358 592.109 268.546C592 268.76 592 269.04 592 269.6V294V318.4C592 318.96 592 319.24 592.109 319.454C592.205 319.642 592.358 319.795 592.546 319.891C592.76 320 593.04 320 593.6 320H686.4C686.96 320 687.24 320 687.454 319.891C687.642 319.795 687.795 319.642 687.891 319.454C688 319.24 688 318.96 688 318.4V313.5V307V300V294V287.5V281V274.5V269.6Z" fill="#C1ADFF"/>
    </g>
    <path d="M688 269.6C688 269.04 688 268.76 687.891 268.546C687.795 268.358 687.642 268.205 687.454 268.109C687.24 268 686.96 268 686.4 268H593.6C593.04 268 592.76 268 592.546 268.109C592.358 268.205 592.205 268.358 592.109 268.546C592 268.76 592 269.04 592 269.6V294V318.4C592 318.96 592 319.24 592.109 319.454C592.205 319.642 592.358 319.795 592.546 319.891C592.76 320 593.04 320 593.6 320H686.4C686.96 320 687.24 320 687.454 319.891C687.642 319.795 687.795 319.642 687.891 319.454C688 319.24 688 318.96 688 318.4V313.5V307V300V294V287.5V281V274.5V269.6Z" stroke="#110529" stroke-width="2" stroke-linecap="round"/>
    <path d="M637.227 302.29C636.221 302.29 635.367 302.017 634.667 301.47C633.967 300.923 633.487 300.19 633.227 299.27L634.997 298.85C635.104 299.337 635.361 299.75 635.767 300.09C636.181 300.43 636.654 300.6 637.187 300.6C637.534 300.6 637.887 300.517 638.247 300.35C638.607 300.177 638.884 299.897 639.077 299.51C639.211 299.243 639.287 298.95 639.307 298.63C639.327 298.303 639.337 297.92 639.337 297.48V287.6H641.137V297.48C641.137 297.893 641.134 298.263 641.127 298.59C641.127 298.917 641.094 299.23 641.027 299.53C640.967 299.823 640.847 300.123 640.667 300.43C640.307 301.063 639.824 301.533 639.217 301.84C638.617 302.14 637.954 302.29 637.227 302.29Z" fill="#110529"/>
    <g filter="url(#filter5_i_5913_39316)">
        <rect x="688" y="268" width="144" height="52" rx="1" fill="#FAFAAA"/>
        <path d="M759.593 302.3C758.16 302.3 756.943 301.983 755.943 301.35C754.943 300.717 754.18 299.837 753.653 298.71C753.133 297.583 752.873 296.28 752.873 294.8C752.873 293.32 753.133 292.017 753.653 290.89C754.18 289.763 754.943 288.883 755.943 288.25C756.943 287.617 758.16 287.3 759.593 287.3C761.26 287.3 762.63 287.723 763.703 288.57C764.783 289.417 765.527 290.557 765.933 291.99L764.123 292.47C763.83 291.397 763.307 290.55 762.553 289.93C761.8 289.31 760.813 289 759.593 289C758.52 289 757.627 289.243 756.913 289.73C756.2 290.217 755.663 290.897 755.303 291.77C754.943 292.637 754.76 293.647 754.753 294.8C754.747 295.947 754.923 296.957 755.283 297.83C755.643 298.697 756.183 299.377 756.903 299.87C757.623 300.357 758.52 300.6 759.593 300.6C760.813 300.6 761.8 300.29 762.553 299.67C763.307 299.043 763.83 298.197 764.123 297.13L765.933 297.61C765.527 299.037 764.783 300.177 763.703 301.03C762.63 301.877 761.26 302.3 759.593 302.3Z" fill="#110529"/>
        <rect x="688" y="268" width="144" height="52" rx="1" stroke="#110529" stroke-width="2" stroke-linecap="round"/>
    </g>
    <g filter="url(#filter6_i_5913_39316)">
        <rect x="96" y="108" width="64" height="52" rx="1" fill="#D6E0FF"/>
        <path d="M117.053 142.3C120.393 142.3 122.733 140.1 122.733 136.75V127.6H120.933V136.6C120.933 139.31 118.893 140.62 117.053 140.62C115.233 140.62 113.173 139.33 113.173 136.6V127.6L111.373 127.61V136.75C111.373 140.11 113.713 142.3 117.053 142.3ZM125.533 142H127.223V131.51L132.113 142H133.063L137.953 131.51V141.99H139.643V127.6H138.003L132.593 139.07L127.153 127.6H125.533V142ZM142.647 142H144.427V127.6H142.647V142Z" fill="#110529"/>
        <rect x="96" y="108" width="64" height="52" rx="1" stroke="#110529" stroke-width="2" stroke-linecap="round"/>
    </g>
    <g filter="url(#filter7_i_5913_39316)">
        <rect x="160" y="108" width="52" height="52" rx="1" fill="#D3D7E0"/>
        <path d="M178.815 142H180.595V129.29H185.505V127.6H173.905V129.29H178.815V142ZM192.207 142.3C195.197 142.3 197.597 140.77 197.597 137.98C197.597 135.21 195.227 134.5 193.977 134.15L191.237 133.36C190.167 133.06 188.837 132.6 188.837 131.27C188.837 129.94 190.207 128.98 191.977 129C193.807 129.02 195.317 130.1 195.617 131.85L197.507 131.52C196.977 128.9 194.897 127.33 191.997 127.31C189.127 127.3 186.957 128.8 186.957 131.35C186.957 133.48 188.477 134.41 190.077 134.88L193.747 135.97C194.777 136.28 195.757 136.82 195.757 138.08C195.757 139.65 194.227 140.61 192.297 140.61C190.287 140.61 188.697 139.54 188.237 137.72L186.397 138.01C186.877 140.66 189.147 142.3 192.207 142.3Z" fill="#110529"/>
        <rect x="160" y="108" width="52" height="52" rx="1" stroke="#110529" stroke-width="2" stroke-linecap="round"/>
    </g>
    <g filter="url(#filter8_i_5913_39316)">
        <rect x="212" y="108" width="350" height="52" rx="1" fill="#99E099"/>
        <path d="M385.758 142H388.238L393.058 127.6H391.208L386.978 140.11L382.788 127.6H380.938L385.758 142Z" fill="#110529"/>
        <rect x="212" y="108" width="350" height="52" rx="1" stroke="#110529" stroke-width="2" stroke-linecap="round"/>
    </g>
    <g filter="url(#filter9_i_5913_39316)">
        <rect x="562" y="108" width="30" height="52" rx="1" fill="#CBEB67"/>
    </g>
    <rect x="562" y="108" width="30" height="52" rx="1" stroke="#110529" stroke-width="2" stroke-linecap="round"/>
    <g filter="url(#filter10_i_5913_39316)">
        <rect x="628" y="108" width="30" height="52" rx="1" fill="#FAAAFA"/>
    </g>
    <rect x="628" y="108" width="30" height="52" rx="1" stroke="#110529" stroke-width="2" stroke-linecap="round"/>
    <g filter="url(#filter11_i_5913_39316)">
        <rect x="592" y="108" width="36" height="52" rx="1" fill="#FFCB8F"/>
    </g>
    <rect x="592" y="108" width="36" height="52" rx="1" stroke="#110529" stroke-width="2" stroke-linecap="round"/>
    <path d="M571.447 142H573.247V130.74L580.757 142H582.557V127.6H580.757V138.85L573.247 127.6H571.447V142Z" fill="#110529"/>
    <path d="M637.447 142H639.247V130.74L646.757 142H648.557V127.6H646.757V138.85L639.247 127.6H637.447V142Z" fill="#110529"/>
    <path d="M604.593 142H609.033C609.303 142 610.183 142 610.853 141.91C614.183 141.47 615.913 138.48 615.913 134.8C615.913 131.13 614.183 128.13 610.853 127.69C610.173 127.6 609.313 127.6 609.033 127.6H604.593V142ZM606.423 140.3V129.3H609.033C609.513 129.3 610.233 129.32 610.703 129.41C613.033 129.83 614.023 132.08 614.023 134.8C614.023 137.47 613.063 139.76 610.703 140.19C610.233 140.28 609.533 140.3 609.033 140.3H606.423Z" fill="#110529"/>
    <g filter="url(#filter12_i_5913_39316)">
        <rect x="658" y="108" width="96" height="52" rx="1" fill="#C1ADFF"/>
        <path d="M705.244 142.29C706.694 142.29 707.954 141.7 708.684 140.43C709.214 139.51 709.154 138.72 709.154 137.48V127.6H707.354V137.48C707.354 138.37 707.354 138.99 707.094 139.51C706.704 140.29 705.884 140.6 705.204 140.6C704.134 140.6 703.224 139.83 703.014 138.85L701.244 139.27C701.754 141.11 703.224 142.29 705.244 142.29Z" fill="#110529"/>
        <rect x="658" y="108" width="96" height="52" rx="1" stroke="#110529" stroke-width="2" stroke-linecap="round"/>
    </g>
    <g filter="url(#filter13_i_5913_39316)">
        <rect x="754" y="108" width="144" height="52" rx="1" fill="#FAFAAA"/>
        <path d="M825.593 142.3C824.16 142.3 822.943 141.983 821.943 141.35C820.943 140.717 820.18 139.837 819.653 138.71C819.133 137.583 818.873 136.28 818.873 134.8C818.873 133.32 819.133 132.017 819.653 130.89C820.18 129.763 820.943 128.883 821.943 128.25C822.943 127.617 824.16 127.3 825.593 127.3C827.26 127.3 828.63 127.723 829.703 128.57C830.783 129.417 831.527 130.557 831.933 131.99L830.123 132.47C829.83 131.397 829.307 130.55 828.553 129.93C827.8 129.31 826.813 129 825.593 129C824.52 129 823.627 129.243 822.913 129.73C822.2 130.217 821.663 130.897 821.303 131.77C820.943 132.637 820.76 133.647 820.753 134.8C820.747 135.947 820.923 136.957 821.283 137.83C821.643 138.697 822.183 139.377 822.903 139.87C823.623 140.357 824.52 140.6 825.593 140.6C826.813 140.6 827.8 140.29 828.553 139.67C829.307 139.043 829.83 138.197 830.123 137.13L831.933 137.61C831.527 139.037 830.783 140.177 829.703 141.03C828.63 141.877 827.26 142.3 825.593 142.3Z" fill="#110529"/>
        <rect x="754" y="108" width="144" height="52" rx="1" stroke="#110529" stroke-width="2" stroke-linecap="round"/>
    </g>
    <path d="M32.9984 142H34.7784V127.6H32.9984V142ZM43.6089 142.3C47.8189 142.3 50.0589 139.39 50.0589 135.44C50.0589 135.32 50.0489 134.87 50.0189 134.59H45.0789V136.06H48.1389C47.9189 138.93 46.4789 140.62 43.6989 140.6C40.4789 140.58 38.8489 138.25 38.8689 134.8C38.8889 131.35 40.4789 128.99 43.6989 129.01C45.7489 129.02 47.1389 130.14 47.7489 131.88L49.5489 131.51C48.7989 128.92 46.8289 127.31 43.6089 127.31C39.5789 127.31 36.9789 130.21 36.9789 134.8C36.9789 139.44 39.6389 142.3 43.6089 142.3ZM52.0563 142H53.8363V135.64H61.4163V142H63.1963V127.6H61.4163V133.95H53.8363V127.6H52.0563V142Z" fill="white"/>
    <path d="M26.0258 288H27.8058V273.6H26.0258V288ZM36.6363 288.3C40.8463 288.3 43.0863 285.39 43.0863 281.44C43.0863 281.32 43.0763 280.87 43.0463 280.59H38.1063V282.06H41.1662C40.9463 284.93 39.5062 286.62 36.7263 286.6C33.5063 286.58 31.8763 284.25 31.8963 280.8C31.9163 277.35 33.5063 274.99 36.7263 275.01C38.7763 275.02 40.1663 276.14 40.7763 277.88L42.5763 277.51C41.8263 274.92 39.8563 273.31 36.6363 273.31C32.6063 273.31 30.0063 276.21 30.0063 280.8C30.0063 285.44 32.6663 288.3 36.6363 288.3ZM45.0836 288H46.8636V280.96L53.6136 288H55.9136L48.8636 280.59L55.4036 273.6H53.1636L46.8636 280.36V273.6H45.0836V288ZM64.5634 273.6L60.7234 288H62.5334L66.3734 273.6H64.5634ZM34.7953 308H36.5753V293.6H34.7953V308ZM45.4058 308.3C49.6158 308.3 51.8558 305.39 51.8558 301.44C51.8558 301.32 51.8458 300.87 51.8158 300.59H46.8758V302.06H49.9358C49.7158 304.93 48.2758 306.62 45.4958 306.6C42.2758 306.58 40.6458 304.25 40.6658 300.8C40.6858 297.35 42.2758 294.99 45.4958 295.01C47.5458 295.02 48.9358 296.14 49.5458 297.88L51.3458 297.51C50.5958 294.92 48.6258 293.31 45.4058 293.31C41.3758 293.31 38.7758 296.21 38.7758 300.8C38.7758 305.44 41.4358 308.3 45.4058 308.3ZM54.0531 308H62.5131V306.31H55.8331V293.6H54.0531V308Z" fill="white"/>
    <rect x="789" y="56" width="138" height="22" fill="#1D1D29"/>
    <path d="M802.684 72.24C805.348 72.24 807.1 70.776 807.756 68.488L806.308 68.104C805.836 69.816 804.628 70.88 802.684 70.88C800.108 70.88 798.796 69 798.812 66.24C798.828 63.48 800.108 61.6 802.684 61.6C804.628 61.6 805.836 62.664 806.308 64.376L807.756 63.992C807.1 61.704 805.348 60.24 802.684 60.24C799.236 60.24 797.308 62.688 797.308 66.24C797.308 69.792 799.236 72.24 802.684 72.24ZM809.351 67.544H814.151V66.368H809.351V67.544ZM816.229 72H817.661V67.664C817.661 66.64 817.869 65.624 818.709 65.024C819.309 64.584 820.085 64.544 820.685 64.696V63.36C819.917 63.192 818.901 63.352 818.237 63.888C817.949 64.096 817.693 64.392 817.501 64.728V63.36H816.229V72ZM825.786 72.24C827.458 72.24 828.89 71.368 829.57 69.84L828.202 69.368C827.722 70.352 826.858 70.888 825.722 70.888C824.13 70.888 823.202 69.872 823.09 68.08H829.714C829.842 65.008 828.322 63.12 825.722 63.12C823.21 63.12 821.562 64.904 821.562 67.736C821.562 70.44 823.234 72.24 825.786 72.24ZM823.114 66.936C823.314 65.296 824.218 64.4 825.77 64.4C827.234 64.4 828.058 65.24 828.234 66.936H823.114ZM834.991 76.08C837.055 76.08 838.415 75.224 838.751 73.384C838.831 72.96 838.855 72.536 838.855 72.056V63.36H837.591V64.328C836.959 63.568 836.055 63.12 834.879 63.12C832.479 63.12 831.015 65.08 831.015 67.672C831.015 70.264 832.471 72.24 834.887 72.24C835.951 72.24 836.807 71.856 837.423 71.208V72.04C837.439 73.8 836.647 74.704 834.999 74.704C834.159 74.704 833.303 74.344 832.879 73.496L831.575 74.184C832.295 75.472 833.631 76.08 834.991 76.08ZM832.527 67.672C832.527 65.848 833.343 64.424 835.103 64.424C836.791 64.424 837.591 65.76 837.591 67.672C837.591 69.568 836.807 70.936 835.063 70.936C833.359 70.936 832.527 69.512 832.527 67.672ZM841.249 61.832H842.673V60.36H841.249V61.832ZM841.249 72H842.673V63.36H841.249V72ZM848.753 72.24C851.321 72.24 852.921 70.384 852.921 67.672C852.921 65 851.345 63.12 848.753 63.12C846.217 63.12 844.593 64.96 844.593 67.672C844.593 70.352 846.169 72.24 848.753 72.24ZM846.105 67.672C846.105 65.784 846.945 64.472 848.753 64.472C850.521 64.472 851.409 65.728 851.409 67.672C851.409 69.576 850.537 70.888 848.753 70.888C847.009 70.888 846.105 69.624 846.105 67.672ZM860.835 67.672V72H862.275V67.224C862.275 65.584 861.619 63.136 858.835 63.136C857.587 63.136 856.595 63.616 855.955 64.472V63.36H854.675V72H856.115V67.448C856.115 65.448 857.059 64.488 858.491 64.488C860.315 64.488 860.835 66.048 860.835 67.672ZM871.526 72.24C873.942 72.24 875.398 70.264 875.398 67.672C875.398 65.08 873.934 63.12 871.534 63.12C870.358 63.12 869.454 63.568 868.822 64.328V63.36H867.55V75.84H868.982V71.2C869.598 71.856 870.454 72.24 871.526 72.24ZM868.822 67.672C868.822 65.76 869.622 64.424 871.31 64.424C873.07 64.424 873.886 65.848 873.886 67.672C873.886 69.512 873.054 70.936 871.35 70.936C869.606 70.936 868.822 69.568 868.822 67.672ZM877.151 72H878.583V67.664C878.583 66.64 878.791 65.624 879.631 65.024C880.231 64.584 881.007 64.544 881.607 64.696V63.36C880.839 63.192 879.823 63.352 879.159 63.888C878.871 64.096 878.615 64.392 878.423 64.728V63.36H877.151V72ZM883.28 61.832H884.704V60.36H883.28V61.832ZM883.28 72H884.704V63.36H883.28V72ZM897.44 66.472L897.432 72H898.856L898.864 66.16C898.864 64.32 897.76 63.136 895.96 63.136C894.824 63.136 893.856 63.672 893.344 64.56C892.88 63.656 891.992 63.136 890.824 63.136C889.792 63.136 888.912 63.576 888.368 64.28V63.36H887.096V72H888.528V66.512C888.528 65.248 889.28 64.408 890.408 64.408C891.536 64.408 892.28 65.216 892.28 66.528L892.272 72H893.688L893.696 66.512C893.696 65.056 894.616 64.408 895.584 64.408C896.672 64.408 897.44 65.184 897.44 66.472ZM904.614 72.24C906.286 72.24 907.718 71.368 908.398 69.84L907.03 69.368C906.55 70.352 905.686 70.888 904.55 70.888C902.958 70.888 902.03 69.872 901.918 68.08H908.542C908.67 65.008 907.15 63.12 904.55 63.12C902.038 63.12 900.39 64.904 900.39 67.736C900.39 70.44 902.062 72.24 904.614 72.24ZM901.942 66.936C902.142 65.296 903.046 64.4 904.598 64.4C906.062 64.4 906.886 65.24 907.062 66.936H901.942ZM910.323 72H911.755V67.664C911.755 66.64 911.963 65.624 912.803 65.024C913.403 64.584 914.179 64.544 914.779 64.696V63.36C914.011 63.192 912.995 63.352 912.331 63.888C912.043 64.096 911.787 64.392 911.595 64.728V63.36H910.323V72ZM824.964 91.992H832.62V90.632H827.156L830.868 87.296C832.052 86.248 832.62 85.488 832.62 83.976C832.62 81.856 831.004 80.24 828.868 80.24C826.652 80.24 825.02 81.784 825.02 83.952H826.476C826.46 82.696 827.468 81.6 828.844 81.6C830.172 81.6 831.164 82.632 831.164 83.96C831.164 84.688 830.932 85.352 830.084 86.112L824.972 90.712L824.964 91.992ZM838.422 92.24C840.662 92.24 842.31 90.592 842.31 88.352V84.128C842.31 81.888 840.662 80.24 838.422 80.24C836.182 80.24 834.534 81.888 834.534 84.128V88.352C834.534 90.592 836.182 92.24 838.422 92.24ZM835.982 88.432V84.04C835.982 82.688 837.07 81.6 838.422 81.6C839.774 81.6 840.862 82.688 840.862 84.04V88.432C840.862 89.784 839.774 90.872 838.422 90.872C837.07 90.872 835.982 89.784 835.982 88.432ZM844.39 86.824H849.19V85.648H844.39V86.824ZM850.948 91.992H858.604V90.632H853.14L856.852 87.296C858.036 86.248 858.604 85.488 858.604 83.976C858.604 81.856 856.988 80.24 854.852 80.24C852.636 80.24 851.004 81.784 851.004 83.952H852.46C852.444 82.696 853.452 81.6 854.828 81.6C856.156 81.6 857.148 82.632 857.148 83.96C857.148 84.688 856.916 85.352 856.068 86.112L850.956 90.712L850.948 91.992ZM860.198 91.992H867.854V90.632H862.39L866.102 87.296C867.286 86.248 867.854 85.488 867.854 83.976C867.854 81.856 866.238 80.24 864.102 80.24C861.886 80.24 860.254 81.784 860.254 83.952H861.71C861.694 82.696 862.702 81.6 864.078 81.6C865.406 81.6 866.398 82.632 866.398 83.96C866.398 84.688 866.166 85.352 865.318 86.112L860.206 90.712L860.198 91.992ZM873.736 92.24C876.152 92.24 877.608 90.264 877.608 87.672C877.608 85.08 876.144 83.12 873.744 83.12C872.664 83.12 871.808 83.496 871.192 84.144V80.48H869.76V92H871.032V91.024C871.664 91.784 872.568 92.24 873.736 92.24ZM871.032 87.672C871.032 85.76 871.832 84.424 873.52 84.424C875.28 84.424 876.096 85.848 876.096 87.672C876.096 89.512 875.264 90.936 873.56 90.936C871.816 90.936 871.032 89.568 871.032 87.672ZM883.33 92.24C885.746 92.24 887.202 90.264 887.202 87.672C887.202 85.08 885.738 83.12 883.338 83.12C882.162 83.12 881.258 83.568 880.626 84.328V83.36H879.354V95.84H880.786V91.2C881.402 91.856 882.258 92.24 883.33 92.24ZM880.626 87.672C880.626 85.76 881.426 84.424 883.114 84.424C884.874 84.424 885.69 85.848 885.69 87.672C885.69 89.512 884.858 90.936 883.154 90.936C881.41 90.936 880.626 89.568 880.626 87.672Z" fill="white"/>
    <path d="M450 184L449.293 184.707L448.586 184L449.293 183.293L450 184ZM457.293 175.293L458 174.586L459.414 176L458.707 176.707L457.293 175.293ZM458.707 191.293L459.414 192L458 193.414L457.293 192.707L458.707 191.293ZM460 185L450 185L450 183L460 183L460 185ZM449.293 183.293L457.293 175.293L458.707 176.707L450.707 184.707L449.293 183.293ZM450.707 183.293L458.707 191.293L457.293 192.707L449.293 184.707L450.707 183.293Z" fill="#D3D7E0"/>
    <path d="M634.5 184H460" stroke="#D3D7E0" stroke-width="2"/>
    <rect width="57" height="20" transform="translate(634.5 174)" fill="#1D1D29"/>
    <path d="M643.171 190.224C645.307 190.224 646.931 188.664 646.931 186.456C646.931 184.44 645.651 182.944 643.667 182.832L646.779 179.848V178.48H639.987V179.84H645.011L641.267 183.224L641.955 184.352C642.315 184.168 642.755 184.048 643.147 184.048C644.531 184.048 645.467 185.032 645.467 186.456C645.467 187.864 644.563 188.84 643.163 188.864C642.139 188.88 641.243 188.312 640.899 187.24L639.531 187.632C640.019 189.232 641.459 190.224 643.171 190.224ZM652.899 190.24C655.139 190.24 656.787 188.592 656.787 186.352V182.128C656.787 179.888 655.139 178.24 652.899 178.24C650.659 178.24 649.011 179.888 649.011 182.128V186.352C649.011 188.592 650.659 190.24 652.899 190.24ZM650.459 186.432V182.04C650.459 180.688 651.547 179.6 652.899 179.6C654.251 179.6 655.339 180.688 655.339 182.04V186.432C655.339 187.784 654.251 188.872 652.899 188.872C651.547 188.872 650.459 187.784 650.459 186.432ZM662.914 190.24C665.154 190.24 666.802 188.592 666.802 186.352V182.128C666.802 179.888 665.154 178.24 662.914 178.24C660.674 178.24 659.026 179.888 659.026 182.128V186.352C659.026 188.592 660.674 190.24 662.914 190.24ZM660.474 186.432V182.04C660.474 180.688 661.562 179.6 662.914 179.6C664.266 179.6 665.354 180.688 665.354 182.04V186.432C665.354 187.784 664.266 188.872 662.914 188.872C661.562 188.872 660.474 187.784 660.474 186.432ZM673.01 190.24C675.426 190.24 676.882 188.264 676.882 185.672C676.882 183.08 675.418 181.12 673.018 181.12C671.938 181.12 671.082 181.496 670.466 182.144V178.48H669.034V190H670.306V189.024C670.938 189.784 671.842 190.24 673.01 190.24ZM670.306 185.672C670.306 183.76 671.106 182.424 672.794 182.424C674.554 182.424 675.37 183.848 675.37 185.672C675.37 187.512 674.538 188.936 672.834 188.936C671.09 188.936 670.306 187.568 670.306 185.672ZM682.604 190.24C685.02 190.24 686.476 188.264 686.476 185.672C686.476 183.08 685.012 181.12 682.612 181.12C681.436 181.12 680.532 181.568 679.9 182.328V181.36H678.628V193.84H680.06V189.2C680.676 189.856 681.532 190.24 682.604 190.24ZM679.9 185.672C679.9 183.76 680.7 182.424 682.388 182.424C684.148 182.424 684.964 183.848 684.964 185.672C684.964 187.512 684.132 188.936 682.428 188.936C680.684 188.936 679.9 187.568 679.9 185.672Z" fill="white"/>
    <path d="M866 184H691.5" stroke="#D3D7E0" stroke-width="2"/>
    <path d="M874.62 190H876.044V185.744H879.412L881.476 190H883.108L880.884 185.432C882.188 184.888 882.868 183.632 882.868 182.112C882.868 180.28 881.884 178.832 880.02 178.544C879.724 178.496 879.396 178.48 879.172 178.48H874.62V190ZM876.044 184.392V179.832H879.124C879.324 179.832 879.604 179.848 879.844 179.904C880.948 180.152 881.412 181.152 881.412 182.112C881.412 183.072 880.948 184.072 879.844 184.32C879.604 184.376 879.324 184.392 879.124 184.392H876.044ZM886.878 190H888.326V178.48H886.878L884.71 179.776V181.368L886.878 180.056V190Z" fill="white"/>
    <rect x="866" y="172" width="32" height="24" rx="1" stroke="#D3D7E0" stroke-width="2"/>
    <path d="M420 344L419.293 344.707L418.586 344L419.293 343.293L420 344ZM427.293 335.293L428 334.586L429.414 336L428.707 336.707L427.293 335.293ZM428.707 351.293L429.414 352L428 353.414L427.293 352.707L428.707 351.293ZM430 345L420 345L420 343L430 343L430 345ZM419.293 343.293L427.293 335.293L428.707 336.707L420.707 344.707L419.293 343.293ZM420.707 343.293L428.707 351.293L427.293 352.707L419.293 344.707L420.707 343.293Z" fill="#D3D7E0"/>
    <path d="M586.5 344H430" stroke="#D3D7E0" stroke-width="2"/>
    <rect width="57" height="20" transform="translate(586.5 334)" fill="#1D1D29"/>
    <path d="M595.171 350.224C597.307 350.224 598.931 348.664 598.931 346.456C598.931 344.44 597.651 342.944 595.667 342.832L598.779 339.848V338.48H591.987V339.84H597.011L593.267 343.224L593.955 344.352C594.315 344.168 594.755 344.048 595.147 344.048C596.531 344.048 597.467 345.032 597.467 346.456C597.467 347.864 596.563 348.84 595.163 348.864C594.139 348.88 593.243 348.312 592.899 347.24L591.531 347.632C592.019 349.232 593.459 350.224 595.171 350.224ZM604.899 350.24C607.139 350.24 608.787 348.592 608.787 346.352V342.128C608.787 339.888 607.139 338.24 604.899 338.24C602.659 338.24 601.011 339.888 601.011 342.128V346.352C601.011 348.592 602.659 350.24 604.899 350.24ZM602.459 346.432V342.04C602.459 340.688 603.547 339.6 604.899 339.6C606.251 339.6 607.339 340.688 607.339 342.04V346.432C607.339 347.784 606.251 348.872 604.899 348.872C603.547 348.872 602.459 347.784 602.459 346.432ZM614.914 350.24C617.154 350.24 618.802 348.592 618.802 346.352V342.128C618.802 339.888 617.154 338.24 614.914 338.24C612.674 338.24 611.026 339.888 611.026 342.128V346.352C611.026 348.592 612.674 350.24 614.914 350.24ZM612.474 346.432V342.04C612.474 340.688 613.562 339.6 614.914 339.6C616.266 339.6 617.354 340.688 617.354 342.04V346.432C617.354 347.784 616.266 348.872 614.914 348.872C613.562 348.872 612.474 347.784 612.474 346.432ZM625.01 350.24C627.426 350.24 628.882 348.264 628.882 345.672C628.882 343.08 627.418 341.12 625.018 341.12C623.938 341.12 623.082 341.496 622.466 342.144V338.48H621.034V350H622.306V349.024C622.938 349.784 623.842 350.24 625.01 350.24ZM622.306 345.672C622.306 343.76 623.106 342.424 624.794 342.424C626.554 342.424 627.37 343.848 627.37 345.672C627.37 347.512 626.538 348.936 624.834 348.936C623.09 348.936 622.306 347.568 622.306 345.672ZM634.604 350.24C637.02 350.24 638.476 348.264 638.476 345.672C638.476 343.08 637.012 341.12 634.612 341.12C633.436 341.12 632.532 341.568 631.9 342.328V341.36H630.628V353.84H632.06V349.2C632.676 349.856 633.532 350.24 634.604 350.24ZM631.9 345.672C631.9 343.76 632.7 342.424 634.388 342.424C636.148 342.424 636.964 343.848 636.964 345.672C636.964 347.512 636.132 348.936 634.428 348.936C632.684 348.936 631.9 347.568 631.9 345.672Z" fill="white"/>
    <path d="M800 344H643.5" stroke="#D3D7E0" stroke-width="2"/>
    <path d="M808.62 350H810.044V345.744H813.412L815.476 350H817.108L814.884 345.432C816.188 344.888 816.868 343.632 816.868 342.112C816.868 340.28 815.884 338.832 814.02 338.544C813.724 338.496 813.396 338.48 813.172 338.48H808.62V350ZM810.044 344.392V339.832H813.124C813.324 339.832 813.604 339.848 813.844 339.904C814.948 340.152 815.412 341.152 815.412 342.112C815.412 343.072 814.948 344.072 813.844 344.32C813.604 344.376 813.324 344.392 813.124 344.392H810.044ZM820.878 350H822.326V338.48H820.878L818.71 339.776V341.368L820.878 340.056V350Z" fill="white"/>
    <rect x="800" y="332" width="32" height="24" rx="1" stroke="#D3D7E0" stroke-width="2"/>
    <path d="M103.12 214H104.544V209.744H107.912L109.976 214H111.608L109.384 209.432C110.688 208.888 111.368 207.632 111.368 206.112C111.368 204.28 110.384 202.832 108.52 202.544C108.224 202.496 107.896 202.48 107.672 202.48H103.12V214ZM104.544 208.392V203.832H107.624C107.824 203.832 108.104 203.848 108.344 203.904C109.448 204.152 109.912 205.152 109.912 206.112C109.912 207.072 109.448 208.072 108.344 208.32C108.104 208.376 107.824 208.392 107.624 208.392H104.544ZM113.05 213.992H120.706V212.632H115.242L118.954 209.296C120.138 208.248 120.706 207.488 120.706 205.976C120.706 203.856 119.09 202.24 116.954 202.24C114.738 202.24 113.106 203.784 113.106 205.952H114.562C114.546 204.696 115.554 203.6 116.93 203.6C118.258 203.6 119.25 204.632 119.25 205.96C119.25 206.688 119.018 207.352 118.17 208.112L113.058 212.712L113.05 213.992Z" fill="white"/>
    <rect x="96" y="196" width="32" height="24" rx="1" stroke="#D3D7E0" stroke-width="2"/>
    <path d="M294.5 208H128" stroke="#D3D7E0" stroke-width="2"/>
    <rect width="57" height="20" transform="translate(294.5 198)" fill="#1D1D29"/>
    <path d="M303.171 214.224C305.307 214.224 306.931 212.664 306.931 210.456C306.931 208.44 305.651 206.944 303.667 206.832L306.779 203.848V202.48H299.987V203.84H305.011L301.267 207.224L301.955 208.352C302.315 208.168 302.755 208.048 303.147 208.048C304.531 208.048 305.467 209.032 305.467 210.456C305.467 211.864 304.563 212.84 303.163 212.864C302.139 212.88 301.243 212.312 300.899 211.24L299.531 211.632C300.019 213.232 301.459 214.224 303.171 214.224ZM312.899 214.24C315.139 214.24 316.787 212.592 316.787 210.352V206.128C316.787 203.888 315.139 202.24 312.899 202.24C310.659 202.24 309.011 203.888 309.011 206.128V210.352C309.011 212.592 310.659 214.24 312.899 214.24ZM310.459 210.432V206.04C310.459 204.688 311.547 203.6 312.899 203.6C314.251 203.6 315.339 204.688 315.339 206.04V210.432C315.339 211.784 314.251 212.872 312.899 212.872C311.547 212.872 310.459 211.784 310.459 210.432ZM322.914 214.24C325.154 214.24 326.802 212.592 326.802 210.352V206.128C326.802 203.888 325.154 202.24 322.914 202.24C320.674 202.24 319.026 203.888 319.026 206.128V210.352C319.026 212.592 320.674 214.24 322.914 214.24ZM320.474 210.432V206.04C320.474 204.688 321.562 203.6 322.914 203.6C324.266 203.6 325.354 204.688 325.354 206.04V210.432C325.354 211.784 324.266 212.872 322.914 212.872C321.562 212.872 320.474 211.784 320.474 210.432ZM333.01 214.24C335.426 214.24 336.882 212.264 336.882 209.672C336.882 207.08 335.418 205.12 333.018 205.12C331.938 205.12 331.082 205.496 330.466 206.144V202.48H329.034V214H330.306V213.024C330.938 213.784 331.842 214.24 333.01 214.24ZM330.306 209.672C330.306 207.76 331.106 206.424 332.794 206.424C334.554 206.424 335.37 207.848 335.37 209.672C335.37 211.512 334.538 212.936 332.834 212.936C331.09 212.936 330.306 211.568 330.306 209.672ZM342.604 214.24C345.02 214.24 346.476 212.264 346.476 209.672C346.476 207.08 345.012 205.12 342.612 205.12C341.436 205.12 340.532 205.568 339.9 206.328V205.36H338.628V217.84H340.06V213.2C340.676 213.856 341.532 214.24 342.604 214.24ZM339.9 209.672C339.9 207.76 340.7 206.424 342.388 206.424C344.148 206.424 344.964 207.848 344.964 209.672C344.964 211.512 344.132 212.936 342.428 212.936C340.684 212.936 339.9 211.568 339.9 209.672Z" fill="white"/>
    <path d="M518 208H351.5" stroke="#D3D7E0" stroke-width="2"/>
    <path d="M528 208L528.707 207.293L529.414 208L528.707 208.707L528 208ZM520.707 216.707L520 217.414L518.586 216L519.293 215.293L520.707 216.707ZM519.293 200.707L518.586 200L520 198.586L520.707 199.293L519.293 200.707ZM518 207L528 207L528 209L518 209L518 207ZM528.707 208.707L520.707 216.707L519.293 215.293L527.293 207.293L528.707 208.707ZM527.293 208.707L519.293 200.707L520.707 199.293L528.707 207.293L527.293 208.707Z" fill="#D3D7E0"/>
    <path d="M103.12 374H104.544V369.744H107.912L109.976 374H111.608L109.384 369.432C110.688 368.888 111.368 367.632 111.368 366.112C111.368 364.28 110.384 362.832 108.52 362.544C108.224 362.496 107.896 362.48 107.672 362.48H103.12V374ZM104.544 368.392V363.832H107.624C107.824 363.832 108.104 363.848 108.344 363.904C109.448 364.152 109.912 365.152 109.912 366.112C109.912 367.072 109.448 368.072 108.344 368.32C108.104 368.376 107.824 368.392 107.624 368.392H104.544ZM113.05 373.992H120.706V372.632H115.242L118.954 369.296C120.138 368.248 120.706 367.488 120.706 365.976C120.706 363.856 119.09 362.24 116.954 362.24C114.738 362.24 113.106 363.784 113.106 365.952H114.562C114.546 364.696 115.554 363.6 116.93 363.6C118.258 363.6 119.25 364.632 119.25 365.96C119.25 366.688 119.018 367.352 118.17 368.112L113.058 372.712L113.05 373.992Z" fill="white"/>
    <rect x="96" y="356" width="32" height="24" rx="1" stroke="#D3D7E0" stroke-width="2"/>
    <path d="M294.5 368H128" stroke="#D3D7E0" stroke-width="2"/>
    <rect width="57" height="20" transform="translate(294.5 358)" fill="#1D1D29"/>
    <path d="M303.171 374.224C305.307 374.224 306.931 372.664 306.931 370.456C306.931 368.44 305.651 366.944 303.667 366.832L306.779 363.848V362.48H299.987V363.84H305.011L301.267 367.224L301.955 368.352C302.315 368.168 302.755 368.048 303.147 368.048C304.531 368.048 305.467 369.032 305.467 370.456C305.467 371.864 304.563 372.84 303.163 372.864C302.139 372.88 301.243 372.312 300.899 371.24L299.531 371.632C300.019 373.232 301.459 374.224 303.171 374.224ZM312.899 374.24C315.139 374.24 316.787 372.592 316.787 370.352V366.128C316.787 363.888 315.139 362.24 312.899 362.24C310.659 362.24 309.011 363.888 309.011 366.128V370.352C309.011 372.592 310.659 374.24 312.899 374.24ZM310.459 370.432V366.04C310.459 364.688 311.547 363.6 312.899 363.6C314.251 363.6 315.339 364.688 315.339 366.04V370.432C315.339 371.784 314.251 372.872 312.899 372.872C311.547 372.872 310.459 371.784 310.459 370.432ZM322.914 374.24C325.154 374.24 326.802 372.592 326.802 370.352V366.128C326.802 363.888 325.154 362.24 322.914 362.24C320.674 362.24 319.026 363.888 319.026 366.128V370.352C319.026 372.592 320.674 374.24 322.914 374.24ZM320.474 370.432V366.04C320.474 364.688 321.562 363.6 322.914 363.6C324.266 363.6 325.354 364.688 325.354 366.04V370.432C325.354 371.784 324.266 372.872 322.914 372.872C321.562 372.872 320.474 371.784 320.474 370.432ZM333.01 374.24C335.426 374.24 336.882 372.264 336.882 369.672C336.882 367.08 335.418 365.12 333.018 365.12C331.938 365.12 331.082 365.496 330.466 366.144V362.48H329.034V374H330.306V373.024C330.938 373.784 331.842 374.24 333.01 374.24ZM330.306 369.672C330.306 367.76 331.106 366.424 332.794 366.424C334.554 366.424 335.37 367.848 335.37 369.672C335.37 371.512 334.538 372.936 332.834 372.936C331.09 372.936 330.306 371.568 330.306 369.672ZM342.604 374.24C345.02 374.24 346.476 372.264 346.476 369.672C346.476 367.08 345.012 365.12 342.612 365.12C341.436 365.12 340.532 365.568 339.9 366.328V365.36H338.628V377.84H340.06V373.2C340.676 373.856 341.532 374.24 342.604 374.24ZM339.9 369.672C339.9 367.76 340.7 366.424 342.388 366.424C344.148 366.424 344.964 367.848 344.964 369.672C344.964 371.512 344.132 372.936 342.428 372.936C340.684 372.936 339.9 371.568 339.9 369.672Z" fill="white"/>
    <path d="M518 368H351.5" stroke="#D3D7E0" stroke-width="2"/>
    <path d="M528 368L528.707 367.293L529.414 368L528.707 368.707L528 368ZM520.707 376.707L520 377.414L518.586 376L519.293 375.293L520.707 376.707ZM519.293 360.707L518.586 360L520 358.586L520.707 359.293L519.293 360.707ZM518 367L528 367L528 369L518 369L518 367ZM528.707 368.707L520.707 376.707L519.293 375.293L527.293 367.293L528.707 368.707ZM527.293 368.707L519.293 360.707L520.707 359.293L528.707 367.293L527.293 368.707Z" fill="#D3D7E0"/>
    <defs>
        <filter id="filter0_i_5913_39316" x="95" y="267" width="66" height="54" filterUnits="userSpaceOnUse" color-interpolation-filters="sRGB">
            <feFlood flood-opacity="0" result="BackgroundImageFix"/>
            <feBlend mode="normal" in="SourceGraphic" in2="BackgroundImageFix" result="shape"/>
            <feColorMatrix in="SourceAlpha" type="matrix" values="0 0 0 0 0 0 0 0 0 0 0 0 0 0 0 0 0 0 127 0" result="hardAlpha"/>
            <feOffset dx="-8" dy="-4"/>
            <feComposite in2="hardAlpha" operator="arithmetic" k2="-1" k3="1"/>
            <feColorMatrix type="matrix" values="0 0 0 0 0.0666667 0 0 0 0 0.0196078 0 0 0 0 0.160784 0 0 0 0.16 0"/>
            <feBlend mode="normal" in2="shape" result="effect1_innerShadow_5913_39316"/>
        </filter>
        <filter id="filter1_i_5913_39316" x="159" y="267" width="54" height="54" filterUnits="userSpaceOnUse" color-interpolation-filters="sRGB">
            <feFlood flood-opacity="0" result="BackgroundImageFix"/>
            <feBlend mode="normal" in="SourceGraphic" in2="BackgroundImageFix" result="shape"/>
            <feColorMatrix in="SourceAlpha" type="matrix" values="0 0 0 0 0 0 0 0 0 0 0 0 0 0 0 0 0 0 127 0" result="hardAlpha"/>
            <feOffset dx="-8" dy="-4"/>
            <feComposite in2="hardAlpha" operator="arithmetic" k2="-1" k3="1"/>
            <feColorMatrix type="matrix" values="0 0 0 0 0.0666667 0 0 0 0 0.0196078 0 0 0 0 0.160784 0 0 0 0.16 0"/>
            <feBlend mode="normal" in2="shape" result="effect1_innerShadow_5913_39316"/>
        </filter>
        <filter id="filter2_i_5913_39316" x="211" y="267" width="352" height="54" filterUnits="userSpaceOnUse" color-interpolation-filters="sRGB">
            <feFlood flood-opacity="0" result="BackgroundImageFix"/>
            <feBlend mode="normal" in="SourceGraphic" in2="BackgroundImageFix" result="shape"/>
            <feColorMatrix in="SourceAlpha" type="matrix" values="0 0 0 0 0 0 0 0 0 0 0 0 0 0 0 0 0 0 127 0" result="hardAlpha"/>
            <feOffset dx="-8" dy="-4"/>
            <feComposite in2="hardAlpha" operator="arithmetic" k2="-1" k3="1"/>
            <feColorMatrix type="matrix" values="0 0 0 0 0.0666667 0 0 0 0 0.0196078 0 0 0 0 0.160784 0 0 0 0.16 0"/>
            <feBlend mode="normal" in2="shape" result="effect1_innerShadow_5913_39316"/>
        </filter>
        <filter id="filter3_i_5913_39316" x="561" y="267" width="32" height="54" filterUnits="userSpaceOnUse" color-interpolation-filters="sRGB">
            <feFlood flood-opacity="0" result="BackgroundImageFix"/>
            <feBlend mode="normal" in="SourceGraphic" in2="BackgroundImageFix" result="shape"/>
            <feColorMatrix in="SourceAlpha" type="matrix" values="0 0 0 0 0 0 0 0 0 0 0 0 0 0 0 0 0 0 127 0" result="hardAlpha"/>
            <feOffset dx="-8" dy="-4"/>
            <feComposite in2="hardAlpha" operator="arithmetic" k2="-1" k3="1"/>
            <feColorMatrix type="matrix" values="0 0 0 0 0.0666667 0 0 0 0 0.0196078 0 0 0 0 0.160784 0 0 0 0.16 0"/>
            <feBlend mode="normal" in2="shape" result="effect1_innerShadow_5913_39316"/>
        </filter>
        <filter id="filter4_i_5913_39316" x="591" y="267" width="98" height="54" filterUnits="userSpaceOnUse" color-interpolation-filters="sRGB">
            <feFlood flood-opacity="0" result="BackgroundImageFix"/>
            <feBlend mode="normal" in="SourceGraphic" in2="BackgroundImageFix" result="shape"/>
            <feColorMatrix in="SourceAlpha" type="matrix" values="0 0 0 0 0 0 0 0 0 0 0 0 0 0 0 0 0 0 127 0" result="hardAlpha"/>
            <feOffset dx="-8" dy="-4"/>
            <feComposite in2="hardAlpha" operator="arithmetic" k2="-1" k3="1"/>
            <feColorMatrix type="matrix" values="0 0 0 0 0.0666667 0 0 0 0 0.0196078 0 0 0 0 0.160784 0 0 0 0.16 0"/>
            <feBlend mode="normal" in2="shape" result="effect1_innerShadow_5913_39316"/>
        </filter>
        <filter id="filter5_i_5913_39316" x="687" y="267" width="146" height="54" filterUnits="userSpaceOnUse" color-interpolation-filters="sRGB">
            <feFlood flood-opacity="0" result="BackgroundImageFix"/>
            <feBlend mode="normal" in="SourceGraphic" in2="BackgroundImageFix" result="shape"/>
            <feColorMatrix in="SourceAlpha" type="matrix" values="0 0 0 0 0 0 0 0 0 0 0 0 0 0 0 0 0 0 127 0" result="hardAlpha"/>
            <feOffset dx="-8" dy="-4"/>
            <feComposite in2="hardAlpha" operator="arithmetic" k2="-1" k3="1"/>
            <feColorMatrix type="matrix" values="0 0 0 0 0.0666667 0 0 0 0 0.0196078 0 0 0 0 0.160784 0 0 0 0.16 0"/>
            <feBlend mode="normal" in2="shape" result="effect1_innerShadow_5913_39316"/>
        </filter>
        <filter id="filter6_i_5913_39316" x="95" y="107" width="66" height="54" filterUnits="userSpaceOnUse" color-interpolation-filters="sRGB">
            <feFlood flood-opacity="0" result="BackgroundImageFix"/>
            <feBlend mode="normal" in="SourceGraphic" in2="BackgroundImageFix" result="shape"/>
            <feColorMatrix in="SourceAlpha" type="matrix" values="0 0 0 0 0 0 0 0 0 0 0 0 0 0 0 0 0 0 127 0" result="hardAlpha"/>
            <feOffset dx="-8" dy="-4"/>
            <feComposite in2="hardAlpha" operator="arithmetic" k2="-1" k3="1"/>
            <feColorMatrix type="matrix" values="0 0 0 0 0.0666667 0 0 0 0 0.0196078 0 0 0 0 0.160784 0 0 0 0.16 0"/>
            <feBlend mode="normal" in2="shape" result="effect1_innerShadow_5913_39316"/>
        </filter>
        <filter id="filter7_i_5913_39316" x="159" y="107" width="54" height="54" filterUnits="userSpaceOnUse" color-interpolation-filters="sRGB">
            <feFlood flood-opacity="0" result="BackgroundImageFix"/>
            <feBlend mode="normal" in="SourceGraphic" in2="BackgroundImageFix" result="shape"/>
            <feColorMatrix in="SourceAlpha" type="matrix" values="0 0 0 0 0 0 0 0 0 0 0 0 0 0 0 0 0 0 127 0" result="hardAlpha"/>
            <feOffset dx="-8" dy="-4"/>
            <feComposite in2="hardAlpha" operator="arithmetic" k2="-1" k3="1"/>
            <feColorMatrix type="matrix" values="0 0 0 0 0.0666667 0 0 0 0 0.0196078 0 0 0 0 0.160784 0 0 0 0.16 0"/>
            <feBlend mode="normal" in2="shape" result="effect1_innerShadow_5913_39316"/>
        </filter>
        <filter id="filter8_i_5913_39316" x="211" y="107" width="352" height="54" filterUnits="userSpaceOnUse" color-interpolation-filters="sRGB">
            <feFlood flood-opacity="0" result="BackgroundImageFix"/>
            <feBlend mode="normal" in="SourceGraphic" in2="BackgroundImageFix" result="shape"/>
            <feColorMatrix in="SourceAlpha" type="matrix" values="0 0 0 0 0 0 0 0 0 0 0 0 0 0 0 0 0 0 127 0" result="hardAlpha"/>
            <feOffset dx="-8" dy="-4"/>
            <feComposite in2="hardAlpha" operator="arithmetic" k2="-1" k3="1"/>
            <feColorMatrix type="matrix" values="0 0 0 0 0.0666667 0 0 0 0 0.0196078 0 0 0 0 0.160784 0 0 0 0.16 0"/>
            <feBlend mode="normal" in2="shape" result="effect1_innerShadow_5913_39316"/>
        </filter>
        <filter id="filter9_i_5913_39316" x="561" y="107" width="32" height="54" filterUnits="userSpaceOnUse" color-interpolation-filters="sRGB">
            <feFlood flood-opacity="0" result="BackgroundImageFix"/>
            <feBlend mode="normal" in="SourceGraphic" in2="BackgroundImageFix" result="shape"/>
            <feColorMatrix in="SourceAlpha" type="matrix" values="0 0 0 0 0 0 0 0 0 0 0 0 0 0 0 0 0 0 127 0" result="hardAlpha"/>
            <feOffset dx="-8" dy="-4"/>
            <feComposite in2="hardAlpha" operator="arithmetic" k2="-1" k3="1"/>
            <feColorMatrix type="matrix" values="0 0 0 0 0.0666667 0 0 0 0 0.0196078 0 0 0 0 0.160784 0 0 0 0.16 0"/>
            <feBlend mode="normal" in2="shape" result="effect1_innerShadow_5913_39316"/>
        </filter>
        <filter id="filter10_i_5913_39316" x="627" y="107" width="32" height="54" filterUnits="userSpaceOnUse" color-interpolation-filters="sRGB">
            <feFlood flood-opacity="0" result="BackgroundImageFix"/>
            <feBlend mode="normal" in="SourceGraphic" in2="BackgroundImageFix" result="shape"/>
            <feColorMatrix in="SourceAlpha" type="matrix" values="0 0 0 0 0 0 0 0 0 0 0 0 0 0 0 0 0 0 127 0" result="hardAlpha"/>
            <feOffset dx="-8" dy="-4"/>
            <feComposite in2="hardAlpha" operator="arithmetic" k2="-1" k3="1"/>
            <feColorMatrix type="matrix" values="0 0 0 0 0.0666667 0 0 0 0 0.0196078 0 0 0 0 0.160784 0 0 0 0.16 0"/>
            <feBlend mode="normal" in2="shape" result="effect1_innerShadow_5913_39316"/>
        </filter>
        <filter id="filter11_i_5913_39316" x="591" y="107" width="38" height="54" filterUnits="userSpaceOnUse" color-interpolation-filters="sRGB">
            <feFlood flood-opacity="0" result="BackgroundImageFix"/>
            <feBlend mode="normal" in="SourceGraphic" in2="BackgroundImageFix" result="shape"/>
            <feColorMatrix in="SourceAlpha" type="matrix" values="0 0 0 0 0 0 0 0 0 0 0 0 0 0 0 0 0 0 127 0" result="hardAlpha"/>
            <feOffset dx="-8" dy="-4"/>
            <feComposite in2="hardAlpha" operator="arithmetic" k2="-1" k3="1"/>
            <feColorMatrix type="matrix" values="0 0 0 0 0.0666667 0 0 0 0 0.0196078 0 0 0 0 0.160784 0 0 0 0.16 0"/>
            <feBlend mode="normal" in2="shape" result="effect1_innerShadow_5913_39316"/>
        </filter>
        <filter id="filter12_i_5913_39316" x="657" y="107" width="98" height="54" filterUnits="userSpaceOnUse" color-interpolation-filters="sRGB">
            <feFlood flood-opacity="0" result="BackgroundImageFix"/>
            <feBlend mode="normal" in="SourceGraphic" in2="BackgroundImageFix" result="shape"/>
            <feColorMatrix in="SourceAlpha" type="matrix" values="0 0 0 0 0 0 0 0 0 0 0 0 0 0 0 0 0 0 127 0" result="hardAlpha"/>
            <feOffset dx="-8" dy="-4"/>
            <feComposite in2="hardAlpha" operator="arithmetic" k2="-1" k3="1"/>
            <feColorMatrix type="matrix" values="0 0 0 0 0.0666667 0 0 0 0 0.0196078 0 0 0 0 0.160784 0 0 0 0.16 0"/>
            <feBlend mode="normal" in2="shape" result="effect1_innerShadow_5913_39316"/>
        </filter>
        <filter id="filter13_i_5913_39316" x="753" y="107" width="146" height="54" filterUnits="userSpaceOnUse" color-interpolation-filters="sRGB">
            <feFlood flood-opacity="0" result="BackgroundImageFix"/>
            <feBlend mode="normal" in="SourceGraphic" in2="BackgroundImageFix" result="shape"/>
            <feColorMatrix in="SourceAlpha" type="matrix" values="0 0 0 0 0 0 0 0 0 0 0 0 0 0 0 0 0 0 127 0" result="hardAlpha"/>
            <feOffset dx="-8" dy="-4"/>
            <feComposite in2="hardAlpha" operator="arithmetic" k2="-1" k3="1"/>
            <feColorMatrix type="matrix" values="0 0 0 0 0.0666667 0 0 0 0 0.0196078 0 0 0 0 0.160784 0 0 0 0.16 0"/>
            <feBlend mode="normal" in2="shape" result="effect1_innerShadow_5913_39316"/>
        </filter>
    </defs>
</svg>
