<svg width="960" height="192" viewBox="0 0 960 192" fill="none" xmlns="http://www.w3.org/2000/svg">
<rect width="960" height="192" fill="white"/>
<path d="M514.682 37.21C517.006 37.21 518.567 35.943 519.162 33.955L517.678 33.556C517.279 34.963 516.278 35.817 514.682 35.817C512.54 35.817 511.448 34.27 511.462 31.96C511.469 29.65 512.54 28.103 514.682 28.103C516.278 28.103 517.279 28.957 517.678 30.364L519.162 29.965C518.567 27.977 517.006 26.71 514.682 26.71C511.658 26.71 509.915 28.845 509.915 31.96C509.915 35.075 511.658 37.21 514.682 37.21ZM520.702 37H523.859C524.041 37 524.643 37 525.112 36.937C527.478 36.636 528.738 34.529 528.738 31.96C528.738 29.391 527.478 27.284 525.112 26.983C524.643 26.92 524.041 26.92 523.859 26.92H520.702V37ZM522.2 35.607V28.313H523.859C524.167 28.313 524.671 28.32 525.007 28.383C526.519 28.663 527.184 30.189 527.184 31.96C527.184 33.689 526.547 35.243 525.007 35.537C524.671 35.6 524.181 35.607 523.859 35.607H522.2ZM530.368 37H531.831V33.381H534.505L536.262 37H537.935L536.031 33.094C537.172 32.597 537.746 31.491 537.746 30.147C537.746 28.516 536.906 27.235 535.219 26.976C534.953 26.934 534.638 26.92 534.442 26.92H530.368V37ZM531.831 31.995V28.299H534.386C534.568 28.299 534.813 28.313 535.023 28.369C535.919 28.579 536.255 29.405 536.255 30.147C536.255 30.889 535.919 31.715 535.023 31.932C534.813 31.981 534.568 31.995 534.386 31.995H531.831ZM542.294 37.189C544.177 37.189 545.661 35.796 545.661 33.871C545.661 32.233 544.653 30.924 543.022 30.707L545.514 28.313V26.92H539.452V28.313H543.722L540.642 31.036L541.328 32.191C541.615 32.037 541.958 31.939 542.28 31.939C543.4 31.939 544.163 32.751 544.163 33.871C544.163 34.984 543.4 35.789 542.294 35.803C541.468 35.81 540.733 35.341 540.467 34.466L539.053 34.858C539.48 36.293 540.796 37.189 542.294 37.189Z" fill="#D3D7E0"/>
<path d="M58.9984 114H60.7784V99.6H58.9984V114ZM69.6089 114.3C73.8189 114.3 76.0589 111.39 76.0589 107.44C76.0589 107.32 76.0489 106.87 76.0189 106.59H71.0789V108.06H74.1389C73.9189 110.93 72.4789 112.62 69.6989 112.6C66.4789 112.58 64.8489 110.25 64.8689 106.8C64.8889 103.35 66.4789 100.99 69.6989 101.01C71.7489 101.02 73.1389 102.14 73.7489 103.88L75.5489 103.51C74.7989 100.92 72.8289 99.31 69.6089 99.31C65.5789 99.31 62.9789 102.21 62.9789 106.8C62.9789 111.44 65.6389 114.3 69.6089 114.3ZM78.0563 114H79.8363V107.64H87.4163V114H89.1963V99.6H87.4163V105.95H79.8363V99.6H78.0563V114Z" fill="#110529"/>
<path d="M146.703 37H148.166V32.695H151.834V31.225H148.166V28.383H152.674V26.92H146.703V37ZM153.935 37H155.398V33.381H158.072L159.829 37H161.502L159.598 33.094C160.739 32.597 161.313 31.491 161.313 30.147C161.313 28.516 160.473 27.235 158.786 26.976C158.52 26.934 158.205 26.92 158.009 26.92H153.935V37ZM155.398 31.995V28.299H157.953C158.135 28.299 158.38 28.313 158.59 28.369C159.486 28.579 159.822 29.405 159.822 30.147C159.822 30.889 159.486 31.715 158.59 31.932C158.38 31.981 158.135 31.995 157.953 31.995H155.398ZM162.761 36.993H169.579V35.6H165.022L167.941 32.996C169.033 32.037 169.579 31.407 169.579 30.028C169.579 28.117 168.144 26.71 166.24 26.71C164.231 26.71 162.796 28.047 162.796 30H164.294C164.28 28.985 165.092 28.103 166.212 28.103C167.297 28.103 168.074 28.929 168.074 30.007C168.074 30.581 167.864 31.127 167.157 31.757L162.768 35.691L162.761 36.993Z" fill="#D3D7E0"/>
<path d="M222 112V24" stroke="#D3D7E0" stroke-width="2" stroke-linecap="square" stroke-dasharray="6 6"/>
<path d="M267.58 37.21C269.904 37.21 271.465 35.943 272.06 33.955L270.576 33.556C270.177 34.963 269.176 35.817 267.58 35.817C265.438 35.817 264.346 34.27 264.36 31.96C264.367 29.65 265.438 28.103 267.58 28.103C269.176 28.103 270.177 28.957 270.576 30.364L272.06 29.965C271.465 27.977 269.904 26.71 267.58 26.71C264.556 26.71 262.813 28.845 262.813 31.96C262.813 35.075 264.556 37.21 267.58 37.21ZM273.599 37H276.756C276.938 37 277.54 37 278.009 36.937C280.375 36.636 281.635 34.529 281.635 31.96C281.635 29.391 280.375 27.284 278.009 26.983C277.54 26.92 276.938 26.92 276.756 26.92H273.599V37ZM275.097 35.607V28.313H276.756C277.064 28.313 277.568 28.32 277.904 28.383C279.416 28.663 280.081 30.189 280.081 31.96C280.081 33.689 279.444 35.243 277.904 35.537C277.568 35.6 277.078 35.607 276.756 35.607H275.097ZM283.265 37H284.728V33.381H287.402L289.159 37H290.832L288.928 33.094C290.069 32.597 290.643 31.491 290.643 30.147C290.643 28.516 289.803 27.235 288.116 26.976C287.85 26.934 287.535 26.92 287.339 26.92H283.265V37ZM284.728 31.995V28.299H287.283C287.465 28.299 287.71 28.313 287.92 28.369C288.816 28.579 289.152 29.405 289.152 30.147C289.152 30.889 288.816 31.715 287.92 31.932C287.71 31.981 287.465 31.995 287.283 31.995H284.728ZM292.091 36.993H298.909V35.6H294.352L297.271 32.996C298.363 32.037 298.909 31.407 298.909 30.028C298.909 28.117 297.474 26.71 295.57 26.71C293.561 26.71 292.126 28.047 292.126 30H293.624C293.61 28.985 294.422 28.103 295.542 28.103C296.627 28.103 297.404 28.929 297.404 30.007C297.404 30.581 297.194 31.127 296.487 31.757L292.098 35.691L292.091 36.993Z" fill="#D3D7E0"/>
<path d="M340 112V24" stroke="#D3D7E0" stroke-width="2" stroke-linecap="square" stroke-dasharray="6 6"/>
<path d="M392.805 37H394.268V32.695H397.936V31.225H394.268V28.383H398.776V26.92H392.805V37ZM400.038 37H401.501V33.381H404.175L405.932 37H407.605L405.701 33.094C406.842 32.597 407.416 31.491 407.416 30.147C407.416 28.516 406.576 27.235 404.889 26.976C404.623 26.934 404.308 26.92 404.112 26.92H400.038V37ZM401.501 31.995V28.299H404.056C404.238 28.299 404.483 28.313 404.693 28.369C405.589 28.579 405.925 29.405 405.925 30.147C405.925 30.889 405.589 31.715 404.693 31.932C404.483 31.981 404.238 31.995 404.056 31.995H401.501ZM411.964 37.189C413.847 37.189 415.331 35.796 415.331 33.871C415.331 32.233 414.323 30.924 412.692 30.707L415.184 28.313V26.92H409.122V28.313H413.392L410.312 31.036L410.998 32.191C411.285 32.037 411.628 31.939 411.95 31.939C413.07 31.939 413.833 32.751 413.833 33.871C413.833 34.984 413.07 35.789 411.964 35.803C411.138 35.81 410.403 35.341 410.137 34.466L408.723 34.858C409.15 36.293 410.466 37.189 411.964 37.189Z" fill="#D3D7E0"/>
<path d="M468 112V24" stroke="#D3D7E0" stroke-width="2" stroke-linecap="square" stroke-dasharray="6 6"/>
<path d="M363.209 114H365.792L370.813 99H368.896L364.48 112.021L360.126 99H358.188L363.209 114Z" fill="#110529"/>
<path d="M588 112V24" stroke="#D3D7E0" stroke-width="2" stroke-linecap="square" stroke-dasharray="6 6"/>
<g filter="url(#filter0_i_6281_38335)">
<path fill-rule="evenodd" clip-rule="evenodd" d="M133.6 80H125L120 86.5L125 93L120 99.5L125 106L120 112L125 119L120 125.5L125 132H133.6H134H478.4C478.96 132 479.24 132 479.454 131.891C479.642 131.795 479.795 131.642 479.891 131.454C480 131.24 480 130.96 480 130.4V125.5V119V112V106V99.5V93V86.5V81.6C480 81.0399 480 80.7599 479.891 80.546C479.795 80.3578 479.642 80.2049 479.454 80.109C479.24 80 478.96 80 478.4 80H134H133.6Z" fill="#99E099"/>
</g>
<path d="M125 80V79H124.508L124.207 79.3903L125 80ZM120 86.5L119.207 85.8903L118.738 86.5L119.207 87.1097L120 86.5ZM125 93L125.793 93.6097L126.262 93L125.793 92.3903L125 93ZM120 99.5L119.207 98.8903L118.738 99.5L119.207 100.11L120 99.5ZM125 106L125.768 106.64L126.281 106.025L125.793 105.39L125 106ZM120 112L119.232 111.36L118.737 111.953L119.186 112.581L120 112ZM125 119L125.793 119.61L126.245 119.022L125.814 118.419L125 119ZM120 125.5L119.207 124.89L118.738 125.5L119.207 126.11L120 125.5ZM125 132L124.207 132.61L124.508 133H125V132ZM479.454 131.891L479 131L479 131L479.454 131.891ZM479.891 131.454L480.782 131.908L480.782 131.908L479.891 131.454ZM479.891 80.546L480.782 80.0921L480.782 80.092L479.891 80.546ZM479.454 80.109L479 81L479 81L479.454 80.109ZM125 81H133.6V79H125V81ZM120.793 87.1097L125.793 80.6097L124.207 79.3903L119.207 85.8903L120.793 87.1097ZM125.793 92.3903L120.793 85.8903L119.207 87.1097L124.207 93.6097L125.793 92.3903ZM120.793 100.11L125.793 93.6097L124.207 92.3903L119.207 98.8903L120.793 100.11ZM125.793 105.39L120.793 98.8903L119.207 100.11L124.207 106.61L125.793 105.39ZM120.768 112.64L125.768 106.64L124.232 105.36L119.232 111.36L120.768 112.64ZM125.814 118.419L120.814 111.419L119.186 112.581L124.186 119.581L125.814 118.419ZM120.793 126.11L125.793 119.61L124.207 118.39L119.207 124.89L120.793 126.11ZM125.793 131.39L120.793 124.89L119.207 126.11L124.207 132.61L125.793 131.39ZM133.6 131H125V133H133.6V131ZM133.6 133H134V131H133.6V133ZM134 133H478.4V131H134V133ZM478.4 133C478.664 133 478.921 133.001 479.138 132.983C479.367 132.964 479.637 132.92 479.908 132.782L479 131C479.057 130.971 479.08 130.981 478.975 130.99C478.859 130.999 478.697 131 478.4 131V133ZM479.908 132.782C480.284 132.59 480.59 132.284 480.782 131.908L479 131L479 131L479.908 132.782ZM480.782 131.908C480.92 131.637 480.964 131.367 480.983 131.138C481.001 130.921 481 130.664 481 130.4H479C479 130.697 478.999 130.859 478.99 130.975C478.981 131.08 478.971 131.058 479 131L480.782 131.908ZM481 130.4V125.5H479V130.4H481ZM481 125.5V119H479V125.5H481ZM481 119V112H479V119H481ZM481 112V106H479V112H481ZM481 106V99.5H479V106H481ZM481 99.5V93H479V99.5H481ZM481 93V86.5H479V93H481ZM481 86.5V81.6H479V86.5H481ZM481 81.6C481 81.3365 481.001 81.0787 480.983 80.8618C480.964 80.6332 480.92 80.3635 480.782 80.0921L479 80.9999C478.971 80.9424 478.981 80.9197 478.99 81.0246C478.999 81.1412 479 81.3035 479 81.6H481ZM480.782 80.092C480.59 79.7157 480.284 79.4097 479.908 79.218L479 81L479 81L480.782 80.092ZM479.908 79.218C479.637 79.0797 479.367 79.0356 479.138 79.0169C478.921 78.9992 478.664 79 478.4 79V81C478.697 81 478.859 81.0008 478.975 81.0103C479.08 81.0189 479.057 81.0293 479 81L479.908 79.218ZM478.4 79H134V81H478.4V79ZM134 79H133.6V81H134V79Z" fill="#110529"/>
<path d="M300.758 114H303.238L308.058 99.6H306.208L301.978 112.11L297.788 99.6H295.938L300.758 114Z" fill="#110529"/>
<g filter="url(#filter1_i_6281_38335)">
<rect x="480" y="80" width="30" height="52" rx="1" fill="#CBEB67"/>
</g>
<rect x="480" y="80" width="30" height="52" rx="1" stroke="#110529" stroke-width="2" stroke-linecap="round"/>
<g filter="url(#filter2_i_6281_38335)">
<rect x="546" y="80" width="30" height="52" rx="1" fill="#FAAAFA"/>
</g>
<rect x="546" y="80" width="30" height="52" rx="1" stroke="#110529" stroke-width="2" stroke-linecap="round"/>
<g filter="url(#filter3_i_6281_38335)">
<rect x="510" y="80" width="36" height="52" rx="1" fill="#FFCB8F"/>
</g>
<rect x="510" y="80" width="36" height="52" rx="1" stroke="#110529" stroke-width="2" stroke-linecap="round"/>
<path d="M489.447 114H491.247V102.74L498.757 114H500.557V99.6H498.757V110.85L491.247 99.6H489.447V114Z" fill="#110529"/>
<path d="M555.447 114H557.247V102.74L564.757 114H566.557V99.6H564.757V110.85L557.247 99.6H555.447V114Z" fill="#110529"/>
<path d="M522.593 114H527.033C527.303 114 528.183 114 528.853 113.91C532.183 113.47 533.913 110.48 533.913 106.8C533.913 103.13 532.183 100.13 528.853 99.69C528.173 99.6 527.313 99.6 527.033 99.6H522.593V114ZM524.423 112.3V101.3H527.033C527.513 101.3 528.233 101.32 528.703 101.41C531.033 101.83 532.023 104.08 532.023 106.8C532.023 109.47 531.063 111.76 528.703 112.19C528.233 112.28 527.533 112.3 527.033 112.3H524.423Z" fill="#110529"/>
<g filter="url(#filter4_i_6281_38335)">
<path d="M716 132L577.6 132C577.04 132 576.76 132 576.546 131.891C576.358 131.795 576.205 131.642 576.109 131.454C576 131.24 576 130.96 576 130.4V106V81.6C576 81.0399 576 80.7599 576.109 80.546C576.205 80.3578 576.358 80.2049 576.546 80.109C576.76 80 577.04 80 577.6 80L716 80L711 86.5L716 93L711 100L716 106L711 112.5L716 119L711 125.5L716 132Z" fill="#C1ADFF"/>
</g>
<path d="M716 132L577.6 132C577.04 132 576.76 132 576.546 131.891C576.358 131.795 576.205 131.642 576.109 131.454C576 131.24 576 130.96 576 130.4V106V81.6C576 81.0399 576 80.7599 576.109 80.546C576.205 80.3578 576.358 80.2049 576.546 80.109C576.76 80 577.04 80 577.6 80L716 80L711 86.5L716 93L711 100L716 106L711 112.5L716 119L711 125.5L716 132Z" stroke="#110529" stroke-width="2" stroke-linecap="round"/>
<path d="M643.744 114.29C645.194 114.29 646.454 113.7 647.184 112.43C647.714 111.51 647.654 110.72 647.654 109.48V99.6H645.854V109.48C645.854 110.37 645.854 110.99 645.594 111.51C645.204 112.29 644.384 112.6 643.704 112.6C642.634 112.6 641.724 111.83 641.514 110.85L639.744 111.27C640.254 113.11 641.724 114.29 643.744 114.29Z" fill="#110529"/>
<path d="M170 156L169.293 156.707L168.586 156L169.293 155.293L170 156ZM177.293 147.293L178 146.586L179.414 148L178.707 148.707L177.293 147.293ZM178.707 163.293L179.414 164L178 165.414L177.293 164.707L178.707 163.293ZM180 157L170 157L170 155L180 155L180 157ZM169.293 155.293L177.293 147.293L178.707 148.707L170.707 156.707L169.293 155.293ZM170.707 155.293L178.707 163.293L177.293 164.707L169.293 156.707L170.707 155.293Z" fill="#110529"/>
<path d="M403.5 156H180" stroke="#110529" stroke-width="2"/>
<rect width="57" height="20" transform="translate(403.5 146)" fill="white"/>
<path d="M408.933 161.992H416.589V160.632H411.125L414.837 157.296C416.021 156.248 416.589 155.488 416.589 153.976C416.589 151.856 414.973 150.24 412.837 150.24C410.621 150.24 408.989 151.784 408.989 153.952H410.445C410.429 152.696 411.437 151.6 412.813 151.6C414.141 151.6 415.133 152.632 415.133 153.96C415.133 154.688 414.901 155.352 414.053 156.112L408.941 160.712L408.933 161.992ZM421.911 162.24C424.055 162.24 425.871 160.504 425.871 158.376C425.871 156.232 424.247 154.584 422.111 154.584C421.335 154.584 420.559 154.848 419.959 155.328L420.167 151.832H425.071V150.48H418.887L418.535 156.504L419.799 156.984C420.215 156.384 420.935 155.896 421.951 155.896C423.295 155.896 424.439 156.984 424.439 158.376C424.439 159.728 423.351 160.856 421.951 160.856C420.879 160.856 419.839 160.144 419.551 159.008L418.183 159.376C418.647 161.056 420.127 162.24 421.911 162.24ZM431.672 162.24C433.912 162.24 435.56 160.592 435.56 158.352V154.128C435.56 151.888 433.912 150.24 431.672 150.24C429.432 150.24 427.784 151.888 427.784 154.128V158.352C427.784 160.592 429.432 162.24 431.672 162.24ZM429.232 158.432V154.04C429.232 152.688 430.32 151.6 431.672 151.6C433.024 151.6 434.112 152.688 434.112 154.04V158.432C434.112 159.784 433.024 160.872 431.672 160.872C430.32 160.872 429.232 159.784 429.232 158.432ZM441.768 162.24C444.184 162.24 445.64 160.264 445.64 157.672C445.64 155.08 444.176 153.12 441.776 153.12C440.696 153.12 439.84 153.496 439.224 154.144V150.48H437.792V162H439.064V161.024C439.696 161.784 440.6 162.24 441.768 162.24ZM439.064 157.672C439.064 155.76 439.864 154.424 441.552 154.424C443.312 154.424 444.128 155.848 444.128 157.672C444.128 159.512 443.296 160.936 441.592 160.936C439.848 160.936 439.064 159.568 439.064 157.672ZM451.361 162.24C453.777 162.24 455.233 160.264 455.233 157.672C455.233 155.08 453.769 153.12 451.369 153.12C450.193 153.12 449.289 153.568 448.657 154.328V153.36H447.385V165.84H448.817V161.2C449.433 161.856 450.289 162.24 451.361 162.24ZM448.657 157.672C448.657 155.76 449.457 154.424 451.145 154.424C452.905 154.424 453.721 155.848 453.721 157.672C453.721 159.512 452.889 160.936 451.185 160.936C449.441 160.936 448.657 159.568 448.657 157.672Z" fill="#110529"/>
<path d="M684 156H460.5" stroke="#110529" stroke-width="2"/>
<rect x="684" y="144" width="32" height="24" rx="1" fill="white"/>
<path d="M692.62 162H694.044V157.744H697.412L699.476 162H701.108L698.884 157.432C700.188 156.888 700.868 155.632 700.868 154.112C700.868 152.28 699.884 150.832 698.02 150.544C697.724 150.496 697.396 150.48 697.172 150.48H692.62V162ZM694.044 156.392V151.832H697.124C697.324 151.832 697.604 151.848 697.844 151.904C698.948 152.152 699.412 153.152 699.412 154.112C699.412 155.072 698.948 156.072 697.844 156.32C697.604 156.376 697.324 156.392 697.124 156.392H694.044ZM704.878 162H706.326V150.48H704.878L702.71 151.776V153.368L704.878 152.056V162Z" fill="#110529"/>
<rect x="684" y="144" width="32" height="24" rx="1" stroke="#110529" stroke-width="2"/>
<path d="M640.593 37H642.056V32.695H645.724V31.225H642.056V28.383H646.564V26.92H640.593V37ZM647.826 37H649.289V33.381H651.963L653.72 37H655.393L653.489 33.094C654.63 32.597 655.204 31.491 655.204 30.147C655.204 28.516 654.364 27.235 652.677 26.976C652.411 26.934 652.096 26.92 651.9 26.92H647.826V37ZM649.289 31.995V28.299H651.844C652.026 28.299 652.271 28.313 652.481 28.369C653.377 28.579 653.713 29.405 653.713 30.147C653.713 30.889 653.377 31.715 652.481 31.932C652.271 31.981 652.026 31.995 651.844 31.995H649.289ZM661.201 37H662.685V35.243H663.686V33.857H662.685V31.127H661.201V33.857H658.324L661.6 26.92H659.927L656.651 33.857V35.243H661.201V37Z" fill="#D3D7E0"/>
<defs>
<filter id="filter0_i_6281_38335" x="118.737" y="79" width="362.263" height="54" filterUnits="userSpaceOnUse" color-interpolation-filters="sRGB">
<feFlood flood-opacity="0" result="BackgroundImageFix"/>
<feBlend mode="normal" in="SourceGraphic" in2="BackgroundImageFix" result="shape"/>
<feColorMatrix in="SourceAlpha" type="matrix" values="0 0 0 0 0 0 0 0 0 0 0 0 0 0 0 0 0 0 127 0" result="hardAlpha"/>
<feOffset dx="-8" dy="-4"/>
<feComposite in2="hardAlpha" operator="arithmetic" k2="-1" k3="1"/>
<feColorMatrix type="matrix" values="0 0 0 0 0.0666667 0 0 0 0 0.0196078 0 0 0 0 0.160784 0 0 0 0.16 0"/>
<feBlend mode="normal" in2="shape" result="effect1_innerShadow_6281_38335"/>
</filter>
<filter id="filter1_i_6281_38335" x="479" y="79" width="32" height="54" filterUnits="userSpaceOnUse" color-interpolation-filters="sRGB">
<feFlood flood-opacity="0" result="BackgroundImageFix"/>
<feBlend mode="normal" in="SourceGraphic" in2="BackgroundImageFix" result="shape"/>
<feColorMatrix in="SourceAlpha" type="matrix" values="0 0 0 0 0 0 0 0 0 0 0 0 0 0 0 0 0 0 127 0" result="hardAlpha"/>
<feOffset dx="-8" dy="-4"/>
<feComposite in2="hardAlpha" operator="arithmetic" k2="-1" k3="1"/>
<feColorMatrix type="matrix" values="0 0 0 0 0.0666667 0 0 0 0 0.0196078 0 0 0 0 0.160784 0 0 0 0.16 0"/>
<feBlend mode="normal" in2="shape" result="effect1_innerShadow_6281_38335"/>
</filter>
<filter id="filter2_i_6281_38335" x="545" y="79" width="32" height="54" filterUnits="userSpaceOnUse" color-interpolation-filters="sRGB">
<feFlood flood-opacity="0" result="BackgroundImageFix"/>
<feBlend mode="normal" in="SourceGraphic" in2="BackgroundImageFix" result="shape"/>
<feColorMatrix in="SourceAlpha" type="matrix" values="0 0 0 0 0 0 0 0 0 0 0 0 0 0 0 0 0 0 127 0" result="hardAlpha"/>
<feOffset dx="-8" dy="-4"/>
<feComposite in2="hardAlpha" operator="arithmetic" k2="-1" k3="1"/>
<feColorMatrix type="matrix" values="0 0 0 0 0.0666667 0 0 0 0 0.0196078 0 0 0 0 0.160784 0 0 0 0.16 0"/>
<feBlend mode="normal" in2="shape" result="effect1_innerShadow_6281_38335"/>
</filter>
<filter id="filter3_i_6281_38335" x="509" y="79" width="38" height="54" filterUnits="userSpaceOnUse" color-interpolation-filters="sRGB">
<feFlood flood-opacity="0" result="BackgroundImageFix"/>
<feBlend mode="normal" in="SourceGraphic" in2="BackgroundImageFix" result="shape"/>
<feColorMatrix in="SourceAlpha" type="matrix" values="0 0 0 0 0 0 0 0 0 0 0 0 0 0 0 0 0 0 127 0" result="hardAlpha"/>
<feOffset dx="-8" dy="-4"/>
<feComposite in2="hardAlpha" operator="arithmetic" k2="-1" k3="1"/>
<feColorMatrix type="matrix" values="0 0 0 0 0.0666667 0 0 0 0 0.0196078 0 0 0 0 0.160784 0 0 0 0.16 0"/>
<feBlend mode="normal" in2="shape" result="effect1_innerShadow_6281_38335"/>
</filter>
<filter id="filter4_i_6281_38335" x="575" y="79" width="143.031" height="54" filterUnits="userSpaceOnUse" color-interpolation-filters="sRGB">
<feFlood flood-opacity="0" result="BackgroundImageFix"/>
<feBlend mode="normal" in="SourceGraphic" in2="BackgroundImageFix" result="shape"/>
<feColorMatrix in="SourceAlpha" type="matrix" values="0 0 0 0 0 0 0 0 0 0 0 0 0 0 0 0 0 0 127 0" result="hardAlpha"/>
<feOffset dx="-8" dy="-4"/>
<feComposite in2="hardAlpha" operator="arithmetic" k2="-1" k3="1"/>
<feColorMatrix type="matrix" values="0 0 0 0 0.0666667 0 0 0 0 0.0196078 0 0 0 0 0.160784 0 0 0 0.16 0"/>
<feBlend mode="normal" in2="shape" result="effect1_innerShadow_6281_38335"/>
</filter>
</defs>
</svg>
