<svg width="960" height="192" viewBox="0 0 960 192" fill="none" xmlns="http://www.w3.org/2000/svg">
<rect width="960" height="192" fill="#1D1D29"/>
<path d="M354.805 37H356.268V32.695H359.936V31.225H356.268V28.383H360.776V26.92H354.805V37ZM362.038 37H363.501V33.381H366.175L367.932 37H369.605L367.701 33.094C368.842 32.597 369.416 31.491 369.416 30.147C369.416 28.516 368.576 27.235 366.889 26.976C366.623 26.934 366.308 26.92 366.112 26.92H362.038V37ZM363.501 31.995V28.299H366.056C366.238 28.299 366.483 28.313 366.693 28.369C367.589 28.579 367.925 29.405 367.925 30.147C367.925 30.889 367.589 31.715 366.693 31.932C366.483 31.981 366.238 31.995 366.056 31.995H363.501ZM373.964 37.189C375.847 37.189 377.331 35.796 377.331 33.871C377.331 32.233 376.323 30.924 374.692 30.707L377.184 28.313V26.92H371.122V28.313H375.392L372.312 31.036L372.998 32.191C373.285 32.037 373.628 31.939 373.95 31.939C375.07 31.939 375.833 32.751 375.833 33.871C375.833 34.984 375.07 35.789 373.964 35.803C373.138 35.81 372.403 35.341 372.137 34.466L370.723 34.858C371.15 36.293 372.466 37.189 373.964 37.189Z" fill="white" fill-opacity="0.3"/>
<path d="M498.682 37.21C501.006 37.21 502.567 35.943 503.162 33.955L501.678 33.556C501.279 34.963 500.278 35.817 498.682 35.817C496.54 35.817 495.448 34.27 495.462 31.96C495.469 29.65 496.54 28.103 498.682 28.103C500.278 28.103 501.279 28.957 501.678 30.364L503.162 29.965C502.567 27.977 501.006 26.71 498.682 26.71C495.658 26.71 493.915 28.845 493.915 31.96C493.915 35.075 495.658 37.21 498.682 37.21ZM504.702 37H507.859C508.041 37 508.643 37 509.112 36.937C511.478 36.636 512.738 34.529 512.738 31.96C512.738 29.391 511.478 27.284 509.112 26.983C508.643 26.92 508.041 26.92 507.859 26.92H504.702V37ZM506.2 35.607V28.313H507.859C508.167 28.313 508.671 28.32 509.007 28.383C510.519 28.663 511.184 30.189 511.184 31.96C511.184 33.689 510.547 35.243 509.007 35.537C508.671 35.6 508.181 35.607 507.859 35.607H506.2ZM514.368 37H515.831V33.381H518.505L520.262 37H521.935L520.031 33.094C521.172 32.597 521.746 31.491 521.746 30.147C521.746 28.516 520.906 27.235 519.219 26.976C518.953 26.934 518.638 26.92 518.442 26.92H514.368V37ZM515.831 31.995V28.299H518.386C518.568 28.299 518.813 28.313 519.023 28.369C519.919 28.579 520.255 29.405 520.255 30.147C520.255 30.889 519.919 31.715 519.023 31.932C518.813 31.981 518.568 31.995 518.386 31.995H515.831ZM526.294 37.189C528.177 37.189 529.661 35.796 529.661 33.871C529.661 32.233 528.653 30.924 527.022 30.707L529.514 28.313V26.92H523.452V28.313H527.722L524.642 31.036L525.328 32.191C525.615 32.037 525.958 31.939 526.28 31.939C527.4 31.939 528.163 32.751 528.163 33.871C528.163 34.984 527.4 35.789 526.294 35.803C525.468 35.81 524.733 35.341 524.467 34.466L523.053 34.858C523.48 36.293 524.796 37.189 526.294 37.189Z" fill="white" fill-opacity="0.3"/>
<path d="M168.998 114H170.778V99.6H168.998V114ZM179.609 114.3C183.819 114.3 186.059 111.39 186.059 107.44C186.059 107.32 186.049 106.87 186.019 106.59H181.079V108.06H184.139C183.919 110.93 182.479 112.62 179.699 112.6C176.479 112.58 174.849 110.25 174.869 106.8C174.889 103.35 176.479 100.99 179.699 101.01C181.749 101.02 183.139 102.14 183.749 103.88L185.549 103.51C184.799 100.92 182.829 99.31 179.609 99.31C175.579 99.31 172.979 102.21 172.979 106.8C172.979 111.44 175.639 114.3 179.609 114.3ZM188.056 114H189.836V107.64H197.416V114H199.196V99.6H197.416V105.95H189.836V99.6H188.056V114Z" fill="white"/>
<path d="M452 112V24" stroke="white" stroke-opacity="0.3" stroke-width="2" stroke-linecap="square" stroke-dasharray="6 6"/>
<path d="M363.209 114H365.792L370.813 99H368.896L364.48 112.021L360.126 99H358.188L363.209 114Z" fill="#110529"/>
<path d="M572 112V24" stroke="white" stroke-opacity="0.3" stroke-width="2" stroke-linecap="square" stroke-dasharray="6 6"/>
<g filter="url(#filter0_i_6281_38743)">
<path fill-rule="evenodd" clip-rule="evenodd" d="M257.6 80H249L244 86.5L249 93L244 99.5L249 106L244 112L249 119L244 125.5L249 132H257.6H258H462.4C462.96 132 463.24 132 463.454 131.891C463.642 131.795 463.795 131.642 463.891 131.454C464 131.24 464 130.96 464 130.4V125.5V119V112V106V99.5V93V86.5V81.6C464 81.0399 464 80.7599 463.891 80.546C463.795 80.3578 463.642 80.2049 463.454 80.109C463.24 80 462.96 80 462.4 80H258H257.6Z" fill="#99E099"/>
</g>
<path d="M249 80V79H248.508L248.207 79.3903L249 80ZM244 86.5L243.207 85.8903L242.738 86.5L243.207 87.1097L244 86.5ZM249 93L249.793 93.6097L250.262 93L249.793 92.3903L249 93ZM244 99.5L243.207 98.8903L242.738 99.5L243.207 100.11L244 99.5ZM249 106L249.768 106.64L250.281 106.025L249.793 105.39L249 106ZM244 112L243.232 111.36L242.737 111.953L243.186 112.581L244 112ZM249 119L249.793 119.61L250.245 119.022L249.814 118.419L249 119ZM244 125.5L243.207 124.89L242.738 125.5L243.207 126.11L244 125.5ZM249 132L248.207 132.61L248.508 133H249V132ZM463.454 131.891L463.908 132.782L463.908 132.782L463.454 131.891ZM463.891 131.454L463 131L463.891 131.454ZM463.891 80.546L463 81V81L463.891 80.546ZM463.454 80.109L463.908 79.218V79.218L463.454 80.109ZM249 81H257.6V79H249V81ZM244.793 87.1097L249.793 80.6097L248.207 79.3903L243.207 85.8903L244.793 87.1097ZM249.793 92.3903L244.793 85.8903L243.207 87.1097L248.207 93.6097L249.793 92.3903ZM244.793 100.11L249.793 93.6097L248.207 92.3903L243.207 98.8903L244.793 100.11ZM249.793 105.39L244.793 98.8903L243.207 100.11L248.207 106.61L249.793 105.39ZM244.768 112.64L249.768 106.64L248.232 105.36L243.232 111.36L244.768 112.64ZM249.814 118.419L244.814 111.419L243.186 112.581L248.186 119.581L249.814 118.419ZM244.793 126.11L249.793 119.61L248.207 118.39L243.207 124.89L244.793 126.11ZM249.793 131.39L244.793 124.89L243.207 126.11L248.207 132.61L249.793 131.39ZM257.6 131H249V133H257.6V131ZM257.6 133H258V131H257.6V133ZM258 133H462.4V131H258V133ZM462.4 133C462.664 133 462.921 133.001 463.138 132.983C463.367 132.964 463.637 132.92 463.908 132.782L463 131C463.058 130.971 463.08 130.981 462.975 130.99C462.859 130.999 462.697 131 462.4 131V133ZM463.908 132.782C464.284 132.59 464.59 132.284 464.782 131.908L463 131L463 131L463.908 132.782ZM464.782 131.908C464.92 131.637 464.964 131.367 464.983 131.138C465.001 130.921 465 130.664 465 130.4H463C463 130.697 462.999 130.859 462.99 130.975C462.981 131.08 462.971 131.058 463 131L464.782 131.908ZM465 130.4V125.5H463V130.4H465ZM465 125.5V119H463V125.5H465ZM465 119V112H463V119H465ZM465 112V106H463V112H465ZM465 106V99.5H463V106H465ZM465 99.5V93H463V99.5H465ZM465 93V86.5H463V93H465ZM465 86.5V81.6H463V86.5H465ZM465 81.6C465 81.3365 465.001 81.0787 464.983 80.8618C464.964 80.6332 464.92 80.3634 464.782 80.092L463 81C462.971 80.9425 462.981 80.9197 462.99 81.0246C462.999 81.1412 463 81.3035 463 81.6H465ZM464.782 80.092C464.59 79.7157 464.284 79.4097 463.908 79.218L463 81V81L464.782 80.092ZM463.908 79.218C463.637 79.0797 463.367 79.0356 463.138 79.0169C462.921 78.9992 462.664 79 462.4 79V81C462.697 81 462.859 81.0008 462.975 81.0103C463.08 81.0189 463.058 81.0293 463 81L463.908 79.218ZM462.4 79H258V81H462.4V79ZM258 79H257.6V81H258V79Z" fill="#110529"/>
<path d="M354.758 114L349.938 99.6H351.788L355.978 112.11L360.208 99.6H362.058L357.238 114H354.758Z" fill="#110529"/>
<g filter="url(#filter1_i_6281_38743)">
<rect x="464" y="80" width="30" height="52" rx="1" fill="#CBEB67"/>
</g>
<rect x="464" y="80" width="30" height="52" rx="1" stroke="#110529" stroke-width="2" stroke-linecap="round"/>
<g filter="url(#filter2_i_6281_38743)">
<rect x="530" y="80" width="30" height="52" rx="1" fill="#FAAAFA"/>
</g>
<rect x="530" y="80" width="30" height="52" rx="1" stroke="#110529" stroke-width="2" stroke-linecap="round"/>
<g filter="url(#filter3_i_6281_38743)">
<rect x="494" y="80" width="36" height="52" rx="1" fill="#FFCB8F"/>
</g>
<rect x="494" y="80" width="36" height="52" rx="1" stroke="#110529" stroke-width="2" stroke-linecap="round"/>
<path d="M473.447 114V99.6H475.247L482.757 110.85V99.6H484.557V114H482.757L475.247 102.74V114H473.447Z" fill="#110529"/>
<path d="M539.447 114V99.6H541.247L548.757 110.85V99.6H550.557V114H548.757L541.247 102.74V114H539.447Z" fill="#110529"/>
<path d="M506.593 114V99.6H511.033C511.18 99.6 511.437 99.6033 511.803 99.61C512.17 99.6167 512.52 99.6433 512.853 99.69C513.967 99.8367 514.897 100.243 515.643 100.91C516.397 101.57 516.963 102.41 517.343 103.43C517.723 104.45 517.913 105.573 517.913 106.8C517.913 108.027 517.723 109.15 517.343 110.17C516.963 111.19 516.397 112.033 515.643 112.7C514.897 113.36 513.967 113.763 512.853 113.91C512.52 113.95 512.167 113.977 511.793 113.99C511.427 113.997 511.173 114 511.033 114H506.593ZM508.423 112.3H511.033C511.287 112.3 511.57 112.293 511.883 112.28C512.197 112.26 512.47 112.23 512.703 112.19C513.49 112.043 514.127 111.713 514.613 111.2C515.1 110.687 515.457 110.047 515.683 109.28C515.91 108.513 516.023 107.687 516.023 106.8C516.023 105.893 515.907 105.057 515.673 104.29C515.447 103.523 515.09 102.887 514.603 102.38C514.117 101.873 513.483 101.55 512.703 101.41C512.47 101.363 512.193 101.333 511.873 101.32C511.553 101.307 511.273 101.3 511.033 101.3H508.423V112.3Z" fill="#110529"/>
<g filter="url(#filter4_i_6281_38743)">
<path d="M700 132L561.6 132C561.04 132 560.76 132 560.546 131.891C560.358 131.795 560.205 131.642 560.109 131.454C560 131.24 560 130.96 560 130.4V106V81.6C560 81.0399 560 80.7599 560.109 80.546C560.205 80.3578 560.358 80.2049 560.546 80.109C560.76 80 561.04 80 561.6 80L700 80L695 86.5L700 93L695 100L700 106L695 112.5L700 119L695 125.5L700 132Z" fill="#C1ADFF"/>
</g>
<path d="M700 132L561.6 132C561.04 132 560.76 132 560.546 131.891C560.358 131.795 560.205 131.642 560.109 131.454C560 131.24 560 130.96 560 130.4V106V81.6C560 81.0399 560 80.7599 560.109 80.546C560.205 80.3578 560.358 80.2049 560.546 80.109C560.76 80 561.04 80 561.6 80L700 80L695 86.5L700 93L695 100L700 106L695 112.5L700 119L695 125.5L700 132Z" stroke="#110529" stroke-width="2" stroke-linecap="round"/>
<path d="M627.744 114.29C629.194 114.29 630.454 113.7 631.184 112.43C631.714 111.51 631.654 110.72 631.654 109.48V99.6H629.854V109.48C629.854 110.37 629.854 110.99 629.594 111.51C629.204 112.29 628.384 112.6 627.704 112.6C626.634 112.6 625.724 111.83 625.514 110.85L623.744 111.27C624.254 113.11 625.724 114.29 627.744 114.29Z" fill="#110529"/>
<path d="M258 156L257.293 156.707L256.586 156L257.293 155.293L258 156ZM265.293 147.293L266 146.586L267.414 148L266.707 148.707L265.293 147.293ZM266.707 163.293L267.414 164L266 165.414L265.293 164.707L266.707 163.293ZM268 157L258 157L258 155L268 155L268 157ZM257.293 155.293L265.293 147.293L266.707 148.707L258.707 156.707L257.293 155.293ZM258.707 155.293L266.707 163.293L265.293 164.707L257.293 156.707L258.707 155.293Z" fill="#D3D7E0"/>
<path d="M439.5 156H268" stroke="#D3D7E0" stroke-width="2"/>
<rect width="57" height="20" transform="translate(439.5 146)" fill="#1D1D29"/>
<path d="M450.026 162H451.474V150.48H450.026L447.858 151.776V153.368L450.026 152.056V162ZM456.526 162H457.974V150.48H456.526L454.358 151.776V153.368L456.526 152.056V162ZM464.906 162.24C467.146 162.24 468.794 160.592 468.794 158.352V154.128C468.794 151.888 467.146 150.24 464.906 150.24C462.666 150.24 461.018 151.888 461.018 154.128V158.352C461.018 160.592 462.666 162.24 464.906 162.24ZM462.466 158.432V154.04C462.466 152.688 463.554 151.6 464.906 151.6C466.258 151.6 467.346 152.688 467.346 154.04V158.432C467.346 159.784 466.258 160.872 464.906 160.872C463.554 160.872 462.466 159.784 462.466 158.432ZM475.002 162.24C477.418 162.24 478.874 160.264 478.874 157.672C478.874 155.08 477.41 153.12 475.01 153.12C473.93 153.12 473.074 153.496 472.458 154.144V150.48H471.026V162H472.298V161.024C472.93 161.784 473.834 162.24 475.002 162.24ZM472.298 157.672C472.298 155.76 473.098 154.424 474.786 154.424C476.546 154.424 477.362 155.848 477.362 157.672C477.362 159.512 476.53 160.936 474.826 160.936C473.082 160.936 472.298 159.568 472.298 157.672ZM484.596 162.24C487.012 162.24 488.468 160.264 488.468 157.672C488.468 155.08 487.004 153.12 484.604 153.12C483.428 153.12 482.524 153.568 481.892 154.328V153.36H480.62V165.84H482.052V161.2C482.668 161.856 483.524 162.24 484.596 162.24ZM481.892 157.672C481.892 155.76 482.692 154.424 484.38 154.424C486.14 154.424 486.956 155.848 486.956 157.672C486.956 159.512 486.124 160.936 484.42 160.936C482.676 160.936 481.892 159.568 481.892 157.672Z" fill="white"/>
<path d="M668 156H496.5" stroke="#D3D7E0" stroke-width="2"/>
<path d="M676.62 162H678.044V157.744H681.412L683.476 162H685.108L682.884 157.432C684.188 156.888 684.868 155.632 684.868 154.112C684.868 152.28 683.884 150.832 682.02 150.544C681.724 150.496 681.396 150.48 681.172 150.48H676.62V162ZM678.044 156.392V151.832H681.124C681.324 151.832 681.604 151.848 681.844 151.904C682.948 152.152 683.412 153.152 683.412 154.112C683.412 155.072 682.948 156.072 681.844 156.32C681.604 156.376 681.324 156.392 681.124 156.392H678.044ZM688.878 162H690.326V150.48H688.878L686.71 151.776V153.368L688.878 152.056V162Z" fill="white"/>
<rect x="668" y="144" width="32" height="24" rx="1" stroke="#D3D7E0" stroke-width="2"/>
<path d="M624.593 37H626.056V32.695H629.724V31.225H626.056V28.383H630.564V26.92H624.593V37ZM631.826 37H633.289V33.381H635.963L637.72 37H639.393L637.489 33.094C638.63 32.597 639.204 31.491 639.204 30.147C639.204 28.516 638.364 27.235 636.677 26.976C636.411 26.934 636.096 26.92 635.9 26.92H631.826V37ZM633.289 31.995V28.299H635.844C636.026 28.299 636.271 28.313 636.481 28.369C637.377 28.579 637.713 29.405 637.713 30.147C637.713 30.889 637.377 31.715 636.481 31.932C636.271 31.981 636.026 31.995 635.844 31.995H633.289ZM645.201 37H646.685V35.243H647.686V33.857H646.685V31.127H645.201V33.857H642.324L645.6 26.92H643.927L640.651 33.857V35.243H645.201V37Z" fill="white" fill-opacity="0.3"/>
<defs>
<filter id="filter0_i_6281_38743" x="242.737" y="79" width="222.263" height="54" filterUnits="userSpaceOnUse" color-interpolation-filters="sRGB">
<feFlood flood-opacity="0" result="BackgroundImageFix"/>
<feBlend mode="normal" in="SourceGraphic" in2="BackgroundImageFix" result="shape"/>
<feColorMatrix in="SourceAlpha" type="matrix" values="0 0 0 0 0 0 0 0 0 0 0 0 0 0 0 0 0 0 127 0" result="hardAlpha"/>
<feOffset dx="-8" dy="-4"/>
<feComposite in2="hardAlpha" operator="arithmetic" k2="-1" k3="1"/>
<feColorMatrix type="matrix" values="0 0 0 0 0.0666667 0 0 0 0 0.0196078 0 0 0 0 0.160784 0 0 0 0.16 0"/>
<feBlend mode="normal" in2="shape" result="effect1_innerShadow_6281_38743"/>
</filter>
<filter id="filter1_i_6281_38743" x="463" y="79" width="32" height="54" filterUnits="userSpaceOnUse" color-interpolation-filters="sRGB">
<feFlood flood-opacity="0" result="BackgroundImageFix"/>
<feBlend mode="normal" in="SourceGraphic" in2="BackgroundImageFix" result="shape"/>
<feColorMatrix in="SourceAlpha" type="matrix" values="0 0 0 0 0 0 0 0 0 0 0 0 0 0 0 0 0 0 127 0" result="hardAlpha"/>
<feOffset dx="-8" dy="-4"/>
<feComposite in2="hardAlpha" operator="arithmetic" k2="-1" k3="1"/>
<feColorMatrix type="matrix" values="0 0 0 0 0.0666667 0 0 0 0 0.0196078 0 0 0 0 0.160784 0 0 0 0.16 0"/>
<feBlend mode="normal" in2="shape" result="effect1_innerShadow_6281_38743"/>
</filter>
<filter id="filter2_i_6281_38743" x="529" y="79" width="32" height="54" filterUnits="userSpaceOnUse" color-interpolation-filters="sRGB">
<feFlood flood-opacity="0" result="BackgroundImageFix"/>
<feBlend mode="normal" in="SourceGraphic" in2="BackgroundImageFix" result="shape"/>
<feColorMatrix in="SourceAlpha" type="matrix" values="0 0 0 0 0 0 0 0 0 0 0 0 0 0 0 0 0 0 127 0" result="hardAlpha"/>
<feOffset dx="-8" dy="-4"/>
<feComposite in2="hardAlpha" operator="arithmetic" k2="-1" k3="1"/>
<feColorMatrix type="matrix" values="0 0 0 0 0.0666667 0 0 0 0 0.0196078 0 0 0 0 0.160784 0 0 0 0.16 0"/>
<feBlend mode="normal" in2="shape" result="effect1_innerShadow_6281_38743"/>
</filter>
<filter id="filter3_i_6281_38743" x="493" y="79" width="38" height="54" filterUnits="userSpaceOnUse" color-interpolation-filters="sRGB">
<feFlood flood-opacity="0" result="BackgroundImageFix"/>
<feBlend mode="normal" in="SourceGraphic" in2="BackgroundImageFix" result="shape"/>
<feColorMatrix in="SourceAlpha" type="matrix" values="0 0 0 0 0 0 0 0 0 0 0 0 0 0 0 0 0 0 127 0" result="hardAlpha"/>
<feOffset dx="-8" dy="-4"/>
<feComposite in2="hardAlpha" operator="arithmetic" k2="-1" k3="1"/>
<feColorMatrix type="matrix" values="0 0 0 0 0.0666667 0 0 0 0 0.0196078 0 0 0 0 0.160784 0 0 0 0.16 0"/>
<feBlend mode="normal" in2="shape" result="effect1_innerShadow_6281_38743"/>
</filter>
<filter id="filter4_i_6281_38743" x="559" y="79" width="143.031" height="54" filterUnits="userSpaceOnUse" color-interpolation-filters="sRGB">
<feFlood flood-opacity="0" result="BackgroundImageFix"/>
<feBlend mode="normal" in="SourceGraphic" in2="BackgroundImageFix" result="shape"/>
<feColorMatrix in="SourceAlpha" type="matrix" values="0 0 0 0 0 0 0 0 0 0 0 0 0 0 0 0 0 0 127 0" result="hardAlpha"/>
<feOffset dx="-8" dy="-4"/>
<feComposite in2="hardAlpha" operator="arithmetic" k2="-1" k3="1"/>
<feColorMatrix type="matrix" values="0 0 0 0 0.0666667 0 0 0 0 0.0196078 0 0 0 0 0.160784 0 0 0 0.16 0"/>
<feBlend mode="normal" in2="shape" result="effect1_innerShadow_6281_38743"/>
</filter>
</defs>
</svg>
