<svg width="960" height="192" viewBox="0 0 960 192" fill="none" xmlns="http://www.w3.org/2000/svg">
    <rect width="960" height="192" fill="#1D1D29"/>
    <path d="M554.682 37.21C557.006 37.21 558.567 35.943 559.162 33.955L557.678 33.556C557.279 34.963 556.278 35.817 554.682 35.817C552.54 35.817 551.448 34.27 551.462 31.96C551.469 29.65 552.54 28.103 554.682 28.103C556.278 28.103 557.279 28.957 557.678 30.364L559.162 29.965C558.567 27.977 557.006 26.71 554.682 26.71C551.658 26.71 549.915 28.845 549.915 31.96C549.915 35.075 551.658 37.21 554.682 37.21ZM560.702 37H563.859C564.041 37 564.643 37 565.112 36.937C567.478 36.636 568.738 34.529 568.738 31.96C568.738 29.391 567.478 27.284 565.112 26.983C564.643 26.92 564.041 26.92 563.859 26.92H560.702V37ZM562.2 35.607V28.313H563.859C564.167 28.313 564.671 28.32 565.007 28.383C566.519 28.663 567.184 30.189 567.184 31.96C567.184 33.689 566.547 35.243 565.007 35.537C564.671 35.6 564.181 35.607 563.859 35.607H562.2ZM570.368 37H571.831V33.381H574.505L576.262 37H577.935L576.031 33.094C577.172 32.597 577.746 31.491 577.746 30.147C577.746 28.516 576.906 27.235 575.219 26.976C574.953 26.934 574.638 26.92 574.442 26.92H570.368V37ZM571.831 31.995V28.299H574.386C574.568 28.299 574.813 28.313 575.023 28.369C575.919 28.579 576.255 29.405 576.255 30.147C576.255 30.889 575.919 31.715 575.023 31.932C574.813 31.981 574.568 31.995 574.386 31.995H571.831ZM582.294 37.189C584.177 37.189 585.661 35.796 585.661 33.871C585.661 32.233 584.653 30.924 583.022 30.707L585.514 28.313V26.92H579.452V28.313H583.722L580.642 31.036L581.328 32.191C581.615 32.037 581.958 31.939 582.28 31.939C583.4 31.939 584.163 32.751 584.163 33.871C584.163 34.984 583.4 35.789 582.294 35.803C581.468 35.81 580.733 35.341 580.467 34.466L579.053 34.858C579.48 36.293 580.796 37.189 582.294 37.189Z" fill="white" fill-opacity="0.3"/>
    <path d="M628 112V24" stroke="white" stroke-opacity="0.3" stroke-width="2" stroke-linecap="square" stroke-dasharray="6 6"/>
    <path d="M682.593 37H684.056V32.695H687.724V31.225H684.056V28.383H688.564V26.92H682.593V37ZM689.826 37H691.289V33.381H693.963L695.72 37H697.393L695.489 33.094C696.63 32.597 697.204 31.491 697.204 30.147C697.204 28.516 696.364 27.235 694.677 26.976C694.411 26.934 694.096 26.92 693.9 26.92H689.826V37ZM691.289 31.995V28.299H693.844C694.026 28.299 694.271 28.313 694.481 28.369C695.377 28.579 695.713 29.405 695.713 30.147C695.713 30.889 695.377 31.715 694.481 31.932C694.271 31.981 694.026 31.995 693.844 31.995H691.289ZM703.201 37H704.685V35.243H705.686V33.857H704.685V31.127H703.201V33.857H700.324L703.6 26.92H701.927L698.651 33.857V35.243H703.201V37Z" fill="white" fill-opacity="0.3"/>
    <path d="M137.858 37H139.321V32.695H142.989V31.225H139.321V28.383H143.829V26.92H137.858V37ZM145.09 37H146.553V33.381H149.227L150.984 37H152.657L150.753 33.094C151.894 32.597 152.468 31.491 152.468 30.147C152.468 28.516 151.628 27.235 149.941 26.976C149.675 26.934 149.36 26.92 149.164 26.92H145.09V37ZM146.553 31.995V28.299H149.108C149.29 28.299 149.535 28.313 149.745 28.369C150.641 28.579 150.977 29.405 150.977 30.147C150.977 30.889 150.641 31.715 149.745 31.932C149.535 31.981 149.29 31.995 149.108 31.995H146.553ZM155.953 37H157.444V26.92H155.953L154.056 28.054V29.685L155.953 28.53V37Z" fill="white" fill-opacity="0.3"/>
    <path d="M188 112V24" stroke="white" stroke-opacity="0.3" stroke-width="2" stroke-linecap="square" stroke-dasharray="6 6"/>
    <path d="M215.735 37.21C218.059 37.21 219.62 35.943 220.215 33.955L218.731 33.556C218.332 34.963 217.331 35.817 215.735 35.817C213.593 35.817 212.501 34.27 212.515 31.96C212.522 29.65 213.593 28.103 215.735 28.103C217.331 28.103 218.332 28.957 218.731 30.364L220.215 29.965C219.62 27.977 218.059 26.71 215.735 26.71C212.711 26.71 210.968 28.845 210.968 31.96C210.968 35.075 212.711 37.21 215.735 37.21ZM221.754 37H224.911C225.093 37 225.695 37 226.164 36.937C228.53 36.636 229.79 34.529 229.79 31.96C229.79 29.391 228.53 27.284 226.164 26.983C225.695 26.92 225.093 26.92 224.911 26.92H221.754V37ZM223.252 35.607V28.313H224.911C225.219 28.313 225.723 28.32 226.059 28.383C227.571 28.663 228.236 30.189 228.236 31.96C228.236 33.689 227.599 35.243 226.059 35.537C225.723 35.6 225.233 35.607 224.911 35.607H223.252ZM231.42 37H232.883V33.381H235.557L237.314 37H238.987L237.083 33.094C238.224 32.597 238.798 31.491 238.798 30.147C238.798 28.516 237.958 27.235 236.271 26.976C236.005 26.934 235.69 26.92 235.494 26.92H231.42V37ZM232.883 31.995V28.299H235.438C235.62 28.299 235.865 28.313 236.075 28.369C236.971 28.579 237.307 29.405 237.307 30.147C237.307 30.889 236.971 31.715 236.075 31.932C235.865 31.981 235.62 31.995 235.438 31.995H232.883ZM242.283 37H243.774V26.92H242.283L240.386 28.054V29.685L242.283 28.53V37Z" fill="white" fill-opacity="0.3"/>
    <path d="M268 112V24" stroke="white" stroke-opacity="0.3" stroke-width="2" stroke-linecap="square" stroke-dasharray="6 6"/>
    <path d="M296.703 37H298.166V32.695H301.834V31.225H298.166V28.383H302.674V26.92H296.703V37ZM303.935 37H305.398V33.381H308.072L309.829 37H311.502L309.598 33.094C310.739 32.597 311.313 31.491 311.313 30.147C311.313 28.516 310.473 27.235 308.786 26.976C308.52 26.934 308.205 26.92 308.009 26.92H303.935V37ZM305.398 31.995V28.299H307.953C308.135 28.299 308.38 28.313 308.59 28.369C309.486 28.579 309.822 29.405 309.822 30.147C309.822 30.889 309.486 31.715 308.59 31.932C308.38 31.981 308.135 31.995 307.953 31.995H305.398ZM312.761 36.993H319.579V35.6H315.022L317.941 32.996C319.033 32.037 319.579 31.407 319.579 30.028C319.579 28.117 318.144 26.71 316.24 26.71C314.231 26.71 312.796 28.047 312.796 30H314.294C314.28 28.985 315.092 28.103 316.212 28.103C317.297 28.103 318.074 28.929 318.074 30.007C318.074 30.581 317.864 31.127 317.157 31.757L312.768 35.691L312.761 36.993Z" fill="white" fill-opacity="0.3"/>
    <path d="M348 112V24" stroke="white" stroke-opacity="0.3" stroke-width="2" stroke-linecap="square" stroke-dasharray="6 6"/>
    <path d="M374.58 37.21C376.904 37.21 378.465 35.943 379.06 33.955L377.576 33.556C377.177 34.963 376.176 35.817 374.58 35.817C372.438 35.817 371.346 34.27 371.36 31.96C371.367 29.65 372.438 28.103 374.58 28.103C376.176 28.103 377.177 28.957 377.576 30.364L379.06 29.965C378.465 27.977 376.904 26.71 374.58 26.71C371.556 26.71 369.813 28.845 369.813 31.96C369.813 35.075 371.556 37.21 374.58 37.21ZM380.599 37H383.756C383.938 37 384.54 37 385.009 36.937C387.375 36.636 388.635 34.529 388.635 31.96C388.635 29.391 387.375 27.284 385.009 26.983C384.54 26.92 383.938 26.92 383.756 26.92H380.599V37ZM382.097 35.607V28.313H383.756C384.064 28.313 384.568 28.32 384.904 28.383C386.416 28.663 387.081 30.189 387.081 31.96C387.081 33.689 386.444 35.243 384.904 35.537C384.568 35.6 384.078 35.607 383.756 35.607H382.097ZM390.265 37H391.728V33.381H394.402L396.159 37H397.832L395.928 33.094C397.069 32.597 397.643 31.491 397.643 30.147C397.643 28.516 396.803 27.235 395.116 26.976C394.85 26.934 394.535 26.92 394.339 26.92H390.265V37ZM391.728 31.995V28.299H394.283C394.465 28.299 394.71 28.313 394.92 28.369C395.816 28.579 396.152 29.405 396.152 30.147C396.152 30.889 395.816 31.715 394.92 31.932C394.71 31.981 394.465 31.995 394.283 31.995H391.728ZM399.091 36.993H405.909V35.6H401.352L404.271 32.996C405.363 32.037 405.909 31.407 405.909 30.028C405.909 28.117 404.474 26.71 402.57 26.71C400.561 26.71 399.126 28.047 399.126 30H400.624C400.61 28.985 401.422 28.103 402.542 28.103C403.627 28.103 404.404 28.929 404.404 30.007C404.404 30.581 404.194 31.127 403.487 31.757L399.098 35.691L399.091 36.993Z" fill="white" fill-opacity="0.3"/>
    <path d="M428 112V24" stroke="white" stroke-opacity="0.3" stroke-width="2" stroke-linecap="square" stroke-dasharray="6 6"/>
    <path d="M456.805 37H458.268V32.695H461.936V31.225H458.268V28.383H462.776V26.92H456.805V37ZM464.038 37H465.501V33.381H468.175L469.932 37H471.605L469.701 33.094C470.842 32.597 471.416 31.491 471.416 30.147C471.416 28.516 470.576 27.235 468.889 26.976C468.623 26.934 468.308 26.92 468.112 26.92H464.038V37ZM465.501 31.995V28.299H468.056C468.238 28.299 468.483 28.313 468.693 28.369C469.589 28.579 469.925 29.405 469.925 30.147C469.925 30.889 469.589 31.715 468.693 31.932C468.483 31.981 468.238 31.995 468.056 31.995H465.501ZM475.964 37.189C477.847 37.189 479.331 35.796 479.331 33.871C479.331 32.233 478.323 30.924 476.692 30.707L479.184 28.313V26.92H473.122V28.313H477.392L474.312 31.036L474.998 32.191C475.285 32.037 475.628 31.939 475.95 31.939C477.07 31.939 477.833 32.751 477.833 33.871C477.833 34.984 477.07 35.789 475.964 35.803C475.138 35.81 474.403 35.341 474.137 34.466L472.723 34.858C473.15 36.293 474.466 37.189 475.964 37.189Z" fill="white" fill-opacity="0.3"/>
    <path d="M508 112V24" stroke="white" stroke-opacity="0.3" stroke-width="2" stroke-linecap="square" stroke-dasharray="6 6"/>
    <g filter="url(#filter0_i_6281_38655)">
        <path fill-rule="evenodd" clip-rule="evenodd" d="M133.6 80H125L120 86.5L125 93L120 99.5L125 106L120 112L125 119L120 125.5L125 132H133.6H134H518.4C518.96 132 519.24 132 519.454 131.891C519.642 131.795 519.795 131.642 519.891 131.454C520 131.24 520 130.96 520 130.4V125.5V119V112V106V99.5V93V86.5V81.6C520 81.0399 520 80.7599 519.891 80.546C519.795 80.3578 519.642 80.2049 519.454 80.109C519.24 80 518.96 80 518.4 80H134H133.6Z" fill="#99E099"/>
    </g>
    <path d="M125 80V79H124.508L124.207 79.3903L125 80ZM120 86.5L119.207 85.8903L118.738 86.5L119.207 87.1097L120 86.5ZM125 93L125.793 93.6097L126.262 93L125.793 92.3903L125 93ZM120 99.5L119.207 98.8903L118.738 99.5L119.207 100.11L120 99.5ZM125 106L125.768 106.64L126.281 106.025L125.793 105.39L125 106ZM120 112L119.232 111.36L118.737 111.953L119.186 112.581L120 112ZM125 119L125.793 119.61L126.245 119.022L125.814 118.419L125 119ZM120 125.5L119.207 124.89L118.738 125.5L119.207 126.11L120 125.5ZM125 132L124.207 132.61L124.508 133H125V132ZM519.454 131.891L519 131L519 131L519.454 131.891ZM519.891 131.454L520.782 131.908L520.782 131.908L519.891 131.454ZM519.891 80.546L520.782 80.0921L520.782 80.092L519.891 80.546ZM519.454 80.109L519 81L519 81L519.454 80.109ZM125 81H133.6V79H125V81ZM120.793 87.1097L125.793 80.6097L124.207 79.3903L119.207 85.8903L120.793 87.1097ZM125.793 92.3903L120.793 85.8903L119.207 87.1097L124.207 93.6097L125.793 92.3903ZM120.793 100.11L125.793 93.6097L124.207 92.3903L119.207 98.8903L120.793 100.11ZM125.793 105.39L120.793 98.8903L119.207 100.11L124.207 106.61L125.793 105.39ZM120.768 112.64L125.768 106.64L124.232 105.36L119.232 111.36L120.768 112.64ZM125.814 118.419L120.814 111.419L119.186 112.581L124.186 119.581L125.814 118.419ZM120.793 126.11L125.793 119.61L124.207 118.39L119.207 124.89L120.793 126.11ZM125.793 131.39L120.793 124.89L119.207 126.11L124.207 132.61L125.793 131.39ZM133.6 131H125V133H133.6V131ZM133.6 133H134V131H133.6V133ZM134 133H518.4V131H134V133ZM518.4 133C518.664 133 518.921 133.001 519.138 132.983C519.367 132.964 519.637 132.92 519.908 132.782L519 131C519.057 130.971 519.08 130.981 518.975 130.99C518.859 130.999 518.697 131 518.4 131V133ZM519.908 132.782C520.284 132.59 520.59 132.284 520.782 131.908L519 131L519 131L519.908 132.782ZM520.782 131.908C520.92 131.637 520.964 131.367 520.983 131.138C521.001 130.921 521 130.664 521 130.4H519C519 130.697 518.999 130.859 518.99 130.975C518.981 131.08 518.971 131.058 519 131L520.782 131.908ZM521 130.4V125.5H519V130.4H521ZM521 125.5V119H519V125.5H521ZM521 119V112H519V119H521ZM521 112V106H519V112H521ZM521 106V99.5H519V106H521ZM521 99.5V93H519V99.5H521ZM521 93V86.5H519V93H521ZM521 86.5V81.6H519V86.5H521ZM521 81.6C521 81.3365 521.001 81.0787 520.983 80.8618C520.964 80.6332 520.92 80.3635 520.782 80.0921L519 80.9999C518.971 80.9424 518.981 80.9197 518.99 81.0246C518.999 81.1412 519 81.3035 519 81.6H521ZM520.782 80.092C520.59 79.7157 520.284 79.4097 519.908 79.218L519 81L519 81L520.782 80.092ZM519.908 79.218C519.637 79.0797 519.367 79.0356 519.138 79.0169C518.921 78.9992 518.664 79 518.4 79V81C518.697 81 518.859 81.0008 518.975 81.0103C519.08 81.0189 519.057 81.0293 519 81L519.908 79.218ZM518.4 79H134V81H518.4V79ZM134 79H133.6V81H134V79Z" fill="#110529"/>
    <path d="M320.758 114H323.238L328.058 99.6H326.208L321.978 112.11L317.788 99.6H315.938L320.758 114Z" fill="#110529"/>
    <g filter="url(#filter1_i_6281_38655)">
        <rect x="520" y="80" width="30" height="52" rx="1" fill="#CBEB67"/>
    </g>
    <rect x="520" y="80" width="30" height="52" rx="1" stroke="#110529" stroke-width="2" stroke-linecap="round"/>
    <g filter="url(#filter2_i_6281_38655)">
        <rect x="586" y="80" width="30" height="52" rx="1" fill="#FAAAFA"/>
    </g>
    <rect x="586" y="80" width="30" height="52" rx="1" stroke="#110529" stroke-width="2" stroke-linecap="round"/>
    <g filter="url(#filter3_i_6281_38655)">
        <rect x="550" y="80" width="36" height="52" rx="1" fill="#FFCB8F"/>
    </g>
    <rect x="550" y="80" width="36" height="52" rx="1" stroke="#110529" stroke-width="2" stroke-linecap="round"/>
    <path d="M529.447 114H531.247V102.74L538.757 114H540.557V99.6H538.757V110.85L531.247 99.6H529.447V114Z" fill="#110529"/>
    <path d="M595.447 114H597.247V102.74L604.757 114H606.557V99.6H604.757V110.85L597.247 99.6H595.447V114Z" fill="#110529"/>
    <path d="M562.593 114H567.033C567.303 114 568.183 114 568.853 113.91C572.183 113.47 573.913 110.48 573.913 106.8C573.913 103.13 572.183 100.13 568.853 99.69C568.173 99.6 567.313 99.6 567.033 99.6H562.593V114ZM564.423 112.3V101.3H567.033C567.513 101.3 568.233 101.32 568.703 101.41C571.033 101.83 572.023 104.08 572.023 106.8C572.023 109.47 571.063 111.76 568.703 112.19C568.233 112.28 567.533 112.3 567.033 112.3H564.423Z" fill="#110529"/>
    <g filter="url(#filter4_i_6281_38655)">
        <path fill-rule="evenodd" clip-rule="evenodd" d="M753.4 132H760L755 125.5L760 119L755 112L760 106L755 99.5L760 93L755 86.5L760 80H753.4H746H617.6C617.04 80 616.76 80 616.546 80.109C616.358 80.2049 616.205 80.3578 616.109 80.546C616 80.7599 616 81.0399 616 81.6V130.4C616 130.96 616 131.24 616.109 131.454C616.205 131.642 616.358 131.795 616.546 131.891C616.76 132 617.04 132 617.6 132H746H753.4Z" fill="#C1ADFF"/>
    </g>
    <path d="M760 132V133H762.031L760.793 131.39L760 132ZM755 125.5L754.207 124.89L753.738 125.5L754.207 126.11L755 125.5ZM760 119L760.793 119.61L761.245 119.022L760.814 118.419L760 119ZM755 112L754.232 111.36L753.737 111.953L754.186 112.581L755 112ZM760 106L760.768 106.64L761.281 106.025L760.793 105.39L760 106ZM755 99.5L754.207 98.8903L753.738 99.5L754.207 100.11L755 99.5ZM760 93L760.793 93.6097L761.262 93L760.793 92.3903L760 93ZM755 86.5L754.207 85.8903L753.738 86.5L754.207 87.1097L755 86.5ZM760 80L760.793 80.6097L762.031 79H760V80ZM616.546 80.109L616.092 79.218L616.092 79.218L616.546 80.109ZM616.109 80.546L617 81L617 81L616.109 80.546ZM616.109 131.454L615.218 131.908H615.218L616.109 131.454ZM616.546 131.891L616.092 132.782L616.092 132.782L616.546 131.891ZM753.4 133H760V131H753.4V133ZM760.793 131.39L755.793 124.89L754.207 126.11L759.207 132.61L760.793 131.39ZM755.793 126.11L760.793 119.61L759.207 118.39L754.207 124.89L755.793 126.11ZM760.814 118.419L755.814 111.419L754.186 112.581L759.186 119.581L760.814 118.419ZM755.768 112.64L760.768 106.64L759.232 105.36L754.232 111.36L755.768 112.64ZM760.793 105.39L755.793 98.8903L754.207 100.11L759.207 106.61L760.793 105.39ZM755.793 100.11L760.793 93.6097L759.207 92.3903L754.207 98.8903L755.793 100.11ZM760.793 92.3903L755.793 85.8903L754.207 87.1097L759.207 93.6097L760.793 92.3903ZM755.793 87.1097L760.793 80.6097L759.207 79.3903L754.207 85.8903L755.793 87.1097ZM760 79H753.4V81H760V79ZM753.4 79H746V81H753.4V79ZM746 79H617.6V81H746V79ZM617.6 79C617.336 79 617.079 78.9992 616.862 79.0169C616.633 79.0356 616.363 79.0797 616.092 79.218L617 81C616.942 81.0293 616.92 81.0189 617.025 81.0103C617.141 81.0008 617.303 81 617.6 81V79ZM616.092 79.218C615.716 79.4097 615.41 79.7157 615.218 80.092L617 81L616.092 79.218ZM615.218 80.092C615.08 80.3634 615.036 80.6332 615.017 80.8618C614.999 81.0787 615 81.3365 615 81.6H617C617 81.3035 617.001 81.1412 617.01 81.0246C617.019 80.9197 617.029 80.9425 617 81L615.218 80.092ZM615 81.6V130.4H617V81.6H615ZM615 130.4C615 130.664 614.999 130.921 615.017 131.138C615.036 131.367 615.08 131.637 615.218 131.908L617 131C617.029 131.058 617.019 131.08 617.01 130.975C617.001 130.859 617 130.697 617 130.4H615ZM615.218 131.908C615.41 132.284 615.716 132.59 616.092 132.782L617 131L617 131L615.218 131.908ZM616.092 132.782C616.363 132.92 616.633 132.964 616.862 132.983C617.079 133.001 617.336 133 617.6 133V131C617.303 131 617.141 130.999 617.025 130.99C616.92 130.981 616.942 130.971 617 131L616.092 132.782ZM617.6 133H746V131H617.6V133ZM746 133H753.4V131H746V133Z" fill="#110529"/>
    <g filter="url(#filter5_i_6281_38655)">
        <path fill-rule="evenodd" clip-rule="evenodd" d="M753.4 132H760L755 125.5L760 119L755 112L760 106L755 99.5L760 93L755 86.5L760 80H753.4H746H617.6C617.04 80 616.76 80 616.546 80.109C616.358 80.2049 616.205 80.3578 616.109 80.546C616 80.7599 616 81.0399 616 81.6V130.4C616 130.96 616 131.24 616.109 131.454C616.205 131.642 616.358 131.795 616.546 131.891C616.76 132 617.04 132 617.6 132H746H753.4Z" fill="#C1ADFF"/>
    </g>
    <path d="M760 132V133H762.031L760.793 131.39L760 132ZM755 125.5L754.207 124.89L753.738 125.5L754.207 126.11L755 125.5ZM760 119L760.793 119.61L761.245 119.022L760.814 118.419L760 119ZM755 112L754.232 111.36L753.737 111.953L754.186 112.581L755 112ZM760 106L760.768 106.64L761.281 106.025L760.793 105.39L760 106ZM755 99.5L754.207 98.8903L753.738 99.5L754.207 100.11L755 99.5ZM760 93L760.793 93.6097L761.262 93L760.793 92.3903L760 93ZM755 86.5L754.207 85.8903L753.738 86.5L754.207 87.1097L755 86.5ZM760 80L760.793 80.6097L762.031 79H760V80ZM616.546 80.109L616.092 79.218L616.092 79.218L616.546 80.109ZM616.109 80.546L617 81L617 81L616.109 80.546ZM616.109 131.454L615.218 131.908H615.218L616.109 131.454ZM616.546 131.891L616.092 132.782L616.092 132.782L616.546 131.891ZM753.4 133H760V131H753.4V133ZM760.793 131.39L755.793 124.89L754.207 126.11L759.207 132.61L760.793 131.39ZM755.793 126.11L760.793 119.61L759.207 118.39L754.207 124.89L755.793 126.11ZM760.814 118.419L755.814 111.419L754.186 112.581L759.186 119.581L760.814 118.419ZM755.768 112.64L760.768 106.64L759.232 105.36L754.232 111.36L755.768 112.64ZM760.793 105.39L755.793 98.8903L754.207 100.11L759.207 106.61L760.793 105.39ZM755.793 100.11L760.793 93.6097L759.207 92.3903L754.207 98.8903L755.793 100.11ZM760.793 92.3903L755.793 85.8903L754.207 87.1097L759.207 93.6097L760.793 92.3903ZM755.793 87.1097L760.793 80.6097L759.207 79.3903L754.207 85.8903L755.793 87.1097ZM760 79H753.4V81H760V79ZM753.4 79H746V81H753.4V79ZM746 79H617.6V81H746V79ZM617.6 79C617.336 79 617.079 78.9992 616.862 79.0169C616.633 79.0356 616.363 79.0797 616.092 79.218L617 81C616.942 81.0293 616.92 81.0189 617.025 81.0103C617.141 81.0008 617.303 81 617.6 81V79ZM616.092 79.218C615.716 79.4097 615.41 79.7157 615.218 80.092L617 81L616.092 79.218ZM615.218 80.092C615.08 80.3634 615.036 80.6332 615.017 80.8618C614.999 81.0787 615 81.3365 615 81.6H617C617 81.3035 617.001 81.1412 617.01 81.0246C617.019 80.9197 617.029 80.9425 617 81L615.218 80.092ZM615 81.6V130.4H617V81.6H615ZM615 130.4C615 130.664 614.999 130.921 615.017 131.138C615.036 131.367 615.08 131.637 615.218 131.908L617 131C617.029 131.058 617.019 131.08 617.01 130.975C617.001 130.859 617 130.697 617 130.4H615ZM615.218 131.908C615.41 132.284 615.716 132.59 616.092 132.782L617 131L617 131L615.218 131.908ZM616.092 132.782C616.363 132.92 616.633 132.964 616.862 132.983C617.079 133.001 617.336 133 617.6 133V131C617.303 131 617.141 130.999 617.025 130.99C616.92 130.981 616.942 130.971 617 131L616.092 132.782ZM617.6 133H746V131H617.6V133ZM746 133H753.4V131H746V133Z" fill="#110529"/>
    <path d="M687.244 114.29C688.694 114.29 689.954 113.7 690.684 112.43C691.214 111.51 691.154 110.72 691.154 109.48V99.6H689.354V109.48C689.354 110.37 689.354 110.99 689.094 111.51C688.704 112.29 687.884 112.6 687.204 112.6C686.134 112.6 685.224 111.83 685.014 110.85L683.244 111.27C683.754 113.11 685.224 114.29 687.244 114.29Z" fill="#110529"/>
    <path d="M44.9984 114H46.7784V99.6H44.9984V114ZM55.6089 114.3C59.8189 114.3 62.0589 111.39 62.0589 107.44C62.0589 107.32 62.0489 106.87 62.0189 106.59H57.0789V108.06H60.1389C59.9189 110.93 58.4789 112.62 55.6989 112.6C52.4789 112.58 50.8489 110.25 50.8689 106.8C50.8889 103.35 52.4789 100.99 55.6989 101.01C57.7489 101.02 59.1389 102.14 59.7489 103.88L61.5489 103.51C60.7989 100.92 58.8289 99.31 55.6089 99.31C51.5789 99.31 48.9789 102.21 48.9789 106.8C48.9789 111.44 51.6389 114.3 55.6089 114.3ZM64.0563 114H65.8363V107.64H73.4163V114H75.1963V99.6H73.4163V105.95H65.8363V99.6H64.0563V114Z" fill="white"/>
    <path d="M140 156L139.293 156.707L138.586 156L139.293 155.293L140 156ZM147.293 147.293L148 146.586L149.414 148L148.707 148.707L147.293 147.293ZM148.707 163.293L149.414 164L148 165.414L147.293 164.707L148.707 163.293ZM150 157L140 157L140 155L150 155L150 157ZM139.293 155.293L147.293 147.293L148.707 148.707L140.707 156.707L139.293 155.293ZM140.707 155.293L148.707 163.293L147.293 164.707L139.293 156.707L140.707 155.293Z" fill="#D3D7E0"/>
    <path d="M410.5 156H150" stroke="#D3D7E0" stroke-width="2"/>
    <rect width="57" height="20" transform="translate(410.5 146)" fill="#1D1D29"/>
    <path d="M419.171 162.224C421.307 162.224 422.931 160.664 422.931 158.456C422.931 156.44 421.651 154.944 419.667 154.832L422.779 151.848V150.48H415.987V151.84H421.011L417.267 155.224L417.955 156.352C418.315 156.168 418.755 156.048 419.147 156.048C420.531 156.048 421.467 157.032 421.467 158.456C421.467 159.864 420.563 160.84 419.163 160.864C418.139 160.88 417.243 160.312 416.899 159.24L415.531 159.632C416.019 161.232 417.459 162.224 419.171 162.224ZM428.899 162.24C431.139 162.24 432.787 160.592 432.787 158.352V154.128C432.787 151.888 431.139 150.24 428.899 150.24C426.659 150.24 425.011 151.888 425.011 154.128V158.352C425.011 160.592 426.659 162.24 428.899 162.24ZM426.459 158.432V154.04C426.459 152.688 427.547 151.6 428.899 151.6C430.251 151.6 431.339 152.688 431.339 154.04V158.432C431.339 159.784 430.251 160.872 428.899 160.872C427.547 160.872 426.459 159.784 426.459 158.432ZM438.914 162.24C441.154 162.24 442.802 160.592 442.802 158.352V154.128C442.802 151.888 441.154 150.24 438.914 150.24C436.674 150.24 435.026 151.888 435.026 154.128V158.352C435.026 160.592 436.674 162.24 438.914 162.24ZM436.474 158.432V154.04C436.474 152.688 437.562 151.6 438.914 151.6C440.266 151.6 441.354 152.688 441.354 154.04V158.432C441.354 159.784 440.266 160.872 438.914 160.872C437.562 160.872 436.474 159.784 436.474 158.432ZM449.01 162.24C451.426 162.24 452.882 160.264 452.882 157.672C452.882 155.08 451.418 153.12 449.018 153.12C447.938 153.12 447.082 153.496 446.466 154.144V150.48H445.034V162H446.306V161.024C446.938 161.784 447.842 162.24 449.01 162.24ZM446.306 157.672C446.306 155.76 447.106 154.424 448.794 154.424C450.554 154.424 451.37 155.848 451.37 157.672C451.37 159.512 450.538 160.936 448.834 160.936C447.09 160.936 446.306 159.568 446.306 157.672ZM458.604 162.24C461.02 162.24 462.476 160.264 462.476 157.672C462.476 155.08 461.012 153.12 458.612 153.12C457.436 153.12 456.532 153.568 455.9 154.328V153.36H454.628V165.84H456.06V161.2C456.676 161.856 457.532 162.24 458.604 162.24ZM455.9 157.672C455.9 155.76 456.7 154.424 458.388 154.424C460.148 154.424 460.964 155.848 460.964 157.672C460.964 159.512 460.132 160.936 458.428 160.936C456.684 160.936 455.9 159.568 455.9 157.672Z" fill="white"/>
    <path d="M728 156H467.5" stroke="#D3D7E0" stroke-width="2"/>
    <path d="M736.62 162H738.044V157.744H741.412L743.476 162H745.108L742.884 157.432C744.188 156.888 744.868 155.632 744.868 154.112C744.868 152.28 743.884 150.832 742.02 150.544C741.724 150.496 741.396 150.48 741.172 150.48H736.62V162ZM738.044 156.392V151.832H741.124C741.324 151.832 741.604 151.848 741.844 151.904C742.948 152.152 743.412 153.152 743.412 154.112C743.412 155.072 742.948 156.072 741.844 156.32C741.604 156.376 741.324 156.392 741.124 156.392H738.044ZM748.878 162H750.326V150.48H748.878L746.71 151.776V153.368L748.878 152.056V162Z" fill="white"/>
    <rect x="728" y="144" width="32" height="24" rx="1" stroke="#D3D7E0" stroke-width="2"/>
    <defs>
        <filter id="filter0_i_6281_38655" x="118.737" y="79" width="402.263" height="54" filterUnits="userSpaceOnUse" color-interpolation-filters="sRGB">
            <feFlood flood-opacity="0" result="BackgroundImageFix"/>
            <feBlend mode="normal" in="SourceGraphic" in2="BackgroundImageFix" result="shape"/>
            <feColorMatrix in="SourceAlpha" type="matrix" values="0 0 0 0 0 0 0 0 0 0 0 0 0 0 0 0 0 0 127 0" result="hardAlpha"/>
            <feOffset dx="-8" dy="-4"/>
            <feComposite in2="hardAlpha" operator="arithmetic" k2="-1" k3="1"/>
            <feColorMatrix type="matrix" values="0 0 0 0 0.0666667 0 0 0 0 0.0196078 0 0 0 0 0.160784 0 0 0 0.16 0"/>
            <feBlend mode="normal" in2="shape" result="effect1_innerShadow_6281_38655"/>
        </filter>
        <filter id="filter1_i_6281_38655" x="519" y="79" width="32" height="54" filterUnits="userSpaceOnUse" color-interpolation-filters="sRGB">
            <feFlood flood-opacity="0" result="BackgroundImageFix"/>
            <feBlend mode="normal" in="SourceGraphic" in2="BackgroundImageFix" result="shape"/>
            <feColorMatrix in="SourceAlpha" type="matrix" values="0 0 0 0 0 0 0 0 0 0 0 0 0 0 0 0 0 0 127 0" result="hardAlpha"/>
            <feOffset dx="-8" dy="-4"/>
            <feComposite in2="hardAlpha" operator="arithmetic" k2="-1" k3="1"/>
            <feColorMatrix type="matrix" values="0 0 0 0 0.0666667 0 0 0 0 0.0196078 0 0 0 0 0.160784 0 0 0 0.16 0"/>
            <feBlend mode="normal" in2="shape" result="effect1_innerShadow_6281_38655"/>
        </filter>
        <filter id="filter2_i_6281_38655" x="585" y="79" width="32" height="54" filterUnits="userSpaceOnUse" color-interpolation-filters="sRGB">
            <feFlood flood-opacity="0" result="BackgroundImageFix"/>
            <feBlend mode="normal" in="SourceGraphic" in2="BackgroundImageFix" result="shape"/>
            <feColorMatrix in="SourceAlpha" type="matrix" values="0 0 0 0 0 0 0 0 0 0 0 0 0 0 0 0 0 0 127 0" result="hardAlpha"/>
            <feOffset dx="-8" dy="-4"/>
            <feComposite in2="hardAlpha" operator="arithmetic" k2="-1" k3="1"/>
            <feColorMatrix type="matrix" values="0 0 0 0 0.0666667 0 0 0 0 0.0196078 0 0 0 0 0.160784 0 0 0 0.16 0"/>
            <feBlend mode="normal" in2="shape" result="effect1_innerShadow_6281_38655"/>
        </filter>
        <filter id="filter3_i_6281_38655" x="549" y="79" width="38" height="54" filterUnits="userSpaceOnUse" color-interpolation-filters="sRGB">
            <feFlood flood-opacity="0" result="BackgroundImageFix"/>
            <feBlend mode="normal" in="SourceGraphic" in2="BackgroundImageFix" result="shape"/>
            <feColorMatrix in="SourceAlpha" type="matrix" values="0 0 0 0 0 0 0 0 0 0 0 0 0 0 0 0 0 0 127 0" result="hardAlpha"/>
            <feOffset dx="-8" dy="-4"/>
            <feComposite in2="hardAlpha" operator="arithmetic" k2="-1" k3="1"/>
            <feColorMatrix type="matrix" values="0 0 0 0 0.0666667 0 0 0 0 0.0196078 0 0 0 0 0.160784 0 0 0 0.16 0"/>
            <feBlend mode="normal" in2="shape" result="effect1_innerShadow_6281_38655"/>
        </filter>
        <filter id="filter4_i_6281_38655" x="615" y="79" width="147.031" height="54" filterUnits="userSpaceOnUse" color-interpolation-filters="sRGB">
            <feFlood flood-opacity="0" result="BackgroundImageFix"/>
            <feBlend mode="normal" in="SourceGraphic" in2="BackgroundImageFix" result="shape"/>
            <feColorMatrix in="SourceAlpha" type="matrix" values="0 0 0 0 0 0 0 0 0 0 0 0 0 0 0 0 0 0 127 0" result="hardAlpha"/>
            <feOffset dx="-8" dy="-4"/>
            <feComposite in2="hardAlpha" operator="arithmetic" k2="-1" k3="1"/>
            <feColorMatrix type="matrix" values="0 0 0 0 0.0666667 0 0 0 0 0.0196078 0 0 0 0 0.160784 0 0 0 0.16 0"/>
            <feBlend mode="normal" in2="shape" result="effect1_innerShadow_6281_38655"/>
        </filter>
        <filter id="filter5_i_6281_38655" x="615" y="79" width="147.031" height="54" filterUnits="userSpaceOnUse" color-interpolation-filters="sRGB">
            <feFlood flood-opacity="0" result="BackgroundImageFix"/>
            <feBlend mode="normal" in="SourceGraphic" in2="BackgroundImageFix" result="shape"/>
            <feColorMatrix in="SourceAlpha" type="matrix" values="0 0 0 0 0 0 0 0 0 0 0 0 0 0 0 0 0 0 127 0" result="hardAlpha"/>
            <feOffset dx="-8" dy="-4"/>
            <feComposite in2="hardAlpha" operator="arithmetic" k2="-1" k3="1"/>
            <feColorMatrix type="matrix" values="0 0 0 0 0.0666667 0 0 0 0 0.0196078 0 0 0 0 0.160784 0 0 0 0.16 0"/>
            <feBlend mode="normal" in2="shape" result="effect1_innerShadow_6281_38655"/>
        </filter>
    </defs>
</svg>
