<svg width="960" height="192" viewBox="0 0 960 192" fill="none" xmlns="http://www.w3.org/2000/svg">
<rect width="960" height="192" fill="white"/>
<path d="M354.805 37H356.268V32.695H359.936V31.225H356.268V28.383H360.776V26.92H354.805V37ZM362.038 37H363.501V33.381H366.175L367.932 37H369.605L367.701 33.094C368.842 32.597 369.416 31.491 369.416 30.147C369.416 28.516 368.576 27.235 366.889 26.976C366.623 26.934 366.308 26.92 366.112 26.92H362.038V37ZM363.501 31.995V28.299H366.056C366.238 28.299 366.483 28.313 366.693 28.369C367.589 28.579 367.925 29.405 367.925 30.147C367.925 30.889 367.589 31.715 366.693 31.932C366.483 31.981 366.238 31.995 366.056 31.995H363.501ZM373.964 37.189C375.847 37.189 377.331 35.796 377.331 33.871C377.331 32.233 376.323 30.924 374.692 30.707L377.184 28.313V26.92H371.122V28.313H375.392L372.312 31.036L372.998 32.191C373.285 32.037 373.628 31.939 373.95 31.939C375.07 31.939 375.833 32.751 375.833 33.871C375.833 34.984 375.07 35.789 373.964 35.803C373.138 35.81 372.403 35.341 372.137 34.466L370.723 34.858C371.15 36.293 372.466 37.189 373.964 37.189Z" fill="#D3D7E0"/>
<path d="M498.682 37.21C501.006 37.21 502.567 35.943 503.162 33.955L501.678 33.556C501.279 34.963 500.278 35.817 498.682 35.817C496.54 35.817 495.448 34.27 495.462 31.96C495.469 29.65 496.54 28.103 498.682 28.103C500.278 28.103 501.279 28.957 501.678 30.364L503.162 29.965C502.567 27.977 501.006 26.71 498.682 26.71C495.658 26.71 493.915 28.845 493.915 31.96C493.915 35.075 495.658 37.21 498.682 37.21ZM504.702 37H507.859C508.041 37 508.643 37 509.112 36.937C511.478 36.636 512.738 34.529 512.738 31.96C512.738 29.391 511.478 27.284 509.112 26.983C508.643 26.92 508.041 26.92 507.859 26.92H504.702V37ZM506.2 35.607V28.313H507.859C508.167 28.313 508.671 28.32 509.007 28.383C510.519 28.663 511.184 30.189 511.184 31.96C511.184 33.689 510.547 35.243 509.007 35.537C508.671 35.6 508.181 35.607 507.859 35.607H506.2ZM514.368 37H515.831V33.381H518.505L520.262 37H521.935L520.031 33.094C521.172 32.597 521.746 31.491 521.746 30.147C521.746 28.516 520.906 27.235 519.219 26.976C518.953 26.934 518.638 26.92 518.442 26.92H514.368V37ZM515.831 31.995V28.299H518.386C518.568 28.299 518.813 28.313 519.023 28.369C519.919 28.579 520.255 29.405 520.255 30.147C520.255 30.889 519.919 31.715 519.023 31.932C518.813 31.981 518.568 31.995 518.386 31.995H515.831ZM526.294 37.189C528.177 37.189 529.661 35.796 529.661 33.871C529.661 32.233 528.653 30.924 527.022 30.707L529.514 28.313V26.92H523.452V28.313H527.722L524.642 31.036L525.328 32.191C525.615 32.037 525.958 31.939 526.28 31.939C527.4 31.939 528.163 32.751 528.163 33.871C528.163 34.984 527.4 35.789 526.294 35.803C525.468 35.81 524.733 35.341 524.467 34.466L523.053 34.858C523.48 36.293 524.796 37.189 526.294 37.189Z" fill="#D3D7E0"/>
<path d="M161.688 114H163.468V101.29H168.378V99.6H156.778V101.29H161.688V114ZM175.89 114.3C179.22 114.3 181.41 112.47 182.23 109.61L180.42 109.13C179.83 111.27 178.32 112.6 175.89 112.6C172.67 112.6 171.03 110.25 171.05 106.8C171.07 103.35 172.67 101 175.89 101C178.32 101 179.83 102.33 180.42 104.47L182.23 103.99C181.41 101.13 179.22 99.3 175.89 99.3C171.58 99.3 169.17 102.36 169.17 106.8C169.17 111.24 171.58 114.3 175.89 114.3ZM184.423 114H186.203V108.68H190.413L192.993 114H195.033L192.253 108.29C193.883 107.61 194.733 106.04 194.733 104.14C194.733 101.85 193.503 100.04 191.173 99.68C190.803 99.62 190.393 99.6 190.113 99.6H184.423V114ZM186.203 106.99V101.29H190.053C190.303 101.29 190.653 101.31 190.953 101.38C192.333 101.69 192.913 102.94 192.913 104.14C192.913 105.34 192.333 106.59 190.953 106.9C190.653 106.97 190.303 106.99 190.053 106.99H186.203ZM201.23 103.2V118.8H203.01V113.39C203.72 113.96 204.71 114.3 205.94 114.3C208.99 114.3 210.84 112.57 210.84 109.95C210.84 107.74 209.44 106.44 208.05 106.09C209.1 105.58 209.61 104.5 209.61 103.22C209.61 100.84 207.86 99.3 205.37 99.3C203.51 99.3 201.98 100.16 201.45 101.78C201.3 102.23 201.23 102.71 201.23 103.2ZM203.05 109.71V103.86C203.05 103.44 203.07 102.8 203.28 102.28C203.64 101.35 204.52 100.99 205.41 100.99C206.79 100.99 207.79 101.82 207.79 103.24C207.79 104.67 206.79 105.4 205.42 105.54V107.14C207.61 107.18 209.03 108.1 209.03 109.87C209.03 111.52 207.79 112.61 206.02 112.61C204.77 112.61 203.53 112.04 203.2 111.01C203.08 110.64 203.05 110.1 203.05 109.71Z" fill="#110529"/>
<path d="M452 112V24" stroke="#D3D7E0" stroke-width="2" stroke-linecap="square" stroke-dasharray="6 6"/>
<path d="M363.209 114H365.792L370.813 99H368.896L364.48 112.021L360.126 99H358.188L363.209 114Z" fill="#110529"/>
<path d="M572 112V24" stroke="#D3D7E0" stroke-width="2" stroke-linecap="square" stroke-dasharray="6 6"/>
<g filter="url(#filter0_i_6281_38095)">
<path fill-rule="evenodd" clip-rule="evenodd" d="M257.6 80H249L244 86.5L249 93L244 99.5L249 106L244 112L249 119L244 125.5L249 132H257.6H258H462.4C462.96 132 463.24 132 463.454 131.891C463.642 131.795 463.795 131.642 463.891 131.454C464 131.24 464 130.96 464 130.4V125.5V119V112V106V99.5V93V86.5V81.6C464 81.0399 464 80.7599 463.891 80.546C463.795 80.3578 463.642 80.2049 463.454 80.109C463.24 80 462.96 80 462.4 80H258H257.6Z" fill="#99E099"/>
</g>
<path d="M249 80V79H248.508L248.207 79.3903L249 80ZM244 86.5L243.207 85.8903L242.738 86.5L243.207 87.1097L244 86.5ZM249 93L249.793 93.6097L250.262 93L249.793 92.3903L249 93ZM244 99.5L243.207 98.8903L242.738 99.5L243.207 100.11L244 99.5ZM249 106L249.768 106.64L250.281 106.025L249.793 105.39L249 106ZM244 112L243.232 111.36L242.737 111.953L243.186 112.581L244 112ZM249 119L249.793 119.61L250.245 119.022L249.814 118.419L249 119ZM244 125.5L243.207 124.89L242.738 125.5L243.207 126.11L244 125.5ZM249 132L248.207 132.61L248.508 133H249V132ZM463.454 131.891L463.908 132.782L463.908 132.782L463.454 131.891ZM463.891 131.454L463 131L463.891 131.454ZM463.891 80.546L463 81V81L463.891 80.546ZM463.454 80.109L463.908 79.218V79.218L463.454 80.109ZM249 81H257.6V79H249V81ZM244.793 87.1097L249.793 80.6097L248.207 79.3903L243.207 85.8903L244.793 87.1097ZM249.793 92.3903L244.793 85.8903L243.207 87.1097L248.207 93.6097L249.793 92.3903ZM244.793 100.11L249.793 93.6097L248.207 92.3903L243.207 98.8903L244.793 100.11ZM249.793 105.39L244.793 98.8903L243.207 100.11L248.207 106.61L249.793 105.39ZM244.768 112.64L249.768 106.64L248.232 105.36L243.232 111.36L244.768 112.64ZM249.814 118.419L244.814 111.419L243.186 112.581L248.186 119.581L249.814 118.419ZM244.793 126.11L249.793 119.61L248.207 118.39L243.207 124.89L244.793 126.11ZM249.793 131.39L244.793 124.89L243.207 126.11L248.207 132.61L249.793 131.39ZM257.6 131H249V133H257.6V131ZM257.6 133H258V131H257.6V133ZM258 133H462.4V131H258V133ZM462.4 133C462.664 133 462.921 133.001 463.138 132.983C463.367 132.964 463.637 132.92 463.908 132.782L463 131C463.058 130.971 463.08 130.981 462.975 130.99C462.859 130.999 462.697 131 462.4 131V133ZM463.908 132.782C464.284 132.59 464.59 132.284 464.782 131.908L463 131L463 131L463.908 132.782ZM464.782 131.908C464.92 131.637 464.964 131.367 464.983 131.138C465.001 130.921 465 130.664 465 130.4H463C463 130.697 462.999 130.859 462.99 130.975C462.981 131.08 462.971 131.058 463 131L464.782 131.908ZM465 130.4V125.5H463V130.4H465ZM465 125.5V119H463V125.5H465ZM465 119V112H463V119H465ZM465 112V106H463V112H465ZM465 106V99.5H463V106H465ZM465 99.5V93H463V99.5H465ZM465 93V86.5H463V93H465ZM465 86.5V81.6H463V86.5H465ZM465 81.6C465 81.3365 465.001 81.0787 464.983 80.8618C464.964 80.6332 464.92 80.3634 464.782 80.092L463 81C462.971 80.9425 462.981 80.9197 462.99 81.0246C462.999 81.1412 463 81.3035 463 81.6H465ZM464.782 80.092C464.59 79.7157 464.284 79.4097 463.908 79.218L463 81V81L464.782 80.092ZM463.908 79.218C463.637 79.0797 463.367 79.0356 463.138 79.0169C462.921 78.9992 462.664 79 462.4 79V81C462.697 81 462.859 81.0008 462.975 81.0103C463.08 81.0189 463.058 81.0293 463 81L463.908 79.218ZM462.4 79H258V81H462.4V79ZM258 79H257.6V81H258V79Z" fill="#110529"/>
<path d="M354.758 114H357.238L362.058 99.6H360.208L355.978 112.11L351.788 99.6H349.938L354.758 114Z" fill="#110529"/>
<g filter="url(#filter1_i_6281_38095)">
<rect x="464" y="80" width="30" height="52" rx="1" fill="#CBEB67"/>
</g>
<rect x="464" y="80" width="30" height="52" rx="1" stroke="#110529" stroke-width="2" stroke-linecap="round"/>
<g filter="url(#filter2_i_6281_38095)">
<rect x="530" y="80" width="30" height="52" rx="1" fill="#FAAAFA"/>
</g>
<rect x="530" y="80" width="30" height="52" rx="1" stroke="#110529" stroke-width="2" stroke-linecap="round"/>
<g filter="url(#filter3_i_6281_38095)">
<rect x="494" y="80" width="36" height="52" rx="1" fill="#FFCB8F"/>
</g>
<rect x="494" y="80" width="36" height="52" rx="1" stroke="#110529" stroke-width="2" stroke-linecap="round"/>
<path d="M473.447 114H475.247V102.74L482.757 114H484.557V99.6H482.757V110.85L475.247 99.6H473.447V114Z" fill="#110529"/>
<path d="M539.447 114H541.247V102.74L548.757 114H550.557V99.6H548.757V110.85L541.247 99.6H539.447V114Z" fill="#110529"/>
<path d="M506.593 114H511.033C511.303 114 512.183 114 512.853 113.91C516.183 113.47 517.913 110.48 517.913 106.8C517.913 103.13 516.183 100.13 512.853 99.69C512.173 99.6 511.313 99.6 511.033 99.6H506.593V114ZM508.423 112.3V101.3H511.033C511.513 101.3 512.233 101.32 512.703 101.41C515.033 101.83 516.023 104.08 516.023 106.8C516.023 109.47 515.063 111.76 512.703 112.19C512.233 112.28 511.533 112.3 511.033 112.3H508.423Z" fill="#110529"/>
<g filter="url(#filter4_i_6281_38095)">
<path d="M700 132L561.6 132C561.04 132 560.76 132 560.546 131.891C560.358 131.795 560.205 131.642 560.109 131.454C560 131.24 560 130.96 560 130.4V106V81.6C560 81.0399 560 80.7599 560.109 80.546C560.205 80.3578 560.358 80.2049 560.546 80.109C560.76 80 561.04 80 561.6 80L700 80L695 86.5L700 93L695 100L700 106L695 112.5L700 119L695 125.5L700 132Z" fill="#C1ADFF"/>
</g>
<path d="M700 132L561.6 132C561.04 132 560.76 132 560.546 131.891C560.358 131.795 560.205 131.642 560.109 131.454C560 131.24 560 130.96 560 130.4V106V81.6C560 81.0399 560 80.7599 560.109 80.546C560.205 80.3578 560.358 80.2049 560.546 80.109C560.76 80 561.04 80 561.6 80L700 80L695 86.5L700 93L695 100L700 106L695 112.5L700 119L695 125.5L700 132Z" stroke="#110529" stroke-width="2" stroke-linecap="round"/>
<path d="M627.744 114.29C629.194 114.29 630.454 113.7 631.184 112.43C631.714 111.51 631.654 110.72 631.654 109.48V99.6H629.854V109.48C629.854 110.37 629.854 110.99 629.594 111.51C629.204 112.29 628.384 112.6 627.704 112.6C626.634 112.6 625.724 111.83 625.514 110.85L623.744 111.27C624.254 113.11 625.724 114.29 627.744 114.29Z" fill="#110529"/>
<path d="M258 156L257.293 156.707L256.586 156L257.293 155.293L258 156ZM265.293 147.293L266 146.586L267.414 148L266.707 148.707L265.293 147.293ZM266.707 163.293L267.414 164L266 165.414L265.293 164.707L266.707 163.293ZM268 157L258 157L258 155L268 155L268 157ZM257.293 155.293L265.293 147.293L266.707 148.707L258.707 156.707L257.293 155.293ZM258.707 155.293L266.707 163.293L265.293 164.707L257.293 156.707L258.707 155.293Z" fill="#110529"/>
<path d="M439.5 156H268" stroke="#110529" stroke-width="2"/>
<rect width="57" height="20" transform="translate(439.5 146)" fill="white"/>
<path d="M453.392 162.24C455.6 162.24 457.168 160.824 457.168 158.712C457.168 157.512 456.656 156.464 455.656 155.832C456.472 155.264 456.872 154.392 456.872 153.392C456.872 151.448 455.424 150.24 453.392 150.24C451.36 150.24 449.912 151.448 449.912 153.392C449.912 154.384 450.336 155.264 451.136 155.824C450.128 156.472 449.632 157.512 449.632 158.712C449.632 160.824 451.184 162.24 453.392 162.24ZM451.136 158.712C451.136 157.296 452.032 156.536 453.392 156.536C454.752 156.536 455.656 157.296 455.656 158.712C455.656 160.12 454.736 160.88 453.392 160.88C452.048 160.88 451.136 160.12 451.136 158.712ZM451.424 153.392C451.424 152.208 452.224 151.616 453.392 151.616C454.56 151.616 455.36 152.208 455.36 153.392C455.36 154.576 454.56 155.168 453.392 155.168C452.224 155.168 451.424 154.576 451.424 153.392ZM463.133 162.24C465.373 162.24 467.021 160.592 467.021 158.352V154.128C467.021 151.888 465.373 150.24 463.133 150.24C460.893 150.24 459.245 151.888 459.245 154.128V158.352C459.245 160.592 460.893 162.24 463.133 162.24ZM460.693 158.432V154.04C460.693 152.688 461.781 151.6 463.133 151.6C464.485 151.6 465.573 152.688 465.573 154.04V158.432C465.573 159.784 464.485 160.872 463.133 160.872C461.781 160.872 460.693 159.784 460.693 158.432ZM473.229 162.24C475.645 162.24 477.101 160.264 477.101 157.672C477.101 155.08 475.637 153.12 473.237 153.12C472.157 153.12 471.301 153.496 470.685 154.144V150.48H469.253V162H470.525V161.024C471.157 161.784 472.061 162.24 473.229 162.24ZM470.525 157.672C470.525 155.76 471.325 154.424 473.013 154.424C474.773 154.424 475.589 155.848 475.589 157.672C475.589 159.512 474.757 160.936 473.053 160.936C471.309 160.936 470.525 159.568 470.525 157.672ZM482.822 162.24C485.238 162.24 486.694 160.264 486.694 157.672C486.694 155.08 485.23 153.12 482.83 153.12C481.654 153.12 480.75 153.568 480.118 154.328V153.36H478.846V165.84H480.278V161.2C480.894 161.856 481.75 162.24 482.822 162.24ZM480.118 157.672C480.118 155.76 480.918 154.424 482.606 154.424C484.366 154.424 485.182 155.848 485.182 157.672C485.182 159.512 484.35 160.936 482.646 160.936C480.902 160.936 480.118 159.568 480.118 157.672Z" fill="#110529"/>
<path d="M668 156H496.5" stroke="#110529" stroke-width="2"/>
<rect x="668" y="144" width="32" height="24" rx="1" fill="white"/>
<path d="M676.62 162H678.044V157.744H681.412L683.476 162H685.108L682.884 157.432C684.188 156.888 684.868 155.632 684.868 154.112C684.868 152.28 683.884 150.832 682.02 150.544C681.724 150.496 681.396 150.48 681.172 150.48H676.62V162ZM678.044 156.392V151.832H681.124C681.324 151.832 681.604 151.848 681.844 151.904C682.948 152.152 683.412 153.152 683.412 154.112C683.412 155.072 682.948 156.072 681.844 156.32C681.604 156.376 681.324 156.392 681.124 156.392H678.044ZM688.878 162H690.326V150.48H688.878L686.71 151.776V153.368L688.878 152.056V162Z" fill="#110529"/>
<rect x="668" y="144" width="32" height="24" rx="1" stroke="#110529" stroke-width="2"/>
<path d="M624.593 37H626.056V32.695H629.724V31.225H626.056V28.383H630.564V26.92H624.593V37ZM631.826 37H633.289V33.381H635.963L637.72 37H639.393L637.489 33.094C638.63 32.597 639.204 31.491 639.204 30.147C639.204 28.516 638.364 27.235 636.677 26.976C636.411 26.934 636.096 26.92 635.9 26.92H631.826V37ZM633.289 31.995V28.299H635.844C636.026 28.299 636.271 28.313 636.481 28.369C637.377 28.579 637.713 29.405 637.713 30.147C637.713 30.889 637.377 31.715 636.481 31.932C636.271 31.981 636.026 31.995 635.844 31.995H633.289ZM645.201 37H646.685V35.243H647.686V33.857H646.685V31.127H645.201V33.857H642.324L645.6 26.92H643.927L640.651 33.857V35.243H645.201V37Z" fill="#D3D7E0"/>
<defs>
<filter id="filter0_i_6281_38095" x="242.737" y="79" width="222.263" height="54" filterUnits="userSpaceOnUse" color-interpolation-filters="sRGB">
<feFlood flood-opacity="0" result="BackgroundImageFix"/>
<feBlend mode="normal" in="SourceGraphic" in2="BackgroundImageFix" result="shape"/>
<feColorMatrix in="SourceAlpha" type="matrix" values="0 0 0 0 0 0 0 0 0 0 0 0 0 0 0 0 0 0 127 0" result="hardAlpha"/>
<feOffset dx="-8" dy="-4"/>
<feComposite in2="hardAlpha" operator="arithmetic" k2="-1" k3="1"/>
<feColorMatrix type="matrix" values="0 0 0 0 0.0666667 0 0 0 0 0.0196078 0 0 0 0 0.160784 0 0 0 0.16 0"/>
<feBlend mode="normal" in2="shape" result="effect1_innerShadow_6281_38095"/>
</filter>
<filter id="filter1_i_6281_38095" x="463" y="79" width="32" height="54" filterUnits="userSpaceOnUse" color-interpolation-filters="sRGB">
<feFlood flood-opacity="0" result="BackgroundImageFix"/>
<feBlend mode="normal" in="SourceGraphic" in2="BackgroundImageFix" result="shape"/>
<feColorMatrix in="SourceAlpha" type="matrix" values="0 0 0 0 0 0 0 0 0 0 0 0 0 0 0 0 0 0 127 0" result="hardAlpha"/>
<feOffset dx="-8" dy="-4"/>
<feComposite in2="hardAlpha" operator="arithmetic" k2="-1" k3="1"/>
<feColorMatrix type="matrix" values="0 0 0 0 0.0666667 0 0 0 0 0.0196078 0 0 0 0 0.160784 0 0 0 0.16 0"/>
<feBlend mode="normal" in2="shape" result="effect1_innerShadow_6281_38095"/>
</filter>
<filter id="filter2_i_6281_38095" x="529" y="79" width="32" height="54" filterUnits="userSpaceOnUse" color-interpolation-filters="sRGB">
<feFlood flood-opacity="0" result="BackgroundImageFix"/>
<feBlend mode="normal" in="SourceGraphic" in2="BackgroundImageFix" result="shape"/>
<feColorMatrix in="SourceAlpha" type="matrix" values="0 0 0 0 0 0 0 0 0 0 0 0 0 0 0 0 0 0 127 0" result="hardAlpha"/>
<feOffset dx="-8" dy="-4"/>
<feComposite in2="hardAlpha" operator="arithmetic" k2="-1" k3="1"/>
<feColorMatrix type="matrix" values="0 0 0 0 0.0666667 0 0 0 0 0.0196078 0 0 0 0 0.160784 0 0 0 0.16 0"/>
<feBlend mode="normal" in2="shape" result="effect1_innerShadow_6281_38095"/>
</filter>
<filter id="filter3_i_6281_38095" x="493" y="79" width="38" height="54" filterUnits="userSpaceOnUse" color-interpolation-filters="sRGB">
<feFlood flood-opacity="0" result="BackgroundImageFix"/>
<feBlend mode="normal" in="SourceGraphic" in2="BackgroundImageFix" result="shape"/>
<feColorMatrix in="SourceAlpha" type="matrix" values="0 0 0 0 0 0 0 0 0 0 0 0 0 0 0 0 0 0 127 0" result="hardAlpha"/>
<feOffset dx="-8" dy="-4"/>
<feComposite in2="hardAlpha" operator="arithmetic" k2="-1" k3="1"/>
<feColorMatrix type="matrix" values="0 0 0 0 0.0666667 0 0 0 0 0.0196078 0 0 0 0 0.160784 0 0 0 0.16 0"/>
<feBlend mode="normal" in2="shape" result="effect1_innerShadow_6281_38095"/>
</filter>
<filter id="filter4_i_6281_38095" x="559" y="79" width="143.031" height="54" filterUnits="userSpaceOnUse" color-interpolation-filters="sRGB">
<feFlood flood-opacity="0" result="BackgroundImageFix"/>
<feBlend mode="normal" in="SourceGraphic" in2="BackgroundImageFix" result="shape"/>
<feColorMatrix in="SourceAlpha" type="matrix" values="0 0 0 0 0 0 0 0 0 0 0 0 0 0 0 0 0 0 127 0" result="hardAlpha"/>
<feOffset dx="-8" dy="-4"/>
<feComposite in2="hardAlpha" operator="arithmetic" k2="-1" k3="1"/>
<feColorMatrix type="matrix" values="0 0 0 0 0.0666667 0 0 0 0 0.0196078 0 0 0 0 0.160784 0 0 0 0.16 0"/>
<feBlend mode="normal" in2="shape" result="effect1_innerShadow_6281_38095"/>
</filter>
</defs>
</svg>
