<svg width="960" height="328" viewBox="0 0 960 328" fill="none" xmlns="http://www.w3.org/2000/svg">
<rect width="960" height="328" fill="#1D1D29"/>
<path d="M354.805 37H356.268V32.695H359.936V31.225H356.268V28.383H360.776V26.92H354.805V37ZM362.038 37H363.501V33.381H366.175L367.932 37H369.605L367.701 33.094C368.842 32.597 369.416 31.491 369.416 30.147C369.416 28.516 368.576 27.235 366.889 26.976C366.623 26.934 366.308 26.92 366.112 26.92H362.038V37ZM363.501 31.995V28.299H366.056C366.238 28.299 366.483 28.313 366.693 28.369C367.589 28.579 367.925 29.405 367.925 30.147C367.925 30.889 367.589 31.715 366.693 31.932C366.483 31.981 366.238 31.995 366.056 31.995H363.501ZM373.964 37.189C375.847 37.189 377.331 35.796 377.331 33.871C377.331 32.233 376.323 30.924 374.692 30.707L377.184 28.313V26.92H371.122V28.313H375.392L372.312 31.036L372.998 32.191C373.285 32.037 373.628 31.939 373.95 31.939C375.07 31.939 375.833 32.751 375.833 33.871C375.833 34.984 375.07 35.789 373.964 35.803C373.138 35.81 372.403 35.341 372.137 34.466L370.723 34.858C371.15 36.293 372.466 37.189 373.964 37.189Z" fill="white" fill-opacity="0.3"/>
<path d="M498.682 37.21C501.006 37.21 502.567 35.943 503.162 33.955L501.678 33.556C501.279 34.963 500.278 35.817 498.682 35.817C496.54 35.817 495.448 34.27 495.462 31.96C495.469 29.65 496.54 28.103 498.682 28.103C500.278 28.103 501.279 28.957 501.678 30.364L503.162 29.965C502.567 27.977 501.006 26.71 498.682 26.71C495.658 26.71 493.915 28.845 493.915 31.96C493.915 35.075 495.658 37.21 498.682 37.21ZM504.702 37H507.859C508.041 37 508.643 37 509.112 36.937C511.478 36.636 512.738 34.529 512.738 31.96C512.738 29.391 511.478 27.284 509.112 26.983C508.643 26.92 508.041 26.92 507.859 26.92H504.702V37ZM506.2 35.607V28.313H507.859C508.167 28.313 508.671 28.32 509.007 28.383C510.519 28.663 511.184 30.189 511.184 31.96C511.184 33.689 510.547 35.243 509.007 35.537C508.671 35.6 508.181 35.607 507.859 35.607H506.2ZM514.368 37H515.831V33.381H518.505L520.262 37H521.935L520.031 33.094C521.172 32.597 521.746 31.491 521.746 30.147C521.746 28.516 520.906 27.235 519.219 26.976C518.953 26.934 518.638 26.92 518.442 26.92H514.368V37ZM515.831 31.995V28.299H518.386C518.568 28.299 518.813 28.313 519.023 28.369C519.919 28.579 520.255 29.405 520.255 30.147C520.255 30.889 519.919 31.715 519.023 31.932C518.813 31.981 518.568 31.995 518.386 31.995H515.831ZM526.294 37.189C528.177 37.189 529.661 35.796 529.661 33.871C529.661 32.233 528.653 30.924 527.022 30.707L529.514 28.313V26.92H523.452V28.313H527.722L524.642 31.036L525.328 32.191C525.615 32.037 525.958 31.939 526.28 31.939C527.4 31.939 528.163 32.751 528.163 33.871C528.163 34.984 527.4 35.789 526.294 35.803C525.468 35.81 524.733 35.341 524.467 34.466L523.053 34.858C523.48 36.293 524.796 37.189 526.294 37.189Z" fill="white" fill-opacity="0.3"/>
<path d="M161.688 114H163.468V101.29H168.378V99.6H156.778V101.29H161.688V114ZM175.89 114.3C179.22 114.3 181.41 112.47 182.23 109.61L180.42 109.13C179.83 111.27 178.32 112.6 175.89 112.6C172.67 112.6 171.03 110.25 171.05 106.8C171.07 103.35 172.67 101 175.89 101C178.32 101 179.83 102.33 180.42 104.47L182.23 103.99C181.41 101.13 179.22 99.3 175.89 99.3C171.58 99.3 169.17 102.36 169.17 106.8C169.17 111.24 171.58 114.3 175.89 114.3ZM184.423 114H186.203V108.68H190.413L192.993 114H195.033L192.253 108.29C193.883 107.61 194.733 106.04 194.733 104.14C194.733 101.85 193.503 100.04 191.173 99.68C190.803 99.62 190.393 99.6 190.113 99.6H184.423V114ZM186.203 106.99V101.29H190.053C190.303 101.29 190.653 101.31 190.953 101.38C192.333 101.69 192.913 102.94 192.913 104.14C192.913 105.34 192.333 106.59 190.953 106.9C190.653 106.97 190.303 106.99 190.053 106.99H186.203ZM201.23 103.2V118.8H203.01V113.39C203.72 113.96 204.71 114.3 205.94 114.3C208.99 114.3 210.84 112.57 210.84 109.95C210.84 107.74 209.44 106.44 208.05 106.09C209.1 105.58 209.61 104.5 209.61 103.22C209.61 100.84 207.86 99.3 205.37 99.3C203.51 99.3 201.98 100.16 201.45 101.78C201.3 102.23 201.23 102.71 201.23 103.2ZM203.05 109.71V103.86C203.05 103.44 203.07 102.8 203.28 102.28C203.64 101.35 204.52 100.99 205.41 100.99C206.79 100.99 207.79 101.82 207.79 103.24C207.79 104.67 206.79 105.4 205.42 105.54V107.14C207.61 107.18 209.03 108.1 209.03 109.87C209.03 111.52 207.79 112.61 206.02 112.61C204.77 112.61 203.53 112.04 203.2 111.01C203.08 110.64 203.05 110.1 203.05 109.71Z" fill="white"/>
<path d="M452 112V24" stroke="white" stroke-opacity="0.3" stroke-width="2" stroke-linecap="square" stroke-dasharray="6 6"/>
<path d="M363.209 114H365.792L370.813 99H368.896L364.48 112.021L360.126 99H358.188L363.209 114Z" fill="#110529"/>
<path d="M572 112V24" stroke="white" stroke-opacity="0.3" stroke-width="2" stroke-linecap="square" stroke-dasharray="6 6"/>
<g filter="url(#filter0_i_6281_38720)">
<path fill-rule="evenodd" clip-rule="evenodd" d="M257.6 80H249L244 86.5L249 93L244 99.5L249 106L244 112L249 119L244 125.5L249 132H257.6H258H462.4C462.96 132 463.24 132 463.454 131.891C463.642 131.795 463.795 131.642 463.891 131.454C464 131.24 464 130.96 464 130.4V125.5V119V112V106V99.5V93V86.5V81.6C464 81.0399 464 80.7599 463.891 80.546C463.795 80.3578 463.642 80.2049 463.454 80.109C463.24 80 462.96 80 462.4 80H258H257.6Z" fill="#99E099"/>
</g>
<path d="M249 80V79H248.508L248.207 79.3903L249 80ZM244 86.5L243.207 85.8903L242.738 86.5L243.207 87.1097L244 86.5ZM249 93L249.793 93.6097L250.262 93L249.793 92.3903L249 93ZM244 99.5L243.207 98.8903L242.738 99.5L243.207 100.11L244 99.5ZM249 106L249.768 106.64L250.281 106.025L249.793 105.39L249 106ZM244 112L243.232 111.36L242.737 111.953L243.186 112.581L244 112ZM249 119L249.793 119.61L250.245 119.022L249.814 118.419L249 119ZM244 125.5L243.207 124.89L242.738 125.5L243.207 126.11L244 125.5ZM249 132L248.207 132.61L248.508 133H249V132ZM463.454 131.891L463.908 132.782L463.908 132.782L463.454 131.891ZM463.891 131.454L463 131L463.891 131.454ZM463.891 80.546L463 81V81L463.891 80.546ZM463.454 80.109L463.908 79.218V79.218L463.454 80.109ZM249 81H257.6V79H249V81ZM244.793 87.1097L249.793 80.6097L248.207 79.3903L243.207 85.8903L244.793 87.1097ZM249.793 92.3903L244.793 85.8903L243.207 87.1097L248.207 93.6097L249.793 92.3903ZM244.793 100.11L249.793 93.6097L248.207 92.3903L243.207 98.8903L244.793 100.11ZM249.793 105.39L244.793 98.8903L243.207 100.11L248.207 106.61L249.793 105.39ZM244.768 112.64L249.768 106.64L248.232 105.36L243.232 111.36L244.768 112.64ZM249.814 118.419L244.814 111.419L243.186 112.581L248.186 119.581L249.814 118.419ZM244.793 126.11L249.793 119.61L248.207 118.39L243.207 124.89L244.793 126.11ZM249.793 131.39L244.793 124.89L243.207 126.11L248.207 132.61L249.793 131.39ZM257.6 131H249V133H257.6V131ZM257.6 133H258V131H257.6V133ZM258 133H462.4V131H258V133ZM462.4 133C462.664 133 462.921 133.001 463.138 132.983C463.367 132.964 463.637 132.92 463.908 132.782L463 131C463.058 130.971 463.08 130.981 462.975 130.99C462.859 130.999 462.697 131 462.4 131V133ZM463.908 132.782C464.284 132.59 464.59 132.284 464.782 131.908L463 131L463 131L463.908 132.782ZM464.782 131.908C464.92 131.637 464.964 131.367 464.983 131.138C465.001 130.921 465 130.664 465 130.4H463C463 130.697 462.999 130.859 462.99 130.975C462.981 131.08 462.971 131.058 463 131L464.782 131.908ZM465 130.4V125.5H463V130.4H465ZM465 125.5V119H463V125.5H465ZM465 119V112H463V119H465ZM465 112V106H463V112H465ZM465 106V99.5H463V106H465ZM465 99.5V93H463V99.5H465ZM465 93V86.5H463V93H465ZM465 86.5V81.6H463V86.5H465ZM465 81.6C465 81.3365 465.001 81.0787 464.983 80.8618C464.964 80.6332 464.92 80.3634 464.782 80.092L463 81C462.971 80.9425 462.981 80.9197 462.99 81.0246C462.999 81.1412 463 81.3035 463 81.6H465ZM464.782 80.092C464.59 79.7157 464.284 79.4097 463.908 79.218L463 81V81L464.782 80.092ZM463.908 79.218C463.637 79.0797 463.367 79.0356 463.138 79.0169C462.921 78.9992 462.664 79 462.4 79V81C462.697 81 462.859 81.0008 462.975 81.0103C463.08 81.0189 463.058 81.0293 463 81L463.908 79.218ZM462.4 79H258V81H462.4V79ZM258 79H257.6V81H258V79Z" fill="#110529"/>
<path d="M354.758 114L349.938 99.6H351.788L355.978 112.11L360.208 99.6H362.058L357.238 114H354.758Z" fill="#110529"/>
<g filter="url(#filter1_i_6281_38720)">
<rect x="464" y="80" width="30" height="52" rx="1" fill="#CBEB67"/>
</g>
<rect x="464" y="80" width="30" height="52" rx="1" stroke="#110529" stroke-width="2" stroke-linecap="round"/>
<g filter="url(#filter2_i_6281_38720)">
<rect x="530" y="80" width="30" height="52" rx="1" fill="#FAAAFA"/>
</g>
<rect x="530" y="80" width="30" height="52" rx="1" stroke="#110529" stroke-width="2" stroke-linecap="round"/>
<g filter="url(#filter3_i_6281_38720)">
<rect x="494" y="80" width="36" height="52" rx="1" fill="#FFCB8F"/>
</g>
<rect x="494" y="80" width="36" height="52" rx="1" stroke="#110529" stroke-width="2" stroke-linecap="round"/>
<path d="M473.447 114V99.6H475.247L482.757 110.85V99.6H484.557V114H482.757L475.247 102.74V114H473.447Z" fill="#110529"/>
<path d="M539.447 114V99.6H541.247L548.757 110.85V99.6H550.557V114H548.757L541.247 102.74V114H539.447Z" fill="#110529"/>
<path d="M506.593 114V99.6H511.033C511.18 99.6 511.437 99.6033 511.803 99.61C512.17 99.6167 512.52 99.6433 512.853 99.69C513.967 99.8367 514.897 100.243 515.643 100.91C516.397 101.57 516.963 102.41 517.343 103.43C517.723 104.45 517.913 105.573 517.913 106.8C517.913 108.027 517.723 109.15 517.343 110.17C516.963 111.19 516.397 112.033 515.643 112.7C514.897 113.36 513.967 113.763 512.853 113.91C512.52 113.95 512.167 113.977 511.793 113.99C511.427 113.997 511.173 114 511.033 114H506.593ZM508.423 112.3H511.033C511.287 112.3 511.57 112.293 511.883 112.28C512.197 112.26 512.47 112.23 512.703 112.19C513.49 112.043 514.127 111.713 514.613 111.2C515.1 110.687 515.457 110.047 515.683 109.28C515.91 108.513 516.023 107.687 516.023 106.8C516.023 105.893 515.907 105.057 515.673 104.29C515.447 103.523 515.09 102.887 514.603 102.38C514.117 101.873 513.483 101.55 512.703 101.41C512.47 101.363 512.193 101.333 511.873 101.32C511.553 101.307 511.273 101.3 511.033 101.3H508.423V112.3Z" fill="#110529"/>
<g filter="url(#filter4_i_6281_38720)">
<path d="M700 132L561.6 132C561.04 132 560.76 132 560.546 131.891C560.358 131.795 560.205 131.642 560.109 131.454C560 131.24 560 130.96 560 130.4V106V81.6C560 81.0399 560 80.7599 560.109 80.546C560.205 80.3578 560.358 80.2049 560.546 80.109C560.76 80 561.04 80 561.6 80L700 80L695 86.5L700 93L695 100L700 106L695 112.5L700 119L695 125.5L700 132Z" fill="#C1ADFF"/>
</g>
<path d="M700 132L561.6 132C561.04 132 560.76 132 560.546 131.891C560.358 131.795 560.205 131.642 560.109 131.454C560 131.24 560 130.96 560 130.4V106V81.6C560 81.0399 560 80.7599 560.109 80.546C560.205 80.3578 560.358 80.2049 560.546 80.109C560.76 80 561.04 80 561.6 80L700 80L695 86.5L700 93L695 100L700 106L695 112.5L700 119L695 125.5L700 132Z" stroke="#110529" stroke-width="2" stroke-linecap="round"/>
<path d="M627.744 114.29C629.194 114.29 630.454 113.7 631.184 112.43C631.714 111.51 631.654 110.72 631.654 109.48V99.6H629.854V109.48C629.854 110.37 629.854 110.99 629.594 111.51C629.204 112.29 628.384 112.6 627.704 112.6C626.634 112.6 625.724 111.83 625.514 110.85L623.744 111.27C624.254 113.11 625.724 114.29 627.744 114.29Z" fill="#110529"/>
<path d="M258 156L257.293 156.707L256.586 156L257.293 155.293L258 156ZM265.293 147.293L266 146.586L267.414 148L266.707 148.707L265.293 147.293ZM266.707 163.293L267.414 164L266 165.414L265.293 164.707L266.707 163.293ZM268 157L258 157L258 155L268 155L268 157ZM257.293 155.293L265.293 147.293L266.707 148.707L258.707 156.707L257.293 155.293ZM258.707 155.293L266.707 163.293L265.293 164.707L257.293 156.707L258.707 155.293Z" fill="#D3D7E0"/>
<path d="M439.5 156H268" stroke="#D3D7E0" stroke-width="2"/>
<rect width="57" height="20" transform="translate(439.5 146)" fill="#1D1D29"/>
<path d="M453.392 162.24C455.6 162.24 457.168 160.824 457.168 158.712C457.168 157.512 456.656 156.464 455.656 155.832C456.472 155.264 456.872 154.392 456.872 153.392C456.872 151.448 455.424 150.24 453.392 150.24C451.36 150.24 449.912 151.448 449.912 153.392C449.912 154.384 450.336 155.264 451.136 155.824C450.128 156.472 449.632 157.512 449.632 158.712C449.632 160.824 451.184 162.24 453.392 162.24ZM451.136 158.712C451.136 157.296 452.032 156.536 453.392 156.536C454.752 156.536 455.656 157.296 455.656 158.712C455.656 160.12 454.736 160.88 453.392 160.88C452.048 160.88 451.136 160.12 451.136 158.712ZM451.424 153.392C451.424 152.208 452.224 151.616 453.392 151.616C454.56 151.616 455.36 152.208 455.36 153.392C455.36 154.576 454.56 155.168 453.392 155.168C452.224 155.168 451.424 154.576 451.424 153.392ZM463.133 162.24C465.373 162.24 467.021 160.592 467.021 158.352V154.128C467.021 151.888 465.373 150.24 463.133 150.24C460.893 150.24 459.245 151.888 459.245 154.128V158.352C459.245 160.592 460.893 162.24 463.133 162.24ZM460.693 158.432V154.04C460.693 152.688 461.781 151.6 463.133 151.6C464.485 151.6 465.573 152.688 465.573 154.04V158.432C465.573 159.784 464.485 160.872 463.133 160.872C461.781 160.872 460.693 159.784 460.693 158.432ZM473.229 162.24C475.645 162.24 477.101 160.264 477.101 157.672C477.101 155.08 475.637 153.12 473.237 153.12C472.157 153.12 471.301 153.496 470.685 154.144V150.48H469.253V162H470.525V161.024C471.157 161.784 472.061 162.24 473.229 162.24ZM470.525 157.672C470.525 155.76 471.325 154.424 473.013 154.424C474.773 154.424 475.589 155.848 475.589 157.672C475.589 159.512 474.757 160.936 473.053 160.936C471.309 160.936 470.525 159.568 470.525 157.672ZM482.822 162.24C485.238 162.24 486.694 160.264 486.694 157.672C486.694 155.08 485.23 153.12 482.83 153.12C481.654 153.12 480.75 153.568 480.118 154.328V153.36H478.846V165.84H480.278V161.2C480.894 161.856 481.75 162.24 482.822 162.24ZM480.118 157.672C480.118 155.76 480.918 154.424 482.606 154.424C484.366 154.424 485.182 155.848 485.182 157.672C485.182 159.512 484.35 160.936 482.646 160.936C480.902 160.936 480.118 159.568 480.118 157.672Z" fill="white"/>
<path d="M668 156H496.5" stroke="#D3D7E0" stroke-width="2"/>
<path d="M676.62 162H678.044V157.744H681.412L683.476 162H685.108L682.884 157.432C684.188 156.888 684.868 155.632 684.868 154.112C684.868 152.28 683.884 150.832 682.02 150.544C681.724 150.496 681.396 150.48 681.172 150.48H676.62V162ZM678.044 156.392V151.832H681.124C681.324 151.832 681.604 151.848 681.844 151.904C682.948 152.152 683.412 153.152 683.412 154.112C683.412 155.072 682.948 156.072 681.844 156.32C681.604 156.376 681.324 156.392 681.124 156.392H678.044ZM688.878 162H690.326V150.48H688.878L686.71 151.776V153.368L688.878 152.056V162Z" fill="white"/>
<rect x="668" y="144" width="32" height="24" rx="1" stroke="#D3D7E0" stroke-width="2"/>
<path d="M624.593 37H626.056V32.695H629.724V31.225H626.056V28.383H630.564V26.92H624.593V37ZM631.826 37H633.289V33.381H635.963L637.72 37H639.393L637.489 33.094C638.63 32.597 639.204 31.491 639.204 30.147C639.204 28.516 638.364 27.235 636.677 26.976C636.411 26.934 636.096 26.92 635.9 26.92H631.826V37ZM633.289 31.995V28.299H635.844C636.026 28.299 636.271 28.313 636.481 28.369C637.377 28.579 637.713 29.405 637.713 30.147C637.713 30.889 637.377 31.715 636.481 31.932C636.271 31.981 636.026 31.995 635.844 31.995H633.289ZM645.201 37H646.685V35.243H647.686V33.857H646.685V31.127H645.201V33.857H642.324L645.6 26.92H643.927L640.651 33.857V35.243H645.201V37Z" fill="white" fill-opacity="0.3"/>
<path d="M162.245 250H164.025V237.29H168.935V235.6H157.335V237.29H162.245V250ZM176.447 250.3C179.777 250.3 181.967 248.47 182.787 245.61L180.977 245.13C180.387 247.27 178.877 248.6 176.447 248.6C173.227 248.6 171.587 246.25 171.607 242.8C171.627 239.35 173.227 237 176.447 237C178.877 237 180.387 238.33 180.977 240.47L182.787 239.99C181.967 237.13 179.777 235.3 176.447 235.3C172.137 235.3 169.727 238.36 169.727 242.8C169.727 247.24 172.137 250.3 176.447 250.3ZM184.98 250H186.76V244.68H190.97L193.55 250H195.59L192.81 244.29C194.44 243.61 195.29 242.04 195.29 240.14C195.29 237.85 194.06 236.04 191.73 235.68C191.36 235.62 190.95 235.6 190.67 235.6H184.98V250ZM186.76 242.99V237.29H190.61C190.86 237.29 191.21 237.31 191.51 237.38C192.89 237.69 193.47 238.94 193.47 240.14C193.47 241.34 192.89 242.59 191.51 242.9C191.21 242.97 190.86 242.99 190.61 242.99H186.76ZM204.716 253.6H206.536V250L210.456 239.2H208.656L205.626 247.73L202.606 239.2H200.796L204.716 250V253.6Z" fill="white"/>
<path d="M363.209 242H365.792L370.813 227H368.896L364.48 240.021L360.126 227H358.188L363.209 242Z" fill="#110529"/>
<g filter="url(#filter5_i_6281_38720)">
<path fill-rule="evenodd" clip-rule="evenodd" d="M257.6 216H249L244 222.5L249 229L244 235.5L249 242L244 248L249 255L244 261.5L249 268H257.6H258H462.4C462.96 268 463.24 268 463.454 267.891C463.642 267.795 463.795 267.642 463.891 267.454C464 267.24 464 266.96 464 266.4V261.5V255V248V242V235.5V229V222.5V217.6C464 217.04 464 216.76 463.891 216.546C463.795 216.358 463.642 216.205 463.454 216.109C463.24 216 462.96 216 462.4 216H258H257.6Z" fill="#99E099"/>
</g>
<path d="M249 216V215H248.508L248.207 215.39L249 216ZM244 222.5L243.207 221.89L242.738 222.5L243.207 223.11L244 222.5ZM249 229L249.793 229.61L250.262 229L249.793 228.39L249 229ZM244 235.5L243.207 234.89L242.738 235.5L243.207 236.11L244 235.5ZM249 242L249.768 242.64L250.281 242.025L249.793 241.39L249 242ZM244 248L243.232 247.36L242.737 247.953L243.186 248.581L244 248ZM249 255L249.793 255.61L250.245 255.022L249.814 254.419L249 255ZM244 261.5L243.207 260.89L242.738 261.5L243.207 262.11L244 261.5ZM249 268L248.207 268.61L248.508 269H249V268ZM463.454 267.891L463.908 268.782L463.908 268.782L463.454 267.891ZM463.891 267.454L463 267L463.891 267.454ZM463.891 216.546L463 217V217L463.891 216.546ZM463.454 216.109L463.908 215.218V215.218L463.454 216.109ZM249 217H257.6V215H249V217ZM244.793 223.11L249.793 216.61L248.207 215.39L243.207 221.89L244.793 223.11ZM249.793 228.39L244.793 221.89L243.207 223.11L248.207 229.61L249.793 228.39ZM244.793 236.11L249.793 229.61L248.207 228.39L243.207 234.89L244.793 236.11ZM249.793 241.39L244.793 234.89L243.207 236.11L248.207 242.61L249.793 241.39ZM244.768 248.64L249.768 242.64L248.232 241.36L243.232 247.36L244.768 248.64ZM249.814 254.419L244.814 247.419L243.186 248.581L248.186 255.581L249.814 254.419ZM244.793 262.11L249.793 255.61L248.207 254.39L243.207 260.89L244.793 262.11ZM249.793 267.39L244.793 260.89L243.207 262.11L248.207 268.61L249.793 267.39ZM257.6 267H249V269H257.6V267ZM257.6 269H258V267H257.6V269ZM258 269H462.4V267H258V269ZM462.4 269C462.664 269 462.921 269.001 463.138 268.983C463.367 268.964 463.637 268.92 463.908 268.782L463 267C463.058 266.971 463.08 266.981 462.975 266.99C462.859 266.999 462.697 267 462.4 267V269ZM463.908 268.782C464.284 268.59 464.59 268.284 464.782 267.908L463 267L463 267L463.908 268.782ZM464.782 267.908C464.92 267.637 464.964 267.367 464.983 267.138C465.001 266.921 465 266.664 465 266.4H463C463 266.697 462.999 266.859 462.99 266.975C462.981 267.08 462.971 267.058 463 267L464.782 267.908ZM465 266.4V261.5H463V266.4H465ZM465 261.5V255H463V261.5H465ZM465 255V248H463V255H465ZM465 248V242H463V248H465ZM465 242V235.5H463V242H465ZM465 235.5V229H463V235.5H465ZM465 229V222.5H463V229H465ZM465 222.5V217.6H463V222.5H465ZM465 217.6C465 217.336 465.001 217.079 464.983 216.862C464.964 216.633 464.92 216.363 464.782 216.092L463 217C462.971 216.942 462.981 216.92 462.99 217.025C462.999 217.141 463 217.303 463 217.6H465ZM464.782 216.092C464.59 215.716 464.284 215.41 463.908 215.218L463 217V217L464.782 216.092ZM463.908 215.218C463.637 215.08 463.367 215.036 463.138 215.017C462.921 214.999 462.664 215 462.4 215V217C462.697 217 462.859 217.001 462.975 217.01C463.08 217.019 463.058 217.029 463 217L463.908 215.218ZM462.4 215H258V217H462.4V215ZM258 215H257.6V217H258V215Z" fill="#110529"/>
<path d="M354.758 250L349.938 235.6H351.788L355.978 248.11L360.208 235.6H362.058L357.238 250H354.758Z" fill="#110529"/>
<g filter="url(#filter6_i_6281_38720)">
<rect x="464" y="216" width="36" height="52" rx="1" fill="#FFCB8F"/>
<path d="M476.593 250V235.6H481.033C481.18 235.6 481.437 235.603 481.803 235.61C482.17 235.617 482.52 235.643 482.853 235.69C483.967 235.837 484.897 236.243 485.643 236.91C486.397 237.57 486.963 238.41 487.343 239.43C487.723 240.45 487.913 241.573 487.913 242.8C487.913 244.027 487.723 245.15 487.343 246.17C486.963 247.19 486.397 248.033 485.643 248.7C484.897 249.36 483.967 249.763 482.853 249.91C482.52 249.95 482.167 249.977 481.793 249.99C481.427 249.997 481.173 250 481.033 250H476.593ZM478.423 248.3H481.033C481.287 248.3 481.57 248.293 481.883 248.28C482.197 248.26 482.47 248.23 482.703 248.19C483.49 248.043 484.127 247.713 484.613 247.2C485.1 246.687 485.457 246.047 485.683 245.28C485.91 244.513 486.023 243.687 486.023 242.8C486.023 241.893 485.907 241.057 485.673 240.29C485.447 239.523 485.09 238.887 484.603 238.38C484.117 237.873 483.483 237.55 482.703 237.41C482.47 237.363 482.193 237.333 481.873 237.32C481.553 237.307 481.273 237.3 481.033 237.3H478.423V248.3Z" fill="#110529"/>
<rect x="464" y="216" width="36" height="52" rx="1" stroke="#110529" stroke-width="2" stroke-linecap="round"/>
</g>
<g filter="url(#filter7_i_6281_38720)">
<path d="M640 268H501.6C501.04 268 500.76 268 500.546 267.891C500.358 267.795 500.205 267.642 500.109 267.454C500 267.24 500 266.96 500 266.4V242V217.6C500 217.04 500 216.76 500.109 216.546C500.205 216.358 500.358 216.205 500.546 216.109C500.76 216 501.04 216 501.6 216H640L635 222.5L640 229L635 236L640 242L635 248.5L640 255L635 261.5L640 268Z" fill="#C1ADFF"/>
</g>
<path d="M640 268H501.6C501.04 268 500.76 268 500.546 267.891C500.358 267.795 500.205 267.642 500.109 267.454C500 267.24 500 266.96 500 266.4V242V217.6C500 217.04 500 216.76 500.109 216.546C500.205 216.358 500.358 216.205 500.546 216.109C500.76 216 501.04 216 501.6 216H640L635 222.5L640 229L635 236L640 242L635 248.5L640 255L635 261.5L640 268Z" stroke="#110529" stroke-width="2" stroke-linecap="round"/>
<path d="M569.744 250.29C571.194 250.29 572.454 249.7 573.184 248.43C573.714 247.51 573.654 246.72 573.654 245.48V235.6H571.854V245.48C571.854 246.37 571.854 246.99 571.594 247.51C571.204 248.29 570.384 248.6 569.704 248.6C568.634 248.6 567.724 247.83 567.514 246.85L565.744 247.27C566.254 249.11 567.724 250.29 569.744 250.29Z" fill="#110529"/>
<path d="M258 292L257.293 292.707L256.586 292L257.293 291.293L258 292ZM265.293 283.293L266 282.586L267.414 284L266.707 284.707L265.293 283.293ZM266.707 299.293L267.414 300L266 301.414L265.293 300.707L266.707 299.293ZM268 293L258 293L258 291L268 291L268 293ZM257.293 291.293L265.293 283.293L266.707 284.707L258.707 292.707L257.293 291.293ZM258.707 291.293L266.707 299.293L265.293 300.707L257.293 292.707L258.707 291.293Z" fill="#D3D7E0"/>
<path d="M409.5 292H268" stroke="#D3D7E0" stroke-width="2"/>
<rect width="57" height="20" transform="translate(409.5 282)" fill="#1D1D29"/>
<path d="M423.392 298.24C425.6 298.24 427.168 296.824 427.168 294.712C427.168 293.512 426.656 292.464 425.656 291.832C426.472 291.264 426.872 290.392 426.872 289.392C426.872 287.448 425.424 286.24 423.392 286.24C421.36 286.24 419.912 287.448 419.912 289.392C419.912 290.384 420.336 291.264 421.136 291.824C420.128 292.472 419.632 293.512 419.632 294.712C419.632 296.824 421.184 298.24 423.392 298.24ZM421.136 294.712C421.136 293.296 422.032 292.536 423.392 292.536C424.752 292.536 425.656 293.296 425.656 294.712C425.656 296.12 424.736 296.88 423.392 296.88C422.048 296.88 421.136 296.12 421.136 294.712ZM421.424 289.392C421.424 288.208 422.224 287.616 423.392 287.616C424.56 287.616 425.36 288.208 425.36 289.392C425.36 290.576 424.56 291.168 423.392 291.168C422.224 291.168 421.424 290.576 421.424 289.392ZM433.133 298.24C435.373 298.24 437.021 296.592 437.021 294.352V290.128C437.021 287.888 435.373 286.24 433.133 286.24C430.893 286.24 429.245 287.888 429.245 290.128V294.352C429.245 296.592 430.893 298.24 433.133 298.24ZM430.693 294.432V290.04C430.693 288.688 431.781 287.6 433.133 287.6C434.485 287.6 435.573 288.688 435.573 290.04V294.432C435.573 295.784 434.485 296.872 433.133 296.872C431.781 296.872 430.693 295.784 430.693 294.432ZM443.229 298.24C445.645 298.24 447.101 296.264 447.101 293.672C447.101 291.08 445.637 289.12 443.237 289.12C442.157 289.12 441.301 289.496 440.685 290.144V286.48H439.253V298H440.525V297.024C441.157 297.784 442.061 298.24 443.229 298.24ZM440.525 293.672C440.525 291.76 441.325 290.424 443.013 290.424C444.773 290.424 445.589 291.848 445.589 293.672C445.589 295.512 444.757 296.936 443.053 296.936C441.309 296.936 440.525 295.568 440.525 293.672ZM452.822 298.24C455.238 298.24 456.694 296.264 456.694 293.672C456.694 291.08 455.23 289.12 452.83 289.12C451.654 289.12 450.75 289.568 450.118 290.328V289.36H448.846V301.84H450.278V297.2C450.894 297.856 451.75 298.24 452.822 298.24ZM450.118 293.672C450.118 291.76 450.918 290.424 452.606 290.424C454.366 290.424 455.182 291.848 455.182 293.672C455.182 295.512 454.35 296.936 452.646 296.936C450.902 296.936 450.118 295.568 450.118 293.672Z" fill="white"/>
<path d="M608 292H466.5" stroke="#D3D7E0" stroke-width="2"/>
<path d="M616.62 298H618.044V293.744H621.412L623.476 298H625.108L622.884 293.432C624.188 292.888 624.868 291.632 624.868 290.112C624.868 288.28 623.884 286.832 622.02 286.544C621.724 286.496 621.396 286.48 621.172 286.48H616.62V298ZM618.044 292.392V287.832H621.124C621.324 287.832 621.604 287.848 621.844 287.904C622.948 288.152 623.412 289.152 623.412 290.112C623.412 291.072 622.948 292.072 621.844 292.32C621.604 292.376 621.324 292.392 621.124 292.392H618.044ZM628.878 298H630.326V286.48H628.878L626.71 287.776V289.368L628.878 288.056V298Z" fill="white"/>
<rect x="608" y="280" width="32" height="24" rx="1" stroke="#D3D7E0" stroke-width="2"/>
<defs>
<filter id="filter0_i_6281_38720" x="242.737" y="79" width="222.263" height="54" filterUnits="userSpaceOnUse" color-interpolation-filters="sRGB">
<feFlood flood-opacity="0" result="BackgroundImageFix"/>
<feBlend mode="normal" in="SourceGraphic" in2="BackgroundImageFix" result="shape"/>
<feColorMatrix in="SourceAlpha" type="matrix" values="0 0 0 0 0 0 0 0 0 0 0 0 0 0 0 0 0 0 127 0" result="hardAlpha"/>
<feOffset dx="-8" dy="-4"/>
<feComposite in2="hardAlpha" operator="arithmetic" k2="-1" k3="1"/>
<feColorMatrix type="matrix" values="0 0 0 0 0.0666667 0 0 0 0 0.0196078 0 0 0 0 0.160784 0 0 0 0.16 0"/>
<feBlend mode="normal" in2="shape" result="effect1_innerShadow_6281_38720"/>
</filter>
<filter id="filter1_i_6281_38720" x="463" y="79" width="32" height="54" filterUnits="userSpaceOnUse" color-interpolation-filters="sRGB">
<feFlood flood-opacity="0" result="BackgroundImageFix"/>
<feBlend mode="normal" in="SourceGraphic" in2="BackgroundImageFix" result="shape"/>
<feColorMatrix in="SourceAlpha" type="matrix" values="0 0 0 0 0 0 0 0 0 0 0 0 0 0 0 0 0 0 127 0" result="hardAlpha"/>
<feOffset dx="-8" dy="-4"/>
<feComposite in2="hardAlpha" operator="arithmetic" k2="-1" k3="1"/>
<feColorMatrix type="matrix" values="0 0 0 0 0.0666667 0 0 0 0 0.0196078 0 0 0 0 0.160784 0 0 0 0.16 0"/>
<feBlend mode="normal" in2="shape" result="effect1_innerShadow_6281_38720"/>
</filter>
<filter id="filter2_i_6281_38720" x="529" y="79" width="32" height="54" filterUnits="userSpaceOnUse" color-interpolation-filters="sRGB">
<feFlood flood-opacity="0" result="BackgroundImageFix"/>
<feBlend mode="normal" in="SourceGraphic" in2="BackgroundImageFix" result="shape"/>
<feColorMatrix in="SourceAlpha" type="matrix" values="0 0 0 0 0 0 0 0 0 0 0 0 0 0 0 0 0 0 127 0" result="hardAlpha"/>
<feOffset dx="-8" dy="-4"/>
<feComposite in2="hardAlpha" operator="arithmetic" k2="-1" k3="1"/>
<feColorMatrix type="matrix" values="0 0 0 0 0.0666667 0 0 0 0 0.0196078 0 0 0 0 0.160784 0 0 0 0.16 0"/>
<feBlend mode="normal" in2="shape" result="effect1_innerShadow_6281_38720"/>
</filter>
<filter id="filter3_i_6281_38720" x="493" y="79" width="38" height="54" filterUnits="userSpaceOnUse" color-interpolation-filters="sRGB">
<feFlood flood-opacity="0" result="BackgroundImageFix"/>
<feBlend mode="normal" in="SourceGraphic" in2="BackgroundImageFix" result="shape"/>
<feColorMatrix in="SourceAlpha" type="matrix" values="0 0 0 0 0 0 0 0 0 0 0 0 0 0 0 0 0 0 127 0" result="hardAlpha"/>
<feOffset dx="-8" dy="-4"/>
<feComposite in2="hardAlpha" operator="arithmetic" k2="-1" k3="1"/>
<feColorMatrix type="matrix" values="0 0 0 0 0.0666667 0 0 0 0 0.0196078 0 0 0 0 0.160784 0 0 0 0.16 0"/>
<feBlend mode="normal" in2="shape" result="effect1_innerShadow_6281_38720"/>
</filter>
<filter id="filter4_i_6281_38720" x="559" y="79" width="143.031" height="54" filterUnits="userSpaceOnUse" color-interpolation-filters="sRGB">
<feFlood flood-opacity="0" result="BackgroundImageFix"/>
<feBlend mode="normal" in="SourceGraphic" in2="BackgroundImageFix" result="shape"/>
<feColorMatrix in="SourceAlpha" type="matrix" values="0 0 0 0 0 0 0 0 0 0 0 0 0 0 0 0 0 0 127 0" result="hardAlpha"/>
<feOffset dx="-8" dy="-4"/>
<feComposite in2="hardAlpha" operator="arithmetic" k2="-1" k3="1"/>
<feColorMatrix type="matrix" values="0 0 0 0 0.0666667 0 0 0 0 0.0196078 0 0 0 0 0.160784 0 0 0 0.16 0"/>
<feBlend mode="normal" in2="shape" result="effect1_innerShadow_6281_38720"/>
</filter>
<filter id="filter5_i_6281_38720" x="242.737" y="215" width="222.263" height="54" filterUnits="userSpaceOnUse" color-interpolation-filters="sRGB">
<feFlood flood-opacity="0" result="BackgroundImageFix"/>
<feBlend mode="normal" in="SourceGraphic" in2="BackgroundImageFix" result="shape"/>
<feColorMatrix in="SourceAlpha" type="matrix" values="0 0 0 0 0 0 0 0 0 0 0 0 0 0 0 0 0 0 127 0" result="hardAlpha"/>
<feOffset dx="-8" dy="-4"/>
<feComposite in2="hardAlpha" operator="arithmetic" k2="-1" k3="1"/>
<feColorMatrix type="matrix" values="0 0 0 0 0.0666667 0 0 0 0 0.0196078 0 0 0 0 0.160784 0 0 0 0.16 0"/>
<feBlend mode="normal" in2="shape" result="effect1_innerShadow_6281_38720"/>
</filter>
<filter id="filter6_i_6281_38720" x="463" y="215" width="38" height="54" filterUnits="userSpaceOnUse" color-interpolation-filters="sRGB">
<feFlood flood-opacity="0" result="BackgroundImageFix"/>
<feBlend mode="normal" in="SourceGraphic" in2="BackgroundImageFix" result="shape"/>
<feColorMatrix in="SourceAlpha" type="matrix" values="0 0 0 0 0 0 0 0 0 0 0 0 0 0 0 0 0 0 127 0" result="hardAlpha"/>
<feOffset dx="-8" dy="-4"/>
<feComposite in2="hardAlpha" operator="arithmetic" k2="-1" k3="1"/>
<feColorMatrix type="matrix" values="0 0 0 0 0.0666667 0 0 0 0 0.0196078 0 0 0 0 0.160784 0 0 0 0.16 0"/>
<feBlend mode="normal" in2="shape" result="effect1_innerShadow_6281_38720"/>
</filter>
<filter id="filter7_i_6281_38720" x="499" y="215" width="143.031" height="54" filterUnits="userSpaceOnUse" color-interpolation-filters="sRGB">
<feFlood flood-opacity="0" result="BackgroundImageFix"/>
<feBlend mode="normal" in="SourceGraphic" in2="BackgroundImageFix" result="shape"/>
<feColorMatrix in="SourceAlpha" type="matrix" values="0 0 0 0 0 0 0 0 0 0 0 0 0 0 0 0 0 0 127 0" result="hardAlpha"/>
<feOffset dx="-8" dy="-4"/>
<feComposite in2="hardAlpha" operator="arithmetic" k2="-1" k3="1"/>
<feColorMatrix type="matrix" values="0 0 0 0 0.0666667 0 0 0 0 0.0196078 0 0 0 0 0.160784 0 0 0 0.16 0"/>
<feBlend mode="normal" in2="shape" result="effect1_innerShadow_6281_38720"/>
</filter>
</defs>
</svg>
