<svg width="960" height="192" viewBox="0 0 960 192" fill="none" xmlns="http://www.w3.org/2000/svg">
<rect width="960" height="192" fill="#1D1D29"/>
<path d="M554.682 37.21C557.006 37.21 558.567 35.943 559.162 33.955L557.678 33.556C557.279 34.963 556.278 35.817 554.682 35.817C552.54 35.817 551.448 34.27 551.462 31.96C551.469 29.65 552.54 28.103 554.682 28.103C556.278 28.103 557.279 28.957 557.678 30.364L559.162 29.965C558.567 27.977 557.006 26.71 554.682 26.71C551.658 26.71 549.915 28.845 549.915 31.96C549.915 35.075 551.658 37.21 554.682 37.21ZM560.702 37H563.859C564.041 37 564.643 37 565.112 36.937C567.478 36.636 568.738 34.529 568.738 31.96C568.738 29.391 567.478 27.284 565.112 26.983C564.643 26.92 564.041 26.92 563.859 26.92H560.702V37ZM562.2 35.607V28.313H563.859C564.167 28.313 564.671 28.32 565.007 28.383C566.519 28.663 567.184 30.189 567.184 31.96C567.184 33.689 566.547 35.243 565.007 35.537C564.671 35.6 564.181 35.607 563.859 35.607H562.2ZM570.368 37H571.831V33.381H574.505L576.262 37H577.935L576.031 33.094C577.172 32.597 577.746 31.491 577.746 30.147C577.746 28.516 576.906 27.235 575.219 26.976C574.953 26.934 574.638 26.92 574.442 26.92H570.368V37ZM571.831 31.995V28.299H574.386C574.568 28.299 574.813 28.313 575.023 28.369C575.919 28.579 576.255 29.405 576.255 30.147C576.255 30.889 575.919 31.715 575.023 31.932C574.813 31.981 574.568 31.995 574.386 31.995H571.831ZM582.294 37.189C584.177 37.189 585.661 35.796 585.661 33.871C585.661 32.233 584.653 30.924 583.022 30.707L585.514 28.313V26.92H579.452V28.313H583.722L580.642 31.036L581.328 32.191C581.615 32.037 581.958 31.939 582.28 31.939C583.4 31.939 584.163 32.751 584.163 33.871C584.163 34.984 583.4 35.789 582.294 35.803C581.468 35.81 580.733 35.341 580.467 34.466L579.053 34.858C579.48 36.293 580.796 37.189 582.294 37.189Z" fill="white" fill-opacity="0.3"/>
<path d="M628 112V24" stroke="white" stroke-opacity="0.3" stroke-width="2" stroke-linecap="square" stroke-dasharray="6 6"/>
<path d="M682.593 37H684.056V32.695H687.724V31.225H684.056V28.383H688.564V26.92H682.593V37ZM689.826 37H691.289V33.381H693.963L695.72 37H697.393L695.489 33.094C696.63 32.597 697.204 31.491 697.204 30.147C697.204 28.516 696.364 27.235 694.677 26.976C694.411 26.934 694.096 26.92 693.9 26.92H689.826V37ZM691.289 31.995V28.299H693.844C694.026 28.299 694.271 28.313 694.481 28.369C695.377 28.579 695.713 29.405 695.713 30.147C695.713 30.889 695.377 31.715 694.481 31.932C694.271 31.981 694.026 31.995 693.844 31.995H691.289ZM703.201 37H704.685V35.243H705.686V33.857H704.685V31.127H703.201V33.857H700.324L703.6 26.92H701.927L698.651 33.857V35.243H703.201V37Z" fill="white" fill-opacity="0.3"/>
<path d="M760 112V24" stroke="white" stroke-opacity="0.3" stroke-width="2" stroke-linecap="square" stroke-dasharray="6 6"/>
<path d="M137.858 37H139.321V32.695H142.989V31.225H139.321V28.383H143.829V26.92H137.858V37ZM145.09 37H146.553V33.381H149.227L150.984 37H152.657L150.753 33.094C151.894 32.597 152.468 31.491 152.468 30.147C152.468 28.516 151.628 27.235 149.941 26.976C149.675 26.934 149.36 26.92 149.164 26.92H145.09V37ZM146.553 31.995V28.299H149.108C149.29 28.299 149.535 28.313 149.745 28.369C150.641 28.579 150.977 29.405 150.977 30.147C150.977 30.889 150.641 31.715 149.745 31.932C149.535 31.981 149.29 31.995 149.108 31.995H146.553ZM155.953 37H157.444V26.92H155.953L154.056 28.054V29.685L155.953 28.53V37Z" fill="white" fill-opacity="0.3"/>
<path d="M188 112V24" stroke="white" stroke-opacity="0.3" stroke-width="2" stroke-linecap="square" stroke-dasharray="6 6"/>
<path d="M215.735 37.21C218.059 37.21 219.62 35.943 220.215 33.955L218.731 33.556C218.332 34.963 217.331 35.817 215.735 35.817C213.593 35.817 212.501 34.27 212.515 31.96C212.522 29.65 213.593 28.103 215.735 28.103C217.331 28.103 218.332 28.957 218.731 30.364L220.215 29.965C219.62 27.977 218.059 26.71 215.735 26.71C212.711 26.71 210.968 28.845 210.968 31.96C210.968 35.075 212.711 37.21 215.735 37.21ZM221.754 37H224.911C225.093 37 225.695 37 226.164 36.937C228.53 36.636 229.79 34.529 229.79 31.96C229.79 29.391 228.53 27.284 226.164 26.983C225.695 26.92 225.093 26.92 224.911 26.92H221.754V37ZM223.252 35.607V28.313H224.911C225.219 28.313 225.723 28.32 226.059 28.383C227.571 28.663 228.236 30.189 228.236 31.96C228.236 33.689 227.599 35.243 226.059 35.537C225.723 35.6 225.233 35.607 224.911 35.607H223.252ZM231.42 37H232.883V33.381H235.557L237.314 37H238.987L237.083 33.094C238.224 32.597 238.798 31.491 238.798 30.147C238.798 28.516 237.958 27.235 236.271 26.976C236.005 26.934 235.69 26.92 235.494 26.92H231.42V37ZM232.883 31.995V28.299H235.438C235.62 28.299 235.865 28.313 236.075 28.369C236.971 28.579 237.307 29.405 237.307 30.147C237.307 30.889 236.971 31.715 236.075 31.932C235.865 31.981 235.62 31.995 235.438 31.995H232.883ZM242.283 37H243.774V26.92H242.283L240.386 28.054V29.685L242.283 28.53V37Z" fill="white" fill-opacity="0.3"/>
<path d="M268 112V24" stroke="white" stroke-opacity="0.3" stroke-width="2" stroke-linecap="square" stroke-dasharray="6 6"/>
<path d="M296.703 37H298.166V32.695H301.834V31.225H298.166V28.383H302.674V26.92H296.703V37ZM303.935 37H305.398V33.381H308.072L309.829 37H311.502L309.598 33.094C310.739 32.597 311.313 31.491 311.313 30.147C311.313 28.516 310.473 27.235 308.786 26.976C308.52 26.934 308.205 26.92 308.009 26.92H303.935V37ZM305.398 31.995V28.299H307.953C308.135 28.299 308.38 28.313 308.59 28.369C309.486 28.579 309.822 29.405 309.822 30.147C309.822 30.889 309.486 31.715 308.59 31.932C308.38 31.981 308.135 31.995 307.953 31.995H305.398ZM312.761 36.993H319.579V35.6H315.022L317.941 32.996C319.033 32.037 319.579 31.407 319.579 30.028C319.579 28.117 318.144 26.71 316.24 26.71C314.231 26.71 312.796 28.047 312.796 30H314.294C314.28 28.985 315.092 28.103 316.212 28.103C317.297 28.103 318.074 28.929 318.074 30.007C318.074 30.581 317.864 31.127 317.157 31.757L312.768 35.691L312.761 36.993Z" fill="white" fill-opacity="0.3"/>
<path d="M348 112V24" stroke="white" stroke-opacity="0.3" stroke-width="2" stroke-linecap="square" stroke-dasharray="6 6"/>
<path d="M374.58 37.21C376.904 37.21 378.465 35.943 379.06 33.955L377.576 33.556C377.177 34.963 376.176 35.817 374.58 35.817C372.438 35.817 371.346 34.27 371.36 31.96C371.367 29.65 372.438 28.103 374.58 28.103C376.176 28.103 377.177 28.957 377.576 30.364L379.06 29.965C378.465 27.977 376.904 26.71 374.58 26.71C371.556 26.71 369.813 28.845 369.813 31.96C369.813 35.075 371.556 37.21 374.58 37.21ZM380.599 37H383.756C383.938 37 384.54 37 385.009 36.937C387.375 36.636 388.635 34.529 388.635 31.96C388.635 29.391 387.375 27.284 385.009 26.983C384.54 26.92 383.938 26.92 383.756 26.92H380.599V37ZM382.097 35.607V28.313H383.756C384.064 28.313 384.568 28.32 384.904 28.383C386.416 28.663 387.081 30.189 387.081 31.96C387.081 33.689 386.444 35.243 384.904 35.537C384.568 35.6 384.078 35.607 383.756 35.607H382.097ZM390.265 37H391.728V33.381H394.402L396.159 37H397.832L395.928 33.094C397.069 32.597 397.643 31.491 397.643 30.147C397.643 28.516 396.803 27.235 395.116 26.976C394.85 26.934 394.535 26.92 394.339 26.92H390.265V37ZM391.728 31.995V28.299H394.283C394.465 28.299 394.71 28.313 394.92 28.369C395.816 28.579 396.152 29.405 396.152 30.147C396.152 30.889 395.816 31.715 394.92 31.932C394.71 31.981 394.465 31.995 394.283 31.995H391.728ZM399.091 36.993H405.909V35.6H401.352L404.271 32.996C405.363 32.037 405.909 31.407 405.909 30.028C405.909 28.117 404.474 26.71 402.57 26.71C400.561 26.71 399.126 28.047 399.126 30H400.624C400.61 28.985 401.422 28.103 402.542 28.103C403.627 28.103 404.404 28.929 404.404 30.007C404.404 30.581 404.194 31.127 403.487 31.757L399.098 35.691L399.091 36.993Z" fill="white" fill-opacity="0.3"/>
<path d="M428 112V24" stroke="white" stroke-opacity="0.3" stroke-width="2" stroke-linecap="square" stroke-dasharray="6 6"/>
<path d="M456.805 37H458.268V32.695H461.936V31.225H458.268V28.383H462.776V26.92H456.805V37ZM464.038 37H465.501V33.381H468.175L469.932 37H471.605L469.701 33.094C470.842 32.597 471.416 31.491 471.416 30.147C471.416 28.516 470.576 27.235 468.889 26.976C468.623 26.934 468.308 26.92 468.112 26.92H464.038V37ZM465.501 31.995V28.299H468.056C468.238 28.299 468.483 28.313 468.693 28.369C469.589 28.579 469.925 29.405 469.925 30.147C469.925 30.889 469.589 31.715 468.693 31.932C468.483 31.981 468.238 31.995 468.056 31.995H465.501ZM475.964 37.189C477.847 37.189 479.331 35.796 479.331 33.871C479.331 32.233 478.323 30.924 476.692 30.707L479.184 28.313V26.92H473.122V28.313H477.392L474.312 31.036L474.998 32.191C475.285 32.037 475.628 31.939 475.95 31.939C477.07 31.939 477.833 32.751 477.833 33.871C477.833 34.984 477.07 35.789 475.964 35.803C475.138 35.81 474.403 35.341 474.137 34.466L472.723 34.858C473.15 36.293 474.466 37.189 475.964 37.189Z" fill="white" fill-opacity="0.3"/>
<path d="M508 112V24" stroke="white" stroke-opacity="0.3" stroke-width="2" stroke-linecap="square" stroke-dasharray="6 6"/>
<g filter="url(#filter0_i_6281_38611)">
<path fill-rule="evenodd" clip-rule="evenodd" d="M133.6 80H125L120 86.5L125 93L120 99.5L125 106L120 112L125 119L120 125.5L125 132H133.6H134H518.4C518.96 132 519.24 132 519.454 131.891C519.642 131.795 519.795 131.642 519.891 131.454C520 131.24 520 130.96 520 130.4V125.5V119V112V106V99.5V93V86.5V81.6C520 81.0399 520 80.7599 519.891 80.546C519.795 80.3578 519.642 80.2049 519.454 80.109C519.24 80 518.96 80 518.4 80H134H133.6Z" fill="#99E099"/>
</g>
<path d="M125 80V79H124.508L124.207 79.3903L125 80ZM120 86.5L119.207 85.8903L118.738 86.5L119.207 87.1097L120 86.5ZM125 93L125.793 93.6097L126.262 93L125.793 92.3903L125 93ZM120 99.5L119.207 98.8903L118.738 99.5L119.207 100.11L120 99.5ZM125 106L125.768 106.64L126.281 106.025L125.793 105.39L125 106ZM120 112L119.232 111.36L118.737 111.953L119.186 112.581L120 112ZM125 119L125.793 119.61L126.245 119.022L125.814 118.419L125 119ZM120 125.5L119.207 124.89L118.738 125.5L119.207 126.11L120 125.5ZM125 132L124.207 132.61L124.508 133H125V132ZM519.454 131.891L519 131L519 131L519.454 131.891ZM519.891 131.454L520.782 131.908L520.782 131.908L519.891 131.454ZM519.891 80.546L520.782 80.0921L520.782 80.092L519.891 80.546ZM519.454 80.109L519 81L519 81L519.454 80.109ZM125 81H133.6V79H125V81ZM120.793 87.1097L125.793 80.6097L124.207 79.3903L119.207 85.8903L120.793 87.1097ZM125.793 92.3903L120.793 85.8903L119.207 87.1097L124.207 93.6097L125.793 92.3903ZM120.793 100.11L125.793 93.6097L124.207 92.3903L119.207 98.8903L120.793 100.11ZM125.793 105.39L120.793 98.8903L119.207 100.11L124.207 106.61L125.793 105.39ZM120.768 112.64L125.768 106.64L124.232 105.36L119.232 111.36L120.768 112.64ZM125.814 118.419L120.814 111.419L119.186 112.581L124.186 119.581L125.814 118.419ZM120.793 126.11L125.793 119.61L124.207 118.39L119.207 124.89L120.793 126.11ZM125.793 131.39L120.793 124.89L119.207 126.11L124.207 132.61L125.793 131.39ZM133.6 131H125V133H133.6V131ZM133.6 133H134V131H133.6V133ZM134 133H518.4V131H134V133ZM518.4 133C518.664 133 518.921 133.001 519.138 132.983C519.367 132.964 519.637 132.92 519.908 132.782L519 131C519.057 130.971 519.08 130.981 518.975 130.99C518.859 130.999 518.697 131 518.4 131V133ZM519.908 132.782C520.284 132.59 520.59 132.284 520.782 131.908L519 131L519 131L519.908 132.782ZM520.782 131.908C520.92 131.637 520.964 131.367 520.983 131.138C521.001 130.921 521 130.664 521 130.4H519C519 130.697 518.999 130.859 518.99 130.975C518.981 131.08 518.971 131.058 519 131L520.782 131.908ZM521 130.4V125.5H519V130.4H521ZM521 125.5V119H519V125.5H521ZM521 119V112H519V119H521ZM521 112V106H519V112H521ZM521 106V99.5H519V106H521ZM521 99.5V93H519V99.5H521ZM521 93V86.5H519V93H521ZM521 86.5V81.6H519V86.5H521ZM521 81.6C521 81.3365 521.001 81.0787 520.983 80.8618C520.964 80.6332 520.92 80.3635 520.782 80.0921L519 80.9999C518.971 80.9424 518.981 80.9197 518.99 81.0246C518.999 81.1412 519 81.3035 519 81.6H521ZM520.782 80.092C520.59 79.7157 520.284 79.4097 519.908 79.218L519 81L519 81L520.782 80.092ZM519.908 79.218C519.637 79.0797 519.367 79.0356 519.138 79.0169C518.921 78.9992 518.664 79 518.4 79V81C518.697 81 518.859 81.0008 518.975 81.0103C519.08 81.0189 519.057 81.0293 519 81L519.908 79.218ZM518.4 79H134V81H518.4V79ZM134 79H133.6V81H134V79Z" fill="#110529"/>
<path d="M320.758 114L315.938 99.6H317.788L321.978 112.11L326.208 99.6H328.058L323.238 114H320.758Z" fill="#110529"/>
<g filter="url(#filter1_i_6281_38611)">
<rect x="520" y="80" width="30" height="52" rx="1" fill="#CBEB67"/>
</g>
<rect x="520" y="80" width="30" height="52" rx="1" stroke="#110529" stroke-width="2" stroke-linecap="round"/>
<g filter="url(#filter2_i_6281_38611)">
<rect x="586" y="80" width="30" height="52" rx="1" fill="#FAAAFA"/>
</g>
<rect x="586" y="80" width="30" height="52" rx="1" stroke="#110529" stroke-width="2" stroke-linecap="round"/>
<g filter="url(#filter3_i_6281_38611)">
<rect x="550" y="80" width="36" height="52" rx="1" fill="#FFCB8F"/>
</g>
<rect x="550" y="80" width="36" height="52" rx="1" stroke="#110529" stroke-width="2" stroke-linecap="round"/>
<path d="M529.447 114V99.6H531.247L538.757 110.85V99.6H540.557V114H538.757L531.247 102.74V114H529.447Z" fill="#110529"/>
<path d="M595.447 114V99.6H597.247L604.757 110.85V99.6H606.557V114H604.757L597.247 102.74V114H595.447Z" fill="#110529"/>
<path d="M562.593 114V99.6H567.033C567.18 99.6 567.437 99.6033 567.803 99.61C568.17 99.6167 568.52 99.6433 568.853 99.69C569.967 99.8367 570.897 100.243 571.643 100.91C572.397 101.57 572.963 102.41 573.343 103.43C573.723 104.45 573.913 105.573 573.913 106.8C573.913 108.027 573.723 109.15 573.343 110.17C572.963 111.19 572.397 112.033 571.643 112.7C570.897 113.36 569.967 113.763 568.853 113.91C568.52 113.95 568.167 113.977 567.793 113.99C567.427 113.997 567.173 114 567.033 114H562.593ZM564.423 112.3H567.033C567.287 112.3 567.57 112.293 567.883 112.28C568.197 112.26 568.47 112.23 568.703 112.19C569.49 112.043 570.127 111.713 570.613 111.2C571.1 110.687 571.457 110.047 571.683 109.28C571.91 108.513 572.023 107.687 572.023 106.8C572.023 105.893 571.907 105.057 571.673 104.29C571.447 103.523 571.09 102.887 570.603 102.38C570.117 101.873 569.483 101.55 568.703 101.41C568.47 101.363 568.193 101.333 567.873 101.32C567.553 101.307 567.273 101.3 567.033 101.3H564.423V112.3Z" fill="#110529"/>
<g filter="url(#filter4_i_6281_38611)">
<rect x="616" y="80" width="144" height="52" rx="1" fill="#C1ADFF"/>
<path d="M687.244 114.29C686.237 114.29 685.384 114.017 684.684 113.47C683.984 112.923 683.504 112.19 683.244 111.27L685.014 110.85C685.121 111.337 685.377 111.75 685.784 112.09C686.197 112.43 686.671 112.6 687.204 112.6C687.551 112.6 687.904 112.517 688.264 112.35C688.624 112.177 688.901 111.897 689.094 111.51C689.227 111.243 689.304 110.95 689.324 110.63C689.344 110.303 689.354 109.92 689.354 109.48V99.6H691.154V109.48C691.154 109.893 691.151 110.263 691.144 110.59C691.144 110.917 691.111 111.23 691.044 111.53C690.984 111.823 690.864 112.123 690.684 112.43C690.324 113.063 689.841 113.533 689.234 113.84C688.634 114.14 687.971 114.29 687.244 114.29Z" fill="#110529"/>
<rect x="616" y="80" width="144" height="52" rx="1" stroke="#110529" stroke-width="2" stroke-linecap="round"/>
</g>
<g filter="url(#filter5_i_6281_38611)">
<path fill-rule="evenodd" clip-rule="evenodd" d="M833.4 132H840L835 125.5L840 119L835 112L840 106L835 99.5L840 93L835 86.5L840 80H833.4H826H761.6C761.04 80 760.76 80 760.546 80.109C760.358 80.2049 760.205 80.3578 760.109 80.546C760 80.7599 760 81.0399 760 81.6V130.4C760 130.96 760 131.24 760.109 131.454C760.205 131.642 760.358 131.795 760.546 131.891C760.76 132 761.04 132 761.6 132H826H833.4Z" fill="#FAFAAA"/>
</g>
<path d="M840 132V133H842.031L840.793 131.39L840 132ZM835 125.5L834.207 124.89L833.738 125.5L834.207 126.11L835 125.5ZM840 119L840.793 119.61L841.245 119.022L840.814 118.419L840 119ZM835 112L834.232 111.36L833.737 111.953L834.186 112.581L835 112ZM840 106L840.768 106.64L841.281 106.025L840.793 105.39L840 106ZM835 99.5L834.207 98.8903L833.738 99.5L834.207 100.11L835 99.5ZM840 93L840.793 93.6097L841.262 93L840.793 92.3903L840 93ZM835 86.5L834.207 85.8903L833.738 86.5L834.207 87.1097L835 86.5ZM840 80L840.793 80.6097L842.031 79H840V80ZM760.546 80.109L760.092 79.218L760.092 79.218L760.546 80.109ZM760.109 80.546L759.218 80.092L759.218 80.092L760.109 80.546ZM760.109 131.454L759.218 131.908L759.218 131.908L760.109 131.454ZM760.546 131.891L760.092 132.782L760.092 132.782L760.546 131.891ZM833.4 133H840V131H833.4V133ZM840.793 131.39L835.793 124.89L834.207 126.11L839.207 132.61L840.793 131.39ZM835.793 126.11L840.793 119.61L839.207 118.39L834.207 124.89L835.793 126.11ZM840.814 118.419L835.814 111.419L834.186 112.581L839.186 119.581L840.814 118.419ZM835.768 112.64L840.768 106.64L839.232 105.36L834.232 111.36L835.768 112.64ZM840.793 105.39L835.793 98.8903L834.207 100.11L839.207 106.61L840.793 105.39ZM835.793 100.11L840.793 93.6097L839.207 92.3903L834.207 98.8903L835.793 100.11ZM840.793 92.3903L835.793 85.8903L834.207 87.1097L839.207 93.6097L840.793 92.3903ZM835.793 87.1097L840.793 80.6097L839.207 79.3903L834.207 85.8903L835.793 87.1097ZM840 79H833.4V81H840V79ZM833.4 79H826V81H833.4V79ZM826 79H761.6V81H826V79ZM761.6 79C761.336 79 761.079 78.9992 760.862 79.0169C760.633 79.0356 760.363 79.0797 760.092 79.218L761 81C760.942 81.0293 760.92 81.0189 761.025 81.0103C761.141 81.0008 761.303 81 761.6 81V79ZM760.092 79.218C759.716 79.4097 759.41 79.7157 759.218 80.092L761 81L760.092 79.218ZM759.218 80.092C759.08 80.3634 759.036 80.6332 759.017 80.8618C758.999 81.0787 759 81.3365 759 81.6H761C761 81.3035 761.001 81.1412 761.01 81.0246C761.019 80.9197 761.029 80.9425 761 81L759.218 80.092ZM759 81.6V130.4H761V81.6H759ZM759 130.4C759 130.664 758.999 130.921 759.017 131.138C759.036 131.367 759.08 131.637 759.218 131.908L761 131C761.029 131.058 761.019 131.08 761.01 130.975C761.001 130.859 761 130.697 761 130.4H759ZM759.218 131.908C759.41 132.284 759.716 132.59 760.092 132.782L761 131L761 131L759.218 131.908ZM760.092 132.782C760.363 132.92 760.633 132.964 760.862 132.983C761.079 133.001 761.336 133 761.6 133V131C761.303 131 761.141 130.999 761.025 130.99C760.92 130.981 760.942 130.971 761 131L760.092 132.782ZM761.6 133H826V131H761.6V133ZM826 133H833.4V131H826V133Z" fill="#110529"/>
<g filter="url(#filter6_i_6281_38611)">
<path fill-rule="evenodd" clip-rule="evenodd" d="M833.4 132H840L835 125.5L840 119L835 112L840 106L835 99.5L840 93L835 86.5L840 80H833.4H826H761.6C761.04 80 760.76 80 760.546 80.109C760.358 80.2049 760.205 80.3578 760.109 80.546C760 80.7599 760 81.0399 760 81.6V130.4C760 130.96 760 131.24 760.109 131.454C760.205 131.642 760.358 131.795 760.546 131.891C760.76 132 761.04 132 761.6 132H826H833.4Z" fill="#FAFAAA"/>
</g>
<path d="M840 132V133H842.031L840.793 131.39L840 132ZM835 125.5L834.207 124.89L833.738 125.5L834.207 126.11L835 125.5ZM840 119L840.793 119.61L841.245 119.022L840.814 118.419L840 119ZM835 112L834.232 111.36L833.737 111.953L834.186 112.581L835 112ZM840 106L840.768 106.64L841.281 106.025L840.793 105.39L840 106ZM835 99.5L834.207 98.8903L833.738 99.5L834.207 100.11L835 99.5ZM840 93L840.793 93.6097L841.262 93L840.793 92.3903L840 93ZM835 86.5L834.207 85.8903L833.738 86.5L834.207 87.1097L835 86.5ZM840 80L840.793 80.6097L842.031 79H840V80ZM760.546 80.109L760.092 79.218L760.092 79.218L760.546 80.109ZM760.109 80.546L759.218 80.092L759.218 80.092L760.109 80.546ZM760.109 131.454L759.218 131.908L759.218 131.908L760.109 131.454ZM760.546 131.891L760.092 132.782L760.092 132.782L760.546 131.891ZM833.4 133H840V131H833.4V133ZM840.793 131.39L835.793 124.89L834.207 126.11L839.207 132.61L840.793 131.39ZM835.793 126.11L840.793 119.61L839.207 118.39L834.207 124.89L835.793 126.11ZM840.814 118.419L835.814 111.419L834.186 112.581L839.186 119.581L840.814 118.419ZM835.768 112.64L840.768 106.64L839.232 105.36L834.232 111.36L835.768 112.64ZM840.793 105.39L835.793 98.8903L834.207 100.11L839.207 106.61L840.793 105.39ZM835.793 100.11L840.793 93.6097L839.207 92.3903L834.207 98.8903L835.793 100.11ZM840.793 92.3903L835.793 85.8903L834.207 87.1097L839.207 93.6097L840.793 92.3903ZM835.793 87.1097L840.793 80.6097L839.207 79.3903L834.207 85.8903L835.793 87.1097ZM840 79H833.4V81H840V79ZM833.4 79H826V81H833.4V79ZM826 79H761.6V81H826V79ZM761.6 79C761.336 79 761.079 78.9992 760.862 79.0169C760.633 79.0356 760.363 79.0797 760.092 79.218L761 81C760.942 81.0293 760.92 81.0189 761.025 81.0103C761.141 81.0008 761.303 81 761.6 81V79ZM760.092 79.218C759.716 79.4097 759.41 79.7157 759.218 80.092L761 81L760.092 79.218ZM759.218 80.092C759.08 80.3634 759.036 80.6332 759.017 80.8618C758.999 81.0787 759 81.3365 759 81.6H761C761 81.3035 761.001 81.1412 761.01 81.0246C761.019 80.9197 761.029 80.9425 761 81L759.218 80.092ZM759 81.6V130.4H761V81.6H759ZM759 130.4C759 130.664 758.999 130.921 759.017 131.138C759.036 131.367 759.08 131.637 759.218 131.908L761 131C761.029 131.058 761.019 131.08 761.01 130.975C761.001 130.859 761 130.697 761 130.4H759ZM759.218 131.908C759.41 132.284 759.716 132.59 760.092 132.782L761 131L761 131L759.218 131.908ZM760.092 132.782C760.363 132.92 760.633 132.964 760.862 132.983C761.079 133.001 761.336 133 761.6 133V131C761.303 131 761.141 130.999 761.025 130.99C760.92 130.981 760.942 130.971 761 131L760.092 132.782ZM761.6 133H826V131H761.6V133ZM826 133H833.4V131H826V133Z" fill="#110529"/>
<path d="M800.093 114.3C798.66 114.3 797.443 113.983 796.443 113.35C795.443 112.717 794.68 111.837 794.153 110.71C793.633 109.583 793.373 108.28 793.373 106.8C793.373 105.32 793.633 104.017 794.153 102.89C794.68 101.763 795.443 100.883 796.443 100.25C797.443 99.6167 798.66 99.3 800.093 99.3C801.76 99.3 803.13 99.7233 804.203 100.57C805.283 101.417 806.027 102.557 806.433 103.99L804.623 104.47C804.33 103.397 803.807 102.55 803.053 101.93C802.3 101.31 801.313 101 800.093 101C799.02 101 798.127 101.243 797.413 101.73C796.7 102.217 796.163 102.897 795.803 103.77C795.443 104.637 795.26 105.647 795.253 106.8C795.247 107.947 795.423 108.957 795.783 109.83C796.143 110.697 796.683 111.377 797.403 111.87C798.123 112.357 799.02 112.6 800.093 112.6C801.313 112.6 802.3 112.29 803.053 111.67C803.807 111.043 804.33 110.197 804.623 109.13L806.433 109.61C806.027 111.037 805.283 112.177 804.203 113.03C803.13 113.877 801.76 114.3 800.093 114.3Z" fill="#110529"/>
<path d="M37.6881 114H39.4681V101.29H44.3781V99.6H32.7781V101.29H37.6881V114ZM51.8903 114.3C55.2203 114.3 57.4103 112.47 58.2303 109.61L56.4203 109.13C55.8303 111.27 54.3203 112.6 51.8903 112.6C48.6703 112.6 47.0303 110.25 47.0503 106.8C47.0703 103.35 48.6703 101 51.8903 101C54.3203 101 55.8303 102.33 56.4203 104.47L58.2303 103.99C57.4103 101.13 55.2203 99.3 51.8903 99.3C47.5803 99.3 45.1703 102.36 45.1703 106.8C45.1703 111.24 47.5803 114.3 51.8903 114.3ZM60.4234 114H62.2034V108.68H66.4134L68.9934 114H71.0334L68.2534 108.29C69.8834 107.61 70.7334 106.04 70.7334 104.14C70.7334 101.85 69.5034 100.04 67.1734 99.68C66.8034 99.62 66.3934 99.6 66.1134 99.6H60.4234V114ZM62.2034 106.99V101.29H66.0534C66.3034 101.29 66.6534 101.31 66.9534 101.38C68.3334 101.69 68.9134 102.94 68.9134 104.14C68.9134 105.34 68.3334 106.59 66.9534 106.9C66.6534 106.97 66.3034 106.99 66.0534 106.99H62.2034ZM77.2298 103.2V118.8H79.0098V113.39C79.7198 113.96 80.7098 114.3 81.9398 114.3C84.9898 114.3 86.8398 112.57 86.8398 109.95C86.8398 107.74 85.4398 106.44 84.0498 106.09C85.0998 105.58 85.6098 104.5 85.6098 103.22C85.6098 100.84 83.8598 99.3 81.3698 99.3C79.5098 99.3 77.9798 100.16 77.4498 101.78C77.2998 102.23 77.2298 102.71 77.2298 103.2ZM79.0498 109.71V103.86C79.0498 103.44 79.0698 102.8 79.2798 102.28C79.6398 101.35 80.5198 100.99 81.4098 100.99C82.7898 100.99 83.7898 101.82 83.7898 103.24C83.7898 104.67 82.7898 105.4 81.4198 105.54V107.14C83.6098 107.18 85.0298 108.1 85.0298 109.87C85.0298 111.52 83.7898 112.61 82.0198 112.61C80.7698 112.61 79.5298 112.04 79.1998 111.01C79.0798 110.64 79.0498 110.1 79.0498 109.71Z" fill="white"/>
<path d="M140 156L139.293 156.707L138.586 156L139.293 155.293L140 156ZM147.293 147.293L148 146.586L149.414 148L148.707 148.707L147.293 147.293ZM148.707 163.293L149.414 164L148 165.414L147.293 164.707L148.707 163.293ZM150 157L140 157L140 155L150 155L150 157ZM139.293 155.293L147.293 147.293L148.707 148.707L140.707 156.707L139.293 155.293ZM140.707 155.293L148.707 163.293L147.293 164.707L139.293 156.707L140.707 155.293Z" fill="#D3D7E0"/>
<path d="M450.5 156H150" stroke="#D3D7E0" stroke-width="2"/>
<rect width="57" height="20" transform="translate(450.5 146)" fill="#1D1D29"/>
<path d="M459.678 162.224C461.814 162.224 463.438 160.664 463.438 158.456C463.438 156.44 462.158 154.944 460.174 154.832L463.286 151.848V150.48H456.494V151.84H461.518L457.774 155.224L458.462 156.352C458.822 156.168 459.262 156.048 459.654 156.048C461.038 156.048 461.974 157.032 461.974 158.456C461.974 159.864 461.07 160.84 459.67 160.864C458.646 160.88 457.75 160.312 457.406 159.24L456.038 159.632C456.526 161.232 457.966 162.224 459.678 162.224ZM468.678 162.224C470.814 162.224 472.438 160.664 472.438 158.456C472.438 156.44 471.158 154.944 469.174 154.832L472.286 151.848V150.48H465.494V151.84H470.518L466.774 155.224L467.462 156.352C467.822 156.168 468.262 156.048 468.654 156.048C470.038 156.048 470.974 157.032 470.974 158.456C470.974 159.864 470.07 160.84 468.67 160.864C467.646 160.88 466.75 160.312 466.406 159.24L465.038 159.632C465.526 161.232 466.966 162.224 468.678 162.224ZM478.406 162.24C480.646 162.24 482.294 160.592 482.294 158.352V154.128C482.294 151.888 480.646 150.24 478.406 150.24C476.166 150.24 474.518 151.888 474.518 154.128V158.352C474.518 160.592 476.166 162.24 478.406 162.24ZM475.966 158.432V154.04C475.966 152.688 477.054 151.6 478.406 151.6C479.758 151.6 480.846 152.688 480.846 154.04V158.432C480.846 159.784 479.758 160.872 478.406 160.872C477.054 160.872 475.966 159.784 475.966 158.432ZM488.502 162.24C490.918 162.24 492.374 160.264 492.374 157.672C492.374 155.08 490.91 153.12 488.51 153.12C487.43 153.12 486.574 153.496 485.958 154.144V150.48H484.526V162H485.798V161.024C486.43 161.784 487.334 162.24 488.502 162.24ZM485.798 157.672C485.798 155.76 486.598 154.424 488.286 154.424C490.046 154.424 490.862 155.848 490.862 157.672C490.862 159.512 490.03 160.936 488.326 160.936C486.582 160.936 485.798 159.568 485.798 157.672ZM498.096 162.24C500.512 162.24 501.968 160.264 501.968 157.672C501.968 155.08 500.504 153.12 498.104 153.12C496.928 153.12 496.024 153.568 495.392 154.328V153.36H494.12V165.84H495.552V161.2C496.168 161.856 497.024 162.24 498.096 162.24ZM495.392 157.672C495.392 155.76 496.192 154.424 497.88 154.424C499.64 154.424 500.456 155.848 500.456 157.672C500.456 159.512 499.624 160.936 497.92 160.936C496.176 160.936 495.392 159.568 495.392 157.672Z" fill="white"/>
<path d="M808 156H507.5" stroke="#D3D7E0" stroke-width="2"/>
<path d="M816.62 162H818.044V157.744H821.412L823.476 162H825.108L822.884 157.432C824.188 156.888 824.868 155.632 824.868 154.112C824.868 152.28 823.884 150.832 822.02 150.544C821.724 150.496 821.396 150.48 821.172 150.48H816.62V162ZM818.044 156.392V151.832H821.124C821.324 151.832 821.604 151.848 821.844 151.904C822.948 152.152 823.412 153.152 823.412 154.112C823.412 155.072 822.948 156.072 821.844 156.32C821.604 156.376 821.324 156.392 821.124 156.392H818.044ZM828.878 162H830.326V150.48H828.878L826.71 151.776V153.368L828.878 152.056V162Z" fill="white"/>
<rect x="808" y="144" width="32" height="24" rx="1" stroke="#D3D7E0" stroke-width="2"/>
<defs>
<filter id="filter0_i_6281_38611" x="118.737" y="79" width="402.263" height="54" filterUnits="userSpaceOnUse" color-interpolation-filters="sRGB">
<feFlood flood-opacity="0" result="BackgroundImageFix"/>
<feBlend mode="normal" in="SourceGraphic" in2="BackgroundImageFix" result="shape"/>
<feColorMatrix in="SourceAlpha" type="matrix" values="0 0 0 0 0 0 0 0 0 0 0 0 0 0 0 0 0 0 127 0" result="hardAlpha"/>
<feOffset dx="-8" dy="-4"/>
<feComposite in2="hardAlpha" operator="arithmetic" k2="-1" k3="1"/>
<feColorMatrix type="matrix" values="0 0 0 0 0.0666667 0 0 0 0 0.0196078 0 0 0 0 0.160784 0 0 0 0.16 0"/>
<feBlend mode="normal" in2="shape" result="effect1_innerShadow_6281_38611"/>
</filter>
<filter id="filter1_i_6281_38611" x="519" y="79" width="32" height="54" filterUnits="userSpaceOnUse" color-interpolation-filters="sRGB">
<feFlood flood-opacity="0" result="BackgroundImageFix"/>
<feBlend mode="normal" in="SourceGraphic" in2="BackgroundImageFix" result="shape"/>
<feColorMatrix in="SourceAlpha" type="matrix" values="0 0 0 0 0 0 0 0 0 0 0 0 0 0 0 0 0 0 127 0" result="hardAlpha"/>
<feOffset dx="-8" dy="-4"/>
<feComposite in2="hardAlpha" operator="arithmetic" k2="-1" k3="1"/>
<feColorMatrix type="matrix" values="0 0 0 0 0.0666667 0 0 0 0 0.0196078 0 0 0 0 0.160784 0 0 0 0.16 0"/>
<feBlend mode="normal" in2="shape" result="effect1_innerShadow_6281_38611"/>
</filter>
<filter id="filter2_i_6281_38611" x="585" y="79" width="32" height="54" filterUnits="userSpaceOnUse" color-interpolation-filters="sRGB">
<feFlood flood-opacity="0" result="BackgroundImageFix"/>
<feBlend mode="normal" in="SourceGraphic" in2="BackgroundImageFix" result="shape"/>
<feColorMatrix in="SourceAlpha" type="matrix" values="0 0 0 0 0 0 0 0 0 0 0 0 0 0 0 0 0 0 127 0" result="hardAlpha"/>
<feOffset dx="-8" dy="-4"/>
<feComposite in2="hardAlpha" operator="arithmetic" k2="-1" k3="1"/>
<feColorMatrix type="matrix" values="0 0 0 0 0.0666667 0 0 0 0 0.0196078 0 0 0 0 0.160784 0 0 0 0.16 0"/>
<feBlend mode="normal" in2="shape" result="effect1_innerShadow_6281_38611"/>
</filter>
<filter id="filter3_i_6281_38611" x="549" y="79" width="38" height="54" filterUnits="userSpaceOnUse" color-interpolation-filters="sRGB">
<feFlood flood-opacity="0" result="BackgroundImageFix"/>
<feBlend mode="normal" in="SourceGraphic" in2="BackgroundImageFix" result="shape"/>
<feColorMatrix in="SourceAlpha" type="matrix" values="0 0 0 0 0 0 0 0 0 0 0 0 0 0 0 0 0 0 127 0" result="hardAlpha"/>
<feOffset dx="-8" dy="-4"/>
<feComposite in2="hardAlpha" operator="arithmetic" k2="-1" k3="1"/>
<feColorMatrix type="matrix" values="0 0 0 0 0.0666667 0 0 0 0 0.0196078 0 0 0 0 0.160784 0 0 0 0.16 0"/>
<feBlend mode="normal" in2="shape" result="effect1_innerShadow_6281_38611"/>
</filter>
<filter id="filter4_i_6281_38611" x="615" y="79" width="146" height="54" filterUnits="userSpaceOnUse" color-interpolation-filters="sRGB">
<feFlood flood-opacity="0" result="BackgroundImageFix"/>
<feBlend mode="normal" in="SourceGraphic" in2="BackgroundImageFix" result="shape"/>
<feColorMatrix in="SourceAlpha" type="matrix" values="0 0 0 0 0 0 0 0 0 0 0 0 0 0 0 0 0 0 127 0" result="hardAlpha"/>
<feOffset dx="-8" dy="-4"/>
<feComposite in2="hardAlpha" operator="arithmetic" k2="-1" k3="1"/>
<feColorMatrix type="matrix" values="0 0 0 0 0.0666667 0 0 0 0 0.0196078 0 0 0 0 0.160784 0 0 0 0.16 0"/>
<feBlend mode="normal" in2="shape" result="effect1_innerShadow_6281_38611"/>
</filter>
<filter id="filter5_i_6281_38611" x="759" y="79" width="83.0312" height="54" filterUnits="userSpaceOnUse" color-interpolation-filters="sRGB">
<feFlood flood-opacity="0" result="BackgroundImageFix"/>
<feBlend mode="normal" in="SourceGraphic" in2="BackgroundImageFix" result="shape"/>
<feColorMatrix in="SourceAlpha" type="matrix" values="0 0 0 0 0 0 0 0 0 0 0 0 0 0 0 0 0 0 127 0" result="hardAlpha"/>
<feOffset dx="-8" dy="-4"/>
<feComposite in2="hardAlpha" operator="arithmetic" k2="-1" k3="1"/>
<feColorMatrix type="matrix" values="0 0 0 0 0.0666667 0 0 0 0 0.0196078 0 0 0 0 0.160784 0 0 0 0.16 0"/>
<feBlend mode="normal" in2="shape" result="effect1_innerShadow_6281_38611"/>
</filter>
<filter id="filter6_i_6281_38611" x="759" y="79" width="83.0312" height="54" filterUnits="userSpaceOnUse" color-interpolation-filters="sRGB">
<feFlood flood-opacity="0" result="BackgroundImageFix"/>
<feBlend mode="normal" in="SourceGraphic" in2="BackgroundImageFix" result="shape"/>
<feColorMatrix in="SourceAlpha" type="matrix" values="0 0 0 0 0 0 0 0 0 0 0 0 0 0 0 0 0 0 127 0" result="hardAlpha"/>
<feOffset dx="-8" dy="-4"/>
<feComposite in2="hardAlpha" operator="arithmetic" k2="-1" k3="1"/>
<feColorMatrix type="matrix" values="0 0 0 0 0.0666667 0 0 0 0 0.0196078 0 0 0 0 0.160784 0 0 0 0.16 0"/>
<feBlend mode="normal" in2="shape" result="effect1_innerShadow_6281_38611"/>
</filter>
</defs>
</svg>
