<svg width="960" height="192" viewBox="0 0 960 192" fill="none" xmlns="http://www.w3.org/2000/svg">
    <rect width="960" height="192" fill="white"/>
    <path d="M157.442 37H163.469V35.621H158.905V26.92H157.442V37Z" fill="#D3D7E0"/>
    <path d="M184 112V24" stroke="#D3D7E0" stroke-width="2" stroke-linecap="square" stroke-dasharray="6 6"/>
    <path d="M195.229 37H196.776V35.453H195.229V37Z" fill="white"/>
    <path d="M208 112V24" stroke="#D3D7E0" stroke-width="2" stroke-linecap="square" stroke-dasharray="6 6"/>
    <path d="M229.858 37H231.321V32.695H234.989V31.225H231.321V28.383H235.829V26.92H229.858V37ZM237.09 37H238.553V33.381H241.227L242.984 37H244.657L242.753 33.094C243.894 32.597 244.468 31.491 244.468 30.147C244.468 28.516 243.628 27.235 241.941 26.976C241.675 26.934 241.36 26.92 241.164 26.92H237.09V37ZM238.553 31.995V28.299H241.108C241.29 28.299 241.535 28.313 241.745 28.369C242.641 28.579 242.977 29.405 242.977 30.147C242.977 30.889 242.641 31.715 241.745 31.932C241.535 31.981 241.29 31.995 241.108 31.995H238.553ZM247.953 37H249.444V26.92H247.953L246.056 28.054V29.685L247.953 28.53V37Z" fill="#D3D7E0"/>
    <path d="M272 112V24" stroke="#D3D7E0" stroke-width="2" stroke-linecap="square" stroke-dasharray="6 6"/>
    <path d="M291.735 37.21C294.059 37.21 295.62 35.943 296.215 33.955L294.731 33.556C294.332 34.963 293.331 35.817 291.735 35.817C289.593 35.817 288.501 34.27 288.515 31.96C288.522 29.65 289.593 28.103 291.735 28.103C293.331 28.103 294.332 28.957 294.731 30.364L296.215 29.965C295.62 27.977 294.059 26.71 291.735 26.71C288.711 26.71 286.968 28.845 286.968 31.96C286.968 35.075 288.711 37.21 291.735 37.21ZM297.754 37H300.911C301.093 37 301.695 37 302.164 36.937C304.53 36.636 305.79 34.529 305.79 31.96C305.79 29.391 304.53 27.284 302.164 26.983C301.695 26.92 301.093 26.92 300.911 26.92H297.754V37ZM299.252 35.607V28.313H300.911C301.219 28.313 301.723 28.32 302.059 28.383C303.571 28.663 304.236 30.189 304.236 31.96C304.236 33.689 303.599 35.243 302.059 35.537C301.723 35.6 301.233 35.607 300.911 35.607H299.252ZM307.42 37H308.883V33.381H311.557L313.314 37H314.987L313.083 33.094C314.224 32.597 314.798 31.491 314.798 30.147C314.798 28.516 313.958 27.235 312.271 26.976C312.005 26.934 311.69 26.92 311.494 26.92H307.42V37ZM308.883 31.995V28.299H311.438C311.62 28.299 311.865 28.313 312.075 28.369C312.971 28.579 313.307 29.405 313.307 30.147C313.307 30.889 312.971 31.715 312.075 31.932C311.865 31.981 311.62 31.995 311.438 31.995H308.883ZM318.283 37H319.774V26.92H318.283L316.386 28.054V29.685L318.283 28.53V37Z" fill="#D3D7E0"/>
    <path d="M336 112V24" stroke="#D3D7E0" stroke-width="2" stroke-linecap="square" stroke-dasharray="6 6"/>
    <path d="M356.703 37H358.166V32.695H361.834V31.225H358.166V28.383H362.674V26.92H356.703V37ZM363.935 37H365.398V33.381H368.072L369.829 37H371.502L369.598 33.094C370.739 32.597 371.313 31.491 371.313 30.147C371.313 28.516 370.473 27.235 368.786 26.976C368.52 26.934 368.205 26.92 368.009 26.92H363.935V37ZM365.398 31.995V28.299H367.953C368.135 28.299 368.38 28.313 368.59 28.369C369.486 28.579 369.822 29.405 369.822 30.147C369.822 30.889 369.486 31.715 368.59 31.932C368.38 31.981 368.135 31.995 367.953 31.995H365.398ZM372.761 36.993H379.579V35.6H375.022L377.941 32.996C379.033 32.037 379.579 31.407 379.579 30.028C379.579 28.117 378.144 26.71 376.24 26.71C374.231 26.71 372.796 28.047 372.796 30H374.294C374.28 28.985 375.092 28.103 376.212 28.103C377.297 28.103 378.074 28.929 378.074 30.007C378.074 30.581 377.864 31.127 377.157 31.757L372.768 35.691L372.761 36.993Z" fill="#D3D7E0"/>
    <path d="M400 112V24" stroke="#D3D7E0" stroke-width="2" stroke-linecap="square" stroke-dasharray="6 6"/>
    <path d="M418.58 37.21C420.904 37.21 422.465 35.943 423.06 33.955L421.576 33.556C421.177 34.963 420.176 35.817 418.58 35.817C416.438 35.817 415.346 34.27 415.36 31.96C415.367 29.65 416.438 28.103 418.58 28.103C420.176 28.103 421.177 28.957 421.576 30.364L423.06 29.965C422.465 27.977 420.904 26.71 418.58 26.71C415.556 26.71 413.813 28.845 413.813 31.96C413.813 35.075 415.556 37.21 418.58 37.21ZM424.599 37H427.756C427.938 37 428.54 37 429.009 36.937C431.375 36.636 432.635 34.529 432.635 31.96C432.635 29.391 431.375 27.284 429.009 26.983C428.54 26.92 427.938 26.92 427.756 26.92H424.599V37ZM426.097 35.607V28.313H427.756C428.064 28.313 428.568 28.32 428.904 28.383C430.416 28.663 431.081 30.189 431.081 31.96C431.081 33.689 430.444 35.243 428.904 35.537C428.568 35.6 428.078 35.607 427.756 35.607H426.097ZM434.265 37H435.728V33.381H438.402L440.159 37H441.832L439.928 33.094C441.069 32.597 441.643 31.491 441.643 30.147C441.643 28.516 440.803 27.235 439.116 26.976C438.85 26.934 438.535 26.92 438.339 26.92H434.265V37ZM435.728 31.995V28.299H438.283C438.465 28.299 438.71 28.313 438.92 28.369C439.816 28.579 440.152 29.405 440.152 30.147C440.152 30.889 439.816 31.715 438.92 31.932C438.71 31.981 438.465 31.995 438.283 31.995H435.728ZM443.091 36.993H449.909V35.6H445.352L448.271 32.996C449.363 32.037 449.909 31.407 449.909 30.028C449.909 28.117 448.474 26.71 446.57 26.71C444.561 26.71 443.126 28.047 443.126 30H444.624C444.61 28.985 445.422 28.103 446.542 28.103C447.627 28.103 448.404 28.929 448.404 30.007C448.404 30.581 448.194 31.127 447.487 31.757L443.098 35.691L443.091 36.993Z" fill="#D3D7E0"/>
    <path d="M464 112V24" stroke="#D3D7E0" stroke-width="2" stroke-linecap="square" stroke-dasharray="6 6"/>
    <path d="M484.805 37H486.268V32.695H489.936V31.225H486.268V28.383H490.776V26.92H484.805V37ZM492.038 37H493.501V33.381H496.175L497.932 37H499.605L497.701 33.094C498.842 32.597 499.416 31.491 499.416 30.147C499.416 28.516 498.576 27.235 496.889 26.976C496.623 26.934 496.308 26.92 496.112 26.92H492.038V37ZM493.501 31.995V28.299H496.056C496.238 28.299 496.483 28.313 496.693 28.369C497.589 28.579 497.925 29.405 497.925 30.147C497.925 30.889 497.589 31.715 496.693 31.932C496.483 31.981 496.238 31.995 496.056 31.995H493.501ZM503.964 37.189C505.847 37.189 507.331 35.796 507.331 33.871C507.331 32.233 506.323 30.924 504.692 30.707L507.184 28.313V26.92H501.122V28.313H505.392L502.312 31.036L502.998 32.191C503.285 32.037 503.628 31.939 503.95 31.939C505.07 31.939 505.833 32.751 505.833 33.871C505.833 34.984 505.07 35.789 503.964 35.803C503.138 35.81 502.403 35.341 502.137 34.466L500.723 34.858C501.15 36.293 502.466 37.189 503.964 37.189Z" fill="#D3D7E0"/>
    <path d="M528 112V24" stroke="#D3D7E0" stroke-width="2" stroke-linecap="square" stroke-dasharray="6 6"/>
    <path d="M574.682 37.21C577.006 37.21 578.567 35.943 579.162 33.955L577.678 33.556C577.279 34.963 576.278 35.817 574.682 35.817C572.54 35.817 571.448 34.27 571.462 31.96C571.469 29.65 572.54 28.103 574.682 28.103C576.278 28.103 577.279 28.957 577.678 30.364L579.162 29.965C578.567 27.977 577.006 26.71 574.682 26.71C571.658 26.71 569.915 28.845 569.915 31.96C569.915 35.075 571.658 37.21 574.682 37.21ZM580.702 37H583.859C584.041 37 584.643 37 585.112 36.937C587.478 36.636 588.738 34.529 588.738 31.96C588.738 29.391 587.478 27.284 585.112 26.983C584.643 26.92 584.041 26.92 583.859 26.92H580.702V37ZM582.2 35.607V28.313H583.859C584.167 28.313 584.671 28.32 585.007 28.383C586.519 28.663 587.184 30.189 587.184 31.96C587.184 33.689 586.547 35.243 585.007 35.537C584.671 35.6 584.181 35.607 583.859 35.607H582.2ZM590.368 37H591.831V33.381H594.505L596.262 37H597.935L596.031 33.094C597.172 32.597 597.746 31.491 597.746 30.147C597.746 28.516 596.906 27.235 595.219 26.976C594.953 26.934 594.638 26.92 594.442 26.92H590.368V37ZM591.831 31.995V28.299H594.386C594.568 28.299 594.813 28.313 595.023 28.369C595.919 28.579 596.255 29.405 596.255 30.147C596.255 30.889 595.919 31.715 595.023 31.932C594.813 31.981 594.568 31.995 594.386 31.995H591.831ZM602.294 37.189C604.177 37.189 605.661 35.796 605.661 33.871C605.661 32.233 604.653 30.924 603.022 30.707L605.514 28.313V26.92H599.452V28.313H603.722L600.642 31.036L601.328 32.191C601.615 32.037 601.958 31.939 602.28 31.939C603.4 31.939 604.163 32.751 604.163 33.871C604.163 34.984 603.4 35.789 602.294 35.803C601.468 35.81 600.733 35.341 600.467 34.466L599.053 34.858C599.48 36.293 600.796 37.189 602.294 37.189Z" fill="#D3D7E0"/>
    <path d="M648 112V24" stroke="#D3D7E0" stroke-width="2" stroke-linecap="square" stroke-dasharray="6 6"/>
    <path d="M702.593 37H704.056V32.695H707.724V31.225H704.056V28.383H708.564V26.92H702.593V37ZM709.826 37H711.289V33.381H713.963L715.72 37H717.393L715.489 33.094C716.63 32.597 717.204 31.491 717.204 30.147C717.204 28.516 716.364 27.235 714.677 26.976C714.411 26.934 714.096 26.92 713.9 26.92H709.826V37ZM711.289 31.995V28.299H713.844C714.026 28.299 714.271 28.313 714.481 28.369C715.377 28.579 715.713 29.405 715.713 30.147C715.713 30.889 715.377 31.715 714.481 31.932C714.271 31.981 714.026 31.995 713.844 31.995H711.289ZM723.201 37H724.685V35.243H725.686V33.857H724.685V31.127H723.201V33.857H720.324L723.6 26.92H721.927L718.651 33.857V35.243H723.201V37Z" fill="#D3D7E0"/>
    <g filter="url(#filter0_i_6281_38425)">
        <path fill-rule="evenodd" clip-rule="evenodd" d="M133.6 80H125L120 86.5L125 93L120 99.5L125 106L120 112L125 119L120 125.5L125 132H133.6H134H182.4C182.96 132 183.24 132 183.454 131.891C183.642 131.795 183.795 131.642 183.891 131.454C184 131.24 184 130.96 184 130.4V125.5V119V112V106V99.5V93V86.5V81.6C184 81.0399 184 80.7599 183.891 80.546C183.795 80.3578 183.642 80.2049 183.454 80.109C183.24 80 182.96 80 182.4 80H134H133.6Z" fill="#99E099"/>
    </g>
    <path d="M125 80V79H124.508L124.207 79.3903L125 80ZM120 86.5L119.207 85.8903L118.738 86.5L119.207 87.1097L120 86.5ZM125 93L125.793 93.6097L126.262 93L125.793 92.3903L125 93ZM120 99.5L119.207 98.8903L118.738 99.5L119.207 100.11L120 99.5ZM125 106L125.768 106.64L126.281 106.025L125.793 105.39L125 106ZM120 112L119.232 111.36L118.737 111.953L119.186 112.581L120 112ZM125 119L125.793 119.61L126.245 119.022L125.814 118.419L125 119ZM120 125.5L119.207 124.89L118.738 125.5L119.207 126.11L120 125.5ZM125 132L124.207 132.61L124.508 133H125V132ZM183.454 131.891L183.908 132.782L183.908 132.782L183.454 131.891ZM183.891 131.454L184.782 131.908L184.782 131.908L183.891 131.454ZM183.891 80.546L184.782 80.092V80.092L183.891 80.546ZM183.454 80.109L183.908 79.218L183.908 79.218L183.454 80.109ZM125 81H133.6V79H125V81ZM120.793 87.1097L125.793 80.6097L124.207 79.3903L119.207 85.8903L120.793 87.1097ZM125.793 92.3903L120.793 85.8903L119.207 87.1097L124.207 93.6097L125.793 92.3903ZM120.793 100.11L125.793 93.6097L124.207 92.3903L119.207 98.8903L120.793 100.11ZM125.793 105.39L120.793 98.8903L119.207 100.11L124.207 106.61L125.793 105.39ZM120.768 112.64L125.768 106.64L124.232 105.36L119.232 111.36L120.768 112.64ZM125.814 118.419L120.814 111.419L119.186 112.581L124.186 119.581L125.814 118.419ZM120.793 126.11L125.793 119.61L124.207 118.39L119.207 124.89L120.793 126.11ZM125.793 131.39L120.793 124.89L119.207 126.11L124.207 132.61L125.793 131.39ZM133.6 131H125V133H133.6V131ZM133.6 133H134V131H133.6V133ZM134 133H182.4V131H134V133ZM182.4 133C182.664 133 182.921 133.001 183.138 132.983C183.367 132.964 183.637 132.92 183.908 132.782L183 131C183.058 130.971 183.08 130.981 182.975 130.99C182.859 130.999 182.697 131 182.4 131V133ZM183.908 132.782C184.284 132.59 184.59 132.284 184.782 131.908L183 131L183 131L183.908 132.782ZM184.782 131.908C184.92 131.637 184.964 131.367 184.983 131.138C185.001 130.921 185 130.664 185 130.4H183C183 130.697 182.999 130.859 182.99 130.975C182.981 131.08 182.971 131.058 183 131L184.782 131.908ZM185 130.4V125.5H183V130.4H185ZM185 125.5V119H183V125.5H185ZM185 119V112H183V119H185ZM185 112V106H183V112H185ZM185 106V99.5H183V106H185ZM185 99.5V93H183V99.5H185ZM185 93V86.5H183V93H185ZM185 86.5V81.6H183V86.5H185ZM185 81.6C185 81.3365 185.001 81.0787 184.983 80.8618C184.964 80.6332 184.92 80.3634 184.782 80.092L183 81C182.971 80.9425 182.981 80.9197 182.99 81.0246C182.999 81.1412 183 81.3035 183 81.6H185ZM184.782 80.092C184.59 79.7157 184.284 79.4097 183.908 79.218L183 81L183 81L184.782 80.092ZM183.908 79.218C183.637 79.0797 183.367 79.0356 183.138 79.0169C182.921 78.9992 182.664 79 182.4 79V81C182.697 81 182.859 81.0008 182.975 81.0103C183.08 81.0189 183.058 81.0293 183 81L183.908 79.218ZM182.4 79H134V81H182.4V79ZM134 79H133.6V81H134V79Z" fill="#110529"/>
    <g filter="url(#filter1_i_6281_38425)">
        <rect x="184" y="80" width="24" height="52" rx="1" fill="#F0F0F0"/>
        <rect x="184" y="80" width="24" height="52" rx="1" stroke="#110529" stroke-width="2" stroke-linecap="round"/>
    </g>
    <g filter="url(#filter2_i_6281_38425)">
        <path d="M540 81.6C540 81.0399 540 80.7599 539.891 80.546C539.795 80.3578 539.642 80.2049 539.454 80.109C539.24 80 538.96 80 538.4 80H209.6C209.04 80 208.76 80 208.546 80.109C208.358 80.2049 208.205 80.3578 208.109 80.546C208 80.7599 208 81.0399 208 81.6V130.4C208 130.96 208 131.24 208.109 131.454C208.205 131.642 208.358 131.795 208.546 131.891C208.76 132 209.04 132 209.6 132H538.4C538.96 132 539.24 132 539.454 131.891C539.642 131.795 539.795 131.642 539.891 131.454C540 131.24 540 130.96 540 130.4V125.5V119V112V106V99.5V93V86.5V81.6Z" fill="#99E099"/>
    </g>
    <path d="M540 81.6C540 81.0399 540 80.7599 539.891 80.546C539.795 80.3578 539.642 80.2049 539.454 80.109C539.24 80 538.96 80 538.4 80H209.6C209.04 80 208.76 80 208.546 80.109C208.358 80.2049 208.205 80.3578 208.109 80.546C208 80.7599 208 81.0399 208 81.6V130.4C208 130.96 208 131.24 208.109 131.454C208.205 131.642 208.358 131.795 208.546 131.891C208.76 132 209.04 132 209.6 132H538.4C538.96 132 539.24 132 539.454 131.891C539.642 131.795 539.795 131.642 539.891 131.454C540 131.24 540 130.96 540 130.4V125.5V119V112V106V99.5V93V86.5V81.6Z" stroke="#110529" stroke-width="2" stroke-linecap="round"/>
    <path d="M372.758 114H375.238L380.058 99.6H378.208L373.978 112.11L369.788 99.6H367.938L372.758 114Z" fill="#110529"/>
    <g filter="url(#filter3_i_6281_38425)">
        <rect x="540" y="80" width="30" height="52" rx="1" fill="#CBEB67"/>
    </g>
    <rect x="540" y="80" width="30" height="52" rx="1" stroke="#110529" stroke-width="2" stroke-linecap="round"/>
    <g filter="url(#filter4_i_6281_38425)">
        <rect x="606" y="80" width="30" height="52" rx="1" fill="#FAAAFA"/>
    </g>
    <rect x="606" y="80" width="30" height="52" rx="1" stroke="#110529" stroke-width="2" stroke-linecap="round"/>
    <g filter="url(#filter5_i_6281_38425)">
        <rect x="570" y="80" width="36" height="52" rx="1" fill="#FFCB8F"/>
    </g>
    <rect x="570" y="80" width="36" height="52" rx="1" stroke="#110529" stroke-width="2" stroke-linecap="round"/>
    <path d="M549.447 114H551.247V102.74L558.757 114H560.557V99.6H558.757V110.85L551.247 99.6H549.447V114Z" fill="#110529"/>
    <path d="M615.447 114H617.247V102.74L624.757 114H626.557V99.6H624.757V110.85L617.247 99.6H615.447V114Z" fill="#110529"/>
    <path d="M582.593 114H587.033C587.303 114 588.183 114 588.853 113.91C592.183 113.47 593.913 110.48 593.913 106.8C593.913 103.13 592.183 100.13 588.853 99.69C588.173 99.6 587.313 99.6 587.033 99.6H582.593V114ZM584.423 112.3V101.3H587.033C587.513 101.3 588.233 101.32 588.703 101.41C591.033 101.83 592.023 104.08 592.023 106.8C592.023 109.47 591.063 111.76 588.703 112.19C588.233 112.28 587.533 112.3 587.033 112.3H584.423Z" fill="#110529"/>
    <g filter="url(#filter6_i_6281_38425)">
        <path fill-rule="evenodd" clip-rule="evenodd" d="M773.4 132H780L775 125.5L780 119L775 112L780 106L775 99.5L780 93L775 86.5L780 80H773.4H766H637.6C637.04 80 636.76 80 636.546 80.109C636.358 80.2049 636.205 80.3578 636.109 80.546C636 80.7599 636 81.0399 636 81.6V130.4C636 130.96 636 131.24 636.109 131.454C636.205 131.642 636.358 131.795 636.546 131.891C636.76 132 637.04 132 637.6 132H766H773.4Z" fill="#C1ADFF"/>
    </g>
    <path d="M780 132V133H782.031L780.793 131.39L780 132ZM775 125.5L774.207 124.89L773.738 125.5L774.207 126.11L775 125.5ZM780 119L780.793 119.61L781.245 119.022L780.814 118.419L780 119ZM775 112L774.232 111.36L773.737 111.953L774.186 112.581L775 112ZM780 106L780.768 106.64L781.281 106.025L780.793 105.39L780 106ZM775 99.5L774.207 98.8903L773.738 99.5L774.207 100.11L775 99.5ZM780 93L780.793 93.6097L781.262 93L780.793 92.3903L780 93ZM775 86.5L774.207 85.8903L773.738 86.5L774.207 87.1097L775 86.5ZM780 80L780.793 80.6097L782.031 79H780V80ZM636.546 80.109L636.092 79.218L636.092 79.218L636.546 80.109ZM636.109 80.546L637 81L637 81L636.109 80.546ZM636.109 131.454L635.218 131.908H635.218L636.109 131.454ZM636.546 131.891L636.092 132.782L636.092 132.782L636.546 131.891ZM773.4 133H780V131H773.4V133ZM780.793 131.39L775.793 124.89L774.207 126.11L779.207 132.61L780.793 131.39ZM775.793 126.11L780.793 119.61L779.207 118.39L774.207 124.89L775.793 126.11ZM780.814 118.419L775.814 111.419L774.186 112.581L779.186 119.581L780.814 118.419ZM775.768 112.64L780.768 106.64L779.232 105.36L774.232 111.36L775.768 112.64ZM780.793 105.39L775.793 98.8903L774.207 100.11L779.207 106.61L780.793 105.39ZM775.793 100.11L780.793 93.6097L779.207 92.3903L774.207 98.8903L775.793 100.11ZM780.793 92.3903L775.793 85.8903L774.207 87.1097L779.207 93.6097L780.793 92.3903ZM775.793 87.1097L780.793 80.6097L779.207 79.3903L774.207 85.8903L775.793 87.1097ZM780 79H773.4V81H780V79ZM773.4 79H766V81H773.4V79ZM766 79H637.6V81H766V79ZM637.6 79C637.336 79 637.079 78.9992 636.862 79.0169C636.633 79.0356 636.363 79.0797 636.092 79.218L637 81C636.942 81.0293 636.92 81.0189 637.025 81.0103C637.141 81.0008 637.303 81 637.6 81V79ZM636.092 79.218C635.716 79.4097 635.41 79.7157 635.218 80.092L637 81L636.092 79.218ZM635.218 80.092C635.08 80.3634 635.036 80.6332 635.017 80.8618C634.999 81.0787 635 81.3365 635 81.6H637C637 81.3035 637.001 81.1412 637.01 81.0246C637.019 80.9197 637.029 80.9425 637 81L635.218 80.092ZM635 81.6V130.4H637V81.6H635ZM635 130.4C635 130.664 634.999 130.921 635.017 131.138C635.036 131.367 635.08 131.637 635.218 131.908L637 131C637.029 131.058 637.019 131.08 637.01 130.975C637.001 130.859 637 130.697 637 130.4H635ZM635.218 131.908C635.41 132.284 635.716 132.59 636.092 132.782L637 131L637 131L635.218 131.908ZM636.092 132.782C636.363 132.92 636.633 132.964 636.862 132.983C637.079 133.001 637.336 133 637.6 133V131C637.303 131 637.141 130.999 637.025 130.99C636.92 130.981 636.942 130.971 637 131L636.092 132.782ZM637.6 133H766V131H637.6V133ZM766 133H773.4V131H766V133Z" fill="#110529"/>
    <g filter="url(#filter7_i_6281_38425)">
        <path fill-rule="evenodd" clip-rule="evenodd" d="M773.4 132H780L775 125.5L780 119L775 112L780 106L775 99.5L780 93L775 86.5L780 80H773.4H766H637.6C637.04 80 636.76 80 636.546 80.109C636.358 80.2049 636.205 80.3578 636.109 80.546C636 80.7599 636 81.0399 636 81.6V130.4C636 130.96 636 131.24 636.109 131.454C636.205 131.642 636.358 131.795 636.546 131.891C636.76 132 637.04 132 637.6 132H766H773.4Z" fill="#C1ADFF"/>
    </g>
    <path d="M780 132V133H782.031L780.793 131.39L780 132ZM775 125.5L774.207 124.89L773.738 125.5L774.207 126.11L775 125.5ZM780 119L780.793 119.61L781.245 119.022L780.814 118.419L780 119ZM775 112L774.232 111.36L773.737 111.953L774.186 112.581L775 112ZM780 106L780.768 106.64L781.281 106.025L780.793 105.39L780 106ZM775 99.5L774.207 98.8903L773.738 99.5L774.207 100.11L775 99.5ZM780 93L780.793 93.6097L781.262 93L780.793 92.3903L780 93ZM775 86.5L774.207 85.8903L773.738 86.5L774.207 87.1097L775 86.5ZM780 80L780.793 80.6097L782.031 79H780V80ZM636.546 80.109L636.092 79.218L636.092 79.218L636.546 80.109ZM636.109 80.546L637 81L637 81L636.109 80.546ZM636.109 131.454L635.218 131.908H635.218L636.109 131.454ZM636.546 131.891L636.092 132.782L636.092 132.782L636.546 131.891ZM773.4 133H780V131H773.4V133ZM780.793 131.39L775.793 124.89L774.207 126.11L779.207 132.61L780.793 131.39ZM775.793 126.11L780.793 119.61L779.207 118.39L774.207 124.89L775.793 126.11ZM780.814 118.419L775.814 111.419L774.186 112.581L779.186 119.581L780.814 118.419ZM775.768 112.64L780.768 106.64L779.232 105.36L774.232 111.36L775.768 112.64ZM780.793 105.39L775.793 98.8903L774.207 100.11L779.207 106.61L780.793 105.39ZM775.793 100.11L780.793 93.6097L779.207 92.3903L774.207 98.8903L775.793 100.11ZM780.793 92.3903L775.793 85.8903L774.207 87.1097L779.207 93.6097L780.793 92.3903ZM775.793 87.1097L780.793 80.6097L779.207 79.3903L774.207 85.8903L775.793 87.1097ZM780 79H773.4V81H780V79ZM773.4 79H766V81H773.4V79ZM766 79H637.6V81H766V79ZM637.6 79C637.336 79 637.079 78.9992 636.862 79.0169C636.633 79.0356 636.363 79.0797 636.092 79.218L637 81C636.942 81.0293 636.92 81.0189 637.025 81.0103C637.141 81.0008 637.303 81 637.6 81V79ZM636.092 79.218C635.716 79.4097 635.41 79.7157 635.218 80.092L637 81L636.092 79.218ZM635.218 80.092C635.08 80.3634 635.036 80.6332 635.017 80.8618C634.999 81.0787 635 81.3365 635 81.6H637C637 81.3035 637.001 81.1412 637.01 81.0246C637.019 80.9197 637.029 80.9425 637 81L635.218 80.092ZM635 81.6V130.4H637V81.6H635ZM635 130.4C635 130.664 634.999 130.921 635.017 131.138C635.036 131.367 635.08 131.637 635.218 131.908L637 131C637.029 131.058 637.019 131.08 637.01 130.975C637.001 130.859 637 130.697 637 130.4H635ZM635.218 131.908C635.41 132.284 635.716 132.59 636.092 132.782L637 131L637 131L635.218 131.908ZM636.092 132.782C636.363 132.92 636.633 132.964 636.862 132.983C637.079 133.001 637.336 133 637.6 133V131C637.303 131 637.141 130.999 637.025 130.99C636.92 130.981 636.942 130.971 637 131L636.092 132.782ZM637.6 133H766V131H637.6V133ZM766 133H773.4V131H766V133Z" fill="#110529"/>
    <path d="M707.244 114.29C708.694 114.29 709.954 113.7 710.684 112.43C711.214 111.51 711.154 110.72 711.154 109.48V99.6H709.354V109.48C709.354 110.37 709.354 110.99 709.094 111.51C708.704 112.29 707.884 112.6 707.204 112.6C706.134 112.6 705.224 111.83 705.014 110.85L703.244 111.27C703.754 113.11 705.224 114.29 707.244 114.29Z" fill="#110529"/>
    <path d="M44.9984 114H46.7784V99.6H44.9984V114ZM55.6089 114.3C59.8189 114.3 62.0589 111.39 62.0589 107.44C62.0589 107.32 62.0489 106.87 62.0189 106.59H57.0789V108.06H60.1389C59.9189 110.93 58.4789 112.62 55.6989 112.6C52.4789 112.58 50.8489 110.25 50.8689 106.8C50.8889 103.35 52.4789 100.99 55.6989 101.01C57.7489 101.02 59.1389 102.14 59.7489 103.88L61.5489 103.51C60.7989 100.92 58.8289 99.31 55.6089 99.31C51.5789 99.31 48.9789 102.21 48.9789 106.8C48.9789 111.44 51.6389 114.3 55.6089 114.3ZM64.0563 114H65.8363V107.64H73.4163V114H75.1963V99.6H73.4163V105.95H65.8363V99.6H64.0563V114Z" fill="#110529"/>
    <path d="M160 156L159.293 156.707L158.586 156L159.293 155.293L160 156ZM167.293 147.293L168 146.586L169.414 148L168.707 148.707L167.293 147.293ZM168.707 163.293L169.414 164L168 165.414L167.293 164.707L168.707 163.293ZM170 157L160 157L160 155L170 155L170 157ZM159.293 155.293L167.293 147.293L168.707 148.707L160.707 156.707L159.293 155.293ZM160.707 155.293L168.707 163.293L167.293 164.707L159.293 156.707L160.707 155.293Z" fill="#110529"/>
    <path d="M430.5 156H170" stroke="#110529" stroke-width="2"/>
    <rect width="57" height="20" transform="translate(430.5 146)" fill="white"/>
    <path d="M441.002 162H442.442V159.88H443.642V158.528H442.442V155.288H441.002V158.528H437.322L441.122 150.48H439.506L435.706 158.528V159.88H441.002V162ZM449.158 162.24C451.366 162.24 452.934 160.824 452.934 158.712C452.934 157.512 452.422 156.464 451.422 155.832C452.238 155.264 452.638 154.392 452.638 153.392C452.638 151.448 451.19 150.24 449.158 150.24C447.126 150.24 445.678 151.448 445.678 153.392C445.678 154.384 446.102 155.264 446.902 155.824C445.894 156.472 445.398 157.512 445.398 158.712C445.398 160.824 446.95 162.24 449.158 162.24ZM446.902 158.712C446.902 157.296 447.798 156.536 449.158 156.536C450.518 156.536 451.422 157.296 451.422 158.712C451.422 160.12 450.502 160.88 449.158 160.88C447.814 160.88 446.902 160.12 446.902 158.712ZM447.19 153.392C447.19 152.208 447.99 151.616 449.158 151.616C450.326 151.616 451.126 152.208 451.126 153.392C451.126 154.576 450.326 155.168 449.158 155.168C447.99 155.168 447.19 154.576 447.19 153.392ZM458.899 162.24C461.139 162.24 462.787 160.592 462.787 158.352V154.128C462.787 151.888 461.139 150.24 458.899 150.24C456.659 150.24 455.011 151.888 455.011 154.128V158.352C455.011 160.592 456.659 162.24 458.899 162.24ZM456.459 158.432V154.04C456.459 152.688 457.547 151.6 458.899 151.6C460.251 151.6 461.339 152.688 461.339 154.04V158.432C461.339 159.784 460.251 160.872 458.899 160.872C457.547 160.872 456.459 159.784 456.459 158.432ZM468.994 162.24C471.41 162.24 472.866 160.264 472.866 157.672C472.866 155.08 471.402 153.12 469.002 153.12C467.922 153.12 467.066 153.496 466.45 154.144V150.48H465.018V162H466.29V161.024C466.922 161.784 467.826 162.24 468.994 162.24ZM466.29 157.672C466.29 155.76 467.09 154.424 468.778 154.424C470.538 154.424 471.354 155.848 471.354 157.672C471.354 159.512 470.522 160.936 468.818 160.936C467.074 160.936 466.29 159.568 466.29 157.672ZM478.588 162.24C481.004 162.24 482.46 160.264 482.46 157.672C482.46 155.08 480.996 153.12 478.596 153.12C477.42 153.12 476.516 153.568 475.884 154.328V153.36H474.612V165.84H476.044V161.2C476.66 161.856 477.516 162.24 478.588 162.24ZM475.884 157.672C475.884 155.76 476.684 154.424 478.372 154.424C480.132 154.424 480.948 155.848 480.948 157.672C480.948 159.512 480.116 160.936 478.412 160.936C476.668 160.936 475.884 159.568 475.884 157.672Z" fill="#110529"/>
    <path d="M748 156H487.5" stroke="#110529" stroke-width="2"/>
    <rect x="748" y="144" width="32" height="24" rx="1" fill="white"/>
    <path d="M756.62 162H758.044V157.744H761.412L763.476 162H765.108L762.884 157.432C764.188 156.888 764.868 155.632 764.868 154.112C764.868 152.28 763.884 150.832 762.02 150.544C761.724 150.496 761.396 150.48 761.172 150.48H756.62V162ZM758.044 156.392V151.832H761.124C761.324 151.832 761.604 151.848 761.844 151.904C762.948 152.152 763.412 153.152 763.412 154.112C763.412 155.072 762.948 156.072 761.844 156.32C761.604 156.376 761.324 156.392 761.124 156.392H758.044ZM768.878 162H770.326V150.48H768.878L766.71 151.776V153.368L768.878 152.056V162Z" fill="#110529"/>
    <rect x="748" y="144" width="32" height="24" rx="1" stroke="#110529" stroke-width="2"/>
    <rect width="46" height="22" transform="translate(173 46)" fill="white"/>
    <path d="M174.616 53.832H176.04V52.36H174.616V53.832ZM174.616 64H176.04V55.36H174.616V64ZM184.592 59.672V64H186.032V59.224C186.032 57.584 185.376 55.136 182.592 55.136C181.344 55.136 180.352 55.616 179.712 56.472V55.36H178.432V64H179.872V59.448C179.872 57.448 180.816 56.488 182.248 56.488C184.072 56.488 184.592 58.048 184.592 59.672ZM192.936 64V62.776C191.752 62.96 190.888 62.912 190.504 62.224C190.296 61.864 190.328 61.384 190.328 60.672V56.536H192.936V55.36H190.328V52.96H188.904V55.36H187.152V56.536H188.904V60.736C188.904 61.632 188.856 62.288 189.2 62.96C189.8 64.136 191.392 64.312 192.936 64ZM194.69 64H196.122V59.664C196.122 58.64 196.33 57.624 197.17 57.024C197.77 56.584 198.546 56.544 199.146 56.696V55.36C198.378 55.192 197.362 55.352 196.698 55.888C196.41 56.096 196.154 56.392 195.962 56.728V55.36H194.69V64ZM204.183 64.24C206.751 64.24 208.351 62.384 208.351 59.672C208.351 57 206.775 55.12 204.183 55.12C201.647 55.12 200.023 56.96 200.023 59.672C200.023 62.352 201.599 64.24 204.183 64.24ZM201.535 59.672C201.535 57.784 202.375 56.472 204.183 56.472C205.951 56.472 206.839 57.728 206.839 59.672C206.839 61.576 205.967 62.888 204.183 62.888C202.439 62.888 201.535 61.624 201.535 59.672ZM216.264 59.672V64H217.704V59.224C217.704 57.584 217.048 55.136 214.264 55.136C213.016 55.136 212.024 55.616 211.384 56.472V55.36H210.104V64H211.544V59.448C211.544 57.448 212.488 56.488 213.92 56.488C215.744 56.488 216.264 58.048 216.264 59.672Z" fill="#110529"/>
    <defs>
        <filter id="filter0_i_6281_38425" x="118.737" y="79" width="66.2627" height="54" filterUnits="userSpaceOnUse" color-interpolation-filters="sRGB">
            <feFlood flood-opacity="0" result="BackgroundImageFix"/>
            <feBlend mode="normal" in="SourceGraphic" in2="BackgroundImageFix" result="shape"/>
            <feColorMatrix in="SourceAlpha" type="matrix" values="0 0 0 0 0 0 0 0 0 0 0 0 0 0 0 0 0 0 127 0" result="hardAlpha"/>
            <feOffset dx="-8" dy="-4"/>
            <feComposite in2="hardAlpha" operator="arithmetic" k2="-1" k3="1"/>
            <feColorMatrix type="matrix" values="0 0 0 0 0.0666667 0 0 0 0 0.0196078 0 0 0 0 0.160784 0 0 0 0.16 0"/>
            <feBlend mode="normal" in2="shape" result="effect1_innerShadow_6281_38425"/>
        </filter>
        <filter id="filter1_i_6281_38425" x="183" y="79" width="26" height="54" filterUnits="userSpaceOnUse" color-interpolation-filters="sRGB">
            <feFlood flood-opacity="0" result="BackgroundImageFix"/>
            <feBlend mode="normal" in="SourceGraphic" in2="BackgroundImageFix" result="shape"/>
            <feColorMatrix in="SourceAlpha" type="matrix" values="0 0 0 0 0 0 0 0 0 0 0 0 0 0 0 0 0 0 127 0" result="hardAlpha"/>
            <feOffset dx="-8" dy="-4"/>
            <feComposite in2="hardAlpha" operator="arithmetic" k2="-1" k3="1"/>
            <feColorMatrix type="matrix" values="0 0 0 0 0.0666667 0 0 0 0 0.0196078 0 0 0 0 0.160784 0 0 0 0.16 0"/>
            <feBlend mode="normal" in2="shape" result="effect1_innerShadow_6281_38425"/>
        </filter>
        <filter id="filter2_i_6281_38425" x="207" y="79" width="334" height="54" filterUnits="userSpaceOnUse" color-interpolation-filters="sRGB">
            <feFlood flood-opacity="0" result="BackgroundImageFix"/>
            <feBlend mode="normal" in="SourceGraphic" in2="BackgroundImageFix" result="shape"/>
            <feColorMatrix in="SourceAlpha" type="matrix" values="0 0 0 0 0 0 0 0 0 0 0 0 0 0 0 0 0 0 127 0" result="hardAlpha"/>
            <feOffset dx="-8" dy="-4"/>
            <feComposite in2="hardAlpha" operator="arithmetic" k2="-1" k3="1"/>
            <feColorMatrix type="matrix" values="0 0 0 0 0.0666667 0 0 0 0 0.0196078 0 0 0 0 0.160784 0 0 0 0.16 0"/>
            <feBlend mode="normal" in2="shape" result="effect1_innerShadow_6281_38425"/>
        </filter>
        <filter id="filter3_i_6281_38425" x="539" y="79" width="32" height="54" filterUnits="userSpaceOnUse" color-interpolation-filters="sRGB">
            <feFlood flood-opacity="0" result="BackgroundImageFix"/>
            <feBlend mode="normal" in="SourceGraphic" in2="BackgroundImageFix" result="shape"/>
            <feColorMatrix in="SourceAlpha" type="matrix" values="0 0 0 0 0 0 0 0 0 0 0 0 0 0 0 0 0 0 127 0" result="hardAlpha"/>
            <feOffset dx="-8" dy="-4"/>
            <feComposite in2="hardAlpha" operator="arithmetic" k2="-1" k3="1"/>
            <feColorMatrix type="matrix" values="0 0 0 0 0.0666667 0 0 0 0 0.0196078 0 0 0 0 0.160784 0 0 0 0.16 0"/>
            <feBlend mode="normal" in2="shape" result="effect1_innerShadow_6281_38425"/>
        </filter>
        <filter id="filter4_i_6281_38425" x="605" y="79" width="32" height="54" filterUnits="userSpaceOnUse" color-interpolation-filters="sRGB">
            <feFlood flood-opacity="0" result="BackgroundImageFix"/>
            <feBlend mode="normal" in="SourceGraphic" in2="BackgroundImageFix" result="shape"/>
            <feColorMatrix in="SourceAlpha" type="matrix" values="0 0 0 0 0 0 0 0 0 0 0 0 0 0 0 0 0 0 127 0" result="hardAlpha"/>
            <feOffset dx="-8" dy="-4"/>
            <feComposite in2="hardAlpha" operator="arithmetic" k2="-1" k3="1"/>
            <feColorMatrix type="matrix" values="0 0 0 0 0.0666667 0 0 0 0 0.0196078 0 0 0 0 0.160784 0 0 0 0.16 0"/>
            <feBlend mode="normal" in2="shape" result="effect1_innerShadow_6281_38425"/>
        </filter>
        <filter id="filter5_i_6281_38425" x="569" y="79" width="38" height="54" filterUnits="userSpaceOnUse" color-interpolation-filters="sRGB">
            <feFlood flood-opacity="0" result="BackgroundImageFix"/>
            <feBlend mode="normal" in="SourceGraphic" in2="BackgroundImageFix" result="shape"/>
            <feColorMatrix in="SourceAlpha" type="matrix" values="0 0 0 0 0 0 0 0 0 0 0 0 0 0 0 0 0 0 127 0" result="hardAlpha"/>
            <feOffset dx="-8" dy="-4"/>
            <feComposite in2="hardAlpha" operator="arithmetic" k2="-1" k3="1"/>
            <feColorMatrix type="matrix" values="0 0 0 0 0.0666667 0 0 0 0 0.0196078 0 0 0 0 0.160784 0 0 0 0.16 0"/>
            <feBlend mode="normal" in2="shape" result="effect1_innerShadow_6281_38425"/>
        </filter>
        <filter id="filter6_i_6281_38425" x="635" y="79" width="147.031" height="54" filterUnits="userSpaceOnUse" color-interpolation-filters="sRGB">
            <feFlood flood-opacity="0" result="BackgroundImageFix"/>
            <feBlend mode="normal" in="SourceGraphic" in2="BackgroundImageFix" result="shape"/>
            <feColorMatrix in="SourceAlpha" type="matrix" values="0 0 0 0 0 0 0 0 0 0 0 0 0 0 0 0 0 0 127 0" result="hardAlpha"/>
            <feOffset dx="-8" dy="-4"/>
            <feComposite in2="hardAlpha" operator="arithmetic" k2="-1" k3="1"/>
            <feColorMatrix type="matrix" values="0 0 0 0 0.0666667 0 0 0 0 0.0196078 0 0 0 0 0.160784 0 0 0 0.16 0"/>
            <feBlend mode="normal" in2="shape" result="effect1_innerShadow_6281_38425"/>
        </filter>
        <filter id="filter7_i_6281_38425" x="635" y="79" width="147.031" height="54" filterUnits="userSpaceOnUse" color-interpolation-filters="sRGB">
            <feFlood flood-opacity="0" result="BackgroundImageFix"/>
            <feBlend mode="normal" in="SourceGraphic" in2="BackgroundImageFix" result="shape"/>
            <feColorMatrix in="SourceAlpha" type="matrix" values="0 0 0 0 0 0 0 0 0 0 0 0 0 0 0 0 0 0 127 0" result="hardAlpha"/>
            <feOffset dx="-8" dy="-4"/>
            <feComposite in2="hardAlpha" operator="arithmetic" k2="-1" k3="1"/>
            <feColorMatrix type="matrix" values="0 0 0 0 0.0666667 0 0 0 0 0.0196078 0 0 0 0 0.160784 0 0 0 0.16 0"/>
            <feBlend mode="normal" in2="shape" result="effect1_innerShadow_6281_38425"/>
        </filter>
    </defs>
</svg>
