<svg width="960" height="512" viewBox="0 0 960 512" fill="none" xmlns="http://www.w3.org/2000/svg">
    <rect width="960" height="512" fill="white"/>
    <path d="M101.969 37.21C103.852 37.21 105.469 35.705 105.469 33.829C105.469 31.939 104.083 30.525 102.2 30.525C101.605 30.525 100.975 30.714 100.478 31.071L100.646 28.299H104.776V26.92H99.337L99.029 32.219L100.303 32.667C100.618 32.247 101.185 31.855 102.011 31.855C103.089 31.855 103.992 32.723 103.992 33.829C103.992 34.907 103.117 35.796 102.011 35.796C101.171 35.796 100.338 35.229 100.107 34.333L98.7 34.711C99.113 36.181 100.415 37.21 101.969 37.21ZM107.373 29.629L107.282 30.28C108.29 30.462 108.829 29.846 108.829 28.747V26.92H107.282V28.607H108.087C108.157 29.202 107.982 29.678 107.373 29.629ZM114.852 37.21C117.225 37.21 118.87 35.663 118.87 33.29V26.92H117.386V33.213C117.386 34.914 116.119 35.831 114.852 35.831C113.599 35.831 112.318 34.935 112.318 33.213V26.92L110.834 26.927V33.29C110.834 35.663 112.479 37.21 114.852 37.21ZM123.341 37H124.804V28.299H128.157V26.92H119.988V28.299H123.341V37ZM129.277 37H130.74V33.381H133.414L135.171 37H136.844L134.94 33.094C136.081 32.597 136.655 31.491 136.655 30.147C136.655 28.516 135.815 27.235 134.128 26.976C133.862 26.934 133.547 26.92 133.351 26.92H129.277V37ZM130.74 31.995V28.299H133.295C133.477 28.299 133.722 28.313 133.932 28.369C134.828 28.579 135.164 29.405 135.164 30.147C135.164 30.889 134.828 31.715 133.932 31.932C133.722 31.981 133.477 31.995 133.295 31.995H130.74Z" fill="#D3D7E0"/>
    <path d="M144 112V24" stroke="#D3D7E0" stroke-width="2" stroke-linecap="square" stroke-dasharray="6 6"/>
    <path d="M151.442 37V26.92H152.905V35.621H157.469V37H151.442Z" fill="#D3D7E0"/>
    <path d="M164 112V24" stroke="#D3D7E0" stroke-width="2" stroke-linecap="square" stroke-dasharray="6 6"/>
    <path d="M173.858 37H175.321V32.695H178.989V31.225H175.321V28.383H179.829V26.92H173.858V37ZM181.09 37H182.553V33.381H185.227L186.984 37H188.657L186.753 33.094C187.894 32.597 188.468 31.491 188.468 30.147C188.468 28.516 187.628 27.235 185.941 26.976C185.675 26.934 185.36 26.92 185.164 26.92H181.09V37ZM182.553 31.995V28.299H185.108C185.29 28.299 185.535 28.313 185.745 28.369C186.641 28.579 186.977 29.405 186.977 30.147C186.977 30.889 186.641 31.715 185.745 31.932C185.535 31.981 185.29 31.995 185.108 31.995H182.553ZM191.953 37H193.444V26.92H191.953L190.056 28.054V29.685L191.953 28.53V37Z" fill="#D3D7E0"/>
    <path d="M204 112V24" stroke="#D3D7E0" stroke-width="2" stroke-linecap="square" stroke-dasharray="6 6"/>
    <path d="M213.735 37.21C216.059 37.21 217.62 35.943 218.215 33.955L216.731 33.556C216.332 34.963 215.331 35.817 213.735 35.817C211.593 35.817 210.501 34.27 210.515 31.96C210.522 29.65 211.593 28.103 213.735 28.103C215.331 28.103 216.332 28.957 216.731 30.364L218.215 29.965C217.62 27.977 216.059 26.71 213.735 26.71C210.711 26.71 208.968 28.845 208.968 31.96C208.968 35.075 210.711 37.21 213.735 37.21ZM219.754 37H222.911C223.093 37 223.695 37 224.164 36.937C226.53 36.636 227.79 34.529 227.79 31.96C227.79 29.391 226.53 27.284 224.164 26.983C223.695 26.92 223.093 26.92 222.911 26.92H219.754V37ZM221.252 35.607V28.313H222.911C223.219 28.313 223.723 28.32 224.059 28.383C225.571 28.663 226.236 30.189 226.236 31.96C226.236 33.689 225.599 35.243 224.059 35.537C223.723 35.6 223.233 35.607 222.911 35.607H221.252ZM229.42 37H230.883V33.381H233.557L235.314 37H236.987L235.083 33.094C236.224 32.597 236.798 31.491 236.798 30.147C236.798 28.516 235.958 27.235 234.271 26.976C234.005 26.934 233.69 26.92 233.494 26.92H229.42V37ZM230.883 31.995V28.299H233.438C233.62 28.299 233.865 28.313 234.075 28.369C234.971 28.579 235.307 29.405 235.307 30.147C235.307 30.889 234.971 31.715 234.075 31.932C233.865 31.981 233.62 31.995 233.438 31.995H230.883ZM240.283 37H241.774V26.92H240.283L238.386 28.054V29.685L240.283 28.53V37Z" fill="#D3D7E0"/>
    <path d="M248 112V24" stroke="#D3D7E0" stroke-width="2" stroke-linecap="square" stroke-dasharray="6 6"/>
    <path d="M256.703 37H258.166V32.695H261.834V31.225H258.166V28.383H262.674V26.92H256.703V37ZM263.935 37H265.398V33.381H268.072L269.829 37H271.502L269.598 33.094C270.739 32.597 271.313 31.491 271.313 30.147C271.313 28.516 270.473 27.235 268.786 26.976C268.52 26.934 268.205 26.92 268.009 26.92H263.935V37ZM265.398 31.995V28.299H267.953C268.135 28.299 268.38 28.313 268.59 28.369C269.486 28.579 269.822 29.405 269.822 30.147C269.822 30.889 269.486 31.715 268.59 31.932C268.38 31.981 268.135 31.995 267.953 31.995H265.398ZM272.761 36.993H279.579V35.6H275.022L277.941 32.996C279.033 32.037 279.579 31.407 279.579 30.028C279.579 28.117 278.144 26.71 276.24 26.71C274.231 26.71 272.796 28.047 272.796 30H274.294C274.28 28.985 275.092 28.103 276.212 28.103C277.297 28.103 278.074 28.929 278.074 30.007C278.074 30.581 277.864 31.127 277.157 31.757L272.768 35.691L272.761 36.993Z" fill="#D3D7E0"/>
    <path d="M288 112V24" stroke="#D3D7E0" stroke-width="2" stroke-linecap="square" stroke-dasharray="6 6"/>
    <path d="M296.58 37.21C298.904 37.21 300.465 35.943 301.06 33.955L299.576 33.556C299.177 34.963 298.176 35.817 296.58 35.817C294.438 35.817 293.346 34.27 293.36 31.96C293.367 29.65 294.438 28.103 296.58 28.103C298.176 28.103 299.177 28.957 299.576 30.364L301.06 29.965C300.465 27.977 298.904 26.71 296.58 26.71C293.556 26.71 291.813 28.845 291.813 31.96C291.813 35.075 293.556 37.21 296.58 37.21ZM302.599 37H305.756C305.938 37 306.54 37 307.009 36.937C309.375 36.636 310.635 34.529 310.635 31.96C310.635 29.391 309.375 27.284 307.009 26.983C306.54 26.92 305.938 26.92 305.756 26.92H302.599V37ZM304.097 35.607V28.313H305.756C306.064 28.313 306.568 28.32 306.904 28.383C308.416 28.663 309.081 30.189 309.081 31.96C309.081 33.689 308.444 35.243 306.904 35.537C306.568 35.6 306.078 35.607 305.756 35.607H304.097ZM312.265 37H313.728V33.381H316.402L318.159 37H319.832L317.928 33.094C319.069 32.597 319.643 31.491 319.643 30.147C319.643 28.516 318.803 27.235 317.116 26.976C316.85 26.934 316.535 26.92 316.339 26.92H312.265V37ZM313.728 31.995V28.299H316.283C316.465 28.299 316.71 28.313 316.92 28.369C317.816 28.579 318.152 29.405 318.152 30.147C318.152 30.889 317.816 31.715 316.92 31.932C316.71 31.981 316.465 31.995 316.283 31.995H313.728ZM321.091 36.993H327.909V35.6H323.352L326.271 32.996C327.363 32.037 327.909 31.407 327.909 30.028C327.909 28.117 326.474 26.71 324.57 26.71C322.561 26.71 321.126 28.047 321.126 30H322.624C322.61 28.985 323.422 28.103 324.542 28.103C325.627 28.103 326.404 28.929 326.404 30.007C326.404 30.581 326.194 31.127 325.487 31.757L321.098 35.691L321.091 36.993Z" fill="#D3D7E0"/>
    <path d="M332 112V24" stroke="#D3D7E0" stroke-width="2" stroke-linecap="square" stroke-dasharray="6 6"/>
    <path d="M340.805 37H342.268V32.695H345.936V31.225H342.268V28.383H346.776V26.92H340.805V37ZM348.038 37H349.501V33.381H352.175L353.932 37H355.605L353.701 33.094C354.842 32.597 355.416 31.491 355.416 30.147C355.416 28.516 354.576 27.235 352.889 26.976C352.623 26.934 352.308 26.92 352.112 26.92H348.038V37ZM349.501 31.995V28.299H352.056C352.238 28.299 352.483 28.313 352.693 28.369C353.589 28.579 353.925 29.405 353.925 30.147C353.925 30.889 353.589 31.715 352.693 31.932C352.483 31.981 352.238 31.995 352.056 31.995H349.501ZM359.964 37.189C361.847 37.189 363.331 35.796 363.331 33.871C363.331 32.233 362.323 30.924 360.692 30.707L363.184 28.313V26.92H357.122V28.313H361.392L358.312 31.036L358.998 32.191C359.285 32.037 359.628 31.939 359.95 31.939C361.07 31.939 361.833 32.751 361.833 33.871C361.833 34.984 361.07 35.789 359.964 35.803C359.138 35.81 358.403 35.341 358.137 34.466L356.723 34.858C357.15 36.293 358.466 37.189 359.964 37.189Z" fill="#D3D7E0"/>
    <path d="M372 112V24" stroke="#D3D7E0" stroke-width="2" stroke-linecap="square" stroke-dasharray="6 6"/>
    <path d="M418.682 37.21C421.006 37.21 422.567 35.943 423.162 33.955L421.678 33.556C421.279 34.963 420.278 35.817 418.682 35.817C416.54 35.817 415.448 34.27 415.462 31.96C415.469 29.65 416.54 28.103 418.682 28.103C420.278 28.103 421.279 28.957 421.678 30.364L423.162 29.965C422.567 27.977 421.006 26.71 418.682 26.71C415.658 26.71 413.915 28.845 413.915 31.96C413.915 35.075 415.658 37.21 418.682 37.21ZM424.702 37H427.859C428.041 37 428.643 37 429.112 36.937C431.478 36.636 432.738 34.529 432.738 31.96C432.738 29.391 431.478 27.284 429.112 26.983C428.643 26.92 428.041 26.92 427.859 26.92H424.702V37ZM426.2 35.607V28.313H427.859C428.167 28.313 428.671 28.32 429.007 28.383C430.519 28.663 431.184 30.189 431.184 31.96C431.184 33.689 430.547 35.243 429.007 35.537C428.671 35.6 428.181 35.607 427.859 35.607H426.2ZM434.368 37H435.831V33.381H438.505L440.262 37H441.935L440.031 33.094C441.172 32.597 441.746 31.491 441.746 30.147C441.746 28.516 440.906 27.235 439.219 26.976C438.953 26.934 438.638 26.92 438.442 26.92H434.368V37ZM435.831 31.995V28.299H438.386C438.568 28.299 438.813 28.313 439.023 28.369C439.919 28.579 440.255 29.405 440.255 30.147C440.255 30.889 439.919 31.715 439.023 31.932C438.813 31.981 438.568 31.995 438.386 31.995H435.831ZM446.294 37.189C448.177 37.189 449.661 35.796 449.661 33.871C449.661 32.233 448.653 30.924 447.022 30.707L449.514 28.313V26.92H443.452V28.313H447.722L444.642 31.036L445.328 32.191C445.615 32.037 445.958 31.939 446.28 31.939C447.4 31.939 448.163 32.751 448.163 33.871C448.163 34.984 447.4 35.789 446.294 35.803C445.468 35.81 444.733 35.341 444.467 34.466L443.053 34.858C443.48 36.293 444.796 37.189 446.294 37.189Z" fill="#D3D7E0"/>
    <path d="M492 112V24" stroke="#D3D7E0" stroke-width="2" stroke-linecap="square" stroke-dasharray="6 6"/>
    <path d="M600 112V24" stroke="#D3D7E0" stroke-width="2" stroke-linecap="square" stroke-dasharray="6 6"/>
    <path d="M534.593 37H536.056V32.695H539.724V31.225H536.056V28.383H540.564V26.92H534.593V37ZM541.826 37H543.289V33.381H545.963L547.72 37H549.393L547.489 33.094C548.63 32.597 549.204 31.491 549.204 30.147C549.204 28.516 548.364 27.235 546.677 26.976C546.411 26.934 546.096 26.92 545.9 26.92H541.826V37ZM543.289 31.995V28.299H545.844C546.026 28.299 546.271 28.313 546.481 28.369C547.377 28.579 547.713 29.405 547.713 30.147C547.713 30.889 547.377 31.715 546.481 31.932C546.271 31.981 546.026 31.995 545.844 31.995H543.289ZM555.201 37H556.685V35.243H557.686V33.857H556.685V31.127H555.201V33.857H552.324L555.6 26.92H553.927L550.651 33.857V35.243H555.201V37Z" fill="#D3D7E0"/>
    <path d="M25.6881 118H27.4681V105.29H32.3781V103.6H20.7781V105.29H25.6881V118ZM39.8903 118.3C43.2203 118.3 45.4103 116.47 46.2303 113.61L44.4203 113.13C43.8303 115.27 42.3203 116.6 39.8903 116.6C36.6703 116.6 35.0303 114.25 35.0503 110.8C35.0703 107.35 36.6703 105 39.8903 105C42.3203 105 43.8303 106.33 44.4203 108.47L46.2303 107.99C45.4103 105.13 43.2203 103.3 39.8903 103.3C35.5803 103.3 33.1703 106.36 33.1703 110.8C33.1703 115.24 35.5803 118.3 39.8903 118.3ZM48.4234 118H50.2034V112.68H54.4134L56.9934 118H59.0334L56.2534 112.29C57.8834 111.61 58.7334 110.04 58.7334 108.14C58.7334 105.85 57.5034 104.04 55.1734 103.68C54.8034 103.62 54.3934 103.6 54.1134 103.6H48.4234V118ZM50.2034 110.99V105.29H54.0534C54.3034 105.29 54.6534 105.31 54.9534 105.38C56.3334 105.69 56.9134 106.94 56.9134 108.14C56.9134 109.34 56.3334 110.59 54.9534 110.9C54.6534 110.97 54.3034 110.99 54.0534 110.99H50.2034ZM65.2298 107.2V122.8H67.0098V117.39C67.7198 117.96 68.7098 118.3 69.9398 118.3C72.9898 118.3 74.8398 116.57 74.8398 113.95C74.8398 111.74 73.4398 110.44 72.0498 110.09C73.0998 109.58 73.6098 108.5 73.6098 107.22C73.6098 104.84 71.8598 103.3 69.3698 103.3C67.5098 103.3 65.9798 104.16 65.4498 105.78C65.2998 106.23 65.2298 106.71 65.2298 107.2ZM67.0498 113.71V107.86C67.0498 107.44 67.0698 106.8 67.2798 106.28C67.6398 105.35 68.5198 104.99 69.4098 104.99C70.7898 104.99 71.7898 105.82 71.7898 107.24C71.7898 108.67 70.7898 109.4 69.4198 109.54V111.14C71.6098 111.18 73.0298 112.1 73.0298 113.87C73.0298 115.52 71.7898 116.61 70.0198 116.61C68.7698 116.61 67.5298 116.04 67.1998 115.01C67.0798 114.64 67.0498 114.1 67.0498 113.71Z" fill="#110529"/>
    <path d="M25.3268 254H27.1068V241.29H32.0168V239.6H20.4168V241.29H25.3268V254ZM39.529 254.3C42.859 254.3 45.049 252.47 45.869 249.61L44.059 249.13C43.469 251.27 41.959 252.6 39.529 252.6C36.309 252.6 34.669 250.25 34.689 246.8C34.709 243.35 36.309 241 39.529 241C41.959 241 43.469 242.33 44.059 244.47L45.869 243.99C45.049 241.13 42.859 239.3 39.529 239.3C35.219 239.3 32.809 242.36 32.809 246.8C32.809 251.24 35.219 254.3 39.529 254.3ZM48.0621 254H49.8421V248.68H54.0521L56.6321 254H58.6721L55.8921 248.29C57.5221 247.61 58.3721 246.04 58.3721 244.14C58.3721 241.85 57.1421 240.04 54.8121 239.68C54.4421 239.62 54.0321 239.6 53.7521 239.6H48.0621V254ZM49.8421 246.99V241.29H53.6921C53.9421 241.29 54.2921 241.31 54.5921 241.38C55.9721 241.69 56.5521 242.94 56.5521 244.14C56.5521 245.34 55.9721 246.59 54.5921 246.9C54.2921 246.97 53.9421 246.99 53.6921 246.99H49.8421ZM69.1485 254.3C70.7885 254.3 72.0985 253.54 72.7985 252.24V254H74.3885V243.2H72.7985V244.93C72.1085 243.65 70.8485 242.9 69.1985 242.9C66.0985 242.9 64.2785 245.35 64.2785 248.6C64.2785 251.83 66.0885 254.3 69.1485 254.3ZM66.1685 248.6C66.1685 246.19 67.2785 244.53 69.3885 244.53C71.4985 244.53 72.4985 246.2 72.4985 248.59C72.4985 250.96 71.5085 252.67 69.3685 252.67C67.1985 252.67 66.1685 250.88 66.1685 248.6Z" fill="#110529"/>
    <path d="M32.9984 354H34.7784V339.6H32.9984V354ZM43.6089 354.3C47.8189 354.3 50.0589 351.39 50.0589 347.44C50.0589 347.32 50.0489 346.87 50.0189 346.59H45.0789V348.06H48.1389C47.9189 350.93 46.4789 352.62 43.6989 352.6C40.4789 352.58 38.8489 350.25 38.8689 346.8C38.8889 343.35 40.4789 340.99 43.6989 341.01C45.7489 341.02 47.1389 342.14 47.7489 343.88L49.5489 343.51C48.7989 340.92 46.8289 339.31 43.6089 339.31C39.5789 339.31 36.9789 342.21 36.9789 346.8C36.9789 351.44 39.6389 354.3 43.6089 354.3ZM52.0563 354H53.8363V347.64H61.4163V354H63.1963V339.6H61.4163V345.95H53.8363V339.6H52.0563V354Z" fill="#110529"/>
    <path d="M26.0258 444H27.8058V429.6H26.0258V444ZM36.6363 444.3C40.8463 444.3 43.0863 441.39 43.0863 437.44C43.0863 437.32 43.0763 436.87 43.0463 436.59H38.1063V438.06H41.1662C40.9463 440.93 39.5062 442.62 36.7263 442.6C33.5063 442.58 31.8763 440.25 31.8963 436.8C31.9163 433.35 33.5063 430.99 36.7263 431.01C38.7763 431.02 40.1663 432.14 40.7763 433.88L42.5763 433.51C41.8263 430.92 39.8563 429.31 36.6363 429.31C32.6063 429.31 30.0063 432.21 30.0063 436.8C30.0063 441.44 32.6663 444.3 36.6363 444.3ZM45.0836 444H46.8636V436.96L53.6136 444H55.9136L48.8636 436.59L55.4036 429.6H53.1636L46.8636 436.36V429.6H45.0836V444ZM64.5634 429.6L60.7234 444H62.5334L66.3734 429.6H64.5634ZM34.7953 464H36.5753V449.6H34.7953V464ZM45.4058 464.3C49.6158 464.3 51.8558 461.39 51.8558 457.44C51.8558 457.32 51.8458 456.87 51.8158 456.59H46.8758V458.06H49.9358C49.7158 460.93 48.2758 462.62 45.4958 462.6C42.2758 462.58 40.6458 460.25 40.6658 456.8C40.6858 453.35 42.2758 450.99 45.4958 451.01C47.5458 451.02 48.9358 452.14 49.5458 453.88L51.3458 453.51C50.5958 450.92 48.6258 449.31 45.4058 449.31C41.3758 449.31 38.7758 452.21 38.7758 456.8C38.7758 461.44 41.4358 464.3 45.4058 464.3ZM54.0531 464H62.5131V462.31H55.8331V449.6H54.0531V464Z" fill="#110529"/>
    <rect x="96" y="148" width="32" height="24" rx="1" fill="white"/>
    <rect x="96" y="148" width="32" height="24" rx="1" stroke="#110529" stroke-width="2"/>
    <path d="M104.62 166V154.48H109.172C109.396 154.48 109.724 154.496 110.02 154.544C111.884 154.832 112.868 156.28 112.868 158.112C112.868 159.632 112.188 160.888 110.884 161.432L113.108 166H111.476L109.412 161.744H106.044V166H104.62ZM106.044 160.392H109.124C109.324 160.392 109.604 160.376 109.844 160.32C110.948 160.072 111.412 159.072 111.412 158.112C111.412 157.152 110.948 156.152 109.844 155.904C109.604 155.848 109.324 155.832 109.124 155.832H106.044V160.392ZM116.878 166V156.056L114.71 157.368V155.776L116.878 154.48H118.326V166H116.878Z" fill="#110529"/>
    <path d="M444.5 160H128" stroke="#110529" stroke-width="2"/>
    <rect width="107" height="20" transform="translate(444.5 150)" fill="white"/>
    <path d="M451.995 166V156.056L449.827 157.368V155.776L451.995 154.48H453.443V166H451.995ZM460.375 166.24C458.135 166.24 456.487 164.592 456.487 162.352V158.128C456.487 155.888 458.135 154.24 460.375 154.24C462.615 154.24 464.263 155.888 464.263 158.128V162.352C464.263 164.592 462.615 166.24 460.375 166.24ZM457.935 162.432C457.935 163.784 459.023 164.872 460.375 164.872C461.727 164.872 462.815 163.784 462.815 162.432V158.04C462.815 156.688 461.727 155.6 460.375 155.6C459.023 155.6 457.935 156.688 457.935 158.04V162.432ZM470.391 166.24C468.151 166.24 466.503 164.592 466.503 162.352V158.128C466.503 155.888 468.151 154.24 470.391 154.24C472.631 154.24 474.279 155.888 474.279 158.128V162.352C474.279 164.592 472.631 166.24 470.391 166.24ZM467.951 162.432C467.951 163.784 469.039 164.872 470.391 164.872C471.743 164.872 472.831 163.784 472.831 162.432V158.04C472.831 156.688 471.743 155.6 470.391 155.6C469.039 155.6 467.951 156.688 467.951 158.04V162.432ZM480.406 166.24C478.166 166.24 476.518 164.592 476.518 162.352V158.128C476.518 155.888 478.166 154.24 480.406 154.24C482.646 154.24 484.294 155.888 484.294 158.128V162.352C484.294 164.592 482.646 166.24 480.406 166.24ZM477.966 162.432C477.966 163.784 479.054 164.872 480.406 164.872C481.758 164.872 482.846 163.784 482.846 162.432V158.04C482.846 156.688 481.758 155.6 480.406 155.6C479.054 155.6 477.966 156.688 477.966 158.04V162.432ZM486.374 160.824V159.648H491.174V160.824H486.374ZM495.261 166V156.056L493.093 157.368V155.776L495.261 154.48H496.709V166H495.261ZM503.161 166.24C501.377 166.24 499.897 165.056 499.433 163.376L500.801 163.008C501.089 164.144 502.129 164.856 503.201 164.856C504.601 164.856 505.689 163.728 505.689 162.376C505.689 160.984 504.545 159.896 503.201 159.896C502.185 159.896 501.465 160.384 501.049 160.984L499.785 160.504L500.137 154.48H506.321V155.832H501.417L501.209 159.328C501.809 158.848 502.585 158.584 503.361 158.584C505.497 158.584 507.121 160.232 507.121 162.376C507.121 164.504 505.305 166.24 503.161 166.24ZM512.922 166.24C510.682 166.24 509.034 164.592 509.034 162.352V158.128C509.034 155.888 510.682 154.24 512.922 154.24C515.162 154.24 516.81 155.888 516.81 158.128V162.352C516.81 164.592 515.162 166.24 512.922 166.24ZM510.482 162.432C510.482 163.784 511.57 164.872 512.922 164.872C514.274 164.872 515.362 163.784 515.362 162.432V158.04C515.362 156.688 514.274 155.6 512.922 155.6C511.57 155.6 510.482 156.688 510.482 158.04V162.432ZM522.938 166.24C520.698 166.24 519.05 164.592 519.05 162.352V158.128C519.05 155.888 520.698 154.24 522.938 154.24C525.178 154.24 526.826 155.888 526.826 158.128V162.352C526.826 164.592 525.178 166.24 522.938 166.24ZM520.498 162.432C520.498 163.784 521.586 164.872 522.938 164.872C524.29 164.872 525.378 163.784 525.378 162.432V158.04C525.378 156.688 524.29 155.6 522.938 155.6C521.586 155.6 520.498 156.688 520.498 158.04V162.432ZM533.033 166.24C531.865 166.24 530.961 165.784 530.329 165.024V166H529.057V154.48H530.489V158.144C531.105 157.496 531.961 157.12 533.041 157.12C535.441 157.12 536.905 159.08 536.905 161.672C536.905 164.264 535.449 166.24 533.033 166.24ZM530.329 161.672C530.329 163.568 531.113 164.936 532.857 164.936C534.561 164.936 535.393 163.512 535.393 161.672C535.393 159.848 534.577 158.424 532.817 158.424C531.129 158.424 530.329 159.76 530.329 161.672ZM542.627 166.24C541.555 166.24 540.699 165.856 540.083 165.2V169.84H538.651V157.36H539.923V158.328C540.555 157.568 541.459 157.12 542.635 157.12C545.035 157.12 546.499 159.08 546.499 161.672C546.499 164.264 545.043 166.24 542.627 166.24ZM539.923 161.672C539.923 163.568 540.707 164.936 542.451 164.936C544.155 164.936 544.987 163.512 544.987 161.672C544.987 159.848 544.171 158.424 542.411 158.424C540.723 158.424 539.923 159.76 539.923 161.672Z" fill="#110529"/>
    <path d="M868 160H551.5" stroke="#110529" stroke-width="2"/>
    <path d="M878 160L878.707 159.293L879.414 160L878.707 160.707L878 160ZM870.707 168.707L870 169.414L868.586 168L869.293 167.293L870.707 168.707ZM869.293 152.707L868.586 152L870 150.586L870.707 151.293L869.293 152.707ZM868 159L878 159L878 161L868 161L868 159ZM878.707 160.707L870.707 168.707L869.293 167.293L877.293 159.293L878.707 160.707ZM877.293 160.707L869.293 152.707L870.707 151.293L878.707 159.293L877.293 160.707Z" fill="#110529"/>
    <g filter="url(#filter0_i_6992_6069)">
        <rect x="96" y="84" width="288" height="52" rx="1" fill="#99E099"/>
        <rect x="96" y="84" width="288" height="52" rx="1" stroke="#110529" stroke-width="2" stroke-linecap="round"/>
        <path d="M238.758 118L233.938 103.6H235.788L239.978 116.11L244.208 103.6H246.058L241.238 118H238.758Z" fill="#110529"/>
    </g>
    <g filter="url(#filter1_i_6992_6069)">
        <rect x="384" y="84" width="30" height="52" rx="1" fill="#CBEB67"/>
    </g>
    <rect x="384" y="84" width="30" height="52" rx="1" stroke="#110529" stroke-width="2" stroke-linecap="round"/>
    <g filter="url(#filter2_i_6992_6069)">
        <rect x="450" y="84" width="30" height="52" rx="1" fill="#FAAAFA"/>
    </g>
    <rect x="450" y="84" width="30" height="52" rx="1" stroke="#110529" stroke-width="2" stroke-linecap="round"/>
    <g filter="url(#filter3_i_6992_6069)">
        <rect x="414" y="84" width="36" height="52" rx="1" fill="#FFCB8F"/>
    </g>
    <rect x="414" y="84" width="36" height="52" rx="1" stroke="#110529" stroke-width="2" stroke-linecap="round"/>
    <path d="M393.447 118V103.6H395.247L402.757 114.85V103.6H404.557V118H402.757L395.247 106.74V118H393.447Z" fill="#110529"/>
    <path d="M459.447 118V103.6H461.247L468.757 114.85V103.6H470.557V118H468.757L461.247 106.74V118H459.447Z" fill="#110529"/>
    <path d="M426.593 118V103.6H431.033C431.18 103.6 431.437 103.603 431.803 103.61C432.17 103.617 432.52 103.643 432.853 103.69C433.967 103.837 434.897 104.243 435.643 104.91C436.397 105.57 436.963 106.41 437.343 107.43C437.723 108.45 437.913 109.573 437.913 110.8C437.913 112.027 437.723 113.15 437.343 114.17C436.963 115.19 436.397 116.033 435.643 116.7C434.897 117.36 433.967 117.763 432.853 117.91C432.52 117.95 432.167 117.977 431.793 117.99C431.427 117.997 431.173 118 431.033 118H426.593ZM428.423 116.3H431.033C431.287 116.3 431.57 116.293 431.883 116.28C432.197 116.26 432.47 116.23 432.703 116.19C433.49 116.043 434.127 115.713 434.613 115.2C435.1 114.687 435.457 114.047 435.683 113.28C435.91 112.513 436.023 111.687 436.023 110.8C436.023 109.893 435.907 109.057 435.673 108.29C435.447 107.523 435.09 106.887 434.603 106.38C434.117 105.873 433.483 105.55 432.703 105.41C432.47 105.363 432.193 105.333 431.873 105.32C431.553 105.307 431.273 105.3 431.033 105.3H428.423V116.3Z" fill="#110529"/>
    <g filter="url(#filter4_i_6992_6069)">
        <rect x="480" y="84" width="120" height="52" rx="1" fill="#C1ADFF"/>
        <rect x="480" y="84" width="120" height="52" rx="1" stroke="#110529" stroke-width="2" stroke-linecap="round"/>
        <path d="M539.244 118.29C538.237 118.29 537.384 118.017 536.684 117.47C535.984 116.923 535.504 116.19 535.244 115.27L537.014 114.85C537.121 115.337 537.377 115.75 537.784 116.09C538.197 116.43 538.671 116.6 539.204 116.6C539.551 116.6 539.904 116.517 540.264 116.35C540.624 116.177 540.901 115.897 541.094 115.51C541.227 115.243 541.304 114.95 541.324 114.63C541.344 114.303 541.354 113.92 541.354 113.48V103.6H543.154V113.48C543.154 113.893 543.151 114.263 543.144 114.59C543.144 114.917 543.111 115.23 543.044 115.53C542.984 115.823 542.864 116.123 542.684 116.43C542.324 117.063 541.841 117.533 541.234 117.84C540.634 118.14 539.971 118.29 539.244 118.29Z" fill="#110529"/>
    </g>
    <g filter="url(#filter5_i_6992_6069)">
        <rect x="600" y="84" width="280" height="52" rx="1" fill="#FAFAAA"/>
        <rect x="600" y="84" width="280" height="52" rx="1" stroke="#110529" stroke-width="2" stroke-linecap="round"/>
        <path d="M740.093 118.3C738.66 118.3 737.443 117.983 736.443 117.35C735.443 116.717 734.68 115.837 734.153 114.71C733.633 113.583 733.373 112.28 733.373 110.8C733.373 109.32 733.633 108.017 734.153 106.89C734.68 105.763 735.443 104.883 736.443 104.25C737.443 103.617 738.66 103.3 740.093 103.3C741.76 103.3 743.13 103.723 744.203 104.57C745.283 105.417 746.027 106.557 746.433 107.99L744.623 108.47C744.33 107.397 743.807 106.55 743.053 105.93C742.3 105.31 741.313 105 740.093 105C739.02 105 738.127 105.243 737.413 105.73C736.7 106.217 736.163 106.897 735.803 107.77C735.443 108.637 735.26 109.647 735.253 110.8C735.247 111.947 735.423 112.957 735.783 113.83C736.143 114.697 736.683 115.377 737.403 115.87C738.123 116.357 739.02 116.6 740.093 116.6C741.313 116.6 742.3 116.29 743.053 115.67C743.807 115.043 744.33 114.197 744.623 113.13L746.433 113.61C746.027 115.037 745.283 116.177 744.203 117.03C743.13 117.877 741.76 118.3 740.093 118.3Z" fill="#110529"/>
    </g>
    <g filter="url(#filter6_i_6992_6069)">
        <rect x="96" y="320" width="288" height="52" rx="1" fill="#99E099"/>
        <rect x="96" y="320" width="288" height="52" rx="1" stroke="#110529" stroke-width="2" stroke-linecap="round"/>
        <path d="M238.758 354L233.938 339.6H235.788L239.978 352.11L244.208 339.6H246.058L241.238 354H238.758Z" fill="#110529"/>
    </g>
    <g filter="url(#filter7_i_6992_6069)">
        <rect x="384" y="320" width="30" height="52" rx="1" fill="#CBEB67"/>
    </g>
    <rect x="384" y="320" width="30" height="52" rx="1" stroke="#110529" stroke-width="2" stroke-linecap="round"/>
    <g filter="url(#filter8_i_6992_6069)">
        <rect x="450" y="320" width="30" height="52" rx="1" fill="#FAAAFA"/>
    </g>
    <rect x="450" y="320" width="30" height="52" rx="1" stroke="#110529" stroke-width="2" stroke-linecap="round"/>
    <g filter="url(#filter9_i_6992_6069)">
        <rect x="414" y="320" width="36" height="52" rx="1" fill="#FFCB8F"/>
    </g>
    <rect x="414" y="320" width="36" height="52" rx="1" stroke="#110529" stroke-width="2" stroke-linecap="round"/>
    <path d="M393.447 354V339.6H395.247L402.757 350.85V339.6H404.557V354H402.757L395.247 342.74V354H393.447Z" fill="#110529"/>
    <path d="M459.447 354V339.6H461.247L468.757 350.85V339.6H470.557V354H468.757L461.247 342.74V354H459.447Z" fill="#110529"/>
    <path d="M426.593 354V339.6H431.033C431.313 339.6 432.173 339.6 432.853 339.69C436.183 340.13 437.913 343.13 437.913 346.8C437.913 350.48 436.183 353.47 432.853 353.91C432.183 354 431.303 354 431.033 354H426.593ZM428.423 352.3H431.033C431.533 352.3 432.233 352.28 432.703 352.19C435.063 351.76 436.023 349.47 436.023 346.8C436.023 344.08 435.033 341.83 432.703 341.41C432.233 341.32 431.513 341.3 431.033 341.3H428.423V352.3Z" fill="#110529"/>
    <g filter="url(#filter10_i_6992_6069)">
        <rect x="480" y="320" width="120" height="52" rx="1" fill="#C1ADFF"/>
        <rect x="480" y="320" width="120" height="52" rx="1" stroke="#110529" stroke-width="2" stroke-linecap="round"/>
        <path d="M539.244 354.29C537.224 354.29 535.754 353.11 535.244 351.27L537.014 350.85C537.224 351.83 538.134 352.6 539.204 352.6C539.884 352.6 540.704 352.29 541.094 351.51C541.354 350.99 541.354 350.37 541.354 349.48V339.6H543.154V349.48C543.154 350.72 543.214 351.51 542.684 352.43C541.954 353.7 540.694 354.29 539.244 354.29Z" fill="#110529"/>
    </g>
    <g filter="url(#filter11_i_6992_6069)">
        <rect x="600" y="320" width="280" height="52" rx="1" fill="#FAFAAA"/>
        <rect x="600" y="320" width="280" height="52" rx="1" stroke="#110529" stroke-width="2" stroke-linecap="round"/>
        <path d="M740.093 354.3C738.66 354.3 737.443 353.983 736.443 353.35C735.443 352.717 734.68 351.837 734.153 350.71C733.633 349.583 733.373 348.28 733.373 346.8C733.373 345.32 733.633 344.017 734.153 342.89C734.68 341.763 735.443 340.883 736.443 340.25C737.443 339.617 738.66 339.3 740.093 339.3C741.76 339.3 743.13 339.723 744.203 340.57C745.283 341.417 746.027 342.557 746.433 343.99L744.623 344.47C744.33 343.397 743.807 342.55 743.053 341.93C742.3 341.31 741.313 341 740.093 341C739.02 341 738.127 341.243 737.413 341.73C736.7 342.217 736.163 342.897 735.803 343.77C735.443 344.637 735.26 345.647 735.253 346.8C735.247 347.947 735.423 348.957 735.783 349.83C736.143 350.697 736.683 351.377 737.403 351.87C738.123 352.357 739.02 352.6 740.093 352.6C741.313 352.6 742.3 352.29 743.053 351.67C743.807 351.043 744.33 350.197 744.623 349.13L746.433 349.61C746.027 351.037 745.283 352.177 744.203 353.03C743.13 353.877 741.76 354.3 740.093 354.3Z" fill="#110529"/>
    </g>
    <g filter="url(#filter12_i_6992_6069)">
        <rect x="96" y="220" width="288" height="52" rx="1" fill="#99E099"/>
        <rect x="96" y="220" width="288" height="52" rx="1" stroke="#110529" stroke-width="2" stroke-linecap="round"/>
        <path d="M238.758 254L233.938 239.6H235.788L239.978 252.11L244.208 239.6H246.058L241.238 254H238.758Z" fill="#110529"/>
    </g>
    <g filter="url(#filter13_i_6992_6069)">
        <rect x="384" y="220" width="30" height="52" rx="1" fill="#CBEB67"/>
        <rect x="384" y="220" width="30" height="52" rx="1" stroke="#110529" stroke-width="2" stroke-linecap="round"/>
        <path d="M393.447 254V239.6H395.247L402.757 250.85V239.6H404.557V254H402.757L395.247 242.74V254H393.447Z" fill="#110529"/>
    </g>
    <g filter="url(#filter14_i_6992_6069)">
        <rect x="414" y="220" width="120" height="52" rx="1" fill="#C1ADFF"/>
        <rect x="414" y="220" width="120" height="52" rx="1" stroke="#110529" stroke-width="2" stroke-linecap="round"/>
        <path d="M473.244 254.29C472.237 254.29 471.384 254.017 470.684 253.47C469.984 252.923 469.504 252.19 469.244 251.27L471.014 250.85C471.121 251.337 471.377 251.75 471.784 252.09C472.197 252.43 472.671 252.6 473.204 252.6C473.551 252.6 473.904 252.517 474.264 252.35C474.624 252.177 474.901 251.897 475.094 251.51C475.227 251.243 475.304 250.95 475.324 250.63C475.344 250.303 475.354 249.92 475.354 249.48V239.6H477.154V249.48C477.154 249.893 477.151 250.263 477.144 250.59C477.144 250.917 477.111 251.23 477.044 251.53C476.984 251.823 476.864 252.123 476.684 252.43C476.324 253.063 475.841 253.533 475.234 253.84C474.634 254.14 473.971 254.29 473.244 254.29Z" fill="#110529"/>
    </g>
    <g filter="url(#filter15_i_6992_6069)">
        <rect x="534" y="220" width="280" height="52" rx="1" fill="#FAFAAA"/>
        <rect x="534" y="220" width="280" height="52" rx="1" stroke="#110529" stroke-width="2" stroke-linecap="round"/>
        <path d="M674.093 254.3C672.66 254.3 671.443 253.983 670.443 253.35C669.443 252.717 668.68 251.837 668.153 250.71C667.633 249.583 667.373 248.28 667.373 246.8C667.373 245.32 667.633 244.017 668.153 242.89C668.68 241.763 669.443 240.883 670.443 240.25C671.443 239.617 672.66 239.3 674.093 239.3C675.76 239.3 677.13 239.723 678.203 240.57C679.283 241.417 680.027 242.557 680.433 243.99L678.623 244.47C678.33 243.397 677.807 242.55 677.053 241.93C676.3 241.31 675.313 241 674.093 241C673.02 241 672.127 241.243 671.413 241.73C670.7 242.217 670.163 242.897 669.803 243.77C669.443 244.637 669.26 245.647 669.253 246.8C669.247 247.947 669.423 248.957 669.783 249.83C670.143 250.697 670.683 251.377 671.403 251.87C672.123 252.357 673.02 252.6 674.093 252.6C675.313 252.6 676.3 252.29 677.053 251.67C677.807 251.043 678.33 250.197 678.623 249.13L680.433 249.61C680.027 251.037 679.283 252.177 678.203 253.03C677.13 253.877 675.76 254.3 674.093 254.3Z" fill="#110529"/>
    </g>
    <g filter="url(#filter16_i_6992_6069)">
        <rect x="96" y="420" width="288" height="52" rx="1" fill="#99E099"/>
        <rect x="96" y="420" width="288" height="52" rx="1" stroke="#110529" stroke-width="2" stroke-linecap="round"/>
        <path d="M238.758 454L233.938 439.6H235.788L239.978 452.11L244.208 439.6H246.058L241.238 454H238.758Z" fill="#110529"/>
    </g>
    <g filter="url(#filter17_i_6992_6069)">
        <rect x="384" y="420" width="30" height="52" rx="1" fill="#CBEB67"/>
        <rect x="384" y="420" width="30" height="52" rx="1" stroke="#110529" stroke-width="2" stroke-linecap="round"/>
        <path d="M393.447 454V439.6H395.247L402.757 450.85V439.6H404.557V454H402.757L395.247 442.74V454H393.447Z" fill="#110529"/>
    </g>
    <g filter="url(#filter18_i_6992_6069)">
        <rect x="414" y="420" width="120" height="52" rx="1" fill="#C1ADFF"/>
        <rect x="414" y="420" width="120" height="52" rx="1" stroke="#110529" stroke-width="2" stroke-linecap="round"/>
        <path d="M473.244 454.29C471.224 454.29 469.754 453.11 469.244 451.27L471.014 450.85C471.224 451.83 472.134 452.6 473.204 452.6C473.884 452.6 474.704 452.29 475.094 451.51C475.354 450.99 475.354 450.37 475.354 449.48V439.6H477.154V449.48C477.154 450.72 477.214 451.51 476.684 452.43C475.954 453.7 474.694 454.29 473.244 454.29Z" fill="#110529"/>
    </g>
    <g filter="url(#filter19_i_6992_6069)">
        <rect x="534" y="420" width="280" height="52" rx="1" fill="#FAFAAA"/>
        <rect x="534" y="420" width="280" height="52" rx="1" stroke="#110529" stroke-width="2" stroke-linecap="round"/>
        <path d="M674.093 454.3C672.66 454.3 671.443 453.983 670.443 453.35C669.443 452.717 668.68 451.837 668.153 450.71C667.633 449.583 667.373 448.28 667.373 446.8C667.373 445.32 667.633 444.017 668.153 442.89C668.68 441.763 669.443 440.883 670.443 440.25C671.443 439.617 672.66 439.3 674.093 439.3C675.76 439.3 677.13 439.723 678.203 440.57C679.283 441.417 680.027 442.557 680.433 443.99L678.623 444.47C678.33 443.397 677.807 442.55 677.053 441.93C676.3 441.31 675.313 441 674.093 441C673.02 441 672.127 441.243 671.413 441.73C670.7 442.217 670.163 442.897 669.803 443.77C669.443 444.637 669.26 445.647 669.253 446.8C669.247 447.947 669.423 448.957 669.783 449.83C670.143 450.697 670.683 451.377 671.403 451.87C672.123 452.357 673.02 452.6 674.093 452.6C675.313 452.6 676.3 452.29 677.053 451.67C677.807 451.043 678.33 450.197 678.623 449.13L680.433 449.61C680.027 451.037 679.283 452.177 678.203 453.03C677.13 453.877 675.76 454.3 674.093 454.3Z" fill="#110529"/>
    </g>
    <defs>
        <filter id="filter0_i_6992_6069" x="95" y="83" width="290" height="54" filterUnits="userSpaceOnUse" color-interpolation-filters="sRGB">
            <feFlood flood-opacity="0" result="BackgroundImageFix"/>
            <feBlend mode="normal" in="SourceGraphic" in2="BackgroundImageFix" result="shape"/>
            <feColorMatrix in="SourceAlpha" type="matrix" values="0 0 0 0 0 0 0 0 0 0 0 0 0 0 0 0 0 0 127 0" result="hardAlpha"/>
            <feOffset dx="-8" dy="-4"/>
            <feComposite in2="hardAlpha" operator="arithmetic" k2="-1" k3="1"/>
            <feColorMatrix type="matrix" values="0 0 0 0 0.0666667 0 0 0 0 0.0196078 0 0 0 0 0.160784 0 0 0 0.16 0"/>
            <feBlend mode="normal" in2="shape" result="effect1_innerShadow_6992_6069"/>
        </filter>
        <filter id="filter1_i_6992_6069" x="383" y="83" width="32" height="54" filterUnits="userSpaceOnUse" color-interpolation-filters="sRGB">
            <feFlood flood-opacity="0" result="BackgroundImageFix"/>
            <feBlend mode="normal" in="SourceGraphic" in2="BackgroundImageFix" result="shape"/>
            <feColorMatrix in="SourceAlpha" type="matrix" values="0 0 0 0 0 0 0 0 0 0 0 0 0 0 0 0 0 0 127 0" result="hardAlpha"/>
            <feOffset dx="-8" dy="-4"/>
            <feComposite in2="hardAlpha" operator="arithmetic" k2="-1" k3="1"/>
            <feColorMatrix type="matrix" values="0 0 0 0 0.0666667 0 0 0 0 0.0196078 0 0 0 0 0.160784 0 0 0 0.16 0"/>
            <feBlend mode="normal" in2="shape" result="effect1_innerShadow_6992_6069"/>
        </filter>
        <filter id="filter2_i_6992_6069" x="449" y="83" width="32" height="54" filterUnits="userSpaceOnUse" color-interpolation-filters="sRGB">
            <feFlood flood-opacity="0" result="BackgroundImageFix"/>
            <feBlend mode="normal" in="SourceGraphic" in2="BackgroundImageFix" result="shape"/>
            <feColorMatrix in="SourceAlpha" type="matrix" values="0 0 0 0 0 0 0 0 0 0 0 0 0 0 0 0 0 0 127 0" result="hardAlpha"/>
            <feOffset dx="-8" dy="-4"/>
            <feComposite in2="hardAlpha" operator="arithmetic" k2="-1" k3="1"/>
            <feColorMatrix type="matrix" values="0 0 0 0 0.0666667 0 0 0 0 0.0196078 0 0 0 0 0.160784 0 0 0 0.16 0"/>
            <feBlend mode="normal" in2="shape" result="effect1_innerShadow_6992_6069"/>
        </filter>
        <filter id="filter3_i_6992_6069" x="413" y="83" width="38" height="54" filterUnits="userSpaceOnUse" color-interpolation-filters="sRGB">
            <feFlood flood-opacity="0" result="BackgroundImageFix"/>
            <feBlend mode="normal" in="SourceGraphic" in2="BackgroundImageFix" result="shape"/>
            <feColorMatrix in="SourceAlpha" type="matrix" values="0 0 0 0 0 0 0 0 0 0 0 0 0 0 0 0 0 0 127 0" result="hardAlpha"/>
            <feOffset dx="-8" dy="-4"/>
            <feComposite in2="hardAlpha" operator="arithmetic" k2="-1" k3="1"/>
            <feColorMatrix type="matrix" values="0 0 0 0 0.0666667 0 0 0 0 0.0196078 0 0 0 0 0.160784 0 0 0 0.16 0"/>
            <feBlend mode="normal" in2="shape" result="effect1_innerShadow_6992_6069"/>
        </filter>
        <filter id="filter4_i_6992_6069" x="479" y="83" width="122" height="54" filterUnits="userSpaceOnUse" color-interpolation-filters="sRGB">
            <feFlood flood-opacity="0" result="BackgroundImageFix"/>
            <feBlend mode="normal" in="SourceGraphic" in2="BackgroundImageFix" result="shape"/>
            <feColorMatrix in="SourceAlpha" type="matrix" values="0 0 0 0 0 0 0 0 0 0 0 0 0 0 0 0 0 0 127 0" result="hardAlpha"/>
            <feOffset dx="-8" dy="-4"/>
            <feComposite in2="hardAlpha" operator="arithmetic" k2="-1" k3="1"/>
            <feColorMatrix type="matrix" values="0 0 0 0 0.0666667 0 0 0 0 0.0196078 0 0 0 0 0.160784 0 0 0 0.16 0"/>
            <feBlend mode="normal" in2="shape" result="effect1_innerShadow_6992_6069"/>
        </filter>
        <filter id="filter5_i_6992_6069" x="599" y="83" width="282" height="54" filterUnits="userSpaceOnUse" color-interpolation-filters="sRGB">
            <feFlood flood-opacity="0" result="BackgroundImageFix"/>
            <feBlend mode="normal" in="SourceGraphic" in2="BackgroundImageFix" result="shape"/>
            <feColorMatrix in="SourceAlpha" type="matrix" values="0 0 0 0 0 0 0 0 0 0 0 0 0 0 0 0 0 0 127 0" result="hardAlpha"/>
            <feOffset dx="-8" dy="-4"/>
            <feComposite in2="hardAlpha" operator="arithmetic" k2="-1" k3="1"/>
            <feColorMatrix type="matrix" values="0 0 0 0 0.0666667 0 0 0 0 0.0196078 0 0 0 0 0.160784 0 0 0 0.16 0"/>
            <feBlend mode="normal" in2="shape" result="effect1_innerShadow_6992_6069"/>
        </filter>
        <filter id="filter6_i_6992_6069" x="95" y="319" width="290" height="54" filterUnits="userSpaceOnUse" color-interpolation-filters="sRGB">
            <feFlood flood-opacity="0" result="BackgroundImageFix"/>
            <feBlend mode="normal" in="SourceGraphic" in2="BackgroundImageFix" result="shape"/>
            <feColorMatrix in="SourceAlpha" type="matrix" values="0 0 0 0 0 0 0 0 0 0 0 0 0 0 0 0 0 0 127 0" result="hardAlpha"/>
            <feOffset dx="-8" dy="-4"/>
            <feComposite in2="hardAlpha" operator="arithmetic" k2="-1" k3="1"/>
            <feColorMatrix type="matrix" values="0 0 0 0 0.0666667 0 0 0 0 0.0196078 0 0 0 0 0.160784 0 0 0 0.16 0"/>
            <feBlend mode="normal" in2="shape" result="effect1_innerShadow_6992_6069"/>
        </filter>
        <filter id="filter7_i_6992_6069" x="383" y="319" width="32" height="54" filterUnits="userSpaceOnUse" color-interpolation-filters="sRGB">
            <feFlood flood-opacity="0" result="BackgroundImageFix"/>
            <feBlend mode="normal" in="SourceGraphic" in2="BackgroundImageFix" result="shape"/>
            <feColorMatrix in="SourceAlpha" type="matrix" values="0 0 0 0 0 0 0 0 0 0 0 0 0 0 0 0 0 0 127 0" result="hardAlpha"/>
            <feOffset dx="-8" dy="-4"/>
            <feComposite in2="hardAlpha" operator="arithmetic" k2="-1" k3="1"/>
            <feColorMatrix type="matrix" values="0 0 0 0 0.0666667 0 0 0 0 0.0196078 0 0 0 0 0.160784 0 0 0 0.16 0"/>
            <feBlend mode="normal" in2="shape" result="effect1_innerShadow_6992_6069"/>
        </filter>
        <filter id="filter8_i_6992_6069" x="449" y="319" width="32" height="54" filterUnits="userSpaceOnUse" color-interpolation-filters="sRGB">
            <feFlood flood-opacity="0" result="BackgroundImageFix"/>
            <feBlend mode="normal" in="SourceGraphic" in2="BackgroundImageFix" result="shape"/>
            <feColorMatrix in="SourceAlpha" type="matrix" values="0 0 0 0 0 0 0 0 0 0 0 0 0 0 0 0 0 0 127 0" result="hardAlpha"/>
            <feOffset dx="-8" dy="-4"/>
            <feComposite in2="hardAlpha" operator="arithmetic" k2="-1" k3="1"/>
            <feColorMatrix type="matrix" values="0 0 0 0 0.0666667 0 0 0 0 0.0196078 0 0 0 0 0.160784 0 0 0 0.16 0"/>
            <feBlend mode="normal" in2="shape" result="effect1_innerShadow_6992_6069"/>
        </filter>
        <filter id="filter9_i_6992_6069" x="413" y="319" width="38" height="54" filterUnits="userSpaceOnUse" color-interpolation-filters="sRGB">
            <feFlood flood-opacity="0" result="BackgroundImageFix"/>
            <feBlend mode="normal" in="SourceGraphic" in2="BackgroundImageFix" result="shape"/>
            <feColorMatrix in="SourceAlpha" type="matrix" values="0 0 0 0 0 0 0 0 0 0 0 0 0 0 0 0 0 0 127 0" result="hardAlpha"/>
            <feOffset dx="-8" dy="-4"/>
            <feComposite in2="hardAlpha" operator="arithmetic" k2="-1" k3="1"/>
            <feColorMatrix type="matrix" values="0 0 0 0 0.0666667 0 0 0 0 0.0196078 0 0 0 0 0.160784 0 0 0 0.16 0"/>
            <feBlend mode="normal" in2="shape" result="effect1_innerShadow_6992_6069"/>
        </filter>
        <filter id="filter10_i_6992_6069" x="479" y="319" width="122" height="54" filterUnits="userSpaceOnUse" color-interpolation-filters="sRGB">
            <feFlood flood-opacity="0" result="BackgroundImageFix"/>
            <feBlend mode="normal" in="SourceGraphic" in2="BackgroundImageFix" result="shape"/>
            <feColorMatrix in="SourceAlpha" type="matrix" values="0 0 0 0 0 0 0 0 0 0 0 0 0 0 0 0 0 0 127 0" result="hardAlpha"/>
            <feOffset dx="-8" dy="-4"/>
            <feComposite in2="hardAlpha" operator="arithmetic" k2="-1" k3="1"/>
            <feColorMatrix type="matrix" values="0 0 0 0 0.0666667 0 0 0 0 0.0196078 0 0 0 0 0.160784 0 0 0 0.16 0"/>
            <feBlend mode="normal" in2="shape" result="effect1_innerShadow_6992_6069"/>
        </filter>
        <filter id="filter11_i_6992_6069" x="599" y="319" width="282" height="54" filterUnits="userSpaceOnUse" color-interpolation-filters="sRGB">
            <feFlood flood-opacity="0" result="BackgroundImageFix"/>
            <feBlend mode="normal" in="SourceGraphic" in2="BackgroundImageFix" result="shape"/>
            <feColorMatrix in="SourceAlpha" type="matrix" values="0 0 0 0 0 0 0 0 0 0 0 0 0 0 0 0 0 0 127 0" result="hardAlpha"/>
            <feOffset dx="-8" dy="-4"/>
            <feComposite in2="hardAlpha" operator="arithmetic" k2="-1" k3="1"/>
            <feColorMatrix type="matrix" values="0 0 0 0 0.0666667 0 0 0 0 0.0196078 0 0 0 0 0.160784 0 0 0 0.16 0"/>
            <feBlend mode="normal" in2="shape" result="effect1_innerShadow_6992_6069"/>
        </filter>
        <filter id="filter12_i_6992_6069" x="95" y="219" width="290" height="54" filterUnits="userSpaceOnUse" color-interpolation-filters="sRGB">
            <feFlood flood-opacity="0" result="BackgroundImageFix"/>
            <feBlend mode="normal" in="SourceGraphic" in2="BackgroundImageFix" result="shape"/>
            <feColorMatrix in="SourceAlpha" type="matrix" values="0 0 0 0 0 0 0 0 0 0 0 0 0 0 0 0 0 0 127 0" result="hardAlpha"/>
            <feOffset dx="-8" dy="-4"/>
            <feComposite in2="hardAlpha" operator="arithmetic" k2="-1" k3="1"/>
            <feColorMatrix type="matrix" values="0 0 0 0 0.0666667 0 0 0 0 0.0196078 0 0 0 0 0.160784 0 0 0 0.16 0"/>
            <feBlend mode="normal" in2="shape" result="effect1_innerShadow_6992_6069"/>
        </filter>
        <filter id="filter13_i_6992_6069" x="383" y="219" width="32" height="54" filterUnits="userSpaceOnUse" color-interpolation-filters="sRGB">
            <feFlood flood-opacity="0" result="BackgroundImageFix"/>
            <feBlend mode="normal" in="SourceGraphic" in2="BackgroundImageFix" result="shape"/>
            <feColorMatrix in="SourceAlpha" type="matrix" values="0 0 0 0 0 0 0 0 0 0 0 0 0 0 0 0 0 0 127 0" result="hardAlpha"/>
            <feOffset dx="-8" dy="-4"/>
            <feComposite in2="hardAlpha" operator="arithmetic" k2="-1" k3="1"/>
            <feColorMatrix type="matrix" values="0 0 0 0 0.0666667 0 0 0 0 0.0196078 0 0 0 0 0.160784 0 0 0 0.16 0"/>
            <feBlend mode="normal" in2="shape" result="effect1_innerShadow_6992_6069"/>
        </filter>
        <filter id="filter14_i_6992_6069" x="413" y="219" width="122" height="54" filterUnits="userSpaceOnUse" color-interpolation-filters="sRGB">
            <feFlood flood-opacity="0" result="BackgroundImageFix"/>
            <feBlend mode="normal" in="SourceGraphic" in2="BackgroundImageFix" result="shape"/>
            <feColorMatrix in="SourceAlpha" type="matrix" values="0 0 0 0 0 0 0 0 0 0 0 0 0 0 0 0 0 0 127 0" result="hardAlpha"/>
            <feOffset dx="-8" dy="-4"/>
            <feComposite in2="hardAlpha" operator="arithmetic" k2="-1" k3="1"/>
            <feColorMatrix type="matrix" values="0 0 0 0 0.0666667 0 0 0 0 0.0196078 0 0 0 0 0.160784 0 0 0 0.16 0"/>
            <feBlend mode="normal" in2="shape" result="effect1_innerShadow_6992_6069"/>
        </filter>
        <filter id="filter15_i_6992_6069" x="533" y="219" width="282" height="54" filterUnits="userSpaceOnUse" color-interpolation-filters="sRGB">
            <feFlood flood-opacity="0" result="BackgroundImageFix"/>
            <feBlend mode="normal" in="SourceGraphic" in2="BackgroundImageFix" result="shape"/>
            <feColorMatrix in="SourceAlpha" type="matrix" values="0 0 0 0 0 0 0 0 0 0 0 0 0 0 0 0 0 0 127 0" result="hardAlpha"/>
            <feOffset dx="-8" dy="-4"/>
            <feComposite in2="hardAlpha" operator="arithmetic" k2="-1" k3="1"/>
            <feColorMatrix type="matrix" values="0 0 0 0 0.0666667 0 0 0 0 0.0196078 0 0 0 0 0.160784 0 0 0 0.16 0"/>
            <feBlend mode="normal" in2="shape" result="effect1_innerShadow_6992_6069"/>
        </filter>
        <filter id="filter16_i_6992_6069" x="95" y="419" width="290" height="54" filterUnits="userSpaceOnUse" color-interpolation-filters="sRGB">
            <feFlood flood-opacity="0" result="BackgroundImageFix"/>
            <feBlend mode="normal" in="SourceGraphic" in2="BackgroundImageFix" result="shape"/>
            <feColorMatrix in="SourceAlpha" type="matrix" values="0 0 0 0 0 0 0 0 0 0 0 0 0 0 0 0 0 0 127 0" result="hardAlpha"/>
            <feOffset dx="-8" dy="-4"/>
            <feComposite in2="hardAlpha" operator="arithmetic" k2="-1" k3="1"/>
            <feColorMatrix type="matrix" values="0 0 0 0 0.0666667 0 0 0 0 0.0196078 0 0 0 0 0.160784 0 0 0 0.16 0"/>
            <feBlend mode="normal" in2="shape" result="effect1_innerShadow_6992_6069"/>
        </filter>
        <filter id="filter17_i_6992_6069" x="383" y="419" width="32" height="54" filterUnits="userSpaceOnUse" color-interpolation-filters="sRGB">
            <feFlood flood-opacity="0" result="BackgroundImageFix"/>
            <feBlend mode="normal" in="SourceGraphic" in2="BackgroundImageFix" result="shape"/>
            <feColorMatrix in="SourceAlpha" type="matrix" values="0 0 0 0 0 0 0 0 0 0 0 0 0 0 0 0 0 0 127 0" result="hardAlpha"/>
            <feOffset dx="-8" dy="-4"/>
            <feComposite in2="hardAlpha" operator="arithmetic" k2="-1" k3="1"/>
            <feColorMatrix type="matrix" values="0 0 0 0 0.0666667 0 0 0 0 0.0196078 0 0 0 0 0.160784 0 0 0 0.16 0"/>
            <feBlend mode="normal" in2="shape" result="effect1_innerShadow_6992_6069"/>
        </filter>
        <filter id="filter18_i_6992_6069" x="413" y="419" width="122" height="54" filterUnits="userSpaceOnUse" color-interpolation-filters="sRGB">
            <feFlood flood-opacity="0" result="BackgroundImageFix"/>
            <feBlend mode="normal" in="SourceGraphic" in2="BackgroundImageFix" result="shape"/>
            <feColorMatrix in="SourceAlpha" type="matrix" values="0 0 0 0 0 0 0 0 0 0 0 0 0 0 0 0 0 0 127 0" result="hardAlpha"/>
            <feOffset dx="-8" dy="-4"/>
            <feComposite in2="hardAlpha" operator="arithmetic" k2="-1" k3="1"/>
            <feColorMatrix type="matrix" values="0 0 0 0 0.0666667 0 0 0 0 0.0196078 0 0 0 0 0.160784 0 0 0 0.16 0"/>
            <feBlend mode="normal" in2="shape" result="effect1_innerShadow_6992_6069"/>
        </filter>
        <filter id="filter19_i_6992_6069" x="533" y="419" width="282" height="54" filterUnits="userSpaceOnUse" color-interpolation-filters="sRGB">
            <feFlood flood-opacity="0" result="BackgroundImageFix"/>
            <feBlend mode="normal" in="SourceGraphic" in2="BackgroundImageFix" result="shape"/>
            <feColorMatrix in="SourceAlpha" type="matrix" values="0 0 0 0 0 0 0 0 0 0 0 0 0 0 0 0 0 0 127 0" result="hardAlpha"/>
            <feOffset dx="-8" dy="-4"/>
            <feComposite in2="hardAlpha" operator="arithmetic" k2="-1" k3="1"/>
            <feColorMatrix type="matrix" values="0 0 0 0 0.0666667 0 0 0 0 0.0196078 0 0 0 0 0.160784 0 0 0 0.16 0"/>
            <feBlend mode="normal" in2="shape" result="effect1_innerShadow_6992_6069"/>
        </filter>
    </defs>
</svg>
