<svg width="960" height="352" viewBox="0 0 960 352" fill="none" xmlns="http://www.w3.org/2000/svg">
    <rect width="960" height="352" fill="white"/>
    <path d="M204 112V24" stroke="#D3D7E0" stroke-width="2" stroke-linecap="square" stroke-dasharray="6 6"/>
    <path d="M219.268 37.21C221.151 37.21 222.768 35.705 222.768 33.829C222.768 31.939 221.382 30.525 219.499 30.525C218.904 30.525 218.274 30.714 217.777 31.071L217.945 28.299H222.075V26.92H216.636L216.328 32.219L217.602 32.667C217.917 32.247 218.484 31.855 219.31 31.855C220.388 31.855 221.291 32.723 221.291 33.829C221.291 34.907 220.416 35.796 219.31 35.796C218.47 35.796 217.637 35.229 217.406 34.333L215.999 34.711C216.412 36.181 217.714 37.21 219.268 37.21ZM224.672 29.629L224.581 30.28C225.589 30.462 226.128 29.846 226.128 28.747V26.92H224.581V28.607H225.386C225.456 29.202 225.281 29.678 224.672 29.629ZM232.15 37.21C234.523 37.21 236.168 35.663 236.168 33.29V26.92H234.684V33.213C234.684 34.914 233.417 35.831 232.15 35.831C230.897 35.831 229.616 34.935 229.616 33.213V26.92L228.132 26.927V33.29C228.132 35.663 229.777 37.21 232.15 37.21ZM240.639 37H242.102V28.299H245.455V26.92H237.286V28.299H240.639V37ZM246.576 37H248.039V33.381H250.713L252.47 37H254.143L252.239 33.094C253.38 32.597 253.954 31.491 253.954 30.147C253.954 28.516 253.114 27.235 251.427 26.976C251.161 26.934 250.846 26.92 250.65 26.92H246.576V37ZM248.039 31.995V28.299H250.594C250.776 28.299 251.021 28.313 251.231 28.369C252.127 28.579 252.463 29.405 252.463 30.147C252.463 30.889 252.127 31.715 251.231 31.932C251.021 31.981 250.776 31.995 250.594 31.995H248.039Z" fill="#D3D7E0"/>
    <path d="M266 112V24" stroke="#D3D7E0" stroke-width="2" stroke-linecap="square" stroke-dasharray="6 6"/>
    <path d="M276.442 37H282.469V35.621H277.905V26.92H276.442V37Z" fill="#D3D7E0"/>
    <path d="M292 112V24" stroke="#D3D7E0" stroke-width="2" stroke-linecap="square" stroke-dasharray="6 6"/>
    <path d="M306.858 37H308.321V32.695H311.989V31.225H308.321V28.383H312.829V26.92H306.858V37ZM314.09 37H315.553V33.381H318.227L319.984 37H321.657L319.753 33.094C320.894 32.597 321.468 31.491 321.468 30.147C321.468 28.516 320.628 27.235 318.941 26.976C318.675 26.934 318.36 26.92 318.164 26.92H314.09V37ZM315.553 31.995V28.299H318.108C318.29 28.299 318.535 28.313 318.745 28.369C319.641 28.579 319.977 29.405 319.977 30.147C319.977 30.889 319.641 31.715 318.745 31.932C318.535 31.981 318.29 31.995 318.108 31.995H315.553ZM324.953 37H326.444V26.92H324.953L323.056 28.054V29.685L324.953 28.53V37Z" fill="#D3D7E0"/>
    <path d="M342 112V24" stroke="#D3D7E0" stroke-width="2" stroke-linecap="square" stroke-dasharray="6 6"/>
    <path d="M354.735 37.21C357.059 37.21 358.62 35.943 359.215 33.955L357.731 33.556C357.332 34.963 356.331 35.817 354.735 35.817C352.593 35.817 351.501 34.27 351.515 31.96C351.522 29.65 352.593 28.103 354.735 28.103C356.331 28.103 357.332 28.957 357.731 30.364L359.215 29.965C358.62 27.977 357.059 26.71 354.735 26.71C351.711 26.71 349.968 28.845 349.968 31.96C349.968 35.075 351.711 37.21 354.735 37.21ZM360.754 37H363.911C364.093 37 364.695 37 365.164 36.937C367.53 36.636 368.79 34.529 368.79 31.96C368.79 29.391 367.53 27.284 365.164 26.983C364.695 26.92 364.093 26.92 363.911 26.92H360.754V37ZM362.252 35.607V28.313H363.911C364.219 28.313 364.723 28.32 365.059 28.383C366.571 28.663 367.236 30.189 367.236 31.96C367.236 33.689 366.599 35.243 365.059 35.537C364.723 35.6 364.233 35.607 363.911 35.607H362.252ZM370.42 37H371.883V33.381H374.557L376.314 37H377.987L376.083 33.094C377.224 32.597 377.798 31.491 377.798 30.147C377.798 28.516 376.958 27.235 375.271 26.976C375.005 26.934 374.69 26.92 374.494 26.92H370.42V37ZM371.883 31.995V28.299H374.438C374.62 28.299 374.865 28.313 375.075 28.369C375.971 28.579 376.307 29.405 376.307 30.147C376.307 30.889 375.971 31.715 375.075 31.932C374.865 31.981 374.62 31.995 374.438 31.995H371.883ZM381.283 37H382.774V26.92H381.283L379.386 28.054V29.685L381.283 28.53V37Z" fill="#D3D7E0"/>
    <path d="M392 112V24" stroke="#D3D7E0" stroke-width="2" stroke-linecap="square" stroke-dasharray="6 6"/>
    <path d="M405.703 37H407.166V32.695H410.834V31.225H407.166V28.383H411.674V26.92H405.703V37ZM412.935 37H414.398V33.381H417.072L418.829 37H420.502L418.598 33.094C419.739 32.597 420.313 31.491 420.313 30.147C420.313 28.516 419.473 27.235 417.786 26.976C417.52 26.934 417.205 26.92 417.009 26.92H412.935V37ZM414.398 31.995V28.299H416.953C417.135 28.299 417.38 28.313 417.59 28.369C418.486 28.579 418.822 29.405 418.822 30.147C418.822 30.889 418.486 31.715 417.59 31.932C417.38 31.981 417.135 31.995 416.953 31.995H414.398ZM421.761 36.993H428.579V35.6H424.022L426.941 32.996C428.033 32.037 428.579 31.407 428.579 30.028C428.579 28.117 427.144 26.71 425.24 26.71C423.231 26.71 421.796 28.047 421.796 30H423.294C423.28 28.985 424.092 28.103 425.212 28.103C426.297 28.103 427.074 28.929 427.074 30.007C427.074 30.581 426.864 31.127 426.157 31.757L421.768 35.691L421.761 36.993Z" fill="#D3D7E0"/>
    <path d="M442 112V24" stroke="#D3D7E0" stroke-width="2" stroke-linecap="square" stroke-dasharray="6 6"/>
    <path d="M453.58 37.21C455.904 37.21 457.465 35.943 458.06 33.955L456.576 33.556C456.177 34.963 455.176 35.817 453.58 35.817C451.438 35.817 450.346 34.27 450.36 31.96C450.367 29.65 451.438 28.103 453.58 28.103C455.176 28.103 456.177 28.957 456.576 30.364L458.06 29.965C457.465 27.977 455.904 26.71 453.58 26.71C450.556 26.71 448.813 28.845 448.813 31.96C448.813 35.075 450.556 37.21 453.58 37.21ZM459.599 37H462.756C462.938 37 463.54 37 464.009 36.937C466.375 36.636 467.635 34.529 467.635 31.96C467.635 29.391 466.375 27.284 464.009 26.983C463.54 26.92 462.938 26.92 462.756 26.92H459.599V37ZM461.097 35.607V28.313H462.756C463.064 28.313 463.568 28.32 463.904 28.383C465.416 28.663 466.081 30.189 466.081 31.96C466.081 33.689 465.444 35.243 463.904 35.537C463.568 35.6 463.078 35.607 462.756 35.607H461.097ZM469.265 37H470.728V33.381H473.402L475.159 37H476.832L474.928 33.094C476.069 32.597 476.643 31.491 476.643 30.147C476.643 28.516 475.803 27.235 474.116 26.976C473.85 26.934 473.535 26.92 473.339 26.92H469.265V37ZM470.728 31.995V28.299H473.283C473.465 28.299 473.71 28.313 473.92 28.369C474.816 28.579 475.152 29.405 475.152 30.147C475.152 30.889 474.816 31.715 473.92 31.932C473.71 31.981 473.465 31.995 473.283 31.995H470.728ZM478.091 36.993H484.909V35.6H480.352L483.271 32.996C484.363 32.037 484.909 31.407 484.909 30.028C484.909 28.117 483.474 26.71 481.57 26.71C479.561 26.71 478.126 28.047 478.126 30H479.624C479.61 28.985 480.422 28.103 481.542 28.103C482.627 28.103 483.404 28.929 483.404 30.007C483.404 30.581 483.194 31.127 482.487 31.757L478.098 35.691L478.091 36.993Z" fill="#D3D7E0"/>
    <path d="M492 112V24" stroke="#D3D7E0" stroke-width="2" stroke-linecap="square" stroke-dasharray="6 6"/>
    <path d="M505.805 37H507.268V32.695H510.936V31.225H507.268V28.383H511.776V26.92H505.805V37ZM513.038 37H514.501V33.381H517.175L518.932 37H520.605L518.701 33.094C519.842 32.597 520.416 31.491 520.416 30.147C520.416 28.516 519.576 27.235 517.889 26.976C517.623 26.934 517.308 26.92 517.112 26.92H513.038V37ZM514.501 31.995V28.299H517.056C517.238 28.299 517.483 28.313 517.693 28.369C518.589 28.579 518.925 29.405 518.925 30.147C518.925 30.889 518.589 31.715 517.693 31.932C517.483 31.981 517.238 31.995 517.056 31.995H514.501ZM524.964 37.189C526.847 37.189 528.331 35.796 528.331 33.871C528.331 32.233 527.323 30.924 525.692 30.707L528.184 28.313V26.92H522.122V28.313H526.392L523.312 31.036L523.998 32.191C524.285 32.037 524.628 31.939 524.95 31.939C526.07 31.939 526.833 32.751 526.833 33.871C526.833 34.984 526.07 35.789 524.964 35.803C524.138 35.81 523.403 35.341 523.137 34.466L521.723 34.858C522.15 36.293 523.466 37.189 524.964 37.189Z" fill="#D3D7E0"/>
    <path d="M542 112V24" stroke="#D3D7E0" stroke-width="2" stroke-linecap="square" stroke-dasharray="6 6"/>
    <path d="M588.682 37.21C591.006 37.21 592.567 35.943 593.162 33.955L591.678 33.556C591.279 34.963 590.278 35.817 588.682 35.817C586.54 35.817 585.448 34.27 585.462 31.96C585.469 29.65 586.54 28.103 588.682 28.103C590.278 28.103 591.279 28.957 591.678 30.364L593.162 29.965C592.567 27.977 591.006 26.71 588.682 26.71C585.658 26.71 583.915 28.845 583.915 31.96C583.915 35.075 585.658 37.21 588.682 37.21ZM594.702 37H597.859C598.041 37 598.643 37 599.112 36.937C601.478 36.636 602.738 34.529 602.738 31.96C602.738 29.391 601.478 27.284 599.112 26.983C598.643 26.92 598.041 26.92 597.859 26.92H594.702V37ZM596.2 35.607V28.313H597.859C598.167 28.313 598.671 28.32 599.007 28.383C600.519 28.663 601.184 30.189 601.184 31.96C601.184 33.689 600.547 35.243 599.007 35.537C598.671 35.6 598.181 35.607 597.859 35.607H596.2ZM604.368 37H605.831V33.381H608.505L610.262 37H611.935L610.031 33.094C611.172 32.597 611.746 31.491 611.746 30.147C611.746 28.516 610.906 27.235 609.219 26.976C608.953 26.934 608.638 26.92 608.442 26.92H604.368V37ZM605.831 31.995V28.299H608.386C608.568 28.299 608.813 28.313 609.023 28.369C609.919 28.579 610.255 29.405 610.255 30.147C610.255 30.889 609.919 31.715 609.023 31.932C608.813 31.981 608.568 31.995 608.386 31.995H605.831ZM616.294 37.189C618.177 37.189 619.661 35.796 619.661 33.871C619.661 32.233 618.653 30.924 617.022 30.707L619.514 28.313V26.92H613.452V28.313H617.722L614.642 31.036L615.328 32.191C615.615 32.037 615.958 31.939 616.28 31.939C617.4 31.939 618.163 32.751 618.163 33.871C618.163 34.984 617.4 35.789 616.294 35.803C615.468 35.81 614.733 35.341 614.467 34.466L613.053 34.858C613.48 36.293 614.796 37.189 616.294 37.189Z" fill="#D3D7E0"/>
    <path d="M662 112V24" stroke="#D3D7E0" stroke-width="2" stroke-linecap="square" stroke-dasharray="6 6"/>
    <path d="M700.593 37H702.056V32.695H705.724V31.225H702.056V28.383H706.564V26.92H700.593V37ZM707.826 37H709.289V33.381H711.963L713.72 37H715.393L713.489 33.094C714.63 32.597 715.204 31.491 715.204 30.147C715.204 28.516 714.364 27.235 712.677 26.976C712.411 26.934 712.096 26.92 711.9 26.92H707.826V37ZM709.289 31.995V28.299H711.844C712.026 28.299 712.271 28.313 712.481 28.369C713.377 28.579 713.713 29.405 713.713 30.147C713.713 30.889 713.377 31.715 712.481 31.932C712.271 31.981 712.026 31.995 711.844 31.995H709.289ZM721.201 37H722.685V35.243H723.686V33.857H722.685V31.127H721.201V33.857H718.324L721.6 26.92H719.927L716.651 33.857V35.243H721.201V37Z" fill="#D3D7E0"/>
    <path d="M762 112V24" stroke="#D3D7E0" stroke-width="2" stroke-linecap="square" stroke-dasharray="6 6"/>
    <rect width="45" height="20" transform="translate(102 76)" fill="white"/>
    <path d="M109.267 80L107 81.35V83L109.267 81.6333V92H110.767V80H109.267ZM113.682 83.6167H115.199C115.199 82.8833 115.532 82.2 116.066 81.7333C116.482 81.3833 117.032 81.1667 117.632 81.1667C118.282 81.1667 118.882 81.4 119.316 81.8333C119.799 82.2833 120.082 82.9333 120.082 83.6167C120.082 84.3833 119.849 85.0833 118.966 85.8667L113.616 90.5667L113.599 91.9833H121.432V90.5667H115.932L119.782 87.1333C120.999 86.05 121.599 85.1667 121.599 83.6333C121.599 82.5833 121.182 81.5667 120.449 80.8667C119.749 80.1167 118.766 79.75 117.699 79.75C116.732 79.75 115.766 80.0167 115.032 80.65C114.199 81.3667 113.666 82.45 113.682 83.6167ZM131.038 84.1833C130.304 83.25 129.154 82.75 127.921 82.75C126.854 82.75 125.838 83.15 125.104 83.85V80H123.604V92H124.938V90.95C125.654 91.8167 126.721 92.25 127.921 92.25C129.138 92.25 130.288 91.7333 131.038 90.8C131.788 89.85 132.038 88.6667 132.038 87.4833C132.038 86.3 131.754 85.1 131.038 84.1833ZM129.838 89.8833C129.354 90.5667 128.554 90.8833 127.738 90.8833C126.904 90.8833 126.138 90.5833 125.638 89.9667C125.138 89.35 124.938 88.4167 124.938 87.4833C124.938 86.5667 125.138 85.65 125.638 85.0167C126.121 84.4 126.871 84.1 127.688 84.1C128.571 84.1 129.338 84.4167 129.821 85.1C130.288 85.7167 130.454 86.5833 130.454 87.4833C130.454 88.3833 130.304 89.2667 129.838 89.8833ZM141.303 84.1833C140.57 83.25 139.42 82.75 138.186 82.75C137.036 82.75 135.936 83.2 135.203 84.0167V83H133.87V96H135.37V91.15C136.07 91.8833 137.07 92.25 138.186 92.25C139.403 92.25 140.553 91.7333 141.303 90.8C142.053 89.85 142.303 88.6667 142.303 87.4833C142.303 86.3 142.02 85.1 141.303 84.1833ZM140.103 89.8833C139.62 90.5667 138.82 90.8833 138.003 90.8833C137.17 90.8833 136.403 90.5833 135.903 89.9667C135.403 89.35 135.203 88.4167 135.203 87.4833C135.203 86.5667 135.403 85.65 135.903 85.0167C136.386 84.4 137.136 84.1 137.953 84.1C138.836 84.1 139.603 84.4167 140.086 85.1C140.553 85.7167 140.72 86.5833 140.72 87.4833C140.72 88.3833 140.57 89.2667 140.103 89.8833Z" fill="#110529"/>
    <g filter="url(#filter0_i_5913_39736)">
        <rect x="96" y="108" width="56" height="52" rx="1" fill="#D6E0FF"/>
        <path d="M113.053 142.3C116.393 142.3 118.733 140.1 118.733 136.75V127.6H116.933V136.6C116.933 139.31 114.893 140.62 113.053 140.62C111.233 140.62 109.173 139.33 109.173 136.6V127.6L107.373 127.61V136.75C107.373 140.11 109.713 142.3 113.053 142.3ZM121.533 142H123.223V131.51L128.113 142H129.063L133.953 131.51V141.99H135.643V127.6H134.003L128.593 139.07L123.153 127.6H121.533V142ZM138.647 142H140.427V127.6H138.647V142Z" fill="#110529"/>
        <rect x="96" y="108" width="56" height="52" rx="1" stroke="#110529" stroke-width="2" stroke-linecap="round"/>
    </g>
    <g filter="url(#filter1_i_5913_39736)">
        <rect x="152" y="108" width="52" height="52" rx="1" fill="#D3D7E0"/>
        <rect x="152" y="108" width="52" height="52" rx="1" stroke="#110529" stroke-width="2" stroke-linecap="round"/>
    </g>
    <g filter="url(#filter2_i_5913_39736)">
        <rect x="204" y="108" width="350" height="52" rx="1" fill="#99E099"/>
        <path d="M377.758 142H380.238L385.058 127.6H383.208L378.978 140.11L374.788 127.6H372.938L377.758 142Z" fill="#110529"/>
        <rect x="204" y="108" width="350" height="52" rx="1" stroke="#110529" stroke-width="2" stroke-linecap="round"/>
    </g>
    <g filter="url(#filter3_i_5913_39736)">
        <rect x="554" y="108" width="30" height="52" rx="1" fill="#CBEB67"/>
    </g>
    <rect x="554" y="108" width="30" height="52" rx="1" stroke="#110529" stroke-width="2" stroke-linecap="round"/>
    <g filter="url(#filter4_i_5913_39736)">
        <rect x="620" y="108" width="30" height="52" rx="1" fill="#FAAAFA"/>
    </g>
    <rect x="620" y="108" width="30" height="52" rx="1" stroke="#110529" stroke-width="2" stroke-linecap="round"/>
    <g filter="url(#filter5_i_5913_39736)">
        <rect x="584" y="108" width="36" height="52" rx="1" fill="#FFCB8F"/>
    </g>
    <rect x="584" y="108" width="36" height="52" rx="1" stroke="#110529" stroke-width="2" stroke-linecap="round"/>
    <path d="M563.447 142H565.247V130.74L572.757 142H574.557V127.6H572.757V138.85L565.247 127.6H563.447V142Z" fill="#110529"/>
    <path d="M629.447 142H631.247V130.74L638.757 142H640.557V127.6H638.757V138.85L631.247 127.6H629.447V142Z" fill="#110529"/>
    <path d="M596.593 142H601.033C601.303 142 602.183 142 602.853 141.91C606.183 141.47 607.913 138.48 607.913 134.8C607.913 131.13 606.183 128.13 602.853 127.69C602.173 127.6 601.313 127.6 601.033 127.6H596.593V142ZM598.423 140.3V129.3H601.033C601.513 129.3 602.233 129.32 602.703 129.41C605.033 129.83 606.023 132.08 606.023 134.8C606.023 137.47 605.063 139.76 602.703 140.19C602.233 140.28 601.533 140.3 601.033 140.3H598.423Z" fill="#110529"/>
    <g filter="url(#filter6_i_5913_39736)">
        <rect x="650" y="108" width="112" height="52" rx="1" fill="#C1ADFF"/>
        <path d="M705.244 142.29C706.694 142.29 707.954 141.7 708.684 140.43C709.214 139.51 709.154 138.72 709.154 137.48V127.6H707.354V137.48C707.354 138.37 707.354 138.99 707.094 139.51C706.704 140.29 705.884 140.6 705.204 140.6C704.134 140.6 703.224 139.83 703.014 138.85L701.244 139.27C701.754 141.11 703.224 142.29 705.244 142.29Z" fill="#110529"/>
        <rect x="650" y="108" width="112" height="52" rx="1" stroke="#110529" stroke-width="2" stroke-linecap="round"/>
    </g>
    <g filter="url(#filter7_i_5913_39736)">
        <path d="M826 108H763.6C763.04 108 762.76 108 762.546 108.109C762.358 108.205 762.205 108.358 762.109 108.546C762 108.76 762 109.04 762 109.6V158.4C762 158.96 762 159.24 762.109 159.454C762.205 159.642 762.358 159.795 762.546 159.891C762.76 160 763.04 160 763.6 160H826L821 153.5L826 147L821 140L826 134L821 127.5L826 121L821 114.5L826 108Z" fill="#FAFAAA"/>
    </g>
    <path d="M826 108H763.6C763.04 108 762.76 108 762.546 108.109C762.358 108.205 762.205 108.358 762.109 108.546C762 108.76 762 109.04 762 109.6V158.4C762 158.96 762 159.24 762.109 159.454C762.205 159.642 762.358 159.795 762.546 159.891C762.76 160 763.04 160 763.6 160H826L821 153.5L826 147L821 140L826 134L821 127.5L826 121L821 114.5L826 108Z" stroke="#110529" stroke-width="2" stroke-linecap="round"/>
    <path d="M794.593 142.3C797.923 142.3 800.113 140.47 800.933 137.61L799.123 137.13C798.533 139.27 797.023 140.6 794.593 140.6C791.373 140.6 789.733 138.25 789.753 134.8C789.773 131.35 791.373 129 794.593 129C797.023 129 798.533 130.33 799.123 132.47L800.933 131.99C800.113 129.13 797.923 127.3 794.593 127.3C790.283 127.3 787.873 130.36 787.873 134.8C787.873 139.24 790.283 142.3 794.593 142.3Z" fill="#110529"/>
    <rect width="57" height="20" transform="translate(150 76)" fill="white"/>
    <path d="M163.267 86.3167H161.917C162.05 86.6833 161.967 87.1667 161.417 87.2167C160.883 87.2667 160.367 86.9333 159.65 86.6167C158.983 86.3 158.267 86.0833 157.5 86.2333C157.017 86.3167 156.517 86.6 156.233 87.0833C155.983 87.55 155.95 88.1667 156.067 88.6667H157.417C157.267 88.2833 157.35 87.8167 157.917 87.7667C158.45 87.7167 158.967 88.05 159.683 88.3667C160.35 88.6833 161.067 88.9 161.833 88.75C162.317 88.6667 162.8 88.3667 163.083 87.9C163.35 87.45 163.383 86.8167 163.267 86.3167ZM168.595 80L166.328 81.35V83L168.595 81.6333V92H170.095V80H168.595ZM173.01 83.6167H174.527C174.527 82.8833 174.86 82.2 175.394 81.7333C175.81 81.3833 176.36 81.1667 176.96 81.1667C177.61 81.1667 178.21 81.4 178.644 81.8333C179.127 82.2833 179.41 82.9333 179.41 83.6167C179.41 84.3833 179.177 85.0833 178.294 85.8667L172.944 90.5667L172.927 91.9833H180.76V90.5667H175.26L179.11 87.1333C180.327 86.05 180.927 85.1667 180.927 83.6333C180.927 82.5833 180.51 81.5667 179.777 80.8667C179.077 80.1167 178.094 79.75 177.027 79.75C176.06 79.75 175.094 80.0167 174.36 80.65C173.527 81.3667 172.994 82.45 173.01 83.6167ZM190.366 84.1833C189.632 83.25 188.482 82.75 187.249 82.75C186.182 82.75 185.166 83.15 184.432 83.85V80H182.932V92H184.266V90.95C184.982 91.8167 186.049 92.25 187.249 92.25C188.466 92.25 189.616 91.7333 190.366 90.8C191.116 89.85 191.366 88.6667 191.366 87.4833C191.366 86.3 191.082 85.1 190.366 84.1833ZM189.166 89.8833C188.682 90.5667 187.882 90.8833 187.066 90.8833C186.232 90.8833 185.466 90.5833 184.966 89.9667C184.466 89.35 184.266 88.4167 184.266 87.4833C184.266 86.5667 184.466 85.65 184.966 85.0167C185.449 84.4 186.199 84.1 187.016 84.1C187.899 84.1 188.666 84.4167 189.149 85.1C189.616 85.7167 189.782 86.5833 189.782 87.4833C189.782 88.3833 189.632 89.2667 189.166 89.8833ZM200.631 84.1833C199.898 83.25 198.748 82.75 197.515 82.75C196.365 82.75 195.265 83.2 194.531 84.0167V83H193.198V96H194.698V91.15C195.398 91.8833 196.398 92.25 197.515 92.25C198.731 92.25 199.881 91.7333 200.631 90.8C201.381 89.85 201.631 88.6667 201.631 87.4833C201.631 86.3 201.348 85.1 200.631 84.1833ZM199.431 89.8833C198.948 90.5667 198.148 90.8833 197.331 90.8833C196.498 90.8833 195.731 90.5833 195.231 89.9667C194.731 89.35 194.531 88.4167 194.531 87.4833C194.531 86.5667 194.731 85.65 195.231 85.0167C195.715 84.4 196.465 84.1 197.281 84.1C198.165 84.1 198.931 84.4167 199.415 85.1C199.881 85.7167 200.048 86.5833 200.048 87.4833C200.048 88.3833 199.898 89.2667 199.431 89.8833Z" fill="#110529"/>
    <g filter="url(#filter8_i_5913_39736)">
        <rect x="96" y="268" width="56" height="52" rx="1" fill="#D6E0FF"/>
        <path d="M113.053 302.3C116.393 302.3 118.733 300.1 118.733 296.75V287.6H116.933V296.6C116.933 299.31 114.893 300.62 113.053 300.62C111.233 300.62 109.173 299.33 109.173 296.6V287.6L107.373 287.61V296.75C107.373 300.11 109.713 302.3 113.053 302.3ZM121.533 302H123.223V291.51L128.113 302H129.063L133.953 291.51V301.99H135.643V287.6H134.003L128.593 299.07L123.153 287.6H121.533V302ZM138.647 302H140.427V287.6H138.647V302Z" fill="#110529"/>
        <rect x="96" y="268" width="56" height="52" rx="1" stroke="#110529" stroke-width="2" stroke-linecap="round"/>
    </g>
    <g filter="url(#filter9_i_5913_39736)">
        <rect x="152" y="268" width="52" height="52" rx="1" fill="#D3D7E0"/>
        <rect x="152" y="268" width="52" height="52" rx="1" stroke="#110529" stroke-width="2" stroke-linecap="round"/>
    </g>
    <g filter="url(#filter10_i_5913_39736)">
        <rect x="204" y="268" width="350" height="52" rx="1" fill="#99E099"/>
        <path d="M377.758 302H380.238L385.058 287.6H383.208L378.978 300.11L374.788 287.6H372.938L377.758 302Z" fill="#110529"/>
        <rect x="204" y="268" width="350" height="52" rx="1" stroke="#110529" stroke-width="2" stroke-linecap="round"/>
    </g>
    <g filter="url(#filter11_i_5913_39736)">
        <rect x="554" y="268" width="30" height="52" rx="1" fill="#CBEB67"/>
        <path d="M563.247 302V287.6H565.047L572.557 298.85V287.6H574.357V302H572.557L565.047 290.74V302H563.247Z" fill="#110529"/>
        <rect x="554" y="268" width="30" height="52" rx="1" stroke="#110529" stroke-width="2" stroke-linecap="round"/>
    </g>
    <g filter="url(#filter12_i_5913_39736)">
        <rect x="584" y="268" width="112" height="52" rx="1" fill="#C1ADFF"/>
        <path d="M639.244 302.29C640.694 302.29 641.954 301.7 642.684 300.43C643.214 299.51 643.154 298.72 643.154 297.48V287.6H641.354V297.48C641.354 298.37 641.354 298.99 641.094 299.51C640.704 300.29 639.884 300.6 639.204 300.6C638.134 300.6 637.224 299.83 637.014 298.85L635.244 299.27C635.754 301.11 637.224 302.29 639.244 302.29Z" fill="#110529"/>
        <rect x="584" y="268" width="112" height="52" rx="1" stroke="#110529" stroke-width="2" stroke-linecap="round"/>
    </g>
    <g filter="url(#filter13_i_5913_39736)">
        <path d="M760 268H697.6C697.04 268 696.76 268 696.546 268.109C696.358 268.205 696.205 268.358 696.109 268.546C696 268.76 696 269.04 696 269.6V318.4C696 318.96 696 319.24 696.109 319.454C696.205 319.642 696.358 319.795 696.546 319.891C696.76 320 697.04 320 697.6 320H760L755 313.5L760 307L755 300L760 294L755 287.5L760 281L755 274.5L760 268Z" fill="#FAFAAA"/>
    </g>
    <path d="M760 268H697.6C697.04 268 696.76 268 696.546 268.109C696.358 268.205 696.205 268.358 696.109 268.546C696 268.76 696 269.04 696 269.6V318.4C696 318.96 696 319.24 696.109 319.454C696.205 319.642 696.358 319.795 696.546 319.891C696.76 320 697.04 320 697.6 320H760L755 313.5L760 307L755 300L760 294L755 287.5L760 281L755 274.5L760 268Z" stroke="#110529" stroke-width="2" stroke-linecap="round"/>
    <path d="M728.593 302.3C731.923 302.3 734.113 300.47 734.933 297.61L733.123 297.13C732.533 299.27 731.023 300.6 728.593 300.6C725.373 300.6 723.733 298.25 723.753 294.8C723.773 291.35 725.373 289 728.593 289C731.023 289 732.533 290.33 733.123 292.47L734.933 291.99C734.113 289.13 731.923 287.3 728.593 287.3C724.283 287.3 721.873 290.36 721.873 294.8C721.873 299.24 724.283 302.3 728.593 302.3Z" fill="#110529"/>
    <path d="M19.3014 292H21.0814V279.29H25.9914V277.6H14.3914V279.29H19.3014V292ZM33.5036 292.3C36.8336 292.3 39.0236 290.47 39.8436 287.61L38.0336 287.13C37.4436 289.27 35.9336 290.6 33.5036 290.6C30.2836 290.6 28.6436 288.25 28.6636 284.8C28.6836 281.35 30.2836 279 33.5036 279C35.9336 279 37.4436 280.33 38.0336 282.47L39.8436 281.99C39.0236 279.13 36.8336 277.3 33.5036 277.3C29.1936 277.3 26.7836 280.36 26.7836 284.8C26.7836 289.24 29.1936 292.3 33.5036 292.3ZM42.0367 292H43.8167V286.68H48.0267L50.6067 292H52.6467L49.8667 286.29C51.4967 285.61 52.3467 284.04 52.3467 282.14C52.3467 279.85 51.1167 278.04 48.7867 277.68C48.4167 277.62 48.0067 277.6 47.7267 277.6H42.0367V292ZM43.8167 284.99V279.29H47.6667C47.9167 279.29 48.2667 279.31 48.5667 279.38C49.9467 279.69 50.5267 280.94 50.5267 282.14C50.5267 283.34 49.9467 284.59 48.5667 284.9C48.2667 284.97 47.9167 284.99 47.6667 284.99H43.8167ZM63.1231 292.3C64.7631 292.3 66.0731 291.54 66.7731 290.24V292H68.3631V281.2H66.7731V282.93C66.0831 281.65 64.8231 280.9 63.1731 280.9C60.0731 280.9 58.2531 283.35 58.2531 286.6C58.2531 289.83 60.0631 292.3 63.1231 292.3ZM60.1431 286.6C60.1431 284.19 61.2531 282.53 63.3631 282.53C65.4731 282.53 66.4731 284.2 66.4731 286.59C66.4731 288.96 65.4831 290.67 63.3431 290.67C61.1731 290.67 60.1431 288.88 60.1431 286.6ZM78.8017 277.6L74.9617 292H76.7717L80.6117 277.6H78.8017ZM26.2448 312H28.0248V299.29H32.9348V297.6H21.3348V299.29H26.2448V312ZM40.447 312.3C43.777 312.3 45.967 310.47 46.787 307.61L44.977 307.13C44.387 309.27 42.877 310.6 40.447 310.6C37.227 310.6 35.587 308.25 35.607 304.8C35.627 301.35 37.227 299 40.447 299C42.877 299 44.387 300.33 44.977 302.47L46.787 301.99C45.967 299.13 43.777 297.3 40.447 297.3C36.137 297.3 33.727 300.36 33.727 304.8C33.727 309.24 36.137 312.3 40.447 312.3ZM48.9801 312H50.7601V306.68H54.9701L57.5501 312H59.5901L56.8101 306.29C58.4401 305.61 59.2901 304.04 59.2901 302.14C59.2901 299.85 58.0601 298.04 55.7301 297.68C55.3601 297.62 54.9501 297.6 54.6701 297.6H48.9801V312ZM50.7601 304.99V299.29H54.6101C54.8601 299.29 55.2101 299.31 55.5101 299.38C56.8901 299.69 57.4701 300.94 57.4701 302.14C57.4701 303.34 56.8901 304.59 55.5101 304.9C55.2101 304.97 54.8601 304.99 54.6101 304.99H50.7601ZM68.7165 315.6H70.5365V312L74.4565 301.2H72.6565L69.6265 309.73L66.6065 301.2H64.7965L68.7165 312V315.6Z" fill="#110529"/>
    <path d="M19.6627 132H21.4427V119.29H26.3527V117.6H14.7527V119.29H19.6627V132ZM33.8649 132.3C37.1949 132.3 39.3849 130.47 40.2049 127.61L38.3949 127.13C37.8049 129.27 36.2949 130.6 33.8649 130.6C30.6449 130.6 29.0049 128.25 29.0249 124.8C29.0449 121.35 30.6449 119 33.8649 119C36.2949 119 37.8049 120.33 38.3949 122.47L40.2049 121.99C39.3849 119.13 37.1949 117.3 33.8649 117.3C29.5549 117.3 27.1449 120.36 27.1449 124.8C27.1449 129.24 29.5549 132.3 33.8649 132.3ZM42.398 132H44.178V126.68H48.388L50.968 132H53.008L50.228 126.29C51.858 125.61 52.708 124.04 52.708 122.14C52.708 119.85 51.478 118.04 49.148 117.68C48.778 117.62 48.368 117.6 48.088 117.6H42.398V132ZM44.178 124.99V119.29H48.028C48.278 119.29 48.628 119.31 48.928 119.38C50.308 119.69 50.888 120.94 50.888 122.14C50.888 123.34 50.308 124.59 48.928 124.9C48.628 124.97 48.278 124.99 48.028 124.99H44.178ZM59.2045 121.2V136.8H60.9845V131.39C61.6945 131.96 62.6845 132.3 63.9145 132.3C66.9645 132.3 68.8145 130.57 68.8145 127.95C68.8145 125.74 67.4145 124.44 66.0245 124.09C67.0745 123.58 67.5845 122.5 67.5845 121.22C67.5845 118.84 65.8345 117.3 63.3445 117.3C61.4845 117.3 59.9545 118.16 59.4245 119.78C59.2745 120.23 59.2045 120.71 59.2045 121.2ZM61.0245 127.71V121.86C61.0245 121.44 61.0445 120.8 61.2545 120.28C61.6145 119.35 62.4945 118.99 63.3845 118.99C64.7645 118.99 65.7645 119.82 65.7645 121.24C65.7645 122.67 64.7645 123.4 63.3945 123.54V125.14C65.5845 125.18 67.0045 126.1 67.0045 127.87C67.0045 129.52 65.7645 130.61 63.9945 130.61C62.7445 130.61 61.5045 130.04 61.1745 129.01C61.0545 128.64 61.0245 128.1 61.0245 127.71ZM78.4404 117.6L74.6004 132H76.4104L80.2504 117.6H78.4404ZM25.4733 152H27.2533V139.29H32.1633V137.6H20.5633V139.29H25.4733V152ZM39.6755 152.3C43.0055 152.3 45.1955 150.47 46.0155 147.61L44.2055 147.13C43.6155 149.27 42.1055 150.6 39.6755 150.6C36.4555 150.6 34.8155 148.25 34.8355 144.8C34.8555 141.35 36.4555 139 39.6755 139C42.1055 139 43.6155 140.33 44.2055 142.47L46.0155 141.99C45.1955 139.13 43.0055 137.3 39.6755 137.3C35.3655 137.3 32.9555 140.36 32.9555 144.8C32.9555 149.24 35.3655 152.3 39.6755 152.3ZM48.2086 152H49.9886V146.68H54.1986L56.7786 152H58.8186L56.0386 146.29C57.6686 145.61 58.5186 144.04 58.5186 142.14C58.5186 139.85 57.2886 138.04 54.9586 137.68C54.5886 137.62 54.1786 137.6 53.8986 137.6H48.2086V152ZM49.9886 144.99V139.29H53.8386C54.0886 139.29 54.4386 139.31 54.7386 139.38C56.1186 139.69 56.6986 140.94 56.6986 142.14C56.6986 143.34 56.1186 144.59 54.7386 144.9C54.4386 144.97 54.0886 144.99 53.8386 144.99H49.9886ZM69.595 152.29C72.845 152.29 74.835 150.14 74.835 147.03C74.835 144.57 73.585 142.7 71.435 142.05C69.385 141.33 67.755 140.92 67.755 139.87C67.755 139.33 68.145 139.01 68.695 138.87C68.985 138.8 69.325 138.78 69.735 138.78H72.895V137.3H69.335C68.885 137.3 68.515 137.3 68.115 137.38C66.535 137.64 65.985 138.76 65.985 139.8C65.985 141.11 66.865 141.88 67.975 142.39C65.725 142.77 64.425 144.69 64.425 147.17C64.425 150.24 66.405 152.29 69.595 152.29ZM66.445 147.03C66.445 144.88 67.495 143.47 69.635 143.47C71.735 143.47 72.825 144.83 72.825 147.01C72.825 149.18 71.755 150.6 69.635 150.6C67.555 150.6 66.445 149.25 66.445 147.03Z" fill="#110529"/>
    <path d="M392 184L391.293 184.707L390.586 184L391.293 183.293L392 184ZM399.293 175.293L400 174.586L401.414 176L400.707 176.707L399.293 175.293ZM400.707 191.293L401.414 192L400 193.414L399.293 192.707L400.707 191.293ZM402 185L392 185L392 183L402 183L402 185ZM391.293 183.293L399.293 175.293L400.707 176.707L392.707 184.707L391.293 183.293ZM392.707 183.293L400.707 191.293L399.293 192.707L391.293 184.707L392.707 183.293Z" fill="#110529"/>
    <path d="M569.5 184H402" stroke="#110529" stroke-width="2"/>
    <rect width="57" height="20" transform="translate(569.5 174)" fill="white"/>
    <path d="M574.933 189.992H582.589V188.632H577.125L580.837 185.296C582.021 184.248 582.589 183.488 582.589 181.976C582.589 179.856 580.973 178.24 578.837 178.24C576.621 178.24 574.989 179.784 574.989 181.952H576.445C576.429 180.696 577.437 179.6 578.813 179.6C580.141 179.6 581.133 180.632 581.133 181.96C581.133 182.688 580.901 183.352 580.053 184.112L574.941 188.712L574.933 189.992ZM587.911 190.24C590.055 190.24 591.871 188.504 591.871 186.376C591.871 184.232 590.247 182.584 588.111 182.584C587.335 182.584 586.559 182.848 585.959 183.328L586.167 179.832H591.071V178.48H584.887L584.535 184.504L585.799 184.984C586.215 184.384 586.935 183.896 587.951 183.896C589.295 183.896 590.439 184.984 590.439 186.376C590.439 187.728 589.351 188.856 587.951 188.856C586.879 188.856 585.839 188.144 585.551 187.008L584.183 187.376C584.647 189.056 586.127 190.24 587.911 190.24ZM597.672 190.24C599.912 190.24 601.56 188.592 601.56 186.352V182.128C601.56 179.888 599.912 178.24 597.672 178.24C595.432 178.24 593.784 179.888 593.784 182.128V186.352C593.784 188.592 595.432 190.24 597.672 190.24ZM595.232 186.432V182.04C595.232 180.688 596.32 179.6 597.672 179.6C599.024 179.6 600.112 180.688 600.112 182.04V186.432C600.112 187.784 599.024 188.872 597.672 188.872C596.32 188.872 595.232 187.784 595.232 186.432ZM607.768 190.24C610.184 190.24 611.64 188.264 611.64 185.672C611.64 183.08 610.176 181.12 607.776 181.12C606.696 181.12 605.84 181.496 605.224 182.144V178.48H603.792V190H605.064V189.024C605.696 189.784 606.6 190.24 607.768 190.24ZM605.064 185.672C605.064 183.76 605.864 182.424 607.552 182.424C609.312 182.424 610.128 183.848 610.128 185.672C610.128 187.512 609.296 188.936 607.592 188.936C605.848 188.936 605.064 187.568 605.064 185.672ZM617.361 190.24C619.777 190.24 621.233 188.264 621.233 185.672C621.233 183.08 619.769 181.12 617.369 181.12C616.193 181.12 615.289 181.568 614.657 182.328V181.36H613.385V193.84H614.817V189.2C615.433 189.856 616.289 190.24 617.361 190.24ZM614.657 185.672C614.657 183.76 615.457 182.424 617.145 182.424C618.905 182.424 619.721 183.848 619.721 185.672C619.721 187.512 618.889 188.936 617.185 188.936C615.441 188.936 614.657 187.568 614.657 185.672Z" fill="#110529"/>
    <path d="M794 184H626.5" stroke="#110529" stroke-width="2"/>
    <rect x="794" y="172" width="32" height="24" rx="1" fill="white"/>
    <path d="M802.62 190H804.044V185.744H807.412L809.476 190H811.108L808.884 185.432C810.188 184.888 810.868 183.632 810.868 182.112C810.868 180.28 809.884 178.832 808.02 178.544C807.724 178.496 807.396 178.48 807.172 178.48H802.62V190ZM804.044 184.392V179.832H807.124C807.324 179.832 807.604 179.848 807.844 179.904C808.948 180.152 809.412 181.152 809.412 182.112C809.412 183.072 808.948 184.072 807.844 184.32C807.604 184.376 807.324 184.392 807.124 184.392H804.044ZM814.878 190H816.326V178.48H814.878L812.71 179.776V181.368L814.878 180.056V190Z" fill="#110529"/>
    <rect x="794" y="172" width="32" height="24" rx="1" stroke="#110529" stroke-width="2"/>
    <rect x="96.0002" y="196.001" width="32" height="24" rx="1" fill="white"/>
    <path d="M103.12 214.001V202.481H107.672C107.784 202.481 107.918 202.486 108.072 202.497C108.227 202.502 108.376 202.518 108.52 202.545C109.144 202.641 109.667 202.854 110.088 203.185C110.515 203.516 110.835 203.934 111.048 204.441C111.262 204.942 111.368 205.5 111.368 206.113C111.368 207.004 111.136 207.777 110.672 208.433C110.208 209.084 109.528 209.492 108.632 209.657L108.088 209.745H104.544V214.001H103.12ZM109.976 214.001L107.704 209.313L109.112 208.881L111.608 214.001H109.976ZM104.544 208.393H107.624C107.726 208.393 107.84 208.388 107.968 208.377C108.102 208.366 108.227 208.348 108.344 208.321C108.712 208.236 109.011 208.081 109.24 207.857C109.475 207.628 109.646 207.361 109.752 207.057C109.859 206.748 109.912 206.433 109.912 206.113C109.912 205.793 109.859 205.481 109.752 205.177C109.646 204.868 109.475 204.598 109.24 204.369C109.011 204.14 108.712 203.985 108.344 203.905C108.227 203.873 108.102 203.854 107.968 203.849C107.84 203.838 107.726 203.833 107.624 203.833H104.544V208.393ZM113.05 213.993L113.058 212.713L118.17 208.113C118.597 207.729 118.882 207.366 119.026 207.025C119.176 206.678 119.25 206.324 119.25 205.961C119.25 205.518 119.149 205.118 118.946 204.761C118.744 204.404 118.466 204.121 118.114 203.913C117.768 203.705 117.373 203.601 116.93 203.601C116.472 203.601 116.064 203.71 115.706 203.929C115.349 204.142 115.066 204.428 114.858 204.785C114.656 205.142 114.557 205.532 114.562 205.953H113.106C113.106 205.228 113.274 204.588 113.61 204.033C113.946 203.473 114.402 203.036 114.978 202.721C115.56 202.401 116.218 202.241 116.954 202.241C117.669 202.241 118.309 202.406 118.874 202.737C119.44 203.062 119.885 203.508 120.21 204.073C120.541 204.633 120.706 205.268 120.706 205.977C120.706 206.478 120.642 206.913 120.514 207.281C120.392 207.649 120.2 207.99 119.938 208.305C119.677 208.614 119.349 208.945 118.954 209.297L114.706 213.113L114.522 212.633H120.706V213.993H113.05Z" fill="#110529"/>
    <rect x="96.0002" y="196.001" width="32" height="24" rx="1" stroke="#110529" stroke-width="2"/>
    <path d="M167 208.001H128" stroke="#110529" stroke-width="2"/>
    <rect width="44" height="20" transform="translate(167 198.001)" fill="white"/>
    <path d="M177.487 214.001V211.881H172.191V210.529L175.991 202.481H177.607L173.807 210.529H177.487V207.289H178.927V210.529H180.127V211.881H178.927V214.001H177.487ZM184.05 214.001V204.057L181.882 205.369V203.777L184.05 202.481H185.498V214.001H184.05ZM192.51 214.241C191.699 214.241 191.017 214.041 190.462 213.641C189.907 213.236 189.486 212.689 189.198 212.001C188.915 211.308 188.774 210.532 188.774 209.673C188.774 208.804 188.915 208.025 189.198 207.337C189.486 206.649 189.907 206.108 190.462 205.713C191.022 205.318 191.707 205.121 192.518 205.121C193.318 205.121 194.006 205.321 194.582 205.721C195.163 206.116 195.609 206.657 195.918 207.345C196.227 208.033 196.382 208.809 196.382 209.673C196.382 210.537 196.227 211.313 195.918 212.001C195.609 212.689 195.163 213.236 194.582 213.641C194.006 214.041 193.315 214.241 192.51 214.241ZM188.534 214.001V202.481H189.966V207.641H189.806V214.001H188.534ZM192.334 212.937C192.905 212.937 193.377 212.793 193.75 212.505C194.123 212.217 194.403 211.828 194.59 211.337C194.777 210.841 194.87 210.286 194.87 209.673C194.87 209.065 194.777 208.516 194.59 208.025C194.409 207.534 194.126 207.145 193.742 206.857C193.363 206.569 192.881 206.425 192.294 206.425C191.734 206.425 191.27 206.564 190.902 206.841C190.534 207.113 190.259 207.494 190.078 207.985C189.897 208.47 189.806 209.033 189.806 209.673C189.806 210.302 189.894 210.865 190.07 211.361C190.251 211.852 190.529 212.238 190.902 212.521C191.275 212.798 191.753 212.937 192.334 212.937ZM202.104 214.241C201.293 214.241 200.611 214.041 200.056 213.641C199.501 213.236 199.08 212.689 198.792 212.001C198.509 211.308 198.368 210.532 198.368 209.673C198.368 208.804 198.509 208.025 198.792 207.337C199.08 206.649 199.501 206.108 200.056 205.713C200.616 205.318 201.301 205.121 202.112 205.121C202.912 205.121 203.6 205.321 204.176 205.721C204.757 206.116 205.203 206.657 205.512 207.345C205.821 208.033 205.976 208.809 205.976 209.673C205.976 210.537 205.821 211.313 205.512 212.001C205.203 212.689 204.757 213.236 204.176 213.641C203.6 214.041 202.909 214.241 202.104 214.241ZM198.128 217.841V205.361H199.4V211.721H199.56V217.841H198.128ZM201.928 212.937C202.499 212.937 202.971 212.793 203.344 212.505C203.717 212.217 203.997 211.828 204.184 211.337C204.371 210.841 204.464 210.286 204.464 209.673C204.464 209.065 204.371 208.516 204.184 208.025C204.003 207.534 203.72 207.145 203.336 206.857C202.957 206.569 202.475 206.425 201.888 206.425C201.328 206.425 200.864 206.564 200.496 206.841C200.128 207.113 199.853 207.494 199.672 207.985C199.491 208.47 199.4 209.033 199.4 209.673C199.4 210.302 199.488 210.865 199.664 211.361C199.845 211.852 200.123 212.238 200.496 212.521C200.869 212.798 201.347 212.937 201.928 212.937Z" fill="#110529"/>
    <path d="M250 208.001H211" stroke="#110529" stroke-width="2"/>
    <path d="M260 208.001L260.707 207.294L261.414 208.001L260.707 208.708L260 208.001ZM252.707 216.708L252 217.415L250.586 216.001L251.293 215.294L252.707 216.708ZM251.293 200.708L250.586 200.001L252 198.587L252.707 199.294L251.293 200.708ZM250 207.001L260 207.001L260 209.001L250 209.001L250 207.001ZM260.707 208.708L252.707 216.708L251.293 215.294L259.293 207.294L260.707 208.708ZM259.293 208.708L251.293 200.708L252.707 199.294L260.707 207.294L259.293 208.708Z" fill="#110529"/>
    <defs>
        <filter id="filter0_i_5913_39736" x="95" y="107" width="58" height="54" filterUnits="userSpaceOnUse" color-interpolation-filters="sRGB">
            <feFlood flood-opacity="0" result="BackgroundImageFix"/>
            <feBlend mode="normal" in="SourceGraphic" in2="BackgroundImageFix" result="shape"/>
            <feColorMatrix in="SourceAlpha" type="matrix" values="0 0 0 0 0 0 0 0 0 0 0 0 0 0 0 0 0 0 127 0" result="hardAlpha"/>
            <feOffset dx="-8" dy="-4"/>
            <feComposite in2="hardAlpha" operator="arithmetic" k2="-1" k3="1"/>
            <feColorMatrix type="matrix" values="0 0 0 0 0.0666667 0 0 0 0 0.0196078 0 0 0 0 0.160784 0 0 0 0.16 0"/>
            <feBlend mode="normal" in2="shape" result="effect1_innerShadow_5913_39736"/>
        </filter>
        <filter id="filter1_i_5913_39736" x="151" y="107" width="54" height="54" filterUnits="userSpaceOnUse" color-interpolation-filters="sRGB">
            <feFlood flood-opacity="0" result="BackgroundImageFix"/>
            <feBlend mode="normal" in="SourceGraphic" in2="BackgroundImageFix" result="shape"/>
            <feColorMatrix in="SourceAlpha" type="matrix" values="0 0 0 0 0 0 0 0 0 0 0 0 0 0 0 0 0 0 127 0" result="hardAlpha"/>
            <feOffset dx="-8" dy="-4"/>
            <feComposite in2="hardAlpha" operator="arithmetic" k2="-1" k3="1"/>
            <feColorMatrix type="matrix" values="0 0 0 0 0.0666667 0 0 0 0 0.0196078 0 0 0 0 0.160784 0 0 0 0.16 0"/>
            <feBlend mode="normal" in2="shape" result="effect1_innerShadow_5913_39736"/>
        </filter>
        <filter id="filter2_i_5913_39736" x="203" y="107" width="352" height="54" filterUnits="userSpaceOnUse" color-interpolation-filters="sRGB">
            <feFlood flood-opacity="0" result="BackgroundImageFix"/>
            <feBlend mode="normal" in="SourceGraphic" in2="BackgroundImageFix" result="shape"/>
            <feColorMatrix in="SourceAlpha" type="matrix" values="0 0 0 0 0 0 0 0 0 0 0 0 0 0 0 0 0 0 127 0" result="hardAlpha"/>
            <feOffset dx="-8" dy="-4"/>
            <feComposite in2="hardAlpha" operator="arithmetic" k2="-1" k3="1"/>
            <feColorMatrix type="matrix" values="0 0 0 0 0.0666667 0 0 0 0 0.0196078 0 0 0 0 0.160784 0 0 0 0.16 0"/>
            <feBlend mode="normal" in2="shape" result="effect1_innerShadow_5913_39736"/>
        </filter>
        <filter id="filter3_i_5913_39736" x="553" y="107" width="32" height="54" filterUnits="userSpaceOnUse" color-interpolation-filters="sRGB">
            <feFlood flood-opacity="0" result="BackgroundImageFix"/>
            <feBlend mode="normal" in="SourceGraphic" in2="BackgroundImageFix" result="shape"/>
            <feColorMatrix in="SourceAlpha" type="matrix" values="0 0 0 0 0 0 0 0 0 0 0 0 0 0 0 0 0 0 127 0" result="hardAlpha"/>
            <feOffset dx="-8" dy="-4"/>
            <feComposite in2="hardAlpha" operator="arithmetic" k2="-1" k3="1"/>
            <feColorMatrix type="matrix" values="0 0 0 0 0.0666667 0 0 0 0 0.0196078 0 0 0 0 0.160784 0 0 0 0.16 0"/>
            <feBlend mode="normal" in2="shape" result="effect1_innerShadow_5913_39736"/>
        </filter>
        <filter id="filter4_i_5913_39736" x="619" y="107" width="32" height="54" filterUnits="userSpaceOnUse" color-interpolation-filters="sRGB">
            <feFlood flood-opacity="0" result="BackgroundImageFix"/>
            <feBlend mode="normal" in="SourceGraphic" in2="BackgroundImageFix" result="shape"/>
            <feColorMatrix in="SourceAlpha" type="matrix" values="0 0 0 0 0 0 0 0 0 0 0 0 0 0 0 0 0 0 127 0" result="hardAlpha"/>
            <feOffset dx="-8" dy="-4"/>
            <feComposite in2="hardAlpha" operator="arithmetic" k2="-1" k3="1"/>
            <feColorMatrix type="matrix" values="0 0 0 0 0.0666667 0 0 0 0 0.0196078 0 0 0 0 0.160784 0 0 0 0.16 0"/>
            <feBlend mode="normal" in2="shape" result="effect1_innerShadow_5913_39736"/>
        </filter>
        <filter id="filter5_i_5913_39736" x="583" y="107" width="38" height="54" filterUnits="userSpaceOnUse" color-interpolation-filters="sRGB">
            <feFlood flood-opacity="0" result="BackgroundImageFix"/>
            <feBlend mode="normal" in="SourceGraphic" in2="BackgroundImageFix" result="shape"/>
            <feColorMatrix in="SourceAlpha" type="matrix" values="0 0 0 0 0 0 0 0 0 0 0 0 0 0 0 0 0 0 127 0" result="hardAlpha"/>
            <feOffset dx="-8" dy="-4"/>
            <feComposite in2="hardAlpha" operator="arithmetic" k2="-1" k3="1"/>
            <feColorMatrix type="matrix" values="0 0 0 0 0.0666667 0 0 0 0 0.0196078 0 0 0 0 0.160784 0 0 0 0.16 0"/>
            <feBlend mode="normal" in2="shape" result="effect1_innerShadow_5913_39736"/>
        </filter>
        <filter id="filter6_i_5913_39736" x="649" y="107" width="114" height="54" filterUnits="userSpaceOnUse" color-interpolation-filters="sRGB">
            <feFlood flood-opacity="0" result="BackgroundImageFix"/>
            <feBlend mode="normal" in="SourceGraphic" in2="BackgroundImageFix" result="shape"/>
            <feColorMatrix in="SourceAlpha" type="matrix" values="0 0 0 0 0 0 0 0 0 0 0 0 0 0 0 0 0 0 127 0" result="hardAlpha"/>
            <feOffset dx="-8" dy="-4"/>
            <feComposite in2="hardAlpha" operator="arithmetic" k2="-1" k3="1"/>
            <feColorMatrix type="matrix" values="0 0 0 0 0.0666667 0 0 0 0 0.0196078 0 0 0 0 0.160784 0 0 0 0.16 0"/>
            <feBlend mode="normal" in2="shape" result="effect1_innerShadow_5913_39736"/>
        </filter>
        <filter id="filter7_i_5913_39736" x="761" y="107" width="67.0308" height="54" filterUnits="userSpaceOnUse" color-interpolation-filters="sRGB">
            <feFlood flood-opacity="0" result="BackgroundImageFix"/>
            <feBlend mode="normal" in="SourceGraphic" in2="BackgroundImageFix" result="shape"/>
            <feColorMatrix in="SourceAlpha" type="matrix" values="0 0 0 0 0 0 0 0 0 0 0 0 0 0 0 0 0 0 127 0" result="hardAlpha"/>
            <feOffset dx="-8" dy="-4"/>
            <feComposite in2="hardAlpha" operator="arithmetic" k2="-1" k3="1"/>
            <feColorMatrix type="matrix" values="0 0 0 0 0.0666667 0 0 0 0 0.0196078 0 0 0 0 0.160784 0 0 0 0.16 0"/>
            <feBlend mode="normal" in2="shape" result="effect1_innerShadow_5913_39736"/>
        </filter>
        <filter id="filter8_i_5913_39736" x="95" y="267" width="58" height="54" filterUnits="userSpaceOnUse" color-interpolation-filters="sRGB">
            <feFlood flood-opacity="0" result="BackgroundImageFix"/>
            <feBlend mode="normal" in="SourceGraphic" in2="BackgroundImageFix" result="shape"/>
            <feColorMatrix in="SourceAlpha" type="matrix" values="0 0 0 0 0 0 0 0 0 0 0 0 0 0 0 0 0 0 127 0" result="hardAlpha"/>
            <feOffset dx="-8" dy="-4"/>
            <feComposite in2="hardAlpha" operator="arithmetic" k2="-1" k3="1"/>
            <feColorMatrix type="matrix" values="0 0 0 0 0.0666667 0 0 0 0 0.0196078 0 0 0 0 0.160784 0 0 0 0.16 0"/>
            <feBlend mode="normal" in2="shape" result="effect1_innerShadow_5913_39736"/>
        </filter>
        <filter id="filter9_i_5913_39736" x="151" y="267" width="54" height="54" filterUnits="userSpaceOnUse" color-interpolation-filters="sRGB">
            <feFlood flood-opacity="0" result="BackgroundImageFix"/>
            <feBlend mode="normal" in="SourceGraphic" in2="BackgroundImageFix" result="shape"/>
            <feColorMatrix in="SourceAlpha" type="matrix" values="0 0 0 0 0 0 0 0 0 0 0 0 0 0 0 0 0 0 127 0" result="hardAlpha"/>
            <feOffset dx="-8" dy="-4"/>
            <feComposite in2="hardAlpha" operator="arithmetic" k2="-1" k3="1"/>
            <feColorMatrix type="matrix" values="0 0 0 0 0.0666667 0 0 0 0 0.0196078 0 0 0 0 0.160784 0 0 0 0.16 0"/>
            <feBlend mode="normal" in2="shape" result="effect1_innerShadow_5913_39736"/>
        </filter>
        <filter id="filter10_i_5913_39736" x="203" y="267" width="352" height="54" filterUnits="userSpaceOnUse" color-interpolation-filters="sRGB">
            <feFlood flood-opacity="0" result="BackgroundImageFix"/>
            <feBlend mode="normal" in="SourceGraphic" in2="BackgroundImageFix" result="shape"/>
            <feColorMatrix in="SourceAlpha" type="matrix" values="0 0 0 0 0 0 0 0 0 0 0 0 0 0 0 0 0 0 127 0" result="hardAlpha"/>
            <feOffset dx="-8" dy="-4"/>
            <feComposite in2="hardAlpha" operator="arithmetic" k2="-1" k3="1"/>
            <feColorMatrix type="matrix" values="0 0 0 0 0.0666667 0 0 0 0 0.0196078 0 0 0 0 0.160784 0 0 0 0.16 0"/>
            <feBlend mode="normal" in2="shape" result="effect1_innerShadow_5913_39736"/>
        </filter>
        <filter id="filter11_i_5913_39736" x="553" y="267" width="32" height="54" filterUnits="userSpaceOnUse" color-interpolation-filters="sRGB">
            <feFlood flood-opacity="0" result="BackgroundImageFix"/>
            <feBlend mode="normal" in="SourceGraphic" in2="BackgroundImageFix" result="shape"/>
            <feColorMatrix in="SourceAlpha" type="matrix" values="0 0 0 0 0 0 0 0 0 0 0 0 0 0 0 0 0 0 127 0" result="hardAlpha"/>
            <feOffset dx="-8" dy="-4"/>
            <feComposite in2="hardAlpha" operator="arithmetic" k2="-1" k3="1"/>
            <feColorMatrix type="matrix" values="0 0 0 0 0.0666667 0 0 0 0 0.0196078 0 0 0 0 0.160784 0 0 0 0.16 0"/>
            <feBlend mode="normal" in2="shape" result="effect1_innerShadow_5913_39736"/>
        </filter>
        <filter id="filter12_i_5913_39736" x="583" y="267" width="114" height="54" filterUnits="userSpaceOnUse" color-interpolation-filters="sRGB">
            <feFlood flood-opacity="0" result="BackgroundImageFix"/>
            <feBlend mode="normal" in="SourceGraphic" in2="BackgroundImageFix" result="shape"/>
            <feColorMatrix in="SourceAlpha" type="matrix" values="0 0 0 0 0 0 0 0 0 0 0 0 0 0 0 0 0 0 127 0" result="hardAlpha"/>
            <feOffset dx="-8" dy="-4"/>
            <feComposite in2="hardAlpha" operator="arithmetic" k2="-1" k3="1"/>
            <feColorMatrix type="matrix" values="0 0 0 0 0.0666667 0 0 0 0 0.0196078 0 0 0 0 0.160784 0 0 0 0.16 0"/>
            <feBlend mode="normal" in2="shape" result="effect1_innerShadow_5913_39736"/>
        </filter>
        <filter id="filter13_i_5913_39736" x="695" y="267" width="67.0308" height="54" filterUnits="userSpaceOnUse" color-interpolation-filters="sRGB">
            <feFlood flood-opacity="0" result="BackgroundImageFix"/>
            <feBlend mode="normal" in="SourceGraphic" in2="BackgroundImageFix" result="shape"/>
            <feColorMatrix in="SourceAlpha" type="matrix" values="0 0 0 0 0 0 0 0 0 0 0 0 0 0 0 0 0 0 127 0" result="hardAlpha"/>
            <feOffset dx="-8" dy="-4"/>
            <feComposite in2="hardAlpha" operator="arithmetic" k2="-1" k3="1"/>
            <feColorMatrix type="matrix" values="0 0 0 0 0.0666667 0 0 0 0 0.0196078 0 0 0 0 0.160784 0 0 0 0.16 0"/>
            <feBlend mode="normal" in2="shape" result="effect1_innerShadow_5913_39736"/>
        </filter>
    </defs>
</svg>
