<svg width="960" height="493" viewBox="0 0 960 493" fill="none" xmlns="http://www.w3.org/2000/svg">
<rect width="960" height="493" fill="white"/>
<path d="M222.401 144V24" stroke="#D3D7E0" stroke-width="2" stroke-linecap="square" stroke-dasharray="6 6"/>
<path d="M240.669 37.21C242.552 37.21 244.169 35.705 244.169 33.829C244.169 31.939 242.783 30.525 240.9 30.525C240.305 30.525 239.675 30.714 239.178 31.071L239.346 28.299H243.476V26.92H238.037L237.729 32.219L239.003 32.667C239.318 32.247 239.885 31.855 240.711 31.855C241.789 31.855 242.692 32.723 242.692 33.829C242.692 34.907 241.817 35.796 240.711 35.796C239.871 35.796 239.038 35.229 238.807 34.333L237.4 34.711C237.813 36.181 239.115 37.21 240.669 37.21ZM246.073 29.629L245.982 30.28C246.99 30.462 247.529 29.846 247.529 28.747V26.92H245.982V28.607H246.787C246.857 29.202 246.682 29.678 246.073 29.629ZM253.551 37.21C255.924 37.21 257.569 35.663 257.569 33.29V26.92H256.085V33.213C256.085 34.914 254.818 35.831 253.551 35.831C252.298 35.831 251.017 34.935 251.017 33.213V26.92L249.533 26.927V33.29C249.533 35.663 251.178 37.21 253.551 37.21ZM262.04 37H263.503V28.299H266.856V26.92H258.687V28.299H262.04V37ZM267.977 37H269.44V33.381H272.114L273.871 37H275.544L273.64 33.094C274.781 32.597 275.355 31.491 275.355 30.147C275.355 28.516 274.515 27.235 272.828 26.976C272.562 26.934 272.247 26.92 272.051 26.92H267.977V37ZM269.44 31.995V28.299H271.995C272.177 28.299 272.422 28.313 272.632 28.369C273.528 28.579 273.864 29.405 273.864 30.147C273.864 30.889 273.528 31.715 272.632 31.932C272.422 31.981 272.177 31.995 271.995 31.995H269.44Z" fill="#D3D7E0"/>
<path d="M290.401 144V24" stroke="#D3D7E0" stroke-width="2" stroke-linecap="square" stroke-dasharray="6 6"/>
<path d="M303.843 37H309.87V35.621H305.306V26.92H303.843V37Z" fill="#D3D7E0"/>
<path d="M322.401 144V24" stroke="#D3D7E0" stroke-width="2" stroke-linecap="square" stroke-dasharray="6 6"/>
<path d="M340.259 37H341.722V32.695H345.39V31.225H341.722V28.383H346.23V26.92H340.259V37ZM347.491 37H348.954V33.381H351.628L353.385 37H355.058L353.154 33.094C354.295 32.597 354.869 31.491 354.869 30.147C354.869 28.516 354.029 27.235 352.342 26.976C352.076 26.934 351.761 26.92 351.565 26.92H347.491V37ZM348.954 31.995V28.299H351.509C351.691 28.299 351.936 28.313 352.146 28.369C353.042 28.579 353.378 29.405 353.378 30.147C353.378 30.889 353.042 31.715 352.146 31.932C351.936 31.981 351.691 31.995 351.509 31.995H348.954ZM358.354 37H359.845V26.92H358.354L356.457 28.054V29.685L358.354 28.53V37Z" fill="#D3D7E0"/>
<path d="M378.401 144V24" stroke="#D3D7E0" stroke-width="2" stroke-linecap="square" stroke-dasharray="6 6"/>
<path d="M394.136 37.21C396.46 37.21 398.021 35.943 398.616 33.955L397.132 33.556C396.733 34.963 395.732 35.817 394.136 35.817C391.994 35.817 390.902 34.27 390.916 31.96C390.923 29.65 391.994 28.103 394.136 28.103C395.732 28.103 396.733 28.957 397.132 30.364L398.616 29.965C398.021 27.977 396.46 26.71 394.136 26.71C391.112 26.71 389.369 28.845 389.369 31.96C389.369 35.075 391.112 37.21 394.136 37.21ZM400.155 37H403.312C403.494 37 404.096 37 404.565 36.937C406.931 36.636 408.191 34.529 408.191 31.96C408.191 29.391 406.931 27.284 404.565 26.983C404.096 26.92 403.494 26.92 403.312 26.92H400.155V37ZM401.653 35.607V28.313H403.312C403.62 28.313 404.124 28.32 404.46 28.383C405.972 28.663 406.637 30.189 406.637 31.96C406.637 33.689 406 35.243 404.46 35.537C404.124 35.6 403.634 35.607 403.312 35.607H401.653ZM409.821 37H411.284V33.381H413.958L415.715 37H417.388L415.484 33.094C416.625 32.597 417.199 31.491 417.199 30.147C417.199 28.516 416.359 27.235 414.672 26.976C414.406 26.934 414.091 26.92 413.895 26.92H409.821V37ZM411.284 31.995V28.299H413.839C414.021 28.299 414.266 28.313 414.476 28.369C415.372 28.579 415.708 29.405 415.708 30.147C415.708 30.889 415.372 31.715 414.476 31.932C414.266 31.981 414.021 31.995 413.839 31.995H411.284ZM420.684 37H422.175V26.92H420.684L418.787 28.054V29.685L420.684 28.53V37Z" fill="#D3D7E0"/>
<path d="M434.401 144V24" stroke="#D3D7E0" stroke-width="2" stroke-linecap="square" stroke-dasharray="6 6"/>
<path d="M451.103 37H452.566V32.695H456.234V31.225H452.566V28.383H457.074V26.92H451.103V37ZM458.336 37H459.799V33.381H462.473L464.23 37H465.903L463.999 33.094C465.14 32.597 465.714 31.491 465.714 30.147C465.714 28.516 464.874 27.235 463.187 26.976C462.921 26.934 462.606 26.92 462.41 26.92H458.336V37ZM459.799 31.995V28.299H462.354C462.536 28.299 462.781 28.313 462.991 28.369C463.887 28.579 464.223 29.405 464.223 30.147C464.223 30.889 463.887 31.715 462.991 31.932C462.781 31.981 462.536 31.995 462.354 31.995H459.799ZM467.161 36.993H473.979V35.6H469.422L472.341 32.996C473.433 32.037 473.979 31.407 473.979 30.028C473.979 28.117 472.544 26.71 470.64 26.71C468.631 26.71 467.196 28.047 467.196 30H468.694C468.68 28.985 469.492 28.103 470.612 28.103C471.697 28.103 472.474 28.929 472.474 30.007C472.474 30.581 472.264 31.127 471.557 31.757L467.168 35.691L467.161 36.993Z" fill="#D3D7E0"/>
<path d="M490.401 144V24" stroke="#D3D7E0" stroke-width="2" stroke-linecap="square" stroke-dasharray="6 6"/>
<path d="M504.98 37.21C507.304 37.21 508.865 35.943 509.46 33.955L507.976 33.556C507.577 34.963 506.576 35.817 504.98 35.817C502.838 35.817 501.746 34.27 501.76 31.96C501.767 29.65 502.838 28.103 504.98 28.103C506.576 28.103 507.577 28.957 507.976 30.364L509.46 29.965C508.865 27.977 507.304 26.71 504.98 26.71C501.956 26.71 500.213 28.845 500.213 31.96C500.213 35.075 501.956 37.21 504.98 37.21ZM511 37H514.157C514.339 37 514.941 37 515.41 36.937C517.776 36.636 519.036 34.529 519.036 31.96C519.036 29.391 517.776 27.284 515.41 26.983C514.941 26.92 514.339 26.92 514.157 26.92H511V37ZM512.498 35.607V28.313H514.157C514.465 28.313 514.969 28.32 515.305 28.383C516.817 28.663 517.482 30.189 517.482 31.96C517.482 33.689 516.845 35.243 515.305 35.537C514.969 35.6 514.479 35.607 514.157 35.607H512.498ZM520.666 37H522.129V33.381H524.803L526.56 37H528.233L526.329 33.094C527.47 32.597 528.044 31.491 528.044 30.147C528.044 28.516 527.204 27.235 525.517 26.976C525.251 26.934 524.936 26.92 524.74 26.92H520.666V37ZM522.129 31.995V28.299H524.684C524.866 28.299 525.111 28.313 525.321 28.369C526.217 28.579 526.553 29.405 526.553 30.147C526.553 30.889 526.217 31.715 525.321 31.932C525.111 31.981 524.866 31.995 524.684 31.995H522.129ZM529.491 36.993H536.309V35.6H531.752L534.671 32.996C535.763 32.037 536.309 31.407 536.309 30.028C536.309 28.117 534.874 26.71 532.97 26.71C530.961 26.71 529.526 28.047 529.526 30H531.024C531.01 28.985 531.822 28.103 532.942 28.103C534.027 28.103 534.804 28.929 534.804 30.007C534.804 30.581 534.594 31.127 533.887 31.757L529.498 35.691L529.491 36.993Z" fill="#D3D7E0"/>
<path d="M546.401 144V24" stroke="#D3D7E0" stroke-width="2" stroke-linecap="square" stroke-dasharray="6 6"/>
<path d="M563.206 37H564.669V32.695H568.337V31.225H564.669V28.383H569.177V26.92H563.206V37ZM570.438 37H571.901V33.381H574.575L576.332 37H578.005L576.101 33.094C577.242 32.597 577.816 31.491 577.816 30.147C577.816 28.516 576.976 27.235 575.289 26.976C575.023 26.934 574.708 26.92 574.512 26.92H570.438V37ZM571.901 31.995V28.299H574.456C574.638 28.299 574.883 28.313 575.093 28.369C575.989 28.579 576.325 29.405 576.325 30.147C576.325 30.889 575.989 31.715 575.093 31.932C574.883 31.981 574.638 31.995 574.456 31.995H571.901ZM582.365 37.189C584.248 37.189 585.732 35.796 585.732 33.871C585.732 32.233 584.724 30.924 583.093 30.707L585.585 28.313V26.92H579.523V28.313H583.793L580.713 31.036L581.399 32.191C581.686 32.037 582.029 31.939 582.351 31.939C583.471 31.939 584.234 32.751 584.234 33.871C584.234 34.984 583.471 35.789 582.365 35.803C581.539 35.81 580.804 35.341 580.538 34.466L579.124 34.858C579.551 36.293 580.867 37.189 582.365 37.189Z" fill="#D3D7E0"/>
<path d="M602.401 144V24" stroke="#D3D7E0" stroke-width="2" stroke-linecap="square" stroke-dasharray="6 6"/>
<path d="M653.083 37.21C655.407 37.21 656.968 35.943 657.563 33.955L656.079 33.556C655.68 34.963 654.679 35.817 653.083 35.817C650.941 35.817 649.849 34.27 649.863 31.96C649.87 29.65 650.941 28.103 653.083 28.103C654.679 28.103 655.68 28.957 656.079 30.364L657.563 29.965C656.968 27.977 655.407 26.71 653.083 26.71C650.059 26.71 648.316 28.845 648.316 31.96C648.316 35.075 650.059 37.21 653.083 37.21ZM659.102 37H662.259C662.441 37 663.043 37 663.512 36.937C665.878 36.636 667.138 34.529 667.138 31.96C667.138 29.391 665.878 27.284 663.512 26.983C663.043 26.92 662.441 26.92 662.259 26.92H659.102V37ZM660.6 35.607V28.313H662.259C662.567 28.313 663.071 28.32 663.407 28.383C664.919 28.663 665.584 30.189 665.584 31.96C665.584 33.689 664.947 35.243 663.407 35.537C663.071 35.6 662.581 35.607 662.259 35.607H660.6ZM668.769 37H670.232V33.381H672.906L674.663 37H676.336L674.432 33.094C675.573 32.597 676.147 31.491 676.147 30.147C676.147 28.516 675.307 27.235 673.62 26.976C673.354 26.934 673.039 26.92 672.843 26.92H668.769V37ZM670.232 31.995V28.299H672.787C672.969 28.299 673.214 28.313 673.424 28.369C674.32 28.579 674.656 29.405 674.656 30.147C674.656 30.889 674.32 31.715 673.424 31.932C673.214 31.981 672.969 31.995 672.787 31.995H670.232ZM680.695 37.189C682.578 37.189 684.062 35.796 684.062 33.871C684.062 32.233 683.054 30.924 681.423 30.707L683.915 28.313V26.92H677.853V28.313H682.123L679.043 31.036L679.729 32.191C680.016 32.037 680.359 31.939 680.681 31.939C681.801 31.939 682.564 32.751 682.564 33.871C682.564 34.984 681.801 35.789 680.695 35.803C679.869 35.81 679.134 35.341 678.868 34.466L677.454 34.858C677.881 36.293 679.197 37.189 680.695 37.189Z" fill="#D3D7E0"/>
<path d="M730.401 144V24" stroke="#D3D7E0" stroke-width="2" stroke-linecap="square" stroke-dasharray="6 6"/>
<path d="M782.994 37H784.457V32.695H788.125V31.225H784.457V28.383H788.965V26.92H782.994V37ZM790.227 37H791.69V33.381H794.364L796.121 37H797.794L795.89 33.094C797.031 32.597 797.605 31.491 797.605 30.147C797.605 28.516 796.765 27.235 795.078 26.976C794.812 26.934 794.497 26.92 794.301 26.92H790.227V37ZM791.69 31.995V28.299H794.245C794.427 28.299 794.672 28.313 794.882 28.369C795.778 28.579 796.114 29.405 796.114 30.147C796.114 30.889 795.778 31.715 794.882 31.932C794.672 31.981 794.427 31.995 794.245 31.995H791.69ZM803.602 37H805.086V35.243H806.087V33.857H805.086V31.127H803.602V33.857H800.725L804.001 26.92H802.328L799.052 33.857V35.243H803.602V37Z" fill="#D3D7E0"/>
<path d="M858.401 144V24" stroke="#D3D7E0" stroke-width="2" stroke-linecap="square" stroke-dasharray="6 6"/>
<rect width="45" height="20" transform="translate(95.4008 72)" fill="white"/>
<path d="M102.667 76L100.401 77.35V79L102.667 77.6333V88H104.167V76H102.667ZM107.083 79.6167H108.6C108.6 78.8833 108.933 78.2 109.466 77.7333C109.883 77.3833 110.433 77.1667 111.033 77.1667C111.683 77.1667 112.283 77.4 112.716 77.8333C113.2 78.2833 113.483 78.9333 113.483 79.6167C113.483 80.3833 113.25 81.0833 112.366 81.8667L107.016 86.5667L107 87.9833H114.833V86.5667H109.333L113.183 83.1333C114.4 82.05 115 81.1667 115 79.6333C115 78.5833 114.583 77.5667 113.85 76.8667C113.15 76.1167 112.166 75.75 111.1 75.75C110.133 75.75 109.166 76.0167 108.433 76.65C107.6 77.3667 107.066 78.45 107.083 79.6167ZM124.438 80.1833C123.705 79.25 122.555 78.75 121.322 78.75C120.255 78.75 119.238 79.15 118.505 79.85V76H117.005V88H118.338V86.95C119.055 87.8167 120.122 88.25 121.322 88.25C122.538 88.25 123.688 87.7333 124.438 86.8C125.188 85.85 125.438 84.6667 125.438 83.4833C125.438 82.3 125.155 81.1 124.438 80.1833ZM123.238 85.8833C122.755 86.5667 121.955 86.8833 121.138 86.8833C120.305 86.8833 119.538 86.5833 119.038 85.9667C118.538 85.35 118.338 84.4167 118.338 83.4833C118.338 82.5667 118.538 81.65 119.038 81.0167C119.522 80.4 120.272 80.1 121.088 80.1C121.972 80.1 122.738 80.4167 123.222 81.1C123.688 81.7167 123.855 82.5833 123.855 83.4833C123.855 84.3833 123.705 85.2667 123.238 85.8833ZM134.704 80.1833C133.971 79.25 132.821 78.75 131.587 78.75C130.437 78.75 129.337 79.2 128.604 80.0167V79H127.271V92H128.771V87.15C129.471 87.8833 130.471 88.25 131.587 88.25C132.804 88.25 133.954 87.7333 134.704 86.8C135.454 85.85 135.704 84.6667 135.704 83.4833C135.704 82.3 135.421 81.1 134.704 80.1833ZM133.504 85.8833C133.021 86.5667 132.221 86.8833 131.404 86.8833C130.571 86.8833 129.804 86.5833 129.304 85.9667C128.804 85.35 128.604 84.4167 128.604 83.4833C128.604 82.5667 128.804 81.65 129.304 81.0167C129.787 80.4 130.537 80.1 131.354 80.1C132.237 80.1 133.004 80.4167 133.487 81.1C133.954 81.7167 134.121 82.5833 134.121 83.4833C134.121 84.3833 133.971 85.2667 133.504 85.8833Z" fill="#110529"/>
<g filter="url(#filter0_i_5813_36494)">
<rect x="83.4008" y="104" width="69" height="52" rx="1" fill="#D6E0FF"/>
<path d="M106.953 138.3C110.293 138.3 112.633 136.1 112.633 132.75V123.6H110.833V132.6C110.833 135.31 108.793 136.62 106.953 136.62C105.133 136.62 103.073 135.33 103.073 132.6V123.6L101.273 123.61V132.75C101.273 136.11 103.613 138.3 106.953 138.3ZM115.434 138H117.124V127.51L122.014 138H122.964L127.854 127.51V137.99H129.544V123.6H127.904L122.494 135.07L117.054 123.6H115.434V138ZM132.548 138H134.328V123.6H132.548V138Z" fill="#110529"/>
<rect x="83.4008" y="104" width="69" height="52" rx="1" stroke="#110529" stroke-width="2" stroke-linecap="round"/>
</g>
<g filter="url(#filter1_i_5813_36494)">
<rect x="152.401" y="104" width="70" height="52" rx="1" fill="#D3D7E0"/>
<rect x="152.401" y="104" width="70" height="52" rx="1" stroke="#110529" stroke-width="2" stroke-linecap="round"/>
</g>
<g filter="url(#filter2_i_5813_36494)">
<rect x="222.401" y="104" width="396" height="52" rx="1" fill="#99E099"/>
<path d="M419.159 138H421.639L426.459 123.6H424.609L420.379 136.11L416.189 123.6H414.339L419.159 138Z" fill="#110529"/>
<rect x="222.401" y="104" width="396" height="52" rx="1" stroke="#110529" stroke-width="2" stroke-linecap="round"/>
</g>
<g filter="url(#filter3_i_5813_36494)">
<rect x="618.401" y="104" width="30" height="52" rx="1" fill="#CBEB67"/>
</g>
<rect x="618.401" y="104" width="30" height="52" rx="1" stroke="#110529" stroke-width="2" stroke-linecap="round"/>
<g filter="url(#filter4_i_5813_36494)">
<rect x="684.401" y="104" width="30" height="52" rx="1" fill="#FAAAFA"/>
</g>
<rect x="684.401" y="104" width="30" height="52" rx="1" stroke="#110529" stroke-width="2" stroke-linecap="round"/>
<g filter="url(#filter5_i_5813_36494)">
<rect x="648.401" y="104" width="36" height="52" rx="1" fill="#FFCB8F"/>
</g>
<rect x="648.401" y="104" width="36" height="52" rx="1" stroke="#110529" stroke-width="2" stroke-linecap="round"/>
<path d="M627.848 138V123.6H629.648L637.158 134.85V123.6H638.958V138H637.158L629.648 126.74V138H627.848Z" fill="#110529"/>
<path d="M693.848 138V123.6H695.648L703.158 134.85V123.6H704.958V138H703.158L695.648 126.74V138H693.848Z" fill="#110529"/>
<path d="M660.994 138V123.6H665.434C665.581 123.6 665.838 123.603 666.204 123.61C666.571 123.617 666.921 123.643 667.254 123.69C668.368 123.837 669.298 124.243 670.044 124.91C670.798 125.57 671.364 126.41 671.744 127.43C672.124 128.45 672.314 129.573 672.314 130.8C672.314 132.027 672.124 133.15 671.744 134.17C671.364 135.19 670.798 136.033 670.044 136.7C669.298 137.36 668.368 137.763 667.254 137.91C666.921 137.95 666.568 137.977 666.194 137.99C665.828 137.997 665.574 138 665.434 138H660.994ZM662.824 136.3H665.434C665.688 136.3 665.971 136.293 666.284 136.28C666.598 136.26 666.871 136.23 667.104 136.19C667.891 136.043 668.528 135.713 669.014 135.2C669.501 134.687 669.858 134.047 670.084 133.28C670.311 132.513 670.424 131.687 670.424 130.8C670.424 129.893 670.308 129.057 670.074 128.29C669.848 127.523 669.491 126.887 669.004 126.38C668.518 125.873 667.884 125.55 667.104 125.41C666.871 125.363 666.594 125.333 666.274 125.32C665.954 125.307 665.674 125.3 665.434 125.3H662.824V136.3Z" fill="#110529"/>
<g filter="url(#filter6_i_5813_36494)">
<rect x="714.401" y="104" width="144" height="52" rx="1" fill="#C1ADFF"/>
<path d="M785.645 138.29C787.095 138.29 788.355 137.7 789.085 136.43C789.615 135.51 789.555 134.72 789.555 133.48V123.6H787.755V133.48C787.755 134.37 787.755 134.99 787.495 135.51C787.105 136.29 786.285 136.6 785.605 136.6C784.535 136.6 783.625 135.83 783.415 134.85L781.645 135.27C782.155 137.11 783.625 138.29 785.645 138.29Z" fill="#110529"/>
<rect x="714.401" y="104" width="144" height="52" rx="1" stroke="#110529" stroke-width="2" stroke-linecap="round"/>
</g>
<g filter="url(#filter7_i_5813_36494)">
<path d="M930.401 104H860.001C859.441 104 859.161 104 858.947 104.109C858.759 104.205 858.606 104.358 858.51 104.546C858.401 104.76 858.401 105.04 858.401 105.6V154.4C858.401 154.96 858.401 155.24 858.51 155.454C858.606 155.642 858.759 155.795 858.947 155.891C859.161 156 859.441 156 860.001 156H930.401L925.401 149.5L930.401 143L925.401 136L930.401 130L925.401 123.5L930.401 117L925.401 110.5L930.401 104Z" fill="#FAFAAA"/>
</g>
<path d="M930.401 104H860.001C859.441 104 859.161 104 858.947 104.109C858.759 104.205 858.606 104.358 858.51 104.546C858.401 104.76 858.401 105.04 858.401 105.6V154.4C858.401 154.96 858.401 155.24 858.51 155.454C858.606 155.642 858.759 155.795 858.947 155.891C859.161 156 859.441 156 860.001 156H930.401L925.401 149.5L930.401 143L925.401 136L930.401 130L925.401 123.5L930.401 117L925.401 110.5L930.401 104Z" stroke="#110529" stroke-width="2" stroke-linecap="round"/>
<path d="M894.994 138.3C898.324 138.3 900.514 136.47 901.334 133.61L899.524 133.13C898.934 135.27 897.424 136.6 894.994 136.6C891.774 136.6 890.134 134.25 890.154 130.8C890.174 127.35 891.774 125 894.994 125C897.424 125 898.934 126.33 899.524 128.47L901.334 127.99C900.514 125.13 898.324 123.3 894.994 123.3C890.684 123.3 888.274 126.36 888.274 130.8C888.274 135.24 890.684 138.3 894.994 138.3Z" fill="#110529"/>
<rect width="57" height="20" transform="translate(157.401 72)" fill="white"/>
<path d="M170.667 82.3167H169.317C169.451 82.6833 169.367 83.1667 168.817 83.2167C168.284 83.2667 167.767 82.9333 167.051 82.6167C166.384 82.3 165.667 82.0833 164.901 82.2333C164.417 82.3167 163.917 82.6 163.634 83.0833C163.384 83.55 163.351 84.1667 163.467 84.6667H164.817C164.667 84.2833 164.751 83.8167 165.317 83.7667C165.851 83.7167 166.367 84.05 167.084 84.3667C167.751 84.6833 168.467 84.9 169.234 84.75C169.717 84.6667 170.201 84.3667 170.484 83.9C170.751 83.45 170.784 82.8167 170.667 82.3167ZM175.996 76L173.729 77.35V79L175.996 77.6333V88H177.496V76H175.996ZM180.411 79.6167H181.928C181.928 78.8833 182.261 78.2 182.795 77.7333C183.211 77.3833 183.761 77.1667 184.361 77.1667C185.011 77.1667 185.611 77.4 186.045 77.8333C186.528 78.2833 186.811 78.9333 186.811 79.6167C186.811 80.3833 186.578 81.0833 185.695 81.8667L180.345 86.5667L180.328 87.9833H188.161V86.5667H182.661L186.511 83.1333C187.728 82.05 188.328 81.1667 188.328 79.6333C188.328 78.5833 187.911 77.5667 187.178 76.8667C186.478 76.1167 185.495 75.75 184.428 75.75C183.461 75.75 182.495 76.0167 181.761 76.65C180.928 77.3667 180.395 78.45 180.411 79.6167ZM197.766 80.1833C197.033 79.25 195.883 78.75 194.65 78.75C193.583 78.75 192.566 79.15 191.833 79.85V76H190.333V88H191.666V86.95C192.383 87.8167 193.45 88.25 194.65 88.25C195.866 88.25 197.016 87.7333 197.766 86.8C198.516 85.85 198.766 84.6667 198.766 83.4833C198.766 82.3 198.483 81.1 197.766 80.1833ZM196.566 85.8833C196.083 86.5667 195.283 86.8833 194.466 86.8833C193.633 86.8833 192.866 86.5833 192.366 85.9667C191.866 85.35 191.666 84.4167 191.666 83.4833C191.666 82.5667 191.866 81.65 192.366 81.0167C192.85 80.4 193.6 80.1 194.416 80.1C195.3 80.1 196.066 80.4167 196.55 81.1C197.016 81.7167 197.183 82.5833 197.183 83.4833C197.183 84.3833 197.033 85.2667 196.566 85.8833ZM208.032 80.1833C207.299 79.25 206.149 78.75 204.915 78.75C203.765 78.75 202.665 79.2 201.932 80.0167V79H200.599V92H202.099V87.15C202.799 87.8833 203.799 88.25 204.915 88.25C206.132 88.25 207.282 87.7333 208.032 86.8C208.782 85.85 209.032 84.6667 209.032 83.4833C209.032 82.3 208.749 81.1 208.032 80.1833ZM206.832 85.8833C206.349 86.5667 205.549 86.8833 204.732 86.8833C203.899 86.8833 203.132 86.5833 202.632 85.9667C202.132 85.35 201.932 84.4167 201.932 83.4833C201.932 82.5667 202.132 81.65 202.632 81.0167C203.115 80.4 203.865 80.1 204.682 80.1C205.565 80.1 206.332 80.4167 206.815 81.1C207.282 81.7167 207.449 82.5833 207.449 83.4833C207.449 84.3833 207.299 85.2667 206.832 85.8833Z" fill="#110529"/>
<rect width="45" height="20" transform="translate(95.4008 322)" fill="white"/>
<path d="M102.667 326L100.401 327.35V329L102.667 327.633V338H104.167V326H102.667ZM107.083 329.617H108.6C108.6 328.883 108.933 328.2 109.466 327.733C109.883 327.383 110.433 327.167 111.033 327.167C111.683 327.167 112.283 327.4 112.716 327.833C113.2 328.283 113.483 328.933 113.483 329.617C113.483 330.383 113.25 331.083 112.366 331.867L107.016 336.567L107 337.983H114.833V336.567H109.333L113.183 333.133C114.4 332.05 115 331.167 115 329.633C115 328.583 114.583 327.567 113.85 326.867C113.15 326.117 112.166 325.75 111.1 325.75C110.133 325.75 109.166 326.017 108.433 326.65C107.6 327.367 107.066 328.45 107.083 329.617ZM124.438 330.183C123.705 329.25 122.555 328.75 121.322 328.75C120.255 328.75 119.238 329.15 118.505 329.85V326H117.005V338H118.338V336.95C119.055 337.817 120.122 338.25 121.322 338.25C122.538 338.25 123.688 337.733 124.438 336.8C125.188 335.85 125.438 334.667 125.438 333.483C125.438 332.3 125.155 331.1 124.438 330.183ZM123.238 335.883C122.755 336.567 121.955 336.883 121.138 336.883C120.305 336.883 119.538 336.583 119.038 335.967C118.538 335.35 118.338 334.417 118.338 333.483C118.338 332.567 118.538 331.65 119.038 331.017C119.522 330.4 120.272 330.1 121.088 330.1C121.972 330.1 122.738 330.417 123.222 331.1C123.688 331.717 123.855 332.583 123.855 333.483C123.855 334.383 123.705 335.267 123.238 335.883ZM134.704 330.183C133.971 329.25 132.821 328.75 131.587 328.75C130.437 328.75 129.337 329.2 128.604 330.017V329H127.271V342H128.771V337.15C129.471 337.883 130.471 338.25 131.587 338.25C132.804 338.25 133.954 337.733 134.704 336.8C135.454 335.85 135.704 334.667 135.704 333.483C135.704 332.3 135.421 331.1 134.704 330.183ZM133.504 335.883C133.021 336.567 132.221 336.883 131.404 336.883C130.571 336.883 129.804 336.583 129.304 335.967C128.804 335.35 128.604 334.417 128.604 333.483C128.604 332.567 128.804 331.65 129.304 331.017C129.787 330.4 130.537 330.1 131.354 330.1C132.237 330.1 133.004 330.417 133.487 331.1C133.954 331.717 134.121 332.583 134.121 333.483C134.121 334.383 133.971 335.267 133.504 335.883Z" fill="#110529"/>
<g filter="url(#filter8_i_5813_36494)">
<rect x="83.4008" y="354" width="69" height="52" rx="1" fill="#D6E0FF"/>
<path d="M106.953 388.3C110.293 388.3 112.633 386.1 112.633 382.75V373.6H110.833V382.6C110.833 385.31 108.793 386.62 106.953 386.62C105.133 386.62 103.073 385.33 103.073 382.6V373.6L101.273 373.61V382.75C101.273 386.11 103.613 388.3 106.953 388.3ZM115.434 388H117.124V377.51L122.014 388H122.964L127.854 377.51V387.99H129.544V373.6H127.904L122.494 385.07L117.054 373.6H115.434V388ZM132.548 388H134.328V373.6H132.548V388Z" fill="#110529"/>
<rect x="83.4008" y="354" width="69" height="52" rx="1" stroke="#110529" stroke-width="2" stroke-linecap="round"/>
</g>
<g filter="url(#filter9_i_5813_36494)">
<rect x="152.401" y="354" width="70" height="52" rx="1" fill="#D3D7E0"/>
<rect x="152.401" y="354" width="70" height="52" rx="1" stroke="#110529" stroke-width="2" stroke-linecap="round"/>
</g>
<g filter="url(#filter10_i_5813_36494)">
<rect x="222.401" y="354" width="396" height="52" rx="1" fill="#99E099"/>
<path d="M419.159 388H421.639L426.459 373.6H424.609L420.379 386.11L416.189 373.6H414.339L419.159 388Z" fill="#110529"/>
<rect x="222.401" y="354" width="396" height="52" rx="1" stroke="#110529" stroke-width="2" stroke-linecap="round"/>
</g>
<g filter="url(#filter11_i_5813_36494)">
<rect x="618.401" y="354" width="30" height="52" rx="1" fill="#CBEB67"/>
<path d="M627.648 388V373.6H629.448L636.958 384.85V373.6H638.758V388H636.958L629.448 376.74V388H627.648Z" fill="#110529"/>
<rect x="618.401" y="354" width="30" height="52" rx="1" stroke="#110529" stroke-width="2" stroke-linecap="round"/>
</g>
<g filter="url(#filter12_i_5813_36494)">
<rect x="648.401" y="354" width="144" height="52" rx="1" fill="#C1ADFF"/>
<path d="M719.645 388.29C721.095 388.29 722.355 387.7 723.085 386.43C723.615 385.51 723.555 384.72 723.555 383.48V373.6H721.755V383.48C721.755 384.37 721.755 384.99 721.495 385.51C721.105 386.29 720.285 386.6 719.605 386.6C718.535 386.6 717.625 385.83 717.415 384.85L715.645 385.27C716.155 387.11 717.625 388.29 719.645 388.29Z" fill="#110529"/>
<rect x="648.401" y="354" width="144" height="52" rx="1" stroke="#110529" stroke-width="2" stroke-linecap="round"/>
</g>
<g filter="url(#filter13_i_5813_36494)">
<path d="M864.401 354H794.001C793.441 354 793.161 354 792.947 354.109C792.759 354.205 792.606 354.358 792.51 354.546C792.401 354.76 792.401 355.04 792.401 355.6V404.4C792.401 404.96 792.401 405.24 792.51 405.454C792.606 405.642 792.759 405.795 792.947 405.891C793.161 406 793.441 406 794.001 406H864.401L859.401 399.5L864.401 393L859.401 386L864.401 380L859.401 373.5L864.401 367L859.401 360.5L864.401 354Z" fill="#FAFAAA"/>
</g>
<path d="M864.401 354H794.001C793.441 354 793.161 354 792.947 354.109C792.759 354.205 792.606 354.358 792.51 354.546C792.401 354.76 792.401 355.04 792.401 355.6V404.4C792.401 404.96 792.401 405.24 792.51 405.454C792.606 405.642 792.759 405.795 792.947 405.891C793.161 406 793.441 406 794.001 406H864.401L859.401 399.5L864.401 393L859.401 386L864.401 380L859.401 373.5L864.401 367L859.401 360.5L864.401 354Z" stroke="#110529" stroke-width="2" stroke-linecap="round"/>
<path d="M828.994 388.3C832.324 388.3 834.514 386.47 835.334 383.61L833.524 383.13C832.934 385.27 831.424 386.6 828.994 386.6C825.774 386.6 824.134 384.25 824.154 380.8C824.174 377.35 825.774 375 828.994 375C831.424 375 832.934 376.33 833.524 378.47L835.334 377.99C834.514 375.13 832.324 373.3 828.994 373.3C824.684 373.3 822.274 376.36 822.274 380.8C822.274 385.24 824.684 388.3 828.994 388.3Z" fill="#110529"/>
<rect width="57" height="20" transform="translate(157.401 322)" fill="white"/>
<path d="M170.667 332.317H169.317C169.451 332.683 169.367 333.167 168.817 333.217C168.284 333.267 167.767 332.933 167.051 332.617C166.384 332.3 165.667 332.083 164.901 332.233C164.417 332.317 163.917 332.6 163.634 333.083C163.384 333.55 163.351 334.167 163.467 334.667H164.817C164.667 334.283 164.751 333.817 165.317 333.767C165.851 333.717 166.367 334.05 167.084 334.367C167.751 334.683 168.467 334.9 169.234 334.75C169.717 334.667 170.201 334.367 170.484 333.9C170.751 333.45 170.784 332.817 170.667 332.317ZM175.996 326L173.729 327.35V329L175.996 327.633V338H177.496V326H175.996ZM180.411 329.617H181.928C181.928 328.883 182.261 328.2 182.795 327.733C183.211 327.383 183.761 327.167 184.361 327.167C185.011 327.167 185.611 327.4 186.045 327.833C186.528 328.283 186.811 328.933 186.811 329.617C186.811 330.383 186.578 331.083 185.695 331.867L180.345 336.567L180.328 337.983H188.161V336.567H182.661L186.511 333.133C187.728 332.05 188.328 331.167 188.328 329.633C188.328 328.583 187.911 327.567 187.178 326.867C186.478 326.117 185.495 325.75 184.428 325.75C183.461 325.75 182.495 326.017 181.761 326.65C180.928 327.367 180.395 328.45 180.411 329.617ZM197.766 330.183C197.033 329.25 195.883 328.75 194.65 328.75C193.583 328.75 192.566 329.15 191.833 329.85V326H190.333V338H191.666V336.95C192.383 337.817 193.45 338.25 194.65 338.25C195.866 338.25 197.016 337.733 197.766 336.8C198.516 335.85 198.766 334.667 198.766 333.483C198.766 332.3 198.483 331.1 197.766 330.183ZM196.566 335.883C196.083 336.567 195.283 336.883 194.466 336.883C193.633 336.883 192.866 336.583 192.366 335.967C191.866 335.35 191.666 334.417 191.666 333.483C191.666 332.567 191.866 331.65 192.366 331.017C192.85 330.4 193.6 330.1 194.416 330.1C195.3 330.1 196.066 330.417 196.55 331.1C197.016 331.717 197.183 332.583 197.183 333.483C197.183 334.383 197.033 335.267 196.566 335.883ZM208.032 330.183C207.299 329.25 206.149 328.75 204.915 328.75C203.765 328.75 202.665 329.2 201.932 330.017V329H200.599V342H202.099V337.15C202.799 337.883 203.799 338.25 204.915 338.25C206.132 338.25 207.282 337.733 208.032 336.8C208.782 335.85 209.032 334.667 209.032 333.483C209.032 332.3 208.749 331.1 208.032 330.183ZM206.832 335.883C206.349 336.567 205.549 336.883 204.732 336.883C203.899 336.883 203.132 336.583 202.632 335.967C202.132 335.35 201.932 334.417 201.932 333.483C201.932 332.567 202.132 331.65 202.632 331.017C203.115 330.4 203.865 330.1 204.682 330.1C205.565 330.1 206.332 330.417 206.815 331.1C207.282 331.717 207.449 332.583 207.449 333.483C207.449 334.383 207.299 335.267 206.832 335.883Z" fill="#110529"/>
<path d="M53.6007 216H55.3807V210.68H59.5907L62.1707 216H64.2107L61.4307 210.29C63.0607 209.61 63.9107 208.04 63.9107 206.14C63.9107 203.85 62.6807 202.04 60.3507 201.68C59.9807 201.62 59.5707 201.6 59.2907 201.6H53.6007V216ZM55.3807 208.99V203.29H59.2307C59.4807 203.29 59.8307 203.31 60.1307 203.38C61.5107 203.69 62.0907 204.94 62.0907 206.14C62.0907 207.34 61.5107 208.59 60.1307 208.9C59.8307 208.97 59.4807 208.99 59.2307 208.99H55.3807ZM66.0132 215.99H75.5832V214.29H68.7532L73.3932 210.12C74.8732 208.81 75.5832 207.86 75.5832 205.97C75.5832 203.32 73.5632 201.3 70.8932 201.3C68.1232 201.3 66.0832 203.23 66.0832 205.94H67.9032C67.8832 204.37 69.1432 203 70.8632 203C72.5232 203 73.7632 204.29 73.7632 205.95C73.7632 206.86 73.4732 207.69 72.4132 208.64L66.0232 214.39L66.0132 215.99Z" fill="#110529"/>
<path d="M85.2007 200V216H95.2007V224L109.201 208L95.2007 192V200H85.2007Z" fill="#110529"/>
<path d="M286.701 208H112.201" stroke="#110529" stroke-width="2" stroke-linecap="square"/>
<rect width="56" height="20" transform="translate(286.701 198)" fill="white"/>
<path d="M291.501 213.992H299.157V212.632H293.693L297.405 209.296C298.589 208.248 299.157 207.488 299.157 205.976C299.157 203.856 297.541 202.24 295.405 202.24C293.189 202.24 291.557 203.784 291.557 205.952H293.013C292.997 204.696 294.005 203.6 295.381 203.6C296.709 203.6 297.701 204.632 297.701 205.96C297.701 206.688 297.469 207.352 296.621 208.112L291.509 212.712L291.501 213.992ZM304.479 214.24C306.623 214.24 308.439 212.504 308.439 210.376C308.439 208.232 306.815 206.584 304.679 206.584C303.903 206.584 303.127 206.848 302.527 207.328L302.735 203.832H307.639V202.48H301.455L301.103 208.504L302.367 208.984C302.783 208.384 303.503 207.896 304.519 207.896C305.863 207.896 307.007 208.984 307.007 210.376C307.007 211.728 305.919 212.856 304.519 212.856C303.447 212.856 302.407 212.144 302.119 211.008L300.751 211.376C301.215 213.056 302.695 214.24 304.479 214.24ZM314.24 214.24C316.48 214.24 318.128 212.592 318.128 210.352V206.128C318.128 203.888 316.48 202.24 314.24 202.24C312 202.24 310.352 203.888 310.352 206.128V210.352C310.352 212.592 312 214.24 314.24 214.24ZM311.8 210.432V206.04C311.8 204.688 312.888 203.6 314.24 203.6C315.592 203.6 316.68 204.688 316.68 206.04V210.432C316.68 211.784 315.592 212.872 314.24 212.872C312.888 212.872 311.8 211.784 311.8 210.432ZM324.336 214.24C326.752 214.24 328.208 212.264 328.208 209.672C328.208 207.08 326.744 205.12 324.344 205.12C323.264 205.12 322.408 205.496 321.792 206.144V202.48H320.36V214H321.632V213.024C322.264 213.784 323.168 214.24 324.336 214.24ZM321.632 209.672C321.632 207.76 322.432 206.424 324.12 206.424C325.88 206.424 326.696 207.848 326.696 209.672C326.696 211.512 325.864 212.936 324.16 212.936C322.416 212.936 321.632 211.568 321.632 209.672ZM333.929 214.24C336.345 214.24 337.801 212.264 337.801 209.672C337.801 207.08 336.337 205.12 333.937 205.12C332.761 205.12 331.857 205.568 331.225 206.328V205.36H329.953V217.84H331.385V213.2C332.001 213.856 332.857 214.24 333.929 214.24ZM331.225 209.672C331.225 207.76 332.025 206.424 333.713 206.424C335.473 206.424 336.289 207.848 336.289 209.672C336.289 211.512 335.457 212.936 333.753 212.936C332.009 212.936 331.225 211.568 331.225 209.672Z" fill="#110529"/>
<path d="M517.201 208H342.701" stroke="#110529" stroke-width="2" stroke-linecap="square"/>
<path d="M527.201 208L527.908 207.293L528.615 208L527.908 208.707L527.201 208ZM519.908 216.707L519.201 217.414L517.786 216L518.494 215.293L519.908 216.707ZM518.494 200.707L517.786 200L519.201 198.586L519.908 199.293L518.494 200.707ZM517.201 207L527.201 207L527.201 209L517.201 209L517.201 207ZM527.908 208.707L519.908 216.707L518.494 215.293L526.494 207.293L527.908 208.707ZM526.494 208.707L518.494 200.707L519.908 199.293L527.908 207.293L526.494 208.707Z" fill="#110529"/>
<path d="M435.201 184L434.494 183.293L433.786 184L434.494 184.707L435.201 184ZM442.494 192.707L443.201 193.414L444.615 192L443.908 191.293L442.494 192.707ZM443.908 176.707L444.615 176L443.201 174.586L442.494 175.293L443.908 176.707ZM455.201 183L435.201 183L435.201 185L455.201 185L455.201 183ZM434.494 184.707L442.494 192.707L443.908 191.293L435.908 183.293L434.494 184.707ZM435.908 184.707L443.908 176.707L442.494 175.293L434.494 183.293L435.908 184.707Z" fill="#110529"/>
<path d="M450.201 184L647.701 184" stroke="#110529" stroke-width="2" stroke-linecap="square"/>
<rect width="56" height="20" transform="translate(647.701 174)" fill="white"/>
<path d="M652.501 189.992H660.157V188.632H654.693L658.405 185.296C659.589 184.248 660.157 183.488 660.157 181.976C660.157 179.856 658.541 178.24 656.405 178.24C654.189 178.24 652.557 179.784 652.557 181.952H654.013C653.997 180.696 655.005 179.6 656.381 179.6C657.709 179.6 658.701 180.632 658.701 181.96C658.701 182.688 658.469 183.352 657.621 184.112L652.509 188.712L652.501 189.992ZM665.479 190.24C667.623 190.24 669.439 188.504 669.439 186.376C669.439 184.232 667.815 182.584 665.679 182.584C664.903 182.584 664.127 182.848 663.527 183.328L663.735 179.832H668.639V178.48H662.455L662.103 184.504L663.367 184.984C663.783 184.384 664.503 183.896 665.519 183.896C666.863 183.896 668.007 184.984 668.007 186.376C668.007 187.728 666.919 188.856 665.519 188.856C664.447 188.856 663.407 188.144 663.119 187.008L661.751 187.376C662.215 189.056 663.695 190.24 665.479 190.24ZM675.24 190.24C677.48 190.24 679.128 188.592 679.128 186.352V182.128C679.128 179.888 677.48 178.24 675.24 178.24C673 178.24 671.352 179.888 671.352 182.128V186.352C671.352 188.592 673 190.24 675.24 190.24ZM672.8 186.432V182.04C672.8 180.688 673.888 179.6 675.24 179.6C676.592 179.6 677.68 180.688 677.68 182.04V186.432C677.68 187.784 676.592 188.872 675.24 188.872C673.888 188.872 672.8 187.784 672.8 186.432ZM685.336 190.24C687.752 190.24 689.208 188.264 689.208 185.672C689.208 183.08 687.744 181.12 685.344 181.12C684.264 181.12 683.408 181.496 682.792 182.144V178.48H681.36V190H682.632V189.024C683.264 189.784 684.168 190.24 685.336 190.24ZM682.632 185.672C682.632 183.76 683.432 182.424 685.12 182.424C686.88 182.424 687.696 183.848 687.696 185.672C687.696 187.512 686.864 188.936 685.16 188.936C683.416 188.936 682.632 187.568 682.632 185.672ZM694.929 190.24C697.345 190.24 698.801 188.264 698.801 185.672C698.801 183.08 697.337 181.12 694.937 181.12C693.761 181.12 692.857 181.568 692.225 182.328V181.36H690.953V193.84H692.385V189.2C693.001 189.856 693.857 190.24 694.929 190.24ZM692.225 185.672C692.225 183.76 693.025 182.424 694.713 182.424C696.473 182.424 697.289 183.848 697.289 185.672C697.289 187.512 696.457 188.936 694.753 188.936C693.009 188.936 692.225 187.568 692.225 185.672Z" fill="#110529"/>
<path d="M703.701 184L901.201 184" stroke="#110529" stroke-width="2" stroke-linecap="square"/>
<path d="M927.201 176V192H917.201V200L903.201 184L917.201 168V176H927.201Z" fill="#110529"/>
<path d="M936.601 192H938.381V186.68H942.591L945.171 192H947.211L944.431 186.29C946.061 185.61 946.911 184.04 946.911 182.14C946.911 179.85 945.681 178.04 943.351 177.68C942.981 177.62 942.571 177.6 942.291 177.6H936.601V192ZM938.381 184.99V179.29H942.231C942.481 179.29 942.831 179.31 943.131 179.38C944.511 179.69 945.091 180.94 945.091 182.14C945.091 183.34 944.511 184.59 943.131 184.9C942.831 184.97 942.481 184.99 942.231 184.99H938.381ZM951.923 192H953.733V177.6H951.923L949.213 179.22V181.21L951.923 179.57V192Z" fill="#110529"/>
<path d="M53.6007 466H55.3807V460.68H59.5907L62.1707 466H64.2107L61.4307 460.29C63.0607 459.61 63.9107 458.04 63.9107 456.14C63.9107 453.85 62.6807 452.04 60.3507 451.68C59.9807 451.62 59.5707 451.6 59.2907 451.6H53.6007V466ZM55.3807 458.99V453.29H59.2307C59.4807 453.29 59.8307 453.31 60.1307 453.38C61.5107 453.69 62.0907 454.94 62.0907 456.14C62.0907 457.34 61.5107 458.59 60.1307 458.9C59.8307 458.97 59.4807 458.99 59.2307 458.99H55.3807ZM66.0132 465.99H75.5832V464.29H68.7532L73.3932 460.12C74.8732 458.81 75.5832 457.86 75.5832 455.97C75.5832 453.32 73.5632 451.3 70.8932 451.3C68.1232 451.3 66.0832 453.23 66.0832 455.94H67.9032C67.8832 454.37 69.1432 453 70.8632 453C72.5232 453 73.7632 454.29 73.7632 455.95C73.7632 456.86 73.4732 457.69 72.4132 458.64L66.0232 464.39L66.0132 465.99Z" fill="#110529"/>
<path d="M85.2007 450V466H95.2007V474L109.201 458L95.2007 442V450H85.2007Z" fill="#110529"/>
<path d="M286.701 458H112.201" stroke="#110529" stroke-width="2" stroke-linecap="square"/>
<rect width="56" height="20" transform="translate(286.701 448)" fill="white"/>
<path d="M291.501 463.992H299.157V462.632H293.693L297.405 459.296C298.589 458.248 299.157 457.488 299.157 455.976C299.157 453.856 297.541 452.24 295.405 452.24C293.189 452.24 291.557 453.784 291.557 455.952H293.013C292.997 454.696 294.005 453.6 295.381 453.6C296.709 453.6 297.701 454.632 297.701 455.96C297.701 456.688 297.469 457.352 296.621 458.112L291.509 462.712L291.501 463.992ZM304.479 464.24C306.623 464.24 308.439 462.504 308.439 460.376C308.439 458.232 306.815 456.584 304.679 456.584C303.903 456.584 303.127 456.848 302.527 457.328L302.735 453.832H307.639V452.48H301.455L301.103 458.504L302.367 458.984C302.783 458.384 303.503 457.896 304.519 457.896C305.863 457.896 307.007 458.984 307.007 460.376C307.007 461.728 305.919 462.856 304.519 462.856C303.447 462.856 302.407 462.144 302.119 461.008L300.751 461.376C301.215 463.056 302.695 464.24 304.479 464.24ZM314.24 464.24C316.48 464.24 318.128 462.592 318.128 460.352V456.128C318.128 453.888 316.48 452.24 314.24 452.24C312 452.24 310.352 453.888 310.352 456.128V460.352C310.352 462.592 312 464.24 314.24 464.24ZM311.8 460.432V456.04C311.8 454.688 312.888 453.6 314.24 453.6C315.592 453.6 316.68 454.688 316.68 456.04V460.432C316.68 461.784 315.592 462.872 314.24 462.872C312.888 462.872 311.8 461.784 311.8 460.432ZM324.336 464.24C326.752 464.24 328.208 462.264 328.208 459.672C328.208 457.08 326.744 455.12 324.344 455.12C323.264 455.12 322.408 455.496 321.792 456.144V452.48H320.36V464H321.632V463.024C322.264 463.784 323.168 464.24 324.336 464.24ZM321.632 459.672C321.632 457.76 322.432 456.424 324.12 456.424C325.88 456.424 326.696 457.848 326.696 459.672C326.696 461.512 325.864 462.936 324.16 462.936C322.416 462.936 321.632 461.568 321.632 459.672ZM333.929 464.24C336.345 464.24 337.801 462.264 337.801 459.672C337.801 457.08 336.337 455.12 333.937 455.12C332.761 455.12 331.857 455.568 331.225 456.328V455.36H329.953V467.84H331.385V463.2C332.001 463.856 332.857 464.24 333.929 464.24ZM331.225 459.672C331.225 457.76 332.025 456.424 333.713 456.424C335.473 456.424 336.289 457.848 336.289 459.672C336.289 461.512 335.457 462.936 333.753 462.936C332.009 462.936 331.225 461.568 331.225 459.672Z" fill="#110529"/>
<path d="M517.201 458H342.701" stroke="#110529" stroke-width="2" stroke-linecap="square"/>
<path d="M527.201 458L527.908 457.293L528.615 458L527.908 458.707L527.201 458ZM519.908 466.707L519.201 467.414L517.786 466L518.494 465.293L519.908 466.707ZM518.494 450.707L517.786 450L519.201 448.586L519.908 449.293L518.494 450.707ZM517.201 457L527.201 457L527.201 459L517.201 459L517.201 457ZM527.908 458.707L519.908 466.707L518.494 465.293L526.494 457.293L527.908 458.707ZM526.494 458.707L518.494 450.707L519.908 449.293L527.908 457.293L526.494 458.707Z" fill="#110529"/>
<path d="M371.201 434L370.494 433.293L369.786 434L370.494 434.707L371.201 434ZM378.494 442.707L379.201 443.414L380.615 442L379.908 441.293L378.494 442.707ZM379.908 426.707L380.615 426L379.201 424.586L378.494 425.293L379.908 426.707ZM391.201 433L371.201 433L371.201 435L391.201 435L391.201 433ZM370.494 434.707L378.494 442.707L379.908 441.293L371.908 433.293L370.494 434.707ZM371.908 434.707L379.908 426.707L378.494 425.293L370.494 433.293L371.908 434.707Z" fill="#110529"/>
<path d="M386.201 434H584.201" stroke="#110529" stroke-width="2" stroke-linecap="square"/>
<rect width="56" height="20" transform="translate(584.201 424)" fill="white"/>
<path d="M589.001 439.992H596.657V438.632H591.193L594.905 435.296C596.089 434.248 596.657 433.488 596.657 431.976C596.657 429.856 595.041 428.24 592.905 428.24C590.689 428.24 589.057 429.784 589.057 431.952H590.513C590.497 430.696 591.505 429.6 592.881 429.6C594.209 429.6 595.201 430.632 595.201 431.96C595.201 432.688 594.969 433.352 594.121 434.112L589.009 438.712L589.001 439.992ZM601.979 440.24C604.123 440.24 605.939 438.504 605.939 436.376C605.939 434.232 604.315 432.584 602.179 432.584C601.403 432.584 600.627 432.848 600.027 433.328L600.235 429.832H605.139V428.48H598.955L598.603 434.504L599.867 434.984C600.283 434.384 601.003 433.896 602.019 433.896C603.363 433.896 604.507 434.984 604.507 436.376C604.507 437.728 603.419 438.856 602.019 438.856C600.947 438.856 599.907 438.144 599.619 437.008L598.251 437.376C598.715 439.056 600.195 440.24 601.979 440.24ZM611.74 440.24C613.98 440.24 615.628 438.592 615.628 436.352V432.128C615.628 429.888 613.98 428.24 611.74 428.24C609.5 428.24 607.852 429.888 607.852 432.128V436.352C607.852 438.592 609.5 440.24 611.74 440.24ZM609.3 436.432V432.04C609.3 430.688 610.388 429.6 611.74 429.6C613.092 429.6 614.18 430.688 614.18 432.04V436.432C614.18 437.784 613.092 438.872 611.74 438.872C610.388 438.872 609.3 437.784 609.3 436.432ZM621.836 440.24C624.252 440.24 625.708 438.264 625.708 435.672C625.708 433.08 624.244 431.12 621.844 431.12C620.764 431.12 619.908 431.496 619.292 432.144V428.48H617.86V440H619.132V439.024C619.764 439.784 620.668 440.24 621.836 440.24ZM619.132 435.672C619.132 433.76 619.932 432.424 621.62 432.424C623.38 432.424 624.196 433.848 624.196 435.672C624.196 437.512 623.364 438.936 621.66 438.936C619.916 438.936 619.132 437.568 619.132 435.672ZM631.429 440.24C633.845 440.24 635.301 438.264 635.301 435.672C635.301 433.08 633.837 431.12 631.437 431.12C630.261 431.12 629.357 431.568 628.725 432.328V431.36H627.453V443.84H628.885V439.2C629.501 439.856 630.357 440.24 631.429 440.24ZM628.725 435.672C628.725 433.76 629.525 432.424 631.213 432.424C632.973 432.424 633.789 433.848 633.789 435.672C633.789 437.512 632.957 438.936 631.253 438.936C629.509 438.936 628.725 437.568 628.725 435.672Z" fill="#110529"/>
<path d="M640.201 434H838.201" stroke="#110529" stroke-width="2" stroke-linecap="square"/>
<path d="M864.201 426V442H854.201V450L840.201 434L854.201 418V426H864.201Z" fill="#110529"/>
<path d="M873.601 442H875.381V436.68H879.591L882.171 442H884.211L881.431 436.29C883.061 435.61 883.911 434.04 883.911 432.14C883.911 429.85 882.681 428.04 880.351 427.68C879.981 427.62 879.571 427.6 879.291 427.6H873.601V442ZM875.381 434.99V429.29H879.231C879.481 429.29 879.831 429.31 880.131 429.38C881.511 429.69 882.091 430.94 882.091 432.14C882.091 433.34 881.511 434.59 880.131 434.9C879.831 434.97 879.481 434.99 879.231 434.99H875.381ZM888.923 442H890.733V427.6H888.923L886.213 429.22V431.21L888.923 429.57V442Z" fill="#110529"/>
<path d="M5.91023 378V365.29H1.00023V363.6H12.6002V365.29H7.69023V378H5.91023ZM20.1124 378.3C18.6791 378.3 17.4624 377.983 16.4624 377.35C15.4624 376.717 14.6991 375.837 14.1724 374.71C13.6524 373.583 13.3924 372.28 13.3924 370.8C13.3924 369.32 13.6524 368.017 14.1724 366.89C14.6991 365.763 15.4624 364.883 16.4624 364.25C17.4624 363.617 18.6791 363.3 20.1124 363.3C21.7791 363.3 23.1491 363.723 24.2224 364.57C25.3024 365.417 26.0458 366.557 26.4524 367.99L24.6424 368.47C24.3491 367.397 23.8258 366.55 23.0724 365.93C22.3191 365.31 21.3324 365 20.1124 365C19.0391 365 18.1458 365.243 17.4324 365.73C16.7191 366.217 16.1824 366.897 15.8224 367.77C15.4624 368.637 15.2791 369.647 15.2724 370.8C15.2658 371.947 15.4424 372.957 15.8024 373.83C16.1624 374.697 16.7024 375.377 17.4224 375.87C18.1424 376.357 19.0391 376.6 20.1124 376.6C21.3324 376.6 22.3191 376.29 23.0724 375.67C23.8258 375.043 24.3491 374.197 24.6424 373.13L26.4524 373.61C26.0458 375.037 25.3024 376.177 24.2224 377.03C23.1491 377.877 21.7791 378.3 20.1124 378.3ZM28.6455 378V363.6H34.3355C34.4755 363.6 34.6422 363.607 34.8355 363.62C35.0289 363.627 35.2155 363.647 35.3955 363.68C36.1755 363.8 36.8289 364.067 37.3555 364.48C37.8889 364.893 38.2889 365.417 38.5555 366.05C38.8222 366.677 38.9555 367.373 38.9555 368.14C38.9555 369.253 38.6655 370.22 38.0855 371.04C37.5055 371.853 36.6555 372.363 35.5355 372.57L34.8555 372.68H30.4255V378H28.6455ZM37.2155 378L34.3755 372.14L36.1355 371.6L39.2555 378H37.2155ZM30.4255 370.99H34.2755C34.4022 370.99 34.5455 370.983 34.7055 370.97C34.8722 370.957 35.0289 370.933 35.1755 370.9C35.6355 370.793 36.0089 370.6 36.2955 370.32C36.5889 370.033 36.8022 369.7 36.9355 369.32C37.0689 368.933 37.1355 368.54 37.1355 368.14C37.1355 367.74 37.0689 367.35 36.9355 366.97C36.8022 366.583 36.5889 366.247 36.2955 365.96C36.0089 365.673 35.6355 365.48 35.1755 365.38C35.0289 365.34 34.8722 365.317 34.7055 365.31C34.5455 365.297 34.4022 365.29 34.2755 365.29H30.4255V370.99ZM49.732 378.3C48.712 378.3 47.8386 378.05 47.112 377.55C46.3853 377.043 45.8286 376.36 45.442 375.5C45.0553 374.64 44.862 373.673 44.862 372.6C44.862 371.513 45.0553 370.543 45.442 369.69C45.8353 368.83 46.3986 368.15 47.132 367.65C47.8653 367.15 48.7486 366.9 49.782 366.9C50.7486 366.9 51.5686 367.143 52.242 367.63C52.922 368.11 53.402 368.777 53.682 369.63L53.382 370.15V367.2H54.972V378H53.382V375.02L53.682 375.54C53.402 376.4 52.912 377.077 52.212 377.57C51.5186 378.057 50.692 378.3 49.732 378.3ZM49.952 376.67C50.6653 376.67 51.252 376.497 51.712 376.15C52.1786 375.797 52.522 375.313 52.742 374.7C52.9686 374.08 53.082 373.377 53.082 372.59C53.082 371.79 52.9686 371.087 52.742 370.48C52.522 369.867 52.182 369.39 51.722 369.05C51.262 368.703 50.6786 368.53 49.972 368.53C49.272 368.53 48.682 368.703 48.202 369.05C47.722 369.39 47.3586 369.867 47.112 370.48C46.872 371.087 46.752 371.793 46.752 372.6C46.752 373.36 46.8686 374.047 47.102 374.66C47.3353 375.273 47.6886 375.763 48.162 376.13C48.6353 376.49 49.232 376.67 49.952 376.67ZM65.4105 363.6H67.2205L63.3805 378H61.5705L65.4105 363.6ZM5.91023 398V385.29H1.00023V383.6H12.6002V385.29H7.69023V398H5.91023ZM20.1124 398.3C18.6791 398.3 17.4624 397.983 16.4624 397.35C15.4624 396.717 14.6991 395.837 14.1724 394.71C13.6524 393.583 13.3924 392.28 13.3924 390.8C13.3924 389.32 13.6524 388.017 14.1724 386.89C14.6991 385.763 15.4624 384.883 16.4624 384.25C17.4624 383.617 18.6791 383.3 20.1124 383.3C21.7791 383.3 23.1491 383.723 24.2224 384.57C25.3024 385.417 26.0458 386.557 26.4524 387.99L24.6424 388.47C24.3491 387.397 23.8258 386.55 23.0724 385.93C22.3191 385.31 21.3324 385 20.1124 385C19.0391 385 18.1458 385.243 17.4324 385.73C16.7191 386.217 16.1824 386.897 15.8224 387.77C15.4624 388.637 15.2791 389.647 15.2724 390.8C15.2658 391.947 15.4424 392.957 15.8024 393.83C16.1624 394.697 16.7024 395.377 17.4224 395.87C18.1424 396.357 19.0391 396.6 20.1124 396.6C21.3324 396.6 22.3191 396.29 23.0724 395.67C23.8258 395.043 24.3491 394.197 24.6424 393.13L26.4524 393.61C26.0458 395.037 25.3024 396.177 24.2224 397.03C23.1491 397.877 21.7791 398.3 20.1124 398.3ZM28.6455 398V383.6H34.3355C34.4755 383.6 34.6422 383.607 34.8355 383.62C35.0289 383.627 35.2155 383.647 35.3955 383.68C36.1755 383.8 36.8289 384.067 37.3555 384.48C37.8889 384.893 38.2889 385.417 38.5555 386.05C38.8222 386.677 38.9555 387.373 38.9555 388.14C38.9555 389.253 38.6655 390.22 38.0855 391.04C37.5055 391.853 36.6555 392.363 35.5355 392.57L34.8555 392.68H30.4255V398H28.6455ZM37.2155 398L34.3755 392.14L36.1355 391.6L39.2555 398H37.2155ZM30.4255 390.99H34.2755C34.4022 390.99 34.5455 390.983 34.7055 390.97C34.8722 390.957 35.0289 390.933 35.1755 390.9C35.6355 390.793 36.0089 390.6 36.2955 390.32C36.5889 390.033 36.8022 389.7 36.9355 389.32C37.0689 388.933 37.1355 388.54 37.1355 388.14C37.1355 387.74 37.0689 387.35 36.9355 386.97C36.8022 386.583 36.5889 386.247 36.2955 385.96C36.0089 385.673 35.6355 385.48 35.1755 385.38C35.0289 385.34 34.8722 385.317 34.7055 385.31C34.5455 385.297 34.4022 385.29 34.2755 385.29H30.4255V390.99ZM48.382 401.6V398L44.462 387.2H46.272L49.292 395.73L52.322 387.2H54.122L50.202 398V401.6H48.382Z" fill="#110529"/>
<path d="M6.11 130V117.29H1.2V115.6H12.8V117.29H7.89V130H6.11ZM20.3122 130.3C18.8789 130.3 17.6622 129.983 16.6622 129.35C15.6622 128.717 14.8989 127.837 14.3722 126.71C13.8522 125.583 13.5922 124.28 13.5922 122.8C13.5922 121.32 13.8522 120.017 14.3722 118.89C14.8989 117.763 15.6622 116.883 16.6622 116.25C17.6622 115.617 18.8789 115.3 20.3122 115.3C21.9789 115.3 23.3489 115.723 24.4222 116.57C25.5022 117.417 26.2455 118.557 26.6522 119.99L24.8422 120.47C24.5489 119.397 24.0255 118.55 23.2722 117.93C22.5189 117.31 21.5322 117 20.3122 117C19.2389 117 18.3455 117.243 17.6322 117.73C16.9189 118.217 16.3822 118.897 16.0222 119.77C15.6622 120.637 15.4789 121.647 15.4722 122.8C15.4655 123.947 15.6422 124.957 16.0022 125.83C16.3622 126.697 16.9022 127.377 17.6222 127.87C18.3422 128.357 19.2389 128.6 20.3122 128.6C21.5322 128.6 22.5189 128.29 23.2722 127.67C24.0255 127.043 24.5489 126.197 24.8422 125.13L26.6522 125.61C26.2455 127.037 25.5022 128.177 24.4222 129.03C23.3489 129.877 21.9789 130.3 20.3122 130.3ZM28.8453 130V115.6H34.5353C34.6753 115.6 34.842 115.607 35.0353 115.62C35.2286 115.627 35.4153 115.647 35.5953 115.68C36.3753 115.8 37.0286 116.067 37.5553 116.48C38.0886 116.893 38.4886 117.417 38.7553 118.05C39.022 118.677 39.1553 119.373 39.1553 120.14C39.1553 121.253 38.8653 122.22 38.2853 123.04C37.7053 123.853 36.8553 124.363 35.7353 124.57L35.0553 124.68H30.6253V130H28.8453ZM37.4153 130L34.5753 124.14L36.3353 123.6L39.4553 130H37.4153ZM30.6253 122.99H34.4753C34.602 122.99 34.7453 122.983 34.9053 122.97C35.072 122.957 35.2286 122.933 35.3753 122.9C35.8353 122.793 36.2086 122.6 36.4953 122.32C36.7886 122.033 37.002 121.7 37.1353 121.32C37.2686 120.933 37.3353 120.54 37.3353 120.14C37.3353 119.74 37.2686 119.35 37.1353 118.97C37.002 118.583 36.7886 118.247 36.4953 117.96C36.2086 117.673 35.8353 117.48 35.3753 117.38C35.2286 117.34 35.072 117.317 34.9053 117.31C34.7453 117.297 34.602 117.29 34.4753 117.29H30.6253V122.99ZM45.6517 134.8V119.2C45.6517 118.953 45.6684 118.71 45.7017 118.47C45.7417 118.23 45.7984 118 45.8717 117.78C46.0517 117.24 46.3317 116.787 46.7117 116.42C47.0917 116.047 47.5451 115.767 48.0717 115.58C48.5984 115.393 49.1717 115.3 49.7917 115.3C50.6251 115.3 51.3584 115.463 51.9917 115.79C52.6317 116.11 53.1317 116.563 53.4917 117.15C53.8517 117.737 54.0317 118.427 54.0317 119.22C54.0317 119.86 53.9017 120.433 53.6417 120.94C53.3884 121.447 52.9984 121.83 52.4717 122.09C52.8251 122.177 53.1651 122.323 53.4917 122.53C53.8251 122.737 54.1251 123 54.3917 123.32C54.6584 123.64 54.8684 124.02 55.0217 124.46C55.1817 124.9 55.2617 125.397 55.2617 125.95C55.2617 126.823 55.0651 127.587 54.6717 128.24C54.2784 128.887 53.7151 129.393 52.9817 129.76C52.2551 130.12 51.3817 130.3 50.3617 130.3C49.7484 130.3 49.1951 130.217 48.7017 130.05C48.2151 129.89 47.7917 129.67 47.4317 129.39V134.8H45.6517ZM50.4417 128.61C51.0351 128.61 51.5584 128.497 52.0117 128.27C52.4651 128.037 52.8184 127.717 53.0717 127.31C53.3251 126.897 53.4517 126.417 53.4517 125.87C53.4517 124.983 53.1251 124.313 52.4717 123.86C51.8184 123.4 50.9417 123.16 49.8417 123.14V121.54C50.3017 121.493 50.7084 121.38 51.0617 121.2C51.4217 121.02 51.7017 120.767 51.9017 120.44C52.1084 120.113 52.2117 119.713 52.2117 119.24C52.2117 118.527 51.9884 117.973 51.5417 117.58C51.0951 117.187 50.5251 116.99 49.8317 116.99C49.3917 116.99 48.9717 117.09 48.5717 117.29C48.1784 117.483 47.8884 117.813 47.7017 118.28C47.6017 118.54 47.5384 118.817 47.5117 119.11C47.4851 119.397 47.4717 119.647 47.4717 119.86V125.71C47.4717 125.903 47.4817 126.123 47.5017 126.37C47.5284 126.61 47.5684 126.823 47.6217 127.01C47.7884 127.523 48.1451 127.92 48.6917 128.2C49.2384 128.473 49.8217 128.61 50.4417 128.61ZM64.8877 115.6H66.6977L62.8577 130H61.0477L64.8877 115.6ZM6.11 150V137.29H1.2V135.6H12.8V137.29H7.89V150H6.11ZM20.3122 150.3C18.8789 150.3 17.6622 149.983 16.6622 149.35C15.6622 148.717 14.8989 147.837 14.3722 146.71C13.8522 145.583 13.5922 144.28 13.5922 142.8C13.5922 141.32 13.8522 140.017 14.3722 138.89C14.8989 137.763 15.6622 136.883 16.6622 136.25C17.6622 135.617 18.8789 135.3 20.3122 135.3C21.9789 135.3 23.3489 135.723 24.4222 136.57C25.5022 137.417 26.2455 138.557 26.6522 139.99L24.8422 140.47C24.5489 139.397 24.0255 138.55 23.2722 137.93C22.5189 137.31 21.5322 137 20.3122 137C19.2389 137 18.3455 137.243 17.6322 137.73C16.9189 138.217 16.3822 138.897 16.0222 139.77C15.6622 140.637 15.4789 141.647 15.4722 142.8C15.4655 143.947 15.6422 144.957 16.0022 145.83C16.3622 146.697 16.9022 147.377 17.6222 147.87C18.3422 148.357 19.2389 148.6 20.3122 148.6C21.5322 148.6 22.5189 148.29 23.2722 147.67C24.0255 147.043 24.5489 146.197 24.8422 145.13L26.6522 145.61C26.2455 147.037 25.5022 148.177 24.4222 149.03C23.3489 149.877 21.9789 150.3 20.3122 150.3ZM28.8453 150V135.6H34.5353C34.6753 135.6 34.842 135.607 35.0353 135.62C35.2286 135.627 35.4153 135.647 35.5953 135.68C36.3753 135.8 37.0286 136.067 37.5553 136.48C38.0886 136.893 38.4886 137.417 38.7553 138.05C39.022 138.677 39.1553 139.373 39.1553 140.14C39.1553 141.253 38.8653 142.22 38.2853 143.04C37.7053 143.853 36.8553 144.363 35.7353 144.57L35.0553 144.68H30.6253V150H28.8453ZM37.4153 150L34.5753 144.14L36.3353 143.6L39.4553 150H37.4153ZM30.6253 142.99H34.4753C34.602 142.99 34.7453 142.983 34.9053 142.97C35.072 142.957 35.2286 142.933 35.3753 142.9C35.8353 142.793 36.2086 142.6 36.4953 142.32C36.7886 142.033 37.002 141.7 37.1353 141.32C37.2686 140.933 37.3353 140.54 37.3353 140.14C37.3353 139.74 37.2686 139.35 37.1353 138.97C37.002 138.583 36.7886 138.247 36.4953 137.96C36.2086 137.673 35.8353 137.48 35.3753 137.38C35.2286 137.34 35.072 137.317 34.9053 137.31C34.7453 137.297 34.602 137.29 34.4753 137.29H30.6253V142.99ZM50.2317 150.29C49.1717 150.29 48.2551 150.077 47.4817 149.65C46.7084 149.223 46.1117 148.627 45.6917 147.86C45.2717 147.087 45.0617 146.19 45.0617 145.17C45.0617 144.157 45.2684 143.263 45.6817 142.49C46.0951 141.717 46.6884 141.133 47.4617 140.74C48.2417 140.347 49.1751 140.223 50.2617 140.37V139.79C51.3417 139.79 52.2717 140.013 53.0517 140.46C53.8317 140.9 54.4284 141.517 54.8417 142.31C55.2617 143.097 55.4717 144.003 55.4717 145.03C55.4717 146.063 55.2617 146.977 54.8417 147.77C54.4217 148.557 53.8184 149.173 53.0317 149.62C52.2517 150.067 51.3184 150.29 50.2317 150.29ZM50.2717 148.6C51.3384 148.6 52.1351 148.273 52.6617 147.62C53.1951 146.96 53.4617 146.09 53.4617 145.01C53.4617 143.917 53.1917 143.053 52.6517 142.42C52.1184 141.787 51.3251 141.47 50.2717 141.47C49.2051 141.47 48.4051 141.793 47.8717 142.44C47.3451 143.087 47.0817 143.95 47.0817 145.03C47.0817 146.137 47.3551 147.01 47.9017 147.65C48.4484 148.283 49.2384 148.6 50.2717 148.6ZM51.7217 141.37C51.2417 141.223 50.7084 141.07 50.1217 140.91C49.5351 140.75 48.9751 140.547 48.4417 140.3C47.9151 140.053 47.4784 139.73 47.1317 139.33C46.7917 138.93 46.6217 138.42 46.6217 137.8C46.6217 137.453 46.6884 137.11 46.8217 136.77C46.9617 136.43 47.1851 136.137 47.4917 135.89C47.8051 135.637 48.2251 135.467 48.7517 135.38C48.9517 135.34 49.1484 135.317 49.3417 135.31C49.5417 135.303 49.7517 135.3 49.9717 135.3H53.5317V136.78H50.3717C50.1717 136.78 49.9851 136.787 49.8117 136.8C49.6384 136.807 49.4784 136.83 49.3317 136.87C49.0584 136.937 48.8317 137.053 48.6517 137.22C48.4784 137.38 48.3917 137.597 48.3917 137.87C48.3917 138.143 48.4951 138.383 48.7017 138.59C48.9151 138.79 49.2051 138.973 49.5717 139.14C49.9384 139.3 50.3617 139.46 50.8417 139.62C51.3284 139.78 51.8451 139.96 52.3917 140.16L51.7217 141.37Z" fill="#110529"/>
<defs>
<filter id="filter0_i_5813_36494" x="82.4008" y="103" width="71" height="54" filterUnits="userSpaceOnUse" color-interpolation-filters="sRGB">
<feFlood flood-opacity="0" result="BackgroundImageFix"/>
<feBlend mode="normal" in="SourceGraphic" in2="BackgroundImageFix" result="shape"/>
<feColorMatrix in="SourceAlpha" type="matrix" values="0 0 0 0 0 0 0 0 0 0 0 0 0 0 0 0 0 0 127 0" result="hardAlpha"/>
<feOffset dx="-8" dy="-4"/>
<feComposite in2="hardAlpha" operator="arithmetic" k2="-1" k3="1"/>
<feColorMatrix type="matrix" values="0 0 0 0 0.0666667 0 0 0 0 0.0196078 0 0 0 0 0.160784 0 0 0 0.16 0"/>
<feBlend mode="normal" in2="shape" result="effect1_innerShadow_5813_36494"/>
</filter>
<filter id="filter1_i_5813_36494" x="151.401" y="103" width="72" height="54" filterUnits="userSpaceOnUse" color-interpolation-filters="sRGB">
<feFlood flood-opacity="0" result="BackgroundImageFix"/>
<feBlend mode="normal" in="SourceGraphic" in2="BackgroundImageFix" result="shape"/>
<feColorMatrix in="SourceAlpha" type="matrix" values="0 0 0 0 0 0 0 0 0 0 0 0 0 0 0 0 0 0 127 0" result="hardAlpha"/>
<feOffset dx="-8" dy="-4"/>
<feComposite in2="hardAlpha" operator="arithmetic" k2="-1" k3="1"/>
<feColorMatrix type="matrix" values="0 0 0 0 0.0666667 0 0 0 0 0.0196078 0 0 0 0 0.160784 0 0 0 0.16 0"/>
<feBlend mode="normal" in2="shape" result="effect1_innerShadow_5813_36494"/>
</filter>
<filter id="filter2_i_5813_36494" x="221.401" y="103" width="398" height="54" filterUnits="userSpaceOnUse" color-interpolation-filters="sRGB">
<feFlood flood-opacity="0" result="BackgroundImageFix"/>
<feBlend mode="normal" in="SourceGraphic" in2="BackgroundImageFix" result="shape"/>
<feColorMatrix in="SourceAlpha" type="matrix" values="0 0 0 0 0 0 0 0 0 0 0 0 0 0 0 0 0 0 127 0" result="hardAlpha"/>
<feOffset dx="-8" dy="-4"/>
<feComposite in2="hardAlpha" operator="arithmetic" k2="-1" k3="1"/>
<feColorMatrix type="matrix" values="0 0 0 0 0.0666667 0 0 0 0 0.0196078 0 0 0 0 0.160784 0 0 0 0.16 0"/>
<feBlend mode="normal" in2="shape" result="effect1_innerShadow_5813_36494"/>
</filter>
<filter id="filter3_i_5813_36494" x="617.401" y="103" width="32" height="54" filterUnits="userSpaceOnUse" color-interpolation-filters="sRGB">
<feFlood flood-opacity="0" result="BackgroundImageFix"/>
<feBlend mode="normal" in="SourceGraphic" in2="BackgroundImageFix" result="shape"/>
<feColorMatrix in="SourceAlpha" type="matrix" values="0 0 0 0 0 0 0 0 0 0 0 0 0 0 0 0 0 0 127 0" result="hardAlpha"/>
<feOffset dx="-8" dy="-4"/>
<feComposite in2="hardAlpha" operator="arithmetic" k2="-1" k3="1"/>
<feColorMatrix type="matrix" values="0 0 0 0 0.0666667 0 0 0 0 0.0196078 0 0 0 0 0.160784 0 0 0 0.16 0"/>
<feBlend mode="normal" in2="shape" result="effect1_innerShadow_5813_36494"/>
</filter>
<filter id="filter4_i_5813_36494" x="683.401" y="103" width="32" height="54" filterUnits="userSpaceOnUse" color-interpolation-filters="sRGB">
<feFlood flood-opacity="0" result="BackgroundImageFix"/>
<feBlend mode="normal" in="SourceGraphic" in2="BackgroundImageFix" result="shape"/>
<feColorMatrix in="SourceAlpha" type="matrix" values="0 0 0 0 0 0 0 0 0 0 0 0 0 0 0 0 0 0 127 0" result="hardAlpha"/>
<feOffset dx="-8" dy="-4"/>
<feComposite in2="hardAlpha" operator="arithmetic" k2="-1" k3="1"/>
<feColorMatrix type="matrix" values="0 0 0 0 0.0666667 0 0 0 0 0.0196078 0 0 0 0 0.160784 0 0 0 0.16 0"/>
<feBlend mode="normal" in2="shape" result="effect1_innerShadow_5813_36494"/>
</filter>
<filter id="filter5_i_5813_36494" x="647.401" y="103" width="38" height="54" filterUnits="userSpaceOnUse" color-interpolation-filters="sRGB">
<feFlood flood-opacity="0" result="BackgroundImageFix"/>
<feBlend mode="normal" in="SourceGraphic" in2="BackgroundImageFix" result="shape"/>
<feColorMatrix in="SourceAlpha" type="matrix" values="0 0 0 0 0 0 0 0 0 0 0 0 0 0 0 0 0 0 127 0" result="hardAlpha"/>
<feOffset dx="-8" dy="-4"/>
<feComposite in2="hardAlpha" operator="arithmetic" k2="-1" k3="1"/>
<feColorMatrix type="matrix" values="0 0 0 0 0.0666667 0 0 0 0 0.0196078 0 0 0 0 0.160784 0 0 0 0.16 0"/>
<feBlend mode="normal" in2="shape" result="effect1_innerShadow_5813_36494"/>
</filter>
<filter id="filter6_i_5813_36494" x="713.401" y="103" width="146" height="54" filterUnits="userSpaceOnUse" color-interpolation-filters="sRGB">
<feFlood flood-opacity="0" result="BackgroundImageFix"/>
<feBlend mode="normal" in="SourceGraphic" in2="BackgroundImageFix" result="shape"/>
<feColorMatrix in="SourceAlpha" type="matrix" values="0 0 0 0 0 0 0 0 0 0 0 0 0 0 0 0 0 0 127 0" result="hardAlpha"/>
<feOffset dx="-8" dy="-4"/>
<feComposite in2="hardAlpha" operator="arithmetic" k2="-1" k3="1"/>
<feColorMatrix type="matrix" values="0 0 0 0 0.0666667 0 0 0 0 0.0196078 0 0 0 0 0.160784 0 0 0 0.16 0"/>
<feBlend mode="normal" in2="shape" result="effect1_innerShadow_5813_36494"/>
</filter>
<filter id="filter7_i_5813_36494" x="857.401" y="103" width="75.0309" height="54" filterUnits="userSpaceOnUse" color-interpolation-filters="sRGB">
<feFlood flood-opacity="0" result="BackgroundImageFix"/>
<feBlend mode="normal" in="SourceGraphic" in2="BackgroundImageFix" result="shape"/>
<feColorMatrix in="SourceAlpha" type="matrix" values="0 0 0 0 0 0 0 0 0 0 0 0 0 0 0 0 0 0 127 0" result="hardAlpha"/>
<feOffset dx="-8" dy="-4"/>
<feComposite in2="hardAlpha" operator="arithmetic" k2="-1" k3="1"/>
<feColorMatrix type="matrix" values="0 0 0 0 0.0666667 0 0 0 0 0.0196078 0 0 0 0 0.160784 0 0 0 0.16 0"/>
<feBlend mode="normal" in2="shape" result="effect1_innerShadow_5813_36494"/>
</filter>
<filter id="filter8_i_5813_36494" x="82.4008" y="353" width="71" height="54" filterUnits="userSpaceOnUse" color-interpolation-filters="sRGB">
<feFlood flood-opacity="0" result="BackgroundImageFix"/>
<feBlend mode="normal" in="SourceGraphic" in2="BackgroundImageFix" result="shape"/>
<feColorMatrix in="SourceAlpha" type="matrix" values="0 0 0 0 0 0 0 0 0 0 0 0 0 0 0 0 0 0 127 0" result="hardAlpha"/>
<feOffset dx="-8" dy="-4"/>
<feComposite in2="hardAlpha" operator="arithmetic" k2="-1" k3="1"/>
<feColorMatrix type="matrix" values="0 0 0 0 0.0666667 0 0 0 0 0.0196078 0 0 0 0 0.160784 0 0 0 0.16 0"/>
<feBlend mode="normal" in2="shape" result="effect1_innerShadow_5813_36494"/>
</filter>
<filter id="filter9_i_5813_36494" x="151.401" y="353" width="72" height="54" filterUnits="userSpaceOnUse" color-interpolation-filters="sRGB">
<feFlood flood-opacity="0" result="BackgroundImageFix"/>
<feBlend mode="normal" in="SourceGraphic" in2="BackgroundImageFix" result="shape"/>
<feColorMatrix in="SourceAlpha" type="matrix" values="0 0 0 0 0 0 0 0 0 0 0 0 0 0 0 0 0 0 127 0" result="hardAlpha"/>
<feOffset dx="-8" dy="-4"/>
<feComposite in2="hardAlpha" operator="arithmetic" k2="-1" k3="1"/>
<feColorMatrix type="matrix" values="0 0 0 0 0.0666667 0 0 0 0 0.0196078 0 0 0 0 0.160784 0 0 0 0.16 0"/>
<feBlend mode="normal" in2="shape" result="effect1_innerShadow_5813_36494"/>
</filter>
<filter id="filter10_i_5813_36494" x="221.401" y="353" width="398" height="54" filterUnits="userSpaceOnUse" color-interpolation-filters="sRGB">
<feFlood flood-opacity="0" result="BackgroundImageFix"/>
<feBlend mode="normal" in="SourceGraphic" in2="BackgroundImageFix" result="shape"/>
<feColorMatrix in="SourceAlpha" type="matrix" values="0 0 0 0 0 0 0 0 0 0 0 0 0 0 0 0 0 0 127 0" result="hardAlpha"/>
<feOffset dx="-8" dy="-4"/>
<feComposite in2="hardAlpha" operator="arithmetic" k2="-1" k3="1"/>
<feColorMatrix type="matrix" values="0 0 0 0 0.0666667 0 0 0 0 0.0196078 0 0 0 0 0.160784 0 0 0 0.16 0"/>
<feBlend mode="normal" in2="shape" result="effect1_innerShadow_5813_36494"/>
</filter>
<filter id="filter11_i_5813_36494" x="617.401" y="353" width="32" height="54" filterUnits="userSpaceOnUse" color-interpolation-filters="sRGB">
<feFlood flood-opacity="0" result="BackgroundImageFix"/>
<feBlend mode="normal" in="SourceGraphic" in2="BackgroundImageFix" result="shape"/>
<feColorMatrix in="SourceAlpha" type="matrix" values="0 0 0 0 0 0 0 0 0 0 0 0 0 0 0 0 0 0 127 0" result="hardAlpha"/>
<feOffset dx="-8" dy="-4"/>
<feComposite in2="hardAlpha" operator="arithmetic" k2="-1" k3="1"/>
<feColorMatrix type="matrix" values="0 0 0 0 0.0666667 0 0 0 0 0.0196078 0 0 0 0 0.160784 0 0 0 0.16 0"/>
<feBlend mode="normal" in2="shape" result="effect1_innerShadow_5813_36494"/>
</filter>
<filter id="filter12_i_5813_36494" x="647.401" y="353" width="146" height="54" filterUnits="userSpaceOnUse" color-interpolation-filters="sRGB">
<feFlood flood-opacity="0" result="BackgroundImageFix"/>
<feBlend mode="normal" in="SourceGraphic" in2="BackgroundImageFix" result="shape"/>
<feColorMatrix in="SourceAlpha" type="matrix" values="0 0 0 0 0 0 0 0 0 0 0 0 0 0 0 0 0 0 127 0" result="hardAlpha"/>
<feOffset dx="-8" dy="-4"/>
<feComposite in2="hardAlpha" operator="arithmetic" k2="-1" k3="1"/>
<feColorMatrix type="matrix" values="0 0 0 0 0.0666667 0 0 0 0 0.0196078 0 0 0 0 0.160784 0 0 0 0.16 0"/>
<feBlend mode="normal" in2="shape" result="effect1_innerShadow_5813_36494"/>
</filter>
<filter id="filter13_i_5813_36494" x="791.401" y="353" width="75.0309" height="54" filterUnits="userSpaceOnUse" color-interpolation-filters="sRGB">
<feFlood flood-opacity="0" result="BackgroundImageFix"/>
<feBlend mode="normal" in="SourceGraphic" in2="BackgroundImageFix" result="shape"/>
<feColorMatrix in="SourceAlpha" type="matrix" values="0 0 0 0 0 0 0 0 0 0 0 0 0 0 0 0 0 0 127 0" result="hardAlpha"/>
<feOffset dx="-8" dy="-4"/>
<feComposite in2="hardAlpha" operator="arithmetic" k2="-1" k3="1"/>
<feColorMatrix type="matrix" values="0 0 0 0 0.0666667 0 0 0 0 0.0196078 0 0 0 0 0.160784 0 0 0 0.16 0"/>
<feBlend mode="normal" in2="shape" result="effect1_innerShadow_5813_36494"/>
</filter>
</defs>
</svg>
