<svg width="960" height="362" viewBox="0 0 960 362" fill="none" xmlns="http://www.w3.org/2000/svg">
    <rect width="960" height="362" fill="white"/>
    <rect x="130" y="62" width="110" height="12" rx="2" fill="#99E099"/>
    <rect x="96" y="62" width="32" height="12" rx="2" fill="#42B842"/>
    <rect x="130" y="86" width="110" height="12" rx="2" fill="#C1ADFF"/>
    <rect x="252" y="86" width="110" height="12" rx="2" fill="#C1ADFF"/>
    <rect x="96" y="86" width="32" height="12" rx="2" fill="#845CFF"/>
    <rect x="130" y="110" width="110" height="12" rx="2" fill="#C1ADFF"/>
    <rect x="252" y="110" width="110" height="12" rx="2" fill="#C1ADFF"/>
    <rect x="96" y="110" width="32" height="12" rx="2" fill="#27C2C2"/>
    <rect x="130" y="134" width="110" height="12" rx="2" fill="#FFCB8F"/>
    <rect x="130" y="134" width="110" height="12" rx="2" fill="#FFCB8F"/>
    <rect x="96" y="134" width="32" height="12" rx="2" fill="#FF9429"/>
    <rect x="111" y="132" width="6" height="16" fill="#F05670" stroke="white" stroke-width="2"/>
    <rect x="252" y="134" width="110" height="12" rx="2" fill="#FFCB8F"/>
    <rect x="130" y="158" width="110" height="12" rx="2" fill="#99E099"/>
    <rect x="252" y="158" width="110" height="12" rx="2" fill="#99E099"/>
    <rect x="96" y="158" width="32" height="12" rx="2" fill="#42B842"/>
    <rect x="130" y="182" width="110" height="12" rx="2" fill="#C1ADFF"/>
    <rect x="96" y="182" width="32" height="12" rx="2" fill="#27C2C2"/>
    <rect x="117" y="180" width="6" height="16" fill="#F05670" stroke="white" stroke-width="2"/>
    <rect x="252" y="182" width="110" height="12" rx="2" fill="#C1ADFF"/>
    <rect x="130" y="206" width="110" height="12" rx="2" fill="#C1ADFF"/>
    <rect x="252" y="206" width="110" height="12" rx="2" fill="#C1ADFF"/>
    <rect x="96" y="206" width="32" height="12" rx="2" fill="#27C2C2"/>
    <rect x="130" y="230" width="110" height="12" rx="2" fill="#FFCB8F"/>
    <rect x="252" y="230" width="110" height="12" rx="2" fill="#FFCB8F"/>
    <rect x="96" y="230" width="32" height="12" rx="2" fill="#E653E6"/>
    <rect x="130" y="254" width="110" height="12" rx="2" fill="#C1ADFF"/>
    <rect x="130" y="254" width="110" height="12" rx="2" fill="#C1ADFF"/>
    <rect x="96" y="254" width="32" height="12" rx="2" fill="#2D93FA"/>
    <rect x="102" y="252" width="6" height="16" fill="#F05670" stroke="white" stroke-width="2"/>
    <rect x="252" y="254" width="110" height="12" rx="2" fill="#C1ADFF"/>
    <rect x="130" y="278" width="110" height="12" rx="2" fill="#FFCB8F"/>
    <rect x="252" y="278" width="110" height="12" rx="2" fill="#FFCB8F"/>
    <rect x="96" y="278" width="32" height="12" rx="2" fill="#FF9429"/>
    <rect x="130" y="302" width="110" height="12" rx="2" fill="#C1ADFF"/>
    <rect x="252" y="302" width="110" height="12" rx="2" fill="#C1ADFF"/>
    <rect x="96" y="302" width="32" height="12" rx="2" fill="#845CFF"/>
    <rect x="130" y="326" width="110" height="12" rx="2" fill="#FFCB8F"/>
    <rect x="252" y="326" width="110" height="12" rx="2" fill="#FFCB8F"/>
    <rect x="96" y="326" width="32" height="12" rx="2" fill="#FF9429"/>
    <path d="M102.742 40.24C101.851 40.24 101.065 40.056 100.382 39.688C99.6995 39.32 99.1635 38.8053 98.7741 38.144C98.3901 37.4773 98.1981 36.696 98.1981 35.8V28.488L99.6381 28.48V35.68C99.6381 36.224 99.7288 36.6987 99.9101 37.104C100.097 37.504 100.342 37.8373 100.646 38.104C100.95 38.3707 101.283 38.5707 101.646 38.704C102.014 38.832 102.379 38.896 102.742 38.896C103.11 38.896 103.478 38.8293 103.846 38.696C104.214 38.5627 104.547 38.3653 104.846 38.104C105.15 37.8373 105.393 37.5013 105.574 37.096C105.755 36.6907 105.846 36.2187 105.846 35.68V28.48H107.286V35.8C107.286 36.6907 107.091 37.4693 106.702 38.136C106.318 38.8027 105.785 39.32 105.102 39.688C104.419 40.056 103.633 40.24 102.742 40.24ZM109.526 40V28.48H110.822L115.174 37.656L119.502 28.48H120.814V39.992H119.462V31.608L115.55 40H114.79L110.878 31.608V40H109.526ZM123.218 40V28.48H124.642V40H123.218Z" fill="#110529"/>
    <path d="M167.245 40V28.48H171.797C171.909 28.48 172.042 28.4853 172.197 28.496C172.352 28.5013 172.501 28.5173 172.645 28.544C173.269 28.64 173.792 28.8533 174.213 29.184C174.64 29.5147 174.96 29.9333 175.173 30.44C175.386 30.9413 175.493 31.4987 175.493 32.112C175.493 33.0027 175.261 33.776 174.797 34.432C174.333 35.0827 173.653 35.4907 172.757 35.656L172.213 35.744H168.669V40H167.245ZM174.101 40L171.829 35.312L173.237 34.88L175.733 40H174.101ZM168.669 34.392H171.749C171.85 34.392 171.965 34.3867 172.093 34.376C172.226 34.3653 172.352 34.3467 172.469 34.32C172.837 34.2347 173.136 34.08 173.365 33.856C173.6 33.6267 173.77 33.36 173.877 33.056C173.984 32.7467 174.037 32.432 174.037 32.112C174.037 31.792 173.984 31.48 173.877 31.176C173.77 30.8667 173.6 30.5973 173.365 30.368C173.136 30.1387 172.837 29.984 172.469 29.904C172.352 29.872 172.226 29.8533 172.093 29.848C171.965 29.8373 171.85 29.832 171.749 29.832H168.669V34.392ZM179.503 40V30.056L177.335 31.368V29.776L179.503 28.48H180.951V40H179.503Z" fill="#110529"/>
    <path d="M301.37 40V28.48H305.922C306.034 28.48 306.167 28.4853 306.322 28.496C306.477 28.5013 306.626 28.5173 306.77 28.544C307.394 28.64 307.917 28.8533 308.338 29.184C308.765 29.5147 309.085 29.9333 309.298 30.44C309.511 30.9413 309.618 31.4987 309.618 32.112C309.618 33.0027 309.386 33.776 308.922 34.432C308.458 35.0827 307.778 35.4907 306.882 35.656L306.338 35.744H302.794V40H301.37ZM308.226 40L305.954 35.312L307.362 34.88L309.858 40H308.226ZM302.794 34.392H305.874C305.975 34.392 306.09 34.3867 306.218 34.376C306.351 34.3653 306.477 34.3467 306.594 34.32C306.962 34.2347 307.261 34.08 307.49 33.856C307.725 33.6267 307.895 33.36 308.002 33.056C308.109 32.7467 308.162 32.432 308.162 32.112C308.162 31.792 308.109 31.48 308.002 31.176C307.895 30.8667 307.725 30.5973 307.49 30.368C307.261 30.1387 306.962 29.984 306.594 29.904C306.477 29.872 306.351 29.8533 306.218 29.848C306.09 29.8373 305.975 29.832 305.874 29.832H302.794V34.392ZM311.3 39.992L311.308 38.712L316.42 34.112C316.847 33.728 317.132 33.3653 317.276 33.024C317.425 32.6773 317.5 32.3227 317.5 31.96C317.5 31.5173 317.399 31.1173 317.196 30.76C316.993 30.4027 316.716 30.12 316.364 29.912C316.017 29.704 315.623 29.6 315.18 29.6C314.721 29.6 314.313 29.7093 313.956 29.928C313.599 30.1413 313.316 30.4267 313.108 30.784C312.905 31.1413 312.807 31.5307 312.812 31.952H311.356C311.356 31.2267 311.524 30.5867 311.86 30.032C312.196 29.472 312.652 29.0347 313.228 28.72C313.809 28.4 314.468 28.24 315.204 28.24C315.919 28.24 316.559 28.4053 317.124 28.736C317.689 29.0613 318.135 29.5067 318.46 30.072C318.791 30.632 318.956 31.2667 318.956 31.976C318.956 32.4773 318.892 32.912 318.764 33.28C318.641 33.648 318.449 33.9893 318.188 34.304C317.927 34.6133 317.599 34.944 317.204 35.296L312.956 39.112L312.772 38.632H318.956V39.992H311.3Z" fill="#110529"/>
    <path d="M491.636 188L492.376 188.673L492.988 188L492.376 187.327L491.636 188ZM485.104 179.327L484.431 178.587L482.951 179.933L483.624 180.673L485.104 179.327ZM483.624 195.327L482.951 196.067L484.431 197.413L485.104 196.673L483.624 195.327ZM463.455 189H491.636V187H463.455V189ZM492.376 187.327L485.104 179.327L483.624 180.673L490.896 188.673L492.376 187.327ZM490.896 187.327L483.624 195.327L485.104 196.673L492.376 188.673L490.896 187.327Z" fill="#110529"/>
    <path d="M431.416 224.24C433.2 224.24 434.504 223.368 435.112 221.752L433.672 221.376C433.28 222.36 432.536 222.888 431.416 222.888C429.696 222.888 428.824 221.608 428.808 219.68C428.824 217.808 429.64 216.472 431.416 216.472C432.464 216.472 433.336 217.056 433.704 218.056L435.112 217.632C434.656 216.08 433.248 215.12 431.432 215.12C428.832 215.12 427.32 216.984 427.296 219.68C427.32 222.328 428.784 224.24 431.416 224.24ZM440.191 224.24C442.759 224.24 444.359 222.384 444.359 219.672C444.359 217 442.783 215.12 440.191 215.12C437.655 215.12 436.031 216.96 436.031 219.672C436.031 222.352 437.607 224.24 440.191 224.24ZM437.543 219.672C437.543 217.784 438.383 216.472 440.191 216.472C441.959 216.472 442.847 217.728 442.847 219.672C442.847 221.576 441.975 222.888 440.191 222.888C438.447 222.888 437.543 221.624 437.543 219.672ZM446.12 224H447.552V219.664C447.552 218.64 447.76 217.624 448.6 217.024C449.2 216.584 449.976 216.544 450.576 216.696V215.36C449.808 215.192 448.792 215.352 448.128 215.888C447.84 216.096 447.584 216.392 447.392 216.728V215.36H446.12V224ZM452.089 224H453.521V219.664C453.521 218.64 453.729 217.624 454.569 217.024C455.169 216.584 455.945 216.544 456.545 216.696V215.36C455.777 215.192 454.761 215.352 454.097 215.888C453.809 216.096 453.553 216.392 453.361 216.728V215.36H452.089V224ZM461.645 224.24C463.317 224.24 464.749 223.368 465.429 221.84L464.061 221.368C463.581 222.352 462.717 222.888 461.581 222.888C459.989 222.888 459.061 221.872 458.949 220.08H465.573C465.701 217.008 464.181 215.12 461.581 215.12C459.069 215.12 457.421 216.904 457.421 219.736C457.421 222.44 459.093 224.24 461.645 224.24ZM458.973 218.936C459.173 217.296 460.077 216.4 461.629 216.4C463.093 216.4 463.917 217.24 464.093 218.936H458.973ZM470.994 224.24C472.778 224.24 474.082 223.368 474.69 221.752L473.25 221.376C472.858 222.36 472.114 222.888 470.994 222.888C469.274 222.888 468.402 221.608 468.386 219.68C468.402 217.808 469.218 216.472 470.994 216.472C472.042 216.472 472.914 217.056 473.282 218.056L474.69 217.632C474.234 216.08 472.826 215.12 471.01 215.12C468.41 215.12 466.898 216.984 466.874 219.68C466.898 222.328 468.362 224.24 470.994 224.24ZM481.147 224V222.776C479.963 222.96 479.099 222.912 478.715 222.224C478.507 221.864 478.539 221.384 478.539 220.672V216.536H481.147V215.36H478.539V212.96H477.115V215.36H475.363V216.536H477.115V220.736C477.115 221.632 477.067 222.288 477.411 222.96C478.011 224.136 479.603 224.312 481.147 224ZM489.848 224.24C490.432 224.24 491.008 224.184 491.56 223.976C492.136 223.8 492.744 223.44 493.168 222.96L494.384 224.112L495.312 223.12L493.848 221.768C493.944 221.424 494 220.896 494 220.136V218.264H492.696L492.704 219.856C492.704 220.12 492.696 220.4 492.664 220.664L489.272 217.512C488.968 217.24 488.672 216.976 488.456 216.736C488.08 216.304 487.864 215.984 487.864 215.368C487.864 214.664 488.16 214.144 488.76 213.848C489.096 213.688 489.48 213.608 489.888 213.608C490.384 213.608 490.904 213.712 491.288 214.024C491.512 214.2 491.688 214.432 491.792 214.712L493.184 214.352C493.024 213.88 492.728 213.416 492.328 213.072C491.712 212.504 490.8 212.256 489.888 212.256C489.336 212.256 488.76 212.336 488.216 212.568C487.088 213.04 486.408 214.128 486.408 215.368C486.408 216.352 486.8 216.952 487.544 217.736C487.184 217.912 486.824 218.144 486.552 218.48C486.016 219.112 485.776 219.96 485.784 220.792C485.816 221.664 486.08 222.448 486.664 223.08C487.408 223.88 488.56 224.24 489.848 224.24ZM487.24 220.72C487.232 220.208 487.368 219.744 487.648 219.392C487.888 219.104 488.232 218.888 488.624 218.76L492.136 221.976C491.952 222.168 491.704 222.4 491.2 222.64C490.808 222.832 490.392 222.872 489.88 222.872C489.088 222.872 488.2 222.64 487.736 222.088C487.424 221.736 487.248 221.272 487.24 220.72ZM503.087 224.232C505.239 224.232 506.543 223.224 506.543 221.552C506.543 220.216 505.799 219.576 503.519 218.992C501.487 218.48 501.047 218.208 501.047 217.576C501.047 216.84 501.815 216.36 502.935 216.392C504.111 216.424 504.911 216.992 505.055 217.912L506.511 217.648C506.327 216.128 504.903 215.12 502.935 215.12C500.943 215.12 499.615 216.128 499.615 217.648C499.615 218.888 500.343 219.48 502.631 220.088C504.743 220.656 505.071 220.864 505.071 221.592C505.071 222.44 504.351 222.96 503.175 222.96C501.927 222.96 501.031 222.376 500.799 221.432L499.343 221.664C499.639 223.288 501.023 224.232 503.087 224.232ZM511.988 224.24C514.556 224.24 516.156 222.384 516.156 219.672C516.156 217 514.58 215.12 511.988 215.12C509.452 215.12 507.828 216.96 507.828 219.672C507.828 222.352 509.404 224.24 511.988 224.24ZM509.34 219.672C509.34 217.784 510.18 216.472 511.988 216.472C513.756 216.472 514.644 217.728 514.644 219.672C514.644 221.576 513.772 222.888 511.988 222.888C510.244 222.888 509.34 221.624 509.34 219.672ZM517.917 224H519.349V219.664C519.349 218.64 519.557 217.624 520.397 217.024C520.997 216.584 521.773 216.544 522.373 216.696V215.36C521.605 215.192 520.589 215.352 519.925 215.888C519.637 216.096 519.381 216.392 519.189 216.728V215.36H517.917V224ZM528.71 224V222.776C527.526 222.96 526.662 222.912 526.278 222.224C526.07 221.864 526.102 221.384 526.102 220.672V216.536H528.71V215.36H526.102V212.96H524.678V215.36H522.926V216.536H524.678V220.736C524.678 221.632 524.63 222.288 524.974 222.96C525.574 224.136 527.166 224.312 528.71 224Z" fill="#110529"/>
    <rect x="252" y="62" width="110" height="12" rx="2" fill="#99E099"/>
    <path d="M239.5 50L240.207 50.7071L240.914 50L240.207 49.2929L239.5 50ZM236.207 45.2929L235.5 44.5858L234.086 46L234.793 46.7071L236.207 45.2929ZM234.793 53.2929L234.086 54L235.5 55.4142L236.207 54.7071L234.793 53.2929ZM224 51H239.5V49H224V51ZM240.207 49.2929L236.207 45.2929L234.793 46.7071L238.793 50.7071L240.207 49.2929ZM238.793 49.2929L234.793 53.2929L236.207 54.7071L240.207 50.7071L238.793 49.2929Z" fill="#110529"/>
    <path d="M238 50H96" stroke="#110529" stroke-width="2"/>
    <path d="M252.5 50L251.793 49.2929L251.086 50L251.793 50.7071L252.5 50ZM255.793 54.7071L256.5 55.4142L257.914 54L257.207 53.2929L255.793 54.7071ZM257.207 46.7071L257.914 46L256.5 44.5858L255.793 45.2929L257.207 46.7071ZM268 49H252.5V51H268V49ZM251.793 50.7071L255.793 54.7071L257.207 53.2929L253.207 49.2929L251.793 50.7071ZM253.207 50.7071L257.207 46.7071L255.793 45.2929L251.793 49.2929L253.207 50.7071Z" fill="#110529"/>
    <path d="M362 50L253 50" stroke="#110529" stroke-width="2"/>
    <rect x="628" y="62" width="110" height="12" rx="2" fill="#99E099"/>
    <rect x="594" y="62" width="32" height="12" rx="2" fill="#42B842"/>
    <rect x="628" y="86" width="110" height="12" rx="2" fill="#99E099"/>
    <rect x="750" y="86" width="110" height="12" rx="2" fill="#99E099"/>
    <rect x="594" y="86" width="32" height="12" rx="2" fill="#42B842"/>
    <rect x="628" y="110" width="110" height="12" rx="2" fill="#C1ADFF"/>
    <rect x="750" y="110" width="110" height="12" rx="2" fill="#C1ADFF"/>
    <rect x="594" y="110" width="32" height="12" rx="2" fill="#845CFF"/>
    <rect x="628" y="134" width="110" height="12" rx="2" fill="#C1ADFF"/>
    <rect x="750" y="134" width="110" height="12" rx="2" fill="#C1ADFF"/>
    <rect x="594" y="134" width="32" height="12" rx="2" fill="#845CFF"/>
    <rect x="628" y="158" width="110" height="12" rx="2" fill="#C1ADFF"/>
    <rect x="750" y="158" width="110" height="12" rx="2" fill="#C1ADFF"/>
    <rect x="594" y="158" width="32" height="12" rx="2" fill="#27C2C2"/>
    <rect x="628" y="182" width="110" height="12" rx="2" fill="#C1ADFF"/>
    <rect x="594" y="182" width="32" height="12" rx="2" fill="#27C2C2"/>
    <rect x="750" y="182" width="110" height="12" rx="2" fill="#C1ADFF"/>
    <rect x="628" y="206" width="110" height="12" rx="2" fill="#C1ADFF"/>
    <rect x="750" y="206" width="110" height="12" rx="2" fill="#C1ADFF"/>
    <rect x="594" y="206" width="32" height="12" rx="2" fill="#27C2C2"/>
    <rect x="628" y="230" width="110" height="12" rx="2" fill="#FFCB8F"/>
    <rect x="628" y="230" width="110" height="12" rx="2" fill="#FFCB8F"/>
    <rect x="594" y="230" width="32" height="12" rx="2" fill="#FF9429"/>
    <rect x="750" y="230" width="110" height="12" rx="2" fill="#FFCB8F"/>
    <rect x="628" y="254" width="110" height="12" rx="2" fill="#FFCB8F"/>
    <rect x="750" y="254" width="110" height="12" rx="2" fill="#FFCB8F"/>
    <rect x="594" y="254" width="32" height="12" rx="2" fill="#FF9429"/>
    <rect x="628" y="278" width="110" height="12" rx="2" fill="#FFCB8F"/>
    <rect x="750" y="278" width="110" height="12" rx="2" fill="#FFCB8F"/>
    <rect x="594" y="278" width="32" height="12" rx="2" fill="#FF9429"/>
    <rect x="628" y="302" width="110" height="12" rx="2" fill="#C1ADFF"/>
    <rect x="628" y="302" width="110" height="12" rx="2" fill="#C1ADFF"/>
    <rect x="594" y="302" width="32" height="12" rx="2" fill="#2D93FA"/>
    <rect x="750" y="302" width="110" height="12" rx="2" fill="#C1ADFF"/>
    <rect x="628" y="326" width="110" height="12" rx="2" fill="#FFCB8F"/>
    <rect x="750" y="326" width="110" height="12" rx="2" fill="#FFCB8F"/>
    <rect x="594" y="326" width="32" height="12" rx="2" fill="#E653E6"/>
    <path d="M600.742 40.24C599.851 40.24 599.065 40.056 598.382 39.688C597.699 39.32 597.163 38.8053 596.774 38.144C596.39 37.4773 596.198 36.696 596.198 35.8V28.488L597.638 28.48V35.68C597.638 36.224 597.729 36.6987 597.91 37.104C598.097 37.504 598.342 37.8373 598.646 38.104C598.95 38.3707 599.283 38.5707 599.646 38.704C600.014 38.832 600.379 38.896 600.742 38.896C601.11 38.896 601.478 38.8293 601.846 38.696C602.214 38.5627 602.547 38.3653 602.846 38.104C603.15 37.8373 603.393 37.5013 603.574 37.096C603.755 36.6907 603.846 36.2187 603.846 35.68V28.48H605.286V35.8C605.286 36.6907 605.091 37.4693 604.702 38.136C604.318 38.8027 603.785 39.32 603.102 39.688C602.419 40.056 601.633 40.24 600.742 40.24ZM607.526 40V28.48H608.822L613.174 37.656L617.502 28.48H618.814V39.992H617.462V31.608L613.55 40H612.79L608.878 31.608V40H607.526ZM621.218 40V28.48H622.642V40H621.218Z" fill="#110529"/>
    <path d="M665.245 40V28.48H669.797C669.909 28.48 670.042 28.4853 670.197 28.496C670.352 28.5013 670.501 28.5173 670.645 28.544C671.269 28.64 671.792 28.8533 672.213 29.184C672.64 29.5147 672.96 29.9333 673.173 30.44C673.386 30.9413 673.493 31.4987 673.493 32.112C673.493 33.0027 673.261 33.776 672.797 34.432C672.333 35.0827 671.653 35.4907 670.757 35.656L670.213 35.744H666.669V40H665.245ZM672.101 40L669.829 35.312L671.237 34.88L673.733 40H672.101ZM666.669 34.392H669.749C669.85 34.392 669.965 34.3867 670.093 34.376C670.226 34.3653 670.352 34.3467 670.469 34.32C670.837 34.2347 671.136 34.08 671.365 33.856C671.6 33.6267 671.77 33.36 671.877 33.056C671.984 32.7467 672.037 32.432 672.037 32.112C672.037 31.792 671.984 31.48 671.877 31.176C671.77 30.8667 671.6 30.5973 671.365 30.368C671.136 30.1387 670.837 29.984 670.469 29.904C670.352 29.872 670.226 29.8533 670.093 29.848C669.965 29.8373 669.85 29.832 669.749 29.832H666.669V34.392ZM677.503 40V30.056L675.335 31.368V29.776L677.503 28.48H678.951V40H677.503Z" fill="#110529"/>
    <path d="M799.37 40V28.48H803.922C804.034 28.48 804.167 28.4853 804.322 28.496C804.477 28.5013 804.626 28.5173 804.77 28.544C805.394 28.64 805.917 28.8533 806.338 29.184C806.765 29.5147 807.085 29.9333 807.298 30.44C807.511 30.9413 807.618 31.4987 807.618 32.112C807.618 33.0027 807.386 33.776 806.922 34.432C806.458 35.0827 805.778 35.4907 804.882 35.656L804.338 35.744H800.794V40H799.37ZM806.226 40L803.954 35.312L805.362 34.88L807.858 40H806.226ZM800.794 34.392H803.874C803.975 34.392 804.09 34.3867 804.218 34.376C804.351 34.3653 804.477 34.3467 804.594 34.32C804.962 34.2347 805.261 34.08 805.49 33.856C805.725 33.6267 805.895 33.36 806.002 33.056C806.109 32.7467 806.162 32.432 806.162 32.112C806.162 31.792 806.109 31.48 806.002 31.176C805.895 30.8667 805.725 30.5973 805.49 30.368C805.261 30.1387 804.962 29.984 804.594 29.904C804.477 29.872 804.351 29.8533 804.218 29.848C804.09 29.8373 803.975 29.832 803.874 29.832H800.794V34.392ZM809.3 39.992L809.308 38.712L814.42 34.112C814.847 33.728 815.132 33.3653 815.276 33.024C815.425 32.6773 815.5 32.3227 815.5 31.96C815.5 31.5173 815.399 31.1173 815.196 30.76C814.993 30.4027 814.716 30.12 814.364 29.912C814.017 29.704 813.623 29.6 813.18 29.6C812.721 29.6 812.313 29.7093 811.956 29.928C811.599 30.1413 811.316 30.4267 811.108 30.784C810.905 31.1413 810.807 31.5307 810.812 31.952H809.356C809.356 31.2267 809.524 30.5867 809.86 30.032C810.196 29.472 810.652 29.0347 811.228 28.72C811.809 28.4 812.468 28.24 813.204 28.24C813.919 28.24 814.559 28.4053 815.124 28.736C815.689 29.0613 816.135 29.5067 816.46 30.072C816.791 30.632 816.956 31.2667 816.956 31.976C816.956 32.4773 816.892 32.912 816.764 33.28C816.641 33.648 816.449 33.9893 816.188 34.304C815.927 34.6133 815.599 34.944 815.204 35.296L810.956 39.112L810.772 38.632H816.956V39.992H809.3Z" fill="#110529"/>
    <rect x="750" y="62" width="110" height="12" rx="2" fill="#99E099"/>
    <path d="M737.5 50L738.207 50.7071L738.914 50L738.207 49.2929L737.5 50ZM734.207 45.2929L733.5 44.5858L732.086 46L732.793 46.7071L734.207 45.2929ZM732.793 53.2929L732.086 54L733.5 55.4142L734.207 54.7071L732.793 53.2929ZM722 51H737.5V49H722V51ZM738.207 49.2929L734.207 45.2929L732.793 46.7071L736.793 50.7071L738.207 49.2929ZM736.793 49.2929L732.793 53.2929L734.207 54.7071L738.207 50.7071L736.793 49.2929Z" fill="#110529"/>
    <path d="M736 50H594" stroke="#110529" stroke-width="2"/>
    <path d="M750.5 50L749.793 49.2929L749.086 50L749.793 50.7071L750.5 50ZM753.793 54.7071L754.5 55.4142L755.914 54L755.207 53.2929L753.793 54.7071ZM755.207 46.7071L755.914 46L754.5 44.5858L753.793 45.2929L755.207 46.7071ZM766 49H750.5V51H766V49ZM749.793 50.7071L753.793 54.7071L755.207 53.2929L751.207 49.2929L749.793 50.7071ZM751.207 50.7071L755.207 46.7071L753.793 45.2929L749.793 49.2929L751.207 50.7071Z" fill="#110529"/>
    <path d="M860 50L751 50" stroke="#110529" stroke-width="2"/>
</svg>
