<svg width="960" height="328" viewBox="0 0 960 328" fill="none" xmlns="http://www.w3.org/2000/svg">
<rect width="960" height="328" fill="#1D1D29"/>
<path d="M648 112V24" stroke="white" stroke-opacity="0.3" stroke-width="2" stroke-linecap="square" stroke-dasharray="6 6"/>
<path d="M387.805 37V26.92H393.776V28.383H389.268V31.225H392.936V32.695H389.268V37H387.805ZM395.038 37V26.92H399.112C399.21 26.92 399.331 26.9247 399.476 26.934C399.62 26.9387 399.758 26.9527 399.889 26.976C400.449 27.0647 400.915 27.256 401.289 27.55C401.667 27.844 401.949 28.215 402.136 28.663C402.322 29.111 402.416 29.6057 402.416 30.147C402.416 30.9497 402.21 31.6427 401.8 32.226C401.389 32.8047 400.773 33.1663 399.952 33.311L399.357 33.381H396.501V37H395.038ZM400.932 37L398.944 32.898L400.421 32.52L402.605 37H400.932ZM396.501 31.995H399.056C399.149 31.995 399.252 31.9903 399.364 31.981C399.48 31.9717 399.59 31.9553 399.693 31.932C399.991 31.862 400.232 31.7337 400.414 31.547C400.596 31.3557 400.726 31.1363 400.806 30.889C400.885 30.6417 400.925 30.3943 400.925 30.147C400.925 29.8997 400.885 29.6547 400.806 29.412C400.726 29.1647 400.596 28.9477 400.414 28.761C400.232 28.5697 399.991 28.439 399.693 28.369C399.59 28.341 399.48 28.3223 399.364 28.313C399.252 28.3037 399.149 28.299 399.056 28.299H396.501V31.995ZM406.964 37.189C406.465 37.189 405.996 37.0957 405.557 36.909C405.118 36.7177 404.738 36.447 404.416 36.097C404.099 35.747 403.868 35.334 403.723 34.858L405.137 34.466C405.272 34.9 405.508 35.2337 405.844 35.467C406.18 35.6957 406.553 35.8077 406.964 35.803C407.333 35.7983 407.657 35.712 407.937 35.544C408.217 35.376 408.436 35.1497 408.595 34.865C408.754 34.5757 408.833 34.2443 408.833 33.871C408.833 33.311 408.658 32.849 408.308 32.485C407.963 32.121 407.51 31.939 406.95 31.939C406.791 31.939 406.628 31.9623 406.46 32.009C406.297 32.0557 406.143 32.1163 405.998 32.191L405.312 31.036L408.868 27.893L409.022 28.313H404.122V26.92H410.184V28.313L407.23 31.155L407.216 30.679C407.851 30.679 408.401 30.8213 408.868 31.106C409.335 31.386 409.694 31.7687 409.946 32.254C410.203 32.7347 410.331 33.2737 410.331 33.871C410.331 34.515 410.179 35.0867 409.876 35.586C409.577 36.0853 409.174 36.4773 408.665 36.762C408.161 37.0467 407.594 37.189 406.964 37.189Z" fill="white" fill-opacity="0.3"/>
<path d="M444 112V24" stroke="white" stroke-opacity="0.3" stroke-width="2" stroke-linecap="square" stroke-dasharray="6 6"/>
<path d="M487.682 37.21C486.674 37.21 485.815 36.9907 485.106 36.552C484.397 36.1087 483.853 35.4927 483.475 34.704C483.102 33.9153 482.915 33.0007 482.915 31.96C482.915 30.9193 483.102 30.0047 483.475 29.216C483.853 28.4273 484.397 27.8137 485.106 27.375C485.815 26.9317 486.674 26.71 487.682 26.71C488.844 26.71 489.805 27.004 490.566 27.592C491.331 28.18 491.863 28.971 492.162 29.965L490.678 30.364C490.482 29.6593 490.132 29.1063 489.628 28.705C489.129 28.3037 488.48 28.103 487.682 28.103C486.968 28.103 486.373 28.264 485.897 28.586C485.421 28.908 485.062 29.3583 484.819 29.937C484.581 30.5157 484.462 31.19 484.462 31.96C484.457 32.73 484.574 33.4043 484.812 33.983C485.055 34.5617 485.414 35.012 485.89 35.334C486.371 35.656 486.968 35.817 487.682 35.817C488.48 35.817 489.129 35.6163 489.628 35.215C490.132 34.809 490.482 34.256 490.678 33.556L492.162 33.955C491.863 34.949 491.331 35.74 490.566 36.328C489.805 36.916 488.844 37.21 487.682 37.21ZM493.702 37V26.92H496.859C496.952 26.92 497.125 26.9223 497.377 26.927C497.633 26.9317 497.878 26.9503 498.112 26.983C498.9 27.081 499.563 27.3633 500.1 27.83C500.641 28.2967 501.049 28.8893 501.325 29.608C501.6 30.322 501.738 31.106 501.738 31.96C501.738 32.8187 501.6 33.6073 501.325 34.326C501.049 35.04 500.641 35.6303 500.1 36.097C499.563 36.559 498.9 36.839 498.112 36.937C497.878 36.9697 497.633 36.9883 497.377 36.993C497.125 36.9977 496.952 37 496.859 37H493.702ZM495.2 35.607H496.859C497.017 35.607 497.206 35.6023 497.426 35.593C497.645 35.5837 497.839 35.565 498.007 35.537C498.52 35.439 498.935 35.2173 499.253 34.872C499.575 34.522 499.81 34.0927 499.96 33.584C500.109 33.0753 500.184 32.534 500.184 31.96C500.184 31.3673 500.107 30.819 499.953 30.315C499.799 29.8063 499.561 29.3817 499.239 29.041C498.921 28.6957 498.511 28.4763 498.007 28.383C497.839 28.3503 497.643 28.3317 497.419 28.327C497.199 28.3177 497.013 28.313 496.859 28.313H495.2V35.607ZM503.368 37V26.92H507.442C507.54 26.92 507.661 26.9247 507.806 26.934C507.95 26.9387 508.088 26.9527 508.219 26.976C508.779 27.0647 509.245 27.256 509.619 27.55C509.997 27.844 510.279 28.215 510.466 28.663C510.652 29.111 510.746 29.6057 510.746 30.147C510.746 30.9497 510.54 31.6427 510.13 32.226C509.719 32.8047 509.103 33.1663 508.282 33.311L507.687 33.381H504.831V37H503.368ZM509.262 37L507.274 32.898L508.751 32.52L510.935 37H509.262ZM504.831 31.995H507.386C507.479 31.995 507.582 31.9903 507.694 31.981C507.81 31.9717 507.92 31.9553 508.023 31.932C508.321 31.862 508.562 31.7337 508.744 31.547C508.926 31.3557 509.056 31.1363 509.136 30.889C509.215 30.6417 509.255 30.3943 509.255 30.147C509.255 29.8997 509.215 29.6547 509.136 29.412C509.056 29.1647 508.926 28.9477 508.744 28.761C508.562 28.5697 508.321 28.439 508.023 28.369C507.92 28.341 507.81 28.3223 507.694 28.313C507.582 28.3037 507.479 28.299 507.386 28.299H504.831V31.995ZM515.294 37.189C514.795 37.189 514.326 37.0957 513.887 36.909C513.448 36.7177 513.068 36.447 512.746 36.097C512.429 35.747 512.198 35.334 512.053 34.858L513.467 34.466C513.602 34.9 513.838 35.2337 514.174 35.467C514.51 35.6957 514.883 35.8077 515.294 35.803C515.663 35.7983 515.987 35.712 516.267 35.544C516.547 35.376 516.766 35.1497 516.925 34.865C517.084 34.5757 517.163 34.2443 517.163 33.871C517.163 33.311 516.988 32.849 516.638 32.485C516.293 32.121 515.84 31.939 515.28 31.939C515.121 31.939 514.958 31.9623 514.79 32.009C514.627 32.0557 514.473 32.1163 514.328 32.191L513.642 31.036L517.198 27.893L517.352 28.313H512.452V26.92H518.514V28.313L515.56 31.155L515.546 30.679C516.181 30.679 516.731 30.8213 517.198 31.106C517.665 31.386 518.024 31.7687 518.276 32.254C518.533 32.7347 518.661 33.2737 518.661 33.871C518.661 34.515 518.509 35.0867 518.206 35.586C517.907 36.0853 517.504 36.4773 516.995 36.762C516.491 37.0467 515.924 37.189 515.294 37.189Z" fill="white" fill-opacity="0.3"/>
<path d="M558 112V24" stroke="white" stroke-opacity="0.3" stroke-width="2" stroke-linecap="square" stroke-dasharray="6 6"/>
<path d="M591.593 37V26.92H597.564V28.383H593.056V31.225H596.724V32.695H593.056V37H591.593ZM598.826 37V26.92H602.9C602.998 26.92 603.119 26.9247 603.264 26.934C603.408 26.9387 603.546 26.9527 603.677 26.976C604.237 27.0647 604.703 27.256 605.077 27.55C605.455 27.844 605.737 28.215 605.924 28.663C606.11 29.111 606.204 29.6057 606.204 30.147C606.204 30.9497 605.998 31.6427 605.588 32.226C605.177 32.8047 604.561 33.1663 603.74 33.311L603.145 33.381H600.289V37H598.826ZM604.72 37L602.732 32.898L604.209 32.52L606.393 37H604.72ZM600.289 31.995H602.844C602.937 31.995 603.04 31.9903 603.152 31.981C603.268 31.9717 603.378 31.9553 603.481 31.932C603.779 31.862 604.02 31.7337 604.202 31.547C604.384 31.3557 604.514 31.1363 604.594 30.889C604.673 30.6417 604.713 30.3943 604.713 30.147C604.713 29.8997 604.673 29.6547 604.594 29.412C604.514 29.1647 604.384 28.9477 604.202 28.761C604.02 28.5697 603.779 28.439 603.481 28.369C603.378 28.341 603.268 28.3223 603.152 28.313C603.04 28.3037 602.937 28.299 602.844 28.299H600.289V31.995ZM612.201 37V35.243H607.651V33.857L610.927 26.92H612.6L609.324 33.857H612.201V31.127H613.685V33.857H614.686V35.243H613.685V37H612.201Z" fill="white" fill-opacity="0.3"/>
<path d="M879.128 92V82.056L876.96 83.368V81.776L879.128 80.48H880.576V92H879.128ZM883.3 91.992L883.308 90.712L888.42 86.112C888.847 85.728 889.132 85.3653 889.276 85.024C889.425 84.6773 889.5 84.3227 889.5 83.96C889.5 83.5173 889.399 83.1173 889.196 82.76C888.993 82.4027 888.716 82.12 888.364 81.912C888.017 81.704 887.623 81.6 887.18 81.6C886.721 81.6 886.313 81.7093 885.956 81.928C885.599 82.1413 885.316 82.4267 885.108 82.784C884.905 83.1413 884.807 83.5307 884.812 83.952H883.356C883.356 83.2267 883.524 82.5867 883.86 82.032C884.196 81.472 884.652 81.0347 885.228 80.72C885.809 80.4 886.468 80.24 887.204 80.24C887.919 80.24 888.559 80.4053 889.124 80.736C889.689 81.0613 890.135 81.5067 890.46 82.072C890.791 82.632 890.956 83.2667 890.956 83.976C890.956 84.4773 890.892 84.912 890.764 85.28C890.641 85.648 890.449 85.9893 890.188 86.304C889.927 86.6133 889.599 86.944 889.204 87.296L884.956 91.112L884.772 90.632H890.956V91.992H883.3ZM896.838 92.24C896.027 92.24 895.345 92.04 894.79 91.64C894.235 91.2347 893.814 90.688 893.526 90C893.243 89.3067 893.102 88.5307 893.102 87.672C893.102 86.8027 893.243 86.024 893.526 85.336C893.814 84.648 894.235 84.1067 894.79 83.712C895.35 83.3173 896.035 83.12 896.846 83.12C897.646 83.12 898.334 83.32 898.91 83.72C899.491 84.1147 899.937 84.656 900.246 85.344C900.555 86.032 900.71 86.808 900.71 87.672C900.71 88.536 900.555 89.312 900.246 90C899.937 90.688 899.491 91.2347 898.91 91.64C898.334 92.04 897.643 92.24 896.838 92.24ZM892.862 92V80.48H894.294V85.64H894.134V92H892.862ZM896.662 90.936C897.233 90.936 897.705 90.792 898.078 90.504C898.451 90.216 898.731 89.8267 898.918 89.336C899.105 88.84 899.198 88.2853 899.198 87.672C899.198 87.064 899.105 86.5147 898.918 86.024C898.737 85.5333 898.454 85.144 898.07 84.856C897.691 84.568 897.209 84.424 896.622 84.424C896.062 84.424 895.598 84.5627 895.23 84.84C894.862 85.112 894.587 85.4933 894.406 85.984C894.225 86.4693 894.134 87.032 894.134 87.672C894.134 88.3013 894.222 88.864 894.398 89.36C894.579 89.8507 894.857 90.2373 895.23 90.52C895.603 90.7973 896.081 90.936 896.662 90.936ZM906.432 92.24C905.621 92.24 904.938 92.04 904.384 91.64C903.829 91.2347 903.408 90.688 903.12 90C902.837 89.3067 902.696 88.5307 902.696 87.672C902.696 86.8027 902.837 86.024 903.12 85.336C903.408 84.648 903.829 84.1067 904.384 83.712C904.944 83.3173 905.629 83.12 906.44 83.12C907.24 83.12 907.928 83.32 908.504 83.72C909.085 84.1147 909.53 84.656 909.84 85.344C910.149 86.032 910.304 86.808 910.304 87.672C910.304 88.536 910.149 89.312 909.84 90C909.53 90.688 909.085 91.2347 908.504 91.64C907.928 92.04 907.237 92.24 906.432 92.24ZM902.456 95.84V83.36H903.728V89.72H903.888V95.84H902.456ZM906.256 90.936C906.826 90.936 907.298 90.792 907.672 90.504C908.045 90.216 908.325 89.8267 908.512 89.336C908.698 88.84 908.792 88.2853 908.792 87.672C908.792 87.064 908.698 86.5147 908.512 86.024C908.33 85.5333 908.048 85.144 907.664 84.856C907.285 84.568 906.802 84.424 906.216 84.424C905.656 84.424 905.192 84.5627 904.824 84.84C904.456 85.112 904.181 85.4933 904 85.984C903.818 86.4693 903.728 87.032 903.728 87.672C903.728 88.3013 903.816 88.864 903.992 89.36C904.173 89.8507 904.45 90.2373 904.824 90.52C905.197 90.7973 905.674 90.936 906.256 90.936Z" fill="white"/>
<path d="M814.72 92.24C813.984 92.24 813.333 92.0933 812.768 91.8C812.203 91.5013 811.76 91.088 811.44 90.56C811.12 90.032 810.96 89.416 810.96 88.712C810.96 88.024 811.123 87.4027 811.448 86.848C811.779 86.2933 812.275 85.8667 812.936 85.568L812.912 86.088C812.373 85.8267 811.96 85.4587 811.672 84.984C811.384 84.504 811.24 83.9733 811.24 83.392C811.24 82.7413 811.389 82.1813 811.688 81.712C811.987 81.2427 812.397 80.88 812.92 80.624C813.443 80.368 814.043 80.24 814.72 80.24C815.397 80.24 815.997 80.368 816.52 80.624C817.043 80.88 817.453 81.2427 817.752 81.712C818.051 82.1813 818.2 82.7413 818.2 83.392C818.2 83.9733 818.064 84.5013 817.792 84.976C817.52 85.4453 817.101 85.816 816.536 86.088L816.504 85.576C817.165 85.864 817.661 86.288 817.992 86.848C818.328 87.4027 818.496 88.024 818.496 88.712C818.496 89.416 818.333 90.032 818.008 90.56C817.688 91.088 817.243 91.5013 816.672 91.8C816.107 92.0933 815.456 92.24 814.72 92.24ZM814.72 90.88C815.392 90.88 815.936 90.696 816.352 90.328C816.773 89.9547 816.984 89.416 816.984 88.712C816.984 88.0027 816.776 87.464 816.36 87.096C815.949 86.7227 815.403 86.536 814.72 86.536C814.043 86.536 813.496 86.7227 813.08 87.096C812.669 87.464 812.464 88.0027 812.464 88.712C812.464 89.416 812.672 89.9547 813.088 90.328C813.504 90.696 814.048 90.88 814.72 90.88ZM814.72 85.168C815.307 85.168 815.781 85.0213 816.144 84.728C816.507 84.4293 816.688 83.984 816.688 83.392C816.688 82.8 816.507 82.3573 816.144 82.064C815.781 81.7653 815.307 81.616 814.72 81.616C814.139 81.616 813.664 81.7653 813.296 82.064C812.933 82.3573 812.752 82.8 812.752 83.392C812.752 83.984 812.933 84.4293 813.296 84.728C813.664 85.0213 814.139 85.168 814.72 85.168ZM824.541 92.24C823.73 92.24 823.048 92.04 822.493 91.64C821.938 91.2347 821.517 90.688 821.229 90C820.946 89.3067 820.805 88.5307 820.805 87.672C820.805 86.8027 820.946 86.024 821.229 85.336C821.517 84.648 821.938 84.1067 822.493 83.712C823.053 83.3173 823.738 83.12 824.549 83.12C825.349 83.12 826.037 83.32 826.613 83.72C827.194 84.1147 827.64 84.656 827.949 85.344C828.258 86.032 828.413 86.808 828.413 87.672C828.413 88.536 828.258 89.312 827.949 90C827.64 90.688 827.194 91.2347 826.613 91.64C826.037 92.04 825.346 92.24 824.541 92.24ZM820.565 92V80.48H821.997V85.64H821.837V92H820.565ZM824.365 90.936C824.936 90.936 825.408 90.792 825.781 90.504C826.154 90.216 826.434 89.8267 826.621 89.336C826.808 88.84 826.901 88.2853 826.901 87.672C826.901 87.064 826.808 86.5147 826.621 86.024C826.44 85.5333 826.157 85.144 825.773 84.856C825.394 84.568 824.912 84.424 824.325 84.424C823.765 84.424 823.301 84.5627 822.933 84.84C822.565 85.112 822.29 85.4933 822.109 85.984C821.928 86.4693 821.837 87.032 821.837 87.672C821.837 88.3013 821.925 88.864 822.101 89.36C822.282 89.8507 822.56 90.2373 822.933 90.52C823.306 90.7973 823.784 90.936 824.365 90.936ZM834.135 92.24C833.324 92.24 832.642 92.04 832.087 91.64C831.532 91.2347 831.111 90.688 830.823 90C830.54 89.3067 830.399 88.5307 830.399 87.672C830.399 86.8027 830.54 86.024 830.823 85.336C831.111 84.648 831.532 84.1067 832.087 83.712C832.647 83.3173 833.332 83.12 834.143 83.12C834.943 83.12 835.631 83.32 836.207 83.72C836.788 84.1147 837.234 84.656 837.543 85.344C837.852 86.032 838.007 86.808 838.007 87.672C838.007 88.536 837.852 89.312 837.543 90C837.234 90.688 836.788 91.2347 836.207 91.64C835.631 92.04 834.94 92.24 834.135 92.24ZM830.159 95.84V83.36H831.431V89.72H831.591V95.84H830.159ZM833.959 90.936C834.53 90.936 835.002 90.792 835.375 90.504C835.748 90.216 836.028 89.8267 836.215 89.336C836.402 88.84 836.495 88.2853 836.495 87.672C836.495 87.064 836.402 86.5147 836.215 86.024C836.034 85.5333 835.751 85.144 835.367 84.856C834.988 84.568 834.506 84.424 833.919 84.424C833.359 84.424 832.895 84.5627 832.527 84.84C832.159 85.112 831.884 85.4933 831.703 85.984C831.522 86.4693 831.431 87.032 831.431 87.672C831.431 88.3013 831.519 88.864 831.695 89.36C831.876 89.8507 832.154 90.2373 832.527 90.52C832.9 90.7973 833.378 90.936 833.959 90.936Z" fill="white"/>
<g filter="url(#filter0_i_6921_6386)">
<path fill-rule="evenodd" clip-rule="evenodd" d="M109.6 108H101L96 114.5L101 121L96 127.5L101 134L96 140L101 147L96 153.5L101 160H109.6H110H454.4C454.96 160 455.24 160 455.454 159.891C455.642 159.795 455.795 159.642 455.891 159.454C456 159.24 456 158.96 456 158.4V153.5V147V140V134V127.5V121V114.5V109.6C456 109.04 456 108.76 455.891 108.546C455.795 108.358 455.642 108.205 455.454 108.109C455.24 108 454.96 108 454.4 108H110H109.6Z" fill="#99E099"/>
</g>
<path d="M101 108V107H100.508L100.207 107.39L101 108ZM96 114.5L95.2074 113.89L94.7384 114.5L95.2074 115.11L96 114.5ZM101 121L101.793 121.61L102.262 121L101.793 120.39L101 121ZM96 127.5L95.2074 126.89L94.7384 127.5L95.2074 128.11L96 127.5ZM101 134L101.768 134.64L102.281 134.025L101.793 133.39L101 134ZM96 140L95.2318 139.36L94.7375 139.953L95.1863 140.581L96 140ZM101 147L101.793 147.61L102.245 147.022L101.814 146.419L101 147ZM96 153.5L95.2074 152.89L94.7384 153.5L95.2074 154.11L96 153.5ZM101 160L100.207 160.61L100.508 161H101V160ZM455.454 159.891L455 159L455 159L455.454 159.891ZM455.891 159.454L456.782 159.908L456.782 159.908L455.891 159.454ZM455.891 108.546L456.782 108.092L456.782 108.092L455.891 108.546ZM455.454 108.109L455 109L455 109L455.454 108.109ZM101 109H109.6V107H101V109ZM96.7926 115.11L101.793 108.61L100.207 107.39L95.2074 113.89L96.7926 115.11ZM101.793 120.39L96.7926 113.89L95.2074 115.11L100.207 121.61L101.793 120.39ZM96.7926 128.11L101.793 121.61L100.207 120.39L95.2074 126.89L96.7926 128.11ZM101.793 133.39L96.7926 126.89L95.2074 128.11L100.207 134.61L101.793 133.39ZM96.7682 140.64L101.768 134.64L100.232 133.36L95.2318 139.36L96.7682 140.64ZM101.814 146.419L96.8137 139.419L95.1863 140.581L100.186 147.581L101.814 146.419ZM96.7926 154.11L101.793 147.61L100.207 146.39L95.2074 152.89L96.7926 154.11ZM101.793 159.39L96.7926 152.89L95.2074 154.11L100.207 160.61L101.793 159.39ZM109.6 159H101V161H109.6V159ZM109.6 161H110V159H109.6V161ZM110 161H454.4V159H110V161ZM454.4 161C454.664 161 454.921 161.001 455.138 160.983C455.367 160.964 455.637 160.92 455.908 160.782L455 159C455.057 158.971 455.08 158.981 454.975 158.99C454.859 158.999 454.697 159 454.4 159V161ZM455.908 160.782C456.284 160.59 456.59 160.284 456.782 159.908L455 159L455 159L455.908 160.782ZM456.782 159.908C456.92 159.637 456.964 159.367 456.983 159.138C457.001 158.921 457 158.664 457 158.4H455C455 158.697 454.999 158.859 454.99 158.975C454.981 159.08 454.971 159.058 455 159L456.782 159.908ZM457 158.4V153.5H455V158.4H457ZM457 153.5V147H455V153.5H457ZM457 147V140H455V147H457ZM457 140V134H455V140H457ZM457 134V127.5H455V134H457ZM457 127.5V121H455V127.5H457ZM457 121V114.5H455V121H457ZM457 114.5V109.6H455V114.5H457ZM457 109.6C457 109.336 457.001 109.079 456.983 108.862C456.964 108.633 456.92 108.363 456.782 108.092L455 109C454.971 108.942 454.981 108.92 454.99 109.025C454.999 109.141 455 109.303 455 109.6H457ZM456.782 108.092C456.59 107.716 456.284 107.41 455.908 107.218L455 109L455 109L456.782 108.092ZM455.908 107.218C455.637 107.08 455.367 107.036 455.138 107.017C454.921 106.999 454.664 107 454.4 107V109C454.697 109 454.859 109.001 454.975 109.01C455.08 109.019 455.057 109.029 455 109L455.908 107.218ZM454.4 107H110V109H454.4V107ZM110 107H109.6V109H110V107Z" fill="#110529"/>
<path d="M276.758 142L271.938 127.6H273.788L277.978 140.11L282.208 127.6H284.058L279.238 142H276.758Z" fill="#110529"/>
<g filter="url(#filter1_i_6921_6386)">
<rect x="456" y="108" width="30" height="52" rx="1" fill="#CBEB67"/>
</g>
<rect x="456" y="108" width="30" height="52" rx="1" stroke="#110529" stroke-width="2" stroke-linecap="round"/>
<g filter="url(#filter2_i_6921_6386)">
<rect x="522" y="108" width="30" height="52" rx="1" fill="#FAAAFA"/>
</g>
<rect x="522" y="108" width="30" height="52" rx="1" stroke="#110529" stroke-width="2" stroke-linecap="round"/>
<g filter="url(#filter3_i_6921_6386)">
<rect x="486" y="108" width="36" height="52" rx="1" fill="#FFCB8F"/>
</g>
<rect x="486" y="108" width="36" height="52" rx="1" stroke="#110529" stroke-width="2" stroke-linecap="round"/>
<path d="M465.447 142V127.6H467.247L474.757 138.85V127.6H476.557V142H474.757L467.247 130.74V142H465.447Z" fill="#110529"/>
<path d="M531.447 142V127.6H533.247L540.757 138.85V127.6H542.557V142H540.757L533.247 130.74V142H531.447Z" fill="#110529"/>
<path d="M498.593 142V127.6H503.033C503.313 127.6 504.173 127.6 504.853 127.69C508.183 128.13 509.913 131.13 509.913 134.8C509.913 138.48 508.183 141.47 504.853 141.91C504.183 142 503.303 142 503.033 142H498.593ZM500.423 140.3H503.033C503.533 140.3 504.233 140.28 504.703 140.19C507.063 139.76 508.023 137.47 508.023 134.8C508.023 132.08 507.033 129.83 504.703 129.41C504.233 129.32 503.513 129.3 503.033 129.3H500.423V140.3Z" fill="#110529"/>
<g filter="url(#filter4_i_6921_6386)">
<rect x="552" y="108" width="96" height="52" rx="1" fill="#C1ADFF"/>
<path d="M599.244 142.29C597.224 142.29 595.754 141.11 595.244 139.27L597.014 138.85C597.224 139.83 598.134 140.6 599.204 140.6C599.884 140.6 600.704 140.29 601.094 139.51C601.354 138.99 601.354 138.37 601.354 137.48V127.6H603.154V137.48C603.154 138.72 603.214 139.51 602.684 140.43C601.954 141.7 600.694 142.29 599.244 142.29Z" fill="#110529"/>
<rect x="552" y="108" width="96" height="52" rx="1" stroke="#110529" stroke-width="2" stroke-linecap="round"/>
</g>
<g filter="url(#filter5_i_6921_6386)">
<rect x="648" y="108" width="144" height="52" rx="1" fill="#FAFAAA"/>
<path d="M720.093 142.3C715.783 142.3 713.373 139.24 713.373 134.8C713.373 130.36 715.783 127.3 720.093 127.3C723.423 127.3 725.613 129.13 726.433 131.99L724.623 132.47C724.033 130.33 722.523 129 720.093 129C716.873 129 715.273 131.35 715.253 134.8C715.233 138.25 716.873 140.6 720.093 140.6C722.523 140.6 724.033 139.27 724.623 137.13L726.433 137.61C725.613 140.47 723.423 142.3 720.093 142.3Z" fill="#110529"/>
<rect x="648" y="108" width="144" height="52" rx="1" stroke="#110529" stroke-width="2" stroke-linecap="round"/>
</g>
<g filter="url(#filter6_i_6921_6386)">
<rect x="792" y="108" width="64" height="52" rx="1" fill="#D6E0FF"/>
<path d="M812.553 142.3C809.213 142.3 806.873 140.11 806.873 136.75V127.61L808.673 127.6V136.6C808.673 139.33 810.733 140.62 812.553 140.62C814.393 140.62 816.433 139.31 816.433 136.6V127.6H818.233V136.75C818.233 140.1 815.893 142.3 812.553 142.3ZM821.033 142V127.6H822.653L828.093 139.07L833.503 127.6H835.143V141.99H833.453V131.51L828.563 142H827.613L822.723 131.51V142H821.033ZM838.147 142V127.6H839.927V142H838.147Z" fill="#110529"/>
<rect x="792" y="108" width="64" height="52" rx="1" stroke="#110529" stroke-width="2" stroke-linecap="round"/>
</g>
<g filter="url(#filter7_i_6921_6386)">
<rect x="856" y="108" width="72" height="52" rx="1" fill="#CBEB67"/>
<path d="M869.906 142.3C865.596 142.3 863.186 139.24 863.186 134.8C863.186 130.36 865.596 127.3 869.906 127.3C873.236 127.3 875.426 129.13 876.246 131.99L874.436 132.47C873.846 130.33 872.336 129 869.906 129C866.686 129 865.086 131.35 865.066 134.8C865.046 138.25 866.686 140.6 869.906 140.6C872.336 140.6 873.846 139.27 874.436 137.13L876.246 137.61C875.426 140.47 873.236 142.3 869.906 142.3ZM883.119 142.3C879.929 142.3 877.839 140.05 877.839 136.67C877.839 133.13 879.899 130.9 883.039 130.9C886.289 130.9 888.189 133.26 888.029 137.1H879.749C879.889 139.34 881.049 140.61 883.039 140.61C884.459 140.61 885.539 139.94 886.139 138.71L887.849 139.3C886.999 141.21 885.209 142.3 883.119 142.3ZM879.779 135.67H886.179C885.959 133.55 884.929 132.5 883.099 132.5C881.159 132.5 880.029 133.62 879.779 135.67ZM890.455 142V127.6H892.235V142H890.455ZM895.436 142V127.6H897.216V142H895.436ZM904.42 142V127.6H906.2V142H904.42ZM909.201 142V127.6H913.641C913.921 127.6 914.781 127.6 915.461 127.69C918.791 128.13 920.521 131.13 920.521 134.8C920.521 138.48 918.791 141.47 915.461 141.91C914.791 142 913.911 142 913.641 142H909.201ZM911.031 140.3H913.641C914.141 140.3 914.841 140.28 915.311 140.19C917.671 139.76 918.631 137.47 918.631 134.8C918.631 132.08 917.641 129.83 915.311 129.41C914.841 129.32 914.121 129.3 913.641 129.3H911.031V140.3Z" fill="#110529"/>
<rect x="856" y="108" width="72" height="52" rx="1" stroke="#110529" stroke-width="2" stroke-linecap="round"/>
</g>
<g filter="url(#filter8_i_6921_6386)">
<path fill-rule="evenodd" clip-rule="evenodd" d="M109.6 244H101L96 250.5L101 257L96 263.5L101 270L96 276L101 283L96 289.5L101 296H109.6H110H454.4C454.96 296 455.24 296 455.454 295.891C455.642 295.795 455.795 295.642 455.891 295.454C456 295.24 456 294.96 456 294.4V289.5V283V276V270V263.5V257V250.5V245.6C456 245.04 456 244.76 455.891 244.546C455.795 244.358 455.642 244.205 455.454 244.109C455.24 244 454.96 244 454.4 244H110H109.6Z" fill="#99E099"/>
</g>
<path d="M101 244V243H100.508L100.207 243.39L101 244ZM96 250.5L95.2074 249.89L94.7384 250.5L95.2074 251.11L96 250.5ZM101 257L101.793 257.61L102.262 257L101.793 256.39L101 257ZM96 263.5L95.2074 262.89L94.7384 263.5L95.2074 264.11L96 263.5ZM101 270L101.768 270.64L102.281 270.025L101.793 269.39L101 270ZM96 276L95.2318 275.36L94.7375 275.953L95.1863 276.581L96 276ZM101 283L101.793 283.61L102.245 283.022L101.814 282.419L101 283ZM96 289.5L95.2074 288.89L94.7384 289.5L95.2074 290.11L96 289.5ZM101 296L100.207 296.61L100.508 297H101V296ZM455.454 295.891L455 295L455 295L455.454 295.891ZM455.891 295.454L456.782 295.908L456.782 295.908L455.891 295.454ZM455.891 244.546L456.782 244.092L456.782 244.092L455.891 244.546ZM455.454 244.109L455 245L455 245L455.454 244.109ZM101 245H109.6V243H101V245ZM96.7926 251.11L101.793 244.61L100.207 243.39L95.2074 249.89L96.7926 251.11ZM101.793 256.39L96.7926 249.89L95.2074 251.11L100.207 257.61L101.793 256.39ZM96.7926 264.11L101.793 257.61L100.207 256.39L95.2074 262.89L96.7926 264.11ZM101.793 269.39L96.7926 262.89L95.2074 264.11L100.207 270.61L101.793 269.39ZM96.7682 276.64L101.768 270.64L100.232 269.36L95.2318 275.36L96.7682 276.64ZM101.814 282.419L96.8137 275.419L95.1863 276.581L100.186 283.581L101.814 282.419ZM96.7926 290.11L101.793 283.61L100.207 282.39L95.2074 288.89L96.7926 290.11ZM101.793 295.39L96.7926 288.89L95.2074 290.11L100.207 296.61L101.793 295.39ZM109.6 295H101V297H109.6V295ZM109.6 297H110V295H109.6V297ZM110 297H454.4V295H110V297ZM454.4 297C454.664 297 454.921 297.001 455.138 296.983C455.367 296.964 455.637 296.92 455.908 296.782L455 295C455.057 294.971 455.08 294.981 454.975 294.99C454.859 294.999 454.697 295 454.4 295V297ZM455.908 296.782C456.284 296.59 456.59 296.284 456.782 295.908L455 295L455 295L455.908 296.782ZM456.782 295.908C456.92 295.637 456.964 295.367 456.983 295.138C457.001 294.921 457 294.664 457 294.4H455C455 294.697 454.999 294.859 454.99 294.975C454.981 295.08 454.971 295.058 455 295L456.782 295.908ZM457 294.4V289.5H455V294.4H457ZM457 289.5V283H455V289.5H457ZM457 283V276H455V283H457ZM457 276V270H455V276H457ZM457 270V263.5H455V270H457ZM457 263.5V257H455V263.5H457ZM457 257V250.5H455V257H457ZM457 250.5V245.6H455V250.5H457ZM457 245.6C457 245.336 457.001 245.079 456.983 244.862C456.964 244.633 456.92 244.363 456.782 244.092L455 245C454.971 244.942 454.981 244.92 454.99 245.025C454.999 245.141 455 245.303 455 245.6H457ZM456.782 244.092C456.59 243.716 456.284 243.41 455.908 243.218L455 245L455 245L456.782 244.092ZM455.908 243.218C455.637 243.08 455.367 243.036 455.138 243.017C454.921 242.999 454.664 243 454.4 243V245C454.697 245 454.859 245.001 454.975 245.01C455.08 245.019 455.057 245.029 455 245L455.908 243.218ZM454.4 243H110V245H454.4V243ZM110 243H109.6V245H110V243Z" fill="#110529"/>
<path d="M276.758 278L271.938 263.6H273.788L277.978 276.11L282.208 263.6H284.058L279.238 278H276.758Z" fill="#110529"/>
<g filter="url(#filter9_i_6921_6386)">
<rect x="456" y="244" width="30" height="52" rx="1" fill="#CBEB67"/>
<path d="M465.447 278V263.6H467.247L474.757 274.85V263.6H476.557V278H474.757L467.247 266.74V278H465.447Z" fill="#110529"/>
<rect x="456" y="244" width="30" height="52" rx="1" stroke="#110529" stroke-width="2" stroke-linecap="round"/>
</g>
<g filter="url(#filter10_i_6921_6386)">
<rect x="486" y="244" width="96" height="52" rx="1" fill="#C1ADFF"/>
<path d="M533.244 278.29C531.224 278.29 529.754 277.11 529.244 275.27L531.014 274.85C531.224 275.83 532.134 276.6 533.204 276.6C533.884 276.6 534.704 276.29 535.094 275.51C535.354 274.99 535.354 274.37 535.354 273.48V263.6H537.154V273.48C537.154 274.72 537.214 275.51 536.684 276.43C535.954 277.7 534.694 278.29 533.244 278.29Z" fill="#110529"/>
<rect x="486" y="244" width="96" height="52" rx="1" stroke="#110529" stroke-width="2" stroke-linecap="round"/>
</g>
<g filter="url(#filter11_i_6921_6386)">
<rect x="582" y="244" width="144" height="52" rx="1" fill="#FAFAAA"/>
<path d="M654.093 278.3C649.783 278.3 647.373 275.24 647.373 270.8C647.373 266.36 649.783 263.3 654.093 263.3C657.423 263.3 659.613 265.13 660.433 267.99L658.623 268.47C658.033 266.33 656.523 265 654.093 265C650.873 265 649.273 267.35 649.253 270.8C649.233 274.25 650.873 276.6 654.093 276.6C656.523 276.6 658.033 275.27 658.623 273.13L660.433 273.61C659.613 276.47 657.423 278.3 654.093 278.3Z" fill="#110529"/>
<rect x="582" y="244" width="144" height="52" rx="1" stroke="#110529" stroke-width="2" stroke-linecap="round"/>
</g>
<g filter="url(#filter12_i_6921_6386)">
<rect x="726" y="244" width="64" height="52" rx="1" fill="#D6E0FF"/>
<path d="M746.553 278.3C743.213 278.3 740.873 276.11 740.873 272.75V263.61L742.673 263.6V272.6C742.673 275.33 744.733 276.62 746.553 276.62C748.393 276.62 750.433 275.31 750.433 272.6V263.6H752.233V272.75C752.233 276.1 749.893 278.3 746.553 278.3ZM755.033 278V263.6H756.653L762.093 275.07L767.503 263.6H769.143V277.99H767.453V267.51L762.563 278H761.613L756.723 267.51V278H755.033ZM772.147 278V263.6H773.927V278H772.147Z" fill="#110529"/>
<rect x="726" y="244" width="64" height="52" rx="1" stroke="#110529" stroke-width="2" stroke-linecap="round"/>
</g>
<g filter="url(#filter13_i_6921_6386)">
<rect x="790" y="244" width="72" height="52" rx="1" fill="#CBEB67"/>
<path d="M803.906 278.3C799.596 278.3 797.186 275.24 797.186 270.8C797.186 266.36 799.596 263.3 803.906 263.3C807.236 263.3 809.426 265.13 810.246 267.99L808.436 268.47C807.846 266.33 806.336 265 803.906 265C800.686 265 799.086 267.35 799.066 270.8C799.046 274.25 800.686 276.6 803.906 276.6C806.336 276.6 807.846 275.27 808.436 273.13L810.246 273.61C809.426 276.47 807.236 278.3 803.906 278.3ZM817.119 278.3C813.929 278.3 811.839 276.05 811.839 272.67C811.839 269.13 813.899 266.9 817.039 266.9C820.289 266.9 822.189 269.26 822.029 273.1H813.749C813.889 275.34 815.049 276.61 817.039 276.61C818.459 276.61 819.539 275.94 820.139 274.71L821.849 275.3C820.999 277.21 819.209 278.3 817.119 278.3ZM813.779 271.67H820.179C819.959 269.55 818.929 268.5 817.099 268.5C815.159 268.5 814.029 269.62 813.779 271.67ZM824.455 278V263.6H826.235V278H824.455ZM829.436 278V263.6H831.216V278H829.436ZM838.42 278V263.6H840.2V278H838.42ZM843.201 278V263.6H847.641C847.921 263.6 848.781 263.6 849.461 263.69C852.791 264.13 854.521 267.13 854.521 270.8C854.521 274.48 852.791 277.47 849.461 277.91C848.791 278 847.911 278 847.641 278H843.201ZM845.031 276.3H847.641C848.141 276.3 848.841 276.28 849.311 276.19C851.671 275.76 852.631 273.47 852.631 270.8C852.631 268.08 851.641 265.83 849.311 265.41C848.841 265.32 848.121 265.3 847.641 265.3H845.031V276.3Z" fill="#110529"/>
<rect x="790" y="244" width="72" height="52" rx="1" stroke="#110529" stroke-width="2" stroke-linecap="round"/>
</g>
<path d="M272 184L271.293 184.707L270.586 184L271.293 183.293L272 184ZM279.293 175.293L280 174.586L281.414 176L280.707 176.707L279.293 175.293ZM280.707 191.293L281.414 192L280 193.414L279.293 192.707L280.707 191.293ZM282 185L272 185L272 183L282 183L282 185ZM271.293 183.293L279.293 175.293L280.707 176.707L272.707 184.707L271.293 183.293ZM272.707 183.293L280.707 191.293L279.293 192.707L271.293 184.707L272.707 183.293Z" fill="#D3D7E0"/>
<path d="M449.5 184H282" stroke="#D3D7E0" stroke-width="2"/>
<rect width="53" height="20" transform="translate(449.5 174)" fill="#1D1D29"/>
<path d="M456.636 190V180.056L454.468 181.368V179.776L456.636 178.48H458.084V190H456.636ZM464.536 190.24C462.752 190.24 461.272 189.056 460.808 187.376L462.176 187.008C462.464 188.144 463.504 188.856 464.576 188.856C465.976 188.856 467.064 187.728 467.064 186.376C467.064 184.984 465.92 183.896 464.576 183.896C463.56 183.896 462.84 184.384 462.424 184.984L461.16 184.504L461.512 178.48H467.696V179.832H462.792L462.584 183.328C463.184 182.848 463.96 182.584 464.736 182.584C466.872 182.584 468.496 184.232 468.496 186.376C468.496 188.504 466.68 190.24 464.536 190.24ZM474.297 190.24C472.057 190.24 470.409 188.592 470.409 186.352V182.128C470.409 179.888 472.057 178.24 474.297 178.24C476.537 178.24 478.185 179.888 478.185 182.128V186.352C478.185 188.592 476.537 190.24 474.297 190.24ZM471.857 186.432C471.857 187.784 472.945 188.872 474.297 188.872C475.649 188.872 476.737 187.784 476.737 186.432V182.04C476.737 180.688 475.649 179.6 474.297 179.6C472.945 179.6 471.857 180.688 471.857 182.04V186.432ZM484.393 190.24C483.225 190.24 482.321 189.784 481.689 189.024V190H480.417V178.48H481.849V182.144C482.465 181.496 483.321 181.12 484.401 181.12C486.801 181.12 488.265 183.08 488.265 185.672C488.265 188.264 486.809 190.24 484.393 190.24ZM481.689 185.672C481.689 187.568 482.473 188.936 484.217 188.936C485.921 188.936 486.753 187.512 486.753 185.672C486.753 183.848 485.937 182.424 484.177 182.424C482.489 182.424 481.689 183.76 481.689 185.672ZM493.986 190.24C492.914 190.24 492.058 189.856 491.442 189.2V193.84H490.01V181.36H491.282V182.328C491.914 181.568 492.818 181.12 493.994 181.12C496.394 181.12 497.858 183.08 497.858 185.672C497.858 188.264 496.402 190.24 493.986 190.24ZM491.282 185.672C491.282 187.568 492.066 188.936 493.81 188.936C495.514 188.936 496.346 187.512 496.346 185.672C496.346 183.848 495.53 182.424 493.77 182.424C492.082 182.424 491.282 183.76 491.282 185.672Z" fill="white"/>
<path d="M670 184H502.5" stroke="#D3D7E0" stroke-width="2"/>
<path d="M678.62 190V178.48H683.172C683.396 178.48 683.724 178.496 684.02 178.544C685.884 178.832 686.868 180.28 686.868 182.112C686.868 183.632 686.188 184.888 684.884 185.432L687.108 190H685.476L683.412 185.744H680.044V190H678.62ZM680.044 184.392H683.124C683.324 184.392 683.604 184.376 683.844 184.32C684.948 184.072 685.412 183.072 685.412 182.112C685.412 181.152 684.948 180.152 683.844 179.904C683.604 179.848 683.324 179.832 683.124 179.832H680.044V184.392ZM690.878 190V180.056L688.71 181.368V179.776L690.878 178.48H692.326V190H690.878Z" fill="white"/>
<rect x="670" y="172" width="32" height="24" rx="1" stroke="#D3D7E0" stroke-width="2"/>
<path d="M792 184L791.293 184.707L790.586 184L791.293 183.293L792 184ZM799.293 175.293L800 174.586L801.414 176L800.707 176.707L799.293 175.293ZM800.707 191.293L801.414 192L800 193.414L799.293 192.707L800.707 191.293ZM802 185L792 185L792 183L802 183L802 185ZM791.293 183.293L799.293 175.293L800.707 176.707L792.707 184.707L791.293 183.293ZM792.707 183.293L800.707 191.293L799.293 192.707L791.293 184.707L792.707 183.293Z" fill="#D3D7E0"/>
<path d="M825.5 184H802" stroke="#D3D7E0" stroke-width="2"/>
<rect width="47" height="20" transform="translate(825.5 174)" fill="#1D1D29"/>
<path d="M830.573 189.992L830.581 188.712L835.693 184.112C836.541 183.352 836.773 182.688 836.773 181.96C836.773 180.632 835.781 179.6 834.453 179.6C833.077 179.6 832.069 180.696 832.085 181.952H830.629C830.629 179.784 832.261 178.24 834.477 178.24C836.613 178.24 838.229 179.856 838.229 181.976C838.229 183.488 837.661 184.248 836.477 185.296L832.765 188.632H838.229V189.992H830.573ZM844.031 190.24C841.791 190.24 840.143 188.592 840.143 186.352V182.128C840.143 179.888 841.791 178.24 844.031 178.24C846.271 178.24 847.919 179.888 847.919 182.128V186.352C847.919 188.592 846.271 190.24 844.031 190.24ZM841.591 186.432C841.591 187.784 842.679 188.872 844.031 188.872C845.383 188.872 846.471 187.784 846.471 186.432V182.04C846.471 180.688 845.383 179.6 844.031 179.6C842.679 179.6 841.591 180.688 841.591 182.04V186.432ZM854.127 190.24C852.959 190.24 852.055 189.784 851.423 189.024V190H850.151V178.48H851.583V182.144C852.199 181.496 853.055 181.12 854.135 181.12C856.535 181.12 857.999 183.08 857.999 185.672C857.999 188.264 856.543 190.24 854.127 190.24ZM851.423 185.672C851.423 187.568 852.207 188.936 853.951 188.936C855.655 188.936 856.487 187.512 856.487 185.672C856.487 183.848 855.671 182.424 853.911 182.424C852.223 182.424 851.423 183.76 851.423 185.672ZM863.721 190.24C862.649 190.24 861.793 189.856 861.177 189.2V193.84H859.745V181.36H861.017V182.328C861.649 181.568 862.553 181.12 863.729 181.12C866.129 181.12 867.593 183.08 867.593 185.672C867.593 188.264 866.137 190.24 863.721 190.24ZM861.017 185.672C861.017 187.568 861.801 188.936 863.545 188.936C865.249 188.936 866.081 187.512 866.081 185.672C866.081 183.848 865.265 182.424 863.505 182.424C861.817 182.424 861.017 183.76 861.017 185.672Z" fill="white"/>
<path d="M896 184H872.5" stroke="#D3D7E0" stroke-width="2"/>
<path d="M907.78 190V178.48H909.204V190H907.78ZM913.612 190V180.056L911.444 181.368V179.776L913.612 178.48H915.06V190H913.612Z" fill="white"/>
<rect x="896" y="172" width="32" height="24" rx="1" stroke="#D3D7E0" stroke-width="2"/>
<path d="M25.6881 142V129.29H20.7781V127.6H32.3781V129.29H27.4681V142H25.6881ZM39.8903 142.3C38.457 142.3 37.2403 141.983 36.2403 141.35C35.2403 140.717 34.477 139.837 33.9503 138.71C33.4303 137.583 33.1703 136.28 33.1703 134.8C33.1703 133.32 33.4303 132.017 33.9503 130.89C34.477 129.763 35.2403 128.883 36.2403 128.25C37.2403 127.617 38.457 127.3 39.8903 127.3C41.557 127.3 42.927 127.723 44.0003 128.57C45.0803 129.417 45.8236 130.557 46.2303 131.99L44.4203 132.47C44.127 131.397 43.6036 130.55 42.8503 129.93C42.097 129.31 41.1103 129 39.8903 129C38.817 129 37.9236 129.243 37.2103 129.73C36.497 130.217 35.9603 130.897 35.6003 131.77C35.2403 132.637 35.057 133.647 35.0503 134.8C35.0436 135.947 35.2203 136.957 35.5803 137.83C35.9403 138.697 36.4803 139.377 37.2003 139.87C37.9203 140.357 38.817 140.6 39.8903 140.6C41.1103 140.6 42.097 140.29 42.8503 139.67C43.6036 139.043 44.127 138.197 44.4203 137.13L46.2303 137.61C45.8236 139.037 45.0803 140.177 44.0003 141.03C42.927 141.877 41.557 142.3 39.8903 142.3ZM48.4234 142V127.6H54.1134C54.2534 127.6 54.4201 127.607 54.6134 127.62C54.8068 127.627 54.9934 127.647 55.1734 127.68C55.9534 127.8 56.6068 128.067 57.1334 128.48C57.6668 128.893 58.0668 129.417 58.3334 130.05C58.6001 130.677 58.7334 131.373 58.7334 132.14C58.7334 133.253 58.4434 134.22 57.8634 135.04C57.2834 135.853 56.4334 136.363 55.3134 136.57L54.6334 136.68H50.2034V142H48.4234ZM56.9934 142L54.1534 136.14L55.9134 135.6L59.0334 142H56.9934ZM50.2034 134.99H54.0534C54.1801 134.99 54.3234 134.983 54.4834 134.97C54.6501 134.957 54.8068 134.933 54.9534 134.9C55.4134 134.793 55.7868 134.6 56.0734 134.32C56.3668 134.033 56.5801 133.7 56.7134 133.32C56.8468 132.933 56.9134 132.54 56.9134 132.14C56.9134 131.74 56.8468 131.35 56.7134 130.97C56.5801 130.583 56.3668 130.247 56.0734 129.96C55.7868 129.673 55.4134 129.48 54.9534 129.38C54.8068 129.34 54.6501 129.317 54.4834 129.31C54.3234 129.297 54.1801 129.29 54.0534 129.29H50.2034V134.99ZM65.2298 146.8V131.2C65.2298 130.953 65.2465 130.71 65.2798 130.47C65.3198 130.23 65.3765 130 65.4498 129.78C65.6298 129.24 65.9098 128.787 66.2898 128.42C66.6698 128.047 67.1232 127.767 67.6498 127.58C68.1765 127.393 68.7498 127.3 69.3698 127.3C70.2032 127.3 70.9365 127.463 71.5698 127.79C72.2098 128.11 72.7098 128.563 73.0698 129.15C73.4298 129.737 73.6098 130.427 73.6098 131.22C73.6098 131.86 73.4798 132.433 73.2198 132.94C72.9665 133.447 72.5765 133.83 72.0498 134.09C72.4032 134.177 72.7432 134.323 73.0698 134.53C73.4032 134.737 73.7032 135 73.9698 135.32C74.2365 135.64 74.4465 136.02 74.5998 136.46C74.7598 136.9 74.8398 137.397 74.8398 137.95C74.8398 138.823 74.6432 139.587 74.2498 140.24C73.8565 140.887 73.2932 141.393 72.5598 141.76C71.8332 142.12 70.9598 142.3 69.9398 142.3C69.3265 142.3 68.7732 142.217 68.2798 142.05C67.7932 141.89 67.3698 141.67 67.0098 141.39V146.8H65.2298ZM70.0198 140.61C70.6132 140.61 71.1365 140.497 71.5898 140.27C72.0432 140.037 72.3965 139.717 72.6498 139.31C72.9032 138.897 73.0298 138.417 73.0298 137.87C73.0298 136.983 72.7032 136.313 72.0498 135.86C71.3965 135.4 70.5198 135.16 69.4198 135.14V133.54C69.8798 133.493 70.2865 133.38 70.6398 133.2C70.9998 133.02 71.2798 132.767 71.4798 132.44C71.6865 132.113 71.7898 131.713 71.7898 131.24C71.7898 130.527 71.5665 129.973 71.1198 129.58C70.6732 129.187 70.1032 128.99 69.4098 128.99C68.9698 128.99 68.5498 129.09 68.1498 129.29C67.7565 129.483 67.4665 129.813 67.2798 130.28C67.1798 130.54 67.1165 130.817 67.0898 131.11C67.0632 131.397 67.0498 131.647 67.0498 131.86V137.71C67.0498 137.903 67.0598 138.123 67.0798 138.37C67.1065 138.61 67.1465 138.823 67.1998 139.01C67.3665 139.523 67.7232 139.92 68.2698 140.2C68.8165 140.473 69.3998 140.61 70.0198 140.61Z" fill="white"/>
<path d="M25.3268 278V265.29H20.4168V263.6H32.0168V265.29H27.1068V278H25.3268ZM39.529 278.3C38.0957 278.3 36.879 277.983 35.879 277.35C34.879 276.717 34.1157 275.837 33.589 274.71C33.069 273.583 32.809 272.28 32.809 270.8C32.809 269.32 33.069 268.017 33.589 266.89C34.1157 265.763 34.879 264.883 35.879 264.25C36.879 263.617 38.0957 263.3 39.529 263.3C41.1957 263.3 42.5657 263.723 43.639 264.57C44.719 265.417 45.4623 266.557 45.869 267.99L44.059 268.47C43.7657 267.397 43.2423 266.55 42.489 265.93C41.7357 265.31 40.749 265 39.529 265C38.4557 265 37.5623 265.243 36.849 265.73C36.1357 266.217 35.599 266.897 35.239 267.77C34.879 268.637 34.6957 269.647 34.689 270.8C34.6823 271.947 34.859 272.957 35.219 273.83C35.579 274.697 36.119 275.377 36.839 275.87C37.559 276.357 38.4557 276.6 39.529 276.6C40.749 276.6 41.7357 276.29 42.489 275.67C43.2423 275.043 43.7657 274.197 44.059 273.13L45.869 273.61C45.4623 275.037 44.719 276.177 43.639 277.03C42.5657 277.877 41.1957 278.3 39.529 278.3ZM48.0621 278V263.6H53.7521C53.8921 263.6 54.0588 263.607 54.2521 263.62C54.4454 263.627 54.6321 263.647 54.8121 263.68C55.5921 263.8 56.2454 264.067 56.7721 264.48C57.3054 264.893 57.7054 265.417 57.9721 266.05C58.2388 266.677 58.3721 267.373 58.3721 268.14C58.3721 269.253 58.0821 270.22 57.5021 271.04C56.9221 271.853 56.0721 272.363 54.9521 272.57L54.2721 272.68H49.8421V278H48.0621ZM56.6321 278L53.7921 272.14L55.5521 271.6L58.6721 278H56.6321ZM49.8421 270.99H53.6921C53.8188 270.99 53.9621 270.983 54.1221 270.97C54.2888 270.957 54.4454 270.933 54.5921 270.9C55.0521 270.793 55.4254 270.6 55.7121 270.32C56.0054 270.033 56.2188 269.7 56.3521 269.32C56.4854 268.933 56.5521 268.54 56.5521 268.14C56.5521 267.74 56.4854 267.35 56.3521 266.97C56.2188 266.583 56.0054 266.247 55.7121 265.96C55.4254 265.673 55.0521 265.48 54.5921 265.38C54.4454 265.34 54.2888 265.317 54.1221 265.31C53.9621 265.297 53.8188 265.29 53.6921 265.29H49.8421V270.99ZM69.1485 278.3C68.1285 278.3 67.2552 278.05 66.5285 277.55C65.8018 277.043 65.2452 276.36 64.8585 275.5C64.4718 274.64 64.2785 273.673 64.2785 272.6C64.2785 271.513 64.4718 270.543 64.8585 269.69C65.2518 268.83 65.8152 268.15 66.5485 267.65C67.2818 267.15 68.1652 266.9 69.1985 266.9C70.1652 266.9 70.9852 267.143 71.6585 267.63C72.3385 268.11 72.8185 268.777 73.0985 269.63L72.7985 270.15V267.2H74.3885V278H72.7985V275.02L73.0985 275.54C72.8185 276.4 72.3285 277.077 71.6285 277.57C70.9352 278.057 70.1085 278.3 69.1485 278.3ZM69.3685 276.67C70.0818 276.67 70.6685 276.497 71.1285 276.15C71.5952 275.797 71.9385 275.313 72.1585 274.7C72.3852 274.08 72.4985 273.377 72.4985 272.59C72.4985 271.79 72.3852 271.087 72.1585 270.48C71.9385 269.867 71.5985 269.39 71.1385 269.05C70.6785 268.703 70.0952 268.53 69.3885 268.53C68.6885 268.53 68.0985 268.703 67.6185 269.05C67.1385 269.39 66.7752 269.867 66.5285 270.48C66.2885 271.087 66.1685 271.793 66.1685 272.6C66.1685 273.36 66.2852 274.047 66.5185 274.66C66.7518 275.273 67.1052 275.763 67.5785 276.13C68.0518 276.49 68.6485 276.67 69.3685 276.67Z" fill="white"/>
<defs>
<filter id="filter0_i_6921_6386" x="94.7373" y="107" width="362.263" height="54" filterUnits="userSpaceOnUse" color-interpolation-filters="sRGB">
<feFlood flood-opacity="0" result="BackgroundImageFix"/>
<feBlend mode="normal" in="SourceGraphic" in2="BackgroundImageFix" result="shape"/>
<feColorMatrix in="SourceAlpha" type="matrix" values="0 0 0 0 0 0 0 0 0 0 0 0 0 0 0 0 0 0 127 0" result="hardAlpha"/>
<feOffset dx="-8" dy="-4"/>
<feComposite in2="hardAlpha" operator="arithmetic" k2="-1" k3="1"/>
<feColorMatrix type="matrix" values="0 0 0 0 0.0666667 0 0 0 0 0.0196078 0 0 0 0 0.160784 0 0 0 0.16 0"/>
<feBlend mode="normal" in2="shape" result="effect1_innerShadow_6921_6386"/>
</filter>
<filter id="filter1_i_6921_6386" x="455" y="107" width="32" height="54" filterUnits="userSpaceOnUse" color-interpolation-filters="sRGB">
<feFlood flood-opacity="0" result="BackgroundImageFix"/>
<feBlend mode="normal" in="SourceGraphic" in2="BackgroundImageFix" result="shape"/>
<feColorMatrix in="SourceAlpha" type="matrix" values="0 0 0 0 0 0 0 0 0 0 0 0 0 0 0 0 0 0 127 0" result="hardAlpha"/>
<feOffset dx="-8" dy="-4"/>
<feComposite in2="hardAlpha" operator="arithmetic" k2="-1" k3="1"/>
<feColorMatrix type="matrix" values="0 0 0 0 0.0666667 0 0 0 0 0.0196078 0 0 0 0 0.160784 0 0 0 0.16 0"/>
<feBlend mode="normal" in2="shape" result="effect1_innerShadow_6921_6386"/>
</filter>
<filter id="filter2_i_6921_6386" x="521" y="107" width="32" height="54" filterUnits="userSpaceOnUse" color-interpolation-filters="sRGB">
<feFlood flood-opacity="0" result="BackgroundImageFix"/>
<feBlend mode="normal" in="SourceGraphic" in2="BackgroundImageFix" result="shape"/>
<feColorMatrix in="SourceAlpha" type="matrix" values="0 0 0 0 0 0 0 0 0 0 0 0 0 0 0 0 0 0 127 0" result="hardAlpha"/>
<feOffset dx="-8" dy="-4"/>
<feComposite in2="hardAlpha" operator="arithmetic" k2="-1" k3="1"/>
<feColorMatrix type="matrix" values="0 0 0 0 0.0666667 0 0 0 0 0.0196078 0 0 0 0 0.160784 0 0 0 0.16 0"/>
<feBlend mode="normal" in2="shape" result="effect1_innerShadow_6921_6386"/>
</filter>
<filter id="filter3_i_6921_6386" x="485" y="107" width="38" height="54" filterUnits="userSpaceOnUse" color-interpolation-filters="sRGB">
<feFlood flood-opacity="0" result="BackgroundImageFix"/>
<feBlend mode="normal" in="SourceGraphic" in2="BackgroundImageFix" result="shape"/>
<feColorMatrix in="SourceAlpha" type="matrix" values="0 0 0 0 0 0 0 0 0 0 0 0 0 0 0 0 0 0 127 0" result="hardAlpha"/>
<feOffset dx="-8" dy="-4"/>
<feComposite in2="hardAlpha" operator="arithmetic" k2="-1" k3="1"/>
<feColorMatrix type="matrix" values="0 0 0 0 0.0666667 0 0 0 0 0.0196078 0 0 0 0 0.160784 0 0 0 0.16 0"/>
<feBlend mode="normal" in2="shape" result="effect1_innerShadow_6921_6386"/>
</filter>
<filter id="filter4_i_6921_6386" x="551" y="107" width="98" height="54" filterUnits="userSpaceOnUse" color-interpolation-filters="sRGB">
<feFlood flood-opacity="0" result="BackgroundImageFix"/>
<feBlend mode="normal" in="SourceGraphic" in2="BackgroundImageFix" result="shape"/>
<feColorMatrix in="SourceAlpha" type="matrix" values="0 0 0 0 0 0 0 0 0 0 0 0 0 0 0 0 0 0 127 0" result="hardAlpha"/>
<feOffset dx="-8" dy="-4"/>
<feComposite in2="hardAlpha" operator="arithmetic" k2="-1" k3="1"/>
<feColorMatrix type="matrix" values="0 0 0 0 0.0666667 0 0 0 0 0.0196078 0 0 0 0 0.160784 0 0 0 0.16 0"/>
<feBlend mode="normal" in2="shape" result="effect1_innerShadow_6921_6386"/>
</filter>
<filter id="filter5_i_6921_6386" x="647" y="107" width="146" height="54" filterUnits="userSpaceOnUse" color-interpolation-filters="sRGB">
<feFlood flood-opacity="0" result="BackgroundImageFix"/>
<feBlend mode="normal" in="SourceGraphic" in2="BackgroundImageFix" result="shape"/>
<feColorMatrix in="SourceAlpha" type="matrix" values="0 0 0 0 0 0 0 0 0 0 0 0 0 0 0 0 0 0 127 0" result="hardAlpha"/>
<feOffset dx="-8" dy="-4"/>
<feComposite in2="hardAlpha" operator="arithmetic" k2="-1" k3="1"/>
<feColorMatrix type="matrix" values="0 0 0 0 0.0666667 0 0 0 0 0.0196078 0 0 0 0 0.160784 0 0 0 0.16 0"/>
<feBlend mode="normal" in2="shape" result="effect1_innerShadow_6921_6386"/>
</filter>
<filter id="filter6_i_6921_6386" x="791" y="107" width="66" height="54" filterUnits="userSpaceOnUse" color-interpolation-filters="sRGB">
<feFlood flood-opacity="0" result="BackgroundImageFix"/>
<feBlend mode="normal" in="SourceGraphic" in2="BackgroundImageFix" result="shape"/>
<feColorMatrix in="SourceAlpha" type="matrix" values="0 0 0 0 0 0 0 0 0 0 0 0 0 0 0 0 0 0 127 0" result="hardAlpha"/>
<feOffset dx="-8" dy="-4"/>
<feComposite in2="hardAlpha" operator="arithmetic" k2="-1" k3="1"/>
<feColorMatrix type="matrix" values="0 0 0 0 0.0666667 0 0 0 0 0.0196078 0 0 0 0 0.160784 0 0 0 0.16 0"/>
<feBlend mode="normal" in2="shape" result="effect1_innerShadow_6921_6386"/>
</filter>
<filter id="filter7_i_6921_6386" x="855" y="107" width="74" height="54" filterUnits="userSpaceOnUse" color-interpolation-filters="sRGB">
<feFlood flood-opacity="0" result="BackgroundImageFix"/>
<feBlend mode="normal" in="SourceGraphic" in2="BackgroundImageFix" result="shape"/>
<feColorMatrix in="SourceAlpha" type="matrix" values="0 0 0 0 0 0 0 0 0 0 0 0 0 0 0 0 0 0 127 0" result="hardAlpha"/>
<feOffset dx="-8" dy="-4"/>
<feComposite in2="hardAlpha" operator="arithmetic" k2="-1" k3="1"/>
<feColorMatrix type="matrix" values="0 0 0 0 0.0666667 0 0 0 0 0.0196078 0 0 0 0 0.160784 0 0 0 0.16 0"/>
<feBlend mode="normal" in2="shape" result="effect1_innerShadow_6921_6386"/>
</filter>
<filter id="filter8_i_6921_6386" x="94.7373" y="243" width="362.263" height="54" filterUnits="userSpaceOnUse" color-interpolation-filters="sRGB">
<feFlood flood-opacity="0" result="BackgroundImageFix"/>
<feBlend mode="normal" in="SourceGraphic" in2="BackgroundImageFix" result="shape"/>
<feColorMatrix in="SourceAlpha" type="matrix" values="0 0 0 0 0 0 0 0 0 0 0 0 0 0 0 0 0 0 127 0" result="hardAlpha"/>
<feOffset dx="-8" dy="-4"/>
<feComposite in2="hardAlpha" operator="arithmetic" k2="-1" k3="1"/>
<feColorMatrix type="matrix" values="0 0 0 0 0.0666667 0 0 0 0 0.0196078 0 0 0 0 0.160784 0 0 0 0.16 0"/>
<feBlend mode="normal" in2="shape" result="effect1_innerShadow_6921_6386"/>
</filter>
<filter id="filter9_i_6921_6386" x="455" y="243" width="32" height="54" filterUnits="userSpaceOnUse" color-interpolation-filters="sRGB">
<feFlood flood-opacity="0" result="BackgroundImageFix"/>
<feBlend mode="normal" in="SourceGraphic" in2="BackgroundImageFix" result="shape"/>
<feColorMatrix in="SourceAlpha" type="matrix" values="0 0 0 0 0 0 0 0 0 0 0 0 0 0 0 0 0 0 127 0" result="hardAlpha"/>
<feOffset dx="-8" dy="-4"/>
<feComposite in2="hardAlpha" operator="arithmetic" k2="-1" k3="1"/>
<feColorMatrix type="matrix" values="0 0 0 0 0.0666667 0 0 0 0 0.0196078 0 0 0 0 0.160784 0 0 0 0.16 0"/>
<feBlend mode="normal" in2="shape" result="effect1_innerShadow_6921_6386"/>
</filter>
<filter id="filter10_i_6921_6386" x="485" y="243" width="98" height="54" filterUnits="userSpaceOnUse" color-interpolation-filters="sRGB">
<feFlood flood-opacity="0" result="BackgroundImageFix"/>
<feBlend mode="normal" in="SourceGraphic" in2="BackgroundImageFix" result="shape"/>
<feColorMatrix in="SourceAlpha" type="matrix" values="0 0 0 0 0 0 0 0 0 0 0 0 0 0 0 0 0 0 127 0" result="hardAlpha"/>
<feOffset dx="-8" dy="-4"/>
<feComposite in2="hardAlpha" operator="arithmetic" k2="-1" k3="1"/>
<feColorMatrix type="matrix" values="0 0 0 0 0.0666667 0 0 0 0 0.0196078 0 0 0 0 0.160784 0 0 0 0.16 0"/>
<feBlend mode="normal" in2="shape" result="effect1_innerShadow_6921_6386"/>
</filter>
<filter id="filter11_i_6921_6386" x="581" y="243" width="146" height="54" filterUnits="userSpaceOnUse" color-interpolation-filters="sRGB">
<feFlood flood-opacity="0" result="BackgroundImageFix"/>
<feBlend mode="normal" in="SourceGraphic" in2="BackgroundImageFix" result="shape"/>
<feColorMatrix in="SourceAlpha" type="matrix" values="0 0 0 0 0 0 0 0 0 0 0 0 0 0 0 0 0 0 127 0" result="hardAlpha"/>
<feOffset dx="-8" dy="-4"/>
<feComposite in2="hardAlpha" operator="arithmetic" k2="-1" k3="1"/>
<feColorMatrix type="matrix" values="0 0 0 0 0.0666667 0 0 0 0 0.0196078 0 0 0 0 0.160784 0 0 0 0.16 0"/>
<feBlend mode="normal" in2="shape" result="effect1_innerShadow_6921_6386"/>
</filter>
<filter id="filter12_i_6921_6386" x="725" y="243" width="66" height="54" filterUnits="userSpaceOnUse" color-interpolation-filters="sRGB">
<feFlood flood-opacity="0" result="BackgroundImageFix"/>
<feBlend mode="normal" in="SourceGraphic" in2="BackgroundImageFix" result="shape"/>
<feColorMatrix in="SourceAlpha" type="matrix" values="0 0 0 0 0 0 0 0 0 0 0 0 0 0 0 0 0 0 127 0" result="hardAlpha"/>
<feOffset dx="-8" dy="-4"/>
<feComposite in2="hardAlpha" operator="arithmetic" k2="-1" k3="1"/>
<feColorMatrix type="matrix" values="0 0 0 0 0.0666667 0 0 0 0 0.0196078 0 0 0 0 0.160784 0 0 0 0.16 0"/>
<feBlend mode="normal" in2="shape" result="effect1_innerShadow_6921_6386"/>
</filter>
<filter id="filter13_i_6921_6386" x="789" y="243" width="74" height="54" filterUnits="userSpaceOnUse" color-interpolation-filters="sRGB">
<feFlood flood-opacity="0" result="BackgroundImageFix"/>
<feBlend mode="normal" in="SourceGraphic" in2="BackgroundImageFix" result="shape"/>
<feColorMatrix in="SourceAlpha" type="matrix" values="0 0 0 0 0 0 0 0 0 0 0 0 0 0 0 0 0 0 127 0" result="hardAlpha"/>
<feOffset dx="-8" dy="-4"/>
<feComposite in2="hardAlpha" operator="arithmetic" k2="-1" k3="1"/>
<feColorMatrix type="matrix" values="0 0 0 0 0.0666667 0 0 0 0 0.0196078 0 0 0 0 0.160784 0 0 0 0.16 0"/>
<feBlend mode="normal" in2="shape" result="effect1_innerShadow_6921_6386"/>
</filter>
</defs>
</svg>
