<svg width="960" height="404" viewBox="0 0 960 404" fill="none" xmlns="http://www.w3.org/2000/svg">
    <rect width="960" height="404" fill="#1D1D29"/>
    <path d="M788 112V24" stroke="white" stroke-opacity="0.3" stroke-width="2" stroke-linecap="square" stroke-dasharray="6 6"/>
    <path d="M884 112V24" stroke="white" stroke-opacity="0.3" stroke-width="2" stroke-linecap="square" stroke-dasharray="6 6"/>
    <rect x="767" y="57" width="136" height="21" fill="#1D1D29"/>
    <path d="M25.1881 142H26.9681V129.29H31.8781V127.6H20.2781V129.29H25.1881V142ZM39.3903 142.3C42.7203 142.3 44.9103 140.47 45.7303 137.61L43.9203 137.13C43.3303 139.27 41.8203 140.6 39.3903 140.6C36.1703 140.6 34.5303 138.25 34.5503 134.8C34.5703 131.35 36.1703 129 39.3903 129C41.8203 129 43.3303 130.33 43.9203 132.47L45.7303 131.99C44.9103 129.13 42.7203 127.3 39.3903 127.3C35.0803 127.3 32.6703 130.36 32.6703 134.8C32.6703 139.24 35.0803 142.3 39.3903 142.3ZM47.9234 142H49.7034V136.68H53.9134L56.4934 142H58.5334L55.7534 136.29C57.3834 135.61 58.2334 134.04 58.2334 132.14C58.2334 129.85 57.0034 128.04 54.6734 127.68C54.3034 127.62 53.8934 127.6 53.6134 127.6H47.9234V142ZM49.7034 134.99V129.29H53.5534C53.8034 129.29 54.1534 129.31 54.4534 129.38C55.8334 129.69 56.4134 130.94 56.4134 132.14C56.4134 133.34 55.8334 134.59 54.4534 134.9C54.1534 134.97 53.8034 134.99 53.5534 134.99H49.7034ZM64.7298 131.2V146.8H66.5098V141.39C67.2198 141.96 68.2098 142.3 69.4398 142.3C72.4898 142.3 74.3398 140.57 74.3398 137.95C74.3398 135.74 72.9398 134.44 71.5498 134.09C72.5998 133.58 73.1098 132.5 73.1098 131.22C73.1098 128.84 71.3598 127.3 68.8698 127.3C67.0098 127.3 65.4798 128.16 64.9498 129.78C64.7998 130.23 64.7298 130.71 64.7298 131.2ZM66.5498 137.71V131.86C66.5498 131.44 66.5698 130.8 66.7798 130.28C67.1398 129.35 68.0198 128.99 68.9098 128.99C70.2898 128.99 71.2898 129.82 71.2898 131.24C71.2898 132.67 70.2898 133.4 68.9198 133.54V135.14C71.1098 135.18 72.5298 136.1 72.5298 137.87C72.5298 139.52 71.2898 140.61 69.5198 140.61C68.2698 140.61 67.0298 140.04 66.6998 139.01C66.5798 138.64 66.5498 138.1 66.5498 137.71Z" fill="white"/>
    <path d="M25.3268 302H27.1068V289.29H32.0168V287.6H20.4168V289.29H25.3268V302ZM39.529 302.3C42.859 302.3 45.049 300.47 45.869 297.61L44.059 297.13C43.469 299.27 41.959 300.6 39.529 300.6C36.309 300.6 34.669 298.25 34.689 294.8C34.709 291.35 36.309 289 39.529 289C41.959 289 43.469 290.33 44.059 292.47L45.869 291.99C45.049 289.13 42.859 287.3 39.529 287.3C35.219 287.3 32.809 290.36 32.809 294.8C32.809 299.24 35.219 302.3 39.529 302.3ZM48.0621 302H49.8421V296.68H54.0521L56.6321 302H58.6721L55.8921 296.29C57.5221 295.61 58.3721 294.04 58.3721 292.14C58.3721 289.85 57.1421 288.04 54.8121 287.68C54.4421 287.62 54.0321 287.6 53.7521 287.6H48.0621V302ZM49.8421 294.99V289.29H53.6921C53.9421 289.29 54.2921 289.31 54.5921 289.38C55.9721 289.69 56.5521 290.94 56.5521 292.14C56.5521 293.34 55.9721 294.59 54.5921 294.9C54.2921 294.97 53.9421 294.99 53.6921 294.99H49.8421ZM69.1485 302.3C70.7885 302.3 72.0985 301.54 72.7985 300.24V302H74.3885V291.2H72.7985V292.93C72.1085 291.65 70.8485 290.9 69.1985 290.9C66.0985 290.9 64.2785 293.35 64.2785 296.6C64.2785 299.83 66.0885 302.3 69.1485 302.3ZM66.1685 296.6C66.1685 294.19 67.2785 292.53 69.3885 292.53C71.4985 292.53 72.4985 294.2 72.4985 296.59C72.4985 298.96 71.5085 300.67 69.3685 300.67C67.1985 300.67 66.1685 298.88 66.1685 296.6Z" fill="white"/>
    <path d="M740 112V24" stroke="white" stroke-opacity="0.3" stroke-width="2" stroke-linecap="square" stroke-dasharray="6 6"/>
    <path d="M212 112V24" stroke="white" stroke-opacity="0.3" stroke-width="2" stroke-linecap="square" stroke-dasharray="6 6"/>
    <path d="M226.268 37.21C228.151 37.21 229.768 35.705 229.768 33.829C229.768 31.939 228.382 30.525 226.499 30.525C225.904 30.525 225.274 30.714 224.777 31.071L224.945 28.299H229.075V26.92H223.636L223.328 32.219L224.602 32.667C224.917 32.247 225.484 31.855 226.31 31.855C227.388 31.855 228.291 32.723 228.291 33.829C228.291 34.907 227.416 35.796 226.31 35.796C225.47 35.796 224.637 35.229 224.406 34.333L222.999 34.711C223.412 36.181 224.714 37.21 226.268 37.21ZM231.672 29.629L231.581 30.28C232.589 30.462 233.128 29.846 233.128 28.747V26.92H231.581V28.607H232.386C232.456 29.202 232.281 29.678 231.672 29.629ZM239.15 37.21C241.523 37.21 243.168 35.663 243.168 33.29V26.92H241.684V33.213C241.684 34.914 240.417 35.831 239.15 35.831C237.897 35.831 236.616 34.935 236.616 33.213V26.92L235.132 26.927V33.29C235.132 35.663 236.777 37.21 239.15 37.21ZM247.639 37H249.102V28.299H252.455V26.92H244.286V28.299H247.639V37ZM253.576 37H255.039V33.381H257.713L259.47 37H261.143L259.239 33.094C260.38 32.597 260.954 31.491 260.954 30.147C260.954 28.516 260.114 27.235 258.427 26.976C258.161 26.934 257.846 26.92 257.65 26.92H253.576V37ZM255.039 31.995V28.299H257.594C257.776 28.299 258.021 28.313 258.231 28.369C259.127 28.579 259.463 29.405 259.463 30.147C259.463 30.889 259.127 31.715 258.231 31.932C258.021 31.981 257.776 31.995 257.594 31.995H255.039Z" fill="white" fill-opacity="0.3"/>
    <path d="M272 112V24" stroke="white" stroke-opacity="0.3" stroke-width="2" stroke-linecap="square" stroke-dasharray="6 6"/>
    <path d="M281.442 37H287.469V35.621H282.905V26.92H281.442V37Z" fill="white" fill-opacity="0.3"/>
    <path d="M296 112V24" stroke="white" stroke-opacity="0.3" stroke-width="2" stroke-linecap="square" stroke-dasharray="6 6"/>
    <path d="M309.858 37H311.321V32.695H314.989V31.225H311.321V28.383H315.829V26.92H309.858V37ZM317.09 37H318.553V33.381H321.227L322.984 37H324.657L322.753 33.094C323.894 32.597 324.468 31.491 324.468 30.147C324.468 28.516 323.628 27.235 321.941 26.976C321.675 26.934 321.36 26.92 321.164 26.92H317.09V37ZM318.553 31.995V28.299H321.108C321.29 28.299 321.535 28.313 321.745 28.369C322.641 28.579 322.977 29.405 322.977 30.147C322.977 30.889 322.641 31.715 321.745 31.932C321.535 31.981 321.29 31.995 321.108 31.995H318.553ZM327.953 37H329.444V26.92H327.953L326.056 28.054V29.685L327.953 28.53V37Z" fill="white" fill-opacity="0.3"/>
    <path d="M344 112V24" stroke="white" stroke-opacity="0.3" stroke-width="2" stroke-linecap="square" stroke-dasharray="6 6"/>
    <path d="M355.735 37.21C358.059 37.21 359.62 35.943 360.215 33.955L358.731 33.556C358.332 34.963 357.331 35.817 355.735 35.817C353.593 35.817 352.501 34.27 352.515 31.96C352.522 29.65 353.593 28.103 355.735 28.103C357.331 28.103 358.332 28.957 358.731 30.364L360.215 29.965C359.62 27.977 358.059 26.71 355.735 26.71C352.711 26.71 350.968 28.845 350.968 31.96C350.968 35.075 352.711 37.21 355.735 37.21ZM361.754 37H364.911C365.093 37 365.695 37 366.164 36.937C368.53 36.636 369.79 34.529 369.79 31.96C369.79 29.391 368.53 27.284 366.164 26.983C365.695 26.92 365.093 26.92 364.911 26.92H361.754V37ZM363.252 35.607V28.313H364.911C365.219 28.313 365.723 28.32 366.059 28.383C367.571 28.663 368.236 30.189 368.236 31.96C368.236 33.689 367.599 35.243 366.059 35.537C365.723 35.6 365.233 35.607 364.911 35.607H363.252ZM371.42 37H372.883V33.381H375.557L377.314 37H378.987L377.083 33.094C378.224 32.597 378.798 31.491 378.798 30.147C378.798 28.516 377.958 27.235 376.271 26.976C376.005 26.934 375.69 26.92 375.494 26.92H371.42V37ZM372.883 31.995V28.299H375.438C375.62 28.299 375.865 28.313 376.075 28.369C376.971 28.579 377.307 29.405 377.307 30.147C377.307 30.889 376.971 31.715 376.075 31.932C375.865 31.981 375.62 31.995 375.438 31.995H372.883ZM382.283 37H383.774V26.92H382.283L380.386 28.054V29.685L382.283 28.53V37Z" fill="white" fill-opacity="0.3"/>
    <path d="M392 112V24" stroke="white" stroke-opacity="0.3" stroke-width="2" stroke-linecap="square" stroke-dasharray="6 6"/>
    <path d="M404.703 37H406.166V32.695H409.834V31.225H406.166V28.383H410.674V26.92H404.703V37ZM411.935 37H413.398V33.381H416.072L417.829 37H419.502L417.598 33.094C418.739 32.597 419.313 31.491 419.313 30.147C419.313 28.516 418.473 27.235 416.786 26.976C416.52 26.934 416.205 26.92 416.009 26.92H411.935V37ZM413.398 31.995V28.299H415.953C416.135 28.299 416.38 28.313 416.59 28.369C417.486 28.579 417.822 29.405 417.822 30.147C417.822 30.889 417.486 31.715 416.59 31.932C416.38 31.981 416.135 31.995 415.953 31.995H413.398ZM420.761 36.993H427.579V35.6H423.022L425.941 32.996C427.033 32.037 427.579 31.407 427.579 30.028C427.579 28.117 426.144 26.71 424.24 26.71C422.231 26.71 420.796 28.047 420.796 30H422.294C422.28 28.985 423.092 28.103 424.212 28.103C425.297 28.103 426.074 28.929 426.074 30.007C426.074 30.581 425.864 31.127 425.157 31.757L420.768 35.691L420.761 36.993Z" fill="white" fill-opacity="0.3"/>
    <path d="M440 112V24" stroke="white" stroke-opacity="0.3" stroke-width="2" stroke-linecap="square" stroke-dasharray="6 6"/>
    <path d="M450.58 37.21C452.904 37.21 454.465 35.943 455.06 33.955L453.576 33.556C453.177 34.963 452.176 35.817 450.58 35.817C448.438 35.817 447.346 34.27 447.36 31.96C447.367 29.65 448.438 28.103 450.58 28.103C452.176 28.103 453.177 28.957 453.576 30.364L455.06 29.965C454.465 27.977 452.904 26.71 450.58 26.71C447.556 26.71 445.813 28.845 445.813 31.96C445.813 35.075 447.556 37.21 450.58 37.21ZM456.599 37H459.756C459.938 37 460.54 37 461.009 36.937C463.375 36.636 464.635 34.529 464.635 31.96C464.635 29.391 463.375 27.284 461.009 26.983C460.54 26.92 459.938 26.92 459.756 26.92H456.599V37ZM458.097 35.607V28.313H459.756C460.064 28.313 460.568 28.32 460.904 28.383C462.416 28.663 463.081 30.189 463.081 31.96C463.081 33.689 462.444 35.243 460.904 35.537C460.568 35.6 460.078 35.607 459.756 35.607H458.097ZM466.265 37H467.728V33.381H470.402L472.159 37H473.832L471.928 33.094C473.069 32.597 473.643 31.491 473.643 30.147C473.643 28.516 472.803 27.235 471.116 26.976C470.85 26.934 470.535 26.92 470.339 26.92H466.265V37ZM467.728 31.995V28.299H470.283C470.465 28.299 470.71 28.313 470.92 28.369C471.816 28.579 472.152 29.405 472.152 30.147C472.152 30.889 471.816 31.715 470.92 31.932C470.71 31.981 470.465 31.995 470.283 31.995H467.728ZM475.091 36.993H481.909V35.6H477.352L480.271 32.996C481.363 32.037 481.909 31.407 481.909 30.028C481.909 28.117 480.474 26.71 478.57 26.71C476.561 26.71 475.126 28.047 475.126 30H476.624C476.61 28.985 477.422 28.103 478.542 28.103C479.627 28.103 480.404 28.929 480.404 30.007C480.404 30.581 480.194 31.127 479.487 31.757L475.098 35.691L475.091 36.993Z" fill="white" fill-opacity="0.3"/>
    <path d="M488 112V24" stroke="white" stroke-opacity="0.3" stroke-width="2" stroke-linecap="square" stroke-dasharray="6 6"/>
    <path d="M500.805 37H502.268V32.695H505.936V31.225H502.268V28.383H506.776V26.92H500.805V37ZM508.038 37H509.501V33.381H512.175L513.932 37H515.605L513.701 33.094C514.842 32.597 515.416 31.491 515.416 30.147C515.416 28.516 514.576 27.235 512.889 26.976C512.623 26.934 512.308 26.92 512.112 26.92H508.038V37ZM509.501 31.995V28.299H512.056C512.238 28.299 512.483 28.313 512.693 28.369C513.589 28.579 513.925 29.405 513.925 30.147C513.925 30.889 513.589 31.715 512.693 31.932C512.483 31.981 512.238 31.995 512.056 31.995H509.501ZM519.964 37.189C521.847 37.189 523.331 35.796 523.331 33.871C523.331 32.233 522.323 30.924 520.692 30.707L523.184 28.313V26.92H517.122V28.313H521.392L518.312 31.036L518.998 32.191C519.285 32.037 519.628 31.939 519.95 31.939C521.07 31.939 521.833 32.751 521.833 33.871C521.833 34.984 521.07 35.789 519.964 35.803C519.138 35.81 518.403 35.341 518.137 34.466L516.723 34.858C517.15 36.293 518.466 37.189 519.964 37.189Z" fill="white" fill-opacity="0.3"/>
    <path d="M536 112V24" stroke="white" stroke-opacity="0.3" stroke-width="2" stroke-linecap="square" stroke-dasharray="6 6"/>
    <path d="M172 46L172 110" stroke="white" stroke-opacity="0.3" stroke-width="2" stroke-linecap="square" stroke-dasharray="6 6"/>
    <path d="M158.509 37.21C161.442 37.21 163.108 35.166 163.108 32.359C163.108 32.289 163.101 31.939 163.08 31.764H159.566V32.94H161.526C161.323 34.809 160.322 35.838 158.593 35.817C156.451 35.803 155.373 34.27 155.38 31.96C155.387 29.65 156.451 28.089 158.593 28.103C159.979 28.117 160.903 28.887 161.309 30.091L162.793 29.825C162.275 27.886 160.875 26.717 158.509 26.717C155.751 26.717 153.826 28.705 153.826 31.96C153.826 35.264 155.807 37.21 158.509 37.21ZM166.743 37H168.206V28.299H171.559V26.92H163.39V28.299H166.743V37ZM171.706 37H173.225L173.96 34.725H178.097L178.846 37H180.365L177.089 26.92H174.982L171.706 37ZM174.408 33.353L176.018 28.383L177.649 33.353H174.408ZM185.554 37.21C187.878 37.21 189.439 35.943 190.034 33.955L188.55 33.556C188.151 34.963 187.15 35.817 185.554 35.817C183.412 35.817 182.32 34.27 182.334 31.96C182.341 29.65 183.412 28.103 185.554 28.103C187.15 28.103 188.151 28.957 188.55 30.364L190.034 29.965C189.439 27.977 187.878 26.71 185.554 26.71C182.53 26.71 180.787 28.845 180.787 31.96C180.787 35.075 182.53 37.21 185.554 37.21Z" fill="white"/>
    <path d="M582.682 37.21C585.006 37.21 586.567 35.943 587.162 33.955L585.678 33.556C585.279 34.963 584.278 35.817 582.682 35.817C580.54 35.817 579.448 34.27 579.462 31.96C579.469 29.65 580.54 28.103 582.682 28.103C584.278 28.103 585.279 28.957 585.678 30.364L587.162 29.965C586.567 27.977 585.006 26.71 582.682 26.71C579.658 26.71 577.915 28.845 577.915 31.96C577.915 35.075 579.658 37.21 582.682 37.21ZM588.702 37H591.859C592.041 37 592.643 37 593.112 36.937C595.478 36.636 596.738 34.529 596.738 31.96C596.738 29.391 595.478 27.284 593.112 26.983C592.643 26.92 592.041 26.92 591.859 26.92H588.702V37ZM590.2 35.607V28.313H591.859C592.167 28.313 592.671 28.32 593.007 28.383C594.519 28.663 595.184 30.189 595.184 31.96C595.184 33.689 594.547 35.243 593.007 35.537C592.671 35.6 592.181 35.607 591.859 35.607H590.2ZM598.368 37H599.831V33.381H602.505L604.262 37H605.935L604.031 33.094C605.172 32.597 605.746 31.491 605.746 30.147C605.746 28.516 604.906 27.235 603.219 26.976C602.953 26.934 602.638 26.92 602.442 26.92H598.368V37ZM599.831 31.995V28.299H602.386C602.568 28.299 602.813 28.313 603.023 28.369C603.919 28.579 604.255 29.405 604.255 30.147C604.255 30.889 603.919 31.715 603.023 31.932C602.813 31.981 602.568 31.995 602.386 31.995H599.831ZM610.294 37.189C612.177 37.189 613.661 35.796 613.661 33.871C613.661 32.233 612.653 30.924 611.022 30.707L613.514 28.313V26.92H607.452V28.313H611.722L608.642 31.036L609.328 32.191C609.615 32.037 609.958 31.939 610.28 31.939C611.4 31.939 612.163 32.751 612.163 33.871C612.163 34.984 611.4 35.789 610.294 35.803C609.468 35.81 608.733 35.341 608.467 34.466L607.053 34.858C607.48 36.293 608.796 37.189 610.294 37.189Z" fill="white" fill-opacity="0.3"/>
    <path d="M656 112V24" stroke="white" stroke-opacity="0.3" stroke-width="2" stroke-linecap="square" stroke-dasharray="6 6"/>
    <path d="M686.593 37H688.056V32.695H691.724V31.225H688.056V28.383H692.564V26.92H686.593V37ZM693.826 37H695.289V33.381H697.963L699.72 37H701.393L699.489 33.094C700.63 32.597 701.204 31.491 701.204 30.147C701.204 28.516 700.364 27.235 698.677 26.976C698.411 26.934 698.096 26.92 697.9 26.92H693.826V37ZM695.289 31.995V28.299H697.844C698.026 28.299 698.271 28.313 698.481 28.369C699.377 28.579 699.713 29.405 699.713 30.147C699.713 30.889 699.377 31.715 698.481 31.932C698.271 31.981 698.026 31.995 697.844 31.995H695.289ZM707.201 37H708.685V35.243H709.686V33.857H708.685V31.127H707.201V33.857H704.324L707.6 26.92H705.927L702.651 33.857V35.243H707.201V37Z" fill="white" fill-opacity="0.3"/>
    <path d="M783.184 72.24C785.848 72.24 787.6 70.776 788.256 68.488L786.808 68.104C786.336 69.816 785.128 70.88 783.184 70.88C780.608 70.88 779.296 69 779.312 66.24C779.328 63.48 780.608 61.6 783.184 61.6C785.128 61.6 786.336 62.664 786.808 64.376L788.256 63.992C787.6 61.704 785.848 60.24 783.184 60.24C779.736 60.24 777.808 62.688 777.808 66.24C777.808 69.792 779.736 72.24 783.184 72.24ZM789.851 67.544H794.651V66.368H789.851V67.544ZM796.729 72H798.161V67.664C798.161 66.64 798.369 65.624 799.209 65.024C799.809 64.584 800.585 64.544 801.185 64.696V63.36C800.417 63.192 799.401 63.352 798.737 63.888C798.449 64.096 798.193 64.392 798.001 64.728V63.36H796.729V72ZM806.286 72.24C807.958 72.24 809.39 71.368 810.07 69.84L808.702 69.368C808.222 70.352 807.358 70.888 806.222 70.888C804.63 70.888 803.702 69.872 803.59 68.08H810.214C810.342 65.008 808.822 63.12 806.222 63.12C803.71 63.12 802.062 64.904 802.062 67.736C802.062 70.44 803.734 72.24 806.286 72.24ZM803.614 66.936C803.814 65.296 804.718 64.4 806.27 64.4C807.734 64.4 808.558 65.24 808.734 66.936H803.614ZM815.491 76.08C817.555 76.08 818.915 75.224 819.251 73.384C819.331 72.96 819.355 72.536 819.355 72.056V63.36H818.091V64.328C817.459 63.568 816.555 63.12 815.379 63.12C812.979 63.12 811.515 65.08 811.515 67.672C811.515 70.264 812.971 72.24 815.387 72.24C816.451 72.24 817.307 71.856 817.923 71.208V72.04C817.939 73.8 817.147 74.704 815.499 74.704C814.659 74.704 813.803 74.344 813.379 73.496L812.075 74.184C812.795 75.472 814.131 76.08 815.491 76.08ZM813.027 67.672C813.027 65.848 813.843 64.424 815.603 64.424C817.291 64.424 818.091 65.76 818.091 67.672C818.091 69.568 817.307 70.936 815.563 70.936C813.859 70.936 813.027 69.512 813.027 67.672ZM821.749 61.832H823.173V60.36H821.749V61.832ZM821.749 72H823.173V63.36H821.749V72ZM829.253 72.24C831.821 72.24 833.421 70.384 833.421 67.672C833.421 65 831.845 63.12 829.253 63.12C826.717 63.12 825.093 64.96 825.093 67.672C825.093 70.352 826.669 72.24 829.253 72.24ZM826.605 67.672C826.605 65.784 827.445 64.472 829.253 64.472C831.021 64.472 831.909 65.728 831.909 67.672C831.909 69.576 831.037 70.888 829.253 70.888C827.509 70.888 826.605 69.624 826.605 67.672ZM841.335 67.672V72H842.775V67.224C842.775 65.584 842.119 63.136 839.335 63.136C838.087 63.136 837.095 63.616 836.455 64.472V63.36H835.175V72H836.615V67.448C836.615 65.448 837.559 64.488 838.991 64.488C840.815 64.488 841.335 66.048 841.335 67.672ZM852.026 72.24C854.442 72.24 855.898 70.264 855.898 67.672C855.898 65.08 854.434 63.12 852.034 63.12C850.858 63.12 849.954 63.568 849.322 64.328V63.36H848.05V75.84H849.482V71.2C850.098 71.856 850.954 72.24 852.026 72.24ZM849.322 67.672C849.322 65.76 850.122 64.424 851.81 64.424C853.57 64.424 854.386 65.848 854.386 67.672C854.386 69.512 853.554 70.936 851.85 70.936C850.106 70.936 849.322 69.568 849.322 67.672ZM857.651 72H859.083V67.664C859.083 66.64 859.291 65.624 860.131 65.024C860.731 64.584 861.507 64.544 862.107 64.696V63.36C861.339 63.192 860.323 63.352 859.659 63.888C859.371 64.096 859.115 64.392 858.923 64.728V63.36H857.651V72ZM863.78 61.832H865.204V60.36H863.78V61.832ZM863.78 72H865.204V63.36H863.78V72ZM877.94 66.472L877.932 72H879.356L879.364 66.16C879.364 64.32 878.26 63.136 876.46 63.136C875.324 63.136 874.356 63.672 873.844 64.56C873.38 63.656 872.492 63.136 871.324 63.136C870.292 63.136 869.412 63.576 868.868 64.28V63.36H867.596V72H869.028V66.512C869.028 65.248 869.78 64.408 870.908 64.408C872.036 64.408 872.78 65.216 872.78 66.528L872.772 72H874.188L874.196 66.512C874.196 65.056 875.116 64.408 876.084 64.408C877.172 64.408 877.94 65.184 877.94 66.472ZM885.114 72.24C886.786 72.24 888.218 71.368 888.898 69.84L887.53 69.368C887.05 70.352 886.186 70.888 885.05 70.888C883.458 70.888 882.53 69.872 882.418 68.08H889.042C889.17 65.008 887.65 63.12 885.05 63.12C882.538 63.12 880.89 64.904 880.89 67.736C880.89 70.44 882.562 72.24 885.114 72.24ZM882.442 66.936C882.642 65.296 883.546 64.4 885.098 64.4C886.562 64.4 887.386 65.24 887.562 66.936H882.442ZM890.823 72H892.255V67.664C892.255 66.64 892.463 65.624 893.303 65.024C893.903 64.584 894.679 64.544 895.279 64.696V63.36C894.511 63.192 893.495 63.352 892.831 63.888C892.543 64.096 892.287 64.392 892.095 64.728V63.36H890.823V72ZM805.589 91.992H813.245V90.632H807.781L811.493 87.296C812.677 86.248 813.245 85.488 813.245 83.976C813.245 81.856 811.629 80.24 809.493 80.24C807.277 80.24 805.645 81.784 805.645 83.952H807.101C807.085 82.696 808.093 81.6 809.469 81.6C810.797 81.6 811.789 82.632 811.789 83.96C811.789 84.688 811.557 85.352 810.709 86.112L805.597 90.712L805.589 91.992ZM819.047 92.24C821.287 92.24 822.935 90.592 822.935 88.352V84.128C822.935 81.888 821.287 80.24 819.047 80.24C816.807 80.24 815.159 81.888 815.159 84.128V88.352C815.159 90.592 816.807 92.24 819.047 92.24ZM816.607 88.432V84.04C816.607 82.688 817.695 81.6 819.047 81.6C820.399 81.6 821.487 82.688 821.487 84.04V88.432C821.487 89.784 820.399 90.872 819.047 90.872C817.695 90.872 816.607 89.784 816.607 88.432ZM825.015 86.824H829.815V85.648H825.015V86.824ZM831.573 91.992H839.229V90.632H833.765L837.477 87.296C838.661 86.248 839.229 85.488 839.229 83.976C839.229 81.856 837.613 80.24 835.477 80.24C833.261 80.24 831.629 81.784 831.629 83.952H833.085C833.069 82.696 834.077 81.6 835.453 81.6C836.781 81.6 837.773 82.632 837.773 83.96C837.773 84.688 837.541 85.352 836.693 86.112L831.581 90.712L831.573 91.992ZM844.303 92.224C846.439 92.224 848.063 90.664 848.063 88.456C848.063 86.44 846.783 84.944 844.799 84.832L847.911 81.848V80.48H841.119V81.84H846.143L842.399 85.224L843.087 86.352C843.447 86.168 843.887 86.048 844.279 86.048C845.663 86.048 846.599 87.032 846.599 88.456C846.599 89.864 845.695 90.84 844.295 90.864C843.271 90.88 842.375 90.312 842.031 89.24L840.663 89.632C841.151 91.232 842.591 92.224 844.303 92.224ZM854.111 92.24C856.527 92.24 857.983 90.264 857.983 87.672C857.983 85.08 856.519 83.12 854.119 83.12C853.039 83.12 852.183 83.496 851.567 84.144V80.48H850.135V92H851.407V91.024C852.039 91.784 852.943 92.24 854.111 92.24ZM851.407 87.672C851.407 85.76 852.207 84.424 853.895 84.424C855.655 84.424 856.471 85.848 856.471 87.672C856.471 89.512 855.639 90.936 853.935 90.936C852.191 90.936 851.407 89.568 851.407 87.672ZM863.705 92.24C866.121 92.24 867.577 90.264 867.577 87.672C867.577 85.08 866.113 83.12 863.713 83.12C862.537 83.12 861.633 83.568 861.001 84.328V83.36H859.729V95.84H861.161V91.2C861.777 91.856 862.633 92.24 863.705 92.24ZM861.001 87.672C861.001 85.76 861.801 84.424 863.489 84.424C865.249 84.424 866.065 85.848 866.065 87.672C866.065 89.512 865.233 90.936 863.529 90.936C861.785 90.936 861.001 89.568 861.001 87.672Z" fill="white"/>
    <path d="M892.528 92.24C894.672 92.24 896.488 90.504 896.488 88.376C896.488 86.232 894.864 84.584 892.728 84.584C891.952 84.584 891.176 84.848 890.576 85.328L890.784 81.832H895.688V80.48H889.504L889.152 86.504L890.416 86.984C890.832 86.384 891.552 85.896 892.568 85.896C893.912 85.896 895.056 86.984 895.056 88.376C895.056 89.728 893.968 90.856 892.568 90.856C891.496 90.856 890.456 90.144 890.168 89.008L888.8 89.376C889.264 91.056 890.744 92.24 892.528 92.24ZM902.369 92.24C904.785 92.24 906.241 90.264 906.241 87.672C906.241 85.08 904.777 83.12 902.377 83.12C901.297 83.12 900.441 83.496 899.825 84.144V80.48H898.393V92H899.665V91.024C900.297 91.784 901.201 92.24 902.369 92.24ZM899.665 87.672C899.665 85.76 900.465 84.424 902.153 84.424C903.913 84.424 904.729 85.848 904.729 87.672C904.729 89.512 903.897 90.936 902.193 90.936C900.449 90.936 899.665 89.568 899.665 87.672ZM911.963 92.24C914.379 92.24 915.835 90.264 915.835 87.672C915.835 85.08 914.371 83.12 911.971 83.12C910.795 83.12 909.891 83.568 909.259 84.328V83.36H907.987V95.84H909.419V91.2C910.035 91.856 910.891 92.24 911.963 92.24ZM909.259 87.672C909.259 85.76 910.059 84.424 911.747 84.424C913.507 84.424 914.323 85.848 914.323 87.672C914.323 89.512 913.491 90.936 911.787 90.936C910.043 90.936 909.259 89.568 909.259 87.672Z" fill="white"/>
    <rect width="43" height="20" transform="translate(107 76)" fill="#1D1D29"/>
    <path d="M114.128 92H115.576V80.48H114.128L111.96 81.776V83.368L114.128 82.056V92ZM118.3 91.992H125.956V90.632H120.492L124.204 87.296C125.388 86.248 125.956 85.488 125.956 83.976C125.956 81.856 124.34 80.24 122.204 80.24C119.988 80.24 118.356 81.784 118.356 83.952H119.812C119.796 82.696 120.804 81.6 122.18 81.6C123.508 81.6 124.5 82.632 124.5 83.96C124.5 84.688 124.268 85.352 123.42 86.112L118.308 90.712L118.3 91.992ZM131.838 92.24C134.254 92.24 135.71 90.264 135.71 87.672C135.71 85.08 134.246 83.12 131.846 83.12C130.766 83.12 129.91 83.496 129.294 84.144V80.48H127.862V92H129.134V91.024C129.766 91.784 130.67 92.24 131.838 92.24ZM129.134 87.672C129.134 85.76 129.934 84.424 131.622 84.424C133.382 84.424 134.198 85.848 134.198 87.672C134.198 89.512 133.366 90.936 131.662 90.936C129.918 90.936 129.134 89.568 129.134 87.672ZM141.432 92.24C143.848 92.24 145.304 90.264 145.304 87.672C145.304 85.08 143.84 83.12 141.44 83.12C140.264 83.12 139.36 83.568 138.728 84.328V83.36H137.456V95.84H138.888V91.2C139.504 91.856 140.36 92.24 141.432 92.24ZM138.728 87.672C138.728 85.76 139.528 84.424 141.216 84.424C142.976 84.424 143.792 85.848 143.792 87.672C143.792 89.512 142.96 90.936 141.256 90.936C139.512 90.936 138.728 89.568 138.728 87.672Z" fill="white"/>
    <rect width="53" height="20" transform="translate(174 76)" fill="#1D1D29"/>
    <path d="M182.28 92.224C184.416 92.224 186.04 90.664 186.04 88.456C186.04 86.44 184.76 84.944 182.776 84.832L185.888 81.848V80.48H179.096V81.84H184.12L180.376 85.224L181.064 86.352C181.424 86.168 181.864 86.048 182.256 86.048C183.64 86.048 184.576 87.032 184.576 88.456C184.576 89.864 183.672 90.84 182.272 90.864C181.248 90.88 180.352 90.312 180.008 89.24L178.64 89.632C179.128 91.232 180.568 92.224 182.28 92.224ZM187.96 86.824H192.76V85.648H187.96V86.824ZM199.815 92H201.255V89.88H202.455V88.528H201.255V85.288H199.815V88.528H196.135L199.935 80.48H198.319L194.519 88.528V89.88H199.815V92ZM208.338 92.24C210.754 92.24 212.21 90.264 212.21 87.672C212.21 85.08 210.746 83.12 208.346 83.12C207.266 83.12 206.41 83.496 205.794 84.144V80.48H204.362V92H205.634V91.024C206.266 91.784 207.17 92.24 208.338 92.24ZM205.634 87.672C205.634 85.76 206.434 84.424 208.122 84.424C209.882 84.424 210.698 85.848 210.698 87.672C210.698 89.512 209.866 90.936 208.162 90.936C206.418 90.936 205.634 89.568 205.634 87.672ZM217.932 92.24C220.348 92.24 221.804 90.264 221.804 87.672C221.804 85.08 220.34 83.12 217.94 83.12C216.764 83.12 215.86 83.568 215.228 84.328V83.36H213.956V95.84H215.388V91.2C216.004 91.856 216.86 92.24 217.932 92.24ZM215.228 87.672C215.228 85.76 216.028 84.424 217.716 84.424C219.476 84.424 220.292 85.848 220.292 87.672C220.292 89.512 219.46 90.936 217.756 90.936C216.012 90.936 215.228 89.568 215.228 87.672Z" fill="white"/>
    <g filter="url(#filter0_i_5932_37840)">
        <rect x="96" y="108" width="64" height="52" rx="1" fill="#D6E0FF"/>
        <path d="M116.553 142.3C119.893 142.3 122.233 140.1 122.233 136.75V127.6H120.433V136.6C120.433 139.31 118.393 140.62 116.553 140.62C114.733 140.62 112.673 139.33 112.673 136.6V127.6L110.873 127.61V136.75C110.873 140.11 113.213 142.3 116.553 142.3ZM125.033 142H126.723V131.51L131.613 142H132.563L137.453 131.51V141.99H139.143V127.6H137.503L132.093 139.07L126.653 127.6H125.033V142ZM142.147 142H143.927V127.6H142.147V142Z" fill="#110529"/>
        <rect x="96" y="108" width="64" height="52" rx="1" stroke="#110529" stroke-width="2" stroke-linecap="round"/>
    </g>
    <g filter="url(#filter1_i_5932_37840)">
        <rect x="160" y="108" width="24" height="52" rx="1" fill="#D3D7E0"/>
        <rect x="160" y="108" width="24" height="52" rx="1" stroke="#110529" stroke-width="2" stroke-linecap="round"/>
    </g>
    <g filter="url(#filter2_i_5932_37840)">
        <rect x="184" y="108" width="28" height="52" rx="1" fill="#FFADBA"/>
        <path d="M198.091 142.3C202.301 142.3 204.541 139.39 204.541 135.44C204.541 135.32 204.531 134.87 204.501 134.59H199.561V136.06H202.621C202.401 138.93 200.961 140.62 198.181 140.6C194.961 140.58 193.331 138.25 193.351 134.8C193.371 131.35 194.961 128.99 198.181 129.01C200.231 129.02 201.621 130.14 202.231 131.88L204.031 131.51C203.281 128.92 201.311 127.31 198.091 127.31C194.061 127.31 191.461 130.21 191.461 134.8C191.461 139.44 194.121 142.3 198.091 142.3Z" fill="#110529"/>
        <rect x="184" y="108" width="28" height="52" rx="1" stroke="#110529" stroke-width="2" stroke-linecap="round"/>
    </g>
    <g filter="url(#filter3_i_5932_37840)">
        <rect x="212" y="108" width="336" height="52" rx="1" fill="#99E099"/>
        <path d="M378.758 142H381.238L386.058 127.6H384.208L379.978 140.11L375.788 127.6H373.938L378.758 142Z" fill="#110529"/>
        <rect x="212" y="108" width="336" height="52" rx="1" stroke="#110529" stroke-width="2" stroke-linecap="round"/>
    </g>
    <g filter="url(#filter4_i_5932_37840)">
        <rect x="548" y="108" width="30" height="52" rx="1" fill="#CBEB67"/>
    </g>
    <rect x="548" y="108" width="30" height="52" rx="1" stroke="#110529" stroke-width="2" stroke-linecap="round"/>
    <g filter="url(#filter5_i_5932_37840)">
        <rect x="614" y="108" width="30" height="52" rx="1" fill="#FAAAFA"/>
    </g>
    <rect x="614" y="108" width="30" height="52" rx="1" stroke="#110529" stroke-width="2" stroke-linecap="round"/>
    <g filter="url(#filter6_i_5932_37840)">
        <rect x="578" y="108" width="36" height="52" rx="1" fill="#FFCB8F"/>
    </g>
    <rect x="578" y="108" width="36" height="52" rx="1" stroke="#110529" stroke-width="2" stroke-linecap="round"/>
    <path d="M557.447 142H559.247V130.74L566.757 142H568.557V127.6H566.757V138.85L559.247 127.6H557.447V142Z" fill="#110529"/>
    <path d="M623.447 142H625.247V130.74L632.757 142H634.557V127.6H632.757V138.85L625.247 127.6H623.447V142Z" fill="#110529"/>
    <path d="M590.593 142H595.033C595.303 142 596.183 142 596.853 141.91C600.183 141.47 601.913 138.48 601.913 134.8C601.913 131.13 600.183 128.13 596.853 127.69C596.173 127.6 595.313 127.6 595.033 127.6H590.593V142ZM592.423 140.3V129.3H595.033C595.513 129.3 596.233 129.32 596.703 129.41C599.033 129.83 600.023 132.08 600.023 134.8C600.023 137.47 599.063 139.76 596.703 140.19C596.233 140.28 595.533 140.3 595.033 140.3H592.423Z" fill="#110529"/>
    <g filter="url(#filter7_i_5932_37840)">
        <rect x="644" y="108" width="96" height="52" rx="1" fill="#C1ADFF"/>
        <path d="M691.244 142.29C692.694 142.29 693.954 141.7 694.684 140.43C695.214 139.51 695.154 138.72 695.154 137.48V127.6H693.354V137.48C693.354 138.37 693.354 138.99 693.094 139.51C692.704 140.29 691.884 140.6 691.204 140.6C690.134 140.6 689.224 139.83 689.014 138.85L687.244 139.27C687.754 141.11 689.224 142.29 691.244 142.29Z" fill="#110529"/>
        <rect x="644" y="108" width="96" height="52" rx="1" stroke="#110529" stroke-width="2" stroke-linecap="round"/>
    </g>
    <g filter="url(#filter8_i_5932_37840)">
        <rect x="740" y="108" width="144" height="52" rx="1" fill="#FAFAAA"/>
        <path d="M812.093 142.3C815.423 142.3 817.613 140.47 818.433 137.61L816.623 137.13C816.033 139.27 814.523 140.6 812.093 140.6C808.873 140.6 807.233 138.25 807.253 134.8C807.273 131.35 808.873 129 812.093 129C814.523 129 816.033 130.33 816.623 132.47L818.433 131.99C817.613 129.13 815.423 127.3 812.093 127.3C807.783 127.3 805.373 130.36 805.373 134.8C805.373 139.24 807.783 142.3 812.093 142.3Z" fill="#110529"/>
        <rect x="740" y="108" width="144" height="52" rx="1" stroke="#110529" stroke-width="2" stroke-linecap="round"/>
    </g>
    <g filter="url(#filter9_i_5932_37840)">
        <rect x="884" y="108" width="30" height="52" rx="1" fill="#90E0E0"/>
        <path d="M893.447 142H895.247V130.74L902.757 142H904.557V127.6H902.757V138.85L895.247 127.6H893.447V142Z" fill="#110529"/>
        <rect x="884" y="108" width="30" height="52" rx="1" stroke="#110529" stroke-width="2" stroke-linecap="round"/>
    </g>
    <g filter="url(#filter10_i_5932_37840)">
        <rect x="96" y="268" width="64" height="52" rx="1" fill="#D6E0FF"/>
        <path d="M116.553 302.3C119.893 302.3 122.233 300.1 122.233 296.75V287.6H120.433V296.6C120.433 299.31 118.393 300.62 116.553 300.62C114.733 300.62 112.673 299.33 112.673 296.6V287.6L110.873 287.61V296.75C110.873 300.11 113.213 302.3 116.553 302.3ZM125.033 302H126.723V291.51L131.613 302H132.563L137.453 291.51V301.99H139.143V287.6H137.503L132.093 299.07L126.653 287.6H125.033V302ZM142.147 302H143.927V287.6H142.147V302Z" fill="#110529"/>
        <rect x="96" y="268" width="64" height="52" rx="1" stroke="#110529" stroke-width="2" stroke-linecap="round"/>
    </g>
    <g filter="url(#filter11_i_5932_37840)">
        <rect x="160" y="268" width="24" height="52" rx="1" fill="#D3D7E0"/>
        <rect x="160" y="268" width="24" height="52" rx="1" stroke="#110529" stroke-width="2" stroke-linecap="round"/>
    </g>
    <g filter="url(#filter12_i_5932_37840)">
        <rect x="184" y="268" width="28" height="52" rx="1" fill="#FFADBA"/>
        <path d="M198.091 302.3C202.301 302.3 204.541 299.39 204.541 295.44C204.541 295.32 204.531 294.87 204.501 294.59H199.561V296.06H202.621C202.401 298.93 200.961 300.62 198.181 300.6C194.961 300.58 193.331 298.25 193.351 294.8C193.371 291.35 194.961 288.99 198.181 289.01C200.231 289.02 201.621 290.14 202.231 291.88L204.031 291.51C203.281 288.92 201.311 287.31 198.091 287.31C194.061 287.31 191.461 290.21 191.461 294.8C191.461 299.44 194.121 302.3 198.091 302.3Z" fill="#110529"/>
        <rect x="184" y="268" width="28" height="52" rx="1" stroke="#110529" stroke-width="2" stroke-linecap="round"/>
    </g>
    <g filter="url(#filter13_i_5932_37840)">
        <rect x="212" y="268" width="350" height="52" rx="1" fill="#99E099"/>
        <path d="M385.758 302H388.238L393.058 287.6H391.208L386.978 300.11L382.788 287.6H380.938L385.758 302Z" fill="#110529"/>
        <rect x="212" y="268" width="350" height="52" rx="1" stroke="#110529" stroke-width="2" stroke-linecap="round"/>
    </g>
    <g filter="url(#filter14_i_5932_37840)">
        <rect x="562" y="268" width="30" height="52" rx="1" fill="#CBEB67"/>
    </g>
    <rect x="562" y="268" width="30" height="52" rx="1" stroke="#110529" stroke-width="2" stroke-linecap="round"/>
    <path d="M571.447 302H573.247V290.74L580.757 302H582.557V287.6H580.757V298.85L573.247 287.6H571.447V302Z" fill="#110529"/>
    <g filter="url(#filter15_i_5932_37840)">
        <rect x="592" y="268" width="96" height="52" rx="1" fill="#C1ADFF"/>
        <path d="M639.244 302.29C640.694 302.29 641.954 301.7 642.684 300.43C643.214 299.51 643.154 298.72 643.154 297.48V287.6H641.354V297.48C641.354 298.37 641.354 298.99 641.094 299.51C640.704 300.29 639.884 300.6 639.204 300.6C638.134 300.6 637.224 299.83 637.014 298.85L635.244 299.27C635.754 301.11 637.224 302.29 639.244 302.29Z" fill="#110529"/>
        <rect x="592" y="268" width="96" height="52" rx="1" stroke="#110529" stroke-width="2" stroke-linecap="round"/>
    </g>
    <g filter="url(#filter16_i_5932_37840)">
        <rect x="688" y="268" width="144" height="52" rx="1" fill="#FAFAAA"/>
        <path d="M760.093 302.3C763.423 302.3 765.613 300.47 766.433 297.61L764.623 297.13C764.033 299.27 762.523 300.6 760.093 300.6C756.873 300.6 755.233 298.25 755.253 294.8C755.273 291.35 756.873 289 760.093 289C762.523 289 764.033 290.33 764.623 292.47L766.433 291.99C765.613 289.13 763.423 287.3 760.093 287.3C755.783 287.3 753.373 290.36 753.373 294.8C753.373 299.24 755.783 302.3 760.093 302.3Z" fill="#110529"/>
        <rect x="688" y="268" width="144" height="52" rx="1" stroke="#110529" stroke-width="2" stroke-linecap="round"/>
    </g>
    <g filter="url(#filter17_i_5932_37840)">
        <rect x="832" y="268" width="30" height="52" rx="1" fill="#90E0E0"/>
        <path d="M841.447 302H843.247V290.74L850.757 302H852.557V287.6H850.757V298.85L843.247 287.6H841.447V302Z" fill="#110529"/>
        <rect x="832" y="268" width="30" height="52" rx="1" stroke="#110529" stroke-width="2" stroke-linecap="round"/>
    </g>
    <path d="M342 184L341.293 184.707L340.586 184L341.293 183.293L342 184ZM349.293 175.293L350 174.586L351.414 176L350.707 176.707L349.293 175.293ZM350.707 191.293L351.414 192L350 193.414L349.293 192.707L350.707 191.293ZM352 185L342 185L342 183L352 183L352 185ZM341.293 183.293L349.293 175.293L350.707 176.707L342.707 184.707L341.293 183.293ZM342.707 183.293L350.707 191.293L349.293 192.707L341.293 184.707L342.707 183.293Z" fill="#D3D7E0"/>
    <path d="M588.5 184H352" stroke="#D3D7E0" stroke-width="2"/>
    <rect width="57" height="20" transform="translate(588.5 174)" fill="#1D1D29"/>
    <path d="M597.171 190.224C599.307 190.224 600.931 188.664 600.931 186.456C600.931 184.44 599.651 182.944 597.667 182.832L600.779 179.848V178.48H593.987V179.84H599.011L595.267 183.224L595.955 184.352C596.315 184.168 596.755 184.048 597.147 184.048C598.531 184.048 599.467 185.032 599.467 186.456C599.467 187.864 598.563 188.84 597.163 188.864C596.139 188.88 595.243 188.312 594.899 187.24L593.531 187.632C594.019 189.232 595.459 190.224 597.171 190.224ZM606.899 190.24C609.139 190.24 610.787 188.592 610.787 186.352V182.128C610.787 179.888 609.139 178.24 606.899 178.24C604.659 178.24 603.011 179.888 603.011 182.128V186.352C603.011 188.592 604.659 190.24 606.899 190.24ZM604.459 186.432V182.04C604.459 180.688 605.547 179.6 606.899 179.6C608.251 179.6 609.339 180.688 609.339 182.04V186.432C609.339 187.784 608.251 188.872 606.899 188.872C605.547 188.872 604.459 187.784 604.459 186.432ZM616.914 190.24C619.154 190.24 620.802 188.592 620.802 186.352V182.128C620.802 179.888 619.154 178.24 616.914 178.24C614.674 178.24 613.026 179.888 613.026 182.128V186.352C613.026 188.592 614.674 190.24 616.914 190.24ZM614.474 186.432V182.04C614.474 180.688 615.562 179.6 616.914 179.6C618.266 179.6 619.354 180.688 619.354 182.04V186.432C619.354 187.784 618.266 188.872 616.914 188.872C615.562 188.872 614.474 187.784 614.474 186.432ZM627.01 190.24C629.426 190.24 630.882 188.264 630.882 185.672C630.882 183.08 629.418 181.12 627.018 181.12C625.938 181.12 625.082 181.496 624.466 182.144V178.48H623.034V190H624.306V189.024C624.938 189.784 625.842 190.24 627.01 190.24ZM624.306 185.672C624.306 183.76 625.106 182.424 626.794 182.424C628.554 182.424 629.37 183.848 629.37 185.672C629.37 187.512 628.538 188.936 626.834 188.936C625.09 188.936 624.306 187.568 624.306 185.672ZM636.604 190.24C639.02 190.24 640.476 188.264 640.476 185.672C640.476 183.08 639.012 181.12 636.612 181.12C635.436 181.12 634.532 181.568 633.9 182.328V181.36H632.628V193.84H634.06V189.2C634.676 189.856 635.532 190.24 636.604 190.24ZM633.9 185.672C633.9 183.76 634.7 182.424 636.388 182.424C638.148 182.424 638.964 183.848 638.964 185.672C638.964 187.512 638.132 188.936 636.428 188.936C634.684 188.936 633.9 187.568 633.9 185.672Z" fill="white"/>
    <path d="M882 184H645.5" stroke="#D3D7E0" stroke-width="2"/>
    <path d="M890.62 190H892.044V185.744H895.412L897.476 190H899.108L896.884 185.432C898.188 184.888 898.868 183.632 898.868 182.112C898.868 180.28 897.884 178.832 896.02 178.544C895.724 178.496 895.396 178.48 895.172 178.48H890.62V190ZM892.044 184.392V179.832H895.124C895.324 179.832 895.604 179.848 895.844 179.904C896.948 180.152 897.412 181.152 897.412 182.112C897.412 183.072 896.948 184.072 895.844 184.32C895.604 184.376 895.324 184.392 895.124 184.392H892.044ZM902.878 190H904.326V178.48H902.878L900.71 179.776V181.368L902.878 180.056V190Z" fill="white"/>
    <rect x="882" y="172" width="32" height="24" rx="1" stroke="#D3D7E0" stroke-width="2"/>
    <path d="M342 344L341.293 344.707L340.586 344L341.293 343.293L342 344ZM349.293 335.293L350 334.586L351.414 336L350.707 336.707L349.293 335.293ZM350.707 351.293L351.414 352L350 353.414L349.293 352.707L350.707 351.293ZM352 345L342 345L342 343L352 343L352 345ZM341.293 343.293L349.293 335.293L350.707 336.707L342.707 344.707L341.293 343.293ZM342.707 343.293L350.707 351.293L349.293 352.707L341.293 344.707L342.707 343.293Z" fill="#D3D7E0"/>
    <path d="M562.5 344H352" stroke="#D3D7E0" stroke-width="2"/>
    <rect width="57" height="20" transform="translate(562.5 334)" fill="#1D1D29"/>
    <path d="M571.171 350.224C573.307 350.224 574.931 348.664 574.931 346.456C574.931 344.44 573.651 342.944 571.667 342.832L574.779 339.848V338.48H567.987V339.84H573.011L569.267 343.224L569.955 344.352C570.315 344.168 570.755 344.048 571.147 344.048C572.531 344.048 573.467 345.032 573.467 346.456C573.467 347.864 572.563 348.84 571.163 348.864C570.139 348.88 569.243 348.312 568.899 347.24L567.531 347.632C568.019 349.232 569.459 350.224 571.171 350.224ZM580.899 350.24C583.139 350.24 584.787 348.592 584.787 346.352V342.128C584.787 339.888 583.139 338.24 580.899 338.24C578.659 338.24 577.011 339.888 577.011 342.128V346.352C577.011 348.592 578.659 350.24 580.899 350.24ZM578.459 346.432V342.04C578.459 340.688 579.547 339.6 580.899 339.6C582.251 339.6 583.339 340.688 583.339 342.04V346.432C583.339 347.784 582.251 348.872 580.899 348.872C579.547 348.872 578.459 347.784 578.459 346.432ZM590.914 350.24C593.154 350.24 594.802 348.592 594.802 346.352V342.128C594.802 339.888 593.154 338.24 590.914 338.24C588.674 338.24 587.026 339.888 587.026 342.128V346.352C587.026 348.592 588.674 350.24 590.914 350.24ZM588.474 346.432V342.04C588.474 340.688 589.562 339.6 590.914 339.6C592.266 339.6 593.354 340.688 593.354 342.04V346.432C593.354 347.784 592.266 348.872 590.914 348.872C589.562 348.872 588.474 347.784 588.474 346.432ZM601.01 350.24C603.426 350.24 604.882 348.264 604.882 345.672C604.882 343.08 603.418 341.12 601.018 341.12C599.938 341.12 599.082 341.496 598.466 342.144V338.48H597.034V350H598.306V349.024C598.938 349.784 599.842 350.24 601.01 350.24ZM598.306 345.672C598.306 343.76 599.106 342.424 600.794 342.424C602.554 342.424 603.37 343.848 603.37 345.672C603.37 347.512 602.538 348.936 600.834 348.936C599.09 348.936 598.306 347.568 598.306 345.672ZM610.604 350.24C613.02 350.24 614.476 348.264 614.476 345.672C614.476 343.08 613.012 341.12 610.612 341.12C609.436 341.12 608.532 341.568 607.9 342.328V341.36H606.628V353.84H608.06V349.2C608.676 349.856 609.532 350.24 610.604 350.24ZM607.9 345.672C607.9 343.76 608.7 342.424 610.388 342.424C612.148 342.424 612.964 343.848 612.964 345.672C612.964 347.512 612.132 348.936 610.428 348.936C608.684 348.936 607.9 347.568 607.9 345.672Z" fill="white"/>
    <path d="M830 344H619.5" stroke="#D3D7E0" stroke-width="2"/>
    <path d="M838.62 350H840.044V345.744H843.412L845.476 350H847.108L844.884 345.432C846.188 344.888 846.868 343.632 846.868 342.112C846.868 340.28 845.884 338.832 844.02 338.544C843.724 338.496 843.396 338.48 843.172 338.48H838.62V350ZM840.044 344.392V339.832H843.124C843.324 339.832 843.604 339.848 843.844 339.904C844.948 340.152 845.412 341.152 845.412 342.112C845.412 343.072 844.948 344.072 843.844 344.32C843.604 344.376 843.324 344.392 843.124 344.392H840.044ZM850.878 350H852.326V338.48H850.878L848.71 339.776V341.368L850.878 340.056V350Z" fill="white"/>
    <rect x="830" y="332" width="32" height="24" rx="1" stroke="#D3D7E0" stroke-width="2"/>
    <path d="M103.12 214H104.544V209.744H107.912L109.976 214H111.608L109.384 209.432C110.688 208.888 111.368 207.632 111.368 206.112C111.368 204.28 110.384 202.832 108.52 202.544C108.224 202.496 107.896 202.48 107.672 202.48H103.12V214ZM104.544 208.392V203.832H107.624C107.824 203.832 108.104 203.848 108.344 203.904C109.448 204.152 109.912 205.152 109.912 206.112C109.912 207.072 109.448 208.072 108.344 208.32C108.104 208.376 107.824 208.392 107.624 208.392H104.544ZM113.05 213.992H120.706V212.632H115.242L118.954 209.296C120.138 208.248 120.706 207.488 120.706 205.976C120.706 203.856 119.09 202.24 116.954 202.24C114.738 202.24 113.106 203.784 113.106 205.952H114.562C114.546 204.696 115.554 203.6 116.93 203.6C118.258 203.6 119.25 204.632 119.25 205.96C119.25 206.688 119.018 207.352 118.17 208.112L113.058 212.712L113.05 213.992Z" fill="white"/>
    <rect x="96" y="196" width="32" height="24" rx="1" stroke="#D3D7E0" stroke-width="2"/>
    <path d="M306.5 208H128" stroke="#D3D7E0" stroke-width="2"/>
    <rect width="57" height="20" transform="translate(306.5 198)" fill="#1D1D29"/>
    <path d="M315.171 214.224C317.307 214.224 318.931 212.664 318.931 210.456C318.931 208.44 317.651 206.944 315.667 206.832L318.779 203.848V202.48H311.987V203.84H317.011L313.267 207.224L313.955 208.352C314.315 208.168 314.755 208.048 315.147 208.048C316.531 208.048 317.467 209.032 317.467 210.456C317.467 211.864 316.563 212.84 315.163 212.864C314.139 212.88 313.243 212.312 312.899 211.24L311.531 211.632C312.019 213.232 313.459 214.224 315.171 214.224ZM324.899 214.24C327.139 214.24 328.787 212.592 328.787 210.352V206.128C328.787 203.888 327.139 202.24 324.899 202.24C322.659 202.24 321.011 203.888 321.011 206.128V210.352C321.011 212.592 322.659 214.24 324.899 214.24ZM322.459 210.432V206.04C322.459 204.688 323.547 203.6 324.899 203.6C326.251 203.6 327.339 204.688 327.339 206.04V210.432C327.339 211.784 326.251 212.872 324.899 212.872C323.547 212.872 322.459 211.784 322.459 210.432ZM334.914 214.24C337.154 214.24 338.802 212.592 338.802 210.352V206.128C338.802 203.888 337.154 202.24 334.914 202.24C332.674 202.24 331.026 203.888 331.026 206.128V210.352C331.026 212.592 332.674 214.24 334.914 214.24ZM332.474 210.432V206.04C332.474 204.688 333.562 203.6 334.914 203.6C336.266 203.6 337.354 204.688 337.354 206.04V210.432C337.354 211.784 336.266 212.872 334.914 212.872C333.562 212.872 332.474 211.784 332.474 210.432ZM345.01 214.24C347.426 214.24 348.882 212.264 348.882 209.672C348.882 207.08 347.418 205.12 345.018 205.12C343.938 205.12 343.082 205.496 342.466 206.144V202.48H341.034V214H342.306V213.024C342.938 213.784 343.842 214.24 345.01 214.24ZM342.306 209.672C342.306 207.76 343.106 206.424 344.794 206.424C346.554 206.424 347.37 207.848 347.37 209.672C347.37 211.512 346.538 212.936 344.834 212.936C343.09 212.936 342.306 211.568 342.306 209.672ZM354.604 214.24C357.02 214.24 358.476 212.264 358.476 209.672C358.476 207.08 357.012 205.12 354.612 205.12C353.436 205.12 352.532 205.568 351.9 206.328V205.36H350.628V217.84H352.06V213.2C352.676 213.856 353.532 214.24 354.604 214.24ZM351.9 209.672C351.9 207.76 352.7 206.424 354.388 206.424C356.148 206.424 356.964 207.848 356.964 209.672C356.964 211.512 356.132 212.936 354.428 212.936C352.684 212.936 351.9 211.568 351.9 209.672Z" fill="white"/>
    <path d="M542 208H363.5" stroke="#D3D7E0" stroke-width="2"/>
    <path d="M552 208L552.707 207.293L553.414 208L552.707 208.707L552 208ZM544.707 216.707L544 217.414L542.586 216L543.293 215.293L544.707 216.707ZM543.293 200.707L542.586 200L544 198.586L544.707 199.293L543.293 200.707ZM542 207L552 207L552 209L542 209L542 207ZM552.707 208.707L544.707 216.707L543.293 215.293L551.293 207.293L552.707 208.707ZM551.293 208.707L543.293 200.707L544.707 199.293L552.707 207.293L551.293 208.707Z" fill="#D3D7E0"/>
    <path d="M103.12 374H104.544V369.744H107.912L109.976 374H111.608L109.384 369.432C110.688 368.888 111.368 367.632 111.368 366.112C111.368 364.28 110.384 362.832 108.52 362.544C108.224 362.496 107.896 362.48 107.672 362.48H103.12V374ZM104.544 368.392V363.832H107.624C107.824 363.832 108.104 363.848 108.344 363.904C109.448 364.152 109.912 365.152 109.912 366.112C109.912 367.072 109.448 368.072 108.344 368.32C108.104 368.376 107.824 368.392 107.624 368.392H104.544ZM113.05 373.992H120.706V372.632H115.242L118.954 369.296C120.138 368.248 120.706 367.488 120.706 365.976C120.706 363.856 119.09 362.24 116.954 362.24C114.738 362.24 113.106 363.784 113.106 365.952H114.562C114.546 364.696 115.554 363.6 116.93 363.6C118.258 363.6 119.25 364.632 119.25 365.96C119.25 366.688 119.018 367.352 118.17 368.112L113.058 372.712L113.05 373.992Z" fill="white"/>
    <rect x="96" y="356" width="32" height="24" rx="1" stroke="#D3D7E0" stroke-width="2"/>
    <path d="M306.5 368H128" stroke="#D3D7E0" stroke-width="2"/>
    <rect width="57" height="20" transform="translate(306.5 358)" fill="#1D1D29"/>
    <path d="M315.171 374.224C317.307 374.224 318.931 372.664 318.931 370.456C318.931 368.44 317.651 366.944 315.667 366.832L318.779 363.848V362.48H311.987V363.84H317.011L313.267 367.224L313.955 368.352C314.315 368.168 314.755 368.048 315.147 368.048C316.531 368.048 317.467 369.032 317.467 370.456C317.467 371.864 316.563 372.84 315.163 372.864C314.139 372.88 313.243 372.312 312.899 371.24L311.531 371.632C312.019 373.232 313.459 374.224 315.171 374.224ZM324.899 374.24C327.139 374.24 328.787 372.592 328.787 370.352V366.128C328.787 363.888 327.139 362.24 324.899 362.24C322.659 362.24 321.011 363.888 321.011 366.128V370.352C321.011 372.592 322.659 374.24 324.899 374.24ZM322.459 370.432V366.04C322.459 364.688 323.547 363.6 324.899 363.6C326.251 363.6 327.339 364.688 327.339 366.04V370.432C327.339 371.784 326.251 372.872 324.899 372.872C323.547 372.872 322.459 371.784 322.459 370.432ZM334.914 374.24C337.154 374.24 338.802 372.592 338.802 370.352V366.128C338.802 363.888 337.154 362.24 334.914 362.24C332.674 362.24 331.026 363.888 331.026 366.128V370.352C331.026 372.592 332.674 374.24 334.914 374.24ZM332.474 370.432V366.04C332.474 364.688 333.562 363.6 334.914 363.6C336.266 363.6 337.354 364.688 337.354 366.04V370.432C337.354 371.784 336.266 372.872 334.914 372.872C333.562 372.872 332.474 371.784 332.474 370.432ZM345.01 374.24C347.426 374.24 348.882 372.264 348.882 369.672C348.882 367.08 347.418 365.12 345.018 365.12C343.938 365.12 343.082 365.496 342.466 366.144V362.48H341.034V374H342.306V373.024C342.938 373.784 343.842 374.24 345.01 374.24ZM342.306 369.672C342.306 367.76 343.106 366.424 344.794 366.424C346.554 366.424 347.37 367.848 347.37 369.672C347.37 371.512 346.538 372.936 344.834 372.936C343.09 372.936 342.306 371.568 342.306 369.672ZM354.604 374.24C357.02 374.24 358.476 372.264 358.476 369.672C358.476 367.08 357.012 365.12 354.612 365.12C353.436 365.12 352.532 365.568 351.9 366.328V365.36H350.628V377.84H352.06V373.2C352.676 373.856 353.532 374.24 354.604 374.24ZM351.9 369.672C351.9 367.76 352.7 366.424 354.388 366.424C356.148 366.424 356.964 367.848 356.964 369.672C356.964 371.512 356.132 372.936 354.428 372.936C352.684 372.936 351.9 371.568 351.9 369.672Z" fill="white"/>
    <path d="M542 368H363.5" stroke="#D3D7E0" stroke-width="2"/>
    <path d="M552 368L552.707 367.293L553.414 368L552.707 368.707L552 368ZM544.707 376.707L544 377.414L542.586 376L543.293 375.293L544.707 376.707ZM543.293 360.707L542.586 360L544 358.586L544.707 359.293L543.293 360.707ZM542 367L552 367L552 369L542 369L542 367ZM552.707 368.707L544.707 376.707L543.293 375.293L551.293 367.293L552.707 368.707ZM551.293 368.707L543.293 360.707L544.707 359.293L552.707 367.293L551.293 368.707Z" fill="#D3D7E0"/>
    <defs>
        <filter id="filter0_i_5932_37840" x="95" y="107" width="66" height="54" filterUnits="userSpaceOnUse" color-interpolation-filters="sRGB">
            <feFlood flood-opacity="0" result="BackgroundImageFix"/>
            <feBlend mode="normal" in="SourceGraphic" in2="BackgroundImageFix" result="shape"/>
            <feColorMatrix in="SourceAlpha" type="matrix" values="0 0 0 0 0 0 0 0 0 0 0 0 0 0 0 0 0 0 127 0" result="hardAlpha"/>
            <feOffset dx="-8" dy="-4"/>
            <feComposite in2="hardAlpha" operator="arithmetic" k2="-1" k3="1"/>
            <feColorMatrix type="matrix" values="0 0 0 0 0.0666667 0 0 0 0 0.0196078 0 0 0 0 0.160784 0 0 0 0.16 0"/>
            <feBlend mode="normal" in2="shape" result="effect1_innerShadow_5932_37840"/>
        </filter>
        <filter id="filter1_i_5932_37840" x="159" y="107" width="26" height="54" filterUnits="userSpaceOnUse" color-interpolation-filters="sRGB">
            <feFlood flood-opacity="0" result="BackgroundImageFix"/>
            <feBlend mode="normal" in="SourceGraphic" in2="BackgroundImageFix" result="shape"/>
            <feColorMatrix in="SourceAlpha" type="matrix" values="0 0 0 0 0 0 0 0 0 0 0 0 0 0 0 0 0 0 127 0" result="hardAlpha"/>
            <feOffset dx="-8" dy="-4"/>
            <feComposite in2="hardAlpha" operator="arithmetic" k2="-1" k3="1"/>
            <feColorMatrix type="matrix" values="0 0 0 0 0.0666667 0 0 0 0 0.0196078 0 0 0 0 0.160784 0 0 0 0.16 0"/>
            <feBlend mode="normal" in2="shape" result="effect1_innerShadow_5932_37840"/>
        </filter>
        <filter id="filter2_i_5932_37840" x="183" y="107" width="30" height="54" filterUnits="userSpaceOnUse" color-interpolation-filters="sRGB">
            <feFlood flood-opacity="0" result="BackgroundImageFix"/>
            <feBlend mode="normal" in="SourceGraphic" in2="BackgroundImageFix" result="shape"/>
            <feColorMatrix in="SourceAlpha" type="matrix" values="0 0 0 0 0 0 0 0 0 0 0 0 0 0 0 0 0 0 127 0" result="hardAlpha"/>
            <feOffset dx="-8" dy="-4"/>
            <feComposite in2="hardAlpha" operator="arithmetic" k2="-1" k3="1"/>
            <feColorMatrix type="matrix" values="0 0 0 0 0.0666667 0 0 0 0 0.0196078 0 0 0 0 0.160784 0 0 0 0.16 0"/>
            <feBlend mode="normal" in2="shape" result="effect1_innerShadow_5932_37840"/>
        </filter>
        <filter id="filter3_i_5932_37840" x="211" y="107" width="338" height="54" filterUnits="userSpaceOnUse" color-interpolation-filters="sRGB">
            <feFlood flood-opacity="0" result="BackgroundImageFix"/>
            <feBlend mode="normal" in="SourceGraphic" in2="BackgroundImageFix" result="shape"/>
            <feColorMatrix in="SourceAlpha" type="matrix" values="0 0 0 0 0 0 0 0 0 0 0 0 0 0 0 0 0 0 127 0" result="hardAlpha"/>
            <feOffset dx="-8" dy="-4"/>
            <feComposite in2="hardAlpha" operator="arithmetic" k2="-1" k3="1"/>
            <feColorMatrix type="matrix" values="0 0 0 0 0.0666667 0 0 0 0 0.0196078 0 0 0 0 0.160784 0 0 0 0.16 0"/>
            <feBlend mode="normal" in2="shape" result="effect1_innerShadow_5932_37840"/>
        </filter>
        <filter id="filter4_i_5932_37840" x="547" y="107" width="32" height="54" filterUnits="userSpaceOnUse" color-interpolation-filters="sRGB">
            <feFlood flood-opacity="0" result="BackgroundImageFix"/>
            <feBlend mode="normal" in="SourceGraphic" in2="BackgroundImageFix" result="shape"/>
            <feColorMatrix in="SourceAlpha" type="matrix" values="0 0 0 0 0 0 0 0 0 0 0 0 0 0 0 0 0 0 127 0" result="hardAlpha"/>
            <feOffset dx="-8" dy="-4"/>
            <feComposite in2="hardAlpha" operator="arithmetic" k2="-1" k3="1"/>
            <feColorMatrix type="matrix" values="0 0 0 0 0.0666667 0 0 0 0 0.0196078 0 0 0 0 0.160784 0 0 0 0.16 0"/>
            <feBlend mode="normal" in2="shape" result="effect1_innerShadow_5932_37840"/>
        </filter>
        <filter id="filter5_i_5932_37840" x="613" y="107" width="32" height="54" filterUnits="userSpaceOnUse" color-interpolation-filters="sRGB">
            <feFlood flood-opacity="0" result="BackgroundImageFix"/>
            <feBlend mode="normal" in="SourceGraphic" in2="BackgroundImageFix" result="shape"/>
            <feColorMatrix in="SourceAlpha" type="matrix" values="0 0 0 0 0 0 0 0 0 0 0 0 0 0 0 0 0 0 127 0" result="hardAlpha"/>
            <feOffset dx="-8" dy="-4"/>
            <feComposite in2="hardAlpha" operator="arithmetic" k2="-1" k3="1"/>
            <feColorMatrix type="matrix" values="0 0 0 0 0.0666667 0 0 0 0 0.0196078 0 0 0 0 0.160784 0 0 0 0.16 0"/>
            <feBlend mode="normal" in2="shape" result="effect1_innerShadow_5932_37840"/>
        </filter>
        <filter id="filter6_i_5932_37840" x="577" y="107" width="38" height="54" filterUnits="userSpaceOnUse" color-interpolation-filters="sRGB">
            <feFlood flood-opacity="0" result="BackgroundImageFix"/>
            <feBlend mode="normal" in="SourceGraphic" in2="BackgroundImageFix" result="shape"/>
            <feColorMatrix in="SourceAlpha" type="matrix" values="0 0 0 0 0 0 0 0 0 0 0 0 0 0 0 0 0 0 127 0" result="hardAlpha"/>
            <feOffset dx="-8" dy="-4"/>
            <feComposite in2="hardAlpha" operator="arithmetic" k2="-1" k3="1"/>
            <feColorMatrix type="matrix" values="0 0 0 0 0.0666667 0 0 0 0 0.0196078 0 0 0 0 0.160784 0 0 0 0.16 0"/>
            <feBlend mode="normal" in2="shape" result="effect1_innerShadow_5932_37840"/>
        </filter>
        <filter id="filter7_i_5932_37840" x="643" y="107" width="98" height="54" filterUnits="userSpaceOnUse" color-interpolation-filters="sRGB">
            <feFlood flood-opacity="0" result="BackgroundImageFix"/>
            <feBlend mode="normal" in="SourceGraphic" in2="BackgroundImageFix" result="shape"/>
            <feColorMatrix in="SourceAlpha" type="matrix" values="0 0 0 0 0 0 0 0 0 0 0 0 0 0 0 0 0 0 127 0" result="hardAlpha"/>
            <feOffset dx="-8" dy="-4"/>
            <feComposite in2="hardAlpha" operator="arithmetic" k2="-1" k3="1"/>
            <feColorMatrix type="matrix" values="0 0 0 0 0.0666667 0 0 0 0 0.0196078 0 0 0 0 0.160784 0 0 0 0.16 0"/>
            <feBlend mode="normal" in2="shape" result="effect1_innerShadow_5932_37840"/>
        </filter>
        <filter id="filter8_i_5932_37840" x="739" y="107" width="146" height="54" filterUnits="userSpaceOnUse" color-interpolation-filters="sRGB">
            <feFlood flood-opacity="0" result="BackgroundImageFix"/>
            <feBlend mode="normal" in="SourceGraphic" in2="BackgroundImageFix" result="shape"/>
            <feColorMatrix in="SourceAlpha" type="matrix" values="0 0 0 0 0 0 0 0 0 0 0 0 0 0 0 0 0 0 127 0" result="hardAlpha"/>
            <feOffset dx="-8" dy="-4"/>
            <feComposite in2="hardAlpha" operator="arithmetic" k2="-1" k3="1"/>
            <feColorMatrix type="matrix" values="0 0 0 0 0.0666667 0 0 0 0 0.0196078 0 0 0 0 0.160784 0 0 0 0.16 0"/>
            <feBlend mode="normal" in2="shape" result="effect1_innerShadow_5932_37840"/>
        </filter>
        <filter id="filter9_i_5932_37840" x="883" y="107" width="32" height="54" filterUnits="userSpaceOnUse" color-interpolation-filters="sRGB">
            <feFlood flood-opacity="0" result="BackgroundImageFix"/>
            <feBlend mode="normal" in="SourceGraphic" in2="BackgroundImageFix" result="shape"/>
            <feColorMatrix in="SourceAlpha" type="matrix" values="0 0 0 0 0 0 0 0 0 0 0 0 0 0 0 0 0 0 127 0" result="hardAlpha"/>
            <feOffset dx="-8" dy="-4"/>
            <feComposite in2="hardAlpha" operator="arithmetic" k2="-1" k3="1"/>
            <feColorMatrix type="matrix" values="0 0 0 0 0.0666667 0 0 0 0 0.0196078 0 0 0 0 0.160784 0 0 0 0.16 0"/>
            <feBlend mode="normal" in2="shape" result="effect1_innerShadow_5932_37840"/>
        </filter>
        <filter id="filter10_i_5932_37840" x="95" y="267" width="66" height="54" filterUnits="userSpaceOnUse" color-interpolation-filters="sRGB">
            <feFlood flood-opacity="0" result="BackgroundImageFix"/>
            <feBlend mode="normal" in="SourceGraphic" in2="BackgroundImageFix" result="shape"/>
            <feColorMatrix in="SourceAlpha" type="matrix" values="0 0 0 0 0 0 0 0 0 0 0 0 0 0 0 0 0 0 127 0" result="hardAlpha"/>
            <feOffset dx="-8" dy="-4"/>
            <feComposite in2="hardAlpha" operator="arithmetic" k2="-1" k3="1"/>
            <feColorMatrix type="matrix" values="0 0 0 0 0.0666667 0 0 0 0 0.0196078 0 0 0 0 0.160784 0 0 0 0.16 0"/>
            <feBlend mode="normal" in2="shape" result="effect1_innerShadow_5932_37840"/>
        </filter>
        <filter id="filter11_i_5932_37840" x="159" y="267" width="26" height="54" filterUnits="userSpaceOnUse" color-interpolation-filters="sRGB">
            <feFlood flood-opacity="0" result="BackgroundImageFix"/>
            <feBlend mode="normal" in="SourceGraphic" in2="BackgroundImageFix" result="shape"/>
            <feColorMatrix in="SourceAlpha" type="matrix" values="0 0 0 0 0 0 0 0 0 0 0 0 0 0 0 0 0 0 127 0" result="hardAlpha"/>
            <feOffset dx="-8" dy="-4"/>
            <feComposite in2="hardAlpha" operator="arithmetic" k2="-1" k3="1"/>
            <feColorMatrix type="matrix" values="0 0 0 0 0.0666667 0 0 0 0 0.0196078 0 0 0 0 0.160784 0 0 0 0.16 0"/>
            <feBlend mode="normal" in2="shape" result="effect1_innerShadow_5932_37840"/>
        </filter>
        <filter id="filter12_i_5932_37840" x="183" y="267" width="30" height="54" filterUnits="userSpaceOnUse" color-interpolation-filters="sRGB">
            <feFlood flood-opacity="0" result="BackgroundImageFix"/>
            <feBlend mode="normal" in="SourceGraphic" in2="BackgroundImageFix" result="shape"/>
            <feColorMatrix in="SourceAlpha" type="matrix" values="0 0 0 0 0 0 0 0 0 0 0 0 0 0 0 0 0 0 127 0" result="hardAlpha"/>
            <feOffset dx="-8" dy="-4"/>
            <feComposite in2="hardAlpha" operator="arithmetic" k2="-1" k3="1"/>
            <feColorMatrix type="matrix" values="0 0 0 0 0.0666667 0 0 0 0 0.0196078 0 0 0 0 0.160784 0 0 0 0.16 0"/>
            <feBlend mode="normal" in2="shape" result="effect1_innerShadow_5932_37840"/>
        </filter>
        <filter id="filter13_i_5932_37840" x="211" y="267" width="352" height="54" filterUnits="userSpaceOnUse" color-interpolation-filters="sRGB">
            <feFlood flood-opacity="0" result="BackgroundImageFix"/>
            <feBlend mode="normal" in="SourceGraphic" in2="BackgroundImageFix" result="shape"/>
            <feColorMatrix in="SourceAlpha" type="matrix" values="0 0 0 0 0 0 0 0 0 0 0 0 0 0 0 0 0 0 127 0" result="hardAlpha"/>
            <feOffset dx="-8" dy="-4"/>
            <feComposite in2="hardAlpha" operator="arithmetic" k2="-1" k3="1"/>
            <feColorMatrix type="matrix" values="0 0 0 0 0.0666667 0 0 0 0 0.0196078 0 0 0 0 0.160784 0 0 0 0.16 0"/>
            <feBlend mode="normal" in2="shape" result="effect1_innerShadow_5932_37840"/>
        </filter>
        <filter id="filter14_i_5932_37840" x="561" y="267" width="32" height="54" filterUnits="userSpaceOnUse" color-interpolation-filters="sRGB">
            <feFlood flood-opacity="0" result="BackgroundImageFix"/>
            <feBlend mode="normal" in="SourceGraphic" in2="BackgroundImageFix" result="shape"/>
            <feColorMatrix in="SourceAlpha" type="matrix" values="0 0 0 0 0 0 0 0 0 0 0 0 0 0 0 0 0 0 127 0" result="hardAlpha"/>
            <feOffset dx="-8" dy="-4"/>
            <feComposite in2="hardAlpha" operator="arithmetic" k2="-1" k3="1"/>
            <feColorMatrix type="matrix" values="0 0 0 0 0.0666667 0 0 0 0 0.0196078 0 0 0 0 0.160784 0 0 0 0.16 0"/>
            <feBlend mode="normal" in2="shape" result="effect1_innerShadow_5932_37840"/>
        </filter>
        <filter id="filter15_i_5932_37840" x="591" y="267" width="98" height="54" filterUnits="userSpaceOnUse" color-interpolation-filters="sRGB">
            <feFlood flood-opacity="0" result="BackgroundImageFix"/>
            <feBlend mode="normal" in="SourceGraphic" in2="BackgroundImageFix" result="shape"/>
            <feColorMatrix in="SourceAlpha" type="matrix" values="0 0 0 0 0 0 0 0 0 0 0 0 0 0 0 0 0 0 127 0" result="hardAlpha"/>
            <feOffset dx="-8" dy="-4"/>
            <feComposite in2="hardAlpha" operator="arithmetic" k2="-1" k3="1"/>
            <feColorMatrix type="matrix" values="0 0 0 0 0.0666667 0 0 0 0 0.0196078 0 0 0 0 0.160784 0 0 0 0.16 0"/>
            <feBlend mode="normal" in2="shape" result="effect1_innerShadow_5932_37840"/>
        </filter>
        <filter id="filter16_i_5932_37840" x="687" y="267" width="146" height="54" filterUnits="userSpaceOnUse" color-interpolation-filters="sRGB">
            <feFlood flood-opacity="0" result="BackgroundImageFix"/>
            <feBlend mode="normal" in="SourceGraphic" in2="BackgroundImageFix" result="shape"/>
            <feColorMatrix in="SourceAlpha" type="matrix" values="0 0 0 0 0 0 0 0 0 0 0 0 0 0 0 0 0 0 127 0" result="hardAlpha"/>
            <feOffset dx="-8" dy="-4"/>
            <feComposite in2="hardAlpha" operator="arithmetic" k2="-1" k3="1"/>
            <feColorMatrix type="matrix" values="0 0 0 0 0.0666667 0 0 0 0 0.0196078 0 0 0 0 0.160784 0 0 0 0.16 0"/>
            <feBlend mode="normal" in2="shape" result="effect1_innerShadow_5932_37840"/>
        </filter>
        <filter id="filter17_i_5932_37840" x="831" y="267" width="32" height="54" filterUnits="userSpaceOnUse" color-interpolation-filters="sRGB">
            <feFlood flood-opacity="0" result="BackgroundImageFix"/>
            <feBlend mode="normal" in="SourceGraphic" in2="BackgroundImageFix" result="shape"/>
            <feColorMatrix in="SourceAlpha" type="matrix" values="0 0 0 0 0 0 0 0 0 0 0 0 0 0 0 0 0 0 127 0" result="hardAlpha"/>
            <feOffset dx="-8" dy="-4"/>
            <feComposite in2="hardAlpha" operator="arithmetic" k2="-1" k3="1"/>
            <feColorMatrix type="matrix" values="0 0 0 0 0.0666667 0 0 0 0 0.0196078 0 0 0 0 0.160784 0 0 0 0.16 0"/>
            <feBlend mode="normal" in2="shape" result="effect1_innerShadow_5932_37840"/>
        </filter>
    </defs>
</svg>
