<svg width="960" height="404" viewBox="0 0 960 404" fill="none" xmlns="http://www.w3.org/2000/svg">
    <rect width="960" height="404" fill="#1D1D29"/>
    <path d="M96 112V24" stroke="white" stroke-opacity="0.3" stroke-width="2" stroke-linecap="square" stroke-dasharray="6 6"/>
    <path d="M192 112V24" stroke="white" stroke-opacity="0.3" stroke-width="2" stroke-linecap="square" stroke-dasharray="6 6"/>
    <path d="M748 112V24" stroke="white" stroke-opacity="0.3" stroke-width="2" stroke-linecap="square" stroke-dasharray="6 6"/>
    <path d="M220 112V24" stroke="white" stroke-opacity="0.3" stroke-width="2" stroke-linecap="square" stroke-dasharray="6 6"/>
    <path d="M234.268 37.21C236.151 37.21 237.768 35.705 237.768 33.829C237.768 31.939 236.382 30.525 234.499 30.525C233.904 30.525 233.274 30.714 232.777 31.071L232.945 28.299H237.075V26.92H231.636L231.328 32.219L232.602 32.667C232.917 32.247 233.484 31.855 234.31 31.855C235.388 31.855 236.291 32.723 236.291 33.829C236.291 34.907 235.416 35.796 234.31 35.796C233.47 35.796 232.637 35.229 232.406 34.333L230.999 34.711C231.412 36.181 232.714 37.21 234.268 37.21ZM239.672 29.629L239.581 30.28C240.589 30.462 241.128 29.846 241.128 28.747V26.92H239.581V28.607H240.386C240.456 29.202 240.281 29.678 239.672 29.629ZM247.15 37.21C249.523 37.21 251.168 35.663 251.168 33.29V26.92H249.684V33.213C249.684 34.914 248.417 35.831 247.15 35.831C245.897 35.831 244.616 34.935 244.616 33.213V26.92L243.132 26.927V33.29C243.132 35.663 244.777 37.21 247.15 37.21ZM255.639 37H257.102V28.299H260.455V26.92H252.286V28.299H255.639V37ZM261.576 37H263.039V33.381H265.713L267.47 37H269.143L267.239 33.094C268.38 32.597 268.954 31.491 268.954 30.147C268.954 28.516 268.114 27.235 266.427 26.976C266.161 26.934 265.846 26.92 265.65 26.92H261.576V37ZM263.039 31.995V28.299H265.594C265.776 28.299 266.021 28.313 266.231 28.369C267.127 28.579 267.463 29.405 267.463 30.147C267.463 30.889 267.127 31.715 266.231 31.932C266.021 31.981 265.776 31.995 265.594 31.995H263.039Z" fill="white" fill-opacity="0.3"/>
    <path d="M280 112V24" stroke="white" stroke-opacity="0.3" stroke-width="2" stroke-linecap="square" stroke-dasharray="6 6"/>
    <path d="M289.442 37H295.469V35.621H290.905V26.92H289.442V37Z" fill="white" fill-opacity="0.3"/>
    <path d="M304 112V24" stroke="white" stroke-opacity="0.3" stroke-width="2" stroke-linecap="square" stroke-dasharray="6 6"/>
    <path d="M317.858 37H319.321V32.695H322.989V31.225H319.321V28.383H323.829V26.92H317.858V37ZM325.09 37H326.553V33.381H329.227L330.984 37H332.657L330.753 33.094C331.894 32.597 332.468 31.491 332.468 30.147C332.468 28.516 331.628 27.235 329.941 26.976C329.675 26.934 329.36 26.92 329.164 26.92H325.09V37ZM326.553 31.995V28.299H329.108C329.29 28.299 329.535 28.313 329.745 28.369C330.641 28.579 330.977 29.405 330.977 30.147C330.977 30.889 330.641 31.715 329.745 31.932C329.535 31.981 329.29 31.995 329.108 31.995H326.553ZM335.953 37H337.444V26.92H335.953L334.056 28.054V29.685L335.953 28.53V37Z" fill="white" fill-opacity="0.3"/>
    <path d="M352 112V24" stroke="white" stroke-opacity="0.3" stroke-width="2" stroke-linecap="square" stroke-dasharray="6 6"/>
    <path d="M363.735 37.21C366.059 37.21 367.62 35.943 368.215 33.955L366.731 33.556C366.332 34.963 365.331 35.817 363.735 35.817C361.593 35.817 360.501 34.27 360.515 31.96C360.522 29.65 361.593 28.103 363.735 28.103C365.331 28.103 366.332 28.957 366.731 30.364L368.215 29.965C367.62 27.977 366.059 26.71 363.735 26.71C360.711 26.71 358.968 28.845 358.968 31.96C358.968 35.075 360.711 37.21 363.735 37.21ZM369.754 37H372.911C373.093 37 373.695 37 374.164 36.937C376.53 36.636 377.79 34.529 377.79 31.96C377.79 29.391 376.53 27.284 374.164 26.983C373.695 26.92 373.093 26.92 372.911 26.92H369.754V37ZM371.252 35.607V28.313H372.911C373.219 28.313 373.723 28.32 374.059 28.383C375.571 28.663 376.236 30.189 376.236 31.96C376.236 33.689 375.599 35.243 374.059 35.537C373.723 35.6 373.233 35.607 372.911 35.607H371.252ZM379.42 37H380.883V33.381H383.557L385.314 37H386.987L385.083 33.094C386.224 32.597 386.798 31.491 386.798 30.147C386.798 28.516 385.958 27.235 384.271 26.976C384.005 26.934 383.69 26.92 383.494 26.92H379.42V37ZM380.883 31.995V28.299H383.438C383.62 28.299 383.865 28.313 384.075 28.369C384.971 28.579 385.307 29.405 385.307 30.147C385.307 30.889 384.971 31.715 384.075 31.932C383.865 31.981 383.62 31.995 383.438 31.995H380.883ZM390.283 37H391.774V26.92H390.283L388.386 28.054V29.685L390.283 28.53V37Z" fill="white" fill-opacity="0.3"/>
    <path d="M400 112V24" stroke="white" stroke-opacity="0.3" stroke-width="2" stroke-linecap="square" stroke-dasharray="6 6"/>
    <path d="M412.703 37H414.166V32.695H417.834V31.225H414.166V28.383H418.674V26.92H412.703V37ZM419.935 37H421.398V33.381H424.072L425.829 37H427.502L425.598 33.094C426.739 32.597 427.313 31.491 427.313 30.147C427.313 28.516 426.473 27.235 424.786 26.976C424.52 26.934 424.205 26.92 424.009 26.92H419.935V37ZM421.398 31.995V28.299H423.953C424.135 28.299 424.38 28.313 424.59 28.369C425.486 28.579 425.822 29.405 425.822 30.147C425.822 30.889 425.486 31.715 424.59 31.932C424.38 31.981 424.135 31.995 423.953 31.995H421.398ZM428.761 36.993H435.579V35.6H431.022L433.941 32.996C435.033 32.037 435.579 31.407 435.579 30.028C435.579 28.117 434.144 26.71 432.24 26.71C430.231 26.71 428.796 28.047 428.796 30H430.294C430.28 28.985 431.092 28.103 432.212 28.103C433.297 28.103 434.074 28.929 434.074 30.007C434.074 30.581 433.864 31.127 433.157 31.757L428.768 35.691L428.761 36.993Z" fill="white" fill-opacity="0.3"/>
    <path d="M448 112V24" stroke="white" stroke-opacity="0.3" stroke-width="2" stroke-linecap="square" stroke-dasharray="6 6"/>
    <path d="M458.58 37.21C460.904 37.21 462.465 35.943 463.06 33.955L461.576 33.556C461.177 34.963 460.176 35.817 458.58 35.817C456.438 35.817 455.346 34.27 455.36 31.96C455.367 29.65 456.438 28.103 458.58 28.103C460.176 28.103 461.177 28.957 461.576 30.364L463.06 29.965C462.465 27.977 460.904 26.71 458.58 26.71C455.556 26.71 453.813 28.845 453.813 31.96C453.813 35.075 455.556 37.21 458.58 37.21ZM464.599 37H467.756C467.938 37 468.54 37 469.009 36.937C471.375 36.636 472.635 34.529 472.635 31.96C472.635 29.391 471.375 27.284 469.009 26.983C468.54 26.92 467.938 26.92 467.756 26.92H464.599V37ZM466.097 35.607V28.313H467.756C468.064 28.313 468.568 28.32 468.904 28.383C470.416 28.663 471.081 30.189 471.081 31.96C471.081 33.689 470.444 35.243 468.904 35.537C468.568 35.6 468.078 35.607 467.756 35.607H466.097ZM474.265 37H475.728V33.381H478.402L480.159 37H481.832L479.928 33.094C481.069 32.597 481.643 31.491 481.643 30.147C481.643 28.516 480.803 27.235 479.116 26.976C478.85 26.934 478.535 26.92 478.339 26.92H474.265V37ZM475.728 31.995V28.299H478.283C478.465 28.299 478.71 28.313 478.92 28.369C479.816 28.579 480.152 29.405 480.152 30.147C480.152 30.889 479.816 31.715 478.92 31.932C478.71 31.981 478.465 31.995 478.283 31.995H475.728ZM483.091 36.993H489.909V35.6H485.352L488.271 32.996C489.363 32.037 489.909 31.407 489.909 30.028C489.909 28.117 488.474 26.71 486.57 26.71C484.561 26.71 483.126 28.047 483.126 30H484.624C484.61 28.985 485.422 28.103 486.542 28.103C487.627 28.103 488.404 28.929 488.404 30.007C488.404 30.581 488.194 31.127 487.487 31.757L483.098 35.691L483.091 36.993Z" fill="white" fill-opacity="0.3"/>
    <path d="M496 112V24" stroke="white" stroke-opacity="0.3" stroke-width="2" stroke-linecap="square" stroke-dasharray="6 6"/>
    <path d="M508.805 37H510.268V32.695H513.936V31.225H510.268V28.383H514.776V26.92H508.805V37ZM516.038 37H517.501V33.381H520.175L521.932 37H523.605L521.701 33.094C522.842 32.597 523.416 31.491 523.416 30.147C523.416 28.516 522.576 27.235 520.889 26.976C520.623 26.934 520.308 26.92 520.112 26.92H516.038V37ZM517.501 31.995V28.299H520.056C520.238 28.299 520.483 28.313 520.693 28.369C521.589 28.579 521.925 29.405 521.925 30.147C521.925 30.889 521.589 31.715 520.693 31.932C520.483 31.981 520.238 31.995 520.056 31.995H517.501ZM527.964 37.189C529.847 37.189 531.331 35.796 531.331 33.871C531.331 32.233 530.323 30.924 528.692 30.707L531.184 28.313V26.92H525.122V28.313H529.392L526.312 31.036L526.998 32.191C527.285 32.037 527.628 31.939 527.95 31.939C529.07 31.939 529.833 32.751 529.833 33.871C529.833 34.984 529.07 35.789 527.964 35.803C527.138 35.81 526.403 35.341 526.137 34.466L524.723 34.858C525.15 36.293 526.466 37.189 527.964 37.189Z" fill="white" fill-opacity="0.3"/>
    <path d="M544 112V24" stroke="white" stroke-opacity="0.3" stroke-width="2" stroke-linecap="square" stroke-dasharray="6 6"/>
    <path d="M590.682 37.21C593.006 37.21 594.567 35.943 595.162 33.955L593.678 33.556C593.279 34.963 592.278 35.817 590.682 35.817C588.54 35.817 587.448 34.27 587.462 31.96C587.469 29.65 588.54 28.103 590.682 28.103C592.278 28.103 593.279 28.957 593.678 30.364L595.162 29.965C594.567 27.977 593.006 26.71 590.682 26.71C587.658 26.71 585.915 28.845 585.915 31.96C585.915 35.075 587.658 37.21 590.682 37.21ZM596.702 37H599.859C600.041 37 600.643 37 601.112 36.937C603.478 36.636 604.738 34.529 604.738 31.96C604.738 29.391 603.478 27.284 601.112 26.983C600.643 26.92 600.041 26.92 599.859 26.92H596.702V37ZM598.2 35.607V28.313H599.859C600.167 28.313 600.671 28.32 601.007 28.383C602.519 28.663 603.184 30.189 603.184 31.96C603.184 33.689 602.547 35.243 601.007 35.537C600.671 35.6 600.181 35.607 599.859 35.607H598.2ZM606.368 37H607.831V33.381H610.505L612.262 37H613.935L612.031 33.094C613.172 32.597 613.746 31.491 613.746 30.147C613.746 28.516 612.906 27.235 611.219 26.976C610.953 26.934 610.638 26.92 610.442 26.92H606.368V37ZM607.831 31.995V28.299H610.386C610.568 28.299 610.813 28.313 611.023 28.369C611.919 28.579 612.255 29.405 612.255 30.147C612.255 30.889 611.919 31.715 611.023 31.932C610.813 31.981 610.568 31.995 610.386 31.995H607.831ZM618.294 37.189C620.177 37.189 621.661 35.796 621.661 33.871C621.661 32.233 620.653 30.924 619.022 30.707L621.514 28.313V26.92H615.452V28.313H619.722L616.642 31.036L617.328 32.191C617.615 32.037 617.958 31.939 618.28 31.939C619.4 31.939 620.163 32.751 620.163 33.871C620.163 34.984 619.4 35.789 618.294 35.803C617.468 35.81 616.733 35.341 616.467 34.466L615.053 34.858C615.48 36.293 616.796 37.189 618.294 37.189Z" fill="white" fill-opacity="0.3"/>
    <path d="M664 112V24" stroke="white" stroke-opacity="0.3" stroke-width="2" stroke-linecap="square" stroke-dasharray="6 6"/>
    <path d="M694.593 37H696.056V32.695H699.724V31.225H696.056V28.383H700.564V26.92H694.593V37ZM701.826 37H703.289V33.381H705.963L707.72 37H709.393L707.489 33.094C708.63 32.597 709.204 31.491 709.204 30.147C709.204 28.516 708.364 27.235 706.677 26.976C706.411 26.934 706.096 26.92 705.9 26.92H701.826V37ZM703.289 31.995V28.299H705.844C706.026 28.299 706.271 28.313 706.481 28.369C707.377 28.579 707.713 29.405 707.713 30.147C707.713 30.889 707.377 31.715 706.481 31.932C706.271 31.981 706.026 31.995 705.844 31.995H703.289ZM715.201 37H716.685V35.243H717.686V33.857H716.685V31.127H715.201V33.857H712.324L715.6 26.92H713.927L710.651 33.857V35.243H715.201V37Z" fill="white" fill-opacity="0.3"/>
    <rect width="53" height="20" transform="translate(182 76)" fill="#1D1D29"/>
    <path d="M190.28 92.224C192.416 92.224 194.04 90.664 194.04 88.456C194.04 86.44 192.76 84.944 190.776 84.832L193.888 81.848V80.48H187.096V81.84H192.12L188.376 85.224L189.064 86.352C189.424 86.168 189.864 86.048 190.256 86.048C191.64 86.048 192.576 87.032 192.576 88.456C192.576 89.864 191.672 90.84 190.272 90.864C189.248 90.88 188.352 90.312 188.008 89.24L186.64 89.632C187.128 91.232 188.568 92.224 190.28 92.224ZM195.96 86.824H200.76V85.648H195.96V86.824ZM207.815 92H209.255V89.88H210.455V88.528H209.255V85.288H207.815V88.528H204.135L207.935 80.48H206.319L202.519 88.528V89.88H207.815V92ZM216.338 92.24C218.754 92.24 220.21 90.264 220.21 87.672C220.21 85.08 218.746 83.12 216.346 83.12C215.266 83.12 214.41 83.496 213.794 84.144V80.48H212.362V92H213.634V91.024C214.266 91.784 215.17 92.24 216.338 92.24ZM213.634 87.672C213.634 85.76 214.434 84.424 216.122 84.424C217.882 84.424 218.698 85.848 218.698 87.672C218.698 89.512 217.866 90.936 216.162 90.936C214.418 90.936 213.634 89.568 213.634 87.672ZM225.932 92.24C228.348 92.24 229.804 90.264 229.804 87.672C229.804 85.08 228.34 83.12 225.94 83.12C224.764 83.12 223.86 83.568 223.228 84.328V83.36H221.956V95.84H223.388V91.2C224.004 91.856 224.86 92.24 225.932 92.24ZM223.228 87.672C223.228 85.76 224.028 84.424 225.716 84.424C227.476 84.424 228.292 85.848 228.292 87.672C228.292 89.512 227.46 90.936 225.756 90.936C224.012 90.936 223.228 89.568 223.228 87.672Z" fill="white"/>
    <g filter="url(#filter0_i_5932_38213)">
        <rect x="96" y="268" width="96" height="52" rx="1" fill="#D3D7E0"/>
        <rect x="96" y="268" width="96" height="52" rx="1" stroke="#110529" stroke-width="2" stroke-linecap="round"/>
    </g>
    <g filter="url(#filter1_i_5932_38213)">
        <rect x="192" y="268" width="28" height="52" rx="1" fill="#FFADBA"/>
        <path d="M206.091 302.3C210.301 302.3 212.541 299.39 212.541 295.44C212.541 295.32 212.531 294.87 212.501 294.59H207.561V296.06H210.621C210.401 298.93 208.961 300.62 206.181 300.6C202.961 300.58 201.331 298.25 201.351 294.8C201.371 291.35 202.961 288.99 206.181 289.01C208.231 289.02 209.621 290.14 210.231 291.88L212.031 291.51C211.281 288.92 209.311 287.31 206.091 287.31C202.061 287.31 199.461 290.21 199.461 294.8C199.461 299.44 202.121 302.3 206.091 302.3Z" fill="#110529"/>
        <rect x="192" y="268" width="28" height="52" rx="1" stroke="#110529" stroke-width="2" stroke-linecap="round"/>
    </g>
    <g filter="url(#filter2_i_5932_38213)">
        <rect x="220" y="268" width="364" height="52" rx="1" fill="#99E099"/>
        <path d="M400.758 302H403.238L408.058 287.6H406.208L401.978 300.11L397.788 287.6H395.938L400.758 302Z" fill="#110529"/>
        <rect x="220" y="268" width="364" height="52" rx="1" stroke="#110529" stroke-width="2" stroke-linecap="round"/>
    </g>
    <g filter="url(#filter3_i_5932_38213)">
        <rect x="584" y="268" width="30" height="52" rx="1" fill="#CBEB67"/>
    </g>
    <rect x="584" y="268" width="30" height="52" rx="1" stroke="#110529" stroke-width="2" stroke-linecap="round"/>
    <path d="M593.447 302V287.6H595.247L602.757 298.85V287.6H604.557V302H602.757L595.247 290.74V302H593.447Z" fill="#110529"/>
    <g filter="url(#filter4_i_5932_38213)">
        <rect x="614" y="268" width="96" height="52" rx="1" fill="#C1ADFF"/>
        <path d="M661.244 302.29C660.237 302.29 659.384 302.017 658.684 301.47C657.984 300.923 657.504 300.19 657.244 299.27L659.014 298.85C659.121 299.337 659.377 299.75 659.784 300.09C660.197 300.43 660.671 300.6 661.204 300.6C661.551 300.6 661.904 300.517 662.264 300.35C662.624 300.177 662.901 299.897 663.094 299.51C663.227 299.243 663.304 298.95 663.324 298.63C663.344 298.303 663.354 297.92 663.354 297.48V287.6H665.154V297.48C665.154 297.893 665.151 298.263 665.144 298.59C665.144 298.917 665.111 299.23 665.044 299.53C664.984 299.823 664.864 300.123 664.684 300.43C664.324 301.063 663.841 301.533 663.234 301.84C662.634 302.14 661.971 302.29 661.244 302.29Z" fill="#110529"/>
        <rect x="614" y="268" width="96" height="52" rx="1" stroke="#110529" stroke-width="2" stroke-linecap="round"/>
    </g>
    <g filter="url(#filter5_i_5932_38213)">
        <rect x="710" y="268" width="64" height="52" rx="1" fill="#FAFAAA"/>
        <path d="M742.093 302.3C740.66 302.3 739.443 301.983 738.443 301.35C737.443 300.717 736.68 299.837 736.153 298.71C735.633 297.583 735.373 296.28 735.373 294.8C735.373 293.32 735.633 292.017 736.153 290.89C736.68 289.763 737.443 288.883 738.443 288.25C739.443 287.617 740.66 287.3 742.093 287.3C743.76 287.3 745.13 287.723 746.203 288.57C747.283 289.417 748.027 290.557 748.433 291.99L746.623 292.47C746.33 291.397 745.807 290.55 745.053 289.93C744.3 289.31 743.313 289 742.093 289C741.02 289 740.127 289.243 739.413 289.73C738.7 290.217 738.163 290.897 737.803 291.77C737.443 292.637 737.26 293.647 737.253 294.8C737.247 295.947 737.423 296.957 737.783 297.83C738.143 298.697 738.683 299.377 739.403 299.87C740.123 300.357 741.02 300.6 742.093 300.6C743.313 300.6 744.3 300.29 745.053 299.67C745.807 299.043 746.33 298.197 746.623 297.13L748.433 297.61C748.027 299.037 747.283 300.177 746.203 301.03C745.13 301.877 743.76 302.3 742.093 302.3Z" fill="#110529"/>
        <rect x="710" y="268" width="64" height="52" rx="1" stroke="#110529" stroke-width="2" stroke-linecap="round"/>
    </g>
    <path d="M25.6881 142H27.4681V129.29H32.3781V127.6H20.7781V129.29H25.6881V142ZM39.8903 142.3C43.2203 142.3 45.4103 140.47 46.2303 137.61L44.4203 137.13C43.8303 139.27 42.3203 140.6 39.8903 140.6C36.6703 140.6 35.0303 138.25 35.0503 134.8C35.0703 131.35 36.6703 129 39.8903 129C42.3203 129 43.8303 130.33 44.4203 132.47L46.2303 131.99C45.4103 129.13 43.2203 127.3 39.8903 127.3C35.5803 127.3 33.1703 130.36 33.1703 134.8C33.1703 139.24 35.5803 142.3 39.8903 142.3ZM48.4234 142H50.2034V136.68H54.4134L56.9934 142H59.0334L56.2534 136.29C57.8834 135.61 58.7334 134.04 58.7334 132.14C58.7334 129.85 57.5034 128.04 55.1734 127.68C54.8034 127.62 54.3934 127.6 54.1134 127.6H48.4234V142ZM50.2034 134.99V129.29H54.0534C54.3034 129.29 54.6534 129.31 54.9534 129.38C56.3334 129.69 56.9134 130.94 56.9134 132.14C56.9134 133.34 56.3334 134.59 54.9534 134.9C54.6534 134.97 54.3034 134.99 54.0534 134.99H50.2034ZM65.2298 131.2V146.8H67.0098V141.39C67.7198 141.96 68.7098 142.3 69.9398 142.3C72.9898 142.3 74.8398 140.57 74.8398 137.95C74.8398 135.74 73.4398 134.44 72.0498 134.09C73.0998 133.58 73.6098 132.5 73.6098 131.22C73.6098 128.84 71.8598 127.3 69.3698 127.3C67.5098 127.3 65.9798 128.16 65.4498 129.78C65.2998 130.23 65.2298 130.71 65.2298 131.2ZM67.0498 137.71V131.86C67.0498 131.44 67.0698 130.8 67.2798 130.28C67.6398 129.35 68.5198 128.99 69.4098 128.99C70.7898 128.99 71.7898 129.82 71.7898 131.24C71.7898 132.67 70.7898 133.4 69.4198 133.54V135.14C71.6098 135.18 73.0298 136.1 73.0298 137.87C73.0298 139.52 71.7898 140.61 70.0198 140.61C68.7698 140.61 67.5298 140.04 67.1998 139.01C67.0798 138.64 67.0498 138.1 67.0498 137.71Z" fill="white"/>
    <path d="M25.3268 302H27.1068V289.29H32.0168V287.6H20.4168V289.29H25.3268V302ZM39.529 302.3C42.859 302.3 45.049 300.47 45.869 297.61L44.059 297.13C43.469 299.27 41.959 300.6 39.529 300.6C36.309 300.6 34.669 298.25 34.689 294.8C34.709 291.35 36.309 289 39.529 289C41.959 289 43.469 290.33 44.059 292.47L45.869 291.99C45.049 289.13 42.859 287.3 39.529 287.3C35.219 287.3 32.809 290.36 32.809 294.8C32.809 299.24 35.219 302.3 39.529 302.3ZM48.0621 302H49.8421V296.68H54.0521L56.6321 302H58.6721L55.8921 296.29C57.5221 295.61 58.3721 294.04 58.3721 292.14C58.3721 289.85 57.1421 288.04 54.8121 287.68C54.4421 287.62 54.0321 287.6 53.7521 287.6H48.0621V302ZM49.8421 294.99V289.29H53.6921C53.9421 289.29 54.2921 289.31 54.5921 289.38C55.9721 289.69 56.5521 290.94 56.5521 292.14C56.5521 293.34 55.9721 294.59 54.5921 294.9C54.2921 294.97 53.9421 294.99 53.6921 294.99H49.8421ZM69.1485 302.3C70.7885 302.3 72.0985 301.54 72.7985 300.24V302H74.3885V291.2H72.7985V292.93C72.1085 291.65 70.8485 290.9 69.1985 290.9C66.0985 290.9 64.2785 293.35 64.2785 296.6C64.2785 299.83 66.0885 302.3 69.1485 302.3ZM66.1685 296.6C66.1685 294.19 67.2785 292.53 69.3885 292.53C71.4985 292.53 72.4985 294.2 72.4985 296.59C72.4985 298.96 71.5085 300.67 69.3685 300.67C67.1985 300.67 66.1685 298.88 66.1685 296.6Z" fill="white"/>
    <g filter="url(#filter6_i_5932_38213)">
        <rect x="96" y="108" width="96" height="52" rx="1" fill="#D3D7E0"/>
        <rect x="96" y="108" width="96" height="52" rx="1" stroke="#110529" stroke-width="2" stroke-linecap="round"/>
    </g>
    <g filter="url(#filter7_i_5932_38213)">
        <rect x="192" y="108" width="28" height="52" rx="1" fill="#FFADBA"/>
        <path d="M206.091 142.3C205.105 142.3 204.205 142.127 203.391 141.78C202.578 141.433 201.878 140.937 201.291 140.29C200.705 139.637 200.251 138.85 199.931 137.93C199.618 137.003 199.461 135.96 199.461 134.8C199.461 133.267 199.735 131.94 200.281 130.82C200.828 129.7 201.598 128.837 202.591 128.23C203.585 127.617 204.751 127.31 206.091 127.31C207.705 127.31 209.005 127.687 209.991 128.44C210.978 129.187 211.658 130.21 212.031 131.51L210.231 131.88C209.931 131.007 209.438 130.31 208.751 129.79C208.065 129.27 207.208 129.01 206.181 129.01C205.108 129.003 204.215 129.243 203.501 129.73C202.795 130.21 202.261 130.887 201.901 131.76C201.541 132.633 201.358 133.647 201.351 134.8C201.345 135.947 201.521 136.953 201.881 137.82C202.241 138.687 202.778 139.367 203.491 139.86C204.211 140.347 205.108 140.593 206.181 140.6C207.108 140.607 207.888 140.43 208.521 140.07C209.155 139.71 209.645 139.19 209.991 138.51C210.338 137.83 210.548 137.013 210.621 136.06H207.561V134.59H212.501C212.521 134.723 212.531 134.883 212.531 135.07C212.538 135.25 212.541 135.373 212.541 135.44C212.541 136.753 212.295 137.93 211.801 138.97C211.315 140.003 210.591 140.817 209.631 141.41C208.678 142.003 207.498 142.3 206.091 142.3Z" fill="#110529"/>
        <rect x="192" y="108" width="28" height="52" rx="1" stroke="#110529" stroke-width="2" stroke-linecap="round"/>
    </g>
    <g filter="url(#filter8_i_5932_38213)">
        <rect x="220" y="108" width="336" height="52" rx="1" fill="#99E099"/>
        <path d="M386.758 142L381.938 127.6H383.788L387.978 140.11L392.208 127.6H394.058L389.238 142H386.758Z" fill="#110529"/>
        <rect x="220" y="108" width="336" height="52" rx="1" stroke="#110529" stroke-width="2" stroke-linecap="round"/>
    </g>
    <g filter="url(#filter9_i_5932_38213)">
        <rect x="556" y="108" width="30" height="52" rx="1" fill="#CBEB67"/>
    </g>
    <rect x="556" y="108" width="30" height="52" rx="1" stroke="#110529" stroke-width="2" stroke-linecap="round"/>
    <g filter="url(#filter10_i_5932_38213)">
        <rect x="622" y="108" width="30" height="52" rx="1" fill="#FAAAFA"/>
    </g>
    <rect x="622" y="108" width="30" height="52" rx="1" stroke="#110529" stroke-width="2" stroke-linecap="round"/>
    <g filter="url(#filter11_i_5932_38213)">
        <rect x="586" y="108" width="36" height="52" rx="1" fill="#FFCB8F"/>
    </g>
    <rect x="586" y="108" width="36" height="52" rx="1" stroke="#110529" stroke-width="2" stroke-linecap="round"/>
    <path d="M565.447 142H567.247V130.74L574.757 142H576.557V127.6H574.757V138.85L567.247 127.6H565.447V142Z" fill="#110529"/>
    <path d="M631.447 142H633.247V130.74L640.757 142H642.557V127.6H640.757V138.85L633.247 127.6H631.447V142Z" fill="#110529"/>
    <path d="M598.593 142H603.033C603.303 142 604.183 142 604.853 141.91C608.183 141.47 609.913 138.48 609.913 134.8C609.913 131.13 608.183 128.13 604.853 127.69C604.173 127.6 603.313 127.6 603.033 127.6H598.593V142ZM600.423 140.3V129.3H603.033C603.513 129.3 604.233 129.32 604.703 129.41C607.033 129.83 608.023 132.08 608.023 134.8C608.023 137.47 607.063 139.76 604.703 140.19C604.233 140.28 603.533 140.3 603.033 140.3H600.423Z" fill="#110529"/>
    <g filter="url(#filter12_i_5932_38213)">
        <rect x="652" y="108" width="96" height="52" rx="1" fill="#C1ADFF"/>
        <path d="M699.244 142.29C698.237 142.29 697.384 142.017 696.684 141.47C695.984 140.923 695.504 140.19 695.244 139.27L697.014 138.85C697.121 139.337 697.377 139.75 697.784 140.09C698.197 140.43 698.671 140.6 699.204 140.6C699.551 140.6 699.904 140.517 700.264 140.35C700.624 140.177 700.901 139.897 701.094 139.51C701.227 139.243 701.304 138.95 701.324 138.63C701.344 138.303 701.354 137.92 701.354 137.48V127.6H703.154V137.48C703.154 137.893 703.151 138.263 703.144 138.59C703.144 138.917 703.111 139.23 703.044 139.53C702.984 139.823 702.864 140.123 702.684 140.43C702.324 141.063 701.841 141.533 701.234 141.84C700.634 142.14 699.971 142.29 699.244 142.29Z" fill="#110529"/>
        <rect x="652" y="108" width="96" height="52" rx="1" stroke="#110529" stroke-width="2" stroke-linecap="round"/>
    </g>
    <g filter="url(#filter13_i_5932_38213)">
        <rect x="748" y="108" width="64" height="52" rx="1" fill="#FAFAAA"/>
        <path d="M780.093 142.3C778.66 142.3 777.443 141.983 776.443 141.35C775.443 140.717 774.68 139.837 774.153 138.71C773.633 137.583 773.373 136.28 773.373 134.8C773.373 133.32 773.633 132.017 774.153 130.89C774.68 129.763 775.443 128.883 776.443 128.25C777.443 127.617 778.66 127.3 780.093 127.3C781.76 127.3 783.13 127.723 784.203 128.57C785.283 129.417 786.027 130.557 786.433 131.99L784.623 132.47C784.33 131.397 783.807 130.55 783.053 129.93C782.3 129.31 781.313 129 780.093 129C779.02 129 778.127 129.243 777.413 129.73C776.7 130.217 776.163 130.897 775.803 131.77C775.443 132.637 775.26 133.647 775.253 134.8C775.247 135.947 775.423 136.957 775.783 137.83C776.143 138.697 776.683 139.377 777.403 139.87C778.123 140.357 779.02 140.6 780.093 140.6C781.313 140.6 782.3 140.29 783.053 139.67C783.807 139.043 784.33 138.197 784.623 137.13L786.433 137.61C786.027 139.037 785.283 140.177 784.203 141.03C783.13 141.877 781.76 142.3 780.093 142.3Z" fill="#110529"/>
        <rect x="748" y="108" width="64" height="52" rx="1" stroke="#110529" stroke-width="2" stroke-linecap="round"/>
    </g>
    <path d="M129.546 92.224C131.682 92.224 133.306 90.664 133.306 88.456C133.306 86.44 132.026 84.944 130.042 84.832L133.154 81.848V80.48H126.362V81.84H131.386L127.642 85.224L128.33 86.352C128.69 86.168 129.13 86.048 129.522 86.048C130.906 86.048 131.842 87.032 131.842 88.456C131.842 89.864 130.938 90.84 129.538 90.864C128.514 90.88 127.618 90.312 127.274 89.24L125.906 89.632C126.394 91.232 127.834 92.224 129.546 92.224ZM138.794 92.24C140.938 92.24 142.754 90.504 142.754 88.376C142.754 86.232 141.13 84.584 138.994 84.584C138.218 84.584 137.442 84.848 136.842 85.328L137.05 81.832H141.954V80.48H135.77L135.418 86.504L136.682 86.984C137.098 86.384 137.818 85.896 138.834 85.896C140.178 85.896 141.322 86.984 141.322 88.376C141.322 89.728 140.234 90.856 138.834 90.856C137.762 90.856 136.722 90.144 136.434 89.008L135.066 89.376C135.53 91.056 137.01 92.24 138.794 92.24ZM148.635 92.24C151.051 92.24 152.507 90.264 152.507 87.672C152.507 85.08 151.043 83.12 148.643 83.12C147.563 83.12 146.707 83.496 146.091 84.144V80.48H144.659V92H145.931V91.024C146.563 91.784 147.467 92.24 148.635 92.24ZM145.931 87.672C145.931 85.76 146.731 84.424 148.419 84.424C150.179 84.424 150.995 85.848 150.995 87.672C150.995 89.512 150.163 90.936 148.459 90.936C146.715 90.936 145.931 89.568 145.931 87.672ZM158.229 92.24C160.645 92.24 162.101 90.264 162.101 87.672C162.101 85.08 160.637 83.12 158.237 83.12C157.061 83.12 156.157 83.568 155.525 84.328V83.36H154.253V95.84H155.685V91.2C156.301 91.856 157.157 92.24 158.229 92.24ZM155.525 87.672C155.525 85.76 156.325 84.424 158.013 84.424C159.773 84.424 160.589 85.848 160.589 87.672C160.589 89.512 159.757 90.936 158.053 90.936C156.309 90.936 155.525 89.568 155.525 87.672Z" fill="white"/>
    <path d="M122.56 37.24C124.952 37.24 126.872 36.016 126.872 33.784C126.872 31.568 124.976 31 123.976 30.72L121.784 30.088C120.928 29.848 119.864 29.48 119.864 28.416C119.864 27.352 120.96 26.584 122.376 26.6C123.84 26.616 125.048 27.48 125.288 28.88L126.8 28.616C126.376 26.52 124.712 25.264 122.392 25.248C120.096 25.24 118.36 26.44 118.36 28.48C118.36 30.184 119.576 30.928 120.856 31.304L123.792 32.176C124.616 32.424 125.4 32.856 125.4 33.864C125.4 35.12 124.176 35.888 122.632 35.888C121.024 35.888 119.752 35.032 119.384 33.576L117.912 33.808C118.296 35.928 120.112 37.24 122.56 37.24ZM128.55 37H129.902V28.608L133.814 37H134.574L138.486 28.608V36.992H139.838V25.48H138.526L134.198 34.656L129.846 25.48H128.55V37ZM141.281 37H142.761L143.665 34.304H148.585L149.497 37H150.977L147.121 25.48H145.137L141.281 37ZM144.113 32.968L146.113 26.976L148.137 32.968H144.113ZM152.409 37H153.833V32.744H157.201L159.265 37H160.897L158.673 32.432C159.977 31.888 160.657 30.632 160.657 29.112C160.657 27.28 159.673 25.832 157.809 25.544C157.513 25.496 157.185 25.48 156.961 25.48H152.409V37ZM153.833 31.392V26.832H156.913C157.113 26.832 157.393 26.848 157.633 26.904C158.737 27.152 159.201 28.152 159.201 29.112C159.201 30.072 158.737 31.072 157.633 31.32C157.393 31.376 157.113 31.392 156.913 31.392H153.833ZM165.627 37H167.051V26.832H170.979V25.48H161.699V26.832H165.627V37ZM124.721 53.24C127.137 53.24 128.593 51.264 128.593 48.672C128.593 46.08 127.129 44.12 124.729 44.12C123.553 44.12 122.649 44.568 122.017 45.328V44.36H120.745V56.84H122.177V52.2C122.793 52.856 123.649 53.24 124.721 53.24ZM122.017 48.672C122.017 46.76 122.817 45.424 124.505 45.424C126.265 45.424 127.081 46.848 127.081 48.672C127.081 50.512 126.249 51.936 124.545 51.936C122.801 51.936 122.017 50.568 122.017 48.672ZM130.347 53H131.779V48.664C131.779 47.64 131.987 46.624 132.827 46.024C133.427 45.584 134.203 45.544 134.803 45.696V44.36C134.035 44.192 133.019 44.352 132.355 44.888C132.067 45.096 131.811 45.392 131.619 45.728V44.36H130.347V53ZM136.475 42.832H137.899V41.36H136.475V42.832ZM136.475 53H137.899V44.36H136.475V53ZM150.636 47.472L150.628 53H152.052L152.06 47.16C152.06 45.32 150.956 44.136 149.156 44.136C148.02 44.136 147.052 44.672 146.54 45.56C146.076 44.656 145.188 44.136 144.02 44.136C142.988 44.136 142.108 44.576 141.564 45.28V44.36H140.292V53H141.724V47.512C141.724 46.248 142.476 45.408 143.604 45.408C144.732 45.408 145.476 46.216 145.476 47.528L145.468 53H146.884L146.892 47.512C146.892 46.056 147.812 45.408 148.78 45.408C149.868 45.408 150.636 46.184 150.636 47.472ZM157.809 53.24C159.481 53.24 160.913 52.368 161.593 50.84L160.225 50.368C159.745 51.352 158.881 51.888 157.745 51.888C156.153 51.888 155.225 50.872 155.113 49.08H161.737C161.865 46.008 160.345 44.12 157.745 44.12C155.233 44.12 153.585 45.904 153.585 48.736C153.585 51.44 155.257 53.24 157.809 53.24ZM155.137 47.936C155.337 46.296 156.241 45.4 157.793 45.4C159.257 45.4 160.081 46.24 160.257 47.936H155.137ZM163.518 53H164.95V48.664C164.95 47.64 165.158 46.624 165.998 46.024C166.598 45.584 167.374 45.544 167.974 45.696V44.36C167.206 44.192 166.19 44.352 165.526 44.888C165.238 45.096 164.982 45.392 164.79 45.728V44.36H163.518V53Z" fill="white"/>
    <path d="M380 184L379.293 184.707L378.586 184L379.293 183.293L380 184ZM387.293 175.293L388 174.586L389.414 176L388.707 176.707L387.293 175.293ZM388.707 191.293L389.414 192L388 193.414L387.293 192.707L388.707 191.293ZM390 185L380 185L380 183L390 183L390 185ZM379.293 183.293L387.293 175.293L388.707 176.707L380.707 184.707L379.293 183.293ZM380.707 183.293L388.707 191.293L387.293 192.707L379.293 184.707L380.707 183.293Z" fill="#D3D7E0"/>
    <path d="M556.5 184H390" stroke="#D3D7E0" stroke-width="2"/>
    <rect width="57" height="20" transform="translate(556.5 174)" fill="#1D1D29"/>
    <path d="M565.171 190.224C567.307 190.224 568.931 188.664 568.931 186.456C568.931 184.44 567.651 182.944 565.667 182.832L568.779 179.848V178.48H561.987V179.84H567.011L563.267 183.224L563.955 184.352C564.315 184.168 564.755 184.048 565.147 184.048C566.531 184.048 567.467 185.032 567.467 186.456C567.467 187.864 566.563 188.84 565.163 188.864C564.139 188.88 563.243 188.312 562.899 187.24L561.531 187.632C562.019 189.232 563.459 190.224 565.171 190.224ZM574.899 190.24C577.139 190.24 578.787 188.592 578.787 186.352V182.128C578.787 179.888 577.139 178.24 574.899 178.24C572.659 178.24 571.011 179.888 571.011 182.128V186.352C571.011 188.592 572.659 190.24 574.899 190.24ZM572.459 186.432V182.04C572.459 180.688 573.547 179.6 574.899 179.6C576.251 179.6 577.339 180.688 577.339 182.04V186.432C577.339 187.784 576.251 188.872 574.899 188.872C573.547 188.872 572.459 187.784 572.459 186.432ZM584.914 190.24C587.154 190.24 588.802 188.592 588.802 186.352V182.128C588.802 179.888 587.154 178.24 584.914 178.24C582.674 178.24 581.026 179.888 581.026 182.128V186.352C581.026 188.592 582.674 190.24 584.914 190.24ZM582.474 186.432V182.04C582.474 180.688 583.562 179.6 584.914 179.6C586.266 179.6 587.354 180.688 587.354 182.04V186.432C587.354 187.784 586.266 188.872 584.914 188.872C583.562 188.872 582.474 187.784 582.474 186.432ZM595.01 190.24C597.426 190.24 598.882 188.264 598.882 185.672C598.882 183.08 597.418 181.12 595.018 181.12C593.938 181.12 593.082 181.496 592.466 182.144V178.48H591.034V190H592.306V189.024C592.938 189.784 593.842 190.24 595.01 190.24ZM592.306 185.672C592.306 183.76 593.106 182.424 594.794 182.424C596.554 182.424 597.37 183.848 597.37 185.672C597.37 187.512 596.538 188.936 594.834 188.936C593.09 188.936 592.306 187.568 592.306 185.672ZM604.604 190.24C607.02 190.24 608.476 188.264 608.476 185.672C608.476 183.08 607.012 181.12 604.612 181.12C603.436 181.12 602.532 181.568 601.9 182.328V181.36H600.628V193.84H602.06V189.2C602.676 189.856 603.532 190.24 604.604 190.24ZM601.9 185.672C601.9 183.76 602.7 182.424 604.388 182.424C606.148 182.424 606.964 183.848 606.964 185.672C606.964 187.512 606.132 188.936 604.428 188.936C602.684 188.936 601.9 187.568 601.9 185.672Z" fill="white"/>
    <path d="M780 184H613.5" stroke="#D3D7E0" stroke-width="2"/>
    <path d="M788.62 190H790.044V185.744H793.412L795.476 190H797.108L794.884 185.432C796.188 184.888 796.868 183.632 796.868 182.112C796.868 180.28 795.884 178.832 794.02 178.544C793.724 178.496 793.396 178.48 793.172 178.48H788.62V190ZM790.044 184.392V179.832H793.124C793.324 179.832 793.604 179.848 793.844 179.904C794.948 180.152 795.412 181.152 795.412 182.112C795.412 183.072 794.948 184.072 793.844 184.32C793.604 184.376 793.324 184.392 793.124 184.392H790.044ZM800.878 190H802.326V178.48H800.878L798.71 179.776V181.368L800.878 180.056V190Z" fill="white"/>
    <rect x="780" y="172" width="32" height="24" rx="1" stroke="#D3D7E0" stroke-width="2"/>
    <path d="M342 344L341.293 344.707L340.586 344L341.293 343.293L342 344ZM349.293 335.293L350 334.586L351.414 336L350.707 336.707L349.293 335.293ZM350.707 351.293L351.414 352L350 353.414L349.293 352.707L350.707 351.293ZM352 345L342 345L342 343L352 343L352 345ZM341.293 343.293L349.293 335.293L350.707 336.707L342.707 344.707L341.293 343.293ZM342.707 343.293L350.707 351.293L349.293 352.707L341.293 344.707L342.707 343.293Z" fill="#D3D7E0"/>
    <path d="M518.5 344H352" stroke="#D3D7E0" stroke-width="2"/>
    <rect width="57" height="20" transform="translate(518.5 334)" fill="#1D1D29"/>
    <path d="M527.171 350.224C529.307 350.224 530.931 348.664 530.931 346.456C530.931 344.44 529.651 342.944 527.667 342.832L530.779 339.848V338.48H523.987V339.84H529.011L525.267 343.224L525.955 344.352C526.315 344.168 526.755 344.048 527.147 344.048C528.531 344.048 529.467 345.032 529.467 346.456C529.467 347.864 528.563 348.84 527.163 348.864C526.139 348.88 525.243 348.312 524.899 347.24L523.531 347.632C524.019 349.232 525.459 350.224 527.171 350.224ZM536.899 350.24C539.139 350.24 540.787 348.592 540.787 346.352V342.128C540.787 339.888 539.139 338.24 536.899 338.24C534.659 338.24 533.011 339.888 533.011 342.128V346.352C533.011 348.592 534.659 350.24 536.899 350.24ZM534.459 346.432V342.04C534.459 340.688 535.547 339.6 536.899 339.6C538.251 339.6 539.339 340.688 539.339 342.04V346.432C539.339 347.784 538.251 348.872 536.899 348.872C535.547 348.872 534.459 347.784 534.459 346.432ZM546.914 350.24C549.154 350.24 550.802 348.592 550.802 346.352V342.128C550.802 339.888 549.154 338.24 546.914 338.24C544.674 338.24 543.026 339.888 543.026 342.128V346.352C543.026 348.592 544.674 350.24 546.914 350.24ZM544.474 346.432V342.04C544.474 340.688 545.562 339.6 546.914 339.6C548.266 339.6 549.354 340.688 549.354 342.04V346.432C549.354 347.784 548.266 348.872 546.914 348.872C545.562 348.872 544.474 347.784 544.474 346.432ZM557.01 350.24C559.426 350.24 560.882 348.264 560.882 345.672C560.882 343.08 559.418 341.12 557.018 341.12C555.938 341.12 555.082 341.496 554.466 342.144V338.48H553.034V350H554.306V349.024C554.938 349.784 555.842 350.24 557.01 350.24ZM554.306 345.672C554.306 343.76 555.106 342.424 556.794 342.424C558.554 342.424 559.37 343.848 559.37 345.672C559.37 347.512 558.538 348.936 556.834 348.936C555.09 348.936 554.306 347.568 554.306 345.672ZM566.604 350.24C569.02 350.24 570.476 348.264 570.476 345.672C570.476 343.08 569.012 341.12 566.612 341.12C565.436 341.12 564.532 341.568 563.9 342.328V341.36H562.628V353.84H564.06V349.2C564.676 349.856 565.532 350.24 566.604 350.24ZM563.9 345.672C563.9 343.76 564.7 342.424 566.388 342.424C568.148 342.424 568.964 343.848 568.964 345.672C568.964 347.512 568.132 348.936 566.428 348.936C564.684 348.936 563.9 347.568 563.9 345.672Z" fill="white"/>
    <path d="M742 344H575.5" stroke="#D3D7E0" stroke-width="2"/>
    <path d="M750.62 350H752.044V345.744H755.412L757.476 350H759.108L756.884 345.432C758.188 344.888 758.868 343.632 758.868 342.112C758.868 340.28 757.884 338.832 756.02 338.544C755.724 338.496 755.396 338.48 755.172 338.48H750.62V350ZM752.044 344.392V339.832H755.124C755.324 339.832 755.604 339.848 755.844 339.904C756.948 340.152 757.412 341.152 757.412 342.112C757.412 343.072 756.948 344.072 755.844 344.32C755.604 344.376 755.324 344.392 755.124 344.392H752.044ZM762.878 350H764.326V338.48H762.878L760.71 339.776V341.368L762.878 340.056V350Z" fill="white"/>
    <rect x="742" y="332" width="32" height="24" rx="1" stroke="#D3D7E0" stroke-width="2"/>
    <path d="M103.12 214H104.544V209.744H107.912L109.976 214H111.608L109.384 209.432C110.688 208.888 111.368 207.632 111.368 206.112C111.368 204.28 110.384 202.832 108.52 202.544C108.224 202.496 107.896 202.48 107.672 202.48H103.12V214ZM104.544 208.392V203.832H107.624C107.824 203.832 108.104 203.848 108.344 203.904C109.448 204.152 109.912 205.152 109.912 206.112C109.912 207.072 109.448 208.072 108.344 208.32C108.104 208.376 107.824 208.392 107.624 208.392H104.544ZM113.05 213.992H120.706V212.632H115.242L118.954 209.296C120.138 208.248 120.706 207.488 120.706 205.976C120.706 203.856 119.09 202.24 116.954 202.24C114.738 202.24 113.106 203.784 113.106 205.952H114.562C114.546 204.696 115.554 203.6 116.93 203.6C118.258 203.6 119.25 204.632 119.25 205.96C119.25 206.688 119.018 207.352 118.17 208.112L113.058 212.712L113.05 213.992Z" fill="white"/>
    <rect x="96" y="196" width="32" height="24" rx="1" stroke="#D3D7E0" stroke-width="2"/>
    <path d="M294.5 208H128" stroke="#D3D7E0" stroke-width="2"/>
    <rect width="57" height="20" transform="translate(294.5 198)" fill="#1D1D29"/>
    <path d="M303.171 214.224C305.307 214.224 306.931 212.664 306.931 210.456C306.931 208.44 305.651 206.944 303.667 206.832L306.779 203.848V202.48H299.987V203.84H305.011L301.267 207.224L301.955 208.352C302.315 208.168 302.755 208.048 303.147 208.048C304.531 208.048 305.467 209.032 305.467 210.456C305.467 211.864 304.563 212.84 303.163 212.864C302.139 212.88 301.243 212.312 300.899 211.24L299.531 211.632C300.019 213.232 301.459 214.224 303.171 214.224ZM312.899 214.24C315.139 214.24 316.787 212.592 316.787 210.352V206.128C316.787 203.888 315.139 202.24 312.899 202.24C310.659 202.24 309.011 203.888 309.011 206.128V210.352C309.011 212.592 310.659 214.24 312.899 214.24ZM310.459 210.432V206.04C310.459 204.688 311.547 203.6 312.899 203.6C314.251 203.6 315.339 204.688 315.339 206.04V210.432C315.339 211.784 314.251 212.872 312.899 212.872C311.547 212.872 310.459 211.784 310.459 210.432ZM322.914 214.24C325.154 214.24 326.802 212.592 326.802 210.352V206.128C326.802 203.888 325.154 202.24 322.914 202.24C320.674 202.24 319.026 203.888 319.026 206.128V210.352C319.026 212.592 320.674 214.24 322.914 214.24ZM320.474 210.432V206.04C320.474 204.688 321.562 203.6 322.914 203.6C324.266 203.6 325.354 204.688 325.354 206.04V210.432C325.354 211.784 324.266 212.872 322.914 212.872C321.562 212.872 320.474 211.784 320.474 210.432ZM333.01 214.24C335.426 214.24 336.882 212.264 336.882 209.672C336.882 207.08 335.418 205.12 333.018 205.12C331.938 205.12 331.082 205.496 330.466 206.144V202.48H329.034V214H330.306V213.024C330.938 213.784 331.842 214.24 333.01 214.24ZM330.306 209.672C330.306 207.76 331.106 206.424 332.794 206.424C334.554 206.424 335.37 207.848 335.37 209.672C335.37 211.512 334.538 212.936 332.834 212.936C331.09 212.936 330.306 211.568 330.306 209.672ZM342.604 214.24C345.02 214.24 346.476 212.264 346.476 209.672C346.476 207.08 345.012 205.12 342.612 205.12C341.436 205.12 340.532 205.568 339.9 206.328V205.36H338.628V217.84H340.06V213.2C340.676 213.856 341.532 214.24 342.604 214.24ZM339.9 209.672C339.9 207.76 340.7 206.424 342.388 206.424C344.148 206.424 344.964 207.848 344.964 209.672C344.964 211.512 344.132 212.936 342.428 212.936C340.684 212.936 339.9 211.568 339.9 209.672Z" fill="white"/>
    <path d="M518 208H351.5" stroke="#D3D7E0" stroke-width="2"/>
    <path d="M528 208L528.707 207.293L529.414 208L528.707 208.707L528 208ZM520.707 216.707L520 217.414L518.586 216L519.293 215.293L520.707 216.707ZM519.293 200.707L518.586 200L520 198.586L520.707 199.293L519.293 200.707ZM518 207L528 207L528 209L518 209L518 207ZM528.707 208.707L520.707 216.707L519.293 215.293L527.293 207.293L528.707 208.707ZM527.293 208.707L519.293 200.707L520.707 199.293L528.707 207.293L527.293 208.707Z" fill="#D3D7E0"/>
    <path d="M103.12 374H104.544V369.744H107.912L109.976 374H111.608L109.384 369.432C110.688 368.888 111.368 367.632 111.368 366.112C111.368 364.28 110.384 362.832 108.52 362.544C108.224 362.496 107.896 362.48 107.672 362.48H103.12V374ZM104.544 368.392V363.832H107.624C107.824 363.832 108.104 363.848 108.344 363.904C109.448 364.152 109.912 365.152 109.912 366.112C109.912 367.072 109.448 368.072 108.344 368.32C108.104 368.376 107.824 368.392 107.624 368.392H104.544ZM113.05 373.992H120.706V372.632H115.242L118.954 369.296C120.138 368.248 120.706 367.488 120.706 365.976C120.706 363.856 119.09 362.24 116.954 362.24C114.738 362.24 113.106 363.784 113.106 365.952H114.562C114.546 364.696 115.554 363.6 116.93 363.6C118.258 363.6 119.25 364.632 119.25 365.96C119.25 366.688 119.018 367.352 118.17 368.112L113.058 372.712L113.05 373.992Z" fill="white"/>
    <rect x="96" y="356" width="32" height="24" rx="1" stroke="#D3D7E0" stroke-width="2"/>
    <path d="M294.5 368H128" stroke="#D3D7E0" stroke-width="2"/>
    <rect width="57" height="20" transform="translate(294.5 358)" fill="#1D1D29"/>
    <path d="M303.171 374.224C305.307 374.224 306.931 372.664 306.931 370.456C306.931 368.44 305.651 366.944 303.667 366.832L306.779 363.848V362.48H299.987V363.84H305.011L301.267 367.224L301.955 368.352C302.315 368.168 302.755 368.048 303.147 368.048C304.531 368.048 305.467 369.032 305.467 370.456C305.467 371.864 304.563 372.84 303.163 372.864C302.139 372.88 301.243 372.312 300.899 371.24L299.531 371.632C300.019 373.232 301.459 374.224 303.171 374.224ZM312.899 374.24C315.139 374.24 316.787 372.592 316.787 370.352V366.128C316.787 363.888 315.139 362.24 312.899 362.24C310.659 362.24 309.011 363.888 309.011 366.128V370.352C309.011 372.592 310.659 374.24 312.899 374.24ZM310.459 370.432V366.04C310.459 364.688 311.547 363.6 312.899 363.6C314.251 363.6 315.339 364.688 315.339 366.04V370.432C315.339 371.784 314.251 372.872 312.899 372.872C311.547 372.872 310.459 371.784 310.459 370.432ZM322.914 374.24C325.154 374.24 326.802 372.592 326.802 370.352V366.128C326.802 363.888 325.154 362.24 322.914 362.24C320.674 362.24 319.026 363.888 319.026 366.128V370.352C319.026 372.592 320.674 374.24 322.914 374.24ZM320.474 370.432V366.04C320.474 364.688 321.562 363.6 322.914 363.6C324.266 363.6 325.354 364.688 325.354 366.04V370.432C325.354 371.784 324.266 372.872 322.914 372.872C321.562 372.872 320.474 371.784 320.474 370.432ZM333.01 374.24C335.426 374.24 336.882 372.264 336.882 369.672C336.882 367.08 335.418 365.12 333.018 365.12C331.938 365.12 331.082 365.496 330.466 366.144V362.48H329.034V374H330.306V373.024C330.938 373.784 331.842 374.24 333.01 374.24ZM330.306 369.672C330.306 367.76 331.106 366.424 332.794 366.424C334.554 366.424 335.37 367.848 335.37 369.672C335.37 371.512 334.538 372.936 332.834 372.936C331.09 372.936 330.306 371.568 330.306 369.672ZM342.604 374.24C345.02 374.24 346.476 372.264 346.476 369.672C346.476 367.08 345.012 365.12 342.612 365.12C341.436 365.12 340.532 365.568 339.9 366.328V365.36H338.628V377.84H340.06V373.2C340.676 373.856 341.532 374.24 342.604 374.24ZM339.9 369.672C339.9 367.76 340.7 366.424 342.388 366.424C344.148 366.424 344.964 367.848 344.964 369.672C344.964 371.512 344.132 372.936 342.428 372.936C340.684 372.936 339.9 371.568 339.9 369.672Z" fill="white"/>
    <path d="M518 368H351.5" stroke="#D3D7E0" stroke-width="2"/>
    <path d="M528 368L528.707 367.293L529.414 368L528.707 368.707L528 368ZM520.707 376.707L520 377.414L518.586 376L519.293 375.293L520.707 376.707ZM519.293 360.707L518.586 360L520 358.586L520.707 359.293L519.293 360.707ZM518 367L528 367L528 369L518 369L518 367ZM528.707 368.707L520.707 376.707L519.293 375.293L527.293 367.293L528.707 368.707ZM527.293 368.707L519.293 360.707L520.707 359.293L528.707 367.293L527.293 368.707Z" fill="#D3D7E0"/>
    <defs>
        <filter id="filter0_i_5932_38213" x="95" y="267" width="98" height="54" filterUnits="userSpaceOnUse" color-interpolation-filters="sRGB">
            <feFlood flood-opacity="0" result="BackgroundImageFix"/>
            <feBlend mode="normal" in="SourceGraphic" in2="BackgroundImageFix" result="shape"/>
            <feColorMatrix in="SourceAlpha" type="matrix" values="0 0 0 0 0 0 0 0 0 0 0 0 0 0 0 0 0 0 127 0" result="hardAlpha"/>
            <feOffset dx="-8" dy="-4"/>
            <feComposite in2="hardAlpha" operator="arithmetic" k2="-1" k3="1"/>
            <feColorMatrix type="matrix" values="0 0 0 0 0.0666667 0 0 0 0 0.0196078 0 0 0 0 0.160784 0 0 0 0.16 0"/>
            <feBlend mode="normal" in2="shape" result="effect1_innerShadow_5932_38213"/>
        </filter>
        <filter id="filter1_i_5932_38213" x="191" y="267" width="30" height="54" filterUnits="userSpaceOnUse" color-interpolation-filters="sRGB">
            <feFlood flood-opacity="0" result="BackgroundImageFix"/>
            <feBlend mode="normal" in="SourceGraphic" in2="BackgroundImageFix" result="shape"/>
            <feColorMatrix in="SourceAlpha" type="matrix" values="0 0 0 0 0 0 0 0 0 0 0 0 0 0 0 0 0 0 127 0" result="hardAlpha"/>
            <feOffset dx="-8" dy="-4"/>
            <feComposite in2="hardAlpha" operator="arithmetic" k2="-1" k3="1"/>
            <feColorMatrix type="matrix" values="0 0 0 0 0.0666667 0 0 0 0 0.0196078 0 0 0 0 0.160784 0 0 0 0.16 0"/>
            <feBlend mode="normal" in2="shape" result="effect1_innerShadow_5932_38213"/>
        </filter>
        <filter id="filter2_i_5932_38213" x="219" y="267" width="366" height="54" filterUnits="userSpaceOnUse" color-interpolation-filters="sRGB">
            <feFlood flood-opacity="0" result="BackgroundImageFix"/>
            <feBlend mode="normal" in="SourceGraphic" in2="BackgroundImageFix" result="shape"/>
            <feColorMatrix in="SourceAlpha" type="matrix" values="0 0 0 0 0 0 0 0 0 0 0 0 0 0 0 0 0 0 127 0" result="hardAlpha"/>
            <feOffset dx="-8" dy="-4"/>
            <feComposite in2="hardAlpha" operator="arithmetic" k2="-1" k3="1"/>
            <feColorMatrix type="matrix" values="0 0 0 0 0.0666667 0 0 0 0 0.0196078 0 0 0 0 0.160784 0 0 0 0.16 0"/>
            <feBlend mode="normal" in2="shape" result="effect1_innerShadow_5932_38213"/>
        </filter>
        <filter id="filter3_i_5932_38213" x="583" y="267" width="32" height="54" filterUnits="userSpaceOnUse" color-interpolation-filters="sRGB">
            <feFlood flood-opacity="0" result="BackgroundImageFix"/>
            <feBlend mode="normal" in="SourceGraphic" in2="BackgroundImageFix" result="shape"/>
            <feColorMatrix in="SourceAlpha" type="matrix" values="0 0 0 0 0 0 0 0 0 0 0 0 0 0 0 0 0 0 127 0" result="hardAlpha"/>
            <feOffset dx="-8" dy="-4"/>
            <feComposite in2="hardAlpha" operator="arithmetic" k2="-1" k3="1"/>
            <feColorMatrix type="matrix" values="0 0 0 0 0.0666667 0 0 0 0 0.0196078 0 0 0 0 0.160784 0 0 0 0.16 0"/>
            <feBlend mode="normal" in2="shape" result="effect1_innerShadow_5932_38213"/>
        </filter>
        <filter id="filter4_i_5932_38213" x="613" y="267" width="98" height="54" filterUnits="userSpaceOnUse" color-interpolation-filters="sRGB">
            <feFlood flood-opacity="0" result="BackgroundImageFix"/>
            <feBlend mode="normal" in="SourceGraphic" in2="BackgroundImageFix" result="shape"/>
            <feColorMatrix in="SourceAlpha" type="matrix" values="0 0 0 0 0 0 0 0 0 0 0 0 0 0 0 0 0 0 127 0" result="hardAlpha"/>
            <feOffset dx="-8" dy="-4"/>
            <feComposite in2="hardAlpha" operator="arithmetic" k2="-1" k3="1"/>
            <feColorMatrix type="matrix" values="0 0 0 0 0.0666667 0 0 0 0 0.0196078 0 0 0 0 0.160784 0 0 0 0.16 0"/>
            <feBlend mode="normal" in2="shape" result="effect1_innerShadow_5932_38213"/>
        </filter>
        <filter id="filter5_i_5932_38213" x="709" y="267" width="66" height="54" filterUnits="userSpaceOnUse" color-interpolation-filters="sRGB">
            <feFlood flood-opacity="0" result="BackgroundImageFix"/>
            <feBlend mode="normal" in="SourceGraphic" in2="BackgroundImageFix" result="shape"/>
            <feColorMatrix in="SourceAlpha" type="matrix" values="0 0 0 0 0 0 0 0 0 0 0 0 0 0 0 0 0 0 127 0" result="hardAlpha"/>
            <feOffset dx="-8" dy="-4"/>
            <feComposite in2="hardAlpha" operator="arithmetic" k2="-1" k3="1"/>
            <feColorMatrix type="matrix" values="0 0 0 0 0.0666667 0 0 0 0 0.0196078 0 0 0 0 0.160784 0 0 0 0.16 0"/>
            <feBlend mode="normal" in2="shape" result="effect1_innerShadow_5932_38213"/>
        </filter>
        <filter id="filter6_i_5932_38213" x="95" y="107" width="98" height="54" filterUnits="userSpaceOnUse" color-interpolation-filters="sRGB">
            <feFlood flood-opacity="0" result="BackgroundImageFix"/>
            <feBlend mode="normal" in="SourceGraphic" in2="BackgroundImageFix" result="shape"/>
            <feColorMatrix in="SourceAlpha" type="matrix" values="0 0 0 0 0 0 0 0 0 0 0 0 0 0 0 0 0 0 127 0" result="hardAlpha"/>
            <feOffset dx="-8" dy="-4"/>
            <feComposite in2="hardAlpha" operator="arithmetic" k2="-1" k3="1"/>
            <feColorMatrix type="matrix" values="0 0 0 0 0.0666667 0 0 0 0 0.0196078 0 0 0 0 0.160784 0 0 0 0.16 0"/>
            <feBlend mode="normal" in2="shape" result="effect1_innerShadow_5932_38213"/>
        </filter>
        <filter id="filter7_i_5932_38213" x="191" y="107" width="30" height="54" filterUnits="userSpaceOnUse" color-interpolation-filters="sRGB">
            <feFlood flood-opacity="0" result="BackgroundImageFix"/>
            <feBlend mode="normal" in="SourceGraphic" in2="BackgroundImageFix" result="shape"/>
            <feColorMatrix in="SourceAlpha" type="matrix" values="0 0 0 0 0 0 0 0 0 0 0 0 0 0 0 0 0 0 127 0" result="hardAlpha"/>
            <feOffset dx="-8" dy="-4"/>
            <feComposite in2="hardAlpha" operator="arithmetic" k2="-1" k3="1"/>
            <feColorMatrix type="matrix" values="0 0 0 0 0.0666667 0 0 0 0 0.0196078 0 0 0 0 0.160784 0 0 0 0.16 0"/>
            <feBlend mode="normal" in2="shape" result="effect1_innerShadow_5932_38213"/>
        </filter>
        <filter id="filter8_i_5932_38213" x="219" y="107" width="338" height="54" filterUnits="userSpaceOnUse" color-interpolation-filters="sRGB">
            <feFlood flood-opacity="0" result="BackgroundImageFix"/>
            <feBlend mode="normal" in="SourceGraphic" in2="BackgroundImageFix" result="shape"/>
            <feColorMatrix in="SourceAlpha" type="matrix" values="0 0 0 0 0 0 0 0 0 0 0 0 0 0 0 0 0 0 127 0" result="hardAlpha"/>
            <feOffset dx="-8" dy="-4"/>
            <feComposite in2="hardAlpha" operator="arithmetic" k2="-1" k3="1"/>
            <feColorMatrix type="matrix" values="0 0 0 0 0.0666667 0 0 0 0 0.0196078 0 0 0 0 0.160784 0 0 0 0.16 0"/>
            <feBlend mode="normal" in2="shape" result="effect1_innerShadow_5932_38213"/>
        </filter>
        <filter id="filter9_i_5932_38213" x="555" y="107" width="32" height="54" filterUnits="userSpaceOnUse" color-interpolation-filters="sRGB">
            <feFlood flood-opacity="0" result="BackgroundImageFix"/>
            <feBlend mode="normal" in="SourceGraphic" in2="BackgroundImageFix" result="shape"/>
            <feColorMatrix in="SourceAlpha" type="matrix" values="0 0 0 0 0 0 0 0 0 0 0 0 0 0 0 0 0 0 127 0" result="hardAlpha"/>
            <feOffset dx="-8" dy="-4"/>
            <feComposite in2="hardAlpha" operator="arithmetic" k2="-1" k3="1"/>
            <feColorMatrix type="matrix" values="0 0 0 0 0.0666667 0 0 0 0 0.0196078 0 0 0 0 0.160784 0 0 0 0.16 0"/>
            <feBlend mode="normal" in2="shape" result="effect1_innerShadow_5932_38213"/>
        </filter>
        <filter id="filter10_i_5932_38213" x="621" y="107" width="32" height="54" filterUnits="userSpaceOnUse" color-interpolation-filters="sRGB">
            <feFlood flood-opacity="0" result="BackgroundImageFix"/>
            <feBlend mode="normal" in="SourceGraphic" in2="BackgroundImageFix" result="shape"/>
            <feColorMatrix in="SourceAlpha" type="matrix" values="0 0 0 0 0 0 0 0 0 0 0 0 0 0 0 0 0 0 127 0" result="hardAlpha"/>
            <feOffset dx="-8" dy="-4"/>
            <feComposite in2="hardAlpha" operator="arithmetic" k2="-1" k3="1"/>
            <feColorMatrix type="matrix" values="0 0 0 0 0.0666667 0 0 0 0 0.0196078 0 0 0 0 0.160784 0 0 0 0.16 0"/>
            <feBlend mode="normal" in2="shape" result="effect1_innerShadow_5932_38213"/>
        </filter>
        <filter id="filter11_i_5932_38213" x="585" y="107" width="38" height="54" filterUnits="userSpaceOnUse" color-interpolation-filters="sRGB">
            <feFlood flood-opacity="0" result="BackgroundImageFix"/>
            <feBlend mode="normal" in="SourceGraphic" in2="BackgroundImageFix" result="shape"/>
            <feColorMatrix in="SourceAlpha" type="matrix" values="0 0 0 0 0 0 0 0 0 0 0 0 0 0 0 0 0 0 127 0" result="hardAlpha"/>
            <feOffset dx="-8" dy="-4"/>
            <feComposite in2="hardAlpha" operator="arithmetic" k2="-1" k3="1"/>
            <feColorMatrix type="matrix" values="0 0 0 0 0.0666667 0 0 0 0 0.0196078 0 0 0 0 0.160784 0 0 0 0.16 0"/>
            <feBlend mode="normal" in2="shape" result="effect1_innerShadow_5932_38213"/>
        </filter>
        <filter id="filter12_i_5932_38213" x="651" y="107" width="98" height="54" filterUnits="userSpaceOnUse" color-interpolation-filters="sRGB">
            <feFlood flood-opacity="0" result="BackgroundImageFix"/>
            <feBlend mode="normal" in="SourceGraphic" in2="BackgroundImageFix" result="shape"/>
            <feColorMatrix in="SourceAlpha" type="matrix" values="0 0 0 0 0 0 0 0 0 0 0 0 0 0 0 0 0 0 127 0" result="hardAlpha"/>
            <feOffset dx="-8" dy="-4"/>
            <feComposite in2="hardAlpha" operator="arithmetic" k2="-1" k3="1"/>
            <feColorMatrix type="matrix" values="0 0 0 0 0.0666667 0 0 0 0 0.0196078 0 0 0 0 0.160784 0 0 0 0.16 0"/>
            <feBlend mode="normal" in2="shape" result="effect1_innerShadow_5932_38213"/>
        </filter>
        <filter id="filter13_i_5932_38213" x="747" y="107" width="66" height="54" filterUnits="userSpaceOnUse" color-interpolation-filters="sRGB">
            <feFlood flood-opacity="0" result="BackgroundImageFix"/>
            <feBlend mode="normal" in="SourceGraphic" in2="BackgroundImageFix" result="shape"/>
            <feColorMatrix in="SourceAlpha" type="matrix" values="0 0 0 0 0 0 0 0 0 0 0 0 0 0 0 0 0 0 127 0" result="hardAlpha"/>
            <feOffset dx="-8" dy="-4"/>
            <feComposite in2="hardAlpha" operator="arithmetic" k2="-1" k3="1"/>
            <feColorMatrix type="matrix" values="0 0 0 0 0.0666667 0 0 0 0 0.0196078 0 0 0 0 0.160784 0 0 0 0.16 0"/>
            <feBlend mode="normal" in2="shape" result="effect1_innerShadow_5932_38213"/>
        </filter>
    </defs>
</svg>
