<svg width="960" height="424" viewBox="0 0 960 424" fill="none" xmlns="http://www.w3.org/2000/svg">
<g clip-path="url(#clip0_5770_35709)">
<rect width="960" height="424" fill="white"/>
<path d="M797 140V20" stroke="#D3D7E0" stroke-width="2" stroke-linecap="square" stroke-dasharray="6 6"/>
<path d="M243 140V20" stroke="#D3D7E0" stroke-width="2" stroke-linecap="square" stroke-dasharray="6 6"/>
<path d="M259.268 33.21C261.151 33.21 262.768 31.705 262.768 29.829C262.768 27.939 261.382 26.525 259.499 26.525C258.904 26.525 258.274 26.714 257.777 27.071L257.945 24.299H262.075V22.92H256.636L256.328 28.219L257.602 28.667C257.917 28.247 258.484 27.855 259.31 27.855C260.388 27.855 261.291 28.723 261.291 29.829C261.291 30.907 260.416 31.796 259.31 31.796C258.47 31.796 257.637 31.229 257.406 30.333L255.999 30.711C256.412 32.181 257.714 33.21 259.268 33.21ZM264.672 25.629L264.581 26.28C265.589 26.462 266.128 25.846 266.128 24.747V22.92H264.581V24.607H265.386C265.456 25.202 265.281 25.678 264.672 25.629ZM272.15 33.21C274.523 33.21 276.168 31.663 276.168 29.29V22.92H274.684V29.213C274.684 30.914 273.417 31.831 272.15 31.831C270.897 31.831 269.616 30.935 269.616 29.213V22.92L268.132 22.927V29.29C268.132 31.663 269.777 33.21 272.15 33.21ZM280.639 33H282.102V24.299H285.455V22.92H277.286V24.299H280.639V33ZM286.576 33H288.039V29.381H290.713L292.47 33H294.143L292.239 29.094C293.38 28.597 293.954 27.491 293.954 26.147C293.954 24.516 293.114 23.235 291.427 22.976C291.161 22.934 290.846 22.92 290.65 22.92H286.576V33ZM288.039 27.995V24.299H290.594C290.776 24.299 291.021 24.313 291.231 24.369C292.127 24.579 292.463 25.405 292.463 26.147C292.463 26.889 292.127 27.715 291.231 27.932C291.021 27.981 290.776 27.995 290.594 27.995H288.039Z" fill="#D3D7E0"/>
<path d="M307 140V20" stroke="#D3D7E0" stroke-width="2" stroke-linecap="square" stroke-dasharray="6 6"/>
<path d="M318.442 33H324.469V31.621H319.905V22.92H318.442V33Z" fill="#D3D7E0"/>
<path d="M335 140V20" stroke="#D3D7E0" stroke-width="2" stroke-linecap="square" stroke-dasharray="6 6"/>
<path d="M350.858 33H352.321V28.695H355.989V27.225H352.321V24.383H356.829V22.92H350.858V33ZM358.09 33H359.553V29.381H362.227L363.984 33H365.657L363.753 29.094C364.894 28.597 365.468 27.491 365.468 26.147C365.468 24.516 364.628 23.235 362.941 22.976C362.675 22.934 362.36 22.92 362.164 22.92H358.09V33ZM359.553 27.995V24.299H362.108C362.29 24.299 362.535 24.313 362.745 24.369C363.641 24.579 363.977 25.405 363.977 26.147C363.977 26.889 363.641 27.715 362.745 27.932C362.535 27.981 362.29 27.995 362.108 27.995H359.553ZM368.953 33H370.444V22.92H368.953L367.056 24.054V25.685L368.953 24.53V33Z" fill="#D3D7E0"/>
<path d="M387 140V20" stroke="#D3D7E0" stroke-width="2" stroke-linecap="square" stroke-dasharray="6 6"/>
<path d="M400.735 33.21C403.059 33.21 404.62 31.943 405.215 29.955L403.731 29.556C403.332 30.963 402.331 31.817 400.735 31.817C398.593 31.817 397.501 30.27 397.515 27.96C397.522 25.65 398.593 24.103 400.735 24.103C402.331 24.103 403.332 24.957 403.731 26.364L405.215 25.965C404.62 23.977 403.059 22.71 400.735 22.71C397.711 22.71 395.968 24.845 395.968 27.96C395.968 31.075 397.711 33.21 400.735 33.21ZM406.754 33H409.911C410.093 33 410.695 33 411.164 32.937C413.53 32.636 414.79 30.529 414.79 27.96C414.79 25.391 413.53 23.284 411.164 22.983C410.695 22.92 410.093 22.92 409.911 22.92H406.754V33ZM408.252 31.607V24.313H409.911C410.219 24.313 410.723 24.32 411.059 24.383C412.571 24.663 413.236 26.189 413.236 27.96C413.236 29.689 412.599 31.243 411.059 31.537C410.723 31.6 410.233 31.607 409.911 31.607H408.252ZM416.42 33H417.883V29.381H420.557L422.314 33H423.987L422.083 29.094C423.224 28.597 423.798 27.491 423.798 26.147C423.798 24.516 422.958 23.235 421.271 22.976C421.005 22.934 420.69 22.92 420.494 22.92H416.42V33ZM417.883 27.995V24.299H420.438C420.62 24.299 420.865 24.313 421.075 24.369C421.971 24.579 422.307 25.405 422.307 26.147C422.307 26.889 421.971 27.715 421.075 27.932C420.865 27.981 420.62 27.995 420.438 27.995H417.883ZM427.283 33H428.774V22.92H427.283L425.386 24.054V25.685L427.283 24.53V33Z" fill="#D3D7E0"/>
<path d="M439 140V20" stroke="#D3D7E0" stroke-width="2" stroke-linecap="square" stroke-dasharray="6 6"/>
<path d="M453.703 33H455.166V28.695H458.834V27.225H455.166V24.383H459.674V22.92H453.703V33ZM460.935 33H462.398V29.381H465.072L466.829 33H468.502L466.598 29.094C467.739 28.597 468.313 27.491 468.313 26.147C468.313 24.516 467.473 23.235 465.786 22.976C465.52 22.934 465.205 22.92 465.009 22.92H460.935V33ZM462.398 27.995V24.299H464.953C465.135 24.299 465.38 24.313 465.59 24.369C466.486 24.579 466.822 25.405 466.822 26.147C466.822 26.889 466.486 27.715 465.59 27.932C465.38 27.981 465.135 27.995 464.953 27.995H462.398ZM469.761 32.993H476.579V31.6H472.022L474.941 28.996C476.033 28.037 476.579 27.407 476.579 26.028C476.579 24.117 475.144 22.71 473.24 22.71C471.231 22.71 469.796 24.047 469.796 26H471.294C471.28 24.985 472.092 24.103 473.212 24.103C474.297 24.103 475.074 24.929 475.074 26.007C475.074 26.581 474.864 27.127 474.157 27.757L469.768 31.691L469.761 32.993Z" fill="#D3D7E0"/>
<path d="M491 140V20" stroke="#D3D7E0" stroke-width="2" stroke-linecap="square" stroke-dasharray="6 6"/>
<path d="M503.58 33.21C505.904 33.21 507.465 31.943 508.06 29.955L506.576 29.556C506.177 30.963 505.176 31.817 503.58 31.817C501.438 31.817 500.346 30.27 500.36 27.96C500.367 25.65 501.438 24.103 503.58 24.103C505.176 24.103 506.177 24.957 506.576 26.364L508.06 25.965C507.465 23.977 505.904 22.71 503.58 22.71C500.556 22.71 498.813 24.845 498.813 27.96C498.813 31.075 500.556 33.21 503.58 33.21ZM509.599 33H512.756C512.938 33 513.54 33 514.009 32.937C516.375 32.636 517.635 30.529 517.635 27.96C517.635 25.391 516.375 23.284 514.009 22.983C513.54 22.92 512.938 22.92 512.756 22.92H509.599V33ZM511.097 31.607V24.313H512.756C513.064 24.313 513.568 24.32 513.904 24.383C515.416 24.663 516.081 26.189 516.081 27.96C516.081 29.689 515.444 31.243 513.904 31.537C513.568 31.6 513.078 31.607 512.756 31.607H511.097ZM519.265 33H520.728V29.381H523.402L525.159 33H526.832L524.928 29.094C526.069 28.597 526.643 27.491 526.643 26.147C526.643 24.516 525.803 23.235 524.116 22.976C523.85 22.934 523.535 22.92 523.339 22.92H519.265V33ZM520.728 27.995V24.299H523.283C523.465 24.299 523.71 24.313 523.92 24.369C524.816 24.579 525.152 25.405 525.152 26.147C525.152 26.889 524.816 27.715 523.92 27.932C523.71 27.981 523.465 27.995 523.283 27.995H520.728ZM528.091 32.993H534.909V31.6H530.352L533.271 28.996C534.363 28.037 534.909 27.407 534.909 26.028C534.909 24.117 533.474 22.71 531.57 22.71C529.561 22.71 528.126 24.047 528.126 26H529.624C529.61 24.985 530.422 24.103 531.542 24.103C532.627 24.103 533.404 24.929 533.404 26.007C533.404 26.581 533.194 27.127 532.487 27.757L528.098 31.691L528.091 32.993Z" fill="#D3D7E0"/>
<path d="M543 140V20" stroke="#D3D7E0" stroke-width="2" stroke-linecap="square" stroke-dasharray="6 6"/>
<path d="M557.805 33H559.268V28.695H562.936V27.225H559.268V24.383H563.776V22.92H557.805V33ZM565.038 33H566.501V29.381H569.175L570.932 33H572.605L570.701 29.094C571.842 28.597 572.416 27.491 572.416 26.147C572.416 24.516 571.576 23.235 569.889 22.976C569.623 22.934 569.308 22.92 569.112 22.92H565.038V33ZM566.501 27.995V24.299H569.056C569.238 24.299 569.483 24.313 569.693 24.369C570.589 24.579 570.925 25.405 570.925 26.147C570.925 26.889 570.589 27.715 569.693 27.932C569.483 27.981 569.238 27.995 569.056 27.995H566.501ZM576.964 33.189C578.847 33.189 580.331 31.796 580.331 29.871C580.331 28.233 579.323 26.924 577.692 26.707L580.184 24.313V22.92H574.122V24.313H578.392L575.312 27.036L575.998 28.191C576.285 28.037 576.628 27.939 576.95 27.939C578.07 27.939 578.833 28.751 578.833 29.871C578.833 30.984 578.07 31.789 576.964 31.803C576.138 31.81 575.403 31.341 575.137 30.466L573.723 30.858C574.15 32.293 575.466 33.189 576.964 33.189Z" fill="#D3D7E0"/>
<path d="M595 140V20" stroke="#D3D7E0" stroke-width="2" stroke-linecap="square" stroke-dasharray="6 6"/>
<path d="M640.682 33.21C643.006 33.21 644.567 31.943 645.162 29.955L643.678 29.556C643.279 30.963 642.278 31.817 640.682 31.817C638.54 31.817 637.448 30.27 637.462 27.96C637.469 25.65 638.54 24.103 640.682 24.103C642.278 24.103 643.279 24.957 643.678 26.364L645.162 25.965C644.567 23.977 643.006 22.71 640.682 22.71C637.658 22.71 635.915 24.845 635.915 27.96C635.915 31.075 637.658 33.21 640.682 33.21ZM646.702 33H649.859C650.041 33 650.643 33 651.112 32.937C653.478 32.636 654.738 30.529 654.738 27.96C654.738 25.391 653.478 23.284 651.112 22.983C650.643 22.92 650.041 22.92 649.859 22.92H646.702V33ZM648.2 31.607V24.313H649.859C650.167 24.313 650.671 24.32 651.007 24.383C652.519 24.663 653.184 26.189 653.184 27.96C653.184 29.689 652.547 31.243 651.007 31.537C650.671 31.6 650.181 31.607 649.859 31.607H648.2ZM656.368 33H657.831V29.381H660.505L662.262 33H663.935L662.031 29.094C663.172 28.597 663.746 27.491 663.746 26.147C663.746 24.516 662.906 23.235 661.219 22.976C660.953 22.934 660.638 22.92 660.442 22.92H656.368V33ZM657.831 27.995V24.299H660.386C660.568 24.299 660.813 24.313 661.023 24.369C661.919 24.579 662.255 25.405 662.255 26.147C662.255 26.889 661.919 27.715 661.023 27.932C660.813 27.981 660.568 27.995 660.386 27.995H657.831ZM668.294 33.189C670.177 33.189 671.661 31.796 671.661 29.871C671.661 28.233 670.653 26.924 669.022 26.707L671.514 24.313V22.92H665.452V24.313H669.722L666.642 27.036L667.328 28.191C667.615 28.037 667.958 27.939 668.28 27.939C669.4 27.939 670.163 28.751 670.163 29.871C670.163 30.984 669.4 31.789 668.294 31.803C667.468 31.81 666.733 31.341 666.467 30.466L665.053 30.858C665.48 32.293 666.796 33.189 668.294 33.189Z" fill="#D3D7E0"/>
<path d="M715 140V20" stroke="#D3D7E0" stroke-width="2" stroke-linecap="square" stroke-dasharray="6 6"/>
<path d="M745.593 33H747.056V28.695H750.724V27.225H747.056V24.383H751.564V22.92H745.593V33ZM752.826 33H754.289V29.381H756.963L758.72 33H760.393L758.489 29.094C759.63 28.597 760.204 27.491 760.204 26.147C760.204 24.516 759.364 23.235 757.677 22.976C757.411 22.934 757.096 22.92 756.9 22.92H752.826V33ZM754.289 27.995V24.299H756.844C757.026 24.299 757.271 24.313 757.481 24.369C758.377 24.579 758.713 25.405 758.713 26.147C758.713 26.889 758.377 27.715 757.481 27.932C757.271 27.981 757.026 27.995 756.844 27.995H754.289ZM766.201 33H767.685V31.243H768.686V29.857H767.685V27.127H766.201V29.857H763.324L766.6 22.92H764.927L761.651 29.857V31.243H766.201V33Z" fill="#D3D7E0"/>
<rect width="46" height="20" transform="translate(143 68)" fill="white"/>
<path d="M151.28 84.224C150.709 84.224 150.179 84.12 149.688 83.912C149.197 83.6987 148.773 83.4 148.416 83.016C148.064 82.6267 147.805 82.1653 147.64 81.632L149.008 81.24C149.184 81.7733 149.477 82.1787 149.888 82.456C150.299 82.7333 150.76 82.8693 151.272 82.864C151.741 82.8533 152.147 82.7467 152.488 82.544C152.835 82.336 153.101 82.0533 153.288 81.696C153.48 81.3387 153.576 80.9253 153.576 80.456C153.576 79.7413 153.363 79.1627 152.936 78.72C152.509 78.272 151.949 78.048 151.256 78.048C151.064 78.048 150.861 78.0747 150.648 78.128C150.44 78.1813 150.245 78.256 150.064 78.352L149.376 77.224L153.648 73.36L153.832 73.84H148.096V72.48H154.888V73.848L151.248 77.336L151.232 76.832C151.995 76.7787 152.661 76.904 153.232 77.208C153.803 77.512 154.245 77.9467 154.56 78.512C154.88 79.0773 155.04 79.7253 155.04 80.456C155.04 81.192 154.875 81.8427 154.544 82.408C154.213 82.9733 153.765 83.4187 153.2 83.744C152.635 84.064 151.995 84.224 151.28 84.224ZM160.528 84.24C159.936 84.24 159.384 84.1173 158.872 83.872C158.365 83.6267 157.931 83.2907 157.568 82.864C157.211 82.432 156.955 81.936 156.8 81.376L158.168 81.008C158.264 81.3867 158.435 81.7147 158.68 81.992C158.925 82.264 159.211 82.4773 159.536 82.632C159.867 82.7813 160.211 82.856 160.568 82.856C161.037 82.856 161.459 82.744 161.832 82.52C162.211 82.2907 162.509 81.9893 162.728 81.616C162.947 81.2373 163.056 80.824 163.056 80.376C163.056 79.912 162.941 79.4933 162.712 79.12C162.488 78.7413 162.187 78.4427 161.808 78.224C161.429 78.0053 161.016 77.896 160.568 77.896C160.061 77.896 159.627 78.0027 159.264 78.216C158.907 78.424 158.624 78.68 158.416 78.984L157.152 78.504L157.504 72.48H163.688V73.832H158.192L158.824 73.24L158.528 78.064L158.216 77.656C158.536 77.3147 158.917 77.0507 159.36 76.864C159.808 76.6773 160.264 76.584 160.728 76.584C161.443 76.584 162.083 76.752 162.648 77.088C163.213 77.4187 163.661 77.872 163.992 78.448C164.323 79.0187 164.488 79.6613 164.488 80.376C164.488 81.0853 164.307 81.7333 163.944 82.32C163.581 82.9013 163.099 83.368 162.496 83.72C161.899 84.0667 161.243 84.24 160.528 84.24ZM170.369 84.24C169.559 84.24 168.876 84.04 168.321 83.64C167.767 83.2347 167.345 82.688 167.057 82C166.775 81.3067 166.633 80.5307 166.633 79.672C166.633 78.8027 166.775 78.024 167.057 77.336C167.345 76.648 167.767 76.1067 168.321 75.712C168.881 75.3173 169.567 75.12 170.377 75.12C171.177 75.12 171.865 75.32 172.441 75.72C173.023 76.1147 173.468 76.656 173.777 77.344C174.087 78.032 174.241 78.808 174.241 79.672C174.241 80.536 174.087 81.312 173.777 82C173.468 82.688 173.023 83.2347 172.441 83.64C171.865 84.04 171.175 84.24 170.369 84.24ZM166.393 84V72.48H167.825V77.64H167.665V84H166.393ZM170.193 82.936C170.764 82.936 171.236 82.792 171.609 82.504C171.983 82.216 172.263 81.8267 172.449 81.336C172.636 80.84 172.729 80.2853 172.729 79.672C172.729 79.064 172.636 78.5147 172.449 78.024C172.268 77.5333 171.985 77.144 171.601 76.856C171.223 76.568 170.74 76.424 170.153 76.424C169.593 76.424 169.129 76.5627 168.761 76.84C168.393 77.112 168.119 77.4933 167.937 77.984C167.756 78.4693 167.665 79.032 167.665 79.672C167.665 80.3013 167.753 80.864 167.929 81.36C168.111 81.8507 168.388 82.2373 168.761 82.52C169.135 82.7973 169.612 82.936 170.193 82.936ZM179.963 84.24C179.152 84.24 178.47 84.04 177.915 83.64C177.36 83.2347 176.939 82.688 176.651 82C176.368 81.3067 176.227 80.5307 176.227 79.672C176.227 78.8027 176.368 78.024 176.651 77.336C176.939 76.648 177.36 76.1067 177.915 75.712C178.475 75.3173 179.16 75.12 179.971 75.12C180.771 75.12 181.459 75.32 182.035 75.72C182.616 76.1147 183.062 76.656 183.371 77.344C183.68 78.032 183.835 78.808 183.835 79.672C183.835 80.536 183.68 81.312 183.371 82C183.062 82.688 182.616 83.2347 182.035 83.64C181.459 84.04 180.768 84.24 179.963 84.24ZM175.987 87.84V75.36H177.259V81.72H177.419V87.84H175.987ZM179.787 82.936C180.358 82.936 180.83 82.792 181.203 82.504C181.576 82.216 181.856 81.8267 182.043 81.336C182.23 80.84 182.323 80.2853 182.323 79.672C182.323 79.064 182.23 78.5147 182.043 78.024C181.862 77.5333 181.579 77.144 181.195 76.856C180.816 76.568 180.334 76.424 179.747 76.424C179.187 76.424 178.723 76.5627 178.355 76.84C177.987 77.112 177.712 77.4933 177.531 77.984C177.35 78.4693 177.259 79.032 177.259 79.672C177.259 80.3013 177.347 80.864 177.523 81.36C177.704 81.8507 177.982 82.2373 178.355 82.52C178.728 82.7973 179.206 82.936 179.787 82.936Z" fill="#110529"/>
<rect width="56" height="20" transform="translate(209 68)" fill="white"/>
<path d="M220.417 77.6167C219.783 76.9667 218.933 76.6 217.967 76.5333L221.217 73.4667V72H214.15V73.4167H219.2L215.483 76.9333L216.2 78.1167C216.567 77.9167 217.033 77.8 217.433 77.8C218.05 77.8 218.633 77.9833 219.083 78.3833C219.617 78.8667 219.85 79.5833 219.85 80.3C219.85 81.05 219.617 81.7833 219.017 82.2667C218.6 82.6167 218.033 82.8 217.45 82.8167C216.883 82.8167 216.317 82.6333 215.883 82.2833C215.5 82 215.25 81.5833 215.1 81.1167L213.667 81.5333C213.883 82.2333 214.317 82.9 214.9 83.3667C215.633 83.95 216.55 84.25 217.467 84.2333C218.367 84.2167 219.3 83.95 220.017 83.35C220.9 82.6333 221.35 81.5 221.383 80.3C221.4 79.3167 221.083 78.3167 220.417 77.6167ZM223.391 78.6833V79.9H228.391V78.6833H223.391ZM237.457 80.3833V77H235.957V80.3833H232.041L235.991 72H234.441L230.474 80.3833V81.7833H235.957V84H237.457V81.7833H238.707V80.3833H237.457ZM248.147 76.1833C247.414 75.25 246.264 74.75 245.03 74.75C243.964 74.75 242.947 75.15 242.214 75.85V72H240.714V84H242.047V82.95C242.764 83.8167 243.83 84.25 245.03 84.25C246.247 84.25 247.397 83.7333 248.147 82.8C248.897 81.85 249.147 80.6667 249.147 79.4833C249.147 78.3 248.864 77.1 248.147 76.1833ZM246.947 81.8833C246.464 82.5667 245.664 82.8833 244.847 82.8833C244.014 82.8833 243.247 82.5833 242.747 81.9667C242.247 81.35 242.047 80.4167 242.047 79.4833C242.047 78.5667 242.247 77.65 242.747 77.0167C243.23 76.4 243.98 76.1 244.797 76.1C245.68 76.1 246.447 76.4167 246.93 77.1C247.397 77.7167 247.564 78.5833 247.564 79.4833C247.564 80.3833 247.414 81.2667 246.947 81.8833ZM258.413 76.1833C257.679 75.25 256.529 74.75 255.296 74.75C254.146 74.75 253.046 75.2 252.313 76.0167V75H250.979V88H252.479V83.15C253.179 83.8833 254.179 84.25 255.296 84.25C256.513 84.25 257.663 83.7333 258.413 82.8C259.163 81.85 259.413 80.6667 259.413 79.4833C259.413 78.3 259.129 77.1 258.413 76.1833ZM257.213 81.8833C256.729 82.5667 255.929 82.8833 255.113 82.8833C254.279 82.8833 253.513 82.5833 253.013 81.9667C252.513 81.35 252.313 80.4167 252.313 79.4833C252.313 78.5667 252.513 77.65 253.013 77.0167C253.496 76.4 254.246 76.1 255.063 76.1C255.946 76.1 256.713 76.4167 257.196 77.1C257.663 77.7167 257.829 78.5833 257.829 79.4833C257.829 80.3833 257.679 81.2667 257.213 81.8833Z" fill="#110529"/>
<path d="M86.4 188H88.18V182.68H92.39L94.97 188H97.01L94.23 182.29C95.86 181.61 96.71 180.04 96.71 178.14C96.71 175.85 95.48 174.04 93.15 173.68C92.78 173.62 92.37 173.6 92.09 173.6H86.4V188ZM88.18 180.99V175.29H92.03C92.28 175.29 92.63 175.31 92.93 175.38C94.31 175.69 94.89 176.94 94.89 178.14C94.89 179.34 94.31 180.59 92.93 180.9C92.63 180.97 92.28 180.99 92.03 180.99H88.18ZM98.8125 187.99H108.383V186.29H101.553L106.193 182.12C107.673 180.81 108.383 179.86 108.383 177.97C108.383 175.32 106.363 173.3 103.692 173.3C100.923 173.3 98.8825 175.23 98.8825 177.94H100.703C100.683 176.37 101.943 175 103.663 175C105.323 175 106.563 176.29 106.563 177.95C106.563 178.86 106.273 179.69 105.213 180.64L98.8225 186.39L98.8125 187.99Z" fill="#110529"/>
<path d="M118 172V188H128V196L142 180L128 164V172H118Z" fill="#110529"/>
<path d="M322.5 180H145" stroke="#110529" stroke-width="2" stroke-linecap="square"/>
<rect width="57" height="20" transform="translate(322.5 170)" fill="white"/>
<path d="M330.78 186.224C330.209 186.224 329.679 186.12 329.188 185.912C328.697 185.699 328.273 185.4 327.916 185.016C327.564 184.627 327.305 184.165 327.14 183.632L328.508 183.24C328.684 183.773 328.977 184.179 329.388 184.456C329.799 184.733 330.26 184.869 330.772 184.864C331.241 184.853 331.647 184.747 331.988 184.544C332.335 184.336 332.601 184.053 332.788 183.696C332.98 183.339 333.076 182.925 333.076 182.456C333.076 181.741 332.863 181.163 332.436 180.72C332.009 180.272 331.449 180.048 330.756 180.048C330.564 180.048 330.361 180.075 330.148 180.128C329.94 180.181 329.745 180.256 329.564 180.352L328.876 179.224L333.148 175.36L333.332 175.84H327.596V174.48H334.388V175.848L330.748 179.336L330.732 178.832C331.495 178.779 332.161 178.904 332.732 179.208C333.303 179.512 333.745 179.947 334.06 180.512C334.38 181.077 334.54 181.725 334.54 182.456C334.54 183.192 334.375 183.843 334.044 184.408C333.713 184.973 333.265 185.419 332.7 185.744C332.135 186.064 331.495 186.224 330.78 186.224ZM340.508 186.24C339.761 186.24 339.095 186.072 338.508 185.736C337.927 185.395 337.465 184.933 337.124 184.352C336.788 183.765 336.62 183.099 336.62 182.352V178.128C336.62 177.381 336.788 176.715 337.124 176.128C337.465 175.541 337.927 175.08 338.508 174.744C339.095 174.408 339.761 174.24 340.508 174.24C341.255 174.24 341.921 174.408 342.508 174.744C343.095 175.08 343.556 175.541 343.892 176.128C344.228 176.715 344.396 177.381 344.396 178.128V182.352C344.396 183.099 344.228 183.765 343.892 184.352C343.556 184.933 343.095 185.395 342.508 185.736C341.921 186.072 341.255 186.24 340.508 186.24ZM340.508 184.872C340.961 184.872 341.372 184.763 341.74 184.544C342.108 184.325 342.401 184.032 342.62 183.664C342.839 183.291 342.948 182.88 342.948 182.432V178.04C342.948 177.587 342.839 177.176 342.62 176.808C342.401 176.44 342.108 176.147 341.74 175.928C341.372 175.709 340.961 175.6 340.508 175.6C340.06 175.6 339.649 175.709 339.276 175.928C338.908 176.147 338.615 176.44 338.396 176.808C338.177 177.176 338.068 177.587 338.068 178.04V182.432C338.068 182.88 338.177 183.291 338.396 183.664C338.615 184.032 338.908 184.325 339.276 184.544C339.649 184.763 340.06 184.872 340.508 184.872ZM350.524 186.24C349.777 186.24 349.11 186.072 348.524 185.736C347.942 185.395 347.481 184.933 347.14 184.352C346.804 183.765 346.636 183.099 346.636 182.352V178.128C346.636 177.381 346.804 176.715 347.14 176.128C347.481 175.541 347.942 175.08 348.524 174.744C349.11 174.408 349.777 174.24 350.524 174.24C351.27 174.24 351.937 174.408 352.524 174.744C353.11 175.08 353.572 175.541 353.908 176.128C354.244 176.715 354.412 177.381 354.412 178.128V182.352C354.412 183.099 354.244 183.765 353.908 184.352C353.572 184.933 353.11 185.395 352.524 185.736C351.937 186.072 351.27 186.24 350.524 186.24ZM350.524 184.872C350.977 184.872 351.388 184.763 351.756 184.544C352.124 184.325 352.417 184.032 352.636 183.664C352.854 183.291 352.964 182.88 352.964 182.432V178.04C352.964 177.587 352.854 177.176 352.636 176.808C352.417 176.44 352.124 176.147 351.756 175.928C351.388 175.709 350.977 175.6 350.524 175.6C350.076 175.6 349.665 175.709 349.292 175.928C348.924 176.147 348.63 176.44 348.412 176.808C348.193 177.176 348.084 177.587 348.084 178.04V182.432C348.084 182.88 348.193 183.291 348.412 183.664C348.63 184.032 348.924 184.325 349.292 184.544C349.665 184.763 350.076 184.872 350.524 184.872ZM360.619 186.24C359.809 186.24 359.126 186.04 358.571 185.64C358.017 185.235 357.595 184.688 357.307 184C357.025 183.307 356.883 182.531 356.883 181.672C356.883 180.803 357.025 180.024 357.307 179.336C357.595 178.648 358.017 178.107 358.571 177.712C359.131 177.317 359.817 177.12 360.627 177.12C361.427 177.12 362.115 177.32 362.691 177.72C363.273 178.115 363.718 178.656 364.027 179.344C364.337 180.032 364.491 180.808 364.491 181.672C364.491 182.536 364.337 183.312 364.027 184C363.718 184.688 363.273 185.235 362.691 185.64C362.115 186.04 361.425 186.24 360.619 186.24ZM356.643 186V174.48H358.075V179.64H357.915V186H356.643ZM360.443 184.936C361.014 184.936 361.486 184.792 361.859 184.504C362.233 184.216 362.513 183.827 362.699 183.336C362.886 182.84 362.979 182.285 362.979 181.672C362.979 181.064 362.886 180.515 362.699 180.024C362.518 179.533 362.235 179.144 361.851 178.856C361.473 178.568 360.99 178.424 360.403 178.424C359.843 178.424 359.379 178.563 359.011 178.84C358.643 179.112 358.369 179.493 358.187 179.984C358.006 180.469 357.915 181.032 357.915 181.672C357.915 182.301 358.003 182.864 358.179 183.36C358.361 183.851 358.638 184.237 359.011 184.52C359.385 184.797 359.862 184.936 360.443 184.936ZM370.213 186.24C369.402 186.24 368.72 186.04 368.165 185.64C367.61 185.235 367.189 184.688 366.901 184C366.618 183.307 366.477 182.531 366.477 181.672C366.477 180.803 366.618 180.024 366.901 179.336C367.189 178.648 367.61 178.107 368.165 177.712C368.725 177.317 369.41 177.12 370.221 177.12C371.021 177.12 371.709 177.32 372.285 177.72C372.866 178.115 373.312 178.656 373.621 179.344C373.93 180.032 374.085 180.808 374.085 181.672C374.085 182.536 373.93 183.312 373.621 184C373.312 184.688 372.866 185.235 372.285 185.64C371.709 186.04 371.018 186.24 370.213 186.24ZM366.237 189.84V177.36H367.509V183.72H367.669V189.84H366.237ZM370.037 184.936C370.608 184.936 371.08 184.792 371.453 184.504C371.826 184.216 372.106 183.827 372.293 183.336C372.48 182.84 372.573 182.285 372.573 181.672C372.573 181.064 372.48 180.515 372.293 180.024C372.112 179.533 371.829 179.144 371.445 178.856C371.066 178.568 370.584 178.424 369.997 178.424C369.437 178.424 368.973 178.563 368.605 178.84C368.237 179.112 367.962 179.493 367.781 179.984C367.6 180.469 367.509 181.032 367.509 181.672C367.509 182.301 367.597 182.864 367.773 183.36C367.954 183.851 368.232 184.237 368.605 184.52C368.978 184.797 369.456 184.936 370.037 184.936Z" fill="#110529"/>
<path d="M557 180H379.5" stroke="#110529" stroke-width="2" stroke-linecap="square"/>
<path d="M567 180L567.707 179.293L568.414 180L567.707 180.707L567 180ZM559.707 188.707L559 189.414L557.586 188L558.293 187.293L559.707 188.707ZM558.293 172.707L557.586 172L559 170.586L559.707 171.293L558.293 172.707ZM557 179L567 179L567 181L557 181L557 179ZM567.707 180.707L559.707 188.707L558.293 187.293L566.293 179.293L567.707 180.707ZM566.293 180.707L558.293 172.707L559.707 171.293L567.707 179.293L566.293 180.707Z" fill="#110529"/>
<path d="M600.5 196L418 196" stroke="#110529" stroke-width="2" stroke-linecap="square"/>
<rect width="57" height="20" transform="translate(600.5 186)" fill="white"/>
<path d="M608.78 202.224C608.209 202.224 607.679 202.12 607.188 201.912C606.697 201.699 606.273 201.4 605.916 201.016C605.564 200.627 605.305 200.165 605.14 199.632L606.508 199.24C606.684 199.773 606.977 200.179 607.388 200.456C607.799 200.733 608.26 200.869 608.772 200.864C609.241 200.853 609.647 200.747 609.988 200.544C610.335 200.336 610.601 200.053 610.788 199.696C610.98 199.339 611.076 198.925 611.076 198.456C611.076 197.741 610.863 197.163 610.436 196.72C610.009 196.272 609.449 196.048 608.756 196.048C608.564 196.048 608.361 196.075 608.148 196.128C607.94 196.181 607.745 196.256 607.564 196.352L606.876 195.224L611.148 191.36L611.332 191.84H605.596V190.48H612.388V191.848L608.748 195.336L608.732 194.832C609.495 194.779 610.161 194.904 610.732 195.208C611.303 195.512 611.745 195.947 612.06 196.512C612.38 197.077 612.54 197.725 612.54 198.456C612.54 199.192 612.375 199.843 612.044 200.408C611.713 200.973 611.265 201.419 610.7 201.744C610.135 202.064 609.495 202.224 608.78 202.224ZM618.508 202.24C617.761 202.24 617.095 202.072 616.508 201.736C615.927 201.395 615.465 200.933 615.124 200.352C614.788 199.765 614.62 199.099 614.62 198.352V194.128C614.62 193.381 614.788 192.715 615.124 192.128C615.465 191.541 615.927 191.08 616.508 190.744C617.095 190.408 617.761 190.24 618.508 190.24C619.255 190.24 619.921 190.408 620.508 190.744C621.095 191.08 621.556 191.541 621.892 192.128C622.228 192.715 622.396 193.381 622.396 194.128V198.352C622.396 199.099 622.228 199.765 621.892 200.352C621.556 200.933 621.095 201.395 620.508 201.736C619.921 202.072 619.255 202.24 618.508 202.24ZM618.508 200.872C618.961 200.872 619.372 200.763 619.74 200.544C620.108 200.325 620.401 200.032 620.62 199.664C620.839 199.291 620.948 198.88 620.948 198.432V194.04C620.948 193.587 620.839 193.176 620.62 192.808C620.401 192.44 620.108 192.147 619.74 191.928C619.372 191.709 618.961 191.6 618.508 191.6C618.06 191.6 617.649 191.709 617.276 191.928C616.908 192.147 616.615 192.44 616.396 192.808C616.177 193.176 616.068 193.587 616.068 194.04V198.432C616.068 198.88 616.177 199.291 616.396 199.664C616.615 200.032 616.908 200.325 617.276 200.544C617.649 200.763 618.06 200.872 618.508 200.872ZM628.524 202.24C627.777 202.24 627.11 202.072 626.524 201.736C625.942 201.395 625.481 200.933 625.14 200.352C624.804 199.765 624.636 199.099 624.636 198.352V194.128C624.636 193.381 624.804 192.715 625.14 192.128C625.481 191.541 625.942 191.08 626.524 190.744C627.11 190.408 627.777 190.24 628.524 190.24C629.27 190.24 629.937 190.408 630.524 190.744C631.11 191.08 631.572 191.541 631.908 192.128C632.244 192.715 632.412 193.381 632.412 194.128V198.352C632.412 199.099 632.244 199.765 631.908 200.352C631.572 200.933 631.11 201.395 630.524 201.736C629.937 202.072 629.27 202.24 628.524 202.24ZM628.524 200.872C628.977 200.872 629.388 200.763 629.756 200.544C630.124 200.325 630.417 200.032 630.636 199.664C630.854 199.291 630.964 198.88 630.964 198.432V194.04C630.964 193.587 630.854 193.176 630.636 192.808C630.417 192.44 630.124 192.147 629.756 191.928C629.388 191.709 628.977 191.6 628.524 191.6C628.076 191.6 627.665 191.709 627.292 191.928C626.924 192.147 626.63 192.44 626.412 192.808C626.193 193.176 626.084 193.587 626.084 194.04V198.432C626.084 198.88 626.193 199.291 626.412 199.664C626.63 200.032 626.924 200.325 627.292 200.544C627.665 200.763 628.076 200.872 628.524 200.872ZM638.619 202.24C637.809 202.24 637.126 202.04 636.571 201.64C636.017 201.235 635.595 200.688 635.307 200C635.025 199.307 634.883 198.531 634.883 197.672C634.883 196.803 635.025 196.024 635.307 195.336C635.595 194.648 636.017 194.107 636.571 193.712C637.131 193.317 637.817 193.12 638.627 193.12C639.427 193.12 640.115 193.32 640.691 193.72C641.273 194.115 641.718 194.656 642.027 195.344C642.337 196.032 642.491 196.808 642.491 197.672C642.491 198.536 642.337 199.312 642.027 200C641.718 200.688 641.273 201.235 640.691 201.64C640.115 202.04 639.425 202.24 638.619 202.24ZM634.643 202V190.48H636.075V195.64H635.915V202H634.643ZM638.443 200.936C639.014 200.936 639.486 200.792 639.859 200.504C640.233 200.216 640.513 199.827 640.699 199.336C640.886 198.84 640.979 198.285 640.979 197.672C640.979 197.064 640.886 196.515 640.699 196.024C640.518 195.533 640.235 195.144 639.851 194.856C639.473 194.568 638.99 194.424 638.403 194.424C637.843 194.424 637.379 194.563 637.011 194.84C636.643 195.112 636.369 195.493 636.187 195.984C636.006 196.469 635.915 197.032 635.915 197.672C635.915 198.301 636.003 198.864 636.179 199.36C636.361 199.851 636.638 200.237 637.011 200.52C637.385 200.797 637.862 200.936 638.443 200.936ZM648.213 202.24C647.402 202.24 646.72 202.04 646.165 201.64C645.61 201.235 645.189 200.688 644.901 200C644.618 199.307 644.477 198.531 644.477 197.672C644.477 196.803 644.618 196.024 644.901 195.336C645.189 194.648 645.61 194.107 646.165 193.712C646.725 193.317 647.41 193.12 648.221 193.12C649.021 193.12 649.709 193.32 650.285 193.72C650.866 194.115 651.312 194.656 651.621 195.344C651.93 196.032 652.085 196.808 652.085 197.672C652.085 198.536 651.93 199.312 651.621 200C651.312 200.688 650.866 201.235 650.285 201.64C649.709 202.04 649.018 202.24 648.213 202.24ZM644.237 205.84V193.36H645.509V199.72H645.669V205.84H644.237ZM648.037 200.936C648.608 200.936 649.08 200.792 649.453 200.504C649.826 200.216 650.106 199.827 650.293 199.336C650.48 198.84 650.573 198.285 650.573 197.672C650.573 197.064 650.48 196.515 650.293 196.024C650.112 195.533 649.829 195.144 649.445 194.856C649.066 194.568 648.584 194.424 647.997 194.424C647.437 194.424 646.973 194.563 646.605 194.84C646.237 195.112 645.962 195.493 645.781 195.984C645.6 196.469 645.509 197.032 645.509 197.672C645.509 198.301 645.597 198.864 645.773 199.36C645.954 199.851 646.232 200.237 646.605 200.52C646.978 200.797 647.456 200.936 648.037 200.936Z" fill="#110529"/>
<path d="M840 196L657.5 196" stroke="#110529" stroke-width="2" stroke-linecap="square"/>
<path d="M86.4 376H88.18V370.68H92.39L94.97 376H97.01L94.23 370.29C95.86 369.61 96.71 368.04 96.71 366.14C96.71 363.85 95.48 362.04 93.15 361.68C92.78 361.62 92.37 361.6 92.09 361.6H86.4V376ZM88.18 368.99V363.29H92.03C92.28 363.29 92.63 363.31 92.93 363.38C94.31 363.69 94.89 364.94 94.89 366.14C94.89 367.34 94.31 368.59 92.93 368.9C92.63 368.97 92.28 368.99 92.03 368.99H88.18ZM98.8125 375.99H108.383V374.29H101.553L106.193 370.12C107.673 368.81 108.383 367.86 108.383 365.97C108.383 363.32 106.363 361.3 103.692 361.3C100.923 361.3 98.8825 363.23 98.8825 365.94H100.703C100.683 364.37 101.943 363 103.663 363C105.323 363 106.563 364.29 106.563 365.95C106.563 366.86 106.273 367.69 105.213 368.64L98.8225 374.39L98.8125 375.99Z" fill="#110529"/>
<path d="M118 360V376H128V384L142 368L128 352V360H118Z" fill="#110529"/>
<path d="M322.5 368H145" stroke="#110529" stroke-width="2" stroke-linecap="square"/>
<rect width="57" height="20" transform="translate(322.5 358)" fill="white"/>
<path d="M330.78 374.224C330.209 374.224 329.679 374.12 329.188 373.912C328.697 373.699 328.273 373.4 327.916 373.016C327.564 372.627 327.305 372.165 327.14 371.632L328.508 371.24C328.684 371.773 328.977 372.179 329.388 372.456C329.799 372.733 330.26 372.869 330.772 372.864C331.241 372.853 331.647 372.747 331.988 372.544C332.335 372.336 332.601 372.053 332.788 371.696C332.98 371.339 333.076 370.925 333.076 370.456C333.076 369.741 332.863 369.163 332.436 368.72C332.009 368.272 331.449 368.048 330.756 368.048C330.564 368.048 330.361 368.075 330.148 368.128C329.94 368.181 329.745 368.256 329.564 368.352L328.876 367.224L333.148 363.36L333.332 363.84H327.596V362.48H334.388V363.848L330.748 367.336L330.732 366.832C331.495 366.779 332.161 366.904 332.732 367.208C333.303 367.512 333.745 367.947 334.06 368.512C334.38 369.077 334.54 369.725 334.54 370.456C334.54 371.192 334.375 371.843 334.044 372.408C333.713 372.973 333.265 373.419 332.7 373.744C332.135 374.064 331.495 374.224 330.78 374.224ZM340.508 374.24C339.761 374.24 339.095 374.072 338.508 373.736C337.927 373.395 337.465 372.933 337.124 372.352C336.788 371.765 336.62 371.099 336.62 370.352V366.128C336.62 365.381 336.788 364.715 337.124 364.128C337.465 363.541 337.927 363.08 338.508 362.744C339.095 362.408 339.761 362.24 340.508 362.24C341.255 362.24 341.921 362.408 342.508 362.744C343.095 363.08 343.556 363.541 343.892 364.128C344.228 364.715 344.396 365.381 344.396 366.128V370.352C344.396 371.099 344.228 371.765 343.892 372.352C343.556 372.933 343.095 373.395 342.508 373.736C341.921 374.072 341.255 374.24 340.508 374.24ZM340.508 372.872C340.961 372.872 341.372 372.763 341.74 372.544C342.108 372.325 342.401 372.032 342.62 371.664C342.839 371.291 342.948 370.88 342.948 370.432V366.04C342.948 365.587 342.839 365.176 342.62 364.808C342.401 364.44 342.108 364.147 341.74 363.928C341.372 363.709 340.961 363.6 340.508 363.6C340.06 363.6 339.649 363.709 339.276 363.928C338.908 364.147 338.615 364.44 338.396 364.808C338.177 365.176 338.068 365.587 338.068 366.04V370.432C338.068 370.88 338.177 371.291 338.396 371.664C338.615 372.032 338.908 372.325 339.276 372.544C339.649 372.763 340.06 372.872 340.508 372.872ZM350.524 374.24C349.777 374.24 349.11 374.072 348.524 373.736C347.942 373.395 347.481 372.933 347.14 372.352C346.804 371.765 346.636 371.099 346.636 370.352V366.128C346.636 365.381 346.804 364.715 347.14 364.128C347.481 363.541 347.942 363.08 348.524 362.744C349.11 362.408 349.777 362.24 350.524 362.24C351.27 362.24 351.937 362.408 352.524 362.744C353.11 363.08 353.572 363.541 353.908 364.128C354.244 364.715 354.412 365.381 354.412 366.128V370.352C354.412 371.099 354.244 371.765 353.908 372.352C353.572 372.933 353.11 373.395 352.524 373.736C351.937 374.072 351.27 374.24 350.524 374.24ZM350.524 372.872C350.977 372.872 351.388 372.763 351.756 372.544C352.124 372.325 352.417 372.032 352.636 371.664C352.854 371.291 352.964 370.88 352.964 370.432V366.04C352.964 365.587 352.854 365.176 352.636 364.808C352.417 364.44 352.124 364.147 351.756 363.928C351.388 363.709 350.977 363.6 350.524 363.6C350.076 363.6 349.665 363.709 349.292 363.928C348.924 364.147 348.63 364.44 348.412 364.808C348.193 365.176 348.084 365.587 348.084 366.04V370.432C348.084 370.88 348.193 371.291 348.412 371.664C348.63 372.032 348.924 372.325 349.292 372.544C349.665 372.763 350.076 372.872 350.524 372.872ZM360.619 374.24C359.809 374.24 359.126 374.04 358.571 373.64C358.017 373.235 357.595 372.688 357.307 372C357.025 371.307 356.883 370.531 356.883 369.672C356.883 368.803 357.025 368.024 357.307 367.336C357.595 366.648 358.017 366.107 358.571 365.712C359.131 365.317 359.817 365.12 360.627 365.12C361.427 365.12 362.115 365.32 362.691 365.72C363.273 366.115 363.718 366.656 364.027 367.344C364.337 368.032 364.491 368.808 364.491 369.672C364.491 370.536 364.337 371.312 364.027 372C363.718 372.688 363.273 373.235 362.691 373.64C362.115 374.04 361.425 374.24 360.619 374.24ZM356.643 374V362.48H358.075V367.64H357.915V374H356.643ZM360.443 372.936C361.014 372.936 361.486 372.792 361.859 372.504C362.233 372.216 362.513 371.827 362.699 371.336C362.886 370.84 362.979 370.285 362.979 369.672C362.979 369.064 362.886 368.515 362.699 368.024C362.518 367.533 362.235 367.144 361.851 366.856C361.473 366.568 360.99 366.424 360.403 366.424C359.843 366.424 359.379 366.563 359.011 366.84C358.643 367.112 358.369 367.493 358.187 367.984C358.006 368.469 357.915 369.032 357.915 369.672C357.915 370.301 358.003 370.864 358.179 371.36C358.361 371.851 358.638 372.237 359.011 372.52C359.385 372.797 359.862 372.936 360.443 372.936ZM370.213 374.24C369.402 374.24 368.72 374.04 368.165 373.64C367.61 373.235 367.189 372.688 366.901 372C366.618 371.307 366.477 370.531 366.477 369.672C366.477 368.803 366.618 368.024 366.901 367.336C367.189 366.648 367.61 366.107 368.165 365.712C368.725 365.317 369.41 365.12 370.221 365.12C371.021 365.12 371.709 365.32 372.285 365.72C372.866 366.115 373.312 366.656 373.621 367.344C373.93 368.032 374.085 368.808 374.085 369.672C374.085 370.536 373.93 371.312 373.621 372C373.312 372.688 372.866 373.235 372.285 373.64C371.709 374.04 371.018 374.24 370.213 374.24ZM366.237 377.84V365.36H367.509V371.72H367.669V377.84H366.237ZM370.037 372.936C370.608 372.936 371.08 372.792 371.453 372.504C371.826 372.216 372.106 371.827 372.293 371.336C372.48 370.84 372.573 370.285 372.573 369.672C372.573 369.064 372.48 368.515 372.293 368.024C372.112 367.533 371.829 367.144 371.445 366.856C371.066 366.568 370.584 366.424 369.997 366.424C369.437 366.424 368.973 366.563 368.605 366.84C368.237 367.112 367.962 367.493 367.781 367.984C367.6 368.469 367.509 369.032 367.509 369.672C367.509 370.301 367.597 370.864 367.773 371.36C367.954 371.851 368.232 372.237 368.605 372.52C368.978 372.797 369.456 372.936 370.037 372.936Z" fill="#110529"/>
<path d="M557 368H379.5" stroke="#110529" stroke-width="2" stroke-linecap="square"/>
<path d="M567 368L567.707 367.293L568.414 368L567.707 368.707L567 368ZM559.707 376.707L559 377.414L557.586 376L558.293 375.293L559.707 376.707ZM558.293 360.707L557.586 360L559 358.586L559.707 359.293L558.293 360.707ZM557 367L567 367L567 369L557 369L557 367ZM567.707 368.707L559.707 376.707L558.293 375.293L566.293 367.293L567.707 368.707ZM566.293 368.707L558.293 360.707L559.707 359.293L567.707 367.293L566.293 368.707Z" fill="#110529"/>
<path d="M537.5 392H355" stroke="#110529" stroke-width="2" stroke-linecap="square"/>
<rect width="57" height="20" transform="translate(537.5 382)" fill="white"/>
<path d="M545.78 398.224C545.209 398.224 544.679 398.12 544.188 397.912C543.697 397.699 543.273 397.4 542.916 397.016C542.564 396.627 542.305 396.165 542.14 395.632L543.508 395.24C543.684 395.773 543.977 396.179 544.388 396.456C544.799 396.733 545.26 396.869 545.772 396.864C546.241 396.853 546.647 396.747 546.988 396.544C547.335 396.336 547.601 396.053 547.788 395.696C547.98 395.339 548.076 394.925 548.076 394.456C548.076 393.741 547.863 393.163 547.436 392.72C547.009 392.272 546.449 392.048 545.756 392.048C545.564 392.048 545.361 392.075 545.148 392.128C544.94 392.181 544.745 392.256 544.564 392.352L543.876 391.224L548.148 387.36L548.332 387.84H542.596V386.48H549.388V387.848L545.748 391.336L545.732 390.832C546.495 390.779 547.161 390.904 547.732 391.208C548.303 391.512 548.745 391.947 549.06 392.512C549.38 393.077 549.54 393.725 549.54 394.456C549.54 395.192 549.375 395.843 549.044 396.408C548.713 396.973 548.265 397.419 547.7 397.744C547.135 398.064 546.495 398.224 545.78 398.224ZM555.508 398.24C554.761 398.24 554.095 398.072 553.508 397.736C552.927 397.395 552.465 396.933 552.124 396.352C551.788 395.765 551.62 395.099 551.62 394.352V390.128C551.62 389.381 551.788 388.715 552.124 388.128C552.465 387.541 552.927 387.08 553.508 386.744C554.095 386.408 554.761 386.24 555.508 386.24C556.255 386.24 556.921 386.408 557.508 386.744C558.095 387.08 558.556 387.541 558.892 388.128C559.228 388.715 559.396 389.381 559.396 390.128V394.352C559.396 395.099 559.228 395.765 558.892 396.352C558.556 396.933 558.095 397.395 557.508 397.736C556.921 398.072 556.255 398.24 555.508 398.24ZM555.508 396.872C555.961 396.872 556.372 396.763 556.74 396.544C557.108 396.325 557.401 396.032 557.62 395.664C557.839 395.291 557.948 394.88 557.948 394.432V390.04C557.948 389.587 557.839 389.176 557.62 388.808C557.401 388.44 557.108 388.147 556.74 387.928C556.372 387.709 555.961 387.6 555.508 387.6C555.06 387.6 554.649 387.709 554.276 387.928C553.908 388.147 553.615 388.44 553.396 388.808C553.177 389.176 553.068 389.587 553.068 390.04V394.432C553.068 394.88 553.177 395.291 553.396 395.664C553.615 396.032 553.908 396.325 554.276 396.544C554.649 396.763 555.06 396.872 555.508 396.872ZM565.524 398.24C564.777 398.24 564.11 398.072 563.524 397.736C562.942 397.395 562.481 396.933 562.14 396.352C561.804 395.765 561.636 395.099 561.636 394.352V390.128C561.636 389.381 561.804 388.715 562.14 388.128C562.481 387.541 562.942 387.08 563.524 386.744C564.11 386.408 564.777 386.24 565.524 386.24C566.27 386.24 566.937 386.408 567.524 386.744C568.11 387.08 568.572 387.541 568.908 388.128C569.244 388.715 569.412 389.381 569.412 390.128V394.352C569.412 395.099 569.244 395.765 568.908 396.352C568.572 396.933 568.11 397.395 567.524 397.736C566.937 398.072 566.27 398.24 565.524 398.24ZM565.524 396.872C565.977 396.872 566.388 396.763 566.756 396.544C567.124 396.325 567.417 396.032 567.636 395.664C567.854 395.291 567.964 394.88 567.964 394.432V390.04C567.964 389.587 567.854 389.176 567.636 388.808C567.417 388.44 567.124 388.147 566.756 387.928C566.388 387.709 565.977 387.6 565.524 387.6C565.076 387.6 564.665 387.709 564.292 387.928C563.924 388.147 563.63 388.44 563.412 388.808C563.193 389.176 563.084 389.587 563.084 390.04V394.432C563.084 394.88 563.193 395.291 563.412 395.664C563.63 396.032 563.924 396.325 564.292 396.544C564.665 396.763 565.076 396.872 565.524 396.872ZM575.619 398.24C574.809 398.24 574.126 398.04 573.571 397.64C573.017 397.235 572.595 396.688 572.307 396C572.025 395.307 571.883 394.531 571.883 393.672C571.883 392.803 572.025 392.024 572.307 391.336C572.595 390.648 573.017 390.107 573.571 389.712C574.131 389.317 574.817 389.12 575.627 389.12C576.427 389.12 577.115 389.32 577.691 389.72C578.273 390.115 578.718 390.656 579.027 391.344C579.337 392.032 579.491 392.808 579.491 393.672C579.491 394.536 579.337 395.312 579.027 396C578.718 396.688 578.273 397.235 577.691 397.64C577.115 398.04 576.425 398.24 575.619 398.24ZM571.643 398V386.48H573.075V391.64H572.915V398H571.643ZM575.443 396.936C576.014 396.936 576.486 396.792 576.859 396.504C577.233 396.216 577.513 395.827 577.699 395.336C577.886 394.84 577.979 394.285 577.979 393.672C577.979 393.064 577.886 392.515 577.699 392.024C577.518 391.533 577.235 391.144 576.851 390.856C576.473 390.568 575.99 390.424 575.403 390.424C574.843 390.424 574.379 390.563 574.011 390.84C573.643 391.112 573.369 391.493 573.187 391.984C573.006 392.469 572.915 393.032 572.915 393.672C572.915 394.301 573.003 394.864 573.179 395.36C573.361 395.851 573.638 396.237 574.011 396.52C574.385 396.797 574.862 396.936 575.443 396.936ZM585.213 398.24C584.402 398.24 583.72 398.04 583.165 397.64C582.61 397.235 582.189 396.688 581.901 396C581.618 395.307 581.477 394.531 581.477 393.672C581.477 392.803 581.618 392.024 581.901 391.336C582.189 390.648 582.61 390.107 583.165 389.712C583.725 389.317 584.41 389.12 585.221 389.12C586.021 389.12 586.709 389.32 587.285 389.72C587.866 390.115 588.312 390.656 588.621 391.344C588.93 392.032 589.085 392.808 589.085 393.672C589.085 394.536 588.93 395.312 588.621 396C588.312 396.688 587.866 397.235 587.285 397.64C586.709 398.04 586.018 398.24 585.213 398.24ZM581.237 401.84V389.36H582.509V395.72H582.669V401.84H581.237ZM585.037 396.936C585.608 396.936 586.08 396.792 586.453 396.504C586.826 396.216 587.106 395.827 587.293 395.336C587.48 394.84 587.573 394.285 587.573 393.672C587.573 393.064 587.48 392.515 587.293 392.024C587.112 391.533 586.829 391.144 586.445 390.856C586.066 390.568 585.584 390.424 584.997 390.424C584.437 390.424 583.973 390.563 583.605 390.84C583.237 391.112 582.962 391.493 582.781 391.984C582.6 392.469 582.509 393.032 582.509 393.672C582.509 394.301 582.597 394.864 582.773 395.36C582.954 395.851 583.232 396.237 583.605 396.52C583.978 396.797 584.456 396.936 585.037 396.936Z" fill="#110529"/>
<path d="M777 392H594.5" stroke="#110529" stroke-width="2" stroke-linecap="square"/>
<path d="M864 188V204H854V212L840 196L854 180V188H864Z" fill="#110529"/>
<path d="M873.4 204H875.18V198.68H879.39L881.97 204H884.01L881.23 198.29C882.86 197.61 883.71 196.04 883.71 194.14C883.71 191.85 882.48 190.04 880.15 189.68C879.78 189.62 879.37 189.6 879.09 189.6H873.4V204ZM875.18 196.99V191.29H879.03C879.28 191.29 879.63 191.31 879.93 191.38C881.31 191.69 881.89 192.94 881.89 194.14C881.89 195.34 881.31 196.59 879.93 196.9C879.63 196.97 879.28 196.99 879.03 196.99H875.18ZM888.723 204H890.533V189.6H888.723L886.013 191.22V193.21L888.723 191.57V204Z" fill="#110529"/>
<path d="M798 384V400H788V408L774 392L788 376V384H798Z" fill="#110529"/>
<path d="M807.4 400H809.18V394.68H813.39L815.97 400H818.01L815.23 394.29C816.86 393.61 817.71 392.04 817.71 390.14C817.71 387.85 816.48 386.04 814.15 385.68C813.78 385.62 813.37 385.6 813.09 385.6H807.4V400ZM809.18 392.99V387.29H813.03C813.28 387.29 813.63 387.31 813.93 387.38C815.31 387.69 815.89 388.94 815.89 390.14C815.89 391.34 815.31 392.59 813.93 392.9C813.63 392.97 813.28 392.99 813.03 392.99H809.18ZM822.723 400H824.533V385.6H822.723L820.013 387.22V389.21L822.723 387.57V400Z" fill="#110529"/>
<g filter="url(#filter0_i_5770_35709)">
<rect x="119" y="288" width="94" height="52" rx="1" fill="#D3D7E0"/>
<rect x="119" y="288" width="94" height="52" rx="1" stroke="#110529" stroke-width="2" stroke-linecap="round"/>
</g>
<g filter="url(#filter1_i_5770_35709)">
<rect x="213" y="288" width="28" height="52" rx="1" fill="#FFADBA"/>
<path d="M227.091 322.3C231.301 322.3 233.541 319.39 233.541 315.44C233.541 315.32 233.531 314.87 233.501 314.59H228.561V316.06H231.621C231.401 318.93 229.961 320.62 227.181 320.6C223.961 320.58 222.331 318.25 222.351 314.8C222.371 311.35 223.961 308.99 227.181 309.01C229.231 309.02 230.621 310.14 231.231 311.88L233.031 311.51C232.281 308.92 230.311 307.31 227.091 307.31C223.061 307.31 220.461 310.21 220.461 314.8C220.461 319.44 223.121 322.3 227.091 322.3Z" fill="#110529"/>
<rect x="213" y="288" width="28" height="52" rx="1" stroke="#110529" stroke-width="2" stroke-linecap="round"/>
</g>
<g filter="url(#filter2_i_5770_35709)">
<rect x="241" y="288" width="364" height="52" rx="1" fill="#99E099"/>
<path d="M421.758 322H424.238L429.058 307.6H427.208L422.978 320.11L418.788 307.6H416.938L421.758 322Z" fill="#110529"/>
<rect x="241" y="288" width="364" height="52" rx="1" stroke="#110529" stroke-width="2" stroke-linecap="round"/>
</g>
<g filter="url(#filter3_i_5770_35709)">
<rect x="605" y="288" width="30" height="52" rx="1" fill="#CBEB67"/>
</g>
<rect x="605" y="288" width="30" height="52" rx="1" stroke="#110529" stroke-width="2" stroke-linecap="round"/>
<path d="M614.447 322V307.6H616.247L623.757 318.85V307.6H625.557V322H623.757L616.247 310.74V322H614.447Z" fill="#110529"/>
<g filter="url(#filter4_i_5770_35709)">
<rect x="635" y="288" width="96" height="52" rx="1" fill="#C1ADFF"/>
<path d="M682.244 322.29C681.237 322.29 680.384 322.017 679.684 321.47C678.984 320.923 678.504 320.19 678.244 319.27L680.014 318.85C680.121 319.337 680.377 319.75 680.784 320.09C681.197 320.43 681.671 320.6 682.204 320.6C682.551 320.6 682.904 320.517 683.264 320.35C683.624 320.177 683.901 319.897 684.094 319.51C684.227 319.243 684.304 318.95 684.324 318.63C684.344 318.303 684.354 317.92 684.354 317.48V307.6H686.154V317.48C686.154 317.893 686.151 318.263 686.144 318.59C686.144 318.917 686.111 319.23 686.044 319.53C685.984 319.823 685.864 320.123 685.684 320.43C685.324 321.063 684.841 321.533 684.234 321.84C683.634 322.14 682.971 322.29 682.244 322.29Z" fill="#110529"/>
<rect x="635" y="288" width="96" height="52" rx="1" stroke="#110529" stroke-width="2" stroke-linecap="round"/>
</g>
<g filter="url(#filter5_i_5770_35709)">
<rect x="731" y="288" width="70" height="52" rx="1" fill="#FAFAAA"/>
<path d="M766.093 322.3C764.66 322.3 763.443 321.983 762.443 321.35C761.443 320.717 760.68 319.837 760.153 318.71C759.633 317.583 759.373 316.28 759.373 314.8C759.373 313.32 759.633 312.017 760.153 310.89C760.68 309.763 761.443 308.883 762.443 308.25C763.443 307.617 764.66 307.3 766.093 307.3C767.76 307.3 769.13 307.723 770.203 308.57C771.283 309.417 772.027 310.557 772.433 311.99L770.623 312.47C770.33 311.397 769.807 310.55 769.053 309.93C768.3 309.31 767.313 309 766.093 309C765.02 309 764.127 309.243 763.413 309.73C762.7 310.217 762.163 310.897 761.803 311.77C761.443 312.637 761.26 313.647 761.253 314.8C761.247 315.947 761.423 316.957 761.783 317.83C762.143 318.697 762.683 319.377 763.403 319.87C764.123 320.357 765.02 320.6 766.093 320.6C767.313 320.6 768.3 320.29 769.053 319.67C769.807 319.043 770.33 318.197 770.623 317.13L772.433 317.61C772.027 319.037 771.283 320.177 770.203 321.03C769.13 321.877 767.76 322.3 766.093 322.3Z" fill="#110529"/>
<rect x="731" y="288" width="70" height="52" rx="1" stroke="#110529" stroke-width="2" stroke-linecap="round"/>
</g>
<path d="M20.11 134H21.89V121.29H26.8V119.6H15.2V121.29H20.11V134ZM34.3122 134.3C37.6422 134.3 39.8322 132.47 40.6522 129.61L38.8422 129.13C38.2522 131.27 36.7422 132.6 34.3122 132.6C31.0922 132.6 29.4522 130.25 29.4722 126.8C29.4922 123.35 31.0922 121 34.3122 121C36.7422 121 38.2522 122.33 38.8422 124.47L40.6522 123.99C39.8322 121.13 37.6422 119.3 34.3122 119.3C30.0022 119.3 27.5922 122.36 27.5922 126.8C27.5922 131.24 30.0022 134.3 34.3122 134.3ZM42.8453 134H44.6253V128.68H48.8353L51.4153 134H53.4553L50.6753 128.29C52.3053 127.61 53.1553 126.04 53.1553 124.14C53.1553 121.85 51.9253 120.04 49.5953 119.68C49.2253 119.62 48.8153 119.6 48.5353 119.6H42.8453V134ZM44.6253 126.99V121.29H48.4753C48.7253 121.29 49.0753 121.31 49.3753 121.38C50.7553 121.69 51.3353 122.94 51.3353 124.14C51.3353 125.34 50.7553 126.59 49.3753 126.9C49.0753 126.97 48.7253 126.99 48.4753 126.99H44.6253ZM59.6517 123.2V138.8H61.4317V133.39C62.1417 133.96 63.1317 134.3 64.3617 134.3C67.4117 134.3 69.2617 132.57 69.2617 129.95C69.2617 127.74 67.8617 126.44 66.4717 126.09C67.5217 125.58 68.0317 124.5 68.0317 123.22C68.0317 120.84 66.2817 119.3 63.7917 119.3C61.9317 119.3 60.4017 120.16 59.8717 121.78C59.7217 122.23 59.6517 122.71 59.6517 123.2ZM61.4717 129.71V123.86C61.4717 123.44 61.4917 122.8 61.7017 122.28C62.0617 121.35 62.9417 120.99 63.8317 120.99C65.2117 120.99 66.2117 121.82 66.2117 123.24C66.2117 124.67 65.2117 125.4 63.8417 125.54V127.14C66.0317 127.18 67.4517 128.1 67.4517 129.87C67.4517 131.52 66.2117 132.61 64.4417 132.61C63.1917 132.61 61.9517 132.04 61.6217 131.01C61.5017 130.64 61.4717 130.1 61.4717 129.71Z" fill="#110529"/>
<path d="M20.11 322H21.89V309.29H26.8V307.6H15.2V309.29H20.11V322ZM34.3122 322.3C37.6422 322.3 39.8322 320.47 40.6522 317.61L38.8422 317.13C38.2522 319.27 36.7422 320.6 34.3122 320.6C31.0922 320.6 29.4522 318.25 29.4722 314.8C29.4922 311.35 31.0922 309 34.3122 309C36.7422 309 38.2522 310.33 38.8422 312.47L40.6522 311.99C39.8322 309.13 37.6422 307.3 34.3122 307.3C30.0022 307.3 27.5922 310.36 27.5922 314.8C27.5922 319.24 30.0022 322.3 34.3122 322.3ZM42.8453 322H44.6253V316.68H48.8353L51.4153 322H53.4553L50.6753 316.29C52.3053 315.61 53.1553 314.04 53.1553 312.14C53.1553 309.85 51.9253 308.04 49.5953 307.68C49.2253 307.62 48.8153 307.6 48.5353 307.6H42.8453V322ZM44.6253 314.99V309.29H48.4753C48.7253 309.29 49.0753 309.31 49.3753 309.38C50.7553 309.69 51.3353 310.94 51.3353 312.14C51.3353 313.34 50.7553 314.59 49.3753 314.9C49.0753 314.97 48.7253 314.99 48.4753 314.99H44.6253ZM63.9317 322.3C65.5717 322.3 66.8817 321.54 67.5817 320.24V322H69.1717V311.2H67.5817V312.93C66.8917 311.65 65.6317 310.9 63.9817 310.9C60.8817 310.9 59.0617 313.35 59.0617 316.6C59.0617 319.83 60.8717 322.3 63.9317 322.3ZM60.9517 316.6C60.9517 314.19 62.0617 312.53 64.1717 312.53C66.2817 312.53 67.2817 314.2 67.2817 316.59C67.2817 318.96 66.2917 320.67 64.1517 320.67C61.9817 320.67 60.9517 318.88 60.9517 316.6Z" fill="#110529"/>
<rect x="830" y="38" width="136" height="21" fill="white"/>
<path d="M118.802 140V20" stroke="#D3D7E0" stroke-width="2" stroke-linecap="square" stroke-dasharray="6 6"/>
<path d="M213.002 140V20" stroke="#D3D7E0" stroke-width="2" stroke-linecap="square" stroke-dasharray="6 6"/>
<path d="M118.591 48.24C117.775 48.24 117.039 48.1013 116.383 47.824C115.732 47.5467 115.193 47.152 114.767 46.64C114.345 46.1227 114.071 45.512 113.943 44.808L115.415 44.576C115.601 45.3013 115.988 45.8693 116.575 46.28C117.167 46.6853 117.863 46.888 118.663 46.888C119.18 46.888 119.647 46.808 120.063 46.648C120.484 46.4827 120.817 46.248 121.063 45.944C121.308 45.64 121.431 45.28 121.431 44.864C121.431 44.608 121.385 44.3893 121.295 44.208C121.209 44.0213 121.089 43.864 120.935 43.736C120.785 43.6027 120.615 43.4907 120.423 43.4C120.231 43.3093 120.031 43.2347 119.823 43.176L116.887 42.304C116.567 42.208 116.257 42.088 115.959 41.944C115.66 41.7947 115.393 41.6107 115.159 41.392C114.924 41.168 114.737 40.9013 114.599 40.592C114.46 40.2773 114.391 39.9067 114.391 39.48C114.391 38.7973 114.567 38.216 114.919 37.736C115.276 37.2507 115.759 36.88 116.367 36.624C116.975 36.368 117.66 36.2427 118.423 36.248C119.196 36.2533 119.887 36.392 120.495 36.664C121.108 36.9307 121.615 37.3147 122.015 37.816C122.42 38.3173 122.692 38.9173 122.831 39.616L121.319 39.88C121.239 39.4107 121.06 39.008 120.783 38.672C120.511 38.3307 120.169 38.0693 119.759 37.888C119.348 37.7013 118.897 37.6053 118.407 37.6C117.937 37.5947 117.513 37.6693 117.135 37.824C116.756 37.9787 116.455 38.1947 116.231 38.472C116.007 38.744 115.895 39.0587 115.895 39.416C115.895 39.768 115.996 40.0533 116.199 40.272C116.401 40.4853 116.649 40.656 116.943 40.784C117.241 40.9067 117.532 41.008 117.815 41.088L120.007 41.72C120.257 41.7893 120.545 41.8853 120.871 42.008C121.201 42.1307 121.521 42.304 121.831 42.528C122.14 42.7467 122.396 43.04 122.599 43.408C122.801 43.7707 122.903 44.2293 122.903 44.784C122.903 45.3387 122.791 45.832 122.567 46.264C122.348 46.696 122.041 47.0587 121.647 47.352C121.252 47.64 120.793 47.8587 120.271 48.008C119.748 48.1627 119.188 48.24 118.591 48.24ZM124.581 48V36.48H125.877L130.229 45.656L134.557 36.48H135.869V47.992H134.517V39.608L130.605 48H129.845L125.933 39.608V48H124.581ZM137.312 48L141.168 36.48H143.152L147.008 48H145.528L141.92 37.312H142.368L138.792 48H137.312ZM139.168 45.304V43.968H145.152V45.304H139.168ZM148.44 48V36.48H152.992C153.104 36.48 153.238 36.4853 153.392 36.496C153.547 36.5013 153.696 36.5173 153.84 36.544C154.464 36.64 154.987 36.8533 155.408 37.184C155.835 37.5147 156.155 37.9333 156.368 38.44C156.582 38.9413 156.688 39.4987 156.688 40.112C156.688 41.0027 156.456 41.776 155.992 42.432C155.528 43.0827 154.848 43.4907 153.952 43.656L153.408 43.744H149.864V48H148.44ZM155.296 48L153.024 43.312L154.432 42.88L156.928 48H155.296ZM149.864 42.392H152.944C153.046 42.392 153.16 42.3867 153.288 42.376C153.422 42.3653 153.547 42.3467 153.664 42.32C154.032 42.2347 154.331 42.08 154.56 41.856C154.795 41.6267 154.966 41.36 155.072 41.056C155.179 40.7467 155.232 40.432 155.232 40.112C155.232 39.792 155.179 39.48 155.072 39.176C154.966 38.8667 154.795 38.5973 154.56 38.368C154.331 38.1387 154.032 37.984 153.664 37.904C153.547 37.872 153.422 37.8533 153.288 37.848C153.16 37.8373 153.046 37.832 152.944 37.832H149.864V42.392ZM161.658 48V37.832H157.73V36.48H167.01V37.832H163.082V48H161.658ZM174.971 48.24C174.16 48.24 173.477 48.04 172.923 47.64C172.368 47.2347 171.947 46.688 171.659 46C171.376 45.3067 171.235 44.5307 171.235 43.672C171.235 42.8027 171.376 42.024 171.659 41.336C171.947 40.648 172.368 40.1067 172.923 39.712C173.483 39.3173 174.168 39.12 174.979 39.12C175.779 39.12 176.467 39.32 177.043 39.72C177.624 40.1147 178.069 40.656 178.379 41.344C178.688 42.032 178.843 42.808 178.843 43.672C178.843 44.536 178.688 45.312 178.379 46C178.069 46.688 177.624 47.2347 177.043 47.64C176.467 48.04 175.776 48.24 174.971 48.24ZM170.995 51.84V39.36H172.267V45.72H172.427V51.84H170.995ZM174.795 46.936C175.365 46.936 175.837 46.792 176.211 46.504C176.584 46.216 176.864 45.8267 177.051 45.336C177.237 44.84 177.331 44.2853 177.331 43.672C177.331 43.064 177.237 42.5147 177.051 42.024C176.869 41.5333 176.587 41.144 176.203 40.856C175.824 40.568 175.341 40.424 174.755 40.424C174.195 40.424 173.731 40.5627 173.363 40.84C172.995 41.112 172.72 41.4933 172.539 41.984C172.357 42.4693 172.267 43.032 172.267 43.672C172.267 44.3013 172.355 44.864 172.531 45.36C172.712 45.8507 172.989 46.2373 173.363 46.52C173.736 46.7973 174.213 46.936 174.795 46.936ZM180.597 48V39.36H181.869V41.448L181.661 41.176C181.762 40.9093 181.893 40.664 182.053 40.44C182.218 40.216 182.402 40.032 182.605 39.888C182.829 39.7067 183.082 39.568 183.365 39.472C183.647 39.376 183.935 39.32 184.229 39.304C184.522 39.2827 184.797 39.3013 185.053 39.36V40.696C184.754 40.616 184.426 40.5947 184.069 40.632C183.711 40.6693 183.381 40.8 183.077 41.024C182.799 41.2213 182.583 41.4613 182.429 41.744C182.279 42.0267 182.175 42.3333 182.117 42.664C182.058 42.9893 182.029 43.3227 182.029 43.664V48H180.597ZM186.725 37.832V36.36H188.149V37.832H186.725ZM186.725 48V39.36H188.149V48H186.725ZM200.878 48L200.886 42.472C200.886 41.8267 200.712 41.3227 200.366 40.96C200.024 40.592 199.579 40.408 199.03 40.408C198.71 40.408 198.406 40.4827 198.118 40.632C197.83 40.776 197.595 41.0053 197.414 41.32C197.232 41.6293 197.142 42.0267 197.142 42.512L196.39 42.208C196.379 41.5947 196.504 41.0587 196.766 40.6C197.032 40.136 197.395 39.776 197.854 39.52C198.312 39.264 198.83 39.136 199.406 39.136C200.307 39.136 201.016 39.4107 201.534 39.96C202.051 40.504 202.31 41.2373 202.31 42.16L202.302 48H200.878ZM190.542 48V39.36H191.814V41.672H191.974V48H190.542ZM195.718 48L195.726 42.528C195.726 41.8667 195.555 41.3493 195.214 40.976C194.872 40.5973 194.419 40.408 193.854 40.408C193.294 40.408 192.84 40.6 192.494 40.984C192.147 41.368 191.974 41.8773 191.974 42.512L191.222 42.064C191.222 41.504 191.355 41.0027 191.622 40.56C191.888 40.1173 192.251 39.7707 192.71 39.52C193.168 39.264 193.688 39.136 194.27 39.136C194.851 39.136 195.358 39.2587 195.79 39.504C196.222 39.7493 196.555 40.1013 196.79 40.56C197.024 41.0133 197.142 41.5547 197.142 42.184L197.134 48H195.718ZM208.059 48.24C207.211 48.24 206.47 48.0533 205.835 47.68C205.206 47.3013 204.715 46.776 204.363 46.104C204.011 45.4267 203.835 44.6373 203.835 43.736C203.835 42.792 204.009 41.976 204.355 41.288C204.702 40.5947 205.185 40.0613 205.803 39.688C206.427 39.3093 207.158 39.12 207.995 39.12C208.865 39.12 209.603 39.32 210.211 39.72C210.825 40.12 211.283 40.6907 211.587 41.432C211.897 42.1733 212.03 43.056 211.987 44.08H210.547V43.568C210.531 42.5067 210.315 41.7147 209.899 41.192C209.483 40.664 208.865 40.4 208.043 40.4C207.163 40.4 206.494 40.6827 206.035 41.248C205.577 41.8133 205.347 42.624 205.347 43.68C205.347 44.6987 205.577 45.488 206.035 46.048C206.494 46.608 207.147 46.888 207.995 46.888C208.566 46.888 209.062 46.7573 209.483 46.496C209.905 46.2347 210.235 45.8587 210.475 45.368L211.843 45.84C211.507 46.6027 211.001 47.1947 210.323 47.616C209.651 48.032 208.897 48.24 208.059 48.24ZM204.867 44.08V42.936H211.251V44.08H204.867ZM213.768 48V39.36H215.04V41.448L214.832 41.176C214.934 40.9093 215.064 40.664 215.224 40.44C215.39 40.216 215.574 40.032 215.776 39.888C216 39.7067 216.254 39.568 216.536 39.472C216.819 39.376 217.107 39.32 217.4 39.304C217.694 39.2827 217.968 39.3013 218.224 39.36V40.696C217.926 40.616 217.598 40.5947 217.24 40.632C216.883 40.6693 216.552 40.8 216.248 41.024C215.971 41.2213 215.755 41.4613 215.6 41.744C215.451 42.0267 215.347 42.3333 215.288 42.664C215.23 42.9893 215.2 43.3227 215.2 43.664V48H213.768Z" fill="#110529"/>
<g filter="url(#filter6_i_5770_35709)">
<rect x="119" y="100" width="94" height="52" rx="1" fill="#D3D7E0"/>
<rect x="119" y="100" width="94" height="52" rx="1" stroke="#110529" stroke-width="2" stroke-linecap="round"/>
</g>
<g filter="url(#filter7_i_5770_35709)">
<rect x="213" y="100" width="28" height="52" rx="1" fill="#FFADBA"/>
<path d="M227.091 134.3C226.105 134.3 225.205 134.127 224.391 133.78C223.578 133.433 222.878 132.937 222.291 132.29C221.705 131.637 221.251 130.85 220.931 129.93C220.618 129.003 220.461 127.96 220.461 126.8C220.461 125.267 220.735 123.94 221.281 122.82C221.828 121.7 222.598 120.837 223.591 120.23C224.585 119.617 225.751 119.31 227.091 119.31C228.705 119.31 230.005 119.687 230.991 120.44C231.978 121.187 232.658 122.21 233.031 123.51L231.231 123.88C230.931 123.007 230.438 122.31 229.751 121.79C229.065 121.27 228.208 121.01 227.181 121.01C226.108 121.003 225.215 121.243 224.501 121.73C223.795 122.21 223.261 122.887 222.901 123.76C222.541 124.633 222.358 125.647 222.351 126.8C222.345 127.947 222.521 128.953 222.881 129.82C223.241 130.687 223.778 131.367 224.491 131.86C225.211 132.347 226.108 132.593 227.181 132.6C228.108 132.607 228.888 132.43 229.521 132.07C230.155 131.71 230.645 131.19 230.991 130.51C231.338 129.83 231.548 129.013 231.621 128.06H228.561V126.59H233.501C233.521 126.723 233.531 126.883 233.531 127.07C233.538 127.25 233.541 127.373 233.541 127.44C233.541 128.753 233.295 129.93 232.801 130.97C232.315 132.003 231.591 132.817 230.631 133.41C229.678 134.003 228.498 134.3 227.091 134.3Z" fill="#110529"/>
<rect x="213" y="100" width="28" height="52" rx="1" stroke="#110529" stroke-width="2" stroke-linecap="round"/>
</g>
<g filter="url(#filter8_i_5770_35709)">
<rect x="241" y="100" width="364" height="52" rx="1" fill="#99E099"/>
<path d="M421.758 134L416.938 119.6H418.788L422.978 132.11L427.208 119.6H429.058L424.238 134H421.758Z" fill="#110529"/>
<rect x="241" y="100" width="364" height="52" rx="1" stroke="#110529" stroke-width="2" stroke-linecap="round"/>
</g>
<g filter="url(#filter9_i_5770_35709)">
<rect x="605" y="100" width="30" height="52" rx="1" fill="#CBEB67"/>
</g>
<rect x="605" y="100" width="30" height="52" rx="1" stroke="#110529" stroke-width="2" stroke-linecap="round"/>
<g filter="url(#filter10_i_5770_35709)">
<rect x="671" y="100" width="30" height="52" rx="1" fill="#FAAAFA"/>
</g>
<rect x="671" y="100" width="30" height="52" rx="1" stroke="#110529" stroke-width="2" stroke-linecap="round"/>
<g filter="url(#filter11_i_5770_35709)">
<rect x="635" y="100" width="36" height="52" rx="1" fill="#FFCB8F"/>
</g>
<rect x="635" y="100" width="36" height="52" rx="1" stroke="#110529" stroke-width="2" stroke-linecap="round"/>
<path d="M614.447 134V119.6H616.247L623.757 130.85V119.6H625.557V134H623.757L616.247 122.74V134H614.447Z" fill="#110529"/>
<path d="M680.447 134V119.6H682.247L689.757 130.85V119.6H691.557V134H689.757L682.247 122.74V134H680.447Z" fill="#110529"/>
<path d="M647.593 134V119.6H652.033C652.18 119.6 652.437 119.603 652.803 119.61C653.17 119.617 653.52 119.643 653.853 119.69C654.967 119.837 655.897 120.243 656.643 120.91C657.397 121.57 657.963 122.41 658.343 123.43C658.723 124.45 658.913 125.573 658.913 126.8C658.913 128.027 658.723 129.15 658.343 130.17C657.963 131.19 657.397 132.033 656.643 132.7C655.897 133.36 654.967 133.763 653.853 133.91C653.52 133.95 653.167 133.977 652.793 133.99C652.427 133.997 652.173 134 652.033 134H647.593ZM649.423 132.3H652.033C652.287 132.3 652.57 132.293 652.883 132.28C653.197 132.26 653.47 132.23 653.703 132.19C654.49 132.043 655.127 131.713 655.613 131.2C656.1 130.687 656.457 130.047 656.683 129.28C656.91 128.513 657.023 127.687 657.023 126.8C657.023 125.893 656.907 125.057 656.673 124.29C656.447 123.523 656.09 122.887 655.603 122.38C655.117 121.873 654.483 121.55 653.703 121.41C653.47 121.363 653.193 121.333 652.873 121.32C652.553 121.307 652.273 121.3 652.033 121.3H649.423V132.3Z" fill="#110529"/>
<g filter="url(#filter12_i_5770_35709)">
<rect x="701" y="100" width="96" height="52" rx="1" fill="#C1ADFF"/>
<path d="M748.244 134.29C747.237 134.29 746.384 134.017 745.684 133.47C744.984 132.923 744.504 132.19 744.244 131.27L746.014 130.85C746.121 131.337 746.377 131.75 746.784 132.09C747.197 132.43 747.671 132.6 748.204 132.6C748.551 132.6 748.904 132.517 749.264 132.35C749.624 132.177 749.901 131.897 750.094 131.51C750.227 131.243 750.304 130.95 750.324 130.63C750.344 130.303 750.354 129.92 750.354 129.48V119.6H752.154V129.48C752.154 129.893 752.151 130.263 752.144 130.59C752.144 130.917 752.111 131.23 752.044 131.53C751.984 131.823 751.864 132.123 751.684 132.43C751.324 133.063 750.841 133.533 750.234 133.84C749.634 134.14 748.971 134.29 748.244 134.29Z" fill="#110529"/>
<rect x="701" y="100" width="96" height="52" rx="1" stroke="#110529" stroke-width="2" stroke-linecap="round"/>
</g>
<g filter="url(#filter13_i_5770_35709)">
<rect x="797" y="100" width="70" height="52" rx="1" fill="#FAFAAA"/>
<path d="M832.093 134.3C830.66 134.3 829.443 133.983 828.443 133.35C827.443 132.717 826.68 131.837 826.153 130.71C825.633 129.583 825.373 128.28 825.373 126.8C825.373 125.32 825.633 124.017 826.153 122.89C826.68 121.763 827.443 120.883 828.443 120.25C829.443 119.617 830.66 119.3 832.093 119.3C833.76 119.3 835.13 119.723 836.203 120.57C837.283 121.417 838.027 122.557 838.433 123.99L836.623 124.47C836.33 123.397 835.807 122.55 835.053 121.93C834.3 121.31 833.313 121 832.093 121C831.02 121 830.127 121.243 829.413 121.73C828.7 122.217 828.163 122.897 827.803 123.77C827.443 124.637 827.26 125.647 827.253 126.8C827.247 127.947 827.423 128.957 827.783 129.83C828.143 130.697 828.683 131.377 829.403 131.87C830.123 132.357 831.02 132.6 832.093 132.6C833.313 132.6 834.3 132.29 835.053 131.67C835.807 131.043 836.33 130.197 836.623 129.13L838.433 129.61C838.027 131.037 837.283 132.177 836.203 133.03C835.13 133.877 833.76 134.3 832.093 134.3Z" fill="#110529"/>
<rect x="797" y="100" width="70" height="52" rx="1" stroke="#110529" stroke-width="2" stroke-linecap="round"/>
</g>
<path d="M408 196L407.293 196.707L406.586 196L407.293 195.293L408 196ZM415.293 187.293L416 186.586L417.414 188L416.707 188.707L415.293 187.293ZM416.707 203.293L417.414 204L416 205.414L415.293 204.707L416.707 203.293ZM418 197L408 197V195L418 195L418 197ZM407.293 195.293L415.293 187.293L416.707 188.707L408.707 196.707L407.293 195.293ZM408.707 195.293L416.707 203.293L415.293 204.707L407.293 196.707L408.707 195.293Z" fill="#110529"/>
<path d="M346 392L345.293 392.707L344.586 392L345.293 391.293L346 392ZM353.293 383.293L354 382.586L355.414 384L354.707 384.707L353.293 383.293ZM354.707 399.293L355.414 400L354 401.414L353.293 400.707L354.707 399.293ZM356 393L346 393V391L356 391L356 393ZM345.293 391.293L353.293 383.293L354.707 384.707L346.707 392.707L345.293 391.293ZM346.707 391.293L354.707 399.293L353.293 400.707L345.293 392.707L346.707 391.293Z" fill="#110529"/>
</g>
<defs>
<filter id="filter0_i_5770_35709" x="118" y="287" width="96" height="54" filterUnits="userSpaceOnUse" color-interpolation-filters="sRGB">
<feFlood flood-opacity="0" result="BackgroundImageFix"/>
<feBlend mode="normal" in="SourceGraphic" in2="BackgroundImageFix" result="shape"/>
<feColorMatrix in="SourceAlpha" type="matrix" values="0 0 0 0 0 0 0 0 0 0 0 0 0 0 0 0 0 0 127 0" result="hardAlpha"/>
<feOffset dx="-8" dy="-4"/>
<feComposite in2="hardAlpha" operator="arithmetic" k2="-1" k3="1"/>
<feColorMatrix type="matrix" values="0 0 0 0 0.0666667 0 0 0 0 0.0196078 0 0 0 0 0.160784 0 0 0 0.16 0"/>
<feBlend mode="normal" in2="shape" result="effect1_innerShadow_5770_35709"/>
</filter>
<filter id="filter1_i_5770_35709" x="212" y="287" width="30" height="54" filterUnits="userSpaceOnUse" color-interpolation-filters="sRGB">
<feFlood flood-opacity="0" result="BackgroundImageFix"/>
<feBlend mode="normal" in="SourceGraphic" in2="BackgroundImageFix" result="shape"/>
<feColorMatrix in="SourceAlpha" type="matrix" values="0 0 0 0 0 0 0 0 0 0 0 0 0 0 0 0 0 0 127 0" result="hardAlpha"/>
<feOffset dx="-8" dy="-4"/>
<feComposite in2="hardAlpha" operator="arithmetic" k2="-1" k3="1"/>
<feColorMatrix type="matrix" values="0 0 0 0 0.0666667 0 0 0 0 0.0196078 0 0 0 0 0.160784 0 0 0 0.16 0"/>
<feBlend mode="normal" in2="shape" result="effect1_innerShadow_5770_35709"/>
</filter>
<filter id="filter2_i_5770_35709" x="240" y="287" width="366" height="54" filterUnits="userSpaceOnUse" color-interpolation-filters="sRGB">
<feFlood flood-opacity="0" result="BackgroundImageFix"/>
<feBlend mode="normal" in="SourceGraphic" in2="BackgroundImageFix" result="shape"/>
<feColorMatrix in="SourceAlpha" type="matrix" values="0 0 0 0 0 0 0 0 0 0 0 0 0 0 0 0 0 0 127 0" result="hardAlpha"/>
<feOffset dx="-8" dy="-4"/>
<feComposite in2="hardAlpha" operator="arithmetic" k2="-1" k3="1"/>
<feColorMatrix type="matrix" values="0 0 0 0 0.0666667 0 0 0 0 0.0196078 0 0 0 0 0.160784 0 0 0 0.16 0"/>
<feBlend mode="normal" in2="shape" result="effect1_innerShadow_5770_35709"/>
</filter>
<filter id="filter3_i_5770_35709" x="604" y="287" width="32" height="54" filterUnits="userSpaceOnUse" color-interpolation-filters="sRGB">
<feFlood flood-opacity="0" result="BackgroundImageFix"/>
<feBlend mode="normal" in="SourceGraphic" in2="BackgroundImageFix" result="shape"/>
<feColorMatrix in="SourceAlpha" type="matrix" values="0 0 0 0 0 0 0 0 0 0 0 0 0 0 0 0 0 0 127 0" result="hardAlpha"/>
<feOffset dx="-8" dy="-4"/>
<feComposite in2="hardAlpha" operator="arithmetic" k2="-1" k3="1"/>
<feColorMatrix type="matrix" values="0 0 0 0 0.0666667 0 0 0 0 0.0196078 0 0 0 0 0.160784 0 0 0 0.16 0"/>
<feBlend mode="normal" in2="shape" result="effect1_innerShadow_5770_35709"/>
</filter>
<filter id="filter4_i_5770_35709" x="634" y="287" width="98" height="54" filterUnits="userSpaceOnUse" color-interpolation-filters="sRGB">
<feFlood flood-opacity="0" result="BackgroundImageFix"/>
<feBlend mode="normal" in="SourceGraphic" in2="BackgroundImageFix" result="shape"/>
<feColorMatrix in="SourceAlpha" type="matrix" values="0 0 0 0 0 0 0 0 0 0 0 0 0 0 0 0 0 0 127 0" result="hardAlpha"/>
<feOffset dx="-8" dy="-4"/>
<feComposite in2="hardAlpha" operator="arithmetic" k2="-1" k3="1"/>
<feColorMatrix type="matrix" values="0 0 0 0 0.0666667 0 0 0 0 0.0196078 0 0 0 0 0.160784 0 0 0 0.16 0"/>
<feBlend mode="normal" in2="shape" result="effect1_innerShadow_5770_35709"/>
</filter>
<filter id="filter5_i_5770_35709" x="730" y="287" width="72" height="54" filterUnits="userSpaceOnUse" color-interpolation-filters="sRGB">
<feFlood flood-opacity="0" result="BackgroundImageFix"/>
<feBlend mode="normal" in="SourceGraphic" in2="BackgroundImageFix" result="shape"/>
<feColorMatrix in="SourceAlpha" type="matrix" values="0 0 0 0 0 0 0 0 0 0 0 0 0 0 0 0 0 0 127 0" result="hardAlpha"/>
<feOffset dx="-8" dy="-4"/>
<feComposite in2="hardAlpha" operator="arithmetic" k2="-1" k3="1"/>
<feColorMatrix type="matrix" values="0 0 0 0 0.0666667 0 0 0 0 0.0196078 0 0 0 0 0.160784 0 0 0 0.16 0"/>
<feBlend mode="normal" in2="shape" result="effect1_innerShadow_5770_35709"/>
</filter>
<filter id="filter6_i_5770_35709" x="118" y="99" width="96" height="54" filterUnits="userSpaceOnUse" color-interpolation-filters="sRGB">
<feFlood flood-opacity="0" result="BackgroundImageFix"/>
<feBlend mode="normal" in="SourceGraphic" in2="BackgroundImageFix" result="shape"/>
<feColorMatrix in="SourceAlpha" type="matrix" values="0 0 0 0 0 0 0 0 0 0 0 0 0 0 0 0 0 0 127 0" result="hardAlpha"/>
<feOffset dx="-8" dy="-4"/>
<feComposite in2="hardAlpha" operator="arithmetic" k2="-1" k3="1"/>
<feColorMatrix type="matrix" values="0 0 0 0 0.0666667 0 0 0 0 0.0196078 0 0 0 0 0.160784 0 0 0 0.16 0"/>
<feBlend mode="normal" in2="shape" result="effect1_innerShadow_5770_35709"/>
</filter>
<filter id="filter7_i_5770_35709" x="212" y="99" width="30" height="54" filterUnits="userSpaceOnUse" color-interpolation-filters="sRGB">
<feFlood flood-opacity="0" result="BackgroundImageFix"/>
<feBlend mode="normal" in="SourceGraphic" in2="BackgroundImageFix" result="shape"/>
<feColorMatrix in="SourceAlpha" type="matrix" values="0 0 0 0 0 0 0 0 0 0 0 0 0 0 0 0 0 0 127 0" result="hardAlpha"/>
<feOffset dx="-8" dy="-4"/>
<feComposite in2="hardAlpha" operator="arithmetic" k2="-1" k3="1"/>
<feColorMatrix type="matrix" values="0 0 0 0 0.0666667 0 0 0 0 0.0196078 0 0 0 0 0.160784 0 0 0 0.16 0"/>
<feBlend mode="normal" in2="shape" result="effect1_innerShadow_5770_35709"/>
</filter>
<filter id="filter8_i_5770_35709" x="240" y="99" width="366" height="54" filterUnits="userSpaceOnUse" color-interpolation-filters="sRGB">
<feFlood flood-opacity="0" result="BackgroundImageFix"/>
<feBlend mode="normal" in="SourceGraphic" in2="BackgroundImageFix" result="shape"/>
<feColorMatrix in="SourceAlpha" type="matrix" values="0 0 0 0 0 0 0 0 0 0 0 0 0 0 0 0 0 0 127 0" result="hardAlpha"/>
<feOffset dx="-8" dy="-4"/>
<feComposite in2="hardAlpha" operator="arithmetic" k2="-1" k3="1"/>
<feColorMatrix type="matrix" values="0 0 0 0 0.0666667 0 0 0 0 0.0196078 0 0 0 0 0.160784 0 0 0 0.16 0"/>
<feBlend mode="normal" in2="shape" result="effect1_innerShadow_5770_35709"/>
</filter>
<filter id="filter9_i_5770_35709" x="604" y="99" width="32" height="54" filterUnits="userSpaceOnUse" color-interpolation-filters="sRGB">
<feFlood flood-opacity="0" result="BackgroundImageFix"/>
<feBlend mode="normal" in="SourceGraphic" in2="BackgroundImageFix" result="shape"/>
<feColorMatrix in="SourceAlpha" type="matrix" values="0 0 0 0 0 0 0 0 0 0 0 0 0 0 0 0 0 0 127 0" result="hardAlpha"/>
<feOffset dx="-8" dy="-4"/>
<feComposite in2="hardAlpha" operator="arithmetic" k2="-1" k3="1"/>
<feColorMatrix type="matrix" values="0 0 0 0 0.0666667 0 0 0 0 0.0196078 0 0 0 0 0.160784 0 0 0 0.16 0"/>
<feBlend mode="normal" in2="shape" result="effect1_innerShadow_5770_35709"/>
</filter>
<filter id="filter10_i_5770_35709" x="670" y="99" width="32" height="54" filterUnits="userSpaceOnUse" color-interpolation-filters="sRGB">
<feFlood flood-opacity="0" result="BackgroundImageFix"/>
<feBlend mode="normal" in="SourceGraphic" in2="BackgroundImageFix" result="shape"/>
<feColorMatrix in="SourceAlpha" type="matrix" values="0 0 0 0 0 0 0 0 0 0 0 0 0 0 0 0 0 0 127 0" result="hardAlpha"/>
<feOffset dx="-8" dy="-4"/>
<feComposite in2="hardAlpha" operator="arithmetic" k2="-1" k3="1"/>
<feColorMatrix type="matrix" values="0 0 0 0 0.0666667 0 0 0 0 0.0196078 0 0 0 0 0.160784 0 0 0 0.16 0"/>
<feBlend mode="normal" in2="shape" result="effect1_innerShadow_5770_35709"/>
</filter>
<filter id="filter11_i_5770_35709" x="634" y="99" width="38" height="54" filterUnits="userSpaceOnUse" color-interpolation-filters="sRGB">
<feFlood flood-opacity="0" result="BackgroundImageFix"/>
<feBlend mode="normal" in="SourceGraphic" in2="BackgroundImageFix" result="shape"/>
<feColorMatrix in="SourceAlpha" type="matrix" values="0 0 0 0 0 0 0 0 0 0 0 0 0 0 0 0 0 0 127 0" result="hardAlpha"/>
<feOffset dx="-8" dy="-4"/>
<feComposite in2="hardAlpha" operator="arithmetic" k2="-1" k3="1"/>
<feColorMatrix type="matrix" values="0 0 0 0 0.0666667 0 0 0 0 0.0196078 0 0 0 0 0.160784 0 0 0 0.16 0"/>
<feBlend mode="normal" in2="shape" result="effect1_innerShadow_5770_35709"/>
</filter>
<filter id="filter12_i_5770_35709" x="700" y="99" width="98" height="54" filterUnits="userSpaceOnUse" color-interpolation-filters="sRGB">
<feFlood flood-opacity="0" result="BackgroundImageFix"/>
<feBlend mode="normal" in="SourceGraphic" in2="BackgroundImageFix" result="shape"/>
<feColorMatrix in="SourceAlpha" type="matrix" values="0 0 0 0 0 0 0 0 0 0 0 0 0 0 0 0 0 0 127 0" result="hardAlpha"/>
<feOffset dx="-8" dy="-4"/>
<feComposite in2="hardAlpha" operator="arithmetic" k2="-1" k3="1"/>
<feColorMatrix type="matrix" values="0 0 0 0 0.0666667 0 0 0 0 0.0196078 0 0 0 0 0.160784 0 0 0 0.16 0"/>
<feBlend mode="normal" in2="shape" result="effect1_innerShadow_5770_35709"/>
</filter>
<filter id="filter13_i_5770_35709" x="796" y="99" width="72" height="54" filterUnits="userSpaceOnUse" color-interpolation-filters="sRGB">
<feFlood flood-opacity="0" result="BackgroundImageFix"/>
<feBlend mode="normal" in="SourceGraphic" in2="BackgroundImageFix" result="shape"/>
<feColorMatrix in="SourceAlpha" type="matrix" values="0 0 0 0 0 0 0 0 0 0 0 0 0 0 0 0 0 0 127 0" result="hardAlpha"/>
<feOffset dx="-8" dy="-4"/>
<feComposite in2="hardAlpha" operator="arithmetic" k2="-1" k3="1"/>
<feColorMatrix type="matrix" values="0 0 0 0 0.0666667 0 0 0 0 0.0196078 0 0 0 0 0.160784 0 0 0 0.16 0"/>
<feBlend mode="normal" in2="shape" result="effect1_innerShadow_5770_35709"/>
</filter>
<clipPath id="clip0_5770_35709">
<rect width="960" height="424" fill="white"/>
</clipPath>
</defs>
</svg>
