<svg width="960" height="404" viewBox="0 0 960 404" fill="none" xmlns="http://www.w3.org/2000/svg">
    <rect width="960" height="404" fill="white"/>
    <path d="M740 112V24" stroke="#D3D7E0" stroke-width="2" stroke-linecap="square" stroke-dasharray="6 6"/>
    <path d="M788 112V24" stroke="#D3D7E0" stroke-width="2" stroke-linecap="square" stroke-dasharray="6 6"/>
    <path d="M884 112V24" stroke="#D3D7E0" stroke-width="2" stroke-linecap="square" stroke-dasharray="6 6"/>
    <path d="M212 112V24" stroke="#D3D7E0" stroke-width="2" stroke-linecap="square" stroke-dasharray="6 6"/>
    <path d="M226.268 37.21C228.151 37.21 229.768 35.705 229.768 33.829C229.768 31.939 228.382 30.525 226.499 30.525C225.904 30.525 225.274 30.714 224.777 31.071L224.945 28.299H229.075V26.92H223.636L223.328 32.219L224.602 32.667C224.917 32.247 225.484 31.855 226.31 31.855C227.388 31.855 228.291 32.723 228.291 33.829C228.291 34.907 227.416 35.796 226.31 35.796C225.47 35.796 224.637 35.229 224.406 34.333L222.999 34.711C223.412 36.181 224.714 37.21 226.268 37.21ZM231.672 29.629L231.581 30.28C232.589 30.462 233.128 29.846 233.128 28.747V26.92H231.581V28.607H232.386C232.456 29.202 232.281 29.678 231.672 29.629ZM239.15 37.21C241.523 37.21 243.168 35.663 243.168 33.29V26.92H241.684V33.213C241.684 34.914 240.417 35.831 239.15 35.831C237.897 35.831 236.616 34.935 236.616 33.213V26.92L235.132 26.927V33.29C235.132 35.663 236.777 37.21 239.15 37.21ZM247.639 37H249.102V28.299H252.455V26.92H244.286V28.299H247.639V37ZM253.576 37H255.039V33.381H257.713L259.47 37H261.143L259.239 33.094C260.38 32.597 260.954 31.491 260.954 30.147C260.954 28.516 260.114 27.235 258.427 26.976C258.161 26.934 257.846 26.92 257.65 26.92H253.576V37ZM255.039 31.995V28.299H257.594C257.776 28.299 258.021 28.313 258.231 28.369C259.127 28.579 259.463 29.405 259.463 30.147C259.463 30.889 259.127 31.715 258.231 31.932C258.021 31.981 257.776 31.995 257.594 31.995H255.039Z" fill="#D3D7E0"/>
    <path d="M272 112V24" stroke="#D3D7E0" stroke-width="2" stroke-linecap="square" stroke-dasharray="6 6"/>
    <path d="M281.442 37H287.469V35.621H282.905V26.92H281.442V37Z" fill="#D3D7E0"/>
    <path d="M296 112V24" stroke="#D3D7E0" stroke-width="2" stroke-linecap="square" stroke-dasharray="6 6"/>
    <path d="M309.858 37H311.321V32.695H314.989V31.225H311.321V28.383H315.829V26.92H309.858V37ZM317.09 37H318.553V33.381H321.227L322.984 37H324.657L322.753 33.094C323.894 32.597 324.468 31.491 324.468 30.147C324.468 28.516 323.628 27.235 321.941 26.976C321.675 26.934 321.36 26.92 321.164 26.92H317.09V37ZM318.553 31.995V28.299H321.108C321.29 28.299 321.535 28.313 321.745 28.369C322.641 28.579 322.977 29.405 322.977 30.147C322.977 30.889 322.641 31.715 321.745 31.932C321.535 31.981 321.29 31.995 321.108 31.995H318.553ZM327.953 37H329.444V26.92H327.953L326.056 28.054V29.685L327.953 28.53V37Z" fill="#D3D7E0"/>
    <path d="M344 112V24" stroke="#D3D7E0" stroke-width="2" stroke-linecap="square" stroke-dasharray="6 6"/>
    <path d="M355.735 37.21C358.059 37.21 359.62 35.943 360.215 33.955L358.731 33.556C358.332 34.963 357.331 35.817 355.735 35.817C353.593 35.817 352.501 34.27 352.515 31.96C352.522 29.65 353.593 28.103 355.735 28.103C357.331 28.103 358.332 28.957 358.731 30.364L360.215 29.965C359.62 27.977 358.059 26.71 355.735 26.71C352.711 26.71 350.968 28.845 350.968 31.96C350.968 35.075 352.711 37.21 355.735 37.21ZM361.754 37H364.911C365.093 37 365.695 37 366.164 36.937C368.53 36.636 369.79 34.529 369.79 31.96C369.79 29.391 368.53 27.284 366.164 26.983C365.695 26.92 365.093 26.92 364.911 26.92H361.754V37ZM363.252 35.607V28.313H364.911C365.219 28.313 365.723 28.32 366.059 28.383C367.571 28.663 368.236 30.189 368.236 31.96C368.236 33.689 367.599 35.243 366.059 35.537C365.723 35.6 365.233 35.607 364.911 35.607H363.252ZM371.42 37H372.883V33.381H375.557L377.314 37H378.987L377.083 33.094C378.224 32.597 378.798 31.491 378.798 30.147C378.798 28.516 377.958 27.235 376.271 26.976C376.005 26.934 375.69 26.92 375.494 26.92H371.42V37ZM372.883 31.995V28.299H375.438C375.62 28.299 375.865 28.313 376.075 28.369C376.971 28.579 377.307 29.405 377.307 30.147C377.307 30.889 376.971 31.715 376.075 31.932C375.865 31.981 375.62 31.995 375.438 31.995H372.883ZM382.283 37H383.774V26.92H382.283L380.386 28.054V29.685L382.283 28.53V37Z" fill="#D3D7E0"/>
    <path d="M392 112V24" stroke="#D3D7E0" stroke-width="2" stroke-linecap="square" stroke-dasharray="6 6"/>
    <path d="M404.703 37H406.166V32.695H409.834V31.225H406.166V28.383H410.674V26.92H404.703V37ZM411.935 37H413.398V33.381H416.072L417.829 37H419.502L417.598 33.094C418.739 32.597 419.313 31.491 419.313 30.147C419.313 28.516 418.473 27.235 416.786 26.976C416.52 26.934 416.205 26.92 416.009 26.92H411.935V37ZM413.398 31.995V28.299H415.953C416.135 28.299 416.38 28.313 416.59 28.369C417.486 28.579 417.822 29.405 417.822 30.147C417.822 30.889 417.486 31.715 416.59 31.932C416.38 31.981 416.135 31.995 415.953 31.995H413.398ZM420.761 36.993H427.579V35.6H423.022L425.941 32.996C427.033 32.037 427.579 31.407 427.579 30.028C427.579 28.117 426.144 26.71 424.24 26.71C422.231 26.71 420.796 28.047 420.796 30H422.294C422.28 28.985 423.092 28.103 424.212 28.103C425.297 28.103 426.074 28.929 426.074 30.007C426.074 30.581 425.864 31.127 425.157 31.757L420.768 35.691L420.761 36.993Z" fill="#D3D7E0"/>
    <path d="M440 112V24" stroke="#D3D7E0" stroke-width="2" stroke-linecap="square" stroke-dasharray="6 6"/>
    <path d="M450.58 37.21C452.904 37.21 454.465 35.943 455.06 33.955L453.576 33.556C453.177 34.963 452.176 35.817 450.58 35.817C448.438 35.817 447.346 34.27 447.36 31.96C447.367 29.65 448.438 28.103 450.58 28.103C452.176 28.103 453.177 28.957 453.576 30.364L455.06 29.965C454.465 27.977 452.904 26.71 450.58 26.71C447.556 26.71 445.813 28.845 445.813 31.96C445.813 35.075 447.556 37.21 450.58 37.21ZM456.599 37H459.756C459.938 37 460.54 37 461.009 36.937C463.375 36.636 464.635 34.529 464.635 31.96C464.635 29.391 463.375 27.284 461.009 26.983C460.54 26.92 459.938 26.92 459.756 26.92H456.599V37ZM458.097 35.607V28.313H459.756C460.064 28.313 460.568 28.32 460.904 28.383C462.416 28.663 463.081 30.189 463.081 31.96C463.081 33.689 462.444 35.243 460.904 35.537C460.568 35.6 460.078 35.607 459.756 35.607H458.097ZM466.265 37H467.728V33.381H470.402L472.159 37H473.832L471.928 33.094C473.069 32.597 473.643 31.491 473.643 30.147C473.643 28.516 472.803 27.235 471.116 26.976C470.85 26.934 470.535 26.92 470.339 26.92H466.265V37ZM467.728 31.995V28.299H470.283C470.465 28.299 470.71 28.313 470.92 28.369C471.816 28.579 472.152 29.405 472.152 30.147C472.152 30.889 471.816 31.715 470.92 31.932C470.71 31.981 470.465 31.995 470.283 31.995H467.728ZM475.091 36.993H481.909V35.6H477.352L480.271 32.996C481.363 32.037 481.909 31.407 481.909 30.028C481.909 28.117 480.474 26.71 478.57 26.71C476.561 26.71 475.126 28.047 475.126 30H476.624C476.61 28.985 477.422 28.103 478.542 28.103C479.627 28.103 480.404 28.929 480.404 30.007C480.404 30.581 480.194 31.127 479.487 31.757L475.098 35.691L475.091 36.993Z" fill="#D3D7E0"/>
    <path d="M488 112V24" stroke="#D3D7E0" stroke-width="2" stroke-linecap="square" stroke-dasharray="6 6"/>
    <path d="M500.805 37H502.268V32.695H505.936V31.225H502.268V28.383H506.776V26.92H500.805V37ZM508.038 37H509.501V33.381H512.175L513.932 37H515.605L513.701 33.094C514.842 32.597 515.416 31.491 515.416 30.147C515.416 28.516 514.576 27.235 512.889 26.976C512.623 26.934 512.308 26.92 512.112 26.92H508.038V37ZM509.501 31.995V28.299H512.056C512.238 28.299 512.483 28.313 512.693 28.369C513.589 28.579 513.925 29.405 513.925 30.147C513.925 30.889 513.589 31.715 512.693 31.932C512.483 31.981 512.238 31.995 512.056 31.995H509.501ZM519.964 37.189C521.847 37.189 523.331 35.796 523.331 33.871C523.331 32.233 522.323 30.924 520.692 30.707L523.184 28.313V26.92H517.122V28.313H521.392L518.312 31.036L518.998 32.191C519.285 32.037 519.628 31.939 519.95 31.939C521.07 31.939 521.833 32.751 521.833 33.871C521.833 34.984 521.07 35.789 519.964 35.803C519.138 35.81 518.403 35.341 518.137 34.466L516.723 34.858C517.15 36.293 518.466 37.189 519.964 37.189Z" fill="#D3D7E0"/>
    <path d="M536 112V24" stroke="#D3D7E0" stroke-width="2" stroke-linecap="square" stroke-dasharray="6 6"/>
    <path d="M172 46L172 110" stroke="#D3D7E0" stroke-width="2" stroke-linecap="square" stroke-dasharray="6 6"/>
    <path d="M158.509 37.21C157.833 37.21 157.21 37.0933 156.64 36.86C156.071 36.622 155.576 36.2767 155.156 35.824C154.736 35.3713 154.41 34.8207 154.176 34.172C153.943 33.5233 153.826 32.786 153.826 31.96C153.826 30.8727 154.025 29.9393 154.421 29.16C154.818 28.376 155.369 27.774 156.073 27.354C156.778 26.9293 157.59 26.717 158.509 26.717C159.695 26.717 160.64 26.9923 161.344 27.543C162.054 28.0937 162.537 28.8543 162.793 29.825L161.309 30.091C161.104 29.489 160.773 29.0083 160.315 28.649C159.858 28.2897 159.284 28.1077 158.593 28.103C157.879 28.0983 157.284 28.257 156.808 28.579C156.337 28.901 155.982 29.3537 155.744 29.937C155.506 30.5157 155.385 31.19 155.38 31.96C155.376 32.73 155.492 33.4043 155.73 33.983C155.968 34.557 156.325 35.005 156.801 35.327C157.282 35.649 157.879 35.8123 158.593 35.817C159.167 35.8263 159.66 35.7213 160.07 35.502C160.486 35.278 160.815 34.9513 161.057 34.522C161.3 34.0927 161.456 33.5653 161.526 32.94H159.566V31.764H163.08C163.09 31.848 163.097 31.96 163.101 32.1C163.106 32.2353 163.108 32.3217 163.108 32.359C163.108 33.2923 162.929 34.1253 162.569 34.858C162.21 35.5907 161.687 36.167 161.001 36.587C160.315 37.0023 159.485 37.21 158.509 37.21ZM166.743 37V28.299H163.39V26.92H171.559V28.299H168.206V37H166.743ZM171.706 37L174.982 26.92H177.089L180.365 37H178.846L175.829 27.802H176.207L173.225 37H171.706ZM173.407 34.725V33.353H178.671V34.725H173.407ZM185.554 37.21C184.546 37.21 183.688 36.9907 182.978 36.552C182.269 36.1087 181.725 35.4927 181.347 34.704C180.974 33.9153 180.787 33.0007 180.787 31.96C180.787 30.9193 180.974 30.0047 181.347 29.216C181.725 28.4273 182.269 27.8137 182.978 27.375C183.688 26.9317 184.546 26.71 185.554 26.71C186.716 26.71 187.678 27.004 188.438 27.592C189.204 28.18 189.736 28.971 190.034 29.965L188.55 30.364C188.354 29.6593 188.004 29.1063 187.5 28.705C187.001 28.3037 186.352 28.103 185.554 28.103C184.84 28.103 184.245 28.264 183.769 28.586C183.293 28.908 182.934 29.3583 182.691 29.937C182.453 30.5157 182.334 31.19 182.334 31.96C182.33 32.73 182.446 33.4043 182.684 33.983C182.927 34.5617 183.286 35.012 183.762 35.334C184.243 35.656 184.84 35.817 185.554 35.817C186.352 35.817 187.001 35.6163 187.5 35.215C188.004 34.809 188.354 34.256 188.55 33.556L190.034 33.955C189.736 34.949 189.204 35.74 188.438 36.328C187.678 36.916 186.716 37.21 185.554 37.21Z" fill="#110529"/>
    <path d="M582.682 37.21C585.006 37.21 586.567 35.943 587.162 33.955L585.678 33.556C585.279 34.963 584.278 35.817 582.682 35.817C580.54 35.817 579.448 34.27 579.462 31.96C579.469 29.65 580.54 28.103 582.682 28.103C584.278 28.103 585.279 28.957 585.678 30.364L587.162 29.965C586.567 27.977 585.006 26.71 582.682 26.71C579.658 26.71 577.915 28.845 577.915 31.96C577.915 35.075 579.658 37.21 582.682 37.21ZM588.702 37H591.859C592.041 37 592.643 37 593.112 36.937C595.478 36.636 596.738 34.529 596.738 31.96C596.738 29.391 595.478 27.284 593.112 26.983C592.643 26.92 592.041 26.92 591.859 26.92H588.702V37ZM590.2 35.607V28.313H591.859C592.167 28.313 592.671 28.32 593.007 28.383C594.519 28.663 595.184 30.189 595.184 31.96C595.184 33.689 594.547 35.243 593.007 35.537C592.671 35.6 592.181 35.607 591.859 35.607H590.2ZM598.368 37H599.831V33.381H602.505L604.262 37H605.935L604.031 33.094C605.172 32.597 605.746 31.491 605.746 30.147C605.746 28.516 604.906 27.235 603.219 26.976C602.953 26.934 602.638 26.92 602.442 26.92H598.368V37ZM599.831 31.995V28.299H602.386C602.568 28.299 602.813 28.313 603.023 28.369C603.919 28.579 604.255 29.405 604.255 30.147C604.255 30.889 603.919 31.715 603.023 31.932C602.813 31.981 602.568 31.995 602.386 31.995H599.831ZM610.294 37.189C612.177 37.189 613.661 35.796 613.661 33.871C613.661 32.233 612.653 30.924 611.022 30.707L613.514 28.313V26.92H607.452V28.313H611.722L608.642 31.036L609.328 32.191C609.615 32.037 609.958 31.939 610.28 31.939C611.4 31.939 612.163 32.751 612.163 33.871C612.163 34.984 611.4 35.789 610.294 35.803C609.468 35.81 608.733 35.341 608.467 34.466L607.053 34.858C607.48 36.293 608.796 37.189 610.294 37.189Z" fill="#D3D7E0"/>
    <path d="M656 112V24" stroke="#D3D7E0" stroke-width="2" stroke-linecap="square" stroke-dasharray="6 6"/>
    <path d="M686.593 37H688.056V32.695H691.724V31.225H688.056V28.383H692.564V26.92H686.593V37ZM693.826 37H695.289V33.381H697.963L699.72 37H701.393L699.489 33.094C700.63 32.597 701.204 31.491 701.204 30.147C701.204 28.516 700.364 27.235 698.677 26.976C698.411 26.934 698.096 26.92 697.9 26.92H693.826V37ZM695.289 31.995V28.299H697.844C698.026 28.299 698.271 28.313 698.481 28.369C699.377 28.579 699.713 29.405 699.713 30.147C699.713 30.889 699.377 31.715 698.481 31.932C698.271 31.981 698.026 31.995 697.844 31.995H695.289ZM707.201 37H708.685V35.243H709.686V33.857H708.685V31.127H707.201V33.857H704.324L707.6 26.92H705.927L702.651 33.857V35.243H707.201V37Z" fill="#D3D7E0"/>
    <path d="M805.089 91.992H812.745V90.632H807.281L810.993 87.296C812.177 86.248 812.745 85.488 812.745 83.976C812.745 81.856 811.129 80.24 808.993 80.24C806.777 80.24 805.145 81.784 805.145 83.952H806.601C806.585 82.696 807.593 81.6 808.969 81.6C810.297 81.6 811.289 82.632 811.289 83.96C811.289 84.688 811.057 85.352 810.209 86.112L805.097 90.712L805.089 91.992ZM818.547 92.24C820.787 92.24 822.435 90.592 822.435 88.352V84.128C822.435 81.888 820.787 80.24 818.547 80.24C816.307 80.24 814.659 81.888 814.659 84.128V88.352C814.659 90.592 816.307 92.24 818.547 92.24ZM816.107 88.432V84.04C816.107 82.688 817.195 81.6 818.547 81.6C819.899 81.6 820.987 82.688 820.987 84.04V88.432C820.987 89.784 819.899 90.872 818.547 90.872C817.195 90.872 816.107 89.784 816.107 88.432ZM824.515 86.824H829.315V85.648H824.515V86.824ZM831.073 91.992H838.729V90.632H833.265L836.977 87.296C838.161 86.248 838.729 85.488 838.729 83.976C838.729 81.856 837.113 80.24 834.977 80.24C832.761 80.24 831.129 81.784 831.129 83.952H832.585C832.569 82.696 833.577 81.6 834.953 81.6C836.281 81.6 837.273 82.632 837.273 83.96C837.273 84.688 837.041 85.352 836.193 86.112L831.081 90.712L831.073 91.992ZM843.803 92.224C845.939 92.224 847.563 90.664 847.563 88.456C847.563 86.44 846.283 84.944 844.299 84.832L847.411 81.848V80.48H840.619V81.84H845.643L841.899 85.224L842.587 86.352C842.947 86.168 843.387 86.048 843.779 86.048C845.163 86.048 846.099 87.032 846.099 88.456C846.099 89.864 845.195 90.84 843.795 90.864C842.771 90.88 841.875 90.312 841.531 89.24L840.163 89.632C840.651 91.232 842.091 92.224 843.803 92.224ZM853.611 92.24C856.027 92.24 857.483 90.264 857.483 87.672C857.483 85.08 856.019 83.12 853.619 83.12C852.539 83.12 851.683 83.496 851.067 84.144V80.48H849.635V92H850.907V91.024C851.539 91.784 852.443 92.24 853.611 92.24ZM850.907 87.672C850.907 85.76 851.707 84.424 853.395 84.424C855.155 84.424 855.971 85.848 855.971 87.672C855.971 89.512 855.139 90.936 853.435 90.936C851.691 90.936 850.907 89.568 850.907 87.672ZM863.205 92.24C865.621 92.24 867.077 90.264 867.077 87.672C867.077 85.08 865.613 83.12 863.213 83.12C862.037 83.12 861.133 83.568 860.501 84.328V83.36H859.229V95.84H860.661V91.2C861.277 91.856 862.133 92.24 863.205 92.24ZM860.501 87.672C860.501 85.76 861.301 84.424 862.989 84.424C864.749 84.424 865.565 85.848 865.565 87.672C865.565 89.512 864.733 90.936 863.029 90.936C861.285 90.936 860.501 89.568 860.501 87.672Z" fill="#110529"/>
    <path d="M889.728 92H891.264L895.4 81.848V80.48H888.64V81.848H893.872L889.728 92ZM901.291 92.24C903.707 92.24 905.163 90.264 905.163 87.672C905.163 85.08 903.699 83.12 901.299 83.12C900.219 83.12 899.363 83.496 898.747 84.144V80.48H897.315V92H898.587V91.024C899.219 91.784 900.123 92.24 901.291 92.24ZM898.587 87.672C898.587 85.76 899.387 84.424 901.075 84.424C902.835 84.424 903.651 85.848 903.651 87.672C903.651 89.512 902.819 90.936 901.115 90.936C899.371 90.936 898.587 89.568 898.587 87.672ZM910.885 92.24C913.301 92.24 914.757 90.264 914.757 87.672C914.757 85.08 913.293 83.12 910.893 83.12C909.717 83.12 908.813 83.568 908.181 84.328V83.36H906.909V95.84H908.341V91.2C908.957 91.856 909.813 92.24 910.885 92.24ZM908.181 87.672C908.181 85.76 908.981 84.424 910.669 84.424C912.429 84.424 913.245 85.848 913.245 87.672C913.245 89.512 912.413 90.936 910.709 90.936C908.965 90.936 908.181 89.568 908.181 87.672Z" fill="#110529"/>
    <rect width="43" height="20" transform="translate(107 76)" fill="white"/>
    <path d="M114.128 92V82.056L111.96 83.368V81.776L114.128 80.48H115.576V92H114.128ZM118.3 91.992L118.308 90.712L123.42 86.112C123.847 85.728 124.132 85.3653 124.276 85.024C124.425 84.6773 124.5 84.3227 124.5 83.96C124.5 83.5173 124.399 83.1173 124.196 82.76C123.993 82.4027 123.716 82.12 123.364 81.912C123.017 81.704 122.623 81.6 122.18 81.6C121.721 81.6 121.313 81.7093 120.956 81.928C120.599 82.1413 120.316 82.4267 120.108 82.784C119.905 83.1413 119.807 83.5307 119.812 83.952H118.356C118.356 83.2267 118.524 82.5867 118.86 82.032C119.196 81.472 119.652 81.0347 120.228 80.72C120.809 80.4 121.468 80.24 122.204 80.24C122.919 80.24 123.559 80.4053 124.124 80.736C124.689 81.0613 125.135 81.5067 125.46 82.072C125.791 82.632 125.956 83.2667 125.956 83.976C125.956 84.4773 125.892 84.912 125.764 85.28C125.641 85.648 125.449 85.9893 125.188 86.304C124.927 86.6133 124.599 86.944 124.204 87.296L119.956 91.112L119.772 90.632H125.956V91.992H118.3ZM131.838 92.24C131.027 92.24 130.345 92.04 129.79 91.64C129.235 91.2347 128.814 90.688 128.526 90C128.243 89.3067 128.102 88.5307 128.102 87.672C128.102 86.8027 128.243 86.024 128.526 85.336C128.814 84.648 129.235 84.1067 129.79 83.712C130.35 83.3173 131.035 83.12 131.846 83.12C132.646 83.12 133.334 83.32 133.91 83.72C134.491 84.1147 134.937 84.656 135.246 85.344C135.555 86.032 135.71 86.808 135.71 87.672C135.71 88.536 135.555 89.312 135.246 90C134.937 90.688 134.491 91.2347 133.91 91.64C133.334 92.04 132.643 92.24 131.838 92.24ZM127.862 92V80.48H129.294V85.64H129.134V92H127.862ZM131.662 90.936C132.233 90.936 132.705 90.792 133.078 90.504C133.451 90.216 133.731 89.8267 133.918 89.336C134.105 88.84 134.198 88.2853 134.198 87.672C134.198 87.064 134.105 86.5147 133.918 86.024C133.737 85.5333 133.454 85.144 133.07 84.856C132.691 84.568 132.209 84.424 131.622 84.424C131.062 84.424 130.598 84.5627 130.23 84.84C129.862 85.112 129.587 85.4933 129.406 85.984C129.225 86.4693 129.134 87.032 129.134 87.672C129.134 88.3013 129.222 88.864 129.398 89.36C129.579 89.8507 129.857 90.2373 130.23 90.52C130.603 90.7973 131.081 90.936 131.662 90.936ZM141.432 92.24C140.621 92.24 139.938 92.04 139.384 91.64C138.829 91.2347 138.408 90.688 138.12 90C137.837 89.3067 137.696 88.5307 137.696 87.672C137.696 86.8027 137.837 86.024 138.12 85.336C138.408 84.648 138.829 84.1067 139.384 83.712C139.944 83.3173 140.629 83.12 141.44 83.12C142.24 83.12 142.928 83.32 143.504 83.72C144.085 84.1147 144.53 84.656 144.84 85.344C145.149 86.032 145.304 86.808 145.304 87.672C145.304 88.536 145.149 89.312 144.84 90C144.53 90.688 144.085 91.2347 143.504 91.64C142.928 92.04 142.237 92.24 141.432 92.24ZM137.456 95.84V83.36H138.728V89.72H138.888V95.84H137.456ZM141.256 90.936C141.826 90.936 142.298 90.792 142.672 90.504C143.045 90.216 143.325 89.8267 143.512 89.336C143.698 88.84 143.792 88.2853 143.792 87.672C143.792 87.064 143.698 86.5147 143.512 86.024C143.33 85.5333 143.048 85.144 142.664 84.856C142.285 84.568 141.802 84.424 141.216 84.424C140.656 84.424 140.192 84.5627 139.824 84.84C139.456 85.112 139.181 85.4933 139 85.984C138.818 86.4693 138.728 87.032 138.728 87.672C138.728 88.3013 138.816 88.864 138.992 89.36C139.173 89.8507 139.45 90.2373 139.824 90.52C140.197 90.7973 140.674 90.936 141.256 90.936Z" fill="#110529"/>
    <rect width="56" height="20" transform="translate(174 76)" fill="white"/>
    <path d="M185.417 85.6167C184.783 84.9667 183.933 84.6 182.967 84.5333L186.217 81.4667V80H179.15V81.4167H184.2L180.483 84.9333L181.2 86.1167C181.567 85.9167 182.033 85.8 182.433 85.8C183.05 85.8 183.633 85.9833 184.083 86.3833C184.617 86.8667 184.85 87.5833 184.85 88.3C184.85 89.05 184.617 89.7833 184.017 90.2667C183.6 90.6167 183.033 90.8 182.45 90.8167C181.883 90.8167 181.317 90.6333 180.883 90.2833C180.5 90 180.25 89.5833 180.1 89.1167L178.667 89.5333C178.883 90.2333 179.317 90.9 179.9 91.3667C180.633 91.95 181.55 92.25 182.467 92.2333C183.367 92.2167 184.3 91.95 185.017 91.35C185.9 90.6333 186.35 89.5 186.383 88.3C186.4 87.3167 186.083 86.3167 185.417 85.6167ZM188.391 86.6833V87.9H193.391V86.6833H188.391ZM202.457 88.3833V85H200.957V88.3833H197.041L200.991 80H199.441L195.474 88.3833V89.7833H200.957V92H202.457V89.7833H203.707V88.3833H202.457ZM213.147 84.1833C212.414 83.25 211.264 82.75 210.03 82.75C208.964 82.75 207.947 83.15 207.214 83.85V80H205.714V92H207.047V90.95C207.764 91.8167 208.83 92.25 210.03 92.25C211.247 92.25 212.397 91.7333 213.147 90.8C213.897 89.85 214.147 88.6667 214.147 87.4833C214.147 86.3 213.864 85.1 213.147 84.1833ZM211.947 89.8833C211.464 90.5667 210.664 90.8833 209.847 90.8833C209.014 90.8833 208.247 90.5833 207.747 89.9667C207.247 89.35 207.047 88.4167 207.047 87.4833C207.047 86.5667 207.247 85.65 207.747 85.0167C208.23 84.4 208.98 84.1 209.797 84.1C210.68 84.1 211.447 84.4167 211.93 85.1C212.397 85.7167 212.564 86.5833 212.564 87.4833C212.564 88.3833 212.414 89.2667 211.947 89.8833ZM223.413 84.1833C222.679 83.25 221.529 82.75 220.296 82.75C219.146 82.75 218.046 83.2 217.313 84.0167V83H215.979V96H217.479V91.15C218.179 91.8833 219.179 92.25 220.296 92.25C221.513 92.25 222.663 91.7333 223.413 90.8C224.163 89.85 224.413 88.6667 224.413 87.4833C224.413 86.3 224.129 85.1 223.413 84.1833ZM222.213 89.8833C221.729 90.5667 220.929 90.8833 220.113 90.8833C219.279 90.8833 218.513 90.5833 218.013 89.9667C217.513 89.35 217.313 88.4167 217.313 87.4833C217.313 86.5667 217.513 85.65 218.013 85.0167C218.496 84.4 219.246 84.1 220.063 84.1C220.946 84.1 221.713 84.4167 222.196 85.1C222.663 85.7167 222.829 86.5833 222.829 87.4833C222.829 88.3833 222.679 89.2667 222.213 89.8833Z" fill="#110529"/>
    <g filter="url(#filter0_i_5931_37564)">
        <rect x="96" y="108" width="64" height="52" rx="1" fill="#D6E0FF"/>
        <path d="M116.553 142.3C119.893 142.3 122.233 140.1 122.233 136.75V127.6H120.433V136.6C120.433 139.31 118.393 140.62 116.553 140.62C114.733 140.62 112.673 139.33 112.673 136.6V127.6L110.873 127.61V136.75C110.873 140.11 113.213 142.3 116.553 142.3ZM125.033 142H126.723V131.51L131.613 142H132.563L137.453 131.51V141.99H139.143V127.6H137.503L132.093 139.07L126.653 127.6H125.033V142ZM142.147 142H143.927V127.6H142.147V142Z" fill="#110529"/>
        <rect x="96" y="108" width="64" height="52" rx="1" stroke="#110529" stroke-width="2" stroke-linecap="round"/>
    </g>
    <g filter="url(#filter1_i_5931_37564)">
        <rect x="160" y="108" width="24" height="52" rx="1" fill="#D3D7E0"/>
        <rect x="160" y="108" width="24" height="52" rx="1" stroke="#110529" stroke-width="2" stroke-linecap="round"/>
    </g>
    <g filter="url(#filter2_i_5931_37564)">
        <rect x="184" y="108" width="28" height="52" rx="1" fill="#FFADBA"/>
        <path d="M198.091 142.3C202.301 142.3 204.541 139.39 204.541 135.44C204.541 135.32 204.531 134.87 204.501 134.59H199.561V136.06H202.621C202.401 138.93 200.961 140.62 198.181 140.6C194.961 140.58 193.331 138.25 193.351 134.8C193.371 131.35 194.961 128.99 198.181 129.01C200.231 129.02 201.621 130.14 202.231 131.88L204.031 131.51C203.281 128.92 201.311 127.31 198.091 127.31C194.061 127.31 191.461 130.21 191.461 134.8C191.461 139.44 194.121 142.3 198.091 142.3Z" fill="#110529"/>
        <rect x="184" y="108" width="28" height="52" rx="1" stroke="#110529" stroke-width="2" stroke-linecap="round"/>
    </g>
    <g filter="url(#filter3_i_5931_37564)">
        <rect x="212" y="108" width="336" height="52" rx="1" fill="#99E099"/>
        <path d="M378.758 142H381.238L386.058 127.6H384.208L379.978 140.11L375.788 127.6H373.938L378.758 142Z" fill="#110529"/>
        <rect x="212" y="108" width="336" height="52" rx="1" stroke="#110529" stroke-width="2" stroke-linecap="round"/>
    </g>
    <g filter="url(#filter4_i_5931_37564)">
        <rect x="548" y="108" width="30" height="52" rx="1" fill="#CBEB67"/>
    </g>
    <rect x="548" y="108" width="30" height="52" rx="1" stroke="#110529" stroke-width="2" stroke-linecap="round"/>
    <g filter="url(#filter5_i_5931_37564)">
        <rect x="614" y="108" width="30" height="52" rx="1" fill="#FAAAFA"/>
    </g>
    <rect x="614" y="108" width="30" height="52" rx="1" stroke="#110529" stroke-width="2" stroke-linecap="round"/>
    <g filter="url(#filter6_i_5931_37564)">
        <rect x="578" y="108" width="36" height="52" rx="1" fill="#FFCB8F"/>
    </g>
    <rect x="578" y="108" width="36" height="52" rx="1" stroke="#110529" stroke-width="2" stroke-linecap="round"/>
    <path d="M557.447 142H559.247V130.74L566.757 142H568.557V127.6H566.757V138.85L559.247 127.6H557.447V142Z" fill="#110529"/>
    <path d="M623.447 142H625.247V130.74L632.757 142H634.557V127.6H632.757V138.85L625.247 127.6H623.447V142Z" fill="#110529"/>
    <path d="M590.593 142H595.033C595.303 142 596.183 142 596.853 141.91C600.183 141.47 601.913 138.48 601.913 134.8C601.913 131.13 600.183 128.13 596.853 127.69C596.173 127.6 595.313 127.6 595.033 127.6H590.593V142ZM592.423 140.3V129.3H595.033C595.513 129.3 596.233 129.32 596.703 129.41C599.033 129.83 600.023 132.08 600.023 134.8C600.023 137.47 599.063 139.76 596.703 140.19C596.233 140.28 595.533 140.3 595.033 140.3H592.423Z" fill="#110529"/>
    <g filter="url(#filter7_i_5931_37564)">
        <rect x="644" y="108" width="96" height="52" rx="1" fill="#C1ADFF"/>
        <path d="M691.244 142.29C692.694 142.29 693.954 141.7 694.684 140.43C695.214 139.51 695.154 138.72 695.154 137.48V127.6H693.354V137.48C693.354 138.37 693.354 138.99 693.094 139.51C692.704 140.29 691.884 140.6 691.204 140.6C690.134 140.6 689.224 139.83 689.014 138.85L687.244 139.27C687.754 141.11 689.224 142.29 691.244 142.29Z" fill="#110529"/>
        <rect x="644" y="108" width="96" height="52" rx="1" stroke="#110529" stroke-width="2" stroke-linecap="round"/>
    </g>
    <g filter="url(#filter8_i_5931_37564)">
        <rect x="740" y="108" width="144" height="52" rx="1" fill="#FAFAAA"/>
        <path d="M812.093 142.3C815.423 142.3 817.613 140.47 818.433 137.61L816.623 137.13C816.033 139.27 814.523 140.6 812.093 140.6C808.873 140.6 807.233 138.25 807.253 134.8C807.273 131.35 808.873 129 812.093 129C814.523 129 816.033 130.33 816.623 132.47L818.433 131.99C817.613 129.13 815.423 127.3 812.093 127.3C807.783 127.3 805.373 130.36 805.373 134.8C805.373 139.24 807.783 142.3 812.093 142.3Z" fill="#110529"/>
        <rect x="740" y="108" width="144" height="52" rx="1" stroke="#110529" stroke-width="2" stroke-linecap="round"/>
    </g>
    <g filter="url(#filter9_i_5931_37564)">
        <rect x="884" y="108" width="30" height="52" rx="1" fill="#90E0E0"/>
        <path d="M893.447 142H895.247V130.74L902.757 142H904.557V127.6H902.757V138.85L895.247 127.6H893.447V142Z" fill="#110529"/>
        <rect x="884" y="108" width="30" height="52" rx="1" stroke="#110529" stroke-width="2" stroke-linecap="round"/>
    </g>
    <g filter="url(#filter10_i_5931_37564)">
        <rect x="96" y="268" width="64" height="52" rx="1" fill="#D6E0FF"/>
        <path d="M116.553 302.3C119.893 302.3 122.233 300.1 122.233 296.75V287.6H120.433V296.6C120.433 299.31 118.393 300.62 116.553 300.62C114.733 300.62 112.673 299.33 112.673 296.6V287.6L110.873 287.61V296.75C110.873 300.11 113.213 302.3 116.553 302.3ZM125.033 302H126.723V291.51L131.613 302H132.563L137.453 291.51V301.99H139.143V287.6H137.503L132.093 299.07L126.653 287.6H125.033V302ZM142.147 302H143.927V287.6H142.147V302Z" fill="#110529"/>
        <rect x="96" y="268" width="64" height="52" rx="1" stroke="#110529" stroke-width="2" stroke-linecap="round"/>
    </g>
    <g filter="url(#filter11_i_5931_37564)">
        <rect x="160" y="268" width="24" height="52" rx="1" fill="#D3D7E0"/>
        <rect x="160" y="268" width="24" height="52" rx="1" stroke="#110529" stroke-width="2" stroke-linecap="round"/>
    </g>
    <g filter="url(#filter12_i_5931_37564)">
        <rect x="184" y="268" width="28" height="52" rx="1" fill="#FFADBA"/>
        <path d="M198.091 302.3C202.301 302.3 204.541 299.39 204.541 295.44C204.541 295.32 204.531 294.87 204.501 294.59H199.561V296.06H202.621C202.401 298.93 200.961 300.62 198.181 300.6C194.961 300.58 193.331 298.25 193.351 294.8C193.371 291.35 194.961 288.99 198.181 289.01C200.231 289.02 201.621 290.14 202.231 291.88L204.031 291.51C203.281 288.92 201.311 287.31 198.091 287.31C194.061 287.31 191.461 290.21 191.461 294.8C191.461 299.44 194.121 302.3 198.091 302.3Z" fill="#110529"/>
        <rect x="184" y="268" width="28" height="52" rx="1" stroke="#110529" stroke-width="2" stroke-linecap="round"/>
    </g>
    <g filter="url(#filter13_i_5931_37564)">
        <rect x="212" y="268" width="336" height="52" rx="1" fill="#99E099"/>
        <path d="M378.758 302H381.238L386.058 287.6H384.208L379.978 300.11L375.788 287.6H373.938L378.758 302Z" fill="#110529"/>
        <rect x="212" y="268" width="336" height="52" rx="1" stroke="#110529" stroke-width="2" stroke-linecap="round"/>
    </g>
    <g filter="url(#filter14_i_5931_37564)">
        <rect x="548" y="268" width="30" height="52" rx="1" fill="#CBEB67"/>
    </g>
    <rect x="548" y="268" width="30" height="52" rx="1" stroke="#110529" stroke-width="2" stroke-linecap="round"/>
    <path d="M557.447 302H559.247V290.74L566.757 302H568.557V287.6H566.757V298.85L559.247 287.6H557.447V302Z" fill="#110529"/>
    <g filter="url(#filter15_i_5931_37564)">
        <rect x="578" y="268" width="96" height="52" rx="1" fill="#C1ADFF"/>
        <path d="M625.244 302.29C626.694 302.29 627.954 301.7 628.684 300.43C629.214 299.51 629.154 298.72 629.154 297.48V287.6H627.354V297.48C627.354 298.37 627.354 298.99 627.094 299.51C626.704 300.29 625.884 300.6 625.204 300.6C624.134 300.6 623.224 299.83 623.014 298.85L621.244 299.27C621.754 301.11 623.224 302.29 625.244 302.29Z" fill="#110529"/>
        <rect x="578" y="268" width="96" height="52" rx="1" stroke="#110529" stroke-width="2" stroke-linecap="round"/>
    </g>
    <g filter="url(#filter16_i_5931_37564)">
        <rect x="674" y="268" width="144" height="52" rx="1" fill="#FAFAAA"/>
        <path d="M746.093 302.3C749.423 302.3 751.613 300.47 752.433 297.61L750.623 297.13C750.033 299.27 748.523 300.6 746.093 300.6C742.873 300.6 741.233 298.25 741.253 294.8C741.273 291.35 742.873 289 746.093 289C748.523 289 750.033 290.33 750.623 292.47L752.433 291.99C751.613 289.13 749.423 287.3 746.093 287.3C741.783 287.3 739.373 290.36 739.373 294.8C739.373 299.24 741.783 302.3 746.093 302.3Z" fill="#110529"/>
        <rect x="674" y="268" width="144" height="52" rx="1" stroke="#110529" stroke-width="2" stroke-linecap="round"/>
    </g>
    <g filter="url(#filter17_i_5931_37564)">
        <rect x="818" y="268" width="30" height="52" rx="1" fill="#90E0E0"/>
        <path d="M827.447 302H829.247V290.74L836.757 302H838.557V287.6H836.757V298.85L829.247 287.6H827.447V302Z" fill="#110529"/>
        <rect x="818" y="268" width="30" height="52" rx="1" stroke="#110529" stroke-width="2" stroke-linecap="round"/>
    </g>
    <rect x="767" y="44" width="136" height="21" fill="white"/>
    <path d="M806.022 37H807.446V25.48H806.022V37ZM813.343 41.08C815.407 41.08 816.767 40.224 817.103 38.384C817.183 37.96 817.207 37.536 817.207 37.056V28.36H815.943V29.328C815.311 28.568 814.407 28.12 813.231 28.12C810.831 28.12 809.367 30.08 809.367 32.672C809.367 35.264 810.823 37.24 813.239 37.24C814.303 37.24 815.159 36.856 815.775 36.208V37.04C815.791 38.8 814.999 39.704 813.351 39.704C812.511 39.704 811.655 39.344 811.231 38.496L809.927 39.184C810.647 40.472 811.983 41.08 813.343 41.08ZM810.879 32.672C810.879 30.848 811.695 29.424 813.455 29.424C815.143 29.424 815.943 30.76 815.943 32.672C815.943 34.568 815.159 35.936 813.415 35.936C811.711 35.936 810.879 34.512 810.879 32.672ZM824.104 37.24C827.472 37.24 829.264 34.912 829.264 31.752C829.264 31.656 829.256 31.296 829.232 31.072H825.28V32.248H827.728C827.552 34.544 826.4 35.896 824.176 35.88C821.6 35.864 820.296 34 820.312 31.24C820.328 28.48 821.6 26.592 824.176 26.608C825.816 26.616 826.928 27.512 827.416 28.904L828.856 28.608C828.256 26.536 826.68 25.248 824.104 25.248C820.88 25.248 818.8 27.568 818.8 31.24C818.8 34.952 820.928 37.24 824.104 37.24ZM834.225 37H835.649V25.48H834.225V37ZM841.546 41.08C843.61 41.08 844.97 40.224 845.306 38.384C845.386 37.96 845.41 37.536 845.41 37.056V28.36H844.146V29.328C843.514 28.568 842.61 28.12 841.434 28.12C839.034 28.12 837.57 30.08 837.57 32.672C837.57 35.264 839.026 37.24 841.442 37.24C842.506 37.24 843.362 36.856 843.978 36.208V37.04C843.994 38.8 843.202 39.704 841.554 39.704C840.714 39.704 839.858 39.344 839.434 38.496L838.13 39.184C838.85 40.472 840.186 41.08 841.546 41.08ZM839.082 32.672C839.082 30.848 839.898 29.424 841.658 29.424C843.346 29.424 844.146 30.76 844.146 32.672C844.146 34.568 843.362 35.936 841.618 35.936C839.914 35.936 839.082 34.512 839.082 32.672ZM847.643 37H848.995V28.608L852.907 37H853.667L857.579 28.608V36.992H858.931V25.48H857.619L853.291 34.656L848.939 25.48H847.643V37ZM780.684 57.24C783.348 57.24 785.1 55.776 785.756 53.488L784.308 53.104C783.836 54.816 782.628 55.88 780.684 55.88C778.108 55.88 776.796 54 776.812 51.24C776.828 48.48 778.108 46.6 780.684 46.6C782.628 46.6 783.836 47.664 784.308 49.376L785.756 48.992C785.1 46.704 783.348 45.24 780.684 45.24C777.236 45.24 775.308 47.688 775.308 51.24C775.308 54.792 777.236 57.24 780.684 57.24ZM787.351 52.544H792.151V51.368H787.351V52.544ZM794.229 57H795.661V52.664C795.661 51.64 795.869 50.624 796.709 50.024C797.309 49.584 798.085 49.544 798.685 49.696V48.36C797.917 48.192 796.901 48.352 796.237 48.888C795.949 49.096 795.693 49.392 795.501 49.728V48.36H794.229V57ZM803.786 57.24C805.458 57.24 806.89 56.368 807.57 54.84L806.202 54.368C805.722 55.352 804.858 55.888 803.722 55.888C802.13 55.888 801.202 54.872 801.09 53.08H807.714C807.842 50.008 806.322 48.12 803.722 48.12C801.21 48.12 799.562 49.904 799.562 52.736C799.562 55.44 801.234 57.24 803.786 57.24ZM801.114 51.936C801.314 50.296 802.218 49.4 803.77 49.4C805.234 49.4 806.058 50.24 806.234 51.936H801.114ZM812.991 61.08C815.055 61.08 816.415 60.224 816.751 58.384C816.831 57.96 816.855 57.536 816.855 57.056V48.36H815.591V49.328C814.959 48.568 814.055 48.12 812.879 48.12C810.479 48.12 809.015 50.08 809.015 52.672C809.015 55.264 810.471 57.24 812.887 57.24C813.951 57.24 814.807 56.856 815.423 56.208V57.04C815.439 58.8 814.647 59.704 812.999 59.704C812.159 59.704 811.303 59.344 810.879 58.496L809.575 59.184C810.295 60.472 811.631 61.08 812.991 61.08ZM810.527 52.672C810.527 50.848 811.343 49.424 813.103 49.424C814.791 49.424 815.591 50.76 815.591 52.672C815.591 54.568 814.807 55.936 813.063 55.936C811.359 55.936 810.527 54.512 810.527 52.672ZM819.249 46.832H820.673V45.36H819.249V46.832ZM819.249 57H820.673V48.36H819.249V57ZM826.753 57.24C829.321 57.24 830.921 55.384 830.921 52.672C830.921 50 829.345 48.12 826.753 48.12C824.217 48.12 822.593 49.96 822.593 52.672C822.593 55.352 824.169 57.24 826.753 57.24ZM824.105 52.672C824.105 50.784 824.945 49.472 826.753 49.472C828.521 49.472 829.409 50.728 829.409 52.672C829.409 54.576 828.537 55.888 826.753 55.888C825.009 55.888 824.105 54.624 824.105 52.672ZM838.835 52.672V57H840.275V52.224C840.275 50.584 839.619 48.136 836.835 48.136C835.587 48.136 834.595 48.616 833.955 49.472V48.36H832.675V57H834.115V52.448C834.115 50.448 835.059 49.488 836.491 49.488C838.315 49.488 838.835 51.048 838.835 52.672ZM849.526 57.24C851.942 57.24 853.398 55.264 853.398 52.672C853.398 50.08 851.934 48.12 849.534 48.12C848.358 48.12 847.454 48.568 846.822 49.328V48.36H845.55V60.84H846.982V56.2C847.598 56.856 848.454 57.24 849.526 57.24ZM846.822 52.672C846.822 50.76 847.622 49.424 849.31 49.424C851.07 49.424 851.886 50.848 851.886 52.672C851.886 54.512 851.054 55.936 849.35 55.936C847.606 55.936 846.822 54.568 846.822 52.672ZM855.151 57H856.583V52.664C856.583 51.64 856.791 50.624 857.631 50.024C858.231 49.584 859.007 49.544 859.607 49.696V48.36C858.839 48.192 857.823 48.352 857.159 48.888C856.871 49.096 856.615 49.392 856.423 49.728V48.36H855.151V57ZM861.28 46.832H862.704V45.36H861.28V46.832ZM861.28 57H862.704V48.36H861.28V57ZM875.44 51.472L875.432 57H876.856L876.864 51.16C876.864 49.32 875.76 48.136 873.96 48.136C872.824 48.136 871.856 48.672 871.344 49.56C870.88 48.656 869.992 48.136 868.824 48.136C867.792 48.136 866.912 48.576 866.368 49.28V48.36H865.096V57H866.528V51.512C866.528 50.248 867.28 49.408 868.408 49.408C869.536 49.408 870.28 50.216 870.28 51.528L870.272 57H871.688L871.696 51.512C871.696 50.056 872.616 49.408 873.584 49.408C874.672 49.408 875.44 50.184 875.44 51.472ZM882.614 57.24C884.286 57.24 885.718 56.368 886.398 54.84L885.03 54.368C884.55 55.352 883.686 55.888 882.55 55.888C880.958 55.888 880.03 54.872 879.918 53.08H886.542C886.67 50.008 885.15 48.12 882.55 48.12C880.038 48.12 878.39 49.904 878.39 52.736C878.39 55.44 880.062 57.24 882.614 57.24ZM879.942 51.936C880.142 50.296 881.046 49.4 882.598 49.4C884.062 49.4 884.886 50.24 885.062 51.936H879.942ZM888.323 57H889.755V52.664C889.755 51.64 889.963 50.624 890.803 50.024C891.403 49.584 892.179 49.544 892.779 49.696V48.36C892.011 48.192 890.995 48.352 890.331 48.888C890.043 49.096 889.787 49.392 889.595 49.728V48.36H888.323V57Z" fill="#110529"/>
    <path d="M32.9984 142H34.7784V127.6H32.9984V142ZM43.6089 142.3C47.8189 142.3 50.0589 139.39 50.0589 135.44C50.0589 135.32 50.0489 134.87 50.0189 134.59H45.0789V136.06H48.1389C47.9189 138.93 46.4789 140.62 43.6989 140.6C40.4789 140.58 38.8489 138.25 38.8689 134.8C38.8889 131.35 40.4789 128.99 43.6989 129.01C45.7489 129.02 47.1389 130.14 47.7489 131.88L49.5489 131.51C48.7989 128.92 46.8289 127.31 43.6089 127.31C39.5789 127.31 36.9789 130.21 36.9789 134.8C36.9789 139.44 39.6389 142.3 43.6089 142.3ZM52.0563 142H53.8363V135.64H61.4163V142H63.1963V127.6H61.4163V133.95H53.8363V127.6H52.0563V142Z" fill="#110529"/>
    <path d="M28.0277 292H29.8077V277.6H28.0277V292ZM38.6382 292.3C42.8482 292.3 45.0882 289.39 45.0882 285.44C45.0882 285.32 45.0782 284.87 45.0482 284.59H40.1082V286.06H43.1682C42.9482 288.93 41.5082 290.62 38.7282 290.6C35.5082 290.58 33.8782 288.25 33.8982 284.8C33.9182 281.35 35.5082 278.99 38.7282 279.01C40.7782 279.02 42.1682 280.14 42.7782 281.88L44.5782 281.51C43.8282 278.92 41.8582 277.31 38.6382 277.31C34.6082 277.31 32.0082 280.21 32.0082 284.8C32.0082 289.44 34.6682 292.3 38.6382 292.3ZM47.0855 292H48.8655V284.96L55.6155 292H57.9155L50.8655 284.59L57.4055 277.6H55.1655L48.8655 284.36V277.6H47.0855V292ZM66.5654 277.6L62.7254 292H64.5354L68.3754 277.6H66.5654ZM34.7953 312H36.5753V297.6H34.7953V312ZM45.4058 312.3C49.6158 312.3 51.8558 309.39 51.8558 305.44C51.8558 305.32 51.8458 304.87 51.8158 304.59H46.8758V306.06H49.9358C49.7158 308.93 48.2758 310.62 45.4958 310.6C42.2758 310.58 40.6458 308.25 40.6658 304.8C40.6858 301.35 42.2758 298.99 45.4958 299.01C47.5458 299.02 48.9358 300.14 49.5458 301.88L51.3458 301.51C50.5958 298.92 48.6258 297.31 45.4058 297.31C41.3758 297.31 38.7758 300.21 38.7758 304.8C38.7758 309.44 41.4358 312.3 45.4058 312.3ZM54.0531 312H62.5131V310.31H55.8331V297.6H54.0531V312Z" fill="#110529"/>
    <path d="M326 184L325.293 184.707L324.586 184L325.293 183.293L326 184ZM333.293 175.293L334 174.586L335.414 176L334.707 176.707L333.293 175.293ZM334.707 191.293L335.414 192L334 193.414L333.293 192.707L334.707 191.293ZM336 185L326 185L326 183L336 183L336 185ZM325.293 183.293L333.293 175.293L334.707 176.707L326.707 184.707L325.293 183.293ZM326.707 183.293L334.707 191.293L333.293 192.707L325.293 184.707L326.707 183.293Z" fill="#110529"/>
    <path d="M580.5 184H336" stroke="#110529" stroke-width="2"/>
    <rect width="57" height="20" transform="translate(580.5 174)" fill="white"/>
    <path d="M589.171 190.224C591.307 190.224 592.931 188.664 592.931 186.456C592.931 184.44 591.651 182.944 589.667 182.832L592.779 179.848V178.48H585.987V179.84H591.011L587.267 183.224L587.955 184.352C588.315 184.168 588.755 184.048 589.147 184.048C590.531 184.048 591.467 185.032 591.467 186.456C591.467 187.864 590.563 188.84 589.163 188.864C588.139 188.88 587.243 188.312 586.899 187.24L585.531 187.632C586.019 189.232 587.459 190.224 589.171 190.224ZM598.899 190.24C601.139 190.24 602.787 188.592 602.787 186.352V182.128C602.787 179.888 601.139 178.24 598.899 178.24C596.659 178.24 595.011 179.888 595.011 182.128V186.352C595.011 188.592 596.659 190.24 598.899 190.24ZM596.459 186.432V182.04C596.459 180.688 597.547 179.6 598.899 179.6C600.251 179.6 601.339 180.688 601.339 182.04V186.432C601.339 187.784 600.251 188.872 598.899 188.872C597.547 188.872 596.459 187.784 596.459 186.432ZM608.914 190.24C611.154 190.24 612.802 188.592 612.802 186.352V182.128C612.802 179.888 611.154 178.24 608.914 178.24C606.674 178.24 605.026 179.888 605.026 182.128V186.352C605.026 188.592 606.674 190.24 608.914 190.24ZM606.474 186.432V182.04C606.474 180.688 607.562 179.6 608.914 179.6C610.266 179.6 611.354 180.688 611.354 182.04V186.432C611.354 187.784 610.266 188.872 608.914 188.872C607.562 188.872 606.474 187.784 606.474 186.432ZM619.01 190.24C621.426 190.24 622.882 188.264 622.882 185.672C622.882 183.08 621.418 181.12 619.018 181.12C617.938 181.12 617.082 181.496 616.466 182.144V178.48H615.034V190H616.306V189.024C616.938 189.784 617.842 190.24 619.01 190.24ZM616.306 185.672C616.306 183.76 617.106 182.424 618.794 182.424C620.554 182.424 621.37 183.848 621.37 185.672C621.37 187.512 620.538 188.936 618.834 188.936C617.09 188.936 616.306 187.568 616.306 185.672ZM628.604 190.24C631.02 190.24 632.476 188.264 632.476 185.672C632.476 183.08 631.012 181.12 628.612 181.12C627.436 181.12 626.532 181.568 625.9 182.328V181.36H624.628V193.84H626.06V189.2C626.676 189.856 627.532 190.24 628.604 190.24ZM625.9 185.672C625.9 183.76 626.7 182.424 628.388 182.424C630.148 182.424 630.964 183.848 630.964 185.672C630.964 187.512 630.132 188.936 628.428 188.936C626.684 188.936 625.9 187.568 625.9 185.672Z" fill="#110529"/>
    <path d="M882 184H637.5" stroke="#110529" stroke-width="2"/>
    <path d="M890.62 190H892.044V185.744H895.412L897.476 190H899.108L896.884 185.432C898.188 184.888 898.868 183.632 898.868 182.112C898.868 180.28 897.884 178.832 896.02 178.544C895.724 178.496 895.396 178.48 895.172 178.48H890.62V190ZM892.044 184.392V179.832H895.124C895.324 179.832 895.604 179.848 895.844 179.904C896.948 180.152 897.412 181.152 897.412 182.112C897.412 183.072 896.948 184.072 895.844 184.32C895.604 184.376 895.324 184.392 895.124 184.392H892.044ZM902.878 190H904.326V178.48H902.878L900.71 179.776V181.368L902.878 180.056V190Z" fill="#110529"/>
    <rect x="882" y="172" width="32" height="24" rx="1" stroke="#110529" stroke-width="2"/>
    <path d="M326 344L325.293 344.707L324.586 344L325.293 343.293L326 344ZM333.293 335.293L334 334.586L335.414 336L334.707 336.707L333.293 335.293ZM334.707 351.293L335.414 352L334 353.414L333.293 352.707L334.707 351.293ZM336 345L326 345L326 343L336 343L336 345ZM325.293 343.293L333.293 335.293L334.707 336.707L326.707 344.707L325.293 343.293ZM326.707 343.293L334.707 351.293L333.293 352.707L325.293 344.707L326.707 343.293Z" fill="#110529"/>
    <path d="M547.5 344H336" stroke="#110529" stroke-width="2"/>
    <rect width="57" height="20" transform="translate(547.5 334)" fill="white"/>
    <path d="M556.171 350.224C558.307 350.224 559.931 348.664 559.931 346.456C559.931 344.44 558.651 342.944 556.667 342.832L559.779 339.848V338.48H552.987V339.84H558.011L554.267 343.224L554.955 344.352C555.315 344.168 555.755 344.048 556.147 344.048C557.531 344.048 558.467 345.032 558.467 346.456C558.467 347.864 557.563 348.84 556.163 348.864C555.139 348.88 554.243 348.312 553.899 347.24L552.531 347.632C553.019 349.232 554.459 350.224 556.171 350.224ZM565.899 350.24C568.139 350.24 569.787 348.592 569.787 346.352V342.128C569.787 339.888 568.139 338.24 565.899 338.24C563.659 338.24 562.011 339.888 562.011 342.128V346.352C562.011 348.592 563.659 350.24 565.899 350.24ZM563.459 346.432V342.04C563.459 340.688 564.547 339.6 565.899 339.6C567.251 339.6 568.339 340.688 568.339 342.04V346.432C568.339 347.784 567.251 348.872 565.899 348.872C564.547 348.872 563.459 347.784 563.459 346.432ZM575.914 350.24C578.154 350.24 579.802 348.592 579.802 346.352V342.128C579.802 339.888 578.154 338.24 575.914 338.24C573.674 338.24 572.026 339.888 572.026 342.128V346.352C572.026 348.592 573.674 350.24 575.914 350.24ZM573.474 346.432V342.04C573.474 340.688 574.562 339.6 575.914 339.6C577.266 339.6 578.354 340.688 578.354 342.04V346.432C578.354 347.784 577.266 348.872 575.914 348.872C574.562 348.872 573.474 347.784 573.474 346.432ZM586.01 350.24C588.426 350.24 589.882 348.264 589.882 345.672C589.882 343.08 588.418 341.12 586.018 341.12C584.938 341.12 584.082 341.496 583.466 342.144V338.48H582.034V350H583.306V349.024C583.938 349.784 584.842 350.24 586.01 350.24ZM583.306 345.672C583.306 343.76 584.106 342.424 585.794 342.424C587.554 342.424 588.37 343.848 588.37 345.672C588.37 347.512 587.538 348.936 585.834 348.936C584.09 348.936 583.306 347.568 583.306 345.672ZM595.604 350.24C598.02 350.24 599.476 348.264 599.476 345.672C599.476 343.08 598.012 341.12 595.612 341.12C594.436 341.12 593.532 341.568 592.9 342.328V341.36H591.628V353.84H593.06V349.2C593.676 349.856 594.532 350.24 595.604 350.24ZM592.9 345.672C592.9 343.76 593.7 342.424 595.388 342.424C597.148 342.424 597.964 343.848 597.964 345.672C597.964 347.512 597.132 348.936 595.428 348.936C593.684 348.936 592.9 347.568 592.9 345.672Z" fill="#110529"/>
    <path d="M816 344H604.5" stroke="#110529" stroke-width="2"/>
    <path d="M824.62 350H826.044V345.744H829.412L831.476 350H833.108L830.884 345.432C832.188 344.888 832.868 343.632 832.868 342.112C832.868 340.28 831.884 338.832 830.02 338.544C829.724 338.496 829.396 338.48 829.172 338.48H824.62V350ZM826.044 344.392V339.832H829.124C829.324 339.832 829.604 339.848 829.844 339.904C830.948 340.152 831.412 341.152 831.412 342.112C831.412 343.072 830.948 344.072 829.844 344.32C829.604 344.376 829.324 344.392 829.124 344.392H826.044ZM836.878 350H838.326V338.48H836.878L834.71 339.776V341.368L836.878 340.056V350Z" fill="#110529"/>
    <rect x="816" y="332" width="32" height="24" rx="1" stroke="#110529" stroke-width="2"/>
    <path d="M103.12 214H104.544V209.744H107.912L109.976 214H111.608L109.384 209.432C110.688 208.888 111.368 207.632 111.368 206.112C111.368 204.28 110.384 202.832 108.52 202.544C108.224 202.496 107.896 202.48 107.672 202.48H103.12V214ZM104.544 208.392V203.832H107.624C107.824 203.832 108.104 203.848 108.344 203.904C109.448 204.152 109.912 205.152 109.912 206.112C109.912 207.072 109.448 208.072 108.344 208.32C108.104 208.376 107.824 208.392 107.624 208.392H104.544ZM113.05 213.992H120.706V212.632H115.242L118.954 209.296C120.138 208.248 120.706 207.488 120.706 205.976C120.706 203.856 119.09 202.24 116.954 202.24C114.738 202.24 113.106 203.784 113.106 205.952H114.562C114.546 204.696 115.554 203.6 116.93 203.6C118.258 203.6 119.25 204.632 119.25 205.96C119.25 206.688 119.018 207.352 118.17 208.112L113.058 212.712L113.05 213.992Z" fill="#110529"/>
    <rect x="96" y="196" width="32" height="24" rx="1" stroke="#110529" stroke-width="2"/>
    <path d="M306.5 208H128" stroke="#110529" stroke-width="2"/>
    <rect width="57" height="20" transform="translate(306.5 198)" fill="white"/>
    <path d="M315.171 214.224C317.307 214.224 318.931 212.664 318.931 210.456C318.931 208.44 317.651 206.944 315.667 206.832L318.779 203.848V202.48H311.987V203.84H317.011L313.267 207.224L313.955 208.352C314.315 208.168 314.755 208.048 315.147 208.048C316.531 208.048 317.467 209.032 317.467 210.456C317.467 211.864 316.563 212.84 315.163 212.864C314.139 212.88 313.243 212.312 312.899 211.24L311.531 211.632C312.019 213.232 313.459 214.224 315.171 214.224ZM324.899 214.24C327.139 214.24 328.787 212.592 328.787 210.352V206.128C328.787 203.888 327.139 202.24 324.899 202.24C322.659 202.24 321.011 203.888 321.011 206.128V210.352C321.011 212.592 322.659 214.24 324.899 214.24ZM322.459 210.432V206.04C322.459 204.688 323.547 203.6 324.899 203.6C326.251 203.6 327.339 204.688 327.339 206.04V210.432C327.339 211.784 326.251 212.872 324.899 212.872C323.547 212.872 322.459 211.784 322.459 210.432ZM334.914 214.24C337.154 214.24 338.802 212.592 338.802 210.352V206.128C338.802 203.888 337.154 202.24 334.914 202.24C332.674 202.24 331.026 203.888 331.026 206.128V210.352C331.026 212.592 332.674 214.24 334.914 214.24ZM332.474 210.432V206.04C332.474 204.688 333.562 203.6 334.914 203.6C336.266 203.6 337.354 204.688 337.354 206.04V210.432C337.354 211.784 336.266 212.872 334.914 212.872C333.562 212.872 332.474 211.784 332.474 210.432ZM345.01 214.24C347.426 214.24 348.882 212.264 348.882 209.672C348.882 207.08 347.418 205.12 345.018 205.12C343.938 205.12 343.082 205.496 342.466 206.144V202.48H341.034V214H342.306V213.024C342.938 213.784 343.842 214.24 345.01 214.24ZM342.306 209.672C342.306 207.76 343.106 206.424 344.794 206.424C346.554 206.424 347.37 207.848 347.37 209.672C347.37 211.512 346.538 212.936 344.834 212.936C343.09 212.936 342.306 211.568 342.306 209.672ZM354.604 214.24C357.02 214.24 358.476 212.264 358.476 209.672C358.476 207.08 357.012 205.12 354.612 205.12C353.436 205.12 352.532 205.568 351.9 206.328V205.36H350.628V217.84H352.06V213.2C352.676 213.856 353.532 214.24 354.604 214.24ZM351.9 209.672C351.9 207.76 352.7 206.424 354.388 206.424C356.148 206.424 356.964 207.848 356.964 209.672C356.964 211.512 356.132 212.936 354.428 212.936C352.684 212.936 351.9 211.568 351.9 209.672Z" fill="#110529"/>
    <path d="M542 208H363.5" stroke="#110529" stroke-width="2"/>
    <path d="M552 208L552.707 207.293L553.414 208L552.707 208.707L552 208ZM544.707 216.707L544 217.414L542.586 216L543.293 215.293L544.707 216.707ZM543.293 200.707L542.586 200L544 198.586L544.707 199.293L543.293 200.707ZM542 207L552 207L552 209L542 209L542 207ZM552.707 208.707L544.707 216.707L543.293 215.293L551.293 207.293L552.707 208.707ZM551.293 208.707L543.293 200.707L544.707 199.293L552.707 207.293L551.293 208.707Z" fill="#110529"/>
    <path d="M103.12 374H104.544V369.744H107.912L109.976 374H111.608L109.384 369.432C110.688 368.888 111.368 367.632 111.368 366.112C111.368 364.28 110.384 362.832 108.52 362.544C108.224 362.496 107.896 362.48 107.672 362.48H103.12V374ZM104.544 368.392V363.832H107.624C107.824 363.832 108.104 363.848 108.344 363.904C109.448 364.152 109.912 365.152 109.912 366.112C109.912 367.072 109.448 368.072 108.344 368.32C108.104 368.376 107.824 368.392 107.624 368.392H104.544ZM113.05 373.992H120.706V372.632H115.242L118.954 369.296C120.138 368.248 120.706 367.488 120.706 365.976C120.706 363.856 119.09 362.24 116.954 362.24C114.738 362.24 113.106 363.784 113.106 365.952H114.562C114.546 364.696 115.554 363.6 116.93 363.6C118.258 363.6 119.25 364.632 119.25 365.96C119.25 366.688 119.018 367.352 118.17 368.112L113.058 372.712L113.05 373.992Z" fill="#110529"/>
    <rect x="96" y="356" width="32" height="24" rx="1" stroke="#110529" stroke-width="2"/>
    <path d="M306.5 368H128" stroke="#110529" stroke-width="2"/>
    <rect width="57" height="20" transform="translate(306.5 358)" fill="white"/>
    <path d="M315.171 374.224C317.307 374.224 318.931 372.664 318.931 370.456C318.931 368.44 317.651 366.944 315.667 366.832L318.779 363.848V362.48H311.987V363.84H317.011L313.267 367.224L313.955 368.352C314.315 368.168 314.755 368.048 315.147 368.048C316.531 368.048 317.467 369.032 317.467 370.456C317.467 371.864 316.563 372.84 315.163 372.864C314.139 372.88 313.243 372.312 312.899 371.24L311.531 371.632C312.019 373.232 313.459 374.224 315.171 374.224ZM324.899 374.24C327.139 374.24 328.787 372.592 328.787 370.352V366.128C328.787 363.888 327.139 362.24 324.899 362.24C322.659 362.24 321.011 363.888 321.011 366.128V370.352C321.011 372.592 322.659 374.24 324.899 374.24ZM322.459 370.432V366.04C322.459 364.688 323.547 363.6 324.899 363.6C326.251 363.6 327.339 364.688 327.339 366.04V370.432C327.339 371.784 326.251 372.872 324.899 372.872C323.547 372.872 322.459 371.784 322.459 370.432ZM334.914 374.24C337.154 374.24 338.802 372.592 338.802 370.352V366.128C338.802 363.888 337.154 362.24 334.914 362.24C332.674 362.24 331.026 363.888 331.026 366.128V370.352C331.026 372.592 332.674 374.24 334.914 374.24ZM332.474 370.432V366.04C332.474 364.688 333.562 363.6 334.914 363.6C336.266 363.6 337.354 364.688 337.354 366.04V370.432C337.354 371.784 336.266 372.872 334.914 372.872C333.562 372.872 332.474 371.784 332.474 370.432ZM345.01 374.24C347.426 374.24 348.882 372.264 348.882 369.672C348.882 367.08 347.418 365.12 345.018 365.12C343.938 365.12 343.082 365.496 342.466 366.144V362.48H341.034V374H342.306V373.024C342.938 373.784 343.842 374.24 345.01 374.24ZM342.306 369.672C342.306 367.76 343.106 366.424 344.794 366.424C346.554 366.424 347.37 367.848 347.37 369.672C347.37 371.512 346.538 372.936 344.834 372.936C343.09 372.936 342.306 371.568 342.306 369.672ZM354.604 374.24C357.02 374.24 358.476 372.264 358.476 369.672C358.476 367.08 357.012 365.12 354.612 365.12C353.436 365.12 352.532 365.568 351.9 366.328V365.36H350.628V377.84H352.06V373.2C352.676 373.856 353.532 374.24 354.604 374.24ZM351.9 369.672C351.9 367.76 352.7 366.424 354.388 366.424C356.148 366.424 356.964 367.848 356.964 369.672C356.964 371.512 356.132 372.936 354.428 372.936C352.684 372.936 351.9 371.568 351.9 369.672Z" fill="#110529"/>
    <path d="M542 368H363.5" stroke="#110529" stroke-width="2"/>
    <path d="M552 368L552.707 367.293L553.414 368L552.707 368.707L552 368ZM544.707 376.707L544 377.414L542.586 376L543.293 375.293L544.707 376.707ZM543.293 360.707L542.586 360L544 358.586L544.707 359.293L543.293 360.707ZM542 367L552 367L552 369L542 369L542 367ZM552.707 368.707L544.707 376.707L543.293 375.293L551.293 367.293L552.707 368.707ZM551.293 368.707L543.293 360.707L544.707 359.293L552.707 367.293L551.293 368.707Z" fill="#110529"/>
    <defs>
        <filter id="filter0_i_5931_37564" x="95" y="107" width="66" height="54" filterUnits="userSpaceOnUse" color-interpolation-filters="sRGB">
            <feFlood flood-opacity="0" result="BackgroundImageFix"/>
            <feBlend mode="normal" in="SourceGraphic" in2="BackgroundImageFix" result="shape"/>
            <feColorMatrix in="SourceAlpha" type="matrix" values="0 0 0 0 0 0 0 0 0 0 0 0 0 0 0 0 0 0 127 0" result="hardAlpha"/>
            <feOffset dx="-8" dy="-4"/>
            <feComposite in2="hardAlpha" operator="arithmetic" k2="-1" k3="1"/>
            <feColorMatrix type="matrix" values="0 0 0 0 0.0666667 0 0 0 0 0.0196078 0 0 0 0 0.160784 0 0 0 0.16 0"/>
            <feBlend mode="normal" in2="shape" result="effect1_innerShadow_5931_37564"/>
        </filter>
        <filter id="filter1_i_5931_37564" x="159" y="107" width="26" height="54" filterUnits="userSpaceOnUse" color-interpolation-filters="sRGB">
            <feFlood flood-opacity="0" result="BackgroundImageFix"/>
            <feBlend mode="normal" in="SourceGraphic" in2="BackgroundImageFix" result="shape"/>
            <feColorMatrix in="SourceAlpha" type="matrix" values="0 0 0 0 0 0 0 0 0 0 0 0 0 0 0 0 0 0 127 0" result="hardAlpha"/>
            <feOffset dx="-8" dy="-4"/>
            <feComposite in2="hardAlpha" operator="arithmetic" k2="-1" k3="1"/>
            <feColorMatrix type="matrix" values="0 0 0 0 0.0666667 0 0 0 0 0.0196078 0 0 0 0 0.160784 0 0 0 0.16 0"/>
            <feBlend mode="normal" in2="shape" result="effect1_innerShadow_5931_37564"/>
        </filter>
        <filter id="filter2_i_5931_37564" x="183" y="107" width="30" height="54" filterUnits="userSpaceOnUse" color-interpolation-filters="sRGB">
            <feFlood flood-opacity="0" result="BackgroundImageFix"/>
            <feBlend mode="normal" in="SourceGraphic" in2="BackgroundImageFix" result="shape"/>
            <feColorMatrix in="SourceAlpha" type="matrix" values="0 0 0 0 0 0 0 0 0 0 0 0 0 0 0 0 0 0 127 0" result="hardAlpha"/>
            <feOffset dx="-8" dy="-4"/>
            <feComposite in2="hardAlpha" operator="arithmetic" k2="-1" k3="1"/>
            <feColorMatrix type="matrix" values="0 0 0 0 0.0666667 0 0 0 0 0.0196078 0 0 0 0 0.160784 0 0 0 0.16 0"/>
            <feBlend mode="normal" in2="shape" result="effect1_innerShadow_5931_37564"/>
        </filter>
        <filter id="filter3_i_5931_37564" x="211" y="107" width="338" height="54" filterUnits="userSpaceOnUse" color-interpolation-filters="sRGB">
            <feFlood flood-opacity="0" result="BackgroundImageFix"/>
            <feBlend mode="normal" in="SourceGraphic" in2="BackgroundImageFix" result="shape"/>
            <feColorMatrix in="SourceAlpha" type="matrix" values="0 0 0 0 0 0 0 0 0 0 0 0 0 0 0 0 0 0 127 0" result="hardAlpha"/>
            <feOffset dx="-8" dy="-4"/>
            <feComposite in2="hardAlpha" operator="arithmetic" k2="-1" k3="1"/>
            <feColorMatrix type="matrix" values="0 0 0 0 0.0666667 0 0 0 0 0.0196078 0 0 0 0 0.160784 0 0 0 0.16 0"/>
            <feBlend mode="normal" in2="shape" result="effect1_innerShadow_5931_37564"/>
        </filter>
        <filter id="filter4_i_5931_37564" x="547" y="107" width="32" height="54" filterUnits="userSpaceOnUse" color-interpolation-filters="sRGB">
            <feFlood flood-opacity="0" result="BackgroundImageFix"/>
            <feBlend mode="normal" in="SourceGraphic" in2="BackgroundImageFix" result="shape"/>
            <feColorMatrix in="SourceAlpha" type="matrix" values="0 0 0 0 0 0 0 0 0 0 0 0 0 0 0 0 0 0 127 0" result="hardAlpha"/>
            <feOffset dx="-8" dy="-4"/>
            <feComposite in2="hardAlpha" operator="arithmetic" k2="-1" k3="1"/>
            <feColorMatrix type="matrix" values="0 0 0 0 0.0666667 0 0 0 0 0.0196078 0 0 0 0 0.160784 0 0 0 0.16 0"/>
            <feBlend mode="normal" in2="shape" result="effect1_innerShadow_5931_37564"/>
        </filter>
        <filter id="filter5_i_5931_37564" x="613" y="107" width="32" height="54" filterUnits="userSpaceOnUse" color-interpolation-filters="sRGB">
            <feFlood flood-opacity="0" result="BackgroundImageFix"/>
            <feBlend mode="normal" in="SourceGraphic" in2="BackgroundImageFix" result="shape"/>
            <feColorMatrix in="SourceAlpha" type="matrix" values="0 0 0 0 0 0 0 0 0 0 0 0 0 0 0 0 0 0 127 0" result="hardAlpha"/>
            <feOffset dx="-8" dy="-4"/>
            <feComposite in2="hardAlpha" operator="arithmetic" k2="-1" k3="1"/>
            <feColorMatrix type="matrix" values="0 0 0 0 0.0666667 0 0 0 0 0.0196078 0 0 0 0 0.160784 0 0 0 0.16 0"/>
            <feBlend mode="normal" in2="shape" result="effect1_innerShadow_5931_37564"/>
        </filter>
        <filter id="filter6_i_5931_37564" x="577" y="107" width="38" height="54" filterUnits="userSpaceOnUse" color-interpolation-filters="sRGB">
            <feFlood flood-opacity="0" result="BackgroundImageFix"/>
            <feBlend mode="normal" in="SourceGraphic" in2="BackgroundImageFix" result="shape"/>
            <feColorMatrix in="SourceAlpha" type="matrix" values="0 0 0 0 0 0 0 0 0 0 0 0 0 0 0 0 0 0 127 0" result="hardAlpha"/>
            <feOffset dx="-8" dy="-4"/>
            <feComposite in2="hardAlpha" operator="arithmetic" k2="-1" k3="1"/>
            <feColorMatrix type="matrix" values="0 0 0 0 0.0666667 0 0 0 0 0.0196078 0 0 0 0 0.160784 0 0 0 0.16 0"/>
            <feBlend mode="normal" in2="shape" result="effect1_innerShadow_5931_37564"/>
        </filter>
        <filter id="filter7_i_5931_37564" x="643" y="107" width="98" height="54" filterUnits="userSpaceOnUse" color-interpolation-filters="sRGB">
            <feFlood flood-opacity="0" result="BackgroundImageFix"/>
            <feBlend mode="normal" in="SourceGraphic" in2="BackgroundImageFix" result="shape"/>
            <feColorMatrix in="SourceAlpha" type="matrix" values="0 0 0 0 0 0 0 0 0 0 0 0 0 0 0 0 0 0 127 0" result="hardAlpha"/>
            <feOffset dx="-8" dy="-4"/>
            <feComposite in2="hardAlpha" operator="arithmetic" k2="-1" k3="1"/>
            <feColorMatrix type="matrix" values="0 0 0 0 0.0666667 0 0 0 0 0.0196078 0 0 0 0 0.160784 0 0 0 0.16 0"/>
            <feBlend mode="normal" in2="shape" result="effect1_innerShadow_5931_37564"/>
        </filter>
        <filter id="filter8_i_5931_37564" x="739" y="107" width="146" height="54" filterUnits="userSpaceOnUse" color-interpolation-filters="sRGB">
            <feFlood flood-opacity="0" result="BackgroundImageFix"/>
            <feBlend mode="normal" in="SourceGraphic" in2="BackgroundImageFix" result="shape"/>
            <feColorMatrix in="SourceAlpha" type="matrix" values="0 0 0 0 0 0 0 0 0 0 0 0 0 0 0 0 0 0 127 0" result="hardAlpha"/>
            <feOffset dx="-8" dy="-4"/>
            <feComposite in2="hardAlpha" operator="arithmetic" k2="-1" k3="1"/>
            <feColorMatrix type="matrix" values="0 0 0 0 0.0666667 0 0 0 0 0.0196078 0 0 0 0 0.160784 0 0 0 0.16 0"/>
            <feBlend mode="normal" in2="shape" result="effect1_innerShadow_5931_37564"/>
        </filter>
        <filter id="filter9_i_5931_37564" x="883" y="107" width="32" height="54" filterUnits="userSpaceOnUse" color-interpolation-filters="sRGB">
            <feFlood flood-opacity="0" result="BackgroundImageFix"/>
            <feBlend mode="normal" in="SourceGraphic" in2="BackgroundImageFix" result="shape"/>
            <feColorMatrix in="SourceAlpha" type="matrix" values="0 0 0 0 0 0 0 0 0 0 0 0 0 0 0 0 0 0 127 0" result="hardAlpha"/>
            <feOffset dx="-8" dy="-4"/>
            <feComposite in2="hardAlpha" operator="arithmetic" k2="-1" k3="1"/>
            <feColorMatrix type="matrix" values="0 0 0 0 0.0666667 0 0 0 0 0.0196078 0 0 0 0 0.160784 0 0 0 0.16 0"/>
            <feBlend mode="normal" in2="shape" result="effect1_innerShadow_5931_37564"/>
        </filter>
        <filter id="filter10_i_5931_37564" x="95" y="267" width="66" height="54" filterUnits="userSpaceOnUse" color-interpolation-filters="sRGB">
            <feFlood flood-opacity="0" result="BackgroundImageFix"/>
            <feBlend mode="normal" in="SourceGraphic" in2="BackgroundImageFix" result="shape"/>
            <feColorMatrix in="SourceAlpha" type="matrix" values="0 0 0 0 0 0 0 0 0 0 0 0 0 0 0 0 0 0 127 0" result="hardAlpha"/>
            <feOffset dx="-8" dy="-4"/>
            <feComposite in2="hardAlpha" operator="arithmetic" k2="-1" k3="1"/>
            <feColorMatrix type="matrix" values="0 0 0 0 0.0666667 0 0 0 0 0.0196078 0 0 0 0 0.160784 0 0 0 0.16 0"/>
            <feBlend mode="normal" in2="shape" result="effect1_innerShadow_5931_37564"/>
        </filter>
        <filter id="filter11_i_5931_37564" x="159" y="267" width="26" height="54" filterUnits="userSpaceOnUse" color-interpolation-filters="sRGB">
            <feFlood flood-opacity="0" result="BackgroundImageFix"/>
            <feBlend mode="normal" in="SourceGraphic" in2="BackgroundImageFix" result="shape"/>
            <feColorMatrix in="SourceAlpha" type="matrix" values="0 0 0 0 0 0 0 0 0 0 0 0 0 0 0 0 0 0 127 0" result="hardAlpha"/>
            <feOffset dx="-8" dy="-4"/>
            <feComposite in2="hardAlpha" operator="arithmetic" k2="-1" k3="1"/>
            <feColorMatrix type="matrix" values="0 0 0 0 0.0666667 0 0 0 0 0.0196078 0 0 0 0 0.160784 0 0 0 0.16 0"/>
            <feBlend mode="normal" in2="shape" result="effect1_innerShadow_5931_37564"/>
        </filter>
        <filter id="filter12_i_5931_37564" x="183" y="267" width="30" height="54" filterUnits="userSpaceOnUse" color-interpolation-filters="sRGB">
            <feFlood flood-opacity="0" result="BackgroundImageFix"/>
            <feBlend mode="normal" in="SourceGraphic" in2="BackgroundImageFix" result="shape"/>
            <feColorMatrix in="SourceAlpha" type="matrix" values="0 0 0 0 0 0 0 0 0 0 0 0 0 0 0 0 0 0 127 0" result="hardAlpha"/>
            <feOffset dx="-8" dy="-4"/>
            <feComposite in2="hardAlpha" operator="arithmetic" k2="-1" k3="1"/>
            <feColorMatrix type="matrix" values="0 0 0 0 0.0666667 0 0 0 0 0.0196078 0 0 0 0 0.160784 0 0 0 0.16 0"/>
            <feBlend mode="normal" in2="shape" result="effect1_innerShadow_5931_37564"/>
        </filter>
        <filter id="filter13_i_5931_37564" x="211" y="267" width="338" height="54" filterUnits="userSpaceOnUse" color-interpolation-filters="sRGB">
            <feFlood flood-opacity="0" result="BackgroundImageFix"/>
            <feBlend mode="normal" in="SourceGraphic" in2="BackgroundImageFix" result="shape"/>
            <feColorMatrix in="SourceAlpha" type="matrix" values="0 0 0 0 0 0 0 0 0 0 0 0 0 0 0 0 0 0 127 0" result="hardAlpha"/>
            <feOffset dx="-8" dy="-4"/>
            <feComposite in2="hardAlpha" operator="arithmetic" k2="-1" k3="1"/>
            <feColorMatrix type="matrix" values="0 0 0 0 0.0666667 0 0 0 0 0.0196078 0 0 0 0 0.160784 0 0 0 0.16 0"/>
            <feBlend mode="normal" in2="shape" result="effect1_innerShadow_5931_37564"/>
        </filter>
        <filter id="filter14_i_5931_37564" x="547" y="267" width="32" height="54" filterUnits="userSpaceOnUse" color-interpolation-filters="sRGB">
            <feFlood flood-opacity="0" result="BackgroundImageFix"/>
            <feBlend mode="normal" in="SourceGraphic" in2="BackgroundImageFix" result="shape"/>
            <feColorMatrix in="SourceAlpha" type="matrix" values="0 0 0 0 0 0 0 0 0 0 0 0 0 0 0 0 0 0 127 0" result="hardAlpha"/>
            <feOffset dx="-8" dy="-4"/>
            <feComposite in2="hardAlpha" operator="arithmetic" k2="-1" k3="1"/>
            <feColorMatrix type="matrix" values="0 0 0 0 0.0666667 0 0 0 0 0.0196078 0 0 0 0 0.160784 0 0 0 0.16 0"/>
            <feBlend mode="normal" in2="shape" result="effect1_innerShadow_5931_37564"/>
        </filter>
        <filter id="filter15_i_5931_37564" x="577" y="267" width="98" height="54" filterUnits="userSpaceOnUse" color-interpolation-filters="sRGB">
            <feFlood flood-opacity="0" result="BackgroundImageFix"/>
            <feBlend mode="normal" in="SourceGraphic" in2="BackgroundImageFix" result="shape"/>
            <feColorMatrix in="SourceAlpha" type="matrix" values="0 0 0 0 0 0 0 0 0 0 0 0 0 0 0 0 0 0 127 0" result="hardAlpha"/>
            <feOffset dx="-8" dy="-4"/>
            <feComposite in2="hardAlpha" operator="arithmetic" k2="-1" k3="1"/>
            <feColorMatrix type="matrix" values="0 0 0 0 0.0666667 0 0 0 0 0.0196078 0 0 0 0 0.160784 0 0 0 0.16 0"/>
            <feBlend mode="normal" in2="shape" result="effect1_innerShadow_5931_37564"/>
        </filter>
        <filter id="filter16_i_5931_37564" x="673" y="267" width="146" height="54" filterUnits="userSpaceOnUse" color-interpolation-filters="sRGB">
            <feFlood flood-opacity="0" result="BackgroundImageFix"/>
            <feBlend mode="normal" in="SourceGraphic" in2="BackgroundImageFix" result="shape"/>
            <feColorMatrix in="SourceAlpha" type="matrix" values="0 0 0 0 0 0 0 0 0 0 0 0 0 0 0 0 0 0 127 0" result="hardAlpha"/>
            <feOffset dx="-8" dy="-4"/>
            <feComposite in2="hardAlpha" operator="arithmetic" k2="-1" k3="1"/>
            <feColorMatrix type="matrix" values="0 0 0 0 0.0666667 0 0 0 0 0.0196078 0 0 0 0 0.160784 0 0 0 0.16 0"/>
            <feBlend mode="normal" in2="shape" result="effect1_innerShadow_5931_37564"/>
        </filter>
        <filter id="filter17_i_5931_37564" x="817" y="267" width="32" height="54" filterUnits="userSpaceOnUse" color-interpolation-filters="sRGB">
            <feFlood flood-opacity="0" result="BackgroundImageFix"/>
            <feBlend mode="normal" in="SourceGraphic" in2="BackgroundImageFix" result="shape"/>
            <feColorMatrix in="SourceAlpha" type="matrix" values="0 0 0 0 0 0 0 0 0 0 0 0 0 0 0 0 0 0 127 0" result="hardAlpha"/>
            <feOffset dx="-8" dy="-4"/>
            <feComposite in2="hardAlpha" operator="arithmetic" k2="-1" k3="1"/>
            <feColorMatrix type="matrix" values="0 0 0 0 0.0666667 0 0 0 0 0.0196078 0 0 0 0 0.160784 0 0 0 0.16 0"/>
            <feBlend mode="normal" in2="shape" result="effect1_innerShadow_5931_37564"/>
        </filter>
    </defs>
</svg>
