<svg width="960" height="516" viewBox="0 0 960 516" fill="none" xmlns="http://www.w3.org/2000/svg">
    <rect width="960" height="516" fill="#1D1D29"/>
    <path d="M101.969 37.21C101.451 37.21 100.968 37.105 100.52 36.895C100.077 36.6803 99.6963 36.3863 99.379 36.013C99.0617 35.635 98.8353 35.201 98.7 34.711L100.107 34.333C100.186 34.6317 100.322 34.8907 100.513 35.11C100.709 35.3293 100.938 35.4997 101.199 35.621C101.46 35.7377 101.731 35.796 102.011 35.796C102.38 35.796 102.713 35.7073 103.012 35.53C103.315 35.3527 103.553 35.1147 103.726 34.816C103.903 34.5173 103.992 34.1883 103.992 33.829C103.992 33.4603 103.901 33.1267 103.719 32.828C103.542 32.5293 103.301 32.2937 102.998 32.121C102.699 31.9437 102.37 31.855 102.011 31.855C101.6 31.855 101.253 31.9367 100.968 32.1C100.683 32.2633 100.462 32.4523 100.303 32.667L99.029 32.219L99.337 26.92H104.776V28.299H100.086L100.681 27.746L100.436 31.715L100.149 31.344C100.415 31.078 100.732 30.875 101.101 30.735C101.47 30.595 101.836 30.525 102.2 30.525C102.825 30.525 103.383 30.6697 103.873 30.959C104.368 31.2483 104.757 31.6427 105.042 32.142C105.327 32.6367 105.469 33.199 105.469 33.829C105.469 34.4543 105.308 35.0237 104.986 35.537C104.664 36.0457 104.237 36.4517 103.705 36.755C103.173 37.0583 102.594 37.21 101.969 37.21ZM107.282 30.28L107.373 29.629C107.574 29.643 107.73 29.6057 107.842 29.517C107.954 29.4283 108.029 29.3047 108.066 29.146C108.103 28.9873 108.11 28.8077 108.087 28.607H107.282V26.92H108.829V28.747C108.829 29.2977 108.696 29.713 108.43 29.993C108.169 30.273 107.786 30.3687 107.282 30.28ZM114.852 37.21C114.063 37.21 113.365 37.049 112.759 36.727C112.157 36.4003 111.685 35.9453 111.345 35.362C111.004 34.774 110.834 34.0833 110.834 33.29V26.927L112.318 26.92V33.213C112.318 33.6423 112.39 34.0203 112.535 34.347C112.679 34.6737 112.873 34.9467 113.116 35.166C113.358 35.3853 113.629 35.551 113.928 35.663C114.231 35.775 114.539 35.831 114.852 35.831C115.169 35.831 115.477 35.775 115.776 35.663C116.079 35.5463 116.352 35.3783 116.595 35.159C116.837 34.9397 117.029 34.6667 117.169 34.34C117.313 34.0133 117.386 33.6377 117.386 33.213V26.92H118.87V33.29C118.87 34.0787 118.699 34.767 118.359 35.355C118.018 35.943 117.544 36.4003 116.938 36.727C116.336 37.049 115.64 37.21 114.852 37.21ZM123.341 37V28.299H119.988V26.92H128.157V28.299H124.804V37H123.341ZM129.277 37V26.92H133.351C133.449 26.92 133.57 26.9247 133.715 26.934C133.86 26.9387 133.997 26.9527 134.128 26.976C134.688 27.0647 135.155 27.256 135.528 27.55C135.906 27.844 136.188 28.215 136.375 28.663C136.562 29.111 136.655 29.6057 136.655 30.147C136.655 30.9497 136.45 31.6427 136.039 32.226C135.628 32.8047 135.012 33.1663 134.191 33.311L133.596 33.381H130.74V37H129.277ZM135.171 37L133.183 32.898L134.66 32.52L136.844 37H135.171ZM130.74 31.995H133.295C133.388 31.995 133.491 31.9903 133.603 31.981C133.72 31.9717 133.829 31.9553 133.932 31.932C134.231 31.862 134.471 31.7337 134.653 31.547C134.835 31.3557 134.966 31.1363 135.045 30.889C135.124 30.6417 135.164 30.3943 135.164 30.147C135.164 29.8997 135.124 29.6547 135.045 29.412C134.966 29.1647 134.835 28.9477 134.653 28.761C134.471 28.5697 134.231 28.439 133.932 28.369C133.829 28.341 133.72 28.3223 133.603 28.313C133.491 28.3037 133.388 28.299 133.295 28.299H130.74V31.995Z" fill="white" fill-opacity="0.3"/>
    <path d="M144 112V24" stroke="white" stroke-opacity="0.3" stroke-width="2" stroke-linecap="square" stroke-dasharray="6 6"/>
    <path d="M151.442 37V26.92H152.905V35.621H157.469V37H151.442Z" fill="white" fill-opacity="0.3"/>
    <path d="M164 112V24" stroke="white" stroke-opacity="0.3" stroke-width="2" stroke-linecap="square" stroke-dasharray="6 6"/>
    <path d="M173.858 37V26.92H179.829V28.383H175.321V31.225H178.989V32.695H175.321V37H173.858ZM181.09 37V26.92H185.164C185.262 26.92 185.384 26.9247 185.528 26.934C185.673 26.9387 185.811 26.9527 185.941 26.976C186.501 27.0647 186.968 27.256 187.341 27.55C187.719 27.844 188.002 28.215 188.188 28.663C188.375 29.111 188.468 29.6057 188.468 30.147C188.468 30.9497 188.263 31.6427 187.852 32.226C187.442 32.8047 186.826 33.1663 186.004 33.311L185.409 33.381H182.553V37H181.09ZM186.984 37L184.996 32.898L186.473 32.52L188.657 37H186.984ZM182.553 31.995H185.108C185.202 31.995 185.304 31.9903 185.416 31.981C185.533 31.9717 185.643 31.9553 185.745 31.932C186.044 31.862 186.284 31.7337 186.466 31.547C186.648 31.3557 186.779 31.1363 186.858 30.889C186.938 30.6417 186.977 30.3943 186.977 30.147C186.977 29.8997 186.938 29.6547 186.858 29.412C186.779 29.1647 186.648 28.9477 186.466 28.761C186.284 28.5697 186.044 28.439 185.745 28.369C185.643 28.341 185.533 28.3223 185.416 28.313C185.304 28.3037 185.202 28.299 185.108 28.299H182.553V31.995ZM191.953 37V28.53L190.056 29.685V28.054L191.953 26.92H193.444V37H191.953Z" fill="white" fill-opacity="0.3"/>
    <path d="M204 112V24" stroke="white" stroke-opacity="0.3" stroke-width="2" stroke-linecap="square" stroke-dasharray="6 6"/>
    <path d="M213.735 37.21C212.727 37.21 211.868 36.9907 211.159 36.552C210.45 36.1087 209.906 35.4927 209.528 34.704C209.155 33.9153 208.968 33.0007 208.968 31.96C208.968 30.9193 209.155 30.0047 209.528 29.216C209.906 28.4273 210.45 27.8137 211.159 27.375C211.868 26.9317 212.727 26.71 213.735 26.71C214.897 26.71 215.858 27.004 216.619 27.592C217.384 28.18 217.916 28.971 218.215 29.965L216.731 30.364C216.535 29.6593 216.185 29.1063 215.681 28.705C215.182 28.3037 214.533 28.103 213.735 28.103C213.021 28.103 212.426 28.264 211.95 28.586C211.474 28.908 211.115 29.3583 210.872 29.937C210.634 30.5157 210.515 31.19 210.515 31.96C210.51 32.73 210.627 33.4043 210.865 33.983C211.108 34.5617 211.467 35.012 211.943 35.334C212.424 35.656 213.021 35.817 213.735 35.817C214.533 35.817 215.182 35.6163 215.681 35.215C216.185 34.809 216.535 34.256 216.731 33.556L218.215 33.955C217.916 34.949 217.384 35.74 216.619 36.328C215.858 36.916 214.897 37.21 213.735 37.21ZM219.754 37V26.92H222.911C223.005 26.92 223.177 26.9223 223.429 26.927C223.686 26.9317 223.931 26.9503 224.164 26.983C224.953 27.081 225.616 27.3633 226.152 27.83C226.694 28.2967 227.102 28.8893 227.377 29.608C227.653 30.322 227.79 31.106 227.79 31.96C227.79 32.8187 227.653 33.6073 227.377 34.326C227.102 35.04 226.694 35.6303 226.152 36.097C225.616 36.559 224.953 36.839 224.164 36.937C223.931 36.9697 223.686 36.9883 223.429 36.993C223.177 36.9977 223.005 37 222.911 37H219.754ZM221.252 35.607H222.911C223.07 35.607 223.259 35.6023 223.478 35.593C223.698 35.5837 223.891 35.565 224.059 35.537C224.573 35.439 224.988 35.2173 225.305 34.872C225.627 34.522 225.863 34.0927 226.012 33.584C226.162 33.0753 226.236 32.534 226.236 31.96C226.236 31.3673 226.159 30.819 226.005 30.315C225.851 29.8063 225.613 29.3817 225.291 29.041C224.974 28.6957 224.563 28.4763 224.059 28.383C223.891 28.3503 223.695 28.3317 223.471 28.327C223.252 28.3177 223.065 28.313 222.911 28.313H221.252V35.607ZM229.42 37V26.92H233.494C233.592 26.92 233.714 26.9247 233.858 26.934C234.003 26.9387 234.141 26.9527 234.271 26.976C234.831 27.0647 235.298 27.256 235.671 27.55C236.049 27.844 236.332 28.215 236.518 28.663C236.705 29.111 236.798 29.6057 236.798 30.147C236.798 30.9497 236.593 31.6427 236.182 32.226C235.772 32.8047 235.156 33.1663 234.334 33.311L233.739 33.381H230.883V37H229.42ZM235.314 37L233.326 32.898L234.803 32.52L236.987 37H235.314ZM230.883 31.995H233.438C233.532 31.995 233.634 31.9903 233.746 31.981C233.863 31.9717 233.973 31.9553 234.075 31.932C234.374 31.862 234.614 31.7337 234.796 31.547C234.978 31.3557 235.109 31.1363 235.188 30.889C235.268 30.6417 235.307 30.3943 235.307 30.147C235.307 29.8997 235.268 29.6547 235.188 29.412C235.109 29.1647 234.978 28.9477 234.796 28.761C234.614 28.5697 234.374 28.439 234.075 28.369C233.973 28.341 233.863 28.3223 233.746 28.313C233.634 28.3037 233.532 28.299 233.438 28.299H230.883V31.995ZM240.283 37V28.53L238.386 29.685V28.054L240.283 26.92H241.774V37H240.283Z" fill="white" fill-opacity="0.3"/>
    <path d="M248 112V24" stroke="white" stroke-opacity="0.3" stroke-width="2" stroke-linecap="square" stroke-dasharray="6 6"/>
    <path d="M256.703 37V26.92H262.674V28.383H258.166V31.225H261.834V32.695H258.166V37H256.703ZM263.935 37V26.92H268.009C268.107 26.92 268.228 26.9247 268.373 26.934C268.518 26.9387 268.655 26.9527 268.786 26.976C269.346 27.0647 269.813 27.256 270.186 27.55C270.564 27.844 270.846 28.215 271.033 28.663C271.22 29.111 271.313 29.6057 271.313 30.147C271.313 30.9497 271.108 31.6427 270.697 32.226C270.286 32.8047 269.67 33.1663 268.849 33.311L268.254 33.381H265.398V37H263.935ZM269.829 37L267.841 32.898L269.318 32.52L271.502 37H269.829ZM265.398 31.995H267.953C268.046 31.995 268.149 31.9903 268.261 31.981C268.378 31.9717 268.487 31.9553 268.59 31.932C268.889 31.862 269.129 31.7337 269.311 31.547C269.493 31.3557 269.624 31.1363 269.703 30.889C269.782 30.6417 269.822 30.3943 269.822 30.147C269.822 29.8997 269.782 29.6547 269.703 29.412C269.624 29.1647 269.493 28.9477 269.311 28.761C269.129 28.5697 268.889 28.439 268.59 28.369C268.487 28.341 268.378 28.3223 268.261 28.313C268.149 28.3037 268.046 28.299 267.953 28.299H265.398V31.995ZM272.761 36.993L272.768 35.691L277.157 31.757C277.511 31.4443 277.752 31.1457 277.878 30.861C278.008 30.5763 278.074 30.2917 278.074 30.007C278.074 29.6477 277.994 29.3257 277.836 29.041C277.677 28.7517 277.458 28.523 277.178 28.355C276.898 28.187 276.576 28.103 276.212 28.103C275.838 28.103 275.505 28.1917 275.211 28.369C274.921 28.5417 274.695 28.7727 274.532 29.062C274.368 29.3513 274.289 29.664 274.294 30H272.796C272.796 29.3467 272.943 28.775 273.237 28.285C273.535 27.7903 273.944 27.4053 274.462 27.13C274.98 26.85 275.572 26.71 276.24 26.71C276.874 26.71 277.444 26.8547 277.948 27.144C278.452 27.4287 278.848 27.8207 279.138 28.32C279.432 28.8193 279.579 29.3887 279.579 30.028C279.579 30.49 279.518 30.882 279.397 31.204C279.275 31.526 279.093 31.8247 278.851 32.1C278.608 32.3753 278.305 32.674 277.941 32.996L274.553 36.02L274.392 35.6H279.579V36.993H272.761Z" fill="white" fill-opacity="0.3"/>
    <path d="M288 112V24" stroke="white" stroke-opacity="0.3" stroke-width="2" stroke-linecap="square" stroke-dasharray="6 6"/>
    <path d="M296.58 37.21C295.572 37.21 294.713 36.9907 294.004 36.552C293.294 36.1087 292.751 35.4927 292.373 34.704C291.999 33.9153 291.813 33.0007 291.813 31.96C291.813 30.9193 291.999 30.0047 292.373 29.216C292.751 28.4273 293.294 27.8137 294.004 27.375C294.713 26.9317 295.572 26.71 296.58 26.71C297.742 26.71 298.703 27.004 299.464 27.592C300.229 28.18 300.761 28.971 301.06 29.965L299.576 30.364C299.38 29.6593 299.03 29.1063 298.526 28.705C298.026 28.3037 297.378 28.103 296.58 28.103C295.866 28.103 295.271 28.264 294.795 28.586C294.319 28.908 293.959 29.3583 293.717 29.937C293.479 30.5157 293.36 31.19 293.36 31.96C293.355 32.73 293.472 33.4043 293.71 33.983C293.952 34.5617 294.312 35.012 294.788 35.334C295.268 35.656 295.866 35.817 296.58 35.817C297.378 35.817 298.026 35.6163 298.526 35.215C299.03 34.809 299.38 34.256 299.576 33.556L301.06 33.955C300.761 34.949 300.229 35.74 299.464 36.328C298.703 36.916 297.742 37.21 296.58 37.21ZM302.599 37V26.92H305.756C305.849 26.92 306.022 26.9223 306.274 26.927C306.531 26.9317 306.776 26.9503 307.009 26.983C307.798 27.081 308.46 27.3633 308.997 27.83C309.538 28.2967 309.947 28.8893 310.222 29.608C310.497 30.322 310.635 31.106 310.635 31.96C310.635 32.8187 310.497 33.6073 310.222 34.326C309.947 35.04 309.538 35.6303 308.997 36.097C308.46 36.559 307.798 36.839 307.009 36.937C306.776 36.9697 306.531 36.9883 306.274 36.993C306.022 36.9977 305.849 37 305.756 37H302.599ZM304.097 35.607H305.756C305.915 35.607 306.104 35.6023 306.323 35.593C306.542 35.5837 306.736 35.565 306.904 35.537C307.417 35.439 307.833 35.2173 308.15 34.872C308.472 34.522 308.708 34.0927 308.857 33.584C309.006 33.0753 309.081 32.534 309.081 31.96C309.081 31.3673 309.004 30.819 308.85 30.315C308.696 29.8063 308.458 29.3817 308.136 29.041C307.819 28.6957 307.408 28.4763 306.904 28.383C306.736 28.3503 306.54 28.3317 306.316 28.327C306.097 28.3177 305.91 28.313 305.756 28.313H304.097V35.607ZM312.265 37V26.92H316.339C316.437 26.92 316.558 26.9247 316.703 26.934C316.848 26.9387 316.985 26.9527 317.116 26.976C317.676 27.0647 318.143 27.256 318.516 27.55C318.894 27.844 319.176 28.215 319.363 28.663C319.55 29.111 319.643 29.6057 319.643 30.147C319.643 30.9497 319.438 31.6427 319.027 32.226C318.616 32.8047 318 33.1663 317.179 33.311L316.584 33.381H313.728V37H312.265ZM318.159 37L316.171 32.898L317.648 32.52L319.832 37H318.159ZM313.728 31.995H316.283C316.376 31.995 316.479 31.9903 316.591 31.981C316.708 31.9717 316.817 31.9553 316.92 31.932C317.219 31.862 317.459 31.7337 317.641 31.547C317.823 31.3557 317.954 31.1363 318.033 30.889C318.112 30.6417 318.152 30.3943 318.152 30.147C318.152 29.8997 318.112 29.6547 318.033 29.412C317.954 29.1647 317.823 28.9477 317.641 28.761C317.459 28.5697 317.219 28.439 316.92 28.369C316.817 28.341 316.708 28.3223 316.591 28.313C316.479 28.3037 316.376 28.299 316.283 28.299H313.728V31.995ZM321.091 36.993L321.098 35.691L325.487 31.757C325.841 31.4443 326.082 31.1457 326.208 30.861C326.338 30.5763 326.404 30.2917 326.404 30.007C326.404 29.6477 326.324 29.3257 326.166 29.041C326.007 28.7517 325.788 28.523 325.508 28.355C325.228 28.187 324.906 28.103 324.542 28.103C324.168 28.103 323.835 28.1917 323.541 28.369C323.251 28.5417 323.025 28.7727 322.862 29.062C322.698 29.3513 322.619 29.664 322.624 30H321.126C321.126 29.3467 321.273 28.775 321.567 28.285C321.865 27.7903 322.274 27.4053 322.792 27.13C323.31 26.85 323.902 26.71 324.57 26.71C325.204 26.71 325.774 26.8547 326.278 27.144C326.782 27.4287 327.178 27.8207 327.468 28.32C327.762 28.8193 327.909 29.3887 327.909 30.028C327.909 30.49 327.848 30.882 327.727 31.204C327.605 31.526 327.423 31.8247 327.181 32.1C326.938 32.3753 326.635 32.674 326.271 32.996L322.883 36.02L322.722 35.6H327.909V36.993H321.091Z" fill="white" fill-opacity="0.3"/>
    <path d="M332 112V24" stroke="white" stroke-opacity="0.3" stroke-width="2" stroke-linecap="square" stroke-dasharray="6 6"/>
    <path d="M340.805 37V26.92H346.776V28.383H342.268V31.225H345.936V32.695H342.268V37H340.805ZM348.038 37V26.92H352.112C352.21 26.92 352.331 26.9247 352.476 26.934C352.62 26.9387 352.758 26.9527 352.889 26.976C353.449 27.0647 353.915 27.256 354.289 27.55C354.667 27.844 354.949 28.215 355.136 28.663C355.322 29.111 355.416 29.6057 355.416 30.147C355.416 30.9497 355.21 31.6427 354.8 32.226C354.389 32.8047 353.773 33.1663 352.952 33.311L352.357 33.381H349.501V37H348.038ZM353.932 37L351.944 32.898L353.421 32.52L355.605 37H353.932ZM349.501 31.995H352.056C352.149 31.995 352.252 31.9903 352.364 31.981C352.48 31.9717 352.59 31.9553 352.693 31.932C352.991 31.862 353.232 31.7337 353.414 31.547C353.596 31.3557 353.726 31.1363 353.806 30.889C353.885 30.6417 353.925 30.3943 353.925 30.147C353.925 29.8997 353.885 29.6547 353.806 29.412C353.726 29.1647 353.596 28.9477 353.414 28.761C353.232 28.5697 352.991 28.439 352.693 28.369C352.59 28.341 352.48 28.3223 352.364 28.313C352.252 28.3037 352.149 28.299 352.056 28.299H349.501V31.995ZM359.964 37.189C359.465 37.189 358.996 37.0957 358.557 36.909C358.118 36.7177 357.738 36.447 357.416 36.097C357.099 35.747 356.868 35.334 356.723 34.858L358.137 34.466C358.272 34.9 358.508 35.2337 358.844 35.467C359.18 35.6957 359.553 35.8077 359.964 35.803C360.333 35.7983 360.657 35.712 360.937 35.544C361.217 35.376 361.436 35.1497 361.595 34.865C361.754 34.5757 361.833 34.2443 361.833 33.871C361.833 33.311 361.658 32.849 361.308 32.485C360.963 32.121 360.51 31.939 359.95 31.939C359.791 31.939 359.628 31.9623 359.46 32.009C359.297 32.0557 359.143 32.1163 358.998 32.191L358.312 31.036L361.868 27.893L362.022 28.313H357.122V26.92H363.184V28.313L360.23 31.155L360.216 30.679C360.851 30.679 361.401 30.8213 361.868 31.106C362.335 31.386 362.694 31.7687 362.946 32.254C363.203 32.7347 363.331 33.2737 363.331 33.871C363.331 34.515 363.179 35.0867 362.876 35.586C362.577 36.0853 362.174 36.4773 361.665 36.762C361.161 37.0467 360.594 37.189 359.964 37.189Z" fill="white" fill-opacity="0.3"/>
    <path d="M372 112V24" stroke="white" stroke-opacity="0.3" stroke-width="2" stroke-linecap="square" stroke-dasharray="6 6"/>
    <path d="M418.682 37.21C417.674 37.21 416.815 36.9907 416.106 36.552C415.397 36.1087 414.853 35.4927 414.475 34.704C414.102 33.9153 413.915 33.0007 413.915 31.96C413.915 30.9193 414.102 30.0047 414.475 29.216C414.853 28.4273 415.397 27.8137 416.106 27.375C416.815 26.9317 417.674 26.71 418.682 26.71C419.844 26.71 420.805 27.004 421.566 27.592C422.331 28.18 422.863 28.971 423.162 29.965L421.678 30.364C421.482 29.6593 421.132 29.1063 420.628 28.705C420.129 28.3037 419.48 28.103 418.682 28.103C417.968 28.103 417.373 28.264 416.897 28.586C416.421 28.908 416.062 29.3583 415.819 29.937C415.581 30.5157 415.462 31.19 415.462 31.96C415.457 32.73 415.574 33.4043 415.812 33.983C416.055 34.5617 416.414 35.012 416.89 35.334C417.371 35.656 417.968 35.817 418.682 35.817C419.48 35.817 420.129 35.6163 420.628 35.215C421.132 34.809 421.482 34.256 421.678 33.556L423.162 33.955C422.863 34.949 422.331 35.74 421.566 36.328C420.805 36.916 419.844 37.21 418.682 37.21ZM424.702 37V26.92H427.859C427.952 26.92 428.125 26.9223 428.377 26.927C428.633 26.9317 428.878 26.9503 429.112 26.983C429.9 27.081 430.563 27.3633 431.1 27.83C431.641 28.2967 432.049 28.8893 432.325 29.608C432.6 30.322 432.738 31.106 432.738 31.96C432.738 32.8187 432.6 33.6073 432.325 34.326C432.049 35.04 431.641 35.6303 431.1 36.097C430.563 36.559 429.9 36.839 429.112 36.937C428.878 36.9697 428.633 36.9883 428.377 36.993C428.125 36.9977 427.952 37 427.859 37H424.702ZM426.2 35.607H427.859C428.017 35.607 428.206 35.6023 428.426 35.593C428.645 35.5837 428.839 35.565 429.007 35.537C429.52 35.439 429.935 35.2173 430.253 34.872C430.575 34.522 430.81 34.0927 430.96 33.584C431.109 33.0753 431.184 32.534 431.184 31.96C431.184 31.3673 431.107 30.819 430.953 30.315C430.799 29.8063 430.561 29.3817 430.239 29.041C429.921 28.6957 429.511 28.4763 429.007 28.383C428.839 28.3503 428.643 28.3317 428.419 28.327C428.199 28.3177 428.013 28.313 427.859 28.313H426.2V35.607ZM434.368 37V26.92H438.442C438.54 26.92 438.661 26.9247 438.806 26.934C438.95 26.9387 439.088 26.9527 439.219 26.976C439.779 27.0647 440.245 27.256 440.619 27.55C440.997 27.844 441.279 28.215 441.466 28.663C441.652 29.111 441.746 29.6057 441.746 30.147C441.746 30.9497 441.54 31.6427 441.13 32.226C440.719 32.8047 440.103 33.1663 439.282 33.311L438.687 33.381H435.831V37H434.368ZM440.262 37L438.274 32.898L439.751 32.52L441.935 37H440.262ZM435.831 31.995H438.386C438.479 31.995 438.582 31.9903 438.694 31.981C438.81 31.9717 438.92 31.9553 439.023 31.932C439.321 31.862 439.562 31.7337 439.744 31.547C439.926 31.3557 440.056 31.1363 440.136 30.889C440.215 30.6417 440.255 30.3943 440.255 30.147C440.255 29.8997 440.215 29.6547 440.136 29.412C440.056 29.1647 439.926 28.9477 439.744 28.761C439.562 28.5697 439.321 28.439 439.023 28.369C438.92 28.341 438.81 28.3223 438.694 28.313C438.582 28.3037 438.479 28.299 438.386 28.299H435.831V31.995ZM446.294 37.189C445.795 37.189 445.326 37.0957 444.887 36.909C444.448 36.7177 444.068 36.447 443.746 36.097C443.429 35.747 443.198 35.334 443.053 34.858L444.467 34.466C444.602 34.9 444.838 35.2337 445.174 35.467C445.51 35.6957 445.883 35.8077 446.294 35.803C446.663 35.7983 446.987 35.712 447.267 35.544C447.547 35.376 447.766 35.1497 447.925 34.865C448.084 34.5757 448.163 34.2443 448.163 33.871C448.163 33.311 447.988 32.849 447.638 32.485C447.293 32.121 446.84 31.939 446.28 31.939C446.121 31.939 445.958 31.9623 445.79 32.009C445.627 32.0557 445.473 32.1163 445.328 32.191L444.642 31.036L448.198 27.893L448.352 28.313H443.452V26.92H449.514V28.313L446.56 31.155L446.546 30.679C447.181 30.679 447.731 30.8213 448.198 31.106C448.665 31.386 449.024 31.7687 449.276 32.254C449.533 32.7347 449.661 33.2737 449.661 33.871C449.661 34.515 449.509 35.0867 449.206 35.586C448.907 36.0853 448.504 36.4773 447.995 36.762C447.491 37.0467 446.924 37.189 446.294 37.189Z" fill="white" fill-opacity="0.3"/>
    <path d="M492 112V24" stroke="white" stroke-opacity="0.3" stroke-width="2" stroke-linecap="square" stroke-dasharray="6 6"/>
    <path d="M600 112V24" stroke="white" stroke-opacity="0.3" stroke-width="2" stroke-linecap="square" stroke-dasharray="6 6"/>
    <path d="M534.593 37V26.92H540.564V28.383H536.056V31.225H539.724V32.695H536.056V37H534.593ZM541.826 37V26.92H545.9C545.998 26.92 546.119 26.9247 546.264 26.934C546.408 26.9387 546.546 26.9527 546.677 26.976C547.237 27.0647 547.703 27.256 548.077 27.55C548.455 27.844 548.737 28.215 548.924 28.663C549.11 29.111 549.204 29.6057 549.204 30.147C549.204 30.9497 548.998 31.6427 548.588 32.226C548.177 32.8047 547.561 33.1663 546.74 33.311L546.145 33.381H543.289V37H541.826ZM547.72 37L545.732 32.898L547.209 32.52L549.393 37H547.72ZM543.289 31.995H545.844C545.937 31.995 546.04 31.9903 546.152 31.981C546.268 31.9717 546.378 31.9553 546.481 31.932C546.779 31.862 547.02 31.7337 547.202 31.547C547.384 31.3557 547.514 31.1363 547.594 30.889C547.673 30.6417 547.713 30.3943 547.713 30.147C547.713 29.8997 547.673 29.6547 547.594 29.412C547.514 29.1647 547.384 28.9477 547.202 28.761C547.02 28.5697 546.779 28.439 546.481 28.369C546.378 28.341 546.268 28.3223 546.152 28.313C546.04 28.3037 545.937 28.299 545.844 28.299H543.289V31.995ZM555.201 37V35.243H550.651V33.857L553.927 26.92H555.6L552.324 33.857H555.201V31.127H556.685V33.857H557.686V35.243H556.685V37H555.201Z" fill="white" fill-opacity="0.3"/>
    <path d="M25.6881 114V101.29H20.7781V99.6H32.3781V101.29H27.4681V114H25.6881ZM39.8903 114.3C38.457 114.3 37.2403 113.983 36.2403 113.35C35.2403 112.717 34.477 111.837 33.9503 110.71C33.4303 109.583 33.1703 108.28 33.1703 106.8C33.1703 105.32 33.4303 104.017 33.9503 102.89C34.477 101.763 35.2403 100.883 36.2403 100.25C37.2403 99.6167 38.457 99.3 39.8903 99.3C41.557 99.3 42.927 99.7233 44.0003 100.57C45.0803 101.417 45.8236 102.557 46.2303 103.99L44.4203 104.47C44.127 103.397 43.6036 102.55 42.8503 101.93C42.097 101.31 41.1103 101 39.8903 101C38.817 101 37.9236 101.243 37.2103 101.73C36.497 102.217 35.9603 102.897 35.6003 103.77C35.2403 104.637 35.057 105.647 35.0503 106.8C35.0436 107.947 35.2203 108.957 35.5803 109.83C35.9403 110.697 36.4803 111.377 37.2003 111.87C37.9203 112.357 38.817 112.6 39.8903 112.6C41.1103 112.6 42.097 112.29 42.8503 111.67C43.6036 111.043 44.127 110.197 44.4203 109.13L46.2303 109.61C45.8236 111.037 45.0803 112.177 44.0003 113.03C42.927 113.877 41.557 114.3 39.8903 114.3ZM48.4234 114V99.6H54.1134C54.2534 99.6 54.4201 99.6067 54.6134 99.62C54.8068 99.6267 54.9934 99.6467 55.1734 99.68C55.9534 99.8 56.6068 100.067 57.1334 100.48C57.6668 100.893 58.0668 101.417 58.3334 102.05C58.6001 102.677 58.7334 103.373 58.7334 104.14C58.7334 105.253 58.4434 106.22 57.8634 107.04C57.2834 107.853 56.4334 108.363 55.3134 108.57L54.6334 108.68H50.2034V114H48.4234ZM56.9934 114L54.1534 108.14L55.9134 107.6L59.0334 114H56.9934ZM50.2034 106.99H54.0534C54.1801 106.99 54.3234 106.983 54.4834 106.97C54.6501 106.957 54.8068 106.933 54.9534 106.9C55.4134 106.793 55.7868 106.6 56.0734 106.32C56.3668 106.033 56.5801 105.7 56.7134 105.32C56.8468 104.933 56.9134 104.54 56.9134 104.14C56.9134 103.74 56.8468 103.35 56.7134 102.97C56.5801 102.583 56.3668 102.247 56.0734 101.96C55.7868 101.673 55.4134 101.48 54.9534 101.38C54.8068 101.34 54.6501 101.317 54.4834 101.31C54.3234 101.297 54.1801 101.29 54.0534 101.29H50.2034V106.99ZM65.2298 118.8V103.2C65.2298 102.953 65.2465 102.71 65.2798 102.47C65.3198 102.23 65.3765 102 65.4498 101.78C65.6298 101.24 65.9098 100.787 66.2898 100.42C66.6698 100.047 67.1232 99.7667 67.6498 99.58C68.1765 99.3933 68.7498 99.3 69.3698 99.3C70.2032 99.3 70.9365 99.4633 71.5698 99.79C72.2098 100.11 72.7098 100.563 73.0698 101.15C73.4298 101.737 73.6098 102.427 73.6098 103.22C73.6098 103.86 73.4798 104.433 73.2198 104.94C72.9665 105.447 72.5765 105.83 72.0498 106.09C72.4032 106.177 72.7432 106.323 73.0698 106.53C73.4032 106.737 73.7032 107 73.9698 107.32C74.2365 107.64 74.4465 108.02 74.5998 108.46C74.7598 108.9 74.8398 109.397 74.8398 109.95C74.8398 110.823 74.6432 111.587 74.2498 112.24C73.8565 112.887 73.2932 113.393 72.5598 113.76C71.8332 114.12 70.9598 114.3 69.9398 114.3C69.3265 114.3 68.7732 114.217 68.2798 114.05C67.7932 113.89 67.3698 113.67 67.0098 113.39V118.8H65.2298ZM70.0198 112.61C70.6132 112.61 71.1365 112.497 71.5898 112.27C72.0432 112.037 72.3965 111.717 72.6498 111.31C72.9032 110.897 73.0298 110.417 73.0298 109.87C73.0298 108.983 72.7032 108.313 72.0498 107.86C71.3965 107.4 70.5198 107.16 69.4198 107.14V105.54C69.8798 105.493 70.2865 105.38 70.6398 105.2C70.9998 105.02 71.2798 104.767 71.4798 104.44C71.6865 104.113 71.7898 103.713 71.7898 103.24C71.7898 102.527 71.5665 101.973 71.1198 101.58C70.6732 101.187 70.1032 100.99 69.4098 100.99C68.9698 100.99 68.5498 101.09 68.1498 101.29C67.7565 101.483 67.4665 101.813 67.2798 102.28C67.1798 102.54 67.1165 102.817 67.0898 103.11C67.0632 103.397 67.0498 103.647 67.0498 103.86V109.71C67.0498 109.903 67.0598 110.123 67.0798 110.37C67.1065 110.61 67.1465 110.823 67.1998 111.01C67.3665 111.523 67.7232 111.92 68.2698 112.2C68.8165 112.473 69.3998 112.61 70.0198 112.61Z" fill="white"/>
    <path d="M25.3268 266V253.29H20.4168V251.6H32.0168V253.29H27.1068V266H25.3268ZM39.529 266.3C38.0957 266.3 36.879 265.983 35.879 265.35C34.879 264.717 34.1157 263.837 33.589 262.71C33.069 261.583 32.809 260.28 32.809 258.8C32.809 257.32 33.069 256.017 33.589 254.89C34.1157 253.763 34.879 252.883 35.879 252.25C36.879 251.617 38.0957 251.3 39.529 251.3C41.1957 251.3 42.5657 251.723 43.639 252.57C44.719 253.417 45.4623 254.557 45.869 255.99L44.059 256.47C43.7657 255.397 43.2423 254.55 42.489 253.93C41.7357 253.31 40.749 253 39.529 253C38.4557 253 37.5623 253.243 36.849 253.73C36.1357 254.217 35.599 254.897 35.239 255.77C34.879 256.637 34.6957 257.647 34.689 258.8C34.6823 259.947 34.859 260.957 35.219 261.83C35.579 262.697 36.119 263.377 36.839 263.87C37.559 264.357 38.4557 264.6 39.529 264.6C40.749 264.6 41.7357 264.29 42.489 263.67C43.2423 263.043 43.7657 262.197 44.059 261.13L45.869 261.61C45.4623 263.037 44.719 264.177 43.639 265.03C42.5657 265.877 41.1957 266.3 39.529 266.3ZM48.0621 266V251.6H53.7521C53.8921 251.6 54.0588 251.607 54.2521 251.62C54.4454 251.627 54.6321 251.647 54.8121 251.68C55.5921 251.8 56.2454 252.067 56.7721 252.48C57.3054 252.893 57.7054 253.417 57.9721 254.05C58.2388 254.677 58.3721 255.373 58.3721 256.14C58.3721 257.253 58.0821 258.22 57.5021 259.04C56.9221 259.853 56.0721 260.363 54.9521 260.57L54.2721 260.68H49.8421V266H48.0621ZM56.6321 266L53.7921 260.14L55.5521 259.6L58.6721 266H56.6321ZM49.8421 258.99H53.6921C53.8188 258.99 53.9621 258.983 54.1221 258.97C54.2888 258.957 54.4454 258.933 54.5921 258.9C55.0521 258.793 55.4254 258.6 55.7121 258.32C56.0054 258.033 56.2188 257.7 56.3521 257.32C56.4854 256.933 56.5521 256.54 56.5521 256.14C56.5521 255.74 56.4854 255.35 56.3521 254.97C56.2188 254.583 56.0054 254.247 55.7121 253.96C55.4254 253.673 55.0521 253.48 54.5921 253.38C54.4454 253.34 54.2888 253.317 54.1221 253.31C53.9621 253.297 53.8188 253.29 53.6921 253.29H49.8421V258.99ZM69.1485 266.3C68.1285 266.3 67.2552 266.05 66.5285 265.55C65.8018 265.043 65.2452 264.36 64.8585 263.5C64.4718 262.64 64.2785 261.673 64.2785 260.6C64.2785 259.513 64.4718 258.543 64.8585 257.69C65.2518 256.83 65.8152 256.15 66.5485 255.65C67.2818 255.15 68.1652 254.9 69.1985 254.9C70.1652 254.9 70.9852 255.143 71.6585 255.63C72.3385 256.11 72.8185 256.777 73.0985 257.63L72.7985 258.15V255.2H74.3885V266H72.7985V263.02L73.0985 263.54C72.8185 264.4 72.3285 265.077 71.6285 265.57C70.9352 266.057 70.1085 266.3 69.1485 266.3ZM69.3685 264.67C70.0818 264.67 70.6685 264.497 71.1285 264.15C71.5952 263.797 71.9385 263.313 72.1585 262.7C72.3852 262.08 72.4985 261.377 72.4985 260.59C72.4985 259.79 72.3852 259.087 72.1585 258.48C71.9385 257.867 71.5985 257.39 71.1385 257.05C70.6785 256.703 70.0952 256.53 69.3885 256.53C68.6885 256.53 68.0985 256.703 67.6185 257.05C67.1385 257.39 66.7752 257.867 66.5285 258.48C66.2885 259.087 66.1685 259.793 66.1685 260.6C66.1685 261.36 66.2852 262.047 66.5185 262.66C66.7518 263.273 67.1052 263.763 67.5785 264.13C68.0518 264.49 68.6485 264.67 69.3685 264.67Z" fill="white"/>
    <path d="M32.9984 366V351.6H34.7784V366H32.9984ZM43.6089 366.3C42.6222 366.3 41.7222 366.127 40.9089 365.78C40.0956 365.433 39.3956 364.937 38.8089 364.29C38.2222 363.637 37.7689 362.85 37.4489 361.93C37.1356 361.003 36.9789 359.96 36.9789 358.8C36.9789 357.267 37.2522 355.94 37.7989 354.82C38.3456 353.7 39.1156 352.837 40.1089 352.23C41.1022 351.617 42.2689 351.31 43.6089 351.31C45.2222 351.31 46.5222 351.687 47.5089 352.44C48.4956 353.187 49.1756 354.21 49.5489 355.51L47.7489 355.88C47.4489 355.007 46.9556 354.31 46.2689 353.79C45.5822 353.27 44.7256 353.01 43.6989 353.01C42.6256 353.003 41.7322 353.243 41.0189 353.73C40.3122 354.21 39.7789 354.887 39.4189 355.76C39.0589 356.633 38.8756 357.647 38.8689 358.8C38.8622 359.947 39.0389 360.953 39.3989 361.82C39.7589 362.687 40.2956 363.367 41.0089 363.86C41.7289 364.347 42.6256 364.593 43.6989 364.6C44.6256 364.607 45.4056 364.43 46.0389 364.07C46.6722 363.71 47.1622 363.19 47.5089 362.51C47.8556 361.83 48.0656 361.013 48.1389 360.06H45.0789V358.59H50.0189C50.0389 358.723 50.0489 358.883 50.0489 359.07C50.0556 359.25 50.0589 359.373 50.0589 359.44C50.0589 360.753 49.8122 361.93 49.3189 362.97C48.8322 364.003 48.1089 364.817 47.1489 365.41C46.1956 366.003 45.0156 366.3 43.6089 366.3ZM52.0563 366V351.6H53.8363V357.95H61.4163V351.6H63.1963V366H61.4163V359.64H53.8363V366H52.0563Z" fill="white"/>
    <path d="M26.0258 456V441.6H27.8058V456H26.0258ZM36.6363 456.3C35.6496 456.3 34.7496 456.127 33.9363 455.78C33.1229 455.433 32.4229 454.937 31.8363 454.29C31.2496 453.637 30.7963 452.85 30.4763 451.93C30.1629 451.003 30.0063 449.96 30.0063 448.8C30.0063 447.267 30.2796 445.94 30.8263 444.82C31.3729 443.7 32.1429 442.837 33.1363 442.23C34.1296 441.617 35.2963 441.31 36.6363 441.31C38.2496 441.31 39.5496 441.687 40.5363 442.44C41.5229 443.187 42.2029 444.21 42.5763 445.51L40.7763 445.88C40.4763 445.007 39.9829 444.31 39.2963 443.79C38.6096 443.27 37.7529 443.01 36.7263 443.01C35.6529 443.003 34.7596 443.243 34.0463 443.73C33.3396 444.21 32.8063 444.887 32.4463 445.76C32.0863 446.633 31.9029 447.647 31.8963 448.8C31.8896 449.947 32.0663 450.953 32.4263 451.82C32.7863 452.687 33.3229 453.367 34.0363 453.86C34.7563 454.347 35.6529 454.593 36.7263 454.6C37.6529 454.607 38.4329 454.43 39.0663 454.07C39.6996 453.71 40.1896 453.19 40.5363 452.51C40.8829 451.83 41.0929 451.013 41.1662 450.06H38.1063V448.59H43.0463C43.0663 448.723 43.0763 448.883 43.0763 449.07C43.0829 449.25 43.0863 449.373 43.0863 449.44C43.0863 450.753 42.8396 451.93 42.3463 452.97C41.8596 454.003 41.1363 454.817 40.1763 455.41C39.2229 456.003 38.0429 456.3 36.6363 456.3ZM45.0836 456V441.6H46.8636V448.36L53.1636 441.6H55.4036L48.8636 448.59L55.9136 456H53.6136L46.8636 448.96V456H45.0836ZM64.5634 441.6H66.3734L62.5334 456H60.7234L64.5634 441.6ZM34.7953 476V461.6H36.5753V476H34.7953ZM45.4058 476.3C44.4191 476.3 43.5191 476.127 42.7058 475.78C41.8924 475.433 41.1924 474.937 40.6058 474.29C40.0191 473.637 39.5658 472.85 39.2458 471.93C38.9324 471.003 38.7758 469.96 38.7758 468.8C38.7758 467.267 39.0491 465.94 39.5958 464.82C40.1424 463.7 40.9124 462.837 41.9058 462.23C42.8991 461.617 44.0658 461.31 45.4058 461.31C47.0191 461.31 48.3191 461.687 49.3058 462.44C50.2924 463.187 50.9724 464.21 51.3458 465.51L49.5458 465.88C49.2458 465.007 48.7524 464.31 48.0658 463.79C47.3791 463.27 46.5224 463.01 45.4958 463.01C44.4224 463.003 43.5291 463.243 42.8158 463.73C42.1091 464.21 41.5758 464.887 41.2158 465.76C40.8558 466.633 40.6724 467.647 40.6658 468.8C40.6591 469.947 40.8358 470.953 41.1958 471.82C41.5558 472.687 42.0924 473.367 42.8058 473.86C43.5258 474.347 44.4224 474.593 45.4958 474.6C46.4224 474.607 47.2024 474.43 47.8358 474.07C48.4691 473.71 48.9591 473.19 49.3058 472.51C49.6524 471.83 49.8624 471.013 49.9358 470.06H46.8758V468.59H51.8158C51.8358 468.723 51.8458 468.883 51.8458 469.07C51.8524 469.25 51.8558 469.373 51.8558 469.44C51.8558 470.753 51.6091 471.93 51.1158 472.97C50.6291 474.003 49.9058 474.817 48.9458 475.41C47.9924 476.003 46.8124 476.3 45.4058 476.3ZM54.0531 476V461.6H55.8331V474.31H62.5131V476H54.0531Z" fill="white"/>
    <g filter="url(#filter0_i_6463_39277)">
        <rect x="96" y="80" width="288" height="52" rx="1" fill="#99E099"/>
        <path d="M238.758 114L233.938 99.6H235.788L239.978 112.11L244.208 99.6H246.058L241.238 114H238.758Z" fill="#110529"/>
        <rect x="96" y="80" width="288" height="52" rx="1" stroke="#110529" stroke-width="2" stroke-linecap="round"/>
    </g>
    <g filter="url(#filter1_i_6463_39277)">
        <rect x="384" y="80" width="30" height="52" rx="1" fill="#CBEB67"/>
    </g>
    <rect x="384" y="80" width="30" height="52" rx="1" stroke="#110529" stroke-width="2" stroke-linecap="round"/>
    <g filter="url(#filter2_i_6463_39277)">
        <rect x="450" y="80" width="30" height="52" rx="1" fill="#FAAAFA"/>
    </g>
    <rect x="450" y="80" width="30" height="52" rx="1" stroke="#110529" stroke-width="2" stroke-linecap="round"/>
    <g filter="url(#filter3_i_6463_39277)">
        <rect x="414" y="80" width="36" height="52" rx="1" fill="#FFCB8F"/>
    </g>
    <rect x="414" y="80" width="36" height="52" rx="1" stroke="#110529" stroke-width="2" stroke-linecap="round"/>
    <path d="M393.447 114V99.6H395.247L402.757 110.85V99.6H404.557V114H402.757L395.247 102.74V114H393.447Z" fill="#110529"/>
    <path d="M459.447 114V99.6H461.247L468.757 110.85V99.6H470.557V114H468.757L461.247 102.74V114H459.447Z" fill="#110529"/>
    <path d="M426.593 114V99.6H431.033C431.18 99.6 431.437 99.6033 431.803 99.61C432.17 99.6167 432.52 99.6433 432.853 99.69C433.967 99.8367 434.897 100.243 435.643 100.91C436.397 101.57 436.963 102.41 437.343 103.43C437.723 104.45 437.913 105.573 437.913 106.8C437.913 108.027 437.723 109.15 437.343 110.17C436.963 111.19 436.397 112.033 435.643 112.7C434.897 113.36 433.967 113.763 432.853 113.91C432.52 113.95 432.167 113.977 431.793 113.99C431.427 113.997 431.173 114 431.033 114H426.593ZM428.423 112.3H431.033C431.287 112.3 431.57 112.293 431.883 112.28C432.197 112.26 432.47 112.23 432.703 112.19C433.49 112.043 434.127 111.713 434.613 111.2C435.1 110.687 435.457 110.047 435.683 109.28C435.91 108.513 436.023 107.687 436.023 106.8C436.023 105.893 435.907 105.057 435.673 104.29C435.447 103.523 435.09 102.887 434.603 102.38C434.117 101.873 433.483 101.55 432.703 101.41C432.47 101.363 432.193 101.333 431.873 101.32C431.553 101.307 431.273 101.3 431.033 101.3H428.423V112.3Z" fill="#110529"/>
    <g filter="url(#filter4_i_6463_39277)">
        <rect x="480" y="80" width="120" height="52" rx="1" fill="#C1ADFF"/>
        <path d="M539.244 114.29C538.237 114.29 537.384 114.017 536.684 113.47C535.984 112.923 535.504 112.19 535.244 111.27L537.014 110.85C537.121 111.337 537.377 111.75 537.784 112.09C538.197 112.43 538.671 112.6 539.204 112.6C539.551 112.6 539.904 112.517 540.264 112.35C540.624 112.177 540.901 111.897 541.094 111.51C541.227 111.243 541.304 110.95 541.324 110.63C541.344 110.303 541.354 109.92 541.354 109.48V99.6H543.154V109.48C543.154 109.893 543.151 110.263 543.144 110.59C543.144 110.917 543.111 111.23 543.044 111.53C542.984 111.823 542.864 112.123 542.684 112.43C542.324 113.063 541.841 113.533 541.234 113.84C540.634 114.14 539.971 114.29 539.244 114.29Z" fill="#110529"/>
        <rect x="480" y="80" width="120" height="52" rx="1" stroke="#110529" stroke-width="2" stroke-linecap="round"/>
    </g>
    <g filter="url(#filter5_i_6463_39277)">
        <rect x="600" y="80" width="280" height="52" rx="1" fill="#FAFAAA"/>
        <path d="M740.093 114.3C738.66 114.3 737.443 113.983 736.443 113.35C735.443 112.717 734.68 111.837 734.153 110.71C733.633 109.583 733.373 108.28 733.373 106.8C733.373 105.32 733.633 104.017 734.153 102.89C734.68 101.763 735.443 100.883 736.443 100.25C737.443 99.6167 738.66 99.3 740.093 99.3C741.76 99.3 743.13 99.7233 744.203 100.57C745.283 101.417 746.027 102.557 746.433 103.99L744.623 104.47C744.33 103.397 743.807 102.55 743.053 101.93C742.3 101.31 741.313 101 740.093 101C739.02 101 738.127 101.243 737.413 101.73C736.7 102.217 736.163 102.897 735.803 103.77C735.443 104.637 735.26 105.647 735.253 106.8C735.247 107.947 735.423 108.957 735.783 109.83C736.143 110.697 736.683 111.377 737.403 111.87C738.123 112.357 739.02 112.6 740.093 112.6C741.313 112.6 742.3 112.29 743.053 111.67C743.807 111.043 744.33 110.197 744.623 109.13L746.433 109.61C746.027 111.037 745.283 112.177 744.203 113.03C743.13 113.877 741.76 114.3 740.093 114.3Z" fill="#110529"/>
        <rect x="600" y="80" width="280" height="52" rx="1" stroke="#110529" stroke-width="2" stroke-linecap="round"/>
    </g>
    <g filter="url(#filter6_i_6463_39277)">
        <rect x="96" y="332" width="288" height="52" rx="1" fill="#99E099"/>
        <path d="M238.758 366L233.938 351.6H235.788L239.978 364.11L244.208 351.6H246.058L241.238 366H238.758Z" fill="#110529"/>
        <rect x="96" y="332" width="288" height="52" rx="1" stroke="#110529" stroke-width="2" stroke-linecap="round"/>
    </g>
    <g filter="url(#filter7_i_6463_39277)">
        <rect x="384" y="332" width="30" height="52" rx="1" fill="#CBEB67"/>
    </g>
    <rect x="384" y="332" width="30" height="52" rx="1" stroke="#110529" stroke-width="2" stroke-linecap="round"/>
    <g filter="url(#filter8_i_6463_39277)">
        <rect x="450" y="332" width="30" height="52" rx="1" fill="#FAAAFA"/>
    </g>
    <rect x="450" y="332" width="30" height="52" rx="1" stroke="#110529" stroke-width="2" stroke-linecap="round"/>
    <g filter="url(#filter9_i_6463_39277)">
        <rect x="414" y="332" width="36" height="52" rx="1" fill="#FFCB8F"/>
    </g>
    <rect x="414" y="332" width="36" height="52" rx="1" stroke="#110529" stroke-width="2" stroke-linecap="round"/>
    <path d="M393.447 366V351.6H395.247L402.757 362.85V351.6H404.557V366H402.757L395.247 354.74V366H393.447Z" fill="#110529"/>
    <path d="M459.447 366V351.6H461.247L468.757 362.85V351.6H470.557V366H468.757L461.247 354.74V366H459.447Z" fill="#110529"/>
    <path d="M426.593 366V351.6H431.033C431.18 351.6 431.437 351.603 431.803 351.61C432.17 351.617 432.52 351.643 432.853 351.69C433.967 351.837 434.897 352.243 435.643 352.91C436.397 353.57 436.963 354.41 437.343 355.43C437.723 356.45 437.913 357.573 437.913 358.8C437.913 360.027 437.723 361.15 437.343 362.17C436.963 363.19 436.397 364.033 435.643 364.7C434.897 365.36 433.967 365.763 432.853 365.91C432.52 365.95 432.167 365.977 431.793 365.99C431.427 365.997 431.173 366 431.033 366H426.593ZM428.423 364.3H431.033C431.287 364.3 431.57 364.293 431.883 364.28C432.197 364.26 432.47 364.23 432.703 364.19C433.49 364.043 434.127 363.713 434.613 363.2C435.1 362.687 435.457 362.047 435.683 361.28C435.91 360.513 436.023 359.687 436.023 358.8C436.023 357.893 435.907 357.057 435.673 356.29C435.447 355.523 435.09 354.887 434.603 354.38C434.117 353.873 433.483 353.55 432.703 353.41C432.47 353.363 432.193 353.333 431.873 353.32C431.553 353.307 431.273 353.3 431.033 353.3H428.423V364.3Z" fill="#110529"/>
    <g filter="url(#filter10_i_6463_39277)">
        <rect x="480" y="332" width="120" height="52" rx="1" fill="#C1ADFF"/>
        <path d="M539.244 366.29C538.237 366.29 537.384 366.017 536.684 365.47C535.984 364.923 535.504 364.19 535.244 363.27L537.014 362.85C537.121 363.337 537.377 363.75 537.784 364.09C538.197 364.43 538.671 364.6 539.204 364.6C539.551 364.6 539.904 364.517 540.264 364.35C540.624 364.177 540.901 363.897 541.094 363.51C541.227 363.243 541.304 362.95 541.324 362.63C541.344 362.303 541.354 361.92 541.354 361.48V351.6H543.154V361.48C543.154 361.893 543.151 362.263 543.144 362.59C543.144 362.917 543.111 363.23 543.044 363.53C542.984 363.823 542.864 364.123 542.684 364.43C542.324 365.063 541.841 365.533 541.234 365.84C540.634 366.14 539.971 366.29 539.244 366.29Z" fill="#110529"/>
        <rect x="480" y="332" width="120" height="52" rx="1" stroke="#110529" stroke-width="2" stroke-linecap="round"/>
    </g>
    <g filter="url(#filter11_i_6463_39277)">
        <rect x="600" y="332" width="280" height="52" rx="1" fill="#FAFAAA"/>
        <path d="M740.093 366.3C738.66 366.3 737.443 365.983 736.443 365.35C735.443 364.717 734.68 363.837 734.153 362.71C733.633 361.583 733.373 360.28 733.373 358.8C733.373 357.32 733.633 356.017 734.153 354.89C734.68 353.763 735.443 352.883 736.443 352.25C737.443 351.617 738.66 351.3 740.093 351.3C741.76 351.3 743.13 351.723 744.203 352.57C745.283 353.417 746.027 354.557 746.433 355.99L744.623 356.47C744.33 355.397 743.807 354.55 743.053 353.93C742.3 353.31 741.313 353 740.093 353C739.02 353 738.127 353.243 737.413 353.73C736.7 354.217 736.163 354.897 735.803 355.77C735.443 356.637 735.26 357.647 735.253 358.8C735.247 359.947 735.423 360.957 735.783 361.83C736.143 362.697 736.683 363.377 737.403 363.87C738.123 364.357 739.02 364.6 740.093 364.6C741.313 364.6 742.3 364.29 743.053 363.67C743.807 363.043 744.33 362.197 744.623 361.13L746.433 361.61C746.027 363.037 745.283 364.177 744.203 365.03C743.13 365.877 741.76 366.3 740.093 366.3Z" fill="#110529"/>
        <rect x="600" y="332" width="280" height="52" rx="1" stroke="#110529" stroke-width="2" stroke-linecap="round"/>
    </g>
    <g filter="url(#filter12_i_6463_39277)">
        <rect x="96" y="232" width="288" height="52" rx="1" fill="#99E099"/>
        <path d="M238.758 266L233.938 251.6H235.788L239.978 264.11L244.208 251.6H246.058L241.238 266H238.758Z" fill="#110529"/>
        <rect x="96" y="232" width="288" height="52" rx="1" stroke="#110529" stroke-width="2" stroke-linecap="round"/>
    </g>
    <g filter="url(#filter13_i_6463_39277)">
        <rect x="384" y="232" width="30" height="52" rx="1" fill="#CBEB67"/>
        <path d="M393.447 266V251.6H395.247L402.757 262.85V251.6H404.557V266H402.757L395.247 254.74V266H393.447Z" fill="#110529"/>
        <rect x="384" y="232" width="30" height="52" rx="1" stroke="#110529" stroke-width="2" stroke-linecap="round"/>
    </g>
    <g filter="url(#filter14_i_6463_39277)">
        <rect x="414" y="232" width="120" height="52" rx="1" fill="#C1ADFF"/>
        <path d="M473.244 266.29C472.237 266.29 471.384 266.017 470.684 265.47C469.984 264.923 469.504 264.19 469.244 263.27L471.014 262.85C471.121 263.337 471.377 263.75 471.784 264.09C472.197 264.43 472.671 264.6 473.204 264.6C473.551 264.6 473.904 264.517 474.264 264.35C474.624 264.177 474.901 263.897 475.094 263.51C475.227 263.243 475.304 262.95 475.324 262.63C475.344 262.303 475.354 261.92 475.354 261.48V251.6H477.154V261.48C477.154 261.893 477.151 262.263 477.144 262.59C477.144 262.917 477.111 263.23 477.044 263.53C476.984 263.823 476.864 264.123 476.684 264.43C476.324 265.063 475.841 265.533 475.234 265.84C474.634 266.14 473.971 266.29 473.244 266.29Z" fill="#110529"/>
        <rect x="414" y="232" width="120" height="52" rx="1" stroke="#110529" stroke-width="2" stroke-linecap="round"/>
    </g>
    <g filter="url(#filter15_i_6463_39277)">
        <rect x="534" y="232" width="280" height="52" rx="1" fill="#FAFAAA"/>
        <path d="M674.093 266.3C672.66 266.3 671.443 265.983 670.443 265.35C669.443 264.717 668.68 263.837 668.153 262.71C667.633 261.583 667.373 260.28 667.373 258.8C667.373 257.32 667.633 256.017 668.153 254.89C668.68 253.763 669.443 252.883 670.443 252.25C671.443 251.617 672.66 251.3 674.093 251.3C675.76 251.3 677.13 251.723 678.203 252.57C679.283 253.417 680.027 254.557 680.433 255.99L678.623 256.47C678.33 255.397 677.807 254.55 677.053 253.93C676.3 253.31 675.313 253 674.093 253C673.02 253 672.127 253.243 671.413 253.73C670.7 254.217 670.163 254.897 669.803 255.77C669.443 256.637 669.26 257.647 669.253 258.8C669.247 259.947 669.423 260.957 669.783 261.83C670.143 262.697 670.683 263.377 671.403 263.87C672.123 264.357 673.02 264.6 674.093 264.6C675.313 264.6 676.3 264.29 677.053 263.67C677.807 263.043 678.33 262.197 678.623 261.13L680.433 261.61C680.027 263.037 679.283 264.177 678.203 265.03C677.13 265.877 675.76 266.3 674.093 266.3Z" fill="#110529"/>
        <rect x="534" y="232" width="280" height="52" rx="1" stroke="#110529" stroke-width="2" stroke-linecap="round"/>
    </g>
    <g filter="url(#filter16_i_6463_39277)">
        <rect x="96" y="432" width="288" height="52" rx="1" fill="#99E099"/>
        <path d="M238.758 466L233.938 451.6H235.788L239.978 464.11L244.208 451.6H246.058L241.238 466H238.758Z" fill="#110529"/>
        <rect x="96" y="432" width="288" height="52" rx="1" stroke="#110529" stroke-width="2" stroke-linecap="round"/>
    </g>
    <g filter="url(#filter17_i_6463_39277)">
        <rect x="384" y="432" width="30" height="52" rx="1" fill="#CBEB67"/>
        <path d="M393.447 466V451.6H395.247L402.757 462.85V451.6H404.557V466H402.757L395.247 454.74V466H393.447Z" fill="#110529"/>
        <rect x="384" y="432" width="30" height="52" rx="1" stroke="#110529" stroke-width="2" stroke-linecap="round"/>
    </g>
    <g filter="url(#filter18_i_6463_39277)">
        <rect x="414" y="432" width="120" height="52" rx="1" fill="#C1ADFF"/>
        <path d="M473.244 466.29C472.237 466.29 471.384 466.017 470.684 465.47C469.984 464.923 469.504 464.19 469.244 463.27L471.014 462.85C471.121 463.337 471.377 463.75 471.784 464.09C472.197 464.43 472.671 464.6 473.204 464.6C473.551 464.6 473.904 464.517 474.264 464.35C474.624 464.177 474.901 463.897 475.094 463.51C475.227 463.243 475.304 462.95 475.324 462.63C475.344 462.303 475.354 461.92 475.354 461.48V451.6H477.154V461.48C477.154 461.893 477.151 462.263 477.144 462.59C477.144 462.917 477.111 463.23 477.044 463.53C476.984 463.823 476.864 464.123 476.684 464.43C476.324 465.063 475.841 465.533 475.234 465.84C474.634 466.14 473.971 466.29 473.244 466.29Z" fill="#110529"/>
        <rect x="414" y="432" width="120" height="52" rx="1" stroke="#110529" stroke-width="2" stroke-linecap="round"/>
    </g>
    <g filter="url(#filter19_i_6463_39277)">
        <rect x="534" y="432" width="280" height="52" rx="1" fill="#FAFAAA"/>
        <path d="M674.093 466.3C672.66 466.3 671.443 465.983 670.443 465.35C669.443 464.717 668.68 463.837 668.153 462.71C667.633 461.583 667.373 460.28 667.373 458.8C667.373 457.32 667.633 456.017 668.153 454.89C668.68 453.763 669.443 452.883 670.443 452.25C671.443 451.617 672.66 451.3 674.093 451.3C675.76 451.3 677.13 451.723 678.203 452.57C679.283 453.417 680.027 454.557 680.433 455.99L678.623 456.47C678.33 455.397 677.807 454.55 677.053 453.93C676.3 453.31 675.313 453 674.093 453C673.02 453 672.127 453.243 671.413 453.73C670.7 454.217 670.163 454.897 669.803 455.77C669.443 456.637 669.26 457.647 669.253 458.8C669.247 459.947 669.423 460.957 669.783 461.83C670.143 462.697 670.683 463.377 671.403 463.87C672.123 464.357 673.02 464.6 674.093 464.6C675.313 464.6 676.3 464.29 677.053 463.67C677.807 463.043 678.33 462.197 678.623 461.13L680.433 461.61C680.027 463.037 679.283 464.177 678.203 465.03C677.13 465.877 675.76 466.3 674.093 466.3Z" fill="#110529"/>
        <rect x="534" y="432" width="280" height="52" rx="1" stroke="#110529" stroke-width="2" stroke-linecap="round"/>
    </g>
    <path d="M190 154H96" stroke="white" stroke-width="2" stroke-linecap="square"/>
    <path d="M200 154L200.707 153.293L201.414 154L200.707 154.707L200 154ZM192.707 162.707L192 163.414L190.586 162L191.293 161.293L192.707 162.707ZM191.293 146.707L190.586 146L192 144.586L192.707 145.293L191.293 146.707ZM190 153L200 153L200 155L190 155L190 153ZM200.707 154.707L192.707 162.707L191.293 161.293L199.293 153.293L200.707 154.707ZM199.293 154.707L191.293 146.707L192.707 145.293L200.707 153.293L199.293 154.707Z" fill="white"/>
    <path d="M416 154H206" stroke="white" stroke-width="2" stroke-linecap="square"/>
    <path d="M426 154L426.707 153.293L427.414 154L426.707 154.707L426 154ZM418.707 162.707L418 163.414L416.586 162L417.293 161.293L418.707 162.707ZM417.293 146.707L416.586 146L418 144.586L418.707 145.293L417.293 146.707ZM416 153L426 153L426 155L416 155L416 153ZM426.707 154.707L418.707 162.707L417.293 161.293L425.293 153.293L426.707 154.707ZM425.293 154.707L417.293 146.707L418.707 145.293L426.707 153.293L425.293 154.707Z" fill="white"/>
    <path d="M642 154H432" stroke="white" stroke-width="2" stroke-linecap="square"/>
    <path d="M652 154L652.707 153.293L653.414 154L652.707 154.707L652 154ZM644.707 162.707L644 163.414L642.586 162L643.293 161.293L644.707 162.707ZM643.293 146.707L642.586 146L644 144.586L644.707 145.293L643.293 146.707ZM642 153L652 153L652 155L642 155L642 153ZM652.707 154.707L644.707 162.707L643.293 161.293L651.293 153.293L652.707 154.707ZM651.293 154.707L643.293 146.707L644.707 145.293L652.707 153.293L651.293 154.707Z" fill="white"/>
    <path d="M868 154H658" stroke="white" stroke-width="2" stroke-linecap="square"/>
    <path d="M878 154L878.707 153.293L879.414 154L878.707 154.707L878 154ZM870.707 162.707L870 163.414L868.586 162L869.293 161.293L870.707 162.707ZM869.293 146.707L868.586 146L870 144.586L870.707 145.293L869.293 146.707ZM868 153L878 153L878 155L868 155L868 153ZM878.707 154.707L870.707 162.707L869.293 161.293L877.293 153.293L878.707 154.707ZM877.293 154.707L869.293 146.707L870.707 145.293L878.707 153.293L877.293 154.707Z" fill="white"/>
    <path d="M306 174H96" stroke="white" stroke-width="2" stroke-linecap="square"/>
    <path d="M316 174L316.707 173.293L317.414 174L316.707 174.707L316 174ZM308.707 182.707L308 183.414L306.586 182L307.293 181.293L308.707 182.707ZM307.293 166.707L306.586 166L308 164.586L308.707 165.293L307.293 166.707ZM306 173L316 173L316 175L306 175L306 173ZM316.707 174.707L308.707 182.707L307.293 181.293L315.293 173.293L316.707 174.707ZM315.293 174.707L307.293 166.707L308.707 165.293L316.707 173.293L315.293 174.707Z" fill="white"/>
    <rect width="66" height="20" transform="translate(176.667 164)" fill="#1D1D29"/>
    <path d="M183.795 180V170.056L181.627 171.368V169.776L183.795 168.48H185.243V180H183.795ZM192.175 180.24C191.428 180.24 190.761 180.072 190.175 179.736C189.593 179.395 189.132 178.933 188.791 178.352C188.455 177.765 188.287 177.099 188.287 176.352V172.128C188.287 171.381 188.455 170.715 188.791 170.128C189.132 169.541 189.593 169.08 190.175 168.744C190.761 168.408 191.428 168.24 192.175 168.24C192.921 168.24 193.588 168.408 194.175 168.744C194.761 169.08 195.223 169.541 195.559 170.128C195.895 170.715 196.063 171.381 196.063 172.128V176.352C196.063 177.099 195.895 177.765 195.559 178.352C195.223 178.933 194.761 179.395 194.175 179.736C193.588 180.072 192.921 180.24 192.175 180.24ZM192.175 178.872C192.628 178.872 193.039 178.763 193.407 178.544C193.775 178.325 194.068 178.032 194.287 177.664C194.505 177.291 194.615 176.88 194.615 176.432V172.04C194.615 171.587 194.505 171.176 194.287 170.808C194.068 170.44 193.775 170.147 193.407 169.928C193.039 169.709 192.628 169.6 192.175 169.6C191.727 169.6 191.316 169.709 190.943 169.928C190.575 170.147 190.281 170.44 190.063 170.808C189.844 171.176 189.735 171.587 189.735 172.04V176.432C189.735 176.88 189.844 177.291 190.063 177.664C190.281 178.032 190.575 178.325 190.943 178.544C191.316 178.763 191.727 178.872 192.175 178.872ZM202.19 180.24C201.444 180.24 200.777 180.072 200.19 179.736C199.609 179.395 199.148 178.933 198.806 178.352C198.47 177.765 198.302 177.099 198.302 176.352V172.128C198.302 171.381 198.47 170.715 198.806 170.128C199.148 169.541 199.609 169.08 200.19 168.744C200.777 168.408 201.444 168.24 202.19 168.24C202.937 168.24 203.604 168.408 204.19 168.744C204.777 169.08 205.238 169.541 205.574 170.128C205.91 170.715 206.078 171.381 206.078 172.128V176.352C206.078 177.099 205.91 177.765 205.574 178.352C205.238 178.933 204.777 179.395 204.19 179.736C203.604 180.072 202.937 180.24 202.19 180.24ZM202.19 178.872C202.644 178.872 203.054 178.763 203.422 178.544C203.79 178.325 204.084 178.032 204.302 177.664C204.521 177.291 204.63 176.88 204.63 176.432V172.04C204.63 171.587 204.521 171.176 204.302 170.808C204.084 170.44 203.79 170.147 203.422 169.928C203.054 169.709 202.644 169.6 202.19 169.6C201.742 169.6 201.332 169.709 200.958 169.928C200.59 170.147 200.297 170.44 200.078 170.808C199.86 171.176 199.75 171.587 199.75 172.04V176.432C199.75 176.88 199.86 177.291 200.078 177.664C200.297 178.032 200.59 178.325 200.958 178.544C201.332 178.763 201.742 178.872 202.19 178.872ZM212.286 180.24C211.475 180.24 210.793 180.04 210.238 179.64C209.683 179.235 209.262 178.688 208.974 178C208.691 177.307 208.55 176.531 208.55 175.672C208.55 174.803 208.691 174.024 208.974 173.336C209.262 172.648 209.683 172.107 210.238 171.712C210.798 171.317 211.483 171.12 212.294 171.12C213.094 171.12 213.782 171.32 214.358 171.72C214.939 172.115 215.385 172.656 215.694 173.344C216.003 174.032 216.158 174.808 216.158 175.672C216.158 176.536 216.003 177.312 215.694 178C215.385 178.688 214.939 179.235 214.358 179.64C213.782 180.04 213.091 180.24 212.286 180.24ZM208.31 180V168.48H209.742V173.64H209.582V180H208.31ZM212.11 178.936C212.681 178.936 213.153 178.792 213.526 178.504C213.899 178.216 214.179 177.827 214.366 177.336C214.553 176.84 214.646 176.285 214.646 175.672C214.646 175.064 214.553 174.515 214.366 174.024C214.185 173.533 213.902 173.144 213.518 172.856C213.139 172.568 212.657 172.424 212.07 172.424C211.51 172.424 211.046 172.563 210.678 172.84C210.31 173.112 210.035 173.493 209.854 173.984C209.673 174.469 209.582 175.032 209.582 175.672C209.582 176.301 209.67 176.864 209.846 177.36C210.027 177.851 210.305 178.237 210.678 178.52C211.051 178.797 211.529 178.936 212.11 178.936ZM221.88 180.24C221.069 180.24 220.386 180.04 219.832 179.64C219.277 179.235 218.856 178.688 218.568 178C218.285 177.307 218.144 176.531 218.144 175.672C218.144 174.803 218.285 174.024 218.568 173.336C218.856 172.648 219.277 172.107 219.832 171.712C220.392 171.317 221.077 171.12 221.888 171.12C222.688 171.12 223.376 171.32 223.952 171.72C224.533 172.115 224.978 172.656 225.288 173.344C225.597 174.032 225.752 174.808 225.752 175.672C225.752 176.536 225.597 177.312 225.288 178C224.978 178.688 224.533 179.235 223.952 179.64C223.376 180.04 222.685 180.24 221.88 180.24ZM217.904 183.84V171.36H219.176V177.72H219.336V183.84H217.904ZM221.704 178.936C222.274 178.936 222.746 178.792 223.12 178.504C223.493 178.216 223.773 177.827 223.96 177.336C224.146 176.84 224.24 176.285 224.24 175.672C224.24 175.064 224.146 174.515 223.96 174.024C223.778 173.533 223.496 173.144 223.112 172.856C222.733 172.568 222.25 172.424 221.664 172.424C221.104 172.424 220.64 172.563 220.272 172.84C219.904 173.112 219.629 173.493 219.448 173.984C219.266 174.469 219.176 175.032 219.176 175.672C219.176 176.301 219.264 176.864 219.44 177.36C219.621 177.851 219.898 178.237 220.272 178.52C220.645 178.797 221.122 178.936 221.704 178.936Z" fill="white"/>
    <path d="M532 174H322" stroke="white" stroke-width="2" stroke-linecap="square"/>
    <path d="M542 174L542.707 173.293L543.414 174L542.707 174.707L542 174ZM534.707 182.707L534 183.414L532.586 182L533.293 181.293L534.707 182.707ZM533.293 166.707L532.586 166L534 164.586L534.707 165.293L533.293 166.707ZM532 173L542 173L542 175L532 175L532 173ZM542.707 174.707L534.707 182.707L533.293 181.293L541.293 173.293L542.707 174.707ZM541.293 174.707L533.293 166.707L534.707 165.293L542.707 173.293L541.293 174.707Z" fill="white"/>
    <path d="M758 174H548" stroke="white" stroke-width="2" stroke-linecap="square"/>
    <path d="M768 174L768.707 173.293L769.414 174L768.707 174.707L768 174ZM760.707 182.707L760 183.414L758.586 182L759.293 181.293L760.707 182.707ZM759.293 166.707L758.586 166L760 164.586L760.707 165.293L759.293 166.707ZM758 173L768 173L768 175L758 175L758 173ZM768.707 174.707L760.707 182.707L759.293 181.293L767.293 173.293L768.707 174.707ZM767.293 174.707L759.293 166.707L760.707 165.293L768.707 173.293L767.293 174.707Z" fill="white"/>
    <defs>
        <filter id="filter0_i_6463_39277" x="95" y="79" width="290" height="54" filterUnits="userSpaceOnUse" color-interpolation-filters="sRGB">
            <feFlood flood-opacity="0" result="BackgroundImageFix"/>
            <feBlend mode="normal" in="SourceGraphic" in2="BackgroundImageFix" result="shape"/>
            <feColorMatrix in="SourceAlpha" type="matrix" values="0 0 0 0 0 0 0 0 0 0 0 0 0 0 0 0 0 0 127 0" result="hardAlpha"/>
            <feOffset dx="-8" dy="-4"/>
            <feComposite in2="hardAlpha" operator="arithmetic" k2="-1" k3="1"/>
            <feColorMatrix type="matrix" values="0 0 0 0 0.0666667 0 0 0 0 0.0196078 0 0 0 0 0.160784 0 0 0 0.16 0"/>
            <feBlend mode="normal" in2="shape" result="effect1_innerShadow_6463_39277"/>
        </filter>
        <filter id="filter1_i_6463_39277" x="383" y="79" width="32" height="54" filterUnits="userSpaceOnUse" color-interpolation-filters="sRGB">
            <feFlood flood-opacity="0" result="BackgroundImageFix"/>
            <feBlend mode="normal" in="SourceGraphic" in2="BackgroundImageFix" result="shape"/>
            <feColorMatrix in="SourceAlpha" type="matrix" values="0 0 0 0 0 0 0 0 0 0 0 0 0 0 0 0 0 0 127 0" result="hardAlpha"/>
            <feOffset dx="-8" dy="-4"/>
            <feComposite in2="hardAlpha" operator="arithmetic" k2="-1" k3="1"/>
            <feColorMatrix type="matrix" values="0 0 0 0 0.0666667 0 0 0 0 0.0196078 0 0 0 0 0.160784 0 0 0 0.16 0"/>
            <feBlend mode="normal" in2="shape" result="effect1_innerShadow_6463_39277"/>
        </filter>
        <filter id="filter2_i_6463_39277" x="449" y="79" width="32" height="54" filterUnits="userSpaceOnUse" color-interpolation-filters="sRGB">
            <feFlood flood-opacity="0" result="BackgroundImageFix"/>
            <feBlend mode="normal" in="SourceGraphic" in2="BackgroundImageFix" result="shape"/>
            <feColorMatrix in="SourceAlpha" type="matrix" values="0 0 0 0 0 0 0 0 0 0 0 0 0 0 0 0 0 0 127 0" result="hardAlpha"/>
            <feOffset dx="-8" dy="-4"/>
            <feComposite in2="hardAlpha" operator="arithmetic" k2="-1" k3="1"/>
            <feColorMatrix type="matrix" values="0 0 0 0 0.0666667 0 0 0 0 0.0196078 0 0 0 0 0.160784 0 0 0 0.16 0"/>
            <feBlend mode="normal" in2="shape" result="effect1_innerShadow_6463_39277"/>
        </filter>
        <filter id="filter3_i_6463_39277" x="413" y="79" width="38" height="54" filterUnits="userSpaceOnUse" color-interpolation-filters="sRGB">
            <feFlood flood-opacity="0" result="BackgroundImageFix"/>
            <feBlend mode="normal" in="SourceGraphic" in2="BackgroundImageFix" result="shape"/>
            <feColorMatrix in="SourceAlpha" type="matrix" values="0 0 0 0 0 0 0 0 0 0 0 0 0 0 0 0 0 0 127 0" result="hardAlpha"/>
            <feOffset dx="-8" dy="-4"/>
            <feComposite in2="hardAlpha" operator="arithmetic" k2="-1" k3="1"/>
            <feColorMatrix type="matrix" values="0 0 0 0 0.0666667 0 0 0 0 0.0196078 0 0 0 0 0.160784 0 0 0 0.16 0"/>
            <feBlend mode="normal" in2="shape" result="effect1_innerShadow_6463_39277"/>
        </filter>
        <filter id="filter4_i_6463_39277" x="479" y="79" width="122" height="54" filterUnits="userSpaceOnUse" color-interpolation-filters="sRGB">
            <feFlood flood-opacity="0" result="BackgroundImageFix"/>
            <feBlend mode="normal" in="SourceGraphic" in2="BackgroundImageFix" result="shape"/>
            <feColorMatrix in="SourceAlpha" type="matrix" values="0 0 0 0 0 0 0 0 0 0 0 0 0 0 0 0 0 0 127 0" result="hardAlpha"/>
            <feOffset dx="-8" dy="-4"/>
            <feComposite in2="hardAlpha" operator="arithmetic" k2="-1" k3="1"/>
            <feColorMatrix type="matrix" values="0 0 0 0 0.0666667 0 0 0 0 0.0196078 0 0 0 0 0.160784 0 0 0 0.16 0"/>
            <feBlend mode="normal" in2="shape" result="effect1_innerShadow_6463_39277"/>
        </filter>
        <filter id="filter5_i_6463_39277" x="599" y="79" width="282" height="54" filterUnits="userSpaceOnUse" color-interpolation-filters="sRGB">
            <feFlood flood-opacity="0" result="BackgroundImageFix"/>
            <feBlend mode="normal" in="SourceGraphic" in2="BackgroundImageFix" result="shape"/>
            <feColorMatrix in="SourceAlpha" type="matrix" values="0 0 0 0 0 0 0 0 0 0 0 0 0 0 0 0 0 0 127 0" result="hardAlpha"/>
            <feOffset dx="-8" dy="-4"/>
            <feComposite in2="hardAlpha" operator="arithmetic" k2="-1" k3="1"/>
            <feColorMatrix type="matrix" values="0 0 0 0 0.0666667 0 0 0 0 0.0196078 0 0 0 0 0.160784 0 0 0 0.16 0"/>
            <feBlend mode="normal" in2="shape" result="effect1_innerShadow_6463_39277"/>
        </filter>
        <filter id="filter6_i_6463_39277" x="95" y="331" width="290" height="54" filterUnits="userSpaceOnUse" color-interpolation-filters="sRGB">
            <feFlood flood-opacity="0" result="BackgroundImageFix"/>
            <feBlend mode="normal" in="SourceGraphic" in2="BackgroundImageFix" result="shape"/>
            <feColorMatrix in="SourceAlpha" type="matrix" values="0 0 0 0 0 0 0 0 0 0 0 0 0 0 0 0 0 0 127 0" result="hardAlpha"/>
            <feOffset dx="-8" dy="-4"/>
            <feComposite in2="hardAlpha" operator="arithmetic" k2="-1" k3="1"/>
            <feColorMatrix type="matrix" values="0 0 0 0 0.0666667 0 0 0 0 0.0196078 0 0 0 0 0.160784 0 0 0 0.16 0"/>
            <feBlend mode="normal" in2="shape" result="effect1_innerShadow_6463_39277"/>
        </filter>
        <filter id="filter7_i_6463_39277" x="383" y="331" width="32" height="54" filterUnits="userSpaceOnUse" color-interpolation-filters="sRGB">
            <feFlood flood-opacity="0" result="BackgroundImageFix"/>
            <feBlend mode="normal" in="SourceGraphic" in2="BackgroundImageFix" result="shape"/>
            <feColorMatrix in="SourceAlpha" type="matrix" values="0 0 0 0 0 0 0 0 0 0 0 0 0 0 0 0 0 0 127 0" result="hardAlpha"/>
            <feOffset dx="-8" dy="-4"/>
            <feComposite in2="hardAlpha" operator="arithmetic" k2="-1" k3="1"/>
            <feColorMatrix type="matrix" values="0 0 0 0 0.0666667 0 0 0 0 0.0196078 0 0 0 0 0.160784 0 0 0 0.16 0"/>
            <feBlend mode="normal" in2="shape" result="effect1_innerShadow_6463_39277"/>
        </filter>
        <filter id="filter8_i_6463_39277" x="449" y="331" width="32" height="54" filterUnits="userSpaceOnUse" color-interpolation-filters="sRGB">
            <feFlood flood-opacity="0" result="BackgroundImageFix"/>
            <feBlend mode="normal" in="SourceGraphic" in2="BackgroundImageFix" result="shape"/>
            <feColorMatrix in="SourceAlpha" type="matrix" values="0 0 0 0 0 0 0 0 0 0 0 0 0 0 0 0 0 0 127 0" result="hardAlpha"/>
            <feOffset dx="-8" dy="-4"/>
            <feComposite in2="hardAlpha" operator="arithmetic" k2="-1" k3="1"/>
            <feColorMatrix type="matrix" values="0 0 0 0 0.0666667 0 0 0 0 0.0196078 0 0 0 0 0.160784 0 0 0 0.16 0"/>
            <feBlend mode="normal" in2="shape" result="effect1_innerShadow_6463_39277"/>
        </filter>
        <filter id="filter9_i_6463_39277" x="413" y="331" width="38" height="54" filterUnits="userSpaceOnUse" color-interpolation-filters="sRGB">
            <feFlood flood-opacity="0" result="BackgroundImageFix"/>
            <feBlend mode="normal" in="SourceGraphic" in2="BackgroundImageFix" result="shape"/>
            <feColorMatrix in="SourceAlpha" type="matrix" values="0 0 0 0 0 0 0 0 0 0 0 0 0 0 0 0 0 0 127 0" result="hardAlpha"/>
            <feOffset dx="-8" dy="-4"/>
            <feComposite in2="hardAlpha" operator="arithmetic" k2="-1" k3="1"/>
            <feColorMatrix type="matrix" values="0 0 0 0 0.0666667 0 0 0 0 0.0196078 0 0 0 0 0.160784 0 0 0 0.16 0"/>
            <feBlend mode="normal" in2="shape" result="effect1_innerShadow_6463_39277"/>
        </filter>
        <filter id="filter10_i_6463_39277" x="479" y="331" width="122" height="54" filterUnits="userSpaceOnUse" color-interpolation-filters="sRGB">
            <feFlood flood-opacity="0" result="BackgroundImageFix"/>
            <feBlend mode="normal" in="SourceGraphic" in2="BackgroundImageFix" result="shape"/>
            <feColorMatrix in="SourceAlpha" type="matrix" values="0 0 0 0 0 0 0 0 0 0 0 0 0 0 0 0 0 0 127 0" result="hardAlpha"/>
            <feOffset dx="-8" dy="-4"/>
            <feComposite in2="hardAlpha" operator="arithmetic" k2="-1" k3="1"/>
            <feColorMatrix type="matrix" values="0 0 0 0 0.0666667 0 0 0 0 0.0196078 0 0 0 0 0.160784 0 0 0 0.16 0"/>
            <feBlend mode="normal" in2="shape" result="effect1_innerShadow_6463_39277"/>
        </filter>
        <filter id="filter11_i_6463_39277" x="599" y="331" width="282" height="54" filterUnits="userSpaceOnUse" color-interpolation-filters="sRGB">
            <feFlood flood-opacity="0" result="BackgroundImageFix"/>
            <feBlend mode="normal" in="SourceGraphic" in2="BackgroundImageFix" result="shape"/>
            <feColorMatrix in="SourceAlpha" type="matrix" values="0 0 0 0 0 0 0 0 0 0 0 0 0 0 0 0 0 0 127 0" result="hardAlpha"/>
            <feOffset dx="-8" dy="-4"/>
            <feComposite in2="hardAlpha" operator="arithmetic" k2="-1" k3="1"/>
            <feColorMatrix type="matrix" values="0 0 0 0 0.0666667 0 0 0 0 0.0196078 0 0 0 0 0.160784 0 0 0 0.16 0"/>
            <feBlend mode="normal" in2="shape" result="effect1_innerShadow_6463_39277"/>
        </filter>
        <filter id="filter12_i_6463_39277" x="95" y="231" width="290" height="54" filterUnits="userSpaceOnUse" color-interpolation-filters="sRGB">
            <feFlood flood-opacity="0" result="BackgroundImageFix"/>
            <feBlend mode="normal" in="SourceGraphic" in2="BackgroundImageFix" result="shape"/>
            <feColorMatrix in="SourceAlpha" type="matrix" values="0 0 0 0 0 0 0 0 0 0 0 0 0 0 0 0 0 0 127 0" result="hardAlpha"/>
            <feOffset dx="-8" dy="-4"/>
            <feComposite in2="hardAlpha" operator="arithmetic" k2="-1" k3="1"/>
            <feColorMatrix type="matrix" values="0 0 0 0 0.0666667 0 0 0 0 0.0196078 0 0 0 0 0.160784 0 0 0 0.16 0"/>
            <feBlend mode="normal" in2="shape" result="effect1_innerShadow_6463_39277"/>
        </filter>
        <filter id="filter13_i_6463_39277" x="383" y="231" width="32" height="54" filterUnits="userSpaceOnUse" color-interpolation-filters="sRGB">
            <feFlood flood-opacity="0" result="BackgroundImageFix"/>
            <feBlend mode="normal" in="SourceGraphic" in2="BackgroundImageFix" result="shape"/>
            <feColorMatrix in="SourceAlpha" type="matrix" values="0 0 0 0 0 0 0 0 0 0 0 0 0 0 0 0 0 0 127 0" result="hardAlpha"/>
            <feOffset dx="-8" dy="-4"/>
            <feComposite in2="hardAlpha" operator="arithmetic" k2="-1" k3="1"/>
            <feColorMatrix type="matrix" values="0 0 0 0 0.0666667 0 0 0 0 0.0196078 0 0 0 0 0.160784 0 0 0 0.16 0"/>
            <feBlend mode="normal" in2="shape" result="effect1_innerShadow_6463_39277"/>
        </filter>
        <filter id="filter14_i_6463_39277" x="413" y="231" width="122" height="54" filterUnits="userSpaceOnUse" color-interpolation-filters="sRGB">
            <feFlood flood-opacity="0" result="BackgroundImageFix"/>
            <feBlend mode="normal" in="SourceGraphic" in2="BackgroundImageFix" result="shape"/>
            <feColorMatrix in="SourceAlpha" type="matrix" values="0 0 0 0 0 0 0 0 0 0 0 0 0 0 0 0 0 0 127 0" result="hardAlpha"/>
            <feOffset dx="-8" dy="-4"/>
            <feComposite in2="hardAlpha" operator="arithmetic" k2="-1" k3="1"/>
            <feColorMatrix type="matrix" values="0 0 0 0 0.0666667 0 0 0 0 0.0196078 0 0 0 0 0.160784 0 0 0 0.16 0"/>
            <feBlend mode="normal" in2="shape" result="effect1_innerShadow_6463_39277"/>
        </filter>
        <filter id="filter15_i_6463_39277" x="533" y="231" width="282" height="54" filterUnits="userSpaceOnUse" color-interpolation-filters="sRGB">
            <feFlood flood-opacity="0" result="BackgroundImageFix"/>
            <feBlend mode="normal" in="SourceGraphic" in2="BackgroundImageFix" result="shape"/>
            <feColorMatrix in="SourceAlpha" type="matrix" values="0 0 0 0 0 0 0 0 0 0 0 0 0 0 0 0 0 0 127 0" result="hardAlpha"/>
            <feOffset dx="-8" dy="-4"/>
            <feComposite in2="hardAlpha" operator="arithmetic" k2="-1" k3="1"/>
            <feColorMatrix type="matrix" values="0 0 0 0 0.0666667 0 0 0 0 0.0196078 0 0 0 0 0.160784 0 0 0 0.16 0"/>
            <feBlend mode="normal" in2="shape" result="effect1_innerShadow_6463_39277"/>
        </filter>
        <filter id="filter16_i_6463_39277" x="95" y="431" width="290" height="54" filterUnits="userSpaceOnUse" color-interpolation-filters="sRGB">
            <feFlood flood-opacity="0" result="BackgroundImageFix"/>
            <feBlend mode="normal" in="SourceGraphic" in2="BackgroundImageFix" result="shape"/>
            <feColorMatrix in="SourceAlpha" type="matrix" values="0 0 0 0 0 0 0 0 0 0 0 0 0 0 0 0 0 0 127 0" result="hardAlpha"/>
            <feOffset dx="-8" dy="-4"/>
            <feComposite in2="hardAlpha" operator="arithmetic" k2="-1" k3="1"/>
            <feColorMatrix type="matrix" values="0 0 0 0 0.0666667 0 0 0 0 0.0196078 0 0 0 0 0.160784 0 0 0 0.16 0"/>
            <feBlend mode="normal" in2="shape" result="effect1_innerShadow_6463_39277"/>
        </filter>
        <filter id="filter17_i_6463_39277" x="383" y="431" width="32" height="54" filterUnits="userSpaceOnUse" color-interpolation-filters="sRGB">
            <feFlood flood-opacity="0" result="BackgroundImageFix"/>
            <feBlend mode="normal" in="SourceGraphic" in2="BackgroundImageFix" result="shape"/>
            <feColorMatrix in="SourceAlpha" type="matrix" values="0 0 0 0 0 0 0 0 0 0 0 0 0 0 0 0 0 0 127 0" result="hardAlpha"/>
            <feOffset dx="-8" dy="-4"/>
            <feComposite in2="hardAlpha" operator="arithmetic" k2="-1" k3="1"/>
            <feColorMatrix type="matrix" values="0 0 0 0 0.0666667 0 0 0 0 0.0196078 0 0 0 0 0.160784 0 0 0 0.16 0"/>
            <feBlend mode="normal" in2="shape" result="effect1_innerShadow_6463_39277"/>
        </filter>
        <filter id="filter18_i_6463_39277" x="413" y="431" width="122" height="54" filterUnits="userSpaceOnUse" color-interpolation-filters="sRGB">
            <feFlood flood-opacity="0" result="BackgroundImageFix"/>
            <feBlend mode="normal" in="SourceGraphic" in2="BackgroundImageFix" result="shape"/>
            <feColorMatrix in="SourceAlpha" type="matrix" values="0 0 0 0 0 0 0 0 0 0 0 0 0 0 0 0 0 0 127 0" result="hardAlpha"/>
            <feOffset dx="-8" dy="-4"/>
            <feComposite in2="hardAlpha" operator="arithmetic" k2="-1" k3="1"/>
            <feColorMatrix type="matrix" values="0 0 0 0 0.0666667 0 0 0 0 0.0196078 0 0 0 0 0.160784 0 0 0 0.16 0"/>
            <feBlend mode="normal" in2="shape" result="effect1_innerShadow_6463_39277"/>
        </filter>
        <filter id="filter19_i_6463_39277" x="533" y="431" width="282" height="54" filterUnits="userSpaceOnUse" color-interpolation-filters="sRGB">
            <feFlood flood-opacity="0" result="BackgroundImageFix"/>
            <feBlend mode="normal" in="SourceGraphic" in2="BackgroundImageFix" result="shape"/>
            <feColorMatrix in="SourceAlpha" type="matrix" values="0 0 0 0 0 0 0 0 0 0 0 0 0 0 0 0 0 0 127 0" result="hardAlpha"/>
            <feOffset dx="-8" dy="-4"/>
            <feComposite in2="hardAlpha" operator="arithmetic" k2="-1" k3="1"/>
            <feColorMatrix type="matrix" values="0 0 0 0 0.0666667 0 0 0 0 0.0196078 0 0 0 0 0.160784 0 0 0 0.16 0"/>
            <feBlend mode="normal" in2="shape" result="effect1_innerShadow_6463_39277"/>
        </filter>
    </defs>
</svg>
