<svg width="960" height="342" viewBox="0 0 960 342" fill="none" xmlns="http://www.w3.org/2000/svg">
    <rect width="960" height="342" fill="#1D1D29"/>
    <path d="M671 92V136" stroke="#ADC3FF" stroke-width="2"/>
    <path d="M303 92V136" stroke="#ADC3FF" stroke-width="2"/>
    <path d="M83 92V136" stroke="#ADC3FF" stroke-width="2"/>
    <path d="M147 186V230" stroke="#99E099" stroke-width="2"/>
    <path d="M441 186V230" stroke="#99E099" stroke-width="2"/>
    <path d="M608 186V230" stroke="#99E099" stroke-width="2"/>
    <path d="M790 186V230" stroke="#99E099" stroke-width="2"/>
    <path d="M516 92V136" stroke="#ADC3FF" stroke-width="2"/>
    <rect x="74" y="136" width="18" height="52" fill="#D6E0FF" stroke="#ADC3FF" stroke-width="2"/>
    <rect x="92" y="136" width="110" height="52" fill="#D0F0C0" stroke="#99E099" stroke-width="2"/>
    <rect x="202" y="136" width="202" height="52" fill="#D6E0FF" stroke="#ADC3FF" stroke-width="2"/>
    <rect x="404" y="136" width="74" height="52" fill="#D0F0C0" stroke="#99E099" stroke-width="2"/>
    <rect x="478" y="136" width="76" height="52" fill="#D6E0FF" stroke="#ADC3FF" stroke-width="2"/>
    <rect x="554" y="136" width="108" height="52" fill="#D0F0C0" stroke="#99E099" stroke-width="2"/>
    <rect x="662" y="136" width="18" height="52" fill="#D6E0FF" stroke="#ADC3FF" stroke-width="2"/>
    <rect x="680" y="136" width="220" height="52" fill="#D0F0C0" stroke="#99E099" stroke-width="2"/>
    <path d="M90.3943 160.28H87.6343L83.5543 152.9H83.1943L79.1143 160.28H76.3543L81.0943 152H85.6543L90.3943 160.28ZM105.853 171.92H106.213V152H108.733V173H103.693L97.6335 153.08H97.2735V173H94.7535V152H99.7935L105.853 171.92ZM119.273 149.66C119.273 148.98 119.483 148.42 119.903 147.98C120.343 147.54 120.903 147.32 121.583 147.32H124.493V149.48H122.423C121.883 149.48 121.613 149.78 121.613 150.38V159.98C121.613 160.66 121.393 161.22 120.953 161.66C120.533 162.1 119.973 162.32 119.273 162.32H118.913V162.68H119.273C119.973 162.68 120.533 162.9 120.953 163.34C121.393 163.78 121.613 164.34 121.613 165.02V174.62C121.613 175.22 121.883 175.52 122.423 175.52H124.493V177.68H121.583C120.903 177.68 120.343 177.46 119.903 177.02C119.483 176.58 119.273 176.02 119.273 175.34V164.99C119.273 164.41 119.003 164.12 118.463 164.12H116.933V160.88H118.463C119.003 160.88 119.273 160.59 119.273 160.01V149.66ZM131.102 160.16C131.102 157.44 131.752 155.33 133.052 153.83C134.352 152.33 136.162 151.58 138.482 151.58C140.802 151.58 142.612 152.33 143.912 153.83C145.212 155.33 145.862 157.44 145.862 160.16V164.84C145.862 167.64 145.212 169.77 143.912 171.23C142.612 172.69 140.802 173.42 138.482 173.42C136.162 173.42 134.352 172.69 133.052 171.23C131.752 169.77 131.102 167.64 131.102 164.84V160.16ZM138.482 171.14C140.102 171.14 141.312 170.58 142.112 169.46C142.932 168.32 143.342 166.72 143.342 164.66V160.34C143.342 159.38 143.242 158.51 143.042 157.73C142.842 156.93 142.532 156.25 142.112 155.69C141.712 155.11 141.202 154.66 140.582 154.34C139.982 154.02 139.282 153.86 138.482 153.86C137.662 153.86 136.952 154.02 136.352 154.34C135.752 154.66 135.242 155.11 134.822 155.69C134.422 156.25 134.122 156.93 133.922 157.73C133.722 158.51 133.622 159.38 133.622 160.34V164.66C133.622 166.72 134.022 168.32 134.822 169.46C135.642 170.58 136.862 171.14 138.482 171.14ZM136.562 162.5C136.562 161.98 136.752 161.53 137.132 161.15C137.512 160.77 137.962 160.58 138.482 160.58C139.002 160.58 139.452 160.77 139.832 161.15C140.212 161.53 140.402 161.98 140.402 162.5C140.402 163.02 140.212 163.47 139.832 163.85C139.452 164.23 139.002 164.42 138.482 164.42C137.962 164.42 137.512 164.23 137.132 163.85C136.752 163.47 136.562 163.02 136.562 162.5ZM154.751 171.32C154.751 170.74 154.951 170.25 155.351 169.85C155.771 169.43 156.271 169.22 156.851 169.22C157.431 169.22 157.921 169.43 158.321 169.85C158.741 170.25 158.951 170.74 158.951 171.32C158.951 171.9 158.741 172.4 158.321 172.82C157.921 173.22 157.431 173.42 156.851 173.42C156.271 173.42 155.771 173.22 155.351 172.82C154.951 172.4 154.751 171.9 154.751 171.32ZM154.751 159.8C154.751 159.22 154.951 158.73 155.351 158.33C155.771 157.91 156.271 157.7 156.851 157.7C157.431 157.7 157.921 157.91 158.321 158.33C158.741 158.73 158.951 159.22 158.951 159.8C158.951 160.38 158.741 160.88 158.321 161.3C157.921 161.7 157.431 161.9 156.851 161.9C156.271 161.9 155.771 161.7 155.351 161.3C154.951 160.88 154.751 160.38 154.751 159.8ZM173.15 162.56V159.08L179.99 154.7V154.34H168.11V152H182.15V155.84L175.31 160.22V160.58H176.51C177.31 160.58 178.08 160.71 178.82 160.97C179.56 161.23 180.21 161.61 180.77 162.11C181.35 162.61 181.81 163.23 182.15 163.97C182.51 164.69 182.69 165.53 182.69 166.49V167.03C182.69 167.93 182.51 168.77 182.15 169.55C181.79 170.33 181.29 171.01 180.65 171.59C180.01 172.15 179.25 172.6 178.37 172.94C177.51 173.26 176.57 173.42 175.55 173.42C174.37 173.42 173.31 173.24 172.37 172.88C171.43 172.52 170.63 172.03 169.97 171.41C169.31 170.77 168.8 170.03 168.44 169.19C168.1 168.33 167.93 167.42 167.93 166.46V164.84H170.45V166.28C170.45 167.04 170.57 167.72 170.81 168.32C171.07 168.9 171.42 169.4 171.86 169.82C172.32 170.22 172.86 170.53 173.48 170.75C174.1 170.97 174.77 171.08 175.49 171.08C176.15 171.08 176.76 170.97 177.32 170.75C177.9 170.53 178.4 170.23 178.82 169.85C179.24 169.45 179.57 168.99 179.81 168.47C180.05 167.93 180.17 167.36 180.17 166.76V166.58C180.17 165.32 179.77 164.34 178.97 163.64C178.17 162.92 177.17 162.56 175.97 162.56H173.15ZM194.429 160.01C194.429 160.59 194.699 160.88 195.239 160.88H196.769V164.12H195.239C194.699 164.12 194.429 164.41 194.429 164.99V175.34C194.429 176.02 194.209 176.58 193.769 177.02C193.349 177.46 192.799 177.68 192.119 177.68H189.209V175.52H191.279C191.819 175.52 192.089 175.22 192.089 174.62V165.02C192.089 164.34 192.299 163.78 192.719 163.34C193.159 162.9 193.729 162.68 194.429 162.68H194.789V162.32H194.429C193.729 162.32 193.159 162.1 192.719 161.66C192.299 161.22 192.089 160.66 192.089 159.98V150.38C192.089 149.78 191.819 149.48 191.279 149.48H189.209V147.32H192.119C192.799 147.32 193.349 147.54 193.769 147.98C194.209 148.42 194.429 148.98 194.429 149.66V160.01ZM219.158 175.46V177.68H218.078C216.678 177.68 215.338 177.42 214.058 176.9C212.778 176.38 211.648 175.62 210.668 174.62C209.688 173.64 208.908 172.45 208.328 171.05C207.748 169.65 207.458 168.06 207.458 166.28V158.72C207.458 156.96 207.748 155.38 208.328 153.98C208.908 152.56 209.688 151.36 210.668 150.38C211.648 149.38 212.778 148.62 214.058 148.1C215.338 147.58 216.678 147.32 218.078 147.32H219.158V149.54H218.078C216.998 149.54 215.958 149.76 214.958 150.2C213.958 150.62 213.078 151.23 212.318 152.03C211.558 152.83 210.948 153.81 210.488 154.97C210.028 156.11 209.798 157.4 209.798 158.84V166.16C209.798 167.6 210.028 168.9 210.488 170.06C210.948 171.2 211.558 172.17 212.318 172.97C213.078 173.77 213.958 174.38 214.958 174.8C215.958 175.24 216.998 175.46 218.078 175.46H219.158ZM225.647 152V165.92C225.647 167.62 226.037 168.91 226.817 169.79C227.617 170.65 228.787 171.08 230.327 171.08C231.867 171.08 233.027 170.65 233.807 169.79C234.607 168.91 235.007 167.62 235.007 165.92V152H237.527V165.92C237.527 168.36 236.887 170.22 235.607 171.5C234.327 172.78 232.567 173.42 230.327 173.42C228.087 173.42 226.327 172.78 225.047 171.5C223.767 170.22 223.127 168.36 223.127 165.92V152H225.647ZM240.897 152H245.697L248.517 171.92H248.877L251.697 152H256.497V173H254.157V153.08H253.797L250.977 173H246.417L243.597 153.08H243.237V173H240.897V152ZM260.406 152H273.726V154.34H268.326V170.66H273.726V173H260.406V170.66H265.806V154.34H260.406V152ZM283.335 171.32C283.335 170.74 283.535 170.25 283.935 169.85C284.355 169.43 284.855 169.22 285.435 169.22C286.015 169.22 286.505 169.43 286.905 169.85C287.325 170.25 287.535 170.74 287.535 171.32C287.535 171.9 287.325 172.4 286.905 172.82C286.505 173.22 286.015 173.42 285.435 173.42C284.855 173.42 284.355 173.22 283.935 172.82C283.535 172.4 283.335 171.9 283.335 171.32ZM283.335 159.8C283.335 159.22 283.535 158.73 283.935 158.33C284.355 157.91 284.855 157.7 285.435 157.7C286.015 157.7 286.505 157.91 286.905 158.33C287.325 158.73 287.535 159.22 287.535 159.8C287.535 160.38 287.325 160.88 286.905 161.3C286.505 161.7 286.015 161.9 285.435 161.9C284.855 161.9 284.355 161.7 283.935 161.3C283.535 160.88 283.335 160.38 283.335 159.8ZM307.914 171.92H308.274V152H310.794V173H305.754L299.694 153.08H299.334V173H296.814V152H301.854L307.914 171.92ZM321.333 149.66C321.333 148.98 321.543 148.42 321.963 147.98C322.403 147.54 322.963 147.32 323.643 147.32H326.553V149.48H324.483C323.943 149.48 323.673 149.78 323.673 150.38V159.98C323.673 160.66 323.453 161.22 323.013 161.66C322.593 162.1 322.033 162.32 321.333 162.32H320.973V162.68H321.333C322.033 162.68 322.593 162.9 323.013 163.34C323.453 163.78 323.673 164.34 323.673 165.02V174.62C323.673 175.22 323.943 175.52 324.483 175.52H326.553V177.68H323.643C322.963 177.68 322.403 177.46 321.963 177.02C321.543 176.58 321.333 176.02 321.333 175.34V164.99C321.333 164.41 321.063 164.12 320.523 164.12H318.993V160.88H320.523C321.063 160.88 321.333 160.59 321.333 160.01V149.66ZM339.432 170.66V153.11H339.072L335.622 161H333.132V160.82L337.062 152H341.952V170.66H347.892V173H333.492V170.66H339.432ZM366.051 170.66V173H351.831V169.4C351.831 168.44 351.991 167.61 352.311 166.91C352.631 166.19 353.081 165.58 353.661 165.08C354.261 164.56 354.981 164.13 355.821 163.79C356.661 163.45 357.611 163.16 358.671 162.92C360.451 162.52 361.731 161.95 362.511 161.21C363.311 160.47 363.711 159.56 363.711 158.48V158.3C363.711 157.76 363.621 157.23 363.441 156.71C363.261 156.19 362.981 155.72 362.601 155.3C362.221 154.88 361.731 154.55 361.131 154.31C360.551 154.05 359.851 153.92 359.031 153.92C357.491 153.92 356.291 154.39 355.431 155.33C354.591 156.27 354.171 157.52 354.171 159.08V160.4H351.651V158.9C351.651 157.94 351.811 157.02 352.131 156.14C352.451 155.26 352.921 154.48 353.541 153.8C354.161 153.12 354.931 152.58 355.851 152.18C356.771 151.78 357.831 151.58 359.031 151.58C360.251 151.58 361.311 151.77 362.211 152.15C363.111 152.51 363.861 153 364.461 153.62C365.061 154.22 365.501 154.91 365.781 155.69C366.081 156.45 366.231 157.23 366.231 158.03V158.57C366.231 160.17 365.731 161.54 364.731 162.68C363.731 163.8 362.131 164.6 359.931 165.08C358.011 165.5 356.601 166.06 355.701 166.76C354.801 167.44 354.351 168.44 354.351 169.76V170.66H366.051ZM378.121 160.01C378.121 160.59 378.391 160.88 378.931 160.88H380.461V164.12H378.931C378.391 164.12 378.121 164.41 378.121 164.99V175.34C378.121 176.02 377.901 176.58 377.461 177.02C377.041 177.46 376.491 177.68 375.811 177.68H372.901V175.52H374.971C375.511 175.52 375.781 175.22 375.781 174.62V165.02C375.781 164.34 375.991 163.78 376.411 163.34C376.851 162.9 377.421 162.68 378.121 162.68H378.481V162.32H378.121C377.421 162.32 376.851 162.1 376.411 161.66C375.991 161.22 375.781 160.66 375.781 159.98V150.38C375.781 149.78 375.511 149.48 374.971 149.48H372.901V147.32H375.811C376.491 147.32 377.041 147.54 377.461 147.98C377.901 148.42 378.121 148.98 378.121 149.66V160.01ZM389.53 175.46C390.61 175.46 391.65 175.24 392.65 174.8C393.65 174.38 394.53 173.77 395.29 172.97C396.05 172.17 396.66 171.2 397.12 170.06C397.58 168.9 397.81 167.6 397.81 166.16V158.84C397.81 157.4 397.58 156.11 397.12 154.97C396.66 153.81 396.05 152.83 395.29 152.03C394.53 151.23 393.65 150.62 392.65 150.2C391.65 149.76 390.61 149.54 389.53 149.54H388.45V147.32H389.53C390.93 147.32 392.27 147.58 393.55 148.1C394.83 148.62 395.96 149.38 396.94 150.38C397.92 151.36 398.7 152.56 399.28 153.98C399.86 155.38 400.15 156.96 400.15 158.72V166.28C400.15 168.06 399.86 169.65 399.28 171.05C398.7 172.45 397.92 173.64 396.94 174.62C395.96 175.62 394.83 176.38 393.55 176.9C392.27 177.42 390.93 177.68 389.53 177.68H388.45V175.46H389.53ZM418.249 170.48H417.889C417.409 171.48 416.739 172.22 415.879 172.7C415.039 173.18 414.149 173.42 413.209 173.42C412.229 173.42 411.319 173.26 410.479 172.94C409.639 172.6 408.899 172.11 408.259 171.47C407.639 170.81 407.149 170.01 406.789 169.07C406.429 168.13 406.249 167.04 406.249 165.8V165.32C406.249 164.1 406.429 163.02 406.789 162.08C407.149 161.14 407.639 160.35 408.259 159.71C408.899 159.05 409.639 158.55 410.479 158.21C411.319 157.87 412.209 157.7 413.149 157.7C414.169 157.7 415.089 157.93 415.909 158.39C416.749 158.83 417.409 159.52 417.889 160.46H418.249V158.12H420.589V169.94C420.589 170.54 420.859 170.84 421.399 170.84H422.149V173H420.559C419.879 173 419.319 172.78 418.879 172.34C418.459 171.9 418.249 171.34 418.249 170.66V170.48ZM413.449 171.2C414.149 171.2 414.789 171.07 415.369 170.81C415.969 170.55 416.479 170.18 416.899 169.7C417.319 169.22 417.649 168.65 417.889 167.99C418.129 167.31 418.249 166.56 418.249 165.74V165.38C418.249 164.58 418.129 163.85 417.889 163.19C417.649 162.51 417.309 161.93 416.869 161.45C416.449 160.97 415.939 160.6 415.339 160.34C414.759 160.06 414.129 159.92 413.449 159.92C412.749 159.92 412.109 160.05 411.529 160.31C410.949 160.57 410.439 160.94 409.999 161.42C409.579 161.88 409.249 162.45 409.009 163.13C408.769 163.79 408.649 164.52 408.649 165.32V165.8C408.649 167.5 409.089 168.83 409.969 169.79C410.869 170.73 412.029 171.2 413.449 171.2ZM425.308 158.12H429.988V152H432.328V158.12H438.088V160.28H432.328V169.94C432.328 170.54 432.598 170.84 433.138 170.84H437.368V173H432.298C431.618 173 431.058 172.78 430.618 172.34C430.198 171.9 429.988 171.34 429.988 170.66V160.28H425.308V158.12ZM443.677 158.12H448.357V152H450.697V158.12H456.457V160.28H450.697V169.94C450.697 170.54 450.967 170.84 451.507 170.84H455.737V173H450.667C449.987 173 449.427 172.78 448.987 172.34C448.567 171.9 448.357 171.34 448.357 170.66V160.28H443.677V158.12ZM476.476 167.72C476.316 168.54 476.036 169.3 475.636 170C475.256 170.7 474.766 171.31 474.166 171.83C473.566 172.33 472.866 172.72 472.066 173C471.266 173.28 470.376 173.42 469.396 173.42C468.356 173.42 467.366 173.25 466.426 172.91C465.506 172.57 464.696 172.08 463.996 171.44C463.296 170.78 462.736 169.98 462.316 169.04C461.916 168.1 461.716 167.02 461.716 165.8V165.44C461.716 164.24 461.916 163.16 462.316 162.2C462.736 161.24 463.296 160.43 463.996 159.77C464.696 159.11 465.506 158.6 466.426 158.24C467.366 157.88 468.356 157.7 469.396 157.7C470.336 157.7 471.206 157.84 472.006 158.12C472.806 158.4 473.506 158.8 474.106 159.32C474.726 159.82 475.226 160.42 475.606 161.12C476.006 161.82 476.276 162.58 476.416 163.4L474.076 163.94C474.016 163.42 473.866 162.92 473.626 162.44C473.406 161.94 473.096 161.51 472.696 161.15C472.316 160.77 471.846 160.47 471.286 160.25C470.726 160.03 470.076 159.92 469.336 159.92C468.616 159.92 467.936 160.06 467.296 160.34C466.676 160.6 466.126 160.98 465.646 161.48C465.166 161.96 464.786 162.54 464.506 163.22C464.246 163.9 464.116 164.64 464.116 165.44V165.8C464.116 166.64 464.246 167.4 464.506 168.08C464.786 168.74 465.166 169.3 465.646 169.76C466.126 170.22 466.686 170.58 467.326 170.84C467.966 171.08 468.656 171.2 469.396 171.2C470.136 171.2 470.776 171.09 471.316 170.87C471.876 170.63 472.346 170.33 472.726 169.97C473.126 169.59 473.436 169.16 473.656 168.68C473.896 168.2 474.056 167.7 474.136 167.18L476.476 167.72ZM485.485 162.92H494.845V173H492.505V170.48H492.145C491.805 171.36 491.205 172.07 490.345 172.61C489.485 173.15 488.485 173.42 487.345 173.42C485.085 173.42 483.305 172.69 482.005 171.23C480.725 169.77 480.085 167.64 480.085 164.84V160.16C480.085 157.44 480.735 155.33 482.035 153.83C483.335 152.33 485.145 151.58 487.465 151.58C488.665 151.58 489.725 151.78 490.645 152.18C491.565 152.56 492.335 153.1 492.955 153.8C493.575 154.48 494.045 155.29 494.365 156.23C494.685 157.15 494.845 158.14 494.845 159.2V159.56H492.325V159.2C492.325 158.52 492.225 157.86 492.025 157.22C491.845 156.58 491.555 156.02 491.155 155.54C490.775 155.04 490.275 154.65 489.655 154.37C489.055 154.07 488.325 153.92 487.465 153.92C485.845 153.92 484.625 154.51 483.805 155.69C483.005 156.87 482.605 158.42 482.605 160.34V164.66C482.605 166.72 483.005 168.31 483.805 169.43C484.625 170.53 485.865 171.08 487.525 171.08C489.025 171.08 490.195 170.6 491.035 169.64C491.895 168.68 492.325 167.34 492.325 165.62V165.26H485.485V162.92ZM505.985 171.08C506.845 171.08 507.575 170.94 508.175 170.66C508.795 170.36 509.295 169.97 509.675 169.49C510.075 168.99 510.365 168.43 510.545 167.81C510.745 167.17 510.845 166.5 510.845 165.8V165.44H513.365V165.8C513.365 166.86 513.205 167.86 512.885 168.8C512.565 169.72 512.095 170.53 511.475 171.23C510.855 171.91 510.085 172.45 509.165 172.85C508.245 173.23 507.185 173.42 505.985 173.42C503.665 173.42 501.855 172.69 500.555 171.23C499.255 169.77 498.605 167.64 498.605 164.84V160.16C498.605 157.44 499.255 155.33 500.555 153.83C501.855 152.33 503.665 151.58 505.985 151.58C507.185 151.58 508.245 151.78 509.165 152.18C510.085 152.56 510.855 153.1 511.475 153.8C512.095 154.48 512.565 155.29 512.885 156.23C513.205 157.15 513.365 158.14 513.365 159.2V159.56H510.845V159.2C510.825 158.52 510.715 157.86 510.515 157.22C510.335 156.58 510.045 156.02 509.645 155.54C509.265 155.04 508.775 154.65 508.175 154.37C507.575 154.07 506.845 153.92 505.985 153.92C504.365 153.92 503.145 154.51 502.325 155.69C501.525 156.87 501.125 158.42 501.125 160.34V164.66C501.125 166.72 501.525 168.31 502.325 169.43C503.145 170.53 504.365 171.08 505.985 171.08ZM524.354 171.08C525.214 171.08 525.944 170.94 526.544 170.66C527.164 170.36 527.664 169.97 528.044 169.49C528.444 168.99 528.734 168.43 528.914 167.81C529.114 167.17 529.214 166.5 529.214 165.8V165.44H531.734V165.8C531.734 166.86 531.574 167.86 531.254 168.8C530.934 169.72 530.464 170.53 529.844 171.23C529.224 171.91 528.454 172.45 527.534 172.85C526.614 173.23 525.554 173.42 524.354 173.42C522.034 173.42 520.224 172.69 518.924 171.23C517.624 169.77 516.974 167.64 516.974 164.84V160.16C516.974 157.44 517.624 155.33 518.924 153.83C520.224 152.33 522.034 151.58 524.354 151.58C525.554 151.58 526.614 151.78 527.534 152.18C528.454 152.56 529.224 153.1 529.844 153.8C530.464 154.48 530.934 155.29 531.254 156.23C531.574 157.15 531.734 158.14 531.734 159.2V159.56H529.214V159.2C529.194 158.52 529.084 157.86 528.884 157.22C528.704 156.58 528.414 156.02 528.014 155.54C527.634 155.04 527.144 154.65 526.544 154.37C525.944 154.07 525.214 153.92 524.354 153.92C522.734 153.92 521.514 154.51 520.694 155.69C519.894 156.87 519.494 158.42 519.494 160.34V164.66C519.494 166.72 519.894 168.31 520.694 169.43C521.514 170.53 522.734 171.08 524.354 171.08ZM547.103 167.78H538.103L536.573 173H533.873L540.233 152H544.973L551.333 173H548.633L547.103 167.78ZM542.423 153.08L538.793 165.44H546.413L542.783 153.08H542.423ZM568.172 175.46V177.68H567.092C565.692 177.68 564.352 177.42 563.072 176.9C561.792 176.38 560.662 175.62 559.682 174.62C558.702 173.64 557.922 172.45 557.342 171.05C556.762 169.65 556.472 168.06 556.472 166.28V158.72C556.472 156.96 556.762 155.38 557.342 153.98C557.922 152.56 558.702 151.36 559.682 150.38C560.662 149.38 561.792 148.62 563.072 148.1C564.352 147.58 565.692 147.32 567.092 147.32H568.172V149.54H567.092C566.012 149.54 564.972 149.76 563.972 150.2C562.972 150.62 562.092 151.23 561.332 152.03C560.572 152.83 559.962 153.81 559.502 154.97C559.042 156.11 558.812 157.4 558.812 158.84V166.16C558.812 167.6 559.042 168.9 559.502 170.06C559.962 171.2 560.572 172.17 561.332 172.97C562.092 173.77 562.972 174.38 563.972 174.8C564.972 175.24 566.012 175.46 567.092 175.46H568.172ZM585.911 173H583.391V165.98C583.391 165.46 583.271 165.06 583.031 164.78C582.791 164.5 582.371 164.36 581.771 164.36H575.231V173H572.711V152H580.211C581.291 152 582.231 152.16 583.031 152.48C583.831 152.78 584.491 153.19 585.011 153.71C585.551 154.23 585.951 154.84 586.211 155.54C586.491 156.22 586.631 156.94 586.631 157.7V158.6C586.631 159.38 586.411 160.16 585.971 160.94C585.551 161.72 584.891 162.32 583.991 162.74V163.1C584.591 163.2 585.061 163.44 585.401 163.82C585.741 164.2 585.911 164.74 585.911 165.44V173ZM575.231 162.02H579.911C581.331 162.02 582.381 161.72 583.061 161.12C583.761 160.5 584.111 159.6 584.111 158.42V157.88C584.111 156.82 583.761 155.97 583.061 155.33C582.381 154.67 581.331 154.34 579.911 154.34H575.231V162.02ZM596.6 170.66V153.11H596.24L592.79 161H590.3V160.82L594.23 152H599.12V170.66H605.06V173H590.66V170.66H596.6ZM613.979 171.32C613.979 170.74 614.179 170.25 614.579 169.85C614.999 169.43 615.499 169.22 616.079 169.22C616.659 169.22 617.149 169.43 617.549 169.85C617.969 170.25 618.179 170.74 618.179 171.32C618.179 171.9 617.969 172.4 617.549 172.82C617.149 173.22 616.659 173.42 616.079 173.42C615.499 173.42 614.999 173.22 614.579 172.82C614.179 172.4 613.979 171.9 613.979 171.32ZM613.979 159.8C613.979 159.22 614.179 158.73 614.579 158.33C614.999 157.91 615.499 157.7 616.079 157.7C616.659 157.7 617.149 157.91 617.549 158.33C617.969 158.73 618.179 159.22 618.179 159.8C618.179 160.38 617.969 160.88 617.549 161.3C617.149 161.7 616.659 161.9 616.079 161.9C615.499 161.9 614.999 161.7 614.579 161.3C614.179 160.88 613.979 160.38 613.979 159.8ZM640.479 158L637.839 160.64L636.339 161.48L636.489 161.84L637.839 161.42H641.889V163.58H637.839L636.489 163.16L636.339 163.52L637.839 164.36L640.479 167L638.949 168.53L636.309 165.89L635.469 164.39L635.109 164.54L635.529 165.89V169.94H633.369V165.89L633.789 164.54L633.429 164.39L632.589 165.89L629.949 168.53L628.419 167L631.059 164.36L632.559 163.52L632.409 163.16L631.059 163.58H627.009V161.42H631.059L632.409 161.84L632.559 161.48L631.059 160.64L628.419 158L629.949 156.47L632.589 159.11L633.429 160.61L633.789 160.46L633.369 159.11V155.06H635.529V159.11L635.109 160.46L635.469 160.61L636.309 159.11L638.949 156.47L640.479 158ZM646.698 175.46C647.778 175.46 648.818 175.24 649.818 174.8C650.818 174.38 651.698 173.77 652.458 172.97C653.218 172.17 653.828 171.2 654.288 170.06C654.748 168.9 654.978 167.6 654.978 166.16V158.84C654.978 157.4 654.748 156.11 654.288 154.97C653.828 153.81 653.218 152.83 652.458 152.03C651.698 151.23 650.818 150.62 649.818 150.2C648.818 149.76 647.778 149.54 646.698 149.54H645.618V147.32H646.698C648.098 147.32 649.438 147.58 650.718 148.1C651.998 148.62 653.128 149.38 654.108 150.38C655.088 151.36 655.868 152.56 656.448 153.98C657.028 155.38 657.318 156.96 657.318 158.72V166.28C657.318 168.06 657.028 169.65 656.448 171.05C655.868 172.45 655.088 173.64 654.108 174.62C653.128 175.62 651.998 176.38 650.718 176.9C649.438 177.42 648.098 177.68 646.698 177.68H645.618V175.46H646.698ZM676.617 175.52L674.487 176.18L665.757 149.48L667.857 148.82L676.617 175.52ZM696.576 160.28H693.816L689.736 152.9H689.376L685.296 160.28H682.536L687.276 152H691.836L696.576 160.28ZM712.035 171.92H712.395V152H714.915V173H709.875L703.815 153.08H703.455V173H700.935V152H705.975L712.035 171.92ZM725.454 149.66C725.454 148.98 725.664 148.42 726.084 147.98C726.524 147.54 727.084 147.32 727.764 147.32H730.674V149.48H728.604C728.064 149.48 727.794 149.78 727.794 150.38V159.98C727.794 160.66 727.574 161.22 727.134 161.66C726.714 162.1 726.154 162.32 725.454 162.32H725.094V162.68H725.454C726.154 162.68 726.714 162.9 727.134 163.34C727.574 163.78 727.794 164.34 727.794 165.02V174.62C727.794 175.22 728.064 175.52 728.604 175.52H730.674V177.68H727.764C727.084 177.68 726.524 177.46 726.084 177.02C725.664 176.58 725.454 176.02 725.454 175.34V164.99C725.454 164.41 725.184 164.12 724.644 164.12H723.114V160.88H724.644C725.184 160.88 725.454 160.59 725.454 160.01V149.66ZM743.553 170.66V153.11H743.193L739.743 161H737.253V160.82L741.183 152H746.073V170.66H752.013V173H737.613V170.66H743.553ZM762.763 173.42C761.703 173.42 760.743 173.28 759.883 173C759.023 172.7 758.283 172.3 757.663 171.8C757.043 171.28 756.563 170.68 756.223 170C755.903 169.3 755.743 168.54 755.743 167.72V167.36C755.743 166.64 755.853 166 756.073 165.44C756.293 164.88 756.583 164.39 756.943 163.97C757.303 163.55 757.713 163.2 758.173 162.92C758.653 162.64 759.143 162.43 759.643 162.29V161.93C759.183 161.79 758.753 161.58 758.353 161.3C757.953 161.02 757.593 160.69 757.273 160.31C756.973 159.93 756.733 159.5 756.553 159.02C756.373 158.52 756.283 157.98 756.283 157.4V157.04C756.283 156.24 756.443 155.51 756.763 154.85C757.083 154.17 757.533 153.59 758.113 153.11C758.713 152.63 759.413 152.26 760.213 152C761.033 151.72 761.943 151.58 762.943 151.58H763.123C764.103 151.58 765.003 151.72 765.823 152C766.643 152.26 767.343 152.63 767.923 153.11C768.523 153.59 768.983 154.17 769.303 154.85C769.623 155.51 769.783 156.24 769.783 157.04V157.4C769.783 157.98 769.693 158.52 769.513 159.02C769.333 159.5 769.083 159.93 768.763 160.31C768.463 160.69 768.103 161.02 767.683 161.3C767.283 161.58 766.863 161.79 766.423 161.93V162.29C766.923 162.43 767.403 162.64 767.863 162.92C768.343 163.2 768.763 163.55 769.123 163.97C769.483 164.39 769.773 164.88 769.993 165.44C770.213 166 770.323 166.64 770.323 167.36V167.72C770.323 168.54 770.153 169.3 769.813 170C769.493 170.68 769.023 171.28 768.403 171.8C767.783 172.3 767.043 172.7 766.183 173C765.323 173.28 764.363 173.42 763.303 173.42H762.763ZM763.213 171.14C764.573 171.14 765.673 170.79 766.513 170.09C767.373 169.39 767.803 168.48 767.803 167.36V167.18C767.803 165.94 767.363 164.98 766.483 164.3C765.623 163.62 764.503 163.28 763.123 163.28H762.943C761.563 163.28 760.433 163.62 759.553 164.3C758.693 164.98 758.263 165.94 758.263 167.18V167.36C758.263 168.48 758.683 169.39 759.523 170.09C760.383 170.79 761.493 171.14 762.853 171.14H763.213ZM763.033 160.94C764.293 160.94 765.313 160.61 766.093 159.95C766.873 159.29 767.263 158.46 767.263 157.46V157.28C767.263 156.26 766.873 155.44 766.093 154.82C765.333 154.18 764.313 153.86 763.033 153.86C761.753 153.86 760.723 154.18 759.943 154.82C759.183 155.44 758.803 156.26 758.803 157.28V157.46C758.803 158.46 759.193 159.29 759.973 159.95C760.753 160.61 761.773 160.94 763.033 160.94ZM782.242 160.01C782.242 160.59 782.512 160.88 783.052 160.88H784.582V164.12H783.052C782.512 164.12 782.242 164.41 782.242 164.99V175.34C782.242 176.02 782.022 176.58 781.582 177.02C781.162 177.46 780.612 177.68 779.932 177.68H777.022V175.52H779.092C779.632 175.52 779.902 175.22 779.902 174.62V165.02C779.902 164.34 780.112 163.78 780.532 163.34C780.972 162.9 781.542 162.68 782.242 162.68H782.602V162.32H782.242C781.542 162.32 780.972 162.1 780.532 161.66C780.112 161.22 779.902 160.66 779.902 159.98V150.38C779.902 149.78 779.632 149.48 779.092 149.48H777.022V147.32H779.932C780.612 147.32 781.162 147.54 781.582 147.98C782.022 148.42 782.242 148.98 782.242 149.66V160.01ZM806.971 175.46V177.68H805.891C804.491 177.68 803.151 177.42 801.871 176.9C800.591 176.38 799.461 175.62 798.481 174.62C797.501 173.64 796.721 172.45 796.141 171.05C795.561 169.65 795.271 168.06 795.271 166.28V158.72C795.271 156.96 795.561 155.38 796.141 153.98C796.721 152.56 797.501 151.36 798.481 150.38C799.461 149.38 800.591 148.62 801.871 148.1C803.151 147.58 804.491 147.32 805.891 147.32H806.971V149.54H805.891C804.811 149.54 803.771 149.76 802.771 150.2C801.771 150.62 800.891 151.23 800.131 152.03C799.371 152.83 798.761 153.81 798.301 154.97C797.841 156.11 797.611 157.4 797.611 158.84V166.16C797.611 167.6 797.841 168.9 798.301 170.06C798.761 171.2 799.371 172.17 800.131 172.97C800.891 173.77 801.771 174.38 802.771 174.8C803.771 175.24 804.811 175.46 805.891 175.46H806.971ZM824.71 173H822.19V165.98C822.19 165.46 822.07 165.06 821.83 164.78C821.59 164.5 821.17 164.36 820.57 164.36H814.03V173H811.51V152H819.01C820.09 152 821.03 152.16 821.83 152.48C822.63 152.78 823.29 153.19 823.81 153.71C824.35 154.23 824.75 154.84 825.01 155.54C825.29 156.22 825.43 156.94 825.43 157.7V158.6C825.43 159.38 825.21 160.16 824.77 160.94C824.35 161.72 823.69 162.32 822.79 162.74V163.1C823.39 163.2 823.86 163.44 824.2 163.82C824.54 164.2 824.71 164.74 824.71 165.44V173ZM814.03 162.02H818.71C820.13 162.02 821.18 161.72 821.86 161.12C822.56 160.5 822.91 159.6 822.91 158.42V157.88C822.91 156.82 822.56 155.97 821.86 155.33C821.18 154.67 820.13 154.34 818.71 154.34H814.03V162.02ZM843.649 170.66V173H829.429V169.4C829.429 168.44 829.589 167.61 829.909 166.91C830.229 166.19 830.679 165.58 831.259 165.08C831.859 164.56 832.579 164.13 833.419 163.79C834.259 163.45 835.209 163.16 836.269 162.92C838.049 162.52 839.329 161.95 840.109 161.21C840.909 160.47 841.309 159.56 841.309 158.48V158.3C841.309 157.76 841.219 157.23 841.039 156.71C840.859 156.19 840.579 155.72 840.199 155.3C839.819 154.88 839.329 154.55 838.729 154.31C838.149 154.05 837.449 153.92 836.629 153.92C835.089 153.92 833.889 154.39 833.029 155.33C832.189 156.27 831.769 157.52 831.769 159.08V160.4H829.249V158.9C829.249 157.94 829.409 157.02 829.729 156.14C830.049 155.26 830.519 154.48 831.139 153.8C831.759 153.12 832.529 152.58 833.449 152.18C834.369 151.78 835.429 151.58 836.629 151.58C837.849 151.58 838.909 151.77 839.809 152.15C840.709 152.51 841.459 153 842.059 153.62C842.659 154.22 843.099 154.91 843.379 155.69C843.679 156.45 843.829 157.23 843.829 158.03V158.57C843.829 160.17 843.329 161.54 842.329 162.68C841.329 163.8 839.729 164.6 837.529 165.08C835.609 165.5 834.199 166.06 833.299 166.76C832.399 167.44 831.949 168.44 831.949 169.76V170.66H843.649ZM852.778 171.32C852.778 170.74 852.978 170.25 853.378 169.85C853.798 169.43 854.298 169.22 854.878 169.22C855.458 169.22 855.948 169.43 856.348 169.85C856.768 170.25 856.978 170.74 856.978 171.32C856.978 171.9 856.768 172.4 856.348 172.82C855.948 173.22 855.458 173.42 854.878 173.42C854.298 173.42 853.798 173.22 853.378 172.82C852.978 172.4 852.778 171.9 852.778 171.32ZM852.778 159.8C852.778 159.22 852.978 158.73 853.378 158.33C853.798 157.91 854.298 157.7 854.878 157.7C855.458 157.7 855.948 157.91 856.348 158.33C856.768 158.73 856.978 159.22 856.978 159.8C856.978 160.38 856.768 160.88 856.348 161.3C855.948 161.7 855.458 161.9 854.878 161.9C854.298 161.9 853.798 161.7 853.378 161.3C852.978 160.88 852.778 160.38 852.778 159.8ZM879.277 158L876.637 160.64L875.137 161.48L875.287 161.84L876.637 161.42H880.687V163.58H876.637L875.287 163.16L875.137 163.52L876.637 164.36L879.277 167L877.747 168.53L875.107 165.89L874.267 164.39L873.907 164.54L874.327 165.89V169.94H872.167V165.89L872.587 164.54L872.227 164.39L871.387 165.89L868.747 168.53L867.217 167L869.857 164.36L871.357 163.52L871.207 163.16L869.857 163.58H865.807V161.42H869.857L871.207 161.84L871.357 161.48L869.857 160.64L867.217 158L868.747 156.47L871.387 159.11L872.227 160.61L872.587 160.46L872.167 159.11V155.06H874.327V159.11L873.907 160.46L874.267 160.61L875.107 159.11L877.747 156.47L879.277 158ZM885.497 175.46C886.577 175.46 887.617 175.24 888.617 174.8C889.617 174.38 890.497 173.77 891.257 172.97C892.017 172.17 892.627 171.2 893.087 170.06C893.547 168.9 893.777 167.6 893.777 166.16V158.84C893.777 157.4 893.547 156.11 893.087 154.97C892.627 153.81 892.017 152.83 891.257 152.03C890.497 151.23 889.617 150.62 888.617 150.2C887.617 149.76 886.577 149.54 885.497 149.54H884.417V147.32H885.497C886.897 147.32 888.237 147.58 889.517 148.1C890.797 148.62 891.927 149.38 892.907 150.38C893.887 151.36 894.667 152.56 895.247 153.98C895.827 155.38 896.117 156.96 896.117 158.72V166.28C896.117 168.06 895.827 169.65 895.247 171.05C894.667 172.45 893.887 173.64 892.907 174.62C891.927 175.62 890.797 176.38 889.517 176.9C888.237 177.42 886.897 177.68 885.497 177.68H884.417V175.46H885.497Z" fill="#110529"/>
    <path d="M107.183 250H108.607V244.952H112.943V243.528H108.607V239.904H113.903V238.48H107.183V250ZM115.339 250H116.771V245.664C116.771 244.64 116.979 243.624 117.819 243.024C118.419 242.584 119.195 242.544 119.795 242.696V241.36C119.027 241.192 118.011 241.352 117.347 241.888C117.059 242.096 116.803 242.392 116.611 242.728V241.36H115.339V250ZM124.831 250.24C127.399 250.24 128.999 248.384 128.999 245.672C128.999 243 127.423 241.12 124.831 241.12C122.295 241.12 120.671 242.96 120.671 245.672C120.671 248.352 122.247 250.24 124.831 250.24ZM122.183 245.672C122.183 243.784 123.023 242.472 124.831 242.472C126.599 242.472 127.487 243.728 127.487 245.672C127.487 247.576 126.615 248.888 124.831 248.888C123.087 248.888 122.183 247.624 122.183 245.672ZM141.097 244.472L141.089 250H142.513L142.521 244.16C142.521 242.32 141.417 241.136 139.617 241.136C138.481 241.136 137.513 241.672 137.001 242.56C136.537 241.656 135.649 241.136 134.481 241.136C133.449 241.136 132.569 241.576 132.025 242.28V241.36H130.753V250H132.185V244.512C132.185 243.248 132.937 242.408 134.065 242.408C135.193 242.408 135.937 243.216 135.937 244.528L135.929 250H137.345L137.353 244.512C137.353 243.056 138.273 242.408 139.241 242.408C140.329 242.408 141.097 243.184 141.097 244.472ZM151.696 250.24C153.936 250.24 155.584 248.592 155.584 246.352V242.128C155.584 239.888 153.936 238.24 151.696 238.24C149.456 238.24 147.808 239.888 147.808 242.128V246.352C147.808 248.592 149.456 250.24 151.696 250.24ZM149.256 246.432V242.04C149.256 240.688 150.344 239.6 151.696 239.6C153.048 239.6 154.136 240.688 154.136 242.04V246.432C154.136 247.784 153.048 248.872 151.696 248.872C150.344 248.872 149.256 247.784 149.256 246.432ZM165.85 250V248.776C164.666 248.96 163.802 248.912 163.418 248.224C163.21 247.864 163.242 247.384 163.242 246.672V242.536H165.85V241.36H163.242V238.96H161.818V241.36H160.066V242.536H161.818V246.736C161.818 247.632 161.77 248.288 162.114 248.96C162.714 250.136 164.306 250.312 165.85 250ZM170.925 250.24C173.493 250.24 175.093 248.384 175.093 245.672C175.093 243 173.517 241.12 170.925 241.12C168.389 241.12 166.765 242.96 166.765 245.672C166.765 248.352 168.341 250.24 170.925 250.24ZM168.277 245.672C168.277 243.784 169.117 242.472 170.925 242.472C172.693 242.472 173.581 243.728 173.581 245.672C173.581 247.576 172.709 248.888 170.925 248.888C169.181 248.888 168.277 247.624 168.277 245.672ZM183.218 250.224C185.354 250.224 186.977 248.664 186.977 246.456C186.977 244.44 185.698 242.944 183.714 242.832L186.826 239.848V238.48H180.034V239.84H185.058L181.314 243.224L182.002 244.352C182.362 244.168 182.802 244.048 183.194 244.048C184.578 244.048 185.514 245.032 185.514 246.456C185.514 247.864 184.61 248.84 183.21 248.864C182.186 248.88 181.289 248.312 180.946 247.24L179.578 247.632C180.066 249.232 181.506 250.224 183.218 250.224ZM109.655 265.672V270H111.095V265.224C111.095 263.584 110.439 261.136 107.655 261.136C106.407 261.136 105.415 261.616 104.775 262.472V261.36H103.495V270H104.935V265.448C104.935 263.448 105.879 262.488 107.311 262.488C109.135 262.488 109.655 264.048 109.655 265.672ZM116.455 270.224C117.703 270.224 118.695 269.744 119.335 268.888V270H120.607V261.36H119.175V265.912C119.175 267.912 118.231 268.872 116.799 268.872C114.975 268.872 114.455 267.312 114.455 265.688V261.36H113.015V266.136C113.015 267.776 113.671 270.224 116.455 270.224ZM126.487 270.24C128.271 270.24 129.575 269.368 130.183 267.752L128.743 267.376C128.351 268.36 127.607 268.888 126.487 268.888C124.767 268.888 123.895 267.608 123.879 265.68C123.895 263.808 124.711 262.472 126.487 262.472C127.535 262.472 128.407 263.056 128.775 264.056L130.183 263.632C129.727 262.08 128.319 261.12 126.503 261.12C123.903 261.12 122.391 262.984 122.367 265.68C122.391 268.328 123.855 270.24 126.487 270.24ZM131.741 270H133.165V258.48H131.741V270ZM139.309 270.24C140.981 270.24 142.413 269.368 143.093 267.84L141.725 267.368C141.245 268.352 140.381 268.888 139.245 268.888C137.653 268.888 136.725 267.872 136.613 266.08H143.237C143.365 263.008 141.845 261.12 139.245 261.12C136.733 261.12 135.085 262.904 135.085 265.736C135.085 268.44 136.757 270.24 139.309 270.24ZM136.637 264.936C136.837 263.296 137.741 262.4 139.293 262.4C140.757 262.4 141.581 263.24 141.757 264.936H136.637ZM148.698 270.24C151.266 270.24 152.866 268.384 152.866 265.672C152.866 263 151.29 261.12 148.698 261.12C146.162 261.12 144.538 262.96 144.538 265.672C144.538 268.352 146.114 270.24 148.698 270.24ZM146.05 265.672C146.05 263.784 146.89 262.472 148.698 262.472C150.466 262.472 151.354 263.728 151.354 265.672C151.354 267.576 150.482 268.888 148.698 268.888C146.954 268.888 146.05 267.624 146.05 265.672ZM159.452 270V268.776C158.268 268.96 157.404 268.912 157.02 268.224C156.812 267.864 156.844 267.384 156.844 266.672V262.536H159.452V261.36H156.844V258.96H155.42V261.36H153.668V262.536H155.42V266.736C155.42 267.632 155.372 268.288 155.716 268.96C156.316 270.136 157.908 270.312 159.452 270ZM161.366 259.832H162.79V258.36H161.366V259.832ZM161.366 270H162.79V261.36H161.366V270ZM168.582 270.24C169.75 270.24 170.654 269.784 171.286 269.024V270H172.558V258.48H171.126V262.144C170.51 261.496 169.654 261.12 168.574 261.12C166.174 261.12 164.71 263.08 164.71 265.672C164.71 268.264 166.166 270.24 168.582 270.24ZM166.222 265.672C166.222 263.848 167.038 262.424 168.798 262.424C170.486 262.424 171.286 263.76 171.286 265.672C171.286 267.568 170.502 268.936 168.758 268.936C167.054 268.936 166.222 267.512 166.222 265.672ZM178.544 270.24C180.216 270.24 181.648 269.368 182.328 267.84L180.96 267.368C180.48 268.352 179.616 268.888 178.48 268.888C176.888 268.888 175.96 267.872 175.848 266.08H182.472C182.6 263.008 181.08 261.12 178.48 261.12C175.968 261.12 174.32 262.904 174.32 265.736C174.32 268.44 175.992 270.24 178.544 270.24ZM175.872 264.936C176.072 263.296 176.976 262.4 178.528 262.4C179.992 262.4 180.816 263.24 180.992 264.936H175.872ZM187.517 270.232C189.669 270.232 190.973 269.224 190.973 267.552C190.973 266.216 190.229 265.576 187.949 264.992C185.917 264.48 185.477 264.208 185.477 263.576C185.477 262.84 186.245 262.36 187.365 262.392C188.541 262.424 189.341 262.992 189.485 263.912L190.941 263.648C190.757 262.128 189.333 261.12 187.365 261.12C185.373 261.12 184.045 262.128 184.045 263.648C184.045 264.888 184.773 265.48 187.061 266.088C189.173 266.656 189.501 266.864 189.501 267.592C189.501 268.44 188.781 268.96 187.605 268.96C186.357 268.96 185.461 268.376 185.229 267.432L183.773 267.664C184.069 269.288 185.453 270.232 187.517 270.232Z" fill="white"/>
    <path d="M33.0177 64H34.4417V53.832H38.3697V52.48H29.0897V53.832H33.0177V64ZM45.7954 59.672V64H47.2354V59.224C47.2354 57.584 46.5794 55.136 43.7954 55.136C42.5474 55.136 41.5554 55.616 40.9154 56.472V52.48H39.6354V64H41.0754V59.448C41.0754 57.448 42.0194 56.488 43.4514 56.488C45.2754 56.488 45.7954 58.048 45.7954 59.672ZM53.0593 64.24C54.7313 64.24 56.1633 63.368 56.8433 61.84L55.4753 61.368C54.9953 62.352 54.1313 62.888 52.9953 62.888C51.4033 62.888 50.4753 61.872 50.3633 60.08H56.9873C57.1153 57.008 55.5953 55.12 52.9953 55.12C50.4833 55.12 48.8353 56.904 48.8353 59.736C48.8353 62.44 50.5073 64.24 53.0593 64.24ZM50.3873 58.936C50.5873 57.296 51.4913 56.4 53.0433 56.4C54.5073 56.4 55.3313 57.24 55.5073 58.936H50.3873ZM65.9396 64.24C68.3556 64.24 69.8116 62.264 69.8116 59.672C69.8116 57.08 68.3476 55.12 65.9476 55.12C64.8676 55.12 64.0116 55.496 63.3956 56.144V52.48H61.9636V64H63.2356V63.024C63.8676 63.784 64.7716 64.24 65.9396 64.24ZM63.2356 59.672C63.2356 57.76 64.0356 56.424 65.7236 56.424C67.4836 56.424 68.2996 57.848 68.2996 59.672C68.2996 61.512 67.4676 62.936 65.7636 62.936C64.0196 62.936 63.2356 61.568 63.2356 59.672ZM75.3093 64.24C76.9813 64.24 78.4133 63.368 79.0933 61.84L77.7253 61.368C77.2453 62.352 76.3813 62.888 75.2453 62.888C73.6533 62.888 72.7253 61.872 72.6133 60.08H79.2373C79.3653 57.008 77.8453 55.12 75.2453 55.12C72.7333 55.12 71.0853 56.904 71.0853 59.736C71.0853 62.44 72.7573 64.24 75.3093 64.24ZM72.6373 58.936C72.8373 57.296 73.7413 56.4 75.2933 56.4C76.7573 56.4 77.5813 57.24 77.7573 58.936H72.6373ZM84.5144 68.08C86.5784 68.08 87.9384 67.224 88.2744 65.384C88.3544 64.96 88.3784 64.536 88.3784 64.056V55.36H87.1144V56.328C86.4824 55.568 85.5784 55.12 84.4024 55.12C82.0024 55.12 80.5384 57.08 80.5384 59.672C80.5384 62.264 81.9944 64.24 84.4104 64.24C85.4744 64.24 86.3304 63.856 86.9464 63.208V64.04C86.9624 65.8 86.1704 66.704 84.5224 66.704C83.6824 66.704 82.8264 66.344 82.4024 65.496L81.0984 66.184C81.8184 67.472 83.1544 68.08 84.5144 68.08ZM82.0504 59.672C82.0504 57.848 82.8664 56.424 84.6264 56.424C86.3144 56.424 87.1144 57.76 87.1144 59.672C87.1144 61.568 86.3304 62.936 84.5864 62.936C82.8824 62.936 82.0504 61.512 82.0504 59.672ZM90.7722 53.832H92.1962V52.36H90.7722V53.832ZM90.7722 64H92.1962V55.36H90.7722V64ZM100.749 59.672V64H102.189V59.224C102.189 57.584 101.533 55.136 98.7486 55.136C97.5006 55.136 96.5086 55.616 95.8686 56.472V55.36H94.5886V64H96.0286V59.448C96.0286 57.448 96.9726 56.488 98.4046 56.488C100.229 56.488 100.749 58.048 100.749 59.672ZM110.42 59.672V64H111.86V59.224C111.86 57.584 111.204 55.136 108.42 55.136C107.172 55.136 106.18 55.616 105.54 56.472V55.36H104.26V64H105.7V59.448C105.7 57.448 106.644 56.488 108.076 56.488C109.9 56.488 110.42 58.048 110.42 59.672ZM114.1 53.832H115.524V52.36H114.1V53.832ZM114.1 64H115.524V55.36H114.1V64ZM124.077 59.672V64H125.517V59.224C125.517 57.584 124.861 55.136 122.077 55.136C120.829 55.136 119.837 55.616 119.197 56.472V55.36H117.917V64H119.357V59.448C119.357 57.448 120.301 56.488 121.733 56.488C123.557 56.488 124.077 58.048 124.077 59.672ZM131.093 68.08C133.157 68.08 134.517 67.224 134.853 65.384C134.933 64.96 134.957 64.536 134.957 64.056V55.36H133.693V56.328C133.061 55.568 132.157 55.12 130.981 55.12C128.581 55.12 127.117 57.08 127.117 59.672C127.117 62.264 128.573 64.24 130.989 64.24C132.053 64.24 132.909 63.856 133.525 63.208V64.04C133.541 65.8 132.749 66.704 131.101 66.704C130.261 66.704 129.405 66.344 128.981 65.496L127.677 66.184C128.397 67.472 129.733 68.08 131.093 68.08ZM128.629 59.672C128.629 57.848 129.445 56.424 131.205 56.424C132.893 56.424 133.693 57.76 133.693 59.672C133.693 61.568 132.909 62.936 131.165 62.936C129.461 62.936 128.629 61.512 128.629 59.672ZM55.0344 84.24C57.6024 84.24 59.2024 82.384 59.2024 79.672C59.2024 77 57.6264 75.12 55.0344 75.12C52.4984 75.12 50.8744 76.96 50.8744 79.672C50.8744 82.352 52.4504 84.24 55.0344 84.24ZM52.3864 79.672C52.3864 77.784 53.2264 76.472 55.0344 76.472C56.8024 76.472 57.6904 77.728 57.6904 79.672C57.6904 81.576 56.8184 82.888 55.0344 82.888C53.2904 82.888 52.3864 81.624 52.3864 79.672ZM61.7878 74.888V75.36H60.3238V76.536H61.7878V84H63.2118V76.536H65.4838V75.36H63.2118V74.664C63.2118 73.84 63.6198 73.424 64.4678 73.424H65.4838V72.24H64.3878C63.7318 72.24 62.9238 72.264 62.3318 72.912C61.8198 73.472 61.7878 74.224 61.7878 74.888ZM72.4198 84.24C73.8598 84.24 74.9318 83.712 75.6198 82.656V84H76.8837V78.656C76.8837 77.976 76.8438 77.344 76.6038 76.808C76.1078 75.68 74.9318 75.12 73.3718 75.12C71.4198 75.12 70.2118 76.04 69.8038 77.552L71.1558 77.96C71.4678 76.904 72.3078 76.448 73.3558 76.448C74.8518 76.448 75.4438 77.104 75.4838 78.48C74.2038 78.656 72.6838 78.84 71.6038 79.128C70.2918 79.512 69.4838 80.304 69.4838 81.664C69.4838 83.056 70.4838 84.24 72.4198 84.24ZM70.8997 81.656C70.8997 80.848 71.5318 80.456 72.2438 80.232C73.0838 79.992 74.2518 79.856 75.4678 79.696C75.4598 80.088 75.4438 80.64 75.3238 81.056C75.1158 82.128 74.1718 83.048 72.6358 83.048C71.4038 83.048 70.8997 82.368 70.8997 81.656ZM82.1669 84H83.5989V79.664C83.5989 78.64 83.8069 77.624 84.6469 77.024C85.2469 76.584 86.0229 76.544 86.6229 76.696V75.36C85.8549 75.192 84.8389 75.352 84.1749 75.888C83.8869 76.096 83.6309 76.392 83.4389 76.728V75.36H82.1669V84ZM91.7234 84.24C93.3954 84.24 94.8274 83.368 95.5074 81.84L94.1394 81.368C93.6594 82.352 92.7954 82.888 91.6594 82.888C90.0674 82.888 89.1394 81.872 89.0274 80.08H95.6514C95.7794 77.008 94.2594 75.12 91.6594 75.12C89.1474 75.12 87.4994 76.904 87.4994 79.736C87.4994 82.44 89.1714 84.24 91.7234 84.24ZM89.0514 78.936C89.2514 77.296 90.1554 76.4 91.7074 76.4C93.1714 76.4 93.9954 77.24 94.1714 78.936H89.0514ZM99.7323 84.24C101.172 84.24 102.244 83.712 102.932 82.656V84H104.196V78.656C104.196 77.976 104.156 77.344 103.916 76.808C103.42 75.68 102.244 75.12 100.684 75.12C98.7323 75.12 97.5243 76.04 97.1163 77.552L98.4683 77.96C98.7803 76.904 99.6203 76.448 100.668 76.448C102.164 76.448 102.756 77.104 102.796 78.48C101.516 78.656 99.9963 78.84 98.9163 79.128C97.6043 79.512 96.7963 80.304 96.7963 81.664C96.7963 83.056 97.7963 84.24 99.7323 84.24ZM98.2122 81.656C98.2122 80.848 98.8443 80.456 99.5563 80.232C100.396 79.992 101.564 79.856 102.78 79.696C102.772 80.088 102.756 80.64 102.636 81.056C102.428 82.128 101.484 83.048 99.9483 83.048C98.7163 83.048 98.2122 82.368 98.2122 81.656ZM109.668 84.24C110.836 84.24 111.74 83.784 112.372 83.024V84H113.644V72.48H112.212V76.144C111.596 75.496 110.74 75.12 109.66 75.12C107.26 75.12 105.796 77.08 105.796 79.672C105.796 82.264 107.252 84.24 109.668 84.24ZM107.308 79.672C107.308 77.848 108.124 76.424 109.884 76.424C111.572 76.424 112.372 77.76 112.372 79.672C112.372 81.568 111.588 82.936 109.844 82.936C108.14 82.936 107.308 81.512 107.308 79.672Z" fill="white"/>
    <path d="M420.018 250H421.442V244.952H425.778V243.528H421.442V239.904H426.738V238.48H420.018V250ZM431.455 250.224C432.703 250.224 433.695 249.744 434.335 248.888V250H435.607V241.36H434.175V245.912C434.175 247.912 433.231 248.872 431.799 248.872C429.975 248.872 429.455 247.312 429.455 245.688V241.36H428.015V246.136C428.015 247.776 428.671 250.224 431.455 250.224ZM437.047 250H444.311V248.704H439.351L444.583 241.632V241.36H437.479V242.656H442.287L437.047 249.744V250ZM445.547 250H452.811V248.704H447.851L453.083 241.632V241.36H445.979V242.656H450.787L445.547 249.744V250ZM455.812 253.84H457.196L461.9 241.36H460.452L457.924 248.16L455.228 241.36H453.732L457.236 249.968L455.812 253.84ZM428.104 264.472L428.096 270H429.52L429.528 264.16C429.528 262.32 428.424 261.136 426.624 261.136C425.488 261.136 424.52 261.672 424.008 262.56C423.544 261.656 422.656 261.136 421.488 261.136C420.456 261.136 419.576 261.576 419.032 262.28V261.36H417.76V270H419.192V264.512C419.192 263.248 419.944 262.408 421.072 262.408C422.2 262.408 422.944 263.216 422.944 264.528L422.936 270H424.352L424.36 264.512C424.36 263.056 425.28 262.408 426.248 262.408C427.336 262.408 428.104 263.184 428.104 264.472ZM434.068 270.24C435.508 270.24 436.58 269.712 437.268 268.656V270H438.532V264.656C438.532 263.976 438.492 263.344 438.252 262.808C437.756 261.68 436.58 261.12 435.02 261.12C433.068 261.12 431.86 262.04 431.452 263.552L432.804 263.96C433.116 262.904 433.956 262.448 435.004 262.448C436.5 262.448 437.092 263.104 437.132 264.48C435.852 264.656 434.332 264.84 433.252 265.128C431.94 265.512 431.132 266.304 431.132 267.664C431.132 269.056 432.132 270.24 434.068 270.24ZM432.548 267.656C432.548 266.848 433.18 266.456 433.892 266.232C434.732 265.992 435.9 265.856 437.116 265.696C437.108 266.088 437.092 266.64 436.972 267.056C436.764 268.128 435.82 269.048 434.284 269.048C433.052 269.048 432.548 268.368 432.548 267.656ZM445.436 270V268.776C444.252 268.96 443.388 268.912 443.004 268.224C442.796 267.864 442.828 267.384 442.828 266.672V262.536H445.436V261.36H442.828V258.96H441.404V261.36H439.652V262.536H441.404V266.736C441.404 267.632 441.356 268.288 441.7 268.96C442.3 270.136 443.892 270.312 445.436 270ZM450.471 270.24C452.255 270.24 453.559 269.368 454.167 267.752L452.727 267.376C452.335 268.36 451.591 268.888 450.471 268.888C448.751 268.888 447.879 267.608 447.863 265.68C447.879 263.808 448.695 262.472 450.471 262.472C451.519 262.472 452.391 263.056 452.759 264.056L454.167 263.632C453.711 262.08 452.303 261.12 450.487 261.12C447.887 261.12 446.375 262.984 446.351 265.68C446.375 268.328 447.839 270.24 450.471 270.24ZM461.952 265.672V270H463.392V265.224C463.392 263.584 462.736 261.136 459.952 261.136C458.704 261.136 457.712 261.616 457.072 262.472V258.48H455.792V270H457.232V265.448C457.232 263.448 458.176 262.488 459.608 262.488C461.432 262.488 461.952 264.048 461.952 265.672Z" fill="white"/>
    <path d="M514.268 250H515.692V245.744H518.82C519.036 245.744 519.372 245.728 519.668 245.68C521.524 245.392 522.516 243.944 522.516 242.112C522.516 240.28 521.532 238.832 519.668 238.544C519.372 238.496 519.044 238.48 518.82 238.48H514.268V250ZM515.692 244.392V239.832H518.772C518.972 239.832 519.252 239.848 519.492 239.904C520.596 240.152 521.06 241.152 521.06 242.112C521.06 243.072 520.596 244.072 519.492 244.32C519.252 244.376 518.972 244.392 518.772 244.392H515.692ZM526.256 250.24C527.696 250.24 528.768 249.712 529.456 248.656V250H530.72V244.656C530.72 243.976 530.68 243.344 530.44 242.808C529.944 241.68 528.768 241.12 527.208 241.12C525.256 241.12 524.048 242.04 523.64 243.552L524.992 243.96C525.304 242.904 526.144 242.448 527.192 242.448C528.688 242.448 529.28 243.104 529.32 244.48C528.04 244.656 526.52 244.84 525.44 245.128C524.128 245.512 523.32 246.304 523.32 247.664C523.32 249.056 524.32 250.24 526.256 250.24ZM524.736 247.656C524.736 246.848 525.368 246.456 526.08 246.232C526.92 245.992 528.088 245.856 529.304 245.696C529.296 246.088 529.28 246.64 529.16 247.056C528.952 248.128 528.008 249.048 526.472 249.048C525.24 249.048 524.736 248.368 524.736 247.656ZM533.515 253.84H534.899L539.603 241.36H538.155L535.627 248.16L532.931 241.36H531.435L534.939 249.968L533.515 253.84ZM541.085 250H542.509V238.48H541.085V250ZM548.589 250.24C551.157 250.24 552.757 248.384 552.757 245.672C552.757 243 551.181 241.12 548.589 241.12C546.053 241.12 544.429 242.96 544.429 245.672C544.429 248.352 546.005 250.24 548.589 250.24ZM545.941 245.672C545.941 243.784 546.781 242.472 548.589 242.472C550.357 242.472 551.245 243.728 551.245 245.672C551.245 247.576 550.373 248.888 548.589 248.888C546.845 248.888 545.941 247.624 545.941 245.672ZM556.974 250.24C558.414 250.24 559.486 249.712 560.174 248.656V250H561.438V244.656C561.438 243.976 561.398 243.344 561.158 242.808C560.662 241.68 559.486 241.12 557.926 241.12C555.974 241.12 554.766 242.04 554.358 243.552L555.71 243.96C556.022 242.904 556.862 242.448 557.91 242.448C559.406 242.448 559.998 243.104 560.038 244.48C558.758 244.656 557.238 244.84 556.158 245.128C554.846 245.512 554.038 246.304 554.038 247.664C554.038 249.056 555.038 250.24 556.974 250.24ZM555.454 247.656C555.454 246.848 556.086 246.456 556.798 246.232C557.638 245.992 558.806 245.856 560.022 245.696C560.014 246.088 559.998 246.64 559.878 247.056C559.67 248.128 558.726 249.048 557.19 249.048C555.958 249.048 555.454 248.368 555.454 247.656ZM566.91 250.24C568.078 250.24 568.982 249.784 569.614 249.024V250H570.886V238.48H569.454V242.144C568.838 241.496 567.982 241.12 566.902 241.12C564.502 241.12 563.038 243.08 563.038 245.672C563.038 248.264 564.494 250.24 566.91 250.24ZM564.55 245.672C564.55 243.848 565.366 242.424 567.126 242.424C568.814 242.424 569.614 243.76 569.614 245.672C569.614 247.568 568.83 248.936 567.086 248.936C565.382 248.936 564.55 247.512 564.55 245.672ZM579.827 254.08C581.891 254.08 583.251 253.224 583.587 251.384C583.667 250.96 583.691 250.536 583.691 250.056V241.36H582.427V242.328C581.795 241.568 580.891 241.12 579.715 241.12C577.315 241.12 575.851 243.08 575.851 245.672C575.851 248.264 577.307 250.24 579.723 250.24C580.787 250.24 581.643 249.856 582.259 249.208V250.04C582.275 251.8 581.483 252.704 579.835 252.704C578.995 252.704 578.139 252.344 577.715 251.496L576.411 252.184C577.131 253.472 578.467 254.08 579.827 254.08ZM577.363 245.672C577.363 243.848 578.179 242.424 579.939 242.424C581.627 242.424 582.427 243.76 582.427 245.672C582.427 247.568 581.643 248.936 579.899 248.936C578.195 248.936 577.363 247.512 577.363 245.672ZM585.925 250H587.357V245.664C587.357 244.64 587.565 243.624 588.405 243.024C589.005 242.584 589.781 242.544 590.381 242.696V241.36C589.613 241.192 588.597 241.352 587.933 241.888C587.645 242.096 587.389 242.392 587.197 242.728V241.36H585.925V250ZM595.417 250.24C597.985 250.24 599.585 248.384 599.585 245.672C599.585 243 598.009 241.12 595.417 241.12C592.881 241.12 591.257 242.96 591.257 245.672C591.257 248.352 592.833 250.24 595.417 250.24ZM592.769 245.672C592.769 243.784 593.609 242.472 595.417 242.472C597.185 242.472 598.073 243.728 598.073 245.672C598.073 247.576 597.201 248.888 595.417 248.888C593.673 248.888 592.769 247.624 592.769 245.672ZM604.627 250.224C605.875 250.224 606.867 249.744 607.507 248.888V250H608.779V241.36H607.347V245.912C607.347 247.912 606.403 248.872 604.971 248.872C603.147 248.872 602.627 247.312 602.627 245.688V241.36H601.187V246.136C601.187 247.776 601.843 250.224 604.627 250.224ZM614.986 250.24C617.402 250.24 618.858 248.264 618.858 245.672C618.858 243.08 617.394 241.12 614.994 241.12C613.818 241.12 612.914 241.568 612.282 242.328V241.36H611.01V253.84H612.442V249.2C613.058 249.856 613.914 250.24 614.986 250.24ZM612.282 245.672C612.282 243.76 613.082 242.424 614.77 242.424C616.53 242.424 617.346 243.848 617.346 245.672C617.346 247.512 616.514 248.936 614.81 248.936C613.066 248.936 612.282 247.568 612.282 245.672ZM620.556 250H622.124V248.432H620.556V250ZM627.815 250H629.239V245.744H632.367C632.583 245.744 632.919 245.728 633.215 245.68C635.071 245.392 636.063 243.944 636.063 242.112C636.063 240.28 635.079 238.832 633.215 238.544C632.919 238.496 632.591 238.48 632.367 238.48H627.815V250ZM629.239 244.392V239.832H632.319C632.519 239.832 632.799 239.848 633.039 239.904C634.143 240.152 634.607 241.152 634.607 242.112C634.607 243.072 634.143 244.072 633.039 244.32C632.799 244.376 632.519 244.392 632.319 244.392H629.239ZM637.659 250H639.091V245.664C639.091 244.64 639.299 243.624 640.139 243.024C640.739 242.584 641.515 242.544 642.115 242.696V241.36C641.347 241.192 640.331 241.352 639.667 241.888C639.379 242.096 639.123 242.392 638.931 242.728V241.36H637.659V250ZM647.216 250.24C648.888 250.24 650.32 249.368 651 247.84L649.632 247.368C649.152 248.352 648.288 248.888 647.152 248.888C645.56 248.888 644.632 247.872 644.52 246.08H651.144C651.272 243.008 649.752 241.12 647.152 241.12C644.64 241.12 642.992 242.904 642.992 245.736C642.992 248.44 644.664 250.24 647.216 250.24ZM644.544 244.936C644.744 243.296 645.648 242.4 647.2 242.4C648.664 242.4 649.488 243.24 649.664 244.936H644.544ZM656.565 250.24C658.349 250.24 659.653 249.368 660.261 247.752L658.821 247.376C658.429 248.36 657.685 248.888 656.565 248.888C654.845 248.888 653.973 247.608 653.957 245.68C653.973 243.808 654.789 242.472 656.565 242.472C657.613 242.472 658.485 243.056 658.853 244.056L660.261 243.632C659.805 242.08 658.397 241.12 656.581 241.12C653.981 241.12 652.469 242.984 652.445 245.68C652.469 248.328 653.933 250.24 656.565 250.24ZM665.403 250.24C667.075 250.24 668.507 249.368 669.187 247.84L667.819 247.368C667.339 248.352 666.475 248.888 665.339 248.888C663.747 248.888 662.819 247.872 662.707 246.08H669.331C669.459 243.008 667.939 241.12 665.339 241.12C662.827 241.12 661.179 242.904 661.179 245.736C661.179 248.44 662.851 250.24 665.403 250.24ZM662.731 244.936C662.931 243.296 663.835 242.4 665.387 242.4C666.851 242.4 667.675 243.24 667.851 244.936H662.731ZM674.504 250.24C675.672 250.24 676.576 249.784 677.208 249.024V250H678.48V238.48H677.048V242.144C676.432 241.496 675.576 241.12 674.496 241.12C672.096 241.12 670.632 243.08 670.632 245.672C670.632 248.264 672.088 250.24 674.504 250.24ZM672.144 245.672C672.144 243.848 672.96 242.424 674.72 242.424C676.408 242.424 677.208 243.76 677.208 245.672C677.208 247.568 676.424 248.936 674.68 248.936C672.976 248.936 672.144 247.512 672.144 245.672ZM680.882 239.832H682.306V238.36H680.882V239.832ZM680.882 250H682.306V241.36H680.882V250ZM690.858 245.672V250H692.298V245.224C692.298 243.584 691.642 241.136 688.858 241.136C687.61 241.136 686.618 241.616 685.978 242.472V241.36H684.698V250H686.138V245.448C686.138 243.448 687.082 242.488 688.514 242.488C690.338 242.488 690.858 244.048 690.858 245.672ZM697.874 254.08C699.938 254.08 701.298 253.224 701.634 251.384C701.714 250.96 701.738 250.536 701.738 250.056V241.36H700.474V242.328C699.842 241.568 698.938 241.12 697.762 241.12C695.362 241.12 693.898 243.08 693.898 245.672C693.898 248.264 695.354 250.24 697.77 250.24C698.834 250.24 699.69 249.856 700.306 249.208V250.04C700.322 251.8 699.53 252.704 697.882 252.704C697.042 252.704 696.186 252.344 695.762 251.496L694.458 252.184C695.178 253.472 696.514 254.08 697.874 254.08ZM695.41 245.672C695.41 243.848 696.226 242.424 697.986 242.424C699.674 242.424 700.474 243.76 700.474 245.672C700.474 247.568 699.69 248.936 697.946 248.936C696.242 248.936 695.41 247.512 695.41 245.672ZM517.134 270.232C519.286 270.232 520.59 269.224 520.59 267.552C520.59 266.216 519.846 265.576 517.566 264.992C515.534 264.48 515.094 264.208 515.094 263.576C515.094 262.84 515.862 262.36 516.982 262.392C518.158 262.424 518.958 262.992 519.102 263.912L520.558 263.648C520.374 262.128 518.95 261.12 516.982 261.12C514.99 261.12 513.662 262.128 513.662 263.648C513.662 264.888 514.39 265.48 516.678 266.088C518.79 266.656 519.118 266.864 519.118 267.592C519.118 268.44 518.398 268.96 517.222 268.96C515.974 268.96 515.078 268.376 514.846 267.432L513.39 267.664C513.686 269.288 515.07 270.232 517.134 270.232ZM526.098 270.24C527.77 270.24 529.202 269.368 529.882 267.84L528.514 267.368C528.034 268.352 527.17 268.888 526.034 268.888C524.442 268.888 523.514 267.872 523.402 266.08H530.026C530.154 263.008 528.634 261.12 526.034 261.12C523.522 261.12 521.874 262.904 521.874 265.736C521.874 268.44 523.546 270.24 526.098 270.24ZM523.426 264.936C523.626 263.296 524.53 262.4 526.082 262.4C527.546 262.4 528.37 263.24 528.546 264.936H523.426ZM535.2 270.24C536.272 270.24 537.128 269.856 537.744 269.2V273.84H539.176V261.36H537.904V262.328C537.272 261.568 536.368 261.12 535.192 261.12C532.792 261.12 531.328 263.08 531.328 265.672C531.328 268.264 532.784 270.24 535.2 270.24ZM532.84 265.672C532.84 263.848 533.656 262.424 535.416 262.424C537.104 262.424 537.904 263.76 537.904 265.672C537.904 267.568 537.12 268.936 535.376 268.936C533.672 268.936 532.84 267.512 532.84 265.672ZM544.697 270.224C545.945 270.224 546.937 269.744 547.577 268.888V270H548.849V261.36H547.417V265.912C547.417 267.912 546.473 268.872 545.041 268.872C543.217 268.872 542.697 267.312 542.697 265.688V261.36H541.257V266.136C541.257 267.776 541.913 270.224 544.697 270.224ZM554.833 270.24C556.505 270.24 557.937 269.368 558.617 267.84L557.249 267.368C556.769 268.352 555.905 268.888 554.769 268.888C553.177 268.888 552.249 267.872 552.137 266.08H558.761C558.889 263.008 557.369 261.12 554.769 261.12C552.257 261.12 550.609 262.904 550.609 265.736C550.609 268.44 552.281 270.24 554.833 270.24ZM552.161 264.936C552.361 263.296 553.265 262.4 554.817 262.4C556.281 262.4 557.105 263.24 557.281 264.936H552.161ZM566.46 265.672V270H567.9V265.224C567.9 263.584 567.244 261.136 564.46 261.136C563.212 261.136 562.22 261.616 561.58 262.472V261.36H560.3V270H561.74V265.448C561.74 263.448 562.684 262.488 564.116 262.488C565.94 262.488 566.46 264.048 566.46 265.672ZM573.541 270.24C575.325 270.24 576.629 269.368 577.237 267.752L575.797 267.376C575.405 268.36 574.661 268.888 573.541 268.888C571.821 268.888 570.949 267.608 570.933 265.68C570.949 263.808 571.765 262.472 573.541 262.472C574.589 262.472 575.461 263.056 575.829 264.056L577.237 263.632C576.781 262.08 575.373 261.12 573.557 261.12C570.957 261.12 569.445 262.984 569.421 265.68C569.445 268.328 570.909 270.24 573.541 270.24ZM582.38 270.24C584.052 270.24 585.484 269.368 586.164 267.84L584.796 267.368C584.316 268.352 583.452 268.888 582.316 268.888C580.724 268.888 579.796 267.872 579.684 266.08H586.308C586.436 263.008 584.916 261.12 582.316 261.12C579.804 261.12 578.156 262.904 578.156 265.736C578.156 268.44 579.828 270.24 582.38 270.24ZM579.708 264.936C579.908 263.296 580.812 262.4 582.364 262.4C583.828 262.4 584.652 263.24 584.828 264.936H579.708ZM593.132 270H594.316L596.404 263.432L598.492 270H599.676L602.316 261.36H600.908L598.972 267.68L597.036 261.36H595.78L593.836 267.68L591.908 261.36L590.492 261.352L593.132 270ZM603.921 259.832H605.345V258.36H603.921V259.832ZM603.921 270H605.345V261.36H603.921V270ZM607.905 270H609.329V258.48H607.905V270ZM611.889 270H613.313V258.48H611.889V270ZM622.885 270.24C625.301 270.24 626.757 268.264 626.757 265.672C626.757 263.08 625.293 261.12 622.893 261.12C621.813 261.12 620.957 261.496 620.341 262.144V258.48H618.909V270H620.181V269.024C620.813 269.784 621.717 270.24 622.885 270.24ZM620.181 265.672C620.181 263.76 620.981 262.424 622.669 262.424C624.429 262.424 625.245 263.848 625.245 265.672C625.245 267.512 624.413 268.936 622.709 268.936C620.965 268.936 620.181 267.568 620.181 265.672ZM632.255 270.24C633.927 270.24 635.359 269.368 636.039 267.84L634.671 267.368C634.191 268.352 633.327 268.888 632.191 268.888C630.599 268.888 629.671 267.872 629.559 266.08H636.183C636.311 263.008 634.791 261.12 632.191 261.12C629.679 261.12 628.031 262.904 628.031 265.736C628.031 268.44 629.703 270.24 632.255 270.24ZM629.583 264.936C629.783 263.296 630.687 262.4 632.239 262.4C633.703 262.4 634.527 263.24 634.703 264.936H629.583ZM645.991 270V268.776C644.807 268.96 643.943 268.912 643.559 268.224C643.351 267.864 643.383 267.384 643.383 266.672V262.536H645.991V261.36H643.383V258.96H641.959V261.36H640.207V262.536H641.959V266.736C641.959 267.632 641.911 268.288 642.255 268.96C642.855 270.136 644.447 270.312 645.991 270ZM647.745 270H649.177V265.664C649.177 264.64 649.385 263.624 650.225 263.024C650.825 262.584 651.601 262.544 652.201 262.696V261.36C651.433 261.192 650.417 261.352 649.753 261.888C649.465 262.096 649.209 262.392 649.017 262.728V261.36H647.745V270ZM653.874 259.832H655.298V258.36H653.874V259.832ZM653.874 270H655.298V261.36H653.874V270ZM668.034 264.472L668.026 270H669.45L669.458 264.16C669.458 262.32 668.354 261.136 666.554 261.136C665.418 261.136 664.45 261.672 663.938 262.56C663.474 261.656 662.586 261.136 661.418 261.136C660.386 261.136 659.506 261.576 658.962 262.28V261.36H657.69V270H659.122V264.512C659.122 263.248 659.874 262.408 661.002 262.408C662.13 262.408 662.874 263.216 662.874 264.528L662.866 270H664.282L664.29 264.512C664.29 263.056 665.21 262.408 666.178 262.408C667.266 262.408 668.034 263.184 668.034 264.472ZM681.878 264.472L681.87 270H683.294L683.302 264.16C683.302 262.32 682.198 261.136 680.398 261.136C679.262 261.136 678.294 261.672 677.782 262.56C677.318 261.656 676.43 261.136 675.262 261.136C674.23 261.136 673.35 261.576 672.806 262.28V261.36H671.534V270H672.966V264.512C672.966 263.248 673.718 262.408 674.846 262.408C675.974 262.408 676.718 263.216 676.718 264.528L676.71 270H678.126L678.134 264.512C678.134 263.056 679.054 262.408 680.022 262.408C681.11 262.408 681.878 263.184 681.878 264.472ZM689.052 270.24C690.724 270.24 692.156 269.368 692.836 267.84L691.468 267.368C690.988 268.352 690.124 268.888 688.988 268.888C687.396 268.888 686.468 267.872 686.356 266.08H692.98C693.108 263.008 691.588 261.12 688.988 261.12C686.476 261.12 684.828 262.904 684.828 265.736C684.828 268.44 686.5 270.24 689.052 270.24ZM686.38 264.936C686.58 263.296 687.484 262.4 689.036 262.4C690.5 262.4 691.324 263.24 691.5 264.936H686.38ZM698.153 270.24C699.321 270.24 700.225 269.784 700.857 269.024V270H702.129V258.48H700.697V262.144C700.081 261.496 699.225 261.12 698.145 261.12C695.745 261.12 694.281 263.08 694.281 265.672C694.281 268.264 695.737 270.24 698.153 270.24ZM695.793 265.672C695.793 263.848 696.609 262.424 698.369 262.424C700.057 262.424 700.857 263.76 700.857 265.672C700.857 267.568 700.073 268.936 698.329 268.936C696.625 268.936 695.793 267.512 695.793 265.672ZM511.569 280.888V281.36H510.105V282.536H511.569V290H512.993V282.536H515.265V281.36H512.993V280.664C512.993 279.84 513.401 279.424 514.249 279.424H515.265V278.24H514.169C513.513 278.24 512.705 278.264 512.113 278.912C511.601 279.472 511.569 280.224 511.569 280.888ZM516.542 290H517.974V285.664C517.974 284.64 518.182 283.624 519.022 283.024C519.622 282.584 520.398 282.544 520.998 282.696V281.36C520.23 281.192 519.214 281.352 518.55 281.888C518.262 282.096 518.006 282.392 517.814 282.728V281.36H516.542V290ZM526.034 290.24C528.602 290.24 530.202 288.384 530.202 285.672C530.202 283 528.626 281.12 526.034 281.12C523.498 281.12 521.874 282.96 521.874 285.672C521.874 288.352 523.45 290.24 526.034 290.24ZM523.386 285.672C523.386 283.784 524.226 282.472 526.034 282.472C527.802 282.472 528.69 283.728 528.69 285.672C528.69 287.576 527.818 288.888 526.034 288.888C524.29 288.888 523.386 287.624 523.386 285.672ZM542.3 284.472L542.292 290H543.716L543.724 284.16C543.724 282.32 542.62 281.136 540.82 281.136C539.684 281.136 538.716 281.672 538.204 282.56C537.74 281.656 536.852 281.136 535.684 281.136C534.652 281.136 533.772 281.576 533.228 282.28V281.36H531.956V290H533.388V284.512C533.388 283.248 534.14 282.408 535.268 282.408C536.396 282.408 537.14 283.216 537.14 284.528L537.132 290H538.548L538.556 284.512C538.556 283.056 539.476 282.408 540.444 282.408C541.532 282.408 542.3 283.184 542.3 284.472ZM552.403 290.24C553.571 290.24 554.475 289.784 555.107 289.024V290H556.379V278.48H554.947V282.144C554.331 281.496 553.475 281.12 552.395 281.12C549.995 281.12 548.531 283.08 548.531 285.672C548.531 288.264 549.987 290.24 552.403 290.24ZM550.043 285.672C550.043 283.848 550.859 282.424 552.619 282.424C554.307 282.424 555.107 283.76 555.107 285.672C555.107 287.568 554.323 288.936 552.579 288.936C550.875 288.936 550.043 287.512 550.043 285.672ZM562.3 290.24C564.868 290.24 566.468 288.384 566.468 285.672C566.468 283 564.892 281.12 562.3 281.12C559.764 281.12 558.14 282.96 558.14 285.672C558.14 288.352 559.716 290.24 562.3 290.24ZM559.652 285.672C559.652 283.784 560.492 282.472 562.3 282.472C564.068 282.472 564.956 283.728 564.956 285.672C564.956 287.576 564.084 288.888 562.3 288.888C560.556 288.888 559.652 287.624 559.652 285.672ZM569.757 290H570.941L573.029 283.432L575.117 290H576.301L578.941 281.36H577.533L575.597 287.68L573.661 281.36H572.405L570.461 287.68L568.533 281.36L567.117 281.352L569.757 290ZM586.538 285.672V290H587.978V285.224C587.978 283.584 587.322 281.136 584.538 281.136C583.29 281.136 582.298 281.616 581.658 282.472V281.36H580.378V290H581.818V285.448C581.818 283.448 582.762 282.488 584.194 282.488C586.018 282.488 586.538 284.048 586.538 285.672ZM593.322 290.232C595.474 290.232 596.778 289.224 596.778 287.552C596.778 286.216 596.034 285.576 593.754 284.992C591.722 284.48 591.282 284.208 591.282 283.576C591.282 282.84 592.05 282.36 593.17 282.392C594.346 282.424 595.146 282.992 595.29 283.912L596.746 283.648C596.562 282.128 595.138 281.12 593.17 281.12C591.178 281.12 589.85 282.128 589.85 283.648C589.85 284.888 590.578 285.48 592.866 286.088C594.978 286.656 595.306 286.864 595.306 287.592C595.306 288.44 594.586 288.96 593.41 288.96C592.162 288.96 591.266 288.376 591.034 287.432L589.578 287.664C589.874 289.288 591.258 290.232 593.322 290.232ZM603.366 290V288.776C602.182 288.96 601.318 288.912 600.934 288.224C600.726 287.864 600.758 287.384 600.758 286.672V282.536H603.366V281.36H600.758V278.96H599.334V281.36H597.582V282.536H599.334V286.736C599.334 287.632 599.286 288.288 599.63 288.96C600.23 290.136 601.822 290.312 603.366 290ZM605.12 290H606.552V285.664C606.552 284.64 606.76 283.624 607.6 283.024C608.2 282.584 608.976 282.544 609.576 282.696V281.36C608.808 281.192 607.792 281.352 607.128 281.888C606.84 282.096 606.584 282.392 606.392 282.728V281.36H605.12V290ZM614.677 290.24C616.349 290.24 617.781 289.368 618.461 287.84L617.093 287.368C616.613 288.352 615.749 288.888 614.613 288.888C613.021 288.888 612.093 287.872 611.981 286.08H618.605C618.733 283.008 617.213 281.12 614.613 281.12C612.101 281.12 610.453 282.904 610.453 285.736C610.453 288.44 612.125 290.24 614.677 290.24ZM612.005 284.936C612.205 283.296 613.109 282.4 614.661 282.4C616.125 282.4 616.949 283.24 617.125 284.936H612.005ZM622.685 290.24C624.125 290.24 625.197 289.712 625.885 288.656V290H627.149V284.656C627.149 283.976 627.109 283.344 626.869 282.808C626.373 281.68 625.197 281.12 623.637 281.12C621.685 281.12 620.477 282.04 620.069 283.552L621.421 283.96C621.733 282.904 622.573 282.448 623.621 282.448C625.117 282.448 625.709 283.104 625.749 284.48C624.469 284.656 622.949 284.84 621.869 285.128C620.557 285.512 619.749 286.304 619.749 287.664C619.749 289.056 620.749 290.24 622.685 290.24ZM621.165 287.656C621.165 286.848 621.797 286.456 622.509 286.232C623.349 285.992 624.517 285.856 625.733 285.696C625.725 286.088 625.709 286.64 625.589 287.056C625.381 288.128 624.437 289.048 622.901 289.048C621.669 289.048 621.165 288.368 621.165 287.656ZM639.565 284.472L639.557 290H640.981L640.989 284.16C640.989 282.32 639.885 281.136 638.085 281.136C636.949 281.136 635.981 281.672 635.469 282.56C635.005 281.656 634.117 281.136 632.949 281.136C631.917 281.136 631.037 281.576 630.493 282.28V281.36H629.221V290H630.653V284.512C630.653 283.248 631.405 282.408 632.533 282.408C633.661 282.408 634.405 283.216 634.405 284.528L634.397 290H635.813L635.821 284.512C635.821 283.056 636.741 282.408 637.709 282.408C638.797 282.408 639.565 283.184 639.565 284.472ZM648.732 290.24C650.172 290.24 651.244 289.712 651.932 288.656V290H653.196V284.656C653.196 283.976 653.156 283.344 652.916 282.808C652.42 281.68 651.244 281.12 649.684 281.12C647.732 281.12 646.524 282.04 646.116 283.552L647.468 283.96C647.78 282.904 648.62 282.448 649.668 282.448C651.164 282.448 651.756 283.104 651.796 284.48C650.516 284.656 648.996 284.84 647.916 285.128C646.604 285.512 645.796 286.304 645.796 287.664C645.796 289.056 646.796 290.24 648.732 290.24ZM647.212 287.656C647.212 286.848 647.844 286.456 648.556 286.232C649.396 285.992 650.564 285.856 651.78 285.696C651.772 286.088 651.756 286.64 651.636 287.056C651.428 288.128 650.484 289.048 648.948 289.048C647.716 289.048 647.212 288.368 647.212 287.656ZM661.428 285.672V290H662.868V285.224C662.868 283.584 662.212 281.136 659.428 281.136C658.18 281.136 657.188 281.616 656.548 282.472V281.36H655.268V290H656.708V285.448C656.708 283.448 657.652 282.488 659.084 282.488C660.908 282.488 661.428 284.048 661.428 285.672ZM667.404 290.24C668.844 290.24 669.916 289.712 670.604 288.656V290H671.868V284.656C671.868 283.976 671.828 283.344 671.588 282.808C671.092 281.68 669.916 281.12 668.356 281.12C666.404 281.12 665.196 282.04 664.788 283.552L666.14 283.96C666.452 282.904 667.292 282.448 668.34 282.448C669.836 282.448 670.428 283.104 670.468 284.48C669.188 284.656 667.668 284.84 666.588 285.128C665.276 285.512 664.468 286.304 664.468 287.664C664.468 289.056 665.468 290.24 667.404 290.24ZM665.884 287.656C665.884 286.848 666.516 286.456 667.228 286.232C668.068 285.992 669.236 285.856 670.452 285.696C670.444 286.088 670.428 286.64 670.308 287.056C670.1 288.128 669.156 289.048 667.62 289.048C666.388 289.048 665.884 288.368 665.884 287.656ZM674.108 290H675.532V278.48H674.108V290ZM679.133 293.84H680.517L685.22 281.36H683.773L681.245 288.16L678.549 281.36H677.053L680.557 289.968L679.133 293.84ZM689.806 290.232C691.958 290.232 693.262 289.224 693.262 287.552C693.262 286.216 692.518 285.576 690.238 284.992C688.206 284.48 687.766 284.208 687.766 283.576C687.766 282.84 688.534 282.36 689.654 282.392C690.83 282.424 691.63 282.992 691.774 283.912L693.23 283.648C693.046 282.128 691.622 281.12 689.654 281.12C687.662 281.12 686.334 282.128 686.334 283.648C686.334 284.888 687.062 285.48 689.35 286.088C691.462 286.656 691.79 286.864 691.79 287.592C691.79 288.44 691.07 288.96 689.894 288.96C688.646 288.96 687.75 288.376 687.518 287.432L686.062 287.664C686.358 289.288 687.742 290.232 689.806 290.232ZM695.186 279.832H696.61V278.36H695.186V279.832ZM695.186 290H696.61V281.36H695.186V290ZM702.275 290.232C704.427 290.232 705.731 289.224 705.731 287.552C705.731 286.216 704.987 285.576 702.707 284.992C700.675 284.48 700.235 284.208 700.235 283.576C700.235 282.84 701.003 282.36 702.123 282.392C703.299 282.424 704.099 282.992 704.243 283.912L705.699 283.648C705.515 282.128 704.091 281.12 702.123 281.12C700.131 281.12 698.803 282.128 698.803 283.648C698.803 284.888 699.531 285.48 701.819 286.088C703.931 286.656 704.259 286.864 704.259 287.592C704.259 288.44 703.539 288.96 702.363 288.96C701.115 288.96 700.219 288.376 699.987 287.432L698.531 287.664C698.827 289.288 700.211 290.232 702.275 290.232Z" fill="white"/>
    <path d="M734.447 250H735.871V239.832H739.799V238.48H730.519V239.832H734.447V250ZM740.276 250H741.708V245.664C741.708 244.64 741.916 243.624 742.756 243.024C743.356 242.584 744.132 242.544 744.732 242.696V241.36C743.964 241.192 742.948 241.352 742.284 241.888C741.996 242.096 741.74 242.392 741.548 242.728V241.36H740.276V250ZM746.405 239.832H747.829V238.36H746.405V239.832ZM746.405 250H747.829V241.36H746.405V250ZM760.565 244.472L760.557 250H761.981L761.989 244.16C761.989 242.32 760.885 241.136 759.085 241.136C757.949 241.136 756.981 241.672 756.469 242.56C756.005 241.656 755.117 241.136 753.949 241.136C752.917 241.136 752.037 241.576 751.493 242.28V241.36H750.221V250H751.653V244.512C751.653 243.248 752.405 242.408 753.533 242.408C754.661 242.408 755.405 243.216 755.405 244.528L755.397 250H756.813L756.821 244.512C756.821 243.056 757.741 242.408 758.709 242.408C759.797 242.408 760.565 243.184 760.565 244.472ZM768.1 240.888V241.36H766.636V242.536H768.1V250H769.524V242.536H771.796V241.36H769.524V240.664C769.524 239.84 769.932 239.424 770.78 239.424H771.796V238.24H770.7C770.044 238.24 769.236 238.264 768.644 238.912C768.132 239.472 768.1 240.224 768.1 240.888ZM773.468 239.832H774.892V238.36H773.468V239.832ZM773.468 250H774.892V241.36H773.468V250ZM777.292 250H778.724V245.664C778.724 244.64 778.932 243.624 779.772 243.024C780.372 242.584 781.148 242.544 781.748 242.696V241.36C780.98 241.192 779.964 241.352 779.3 241.888C779.012 242.096 778.756 242.392 778.564 242.728V241.36H777.292V250ZM786.212 250.232C788.364 250.232 789.668 249.224 789.668 247.552C789.668 246.216 788.924 245.576 786.644 244.992C784.612 244.48 784.172 244.208 784.172 243.576C784.172 242.84 784.94 242.36 786.06 242.392C787.236 242.424 788.036 242.992 788.18 243.912L789.636 243.648C789.452 242.128 788.028 241.12 786.06 241.12C784.068 241.12 782.74 242.128 782.74 243.648C782.74 244.888 783.468 245.48 785.756 246.088C787.868 246.656 788.196 246.864 788.196 247.592C788.196 248.44 787.476 248.96 786.3 248.96C785.052 248.96 784.156 248.376 783.924 247.432L782.468 247.664C782.764 249.288 784.148 250.232 786.212 250.232ZM796.257 250V248.776C795.073 248.96 794.209 248.912 793.825 248.224C793.617 247.864 793.649 247.384 793.649 246.672V242.536H796.257V241.36H793.649V238.96H792.225V241.36H790.473V242.536H792.225V246.736C792.225 247.632 792.177 248.288 792.521 248.96C793.121 250.136 794.713 250.312 796.257 250ZM803.222 250H804.67V238.48H803.222L801.054 239.776V241.368L803.222 240.056V250ZM811.314 250.24C813.522 250.24 815.09 248.824 815.09 246.712C815.09 245.512 814.578 244.464 813.578 243.832C814.394 243.264 814.794 242.392 814.794 241.392C814.794 239.448 813.346 238.24 811.314 238.24C809.282 238.24 807.834 239.448 807.834 241.392C807.834 242.384 808.258 243.264 809.058 243.824C808.05 244.472 807.554 245.512 807.554 246.712C807.554 248.824 809.106 250.24 811.314 250.24ZM809.058 246.712C809.058 245.296 809.954 244.536 811.314 244.536C812.674 244.536 813.578 245.296 813.578 246.712C813.578 248.12 812.658 248.88 811.314 248.88C809.97 248.88 809.058 248.12 809.058 246.712ZM809.346 241.392C809.346 240.208 810.146 239.616 811.314 239.616C812.482 239.616 813.282 240.208 813.282 241.392C813.282 242.576 812.482 243.168 811.314 243.168C810.146 243.168 809.346 242.576 809.346 241.392ZM824.338 250.24C826.754 250.24 828.21 248.264 828.21 245.672C828.21 243.08 826.746 241.12 824.346 241.12C823.266 241.12 822.41 241.496 821.794 242.144V238.48H820.362V250H821.634V249.024C822.266 249.784 823.17 250.24 824.338 250.24ZM821.634 245.672C821.634 243.76 822.434 242.424 824.122 242.424C825.882 242.424 826.698 243.848 826.698 245.672C826.698 247.512 825.866 248.936 824.162 248.936C822.418 248.936 821.634 247.568 821.634 245.672ZM829.907 250H831.475V248.432H829.907V250ZM837.932 250.24C840.348 250.24 841.804 248.264 841.804 245.672C841.804 243.08 840.34 241.12 837.94 241.12C836.764 241.12 835.86 241.568 835.228 242.328V241.36H833.956V253.84H835.388V249.2C836.004 249.856 836.86 250.24 837.932 250.24ZM835.228 245.672C835.228 243.76 836.028 242.424 837.716 242.424C839.476 242.424 840.292 243.848 840.292 245.672C840.292 247.512 839.46 248.936 837.756 248.936C836.012 248.936 835.228 247.568 835.228 245.672ZM843.501 250H845.069V248.432H843.501V250ZM749.099 272.928L750.155 272.12C748.283 269.92 747.427 267.336 747.419 264.72C747.427 262.08 748.267 259.56 750.155 257.312L749.099 256.512C747.227 258.672 746.083 261.752 746.115 264.72C746.083 267.688 747.227 270.768 749.099 272.928ZM755.052 270.24C756.724 270.24 758.156 269.368 758.836 267.84L757.468 267.368C756.988 268.352 756.124 268.888 754.988 268.888C753.396 268.888 752.468 267.872 752.356 266.08H758.98C759.108 263.008 757.588 261.12 754.988 261.12C752.476 261.12 750.828 262.904 750.828 265.736C750.828 268.44 752.5 270.24 755.052 270.24ZM752.38 264.936C752.58 263.296 753.484 262.4 755.036 262.4C756.5 262.4 757.324 263.24 757.5 264.936H752.38ZM760.704 270H762.272V268.432H760.704V270ZM768.257 274.08C770.321 274.08 771.681 273.224 772.017 271.384C772.097 270.96 772.121 270.536 772.121 270.056V261.36H770.857V262.328C770.225 261.568 769.321 261.12 768.145 261.12C765.745 261.12 764.281 263.08 764.281 265.672C764.281 268.264 765.737 270.24 768.153 270.24C769.217 270.24 770.073 269.856 770.689 269.208V270.04C770.705 271.8 769.913 272.704 768.265 272.704C767.425 272.704 766.569 272.344 766.145 271.496L764.841 272.184C765.561 273.472 766.897 274.08 768.257 274.08ZM765.793 265.672C765.793 263.848 766.609 262.424 768.369 262.424C770.057 262.424 770.857 263.76 770.857 265.672C770.857 267.568 770.073 268.936 768.329 268.936C766.625 268.936 765.793 267.512 765.793 265.672ZM774.61 270H776.178V268.432H774.61V270ZM785.838 270.24C788.254 270.24 789.71 268.264 789.71 265.672C789.71 263.08 788.246 261.12 785.846 261.12C784.67 261.12 783.766 261.568 783.134 262.328V261.36H781.862V273.84H783.294V269.2C783.91 269.856 784.766 270.24 785.838 270.24ZM783.134 265.672C783.134 263.76 783.934 262.424 785.622 262.424C787.382 262.424 788.198 263.848 788.198 265.672C788.198 267.512 787.366 268.936 785.662 268.936C783.918 268.936 783.134 267.568 783.134 265.672ZM791.464 270H792.896V265.664C792.896 264.64 793.104 263.624 793.944 263.024C794.544 262.584 795.32 262.544 795.92 262.696V261.36C795.152 261.192 794.136 261.352 793.472 261.888C793.184 262.096 792.928 262.392 792.736 262.728V261.36H791.464V270ZM797.593 259.832H799.017V258.36H797.593V259.832ZM797.593 270H799.017V261.36H797.593V270ZM811.753 264.472L811.745 270H813.169L813.177 264.16C813.177 262.32 812.073 261.136 810.273 261.136C809.137 261.136 808.169 261.672 807.657 262.56C807.193 261.656 806.305 261.136 805.137 261.136C804.105 261.136 803.225 261.576 802.681 262.28V261.36H801.409V270H802.841V264.512C802.841 263.248 803.593 262.408 804.721 262.408C805.849 262.408 806.593 263.216 806.593 264.528L806.585 270H808.001L808.009 264.512C808.009 263.056 808.929 262.408 809.897 262.408C810.985 262.408 811.753 263.184 811.753 264.472ZM818.927 270.24C820.599 270.24 822.031 269.368 822.711 267.84L821.343 267.368C820.863 268.352 819.999 268.888 818.863 268.888C817.271 268.888 816.343 267.872 816.231 266.08H822.855C822.983 263.008 821.463 261.12 818.863 261.12C816.351 261.12 814.703 262.904 814.703 265.736C814.703 268.44 816.375 270.24 818.927 270.24ZM816.255 264.936C816.455 263.296 817.359 262.4 818.911 262.4C820.375 262.4 821.199 263.24 821.375 264.936H816.255ZM824.636 270H826.068V265.664C826.068 264.64 826.276 263.624 827.116 263.024C827.716 262.584 828.492 262.544 829.092 262.696V261.36C828.324 261.192 827.308 261.352 826.644 261.888C826.356 262.096 826.1 262.392 825.908 262.728V261.36H824.636V270ZM829.852 272.12L830.908 272.928C832.78 270.768 833.924 267.688 833.892 264.72C833.924 261.752 832.78 258.672 830.908 256.512L829.852 257.312C831.74 259.56 832.58 262.08 832.588 264.72C832.58 267.336 831.724 269.92 829.852 272.12ZM759.772 279.832H761.196V278.36H759.772V279.832ZM759.772 290H761.196V281.36H759.772V290ZM769.749 285.672V290H771.189V285.224C771.189 283.584 770.533 281.136 767.749 281.136C766.501 281.136 765.509 281.616 764.869 282.472V281.36H763.589V290H765.029V285.448C765.029 283.448 765.973 282.488 767.405 282.488C769.229 282.488 769.749 284.048 769.749 285.672ZM776.472 290H777.896V285.744H781.264L783.328 290H784.96L782.736 285.432C784.04 284.888 784.72 283.632 784.72 282.112C784.72 280.28 783.736 278.832 781.872 278.544C781.576 278.496 781.248 278.48 781.024 278.48H776.472V290ZM777.896 284.392V279.832H780.976C781.176 279.832 781.456 279.848 781.696 279.904C782.8 280.152 783.264 281.152 783.264 282.112C783.264 283.072 782.8 284.072 781.696 284.32C781.456 284.376 781.176 284.392 780.976 284.392H777.896ZM786.402 289.992H794.058V288.632H788.594L792.306 285.296C793.49 284.248 794.058 283.488 794.058 281.976C794.058 279.856 792.442 278.24 790.306 278.24C788.09 278.24 786.458 279.784 786.458 281.952H787.914C787.898 280.696 788.906 279.6 790.282 279.6C791.61 279.6 792.602 280.632 792.602 281.96C792.602 282.688 792.37 283.352 791.522 284.112L786.41 288.712L786.402 289.992ZM799.999 280.888V281.36H798.535V282.536H799.999V290H801.423V282.536H803.695V281.36H801.423V280.664C801.423 279.84 801.831 279.424 802.679 279.424H803.695V278.24H802.599C801.943 278.24 801.135 278.264 800.543 278.912C800.031 279.472 799.999 280.224 799.999 280.888ZM805.366 279.832H806.79V278.36H805.366V279.832ZM805.366 290H806.79V281.36H805.366V290ZM809.35 290H810.774V278.48H809.35V290ZM816.919 290.24C818.591 290.24 820.023 289.368 820.703 287.84L819.335 287.368C818.855 288.352 817.991 288.888 816.855 288.888C815.263 288.888 814.335 287.872 814.223 286.08H820.847C820.975 283.008 819.455 281.12 816.855 281.12C814.343 281.12 812.695 282.904 812.695 285.736C812.695 288.44 814.367 290.24 816.919 290.24ZM814.247 284.936C814.447 283.296 815.351 282.4 816.903 282.4C818.367 282.4 819.191 283.24 819.367 284.936H814.247Z" fill="white"/>
    <path d="M294.242 64.24C296.914 64.24 298.786 62.48 298.786 59.8V52.48H297.346V59.68C297.346 61.848 295.714 62.896 294.242 62.896C292.786 62.896 291.138 61.864 291.138 59.68V52.48L289.698 52.488V59.8C289.698 62.488 291.57 64.24 294.242 64.24ZM301.026 64H302.378V55.608L306.29 64H307.05L310.962 55.608V63.992H312.314V52.48H311.002L306.674 61.656L302.322 52.48H301.026V64ZM314.718 64H316.142V52.48H314.718V64ZM285.475 88.08C287.539 88.08 288.899 87.224 289.235 85.384C289.315 84.96 289.339 84.536 289.339 84.056V75.36H288.075V76.328C287.443 75.568 286.539 75.12 285.363 75.12C282.963 75.12 281.499 77.08 281.499 79.672C281.499 82.264 282.955 84.24 285.371 84.24C286.435 84.24 287.291 83.856 287.907 83.208V84.04C287.923 85.8 287.131 86.704 285.483 86.704C284.643 86.704 283.787 86.344 283.363 85.496L282.059 86.184C282.779 87.472 284.115 88.08 285.475 88.08ZM283.011 79.672C283.011 77.848 283.827 76.424 285.587 76.424C287.275 76.424 288.075 77.76 288.075 79.672C288.075 81.568 287.291 82.936 285.547 82.936C283.843 82.936 283.011 81.512 283.011 79.672ZM291.573 84H293.005V79.664C293.005 78.64 293.213 77.624 294.053 77.024C294.653 76.584 295.429 76.544 296.029 76.696V75.36C295.261 75.192 294.245 75.352 293.581 75.888C293.293 76.096 293.037 76.392 292.845 76.728V75.36H291.573V84ZM301.066 84.24C303.634 84.24 305.234 82.384 305.234 79.672C305.234 77 303.658 75.12 301.066 75.12C298.53 75.12 296.906 76.96 296.906 79.672C296.906 82.352 298.482 84.24 301.066 84.24ZM298.418 79.672C298.418 77.784 299.258 76.472 301.066 76.472C302.834 76.472 303.722 77.728 303.722 79.672C303.722 81.576 302.85 82.888 301.066 82.888C299.322 82.888 298.418 81.624 298.418 79.672ZM310.275 84.224C311.523 84.224 312.515 83.744 313.155 82.888V84H314.427V75.36H312.995V79.912C312.995 81.912 312.051 82.872 310.619 82.872C308.795 82.872 308.275 81.312 308.275 79.688V75.36H306.835V80.136C306.835 81.776 307.491 84.224 310.275 84.224ZM320.635 84.24C323.051 84.24 324.507 82.264 324.507 79.672C324.507 77.08 323.043 75.12 320.643 75.12C319.467 75.12 318.563 75.568 317.931 76.328V75.36H316.659V87.84H318.091V83.2C318.707 83.856 319.563 84.24 320.635 84.24ZM317.931 79.672C317.931 77.76 318.731 76.424 320.419 76.424C322.179 76.424 322.995 77.848 322.995 79.672C322.995 81.512 322.163 82.936 320.459 82.936C318.715 82.936 317.931 81.568 317.931 79.672Z" fill="white"/>
    <path d="M496.112 64H503.392V62.648H497.536V58.792H502.432V57.44H497.536V53.832H503.392V52.48H496.112V64ZM504.355 64H506.059L508.491 60.736L510.907 64H512.611L509.299 59.632L512.531 55.36H510.835L508.491 58.528L506.123 55.36H504.427L507.659 59.632L504.355 64ZM516.037 64.24C517.477 64.24 518.549 63.712 519.237 62.656V64H520.501V58.656C520.501 57.976 520.461 57.344 520.221 56.808C519.725 55.68 518.549 55.12 516.989 55.12C515.037 55.12 513.829 56.04 513.421 57.552L514.773 57.96C515.085 56.904 515.925 56.448 516.973 56.448C518.469 56.448 519.061 57.104 519.101 58.48C517.821 58.656 516.301 58.84 515.221 59.128C513.909 59.512 513.101 60.304 513.101 61.664C513.101 63.056 514.101 64.24 516.037 64.24ZM514.517 61.656C514.517 60.848 515.149 60.456 515.861 60.232C516.701 59.992 517.869 59.856 519.085 59.696C519.077 60.088 519.061 60.64 518.941 61.056C518.733 62.128 517.789 63.048 516.253 63.048C515.021 63.048 514.517 62.368 514.517 61.656ZM526.221 64.24C528.005 64.24 529.309 63.368 529.917 61.752L528.477 61.376C528.085 62.36 527.341 62.888 526.221 62.888C524.501 62.888 523.629 61.608 523.613 59.68C523.629 57.808 524.445 56.472 526.221 56.472C527.269 56.472 528.141 57.056 528.509 58.056L529.917 57.632C529.461 56.08 528.053 55.12 526.237 55.12C523.637 55.12 522.125 56.984 522.101 59.68C522.125 62.328 523.589 64.24 526.221 64.24ZM536.374 64V62.776C535.19 62.96 534.326 62.912 533.942 62.224C533.734 61.864 533.766 61.384 533.766 60.672V56.536H536.374V55.36H533.766V52.96H532.342V55.36H530.59V56.536H532.342V60.736C532.342 61.632 532.294 62.288 532.638 62.96C533.238 64.136 534.83 64.312 536.374 64ZM503.604 78.472L503.596 84H505.02L505.028 78.16C505.028 76.32 503.924 75.136 502.124 75.136C500.988 75.136 500.02 75.672 499.508 76.56C499.044 75.656 498.156 75.136 496.988 75.136C495.956 75.136 495.076 75.576 494.532 76.28V75.36H493.26V84H494.692V78.512C494.692 77.248 495.444 76.408 496.572 76.408C497.7 76.408 498.444 77.216 498.444 78.528L498.436 84H499.852L499.86 78.512C499.86 77.056 500.78 76.408 501.748 76.408C502.836 76.408 503.604 77.184 503.604 78.472ZM509.568 84.24C511.008 84.24 512.08 83.712 512.768 82.656V84H514.032V78.656C514.032 77.976 513.992 77.344 513.752 76.808C513.256 75.68 512.08 75.12 510.52 75.12C508.568 75.12 507.36 76.04 506.952 77.552L508.304 77.96C508.616 76.904 509.456 76.448 510.504 76.448C512 76.448 512.592 77.104 512.632 78.48C511.352 78.656 509.832 78.84 508.752 79.128C507.44 79.512 506.632 80.304 506.632 81.664C506.632 83.056 507.632 84.24 509.568 84.24ZM508.048 81.656C508.048 80.848 508.68 80.456 509.392 80.232C510.232 79.992 511.4 79.856 512.616 79.696C512.608 80.088 512.592 80.64 512.472 81.056C512.264 82.128 511.32 83.048 509.784 83.048C508.552 83.048 508.048 82.368 508.048 81.656ZM520.936 84V82.776C519.752 82.96 518.888 82.912 518.504 82.224C518.296 81.864 518.328 81.384 518.328 80.672V76.536H520.936V75.36H518.328V72.96H516.904V75.36H515.152V76.536H516.904V80.736C516.904 81.632 516.856 82.288 517.2 82.96C517.8 84.136 519.392 84.312 520.936 84ZM525.971 84.24C527.755 84.24 529.059 83.368 529.667 81.752L528.227 81.376C527.835 82.36 527.091 82.888 525.971 82.888C524.251 82.888 523.379 81.608 523.363 79.68C523.379 77.808 524.195 76.472 525.971 76.472C527.019 76.472 527.891 77.056 528.259 78.056L529.667 77.632C529.211 76.08 527.803 75.12 525.987 75.12C523.387 75.12 521.875 76.984 521.851 79.68C521.875 82.328 523.339 84.24 525.971 84.24ZM537.452 79.672V84H538.892V79.224C538.892 77.584 538.236 75.136 535.452 75.136C534.204 75.136 533.212 75.616 532.572 76.472V72.48H531.292V84H532.732V79.448C532.732 77.448 533.676 76.488 535.108 76.488C536.932 76.488 537.452 78.048 537.452 79.672Z" fill="white"/>
    <path d="M604.052 64.24C606.444 64.24 608.364 63.016 608.364 60.784C608.364 58.568 606.468 58 605.468 57.72L603.276 57.088C602.42 56.848 601.356 56.48 601.356 55.416C601.356 54.352 602.452 53.584 603.868 53.6C605.332 53.616 606.54 54.48 606.78 55.88L608.292 55.616C607.868 53.52 606.204 52.264 603.884 52.248C601.588 52.24 599.852 53.44 599.852 55.48C599.852 57.184 601.068 57.928 602.348 58.304L605.284 59.176C606.108 59.424 606.892 59.856 606.892 60.864C606.892 62.12 605.668 62.888 604.124 62.888C602.516 62.888 601.244 62.032 600.876 60.576L599.404 60.808C599.788 62.928 601.604 64.24 604.052 64.24ZM613.786 64.24C615.458 64.24 616.89 63.368 617.57 61.84L616.202 61.368C615.722 62.352 614.858 62.888 613.722 62.888C612.13 62.888 611.202 61.872 611.09 60.08H617.714C617.842 57.008 616.322 55.12 613.722 55.12C611.21 55.12 609.562 56.904 609.562 59.736C609.562 62.44 611.234 64.24 613.786 64.24ZM611.114 58.936C611.314 57.296 612.218 56.4 613.77 56.4C615.234 56.4 616.058 57.24 616.234 58.936H611.114ZM623.229 64.24C625.645 64.24 627.101 62.264 627.101 59.672C627.101 57.08 625.637 55.12 623.237 55.12C622.061 55.12 621.157 55.568 620.525 56.328V55.36H619.253V67.84H620.685V63.2C621.301 63.856 622.157 64.24 623.229 64.24ZM620.525 59.672C620.525 57.76 621.325 56.424 623.013 56.424C624.773 56.424 625.589 57.848 625.589 59.672C625.589 61.512 624.757 62.936 623.053 62.936C621.309 62.936 620.525 61.568 620.525 59.672ZM631.31 64.24C632.75 64.24 633.822 63.712 634.51 62.656V64H635.774V58.656C635.774 57.976 635.734 57.344 635.494 56.808C634.998 55.68 633.822 55.12 632.262 55.12C630.31 55.12 629.102 56.04 628.694 57.552L630.046 57.96C630.358 56.904 631.198 56.448 632.246 56.448C633.742 56.448 634.334 57.104 634.374 58.48C633.094 58.656 631.574 58.84 630.494 59.128C629.182 59.512 628.374 60.304 628.374 61.664C628.374 63.056 629.374 64.24 631.31 64.24ZM629.79 61.656C629.79 60.848 630.422 60.456 631.134 60.232C631.974 59.992 633.142 59.856 634.358 59.696C634.35 60.088 634.334 60.64 634.214 61.056C634.006 62.128 633.062 63.048 631.526 63.048C630.294 63.048 629.79 62.368 629.79 61.656ZM637.854 64H639.286V59.664C639.286 58.64 639.494 57.624 640.334 57.024C640.934 56.584 641.71 56.544 642.31 56.696V55.36C641.542 55.192 640.526 55.352 639.862 55.888C639.574 56.096 639.318 56.392 639.126 56.728V55.36H637.854V64ZM645.998 64.24C647.438 64.24 648.51 63.712 649.198 62.656V64H650.462V58.656C650.462 57.976 650.422 57.344 650.182 56.808C649.686 55.68 648.51 55.12 646.95 55.12C644.998 55.12 643.79 56.04 643.382 57.552L644.734 57.96C645.046 56.904 645.886 56.448 646.934 56.448C648.43 56.448 649.022 57.104 649.062 58.48C647.782 58.656 646.262 58.84 645.182 59.128C643.87 59.512 643.062 60.304 643.062 61.664C643.062 63.056 644.062 64.24 645.998 64.24ZM644.478 61.656C644.478 60.848 645.11 60.456 645.822 60.232C646.662 59.992 647.83 59.856 649.046 59.696C649.038 60.088 649.022 60.64 648.902 61.056C648.694 62.128 647.75 63.048 646.214 63.048C644.982 63.048 644.478 62.368 644.478 61.656ZM657.366 64V62.776C656.182 62.96 655.318 62.912 654.934 62.224C654.726 61.864 654.758 61.384 654.758 60.672V56.536H657.366V55.36H654.758V52.96H653.334V55.36H651.582V56.536H653.334V60.736C653.334 61.632 653.286 62.288 653.63 62.96C654.23 64.136 655.822 64.312 657.366 64ZM662.505 64.24C664.177 64.24 665.609 63.368 666.289 61.84L664.921 61.368C664.441 62.352 663.577 62.888 662.441 62.888C660.849 62.888 659.921 61.872 659.809 60.08H666.433C666.561 57.008 665.041 55.12 662.441 55.12C659.929 55.12 658.281 56.904 658.281 59.736C658.281 62.44 659.953 64.24 662.505 64.24ZM659.833 58.936C660.033 57.296 660.937 56.4 662.489 56.4C663.953 56.4 664.777 57.24 664.953 58.936H659.833ZM671.478 64.232C673.63 64.232 674.934 63.224 674.934 61.552C674.934 60.216 674.19 59.576 671.91 58.992C669.878 58.48 669.438 58.208 669.438 57.576C669.438 56.84 670.206 56.36 671.326 56.392C672.502 56.424 673.302 56.992 673.446 57.912L674.902 57.648C674.718 56.128 673.294 55.12 671.326 55.12C669.334 55.12 668.006 56.128 668.006 57.648C668.006 58.888 668.734 59.48 671.022 60.088C673.134 60.656 673.462 60.864 673.462 61.592C673.462 62.44 672.742 62.96 671.566 62.96C670.318 62.96 669.422 62.376 669.19 61.432L667.734 61.664C668.03 63.288 669.414 64.232 671.478 64.232ZM683.869 64.24C686.285 64.24 687.741 62.264 687.741 59.672C687.741 57.08 686.277 55.12 683.877 55.12C682.701 55.12 681.797 55.568 681.165 56.328V55.36H679.893V67.84H681.325V63.2C681.941 63.856 682.797 64.24 683.869 64.24ZM681.165 59.672C681.165 57.76 681.965 56.424 683.653 56.424C685.413 56.424 686.229 57.848 686.229 59.672C686.229 61.512 685.397 62.936 683.693 62.936C681.949 62.936 681.165 61.568 681.165 59.672ZM691.951 64.24C693.391 64.24 694.463 63.712 695.151 62.656V64H696.415V58.656C696.415 57.976 696.375 57.344 696.135 56.808C695.639 55.68 694.463 55.12 692.903 55.12C690.951 55.12 689.743 56.04 689.335 57.552L690.687 57.96C690.999 56.904 691.839 56.448 692.887 56.448C694.383 56.448 694.975 57.104 695.015 58.48C693.735 58.656 692.215 58.84 691.135 59.128C689.823 59.512 689.015 60.304 689.015 61.664C689.015 63.056 690.015 64.24 691.951 64.24ZM690.431 61.656C690.431 60.848 691.063 60.456 691.775 60.232C692.615 59.992 693.783 59.856 694.999 59.696C694.991 60.088 694.975 60.64 694.855 61.056C694.647 62.128 693.703 63.048 692.167 63.048C690.935 63.048 690.431 62.368 690.431 61.656ZM703.319 64V62.776C702.135 62.96 701.271 62.912 700.887 62.224C700.679 61.864 700.711 61.384 700.711 60.672V56.536H704.911V60.736C704.911 61.632 704.863 62.288 705.207 62.96C705.807 64.136 707.399 64.312 708.943 64V62.776C707.759 62.96 706.895 62.912 706.511 62.224C706.303 61.864 706.335 61.384 706.335 60.672V56.536H708.943V55.36H706.335V52.96H704.911V55.36H700.711V52.96H699.287V55.36H697.535V56.536H699.287V60.736C699.287 61.632 699.239 62.288 699.583 62.96C700.183 64.136 701.775 64.312 703.319 64ZM714.442 64.24C716.114 64.24 717.546 63.368 718.226 61.84L716.858 61.368C716.378 62.352 715.514 62.888 714.378 62.888C712.786 62.888 711.858 61.872 711.746 60.08H718.37C718.498 57.008 716.978 55.12 714.378 55.12C711.866 55.12 710.218 56.904 710.218 59.736C710.218 62.44 711.89 64.24 714.442 64.24ZM711.77 58.936C711.97 57.296 712.874 56.4 714.426 56.4C715.89 56.4 716.714 57.24 716.89 58.936H711.77ZM720.151 64H721.583V59.664C721.583 58.64 721.791 57.624 722.631 57.024C723.231 56.584 724.007 56.544 724.607 56.696V55.36C723.839 55.192 722.823 55.352 722.159 55.888C721.871 56.096 721.615 56.392 721.423 56.728V55.36H720.151V64ZM732.272 59.672V64H733.712V59.224C733.712 57.584 733.056 55.136 730.272 55.136C729.024 55.136 728.032 55.616 727.392 56.472V55.36H726.112V64H727.552V59.448C727.552 57.448 728.496 56.488 729.928 56.488C731.752 56.488 732.272 58.048 732.272 59.672ZM739.056 64.232C741.208 64.232 742.512 63.224 742.512 61.552C742.512 60.216 741.768 59.576 739.488 58.992C737.456 58.48 737.016 58.208 737.016 57.576C737.016 56.84 737.784 56.36 738.904 56.392C740.08 56.424 740.88 56.992 741.024 57.912L742.48 57.648C742.296 56.128 740.872 55.12 738.904 55.12C736.912 55.12 735.584 56.128 735.584 57.648C735.584 58.888 736.312 59.48 738.6 60.088C740.712 60.656 741.04 60.864 741.04 61.592C741.04 62.44 740.32 62.96 739.144 62.96C737.896 62.96 737 62.376 736.768 61.432L735.312 61.664C735.608 63.288 736.992 64.232 739.056 64.232ZM618.694 74.888V75.36H617.23V76.536H618.694V84H620.118V76.536H622.39V75.36H620.118V74.664C620.118 73.84 620.526 73.424 621.374 73.424H622.39V72.24H621.294C620.638 72.24 619.83 72.264 619.238 72.912C618.726 73.472 618.694 74.224 618.694 74.888ZM627.034 84.24C629.602 84.24 631.202 82.384 631.202 79.672C631.202 77 629.626 75.12 627.034 75.12C624.498 75.12 622.874 76.96 622.874 79.672C622.874 82.352 624.45 84.24 627.034 84.24ZM624.386 79.672C624.386 77.784 625.226 76.472 627.034 76.472C628.802 76.472 629.69 77.728 629.69 79.672C629.69 81.576 628.818 82.888 627.034 82.888C625.29 82.888 624.386 81.624 624.386 79.672ZM632.964 84H634.396V79.664C634.396 78.64 634.604 77.624 635.444 77.024C636.044 76.584 636.82 76.544 637.42 76.696V75.36C636.652 75.192 635.636 75.352 634.972 75.888C634.684 76.096 634.428 76.392 634.236 76.728V75.36H632.964V84ZM642.136 84H643.56V79.744H646.928L648.992 84H650.624L648.4 79.432C649.704 78.888 650.384 77.632 650.384 76.112C650.384 74.28 649.4 72.832 647.536 72.544C647.24 72.496 646.912 72.48 646.688 72.48H642.136V84ZM643.56 78.392V73.832H646.64C646.84 73.832 647.12 73.848 647.36 73.904C648.464 74.152 648.928 75.152 648.928 76.112C648.928 77.072 648.464 78.072 647.36 78.32C647.12 78.376 646.84 78.392 646.64 78.392H643.56ZM654.394 84H655.842V72.48H654.394L652.226 73.776V75.368L654.394 74.056V84ZM663.377 72.48H661.929L665.001 84H666.449L663.377 72.48ZM671.729 84H673.153V79.744H676.521L678.585 84H680.217L677.993 79.432C679.297 78.888 679.977 77.632 679.977 76.112C679.977 74.28 678.993 72.832 677.129 72.544C676.833 72.496 676.505 72.48 676.281 72.48H671.729V84ZM673.153 78.392V73.832H676.233C676.433 73.832 676.713 73.848 676.953 73.904C678.057 74.152 678.521 75.152 678.521 76.112C678.521 77.072 678.057 78.072 676.953 78.32C676.713 78.376 676.433 78.392 676.233 78.392H673.153ZM681.659 83.992H689.315V82.632H683.851L687.563 79.296C688.747 78.248 689.315 77.488 689.315 75.976C689.315 73.856 687.699 72.24 685.563 72.24C683.347 72.24 681.715 73.784 681.715 75.952H683.171C683.155 74.696 684.163 73.6 685.539 73.6C686.867 73.6 687.859 74.632 687.859 75.96C687.859 76.688 687.627 77.352 686.779 78.112L681.667 82.712L681.659 83.992ZM695.257 74.888V75.36H693.793V76.536H695.257V84H696.681V76.536H698.953V75.36H696.681V74.664C696.681 73.84 697.089 73.424 697.937 73.424H698.953V72.24H697.857C697.201 72.24 696.393 72.264 695.801 72.912C695.289 73.472 695.257 74.224 695.257 74.888ZM700.624 73.832H702.048V72.36H700.624V73.832ZM700.624 84H702.048V75.36H700.624V84ZM704.608 84H706.032V72.48H704.608V84ZM712.177 84.24C713.849 84.24 715.281 83.368 715.961 81.84L714.593 81.368C714.113 82.352 713.249 82.888 712.113 82.888C710.521 82.888 709.593 81.872 709.481 80.08H716.105C716.233 77.008 714.713 75.12 712.113 75.12C709.601 75.12 707.953 76.904 707.953 79.736C707.953 82.44 709.625 84.24 712.177 84.24ZM709.505 78.936C709.705 77.296 710.609 76.4 712.161 76.4C713.625 76.4 714.449 77.24 714.625 78.936H709.505ZM721.15 84.232C723.302 84.232 724.606 83.224 724.606 81.552C724.606 80.216 723.862 79.576 721.582 78.992C719.55 78.48 719.11 78.208 719.11 77.576C719.11 76.84 719.878 76.36 720.998 76.392C722.174 76.424 722.974 76.992 723.118 77.912L724.574 77.648C724.39 76.128 722.966 75.12 720.998 75.12C719.006 75.12 717.678 76.128 717.678 77.648C717.678 78.888 718.406 79.48 720.694 80.088C722.806 80.656 723.134 80.864 723.134 81.592C723.134 82.44 722.414 82.96 721.238 82.96C719.99 82.96 719.094 82.376 718.862 81.432L717.406 81.664C717.702 83.288 719.086 84.232 721.15 84.232Z" fill="white"/>
</svg>
