<svg width="960" height="300" viewBox="0 0 960 300" fill="none" xmlns="http://www.w3.org/2000/svg">
<rect width="960" height="300" fill="#1D1D29"/>
<path d="M354.805 37V26.92H360.776V28.383H356.268V31.225H359.936V32.695H356.268V37H354.805ZM362.038 37V26.92H366.112C366.21 26.92 366.331 26.9247 366.476 26.934C366.62 26.9387 366.758 26.9527 366.889 26.976C367.449 27.0647 367.915 27.256 368.289 27.55C368.667 27.844 368.949 28.215 369.136 28.663C369.322 29.111 369.416 29.6057 369.416 30.147C369.416 30.9497 369.21 31.6427 368.8 32.226C368.389 32.8047 367.773 33.1663 366.952 33.311L366.357 33.381H363.501V37H362.038ZM367.932 37L365.944 32.898L367.421 32.52L369.605 37H367.932ZM363.501 31.995H366.056C366.149 31.995 366.252 31.9903 366.364 31.981C366.48 31.9717 366.59 31.9553 366.693 31.932C366.991 31.862 367.232 31.7337 367.414 31.547C367.596 31.3557 367.726 31.1363 367.806 30.889C367.885 30.6417 367.925 30.3943 367.925 30.147C367.925 29.8997 367.885 29.6547 367.806 29.412C367.726 29.1647 367.596 28.9477 367.414 28.761C367.232 28.5697 366.991 28.439 366.693 28.369C366.59 28.341 366.48 28.3223 366.364 28.313C366.252 28.3037 366.149 28.299 366.056 28.299H363.501V31.995ZM373.964 37.189C373.465 37.189 372.996 37.0957 372.557 36.909C372.118 36.7177 371.738 36.447 371.416 36.097C371.099 35.747 370.868 35.334 370.723 34.858L372.137 34.466C372.272 34.9 372.508 35.2337 372.844 35.467C373.18 35.6957 373.553 35.8077 373.964 35.803C374.333 35.7983 374.657 35.712 374.937 35.544C375.217 35.376 375.436 35.1497 375.595 34.865C375.754 34.5757 375.833 34.2443 375.833 33.871C375.833 33.311 375.658 32.849 375.308 32.485C374.963 32.121 374.51 31.939 373.95 31.939C373.791 31.939 373.628 31.9623 373.46 32.009C373.297 32.0557 373.143 32.1163 372.998 32.191L372.312 31.036L375.868 27.893L376.022 28.313H371.122V26.92H377.184V28.313L374.23 31.155L374.216 30.679C374.851 30.679 375.401 30.8213 375.868 31.106C376.335 31.386 376.694 31.7687 376.946 32.254C377.203 32.7347 377.331 33.2737 377.331 33.871C377.331 34.515 377.179 35.0867 376.876 35.586C376.577 36.0853 376.174 36.4773 375.665 36.762C375.161 37.0467 374.594 37.189 373.964 37.189Z" fill="white" fill-opacity="0.3"/>
<path d="M498.682 37.21C497.674 37.21 496.815 36.9907 496.106 36.552C495.397 36.1087 494.853 35.4927 494.475 34.704C494.102 33.9153 493.915 33.0007 493.915 31.96C493.915 30.9193 494.102 30.0047 494.475 29.216C494.853 28.4273 495.397 27.8137 496.106 27.375C496.815 26.9317 497.674 26.71 498.682 26.71C499.844 26.71 500.805 27.004 501.566 27.592C502.331 28.18 502.863 28.971 503.162 29.965L501.678 30.364C501.482 29.6593 501.132 29.1063 500.628 28.705C500.129 28.3037 499.48 28.103 498.682 28.103C497.968 28.103 497.373 28.264 496.897 28.586C496.421 28.908 496.062 29.3583 495.819 29.937C495.581 30.5157 495.462 31.19 495.462 31.96C495.457 32.73 495.574 33.4043 495.812 33.983C496.055 34.5617 496.414 35.012 496.89 35.334C497.371 35.656 497.968 35.817 498.682 35.817C499.48 35.817 500.129 35.6163 500.628 35.215C501.132 34.809 501.482 34.256 501.678 33.556L503.162 33.955C502.863 34.949 502.331 35.74 501.566 36.328C500.805 36.916 499.844 37.21 498.682 37.21ZM504.702 37V26.92H507.859C507.952 26.92 508.125 26.9223 508.377 26.927C508.633 26.9317 508.878 26.9503 509.112 26.983C509.9 27.081 510.563 27.3633 511.1 27.83C511.641 28.2967 512.049 28.8893 512.325 29.608C512.6 30.322 512.738 31.106 512.738 31.96C512.738 32.8187 512.6 33.6073 512.325 34.326C512.049 35.04 511.641 35.6303 511.1 36.097C510.563 36.559 509.9 36.839 509.112 36.937C508.878 36.9697 508.633 36.9883 508.377 36.993C508.125 36.9977 507.952 37 507.859 37H504.702ZM506.2 35.607H507.859C508.017 35.607 508.206 35.6023 508.426 35.593C508.645 35.5837 508.839 35.565 509.007 35.537C509.52 35.439 509.935 35.2173 510.253 34.872C510.575 34.522 510.81 34.0927 510.96 33.584C511.109 33.0753 511.184 32.534 511.184 31.96C511.184 31.3673 511.107 30.819 510.953 30.315C510.799 29.8063 510.561 29.3817 510.239 29.041C509.921 28.6957 509.511 28.4763 509.007 28.383C508.839 28.3503 508.643 28.3317 508.419 28.327C508.199 28.3177 508.013 28.313 507.859 28.313H506.2V35.607ZM514.368 37V26.92H518.442C518.54 26.92 518.661 26.9247 518.806 26.934C518.95 26.9387 519.088 26.9527 519.219 26.976C519.779 27.0647 520.245 27.256 520.619 27.55C520.997 27.844 521.279 28.215 521.466 28.663C521.652 29.111 521.746 29.6057 521.746 30.147C521.746 30.9497 521.54 31.6427 521.13 32.226C520.719 32.8047 520.103 33.1663 519.282 33.311L518.687 33.381H515.831V37H514.368ZM520.262 37L518.274 32.898L519.751 32.52L521.935 37H520.262ZM515.831 31.995H518.386C518.479 31.995 518.582 31.9903 518.694 31.981C518.81 31.9717 518.92 31.9553 519.023 31.932C519.321 31.862 519.562 31.7337 519.744 31.547C519.926 31.3557 520.056 31.1363 520.136 30.889C520.215 30.6417 520.255 30.3943 520.255 30.147C520.255 29.8997 520.215 29.6547 520.136 29.412C520.056 29.1647 519.926 28.9477 519.744 28.761C519.562 28.5697 519.321 28.439 519.023 28.369C518.92 28.341 518.81 28.3223 518.694 28.313C518.582 28.3037 518.479 28.299 518.386 28.299H515.831V31.995ZM526.294 37.189C525.795 37.189 525.326 37.0957 524.887 36.909C524.448 36.7177 524.068 36.447 523.746 36.097C523.429 35.747 523.198 35.334 523.053 34.858L524.467 34.466C524.602 34.9 524.838 35.2337 525.174 35.467C525.51 35.6957 525.883 35.8077 526.294 35.803C526.663 35.7983 526.987 35.712 527.267 35.544C527.547 35.376 527.766 35.1497 527.925 34.865C528.084 34.5757 528.163 34.2443 528.163 33.871C528.163 33.311 527.988 32.849 527.638 32.485C527.293 32.121 526.84 31.939 526.28 31.939C526.121 31.939 525.958 31.9623 525.79 32.009C525.627 32.0557 525.473 32.1163 525.328 32.191L524.642 31.036L528.198 27.893L528.352 28.313H523.452V26.92H529.514V28.313L526.56 31.155L526.546 30.679C527.181 30.679 527.731 30.8213 528.198 31.106C528.665 31.386 529.024 31.7687 529.276 32.254C529.533 32.7347 529.661 33.2737 529.661 33.871C529.661 34.515 529.509 35.0867 529.206 35.586C528.907 36.0853 528.504 36.4773 527.995 36.762C527.491 37.0467 526.924 37.189 526.294 37.189Z" fill="white" fill-opacity="0.3"/>
<path d="M161.688 114V101.29H156.778V99.6H168.378V101.29H163.468V114H161.688ZM175.89 114.3C174.457 114.3 173.24 113.983 172.24 113.35C171.24 112.717 170.477 111.837 169.95 110.71C169.43 109.583 169.17 108.28 169.17 106.8C169.17 105.32 169.43 104.017 169.95 102.89C170.477 101.763 171.24 100.883 172.24 100.25C173.24 99.6167 174.457 99.3 175.89 99.3C177.557 99.3 178.927 99.7233 180 100.57C181.08 101.417 181.824 102.557 182.23 103.99L180.42 104.47C180.127 103.397 179.604 102.55 178.85 101.93C178.097 101.31 177.11 101 175.89 101C174.817 101 173.924 101.243 173.21 101.73C172.497 102.217 171.96 102.897 171.6 103.77C171.24 104.637 171.057 105.647 171.05 106.8C171.044 107.947 171.22 108.957 171.58 109.83C171.94 110.697 172.48 111.377 173.2 111.87C173.92 112.357 174.817 112.6 175.89 112.6C177.11 112.6 178.097 112.29 178.85 111.67C179.604 111.043 180.127 110.197 180.42 109.13L182.23 109.61C181.824 111.037 181.08 112.177 180 113.03C178.927 113.877 177.557 114.3 175.89 114.3ZM184.423 114V99.6H190.113C190.253 99.6 190.42 99.6067 190.613 99.62C190.807 99.6267 190.993 99.6467 191.173 99.68C191.953 99.8 192.607 100.067 193.133 100.48C193.667 100.893 194.067 101.417 194.333 102.05C194.6 102.677 194.733 103.373 194.733 104.14C194.733 105.253 194.443 106.22 193.863 107.04C193.283 107.853 192.433 108.363 191.313 108.57L190.633 108.68H186.203V114H184.423ZM192.993 114L190.153 108.14L191.913 107.6L195.033 114H192.993ZM186.203 106.99H190.053C190.18 106.99 190.323 106.983 190.483 106.97C190.65 106.957 190.807 106.933 190.953 106.9C191.413 106.793 191.787 106.6 192.073 106.32C192.367 106.033 192.58 105.7 192.713 105.32C192.847 104.933 192.913 104.54 192.913 104.14C192.913 103.74 192.847 103.35 192.713 102.97C192.58 102.583 192.367 102.247 192.073 101.96C191.787 101.673 191.413 101.48 190.953 101.38C190.807 101.34 190.65 101.317 190.483 101.31C190.323 101.297 190.18 101.29 190.053 101.29H186.203V106.99ZM201.23 118.8V103.2C201.23 102.953 201.247 102.71 201.28 102.47C201.32 102.23 201.377 102 201.45 101.78C201.63 101.24 201.91 100.787 202.29 100.42C202.67 100.047 203.123 99.7667 203.65 99.58C204.177 99.3933 204.75 99.3 205.37 99.3C206.203 99.3 206.937 99.4633 207.57 99.79C208.21 100.11 208.71 100.563 209.07 101.15C209.43 101.737 209.61 102.427 209.61 103.22C209.61 103.86 209.48 104.433 209.22 104.94C208.967 105.447 208.577 105.83 208.05 106.09C208.403 106.177 208.743 106.323 209.07 106.53C209.403 106.737 209.703 107 209.97 107.32C210.237 107.64 210.447 108.02 210.6 108.46C210.76 108.9 210.84 109.397 210.84 109.95C210.84 110.823 210.643 111.587 210.25 112.24C209.857 112.887 209.293 113.393 208.56 113.76C207.833 114.12 206.96 114.3 205.94 114.3C205.327 114.3 204.773 114.217 204.28 114.05C203.793 113.89 203.37 113.67 203.01 113.39V118.8H201.23ZM206.02 112.61C206.613 112.61 207.137 112.497 207.59 112.27C208.043 112.037 208.397 111.717 208.65 111.31C208.903 110.897 209.03 110.417 209.03 109.87C209.03 108.983 208.703 108.313 208.05 107.86C207.397 107.4 206.52 107.16 205.42 107.14V105.54C205.88 105.493 206.287 105.38 206.64 105.2C207 105.02 207.28 104.767 207.48 104.44C207.687 104.113 207.79 103.713 207.79 103.24C207.79 102.527 207.567 101.973 207.12 101.58C206.673 101.187 206.103 100.99 205.41 100.99C204.97 100.99 204.55 101.09 204.15 101.29C203.757 101.483 203.467 101.813 203.28 102.28C203.18 102.54 203.117 102.817 203.09 103.11C203.063 103.397 203.05 103.647 203.05 103.86V109.71C203.05 109.903 203.06 110.123 203.08 110.37C203.107 110.61 203.147 110.823 203.2 111.01C203.367 111.523 203.723 111.92 204.27 112.2C204.817 112.473 205.4 112.61 206.02 112.61Z" fill="white"/>
<path d="M452 112V24" stroke="white" stroke-opacity="0.3" stroke-width="2" stroke-linecap="square" stroke-dasharray="6 6"/>
<path d="M363.258 112H365.738L370.558 97.6H368.708L364.478 110.11L360.288 97.6H358.438L363.258 112Z" fill="#110529"/>
<path d="M572 112V24" stroke="white" stroke-opacity="0.3" stroke-width="2" stroke-linecap="square" stroke-dasharray="6 6"/>
<g filter="url(#filter0_i_6946_5887)">
<path fill-rule="evenodd" clip-rule="evenodd" d="M257.6 80H249L244 86.5L249 93L244 99.5L249 106L244 112L249 119L244 125.5L249 132H257.6H258H462.4C462.96 132 463.24 132 463.454 131.891C463.642 131.795 463.795 131.642 463.891 131.454C464 131.24 464 130.96 464 130.4V125.5V119V112V106V99.5V93V86.5V81.6C464 81.0399 464 80.7599 463.891 80.546C463.795 80.3578 463.642 80.2049 463.454 80.109C463.24 80 462.96 80 462.4 80H258H257.6Z" fill="#99E099"/>
</g>
<path d="M249 80V79H248.508L248.207 79.3903L249 80ZM244 86.5L243.207 85.8903L242.738 86.5L243.207 87.1097L244 86.5ZM249 93L249.793 93.6097L250.262 93L249.793 92.3903L249 93ZM244 99.5L243.207 98.8903L242.738 99.5L243.207 100.11L244 99.5ZM249 106L249.768 106.64L250.281 106.025L249.793 105.39L249 106ZM244 112L243.232 111.36L242.737 111.953L243.186 112.581L244 112ZM249 119L249.793 119.61L250.245 119.022L249.814 118.419L249 119ZM244 125.5L243.207 124.89L242.738 125.5L243.207 126.11L244 125.5ZM249 132L248.207 132.61L248.508 133H249V132ZM463.454 131.891L463.908 132.782L463.908 132.782L463.454 131.891ZM463.891 131.454L463 131L463 131L463.891 131.454ZM463.891 80.546L463 81L463 81L463.891 80.546ZM463.454 80.109L463.908 79.218L463.908 79.218L463.454 80.109ZM249 81H257.6V79H249V81ZM244.793 87.1097L249.793 80.6097L248.207 79.3903L243.207 85.8903L244.793 87.1097ZM249.793 92.3903L244.793 85.8903L243.207 87.1097L248.207 93.6097L249.793 92.3903ZM244.793 100.11L249.793 93.6097L248.207 92.3903L243.207 98.8903L244.793 100.11ZM249.793 105.39L244.793 98.8903L243.207 100.11L248.207 106.61L249.793 105.39ZM244.768 112.64L249.768 106.64L248.232 105.36L243.232 111.36L244.768 112.64ZM249.814 118.419L244.814 111.419L243.186 112.581L248.186 119.581L249.814 118.419ZM244.793 126.11L249.793 119.61L248.207 118.39L243.207 124.89L244.793 126.11ZM249.793 131.39L244.793 124.89L243.207 126.11L248.207 132.61L249.793 131.39ZM257.6 131H249V133H257.6V131ZM257.6 133H258V131H257.6V133ZM258 133H462.4V131H258V133ZM462.4 133C462.664 133 462.921 133.001 463.138 132.983C463.367 132.964 463.637 132.92 463.908 132.782L463 131C463.058 130.971 463.08 130.981 462.975 130.99C462.859 130.999 462.697 131 462.4 131V133ZM463.908 132.782C464.284 132.59 464.59 132.284 464.782 131.908L463 131L463 131L463.908 132.782ZM464.782 131.908C464.92 131.637 464.964 131.367 464.983 131.138C465.001 130.921 465 130.664 465 130.4H463C463 130.697 462.999 130.859 462.99 130.975C462.981 131.08 462.971 131.058 463 131L464.782 131.908ZM465 130.4V125.5H463V130.4H465ZM465 125.5V119H463V125.5H465ZM465 119V112H463V119H465ZM465 112V106H463V112H465ZM465 106V99.5H463V106H465ZM465 99.5V93H463V99.5H465ZM465 93V86.5H463V93H465ZM465 86.5V81.6H463V86.5H465ZM465 81.6C465 81.3365 465.001 81.0787 464.983 80.8618C464.964 80.6332 464.92 80.3634 464.782 80.092L463 81C462.971 80.9425 462.981 80.9197 462.99 81.0246C462.999 81.1412 463 81.3035 463 81.6H465ZM464.782 80.092C464.59 79.7157 464.284 79.4097 463.908 79.218L463 81L463 81L464.782 80.092ZM463.908 79.218C463.637 79.0797 463.367 79.0356 463.138 79.0169C462.921 78.9992 462.664 79 462.4 79V81C462.697 81 462.859 81.0008 462.975 81.0103C463.08 81.0189 463.058 81.0293 463 81L463.908 79.218ZM462.4 79H258V81H462.4V79ZM258 79H257.6V81H258V79Z" fill="#110529"/>
<path d="M354.758 114L349.938 99.6H351.788L355.978 112.11L360.208 99.6H362.058L357.238 114H354.758Z" fill="#110529"/>
<g filter="url(#filter1_i_6946_5887)">
<rect x="464" y="80" width="30" height="52" rx="1" fill="#CBEB67"/>
</g>
<rect x="464" y="80" width="30" height="52" rx="1" stroke="#110529" stroke-width="2" stroke-linecap="round"/>
<g filter="url(#filter2_i_6946_5887)">
<rect x="530" y="80" width="30" height="52" rx="1" fill="#FAAAFA"/>
</g>
<rect x="530" y="80" width="30" height="52" rx="1" stroke="#110529" stroke-width="2" stroke-linecap="round"/>
<g filter="url(#filter3_i_6946_5887)">
<rect x="494" y="80" width="36" height="52" rx="1" fill="#FFCB8F"/>
</g>
<rect x="494" y="80" width="36" height="52" rx="1" stroke="#110529" stroke-width="2" stroke-linecap="round"/>
<path d="M473.447 114V99.6H475.247L482.757 110.85V99.6H484.557V114H482.757L475.247 102.74V114H473.447Z" fill="#110529"/>
<path d="M539.447 114V99.6H541.247L548.757 110.85V99.6H550.557V114H548.757L541.247 102.74V114H539.447Z" fill="#110529"/>
<path d="M506.593 114V99.6H511.033C511.18 99.6 511.437 99.6033 511.803 99.61C512.17 99.6167 512.52 99.6433 512.853 99.69C513.967 99.8367 514.897 100.243 515.643 100.91C516.397 101.57 516.963 102.41 517.343 103.43C517.723 104.45 517.913 105.573 517.913 106.8C517.913 108.027 517.723 109.15 517.343 110.17C516.963 111.19 516.397 112.033 515.643 112.7C514.897 113.36 513.967 113.763 512.853 113.91C512.52 113.95 512.167 113.977 511.793 113.99C511.427 113.997 511.173 114 511.033 114H506.593ZM508.423 112.3H511.033C511.287 112.3 511.57 112.293 511.883 112.28C512.197 112.26 512.47 112.23 512.703 112.19C513.49 112.043 514.127 111.713 514.613 111.2C515.1 110.687 515.457 110.047 515.683 109.28C515.91 108.513 516.023 107.687 516.023 106.8C516.023 105.893 515.907 105.057 515.673 104.29C515.447 103.523 515.09 102.887 514.603 102.38C514.117 101.873 513.483 101.55 512.703 101.41C512.47 101.363 512.193 101.333 511.873 101.32C511.553 101.307 511.273 101.3 511.033 101.3H508.423V112.3Z" fill="#110529"/>
<g filter="url(#filter4_i_6946_5887)">
<path fill-rule="evenodd" clip-rule="evenodd" d="M697.4 132H704L699 125.5L704 119L699 112L704 106L699 99.5L704 93L699 86.5L704 80H697.4H690H561.6C561.04 80 560.76 80 560.546 80.109C560.358 80.2049 560.205 80.3578 560.109 80.546C560 80.7599 560 81.0399 560 81.6V130.4C560 130.96 560 131.24 560.109 131.454C560.205 131.642 560.358 131.795 560.546 131.891C560.76 132 561.04 132 561.6 132H690H697.4Z" fill="#C1ADFF"/>
</g>
<path d="M704 132V133H706.031L704.793 131.39L704 132ZM699 125.5L698.207 124.89L697.738 125.5L698.207 126.11L699 125.5ZM704 119L704.793 119.61L705.245 119.022L704.814 118.419L704 119ZM699 112L698.232 111.36L697.737 111.953L698.186 112.581L699 112ZM704 106L704.768 106.64L705.281 106.025L704.793 105.39L704 106ZM699 99.5L698.207 98.8903L697.738 99.5L698.207 100.11L699 99.5ZM704 93L704.793 93.6097L705.262 93L704.793 92.3903L704 93ZM699 86.5L698.207 85.8903L697.738 86.5L698.207 87.1097L699 86.5ZM704 80L704.793 80.6097L706.031 79H704V80ZM560.546 80.109L560.092 79.218L560.092 79.218L560.546 80.109ZM560.109 80.546L561 81L561 81L560.109 80.546ZM560.109 131.454L559.218 131.908L559.218 131.908L560.109 131.454ZM560.546 131.891L560.092 132.782L560.092 132.782L560.546 131.891ZM697.4 133H704V131H697.4V133ZM704.793 131.39L699.793 124.89L698.207 126.11L703.207 132.61L704.793 131.39ZM699.793 126.11L704.793 119.61L703.207 118.39L698.207 124.89L699.793 126.11ZM704.814 118.419L699.814 111.419L698.186 112.581L703.186 119.581L704.814 118.419ZM699.768 112.64L704.768 106.64L703.232 105.36L698.232 111.36L699.768 112.64ZM704.793 105.39L699.793 98.8903L698.207 100.11L703.207 106.61L704.793 105.39ZM699.793 100.11L704.793 93.6097L703.207 92.3903L698.207 98.8903L699.793 100.11ZM704.793 92.3903L699.793 85.8903L698.207 87.1097L703.207 93.6097L704.793 92.3903ZM699.793 87.1097L704.793 80.6097L703.207 79.3903L698.207 85.8903L699.793 87.1097ZM704 79H697.4V81H704V79ZM697.4 79H690V81H697.4V79ZM690 79H561.6V81H690V79ZM561.6 79C561.336 79 561.079 78.9992 560.862 79.0169C560.633 79.0356 560.363 79.0797 560.092 79.218L561 81C560.942 81.0293 560.92 81.0189 561.025 81.0103C561.141 81.0008 561.303 81 561.6 81V79ZM560.092 79.218C559.716 79.4097 559.41 79.7157 559.218 80.092L561 81L561 81L560.092 79.218ZM559.218 80.092C559.08 80.3634 559.036 80.6332 559.017 80.8618C558.999 81.0787 559 81.3365 559 81.6H561C561 81.3035 561.001 81.1412 561.01 81.0246C561.019 80.9197 561.029 80.9425 561 81L559.218 80.092ZM559 81.6V130.4H561V81.6H559ZM559 130.4C559 130.664 558.999 130.921 559.017 131.138C559.036 131.367 559.08 131.637 559.218 131.908L561 131C561.029 131.058 561.019 131.08 561.01 130.975C561.001 130.859 561 130.697 561 130.4H559ZM559.218 131.908C559.41 132.284 559.716 132.59 560.092 132.782L561 131L561 131L559.218 131.908ZM560.092 132.782C560.363 132.92 560.633 132.964 560.862 132.983C561.079 133.001 561.336 133 561.6 133V131C561.303 131 561.141 130.999 561.025 130.99C560.92 130.981 560.942 130.971 561 131L560.092 132.782ZM561.6 133H690V131H561.6V133ZM690 133H697.4V131H690V133Z" fill="#110529"/>
<g filter="url(#filter5_i_6946_5887)">
<path fill-rule="evenodd" clip-rule="evenodd" d="M697.4 132H704L699 125.5L704 119L699 112L704 106L699 99.5L704 93L699 86.5L704 80H697.4H690H561.6C561.04 80 560.76 80 560.546 80.109C560.358 80.2049 560.205 80.3578 560.109 80.546C560 80.7599 560 81.0399 560 81.6V130.4C560 130.96 560 131.24 560.109 131.454C560.205 131.642 560.358 131.795 560.546 131.891C560.76 132 561.04 132 561.6 132H690H697.4Z" fill="#C1ADFF"/>
</g>
<path d="M704 132V133H706.031L704.793 131.39L704 132ZM699 125.5L698.207 124.89L697.738 125.5L698.207 126.11L699 125.5ZM704 119L704.793 119.61L705.245 119.022L704.814 118.419L704 119ZM699 112L698.232 111.36L697.737 111.953L698.186 112.581L699 112ZM704 106L704.768 106.64L705.281 106.025L704.793 105.39L704 106ZM699 99.5L698.207 98.8903L697.738 99.5L698.207 100.11L699 99.5ZM704 93L704.793 93.6097L705.262 93L704.793 92.3903L704 93ZM699 86.5L698.207 85.8903L697.738 86.5L698.207 87.1097L699 86.5ZM704 80L704.793 80.6097L706.031 79H704V80ZM560.546 80.109L560.092 79.218L560.092 79.218L560.546 80.109ZM560.109 80.546L561 81L561 81L560.109 80.546ZM560.109 131.454L559.218 131.908L559.218 131.908L560.109 131.454ZM560.546 131.891L560.092 132.782L560.092 132.782L560.546 131.891ZM697.4 133H704V131H697.4V133ZM704.793 131.39L699.793 124.89L698.207 126.11L703.207 132.61L704.793 131.39ZM699.793 126.11L704.793 119.61L703.207 118.39L698.207 124.89L699.793 126.11ZM704.814 118.419L699.814 111.419L698.186 112.581L703.186 119.581L704.814 118.419ZM699.768 112.64L704.768 106.64L703.232 105.36L698.232 111.36L699.768 112.64ZM704.793 105.39L699.793 98.8903L698.207 100.11L703.207 106.61L704.793 105.39ZM699.793 100.11L704.793 93.6097L703.207 92.3903L698.207 98.8903L699.793 100.11ZM704.793 92.3903L699.793 85.8903L698.207 87.1097L703.207 93.6097L704.793 92.3903ZM699.793 87.1097L704.793 80.6097L703.207 79.3903L698.207 85.8903L699.793 87.1097ZM704 79H697.4V81H704V79ZM697.4 79H690V81H697.4V79ZM690 79H561.6V81H690V79ZM561.6 79C561.336 79 561.079 78.9992 560.862 79.0169C560.633 79.0356 560.363 79.0797 560.092 79.218L561 81C560.942 81.0293 560.92 81.0189 561.025 81.0103C561.141 81.0008 561.303 81 561.6 81V79ZM560.092 79.218C559.716 79.4097 559.41 79.7157 559.218 80.092L561 81L561 81L560.092 79.218ZM559.218 80.092C559.08 80.3634 559.036 80.6332 559.017 80.8618C558.999 81.0787 559 81.3365 559 81.6H561C561 81.3035 561.001 81.1412 561.01 81.0246C561.019 80.9197 561.029 80.9425 561 81L559.218 80.092ZM559 81.6V130.4H561V81.6H559ZM559 130.4C559 130.664 558.999 130.921 559.017 131.138C559.036 131.367 559.08 131.637 559.218 131.908L561 131C561.029 131.058 561.019 131.08 561.01 130.975C561.001 130.859 561 130.697 561 130.4H559ZM559.218 131.908C559.41 132.284 559.716 132.59 560.092 132.782L561 131L561 131L559.218 131.908ZM560.092 132.782C560.363 132.92 560.633 132.964 560.862 132.983C561.079 133.001 561.336 133 561.6 133V131C561.303 131 561.141 130.999 561.025 130.99C560.92 130.981 560.942 130.971 561 131L560.092 132.782ZM561.6 133H690V131H561.6V133ZM690 133H697.4V131H690V133Z" fill="#110529"/>
<path d="M631.244 114.29C630.237 114.29 629.384 114.017 628.684 113.47C627.984 112.923 627.504 112.19 627.244 111.27L629.014 110.85C629.121 111.337 629.377 111.75 629.784 112.09C630.197 112.43 630.671 112.6 631.204 112.6C631.551 112.6 631.904 112.517 632.264 112.35C632.624 112.177 632.901 111.897 633.094 111.51C633.227 111.243 633.304 110.95 633.324 110.63C633.344 110.303 633.354 109.92 633.354 109.48V99.6H635.154V109.48C635.154 109.893 635.151 110.263 635.144 110.59C635.144 110.917 635.111 111.23 635.044 111.53C634.984 111.823 634.864 112.123 634.684 112.43C634.324 113.063 633.841 113.533 633.234 113.84C632.634 114.14 631.971 114.29 631.244 114.29Z" fill="#110529"/>
<path d="M258 156L257.293 156.707L256.586 156L257.293 155.293L258 156ZM265.293 147.293L266 146.586L267.414 148L266.707 148.707L265.293 147.293ZM266.707 163.293L267.414 164L266 165.414L265.293 164.707L266.707 163.293ZM268 157L258 157L258 155L268 155L268 157ZM257.293 155.293L265.293 147.293L266.707 148.707L258.707 156.707L257.293 155.293ZM258.707 155.293L266.707 163.293L265.293 164.707L257.293 156.707L258.707 155.293Z" fill="#D3D7E0"/>
<path d="M441.5 156H268" stroke="#D3D7E0" stroke-width="2"/>
<rect width="57" height="20" transform="translate(441.5 146)" fill="#1D1D29"/>
<path d="M455.759 162.24C455.023 162.24 454.372 162.093 453.807 161.8C453.242 161.501 452.799 161.088 452.479 160.56C452.159 160.032 451.999 159.416 451.999 158.712C451.999 158.024 452.162 157.403 452.487 156.848C452.818 156.293 453.314 155.867 453.975 155.568L453.951 156.088C453.412 155.827 452.999 155.459 452.711 154.984C452.423 154.504 452.279 153.973 452.279 153.392C452.279 152.741 452.428 152.181 452.727 151.712C453.026 151.243 453.436 150.88 453.959 150.624C454.482 150.368 455.082 150.24 455.759 150.24C456.436 150.24 457.036 150.368 457.559 150.624C458.082 150.88 458.492 151.243 458.791 151.712C459.09 152.181 459.239 152.741 459.239 153.392C459.239 153.973 459.103 154.501 458.831 154.976C458.559 155.445 458.14 155.816 457.575 156.088L457.543 155.576C458.204 155.864 458.7 156.288 459.031 156.848C459.367 157.403 459.535 158.024 459.535 158.712C459.535 159.416 459.372 160.032 459.047 160.56C458.727 161.088 458.282 161.501 457.711 161.8C457.146 162.093 456.495 162.24 455.759 162.24ZM455.759 160.88C456.431 160.88 456.975 160.696 457.391 160.328C457.812 159.955 458.023 159.416 458.023 158.712C458.023 158.003 457.815 157.464 457.399 157.096C456.988 156.723 456.442 156.536 455.759 156.536C455.082 156.536 454.535 156.723 454.119 157.096C453.708 157.464 453.503 158.003 453.503 158.712C453.503 159.416 453.711 159.955 454.127 160.328C454.543 160.696 455.087 160.88 455.759 160.88ZM455.759 155.168C456.346 155.168 456.82 155.021 457.183 154.728C457.546 154.429 457.727 153.984 457.727 153.392C457.727 152.8 457.546 152.357 457.183 152.064C456.82 151.765 456.346 151.616 455.759 151.616C455.178 151.616 454.703 151.765 454.335 152.064C453.972 152.357 453.791 152.8 453.791 153.392C453.791 153.984 453.972 154.429 454.335 154.728C454.703 155.021 455.178 155.168 455.759 155.168ZM465.02 162.24C464.428 162.24 463.876 162.117 463.364 161.872C462.858 161.627 462.423 161.291 462.06 160.864C461.703 160.432 461.447 159.936 461.292 159.376L462.66 159.008C462.756 159.387 462.927 159.715 463.172 159.992C463.418 160.264 463.703 160.477 464.028 160.632C464.359 160.781 464.703 160.856 465.06 160.856C465.53 160.856 465.951 160.744 466.324 160.52C466.703 160.291 467.002 159.989 467.22 159.616C467.439 159.237 467.548 158.824 467.548 158.376C467.548 157.912 467.434 157.493 467.204 157.12C466.98 156.741 466.679 156.443 466.3 156.224C465.922 156.005 465.508 155.896 465.06 155.896C464.554 155.896 464.119 156.003 463.756 156.216C463.399 156.424 463.116 156.68 462.908 156.984L461.644 156.504L461.996 150.48H468.18V151.832H462.684L463.316 151.24L463.02 156.064L462.708 155.656C463.028 155.315 463.41 155.051 463.852 154.864C464.3 154.677 464.756 154.584 465.22 154.584C465.935 154.584 466.575 154.752 467.14 155.088C467.706 155.419 468.154 155.872 468.484 156.448C468.815 157.019 468.98 157.661 468.98 158.376C468.98 159.085 468.799 159.733 468.436 160.32C468.074 160.901 467.591 161.368 466.988 161.72C466.391 162.067 465.735 162.24 465.02 162.24ZM474.861 162.24C474.051 162.24 473.368 162.04 472.813 161.64C472.259 161.235 471.837 160.688 471.549 160C471.267 159.307 471.125 158.531 471.125 157.672C471.125 156.803 471.267 156.024 471.549 155.336C471.837 154.648 472.259 154.107 472.813 153.712C473.373 153.317 474.059 153.12 474.869 153.12C475.669 153.12 476.357 153.32 476.933 153.72C477.515 154.115 477.96 154.656 478.269 155.344C478.579 156.032 478.733 156.808 478.733 157.672C478.733 158.536 478.579 159.312 478.269 160C477.96 160.688 477.515 161.235 476.933 161.64C476.357 162.04 475.667 162.24 474.861 162.24ZM470.885 162V150.48H472.317V155.64H472.157V162H470.885ZM474.685 160.936C475.256 160.936 475.728 160.792 476.101 160.504C476.475 160.216 476.755 159.827 476.941 159.336C477.128 158.84 477.221 158.285 477.221 157.672C477.221 157.064 477.128 156.515 476.941 156.024C476.76 155.533 476.477 155.144 476.093 154.856C475.715 154.568 475.232 154.424 474.645 154.424C474.085 154.424 473.621 154.563 473.253 154.84C472.885 155.112 472.611 155.493 472.429 155.984C472.248 156.469 472.157 157.032 472.157 157.672C472.157 158.301 472.245 158.864 472.421 159.36C472.603 159.851 472.88 160.237 473.253 160.52C473.627 160.797 474.104 160.936 474.685 160.936ZM484.455 162.24C483.645 162.24 482.962 162.04 482.407 161.64C481.853 161.235 481.431 160.688 481.143 160C480.861 159.307 480.719 158.531 480.719 157.672C480.719 156.803 480.861 156.024 481.143 155.336C481.431 154.648 481.853 154.107 482.407 153.712C482.967 153.317 483.653 153.12 484.463 153.12C485.263 153.12 485.951 153.32 486.527 153.72C487.109 154.115 487.554 154.656 487.863 155.344C488.173 156.032 488.327 156.808 488.327 157.672C488.327 158.536 488.173 159.312 487.863 160C487.554 160.688 487.109 161.235 486.527 161.64C485.951 162.04 485.261 162.24 484.455 162.24ZM480.479 165.84V153.36H481.751V159.72H481.911V165.84H480.479ZM484.279 160.936C484.85 160.936 485.322 160.792 485.695 160.504C486.069 160.216 486.349 159.827 486.535 159.336C486.722 158.84 486.815 158.285 486.815 157.672C486.815 157.064 486.722 156.515 486.535 156.024C486.354 155.533 486.071 155.144 485.687 154.856C485.309 154.568 484.826 154.424 484.239 154.424C483.679 154.424 483.215 154.563 482.847 154.84C482.479 155.112 482.205 155.493 482.023 155.984C481.842 156.469 481.751 157.032 481.751 157.672C481.751 158.301 481.839 158.864 482.015 159.36C482.197 159.851 482.474 160.237 482.847 160.52C483.221 160.797 483.698 160.936 484.279 160.936Z" fill="white"/>
<path d="M672 156H498.5" stroke="#D3D7E0" stroke-width="2"/>
<path d="M680.62 162V150.48H685.172C685.284 150.48 685.417 150.485 685.572 150.496C685.727 150.501 685.876 150.517 686.02 150.544C686.644 150.64 687.167 150.853 687.588 151.184C688.015 151.515 688.335 151.933 688.548 152.44C688.761 152.941 688.868 153.499 688.868 154.112C688.868 155.003 688.636 155.776 688.172 156.432C687.708 157.083 687.028 157.491 686.132 157.656L685.588 157.744H682.044V162H680.62ZM687.476 162L685.204 157.312L686.612 156.88L689.108 162H687.476ZM682.044 156.392H685.124C685.225 156.392 685.34 156.387 685.468 156.376C685.601 156.365 685.727 156.347 685.844 156.32C686.212 156.235 686.511 156.08 686.74 155.856C686.975 155.627 687.145 155.36 687.252 155.056C687.359 154.747 687.412 154.432 687.412 154.112C687.412 153.792 687.359 153.48 687.252 153.176C687.145 152.867 686.975 152.597 686.74 152.368C686.511 152.139 686.212 151.984 685.844 151.904C685.727 151.872 685.601 151.853 685.468 151.848C685.34 151.837 685.225 151.832 685.124 151.832H682.044V156.392ZM692.878 162V152.056L690.71 153.368V151.776L692.878 150.48H694.326V162H692.878Z" fill="white"/>
<rect x="672" y="144" width="32" height="24" rx="1" stroke="#D3D7E0" stroke-width="2"/>
<path d="M624.593 37V26.92H630.564V28.383H626.056V31.225H629.724V32.695H626.056V37H624.593ZM631.826 37V26.92H635.9C635.998 26.92 636.119 26.9247 636.264 26.934C636.408 26.9387 636.546 26.9527 636.677 26.976C637.237 27.0647 637.703 27.256 638.077 27.55C638.455 27.844 638.737 28.215 638.924 28.663C639.11 29.111 639.204 29.6057 639.204 30.147C639.204 30.9497 638.998 31.6427 638.588 32.226C638.177 32.8047 637.561 33.1663 636.74 33.311L636.145 33.381H633.289V37H631.826ZM637.72 37L635.732 32.898L637.209 32.52L639.393 37H637.72ZM633.289 31.995H635.844C635.937 31.995 636.04 31.9903 636.152 31.981C636.268 31.9717 636.378 31.9553 636.481 31.932C636.779 31.862 637.02 31.7337 637.202 31.547C637.384 31.3557 637.514 31.1363 637.594 30.889C637.673 30.6417 637.713 30.3943 637.713 30.147C637.713 29.8997 637.673 29.6547 637.594 29.412C637.514 29.1647 637.384 28.9477 637.202 28.761C637.02 28.5697 636.779 28.439 636.481 28.369C636.378 28.341 636.268 28.3223 636.152 28.313C636.04 28.3037 635.937 28.299 635.844 28.299H633.289V31.995ZM645.201 37V35.243H640.651V33.857L643.927 26.92H645.6L642.324 33.857H645.201V31.127H646.685V33.857H647.686V35.243H646.685V37H645.201Z" fill="white" fill-opacity="0.3"/>
<path d="M162.245 250V237.29H157.335V235.6H168.935V237.29H164.025V250H162.245ZM176.447 250.3C175.014 250.3 173.797 249.983 172.797 249.35C171.797 248.717 171.034 247.837 170.507 246.71C169.987 245.583 169.727 244.28 169.727 242.8C169.727 241.32 169.987 240.017 170.507 238.89C171.034 237.763 171.797 236.883 172.797 236.25C173.797 235.617 175.014 235.3 176.447 235.3C178.114 235.3 179.484 235.723 180.557 236.57C181.637 237.417 182.38 238.557 182.787 239.99L180.977 240.47C180.684 239.397 180.16 238.55 179.407 237.93C178.654 237.31 177.667 237 176.447 237C175.374 237 174.48 237.243 173.767 237.73C173.054 238.217 172.517 238.897 172.157 239.77C171.797 240.637 171.614 241.647 171.607 242.8C171.6 243.947 171.777 244.957 172.137 245.83C172.497 246.697 173.037 247.377 173.757 247.87C174.477 248.357 175.374 248.6 176.447 248.6C177.667 248.6 178.654 248.29 179.407 247.67C180.16 247.043 180.684 246.197 180.977 245.13L182.787 245.61C182.38 247.037 181.637 248.177 180.557 249.03C179.484 249.877 178.114 250.3 176.447 250.3ZM184.98 250V235.6H190.67C190.81 235.6 190.977 235.607 191.17 235.62C191.363 235.627 191.55 235.647 191.73 235.68C192.51 235.8 193.163 236.067 193.69 236.48C194.223 236.893 194.623 237.417 194.89 238.05C195.157 238.677 195.29 239.373 195.29 240.14C195.29 241.253 195 242.22 194.42 243.04C193.84 243.853 192.99 244.363 191.87 244.57L191.19 244.68H186.76V250H184.98ZM193.55 250L190.71 244.14L192.47 243.6L195.59 250H193.55ZM186.76 242.99H190.61C190.737 242.99 190.88 242.983 191.04 242.97C191.207 242.957 191.363 242.933 191.51 242.9C191.97 242.793 192.343 242.6 192.63 242.32C192.923 242.033 193.137 241.7 193.27 241.32C193.403 240.933 193.47 240.54 193.47 240.14C193.47 239.74 193.403 239.35 193.27 238.97C193.137 238.583 192.923 238.247 192.63 237.96C192.343 237.673 191.97 237.48 191.51 237.38C191.363 237.34 191.207 237.317 191.04 237.31C190.88 237.297 190.737 237.29 190.61 237.29H186.76V242.99ZM204.716 253.6V250L200.796 239.2H202.606L205.626 247.73L208.656 239.2H210.456L206.536 250V253.6H204.716Z" fill="white"/>
<path d="M363.258 240H365.738L370.558 225.6H368.708L364.478 238.11L360.288 225.6H358.438L363.258 240Z" fill="#110529"/>
<g filter="url(#filter6_i_6946_5887)">
<path fill-rule="evenodd" clip-rule="evenodd" d="M257.6 216H249L244 222.5L249 229L244 235.5L249 242L244 248L249 255L244 261.5L249 268H257.6H258H462.4C462.96 268 463.24 268 463.454 267.891C463.642 267.795 463.795 267.642 463.891 267.454C464 267.24 464 266.96 464 266.4V261.5V255V248V242V235.5V229V222.5V217.6C464 217.04 464 216.76 463.891 216.546C463.795 216.358 463.642 216.205 463.454 216.109C463.24 216 462.96 216 462.4 216H258H257.6Z" fill="#99E099"/>
</g>
<path d="M249 216V215H248.508L248.207 215.39L249 216ZM244 222.5L243.207 221.89L242.738 222.5L243.207 223.11L244 222.5ZM249 229L249.793 229.61L250.262 229L249.793 228.39L249 229ZM244 235.5L243.207 234.89L242.738 235.5L243.207 236.11L244 235.5ZM249 242L249.768 242.64L250.281 242.025L249.793 241.39L249 242ZM244 248L243.232 247.36L242.737 247.953L243.186 248.581L244 248ZM249 255L249.793 255.61L250.245 255.022L249.814 254.419L249 255ZM244 261.5L243.207 260.89L242.738 261.5L243.207 262.11L244 261.5ZM249 268L248.207 268.61L248.508 269H249V268ZM463.454 267.891L463.908 268.782L463.908 268.782L463.454 267.891ZM463.891 267.454L463 267L463 267L463.891 267.454ZM463.891 216.546L463 217L463 217L463.891 216.546ZM463.454 216.109L463.908 215.218L463.908 215.218L463.454 216.109ZM249 217H257.6V215H249V217ZM244.793 223.11L249.793 216.61L248.207 215.39L243.207 221.89L244.793 223.11ZM249.793 228.39L244.793 221.89L243.207 223.11L248.207 229.61L249.793 228.39ZM244.793 236.11L249.793 229.61L248.207 228.39L243.207 234.89L244.793 236.11ZM249.793 241.39L244.793 234.89L243.207 236.11L248.207 242.61L249.793 241.39ZM244.768 248.64L249.768 242.64L248.232 241.36L243.232 247.36L244.768 248.64ZM249.814 254.419L244.814 247.419L243.186 248.581L248.186 255.581L249.814 254.419ZM244.793 262.11L249.793 255.61L248.207 254.39L243.207 260.89L244.793 262.11ZM249.793 267.39L244.793 260.89L243.207 262.11L248.207 268.61L249.793 267.39ZM257.6 267H249V269H257.6V267ZM257.6 269H258V267H257.6V269ZM258 269H462.4V267H258V269ZM462.4 269C462.664 269 462.921 269.001 463.138 268.983C463.367 268.964 463.637 268.92 463.908 268.782L463 267C463.058 266.971 463.08 266.981 462.975 266.99C462.859 266.999 462.697 267 462.4 267V269ZM463.908 268.782C464.284 268.59 464.59 268.284 464.782 267.908L463 267L463 267L463.908 268.782ZM464.782 267.908C464.92 267.637 464.964 267.367 464.983 267.138C465.001 266.921 465 266.664 465 266.4H463C463 266.697 462.999 266.859 462.99 266.975C462.981 267.08 462.971 267.058 463 267L464.782 267.908ZM465 266.4V261.5H463V266.4H465ZM465 261.5V255H463V261.5H465ZM465 255V248H463V255H465ZM465 248V242H463V248H465ZM465 242V235.5H463V242H465ZM465 235.5V229H463V235.5H465ZM465 229V222.5H463V229H465ZM465 222.5V217.6H463V222.5H465ZM465 217.6C465 217.336 465.001 217.079 464.983 216.862C464.964 216.633 464.92 216.363 464.782 216.092L463 217C462.971 216.942 462.981 216.92 462.99 217.025C462.999 217.141 463 217.303 463 217.6H465ZM464.782 216.092C464.59 215.716 464.284 215.41 463.908 215.218L463 217L463 217L464.782 216.092ZM463.908 215.218C463.637 215.08 463.367 215.036 463.138 215.017C462.921 214.999 462.664 215 462.4 215V217C462.697 217 462.859 217.001 462.975 217.01C463.08 217.019 463.058 217.029 463 217L463.908 215.218ZM462.4 215H258V217H462.4V215ZM258 215H257.6V217H258V215Z" fill="#110529"/>
<path d="M354.758 250L349.938 235.6H351.788L355.978 248.11L360.208 235.6H362.058L357.238 250H354.758Z" fill="#110529"/>
<g filter="url(#filter7_i_6946_5887)">
<rect x="464" y="216" width="30" height="52" rx="1" fill="#CBEB67"/>
<path d="M473.447 250V235.6H475.247L482.757 246.85V235.6H484.557V250H482.757L475.247 238.74V250H473.447Z" fill="#110529"/>
<rect x="464" y="216" width="30" height="52" rx="1" stroke="#110529" stroke-width="2" stroke-linecap="round"/>
</g>
<g filter="url(#filter8_i_6946_5887)">
<path fill-rule="evenodd" clip-rule="evenodd" d="M631.4 268H638L633 261.5L638 255L633 248L638 242L633 235.5L638 229L633 222.5L638 216H631.4H624H495.6C495.04 216 494.76 216 494.546 216.109C494.358 216.205 494.205 216.358 494.109 216.546C494 216.76 494 217.04 494 217.6V266.4C494 266.96 494 267.24 494.109 267.454C494.205 267.642 494.358 267.795 494.546 267.891C494.76 268 495.04 268 495.6 268H624H631.4Z" fill="#C1ADFF"/>
</g>
<path d="M638 268V269H640.031L638.793 267.39L638 268ZM633 261.5L632.207 260.89L631.738 261.5L632.207 262.11L633 261.5ZM638 255L638.793 255.61L639.245 255.022L638.814 254.419L638 255ZM633 248L632.232 247.36L631.737 247.953L632.186 248.581L633 248ZM638 242L638.768 242.64L639.281 242.025L638.793 241.39L638 242ZM633 235.5L632.207 234.89L631.738 235.5L632.207 236.11L633 235.5ZM638 229L638.793 229.61L639.262 229L638.793 228.39L638 229ZM633 222.5L632.207 221.89L631.738 222.5L632.207 223.11L633 222.5ZM638 216L638.793 216.61L640.031 215H638V216ZM494.546 216.109L494.092 215.218L494.092 215.218L494.546 216.109ZM494.109 216.546L495 217L495 217L494.109 216.546ZM494.109 267.454L493.218 267.908L493.218 267.908L494.109 267.454ZM494.546 267.891L494.092 268.782L494.092 268.782L494.546 267.891ZM631.4 269H638V267H631.4V269ZM638.793 267.39L633.793 260.89L632.207 262.11L637.207 268.61L638.793 267.39ZM633.793 262.11L638.793 255.61L637.207 254.39L632.207 260.89L633.793 262.11ZM638.814 254.419L633.814 247.419L632.186 248.581L637.186 255.581L638.814 254.419ZM633.768 248.64L638.768 242.64L637.232 241.36L632.232 247.36L633.768 248.64ZM638.793 241.39L633.793 234.89L632.207 236.11L637.207 242.61L638.793 241.39ZM633.793 236.11L638.793 229.61L637.207 228.39L632.207 234.89L633.793 236.11ZM638.793 228.39L633.793 221.89L632.207 223.11L637.207 229.61L638.793 228.39ZM633.793 223.11L638.793 216.61L637.207 215.39L632.207 221.89L633.793 223.11ZM638 215H631.4V217H638V215ZM631.4 215H624V217H631.4V215ZM624 215H495.6V217H624V215ZM495.6 215C495.336 215 495.079 214.999 494.862 215.017C494.633 215.036 494.363 215.08 494.092 215.218L495 217C494.942 217.029 494.92 217.019 495.025 217.01C495.141 217.001 495.303 217 495.6 217V215ZM494.092 215.218C493.716 215.41 493.41 215.716 493.218 216.092L495 217L495 217L494.092 215.218ZM493.218 216.092C493.08 216.363 493.036 216.633 493.017 216.862C492.999 217.079 493 217.336 493 217.6H495C495 217.303 495.001 217.141 495.01 217.025C495.019 216.92 495.029 216.942 495 217L493.218 216.092ZM493 217.6V266.4H495V217.6H493ZM493 266.4C493 266.664 492.999 266.921 493.017 267.138C493.036 267.367 493.08 267.637 493.218 267.908L495 267C495.029 267.058 495.019 267.08 495.01 266.975C495.001 266.859 495 266.697 495 266.4H493ZM493.218 267.908C493.41 268.284 493.716 268.59 494.092 268.782L495 267L495 267L493.218 267.908ZM494.092 268.782C494.363 268.92 494.633 268.964 494.862 268.983C495.079 269.001 495.336 269 495.6 269V267C495.303 267 495.141 266.999 495.025 266.99C494.92 266.981 494.942 266.971 495 267L494.092 268.782ZM495.6 269H624V267H495.6V269ZM624 269H631.4V267H624V269Z" fill="#110529"/>
<g filter="url(#filter9_i_6946_5887)">
<path fill-rule="evenodd" clip-rule="evenodd" d="M631.4 268H638L633 261.5L638 255L633 248L638 242L633 235.5L638 229L633 222.5L638 216H631.4H624H495.6C495.04 216 494.76 216 494.546 216.109C494.358 216.205 494.205 216.358 494.109 216.546C494 216.76 494 217.04 494 217.6V266.4C494 266.96 494 267.24 494.109 267.454C494.205 267.642 494.358 267.795 494.546 267.891C494.76 268 495.04 268 495.6 268H624H631.4Z" fill="#C1ADFF"/>
</g>
<path d="M638 268V269H640.031L638.793 267.39L638 268ZM633 261.5L632.207 260.89L631.738 261.5L632.207 262.11L633 261.5ZM638 255L638.793 255.61L639.245 255.022L638.814 254.419L638 255ZM633 248L632.232 247.36L631.737 247.953L632.186 248.581L633 248ZM638 242L638.768 242.64L639.281 242.025L638.793 241.39L638 242ZM633 235.5L632.207 234.89L631.738 235.5L632.207 236.11L633 235.5ZM638 229L638.793 229.61L639.262 229L638.793 228.39L638 229ZM633 222.5L632.207 221.89L631.738 222.5L632.207 223.11L633 222.5ZM638 216L638.793 216.61L640.031 215H638V216ZM494.546 216.109L494.092 215.218L494.092 215.218L494.546 216.109ZM494.109 216.546L495 217L495 217L494.109 216.546ZM494.109 267.454L493.218 267.908L493.218 267.908L494.109 267.454ZM494.546 267.891L494.092 268.782L494.092 268.782L494.546 267.891ZM631.4 269H638V267H631.4V269ZM638.793 267.39L633.793 260.89L632.207 262.11L637.207 268.61L638.793 267.39ZM633.793 262.11L638.793 255.61L637.207 254.39L632.207 260.89L633.793 262.11ZM638.814 254.419L633.814 247.419L632.186 248.581L637.186 255.581L638.814 254.419ZM633.768 248.64L638.768 242.64L637.232 241.36L632.232 247.36L633.768 248.64ZM638.793 241.39L633.793 234.89L632.207 236.11L637.207 242.61L638.793 241.39ZM633.793 236.11L638.793 229.61L637.207 228.39L632.207 234.89L633.793 236.11ZM638.793 228.39L633.793 221.89L632.207 223.11L637.207 229.61L638.793 228.39ZM633.793 223.11L638.793 216.61L637.207 215.39L632.207 221.89L633.793 223.11ZM638 215H631.4V217H638V215ZM631.4 215H624V217H631.4V215ZM624 215H495.6V217H624V215ZM495.6 215C495.336 215 495.079 214.999 494.862 215.017C494.633 215.036 494.363 215.08 494.092 215.218L495 217C494.942 217.029 494.92 217.019 495.025 217.01C495.141 217.001 495.303 217 495.6 217V215ZM494.092 215.218C493.716 215.41 493.41 215.716 493.218 216.092L495 217L495 217L494.092 215.218ZM493.218 216.092C493.08 216.363 493.036 216.633 493.017 216.862C492.999 217.079 493 217.336 493 217.6H495C495 217.303 495.001 217.141 495.01 217.025C495.019 216.92 495.029 216.942 495 217L493.218 216.092ZM493 217.6V266.4H495V217.6H493ZM493 266.4C493 266.664 492.999 266.921 493.017 267.138C493.036 267.367 493.08 267.637 493.218 267.908L495 267C495.029 267.058 495.019 267.08 495.01 266.975C495.001 266.859 495 266.697 495 266.4H493ZM493.218 267.908C493.41 268.284 493.716 268.59 494.092 268.782L495 267L495 267L493.218 267.908ZM494.092 268.782C494.363 268.92 494.633 268.964 494.862 268.983C495.079 269.001 495.336 269 495.6 269V267C495.303 267 495.141 266.999 495.025 266.99C494.92 266.981 494.942 266.971 495 267L494.092 268.782ZM495.6 269H624V267H495.6V269ZM624 269H631.4V267H624V269Z" fill="#110529"/>
<path d="M565.244 250.29C564.237 250.29 563.384 250.017 562.684 249.47C561.984 248.923 561.504 248.19 561.244 247.27L563.014 246.85C563.121 247.337 563.377 247.75 563.784 248.09C564.197 248.43 564.671 248.6 565.204 248.6C565.551 248.6 565.904 248.517 566.264 248.35C566.624 248.177 566.901 247.897 567.094 247.51C567.227 247.243 567.304 246.95 567.324 246.63C567.344 246.303 567.354 245.92 567.354 245.48V235.6H569.154V245.48C569.154 245.893 569.151 246.263 569.144 246.59C569.144 246.917 569.111 247.23 569.044 247.53C568.984 247.823 568.864 248.123 568.684 248.43C568.324 249.063 567.841 249.533 567.234 249.84C566.634 250.14 565.971 250.29 565.244 250.29Z" fill="#110529"/>
<defs>
<filter id="filter0_i_6946_5887" x="242.737" y="79" width="222.263" height="54" filterUnits="userSpaceOnUse" color-interpolation-filters="sRGB">
<feFlood flood-opacity="0" result="BackgroundImageFix"/>
<feBlend mode="normal" in="SourceGraphic" in2="BackgroundImageFix" result="shape"/>
<feColorMatrix in="SourceAlpha" type="matrix" values="0 0 0 0 0 0 0 0 0 0 0 0 0 0 0 0 0 0 127 0" result="hardAlpha"/>
<feOffset dx="-8" dy="-4"/>
<feComposite in2="hardAlpha" operator="arithmetic" k2="-1" k3="1"/>
<feColorMatrix type="matrix" values="0 0 0 0 0.0666667 0 0 0 0 0.0196078 0 0 0 0 0.160784 0 0 0 0.16 0"/>
<feBlend mode="normal" in2="shape" result="effect1_innerShadow_6946_5887"/>
</filter>
<filter id="filter1_i_6946_5887" x="463" y="79" width="32" height="54" filterUnits="userSpaceOnUse" color-interpolation-filters="sRGB">
<feFlood flood-opacity="0" result="BackgroundImageFix"/>
<feBlend mode="normal" in="SourceGraphic" in2="BackgroundImageFix" result="shape"/>
<feColorMatrix in="SourceAlpha" type="matrix" values="0 0 0 0 0 0 0 0 0 0 0 0 0 0 0 0 0 0 127 0" result="hardAlpha"/>
<feOffset dx="-8" dy="-4"/>
<feComposite in2="hardAlpha" operator="arithmetic" k2="-1" k3="1"/>
<feColorMatrix type="matrix" values="0 0 0 0 0.0666667 0 0 0 0 0.0196078 0 0 0 0 0.160784 0 0 0 0.16 0"/>
<feBlend mode="normal" in2="shape" result="effect1_innerShadow_6946_5887"/>
</filter>
<filter id="filter2_i_6946_5887" x="529" y="79" width="32" height="54" filterUnits="userSpaceOnUse" color-interpolation-filters="sRGB">
<feFlood flood-opacity="0" result="BackgroundImageFix"/>
<feBlend mode="normal" in="SourceGraphic" in2="BackgroundImageFix" result="shape"/>
<feColorMatrix in="SourceAlpha" type="matrix" values="0 0 0 0 0 0 0 0 0 0 0 0 0 0 0 0 0 0 127 0" result="hardAlpha"/>
<feOffset dx="-8" dy="-4"/>
<feComposite in2="hardAlpha" operator="arithmetic" k2="-1" k3="1"/>
<feColorMatrix type="matrix" values="0 0 0 0 0.0666667 0 0 0 0 0.0196078 0 0 0 0 0.160784 0 0 0 0.16 0"/>
<feBlend mode="normal" in2="shape" result="effect1_innerShadow_6946_5887"/>
</filter>
<filter id="filter3_i_6946_5887" x="493" y="79" width="38" height="54" filterUnits="userSpaceOnUse" color-interpolation-filters="sRGB">
<feFlood flood-opacity="0" result="BackgroundImageFix"/>
<feBlend mode="normal" in="SourceGraphic" in2="BackgroundImageFix" result="shape"/>
<feColorMatrix in="SourceAlpha" type="matrix" values="0 0 0 0 0 0 0 0 0 0 0 0 0 0 0 0 0 0 127 0" result="hardAlpha"/>
<feOffset dx="-8" dy="-4"/>
<feComposite in2="hardAlpha" operator="arithmetic" k2="-1" k3="1"/>
<feColorMatrix type="matrix" values="0 0 0 0 0.0666667 0 0 0 0 0.0196078 0 0 0 0 0.160784 0 0 0 0.16 0"/>
<feBlend mode="normal" in2="shape" result="effect1_innerShadow_6946_5887"/>
</filter>
<filter id="filter4_i_6946_5887" x="559" y="79" width="147.031" height="54" filterUnits="userSpaceOnUse" color-interpolation-filters="sRGB">
<feFlood flood-opacity="0" result="BackgroundImageFix"/>
<feBlend mode="normal" in="SourceGraphic" in2="BackgroundImageFix" result="shape"/>
<feColorMatrix in="SourceAlpha" type="matrix" values="0 0 0 0 0 0 0 0 0 0 0 0 0 0 0 0 0 0 127 0" result="hardAlpha"/>
<feOffset dx="-8" dy="-4"/>
<feComposite in2="hardAlpha" operator="arithmetic" k2="-1" k3="1"/>
<feColorMatrix type="matrix" values="0 0 0 0 0.0666667 0 0 0 0 0.0196078 0 0 0 0 0.160784 0 0 0 0.16 0"/>
<feBlend mode="normal" in2="shape" result="effect1_innerShadow_6946_5887"/>
</filter>
<filter id="filter5_i_6946_5887" x="559" y="79" width="147.031" height="54" filterUnits="userSpaceOnUse" color-interpolation-filters="sRGB">
<feFlood flood-opacity="0" result="BackgroundImageFix"/>
<feBlend mode="normal" in="SourceGraphic" in2="BackgroundImageFix" result="shape"/>
<feColorMatrix in="SourceAlpha" type="matrix" values="0 0 0 0 0 0 0 0 0 0 0 0 0 0 0 0 0 0 127 0" result="hardAlpha"/>
<feOffset dx="-8" dy="-4"/>
<feComposite in2="hardAlpha" operator="arithmetic" k2="-1" k3="1"/>
<feColorMatrix type="matrix" values="0 0 0 0 0.0666667 0 0 0 0 0.0196078 0 0 0 0 0.160784 0 0 0 0.16 0"/>
<feBlend mode="normal" in2="shape" result="effect1_innerShadow_6946_5887"/>
</filter>
<filter id="filter6_i_6946_5887" x="242.737" y="215" width="222.263" height="54" filterUnits="userSpaceOnUse" color-interpolation-filters="sRGB">
<feFlood flood-opacity="0" result="BackgroundImageFix"/>
<feBlend mode="normal" in="SourceGraphic" in2="BackgroundImageFix" result="shape"/>
<feColorMatrix in="SourceAlpha" type="matrix" values="0 0 0 0 0 0 0 0 0 0 0 0 0 0 0 0 0 0 127 0" result="hardAlpha"/>
<feOffset dx="-8" dy="-4"/>
<feComposite in2="hardAlpha" operator="arithmetic" k2="-1" k3="1"/>
<feColorMatrix type="matrix" values="0 0 0 0 0.0666667 0 0 0 0 0.0196078 0 0 0 0 0.160784 0 0 0 0.16 0"/>
<feBlend mode="normal" in2="shape" result="effect1_innerShadow_6946_5887"/>
</filter>
<filter id="filter7_i_6946_5887" x="463" y="215" width="32" height="54" filterUnits="userSpaceOnUse" color-interpolation-filters="sRGB">
<feFlood flood-opacity="0" result="BackgroundImageFix"/>
<feBlend mode="normal" in="SourceGraphic" in2="BackgroundImageFix" result="shape"/>
<feColorMatrix in="SourceAlpha" type="matrix" values="0 0 0 0 0 0 0 0 0 0 0 0 0 0 0 0 0 0 127 0" result="hardAlpha"/>
<feOffset dx="-8" dy="-4"/>
<feComposite in2="hardAlpha" operator="arithmetic" k2="-1" k3="1"/>
<feColorMatrix type="matrix" values="0 0 0 0 0.0666667 0 0 0 0 0.0196078 0 0 0 0 0.160784 0 0 0 0.16 0"/>
<feBlend mode="normal" in2="shape" result="effect1_innerShadow_6946_5887"/>
</filter>
<filter id="filter8_i_6946_5887" x="493" y="215" width="147.031" height="54" filterUnits="userSpaceOnUse" color-interpolation-filters="sRGB">
<feFlood flood-opacity="0" result="BackgroundImageFix"/>
<feBlend mode="normal" in="SourceGraphic" in2="BackgroundImageFix" result="shape"/>
<feColorMatrix in="SourceAlpha" type="matrix" values="0 0 0 0 0 0 0 0 0 0 0 0 0 0 0 0 0 0 127 0" result="hardAlpha"/>
<feOffset dx="-8" dy="-4"/>
<feComposite in2="hardAlpha" operator="arithmetic" k2="-1" k3="1"/>
<feColorMatrix type="matrix" values="0 0 0 0 0.0666667 0 0 0 0 0.0196078 0 0 0 0 0.160784 0 0 0 0.16 0"/>
<feBlend mode="normal" in2="shape" result="effect1_innerShadow_6946_5887"/>
</filter>
<filter id="filter9_i_6946_5887" x="493" y="215" width="147.031" height="54" filterUnits="userSpaceOnUse" color-interpolation-filters="sRGB">
<feFlood flood-opacity="0" result="BackgroundImageFix"/>
<feBlend mode="normal" in="SourceGraphic" in2="BackgroundImageFix" result="shape"/>
<feColorMatrix in="SourceAlpha" type="matrix" values="0 0 0 0 0 0 0 0 0 0 0 0 0 0 0 0 0 0 127 0" result="hardAlpha"/>
<feOffset dx="-8" dy="-4"/>
<feComposite in2="hardAlpha" operator="arithmetic" k2="-1" k3="1"/>
<feColorMatrix type="matrix" values="0 0 0 0 0.0666667 0 0 0 0 0.0196078 0 0 0 0 0.160784 0 0 0 0.16 0"/>
<feBlend mode="normal" in2="shape" result="effect1_innerShadow_6946_5887"/>
</filter>
</defs>
</svg>
