<svg width="960" height="224" viewBox="0 0 960 224" fill="none" xmlns="http://www.w3.org/2000/svg">
<rect width="960" height="224" fill="white"/>
<path d="M189 144V24" stroke="#D3D7E0" stroke-width="2" stroke-linecap="square" stroke-dasharray="6 6"/>
<path d="M207.268 37.21C209.151 37.21 210.768 35.705 210.768 33.829C210.768 31.939 209.382 30.525 207.499 30.525C206.904 30.525 206.274 30.714 205.777 31.071L205.945 28.299H210.075V26.92H204.636L204.328 32.219L205.602 32.667C205.917 32.247 206.484 31.855 207.31 31.855C208.388 31.855 209.291 32.723 209.291 33.829C209.291 34.907 208.416 35.796 207.31 35.796C206.47 35.796 205.637 35.229 205.406 34.333L203.999 34.711C204.412 36.181 205.714 37.21 207.268 37.21ZM212.672 29.629L212.581 30.28C213.589 30.462 214.128 29.846 214.128 28.747V26.92H212.581V28.607H213.386C213.456 29.202 213.281 29.678 212.672 29.629ZM220.15 37.21C222.523 37.21 224.168 35.663 224.168 33.29V26.92H222.684V33.213C222.684 34.914 221.417 35.831 220.15 35.831C218.897 35.831 217.616 34.935 217.616 33.213V26.92L216.132 26.927V33.29C216.132 35.663 217.777 37.21 220.15 37.21ZM228.639 37H230.102V28.299H233.455V26.92H225.286V28.299H228.639V37ZM234.576 37H236.039V33.381H238.713L240.47 37H242.143L240.239 33.094C241.38 32.597 241.954 31.491 241.954 30.147C241.954 28.516 241.114 27.235 239.427 26.976C239.161 26.934 238.846 26.92 238.65 26.92H234.576V37ZM236.039 31.995V28.299H238.594C238.776 28.299 239.021 28.313 239.231 28.369C240.127 28.579 240.463 29.405 240.463 30.147C240.463 30.889 240.127 31.715 239.231 31.932C239.021 31.981 238.776 31.995 238.594 31.995H236.039Z" fill="#D3D7E0"/>
<path d="M257 144V24" stroke="#D3D7E0" stroke-width="2" stroke-linecap="square" stroke-dasharray="6 6"/>
<path d="M270.442 37H276.469V35.621H271.905V26.92H270.442V37Z" fill="#D3D7E0"/>
<path d="M289 144V24" stroke="#D3D7E0" stroke-width="2" stroke-linecap="square" stroke-dasharray="6 6"/>
<path d="M306.858 37H308.321V32.695H311.989V31.225H308.321V28.383H312.829V26.92H306.858V37ZM314.09 37H315.553V33.381H318.227L319.984 37H321.657L319.753 33.094C320.894 32.597 321.468 31.491 321.468 30.147C321.468 28.516 320.628 27.235 318.941 26.976C318.675 26.934 318.36 26.92 318.164 26.92H314.09V37ZM315.553 31.995V28.299H318.108C318.29 28.299 318.535 28.313 318.745 28.369C319.641 28.579 319.977 29.405 319.977 30.147C319.977 30.889 319.641 31.715 318.745 31.932C318.535 31.981 318.29 31.995 318.108 31.995H315.553ZM324.953 37H326.444V26.92H324.953L323.056 28.054V29.685L324.953 28.53V37Z" fill="#D3D7E0"/>
<path d="M345 144V24" stroke="#D3D7E0" stroke-width="2" stroke-linecap="square" stroke-dasharray="6 6"/>
<path d="M360.735 37.21C363.059 37.21 364.62 35.943 365.215 33.955L363.731 33.556C363.332 34.963 362.331 35.817 360.735 35.817C358.593 35.817 357.501 34.27 357.515 31.96C357.522 29.65 358.593 28.103 360.735 28.103C362.331 28.103 363.332 28.957 363.731 30.364L365.215 29.965C364.62 27.977 363.059 26.71 360.735 26.71C357.711 26.71 355.968 28.845 355.968 31.96C355.968 35.075 357.711 37.21 360.735 37.21ZM366.754 37H369.911C370.093 37 370.695 37 371.164 36.937C373.53 36.636 374.79 34.529 374.79 31.96C374.79 29.391 373.53 27.284 371.164 26.983C370.695 26.92 370.093 26.92 369.911 26.92H366.754V37ZM368.252 35.607V28.313H369.911C370.219 28.313 370.723 28.32 371.059 28.383C372.571 28.663 373.236 30.189 373.236 31.96C373.236 33.689 372.599 35.243 371.059 35.537C370.723 35.6 370.233 35.607 369.911 35.607H368.252ZM376.42 37H377.883V33.381H380.557L382.314 37H383.987L382.083 33.094C383.224 32.597 383.798 31.491 383.798 30.147C383.798 28.516 382.958 27.235 381.271 26.976C381.005 26.934 380.69 26.92 380.494 26.92H376.42V37ZM377.883 31.995V28.299H380.438C380.62 28.299 380.865 28.313 381.075 28.369C381.971 28.579 382.307 29.405 382.307 30.147C382.307 30.889 381.971 31.715 381.075 31.932C380.865 31.981 380.62 31.995 380.438 31.995H377.883ZM387.283 37H388.774V26.92H387.283L385.386 28.054V29.685L387.283 28.53V37Z" fill="#D3D7E0"/>
<path d="M401 144V24" stroke="#D3D7E0" stroke-width="2" stroke-linecap="square" stroke-dasharray="6 6"/>
<path d="M417.703 37H419.166V32.695H422.834V31.225H419.166V28.383H423.674V26.92H417.703V37ZM424.935 37H426.398V33.381H429.072L430.829 37H432.502L430.598 33.094C431.739 32.597 432.313 31.491 432.313 30.147C432.313 28.516 431.473 27.235 429.786 26.976C429.52 26.934 429.205 26.92 429.009 26.92H424.935V37ZM426.398 31.995V28.299H428.953C429.135 28.299 429.38 28.313 429.59 28.369C430.486 28.579 430.822 29.405 430.822 30.147C430.822 30.889 430.486 31.715 429.59 31.932C429.38 31.981 429.135 31.995 428.953 31.995H426.398ZM433.761 36.993H440.579V35.6H436.022L438.941 32.996C440.033 32.037 440.579 31.407 440.579 30.028C440.579 28.117 439.144 26.71 437.24 26.71C435.231 26.71 433.796 28.047 433.796 30H435.294C435.28 28.985 436.092 28.103 437.212 28.103C438.297 28.103 439.074 28.929 439.074 30.007C439.074 30.581 438.864 31.127 438.157 31.757L433.768 35.691L433.761 36.993Z" fill="#D3D7E0"/>
<path d="M457 144V24" stroke="#D3D7E0" stroke-width="2" stroke-linecap="square" stroke-dasharray="6 6"/>
<path d="M471.58 37.21C473.904 37.21 475.465 35.943 476.06 33.955L474.576 33.556C474.177 34.963 473.176 35.817 471.58 35.817C469.438 35.817 468.346 34.27 468.36 31.96C468.367 29.65 469.438 28.103 471.58 28.103C473.176 28.103 474.177 28.957 474.576 30.364L476.06 29.965C475.465 27.977 473.904 26.71 471.58 26.71C468.556 26.71 466.813 28.845 466.813 31.96C466.813 35.075 468.556 37.21 471.58 37.21ZM477.599 37H480.756C480.938 37 481.54 37 482.009 36.937C484.375 36.636 485.635 34.529 485.635 31.96C485.635 29.391 484.375 27.284 482.009 26.983C481.54 26.92 480.938 26.92 480.756 26.92H477.599V37ZM479.097 35.607V28.313H480.756C481.064 28.313 481.568 28.32 481.904 28.383C483.416 28.663 484.081 30.189 484.081 31.96C484.081 33.689 483.444 35.243 481.904 35.537C481.568 35.6 481.078 35.607 480.756 35.607H479.097ZM487.265 37H488.728V33.381H491.402L493.159 37H494.832L492.928 33.094C494.069 32.597 494.643 31.491 494.643 30.147C494.643 28.516 493.803 27.235 492.116 26.976C491.85 26.934 491.535 26.92 491.339 26.92H487.265V37ZM488.728 31.995V28.299H491.283C491.465 28.299 491.71 28.313 491.92 28.369C492.816 28.579 493.152 29.405 493.152 30.147C493.152 30.889 492.816 31.715 491.92 31.932C491.71 31.981 491.465 31.995 491.283 31.995H488.728ZM496.091 36.993H502.909V35.6H498.352L501.271 32.996C502.363 32.037 502.909 31.407 502.909 30.028C502.909 28.117 501.474 26.71 499.57 26.71C497.561 26.71 496.126 28.047 496.126 30H497.624C497.61 28.985 498.422 28.103 499.542 28.103C500.627 28.103 501.404 28.929 501.404 30.007C501.404 30.581 501.194 31.127 500.487 31.757L496.098 35.691L496.091 36.993Z" fill="#D3D7E0"/>
<path d="M513 144V24" stroke="#D3D7E0" stroke-width="2" stroke-linecap="square" stroke-dasharray="6 6"/>
<path d="M529.805 37H531.268V32.695H534.936V31.225H531.268V28.383H535.776V26.92H529.805V37ZM537.038 37H538.501V33.381H541.175L542.932 37H544.605L542.701 33.094C543.842 32.597 544.416 31.491 544.416 30.147C544.416 28.516 543.576 27.235 541.889 26.976C541.623 26.934 541.308 26.92 541.112 26.92H537.038V37ZM538.501 31.995V28.299H541.056C541.238 28.299 541.483 28.313 541.693 28.369C542.589 28.579 542.925 29.405 542.925 30.147C542.925 30.889 542.589 31.715 541.693 31.932C541.483 31.981 541.238 31.995 541.056 31.995H538.501ZM548.964 37.189C550.847 37.189 552.331 35.796 552.331 33.871C552.331 32.233 551.323 30.924 549.692 30.707L552.184 28.313V26.92H546.122V28.313H550.392L547.312 31.036L547.998 32.191C548.285 32.037 548.628 31.939 548.95 31.939C550.07 31.939 550.833 32.751 550.833 33.871C550.833 34.984 550.07 35.789 548.964 35.803C548.138 35.81 547.403 35.341 547.137 34.466L545.723 34.858C546.15 36.293 547.466 37.189 548.964 37.189Z" fill="#D3D7E0"/>
<path d="M569 144V24" stroke="#D3D7E0" stroke-width="2" stroke-linecap="square" stroke-dasharray="6 6"/>
<path d="M619.682 37.21C622.006 37.21 623.567 35.943 624.162 33.955L622.678 33.556C622.279 34.963 621.278 35.817 619.682 35.817C617.54 35.817 616.448 34.27 616.462 31.96C616.469 29.65 617.54 28.103 619.682 28.103C621.278 28.103 622.279 28.957 622.678 30.364L624.162 29.965C623.567 27.977 622.006 26.71 619.682 26.71C616.658 26.71 614.915 28.845 614.915 31.96C614.915 35.075 616.658 37.21 619.682 37.21ZM625.702 37H628.859C629.041 37 629.643 37 630.112 36.937C632.478 36.636 633.738 34.529 633.738 31.96C633.738 29.391 632.478 27.284 630.112 26.983C629.643 26.92 629.041 26.92 628.859 26.92H625.702V37ZM627.2 35.607V28.313H628.859C629.167 28.313 629.671 28.32 630.007 28.383C631.519 28.663 632.184 30.189 632.184 31.96C632.184 33.689 631.547 35.243 630.007 35.537C629.671 35.6 629.181 35.607 628.859 35.607H627.2ZM635.368 37H636.831V33.381H639.505L641.262 37H642.935L641.031 33.094C642.172 32.597 642.746 31.491 642.746 30.147C642.746 28.516 641.906 27.235 640.219 26.976C639.953 26.934 639.638 26.92 639.442 26.92H635.368V37ZM636.831 31.995V28.299H639.386C639.568 28.299 639.813 28.313 640.023 28.369C640.919 28.579 641.255 29.405 641.255 30.147C641.255 30.889 640.919 31.715 640.023 31.932C639.813 31.981 639.568 31.995 639.386 31.995H636.831ZM647.294 37.189C649.177 37.189 650.661 35.796 650.661 33.871C650.661 32.233 649.653 30.924 648.022 30.707L650.514 28.313V26.92H644.452V28.313H648.722L645.642 31.036L646.328 32.191C646.615 32.037 646.958 31.939 647.28 31.939C648.4 31.939 649.163 32.751 649.163 33.871C649.163 34.984 648.4 35.789 647.294 35.803C646.468 35.81 645.733 35.341 645.467 34.466L644.053 34.858C644.48 36.293 645.796 37.189 647.294 37.189Z" fill="#D3D7E0"/>
<path d="M697 144V24" stroke="#D3D7E0" stroke-width="2" stroke-linecap="square" stroke-dasharray="6 6"/>
<path d="M749.593 37H751.056V32.695H754.724V31.225H751.056V28.383H755.564V26.92H749.593V37ZM756.826 37H758.289V33.381H760.963L762.72 37H764.393L762.489 33.094C763.63 32.597 764.204 31.491 764.204 30.147C764.204 28.516 763.364 27.235 761.677 26.976C761.411 26.934 761.096 26.92 760.9 26.92H756.826V37ZM758.289 31.995V28.299H760.844C761.026 28.299 761.271 28.313 761.481 28.369C762.377 28.579 762.713 29.405 762.713 30.147C762.713 30.889 762.377 31.715 761.481 31.932C761.271 31.981 761.026 31.995 760.844 31.995H758.289ZM770.201 37H771.685V35.243H772.686V33.857H771.685V31.127H770.201V33.857H767.324L770.6 26.92H768.927L765.651 33.857V35.243H770.201V37Z" fill="#D3D7E0"/>
<path d="M825 144V24" stroke="#D3D7E0" stroke-width="2" stroke-linecap="square" stroke-dasharray="6 6"/>
<rect width="45" height="20" transform="translate(62 72)" fill="white"/>
<path d="M69.2667 76L67 77.35V79L69.2667 77.6333V88H70.7667V76H69.2667ZM73.6823 79.6167H75.199C75.199 78.8833 75.5323 78.2 76.0656 77.7333C76.4823 77.3833 77.0323 77.1667 77.6323 77.1667C78.2823 77.1667 78.8823 77.4 79.3156 77.8333C79.799 78.2833 80.0823 78.9333 80.0823 79.6167C80.0823 80.3833 79.849 81.0833 78.9656 81.8667L73.6156 86.5667L73.599 87.9833H81.4323V86.5667H75.9323L79.7823 83.1333C80.999 82.05 81.599 81.1667 81.599 79.6333C81.599 78.5833 81.1823 77.5667 80.449 76.8667C79.749 76.1167 78.7656 75.75 77.699 75.75C76.7323 75.75 75.7656 76.0167 75.0323 76.65C74.199 77.3667 73.6656 78.45 73.6823 79.6167ZM91.0375 80.1833C90.3042 79.25 89.1542 78.75 87.9208 78.75C86.8542 78.75 85.8375 79.15 85.1042 79.85V76H83.6042V88H84.9375V86.95C85.6542 87.8167 86.7208 88.25 87.9208 88.25C89.1375 88.25 90.2875 87.7333 91.0375 86.8C91.7875 85.85 92.0375 84.6667 92.0375 83.4833C92.0375 82.3 91.7542 81.1 91.0375 80.1833ZM89.8375 85.8833C89.3542 86.5667 88.5542 86.8833 87.7375 86.8833C86.9042 86.8833 86.1375 86.5833 85.6375 85.9667C85.1375 85.35 84.9375 84.4167 84.9375 83.4833C84.9375 82.5667 85.1375 81.65 85.6375 81.0167C86.1208 80.4 86.8708 80.1 87.6875 80.1C88.5708 80.1 89.3375 80.4167 89.8208 81.1C90.2875 81.7167 90.4542 82.5833 90.4542 83.4833C90.4542 84.3833 90.3042 85.2667 89.8375 85.8833ZM101.303 80.1833C100.57 79.25 99.4198 78.75 98.1865 78.75C97.0365 78.75 95.9365 79.2 95.2031 80.0167V79H93.8698V92H95.3698V87.15C96.0698 87.8833 97.0698 88.25 98.1865 88.25C99.4031 88.25 100.553 87.7333 101.303 86.8C102.053 85.85 102.303 84.6667 102.303 83.4833C102.303 82.3 102.02 81.1 101.303 80.1833ZM100.103 85.8833C99.6198 86.5667 98.8198 86.8833 98.0031 86.8833C97.1698 86.8833 96.4031 86.5833 95.9031 85.9667C95.4031 85.35 95.2031 84.4167 95.2031 83.4833C95.2031 82.5667 95.4031 81.65 95.9031 81.0167C96.3865 80.4 97.1365 80.1 97.9531 80.1C98.8365 80.1 99.6031 80.4167 100.086 81.1C100.553 81.7167 100.72 82.5833 100.72 83.4833C100.72 84.3833 100.57 85.2667 100.103 85.8833Z" fill="#110529"/>
<g filter="url(#filter0_i_5544_35123)">
<rect x="50" y="104" width="69" height="52" rx="1" fill="#D6E0FF"/>
<path d="M73.5527 138.3C76.8927 138.3 79.2327 136.1 79.2327 132.75V123.6H77.4327V132.6C77.4327 135.31 75.3927 136.62 73.5527 136.62C71.7327 136.62 69.6727 135.33 69.6727 132.6V123.6L67.8727 123.61V132.75C67.8727 136.11 70.2127 138.3 73.5527 138.3ZM82.0328 138H83.7228V127.51L88.6128 138H89.5628L94.4528 127.51V137.99H96.1428V123.6H94.5028L89.0928 135.07L83.6528 123.6H82.0328V138ZM99.1469 138H100.927V123.6H99.1469V138Z" fill="#110529"/>
<rect x="50" y="104" width="69" height="52" rx="1" stroke="#110529" stroke-width="2" stroke-linecap="round"/>
</g>
<g filter="url(#filter1_i_5544_35123)">
<rect x="119" y="104" width="70" height="52" rx="1" fill="#D3D7E0"/>
<rect x="119" y="104" width="70" height="52" rx="1" stroke="#110529" stroke-width="2" stroke-linecap="round"/>
</g>
<g filter="url(#filter2_i_5544_35123)">
<rect x="189" y="104" width="396" height="52" rx="1" fill="#99E099"/>
<path d="M385.758 138H388.238L393.058 123.6H391.208L386.978 136.11L382.788 123.6H380.938L385.758 138Z" fill="#110529"/>
<rect x="189" y="104" width="396" height="52" rx="1" stroke="#110529" stroke-width="2" stroke-linecap="round"/>
</g>
<g filter="url(#filter3_i_5544_35123)">
<rect x="585" y="104" width="30" height="52" rx="1" fill="#CBEB67"/>
</g>
<rect x="585" y="104" width="30" height="52" rx="1" stroke="#110529" stroke-width="2" stroke-linecap="round"/>
<g filter="url(#filter4_i_5544_35123)">
<rect x="651" y="104" width="30" height="52" rx="1" fill="#FAAAFA"/>
</g>
<rect x="651" y="104" width="30" height="52" rx="1" stroke="#110529" stroke-width="2" stroke-linecap="round"/>
<g filter="url(#filter5_i_5544_35123)">
<rect x="615" y="104" width="36" height="52" rx="1" fill="#FFCB8F"/>
</g>
<rect x="615" y="104" width="36" height="52" rx="1" stroke="#110529" stroke-width="2" stroke-linecap="round"/>
<path d="M594.447 138H596.247V126.74L603.757 138H605.557V123.6H603.757V134.85L596.247 123.6H594.447V138Z" fill="#110529"/>
<path d="M660.447 138H662.247V126.74L669.757 138H671.557V123.6H669.757V134.85L662.247 123.6H660.447V138Z" fill="#110529"/>
<path d="M627.593 138H632.033C632.303 138 633.183 138 633.853 137.91C637.183 137.47 638.913 134.48 638.913 130.8C638.913 127.13 637.183 124.13 633.853 123.69C633.173 123.6 632.313 123.6 632.033 123.6H627.593V138ZM629.423 136.3V125.3H632.033C632.513 125.3 633.233 125.32 633.703 125.41C636.033 125.83 637.023 128.08 637.023 130.8C637.023 133.47 636.063 135.76 633.703 136.19C633.233 136.28 632.533 136.3 632.033 136.3H629.423Z" fill="#110529"/>
<g filter="url(#filter6_i_5544_35123)">
<rect x="681" y="104" width="144" height="52" rx="1" fill="#C1ADFF"/>
<path d="M752.244 138.29C753.694 138.29 754.954 137.7 755.684 136.43C756.214 135.51 756.154 134.72 756.154 133.48V123.6H754.354V133.48C754.354 134.37 754.354 134.99 754.094 135.51C753.704 136.29 752.884 136.6 752.204 136.6C751.134 136.6 750.224 135.83 750.014 134.85L748.244 135.27C748.754 137.11 750.224 138.29 752.244 138.29Z" fill="#110529"/>
<rect x="681" y="104" width="144" height="52" rx="1" stroke="#110529" stroke-width="2" stroke-linecap="round"/>
</g>
<g filter="url(#filter7_i_5544_35123)">
<path d="M897 104H826.6C826.04 104 825.76 104 825.546 104.109C825.358 104.205 825.205 104.358 825.109 104.546C825 104.76 825 105.04 825 105.6V154.4C825 154.96 825 155.24 825.109 155.454C825.205 155.642 825.358 155.795 825.546 155.891C825.76 156 826.04 156 826.6 156H897L892 149.5L897 143L892 136L897 130L892 123.5L897 117L892 110.5L897 104Z" fill="#FAFAAA"/>
</g>
<path d="M897 104H826.6C826.04 104 825.76 104 825.546 104.109C825.358 104.205 825.205 104.358 825.109 104.546C825 104.76 825 105.04 825 105.6V154.4C825 154.96 825 155.24 825.109 155.454C825.205 155.642 825.358 155.795 825.546 155.891C825.76 156 826.04 156 826.6 156H897L892 149.5L897 143L892 136L897 130L892 123.5L897 117L892 110.5L897 104Z" stroke="#110529" stroke-width="2" stroke-linecap="round"/>
<path d="M861.593 138.3C864.923 138.3 867.113 136.47 867.933 133.61L866.123 133.13C865.533 135.27 864.023 136.6 861.593 136.6C858.373 136.6 856.733 134.25 856.753 130.8C856.773 127.35 858.373 125 861.593 125C864.023 125 865.533 126.33 866.123 128.47L867.933 127.99C867.113 125.13 864.923 123.3 861.593 123.3C857.283 123.3 854.873 126.36 854.873 130.8C854.873 135.24 857.283 138.3 861.593 138.3Z" fill="#110529"/>
<rect width="57" height="20" transform="translate(124 72)" fill="white"/>
<path d="M137.267 82.3167H135.917C136.05 82.6833 135.967 83.1667 135.417 83.2167C134.883 83.2667 134.367 82.9333 133.65 82.6167C132.983 82.3 132.267 82.0833 131.5 82.2333C131.017 82.3167 130.517 82.6 130.233 83.0833C129.983 83.55 129.95 84.1667 130.067 84.6667H131.417C131.267 84.2833 131.35 83.8167 131.917 83.7667C132.45 83.7167 132.967 84.05 133.683 84.3667C134.35 84.6833 135.067 84.9 135.833 84.75C136.317 84.6667 136.8 84.3667 137.083 83.9C137.35 83.45 137.383 82.8167 137.267 82.3167ZM142.595 76L140.328 77.35V79L142.595 77.6333V88H144.095V76H142.595ZM147.01 79.6167H148.527C148.527 78.8833 148.86 78.2 149.394 77.7333C149.81 77.3833 150.36 77.1667 150.96 77.1667C151.61 77.1667 152.21 77.4 152.644 77.8333C153.127 78.2833 153.41 78.9333 153.41 79.6167C153.41 80.3833 153.177 81.0833 152.294 81.8667L146.944 86.5667L146.927 87.9833H154.76V86.5667H149.26L153.11 83.1333C154.327 82.05 154.927 81.1667 154.927 79.6333C154.927 78.5833 154.51 77.5667 153.777 76.8667C153.077 76.1167 152.094 75.75 151.027 75.75C150.06 75.75 149.094 76.0167 148.36 76.65C147.527 77.3667 146.994 78.45 147.01 79.6167ZM164.366 80.1833C163.632 79.25 162.482 78.75 161.249 78.75C160.182 78.75 159.166 79.15 158.432 79.85V76H156.932V88H158.266V86.95C158.982 87.8167 160.049 88.25 161.249 88.25C162.466 88.25 163.616 87.7333 164.366 86.8C165.116 85.85 165.366 84.6667 165.366 83.4833C165.366 82.3 165.082 81.1 164.366 80.1833ZM163.166 85.8833C162.682 86.5667 161.882 86.8833 161.066 86.8833C160.232 86.8833 159.466 86.5833 158.966 85.9667C158.466 85.35 158.266 84.4167 158.266 83.4833C158.266 82.5667 158.466 81.65 158.966 81.0167C159.449 80.4 160.199 80.1 161.016 80.1C161.899 80.1 162.666 80.4167 163.149 81.1C163.616 81.7167 163.782 82.5833 163.782 83.4833C163.782 84.3833 163.632 85.2667 163.166 85.8833ZM174.631 80.1833C173.898 79.25 172.748 78.75 171.515 78.75C170.365 78.75 169.265 79.2 168.531 80.0167V79H167.198V92H168.698V87.15C169.398 87.8833 170.398 88.25 171.515 88.25C172.731 88.25 173.881 87.7333 174.631 86.8C175.381 85.85 175.631 84.6667 175.631 83.4833C175.631 82.3 175.348 81.1 174.631 80.1833ZM173.431 85.8833C172.948 86.5667 172.148 86.8833 171.331 86.8833C170.498 86.8833 169.731 86.5833 169.231 85.9667C168.731 85.35 168.531 84.4167 168.531 83.4833C168.531 82.5667 168.731 81.65 169.231 81.0167C169.715 80.4 170.465 80.1 171.281 80.1C172.165 80.1 172.931 80.4167 173.415 81.1C173.881 81.7167 174.048 82.5833 174.048 83.4833C174.048 84.3833 173.898 85.2667 173.431 85.8833Z" fill="#110529"/>
<path d="M495 76L494.293 75.2929L493.586 76L494.293 76.7071L495 76ZM502.293 84.7071L503 85.4142L504.414 84L503.707 83.2929L502.293 84.7071ZM503.707 68.7071L504.414 68L503 66.5858L502.293 67.2929L503.707 68.7071ZM515 75L495 75L495 77L515 77L515 75ZM494.293 76.7071L502.293 84.7071L503.707 83.2929L495.707 75.2929L494.293 76.7071ZM495.707 76.7071L503.707 68.7071L502.293 67.2929L494.293 75.2929L495.707 76.7071Z" fill="#110529"/>
<path d="M510 76L644 76" stroke="#110529" stroke-width="2" stroke-linecap="square"/>
<rect width="56" height="20" transform="translate(644 66)" fill="white"/>
<path d="M648.917 73.6167H650.433C650.433 72.8833 650.767 72.2 651.3 71.7333C651.717 71.3833 652.267 71.1667 652.867 71.1667C653.517 71.1667 654.117 71.4 654.55 71.8333C655.033 72.2833 655.317 72.9333 655.317 73.6167C655.317 74.3833 655.083 75.0833 654.2 75.8667L648.85 80.5667L648.833 81.9833H656.667V80.5667H651.167L655.017 77.1333C656.233 76.05 656.833 75.1667 656.833 73.6333C656.833 72.5833 656.417 71.5667 655.683 70.8667C654.983 70.1167 654 69.75 652.933 69.75C651.967 69.75 651 70.0167 650.267 70.65C649.433 71.3667 648.9 72.45 648.917 73.6167ZM666.355 71.3167C665.572 70.3167 664.389 69.75 663.072 69.75C661.889 69.7667 660.772 70.15 659.972 71.0333C659.172 71.8833 658.839 72.9 658.839 74.1333V77.85C658.839 79.1 659.139 80.1333 660.005 81C660.755 81.7833 661.822 82.25 662.939 82.2333C664.039 82.25 665.089 81.8 665.839 81.05C666.572 80.3167 667.022 79.3 667.022 78.2333C667.039 77.0833 666.622 76.1 665.839 75.3333C665.105 74.6667 664.122 74.2667 663.105 74.2667C662.022 74.2667 661.039 74.7667 660.355 75.5333V74.1333C660.355 73.4333 660.522 72.8167 660.922 72.3C661.355 71.6167 662.189 71.1667 663.072 71.1667C663.955 71.1667 664.755 71.6167 665.239 72.3L666.355 71.3167ZM663.605 80.5333C662.939 80.7167 662.272 80.6167 661.722 80.2833C661.205 79.9667 660.805 79.4833 660.622 78.8833C660.455 78.2833 660.522 77.6333 660.805 77.1C661.105 76.5333 661.622 76.0833 662.272 75.9167C662.905 75.7333 663.539 75.8167 664.089 76.1C664.639 76.4 665.072 76.9167 665.255 77.5667C665.422 78.1667 665.355 78.8 665.089 79.3333C664.789 79.9167 664.255 80.3667 663.605 80.5333ZM671.032 70L668.766 71.35V73L671.032 71.6333V82H672.532V70H671.032ZM683.131 74.1833C682.398 73.25 681.248 72.75 680.015 72.75C678.948 72.75 677.931 73.15 677.198 73.85V70H675.698V82H677.031V80.95C677.748 81.8167 678.815 82.25 680.015 82.25C681.231 82.25 682.381 81.7333 683.131 80.8C683.881 79.85 684.131 78.6667 684.131 77.4833C684.131 76.3 683.848 75.1 683.131 74.1833ZM681.931 79.8833C681.448 80.5667 680.648 80.8833 679.831 80.8833C678.998 80.8833 678.231 80.5833 677.731 79.9667C677.231 79.35 677.031 78.4167 677.031 77.4833C677.031 76.5667 677.231 75.65 677.731 75.0167C678.215 74.4 678.965 74.1 679.781 74.1C680.665 74.1 681.431 74.4167 681.915 75.1C682.381 75.7167 682.548 76.5833 682.548 77.4833C682.548 78.3833 682.398 79.2667 681.931 79.8833ZM693.397 74.1833C692.664 73.25 691.514 72.75 690.28 72.75C689.13 72.75 688.03 73.2 687.297 74.0167V73H685.964V86H687.464V81.15C688.164 81.8833 689.164 82.25 690.28 82.25C691.497 82.25 692.647 81.7333 693.397 80.8C694.147 79.85 694.397 78.6667 694.397 77.4833C694.397 76.3 694.114 75.1 693.397 74.1833ZM692.197 79.8833C691.714 80.5667 690.914 80.8833 690.097 80.8833C689.264 80.8833 688.497 80.5833 687.997 79.9667C687.497 79.35 687.297 78.4167 687.297 77.4833C687.297 76.5667 687.497 75.65 687.997 75.0167C688.48 74.4 689.23 74.1 690.047 74.1C690.93 74.1 691.697 74.4167 692.18 75.1C692.647 75.7167 692.814 76.5833 692.814 77.4833C692.814 78.3833 692.664 79.2667 692.197 79.8833Z" fill="#110529"/>
<path d="M700 76L834 76" stroke="#110529" stroke-width="2" stroke-linecap="square"/>
<path d="M861 68V84H851V92L837 76L851 60V68H861Z" fill="#110529"/>
<path d="M870.4 84H872.18V78.68H876.39L878.97 84H881.01L878.23 78.29C879.86 77.61 880.71 76.04 880.71 74.14C880.71 71.85 879.48 70.04 877.15 69.68C876.78 69.62 876.37 69.6 876.09 69.6H870.4V84ZM872.18 76.99V71.29H876.03C876.28 71.29 876.63 71.31 876.93 71.38C878.31 71.69 878.89 72.94 878.89 74.14C878.89 75.34 878.31 76.59 876.93 76.9C876.63 76.97 876.28 76.99 876.03 76.99H872.18ZM885.723 84H887.533V69.6H885.723L883.013 71.22V73.21L885.723 71.57V84Z" fill="#110529"/>
<path d="M17.4 192H19.18V186.68H23.39L25.97 192H28.01L25.23 186.29C26.86 185.61 27.71 184.04 27.71 182.14C27.71 179.85 26.48 178.04 24.15 177.68C23.78 177.62 23.37 177.6 23.09 177.6H17.4V192ZM19.18 184.99V179.29H23.03C23.28 179.29 23.63 179.31 23.93 179.38C25.31 179.69 25.89 180.94 25.89 182.14C25.89 183.34 25.31 184.59 23.93 184.9C23.63 184.97 23.28 184.99 23.03 184.99H19.18ZM29.8125 191.99H39.3825V190.29H32.5525L37.1925 186.12C38.6725 184.81 39.3825 183.86 39.3825 181.97C39.3825 179.32 37.3625 177.3 34.6925 177.3C31.9225 177.3 29.8825 179.23 29.8825 181.94H31.7025C31.6825 180.37 32.9425 179 34.6625 179C36.3225 179 37.5625 180.29 37.5625 181.95C37.5625 182.86 37.2725 183.69 36.2125 184.64L29.8225 190.39L29.8125 191.99Z" fill="#110529"/>
<path d="M49 176V192H59V200L73 184L59 168V176H49Z" fill="#110529"/>
<path d="M120 184H76" stroke="#110529" stroke-width="2" stroke-linecap="square"/>
<rect width="46" height="20" transform="translate(120 174)" fill="white"/>
<path d="M131.817 186.383V183H130.317V186.383H126.4L130.35 178H128.8L124.833 186.383V187.783H130.317V190H131.817V187.783H133.067V186.383H131.817ZM137.173 178L134.906 179.35V181L137.173 179.633V190H138.673V178H137.173ZM149.272 182.183C148.539 181.25 147.389 180.75 146.155 180.75C145.089 180.75 144.072 181.15 143.339 181.85V178H141.839V190H143.172V188.95C143.889 189.817 144.955 190.25 146.155 190.25C147.372 190.25 148.522 189.733 149.272 188.8C150.022 187.85 150.272 186.667 150.272 185.483C150.272 184.3 149.989 183.1 149.272 182.183ZM148.072 187.883C147.589 188.567 146.789 188.883 145.972 188.883C145.139 188.883 144.372 188.583 143.872 187.967C143.372 187.35 143.172 186.417 143.172 185.483C143.172 184.567 143.372 183.65 143.872 183.017C144.355 182.4 145.105 182.1 145.922 182.1C146.805 182.1 147.572 182.417 148.055 183.1C148.522 183.717 148.689 184.583 148.689 185.483C148.689 186.383 148.539 187.267 148.072 187.883ZM159.538 182.183C158.804 181.25 157.654 180.75 156.421 180.75C155.271 180.75 154.171 181.2 153.438 182.017V181H152.104V194H153.604V189.15C154.304 189.883 155.304 190.25 156.421 190.25C157.638 190.25 158.788 189.733 159.538 188.8C160.288 187.85 160.538 186.667 160.538 185.483C160.538 184.3 160.254 183.1 159.538 182.183ZM158.338 187.883C157.854 188.567 157.054 188.883 156.238 188.883C155.404 188.883 154.638 188.583 154.138 187.967C153.638 187.35 153.438 186.417 153.438 185.483C153.438 184.567 153.638 183.65 154.138 183.017C154.621 182.4 155.371 182.1 156.188 182.1C157.071 182.1 157.838 182.417 158.321 183.1C158.788 183.717 158.954 184.583 158.954 185.483C158.954 186.383 158.804 187.267 158.338 187.883Z" fill="#110529"/>
<path d="M210 184H166" stroke="#110529" stroke-width="2" stroke-linecap="square"/>
<path d="M220 184L220.707 183.293L221.414 184L220.707 184.707L220 184ZM212.707 192.707L212 193.414L210.586 192L211.293 191.293L212.707 192.707ZM211.293 176.707L210.586 176L212 174.586L212.707 175.293L211.293 176.707ZM210 183L220 183L220 185L210 185L210 183ZM220.707 184.707L212.707 192.707L211.293 191.293L219.293 183.293L220.707 184.707ZM219.293 184.707L211.293 176.707L212.707 175.293L220.707 183.293L219.293 184.707Z" fill="#110529"/>
<defs>
<filter id="filter0_i_5544_35123" x="49" y="103" width="71" height="54" filterUnits="userSpaceOnUse" color-interpolation-filters="sRGB">
<feFlood flood-opacity="0" result="BackgroundImageFix"/>
<feBlend mode="normal" in="SourceGraphic" in2="BackgroundImageFix" result="shape"/>
<feColorMatrix in="SourceAlpha" type="matrix" values="0 0 0 0 0 0 0 0 0 0 0 0 0 0 0 0 0 0 127 0" result="hardAlpha"/>
<feOffset dx="-8" dy="-4"/>
<feComposite in2="hardAlpha" operator="arithmetic" k2="-1" k3="1"/>
<feColorMatrix type="matrix" values="0 0 0 0 0.0666667 0 0 0 0 0.0196078 0 0 0 0 0.160784 0 0 0 0.16 0"/>
<feBlend mode="normal" in2="shape" result="effect1_innerShadow_5544_35123"/>
</filter>
<filter id="filter1_i_5544_35123" x="118" y="103" width="72" height="54" filterUnits="userSpaceOnUse" color-interpolation-filters="sRGB">
<feFlood flood-opacity="0" result="BackgroundImageFix"/>
<feBlend mode="normal" in="SourceGraphic" in2="BackgroundImageFix" result="shape"/>
<feColorMatrix in="SourceAlpha" type="matrix" values="0 0 0 0 0 0 0 0 0 0 0 0 0 0 0 0 0 0 127 0" result="hardAlpha"/>
<feOffset dx="-8" dy="-4"/>
<feComposite in2="hardAlpha" operator="arithmetic" k2="-1" k3="1"/>
<feColorMatrix type="matrix" values="0 0 0 0 0.0666667 0 0 0 0 0.0196078 0 0 0 0 0.160784 0 0 0 0.16 0"/>
<feBlend mode="normal" in2="shape" result="effect1_innerShadow_5544_35123"/>
</filter>
<filter id="filter2_i_5544_35123" x="188" y="103" width="398" height="54" filterUnits="userSpaceOnUse" color-interpolation-filters="sRGB">
<feFlood flood-opacity="0" result="BackgroundImageFix"/>
<feBlend mode="normal" in="SourceGraphic" in2="BackgroundImageFix" result="shape"/>
<feColorMatrix in="SourceAlpha" type="matrix" values="0 0 0 0 0 0 0 0 0 0 0 0 0 0 0 0 0 0 127 0" result="hardAlpha"/>
<feOffset dx="-8" dy="-4"/>
<feComposite in2="hardAlpha" operator="arithmetic" k2="-1" k3="1"/>
<feColorMatrix type="matrix" values="0 0 0 0 0.0666667 0 0 0 0 0.0196078 0 0 0 0 0.160784 0 0 0 0.16 0"/>
<feBlend mode="normal" in2="shape" result="effect1_innerShadow_5544_35123"/>
</filter>
<filter id="filter3_i_5544_35123" x="584" y="103" width="32" height="54" filterUnits="userSpaceOnUse" color-interpolation-filters="sRGB">
<feFlood flood-opacity="0" result="BackgroundImageFix"/>
<feBlend mode="normal" in="SourceGraphic" in2="BackgroundImageFix" result="shape"/>
<feColorMatrix in="SourceAlpha" type="matrix" values="0 0 0 0 0 0 0 0 0 0 0 0 0 0 0 0 0 0 127 0" result="hardAlpha"/>
<feOffset dx="-8" dy="-4"/>
<feComposite in2="hardAlpha" operator="arithmetic" k2="-1" k3="1"/>
<feColorMatrix type="matrix" values="0 0 0 0 0.0666667 0 0 0 0 0.0196078 0 0 0 0 0.160784 0 0 0 0.16 0"/>
<feBlend mode="normal" in2="shape" result="effect1_innerShadow_5544_35123"/>
</filter>
<filter id="filter4_i_5544_35123" x="650" y="103" width="32" height="54" filterUnits="userSpaceOnUse" color-interpolation-filters="sRGB">
<feFlood flood-opacity="0" result="BackgroundImageFix"/>
<feBlend mode="normal" in="SourceGraphic" in2="BackgroundImageFix" result="shape"/>
<feColorMatrix in="SourceAlpha" type="matrix" values="0 0 0 0 0 0 0 0 0 0 0 0 0 0 0 0 0 0 127 0" result="hardAlpha"/>
<feOffset dx="-8" dy="-4"/>
<feComposite in2="hardAlpha" operator="arithmetic" k2="-1" k3="1"/>
<feColorMatrix type="matrix" values="0 0 0 0 0.0666667 0 0 0 0 0.0196078 0 0 0 0 0.160784 0 0 0 0.16 0"/>
<feBlend mode="normal" in2="shape" result="effect1_innerShadow_5544_35123"/>
</filter>
<filter id="filter5_i_5544_35123" x="614" y="103" width="38" height="54" filterUnits="userSpaceOnUse" color-interpolation-filters="sRGB">
<feFlood flood-opacity="0" result="BackgroundImageFix"/>
<feBlend mode="normal" in="SourceGraphic" in2="BackgroundImageFix" result="shape"/>
<feColorMatrix in="SourceAlpha" type="matrix" values="0 0 0 0 0 0 0 0 0 0 0 0 0 0 0 0 0 0 127 0" result="hardAlpha"/>
<feOffset dx="-8" dy="-4"/>
<feComposite in2="hardAlpha" operator="arithmetic" k2="-1" k3="1"/>
<feColorMatrix type="matrix" values="0 0 0 0 0.0666667 0 0 0 0 0.0196078 0 0 0 0 0.160784 0 0 0 0.16 0"/>
<feBlend mode="normal" in2="shape" result="effect1_innerShadow_5544_35123"/>
</filter>
<filter id="filter6_i_5544_35123" x="680" y="103" width="146" height="54" filterUnits="userSpaceOnUse" color-interpolation-filters="sRGB">
<feFlood flood-opacity="0" result="BackgroundImageFix"/>
<feBlend mode="normal" in="SourceGraphic" in2="BackgroundImageFix" result="shape"/>
<feColorMatrix in="SourceAlpha" type="matrix" values="0 0 0 0 0 0 0 0 0 0 0 0 0 0 0 0 0 0 127 0" result="hardAlpha"/>
<feOffset dx="-8" dy="-4"/>
<feComposite in2="hardAlpha" operator="arithmetic" k2="-1" k3="1"/>
<feColorMatrix type="matrix" values="0 0 0 0 0.0666667 0 0 0 0 0.0196078 0 0 0 0 0.160784 0 0 0 0.16 0"/>
<feBlend mode="normal" in2="shape" result="effect1_innerShadow_5544_35123"/>
</filter>
<filter id="filter7_i_5544_35123" x="824" y="103" width="75.0309" height="54" filterUnits="userSpaceOnUse" color-interpolation-filters="sRGB">
<feFlood flood-opacity="0" result="BackgroundImageFix"/>
<feBlend mode="normal" in="SourceGraphic" in2="BackgroundImageFix" result="shape"/>
<feColorMatrix in="SourceAlpha" type="matrix" values="0 0 0 0 0 0 0 0 0 0 0 0 0 0 0 0 0 0 127 0" result="hardAlpha"/>
<feOffset dx="-8" dy="-4"/>
<feComposite in2="hardAlpha" operator="arithmetic" k2="-1" k3="1"/>
<feColorMatrix type="matrix" values="0 0 0 0 0.0666667 0 0 0 0 0.0196078 0 0 0 0 0.160784 0 0 0 0.16 0"/>
<feBlend mode="normal" in2="shape" result="effect1_innerShadow_5544_35123"/>
</filter>
</defs>
</svg>
