<svg width="960" height="402" viewBox="0 0 960 402" fill="none" xmlns="http://www.w3.org/2000/svg">
<rect width="960" height="402" fill="white"/>
<path d="M864 158V24" stroke="#D3D7E0" stroke-width="2" stroke-linecap="square" stroke-dasharray="6 6"/>
<path d="M789.593 37V26.92H795.564V28.383H791.056V31.225H794.724V32.695H791.056V37H789.593ZM796.826 37V26.92H800.9C800.998 26.92 801.119 26.9247 801.264 26.934C801.408 26.9387 801.546 26.9527 801.677 26.976C802.237 27.0647 802.703 27.256 803.077 27.55C803.455 27.844 803.737 28.215 803.924 28.663C804.11 29.111 804.204 29.6057 804.204 30.147C804.204 30.9497 803.998 31.6427 803.588 32.226C803.177 32.8047 802.561 33.1663 801.74 33.311L801.145 33.381H798.289V37H796.826ZM802.72 37L800.732 32.898L802.209 32.52L804.393 37H802.72ZM798.289 31.995H800.844C800.937 31.995 801.04 31.9903 801.152 31.981C801.268 31.9717 801.378 31.9553 801.481 31.932C801.779 31.862 802.02 31.7337 802.202 31.547C802.384 31.3557 802.514 31.1363 802.594 30.889C802.673 30.6417 802.713 30.3943 802.713 30.147C802.713 29.8997 802.673 29.6547 802.594 29.412C802.514 29.1647 802.384 28.9477 802.202 28.761C802.02 28.5697 801.779 28.439 801.481 28.369C801.378 28.341 801.268 28.3223 801.152 28.313C801.04 28.3037 800.937 28.299 800.844 28.299H798.289V31.995ZM810.201 37V35.243H805.651V33.857L808.927 26.92H810.6L807.324 33.857H810.201V31.127H811.685V33.857H812.686V35.243H811.685V37H810.201Z" fill="#D3D7E0"/>
<path d="M738 158V24" stroke="#D3D7E0" stroke-width="2" stroke-linecap="square" stroke-dasharray="6 6"/>
<path d="M650.682 37.21C649.674 37.21 648.815 36.9907 648.106 36.552C647.397 36.1087 646.853 35.4927 646.475 34.704C646.102 33.9153 645.915 33.0007 645.915 31.96C645.915 30.9193 646.102 30.0047 646.475 29.216C646.853 28.4273 647.397 27.8137 648.106 27.375C648.815 26.9317 649.674 26.71 650.682 26.71C651.844 26.71 652.805 27.004 653.566 27.592C654.331 28.18 654.863 28.971 655.162 29.965L653.678 30.364C653.482 29.6593 653.132 29.1063 652.628 28.705C652.129 28.3037 651.48 28.103 650.682 28.103C649.968 28.103 649.373 28.264 648.897 28.586C648.421 28.908 648.062 29.3583 647.819 29.937C647.581 30.5157 647.462 31.19 647.462 31.96C647.457 32.73 647.574 33.4043 647.812 33.983C648.055 34.5617 648.414 35.012 648.89 35.334C649.371 35.656 649.968 35.817 650.682 35.817C651.48 35.817 652.129 35.6163 652.628 35.215C653.132 34.809 653.482 34.256 653.678 33.556L655.162 33.955C654.863 34.949 654.331 35.74 653.566 36.328C652.805 36.916 651.844 37.21 650.682 37.21ZM656.702 37V26.92H659.859C659.952 26.92 660.125 26.9223 660.377 26.927C660.633 26.9317 660.878 26.9503 661.112 26.983C661.9 27.081 662.563 27.3633 663.1 27.83C663.641 28.2967 664.049 28.8893 664.325 29.608C664.6 30.322 664.738 31.106 664.738 31.96C664.738 32.8187 664.6 33.6073 664.325 34.326C664.049 35.04 663.641 35.6303 663.1 36.097C662.563 36.559 661.9 36.839 661.112 36.937C660.878 36.9697 660.633 36.9883 660.377 36.993C660.125 36.9977 659.952 37 659.859 37H656.702ZM658.2 35.607H659.859C660.017 35.607 660.206 35.6023 660.426 35.593C660.645 35.5837 660.839 35.565 661.007 35.537C661.52 35.439 661.935 35.2173 662.253 34.872C662.575 34.522 662.81 34.0927 662.96 33.584C663.109 33.0753 663.184 32.534 663.184 31.96C663.184 31.3673 663.107 30.819 662.953 30.315C662.799 29.8063 662.561 29.3817 662.239 29.041C661.921 28.6957 661.511 28.4763 661.007 28.383C660.839 28.3503 660.643 28.3317 660.419 28.327C660.199 28.3177 660.013 28.313 659.859 28.313H658.2V35.607ZM666.368 37V26.92H670.442C670.54 26.92 670.661 26.9247 670.806 26.934C670.95 26.9387 671.088 26.9527 671.219 26.976C671.779 27.0647 672.245 27.256 672.619 27.55C672.997 27.844 673.279 28.215 673.466 28.663C673.652 29.111 673.746 29.6057 673.746 30.147C673.746 30.9497 673.54 31.6427 673.13 32.226C672.719 32.8047 672.103 33.1663 671.282 33.311L670.687 33.381H667.831V37H666.368ZM672.262 37L670.274 32.898L671.751 32.52L673.935 37H672.262ZM667.831 31.995H670.386C670.479 31.995 670.582 31.9903 670.694 31.981C670.81 31.9717 670.92 31.9553 671.023 31.932C671.321 31.862 671.562 31.7337 671.744 31.547C671.926 31.3557 672.056 31.1363 672.136 30.889C672.215 30.6417 672.255 30.3943 672.255 30.147C672.255 29.8997 672.215 29.6547 672.136 29.412C672.056 29.1647 671.926 28.9477 671.744 28.761C671.562 28.5697 671.321 28.439 671.023 28.369C670.92 28.341 670.81 28.3223 670.694 28.313C670.582 28.3037 670.479 28.299 670.386 28.299H667.831V31.995ZM678.294 37.189C677.795 37.189 677.326 37.0957 676.887 36.909C676.448 36.7177 676.068 36.447 675.746 36.097C675.429 35.747 675.198 35.334 675.053 34.858L676.467 34.466C676.602 34.9 676.838 35.2337 677.174 35.467C677.51 35.6957 677.883 35.8077 678.294 35.803C678.663 35.7983 678.987 35.712 679.267 35.544C679.547 35.376 679.766 35.1497 679.925 34.865C680.084 34.5757 680.163 34.2443 680.163 33.871C680.163 33.311 679.988 32.849 679.638 32.485C679.293 32.121 678.84 31.939 678.28 31.939C678.121 31.939 677.958 31.9623 677.79 32.009C677.627 32.0557 677.473 32.1163 677.328 32.191L676.642 31.036L680.198 27.893L680.352 28.313H675.452V26.92H681.514V28.313L678.56 31.155L678.546 30.679C679.181 30.679 679.731 30.8213 680.198 31.106C680.665 31.386 681.024 31.7687 681.276 32.254C681.533 32.7347 681.661 33.2737 681.661 33.871C681.661 34.515 681.509 35.0867 681.206 35.586C680.907 36.0853 680.504 36.4773 679.995 36.762C679.491 37.0467 678.924 37.189 678.294 37.189Z" fill="#D3D7E0"/>
<path d="M208 158V24" stroke="#D3D7E0" stroke-width="2" stroke-linecap="square" stroke-dasharray="6 6"/>
<path d="M226.268 37.21C225.75 37.21 225.267 37.105 224.819 36.895C224.375 36.6803 223.995 36.3863 223.678 36.013C223.36 35.635 223.134 35.201 222.999 34.711L224.406 34.333C224.485 34.6317 224.62 34.8907 224.812 35.11C225.008 35.3293 225.236 35.4997 225.498 35.621C225.759 35.7377 226.03 35.796 226.31 35.796C226.678 35.796 227.012 35.7073 227.311 35.53C227.614 35.3527 227.852 35.1147 228.025 34.816C228.202 34.5173 228.291 34.1883 228.291 33.829C228.291 33.4603 228.2 33.1267 228.018 32.828C227.84 32.5293 227.6 32.2937 227.297 32.121C226.998 31.9437 226.669 31.855 226.31 31.855C225.899 31.855 225.551 31.9367 225.267 32.1C224.982 32.2633 224.76 32.4523 224.602 32.667L223.328 32.219L223.636 26.92H229.075V28.299H224.385L224.98 27.746L224.735 31.715L224.448 31.344C224.714 31.078 225.031 30.875 225.4 30.735C225.768 30.595 226.135 30.525 226.499 30.525C227.124 30.525 227.682 30.6697 228.172 30.959C228.666 31.2483 229.056 31.6427 229.341 32.142C229.625 32.6367 229.768 33.199 229.768 33.829C229.768 34.4543 229.607 35.0237 229.285 35.537C228.963 36.0457 228.536 36.4517 228.004 36.755C227.472 37.0583 226.893 37.21 226.268 37.21ZM231.581 30.28L231.672 29.629C231.873 29.643 232.029 29.6057 232.141 29.517C232.253 29.4283 232.328 29.3047 232.365 29.146C232.402 28.9873 232.409 28.8077 232.386 28.607H231.581V26.92H233.128V28.747C233.128 29.2977 232.995 29.713 232.729 29.993C232.468 30.273 232.085 30.3687 231.581 30.28ZM239.15 37.21C238.362 37.21 237.664 37.049 237.057 36.727C236.455 36.4003 235.984 35.9453 235.643 35.362C235.303 34.774 235.132 34.0833 235.132 33.29V26.927L236.616 26.92V33.213C236.616 33.6423 236.689 34.0203 236.833 34.347C236.978 34.6737 237.172 34.9467 237.414 35.166C237.657 35.3853 237.928 35.551 238.226 35.663C238.53 35.775 238.838 35.831 239.15 35.831C239.468 35.831 239.776 35.775 240.074 35.663C240.378 35.5463 240.651 35.3783 240.893 35.159C241.136 34.9397 241.327 34.6667 241.467 34.34C241.612 34.0133 241.684 33.6377 241.684 33.213V26.92H243.168V33.29C243.168 34.0787 242.998 34.767 242.657 35.355C242.317 35.943 241.843 36.4003 241.236 36.727C240.634 37.049 239.939 37.21 239.15 37.21ZM247.639 37V28.299H244.286V26.92H252.455V28.299H249.102V37H247.639ZM253.576 37V26.92H257.65C257.748 26.92 257.869 26.9247 258.014 26.934C258.158 26.9387 258.296 26.9527 258.427 26.976C258.987 27.0647 259.453 27.256 259.827 27.55C260.205 27.844 260.487 28.215 260.674 28.663C260.86 29.111 260.954 29.6057 260.954 30.147C260.954 30.9497 260.748 31.6427 260.338 32.226C259.927 32.8047 259.311 33.1663 258.49 33.311L257.895 33.381H255.039V37H253.576ZM259.47 37L257.482 32.898L258.959 32.52L261.143 37H259.47ZM255.039 31.995H257.594C257.687 31.995 257.79 31.9903 257.902 31.981C258.018 31.9717 258.128 31.9553 258.231 31.932C258.529 31.862 258.77 31.7337 258.952 31.547C259.134 31.3557 259.264 31.1363 259.344 30.889C259.423 30.6417 259.463 30.3943 259.463 30.147C259.463 29.8997 259.423 29.6547 259.344 29.412C259.264 29.1647 259.134 28.9477 258.952 28.761C258.77 28.5697 258.529 28.439 258.231 28.369C258.128 28.341 258.018 28.3223 257.902 28.313C257.79 28.3037 257.687 28.299 257.594 28.299H255.039V31.995Z" fill="#D3D7E0"/>
<path d="M276 158V24" stroke="#D3D7E0" stroke-width="2" stroke-linecap="square" stroke-dasharray="6 6"/>
<path d="M289.442 37V26.92H290.905V35.621H295.469V37H289.442Z" fill="#D3D7E0"/>
<path d="M308 158V24" stroke="#D3D7E0" stroke-width="2" stroke-linecap="square" stroke-dasharray="6 6"/>
<path d="M325.858 37H327.321V32.695H330.989V31.225H327.321V28.383H331.829V26.92H325.858V37ZM333.09 37H334.553V33.381H337.227L338.984 37H340.657L338.753 33.094C339.894 32.597 340.468 31.491 340.468 30.147C340.468 28.516 339.628 27.235 337.941 26.976C337.675 26.934 337.36 26.92 337.164 26.92H333.09V37ZM334.553 31.995V28.299H337.108C337.29 28.299 337.535 28.313 337.745 28.369C338.641 28.579 338.977 29.405 338.977 30.147C338.977 30.889 338.641 31.715 337.745 31.932C337.535 31.981 337.29 31.995 337.108 31.995H334.553ZM343.953 37H345.444V26.92H343.953L342.056 28.054V29.685L343.953 28.53V37Z" fill="#D3D7E0"/>
<path d="M364 158V24" stroke="#D3D7E0" stroke-width="2" stroke-linecap="square" stroke-dasharray="6 6"/>
<path d="M379.735 37.21C382.059 37.21 383.62 35.943 384.215 33.955L382.731 33.556C382.332 34.963 381.331 35.817 379.735 35.817C377.593 35.817 376.501 34.27 376.515 31.96C376.522 29.65 377.593 28.103 379.735 28.103C381.331 28.103 382.332 28.957 382.731 30.364L384.215 29.965C383.62 27.977 382.059 26.71 379.735 26.71C376.711 26.71 374.968 28.845 374.968 31.96C374.968 35.075 376.711 37.21 379.735 37.21ZM385.754 37H388.911C389.093 37 389.695 37 390.164 36.937C392.53 36.636 393.79 34.529 393.79 31.96C393.79 29.391 392.53 27.284 390.164 26.983C389.695 26.92 389.093 26.92 388.911 26.92H385.754V37ZM387.252 35.607V28.313H388.911C389.219 28.313 389.723 28.32 390.059 28.383C391.571 28.663 392.236 30.189 392.236 31.96C392.236 33.689 391.599 35.243 390.059 35.537C389.723 35.6 389.233 35.607 388.911 35.607H387.252ZM395.42 37H396.883V33.381H399.557L401.314 37H402.987L401.083 33.094C402.224 32.597 402.798 31.491 402.798 30.147C402.798 28.516 401.958 27.235 400.271 26.976C400.005 26.934 399.69 26.92 399.494 26.92H395.42V37ZM396.883 31.995V28.299H399.438C399.62 28.299 399.865 28.313 400.075 28.369C400.971 28.579 401.307 29.405 401.307 30.147C401.307 30.889 400.971 31.715 400.075 31.932C399.865 31.981 399.62 31.995 399.438 31.995H396.883ZM406.283 37H407.774V26.92H406.283L404.386 28.054V29.685L406.283 28.53V37Z" fill="#D3D7E0"/>
<path d="M420 158V24" stroke="#D3D7E0" stroke-width="2" stroke-linecap="square" stroke-dasharray="6 6"/>
<path d="M436.703 37H438.166V32.695H441.834V31.225H438.166V28.383H442.674V26.92H436.703V37ZM443.935 37H445.398V33.381H448.072L449.829 37H451.502L449.598 33.094C450.739 32.597 451.313 31.491 451.313 30.147C451.313 28.516 450.473 27.235 448.786 26.976C448.52 26.934 448.205 26.92 448.009 26.92H443.935V37ZM445.398 31.995V28.299H447.953C448.135 28.299 448.38 28.313 448.59 28.369C449.486 28.579 449.822 29.405 449.822 30.147C449.822 30.889 449.486 31.715 448.59 31.932C448.38 31.981 448.135 31.995 447.953 31.995H445.398ZM452.761 36.993H459.579V35.6H455.022L457.941 32.996C459.033 32.037 459.579 31.407 459.579 30.028C459.579 28.117 458.144 26.71 456.24 26.71C454.231 26.71 452.796 28.047 452.796 30H454.294C454.28 28.985 455.092 28.103 456.212 28.103C457.297 28.103 458.074 28.929 458.074 30.007C458.074 30.581 457.864 31.127 457.157 31.757L452.768 35.691L452.761 36.993Z" fill="#D3D7E0"/>
<path d="M476 158V24" stroke="#D3D7E0" stroke-width="2" stroke-linecap="square" stroke-dasharray="6 6"/>
<path d="M490.58 37.21C492.904 37.21 494.465 35.943 495.06 33.955L493.576 33.556C493.177 34.963 492.176 35.817 490.58 35.817C488.438 35.817 487.346 34.27 487.36 31.96C487.367 29.65 488.438 28.103 490.58 28.103C492.176 28.103 493.177 28.957 493.576 30.364L495.06 29.965C494.465 27.977 492.904 26.71 490.58 26.71C487.556 26.71 485.813 28.845 485.813 31.96C485.813 35.075 487.556 37.21 490.58 37.21ZM496.599 37H499.756C499.938 37 500.54 37 501.009 36.937C503.375 36.636 504.635 34.529 504.635 31.96C504.635 29.391 503.375 27.284 501.009 26.983C500.54 26.92 499.938 26.92 499.756 26.92H496.599V37ZM498.097 35.607V28.313H499.756C500.064 28.313 500.568 28.32 500.904 28.383C502.416 28.663 503.081 30.189 503.081 31.96C503.081 33.689 502.444 35.243 500.904 35.537C500.568 35.6 500.078 35.607 499.756 35.607H498.097ZM506.265 37H507.728V33.381H510.402L512.159 37H513.832L511.928 33.094C513.069 32.597 513.643 31.491 513.643 30.147C513.643 28.516 512.803 27.235 511.116 26.976C510.85 26.934 510.535 26.92 510.339 26.92H506.265V37ZM507.728 31.995V28.299H510.283C510.465 28.299 510.71 28.313 510.92 28.369C511.816 28.579 512.152 29.405 512.152 30.147C512.152 30.889 511.816 31.715 510.92 31.932C510.71 31.981 510.465 31.995 510.283 31.995H507.728ZM515.091 36.993H521.909V35.6H517.352L520.271 32.996C521.363 32.037 521.909 31.407 521.909 30.028C521.909 28.117 520.474 26.71 518.57 26.71C516.561 26.71 515.126 28.047 515.126 30H516.624C516.61 28.985 517.422 28.103 518.542 28.103C519.627 28.103 520.404 28.929 520.404 30.007C520.404 30.581 520.194 31.127 519.487 31.757L515.098 35.691L515.091 36.993Z" fill="#D3D7E0"/>
<path d="M532 158V24" stroke="#D3D7E0" stroke-width="2" stroke-linecap="square" stroke-dasharray="6 6"/>
<path d="M548.805 37H550.268V32.695H553.936V31.225H550.268V28.383H554.776V26.92H548.805V37ZM556.038 37H557.501V33.381H560.175L561.932 37H563.605L561.701 33.094C562.842 32.597 563.416 31.491 563.416 30.147C563.416 28.516 562.576 27.235 560.889 26.976C560.623 26.934 560.308 26.92 560.112 26.92H556.038V37ZM557.501 31.995V28.299H560.056C560.238 28.299 560.483 28.313 560.693 28.369C561.589 28.579 561.925 29.405 561.925 30.147C561.925 30.889 561.589 31.715 560.693 31.932C560.483 31.981 560.238 31.995 560.056 31.995H557.501ZM567.964 37.189C569.847 37.189 571.331 35.796 571.331 33.871C571.331 32.233 570.323 30.924 568.692 30.707L571.184 28.313V26.92H565.122V28.313H569.392L566.312 31.036L566.998 32.191C567.285 32.037 567.628 31.939 567.95 31.939C569.07 31.939 569.833 32.751 569.833 33.871C569.833 34.984 569.07 35.789 567.964 35.803C567.138 35.81 566.403 35.341 566.137 34.466L564.723 34.858C565.15 36.293 566.466 37.189 567.964 37.189Z" fill="#D3D7E0"/>
<path d="M588 158V24" stroke="#D3D7E0" stroke-width="2" stroke-linecap="square" stroke-dasharray="6 6"/>
<path d="M47.4 194H49.18V188.68H53.39L55.97 194H58.01L55.23 188.29C56.86 187.61 57.71 186.04 57.71 184.14C57.71 181.85 56.48 180.04 54.15 179.68C53.78 179.62 53.37 179.6 53.09 179.6H47.4V194ZM49.18 186.99V181.29H53.03C53.28 181.29 53.63 181.31 53.93 181.38C55.31 181.69 55.89 182.94 55.89 184.14C55.89 185.34 55.31 186.59 53.93 186.9C53.63 186.97 53.28 186.99 53.03 186.99H49.18ZM59.8125 193.99H69.3825V192.29H62.5525L67.1925 188.12C68.6725 186.81 69.3825 185.86 69.3825 183.97C69.3825 181.32 67.3625 179.3 64.6925 179.3C61.9225 179.3 59.8825 181.23 59.8825 183.94H61.7025C61.6825 182.37 62.9425 181 64.6625 181C66.3225 181 67.5625 182.29 67.5625 183.95C67.5625 184.86 67.2725 185.69 66.2125 186.64L59.8225 192.39L59.8125 193.99Z" fill="#110529"/>
<path d="M79 178V194H89V202L103 186L89 170V178H79Z" fill="#110529"/>
<path d="M47.4 370H49.18V364.68H53.39L55.97 370H58.01L55.23 364.29C56.86 363.61 57.71 362.04 57.71 360.14C57.71 357.85 56.48 356.04 54.15 355.68C53.78 355.62 53.37 355.6 53.09 355.6H47.4V370ZM49.18 362.99V357.29H53.03C53.28 357.29 53.63 357.31 53.93 357.38C55.31 357.69 55.89 358.94 55.89 360.14C55.89 361.34 55.31 362.59 53.93 362.9C53.63 362.97 53.28 362.99 53.03 362.99H49.18ZM59.8125 369.99H69.3825V368.29H62.5525L67.1925 364.12C68.6725 362.81 69.3825 361.86 69.3825 359.97C69.3825 357.32 67.3625 355.3 64.6925 355.3C61.9225 355.3 59.8825 357.23 59.8825 359.94H61.7025C61.6825 358.37 62.9425 357 64.6625 357C66.3225 357 67.5625 358.29 67.5625 359.95C67.5625 360.86 67.2725 361.69 66.2125 362.64L59.8225 368.39L59.8125 369.99Z" fill="#110529"/>
<path d="M79 354V370H89V378L103 362L89 346V354H79Z" fill="#110529"/>
<path d="M274.5 186H106" stroke="#110529" stroke-width="2" stroke-linecap="square"/>
<rect width="57" height="20" transform="translate(274.5 176)" fill="white"/>
<path d="M279.417 183.617H280.933C280.933 182.883 281.267 182.2 281.8 181.733C282.217 181.383 282.767 181.167 283.367 181.167C284.017 181.167 284.617 181.4 285.05 181.833C285.533 182.283 285.817 182.933 285.817 183.617C285.817 184.383 285.583 185.083 284.7 185.867L279.35 190.567L279.333 191.983H287.167V190.567H281.667L285.517 187.133C286.733 186.05 287.333 185.167 287.333 183.633C287.333 182.583 286.917 181.567 286.183 180.867C285.483 180.117 284.5 179.75 283.433 179.75C282.467 179.75 281.5 180.017 280.767 180.65C279.933 181.367 279.4 182.45 279.417 183.617ZM290.055 192H291.572L295.889 181.417V180H288.839V181.417H294.372L290.055 192ZM298.285 180L297.919 186.167L299.252 186.933C299.402 186.683 299.585 186.45 299.802 186.267C300.252 185.85 300.852 185.633 301.485 185.633C302.152 185.633 302.769 185.9 303.235 186.317C303.752 186.8 304.069 187.483 304.069 188.217C304.069 188.933 303.785 189.583 303.302 190.067C302.835 190.533 302.185 190.8 301.485 190.8C300.819 190.8 300.202 190.55 299.735 190.117C299.369 189.8 299.102 189.367 298.985 188.883L297.552 189.267C297.752 189.983 298.152 190.65 298.685 191.15C299.419 191.85 300.435 192.25 301.485 192.233C302.569 192.217 303.602 191.817 304.352 191.067C305.085 190.333 305.552 189.3 305.569 188.217C305.569 187.083 305.135 186.033 304.285 185.267C303.569 184.633 302.619 184.267 301.652 184.267C300.835 184.267 300.035 184.567 299.402 185.067L299.619 181.4H304.602V180H298.285ZM315.006 184.183C314.273 183.25 313.123 182.75 311.89 182.75C310.823 182.75 309.806 183.15 309.073 183.85V180H307.573V192H308.906V190.95C309.623 191.817 310.69 192.25 311.89 192.25C313.106 192.25 314.256 191.733 315.006 190.8C315.756 189.85 316.006 188.667 316.006 187.483C316.006 186.3 315.723 185.1 315.006 184.183ZM313.806 189.883C313.323 190.567 312.523 190.883 311.706 190.883C310.873 190.883 310.106 190.583 309.606 189.967C309.106 189.35 308.906 188.417 308.906 187.483C308.906 186.567 309.106 185.65 309.606 185.017C310.09 184.4 310.84 184.1 311.656 184.1C312.54 184.1 313.306 184.417 313.79 185.1C314.256 185.717 314.423 186.583 314.423 187.483C314.423 188.383 314.273 189.267 313.806 189.883ZM325.272 184.183C324.539 183.25 323.389 182.75 322.155 182.75C321.005 182.75 319.905 183.2 319.172 184.017V183H317.839V196H319.339V191.15C320.039 191.883 321.039 192.25 322.155 192.25C323.372 192.25 324.522 191.733 325.272 190.8C326.022 189.85 326.272 188.667 326.272 187.483C326.272 186.3 325.989 185.1 325.272 184.183ZM324.072 189.883C323.589 190.567 322.789 190.883 321.972 190.883C321.139 190.883 320.372 190.583 319.872 189.967C319.372 189.35 319.172 188.417 319.172 187.483C319.172 186.567 319.372 185.65 319.872 185.017C320.355 184.4 321.105 184.1 321.922 184.1C322.805 184.1 323.572 184.417 324.055 185.1C324.522 185.717 324.689 186.583 324.689 187.483C324.689 188.383 324.539 189.267 324.072 189.883Z" fill="#110529"/>
<path d="M500 186H331.5" stroke="#110529" stroke-width="2" stroke-linecap="square"/>
<path d="M510 186L510.707 185.293L511.414 186L510.707 186.707L510 186ZM502.707 194.707L502 195.414L500.586 194L501.293 193.293L502.707 194.707ZM501.293 178.707L500.586 178L502 176.586L502.707 177.293L501.293 178.707ZM500 185L510 185L510 187L500 187L500 185ZM510.707 186.707L502.707 194.707L501.293 193.293L509.293 185.293L510.707 186.707ZM509.293 186.707L501.293 178.707L502.707 177.293L510.707 185.293L509.293 186.707Z" fill="#110529"/>
<path d="M274.5 362H106" stroke="#110529" stroke-width="2" stroke-linecap="square"/>
<rect width="57" height="20" transform="translate(274.5 352)" fill="white"/>
<path d="M279.417 359.617H280.933C280.933 358.883 281.267 358.2 281.8 357.733C282.217 357.383 282.767 357.167 283.367 357.167C284.017 357.167 284.617 357.4 285.05 357.833C285.533 358.283 285.817 358.933 285.817 359.617C285.817 360.383 285.583 361.083 284.7 361.867L279.35 366.567L279.333 367.983H287.167V366.567H281.667L285.517 363.133C286.733 362.05 287.333 361.167 287.333 359.633C287.333 358.583 286.917 357.567 286.183 356.867C285.483 356.117 284.5 355.75 283.433 355.75C282.467 355.75 281.5 356.017 280.767 356.65C279.933 357.367 279.4 358.45 279.417 359.617ZM290.055 368H291.572L295.889 357.417V356H288.839V357.417H294.372L290.055 368ZM298.285 356L297.919 362.167L299.252 362.933C299.402 362.683 299.585 362.45 299.802 362.267C300.252 361.85 300.852 361.633 301.485 361.633C302.152 361.633 302.769 361.9 303.235 362.317C303.752 362.8 304.069 363.483 304.069 364.217C304.069 364.933 303.785 365.583 303.302 366.067C302.835 366.533 302.185 366.8 301.485 366.8C300.819 366.8 300.202 366.55 299.735 366.117C299.369 365.8 299.102 365.367 298.985 364.883L297.552 365.267C297.752 365.983 298.152 366.65 298.685 367.15C299.419 367.85 300.435 368.25 301.485 368.233C302.569 368.217 303.602 367.817 304.352 367.067C305.085 366.333 305.552 365.3 305.569 364.217C305.569 363.083 305.135 362.033 304.285 361.267C303.569 360.633 302.619 360.267 301.652 360.267C300.835 360.267 300.035 360.567 299.402 361.067L299.619 357.4H304.602V356H298.285ZM315.006 360.183C314.273 359.25 313.123 358.75 311.89 358.75C310.823 358.75 309.806 359.15 309.073 359.85V356H307.573V368H308.906V366.95C309.623 367.817 310.69 368.25 311.89 368.25C313.106 368.25 314.256 367.733 315.006 366.8C315.756 365.85 316.006 364.667 316.006 363.483C316.006 362.3 315.723 361.1 315.006 360.183ZM313.806 365.883C313.323 366.567 312.523 366.883 311.706 366.883C310.873 366.883 310.106 366.583 309.606 365.967C309.106 365.35 308.906 364.417 308.906 363.483C308.906 362.567 309.106 361.65 309.606 361.017C310.09 360.4 310.84 360.1 311.656 360.1C312.54 360.1 313.306 360.417 313.79 361.1C314.256 361.717 314.423 362.583 314.423 363.483C314.423 364.383 314.273 365.267 313.806 365.883ZM325.272 360.183C324.539 359.25 323.389 358.75 322.155 358.75C321.005 358.75 319.905 359.2 319.172 360.017V359H317.839V372H319.339V367.15C320.039 367.883 321.039 368.25 322.155 368.25C323.372 368.25 324.522 367.733 325.272 366.8C326.022 365.85 326.272 364.667 326.272 363.483C326.272 362.3 325.989 361.1 325.272 360.183ZM324.072 365.883C323.589 366.567 322.789 366.883 321.972 366.883C321.139 366.883 320.372 366.583 319.872 365.967C319.372 365.35 319.172 364.417 319.172 363.483C319.172 362.567 319.372 361.65 319.872 361.017C320.355 360.4 321.105 360.1 321.922 360.1C322.805 360.1 323.572 360.417 324.055 361.1C324.522 361.717 324.689 362.583 324.689 363.483C324.689 364.383 324.539 365.267 324.072 365.883Z" fill="#110529"/>
<path d="M500 362H331.5" stroke="#110529" stroke-width="2" stroke-linecap="square"/>
<path d="M510 362L510.707 361.293L511.414 362L510.707 362.707L510 362ZM502.707 370.707L502 371.414L500.586 370L501.293 369.293L502.707 370.707ZM501.293 354.707L500.586 354L502 352.586L502.707 353.293L501.293 354.707ZM500 361L510 361L510 363L500 363L500 361ZM510.707 362.707L502.707 370.707L501.293 369.293L509.293 361.293L510.707 362.707ZM509.293 362.707L501.293 354.707L502.707 353.293L510.707 361.293L509.293 362.707Z" fill="#110529"/>
<rect width="44" height="20" transform="translate(93 74)" fill="white"/>
<path d="M100.267 78L98 79.35V81L100.267 79.6333V90H101.767V78H100.267ZM105.649 90H107.166L111.482 79.4167V78H104.432V79.4167H109.966L105.649 90ZM120.913 82.1833C120.179 81.25 119.029 80.75 117.796 80.75C116.729 80.75 115.713 81.15 114.979 81.85V78H113.479V90H114.813V88.95C115.529 89.8167 116.596 90.25 117.796 90.25C119.013 90.25 120.163 89.7333 120.913 88.8C121.663 87.85 121.913 86.6667 121.913 85.4833C121.913 84.3 121.629 83.1 120.913 82.1833ZM119.713 87.8833C119.229 88.5667 118.429 88.8833 117.613 88.8833C116.779 88.8833 116.013 88.5833 115.513 87.9667C115.013 87.35 114.813 86.4167 114.813 85.4833C114.813 84.5667 115.013 83.65 115.513 83.0167C115.996 82.4 116.746 82.1 117.563 82.1C118.446 82.1 119.213 82.4167 119.696 83.1C120.163 83.7167 120.329 84.5833 120.329 85.4833C120.329 86.3833 120.179 87.2667 119.713 87.8833ZM131.178 82.1833C130.445 81.25 129.295 80.75 128.061 80.75C126.911 80.75 125.811 81.2 125.078 82.0167V81H123.745V94H125.245V89.15C125.945 89.8833 126.945 90.25 128.061 90.25C129.278 90.25 130.428 89.7333 131.178 88.8C131.928 87.85 132.178 86.6667 132.178 85.4833C132.178 84.3 131.895 83.1 131.178 82.1833ZM129.978 87.8833C129.495 88.5667 128.695 88.8833 127.878 88.8833C127.045 88.8833 126.278 88.5833 125.778 87.9667C125.278 87.35 125.078 86.4167 125.078 85.4833C125.078 84.5667 125.278 83.65 125.778 83.0167C126.261 82.4 127.011 82.1 127.828 82.1C128.711 82.1 129.478 82.4167 129.961 83.1C130.428 83.7167 130.595 84.5833 130.595 85.4833C130.595 86.3833 130.445 87.2667 129.978 87.8833Z" fill="#110529"/>
<rect width="62" height="20" transform="translate(151 74)" fill="white"/>
<path d="M156.883 90H158.4L162.717 79.4167V78H155.667V79.4167H161.2L156.883 90ZM164.375 84.6833V85.9H169.375V84.6833H164.375ZM173.642 78L171.375 79.35V81L173.642 79.6333V90H175.142V78H173.642ZM182.357 90.25C181.207 90.25 180.057 89.7833 179.307 88.9167C178.574 88.0667 178.307 87.1833 178.307 86.0333V81.95C178.307 80.7833 178.574 79.9 179.341 79.0167C180.074 78.2167 181.174 77.7333 182.357 77.75C183.507 77.7333 184.624 78.1667 185.391 79.0167C186.141 79.85 186.407 80.7667 186.407 81.95V86.0333C186.407 87.1667 186.157 88.0833 185.407 88.9333C184.657 89.7667 183.557 90.25 182.357 90.25ZM182.357 79.1667C181.491 79.15 180.674 79.6333 180.224 80.3333C179.924 80.7833 179.824 81.3167 179.824 81.95V86.0333C179.824 86.6167 179.907 87.1833 180.241 87.6667C180.707 88.3667 181.491 88.8333 182.357 88.8167C183.241 88.8333 184.041 88.3667 184.491 87.6667C184.824 87.1833 184.907 86.6833 184.907 86.0333V81.95C184.907 81.3333 184.824 80.8667 184.507 80.35C184.057 79.6333 183.241 79.15 182.357 79.1667ZM196.178 82.1833C195.445 81.25 194.295 80.75 193.061 80.75C191.995 80.75 190.978 81.15 190.245 81.85V78H188.745V90H190.078V88.95C190.795 89.8167 191.861 90.25 193.061 90.25C194.278 90.25 195.428 89.7333 196.178 88.8C196.928 87.85 197.178 86.6667 197.178 85.4833C197.178 84.3 196.895 83.1 196.178 82.1833ZM194.978 87.8833C194.495 88.5667 193.695 88.8833 192.878 88.8833C192.045 88.8833 191.278 88.5833 190.778 87.9667C190.278 87.35 190.078 86.4167 190.078 85.4833C190.078 84.5667 190.278 83.65 190.778 83.0167C191.261 82.4 192.011 82.1 192.828 82.1C193.711 82.1 194.478 82.4167 194.961 83.1C195.428 83.7167 195.595 84.5833 195.595 85.4833C195.595 86.3833 195.445 87.2667 194.978 87.8833ZM206.444 82.1833C205.71 81.25 204.56 80.75 203.327 80.75C202.177 80.75 201.077 81.2 200.344 82.0167V81H199.01V94H200.51V89.15C201.21 89.8833 202.21 90.25 203.327 90.25C204.544 90.25 205.694 89.7333 206.444 88.8C207.194 87.85 207.444 86.6667 207.444 85.4833C207.444 84.3 207.16 83.1 206.444 82.1833ZM205.244 87.8833C204.76 88.5667 203.96 88.8833 203.144 88.8833C202.31 88.8833 201.544 88.5833 201.044 87.9667C200.544 87.35 200.344 86.4167 200.344 85.4833C200.344 84.5667 200.544 83.65 201.044 83.0167C201.527 82.4 202.277 82.1 203.094 82.1C203.977 82.1 204.744 82.4167 205.227 83.1C205.694 83.7167 205.86 84.5833 205.86 85.4833C205.86 86.3833 205.71 87.2667 205.244 87.8833Z" fill="#110529"/>
<path d="M389 78L388.293 77.2929L387.586 78L388.293 78.7071L389 78ZM396.293 86.7071L397 87.4142L398.414 86L397.707 85.2929L396.293 86.7071ZM397.707 70.7071L398.414 70L397 68.5858L396.293 69.2929L397.707 70.7071ZM409 77L389 77L389 79L409 79L409 77ZM388.293 78.7071L396.293 86.7071L397.707 85.2929L389.707 77.2929L388.293 78.7071ZM389.707 78.7071L397.707 70.7071L396.293 69.2929L388.293 77.2929L389.707 78.7071Z" fill="#110529"/>
<path d="M404 78L613 78" stroke="#110529" stroke-width="2" stroke-linecap="square"/>
<rect width="58" height="20" transform="translate(613 68)" fill="white"/>
<path d="M624.417 77.6167C623.783 76.9667 622.933 76.6 621.967 76.5333L625.217 73.4667V72H618.15V73.4167H623.2L619.483 76.9333L620.2 78.1167C620.567 77.9167 621.033 77.8 621.433 77.8C622.05 77.8 622.633 77.9833 623.083 78.3833C623.617 78.8667 623.85 79.5833 623.85 80.3C623.85 81.05 623.617 81.7833 623.017 82.2667C622.6 82.6167 622.033 82.8 621.45 82.8167C620.883 82.8167 620.317 82.6333 619.883 82.2833C619.5 82 619.25 81.5833 619.1 81.1167L617.667 81.5333C617.883 82.2333 618.317 82.9 618.9 83.3667C619.633 83.95 620.55 84.25 621.467 84.2333C622.367 84.2167 623.3 83.95 624.017 83.35C624.9 82.6333 625.35 81.5 625.383 80.3C625.4 79.3167 625.083 78.3167 624.417 77.6167ZM627.307 75.6167H628.824C628.824 74.8833 629.157 74.2 629.691 73.7333C630.107 73.3833 630.657 73.1667 631.257 73.1667C631.907 73.1667 632.507 73.4 632.941 73.8333C633.424 74.2833 633.707 74.9333 633.707 75.6167C633.707 76.3833 633.474 77.0833 632.591 77.8667L627.241 82.5667L627.224 83.9833H635.057V82.5667H629.557L633.407 79.1333C634.624 78.05 635.224 77.1667 635.224 75.6333C635.224 74.5833 634.807 73.5667 634.074 72.8667C633.374 72.1167 632.391 71.75 631.324 71.75C630.357 71.75 629.391 72.0167 628.657 72.65C627.824 73.3667 627.291 74.45 627.307 75.6167ZM637.629 72L637.263 78.1667L638.596 78.9333C638.746 78.6833 638.929 78.45 639.146 78.2667C639.596 77.85 640.196 77.6333 640.829 77.6333C641.496 77.6333 642.113 77.9 642.579 78.3167C643.096 78.8 643.413 79.4833 643.413 80.2167C643.413 80.9333 643.129 81.5833 642.646 82.0667C642.179 82.5333 641.529 82.8 640.829 82.8C640.163 82.8 639.546 82.55 639.079 82.1167C638.713 81.8 638.446 81.3667 638.329 80.8833L636.896 81.2667C637.096 81.9833 637.496 82.65 638.029 83.15C638.763 83.85 639.779 84.25 640.829 84.2333C641.913 84.2167 642.946 83.8167 643.696 83.0667C644.429 82.3333 644.896 81.3 644.913 80.2167C644.913 79.0833 644.479 78.0333 643.629 77.2667C642.913 76.6333 641.963 76.2667 640.996 76.2667C640.179 76.2667 639.379 76.5667 638.746 77.0667L638.963 73.4H643.946V72H637.629ZM654.35 76.1833C653.617 75.25 652.467 74.75 651.233 74.75C650.167 74.75 649.15 75.15 648.417 75.85V72H646.917V84H648.25V82.95C648.967 83.8167 650.033 84.25 651.233 84.25C652.45 84.25 653.6 83.7333 654.35 82.8C655.1 81.85 655.35 80.6667 655.35 79.4833C655.35 78.3 655.067 77.1 654.35 76.1833ZM653.15 81.8833C652.667 82.5667 651.867 82.8833 651.05 82.8833C650.217 82.8833 649.45 82.5833 648.95 81.9667C648.45 81.35 648.25 80.4167 648.25 79.4833C648.25 78.5667 648.45 77.65 648.95 77.0167C649.433 76.4 650.183 76.1 651 76.1C651.883 76.1 652.65 76.4167 653.133 77.1C653.6 77.7167 653.767 78.5833 653.767 79.4833C653.767 80.3833 653.617 81.2667 653.15 81.8833ZM664.616 76.1833C663.882 75.25 662.732 74.75 661.499 74.75C660.349 74.75 659.249 75.2 658.516 76.0167V75H657.182V88H658.682V83.15C659.382 83.8833 660.382 84.25 661.499 84.25C662.716 84.25 663.866 83.7333 664.616 82.8C665.366 81.85 665.616 80.6667 665.616 79.4833C665.616 78.3 665.332 77.1 664.616 76.1833ZM663.416 81.8833C662.932 82.5667 662.132 82.8833 661.316 82.8833C660.482 82.8833 659.716 82.5833 659.216 81.9667C658.716 81.35 658.516 80.4167 658.516 79.4833C658.516 78.5667 658.716 77.65 659.216 77.0167C659.699 76.4 660.449 76.1 661.266 76.1C662.149 76.1 662.916 76.4167 663.399 77.1C663.866 77.7167 664.032 78.5833 664.032 79.4833C664.032 80.3833 663.882 81.2667 663.416 81.8833Z" fill="#110529"/>
<path d="M671 78L880 78" stroke="#110529" stroke-width="2" stroke-linecap="square"/>
<path d="M389 254L388.293 253.293L387.586 254L388.293 254.707L389 254ZM396.293 262.707L397 263.414L398.414 262L397.707 261.293L396.293 262.707ZM397.707 246.707L398.414 246L397 244.586L396.293 245.293L397.707 246.707ZM409 253L389 253L389 255L409 255L409 253ZM388.293 254.707L396.293 262.707L397.707 261.293L389.707 253.293L388.293 254.707ZM389.707 254.707L397.707 246.707L396.293 245.293L388.293 253.293L389.707 254.707Z" fill="#110529"/>
<path d="M404 254L569 254" stroke="#110529" stroke-width="2" stroke-linecap="square"/>
<rect width="58" height="20" transform="translate(569 244)" fill="white"/>
<path d="M580.417 253.617C579.783 252.967 578.933 252.6 577.967 252.533L581.217 249.467V248H574.15V249.417H579.2L575.483 252.933L576.2 254.117C576.567 253.917 577.033 253.8 577.433 253.8C578.05 253.8 578.633 253.983 579.083 254.383C579.617 254.867 579.85 255.583 579.85 256.3C579.85 257.05 579.617 257.783 579.017 258.267C578.6 258.617 578.033 258.8 577.45 258.817C576.883 258.817 576.317 258.633 575.883 258.283C575.5 258 575.25 257.583 575.1 257.117L573.667 257.533C573.883 258.233 574.317 258.9 574.9 259.367C575.633 259.95 576.55 260.25 577.467 260.233C578.367 260.217 579.3 259.95 580.017 259.35C580.9 258.633 581.35 257.5 581.383 256.3C581.4 255.317 581.083 254.317 580.417 253.617ZM583.307 251.617H584.824C584.824 250.883 585.157 250.2 585.691 249.733C586.107 249.383 586.657 249.167 587.257 249.167C587.907 249.167 588.507 249.4 588.941 249.833C589.424 250.283 589.707 250.933 589.707 251.617C589.707 252.383 589.474 253.083 588.591 253.867L583.241 258.567L583.224 259.983H591.057V258.567H585.557L589.407 255.133C590.624 254.05 591.224 253.167 591.224 251.633C591.224 250.583 590.807 249.567 590.074 248.867C589.374 248.117 588.391 247.75 587.324 247.75C586.357 247.75 585.391 248.017 584.657 248.65C583.824 249.367 583.291 250.45 583.307 251.617ZM593.629 248L593.263 254.167L594.596 254.933C594.746 254.683 594.929 254.45 595.146 254.267C595.596 253.85 596.196 253.633 596.829 253.633C597.496 253.633 598.113 253.9 598.579 254.317C599.096 254.8 599.413 255.483 599.413 256.217C599.413 256.933 599.129 257.583 598.646 258.067C598.179 258.533 597.529 258.8 596.829 258.8C596.163 258.8 595.546 258.55 595.079 258.117C594.713 257.8 594.446 257.367 594.329 256.883L592.896 257.267C593.096 257.983 593.496 258.65 594.029 259.15C594.763 259.85 595.779 260.25 596.829 260.233C597.913 260.217 598.946 259.817 599.696 259.067C600.429 258.333 600.896 257.3 600.913 256.217C600.913 255.083 600.479 254.033 599.629 253.267C598.913 252.633 597.963 252.267 596.996 252.267C596.179 252.267 595.379 252.567 594.746 253.067L594.963 249.4H599.946V248H593.629ZM610.35 252.183C609.617 251.25 608.467 250.75 607.233 250.75C606.167 250.75 605.15 251.15 604.417 251.85V248H602.917V260H604.25V258.95C604.967 259.817 606.033 260.25 607.233 260.25C608.45 260.25 609.6 259.733 610.35 258.8C611.1 257.85 611.35 256.667 611.35 255.483C611.35 254.3 611.067 253.1 610.35 252.183ZM609.15 257.883C608.667 258.567 607.867 258.883 607.05 258.883C606.217 258.883 605.45 258.583 604.95 257.967C604.45 257.35 604.25 256.417 604.25 255.483C604.25 254.567 604.45 253.65 604.95 253.017C605.433 252.4 606.183 252.1 607 252.1C607.883 252.1 608.65 252.417 609.133 253.1C609.6 253.717 609.767 254.583 609.767 255.483C609.767 256.383 609.617 257.267 609.15 257.883ZM620.616 252.183C619.882 251.25 618.732 250.75 617.499 250.75C616.349 250.75 615.249 251.2 614.516 252.017V251H613.182V264H614.682V259.15C615.382 259.883 616.382 260.25 617.499 260.25C618.716 260.25 619.866 259.733 620.616 258.8C621.366 257.85 621.616 256.667 621.616 255.483C621.616 254.3 621.332 253.1 620.616 252.183ZM619.416 257.883C618.932 258.567 618.132 258.883 617.316 258.883C616.482 258.883 615.716 258.583 615.216 257.967C614.716 257.35 614.516 256.417 614.516 255.483C614.516 254.567 614.716 253.65 615.216 253.017C615.699 252.4 616.449 252.1 617.266 252.1C618.149 252.1 618.916 252.417 619.399 253.1C619.866 253.717 620.032 254.583 620.032 255.483C620.032 256.383 619.882 257.267 619.416 257.883Z" fill="#110529"/>
<path d="M627 254L792 254" stroke="#110529" stroke-width="2" stroke-linecap="square"/>
<path d="M907 70V86H897V94L883 78L897 62V70H907Z" fill="#110529"/>
<path d="M916.4 86H918.18V80.68H922.39L924.97 86H927.01L924.23 80.29C925.86 79.61 926.71 78.04 926.71 76.14C926.71 73.85 925.48 72.04 923.15 71.68C922.78 71.62 922.37 71.6 922.09 71.6H916.4V86ZM918.18 78.99V73.29H922.03C922.28 73.29 922.63 73.31 922.93 73.38C924.31 73.69 924.89 74.94 924.89 76.14C924.89 77.34 924.31 78.59 922.93 78.9C922.63 78.97 922.28 78.99 922.03 78.99H918.18ZM931.723 86H933.533V71.6H931.723L929.013 73.22V75.21L931.723 73.57V86Z" fill="#110529"/>
<path d="M819 246V262H809V270L795 254L809 238V246H819Z" fill="#110529"/>
<path d="M828.4 262H830.18V256.68H834.39L836.97 262H839.01L836.23 256.29C837.86 255.61 838.71 254.04 838.71 252.14C838.71 249.85 837.48 248.04 835.15 247.68C834.78 247.62 834.37 247.6 834.09 247.6H828.4V262ZM830.18 254.99V249.29H834.03C834.28 249.29 834.63 249.31 834.93 249.38C836.31 249.69 836.89 250.94 836.89 252.14C836.89 253.34 836.31 254.59 834.93 254.9C834.63 254.97 834.28 254.99 834.03 254.99H830.18ZM843.723 262H845.533V247.6H843.723L841.013 249.22V251.21L843.723 249.57V262Z" fill="#110529"/>
<g filter="url(#filter0_i_5544_36221)">
<rect x="80" y="106" width="72" height="52" rx="1" fill="#D6E0FF"/>
<path d="M105.053 140.3C108.393 140.3 110.733 138.1 110.733 134.75V125.6H108.933V134.6C108.933 137.31 106.893 138.62 105.053 138.62C103.233 138.62 101.173 137.33 101.173 134.6V125.6L99.3727 125.61V134.75C99.3727 138.11 101.713 140.3 105.053 140.3ZM113.533 140H115.223V129.51L120.113 140H121.063L125.953 129.51V139.99H127.643V125.6H126.003L120.593 137.07L115.153 125.6H113.533V140ZM130.647 140H132.427V125.6H130.647V140Z" fill="#110529"/>
<rect x="80" y="106" width="72" height="52" rx="1" stroke="#110529" stroke-width="2" stroke-linecap="round"/>
</g>
<g filter="url(#filter1_i_5544_36221)">
<rect x="152" y="106" width="56" height="52" rx="1" fill="#D3D7E0"/>
<path d="M172.815 140H174.595V127.29H179.505V125.6H167.905V127.29H172.815V140ZM186.207 140.3C189.197 140.3 191.597 138.77 191.597 135.98C191.597 133.21 189.227 132.5 187.977 132.15L185.237 131.36C184.167 131.06 182.837 130.6 182.837 129.27C182.837 127.94 184.207 126.98 185.977 127C187.807 127.02 189.317 128.1 189.617 129.85L191.507 129.52C190.977 126.9 188.897 125.33 185.997 125.31C183.127 125.3 180.957 126.8 180.957 129.35C180.957 131.48 182.477 132.41 184.077 132.88L187.747 133.97C188.777 134.28 189.757 134.82 189.757 136.08C189.757 137.65 188.227 138.61 186.297 138.61C184.287 138.61 182.697 137.54 182.237 135.72L180.397 136.01C180.877 138.66 183.147 140.3 186.207 140.3Z" fill="#110529"/>
<rect x="152" y="106" width="56" height="52" rx="1" stroke="#110529" stroke-width="2" stroke-linecap="round"/>
</g>
<g filter="url(#filter2_i_5544_36221)">
<rect x="208" y="106" width="396" height="52" rx="1" fill="#99E099"/>
<path d="M404.758 140H407.238L412.058 125.6H410.208L405.978 138.11L401.788 125.6H399.938L404.758 140Z" fill="#110529"/>
<rect x="208" y="106" width="396" height="52" rx="1" stroke="#110529" stroke-width="2" stroke-linecap="round"/>
</g>
<g filter="url(#filter3_i_5544_36221)">
<rect x="604" y="106" width="30" height="52" rx="1" fill="#CBEB67"/>
</g>
<rect x="604" y="106" width="30" height="52" rx="1" stroke="#110529" stroke-width="2" stroke-linecap="round"/>
<g filter="url(#filter4_i_5544_36221)">
<rect x="670" y="106" width="30" height="52" rx="1" fill="#FAAAFA"/>
</g>
<rect x="670" y="106" width="30" height="52" rx="1" stroke="#110529" stroke-width="2" stroke-linecap="round"/>
<g filter="url(#filter5_i_5544_36221)">
<rect x="634" y="106" width="36" height="52" rx="1" fill="#FFCB8F"/>
</g>
<rect x="634" y="106" width="36" height="52" rx="1" stroke="#110529" stroke-width="2" stroke-linecap="round"/>
<path d="M613.447 140H615.247V128.74L622.757 140H624.557V125.6H622.757V136.85L615.247 125.6H613.447V140Z" fill="#110529"/>
<path d="M679.447 140H681.247V128.74L688.757 140H690.557V125.6H688.757V136.85L681.247 125.6H679.447V140Z" fill="#110529"/>
<path d="M646.593 140H651.033C651.303 140 652.183 140 652.853 139.91C656.183 139.47 657.913 136.48 657.913 132.8C657.913 129.13 656.183 126.13 652.853 125.69C652.173 125.6 651.313 125.6 651.033 125.6H646.593V140ZM648.423 138.3V127.3H651.033C651.513 127.3 652.233 127.32 652.703 127.41C655.033 127.83 656.023 130.08 656.023 132.8C656.023 135.47 655.063 137.76 652.703 138.19C652.233 138.28 651.533 138.3 651.033 138.3H648.423Z" fill="#110529"/>
<g filter="url(#filter6_i_5544_36221)">
<rect x="700" y="106" width="144" height="52" rx="1" fill="#C1ADFF"/>
<path d="M771.244 140.29C772.694 140.29 773.954 139.7 774.684 138.43C775.214 137.51 775.154 136.72 775.154 135.48V125.6H773.354V135.48C773.354 136.37 773.354 136.99 773.094 137.51C772.704 138.29 771.884 138.6 771.204 138.6C770.134 138.6 769.224 137.83 769.014 136.85L767.244 137.27C767.754 139.11 769.224 140.29 771.244 140.29Z" fill="#110529"/>
<rect x="700" y="106" width="144" height="52" rx="1" stroke="#110529" stroke-width="2" stroke-linecap="round"/>
</g>
<g filter="url(#filter7_i_5544_36221)">
<path d="M916 106H845.6C845.04 106 844.76 106 844.546 106.109C844.358 106.205 844.205 106.358 844.109 106.546C844 106.76 844 107.04 844 107.6V156.4C844 156.96 844 157.24 844.109 157.454C844.205 157.642 844.358 157.795 844.546 157.891C844.76 158 845.04 158 845.6 158H916L911 151.5L916 145L911 138L916 132L911 125.5L916 119L911 112.5L916 106Z" fill="#FAFAAA"/>
</g>
<path d="M916 106H845.6C845.04 106 844.76 106 844.546 106.109C844.358 106.205 844.205 106.358 844.109 106.546C844 106.76 844 107.04 844 107.6V156.4C844 156.96 844 157.24 844.109 157.454C844.205 157.642 844.358 157.795 844.546 157.891C844.76 158 845.04 158 845.6 158H916L911 151.5L916 145L911 138L916 132L911 125.5L916 119L911 112.5L916 106Z" stroke="#110529" stroke-width="2" stroke-linecap="round"/>
<path d="M880.593 140.3C883.923 140.3 886.113 138.47 886.933 135.61L885.123 135.13C884.533 137.27 883.023 138.6 880.593 138.6C877.373 138.6 875.733 136.25 875.753 132.8C875.773 129.35 877.373 127 880.593 127C883.023 127 884.533 128.33 885.123 130.47L886.933 129.99C886.113 127.13 883.923 125.3 880.593 125.3C876.283 125.3 873.873 128.36 873.873 132.8C873.873 137.24 876.283 140.3 880.593 140.3Z" fill="#110529"/>
<g filter="url(#filter8_i_5544_36221)">
<rect x="80" y="282" width="72" height="52" rx="1" fill="#D6E0FF"/>
<path d="M105.053 316.3C108.393 316.3 110.733 314.1 110.733 310.75V301.6H108.933V310.6C108.933 313.31 106.893 314.62 105.053 314.62C103.233 314.62 101.173 313.33 101.173 310.6V301.6L99.3727 301.61V310.75C99.3727 314.11 101.713 316.3 105.053 316.3ZM113.533 316H115.223V305.51L120.113 316H121.063L125.953 305.51V315.99H127.643V301.6H126.003L120.593 313.07L115.153 301.6H113.533V316ZM130.647 316H132.427V301.6H130.647V316Z" fill="#110529"/>
<rect x="80" y="282" width="72" height="52" rx="1" stroke="#110529" stroke-width="2" stroke-linecap="round"/>
</g>
<g filter="url(#filter9_i_5544_36221)">
<rect x="152" y="282" width="56" height="52" rx="1" fill="#D3D7E0"/>
<path d="M172.815 316H174.595V303.29H179.505V301.6H167.905V303.29H172.815V316ZM186.207 316.3C189.197 316.3 191.597 314.77 191.597 311.98C191.597 309.21 189.227 308.5 187.977 308.15L185.237 307.36C184.167 307.06 182.837 306.6 182.837 305.27C182.837 303.94 184.207 302.98 185.977 303C187.807 303.02 189.317 304.1 189.617 305.85L191.507 305.52C190.977 302.9 188.897 301.33 185.997 301.31C183.127 301.3 180.957 302.8 180.957 305.35C180.957 307.48 182.477 308.41 184.077 308.88L187.747 309.97C188.777 310.28 189.757 310.82 189.757 312.08C189.757 313.65 188.227 314.61 186.297 314.61C184.287 314.61 182.697 313.54 182.237 311.72L180.397 312.01C180.877 314.66 183.147 316.3 186.207 316.3Z" fill="#110529"/>
<rect x="152" y="282" width="56" height="52" rx="1" stroke="#110529" stroke-width="2" stroke-linecap="round"/>
</g>
<g filter="url(#filter10_i_5544_36221)">
<rect x="208" y="282" width="396" height="52" rx="1" fill="#99E099"/>
<path d="M404.758 316H407.238L412.058 301.6H410.208L405.978 314.11L401.788 301.6H399.938L404.758 316Z" fill="#110529"/>
<rect x="208" y="282" width="396" height="52" rx="1" stroke="#110529" stroke-width="2" stroke-linecap="round"/>
</g>
<g filter="url(#filter11_i_5544_36221)">
<rect x="604" y="282" width="30" height="52" rx="1" fill="#CBEB67"/>
</g>
<rect x="604" y="282" width="30" height="52" rx="1" stroke="#110529" stroke-width="2" stroke-linecap="round"/>
<path d="M613.447 316H615.247V304.74L622.757 316H624.557V301.6H622.757V312.85L615.247 301.6H613.447V316Z" fill="#110529"/>
<g filter="url(#filter12_i_5544_36221)">
<path d="M778 283.6C778 283.04 778 282.76 777.891 282.546C777.795 282.358 777.642 282.205 777.454 282.109C777.24 282 776.96 282 776.4 282H635.6C635.04 282 634.76 282 634.546 282.109C634.358 282.205 634.205 282.358 634.109 282.546C634 282.76 634 283.04 634 283.6V308V332.4C634 332.96 634 333.24 634.109 333.454C634.205 333.642 634.358 333.795 634.546 333.891C634.76 334 635.04 334 635.6 334H776.4C776.96 334 777.24 334 777.454 333.891C777.642 333.795 777.795 333.642 777.891 333.454C778 333.24 778 332.96 778 332.4V327.5V321V314V308V301.5V295V288.5V283.6Z" fill="#C1ADFF"/>
</g>
<path d="M778 283.6C778 283.04 778 282.76 777.891 282.546C777.795 282.358 777.642 282.205 777.454 282.109C777.24 282 776.96 282 776.4 282H635.6C635.04 282 634.76 282 634.546 282.109C634.358 282.205 634.205 282.358 634.109 282.546C634 282.76 634 283.04 634 283.6V308V332.4C634 332.96 634 333.24 634.109 333.454C634.205 333.642 634.358 333.795 634.546 333.891C634.76 334 635.04 334 635.6 334H776.4C776.96 334 777.24 334 777.454 333.891C777.642 333.795 777.795 333.642 777.891 333.454C778 333.24 778 332.96 778 332.4V327.5V321V314V308V301.5V295V288.5V283.6Z" stroke="#110529" stroke-width="2" stroke-linecap="round"/>
<g filter="url(#filter13_i_5544_36221)">
<path d="M850 282H779.6C779.04 282 778.76 282 778.546 282.109C778.358 282.205 778.205 282.358 778.109 282.546C778 282.76 778 283.04 778 283.6V332.4C778 332.96 778 333.24 778.109 333.454C778.205 333.642 778.358 333.795 778.546 333.891C778.76 334 779.04 334 779.6 334H850L845 327.5L850 321L845 314L850 308L845 301.5L850 295L845 288.5L850 282Z" fill="#FAFAAA"/>
</g>
<path d="M850 282H779.6C779.04 282 778.76 282 778.546 282.109C778.358 282.205 778.205 282.358 778.109 282.546C778 282.76 778 283.04 778 283.6V332.4C778 332.96 778 333.24 778.109 333.454C778.205 333.642 778.358 333.795 778.546 333.891C778.76 334 779.04 334 779.6 334H850L845 327.5L850 321L845 314L850 308L845 301.5L850 295L845 288.5L850 282Z" stroke="#110529" stroke-width="2" stroke-linecap="round"/>
<path d="M814.593 316.3C817.923 316.3 820.113 314.47 820.933 311.61L819.123 311.13C818.533 313.27 817.023 314.6 814.593 314.6C811.373 314.6 809.733 312.25 809.753 308.8C809.773 305.35 811.373 303 814.593 303C817.023 303 818.533 304.33 819.123 306.47L820.933 305.99C820.113 303.13 817.923 301.3 814.593 301.3C810.283 301.3 807.873 304.36 807.873 308.8C807.873 313.24 810.283 316.3 814.593 316.3Z" fill="#110529"/>
<path d="M709.272 301V311.292C709.272 312.604 709.272 313.312 708.71 314.312C707.939 315.604 706.751 316.312 705.126 316.312C704.356 316.312 703.606 316.146 702.96 315.729C702.001 315.187 701.314 314.208 701.022 313.146L702.876 312.708C702.981 313.292 703.356 313.812 703.856 314.146C704.21 314.396 704.668 314.542 705.106 314.542C705.897 314.542 706.731 314.125 707.085 313.354C707.356 312.792 707.356 312.375 707.356 311.292V301H709.272Z" fill="#110529"/>
<path d="M21.6 140H23.38V125.6H21.6V140ZM32.2105 140.3C36.4205 140.3 38.6605 137.39 38.6605 133.44C38.6605 133.32 38.6505 132.87 38.6205 132.59H33.6805V134.06H36.7405C36.5205 136.93 35.0805 138.62 32.3005 138.6C29.0805 138.58 27.4505 136.25 27.4705 132.8C27.4905 129.35 29.0805 126.99 32.3005 127.01C34.3505 127.02 35.7405 128.14 36.3505 129.88L38.1505 129.51C37.4005 126.92 35.4305 125.31 32.2105 125.31C28.1805 125.31 25.5805 128.21 25.5805 132.8C25.5805 137.44 28.2405 140.3 32.2105 140.3ZM40.6578 140H42.4378V133.64H50.0178V140H51.7978V125.6H50.0178V131.95H42.4378V125.6H40.6578V140Z" fill="#110529"/>
<path d="M21.6 306H23.38V291.6H21.6V306ZM32.2105 306.3C36.4205 306.3 38.6605 303.39 38.6605 299.44C38.6605 299.32 38.6505 298.87 38.6205 298.59H33.6805V300.06H36.7405C36.5205 302.93 35.0805 304.62 32.3005 304.6C29.0805 304.58 27.4505 302.25 27.4705 298.8C27.4905 295.35 29.0805 292.99 32.3005 293.01C34.3505 293.02 35.7405 294.14 36.3505 295.88L38.1505 295.51C37.4005 292.92 35.4305 291.31 32.2105 291.31C28.1805 291.31 25.5805 294.21 25.5805 298.8C25.5805 303.44 28.2405 306.3 32.2105 306.3ZM40.6578 306H42.4378V298.96L49.1878 306H51.4878L44.4378 298.59L50.9778 291.6H48.7378L42.4378 298.36V291.6H40.6578V306ZM60.1377 291.6L56.2977 306H58.1077L61.9477 291.6H60.1377ZM21.6 326H23.38V311.6H21.6V326ZM32.2105 326.3C36.4205 326.3 38.6605 323.39 38.6605 319.44C38.6605 319.32 38.6505 318.87 38.6205 318.59H33.6805V320.06H36.7405C36.5205 322.93 35.0805 324.62 32.3005 324.6C29.0805 324.58 27.4505 322.25 27.4705 318.8C27.4905 315.35 29.0805 312.99 32.3005 313.01C34.3505 313.02 35.7405 314.14 36.3505 315.88L38.1505 315.51C37.4005 312.92 35.4305 311.31 32.2105 311.31C28.1805 311.31 25.5805 314.21 25.5805 318.8C25.5805 323.44 28.2405 326.3 32.2105 326.3ZM40.8578 326H49.3178V324.31H42.6378V311.6H40.8578V326Z" fill="#110529"/>
<defs>
<filter id="filter0_i_5544_36221" x="79" y="105" width="74" height="54" filterUnits="userSpaceOnUse" color-interpolation-filters="sRGB">
<feFlood flood-opacity="0" result="BackgroundImageFix"/>
<feBlend mode="normal" in="SourceGraphic" in2="BackgroundImageFix" result="shape"/>
<feColorMatrix in="SourceAlpha" type="matrix" values="0 0 0 0 0 0 0 0 0 0 0 0 0 0 0 0 0 0 127 0" result="hardAlpha"/>
<feOffset dx="-8" dy="-4"/>
<feComposite in2="hardAlpha" operator="arithmetic" k2="-1" k3="1"/>
<feColorMatrix type="matrix" values="0 0 0 0 0.0666667 0 0 0 0 0.0196078 0 0 0 0 0.160784 0 0 0 0.16 0"/>
<feBlend mode="normal" in2="shape" result="effect1_innerShadow_5544_36221"/>
</filter>
<filter id="filter1_i_5544_36221" x="151" y="105" width="58" height="54" filterUnits="userSpaceOnUse" color-interpolation-filters="sRGB">
<feFlood flood-opacity="0" result="BackgroundImageFix"/>
<feBlend mode="normal" in="SourceGraphic" in2="BackgroundImageFix" result="shape"/>
<feColorMatrix in="SourceAlpha" type="matrix" values="0 0 0 0 0 0 0 0 0 0 0 0 0 0 0 0 0 0 127 0" result="hardAlpha"/>
<feOffset dx="-8" dy="-4"/>
<feComposite in2="hardAlpha" operator="arithmetic" k2="-1" k3="1"/>
<feColorMatrix type="matrix" values="0 0 0 0 0.0666667 0 0 0 0 0.0196078 0 0 0 0 0.160784 0 0 0 0.16 0"/>
<feBlend mode="normal" in2="shape" result="effect1_innerShadow_5544_36221"/>
</filter>
<filter id="filter2_i_5544_36221" x="207" y="105" width="398" height="54" filterUnits="userSpaceOnUse" color-interpolation-filters="sRGB">
<feFlood flood-opacity="0" result="BackgroundImageFix"/>
<feBlend mode="normal" in="SourceGraphic" in2="BackgroundImageFix" result="shape"/>
<feColorMatrix in="SourceAlpha" type="matrix" values="0 0 0 0 0 0 0 0 0 0 0 0 0 0 0 0 0 0 127 0" result="hardAlpha"/>
<feOffset dx="-8" dy="-4"/>
<feComposite in2="hardAlpha" operator="arithmetic" k2="-1" k3="1"/>
<feColorMatrix type="matrix" values="0 0 0 0 0.0666667 0 0 0 0 0.0196078 0 0 0 0 0.160784 0 0 0 0.16 0"/>
<feBlend mode="normal" in2="shape" result="effect1_innerShadow_5544_36221"/>
</filter>
<filter id="filter3_i_5544_36221" x="603" y="105" width="32" height="54" filterUnits="userSpaceOnUse" color-interpolation-filters="sRGB">
<feFlood flood-opacity="0" result="BackgroundImageFix"/>
<feBlend mode="normal" in="SourceGraphic" in2="BackgroundImageFix" result="shape"/>
<feColorMatrix in="SourceAlpha" type="matrix" values="0 0 0 0 0 0 0 0 0 0 0 0 0 0 0 0 0 0 127 0" result="hardAlpha"/>
<feOffset dx="-8" dy="-4"/>
<feComposite in2="hardAlpha" operator="arithmetic" k2="-1" k3="1"/>
<feColorMatrix type="matrix" values="0 0 0 0 0.0666667 0 0 0 0 0.0196078 0 0 0 0 0.160784 0 0 0 0.16 0"/>
<feBlend mode="normal" in2="shape" result="effect1_innerShadow_5544_36221"/>
</filter>
<filter id="filter4_i_5544_36221" x="669" y="105" width="32" height="54" filterUnits="userSpaceOnUse" color-interpolation-filters="sRGB">
<feFlood flood-opacity="0" result="BackgroundImageFix"/>
<feBlend mode="normal" in="SourceGraphic" in2="BackgroundImageFix" result="shape"/>
<feColorMatrix in="SourceAlpha" type="matrix" values="0 0 0 0 0 0 0 0 0 0 0 0 0 0 0 0 0 0 127 0" result="hardAlpha"/>
<feOffset dx="-8" dy="-4"/>
<feComposite in2="hardAlpha" operator="arithmetic" k2="-1" k3="1"/>
<feColorMatrix type="matrix" values="0 0 0 0 0.0666667 0 0 0 0 0.0196078 0 0 0 0 0.160784 0 0 0 0.16 0"/>
<feBlend mode="normal" in2="shape" result="effect1_innerShadow_5544_36221"/>
</filter>
<filter id="filter5_i_5544_36221" x="633" y="105" width="38" height="54" filterUnits="userSpaceOnUse" color-interpolation-filters="sRGB">
<feFlood flood-opacity="0" result="BackgroundImageFix"/>
<feBlend mode="normal" in="SourceGraphic" in2="BackgroundImageFix" result="shape"/>
<feColorMatrix in="SourceAlpha" type="matrix" values="0 0 0 0 0 0 0 0 0 0 0 0 0 0 0 0 0 0 127 0" result="hardAlpha"/>
<feOffset dx="-8" dy="-4"/>
<feComposite in2="hardAlpha" operator="arithmetic" k2="-1" k3="1"/>
<feColorMatrix type="matrix" values="0 0 0 0 0.0666667 0 0 0 0 0.0196078 0 0 0 0 0.160784 0 0 0 0.16 0"/>
<feBlend mode="normal" in2="shape" result="effect1_innerShadow_5544_36221"/>
</filter>
<filter id="filter6_i_5544_36221" x="699" y="105" width="146" height="54" filterUnits="userSpaceOnUse" color-interpolation-filters="sRGB">
<feFlood flood-opacity="0" result="BackgroundImageFix"/>
<feBlend mode="normal" in="SourceGraphic" in2="BackgroundImageFix" result="shape"/>
<feColorMatrix in="SourceAlpha" type="matrix" values="0 0 0 0 0 0 0 0 0 0 0 0 0 0 0 0 0 0 127 0" result="hardAlpha"/>
<feOffset dx="-8" dy="-4"/>
<feComposite in2="hardAlpha" operator="arithmetic" k2="-1" k3="1"/>
<feColorMatrix type="matrix" values="0 0 0 0 0.0666667 0 0 0 0 0.0196078 0 0 0 0 0.160784 0 0 0 0.16 0"/>
<feBlend mode="normal" in2="shape" result="effect1_innerShadow_5544_36221"/>
</filter>
<filter id="filter7_i_5544_36221" x="843" y="105" width="75.0309" height="54" filterUnits="userSpaceOnUse" color-interpolation-filters="sRGB">
<feFlood flood-opacity="0" result="BackgroundImageFix"/>
<feBlend mode="normal" in="SourceGraphic" in2="BackgroundImageFix" result="shape"/>
<feColorMatrix in="SourceAlpha" type="matrix" values="0 0 0 0 0 0 0 0 0 0 0 0 0 0 0 0 0 0 127 0" result="hardAlpha"/>
<feOffset dx="-8" dy="-4"/>
<feComposite in2="hardAlpha" operator="arithmetic" k2="-1" k3="1"/>
<feColorMatrix type="matrix" values="0 0 0 0 0.0666667 0 0 0 0 0.0196078 0 0 0 0 0.160784 0 0 0 0.16 0"/>
<feBlend mode="normal" in2="shape" result="effect1_innerShadow_5544_36221"/>
</filter>
<filter id="filter8_i_5544_36221" x="79" y="281" width="74" height="54" filterUnits="userSpaceOnUse" color-interpolation-filters="sRGB">
<feFlood flood-opacity="0" result="BackgroundImageFix"/>
<feBlend mode="normal" in="SourceGraphic" in2="BackgroundImageFix" result="shape"/>
<feColorMatrix in="SourceAlpha" type="matrix" values="0 0 0 0 0 0 0 0 0 0 0 0 0 0 0 0 0 0 127 0" result="hardAlpha"/>
<feOffset dx="-8" dy="-4"/>
<feComposite in2="hardAlpha" operator="arithmetic" k2="-1" k3="1"/>
<feColorMatrix type="matrix" values="0 0 0 0 0.0666667 0 0 0 0 0.0196078 0 0 0 0 0.160784 0 0 0 0.16 0"/>
<feBlend mode="normal" in2="shape" result="effect1_innerShadow_5544_36221"/>
</filter>
<filter id="filter9_i_5544_36221" x="151" y="281" width="58" height="54" filterUnits="userSpaceOnUse" color-interpolation-filters="sRGB">
<feFlood flood-opacity="0" result="BackgroundImageFix"/>
<feBlend mode="normal" in="SourceGraphic" in2="BackgroundImageFix" result="shape"/>
<feColorMatrix in="SourceAlpha" type="matrix" values="0 0 0 0 0 0 0 0 0 0 0 0 0 0 0 0 0 0 127 0" result="hardAlpha"/>
<feOffset dx="-8" dy="-4"/>
<feComposite in2="hardAlpha" operator="arithmetic" k2="-1" k3="1"/>
<feColorMatrix type="matrix" values="0 0 0 0 0.0666667 0 0 0 0 0.0196078 0 0 0 0 0.160784 0 0 0 0.16 0"/>
<feBlend mode="normal" in2="shape" result="effect1_innerShadow_5544_36221"/>
</filter>
<filter id="filter10_i_5544_36221" x="207" y="281" width="398" height="54" filterUnits="userSpaceOnUse" color-interpolation-filters="sRGB">
<feFlood flood-opacity="0" result="BackgroundImageFix"/>
<feBlend mode="normal" in="SourceGraphic" in2="BackgroundImageFix" result="shape"/>
<feColorMatrix in="SourceAlpha" type="matrix" values="0 0 0 0 0 0 0 0 0 0 0 0 0 0 0 0 0 0 127 0" result="hardAlpha"/>
<feOffset dx="-8" dy="-4"/>
<feComposite in2="hardAlpha" operator="arithmetic" k2="-1" k3="1"/>
<feColorMatrix type="matrix" values="0 0 0 0 0.0666667 0 0 0 0 0.0196078 0 0 0 0 0.160784 0 0 0 0.16 0"/>
<feBlend mode="normal" in2="shape" result="effect1_innerShadow_5544_36221"/>
</filter>
<filter id="filter11_i_5544_36221" x="603" y="281" width="32" height="54" filterUnits="userSpaceOnUse" color-interpolation-filters="sRGB">
<feFlood flood-opacity="0" result="BackgroundImageFix"/>
<feBlend mode="normal" in="SourceGraphic" in2="BackgroundImageFix" result="shape"/>
<feColorMatrix in="SourceAlpha" type="matrix" values="0 0 0 0 0 0 0 0 0 0 0 0 0 0 0 0 0 0 127 0" result="hardAlpha"/>
<feOffset dx="-8" dy="-4"/>
<feComposite in2="hardAlpha" operator="arithmetic" k2="-1" k3="1"/>
<feColorMatrix type="matrix" values="0 0 0 0 0.0666667 0 0 0 0 0.0196078 0 0 0 0 0.160784 0 0 0 0.16 0"/>
<feBlend mode="normal" in2="shape" result="effect1_innerShadow_5544_36221"/>
</filter>
<filter id="filter12_i_5544_36221" x="633" y="281" width="146" height="54" filterUnits="userSpaceOnUse" color-interpolation-filters="sRGB">
<feFlood flood-opacity="0" result="BackgroundImageFix"/>
<feBlend mode="normal" in="SourceGraphic" in2="BackgroundImageFix" result="shape"/>
<feColorMatrix in="SourceAlpha" type="matrix" values="0 0 0 0 0 0 0 0 0 0 0 0 0 0 0 0 0 0 127 0" result="hardAlpha"/>
<feOffset dx="-8" dy="-4"/>
<feComposite in2="hardAlpha" operator="arithmetic" k2="-1" k3="1"/>
<feColorMatrix type="matrix" values="0 0 0 0 0.0666667 0 0 0 0 0.0196078 0 0 0 0 0.160784 0 0 0 0.16 0"/>
<feBlend mode="normal" in2="shape" result="effect1_innerShadow_5544_36221"/>
</filter>
<filter id="filter13_i_5544_36221" x="777" y="281" width="75.0309" height="54" filterUnits="userSpaceOnUse" color-interpolation-filters="sRGB">
<feFlood flood-opacity="0" result="BackgroundImageFix"/>
<feBlend mode="normal" in="SourceGraphic" in2="BackgroundImageFix" result="shape"/>
<feColorMatrix in="SourceAlpha" type="matrix" values="0 0 0 0 0 0 0 0 0 0 0 0 0 0 0 0 0 0 127 0" result="hardAlpha"/>
<feOffset dx="-8" dy="-4"/>
<feComposite in2="hardAlpha" operator="arithmetic" k2="-1" k3="1"/>
<feColorMatrix type="matrix" values="0 0 0 0 0.0666667 0 0 0 0 0.0196078 0 0 0 0 0.160784 0 0 0 0.16 0"/>
<feBlend mode="normal" in2="shape" result="effect1_innerShadow_5544_36221"/>
</filter>
</defs>
</svg>
