<svg width="960" height="380" viewBox="0 0 960 380" fill="none" xmlns="http://www.w3.org/2000/svg">
    <rect width="960" height="380" fill="white"/>
    <path d="M109.858 37H111.321V32.695H114.989V31.225H111.321V28.383H115.829V26.92H109.858V37ZM117.09 37H118.553V33.381H121.227L122.984 37H124.657L122.753 33.094C123.894 32.597 124.468 31.491 124.468 30.147C124.468 28.516 123.628 27.235 121.941 26.976C121.675 26.934 121.36 26.92 121.164 26.92H117.09V37ZM118.553 31.995V28.299H121.108C121.29 28.299 121.535 28.313 121.745 28.369C122.641 28.579 122.977 29.405 122.977 30.147C122.977 30.889 122.641 31.715 121.745 31.932C121.535 31.981 121.29 31.995 121.108 31.995H118.553ZM127.953 37H129.444V26.92H127.953L126.056 28.054V29.685L127.953 28.53V37Z" fill="#D3D7E0"/>
    <path d="M168 112V24" stroke="#D3D7E0" stroke-width="2" stroke-linecap="square" stroke-dasharray="6 6"/>
    <path d="M203.735 37.21C206.059 37.21 207.62 35.943 208.215 33.955L206.731 33.556C206.332 34.963 205.331 35.817 203.735 35.817C201.593 35.817 200.501 34.27 200.515 31.96C200.522 29.65 201.593 28.103 203.735 28.103C205.331 28.103 206.332 28.957 206.731 30.364L208.215 29.965C207.62 27.977 206.059 26.71 203.735 26.71C200.711 26.71 198.968 28.845 198.968 31.96C198.968 35.075 200.711 37.21 203.735 37.21ZM209.754 37H212.911C213.093 37 213.695 37 214.164 36.937C216.53 36.636 217.79 34.529 217.79 31.96C217.79 29.391 216.53 27.284 214.164 26.983C213.695 26.92 213.093 26.92 212.911 26.92H209.754V37ZM211.252 35.607V28.313H212.911C213.219 28.313 213.723 28.32 214.059 28.383C215.571 28.663 216.236 30.189 216.236 31.96C216.236 33.689 215.599 35.243 214.059 35.537C213.723 35.6 213.233 35.607 212.911 35.607H211.252ZM219.42 37H220.883V33.381H223.557L225.314 37H226.987L225.083 33.094C226.224 32.597 226.798 31.491 226.798 30.147C226.798 28.516 225.958 27.235 224.271 26.976C224.005 26.934 223.69 26.92 223.494 26.92H219.42V37ZM220.883 31.995V28.299H223.438C223.62 28.299 223.865 28.313 224.075 28.369C224.971 28.579 225.307 29.405 225.307 30.147C225.307 30.889 224.971 31.715 224.075 31.932C223.865 31.981 223.62 31.995 223.438 31.995H220.883ZM230.283 37H231.774V26.92H230.283L228.386 28.054V29.685L230.283 28.53V37Z" fill="#D3D7E0"/>
    <path d="M264 112V24" stroke="#D3D7E0" stroke-width="2" stroke-linecap="square" stroke-dasharray="6 6"/>
    <path d="M300.703 37H302.166V32.695H305.834V31.225H302.166V28.383H306.674V26.92H300.703V37ZM307.935 37H309.398V33.381H312.072L313.829 37H315.502L313.598 33.094C314.739 32.597 315.313 31.491 315.313 30.147C315.313 28.516 314.473 27.235 312.786 26.976C312.52 26.934 312.205 26.92 312.009 26.92H307.935V37ZM309.398 31.995V28.299H311.953C312.135 28.299 312.38 28.313 312.59 28.369C313.486 28.579 313.822 29.405 313.822 30.147C313.822 30.889 313.486 31.715 312.59 31.932C312.38 31.981 312.135 31.995 311.953 31.995H309.398ZM316.761 36.993H323.579V35.6H319.022L321.941 32.996C323.033 32.037 323.579 31.407 323.579 30.028C323.579 28.117 322.144 26.71 320.24 26.71C318.231 26.71 316.796 28.047 316.796 30H318.294C318.28 28.985 319.092 28.103 320.212 28.103C321.297 28.103 322.074 28.929 322.074 30.007C322.074 30.581 321.864 31.127 321.157 31.757L316.768 35.691L316.761 36.993Z" fill="#D3D7E0"/>
    <path d="M360 112V24" stroke="#D3D7E0" stroke-width="2" stroke-linecap="square" stroke-dasharray="6 6"/>
    <path d="M394.58 37.21C396.904 37.21 398.465 35.943 399.06 33.955L397.576 33.556C397.177 34.963 396.176 35.817 394.58 35.817C392.438 35.817 391.346 34.27 391.36 31.96C391.367 29.65 392.438 28.103 394.58 28.103C396.176 28.103 397.177 28.957 397.576 30.364L399.06 29.965C398.465 27.977 396.904 26.71 394.58 26.71C391.556 26.71 389.813 28.845 389.813 31.96C389.813 35.075 391.556 37.21 394.58 37.21ZM400.599 37H403.756C403.938 37 404.54 37 405.009 36.937C407.375 36.636 408.635 34.529 408.635 31.96C408.635 29.391 407.375 27.284 405.009 26.983C404.54 26.92 403.938 26.92 403.756 26.92H400.599V37ZM402.097 35.607V28.313H403.756C404.064 28.313 404.568 28.32 404.904 28.383C406.416 28.663 407.081 30.189 407.081 31.96C407.081 33.689 406.444 35.243 404.904 35.537C404.568 35.6 404.078 35.607 403.756 35.607H402.097ZM410.265 37H411.728V33.381H414.402L416.159 37H417.832L415.928 33.094C417.069 32.597 417.643 31.491 417.643 30.147C417.643 28.516 416.803 27.235 415.116 26.976C414.85 26.934 414.535 26.92 414.339 26.92H410.265V37ZM411.728 31.995V28.299H414.283C414.465 28.299 414.71 28.313 414.92 28.369C415.816 28.579 416.152 29.405 416.152 30.147C416.152 30.889 415.816 31.715 414.92 31.932C414.71 31.981 414.465 31.995 414.283 31.995H411.728ZM419.091 36.993H425.909V35.6H421.352L424.271 32.996C425.363 32.037 425.909 31.407 425.909 30.028C425.909 28.117 424.474 26.71 422.57 26.71C420.561 26.71 419.126 28.047 419.126 30H420.624C420.61 28.985 421.422 28.103 422.542 28.103C423.627 28.103 424.404 28.929 424.404 30.007C424.404 30.581 424.194 31.127 423.487 31.757L419.098 35.691L419.091 36.993Z" fill="#D3D7E0"/>
    <path d="M456 112V24" stroke="#D3D7E0" stroke-width="2" stroke-linecap="square" stroke-dasharray="6 6"/>
    <path d="M492.805 37H494.268V32.695H497.936V31.225H494.268V28.383H498.776V26.92H492.805V37ZM500.038 37H501.501V33.381H504.175L505.932 37H507.605L505.701 33.094C506.842 32.597 507.416 31.491 507.416 30.147C507.416 28.516 506.576 27.235 504.889 26.976C504.623 26.934 504.308 26.92 504.112 26.92H500.038V37ZM501.501 31.995V28.299H504.056C504.238 28.299 504.483 28.313 504.693 28.369C505.589 28.579 505.925 29.405 505.925 30.147C505.925 30.889 505.589 31.715 504.693 31.932C504.483 31.981 504.238 31.995 504.056 31.995H501.501ZM511.964 37.189C513.847 37.189 515.331 35.796 515.331 33.871C515.331 32.233 514.323 30.924 512.692 30.707L515.184 28.313V26.92H509.122V28.313H513.392L510.312 31.036L510.998 32.191C511.285 32.037 511.628 31.939 511.95 31.939C513.07 31.939 513.833 32.751 513.833 33.871C513.833 34.984 513.07 35.789 511.964 35.803C511.138 35.81 510.403 35.341 510.137 34.466L508.723 34.858C509.15 36.293 510.466 37.189 511.964 37.189Z" fill="#D3D7E0"/>
    <path d="M552 112V24" stroke="#D3D7E0" stroke-width="2" stroke-linecap="square" stroke-dasharray="6 6"/>
    <path d="M598.682 37.21C601.006 37.21 602.567 35.943 603.162 33.955L601.678 33.556C601.279 34.963 600.278 35.817 598.682 35.817C596.54 35.817 595.448 34.27 595.462 31.96C595.469 29.65 596.54 28.103 598.682 28.103C600.278 28.103 601.279 28.957 601.678 30.364L603.162 29.965C602.567 27.977 601.006 26.71 598.682 26.71C595.658 26.71 593.915 28.845 593.915 31.96C593.915 35.075 595.658 37.21 598.682 37.21ZM604.702 37H607.859C608.041 37 608.643 37 609.112 36.937C611.478 36.636 612.738 34.529 612.738 31.96C612.738 29.391 611.478 27.284 609.112 26.983C608.643 26.92 608.041 26.92 607.859 26.92H604.702V37ZM606.2 35.607V28.313H607.859C608.167 28.313 608.671 28.32 609.007 28.383C610.519 28.663 611.184 30.189 611.184 31.96C611.184 33.689 610.547 35.243 609.007 35.537C608.671 35.6 608.181 35.607 607.859 35.607H606.2ZM614.368 37H615.831V33.381H618.505L620.262 37H621.935L620.031 33.094C621.172 32.597 621.746 31.491 621.746 30.147C621.746 28.516 620.906 27.235 619.219 26.976C618.953 26.934 618.638 26.92 618.442 26.92H614.368V37ZM615.831 31.995V28.299H618.386C618.568 28.299 618.813 28.313 619.023 28.369C619.919 28.579 620.255 29.405 620.255 30.147C620.255 30.889 619.919 31.715 619.023 31.932C618.813 31.981 618.568 31.995 618.386 31.995H615.831ZM626.294 37.189C628.177 37.189 629.661 35.796 629.661 33.871C629.661 32.233 628.653 30.924 627.022 30.707L629.514 28.313V26.92H623.452V28.313H627.722L624.642 31.036L625.328 32.191C625.615 32.037 625.958 31.939 626.28 31.939C627.4 31.939 628.163 32.751 628.163 33.871C628.163 34.984 627.4 35.789 626.294 35.803C625.468 35.81 624.733 35.341 624.467 34.466L623.053 34.858C623.48 36.293 624.796 37.189 626.294 37.189Z" fill="#D3D7E0"/>
    <path d="M672 112V24" stroke="#D3D7E0" stroke-width="2" stroke-linecap="square" stroke-dasharray="6 6"/>
    <path d="M720.593 37H722.056V32.695H725.724V31.225H722.056V28.383H726.564V26.92H720.593V37ZM727.826 37H729.289V33.381H731.963L733.72 37H735.393L733.489 33.094C734.63 32.597 735.204 31.491 735.204 30.147C735.204 28.516 734.364 27.235 732.677 26.976C732.411 26.934 732.096 26.92 731.9 26.92H727.826V37ZM729.289 31.995V28.299H731.844C732.026 28.299 732.271 28.313 732.481 28.369C733.377 28.579 733.713 29.405 733.713 30.147C733.713 30.889 733.377 31.715 732.481 31.932C732.271 31.981 732.026 31.995 731.844 31.995H729.289ZM741.201 37H742.685V35.243H743.686V33.857H742.685V31.127H741.201V33.857H738.324L741.6 26.92H739.927L736.651 33.857V35.243H741.201V37Z" fill="#D3D7E0"/>
    <path d="M792 112V24" stroke="#D3D7E0" stroke-width="2" stroke-linecap="square" stroke-dasharray="6 6"/>
    <g filter="url(#filter0_i_5931_37175)">
        <path d="M101 84H562.4C562.96 84 563.24 84 563.454 84.109C563.642 84.2049 563.795 84.3578 563.891 84.546C564 84.7599 564 85.0399 564 85.6V134.4C564 134.96 564 135.24 563.891 135.454C563.795 135.642 563.642 135.795 563.454 135.891C563.24 136 562.96 136 562.4 136H101L96 129.5L101 123L96 116L101 110L96 103.5L101 97L96 90.5L101 84Z" fill="#99E099"/>
    </g>
    <path d="M101 84H562.4C562.96 84 563.24 84 563.454 84.109C563.642 84.2049 563.795 84.3578 563.891 84.546C564 84.7599 564 85.0399 564 85.6V134.4C564 134.96 564 135.24 563.891 135.454C563.795 135.642 563.642 135.795 563.454 135.891C563.24 136 562.96 136 562.4 136H101L96 129.5L101 123L96 116L101 110L96 103.5L101 97L96 90.5L101 84Z" stroke="#110529" stroke-width="2" stroke-linecap="round"/>
    <path d="M329.258 118H331.738L336.558 103.6H334.708L330.478 116.11L326.288 103.6H324.438L329.258 118Z" fill="#110529"/>
    <g filter="url(#filter1_i_5931_37175)">
        <rect x="564" y="84" width="30" height="52" rx="1" fill="#CBEB67"/>
    </g>
    <rect x="564" y="84" width="30" height="52" rx="1" stroke="#110529" stroke-width="2" stroke-linecap="round"/>
    <g filter="url(#filter2_i_5931_37175)">
        <rect x="630" y="84" width="30" height="52" rx="1" fill="#FAAAFA"/>
    </g>
    <rect x="630" y="84" width="30" height="52" rx="1" stroke="#110529" stroke-width="2" stroke-linecap="round"/>
    <g filter="url(#filter3_i_5931_37175)">
        <rect x="594" y="84" width="36" height="52" rx="1" fill="#FFCB8F"/>
    </g>
    <rect x="594" y="84" width="36" height="52" rx="1" stroke="#110529" stroke-width="2" stroke-linecap="round"/>
    <path d="M573.447 118H575.247V106.74L582.757 118H584.557V103.6H582.757V114.85L575.247 103.6H573.447V118Z" fill="#110529"/>
    <path d="M639.447 118H641.247V106.74L648.757 118H650.557V103.6H648.757V114.85L641.247 103.6H639.447V118Z" fill="#110529"/>
    <path d="M606.593 118H611.033C611.303 118 612.183 118 612.853 117.91C616.183 117.47 617.913 114.48 617.913 110.8C617.913 107.13 616.183 104.13 612.853 103.69C612.173 103.6 611.313 103.6 611.033 103.6H606.593V118ZM608.423 116.3V105.3H611.033C611.513 105.3 612.233 105.32 612.703 105.41C615.033 105.83 616.023 108.08 616.023 110.8C616.023 113.47 615.063 115.76 612.703 116.19C612.233 116.28 611.533 116.3 611.033 116.3H608.423Z" fill="#110529"/>
    <g filter="url(#filter4_i_5931_37175)">
        <rect x="660" y="84" width="132" height="52" rx="1" fill="#C1ADFF"/>
        <path d="M725.244 118.29C726.694 118.29 727.954 117.7 728.684 116.43C729.214 115.51 729.154 114.72 729.154 113.48V103.6H727.354V113.48C727.354 114.37 727.354 114.99 727.094 115.51C726.704 116.29 725.884 116.6 725.204 116.6C724.134 116.6 723.224 115.83 723.014 114.85L721.244 115.27C721.754 117.11 723.224 118.29 725.244 118.29Z" fill="#110529"/>
        <rect x="660" y="84" width="132" height="52" rx="1" stroke="#110529" stroke-width="2" stroke-linecap="round"/>
    </g>
    <g filter="url(#filter5_i_5931_37175)">
        <path d="M856 84H793.6C793.04 84 792.76 84 792.546 84.109C792.358 84.2049 792.205 84.3578 792.109 84.546C792 84.7599 792 85.0399 792 85.6V134.4C792 134.96 792 135.24 792.109 135.454C792.205 135.642 792.358 135.795 792.546 135.891C792.76 136 793.04 136 793.6 136H856L851 129.5L856 123L851 116L856 110L851 103.5L856 97L851 90.5L856 84Z" fill="#FAFAAA"/>
    </g>
    <path d="M856 84H793.6C793.04 84 792.76 84 792.546 84.109C792.358 84.2049 792.205 84.3578 792.109 84.546C792 84.7599 792 85.0399 792 85.6V134.4C792 134.96 792 135.24 792.109 135.454C792.205 135.642 792.358 135.795 792.546 135.891C792.76 136 793.04 136 793.6 136H856L851 129.5L856 123L851 116L856 110L851 103.5L856 97L851 90.5L856 84Z" stroke="#110529" stroke-width="2" stroke-linecap="round"/>
    <path d="M824.593 118.3C827.923 118.3 830.113 116.47 830.933 113.61L829.123 113.13C828.533 115.27 827.023 116.6 824.593 116.6C821.373 116.6 819.733 114.25 819.753 110.8C819.773 107.35 821.373 105 824.593 105C827.023 105 828.533 106.33 829.123 108.47L830.933 107.99C830.113 105.13 827.923 103.3 824.593 103.3C820.283 103.3 817.873 106.36 817.873 110.8C817.873 115.24 820.283 118.3 824.593 118.3Z" fill="#110529"/>
    <g filter="url(#filter6_i_5931_37175)">
        <path d="M101 244H562.4C562.96 244 563.24 244 563.454 244.109C563.642 244.205 563.795 244.358 563.891 244.546C564 244.76 564 245.04 564 245.6V294.4C564 294.96 564 295.24 563.891 295.454C563.795 295.642 563.642 295.795 563.454 295.891C563.24 296 562.96 296 562.4 296H101L96 289.5L101 283L96 276L101 270L96 263.5L101 257L96 250.5L101 244Z" fill="#99E099"/>
    </g>
    <path d="M101 244H562.4C562.96 244 563.24 244 563.454 244.109C563.642 244.205 563.795 244.358 563.891 244.546C564 244.76 564 245.04 564 245.6V294.4C564 294.96 564 295.24 563.891 295.454C563.795 295.642 563.642 295.795 563.454 295.891C563.24 296 562.96 296 562.4 296H101L96 289.5L101 283L96 276L101 270L96 263.5L101 257L96 250.5L101 244Z" stroke="#110529" stroke-width="2" stroke-linecap="round"/>
    <path d="M329.258 278H331.738L336.558 263.6H334.708L330.478 276.11L326.288 263.6H324.438L329.258 278Z" fill="#110529"/>
    <g filter="url(#filter7_i_5931_37175)">
        <rect x="564" y="244" width="30" height="52" rx="1" fill="#CBEB67"/>
    </g>
    <rect x="564" y="244" width="30" height="52" rx="1" stroke="#110529" stroke-width="2" stroke-linecap="round"/>
    <path d="M573.447 278H575.247V266.74L582.757 278H584.557V263.6H582.757V274.85L575.247 263.6H573.447V278Z" fill="#110529"/>
    <g filter="url(#filter8_i_5931_37175)">
        <rect x="594" y="244" width="132" height="52" rx="1" fill="#C1ADFF"/>
        <path d="M659.244 278.29C660.694 278.29 661.954 277.7 662.684 276.43C663.214 275.51 663.154 274.72 663.154 273.48V263.6H661.354V273.48C661.354 274.37 661.354 274.99 661.094 275.51C660.704 276.29 659.884 276.6 659.204 276.6C658.134 276.6 657.224 275.83 657.014 274.85L655.244 275.27C655.754 277.11 657.224 278.29 659.244 278.29Z" fill="#110529"/>
        <rect x="594" y="244" width="132" height="52" rx="1" stroke="#110529" stroke-width="2" stroke-linecap="round"/>
    </g>
    <g filter="url(#filter9_i_5931_37175)">
        <path d="M790 244H727.6C727.04 244 726.76 244 726.546 244.109C726.358 244.205 726.205 244.358 726.109 244.546C726 244.76 726 245.04 726 245.6V294.4C726 294.96 726 295.24 726.109 295.454C726.205 295.642 726.358 295.795 726.546 295.891C726.76 296 727.04 296 727.6 296H790L785 289.5L790 283L785 276L790 270L785 263.5L790 257L785 250.5L790 244Z" fill="#FAFAAA"/>
    </g>
    <path d="M790 244H727.6C727.04 244 726.76 244 726.546 244.109C726.358 244.205 726.205 244.358 726.109 244.546C726 244.76 726 245.04 726 245.6V294.4C726 294.96 726 295.24 726.109 295.454C726.205 295.642 726.358 295.795 726.546 295.891C726.76 296 727.04 296 727.6 296H790L785 289.5L790 283L785 276L790 270L785 263.5L790 257L785 250.5L790 244Z" stroke="#110529" stroke-width="2" stroke-linecap="round"/>
    <path d="M758.593 278.3C761.923 278.3 764.113 276.47 764.933 273.61L763.123 273.13C762.533 275.27 761.023 276.6 758.593 276.6C755.373 276.6 753.733 274.25 753.753 270.8C753.773 267.35 755.373 265 758.593 265C761.023 265 762.533 266.33 763.123 268.47L764.933 267.99C764.113 265.13 761.923 263.3 758.593 263.3C754.283 263.3 751.873 266.36 751.873 270.8C751.873 275.24 754.283 278.3 758.593 278.3Z" fill="#110529"/>
    <path d="M25.3268 278H27.1068V265.29H32.0168V263.6H20.4168V265.29H25.3268V278ZM39.529 278.3C42.859 278.3 45.049 276.47 45.869 273.61L44.059 273.13C43.469 275.27 41.959 276.6 39.529 276.6C36.309 276.6 34.669 274.25 34.689 270.8C34.709 267.35 36.309 265 39.529 265C41.959 265 43.469 266.33 44.059 268.47L45.869 267.99C45.049 265.13 42.859 263.3 39.529 263.3C35.219 263.3 32.809 266.36 32.809 270.8C32.809 275.24 35.219 278.3 39.529 278.3ZM48.0621 278H49.8421V272.68H54.0521L56.6321 278H58.6721L55.8921 272.29C57.5221 271.61 58.3721 270.04 58.3721 268.14C58.3721 265.85 57.1421 264.04 54.8121 263.68C54.4421 263.62 54.0321 263.6 53.7521 263.6H48.0621V278ZM49.8421 270.99V265.29H53.6921C53.9421 265.29 54.2921 265.31 54.5921 265.38C55.9721 265.69 56.5521 266.94 56.5521 268.14C56.5521 269.34 55.9721 270.59 54.5921 270.9C54.2921 270.97 53.9421 270.99 53.6921 270.99H49.8421ZM69.1485 278.3C70.7885 278.3 72.0985 277.54 72.7985 276.24V278H74.3885V267.2H72.7985V268.93C72.1085 267.65 70.8485 266.9 69.1985 266.9C66.0985 266.9 64.2785 269.35 64.2785 272.6C64.2785 275.83 66.0885 278.3 69.1485 278.3ZM66.1685 272.6C66.1685 270.19 67.2785 268.53 69.3885 268.53C71.4985 268.53 72.4985 270.2 72.4985 272.59C72.4985 274.96 71.5085 276.67 69.3685 276.67C67.1985 276.67 66.1685 274.88 66.1685 272.6Z" fill="#110529"/>
    <path d="M25.6881 118H27.4681V105.29H32.3781V103.6H20.7781V105.29H25.6881V118ZM39.8903 118.3C43.2203 118.3 45.4103 116.47 46.2303 113.61L44.4203 113.13C43.8303 115.27 42.3203 116.6 39.8903 116.6C36.6703 116.6 35.0303 114.25 35.0503 110.8C35.0703 107.35 36.6703 105 39.8903 105C42.3203 105 43.8303 106.33 44.4203 108.47L46.2303 107.99C45.4103 105.13 43.2203 103.3 39.8903 103.3C35.5803 103.3 33.1703 106.36 33.1703 110.8C33.1703 115.24 35.5803 118.3 39.8903 118.3ZM48.4234 118H50.2034V112.68H54.4134L56.9934 118H59.0334L56.2534 112.29C57.8834 111.61 58.7334 110.04 58.7334 108.14C58.7334 105.85 57.5034 104.04 55.1734 103.68C54.8034 103.62 54.3934 103.6 54.1134 103.6H48.4234V118ZM50.2034 110.99V105.29H54.0534C54.3034 105.29 54.6534 105.31 54.9534 105.38C56.3334 105.69 56.9134 106.94 56.9134 108.14C56.9134 109.34 56.3334 110.59 54.9534 110.9C54.6534 110.97 54.3034 110.99 54.0534 110.99H50.2034ZM65.2298 107.2V122.8H67.0098V117.39C67.7198 117.96 68.7098 118.3 69.9398 118.3C72.9898 118.3 74.8398 116.57 74.8398 113.95C74.8398 111.74 73.4398 110.44 72.0498 110.09C73.0998 109.58 73.6098 108.5 73.6098 107.22C73.6098 104.84 71.8598 103.3 69.3698 103.3C67.5098 103.3 65.9798 104.16 65.4498 105.78C65.2998 106.23 65.2298 106.71 65.2298 107.2ZM67.0498 113.71V107.86C67.0498 107.44 67.0698 106.8 67.2798 106.28C67.6398 105.35 68.5198 104.99 69.4098 104.99C70.7898 104.99 71.7898 105.82 71.7898 107.24C71.7898 108.67 70.7898 109.4 69.4198 109.54V111.14C71.6098 111.18 73.0298 112.1 73.0298 113.87C73.0298 115.52 71.7898 116.61 70.0198 116.61C68.7698 116.61 67.5298 116.04 67.1998 115.01C67.0798 114.64 67.0498 114.1 67.0498 113.71Z" fill="#110529"/>
    <path d="M328 160L327.293 160.707L326.586 160L327.293 159.293L328 160ZM335.293 151.293L336 150.586L337.414 152L336.707 152.707L335.293 151.293ZM336.707 167.293L337.414 168L336 169.414L335.293 168.707L336.707 167.293ZM338 161L328 161L328 159L338 159L338 161ZM327.293 159.293L335.293 151.293L336.707 152.707L328.707 160.707L327.293 159.293ZM328.707 159.293L336.707 167.293L335.293 168.707L327.293 160.707L328.707 159.293Z" fill="#110529"/>
    <path d="M552.5 160H338" stroke="#110529" stroke-width="2"/>
    <rect width="57" height="20" transform="translate(552.5 150)" fill="white"/>
    <path d="M557.933 165.992H565.589V164.632H560.125L563.837 161.296C565.021 160.248 565.589 159.488 565.589 157.976C565.589 155.856 563.973 154.24 561.837 154.24C559.621 154.24 557.989 155.784 557.989 157.952H559.445C559.429 156.696 560.437 155.6 561.813 155.6C563.141 155.6 564.133 156.632 564.133 157.96C564.133 158.688 563.901 159.352 563.053 160.112L557.941 164.712L557.933 165.992ZM570.911 166.24C573.055 166.24 574.871 164.504 574.871 162.376C574.871 160.232 573.247 158.584 571.111 158.584C570.335 158.584 569.559 158.848 568.959 159.328L569.167 155.832H574.071V154.48H567.887L567.535 160.504L568.799 160.984C569.215 160.384 569.935 159.896 570.951 159.896C572.295 159.896 573.439 160.984 573.439 162.376C573.439 163.728 572.351 164.856 570.951 164.856C569.879 164.856 568.839 164.144 568.551 163.008L567.183 163.376C567.647 165.056 569.127 166.24 570.911 166.24ZM580.672 166.24C582.912 166.24 584.56 164.592 584.56 162.352V158.128C584.56 155.888 582.912 154.24 580.672 154.24C578.432 154.24 576.784 155.888 576.784 158.128V162.352C576.784 164.592 578.432 166.24 580.672 166.24ZM578.232 162.432V158.04C578.232 156.688 579.32 155.6 580.672 155.6C582.024 155.6 583.112 156.688 583.112 158.04V162.432C583.112 163.784 582.024 164.872 580.672 164.872C579.32 164.872 578.232 163.784 578.232 162.432ZM590.768 166.24C593.184 166.24 594.64 164.264 594.64 161.672C594.64 159.08 593.176 157.12 590.776 157.12C589.696 157.12 588.84 157.496 588.224 158.144V154.48H586.792V166H588.064V165.024C588.696 165.784 589.6 166.24 590.768 166.24ZM588.064 161.672C588.064 159.76 588.864 158.424 590.552 158.424C592.312 158.424 593.128 159.848 593.128 161.672C593.128 163.512 592.296 164.936 590.592 164.936C588.848 164.936 588.064 163.568 588.064 161.672ZM600.361 166.24C602.777 166.24 604.233 164.264 604.233 161.672C604.233 159.08 602.769 157.12 600.369 157.12C599.193 157.12 598.289 157.568 597.657 158.328V157.36H596.385V169.84H597.817V165.2C598.433 165.856 599.289 166.24 600.361 166.24ZM597.657 161.672C597.657 159.76 598.457 158.424 600.145 158.424C601.905 158.424 602.721 159.848 602.721 161.672C602.721 163.512 601.889 164.936 600.185 164.936C598.441 164.936 597.657 163.568 597.657 161.672Z" fill="#110529"/>
    <path d="M824 160H609.5" stroke="#110529" stroke-width="2"/>
    <path d="M832.62 166H834.044V161.744H837.412L839.476 166H841.108L838.884 161.432C840.188 160.888 840.868 159.632 840.868 158.112C840.868 156.28 839.884 154.832 838.02 154.544C837.724 154.496 837.396 154.48 837.172 154.48H832.62V166ZM834.044 160.392V155.832H837.124C837.324 155.832 837.604 155.848 837.844 155.904C838.948 156.152 839.412 157.152 839.412 158.112C839.412 159.072 838.948 160.072 837.844 160.32C837.604 160.376 837.324 160.392 837.124 160.392H834.044ZM844.878 166H846.326V154.48H844.878L842.71 155.776V157.368L844.878 156.056V166Z" fill="#110529"/>
    <rect x="824" y="148" width="32" height="24" rx="1" stroke="#110529" stroke-width="2"/>
    <path d="M296 320L295.293 320.707L294.586 320L295.293 319.293L296 320ZM303.293 311.293L304 310.586L305.414 312L304.707 312.707L303.293 311.293ZM304.707 327.293L305.414 328L304 329.414L303.293 328.707L304.707 327.293ZM306 321L296 321L296 319L306 319L306 321ZM295.293 319.293L303.293 311.293L304.707 312.707L296.707 320.707L295.293 319.293ZM296.707 319.293L304.707 327.293L303.293 328.707L295.293 320.707L296.707 319.293Z" fill="#110529"/>
    <path d="M504.5 320H306" stroke="#110529" stroke-width="2"/>
    <rect width="57" height="20" transform="translate(504.5 310)" fill="white"/>
    <path d="M509.933 325.992H517.589V324.632H512.125L515.837 321.296C517.021 320.248 517.589 319.488 517.589 317.976C517.589 315.856 515.973 314.24 513.837 314.24C511.621 314.24 509.989 315.784 509.989 317.952H511.445C511.429 316.696 512.437 315.6 513.813 315.6C515.141 315.6 516.133 316.632 516.133 317.96C516.133 318.688 515.901 319.352 515.053 320.112L509.941 324.712L509.933 325.992ZM522.911 326.24C525.055 326.24 526.871 324.504 526.871 322.376C526.871 320.232 525.247 318.584 523.111 318.584C522.335 318.584 521.559 318.848 520.959 319.328L521.167 315.832H526.071V314.48H519.887L519.535 320.504L520.799 320.984C521.215 320.384 521.935 319.896 522.951 319.896C524.295 319.896 525.439 320.984 525.439 322.376C525.439 323.728 524.351 324.856 522.951 324.856C521.879 324.856 520.839 324.144 520.551 323.008L519.183 323.376C519.647 325.056 521.127 326.24 522.911 326.24ZM532.672 326.24C534.912 326.24 536.56 324.592 536.56 322.352V318.128C536.56 315.888 534.912 314.24 532.672 314.24C530.432 314.24 528.784 315.888 528.784 318.128V322.352C528.784 324.592 530.432 326.24 532.672 326.24ZM530.232 322.432V318.04C530.232 316.688 531.32 315.6 532.672 315.6C534.024 315.6 535.112 316.688 535.112 318.04V322.432C535.112 323.784 534.024 324.872 532.672 324.872C531.32 324.872 530.232 323.784 530.232 322.432ZM542.768 326.24C545.184 326.24 546.64 324.264 546.64 321.672C546.64 319.08 545.176 317.12 542.776 317.12C541.696 317.12 540.84 317.496 540.224 318.144V314.48H538.792V326H540.064V325.024C540.696 325.784 541.6 326.24 542.768 326.24ZM540.064 321.672C540.064 319.76 540.864 318.424 542.552 318.424C544.312 318.424 545.128 319.848 545.128 321.672C545.128 323.512 544.296 324.936 542.592 324.936C540.848 324.936 540.064 323.568 540.064 321.672ZM552.361 326.24C554.777 326.24 556.233 324.264 556.233 321.672C556.233 319.08 554.769 317.12 552.369 317.12C551.193 317.12 550.289 317.568 549.657 318.328V317.36H548.385V329.84H549.817V325.2C550.433 325.856 551.289 326.24 552.361 326.24ZM549.657 321.672C549.657 319.76 550.457 318.424 552.145 318.424C553.905 318.424 554.721 319.848 554.721 321.672C554.721 323.512 553.889 324.936 552.185 324.936C550.441 324.936 549.657 323.568 549.657 321.672Z" fill="#110529"/>
    <path d="M760 320H561.5" stroke="#110529" stroke-width="2"/>
    <path d="M768.62 326H770.044V321.744H773.412L775.476 326H777.108L774.884 321.432C776.188 320.888 776.868 319.632 776.868 318.112C776.868 316.28 775.884 314.832 774.02 314.544C773.724 314.496 773.396 314.48 773.172 314.48H768.62V326ZM770.044 320.392V315.832H773.124C773.324 315.832 773.604 315.848 773.844 315.904C774.948 316.152 775.412 317.152 775.412 318.112C775.412 319.072 774.948 320.072 773.844 320.32C773.604 320.376 773.324 320.392 773.124 320.392H770.044ZM780.878 326H782.326V314.48H780.878L778.71 315.776V317.368L780.878 316.056V326Z" fill="#110529"/>
    <rect x="760" y="308" width="32" height="24" rx="1" stroke="#110529" stroke-width="2"/>
    <path d="M103.12 190H104.544V185.744H107.912L109.976 190H111.608L109.384 185.432C110.688 184.888 111.368 183.632 111.368 182.112C111.368 180.28 110.384 178.832 108.52 178.544C108.224 178.496 107.896 178.48 107.672 178.48H103.12V190ZM104.544 184.392V179.832H107.624C107.824 179.832 108.104 179.848 108.344 179.904C109.448 180.152 109.912 181.152 109.912 182.112C109.912 183.072 109.448 184.072 108.344 184.32C108.104 184.376 107.824 184.392 107.624 184.392H104.544ZM113.05 189.992H120.706V188.632H115.242L118.954 185.296C120.138 184.248 120.706 183.488 120.706 181.976C120.706 179.856 119.09 178.24 116.954 178.24C114.738 178.24 113.106 179.784 113.106 181.952H114.562C114.546 180.696 115.554 179.6 116.93 179.6C118.258 179.6 119.25 180.632 119.25 181.96C119.25 182.688 119.018 183.352 118.17 184.112L113.058 188.712L113.05 189.992Z" fill="#110529"/>
    <rect x="96" y="172" width="32" height="24" rx="1" stroke="#110529" stroke-width="2"/>
    <path d="M369 184H128" stroke="#110529" stroke-width="2"/>
    <rect width="56" height="20" transform="translate(369 174)" fill="white"/>
    <path d="M373.933 189.992H381.589V188.632H376.125L379.837 185.296C381.021 184.248 381.589 183.488 381.589 181.976C381.589 179.856 379.973 178.24 377.837 178.24C375.621 178.24 373.989 179.784 373.989 181.952H375.445C375.429 180.696 376.437 179.6 377.813 179.6C379.141 179.6 380.133 180.632 380.133 181.96C380.133 182.688 379.901 183.352 379.053 184.112L373.941 188.712L373.933 189.992ZM386.911 190.24C389.055 190.24 390.871 188.504 390.871 186.376C390.871 184.232 389.247 182.584 387.111 182.584C386.335 182.584 385.559 182.848 384.959 183.328L385.167 179.832H390.071V178.48H383.887L383.535 184.504L384.799 184.984C385.215 184.384 385.935 183.896 386.951 183.896C388.295 183.896 389.439 184.984 389.439 186.376C389.439 187.728 388.351 188.856 386.951 188.856C385.879 188.856 384.839 188.144 384.551 187.008L383.183 187.376C383.647 189.056 385.127 190.24 386.911 190.24ZM396.672 190.24C398.912 190.24 400.56 188.592 400.56 186.352V182.128C400.56 179.888 398.912 178.24 396.672 178.24C394.432 178.24 392.784 179.888 392.784 182.128V186.352C392.784 188.592 394.432 190.24 396.672 190.24ZM394.232 186.432V182.04C394.232 180.688 395.32 179.6 396.672 179.6C398.024 179.6 399.112 180.688 399.112 182.04V186.432C399.112 187.784 398.024 188.872 396.672 188.872C395.32 188.872 394.232 187.784 394.232 186.432ZM406.768 190.24C409.184 190.24 410.64 188.264 410.64 185.672C410.64 183.08 409.176 181.12 406.776 181.12C405.696 181.12 404.84 181.496 404.224 182.144V178.48H402.792V190H404.064V189.024C404.696 189.784 405.6 190.24 406.768 190.24ZM404.064 185.672C404.064 183.76 404.864 182.424 406.552 182.424C408.312 182.424 409.128 183.848 409.128 185.672C409.128 187.512 408.296 188.936 406.592 188.936C404.848 188.936 404.064 187.568 404.064 185.672ZM416.361 190.24C418.777 190.24 420.233 188.264 420.233 185.672C420.233 183.08 418.769 181.12 416.369 181.12C415.193 181.12 414.289 181.568 413.657 182.328V181.36H412.385V193.84H413.817V189.2C414.433 189.856 415.289 190.24 416.361 190.24ZM413.657 185.672C413.657 183.76 414.457 182.424 416.145 182.424C417.905 182.424 418.721 183.848 418.721 185.672C418.721 187.512 417.889 188.936 416.185 188.936C414.441 188.936 413.657 187.568 413.657 185.672Z" fill="#110529"/>
    <path d="M666 184H425" stroke="#110529" stroke-width="2"/>
    <path d="M676 184L676.707 183.293L677.414 184L676.707 184.707L676 184ZM668.707 192.707L668 193.414L666.586 192L667.293 191.293L668.707 192.707ZM667.293 176.707L666.586 176L668 174.586L668.707 175.293L667.293 176.707ZM666 183L676 183L676 185L666 185L666 183ZM676.707 184.707L668.707 192.707L667.293 191.293L675.293 183.293L676.707 184.707ZM675.293 184.707L667.293 176.707L668.707 175.293L676.707 183.293L675.293 184.707Z" fill="#110529"/>
    <path d="M103.12 350H104.544V345.744H107.912L109.976 350H111.608L109.384 345.432C110.688 344.888 111.368 343.632 111.368 342.112C111.368 340.28 110.384 338.832 108.52 338.544C108.224 338.496 107.896 338.48 107.672 338.48H103.12V350ZM104.544 344.392V339.832H107.624C107.824 339.832 108.104 339.848 108.344 339.904C109.448 340.152 109.912 341.152 109.912 342.112C109.912 343.072 109.448 344.072 108.344 344.32C108.104 344.376 107.824 344.392 107.624 344.392H104.544ZM113.05 349.992H120.706V348.632H115.242L118.954 345.296C120.138 344.248 120.706 343.488 120.706 341.976C120.706 339.856 119.09 338.24 116.954 338.24C114.738 338.24 113.106 339.784 113.106 341.952H114.562C114.546 340.696 115.554 339.6 116.93 339.6C118.258 339.6 119.25 340.632 119.25 341.96C119.25 342.688 119.018 343.352 118.17 344.112L113.058 348.712L113.05 349.992Z" fill="#110529"/>
    <rect x="96" y="332" width="32" height="24" rx="1" stroke="#110529" stroke-width="2"/>
    <path d="M369 344H128" stroke="#110529" stroke-width="2"/>
    <rect width="56" height="20" transform="translate(369 334)" fill="white"/>
    <path d="M373.933 349.992H381.589V348.632H376.125L379.837 345.296C381.021 344.248 381.589 343.488 381.589 341.976C381.589 339.856 379.973 338.24 377.837 338.24C375.621 338.24 373.989 339.784 373.989 341.952H375.445C375.429 340.696 376.437 339.6 377.813 339.6C379.141 339.6 380.133 340.632 380.133 341.96C380.133 342.688 379.901 343.352 379.053 344.112L373.941 348.712L373.933 349.992ZM386.911 350.24C389.055 350.24 390.871 348.504 390.871 346.376C390.871 344.232 389.247 342.584 387.111 342.584C386.335 342.584 385.559 342.848 384.959 343.328L385.167 339.832H390.071V338.48H383.887L383.535 344.504L384.799 344.984C385.215 344.384 385.935 343.896 386.951 343.896C388.295 343.896 389.439 344.984 389.439 346.376C389.439 347.728 388.351 348.856 386.951 348.856C385.879 348.856 384.839 348.144 384.551 347.008L383.183 347.376C383.647 349.056 385.127 350.24 386.911 350.24ZM396.672 350.24C398.912 350.24 400.56 348.592 400.56 346.352V342.128C400.56 339.888 398.912 338.24 396.672 338.24C394.432 338.24 392.784 339.888 392.784 342.128V346.352C392.784 348.592 394.432 350.24 396.672 350.24ZM394.232 346.432V342.04C394.232 340.688 395.32 339.6 396.672 339.6C398.024 339.6 399.112 340.688 399.112 342.04V346.432C399.112 347.784 398.024 348.872 396.672 348.872C395.32 348.872 394.232 347.784 394.232 346.432ZM406.768 350.24C409.184 350.24 410.64 348.264 410.64 345.672C410.64 343.08 409.176 341.12 406.776 341.12C405.696 341.12 404.84 341.496 404.224 342.144V338.48H402.792V350H404.064V349.024C404.696 349.784 405.6 350.24 406.768 350.24ZM404.064 345.672C404.064 343.76 404.864 342.424 406.552 342.424C408.312 342.424 409.128 343.848 409.128 345.672C409.128 347.512 408.296 348.936 406.592 348.936C404.848 348.936 404.064 347.568 404.064 345.672ZM416.361 350.24C418.777 350.24 420.233 348.264 420.233 345.672C420.233 343.08 418.769 341.12 416.369 341.12C415.193 341.12 414.289 341.568 413.657 342.328V341.36H412.385V353.84H413.817V349.2C414.433 349.856 415.289 350.24 416.361 350.24ZM413.657 345.672C413.657 343.76 414.457 342.424 416.145 342.424C417.905 342.424 418.721 343.848 418.721 345.672C418.721 347.512 417.889 348.936 416.185 348.936C414.441 348.936 413.657 347.568 413.657 345.672Z" fill="#110529"/>
    <path d="M666 344H425" stroke="#110529" stroke-width="2"/>
    <path d="M676 344L676.707 343.293L677.414 344L676.707 344.707L676 344ZM668.707 352.707L668 353.414L666.586 352L667.293 351.293L668.707 352.707ZM667.293 336.707L666.586 336L668 334.586L668.707 335.293L667.293 336.707ZM666 343L676 343L676 345L666 345L666 343ZM676.707 344.707L668.707 352.707L667.293 351.293L675.293 343.293L676.707 344.707ZM675.293 344.707L667.293 336.707L668.707 335.293L676.707 343.293L675.293 344.707Z" fill="#110529"/>
    <defs>
        <filter id="filter0_i_5931_37175" x="94.7373" y="83" width="470.263" height="54" filterUnits="userSpaceOnUse" color-interpolation-filters="sRGB">
            <feFlood flood-opacity="0" result="BackgroundImageFix"/>
            <feBlend mode="normal" in="SourceGraphic" in2="BackgroundImageFix" result="shape"/>
            <feColorMatrix in="SourceAlpha" type="matrix" values="0 0 0 0 0 0 0 0 0 0 0 0 0 0 0 0 0 0 127 0" result="hardAlpha"/>
            <feOffset dx="-8" dy="-4"/>
            <feComposite in2="hardAlpha" operator="arithmetic" k2="-1" k3="1"/>
            <feColorMatrix type="matrix" values="0 0 0 0 0.0666667 0 0 0 0 0.0196078 0 0 0 0 0.160784 0 0 0 0.16 0"/>
            <feBlend mode="normal" in2="shape" result="effect1_innerShadow_5931_37175"/>
        </filter>
        <filter id="filter1_i_5931_37175" x="563" y="83" width="32" height="54" filterUnits="userSpaceOnUse" color-interpolation-filters="sRGB">
            <feFlood flood-opacity="0" result="BackgroundImageFix"/>
            <feBlend mode="normal" in="SourceGraphic" in2="BackgroundImageFix" result="shape"/>
            <feColorMatrix in="SourceAlpha" type="matrix" values="0 0 0 0 0 0 0 0 0 0 0 0 0 0 0 0 0 0 127 0" result="hardAlpha"/>
            <feOffset dx="-8" dy="-4"/>
            <feComposite in2="hardAlpha" operator="arithmetic" k2="-1" k3="1"/>
            <feColorMatrix type="matrix" values="0 0 0 0 0.0666667 0 0 0 0 0.0196078 0 0 0 0 0.160784 0 0 0 0.16 0"/>
            <feBlend mode="normal" in2="shape" result="effect1_innerShadow_5931_37175"/>
        </filter>
        <filter id="filter2_i_5931_37175" x="629" y="83" width="32" height="54" filterUnits="userSpaceOnUse" color-interpolation-filters="sRGB">
            <feFlood flood-opacity="0" result="BackgroundImageFix"/>
            <feBlend mode="normal" in="SourceGraphic" in2="BackgroundImageFix" result="shape"/>
            <feColorMatrix in="SourceAlpha" type="matrix" values="0 0 0 0 0 0 0 0 0 0 0 0 0 0 0 0 0 0 127 0" result="hardAlpha"/>
            <feOffset dx="-8" dy="-4"/>
            <feComposite in2="hardAlpha" operator="arithmetic" k2="-1" k3="1"/>
            <feColorMatrix type="matrix" values="0 0 0 0 0.0666667 0 0 0 0 0.0196078 0 0 0 0 0.160784 0 0 0 0.16 0"/>
            <feBlend mode="normal" in2="shape" result="effect1_innerShadow_5931_37175"/>
        </filter>
        <filter id="filter3_i_5931_37175" x="593" y="83" width="38" height="54" filterUnits="userSpaceOnUse" color-interpolation-filters="sRGB">
            <feFlood flood-opacity="0" result="BackgroundImageFix"/>
            <feBlend mode="normal" in="SourceGraphic" in2="BackgroundImageFix" result="shape"/>
            <feColorMatrix in="SourceAlpha" type="matrix" values="0 0 0 0 0 0 0 0 0 0 0 0 0 0 0 0 0 0 127 0" result="hardAlpha"/>
            <feOffset dx="-8" dy="-4"/>
            <feComposite in2="hardAlpha" operator="arithmetic" k2="-1" k3="1"/>
            <feColorMatrix type="matrix" values="0 0 0 0 0.0666667 0 0 0 0 0.0196078 0 0 0 0 0.160784 0 0 0 0.16 0"/>
            <feBlend mode="normal" in2="shape" result="effect1_innerShadow_5931_37175"/>
        </filter>
        <filter id="filter4_i_5931_37175" x="659" y="83" width="134" height="54" filterUnits="userSpaceOnUse" color-interpolation-filters="sRGB">
            <feFlood flood-opacity="0" result="BackgroundImageFix"/>
            <feBlend mode="normal" in="SourceGraphic" in2="BackgroundImageFix" result="shape"/>
            <feColorMatrix in="SourceAlpha" type="matrix" values="0 0 0 0 0 0 0 0 0 0 0 0 0 0 0 0 0 0 127 0" result="hardAlpha"/>
            <feOffset dx="-8" dy="-4"/>
            <feComposite in2="hardAlpha" operator="arithmetic" k2="-1" k3="1"/>
            <feColorMatrix type="matrix" values="0 0 0 0 0.0666667 0 0 0 0 0.0196078 0 0 0 0 0.160784 0 0 0 0.16 0"/>
            <feBlend mode="normal" in2="shape" result="effect1_innerShadow_5931_37175"/>
        </filter>
        <filter id="filter5_i_5931_37175" x="791" y="83" width="67.0308" height="54" filterUnits="userSpaceOnUse" color-interpolation-filters="sRGB">
            <feFlood flood-opacity="0" result="BackgroundImageFix"/>
            <feBlend mode="normal" in="SourceGraphic" in2="BackgroundImageFix" result="shape"/>
            <feColorMatrix in="SourceAlpha" type="matrix" values="0 0 0 0 0 0 0 0 0 0 0 0 0 0 0 0 0 0 127 0" result="hardAlpha"/>
            <feOffset dx="-8" dy="-4"/>
            <feComposite in2="hardAlpha" operator="arithmetic" k2="-1" k3="1"/>
            <feColorMatrix type="matrix" values="0 0 0 0 0.0666667 0 0 0 0 0.0196078 0 0 0 0 0.160784 0 0 0 0.16 0"/>
            <feBlend mode="normal" in2="shape" result="effect1_innerShadow_5931_37175"/>
        </filter>
        <filter id="filter6_i_5931_37175" x="94.7373" y="243" width="470.263" height="54" filterUnits="userSpaceOnUse" color-interpolation-filters="sRGB">
            <feFlood flood-opacity="0" result="BackgroundImageFix"/>
            <feBlend mode="normal" in="SourceGraphic" in2="BackgroundImageFix" result="shape"/>
            <feColorMatrix in="SourceAlpha" type="matrix" values="0 0 0 0 0 0 0 0 0 0 0 0 0 0 0 0 0 0 127 0" result="hardAlpha"/>
            <feOffset dx="-8" dy="-4"/>
            <feComposite in2="hardAlpha" operator="arithmetic" k2="-1" k3="1"/>
            <feColorMatrix type="matrix" values="0 0 0 0 0.0666667 0 0 0 0 0.0196078 0 0 0 0 0.160784 0 0 0 0.16 0"/>
            <feBlend mode="normal" in2="shape" result="effect1_innerShadow_5931_37175"/>
        </filter>
        <filter id="filter7_i_5931_37175" x="563" y="243" width="32" height="54" filterUnits="userSpaceOnUse" color-interpolation-filters="sRGB">
            <feFlood flood-opacity="0" result="BackgroundImageFix"/>
            <feBlend mode="normal" in="SourceGraphic" in2="BackgroundImageFix" result="shape"/>
            <feColorMatrix in="SourceAlpha" type="matrix" values="0 0 0 0 0 0 0 0 0 0 0 0 0 0 0 0 0 0 127 0" result="hardAlpha"/>
            <feOffset dx="-8" dy="-4"/>
            <feComposite in2="hardAlpha" operator="arithmetic" k2="-1" k3="1"/>
            <feColorMatrix type="matrix" values="0 0 0 0 0.0666667 0 0 0 0 0.0196078 0 0 0 0 0.160784 0 0 0 0.16 0"/>
            <feBlend mode="normal" in2="shape" result="effect1_innerShadow_5931_37175"/>
        </filter>
        <filter id="filter8_i_5931_37175" x="593" y="243" width="134" height="54" filterUnits="userSpaceOnUse" color-interpolation-filters="sRGB">
            <feFlood flood-opacity="0" result="BackgroundImageFix"/>
            <feBlend mode="normal" in="SourceGraphic" in2="BackgroundImageFix" result="shape"/>
            <feColorMatrix in="SourceAlpha" type="matrix" values="0 0 0 0 0 0 0 0 0 0 0 0 0 0 0 0 0 0 127 0" result="hardAlpha"/>
            <feOffset dx="-8" dy="-4"/>
            <feComposite in2="hardAlpha" operator="arithmetic" k2="-1" k3="1"/>
            <feColorMatrix type="matrix" values="0 0 0 0 0.0666667 0 0 0 0 0.0196078 0 0 0 0 0.160784 0 0 0 0.16 0"/>
            <feBlend mode="normal" in2="shape" result="effect1_innerShadow_5931_37175"/>
        </filter>
        <filter id="filter9_i_5931_37175" x="725" y="243" width="67.0308" height="54" filterUnits="userSpaceOnUse" color-interpolation-filters="sRGB">
            <feFlood flood-opacity="0" result="BackgroundImageFix"/>
            <feBlend mode="normal" in="SourceGraphic" in2="BackgroundImageFix" result="shape"/>
            <feColorMatrix in="SourceAlpha" type="matrix" values="0 0 0 0 0 0 0 0 0 0 0 0 0 0 0 0 0 0 127 0" result="hardAlpha"/>
            <feOffset dx="-8" dy="-4"/>
            <feComposite in2="hardAlpha" operator="arithmetic" k2="-1" k3="1"/>
            <feColorMatrix type="matrix" values="0 0 0 0 0.0666667 0 0 0 0 0.0196078 0 0 0 0 0.160784 0 0 0 0.16 0"/>
            <feBlend mode="normal" in2="shape" result="effect1_innerShadow_5931_37175"/>
        </filter>
    </defs>
</svg>
