<svg width="960" height="248" viewBox="0 0 960 248" fill="none" xmlns="http://www.w3.org/2000/svg">
<rect width="960" height="248" fill="white"/>
<path d="M402.58 37.21C404.904 37.21 406.465 35.943 407.06 33.955L405.576 33.556C405.177 34.963 404.176 35.817 402.58 35.817C400.438 35.817 399.346 34.27 399.36 31.96C399.367 29.65 400.438 28.103 402.58 28.103C404.176 28.103 405.177 28.957 405.576 30.364L407.06 29.965C406.465 27.977 404.904 26.71 402.58 26.71C399.556 26.71 397.813 28.845 397.813 31.96C397.813 35.075 399.556 37.21 402.58 37.21ZM408.599 37H411.756C411.938 37 412.54 37 413.009 36.937C415.375 36.636 416.635 34.529 416.635 31.96C416.635 29.391 415.375 27.284 413.009 26.983C412.54 26.92 411.938 26.92 411.756 26.92H408.599V37ZM410.097 35.607V28.313H411.756C412.064 28.313 412.568 28.32 412.904 28.383C414.416 28.663 415.081 30.189 415.081 31.96C415.081 33.689 414.444 35.243 412.904 35.537C412.568 35.6 412.078 35.607 411.756 35.607H410.097ZM418.265 37H419.728V33.381H422.402L424.159 37H425.832L423.928 33.094C425.069 32.597 425.643 31.491 425.643 30.147C425.643 28.516 424.803 27.235 423.116 26.976C422.85 26.934 422.535 26.92 422.339 26.92H418.265V37ZM419.728 31.995V28.299H422.283C422.465 28.299 422.71 28.313 422.92 28.369C423.816 28.579 424.152 29.405 424.152 30.147C424.152 30.889 423.816 31.715 422.92 31.932C422.71 31.981 422.465 31.995 422.283 31.995H419.728ZM427.091 36.993H433.909V35.6H429.352L432.271 32.996C433.363 32.037 433.909 31.407 433.909 30.028C433.909 28.117 432.474 26.71 430.57 26.71C428.561 26.71 427.126 28.047 427.126 30H428.624C428.61 28.985 429.422 28.103 430.542 28.103C431.627 28.103 432.404 28.929 432.404 30.007C432.404 30.581 432.194 31.127 431.487 31.757L427.098 35.691L427.091 36.993Z" fill="#D3D7E0"/>
<path d="M362 144V24" stroke="#D3D7E0" stroke-width="2" stroke-linecap="square" stroke-dasharray="6 6"/>
<path d="M470 144V24" stroke="#D3D7E0" stroke-width="2" stroke-linecap="square" stroke-dasharray="6 6"/>
<path d="M296.703 37H298.166V32.695H301.834V31.225H298.166V28.383H302.674V26.92H296.703V37ZM303.935 37H305.398V33.381H308.072L309.829 37H311.502L309.598 33.094C310.739 32.597 311.313 31.491 311.313 30.147C311.313 28.516 310.473 27.235 308.786 26.976C308.52 26.934 308.205 26.92 308.009 26.92H303.935V37ZM305.398 31.995V28.299H307.953C308.135 28.299 308.38 28.313 308.59 28.369C309.486 28.579 309.822 29.405 309.822 30.147C309.822 30.889 309.486 31.715 308.59 31.932C308.38 31.981 308.135 31.995 307.953 31.995H305.398ZM312.761 36.993H319.579V35.6H315.022L317.941 32.996C319.033 32.037 319.579 31.407 319.579 30.028C319.579 28.117 318.144 26.71 316.24 26.71C314.231 26.71 312.796 28.047 312.796 30H314.294C314.28 28.985 315.092 28.103 316.212 28.103C317.297 28.103 318.074 28.929 318.074 30.007C318.074 30.581 317.864 31.127 317.157 31.757L312.768 35.691L312.761 36.993Z" fill="#D3D7E0"/>
<path d="M254 144V24" stroke="#D3D7E0" stroke-width="2" stroke-linecap="square" stroke-dasharray="6 6"/>
<path d="M187.735 37.21C190.059 37.21 191.62 35.943 192.215 33.955L190.731 33.556C190.332 34.963 189.331 35.817 187.735 35.817C185.593 35.817 184.501 34.27 184.515 31.96C184.522 29.65 185.593 28.103 187.735 28.103C189.331 28.103 190.332 28.957 190.731 30.364L192.215 29.965C191.62 27.977 190.059 26.71 187.735 26.71C184.711 26.71 182.968 28.845 182.968 31.96C182.968 35.075 184.711 37.21 187.735 37.21ZM193.754 37H196.911C197.093 37 197.695 37 198.164 36.937C200.53 36.636 201.79 34.529 201.79 31.96C201.79 29.391 200.53 27.284 198.164 26.983C197.695 26.92 197.093 26.92 196.911 26.92H193.754V37ZM195.252 35.607V28.313H196.911C197.219 28.313 197.723 28.32 198.059 28.383C199.571 28.663 200.236 30.189 200.236 31.96C200.236 33.689 199.599 35.243 198.059 35.537C197.723 35.6 197.233 35.607 196.911 35.607H195.252ZM203.42 37H204.883V33.381H207.557L209.314 37H210.987L209.083 33.094C210.224 32.597 210.798 31.491 210.798 30.147C210.798 28.516 209.958 27.235 208.271 26.976C208.005 26.934 207.69 26.92 207.494 26.92H203.42V37ZM204.883 31.995V28.299H207.438C207.62 28.299 207.865 28.313 208.075 28.369C208.971 28.579 209.307 29.405 209.307 30.147C209.307 30.889 208.971 31.715 208.075 31.932C207.865 31.981 207.62 31.995 207.438 31.995H204.883ZM214.283 37H215.774V26.92H214.283L212.386 28.054V29.685L214.283 28.53V37Z" fill="#D3D7E0"/>
<path d="M146 144V24" stroke="#D3D7E0" stroke-width="2" stroke-linecap="square" stroke-dasharray="6 6"/>
<path d="M81.8579 37H83.3209V32.695H86.9889V31.225H83.3209V28.383H87.8289V26.92H81.8579V37ZM89.0904 37H90.5534V33.381H93.2274L94.9844 37H96.6574L94.7534 33.094C95.8944 32.597 96.4684 31.491 96.4684 30.147C96.4684 28.516 95.6284 27.235 93.9414 26.976C93.6754 26.934 93.3604 26.92 93.1644 26.92H89.0904V37ZM90.5534 31.995V28.299H93.1084C93.2904 28.299 93.5354 28.313 93.7454 28.369C94.6414 28.579 94.9774 29.405 94.9774 30.147C94.9774 30.889 94.6414 31.715 93.7454 31.932C93.5354 31.981 93.2904 31.995 93.1084 31.995H90.5534ZM99.9528 37H101.444V26.92H99.9528L98.0558 28.054V29.685L99.9528 28.53V37Z" fill="#D3D7E0"/>
<path d="M578 144V24" stroke="#D3D7E0" stroke-width="2" stroke-linecap="square" stroke-dasharray="6 6"/>
<path d="M512.805 37H514.268V32.695H517.936V31.225H514.268V28.383H518.776V26.92H512.805V37ZM520.038 37H521.501V33.381H524.175L525.932 37H527.605L525.701 33.094C526.842 32.597 527.416 31.491 527.416 30.147C527.416 28.516 526.576 27.235 524.889 26.976C524.623 26.934 524.308 26.92 524.112 26.92H520.038V37ZM521.501 31.995V28.299H524.056C524.238 28.299 524.483 28.313 524.693 28.369C525.589 28.579 525.925 29.405 525.925 30.147C525.925 30.889 525.589 31.715 524.693 31.932C524.483 31.981 524.238 31.995 524.056 31.995H521.501ZM531.964 37.189C533.847 37.189 535.331 35.796 535.331 33.871C535.331 32.233 534.323 30.924 532.692 30.707L535.184 28.313V26.92H529.122V28.313H533.392L530.312 31.036L530.998 32.191C531.285 32.037 531.628 31.939 531.95 31.939C533.07 31.939 533.833 32.751 533.833 33.871C533.833 34.984 533.07 35.789 531.964 35.803C531.138 35.81 530.403 35.341 530.137 34.466L528.723 34.858C529.15 36.293 530.466 37.189 531.964 37.189Z" fill="#D3D7E0"/>
<g filter="url(#filter0_i_5552_35137)">
<path d="M63 104H592.4C592.96 104 593.24 104 593.454 104.109C593.642 104.205 593.795 104.358 593.891 104.546C594 104.76 594 105.04 594 105.6V154.4C594 154.96 594 155.24 593.891 155.454C593.795 155.642 593.642 155.795 593.454 155.891C593.24 156 592.96 156 592.4 156H63L58 149.5L63 143L58 136L63 130L58 123.5L63 117L58 110.5L63 104Z" fill="#99E099"/>
</g>
<path d="M63 104H592.4C592.96 104 593.24 104 593.454 104.109C593.642 104.205 593.795 104.358 593.891 104.546C594 104.76 594 105.04 594 105.6V154.4C594 154.96 594 155.24 593.891 155.454C593.795 155.642 593.642 155.795 593.454 155.891C593.24 156 592.96 156 592.4 156H63L58 149.5L63 143L58 136L63 130L58 123.5L63 117L58 110.5L63 104Z" stroke="#110529" stroke-width="2" stroke-linecap="round"/>
<path d="M628.682 37.21C631.006 37.21 632.567 35.943 633.162 33.955L631.678 33.556C631.279 34.963 630.278 35.817 628.682 35.817C626.54 35.817 625.448 34.27 625.462 31.96C625.469 29.65 626.54 28.103 628.682 28.103C630.278 28.103 631.279 28.957 631.678 30.364L633.162 29.965C632.567 27.977 631.006 26.71 628.682 26.71C625.658 26.71 623.915 28.845 623.915 31.96C623.915 35.075 625.658 37.21 628.682 37.21ZM634.702 37H637.859C638.041 37 638.643 37 639.112 36.937C641.478 36.636 642.738 34.529 642.738 31.96C642.738 29.391 641.478 27.284 639.112 26.983C638.643 26.92 638.041 26.92 637.859 26.92H634.702V37ZM636.2 35.607V28.313H637.859C638.167 28.313 638.671 28.32 639.007 28.383C640.519 28.663 641.184 30.189 641.184 31.96C641.184 33.689 640.547 35.243 639.007 35.537C638.671 35.6 638.181 35.607 637.859 35.607H636.2ZM644.368 37H645.831V33.381H648.505L650.262 37H651.935L650.031 33.094C651.172 32.597 651.746 31.491 651.746 30.147C651.746 28.516 650.906 27.235 649.219 26.976C648.953 26.934 648.638 26.92 648.442 26.92H644.368V37ZM645.831 31.995V28.299H648.386C648.568 28.299 648.813 28.313 649.023 28.369C649.919 28.579 650.255 29.405 650.255 30.147C650.255 30.889 649.919 31.715 649.023 31.932C648.813 31.981 648.568 31.995 648.386 31.995H645.831ZM656.294 37.189C658.177 37.189 659.661 35.796 659.661 33.871C659.661 32.233 658.653 30.924 657.022 30.707L659.514 28.313V26.92H653.452V28.313H657.722L654.642 31.036L655.328 32.191C655.615 32.037 655.958 31.939 656.28 31.939C657.4 31.939 658.163 32.751 658.163 33.871C658.163 34.984 657.4 35.789 656.294 35.803C655.468 35.81 654.733 35.341 654.467 34.466L653.053 34.858C653.48 36.293 654.796 37.189 656.294 37.189Z" fill="#D3D7E0"/>
<path d="M705 144V24" stroke="#D3D7E0" stroke-width="2" stroke-linecap="square" stroke-dasharray="6 6"/>
<path d="M755.593 37H757.056V32.695H760.724V31.225H757.056V28.383H761.564V26.92H755.593V37ZM762.826 37H764.289V33.381H766.963L768.72 37H770.393L768.489 33.094C769.63 32.597 770.204 31.491 770.204 30.147C770.204 28.516 769.364 27.235 767.677 26.976C767.411 26.934 767.096 26.92 766.9 26.92H762.826V37ZM764.289 31.995V28.299H766.844C767.026 28.299 767.271 28.313 767.481 28.369C768.377 28.579 768.713 29.405 768.713 30.147C768.713 30.889 768.377 31.715 767.481 31.932C767.271 31.981 767.026 31.995 766.844 31.995H764.289ZM776.201 37H777.685V35.243H778.686V33.857H777.685V31.127H776.201V33.857H773.324L776.6 26.92H774.927L771.651 33.857V35.243H776.201V37Z" fill="#D3D7E0"/>
<path d="M828 144V24" stroke="#D3D7E0" stroke-width="2" stroke-linecap="square" stroke-dasharray="6 6"/>
<path d="M325.258 138H327.738L332.558 123.6H330.708L326.478 136.11L322.288 123.6H320.438L325.258 138Z" fill="#110529"/>
<g filter="url(#filter1_i_5552_35137)">
<rect x="690" y="104" width="138" height="52" rx="1" fill="#C1ADFF"/>
<path d="M758.244 138.29C759.694 138.29 760.954 137.7 761.684 136.43C762.214 135.51 762.154 134.72 762.154 133.48V123.6H760.354V133.48C760.354 134.37 760.354 134.99 760.094 135.51C759.704 136.29 758.884 136.6 758.204 136.6C757.134 136.6 756.224 135.83 756.014 134.85L754.244 135.27C754.754 137.11 756.224 138.29 758.244 138.29Z" fill="#110529"/>
<rect x="690" y="104" width="138" height="52" rx="1" stroke="#110529" stroke-width="2" stroke-linecap="round"/>
</g>
<path d="M29.4 192H31.18V186.68H35.39L37.97 192H40.01L37.23 186.29C38.86 185.61 39.71 184.04 39.71 182.14C39.71 179.85 38.48 178.04 36.15 177.68C35.78 177.62 35.37 177.6 35.09 177.6H29.4V192ZM31.18 184.99V179.29H35.03C35.28 179.29 35.63 179.31 35.93 179.38C37.31 179.69 37.89 180.94 37.89 182.14C37.89 183.34 37.31 184.59 35.93 184.9C35.63 184.97 35.28 184.99 35.03 184.99H31.18ZM44.7225 192H46.5325V177.6H44.7225L42.0125 179.22V181.21L44.7225 179.57V192Z" fill="#110529"/>
<path d="M57 176V192H67V200L81 184L67 168V176H57Z" fill="#110529"/>
<path d="M272.5 184H84" stroke="#110529" stroke-width="2" stroke-linecap="square"/>
<rect width="57" height="20" transform="translate(272.5 174)" fill="white"/>
<path d="M280.78 190.224C282.916 190.224 284.54 188.664 284.54 186.456C284.54 184.44 283.26 182.944 281.276 182.832L284.388 179.848V178.48H277.596V179.84H282.62L278.876 183.224L279.564 184.352C279.924 184.168 280.364 184.048 280.756 184.048C282.14 184.048 283.076 185.032 283.076 186.456C283.076 187.864 282.172 188.84 280.772 188.864C279.748 188.88 278.852 188.312 278.508 187.24L277.14 187.632C277.628 189.232 279.068 190.224 280.78 190.224ZM290.508 190.24C292.748 190.24 294.396 188.592 294.396 186.352V182.128C294.396 179.888 292.748 178.24 290.508 178.24C288.268 178.24 286.62 179.888 286.62 182.128V186.352C286.62 188.592 288.268 190.24 290.508 190.24ZM288.068 186.432V182.04C288.068 180.688 289.156 179.6 290.508 179.6C291.86 179.6 292.948 180.688 292.948 182.04V186.432C292.948 187.784 291.86 188.872 290.508 188.872C289.156 188.872 288.068 187.784 288.068 186.432ZM300.524 190.24C302.764 190.24 304.412 188.592 304.412 186.352V182.128C304.412 179.888 302.764 178.24 300.524 178.24C298.284 178.24 296.636 179.888 296.636 182.128V186.352C296.636 188.592 298.284 190.24 300.524 190.24ZM298.084 186.432V182.04C298.084 180.688 299.172 179.6 300.524 179.6C301.876 179.6 302.964 180.688 302.964 182.04V186.432C302.964 187.784 301.876 188.872 300.524 188.872C299.172 188.872 298.084 187.784 298.084 186.432ZM310.619 190.24C313.035 190.24 314.491 188.264 314.491 185.672C314.491 183.08 313.027 181.12 310.627 181.12C309.547 181.12 308.691 181.496 308.075 182.144V178.48H306.643V190H307.915V189.024C308.547 189.784 309.451 190.24 310.619 190.24ZM307.915 185.672C307.915 183.76 308.715 182.424 310.403 182.424C312.163 182.424 312.979 183.848 312.979 185.672C312.979 187.512 312.147 188.936 310.443 188.936C308.699 188.936 307.915 187.568 307.915 185.672ZM320.213 190.24C322.629 190.24 324.085 188.264 324.085 185.672C324.085 183.08 322.621 181.12 320.221 181.12C319.045 181.12 318.141 181.568 317.509 182.328V181.36H316.237V193.84H317.669V189.2C318.285 189.856 319.141 190.24 320.213 190.24ZM317.509 185.672C317.509 183.76 318.309 182.424 319.997 182.424C321.757 182.424 322.573 183.848 322.573 185.672C322.573 187.512 321.741 188.936 320.037 188.936C318.293 188.936 317.509 187.568 317.509 185.672Z" fill="#110529"/>
<path d="M518 184H329.5" stroke="#110529" stroke-width="2" stroke-linecap="square"/>
<path d="M528 184L528.707 183.293L529.414 184L528.707 184.707L528 184ZM520.707 192.707L520 193.414L518.586 192L519.293 191.293L520.707 192.707ZM519.293 176.707L518.586 176L520 174.586L520.707 175.293L519.293 176.707ZM518 183L528 183L528 185L518 185L518 183ZM528.707 184.707L520.707 192.707L519.293 191.293L527.293 183.293L528.707 184.707ZM527.293 184.707L519.293 176.707L520.707 175.293L528.707 183.293L527.293 184.707Z" fill="#110529"/>
<path d="M427 208L426.293 207.293L425.586 208L426.293 208.707L427 208ZM434.293 216.707L435 217.414L436.414 216L435.707 215.293L434.293 216.707ZM435.707 200.707L436.414 200L435 198.586L434.293 199.293L435.707 200.707ZM447 207L427 207L427 209L447 209L447 207ZM426.293 208.707L434.293 216.707L435.707 215.293L427.707 207.293L426.293 208.707ZM427.707 208.707L435.707 200.707L434.293 199.293L426.293 207.293L427.707 208.707Z" fill="#110529"/>
<path d="M442 208L625.5 208" stroke="#110529" stroke-width="2" stroke-linecap="square"/>
<rect width="57" height="20" transform="translate(625.5 198)" fill="white"/>
<path d="M633.78 214.224C635.916 214.224 637.54 212.664 637.54 210.456C637.54 208.44 636.26 206.944 634.276 206.832L637.388 203.848V202.48H630.596V203.84H635.62L631.876 207.224L632.564 208.352C632.924 208.168 633.364 208.048 633.756 208.048C635.14 208.048 636.076 209.032 636.076 210.456C636.076 211.864 635.172 212.84 633.772 212.864C632.748 212.88 631.852 212.312 631.508 211.24L630.14 211.632C630.628 213.232 632.068 214.224 633.78 214.224ZM643.508 214.24C645.748 214.24 647.396 212.592 647.396 210.352V206.128C647.396 203.888 645.748 202.24 643.508 202.24C641.268 202.24 639.62 203.888 639.62 206.128V210.352C639.62 212.592 641.268 214.24 643.508 214.24ZM641.068 210.432V206.04C641.068 204.688 642.156 203.6 643.508 203.6C644.86 203.6 645.948 204.688 645.948 206.04V210.432C645.948 211.784 644.86 212.872 643.508 212.872C642.156 212.872 641.068 211.784 641.068 210.432ZM653.524 214.24C655.764 214.24 657.412 212.592 657.412 210.352V206.128C657.412 203.888 655.764 202.24 653.524 202.24C651.284 202.24 649.636 203.888 649.636 206.128V210.352C649.636 212.592 651.284 214.24 653.524 214.24ZM651.084 210.432V206.04C651.084 204.688 652.172 203.6 653.524 203.6C654.876 203.6 655.964 204.688 655.964 206.04V210.432C655.964 211.784 654.876 212.872 653.524 212.872C652.172 212.872 651.084 211.784 651.084 210.432ZM663.619 214.24C666.035 214.24 667.491 212.264 667.491 209.672C667.491 207.08 666.027 205.12 663.627 205.12C662.547 205.12 661.691 205.496 661.075 206.144V202.48H659.643V214H660.915V213.024C661.547 213.784 662.451 214.24 663.619 214.24ZM660.915 209.672C660.915 207.76 661.715 206.424 663.403 206.424C665.163 206.424 665.979 207.848 665.979 209.672C665.979 211.512 665.147 212.936 663.443 212.936C661.699 212.936 660.915 211.568 660.915 209.672ZM673.213 214.24C675.629 214.24 677.085 212.264 677.085 209.672C677.085 207.08 675.621 205.12 673.221 205.12C672.045 205.12 671.141 205.568 670.509 206.328V205.36H669.237V217.84H670.669V213.2C671.285 213.856 672.141 214.24 673.213 214.24ZM670.509 209.672C670.509 207.76 671.309 206.424 672.997 206.424C674.757 206.424 675.573 207.848 675.573 209.672C675.573 211.512 674.741 212.936 673.037 212.936C671.293 212.936 670.509 211.568 670.509 209.672Z" fill="#110529"/>
<path d="M682.5 208L866 208" stroke="#110529" stroke-width="2" stroke-linecap="square"/>
<path d="M893 200V216H883V224L869 208L883 192V200H893Z" fill="#110529"/>
<path d="M902.4 216H904.18V210.68H908.39L910.97 216H913.01L910.23 210.29C911.86 209.61 912.71 208.04 912.71 206.14C912.71 203.85 911.48 202.04 909.15 201.68C908.78 201.62 908.37 201.6 908.09 201.6H902.4V216ZM904.18 208.99V203.29H908.03C908.28 203.29 908.63 203.31 908.93 203.38C910.31 203.69 910.89 204.94 910.89 206.14C910.89 207.34 910.31 208.59 908.93 208.9C908.63 208.97 908.28 208.99 908.03 208.99H904.18ZM914.813 215.99H924.383V214.29H917.553L922.193 210.12C923.673 208.81 924.383 207.86 924.383 205.97C924.383 203.32 922.363 201.3 919.692 201.3C916.923 201.3 914.883 203.23 914.883 205.94H916.703C916.683 204.37 917.943 203 919.663 203C921.323 203 922.563 204.29 922.563 205.95C922.563 206.86 922.273 207.69 921.213 208.64L914.823 214.39L914.813 215.99Z" fill="#110529"/>
<g filter="url(#filter2_i_5552_35137)">
<path d="M892 104H829.6C829.04 104 828.76 104 828.546 104.109C828.358 104.205 828.205 104.358 828.109 104.546C828 104.76 828 105.04 828 105.6V154.4C828 154.96 828 155.24 828.109 155.454C828.205 155.642 828.358 155.795 828.546 155.891C828.76 156 829.04 156 829.6 156H892L887 149.5L892 143L887 136L892 130L887 123.5L892 117L887 110.5L892 104Z" fill="#FAFAAA"/>
</g>
<path d="M892 104H829.6C829.04 104 828.76 104 828.546 104.109C828.358 104.205 828.205 104.358 828.109 104.546C828 104.76 828 105.04 828 105.6V154.4C828 154.96 828 155.24 828.109 155.454C828.205 155.642 828.358 155.795 828.546 155.891C828.76 156 829.04 156 829.6 156H892L887 149.5L892 143L887 136L892 130L887 123.5L892 117L887 110.5L892 104Z" stroke="#110529" stroke-width="2" stroke-linecap="round"/>
<path d="M860.593 138.3C863.923 138.3 866.113 136.47 866.933 133.61L865.123 133.13C864.533 135.27 863.023 136.6 860.593 136.6C857.373 136.6 855.733 134.25 855.753 130.8C855.773 127.35 857.373 125 860.593 125C863.023 125 864.533 126.33 865.123 128.47L866.933 127.99C866.113 125.13 863.923 123.3 860.593 123.3C856.283 123.3 853.873 126.36 853.873 130.8C853.873 135.24 856.283 138.3 860.593 138.3Z" fill="#110529"/>
<g filter="url(#filter3_i_5552_35137)">
<rect x="594" y="104" width="30" height="52" rx="1" fill="#CBEB67"/>
</g>
<rect x="594" y="104" width="30" height="52" rx="1" stroke="#110529" stroke-width="2" stroke-linecap="round"/>
<g filter="url(#filter4_i_5552_35137)">
<rect x="660" y="104" width="30" height="52" rx="1" fill="#FAAAFA"/>
</g>
<rect x="660" y="104" width="30" height="52" rx="1" stroke="#110529" stroke-width="2" stroke-linecap="round"/>
<g filter="url(#filter5_i_5552_35137)">
<rect x="624" y="104" width="36" height="52" rx="1" fill="#FFCB8F"/>
</g>
<rect x="624" y="104" width="36" height="52" rx="1" stroke="#110529" stroke-width="2" stroke-linecap="round"/>
<path d="M603.447 138H605.247V126.74L612.757 138H614.557V123.6H612.757V134.85L605.247 123.6H603.447V138Z" fill="#110529"/>
<path d="M669.447 138H671.247V126.74L678.757 138H680.557V123.6H678.757V134.85L671.247 123.6H669.447V138Z" fill="#110529"/>
<path d="M636.593 138H641.033C641.303 138 642.183 138 642.853 137.91C646.183 137.47 647.913 134.48 647.913 130.8C647.913 127.13 646.183 124.13 642.853 123.69C642.173 123.6 641.313 123.6 641.033 123.6H636.593V138ZM638.423 136.3V125.3H641.033C641.513 125.3 642.233 125.32 642.703 125.41C645.033 125.83 646.023 128.08 646.023 130.8C646.023 133.47 645.063 135.76 642.703 136.19C642.233 136.28 641.533 136.3 641.033 136.3H638.423Z" fill="#110529"/>
<defs>
<filter id="filter0_i_5552_35137" x="56.7375" y="103" width="538.262" height="54" filterUnits="userSpaceOnUse" color-interpolation-filters="sRGB">
<feFlood flood-opacity="0" result="BackgroundImageFix"/>
<feBlend mode="normal" in="SourceGraphic" in2="BackgroundImageFix" result="shape"/>
<feColorMatrix in="SourceAlpha" type="matrix" values="0 0 0 0 0 0 0 0 0 0 0 0 0 0 0 0 0 0 127 0" result="hardAlpha"/>
<feOffset dx="-8" dy="-4"/>
<feComposite in2="hardAlpha" operator="arithmetic" k2="-1" k3="1"/>
<feColorMatrix type="matrix" values="0 0 0 0 0.0666667 0 0 0 0 0.0196078 0 0 0 0 0.160784 0 0 0 0.16 0"/>
<feBlend mode="normal" in2="shape" result="effect1_innerShadow_5552_35137"/>
</filter>
<filter id="filter1_i_5552_35137" x="689" y="103" width="140" height="54" filterUnits="userSpaceOnUse" color-interpolation-filters="sRGB">
<feFlood flood-opacity="0" result="BackgroundImageFix"/>
<feBlend mode="normal" in="SourceGraphic" in2="BackgroundImageFix" result="shape"/>
<feColorMatrix in="SourceAlpha" type="matrix" values="0 0 0 0 0 0 0 0 0 0 0 0 0 0 0 0 0 0 127 0" result="hardAlpha"/>
<feOffset dx="-8" dy="-4"/>
<feComposite in2="hardAlpha" operator="arithmetic" k2="-1" k3="1"/>
<feColorMatrix type="matrix" values="0 0 0 0 0.0666667 0 0 0 0 0.0196078 0 0 0 0 0.160784 0 0 0 0.16 0"/>
<feBlend mode="normal" in2="shape" result="effect1_innerShadow_5552_35137"/>
</filter>
<filter id="filter2_i_5552_35137" x="827" y="103" width="67.0308" height="54" filterUnits="userSpaceOnUse" color-interpolation-filters="sRGB">
<feFlood flood-opacity="0" result="BackgroundImageFix"/>
<feBlend mode="normal" in="SourceGraphic" in2="BackgroundImageFix" result="shape"/>
<feColorMatrix in="SourceAlpha" type="matrix" values="0 0 0 0 0 0 0 0 0 0 0 0 0 0 0 0 0 0 127 0" result="hardAlpha"/>
<feOffset dx="-8" dy="-4"/>
<feComposite in2="hardAlpha" operator="arithmetic" k2="-1" k3="1"/>
<feColorMatrix type="matrix" values="0 0 0 0 0.0666667 0 0 0 0 0.0196078 0 0 0 0 0.160784 0 0 0 0.16 0"/>
<feBlend mode="normal" in2="shape" result="effect1_innerShadow_5552_35137"/>
</filter>
<filter id="filter3_i_5552_35137" x="593" y="103" width="32" height="54" filterUnits="userSpaceOnUse" color-interpolation-filters="sRGB">
<feFlood flood-opacity="0" result="BackgroundImageFix"/>
<feBlend mode="normal" in="SourceGraphic" in2="BackgroundImageFix" result="shape"/>
<feColorMatrix in="SourceAlpha" type="matrix" values="0 0 0 0 0 0 0 0 0 0 0 0 0 0 0 0 0 0 127 0" result="hardAlpha"/>
<feOffset dx="-8" dy="-4"/>
<feComposite in2="hardAlpha" operator="arithmetic" k2="-1" k3="1"/>
<feColorMatrix type="matrix" values="0 0 0 0 0.0666667 0 0 0 0 0.0196078 0 0 0 0 0.160784 0 0 0 0.16 0"/>
<feBlend mode="normal" in2="shape" result="effect1_innerShadow_5552_35137"/>
</filter>
<filter id="filter4_i_5552_35137" x="659" y="103" width="32" height="54" filterUnits="userSpaceOnUse" color-interpolation-filters="sRGB">
<feFlood flood-opacity="0" result="BackgroundImageFix"/>
<feBlend mode="normal" in="SourceGraphic" in2="BackgroundImageFix" result="shape"/>
<feColorMatrix in="SourceAlpha" type="matrix" values="0 0 0 0 0 0 0 0 0 0 0 0 0 0 0 0 0 0 127 0" result="hardAlpha"/>
<feOffset dx="-8" dy="-4"/>
<feComposite in2="hardAlpha" operator="arithmetic" k2="-1" k3="1"/>
<feColorMatrix type="matrix" values="0 0 0 0 0.0666667 0 0 0 0 0.0196078 0 0 0 0 0.160784 0 0 0 0.16 0"/>
<feBlend mode="normal" in2="shape" result="effect1_innerShadow_5552_35137"/>
</filter>
<filter id="filter5_i_5552_35137" x="623" y="103" width="38" height="54" filterUnits="userSpaceOnUse" color-interpolation-filters="sRGB">
<feFlood flood-opacity="0" result="BackgroundImageFix"/>
<feBlend mode="normal" in="SourceGraphic" in2="BackgroundImageFix" result="shape"/>
<feColorMatrix in="SourceAlpha" type="matrix" values="0 0 0 0 0 0 0 0 0 0 0 0 0 0 0 0 0 0 127 0" result="hardAlpha"/>
<feOffset dx="-8" dy="-4"/>
<feComposite in2="hardAlpha" operator="arithmetic" k2="-1" k3="1"/>
<feColorMatrix type="matrix" values="0 0 0 0 0.0666667 0 0 0 0 0.0196078 0 0 0 0 0.160784 0 0 0 0.16 0"/>
<feBlend mode="normal" in2="shape" result="effect1_innerShadow_5552_35137"/>
</filter>
</defs>
</svg>
