<svg width="960" height="220" viewBox="0 0 960 220" fill="none" xmlns="http://www.w3.org/2000/svg">
    <rect width="960" height="220" fill="#1D1D29"/>
    <path d="M83.8579 37H85.3209V32.695H88.9889V31.225H85.3209V28.383H89.8289V26.92H83.8579V37ZM91.0904 37H92.5534V33.381H95.2274L96.9844 37H98.6574L96.7534 33.094C97.8944 32.597 98.4684 31.491 98.4684 30.147C98.4684 28.516 97.6284 27.235 95.9414 26.976C95.6754 26.934 95.3604 26.92 95.1644 26.92H91.0904V37ZM92.5534 31.995V28.299H95.1084C95.2904 28.299 95.5354 28.313 95.7454 28.369C96.6414 28.579 96.9774 29.405 96.9774 30.147C96.9774 30.889 96.6414 31.715 95.7454 31.932C95.5354 31.981 95.2904 31.995 95.1084 31.995H92.5534ZM101.953 37H103.444V26.92H101.953L100.056 28.054V29.685L101.953 28.53V37Z" fill="white" fill-opacity="0.3"/>
    <path d="M148 112V24" stroke="white" stroke-opacity="0.3" stroke-width="2" stroke-linecap="square" stroke-dasharray="6 6"/>
    <path d="M189.735 37.21C192.059 37.21 193.62 35.943 194.215 33.955L192.731 33.556C192.332 34.963 191.331 35.817 189.735 35.817C187.593 35.817 186.501 34.27 186.515 31.96C186.522 29.65 187.593 28.103 189.735 28.103C191.331 28.103 192.332 28.957 192.731 30.364L194.215 29.965C193.62 27.977 192.059 26.71 189.735 26.71C186.711 26.71 184.968 28.845 184.968 31.96C184.968 35.075 186.711 37.21 189.735 37.21ZM195.754 37H198.911C199.093 37 199.695 37 200.164 36.937C202.53 36.636 203.79 34.529 203.79 31.96C203.79 29.391 202.53 27.284 200.164 26.983C199.695 26.92 199.093 26.92 198.911 26.92H195.754V37ZM197.252 35.607V28.313H198.911C199.219 28.313 199.723 28.32 200.059 28.383C201.571 28.663 202.236 30.189 202.236 31.96C202.236 33.689 201.599 35.243 200.059 35.537C199.723 35.6 199.233 35.607 198.911 35.607H197.252ZM205.42 37H206.883V33.381H209.557L211.314 37H212.987L211.083 33.094C212.224 32.597 212.798 31.491 212.798 30.147C212.798 28.516 211.958 27.235 210.271 26.976C210.005 26.934 209.69 26.92 209.494 26.92H205.42V37ZM206.883 31.995V28.299H209.438C209.62 28.299 209.865 28.313 210.075 28.369C210.971 28.579 211.307 29.405 211.307 30.147C211.307 30.889 210.971 31.715 210.075 31.932C209.865 31.981 209.62 31.995 209.438 31.995H206.883ZM216.283 37H217.774V26.92H216.283L214.386 28.054V29.685L216.283 28.53V37Z" fill="white" fill-opacity="0.3"/>
    <path d="M256 112V24" stroke="white" stroke-opacity="0.3" stroke-width="2" stroke-linecap="square" stroke-dasharray="6 6"/>
    <path d="M298.703 37H300.166V32.695H303.834V31.225H300.166V28.383H304.674V26.92H298.703V37ZM305.935 37H307.398V33.381H310.072L311.829 37H313.502L311.598 33.094C312.739 32.597 313.313 31.491 313.313 30.147C313.313 28.516 312.473 27.235 310.786 26.976C310.52 26.934 310.205 26.92 310.009 26.92H305.935V37ZM307.398 31.995V28.299H309.953C310.135 28.299 310.38 28.313 310.59 28.369C311.486 28.579 311.822 29.405 311.822 30.147C311.822 30.889 311.486 31.715 310.59 31.932C310.38 31.981 310.135 31.995 309.953 31.995H307.398ZM314.761 36.993H321.579V35.6H317.022L319.941 32.996C321.033 32.037 321.579 31.407 321.579 30.028C321.579 28.117 320.144 26.71 318.24 26.71C316.231 26.71 314.796 28.047 314.796 30H316.294C316.28 28.985 317.092 28.103 318.212 28.103C319.297 28.103 320.074 28.929 320.074 30.007C320.074 30.581 319.864 31.127 319.157 31.757L314.768 35.691L314.761 36.993Z" fill="white" fill-opacity="0.3"/>
    <path d="M364 112V24" stroke="white" stroke-opacity="0.3" stroke-width="2" stroke-linecap="square" stroke-dasharray="6 6"/>
    <path d="M404.58 37.21C406.904 37.21 408.465 35.943 409.06 33.955L407.576 33.556C407.177 34.963 406.176 35.817 404.58 35.817C402.438 35.817 401.346 34.27 401.36 31.96C401.367 29.65 402.438 28.103 404.58 28.103C406.176 28.103 407.177 28.957 407.576 30.364L409.06 29.965C408.465 27.977 406.904 26.71 404.58 26.71C401.556 26.71 399.813 28.845 399.813 31.96C399.813 35.075 401.556 37.21 404.58 37.21ZM410.599 37H413.756C413.938 37 414.54 37 415.009 36.937C417.375 36.636 418.635 34.529 418.635 31.96C418.635 29.391 417.375 27.284 415.009 26.983C414.54 26.92 413.938 26.92 413.756 26.92H410.599V37ZM412.097 35.607V28.313H413.756C414.064 28.313 414.568 28.32 414.904 28.383C416.416 28.663 417.081 30.189 417.081 31.96C417.081 33.689 416.444 35.243 414.904 35.537C414.568 35.6 414.078 35.607 413.756 35.607H412.097ZM420.265 37H421.728V33.381H424.402L426.159 37H427.832L425.928 33.094C427.069 32.597 427.643 31.491 427.643 30.147C427.643 28.516 426.803 27.235 425.116 26.976C424.85 26.934 424.535 26.92 424.339 26.92H420.265V37ZM421.728 31.995V28.299H424.283C424.465 28.299 424.71 28.313 424.92 28.369C425.816 28.579 426.152 29.405 426.152 30.147C426.152 30.889 425.816 31.715 424.92 31.932C424.71 31.981 424.465 31.995 424.283 31.995H421.728ZM429.091 36.993H435.909V35.6H431.352L434.271 32.996C435.363 32.037 435.909 31.407 435.909 30.028C435.909 28.117 434.474 26.71 432.57 26.71C430.561 26.71 429.126 28.047 429.126 30H430.624C430.61 28.985 431.422 28.103 432.542 28.103C433.627 28.103 434.404 28.929 434.404 30.007C434.404 30.581 434.194 31.127 433.487 31.757L429.098 35.691L429.091 36.993Z" fill="white" fill-opacity="0.3"/>
    <path d="M472 112V24" stroke="white" stroke-opacity="0.3" stroke-width="2" stroke-linecap="square" stroke-dasharray="6 6"/>
    <path d="M514.805 37H516.268V32.695H519.936V31.225H516.268V28.383H520.776V26.92H514.805V37ZM522.038 37H523.501V33.381H526.175L527.932 37H529.605L527.701 33.094C528.842 32.597 529.416 31.491 529.416 30.147C529.416 28.516 528.576 27.235 526.889 26.976C526.623 26.934 526.308 26.92 526.112 26.92H522.038V37ZM523.501 31.995V28.299H526.056C526.238 28.299 526.483 28.313 526.693 28.369C527.589 28.579 527.925 29.405 527.925 30.147C527.925 30.889 527.589 31.715 526.693 31.932C526.483 31.981 526.238 31.995 526.056 31.995H523.501ZM533.964 37.189C535.847 37.189 537.331 35.796 537.331 33.871C537.331 32.233 536.323 30.924 534.692 30.707L537.184 28.313V26.92H531.122V28.313H535.392L532.312 31.036L532.998 32.191C533.285 32.037 533.628 31.939 533.95 31.939C535.07 31.939 535.833 32.751 535.833 33.871C535.833 34.984 535.07 35.789 533.964 35.803C533.138 35.81 532.403 35.341 532.137 34.466L530.723 34.858C531.15 36.293 532.466 37.189 533.964 37.189Z" fill="white" fill-opacity="0.3"/>
    <path d="M580 112V24" stroke="white" stroke-opacity="0.3" stroke-width="2" stroke-linecap="square" stroke-dasharray="6 6"/>
    <path d="M626.682 37.21C629.006 37.21 630.567 35.943 631.162 33.955L629.678 33.556C629.279 34.963 628.278 35.817 626.682 35.817C624.54 35.817 623.448 34.27 623.462 31.96C623.469 29.65 624.54 28.103 626.682 28.103C628.278 28.103 629.279 28.957 629.678 30.364L631.162 29.965C630.567 27.977 629.006 26.71 626.682 26.71C623.658 26.71 621.915 28.845 621.915 31.96C621.915 35.075 623.658 37.21 626.682 37.21ZM632.702 37H635.859C636.041 37 636.643 37 637.112 36.937C639.478 36.636 640.738 34.529 640.738 31.96C640.738 29.391 639.478 27.284 637.112 26.983C636.643 26.92 636.041 26.92 635.859 26.92H632.702V37ZM634.2 35.607V28.313H635.859C636.167 28.313 636.671 28.32 637.007 28.383C638.519 28.663 639.184 30.189 639.184 31.96C639.184 33.689 638.547 35.243 637.007 35.537C636.671 35.6 636.181 35.607 635.859 35.607H634.2ZM642.368 37H643.831V33.381H646.505L648.262 37H649.935L648.031 33.094C649.172 32.597 649.746 31.491 649.746 30.147C649.746 28.516 648.906 27.235 647.219 26.976C646.953 26.934 646.638 26.92 646.442 26.92H642.368V37ZM643.831 31.995V28.299H646.386C646.568 28.299 646.813 28.313 647.023 28.369C647.919 28.579 648.255 29.405 648.255 30.147C648.255 30.889 647.919 31.715 647.023 31.932C646.813 31.981 646.568 31.995 646.386 31.995H643.831ZM654.294 37.189C656.177 37.189 657.661 35.796 657.661 33.871C657.661 32.233 656.653 30.924 655.022 30.707L657.514 28.313V26.92H651.452V28.313H655.722L652.642 31.036L653.328 32.191C653.615 32.037 653.958 31.939 654.28 31.939C655.4 31.939 656.163 32.751 656.163 33.871C656.163 34.984 655.4 35.789 654.294 35.803C653.468 35.81 652.733 35.341 652.467 34.466L651.053 34.858C651.48 36.293 652.796 37.189 654.294 37.189Z" fill="white" fill-opacity="0.3"/>
    <path d="M700 112V24" stroke="white" stroke-opacity="0.3" stroke-width="2" stroke-linecap="square" stroke-dasharray="6 6"/>
    <path d="M748.593 37H750.056V32.695H753.724V31.225H750.056V28.383H754.564V26.92H748.593V37ZM755.826 37H757.289V33.381H759.963L761.72 37H763.393L761.489 33.094C762.63 32.597 763.204 31.491 763.204 30.147C763.204 28.516 762.364 27.235 760.677 26.976C760.411 26.934 760.096 26.92 759.9 26.92H755.826V37ZM757.289 31.995V28.299H759.844C760.026 28.299 760.271 28.313 760.481 28.369C761.377 28.579 761.713 29.405 761.713 30.147C761.713 30.889 761.377 31.715 760.481 31.932C760.271 31.981 760.026 31.995 759.844 31.995H757.289ZM769.201 37H770.685V35.243H771.686V33.857H770.685V31.127H769.201V33.857H766.324L769.6 26.92H767.927L764.651 33.857V35.243H769.201V37Z" fill="white" fill-opacity="0.3"/>
    <path d="M820 112V24" stroke="white" stroke-opacity="0.3" stroke-width="2" stroke-linecap="square" stroke-dasharray="6 6"/>
    <g filter="url(#filter0_i_5931_37502)">
        <path d="M69 84H590.4C590.96 84 591.24 84 591.454 84.109C591.642 84.2049 591.795 84.3578 591.891 84.546C592 84.7599 592 85.0399 592 85.6V134.4C592 134.96 592 135.24 591.891 135.454C591.795 135.642 591.642 135.795 591.454 135.891C591.24 136 590.96 136 590.4 136H69L64 129.5L69 123L64 116L69 110L64 103.5L69 97L64 90.5L69 84Z" fill="#99E099"/>
    </g>
    <path d="M69 84H590.4C590.96 84 591.24 84 591.454 84.109C591.642 84.2049 591.795 84.3578 591.891 84.546C592 84.7599 592 85.0399 592 85.6V134.4C592 134.96 592 135.24 591.891 135.454C591.795 135.642 591.642 135.795 591.454 135.891C591.24 136 590.96 136 590.4 136H69L64 129.5L69 123L64 116L69 110L64 103.5L69 97L64 90.5L69 84Z" stroke="#110529" stroke-width="2" stroke-linecap="round"/>
    <path d="M317.258 118H319.738L324.558 103.6H322.708L318.478 116.11L314.288 103.6H312.438L317.258 118Z" fill="#110529"/>
    <g filter="url(#filter1_i_5931_37502)">
        <rect x="592" y="84" width="30" height="52" rx="1" fill="#CBEB67"/>
    </g>
    <rect x="592" y="84" width="30" height="52" rx="1" stroke="#110529" stroke-width="2" stroke-linecap="round"/>
    <g filter="url(#filter2_i_5931_37502)">
        <rect x="658" y="84" width="30" height="52" rx="1" fill="#FAAAFA"/>
    </g>
    <rect x="658" y="84" width="30" height="52" rx="1" stroke="#110529" stroke-width="2" stroke-linecap="round"/>
    <g filter="url(#filter3_i_5931_37502)">
        <rect x="622" y="84" width="36" height="52" rx="1" fill="#FFCB8F"/>
    </g>
    <rect x="622" y="84" width="36" height="52" rx="1" stroke="#110529" stroke-width="2" stroke-linecap="round"/>
    <path d="M601.447 118H603.247V106.74L610.757 118H612.557V103.6H610.757V114.85L603.247 103.6H601.447V118Z" fill="#110529"/>
    <path d="M667.447 118H669.247V106.74L676.757 118H678.557V103.6H676.757V114.85L669.247 103.6H667.447V118Z" fill="#110529"/>
    <path d="M634.593 118H639.033C639.303 118 640.183 118 640.853 117.91C644.183 117.47 645.913 114.48 645.913 110.8C645.913 107.13 644.183 104.13 640.853 103.69C640.173 103.6 639.313 103.6 639.033 103.6H634.593V118ZM636.423 116.3V105.3H639.033C639.513 105.3 640.233 105.32 640.703 105.41C643.033 105.83 644.023 108.08 644.023 110.8C644.023 113.47 643.063 115.76 640.703 116.19C640.233 116.28 639.533 116.3 639.033 116.3H636.423Z" fill="#110529"/>
    <g filter="url(#filter4_i_5931_37502)">
        <rect x="688" y="84" width="132" height="52" rx="1" fill="#C1ADFF"/>
        <path d="M753.244 118.29C754.694 118.29 755.954 117.7 756.684 116.43C757.214 115.51 757.154 114.72 757.154 113.48V103.6H755.354V113.48C755.354 114.37 755.354 114.99 755.094 115.51C754.704 116.29 753.884 116.6 753.204 116.6C752.134 116.6 751.224 115.83 751.014 114.85L749.244 115.27C749.754 117.11 751.224 118.29 753.244 118.29Z" fill="#110529"/>
        <rect x="688" y="84" width="132" height="52" rx="1" stroke="#110529" stroke-width="2" stroke-linecap="round"/>
    </g>
    <g filter="url(#filter5_i_5931_37502)">
        <path d="M884 84H821.6C821.04 84 820.76 84 820.546 84.109C820.358 84.2049 820.205 84.3578 820.109 84.546C820 84.7599 820 85.0399 820 85.6V134.4C820 134.96 820 135.24 820.109 135.454C820.205 135.642 820.358 135.795 820.546 135.891C820.76 136 821.04 136 821.6 136H884L879 129.5L884 123L879 116L884 110L879 103.5L884 97L879 90.5L884 84Z" fill="#FAFAAA"/>
    </g>
    <path d="M884 84H821.6C821.04 84 820.76 84 820.546 84.109C820.358 84.2049 820.205 84.3578 820.109 84.546C820 84.7599 820 85.0399 820 85.6V134.4C820 134.96 820 135.24 820.109 135.454C820.205 135.642 820.358 135.795 820.546 135.891C820.76 136 821.04 136 821.6 136H884L879 129.5L884 123L879 116L884 110L879 103.5L884 97L879 90.5L884 84Z" stroke="#110529" stroke-width="2" stroke-linecap="round"/>
    <path d="M852.593 118.3C855.923 118.3 858.113 116.47 858.933 113.61L857.123 113.13C856.533 115.27 855.023 116.6 852.593 116.6C849.373 116.6 847.733 114.25 847.753 110.8C847.773 107.35 849.373 105 852.593 105C855.023 105 856.533 106.33 857.123 108.47L858.933 107.99C858.113 105.13 855.923 103.3 852.593 103.3C848.283 103.3 845.873 106.36 845.873 110.8C845.873 115.24 848.283 118.3 852.593 118.3Z" fill="#110529"/>
    <path d="M420 184L419.293 184.707L418.586 184L419.293 183.293L420 184ZM427.293 175.293L428 174.586L429.414 176L428.707 176.707L427.293 175.293ZM428.707 191.293L429.414 192L428 193.414L427.293 192.707L428.707 191.293ZM430 185L420 185L420 183L430 183L430 185ZM419.293 183.293L427.293 175.293L428.707 176.707L420.707 184.707L419.293 183.293ZM420.707 183.293L428.707 191.293L427.293 192.707L419.293 184.707L420.707 183.293Z" fill="#D3D7E0"/>
    <path d="M612.5 184H430" stroke="#D3D7E0" stroke-width="2"/>
    <rect width="57" height="20" transform="translate(612.5 174)" fill="#1D1D29"/>
    <path d="M621.171 190.224C623.307 190.224 624.931 188.664 624.931 186.456C624.931 184.44 623.651 182.944 621.667 182.832L624.779 179.848V178.48H617.987V179.84H623.011L619.267 183.224L619.955 184.352C620.315 184.168 620.755 184.048 621.147 184.048C622.531 184.048 623.467 185.032 623.467 186.456C623.467 187.864 622.563 188.84 621.163 188.864C620.139 188.88 619.243 188.312 618.899 187.24L617.531 187.632C618.019 189.232 619.459 190.224 621.171 190.224ZM630.899 190.24C633.139 190.24 634.787 188.592 634.787 186.352V182.128C634.787 179.888 633.139 178.24 630.899 178.24C628.659 178.24 627.011 179.888 627.011 182.128V186.352C627.011 188.592 628.659 190.24 630.899 190.24ZM628.459 186.432V182.04C628.459 180.688 629.547 179.6 630.899 179.6C632.251 179.6 633.339 180.688 633.339 182.04V186.432C633.339 187.784 632.251 188.872 630.899 188.872C629.547 188.872 628.459 187.784 628.459 186.432ZM640.914 190.24C643.154 190.24 644.802 188.592 644.802 186.352V182.128C644.802 179.888 643.154 178.24 640.914 178.24C638.674 178.24 637.026 179.888 637.026 182.128V186.352C637.026 188.592 638.674 190.24 640.914 190.24ZM638.474 186.432V182.04C638.474 180.688 639.562 179.6 640.914 179.6C642.266 179.6 643.354 180.688 643.354 182.04V186.432C643.354 187.784 642.266 188.872 640.914 188.872C639.562 188.872 638.474 187.784 638.474 186.432ZM651.01 190.24C653.426 190.24 654.882 188.264 654.882 185.672C654.882 183.08 653.418 181.12 651.018 181.12C649.938 181.12 649.082 181.496 648.466 182.144V178.48H647.034V190H648.306V189.024C648.938 189.784 649.842 190.24 651.01 190.24ZM648.306 185.672C648.306 183.76 649.106 182.424 650.794 182.424C652.554 182.424 653.37 183.848 653.37 185.672C653.37 187.512 652.538 188.936 650.834 188.936C649.09 188.936 648.306 187.568 648.306 185.672ZM660.604 190.24C663.02 190.24 664.476 188.264 664.476 185.672C664.476 183.08 663.012 181.12 660.612 181.12C659.436 181.12 658.532 181.568 657.9 182.328V181.36H656.628V193.84H658.06V189.2C658.676 189.856 659.532 190.24 660.604 190.24ZM657.9 185.672C657.9 183.76 658.7 182.424 660.388 182.424C662.148 182.424 662.964 183.848 662.964 185.672C662.964 187.512 662.132 188.936 660.428 188.936C658.684 188.936 657.9 187.568 657.9 185.672Z" fill="white"/>
    <path d="M852 184H669.5" stroke="#D3D7E0" stroke-width="2"/>
    <path d="M859.12 190H860.544V185.744H863.912L865.976 190H867.608L865.384 185.432C866.688 184.888 867.368 183.632 867.368 182.112C867.368 180.28 866.384 178.832 864.52 178.544C864.224 178.496 863.896 178.48 863.672 178.48H859.12V190ZM860.544 184.392V179.832H863.624C863.824 179.832 864.104 179.848 864.344 179.904C865.448 180.152 865.912 181.152 865.912 182.112C865.912 183.072 865.448 184.072 864.344 184.32C864.104 184.376 863.824 184.392 863.624 184.392H860.544ZM869.05 189.992H876.706V188.632H871.242L874.954 185.296C876.138 184.248 876.706 183.488 876.706 181.976C876.706 179.856 875.09 178.24 872.954 178.24C870.738 178.24 869.106 179.784 869.106 181.952H870.562C870.546 180.696 871.554 179.6 872.93 179.6C874.258 179.6 875.25 180.632 875.25 181.96C875.25 182.688 875.018 183.352 874.17 184.112L869.058 188.712L869.05 189.992Z" fill="white"/>
    <rect x="852" y="172" width="32" height="24" rx="1" stroke="#D3D7E0" stroke-width="2"/>
    <path d="M72.62 166H74.044V161.744H77.412L79.476 166H81.108L78.884 161.432C80.188 160.888 80.868 159.632 80.868 158.112C80.868 156.28 79.884 154.832 78.02 154.544C77.724 154.496 77.396 154.48 77.172 154.48H72.62V166ZM74.044 160.392V155.832H77.124C77.324 155.832 77.604 155.848 77.844 155.904C78.948 156.152 79.412 157.152 79.412 158.112C79.412 159.072 78.948 160.072 77.844 160.32C77.604 160.376 77.324 160.392 77.124 160.392H74.044ZM84.878 166H86.326V154.48H84.878L82.71 155.776V157.368L84.878 156.056V166Z" fill="white"/>
    <rect x="64" y="148" width="32" height="24" rx="1" stroke="#D3D7E0" stroke-width="2"/>
    <path d="M278.5 160H96" stroke="#D3D7E0" stroke-width="2"/>
    <rect width="57" height="20" transform="translate(278.5 150)" fill="#1D1D29"/>
    <path d="M287.171 166.224C289.307 166.224 290.931 164.664 290.931 162.456C290.931 160.44 289.651 158.944 287.667 158.832L290.779 155.848V154.48H283.987V155.84H289.011L285.267 159.224L285.955 160.352C286.315 160.168 286.755 160.048 287.147 160.048C288.531 160.048 289.467 161.032 289.467 162.456C289.467 163.864 288.563 164.84 287.163 164.864C286.139 164.88 285.243 164.312 284.899 163.24L283.531 163.632C284.019 165.232 285.459 166.224 287.171 166.224ZM296.899 166.24C299.139 166.24 300.787 164.592 300.787 162.352V158.128C300.787 155.888 299.139 154.24 296.899 154.24C294.659 154.24 293.011 155.888 293.011 158.128V162.352C293.011 164.592 294.659 166.24 296.899 166.24ZM294.459 162.432V158.04C294.459 156.688 295.547 155.6 296.899 155.6C298.251 155.6 299.339 156.688 299.339 158.04V162.432C299.339 163.784 298.251 164.872 296.899 164.872C295.547 164.872 294.459 163.784 294.459 162.432ZM306.914 166.24C309.154 166.24 310.802 164.592 310.802 162.352V158.128C310.802 155.888 309.154 154.24 306.914 154.24C304.674 154.24 303.026 155.888 303.026 158.128V162.352C303.026 164.592 304.674 166.24 306.914 166.24ZM304.474 162.432V158.04C304.474 156.688 305.562 155.6 306.914 155.6C308.266 155.6 309.354 156.688 309.354 158.04V162.432C309.354 163.784 308.266 164.872 306.914 164.872C305.562 164.872 304.474 163.784 304.474 162.432ZM317.01 166.24C319.426 166.24 320.882 164.264 320.882 161.672C320.882 159.08 319.418 157.12 317.018 157.12C315.938 157.12 315.082 157.496 314.466 158.144V154.48H313.034V166H314.306V165.024C314.938 165.784 315.842 166.24 317.01 166.24ZM314.306 161.672C314.306 159.76 315.106 158.424 316.794 158.424C318.554 158.424 319.37 159.848 319.37 161.672C319.37 163.512 318.538 164.936 316.834 164.936C315.09 164.936 314.306 163.568 314.306 161.672ZM326.604 166.24C329.02 166.24 330.476 164.264 330.476 161.672C330.476 159.08 329.012 157.12 326.612 157.12C325.436 157.12 324.532 157.568 323.9 158.328V157.36H322.628V169.84H324.06V165.2C324.676 165.856 325.532 166.24 326.604 166.24ZM323.9 161.672C323.9 159.76 324.7 158.424 326.388 158.424C328.148 158.424 328.964 159.848 328.964 161.672C328.964 163.512 328.132 164.936 326.428 164.936C324.684 164.936 323.9 163.568 323.9 161.672Z" fill="white"/>
    <path d="M518 160H335.5" stroke="#D3D7E0" stroke-width="2"/>
    <path d="M528 160L528.707 159.293L529.414 160L528.707 160.707L528 160ZM520.707 168.707L520 169.414L518.586 168L519.293 167.293L520.707 168.707ZM519.293 152.707L518.586 152L520 150.586L520.707 151.293L519.293 152.707ZM518 159L528 159L528 161L518 161L518 159ZM528.707 160.707L520.707 168.707L519.293 167.293L527.293 159.293L528.707 160.707ZM527.293 160.707L519.293 152.707L520.707 151.293L528.707 159.293L527.293 160.707Z" fill="#D3D7E0"/>
    <defs>
        <filter id="filter0_i_5931_37502" x="62.7373" y="83" width="530.263" height="54" filterUnits="userSpaceOnUse" color-interpolation-filters="sRGB">
            <feFlood flood-opacity="0" result="BackgroundImageFix"/>
            <feBlend mode="normal" in="SourceGraphic" in2="BackgroundImageFix" result="shape"/>
            <feColorMatrix in="SourceAlpha" type="matrix" values="0 0 0 0 0 0 0 0 0 0 0 0 0 0 0 0 0 0 127 0" result="hardAlpha"/>
            <feOffset dx="-8" dy="-4"/>
            <feComposite in2="hardAlpha" operator="arithmetic" k2="-1" k3="1"/>
            <feColorMatrix type="matrix" values="0 0 0 0 0.0666667 0 0 0 0 0.0196078 0 0 0 0 0.160784 0 0 0 0.16 0"/>
            <feBlend mode="normal" in2="shape" result="effect1_innerShadow_5931_37502"/>
        </filter>
        <filter id="filter1_i_5931_37502" x="591" y="83" width="32" height="54" filterUnits="userSpaceOnUse" color-interpolation-filters="sRGB">
            <feFlood flood-opacity="0" result="BackgroundImageFix"/>
            <feBlend mode="normal" in="SourceGraphic" in2="BackgroundImageFix" result="shape"/>
            <feColorMatrix in="SourceAlpha" type="matrix" values="0 0 0 0 0 0 0 0 0 0 0 0 0 0 0 0 0 0 127 0" result="hardAlpha"/>
            <feOffset dx="-8" dy="-4"/>
            <feComposite in2="hardAlpha" operator="arithmetic" k2="-1" k3="1"/>
            <feColorMatrix type="matrix" values="0 0 0 0 0.0666667 0 0 0 0 0.0196078 0 0 0 0 0.160784 0 0 0 0.16 0"/>
            <feBlend mode="normal" in2="shape" result="effect1_innerShadow_5931_37502"/>
        </filter>
        <filter id="filter2_i_5931_37502" x="657" y="83" width="32" height="54" filterUnits="userSpaceOnUse" color-interpolation-filters="sRGB">
            <feFlood flood-opacity="0" result="BackgroundImageFix"/>
            <feBlend mode="normal" in="SourceGraphic" in2="BackgroundImageFix" result="shape"/>
            <feColorMatrix in="SourceAlpha" type="matrix" values="0 0 0 0 0 0 0 0 0 0 0 0 0 0 0 0 0 0 127 0" result="hardAlpha"/>
            <feOffset dx="-8" dy="-4"/>
            <feComposite in2="hardAlpha" operator="arithmetic" k2="-1" k3="1"/>
            <feColorMatrix type="matrix" values="0 0 0 0 0.0666667 0 0 0 0 0.0196078 0 0 0 0 0.160784 0 0 0 0.16 0"/>
            <feBlend mode="normal" in2="shape" result="effect1_innerShadow_5931_37502"/>
        </filter>
        <filter id="filter3_i_5931_37502" x="621" y="83" width="38" height="54" filterUnits="userSpaceOnUse" color-interpolation-filters="sRGB">
            <feFlood flood-opacity="0" result="BackgroundImageFix"/>
            <feBlend mode="normal" in="SourceGraphic" in2="BackgroundImageFix" result="shape"/>
            <feColorMatrix in="SourceAlpha" type="matrix" values="0 0 0 0 0 0 0 0 0 0 0 0 0 0 0 0 0 0 127 0" result="hardAlpha"/>
            <feOffset dx="-8" dy="-4"/>
            <feComposite in2="hardAlpha" operator="arithmetic" k2="-1" k3="1"/>
            <feColorMatrix type="matrix" values="0 0 0 0 0.0666667 0 0 0 0 0.0196078 0 0 0 0 0.160784 0 0 0 0.16 0"/>
            <feBlend mode="normal" in2="shape" result="effect1_innerShadow_5931_37502"/>
        </filter>
        <filter id="filter4_i_5931_37502" x="687" y="83" width="134" height="54" filterUnits="userSpaceOnUse" color-interpolation-filters="sRGB">
            <feFlood flood-opacity="0" result="BackgroundImageFix"/>
            <feBlend mode="normal" in="SourceGraphic" in2="BackgroundImageFix" result="shape"/>
            <feColorMatrix in="SourceAlpha" type="matrix" values="0 0 0 0 0 0 0 0 0 0 0 0 0 0 0 0 0 0 127 0" result="hardAlpha"/>
            <feOffset dx="-8" dy="-4"/>
            <feComposite in2="hardAlpha" operator="arithmetic" k2="-1" k3="1"/>
            <feColorMatrix type="matrix" values="0 0 0 0 0.0666667 0 0 0 0 0.0196078 0 0 0 0 0.160784 0 0 0 0.16 0"/>
            <feBlend mode="normal" in2="shape" result="effect1_innerShadow_5931_37502"/>
        </filter>
        <filter id="filter5_i_5931_37502" x="819" y="83" width="67.0308" height="54" filterUnits="userSpaceOnUse" color-interpolation-filters="sRGB">
            <feFlood flood-opacity="0" result="BackgroundImageFix"/>
            <feBlend mode="normal" in="SourceGraphic" in2="BackgroundImageFix" result="shape"/>
            <feColorMatrix in="SourceAlpha" type="matrix" values="0 0 0 0 0 0 0 0 0 0 0 0 0 0 0 0 0 0 127 0" result="hardAlpha"/>
            <feOffset dx="-8" dy="-4"/>
            <feComposite in2="hardAlpha" operator="arithmetic" k2="-1" k3="1"/>
            <feColorMatrix type="matrix" values="0 0 0 0 0.0666667 0 0 0 0 0.0196078 0 0 0 0 0.160784 0 0 0 0.16 0"/>
            <feBlend mode="normal" in2="shape" result="effect1_innerShadow_5931_37502"/>
        </filter>
    </defs>
</svg>
